<svg width="24" height="24" viewBox="0 0 24 24" fill="none" xmlns="http://www.w3.org/2000/svg">
<path d="M19.918 4.56499C19.118 3.83799 17.8065 3.89499 17.0545 4.68749L14.4505 7.44399L6.68746 5.13849C6.01996 4.91649 5.28896 5.11299 4.82346 5.63949C4.61246 5.87749 4.51296 6.18549 4.54246 6.50649C4.57346 6.83849 4.74296 7.14699 5.01546 7.35899L10.689 11.41L7.10296 15.108L5.85746 14.7275C5.19546 14.3965 4.39296 14.5195 3.86096 15.032C3.63396 15.251 3.50696 15.547 3.50396 15.8665C3.50096 16.187 3.62896 16.5005 3.88646 16.7525L4.90996 17.4825L4.75146 17.718C4.35996 18.2975 4.43446 19.0765 4.92846 19.5705L4.92896 19.571C5.42296 20.065 6.20196 20.14 6.78146 19.748L7.01746 19.589L7.77396 20.6445C7.99696 20.8675 8.30546 20.995 8.62246 20.995C8.62596 20.995 8.62996 20.995 8.63296 20.995C8.95246 20.992 9.24846 20.865 9.46746 20.638C9.98046 20.106 10.103 19.303 9.78746 18.6795L9.39246 17.3955L13.0905 13.81L17.1475 19.491C17.353 19.7555 17.6615 19.9255 17.9935 19.9565C18.3155 19.9865 18.6235 19.8865 18.8605 19.6755C19.3865 19.2095 19.583 18.478 19.364 17.8195L17.056 10.0485L19.8125 7.44449C20.606 6.69299 20.662 5.38199 19.918 4.56499Z" fill="black"/>
</svg>
