<svg width="24" height="24" viewBox="0 0 24 24" fill="none" xmlns="http://www.w3.org/2000/svg">
<path fill-rule="evenodd" clip-rule="evenodd" d="M15.9231 4.78027C17.0173 5.43525 17.7503 6.63197 17.7503 8V13H19.7659L19.9856 13.0117C21.0692 13.1298 21.8765 14.11 21.7532 15.2207L21.1975 20.2207C21.092 21.17 20.3335 21.903 19.3997 21.9912L19.2102 22H4.79029C3.83507 22 3.02298 21.3267 2.83228 20.4082L2.80299 20.2207L2.24732 15.2207C2.11577 14.0361 3.04272 13.0001 4.23463 13H6.25025V8C6.25025 6.6322 6.98249 5.43532 8.07642 4.78027C8.17815 5.29469 8.37901 5.77332 8.65748 6.19629C8.10738 6.60648 7.75025 7.26104 7.75025 8V9H16.2503V8C16.2503 7.26083 15.8924 6.60646 15.342 6.19629C15.6206 5.77327 15.8213 5.29478 15.9231 4.78027ZM4.23463 14.5C3.9367 14.5001 3.70465 14.7595 3.73756 15.0557L4.29322 20.0557C4.32156 20.3086 4.53569 20.5 4.79029 20.5H5.25025V16.5C5.25025 16.0858 5.58604 15.75 6.00025 15.75C6.41436 15.7501 6.75025 16.0859 6.75025 16.5V20.5H8.25025V16.5C8.25025 16.0858 8.58604 15.75 9.00025 15.75C9.41436 15.7501 9.75025 16.0859 9.75025 16.5V20.5H11.2503V16.5C11.2503 16.0858 11.586 15.75 12.0003 15.75C12.4144 15.7501 12.7503 16.0859 12.7503 16.5V20.5H14.2503V16.5C14.2503 16.0858 14.586 15.75 15.0003 15.75C15.4144 15.7501 15.7503 16.0859 15.7503 16.5V20.5H17.2503V16.5C17.2503 16.0858 17.586 15.75 18.0003 15.75C18.4144 15.7501 18.7503 16.0859 18.7503 16.5V20.5H19.2102C19.4647 20.4999 19.679 20.3086 19.7073 20.0557L20.2629 15.0557C20.2958 14.7596 20.0637 14.5002 19.7659 14.5H4.23463ZM7.75025 12V13H16.2503V12H7.75025Z" fill="black"/>
<path d="M12.6399 2.875C12.7863 2.7286 13.0237 2.72868 13.1702 2.875C13.3166 3.02145 13.3166 3.25883 13.1702 3.40527L12.7337 3.84277C12.7445 3.89347 12.7503 3.94608 12.7503 4C12.7503 4.41414 12.4144 4.74987 12.0003 4.75C11.586 4.75 11.2503 4.41421 11.2503 4C11.2503 3.58579 11.586 3.25 12.0003 3.25C12.0802 3.25002 12.1575 3.26296 12.2297 3.28613L12.6399 2.875Z" fill="black"/>
<path fill-rule="evenodd" clip-rule="evenodd" d="M12.0003 1C13.657 1.00013 15.0003 2.34322 15.0003 4C15.0003 5.65678 13.657 6.99987 12.0003 7C10.3434 7 9.00025 5.65685 9.00025 4C9.00025 2.34315 10.3434 1 12.0003 1ZM12.0003 2.125C10.9647 2.125 10.1253 2.96447 10.1253 4C10.1253 5.03553 10.9647 5.875 12.0003 5.875C13.0357 5.87487 13.8753 5.03546 13.8753 4C13.8753 2.96454 13.0357 2.12513 12.0003 2.125Z" fill="black"/>
</svg>
