<svg width="24" height="24" viewBox="0 0 24 24" fill="none" xmlns="http://www.w3.org/2000/svg">
<path d="M16.7571 4.92159C16.95 4.81144 17.1973 4.87708 17.3088 5.06807L18.1487 6.50948L18.1819 6.58468C18.2406 6.76077 18.1695 6.95979 18.0012 7.05636C17.8325 7.15283 17.6219 7.11503 17.4973 6.97628L17.4494 6.90987L16.8117 5.81514L15.7063 6.44698C15.5134 6.55733 15.2661 6.49154 15.1545 6.3005C15.0434 6.10931 15.1092 5.86407 15.302 5.75362L16.7571 4.92159Z" fill="black"/>
<path d="M6.48558 5.2878C6.66343 5.22945 6.86572 5.30041 6.96312 5.46749C7.06008 5.6345 7.02077 5.84214 6.88108 5.96554L6.81468 6.01436L5.71019 6.6462L6.34788 7.7419C6.45901 7.93307 6.39213 8.1783 6.19944 8.28878C6.00651 8.39886 5.75909 8.33337 5.64769 8.14229L4.80784 6.69991C4.69658 6.50863 4.76332 6.26345 4.95628 6.15304L6.41038 5.32003L6.48558 5.2878Z" fill="black"/>
<path fill-rule="evenodd" clip-rule="evenodd" d="M8.2473 2.1335C8.72981 1.85764 9.34761 2.02161 9.6262 2.49971L11.5832 5.86007C11.6245 5.82673 11.6685 5.79553 11.716 5.76827L16.9592 2.76827C17.4416 2.49246 18.0595 2.6556 18.3381 3.1335L21.3645 8.32979C21.643 8.8079 21.4775 9.41973 20.9953 9.696L16.8557 12.0632C17.0938 12.3244 17.1676 12.6792 17.0784 12.9997H19.7659L19.9856 13.0114C21.0691 13.1295 21.8763 14.1099 21.7532 15.2204L21.1975 20.2204C21.092 21.1697 20.3335 21.9027 19.3996 21.9909L19.2102 21.9997H4.79026C3.83503 21.9997 3.02294 21.3264 2.83226 20.4079L2.80296 20.2204L2.2473 15.2204C2.1159 14.0359 3.04278 12.9998 4.2346 12.9997H6.57444C6.49787 12.7255 6.53984 12.425 6.70335 12.1804C6.29976 12.2477 5.879 12.0679 5.66233 11.696L2.63499 6.49971C2.35663 6.02147 2.52262 5.40958 3.00511 5.1335L8.2473 2.1335ZM4.2346 14.4997C3.93675 14.4998 3.70478 14.7594 3.73753 15.0554L4.29319 20.0554C4.32152 20.3084 4.53565 20.4997 4.79026 20.4997H5.25023V16.4997C5.25037 16.0856 5.5861 15.7497 6.00023 15.7497C6.41424 15.7498 6.75008 16.0857 6.75023 16.4997V20.4997H8.25023V16.4997C8.25037 16.0856 8.5861 15.7497 9.00023 15.7497C9.41424 15.7498 9.75008 16.0857 9.75023 16.4997V20.4997H11.2502V16.4997C11.2504 16.0856 11.5861 15.7497 12.0002 15.7497C12.4142 15.7498 12.7501 16.0857 12.7502 16.4997V20.4997H14.2502V16.4997C14.2504 16.0856 14.5861 15.7497 15.0002 15.7497C15.4142 15.7498 15.7501 16.0857 15.7502 16.4997V20.4997H17.2502V16.4997C17.2504 16.0856 17.5861 15.7497 18.0002 15.7497C18.4142 15.7498 18.7501 16.0857 18.7502 16.4997V20.4997H19.2102C19.4647 20.4996 19.6789 20.3083 19.7073 20.0554L20.2629 15.0554C20.2956 14.7594 20.0636 14.4999 19.7659 14.4997H4.2346ZM7.83128 12.7321L8.10179 12.9997H15.552L15.8215 12.7321L15.7717 12.6833L12.178 9.12081L11.8264 8.77315L7.83128 12.7321ZM12.4963 6.70675L13.9201 9.15108L15.9719 11.1833L20.2151 8.75655L17.3899 3.90694L12.4963 6.70675ZM3.78538 6.07296L6.61058 10.9226L9.76683 9.11593L11.1135 7.78194C11.154 7.74192 11.1973 7.70631 11.2424 7.67452L8.67796 3.27315L3.78538 6.07296Z" fill="black"/>
</svg>
