<svg width="24" height="24" viewBox="0 0 24 24" fill="none" xmlns="http://www.w3.org/2000/svg">
<path d="M5.87623 5.75C7.45509 4.20269 9.61607 3.25 12 3.25C12.6329 3.25 13.2494 3.31708 13.8429 3.44425C14.2479 3.53104 14.6466 3.27306 14.7334 2.86804C14.8201 2.46302 14.5622 2.06433 14.1571 1.97754C13.461 1.82838 12.7392 1.75 12 1.75C9.16821 1.75 6.60433 2.89904 4.75 4.75435V4.5C4.75 4.08579 4.41421 3.75 4 3.75C3.58579 3.75 3.25 4.08579 3.25 4.5V6.5C3.25 6.91421 3.58579 7.25 4 7.25H6C6.41421 7.25 6.75 6.91421 6.75 6.5C6.75 6.08579 6.41421 5.75 6 5.75H5.87623Z" fill="black"/>
<path d="M16.25 3.90758V3.5C16.25 3.08579 16.5858 2.75 17 2.75H19C19.4142 2.75 19.75 3.08579 19.75 3.5C19.75 3.91421 19.4142 4.25 19 4.25H18.7083C20.8768 6.12871 22.25 8.90377 22.25 12C22.25 13.1298 22.0669 14.2183 21.7283 15.2367C21.5976 15.6297 21.173 15.8424 20.7799 15.7117C20.3869 15.581 20.1742 15.1564 20.3049 14.7633C20.5935 13.8957 20.75 12.9669 20.75 12C20.75 9.36919 19.5893 7.00904 17.75 5.40429V5.5C17.75 5.91421 17.4142 6.25 17 6.25C16.5858 6.25 16.25 5.91421 16.25 5.5V3.93243C16.2499 3.92415 16.2499 3.91587 16.25 3.90758Z" fill="black"/>
<path d="M3.69508 9.23667C3.8258 8.84362 3.61313 8.41903 3.22008 8.28832C2.82703 8.15761 2.40244 8.37028 2.27173 8.76333C1.93306 9.78169 1.75 10.8702 1.75 12C1.75 15.0962 3.12319 17.8713 5.29166 19.75H5C4.58579 19.75 4.25 20.0858 4.25 20.5C4.25 20.9142 4.58579 21.25 5 21.25H7C7.41421 21.25 7.75 20.9142 7.75 20.5V20.0924C7.75014 20.0841 7.75014 20.0758 7.75 20.0676V18.5C7.75 18.0858 7.41421 17.75 7 17.75C6.58579 17.75 6.25 18.0858 6.25 18.5V18.5957C4.41068 16.991 3.25 14.6308 3.25 12C3.25 11.0331 3.40654 10.1043 3.69508 9.23667Z" fill="black"/>
<path d="M19.25 19.2457C17.3957 21.101 14.8316 22.25 12 22.25C11.0677 22.25 10.1633 22.1253 9.30311 21.8913C8.90343 21.7826 8.66757 21.3704 8.7763 20.9707C8.88504 20.571 9.2972 20.3352 9.69689 20.4439C10.4299 20.6433 11.2019 20.75 12 20.75C14.3841 20.75 16.5448 19.7973 18.1237 18.25H18C17.5858 18.25 17.25 17.9142 17.25 17.5C17.25 17.0858 17.5858 16.75 18 16.75H20C20.4142 16.75 20.75 17.0858 20.75 17.5V19.5C20.75 19.9142 20.4142 20.25 20 20.25C19.5858 20.25 19.25 19.9142 19.25 19.5V19.2457Z" fill="black"/>
<path fill-rule="evenodd" clip-rule="evenodd" d="M7.25 9C7.25 8.0335 8.0335 7.25 9 7.25H15C15.9665 7.25 16.75 8.0335 16.75 9V15C16.75 15.9665 15.9665 16.75 15 16.75H9C8.0335 16.75 7.25 15.9665 7.25 15V9ZM11.25 8.75V11C11.25 11.4142 11.5858 11.75 12 11.75C12.4142 11.75 12.75 11.4142 12.75 11V8.75H15C15.1381 8.75 15.25 8.86193 15.25 9V15C15.25 15.1381 15.1381 15.25 15 15.25H9C8.86193 15.25 8.75 15.1381 8.75 15V9C8.75 8.86193 8.86193 8.75 9 8.75H11.25Z" fill="black"/>
</svg>
