<svg width="24" height="24" viewBox="0 0 24 24" fill="none" xmlns="http://www.w3.org/2000/svg">
<path d="M20 16.75C20.4142 16.75 20.75 17.0858 20.75 17.5V19.5C20.75 19.9142 20.4142 20.25 20 20.25C19.5858 20.25 19.25 19.9142 19.25 19.5V19.2461C17.3957 21.1013 14.8315 22.25 12 22.25C11.0677 22.25 10.1629 22.1256 9.30273 21.8916C8.90322 21.7827 8.66765 21.3703 8.77637 20.9707C8.88512 20.571 9.29759 20.3356 9.69727 20.4443C10.4301 20.6437 11.2021 20.75 12 20.75C14.3841 20.75 16.5451 19.7973 18.124 18.25H18C17.5858 18.25 17.25 17.9142 17.25 17.5C17.25 17.0858 17.5858 16.75 18 16.75H20ZM2.27148 8.76367C2.40215 8.37075 2.82679 8.15764 3.21973 8.28809C3.61265 8.41876 3.82576 8.84339 3.69531 9.23633C3.40677 10.104 3.25 11.0331 3.25 12C3.25 14.6308 4.41069 16.9909 6.25 18.5957V18.5C6.25 18.0858 6.58579 17.75 7 17.75C7.41421 17.75 7.75 18.0858 7.75 18.5V20.5C7.75 20.9142 7.41421 21.25 7 21.25H5C4.58579 21.25 4.25 20.9142 4.25 20.5C4.25 20.0858 4.58579 19.75 5 19.75H5.29199C3.12353 17.8713 1.75 15.0962 1.75 12C1.75 10.8704 1.9329 9.78192 2.27148 8.76367ZM14.8584 5.47266C15.0366 5.3604 15.2691 5.34519 15.4551 5.44238C15.6411 5.5397 15.7656 5.72692 15.7656 5.93652V8.1377C16.4709 8.60184 17.037 9.24557 17.3936 9.99414H17.9209C18.2539 9.99426 18.5714 10.1217 18.8115 10.3535C19.0518 10.5856 19.1836 10.8932 19.1836 11.2227V12.54C19.1836 12.862 19.0518 13.1768 18.8115 13.4014C18.5714 13.6256 18.2539 13.7606 17.9209 13.7607H17.3936C17.161 14.2473 16.8425 14.696 16.4473 15.0703V16.1709C16.4473 16.5827 16.2769 16.9795 15.9746 17.2715C15.68 17.556 15.2614 17.7285 14.8428 17.7285V17.7363C14.4165 17.7363 14.0054 17.5712 13.7031 17.2793C13.4552 17.0398 13.3005 16.7403 13.2539 16.4111H10.2695C10.2152 16.7404 10.0595 17.0473 9.81934 17.2793C9.22248 17.8554 8.14569 17.8554 7.54883 17.2793C7.24654 16.9948 7.07523 16.5904 7.0752 16.1787V15.0781C6.47069 14.4942 6.04427 13.7605 5.83496 12.9521C5.61016 12.0537 5.67259 11.1325 6.01367 10.2715C6.35475 9.41053 6.95147 8.68423 7.73438 8.16016C8.51731 7.63608 9.44007 7.35938 10.3936 7.35938H11.9287L14.8584 5.47266ZM12.4395 8.38477C12.3465 8.44456 12.2304 8.48242 12.1143 8.48242H10.4014C9.68051 8.48242 8.99047 8.69181 8.40137 9.08105C7.81229 9.47033 7.36227 10.0242 7.10645 10.668C6.85063 11.3118 6.80407 12.0088 6.97461 12.6826C7.14519 13.3563 7.51794 13.9548 8.05273 14.4189C8.17667 14.5238 8.24609 14.6742 8.24609 14.8389V16.1787C8.24613 16.291 8.29269 16.4037 8.37793 16.4785C8.54072 16.6354 8.84311 16.6355 9.00586 16.4785C9.09113 16.3962 9.1377 16.2907 9.1377 16.1709V15.7891C9.13776 15.6244 9.21496 15.4671 9.34668 15.3623C9.47837 15.2576 9.64891 15.2055 9.81934 15.2354C10.0131 15.2653 10.2076 15.2803 10.4092 15.2803H13.1455C13.3392 15.2803 13.5407 15.2653 13.7344 15.2354C13.7499 15.2354 13.7657 15.2333 13.7812 15.2314C13.7965 15.2296 13.8119 15.2276 13.8271 15.2275L13.8193 15.2354C13.9588 15.2354 14.0907 15.2804 14.1914 15.3701C14.3232 15.4749 14.4014 15.6322 14.4014 15.7969V16.1787C14.4014 16.291 14.448 16.4037 14.5332 16.4785C14.6961 16.6353 14.9985 16.6356 15.1611 16.4785C15.2464 16.3962 15.293 16.2907 15.293 16.1709V14.8311C15.293 14.6739 15.3624 14.5169 15.4863 14.4121C15.9282 14.0303 16.2613 13.5507 16.4629 13.0117C16.5482 12.7871 16.7656 12.6377 17.0137 12.6377H17.9277C17.9277 12.6377 17.9825 12.6299 17.998 12.6074C18.0135 12.5925 18.0293 12.5625 18.0293 12.54V11.2227C18.0293 11.2227 18.0213 11.17 17.998 11.1475C17.9825 11.1325 17.951 11.1172 17.9277 11.1172H17.0137C16.7656 11.1172 16.5482 10.9678 16.4629 10.7432C16.1839 9.97966 15.626 9.33593 14.9053 8.93164C14.727 8.83431 14.6182 8.64648 14.6182 8.44434V6.98438L12.4395 8.38477ZM19 2.75C19.4142 2.75 19.75 3.08579 19.75 3.5C19.75 3.91421 19.4142 4.25 19 4.25H18.708C20.8765 6.12871 22.25 8.90377 22.25 12C22.25 13.1296 22.0671 14.2181 21.7285 15.2363C21.5978 15.6292 21.1732 15.8424 20.7803 15.7119C20.3874 15.5812 20.1742 15.1566 20.3047 14.7637C20.5932 13.896 20.75 12.9669 20.75 12C20.75 9.36919 19.5893 7.00905 17.75 5.4043V5.5C17.75 5.91421 17.4142 6.25 17 6.25C16.5858 6.25 16.25 5.91421 16.25 5.5V3.5C16.25 3.08579 16.5858 2.75 17 2.75H19ZM13.998 9.88184C14.3158 9.88188 14.579 10.1291 14.5791 10.4434C14.5791 10.7578 14.3158 11.0126 13.998 11.0127V11.0049C13.6802 11.0049 13.417 10.7503 13.417 10.4434C13.4171 10.1365 13.6803 9.88184 13.998 9.88184ZM12 1.75C12.7392 1.75 13.4611 1.82837 14.1572 1.97754C14.5622 2.06436 14.8202 2.46317 14.7334 2.86816C14.6466 3.27312 14.2478 3.53111 13.8428 3.44434C13.2493 3.31718 12.6329 3.25 12 3.25C9.61607 3.25 7.45483 4.20269 5.87598 5.75H6C6.41421 5.75 6.75 6.08579 6.75 6.5C6.75 6.91421 6.41421 7.25 6 7.25H4C3.58579 7.25 3.25 6.91421 3.25 6.5V4.5C3.25 4.08579 3.58579 3.75 4 3.75C4.41421 3.75 4.75 4.08579 4.75 4.5V4.75391C6.60432 2.89873 9.16832 1.75 12 1.75Z" fill="black"/>
</svg>
