<svg width="24" height="24" viewBox="0 0 24 24" fill="none" xmlns="http://www.w3.org/2000/svg">
<path d="M20 16.75C20.4142 16.75 20.75 17.0858 20.75 17.5V19.5C20.75 19.9142 20.4142 20.25 20 20.25C19.5858 20.25 19.25 19.9142 19.25 19.5V19.2461C17.3957 21.1013 14.8315 22.25 12 22.25C11.0677 22.25 10.1629 22.1256 9.30273 21.8916C8.90322 21.7827 8.66765 21.3703 8.77637 20.9707C8.88512 20.571 9.29759 20.3356 9.69727 20.4443C10.4301 20.6437 11.2021 20.75 12 20.75C14.3841 20.75 16.5451 19.7973 18.124 18.25H18C17.5858 18.25 17.25 17.9142 17.25 17.5C17.25 17.0858 17.5858 16.75 18 16.75H20ZM2.27148 8.76367C2.40215 8.37075 2.82679 8.15764 3.21973 8.28809C3.61265 8.41876 3.82576 8.84339 3.69531 9.23633C3.40677 10.104 3.25 11.0331 3.25 12C3.25 14.6308 4.41069 16.9909 6.25 18.5957V18.5C6.25 18.0858 6.58579 17.75 7 17.75C7.41421 17.75 7.75 18.0858 7.75 18.5V20.5C7.75 20.9142 7.41421 21.25 7 21.25H5C4.58579 21.25 4.25 20.9142 4.25 20.5C4.25 20.0858 4.58579 19.75 5 19.75H5.29199C3.12353 17.8713 1.75 15.0962 1.75 12C1.75 10.8704 1.9329 9.78192 2.27148 8.76367ZM13.8867 12.8779L17.502 13.3525L17.9199 13.667C18.7193 14.2669 18.2874 15.5201 17.2812 15.5205H16.1621C16.0489 15.5205 15.9469 15.5864 15.9023 15.6885L15.2734 17.127C15.0596 17.6158 14.5162 17.8808 13.9902 17.752L13.7178 17.6846C13.5887 17.6529 13.4545 17.714 13.3955 17.8311L12.8965 18.8223C12.7298 19.1531 12.2909 19.2441 12.002 19.0078L11.8506 18.8828C11.0133 18.1981 10.3478 17.3524 9.88672 16.4111L11.2891 14.6143C11.358 14.5261 11.4743 14.4872 11.584 14.5146L12.0938 14.6416C12.7208 14.7985 13.3505 14.3959 13.457 13.7695L13.5693 13.1074C13.5945 12.9596 13.7353 12.858 13.8867 12.8779ZM19 2.75C19.4142 2.75 19.75 3.08579 19.75 3.5C19.75 3.91421 19.4142 4.25 19 4.25H18.708C20.8765 6.12871 22.25 8.90377 22.25 12C22.25 13.1296 22.0671 14.2181 21.7285 15.2363C21.5978 15.6292 21.1732 15.8424 20.7803 15.7119C20.3874 15.5812 20.1742 15.1566 20.3047 14.7637C20.5932 13.896 20.75 12.9669 20.75 12C20.75 9.36919 19.5893 7.00905 17.75 5.4043V5.5C17.75 5.91421 17.4142 6.25 17 6.25C16.5858 6.25 16.25 5.91421 16.25 5.5V3.5C16.25 3.08579 16.5858 2.75 17 2.75H19ZM10.4072 8.56543C11.4166 8.23535 12.5234 8.64235 13.0635 9.54199L13.3584 10.0322C13.5103 10.2852 13.7106 10.5071 13.9482 10.6855L16.1865 12.3662L13.9951 12.0781C13.4039 12.0006 12.857 12.3972 12.7588 12.9746L12.6465 13.6367C12.6192 13.797 12.4574 13.9005 12.2969 13.8604L11.7871 13.7324C11.3583 13.6252 10.9058 13.7793 10.6367 14.124L9.5293 15.543C9.4434 15.2895 9.37108 15.0308 9.31348 14.7686L9.20312 14.8418C8.54614 15.2716 7.65219 14.9704 7.40234 14.2354C7.25889 13.813 7.37064 13.347 7.69141 13.0322L8.64844 12.0938C8.57328 12.0637 8.50706 12.0301 8.45117 12.002C8.42259 11.9876 8.39633 11.9745 8.37305 11.9639C8.20626 11.8875 7.94788 11.7897 7.41699 11.7412C7.12231 11.7143 6.8408 11.5536 6.71777 11.2812C6.6548 11.1418 6.6385 10.9779 6.69141 10.8164C6.74416 10.6558 6.8549 10.5283 6.99023 10.4385C7.6428 10.0053 8.60323 9.67686 9.19824 9.50586C9.46807 9.07514 9.88834 8.73517 10.4072 8.56543ZM8.27344 13.6035C8.17301 13.7021 8.13782 13.8472 8.18262 13.9795C8.26082 14.2097 8.54026 14.3043 8.74609 14.1699L9.17578 13.8887C9.15493 13.6655 9.14453 13.4401 9.14453 13.2139V12.9951C9.14452 12.9153 9.14229 12.8355 9.13672 12.7559L8.27344 13.6035ZM11.0186 10.3477C10.731 10.3477 10.498 10.5772 10.498 10.8594C10.4982 11.1414 10.7311 11.3701 11.0186 11.3701C11.306 11.3701 11.5389 11.1414 11.5391 10.8594C11.5391 10.5772 11.3061 10.3477 11.0186 10.3477ZM8.87402 10.4561C8.48489 10.5899 8.05336 10.7627 7.69629 10.96C8.19474 11.0226 8.49628 11.1291 8.72168 11.2324C8.80567 11.2709 8.8638 11.2997 8.90625 11.3203L8.93945 11.3359L8.88672 10.9785C8.86106 10.8022 8.85753 10.627 8.87402 10.4561ZM10.3291 4.87012C10.9228 4.87012 11.405 5.3422 11.4053 5.9248V6.03516C11.4053 6.15891 11.5327 6.24308 11.6494 6.19629C12.022 6.04697 12.4497 6.13191 12.7344 6.41113L12.7822 6.45801C13.2119 6.87974 13.2011 7.54151 12.8154 7.95312C12.02 7.47488 11.0283 7.3411 10.0947 7.64648C9.49869 7.84149 8.9939 8.19326 8.61719 8.64258L7.91992 8.18066C7.32934 7.78962 7.24824 6.96711 7.75195 6.47266L7.81445 6.41113C8.09915 6.13174 8.52766 6.04688 8.90039 6.19629C9.01708 6.24293 9.14453 6.15885 9.14453 6.03516V5.9248C9.1448 5.34226 9.62609 4.87021 10.2197 4.87012H10.3291ZM12 1.75C12.7392 1.75 13.4611 1.82837 14.1572 1.97754C14.5622 2.06436 14.8202 2.46317 14.7334 2.86816C14.6466 3.27312 14.2478 3.53111 13.8428 3.44434C13.2493 3.31718 12.6329 3.25 12 3.25C9.61607 3.25 7.45483 4.20269 5.87598 5.75H6C6.41421 5.75 6.75 6.08579 6.75 6.5C6.75 6.91421 6.41421 7.25 6 7.25H4C3.58579 7.25 3.25 6.91421 3.25 6.5V4.5C3.25 4.08579 3.58579 3.75 4 3.75C4.41421 3.75 4.75 4.08579 4.75 4.5V4.75391C6.60432 2.89873 9.16832 1.75 12 1.75Z" fill="black"/>
</svg>
