<svg width="24" height="24" viewBox="0 0 24 24" fill="none" xmlns="http://www.w3.org/2000/svg">
<path d="M20 16.75C20.4142 16.75 20.75 17.0858 20.75 17.5V19.5C20.75 19.9142 20.4142 20.25 20 20.25C19.5858 20.25 19.25 19.9142 19.25 19.5V19.2461C17.3957 21.1013 14.8315 22.25 12 22.25C11.0677 22.25 10.1629 22.1256 9.30273 21.8916C8.90322 21.7827 8.66765 21.3703 8.77637 20.9707C8.88512 20.571 9.29759 20.3356 9.69727 20.4443C10.4301 20.6437 11.2021 20.75 12 20.75C14.3841 20.75 16.5451 19.7973 18.124 18.25H18C17.5858 18.25 17.25 17.9142 17.25 17.5C17.25 17.0858 17.5858 16.75 18 16.75H20ZM2.27148 8.76367C2.40215 8.37075 2.82679 8.15764 3.21973 8.28809C3.61265 8.41876 3.82576 8.84339 3.69531 9.23633C3.40677 10.104 3.25 11.0331 3.25 12C3.25 14.6308 4.41069 16.9909 6.25 18.5957V18.5C6.25 18.0858 6.58579 17.75 7 17.75C7.41421 17.75 7.75 18.0858 7.75 18.5V20.5C7.75 20.9142 7.41421 21.25 7 21.25H5C4.58579 21.25 4.25 20.9142 4.25 20.5C4.25 20.0858 4.58579 19.75 5 19.75H5.29199C3.12353 17.8713 1.75 15.0962 1.75 12C1.75 10.8704 1.9329 9.78192 2.27148 8.76367ZM10.5059 4.86719C11.1677 4.8674 11.704 5.40351 11.7041 6.06543V6.17969C11.7044 6.22822 11.7538 6.26124 11.7988 6.24316C12.2173 6.07225 12.698 6.16866 13.0176 6.48828L13.0654 6.53613C13.6271 7.09784 13.5129 8.03532 12.8398 8.44727C13.0456 8.61906 13.2249 8.82778 13.3672 9.06934L13.666 9.5752C13.8125 9.82386 14.0051 10.0425 14.2344 10.2178L18.2539 13.291C19.1468 13.9741 18.6634 15.4004 17.5391 15.4004H16.4072C16.3371 15.4005 16.2738 15.4424 16.2461 15.5068L15.6104 16.9902C15.3726 17.5446 14.7678 17.8444 14.1826 17.6982L13.9072 17.6299C13.8272 17.6099 13.7437 17.6478 13.707 17.7217L13.2021 18.7441C13.0017 19.1494 12.4743 19.2602 12.127 18.9707L11.9736 18.8428C10.8726 17.9253 10.062 16.7315 9.60938 15.4053L9.55176 15.3623L9.58105 15.3223C9.51376 15.1175 9.45533 14.9096 9.40527 14.6992C8.68183 15.1623 7.71168 14.822 7.43848 14.0029C7.28005 13.5277 7.40356 13.0037 7.75781 12.6494L8.61328 11.7939C8.5896 11.7821 8.56777 11.7701 8.54785 11.7598C8.52174 11.7463 8.49866 11.7345 8.47949 11.7256C8.32253 11.6523 8.07303 11.5547 7.54785 11.5059C7.20918 11.4743 6.89329 11.2818 6.74512 10.9697C6.66941 10.81 6.63902 10.6179 6.6875 10.4229C6.73628 10.2267 6.85452 10.0663 7.00586 9.94922C7.57107 9.51241 8.32921 9.21134 8.85156 9.05371L8.00488 8.4834C7.34948 8.04122 7.26026 7.11084 7.81934 6.55176L7.88281 6.48828C8.20242 6.16885 8.68224 6.07231 9.10059 6.24316C9.14574 6.26161 9.195 6.22837 9.19531 6.17969V6.06543C9.19539 5.40338 9.73246 4.86719 10.3945 4.86719H10.5059ZM14.0947 12.7412C13.9966 12.7194 13.9006 12.7838 13.8838 12.8828L13.7793 13.5059C13.6608 14.2156 12.961 14.6727 12.2637 14.4951L11.7529 14.3643C11.6842 14.3467 11.6109 14.3729 11.5684 14.4297L10.7695 15.4941C11.1468 16.3919 11.7205 17.2053 12.459 17.8691L12.7627 17.2549C13.019 16.7368 13.6014 16.4674 14.1621 16.6074L14.4375 16.6758C14.521 16.6967 14.6075 16.6542 14.6416 16.5752L15.2773 15.0918C15.4711 14.6399 15.9156 14.3467 16.4072 14.3467H17.5391C17.5776 14.3467 17.5989 14.3363 17.6123 14.3262C17.6287 14.3136 17.6457 14.292 17.6553 14.2637C17.6647 14.2356 17.6645 14.2093 17.6592 14.1895C17.6547 14.1732 17.6442 14.1516 17.6133 14.1279L16.498 13.2744L14.0947 12.7412ZM19 2.75C19.4142 2.75 19.75 3.08579 19.75 3.5C19.75 3.91421 19.4142 4.25 19 4.25H18.708C20.8765 6.12871 22.25 8.90377 22.25 12C22.25 13.1296 22.0671 14.2181 21.7285 15.2363C21.5978 15.6292 21.1732 15.8424 20.7803 15.7119C20.3874 15.5812 20.1742 15.1566 20.3047 14.7637C20.5932 13.896 20.75 12.9669 20.75 12C20.75 9.36919 19.5893 7.00905 17.75 5.4043V5.5C17.75 5.91421 17.4142 6.25 17 6.25C16.5858 6.25 16.25 5.91421 16.25 5.5V3.5C16.25 3.08579 16.5858 2.75 17 2.75H19ZM12.46 9.60449C12.1393 9.05999 11.4813 8.81295 10.8818 9.0127C10.2676 9.21744 9.88793 9.83269 9.97949 10.4736L10.2031 12.0439C10.2335 12.2568 10.249 12.4715 10.249 12.6865V12.9121C10.249 13.3657 10.2952 13.8142 10.3848 14.251L10.7256 13.7969C11.0236 13.3996 11.5315 13.2211 12.0127 13.3438L12.5234 13.4736C12.6231 13.499 12.7233 13.4335 12.7402 13.332L12.8438 12.71C12.9596 12.0149 13.6353 11.5591 14.3232 11.7119L14.5088 11.7529L13.5947 11.0547C13.2576 10.7969 12.9732 10.476 12.7578 10.1104L12.46 9.60449ZM8.50293 13.3945C8.43089 13.4666 8.40528 13.5733 8.4375 13.6699C8.49366 13.8379 8.69432 13.9066 8.8418 13.8086L9.22266 13.5547C9.2049 13.3419 9.19531 13.1275 9.19531 12.9121V12.7012L8.50293 13.3945ZM11.2031 9.95898C11.4939 9.95919 11.7295 10.1955 11.7295 10.4863C11.7294 10.7771 11.4939 11.0125 11.2031 11.0127C10.9122 11.0127 10.6758 10.7772 10.6758 10.4863C10.6758 10.1954 10.9122 9.95898 11.2031 9.95898ZM8.91602 10.1406C8.6486 10.2339 8.34683 10.3598 8.07031 10.5117C8.46195 10.5791 8.72132 10.6755 8.9248 10.7705L8.95996 10.7871L8.93652 10.623C8.91336 10.4609 8.90661 10.2989 8.91602 10.1406ZM10.3945 5.91992C10.3144 5.91992 10.2491 5.9853 10.249 6.06543V6.17969C10.2487 6.97707 9.44042 7.5203 8.70215 7.21875C8.67658 7.20831 8.64754 7.21397 8.62793 7.2334L8.56445 7.29688C8.47386 7.38747 8.48851 7.53774 8.59473 7.60938L9.7998 8.42285C10.0176 8.24657 10.27 8.10662 10.5488 8.01367C10.9149 7.89168 11.2931 7.86236 11.6553 7.91602L12.2852 7.55078C12.3824 7.49436 12.3998 7.36077 12.3203 7.28125L12.2725 7.2334C12.2529 7.21379 12.2229 7.20826 12.1973 7.21875C11.4591 7.51989 10.6507 6.97691 10.6504 6.17969V6.06543C10.6503 5.98543 10.5858 5.92014 10.5059 5.91992H10.3945ZM12 1.75C12.7392 1.75 13.4611 1.82837 14.1572 1.97754C14.5622 2.06436 14.8202 2.46317 14.7334 2.86816C14.6466 3.27312 14.2478 3.53111 13.8428 3.44434C13.2493 3.31718 12.6329 3.25 12 3.25C9.61607 3.25 7.45483 4.20269 5.87598 5.75H6C6.41421 5.75 6.75 6.08579 6.75 6.5C6.75 6.91421 6.41421 7.25 6 7.25H4C3.58579 7.25 3.25 6.91421 3.25 6.5V4.5C3.25 4.08579 3.58579 3.75 4 3.75C4.41421 3.75 4.75 4.08579 4.75 4.5V4.75391C6.60432 2.89873 9.16832 1.75 12 1.75Z" fill="black"/>
</svg>
