<svg width="24" height="24" viewBox="0 0 24 24" fill="none" xmlns="http://www.w3.org/2000/svg">
<path d="M20 16.75C20.4142 16.75 20.75 17.0858 20.75 17.5V19.5C20.75 19.9142 20.4142 20.25 20 20.25C19.5858 20.25 19.25 19.9142 19.25 19.5V19.2461C17.3957 21.1013 14.8315 22.25 12 22.25C11.0677 22.25 10.1629 22.1256 9.30273 21.8916C8.90322 21.7827 8.66765 21.3703 8.77637 20.9707C8.88512 20.571 9.29759 20.3356 9.69727 20.4443C10.4301 20.6437 11.2021 20.75 12 20.75C14.3841 20.75 16.5451 19.7973 18.124 18.25H18C17.5858 18.25 17.25 17.9142 17.25 17.5C17.25 17.0858 17.5858 16.75 18 16.75H20ZM2.27148 8.76367C2.40215 8.37075 2.82679 8.15764 3.21973 8.28809C3.61265 8.41876 3.82576 8.84339 3.69531 9.23633C3.40677 10.104 3.25 11.0331 3.25 12C3.25 14.6308 4.41069 16.9909 6.25 18.5957V18.5C6.25 18.0858 6.58579 17.75 7 17.75C7.41421 17.75 7.75 18.0858 7.75 18.5V20.5C7.75 20.9142 7.41421 21.25 7 21.25H5C4.58579 21.25 4.25 20.9142 4.25 20.5C4.25 20.0858 4.58579 19.75 5 19.75H5.29199C3.12353 17.8713 1.75 15.0962 1.75 12C1.75 10.8704 1.9329 9.78192 2.27148 8.76367ZM14.7998 15.1592C15.1307 15.1596 15.4013 15.4307 15.4014 15.7617C15.4013 16.3112 15.1828 16.8085 14.8291 17.1699C15.1829 17.5314 15.4014 18.0285 15.4014 18.5781C15.4013 18.9091 15.1307 19.1792 14.7998 19.1797H14.0986C13.2026 19.1796 12.4347 18.5923 12.1787 17.7715C11.0493 17.7715 9.60295 17.7418 8.39062 17.29C8.30809 17.26 8.23229 17.2302 8.15723 17.2002L11.0791 15.5127C11.2824 15.6332 11.5164 15.7686 11.7725 15.9268H11.7793C11.9449 16.0246 12.1263 16.1303 12.3145 16.2432C12.6534 15.6034 13.3233 15.1592 14.0986 15.1592H14.7998ZM10.0088 14.8281L7.06543 16.5303C6.86214 16.3571 6.67346 16.1526 6.50781 15.9268C6.01112 15.2492 5.7403 14.3682 5.74023 13.2617C5.74025 13.0058 5.76315 12.7494 5.80078 12.501L10.0088 14.8281ZM19 2.75C19.4142 2.75 19.75 3.08579 19.75 3.5C19.75 3.91421 19.4142 4.25 19 4.25H18.708C20.8765 6.12871 22.25 8.90377 22.25 12C22.25 13.1296 22.0671 14.2181 21.7285 15.2363C21.5978 15.6292 21.1732 15.8424 20.7803 15.7119C20.3874 15.5812 20.1742 15.1566 20.3047 14.7637C20.5932 13.896 20.75 12.9669 20.75 12C20.75 9.36919 19.5893 7.00905 17.75 5.4043V5.5C17.75 5.91421 17.4142 6.25 17 6.25C16.5858 6.25 16.25 5.91421 16.25 5.5V3.5C16.25 3.08579 16.5858 2.75 17 2.75H19ZM16.584 6.67969C17.5022 6.67988 18.2397 7.4253 18.2402 8.33594C18.2402 9.24699 17.495 9.99297 16.584 9.99316H16.0859C16.0257 10.4147 15.8906 10.8216 15.71 11.1904H16.9297C17.261 11.1905 17.5322 11.4626 17.5322 11.7939C17.5318 12.1249 17.2607 12.3955 16.9297 12.3955H14.7998C14.0544 13.0807 13.052 13.5029 11.9678 13.5029H10.8604V8.78906H16.584C16.8323 8.78887 17.0352 8.58432 17.0352 8.33594C17.0347 8.08796 16.832 7.88495 16.584 7.88477H11.2891C10.9583 7.88434 10.6878 7.614 10.6875 7.2832C10.6875 6.95213 10.9581 6.68011 11.2891 6.67969H16.584ZM9.73828 13.3896H9.73047L6.14648 11.4014C6.78656 10.001 8.13464 8.98485 9.73828 8.81152V13.3896ZM12 1.75C12.7392 1.75 13.4611 1.82837 14.1572 1.97754C14.5622 2.06436 14.8202 2.46317 14.7334 2.86816C14.6466 3.27312 14.2478 3.53111 13.8428 3.44434C13.2493 3.31718 12.6329 3.25 12 3.25C9.61607 3.25 7.45483 4.20269 5.87598 5.75H6C6.41421 5.75 6.75 6.08579 6.75 6.5C6.75 6.91421 6.41421 7.25 6 7.25H4C3.58579 7.25 3.25 6.91421 3.25 6.5V4.5C3.25 4.08579 3.58579 3.75 4 3.75C4.41421 3.75 4.75 4.08579 4.75 4.5V4.75391C6.60432 2.89873 9.16832 1.75 12 1.75Z" fill="black"/>
</svg>
