<svg width="24" height="24" viewBox="0 0 24 24" fill="none" xmlns="http://www.w3.org/2000/svg">
<path d="M2.75 3.5C2.62583 3.49997 2.50359 3.53077 2.39425 3.58963C2.28492 3.64849 2.19191 3.73358 2.12357 3.83725C2.05523 3.94093 2.01369 4.05994 2.00269 4.18363C1.99169 4.30731 2.01157 4.43179 2.06054 4.5459L3.56054 8.0459L3.62695 8.01758C3.48495 8.21638 3.28483 8.36822 3.21289 8.61133L2.64843 10.5195C2.14394 10.5888 1.69157 10.8535 1.38476 11.2754C1.01976 11.7654 0.920466 12.3854 1.10547 12.9854L2.47461 17.0254C2.81461 17.0754 3.12976 17.225 3.38476 17.46C3.42976 17.495 3.72972 17.73 4.34472 17.875L2.53027 12.5195C2.48027 12.3495 2.54484 12.225 2.58984 12.165C2.63484 12.1 2.74004 12 2.91504 12H21.5898C21.7748 12 21.8749 12.1099 21.9199 12.1699C21.9649 12.2349 22.0297 12.3695 21.9697 12.5195L19.8252 17.8047C20.2852 17.6547 20.4998 17.4748 20.5098 17.4648C20.8348 17.1698 21.2602 17.0049 21.7002 17.0049C21.7202 17.0049 21.7446 17.0048 21.7646 17.0098L23.3701 13.0654C23.5901 12.4854 23.5054 11.8303 23.1504 11.3203C22.7954 10.8053 22.2148 10.5 21.5898 10.5H21.1465L19.834 8.15234C19.502 7.55792 18.9004 7.21864 18.2432 7.10156L16.833 4.63379C16.4331 3.93363 15.6863 3.5 14.8799 3.5H10.75C10.5696 3.50007 10.3952 3.56517 10.2589 3.68337C10.1226 3.80158 10.0334 3.96496 10.0078 4.14355L9.59961 7H9.09472L6.31933 3.76172C6.24891 3.67963 6.16158 3.61373 6.0633 3.56856C5.96503 3.52338 5.85815 3.5 5.75 3.5H2.75ZM3.88769 5H5.40527L7.11914 7H5.37011C5.16815 7 5.01188 7.13124 4.82324 7.18262L3.88769 5ZM11.4004 5H14.8799C15.1505 5 15.3961 5.14309 15.5303 5.37793C15.5306 5.37793 15.5309 5.37793 15.5312 5.37793L16.458 7H11.1143L11.4004 5ZM5.37011 8.5H17.8701C18.1436 8.5 18.3914 8.64567 18.5244 8.88379L19.4277 10.5H4.21875L4.65136 9.03711C4.74647 8.71571 5.03481 8.5 5.37011 8.5ZM6.25 13.5C6.05108 13.5 5.86032 13.579 5.71967 13.7197C5.57901 13.8603 5.5 14.0511 5.5 14.25C5.5 14.4489 5.57901 14.6397 5.71967 14.7803C5.86032 14.921 6.05108 15 6.25 15C6.44891 15 6.63968 14.921 6.78033 14.7803C6.92098 14.6397 7 14.4489 7 14.25C7 14.0511 6.92098 13.8603 6.78033 13.7197C6.63968 13.579 6.44891 13.5 6.25 13.5ZM9.25 13.5C9.05108 13.5 8.86032 13.579 8.71967 13.7197C8.57902 13.8603 8.5 14.0511 8.5 14.25C8.5 14.4489 8.57902 14.6397 8.71967 14.7803C8.86032 14.921 9.05108 15 9.25 15C9.44891 15 9.63967 14.921 9.78033 14.7803C9.92098 14.6397 10 14.4489 10 14.25C10 14.0511 9.92098 13.8603 9.78033 13.7197C9.63967 13.579 9.44891 13.5 9.25 13.5ZM12.25 13.5C12.0511 13.5 11.8603 13.579 11.7197 13.7197C11.579 13.8603 11.5 14.0511 11.5 14.25C11.5 14.4489 11.579 14.6397 11.7197 14.7803C11.8603 14.921 12.0511 15 12.25 15C12.4489 15 12.6397 14.921 12.7803 14.7803C12.921 14.6397 13 14.4489 13 14.25C13 14.0511 12.921 13.8603 12.7803 13.7197C12.6397 13.579 12.4489 13.5 12.25 13.5ZM15.25 13.5C15.0511 13.5 14.8603 13.579 14.7197 13.7197C14.579 13.8603 14.5 14.0511 14.5 14.25C14.5 14.4489 14.579 14.6397 14.7197 14.7803C14.8603 14.921 15.0511 15 15.25 15C15.4489 15 15.6397 14.921 15.7803 14.7803C15.921 14.6397 16 14.4489 16 14.25C16 14.0511 15.921 13.8603 15.7803 13.7197C15.6397 13.579 15.4489 13.5 15.25 13.5ZM18.25 13.5C18.0511 13.5 17.8603 13.579 17.7197 13.7197C17.579 13.8603 17.5 14.0511 17.5 14.25C17.5 14.4489 17.579 14.6397 17.7197 14.7803C17.8603 14.921 18.0511 15 18.25 15C18.4489 15 18.6397 14.921 18.7803 14.7803C18.921 14.6397 19 14.4489 19 14.25C19 14.0511 18.921 13.8603 18.7803 13.7197C18.6397 13.579 18.4489 13.5 18.25 13.5ZM21.7217 17.9824C21.6204 17.982 21.52 18.0022 21.4267 18.0416C21.3334 18.081 21.249 18.139 21.1787 18.2119C21.1787 18.2119 21.036 18.3624 20.5908 18.5703C20.1456 18.7783 19.4477 19 18.4512 19C17.4546 19 16.7567 18.7783 16.3115 18.5703C15.8663 18.3624 15.7227 18.2119 15.7227 18.2119C15.5827 18.0763 15.3955 18.0005 15.2007 18.0005C15.0058 18.0005 14.8186 18.0763 14.6787 18.2119C14.6787 18.2119 14.536 18.3624 14.0908 18.5703C13.6456 18.7783 12.9477 19 11.9512 19C10.9546 19 10.2567 18.7783 9.81152 18.5703C9.36634 18.3624 9.22265 18.2119 9.22265 18.2119C9.08273 18.0763 8.89553 18.0005 8.70068 18.0005C8.50584 18.0005 8.31864 18.0763 8.17871 18.2119C8.17871 18.2119 8.036 18.3624 7.59082 18.5703C7.14564 18.7783 6.44773 19 5.45117 19C4.45461 19 3.7567 18.7783 3.31152 18.5703C2.86634 18.3624 2.72265 18.2119 2.72265 18.2119C2.65175 18.141 2.56733 18.085 2.47441 18.0472C2.38148 18.0095 2.28193 17.9908 2.18164 17.9922C2.03238 17.9945 1.8872 18.0412 1.76467 18.1265C1.64214 18.2118 1.54784 18.3316 1.49383 18.4708C1.43983 18.61 1.42857 18.7621 1.4615 18.9077C1.49444 19.0533 1.57007 19.1857 1.67871 19.2881C1.67871 19.2881 2.05156 19.6376 2.67675 19.9297C3.30195 20.2217 4.22923 20.5 5.45117 20.5C6.67311 20.5 7.60039 20.2217 8.22558 19.9297C8.52369 19.7904 8.53096 19.7452 8.70117 19.624C8.87136 19.7451 8.87886 19.7905 9.17675 19.9297C9.80195 20.2217 10.7292 20.5 11.9512 20.5C13.1731 20.5 14.1004 20.2217 14.7256 19.9297C15.0237 19.7904 15.031 19.7452 15.2012 19.624C15.3714 19.7451 15.3789 19.7905 15.6768 19.9297C16.302 20.2217 17.2292 20.5 18.4512 20.5C19.6731 20.5 20.6004 20.2217 21.2256 19.9297C21.8508 19.6376 22.2227 19.2881 22.2227 19.2881C22.3347 19.1865 22.4133 19.0534 22.4484 18.9063C22.4834 18.7592 22.4732 18.605 22.419 18.4638C22.3649 18.3226 22.2693 18.2011 22.1448 18.1152C22.0204 18.0293 21.8729 17.983 21.7217 17.9824Z" fill="black"/>
</svg>
