<svg width="24" height="24" viewBox="0 0 24 24" fill="none" xmlns="http://www.w3.org/2000/svg">
<path d="M3.87402 17.4404C4.47191 16.8548 5.44117 16.8548 6.03906 17.4404C6.63661 18.026 6.63662 18.975 6.03906 19.5605C5.44117 20.1462 4.47191 20.1462 3.87402 19.5605C3.27614 18.9749 3.27616 18.0261 3.87402 17.4404Z" fill="black"/>
<path d="M14.8242 17.4404C15.4221 16.8548 16.3914 16.8548 16.9893 17.4404C17.5868 18.026 17.5868 18.975 16.9893 19.5605C16.3914 20.1462 15.4221 20.1462 14.8242 19.5605C14.2264 18.9749 14.2264 18.0261 14.8242 17.4404Z" fill="black"/>
<path d="M12.5879 4.00977C12.6051 4.00423 12.624 4.01348 12.6299 4.03027L15.7188 12.9111L18.0703 12.9307V4.66504C18.0703 4.29816 18.3745 4.00016 18.749 4C19.1237 4 19.4277 4.29806 19.4277 4.66504V17.3408H21.3633C21.7147 17.341 22 17.6206 22 17.9648C22 18.3091 21.7147 18.5887 21.3633 18.5889H18.0098C18.0303 18.4726 18.041 18.3525 18.041 18.2305C18.0409 17.0762 17.0849 16.1406 15.9062 16.1406C14.7277 16.1408 13.7726 17.0763 13.7725 18.2305C13.7725 18.3525 13.7831 18.4726 13.8037 18.5889H7.05957C7.08014 18.4726 7.09082 18.3525 7.09082 18.2305C7.0907 17.0762 6.13471 16.1406 4.95605 16.1406C3.77753 16.1408 2.82239 17.0763 2.82227 18.2305C2.82227 18.3525 2.83294 18.4726 2.85352 18.5889C2.38135 18.5835 2 18.207 2 17.7432V11.7949C2.00016 10.8435 2.72325 10.0723 3.61523 10.0723H7.30664V12.8418L14.2812 12.8984L11.6553 5.35156C11.6507 5.33871 11.6381 5.33008 11.624 5.33008H6.34668C6.3288 5.33016 6.3147 5.34386 6.31445 5.36133V10.0391C6.31445 10.0568 6.29934 10.0713 6.28125 10.0713H4.98926C4.97121 10.0712 4.95703 10.0568 4.95703 10.0391V4.69043C4.95703 4.30918 5.27195 4.00021 5.66113 4H12.5879V4.00977Z" fill="black"/>
<path d="M10.6523 10.1162C10.8466 10.1162 11.0049 10.2706 11.0049 10.4609V11.5225C11.0049 11.7128 10.8466 11.8672 10.6523 11.8672H8.2793C8.08506 11.8671 7.92775 11.7127 7.92773 11.5225V10.4609C7.92774 10.2707 8.08505 10.1163 8.2793 10.1162H10.6523Z" fill="black"/>
</svg>
