<svg width="24" height="24" viewBox="0 0 24 24" fill="none" xmlns="http://www.w3.org/2000/svg">
<path fill-rule="evenodd" clip-rule="evenodd" d="M14.9944 2.07529C15.3678 1.92162 15.7968 2.00759 16.0824 2.29295C16.3681 2.5783 16.4538 3.00729 16.3001 3.38061L13.8251 9.39099C13.7741 9.51497 13.6994 9.62533 13.6074 9.71732C13.4697 9.85462 13.2927 9.9513 13.0964 9.99064C12.7684 10.0563 12.4294 9.95365 12.1931 9.71732L10.7787 8.30298L10.0717 9.00997C9.96073 9.1213 9.80308 9.17364 9.64741 9.1513L7.42006 8.83329L6.8897 9.36365C7.28037 9.75431 7.28037 10.3873 6.8897 10.778L4.41469 13.253C4.02402 13.6437 3.39101 13.6437 3.00035 13.253L2.293 12.5467C1.90233 12.156 1.90233 11.523 2.293 11.1323L4.76801 8.65731C5.15868 8.26665 5.79169 8.26665 6.18236 8.65731L6.88935 7.95032C7.00037 7.83899 7.15802 7.78665 7.31369 7.80899L9.54104 8.127L10.0714 7.59664L8.65706 6.1823C8.42073 5.94566 8.31807 5.60699 8.38373 5.27898C8.42307 5.08261 8.51975 4.90562 8.65741 4.76796C8.7494 4.67597 8.85975 4.60132 8.98374 4.5503L14.9944 2.07529ZM3.00039 11.839L3.70738 12.546L6.18239 10.071L5.4754 9.364L3.00039 11.839ZM11.4854 7.59598L12.8997 9.01032L15.3748 2.99998L9.3644 5.47499L10.7784 6.88899L11.8391 5.82832C12.0344 5.633 12.3507 5.633 12.5461 5.82832C12.7414 6.02363 12.7414 6.33996 12.5461 6.53531L11.4854 7.59598Z" fill="black"/>
<path fill-rule="evenodd" clip-rule="evenodd" d="M18.8122 17.8823H21.0005C21.5528 17.8823 22.0005 18.33 22.0005 18.8823V21C22.0005 21.5523 21.5528 22 21.0005 22H3.00036C2.44801 22 2.00036 21.5523 2.00036 21V18.8823C2.00036 18.33 2.44801 17.8823 3.00036 17.8823H5.18904C5.18843 17.8729 5.18579 17.864 5.18314 17.8552C5.1801 17.8451 5.17705 17.8349 5.17705 17.8237V15.706C5.17705 15.1536 5.62471 14.706 6.17706 14.706H8.36539C8.36477 14.6963 8.36211 14.6874 8.35945 14.6785C8.35642 14.6683 8.3534 14.6582 8.3534 14.647V12.5293C8.3534 11.977 8.80105 11.5293 9.3534 11.5293H14.6478C15.2002 11.5293 15.6478 11.977 15.6478 12.5293V14.647C15.6478 14.6582 15.6448 14.6683 15.6418 14.6785C15.6391 14.6874 15.6364 14.6963 15.6358 14.706H17.8241C18.3765 14.706 18.8242 15.1536 18.8242 15.706V17.8237C18.8242 17.8346 18.8212 17.8446 18.8181 17.8547C18.8155 17.8636 18.8128 17.8726 18.8122 17.8823ZM17.8241 17.8237V15.706H12.5297V17.8237H17.8241ZM14.6474 12.5293H9.3534V14.647H14.6474V12.5293ZM11.4711 15.706H6.17706V17.8237H11.4711V15.706ZM3.00036 21H8.29441L8.29437 18.8824H3.00036V21ZM9.3534 21H14.6474V18.8824H9.3534V21ZM15.7064 21H21.0005V18.8824H15.7064V21Z" fill="black"/>
</svg>
