<svg width="24" height="24" viewBox="0 0 24 24" fill="none" xmlns="http://www.w3.org/2000/svg">
<path d="M7.9502 3C6.46972 3 5.2502 4.21953 5.2502 5.7V19.2H4.3502C3.85314 19.2 3.4502 19.6029 3.4502 20.1C3.4502 20.5971 3.85314 21 4.3502 21H16.9502C17.4473 21 17.8502 20.5971 17.8502 20.1C17.8502 19.6029 17.4473 19.2 16.9502 19.2H16.0502V17.4H17.8502C19.3307 17.4 20.5502 16.1805 20.5502 14.7V9.25494C20.5502 8.46892 20.238 7.7151 19.6822 7.1593L18.2229 5.7C17.8714 5.34857 17.3016 5.34857 16.9502 5.7C16.5988 6.05143 16.5988 6.62122 16.9502 6.97266L17.8502 7.87266V9.3C17.8502 9.7968 18.2534 10.2 18.7502 10.2V14.7C18.7502 15.2085 18.3587 15.6 17.8502 15.6H16.0502V5.7C16.0502 4.21953 14.8307 3 13.3502 3H7.9502ZM7.9502 4.8H13.3502C13.8587 4.8 14.2502 5.19147 14.2502 5.7V8.4H7.0502V5.7C7.0502 5.19147 7.44167 4.8 7.9502 4.8ZM7.0502 10.2H14.2502V19.2H7.0502V10.2Z" fill="black"/>
</svg>
