<svg width="24" height="24" viewBox="0 0 24 24" fill="none" xmlns="http://www.w3.org/2000/svg">
<path fill-rule="evenodd" clip-rule="evenodd" d="M14.8201 11.2867C14.6913 11.2646 14.6235 11.4151 14.7159 11.5075L15.4221 12.2137C15.5628 12.3544 15.6418 12.5452 15.6418 12.7441V14.3918C15.6418 14.806 15.306 15.1418 14.8918 15.1418H13.2441C13.0452 15.1418 12.8544 15.0628 12.7137 14.9221L12.0075 14.2159C11.9151 14.1235 11.7646 14.1913 11.7867 14.3201C11.8757 14.8389 12.1233 15.3173 12.4955 15.6895C12.8677 16.0617 13.3462 16.3094 13.865 16.3984C14.3838 16.4874 14.9174 16.4134 15.3924 16.1866C15.6792 16.0496 16.0212 16.1083 16.246 16.333L19.5414 19.6284C19.6192 19.7063 19.7248 19.75 19.8349 19.75C19.945 19.75 20.0506 19.7063 20.1284 19.6284C20.2063 19.5506 20.25 19.445 20.25 19.3349C20.25 19.2248 20.2063 19.1192 20.1284 19.0414L16.833 15.746C16.6083 15.5212 16.5496 15.1792 16.6866 14.8924C16.9134 14.4174 16.9874 13.8838 16.8984 13.365C16.8094 12.8462 16.5617 12.3677 16.1895 11.9955C15.8173 11.6233 15.3389 11.3757 14.8201 11.2867Z" fill="black"/>
<path fill-rule="evenodd" clip-rule="evenodd" d="M12.5352 1.45C12.5352 1.33954 12.4456 1.25 12.3352 1.25H5.28571C4.4873 1.25 3.71749 1.55816 3.14666 2.11313C2.57512 2.66879 2.25 3.42701 2.25 4.22222V19.7778C2.25 20.573 2.57512 21.3312 3.14666 21.8869C3.71749 22.4418 4.4873 22.75 5.28571 22.75H19C19.4142 22.75 19.75 22.4142 19.75 22V21.4394C19.75 21.3324 19.6655 21.2455 19.5596 21.2301C19.1535 21.1711 18.7743 20.9827 18.4807 20.6891L15.6192 17.8275C15.5661 17.7745 15.488 17.756 15.416 17.7768C14.8324 17.945 14.2155 17.9805 13.6113 17.8768C12.7868 17.7353 12.0264 17.3417 11.4349 16.7502C10.8433 16.1586 10.4497 15.3983 10.3083 14.5737C10.1668 13.7492 10.2844 12.9011 10.645 12.1462C10.7499 11.9265 10.9549 11.7714 11.1949 11.7302C11.4349 11.6891 11.6799 11.767 11.8521 11.9391L13.4961 13.5832C13.5337 13.6207 13.5845 13.6418 13.6376 13.6418H13.9418C14.0522 13.6418 14.1418 13.5522 14.1418 13.4418V13.1376C14.1418 13.0845 14.1207 13.0337 14.0832 12.9961L12.4391 11.3521C12.267 11.1799 12.1891 10.9349 12.2302 10.6949C12.2714 10.4549 12.4265 10.2499 12.6462 10.145C13.4011 9.78443 14.2492 9.6668 15.0737 9.80826C15.8983 9.94973 16.6586 10.3433 17.2502 10.9349C17.8417 11.5264 18.2353 12.2868 18.3768 13.1113C18.4805 13.7155 18.445 14.3324 18.2768 14.916C18.256 14.988 18.2745 15.0661 18.3275 15.1192L19.4086 16.2002C19.5346 16.3262 19.75 16.237 19.75 16.0588V8.50556C19.75 8.3951 19.6605 8.30556 19.55 8.30556H14.428C13.9327 8.30556 13.4536 8.11446 13.0971 7.76786C12.7399 7.42057 12.5352 6.94497 12.5352 6.44444V1.45ZM5.25 8C5.25 7.58579 5.58579 7.25 6 7.25H10C10.4142 7.25 10.75 7.58579 10.75 8C10.75 8.41421 10.4142 8.75 10 8.75H6C5.58579 8.75 5.25 8.41421 5.25 8ZM5.25 12C5.25 11.5858 5.58579 11.25 6 11.25H8.5C8.91421 11.25 9.25 11.5858 9.25 12C9.25 12.4142 8.91421 12.75 8.5 12.75H6C5.58579 12.75 5.25 12.4142 5.25 12ZM5.25 16C5.25 15.5858 5.58579 15.25 6 15.25H8.5C8.91421 15.25 9.25 15.5858 9.25 16C9.25 16.4142 8.91421 16.75 8.5 16.75H6C5.58579 16.75 5.25 16.4142 5.25 16Z" fill="black"/>
<path d="M18.8119 6.80556C18.9914 6.80556 19.08 6.58731 18.9513 6.46216L14.3746 2.01258C14.2478 1.88932 14.0352 1.97915 14.0352 2.15598V6.44444C14.0352 6.53329 14.0713 6.62292 14.1427 6.69237C14.2149 6.76253 14.3171 6.80556 14.428 6.80556H18.8119Z" fill="black"/>
</svg>
