<svg width="24" height="24" viewBox="0 0 24 24" fill="none" xmlns="http://www.w3.org/2000/svg">
<path fill-rule="evenodd" clip-rule="evenodd" d="M5.28571 2.75C4.87171 2.75 4.47876 2.91009 4.19228 3.18862C3.90651 3.46645 3.75 3.83869 3.75 4.22222V19.7778C3.75 20.1613 3.90651 20.5336 4.19228 20.8114C4.47876 21.0899 4.87171 21.25 5.28571 21.25H16.7143C17.1285 21.25 17.4643 21.5858 17.4643 22C17.4643 22.4142 17.1285 22.75 16.7143 22.75H5.28571C4.4873 22.75 3.71749 22.4418 3.14666 21.8869C2.57512 21.3312 2.25 20.573 2.25 19.7778V4.22222C2.25 3.42701 2.57512 2.66879 3.14666 2.11313C3.71749 1.55816 4.4873 1.25 5.28571 1.25H13.2857C13.4965 1.25 13.6875 1.33699 13.8237 1.47703L19.5079 7.00333C19.657 7.1404 19.7504 7.33707 19.7504 7.55556C19.7504 7.56401 19.7503 7.57244 19.75 7.58083V8.66667C19.75 9.08088 19.4142 9.41667 19 9.41667C18.5858 9.41667 18.25 9.08088 18.25 8.66667V8.30556H14.429C13.9337 8.30556 13.4546 8.11446 13.0981 7.76786C12.7408 7.42057 12.5361 6.94497 12.5361 6.44444V2.75H5.28571ZM14.0361 6.44444V3.77561L17.1527 6.80556H14.429C14.3181 6.80556 14.2158 6.76252 14.1437 6.69237C14.0722 6.62292 14.0361 6.53329 14.0361 6.44444Z" fill="black"/>
<path fill-rule="evenodd" clip-rule="evenodd" d="M15.0737 9.80826C14.2492 9.6668 13.4011 9.78443 12.6462 10.145C12.4265 10.2499 12.2714 10.4549 12.2302 10.6949C12.1891 10.9349 12.267 11.1799 12.4391 11.3521L14.1418 13.0547V13.6418H13.5547L11.8521 11.9391C11.6799 11.767 11.4349 11.6891 11.1949 11.7302C10.9549 11.7714 10.7499 11.9265 10.645 12.1462C10.2844 12.9011 10.1668 13.7492 10.3083 14.5737C10.4497 15.3983 10.8433 16.1586 11.4349 16.7502C12.0264 17.3417 12.7868 17.7353 13.6113 17.8768C14.256 17.9874 14.9151 17.9396 15.5328 17.7412L18.4807 20.6891C18.8399 21.0482 19.327 21.25 19.8349 21.25C20.3428 21.25 20.8299 21.0482 21.1891 20.6891C21.5482 20.3299 21.75 19.8428 21.75 19.3349C21.75 18.827 21.5482 18.3399 21.1891 17.9807L18.2412 15.0328C18.4396 14.4151 18.4874 13.756 18.3768 13.1113C18.2353 12.2868 17.8417 11.5264 17.2502 10.9349C16.6586 10.3433 15.8983 9.94973 15.0737 9.80826ZM15.4221 12.2137L14.4593 11.251C14.5798 11.2543 14.7003 11.2661 14.8201 11.2867C15.3389 11.3757 15.8173 11.6233 16.1895 11.9955C16.5617 12.3677 16.8094 12.8462 16.8984 13.365C16.9874 13.8838 16.9134 14.4174 16.6866 14.8924C16.5496 15.1792 16.6083 15.5212 16.833 15.746L20.1284 19.0414C20.2063 19.1192 20.25 19.2248 20.25 19.3349C20.25 19.445 20.2063 19.5506 20.1284 19.6284C20.0506 19.7063 19.945 19.75 19.8349 19.75C19.7248 19.75 19.6192 19.7063 19.5414 19.6284L16.246 16.333C16.0212 16.1083 15.6792 16.0496 15.3924 16.1866C14.9174 16.4134 14.3838 16.4874 13.865 16.3984C13.3462 16.3094 12.8677 16.0617 12.4955 15.6895C12.1233 15.3173 11.8757 14.8389 11.7867 14.3201C11.7661 14.2003 11.7543 14.0798 11.751 13.9593L12.7137 14.9221C12.8544 15.0628 13.0452 15.1418 13.2441 15.1418H14.8918C15.306 15.1418 15.6418 14.806 15.6418 14.3918V12.7441C15.6418 12.5452 15.5628 12.3544 15.4221 12.2137Z" fill="black"/>
<path d="M6 7.25C5.58579 7.25 5.25 7.58579 5.25 8C5.25 8.41421 5.58579 8.75 6 8.75H10C10.4142 8.75 10.75 8.41421 10.75 8C10.75 7.58579 10.4142 7.25 10 7.25H6Z" fill="black"/>
<path d="M5.25 12C5.25 11.5858 5.58579 11.25 6 11.25H8.5C8.91421 11.25 9.25 11.5858 9.25 12C9.25 12.4142 8.91421 12.75 8.5 12.75H6C5.58579 12.75 5.25 12.4142 5.25 12Z" fill="black"/>
<path d="M6 15.25C5.58579 15.25 5.25 15.5858 5.25 16C5.25 16.4142 5.58579 16.75 6 16.75H8.5C8.91421 16.75 9.25 16.4142 9.25 16C9.25 15.5858 8.91421 15.25 8.5 15.25H6Z" fill="black"/>
</svg>
