<svg width="24" height="24" viewBox="0 0 24 24" fill="none" xmlns="http://www.w3.org/2000/svg">
<path d="M5.875 2.57031C5.875 2.1561 6.21079 1.82031 6.625 1.82031H8.125C8.45652 1.82031 8.77446 1.95201 9.00888 2.18643C9.2433 2.42085 9.375 2.73879 9.375 3.07031V4.07031C9.375 4.40183 9.2433 4.71978 9.00888 4.9542C8.77446 5.18862 8.45652 5.32031 8.125 5.32031H7.375V5.82031H8.625C9.03921 5.82031 9.375 6.1561 9.375 6.57031C9.375 6.98453 9.03921 7.32031 8.625 7.32031H7.125C6.79348 7.32031 6.47554 7.18862 6.24112 6.9542C6.0067 6.71978 5.875 6.40183 5.875 6.07031V5.07031C5.875 4.73879 6.0067 4.42085 6.24112 4.18643C6.47554 3.95201 6.79348 3.82031 7.125 3.82031H7.875V3.32031H6.625C6.21079 3.32031 5.875 2.98453 5.875 2.57031Z" fill="black"/>
<path d="M4.375 2.57033C4.375 2.26699 4.19227 1.99351 3.91201 1.87742C3.63176 1.76134 3.30917 1.82551 3.09467 2.04L2.09467 3.04C1.80178 3.3329 1.80178 3.80777 2.09467 4.10066C2.30569 4.31168 2.61117 4.37067 2.875 4.27763V6.57033C2.875 6.98455 3.21079 7.32033 3.625 7.32033C4.03921 7.32033 4.375 6.98455 4.375 6.57033V2.57033Z" fill="black"/>
<path d="M10.875 2.57031C10.875 2.1561 11.2108 1.82031 11.625 1.82031H12.875C13.2728 1.82031 13.6544 1.97835 13.9357 2.25965C14.217 2.54096 14.375 2.92249 14.375 3.32031V3.82031C14.375 4.0859 14.3046 4.34422 14.174 4.57031C14.3046 4.7964 14.375 5.05473 14.375 5.32031V5.82031C14.375 6.21814 14.217 6.59967 13.9357 6.88097C13.6544 7.16228 13.2728 7.32031 12.875 7.32031H11.625C11.2108 7.32031 10.875 6.98453 10.875 6.57031C10.875 6.1561 11.2108 5.82031 11.625 5.82031H12.875V5.32031H12.125C11.7108 5.32031 11.375 4.98453 11.375 4.57031C11.375 4.1561 11.7108 3.82031 12.125 3.82031H12.875V3.32031H11.625C11.2108 3.32031 10.875 2.98453 10.875 2.57031Z" fill="black"/>
<path fill-rule="evenodd" clip-rule="evenodd" d="M16.3677 4.47121C16.0067 4.26813 15.5494 4.39617 15.3463 4.75719C15.1432 5.11821 15.2713 5.5755 15.6323 5.77857L16.3689 6.19288L10.1356 9.96565L6.37915 7.85264C6.32138 7.81873 6.25866 7.79233 6.19235 7.77478C6.10313 7.75105 6.01166 7.74449 5.92239 7.75386C5.81238 7.76517 5.70941 7.80025 5.61872 7.8539C5.53089 7.90563 5.45268 7.97584 5.39052 8.06272C5.33621 8.1383 5.29561 8.2244 5.27236 8.31738C5.25612 8.38196 5.24882 8.44764 5.25 8.51273V17.4999C5.25 17.7708 5.39615 18.0207 5.6323 18.1536L13.6168 22.6448C13.7289 22.7116 13.86 22.75 14 22.75C14.14 22.75 14.2711 22.7116 14.3832 22.6448L22.3677 18.1536C22.6039 18.0207 22.75 17.7708 22.75 17.4999V8.51389C22.7525 8.38463 22.7217 8.25302 22.6537 8.13219C22.5816 8.00401 22.4774 7.9052 22.3569 7.84016L16.3677 4.47121ZM6.75 9.78227V17.0613L13.25 20.7175V13.4385L6.75 9.78227ZM14 12.1394L20.4702 8.49989L17.8703 7.03746L11.6371 10.8102L14 12.1394ZM14.75 20.7175V13.4385L21.25 9.78228V17.0613L14.75 20.7175Z" fill="black"/>
</svg>
