<svg width="24" height="24" viewBox="0 0 24 24" fill="none" xmlns="http://www.w3.org/2000/svg">
<path d="M8.25 11.75C8.25 11.4467 8.06727 11.1732 7.78701 11.0571C7.50676 10.941 7.18417 11.0052 6.96967 11.2197L5.96967 12.2197C5.67678 12.5126 5.67678 12.9875 5.96967 13.2804C6.18069 13.4914 6.48617 13.5504 6.75 13.4573V15.75C6.75 16.1642 7.08579 16.5 7.5 16.5C7.91421 16.5 8.25 16.1642 8.25 15.75V11.75Z" fill="black"/>
<path d="M9.75 11.75C9.75 11.3358 10.0858 11 10.5 11H12C12.3315 11 12.6495 11.1317 12.8839 11.3661C13.1183 11.6005 13.25 11.9185 13.25 12.25V13.25C13.25 13.5815 13.1183 13.8995 12.8839 14.1339C12.6495 14.3683 12.3315 14.5 12 14.5H11.25V15H12.5C12.9142 15 13.25 15.3358 13.25 15.75C13.25 16.1642 12.9142 16.5 12.5 16.5H11C10.6685 16.5 10.3505 16.3683 10.1161 16.1339C9.8817 15.8995 9.75 15.5815 9.75 15.25V14.25C9.75 13.9185 9.8817 13.6005 10.1161 13.3661C10.3505 13.1317 10.6685 13 11 13H11.75V12.5H10.5C10.0858 12.5 9.75 12.1642 9.75 11.75Z" fill="black"/>
<path d="M14.75 11.75C14.75 11.3358 15.0858 11 15.5 11H16.75C17.1478 11 17.5294 11.158 17.8107 11.4393C18.092 11.7206 18.25 12.1022 18.25 12.5V13C18.25 13.2656 18.1796 13.5239 18.049 13.75C18.1796 13.9761 18.25 14.2344 18.25 14.5V15C18.25 15.3978 18.092 15.7794 17.8107 16.0607C17.5294 16.342 17.1478 16.5 16.75 16.5H15.5C15.0858 16.5 14.75 16.1642 14.75 15.75C14.75 15.3358 15.0858 15 15.5 15H16.75V14.5H16C15.5858 14.5 15.25 14.1642 15.25 13.75C15.25 13.3358 15.5858 13 16 13H16.75V12.5H15.5C15.0858 12.5 14.75 12.1642 14.75 11.75Z" fill="black"/>
<path fill-rule="evenodd" clip-rule="evenodd" d="M12.3046 3.31464C12.1107 3.22845 11.8893 3.22845 11.6954 3.31464L2.6954 7.31464C2.42455 7.43502 2.25 7.70361 2.25 8V21C2.25 21.4142 2.58579 21.75 3 21.75H21C21.4142 21.75 21.75 21.4142 21.75 21V8C21.75 7.70361 21.5754 7.43502 21.3046 7.31464L12.3046 3.31464ZM3.75 20.25V8.4874L12 4.82074L20.25 8.4874V20.25H3.75Z" fill="black"/>
</svg>
