<svg width="24" height="24" viewBox="0 0 24 24" fill="none" xmlns="http://www.w3.org/2000/svg">
<path d="M19 15.75C19.5967 15.75 20.1689 15.9872 20.5908 16.4092C21.0128 16.8311 21.25 17.4033 21.25 18C21.25 18.5967 21.0128 19.1689 20.5908 19.5908C20.1689 20.0128 19.5967 20.25 19 20.25H5C4.40326 20.25 3.83114 20.0128 3.40918 19.5908C2.98722 19.1689 2.75 18.5967 2.75 18C2.75 17.4033 2.98722 16.8311 3.40918 16.4092C3.83114 15.9872 4.40326 15.75 5 15.75H19ZM5 17.25C4.58579 17.25 4.25 17.5858 4.25 18C4.25 18.4142 4.58579 18.75 5 18.75C5.41421 18.75 5.75 18.4142 5.75 18C5.75 17.5858 5.41421 17.25 5 17.25ZM19 17.25C18.5858 17.25 18.25 17.5858 18.25 18C18.25 18.4142 18.5858 18.75 19 18.75C19.4142 18.75 19.75 18.4142 19.75 18C19.75 17.5858 19.4142 17.25 19 17.25ZM8.5498 11C8.5498 11.2485 8.75147 11.4502 9 11.4502C9.24853 11.4502 9.4502 11.2485 9.4502 11V9.4502H11C11.3038 9.4502 11.5498 9.69624 11.5498 10V14C11.5498 14.3038 11.3038 14.5498 11 14.5498H7C6.69624 14.5498 6.4502 14.3038 6.4502 14V10C6.4502 9.69624 6.69624 9.4502 7 9.4502H8.5498V11ZM14.5498 11C14.5498 11.2485 14.7515 11.4502 15 11.4502C15.2485 11.4502 15.4502 11.2485 15.4502 11V9.95801C16.0558 10.4256 16.7704 10.7577 17.5498 10.9082V14C17.5498 14.3038 17.3038 14.5498 17 14.5498H13C12.6962 14.5498 12.4502 14.3038 12.4502 14V10C12.4502 9.69624 12.6962 9.4502 13 9.4502H14.5498V11ZM18.5 2C20.7056 2 22.5 3.7944 22.5 6C22.5 8.2056 20.7056 10 18.5 10C16.4085 10 14.6872 8.38647 14.5146 6.33887C14.5134 6.32393 14.5128 6.30893 14.5117 6.29395C14.5046 6.19685 14.5 6.09887 14.5 6C14.5 5.9008 14.5046 5.80249 14.5117 5.70508C14.5123 5.69728 14.5121 5.68943 14.5127 5.68164L14.5205 5.5918C14.7256 3.5772 16.4322 2 18.5 2ZM11.5498 5C11.5498 5.24853 11.7515 5.4502 12 5.4502C12.2485 5.4502 12.4502 5.24853 12.4502 5V3.4502H14C14.0638 3.4502 14.1246 3.46243 14.1816 3.48242C13.7488 4.22224 13.5 5.0824 13.5 6C13.5 6.9173 13.7491 7.77694 14.1816 8.5166C14.1246 8.53666 14.064 8.5498 14 8.5498H10C9.69624 8.5498 9.4502 8.30376 9.4502 8V4C9.4502 3.69624 9.69624 3.4502 10 3.4502H11.5498V5ZM20.2119 4.8877C20.0948 4.77072 19.9053 4.77092 19.7881 4.8877L18 6.67578L17.2119 5.8877C17.0948 5.77079 16.9052 5.77086 16.7881 5.8877C16.6709 6.0049 16.6709 6.1953 16.7881 6.3125L17.7881 7.3125C17.8466 7.3709 17.9233 7.40039 18 7.40039C18.0767 7.40039 18.1534 7.3709 18.2119 7.3125L20.2119 5.3125C20.3289 5.1953 20.3291 5.0049 20.2119 4.8877Z" fill="black"/>
</svg>
