<svg width="24" height="24" viewBox="0 0 24 24" fill="none" xmlns="http://www.w3.org/2000/svg">
<path d="M14 2.25C14.205 2.25 14.4012 2.2868 14.584 2.35156C14.1579 2.75069 13.8032 3.22414 13.5371 3.75H12.75V5C12.75 5.41421 12.4142 5.75 12 5.75C11.5858 5.75 11.25 5.41421 11.25 5V3.75H10C9.86193 3.75 9.75 3.86193 9.75 4V8C9.75 8.13807 9.86193 8.25 10 8.25H13.5371C14.0193 9.20299 14.797 9.98068 15.75 10.4629V11C15.75 11.4142 15.4142 11.75 15 11.75C14.5858 11.75 14.25 11.4142 14.25 11V9.75H13C12.8619 9.75 12.75 9.86193 12.75 10V14C12.75 14.1381 12.8619 14.25 13 14.25H17C17.1381 14.25 17.25 14.1381 17.25 14V10.9434C17.4947 10.9803 17.7451 11 18 11C18.2549 11 18.5053 10.9803 18.75 10.9434V14C18.75 14.0849 18.7441 14.1684 18.7324 14.25H19C19.9946 14.25 20.9481 14.6454 21.6514 15.3486C22.3546 16.0519 22.75 17.0054 22.75 18C22.75 18.9946 22.3546 19.9481 21.6514 20.6514C20.9481 21.3546 19.9946 21.75 19 21.75H5C4.00544 21.75 3.05189 21.3546 2.34863 20.6514C1.64537 19.9481 1.25 18.9946 1.25 18C1.25 17.0054 1.64537 16.0519 2.34863 15.3486C3.05189 14.6454 4.00544 14.25 5 14.25H5.26758C5.2559 14.1684 5.25 14.0849 5.25 14V10C5.25 9.0335 6.0335 8.25 7 8.25H8.26758C8.2559 8.16836 8.25 8.08487 8.25 8V4C8.25 3.0335 9.0335 2.25 10 2.25H14ZM5 15.75C4.40326 15.75 3.83114 15.9872 3.40918 16.4092C2.98722 16.8311 2.75 17.4033 2.75 18C2.75 18.5967 2.98722 19.1689 3.40918 19.5908C3.83114 20.0128 4.40326 20.25 5 20.25H19C19.5967 20.25 20.1689 20.0128 20.5908 19.5908C21.0128 19.1689 21.25 18.5967 21.25 18C21.25 17.4033 21.0128 16.8311 20.5908 16.4092C20.1689 15.9872 19.5967 15.75 19 15.75H5ZM5 17.25C5.41421 17.25 5.75 17.5858 5.75 18C5.75 18.4142 5.41421 18.75 5 18.75C4.58579 18.75 4.25 18.4142 4.25 18C4.25 17.5858 4.58579 17.25 5 17.25ZM19 17.25C19.4142 17.25 19.75 17.5858 19.75 18C19.75 18.4142 19.4142 18.75 19 18.75C18.5858 18.75 18.25 18.4142 18.25 18C18.25 17.5858 18.5858 17.25 19 17.25ZM7 9.75C6.86193 9.75 6.75 9.86193 6.75 10V14C6.75 14.1381 6.86193 14.25 7 14.25H11C11.1381 14.25 11.25 14.1381 11.25 14V10C11.25 9.86193 11.1381 9.75 11 9.75H9.75V11C9.75 11.4142 9.41421 11.75 9 11.75C8.58579 11.75 8.25 11.4142 8.25 11V9.75H7ZM18 2C20.2056 2 22 3.7944 22 6C22 8.2056 20.2056 10 18 10C17.4368 10 16.9006 9.88282 16.4141 9.67188C16.3963 9.66417 16.379 9.65542 16.3613 9.64746C16.3226 9.63001 16.2841 9.61238 16.2461 9.59375C16.2191 9.58054 16.1926 9.56653 16.166 9.55273C16.1203 9.52904 16.0749 9.50488 16.0303 9.47949C16.022 9.4748 16.0141 9.46959 16.0059 9.46484C15.9534 9.43455 15.9015 9.40366 15.8506 9.37109C15.8437 9.36666 15.837 9.36189 15.8301 9.35742C15.4204 9.09176 15.0617 8.75419 14.7734 8.36133C14.7614 8.34495 14.7501 8.32809 14.7383 8.31152C14.6669 8.21102 14.6002 8.10706 14.5381 8C14.53 7.986 14.5216 7.97212 14.5137 7.95801C14.4885 7.91339 14.4649 7.86792 14.4414 7.82227C14.4314 7.80272 14.4209 7.7834 14.4111 7.76367C14.1484 7.23127 14 6.63274 14 6C14 5.42631 14.1214 4.88043 14.3398 4.38672C14.3471 4.37033 14.3548 4.35417 14.3623 4.33789C14.3858 4.28673 14.411 4.23651 14.4365 4.18652C14.4475 4.16512 14.4574 4.14325 14.4688 4.12207C14.504 4.05611 14.5413 3.99144 14.5801 3.92773C14.5878 3.91499 14.5956 3.9023 14.6035 3.88965C14.6834 3.76148 14.7708 3.63847 14.8643 3.52051C14.8706 3.5125 14.8764 3.50406 14.8828 3.49609C14.9831 3.37152 15.0909 3.2533 15.2051 3.1416C15.2151 3.13178 15.2252 3.12202 15.2354 3.1123C15.9542 2.42382 16.9284 2 18 2ZM19.7119 4.8877C19.5948 4.77072 19.4053 4.77092 19.2881 4.8877L17.5 6.67578L16.7119 5.8877C16.5948 5.77079 16.4052 5.77086 16.2881 5.8877C16.1709 6.0049 16.1709 6.1953 16.2881 6.3125L17.2881 7.3125C17.3466 7.3709 17.4233 7.40039 17.5 7.40039C17.5767 7.40039 17.6534 7.3709 17.7119 7.3125L19.7119 5.3125C19.8289 5.1953 19.8291 5.0049 19.7119 4.8877Z" fill="black"/>
</svg>
