<svg width="24" height="24" viewBox="0 0 24 24" fill="none" xmlns="http://www.w3.org/2000/svg">
<path fill-rule="evenodd" clip-rule="evenodd" d="M19.635 2.00237C20.2478 1.9737 20.8491 2.20651 21.2834 2.64073C21.7176 3.07491 21.9503 3.67577 21.9218 4.28917C21.8932 4.90256 21.6058 5.4792 21.1332 5.87127L17.0715 9.24053L14.6836 6.85264L18.0529 2.79092C18.4449 2.31831 19.0216 2.03088 19.635 2.00237ZM19.3221 4.60198C19.5509 4.83081 19.9219 4.83081 20.1507 4.60198C20.3796 4.37319 20.3796 4.00217 20.1507 3.77334C19.9219 3.54452 19.5509 3.54452 19.3221 3.77334C19.0933 4.00217 19.0933 4.37315 19.3221 4.60198Z" fill="black"/>
<path d="M17.534 11.361C18.4774 12.3045 18.5211 13.8114 17.6662 14.8079L9.11523 6.25686C10.1128 5.40049 11.6171 5.44413 12.5621 6.38916L17.534 11.361Z" fill="black"/>
<path d="M14.5953 17.8912L13.6669 18.8197C13.2869 19.1996 13.0777 19.7048 13.0777 20.2422C13.0777 21.2115 12.2891 22 11.3199 22C10.8504 22 10.4089 21.8171 10.0769 21.4851C9.7449 21.1531 9.56205 20.7117 9.56209 20.2422C9.56209 19.7049 9.35283 19.1997 8.97287 18.8197L3.17162 13.0184C2.94279 12.7896 2.94279 12.4186 3.17162 12.1898L6.0324 9.329C6.35873 9.00264 6.88979 9.00264 7.21615 9.329C7.54252 9.65537 7.54252 10.1864 7.21615 10.5128L6.93502 10.7939C6.57799 11.1509 6.38135 11.6256 6.38135 12.1306C6.38135 12.6355 6.57799 13.1102 6.93506 13.4672C7.67209 14.2042 8.87131 14.2042 9.60834 13.4672L9.63205 13.4435C9.86596 13.2096 10.2465 13.2096 10.4804 13.4435C10.5937 13.5568 10.6561 13.7075 10.6561 13.8677C10.6561 14.0279 10.5937 14.1786 10.4804 14.2919L10.4567 14.3156C9.71963 15.0527 9.71963 16.2519 10.4567 16.989C11.1937 17.726 12.393 17.726 13.13 16.989L13.4112 16.7078C13.7375 16.3815 14.2686 16.3815 14.5949 16.7078C14.9212 17.0341 14.9213 17.5648 14.5953 17.8912Z" fill="black"/>
<path d="M8.28156 7.07971L7.32324 8.03803C7.5866 8.13534 7.83363 8.28905 8.04481 8.50022C8.82809 9.2835 8.82809 10.558 8.04481 11.3413L7.76367 11.6224C7.62797 11.7581 7.55324 11.9385 7.55324 12.1305C7.55324 12.3224 7.62797 12.5028 7.76371 12.6385C8.04387 12.9186 8.49961 12.9186 8.77977 12.6385L8.80348 12.6148C9.49426 11.924 10.6183 11.924 11.3091 12.6148C11.6437 12.9494 11.828 13.3943 11.828 13.8676C11.828 14.3409 11.6438 14.7858 11.3091 15.1205L11.2854 15.1442C11.0052 15.4243 11.0052 15.8801 11.2854 16.1603C11.5655 16.4404 12.0213 16.4404 12.3014 16.1603L12.5826 15.8791C13.3659 15.0958 14.6404 15.0959 15.4237 15.8791C15.6348 16.0903 15.7886 16.3374 15.8859 16.6007L16.8442 15.6424L8.28156 7.07971Z" fill="black"/>
</svg>
