<svg width="24" height="24" viewBox="0 0 24 24" fill="none" xmlns="http://www.w3.org/2000/svg">
<path d="M5.75 18C5.75 18.4142 5.41421 18.75 5 18.75C4.58579 18.75 4.25 18.4142 4.25 18C4.25 17.5858 4.58579 17.25 5 17.25C5.41421 17.25 5.75 17.5858 5.75 18Z" fill="black"/>
<path d="M19 18.75C19.4142 18.75 19.75 18.4142 19.75 18C19.75 17.5858 19.4142 17.25 19 17.25C18.5858 17.25 18.25 17.5858 18.25 18C18.25 18.4142 18.5858 18.75 19 18.75Z" fill="black"/>
<path fill-rule="evenodd" clip-rule="evenodd" d="M8.25 4C8.25 3.0335 9.0335 2.25 10 2.25H14C14.9665 2.25 15.75 3.0335 15.75 4V8C15.75 8.08488 15.744 8.16835 15.7323 8.25H17C17.9665 8.25 18.75 9.0335 18.75 10V14C18.75 14.0849 18.744 14.1683 18.7323 14.25H19C19.9946 14.25 20.9484 14.6451 21.6517 15.3483C22.3549 16.0516 22.75 17.0054 22.75 18C22.75 18.9946 22.3549 19.9484 21.6517 20.6517C20.9484 21.3549 19.9946 21.75 19 21.75H5C4.00544 21.75 3.05161 21.3549 2.34835 20.6517C1.64509 19.9484 1.25 18.9946 1.25 18C1.25 17.0054 1.64509 16.0516 2.34835 15.3483C3.05161 14.6451 4.00544 14.25 5 14.25H5.26772C5.25604 14.1683 5.25 14.0849 5.25 14V10C5.25 9.0335 6.0335 8.25 7 8.25H8.26772C8.25604 8.16835 8.25 8.08488 8.25 8V4ZM14.25 8C14.25 8.13807 14.1381 8.25 14 8.25H10C9.86193 8.25 9.75 8.13807 9.75 8V4C9.75 3.86193 9.86193 3.75 10 3.75H11.25V5C11.25 5.41421 11.5858 5.75 12 5.75C12.4142 5.75 12.75 5.41421 12.75 5V3.75H14C14.1381 3.75 14.25 3.86193 14.25 4V8ZM9.75 9.75H11C11.1381 9.75 11.25 9.86193 11.25 10V14C11.25 14.1381 11.1381 14.25 11 14.25H7C6.86193 14.25 6.75 14.1381 6.75 14V10C6.75 9.86193 6.86193 9.75 7 9.75H8.25V11C8.25 11.4142 8.58579 11.75 9 11.75C9.41421 11.75 9.75 11.4142 9.75 11V9.75ZM12.75 10C12.75 9.86193 12.8619 9.75 13 9.75H14.25V11C14.25 11.4142 14.5858 11.75 15 11.75C15.4142 11.75 15.75 11.4142 15.75 11V9.75H17C17.1381 9.75 17.25 9.86193 17.25 10V14C17.25 14.1381 17.1381 14.25 17 14.25H13C12.8619 14.25 12.75 14.1381 12.75 14V10ZM5 15.75H19C19.5967 15.75 20.169 15.9871 20.591 16.409C21.0129 16.831 21.25 17.4033 21.25 18C21.25 18.5967 21.0129 19.169 20.591 19.591C20.169 20.0129 19.5967 20.25 19 20.25H5C4.40326 20.25 3.83097 20.0129 3.40901 19.591C2.98705 19.169 2.75 18.5967 2.75 18C2.75 17.4033 2.98705 16.831 3.40901 16.409C3.83097 15.9871 4.40326 15.75 5 15.75Z" fill="black"/>
</svg>
