<svg width="24" height="24" viewBox="0 0 24 24" fill="none" xmlns="http://www.w3.org/2000/svg">
<path d="M7.25 4.74612C7.25 4.44277 7.06727 4.16929 6.78701 4.05321C6.50676 3.93712 6.18417 4.00129 5.96967 4.21579L5.21967 4.96579C4.92678 5.25868 4.92678 5.73355 5.21967 6.02645C5.36612 6.17289 5.55806 6.24612 5.75 6.24612V7.74612C5.75 8.16033 6.08579 8.49612 6.5 8.49612C6.91421 8.49612 7.25 8.16033 7.25 7.74612V4.74612Z" fill="black"/>
<path fill-rule="evenodd" clip-rule="evenodd" d="M6.25 1.5C5.62622 1.5 5.00855 1.62286 4.43225 1.86157C3.85596 2.10028 3.33232 2.45016 2.89124 2.89124C2.45016 3.33232 2.10028 3.85596 1.86157 4.43225C1.62286 5.00855 1.5 5.62622 1.5 6.25C1.5 6.87378 1.62286 7.49145 1.86157 8.06775C2.10028 8.64404 2.45016 9.16768 2.89124 9.60876C3.33232 10.0498 3.85596 10.3997 4.43225 10.6384C5.00855 10.8771 5.62622 11 6.25 11C6.60208 11 6.95222 10.9609 7.29407 10.8838V18.0001C7.29407 18.2534 7.4298 18.4873 7.64973 18.6129L14.6328 22.6033C14.7243 22.659 14.8294 22.6945 14.942 22.7036C15.0818 22.7151 15.2243 22.6849 15.3502 22.6129L22.3502 18.6129C22.5701 18.4873 22.7058 18.2534 22.7058 18.0001V10.0001C22.7058 9.76259 22.5865 9.54218 22.3904 9.412C22.3773 9.40333 22.3639 9.39505 22.3502 9.38719L15.3502 5.38719C15.1332 5.26319 14.8667 5.26319 14.6497 5.38719L10.8095 7.58159C10.9356 7.14985 11 6.70152 11 6.25C11 5.62622 10.8771 5.00855 10.6384 4.43225C10.3997 3.85596 10.0498 3.33232 9.60876 2.89124C9.16768 2.45016 8.64404 2.10028 8.06775 1.86157C7.49145 1.62286 6.87378 1.5 6.25 1.5ZM5.00628 3.24739C5.40059 3.08406 5.8232 3 6.25 3C6.6768 3 7.09941 3.08406 7.49372 3.24739C7.88803 3.41072 8.24631 3.65011 8.5481 3.9519C8.84989 4.25369 9.08928 4.61197 9.25261 5.00628C9.41594 5.40059 9.5 5.8232 9.5 6.25C9.5 6.6768 9.41594 7.09941 9.25261 7.49372C9.08928 7.88803 8.84989 8.24631 8.5481 8.5481C8.24631 8.84989 7.88803 9.08928 7.49372 9.25261C7.09941 9.41594 6.6768 9.5 6.25 9.5C5.8232 9.5 5.40059 9.41594 5.00628 9.25261C4.61197 9.08928 4.25369 8.84989 3.9519 8.5481C3.65011 8.24631 3.41072 7.88803 3.24739 7.49372C3.08406 7.09941 3 6.6768 3 6.25C3 5.8232 3.08406 5.40059 3.24739 5.00628C3.41072 4.61197 3.65011 4.25369 3.9519 3.9519C4.25369 3.65011 4.61197 3.41072 5.00628 3.24739ZM18.3894 8.7499L20.5768 9.99986L14.9997 13.1868L13.0165 12.0535L18.3894 8.7499ZM15 6.81307L16.9924 7.95161L11.6195 11.2552L9.42283 10L15 6.81307ZM8.70583 17.5904V11.2163L14.2936 14.4093V20.7835L8.70583 17.5904ZM21.2941 17.5904L15.7054 20.784V14.4095L21.2941 11.216V17.5904Z" fill="black"/>
</svg>
