<svg width="24" height="24" viewBox="0 0 24 24" fill="none" xmlns="http://www.w3.org/2000/svg">
<path fill-rule="evenodd" clip-rule="evenodd" d="M17 4.25C16.4053 4.25 15.8799 4.54663 15.5637 5H13.75C13.3358 5 13 5.33579 13 5.75C13 6.16421 13.3358 6.5 13.75 6.5H15.25V13.25H12.9999C12.3096 13.25 11.7499 12.6904 11.7499 12C11.7499 11.9078 11.7428 11.8174 11.7291 11.7291C12.31 11.6214 12.75 11.1121 12.75 10.5C12.75 9.25736 11.7426 8.25 10.5 8.25H7.73228C7.74396 8.16835 7.75 8.08488 7.75 8V6C7.75 5.0335 6.9665 4.25 6 4.25H4C3.0335 4.25 2.25 5.0335 2.25 6V8C2.25 8.37181 2.36595 8.71654 2.56367 9C2.36595 9.28346 2.25 9.62819 2.25 10C2.25 10.8379 2.83888 11.5383 3.62536 11.7098L3.04277 12.5837C2.48215 13.4246 2.75333 14.5449 3.59057 15.0507C3.37277 15.487 3.25 15.9793 3.25 16.5002C3.25 18.2952 4.70507 19.7502 6.5 19.7502C8.0175 19.7502 9.29208 18.7102 9.64983 17.3041L10.0755 17.46C10.599 17.6518 11.1522 17.75 11.7097 17.75H15.4991C15.9889 18.9245 17.148 19.75 18.5 19.75C20.2949 19.75 21.75 18.2949 21.75 16.5C21.75 15.1165 20.8855 13.9349 19.6672 13.4659C20.3296 12.4816 20.2905 11.1626 19.5318 10.2142L17.5604 7.75H18C18.9665 7.75 19.75 6.9665 19.75 6C19.75 5.0335 18.9665 4.25 18 4.25H17ZM4 9.75C3.86193 9.75 3.75 9.86193 3.75 10C3.75 10.1381 3.86193 10.25 4 10.25H11.2073C11.1044 9.9587 10.8266 9.75 10.5 9.75H4ZM6 8.25C6.13807 8.25 6.25 8.13807 6.25 8V6C6.25 5.86193 6.13807 5.75 6 5.75H4C3.86193 5.75 3.75 5.86193 3.75 6V8C3.75 8.13807 3.86193 8.25 4 8.25H6ZM18.5 18.25C17.6229 18.25 16.8965 17.6048 16.7696 16.7631L18.5582 14.7509C19.4978 14.7817 20.25 15.553 20.25 16.5C20.25 17.4665 19.4665 18.25 18.5 18.25ZM8.2273 16.7828L4.9989 15.5999C4.84063 15.8631 4.75 16.1711 4.75 16.5002C4.75 17.4667 5.5335 18.2502 6.5 18.2502C7.3703 18.2502 8.09221 17.615 8.2273 16.7828ZM5.53513 11.75C5.45154 11.75 5.37349 11.7918 5.32712 11.8613L4.29084 13.4157C4.20665 13.542 4.25377 13.7124 4.38809 13.7786L10.5916 16.0516C10.9497 16.1828 11.3282 16.25 11.7097 16.25H15.25V14.75H12.9999C11.4812 14.75 10.2499 13.5188 10.2499 12C10.2499 11.8619 10.138 11.75 9.99995 11.75H5.53513ZM16.75 6C16.75 5.86193 16.8619 5.75 17 5.75H18C18.1381 5.75 18.25 5.86193 18.25 6C18.25 6.13807 18.1381 6.25 18 6.25H16.75V6ZM16.75 14.5274V9.13813L18.3605 11.1513C18.741 11.6269 18.7233 12.3074 18.3187 12.7626L16.75 14.5274Z" fill="black"/>
</svg>
