<svg width="24" height="24" viewBox="0 0 24 24" fill="none" xmlns="http://www.w3.org/2000/svg">
<path fill-rule="evenodd" clip-rule="evenodd" d="M12.75 3C12.75 2.58579 12.4142 2.25 12 2.25C11.5858 2.25 11.25 2.58579 11.25 3V4.36467L5.88427 5.25896C5.85701 5.26322 5.83013 5.26895 5.80374 5.27611C5.60037 5.33126 5.42614 5.47067 5.32918 5.66459L2.32918 11.6646C2.27711 11.7687 2.25 11.8836 2.25 12C2.25 12.9946 2.64509 13.9484 3.34835 14.6517C4.05161 15.3549 5.00544 15.75 6 15.75C6.99456 15.75 7.94839 15.3549 8.65165 14.6517C9.35491 13.9484 9.75 12.9946 9.75 12C9.75 11.8836 9.72289 11.7687 9.67082 11.6646L7.12496 6.57287L11.25 5.88536V19.25H7C6.58579 19.25 6.25 19.5858 6.25 20C6.25 20.4142 6.58579 20.75 7 20.75H17C17.4142 20.75 17.75 20.4142 17.75 20C17.75 19.5858 17.4142 19.25 17 19.25H12.75V5.88533L16.8751 6.57284L14.3292 11.6646C14.2771 11.7687 14.25 11.8836 14.25 12C14.25 12.9946 14.6451 13.9484 15.3483 14.6517C16.0516 15.3549 17.0054 15.75 18 15.75C18.9946 15.75 19.9484 15.3549 20.6517 14.6517C21.3549 13.9484 21.75 12.9946 21.75 12C21.75 11.8836 21.7229 11.7687 21.6708 11.6646L18.678 5.679C18.578 5.46814 18.3813 5.30723 18.1352 5.26226M18.1218 5.25993L12.75 4.36464V3" fill="black"/>
</svg>
