<svg width="24" height="24" viewBox="0 0 24 24" fill="none" xmlns="http://www.w3.org/2000/svg">
<path fill-rule="evenodd" clip-rule="evenodd" d="M11.3677 2.34632C11.1394 2.21789 10.8606 2.21789 10.6323 2.34632L2.64686 6.83813C2.52476 6.90314 2.41918 7.00268 2.34633 7.13219C2.27857 7.25266 2.24767 7.38384 2.25 7.51272V16.5C2.25 16.771 2.39615 17.0208 2.6323 17.1537L10.6206 21.6471C10.7319 21.7125 10.8616 21.75 11 21.75C11.1384 21.75 11.2681 21.7125 11.3794 21.6471L13.3677 20.5287C13.7287 20.3256 13.8568 19.8683 13.6537 19.5073C13.4506 19.1463 12.9933 19.0182 12.6323 19.2213L11.75 19.7176V12.4385L18.25 8.78228V10C18.25 10.4142 18.5858 10.75 19 10.75C19.4142 10.75 19.75 10.4142 19.75 10V7.51389C19.7525 7.38463 19.7217 7.25302 19.6537 7.13219C19.5808 7.00254 19.475 6.90294 19.3528 6.83793L11.3677 2.34632ZM3.75 16.0614V8.78227L10.25 12.4385V19.7176L3.75 16.0614ZM17.4701 7.49995L11 11.1394L8.63707 9.81022L14.8702 6.03752L17.4701 7.49995ZM4.5299 7.49994L7.1356 8.96565L13.3688 5.19294L11 3.86051L4.5299 7.49994Z" fill="black"/>
<path fill-rule="evenodd" clip-rule="evenodd" d="M14.3483 12.8483C15.0516 12.1451 16.0054 11.75 17 11.75C17.9946 11.75 18.9484 12.1451 19.6517 12.8483C20.3549 13.5516 20.75 14.5054 20.75 15.5C20.75 16.2415 20.5304 16.9603 20.1273 17.5695L22.5303 19.9726C22.8232 20.2655 22.8232 20.7404 22.5303 21.0333C22.2374 21.3262 21.7626 21.3262 21.4697 21.0333L19.066 18.6296C18.4575 19.0313 17.74 19.25 17 19.25C16.0054 19.25 15.0516 18.8549 14.3483 18.1517C13.6451 17.4484 13.25 16.4946 13.25 15.5C13.25 14.5054 13.6451 13.5516 14.3483 12.8483ZM17 13.25C16.4033 13.25 15.831 13.4871 15.409 13.909C14.9871 14.331 14.75 14.9033 14.75 15.5C14.75 16.0967 14.9871 16.669 15.409 17.091C15.831 17.5129 16.4033 17.75 17 17.75C17.5967 17.75 18.169 17.5129 18.591 17.091C19.0129 16.669 19.25 16.0967 19.25 15.5C19.25 14.9033 19.0129 14.331 18.591 13.909C18.169 13.4871 17.5967 13.25 17 13.25Z" fill="black"/>
</svg>
