<svg width="24" height="24" viewBox="0 0 24 24" fill="none" xmlns="http://www.w3.org/2000/svg">
<path fill-rule="evenodd" clip-rule="evenodd" d="M12.0001 7.83333C11.0809 7.83333 10.3334 7.08583 10.3334 6.16667C10.3334 5.46833 10.7651 4.86917 11.3751 4.62167V2.625C11.3751 2.28 11.6551 2 12.0001 2C12.3451 2 12.6251 2.28 12.6251 2.625V5.125C12.6251 5.47 12.3451 5.75 12.0001 5.75C11.7709 5.75 11.5834 5.93667 11.5834 6.16667C11.5834 6.39667 11.7709 6.58333 12.0001 6.58333C12.2293 6.58333 12.4168 6.39667 12.4168 6.16667C12.4168 5.82167 12.6968 5.54167 13.0418 5.54167C13.3868 5.54167 13.6667 5.82167 13.6667 6.16667C13.6667 7.08583 12.9193 7.83333 12.0001 7.83333ZM2.62519 22C2.28019 22 2.0002 21.72 2.0002 21.375V12.2246C1.99902 12.1775 2.00317 12.1305 2.01247 12.0846C2.01975 12.0484 2.03016 12.0133 2.0434 11.9797C2.08957 11.862 2.17175 11.7572 2.28603 11.6833L9.16096 7.24166C9.45262 7.0525 9.83845 7.13833 10.0251 7.4275C10.2118 7.7175 10.1293 8.10416 9.83929 8.29166L4.74435 11.5833H19.2558L14.1609 8.29167C13.8709 8.10416 13.7884 7.7175 13.9751 7.4275C14.1634 7.13833 14.5492 7.05416 14.8392 7.24166L21.7142 11.6833C21.8012 11.7396 21.8695 11.8138 21.9175 11.8979C21.97 11.9894 22 12.0954 22 12.2083V21.375C22 21.72 21.72 22 21.375 22H2.62519ZM20.75 20.75V12.8333H3.25018V20.75H20.75ZM4.29184 19.2917C4.29184 19.6367 4.57184 19.9167 4.91683 19.9167C5.26183 19.9167 5.54183 19.6367 5.54183 19.2917V14.2917C5.54183 13.9467 5.26183 13.6667 4.91683 13.6667C4.57184 13.6667 4.29184 13.9467 4.29184 14.2917V19.2917ZM8.25013 19.9167C7.90514 19.9167 7.62514 19.6367 7.62514 19.2917V14.2917C7.62514 13.9467 7.90514 13.6667 8.25013 13.6667C8.59513 13.6667 8.87513 13.9467 8.87513 14.2917V19.2917C8.87513 19.6367 8.59513 19.9167 8.25013 19.9167ZM11.3751 19.2917C11.3751 19.6367 11.6551 19.9167 12.0001 19.9167C12.3451 19.9167 12.6251 19.6367 12.6251 19.2917V14.2917C12.6251 13.9467 12.3451 13.6667 12.0001 13.6667C11.6551 13.6667 11.3751 13.9467 11.3751 14.2917V19.2917ZM15.7501 19.9167C15.4051 19.9167 15.1251 19.6367 15.1251 19.2917V14.2917C15.1251 13.9467 15.4051 13.6667 15.7501 13.6667C16.0951 13.6667 16.3751 13.9467 16.3751 14.2917V19.2917C16.3751 19.6367 16.0951 19.9167 15.7501 19.9167ZM18.4584 19.2917C18.4584 19.6367 18.7384 19.9167 19.0834 19.9167C19.4284 19.9167 19.7084 19.6367 19.7084 19.2917V14.2917C19.7084 13.9467 19.4284 13.6667 19.0834 13.6667C18.7384 13.6667 18.4584 13.9467 18.4584 14.2917V19.2917Z" fill="black"/>
</svg>
