<svg width="24" height="24" viewBox="0 0 24 24" fill="none" xmlns="http://www.w3.org/2000/svg">
<path fill-rule="evenodd" clip-rule="evenodd" d="M6.11612 4.11612C6.35054 3.8817 6.66848 3.75 7 3.75H13.25V7C13.25 7.46413 13.4344 7.90925 13.7626 8.23744C14.0908 8.56563 14.5359 8.75 15 8.75H18.25V15C18.25 15.4142 18.5858 15.75 19 15.75C19.4142 15.75 19.75 15.4142 19.75 15V8C19.75 7.797 19.6693 7.61283 19.5383 7.4778L19.5303 7.46967L14.5306 2.46997C14.3949 2.33407 14.2073 2.25 14 2.25H7C6.27065 2.25 5.57118 2.53973 5.05546 3.05546C4.53973 3.57118 4.25 4.27065 4.25 5V19C4.25 19.7293 4.53973 20.4288 5.05546 20.9445C5.57118 21.4603 6.27065 21.75 7 21.75H13C13.4142 21.75 13.75 21.4142 13.75 21C13.75 20.5858 13.4142 20.25 13 20.25H7C6.66848 20.25 6.35054 20.1183 6.11612 19.8839C5.8817 19.6495 5.75 19.3315 5.75 19V5C5.75 4.66848 5.8817 4.35054 6.11612 4.11612ZM14.75 4.81066V7C14.75 7.0663 14.7763 7.12989 14.8232 7.17678C14.8701 7.22366 14.9337 7.25 15 7.25H17.1893L14.75 4.81066Z" fill="black"/>
<path fill-rule="evenodd" clip-rule="evenodd" d="M9.75 9.75C8.92157 9.75 8.25 10.4216 8.25 11.25V15.75C8.25 16.5784 8.92157 17.25 9.75 17.25H14.25C15.0784 17.25 15.75 16.5784 15.75 15.75V11.25C15.75 10.4216 15.0784 9.75 14.25 9.75H9.75ZM11.25 12.75V11.25H9.75V15.75H14.25V11.25H12.75V12.75C12.75 13.1642 12.4142 13.5 12 13.5C11.5858 13.5 11.25 13.1642 11.25 12.75Z" fill="black"/>
<path d="M21.5303 17.5303C21.8232 17.2374 21.8232 16.7626 21.5303 16.4697C21.2374 16.1768 20.7626 16.1768 20.4697 16.4697L17 19.9393L15.5303 18.4697C15.2374 18.1768 14.7626 18.1768 14.4697 18.4697C14.1768 18.7626 14.1768 19.2374 14.4697 19.5303L16.4697 21.5303C16.7626 21.8232 17.2374 21.8232 17.5303 21.5303L21.5303 17.5303Z" fill="black"/>
</svg>
