<svg width="24" height="24" viewBox="0 0 24 24" fill="none" xmlns="http://www.w3.org/2000/svg">
<path fill-rule="evenodd" clip-rule="evenodd" d="M7.25 12C7.25 9.37665 9.37665 7.25 12 7.25C14.6234 7.25 16.75 9.37665 16.75 12C16.75 14.6234 14.6234 16.75 12 16.75C9.37665 16.75 7.25 14.6234 7.25 12ZM12 8.75C10.2051 8.75 8.75 10.2051 8.75 12C8.75 13.7949 10.2051 15.25 12 15.25C13.7949 15.25 15.25 13.7949 15.25 12C15.25 10.2051 13.7949 8.75 12 8.75Z" fill="black"/>
<path fill-rule="evenodd" clip-rule="evenodd" d="M5.10571 5.10571C6.93419 3.27723 9.41414 2.25 12 2.25C14.5659 2.25 17.0275 3.26141 18.8518 5.06346C18.8672 5.07659 18.8823 5.09045 18.8968 5.10504C18.9115 5.11968 18.9254 5.13477 18.9386 5.15027C20.7393 6.97437 21.75 9.43509 21.75 12C21.75 13.2804 21.4978 14.5482 21.0078 15.7312C20.5189 16.9114 19.8029 17.9841 18.9004 18.8882L18.8943 18.8943L18.8887 18.8999C17.9845 19.8026 16.9116 20.5189 15.7312 21.0078C14.5482 21.4978 13.2804 21.75 12 21.75C10.7196 21.75 9.45176 21.4978 8.26884 21.0078C7.10528 20.5259 6.0463 19.8231 5.15031 18.9386C5.13405 18.9249 5.11824 18.9104 5.10292 18.8951C5.08754 18.8797 5.07298 18.8638 5.05921 18.8475C4.17573 17.952 3.47374 16.8938 2.99217 15.7312C2.50219 14.5482 2.25 13.2804 2.25 12C2.25 9.41414 3.27723 6.93419 5.10571 5.10571ZM17.2802 5.66103L16.7755 6.1657C16.4826 6.45859 16.4826 6.93346 16.7755 7.22636C17.0684 7.51925 17.5433 7.51925 17.8362 7.22636L18.3407 6.72187C19.4098 8.00617 20.064 9.5858 20.2159 11.25H19.5C19.0858 11.25 18.75 11.5858 18.75 12C18.75 12.4142 19.0858 12.75 19.5 12.75H20.2158C20.1404 13.5763 19.9406 14.3879 19.622 15.1571C19.3034 15.9264 18.8707 16.6416 18.3398 17.2792L17.8336 16.773C17.5407 16.4801 17.0659 16.4801 16.773 16.773C16.4801 17.0659 16.4801 17.5408 16.773 17.8337L17.2791 18.3398C16.6415 18.8708 15.9263 19.3034 15.1571 19.622C14.3879 19.9406 13.5763 20.1404 12.75 20.2158V19.5C12.75 19.0858 12.4142 18.75 12 18.75C11.5858 18.75 11.25 19.0858 11.25 19.5V20.2158C10.4237 20.1404 9.61207 19.9406 8.84286 19.622C8.07321 19.3032 7.35764 18.8702 6.71975 18.3389L7.22424 17.8344C7.51713 17.5415 7.51713 17.0666 7.22424 16.7737C6.93135 16.4808 6.45647 16.4808 6.16358 16.7737L5.65928 17.278C5.12876 16.6407 4.69643 15.9259 4.37799 15.1571C4.05938 14.3879 3.85959 13.5763 3.78416 12.75H4.5C4.91421 12.75 5.25 12.4142 5.25 12C5.25 11.5858 4.91421 11.25 4.5 11.25H3.78414C3.93604 9.58537 4.5905 8.00535 5.66015 6.72087L6.16639 7.22711C6.45929 7.52 6.93416 7.52 7.22706 7.22711C7.51995 6.93421 7.51995 6.45934 7.22706 6.16645L6.72081 5.6602C8.00531 4.59052 9.58534 3.93604 11.25 3.78414V4.5C11.25 4.91421 11.5858 5.25 12 5.25C12.4142 5.25 12.75 4.91421 12.75 4.5V3.78414C14.4151 3.93608 15.9955 4.59085 17.2802 5.66103Z" fill="black"/>
</svg>
