<svg width="24" height="24" viewBox="0 0 24 24" fill="none" xmlns="http://www.w3.org/2000/svg">
<path fill-rule="evenodd" clip-rule="evenodd" d="M7.86815 3.80739L10.5304 6.46967C10.6711 6.61032 10.7501 6.80109 10.7501 7V10C10.7501 10.4142 10.4143 10.75 10.0001 10.75H7.0001C6.80119 10.75 6.61042 10.671 6.46977 10.5303L3.80749 7.86805C3.64382 8.55445 3.61931 9.27061 3.73992 9.97357C3.92351 11.0436 4.43432 12.0304 5.202 12.7981C5.96969 13.5658 6.95649 14.0766 8.02653 14.2602C9.09656 14.4438 10.1972 14.2911 11.1769 13.8232C11.4637 13.6862 11.8057 13.7449 12.0304 13.9697L18.0304 19.9697C18.2876 20.2268 18.6364 20.3713 19.0001 20.3713C19.3638 20.3713 19.7126 20.2268 19.9698 19.9697C20.2269 19.7125 20.3714 19.3637 20.3714 19C20.3714 18.6363 20.2269 18.2875 19.9698 18.0303L13.9698 12.0303C13.745 11.8056 13.6863 11.4636 13.8233 11.1768C14.2912 10.1971 14.4439 9.09646 14.2603 8.02643C14.0767 6.95639 13.5659 5.96959 12.7982 5.2019C12.0305 4.43422 11.0437 3.92341 9.97367 3.73982C9.27071 3.61921 8.55455 3.64372 7.86815 3.80739ZM6.17688 2.82322C7.43646 2.22166 8.85156 2.02538 10.2273 2.26142C11.6031 2.49747 12.8718 3.15422 13.8589 4.14124C14.8459 5.12827 15.5026 6.39701 15.7387 7.77277C15.9443 8.97112 15.8219 10.1993 15.3893 11.3286L21.0304 16.9697C21.5689 17.5081 21.8714 18.2385 21.8714 19C21.8714 19.7615 21.5689 20.4919 21.0304 21.0303C20.492 21.5688 19.7616 21.8713 19.0001 21.8713C18.2386 21.8713 17.5082 21.5688 16.9698 21.0303L11.3287 15.3892C10.1994 15.8218 8.97122 15.9442 7.77287 15.7386C6.39711 15.5025 5.12837 14.8458 4.14134 13.8588C3.15432 12.8717 2.49757 11.603 2.26152 10.2272C2.02548 8.85146 2.22175 7.43636 2.82332 6.17678C2.92825 5.95707 3.1333 5.80197 3.37327 5.7608C3.61324 5.71963 3.85827 5.79751 4.03043 5.96967L7.31076 9.25H9.2501V7.31066L5.96977 4.03033C5.79761 3.85817 5.71973 3.61314 5.7609 3.37317C5.80207 3.1332 5.95717 2.92815 6.17688 2.82322Z" fill="black"/>
</svg>
