<svg width="24" height="24" viewBox="0 0 24 24" fill="none" xmlns="http://www.w3.org/2000/svg">
<path d="M18.25 2.5C17.7858 2.5 17.3407 2.68134 17.0124 3.00413C16.6842 3.32691 16.4998 3.7647 16.4998 4.22119C16.4998 4.67768 16.6842 5.11547 17.0124 5.43826C17.3407 5.76104 17.7858 5.94238 18.25 5.94238C18.7142 5.94238 19.1594 5.76104 19.4876 5.43826C19.8158 5.11547 20.0002 4.67768 20.0002 4.22119C20.0002 3.7647 19.8158 3.32691 19.4876 3.00413C19.1594 2.68134 18.7142 2.5 18.25 2.5ZM16.7061 7.04688C16.5628 7.05718 16.4225 7.0837 16.2862 7.12207C16.2273 7.1354 16.1698 7.15403 16.1143 7.17773L13.3643 8.32715C13.2129 8.39048 13.0794 8.49008 12.9756 8.61719L10.7256 11.3672C10.6416 11.4688 10.5786 11.586 10.5401 11.712C10.5015 11.8381 10.4883 11.9705 10.5011 12.1017C10.514 12.2329 10.5526 12.3602 10.6148 12.4764C10.677 12.5926 10.7616 12.6954 10.8637 12.7788C10.9657 12.8622 11.0833 12.9246 11.2095 12.9624C11.3358 13.0002 11.4683 13.0127 11.5994 12.9991C11.7305 12.9856 11.8576 12.9462 11.9735 12.8834C12.0893 12.8205 12.1916 12.7353 12.2744 12.6328L14.2539 10.2139L13.6172 12.0195C13.3052 12.9055 13.6197 13.8906 14.3867 14.4326L16.1807 15.7002L16.2549 15.7529L18 17L18.9922 21.0254L19.0127 21.1562C19.0255 21.258 19.0538 21.3571 19.0967 21.4502L19.0996 21.4619V21.4551C19.2032 21.6753 19.3836 21.8502 19.6069 21.947C19.8302 22.0438 20.0812 22.0558 20.3127 21.9808C20.5443 21.9058 20.7405 21.749 20.8647 21.5397C20.9889 21.3303 21.0325 21.0829 20.9873 20.8438L20.2373 16.0938C20.2044 15.8852 20.1063 15.6924 19.9571 15.543L17.46 13.0459L18.7598 9.14453C19.0248 8.35953 18.6005 7.50964 17.8155 7.24414L17.5401 7.1543C17.2626 7.06055 16.9799 7.02719 16.7061 7.04688ZM19.7197 11.0146L19.0655 12.9648L20.4697 13.8447C20.6348 13.9497 20.82 14 21 14C21.33 14 21.6547 13.8353 21.8447 13.5303C22.1397 13.0653 22.0003 12.4453 21.5303 12.1553L19.7197 11.0146ZM10.1787 12.9805C10.0568 12.9783 9.93609 13.0058 9.82718 13.0608C9.71827 13.1158 9.62441 13.1965 9.55373 13.2959L8.38577 14.8887L6.9844 13.834C6.3244 13.3375 5.38722 13.4685 4.88772 14.126L2.35744 17.4805C1.85494 18.142 1.98594 19.0859 2.64944 19.5859L3.71096 20.3857C3.59595 20.5335 3.52473 20.7106 3.50541 20.8968C3.48608 21.083 3.51943 21.2709 3.60165 21.4392C3.68388 21.6074 3.81167 21.7491 3.9705 21.8483C4.12932 21.9474 4.31279 22 4.50002 22C4.64776 22 4.79366 21.9672 4.92723 21.904C5.06079 21.8409 5.1787 21.7489 5.27248 21.6348C5.3227 21.5935 5.36735 21.5459 5.4053 21.4932L10.7637 14.1826C10.8471 14.0722 10.8984 13.9409 10.9118 13.8031C10.9252 13.6654 10.9003 13.5267 10.8397 13.4022C10.7792 13.2778 10.6854 13.1725 10.5687 13.0981C10.4521 13.0237 10.3171 12.983 10.1787 12.9805ZM13.5 15.6445V17.1299L10.7403 20.3496C10.3803 20.7696 10.4296 21.3998 10.8496 21.7598C11.0396 21.9198 11.27 22 11.5 22C11.78 22 12.0598 21.8804 12.2598 21.6504L15.2598 18.1504C15.4148 17.9704 15.5 17.74 15.5 17.5V17.3047C15.5 17.2697 15.5098 17.2352 15.5098 17.2002V17.0654L15.3897 16.9805L13.5196 15.6602C13.5146 15.6552 13.505 15.6495 13.5 15.6445Z" fill="black"/>
</svg>
