<svg width="24" height="24" viewBox="0 0 24 24" fill="none" xmlns="http://www.w3.org/2000/svg">
<path d="M3.18223 11.4098C1.99229 11.2504 1.95507 10.5352 2.01885 10.1673C2.04791 10.0002 2.15958 9.85419 2.32153 9.77776C2.78965 9.55711 3.4958 9.66551 3.98046 9.78547L5.12611 6.80965C5.68249 5.61902 6.82966 5 7.89705 5H16.1188C17.1862 5 18.333 5.61902 18.8896 6.80975L20.0343 9.78192C20.5185 9.66338 21.2154 9.55924 21.6789 9.77776C21.841 9.85408 21.9527 10.0001 21.9816 10.1673C22.0455 10.5353 22.008 11.2504 20.8179 11.4097C21.4961 12.0223 21.9192 12.8797 21.9192 13.8245V18.8703C21.9192 19.4916 21.3743 20 20.708 20H20.1391C19.4728 20 18.9279 19.4916 18.9279 18.8703V17.8169C18.727 17.8498 18.5204 17.8669 18.3098 17.8669L12.0001 17.9634L5.69033 17.8669C5.47973 17.8669 5.27347 17.8498 5.07256 17.8169V18.8703C5.07256 19.4916 4.52738 20 3.86107 20H3.29216C2.62628 20 2.081 19.4916 2.081 18.8703V13.8245C2.081 12.8797 2.50417 12.0224 3.18223 11.4098ZM18.4849 15.2934C18.6412 15.2934 18.7911 15.2652 18.928 15.2139C19.369 15.05 19.6802 14.6482 19.6802 14.1787C19.6802 13.867 19.5433 13.5855 19.3222 13.3834C19.1066 13.1856 18.8108 13.064 18.4848 13.064C17.8246 13.064 17.2896 13.563 17.2896 14.1786C17.2896 14.7941 17.8248 15.2934 18.4849 15.2934ZM17.5599 11.2355C17.9747 11.1511 18.2561 10.824 18.2862 10.4584C18.2962 10.3337 18.2772 10.2046 18.2244 10.079L17.1172 7.44785C16.7039 6.63883 15.8524 6.21824 15.06 6.21824H8.95573C8.16327 6.21824 7.31193 6.63883 6.89856 7.44785L5.79133 10.079C5.73855 10.2046 5.7195 10.3337 5.72951 10.4584C5.75966 10.824 6.04112 11.1511 6.4558 11.2355C7.09011 11.3645 7.89977 11.38 8.33937 11.38H15.6762C16.1157 11.38 16.9256 11.3645 17.5599 11.2355ZM8.30237 14.35C8.30237 14.7371 8.64195 15.0542 9.05749 15.0542H14.8864C15.3018 15.0542 15.6414 14.7371 15.6414 14.35V14.0722C15.6414 13.6848 15.3018 13.368 14.8864 13.368H9.05749C8.64205 13.368 8.30237 13.6847 8.30237 14.0722V14.35ZM5.07256 15.2461C5.18216 15.2769 5.29829 15.2934 5.41867 15.2934C6.07889 15.2934 6.61394 14.7943 6.61394 14.1787C6.61394 13.563 6.07878 13.0641 5.41867 13.0641C5.11533 13.0641 4.83855 13.1693 4.62806 13.3429C4.37969 13.547 4.22339 13.8459 4.22339 14.1787C4.22339 14.6821 4.58126 15.1077 5.07256 15.2461Z" fill="black"/>
</svg>
