<svg width="24" height="24" viewBox="0 0 24 24" fill="none" xmlns="http://www.w3.org/2000/svg">
<path d="M10.001 4.89355C9.86987 5.40761 9.7998 5.94656 9.7998 6.50098C9.79982 6.54128 9.802 6.58194 9.80273 6.62207L3.5 9.42383V21.9365C3.4995 22.3503 3.16391 22.6865 2.75 22.6865C2.33609 22.6865 2.0005 22.3503 2 21.9365V8.93652C2 8.64026 2.17466 8.37143 2.44531 8.25098L10.001 4.89355ZM11.8027 11.1885C12.2681 11.6351 12.7995 12.0133 13.3809 12.3066C13.4576 12.5057 13.5 12.7191 13.5 12.9365V13.1865H16.75C17.1642 13.1865 17.5 13.5223 17.5 13.9365V21.9365C17.4995 22.3503 17.1639 22.6865 16.75 22.6865H6.75C6.33609 22.6865 6.0005 22.3503 6 21.9365V15.9365C6 15.5223 6.33579 15.1865 6.75 15.1865H8V12.9365C8 12.4725 8.18466 12.0264 8.5127 11.6982C8.84086 11.3702 9.286 11.1865 9.75 11.1865H11.75C11.7676 11.1865 11.7852 11.1879 11.8027 11.1885ZM21.5 21.9365C21.4995 22.3503 21.1639 22.6865 20.75 22.6865C20.3361 22.6865 20.0005 22.3503 20 21.9365V11.8408C20.5734 11.4424 21.0811 10.9552 21.5 10.3975V21.9365ZM7.5 21.1865H12V16.6865H7.5V21.1865ZM13.5 21.1865H16V14.6865H13.5V21.1865ZM9.75 12.6865C9.6837 12.6865 9.62013 12.7129 9.57324 12.7598C9.52665 12.8066 9.5 12.8704 9.5 12.9365V15.1865H12V12.9365C12 12.8704 11.9734 12.8066 11.9268 12.7598C11.8799 12.7129 11.8163 12.6865 11.75 12.6865H9.75ZM16.2998 1C19.3324 1 21.7996 3.46747 21.7998 6.5C21.7998 9.5327 19.3325 12 16.2998 12C13.2672 11.9999 10.7998 9.53263 10.7998 6.5C10.8 3.46753 13.2673 1.00011 16.2998 1ZM18.6533 4.97168C18.4922 4.81058 18.2314 4.81054 18.0703 4.97168L15.6123 7.42969L14.5293 6.34668C14.3681 6.18553 14.1065 6.18553 13.9453 6.34668C13.7846 6.5078 13.7845 6.76864 13.9453 6.92969L15.3203 8.30469C15.4008 8.38521 15.5068 8.42573 15.6123 8.42578C15.7179 8.42578 15.8237 8.38525 15.9043 8.30469L18.6543 5.55469C18.8152 5.39354 18.8145 5.13283 18.6533 4.97168Z" fill="black"/>
</svg>
