<svg width="24" height="24" viewBox="0 0 24 24" fill="none" xmlns="http://www.w3.org/2000/svg">
<path d="M10.2178 4.89746C10.0874 5.41018 10.0176 5.94716 10.0176 6.5C10.0177 10.0851 12.9324 13 16.5176 13C18.6416 12.9999 20.5301 11.9769 21.7168 10.3975V21.9404C21.7167 22.3545 21.3809 22.6904 20.9668 22.6904H2.9668C2.55266 22.6904 2.21693 22.3545 2.2168 21.9404V8.94043C2.21687 8.64415 2.39137 8.37525 2.66211 8.25488L10.2178 4.89746ZM7.7168 21.1904H12.2168V16.6904H7.7168V21.1904ZM13.7168 21.1904H16.2168V14.6904H13.7168V21.1904ZM9.9668 12.6904C9.90054 12.6904 9.83691 12.7168 9.79004 12.7637C9.74328 12.8105 9.71685 12.8743 9.7168 12.9404V15.1904H12.2168V12.9404C12.2167 12.8743 12.1903 12.8105 12.1436 12.7637C12.0967 12.7168 12.0331 12.6904 11.9668 12.6904H9.9668ZM16.5176 1C19.5501 1.00013 22.0174 3.46749 22.0176 6.5C22.0176 9.53262 19.5502 11.9999 16.5176 12C13.4849 12 11.0176 9.5327 11.0176 6.5C11.0177 3.46741 13.485 1 16.5176 1ZM18.8711 4.97168C18.7099 4.81053 18.4492 4.81053 18.2881 4.97168L15.8291 7.42969L14.7461 6.34668C14.5849 6.18553 14.3242 6.18553 14.1631 6.34668C14.0021 6.50785 14.002 6.76861 14.1631 6.92969L15.5381 8.30469C15.6186 8.3852 15.7245 8.4248 15.8301 8.4248C15.9356 8.42474 16.0416 8.3852 16.1221 8.30469L18.8721 5.55469C19.0327 5.3936 19.032 5.1328 18.8711 4.97168Z" fill="black"/>
</svg>
