<svg width="24" height="24" viewBox="0 0 24 24" fill="none" xmlns="http://www.w3.org/2000/svg">
<path d="M9.9868 4.83639C9.91642 4.8012 9.83358 4.8012 9.7632 4.83639L2.7632 8.33639C2.6785 8.37874 2.625 8.4653 2.625 8.56V19.942C2.625 20.3562 2.28921 20.692 1.875 20.692C1.46079 20.692 1.125 20.3562 1.125 19.942V8.56C1.125 7.89715 1.4995 7.29119 2.09238 6.99475L9.09238 3.49475C9.58505 3.24841 10.165 3.24841 10.6576 3.49475L17.6576 6.99475C18.2505 7.29119 18.625 7.89715 18.625 8.56V11.942C18.625 12.3562 18.2892 12.692 17.875 12.692C17.4608 12.692 17.125 12.3562 17.125 11.942V8.56C17.125 8.4653 17.0715 8.37874 16.9868 8.33639L9.9868 4.83639Z" fill="black"/>
<path d="M17.875 16.692C18.2892 16.692 18.625 17.0278 18.625 17.442V19.942C18.625 20.3562 18.2892 20.692 17.875 20.692C17.4608 20.692 17.125 20.3562 17.125 19.942V17.442C17.125 17.0278 17.4608 16.692 17.875 16.692Z" fill="black"/>
<path fill-rule="evenodd" clip-rule="evenodd" d="M5.975 20.692H13.775C14.2444 20.692 14.625 20.3114 14.625 19.842V14.442C14.625 13.7516 14.0654 13.192 13.375 13.192H10.6C10.4842 12.6214 9.97974 12.192 9.375 12.192H7.375C6.68464 12.192 6.125 12.7516 6.125 13.442V15.217C5.55444 15.3328 5.125 15.8372 5.125 16.442V19.842C5.125 20.3114 5.50556 20.692 5.975 20.692ZM7.625 15.192H9.125V13.692H7.625V15.192ZM8.875 16.692C9.01307 16.692 9.125 16.8039 9.125 16.942V19.192H6.625V16.692H8.875ZM13.125 19.192H10.625V14.692H13.125V19.192Z" fill="black"/>
<path d="M15.875 14.692C15.875 14.2778 16.2108 13.942 16.625 13.942H20.625L20.025 13.142C19.7765 12.8106 19.8436 12.3405 20.175 12.092C20.5064 11.8435 20.9765 11.9106 21.225 12.242L22.725 14.242C22.925 14.5087 22.925 14.8753 22.725 15.142L21.225 17.142C20.9765 17.4734 20.5064 17.5405 20.175 17.292C19.8436 17.0435 19.7765 16.5734 20.025 16.242L20.625 15.442H16.625C16.2108 15.442 15.875 15.1062 15.875 14.692Z" fill="black"/>
</svg>
