<svg width="24" height="24" viewBox="0 0 24 24" fill="none" xmlns="http://www.w3.org/2000/svg">
<path d="M10.251 4.55273C10.1198 5.06692 10.0498 5.60655 10.0498 6.16113C10.0498 6.20131 10.052 6.24222 10.0527 6.28223L3.75 9.08398V21.5957C3.74954 22.0095 3.41393 22.3457 3 22.3457C2.58607 22.3457 2.25046 22.0095 2.25 21.5957V8.5957C2.25015 8.29966 2.42489 8.03157 2.69531 7.91113L10.251 4.55273ZM12.0537 10.8477C12.5189 11.294 13.0497 11.6725 13.6309 11.9658C13.7077 12.1648 13.75 12.3783 13.75 12.5957V12.8457H17C17.4141 12.8457 17.7498 13.1817 17.75 13.5957V21.5957C17.7495 22.0095 17.4139 22.3457 17 22.3457H7C6.58607 22.3457 6.25046 22.0095 6.25 21.5957V15.5957C6.25021 15.1817 6.58592 14.8457 7 14.8457H8.25V12.5957C8.2501 12.1319 8.43487 11.6865 8.7627 11.3584C9.09087 11.0303 9.53596 10.8457 10 10.8457H12C12.0179 10.8457 12.0358 10.8471 12.0537 10.8477ZM21.75 21.5957C21.7495 22.0095 21.4139 22.3457 21 22.3457C20.5861 22.3457 20.2505 22.0095 20.25 21.5957V11.501C20.8234 11.1026 21.3311 10.6152 21.75 10.0576V21.5957ZM7.75 20.8457H12.25V16.3457H7.75V20.8457ZM13.75 20.8457H16.25V14.3457H13.75V20.8457ZM10 12.3457C9.93379 12.3457 9.87011 12.3722 9.82324 12.4189C9.77672 12.4657 9.7501 12.5297 9.75 12.5957V14.8457H12.25V12.5957C12.2499 12.5297 12.2233 12.4657 12.1768 12.4189C12.1299 12.3722 12.0662 12.3457 12 12.3457H10ZM16.5498 0.65918C19.5873 0.65918 22.0498 3.12266 22.0498 6.16016C22.0495 9.19743 19.5871 11.6602 16.5498 11.6602C13.5125 11.6602 11.0501 9.19743 11.0498 6.16016C11.0498 3.12266 13.5123 0.65918 16.5498 0.65918ZM13.0498 5.66016C12.7738 5.66016 12.5498 5.88416 12.5498 6.16016C12.5501 6.43593 12.774 6.66016 13.0498 6.66016H20.0498C20.3256 6.66016 20.5495 6.43593 20.5498 6.16016C20.5498 5.88416 20.3258 5.66016 20.0498 5.66016H13.0498Z" fill="black"/>
</svg>
