<svg width="24" height="24" viewBox="0 0 24 24" fill="none" xmlns="http://www.w3.org/2000/svg">
<path d="M11.6954 3.31464C11.8893 3.22845 12.1107 3.22845 12.3046 3.31464L21.3046 7.31464C21.5754 7.43502 21.75 7.70361 21.75 8V21C21.75 21.4142 21.4142 21.75 21 21.75C20.5858 21.75 20.25 21.4142 20.25 21V8.4874L12 4.82074L3.75 8.4874V21C3.75 21.4142 3.41421 21.75 3 21.75C2.58579 21.75 2.25 21.4142 2.25 21V8C2.25 7.70361 2.42455 7.43502 2.6954 7.31464L11.6954 3.31464Z" fill="black"/>
<path fill-rule="evenodd" clip-rule="evenodd" d="M13.75 12.25V12C13.75 11.5359 13.5656 11.0908 13.2374 10.7626C12.9092 10.4344 12.4641 10.25 12 10.25H10C9.53587 10.25 9.09075 10.4344 8.76256 10.7626C8.43438 11.0908 8.25 11.5359 8.25 12V14.25H7C6.58579 14.25 6.25 14.5858 6.25 15V21C6.25 21.4142 6.58579 21.75 7 21.75H17C17.4142 21.75 17.75 21.4142 17.75 21V13C17.75 12.5858 17.4142 12.25 17 12.25H13.75ZM12.25 12C12.25 11.9337 12.2237 11.8701 12.1768 11.8232C12.1299 11.7763 12.0663 11.75 12 11.75H10C9.9337 11.75 9.87011 11.7763 9.82322 11.8232C9.77634 11.8701 9.75 11.9337 9.75 12V14.25H12.25V12ZM13.75 13.75H16.25V20.25H13.75V13.75ZM12.25 15.75H7.75V20.25H12.25V15.75Z" fill="black"/>
</svg>
