<svg width="24" height="24" viewBox="0 0 24 24" fill="none" xmlns="http://www.w3.org/2000/svg">
<path d="M11.9638 2.00099C11.8627 2.00586 11.7638 2.03111 11.6727 2.07521L2.92275 6.3174C2.78625 6.38041 2.67184 6.48299 2.59436 6.61182C2.51688 6.74065 2.47989 6.88979 2.48821 7.0399C2.49653 7.19001 2.54976 7.33415 2.641 7.45364C2.73224 7.57312 2.85728 7.66243 2.9999 7.70998V18.75C2.9999 20.2599 4.24001 21.5 5.7499 21.5H11.8769C11.9574 21.5132 12.0395 21.5132 12.12 21.5H18.2499C19.7598 21.5 20.9999 20.2599 20.9999 18.75V7.71096C21.1428 7.66358 21.2682 7.57429 21.3596 7.45471C21.4511 7.33512 21.5045 7.19077 21.5128 7.04044C21.5211 6.8901 21.484 6.74075 21.4063 6.61179C21.3286 6.48284 21.2139 6.38026 21.077 6.3174L12.327 2.07521C12.2141 2.02046 12.0892 1.99494 11.9638 2.00099ZM11.2499 3.94728V12H4.4999V7.21974L11.2499 3.94728ZM12.7499 3.94728L19.4999 7.21974V12H12.7499V3.94728ZM7.2499 7.00002C7.15051 6.99861 7.05184 7.01697 6.95962 7.05403C6.86739 7.09109 6.78345 7.14611 6.71267 7.2159C6.64189 7.28568 6.58569 7.36884 6.54733 7.46053C6.50897 7.55222 6.48922 7.65062 6.48922 7.75002C6.48922 7.84941 6.50897 7.94781 6.54733 8.03951C6.58569 8.1312 6.64189 8.21435 6.71267 8.28414C6.78345 8.35392 6.86739 8.40894 6.95962 8.446C7.05184 8.48306 7.15051 8.50142 7.2499 8.50002H8.2499C8.34928 8.50142 8.44795 8.48306 8.54018 8.446C8.63241 8.40894 8.71635 8.35392 8.78712 8.28414C8.8579 8.21435 8.9141 8.1312 8.95246 8.03951C8.99083 7.94781 9.01058 7.84941 9.01058 7.75002C9.01058 7.65062 8.99083 7.55222 8.95246 7.46053C8.9141 7.36884 8.8579 7.28568 8.78712 7.2159C8.71635 7.14611 8.63241 7.09109 8.54018 7.05403C8.44795 7.01697 8.34928 6.99861 8.2499 7.00002H7.2499ZM15.7499 7.00002C15.6505 6.99861 15.5518 7.01697 15.4596 7.05403C15.3674 7.09109 15.2834 7.14611 15.2127 7.2159C15.1419 7.28568 15.0857 7.36884 15.0473 7.46053C15.009 7.55222 14.9892 7.65062 14.9892 7.75002C14.9892 7.84941 15.009 7.94781 15.0473 8.03951C15.0857 8.1312 15.1419 8.21435 15.2127 8.28414C15.2834 8.35392 15.3674 8.40894 15.4596 8.446C15.5518 8.48306 15.6505 8.50142 15.7499 8.50002H16.7499C16.8493 8.50142 16.948 8.48306 17.0402 8.446C17.1324 8.40894 17.2163 8.35392 17.2871 8.28414C17.3579 8.21435 17.4141 8.1312 17.4525 8.03951C17.4908 7.94781 17.5106 7.84941 17.5106 7.75002C17.5106 7.65062 17.4908 7.55222 17.4525 7.46053C17.4141 7.36884 17.3579 7.28568 17.2871 7.2159C17.2163 7.14611 17.1324 7.09109 17.0402 7.05403C16.948 7.01697 16.8493 6.99861 16.7499 7.00002H15.7499ZM4.4999 13.5H11.2499V20H5.7499C5.05078 20 4.4999 19.4491 4.4999 18.75V13.5ZM12.7499 13.5H19.4999V18.75C19.4999 19.4491 18.949 20 18.2499 20H12.7499V13.5ZM7.2499 15C7.15051 14.9986 7.05184 15.017 6.95962 15.054C6.86739 15.0911 6.78345 15.1461 6.71267 15.2159C6.64189 15.2857 6.58569 15.3688 6.54733 15.4605C6.50897 15.5522 6.48922 15.6506 6.48922 15.75C6.48922 15.8494 6.50897 15.9478 6.54733 16.0395C6.58569 16.1312 6.64189 16.2144 6.71267 16.2841C6.78345 16.3539 6.86739 16.4089 6.95962 16.446C7.05184 16.4831 7.15051 16.5014 7.2499 16.5H8.2499C8.34928 16.5014 8.44795 16.4831 8.54018 16.446C8.63241 16.4089 8.71635 16.3539 8.78712 16.2841C8.8579 16.2144 8.9141 16.1312 8.95246 16.0395C8.99083 15.9478 9.01058 15.8494 9.01058 15.75C9.01058 15.6506 8.99083 15.5522 8.95246 15.4605C8.9141 15.3688 8.8579 15.2857 8.78712 15.2159C8.71635 15.1461 8.63241 15.0911 8.54018 15.054C8.44795 15.017 8.34928 14.9986 8.2499 15H7.2499ZM15.7499 15C15.6505 14.9986 15.5518 15.017 15.4596 15.054C15.3674 15.0911 15.2834 15.1461 15.2127 15.2159C15.1419 15.2857 15.0857 15.3688 15.0473 15.4605C15.009 15.5522 14.9892 15.6506 14.9892 15.75C14.9892 15.8494 15.009 15.9478 15.0473 16.0395C15.0857 16.1312 15.1419 16.2144 15.2127 16.2841C15.2834 16.3539 15.3674 16.4089 15.4596 16.446C15.5518 16.4831 15.6505 16.5014 15.7499 16.5H16.7499C16.8493 16.5014 16.948 16.4831 17.0402 16.446C17.1324 16.4089 17.2163 16.3539 17.2871 16.2841C17.3579 16.2144 17.4141 16.1312 17.4525 16.0395C17.4908 15.9478 17.5106 15.8494 17.5106 15.75C17.5106 15.6506 17.4908 15.5522 17.4525 15.4605C17.4141 15.3688 17.3579 15.2857 17.2871 15.2159C17.2163 15.1461 17.1324 15.0911 17.0402 15.054C16.948 15.017 16.8493 14.9986 16.7499 15H15.7499Z" fill="black"/>
</svg>
