<svg width="24" height="24" viewBox="0 0 24 24" fill="none" xmlns="http://www.w3.org/2000/svg">
<path d="M11.9638 2.00099C11.8627 2.00586 11.7638 2.03111 11.6727 2.07521L2.92275 6.3174C2.78625 6.38041 2.67184 6.48299 2.59436 6.61182C2.51688 6.74065 2.47989 6.88979 2.48821 7.0399C2.49653 7.19001 2.54976 7.33415 2.641 7.45364C2.73224 7.57312 2.85728 7.66243 2.9999 7.70998V11C2.9999 11.5525 3.4474 12 3.9999 12H10.2499C10.8024 12 11.2499 11.5525 11.2499 11V3.94728L11.9999 3.584L12.7499 3.94728V11C12.7499 11.5525 13.1974 12 13.7499 12H19.9999C20.5524 12 20.9999 11.5525 20.9999 11V7.71096C21.1428 7.66358 21.2682 7.57429 21.3596 7.45471C21.4511 7.33512 21.5045 7.19077 21.5128 7.04044C21.5211 6.8901 21.484 6.74075 21.4063 6.61179C21.3286 6.48284 21.2139 6.38026 21.077 6.3174L12.327 2.07521C12.2141 2.02046 12.0892 1.99494 11.9638 2.00099ZM6.7499 7.00002H7.7499C8.1644 7.00002 8.4999 7.33552 8.4999 7.75002C8.4999 8.16452 8.1644 8.50002 7.7499 8.50002H6.7499C6.3354 8.50002 5.9999 8.16452 5.9999 7.75002C5.9999 7.33552 6.3354 7.00002 6.7499 7.00002ZM16.2499 7.00002H17.2499C17.6644 7.00002 17.9999 7.33552 17.9999 7.75002C17.9999 8.16452 17.6644 8.50002 17.2499 8.50002H16.2499C15.8354 8.50002 15.4999 8.16452 15.4999 7.75002C15.4999 7.33552 15.8354 7.00002 16.2499 7.00002ZM3.9999 13.5C3.4474 13.5 2.9999 13.9475 2.9999 14.5V18.75C2.9999 20.269 4.2309 21.5 5.7499 21.5H10.2499C10.8024 21.5 11.2499 21.0525 11.2499 20.5V14.5C11.2499 13.9475 10.8024 13.5 10.2499 13.5H3.9999ZM13.7499 13.5C13.1974 13.5 12.7499 13.9475 12.7499 14.5V20.5C12.7499 21.0525 13.1974 21.5 13.7499 21.5H18.2499C19.7689 21.5 20.9999 20.269 20.9999 18.75V14.5C20.9999 13.9475 20.5524 13.5 19.9999 13.5H13.7499ZM6.7499 15H7.7499C8.1644 15 8.4999 15.3355 8.4999 15.75C8.4999 16.1645 8.1644 16.5 7.7499 16.5H6.7499C6.3354 16.5 5.9999 16.1645 5.9999 15.75C5.9999 15.3355 6.3354 15 6.7499 15ZM16.2499 15H17.2499C17.6644 15 17.9999 15.3355 17.9999 15.75C17.9999 16.1645 17.6644 16.5 17.2499 16.5H16.2499C15.8354 16.5 15.4999 16.1645 15.4999 15.75C15.4999 15.3355 15.8354 15 16.2499 15Z" fill="black"/>
</svg>
