<svg width="24" height="24" viewBox="0 0 24 24" fill="none" xmlns="http://www.w3.org/2000/svg">
<path d="M19.571 7.75403L13.623 3.06853C12.668 2.31553 11.332 2.31603 10.376 3.06903L4.4295 7.75403C3.521 8.46953 3 9.54353 3 10.6995V19.744C3 20.709 3.785 21.494 4.75 21.494H19.25C20.215 21.494 21 20.709 21 19.744V10.6995C21 9.54353 20.479 8.46953 19.571 7.75403ZM9.5 9.50003C9.5 8.94753 9.9475 8.50003 10.5 8.50003H13.5C14.0525 8.50003 14.5 8.94753 14.5 9.50003V12.5C14.5 13.0525 14.0525 13.5 13.5 13.5H10.5C9.9475 13.5 9.5 13.0525 9.5 12.5V9.50003ZM11 19C11 19.5525 10.5525 20 10 20H7C6.4475 20 6 19.5525 6 19V16C6 15.4475 6.4475 15 7 15H10C10.5525 15 11 15.4475 11 16V19ZM18 19C18 19.5525 17.5525 20 17 20H14C13.4475 20 13 19.5525 13 19V16C13 15.4475 13.4475 15 14 15H17C17.5525 15 18 15.4475 18 16V19Z" fill="black"/>
</svg>
