<svg width="24" height="24" viewBox="0 0 24 24" fill="none" xmlns="http://www.w3.org/2000/svg">
<path d="M8.75 13.6929V12.1929H7.25V13.6929H8.75Z" fill="black"/>
<path d="M8.75 15.4429V17.6929H6.25V15.1929H8.5C8.63807 15.1929 8.75 15.3048 8.75 15.4429Z" fill="black"/>
<path d="M12.75 17.6929H10.25V13.1929H12.75V17.6929Z" fill="black"/>
<path fill-rule="evenodd" clip-rule="evenodd" d="M10.2826 3.49481C9.78995 3.24847 9.21005 3.24847 8.71738 3.49481L1.71738 6.99481C1.1245 7.29125 0.75 7.89721 0.75 8.56006V19.442C0.75 20.1324 1.30964 20.692 2 20.692H17C17.6904 20.692 18.25 20.1324 18.25 19.442V17.0601H17.1499C16.0453 17.0601 15.1499 16.1646 15.1499 15.0601C15.1499 13.9555 16.0453 13.0601 17.1499 13.0601H18.25V8.56006C18.25 7.89721 17.8755 7.29125 17.2826 6.99481L10.2826 3.49481ZM7 10.6929C6.30964 10.6929 5.75 11.2525 5.75 11.9429V13.7179C5.17944 13.8337 4.75 14.3381 4.75 14.9429V18.3429C4.75 18.8123 5.13056 19.1929 5.6 19.1929H13.4C13.8694 19.1929 14.25 18.8123 14.25 18.3429V12.9429C14.25 12.2525 13.6904 11.6929 13 11.6929H10.225C10.1092 11.1223 9.60474 10.6929 9 10.6929H7Z" fill="black"/>
<path d="M17 14.3101C16.5858 14.3101 16.25 14.6459 16.25 15.0601C16.25 15.4743 16.5858 15.8101 17 15.8101H21L20.4 16.6101C20.1515 16.9415 20.2186 17.4116 20.55 17.6601C20.8814 17.9086 21.3515 17.8415 21.6 17.5101L23.1 15.5101C23.3 15.2434 23.3 14.8768 23.1 14.6101L21.6 12.6101C21.3515 12.2787 20.8814 12.2116 20.55 12.4601C20.2186 12.7086 20.1515 13.1787 20.4 13.5101L21 14.3101H17Z" fill="black"/>
</svg>
