<svg width="112" height="208" viewBox="0 0 112 208" fill="none" xmlns="http://www.w3.org/2000/svg">
<rect x="0.5" y="0.5" width="111" height="207" rx="4.5" stroke="#9747FF" stroke-dasharray="10 5"/>
<g filter="url(#filter0_dd_7821_64217)">
<rect x="16" y="16" width="80" height="80" rx="8" fill="white"/>
</g>
<path d="M27.9996 80.7059V34.0392C27.9996 30.7089 30.7535 28 34.1392 28H71.5345C72.4588 28 71.5345 28.7379 71.5345 29.6471C71.5345 30.5562 70.7844 31.2941 69.8601 31.2941C68.3208 31.2941 67.0694 32.525 67.0694 34.0392V80.7059C67.0694 82.522 65.5669 84 63.7206 84H31.3485C29.5022 84 27.9996 82.522 27.9996 80.7059Z" fill="#EFF3B1"/>
<path d="M28.0003 80.7059V34.0392C28.0003 30.7089 30.7541 28 34.1398 28H47.5352V84H31.3491C29.5028 84 28.0003 82.522 28.0003 80.7059Z" fill="#F3F6C5"/>
<path d="M44.0737 38.31C44.0737 37.4008 44.8238 36.6629 45.7481 36.6629H55.2006C56.1249 36.6629 56.875 37.4008 56.875 38.31C56.875 39.2191 56.1249 39.957 55.2006 39.957H45.7481C44.8238 39.957 44.0737 39.2191 44.0737 38.31Z" fill="#ABB331"/>
<path d="M38.9916 38.31C38.9916 37.4008 39.7418 36.6629 40.6661 36.6629H47.5352V39.957H40.6661C39.7418 39.957 38.9916 39.2191 38.9916 38.31Z" fill="#D6E03D"/>
<path d="M38.4256 47.4825L43.7838 51.8747C44.2292 52.2403 44.8342 52.3523 45.3845 52.1722C48.2158 51.244 47.2927 51.5466 50.1265 50.6174C51.6956 51.3035 52.9022 52 54.5211 52.872C55.3553 53.2367 55.5068 52.4103 55.8873 51.5698C56.2589 50.7475 55.8807 49.8612 55.8807 49.8612C52.9022 48.5 52.9022 48.5 50.8933 47.3475C50.5116 47.1806 50.0807 47.1608 49.6844 47.2904C48.1269 47.8011 46.7954 48.2376 45.2104 48.7573L40.5689 44.9526C39.8589 44.3696 38.8029 44.464 38.2113 45.1635C37.6186 45.8618 37.7146 46.9006 38.4256 47.4825Z" fill="#7F756E"/>
<path d="M45.3852 52.1722L47.5352 51.4673V47.9953L45.2111 48.7573L40.5696 44.9526C39.8596 44.3696 38.8036 44.464 38.212 45.1635C37.6193 45.8618 37.7152 46.9006 38.4263 47.4825L43.7845 51.8747C44.2299 52.2403 44.8349 52.3523 45.3852 52.1722Z" fill="#99918B"/>
<path d="M38.1933 58.5149C38.1933 59.4241 38.9434 60.162 39.8677 60.162H55.2006C56.1249 60.162 56.875 59.4241 56.875 58.5149V45.3385C56.875 44.4293 56.1249 43.6914 55.2006 43.6914C54.2763 43.6914 53.5262 44.4293 53.5262 45.3385V56.8679H39.8677C38.9434 56.8679 38.1933 57.6058 38.1933 58.5149Z" fill="#1E203E"/>
<path d="M38.1943 58.5142C38.1943 59.4234 38.9444 60.1613 39.8687 60.1613H47.5352V56.8672H39.8687C38.9444 56.8672 38.1943 57.6051 38.1943 58.5142Z" fill="#282A52"/>
<path d="M67.0698 42.7148V32.3933C67.0698 29.9676 69.0689 28.0011 71.5349 28.0011C73.994 28.0011 76 29.9609 76 32.3933V39.4207C76 41.2401 74.5007 42.7148 72.6512 42.7148H67.0698Z" fill="#E6EC8B"/>
<path d="M66 67.9961H49.125L51.1224 80.8482C51.1224 80.8482 51.5357 83.7461 54.4286 83.7461C57.3214 83.7461 66 83.7461 66 83.7461C66 83.7461 74.6787 83.7461 77.5714 83.7461C80.4643 83.7461 80.8776 80.8482 80.8776 80.8482L82.875 67.9961H66Z" fill="#D6E03D"/>
<path d="M65.125 64.0781C65.125 63.5342 64.6849 63.0938 64.1406 63.0938H58.2344C57.6901 63.0938 57.25 63.5342 57.25 64.0781V68.0159C57.25 68.5599 57.6901 69.0003 58.2344 69.0003H65.125C65.125 69.0003 65.125 64.6224 65.125 64.0781Z" fill="#7F756E"/>
<path d="M72.2307 61.1094V66.0159C72.2307 66.567 71.7975 67.0003 71.2464 67.0003H63.3711C62.8199 67.0003 62.3867 66.567 62.3867 66.0159V61.1094C62.3867 60.5582 62.8199 60.125 63.3711 60.125H71.2464C71.7975 60.125 72.2307 60.5582 72.2307 61.1094Z" fill="#99918B"/>
<path d="M72.2307 61.1094V66.0159C72.2307 66.567 71.7975 67.0003 71.2464 67.0003H65.9961V60.125H71.2464C71.7975 60.125 72.2307 60.5582 72.2307 61.1094Z" fill="#7F756E"/>
<path fill-rule="evenodd" clip-rule="evenodd" d="M66 83.7461H77.5714C80.4643 83.7461 80.8776 80.8482 80.8776 80.8482L82.875 67.9961H66V83.7461Z" fill="#ABB331"/>
<rect x="48" y="65.7461" width="36" height="3.375" rx="1.6875" fill="#D6E03D"/>
<path d="M66 72.4961C68.4853 72.4961 70.5 70.4814 70.5 67.9961C70.5 65.5108 68.4853 63.4961 66 63.4961C63.5147 63.4961 61.5 65.5108 61.5 67.9961C61.5 70.4814 63.5147 72.4961 66 72.4961Z" fill="#D6E03D"/>
<rect x="73.2969" y="57.8711" width="3.375" height="13.5" rx="1.6875" transform="rotate(45 73.2969 57.8711)" fill="#282A52"/>
<path d="M57.5625 74.1836C57.5625 73.2516 58.318 72.4961 59.25 72.4961C60.182 72.4961 60.9375 73.2516 60.9375 74.1836V78.6836C60.9375 79.6156 60.182 80.3711 59.25 80.3711C58.318 80.3711 57.5625 79.6156 57.5625 78.6836V74.1836Z" fill="#EFF3B1"/>
<path d="M64.3125 74.1836C64.3125 73.2516 65.068 72.4961 66 72.4961C66.932 72.4961 67.6875 73.2516 67.6875 74.1836V78.6836C67.6875 79.6156 66.932 80.3711 66 80.3711C65.068 80.3711 64.3125 79.6156 64.3125 78.6836V74.1836Z" fill="#EFF3B1"/>
<path d="M71.0625 74.1836C71.0625 73.2516 71.818 72.4961 72.75 72.4961C73.682 72.4961 74.4375 73.2516 74.4375 74.1836V78.6836C74.4375 79.6156 73.682 80.3711 72.75 80.3711C71.818 80.3711 71.0625 79.6156 71.0625 78.6836V74.1836Z" fill="#E6EC8B"/>
<path fill-rule="evenodd" clip-rule="evenodd" d="M66 80.3711C66.932 80.3711 67.6875 79.6156 67.6875 78.6836V74.1836C67.6875 73.2516 66.932 72.4961 66 72.4961V80.3711Z" fill="#E6EC8B"/>
<path fill-rule="evenodd" clip-rule="evenodd" d="M66 72.4961C68.4853 72.4961 70.5 70.4814 70.5 67.9961C70.5 65.5108 68.4853 63.4961 66 63.4961V72.4961Z" fill="#ABB331"/>
<path fill-rule="evenodd" clip-rule="evenodd" d="M66 69.1211H82.3125C83.2445 69.1211 84 68.3656 84 67.4336C84 66.5016 83.2445 65.7461 82.3125 65.7461H66V69.1211Z" fill="#ABB331"/>
<path fill-rule="evenodd" clip-rule="evenodd" d="M66 69.097C66.4764 69.1357 66.9662 68.9728 67.3307 68.6083L74.4901 61.4489C75.1491 60.7899 75.1491 59.7214 74.4901 59.0624C73.8311 58.4034 72.7626 58.4034 72.1036 59.0624L66 65.166V69.097Z" fill="#1E203E"/>
<path d="M27.9998 176.706V130.039C27.9998 126.709 30.7536 124 34.1393 124H71.5346C72.4589 124 71.5346 124.738 71.5346 125.647C71.5346 126.556 70.7845 127.294 69.8602 127.294C68.3209 127.294 67.0695 128.525 67.0695 130.039V176.706C67.0695 178.522 65.567 180 63.7207 180H31.3486C29.5023 180 27.9998 178.522 27.9998 176.706Z" fill="#EFF3B1"/>
<path d="M28.0004 176.706V130.039C28.0004 126.709 30.7543 124 34.1399 124H47.5353V180H31.3492C29.5029 180 28.0004 178.522 28.0004 176.706Z" fill="#F3F6C5"/>
<path d="M44.0738 134.31C44.0738 133.401 44.8239 132.663 45.7482 132.663H55.2007C56.125 132.663 56.8751 133.401 56.8751 134.31C56.8751 135.219 56.125 135.957 55.2007 135.957H45.7482C44.8239 135.957 44.0738 135.219 44.0738 134.31Z" fill="#ABB331"/>
<path d="M38.9918 134.31C38.9918 133.401 39.7419 132.663 40.6662 132.663H47.5353V135.957H40.6662C39.7419 135.957 38.9918 135.219 38.9918 134.31Z" fill="#D6E03D"/>
<path d="M38.4257 143.483L43.7839 147.875C44.2293 148.24 44.8343 148.352 45.3846 148.172C48.216 147.244 47.2928 147.547 50.1266 146.617C51.6957 147.303 52.9023 148 54.5212 148.872C55.3554 149.237 55.5069 148.41 55.8874 147.57C56.259 146.748 55.8808 145.861 55.8808 145.861C52.9023 144.5 52.9023 144.5 50.8935 143.347C50.5117 143.181 50.0808 143.161 49.6845 143.29C48.127 143.801 46.7955 144.238 45.2105 144.757L40.569 140.953C39.8591 140.37 38.8031 140.464 38.2114 141.163C37.6187 141.862 37.7147 142.901 38.4257 143.483Z" fill="#7F756E"/>
<path d="M45.3853 148.172L47.5353 147.467V143.995L45.2112 144.757L40.5697 140.953C39.8597 140.37 38.8037 140.464 38.2121 141.163C37.6194 141.862 37.7154 142.901 38.4264 143.483L43.7846 147.875C44.23 148.24 44.835 148.352 45.3853 148.172Z" fill="#99918B"/>
<path d="M38.1934 154.515C38.1934 155.424 38.9435 156.162 39.8678 156.162H55.2007C56.125 156.162 56.8751 155.424 56.8751 154.515V141.338C56.8751 140.429 56.125 139.691 55.2007 139.691C54.2764 139.691 53.5263 140.429 53.5263 141.338V152.868H39.8678C38.9435 152.868 38.1934 153.606 38.1934 154.515Z" fill="#1E203E"/>
<path d="M38.1944 154.514C38.1944 155.423 38.9446 156.161 39.8688 156.161H47.5353V152.867H39.8688C38.9446 152.867 38.1944 153.605 38.1944 154.514Z" fill="#282A52"/>
<path d="M67.0699 138.715V128.393C67.0699 125.968 69.069 124.001 71.535 124.001C73.9942 124.001 76.0001 125.961 76.0001 128.393V135.421C76.0001 137.24 74.5008 138.715 72.6513 138.715H67.0699Z" fill="#E6EC8B"/>
<path d="M66.0001 163.996H49.1251L51.1225 176.848C51.1225 176.848 51.5358 179.746 54.4287 179.746C57.3216 179.746 66.0001 179.746 66.0001 179.746C66.0001 179.746 74.6788 179.746 77.5716 179.746C80.4644 179.746 80.8777 176.848 80.8777 176.848L82.8751 163.996H66.0001Z" fill="#D6E03D"/>
<path d="M65.1251 160.078C65.1251 159.534 64.685 159.094 64.1407 159.094H58.2345C57.6903 159.094 57.2501 159.534 57.2501 160.078V164.016C57.2501 164.56 57.6903 165 58.2345 165H65.1251C65.1251 165 65.1251 160.622 65.1251 160.078Z" fill="#7F756E"/>
<path d="M72.2308 157.109V162.016C72.2308 162.567 71.7976 163 71.2465 163H63.3712C62.8201 163 62.3868 162.567 62.3868 162.016V157.109C62.3868 156.558 62.8201 156.125 63.3712 156.125H71.2465C71.7976 156.125 72.2308 156.558 72.2308 157.109Z" fill="#99918B"/>
<path d="M72.2308 157.109V162.016C72.2308 162.567 71.7976 163 71.2465 163H65.9962V156.125H71.2465C71.7976 156.125 72.2308 156.558 72.2308 157.109Z" fill="#7F756E"/>
<path fill-rule="evenodd" clip-rule="evenodd" d="M66.0001 179.746H77.5716C80.4644 179.746 80.8777 176.848 80.8777 176.848L82.8751 163.996H66.0001V179.746Z" fill="#ABB331"/>
<rect x="48.0001" y="161.746" width="36" height="3.375" rx="1.6875" fill="#D6E03D"/>
<path d="M66.0001 168.496C68.4854 168.496 70.5001 166.481 70.5001 163.996C70.5001 161.511 68.4854 159.496 66.0001 159.496C63.5148 159.496 61.5001 161.511 61.5001 163.996C61.5001 166.481 63.5148 168.496 66.0001 168.496Z" fill="#D6E03D"/>
<rect x="73.297" y="153.871" width="3.375" height="13.5" rx="1.6875" transform="rotate(45 73.297 153.871)" fill="#282A52"/>
<path d="M57.5626 170.184C57.5626 169.252 58.3181 168.496 59.2501 168.496C60.1821 168.496 60.9376 169.252 60.9376 170.184V174.684C60.9376 175.616 60.1821 176.371 59.2501 176.371C58.3181 176.371 57.5626 175.616 57.5626 174.684V170.184Z" fill="#EFF3B1"/>
<path d="M64.3126 170.184C64.3126 169.252 65.0681 168.496 66.0001 168.496C66.9321 168.496 67.6876 169.252 67.6876 170.184V174.684C67.6876 175.616 66.9321 176.371 66.0001 176.371C65.0681 176.371 64.3126 175.616 64.3126 174.684V170.184Z" fill="#EFF3B1"/>
<path d="M71.0626 170.184C71.0626 169.252 71.8181 168.496 72.7501 168.496C73.6821 168.496 74.4376 169.252 74.4376 170.184V174.684C74.4376 175.616 73.6821 176.371 72.7501 176.371C71.8181 176.371 71.0626 175.616 71.0626 174.684V170.184Z" fill="#E6EC8B"/>
<path fill-rule="evenodd" clip-rule="evenodd" d="M66.0001 176.371C66.9321 176.371 67.6876 175.616 67.6876 174.684V170.184C67.6876 169.252 66.9321 168.496 66.0001 168.496V176.371Z" fill="#E6EC8B"/>
<path fill-rule="evenodd" clip-rule="evenodd" d="M66.0001 168.496C68.4854 168.496 70.5001 166.481 70.5001 163.996C70.5001 161.511 68.4854 159.496 66.0001 159.496V168.496Z" fill="#ABB331"/>
<path fill-rule="evenodd" clip-rule="evenodd" d="M66.0001 165.121H82.3126C83.2446 165.121 84.0001 164.366 84.0001 163.434C84.0001 162.502 83.2446 161.746 82.3126 161.746H66.0001V165.121Z" fill="#ABB331"/>
<path fill-rule="evenodd" clip-rule="evenodd" d="M66.0001 165.097C66.4766 165.136 66.9663 164.973 67.3308 164.608L74.4902 157.449C75.1492 156.79 75.1492 155.721 74.4902 155.062C73.8312 154.403 72.7628 154.403 72.1038 155.062L66.0001 161.166V165.097Z" fill="#1E203E"/>
<defs>
<filter id="filter0_dd_7821_64217" x="6" y="9" width="100" height="100" filterUnits="userSpaceOnUse" color-interpolation-filters="sRGB">
<feFlood flood-opacity="0" result="BackgroundImageFix"/>
<feColorMatrix in="SourceAlpha" type="matrix" values="0 0 0 0 0 0 0 0 0 0 0 0 0 0 0 0 0 0 127 0" result="hardAlpha"/>
<feOffset dy="3"/>
<feGaussianBlur stdDeviation="5"/>
<feColorMatrix type="matrix" values="0 0 0 0 0.516667 0 0 0 0 0.578358 0 0 0 0 0.775 0 0 0 0.12 0"/>
<feBlend mode="normal" in2="BackgroundImageFix" result="effect1_dropShadow_7821_64217"/>
<feColorMatrix in="SourceAlpha" type="matrix" values="0 0 0 0 0 0 0 0 0 0 0 0 0 0 0 0 0 0 127 0" result="hardAlpha"/>
<feOffset dy="1"/>
<feGaussianBlur stdDeviation="3"/>
<feColorMatrix type="matrix" values="0 0 0 0 0.709809 0 0 0 0 0.788943 0 0 0 0 0.920833 0 0 0 0.15 0"/>
<feBlend mode="normal" in2="effect1_dropShadow_7821_64217" result="effect2_dropShadow_7821_64217"/>
<feBlend mode="normal" in="SourceGraphic" in2="effect2_dropShadow_7821_64217" result="shape"/>
</filter>
</defs>
</svg>
