<svg width="24" height="24" viewBox="0 0 24 24" fill="none" xmlns="http://www.w3.org/2000/svg">
<g clip-path="url(#clip0_14528_56538)">
<path fill-rule="evenodd" clip-rule="evenodd" d="M18.0307 0.5C18.4449 0.5 18.7807 0.835786 18.7807 1.25V2.72169C19.4576 2.86559 20.0845 3.20253 20.5813 3.69937C20.6259 3.744 20.6693 3.78967 20.7113 3.83634L21.9858 3.10049C22.3445 2.89338 22.8032 3.01628 23.0103 3.37499C23.2174 3.73371 23.0945 4.19241 22.7358 4.39952L21.4613 5.13538C21.5772 5.4921 21.6378 5.86793 21.6378 6.25C21.6378 6.632 21.5772 7.00775 21.4613 7.36441L22.737 8.10037C23.0958 8.30736 23.2188 8.76601 23.0119 9.1248C22.8049 9.48358 22.3462 9.60664 21.9874 9.39964L20.7114 8.6635C20.6694 8.71022 20.626 8.75596 20.5813 8.80064C20.0845 9.29748 19.4576 9.63441 18.7807 9.77832V11.25C18.7807 11.6642 18.4449 12 18.0307 12C17.6165 12 17.2807 11.6642 17.2807 11.25V9.77834C16.6038 9.63444 15.9769 9.2975 15.48 8.80064C15.4355 8.75615 15.3923 8.71062 15.3504 8.6641L14.0755 9.39964C13.7167 9.60664 13.258 9.48358 13.051 9.1248C12.8441 8.76601 12.9671 8.30736 13.3259 8.10037L14.6002 7.36517C14.4842 7.00829 14.4235 6.63228 14.4235 6.25C14.4235 5.86773 14.4842 5.49172 14.6002 5.13484L13.3259 4.39964C12.9671 4.19265 12.8441 3.734 13.051 3.37521C13.258 3.01643 13.7167 2.89337 14.0755 3.10036L15.3504 3.83591C15.3923 3.78939 15.4355 3.74386 15.48 3.69937C15.9769 3.20251 16.6038 2.86557 17.2807 2.72167V1.25C17.2807 0.835786 17.6165 0.5 18.0307 0.5ZM15.9235 6.25C15.9235 5.88978 16.0158 5.53906 16.1872 5.22943C16.1942 5.2186 16.2009 5.20753 16.2075 5.19622C16.2138 5.18517 16.2199 5.17402 16.2257 5.16279C16.3132 5.01743 16.4187 4.88202 16.5407 4.76003C16.9359 4.36486 17.4718 4.14286 18.0307 4.14286C18.5895 4.14286 19.1255 4.36486 19.5206 4.76003C19.9158 5.15519 20.1378 5.69115 20.1378 6.25C20.1378 6.80885 19.9158 7.34481 19.5206 7.73998C19.1255 8.13515 18.5895 8.35715 18.0307 8.35715C17.4718 8.35715 16.9359 8.13515 16.5407 7.73998C16.4187 7.61798 16.3132 7.48257 16.2257 7.33721C16.2199 7.32598 16.2138 7.31483 16.2075 7.30378C16.2009 7.29248 16.1942 7.28142 16.1872 7.27059C16.0158 6.96096 15.9235 6.61024 15.9235 6.25Z" fill="black"/>
<path fill-rule="evenodd" clip-rule="evenodd" d="M6.75 1.75C6.75 1.33579 6.41421 1 6 1C5.58579 1 5.25 1.33579 5.25 1.75V2.25C5.25 2.66421 5.58579 3 6 3C5.31788 3 4.65305 3.21462 4.09969 3.61346C3.54633 4.0123 3.13248 4.57515 2.91678 5.22226C2.80562 5.55575 2.74998 5.90291 2.75 6.25019C2.75 5.83598 2.41421 5.5 2 5.5H1.5C1.08579 5.5 0.75 5.83579 0.75 6.25C0.75 6.66421 1.08579 7 1.5 7H2C2.41415 7 2.7499 6.66432 2.75 6.25019C2.75002 6.57679 2.79926 6.90349 2.89783 7.21904C3.09507 7.85045 3.48012 8.40616 4.0009 8.81244C4.06011 8.87606 4.11065 8.947 4.15136 9.02338C4.16351 9.05441 4.17768 9.08444 4.19368 9.11329C4.20235 9.13437 4.21032 9.15578 4.21755 9.17748C4.26719 9.32639 4.28107 9.48489 4.25809 9.64016C4.2527 9.67653 4.25 9.71324 4.25 9.75C4.25 10.2141 4.43437 10.6592 4.76256 10.9874C5.09075 11.3156 5.53587 11.5 6 11.5C6.46413 11.5 6.90925 11.3156 7.23744 10.9874C7.56563 10.6592 7.75 10.2141 7.75 9.75C7.75 9.71324 7.7473 9.67653 7.74191 9.64016C7.71893 9.48489 7.73281 9.32639 7.78245 9.17748C7.78972 9.15567 7.79772 9.13416 7.80645 9.11298C7.82232 9.08432 7.83638 9.05452 7.84846 9.02373C7.8892 8.94721 7.9398 8.87616 7.9991 8.81244C8.51988 8.40616 8.90493 7.85045 9.10217 7.21904C9.2007 6.90364 9.24994 6.57708 9.25 6.25063C9.25034 6.66456 9.586 7 10 7H10.5C10.9142 7 11.25 6.66421 11.25 6.25C11.25 5.83579 10.9142 5.5 10.5 5.5H10C9.58579 5.5 9.25 5.83642 9.25 6.25063C9.25007 5.9032 9.19443 5.55589 9.08322 5.22226C8.86752 4.57515 8.45367 4.0123 7.90031 3.61346C7.34695 3.21462 6.68212 3 6 3C6.41421 3 6.75 2.66421 6.75 2.25V1.75ZM6.72643 8C6.80099 7.89993 6.88315 7.8053 6.97237 7.71698C6.99669 7.69291 7.02263 7.67053 7.05 7.65C7.34384 7.42962 7.56088 7.12238 7.6704 6.77179C7.77991 6.42121 7.77634 6.04505 7.6602 5.6966C7.54405 5.34816 7.32121 5.04509 7.02324 4.83033C6.72528 4.61557 6.36729 4.5 6 4.5C5.63271 4.5 5.27472 4.61557 4.97676 4.83033C4.67879 5.04509 4.45595 5.34816 4.3398 5.6966C4.22366 6.04505 4.22009 6.42121 4.3296 6.77179C4.43912 7.12238 4.65616 7.42962 4.95 7.65C4.97737 7.67053 5.00331 7.69291 5.02763 7.71698C5.11685 7.8053 5.19901 7.89993 5.27357 8H6.72643ZM5.76886 9.5C5.76862 9.59423 5.76306 9.68856 5.75213 9.78255C5.75926 9.83684 5.78408 9.88763 5.82322 9.92678C5.87011 9.97366 5.9337 10 6 10C6.0663 10 6.12989 9.97366 6.17678 9.92678C6.21592 9.88763 6.24074 9.83684 6.24787 9.78255C6.23694 9.68856 6.23138 9.59423 6.23114 9.5H5.76886Z" fill="black"/>
<path d="M3.33033 2.51967C3.03744 2.22678 2.56256 2.22678 2.26967 2.51967C1.97678 2.81256 1.97678 3.28744 2.26967 3.58033L2.61967 3.93033C2.91256 4.22322 3.38744 4.22322 3.68033 3.93033C3.97322 3.63744 3.97322 3.16256 3.68033 2.86967L3.33033 2.51967Z" fill="black"/>
<path d="M9.73033 3.58033C10.0232 3.28744 10.0232 2.81256 9.73033 2.51967C9.43744 2.22678 8.96256 2.22678 8.66967 2.51967L8.31967 2.86967C8.02678 3.16256 8.02678 3.63744 8.31967 3.93033C8.61256 4.22322 9.08744 4.22322 9.38033 3.93033L9.73033 3.58033Z" fill="black"/>
<path d="M20.0303 16.7197C20.3232 17.0126 20.3232 17.4874 20.0303 17.7803L18.0303 19.7803C17.7374 20.0732 17.2626 20.0732 16.9697 19.7803L15.9697 18.7803C15.6768 18.4874 15.6768 18.0126 15.9697 17.7197C16.2626 17.4268 16.7374 17.4268 17.0303 17.7197L17.5 18.1893L18.9697 16.7197C19.2626 16.4268 19.7374 16.4268 20.0303 16.7197Z" fill="black"/>
<path fill-rule="evenodd" clip-rule="evenodd" d="M15.9909 13.3996C16.6279 13.1358 17.3106 13 18 13C18.6894 13 19.3721 13.1358 20.0091 13.3996C20.646 13.6635 21.2248 14.0502 21.7123 14.5377C22.1998 15.0252 22.5865 15.604 22.8504 16.2409C23.1142 16.8779 23.25 17.5606 23.25 18.25C23.25 18.9394 23.1142 19.6221 22.8504 20.2591C22.5865 20.896 22.1998 21.4748 21.7123 21.9623C21.2248 22.4498 20.646 22.8365 20.0091 23.1004C19.3721 23.3642 18.6894 23.5 18 23.5C17.3106 23.5 16.6279 23.3642 15.9909 23.1004C15.354 22.8365 14.7752 22.4498 14.2877 21.9623C13.8002 21.4748 13.4135 20.896 13.1496 20.2591C12.8858 19.6221 12.75 18.9394 12.75 18.25C12.75 17.5606 12.8858 16.8779 13.1496 16.2409C13.4135 15.604 13.8002 15.0252 14.2877 14.5377C14.7752 14.0502 15.354 13.6635 15.9909 13.3996ZM18 14.5C17.5075 14.5 17.0199 14.597 16.5649 14.7855C16.11 14.9739 15.6966 15.2501 15.3483 15.5983C15.0001 15.9466 14.7239 16.36 14.5355 16.8149C14.347 17.2699 14.25 17.7575 14.25 18.25C14.25 18.7425 14.347 19.2301 14.5355 19.6851C14.7239 20.14 15.0001 20.5534 15.3483 20.9016C15.6966 21.2499 16.11 21.5261 16.5649 21.7145C17.0199 21.903 17.5075 22 18 22C18.4925 22 18.9801 21.903 19.4351 21.7145C19.89 21.5261 20.3034 21.2499 20.6516 20.9016C20.9999 20.5534 21.2761 20.14 21.4645 19.6851C21.653 19.2301 21.75 18.7425 21.75 18.25C21.75 17.7575 21.653 17.2699 21.4645 16.8149C21.2761 16.36 20.9999 15.9466 20.6516 15.5983C20.3034 15.2501 19.89 14.9739 19.4351 14.7855C18.9801 14.597 18.4925 14.5 18 14.5Z" fill="black"/>
<path d="M7.8056 15.5477C7.27114 15.1906 6.64279 15 6 15C5.58578 15 5.25 15.3358 5.25 15.75C5.25 16.1642 5.58578 16.5 6 16.5C6.34612 16.5 6.68446 16.6026 6.97225 16.7949C7.26003 16.9872 7.48433 17.2605 7.61679 17.5803C7.74924 17.9001 7.7839 18.2519 7.71637 18.5914C7.64885 18.9309 7.48218 19.2427 7.23744 19.4874C6.99269 19.7322 6.68087 19.8988 6.34141 19.9664C6.00194 20.0339 5.65007 19.9992 5.3303 19.8668C5.01053 19.7343 4.73722 19.51 4.54493 19.2222C4.35263 18.9345 4.25 18.5961 4.25 18.25C4.25 17.8358 3.91421 17.5 3.5 17.5C3.08578 17.5 2.75 17.8358 2.75 18.25C2.75 18.8928 2.94061 19.5211 3.29772 20.0556C3.65484 20.5901 4.16242 21.0066 4.75628 21.2526C5.35014 21.4986 6.0036 21.563 6.63404 21.4376C7.26448 21.3122 7.84358 21.0026 8.2981 20.5481C8.75262 20.0936 9.06215 19.5145 9.18755 18.884C9.31295 18.2536 9.24859 17.6001 9.00261 17.0063C8.75662 16.4124 8.34006 15.9048 7.8056 15.5477Z" fill="black"/>
<path d="M5.41639 13.0322C6.49785 12.9109 7.59029 13.1286 8.54259 13.6553C9.49489 14.182 10.26 14.9916 10.732 15.9721C11.2041 16.9526 11.3598 18.0556 11.1776 19.1285C10.9954 20.2014 10.4843 21.1911 9.71495 21.9608C8.94564 22.7305 7.95615 23.2421 6.88336 23.4249C5.81057 23.6077 4.7075 23.4525 3.72674 22.9809C2.74597 22.5094 1.93598 21.7447 1.40881 20.7927C0.881648 19.8406 0.663359 18.7483 0.784141 17.6668C0.830113 17.2551 1.20109 16.9587 1.61275 17.0046C2.0244 17.0506 2.32085 17.4216 2.27487 17.8333C2.1886 18.6058 2.34452 19.386 2.72107 20.066C3.09762 20.7461 3.67618 21.2923 4.37673 21.6291C5.07727 21.9659 5.86518 22.0767 6.63146 21.9462C7.39774 21.8157 8.10451 21.4502 8.65402 20.9004C9.20353 20.3507 9.56861 19.6437 9.69876 18.8773C9.82892 18.111 9.71771 17.3232 9.38052 16.6228C9.04334 15.9224 8.49684 15.3441 7.81662 14.9679C7.13641 14.5917 6.35609 14.4362 5.58362 14.5228C5.17199 14.569 4.80086 14.2728 4.75468 13.8611C4.7085 13.4495 5.00476 13.0784 5.41639 13.0322Z" fill="black"/>
<path d="M1.96967 14.2197C1.67678 14.5126 1.67678 14.9874 1.96967 15.2803L5.46967 18.7803C5.76256 19.0732 6.23744 19.0732 6.53033 18.7803C6.82322 18.4874 6.82322 18.0126 6.53033 17.7197L3.03033 14.2197C2.73744 13.9268 2.26256 13.9268 1.96967 14.2197Z" fill="black"/>
</g>
<defs>
<clipPath id="clip0_14528_56538">
<rect width="24" height="24" fill="white"/>
</clipPath>
</defs>
</svg>
