<svg width="24" height="24" viewBox="0 0 24 24" fill="none" xmlns="http://www.w3.org/2000/svg">
<path d="M4.75 2C3.235 2 2 3.235 2 4.75V17.25C2 17.755 2.14 18.2199 2.375 18.6299L9.59473 11.5703C10.3597 10.8253 11.5498 10.8048 12.3398 11.5098C13.4698 10.5648 14.92 10 16.5 10C17.785 10 18.99 10.3754 20 11.0254V4.75C20 3.235 18.765 2 17.25 2H4.75ZM14.25 6C15.215 6 16 6.785 16 7.75C16 8.715 15.215 9.5 14.25 9.5C13.285 9.5 12.5 8.715 12.5 7.75C12.5 6.785 13.285 6 14.25 6ZM16.5 11C13.4625 11 11 13.4625 11 16.5C11 19.5375 13.4625 22 16.5 22C19.5375 22 22 19.5375 22 16.5C22 13.4625 19.5375 11 16.5 11ZM10.9648 12.499C10.8455 12.5065 10.7273 12.5545 10.6348 12.6445L3.45508 19.6748C3.84008 19.8798 4.28 20 4.75 20H11.0254C10.3754 18.99 10 17.785 10 16.5C10 15.04 10.4847 13.6896 11.3047 12.5996C11.2047 12.5246 11.0842 12.4915 10.9648 12.499ZM16.5 12.5C16.776 12.5 17 12.724 17 13V16H20C20.276 16 20.5 16.224 20.5 16.5C20.5 16.776 20.276 17 20 17H17V20C17 20.276 16.776 20.5 16.5 20.5C16.224 20.5 16 20.276 16 20V17H13C12.724 17 12.5 16.776 12.5 16.5C12.5 16.224 12.724 16 13 16H16V13C16 12.724 16.224 12.5 16.5 12.5Z" fill="black"/>
</svg>
