<svg width="24" height="24" viewBox="0 0 24 24" fill="none" xmlns="http://www.w3.org/2000/svg">
<path fill-rule="evenodd" clip-rule="evenodd" d="M2.125 5.375C2.125 3.85622 3.35622 2.625 4.875 2.625H16.875C18.3938 2.625 19.625 3.85622 19.625 5.375V9.375C19.625 9.78921 19.2892 10.125 18.875 10.125C18.4608 10.125 18.125 9.78921 18.125 9.375V8.125H3.625V17.375C3.625 18.0654 4.18464 18.625 4.875 18.625H9.875C10.2892 18.625 10.625 18.9608 10.625 19.375C10.625 19.7892 10.2892 20.125 9.875 20.125H4.875C3.35622 20.125 2.125 18.8938 2.125 17.375V5.375ZM18.125 5.375V6.625H3.625V5.375C3.625 4.68464 4.18464 4.125 4.875 4.125H16.875C17.5654 4.125 18.125 4.68464 18.125 5.375Z" fill="black"/>
<path d="M5.875 9.625C5.46079 9.625 5.125 9.96079 5.125 10.375V13.375C5.125 13.7892 5.46079 14.125 5.875 14.125H8.875C9.28921 14.125 9.625 13.7892 9.625 13.375V10.375C9.625 9.96079 9.28921 9.625 8.875 9.625H5.875Z" fill="black"/>
<path fill-rule="evenodd" clip-rule="evenodd" d="M21.875 15.875C21.875 18.9126 19.4126 21.375 16.375 21.375C13.3374 21.375 10.875 18.9126 10.875 15.875C10.875 12.8374 13.3374 10.375 16.375 10.375C19.4126 10.375 21.875 12.8374 21.875 15.875ZM16.375 18.875C15.9608 18.875 15.625 18.5392 15.625 18.125V16.625H14.125C13.7108 16.625 13.375 16.2892 13.375 15.875C13.375 15.4608 13.7108 15.125 14.125 15.125H15.625V13.625C15.625 13.2108 15.9608 12.875 16.375 12.875C16.7892 12.875 17.125 13.2108 17.125 13.625V15.125H18.625C19.0392 15.125 19.375 15.4608 19.375 15.875C19.375 16.2892 19.0392 16.625 18.625 16.625H17.125V18.125C17.125 18.5392 16.7892 18.875 16.375 18.875Z" fill="black"/>
</svg>
