<svg width="24" height="24" viewBox="0 0 24 24" fill="none" xmlns="http://www.w3.org/2000/svg">
<path d="M12 7.25C12.4142 7.25 12.75 7.58579 12.75 8V11.25H16C16.4142 11.25 16.75 11.5858 16.75 12C16.75 12.4142 16.4142 12.75 16 12.75H12.75V16C12.75 16.4142 12.4142 16.75 12 16.75C11.5858 16.75 11.25 16.4142 11.25 16V12.75H8C7.58579 12.75 7.25 12.4142 7.25 12C7.25 11.5858 7.58579 11.25 8 11.25H11.25V8C11.25 7.58579 11.5858 7.25 12 7.25Z" fill="black"/>
<path fill-rule="evenodd" clip-rule="evenodd" d="M2 8C2 4.68629 4.68629 2 8 2H16C19.3137 2 22 4.68629 22 8V16C22 19.3137 19.3137 22 16 22H8C4.68629 22 2 19.3137 2 16V8ZM8 3.5H16C18.4853 3.5 20.5 5.51472 20.5 8V16C20.5 18.4853 18.4853 20.5 16 20.5H8C5.51472 20.5 3.5 18.4853 3.5 16V8C3.5 5.51472 5.51472 3.5 8 3.5Z" fill="black"/>
</svg>
