<svg width="24" height="24" viewBox="0 0 24 24" fill="none" xmlns="http://www.w3.org/2000/svg">
<path d="M5.73828 1.98923C5.53954 1.99233 5.35016 2.07419 5.21173 2.21683C5.0733 2.35947 4.99715 2.55122 5 2.74997V12.6533C4.48041 12.7928 4.00985 13.0165 3.68945 13.3769C3.21867 13.9066 3 14.5833 3 15.25C3 15.9166 3.21867 16.5934 3.68945 17.123C4.00985 17.4835 4.48041 17.7072 5 17.8466V21.25C4.99859 21.3494 5.01696 21.448 5.05402 21.5403C5.09108 21.6325 5.1461 21.7164 5.21588 21.7872C5.28566 21.858 5.36882 21.9142 5.46051 21.9525C5.5522 21.9909 5.65061 22.0107 5.75 22.0107C5.84939 22.0107 5.9478 21.9909 6.03949 21.9525C6.13118 21.9142 6.21434 21.858 6.28412 21.7872C6.3539 21.7164 6.40892 21.6325 6.44598 21.5403C6.48304 21.448 6.50141 21.3494 6.5 21.25V17.8466C7.01959 17.7072 7.49015 17.4835 7.81055 17.123C8.28133 16.5934 8.5 15.9166 8.5 15.25C8.5 14.5833 8.28133 13.9066 7.81055 13.3769C7.49015 13.0165 7.01959 12.7928 6.5 12.6533V2.74997C6.50144 2.64959 6.48271 2.54994 6.44493 2.45692C6.40715 2.36391 6.35108 2.27943 6.28005 2.20849C6.20901 2.13754 6.12446 2.08158 6.0314 2.04392C5.93834 2.00626 5.83866 1.98766 5.73828 1.98923ZM11.9883 1.98923C11.7895 1.99233 11.6002 2.07419 11.4617 2.21683C11.3233 2.35947 11.2471 2.55122 11.25 2.74997V5.15329C10.7304 5.29278 10.2598 5.51648 9.93945 5.87692C9.46867 6.40656 9.25 7.0833 9.25 7.74997C9.25 8.41664 9.46867 9.09338 9.93945 9.62302C10.2598 9.98346 10.7304 10.2072 11.25 10.3466V21.25C11.2486 21.3494 11.267 21.448 11.304 21.5403C11.3411 21.6325 11.3961 21.7164 11.4659 21.7872C11.5357 21.858 11.6188 21.9142 11.7105 21.9525C11.8022 21.9909 11.9006 22.0107 12 22.0107C12.0994 22.0107 12.1978 21.9909 12.2895 21.9525C12.3812 21.9142 12.4643 21.858 12.5341 21.7872C12.6039 21.7164 12.6589 21.6325 12.696 21.5403C12.733 21.448 12.7514 21.3494 12.75 21.25V10.3466C13.2696 10.2072 13.7402 9.98346 14.0605 9.62302C14.5313 9.09338 14.75 8.41664 14.75 7.74997C14.75 7.0833 14.5313 6.40656 14.0605 5.87692C13.7402 5.51648 13.2696 5.29278 12.75 5.15329V2.74997C12.7514 2.64959 12.7327 2.54994 12.6949 2.45692C12.6571 2.36391 12.6011 2.27943 12.53 2.20849C12.459 2.13754 12.3745 2.08158 12.2814 2.04392C12.1883 2.00626 12.0887 1.98766 11.9883 1.98923ZM18.2383 1.98923C18.0395 1.99233 17.8502 2.07419 17.7117 2.21683C17.5733 2.35947 17.4971 2.55122 17.5 2.74997V13.6533C16.9804 13.7928 16.5098 14.0165 16.1895 14.3769C15.7187 14.9066 15.5 15.5833 15.5 16.25C15.5 16.9166 15.7187 17.5934 16.1895 18.123C16.5098 18.4835 16.9804 18.7072 17.5 18.8466V21.25C17.4986 21.3494 17.517 21.448 17.554 21.5403C17.5911 21.6325 17.6461 21.7164 17.7159 21.7872C17.7857 21.858 17.8688 21.9142 17.9605 21.9525C18.0522 21.9909 18.1506 22.0107 18.25 22.0107C18.3494 22.0107 18.4478 21.9909 18.5395 21.9525C18.6312 21.9142 18.7143 21.858 18.7841 21.7872C18.8539 21.7164 18.9089 21.6325 18.946 21.5403C18.983 21.448 19.0014 21.3494 19 21.25V18.8466C19.5196 18.7072 19.9902 18.4835 20.3105 18.123C20.7813 17.5934 21 16.9166 21 16.25C21 15.5833 20.7813 14.9066 20.3105 14.3769C19.9902 14.0165 19.5196 13.7928 19 13.6533V2.74997C19.0014 2.64959 18.9827 2.54994 18.9449 2.45692C18.9071 2.36391 18.8511 2.27943 18.78 2.20849C18.709 2.13754 18.6245 2.08158 18.5314 2.04392C18.4383 2.00626 18.3387 1.98766 18.2383 1.98923ZM11.9531 6.50876C11.9843 6.51071 12.0157 6.51071 12.0469 6.50876C12.49 6.52057 12.7516 6.66163 12.9395 6.87302C13.1353 7.09338 13.25 7.41664 13.25 7.74997C13.25 8.0833 13.1353 8.40656 12.9395 8.62692C12.7436 8.84729 12.4792 8.99997 12 8.99997C11.5208 8.99997 11.2564 8.84729 11.0605 8.62692C10.8647 8.40656 10.75 8.0833 10.75 7.74997C10.75 7.41664 10.8647 7.09338 11.0605 6.87302C11.2484 6.66163 11.51 6.52057 11.9531 6.50876ZM5.70312 14.0088C5.73434 14.0107 5.76566 14.0107 5.79688 14.0088C6.23997 14.0206 6.50155 14.1616 6.68945 14.373C6.88533 14.5934 7 14.9166 7 15.25C7 15.5833 6.88533 15.9066 6.68945 16.1269C6.50155 16.3383 6.23997 16.4794 5.79688 16.4912C5.76566 16.4892 5.73434 16.4892 5.70312 16.4912C5.26003 16.4794 4.99845 16.3383 4.81055 16.1269C4.61467 15.9066 4.5 15.5833 4.5 15.25C4.5 14.9166 4.61467 14.5934 4.81055 14.373C4.99845 14.1616 5.26003 14.0206 5.70312 14.0088ZM18.2031 15.0088C18.2343 15.0107 18.2657 15.0107 18.2969 15.0088C18.74 15.0206 19.0016 15.1616 19.1895 15.373C19.3853 15.5934 19.5 15.9166 19.5 16.25C19.5 16.5833 19.3853 16.9066 19.1895 17.1269C19.0016 17.3383 18.74 17.4794 18.2969 17.4912C18.2657 17.4892 18.2343 17.4892 18.2031 17.4912C17.76 17.4794 17.4984 17.3383 17.3105 17.1269C17.1147 16.9066 17 16.5833 17 16.25C17 15.9166 17.1147 15.5934 17.3105 15.373C17.4984 15.1616 17.76 15.0206 18.2031 15.0088Z" fill="black"/>
</svg>
