<svg width="24" height="24" viewBox="0 0 24 24" fill="none" xmlns="http://www.w3.org/2000/svg">
<path d="M6.25 2C5.0095 2 4 3.0095 4 4.25V11.0254C3.43494 11.1438 3 11.6538 3 12.25V17.75C3 18.3462 3.43494 18.8562 4 18.9746V19.75C4 20.9905 5.0095 22 6.25 22H17.75C18.9905 22 20 20.9905 20 19.75V18.9746C20.5651 18.8562 21 18.3462 21 17.75V12.25C21 11.6538 20.5651 11.1438 20 11.0254V10H14.25C13.0095 10 12 8.9905 12 7.75V2H6.25ZM13.5 2.43945V7.75C13.5 8.1635 13.8365 8.5 14.25 8.5H19.5605L13.5 2.43945ZM4.5 12.5H19.5V17.5H4.5V12.5ZM11.25 13C11.048 13 10.8656 13.1216 10.7881 13.3076L9.53809 16.3076C9.43209 16.5626 9.55262 16.8554 9.80762 16.9619C10.0626 17.0679 10.3559 16.9469 10.4619 16.6924L10.541 16.5H11.959L12.0381 16.6924C12.1181 16.8844 12.3045 17 12.5 17C12.564 17 12.6294 16.9874 12.6924 16.9609C12.9474 16.8549 13.0669 16.5616 12.9609 16.3066L11.7119 13.3076C11.6339 13.1216 11.452 13 11.25 13ZM14 13C13.724 13 13.5 13.224 13.5 13.5V16.5C13.5 16.776 13.724 17 14 17C14.276 17 14.5 16.776 14.5 16.5V13.5C14.5 13.224 14.276 13 14 13ZM11.25 14.7998L11.541 15.5H10.959L11.25 14.7998Z" fill="black"/>
</svg>
