<svg width="24" height="24" viewBox="0 0 24 24" fill="none" xmlns="http://www.w3.org/2000/svg">
<path fill-rule="evenodd" clip-rule="evenodd" d="M3.75 3C3.33579 3 3 3.33579 3 3.75V7.75C3 8.16421 3.33579 8.5 3.75 8.5C4.16421 8.5 4.5 8.16421 4.5 7.75V5.55997L6.55102 7.611C6.86552 7.221 7.22101 6.8655 7.61101 6.55051L10.28 9.21948C10.573 9.51198 10.573 9.98748 10.28 10.28C10.134 10.427 9.94198 10.5 9.74998 10.5C9.55798 10.5 9.36598 10.427 9.21948 10.2805L6.55048 7.61148C5.58248 8.81198 4.99998 10.3375 4.99998 12C4.99998 13.6625 5.58248 15.188 6.55048 16.389L9.21948 13.72C9.51248 13.427 9.98698 13.427 10.28 13.72C10.573 14.0125 10.573 14.488 10.28 14.7805L7.61119 17.4493C7.22081 17.1343 6.86541 16.7789 6.5505 16.389L4.5 18.4395V16.25C4.5 15.8358 4.16421 15.5 3.75 15.5C3.33579 15.5 3 15.8358 3 16.25V20.25C3 20.6642 3.33579 21 3.75 21H7.75C8.16421 21 8.5 20.6642 8.5 20.25C8.5 19.8358 8.16421 19.5 7.75 19.5H5.56104L7.61129 17.4497C8.81224 18.4176 10.3376 19 12 19C13.6625 19 15.188 18.4175 16.389 17.4495L13.72 14.7805C13.427 14.4875 13.427 14.0125 13.7195 13.7195C14.0125 13.4265 14.487 13.4265 14.78 13.7195L17.449 16.3885C18.4175 15.188 19 13.6625 19 12C19 10.3375 18.4175 8.81198 17.4495 7.61098L14.7805 10.28C14.634 10.427 14.442 10.5 14.25 10.5C14.058 10.5 13.866 10.427 13.7195 10.2805C13.4265 9.98798 13.4265 9.51248 13.7195 9.21998L16.3885 6.55098C15.188 5.58248 13.6625 4.99998 12 4.99998C10.3375 4.99998 8.81199 5.58248 7.611 6.55047L5.56085 4.5H7.75C8.16421 4.5 8.5 4.16421 8.5 3.75C8.5 3.33579 8.16421 3 7.75 3H3.75ZM15.5 3.75C15.5 3.33579 15.8358 3 16.25 3H20.25C20.6642 3 21 3.33579 21 3.75V7.75C21 8.16421 20.6642 8.5 20.25 8.5C19.8358 8.5 19.5 8.16421 19.5 7.75V5.56054L17.4495 7.611C17.1345 7.221 16.779 6.8655 16.389 6.5505L18.4395 4.5H16.25C15.8358 4.5 15.5 4.16421 15.5 3.75ZM20.25 15.5C20.6642 15.5 21 15.8358 21 16.25V20.25C21 20.6642 20.6642 21 20.25 21H16.25C15.8358 21 15.5 20.6642 15.5 20.25C15.5 19.8358 15.8358 19.5 16.25 19.5H18.4395L16.389 17.4495C16.7795 17.135 17.1345 16.7795 17.4495 16.389L19.5 18.4392V16.25C19.5 15.8358 19.8358 15.5 20.25 15.5Z" fill="black"/>
</svg>
