<svg width="24" height="24" viewBox="0 0 24 24" fill="none" xmlns="http://www.w3.org/2000/svg">
<path fill-rule="evenodd" clip-rule="evenodd" d="M8.35352 16.7565C8.51568 16.9186 8.71941 17 8.9498 17C9.17877 17 9.3814 16.9196 9.54308 16.7595C9.71411 16.5992 9.80318 16.3948 9.80318 16.1602V13.4845H12.0445C12.9276 13.4845 13.6695 13.3361 14.2561 13.0232C14.8313 12.7165 15.2582 12.3151 15.5188 11.8138C15.7716 11.3278 15.8976 10.8028 15.8976 10.2423C15.8976 9.68177 15.7716 9.15675 15.5188 8.6707C15.2582 8.16938 14.8313 7.76804 14.2561 7.46129C13.6695 7.14841 12.9276 7 12.0445 7H8.9498C8.7152 7 8.51079 7.08908 8.35052 7.26011C8.19036 7.42178 8.10999 7.6244 8.10999 7.85338V16.1602C8.10999 16.3906 8.19136 16.5943 8.35352 16.7565ZM14.2044 10.2423C14.2044 10.7043 14.0403 11.0821 13.7075 11.3911L13.7055 11.3929C13.4003 11.6833 12.8293 11.8592 11.9223 11.8592H9.80318V8.62531H11.9223C12.8293 8.62531 13.4003 8.80128 13.7055 9.0916L13.7075 9.09348C14.0403 9.40246 14.2044 9.78025 14.2044 10.2423Z" fill="black"/>
<path fill-rule="evenodd" clip-rule="evenodd" d="M6 2C3.79086 2 2 3.79086 2 6V18C2 20.2091 3.79086 22 6 22H18C20.2091 22 22 20.2091 22 18V6C22 3.79086 20.2091 2 18 2H6ZM18 3.5H6C4.61929 3.5 3.5 4.61929 3.5 6V18C3.5 19.3807 4.61929 20.5 6 20.5H18C19.3807 20.5 20.5 19.3807 20.5 18V6C20.5 4.61929 19.3807 3.5 18 3.5Z" fill="black"/>
</svg>
