<svg width="24" height="24" viewBox="0 0 24 24" fill="none" xmlns="http://www.w3.org/2000/svg">
<path fill-rule="evenodd" clip-rule="evenodd" d="M9.73315 13.2402V16.1602C9.73315 16.3948 9.64408 16.5992 9.47304 16.7595C9.31137 16.9196 9.10874 17 8.87977 17C8.64937 17 8.44567 16.9186 8.28351 16.7565C8.12135 16.5943 8.03998 16.3906 8.03998 16.1602V7.85338C8.03998 7.6244 8.12035 7.42178 8.28051 7.26011C8.44077 7.08908 8.64517 7 8.87977 7H12.0423C13.2986 7 14.2834 7.25774 14.9568 7.81233C15.627 8.3642 15.9633 9.09511 15.9633 9.98437C15.9633 10.5734 15.7955 11.1158 15.4625 11.6057C15.2307 11.9498 14.924 12.2241 14.5479 12.4307C14.99 12.6754 15.3097 13.0618 15.5007 13.5821C15.7536 14.2385 15.8818 14.8902 15.8818 15.5358V16.1602C15.8818 16.3906 15.8004 16.5943 15.6383 16.7565C15.4761 16.9186 15.2724 17 15.042 17C14.8058 17 14.5928 16.9311 14.4252 16.7764L14.4185 16.7702L14.4123 16.7634C14.2595 16.5979 14.1886 16.3906 14.1886 16.1602V15.753C14.1886 15.3141 14.1491 14.9142 14.0716 14.5522L14.0713 14.5512C14 14.2103 13.8299 13.9064 13.5523 13.637L13.5499 13.6346C13.3009 13.3856 12.904 13.2402 12.3138 13.2402H9.73315ZM13.6798 11.1919C14.0767 10.9273 14.2701 10.5649 14.2701 10.0794C14.2701 9.60099 14.0993 9.25743 13.7672 9.01586L13.7651 9.01438C13.4386 8.77141 12.8338 8.62531 11.893 8.62531H9.73315V11.6149H11.9609C12.7118 11.6149 13.2765 11.4661 13.6781 11.193L13.6798 11.1919Z" fill="black"/>
<path fill-rule="evenodd" clip-rule="evenodd" d="M2 6C2 3.79086 3.79086 2 6 2H18C20.2091 2 22 3.79086 22 6V18C22 20.2091 20.2091 22 18 22H6C3.79086 22 2 20.2091 2 18V6ZM6 3.5H18C19.3807 3.5 20.5 4.61929 20.5 6V18C20.5 19.3807 19.3807 20.5 18 20.5H6C4.61929 20.5 3.5 19.3807 3.5 18V6C3.5 4.61929 4.61929 3.5 6 3.5Z" fill="black"/>
</svg>
