<svg width="24" height="24" viewBox="0 0 24 24" fill="none" xmlns="http://www.w3.org/2000/svg">
<path d="M8.77877 16.7575C8.94022 16.919 9.14299 17 9.37247 17C9.60054 17 9.80224 16.92 9.9632 16.7605C10.1335 16.6009 10.2222 16.3975 10.2222 16.1638V12.7614H14.1816C14.3987 12.7614 14.5919 12.6872 14.745 12.5357C14.9075 12.3841 14.9906 12.1891 14.9906 11.966C14.9906 11.7445 14.9087 11.5506 14.7482 11.3994C14.597 11.239 14.4031 11.1571 14.1816 11.1571H10.2222V8.60438H14.6571C14.8742 8.60438 15.0673 8.53014 15.2204 8.37868C15.383 8.22704 15.4661 8.03201 15.4661 7.80898C15.4661 7.58746 15.3841 7.39357 15.2237 7.24236C15.0725 7.08195 14.8786 7 14.6571 7H9.37247C9.13886 7 8.93541 7.08866 8.77583 7.259C8.61633 7.41996 8.53632 7.62166 8.53632 7.84974V16.1638C8.53632 16.3933 8.61732 16.5961 8.77877 16.7575Z" fill="black"/>
<path fill-rule="evenodd" clip-rule="evenodd" d="M2 6C2 3.79086 3.79086 2 6 2H18C20.2091 2 22 3.79086 22 6V18C22 20.2091 20.2091 22 18 22H6C3.79086 22 2 20.2091 2 18V6ZM6 3.5H18C19.3807 3.5 20.5 4.61929 20.5 6V18C20.5 19.3807 19.3807 20.5 18 20.5H6C4.61929 20.5 3.5 19.3807 3.5 18V6C3.5 4.61929 4.61929 3.5 6 3.5Z" fill="black"/>
</svg>
