<svg width="24" height="24" viewBox="0 0 24 24" fill="none" xmlns="http://www.w3.org/2000/svg">
<path d="M13.7242 13.9799C13.2427 14.2737 12.6697 14.4248 11.9962 14.4248C11.3137 14.4248 10.7366 14.2736 10.2557 13.9804C9.77881 13.6842 9.41361 13.2824 9.15773 12.7706C8.90086 12.2569 8.76993 11.6725 8.76993 11.0125C8.76993 10.3525 8.90086 9.76804 9.15773 9.25432C9.41361 8.74257 9.77879 8.34075 10.2557 8.04455C10.7366 7.75135 11.3137 7.6001 11.9962 7.6001C12.6697 7.6001 13.2427 7.75124 13.7242 8.04501C14.2101 8.34151 14.5792 8.74333 14.8347 9.25432C15.0916 9.76804 15.2225 10.3525 15.2225 11.0125C15.2225 11.6725 15.0916 12.2569 14.8347 12.7706C14.5792 13.2816 14.2101 13.6834 13.7242 13.9799Z" fill="black"/>
<path fill-rule="evenodd" clip-rule="evenodd" d="M2 6C2 3.79086 3.79086 2 6 2H18C20.2091 2 22 3.79086 22 6V18C22 20.2091 20.2091 22 18 22H6C3.79086 22 2 20.2091 2 18V6ZM7.79488 8.48339C7.40096 9.22543 7.19795 10.0721 7.17993 11.0178V11.0266C7.19795 11.9723 7.40096 12.819 7.79488 13.5611C8.18959 14.3046 8.75134 14.8894 9.47687 15.3119C10.2053 15.7361 11.0481 15.9444 11.9975 15.9444C12.2536 15.9444 12.4839 15.9324 12.687 15.9076L14.0284 17.5073C14.181 17.6944 14.3835 17.8001 14.6243 17.8001C14.8437 17.8001 15.037 17.7181 15.1924 17.5627C15.3465 17.4086 15.4276 17.2176 15.4167 17.0009C15.4151 16.7965 15.3402 16.6154 15.1967 16.4699L14.2621 15.4397C15.0032 15.0708 15.5958 14.5312 16.0353 13.8231C16.5393 13.0167 16.7972 12.0818 16.8152 11.0262L16.8151 11.0178C16.797 10.0802 16.5894 9.23778 16.1868 8.49601C15.7924 7.74462 15.2311 7.15546 14.5056 6.73288C13.7853 6.30827 12.9466 6.1001 11.9975 6.1001C11.0481 6.1001 10.2053 6.3084 9.47687 6.73256C8.75134 7.15502 8.18959 7.73987 7.79488 8.48339Z" fill="black"/>
</svg>
