<svg width="24" height="24" viewBox="0 0 24 24" fill="none" xmlns="http://www.w3.org/2000/svg">
<path fill-rule="evenodd" clip-rule="evenodd" d="M7.42 16.1682C7.42 16.391 7.49225 16.5906 7.64149 16.7523L7.64772 16.7588C7.8107 16.9218 8.01813 17 8.25184 17C8.4172 17 8.57212 16.9581 8.70979 16.8705L8.71377 16.8678C8.85596 16.773 8.96466 16.6466 9.03615 16.4918L9.85856 14.518H14.1451L14.9642 16.484L14.9677 16.4917C15.0369 16.6416 15.1373 16.7668 15.2689 16.8626L15.2781 16.8692L15.2879 16.875C15.4304 16.9581 15.5865 17 15.7519 17C15.9839 17 16.1898 16.9226 16.3456 16.7556C16.5042 16.5955 16.5837 16.3949 16.5837 16.1682C16.5837 16.0537 16.5491 15.9322 16.499 15.8119L13.0587 7.69017L13.0571 7.68657C12.9714 7.4937 12.8461 7.3332 12.6811 7.21037C12.51 7.06659 12.3009 7 12.0693 7H11.9344C11.6999 7 11.4875 7.0681 11.3091 7.21052C11.1518 7.33433 11.0316 7.49514 10.9466 7.68655L7.50525 15.8107L7.50474 15.8119C7.45462 15.9322 7.42 16.0537 7.42 16.1682ZM12.0019 9.37564L13.4861 12.9487H10.5176L12.0019 9.37564Z" fill="black"/>
<path fill-rule="evenodd" clip-rule="evenodd" d="M2 6C2 3.79086 3.79086 2 6 2H18C20.2091 2 22 3.79086 22 6V18C22 20.2091 20.2091 22 18 22H6C3.79086 22 2 20.2091 2 18V6ZM6 3.5H18C19.3807 3.5 20.5 4.61929 20.5 6V18C20.5 19.3807 19.3807 20.5 18 20.5H6C4.61929 20.5 3.5 19.3807 3.5 18V6C3.5 4.61929 4.61929 3.5 6 3.5Z" fill="black"/>
</svg>
