<svg width="24" height="24" viewBox="0 0 24 24" fill="none" xmlns="http://www.w3.org/2000/svg">
<path fill-rule="evenodd" clip-rule="evenodd" d="M2 6C2 3.79086 3.79086 2 6 2H18C20.2091 2 22 3.79086 22 6V18C22 20.2091 20.2091 22 18 22H6C3.79086 22 2 20.2091 2 18V6ZM9.66451 16.4012L9.66154 16.3997C8.92391 15.9888 8.3404 15.4045 7.9128 14.6516L7.9112 14.6487C7.49117 13.8833 7.28491 12.9981 7.28491 12C7.28491 11.002 7.49159 10.1199 7.91222 9.36275C8.33976 8.6006 8.9238 8.01533 9.66304 7.61285C10.4086 7.20288 11.2444 7 12.1652 7C12.7851 7 13.344 7.07286 13.8391 7.22225C14.3348 7.36919 14.8242 7.5798 15.3072 7.85305C15.4349 7.92306 15.54 8.01883 15.6119 8.14303C15.6839 8.26733 15.7153 8.40745 15.7153 8.55495C15.7153 8.74922 15.6419 8.92198 15.5099 9.06601L15.5032 9.07306C15.3568 9.21943 15.1676 9.28522 14.9584 9.28522C14.839 9.28522 14.7242 9.26113 14.6185 9.20829L14.6149 9.20644C14.2364 9.00861 13.8693 8.85952 13.5134 8.75782C13.1654 8.65841 12.7569 8.60686 12.2849 8.60686C11.5539 8.60686 10.9434 8.75967 10.4439 9.0545L10.4429 9.05508C9.94871 9.34335 9.5759 9.7407 9.3206 10.251C9.07207 10.7566 8.94497 11.3379 8.94497 12C8.94497 12.6614 9.07183 13.2473 9.3206 13.7623C9.57555 14.2631 9.9483 14.661 10.4434 14.9585C10.9431 15.2447 11.5538 15.3931 12.2849 15.3931C12.7569 15.3931 13.1654 15.3416 13.5134 15.2422C13.8693 15.1405 14.2364 14.9914 14.6149 14.7936L14.6185 14.7917C14.7242 14.7389 14.839 14.7148 14.9584 14.7148C15.1676 14.7148 15.3568 14.7806 15.5032 14.9269C15.6442 15.068 15.7153 15.2454 15.7153 15.445C15.7153 15.5926 15.6839 15.7327 15.6119 15.857C15.54 15.9812 15.4349 16.077 15.3071 16.147C14.8242 16.4202 14.3348 16.6308 13.839 16.7778C13.344 16.9271 12.7851 17 12.1652 17C11.2451 17 10.4098 16.8019 9.66451 16.4012Z" fill="black"/>
</svg>
