<svg width="24" height="24" viewBox="0 0 24 24" fill="none" xmlns="http://www.w3.org/2000/svg">
<path fill-rule="evenodd" clip-rule="evenodd" d="M6 2C3.79086 2 2 3.79086 2 6V18C2 20.2091 3.79086 22 6 22H18C20.2091 22 22 20.2091 22 18V6C22 3.79086 20.2091 2 18 2H6ZM10.0094 16.3726L10.0076 16.3715C9.2621 15.9428 8.68263 15.3494 8.27255 14.5945L8.27199 14.5934C7.86228 13.8299 7.66003 12.968 7.66003 12.0133C7.66003 11.04 7.87155 10.1677 8.30064 9.40279C8.72782 8.64129 9.31088 8.04806 10.0482 7.62805L10.0493 7.62744C10.7943 7.20837 11.6174 7 12.5138 7C13.2225 7 13.8499 7.08619 14.392 7.2637C14.9302 7.43707 15.4451 7.67829 15.9366 7.98679C16.0511 8.04723 16.1387 8.14291 16.2054 8.2541C16.2805 8.37934 16.3178 8.51772 16.3178 8.66429C16.3178 8.87389 16.2418 9.05938 16.0947 9.20815C15.9469 9.3672 15.7497 9.43818 15.5306 9.43818C15.397 9.43818 15.269 9.40748 15.1491 9.34755L15.1416 9.34378L15.1343 9.33946C14.7323 9.09998 14.3332 8.92208 13.9369 8.80403C13.5441 8.68703 13.1145 8.62751 12.6467 8.62751C12.0066 8.62751 11.4368 8.76199 10.9325 9.02657C10.4326 9.28879 10.0391 9.67305 9.74997 10.1851C9.47166 10.6846 9.32741 11.2911 9.32741 12.0133C9.32741 12.6713 9.46197 13.2541 9.72616 13.7668C9.9979 14.2683 10.3836 14.6668 10.8874 14.9646C11.3962 15.2514 12.0022 15.3991 12.7132 15.3991C13.4624 15.3991 14.1603 15.2343 14.8099 14.9049V12.8669H12.8461C12.6349 12.8669 12.4481 12.7897 12.2988 12.6404C12.1494 12.491 12.0722 12.3043 12.0722 12.093C12.0722 11.8818 12.1494 11.695 12.2988 11.5457C12.4481 11.3963 12.6349 11.3191 12.8461 11.3191H15.4642C15.7014 11.3191 15.9105 11.4048 16.0779 11.5723C16.2454 11.7397 16.3311 11.9488 16.3311 12.1861V15.2028C16.3311 15.4307 16.2708 15.642 16.1491 15.8307C16.0379 16.0081 15.886 16.1433 15.6971 16.2328C14.6761 16.7429 13.6275 17 12.5537 17C11.6067 17 10.7565 16.7928 10.0094 16.3726Z" fill="black"/>
</svg>
