<svg width="24" height="24" viewBox="0 0 24 24" fill="none" xmlns="http://www.w3.org/2000/svg">
<path fill-rule="evenodd" clip-rule="evenodd" d="M2 6C2 3.79086 3.79086 2 6 2H18C20.2091 2 22 3.79086 22 6V18C22 20.2091 20.2091 22 18 22H6C3.79086 22 2 20.2091 2 18V6ZM11.9954 17C11.7662 17 11.5635 16.919 11.4022 16.7577C11.2409 16.5964 11.1599 16.3937 11.1599 16.1645V7.84897C11.1599 7.62121 11.2399 7.41961 11.3992 7.25877C11.5586 7.08863 11.762 7 11.9954 7C12.2274 7 12.4297 7.08756 12.5887 7.25567C12.7568 7.41467 12.8444 7.617 12.8444 7.84897V16.1645C12.8444 16.3979 12.7557 16.6013 12.5856 16.7607C12.4247 16.9201 12.2231 17 11.9954 17Z" fill="black"/>
</svg>
