<svg width="24" height="24" viewBox="0 0 24 24" fill="none" xmlns="http://www.w3.org/2000/svg">
<path d="M10.0075 16.3715L10.0094 16.3726C10.7565 16.7928 11.6067 17 12.5537 17C13.6275 17 14.676 16.7429 15.6971 16.2328C15.886 16.1433 16.0379 16.0081 16.1491 15.8307C16.2708 15.642 16.331 15.4307 16.331 15.2028V12.1861C16.331 11.9488 16.2454 11.7397 16.0779 11.5723C15.9104 11.4048 15.7014 11.3191 15.4641 11.3191H12.8461C12.6348 11.3191 12.4481 11.3963 12.2987 11.5457C12.1494 11.695 12.0722 11.8818 12.0722 12.093C12.0722 12.3043 12.1494 12.491 12.2987 12.6404C12.4481 12.7897 12.6348 12.8669 12.8461 12.8669H14.8099V14.9049C14.1602 15.2343 13.4624 15.3991 12.7132 15.3991C12.0022 15.3991 11.3962 15.2514 10.8874 14.9646C10.3835 14.6668 9.99787 14.2683 9.72613 13.7668C9.46194 13.2541 9.32738 12.6713 9.32738 12.0133C9.32738 11.2911 9.47163 10.6846 9.74994 10.1851C10.0391 9.67305 10.4326 9.28879 10.9324 9.02657C11.4368 8.76199 12.0065 8.62751 12.6467 8.62751C13.1145 8.62751 13.5441 8.68703 13.9369 8.80403C14.3332 8.92208 14.7323 9.09998 15.1343 9.33946L15.1415 9.34378L15.1491 9.34755C15.2689 9.40748 15.397 9.43818 15.5306 9.43818C15.7497 9.43818 15.9468 9.3672 16.0947 9.20815C16.2417 9.05938 16.3177 8.87389 16.3177 8.66429C16.3177 8.51772 16.2805 8.37934 16.2054 8.2541C16.1387 8.14291 16.0511 8.04723 15.9366 7.98679C15.4451 7.67829 14.9302 7.43707 14.392 7.2637C13.8498 7.08619 13.2225 7 12.5138 7C11.6174 7 10.7943 7.20837 10.0493 7.62744L10.0482 7.62805C9.31085 8.04806 8.72779 8.64129 8.30061 9.40279C7.87152 10.1677 7.66 11.04 7.66 12.0133C7.66 12.968 7.86225 13.8299 8.27196 14.5934L8.27252 14.5945C8.68259 15.3494 9.26207 15.9428 10.0075 16.3715Z" fill="black"/>
<path fill-rule="evenodd" clip-rule="evenodd" d="M2 6C2 3.79086 3.79086 2 6 2H18C20.2091 2 22 3.79086 22 6V18C22 20.2091 20.2091 22 18 22H6C3.79086 22 2 20.2091 2 18V6ZM6 3.5H18C19.3807 3.5 20.5 4.61929 20.5 6V18C20.5 19.3807 19.3807 20.5 18 20.5H6C4.61929 20.5 3.5 19.3807 3.5 18V6C3.5 4.61929 4.61929 3.5 6 3.5Z" fill="black"/>
</svg>
