<svg width="24" height="24" viewBox="0 0 24 24" fill="none" xmlns="http://www.w3.org/2000/svg">
<path fill-rule="evenodd" clip-rule="evenodd" d="M6 2C3.79086 2 2 3.79086 2 6V18C2 20.2091 3.79086 22 6 22H18C20.2091 22 22 20.2091 22 18V6C22 3.79086 20.2091 2 18 2H6ZM9.27314 17C9.04176 17 8.83725 16.9183 8.67444 16.7555C8.51162 16.5927 8.42993 16.3882 8.42993 16.1568V7.85688C8.42993 7.62692 8.51062 7.4235 8.67145 7.26118C8.83238 7.08942 9.03758 7 9.27314 7H14.7563C14.9797 7 15.1753 7.08264 15.3278 7.24441C15.4895 7.3969 15.5722 7.59247 15.5722 7.81586C15.5722 8.04078 15.4884 8.2375 15.3244 8.39044C15.17 8.54319 14.9752 8.61805 14.7563 8.61805H10.13V11.1841H14.264C14.4874 11.1841 14.683 11.2668 14.8355 11.4285C14.9973 11.581 15.0799 11.7766 15.0799 12C15.0799 12.2249 14.9961 12.4216 14.8322 12.5746C14.6778 12.7273 14.483 12.8022 14.264 12.8022H10.13V15.3819H14.7563C14.9797 15.3819 15.1753 15.4646 15.3278 15.6264C15.4895 15.7788 15.5722 15.9744 15.5722 16.1978C15.5722 16.4227 15.4884 16.6195 15.3244 16.7724C15.17 16.9251 14.9752 17 14.7563 17H9.27314Z" fill="black"/>
</svg>
