<svg width="24" height="24" viewBox="0 0 24 24" fill="none" xmlns="http://www.w3.org/2000/svg">
<path d="M12.0248 8.62C12.6064 8.62 13.0308 8.74186 13.3243 8.95813L13.3266 8.9598C13.6237 9.17306 13.7643 9.44634 13.7643 9.79905C13.7643 10.2348 13.6222 10.5484 13.3546 10.7714C13.0912 10.9909 12.5918 11.1285 11.7924 11.1285H9.75208V8.62H12.0248Z" fill="black"/>
<path d="M14.2838 14.0369C14.2838 14.4721 14.1264 14.7878 13.8171 15.0141L13.8149 15.0157C13.5129 15.2422 12.9535 15.38 12.0795 15.38H9.75208V12.7075H12.0931C12.8825 12.7075 13.435 12.8359 13.7839 13.0606C14.1155 13.2742 14.2838 13.5876 14.2838 14.0369Z" fill="black"/>
<path fill-rule="evenodd" clip-rule="evenodd" d="M2 6C2 3.79086 3.79086 2 6 2H18C20.2091 2 22 3.79086 22 6V18C22 20.2091 20.2091 22 18 22H6C3.79086 22 2 20.2091 2 18V6ZM8.29484 16.7552C8.45785 16.9182 8.66261 17 8.89423 17H12.2025C13.4363 17 14.3898 16.7603 15.0154 16.2356C15.6398 15.7119 15.9448 14.9874 15.9448 14.0916C15.9448 13.4583 15.7503 12.9178 15.3515 12.4878C15.0803 12.1883 14.7539 11.9498 14.3755 11.7712C14.6111 11.6065 14.815 11.4034 14.9863 11.1625C15.2746 10.7607 15.4117 10.2695 15.4117 9.70336C15.4117 8.88554 15.1175 8.21723 14.5232 7.7233C13.9392 7.23034 13.1274 7 12.1205 7H8.89423C8.6584 7 8.45295 7.08953 8.29185 7.26147C8.13084 7.42398 8.05005 7.62765 8.05005 7.85785V16.1558C8.05005 16.3874 8.13184 16.5922 8.29484 16.7552Z" fill="black"/>
</svg>
