<svg width="24" height="24" viewBox="0 0 24 24" fill="none" xmlns="http://www.w3.org/2000/svg">
<path fill-rule="evenodd" clip-rule="evenodd" d="M6 2C3.79086 2 2 3.79086 2 6V18C2 20.2091 3.79086 22 6 22H18C20.2091 22 22 20.2091 22 18V6C22 3.79086 20.2091 2 18 2H6ZM18 3.5H6C4.61929 3.5 3.5 4.61929 3.5 6V18C3.5 19.3807 4.61929 20.5 6 20.5H18C19.3807 20.5 20.5 19.3807 20.5 18V6C20.5 4.61929 19.3807 3.5 18 3.5ZM7.82001 7.81266C7.82001 8.03218 7.89561 8.22744 8.04996 8.38179C8.2043 8.53613 8.39956 8.61174 8.61909 8.61174H11.159V16.1602C11.159 16.3906 11.2404 16.5943 11.4026 16.7565C11.5647 16.9186 11.7684 17 11.9988 17C12.2278 17 12.4304 16.9196 12.5921 16.7595C12.7631 16.5992 12.8522 16.3948 12.8522 16.1602V8.61174H15.3786C15.5966 8.61174 15.7906 8.53719 15.9444 8.38503C16.1078 8.23267 16.1912 8.03665 16.1912 7.81266C16.1912 7.5902 16.1089 7.39534 15.9478 7.24343C15.7959 7.08232 15.601 7 15.3786 7H8.61909C8.39509 7 8.19907 7.08347 8.04672 7.24678C7.89456 7.40061 7.82001 7.59467 7.82001 7.81266Z" fill="black"/>
</svg>
