<svg width="24" height="24" viewBox="0 0 24 24" fill="none" xmlns="http://www.w3.org/2000/svg">
<path fill-rule="evenodd" clip-rule="evenodd" d="M2 6C2 3.79086 3.79086 2 6 2H18C20.2091 2 22 3.79086 22 6V18C22 20.2091 20.2091 22 18 22H6C3.79086 22 2 20.2091 2 18V6ZM10.8066 16.2383L7.47484 8.15853C7.43774 8.05961 7.41992 7.95583 7.41992 7.84897C7.41992 7.6164 7.48734 7.40562 7.6455 7.24554C7.80445 7.07536 8.01738 7 8.25543 7C8.43119 7 8.59146 7.05682 8.72862 7.16598C8.87087 7.26338 8.97655 7.39585 9.04544 7.55659L9.04756 7.56154L12.0022 14.9293L14.9588 7.55657C15.0268 7.39804 15.1271 7.26493 15.2625 7.16608C15.4066 7.0584 15.5705 7 15.7489 7C15.987 7 16.1999 7.07536 16.3588 7.24553C16.517 7.40563 16.5844 7.61641 16.5844 7.84897C16.5844 7.9558 16.5665 8.05954 16.5294 8.15849L16.5268 8.16543L13.1945 16.2462C13.0889 16.4775 12.9506 16.6675 12.7721 16.7999C12.5908 16.9344 12.3805 17 12.1504 17H11.8539C11.6238 17 11.4135 16.9344 11.2323 16.7999C11.0538 16.6675 10.9156 16.4774 10.81 16.2461L10.8066 16.2383Z" fill="black"/>
</svg>
