<svg width="24" height="24" viewBox="0 0 24 24" fill="none" xmlns="http://www.w3.org/2000/svg">
<path d="M8.23227 16.7577C8.3936 16.9191 8.59631 17 8.82548 17C9.05323 17 9.25484 16.9201 9.41567 16.7607C9.58582 16.6013 9.67446 16.3979 9.67446 16.1645V12.8085H14.3244V16.1645C14.3244 16.3937 14.4053 16.5964 14.5667 16.7577C14.728 16.9191 14.9307 17 15.1599 17C15.3876 17 15.5892 16.9201 15.7501 16.7607C15.9202 16.6013 16.0088 16.3979 16.0088 16.1645V7.84897C16.0088 7.617 15.9213 7.41466 15.7532 7.25567C15.5942 7.08756 15.3918 7 15.1599 7C14.9265 7 14.7231 7.08863 14.5637 7.25877C14.4043 7.41961 14.3244 7.62121 14.3244 7.84897V11.2049H9.67446V7.84897C9.67446 7.617 9.5869 7.41467 9.41878 7.25567C9.25978 7.08755 9.05745 7 8.82548 7C8.5921 7 8.38871 7.08863 8.22927 7.25877C8.06993 7.41961 7.98999 7.62121 7.98999 7.84897V16.1645C7.98999 16.3937 8.07094 16.5964 8.23227 16.7577Z" fill="black"/>
<path fill-rule="evenodd" clip-rule="evenodd" d="M2 6C2 3.79086 3.79086 2 6 2H18C20.2091 2 22 3.79086 22 6V18C22 20.2091 20.2091 22 18 22H6C3.79086 22 2 20.2091 2 18V6ZM6 3.5H18C19.3807 3.5 20.5 4.61929 20.5 6V18C20.5 19.3807 19.3807 20.5 18 20.5H6C4.61929 20.5 3.5 19.3807 3.5 18V6C3.5 4.61929 4.61929 3.5 6 3.5Z" fill="black"/>
</svg>
