<svg width="24" height="24" viewBox="0 0 24 24" fill="none" xmlns="http://www.w3.org/2000/svg">
<path d="M8.75 2.5C6.1265 2.5 4 4.6265 4 7.25V16.9297C4 17.5982 4.33413 18.2227 4.89063 18.5937L5.5 19V7.25C5.5 5.455 6.955 4 8.75 4H17.5L17.0938 3.39062C16.7233 2.83412 16.0987 2.5 15.4297 2.5H8.75ZM9.25 5C7.74011 5 6.5 6.24011 6.5 7.75V18.75C6.5 20.2599 7.74011 21.5 9.25 21.5H17.25C18.7599 21.5 20 20.2599 20 18.75V7.75C20 6.24011 18.7599 5 17.25 5H9.25ZM9.25 6.5H17.25C17.9491 6.5 18.5 7.05089 18.5 7.75V18.75C18.5 19.4491 17.9491 20 17.25 20H9.25C8.55089 20 8 19.4491 8 18.75V7.75C8 7.05089 8.55089 6.5 9.25 6.5ZM13.2383 7.98926C13.0395 7.99236 12.8502 8.07422 12.7117 8.21686C12.5733 8.3595 12.4972 8.55125 12.5 8.75V14.25C12.4986 14.3494 12.517 14.4481 12.554 14.5403C12.5911 14.6325 12.6461 14.7164 12.7159 14.7872C12.7857 14.858 12.8688 14.9142 12.9605 14.9526C13.0522 14.9909 13.1506 15.0107 13.25 15.0107C13.3494 15.0107 13.4478 14.9909 13.5395 14.9526C13.6312 14.9142 13.7143 14.858 13.7841 14.7872C13.8539 14.7164 13.9089 14.6325 13.946 14.5403C13.983 14.4481 14.0014 14.3494 14 14.25V8.75C14.0014 8.64962 13.9827 8.54996 13.9449 8.45695C13.9071 8.36394 13.8511 8.27946 13.78 8.20852C13.709 8.13757 13.6245 8.08161 13.5314 8.04395C13.4383 8.00629 13.3387 7.98769 13.2383 7.98926ZM13.25 16.5C12.9848 16.5 12.7304 16.6054 12.5429 16.7929C12.3554 16.9804 12.25 17.2348 12.25 17.5C12.25 17.7652 12.3554 18.0196 12.5429 18.2071C12.7304 18.3946 12.9848 18.5 13.25 18.5C13.5152 18.5 13.7696 18.3946 13.9571 18.2071C14.1446 18.0196 14.25 17.7652 14.25 17.5C14.25 17.2348 14.1446 16.9804 13.9571 16.7929C13.7696 16.6054 13.5152 16.5 13.25 16.5Z" fill="black"/>
</svg>
