<svg width="24" height="24" viewBox="0 0 24 24" fill="none" xmlns="http://www.w3.org/2000/svg">
<g clip-path="url(#clip0_3910_2231)">
<path d="M16.3713 22C15.4823 22 14.8708 21.7115 14.3313 21.457C13.8113 21.212 13.3618 21 12.6213 21C11.8808 21 11.4313 21.212 10.9113 21.457C10.3718 21.7115 9.76034 22 8.87134 22C6.70834 22 3.12134 17.0355 3.12134 11.75C3.12134 8.24499 5.53734 5.49999 8.62134 5.49999C9.63484 5.49999 10.2508 5.79049 10.7943 6.04649C11.3103 6.28999 11.7563 6.49999 12.6213 6.49999C13.4863 6.49999 13.9323 6.28999 14.4483 6.04649C14.9918 5.79049 15.6078 5.49999 16.6213 5.49999C17.9533 5.49999 19.1378 5.99099 20.1423 6.96049C20.3113 7.12349 20.3943 7.35699 20.3658 7.59049C20.3373 7.82399 20.2013 8.03049 19.9983 8.14849C18.8403 8.82199 18.1213 10.2495 18.1213 11.875C18.1213 13.7055 19.1233 15.2795 20.6143 15.7905C20.8098 15.8575 20.9688 16.002 21.0538 16.19C21.1393 16.3775 21.1438 16.5925 21.0653 16.784C19.8518 19.7575 17.8333 22 16.3713 22ZM12.8713 4.99999C12.6923 4.99999 12.5173 4.93599 12.3793 4.81599C12.1978 4.65799 12.1023 4.42199 12.1243 4.18149C12.1303 4.11999 12.2758 2.65899 13.4208 1.49049C14.4978 0.390495 15.5463 0.0634947 15.6618 0.0294948C15.9063 -0.0415052 16.1703 0.0164948 16.3623 0.183495C16.5548 0.349995 16.6493 0.602995 16.6138 0.855495C16.5968 0.975995 16.4193 2.07349 15.4978 3.30499C14.5113 4.62299 13.1023 4.96599 13.0428 4.97999C12.9858 4.99349 12.9283 4.99999 12.8713 4.99999Z" fill="black"/>
</g>
<defs>
<clipPath id="clip0_3910_2231">
<rect width="24" height="24" fill="white"/>
</clipPath>
</defs>
</svg>
