<svg width="24" height="24" viewBox="0 0 24 24" fill="none" xmlns="http://www.w3.org/2000/svg">
<g clip-path="url(#clip0_3910_2229)">
<path d="M15.8479 -0.000101737C15.7858 0.00189826 15.7235 0.0113201 15.6624 0.0291951C15.5464 0.0631951 14.4977 0.390133 13.4202 1.49013C12.2757 2.65863 12.1307 4.12004 12.1252 4.18154C12.1032 4.42204 12.1972 4.6583 12.3792 4.8163C12.5171 4.9363 12.6923 4.9999 12.8713 4.9999C12.9283 4.9999 12.9862 4.99387 13.0432 4.98037C13.1027 4.96637 14.5118 4.62259 15.4973 3.30459C16.4193 2.07309 16.596 0.975867 16.6135 0.855367C16.6495 0.602867 16.5545 0.349992 16.3625 0.183492C16.2185 0.057867 16.0343 -0.00610174 15.8479 -0.000101737ZM8.62134 5.4999C5.62644 5.4999 3.12134 8.16213 3.12134 11.7499C3.12134 14.5416 4.04299 17.0382 5.17114 18.8632C5.73522 19.7757 6.34972 20.521 6.95825 21.0634C7.56678 21.6058 8.14217 21.9999 8.87134 21.9999C9.788 21.9999 10.4509 21.6738 10.9719 21.4286C11.4929 21.1834 11.8892 20.9999 12.6213 20.9999C13.3535 20.9999 13.7498 21.1834 14.2708 21.4286C14.7917 21.6738 15.4547 21.9999 16.3713 21.9999C17.3556 21.9999 18.0841 21.3333 18.8801 20.4237C19.6761 19.5142 20.4609 18.2644 21.0657 16.7831C21.1041 16.6886 21.1229 16.5873 21.1209 16.4852C21.1188 16.3832 21.096 16.2827 21.0537 16.1899C21.0115 16.097 20.9508 16.0137 20.8752 15.9451C20.7997 15.8765 20.711 15.824 20.6145 15.7909C19.1972 15.305 18.1213 13.7983 18.1213 11.8749C18.1213 10.2031 18.8876 8.79444 19.9983 8.14834C20.0986 8.09002 20.184 8.00923 20.2478 7.91232C20.3116 7.81541 20.352 7.70502 20.366 7.58984C20.3799 7.47465 20.3669 7.35781 20.328 7.24849C20.2891 7.13918 20.2254 7.04038 20.1418 6.95986C19.1853 6.03691 17.9708 5.4999 16.6213 5.4999C15.6035 5.4999 14.9167 5.82601 14.3958 6.07119C13.8748 6.31636 13.4963 6.4999 12.6213 6.4999C11.7463 6.4999 11.3679 6.31636 10.8469 6.07119C10.3259 5.82601 9.63919 5.4999 8.62134 5.4999ZM8.62134 6.9999C9.35348 6.9999 9.66675 7.17378 10.2083 7.42861C10.7498 7.68343 11.4963 7.9999 12.6213 7.9999C13.7463 7.9999 14.4929 7.68343 15.0344 7.42861C15.5759 7.17378 15.8892 6.9999 16.6213 6.9999C17.2866 6.9999 17.8482 7.22191 18.3792 7.54775C17.2716 8.60353 16.6213 10.1621 16.6213 11.8749C16.6213 14.0394 17.7303 15.8722 19.384 16.7997C18.8859 17.8598 18.3116 18.7951 17.7512 19.4354C17.0842 20.1976 16.3866 20.4999 16.3713 20.4999C15.788 20.4999 15.4509 20.326 14.9094 20.0712C14.3679 19.8164 13.6392 19.4999 12.6213 19.4999C11.6035 19.4999 10.8748 19.8164 10.3333 20.0712C9.79175 20.326 9.45467 20.4999 8.87134 20.4999C8.8505 20.4999 8.42589 20.3628 7.9563 19.9442C7.4867 19.5257 6.94496 18.8804 6.44653 18.0741C5.44968 16.4616 4.62134 14.2082 4.62134 11.7499C4.62134 8.83767 6.50724 6.9999 8.62134 6.9999Z" fill="black"/>
</g>
<defs>
<clipPath id="clip0_3910_2229">
<rect width="24" height="24" fill="white"/>
</clipPath>
</defs>
</svg>
