<svg width="24" height="24" viewBox="0 0 24 24" fill="none" xmlns="http://www.w3.org/2000/svg">
<path d="M12 2.50098C11.6368 2.50098 11.2735 2.56928 10.9277 2.70703L3.76855 5.55566C3.30205 5.74116 3 6.21 3 6.75C3 7.29 3.30205 7.75884 3.76855 7.94434L10.9277 10.793C11.2737 10.9305 11.6365 10.999 12 10.999C12.3635 10.999 12.7263 10.9305 13.0723 10.793L20.2314 7.94434C20.6979 7.75884 21 7.29 21 6.75C21 6.21 20.6979 5.74116 20.2314 5.55566L13.0723 2.70703C12.7265 2.56928 12.3632 2.50098 12 2.50098ZM5.86133 9.85254L3.76855 10.7354C3.30205 10.9319 3 11.428 3 12C3 12.572 3.30205 13.0681 3.76855 13.2646L10.9277 16.2812C11.2732 16.4268 11.6365 16.5 12 16.5C12.3635 16.5 12.7263 16.4272 13.0723 16.2812L20.2314 13.2646C20.6979 13.0686 21 12.572 21 12C21 11.428 20.6979 10.9319 20.2314 10.7354L18.1387 9.85254L13.4424 11.7217C12.9799 11.9057 12.4945 11.999 12 11.999C11.5055 11.999 11.0201 11.9057 10.5576 11.7217L5.86133 9.85254ZM5.85059 15.2266L3.76855 16.0557C3.30205 16.2412 3 16.71 3 17.25C3 17.79 3.30205 18.2588 3.76855 18.4443L10.9277 21.293C11.2732 21.4305 11.6375 21.499 12.001 21.499C12.3645 21.499 12.7272 21.4305 13.0732 21.293L20.2324 18.4443C20.6984 18.2588 21 17.79 21 17.25C21 16.71 20.6979 16.2412 20.2314 16.0557L18.1494 15.2266L13.4609 17.2021C12.9939 17.3996 12.502 17.5 12 17.5C11.498 17.5 11.0056 17.3996 10.5381 17.2021L5.85059 15.2266Z" fill="black"/>
</svg>
