<svg width="24" height="24" viewBox="0 0 24 24" fill="none" xmlns="http://www.w3.org/2000/svg">
<path d="M9.25 12.5H4.75C3.785 12.5 3 11.715 3 10.75V6.24997C3 5.28497 3.785 4.49997 4.75 4.49997H9.25C10.215 4.49997 11 5.28497 11 6.24997V10.75C11 11.715 10.215 12.5 9.25 12.5ZM4.75 5.99997C4.6125 5.99997 4.5 6.11247 4.5 6.24997V10.75C4.5 10.8875 4.6125 11 4.75 11H9.25C9.3875 11 9.5 10.8875 9.5 10.75V6.24997C9.5 6.11247 9.3875 5.99997 9.25 5.99997H4.75ZM9.25 21.5H4.75C3.785 21.5 3 20.715 3 19.75V15.25C3 14.285 3.785 13.5 4.75 13.5H9.25C10.215 13.5 11 14.285 11 15.25V19.75C11 20.715 10.215 21.5 9.25 21.5ZM4.75 15C4.6125 15 4.5 15.1125 4.5 15.25V19.75C4.5 19.8875 4.6125 20 4.75 20H9.25C9.3875 20 9.5 19.8875 9.5 19.75V15.25C9.5 15.1125 9.3875 15 9.25 15H4.75ZM18.25 21.5H13.75C12.785 21.5 12 20.715 12 19.75V15.25C12 14.285 12.785 13.5 13.75 13.5H18.25C19.215 13.5 20 14.285 20 15.25V19.75C20 20.715 19.215 21.5 18.25 21.5ZM13.75 15C13.6125 15 13.5 15.1125 13.5 15.25V19.75C13.5 19.8875 13.6125 20 13.75 20H18.25C18.3875 20 18.5 19.8875 18.5 19.75V15.25C18.5 15.1125 18.3875 15 18.25 15H13.75ZM17 12.431C16.552 12.431 16.104 12.2605 15.7625 11.9195L12.5805 8.73747C11.8985 8.05547 11.8985 6.94497 12.5805 6.26297L15.7625 3.08097C16.445 2.39847 17.5545 2.39847 18.237 3.08097L21.419 6.26297C22.101 6.94497 22.101 8.05547 21.419 8.73747L18.237 11.9195C17.896 12.2605 17.448 12.431 17 12.431ZM17 4.06797C16.936 4.06797 16.872 4.09247 16.823 4.14097L13.641 7.32297C13.544 7.42047 13.544 7.57897 13.641 7.67647L16.823 10.8585C16.9205 10.956 17.079 10.956 17.1765 10.8585L20.3585 7.67647C20.4555 7.57897 20.4555 7.42047 20.3585 7.32297L17.1765 4.14097C17.128 4.09247 17.064 4.06797 17 4.06797Z" fill="black"/>
</svg>
