<svg width="24" height="24" viewBox="0 0 24 24" fill="none" xmlns="http://www.w3.org/2000/svg">
<path d="M12 2.50195C11.6359 2.50195 11.2721 2.57013 10.9277 2.70703C10.9274 2.70703 10.9271 2.70703 10.9268 2.70703L3.76855 5.55566C3.76823 5.55566 3.7679 5.55566 3.76758 5.55566C3.22417 5.7722 3 6.30542 3 6.75C3 7.19458 3.22417 7.7278 3.76758 7.94433C3.7679 7.94433 3.76823 7.94433 3.76855 7.94433L10.9268 10.793C10.9271 10.793 10.9274 10.793 10.9277 10.793C11.6164 11.0667 12.3836 11.0667 13.0723 10.793L20.2314 7.94433C20.7749 7.7278 20.999 7.19458 20.999 6.75C20.999 6.30542 20.7749 5.7722 20.2314 5.55566L13.0732 2.70703C13.0729 2.70703 13.0726 2.70703 13.0723 2.70703C12.7279 2.57013 12.3641 2.50195 12 2.50195ZM12 3.99805C12.173 3.99805 12.346 4.03199 12.5186 4.10059L19.1758 6.75L12.5176 9.39941C12.1723 9.53667 11.8268 9.53667 11.4814 9.39941L4.82422 6.75L11.4814 4.10059C11.654 4.03199 11.827 3.99805 12 3.99805ZM18.1387 9.85254L16.1514 10.6436L19.3701 12L12.4902 14.8994C12.3312 14.9664 12.166 15 12 15C11.834 15 11.6693 14.9664 11.5098 14.8994L4.62988 12L7.84863 10.6436L5.86133 9.85351L3.76855 10.7353C3.30205 10.9319 3 11.428 3 12C3 12.572 3.30205 13.0681 3.76855 13.2646L10.9277 16.2812C11.2732 16.4267 11.6365 16.5 12 16.5C12.3635 16.5 12.7263 16.4272 13.0723 16.2812L20.2314 13.2646C20.6979 13.0686 21 12.572 21 12C21 11.428 20.6979 10.9319 20.2314 10.7353L18.1387 9.85254ZM5.85059 15.2266L3.76758 16.0557C3.30158 16.2412 3 16.71 3 17.25C3 17.79 3.30205 18.2588 3.76855 18.4443L10.9277 21.293C11.2732 21.4305 11.6375 21.499 12.001 21.499C12.3645 21.499 12.7272 21.4305 13.0732 21.293L20.2324 18.4443C20.6984 18.2588 21 17.79 21 17.25C21 16.71 20.6979 16.2412 20.2314 16.0557L18.1494 15.2266L16.1787 16.0576L19.1758 17.25L12.5176 19.8994C12.1786 20.0344 11.8209 20.0344 11.4824 19.8994L4.82422 17.25L7.82129 16.0576L5.85059 15.2266Z" fill="black"/>
</svg>
