<svg width="24" height="24" viewBox="0 0 24 24" fill="none" xmlns="http://www.w3.org/2000/svg">
<path d="M16.7274 3.99997C16.5708 4.00461 16.4195 4.05823 16.2948 4.15329L6.79483 11.4033C6.70295 11.4733 6.62847 11.5635 6.57721 11.667C6.52594 11.7705 6.49927 11.8845 6.49927 12C6.49927 12.1155 6.52594 12.2294 6.57721 12.3329C6.62847 12.4364 6.70295 12.5267 6.79483 12.5966L16.2948 19.8466C16.406 19.9315 16.5387 19.9835 16.6779 19.997C16.8171 20.0104 16.9573 19.9846 17.0827 19.9225C17.208 19.8605 17.3135 19.7646 17.3872 19.6458C17.4609 19.5269 17.5 19.3898 17.4999 19.25V4.74997C17.4999 4.64956 17.4798 4.55017 17.4407 4.45768C17.4016 4.3652 17.3444 4.2815 17.2723 4.21156C17.2003 4.14162 17.1149 4.08685 17.0213 4.0505C16.9277 4.01416 16.8278 3.99697 16.7274 3.99997ZM15.9999 6.26657V17.7334L8.48721 12L15.9999 6.26657Z" fill="black"/>
</svg>
