<svg width="24" height="24" viewBox="0 0 24 24" fill="none" xmlns="http://www.w3.org/2000/svg">
<path d="M13.2361 4.23999C13.087 4.24003 12.9412 4.28459 12.8175 4.36799C12.6938 4.45139 12.5977 4.56982 12.5416 4.70814C12.4856 4.84645 12.472 4.99836 12.5027 5.14443C12.5334 5.29049 12.607 5.42407 12.714 5.52808L18.4304 11.2478H3.74949C3.65017 11.2464 3.55155 11.2648 3.45938 11.3018C3.36721 11.3389 3.28332 11.3939 3.21258 11.4637C3.14185 11.5335 3.08568 11.6166 3.04734 11.7083C3.009 11.8 2.98926 11.8984 2.98926 11.9978C2.98926 12.0972 3.009 12.1956 3.04734 12.2873C3.08568 12.379 3.14185 12.4621 3.21258 12.5319C3.28332 12.6017 3.36721 12.6567 3.45938 12.6938C3.55155 12.7308 3.65017 12.7492 3.74949 12.7478H18.4304L12.714 18.4675C12.642 18.5366 12.5846 18.6194 12.545 18.711C12.5055 18.8026 12.4846 18.9012 12.4836 19.001C12.4825 19.1007 12.5014 19.1997 12.5391 19.2921C12.5768 19.3845 12.6326 19.4684 12.7031 19.539C12.7736 19.6095 12.8575 19.6653 12.9498 19.703C13.0421 19.7407 13.1411 19.7596 13.2408 19.7586C13.3405 19.7576 13.439 19.7367 13.5306 19.6971C13.6221 19.6575 13.7048 19.6001 13.7739 19.5281L20.7698 12.5281C20.9103 12.3874 20.9893 12.1967 20.9893 11.9978C20.9893 11.7989 20.9103 11.6082 20.7698 11.4675L13.7739 4.46753C13.704 4.39554 13.6204 4.3383 13.5281 4.29922C13.4357 4.26013 13.3364 4.23999 13.2361 4.23999Z" fill="black"/>
</svg>
