<svg width="24" height="24" viewBox="0 0 24 24" fill="none" xmlns="http://www.w3.org/2000/svg">
<path d="M12.7501 3.50001C12.6507 3.49861 12.5521 3.51697 12.4598 3.55403C12.3676 3.59109 12.2837 3.64611 12.2129 3.71589C12.1421 3.78568 12.0859 3.86883 12.0475 3.96052C12.0092 4.05222 11.9894 4.15062 11.9894 4.25001C11.9894 4.34941 12.0092 4.44781 12.0475 4.5395C12.0859 4.6312 12.1421 4.71435 12.2129 4.78413C12.2837 4.85392 12.3676 4.90894 12.4598 4.946C12.5521 4.98306 12.6507 5.00142 12.7501 5.00001H17.9396L3.71984 19.2197C3.64786 19.2888 3.5904 19.3716 3.55081 19.4632C3.51122 19.5548 3.49031 19.6534 3.4893 19.7532C3.48828 19.853 3.50719 19.9519 3.5449 20.0443C3.58262 20.1367 3.63839 20.2206 3.70895 20.2912C3.77951 20.3617 3.86344 20.4175 3.95582 20.4552C4.0482 20.4929 4.14718 20.5118 4.24696 20.5108C4.34674 20.5098 4.44531 20.4889 4.53691 20.4493C4.6285 20.4097 4.71128 20.3523 4.78039 20.2803L19.0001 6.06056V11.25C18.9987 11.3494 19.0171 11.4481 19.0541 11.5403C19.0912 11.6325 19.1462 11.7165 19.216 11.7872C19.2858 11.858 19.3689 11.9142 19.4606 11.9526C19.5523 11.9909 19.6507 12.0107 19.7501 12.0107C19.8495 12.0107 19.9479 11.9909 20.0396 11.9526C20.1313 11.9142 20.2145 11.858 20.2842 11.7872C20.354 11.7165 20.409 11.6325 20.4461 11.5403C20.4832 11.4481 20.5015 11.3494 20.5001 11.25V4.25001C20.5001 4.05111 20.4211 3.86035 20.2804 3.71971C20.1398 3.57906 19.949 3.50003 19.7501 3.50001H12.7501Z" fill="black"/>
</svg>
