<svg width="24" height="24" viewBox="0 0 24 24" fill="none" xmlns="http://www.w3.org/2000/svg">
<path d="M4.24208 3.49219C4.09282 3.49222 3.94696 3.53679 3.82317 3.62019C3.69938 3.70358 3.60329 3.82202 3.54719 3.96033C3.49109 4.09865 3.47753 4.25056 3.50824 4.39662C3.53896 4.54269 3.61256 4.67627 3.71962 4.78027L17.9393 19H12.7499C12.6505 18.9986 12.5518 19.017 12.4596 19.054C12.3674 19.0911 12.2834 19.1461 12.2127 19.2159C12.1419 19.2857 12.0857 19.3688 12.0473 19.4605C12.009 19.5522 11.9892 19.6506 11.9892 19.75C11.9892 19.8494 12.009 19.9478 12.0473 20.0395C12.0857 20.1312 12.1419 20.2143 12.2127 20.2841C12.2834 20.3539 12.3674 20.4089 12.4596 20.446C12.5518 20.483 12.6505 20.5014 12.7499 20.5H19.6552C19.7699 20.5157 19.8866 20.5046 19.9964 20.4677C20.1061 20.4307 20.2057 20.3688 20.2876 20.2869C20.3694 20.205 20.4311 20.1053 20.468 19.9955C20.5048 19.8858 20.5157 19.769 20.4999 19.6543V12.75C20.5013 12.6506 20.4829 12.5519 20.4459 12.4597C20.4088 12.3675 20.3538 12.2835 20.284 12.2128C20.2142 12.142 20.1311 12.0858 20.0394 12.0474C19.9477 12.0091 19.8493 11.9893 19.7499 11.9893C19.6505 11.9893 19.5521 12.0091 19.4604 12.0474C19.3687 12.0858 19.2856 12.142 19.2158 12.2128C19.146 12.2835 19.091 12.3675 19.0539 12.4597C19.0168 12.5519 18.9985 12.6506 18.9999 12.75V17.9395L4.78017 3.71973C4.71026 3.64773 4.62661 3.5905 4.53419 3.55142C4.44176 3.51233 4.34243 3.49219 4.24208 3.49219Z" fill="black"/>
</svg>
