<svg width="24" height="24" viewBox="0 0 24 24" fill="none" xmlns="http://www.w3.org/2000/svg">
<path d="M16.8553 1.50031C16.6605 1.50598 16.4756 1.58717 16.3397 1.72668L6.5897 11.4683C6.4491 11.6089 6.37012 11.7994 6.37012 11.9981C6.37012 12.1969 6.4491 12.3874 6.5897 12.528L16.3397 22.2696C16.4088 22.3415 16.4916 22.3989 16.5832 22.4385C16.6748 22.4781 16.7734 22.4989 16.8731 22.5C16.9729 22.501 17.0719 22.4821 17.1643 22.4444C17.2567 22.4067 17.3406 22.351 17.4111 22.2805C17.4817 22.21 17.5375 22.1261 17.5752 22.0338C17.6129 21.9415 17.6318 21.8426 17.6308 21.743C17.6298 21.6433 17.6089 21.5448 17.5693 21.4532C17.5297 21.3617 17.4722 21.279 17.4002 21.21L8.18052 11.9981L17.4002 2.78632C17.5084 2.68103 17.5823 2.54556 17.6122 2.39763C17.642 2.24971 17.6265 2.09622 17.5676 1.95725C17.5088 1.81829 17.4093 1.70032 17.2822 1.61879C17.1551 1.53726 17.0063 1.49597 16.8553 1.50031Z" fill="black"/>
</svg>
