<svg width="24" height="24" viewBox="0 0 24 24" fill="none" xmlns="http://www.w3.org/2000/svg">
<path d="M4.25008 3.50001C4.05117 3.50003 3.86042 3.57906 3.71977 3.71971C3.57912 3.86035 3.50009 4.05111 3.50008 4.25001V11.25C3.49867 11.3494 3.51703 11.4481 3.55409 11.5403C3.59115 11.6325 3.64617 11.7165 3.71595 11.7872C3.78574 11.858 3.86889 11.9142 3.96059 11.9526C4.05228 11.9909 4.15068 12.0107 4.25008 12.0107C4.34947 12.0107 4.44787 11.9909 4.53956 11.9526C4.63126 11.9142 4.71441 11.858 4.7842 11.7872C4.85398 11.7165 4.909 11.6325 4.94606 11.5403C4.98312 11.4481 5.00148 11.3494 5.00008 11.25V6.06056L19.2198 20.2803C19.2889 20.3523 19.3717 20.4097 19.4633 20.4493C19.5549 20.4889 19.6535 20.5098 19.7532 20.5108C19.853 20.5118 19.952 20.4929 20.0444 20.4552C20.1368 20.4175 20.2207 20.3617 20.2912 20.2912C20.3618 20.2206 20.4176 20.1367 20.4553 20.0443C20.493 19.9519 20.5119 19.853 20.5109 19.7532C20.5099 19.6534 20.489 19.5548 20.4494 19.4632C20.4098 19.3716 20.3523 19.2889 20.2803 19.2197L6.06062 5.00001H11.2501C11.3495 5.00142 11.4481 4.98306 11.5404 4.946C11.6326 4.90894 11.7165 4.85392 11.7873 4.78413C11.8581 4.71435 11.9143 4.6312 11.9526 4.5395C11.991 4.44781 12.0108 4.34941 12.0108 4.25001C12.0108 4.15062 11.991 4.05222 11.9526 3.96052C11.9143 3.86883 11.8581 3.78568 11.7873 3.71589C11.7165 3.64611 11.6326 3.59109 11.5404 3.55403C11.4481 3.51697 11.3495 3.49861 11.2501 3.50001H4.25008Z" fill="black"/>
</svg>
