<svg width="24" height="24" viewBox="0 0 24 24" fill="none" xmlns="http://www.w3.org/2000/svg">
<path d="M10.7307 4.2403C10.536 4.24598 10.3512 4.32723 10.2154 4.46686L3.21945 11.4669C3.07894 11.6075 3 11.7983 3 11.9971C3 12.196 3.07894 12.3868 3.21945 12.5274L10.2154 19.5274C10.2844 19.5994 10.3672 19.6569 10.4587 19.6964C10.5502 19.736 10.6488 19.7569 10.7485 19.758C10.8482 19.759 10.9471 19.7401 11.0394 19.7023C11.1318 19.6646 11.2157 19.6089 11.2862 19.5383C11.3567 19.4677 11.4124 19.3838 11.4501 19.2914C11.4878 19.1991 11.5067 19.1001 11.5057 19.0003C11.5047 18.9005 11.4838 18.8019 11.4442 18.7103C11.4047 18.6187 11.3472 18.536 11.2753 18.4669L5.5589 12.7471H20.2398C20.3391 12.7485 20.4377 12.7302 20.5299 12.6931C20.622 12.6561 20.7059 12.601 20.7767 12.5313C20.8474 12.4615 20.9036 12.3783 20.9419 12.2866C20.9803 12.1949 21 12.0965 21 11.9971C21 11.8977 20.9803 11.7993 20.9419 11.7076C20.9036 11.616 20.8474 11.5328 20.7767 11.463C20.7059 11.3932 20.622 11.3382 20.5299 11.3012C20.4377 11.2641 20.3391 11.2457 20.2398 11.2471H5.5589L11.2753 5.52741C11.3834 5.42203 11.4572 5.28645 11.4871 5.13839C11.5169 4.99034 11.5014 4.83672 11.4426 4.69764C11.3837 4.55855 11.2843 4.44048 11.1573 4.35888C11.0302 4.27728 10.8816 4.23595 10.7307 4.2403Z" fill="black"/>
</svg>
