<svg width="24" height="24" viewBox="0 0 24 24" fill="none" xmlns="http://www.w3.org/2000/svg">
<path fill-rule="evenodd" clip-rule="evenodd" d="M16.4697 12.5303C16.7626 12.8232 17.2374 12.8232 17.5303 12.5303C17.8232 12.2374 17.8232 11.7626 17.5303 11.4697L12.5303 6.46967C12.2374 6.17678 11.7626 6.17678 11.4697 6.46967L6.46967 11.4697C6.17678 11.7626 6.17678 12.2374 6.46967 12.5303C6.76256 12.8232 7.23744 12.8232 7.53033 12.5303L12 8.06066L16.4697 12.5303ZM16.4697 16.5303C16.7626 16.8232 17.2374 16.8232 17.5303 16.5303C17.8232 16.2374 17.8232 15.7626 17.5303 15.4697L12.5303 10.4697C12.2374 10.1768 11.7626 10.1768 11.4697 10.4697L6.46967 15.4697C6.17678 15.7626 6.17678 16.2374 6.46967 16.5303C6.76256 16.8232 7.23744 16.8232 7.53033 16.5303L12 12.0607L16.4697 16.5303Z" fill="black"/>
</svg>
