<svg width="24" height="24" viewBox="0 0 24 24" fill="none" xmlns="http://www.w3.org/2000/svg">
<path fill-rule="evenodd" clip-rule="evenodd" d="M13.0303 7.03033C13.3232 6.73744 13.3232 6.26256 13.0303 5.96967C12.7374 5.67678 12.2626 5.67678 11.9697 5.96967L6.96967 10.9697C6.67678 11.2626 6.67678 11.7374 6.96967 12.0303L11.9697 17.0303C12.2626 17.3232 12.7374 17.3232 13.0303 17.0303C13.3232 16.7374 13.3232 16.2626 13.0303 15.9697L8.56066 11.5L13.0303 7.03033ZM17.0303 7.03033C17.3232 6.73744 17.3232 6.26256 17.0303 5.96967C16.7374 5.67678 16.2626 5.67678 15.9697 5.96967L10.9697 10.9697C10.6768 11.2626 10.6768 11.7374 10.9697 12.0303L15.9697 17.0303C16.2626 17.3232 16.7374 17.3232 17.0303 17.0303C17.3232 16.7374 17.3232 16.2626 17.0303 15.9697L12.5607 11.5L17.0303 7.03033Z" fill="black"/>
</svg>
