<svg width="24" height="24" viewBox="0 0 24 24" fill="none" xmlns="http://www.w3.org/2000/svg">
<path d="M21.7329 6.3702C21.535 6.37488 21.347 6.45773 21.2099 6.60067L11.9984 15.8204L2.78683 6.60067C2.71699 6.52868 2.63342 6.47145 2.54107 6.43236C2.44873 6.39328 2.34949 6.37314 2.24923 6.37313C2.1001 6.37317 1.95437 6.41774 1.83069 6.50113C1.70701 6.58453 1.611 6.70296 1.55495 6.84128C1.4989 6.9796 1.48535 7.1315 1.51604 7.27757C1.54673 7.42364 1.62026 7.55722 1.72723 7.66122L11.4686 17.4112C11.6091 17.5518 11.7997 17.6308 11.9984 17.6308C12.1971 17.6308 12.3876 17.5518 12.5282 17.4112L22.2695 7.66122C22.3785 7.55654 22.4533 7.42135 22.4842 7.27337C22.515 7.12539 22.5005 6.97153 22.4425 6.83195C22.3845 6.69238 22.2857 6.57361 22.1591 6.49121C22.0324 6.40881 21.8839 6.36663 21.7329 6.3702Z" fill="black"/>
</svg>
