<svg width="24" height="24" viewBox="0 0 24 24" fill="none" xmlns="http://www.w3.org/2000/svg">
<path fill-rule="evenodd" clip-rule="evenodd" d="M16 12.275C16.4142 12.275 16.75 12.6108 16.75 13.025C17.2473 13.025 17.7242 13.2226 18.0758 13.5742C18.4275 13.9258 18.625 14.4027 18.625 14.9V14.9536C18.625 15.3486 18.4968 15.7302 18.2633 16.043C18.4969 16.3623 18.625 16.7495 18.625 17.15V17.2036C18.625 17.6867 18.4331 18.15 18.0915 18.4916C17.75 18.8331 17.2867 19.025 16.8036 19.025H16.75C16.75 19.4392 16.4142 19.775 16 19.775C15.5858 19.775 15.25 19.4392 15.25 19.025H14.875C14.4608 19.025 14.125 18.6892 14.125 18.275V13.775C14.125 13.3608 14.4608 13.025 14.875 13.025H15.25C15.25 12.6108 15.5858 12.275 16 12.275ZM16.8036 17.525C16.8889 17.525 16.9706 17.4912 17.0309 17.4309C17.0911 17.3706 17.125 17.2889 17.125 17.2036V17.15C17.125 17.0506 17.0855 16.9552 17.0152 16.8849C16.9448 16.8145 16.8495 16.775 16.75 16.775H15.625V17.525H16.8036ZM15.625 14.525H16.75C16.8495 14.525 16.9448 14.5645 17.0152 14.6349C17.0855 14.7052 17.125 14.8006 17.125 14.9V14.9536C17.125 15.0389 17.0911 15.1206 17.0309 15.1809C16.9706 15.2412 16.8889 15.275 16.8036 15.275H15.625V14.525Z" fill="black"/>
<path fill-rule="evenodd" clip-rule="evenodd" d="M11.1769 3.53158C11.2982 3.45611 11.4518 3.45611 11.5731 3.53158L19.4481 8.43158C19.5581 8.50003 19.625 8.62041 19.625 8.74998V10.025C19.625 10.4392 19.9608 10.775 20.375 10.775C20.7892 10.775 21.125 10.4392 21.125 10.025V8.74998C21.125 8.10216 20.7906 7.50024 20.2406 7.15799L12.3656 2.25799C11.7591 1.88064 10.9909 1.88064 10.3844 2.25799L2.50943 7.15799C1.9594 7.50024 1.625 8.10216 1.625 8.74998V19.4C1.625 20.4355 2.46447 21.275 3.5 21.275H6.36645L6.375 21.275L6.38355 21.275H9.875C10.2892 21.275 10.625 20.9392 10.625 20.525C10.625 20.1108 10.2892 19.775 9.875 19.775H7.125V16.525C7.125 16.387 7.23693 16.275 7.375 16.275H10.3801C10.5112 19.4728 13.145 22.025 16.375 22.025C19.6887 22.025 22.375 19.3387 22.375 16.025C22.375 12.7113 19.6887 10.025 16.375 10.025C15.6929 10.025 15.0373 10.1389 14.4263 10.3486C14.2038 10.0035 13.8161 9.77502 13.375 9.77502H9.875C8.9085 9.77502 8.125 10.5585 8.125 11.525V14.775H7.375C6.4085 14.775 5.625 15.5585 5.625 16.525V19.775H3.5C3.29289 19.775 3.125 19.6071 3.125 19.4V8.74998C3.125 8.62041 3.19188 8.50003 3.30189 8.43158L11.1769 3.53158ZM9.625 14.775H10.5054C10.8053 13.3599 11.604 12.129 12.7088 11.275H9.875C9.73693 11.275 9.625 11.387 9.625 11.525V14.775ZM16.375 20.525C18.8603 20.525 20.875 18.5103 20.875 16.025C20.875 13.5397 18.8603 11.525 16.375 11.525C13.8897 11.525 11.875 13.5397 11.875 16.025C11.875 18.5103 13.8897 20.525 16.375 20.525Z" fill="black"/>
</svg>
