<svg width="24" height="24" viewBox="0 0 24 24" fill="none" xmlns="http://www.w3.org/2000/svg">
<path d="M6.75 9C7.16421 9 7.5 9.33579 7.5 9.75V13.75C7.5 14.1642 7.16421 14.5 6.75 14.5C6.33579 14.5 6 14.1642 6 13.75V9.75C6 9.33579 6.33579 9 6.75 9Z" fill="black"/>
<path d="M10.5 9.75C10.5 9.33579 10.1642 9 9.75 9C9.33579 9 9 9.33579 9 9.75V13.75C9 14.1642 9.33579 14.5 9.75 14.5C10.1642 14.5 10.5 14.1642 10.5 13.75V9.75Z" fill="black"/>
<path fill-rule="evenodd" clip-rule="evenodd" d="M3.80546 6.80546C4.32118 6.28973 5.02065 6 5.75 6H16.75C17.4793 6 18.1788 6.28973 18.6945 6.80546C19.2103 7.32118 19.5 8.02065 19.5 8.75V9.02525C19.7384 9.07391 19.9593 9.19152 20.1339 9.36612C20.3683 9.60054 20.5 9.91848 20.5 10.25V13.25C20.5 13.5815 20.3683 13.8995 20.1339 14.1339C19.9593 14.3085 19.7384 14.4261 19.5 14.4748V14.75C19.5 15.4793 19.2103 16.1788 18.6945 16.6945C18.1788 17.2103 17.4793 17.5 16.75 17.5H5.75C5.02065 17.5 4.32118 17.2103 3.80546 16.6945C3.28973 16.1788 3 15.4793 3 14.75V8.75C3 8.02065 3.28973 7.32118 3.80546 6.80546ZM5.75 7.5C5.41848 7.5 5.10054 7.6317 4.86612 7.86612C4.6317 8.10054 4.5 8.41848 4.5 8.75V14.75C4.5 15.0815 4.6317 15.3995 4.86612 15.6339C5.10054 15.8683 5.41848 16 5.75 16H16.75C17.0815 16 17.3995 15.8683 17.6339 15.6339C17.8683 15.3995 18 15.0815 18 14.75V14.25C18 13.9185 18.1317 13.6005 18.3661 13.3661C18.5407 13.1915 18.7616 13.0739 19 13.0252V10.4748C18.7616 10.4261 18.5407 10.3085 18.3661 10.1339C18.1317 9.89946 18 9.58152 18 9.25V8.75C18 8.41848 17.8683 8.10054 17.6339 7.86612C17.3995 7.6317 17.0815 7.5 16.75 7.5H5.75Z" fill="black"/>
</svg>
