<svg width="24" height="24" viewBox="0 0 24 24" fill="none" xmlns="http://www.w3.org/2000/svg">
<path d="M6.75011 2.4999C6.4946 2.49661 6.24147 2.5493 6.0085 2.65428C5.77553 2.75926 5.56838 2.91398 5.40159 3.10758C5.23481 3.30117 5.11244 3.52893 5.04307 3.77487C4.97371 4.0208 4.95905 4.27894 5.00011 4.53115V19.4638C4.95825 19.7163 4.97232 19.975 5.04132 20.2216C5.11032 20.4681 5.23256 20.6965 5.39943 20.8907C5.56631 21.0848 5.77374 21.24 6.00712 21.3453C6.24049 21.4505 6.49412 21.5033 6.75011 21.4999H14.2501C17.405 21.4999 20.0001 18.9048 20.0001 15.7499C20.0001 13.7881 18.9347 12.1283 17.4171 11.0888C18.0473 10.1944 18.5001 9.16676 18.5001 7.9999C18.5001 4.98306 16.0169 2.4999 13.0001 2.4999H6.75011ZM8.50011 5.9999H13.0001C14.1253 5.9999 15.0001 6.87474 15.0001 7.9999C15.0001 9.12506 14.1253 9.9999 13.0001 9.9999H8.75011C8.66648 9.99946 8.58294 10.005 8.50011 10.0165V5.9999ZM8.50011 13.4833C8.54257 13.4894 8.58524 13.494 8.62804 13.497C8.66868 13.4994 8.7094 13.5003 8.75011 13.4999H13.0001H14.2501C15.5132 13.4999 16.5001 14.4868 16.5001 15.7499C16.5001 17.013 15.5132 17.9999 14.2501 17.9999H8.50011V13.4833Z" fill="black"/>
</svg>
