<svg width="24" height="24" viewBox="0 0 24 24" fill="none" xmlns="http://www.w3.org/2000/svg">
<path fill-rule="evenodd" clip-rule="evenodd" d="M3.625 19.9844C3.625 20.088 3.666 20.1875 3.73926 20.2607C3.81251 20.334 3.91202 20.375 4.01562 20.375H19.9844C20.088 20.375 20.1875 20.334 20.2607 20.2607C20.334 20.1875 20.375 20.088 20.375 19.9844V8.1875H3.625V19.9844ZM8.1875 6.6875H20.375V4.01562C20.375 3.91202 20.334 3.81251 20.2607 3.73926C20.1875 3.666 20.088 3.625 19.9844 3.625H8.1875V6.6875ZM4.01562 3.625C3.91203 3.625 3.81251 3.666 3.73926 3.73926C3.666 3.81251 3.625 3.91203 3.625 4.01562V6.6875H6.6875V3.625H4.01562Z" fill="black"/>
</svg>
