<svg width="24" height="24" viewBox="0 0 24 24" fill="none" xmlns="http://www.w3.org/2000/svg">
<path d="M3 8.5V17.75C3 19.542 4.458 21 6.25 21H17.75C19.542 21 21 19.542 21 17.75V8.5H3ZM14.433 12.0605L11.933 17.5605C11.807 17.8365 11.5345 18 11.2495 18C11.1455 18 11.0405 17.9785 10.9395 17.9325C10.5625 17.761 10.3955 17.3165 10.567 16.9395L12.585 12.5H10.25C9.8355 12.5 9.5 12.1645 9.5 11.75C9.5 11.3355 9.8355 11 10.25 11H13.75C14.005 11 14.2425 11.1295 14.3805 11.344C14.5185 11.5585 14.5385 11.828 14.433 12.0605ZM21 7V6.25C21 4.458 19.542 3 17.75 3H6.25C4.458 3 3 4.458 3 6.25V7H21Z" fill="black"/>
</svg>
