<svg width="24" height="24" viewBox="0 0 24 24" fill="none" xmlns="http://www.w3.org/2000/svg">
<path d="M19.597 9.08549C19.237 8.48949 18.7895 7.74699 18.7115 7.51299C17.5845 4.13199 14.8985 2.08649 11.5 1.98999V8.38799C12.372 8.69799 13 9.52199 13 10.5C13 11.478 12.372 12.3025 11.5 12.612V13C11.5 13.827 12.173 14.5 13 14.5H14.2555C14.4835 14.198 14.842 14 15.25 14C15.9405 14 16.5 14.5595 16.5 15.25C16.5 15.9405 15.9405 16.5 15.25 16.5C14.8425 16.5 14.484 16.302 14.2555 16H13C11.3455 16 10 14.6545 10 13V12.612C9.128 12.302 8.5 11.478 8.5 10.5C8.5 9.52199 9.128 8.69749 10 8.38799V2.06049C5.823 2.54699 3 5.46499 3 9.49999C3 11.9385 3.69 13.1385 4.3575 14.299C5.165 15.7035 6 17.156 6 21.25C6 21.6645 6.3355 22 6.75 22H14.75C15.1645 22 15.5 21.6645 15.5 21.25V19.2305C15.5 19.0925 15.612 18.9805 15.75 18.9805C17.542 18.9805 19 17.5225 19 15.7305V13.5565C21 12.903 21 12.301 21 12C21 11.466 20.5725 10.702 19.597 9.08549Z" fill="black"/>
</svg>
