<svg width="24" height="24" viewBox="0 0 24 24" fill="none" xmlns="http://www.w3.org/2000/svg">
<path d="M11.25 2C8.84639 2 6.77742 2.74443 5.30859 4.07812C3.83977 5.41182 3 7.32924 3 9.51855C3 12.1775 3.87216 13.4423 4.5957 14.7363C5.31925 16.0304 6 17.4903 6 21.2686C5.99859 21.3679 6.01696 21.4666 6.05402 21.5588C6.09108 21.6511 6.1461 21.735 6.21588 21.8058C6.28566 21.8766 6.36882 21.9328 6.46051 21.9711C6.5522 22.0095 6.65061 22.0292 6.75 22.0292C6.84939 22.0292 6.9478 22.0095 7.03949 21.9711C7.13118 21.9328 7.21434 21.8766 7.28412 21.8058C7.3539 21.735 7.40892 21.6511 7.44598 21.5588C7.48304 21.4666 7.50141 21.3679 7.5 21.2686C7.5 17.2968 6.68075 15.3926 5.9043 14.0039C5.12784 12.6152 4.5 11.8786 4.5 9.51855C4.5 7.70387 5.16023 6.23828 6.31641 5.18848C7.21629 4.37138 8.51591 3.91084 10 3.69922V8.6377C9.62638 8.76031 9.30302 8.97087 9.06445 9.23926C8.677 9.67514 8.5 10.2269 8.5 10.7686C8.5 11.3102 8.677 11.8629 9.06445 12.2988C9.31465 12.5803 9.67632 12.7605 10.0732 12.8799C10.2609 14.3518 11.4799 15.5186 13 15.5186H14.25C14.3664 15.6738 14.5174 15.7998 14.691 15.8866C14.8646 15.9734 15.0559 16.0186 15.25 16.0186C15.5815 16.0186 15.8995 15.8869 16.1339 15.6524C16.3683 15.418 16.5 15.1001 16.5 14.7686C16.5 14.437 16.3683 14.1191 16.1339 13.8847C15.8995 13.6503 15.5815 13.5186 15.25 13.5186C15.0563 13.5189 14.8653 13.5642 14.6921 13.651C14.5189 13.7377 14.3682 13.8636 14.252 14.0186H13C12.2885 14.0186 11.7905 13.4957 11.6309 12.8379C11.9464 12.7117 12.2268 12.5337 12.4355 12.2988C12.823 11.8629 13 11.3102 13 10.7686C13 10.2269 12.823 9.67514 12.4355 9.23926C12.197 8.97087 11.8736 8.76031 11.5 8.6377V3.53711C14.4472 3.63626 16.3949 5.32617 17.2881 8.00586C17.4005 8.34297 17.5793 8.64124 17.8086 9.03516C18.0379 9.42907 18.3121 9.87621 18.5752 10.3154C18.8383 10.7546 19.091 11.1864 19.2676 11.5283C19.3626 11.7122 19.3573 11.6886 19.3926 11.792C19.27 11.8547 19.1436 11.9195 18.9775 11.9844C18.5218 12.1623 18.0469 12.2969 18.0469 12.2969C17.8895 12.3412 17.751 12.4356 17.6523 12.5659C17.5535 12.6962 17.5001 12.8551 17.5 13.0186V15.75C17.5 16.725 16.725 17.5 15.75 17.5C14.7925 17.5 14 18.2925 14 19.25V21.2686C13.9986 21.3679 14.017 21.4666 14.054 21.5588C14.0911 21.6511 14.1461 21.735 14.2159 21.8058C14.2857 21.8766 14.3688 21.9328 14.4605 21.9711C14.5522 22.0095 14.6506 22.0292 14.75 22.0292C14.8494 22.0292 14.9478 22.0095 15.0395 21.9711C15.1312 21.9328 15.2143 21.8766 15.2841 21.8058C15.3539 21.735 15.4089 21.6511 15.446 21.5588C15.483 21.4666 15.5014 21.3679 15.5 21.2686V19.25C15.5 19.1025 15.6025 19 15.75 19C17.536 19 19 17.536 19 15.75V13.5576C19.1979 13.4947 19.2565 13.4857 19.5225 13.3818C19.7946 13.2756 20.0725 13.1558 20.3281 13C20.456 12.9221 20.5802 12.8389 20.707 12.7061C20.8338 12.5732 21 12.3587 21 12.0186C21 11.4728 20.8058 11.239 20.5996 10.8398C20.3934 10.4407 20.1305 9.9927 19.8623 9.54492C19.5941 9.09714 19.3215 8.65136 19.1055 8.28027C18.8895 7.90919 18.7245 7.57012 18.7119 7.53223C17.6322 4.29323 14.9446 2 11.25 2ZM10.6738 10.0244C10.7251 10.03 10.7768 10.0304 10.8281 10.0254C11.0819 10.0407 11.2127 10.1218 11.3145 10.2363C11.427 10.3629 11.5 10.5602 11.5 10.7686C11.5 10.9769 11.427 11.1751 11.3145 11.3018C11.2066 11.4231 11.0595 11.5027 10.7734 11.5098C10.7578 11.5093 10.7422 11.5093 10.7266 11.5098C10.4405 11.5027 10.2934 11.4231 10.1855 11.3018C10.073 11.1751 10 10.9769 10 10.7686C10 10.5602 10.073 10.3629 10.1855 10.2363C10.2876 10.1215 10.4186 10.0394 10.6738 10.0244Z" fill="black"/>
</svg>
