<svg width="24" height="24" viewBox="0 0 24 24" fill="none" xmlns="http://www.w3.org/2000/svg">
<g clip-path="url(#clip0_48758_4)">
<path d="M22.5938 18.3363V6.89795C22.5938 6.34566 22.146 5.89795 21.5938 5.89795H17.5811C17.234 3.12693 14.8635 0.976074 12 0.976074C9.13645 0.976074 6.76594 3.12693 6.41888 5.89795H2.40625C1.85397 5.89795 1.40625 6.34566 1.40625 6.89795V18.3363H1C0.447715 18.3363 0 18.784 0 19.3363V20.0826C0 21.7044 1.31944 23.0238 2.94122 23.0238H21.0588C22.6806 23.0238 24 21.7044 24 20.0826V19.3363C24 18.784 23.5523 18.3363 23 18.3363H22.5938ZM16.2188 6.60107C16.2188 8.68776 14.6958 10.4251 12.7031 10.7609V9.32456C13.9148 9.01153 14.8125 7.90917 14.8125 6.60107C14.8125 5.29298 13.9148 4.19057 12.7031 3.87759V2.44125C14.6958 2.77701 16.2188 4.51439 16.2188 6.60107ZM12 5.19482C12.7754 5.19482 13.4062 5.82567 13.4062 6.60107C13.4062 7.37648 12.7754 8.00732 12 8.00732C11.2246 8.00732 10.5938 7.37648 10.5938 6.60107C10.5938 5.82567 11.2246 5.19482 12 5.19482ZM11.2969 2.44125V3.87759C10.0852 4.19062 9.1875 5.29298 9.1875 6.60107C9.1875 7.90917 10.0852 9.01157 11.2969 9.32456V10.7609C9.30417 10.4251 7.78125 8.68776 7.78125 6.60107C7.78125 4.51439 9.30417 2.77701 11.2969 2.44125ZM2.8125 7.3042H6.41888C6.76594 10.0752 9.13645 12.2261 12 12.2261C14.8635 12.2261 17.2341 10.0752 17.5811 7.3042H21.1875V18.3363H2.8125V7.3042ZM22.5938 20.0826C22.5938 20.929 21.9052 21.6176 21.0588 21.6176H2.94122C2.09484 21.6176 1.40625 20.929 1.40625 20.0826V19.7426H22.5938V20.0826Z" fill="black"/>
</g>
<defs>
<clipPath id="clip0_48758_4">
<rect width="24" height="24" fill="white"/>
</clipPath>
</defs>
</svg>
