<svg width="24" height="24" viewBox="0 0 24 24" fill="none" xmlns="http://www.w3.org/2000/svg">
<path d="M10.125 1.5C7.368 1.5 5.125 3.743 5.125 6.5C5.125 9.257 7.368 11.5 10.125 11.5C12.882 11.5 15.125 9.257 15.125 6.5C15.125 3.743 12.882 1.5 10.125 1.5Z" fill="black"/>
<path d="M4.375 13.5C3.1345 13.5 2.125 14.5095 2.125 15.75V16.1309C2.125 17.3079 2.61475 18.4394 3.46875 19.2344C4.57825 20.2679 6.6335 21.5 10.125 21.5C10.3995 21.5 10.6619 21.4901 10.9189 21.4756C9.80995 20.3096 9.125 18.736 9.125 17C9.125 15.71 9.50532 14.511 10.1533 13.5H4.375Z" fill="black"/>
<path fill-rule="evenodd" clip-rule="evenodd" d="M16.5 22.5C19.5376 22.5 22 20.0376 22 17C22 13.9624 19.5376 11.5 16.5 11.5C13.4624 11.5 11 13.9624 11 17C11 20.0376 13.4624 22.5 16.5 22.5ZM16.5 20.85C18.6263 20.85 20.35 19.1263 20.35 17C20.35 16.1352 20.0649 15.3371 19.5835 14.6943L14.1943 20.0835C14.837 20.5649 15.6352 20.85 16.5 20.85ZM13.4165 19.3057L18.8057 13.9165C18.163 13.4351 17.3648 13.15 16.5 13.15C14.3737 13.15 12.65 14.8737 12.65 17C12.65 17.8648 12.9351 18.663 13.4165 19.3057Z" fill="black"/>
</svg>
