<svg width="24" height="24" viewBox="0 0 24 24" fill="none" xmlns="http://www.w3.org/2000/svg">
<path fill-rule="evenodd" clip-rule="evenodd" d="M14 3.25C13.5858 3.25 13.25 3.58579 13.25 4V10C13.25 10.4142 13.5858 10.75 14 10.75H20C20.4142 10.75 20.75 10.4142 20.75 10V4C20.75 3.58579 20.4142 3.25 20 3.25H14ZM19.25 9.25H14.75V4.75H19.25V9.25Z" fill="black"/>
<path fill-rule="evenodd" clip-rule="evenodd" d="M4 13.25C3.58579 13.25 3.25 13.5858 3.25 14V20C3.25 20.4142 3.58579 20.75 4 20.75H10C10.4142 20.75 10.75 20.4142 10.75 20V14C10.75 13.5858 10.4142 13.25 10 13.25H4ZM4.75 19.25V14.75H9.25V19.25H4.75Z" fill="black"/>
<path fill-rule="evenodd" clip-rule="evenodd" d="M14.3483 14.3483C15.0516 13.6451 16.0054 13.25 17 13.25C17.9946 13.25 18.9484 13.6451 19.6517 14.3483C20.3549 15.0516 20.75 16.0054 20.75 17C20.75 17.9946 20.3549 18.9484 19.6517 19.6517C18.9484 20.3549 17.9946 20.75 17 20.75C16.0054 20.75 15.0516 20.3549 14.3483 19.6517C13.6451 18.9484 13.25 17.9946 13.25 17C13.25 16.0054 13.6451 15.0516 14.3483 14.3483ZM17 14.75C16.4033 14.75 15.831 14.9871 15.409 15.409C14.9871 15.831 14.75 16.4033 14.75 17C14.75 17.5967 14.9871 18.169 15.409 18.591C15.831 19.0129 16.4033 19.25 17 19.25C17.5967 19.25 18.169 19.0129 18.591 18.591C19.0129 18.169 19.25 17.5967 19.25 17C19.25 16.4033 19.0129 15.831 18.591 15.409C18.169 14.9871 17.5967 14.75 17 14.75Z" fill="black"/>
<path fill-rule="evenodd" clip-rule="evenodd" d="M7 3.25C6.50754 3.25 6.01991 3.347 5.56494 3.53545C5.10997 3.72391 4.69657 4.00013 4.34835 4.34835C4.00013 4.69657 3.72391 5.10997 3.53545 5.56494C3.347 6.01991 3.25 6.50754 3.25 7C3.25 7.49246 3.347 7.98009 3.53545 8.43506C3.72391 8.89003 4.00013 9.30343 4.34835 9.65165C4.69657 9.99987 5.10997 10.2761 5.56494 10.4645C6.01991 10.653 6.50754 10.75 7 10.75C7.49246 10.75 7.98009 10.653 8.43506 10.4645C8.89003 10.2761 9.30343 9.99987 9.65165 9.65165C9.99987 9.30343 10.2761 8.89003 10.4645 8.43506C10.653 7.98009 10.75 7.49246 10.75 7C10.75 6.50754 10.653 6.01991 10.4645 5.56494C10.2761 5.10997 9.99987 4.69657 9.65165 4.34835C9.30343 4.00013 8.89003 3.72391 8.43506 3.53545C7.98009 3.347 7.49246 3.25 7 3.25ZM6.13896 4.92127C6.41194 4.8082 6.70453 4.75 7 4.75C7.29547 4.75 7.58806 4.8082 7.86104 4.92127C8.13402 5.03434 8.38206 5.20008 8.59099 5.40901C8.79992 5.61794 8.96566 5.86598 9.07873 6.13896C9.1918 6.41194 9.25 6.70453 9.25 7C9.25 7.29547 9.1918 7.58806 9.07873 7.86104C8.96566 8.13402 8.79992 8.38206 8.59099 8.59099C8.38206 8.79992 8.13402 8.96566 7.86104 9.07873C7.58806 9.1918 7.29547 9.25 7 9.25C6.70453 9.25 6.41194 9.1918 6.13896 9.07873C5.86598 8.96566 5.61794 8.79992 5.40901 8.59099C5.20008 8.38206 5.03434 8.13402 4.92127 7.86104C4.8082 7.58805 4.75 7.29547 4.75 7C4.75 6.70453 4.8082 6.41195 4.92127 6.13896C5.03434 5.86598 5.20008 5.61794 5.40901 5.40901C5.61794 5.20008 5.86598 5.03434 6.13896 4.92127Z" fill="black"/>
</svg>
