<svg width="24" height="24" viewBox="0 0 24 24" fill="none" xmlns="http://www.w3.org/2000/svg">
<path fill-rule="evenodd" clip-rule="evenodd" d="M2.62988 5.375C2.62988 3.85622 3.8611 2.625 5.37988 2.625H17.3799C18.8987 2.625 20.1299 3.85622 20.1299 5.375V9.375C20.1299 9.78921 19.7941 10.125 19.3799 10.125C18.9657 10.125 18.6299 9.78921 18.6299 9.375V8.125H4.12988V17.375C4.12988 18.0654 4.68953 18.625 5.37988 18.625H9.37988C9.7941 18.625 10.1299 18.9608 10.1299 19.375C10.1299 19.7892 9.7941 20.125 9.37988 20.125H5.37988C3.8611 20.125 2.62988 18.8938 2.62988 17.375V5.375ZM18.6299 5.375V6.625H4.12988V5.375C4.12988 4.68464 4.68953 4.125 5.37988 4.125H17.3799C18.0702 4.125 18.6299 4.68464 18.6299 5.375Z" fill="black"/>
<path fill-rule="evenodd" clip-rule="evenodd" d="M6.37988 9.625C5.96567 9.625 5.62988 9.96079 5.62988 10.375V13.375C5.62988 13.7892 5.96567 14.125 6.37988 14.125H9.37988C9.7941 14.125 10.1299 13.7892 10.1299 13.375V10.375C10.1299 9.96079 9.7941 9.625 9.37988 9.625H6.37988ZM7.12988 12.625V11.125H8.62988V12.625H7.12988Z" fill="black"/>
<path fill-rule="evenodd" clip-rule="evenodd" d="M11.9908 19.7641C14.1387 21.912 17.6211 21.912 19.769 19.7641C21.9169 17.6162 21.9169 14.1338 19.769 11.9859C17.6211 9.83803 14.1387 9.83803 11.9908 11.9859C9.84291 14.1338 9.84291 17.6162 11.9908 19.7641ZM17.9803 14.2197C18.2732 14.5126 18.2732 14.9874 17.9803 15.2803L15.9803 17.2803C15.6874 17.5732 15.2125 17.5732 14.9196 17.2803L13.9196 16.2803C13.6267 15.9874 13.6267 15.5126 13.9196 15.2197C14.2125 14.9268 14.6874 14.9268 14.9803 15.2197L15.45 15.6893L16.9196 14.2197C17.2125 13.9268 17.6874 13.9268 17.9803 14.2197Z" fill="black"/>
</svg>
