<svg width="24" height="24" viewBox="0 0 24 24" fill="none" xmlns="http://www.w3.org/2000/svg">
<path d="M4.75 2C3.785 2 3 2.785 3 3.75V8.75C3 9.715 3.785 10.5 4.75 10.5H6.5V10.25C6.5 8.7335 7.7335 7.5 9.25 7.5C10.18 7.5 11.002 7.96483 11.5 8.67383V3.75C11.5 2.785 10.715 2 9.75 2H4.75ZM14.25 2C13.2925 2 12.5 2.79252 12.5 3.75V8.75C12.5 9.70748 13.2925 10.5 14.25 10.5H19.25C20.2075 10.5 21 9.70748 21 8.75V3.75C21 2.79252 20.2075 2 19.25 2H14.25ZM14.25 3.5H19.25C19.3975 3.5 19.5 3.60248 19.5 3.75V8.75C19.5 8.89752 19.3975 9 19.25 9H14.25C14.1025 9 14 8.89752 14 8.75V3.75C14 3.60248 14.1025 3.5 14.25 3.5ZM9.24902 4C9.4409 4 9.6328 4.07323 9.7793 4.21973C10.0723 4.51223 10.0723 4.98777 9.7793 5.28027L7.2793 7.78027C7.1338 7.92677 6.942 8 6.75 8C6.558 8 6.36623 7.92677 6.21973 7.78027L4.71973 6.28027C4.42673 5.98777 4.42673 5.51223 4.71973 5.21973C5.01273 4.92673 5.48727 4.92673 5.78027 5.21973L6.74902 6.18945L8.71875 4.21973C8.86525 4.07323 9.05715 4 9.24902 4ZM9.25098 8.5C8.28598 8.5 7.5 9.285 7.5 10.25V14.9033C6 16.9753 6 17.627 6 17.877C6 18.915 6.72477 20.1844 8.15527 21.6494C8.69077 22.1984 9.42223 22.5 10.1777 22.5C10.3392 22.5 10.5016 22.486 10.6641 22.458L13.6484 21.9414C14.7064 21.7574 15.6065 21.0205 15.998 20.0195C16.4605 18.8365 16.7564 18.024 16.8779 17.6025C17.1139 16.7805 17.0057 15.9066 16.5732 15.1416C16.1082 14.3206 15.3112 13.7075 14.3867 13.46C14.3662 13.4545 12.9915 13.2081 11.001 12.8076V10.25C11.001 9.285 10.216 8.5 9.25098 8.5Z" fill="black"/>
</svg>
