<svg width="24" height="24" viewBox="0 0 24 24" fill="none" xmlns="http://www.w3.org/2000/svg">
<path fill-rule="evenodd" clip-rule="evenodd" d="M12.3786 17.4665C11.7831 17.5516 11.2793 17.3209 10.9517 16.9434L10.1056 17.7895C9.1293 18.7658 7.54639 18.7658 6.57008 17.7895L6.21653 17.436C5.24022 16.4597 5.24022 14.8767 6.21653 13.9004L13.2876 6.82936C14.2639 5.85305 15.8468 5.85305 16.8231 6.82936L17.1767 7.18292C18.153 8.15923 18.153 9.74214 17.1767 10.7185L16.3244 11.5707C16.7019 11.8983 16.9326 12.4021 16.8475 12.9976L16.6424 14.433L21.4154 19.206C22.1965 19.987 22.1965 21.2534 21.4154 22.0344C20.6344 22.8155 19.368 22.8155 18.587 22.0344L13.814 17.2614L12.3786 17.4665ZM9.04495 16.7289L10.9759 14.798C10.9905 14.7822 11.0055 14.7666 11.0209 14.7512L14.1322 11.6399C14.1476 11.6245 14.1632 11.6095 14.179 11.5949L16.116 9.65779C16.5065 9.26727 16.5065 8.6341 16.116 8.24358L15.7625 7.89002C15.3719 7.4995 14.7388 7.4995 14.3483 7.89002L7.27719 14.9611C6.88666 15.3516 6.88666 15.9848 7.27719 16.3753L7.63074 16.7289C8.02127 17.1194 8.65443 17.1194 9.04495 16.7289ZM15.205 12.6901L12.0711 15.824C12.0204 15.8926 12.0768 15.9944 12.1664 15.9816L14.0969 15.7058C14.1646 15.6961 14.2326 15.7006 14.297 15.7178C14.3807 15.7402 14.4582 15.7843 14.5211 15.8472L19.6476 20.9738C19.8429 21.169 20.1595 21.169 20.3547 20.9738C20.55 20.7785 20.55 20.4619 20.3547 20.2666L15.2282 15.1401C15.1653 15.0772 15.1212 14.9997 15.0988 14.916C15.0816 14.8516 15.0771 14.7836 15.0868 14.7159L15.3626 12.7855C15.3754 12.6958 15.2736 12.6394 15.205 12.6901Z" fill="black"/>
<path fill-rule="evenodd" clip-rule="evenodd" d="M6.38976 3.25147C6.38976 2.83725 6.05398 2.50146 5.63976 2.50146C5.22555 2.50147 4.88976 2.83725 4.88976 3.25147C4.88976 3.98081 4.60003 4.68028 4.08431 5.19601C3.56858 5.71173 2.86911 6.00146 2.13976 6.00146C1.72555 6.00146 1.38976 6.33725 1.38976 6.75146C1.38976 7.16568 1.72555 7.50146 2.13976 7.50146C2.86911 7.50146 3.56858 7.7912 4.08431 8.30692C4.60003 8.82265 4.88976 9.52212 4.88976 10.2515C4.88976 10.6657 5.22555 11.0015 5.63976 11.0015C6.05398 11.0015 6.38976 10.6657 6.38976 10.2515C6.38976 9.52212 6.67949 8.82265 7.19522 8.30692C7.71094 7.7912 8.41042 7.50147 9.13976 7.50147C9.55398 7.50147 9.88976 7.16568 9.88976 6.75146C9.88976 6.33725 9.55398 6.00146 9.13976 6.00147C8.41042 6.00147 7.71094 5.71173 7.19522 5.19601C6.67949 4.68028 6.38976 3.98081 6.38976 3.25147ZM5.14497 6.25667C5.3289 6.07273 5.49424 5.87367 5.63976 5.66241C5.78528 5.87367 5.95062 6.07273 6.13456 6.25667C6.31849 6.44061 6.51756 6.60594 6.72882 6.75147C6.51756 6.89699 6.31849 7.06232 6.13456 7.24626C5.95062 7.4302 5.78529 7.62926 5.63976 7.84052C5.49424 7.62926 5.3289 7.4302 5.14497 7.24626C4.96103 7.06232 4.76197 6.89699 4.55071 6.75146C4.76197 6.60594 4.96103 6.44061 5.14497 6.25667Z" fill="black"/>
<path d="M3.61908 13.7818C3.91198 14.0747 4.38685 14.0747 4.67974 13.7818C4.97264 13.4889 4.97264 13.014 4.67974 12.7211L2.17974 10.2211C1.88685 9.92824 1.41198 9.92824 1.11908 10.2211C0.826192 10.514 0.82619 10.9889 1.11908 11.2818L3.61908 13.7818Z" fill="black"/>
<path d="M14.3898 3.75147C14.3898 4.16568 14.054 4.50146 13.6398 4.50146H13.1398C12.7255 4.50146 12.3898 4.16568 12.3898 3.75146C12.3898 3.33725 12.7255 3.00146 13.1398 3.00146H13.6398C14.054 3.00146 14.3898 3.33725 14.3898 3.75147Z" fill="black"/>
<path d="M10.1398 4.50147C10.554 4.50147 10.8898 4.16568 10.8898 3.75147C10.8898 3.33725 10.554 3.00147 10.1398 3.00147H9.63976C9.22555 3.00147 8.88976 3.33725 8.88976 3.75146C8.88976 4.16568 9.22555 4.50147 9.63976 4.50147H10.1398Z" fill="black"/>
<path d="M11.6398 6.50146C11.2255 6.50146 10.8898 6.16568 10.8898 5.75146V5.25146C10.8898 4.83725 11.2255 4.50146 11.6398 4.50146C12.054 4.50146 12.3898 4.83725 12.3898 5.25146V5.75146C12.3898 6.16568 12.054 6.50146 11.6398 6.50146Z" fill="black"/>
<path d="M10.8898 2.25146C10.8898 2.66568 11.2255 3.00146 11.6398 3.00146C12.054 3.00146 12.3898 2.66568 12.3898 2.25146V1.75146C12.3898 1.33725 12.054 1.00146 11.6398 1.00146C11.2255 1.00146 10.8898 1.33725 10.8898 1.75146V2.25146Z" fill="black"/>
</svg>
