<svg width="24" height="24" viewBox="0 0 24 24" fill="none" xmlns="http://www.w3.org/2000/svg">
<path d="M12.75 4C12.3358 4 12 3.66421 12 3.25V2.75C12 2.33579 12.3358 2 12.75 2C13.1642 2 13.5 2.33579 13.5 2.75V3.25C13.5 3.66421 13.1642 4 12.75 4Z" fill="black"/>
<path d="M14.75 5.5C15.1642 5.5 15.5 5.16421 15.5 4.75C15.5 4.33579 15.1642 4 14.75 4H14.25C13.8358 4 13.5 4.33579 13.5 4.75C13.5 5.16421 13.8358 5.5 14.25 5.5H14.75Z" fill="black"/>
<path fill-rule="evenodd" clip-rule="evenodd" d="M6.75 5C7.16421 5 7.5 5.33579 7.5 5.75C7.5 6.61195 7.84241 7.4386 8.4519 8.0481C9.0614 8.65759 9.88805 9 10.75 9C11.1642 9 11.5 9.33579 11.5 9.75C11.5 10.1642 11.1642 10.5 10.75 10.5C9.88805 10.5 9.0614 10.8424 8.4519 11.4519C7.84241 12.0614 7.5 12.888 7.5 13.75C7.5 14.1642 7.16421 14.5 6.75 14.5C6.33579 14.5 6 14.1642 6 13.75C6 12.888 5.65759 12.0614 5.0481 11.4519C4.4386 10.8424 3.61195 10.5 2.75 10.5C2.33579 10.5 2 10.1642 2 9.75C2 9.33579 2.33579 9 2.75 9C3.61195 9 4.4386 8.65759 5.0481 8.0481C5.65759 7.4386 6 6.61195 6 5.75C6 5.33579 6.33579 5 6.75 5ZM6.75 8.31177C6.56698 8.59756 6.35248 8.86504 6.10876 9.10876C5.86504 9.35248 5.59756 9.56698 5.31177 9.75C5.59756 9.93303 5.86504 10.1475 6.10876 10.3912C6.35248 10.635 6.56698 10.9024 6.75 11.1882C6.93303 10.9024 7.14752 10.635 7.39124 10.3912C7.63496 10.1475 7.90244 9.93303 8.18823 9.75C7.90244 9.56698 7.63496 9.35248 7.39124 9.10876C7.14752 8.86504 6.93303 8.59756 6.75 8.31177Z" fill="black"/>
<path fill-rule="evenodd" clip-rule="evenodd" d="M4 22C4 21.5858 4.33579 21.25 4.75 21.25H8.29764C8.29713 21.2337 8.29688 21.2172 8.29688 21.2008C8.29688 19.8464 9.39484 18.7484 10.7493 18.7484H10.7845C10.7612 18.5851 10.7491 18.4182 10.7491 18.2484C10.7491 16.411 12.1649 14.9043 13.9652 14.7597C13.9691 14.1594 14.2973 13.5599 14.9693 13.2902L16.3149 12.75L18.3208 5.26411C18.6066 4.19718 19.7033 3.56401 20.7702 3.84989C21.8372 4.13578 22.4703 5.23245 22.1845 6.29938L20.1786 13.7853L21.0739 14.9259C21.6245 15.6274 21.4734 16.5012 20.9595 17.0339C21.453 17.6372 21.7491 18.4082 21.7491 19.2484C21.7491 21.0116 20.2491 22.7484 18.7491 22.7484H9.84449C9.83169 22.7484 9.81893 22.7482 9.8062 22.7479C9.78765 22.7493 9.76891 22.75 9.75 22.75H4.75C4.33579 22.75 4 22.4142 4 22ZM15.5394 14.8716C15.4466 14.8467 15.4388 14.718 15.528 14.6822L17.3377 13.9558C17.4012 13.9303 17.4579 13.8925 17.505 13.8454C17.5662 13.7841 17.6114 13.7071 17.6344 13.6212L19.7696 5.65234C19.8411 5.3856 20.1153 5.22731 20.382 5.29878C20.6488 5.37025 20.807 5.64442 20.7356 5.91116L18.6003 13.88C18.5773 13.966 18.5779 14.0552 18.6003 14.1389C18.6176 14.2032 18.6477 14.2644 18.69 14.3182L19.894 15.8521C19.9533 15.9277 19.8823 16.0353 19.7895 16.0104L15.5394 14.8716ZM18.2491 21.2484H9.84449C9.81819 21.2484 9.79688 21.2271 9.79688 21.2008C9.79688 21.0966 9.81359 20.9964 9.84449 20.9026C9.96964 20.5226 10.3274 20.2484 10.7493 20.2484H12.5C12.9142 20.2484 13.25 19.9126 13.25 19.4984C13.25 19.0842 12.9142 18.7484 12.5 18.7484H12.2491L12.2491 18.2595L12.2491 18.2484C12.2491 17.1438 13.1445 16.2484 14.2491 16.2484C14.4751 16.2484 14.6923 16.2859 14.8949 16.355L18.6491 17.2884C19.562 17.4737 20.2491 18.2808 20.2491 19.2484C20.2491 20.1803 19.6117 20.9634 18.7491 21.1854C18.5893 21.2265 18.4217 21.2484 18.2491 21.2484Z" fill="black"/>
<path d="M12 4.75C12 5.16421 11.6642 5.5 11.25 5.5H10.75C10.3358 5.5 10 5.16421 10 4.75C10 4.33579 10.3358 4 10.75 4H11.25C11.6642 4 12 4.33579 12 4.75Z" fill="black"/>
<path d="M12 6.75C12 7.16421 12.3358 7.5 12.75 7.5C13.1642 7.5 13.5 7.16421 13.5 6.75V6.25C13.5 5.83579 13.1642 5.5 12.75 5.5C12.3358 5.5 12 5.83579 12 6.25V6.75Z" fill="black"/>
</svg>
