<svg width="24" height="24" viewBox="0 0 24 24" fill="none" xmlns="http://www.w3.org/2000/svg">
<path fill-rule="evenodd" clip-rule="evenodd" d="M21.0768 12.5287C21.4601 13.017 21.5033 13.5888 21.3209 14.0709C22.0917 14.4528 22.6243 15.2136 22.7011 16.0938L23.0866 20.5151C23.2071 21.8977 21.9171 22.9799 20.5765 22.6206L10.3644 19.8843C9.02379 19.5251 8.44767 17.943 9.24342 16.8058L11.7879 13.1696C12.2935 12.4472 13.1328 12.0547 13.9895 12.1075C14.0723 11.5984 14.3957 11.1243 14.9721 10.8929L16.3178 10.3528L18.3236 2.86689C18.6095 1.79996 19.7062 1.16679 20.7731 1.45268C21.8401 1.73856 22.4732 2.83524 22.1873 3.90217L20.1815 11.3881L21.0768 12.5287ZM15.154 13.9233C15.1236 13.9151 15.0938 13.9063 15.0646 13.8968L14.095 13.637C13.6889 13.5282 13.258 13.6851 13.0169 14.0296L10.4724 17.6658C10.2735 17.9501 10.4175 18.3456 10.7527 18.4354L11.9944 18.7682L12.3824 17.3202C12.4896 16.9201 12.9008 16.6827 13.3009 16.7899C13.701 16.8971 13.9385 17.3083 13.8313 17.7084L13.4433 19.1564L15.1339 19.6094L15.7808 17.1952C15.888 16.7951 16.2993 16.5577 16.6994 16.6649C17.0995 16.7721 17.3369 17.1833 17.2297 17.5834L16.5828 19.9976L18.0303 20.3855L18.1597 19.9022C18.2669 19.5021 18.6782 19.2647 19.0783 19.3719C19.4784 19.4791 19.7158 19.8904 19.6086 20.2905L19.4791 20.7737L20.9647 21.1717C21.2999 21.2615 21.6224 20.991 21.5922 20.6454L21.2067 16.2241C21.1702 15.8051 20.8755 15.4538 20.4693 15.345L19.4948 15.0839C19.4647 15.0775 19.4345 15.0702 19.4041 15.0621L15.154 13.9233Z" fill="black"/>
<path fill-rule="evenodd" clip-rule="evenodd" d="M10.0566 11.8434C11.2993 11.8434 12.3066 10.836 12.3066 9.59336C12.3066 8.35072 11.2993 7.34336 10.0566 7.34336C8.814 7.34336 7.80664 8.35072 7.80664 9.59336C7.80664 10.836 8.814 11.8434 10.0566 11.8434Z" fill="black"/>
<path fill-rule="evenodd" clip-rule="evenodd" d="M5.05664 18.0934C6.43735 18.0934 7.55664 16.9741 7.55664 15.5934C7.55664 14.2127 6.43735 13.0934 5.05664 13.0934C3.67593 13.0934 2.55664 14.2127 2.55664 15.5934C2.55664 16.9741 3.67593 18.0934 5.05664 18.0934Z" fill="black"/>
<path fill-rule="evenodd" clip-rule="evenodd" d="M6.05664 9.34336C6.05664 10.586 5.04928 11.5934 3.80664 11.5934C2.564 11.5934 1.55664 10.586 1.55664 9.34336C1.55664 8.10072 2.564 7.09336 3.80664 7.09336C5.04928 7.09336 6.05664 8.10072 6.05664 9.34336Z" fill="black"/>
</svg>
