<svg width="24" height="24" viewBox="0 0 24 24" fill="none" xmlns="http://www.w3.org/2000/svg">
<path fill-rule="evenodd" clip-rule="evenodd" d="M21.1092 11.1093C21.1092 12.0837 20.9563 13.0223 20.673 13.9025C20.3023 13.4341 19.7287 13.1336 19.085 13.1336C17.967 13.1336 17.0607 14.0399 17.0607 15.1579V18.6847C15.6132 19.6536 13.8726 20.2186 11.9999 20.2186C6.969 20.2186 2.89062 16.1402 2.89062 11.1093C2.89062 6.07838 6.969 2 11.9999 2C17.0309 2 21.1092 6.07838 21.1092 11.1093ZM12.759 6.04858C12.759 5.62934 12.4192 5.28947 11.9999 5.28947C11.5807 5.28947 11.2408 5.62934 11.2408 6.04858V11.1093C11.2408 11.3106 11.3208 11.5037 11.4632 11.6461L14.4996 14.6825C14.7961 14.979 15.2767 14.979 15.5731 14.6825C15.8696 14.3861 15.8696 13.9054 15.5731 13.609L12.759 10.7949V6.04858Z" fill="black"/>
<path fill-rule="evenodd" clip-rule="evenodd" d="M19.085 14.3988C19.5042 14.3988 19.8441 14.7387 19.8441 15.1579V18.1943C19.8441 18.6136 19.5042 18.9534 19.085 18.9534C18.6657 18.9534 18.3258 18.6136 18.3258 18.1943V15.1579C18.3258 14.7387 18.6657 14.3988 19.085 14.3988Z" fill="black"/>
<path fill-rule="evenodd" clip-rule="evenodd" d="M19.085 20.4717C19.5042 20.4717 19.8441 20.8115 19.8441 21.2308V21.2409C19.8441 21.6601 19.5042 22 19.085 22C18.6657 22 18.3258 21.6601 18.3258 21.2409V21.2308C18.3258 20.8115 18.6657 20.4717 19.085 20.4717Z" fill="black"/>
</svg>
