<svg width="24" height="24" viewBox="0 0 24 24" fill="none" xmlns="http://www.w3.org/2000/svg">
<path fill-rule="evenodd" clip-rule="evenodd" d="M9.28482 2.9015C11.2414 2.31852 13.3337 2.3808 15.2521 3.07913C17.1706 3.77746 18.8133 5.07475 19.9373 6.77908C21.0613 8.48342 21.6069 10.5043 21.4933 12.5427C21.4709 12.946 21.1257 13.2548 20.7224 13.2323C20.3191 13.2098 20.0103 12.8647 20.0328 12.4613C20.1289 10.7365 19.6673 9.02655 18.7162 7.58442C17.7651 6.14229 16.3751 5.04459 14.7518 4.4537C13.1285 3.8628 11.3581 3.8101 9.70252 4.30339C8.04694 4.79668 6.5941 5.80976 5.55893 7.19277C4.52375 8.57577 3.96122 10.2552 3.95456 11.9827C3.94789 13.7102 4.49743 15.394 5.5219 16.785C6.54636 18.1759 7.99134 19.2002 9.64306 19.7062C11.2948 20.2123 13.0655 20.1733 14.6934 19.5949C15.074 19.4597 15.4922 19.6586 15.6274 20.0393C15.7626 20.4199 15.5637 20.8381 15.1831 20.9733C13.2593 21.6568 11.1666 21.7029 9.21455 21.1049C7.26251 20.5068 5.55482 19.2963 4.34408 17.6524C3.13335 16.0086 2.48389 14.0187 2.49177 11.9771C2.49965 9.93551 3.16446 7.95068 4.38784 6.31622C5.61123 4.68176 7.32822 3.48448 9.28482 2.9015Z" fill="black"/>
<path fill-rule="evenodd" clip-rule="evenodd" d="M11.9999 6.40509C12.4039 6.40509 12.7313 6.73255 12.7313 7.13649V11.7095L15.4427 14.4209C15.7283 14.7065 15.7283 15.1696 15.4427 15.4553C15.1571 15.7409 14.694 15.7409 14.4084 15.4553L11.4828 12.5297C11.3456 12.3925 11.2685 12.2065 11.2685 12.0125V7.13649C11.2685 6.73255 11.596 6.40509 11.9999 6.40509Z" fill="black"/>
<path fill-rule="evenodd" clip-rule="evenodd" d="M18.8263 15.1819C19.2303 15.1819 19.5577 15.5093 19.5577 15.9133V18.8389C19.5577 19.2428 19.2303 19.5703 18.8263 19.5703C18.4224 19.5703 18.0949 19.2428 18.0949 18.8389V15.9133C18.0949 15.5093 18.4224 15.1819 18.8263 15.1819Z" fill="black"/>
<path fill-rule="evenodd" clip-rule="evenodd" d="M18.8263 21.0331C19.2303 21.0331 19.5577 21.3605 19.5577 21.7645V21.7742C19.5577 22.1782 19.2303 22.5056 18.8263 22.5056C18.4224 22.5056 18.0949 22.1782 18.0949 21.7742V21.7645C18.0949 21.3605 18.4224 21.0331 18.8263 21.0331Z" fill="black"/>
</svg>
