<svg width="24" height="24" viewBox="0 0 24 24" fill="none" xmlns="http://www.w3.org/2000/svg">
<path d="M5.70007 21.875C5.15007 21.9583 4.65423 21.8292 4.21257 21.4875C3.7709 21.1458 3.51673 20.7 3.45007 20.15L2.12507 9.225C2.0584 8.675 2.19173 8.18333 2.52507 7.75C2.8584 7.31667 3.30007 7.06667 3.85007 7L5.00007 6.85V15C5.00007 16.1 5.39173 17.0417 6.17507 17.825C6.9584 18.6083 7.90007 19 9.00007 19H18.3001C18.2001 19.4 18.0001 19.7458 17.7001 20.0375C17.4001 20.3292 17.0334 20.5 16.6001 20.55L5.70007 21.875ZM9.00007 17C8.45007 17 7.97923 16.8042 7.58757 16.4125C7.1959 16.0208 7.00007 15.55 7.00007 15V4C7.00007 3.45 7.1959 2.97917 7.58757 2.5875C7.97923 2.19583 8.45007 2 9.00007 2H20.0001C20.5501 2 21.0209 2.19583 21.4126 2.5875C21.8042 2.97917 22.0001 3.45 22.0001 4V15C22.0001 15.55 21.8042 16.0208 21.4126 16.4125C21.0209 16.8042 20.5501 17 20.0001 17H9.00007Z" fill="black"/>
</svg>
