<svg width="24" height="24" viewBox="0 0 24 24" fill="none" xmlns="http://www.w3.org/2000/svg">
<path fill-rule="evenodd" clip-rule="evenodd" d="M12 2.25C9.41414 2.25 6.93419 3.27723 5.10571 5.10571C3.27723 6.93419 2.25 9.41414 2.25 12C2.25 14.5859 3.27723 17.0658 5.10571 18.8943C6.92687 20.7155 9.39431 21.7418 11.969 21.75C12.3832 21.7802 12.7972 21.684 13.156 21.4735C13.5254 21.2566 13.8177 20.9295 13.9917 20.538C14.1657 20.1465 14.2127 19.7103 14.126 19.2908C14.0394 18.8712 13.8235 18.4893 13.5086 18.1988C13.4644 18.158 13.4155 18.1227 13.3629 18.0937C13.1189 17.9587 12.9269 17.746 12.8177 17.4894C12.7084 17.2329 12.6881 16.9471 12.76 16.6777C12.8318 16.4082 12.9917 16.1705 13.2142 16.0024C13.4367 15.8343 13.7091 15.7455 13.9879 15.75H16.5C17.8655 15.75 19.1908 15.2678 20.1802 14.3886C21.1728 13.5066 21.75 12.2892 21.75 11C21.75 6.08717 17.2987 2.25 12 2.25ZM8.5 8.75C8.03587 8.75 7.59075 8.93438 7.26256 9.26256C6.93438 9.59075 6.75 10.0359 6.75 10.5C6.75 10.9641 6.93438 11.4092 7.26256 11.7374C7.59075 12.0656 8.03587 12.25 8.5 12.25C8.96413 12.25 9.40925 12.0656 9.73744 11.7374C10.0656 11.4092 10.25 10.9641 10.25 10.5C10.25 10.0359 10.0656 9.59075 9.73744 9.26256C9.40925 8.93438 8.96413 8.75 8.5 8.75ZM11.2626 6.26256C11.5908 5.93438 12.0359 5.75 12.5 5.75C12.9641 5.75 13.4092 5.93438 13.7374 6.26256C14.0656 6.59075 14.25 7.03587 14.25 7.5C14.25 7.96413 14.0656 8.40925 13.7374 8.73744C13.4092 9.06563 12.9641 9.25 12.5 9.25C12.0359 9.25 11.5908 9.06563 11.2626 8.73744C10.9344 8.40925 10.75 7.96413 10.75 7.5C10.75 7.03587 10.9344 6.59075 11.2626 6.26256ZM16.5 8.75C16.0359 8.75 15.5908 8.93438 15.2626 9.26256C14.9344 9.59075 14.75 10.0359 14.75 10.5C14.75 10.9641 14.9344 11.4092 15.2626 11.7374C15.5908 12.0656 16.0359 12.25 16.5 12.25C16.9641 12.25 17.4092 12.0656 17.7374 11.7374C18.0656 11.4092 18.25 10.9641 18.25 10.5C18.25 10.0359 18.0656 9.59075 17.7374 9.26256C17.4092 8.93437 16.9641 8.75 16.5 8.75Z" fill="black"/>
</svg>
