<svg width="24" height="24" viewBox="0 0 24 24" fill="none" xmlns="http://www.w3.org/2000/svg">
<path d="M19.2973 3H4.7027C3.21081 3 2 4.21475 2 5.71149V14.9306C2 16.4273 3.21081 17.642 4.7027 17.642H6.32432V21.4381C6.32432 21.8828 6.83243 22.1377 7.18919 21.872L12.8108 17.642H19.2973C20.7892 17.642 22 16.4273 22 14.9306V5.71149C22 4.21475 20.7892 3 19.2973 3ZM14.4324 13.0325H7.40541C6.95676 13.0325 6.59459 12.6692 6.59459 12.2191C6.59459 11.769 6.95676 11.4056 7.40541 11.4056H14.4324C14.8811 11.4056 15.2432 11.769 15.2432 12.2191C15.2432 12.6692 14.8811 13.0325 14.4324 13.0325ZM16.5946 9.23643H7.40541C6.95676 9.23643 6.59459 8.87309 6.59459 8.42298C6.59459 7.97287 6.95676 7.60953 7.40541 7.60953H16.5946C17.0432 7.60953 17.4054 7.97287 17.4054 8.42298C17.4054 8.87309 17.0432 9.23643 16.5946 9.23643Z" fill="black"/>
</svg>
