<svg width="24" height="24" viewBox="0 0 24 24" fill="none" xmlns="http://www.w3.org/2000/svg">
<path d="M12 1.99902C6.48615 1.99902 2 6.48517 2 11.999C2 13.6367 2.43135 15.1674 3.13086 16.5322L2.04688 20.4131C1.7944 21.3148 2.68596 22.2063 3.58789 21.9541L7.47168 20.8701C8.83537 21.5682 10.3639 21.999 12 21.999C17.5139 21.999 22 17.5129 22 11.999C22 6.48517 17.5139 1.99902 12 1.99902ZM12 3.49902C16.7031 3.49902 20.5 7.29588 20.5 11.999C20.5 16.7022 16.7031 20.499 12 20.499C10.4992 20.499 9.0953 20.1088 7.87109 19.4268C7.69853 19.3306 7.495 19.3064 7.30469 19.3594L3.61133 20.3896L4.64258 16.6982C4.69585 16.5076 4.67163 16.3037 4.5752 16.1309C3.89183 14.9058 3.5 13.5013 3.5 11.999C3.5 7.29588 7.29685 3.49902 12 3.49902ZM16.75 8L7.25 8.00098C7.15062 7.99957 7.05194 8.01793 6.95972 8.05499C6.86749 8.09205 6.78355 8.14707 6.71277 8.21686C6.642 8.28664 6.58579 8.36979 6.54743 8.46149C6.50907 8.55318 6.48932 8.65158 6.48932 8.75098C6.48932 8.85037 6.50907 8.94877 6.54743 9.04047C6.58579 9.13216 6.642 9.21531 6.71277 9.2851C6.78355 9.35488 6.86749 9.4099 6.95972 9.44696C7.05194 9.48402 7.15062 9.50238 7.25 9.50098L16.75 9.5C16.8494 9.50141 16.9481 9.48304 17.0403 9.44598C17.1325 9.40892 17.2164 9.3539 17.2872 9.28412C17.358 9.21434 17.4142 9.13118 17.4526 9.03949C17.4909 8.9478 17.5107 8.84939 17.5107 8.75C17.5107 8.65061 17.4909 8.5522 17.4526 8.46051C17.4142 8.36882 17.358 8.28566 17.2872 8.21588C17.2164 8.1461 17.1325 8.09108 17.0403 8.05402C16.9481 8.01696 16.8494 7.99859 16.75 8ZM16.75 11.249L7.25 11.25C7.15062 11.2486 7.05194 11.267 6.95972 11.304C6.86749 11.3411 6.78355 11.3961 6.71277 11.4659C6.642 11.5357 6.58579 11.6188 6.54743 11.7105C6.50907 11.8022 6.48932 11.9006 6.48932 12C6.48932 12.0994 6.50907 12.1978 6.54743 12.2895C6.58579 12.3812 6.642 12.4643 6.71277 12.5341C6.78355 12.6039 6.86749 12.6589 6.95972 12.696C7.05194 12.733 7.15062 12.7514 7.25 12.75L16.75 12.749C16.8494 12.7504 16.9481 12.7321 17.0403 12.695C17.1325 12.6579 17.2164 12.6029 17.2872 12.5331C17.358 12.4634 17.4142 12.3802 17.4526 12.2885C17.4909 12.1968 17.5107 12.0984 17.5107 11.999C17.5107 11.8996 17.4909 11.8012 17.4526 11.7095C17.4142 11.6178 17.358 11.5347 17.2872 11.4649C17.2164 11.3951 17.1325 11.3401 17.0403 11.303C16.9481 11.266 16.8494 11.2476 16.75 11.249ZM11.75 14.5L7.25 14.501C7.15062 14.4996 7.05194 14.5179 6.95972 14.555C6.86749 14.5921 6.78355 14.6471 6.71277 14.7169C6.642 14.7866 6.58579 14.8698 6.54743 14.9615C6.50907 15.0532 6.48932 15.1516 6.48932 15.251C6.48932 15.3504 6.50907 15.4488 6.54743 15.5405C6.58579 15.6322 6.642 15.7153 6.71277 15.7851C6.78355 15.8549 6.86749 15.9099 6.95972 15.947C7.05194 15.984 7.15062 16.0024 7.25 16.001L11.75 16C11.8494 16.0014 11.9481 15.983 12.0403 15.946C12.1325 15.9089 12.2164 15.8539 12.2872 15.7841C12.358 15.7143 12.4142 15.6312 12.4526 15.5395C12.4909 15.4478 12.5107 15.3494 12.5107 15.25C12.5107 15.1506 12.4909 15.0522 12.4526 14.9605C12.4142 14.8688 12.358 14.7857 12.2872 14.7159C12.2164 14.6461 12.1325 14.5911 12.0403 14.554C11.9481 14.517 11.8494 14.4986 11.75 14.5Z" fill="black"/>
</svg>
