<svg width="24" height="24" viewBox="0 0 24 24" fill="none" xmlns="http://www.w3.org/2000/svg">
<path fill-rule="evenodd" clip-rule="evenodd" d="M11.4697 2.46967C11.7626 2.17678 12.2374 2.17678 12.5303 2.46967L15.5303 5.46967C15.8232 5.76256 15.8232 6.23744 15.5303 6.53033L12.5303 9.53033C12.2374 9.82322 11.7626 9.82322 11.4697 9.53033L8.46967 6.53033C8.17678 6.23744 8.17678 5.76256 8.46967 5.46967L11.4697 2.46967Z" fill="black"/>
<path fill-rule="evenodd" clip-rule="evenodd" d="M6.53033 8.46967C6.23744 8.17678 5.76256 8.17678 5.46967 8.46967L2.46967 11.4697C2.17678 11.7626 2.17678 12.2374 2.46967 12.5303L5.46967 15.5303C5.76256 15.8232 6.23744 15.8232 6.53033 15.5303L9.53033 12.5303C9.82322 12.2374 9.82322 11.7626 9.53033 11.4697L6.53033 8.46967Z" fill="black"/>
<path fill-rule="evenodd" clip-rule="evenodd" d="M18.5303 8.46967C18.2374 8.17678 17.7626 8.17678 17.4697 8.46967L14.4697 11.4697C14.1768 11.7626 14.1768 12.2374 14.4697 12.5303L17.4697 15.5303C17.7626 15.8232 18.2374 15.8232 18.5303 15.5303L21.5303 12.5303C21.8232 12.2374 21.8232 11.7626 21.5303 11.4697L18.5303 8.46967Z" fill="black"/>
<path fill-rule="evenodd" clip-rule="evenodd" d="M15.5303 17.4697L12.5303 14.4697C12.2374 14.1768 11.7626 14.1768 11.4697 14.4697L8.46967 17.4697C8.17678 17.7626 8.17678 18.2374 8.46967 18.5303L11.4697 21.5303C11.7626 21.8232 12.2374 21.8232 12.5303 21.5303L15.5303 18.5303C15.8232 18.2374 15.8232 17.7626 15.5303 17.4697Z" fill="black"/>
</svg>
