<svg width="24" height="24" viewBox="0 0 24 24" fill="none" xmlns="http://www.w3.org/2000/svg">
<path d="M17.5303 5.46967C17.2374 5.17678 16.7626 5.17678 16.4697 5.46967C16.1768 5.76256 16.1768 6.23744 16.4697 6.53033L19.1893 9.25H7C6.58579 9.25 6.25 9.58579 6.25 10C6.25 10.4142 6.58579 10.75 7 10.75H21C21.3033 10.75 21.5768 10.5673 21.6929 10.287C21.809 10.0068 21.7448 9.68417 21.5303 9.46967L17.5303 5.46967Z" fill="black"/>
<path d="M3.00002 13.25C2.69668 13.25 2.4232 13.4327 2.30711 13.713C2.19103 13.9932 2.25519 14.3158 2.46969 14.5303L6.46969 18.5303C6.76259 18.8232 7.23746 18.8232 7.53035 18.5303C7.82325 18.2374 7.82325 17.7626 7.53035 17.4697L4.81068 14.75H17C17.4142 14.75 17.75 14.4142 17.75 14C17.75 13.5858 17.4142 13.25 17 13.25H3.00002Z" fill="black"/>
</svg>
