<svg width="24" height="24" viewBox="0 0 24 24" fill="none" xmlns="http://www.w3.org/2000/svg">
<path d="M6.75 2C5.24011 2 4 3.24011 4 4.75V18V18.75V19.25C4 20.7599 5.24011 22 6.75 22H19.75C19.8494 22.0014 19.9481 21.983 20.0403 21.946C20.1325 21.9089 20.2164 21.8539 20.2872 21.7841C20.358 21.7143 20.4142 21.6312 20.4526 21.5395C20.4909 21.4478 20.5107 21.3494 20.5107 21.25C20.5107 21.1506 20.4909 21.0522 20.4526 20.9605C20.4142 20.8688 20.358 20.7857 20.2872 20.7159C20.2164 20.6461 20.1325 20.5911 20.0403 20.554C19.9481 20.517 19.8494 20.4986 19.75 20.5H6.75C6.13662 20.5 5.63862 20.0762 5.52539 19.5H19.75C19.9489 19.5 20.1397 19.421 20.2803 19.2803C20.421 19.1397 20.5 18.9489 20.5 18.75V4.75C20.5 3.24011 19.2599 2 17.75 2H6.75ZM6.75 3.5H17.75C18.4491 3.5 19 4.05089 19 4.75V18H5.5V4.75C5.5 4.05089 6.05089 3.5 6.75 3.5ZM12.25 5.5C11.0163 5.5 10 6.51625 10 7.75C10 8.98375 11.0163 10 12.25 10C13.4838 10 14.5 8.98375 14.5 7.75C14.5 6.51625 13.4838 5.5 12.25 5.5ZM12.25 7C12.6733 7 13 7.32675 13 7.75C13 8.17325 12.6733 8.5 12.25 8.5C11.8268 8.5 11.5 8.17325 11.5 7.75C11.5 7.32675 11.8268 7 12.25 7ZM9.75 11C9.0682 11 8.5 11.5682 8.5 12.25V13.5C8.5 14.3306 9.06467 14.9854 9.75098 15.3857C10.4373 15.7861 11.3033 16 12.25 16C13.1967 16 14.0627 15.7861 14.749 15.3857C15.4353 14.9854 16 14.3306 16 13.5V12.25C16 11.5682 15.4318 11 14.75 11H9.75ZM10 12.5H14.5V13.5C14.5 13.6359 14.3926 13.8568 13.9932 14.0898C13.5937 14.3229 12.9603 14.5 12.25 14.5C11.5397 14.5 10.9063 14.3229 10.5068 14.0898C10.1074 13.8568 10 13.6359 10 13.5V12.5Z" fill="black"/>
</svg>
