<svg width="24" height="24" viewBox="0 0 24 24" fill="none" xmlns="http://www.w3.org/2000/svg">
<path fill-rule="evenodd" clip-rule="evenodd" d="M5.05546 3.05546C5.57118 2.53973 6.27065 2.25 7 2.25C7.72935 2.25 8.42882 2.53973 8.94454 3.05546C9.46027 3.57118 9.75 4.27065 9.75 5C9.75 5.72935 9.46027 6.42882 8.94454 6.94454C8.42882 7.46027 7.72935 7.75 7 7.75C6.27065 7.75 5.57118 7.46027 5.05546 6.94454C4.53973 6.42882 4.25 5.72935 4.25 5C4.25 4.27065 4.53973 3.57118 5.05546 3.05546ZM7 3.75C6.66848 3.75 6.35054 3.8817 6.11612 4.11612C5.8817 4.35054 5.75 4.66848 5.75 5C5.75 5.33152 5.8817 5.64946 6.11612 5.88388C6.35054 6.1183 6.66848 6.25 7 6.25C7.33152 6.25 7.64946 6.1183 7.88388 5.88388C8.1183 5.64946 8.25 5.33152 8.25 5C8.25 4.66848 8.1183 4.35054 7.88388 4.11612C7.64946 3.8817 7.33152 3.75 7 3.75Z" fill="black"/>
<path fill-rule="evenodd" clip-rule="evenodd" d="M15.0555 3.05546C15.5712 2.53973 16.2707 2.25 17 2.25C17.7293 2.25 18.4288 2.53973 18.9445 3.05546C19.4603 3.57118 19.75 4.27065 19.75 5C19.75 5.72935 19.4603 6.42882 18.9445 6.94454C18.4288 7.46027 17.7293 7.75 17 7.75C16.2707 7.75 15.5712 7.46027 15.0555 6.94454C14.5397 6.42882 14.25 5.72935 14.25 5C14.25 4.27065 14.5397 3.57118 15.0555 3.05546ZM17 3.75C16.6685 3.75 16.3505 3.8817 16.1161 4.11612C15.8817 4.35054 15.75 4.66848 15.75 5C15.75 5.33152 15.8817 5.64946 16.1161 5.88388C16.3505 6.1183 16.6685 6.25 17 6.25C17.3315 6.25 17.6495 6.1183 17.8839 5.88388C18.1183 5.64946 18.25 5.33152 18.25 5C18.25 4.66848 18.1183 4.35054 17.8839 4.11612C17.6495 3.8817 17.3315 3.75 17 3.75Z" fill="black"/>
<path fill-rule="evenodd" clip-rule="evenodd" d="M12 10.25C11.2707 10.25 10.5712 10.5397 10.0555 11.0555C9.53973 11.5712 9.25 12.2707 9.25 13C9.25 13.7293 9.53973 14.4288 10.0555 14.9445C10.5712 15.4603 11.2707 15.75 12 15.75C12.7293 15.75 13.4288 15.4603 13.9445 14.9445C14.4603 14.4288 14.75 13.7293 14.75 13C14.75 12.2707 14.4603 11.5712 13.9445 11.0555C13.4288 10.5397 12.7293 10.25 12 10.25ZM11.1161 12.1161C11.3505 11.8817 11.6685 11.75 12 11.75C12.3315 11.75 12.6495 11.8817 12.8839 12.1161C13.1183 12.3505 13.25 12.6685 13.25 13C13.25 13.3315 13.1183 13.6495 12.8839 13.8839C12.6495 14.1183 12.3315 14.25 12 14.25C11.6685 14.25 11.3505 14.1183 11.1161 13.8839C10.8817 13.6495 10.75 13.3315 10.75 13C10.75 12.6685 10.8817 12.3505 11.1161 12.1161Z" fill="black"/>
<path d="M9.11612 19.1161C9.35054 18.8817 9.66848 18.75 10 18.75H14C14.3315 18.75 14.6495 18.8817 14.8839 19.1161C15.1183 19.3505 15.25 19.6685 15.25 20V21C15.25 21.4142 15.5858 21.75 16 21.75C16.4142 21.75 16.75 21.4142 16.75 21V20C16.75 19.2707 16.4603 18.5712 15.9445 18.0555C15.4288 17.5397 14.7293 17.25 14 17.25H10C9.27065 17.25 8.57118 17.5397 8.05546 18.0555C7.53973 18.5712 7.25 19.2707 7.25 20V21C7.25 21.4142 7.58579 21.75 8 21.75C8.41421 21.75 8.75 21.4142 8.75 21V20C8.75 19.6685 8.8817 19.3505 9.11612 19.1161Z" fill="black"/>
<path d="M17 9.25C16.5858 9.25 16.25 9.58579 16.25 10C16.25 10.4142 16.5858 10.75 17 10.75H19C19.3315 10.75 19.6495 10.8817 19.8839 11.1161C20.1183 11.3505 20.25 11.6685 20.25 12V13C20.25 13.4142 20.5858 13.75 21 13.75C21.4142 13.75 21.75 13.4142 21.75 13V12C21.75 11.2707 21.4603 10.5712 20.9445 10.0555C20.4288 9.53973 19.7293 9.25 19 9.25H17Z" fill="black"/>
<path d="M4.11612 11.1161C4.35054 10.8817 4.66848 10.75 5 10.75H7C7.41421 10.75 7.75 10.4142 7.75 10C7.75 9.58579 7.41421 9.25 7 9.25H5C4.27065 9.25 3.57118 9.53973 3.05546 10.0555C2.53973 10.5712 2.25 11.2707 2.25 12V13C2.25 13.4142 2.58579 13.75 3 13.75C3.41421 13.75 3.75 13.4142 3.75 13V12C3.75 11.6685 3.8817 11.3505 4.11612 11.1161Z" fill="black"/>
<path d="M19.75 15C19.75 14.5858 19.4142 14.25 19 14.25C18.5858 14.25 18.25 14.5858 18.25 15V16.25H17C16.5858 16.25 16.25 16.5858 16.25 17C16.25 17.4142 16.5858 17.75 17 17.75H18.25V19C18.25 19.4142 18.5858 19.75 19 19.75C19.4142 19.75 19.75 19.4142 19.75 19V17.75H21C21.4142 17.75 21.75 17.4142 21.75 17C21.75 16.5858 21.4142 16.25 21 16.25H19.75V15Z" fill="black"/>
</svg>
