<svg width="24" height="24" viewBox="0 0 24 24" fill="none" xmlns="http://www.w3.org/2000/svg">
<path d="M12.5 22C6.986 22 2.5 17.514 2.5 12C2.5 6.486 6.986 2 12.5 2C12.695 2 12.886 2.013 13.0775 2.0265L13.1775 2.0335C13.424 2.0505 13.646 2.187 13.7715 2.399C13.8975 2.611 13.911 2.8715 13.8075 3.0955C13.272 4.2585 13 5.488 13 6.75C13 11.2365 16.36 14.976 20.816 15.4485C21.0615 15.4745 21.2785 15.62 21.3965 15.837C21.514 16.0545 21.5175 16.3155 21.405 16.535C19.685 19.906 16.2725 22 12.5 22Z" fill="black"/>
</svg>
