<svg width="24" height="24" viewBox="0 0 24 24" fill="none" xmlns="http://www.w3.org/2000/svg">
<path d="M8.40533 13.2803C8.26468 13.421 8.07391 13.5 7.875 13.5H6.375V15H7.875C8.07391 15 8.26468 15.079 8.40533 15.2197C8.54598 15.3603 8.625 15.5511 8.625 15.75C8.625 15.9489 8.54598 16.1397 8.40533 16.2803C8.26468 16.421 8.07391 16.5 7.875 16.5H5.625C5.42609 16.5 5.23532 16.421 5.09467 16.2803C4.95402 16.1397 4.875 15.9489 4.875 15.75V12.75C4.875 12.5511 4.95402 12.3603 5.09467 12.2197C5.23532 12.079 5.42609 12 5.625 12H7.875C8.07391 12 8.26468 12.079 8.40533 12.2197C8.54598 12.3603 8.625 12.5511 8.625 12.75C8.625 12.9489 8.54598 13.1397 8.40533 13.2803Z" fill="black"/>
<path d="M18.7102 12.0788C18.532 11.991 18.3264 11.9771 18.1379 12.04C17.9495 12.1029 17.7935 12.2376 17.7037 12.4148L16.875 14.0731L16.05 12.4148C15.9611 12.2368 15.8051 12.1014 15.6163 12.0384C15.4276 11.9754 15.2215 11.9899 15.0435 12.0788C14.8655 12.1677 14.73 12.3237 14.667 12.5125C14.604 12.7012 14.6186 12.9073 14.7075 13.0853L16.2075 16.0853C16.2697 16.2101 16.3654 16.3151 16.484 16.3885C16.6026 16.4619 16.7393 16.5008 16.8787 16.5008C17.0182 16.5008 17.1549 16.4619 17.2734 16.3885C17.392 16.3151 17.4878 16.2101 17.55 16.0853L19.05 13.0853C19.1375 12.9066 19.1509 12.7006 19.0873 12.5121C19.0236 12.3236 18.8881 12.1679 18.7102 12.0788Z" fill="black"/>
<path d="M12.8879 12.04C13.0764 11.9771 13.282 11.991 13.4602 12.0788C13.6381 12.1679 13.7736 12.3236 13.8373 12.5121C13.9009 12.7006 13.8875 12.9066 13.8 13.0853L12.3 16.0853C12.2378 16.2101 12.142 16.3151 12.0234 16.3885C11.9049 16.4619 11.7682 16.5008 11.6287 16.5008C11.4893 16.5008 11.3526 16.4619 11.234 16.3885C11.1154 16.3151 11.0197 16.2101 10.9575 16.0853L9.45748 13.0853C9.36857 12.9073 9.35402 12.7012 9.41703 12.5125C9.48004 12.3237 9.61545 12.1677 9.79348 12.0788C9.97151 11.9899 10.1776 11.9754 10.3663 12.0384C10.5551 12.1014 10.7111 12.2368 10.8 12.4148L11.625 14.0731L12.4537 12.4148C12.5435 12.2376 12.6995 12.1029 12.8879 12.04Z" fill="black"/>
<path fill-rule="evenodd" clip-rule="evenodd" d="M3.27525 3.75H20.7248C21.3942 3.75099 22.0359 4.01736 22.5093 4.49072C22.9826 4.96409 23.249 5.60582 23.25 6.27525V17.7247C23.249 18.3942 22.9826 19.0359 22.5093 19.5093C22.0359 19.9826 21.3942 20.249 20.7248 20.25H3.27525C2.60582 20.249 1.96409 19.9826 1.49072 19.5093C1.01736 19.0359 0.750992 18.3942 0.75 17.7247V6.27525C0.750992 5.60582 1.01736 4.96409 1.49072 4.49072C1.96409 4.01736 2.60582 3.75099 3.27525 3.75ZM20.7248 5.25H3.27525C3.0034 5.2502 2.74274 5.35828 2.55051 5.55051C2.35828 5.74274 2.2502 6.0034 2.25 6.27525V8.25H21.75V6.27525C21.7498 6.0034 21.6417 5.74274 21.4495 5.55051C21.2573 5.35828 20.9966 5.2502 20.7248 5.25ZM3.27525 18.75H20.7248C20.9966 18.7498 21.2573 18.6417 21.4495 18.4495C21.6417 18.2573 21.7498 17.9966 21.75 17.7247V9.75H2.25V17.7247C2.2502 17.9966 2.35828 18.2573 2.55051 18.4495C2.74274 18.6417 3.0034 18.7498 3.27525 18.75Z" fill="black"/>
</svg>
