<svg width="24" height="24" viewBox="0 0 24 24" fill="none" xmlns="http://www.w3.org/2000/svg">
<path d="M6.25 3C4.74011 3 3.5 4.24011 3.5 5.75V7.25C3.5 8.04242 3.85263 8.74646 4.39551 9.25C3.85263 9.75354 3.5 10.4576 3.5 11.25V12.75C3.5 13.5424 3.85263 14.2465 4.39551 14.75C3.85263 15.2535 3.5 15.9576 3.5 16.75V18.25C3.5 19.7599 4.74011 21 6.25 21H17.75C19.2599 21 20.5 19.7599 20.5 18.25V16.75C20.5 15.9576 20.1474 15.2535 19.6045 14.75C20.1474 14.2465 20.5 13.5424 20.5 12.75V11.25C20.5 10.4576 20.1474 9.75354 19.6045 9.25C20.1474 8.74646 20.5 8.04242 20.5 7.25V5.75C20.5 4.24011 19.2599 3 17.75 3H6.25ZM6.25 4.5H17.75C18.4491 4.5 19 5.05089 19 5.75V7.25C19 7.94911 18.4491 8.5 17.75 8.5H6.25C5.55089 8.5 5 7.94911 5 7.25V5.75C5 5.05089 5.55089 4.5 6.25 4.5ZM6.25 10H17.75C18.4491 10 19 10.5509 19 11.25V12.75C19 13.4491 18.4491 14 17.75 14H6.25C5.55089 14 5 13.4491 5 12.75V11.25C5 10.5509 5.55089 10 6.25 10ZM6.25 15.5H17.75C18.4491 15.5 19 16.0509 19 16.75V18.25C19 18.9491 18.4491 19.5 17.75 19.5H6.25C5.55089 19.5 5 18.9491 5 18.25V16.75C5 16.0509 5.55089 15.5 6.25 15.5Z" fill="black"/>
</svg>
