<svg width="24" height="24" viewBox="0 0 24 24" fill="none" xmlns="http://www.w3.org/2000/svg">
<path d="M18.5 12C18.6155 12 18.7303 12.0219 18.8369 12.0645C18.9434 12.107 19.0401 12.1697 19.1211 12.248C19.2021 12.3264 19.2656 12.4194 19.3086 12.5215C19.3516 12.6236 19.3736 12.7328 19.3721 12.8428V19.1494L20.499 18.0752C20.5794 17.9954 20.6758 17.9316 20.7822 17.8877C20.8887 17.8438 21.0032 17.8205 21.1191 17.8193C21.2351 17.8182 21.3506 17.8391 21.458 17.8809C21.5651 17.9226 21.6623 17.9845 21.7441 18.0625C21.8261 18.1406 21.8917 18.2337 21.9355 18.3359C21.9794 18.4383 22.0012 18.5486 22 18.6592C21.9988 18.7697 21.9747 18.879 21.9287 18.9805C21.8828 19.0818 21.8159 19.1735 21.7324 19.25L19.1963 21.6689C19.1165 21.77 19.0128 21.8518 18.8945 21.9092C18.7764 21.9665 18.6462 21.9979 18.5137 22C18.3776 22.0018 18.2425 21.9728 18.1201 21.916C17.9979 21.8593 17.8911 21.7759 17.8086 21.6729L15.2676 19.25C15.1841 19.1735 15.1172 19.0818 15.0713 18.9805C15.0253 18.879 15.0012 18.7697 15 18.6592C14.9988 18.5486 15.0206 18.4383 15.0645 18.3359C15.1083 18.2337 15.1739 18.1406 15.2559 18.0625C15.3377 17.9845 15.4349 17.9226 15.542 17.8809C15.6494 17.8391 15.7649 17.8182 15.8809 17.8193C15.9968 17.8205 16.1113 17.8438 16.2178 17.8877C16.3242 17.9316 16.4206 17.9954 16.501 18.0752L17.6279 19.1494V12.8428C17.6264 12.7328 17.6484 12.6236 17.6914 12.5215C17.7344 12.4194 17.7979 12.3264 17.8789 12.248C17.9599 12.1697 18.0566 12.107 18.1631 12.0645C18.2697 12.0219 18.3845 12 18.5 12Z" fill="black"/>
<path d="M11.5 2C16.7383 2 21 6.26173 21 11.5C21 12.6947 20.7755 13.8375 20.3711 14.8916V12.8428C20.3726 12.5985 20.3249 12.3569 20.2305 12.1328C20.1342 11.9044 19.9925 11.6997 19.8164 11.5293C19.7401 11.4555 19.6573 11.3894 19.5703 11.3301C19.4802 6.9408 15.9113 3.4248 11.5 3.4248C7.03186 3.4248 3.4248 7.03186 3.4248 11.5C3.4248 15.9681 7.03186 19.5752 11.5 19.5752C12.4005 19.5752 13.2652 19.4258 14.0732 19.1553C14.0971 19.2364 14.1261 19.3163 14.1611 19.3936C14.2613 19.6143 14.4032 19.8111 14.5781 19.9746L14.9639 20.3428C13.8898 20.765 12.7221 21 11.5 21C6.26173 21 2 16.7383 2 11.5C2 6.26173 6.26173 2 11.5 2Z" fill="black"/>
<path fill-rule="evenodd" clip-rule="evenodd" d="M11.251 5.31445C11.3463 5.31296 11.4419 5.33141 11.5303 5.36719C11.6185 5.40296 11.6983 5.45619 11.7656 5.52344C11.8331 5.59078 11.887 5.67051 11.9229 5.75879C11.9587 5.84703 11.9759 5.94188 11.9746 6.03711V6.75H12.2129C13.647 6.75021 14.8251 7.92813 14.8252 9.3623C14.8252 9.9569 14.5882 10.482 14.249 10.9229C15.1421 11.4059 15.7754 12.3205 15.7754 13.4004C15.7752 14.9657 14.4902 16.25 12.9248 16.25H11.9746V16.9629C11.9759 17.0572 11.959 17.1508 11.9238 17.2383C11.8886 17.3259 11.8358 17.4054 11.7695 17.4727C11.7033 17.5399 11.6242 17.5935 11.5371 17.6299C11.4502 17.6662 11.3569 17.6855 11.2627 17.6855C11.1683 17.6855 11.0744 17.6663 10.9873 17.6299C10.9003 17.5934 10.8211 17.5399 10.7549 17.4727C10.6887 17.4055 10.6367 17.3258 10.6016 17.2383C10.5664 17.1508 10.5485 17.0572 10.5498 16.9629V16.25H8.8877C8.69873 16.25 8.5174 16.1746 8.38379 16.041C8.25023 15.9074 8.17482 15.726 8.1748 15.5371V7.46289C8.17482 7.27398 8.25023 7.09259 8.38379 6.95898C8.5174 6.82537 8.69873 6.75002 8.8877 6.75H10.5498V6.03711C10.5472 5.84853 10.6197 5.66664 10.751 5.53125C10.8824 5.39584 11.0623 5.3175 11.251 5.31445ZM9.59961 14.8252H10.5498V11.9746H9.59961V14.8252ZM11.9746 14.8252H12.9248C13.7199 14.8252 14.3494 14.1954 14.3496 13.4004C14.3496 12.6052 13.72 11.9746 12.9248 11.9746H11.9746V14.8252ZM9.59961 10.5498H10.5498V8.1748H9.59961V10.5498ZM11.9746 10.5498H12.2129C12.8769 10.5496 13.4004 10.0263 13.4004 9.3623C13.4003 8.69837 12.8768 8.17501 12.2129 8.1748H11.9746V10.5498Z" fill="black"/>
</svg>
