<svg width="24" height="24" viewBox="0 0 24 24" fill="none" xmlns="http://www.w3.org/2000/svg">
<path opacity="0.65" d="M14.1284 7.95592C15.0456 6.72855 14.8007 4.9966 13.5815 4.08749C12.3624 3.17838 10.6305 3.43639 9.71335 4.66376L4.04649 12.2473C3.12932 13.4747 3.37416 15.2066 4.59334 16.1157C5.81252 17.0248 7.54438 16.7668 8.46154 15.5395L14.1284 7.95592Z" fill="black"/>
<path d="M15.4406 15.5191C16.3578 16.7465 18.0896 17.0045 19.3088 16.0954C20.528 15.1863 20.7729 13.4543 19.8557 12.2269L14.1888 4.64339C13.2717 3.41602 11.5398 3.15802 10.3206 4.06713C9.10144 4.97624 8.85661 6.70819 9.77377 7.93556L15.4406 15.5191Z" fill="black"/>
<path d="M6.31427 20.5358L4.81539 18.2717C4.76895 18.2016 4.70916 18.1415 4.63947 18.0949C4.56979 18.0482 4.4916 18.016 4.40944 18H4.39195H4.35074H4.32201H4.25706H4.22958H4.18711H4.16962C4.08746 18.016 4.00928 18.0482 3.93959 18.0949C3.86991 18.1415 3.81011 18.2016 3.76367 18.2717L2.26479 20.5358C2.21861 20.6052 2.18648 20.6831 2.17021 20.7651C2.15395 20.8471 2.15387 20.9315 2.17 21.0135C2.18612 21.0955 2.21812 21.1734 2.26417 21.243C2.31023 21.3125 2.36943 21.3722 2.43841 21.4187C2.50738 21.4652 2.58478 21.4976 2.66617 21.514C2.74757 21.5304 2.83137 21.5304 2.91279 21.5142C2.99421 21.498 3.07166 21.4657 3.14072 21.4194C3.20977 21.373 3.26908 21.3134 3.31525 21.2439L4.29078 19.7748L5.2663 21.2439C5.35974 21.3832 5.50402 21.4797 5.66776 21.5125C5.8315 21.5452 6.00145 21.5115 6.14065 21.4187C6.20963 21.3722 6.26884 21.3125 6.3149 21.243C6.36095 21.1734 6.39296 21.0955 6.40908 21.0135C6.4252 20.9315 6.42513 20.8471 6.40886 20.7651C6.3926 20.6831 6.36045 20.6052 6.31427 20.5358Z" fill="black"/>
<path d="M10.2967 21.1886C10.2855 21.1673 9.77933 20.4361 9.26569 19.6936C9.74344 19.0037 10.1878 18.3616 10.1989 18.3415C10.2224 18.2988 10.2695 18.0568 10.0392 18.0568H9.30777C9.27287 18.0548 9.23807 18.0621 9.2068 18.0779C9.17554 18.0937 9.14891 18.1176 9.12955 18.1471C9.12955 18.1471 8.93275 18.4293 8.6617 18.8219L8.19262 18.1471C8.17339 18.1163 8.14636 18.0914 8.11435 18.0748C8.08234 18.0583 8.04654 18.0507 8.01068 18.053H7.2792C7.05023 18.053 7.09726 18.2951 7.12078 18.3377C7.13068 18.3578 7.57501 19 8.05276 19.6898C7.54407 20.4361 7.03662 21.1623 7.02053 21.1886C6.99701 21.2313 6.94998 21.4733 7.18019 21.4733H7.91166C7.94654 21.4752 7.9813 21.4679 8.01255 21.452C8.04379 21.4362 8.07044 21.4124 8.08989 21.383L8.65675 20.5653L9.22361 21.383C9.24297 21.4125 9.2696 21.4364 9.30087 21.4522C9.33213 21.4681 9.36694 21.4753 9.40183 21.4733H10.1333C10.3623 21.4683 10.3202 21.2263 10.2967 21.1886Z" fill="black"/>
<path d="M12.6285 17.9474C11.5932 17.9474 10.8948 18.679 10.8948 19.7676C10.8948 20.8562 11.5747 21.579 12.6285 21.579C13.6824 21.579 14.3685 20.8511 14.3685 19.7676C14.3685 18.6626 13.6861 17.9474 12.6285 17.9474ZM13.3183 19.7676C13.3183 20.72 12.7994 20.7199 12.6285 20.7199C12.4576 20.7199 11.9486 20.72 11.9486 19.7676C11.9486 19.1205 12.1703 18.8064 12.6285 18.8064C13.0867 18.8064 13.3183 19.1205 13.3183 19.7676Z" fill="black"/>
<path d="M16.5385 18H16.5176C15.6556 18 14.9475 18.5343 14.9475 19.4826V21.408C14.9465 21.4232 14.9486 21.4385 14.9536 21.4529C14.9587 21.4672 14.9666 21.4804 14.9769 21.4914C14.9872 21.5025 14.9997 21.5113 15.0135 21.5172C15.0273 21.5232 15.0421 21.5261 15.0571 21.5259H15.8575C15.8744 21.5271 15.8914 21.5248 15.9073 21.519C15.9233 21.5132 15.9379 21.5042 15.9503 21.4924C15.9626 21.4807 15.9725 21.4664 15.9792 21.4506C15.9859 21.4348 15.9893 21.4177 15.9893 21.4005V19.6444C15.9893 19.011 16.3513 18.9219 16.5262 18.9219C16.7011 18.9219 17.0631 19.011 17.0631 19.6444V21.4005C17.0631 21.4178 17.0665 21.435 17.0733 21.4509C17.0801 21.4668 17.0901 21.4811 17.1026 21.4929C17.1151 21.5047 17.1299 21.5137 17.146 21.5194C17.162 21.5251 17.1791 21.5273 17.1961 21.5259H17.9953C18.0103 21.5261 18.0251 21.5232 18.0389 21.5172C18.0527 21.5113 18.0652 21.5025 18.0755 21.4914C18.0858 21.4804 18.0937 21.4672 18.0988 21.4529C18.1038 21.4385 18.1059 21.4232 18.1049 21.408V19.4814C18.1086 18.5343 17.3968 18 16.5385 18Z" fill="black"/>
<path d="M18.6889 20.4659C18.6889 20.4659 18.6513 20.307 18.7917 20.307H19.5437C19.5698 20.3043 19.596 20.3111 19.6176 20.3261C19.6392 20.3412 19.6548 20.3635 19.6615 20.389C19.7079 20.6046 19.8771 20.7572 20.2456 20.7673C20.6141 20.7774 20.7745 20.6879 20.7745 20.4798C20.7745 20.4268 20.7557 20.3474 20.5965 20.2679C20.3972 20.1907 20.19 20.1361 19.9786 20.1052C19.1627 19.9526 18.7491 19.6008 18.7491 19.0724C18.7438 18.8993 18.7853 18.728 18.8692 18.5767C18.9531 18.4255 19.0762 18.3 19.2253 18.2136C19.2253 18.2136 19.5675 17.9538 20.2656 17.9475C21.0427 17.9399 21.6255 18.3826 21.712 18.8656C21.715 18.881 21.7145 18.8968 21.7107 18.912C21.7068 18.9272 21.6996 18.9413 21.6897 18.9534C21.6797 18.9655 21.6672 18.9752 21.6531 18.9818C21.639 18.9884 21.6236 18.9918 21.608 18.9917H20.7858C20.7642 18.9919 20.7429 18.9872 20.7234 18.9781C20.7039 18.9689 20.6867 18.9555 20.673 18.9387L20.6604 18.9236C20.6027 18.8649 20.5331 18.8194 20.4563 18.7902C20.3795 18.761 20.2974 18.7489 20.2155 18.7546C19.8207 18.7546 19.8207 18.9135 19.8207 18.9665C19.8207 19.0194 19.847 19.1191 20.0714 19.2023C20.2927 19.2705 20.5184 19.3232 20.7469 19.3599C21.4739 19.5012 21.8411 19.8366 21.8411 20.3549C21.8497 20.5455 21.8078 20.7348 21.7197 20.9037C21.6316 21.0726 21.5005 21.2148 21.3398 21.3159C21.0176 21.4977 20.6524 21.588 20.2832 21.577C19.9016 21.5942 19.5232 21.4996 19.194 21.3046C19.0522 21.2121 18.9334 21.0882 18.8465 20.9424C18.7596 20.7966 18.707 20.6328 18.6927 20.4634C18.6927 20.4634 18.6927 20.452 18.6927 20.4457" fill="black"/>
</svg>
