<svg width="24" height="24" viewBox="0 0 24 24" fill="none" xmlns="http://www.w3.org/2000/svg">
<path d="M10.125 1.5C7.368 1.5 5.125 3.743 5.125 6.5C5.125 9.257 7.368 11.5 10.125 11.5C12.882 11.5 15.125 9.257 15.125 6.5C15.125 3.743 12.882 1.5 10.125 1.5Z" fill="black"/>
<path d="M4.375 13.5C3.1345 13.5 2.125 14.5095 2.125 15.75V16.1309C2.125 17.3079 2.61475 18.4394 3.46875 19.2344C4.57825 20.2679 6.6335 21.5 10.125 21.5C10.3995 21.5 10.6619 21.4901 10.9189 21.4756C9.80995 20.3096 9.125 18.736 9.125 17C9.125 15.71 9.50532 14.511 10.1533 13.5H4.375Z" fill="black"/>
<path fill-rule="evenodd" clip-rule="evenodd" d="M12.4859 13.1109C10.338 15.2587 10.338 18.7412 12.4859 20.8891C14.6337 23.0369 18.1162 23.0369 20.2641 20.8891C22.4119 18.7412 22.4119 15.2587 20.2641 13.1109C18.1162 10.963 14.6337 10.963 12.4859 13.1109ZM13.5465 14.1715C13.7417 13.9764 14.0585 13.9764 14.2536 14.1715L16.375 16.2929L18.4963 14.1715C18.6914 13.9764 19.0082 13.9764 19.2034 14.1715C19.3986 14.3667 19.3986 14.6835 19.2034 14.8786L17.0821 17L19.2034 19.1213C19.3986 19.3164 19.3986 19.6332 19.2034 19.8284C19.0082 20.0236 18.6914 20.0236 18.4963 19.8284L16.375 17.7071L14.2536 19.8284C14.0585 20.0236 13.7417 20.0236 13.5465 19.8284C13.3514 19.6332 13.3514 19.3164 13.5465 19.1213L15.6679 17L13.5465 14.8786C13.3514 14.6835 13.3514 14.3667 13.5465 14.1715Z" fill="black"/>
</svg>
