<svg width="24" height="24" viewBox="0 0 24 24" fill="none" xmlns="http://www.w3.org/2000/svg">
<path d="M11.9999 2C10.352 2 8.99994 3.35207 8.99994 5H3.74994C3.65056 4.99859 3.55188 5.01696 3.45966 5.05402C3.36743 5.09108 3.28349 5.1461 3.21271 5.21588C3.14194 5.28566 3.08573 5.36882 3.04737 5.46051C3.00901 5.5522 2.98926 5.65061 2.98926 5.75C2.98926 5.84939 3.00901 5.9478 3.04737 6.03949C3.08573 6.13118 3.14194 6.21434 3.21271 6.28412C3.28349 6.3539 3.36743 6.40892 3.45966 6.44598C3.55188 6.48304 3.65056 6.50141 3.74994 6.5H4.99994V19.25C4.99994 20.7665 6.23344 22 7.74994 22H16.2499C17.7664 22 18.9999 20.7665 18.9999 19.25V6.5H20.2499C20.3493 6.50141 20.448 6.48304 20.5402 6.44598C20.6324 6.40892 20.7164 6.3539 20.7872 6.28412C20.8579 6.21434 20.9141 6.13118 20.9525 6.03949C20.9909 5.9478 21.0106 5.84939 21.0106 5.75C21.0106 5.65061 20.9909 5.5522 20.9525 5.46051C20.9141 5.36882 20.8579 5.28566 20.7872 5.21588C20.7164 5.1461 20.6324 5.09108 20.5402 5.05402C20.448 5.01696 20.3493 4.99859 20.2499 5H14.9999C14.9999 3.35207 13.6479 2 11.9999 2ZM11.9999 3.5C12.837 3.5 13.4999 4.16293 13.4999 5H10.4999C10.4999 4.16293 11.1629 3.5 11.9999 3.5ZM9.74994 9C10.1639 9 10.4999 9.336 10.4999 9.75V17.25C10.4999 17.664 10.1639 18 9.74994 18C9.33594 18 8.99994 17.664 8.99994 17.25V9.75C8.99994 9.336 9.33594 9 9.74994 9ZM14.2499 9C14.6639 9 14.9999 9.336 14.9999 9.75V17.25C14.9999 17.664 14.6639 18 14.2499 18C13.8359 18 13.4999 17.664 13.4999 17.25V9.75C13.4999 9.336 13.8359 9 14.2499 9Z" fill="black"/>
</svg>
