<svg width="24" height="24" viewBox="0 0 24 24" fill="none" xmlns="http://www.w3.org/2000/svg">
<path d="M5.25 2C4.0095 2 3 3.0095 3 4.25V19.75C3 20.9905 4.0095 22 5.25 22H11.8164C10.6934 20.832 10 19.248 10 17.5H7.74609C7.33209 17.5 6.99609 17.164 6.99609 16.75C6.99609 16.3705 7.27755 16.0563 7.64355 16.0068L7.74512 16H10.1807C10.3512 15.2795 10.6403 14.6055 11.0283 14H7.75C7.336 14 7 13.664 7 13.25C7 12.836 7.336 12.5 7.75 12.5H12.3477C13.4737 11.564 14.921 11 16.5 11C17.386 11 18.23 11.1785 19 11.5V10H13.25C12.0095 10 11 8.9905 11 7.75V2H5.25ZM12.5 2.43945V7.75C12.5 8.1635 12.8365 8.5 13.25 8.5H18.5605L12.5 2.43945ZM16.5 12C13.4625 12 11 14.4625 11 17.5C11 20.5375 13.4625 23 16.5 23C19.5375 23 22 20.5375 22 17.5C22 14.4625 19.5375 12 16.5 12ZM14 14.5C14.1279 14.5 14.2558 14.5487 14.3535 14.6465L16.5 16.793L18.6465 14.6465C18.842 14.451 19.158 14.451 19.3535 14.6465C19.549 14.842 19.549 15.158 19.3535 15.3535L17.207 17.5L19.3535 19.6465C19.549 19.842 19.549 20.158 19.3535 20.3535C19.256 20.451 19.128 20.5 19 20.5C18.872 20.5 18.744 20.451 18.6465 20.3535L16.5 18.207L14.3535 20.3535C14.256 20.451 14.128 20.5 14 20.5C13.872 20.5 13.744 20.451 13.6465 20.3535C13.451 20.158 13.451 19.842 13.6465 19.6465L15.793 17.5L13.6465 15.3535C13.451 15.158 13.451 14.842 13.6465 14.6465C13.7442 14.5487 13.8721 14.5 14 14.5Z" fill="black"/>
</svg>
