<svg width="24" height="24" viewBox="0 0 24 24" fill="none" xmlns="http://www.w3.org/2000/svg">
<path fill-rule="evenodd" clip-rule="evenodd" d="M10.25 1.5C7.49746 1.5 5.25 3.74746 5.25 6.5C5.25 9.25254 7.49746 11.5 10.25 11.5C13.0025 11.5 15.25 9.25254 15.25 6.5C15.25 3.74746 13.0025 1.5 10.25 1.5ZM10.25 3C12.1919 3 13.75 4.55812 13.75 6.5C13.75 8.44188 12.1919 10 10.25 10C8.30812 10 6.75 8.44188 6.75 6.5C6.75 4.55812 8.30812 3 10.25 3Z" fill="black"/>
<path d="M4.5 13.5C3.2595 13.5 2.25 14.5095 2.25 15.75V16.1309C2.25 17.3079 2.73975 18.4394 3.59375 19.2344C4.70325 20.2679 6.7585 21.5 10.25 21.5C10.5245 21.5 10.7869 21.4901 11.0439 21.4756C10.6254 21.0351 10.2674 20.5376 9.98438 19.9941C7.14687 19.9356 5.50071 18.9607 4.61621 18.1367C4.06571 17.6242 3.75 16.8934 3.75 16.1309V15.75C3.75 15.3365 4.0865 15 4.5 15H9.56738C9.73988 14.466 9.9818 13.9635 10.2793 13.5H4.5Z" fill="black"/>
<path fill-rule="evenodd" clip-rule="evenodd" d="M12.3609 13.1109C10.213 15.2587 10.213 18.7412 12.3609 20.8891C14.5087 23.0369 17.9912 23.0369 20.1391 20.8891C22.2869 18.7412 22.2869 15.2587 20.1391 13.1109C17.9912 10.963 14.5087 10.963 12.3609 13.1109ZM13.4215 14.1715C13.6167 13.9764 13.9335 13.9764 14.1286 14.1715L16.25 16.2929L18.3713 14.1715C18.5664 13.9764 18.8832 13.9764 19.0784 14.1715C19.2736 14.3667 19.2736 14.6835 19.0784 14.8786L16.9571 17L19.0784 19.1213C19.2736 19.3164 19.2736 19.6332 19.0784 19.8284C18.8832 20.0236 18.5664 20.0236 18.3713 19.8284L16.25 17.7071L14.1286 19.8284C13.9335 20.0236 13.6167 20.0236 13.4215 19.8284C13.2264 19.6332 13.2264 19.3164 13.4215 19.1213L15.5429 17L13.4215 14.8786C13.2264 14.6835 13.2264 14.3667 13.4215 14.1715Z" fill="black"/>
</svg>
