<svg width="24" height="24" viewBox="0 0 24 24" fill="none" xmlns="http://www.w3.org/2000/svg">
<path d="M11.9893 2.98927C11.7905 2.99212 11.601 3.07374 11.4624 3.21619C11.3238 3.35865 11.2474 3.55029 11.25 3.74904L11.2412 11.4404L10.0205 10.2197C9.9514 10.1478 9.86862 10.0903 9.77703 10.0507C9.68543 10.0111 9.58686 9.99021 9.48708 9.9892C9.3873 9.98818 9.28832 10.0071 9.19594 10.0448C9.10355 10.0825 9.01963 10.1383 8.94907 10.2088C8.87851 10.2794 8.82274 10.3633 8.78502 10.4557C8.74731 10.5481 8.7284 10.6471 8.72942 10.7469C8.73043 10.8466 8.75134 10.9452 8.79093 11.0368C8.83052 11.1284 8.88798 11.2112 8.95996 11.2803L11.46 13.7803C11.6006 13.9209 11.7914 13.9999 11.9902 13.9999C12.1891 13.9999 12.3799 13.9209 12.5205 13.7803L15.0205 11.2803C15.0925 11.2112 15.15 11.1284 15.1895 11.0368C15.2291 10.9452 15.25 10.8466 15.2511 10.7469C15.2521 10.6471 15.2332 10.5481 15.1954 10.4557C15.1577 10.3633 15.102 10.2794 15.0314 10.2088C14.9608 10.1383 14.8769 10.0825 14.7845 10.0448C14.6922 10.0071 14.5932 9.98818 14.4934 9.9892C14.3936 9.99021 14.295 10.0111 14.2034 10.0507C14.1118 10.0903 14.0291 10.1478 13.96 10.2197L12.7412 11.4385L12.75 3.75099C12.7516 3.65061 12.733 3.55094 12.6953 3.45788C12.6576 3.36482 12.6017 3.28026 12.5307 3.20923C12.4598 3.13819 12.3753 3.08212 12.2823 3.04434C12.1893 3.00656 12.0896 2.98783 11.9893 2.98927ZM5.75 3.00002C4.24011 3.00002 3 4.24013 3 5.75002V18.25C3 19.7599 4.24011 21 5.75 21H17.127C17.2075 21.0132 17.2896 21.0132 17.3701 21H18.25C19.7599 21 21 19.7599 21 18.25V5.75002C21 4.24013 19.7599 3.00002 18.25 3.00002H15.25C15.1506 2.99861 15.0519 3.01697 14.9597 3.05403C14.8675 3.09109 14.7836 3.14611 14.7128 3.2159C14.642 3.28568 14.5858 3.36883 14.5474 3.46053C14.5091 3.55222 14.4893 3.65062 14.4893 3.75002C14.4893 3.84941 14.5091 3.94781 14.5474 4.03951C14.5858 4.1312 14.642 4.21435 14.7128 4.28414C14.7836 4.35392 14.8675 4.40894 14.9597 4.446C15.0519 4.48306 15.1506 4.50142 15.25 4.50002H18.25C18.9491 4.50002 19.5 5.0509 19.5 5.75002V18.25C19.5 18.9491 18.9491 19.5 18.25 19.5H18V17.75C18 16.7925 17.2075 16 16.25 16H13.873C13.7925 15.9868 13.7104 15.9868 13.6299 16H10.373C10.3285 15.9924 10.2834 15.9888 10.2383 15.9893C10.2019 15.9902 10.1657 15.9938 10.1299 16H7.75C6.79252 16 6 16.7925 6 17.75V19.5H5.75C5.05089 19.5 4.5 18.9491 4.5 18.25V5.75002C4.5 5.0509 5.05089 4.50002 5.75 4.50002H8.75C8.84938 4.50142 8.94806 4.48306 9.04028 4.446C9.13251 4.40894 9.21645 4.35392 9.28723 4.28414C9.358 4.21435 9.41421 4.1312 9.45257 4.03951C9.49093 3.94781 9.51068 3.84941 9.51068 3.75002C9.51068 3.65062 9.49093 3.55222 9.45257 3.46053C9.41421 3.36883 9.358 3.28568 9.28723 3.2159C9.21645 3.14611 9.13251 3.09109 9.04028 3.05403C8.94806 3.01697 8.84938 2.99861 8.75 3.00002H5.75ZM7.75 17.5H9.5V19.5H7.5V17.75C7.5 17.6025 7.60248 17.5 7.75 17.5ZM11 17.5H13V19.5H11V17.5ZM14.5 17.5H16.25C16.3975 17.5 16.5 17.6025 16.5 17.75V19.5H14.5V17.5Z" fill="black"/>
</svg>
