<svg width="24" height="24" viewBox="0 0 24 24" fill="none" xmlns="http://www.w3.org/2000/svg">
<path fill-rule="evenodd" clip-rule="evenodd" d="M6.53113 2.75C6.53113 2.33579 6.19534 2 5.78113 2C5.36691 2 5.03113 2.33579 5.03113 2.75V3.60424C4.59619 3.72755 4.19463 3.95726 3.86507 4.27738L3.12492 3.85036C2.76613 3.64337 2.30748 3.76643 2.10049 4.12521C1.89349 4.484 2.01655 4.94265 2.37533 5.14964L3.11491 5.57632C3.05971 5.79476 3.03113 6.0209 3.03113 6.25C3.03113 6.4791 3.05972 6.70525 3.11491 6.92368L2.37533 7.35036C2.01655 7.55736 1.89349 8.01601 2.10049 8.37479C2.30748 8.73358 2.76613 8.85663 3.12492 8.64964L3.86508 8.22263C4.19463 8.54274 4.59619 8.77245 5.03113 8.89576V9.75C5.03113 10.1642 5.36691 10.5 5.78113 10.5C6.19534 10.5 6.53113 10.1642 6.53113 9.75V8.89576C6.96623 8.77241 7.36792 8.54257 7.69755 8.22227L8.43834 8.64964C8.79712 8.85663 9.25577 8.73358 9.46277 8.37479C9.66976 8.01601 9.5467 7.55736 9.18792 7.35036L8.44747 6.92318C8.50258 6.7049 8.53113 6.47892 8.53113 6.25C8.53113 6.021 8.50257 5.79495 8.44741 5.57661L9.18713 5.14952C9.54585 4.94241 9.66875 4.48371 9.46164 4.12499C9.25453 3.76628 8.79583 3.64338 8.43712 3.85049L7.69739 4.27758C7.3678 3.95736 6.96616 3.72758 6.53113 3.60424V2.75ZM6.86349 6.87521L6.86696 6.86925C6.97362 6.68222 7.03113 6.46908 7.03113 6.25C7.03113 6.03101 6.97367 5.81795 6.86709 5.63097L6.86361 5.62501L6.86017 5.61899C6.80665 5.52747 6.74127 5.44237 6.66501 5.36612C6.43059 5.1317 6.11265 5 5.78113 5C5.44961 5 5.13167 5.1317 4.89724 5.36612C4.82645 5.43691 4.76503 5.51531 4.71378 5.59941C4.70929 5.60792 4.70462 5.61639 4.69976 5.62479C4.69477 5.63345 4.68963 5.64197 4.68435 5.65035C4.58471 5.83261 4.53113 6.03854 4.53113 6.25C4.53113 6.46148 4.58472 6.66743 4.68437 6.8497C4.68965 6.85806 4.69478 6.86657 4.69976 6.87521C4.70461 6.8836 4.70927 6.89205 4.71375 6.90055C4.76501 6.98466 4.82644 7.06308 4.89724 7.13388C5.13167 7.3683 5.44961 7.5 5.78113 7.5C6.11265 7.5 6.43059 7.3683 6.66501 7.13388C6.74133 7.05756 6.80676 6.97239 6.86031 6.88078L6.86349 6.87521Z" fill="black"/>
<path fill-rule="evenodd" clip-rule="evenodd" d="M3.00012 9.73253V17.6667C3.00012 18.1344 3.17107 18.5938 3.49191 18.9414C3.81461 19.291 4.26574 19.5 4.75012 19.5H9.00012V21H7.75012C7.33591 21 7.00012 21.3358 7.00012 21.75C7.00012 22.1642 7.33591 22.5 7.75012 22.5H17.7501C18.1643 22.5 18.5001 22.1642 18.5001 21.75C18.5001 21.3358 18.1643 21 17.7501 21H16.5001V19.5H20.7501C21.2345 19.5 21.6856 19.291 22.0083 18.9414C22.3292 18.5938 22.5001 18.1344 22.5001 17.6667V6.83333C22.5001 6.36561 22.3292 5.90617 22.0083 5.55859C21.6856 5.209 21.2345 5 20.7501 5H10.4892C10.366 5.41362 10.0904 5.78271 9.68716 6.01554L9.52842 6.10719C9.53023 6.15468 9.53114 6.2023 9.53114 6.25C9.53114 6.29754 9.53024 6.34499 9.52844 6.39232L9.68766 6.48418C10.5248 6.96716 10.8119 8.03735 10.329 8.87452C9.84599 9.71168 8.7758 9.99881 7.93863 9.51583L7.77881 9.42363C7.69801 9.47449 7.61538 9.52218 7.53114 9.56663V9.75C7.53114 10.7165 6.74764 11.5 5.78114 11.5C4.81464 11.5 4.03114 10.7165 4.03114 9.75V9.56663C3.94707 9.52227 3.8646 9.47467 3.78395 9.42393L3.62465 9.51583C3.42595 9.63047 3.21412 9.70172 3.00012 9.73253ZM10.5001 21V19.5H15.0001V21H10.5001Z" fill="black"/>
</svg>
