<svg width="24" height="24" viewBox="0 0 24 24" fill="none" xmlns="http://www.w3.org/2000/svg">
<path fill-rule="evenodd" clip-rule="evenodd" d="M5.75 3H18.25C19.7665 3 21 4.234 21 5.75V18.25C21 19.766 19.7665 21 18.25 21H5.75C4.2335 21 3 19.766 3 18.25V5.75C3 4.234 4.2335 3 5.75 3ZM10.0205 10.2195C9.7275 9.9265 9.253 9.9265 8.96 10.2195C8.667 10.5125 8.667 10.9875 8.96 11.2805L11.46 13.7805C11.6065 13.927 11.7985 14 11.9905 14C12.1825 14 12.3745 13.927 12.5205 13.7805L15.0205 11.2805C15.3135 10.9875 15.3135 10.513 15.0205 10.22C14.7275 9.927 14.253 9.927 13.96 10.22L12.7415 11.4385L12.75 5.251C12.7505 4.837 12.4155 4.5005 12.001 4.5H12C11.586 4.5 11.2505 4.835 11.25 5.249L11.2415 11.4405L10.0205 10.2195ZM15 19.5H18V17C18 16.724 17.776 16.5 17.5 16.5H15V19.5ZM13.5 19.5V16.5H10.5V19.5H13.5ZM9 19.5V16.5H6.5C6.224 16.5 6 16.724 6 17V19.5H9Z" fill="black"/>
</svg>
