<svg width="24" height="24" viewBox="0 0 24 24" fill="none" xmlns="http://www.w3.org/2000/svg">
<path d="M7.75 16C7.75 16.4142 7.41421 16.75 7 16.75H6.99C6.57579 16.75 6.24 16.4142 6.24 16C6.24 15.5858 6.57579 15.25 6.99 15.25H7C7.41421 15.25 7.75 15.5858 7.75 16Z" fill="black"/>
<path fill-rule="evenodd" clip-rule="evenodd" d="M13.75 5V10.25L19 10.25C19.7293 10.25 20.4288 10.5397 20.9445 11.0555C21.4603 11.5712 21.75 12.2707 21.75 13V19C21.75 19.7293 21.4603 20.4288 20.9445 20.9445C20.4288 21.4603 19.7293 21.75 19 21.75H5C4.95442 21.75 4.90895 21.7489 4.86364 21.7466C4.18394 21.7129 3.53895 21.428 3.05546 20.9445C2.99099 20.8801 2.93006 20.8127 2.87278 20.7428C2.47183 20.2535 2.25 19.6382 2.25 19V5C2.25 4.27065 2.53973 3.57118 3.05546 3.05546C3.57118 2.53973 4.27066 2.25 5 2.25H11C11.7293 2.25 12.4288 2.53973 12.9445 3.05546C13.4603 3.57118 13.75 4.27065 13.75 5ZM4.11612 4.11612C4.35054 3.8817 4.66848 3.75 5 3.75H6.29268C6.26504 3.82819 6.25 3.91234 6.25 4C6.25 4.41421 6.58579 4.75 7 4.75H9C9.41421 4.75 9.75 4.41421 9.75 4C9.75 3.91234 9.73496 3.82819 9.70732 3.75H11C11.3315 3.75 11.6495 3.8817 11.8839 4.11612C12.1183 4.35054 12.25 4.66848 12.25 5V10.25L5 10.25C4.56137 10.25 4.13355 10.3548 3.75 10.5505V5C3.75 4.66848 3.8817 4.35054 4.11612 4.11612ZM19 11.75C19.3315 11.75 19.6495 11.8817 19.8839 12.1161C20.1183 12.3505 20.25 12.6685 20.25 13V14.2927C20.1718 14.265 20.0877 14.25 20 14.25C19.5858 14.25 19.25 14.5858 19.25 15V17C19.25 17.4142 19.5858 17.75 20 17.75C20.0877 17.75 20.1718 17.735 20.25 17.7073V19C20.25 19.3315 20.1183 19.6495 19.8839 19.8839C19.6495 20.1183 19.3315 20.25 19 20.25H5C4.66848 20.25 4.35054 20.1183 4.11612 19.8839C3.8817 19.6495 3.75 19.3315 3.75 19V12.9991C3.75025 12.6679 3.88192 12.3503 4.11612 12.1161C4.35054 11.8817 4.66848 11.75 5 11.75L19 11.75Z" fill="black"/>
<path d="M16 3.75C15.5858 3.75 15.25 3.41421 15.25 3C15.25 2.58579 15.5858 2.25 16 2.25H18.3077C18.8126 2.25 19.2969 2.45058 19.6539 2.80762C20.011 3.16466 20.2115 3.64892 20.2115 4.15385V6.18934L20.4697 5.93121C20.7626 5.63832 21.2374 5.63832 21.5303 5.93121C21.8232 6.2241 21.8232 6.69898 21.5303 6.99187L19.9919 8.53033C19.699 8.82322 19.2241 8.82322 18.9312 8.53033L17.3927 6.99187C17.0999 6.69898 17.0999 6.2241 17.3927 5.93121C17.6856 5.63832 18.1605 5.63832 18.4534 5.93121L18.7115 6.18934V4.15385C18.7115 4.04674 18.669 3.94402 18.5933 3.86828C18.5175 3.79255 18.4148 3.75 18.3077 3.75L16 3.75Z" fill="black"/>
</svg>
