<svg width="24" height="24" viewBox="0 0 24 24" fill="none" xmlns="http://www.w3.org/2000/svg">
<path fill-rule="evenodd" clip-rule="evenodd" d="M6.75 2C6.02065 2 5.32118 2.28973 4.80546 2.80546C4.28973 3.32118 4 4.02065 4 4.75V18.75C4 19.4793 4.28973 20.1788 4.80546 20.6945C5.32118 21.2103 6.02065 21.5 6.75 21.5H16.75C17.4793 21.5 18.1788 21.2103 18.6945 20.6945C19.2103 20.1788 19.5 19.4793 19.5 18.75V4.75C19.5 4.02065 19.2103 3.32118 18.6945 2.80546C18.1788 2.28973 17.4793 2 16.75 2H6.75ZM11.75 6C12.1642 6 12.5 6.33579 12.5 6.75V6.76C12.5 7.17421 12.1642 7.51 11.75 7.51C11.3358 7.51 11 7.17421 11 6.76V6.75C11 6.33579 11.3358 6 11.75 6ZM11.75 10C10.7554 10 9.80161 10.3951 9.09835 11.0983C8.39509 11.8016 8 12.7554 8 13.75C8 14.7446 8.39509 15.6984 9.09835 16.4017C9.80161 17.1049 10.7554 17.5 11.75 17.5C12.7446 17.5 13.6984 17.1049 14.4017 16.4017C15.1049 15.6984 15.5 14.7446 15.5 13.75C15.5 12.7554 15.1049 11.8016 14.4017 11.0983C13.6984 10.3951 12.7446 10 11.75 10ZM10.159 12.159C10.581 11.7371 11.1533 11.5 11.75 11.5C12.3467 11.5 12.919 11.7371 13.341 12.159C13.7629 12.581 14 13.1533 14 13.75C14 14.3467 13.7629 14.919 13.341 15.341C12.919 15.7629 12.3467 16 11.75 16C11.1533 16 10.581 15.7629 10.159 15.341C9.73705 14.919 9.5 14.3467 9.5 13.75C9.5 13.1533 9.73705 12.581 10.159 12.159Z" fill="black"/>
</svg>
