<svg width="24" height="24" viewBox="0 0 24 24" fill="none" xmlns="http://www.w3.org/2000/svg">
<path d="M19.2197 3.21967C19.5126 2.92678 19.9874 2.92678 20.2803 3.21967C20.5732 3.51256 20.5732 3.98744 20.2803 4.28033L15.5607 9H17.75C18.1642 9 18.5 9.33579 18.5 9.75C18.5 10.1642 18.1642 10.5 17.75 10.5H13.75C13.6483 10.5 13.5513 10.4798 13.4629 10.4431C13.3745 10.4065 13.2916 10.3522 13.2197 10.2803C13.1478 10.2084 13.0935 10.1255 13.0569 10.0371C13.0202 9.94866 13 9.85169 13 9.75V5.75C13 5.33579 13.3358 5 13.75 5C14.1642 5 14.5 5.33579 14.5 5.75V7.93934L19.2197 3.21967Z" fill="black"/>
<path d="M10.0371 13.0569C9.94866 13.0202 9.85169 13 9.75 13H5.75C5.33579 13 5 13.3358 5 13.75C5 14.1642 5.33579 14.5 5.75 14.5H7.93934L3.21967 19.2197C2.92678 19.5126 2.92678 19.9874 3.21967 20.2803C3.51256 20.5732 3.98744 20.5732 4.28033 20.2803L9 15.5607V17.75C9 18.1642 9.33579 18.5 9.75 18.5C10.1642 18.5 10.5 18.1642 10.5 17.75V13.75C10.5 13.5581 10.4268 13.3661 10.2803 13.2197C10.2084 13.1478 10.1255 13.0935 10.0371 13.0569Z" fill="black"/>
</svg>
