<svg width="24" height="24" viewBox="0 0 24 24" fill="none" xmlns="http://www.w3.org/2000/svg">
<path d="M4.53033 3.46967C4.23744 3.17678 3.76256 3.17678 3.46967 3.46967C3.17678 3.76256 3.17678 4.23744 3.46967 4.53033L8.18934 9.25H6C5.58579 9.25 5.25 9.58579 5.25 10C5.25 10.4142 5.58579 10.75 6 10.75H10C10.1017 10.75 10.1987 10.7298 10.2871 10.6931C10.3755 10.6565 10.4584 10.6022 10.5303 10.5303C10.6022 10.4584 10.6565 10.3755 10.6931 10.2871C10.7298 10.1987 10.75 10.1017 10.75 10V6C10.75 5.58579 10.4142 5.25 10 5.25C9.58579 5.25 9.25 5.58579 9.25 6V8.18934L4.53033 3.46967Z" fill="black"/>
<path d="M13.7129 13.3069C13.8013 13.2702 13.8983 13.25 14 13.25H18C18.4142 13.25 18.75 13.5858 18.75 14C18.75 14.4142 18.4142 14.75 18 14.75H15.8107L20.5303 19.4697C20.8232 19.7626 20.8232 20.2374 20.5303 20.5303C20.2374 20.8232 19.7626 20.8232 19.4697 20.5303L14.75 15.8107V18C14.75 18.4142 14.4142 18.75 14 18.75C13.5858 18.75 13.25 18.4142 13.25 18V14C13.25 13.8081 13.3232 13.6161 13.4697 13.4697C13.5416 13.3978 13.6245 13.3435 13.7129 13.3069Z" fill="black"/>
</svg>
