<svg width="24" height="24" viewBox="0 0 24 24" fill="none" xmlns="http://www.w3.org/2000/svg">
<path d="M3.30691 3.71291C3.27024 3.80134 3.25 3.89831 3.25 4V8C3.25 8.41421 3.58579 8.75 4 8.75C4.41421 8.75 4.75 8.41421 4.75 8V5.81066L9.46967 10.5303C9.76256 10.8232 10.2374 10.8232 10.5303 10.5303C10.8232 10.2374 10.8232 9.76256 10.5303 9.46967L5.81066 4.75H8C8.41421 4.75 8.75 4.41421 8.75 4C8.75 3.58579 8.41421 3.25 8 3.25H4C3.80806 3.25 3.61612 3.32322 3.46967 3.46967C3.39776 3.54158 3.34351 3.62445 3.30691 3.71291Z" fill="black"/>
<path d="M20 15.25C19.5858 15.25 19.25 15.5858 19.25 16V18.1893L14.5303 13.4697C14.2374 13.1768 13.7626 13.1768 13.4697 13.4697C13.1768 13.7626 13.1768 14.2374 13.4697 14.5303L18.1893 19.25H16C15.5858 19.25 15.25 19.5858 15.25 20C15.25 20.4142 15.5858 20.75 16 20.75H20C20.0129 20.75 20.0258 20.7497 20.0386 20.749C20.1262 20.7446 20.2099 20.7251 20.2871 20.6931C20.3755 20.6565 20.4584 20.6022 20.5303 20.5303C20.6022 20.4584 20.6565 20.3755 20.6931 20.2871C20.7298 20.1987 20.75 20.1017 20.75 20V16C20.75 15.5858 20.4142 15.25 20 15.25Z" fill="black"/>
</svg>
