<svg width="24" height="24" viewBox="0 0 24 24" fill="none" xmlns="http://www.w3.org/2000/svg">
<path d="M19.75 6.5H12.0215L9.786 4.637C9.293 4.226 8.6675 4 8.026 4H4.25C3.0095 4 2 5.0095 2 6.25V17.75C2 18.9905 3.0095 20 4.25 20H19.75C20.9905 20 22 18.9905 22 17.75V8.75C22 7.5095 20.9905 6.5 19.75 6.5ZM15 14H12.5V16.5C12.5 16.776 12.2765 17 12 17C11.7235 17 11.5 16.776 11.5 16.5V14H9C8.7235 14 8.5 13.776 8.5 13.5C8.5 13.224 8.7235 13 9 13H11.5V10.5C11.5 10.224 11.7235 10 12 10C12.2765 10 12.5 10.224 12.5 10.5V13H15C15.2765 13 15.5 13.224 15.5 13.5C15.5 13.776 15.2765 14 15 14Z" fill="black"/>
</svg>
