<svg width="24" height="24" viewBox="0 0 24 24" fill="none" xmlns="http://www.w3.org/2000/svg">
<path fill-rule="evenodd" clip-rule="evenodd" d="M4 4.25C4 3.0095 5.0095 2 6.25 2H12.75C12.957 2 13.1445 2.08404 13.2803 2.21973L19.7803 8.71973C19.916 8.85541 20 9.04275 20 9.25V11.498C19.526 11.3 19.023 11.1572 18.5 11.0762V10H14.25C13.0095 10 12 8.9905 12 7.75V3.5H6.25C5.8365 3.5 5.5 3.8365 5.5 4.25V19.75C5.5 20.1635 5.8365 20.5 6.25 20.5H11.7324C12.0194 21.051 12.3831 21.5555 12.8096 22H6.25C5.0095 22 4 20.9905 4 19.75V4.25ZM17.4395 8.5L13.5 4.56055V7.75C13.5 8.1635 13.8365 8.5 14.25 8.5H17.4395Z" fill="black"/>
<path fill-rule="evenodd" clip-rule="evenodd" d="M12 17.5C12 14.4625 14.4625 12 17.5 12C20.5375 12 23 14.4625 23 17.5C23 20.5375 20.5375 23 17.5 23C14.4625 23 12 20.5375 12 17.5ZM16.75 15.25C16.75 14.9048 17.0298 14.625 17.375 14.625C17.7202 14.625 18 14.9048 18 15.25V17.125H21.125C21.4702 17.125 21.75 17.4048 21.75 17.75C21.75 18.0952 21.4702 18.375 21.125 18.375H17.375C17.0298 18.375 16.75 18.0952 16.75 17.75V15.25Z" fill="black"/>
<path d="M8 13.25C8 12.8355 8.336 12.5 8.75 12.5H13.3457C12.8312 12.928 12.384 13.434 12.0215 14H8.75C8.336 14 8 13.6645 8 13.25Z" fill="black"/>
<path d="M8 16.75C8 16.3355 8.336 16 8.75 16H11.1738C11.0603 16.4815 11 16.9835 11 17.5H8.75C8.336 17.5 8 17.1645 8 16.75Z" fill="black"/>
</svg>
