<svg width="24" height="24" viewBox="0 0 24 24" fill="none" xmlns="http://www.w3.org/2000/svg">
<path d="M14.25 2.00488C12.265 2.00488 10.2796 2.76017 8.76953 4.27051L6.15039 6.88965L3.3457 7.86035C2.69488 8.08533 2.20497 8.63247 2.05078 9.30273V9.30371L2.0498 9.30469C2.0166 9.45091 2 9.60035 2 9.75C2 10.2744 2.20684 10.785 2.58594 11.1641L5.37988 13.958C4.83823 14.5456 4.5 15.3266 4.5 16.1875C4.5 18.0083 5.9922 19.5 7.8125 19.5C8.67298 19.5 9.45409 19.1618 10.042 18.6201L12.835 21.4141C13.2141 21.794 13.7261 22 14.25 22C14.3996 22 14.5497 21.9829 14.6953 21.9502H14.6963L14.6982 21.9492C15.3685 21.795 15.9156 21.3051 16.1406 20.6543V20.6533L17.1113 17.8496L19.7305 15.2305C22.7501 12.2103 22.7503 7.29019 19.7295 4.27051C18.2194 2.76017 16.235 2.00488 14.25 2.00488ZM14.25 3.49512C15.848 3.49512 17.4455 4.10739 18.6689 5.33105C21.1162 7.77737 21.1162 11.7231 18.6699 14.1699L15.8066 17.0322L14.7227 20.1641C14.6666 20.3264 14.5311 20.4472 14.3633 20.4863L14.3623 20.4873C14.3226 20.4959 14.2861 20.5 14.25 20.5C14.1179 20.5 13.9913 20.4495 13.8965 20.3545V20.3535L8.77148 15.2285L3.64648 10.1035C3.55158 10.0086 3.5 9.88055 3.5 9.75C3.5 9.71328 3.50421 9.67669 3.5127 9.63867C3.55145 9.47021 3.67315 9.33451 3.83594 9.27832L6.96777 8.19433L9.83008 5.33105C11.0535 4.10739 12.652 3.49512 14.25 3.49512ZM6.43945 15.0176L7.71094 16.2891L8.98145 17.5605C8.66758 17.8331 8.26415 18 7.8125 18C6.8028 18 6 17.1977 6 16.1875C6 15.7358 6.16658 15.3316 6.43945 15.0176Z" fill="black"/>
</svg>
