<svg width="24" height="24" viewBox="0 0 24 24" fill="none" xmlns="http://www.w3.org/2000/svg">
<path d="M3 4.25C3 3.0095 4.0095 2 5.25 2H11V7.75C11 8.9905 12.0095 10 13.25 10H19V11.502C18.23 11.18 17.3855 11 16.5 11C14.928 11 13.4859 11.5612 12.3604 12.4932H7.74512L7.64355 12.5C7.27755 12.5495 6.99512 12.8637 6.99512 13.2432C6.99512 13.6577 7.33112 14 7.74512 14H11.0352C10.6437 14.6075 10.3536 15.277 10.1816 16H7.74512L7.64355 16.0068C7.27755 16.0563 6.99512 16.3705 6.99512 16.75C6.99512 17.164 7.33112 17.5 7.74512 17.5H10C10 19.2465 10.6958 20.831 11.8203 22H5.25C4.0095 22 3 20.9905 3 19.75V4.25Z" fill="black"/>
<path d="M12.5 7.75V2.43945L18.5605 8.5H13.25C12.8365 8.5 12.5 8.1635 12.5 7.75Z" fill="black"/>
<path fill-rule="evenodd" clip-rule="evenodd" d="M11 17.5C11 14.4625 13.4625 12 16.5 12C19.5375 12 22 14.4625 22 17.5C22 20.5375 19.5375 23 16.5 23C13.4625 23 11 20.5375 11 17.5ZM16.5001 13.5C16.8001 13.5 17.0001 13.7 17.0001 14V19.2998L18.6505 17.6504C18.8505 17.4504 19.1497 17.4504 19.3497 17.6504C19.5497 17.8504 19.5497 18.1496 19.3497 18.3496L16.8497 20.8496C16.6497 21.0496 16.3505 21.0496 16.1505 20.8496L13.6505 18.3496C13.4505 18.1496 13.4505 17.8504 13.6505 17.6504C13.7505 17.5504 13.9001 17.5 14.0001 17.5C14.1001 17.5 14.2497 17.5504 14.3497 17.6504L16.0001 19.2998V14C16.0001 13.7 16.2001 13.5 16.5001 13.5Z" fill="black"/>
</svg>
