<svg width="24" height="24" viewBox="0 0 24 24" fill="none" xmlns="http://www.w3.org/2000/svg">
<path d="M11.4617 3.21683C11.6002 3.07419 11.7895 2.99233 11.9883 2.98923C12.0887 2.98766 12.1883 3.00626 12.2814 3.04392C12.3745 3.08158 12.459 3.13754 12.53 3.20849C12.6011 3.27943 12.6571 3.36391 12.6949 3.45692C12.7327 3.54994 12.7514 3.64959 12.75 3.74997V14.4394L14.4697 12.7197C14.5388 12.6477 14.6216 12.5903 14.7132 12.5507C14.8048 12.5111 14.9034 12.4902 15.0032 12.4892C15.1029 12.4881 15.2019 12.507 15.2943 12.5448C15.3867 12.5825 15.4706 12.6382 15.5412 12.7088C15.6117 12.7794 15.6675 12.8633 15.7052 12.9557C15.7429 13.0481 15.7618 13.147 15.7608 13.2468C15.7598 13.3466 15.7389 13.4452 15.6993 13.5368C15.6597 13.6284 15.6023 13.7111 15.5303 13.7802L12.5303 16.7802C12.3896 16.9208 12.1989 16.9998 12 16.9998C11.8011 16.9998 11.6104 16.9208 11.4697 16.7802L8.46973 13.7802C8.36267 13.6762 8.28907 13.5427 8.25835 13.3966C8.22763 13.2505 8.24119 13.0986 8.2973 12.9603C8.3534 12.822 8.44949 12.7036 8.57328 12.6202C8.69707 12.5368 8.84293 12.4922 8.99219 12.4922C9.09254 12.4922 9.19187 12.5123 9.28429 12.5514C9.37672 12.5905 9.46037 12.6477 9.53027 12.7197L11.25 14.4394V3.74997C11.2471 3.55122 11.3233 3.35947 11.4617 3.21683Z" fill="black"/>
<path d="M3 11.25C3 9.74008 4.24011 8.49997 5.75 8.49997H8.75C8.84938 8.49856 8.94806 8.51693 9.04028 8.55399C9.13251 8.59105 9.21645 8.64607 9.28723 8.71585C9.358 8.78563 9.41421 8.86879 9.45257 8.96048C9.49093 9.05217 9.51068 9.15058 9.51068 9.24997C9.51068 9.34936 9.49093 9.44777 9.45257 9.53946C9.41421 9.63115 9.358 9.71431 9.28723 9.78409C9.21645 9.85387 9.13251 9.90889 9.04028 9.94595C8.94806 9.98301 8.84938 10.0014 8.75 9.99997H5.75C5.05089 9.99997 4.5 10.5509 4.5 11.25V18.25C4.5 18.9491 5.05089 19.5 5.75 19.5H18.25C18.9491 19.5 19.5 18.9491 19.5 18.25V11.25C19.5 10.5509 18.9491 9.99997 18.25 9.99997H15.25C15.1506 10.0014 15.0519 9.98301 14.9597 9.94595C14.8675 9.90889 14.7836 9.85387 14.7128 9.78409C14.642 9.71431 14.5858 9.63115 14.5474 9.53946C14.5091 9.44777 14.4893 9.34936 14.4893 9.24997C14.4893 9.15058 14.5091 9.05217 14.5474 8.96048C14.5858 8.86879 14.642 8.78563 14.7128 8.71585C14.7836 8.64607 14.8675 8.59105 14.9597 8.55399C15.0519 8.51693 15.1506 8.49856 15.25 8.49997H18.25C19.7599 8.49997 21 9.74008 21 11.25V18.25C21 19.7599 19.7599 21 18.25 21H5.75C4.24011 21 3 19.7599 3 18.25V11.25Z" fill="black"/>
</svg>
