<svg width="24" height="24" viewBox="0 0 24 24" fill="none" xmlns="http://www.w3.org/2000/svg">
<path d="M5.11612 5.11612C5.35054 4.8817 5.66848 4.75 6 4.75C6.41421 4.75 6.75 4.41421 6.75 4C6.75 3.58579 6.41421 3.25 6 3.25C5.27065 3.25 4.57118 3.53973 4.05546 4.05546C3.53973 4.57118 3.25 5.27065 3.25 6C3.25 6.41421 3.58579 6.75 4 6.75C4.41421 6.75 4.75 6.41421 4.75 6C4.75 5.66848 4.8817 5.35054 5.11612 5.11612Z" fill="black"/>
<path d="M9 3.25C8.58579 3.25 8.25 3.58579 8.25 4C8.25 4.41421 8.58579 4.75 9 4.75H11C11.4142 4.75 11.75 4.41421 11.75 4C11.75 3.58579 11.4142 3.25 11 3.25H9Z" fill="black"/>
<path d="M14 3.25C13.5858 3.25 13.25 3.58579 13.25 4C13.25 4.41421 13.5858 4.75 14 4.75C14.3315 4.75 14.6495 4.8817 14.8839 5.11612C15.1183 5.35054 15.25 5.66848 15.25 6C15.25 6.41421 15.5858 6.75 16 6.75C16.4142 6.75 16.75 6.41421 16.75 6C16.75 5.27065 16.4603 4.57118 15.9445 4.05546C15.4288 3.53973 14.7293 3.25 14 3.25Z" fill="black"/>
<path d="M4.75 9C4.75 8.58579 4.41421 8.25 4 8.25C3.58579 8.25 3.25 8.58579 3.25 9V11C3.25 11.4142 3.58579 11.75 4 11.75C4.41421 11.75 4.75 11.4142 4.75 11V9Z" fill="black"/>
<path d="M4.75 14C4.75 13.5858 4.41421 13.25 4 13.25C3.58579 13.25 3.25 13.5858 3.25 14C3.25 14.7293 3.53973 15.4288 4.05546 15.9445C4.57118 16.4603 5.27065 16.75 6 16.75C6.41421 16.75 6.75 16.4142 6.75 16C6.75 15.5858 6.41421 15.25 6 15.25C5.66848 15.25 5.35054 15.1183 5.11612 14.8839C4.8817 14.6495 4.75 14.3315 4.75 14Z" fill="black"/>
<path d="M11.25 14C11.25 13.5858 11.5858 13.25 12 13.25H13.25V12C13.25 11.5858 13.5858 11.25 14 11.25C14.4142 11.25 14.75 11.5858 14.75 12V13.25H16C16.4142 13.25 16.75 13.5858 16.75 14C16.75 14.4142 16.4142 14.75 16 14.75H14.75V16C14.75 16.4142 14.4142 16.75 14 16.75C13.5858 16.75 13.25 16.4142 13.25 16V14.75H12C11.5858 14.75 11.25 14.4142 11.25 14Z" fill="black"/>
<path fill-rule="evenodd" clip-rule="evenodd" d="M10 7.25C9.27065 7.25 8.57118 7.53973 8.05546 8.05546C7.53973 8.57118 7.25 9.27065 7.25 10V18C7.25 18.7293 7.53973 19.4288 8.05546 19.9445C8.57118 20.4603 9.27065 20.75 10 20.75H18C18.7293 20.75 19.4288 20.4603 19.9445 19.9445C20.4603 19.4288 20.75 18.7293 20.75 18V10C20.75 9.27065 20.4603 8.57118 19.9445 8.05546C19.4288 7.53973 18.7293 7.25 18 7.25H10ZM9.11612 9.11612C9.35054 8.8817 9.66848 8.75 10 8.75H18C18.3315 8.75 18.6495 8.8817 18.8839 9.11612C19.1183 9.35054 19.25 9.66848 19.25 10V18C19.25 18.3315 19.1183 18.6495 18.8839 18.8839C18.6495 19.1183 18.3315 19.25 18 19.25H10C9.66848 19.25 9.35054 19.1183 9.11612 18.8839C8.8817 18.6495 8.75 18.3315 8.75 18V10C8.75 9.66848 8.8817 9.35054 9.11612 9.11612Z" fill="black"/>
</svg>
