<svg width="24" height="24" viewBox="0 0 24 24" fill="none" xmlns="http://www.w3.org/2000/svg">
<path d="M12 2C9.243 2 7 4.243 7 7C7 9.757 9.243 12 12 12C14.757 12 17 9.757 17 7C17 4.243 14.757 2 12 2ZM20.7568 12C20.1825 12.0001 19.6086 12.2185 19.1719 12.6553L13.1631 18.6631C13.0076 18.8181 12.895 19.0117 12.835 19.2227L12.0293 22.043C11.9548 22.3045 12.0267 22.5868 12.2197 22.7793C12.3622 22.9218 12.5545 22.999 12.751 22.999C12.82 22.999 12.8881 22.9892 12.9561 22.9697L15.7783 22.1641C15.9903 22.1036 16.1839 21.9894 16.3359 21.8359L22.3438 15.8281C22.7668 15.4041 23 14.8402 23 14.2412C23 13.6422 22.7663 13.0788 22.3428 12.6553C21.9055 12.218 21.3312 11.9999 20.7568 12ZM6.25 14C5.0095 14 4 15.0095 4 16.25V16.6318C4 17.8088 4.48975 18.9399 5.34375 19.7354C6.34575 20.6679 8.12239 21.7589 11.0254 21.9629C11.0364 21.8979 11.0494 21.8331 11.0674 21.7686L11.8721 18.9473C11.9786 18.5733 12.181 18.2296 12.457 17.9551L16.4131 14H6.25Z" fill="black"/>
</svg>
