<svg width="24" height="24" viewBox="0 0 24 24" fill="none" xmlns="http://www.w3.org/2000/svg">
<path fill-rule="evenodd" clip-rule="evenodd" d="M18.1491 2.26895L21.7313 5.85489C22.0896 6.22183 22.0896 6.81393 21.7313 7.18086L16.2581 12.6599C16.0748 12.8433 15.8249 12.9351 15.5916 12.9351C15.3583 12.9351 15.1084 12.8433 14.9251 12.6599C14.5669 12.2929 14.5669 11.7008 14.9251 11.3339L17.2827 8.98217L15.0334 6.73053L12.6758 9.08225C12.4926 9.25738 12.2427 9.34911 12.0094 9.34911C11.7761 9.34911 11.5262 9.25738 11.3513 9.08225C10.9847 8.70697 10.9847 8.11488 11.3513 7.74794L16.8245 2.26895C17.1994 1.91035 17.7909 1.91035 18.1491 2.26895ZM16.2247 5.52966L18.474 7.7813L19.7403 6.50537L17.491 4.25373L16.2247 5.52966Z" fill="black"/>
<path fill-rule="evenodd" clip-rule="evenodd" d="M3.44542 3.70333L20.2901 20.5656L20.2985 20.5573C20.6233 20.8909 20.6233 21.4329 20.2985 21.7582C20.1318 21.9166 19.9236 22 19.6986 22C19.4737 22 19.2654 21.9166 19.0988 21.7582L13.1257 15.7788L8.51049 20.3988C8.3772 20.5156 8.22725 20.599 8.06063 20.6407L3.33712 21.7999C3.27047 21.8165 3.1955 21.8249 3.12052 21.8249C2.87893 21.8249 2.63734 21.7248 2.46239 21.5497C2.22913 21.3245 2.1375 20.9826 2.21247 20.674L3.36211 15.9456C3.40376 15.7705 3.48707 15.6203 3.6037 15.4953L8.22725 10.8752L2.25413 4.89586C1.9209 4.57062 1.91257 4.02856 2.2458 3.70333C2.57902 3.37809 3.12052 3.37809 3.44542 3.70333ZM4.38679 19.6233L7.36918 18.8977L11.8011 14.4612L9.5435 12.2012L5.11156 16.6378L4.38679 19.6233Z" fill="black"/>
</svg>
