<svg width="24" height="24" viewBox="0 0 24 24" fill="none" xmlns="http://www.w3.org/2000/svg">
<path d="M20.749 12C21.346 11.999 21.9103 12.2302 22.3398 12.6602C22.7703 13.0897 23.0005 13.654 22.999 14.251C22.9985 14.388 22.9869 14.5265 22.9619 14.666C22.8824 15.108 22.6519 15.5302 22.2949 15.8867L16.3945 21.7861C16.2155 21.9651 15.9944 22.096 15.7529 22.166L13.0127 22.9512C12.9172 22.9877 12.8153 23.0035 12.7148 23C12.5338 22.993 12.3553 22.9217 12.2168 22.7832C12.0778 22.6442 12.0065 22.4647 12 22.2832C11.9965 22.1827 12.0128 22.0823 12.0488 21.9873L12.834 19.2471C12.904 19.0056 13.0354 18.783 13.2139 18.6045L19.1133 12.7051C19.4698 12.3481 19.892 12.1176 20.334 12.0381C20.4735 12.0126 20.612 12.0005 20.749 12ZM12 2V7.75C12 8.9905 13.0095 10 14.25 10H19.999V11.0947C19.414 11.2327 18.8653 11.5366 18.4053 11.9971L13.9785 16.4238C13.9413 16.3473 13.8946 16.2756 13.834 16.2158C13.7633 16.1462 13.679 16.0907 13.5869 16.0537C13.4949 16.0168 13.396 15.9986 13.2969 16H8.5C8.4008 15.9986 8.30203 16.0168 8.20996 16.0537C8.11778 16.0908 8.03365 16.1461 7.96289 16.2158C7.89214 16.2856 7.83621 16.3693 7.79785 16.4609C7.75958 16.5525 7.73926 16.6507 7.73926 16.75C7.73927 16.8493 7.75957 16.9475 7.79785 17.0391C7.83621 17.1307 7.89215 17.2144 7.96289 17.2842C8.03363 17.3539 8.11781 17.4093 8.20996 17.4463C8.30202 17.4832 8.40082 17.5014 8.5 17.5H12.9033L12.5059 17.8975C12.2079 18.1955 11.9886 18.5653 11.8721 18.9688L11.4795 20.3418L11.21 21.2832C11.1755 21.4047 11.1417 21.5218 11.1152 21.6338L11.1143 21.6328C11.0693 21.7523 11.0395 21.8755 11.0215 22H6.25C5.0095 22 4 20.9905 4 19.75V4.25C4 3.0095 5.0095 2 6.25 2H12ZM8.5 12.5C8.4008 12.4986 8.30203 12.5168 8.20996 12.5537C8.11778 12.5908 8.03365 12.6461 7.96289 12.7158C7.89214 12.7856 7.83621 12.8693 7.79785 12.9609C7.75958 13.0525 7.73926 13.1507 7.73926 13.25C7.73927 13.3493 7.75957 13.4475 7.79785 13.5391C7.83621 13.6307 7.89215 13.7144 7.96289 13.7842C8.03363 13.8539 8.11781 13.9093 8.20996 13.9463C8.30202 13.9832 8.40082 14.0014 8.5 14H15C15.0991 14.0014 15.198 13.9832 15.29 13.9463C15.3821 13.9093 15.4664 13.8538 15.5371 13.7842C15.6078 13.7144 15.6648 13.6307 15.7031 13.5391C15.7413 13.4475 15.7607 13.3492 15.7607 13.25C15.7607 13.1508 15.7413 13.0524 15.7031 12.9609C15.6648 12.8693 15.6078 12.7856 15.5371 12.7158C15.4664 12.6462 15.3821 12.5907 15.29 12.5537C15.198 12.5168 15.0991 12.4986 15 12.5H8.5ZM19.5605 8.5H14.25C13.8365 8.5 13.5 8.1635 13.5 7.75V2.43945L19.5605 8.5Z" fill="black"/>
</svg>
