<svg width="24" height="24" viewBox="0 0 24 24" fill="none" xmlns="http://www.w3.org/2000/svg">
<path d="M10.1781 2.42218C12.1001 2.05558 14.088 2.27574 15.8831 3.05404C17.6783 3.83233 19.1978 5.13275 20.244 6.78619C21.2903 8.43963 21.8148 10.3696 21.7494 12.3252C21.7356 12.7391 21.3888 13.0635 20.9748 13.0497C20.5608 13.0359 20.2365 12.689 20.2503 12.2751C20.3056 10.6204 19.8617 8.98731 18.9765 7.58824C18.0912 6.18917 16.8055 5.08882 15.2865 4.43027C13.7675 3.77171 12.0855 3.58542 10.4592 3.89561C8.83287 4.20581 7.33752 4.99814 6.16757 6.16958C4.99761 7.34102 4.20717 8.83737 3.89903 10.4641C3.5909 12.0908 3.77932 13.7725 4.4398 15.2907C5.10028 16.8089 6.20225 18.0932 7.60244 18.9767C9.00263 19.8602 10.6362 20.302 12.2909 20.2446C12.7048 20.2302 13.0521 20.5541 13.0664 20.9681C13.0808 21.3821 12.7568 21.7293 12.3429 21.7437C10.3874 21.8115 8.45676 21.2894 6.802 20.2453C5.14723 19.2011 3.84489 17.6833 3.06433 15.8891C2.28376 14.0949 2.06108 12.1073 2.42524 10.1849C2.7894 8.26244 3.72356 6.49402 5.10623 5.10959C6.48891 3.72516 8.25614 2.78877 10.1781 2.42218Z" fill="black"/>
<path d="M11.9999 6.25C12.4141 6.25 12.7499 6.58579 12.7499 7V11.6893L14.5302 13.4697C14.8231 13.7626 14.8231 14.2374 14.5302 14.5303C14.2373 14.8232 13.7624 14.8232 13.4695 14.5303L11.4695 12.5303C11.3289 12.3897 11.2499 12.1989 11.2499 12V7C11.2499 6.58579 11.5857 6.25 11.9999 6.25Z" fill="black"/>
<path fill-rule="evenodd" clip-rule="evenodd" d="M19.0009 14.5V15.1716C19.3463 15.2937 19.6685 15.4788 19.9503 15.7197L20.5319 15.3839C21.0102 15.1078 21.6218 15.2716 21.898 15.7499C22.1741 16.2282 22.0103 16.8398 21.532 17.1159L20.9503 17.4517C20.9837 17.6313 21.0009 17.8148 21.0009 18C21.0009 18.1851 20.9838 18.3684 20.9504 18.5478L21.5327 18.8837C22.0111 19.1597 22.1751 19.7713 21.8991 20.2496C21.6232 20.728 21.0116 20.8921 20.5332 20.6161L19.9506 20.28C19.6688 20.521 19.3464 20.7062 19.0009 20.8284V21.5C19.0009 22.0523 18.5531 22.5 18.0009 22.5C17.4486 22.5 17.0009 22.0523 17.0009 21.5V20.8284C16.6555 20.7063 16.3333 20.5212 16.0515 20.2804L15.4696 20.6161C14.9912 20.8921 14.3797 20.728 14.1037 20.2496C13.8277 19.7713 13.9918 19.1597 14.4702 18.8837L15.0514 18.5484C15.018 18.3688 15.0009 18.1853 15.0009 18C15.0009 17.8147 15.018 17.6311 15.0514 17.4514L14.4702 17.1161C13.9918 16.8401 13.8277 16.2286 14.1037 15.7502C14.3797 15.2718 14.9912 15.1077 15.4696 15.3837L16.0516 15.7195C16.3333 15.4787 16.6555 15.2937 17.0009 15.1716V14.5C17.0009 13.9477 17.4486 13.5 18.0009 13.5C18.5531 13.5 19.0009 13.9477 19.0009 14.5ZM17.0009 18C17.0009 17.8331 17.0426 17.6705 17.1202 17.5262C17.1256 17.5174 17.1309 17.5086 17.1361 17.4996C17.141 17.4911 17.1458 17.4825 17.1505 17.4738C17.1908 17.4087 17.2387 17.3479 17.2937 17.2929C17.4813 17.1054 17.7356 17 18.0009 17C18.2661 17 18.5204 17.1054 18.708 17.2929C18.8955 17.4804 19.0009 17.7348 19.0009 18C19.0009 18.2652 18.8955 18.5196 18.708 18.7071C18.5204 18.8946 18.2661 19 18.0009 19C17.7356 19 17.4813 18.8946 17.2937 18.7071C17.239 18.6524 17.1913 18.592 17.1512 18.5273C17.1463 18.5182 17.1413 18.5092 17.1361 18.5002C17.1336 18.4959 17.1311 18.4916 17.1286 18.4874C17.1256 18.4824 17.1226 18.4775 17.1196 18.4727C17.0423 18.3286 17.0009 18.1664 17.0009 18Z" fill="black"/>
</svg>
