<svg width="24" height="24" viewBox="0 0 24 24" fill="none" xmlns="http://www.w3.org/2000/svg">
<path d="M4.74994 3.00008C4.65056 2.99867 4.55188 3.01703 4.45966 3.05409C4.36743 3.09115 4.28349 3.14617 4.21271 3.21595C4.14194 3.28574 4.08573 3.36889 4.04737 3.46059C4.00901 3.55228 3.98926 3.65068 3.98926 3.75007C3.98926 3.84947 4.00901 3.94787 4.04737 4.03956C4.08573 4.13126 4.14194 4.21441 4.21271 4.2842C4.28349 4.35398 4.36743 4.409 4.45966 4.44606C4.55188 4.48312 4.65056 4.50148 4.74994 4.50007H4.99994V5.50008C4.99994 8.46502 6.88616 10.9426 9.49994 11.9591V12.0411C6.88616 13.0576 4.99994 15.5351 4.99994 18.5001V19.5001H4.74994C4.65056 19.4987 4.55188 19.517 4.45966 19.5541C4.36743 19.5912 4.28349 19.6462 4.21271 19.716C4.14194 19.7857 4.08573 19.8689 4.04737 19.9606C4.00901 20.0523 3.98926 20.1507 3.98926 20.2501C3.98926 20.3495 4.00901 20.4479 4.04737 20.5396C4.08573 20.6313 4.14194 20.7144 4.21271 20.7842C4.28349 20.854 4.36743 20.909 4.45966 20.9461C4.55188 20.9831 4.65056 21.0015 4.74994 21.0001H5.74994H18.2499H19.2499C19.3493 21.0015 19.448 20.9831 19.5402 20.9461C19.6324 20.909 19.7164 20.854 19.7872 20.7842C19.8579 20.7144 19.9141 20.6313 19.9525 20.5396C19.9909 20.4479 20.0106 20.3495 20.0106 20.2501C20.0106 20.1507 19.9909 20.0523 19.9525 19.9606C19.9141 19.8689 19.8579 19.7857 19.7872 19.716C19.7164 19.6462 19.6324 19.5912 19.5402 19.5541C19.448 19.517 19.3493 19.4987 19.2499 19.5001H18.9999V18.5001C18.9999 15.5351 17.1137 13.0576 14.4999 12.0411V11.9591C17.1137 10.9426 18.9999 8.46502 18.9999 5.50008V4.50007H19.2499C19.3493 4.50148 19.448 4.48312 19.5402 4.44606C19.6324 4.409 19.7164 4.35398 19.7872 4.2842C19.8579 4.21441 19.9141 4.13126 19.9525 4.03956C19.9909 3.94787 20.0106 3.84947 20.0106 3.75007C20.0106 3.65068 19.9909 3.55228 19.9525 3.46059C19.9141 3.36889 19.8579 3.28574 19.7872 3.21595C19.7164 3.14617 19.6324 3.09115 19.5402 3.05409C19.448 3.01703 19.3493 2.99867 19.2499 3.00008H18.2499H5.74994H4.74994ZM6.49994 4.50007H17.4999V5.50008C17.4999 8.0093 15.8254 10.1113 13.54 10.7774C13.3842 10.8228 13.2474 10.9175 13.1501 11.0473C13.0527 11.1771 13 11.3349 12.9999 11.4971V12.503C13 12.6652 13.0527 12.8231 13.1501 12.9528C13.2474 13.0826 13.3842 13.1773 13.54 13.2227C15.8254 13.8888 17.4999 15.9908 17.4999 18.5001V19.5001H6.49994V18.5001C6.49994 15.9908 8.17446 13.8888 10.4599 13.2227C10.6156 13.1773 10.7525 13.0826 10.8498 12.9528C10.9472 12.8231 10.9999 12.6652 10.9999 12.503V11.4971C10.9999 11.3349 10.9472 11.1771 10.8498 11.0473C10.7525 10.9175 10.6156 10.8228 10.4599 10.7774C8.17446 10.1113 6.49994 8.0093 6.49994 5.50008V4.50007Z" fill="black"/>
</svg>
