<svg width="24" height="24" viewBox="0 0 24 24" fill="none" xmlns="http://www.w3.org/2000/svg">
<path fill-rule="evenodd" clip-rule="evenodd" d="M6.77582 6.95996H6.50032C6.08582 6.95996 5.75032 6.62396 5.75032 6.20996C5.75032 5.79596 6.08582 5.45996 6.50032 5.45996H7.13232C7.84682 3.63846 9.50282 2.29146 11.5003 2.01746V1.70996C11.5003 1.29596 11.8358 0.959961 12.2503 0.959961C12.6648 0.959961 13.0003 1.29596 13.0003 1.70996V2.01746C14.9978 2.29146 16.6538 3.63846 17.3683 5.45996H18.0003C18.4148 5.45996 18.7503 5.79596 18.7503 6.20996C18.7503 6.62396 18.4148 6.95996 18.0003 6.95996H17.7253H6.77582ZM12.2503 12.96C9.55929 12.96 7.31779 11.0165 6.84579 8.45996H17.6548C17.1828 11.0165 14.9413 12.96 12.2503 12.96ZM13.3412 16.4601H11.1594L11.8632 17.7501L10.7751 21.3773C11.2571 21.4322 11.7519 21.4601 12.2502 21.4601C12.7486 21.4601 13.2434 21.4322 13.7254 21.3773L12.6372 17.7506L13.3412 16.4601ZM20.4997 16.9496V16.9601L20.5002 17.7101C20.5002 19.5837 19.3111 20.9193 17.7594 21.7469C16.2151 22.5705 14.21 22.9601 12.2502 22.9601C10.2905 22.9601 8.28536 22.5705 6.74105 21.7469C5.18938 20.9193 4.00024 19.5837 4.00024 17.7101V16.9496C4.00024 15.9302 4.75846 14.9601 5.86124 14.9601H18.6387C19.7415 14.9601 20.4997 15.9302 20.4997 16.9496Z" fill="black"/>
</svg>
