<svg width="24" height="24" viewBox="0 0 24 24" fill="none" xmlns="http://www.w3.org/2000/svg">
<path fill-rule="evenodd" clip-rule="evenodd" d="M11.8555 5C12.1206 5 12.3355 5.2149 12.3355 5.48V5.6303C13.7297 5.83274 14.8423 6.90406 15.1063 8.27727H15.2818C15.5469 8.27727 15.7618 8.49217 15.7618 8.75727C15.7618 9.02236 15.5469 9.23727 15.2818 9.23727H15.1496C14.9834 10.9099 13.5721 12.2163 11.8557 12.2163C10.1393 12.2163 8.728 10.9099 8.56181 9.23727H8.42967C8.16457 9.23727 7.94967 9.02236 7.94967 8.75727C7.94967 8.72211 7.95345 8.68785 7.96062 8.65485C8.00078 8.47007 8.14735 8.32499 8.33293 8.28702C8.34375 8.2848 8.3547 8.28295 8.36577 8.28148C8.38667 8.2787 8.408 8.27727 8.42967 8.27727H8.60509C8.86911 6.90417 9.98155 5.83291 11.3755 5.63035V5.48C11.3755 5.2149 11.5904 5 11.8555 5ZM11.3755 6.97258V6.60487C10.513 6.78394 9.82357 7.43578 9.5905 8.27727H14.1209C13.8878 7.43567 13.1983 6.78377 12.3355 6.6048V6.97258C12.3355 7.23768 12.1206 7.45258 11.8555 7.45258C11.5904 7.45258 11.3755 7.23768 11.3755 6.97258ZM14.1828 9.23727C14.0218 10.3784 13.0413 11.2563 11.8557 11.2563C10.6701 11.2563 9.68958 10.3784 9.52861 9.23727H14.1828ZM12.5278 14.3016L12.1109 15.2049L12.8854 17.141C13.5271 17.0473 14.1199 16.8655 14.5939 16.604C15.3068 16.2107 15.6957 15.6765 15.6957 15.0133V14.761L15.6956 14.5477C15.6955 14.5448 15.6953 14.5419 15.6951 14.539C15.6949 14.5372 15.6948 14.5355 15.6946 14.5338C15.6813 14.4034 15.5712 14.3016 15.4374 14.3016H15.2869H12.5278ZM11.1834 14.3016L11.6003 15.205L10.8259 17.141C10.1844 17.0472 9.59173 16.8655 9.11783 16.604C8.40491 16.2107 8.016 15.6765 8.016 15.0133V14.9834V14.5602C8.016 14.4174 8.13178 14.3016 8.27454 14.3016H8.7128H11.1834ZM14.9385 13.3416H9.07209L8.27454 13.3416C8.21152 13.3416 8.14961 13.3464 8.08917 13.3557C7.5515 13.4377 7.12939 13.8712 7.06463 14.4144L7.06394 14.4203C7.05869 14.4662 7.056 14.5129 7.056 14.5602V15.0133C7.056 15.1586 7.06754 15.2986 7.08959 15.4333C7.23822 16.341 7.86426 17.0088 8.65407 17.4446C9.55386 17.941 10.7194 18.1746 11.8558 18.1746C12.9923 18.1746 14.1578 17.941 15.0576 17.4446C15.8299 17.0185 16.4457 16.3705 16.6115 15.4933H16.656V15.0133V14.5602C16.656 14.0636 16.3589 13.6364 15.9329 13.4466M9.00121 12.3816C8.84957 11.9866 8.47035 11.7015 8.01767 11.7015H2.44651C1.85701 11.7015 1.39209 12.185 1.39209 12.7651V13.1232C1.39209 14.0563 1.9586 14.7226 2.68733 15.1312C3.40779 15.5351 4.33441 15.7222 5.23197 15.7222C5.53873 15.7222 5.84887 15.7004 6.15303 15.6555C6.11584 15.4515 6.096 15.2375 6.096 15.0133V14.6928C6.06246 14.6983 6.02871 14.7035 5.99478 14.7084L5.43039 13.2748L5.70896 12.6615H7.20561C7.52141 12.4833 7.88611 12.3816 8.27454 12.3816H9.00121ZM7.45438 9.81672C6.97364 10.5374 6.16012 11.0135 5.23191 11.0135C3.86622 11.0135 2.74882 9.98284 2.57431 8.65906H2.56725C2.30215 8.65906 2.08725 8.44416 2.08725 8.17906C2.08725 7.91397 2.30215 7.69906 2.56725 7.69906H2.61585C2.8498 6.64492 3.68937 5.81759 4.75186 5.62339V5.58922C4.75186 5.32412 4.96676 5.10922 5.23186 5.10922C5.49695 5.10922 5.71186 5.32412 5.71186 5.58922V5.62337C6.69569 5.80315 7.4884 6.52579 7.78616 7.4687C7.31391 7.705 6.98967 8.19327 6.98967 8.75727C6.98967 9.17632 7.16867 9.55357 7.45438 9.81672ZM4.75186 6.60951V6.76878C4.75186 7.03388 4.96676 7.24878 5.23186 7.24878C5.49695 7.24878 5.71186 7.03388 5.71186 6.76878V6.60948C6.23896 6.76563 6.66475 7.17249 6.85125 7.69906H3.61257C3.79905 7.17252 4.2248 6.76568 4.75186 6.60951ZM5.23191 10.0535C6.05532 10.0535 6.75258 9.4599 6.91669 8.65906H3.54713C3.71124 9.4599 4.4085 10.0535 5.23191 10.0535ZM5.03322 13.2746L4.75473 12.6615H2.44651C2.40158 12.6615 2.35209 12.7007 2.35209 12.7651V13.1232C2.35209 13.6029 2.62555 13.996 3.15677 14.2938C3.51708 14.4958 3.97276 14.6369 4.46878 14.7084L5.03322 13.2746ZM16.7218 8.75727C16.7218 9.08402 16.6129 9.38536 16.4295 9.62701C16.8879 10.4526 17.7603 11.0135 18.7677 11.0135C20.1334 11.0135 21.2508 9.98284 21.4253 8.65906H21.4325C21.6976 8.65906 21.9125 8.44416 21.9125 8.17906C21.9125 7.91397 21.6976 7.69906 21.4325 7.69906H21.3837C21.1498 6.64488 20.3102 5.81753 19.2476 5.62337V5.58922C19.2476 5.32412 19.0327 5.10922 18.7676 5.10922C18.5025 5.10922 18.2876 5.32412 18.2876 5.58922V5.62339C17.2507 5.81292 16.4261 6.6055 16.1696 7.62342C16.5057 7.88702 16.7218 8.29692 16.7218 8.75727ZM18.7678 15.7222C18.383 15.7222 17.9928 15.6878 17.6159 15.6167V14.6362C17.7419 14.6651 17.8718 14.6892 18.0046 14.7084L18.569 13.2746L18.2905 12.6615H16.5063C16.1905 12.4833 15.8258 12.3816 15.4374 12.3816H14.9987C15.1504 11.9866 15.5296 11.7015 15.9823 11.7015H21.5534C22.1429 11.7015 22.6079 12.185 22.6079 12.7651V13.1232V13.4947C22.6079 13.5668 22.6008 13.6391 22.5804 13.7083C22.3947 14.3409 21.8785 14.8138 21.3124 15.1312C20.5919 15.5351 19.6653 15.7222 18.7678 15.7222ZM18.2876 6.76878V6.60951C17.7606 6.76568 17.3348 7.17252 17.1483 7.69906H20.387C20.2005 7.17249 19.7747 6.76563 19.2476 6.60948V6.76878C19.2476 7.03388 19.0327 7.24878 18.7676 7.24878C18.5025 7.24878 18.2876 7.03388 18.2876 6.76878ZM20.4525 8.65906C20.2884 9.4599 19.5911 10.0535 18.7677 10.0535C17.9443 10.0535 17.247 9.4599 17.0829 8.65906H20.4525ZM19.2447 12.6615L18.9662 13.2748L19.5306 14.7084C20.0267 14.637 20.4825 14.4958 20.843 14.2938C21.3742 13.996 21.6476 13.6029 21.6476 13.1232V12.7576C21.6439 12.6976 21.5966 12.6615 21.5534 12.6615H19.2447Z" fill="black"/>
</svg>
