<svg width="24" height="24" viewBox="0 0 24 24" fill="none" xmlns="http://www.w3.org/2000/svg">
<path fill-rule="evenodd" clip-rule="evenodd" d="M15.9998 4C16.3977 4 16.7792 4.15803 17.0605 4.43934C17.3418 4.72064 17.4998 5.10218 17.4998 5.5V12.5C17.4998 12.8978 17.3418 13.2794 17.0605 13.5607C16.7843 13.8369 16.4115 13.9942 16.0215 13.9998H7.97822C7.58822 13.9942 7.21539 13.8369 6.93918 13.5607C6.65788 13.2794 6.49984 12.8978 6.49984 12.5V5.5C6.49984 5.10218 6.65788 4.72064 6.93918 4.43934C7.22049 4.15803 7.60202 4 7.99984 4H15.9998ZM18.9998 12.5C18.9998 13.0311 18.859 13.5477 18.598 13.9998H20.75C21.1642 13.9998 21.5 14.3356 21.5 14.7498C21.5 15.1641 21.1642 15.4998 20.75 15.4998H16.0304C16.0202 15.4999 16.01 15.5 15.9998 15.5H7.99984C7.98965 15.5 7.97945 15.4999 7.96926 15.4998H6.25C5.65326 15.4998 5.08097 15.7369 4.65901 16.1589C4.23705 16.5808 4 17.1531 4 17.7498C4 18.3466 4.23705 18.9189 4.65901 19.3408C5.08097 19.7628 5.65326 19.9998 6.25 19.9998H20.75C21.1642 19.9998 21.5 20.3356 21.5 20.7498C21.5 21.1641 21.1642 21.4998 20.75 21.4998H6.25C5.25544 21.4998 4.30161 21.1048 3.59835 20.4015C2.89509 19.6982 2.5 18.7444 2.5 17.7498C2.5 16.7553 2.89509 15.8015 3.59835 15.0982C4.11065 14.5859 4.75591 14.2371 5.45303 14.0855C5.1592 13.6135 4.99984 13.065 4.99984 12.5V5.5C4.99984 4.70435 5.31591 3.94129 5.87852 3.37868C6.44113 2.81607 7.20419 2.5 7.99984 2.5H15.9998C16.7955 2.5 17.5586 2.81607 18.1212 3.37868C18.6838 3.94129 18.9998 4.70435 18.9998 5.5V12.5ZM9.74992 5.5C9.33571 5.5 8.99992 5.83579 8.99992 6.25C8.99992 6.66421 9.33571 7 9.74992 7H14.2499C14.6641 7 14.9999 6.66421 14.9999 6.25C14.9999 5.83579 14.6641 5.5 14.2499 5.5H9.74992ZM6.24984 18.9999C6.9402 18.9999 7.49984 18.4403 7.49984 17.7499C7.49984 17.0596 6.9402 16.4999 6.24984 16.4999C5.55949 16.4999 4.99984 17.0596 4.99984 17.7499C4.99984 18.4403 5.55949 18.9999 6.24984 18.9999ZM11.9998 17.7499C11.9998 18.4403 11.4402 18.9999 10.7498 18.9999C10.0595 18.9999 9.49984 18.4403 9.49984 17.7499C9.49984 17.0596 10.0595 16.4999 10.7498 16.4999C11.4402 16.4999 11.9998 17.0596 11.9998 17.7499ZM15.2498 18.9999C15.9402 18.9999 16.4998 18.4403 16.4998 17.7499C16.4998 17.0596 15.9402 16.4999 15.2498 16.4999C14.5595 16.4999 13.9998 17.0596 13.9998 17.7499C13.9998 18.4403 14.5595 18.9999 15.2498 18.9999ZM20.9998 17.7499C20.9998 18.4403 20.4402 18.9999 19.7498 18.9999C19.0595 18.9999 18.4998 18.4403 18.4998 17.7499C18.4998 17.0596 19.0595 16.4999 19.7498 16.4999C20.4402 16.4999 20.9998 17.0596 20.9998 17.7499Z" fill="black"/>
</svg>
