<svg width="24" height="24" viewBox="0 0 24 24" fill="none" xmlns="http://www.w3.org/2000/svg">
<path fill-rule="evenodd" clip-rule="evenodd" d="M7.99984 2.5H15.9998C16.7955 2.5 17.5586 2.81607 18.1212 3.37868C18.6838 3.94129 18.9998 4.70435 18.9998 5.5V12.5C18.9998 13.0311 18.859 13.5477 18.598 13.9998H20.75C21.1642 13.9998 21.5 14.3356 21.5 14.7498C21.5 15.1641 21.1642 15.4998 20.75 15.4998H16.0304C16.0202 15.4999 16.01 15.5 15.9998 15.5H7.99984C7.98965 15.5 7.97945 15.4999 7.96926 15.4998H6.25C5.65326 15.4998 5.08097 15.7369 4.65901 16.1589C4.23705 16.5808 4 17.1531 4 17.7498C4 18.3466 4.23705 18.9189 4.65901 19.3408C5.08097 19.7628 5.65326 19.9998 6.25 19.9998H20.75C21.1642 19.9998 21.5 20.3356 21.5 20.7498C21.5 21.1641 21.1642 21.4998 20.75 21.4998H6.25C5.25544 21.4998 4.30161 21.1048 3.59835 20.4015C2.89509 19.6982 2.5 18.7444 2.5 17.7498C2.5 16.7553 2.89509 15.8015 3.59835 15.0982C4.11065 14.5859 4.75591 14.2371 5.45303 14.0855C5.1592 13.6135 4.99984 13.065 4.99984 12.5V5.5C4.99984 4.70435 5.31591 3.94129 5.87852 3.37868C6.44113 2.81607 7.20419 2.5 7.99984 2.5ZM9.49984 6.5H14.4998C14.6325 6.5 14.7596 6.44732 14.8534 6.35355C14.9472 6.25978 14.9998 6.13261 14.9998 6C14.9998 5.86739 14.9472 5.74021 14.8534 5.64645C14.7596 5.55268 14.6325 5.5 14.4998 5.5H9.49984C9.36724 5.5 9.24006 5.55268 9.14629 5.64645C9.05252 5.74021 8.99984 5.86739 8.99984 6C8.99984 6.13261 9.05252 6.25978 9.14629 6.35355C9.24006 6.44732 9.36724 6.5 9.49984 6.5ZM7.49984 17.7499C7.49984 18.4403 6.9402 18.9999 6.24984 18.9999C5.55949 18.9999 4.99984 18.4403 4.99984 17.7499C4.99984 17.0596 5.55949 16.4999 6.24984 16.4999C6.9402 16.4999 7.49984 17.0596 7.49984 17.7499ZM10.7498 18.9999C11.4402 18.9999 11.9998 18.4403 11.9998 17.7499C11.9998 17.0596 11.4402 16.4999 10.7498 16.4999C10.0595 16.4999 9.49984 17.0596 9.49984 17.7499C9.49984 18.4403 10.0595 18.9999 10.7498 18.9999ZM16.4998 17.7499C16.4998 18.4403 15.9402 18.9999 15.2498 18.9999C14.5595 18.9999 13.9998 18.4403 13.9998 17.7499C13.9998 17.0596 14.5595 16.4999 15.2498 16.4999C15.9402 16.4999 16.4998 17.0596 16.4998 17.7499ZM19.7498 18.9999C20.4402 18.9999 20.9998 18.4403 20.9998 17.7499C20.9998 17.0596 20.4402 16.4999 19.7498 16.4999C19.0595 16.4999 18.4998 17.0596 18.4998 17.7499C18.4998 18.4403 19.0595 18.9999 19.7498 18.9999Z" fill="black"/>
</svg>
