<svg width="24" height="24" viewBox="0 0 24 24" fill="none" xmlns="http://www.w3.org/2000/svg">
<path fill-rule="evenodd" clip-rule="evenodd" d="M12.2803 18.4451C12.5777 18.6091 12.911 18.7491 13.2701 18.8636C13.6549 18.9864 14.0694 19.0801 14.5009 19.1431L15.5076 16.6264L14.9655 15.452H14.3642H12.8158H11.184C10.9984 15.452 10.8479 15.6025 10.8479 15.7881V16.3772C10.8479 17.1478 11.2519 17.7845 11.9997 18.2762C12.0884 18.3346 12.182 18.3908 12.2803 18.4451ZM10.7294 18.8636C10.0492 18.2379 9.59992 17.4109 9.59992 16.3772V15.7881C9.59992 15.6728 9.61225 15.5603 9.63565 15.452C9.7898 14.7386 10.4245 14.204 11.184 14.204H12.8158H20.4958C21.3706 14.204 22.0799 14.9133 22.0799 15.7881V16.3772V17.0012H22.0221C21.8065 18.1415 21.006 18.9839 20.002 19.5378C18.8323 20.1832 17.3171 20.4869 15.8397 20.4869C14.4946 20.4869 13.1182 20.2351 11.9997 19.703C11.8897 19.6507 11.7822 19.5956 11.6774 19.5378C11.3322 19.3473 11.011 19.1227 10.7294 18.8636ZM8.63992 15.7881V16.3044L8.49134 16.6263L8.7137 17.1822C8.81692 17.7303 9.02344 18.2197 9.30141 18.6514L9.49811 19.1432C9.54845 19.1358 9.59856 19.1281 9.64841 19.1199C9.98636 19.52 10.3874 19.8595 10.8166 20.1398C9.97476 20.374 9.06022 20.4869 8.15973 20.4869C6.68234 20.4869 5.16715 20.1832 3.99742 19.5378C2.81829 18.8872 1.91992 17.8389 1.91992 16.3772V15.7881C1.91992 14.9133 2.6292 14.204 3.50403 14.204H9.19318C8.84688 14.6386 8.63992 15.1892 8.63992 15.7881ZM11.9995 10.3822C11.7648 9.91943 11.6112 9.40857 11.5575 8.86831H11.3857C11.0411 8.86831 10.7617 8.58893 10.7617 8.24431C10.7617 7.89968 11.0411 7.62031 11.3857 7.62031H11.6137C11.6903 7.2224 11.8216 6.84399 11.9995 6.49324C12.6199 5.27052 13.8071 4.38395 15.2153 4.17932V3.98386C15.2153 3.63924 15.4947 3.35986 15.8393 3.35986C16.1839 3.35986 16.4633 3.63924 16.4633 3.98386V4.17926C18.2757 4.44242 19.7221 5.83514 20.0653 7.62031H20.2935C20.6382 7.62031 20.9175 7.89968 20.9175 8.24431C20.9175 8.58893 20.6382 8.86831 20.2935 8.86831H20.1216C19.9055 11.0428 18.0709 12.741 15.8395 12.741C14.1626 12.741 12.7097 11.7818 11.9995 10.3822ZM8.78331 4.17926C9.82268 4.33018 10.7417 4.85259 11.4013 5.60747C11.1746 5.96235 10.9892 6.34627 10.852 6.75245C10.8134 6.76628 10.7754 6.78157 10.7382 6.79826C10.3028 6.11486 9.60323 5.61619 8.78331 5.44611V5.92422C8.78331 6.26885 8.50394 6.54822 8.15931 6.54822C7.81469 6.54822 7.53531 6.26885 7.53531 5.92422V5.4462C6.41397 5.67898 5.51776 6.52638 5.21478 7.62031H9.92934C9.84719 7.8118 9.80169 8.02274 9.80169 8.24431C9.80169 8.46588 9.84719 8.67682 9.92934 8.86831H5.13432C5.34358 10.3518 6.61829 11.493 8.15953 11.493C9.2883 11.493 10.2741 10.8809 10.8031 9.97053C10.9438 10.4332 11.1464 10.8689 11.4013 11.2679C10.6125 12.1707 9.4526 12.741 8.15953 12.741C5.9282 12.741 4.09352 11.0428 3.87749 8.86831H3.7057C3.36107 8.86831 3.0817 8.58893 3.0817 8.24431C3.0817 7.89968 3.36107 7.62031 3.7057 7.62031H3.93374C4.27697 5.83529 5.72314 4.44265 7.53531 4.17932V3.98386C7.53531 3.63924 7.81469 3.35986 8.15931 3.35986C8.50394 3.35986 8.78331 3.63924 8.78331 3.98386V4.17926ZM7.28554 15.452L7.82756 16.6264L6.82086 19.1431C5.98684 19.0213 5.21638 18.785 4.6003 18.4451C3.67351 17.9337 3.16792 17.2393 3.16792 16.3772V15.7881C3.16792 15.6025 3.31845 15.452 3.50403 15.452H7.28554ZM15.2153 5.4462V5.92422C15.2153 6.26885 15.4947 6.54822 15.8393 6.54822C16.1839 6.54822 16.4633 6.26885 16.4633 5.92422V5.44611C17.5849 5.67876 18.4813 6.52623 18.7843 7.62031H12.8948C13.1978 6.52638 14.094 5.67898 15.2153 5.4462ZM15.8395 11.493C17.3808 11.493 18.6555 10.3518 18.8647 8.86831H12.8143C13.0236 10.3518 14.2983 11.493 15.8395 11.493ZM16.1713 16.6263L16.7133 15.452H20.4958C20.6759 15.452 20.823 15.5938 20.8315 15.7718V16.3772C20.8315 17.2393 20.326 17.9337 19.3992 18.4451C18.783 18.785 18.0123 19.0214 17.1781 19.1432L16.1713 16.6263Z" fill="black"/>
</svg>
