<svg width="24" height="24" viewBox="0 0 24 24" fill="none" xmlns="http://www.w3.org/2000/svg">
<path fill-rule="evenodd" clip-rule="evenodd" d="M8.31648 11.8075C8.50376 11.8075 8.67411 11.8475 8.82455 11.9173C8.95053 12.0862 9.08964 12.2447 9.24036 12.3914H8.51065C7.07557 12.3914 6.23989 13.6317 6.23989 14.7324V15.1477C6.23989 15.5042 6.28996 15.8341 6.37943 16.1381C6.07921 16.1781 5.77532 16.1973 5.47624 16.1973C4.55789 16.1973 3.59416 16.016 2.8309 15.609C2.06028 15.1979 1.39185 14.4871 1.39185 13.4467V13.1086C1.39185 12.4694 1.87374 11.8075 2.63578 11.8075H8.31648ZM7.19989 15.1477C7.19989 15.4312 7.24383 15.6937 7.32328 15.9355C7.57169 16.6918 8.16728 17.2466 8.8526 17.6121C9.75019 18.0908 10.8963 18.3093 11.9999 18.3093C13.1034 18.3093 14.2496 18.0908 15.1472 17.6121C15.8324 17.2466 16.428 16.6919 16.6764 15.9358L16.6842 15.9117C16.735 15.7513 16.7703 15.582 16.7876 15.4037L16.789 15.3892C16.7962 15.3104 16.7999 15.23 16.7999 15.1477V14.4437H16.7696C16.6489 13.863 16.1715 13.3514 15.4889 13.3514L14.4383 13.3514H9.56064H8.51065C7.71632 13.3514 7.19989 14.0442 7.19989 14.7324V15.1477ZM7.77857 9.70803C7.69132 9.59601 7.6211 9.47009 7.57179 9.33416H3.07342C3.28326 10.4707 4.2798 11.3348 5.47618 11.3348C6.53743 11.3348 7.44142 10.6549 7.77857 9.70803ZM7.75166 8.00052H7.79901C7.64573 8.18793 7.54116 8.41668 7.50453 8.6674H3.04238H2.9199C2.73562 8.6674 2.58646 8.51802 2.58646 8.33396C2.58646 8.1499 2.73562 8.00052 2.9199 8.00052H3.20088C3.51853 7.1907 4.25477 6.59184 5.14283 6.47003V6.33332C5.14283 6.14926 5.29199 5.99988 5.47627 5.99988C5.66055 5.99988 5.80971 6.14926 5.80971 6.33332V6.47003C6.69777 6.59184 7.43401 7.1907 7.75166 8.00052ZM5.73403 13.3075H5.21856L5.30419 13.4645L4.94218 14.6712C5.11592 14.6884 5.29475 14.6973 5.47624 14.6973C5.65773 14.6973 5.83656 14.6884 6.01029 14.6712L5.6483 13.4647L5.73403 13.3075ZM9.01013 9.27668H8.85967C8.6333 9.27668 8.45007 9.09318 8.45007 8.86708C8.45007 8.64098 8.6333 8.45748 8.85967 8.45748H9.20482C9.59504 7.4627 10.4994 6.72705 11.5903 6.57741V6.40948C11.5903 6.18338 11.7736 5.99988 11.9999 5.99988C12.2263 5.99988 12.4095 6.18338 12.4095 6.40948V6.57741C13.5004 6.72705 14.4048 7.4627 14.795 8.45748H15.1402C15.3666 8.45748 15.5498 8.64098 15.5498 8.86708C15.5498 9.09318 15.3666 9.27668 15.1402 9.27668H14.99H9.01013ZM11.9999 12.5535C10.5303 12.5535 9.30612 11.4921 9.04834 10.0959H14.9515C14.6937 11.4921 13.4696 12.5535 11.9999 12.5535ZM12.4351 14.7594H11.5648L11.7885 15.1695L11.2803 16.8638C11.5148 16.8885 11.7559 16.9013 11.9999 16.9013C12.2439 16.9013 12.485 16.8885 12.7195 16.8638L12.2112 15.1698L12.4351 14.7594ZM17.6203 16.1382C17.9203 16.1781 18.2239 16.1973 18.5227 16.1973C19.4411 16.1973 20.4048 16.016 21.1681 15.609C21.9387 15.1979 22.6071 14.4871 22.6071 13.4467V12.6967H22.541C22.3848 12.2135 21.9598 11.8075 21.363 11.8075H15.6823C15.4957 11.8075 15.3259 11.8472 15.1759 11.9165C15.0497 12.0857 14.9104 12.2445 14.7595 12.3914H15.4889C16.371 12.3914 17.0319 12.8692 17.406 13.4837L17.4705 13.5948C17.5033 13.6514 17.5306 13.7114 17.5506 13.7738C17.7266 14.3233 17.7361 14.5657 17.7508 14.9371C17.7533 15.0025 17.7561 15.0719 17.7599 15.1477C17.7599 15.5042 17.7098 15.8342 17.6203 16.1382ZM16.2206 9.70893C16.558 10.6554 17.4618 11.3348 18.5227 11.3348C19.719 11.3348 20.7156 10.4707 20.9254 9.33416H16.4281C16.3786 9.47045 16.3082 9.59669 16.2206 9.70893ZM16.4953 8.6674H20.9569H21.0791C21.2634 8.6674 21.4126 8.51802 21.4126 8.33396C21.4126 8.1499 21.2634 8.00052 21.0791 8.00052H20.7981C20.4805 7.1907 19.7443 6.59184 18.8562 6.47003V6.33332C18.8562 6.14926 18.707 5.99988 18.5228 5.99988C18.3385 5.99988 18.1893 6.14926 18.1893 6.33332V6.47003C17.3013 6.59184 16.565 7.1907 16.2474 8.00052H16.2009C16.3541 8.18793 16.4587 8.41668 16.4953 8.6674ZM18.265 13.3075H18.7805L18.6948 13.4647L19.0568 14.6712C18.883 14.6884 18.7042 14.6973 18.5227 14.6973C18.3412 14.6973 18.1624 14.6884 17.9887 14.6712L18.3507 13.4645L18.265 13.3075Z" fill="black"/>
</svg>
