<svg width="24" height="24" viewBox="0 0 24 24" fill="none" xmlns="http://www.w3.org/2000/svg">
<path fill-rule="evenodd" clip-rule="evenodd" d="M19.0001 20.7501H8.50006C8.2984 20.7501 8.10523 20.6688 7.96415 20.5248L3.75815 16.2288L3.75594 16.2266C3.43139 15.8989 3.24927 15.4563 3.24927 14.9951C3.24927 14.5327 3.43222 14.0892 3.75815 13.7613L3.75973 13.7597L13.7597 3.75973L13.7613 3.75815C14.0892 3.43222 14.5327 3.24927 14.9951 3.24927C15.4574 3.24927 15.9009 3.43222 16.2288 3.75815L16.2304 3.75973L21.232 8.76131C21.5579 9.08919 21.7409 9.53274 21.7409 9.99506C21.7409 10.457 21.5582 10.9002 21.2328 11.228L21.232 11.2288L13.297 19.2501H19.0001C19.4143 19.2501 19.7501 19.5858 19.7501 20.0001C19.7501 20.4143 19.4143 20.7501 19.0001 20.7501ZM12.7007 6.94008L14.8188 4.82197C14.8656 4.77569 14.9292 4.74927 14.9951 4.74927C15.0609 4.74927 15.1245 4.77569 15.1713 4.82197L20.1687 9.81934C20.2149 9.86613 20.2409 9.92926 20.2409 9.99506C20.2409 10.0611 20.2147 10.1245 20.1682 10.1713L20.1669 10.1726L18.0615 12.3009L12.7007 6.94008ZM11.64 8.00074L4.82197 14.8188C4.77569 14.8656 4.74927 14.9292 4.74927 14.9951C4.74927 15.0611 4.7754 15.1245 4.82197 15.1713L4.82598 15.1754L8.81538 19.2501H11.187L17.0066 13.3673L11.64 8.00074Z" fill="black"/>
</svg>
