<svg width="24" height="24" viewBox="0 0 24 24" fill="none" xmlns="http://www.w3.org/2000/svg">
<path d="M9.03033 15.4697C8.73744 15.1768 8.26256 15.1768 7.96967 15.4697C7.67678 15.7626 7.67678 16.2374 7.96967 16.5303L8.43934 17L7.96967 17.4697C7.67678 17.7626 7.67678 18.2374 7.96967 18.5303C8.26256 18.8232 8.73744 18.8232 9.03033 18.5303L9.5 18.0607L9.96967 18.5303C10.2626 18.8232 10.7374 18.8232 11.0303 18.5303C11.3232 18.2374 11.3232 17.7626 11.0303 17.4697L10.5607 17L11.0303 16.5303C11.3232 16.2374 11.3232 15.7626 11.0303 15.4697C10.7374 15.1768 10.2626 15.1768 9.96967 15.4697L9.5 15.9393L9.03033 15.4697Z" fill="black"/>
<path d="M11.5303 10.0303C11.8232 9.73744 11.8232 9.26256 11.5303 8.96967C11.2374 8.67678 10.7626 8.67678 10.4697 8.96967L9 10.4393L8.53033 9.96967C8.23744 9.67678 7.76256 9.67678 7.46967 9.96967C7.17678 10.2626 7.17678 10.7374 7.46967 11.0303L8.46967 12.0303C8.76256 12.3232 9.23744 12.3232 9.53033 12.0303L11.5303 10.0303Z" fill="black"/>
<path d="M12.25 11C12.25 10.5858 12.5858 10.25 13 10.25H16C16.4142 10.25 16.75 10.5858 16.75 11C16.75 11.4142 16.4142 11.75 16 11.75H13C12.5858 11.75 12.25 11.4142 12.25 11Z" fill="black"/>
<path d="M13 16.25C12.5858 16.25 12.25 16.5858 12.25 17C12.25 17.4142 12.5858 17.75 13 17.75H16C16.4142 17.75 16.75 17.4142 16.75 17C16.75 16.5858 16.4142 16.25 16 16.25H13Z" fill="black"/>
<path fill-rule="evenodd" clip-rule="evenodd" d="M9.05546 2.05546C8.72067 2.39024 8.48113 2.80245 8.35424 3.25H7C6.27065 3.25 5.57118 3.53973 5.05546 4.05546C4.53973 4.57118 4.25 5.27065 4.25 6V20C4.25 20.7293 4.53973 21.4288 5.05546 21.9445C5.57118 22.4603 6.27065 22.75 7 22.75H17C17.7293 22.75 18.4288 22.4603 18.9445 21.9445C19.4603 21.4288 19.75 20.7293 19.75 20V6C19.75 5.27065 19.4603 4.57118 18.9445 4.05546C18.4288 3.53973 17.7293 3.25 17 3.25H15.6458C15.5189 2.80245 15.2793 2.39024 14.9445 2.05546C14.4288 1.53973 13.7293 1.25 13 1.25H11C10.2707 1.25 9.57118 1.53973 9.05546 2.05546ZM11 2.75C10.6685 2.75 10.3505 2.8817 10.1161 3.11612C9.8817 3.35054 9.75 3.66848 9.75 4C9.75 4.33152 9.8817 4.64946 10.1161 4.88388C10.3505 5.1183 10.6685 5.25 11 5.25H13C13.3315 5.25 13.6495 5.1183 13.8839 4.88388C14.1183 4.64946 14.25 4.33152 14.25 4C14.25 3.66848 14.1183 3.35054 13.8839 3.11612C13.6495 2.8817 13.3315 2.75 13 2.75H11ZM17 4.75H15.6458C15.5189 5.19755 15.2793 5.60976 14.9445 5.94454C14.4288 6.46027 13.7293 6.75 13 6.75H11C10.2707 6.75 9.57118 6.46027 9.05546 5.94454C8.72067 5.60976 8.48113 5.19755 8.35424 4.75H7C6.66848 4.75 6.35054 4.8817 6.11612 5.11612C5.8817 5.35054 5.75 5.66848 5.75 6V20C5.75 20.3315 5.8817 20.6495 6.11612 20.8839C6.35054 21.1183 6.66848 21.25 7 21.25H17C17.3315 21.25 17.6495 21.1183 17.8839 20.8839C18.1183 20.6495 18.25 20.3315 18.25 20V6C18.25 5.66848 18.1183 5.35054 17.8839 5.11612C17.6495 4.8817 17.3315 4.75 17 4.75Z" fill="black"/>
</svg>
