<svg width="24" height="24" viewBox="0 0 24 24" fill="none" xmlns="http://www.w3.org/2000/svg">
<path fill-rule="evenodd" clip-rule="evenodd" d="M10 2C7.24746 2 5 4.24746 5 7C5 9.75254 7.24746 12 10 12C12.7525 12 15 9.75254 15 7C15 4.24746 12.7525 2 10 2ZM10 3.5C11.9419 3.5 13.5 5.05812 13.5 7C13.5 8.94188 11.9419 10.5 10 10.5C8.05812 10.5 6.5 8.94188 6.5 7C6.5 5.05812 8.05812 3.5 10 3.5Z" fill="black"/>
<path d="M4.25 14C3.0095 14 2 15.0095 2 16.25V16.6309C2 17.8079 2.48975 18.9394 3.34375 19.7344C4.45325 20.7679 6.5085 22 10 22C10.2745 22 10.5369 21.9901 10.7939 21.9756C10.3754 21.5351 10.0174 21.0376 9.73438 20.4941C6.89687 20.4356 5.25071 19.4607 4.36621 18.6367C3.81571 18.1242 3.5 17.3934 3.5 16.6309V16.25C3.5 15.8365 3.8365 15.5 4.25 15.5H9.31738C9.48988 14.966 9.7318 14.4635 10.0293 14H4.25Z" fill="black"/>
<path fill-rule="evenodd" clip-rule="evenodd" d="M12.1109 21.3891C9.96304 19.2412 9.96304 15.7587 12.1109 13.6109C14.2587 11.463 17.7412 11.463 19.8891 13.6109C22.0369 15.7587 22.0369 19.2412 19.8891 21.3891C17.7412 23.5369 14.2587 23.5369 12.1109 21.3891ZM16 14.25C16.4142 14.25 16.75 14.5858 16.75 15V17.5C16.75 17.9142 16.4142 18.25 16 18.25C15.5858 18.25 15.25 17.9142 15.25 17.5V15C15.25 14.5858 15.5858 14.25 16 14.25ZM16 19.24C16.4142 19.24 16.75 19.5758 16.75 19.99V20C16.75 20.4142 16.4142 20.75 16 20.75C15.5858 20.75 15.25 20.4142 15.25 20V19.99C15.25 19.5758 15.5858 19.24 16 19.24Z" fill="black"/>
</svg>
