<svg width="24" height="24" viewBox="0 0 24 24" fill="none" xmlns="http://www.w3.org/2000/svg">
<path d="M13.4434 22.5038C13.2187 22.4909 12.9954 22.4364 12.7871 22.3231C12.3705 22.0965 12.118 21.6951 11.9668 21.2733C11.9665 21.273 11.9661 21.2727 11.9658 21.2723C11.9284 21.1672 11.9479 21.2157 11.9404 21.1903C11.933 21.1649 11.9232 21.1314 11.9111 21.0897C11.8871 21.0063 11.8545 20.8914 11.8154 20.7548C11.7372 20.4815 11.635 20.1218 11.5332 19.7645C11.3297 19.05 11.1279 18.3427 11.1279 18.3427C11.1279 18.342 11.1279 18.3413 11.1279 18.3407C11.0707 18.1378 11.0231 18.0302 11.0029 17.9989C11.0026 17.9983 11.0023 17.9976 11.002 17.9969C10.264 16.8464 9.46913 15.6877 8.69727 14.5155H5.25C4.01625 14.5155 3 13.4993 3 12.2655V4.2655C3 3.03175 4.01625 2.0155 5.25 2.0155H7.25C7.87867 2.0155 8.44641 2.2829 8.85645 2.70496C10.0104 2.45506 11.2984 2.17819 12.3477 1.95691C12.8975 1.84095 13.3808 1.7405 13.7451 1.66687C14.109 1.59334 14.2445 1.55404 14.4844 1.53113C14.6384 1.51626 14.7914 1.50867 14.9424 1.50867C17.0833 1.50867 18.9756 2.96482 19.5234 5.07996C19.9423 6.69889 20.8 10.0547 20.8037 10.0692C20.8735 10.3263 20.9709 10.6719 20.9932 11.0858C20.9932 11.0861 20.9932 11.0865 20.9932 11.0868C21.041 11.9811 20.7306 12.8514 20.1211 13.496C20.1211 13.4963 20.1211 13.4966 20.1211 13.4969C19.5017 14.1514 18.6333 14.5136 17.7197 14.5155C17.7191 14.5155 17.7184 14.5155 17.7178 14.5155H15.7334C15.9092 15.1443 16.0827 15.7519 16.209 16.245C16.209 16.2453 16.209 16.2456 16.209 16.246C16.5109 17.4309 16.5815 18.4891 16.3984 19.5048C16.3984 19.5051 16.3984 19.5054 16.3984 19.5057C16.3065 20.0123 16.133 20.7513 15.6084 21.4315C15.2271 21.9256 14.7034 22.2853 14.1094 22.4344C14.1087 22.4344 14.1081 22.4344 14.1074 22.4344C13.8939 22.4877 13.668 22.5167 13.4434 22.5038ZM13.542 21.0106C13.5766 21.011 13.6388 21.0055 13.7441 20.9794C14.0102 20.9126 14.2172 20.7795 14.4209 20.5155C14.7193 20.1287 14.8458 19.6626 14.9229 19.2382C15.0626 18.4621 15.0198 17.6518 14.7559 16.6161C14.5756 15.9123 14.0283 13.9686 14.0283 13.9686C13.997 13.8572 13.9919 13.7399 14.0134 13.6261C14.0349 13.5124 14.0825 13.4051 14.1524 13.3128C14.2223 13.2205 14.3126 13.1456 14.4163 13.094C14.52 13.0424 14.6342 13.0156 14.75 13.0155H17.7178C18.2458 13.0142 18.6969 12.819 19.0312 12.4657C19.3588 12.1193 19.5222 11.6735 19.4951 11.1669C19.4834 10.9498 19.4257 10.7167 19.3564 10.4618C19.3554 10.4582 19.3545 10.4546 19.3535 10.4511C19.3535 10.4511 18.4895 7.0725 18.0713 5.45593C17.6901 3.98406 16.4095 3.00867 14.9424 3.00867C14.8384 3.00867 14.7338 3.01416 14.6289 3.02429C14.6286 3.02429 14.6283 3.02429 14.6279 3.02429C14.7424 3.01339 14.3988 3.06449 14.042 3.1366C13.6852 3.2087 13.2048 3.30921 12.6572 3.42468C11.7006 3.62642 10.5413 3.87619 9.46777 4.10828C9.47187 4.16294 9.5 4.20988 9.5 4.2655V13.0096C10.3854 14.3924 11.3527 15.7662 12.2637 17.1864L12.2646 17.1874C12.4289 17.4427 12.5026 17.6907 12.5713 17.9344C12.5718 17.9362 12.7725 18.6413 12.9756 19.3544C13.0773 19.7114 13.179 20.0695 13.2568 20.3417C13.2958 20.4778 13.3291 20.5923 13.3525 20.6737C13.3643 20.7144 13.3735 20.7466 13.3799 20.7684C13.458 20.9852 13.511 21.0096 13.5039 21.0057C13.5003 21.0038 13.5074 21.0102 13.542 21.0106ZM5.25 13.0155H8V4.2655C8 3.84225 7.67325 3.5155 7.25 3.5155H5.25C4.82675 3.5155 4.5 3.84225 4.5 4.2655V12.2655C4.5 12.6888 4.82675 13.0155 5.25 13.0155Z" fill="black"/>
</svg>
