<svg width="24" height="24" viewBox="0 0 24 24" fill="none" xmlns="http://www.w3.org/2000/svg">
<path fill-rule="evenodd" clip-rule="evenodd" d="M8.8325 11C8.1485 12.1785 7.75 13.542 7.75 15C7.75 15.3145 7.773 15.6235 7.8085 15.9285C7.0515 15.8255 6.313 15.605 5.628 15.263L3.1305 15.96C3.0345 15.987 2.9365 16 2.839 16C2.554 16 2.2755 15.888 2.069 15.6815C1.7915 15.404 1.685 14.997 1.7905 14.6195L2.4875 12.124C2.004 11.156 1.75 10.0825 1.75 8.99999C1.75 5.14049 4.89 2.00049 8.75 2.00049C11.92 2.00049 14.601 4.11999 15.4595 7.01349C13.54 7.08349 11.7945 7.82899 10.4495 9.02349L9.194 5.96399L9.1925 5.96149C9.1735 5.91599 9.1505 5.87249 9.123 5.83149C9.11535 5.82047 9.10676 5.81058 9.09816 5.80066C9.0927 5.79438 9.08724 5.78808 9.082 5.78149C9.0779 5.7763 9.07388 5.77108 9.06987 5.76587C9.05728 5.74951 9.04479 5.73328 9.03 5.71849C9.01136 5.70025 8.99107 5.68464 8.97074 5.669C8.96599 5.66534 8.96124 5.66168 8.9565 5.65799C8.95124 5.6539 8.94621 5.6495 8.94116 5.6451C8.93327 5.6382 8.92535 5.63129 8.9165 5.62549C8.8755 5.59799 8.8315 5.57499 8.786 5.55599C8.7855 5.55599 8.785 5.55549 8.784 5.55499C8.77789 5.55249 8.77162 5.55091 8.76529 5.54932C8.76022 5.54805 8.75511 5.54677 8.75 5.54499C8.7155 5.53299 8.6805 5.52099 8.6445 5.51399C8.63219 5.51153 8.61989 5.51058 8.60758 5.50963C8.59989 5.50904 8.59219 5.50845 8.5845 5.50749C8.58138 5.5071 8.57825 5.50672 8.57513 5.50633C8.54975 5.50316 8.52432 5.49999 8.4985 5.49999C8.48392 5.50032 8.46957 5.50197 8.45514 5.50362C8.44779 5.50447 8.44042 5.50531 8.433 5.50599C8.42629 5.50662 8.41954 5.50716 8.41278 5.5077C8.39285 5.50928 8.37279 5.51088 8.353 5.51499C8.33161 5.51927 8.31143 5.52596 8.29105 5.53273C8.28523 5.53466 8.27939 5.5366 8.2735 5.53849C8.26558 5.5412 8.25749 5.5433 8.24936 5.54541C8.238 5.54836 8.22658 5.55132 8.2155 5.55599C8.21513 5.55617 8.21476 5.55643 8.21436 5.5567C8.21369 5.55716 8.21294 5.55767 8.212 5.55799C8.1755 5.57299 8.1415 5.59299 8.108 5.61349C8.071 5.63649 8.0375 5.66249 8.0055 5.69049C8.00069 5.69467 7.9957 5.69859 7.99073 5.70251C7.98381 5.70795 7.9769 5.71338 7.9705 5.71949C7.942 5.74799 7.917 5.77999 7.8935 5.81299C7.89133 5.81581 7.88897 5.81854 7.88658 5.8213C7.88348 5.82489 7.88033 5.82853 7.8775 5.83249C7.8495 5.87399 7.8265 5.91799 7.8075 5.96399C7.8075 5.96449 7.807 5.96549 7.8065 5.96599L5.5565 11.466C5.3995 11.8495 5.583 12.2875 5.9665 12.444C6.0595 12.482 6.1555 12.5 6.25 12.5C6.545 12.5 6.8255 12.3245 6.944 12.034L7.367 11H8.8325ZM22.75 15C22.75 16.0825 22.496 17.156 22.0125 18.124L22.7095 20.6195C22.815 20.997 22.7085 21.404 22.431 21.6815C22.2245 21.888 21.946 22 21.661 22C21.564 22 21.4655 21.987 21.3695 21.96L18.872 21.263C17.905 21.746 16.8325 21.9995 15.75 21.9995C11.89 21.9995 8.75 18.8595 8.75 15C8.75 11.1405 11.89 8.00049 15.75 8.00049C19.61 8.00049 22.75 11.1405 22.75 15ZM15.0885 17.9585C15.4655 18.43 16.294 19.25 17.5 19.25C17.9145 19.25 18.25 18.9145 18.25 18.5C18.25 18.0855 17.9145 17.75 17.5 17.75C17.274 17.75 17.071 17.6765 16.891 17.5755C17.559 17.1265 18 16.364 18 15.5V14C18 12.6215 16.8785 11.5 15.5 11.5C14.1215 11.5 13 12.6215 13 14V15.5C13 16.7375 13.906 17.7605 15.0885 17.9585ZM9.0225 9.49998H7.9805L8.501 8.22798L9.0225 9.49998ZM15.5 16.5C16.0515 16.5 16.5 16.0515 16.5 15.5V14C16.5 13.4485 16.0515 13 15.5 13C14.9485 13 14.5 13.4485 14.5 14V15.5C14.5 16.0515 14.9485 16.5 15.5 16.5Z" fill="black"/>
</svg>
