<svg width="24" height="24" viewBox="0 0 24 24" fill="none" xmlns="http://www.w3.org/2000/svg">
<path d="M6.25 1.75C4.458 1.75 3 3.208 3 5V20C3 20.2815 3.1577 20.54 3.4082 20.668C3.6587 20.796 3.95998 20.7734 4.18848 20.6084L9.01953 17.1299C9.01203 17.0034 9 16.8785 9 16.75C9 16.1955 9.07799 15.66 9.20899 15.1455L4.5 18.5361V5C4.5 4.035 5.285 3.25 6.25 3.25H13.75C14.715 3.25 15.5 4.035 15.5 5V10.25C16.017 10.25 16.5175 10.3171 17 10.4316V5C17 3.208 15.542 1.75 13.75 1.75H6.25ZM15.5 11.25C12.4625 11.25 10 13.7125 10 16.75C10 19.7875 12.4625 22.25 15.5 22.25C18.5375 22.25 21 19.7875 21 16.75C21 13.7125 18.5375 11.25 15.5 11.25ZM15.5 13.25C15.74 13.25 15.9542 13.4029 16.0322 13.6299L16.5889 15.25H18.4375C18.679 15.25 18.8937 15.4043 18.9707 15.6328C19.0477 15.8618 18.9698 16.1147 18.7773 16.2607L17.2803 17.3965L17.7871 19.0195C17.8601 19.2525 17.7742 19.5055 17.5752 19.6465C17.4777 19.7155 17.3635 19.75 17.25 19.75C17.1315 19.75 17.0126 19.7127 16.9131 19.6377L15.5 18.5801L14.0869 19.6377C13.8919 19.7842 13.6243 19.7885 13.4248 19.6475C13.2258 19.5065 13.1399 19.2525 13.2129 19.0195L13.7197 17.3975L12.2227 16.2607C12.0302 16.1147 11.9523 15.8628 12.0293 15.6338C12.1068 15.4048 12.321 15.25 12.5625 15.25H14.4111L14.9678 13.6299C15.0458 13.4029 15.26 13.25 15.5 13.25Z" fill="black"/>
</svg>
