<svg width="24" height="24" viewBox="0 0 24 24" fill="none" xmlns="http://www.w3.org/2000/svg">
<path d="M7.25 3.5C6.29252 3.5 5.5 4.29252 5.5 5.25V6.24121L3.10059 7.66895C2.41916 8.07406 2 8.81031 2 9.60254V9.73242V17.75C2 19.2599 3.24011 20.5 4.75 20.5H19.25C20.7599 20.5 22 19.2599 22 17.75V9.86621C22.0134 9.78506 22.0134 9.70225 22 9.62109V9.60352C22 8.81081 21.581 8.07501 20.9004 7.66992C20.9001 7.6696 20.8997 7.66927 20.8994 7.66895L18.5 6.24219V5.25C18.5 4.29252 17.7075 3.5 16.75 3.5H7.25ZM7.25 5H16.75C16.8975 5 17 5.10248 17 5.25V10.9834L12 13.416L7 10.9834V6.78418C7.01323 6.70366 7.01323 6.62153 7 6.54102V5.25C7 5.10248 7.10248 5 7.25 5ZM11.9893 6C11.7941 6.00285 11.6077 6.08168 11.4697 6.21973L9.46973 8.21973C9.39775 8.28884 9.34028 8.37161 9.30069 8.46321C9.26111 8.5548 9.24019 8.65338 9.23918 8.75316C9.23817 8.85294 9.25707 8.95192 9.29479 9.0443C9.3325 9.13668 9.38827 9.22061 9.45883 9.29117C9.52939 9.36172 9.61332 9.41749 9.7057 9.45521C9.79808 9.49293 9.89706 9.51183 9.99684 9.51082C10.0966 9.50981 10.1952 9.48889 10.2868 9.4493C10.3784 9.40972 10.4612 9.35225 10.5303 9.28027L11.25 8.56055V11.25C11.2486 11.3494 11.267 11.4481 11.304 11.5403C11.3411 11.6325 11.3961 11.7164 11.4659 11.7872C11.5357 11.858 11.6188 11.9142 11.7105 11.9526C11.8022 11.9909 11.9006 12.0107 12 12.0107C12.0994 12.0107 12.1978 11.9909 12.2895 11.9526C12.3812 11.9142 12.4643 11.858 12.5341 11.7872C12.6039 11.7164 12.6589 11.6325 12.696 11.5403C12.733 11.4481 12.7514 11.3494 12.75 11.25V8.56055L13.4697 9.28027C13.5388 9.35225 13.6216 9.40972 13.7132 9.4493C13.8048 9.48889 13.9034 9.50981 14.0032 9.51082C14.1029 9.51183 14.2019 9.49293 14.2943 9.45521C14.3867 9.41749 14.4706 9.36172 14.5412 9.29117C14.6117 9.22061 14.6675 9.13668 14.7052 9.0443C14.7429 8.95192 14.7618 8.85294 14.7608 8.75316C14.7598 8.65338 14.7389 8.5548 14.6993 8.46321C14.6597 8.37161 14.6023 8.28884 14.5303 8.21973L12.5303 6.21973C12.4594 6.14879 12.375 6.0928 12.282 6.05505C12.1891 6.01731 12.0895 5.99859 11.9893 6ZM5.5 7.9873V10.2539L3.56445 9.3125C3.6257 9.16782 3.72681 9.04146 3.86719 8.95801L5.5 7.9873ZM18.5 7.98828L20.1328 8.95898C20.2724 9.04229 20.3731 9.1683 20.4346 9.3125L18.5 10.2539V7.98828ZM3.5 10.9492L11.6719 14.9248C11.7741 14.9745 11.8863 15.0004 12 15.0004C12.1137 15.0004 12.2259 14.9745 12.3281 14.9248L20.5 10.9492V17.75C20.5 18.4491 19.9491 19 19.25 19H4.75C4.05089 19 3.5 18.4491 3.5 17.75V10.9492Z" fill="black"/>
</svg>
