<svg width="24" height="24" viewBox="0 0 24 24" fill="none" xmlns="http://www.w3.org/2000/svg">
<path d="M6.25 2C5.0095 2 4 3.0095 4 4.25V19.75C4 20.9905 5.0095 22 6.25 22H17.75C18.9905 22 20 20.9905 20 19.75V10H14.25C13.0095 10 12 8.9905 12 7.75V2H6.25ZM13.5 2.43945V7.75C13.5 8.1635 13.8365 8.5 14.25 8.5H19.5605L13.5 2.43945ZM11.999 11.5C12.413 11.5 12.749 11.8355 12.749 12.25V15.4395L13.4688 14.7197C13.7618 14.4267 14.2363 14.4267 14.5293 14.7197C14.8223 15.0122 14.8223 15.4878 14.5293 15.7803L12.5293 17.7803C12.3838 17.9268 12.192 18 12 18H15.25C15.664 18 16 18.3355 16 18.75C16 19.1645 15.664 19.5 15.25 19.5H8.75C8.336 19.5 8 19.1645 8 18.75C8 18.3355 8.336 18 8.75 18H12C11.808 18 11.6162 17.9268 11.4697 17.7803L9.46973 15.7803C9.17673 15.4878 9.17673 15.0122 9.46973 14.7197C9.76273 14.4267 10.2373 14.4267 10.5303 14.7197L11.249 15.4395V12.25C11.249 11.8355 11.585 11.5 11.999 11.5Z" fill="black"/>
</svg>
