<svg width="24" height="24" viewBox="0 0 24 24" fill="none" xmlns="http://www.w3.org/2000/svg">
<path d="M7.75 2.5C5.96403 2.5 4.5 3.96403 4.5 5.75V17H2.75C2.0682 17 1.5 17.5682 1.5 18.25V19.25C1.5 20.4837 2.51625 21.5 3.75 21.5H17.25C18.4838 21.5 19.5 20.4837 19.5 19.25V7H21.25C21.9318 7 22.5 6.4318 22.5 5.75V4.75C22.5 3.55663 21.5469 2.57524 20.3682 2.51172C20.3291 2.5047 20.2896 2.50078 20.25 2.5H7.75ZM7.75 4H18.1533C18.0673 4.23724 18 4.4847 18 4.75V6.12695C17.9868 6.20747 17.9868 6.2896 18 6.37012V19.25C18 19.6732 17.6733 20 17.25 20C16.8268 20 16.5 19.6732 16.5 19.25V18.25C16.5 17.5682 15.9318 17 15.25 17H6V5.75C6 4.77497 6.77497 4 7.75 4ZM20.25 4C20.6733 4 21 4.32675 21 4.75V5.5H19.5V4.75C19.5 4.32675 19.8267 4 20.25 4ZM3 18.5H5.12695C5.20747 18.5132 5.2896 18.5132 5.37012 18.5H15V19.25C15 19.5153 15.0673 19.7628 15.1533 20H3.75C3.32675 20 3 19.6732 3 19.25V18.5Z" fill="black"/>
</svg>
