<svg width="24" height="24" viewBox="0 0 24 24" fill="none" xmlns="http://www.w3.org/2000/svg">
<path fill-rule="evenodd" clip-rule="evenodd" d="M14.25 10C13.0095 10 12 8.9905 12 7.75V2H6.25C5.0095 2 4 3.0095 4 4.25V19.75C4 20.9905 5.0095 22 6.25 22H12.8165C11.6935 20.832 11 19.248 11 17.5C11 15.752 11.6935 14.168 12.8165 13H7.25C6.836 13 6.5 12.6645 6.5 12.25C6.5 11.8355 6.836 11.5 7.25 11.5H14.9995C15.7695 11.1785 16.6135 11 17.5 11C18.386 11 19.23 11.1785 20 11.5V10H14.25ZM8.75 19H7.25C6.836 19 6.5 18.6645 6.5 18.25C6.5 17.8355 6.836 17.5 7.25 17.5H8.75C9.164 17.5 9.5 17.8355 9.5 18.25C9.5 18.6645 9.164 19 8.75 19ZM7.25 14.5H8.75C9.164 14.5 9.5 14.8355 9.5 15.25C9.5 15.6645 9.164 16 8.75 16H7.25C6.836 16 6.5 15.6645 6.5 15.25C6.5 14.8355 6.836 14.5 7.25 14.5ZM17.5 12C14.4625 12 12 14.4625 12 17.5C12 20.5375 14.4625 23 17.5 23C20.5375 23 23 20.5375 23 17.5C23 14.4625 20.5375 12 17.5 12ZM18 20.5V21C18 21.276 17.7765 21.5 17.5 21.5C17.2235 21.5 17 21.276 17 21V20.4985C16.378 20.494 15.809 20.2665 15.3965 19.854C15.201 19.6585 15.201 19.3425 15.3965 19.147C15.592 18.9515 15.908 18.9515 16.1035 19.147C16.2645 19.3075 16.5545 19.5 17.019 19.5H18C18.4135 19.5 18.75 19.1635 18.75 18.75C18.75 18.3365 18.4135 18 18 18H17.125C16.16 18 15.375 17.215 15.375 16.25C15.375 15.328 16.0945 14.578 17 14.5125V14C17 13.724 17.2235 13.5 17.5 13.5C17.7765 13.5 18 13.724 18 14V14.5075C18.772 14.5465 19.2645 14.988 19.42 15.229C19.57 15.461 19.503 15.7705 19.271 15.92C19.0385 16.0685 18.729 16.003 18.58 15.771L18.5779 15.7688C18.5548 15.7428 18.3384 15.5 17.894 15.5H17.125C16.7115 15.5 16.375 15.8365 16.375 16.25C16.375 16.6635 16.7115 17 17.125 17H18C18.965 17 19.75 17.785 19.75 18.75C19.75 19.715 18.965 20.5 18 20.5ZM19.5605 8.5H14.25C13.8365 8.5 13.5 8.1635 13.5 7.75V2.4395L19.5605 8.5Z" fill="black"/>
</svg>
