<svg width="24" height="24" viewBox="0 0 24 24" fill="none" xmlns="http://www.w3.org/2000/svg">
<path fill-rule="evenodd" clip-rule="evenodd" d="M4 4.25C4 3.0095 5.0095 2 6.25 2H12V7.75C12 8.9905 13.0095 10 14.25 10H20V19.75C20 20.9905 18.9905 22 17.75 22H6.25C5.0095 22 4 20.9905 4 19.75V4.25ZM9.71967 10.4697C10.0126 10.1768 10.4874 10.1768 10.7803 10.4697C11.0732 10.7626 11.0732 11.2374 10.7803 11.5303L9.81066 12.5H13.75C14.5456 12.5 15.3087 12.8161 15.8713 13.3787C16.4339 13.9413 16.75 14.7044 16.75 15.5C16.75 15.9142 16.4142 16.25 16 16.25C15.5858 16.25 15.25 15.9142 15.25 15.5C15.25 15.1022 15.092 14.7206 14.8107 14.4393C14.5294 14.158 14.1478 14 13.75 14H9.81066L10.7803 14.9697C11.0732 15.2626 11.0732 15.7374 10.7803 16.0303C10.4874 16.3232 10.0126 16.3232 9.71967 16.0303L7.46967 13.7803C7.17678 13.4874 7.17678 13.0126 7.46967 12.7197L9.71967 10.4697Z" fill="black"/>
<path d="M13.5 7.75V2.43945L19.5605 8.5H14.25C13.8365 8.5 13.5 8.1635 13.5 7.75Z" fill="black"/>
</svg>
