<svg width="24" height="24" viewBox="0 0 24 24" fill="none" xmlns="http://www.w3.org/2000/svg">
<path fill-rule="evenodd" clip-rule="evenodd" d="M14.375 2.25C15.4105 2.25 16.25 3.08947 16.25 4.125V6C16.25 6.41421 15.9142 6.75 15.5 6.75C15.0858 6.75 14.75 6.41421 14.75 6V4.125C14.75 3.91789 14.5821 3.75 14.375 3.75H8.96598V7.16912C8.96598 8.20465 8.12651 9.04412 7.09098 9.04412H3.25V19.875C3.25 20.0821 3.41789 20.25 3.625 20.25H14.5C14.6381 20.25 14.75 20.1381 14.75 20C14.75 19.5858 15.0858 19.25 15.5 19.25C15.9142 19.25 16.25 19.5858 16.25 20C16.25 20.9665 15.4665 21.75 14.5 21.75H3.625C2.58947 21.75 1.75 20.9105 1.75 19.875V8.29412C1.75 8.08403 1.83812 7.88357 1.99291 7.74152L4.49065 5.44948L7.70438 2.45157C7.84324 2.32204 8.02608 2.25 8.21598 2.25H14.375ZM5.51159 6.54843L7.46598 4.7253V7.16912C7.46598 7.37622 7.29808 7.54412 7.09098 7.54412H4.42658L5.51159 6.54843Z" fill="black"/>
<path fill-rule="evenodd" clip-rule="evenodd" d="M11.5395 8.20934C12.4172 7.79004 13.4033 7.65323 14.362 7.81776C15.3207 7.98229 16.2048 8.44005 16.8926 9.12798C17.5803 9.81592 18.0379 10.7002 18.2024 11.659C18.3362 12.4389 18.2707 13.2369 18.016 13.98L21.6181 17.583C22.0208 17.9859 22.2471 18.5322 22.2471 19.1019C22.2471 19.6715 22.0208 20.2179 21.6181 20.6208C21.2153 21.0236 20.669 21.25 20.0993 21.25C19.5296 21.25 18.9833 21.0236 18.5805 20.6208L14.9786 17.0179C14.2357 17.2726 13.4378 17.3381 12.6581 17.2043C11.6994 17.0398 10.8153 16.582 10.1276 15.8941C9.43981 15.2062 8.9822 14.3219 8.81774 13.3631C8.65327 12.4043 8.79003 11.418 9.20918 10.5402C9.31411 10.3204 9.51918 10.1653 9.75918 10.1241C9.99917 10.083 10.2442 10.1609 10.4164 10.3331L12.5029 12.4201H13.419V11.5035L11.3324 9.41635C11.1602 9.24419 11.0824 8.99919 11.1236 8.75925C11.1647 8.51931 11.3198 8.31428 11.5395 8.20934ZM13.2984 9.26126L14.6994 10.6626C14.84 10.8033 14.919 10.994 14.919 11.1929V13.1701C14.919 13.5843 14.5832 13.9201 14.169 13.9201H12.1922C11.9933 13.9201 11.8025 13.8411 11.6618 13.7004L10.2612 12.2995C10.2387 12.5683 10.25 12.8405 10.2961 13.1095C10.4082 13.7627 10.7199 14.365 11.1884 14.8336C11.6568 15.3021 12.2589 15.6139 12.9118 15.7259C13.5647 15.838 14.2363 15.7448 14.8341 15.4593C15.1209 15.3222 15.463 15.3809 15.6878 15.6057L19.6413 19.5602C19.7628 19.6818 19.9275 19.75 20.0993 19.75C20.271 19.75 20.4358 19.6818 20.5573 19.5602C20.6788 19.4387 20.7471 19.2738 20.7471 19.1019C20.7471 18.9299 20.6788 18.765 20.5573 18.6435L16.6037 14.689C16.3791 14.4643 16.3204 14.1224 16.4573 13.8356C16.7429 13.2376 16.836 12.5658 16.724 11.9126C16.6119 11.2594 16.3002 10.6571 15.8318 10.1885C15.3633 9.71995 14.7612 9.40819 14.1083 9.29615C13.8393 9.24999 13.5672 9.23866 13.2984 9.26126Z" fill="black"/>
</svg>
