<svg width="24" height="24" viewBox="0 0 24 24" fill="none" xmlns="http://www.w3.org/2000/svg">
<path fill-rule="evenodd" clip-rule="evenodd" d="M2.5 3.75C2.5 2.5095 3.5095 1.5 4.75 1.5H11.25C11.457 1.5 11.6445 1.58404 11.7803 1.71973L18.2803 8.21973C18.416 8.35541 18.5 8.54275 18.5 8.75V10.998C18.026 10.8 17.523 10.6572 17 10.5762V9.5H12.75C11.5095 9.5 10.5 8.4905 10.5 7.25V3H4.75C4.3365 3 4 3.3365 4 3.75V19.25C4 19.6635 4.3365 20 4.75 20H10.2324C10.5194 20.551 10.8831 21.0555 11.3096 21.5H4.75C3.5095 21.5 2.5 20.4905 2.5 19.25V3.75ZM15.9395 8L12 4.06055V7.25C12 7.6635 12.3365 8 12.75 8H15.9395Z" fill="black"/>
<path d="M6.5 12.75C6.5 12.3355 6.836 12 7.25 12H11.8457C11.3312 12.428 10.884 12.934 10.5215 13.5H7.25C6.836 13.5 6.5 13.1645 6.5 12.75Z" fill="black"/>
<path d="M6.5 16.25C6.5 15.8355 6.836 15.5 7.25 15.5H9.67383C9.56033 15.9815 9.5 16.4835 9.5 17H7.25C6.836 17 6.5 16.6645 6.5 16.25Z" fill="black"/>
<path fill-rule="evenodd" clip-rule="evenodd" d="M16 11.5C12.9625 11.5 10.5 13.9625 10.5 17C10.5 20.0375 12.9625 22.5 16 22.5C19.0375 22.5 21.5 20.0375 21.5 17C21.5 13.9625 19.0375 11.5 16 11.5ZM16 21.25C18.3472 21.25 20.25 19.3472 20.25 17C20.25 16.1156 19.9799 15.2943 19.5176 14.6141L13.6141 20.5176C14.2943 20.9799 15.1156 21.25 16 21.25ZM18.6704 13.6935L12.6935 19.6704C12.1034 18.9407 11.75 18.0116 11.75 17C11.75 14.6528 13.6528 12.75 16 12.75C17.0116 12.75 17.9407 13.1034 18.6704 13.6935Z" fill="black"/>
</svg>
