<svg width="24" height="24" viewBox="0 0 24 24" fill="none" xmlns="http://www.w3.org/2000/svg">
<path d="M9.74994 2.88672C9.55103 2.88672 9.36026 2.96574 9.21961 3.10639C9.07896 3.24704 8.99994 3.43781 8.99994 3.63672C8.99994 3.83563 9.07896 4.0264 9.21961 4.16705C9.36026 4.3077 9.55103 4.38672 9.74994 4.38672C9.94885 4.38672 10.1396 4.3077 10.2803 4.16705C10.4209 4.0264 10.4999 3.83563 10.4999 3.63672C10.4999 3.43781 10.4209 3.24704 10.2803 3.10639C10.1396 2.96574 9.94885 2.88672 9.74994 2.88672ZM12.2353 2.88672C12.0364 2.88672 11.8456 2.96574 11.705 3.10639C11.5643 3.24704 11.4853 3.43781 11.4853 3.63672C11.4853 3.83563 11.5643 4.0264 11.705 4.16705C11.8456 4.3077 12.0364 4.38672 12.2353 4.38672C12.4342 4.38672 12.625 4.3077 12.7656 4.16705C12.9063 4.0264 12.9853 3.83563 12.9853 3.63672C12.9853 3.43781 12.9063 3.24704 12.7656 3.10639C12.625 2.96574 12.4342 2.88672 12.2353 2.88672ZM7.28217 3.93164C7.13881 3.92705 6.99715 3.96365 6.87396 4.03711C4.5571 5.3774 2.99994 7.88739 2.99994 10.75C2.99994 12.5386 3.61425 14.1861 4.63568 15.5H3.74994C3.65056 15.4986 3.55188 15.517 3.45966 15.554C3.36743 15.5911 3.28349 15.6461 3.21271 15.7159C3.14194 15.7857 3.08573 15.8688 3.04737 15.9605C3.00901 16.0522 2.98926 16.1506 2.98926 16.25C2.98926 16.3494 3.00901 16.4478 3.04737 16.5395C3.08573 16.6312 3.14194 16.7143 3.21271 16.7841C3.28349 16.8539 3.36743 16.9089 3.45966 16.946C3.55188 16.983 3.65056 17.0014 3.74994 17H6.3183C6.39306 17.0114 6.46912 17.0114 6.54389 17H6.74994C6.94885 17 7.1396 16.921 7.28025 16.7803C7.4209 16.6397 7.49992 16.4489 7.49994 16.25V13.25C7.50138 13.1496 7.48265 13.05 7.44487 12.957C7.40709 12.8639 7.35102 12.7795 7.27998 12.7085C7.20895 12.6376 7.1244 12.5816 7.03134 12.5439C6.93828 12.5063 6.8386 12.4877 6.73822 12.4893C6.53948 12.4924 6.3501 12.5742 6.21167 12.7169C6.07324 12.8595 5.99709 13.0513 5.99994 13.25V14.8027C5.06731 13.7119 4.49994 12.3022 4.49994 10.75C4.49994 8.43061 5.75778 6.41664 7.62592 5.33594C7.76908 5.25583 7.88203 5.13099 7.94746 4.98056C8.01289 4.83012 8.0272 4.66238 7.9882 4.50304C7.94919 4.34369 7.85902 4.20153 7.7315 4.09832C7.60398 3.99512 7.44614 3.93657 7.28217 3.93164ZM14.7499 4C14.551 4.00002 14.3603 4.07904 14.2196 4.21969C14.079 4.36034 14 4.55109 13.9999 4.75V4.89551C13.9903 4.96451 13.9903 5.03452 13.9999 5.10352V7.75C13.9985 7.84938 14.0169 7.94805 14.054 8.04028C14.091 8.13251 14.146 8.21645 14.2158 8.28723C14.2856 8.358 14.3688 8.41421 14.4605 8.45257C14.5521 8.49093 14.6505 8.51068 14.7499 8.51068C14.8493 8.51068 14.9477 8.49093 15.0394 8.45257C15.1311 8.41421 15.2143 8.358 15.2841 8.28723C15.3538 8.21645 15.4089 8.13251 15.4459 8.04028C15.483 7.94805 15.5013 7.84938 15.4999 7.75V6.69336C16.4334 7.7842 16.9999 9.19624 16.9999 10.749C16.9999 12.4609 16.3082 14.0012 15.1982 15.1279C15.1656 15.1565 15.1355 15.1879 15.1083 15.2217C14.7375 15.5828 14.3252 15.903 13.874 16.1641C13.787 16.2125 13.7106 16.2778 13.6492 16.3562C13.5878 16.4345 13.5425 16.5242 13.5161 16.6202C13.4897 16.7161 13.4827 16.8164 13.4955 16.9151C13.5082 17.0138 13.5405 17.109 13.5903 17.1951C13.6402 17.2813 13.7068 17.3566 13.7861 17.4167C13.8654 17.4769 13.9559 17.5206 14.0522 17.5455C14.1486 17.5703 14.249 17.5757 14.3475 17.5614C14.446 17.547 14.5406 17.5132 14.6259 17.4619C14.994 17.249 15.3043 16.9601 15.6308 16.6914L19.2197 20.2803C19.2888 20.3522 19.3716 20.4097 19.4632 20.4493C19.5547 20.4889 19.6533 20.5098 19.7531 20.5108C19.8529 20.5118 19.9519 20.4929 20.0442 20.4552C20.1366 20.4175 20.2205 20.3617 20.2911 20.2912C20.3617 20.2206 20.4174 20.1367 20.4552 20.0443C20.4929 19.9519 20.5118 19.8529 20.5108 19.7532C20.5097 19.6534 20.4888 19.5548 20.4492 19.4632C20.4097 19.3716 20.3522 19.2888 20.2802 19.2197L16.6904 15.6299C17.7917 14.2903 18.4999 12.6139 18.4999 10.749C18.4999 8.72362 17.7109 6.88224 16.4345 5.5H17.7499C17.8493 5.50141 17.948 5.48304 18.0402 5.44598C18.1325 5.40892 18.2164 5.3539 18.2872 5.28412C18.3579 5.21434 18.4141 5.13118 18.4525 5.03949C18.4909 4.9478 18.5106 4.84939 18.5106 4.75C18.5106 4.65061 18.4909 4.5522 18.4525 4.46051C18.4141 4.36882 18.3579 4.28566 18.2872 4.21588C18.2164 4.1461 18.1325 4.09108 18.0402 4.05402C17.948 4.01696 17.8493 3.99859 17.7499 4H14.7499ZM9.26459 16.8867C9.06568 16.8867 8.87491 16.9657 8.73426 17.1064C8.59361 17.247 8.51459 17.4378 8.51459 17.6367C8.51459 17.8356 8.59361 18.0264 8.73426 18.167C8.87491 18.3077 9.06568 18.3867 9.26459 18.3867C9.4635 18.3867 9.65427 18.3077 9.79492 18.167C9.93557 18.0264 10.0146 17.8356 10.0146 17.6367C10.0146 17.4378 9.93557 17.247 9.79492 17.1064C9.65427 16.9657 9.4635 16.8867 9.26459 16.8867ZM11.8105 16.8867C11.6116 16.8867 11.4208 16.9657 11.2802 17.1064C11.1395 17.247 11.0605 17.4378 11.0605 17.6367C11.0605 17.8356 11.1395 18.0264 11.2802 18.167C11.4208 18.3077 11.6116 18.3867 11.8105 18.3867C12.0094 18.3867 12.2002 18.3077 12.3408 18.167C12.4815 18.0264 12.5605 17.8356 12.5605 17.6367C12.5605 17.4378 12.4815 17.247 12.3408 17.1064C12.2002 16.9657 12.0094 16.8867 11.8105 16.8867Z" fill="black"/>
</svg>
