<svg width="24" height="24" viewBox="0 0 24 24" fill="none" xmlns="http://www.w3.org/2000/svg">
<path d="M12 1.5C11.824 1.49997 11.6536 1.56185 11.5186 1.6748C11.5186 1.6748 9.65475 3.23277 7.79297 5.52051C5.93119 7.80825 4 10.8398 4 14C4 18.2719 7.37296 21.7652 11.5928 21.9795C11.7268 21.9932 11.8625 22 12 22C12.1375 22 12.2732 21.9932 12.4072 21.9795C16.627 21.7652 20 18.2719 20 14C20 10.6215 17.8004 7.38908 15.8223 5.05859C15.7229 4.94139 15.59 4.85752 15.4414 4.81832C15.2929 4.77913 15.1358 4.7865 14.9916 4.83944C14.8474 4.89238 14.7229 4.98834 14.635 5.11434C14.547 5.24034 14.4999 5.3903 14.5 5.54395V7.75C14.5 8.17325 14.1732 8.5 13.75 8.5C13.3268 8.5 13 8.17325 13 7.75V2.46777C13 2.36161 12.9774 2.25666 12.9338 2.15986C12.8902 2.06306 12.8266 1.97662 12.7471 1.90625C12.5843 1.76212 12.4834 1.67676 12.4834 1.67676C12.3482 1.56267 12.1769 1.50006 12 1.5ZM11.5 3.72363V7.75C11.5 8.98375 12.5162 10 13.75 10C14.9838 10 16 8.98375 16 7.75V7.74023C17.3691 9.6826 18.5 11.9444 18.5 14C18.5 16.1834 17.428 18.1054 15.7842 19.2832C15.922 18.8797 16 18.4487 16 18C16 16.3295 15.0849 14.8006 14.2275 13.6465C13.3702 12.4923 12.5088 11.6992 12.5088 11.6992C12.4351 11.6311 12.3484 11.5784 12.254 11.5443C12.1595 11.5103 12.0592 11.4955 11.959 11.501C11.7847 11.5106 11.6193 11.5807 11.4912 11.6992C11.4912 11.6992 10.6298 12.4923 9.77246 13.6465C8.9151 14.8006 8 16.3295 8 18C8 18.4487 8.07798 18.8797 8.21582 19.2832C6.57202 18.1054 5.5 16.1834 5.5 14C5.5 11.4777 7.19381 8.63441 8.95703 6.46777C9.93492 5.26616 10.8234 4.36633 11.5 3.72363ZM12 13.3789C12.283 13.6644 12.5099 13.851 13.0225 14.541C13.7901 15.5744 14.5 16.9205 14.5 18C14.5 19.3025 13.5244 20.3598 12.2578 20.4873C12.173 20.4958 12.0872 20.5 12 20.5C11.9131 20.5 11.8276 20.4958 11.7432 20.4873C11.7428 20.4873 11.7425 20.4873 11.7422 20.4873C10.4756 20.3598 9.5 19.3025 9.5 18C9.5 16.9205 10.2099 15.5744 10.9775 14.541C11.4901 13.851 11.717 13.6644 12 13.3789Z" fill="black"/>
</svg>
