<svg width="24" height="24" viewBox="0 0 24 24" fill="none" xmlns="http://www.w3.org/2000/svg">
<path d="M16.4929 13.008L7.98173 4.49685V3.91907C7.98173 3.38963 8.16921 2.93743 8.54417 2.56247C8.91915 2.18749 9.37135 2 9.90077 2H15.0393C15.5646 2 15.9913 2.19905 16.3193 2.59715C16.6473 2.99526 16.744 3.4359 16.6092 3.91907L15.2088 8.78813H16.6583C17.234 8.78813 17.6596 9.04229 17.9353 9.55063C18.2108 10.059 18.1833 10.5547 17.8526 11.0379L16.4929 13.008ZM20.8394 22.64L14.3411 16.1417L12.2792 19.1244C12.1798 19.27 12.0563 19.366 11.9086 19.4123C11.761 19.4585 11.6143 19.4585 11.4687 19.4123C11.3231 19.366 11.2023 19.2816 11.1063 19.1591C11.0104 19.0366 10.9624 18.8883 10.9624 18.714V13.6776H9.90077C9.37135 13.6776 8.91915 13.4901 8.54417 13.1152C8.16921 12.7402 7.98173 12.288 7.98173 11.7586V9.78237L2 3.80062L3.13507 2.66555L21.9745 21.5049L20.8394 22.64Z" fill="black"/>
</svg>
