<svg width="24" height="24" viewBox="0 0 24 24" fill="none" xmlns="http://www.w3.org/2000/svg">
<path d="M12 14C12.1432 14 12.2757 14.0326 12.3975 14.0977C12.5193 14.1629 12.624 14.2612 12.71 14.3916L16.8379 20.6523C17.0385 20.9422 17.0529 21.2396 16.8809 21.5439C16.7088 21.848 16.4503 22 16.1064 22H7.89355C7.54967 22 7.29116 21.848 7.11914 21.5439C6.94715 21.2396 6.9615 20.9422 7.16211 20.6523L11.29 14.3916C11.376 14.2612 11.4807 14.1629 11.6025 14.0977C11.7243 14.0326 11.8568 14 12 14ZM19 11C19.2833 11 19.5212 11.0954 19.7129 11.2871C19.9046 11.4788 20 11.7167 20 12C20 12.2833 19.9046 12.5212 19.7129 12.7129C19.5212 12.9046 19.2833 13 19 13H5C4.71667 13 4.47878 12.9046 4.28711 12.7129C4.09544 12.5212 4 12.2833 4 12C4 11.7167 4.09544 11.4788 4.28711 11.2871C4.47878 11.0954 4.71667 11 5 11H19ZM16.1064 2C16.4503 2 16.7088 2.15196 16.8809 2.45605C17.0529 2.76037 17.0385 3.05783 16.8379 3.34766L12.71 9.6084C12.624 9.73883 12.5193 9.83713 12.3975 9.90234C12.2757 9.96745 12.1432 10 12 10C11.8568 10 11.7243 9.96745 11.6025 9.90234C11.4807 9.83713 11.376 9.73883 11.29 9.6084L7.16211 3.34766C6.9615 3.05783 6.94715 2.76037 7.11914 2.45605C7.29116 2.15196 7.54967 2 7.89355 2H16.1064ZM12 7.56543L14.5371 3.73926H9.46289L12 7.56543Z" fill="black"/>
</svg>
