<svg width="24" height="24" viewBox="0 0 24 24" fill="none" xmlns="http://www.w3.org/2000/svg">
<path fill-rule="evenodd" clip-rule="evenodd" d="M5.25 11.5H9.25C10.4905 11.5 11.5 10.4905 11.5 9.25V5.25C11.5 4.0095 10.4905 3 9.25 3H5.25C4.0095 3 3 4.0095 3 5.25V9.25C3 10.4905 4.0095 11.5 5.25 11.5ZM14.75 11.5H18.75C19.9905 11.5 21 10.4905 21 9.25V5.25C21 4.0095 19.9905 3 18.75 3H14.75C13.5095 3 12.5 4.0095 12.5 5.25V9.25C12.5 10.4905 13.5095 11.5 14.75 11.5ZM9.25 21H5.25C4.0095 21 3 19.9905 3 18.75V14.75C3 13.5095 4.0095 12.5 5.25 12.5H9.25C10.4905 12.5 11.5 13.5095 11.5 14.75V18.75C11.5 19.9905 10.4905 21 9.25 21ZM14.75 21H18.75C19.9905 21 21 19.9905 21 18.75V14.75C21 13.5095 19.9905 12.5 18.75 12.5H14.75C13.5095 12.5 12.5 13.5095 12.5 14.75V18.75C12.5 19.9905 13.5095 21 14.75 21Z" fill="black"/>
</svg>
