<svg width="24" height="24" viewBox="0 0 24 24" fill="none" xmlns="http://www.w3.org/2000/svg">
<path fill-rule="evenodd" clip-rule="evenodd" d="M19 14V3.75C19 2.235 17.765 1 16.25 1H7.25C5.735 1 4.5 2.235 4.5 3.75V17.75C4.5 19.265 5.735 20.5 7.25 20.5H11V15C11 13.62 12.12 12.5 13.5 12.5H15.38C16.045 12.5 16.675 12.76 17.145 13.23L17.77 13.855C17.86 13.95 17.99 14 18.12 14H19ZM15.5 8C16.05 8 16.5 8.45 16.5 9V10C16.5 10.55 16.05 11 15.5 11H8C7.45 11 7 10.55 7 10V9C7 8.45 7.45 8 8 8H15.5ZM15.5 3.5C16.05 3.5 16.5 3.95 16.5 4.5V5.5C16.5 6.05 16.05 6.5 15.5 6.5H8C7.45 6.5 7 6.05 7 5.5V4.5C7 3.95 7.45 3.5 8 3.5H15.5ZM23 17V16.5C23 15.67 22.33 15 21.5 15H21C21 16.105 21.895 17 23 17ZM23 18V19C20.795 19 19 17.205 19 15H20C20 16.655 21.345 18 23 18ZM23 21.5V20C20.245 20 18 17.755 18 15V14.995C17.645 14.965 17.31 14.81 17.06 14.56L16.44 13.94C16.16 13.66 15.775 13.5 15.38 13.5H13.5C12.67 13.5 12 14.17 12 15V21.5C12 22.33 12.67 23 13.5 23H21.5C22.33 23 23 22.33 23 21.5Z" fill="black"/>
</svg>
