<svg width="24" height="24" viewBox="0 0 24 24" fill="none" xmlns="http://www.w3.org/2000/svg">
<path d="M3.75679 14.487C3.85598 14.4871 3.95435 14.5073 4.04585 14.5456C4.13736 14.5839 4.22033 14.64 4.28999 14.7106C4.35972 14.7814 4.41507 14.8656 4.4521 14.9577C4.48041 15.0282 4.49402 15.1029 4.49995 15.1784V19.4997H8.82124C8.89701 19.5056 8.97216 19.5201 9.04292 19.5485C9.1348 19.5855 9.21846 19.6402 9.28902 19.7097C9.35968 19.7793 9.4167 19.8623 9.45503 19.9538C9.49336 20.0454 9.51265 20.1445 9.51265 20.2438C9.51261 20.343 9.4933 20.4414 9.45503 20.5329C9.4167 20.6245 9.35974 20.7073 9.28902 20.777C9.21836 20.8467 9.13496 20.9021 9.04292 20.9391C8.95087 20.9761 8.85208 20.9942 8.75288 20.9929H3.85249C3.7379 21.0087 3.62037 20.9974 3.5107 20.9606C3.4012 20.9238 3.30142 20.8626 3.21968 20.7809C3.13785 20.6992 3.07595 20.5995 3.03902 20.4899C3.00211 20.3804 2.99115 20.2636 3.00679 20.1491V15.2477C3.00539 15.1486 3.02358 15.0497 3.0605 14.9577C3.09753 14.8656 3.15289 14.7814 3.22261 14.7106C3.29225 14.64 3.37528 14.5839 3.46675 14.5456C3.55837 14.5073 3.65747 14.487 3.75679 14.487Z" fill="black"/>
<path d="M20.2324 14.487C20.3325 14.4855 20.4325 14.5041 20.5253 14.5417C20.6182 14.5793 20.7025 14.6359 20.7734 14.7067C20.8443 14.7776 20.9007 14.8619 20.9384 14.9548C20.9761 15.0477 20.9946 15.1475 20.9931 15.2477V20.2438C20.9931 20.2899 20.9889 20.3363 20.9804 20.3815C20.9793 20.3874 20.9768 20.3933 20.9755 20.3991C20.9673 20.4401 20.9553 20.4802 20.9404 20.5192C20.9375 20.5264 20.9337 20.5336 20.9306 20.5407C20.9152 20.5765 20.8968 20.6113 20.8759 20.6442L20.874 20.6481C20.8691 20.6557 20.8635 20.6632 20.8584 20.6706C20.8337 20.7064 20.8058 20.7402 20.7753 20.7712C20.7728 20.7735 20.7701 20.7758 20.7675 20.778C20.7351 20.8101 20.6998 20.8393 20.6621 20.8649C20.6551 20.8696 20.6476 20.8732 20.6406 20.8776C20.607 20.8989 20.5716 20.9176 20.5351 20.9333L20.5332 20.9343C20.5255 20.9375 20.5175 20.9401 20.5097 20.9431C20.4702 20.9585 20.4292 20.9707 20.3876 20.9792H20.3837C20.3377 20.9881 20.291 20.9927 20.2441 20.9929H15.248C15.1489 20.9943 15.05 20.9761 14.958 20.9391C14.8658 20.9021 14.7816 20.8468 14.7109 20.777C14.6402 20.7074 14.5842 20.6244 14.5459 20.5329C14.5076 20.4414 14.4873 20.3431 14.4873 20.2438C14.4873 20.1445 14.5075 20.0454 14.5459 19.9538C14.5842 19.8624 14.6403 19.7793 14.7109 19.7097C14.7816 19.64 14.8659 19.5855 14.958 19.5485C15.0289 19.5201 15.1037 19.5055 15.1796 19.4997H19.5V15.1794C19.5133 15.0056 19.5836 14.8406 19.706 14.7145C19.8443 14.5721 20.0339 14.4901 20.2324 14.487Z" fill="black"/>
<path d="M8.75288 3.00751C8.85208 3.00615 8.95087 3.02423 9.04292 3.06122C9.13477 3.09818 9.21846 3.1529 9.28902 3.22235C9.35974 3.29208 9.4167 3.37585 9.45503 3.46747C9.49327 3.559 9.51265 3.65734 9.51265 3.75653C9.51265 3.85573 9.49327 3.95407 9.45503 4.04559C9.4167 4.13722 9.35974 4.22098 9.28902 4.29071C9.21846 4.36017 9.13478 4.41489 9.04292 4.45184C8.97399 4.47954 8.90084 4.49335 8.8271 4.4997H4.49995V8.82001C4.49413 8.89618 4.48068 8.97153 4.4521 9.04267C4.41507 9.13482 4.35972 9.21901 4.28999 9.28974C4.22034 9.36032 4.13734 9.41649 4.04585 9.45477C3.95435 9.49305 3.85598 9.51234 3.75679 9.51239C3.65747 9.51239 3.55837 9.4931 3.46675 9.45477C3.37529 9.41647 3.29225 9.36033 3.22261 9.28974C3.15288 9.21901 3.09753 9.13482 3.0605 9.04267C3.02351 8.95056 3.00539 8.85187 3.00679 8.75263V3.75653C3.00677 3.71038 3.01103 3.66421 3.01949 3.61884C3.02052 3.61329 3.02224 3.60777 3.02339 3.60224C3.03257 3.55858 3.04567 3.51564 3.06245 3.47431C3.08046 3.43005 3.10277 3.38738 3.12886 3.34735C3.131 3.34409 3.13351 3.34083 3.1357 3.33759C3.16177 3.29852 3.19165 3.26172 3.22456 3.22821L3.22652 3.22626C3.22798 3.22487 3.22996 3.22377 3.2314 3.22235C3.26512 3.18913 3.30238 3.15977 3.34175 3.13349C3.34566 3.13088 3.34953 3.1282 3.35347 3.12567C3.38884 3.10308 3.42615 3.08344 3.4648 3.06708L3.46675 3.0661C3.47419 3.06298 3.4817 3.06018 3.48921 3.05731C3.52972 3.04169 3.57162 3.02957 3.61421 3.02118C3.66109 3.01212 3.70904 3.00751 3.75679 3.00751H8.75288Z" fill="black"/>
<path d="M20.2294 3.00067C20.338 2.99761 20.446 3.01748 20.5459 3.06024C20.6459 3.10315 20.7358 3.16774 20.8085 3.24872C20.8812 3.32966 20.9348 3.426 20.9668 3.52997C20.9986 3.63393 21.0079 3.74353 20.9931 3.85126V8.75263C20.9945 8.85189 20.9764 8.95054 20.9394 9.04267C20.9024 9.13482 20.847 9.21901 20.7773 9.28974C20.7076 9.36032 20.6246 9.41649 20.5332 9.45477C20.4417 9.49305 20.3433 9.51234 20.2441 9.51239C20.1448 9.51239 20.0457 9.4931 19.9541 9.45477C19.8626 9.41647 19.7796 9.36033 19.7099 9.28974C19.6402 9.21901 19.5848 9.13482 19.5478 9.04267C19.5192 8.97155 19.5058 8.89616 19.5 8.82001V4.4997H15.1738C15.0999 4.49342 15.027 4.47956 14.958 4.45184C14.8659 4.41487 14.7815 4.36029 14.7109 4.29071C14.6402 4.22098 14.5842 4.13722 14.5459 4.04559C14.5075 3.95399 14.4873 3.85583 14.4873 3.75653C14.4873 3.65724 14.5075 3.55908 14.5459 3.46747C14.5842 3.37585 14.6402 3.29208 14.7109 3.22235C14.7815 3.15277 14.8659 3.09819 14.958 3.06122C15.05 3.02429 15.1488 3.00611 15.248 3.00751H20.1484C20.1752 3.00379 20.2024 3.00148 20.2294 3.00067Z" fill="black"/>
</svg>
