<svg width="24" height="24" viewBox="0 0 24 24" fill="none" xmlns="http://www.w3.org/2000/svg">
<path d="M12 2C6.48615 2 2 6.48615 2 12C2 17.5139 6.48615 22 12 22C17.5139 22 22 17.5139 22 12C22.0014 11.9006 21.983 11.8019 21.946 11.7097C21.9089 11.6175 21.8539 11.5336 21.7841 11.4628C21.7143 11.392 21.6312 11.3358 21.5395 11.2974C21.4478 11.2591 21.3494 11.2393 21.25 11.2393C21.1506 11.2393 21.0522 11.2591 20.9605 11.2974C20.8688 11.3358 20.7857 11.392 20.7159 11.4628C20.6461 11.5336 20.5911 11.6175 20.554 11.7097C20.517 11.8019 20.4986 11.9006 20.5 12C20.5 16.7031 16.7031 20.5 12 20.5C7.29685 20.5 3.5 16.7031 3.5 12C3.5 7.29685 7.29685 3.5 12 3.5C14.8304 3.5 17.3305 4.8791 18.875 7H17.25C17.1506 6.99859 17.0519 7.01696 16.9597 7.05402C16.8675 7.09108 16.7836 7.1461 16.7128 7.21588C16.642 7.28566 16.5858 7.36882 16.5474 7.46051C16.5091 7.5522 16.4893 7.65061 16.4893 7.75C16.4893 7.84939 16.5091 7.9478 16.5474 8.03949C16.5858 8.13118 16.642 8.21434 16.7128 8.28412C16.7836 8.3539 16.8675 8.40892 16.9597 8.44598C17.0519 8.48304 17.1506 8.50141 17.25 8.5H20.75C20.9489 8.49998 21.1397 8.42096 21.2803 8.28031C21.421 8.13966 21.5 7.94891 21.5 7.75V4.25C21.5014 4.14962 21.4827 4.04997 21.4449 3.95695C21.4071 3.86394 21.3511 3.77946 21.28 3.70852C21.209 3.63757 21.1245 3.58161 21.0314 3.54395C20.9383 3.50629 20.8387 3.48769 20.7383 3.48926C20.5395 3.49236 20.3502 3.57423 20.2117 3.71686C20.0733 3.8595 19.9971 4.05125 20 4.25V6.00586C18.1744 3.57458 15.2679 2 12 2ZM11.7383 6.48926C11.5395 6.49236 11.3502 6.57423 11.2117 6.71686C11.0733 6.8595 10.9971 7.05125 11 7.25V13.25C11 13.4489 11.079 13.6397 11.2197 13.7803C11.3603 13.921 11.5511 14 11.75 14H15.75C15.8494 14.0014 15.9481 13.983 16.0403 13.946C16.1325 13.9089 16.2164 13.8539 16.2872 13.7841C16.358 13.7143 16.4142 13.6312 16.4526 13.5395C16.4909 13.4478 16.5107 13.3494 16.5107 13.25C16.5107 13.1506 16.4909 13.0522 16.4526 12.9605C16.4142 12.8688 16.358 12.7857 16.2872 12.7159C16.2164 12.6461 16.1325 12.5911 16.0403 12.554C15.9481 12.517 15.8494 12.4986 15.75 12.5H12.5V7.25C12.5014 7.14962 12.4827 7.04997 12.4449 6.95695C12.4071 6.86394 12.3511 6.77946 12.28 6.70852C12.209 6.63758 12.1245 6.58161 12.0314 6.54395C11.9383 6.50629 11.8387 6.48769 11.7383 6.48926Z" fill="black"/>
</svg>
