<svg width="24" height="24" viewBox="0 0 24 24" fill="none" xmlns="http://www.w3.org/2000/svg">
<path d="M4.87988 2.125C3.3611 2.125 2.12988 3.35622 2.12988 4.875V17.375C2.12988 18.5841 3.08362 19.5705 4.27983 19.6228C4.335 19.6252 4.37988 19.5802 4.37988 19.525V18.225C4.37988 18.1698 4.33487 18.1257 4.28012 18.1184C3.91307 18.0696 3.62988 17.7554 3.62988 17.375V4.875C3.62988 4.18464 4.18953 3.625 4.87988 3.625H17.3799C17.7603 3.625 18.0745 3.90819 18.1233 4.27524C18.1306 4.32999 18.1747 4.375 18.2299 4.375H19.5299C19.5851 4.375 19.6301 4.33012 19.6277 4.27495C19.5754 3.07873 18.589 2.125 17.3799 2.125H4.87988Z" fill="black"/>
<path fill-rule="evenodd" clip-rule="evenodd" d="M7.87988 5.875C6.77531 5.875 5.87988 6.77043 5.87988 7.875V19.875C5.87988 20.1269 5.92646 20.368 6.01148 20.59L11.7957 14.4844C12.9244 13.2931 14.8385 13.3491 15.8956 14.6043L21.4143 21.1578C21.7049 20.8106 21.8799 20.3632 21.8799 19.875V7.875C21.8799 6.77043 20.9845 5.875 19.8799 5.875H7.87988ZM16.8799 9.125C15.9134 9.125 15.1299 9.9085 15.1299 10.875C15.1299 11.8415 15.9134 12.625 16.8799 12.625C17.8464 12.625 18.6299 11.8415 18.6299 10.875C18.6299 9.9085 17.8464 9.125 16.8799 9.125Z" fill="black"/>
<path d="M7.87988 21.875C7.57856 21.875 7.2928 21.8084 7.03654 21.689L12.8846 15.516C13.3977 14.9745 14.2677 15 14.7482 15.5705L20.0511 21.8678C19.9947 21.8726 19.9376 21.875 19.8799 21.875H7.87988Z" fill="black"/>
</svg>
