<svg width="24" height="24" viewBox="0 0 24 24" fill="none" xmlns="http://www.w3.org/2000/svg">
<path d="M12 2.51367C11.4257 2.51367 10.8515 2.7005 10.377 3.07422L4.42969 7.75977C3.52774 8.47058 3 9.55675 3 10.7051V19.75C3 20.7075 3.79252 21.5 4.75 21.5H19.25C20.2075 21.5 21 20.7075 21 19.75V10.7051C21 9.55675 20.4723 8.47058 19.5703 7.75977L13.623 3.07422C13.1485 2.7005 12.5743 2.51367 12 2.51367ZM12 4.00977C12.2449 4.00977 12.4899 4.09115 12.6953 4.25293L18.6426 8.93848C19.1846 9.36566 19.5 10.0154 19.5 10.7051V19.75C19.5 19.8975 19.3975 20 19.25 20H17C17.276 20 17.5 19.776 17.5 19.5V18.25V15.25C17.5 14.7191 17.3039 14.2353 16.9912 13.8486C16.988 13.8299 16.9841 13.8114 16.9795 13.793L16.5 11.7393C16.2635 10.7248 15.3506 10 14.3096 10H9.69043C8.6491 10 7.73578 10.7241 7.49902 11.7383L7.01953 13.793C7.01562 13.8107 7.01237 13.8287 7.00977 13.8467C6.6963 14.2336 6.5 14.7184 6.5 15.25V18.25V19.5C6.5 19.776 6.724 20 7 20H4.75C4.60248 20 4.5 19.8975 4.5 19.75V10.7051C4.5 10.0154 4.81537 9.36566 5.35742 8.93848L11.3047 4.25293C11.5101 4.09115 11.7551 4.00977 12 4.00977ZM9.69043 11.5H14.3096C14.6622 11.5 14.9592 11.7361 15.0391 12.0791L15.2549 13.001L15.25 13H8.75L8.74512 13.001L8.95996 12.0791C9.04021 11.7353 9.33776 11.5 9.69043 11.5ZM8.75 14.5H15.25C15.6732 14.5 16 14.8268 16 15.25V17.5H8V15.25C8 14.8268 8.32675 14.5 8.75 14.5ZM9.75 15.5C9.55109 15.5 9.36032 15.579 9.21967 15.7197C9.07902 15.8603 9 16.0511 9 16.25C9 16.4489 9.07902 16.6397 9.21967 16.7803C9.36032 16.921 9.55109 17 9.75 17C9.94891 17 10.1397 16.921 10.2803 16.7803C10.421 16.6397 10.5 16.4489 10.5 16.25C10.5 16.0511 10.421 15.8603 10.2803 15.7197C10.1397 15.579 9.94891 15.5 9.75 15.5ZM14.25 15.5C14.0511 15.5 13.8603 15.579 13.7197 15.7197C13.579 15.8603 13.5 16.0511 13.5 16.25C13.5 16.4489 13.579 16.6397 13.7197 16.7803C13.8603 16.921 14.0511 17 14.25 17C14.4489 17 14.6397 16.921 14.7803 16.7803C14.921 16.6397 15 16.4489 15 16.25C15 16.0511 14.921 15.8603 14.7803 15.7197C14.6397 15.579 14.4489 15.5 14.25 15.5ZM8.5 19H15.5V19.5C15.5 19.776 15.724 20 16 20H8C8.276 20 8.5 19.776 8.5 19.5V19Z" fill="black"/>
</svg>
