<svg width="24" height="24" viewBox="0 0 24 24" fill="none" xmlns="http://www.w3.org/2000/svg">
<path d="M9.75 15.002C9.55109 15.002 9.36032 15.081 9.21967 15.2216C9.07902 15.3623 9 15.553 9 15.752C9 15.9509 9.07902 16.1416 9.21967 16.2823C9.36032 16.4229 9.55109 16.502 9.75 16.502C9.94891 16.502 10.1397 16.4229 10.2803 16.2823C10.421 16.1416 10.5 15.9509 10.5 15.752C10.5 15.553 10.421 15.3623 10.2803 15.2216C10.1397 15.081 9.94891 15.002 9.75 15.002Z" fill="black"/>
<path d="M14.25 15.002C14.0511 15.002 13.8603 15.081 13.7197 15.2216C13.579 15.3623 13.5 15.553 13.5 15.752C13.5 15.9509 13.579 16.1416 13.7197 16.2823C13.8603 16.4229 14.0511 16.502 14.25 16.502C14.4489 16.502 14.6397 16.4229 14.7803 16.2823C14.921 16.1416 15 15.9509 15 15.752C15 15.553 14.921 15.3623 14.7803 15.2216C14.6397 15.081 14.4489 15.002 14.25 15.002Z" fill="black"/>
<path fill-rule="evenodd" clip-rule="evenodd" d="M18 3H6C4.067 3 2.5 4.567 2.5 6.5V17.5C2.5 19.433 4.067 21 6 21H18C19.933 21 21.5 19.433 21.5 17.5V6.5C21.5 4.567 19.933 3 18 3ZM4 6.5C4 5.39543 4.89543 4.5 6 4.5H18C19.1046 4.5 20 5.39543 20 6.5V17.5C20 18.6046 19.1046 19.5 18 19.5H17.0445C17.2997 19.4775 17.5 19.263 17.5 19.002V14.752C17.5 14.2211 17.3039 13.7373 16.9912 13.3506C16.988 13.3319 16.9841 13.3133 16.9795 13.2949L16.5 11.2412C16.2635 10.2267 15.3506 9.50195 14.3096 9.50195H9.69043C8.6491 9.50195 7.73578 10.226 7.49902 11.2402L7.01953 13.2949C7.01562 13.3127 7.01237 13.3306 7.00977 13.3486C6.6963 13.7356 6.5 14.2203 6.5 14.752V19.002C6.5 19.263 6.70032 19.4775 6.95549 19.5H6C4.89543 19.5 4 18.6046 4 17.5V6.5ZM8.04451 19.5H15.9555C15.7003 19.4775 15.5 19.263 15.5 19.002V18.502H8.5V19.002C8.5 19.263 8.29968 19.4775 8.04451 19.5ZM15.0391 11.5811C14.9592 11.238 14.6622 11.002 14.3096 11.002H9.69043C9.33776 11.002 9.04021 11.2373 8.95996 11.5811L8.74512 12.5029L8.75 12.502H15.25L15.2549 12.5029L15.0391 11.5811ZM16 14.752C16 14.3287 15.6732 14.002 15.25 14.002H8.75C8.32675 14.002 8 14.3287 8 14.752V17.002H16V14.752Z" fill="black"/>
</svg>
