<svg width="24" height="24" viewBox="0 0 24 24" fill="none" xmlns="http://www.w3.org/2000/svg">
<path d="M10.7257 0.303061C11.33 0.182148 11.9574 0.269268 12.506 0.55025L12.5086 0.551635C13.0559 0.834766 13.4924 1.2933 13.7482 1.85385C14.004 2.4144 14.0643 3.04456 13.9196 3.64348C13.7748 4.24239 13.4334 4.77544 12.9498 5.15731C12.4663 5.53918 11.8686 5.74779 11.2524 5.74976C10.8382 5.75108 10.5013 5.41637 10.5 5.00216C10.4987 4.58795 10.8334 4.25109 11.2476 4.24977C11.5281 4.24887 11.8001 4.15393 12.0202 3.98012C12.2403 3.80632 12.3957 3.56371 12.4616 3.29111C12.5274 3.01852 12.5 2.73171 12.3835 2.47658C12.2673 2.22192 12.0692 2.01351 11.8207 1.88459C11.5739 1.75854 11.2918 1.71953 11.02 1.77391C10.7477 1.82839 10.5019 1.97339 10.3225 2.18532C10.0549 2.50148 9.58161 2.54083 9.26546 2.27322C8.9493 2.0056 8.90995 1.53236 9.17756 1.2162C9.57574 0.745807 10.1214 0.423974 10.7257 0.303061Z" fill="black"/>
<path d="M11.25 7.24976C11.6642 7.24976 12 7.58554 12 7.99976V8.00976C12 8.42397 11.6642 8.75976 11.25 8.75976C10.8358 8.75976 10.5 8.42397 10.5 8.00976V7.99976C10.5 7.58554 10.8358 7.24976 11.25 7.24976Z" fill="black"/>
<path d="M4.05546 2.55546C4.57118 2.03973 5.27065 1.75 6 1.75C6.72935 1.75 7.42882 2.03973 7.94454 2.55546C8.46027 3.07118 8.75 3.77065 8.75 4.5C8.75 5.22935 8.46027 5.92882 7.94454 6.44454C7.42882 6.96027 6.72935 7.25 6 7.25C5.27065 7.25 4.57118 6.96027 4.05546 6.44454C3.53973 5.92882 3.25 5.22935 3.25 4.5C3.25 3.77065 3.53973 3.07118 4.05546 2.55546Z" fill="black"/>
<path d="M3.25658 8.90088C3.30626 8.52827 3.6241 8.25 4 8.25H8C8.37591 8.25 8.69375 8.52827 8.74343 8.90088L9.74343 16.4009C9.772 16.6152 9.70671 16.8314 9.56429 16.994C9.42188 17.1567 9.2162 17.25 9 17.25H8.25V21.5C8.25 21.9142 7.91421 22.25 7.5 22.25C7.08579 22.25 6.75 21.9142 6.75 21.5V17.25H5.25V21.5C5.25 21.9142 4.91421 22.25 4.5 22.25C4.08579 22.25 3.75 21.9142 3.75 21.5V17.25H3C2.78381 17.25 2.57813 17.1567 2.43572 16.994C2.2933 16.8314 2.22801 16.6152 2.25658 16.4009L3.25658 8.90088Z" fill="black"/>
<path d="M14.2566 9.09912L15.25 16.5497V21.5C15.25 21.9142 15.5858 22.25 16 22.25C16.4142 22.25 16.75 21.9142 16.75 21.5V17.25H19.25V21.5C19.25 21.9142 19.5858 22.25 20 22.25C20.4142 22.25 20.75 21.9142 20.75 21.5V16.5498L21.7434 9.09912C21.772 8.88482 21.7067 8.66862 21.5643 8.50596C21.4219 8.34329 21.2162 8.25 21 8.25H15C14.7838 8.25 14.5781 8.34329 14.4357 8.50596C14.2933 8.66862 14.228 8.88482 14.2566 9.09912Z" fill="black"/>
<path d="M16.0555 2.55546C16.5712 2.03973 17.2707 1.75 18 1.75C18.7293 1.75 19.4288 2.03973 19.9445 2.55546C20.4603 3.07118 20.75 3.77065 20.75 4.5C20.75 5.22935 20.4603 5.92882 19.9445 6.44454C19.4288 6.96027 18.7293 7.25 18 7.25C17.2707 7.25 16.5712 6.96027 16.0555 6.44454C15.5397 5.92882 15.25 5.22935 15.25 4.5C15.25 3.77065 15.5397 3.07118 16.0555 2.55546Z" fill="black"/>
</svg>
