<svg width="24" height="24" viewBox="0 0 24 24" fill="none" xmlns="http://www.w3.org/2000/svg">
<path d="M6.25 2C5.0075 2 4 3.0075 4 4.25V19.75C4 20.9925 5.0075 22 6.25 22H17.75C18.9925 22 20 20.9925 20 19.75V10H14.25C13.0075 10 12 8.9925 12 7.75V2H6.25ZM13.5 2.43945V7.75C13.5 8.1635 13.8365 8.5 14.25 8.5H19.5605L13.5 2.43945ZM16 12.5C16.5525 12.5 17 12.9475 17 13.5C17 14.029 16.5874 14.4582 16.0674 14.4932L13.9932 16.5674C13.9577 17.0879 13.529 17.5 13 17.5C12.471 17.5 12.0418 17.0874 12.0068 16.5674L10.5 15.0605L8.99316 16.5674C8.95816 17.0874 8.529 17.5 8 17.5C7.4475 17.5 7 17.052 7 16.5C7 15.971 7.41262 15.5418 7.93262 15.5068L9.50684 13.9326C9.54234 13.4121 9.971 13 10.5 13C11.029 13 11.4582 13.4126 11.4932 13.9326L13 15.4395L15.0068 13.4326C15.0418 12.9126 15.471 12.5 16 12.5Z" fill="black"/>
</svg>
