<svg width="24" height="24" viewBox="0 0 24 24" fill="none" xmlns="http://www.w3.org/2000/svg">
<g clip-path="url(#clip0_59120_244)">
<path fill-rule="evenodd" clip-rule="evenodd" d="M12.5735 21.75H20.0294C20.4857 21.75 20.9232 21.5686 21.2459 21.2459C21.5686 20.9232 21.75 20.4857 21.75 20.0294V16.0147H12.5735V21.75ZM2.25 20.0294C2.25 20.4857 2.43141 20.9233 2.75408 21.2459C3.07675 21.5686 3.51426 21.75 3.97059 21.75H11.4265V16.0147H2.25V20.0294ZM12.5735 14.8676H21.75V9.13235H12.5735V14.8676ZM2.25 14.8676H11.4265V9.13235H2.25V14.8676ZM12.5735 7.98529H21.75V3.97059C21.75 3.51426 21.5686 3.07675 21.2459 2.75408C20.9233 2.43141 20.4857 2.25 20.0294 2.25H12.5735V7.98529ZM3.97059 2.25C3.51426 2.25 3.07675 2.43141 2.75408 2.75408C2.43141 3.07675 2.25 3.51426 2.25 3.97059V7.98529H11.4265V2.25H3.97059Z" fill="black"/>
</g>
<defs>
<clipPath id="clip0_59120_244">
<rect width="24" height="24" fill="white"/>
</clipPath>
</defs>
</svg>
