<svg width="24" height="24" viewBox="0 0 24 24" fill="none" xmlns="http://www.w3.org/2000/svg">
<path d="M4 17.99C3.72 17.99 3.48 17.89 3.29 17.7C3.1 17.51 3 17.27 3 16.99C3 16.71 3.1 16.47 3.29 16.28C3.48 16.09 3.72 15.99 4 15.99H12C12.28 15.99 12.52 16.09 12.71 16.28C12.9 16.47 13 16.71 13 16.99C13 17.27 12.9 17.51 12.71 17.7C12.52 17.89 12.28 17.99 12 17.99H4ZM4 8C3.72 8 3.48 7.9 3.29 7.71C3.1 7.52 3 7.28 3 7C3 6.72 3.1 6.48 3.29 6.29C3.48 6.1 3.72 6 4 6H12C12.28 6 12.52 6.1 12.71 6.29C12.9 6.48 13 6.72 13 7C13 7.28 12.9 7.52 12.71 7.71C12.52 7.9 12.28 8 12 8H4ZM4 13C3.72 13 3.48 12.9 3.29 12.71C3.1 12.52 3 12.28 3 12C3 11.72 3.1 11.48 3.29 11.29C3.48 11.1 3.72 11 4 11H14C14.28 11 14.52 11.1 14.71 11.29C14.9 11.48 15 11.72 15 12C15 12.28 14.9 12.52 14.71 12.71C14.52 12.9 14.28 13 14 13H4ZM18.18 12L15.28 9.1C15.1 8.92 15 8.68 15 8.4C15 8.12 15.09 7.88 15.28 7.7C15.47 7.52 15.7 7.42 15.98 7.42C16.26 7.42 16.5 7.51 16.68 7.7L20.28 11.3C20.48 11.5 20.58 11.73 20.58 12C20.58 12.27 20.48 12.5 20.28 12.7L16.68 16.3C16.5 16.48 16.26 16.57 15.98 16.57C15.7 16.57 15.46 16.48 15.28 16.3C15.1 16.12 15 15.88 15 15.6C15 15.32 15.09 15.08 15.28 14.9L18.18 12Z" fill="black"/>
</svg>
