<svg width="24" height="24" viewBox="0 0 24 24" fill="none" xmlns="http://www.w3.org/2000/svg">
<path d="M12.5632 2C13.2004 2.00006 13.7171 2.51676 13.7171 3.15397V10.4611C13.7171 10.6733 13.8891 10.8459 14.1012 10.846C14.3136 10.846 14.4862 10.6734 14.4862 10.4611V3.92301C14.4862 3.2858 15.0029 2.76904 15.6401 2.76904C16.2773 2.7691 16.7941 3.28584 16.7941 3.92301V11.231C16.7943 11.4431 16.9661 11.6149 17.1782 11.6151C17.3905 11.6151 17.563 11.4431 17.5632 11.231V6.23096C17.5632 5.59371 18.0799 5.07699 18.7171 5.07699C19.3543 5.07705 19.8711 5.59374 19.8711 6.23096V16.6151C19.8711 17.852 19.3898 22 14.0191 22C10.7753 21.9999 9.04081 20.7265 7.97006 19.0988C6.8992 17.471 4.38689 13.6691 4.38689 13.6691C3.93157 12.9599 4.09465 12.0507 4.75229 11.6338C5.41221 11.2261 6.313 11.4644 6.77459 12.1758L8.3322 14.3079V4.69206C8.33236 4.05497 8.84906 3.53895 9.48617 3.5389C10.1233 3.5389 10.64 4.05493 10.6401 4.69206V10.4611C10.6401 10.6733 10.8121 10.8458 11.0243 10.846C11.2366 10.846 11.4092 10.6734 11.4092 10.4611V3.15397C11.4092 2.51672 11.9259 2 12.5632 2Z" fill="black"/>
</svg>
