<svg width="24" height="24" viewBox="0 0 24 24" fill="none" xmlns="http://www.w3.org/2000/svg">
<path fill-rule="evenodd" clip-rule="evenodd" d="M6.62348 6.62348C7.98311 5.26384 9.82718 4.5 11.75 4.5C13.6728 4.5 15.5169 5.26384 16.8765 6.62348C18.2362 7.98311 19 9.82718 19 11.75V12.3005C18.6165 12.1048 18.1886 12 17.75 12H16.75C16.0207 12 15.3212 12.2897 14.8055 12.8055C14.2897 13.3212 14 14.0207 14 14.75V17.75C14 18.4793 14.2897 19.1788 14.8055 19.6945C15.3212 20.2103 16.0207 20.5 16.75 20.5H17.75C18.4793 20.5 19.1788 20.2103 19.6945 19.6945C20.2103 19.1788 20.5 18.4793 20.5 17.75V11.75C20.5 9.42936 19.5781 7.20376 17.9372 5.56282C16.2962 3.92187 14.0706 3 11.75 3C9.42936 3 7.20376 3.92187 5.56282 5.56282C3.92187 7.20376 3 9.42936 3 11.75V17.75C3 18.4793 3.28973 19.1788 3.80546 19.6945C4.32118 20.2103 5.02065 20.5 5.75 20.5H6.75C7.47935 20.5 8.17882 20.2103 8.69454 19.6945C9.21027 19.1788 9.5 18.4793 9.5 17.75V14.75C9.5 14.0207 9.21027 13.3212 8.69454 12.8055C8.17882 12.2897 7.47935 12 6.75 12H5.75C5.31137 12 4.88355 12.1048 4.5 12.3005V11.75C4.5 9.82718 5.26384 7.98311 6.62348 6.62348Z" fill="black"/>
</svg>
