<svg width="24" height="24" viewBox="0 0 24 24" fill="none" xmlns="http://www.w3.org/2000/svg">
<path fill-rule="evenodd" clip-rule="evenodd" d="M13.7074 3.00122C14.0351 2.98255 14.337 3.17925 14.4522 3.48667L17.2697 11H20.75C21.1642 11 21.5 11.3358 21.5 11.75C21.5 12.1642 21.1642 12.5 20.75 12.5H16.75C16.4374 12.5 16.1575 12.3061 16.0478 12.0134L13.8934 6.26854L10.4776 19.9319C10.398 20.2504 10.1204 20.4801 9.79265 20.4988C9.46486 20.5175 9.16303 20.3208 9.04775 20.0134L6.23025 12.5H2.75C2.33579 12.5 2 12.1642 2 11.75C2 11.3358 2.33579 11 2.75 11H6.75C7.06263 11 7.34247 11.1939 7.45225 11.4867L9.60655 17.2315L13.0224 3.56811C13.102 3.24959 13.3796 3.01989 13.7074 3.00122Z" fill="black"/>
</svg>
