<svg width="24" height="24" viewBox="0 0 24 24" fill="none" xmlns="http://www.w3.org/2000/svg">
<path fill-rule="evenodd" clip-rule="evenodd" d="M5.5 1.25C4.2595 1.25 3.25 2.2595 3.25 3.5V15.25H10.5399C10.8163 14.3213 11.2803 13.4733 11.8879 12.75H9.5C9.086 12.75 8.75 12.4145 8.75 12C8.75 11.5855 9.086 11.25 9.5 11.25H13.6424C14.696 10.6152 15.4304 10.25 16.75 10.25C17.2649 10.25 17.7668 10.3056 18.25 10.4111V3.5C18.25 2.2595 17.2405 1.25 16 1.25H5.5ZM9.20972 5.30403C9.30194 5.26697 9.40062 5.24861 9.5 5.25001H14.5C14.5994 5.24861 14.6981 5.26697 14.7903 5.30403C14.8825 5.34109 14.9664 5.39611 15.0372 5.46589C15.108 5.53568 15.1642 5.61883 15.2026 5.71052C15.2409 5.80222 15.2607 5.90062 15.2607 6.00001C15.2607 6.09941 15.2409 6.19781 15.2026 6.2895C15.1642 6.3812 15.108 6.46435 15.0372 6.53413C14.9664 6.60392 14.8825 6.65894 14.7903 6.696C14.6981 6.73306 14.5994 6.75142 14.5 6.75001H9.5C9.40062 6.75142 9.30194 6.73306 9.20972 6.696C9.11749 6.65894 9.03355 6.60392 8.96277 6.53413C8.892 6.46435 8.83579 6.3812 8.79743 6.2895C8.75907 6.19781 8.73932 6.09941 8.73932 6.00001C8.73932 5.90062 8.75907 5.80222 8.79743 5.71052C8.83579 5.61883 8.892 5.53568 8.96277 5.46589C9.03355 5.39611 9.11749 5.34109 9.20972 5.30403ZM6.46967 5.46968C6.61032 5.32903 6.80109 5.25001 7 5.25001C7.19891 5.25001 7.38968 5.32903 7.53033 5.46968C7.67098 5.61034 7.75 5.8011 7.75 6.00001C7.75 6.19893 7.67098 6.38969 7.53033 6.53034C7.38968 6.671 7.19891 6.75001 7 6.75001C6.80109 6.75001 6.61032 6.671 6.46967 6.53034C6.32902 6.38969 6.25 6.19893 6.25 6.00001C6.25 5.8011 6.32902 5.61034 6.46967 5.46968ZM7 8.25001C6.80109 8.25001 6.61032 8.32903 6.46967 8.46968C6.32902 8.61034 6.25 8.8011 6.25 9.00001C6.25 9.19893 6.32902 9.38969 6.46967 9.53034C6.61032 9.671 6.80109 9.75001 7 9.75001C7.19891 9.75001 7.38968 9.671 7.53033 9.53034C7.67098 9.38969 7.75 9.19893 7.75 9.00001C7.75 8.8011 7.67098 8.61034 7.53033 8.46968C7.38968 8.32903 7.19891 8.25001 7 8.25001ZM9.20972 8.30403C9.30194 8.26697 9.40062 8.24861 9.5 8.25001H14.5C14.5994 8.24861 14.6981 8.26697 14.7903 8.30403C14.8825 8.34109 14.9664 8.39611 15.0372 8.46589C15.108 8.53568 15.1642 8.61883 15.2026 8.71052C15.2409 8.80222 15.2607 8.90062 15.2607 9.00001C15.2607 9.09941 15.2409 9.19781 15.2026 9.2895C15.1642 9.3812 15.108 9.46435 15.0372 9.53413C14.9664 9.60392 14.8825 9.65894 14.7903 9.696C14.6981 9.73306 14.5994 9.75142 14.5 9.75001H9.5C9.40062 9.75142 9.30194 9.73306 9.20972 9.696C9.11749 9.65894 9.03355 9.60392 8.96277 9.53413C8.892 9.46435 8.83579 9.3812 8.79743 9.2895C8.75907 9.19781 8.73932 9.09941 8.73932 9.00001C8.73932 8.90062 8.75907 8.80222 8.79743 8.71052C8.83579 8.61883 8.892 8.53568 8.96277 8.46589C9.03355 8.39611 9.11749 8.34109 9.20972 8.30403ZM7 11.25C6.80109 11.25 6.61032 11.329 6.46967 11.4697C6.32902 11.6103 6.25 11.8011 6.25 12C6.25 12.1989 6.32902 12.3897 6.46967 12.5303C6.61032 12.671 6.80109 12.75 7 12.75C7.19891 12.75 7.38968 12.671 7.53033 12.5303C7.67098 12.3897 7.75 12.1989 7.75 12C7.75 11.8011 7.67098 11.6103 7.53033 11.4697C7.38968 11.329 7.19891 11.25 7 11.25Z" fill="black"/>
<path d="M17.25 17.75C16.6985 17.75 16.25 18.1985 16.25 18.75V19.5557L17.0918 19.2754C17.1943 19.2414 17.3057 19.2414 17.4082 19.2754L18.25 19.5557V18.75C18.25 18.1985 17.8015 17.75 17.25 17.75Z" fill="black"/>
<path d="M16.25 14.75V15.75H18.25V14.75H16.25Z" fill="black"/>
<path fill-rule="evenodd" clip-rule="evenodd" d="M17.25 11.75C14.2125 11.75 11.75 14.2125 11.75 17.25C11.75 20.2875 14.2125 22.75 17.25 22.75C20.2875 22.75 22.75 20.2875 22.75 17.25C22.75 14.2125 20.2875 11.75 17.25 11.75ZM19.25 13.75C19.5265 13.75 19.75 13.974 19.75 14.25C19.75 14.526 19.5265 14.75 19.25 14.75V15.75C19.25 16.35 18.9786 16.883 18.5586 17.25C18.9786 17.617 19.25 18.15 19.25 18.75V19.75C19.5265 19.75 19.75 19.974 19.75 20.25C19.75 20.526 19.5265 20.75 19.25 20.75H15.25C14.9735 20.75 14.75 20.526 14.75 20.25C14.75 19.974 14.9735 19.75 15.25 19.75V18.75C15.25 18.15 15.5214 17.617 15.9414 17.25C15.5214 16.883 15.25 16.35 15.25 15.75V14.75C14.9735 14.75 14.75 14.526 14.75 14.25C14.75 13.974 14.9735 13.75 15.25 13.75H19.25Z" fill="black"/>
<path d="M1.25 16.75H10.2676C10.2559 16.9152 10.25 17.0819 10.25 17.25C10.25 17.7649 10.3056 18.2668 10.4111 18.75H3C2.035 18.75 1.25 17.965 1.25 17V16.75Z" fill="black"/>
</svg>
