<svg width="24" height="24" viewBox="0 0 24 24" fill="none" xmlns="http://www.w3.org/2000/svg">
<path fill-rule="evenodd" clip-rule="evenodd" d="M18.3906 5.40876C18.6588 5.54801 18.8076 5.82664 18.7945 6.10996C18.7948 6.11925 18.7949 6.12856 18.7949 6.1379V7.70674C18.7949 7.74297 18.7752 7.77615 18.7443 7.79506C18.716 7.81237 18.6882 7.83069 18.6609 7.85C18.586 7.90297 18.5168 7.96217 18.4539 8.02662C18.4102 8.07138 18.3366 8.07139 18.2929 8.02664C18.23 7.96228 18.1609 7.90317 18.0861 7.85027C17.6885 7.56895 17.1791 7.49828 16.72 7.66073C15.7915 7.98925 14.9877 8.59764 14.419 9.40213C13.8504 10.2066 13.545 11.1677 13.5449 12.153C13.5448 13.1383 13.85 14.0994 14.4186 14.904C14.7601 15.3872 15.1865 15.7997 15.6738 16.1232C15.7021 16.142 15.7193 16.1735 15.7193 16.2075L15.719 19.846C15.7189 20.1363 15.7664 20.4217 15.8571 20.6918C15.8797 20.7589 15.8311 20.8304 15.7604 20.8304H7.04492C5.52614 20.8304 4.29492 19.5986 4.29492 18.079V8.82604C4.29492 8.75364 4.22044 8.70521 4.15431 8.73461L3.34971 9.09239C2.9712 9.26071 2.52798 9.09015 2.35975 8.71144C2.19152 8.33274 2.36199 7.88929 2.7405 7.72097L13.1892 3.07474C13.4301 2.96763 13.7065 2.97602 13.9405 3.09751L18.3906 5.40876ZM8.04492 11.0764C8.04492 10.5238 8.49263 10.0759 9.04492 10.0759H11.0449C11.5972 10.0759 12.0449 10.5238 12.0449 11.0764V13.0774C12.0449 13.63 11.5972 14.0779 11.0449 14.0779H9.04492C8.49263 14.0779 8.04492 13.63 8.04492 13.0774V11.0764Z" fill="black"/>
<path d="M18.4438 12.8514C18.4048 12.8904 18.3414 12.8904 18.3024 12.8514L17.2491 11.7976C17.2304 11.7788 17.2198 11.7533 17.2198 11.7268L17.2201 9.21714C17.2201 9.14808 17.1518 9.09985 17.0878 9.12568C16.5077 9.35969 16.0061 9.75606 15.6438 10.2686C15.2542 10.8198 15.045 11.4782 15.0449 12.1531C15.0448 12.8281 15.2539 13.4865 15.6434 14.0375C16.0192 14.5693 16.5451 14.976 17.153 15.2059C17.1927 15.2209 17.2195 15.2586 17.2194 15.301L17.219 19.8461C17.2189 20.1522 17.3404 20.4457 17.5567 20.6621C17.773 20.8785 18.0663 21 18.3722 21C18.6781 21 18.9715 20.8784 19.1878 20.6619C19.4042 20.4455 19.5257 20.1519 19.5258 19.8459L19.5262 15.3007C19.5262 15.2583 19.553 15.2206 19.5926 15.2056C20.2006 14.9756 20.7267 14.5688 21.1026 14.0369C21.4921 13.4858 21.7014 12.8274 21.7014 12.1524C21.7015 11.4775 21.4924 10.8191 21.103 10.268C20.7408 9.75554 20.2392 9.35927 19.6592 9.12539C19.5952 9.09958 19.5269 9.14779 19.5269 9.21683L19.5266 11.7266C19.5266 11.7531 19.5161 11.7785 19.4973 11.7973L18.4438 12.8514Z" fill="black"/>
</svg>
