<svg width="24" height="24" viewBox="0 0 24 24" fill="none" xmlns="http://www.w3.org/2000/svg">
<path d="M6.25 2C5.0095 2 4 3.0095 4 4.25V11.0254C3.43494 11.1438 3 11.6538 3 12.25V17.75C3 18.3462 3.43494 18.8562 4 18.9746V19.75C4 20.9905 5.0095 22 6.25 22H17.75C18.9905 22 20 20.9905 20 19.75V18.9746C20.5651 18.8562 21 18.3462 21 17.75V12.25C21 11.6538 20.5651 11.1438 20 11.0254V10H14.25C13.0095 10 12 8.9905 12 7.75V2H6.25ZM13.5 2.43945V7.75C13.5 8.1635 13.8365 8.5 14.25 8.5H19.5605L13.5 2.43945ZM4.5 12.5H19.5V17.5H4.5V12.5ZM6 13C5.724 13 5.5 13.224 5.5 13.5V16.5C5.5 16.776 5.724 17 6 17C6.276 17 6.5 16.776 6.5 16.5V15.5H7.5V16.5C7.5 16.776 7.724 17 8 17C8.276 17 8.5 16.776 8.5 16.5V13.5C8.5 13.224 8.276 13 8 13C7.724 13 7.5 13.224 7.5 13.5V14.5H6.5V13.5C6.5 13.224 6.276 13 6 13ZM9.5 13C9.224 13 9 13.224 9 13.5C9 13.776 9.224 14 9.5 14H10V16.5C10 16.776 10.224 17 10.5 17C10.776 17 11 16.776 11 16.5V14H11.5C11.776 14 12 13.776 12 13.5C12 13.224 11.776 13 11.5 13H9.5ZM17.25 13C16.974 13 16.75 13.224 16.75 13.5V16.5C16.75 16.776 16.974 17 17.25 17H18.5C18.776 17 19 16.776 19 16.5C19 16.224 18.776 16 18.5 16H17.75V13.5C17.75 13.224 17.526 13 17.25 13ZM12.9814 13.001C12.9308 13.0029 12.8796 13.0124 12.8301 13.0303C12.6321 13.1018 12.5 13.2895 12.5 13.5V16.5C12.5 16.776 12.724 17 13 17C13.276 17 13.5 16.776 13.5 16.5V14.8809L13.8662 15.3203C14.0562 15.5483 14.4438 15.5483 14.6338 15.3203L15 14.8809V16.5C15 16.776 15.224 17 15.5 17C15.776 17 16 16.776 16 16.5V13.5C16 13.2895 15.8679 13.1018 15.6699 13.0303C15.4729 12.9588 15.2512 13.0177 15.1162 13.1797L14.25 14.2188L13.3838 13.1797C13.2825 13.0586 13.1335 12.9953 12.9814 13.001Z" fill="black"/>
</svg>
