<svg width="24" height="24" viewBox="0 0 24 24" fill="none" xmlns="http://www.w3.org/2000/svg">
<path d="M8.2075 15.953L8.44 17H15.56L15.7925 15.953C15.95 15.2445 16.2865 14.577 16.813 14.0775C18.1975 12.765 19 10.932 19 8.99999C19 5.14099 15.8585 2.01249 12 2.01099C8.1415 2.01249 5 5.14099 5 8.99999C5 10.932 5.8025 12.765 7.1865 14.0775C7.7135 14.577 8.05 15.2445 8.2075 15.953ZM8.7735 18.5L9.2465 20.6295C9.4245 21.4305 10.135 22 10.955 22H13.045C13.865 22 14.5755 21.4305 14.7535 20.6295L15.2265 18.5H8.7735Z" fill="black"/>
</svg>
