<svg width="24" height="24" viewBox="0 0 24 24" fill="none" xmlns="http://www.w3.org/2000/svg">
<path d="M5.75 3C4.24011 3 3 4.24011 3 5.75V18.25C3 19.7599 4.24011 21 5.75 21H18.25C19.7599 21 21 19.7599 21 18.25V5.75C21 4.24011 19.7599 3 18.25 3H5.75ZM5.75 4.5H18.25C18.9491 4.5 19.5 5.05089 19.5 5.75V18.25C19.5 18.3163 19.49 18.3801 19.4805 18.4434L13.4072 12.5674C13.0179 12.1907 12.5087 12.0029 12 12.0029C11.4913 12.0029 10.983 12.1907 10.5938 12.5674L4.51953 18.4434C4.50996 18.3801 4.5 18.3163 4.5 18.25V5.75C4.5 5.05089 5.05089 4.5 5.75 4.5ZM15.25 6.5C14.5625 6.5 13.9519 6.78482 13.5645 7.2207C13.177 7.65659 13 8.20833 13 8.75C13 9.29167 13.177 9.84341 13.5645 10.2793C13.9519 10.7152 14.5625 11 15.25 11C15.9375 11 16.5481 10.7152 16.9355 10.2793C17.323 9.84341 17.5 9.29167 17.5 8.75C17.5 8.20833 17.323 7.65659 16.9355 7.2207C16.5481 6.78482 15.9375 6.5 15.25 6.5ZM15.25 8C15.5625 8 15.7019 8.09018 15.8145 8.2168C15.927 8.34341 16 8.54167 16 8.75C16 8.95833 15.927 9.15659 15.8145 9.2832C15.7019 9.40982 15.5625 9.5 15.25 9.5C14.9375 9.5 14.7981 9.40982 14.6855 9.2832C14.573 9.15659 14.5 8.95833 14.5 8.75C14.5 8.54167 14.573 8.34341 14.6855 8.2168C14.7981 8.09018 14.9375 8 15.25 8ZM12.001 13.4941C12.1308 13.4941 12.2601 13.5447 12.3643 13.6455L18.4004 19.4854C18.3506 19.4912 18.3016 19.5 18.25 19.5H5.75C5.69845 19.5 5.64939 19.4912 5.59961 19.4854L11.6367 13.6455C11.7409 13.5447 11.8712 13.4941 12.001 13.4941Z" fill="black"/>
</svg>
