<svg width="24" height="24" viewBox="0 0 24 24" fill="none" xmlns="http://www.w3.org/2000/svg">
<path d="M6.25 2C5.0095 2 4 3.0095 4 4.25V19.75C4 20.9905 5.0095 22 6.25 22H12.8096C12.3831 21.556 12.0194 21.051 11.7324 20.5H6.25C5.8365 20.5 5.5 20.1635 5.5 19.75V18.4795L7.92773 16.1523C8.14123 15.9478 8.47548 15.9478 8.68848 16.1523L11.0664 18.4316C11.0234 18.1276 11 17.8165 11 17.5C11 17.119 11.0327 16.7448 11.0957 16.3818L9.72656 15.0693C8.93156 14.3078 7.68565 14.3078 6.88965 15.0693L5.5 16.4023V4.25C5.5 3.8365 5.8365 3.5 6.25 3.5H12V7.75C12 8.9905 13.0095 10 14.25 10H18.5V11.0762C19.023 11.1572 19.526 11.3 20 11.498V9.25C20 9.04275 19.916 8.85541 19.7803 8.71973L13.2803 2.21973C13.1445 2.08404 12.957 2 12.75 2H6.25ZM13.5 4.56055L17.4395 8.5H14.25C13.8365 8.5 13.5 8.1635 13.5 7.75V4.56055ZM11.75 11C11.0595 11 10.5 11.5595 10.5 12.25C10.5 12.9405 11.0595 13.5 11.75 13.5C12.4405 13.5 13 12.9405 13 12.25C13 11.5595 12.4405 11 11.75 11ZM17.5 12C14.4625 12 12 14.4625 12 17.5C12 20.5375 14.4625 23 17.5 23C20.5375 23 23 20.5375 23 17.5C23 14.4625 20.5375 12 17.5 12ZM17.5 13.5C17.776 13.5 18 13.724 18 14V17H21C21.276 17 21.5 17.224 21.5 17.5C21.5 17.776 21.276 18 21 18H18V21C18 21.276 17.776 21.5 17.5 21.5C17.224 21.5 17 21.276 17 21V18H14C13.724 18 13.5 17.776 13.5 17.5C13.5 17.224 13.724 17 14 17H17V14C17 13.724 17.224 13.5 17.5 13.5Z" fill="black"/>
</svg>
