<svg width="24" height="24" viewBox="0 0 24 24" fill="none" xmlns="http://www.w3.org/2000/svg">
<path d="M15 7.25C14.5858 7.25 14.25 7.58579 14.25 8C14.25 8.41421 14.5858 8.75 15 8.75H15.01C15.4242 8.75 15.76 8.41421 15.76 8C15.76 7.58579 15.4242 7.25 15.01 7.25H15Z" fill="black"/>
<path fill-rule="evenodd" clip-rule="evenodd" d="M21.75 6C21.75 5.00544 21.3549 4.05161 20.6517 3.34835C19.9484 2.64509 18.9946 2.25 18 2.25H6C5.00544 2.25 4.05161 2.64509 3.34835 3.34835C2.64509 4.05161 2.25 5.00544 2.25 6V18C2.25 18.9946 2.64509 19.9484 3.34835 20.6517C4.05161 21.3549 5.00544 21.75 6 21.75H18C18.9946 21.75 19.9484 21.3549 20.6517 20.6517C21.3549 19.9484 21.75 18.9946 21.75 18V6ZM4.40901 4.40901C4.83097 3.98705 5.40326 3.75 6 3.75H18C18.5967 3.75 19.169 3.98705 19.591 4.40901C20.0129 4.83097 20.25 5.40326 20.25 6V14.1893L18.5303 12.4696L18.52 12.4595C17.9434 11.9047 17.2466 11.5802 16.5 11.5802C15.7534 11.5802 15.0566 11.9047 14.48 12.4595L14.4697 12.4696L14 12.9393L11.5303 10.4696L11.52 10.4595C10.9434 9.90466 10.2466 9.5802 9.5 9.5802C8.75344 9.5802 8.05657 9.90466 7.47996 10.4595L7.46967 10.4696L3.75 14.1893V6C3.75 5.40326 3.98705 4.83097 4.40901 4.40901ZM12.9393 13.9999L10.4751 11.5357C10.1254 11.2011 9.78811 11.0802 9.5 11.0802C9.21189 11.0802 8.87455 11.2011 8.52489 11.5357L3.75 16.3106V18C3.75 18.5967 3.98705 19.169 4.40901 19.591C4.83097 20.0129 5.40326 20.25 6 20.25H6.79269C6.82879 20.1476 6.88778 20.0515 6.96967 19.9696L12.9393 13.9999ZM8.81061 20.25H18C18.5967 20.25 19.169 20.0129 19.591 19.591C20.0129 19.169 20.25 18.5967 20.25 18V16.3106L17.4751 13.5357C17.1255 13.2011 16.7881 13.0802 16.5 13.0802C16.2119 13.0802 15.8745 13.2011 15.5249 13.5357L8.81061 20.25Z" fill="black"/>
</svg>
