<svg width="24" height="24" viewBox="0 0 24 24" fill="none" xmlns="http://www.w3.org/2000/svg">
<path d="M5.75 3C4.231 3 3 4.231 3 5.75V14.7012L6.75293 11.0713C7.51443 10.3343 8.80641 10.3353 9.56641 11.0713L12.6553 14.0596L13.6797 13.0693C14.4387 12.3353 15.7352 12.3353 16.4932 13.0693L21 17.4287V5.75C21 4.231 19.769 3 18.25 3H5.75ZM15.25 6.5C16.4905 6.5 17.5 7.5095 17.5 8.75C17.5 9.9905 16.4905 11 15.25 11C14.0095 11 13 9.9905 13 8.75C13 7.5095 14.0095 6.5 15.25 6.5ZM15.25 8C15.0511 8 14.8603 8.07902 14.7197 8.21967C14.579 8.36032 14.5 8.55109 14.5 8.75C14.5 8.94891 14.579 9.13968 14.7197 9.28033C14.8603 9.42098 15.0511 9.5 15.25 9.5C15.4489 9.5 15.6397 9.42098 15.7803 9.28033C15.921 9.13968 16 8.94891 16 8.75C16 8.55109 15.921 8.36032 15.7803 8.21967C15.6397 8.07902 15.4489 8 15.25 8ZM8.15918 12.0049C8.02693 12.0049 7.89515 12.0532 7.7959 12.1494L3 16.7881V18.25C3 19.6825 4.09612 20.8588 5.49512 20.9873L11.5771 15.1035L8.52344 12.1494C8.42419 12.0532 8.29143 12.0049 8.15918 12.0049ZM15.0869 14.0049C14.9541 14.0049 14.8216 14.0525 14.7236 14.1475L7.63867 21H18.25C19.393 21 20.3721 20.3021 20.7871 19.3096L15.4512 14.1475C15.3529 14.0525 15.2197 14.0049 15.0869 14.0049Z" fill="black"/>
</svg>
