<svg width="24" height="24" viewBox="0 0 24 24" fill="none" xmlns="http://www.w3.org/2000/svg">
<path d="M6.25098 2C5.01723 2 4.00098 3.01625 4.00098 4.25V11.0254C3.43109 11.1414 3.00098 11.646 3.00098 12.25V17.75C3.00098 18.354 3.43109 18.8586 4.00098 18.9746V19.75C4.00098 20.9905 5.01048 22 6.25098 22H17.751C18.0155 22 18.2655 21.9463 18.501 21.8623V20H18.4541C18.3506 20.2905 18.0765 20.5 17.751 20.5H6.25098C5.83748 20.5 5.50098 20.1635 5.50098 19.75V19H16.5283C16.5233 18.9955 16.5182 18.9923 16.5137 18.9873C16.1827 18.6568 16.001 18.2175 16.001 17.75C16.001 17.665 16.0134 17.5825 16.0254 17.5H4.50098V12.5H19.501V13.6748C19.733 13.5638 19.986 13.5 20.251 13.5C20.516 13.5 20.769 13.5643 21.001 13.6748V12.25C21.001 11.6467 20.5699 11.1421 20.001 11.0254V9.25C20.0009 9.0511 19.9219 8.86036 19.7812 8.71973L19.7734 8.71191L13.2812 2.21973C13.1406 2.07907 12.9499 2.00004 12.751 2H6.25098ZM6.25098 3.5H12.001V7.75C12.001 8.98375 13.0172 10 14.251 10H18.501V11H5.50098V4.25C5.50098 3.82675 5.82773 3.5 6.25098 3.5ZM13.501 4.56152L17.4395 8.5H14.251C13.8277 8.5 13.501 8.17325 13.501 7.75V4.56152ZM8 13C7.724 13 7.5 13.224 7.5 13.5V16.5C7.5 16.776 7.724 17 8 17C8.276 17 8.5 16.776 8.5 16.5V16H9C9.827 16 10.5 15.327 10.5 14.5C10.5 13.673 9.827 13 9 13H8ZM11.5 13C11.224 13 11 13.224 11 13.5V16.5C11 16.776 11.224 17 11.5 17H12C13.103 17 14 16.103 14 15C14 13.897 13.103 13 12 13H11.5ZM15 13C14.724 13 14.5 13.224 14.5 13.5V16.5C14.5 16.776 14.724 17 15 17C15.276 17 15.5 16.776 15.5 16.5V15.5H16.25C16.526 15.5 16.75 15.276 16.75 15C16.75 14.724 16.526 14.5 16.25 14.5H15.5V14H16.5C16.776 14 17 13.776 17 13.5C17 13.224 16.776 13 16.5 13H15ZM8.5 14H9C9.2755 14 9.5 14.2245 9.5 14.5C9.5 14.7755 9.2755 15 9 15H8.5V14ZM12 14C12.5515 14 13 14.4485 13 15C13 15.5515 12.5515 16 12 16V14ZM20.251 14.5C20.059 14.5 19.8662 14.5732 19.7197 14.7197L17.2197 17.2197C16.9272 17.5127 16.9272 17.9873 17.2197 18.2803C17.5127 18.5733 17.9873 18.5733 18.2803 18.2803L19.501 17.0605V22.25C19.501 22.6645 19.8365 23 20.251 23C20.6655 23 21.001 22.6645 21.001 22.25V17.0605L22.2197 18.2803C22.5127 18.5733 22.9873 18.5733 23.2803 18.2803C23.5733 17.9878 23.5733 17.5122 23.2803 17.2197L20.7803 14.7197C20.6343 14.5732 20.443 14.5 20.251 14.5Z" fill="black"/>
</svg>
