<svg width="24" height="24" viewBox="0 0 24 24" fill="none" xmlns="http://www.w3.org/2000/svg">
<path d="M12 10.75C11.5858 10.75 11.25 11.0858 11.25 11.5C11.25 11.9142 11.5858 12.25 12 12.25H15C15.4142 12.25 15.75 11.9142 15.75 11.5C15.75 11.0858 15.4142 10.75 15 10.75H12Z" fill="black"/>
<path fill-rule="evenodd" clip-rule="evenodd" d="M9 2.75C7.48122 2.75 6.25 3.98122 6.25 5.5V6.37858C5.63925 6.88298 5.25 7.64603 5.25 8.5V9.75H5C4.27065 9.75 3.57118 10.0397 3.05546 10.5555C2.53973 11.0712 2.25 11.7707 2.25 12.5V18.5C2.25 19.2293 2.53973 19.9288 3.05546 20.4445C3.57118 20.9603 4.27065 21.25 5 21.25H19C19.7293 21.25 20.4288 20.9603 20.9445 20.4445C21.4603 19.9288 21.75 19.2293 21.75 18.5V12.5C21.75 11.7707 21.4603 11.0712 20.9445 10.5555C20.4288 10.0397 19.7293 9.75 19 9.75H18.75V7.5C18.75 6.8019 18.3412 6.19927 17.75 5.91841V4.5C17.75 3.5335 16.9665 2.75 16 2.75H9ZM8 5.75C7.91573 5.75 7.83234 5.75379 7.75 5.76121V5.5C7.75 4.80964 8.30964 4.25 9 4.25H16C16.1381 4.25 16.25 4.36193 16.25 4.5V5.75H8ZM5 11.25H5.25V12.75H3.75V12.5C3.75 12.1685 3.8817 11.8505 4.11612 11.6161C4.35054 11.3817 4.66848 11.25 5 11.25ZM6.75 10.75V12.75H7C7.19891 12.75 7.38968 12.829 7.53033 12.9697L10.3107 15.75H13.6893L16.4697 12.9697C16.6103 12.829 16.8011 12.75 17 12.75H17.25V7.5C17.25 7.36193 17.1381 7.25 17 7.25H10.25V9C10.25 9.9665 9.4665 10.75 8.5 10.75H6.75ZM18.75 11.25V12.75H20.25V12.5C20.25 12.1685 20.1183 11.8505 19.8839 11.6161C19.6495 11.3817 19.3315 11.25 19 11.25H18.75ZM17.3107 14.25H20.25V18.5C20.25 18.8315 20.1183 19.1495 19.8839 19.3839C19.6495 19.6183 19.3315 19.75 19 19.75H5C4.66848 19.75 4.35054 19.6183 4.11612 19.3839C3.8817 19.1495 3.75 18.8315 3.75 18.5V14.25H6.68934L9.46967 17.0303C9.61032 17.171 9.80109 17.25 10 17.25H14C14.1989 17.25 14.3897 17.171 14.5303 17.0303L17.3107 14.25ZM6.75 9.25H8.5C8.63807 9.25 8.75 9.13807 8.75 9V7.25H8C7.30964 7.25 6.75 7.80964 6.75 8.5V9.25Z" fill="black"/>
</svg>
