<svg width="24" height="24" viewBox="0 0 24 24" fill="none" xmlns="http://www.w3.org/2000/svg">
<path fill-rule="evenodd" clip-rule="evenodd" d="M17.6575 11.094L18.331 11.6325C18.5665 11.821 18.655 12.139 18.5505 12.4225C18.274 13.1695 17.878 13.856 17.372 14.4645C17.179 14.6965 16.859 14.7785 16.579 14.669L15.775 14.355C15.377 14.199 14.9365 14.2335 14.566 14.4465C14.1955 14.6605 13.9465 15.025 13.8825 15.4475H13.882L13.751 16.3085C13.706 16.605 13.477 16.84 13.1815 16.892C12.7725 16.965 12.386 17 12 17C11.614 17 11.2275 16.965 10.818 16.8905C10.523 16.8385 10.2935 16.6035 10.2485 16.307L10.1175 15.446C10.053 15.0235 9.80402 14.659 9.43352 14.445C9.06402 14.232 8.62302 14.1975 8.22452 14.3535L7.42052 14.6675C7.14052 14.7775 6.82002 14.695 6.62752 14.463C6.12152 13.8545 5.72502 13.168 5.44902 12.421C5.34452 12.138 5.43302 11.82 5.66852 11.6315L6.34202 11.093C6.67552 10.8265 6.86702 10.4285 6.86702 10.0005C6.86702 9.57301 6.67552 9.17451 6.34202 8.90801L5.66852 8.36951C5.43302 8.18101 5.34452 7.86301 5.44902 7.58001C5.72552 6.83301 6.12152 6.14651 6.62752 5.53801C6.82052 5.30601 7.14052 5.22451 7.42052 5.33351L8.22452 5.64751C8.62352 5.80401 9.06402 5.76951 9.43352 5.55601C9.80402 5.34201 10.053 4.97751 10.117 4.55501L10.2485 3.69501C10.2935 3.39851 10.5225 3.16351 10.818 3.11151C11.612 2.97001 12.267 2.95751 13.1775 3.11401C13.4745 3.16501 13.706 3.40001 13.751 3.69801L13.882 4.55551C13.9465 4.97851 14.1955 5.34301 14.566 5.55701C14.9365 5.77051 15.377 5.80501 15.775 5.64851L16.5765 5.33551C16.857 5.22651 17.177 5.30751 17.3695 5.53951C17.8765 6.14951 18.2735 6.83601 18.5495 7.58051C18.6545 7.86351 18.5665 8.18201 18.331 8.37001L17.658 8.90851C17.324 9.17551 17.1325 9.57351 17.1325 10.0015C17.1325 10.429 17.324 10.8275 17.6575 11.094ZM9.50002 10C9.50002 11.3805 10.6195 12.5 12 12.5C13.3805 12.5 14.5 11.3805 14.5 10C14.5 8.61951 13.3805 7.50001 12 7.50001C10.6195 7.50001 9.50002 8.61951 9.50002 10ZM4.5 16.75C4.5 16.3358 4.16421 16 3.75 16C3.33579 16 3 16.3358 3 16.75V18.25C3 19.7687 4.23129 21 5.75 21H18.25C19.7687 21 21 19.7687 21 18.25V16.75C21 16.3358 20.6642 16 20.25 16C19.8358 16 19.5 16.3358 19.5 16.75V18.25C19.5 18.9403 18.9403 19.5 18.25 19.5H5.75C5.05971 19.5 4.5 18.9403 4.5 18.25V16.75Z" fill="black"/>
</svg>
