<svg width="24" height="24" viewBox="0 0 24 24" fill="none" xmlns="http://www.w3.org/2000/svg">
<path d="M12.0001 3C11.4039 3 10.8323 3.08177 10.2911 3.21777C10.1491 3.25342 10.0207 3.32983 9.92157 3.43759C9.82249 3.54535 9.7571 3.67975 9.73347 3.82422L9.61824 4.52734C9.57599 4.78545 9.42106 5.00981 9.19441 5.14062C8.9674 5.27165 8.69652 5.29362 8.45223 5.20117C8.4519 5.20117 8.45157 5.20117 8.45125 5.20117L7.7823 4.94824C7.64554 4.89674 7.49672 4.88631 7.35411 4.91823C7.2115 4.95015 7.08132 5.02304 6.97957 5.12793C6.18428 5.9473 5.59079 6.9603 5.27058 8.08887C5.23063 8.22948 5.23264 8.37871 5.27636 8.5182C5.32008 8.65769 5.40361 8.78137 5.51668 8.87402L6.06941 9.32617C6.27216 9.49225 6.38875 9.73828 6.38875 10C6.38875 10.2617 6.27231 10.5087 6.07039 10.6738L5.51668 11.126C5.40361 11.2186 5.32008 11.3423 5.27636 11.4818C5.23264 11.6213 5.23063 11.7705 5.27058 11.9111C5.59086 13.0399 6.18503 14.0529 6.97957 14.8721C7.0814 14.9772 7.21175 15.0502 7.35456 15.0821C7.49736 15.114 7.64639 15.1035 7.78328 15.0518L8.45125 14.7988C8.69538 14.7064 8.96747 14.7278 9.19344 14.8584C9.4199 14.9893 9.57607 15.215 9.61824 15.4727L9.7325 16.1748C9.75612 16.3193 9.82151 16.4537 9.92059 16.5614C10.0197 16.6692 10.1481 16.7456 10.2901 16.7812C10.8321 16.9179 11.4039 17 12.0001 17C12.5963 17 13.1678 16.9182 13.7091 16.7822C13.851 16.7466 13.9795 16.6702 14.0786 16.5624C14.1777 16.4547 14.2431 16.3203 14.2667 16.1758L14.3819 15.4727C14.4242 15.2145 14.5791 14.9902 14.8057 14.8594C15.0328 14.7283 15.3036 14.7064 15.5479 14.7988L16.2169 15.0518C16.3537 15.1036 16.5026 15.1143 16.6454 15.0825C16.7882 15.0508 16.9186 14.978 17.0206 14.873C17.8159 14.0537 18.4094 13.0407 18.7296 11.9121C18.7694 11.7714 18.7672 11.6221 18.7234 11.4826C18.6795 11.3431 18.5957 11.2195 18.4825 11.127L17.9298 10.6738C17.727 10.5077 17.6104 10.2627 17.6104 10.001C17.6104 9.73926 17.7278 9.49228 17.9298 9.32715L18.4835 8.87402C18.5965 8.78137 18.6801 8.65769 18.7238 8.5182C18.7675 8.37871 18.7695 8.22948 18.7296 8.08887C18.4088 6.9584 17.8108 5.94682 17.0186 5.12891C16.9168 5.02382 16.7864 4.95082 16.6436 4.91889C16.5008 4.88697 16.3518 4.89751 16.2149 4.94922L15.5489 5.20117C15.3048 5.29356 15.0327 5.27218 14.8067 5.1416C14.8064 5.14128 14.8061 5.14095 14.8057 5.14062C14.5793 5.00995 14.4244 4.78608 14.3819 4.52832V4.52734L14.2667 3.81836C14.2431 3.67401 14.1779 3.5397 14.079 3.43195C13.9801 3.32421 13.8518 3.24772 13.71 3.21191C13.1624 3.0736 12.5893 3 12.0001 3ZM12.0001 4.5C12.3023 4.5 12.5867 4.56118 12.8751 4.6084L12.9014 4.76953C12.9014 4.76986 12.9014 4.77018 12.9014 4.77051C13.0162 5.4714 13.4404 6.08525 14.0557 6.44043V6.43945C14.6708 6.79487 15.4143 6.85611 16.0792 6.60449L16.2266 6.54883C16.5972 7.00248 16.891 7.50963 17.1026 8.06543L16.9796 8.16602C16.4295 8.61588 16.1104 9.2907 16.1104 10.001C16.1104 10.7113 16.4303 11.385 16.9796 11.835L17.1026 11.9355C16.8913 12.4923 16.5976 13 16.2276 13.4531L16.0792 13.3965C15.4145 13.1449 14.6707 13.2056 14.0557 13.5605C13.4404 13.9157 13.0162 14.5296 12.9014 15.2305L12.8761 15.3877C12.5862 15.4368 12.2991 15.5 12.0001 15.5C11.701 15.5 11.4139 15.4369 11.1241 15.3877L11.0987 15.2295C10.9839 14.5281 10.5589 13.9157 9.94441 13.5605C9.32937 13.2051 8.58585 13.1439 7.92098 13.3955L7.77156 13.4521C7.40165 12.9989 7.10887 12.4913 6.89754 11.9346L7.01961 11.834C7.56931 11.3841 7.88875 10.71 7.88875 10C7.88875 9.28972 7.56984 8.61594 7.02058 8.16602C7.02026 8.16602 7.01993 8.16602 7.01961 8.16602L6.89754 8.06543C7.10881 7.50869 7.40163 7.00098 7.77156 6.54785L7.92098 6.60352C8.58568 6.85506 9.32942 6.79442 9.94441 6.43945C10.5598 6.08427 10.984 5.47042 11.0987 4.76953L11.1241 4.6123C11.4139 4.56323 11.701 4.5 12.0001 4.5ZM12.0001 7C11.0626 7 10.2645 7.37857 9.75203 7.95508C9.23957 8.53159 9.00008 9.27083 9.00008 10C9.00008 10.7292 9.23957 11.4684 9.75203 12.0449C10.2645 12.6214 11.0626 13 12.0001 13C12.9376 13 13.7357 12.6214 14.2481 12.0449C14.7606 11.4684 15.0001 10.7292 15.0001 10C15.0001 9.27083 14.7606 8.53159 14.2481 7.95508C13.7357 7.37857 12.9376 7 12.0001 7ZM12.0001 8.5C12.5626 8.5 12.8895 8.68393 13.127 8.95117C13.3646 9.21841 13.5001 9.60417 13.5001 10C13.5001 10.3958 13.3646 10.7816 13.127 11.0488C12.8895 11.3161 12.5626 11.5 12.0001 11.5C11.4376 11.5 11.1107 11.3161 10.8731 11.0488C10.6356 10.7816 10.5001 10.3958 10.5001 10C10.5001 9.60417 10.6356 9.21841 10.8731 8.95117C11.1107 8.68393 11.4376 8.5 12.0001 8.5ZM3.73836 15.9893C3.53962 15.9924 3.35023 16.0742 3.21181 16.2169C3.07338 16.3595 2.99723 16.5513 3.00008 16.75V18.25C3.00008 19.7599 4.24019 21 5.75008 21H18.2501C19.76 21 21.0001 19.7599 21.0001 18.25V16.75C21.0015 16.6506 20.9831 16.5519 20.9461 16.4597C20.909 16.3675 20.854 16.2836 20.7842 16.2128C20.7144 16.142 20.6313 16.0858 20.5396 16.0474C20.4479 16.0091 20.3495 15.9893 20.2501 15.9893C20.1507 15.9893 20.0523 16.0091 19.9606 16.0474C19.8689 16.0858 19.7857 16.142 19.716 16.2128C19.6462 16.2836 19.5912 16.3675 19.5541 16.4597C19.517 16.5519 19.4987 16.6506 19.5001 16.75V18.25C19.5001 18.9491 18.9492 19.5 18.2501 19.5H5.75008C5.05096 19.5 4.50008 18.9491 4.50008 18.25V16.75C4.50152 16.6496 4.48279 16.55 4.44501 16.457C4.40723 16.3639 4.35116 16.2795 4.28012 16.2085C4.20909 16.1376 4.12454 16.0816 4.03147 16.044C3.93841 16.0063 3.83874 15.9877 3.73836 15.9893Z" fill="black"/>
</svg>
