<svg width="24" height="24" viewBox="0 0 24 24" fill="none" xmlns="http://www.w3.org/2000/svg">
<path d="M12 7.75C12 8.9905 13.0095 10 14.25 10H20V11.0254C20.5651 11.1438 21 11.6538 21 12.25V17.75C21 18.3462 20.5651 18.8562 20 18.9746V19.75C20 20.9905 18.9905 22 17.75 22H6.25C5.0095 22 4 20.9905 4 19.75V18.9746C3.43494 18.8562 3 18.3462 3 17.75V12.25C3 11.6538 3.43494 11.1438 4 11.0254V4.25C4 3.0095 5.0095 2 6.25 2H12V7.75ZM4.5 17.5H19.5V12.5H4.5V17.5ZM11 13C11.2759 13.0001 11.5 13.2241 11.5 13.5V15.75C11.5 16.4389 10.9284 16.9999 10.2266 17C9.69559 17 9.20332 16.6574 9.0293 16.167C8.9368 15.907 9.07251 15.6208 9.33301 15.5283C9.59295 15.436 9.87921 15.5716 9.97168 15.832C10.0047 15.926 10.1166 16 10.2266 16C10.3695 15.9999 10.5 15.8809 10.5 15.75V13.5C10.5 13.224 10.724 13 11 13ZM14.375 13C14.9403 13.0001 15.313 13.356 15.3535 13.3965C15.5488 13.5919 15.5488 13.9081 15.3535 14.1035C15.1581 14.299 14.842 14.2983 14.6465 14.1035C14.6465 14.1035 14.5268 14.0002 14.375 14H13.9375C13.7995 14 13.6875 14.112 13.6875 14.25C13.6875 14.388 13.7995 14.5 13.9375 14.5H14.375C15.0638 14.5002 15.625 15.0611 15.625 15.75C15.625 16.4389 15.0638 16.9998 14.375 17H13.8291C13.2888 17 12.9096 16.6791 12.7715 16.541C12.576 16.3455 12.576 16.0295 12.7715 15.834C12.967 15.6387 13.2831 15.6385 13.4785 15.834C13.5178 15.8732 13.6584 16 13.8291 16H14.375C14.5128 15.9998 14.625 15.8879 14.625 15.75C14.625 15.6121 14.5128 15.5002 14.375 15.5H13.9375C13.2485 15.5 12.6875 14.939 12.6875 14.25C12.6875 13.561 13.2485 13 13.9375 13H14.375ZM19.5605 8.5H14.25C13.8365 8.5 13.5 8.1635 13.5 7.75V2.43945L19.5605 8.5Z" fill="black"/>
</svg>
