<svg width="24" height="24" viewBox="0 0 24 24" fill="none" xmlns="http://www.w3.org/2000/svg">
<path fill-rule="evenodd" clip-rule="evenodd" d="M18.75 6.472H17.25C16.285 6.472 15.5 5.687 15.5 4.722V4.25C15.5 3.285 16.285 2.5 17.25 2.5H18.75C19.715 2.5 20.5 3.285 20.5 4.25V4.722C20.5 5.687 19.715 6.472 18.75 6.472ZM11.25 6.50001H12.75C13.715 6.50001 14.5 5.71501 14.5 4.75001V4.27801C14.5 3.31301 13.715 2.52801 12.75 2.52801H11.25C10.285 2.52801 9.5 3.31301 9.5 4.27801V4.75001C9.5 5.71501 10.285 6.50001 11.25 6.50001ZM6.75 11.5H5.25C4.285 11.5 3.5 10.715 3.5 9.75V9.222C3.5 8.257 4.285 7.472 5.25 7.472H6.75C7.715 7.472 8.5 8.257 8.5 9.222V9.75C8.5 10.715 7.715 11.5 6.75 11.5ZM11.25 11.528H12.75C13.715 11.528 14.5 10.7425 14.5 9.77801V9.25001C14.5 8.28501 13.715 7.50001 12.75 7.50001H11.25C10.285 7.50001 9.5 8.28501 9.5 9.25001V9.77801C9.5 10.743 10.285 11.528 11.25 11.528ZM17.25 11.5H18.75C19.715 11.5 20.5 10.715 20.5 9.75001V9.25001C20.5 8.28501 19.715 7.50001 18.75 7.50001H17.25C16.285 7.50001 15.5 8.28501 15.5 9.25001V9.75001C15.5 10.715 16.285 11.5 17.25 11.5ZM5.25 6.472H6.75C7.715 6.472 8.5 5.687 8.5 4.722V4.25C8.5 3.285 7.715 2.5 6.75 2.5H5.25C4.285 2.5 3.5 3.285 3.5 4.25V4.722C3.5 5.687 4.285 6.472 5.25 6.472ZM12.75 16.528H11.25C10.285 16.528 9.5 15.743 9.5 14.778V14.25C9.5 13.285 10.285 12.5 11.25 12.5H12.75C13.715 12.5 14.5 13.285 14.5 14.25V14.778C14.5 15.7425 13.715 16.528 12.75 16.528ZM11.25 21.5H12.75C13.715 21.5 14.5 20.715 14.5 19.75V19.278C14.5 18.313 13.715 17.528 12.75 17.528H11.25C10.285 17.528 9.5 18.313 9.5 19.278V19.75C9.5 20.715 10.285 21.5 11.25 21.5ZM18.75 16.5H17.25C16.285 16.5 15.5 15.715 15.5 14.75V14.25C15.5 13.285 16.285 12.5 17.25 12.5H18.75C19.715 12.5 20.5 13.285 20.5 14.25V14.75C20.5 15.715 19.715 16.5 18.75 16.5ZM5.25 16.5H6.75C7.715 16.5 8.5 15.715 8.5 14.75V14.25C8.5 13.285 7.715 12.5 6.75 12.5H5.25C4.285 12.5 3.5 13.285 3.5 14.25V14.75C3.5 15.715 4.285 16.5 5.25 16.5Z" fill="black"/>
</svg>
