<svg width="24" height="24" viewBox="0 0 24 24" fill="none" xmlns="http://www.w3.org/2000/svg">
<path d="M15.25 2.5C11.798 2.5 9 5.298 9 8.75C9 9.3245 9.084 9.8785 9.229 10.407L2.7195 16.9165C2.579 17.057 2.5 17.248 2.5 17.447V20.75C2.5 21.164 2.8355 21.5 3.25 21.5H6.75C7.1645 21.5 7.5 21.164 7.5 20.75V19.5H9.25C9.6645 19.5 10 19.164 10 18.75V17H11.75C12.1645 17 12.5 16.664 12.5 16.25V14.356C13.3305 14.7645 14.262 15 15.25 15C18.702 15 21.5 12.202 21.5 8.75C21.5 5.298 18.702 2.5 15.25 2.5ZM16 9.5C15.1715 9.5 14.5 8.8285 14.5 8C14.5 7.1715 15.1715 6.5 16 6.5C16.8285 6.5 17.5 7.1715 17.5 8C17.5 8.8285 16.8285 9.5 16 9.5Z" fill="black"/>
</svg>
