<svg width="24" height="24" viewBox="0 0 24 24" fill="none" xmlns="http://www.w3.org/2000/svg">
<path d="M12 1.99902C6.48615 1.99902 2 6.48517 2 11.999C2 13.6367 2.43135 15.1674 3.13086 16.5322L2.04688 20.4131C1.7944 21.3148 2.68596 22.2063 3.58789 21.9541L7.47168 20.8701C8.83537 21.5682 10.3639 21.999 12 21.999C17.5139 21.999 22 17.5129 22 11.999C22 6.48517 17.5139 1.99902 12 1.99902ZM12 3.49902C16.7031 3.49902 20.5 7.29588 20.5 11.999C20.5 16.7022 16.7031 20.499 12 20.499C10.4992 20.499 9.0953 20.1088 7.87109 19.4268C7.69853 19.3306 7.495 19.3064 7.30469 19.3594L3.61133 20.3896L4.64258 16.6982C4.69585 16.5076 4.67163 16.3037 4.5752 16.1309C3.89183 14.9058 3.5 13.5013 3.5 11.999C3.5 7.29588 7.29685 3.49902 12 3.49902ZM15.7383 6.48926C15.5395 6.49236 15.3502 6.57423 15.2117 6.71686C15.0733 6.8595 14.9971 7.05125 15 7.25V9.62695C14.9868 9.70747 14.9868 9.7896 15 9.87012V13.75C14.9986 13.8494 15.017 13.9481 15.054 14.0403C15.0911 14.1325 15.1461 14.2164 15.2159 14.2872C15.2857 14.358 15.3688 14.4142 15.4605 14.4526C15.5522 14.4909 15.6506 14.5107 15.75 14.5107C15.8494 14.5107 15.9478 14.4909 16.0395 14.4526C16.1312 14.4142 16.2143 14.358 16.2841 14.2872C16.3539 14.2164 16.4089 14.1325 16.446 14.0403C16.483 13.9481 16.5014 13.8494 16.5 13.75V10.5H17.25C17.3494 10.5014 17.4481 10.483 17.5403 10.446C17.6325 10.4089 17.7164 10.3539 17.7872 10.2841C17.858 10.2143 17.9142 10.1312 17.9526 10.0395C17.9909 9.9478 18.0107 9.84939 18.0107 9.75C18.0107 9.65061 17.9909 9.5522 17.9526 9.46051C17.9142 9.36882 17.858 9.28566 17.7872 9.21588C17.7164 9.1461 17.6325 9.09108 17.5403 9.05402C17.4481 9.01696 17.3494 8.99859 17.25 9H16.5V7.25C16.5014 7.14962 16.4827 7.04997 16.4449 6.95695C16.4071 6.86394 16.3511 6.77946 16.28 6.70852C16.209 6.63758 16.1245 6.58161 16.0314 6.54395C15.9383 6.50629 15.8387 6.48769 15.7383 6.48926ZM10.25 6.5C10.1506 6.49859 10.0519 6.51696 9.95972 6.55402C9.86749 6.59108 9.78355 6.6461 9.71277 6.71588C9.642 6.78566 9.58579 6.86882 9.54743 6.96051C9.50907 7.0522 9.48932 7.15061 9.48932 7.25C9.48932 7.34939 9.50907 7.4478 9.54743 7.53949C9.58579 7.63118 9.642 7.71434 9.71277 7.78412C9.78355 7.8539 9.86749 7.90892 9.95972 7.94598C10.0519 7.98304 10.1506 8.00141 10.25 8H12.5V8.5C12.5 9.12625 12.2177 9.67534 11.7725 10.043C11.6965 10.1057 11.6336 10.1827 11.5873 10.2698C11.5411 10.3568 11.5125 10.452 11.5031 10.5501C11.4937 10.6482 11.5037 10.7472 11.5326 10.8414C11.5615 10.9356 11.6086 11.0232 11.6713 11.0992C11.734 11.1752 11.8111 11.2381 11.8981 11.2843C11.9851 11.3305 12.0804 11.3591 12.1785 11.3685C12.2766 11.3778 12.3756 11.3678 12.4698 11.3389C12.564 11.3101 12.6516 11.2629 12.7275 11.2002C13.5043 10.5588 14 9.58175 14 8.5V7.25C14 7.05109 13.921 6.86034 13.7803 6.71969C13.6397 6.57904 13.4489 6.50002 13.25 6.5H10.25ZM9.25293 9C9.10084 8.99936 8.95214 9.04496 8.82657 9.13077C8.70099 9.21658 8.60447 9.33854 8.5498 9.48047L6.0498 15.9805C5.97832 16.1662 5.98353 16.3727 6.0643 16.5545C6.14506 16.7364 6.29477 16.8787 6.48047 16.9502C6.66617 17.0217 6.87267 17.0165 7.05453 16.9357C7.23638 16.8549 7.37871 16.7052 7.4502 16.5195L8.03418 15H10.4658L11.0498 16.5195C11.0852 16.6115 11.1384 16.6956 11.2062 16.767C11.2741 16.8384 11.3554 16.8957 11.4455 16.9357C11.5355 16.9757 11.6326 16.9976 11.7311 17C11.8296 17.0025 11.9276 16.9856 12.0195 16.9502C12.1115 16.9148 12.1956 16.8616 12.267 16.7938C12.3384 16.7259 12.3957 16.6446 12.4357 16.5545C12.4757 16.4645 12.4976 16.3674 12.5 16.2689C12.5025 16.1704 12.4856 16.0724 12.4502 15.9805L9.9502 9.48047C9.89589 9.33947 9.80026 9.21816 9.67585 9.13243C9.55143 9.0467 9.40402 9.00054 9.25293 9ZM9.25 11.8398L9.88867 13.5H8.61133L9.25 11.8398Z" fill="black"/>
</svg>
