<svg width="24" height="24" viewBox="0 0 24 24" fill="none" xmlns="http://www.w3.org/2000/svg">
<path d="M18.9393 8.9555C18.8218 8.679 18.5503 8.5 18.2498 8.5H14.7468L17.8968 3.1295C18.0328 2.8975 18.0343 2.6105 17.9008 2.3775C17.7668 2.144 17.5188 2 17.2498 2H11.2498C10.9763 2 10.7243 2.149 10.5928 2.3885L5.09277 12.3885C4.96527 12.6205 4.96927 12.9035 5.10427 13.1315C5.23927 13.36 5.48477 13.5 5.74977 13.5H9.13727L6.05627 20.964C5.91877 21.2975 6.03777 21.6815 6.33977 21.8785C6.46577 21.96 6.60777 22 6.74977 22C6.94827 22 7.14577 21.921 7.29127 21.769L18.7913 9.769C18.9993 9.552 19.0578 9.232 18.9393 8.9555Z" fill="black"/>
</svg>
