<svg width="24" height="24" viewBox="0 0 24 24" fill="none" xmlns="http://www.w3.org/2000/svg">
<path d="M21 20.25C21.4142 20.25 21.75 20.5858 21.75 21C21.75 21.4142 21.4142 21.75 21 21.75H3C2.58579 21.75 2.25 21.4142 2.25 21C2.25 20.5858 2.58579 20.25 3 20.25H21Z" fill="black"/>
<path fill-rule="evenodd" clip-rule="evenodd" d="M12.5 6.25C12.8186 6.25 13.1027 6.45127 13.208 6.75195L16.708 16.752C16.8448 17.1428 16.6389 17.5711 16.248 17.708C15.8572 17.8448 15.4289 17.6388 15.292 17.248L14.0664 13.7461C14.0445 13.748 14.0224 13.75 14 13.75H10C9.97726 13.75 9.95484 13.7481 9.93262 13.7461L8.70801 17.248C8.57108 17.6389 8.14283 17.8448 7.75195 17.708C7.36118 17.5711 7.1552 17.1428 7.29199 16.752L10.792 6.75195L10.8398 6.64453C10.969 6.40441 11.2211 6.25003 11.5 6.25H12.5ZM10.457 12.25H13.543L12 7.8418L10.457 12.25Z" fill="black"/>
<path d="M21 2.25C21.4142 2.25 21.75 2.58579 21.75 3C21.75 3.41421 21.4142 3.75 21 3.75H3C2.58579 3.75 2.25 3.41421 2.25 3C2.25 2.58579 2.58579 2.25 3 2.25H21Z" fill="black"/>
</svg>
