<svg width="24" height="24" viewBox="0 0 24 24" fill="none" xmlns="http://www.w3.org/2000/svg">
<path d="M2.74988 11.9999C2.74988 11.5857 3.08566 11.2499 3.49988 11.2499L6.49988 11.2499C6.91409 11.2499 7.24988 11.5857 7.24988 11.9999C7.24988 12.4141 6.91409 12.7499 6.49988 12.7499L3.49988 12.7499C3.08566 12.7499 2.74988 12.4141 2.74988 11.9999Z" fill="black"/>
<path d="M16.7498 11.9999C16.7498 11.5857 17.0856 11.2499 17.4998 11.2499L20.4998 11.2499C20.914 11.2499 21.2498 11.5857 21.2498 11.9999C21.2498 12.4141 20.914 12.7499 20.4998 12.7499L17.4998 12.7499C17.0856 12.7499 16.7498 12.4141 16.7498 11.9999Z" fill="black"/>
<path d="M9.74986 11.9999C9.74986 11.5857 10.0857 11.2499 10.4999 11.2499H13.4999C13.9141 11.2499 14.2499 11.5857 14.2499 11.9999C14.2499 12.4141 13.9141 12.7499 13.4999 12.7499H10.4999C10.0857 12.7499 9.74986 12.4141 9.74986 11.9999Z" fill="black"/>
</svg>
