<svg width="24" height="24" viewBox="0 0 24 24" fill="none" xmlns="http://www.w3.org/2000/svg">
<path d="M11.6252 2.5C5.9214 2.5 1.12427 6.2754 1.12427 11.1182C1.12427 15.4371 4.92501 18.9423 9.87427 19.6162C9.98814 19.6409 10.11 19.6806 10.1877 19.7148C10.1804 19.7576 10.1979 19.9557 10.1741 20.1367V20.1377C10.1676 20.1762 10.0619 20.8077 10.0393 20.9395L10.0403 20.9385C10.0027 21.155 9.88234 21.5168 10.218 22.0244C10.3859 22.2782 10.764 22.4938 11.1028 22.5C11.4415 22.5062 11.7258 22.3949 12.0374 22.2236C14.3114 20.9732 16.782 19.5621 18.7288 17.79C20.6755 16.0179 22.1243 13.8196 22.1243 11.1182C22.1242 6.27557 17.3291 2.5 11.6252 2.5ZM11.6252 4C16.6724 4 20.6243 7.28376 20.6243 11.1182C20.6243 13.2893 19.4888 15.0696 17.719 16.6807C16.0219 18.2255 13.7648 19.5466 11.593 20.7471C11.6218 20.5748 11.6575 20.3594 11.6575 20.3594L11.6594 20.3477L11.6614 20.3359C11.6989 20.0546 11.8038 19.6325 11.5833 19.0811L11.5823 19.0801V19.0791C11.4155 18.6667 11.1066 18.4874 10.8596 18.3691C10.6126 18.2508 10.3788 18.19 10.1848 18.1484L10.1555 18.1426L10.1252 18.1387C5.73109 17.5605 2.62427 14.5618 2.62427 11.1182C2.62427 7.28393 6.57809 4 11.6252 4ZM9.28833 8.56836C9.00633 8.56836 8.77661 8.79617 8.77661 9.07617V12.9229C8.77661 13.2034 9.00583 13.4307 9.28833 13.4307C9.57033 13.4307 9.80005 13.2029 9.80005 12.9229V9.07617C9.80005 8.79617 9.57083 8.56836 9.28833 8.56836ZM11.0481 8.56836C10.9931 8.56836 10.938 8.57723 10.885 8.59473C10.676 8.66423 10.5354 8.85767 10.5354 9.07617V12.9229C10.5354 13.2034 10.7656 13.4307 11.0481 13.4307C11.3311 13.4307 11.5608 13.2029 11.5608 12.9229V10.5439L13.5481 13.2275C13.6441 13.3545 13.7973 13.4307 13.9573 13.4307C14.0118 13.4307 14.0664 13.4218 14.1194 13.4043C14.3294 13.3358 14.47 13.1424 14.47 12.9229V9.0752C14.47 8.7952 14.2408 8.56836 13.9583 8.56836C13.6758 8.56836 13.4456 8.7952 13.4456 9.0752V11.4561L11.4573 8.77148C11.3613 8.64448 11.2076 8.56836 11.0481 8.56836ZM5.85474 8.56934C5.57274 8.56934 5.34302 8.79617 5.34302 9.07617V12.9238C5.34302 13.2043 5.57224 13.4316 5.85474 13.4316H7.79419C8.07669 13.4316 8.30543 13.2029 8.30493 12.9229C8.30493 12.6429 8.07669 12.415 7.79419 12.415H6.36548V9.07617C6.36548 8.79617 6.13724 8.56934 5.85474 8.56934ZM15.6692 8.56934C15.3872 8.56934 15.1575 8.79715 15.1575 9.07715V9.07812V10.999V11V11.001V12.9229C15.1575 13.2034 15.3877 13.4307 15.6692 13.4307H17.6086C17.8911 13.4307 18.1213 13.2029 18.1213 12.9229C18.1213 12.6429 17.8911 12.415 17.6086 12.415H16.1809V11.5068H17.6086C17.8916 11.5068 18.1213 11.279 18.1213 10.999C18.1213 10.7185 17.8911 10.4912 17.6086 10.4912V10.4932H16.1809V9.58496H17.6086C17.8916 9.58496 18.1213 9.35715 18.1213 9.07715C18.1213 8.79715 17.8911 8.56934 17.6086 8.56934H15.6692Z" fill="black"/>
</svg>
