<svg width="24" height="24" viewBox="0 0 24 24" fill="none" xmlns="http://www.w3.org/2000/svg">
<path d="M12.0121 5.97584L11.5677 6.49027C11.2969 6.80373 10.8233 6.83834 10.5099 6.56757C10.1964 6.2968 10.1618 5.82319 10.4326 5.50973L10.8956 4.97373C10.9075 4.95992 10.9199 4.94654 10.9328 4.93363C12.0113 3.85532 13.474 3.24959 14.999 3.24969C16.5241 3.2498 17.9867 3.85574 19.065 4.93421C20.1433 6.01268 20.749 7.47533 20.7489 9.00041C20.7488 10.5255 20.1429 11.9881 19.0644 13.0664C19.0521 13.0787 19.0393 13.0907 19.0261 13.1021L18.4921 13.5661C18.1794 13.8378 17.7057 13.8046 17.434 13.4919C17.1623 13.1793 17.1955 12.7055 17.5082 12.4339L18.0216 11.9878C18.8076 11.1925 19.2489 10.1192 19.2489 9.0003C19.249 7.87305 18.8013 6.79194 18.0043 5.99479C17.2072 5.19765 16.1262 4.74977 14.9989 4.74969C13.8804 4.74962 12.8074 5.1904 12.0121 5.97584Z" fill="black"/>
<path d="M15.5305 8.46967C15.8233 8.76256 15.8233 9.23744 15.5305 9.53033L9.53045 15.5303C9.23756 15.8232 8.76269 15.8232 8.46979 15.5303C8.1769 15.2374 8.1769 14.7626 8.46979 14.4697L14.4698 8.46967C14.7627 8.17678 15.2376 8.17678 15.5305 8.46967Z" fill="black"/>
<path d="M6.49675 11.562C6.80715 11.2878 6.83644 10.8138 6.56218 10.5034C6.28791 10.193 5.81394 10.1637 5.50354 10.438L4.97954 10.901C4.96903 10.9102 4.95878 10.9198 4.94881 10.9297C4.41063 11.4618 3.98336 12.0955 3.69175 12.7939C3.40015 13.4923 3.25 14.2416 3.25 14.9985C3.25 15.7553 3.40015 16.5047 3.69175 17.2031C3.97625 17.8845 4.38986 18.5042 4.90962 19.0282L4.91218 19.0307L4.94624 19.0647L4.94881 19.0673C6.03796 20.1443 7.50791 20.7484 9.03964 20.7484C10.5714 20.7484 12.0413 20.1443 13.1305 19.0673C13.1575 19.0406 13.1824 19.0119 13.205 18.9815L13.602 18.4475C13.8492 18.1151 13.78 17.6452 13.4476 17.3981C13.1152 17.151 12.6454 17.2201 12.3983 17.5525L12.0366 18.0389C11.2324 18.8143 10.1582 19.2484 9.03964 19.2484C7.9034 19.2484 6.81296 18.8005 6.00474 18.0019L5.97332 17.9706C5.71825 17.7132 5.49786 17.4246 5.31715 17.1121C5.22657 16.9555 5.14596 16.7929 5.07595 16.6252C4.86079 16.1098 4.75 15.5569 4.75 14.9985C4.75 14.44 4.86079 13.8871 5.07595 13.3718C5.28852 12.8627 5.59879 12.4002 5.98916 12.0105L6.49675 11.562Z" fill="black"/>
</svg>
