<svg width="24" height="24" viewBox="0 0 24 24" fill="none" xmlns="http://www.w3.org/2000/svg">
<path d="M12 2C9.79971 2 8 3.79971 8 6V8H6.25C5.0095 8 4 9.0095 4 10.25V19.75C4 20.9905 5.0095 22 6.25 22H17.75C18.9905 22 20 20.9905 20 19.75V10.25C20 9.0095 18.9905 8 17.75 8H16V6C16 3.79971 14.2003 2 12 2ZM12 3.5C13.3897 3.5 14.5 4.61029 14.5 6V8H9.5V6C9.5 4.61029 10.6103 3.5 12 3.5ZM8.5 14C9.0525 14 9.5 14.4475 9.5 15C9.5 15.5525 9.0525 16 8.5 16C7.9475 16 7.5 15.5525 7.5 15C7.5 14.4475 7.9475 14 8.5 14ZM12 14C12.5525 14 13 14.4475 13 15C13 15.5525 12.5525 16 12 16C11.4475 16 11 15.5525 11 15C11 14.4475 11.4475 14 12 14ZM15.5 14C16.0525 14 16.5 14.4475 16.5 15C16.5 15.5525 16.0525 16 15.5 16C14.9475 16 14.5 15.5525 14.5 15C14.5 14.4475 14.9475 14 15.5 14Z" fill="black"/>
</svg>
