<svg width="24" height="24" viewBox="0 0 24 24" fill="none" xmlns="http://www.w3.org/2000/svg">
<path d="M17.4895 5.75C17.4895 4.24011 16.2494 3 14.7395 3H5.7395C4.22962 3 2.9895 4.24011 2.9895 5.75V18.25C2.9895 19.7599 4.22962 21 5.7395 21H14.7395C16.2494 21 17.4895 19.7599 17.4895 18.25V17.7607C17.4909 17.6613 17.4725 17.5626 17.4355 17.4704C17.3984 17.3782 17.3434 17.2942 17.2736 17.2235C17.2038 17.1527 17.1207 17.0965 17.029 17.0581C16.9373 17.0198 16.8389 17 16.7395 17C16.6401 17 16.5417 17.0198 16.45 17.0581C16.3583 17.0965 16.2752 17.1527 16.2054 17.2235C16.1356 17.2942 16.0806 17.3782 16.0435 17.4704C16.0065 17.5626 15.9881 17.6613 15.9895 17.7607V18.25C15.9895 18.9491 15.4386 19.5 14.7395 19.5H5.7395C5.04039 19.5 4.4895 18.9491 4.4895 18.25V5.75C4.4895 5.05089 5.04039 4.5 5.7395 4.5H14.7395C15.4386 4.5 15.9895 5.05089 15.9895 5.75V6.23932C15.9881 6.3387 16.0065 6.43737 16.0435 6.5296C16.0806 6.62183 16.1356 6.70577 16.2054 6.77654C16.2752 6.84732 16.3583 6.90352 16.45 6.94188C16.5417 6.98025 16.6401 7 16.7395 7C16.8389 7 16.9373 6.98025 17.029 6.94188C17.1207 6.90352 17.2038 6.84732 17.2736 6.77654C17.3434 6.70577 17.3984 6.62183 17.4355 6.5296C17.4725 6.43737 17.4909 6.3387 17.4895 6.23932V5.75Z" fill="black"/>
<path d="M17.2424 8.25195C17.0931 8.25199 16.9473 8.29656 16.8235 8.37995C16.6997 8.46335 16.6036 8.58178 16.5475 8.7201C16.4914 8.85841 16.4778 9.01032 16.5086 9.15639C16.5393 9.30245 16.6129 9.43604 16.7199 9.54004L18.4387 11.2588L8.75119 11.25C8.65181 11.2485 8.55312 11.2667 8.46085 11.3037C8.36858 11.3406 8.28457 11.3955 8.21371 11.4652C8.14285 11.5349 8.08654 11.618 8.04806 11.7096C8.00959 11.8012 7.98971 11.8996 7.98958 11.999C7.98945 12.0984 8.00907 12.1968 8.04731 12.2886C8.08555 12.3803 8.14164 12.4635 8.21232 12.5334C8.283 12.6033 8.36687 12.6584 8.45904 12.6956C8.55121 12.7328 8.64985 12.7513 8.74924 12.75L18.4406 12.7588L16.7199 14.4795C16.648 14.5486 16.5905 14.6314 16.5509 14.723C16.5113 14.8146 16.4904 14.9131 16.4894 15.0129C16.4884 15.1127 16.5073 15.2117 16.545 15.3041C16.5827 15.3964 16.6385 15.4804 16.709 15.5509C16.7796 15.6215 16.8635 15.6773 16.9559 15.715C17.0483 15.7527 17.1473 15.7716 17.2471 15.7706C17.3468 15.7696 17.4454 15.7487 17.537 15.7091C17.6286 15.6695 17.7114 15.612 17.7805 15.54L20.7805 12.54C20.9211 12.3994 21.0001 12.2086 21.0001 12.0098C21.0001 11.8109 20.9211 11.6201 20.7805 11.4795L17.7805 8.47949C17.7106 8.4075 17.6269 8.35027 17.5345 8.31118C17.4421 8.2721 17.3427 8.25196 17.2424 8.25195Z" fill="black"/>
</svg>
