<svg width="24" height="24" viewBox="0 0 24 24" fill="none" xmlns="http://www.w3.org/2000/svg">
<path fill-rule="evenodd" clip-rule="evenodd" d="M15.75 2.50008C15.6019 2.50009 15.4572 2.54392 15.334 2.62605L13.5 3.84871V3.75007C13.5014 3.65069 13.483 3.55202 13.446 3.45979C13.4089 3.36757 13.3539 3.28363 13.2841 3.21285C13.2143 3.14207 13.1312 3.08587 13.0395 3.04751C12.9478 3.00915 12.8494 2.98939 12.75 2.98939C12.6506 2.98939 12.5522 3.00915 12.4605 3.04751C12.3688 3.08587 12.2857 3.14207 12.2159 3.21285C12.1461 3.28363 12.0911 3.36757 12.054 3.45979C12.017 3.55202 11.9986 3.65069 12 3.75007V4.50008H6.7998C6.69776 4.24979 6.56119 4.01056 6.37305 3.7989C5.94393 3.31614 5.27083 3.00007 4.5 3.00007C3.72917 3.00007 3.05607 3.31614 2.62695 3.7989C2.19783 4.28166 2 4.89591 2 5.50008C2 6.10424 2.19783 6.71849 2.62695 7.20125C2.75519 7.34552 2.90728 7.47257 3.0752 7.58308L6.66113 14.1583C6.94163 13.6933 7.29732 13.2885 7.71582 12.96L4.98633 7.95418C5.51973 7.85778 5.98081 7.6069 6.31348 7.26082L9.03418 12.2491C9.49618 12.0926 9.987 12.0001 10.5 12.0001C10.5205 12.0001 10.5404 12.0021 10.5603 12.0041C10.5772 12.0057 10.5941 12.0074 10.6113 12.0079L7.33398 6.00008H12V6.75007C11.9986 6.84946 12.017 6.94813 12.054 7.04036C12.0911 7.13258 12.1461 7.21652 12.2159 7.2873C12.2857 7.35808 12.3688 7.41428 12.4605 7.45264C12.5522 7.491 12.6506 7.51076 12.75 7.51076C12.8494 7.51076 12.9478 7.491 13.0395 7.45264C13.1312 7.41428 13.2143 7.35808 13.2841 7.2873C13.3539 7.21652 13.4089 7.13258 13.446 7.04036C13.483 6.94813 13.5014 6.84946 13.5 6.75007V6.65144L15.334 7.8741C15.4572 7.95623 15.6019 8.00006 15.75 8.00007H18.75C18.8494 8.00148 18.9481 7.98312 19.0403 7.94606C19.1325 7.909 19.2164 7.85398 19.2872 7.78419C19.358 7.71441 19.4142 7.63126 19.4526 7.53956C19.4909 7.44787 19.5107 7.34947 19.5107 7.25007C19.5107 7.15068 19.4909 7.05228 19.4526 6.96059C19.4142 6.86889 19.358 6.78574 19.2872 6.71595C19.2164 6.64617 19.1325 6.59115 19.0403 6.55409C18.9481 6.51703 18.8494 6.49867 18.75 6.50007H15.9775L14.1025 5.25008L15.9775 4.00007H18.75C18.8494 4.00148 18.9481 3.98312 19.0403 3.94606C19.1325 3.909 19.2164 3.85398 19.2872 3.7842C19.358 3.71441 19.4142 3.63126 19.4526 3.53956C19.4909 3.44787 19.5107 3.34947 19.5107 3.25007C19.5107 3.15068 19.4909 3.05228 19.4526 2.96059C19.4142 2.86889 19.358 2.78574 19.2872 2.71595C19.2164 2.64617 19.1325 2.59115 19.0403 2.55409C18.9481 2.51703 18.8494 2.49867 18.75 2.50008H15.75ZM4.5 4.50008C4.89583 4.50008 5.09774 4.62151 5.25195 4.795C5.3574 4.91362 5.43144 5.07452 5.46973 5.25008C5.47001 5.31303 5.47821 5.37569 5.49414 5.4366C5.49458 5.44472 5.49552 5.45274 5.49645 5.46076V5.46076C5.49771 5.47152 5.49896 5.48227 5.49902 5.49324C5.49847 5.49853 5.49843 5.50383 5.49839 5.50915C5.49835 5.51328 5.49832 5.51742 5.49805 5.52156C5.49317 5.78454 5.40203 6.03632 5.25195 6.20515C5.09774 6.37864 4.89583 6.50007 4.5 6.50007C4.33613 6.50007 4.21129 6.47525 4.10352 6.43855C4.02587 6.37185 3.93663 6.32238 3.84082 6.29207L3.83536 6.28736C3.80495 6.26117 3.77461 6.23503 3.74805 6.20515C3.59383 6.03166 3.5 5.77091 3.5 5.50008C3.5 5.22924 3.59383 4.96849 3.74805 4.795C3.90226 4.62151 4.10417 4.50008 4.5 4.50008ZM10.5 13.0001C8.93088 13.0001 7.6495 14.0682 7.20996 15.5001H4.25C2.74011 15.5001 1.5 16.7402 1.5 18.2501V19.2501C1.5 20.2076 2.29252 21.0001 3.25 21.0001H12.8465C12.3318 20.572 11.8842 20.066 11.5219 19.5001H3.25C3.10248 19.5001 3 19.3976 3 19.2501V18.2501C3 17.551 3.55089 17.0001 4.25 17.0001H7.7627C7.94996 17.0001 8.13045 16.93 8.26869 16.8037C8.40693 16.6774 8.49292 16.504 8.50977 16.3175C8.60199 15.2957 9.44839 14.5001 10.5 14.5001C10.5581 14.5001 10.6155 14.5025 10.6722 14.5073C10.7906 14.0037 10.9674 13.5228 11.1953 13.072C10.9715 13.0249 10.7391 13.0001 10.5 13.0001ZM10.5 16C10.5 15.8319 10.5064 15.6652 10.5189 15.5003L10.5 15.5001C10.2348 15.5001 9.98043 15.6054 9.79289 15.793C9.60536 15.9805 9.5 16.2349 9.5 16.5001C9.5 16.7653 9.60536 17.0196 9.79289 17.2072C9.98043 17.3947 10.2348 17.5001 10.5 17.5001C10.5575 17.5001 10.6146 17.4951 10.6705 17.4854C10.559 17.0084 10.5 16.5111 10.5 16ZM17 20.2C19.3196 20.2 21.2 18.3196 21.2 16C21.2 13.6804 19.3196 11.8 17 11.8C14.6804 11.8 12.8 13.6804 12.8 16C12.8 18.3196 14.6804 20.2 17 20.2ZM17 21.5C20.0376 21.5 22.5 19.0376 22.5 16C22.5 12.9624 20.0376 10.5 17 10.5C13.9624 10.5 11.5 12.9624 11.5 16C11.5 19.0376 13.9624 21.5 17 21.5ZM15.7409 13.892C15.5066 13.6577 15.1267 13.6577 14.8924 13.892C14.6581 14.1264 14.6581 14.5063 14.8924 14.7406L16.1517 15.9999L14.892 17.2595C14.6577 17.4939 14.6577 17.8738 14.892 18.1081C15.1264 18.3424 15.5063 18.3424 15.7406 18.1081L17.0002 16.8484L18.2595 18.1077C18.4939 18.3421 18.8738 18.3421 19.1081 18.1077C19.3424 17.8734 19.3424 17.4935 19.1081 17.2592L17.8488 15.9999L19.1077 14.7409C19.3421 14.5066 19.3421 14.1267 19.1077 13.8924C18.8734 13.6581 18.4935 13.6581 18.2592 13.8924L17.0002 15.1514L15.7409 13.892Z" fill="black"/>
</svg>
