<svg width="24" height="24" viewBox="0 0 24 24" fill="none" xmlns="http://www.w3.org/2000/svg">
<path fill-rule="evenodd" clip-rule="evenodd" d="M15.334 2.62605C15.4572 2.54392 15.6019 2.50009 15.75 2.50008H18.75C18.8494 2.49867 18.9481 2.51703 19.0403 2.55409C19.1325 2.59115 19.2164 2.64617 19.2872 2.71595C19.358 2.78574 19.4142 2.86889 19.4526 2.96059C19.4909 3.05228 19.5107 3.15068 19.5107 3.25007C19.5107 3.34947 19.4909 3.44787 19.4526 3.53956C19.4142 3.63126 19.358 3.71441 19.2872 3.7842C19.2164 3.85398 19.1325 3.909 19.0403 3.94606C18.9481 3.98312 18.8494 4.00148 18.75 4.00007H15.9775L14.1025 5.25008L15.9775 6.50007H18.75C18.8494 6.49867 18.9481 6.51703 19.0403 6.55409C19.1325 6.59115 19.2164 6.64617 19.2872 6.71595C19.358 6.78574 19.4142 6.86889 19.4526 6.96059C19.4909 7.05228 19.5107 7.15068 19.5107 7.25007C19.5107 7.34947 19.4909 7.44787 19.4526 7.53956C19.4142 7.63126 19.358 7.71441 19.2872 7.78419C19.2164 7.85398 19.1325 7.909 19.0403 7.94606C18.9481 7.98312 18.8494 8.00148 18.75 8.00007H15.75C15.6019 8.00006 15.4572 7.95623 15.334 7.8741L13.5 6.65144V6.75007C13.5014 6.84946 13.483 6.94813 13.446 7.04036C13.4089 7.13258 13.3539 7.21652 13.2841 7.2873C13.2143 7.35808 13.1312 7.41428 13.0395 7.45264C12.9478 7.491 12.8494 7.51076 12.75 7.51076C12.6506 7.51076 12.5522 7.491 12.4605 7.45264C12.3688 7.41428 12.2857 7.35808 12.2159 7.2873C12.1461 7.21652 12.0911 7.13258 12.054 7.04036C12.017 6.94813 11.9986 6.84946 12 6.75007V6.00008H7.05176L10.3301 12.0118C8.88408 12.0648 7.59905 12.7781 6.81055 13.9141L3.45703 7.76472C2.60003 7.36772 2 6.50507 2 5.50008C2 4.12157 3.1215 3.00007 4.5 3.00007C5.52281 3.00007 6.40235 3.61838 6.78906 4.50008H12V3.75007C11.9986 3.65069 12.017 3.55202 12.054 3.45979C12.0911 3.36757 12.1461 3.28363 12.2159 3.21285C12.2857 3.14207 12.3688 3.08587 12.4605 3.04751C12.5522 3.00915 12.6506 2.98939 12.75 2.98939C12.8494 2.98939 12.9478 3.00915 13.0395 3.04751C13.1312 3.08587 13.2143 3.14207 13.2841 3.21285C13.3539 3.28363 13.4089 3.36757 13.446 3.45979C13.483 3.55202 13.5014 3.65069 13.5 3.75007V3.84871L15.334 2.62605ZM5.5 5.50008C5.5 4.94758 5.0525 4.50008 4.5 4.50008C3.9475 4.50008 3.5 4.94758 3.5 5.50008C3.5 6.05258 3.9475 6.50007 4.5 6.50007C5.0525 6.50007 5.5 6.05258 5.5 5.50008Z" fill="black"/>
<path d="M7.14453 15.5001C7.57353 14.0356 8.914 13.0001 10.5 13.0001C10.7387 13.0001 10.9718 13.0235 11.1971 13.0684C10.8223 13.8088 10.585 14.6306 10.5189 15.5003L10.5 15.5001C9.9475 15.5001 9.5 15.9476 9.5 16.5001C9.5 17.0526 9.9475 17.5001 10.5 17.5001C10.5581 17.5001 10.6151 17.4951 10.6706 17.4856C10.9978 18.8852 11.7773 20.1109 12.8465 21.0001H3.25C2.285 21.0001 1.5 20.2151 1.5 19.2501V18.2501C1.5 16.7341 2.734 15.5001 4.25 15.5001H7.14453Z" fill="black"/>
<path fill-rule="evenodd" clip-rule="evenodd" d="M17 10.5C13.9623 10.5 11.5 12.9623 11.5 16C11.5 19.0376 13.9623 21.5 17 21.5C20.0376 21.5 22.5 19.0376 22.5 16C22.5 12.9623 20.0376 10.5 17 10.5ZM17.0009 13.0195C17.3323 13.0195 17.6009 13.2882 17.6009 13.6195V15.4005H19.3814C19.7128 15.4005 19.9814 15.6691 19.9814 16.0005C19.9814 16.3319 19.7128 16.6005 19.3814 16.6005H17.6009V18.3814C17.6009 18.7128 17.3323 18.9814 17.0009 18.9814C16.6696 18.9814 16.4009 18.7128 16.4009 18.3814V16.6005L14.6195 16.6005C14.2882 16.6005 14.0195 16.3319 14.0195 16.0005C14.0195 15.6691 14.2882 15.4005 14.6195 15.4005L16.4009 15.4005V13.6195C16.4009 13.2882 16.6696 13.0195 17.0009 13.0195Z" fill="black"/>
</svg>
