<svg width="24" height="24" viewBox="0 0 24 24" fill="none" xmlns="http://www.w3.org/2000/svg">
<path fill-rule="evenodd" clip-rule="evenodd" d="M15.75 2.50008C15.6019 2.50009 15.4572 2.54392 15.334 2.62605L13.5 3.84871V3.75007C13.5014 3.65069 13.483 3.55202 13.446 3.45979C13.4089 3.36757 13.3539 3.28363 13.2841 3.21285C13.2143 3.14207 13.1312 3.08587 13.0395 3.04751C12.9478 3.00915 12.8494 2.98939 12.75 2.98939C12.6506 2.98939 12.5522 3.00915 12.4605 3.04751C12.3688 3.08587 12.2857 3.14207 12.2159 3.21285C12.1461 3.28363 12.0911 3.36757 12.054 3.45979C12.017 3.55202 11.9986 3.65069 12 3.75007V4.50008H6.78906C6.40235 3.61838 5.52281 3.00007 4.5 3.00007C3.1215 3.00007 2 4.12158 2 5.50008C2 6.50507 2.60003 7.36772 3.45703 7.76472L6.81055 13.9141C7.59905 12.7781 8.88408 12.0648 10.3301 12.0118L7.05176 6.00008H12V6.75007C11.9986 6.84946 12.017 6.94813 12.054 7.04036C12.0911 7.13258 12.1461 7.21652 12.2159 7.2873C12.2857 7.35808 12.3688 7.41428 12.4605 7.45264C12.5522 7.491 12.6506 7.51076 12.75 7.51076C12.8494 7.51076 12.9478 7.491 13.0395 7.45264C13.1312 7.41428 13.2143 7.35808 13.2841 7.2873C13.3539 7.21652 13.4089 7.13258 13.446 7.04036C13.483 6.94813 13.5014 6.84946 13.5 6.75007V6.65144L15.334 7.8741C15.4572 7.95623 15.6019 8.00006 15.75 8.00007H18.75C18.8494 8.00148 18.9481 7.98312 19.0403 7.94606C19.1325 7.909 19.2164 7.85398 19.2872 7.78419C19.358 7.71441 19.4142 7.63126 19.4526 7.53956C19.4909 7.44787 19.5107 7.34947 19.5107 7.25007C19.5107 7.15068 19.4909 7.05228 19.4526 6.96059C19.4142 6.86889 19.358 6.78574 19.2872 6.71595C19.2164 6.64617 19.1325 6.59115 19.0403 6.55409C18.9481 6.51703 18.8494 6.49867 18.75 6.50007H15.9775L14.1025 5.25008L15.9775 4.00007H18.75C18.8494 4.00148 18.9481 3.98312 19.0403 3.94606C19.1325 3.909 19.2164 3.85398 19.2872 3.7842C19.358 3.71441 19.4142 3.63126 19.4526 3.53956C19.4909 3.44787 19.5107 3.34947 19.5107 3.25007C19.5107 3.15068 19.4909 3.05228 19.4526 2.96059C19.4142 2.86889 19.358 2.78574 19.2872 2.71595C19.2164 2.64617 19.1325 2.59115 19.0403 2.55409C18.9481 2.51703 18.8494 2.49867 18.75 2.50008H15.75ZM4.5 4.50008C5.0525 4.50008 5.5 4.94758 5.5 5.50008C5.5 6.05258 5.0525 6.50007 4.5 6.50007C3.9475 6.50007 3.5 6.05258 3.5 5.50008C3.5 4.94758 3.9475 4.50008 4.5 4.50008ZM10.5 13.0001C8.914 13.0001 7.57353 14.0356 7.14453 15.5001H4.25C2.734 15.5001 1.5 16.7341 1.5 18.2501V19.2501C1.5 20.2151 2.285 21.0001 3.25 21.0001H12.8465C11.7773 20.1109 10.9978 18.8852 10.6706 17.4856C10.6151 17.4951 10.5581 17.5001 10.5 17.5001C9.9475 17.5001 9.5 17.0526 9.5 16.5001C9.5 15.9476 9.9475 15.5001 10.5 15.5001L10.5189 15.5003C10.585 14.6306 10.8223 13.8088 11.1971 13.0684C10.9718 13.0235 10.7387 13.0001 10.5 13.0001ZM11.5 16C11.5 12.9623 13.9623 10.5 17 10.5C20.0376 10.5 22.5 12.9623 22.5 16C22.5 19.0376 20.0376 21.5 17 21.5C13.9623 21.5 11.5 19.0376 11.5 16ZM19.0793 18.079C19.2404 17.9178 19.2404 17.6569 19.0793 17.4957L17.5833 16L19.079 14.5043C19.2402 14.3431 19.2402 14.0822 19.079 13.921C18.9179 13.7599 18.6569 13.7599 18.4957 13.921L17 15.4167L15.5043 13.921C15.3431 13.7599 15.0822 13.7599 14.921 13.921C14.7599 14.0822 14.7599 14.3431 14.921 14.5043L16.4167 16L14.9207 17.496C14.7596 17.6572 14.7596 17.9181 14.9207 18.0793C15.0013 18.1599 15.1069 18.2 15.2125 18.2C15.3181 18.2 15.4237 18.1599 15.5043 18.079L17 16.5833L18.4957 18.0793C18.5763 18.1599 18.6819 18.2 18.7875 18.2C18.8931 18.2 18.9987 18.1599 19.0793 18.079Z" fill="black"/>
</svg>
