<svg width="24" height="24" viewBox="0 0 24 24" fill="none" xmlns="http://www.w3.org/2000/svg">
<path d="M6.25 3C4.458 3 3 4.458 3 6.25V17.75C3 19.542 4.458 21 6.25 21H12.5283C12.2313 20.5365 11.9899 20.034 11.8174 19.5H6.25C5.285 19.5 4.5 18.715 4.5 17.75V8.5H19.5V11.1807C20.0275 11.3057 20.531 11.4928 21 11.7373V6.25C21 4.458 19.542 3 17.75 3H6.25ZM6.25 4.5H17.75C18.715 4.5 19.5 5.285 19.5 6.25V7H4.5V6.25C4.5 5.285 5.285 4.5 6.25 4.5ZM7.70312 10.5C7.3716 10.5 7.05366 10.6317 6.81924 10.8661C6.58482 11.1005 6.45312 11.4185 6.45312 11.75C6.45312 12.0815 6.58482 12.3995 6.81924 12.6339C7.05366 12.8683 7.3716 13 7.70312 13C8.03465 13 8.35259 12.8683 8.58701 12.6339C8.82143 12.3995 8.95312 12.0815 8.95312 11.75C8.95312 11.4185 8.82143 11.1005 8.58701 10.8661C8.35259 10.6317 8.03465 10.5 7.70312 10.5ZM11.9531 10.5C11.6216 10.5 11.3037 10.6317 11.0692 10.8661C10.8348 11.1005 10.7031 11.4185 10.7031 11.75C10.7031 12.0815 10.8348 12.3995 11.0692 12.6339C11.3037 12.8683 11.6216 13 11.9531 13C12.2846 13 12.6026 12.8683 12.837 12.6339C13.0714 12.3995 13.2031 12.0815 13.2031 11.75C13.2031 11.4185 13.0714 11.1005 12.837 10.8661C12.6026 10.6317 12.2846 10.5 11.9531 10.5ZM18 12C17.7065 12 17.4192 12.0248 17.1387 12.0723L16.9658 12.7881C16.6973 13.9006 15.5526 14.5618 14.4551 14.2373L13.8525 14.0586C13.4905 14.5251 13.2005 15.0554 13 15.6289L13.4473 16.0586C14.2648 16.8456 14.2648 18.1544 13.4473 18.9414L13 19.3711C13.2005 19.9446 13.49 20.4744 13.8525 20.9414L14.4551 20.7627C15.5526 20.4382 16.6973 21.0994 16.9658 22.2119L17.1387 22.9277C17.4192 22.9752 17.7065 23 18 23C18.2935 23 18.5808 22.9752 18.8613 22.9277L19.0342 22.2119C19.3027 21.0994 20.4474 20.4382 21.5449 20.7627L22.1475 20.9414C22.5095 20.4749 22.7995 19.9446 23 19.3711L22.5527 18.9414C21.7352 18.1549 21.7352 16.8451 22.5527 16.0586L23 15.6289C22.7995 15.0554 22.51 14.5256 22.1475 14.0586L21.5449 14.2373C20.4474 14.5618 19.3027 13.9006 19.0342 12.7881L18.8613 12.0723C18.5808 12.0248 18.2935 12 18 12ZM7.70312 15C7.3716 15 7.05366 15.1317 6.81924 15.3661C6.58482 15.6005 6.45312 15.9185 6.45312 16.25C6.45312 16.5815 6.58482 16.8995 6.81924 17.1339C7.05366 17.3683 7.3716 17.5 7.70312 17.5C8.03465 17.5 8.35259 17.3683 8.58701 17.1339C8.82143 16.8995 8.95312 16.5815 8.95312 16.25C8.95312 15.9185 8.82143 15.6005 8.58701 15.3661C8.35259 15.1317 8.03465 15 7.70312 15ZM18 16C18.8285 16 19.5 16.6715 19.5 17.5C19.5 18.3285 18.8285 19 18 19C17.1715 19 16.5 18.3285 16.5 17.5C16.5 16.6715 17.1715 16 18 16Z" fill="black"/>
</svg>
