<svg width="24" height="24" viewBox="0 0 24 24" fill="none" xmlns="http://www.w3.org/2000/svg">
<path d="M14.5 2.25008C14.4006 2.24867 14.3019 2.26703 14.2097 2.30409C14.1175 2.34115 14.0336 2.39617 13.9628 2.46595C13.892 2.53574 13.8358 2.61889 13.7974 2.71059C13.7591 2.80228 13.7393 2.90068 13.7393 3.00007C13.7393 3.09947 13.7591 3.19787 13.7974 3.28956C13.8358 3.38126 13.892 3.46441 13.9628 3.5342C14.0336 3.60398 14.1175 3.659 14.2097 3.69606C14.3019 3.73312 14.4006 3.75148 14.5 3.75007H19.6074L15.0117 8.3448C15.0016 8.35558 14.9919 8.36665 14.9824 8.378C13.5573 7.2055 11.7343 6.50007 9.75 6.50007C5.20253 6.50007 1.5 10.2026 1.5 14.7501C1.5 19.2975 5.20253 23.0001 9.75 23.0001C14.2975 23.0001 18 19.2975 18 14.7501C18 12.7244 17.2617 10.8695 16.0449 9.43172C16.0546 9.42317 16.064 9.41438 16.0732 9.40535L20.75 4.72859V10.0001C20.7486 10.0995 20.767 10.1981 20.804 10.2904C20.8411 10.3826 20.8961 10.4665 20.9659 10.5373C21.0357 10.6081 21.1188 10.6643 21.2105 10.7026C21.3022 10.741 21.4006 10.7608 21.5 10.7608C21.5994 10.7608 21.6978 10.741 21.7895 10.7026C21.8812 10.6643 21.9643 10.6081 22.0341 10.5373C22.1039 10.4665 22.1589 10.3826 22.196 10.2904C22.233 10.1981 22.2514 10.0995 22.25 10.0001V3.00007C22.25 2.80117 22.171 2.61041 22.0303 2.46977C21.8897 2.32912 21.6989 2.25009 21.5 2.25008H14.5ZM9.75 8.00007C13.4868 8.00007 16.5 11.0133 16.5 14.7501C16.5 18.4869 13.4868 21.5001 9.75 21.5001C6.01319 21.5001 3 18.4869 3 14.7501C3 11.0133 6.01319 8.00007 9.75 8.00007Z" fill="black"/>
</svg>
