<svg width="24" height="24" viewBox="0 0 24 24" fill="none" xmlns="http://www.w3.org/2000/svg">
<path d="M10.31 11.32C9.34755 11.32 8.5236 10.9773 7.83818 10.2919C7.15277 9.60648 6.81006 8.78253 6.81006 7.82004C6.81006 6.85754 7.15277 6.03359 7.83818 5.34819C8.5236 4.66278 9.34755 4.32007 10.31 4.32007C11.2725 4.32007 12.0965 4.66278 12.7819 5.34819C13.4673 6.03359 13.81 6.85754 13.81 7.82004C13.81 8.78253 13.4673 9.60648 12.7819 10.2919C12.0965 10.9773 11.2725 11.32 10.31 11.32ZM3.71751 18.9354C3.45743 18.9354 3.24117 18.8488 3.06873 18.6755C2.89628 18.5023 2.81006 18.2876 2.81006 18.0315V16.7123C2.81006 16.2072 2.93891 15.7498 3.19661 15.3402C3.45429 14.9306 3.8139 14.6136 4.27543 14.3893C5.10622 13.9752 6.00365 13.6293 6.96773 13.3518C7.93183 13.0742 9.04593 12.9354 10.31 12.9354H10.6023C10.6831 12.9354 10.7703 12.9457 10.8639 12.9662C10.7626 13.2021 10.6789 13.4425 10.6129 13.6873C10.5469 13.9322 10.4921 14.1816 10.4485 14.4354H10.31C9.15875 14.4354 8.13952 14.5678 7.25236 14.8325C6.36518 15.0973 5.60235 15.3956 4.96388 15.7277C4.73697 15.8495 4.57126 15.9918 4.46676 16.1546C4.36228 16.3175 4.31003 16.5034 4.31003 16.7123V17.4354H10.61C10.6844 17.6892 10.7809 17.9469 10.8995 18.2084C11.018 18.47 11.1485 18.7123 11.2908 18.9354H3.71751ZM10.31 9.82004C10.86 9.82004 11.3309 9.62421 11.7225 9.23254C12.1142 8.84088 12.31 8.37004 12.31 7.82004C12.31 7.27004 12.1142 6.79921 11.7225 6.40754C11.3309 6.01588 10.86 5.82004 10.31 5.82004C9.76003 5.82004 9.2892 6.01588 8.89753 6.40754C8.50587 6.79921 8.31003 7.27004 8.31003 7.82004C8.31003 8.37004 8.50587 8.84088 8.89753 9.23254C9.2892 9.62421 9.76003 9.82004 10.31 9.82004ZM17.1186 17.1661C17.6424 17.1661 18.0905 16.9796 18.4629 16.6066C18.8353 16.2336 19.0216 15.7853 19.0216 15.2615C19.0216 14.7377 18.8351 14.2896 18.4621 13.9171C18.0891 13.5447 17.6407 13.3585 17.1169 13.3585C16.5931 13.3585 16.145 13.545 15.7725 13.918C15.4001 14.291 15.2139 14.7394 15.2139 15.2632C15.2139 15.787 15.4004 16.2351 15.7734 16.6075C16.1464 16.9799 16.5948 17.1661 17.1186 17.1661ZM16.1927 18.3488C15.9543 18.2783 15.7299 18.186 15.5197 18.0719C15.3094 17.9578 15.1094 17.8148 14.9197 17.643L13.96 17.9776C13.8629 18.011 13.7727 18.0084 13.6894 17.97C13.6061 17.9315 13.5367 17.8687 13.4812 17.7815L13.112 17.1661C13.0582 17.0854 13.0405 16.9963 13.0591 16.8988C13.0777 16.8014 13.1274 16.7206 13.2081 16.6565L13.9754 16.0277C13.9037 15.7687 13.8678 15.5136 13.8678 15.2623C13.8678 15.011 13.9037 14.7559 13.9754 14.4969L13.2178 13.8488C13.137 13.7847 13.0873 13.704 13.0687 13.6065C13.0501 13.5091 13.0678 13.4168 13.1216 13.3296L13.4908 12.7143C13.5463 12.6356 13.6157 12.5782 13.699 12.5418C13.7823 12.5055 13.8725 12.504 13.9697 12.5373L14.9197 12.872C15.103 12.7002 15.3014 12.5588 15.5149 12.4479C15.7283 12.337 15.9543 12.2463 16.1927 12.1758L16.36 11.1816C16.388 11.0845 16.4369 11.0048 16.5067 10.9425C16.5765 10.8801 16.6603 10.8489 16.7581 10.8489H17.4965C17.5974 10.8489 17.6838 10.88 17.7558 10.9422C17.8278 11.0043 17.8741 11.0841 17.8946 11.1816L18.0523 12.1758C18.2908 12.2463 18.5167 12.3396 18.7302 12.4556C18.9437 12.5716 19.1421 12.7207 19.3254 12.9027L20.26 12.5373C20.3574 12.4938 20.4517 12.4938 20.5429 12.5373C20.6341 12.5809 20.7077 12.6463 20.7638 12.7335L21.1331 13.3796C21.1869 13.4604 21.2055 13.5479 21.1888 13.6421C21.1721 13.7364 21.1234 13.8155 21.0427 13.8796L20.2696 14.5277C20.3414 14.7682 20.3773 15.0187 20.3773 15.2792C20.3773 15.5397 20.3414 15.7892 20.2696 16.0277L21.0369 16.6565C21.1241 16.7206 21.1737 16.803 21.1859 16.9036C21.1981 17.0043 21.1773 17.0982 21.1234 17.1854L20.7542 17.8007C20.6998 17.8794 20.6318 17.9369 20.5502 17.9732C20.4686 18.0095 20.3802 18.011 20.285 17.9776L19.3254 17.643C19.1357 17.8148 18.9357 17.9578 18.7254 18.0719C18.5151 18.186 18.2908 18.2783 18.0523 18.3488L17.8946 19.343C17.8741 19.4405 17.8278 19.5203 17.7558 19.5825C17.6838 19.6446 17.5974 19.6757 17.4965 19.6757H16.7581C16.6603 19.6757 16.5765 19.6445 16.5067 19.5822C16.4369 19.5198 16.388 19.4401 16.36 19.343L16.1927 18.3488Z" fill="black"/>
</svg>
