<svg width="24" height="24" viewBox="0 0 24 24" fill="none" xmlns="http://www.w3.org/2000/svg">
<path d="M10.31 11.32C9.34467 11.32 8.51999 10.978 7.83601 10.294C7.15204 9.61008 6.81006 8.78541 6.81006 7.82004C6.81006 6.85466 7.15204 6.02999 7.83601 5.34602C8.51999 4.66205 9.34467 4.32007 10.31 4.32007C11.2754 4.32007 12.1001 4.66205 12.7841 5.34602C13.468 6.02999 13.81 6.85466 13.81 7.82004C13.81 8.78541 13.468 9.61008 12.7841 10.294C12.1001 10.978 11.2754 11.32 10.31 11.32ZM3.71391 18.9354C3.45623 18.9354 3.24117 18.8492 3.06873 18.6767C2.89628 18.5043 2.81006 18.2892 2.81006 18.0315V16.7123C2.81006 16.2072 2.93891 15.7498 3.19661 15.3402C3.45429 14.9306 3.8139 14.6136 4.27543 14.3893C5.10622 13.9752 6.00365 13.6293 6.96773 13.3518C7.93183 13.0742 9.04593 12.9354 10.31 12.9354H10.6023C10.6831 12.9354 10.7703 12.9457 10.8639 12.9662C10.7626 13.2021 10.6789 13.4425 10.6129 13.6873C10.5469 13.9322 10.4921 14.1816 10.4485 14.4354C10.3652 15.029 10.3354 15.5315 10.3591 15.9431C10.3828 16.3546 10.4665 16.8521 10.61 17.4354C10.6844 17.6892 10.7809 17.9469 10.8995 18.2084C11.018 18.47 11.1485 18.7123 11.2908 18.9354H3.71391ZM17.1177 17.1661C17.6421 17.1661 18.0905 16.9799 18.4629 16.6075C18.8353 16.2351 19.0216 15.7867 19.0216 15.2623C19.0216 14.738 18.8353 14.2896 18.4629 13.9171C18.0905 13.5447 17.6421 13.3585 17.1177 13.3585C16.5934 13.3585 16.145 13.5447 15.7725 13.9171C15.4001 14.2896 15.2139 14.738 15.2139 15.2623C15.2139 15.7867 15.4001 16.2351 15.7725 16.6075C16.145 16.9799 16.5934 17.1661 17.1177 17.1661ZM16.1927 18.3488C15.9543 18.2783 15.7299 18.186 15.5197 18.0719C15.3094 17.9578 15.1094 17.8148 14.9197 17.643L13.96 17.9776C13.8626 18.011 13.7719 18.0084 13.6879 17.97C13.604 17.9315 13.5351 17.8687 13.4812 17.7815L13.112 17.1661C13.0582 17.0854 13.0405 16.9963 13.0591 16.8988C13.0777 16.8014 13.1274 16.7206 13.2081 16.6565L13.9754 16.0277C13.9037 15.7687 13.8678 15.5136 13.8678 15.2623C13.8678 15.011 13.9037 14.7559 13.9754 14.4969L13.2178 13.8488C13.137 13.7847 13.0873 13.704 13.0687 13.6065C13.0501 13.5091 13.0678 13.4168 13.1216 13.3296L13.4908 12.7143C13.5447 12.6335 13.6136 12.5755 13.6976 12.5402C13.7815 12.505 13.8722 12.504 13.9697 12.5373L14.9197 12.872C15.103 12.7002 15.3014 12.5588 15.5149 12.4479C15.7283 12.337 15.9543 12.2463 16.1927 12.1758L16.36 11.1816C16.387 11.0841 16.4357 11.0043 16.5062 10.9422C16.5767 10.88 16.6607 10.8489 16.7581 10.8489H17.4965C17.6004 10.8489 17.6876 10.88 17.7581 10.9422C17.8286 11.0043 17.8741 11.0841 17.8946 11.1816L18.0523 12.1758C18.2908 12.2463 18.5167 12.3396 18.7302 12.4556C18.9437 12.5716 19.1421 12.7207 19.3254 12.9027L20.26 12.5373C20.3574 12.4938 20.4523 12.4938 20.5446 12.5373C20.6369 12.5809 20.71 12.6463 20.7638 12.7335L21.1331 13.3796C21.1869 13.4604 21.2055 13.5479 21.1888 13.6421C21.1721 13.7364 21.1234 13.8155 21.0427 13.8796L20.2696 14.5277C20.3414 14.7661 20.3773 15.0161 20.3773 15.2777C20.3773 15.5392 20.3414 15.7892 20.2696 16.0277L21.0369 16.6565C21.1241 16.7206 21.1737 16.803 21.1859 16.9036C21.1981 17.0043 21.1773 17.0982 21.1234 17.1854L20.7542 17.8007C20.7004 17.8815 20.6331 17.9395 20.5523 17.9748C20.4715 18.01 20.3824 18.011 20.285 17.9776L19.3254 17.643C19.1357 17.8148 18.9357 17.9578 18.7254 18.0719C18.5151 18.186 18.2908 18.2783 18.0523 18.3488L17.8946 19.343C17.8741 19.4405 17.8286 19.5203 17.7581 19.5825C17.6876 19.6446 17.6004 19.6757 17.4965 19.6757H16.7581C16.6607 19.6757 16.5767 19.6446 16.5062 19.5825C16.4357 19.5203 16.387 19.4405 16.36 19.343L16.1927 18.3488Z" fill="black"/>
</svg>
