<svg width="24" height="24" viewBox="0 0 24 24" fill="none" xmlns="http://www.w3.org/2000/svg">
<path d="M11 2C9.67392 2 8.40215 2.52678 7.46447 3.46447C6.52678 4.40215 6 5.67392 6 7C6 8.32608 6.52678 9.59785 7.46447 10.5355C8.40215 11.4732 9.67392 12 11 12C12.3261 12 13.5979 11.4732 14.5355 10.5355C15.4732 9.59785 16 8.32608 16 7C16 5.67392 15.4732 4.40215 14.5355 3.46447C13.5979 2.52678 12.3261 2 11 2Z" fill="black"/>
<path d="M12.6805 21.7327C12.798 21.7797 12.9173 21.8173 13.0377 21.8455C12.3655 21.9491 11.6782 22 11 22C8.976 22 7.077 21.5675 5.6535 20.7815C3.9425 19.838 3 18.406 3 16.75V15.9895C3 14.8925 3.8925 14 4.9895 14H11.3498L11.2591 14.1512L11.2544 14.1592C10.9694 14.6478 10.857 15.2037 10.9413 15.7723C11.0284 16.3605 11.3186 16.8621 11.7501 17.2338L11.7501 17.24L11.7501 17.2462C11.3063 17.6288 11.0238 18.1421 10.9401 18.7279C10.8603 19.2868 10.9631 19.8428 11.2503 20.3388L11.4654 20.7152L11.4846 20.7453C11.7758 21.2029 12.1904 21.5367 12.6805 21.7327Z" fill="black"/>
<path fill-rule="evenodd" clip-rule="evenodd" d="M15.7001 20.74L15.8501 21.44C15.9001 21.6733 16.0126 21.865 16.1876 22.015C16.3626 22.165 16.5667 22.24 16.8001 22.24H17.2001C17.4334 22.24 17.6376 22.1692 17.8126 22.0275C17.9876 21.8858 18.1001 21.6983 18.1501 21.465L18.3001 20.74C18.5001 20.6567 18.6876 20.5692 18.8626 20.4775C19.0376 20.3858 19.2167 20.2733 19.4001 20.14L20.1251 20.365C20.3417 20.4317 20.5501 20.4233 20.7501 20.34C20.9501 20.2567 21.1084 20.1233 21.2251 19.94L21.4501 19.565C21.5667 19.365 21.6084 19.1525 21.5751 18.9275C21.5417 18.7025 21.4334 18.515 21.2501 18.365L20.7001 17.89C20.7334 17.69 20.7501 17.4817 20.7501 17.265C20.7501 17.0483 20.7334 16.84 20.7001 16.64L21.2501 16.165C21.4334 16.015 21.5417 15.8233 21.5751 15.59C21.6084 15.3567 21.5667 15.14 21.4501 14.94L21.2501 14.59C21.1334 14.39 20.9667 14.2483 20.7501 14.165C20.5334 14.0817 20.3084 14.0817 20.0751 14.165L19.4001 14.39C19.2167 14.24 19.0376 14.115 18.8626 14.015C18.6876 13.915 18.5001 13.8233 18.3001 13.74L18.1501 13.04C18.1001 12.8067 17.9876 12.615 17.8126 12.465C17.6376 12.315 17.4334 12.24 17.2001 12.24H16.8001C16.5667 12.24 16.3626 12.3108 16.1876 12.4525C16.0126 12.5942 15.9001 12.7817 15.8501 13.015L15.7001 13.74C15.5001 13.8233 15.3126 13.9108 15.1376 14.0025C14.9626 14.0942 14.7834 14.2067 14.6001 14.34L13.8751 14.115C13.6584 14.0483 13.4501 14.0567 13.2501 14.14C13.0501 14.2233 12.8917 14.3567 12.7751 14.54L12.5501 14.915C12.4334 15.115 12.3917 15.3275 12.4251 15.5525C12.4584 15.7775 12.5667 15.965 12.7501 16.115L13.3001 16.59C13.2667 16.8233 13.2501 17.04 13.2501 17.24C13.2501 17.44 13.2667 17.6567 13.3001 17.89L12.7501 18.365C12.5667 18.515 12.4584 18.7067 12.4251 18.94C12.3917 19.1733 12.4334 19.39 12.5501 19.59L12.7501 19.94C12.8667 20.1233 13.0292 20.2567 13.2376 20.34C13.4459 20.4233 13.6584 20.4317 13.8751 20.365L14.6001 20.14C14.7834 20.2733 14.9626 20.3858 15.1376 20.4775C15.3126 20.5692 15.5001 20.6567 15.7001 20.74ZM18.4125 18.6525C18.0208 19.0442 17.55 19.24 17 19.24C16.45 19.24 15.9792 19.0442 15.5875 18.6525C15.1958 18.2608 15 17.79 15 17.24C15 16.69 15.1958 16.2192 15.5875 15.8275C15.9792 15.4358 16.45 15.24 17 15.24C17.55 15.24 18.0208 15.4358 18.4125 15.8275C18.8042 16.2192 19 16.69 19 17.24C19 17.79 18.8042 18.2608 18.4125 18.6525Z" fill="black"/>
</svg>
