<svg width="24" height="24" viewBox="0 0 24 24" fill="none" xmlns="http://www.w3.org/2000/svg">
<path d="M7.2499 2C6.5681 2 5.9999 2.5682 5.9999 3.25V4.66992C5.9999 5.29703 6.33752 5.87848 6.88173 6.18945L11.2499 8.68555V8.95215C11.0959 9.07165 10.9466 9.20553 10.8563 9.4082L10.869 9.38086L9.39736 12.3594L6.06337 12.8506C6.05095 12.8526 6.03857 12.8548 6.02626 12.8574C5.63963 12.9344 5.21034 13.2627 5.07997 13.7393C4.91985 14.2293 5.08811 14.7054 5.36806 14.9854C5.37192 14.9893 5.37583 14.9932 5.37978 14.9971L7.79579 17.3076L7.23622 20.5586L7.24013 20.54C7.1489 20.9985 7.32548 21.513 7.79384 21.7822C8.18067 22.03 8.66275 22.0262 8.99892 21.8916C9.0212 21.8826 9.04304 21.8725 9.06435 21.8613L12.0507 20.3154L15.037 21.8613C15.0406 21.8633 15.0442 21.8653 15.0477 21.8672C15.3047 21.9948 15.5391 21.9844 15.6171 21.9844C15.9005 21.9844 16.098 21.8913 16.1698 21.8672C16.2452 21.8418 16.3161 21.8045 16.3798 21.7568C16.7617 21.471 16.985 21.0307 16.8544 20.5049L16.8651 20.5586L16.3065 17.3066L18.7216 14.9961C18.8077 14.9137 18.873 14.8119 18.912 14.6992C18.9878 14.4792 19.0748 14.1026 18.9003 13.667C18.7323 13.2476 18.3789 12.9611 17.9931 12.8652C17.9695 12.8592 17.9458 12.8543 17.9218 12.8506L14.5878 12.3594L13.1161 9.38086L13.1288 9.4082C13.0417 9.21256 12.8969 9.08591 12.7499 8.96777V8.68555L17.1181 6.18945C17.6623 5.87848 17.9999 5.29703 17.9999 4.66992V3.25C17.9999 2.5682 17.4317 2 16.7499 2H7.2499ZM7.4999 3.5H16.4999V4.66992C16.4999 4.76082 16.4527 4.84169 16.3739 4.88672L11.9999 7.38574L7.62587 4.88672C7.54708 4.84169 7.4999 4.76082 7.4999 4.66992V3.5ZM11.9852 10.5098C11.9905 10.5101 11.9957 10.5105 12.0009 10.5107L13.4169 13.377C13.4707 13.4856 13.5501 13.5796 13.6483 13.6509C13.7464 13.7222 13.8604 13.7686 13.9804 13.7861L17.3046 14.2764L14.9813 16.499C14.8926 16.5839 14.8261 16.6893 14.7876 16.806C14.7491 16.9226 14.7398 17.0469 14.7606 17.168L15.3007 20.3086L12.3954 18.8047C12.2889 18.7496 12.1706 18.7208 12.0507 18.7208C11.9307 18.7208 11.8125 18.7496 11.706 18.8047L8.80165 20.3086L9.34169 17.1689C9.36249 17.0479 9.35324 16.9236 9.31475 16.807C9.27627 16.6903 9.20973 16.5849 9.12099 16.5L6.78115 14.2617L10.0048 13.7861C10.1248 13.7686 10.2387 13.7222 10.3369 13.6509C10.435 13.5796 10.5144 13.4856 10.5683 13.377L11.9852 10.5098Z" fill="black"/>
</svg>
