<svg width="24" height="24" viewBox="0 0 24 24" fill="none" xmlns="http://www.w3.org/2000/svg">
<path fill-rule="evenodd" clip-rule="evenodd" d="M18.5605 2.74112C18.7695 2.66977 18.9812 2.64154 19.1875 2.65128C19.2563 2.65452 19.3243 2.66238 19.3916 2.67374C20.1993 2.81006 20.8753 3.51375 20.876 4.39639V9.39835C21.6078 9.69559 22.125 10.4114 22.125 11.2499C22.125 12.0884 21.6078 12.8042 20.876 13.1015V17.6015C20.876 18.7786 19.6754 19.6383 18.5615 19.2587L8.97363 15.9901L8.37598 15.9442V19.4296C8.37598 20.5637 7.43979 21.4989 6.30566 21.4989C5.25765 21.4989 4.36491 20.7007 4.24902 19.6591L3.84255 15.9999H3.835L3.78666 15.5164C2.67465 15.1584 1.875 14.1103 1.875 12.8983V9.10147C1.875 7.67154 2.98811 6.46974 4.41406 6.36026L8.97266 6.00968L18.5605 2.74112ZM19.376 4.39835C19.3759 4.25274 19.2926 4.1569 19.1738 4.14444C19.1342 4.14029 19.0906 4.14543 19.0449 4.16104L9.875 7.28702V12.2499C9.87641 12.3493 9.85804 12.448 9.82098 12.5402C9.78392 12.6324 9.7289 12.7164 9.65912 12.7871C9.58934 12.8579 9.50618 12.9141 9.41449 12.9525C9.3228 12.9908 9.22439 13.0106 9.125 13.0106C9.02561 13.0106 8.9272 12.9908 8.83551 12.9525C8.74382 12.9141 8.66066 12.8579 8.59088 12.7871C8.5211 12.7164 8.46608 12.6324 8.42902 12.5402C8.39196 12.448 8.37359 12.3493 8.375 12.2499V7.56046L4.5293 7.85538C3.87125 7.9059 3.375 8.4414 3.375 9.10147V12.8983C3.375 13.5584 3.87125 14.0939 4.5293 14.1444C4.70391 14.1573 4.86852 14.2308 4.99462 14.3523C5.12071 14.4737 5.20035 14.6355 5.21973 14.8095L5.74023 19.4931C5.77279 19.787 6.009 19.9989 6.30566 19.9989C6.62854 19.9989 6.87598 19.7525 6.87598 19.4296V15.1337C6.87596 15.0304 6.89727 14.9283 6.93858 14.8336C6.97989 14.7389 7.04029 14.6538 7.11602 14.5836C7.19175 14.5134 7.28116 14.4596 7.37866 14.4255C7.47615 14.3914 7.57963 14.3779 7.68262 14.3857L9.18262 14.5019C9.2455 14.5067 9.30751 14.5195 9.36719 14.5399L19.0449 17.8388C19.2281 17.9012 19.376 17.7954 19.376 17.6015V4.39835Z" fill="black"/>
</svg>
