<svg width="24" height="24" viewBox="0 0 24 24" fill="none" xmlns="http://www.w3.org/2000/svg">
<path d="M18.9678 2.65535C18.8301 2.66759 18.6929 2.69591 18.5596 2.74129L9.875 5.70223V16.2979L18.5605 19.2589C19.0935 19.4404 19.6851 19.353 20.1436 19.0255C20.6011 18.698 20.875 18.1661 20.875 17.6026V13.1016C21.6073 12.8046 22.125 12.0889 22.125 11.2501C22.125 10.4113 21.6073 9.69554 20.875 9.39851V4.39754C20.875 3.83404 20.6016 3.30219 20.1436 2.97469C19.7997 2.72869 19.3807 2.61862 18.9678 2.65535ZM8.375 6.05574L4.41406 6.36043C2.98956 6.46993 1.875 7.67364 1.875 9.10164V12.8985C1.875 14.2885 2.93226 15.4665 4.30176 15.629L4.77539 19.8936C4.87689 20.8091 5.64881 21.5001 6.57031 21.5001C7.56581 21.5001 8.375 20.6899 8.375 19.6944V6.05574Z" fill="black"/>
</svg>
