<svg width="24" height="24" viewBox="0 0 24 24" fill="none" xmlns="http://www.w3.org/2000/svg">
<path fill-rule="evenodd" clip-rule="evenodd" d="M12 2C11.2707 2 10.5712 2.28973 10.0555 2.80546C9.53973 3.32118 9.25 4.02065 9.25 4.75C9.25 5.47935 9.53973 6.17882 10.0555 6.69454C10.5712 7.21027 11.2707 7.5 12 7.5C12.7293 7.5 13.4288 7.21027 13.9445 6.69454C14.4603 6.17882 14.75 5.47935 14.75 4.75C14.75 4.02065 14.4603 3.32118 13.9445 2.80546C13.4288 2.28973 12.7293 2 12 2ZM11.1161 3.86612C11.3505 3.6317 11.6685 3.5 12 3.5C12.3315 3.5 12.6495 3.6317 12.8839 3.86612C13.1183 4.10054 13.25 4.41848 13.25 4.75C13.25 5.08152 13.1183 5.39946 12.8839 5.63388C12.6495 5.8683 12.3315 6 12 6C11.6685 6 11.3505 5.8683 11.1161 5.63388C10.8817 5.39946 10.75 5.08152 10.75 4.75C10.75 4.41848 10.8817 4.10054 11.1161 3.86612Z" fill="black"/>
<path fill-rule="evenodd" clip-rule="evenodd" d="M9 8.5C7.39793 8.5 5.88442 9.30492 4.46967 10.7197C4.17678 11.0126 4.17678 11.4874 4.46967 11.7803C4.76256 12.0732 5.23744 12.0732 5.53033 11.7803C6.53432 10.7763 7.476 10.2373 8.3586 10.0635L9.25 16.3033V21.25C9.25 21.6642 9.58579 22 10 22C10.4142 22 10.75 21.6642 10.75 21.25V17H13.25V21.25C13.25 21.6642 13.5858 22 14 22C14.4142 22 14.75 21.6642 14.75 21.25V16.3033L15.6414 10.0635C16.524 10.2373 17.4657 10.7763 18.4697 11.7803C18.7626 12.0732 19.2374 12.0732 19.5303 11.7803C19.8232 11.4874 19.8232 11.0126 19.5303 10.7197C18.1156 9.30492 16.6021 8.5 15 8.5H9ZM9.86476 10L10.6505 15.5H13.3495L14.1352 10H9.86476Z" fill="black"/>
</svg>
