<svg width="24" height="24" viewBox="0 0 24 24" fill="none" xmlns="http://www.w3.org/2000/svg">
<path fill-rule="evenodd" clip-rule="evenodd" d="M12 1.25C11.0054 1.25 10.0516 1.64509 9.34835 2.34835C8.64509 3.05161 8.25 4.00544 8.25 5V10C8.25 10.9946 8.64509 11.9484 9.34835 12.6517C10.0516 13.3549 11.0054 13.75 12 13.75C12.9946 13.75 13.9484 13.3549 14.6517 12.6517C15.3549 11.9484 15.75 10.9946 15.75 10V5C15.75 4.00544 15.3549 3.05161 14.6517 2.34835C13.9484 1.64509 12.9946 1.25 12 1.25Z" fill="black"/>
<path d="M5.75 10C5.75 9.58579 5.41421 9.25 5 9.25C4.58579 9.25 4.25 9.58579 4.25 10C4.25 12.0554 5.06652 14.0267 6.51992 15.4801C7.79547 16.7556 9.46988 17.5406 11.25 17.7136V20.25H8C7.58579 20.25 7.25 20.5858 7.25 21C7.25 21.4142 7.58579 21.75 8 21.75H16C16.4142 21.75 16.75 21.4142 16.75 21C16.75 20.5858 16.4142 20.25 16 20.25H12.75V17.7136C14.5301 17.5406 16.2045 16.7556 17.4801 15.4801C18.9335 14.0267 19.75 12.0554 19.75 10C19.75 9.58579 19.4142 9.25 19 9.25C18.5858 9.25 18.25 9.58579 18.25 10C18.25 11.6576 17.5915 13.2473 16.4194 14.4194C15.2473 15.5915 13.6576 16.25 12 16.25C10.3424 16.25 8.75268 15.5915 7.58058 14.4194C6.40848 13.2473 5.75 11.6576 5.75 10Z" fill="black"/>
</svg>
