<svg width="24" height="24" viewBox="0 0 24 24" fill="none" xmlns="http://www.w3.org/2000/svg">
<path d="M12.75 3.56543C11.8958 3.56543 11.1602 3.91177 10.6895 4.44141C10.2187 4.97104 10 5.64876 10 6.31543C10 6.74437 10.1011 7.17392 10.291 7.56934C10.2771 7.569 10.264 7.56543 10.25 7.56543H3.75C2.79252 7.56543 2 8.35795 2 9.31543V15.8154C2 16.7729 2.79252 17.5654 3.75 17.5654H7.65723C8.21782 19.8599 10.2913 21.5654 12.75 21.5654C14.7576 21.5654 16.507 20.4256 17.3896 18.7617C17.8052 18.9544 18.2658 19.0654 18.75 19.0654C20.5358 19.0654 22 17.6012 22 15.8154V10.8154C22 10.6165 21.921 10.4258 21.7803 10.2851C21.6397 10.1445 21.4489 10.0654 21.25 10.0654H17.25H12V9.31543C12 9.19284 11.9856 9.07387 11.9609 8.95801C12.2086 9.0258 12.4722 9.06543 12.75 9.06543C13.6042 9.06543 14.3398 8.71811 14.8105 8.18848C15.2813 7.65884 15.5 6.9821 15.5 6.31543C15.5 5.64876 15.2813 4.97104 14.8105 4.44141C14.3398 3.91177 13.6042 3.56543 12.75 3.56543ZM18.75 4.56543C18.0625 4.56543 17.4519 4.84927 17.0645 5.28516C16.677 5.72104 16.5 6.27376 16.5 6.81543C16.5 7.3571 16.677 7.90884 17.0645 8.34473C17.4519 8.78061 18.0625 9.06543 18.75 9.06543C19.4375 9.06543 20.0481 8.78061 20.4355 8.34473C20.823 7.90884 21 7.3571 21 6.81543C21 6.27376 20.823 5.72104 20.4355 5.28516C20.0481 4.84927 19.4375 4.56543 18.75 4.56543ZM12.75 5.06543C13.2292 5.06543 13.4936 5.21811 13.6895 5.43848C13.8853 5.65884 14 5.9821 14 6.31543C14 6.64876 13.8853 6.97104 13.6895 7.19141C13.4936 7.41177 13.2292 7.56543 12.75 7.56543C12.2708 7.56543 12.0064 7.41177 11.8105 7.19141C11.6147 6.97104 11.5 6.64876 11.5 6.31543C11.5 5.9821 11.6147 5.65884 11.8105 5.43848C12.0064 5.21811 12.2708 5.06543 12.75 5.06543ZM18.75 6.06543C19.0625 6.06543 19.2019 6.15561 19.3145 6.28223C19.427 6.40884 19.5 6.6071 19.5 6.81543C19.5 7.02376 19.427 7.22104 19.3145 7.34766C19.2019 7.47427 19.0625 7.56543 18.75 7.56543C18.4375 7.56543 18.2981 7.47427 18.1855 7.34766C18.073 7.22104 18 7.02376 18 6.81543C18 6.6071 18.073 6.40884 18.1855 6.28223C18.2981 6.15561 18.4375 6.06543 18.75 6.06543ZM3.75 9.06543H10.25C10.3975 9.06543 10.5 9.16791 10.5 9.31543V10.6924C10.4868 10.7729 10.4868 10.855 10.5 10.9355V15.8154C10.5 15.963 10.3975 16.0654 10.25 16.0654H8.37305C8.30951 16.0573 8.24518 16.0573 8.18164 16.0654H3.75C3.60248 16.0654 3.5 15.963 3.5 15.8154V9.31543C3.5 9.16791 3.60248 9.06543 3.75 9.06543ZM5.5 10.0654C5.224 10.0654 5 10.2894 5 10.5654C5 10.8419 5.224 11.0654 5.5 11.0654H6.5V14.5654C6.5 14.8414 6.724 15.0654 7 15.0654C7.276 15.0654 7.5 14.8419 7.5 14.5654V11.0654H8.5C8.776 11.0654 9 10.8414 9 10.5654C9 10.2894 8.776 10.0654 8.5 10.0654H5.5ZM12 11.5654H16.5V16.3154C16.5 16.6722 16.4474 17.0155 16.3555 17.3418C16.3331 17.3938 16.3167 17.4482 16.3066 17.5039C15.8121 18.9956 14.4132 20.0654 12.75 20.0654C11.1116 20.0654 9.73055 19.0213 9.21875 17.5654H10.25C11.2075 17.5654 12 16.7729 12 15.8154V11.5654ZM18 11.5654H20.5V15.8154C20.5 16.7896 19.7242 17.5654 18.75 17.5654C18.4389 17.5654 18.1506 17.4783 17.8984 17.3359C17.964 17.0056 18 16.6645 18 16.3154V11.5654Z" fill="black"/>
</svg>
