<svg width="24" height="24" viewBox="0 0 24 24" fill="none" xmlns="http://www.w3.org/2000/svg">
<path fill-rule="evenodd" clip-rule="evenodd" d="M12.2461 3.61328C12.4096 3.58328 12.578 3.56543 12.75 3.56543C14.269 3.56543 15.5 4.79643 15.5 6.31543C15.5 6.45743 15.4858 6.59592 15.4648 6.73242C15.4638 6.73925 15.4629 6.74602 15.462 6.75276C15.4596 6.76973 15.4573 6.78654 15.4541 6.80371C15.4301 6.93621 15.3975 7.06543 15.3555 7.19043C15.3523 7.19974 15.3487 7.20898 15.3451 7.21815C15.3419 7.22622 15.3387 7.23423 15.3359 7.24219C15.2409 7.50769 15.107 7.75411 14.9395 7.97461C14.9373 7.9777 14.9347 7.98084 14.9321 7.98386C14.9306 7.98572 14.9291 7.98754 14.9277 7.98926C14.4247 8.64226 13.6375 9.06543 12.75 9.06543C12.4857 9.06543 12.2312 9.02564 11.9893 8.95605C11.9903 8.97073 11.9923 8.98518 11.9942 8.99962C11.9971 9.02131 12 9.04299 12 9.06543V16.0654C12 16.8939 11.3285 17.5654 10.5 17.5654H3.5C2.6715 17.5654 2 16.8939 2 16.0654V9.06543C2 8.23693 2.6715 7.56543 3.5 7.56543H10.3027C10.1106 7.19003 10 6.76619 10 6.31543C10 5.69343 10.2086 5.12116 10.5566 4.66016L10.5586 4.6582C10.6576 4.5272 10.7682 4.40592 10.8887 4.29492L10.8889 4.29472C10.8923 4.2918 10.8955 4.28906 10.8984 4.28613C11.0174 4.17763 11.1447 4.07869 11.2812 3.99219C11.2853 3.9894 11.2893 3.98711 11.2933 3.98481C11.2958 3.9834 11.2983 3.98199 11.3008 3.98047C11.4358 3.89647 11.578 3.8227 11.7275 3.7627C11.7319 3.7611 11.7363 3.75966 11.7406 3.75823C11.7458 3.75652 11.751 3.75484 11.7559 3.75293C11.9049 3.69493 12.0583 3.64869 12.2188 3.61719C12.2233 3.61644 12.2278 3.61584 12.2324 3.61523C12.237 3.61463 12.2416 3.61403 12.2461 3.61328ZM17.8888 4.73651C18.1618 4.62347 18.4545 4.56534 18.75 4.56543C19.3466 4.56561 19.9187 4.80274 20.3406 5.22468C20.7624 5.64661 20.9993 6.21881 20.9993 6.81543C20.9993 7.41205 20.7624 7.98424 20.3406 8.40618C19.9187 8.82812 19.3466 9.06525 18.75 9.06543C18.4545 9.06552 18.1618 9.00738 17.8888 8.89435C17.6157 8.78132 17.3676 8.6156 17.1586 8.40666C16.9496 8.19772 16.7838 7.94965 16.6707 7.67662C16.5575 7.4036 16.4993 7.11096 16.4993 6.81543C16.4993 6.5199 16.5575 6.22726 16.6707 5.95424C16.7838 5.68121 16.9496 5.43314 17.1586 5.2242C17.3676 5.01526 17.6157 4.84954 17.8888 4.73651ZM13.5 16.8154V10.0654H17.25C17.665 10.0654 18 10.4004 18 10.8154V16.3154C18 19.2104 15.645 21.5654 12.75 21.5654C10.865 21.5654 9.20027 20.5754 8.28027 19.0654H11.25C12.49 19.0654 13.5 18.0554 13.5 16.8154ZM19.5 10.8154C19.5 10.5504 19.4551 10.3004 19.3701 10.0654H21.25C21.665 10.0654 22 10.4004 22 10.8154V15.8154C22 17.5504 20.63 18.9747 18.915 19.0547C19.29 18.2147 19.5 17.2904 19.5 16.3154V10.8154ZM5.5 10.0654C5.224 10.0654 5 10.2894 5 10.5654C5 10.8419 5.224 11.0654 5.5 11.0654H6.5V14.5654C6.5 14.8414 6.724 15.0654 7 15.0654C7.276 15.0654 7.5 14.8419 7.5 14.5654V11.0654H8.5C8.776 11.0654 9 10.8414 9 10.5654C9 10.2894 8.776 10.0654 8.5 10.0654H5.5Z" fill="black"/>
</svg>
