<svg width="24" height="24" viewBox="0 0 24 24" fill="none" xmlns="http://www.w3.org/2000/svg">
<path d="M6.75 12C6.75 11.5858 6.41421 11.25 6 11.25C5.58579 11.25 5.25 11.5858 5.25 12V12.01C5.25 12.4242 5.58579 12.76 6 12.76C6.41421 12.76 6.75 12.4242 6.75 12.01V12Z" fill="black"/>
<path d="M10 11.25C10.4142 11.25 10.75 11.5858 10.75 12V12.01C10.75 12.4242 10.4142 12.76 10 12.76C9.58579 12.76 9.25 12.4242 9.25 12.01V12C9.25 11.5858 9.58579 11.25 10 11.25Z" fill="black"/>
<path d="M14.75 12C14.75 11.5858 14.4142 11.25 14 11.25C13.5858 11.25 13.25 11.5858 13.25 12V12.01C13.25 12.4242 13.5858 12.76 14 12.76C14.4142 12.76 14.75 12.4242 14.75 12.01V12Z" fill="black"/>
<path d="M18 11.25C18.4142 11.25 18.75 11.5858 18.75 12V12.01C18.75 12.4242 18.4142 12.76 18 12.76C17.5858 12.76 17.25 12.4242 17.25 12.01V12C17.25 11.5858 17.5858 11.25 18 11.25Z" fill="black"/>
<path d="M6.75 8C6.75 7.58579 6.41421 7.25 6 7.25C5.58579 7.25 5.25 7.58579 5.25 8V8.01C5.25 8.42421 5.58579 8.76 6 8.76C6.41421 8.76 6.75 8.42421 6.75 8.01V8Z" fill="black"/>
<path d="M10 7.25C10.4142 7.25 10.75 7.58579 10.75 8V8.01C10.75 8.42421 10.4142 8.76 10 8.76C9.58579 8.76 9.25 8.42421 9.25 8.01V8C9.25 7.58579 9.58579 7.25 10 7.25Z" fill="black"/>
<path d="M14.75 8C14.75 7.58579 14.4142 7.25 14 7.25C13.5858 7.25 13.25 7.58579 13.25 8V8.01C13.25 8.42421 13.5858 8.76 14 8.76C14.4142 8.76 14.75 8.42421 14.75 8.01V8Z" fill="black"/>
<path d="M18 7.25C18.4142 7.25 18.75 7.58579 18.75 8V8.01C18.75 8.42421 18.4142 8.76 18 8.76C17.5858 8.76 17.25 8.42421 17.25 8.01V8C17.25 7.58579 17.5858 7.25 18 7.25Z" fill="black"/>
<path d="M6.75 16C6.75 15.5858 6.41421 15.25 6 15.25C5.58579 15.25 5.25 15.5858 5.25 16V16.01C5.25 16.4242 5.58579 16.76 6 16.76C6.41421 16.76 6.75 16.4242 6.75 16.01V16Z" fill="black"/>
<path d="M18 15.25C18.4142 15.25 18.75 15.5858 18.75 16V16.01C18.75 16.4242 18.4142 16.76 18 16.76C17.5858 16.76 17.25 16.4242 17.25 16.01V16C17.25 15.5858 17.5858 15.25 18 15.25Z" fill="black"/>
<path d="M10.0019 15.25C9.58766 15.249 9.25104 15.5839 9.25 15.9981C9.24897 16.4123 9.58391 16.749 9.99813 16.75L13.9981 16.76C14.4123 16.761 14.749 16.4261 14.75 16.0119C14.751 15.5977 14.4161 15.261 14.0019 15.26L10.0019 15.25Z" fill="black"/>
<path fill-rule="evenodd" clip-rule="evenodd" d="M4 3.25C3.27065 3.25 2.57118 3.53973 2.05546 4.05546C1.53973 4.57118 1.25 5.27065 1.25 6V18C1.25 18.7293 1.53973 19.4288 2.05546 19.9445C2.57118 20.4603 3.27065 20.75 4 20.75H20C20.7293 20.75 21.4288 20.4603 21.9445 19.9445C22.4603 19.4288 22.75 18.7293 22.75 18V6C22.75 5.27065 22.4603 4.57118 21.9445 4.05546C21.4288 3.53973 20.7293 3.25 20 3.25H4ZM3.11612 5.11612C3.35054 4.8817 3.66848 4.75 4 4.75H20C20.3315 4.75 20.6495 4.8817 20.8839 5.11612C21.1183 5.35054 21.25 5.66848 21.25 6V18C21.25 18.3315 21.1183 18.6495 20.8839 18.8839C20.6495 19.1183 20.3315 19.25 20 19.25H4C3.66848 19.25 3.35054 19.1183 3.11612 18.8839C2.8817 18.6495 2.75 18.3315 2.75 18V6C2.75 5.66848 2.8817 5.35054 3.11612 5.11612Z" fill="black"/>
</svg>
