<svg width="24" height="24" viewBox="0 0 24 24" fill="none" xmlns="http://www.w3.org/2000/svg">
<path fill-rule="evenodd" clip-rule="evenodd" d="M2.125 4C2.125 2.75736 3.13236 1.75 4.375 1.75L4.99627 4.23507C5.21885 5.12541 6.01882 5.75 6.93655 5.75H9.81345C10.7312 5.75 11.5311 5.12541 11.7537 4.23507L12.375 1.75C13.6176 1.75 14.625 2.75736 14.625 4V4.6049C14.072 4.69838 13.5284 4.85406 13.0049 5.07091C11.6344 5.63856 10.4631 6.59986 9.63898 7.83323C8.81487 9.0666 8.375 10.5166 8.375 12C8.375 13.9891 9.16518 15.8968 10.5717 17.3033C11.6801 18.4117 13.0996 19.1373 14.625 19.3951V20C14.625 21.2426 13.6176 22.25 12.375 22.25H4.375C3.13236 22.25 2.125 21.2426 2.125 20V4ZM6.875 18.25C6.46079 18.25 6.125 18.5858 6.125 19C6.125 19.4142 6.46079 19.75 6.875 19.75H9.875C10.2892 19.75 10.625 19.4142 10.625 19C10.625 18.5858 10.2892 18.25 9.875 18.25H6.875Z" fill="black"/>
<path d="M6.29616 3.25L6.45148 3.87127C6.50713 4.09385 6.70712 4.25 6.93655 4.25H9.81345C10.0429 4.25 10.2429 4.09385 10.2985 3.87127L10.4538 3.25H6.29616Z" fill="black"/>
<path d="M13.4585 11.1959C13.5282 11.1256 13.6112 11.0698 13.7026 11.0317C13.794 10.9936 13.892 10.974 13.991 10.974C14.09 10.974 14.1881 10.9936 14.2795 11.0317C14.3709 11.0698 14.4538 11.1256 14.5235 11.1959L15.3785 12.0059L17.2385 10.2059C17.3837 10.0686 17.5775 9.99467 17.7772 10.0003C17.977 10.0059 18.1663 10.0907 18.3035 10.2359C18.4408 10.3811 18.5147 10.5749 18.5091 10.7746C18.5035 10.9743 18.4187 11.1636 18.2735 11.3009L15.8885 13.5509C15.7494 13.6816 15.5657 13.7545 15.3748 13.7545C15.1839 13.7545 15.0001 13.6816 14.861 13.5509L13.4885 12.2534C13.3448 12.1168 13.2609 11.929 13.2553 11.7308C13.2497 11.5326 13.3227 11.3403 13.4585 11.1959Z" fill="black"/>
<path fill-rule="evenodd" clip-rule="evenodd" d="M19.2084 16.9888C18.2217 17.6481 17.0617 18 15.875 18C14.2837 18 12.7576 17.3679 11.6324 16.2426C10.5071 15.1174 9.875 13.5913 9.875 12C9.875 10.8133 10.2269 9.65328 10.8862 8.66658C11.5455 7.67989 12.4825 6.91085 13.5789 6.45673C14.6753 6.0026 15.8817 5.88378 17.0455 6.11529C18.2094 6.3468 19.2785 6.91825 20.1176 7.75736C20.9568 8.59648 21.5282 9.66558 21.7597 10.8295C21.9912 11.9933 21.8724 13.1997 21.4183 14.2961C20.9642 15.3925 20.1951 16.3295 19.2084 16.9888ZM15.875 16.5C16.765 16.5 17.635 16.2361 18.3751 15.7416C19.1151 15.2472 19.6919 14.5443 20.0325 13.7221C20.3731 12.8998 20.4622 11.995 20.2885 11.1221C20.1149 10.2492 19.6863 9.44736 19.057 8.81802C18.4276 8.18869 17.6258 7.7601 16.7529 7.58647C15.88 7.41284 14.9752 7.50195 14.1529 7.84254C13.3307 8.18314 12.6279 8.75991 12.1334 9.49994C11.6389 10.24 11.375 11.11 11.375 12C11.375 13.1935 11.8491 14.3381 12.693 15.182C13.5369 16.0259 14.6815 16.5 15.875 16.5Z" fill="black"/>
</svg>
