<svg width="24" height="24" viewBox="0 0 24 24" fill="none" xmlns="http://www.w3.org/2000/svg">
<path d="M8.75 16C9.16421 16 9.5 16.3358 9.5 16.75V16.76C9.5 17.1742 9.16421 17.51 8.75 17.51C8.33579 17.51 8 17.1742 8 16.76V16.75C8 16.3358 8.33579 16 8.75 16Z" fill="black"/>
<path fill-rule="evenodd" clip-rule="evenodd" d="M4.75 2C4.02065 2 3.32118 2.28973 2.80546 2.80546C2.28973 3.32118 2 4.02065 2 4.75V18.75C2 19.4793 2.28973 20.1788 2.80546 20.6945C3.32118 21.2103 4.02065 21.5 4.75 21.5H12.75C13.4793 21.5 14.1788 21.2103 14.6945 20.6945C15.2103 20.1788 15.5 19.4793 15.5 18.75V4.75C15.5 4.02065 15.2103 3.32118 14.6945 2.80546C14.1788 2.28973 13.4793 2 12.75 2H4.75ZM3.86612 3.86612C4.10054 3.6317 4.41848 3.5 4.75 3.5H7.04268C7.01504 3.57819 7 3.66234 7 3.75C7 4.16421 7.33579 4.5 7.75 4.5H9.75C10.1642 4.5 10.5 4.16421 10.5 3.75C10.5 3.66234 10.485 3.57819 10.4573 3.5H12.75C13.0815 3.5 13.3995 3.6317 13.6339 3.86612C13.8683 4.10054 14 4.41848 14 4.75V18.75C14 19.0815 13.8683 19.3995 13.6339 19.6339C13.3995 19.8683 13.0815 20 12.75 20H4.75C4.41848 20 4.10054 19.8683 3.86612 19.6339C3.6317 19.3995 3.5 19.0815 3.5 18.75V4.75C3.5 4.41848 3.6317 4.10054 3.86612 3.86612Z" fill="black"/>
<path d="M21.374 6.1661C21.6038 5.82146 21.5107 5.35581 21.166 5.12604C20.8214 4.89628 20.3557 4.98941 20.126 5.33405L18.126 8.33405C17.958 8.58598 17.958 8.91418 18.126 9.1661L19.8486 11.7501L18.126 14.3341C17.958 14.586 17.958 14.9142 18.126 15.1661L20.126 18.1661C20.3557 18.5108 20.8214 18.6039 21.166 18.3741C21.5107 18.1444 21.6038 17.6787 21.374 17.3341L19.6514 14.7501L21.374 12.1661C21.542 11.9142 21.542 11.586 21.374 11.3341L19.6514 8.75008L21.374 6.1661Z" fill="black"/>
</svg>
