<svg width="24" height="24" viewBox="0 0 24 24" fill="none" xmlns="http://www.w3.org/2000/svg">
<path d="M6.13 19C6.13 18.5858 6.46579 18.25 6.88 18.25H9.88C10.2942 18.25 10.63 18.5858 10.63 19C10.63 19.4142 10.2942 19.75 9.88 19.75H6.88C6.46579 19.75 6.13 19.4142 6.13 19Z" fill="black"/>
<path d="M15.88 9.25C16.2942 9.25 16.63 9.58579 16.63 10V11.25H18.88C19.2942 11.25 19.63 11.5858 19.63 12C19.63 12.4142 19.2942 12.75 18.88 12.75H16.08C15.5553 12.75 15.13 12.3247 15.13 11.8V10C15.13 9.58579 15.4658 9.25 15.88 9.25Z" fill="black"/>
<path fill-rule="evenodd" clip-rule="evenodd" d="M4.38 1.75C3.13736 1.75 2.13 2.75736 2.13 4V20C2.13 21.2426 3.13736 22.25 4.38 22.25H12.38C13.6226 22.25 14.63 21.2426 14.63 20V17.8684C15.0378 17.9553 15.4566 18 15.88 18C17.0667 18 18.2267 17.6481 19.2134 16.9888C20.2001 16.3295 20.9692 15.3925 21.4233 14.2961C21.8774 13.1997 21.9962 11.9933 21.7647 10.8295C21.5332 9.66558 20.9618 8.59648 20.1226 7.75736C19.2835 6.91825 18.2144 6.3468 17.0505 6.11529C16.2472 5.9555 15.4237 5.9626 14.63 6.13165V4C14.63 2.75736 13.6226 1.75 12.38 1.75H4.38ZM4.755 3.25H4.38C3.96579 3.25 3.63 3.58579 3.63 4V20C3.63 20.4142 3.96579 20.75 4.38 20.75H12.38C12.7942 20.75 13.13 20.4142 13.13 20V17.3327C12.5841 17.0512 12.0797 16.685 11.6374 16.2426C10.5121 15.1174 9.88 13.5913 9.88 12C9.88 10.8133 10.2319 9.65328 10.8912 8.66658C11.4575 7.819 12.2288 7.13203 13.13 6.66732V4C13.13 3.58579 12.7942 3.25 12.38 3.25H12.005L11.7587 4.23507C11.5362 5.12541 10.7362 5.75 9.81845 5.75H6.94156C6.02382 5.75 5.22386 5.12541 5.00127 4.23507L4.755 3.25ZM10.4588 3.25H6.30117L6.45649 3.87127C6.51213 4.09385 6.71212 4.25 6.94156 4.25H9.81845C10.0479 4.25 10.2479 4.09385 10.3035 3.87127L10.4588 3.25ZM15.88 16.5C16.77 16.5 17.64 16.2361 18.3801 15.7416C19.1201 15.2472 19.6969 14.5443 20.0375 13.7221C20.3781 12.8998 20.4672 11.995 20.2935 11.1221C20.1199 10.2492 19.6913 9.44736 19.062 8.81802C18.4326 8.18869 17.6308 7.7601 16.7579 7.58647C15.885 7.41284 14.9802 7.50195 14.1579 7.84254C13.3357 8.18314 12.6329 8.75991 12.1384 9.49994C11.6439 10.24 11.38 11.11 11.38 12C11.38 13.1935 11.8541 14.3381 12.698 15.182C13.5419 16.0259 14.6865 16.5 15.88 16.5Z" fill="black"/>
</svg>
