<svg width="24" height="24" viewBox="0 0 24 24" fill="none" xmlns="http://www.w3.org/2000/svg">
<path d="M3.99902 9.24902C2.48859 9.24902 1.24805 10.4896 1.24805 12C1.24805 13.5104 2.48859 14.751 3.99902 14.751C5.50914 14.751 6.75 13.5104 6.75 12C6.75 10.4896 5.50914 9.24902 3.99902 9.24902ZM19.999 9.24902C18.4886 9.24902 17.248 10.4896 17.248 12C17.248 13.5104 18.4886 14.751 19.999 14.751C21.5091 14.751 22.75 13.5104 22.75 12C22.75 10.4896 21.5091 9.24902 19.999 9.24902ZM11.999 9.25C10.4888 9.25 9.24902 10.4903 9.24902 12C9.24902 13.5099 10.4891 14.75 11.999 14.75C13.5089 14.75 14.749 13.5099 14.749 12C14.749 10.4901 13.5089 9.25 11.999 9.25Z" fill="black"/>
</svg>
