<svg width="24" height="24" viewBox="0 0 24 24" fill="none" xmlns="http://www.w3.org/2000/svg">
<path fill-rule="evenodd" clip-rule="evenodd" d="M5 5.25C4.66848 5.25 4.35054 5.3817 4.11612 5.61612C3.8817 5.85054 3.75 6.16848 3.75 6.5V17.5C3.75 17.8315 3.8817 18.1495 4.11612 18.3839C4.35054 18.6183 4.66848 18.75 5 18.75H19C19.3315 18.75 19.6495 18.6183 19.8839 18.3839C20.1183 18.1495 20.25 17.8315 20.25 17.5V9.5C20.25 9.16848 20.1183 8.85054 19.8839 8.61612C19.6495 8.3817 19.3315 8.25 19 8.25H12C11.8011 8.25 11.6103 8.17098 11.4697 8.03033L8.68934 5.25H5ZM3.05546 4.55546C3.57118 4.03973 4.27065 3.75 5 3.75H9C9.19891 3.75 9.38968 3.82902 9.53033 3.96967L12.3107 6.75H19C19.7293 6.75 20.4288 7.03973 20.9445 7.55546C21.4603 8.07118 21.75 8.77065 21.75 9.5V17.5C21.75 18.2293 21.4603 18.9288 20.9445 19.4445C20.4288 19.9603 19.7293 20.25 19 20.25H5C4.27065 20.25 3.57118 19.9603 3.05546 19.4445C2.53973 18.9288 2.25 18.2293 2.25 17.5V6.5C2.25 5.77065 2.53973 5.07118 3.05546 4.55546Z" fill="black"/>
<path fill-rule="evenodd" clip-rule="evenodd" d="M8.25 13.5C8.25 13.0858 8.58579 12.75 9 12.75H15C15.4142 12.75 15.75 13.0858 15.75 13.5C15.75 13.9142 15.4142 14.25 15 14.25H9C8.58579 14.25 8.25 13.9142 8.25 13.5Z" fill="black"/>
<path fill-rule="evenodd" clip-rule="evenodd" d="M15.5303 12.9697C15.8232 13.2626 15.8232 13.7374 15.5303 14.0303L13.1303 16.4303C12.8374 16.7232 12.3625 16.7232 12.0696 16.4303C11.7768 16.1374 11.7768 15.6626 12.0696 15.3697L14.4696 12.9697C14.7625 12.6768 15.2374 12.6768 15.5303 12.9697Z" fill="black"/>
<path fill-rule="evenodd" clip-rule="evenodd" d="M12.0696 10.5697C12.3625 10.2768 12.8374 10.2768 13.1303 10.5697L15.5303 12.9697C15.8232 13.2626 15.8232 13.7374 15.5303 14.0303C15.2374 14.3232 14.7625 14.3232 14.4696 14.0303L12.0696 11.6303C11.7768 11.3374 11.7768 10.8626 12.0696 10.5697Z" fill="black"/>
</svg>
