<svg width="24" height="24" viewBox="0 0 24 24" fill="none" xmlns="http://www.w3.org/2000/svg">
<path fill-rule="evenodd" clip-rule="evenodd" d="M3.05546 4.55546C3.57118 4.03973 4.27065 3.75 5 3.75H9C9.19891 3.75 9.38968 3.82902 9.53033 3.96967L12.3107 6.75H19C19.7293 6.75 20.4288 7.03973 20.9445 7.55546C21.4603 8.07118 21.75 8.77065 21.75 9.5V17.5C21.75 18.2293 21.4603 18.9288 20.9445 19.4445C20.4288 19.9603 19.7293 20.25 19 20.25H5C4.27065 20.25 3.57118 19.9603 3.05546 19.4445C2.53973 18.9288 2.25 18.2293 2.25 17.5V6.5C2.25 5.77065 2.53973 5.07118 3.05546 4.55546ZM13.1303 10.5697C12.8374 10.2768 12.3625 10.2768 12.0696 10.5697C11.7768 10.8626 11.7768 11.3374 12.0696 11.6303L13.1893 12.75H9C8.58579 12.75 8.25 13.0858 8.25 13.5C8.25 13.9142 8.58579 14.25 9 14.25H13.1893L12.0696 15.3697C11.7768 15.6626 11.7768 16.1374 12.0696 16.4303C12.3625 16.7232 12.8374 16.7232 13.1303 16.4303L15.5272 14.0335C15.5519 14.009 15.5749 13.9829 15.5961 13.9552C15.6068 13.9413 15.6169 13.9271 15.6264 13.9127C15.6481 13.8799 15.6669 13.8458 15.6828 13.8107C15.726 13.7161 15.75 13.6108 15.75 13.5C15.75 13.3133 15.6817 13.1425 15.5688 13.0112C15.5553 12.9954 15.5411 12.9802 15.5263 12.9657L13.1303 10.5697Z" fill="black"/>
</svg>
