<svg width="24" height="24" viewBox="0 0 24 24" fill="none" xmlns="http://www.w3.org/2000/svg">
<path d="M6.69721 13.2764C6.59351 13.069 6.36081 12.9601 6.13512 13.0134C5.90944 13.0667 5.75 13.2682 5.75 13.5V16.5C5.75 16.7762 5.97386 17 6.25 17C6.52614 17 6.75 16.7762 6.75 16.5V15.6181L7.30279 16.7237C7.38748 16.893 7.56061 17 7.75 17C7.93939 17 8.11252 16.893 8.19721 16.7237L8.75 15.6181V16.5C8.75 16.7762 8.97386 17 9.25 17C9.52614 17 9.75 16.7762 9.75 16.5V13.5C9.75 13.2682 9.59056 13.0667 9.36488 13.0134C9.13919 12.9601 8.90649 13.069 8.80279 13.2764L7.75 15.382L6.69721 13.2764Z" fill="black"/>
<path fill-rule="evenodd" clip-rule="evenodd" d="M12.25 17C13.3546 17 14.25 16.1046 14.25 15C14.25 13.8954 13.3546 13 12.25 13C11.1454 13 10.25 13.8954 10.25 15C10.25 16.1046 11.1454 17 12.25 17ZM12.25 16C12.8023 16 13.25 15.5523 13.25 15C13.25 14.4477 12.8023 14 12.25 14C11.6977 14 11.25 14.4477 11.25 15C11.25 15.5523 11.6977 16 12.25 16Z" fill="black"/>
<path d="M18.3446 13.7553C18.4456 13.4577 18.2893 13.1334 17.9955 13.0311C17.7017 12.9288 17.3817 13.0871 17.2807 13.3848L16.4914 15.7112L15.8541 13.4157C15.77 13.1128 15.4594 12.9362 15.1603 13.0214C14.8613 13.1067 14.687 13.4213 14.7712 13.7243L15.4626 16.215C15.7446 17.231 17.1515 17.2716 17.4902 16.2735L18.3446 13.7553Z" fill="black"/>
<path fill-rule="evenodd" clip-rule="evenodd" d="M6.25 2C5.0095 2 4 3.0095 4 4.25V11.0254C3.43494 11.1438 3 11.6538 3 12.25V17.75C3 18.3462 3.43494 18.8562 4 18.9746V19.75C4 20.9905 5.0095 22 6.25 22H17.75C18.9905 22 20 20.9905 20 19.75V18.9746C20.5651 18.8562 21 18.3462 21 17.75V12.25C21 11.6538 20.5651 11.1438 20 11.0254V10H14.25C13.0095 10 12 8.9905 12 7.75V2H6.25ZM4.5 12.5H19.5V17.5H4.5V12.5Z" fill="black"/>
<path d="M13.5 2.43945V7.75C13.5 8.1635 13.8365 8.5 14.25 8.5H19.5605L13.5 2.43945Z" fill="black"/>
</svg>
