<svg width="24" height="24" viewBox="0 0 24 24" fill="none" xmlns="http://www.w3.org/2000/svg">
<path d="M6.63512 13.0134C6.86081 12.9601 7.09351 13.069 7.19721 13.2764L8.25 15.382L9.30279 13.2764C9.40649 13.069 9.63919 12.9601 9.86488 13.0134C10.0906 13.0667 10.25 13.2682 10.25 13.5V16.5C10.25 16.7762 10.0261 17 9.75 17C9.47386 17 9.25 16.7762 9.25 16.5V15.6181L8.69721 16.7237C8.61252 16.893 8.43939 17 8.25 17C8.06061 17 7.88748 16.893 7.80279 16.7237L7.25 15.6181V16.5C7.25 16.7762 7.02614 17 6.75 17C6.47386 17 6.25 16.7762 6.25 16.5V13.5C6.25 13.2682 6.40944 13.0667 6.63512 13.0134Z" fill="black"/>
<path fill-rule="evenodd" clip-rule="evenodd" d="M14 14.2501C14 14.9404 13.4404 15.5001 12.75 15.5001H12V16.5001C12 16.7762 11.7761 17.0001 11.5 17.0001C11.2239 17.0001 11 16.7762 11 16.5001V13.9001C11 13.403 11.4029 13.0001 11.9 13.0001H12.75C13.4404 13.0001 14 13.5597 14 14.2501ZM12 14.0001V14.5001H12.75C12.8881 14.5001 13 14.3881 13 14.2501C13 14.112 12.8881 14.0001 12.75 14.0001H12Z" fill="black"/>
<path fill-rule="evenodd" clip-rule="evenodd" d="M16.2175 13.299C16.5423 12.893 17.197 13.1227 17.197 13.6426V15.5C17.4731 15.5 17.697 15.7239 17.697 16C17.697 16.2762 17.4731 16.5 17.197 16.5C17.197 16.7762 16.9731 17 16.697 17C16.4209 17 16.197 16.7762 16.197 16.5H14.801C14.3399 16.5 14.0835 15.9666 14.3716 15.6065L16.2175 13.299ZM16.197 15.5V14.9254L15.7373 15.5H16.197Z" fill="black"/>
<path fill-rule="evenodd" clip-rule="evenodd" d="M4 4.25C4 3.0095 5.0095 2 6.25 2H12V7.75C12 8.9905 13.0095 10 14.25 10H20V11.0254C20.5651 11.1438 21 11.6538 21 12.25V17.75C21 18.3462 20.5651 18.8562 20 18.9746V19.75C20 20.9905 18.9905 22 17.75 22H6.25C5.0095 22 4 20.9905 4 19.75V18.9746C3.43494 18.8562 3 18.3462 3 17.75V12.25C3 11.6538 3.43494 11.1438 4 11.0254V4.25ZM19.5 17.5V12.5H4.5V17.5H19.5Z" fill="black"/>
<path d="M13.5 7.75V2.43945L19.5605 8.5H14.25C13.8365 8.5 13.5 8.1635 13.5 7.75Z" fill="black"/>
</svg>
