<svg width="24" height="24" viewBox="0 0 24 24" fill="none" xmlns="http://www.w3.org/2000/svg">
<path d="M11.9882 1.50009C11.7897 1.50319 11.6005 1.58497 11.4622 1.72746C11.3239 1.86996 11.2478 2.06151 11.2507 2.26006V3.04733C6.89152 3.40964 3.40949 6.89168 3.04718 11.2508H2.2599C2.16062 11.2494 2.06205 11.2678 1.96992 11.3048C1.87779 11.3418 1.79393 11.3968 1.72323 11.4665C1.65252 11.5362 1.59638 11.6193 1.55806 11.7109C1.51973 11.8025 1.5 11.9008 1.5 12.0001C1.5 12.0994 1.51973 12.1977 1.55806 12.2893C1.59638 12.3809 1.65252 12.4639 1.72323 12.5336C1.79393 12.6034 1.87779 12.6583 1.96992 12.6953C2.06205 12.7324 2.16062 12.7507 2.2599 12.7493H3.04718C3.40949 17.1085 6.89152 20.5905 11.2507 20.9528V21.7401C11.2493 21.8394 11.2676 21.938 11.3047 22.0301C11.3417 22.1222 11.3966 22.2061 11.4664 22.2768C11.5361 22.3475 11.6191 22.4036 11.7107 22.4419C11.8023 22.4803 11.9006 22.5 11.9999 22.5C12.0992 22.5 12.1975 22.4803 12.2891 22.4419C12.3807 22.4036 12.4638 22.3475 12.5335 22.2768C12.6032 22.2061 12.6582 22.1222 12.6952 22.0301C12.7322 21.938 12.7506 21.8394 12.7492 21.7401V20.9528C14.6253 20.7969 16.3412 20.0694 17.7148 18.9354C19.5325 17.4345 20.7463 15.2323 20.9527 12.7493H21.7399C21.765 12.7496 21.7901 12.7486 21.8151 12.7464C22.0078 12.729 22.1864 12.6376 22.3133 12.4915C22.4403 12.3454 22.5058 12.1558 22.496 11.9625C22.4863 11.7692 22.4022 11.5872 22.2612 11.4545C22.1203 11.3218 21.9335 11.2488 21.7399 11.2508H20.9527C20.948 11.1951 20.9495 11.1376 20.9439 11.0821C20.6671 8.36568 19.1759 6.00255 17.0231 4.54677C15.7831 3.70827 14.3219 3.17805 12.7492 3.04733V2.26006C12.7506 2.15978 12.7319 2.06023 12.6941 1.96731C12.6564 1.87439 12.6004 1.79 12.5294 1.71913C12.4585 1.64826 12.374 1.59235 12.281 1.55473C12.1881 1.5171 12.0885 1.49852 11.9882 1.50009ZM11.2507 4.5458V5.25698C11.2493 5.35627 11.2676 5.45484 11.3047 5.54697C11.3417 5.6391 11.3966 5.72296 11.4664 5.79366C11.5361 5.86437 11.6191 5.92051 11.7107 5.95883C11.8023 5.99715 11.9006 6.01689 11.9999 6.01689C12.0992 6.01689 12.1975 5.99715 12.2891 5.95883C12.3807 5.92051 12.4638 5.86437 12.5335 5.79366C12.6032 5.72296 12.6582 5.6391 12.6952 5.54697C12.7322 5.45484 12.7506 5.35627 12.7492 5.25698V4.5458C14.0176 4.67097 15.1918 5.10922 16.1929 5.78476C17.3884 6.59153 18.3373 7.73504 18.905 9.08022C19.1888 9.7528 19.3767 10.4754 19.4532 11.2323C19.4538 11.2384 19.4536 11.2447 19.4542 11.2508H18.743C18.6437 11.2494 18.5452 11.2678 18.453 11.3048C18.3609 11.3418 18.277 11.3968 18.2063 11.4665C18.1356 11.5362 18.0795 11.6193 18.0412 11.7109C18.0028 11.8025 17.9831 11.9008 17.9831 12.0001C17.9831 12.0994 18.0028 12.1977 18.0412 12.2893C18.0795 12.3809 18.1356 12.4639 18.2063 12.5336C18.277 12.6034 18.3609 12.6583 18.453 12.6953C18.5452 12.7324 18.6437 12.7507 18.743 12.7493H19.4542C19.4038 13.2604 19.3041 13.7559 19.1567 14.2312C18.7197 15.64 17.879 16.8691 16.7695 17.7842C15.6599 18.6993 14.2814 19.3003 12.7677 19.4534C12.7616 19.454 12.7553 19.4538 12.7492 19.4544V18.7432C12.7506 18.6429 12.7319 18.5433 12.6941 18.4504C12.6564 18.3575 12.6004 18.2731 12.5294 18.2022C12.4585 18.1314 12.374 18.0755 12.281 18.0378C12.1881 18.0002 12.0885 17.9816 11.9882 17.9832C11.7897 17.9863 11.6005 18.0681 11.4622 18.2106C11.3239 18.3531 11.2478 18.5446 11.2507 18.7432V19.4544C10.9921 19.4288 10.7379 19.3912 10.4878 19.3402C7.3077 18.6917 4.87014 16.0376 4.54565 12.7493H5.25683C5.28191 12.7496 5.30698 12.7486 5.33195 12.7464C5.52472 12.729 5.70328 12.6376 5.83022 12.4915C5.95716 12.3454 6.02264 12.1558 6.01293 11.9625C6.00322 11.7692 5.91908 11.5872 5.77813 11.4545C5.63719 11.3218 5.45038 11.2488 5.25683 11.2508H4.54565C4.54625 11.2447 4.54601 11.2384 4.54662 11.2323C4.90446 7.69412 7.70997 4.8952 11.2507 4.5458ZM11.9999 9.50264C11.2299 9.50264 10.5575 9.81838 10.1288 10.3006C9.70011 10.7829 9.50248 11.3965 9.50248 12.0001C9.50248 12.6036 9.70011 13.2172 10.1288 13.6995C10.5575 14.1818 11.2299 14.4975 11.9999 14.4975C12.77 14.4975 13.4424 14.1818 13.8711 13.6995C14.2997 13.2172 14.4974 12.6036 14.4974 12.0001C14.4974 11.3965 14.2997 10.7829 13.8711 10.3006C13.4424 9.81838 12.77 9.50264 11.9999 9.50264ZM11.9999 11.0011C12.3954 11.0011 12.5971 11.1224 12.7511 11.2957C12.9052 11.469 12.9989 11.7295 12.9989 12.0001C12.9989 12.2706 12.9052 12.5311 12.7511 12.7044C12.5971 12.8777 12.3954 12.9991 11.9999 12.9991C11.6045 12.9991 11.4028 12.8777 11.2487 12.7044C11.0947 12.5311 11.0009 12.2706 11.0009 12.0001C11.0009 11.9324 11.0063 11.8653 11.0175 11.8001C11.0511 11.6046 11.1332 11.4257 11.2487 11.2957C11.4028 11.1224 11.6045 11.0011 11.9999 11.0011Z" fill="black"/>
</svg>
