<svg width="24" height="24" viewBox="0 0 24 24" fill="none" xmlns="http://www.w3.org/2000/svg">
<path fill-rule="evenodd" clip-rule="evenodd" d="M9.5845 16C9.534 16.327 9.5 16.659 9.5 17C9.5 18.748 10.1935 20.332 11.3165 21.5H4.75C3.5095 21.5 2.5 20.4905 2.5 19.25V5.75C2.5 4.5095 3.5095 3.5 4.75 3.5H6.5255C6.6515 2.378 7.595 1.5 8.75 1.5H12.25C13.405 1.5 14.3485 2.378 14.4745 3.5H16.25C17.4905 3.5 18.5 4.5095 18.5 5.75V11C17.73 10.6785 16.886 10.5 16 10.5C14.7295 10.5 13.5485 10.87 12.547 11.5H6.75C6.336 11.5 6 11.8355 6 12.25C6 12.6645 6.336 13 6.75 13H10.884C10.527 13.456 10.226 13.958 10 14.5H6.75C6.336 14.5 6 14.8355 6 15.25C6 15.6645 6.336 16 6.75 16H9.5845ZM12.25 3H8.75C8.3365 3 8 3.3365 8 3.75C8 4.1635 8.3365 4.5 8.75 4.5H12.25C12.6635 4.5 13 4.1635 13 3.75C13 3.3365 12.6635 3 12.25 3ZM14.25 8.5H6.75C6.336 8.5 6 8.8355 6 9.25C6 9.6645 6.336 10 6.75 10H14.25C14.664 10 15 9.6645 15 9.25C15 8.8355 14.664 8.5 14.25 8.5ZM10.5 17C10.5 13.9625 12.9625 11.5 16 11.5C19.0375 11.5 21.5 13.9625 21.5 17C21.5 20.0375 19.0375 22.5 16 22.5C12.9625 22.5 10.5 20.0375 10.5 17ZM17.4965 15.4657C17.2058 15.1706 16.7345 15.1706 16.4438 15.4657L16 15.9162L15.5562 15.4657C15.2655 15.1706 14.7942 15.1706 14.5036 15.4657C14.2129 15.7608 14.2129 16.2392 14.5036 16.5343L14.9474 16.9848L14.4737 17.4657C14.183 17.7608 14.183 18.2392 14.4737 18.5343C14.7644 18.8294 15.2357 18.8294 15.5263 18.5343L16 18.0535L16.4737 18.5343C16.7644 18.8294 17.2357 18.8294 17.5263 18.5343C17.817 18.2392 17.817 17.7608 17.5263 17.4657L17.0527 16.9848L17.4965 16.5343C17.7871 16.2392 17.7871 15.7608 17.4965 15.4657Z" fill="#101828"/>
</svg>
