<svg width="24" height="24" viewBox="0 0 24 24" fill="none" xmlns="http://www.w3.org/2000/svg">
<path d="M12.25 7C12.25 6.58579 12.5858 6.25 13 6.25H15C15.4142 6.25 15.75 6.58579 15.75 7C15.75 7.41421 15.4142 7.75 15 7.75H13C12.5858 7.75 12.25 7.41421 12.25 7Z" fill="black"/>
<path d="M13 10.25C12.5858 10.25 12.25 10.5858 12.25 11C12.25 11.4142 12.5858 11.75 13 11.75H15C15.4142 11.75 15.75 11.4142 15.75 11C15.75 10.5858 15.4142 10.25 15 10.25H13Z" fill="black"/>
<path fill-rule="evenodd" clip-rule="evenodd" d="M6 2.25C5.53587 2.25 5.09075 2.43438 4.76256 2.76256C4.43438 3.09075 4.25 3.53587 4.25 4V18C4.25 18.4641 4.43437 18.9092 4.76256 19.2374C5.09075 19.5656 5.53587 19.75 6 19.75H8.25V21C8.25 21.4142 8.58579 21.75 9 21.75C9.41421 21.75 9.75 21.4142 9.75 21V19.75H17C17.7293 19.75 18.4288 19.4603 18.9445 18.9445C19.4603 18.4288 19.75 17.7293 19.75 17V5C19.75 4.27065 19.4603 3.57118 18.9445 3.05546C18.4288 2.53973 17.7293 2.25 17 2.25H6ZM6 3.75C5.9337 3.75 5.87011 3.77634 5.82322 3.82322C5.77634 3.87011 5.75 3.9337 5.75 4V18C5.75 18.0663 5.77634 18.1299 5.82322 18.1768C5.87011 18.2237 5.93369 18.25 6 18.25H8.25V3.75H6ZM9.75 3.75V18.25H17C17.3315 18.25 17.6495 18.1183 17.8839 17.8839C18.1183 17.6495 18.25 17.3315 18.25 17V5C18.25 4.66848 18.1183 4.35054 17.8839 4.11612C17.6495 3.8817 17.3315 3.75 17 3.75H9.75Z" fill="black"/>
</svg>
