<svg width="24" height="24" viewBox="0 0 24 24" fill="none" xmlns="http://www.w3.org/2000/svg">
<path d="M3.53033 2.46967C3.23744 2.17678 2.76256 2.17678 2.46967 2.46967C2.17678 2.76256 2.17678 3.23744 2.46967 3.53033L5.79664 6.8573C4.76655 7.43205 3.81966 8.14783 2.98401 8.98522C2.69142 9.27842 2.69192 9.7533 2.98512 10.0459C3.27831 10.3385 3.75319 10.338 4.04577 10.0448C4.88414 9.20467 5.84938 8.50329 6.90515 7.96581L8.79537 9.85603C7.68086 10.2939 6.66405 10.9587 5.81194 11.8132C5.51946 12.1065 5.52013 12.5814 5.81344 12.8739C6.10674 13.1664 6.58162 13.1657 6.8741 12.8724C7.73771 12.0063 8.80569 11.3757 9.97625 11.0369L12.1943 13.2549C12.1297 13.2523 12.065 13.251 12.0001 13.251C10.7406 13.251 9.53263 13.7512 8.64187 14.6417C8.34893 14.9346 8.34886 15.4094 8.64171 15.7024C8.93456 15.9953 9.40943 15.9954 9.70237 15.7025C10.3118 15.0933 11.1383 14.751 12.0001 14.751C12.8619 14.751 13.6884 15.0933 14.2979 15.7025C14.4526 15.8572 14.6581 15.9302 14.8608 15.9214L20.4697 21.5303C20.7626 21.8232 21.2374 21.8232 21.5303 21.5303C21.8232 21.2374 21.8232 20.7626 21.5303 20.4697L10.7837 9.72307C10.7546 9.68808 10.7224 9.65596 10.6877 9.62703L3.53033 2.46967Z" fill="black"/>
<path d="M15.493 7.30477C13.8112 6.75516 12.0233 6.61002 10.2748 6.88114C9.86549 6.94461 9.48222 6.66424 9.41875 6.25492C9.35528 5.8456 9.63565 5.46233 10.045 5.39886C12.0266 5.09158 14.0528 5.25607 15.959 5.87896C17.8651 6.50185 19.5975 7.56558 21.0153 8.98373C21.3081 9.27666 21.3081 9.75153 21.0152 10.0444C20.7222 10.3373 20.2474 10.3372 19.9545 10.0443C18.7035 8.79296 17.1749 7.85438 15.493 7.30477Z" fill="black"/>
<path d="M14.5936 9.64189C14.1982 9.51843 13.7776 9.73886 13.6541 10.1343C13.5306 10.5296 13.7511 10.9502 14.1465 11.0737C15.2721 11.4252 16.2944 12.0472 17.124 12.8854C17.4153 13.1798 17.8902 13.1822 18.1846 12.8909C18.479 12.5995 18.4815 12.1246 18.1901 11.8302C17.1881 10.8178 15.9532 10.0665 14.5936 9.64189Z" fill="black"/>
<path d="M11.25 18C11.25 17.5858 11.5858 17.25 12 17.25H12.01C12.4242 17.25 12.76 17.5858 12.76 18C12.76 18.4142 12.4242 18.75 12.01 18.75H12C11.5858 18.75 11.25 18.4142 11.25 18Z" fill="black"/>
</svg>
