<svg width="24" height="24" viewBox="0 0 24 24" fill="none" xmlns="http://www.w3.org/2000/svg">
<path d="M11.4 3C8.9187 3 6.9 5.0187 6.9 7.5C6.9 8.64426 7.34361 9.67756 8.04961 10.4725C6.80313 11.4624 6 12.9878 6 14.7V15.6C6 18.5781 8.4219 21 11.4 21C14.3781 21 16.8 18.5781 16.8 15.6V14.7C16.8 12.9878 15.9969 11.4624 14.7504 10.4725C15.4564 9.67756 15.9 8.64426 15.9 7.5C15.9 5.0187 13.8813 3 11.4 3ZM11.4 5.7C12.3927 5.7 13.2 6.5073 13.2 7.5C13.2 8.4927 12.3927 9.3 11.4 9.3C10.4073 9.3 9.6 8.4927 9.6 7.5C9.6 6.5073 10.4073 5.7 11.4 5.7ZM11.4 12C12.8886 12 14.1 13.2114 14.1 14.7V15.6C14.1 17.0886 12.8886 18.3 11.4 18.3C9.9114 18.3 8.7 17.0886 8.7 15.6V14.7C8.7 13.2114 9.9114 12 11.4 12Z" fill="black"/>
</svg>
