<svg width="24" height="24" viewBox="0 0 24 24" fill="none" xmlns="http://www.w3.org/2000/svg">
<path d="M11.4 3C8.4219 3 6 5.4219 6 8.4C6 11.3781 8.4219 13.8 11.4 13.8C12.3841 13.8 13.3047 13.5321 14.1 13.0705V15.6C14.1 17.0886 12.8886 18.3 11.4 18.3C9.9114 18.3 8.7 17.0886 8.7 15.6V15.15C8.7 14.4039 8.0961 13.8 7.35 13.8C6.6039 13.8 6 14.4039 6 15.15V15.6C6 18.5781 8.4219 21 11.4 21C14.3781 21 16.8 18.5781 16.8 15.6V8.4C16.8 5.4219 14.3781 3 11.4 3ZM11.4 5.7C12.8886 5.7 14.1 6.9114 14.1 8.4C14.1 9.8886 12.8886 11.1 11.4 11.1C9.9114 11.1 8.7 9.8886 8.7 8.4C8.7 6.9114 9.9114 5.7 11.4 5.7Z" fill="black"/>
</svg>
