<svg width="24" height="24" viewBox="0 0 24 24" fill="none" xmlns="http://www.w3.org/2000/svg">
<path d="M11.1755 3C8.06176 3 6.34361 5.24425 6.27162 5.33965C5.82435 5.93545 5.94389 6.782 6.54054 7.2293C7.13629 7.6775 7.98276 7.55705 8.43002 6.96035C8.43902 6.94775 9.42424 5.7 11.1755 5.7C12.5407 5.7 13.6503 6.8097 13.6503 8.175C13.6503 9.5403 12.5407 10.65 11.1755 10.65H10.9505C10.2045 10.65 9.60062 11.2539 9.60062 12C9.60062 12.7461 10.2045 13.35 10.9505 13.35H11.4005C12.8889 13.35 14.1002 14.4597 14.1002 15.825C14.1002 17.1903 12.8889 18.3 11.4005 18.3C9.51603 18.3 8.45954 17.0721 8.40014 17.001C7.93578 16.4268 7.09201 16.3319 6.51066 16.7918C5.92661 17.2562 5.82925 18.1061 6.29271 18.6902C6.3683 18.7847 8.16525 21 11.4005 21C14.3783 21 16.8 18.678 16.8 15.825C16.8 14.2194 16.0337 12.7834 14.8332 11.833C15.77 10.8961 16.35 9.6015 16.35 8.175C16.35 5.322 14.0282 3 11.1755 3Z" fill="black"/>
</svg>
