<svg width="24" height="24" viewBox="0 0 24 24" fill="none" xmlns="http://www.w3.org/2000/svg">
<path d="M4.25 4C3.01625 4 2 5.01625 2 6.25V18.2031H2.00781C1.99326 19.1385 2.75419 20 3.75098 20H18.2734C19.2084 20 20.0514 19.4165 20.3799 18.541L22.8838 11.875V11.873C23.3118 10.7508 22.4504 9.5 21.249 9.5H21V8.75C21 7.51625 19.9838 6.5 18.75 6.5H12.0215L9.78711 4.6377C9.78678 4.63769 9.78646 4.63769 9.78613 4.6377C9.29205 4.22606 8.66958 4 8.02637 4H4.25ZM4.25 5.5H8.02637C8.31915 5.5 8.60128 5.60268 8.82617 5.79004L11.2695 7.82617C11.4044 7.93856 11.5744 8.00007 11.75 8H18.75C19.1733 8 19.5 8.32675 19.5 8.75V9.5H6.72656C5.79156 9.5 4.94861 10.0835 4.62012 10.959L3.5 13.9414V6.25C3.5 5.82675 3.82675 5.5 4.25 5.5ZM6.72656 11H21.249C21.449 11 21.5537 11.1526 21.4824 11.3389C21.4818 11.3405 21.4811 11.3421 21.4805 11.3437L18.9756 18.0137C18.8651 18.3082 18.5884 18.5 18.2734 18.5H3.75098C3.55212 18.5 3.44679 18.3485 3.5166 18.1631C3.51693 18.1628 3.51725 18.1624 3.51758 18.1621L6.02441 11.4863C6.13492 11.1918 6.41156 11 6.72656 11Z" fill="black"/>
</svg>
