<svg width="24" height="24" viewBox="0 0 24 24" fill="none" xmlns="http://www.w3.org/2000/svg">
<path d="M4.25 3.5C2.74011 3.5 1.5 4.74011 1.5 6.25V17.75C1.5 19.2599 2.74011 20.5 4.25 20.5H19.75C21.2599 20.5 22.5 19.2599 22.5 17.75V6.25C22.5 4.74011 21.2599 3.5 19.75 3.5H4.25ZM4.25 5H19.75C20.4491 5 21 5.55089 21 6.25V17.75C21 18.4491 20.4491 19 19.75 19H4.25C3.55089 19 3 18.4491 3 17.75V6.25C3 5.55089 3.55089 5 4.25 5ZM11.9893 6C11.7941 6.00285 11.6077 6.08168 11.4697 6.21973L9.96973 7.71973C9.89775 7.78884 9.84028 7.87161 9.8007 7.96321C9.76111 8.0548 9.7402 8.15338 9.73918 8.25316C9.73817 8.35294 9.75707 8.45192 9.79479 8.5443C9.83251 8.63668 9.88828 8.72061 9.95883 8.79117C10.0294 8.86172 10.1133 8.91749 10.2057 8.95521C10.2981 8.99293 10.3971 9.01183 10.4968 9.01082C10.5966 9.00981 10.6952 8.98889 10.7868 8.9493C10.8784 8.90972 10.9612 8.85225 11.0303 8.78027L12 7.81055L12.9697 8.78027C13.0388 8.85225 13.1216 8.90972 13.2132 8.9493C13.3048 8.98889 13.4034 9.00981 13.5032 9.01082C13.6029 9.01183 13.7019 8.99293 13.7943 8.95521C13.8867 8.91749 13.9706 8.86172 14.0412 8.79117C14.1117 8.72061 14.1675 8.63668 14.2052 8.5443C14.2429 8.45192 14.2618 8.35294 14.2608 8.25316C14.2598 8.15338 14.2389 8.0548 14.1993 7.96321C14.1597 7.87161 14.1023 7.78884 14.0303 7.71973L12.5303 6.21973C12.4594 6.14879 12.375 6.0928 12.282 6.05505C12.1891 6.01731 12.0895 5.99859 11.9893 6ZM17.7422 9.74219C17.5929 9.74222 17.4471 9.78679 17.3233 9.87019C17.1995 9.95358 17.1034 10.072 17.0473 10.2103C16.9912 10.3486 16.9776 10.5006 17.0084 10.6466C17.0391 10.7927 17.1127 10.9263 17.2197 11.0303L18.1895 12L17.2197 12.9697C17.1477 13.0388 17.0903 13.1216 17.0507 13.2132C17.0111 13.3048 16.9902 13.4034 16.9892 13.5032C16.9882 13.6029 17.0071 13.7019 17.0448 13.7943C17.0825 13.8867 17.1383 13.9706 17.2088 14.0412C17.2794 14.1117 17.3633 14.1675 17.4557 14.2052C17.5481 14.2429 17.6471 14.2618 17.7468 14.2608C17.8466 14.2598 17.9452 14.2389 18.0368 14.1993C18.1284 14.1597 18.2112 14.1023 18.2803 14.0303L19.7803 12.5303C19.9209 12.3896 19.9999 12.1989 19.9999 12C19.9999 11.8011 19.9209 11.6104 19.7803 11.4697L18.2803 9.96973C18.2104 9.89773 18.1267 9.8405 18.0343 9.80142C17.9419 9.76233 17.8425 9.74219 17.7422 9.74219ZM6.23535 9.74316C6.04057 9.74884 5.85565 9.8301 5.71973 9.96973L4.21973 11.4697C4.07913 11.6104 4.00014 11.8011 4.00014 12C4.00014 12.1989 4.07913 12.3896 4.21973 12.5303L5.71973 14.0303C5.78884 14.1023 5.87161 14.1597 5.96321 14.1993C6.0548 14.2389 6.15338 14.2598 6.25316 14.2608C6.35294 14.2618 6.45192 14.2429 6.5443 14.2052C6.63668 14.1675 6.72061 14.1117 6.79117 14.0412C6.86172 13.9706 6.91749 13.8867 6.95521 13.7943C6.99293 13.7019 7.01183 13.6029 7.01082 13.5032C7.0098 13.4034 6.98889 13.3048 6.9493 13.2132C6.90972 13.1216 6.85225 13.0388 6.78027 12.9697L5.81055 12L6.78027 11.0303C6.88847 10.9249 6.96234 10.7893 6.99221 10.6413C7.02208 10.4932 7.00655 10.3396 6.94767 10.2005C6.88878 10.0614 6.78928 9.94335 6.66219 9.86175C6.53509 9.78015 6.38632 9.73882 6.23535 9.74316ZM13.4922 14.9893C13.2945 14.9942 13.1067 15.077 12.9697 15.2197L12 16.1895L11.0303 15.2197C10.9604 15.1477 10.8767 15.0905 10.7843 15.0514C10.6919 15.0123 10.5925 14.9922 10.4922 14.9922C10.3429 14.9922 10.1971 15.0368 10.0733 15.1202C9.94949 15.2036 9.8534 15.322 9.7973 15.4603C9.74119 15.5986 9.72763 15.7506 9.75835 15.8966C9.78907 16.0427 9.86267 16.1763 9.96973 16.2803L11.4697 17.7803C11.6104 17.9209 11.8011 17.9999 12 17.9999C12.1989 17.9999 12.3896 17.9209 12.5303 17.7803L14.0303 16.2803C14.1394 16.1755 14.2143 16.0403 14.2452 15.8922C14.2761 15.7441 14.2614 15.5902 14.2033 15.4505C14.1451 15.3109 14.046 15.1922 13.9191 15.1098C13.7922 15.0275 13.6434 14.9855 13.4922 14.9893Z" fill="black"/>
</svg>
