<svg width="24" height="24" viewBox="0 0 24 24" fill="none" xmlns="http://www.w3.org/2000/svg">
<path d="M7.25 4.25C7.25 3.55964 7.80964 3 8.5 3H11C11.6904 3 12.25 3.55964 12.25 4.25C12.25 4.94036 11.6904 5.5 11 5.5H8.5C7.80964 5.5 7.25 4.94036 7.25 4.25Z" fill="black"/>
<path fill-rule="evenodd" clip-rule="evenodd" d="M6 4.25H5.75C5.02065 4.25 4.32118 4.53973 3.80546 5.05546C3.28973 5.57118 3 6.27065 3 7V19C3 19.7293 3.28973 20.4288 3.80546 20.9445C4.32118 21.4603 5.02065 21.75 5.75 21.75H15.75C14.7835 21.75 14 20.9665 14 20V16C14 15.0335 14.7835 14.25 15.75 14.25H16.5V12.725L15.0126 11.2375C14.3291 10.5541 14.3291 9.44609 15.0126 8.76267C15.418 8.3572 15.973 8.1923 16.5 8.26795V7C16.5 6.27065 16.2103 5.57118 15.6945 5.05546C15.1788 4.53973 14.4793 4.25 13.75 4.25H13.5C13.5 5.49264 12.4926 6.5 11.25 6.5H8.25C7.00736 6.5 6 5.49264 6 4.25ZM6.75 9.25C6.33579 9.25 6 9.58579 6 10C6 10.4142 6.33579 10.75 6.75 10.75H9.75C10.1642 10.75 10.5 10.4142 10.5 10C10.5 9.58579 10.1642 9.25 9.75 9.25H6.75ZM6 14C6 13.5858 6.33579 13.25 6.75 13.25H11.75C12.1642 13.25 12.5 13.5858 12.5 14C12.5 14.4142 12.1642 14.75 11.75 14.75H6.75C6.33579 14.75 6 14.4142 6 14Z" fill="black"/>
<path d="M15.7197 10.5304C15.5726 10.3834 15.4994 10.1905 15.5 9.9978C15.5006 9.80659 15.5738 9.61556 15.7197 9.46967C16.0126 9.17678 16.4874 9.17678 16.7803 9.46967L17.5 10.1893V9.80286C17.5 8.42582 18.1882 7.13989 19.334 6.37604C19.6786 6.14628 20.1443 6.23941 20.374 6.58405C20.6038 6.9287 20.5107 7.39435 20.166 7.62412C19.4376 8.10976 19 8.92735 19 9.80286V10.1893L19.7197 9.46967C20.0126 9.17678 20.4874 9.17678 20.7803 9.46967C21.0732 9.76256 21.0732 10.2374 20.7803 10.5303L18.7868 12.5239C18.6506 12.6634 18.4604 12.7501 18.25 12.7501C18.0396 12.7501 17.8494 12.6634 17.7132 12.5239L15.7197 10.5304Z" fill="black"/>
<path d="M15 16.1667C15 15.6604 15.4104 15.25 15.9167 15.25H17.0625V16.625C17.0625 17.0047 17.3703 17.3125 17.75 17.3125C18.1297 17.3125 18.4375 17.0047 18.4375 16.625V15.25H19.5833C20.0896 15.25 20.5 15.6604 20.5 16.1667V19.8333C20.5 20.3396 20.0896 20.75 19.5833 20.75H15.9167C15.4104 20.75 15 20.3396 15 19.8333V16.1667Z" fill="black"/>
</svg>
