<svg width="24" height="24" viewBox="0 0 24 24" fill="none" xmlns="http://www.w3.org/2000/svg">
<path fill-rule="evenodd" clip-rule="evenodd" d="M2.95783 4.95783C3.41104 4.50461 4.02573 4.25 4.66667 4.25H16.3333C16.9743 4.25 17.589 4.50461 18.0422 4.95782C18.4954 5.41104 18.75 6.02573 18.75 6.66667V13.2602C18.75 13.3337 18.6731 13.3825 18.6042 13.3571C18.4159 13.2878 18.2124 13.25 18 13.25H14C13.0335 13.25 12.25 14.0335 12.25 15V19C12.25 19.9665 13.0335 20.75 14 20.75H4.66667C4.02573 20.75 3.41104 20.4954 2.95782 20.0422C2.50461 19.589 2.25 18.9743 2.25 18.3333V6.66667C2.25 6.02573 2.50461 5.41104 2.95783 4.95783ZM8.1 5.75C8.04477 5.75 8 5.79477 8 5.85V9.25C8 9.52614 8.22386 9.75 8.5 9.75H12.5C12.7761 9.75 13 9.52614 13 9.25V5.85C13 5.79477 12.9552 5.75 12.9 5.75H8.1Z" fill="black"/>
<path d="M14 14.75C13.8619 14.75 13.75 14.8619 13.75 15V19C13.75 19.1381 13.8619 19.25 14 19.25H16.5636C16.6113 19.1816 16.6646 19.1158 16.7233 19.0531C17.1293 18.62 17.7038 18.4395 18.25 18.5178V15C18.25 14.8619 18.1381 14.75 18 14.75H16.75V15.5C16.75 15.9142 16.4142 16.25 16 16.25C15.5858 16.25 15.25 15.9142 15.25 15.5V14.75H14Z" fill="black"/>
<path d="M22.513 19.5472C22.8151 19.2639 22.8305 18.7892 22.5472 18.487C22.2639 18.1849 21.7892 18.1696 21.487 18.4528L19.3333 20.472L18.513 19.7028C18.2108 19.4196 17.7361 19.4349 17.4528 19.737C17.1696 20.0392 17.1849 20.5139 17.487 20.7972L18.8204 22.0472C19.1089 22.3176 19.5578 22.3176 19.8463 22.0472L22.513 19.5472Z" fill="black"/>
</svg>
