<svg width="24" height="24" viewBox="0 0 24 24" fill="none" xmlns="http://www.w3.org/2000/svg">
<path fill-rule="evenodd" clip-rule="evenodd" d="M18 9V12.7539C15.3766 12.7539 13.25 14.8806 13.25 17.5039C13.25 18.4212 13.51 19.2778 13.9603 20.0039H8.25C6.7312 20.0039 5.5 18.7727 5.5 17.2539V16.0039H6.58331C7.91803 16.0039 9 14.9219 9 13.5872V9.92056C9 8.58588 7.91803 7.50391 6.58331 7.50391H5.5V6.25391C5.5 4.73514 6.7312 3.50391 8.25 3.50391H19.1022C19.1511 3.50131 19.2004 3.5 19.25 3.5C20.7688 3.5 22 4.73123 22 6.25V8.25C22 8.66422 21.6642 9 21.25 9H18ZM20.5 7.5V6.25C20.5 5.55963 19.9404 5 19.25 5C18.5596 5 18 5.55963 18 6.25V7.5H20.5ZM12.25 6.25391C11.8358 6.25391 11.5 6.58969 11.5 7.00391C11.5 7.41812 11.8358 7.75391 12.25 7.75391H14.25C14.6642 7.75391 15 7.41812 15 7.00391C15 6.58969 14.6642 6.25391 14.25 6.25391H12.25ZM11.5 10.0039C11.5 9.58969 11.8358 9.25391 12.25 9.25391H15.25C15.6642 9.25391 16 9.58969 16 10.0039C16 10.4181 15.6642 10.7539 15.25 10.7539H12.25C11.8358 10.7539 11.5 10.4181 11.5 10.0039Z" fill="black"/>
<path fill-rule="evenodd" clip-rule="evenodd" d="M14.75 17.5039C14.75 15.709 16.2051 14.2539 18 14.2539C19.7949 14.2539 21.25 15.709 21.25 17.5039C21.25 19.2988 19.7949 20.7539 18 20.7539C16.2051 20.7539 14.75 19.2988 14.75 17.5039ZM18.75 16.0039C18.75 15.5897 18.4142 15.2539 18 15.2539C17.5858 15.2539 17.25 15.5897 17.25 16.0039V17.4039C17.25 17.8734 17.6306 18.2539 18.1 18.2539H19.5C19.9142 18.2539 20.25 17.9181 20.25 17.5039C20.25 17.0897 19.9142 16.7539 19.5 16.7539H18.75V16.0039Z" fill="black"/>
<path d="M2.91667 9.00391C2.41041 9.00391 2 9.41431 2 9.92057V13.5872C2 14.0935 2.41041 14.5039 2.91667 14.5039H6.58333C7.08959 14.5039 7.5 14.0935 7.5 13.5872V9.92057C7.5 9.41431 7.08959 9.00391 6.58333 9.00391H5.4375V10.3789C5.4375 10.7586 5.1297 11.0664 4.75 11.0664C4.3703 11.0664 4.0625 10.7586 4.0625 10.3789V9.00391H2.91667Z" fill="black"/>
</svg>
