<svg width="24" height="24" viewBox="0 0 24 24" fill="none" xmlns="http://www.w3.org/2000/svg">
<path fill-rule="evenodd" clip-rule="evenodd" d="M11.4799 3.73244C12.3903 2.82207 13.625 2.31064 14.9124 2.31064C16.1999 2.31064 17.4346 2.82207 18.345 3.73244C19.2553 4.6428 19.7668 5.87752 19.7668 7.16496C19.7668 8.45241 19.2553 9.68713 18.345 10.5975L12.0569 16.8856C11.5314 17.4111 10.8186 17.7063 10.0754 17.7063C9.33225 17.7063 8.61951 17.4111 8.094 16.8856C7.5685 16.3601 7.27327 15.6473 7.27327 14.9042C7.27327 14.161 7.5685 13.4482 8.094 12.9227L14.3821 6.63463C14.675 6.34174 15.1499 6.34174 15.4428 6.63463C15.7356 6.92753 15.7356 7.4024 15.4428 7.69529L9.15466 13.9834C8.91046 14.2276 8.77327 14.5588 8.77327 14.9042C8.77327 15.2495 8.91046 15.5807 9.15466 15.8249C9.39887 16.0691 9.73008 16.2063 10.0754 16.2063C10.4208 16.2063 10.752 16.0691 10.9962 15.8249L17.2843 9.53683C17.9133 8.90777 18.2668 8.05458 18.2668 7.16496C18.2668 6.27534 17.9133 5.42216 17.2843 4.7931C16.6552 4.16404 15.802 3.81064 14.9124 3.81064C14.0228 3.81064 13.1696 4.16404 12.5406 4.7931L6.25247 11.0812C5.23856 12.0951 4.66895 13.4703 4.66895 14.9042C4.66895 16.338 5.23856 17.7132 6.25247 18.7271C7.26638 19.741 8.64154 20.3106 10.0754 20.3106C11.5093 20.3106 12.8845 19.741 13.8984 18.7271L20.1865 12.439C20.4794 12.1461 20.9543 12.1461 21.2471 12.439C21.54 12.7319 21.54 13.2068 21.2471 13.4997L14.9591 19.7878C13.6638 21.083 11.9071 21.8106 10.0754 21.8106C8.24372 21.8106 6.48703 21.083 5.19181 19.7878C3.89659 18.4926 3.16895 16.7359 3.16895 14.9042C3.16895 13.0724 3.89659 11.3157 5.19181 10.0205L11.4799 3.73244Z" fill="black"/>
</svg>
