<svg width="24" height="24" viewBox="0 0 24 24" fill="none" xmlns="http://www.w3.org/2000/svg">
<path fill-rule="evenodd" clip-rule="evenodd" d="M15 3.75C15.3315 3.75 15.6495 3.8817 15.8839 4.11612C16.1183 4.35054 16.25 4.66848 16.25 5C16.25 5.06969 16.2597 5.13903 16.2789 5.20604L20.2465 19.0929C20.2244 19.3905 20.0963 19.6715 19.8839 19.8839C19.6495 20.1183 19.3315 20.25 19 20.25H9C8.66848 20.25 8.35054 20.1183 8.11612 19.8839C7.8817 19.6495 7.75 19.3315 7.75 19C7.75 18.9303 7.74029 18.861 7.72114 18.794L3.75346 4.90706C3.77563 4.60953 3.9037 4.32853 4.11612 4.11612C4.35054 3.8817 4.66848 3.75 5 3.75H15ZM16.9445 3.05546C16.4288 2.53973 15.7293 2.25 15 2.25H5C4.27065 2.25 3.57118 2.53973 3.05546 3.05546C2.53973 3.57118 2.25 4.27065 2.25 5C2.25 5.06969 2.25971 5.13903 2.27886 5.20604L6.25233 19.1132C6.28065 19.8014 6.56647 20.4556 7.05546 20.9445C7.57118 21.4603 8.27065 21.75 9 21.75H19C19.7293 21.75 20.4288 21.4603 20.9445 20.9445C21.4603 20.4288 21.75 19.7293 21.75 19C21.75 18.9303 21.7403 18.861 21.7211 18.794L17.7477 4.88681C17.7193 4.19861 17.4335 3.54444 16.9445 3.05546Z" fill="black"/>
</svg>
