<svg width="24" height="24" viewBox="0 0 24 24" fill="none" xmlns="http://www.w3.org/2000/svg">
<path fill-rule="evenodd" clip-rule="evenodd" d="M12 6.75C9.1005 6.75 6.75 9.1005 6.75 12C6.75 14.8995 9.1005 17.25 12 17.25C14.8995 17.25 17.25 14.8995 17.25 12C17.25 9.1005 14.8995 6.75 12 6.75ZM14.5303 11.197C14.8232 10.9041 14.8232 10.4292 14.5303 10.1363C14.2374 9.8434 13.7626 9.8434 13.4697 10.1363L11.3333 12.2726L10.5303 11.4696C10.2374 11.1767 9.76256 11.1767 9.46967 11.4696C9.17678 11.7625 9.17678 12.2374 9.46967 12.5303L10.803 13.8636C11.0959 14.1565 11.5708 14.1565 11.8637 13.8636L14.5303 11.197Z" fill="black"/>
<path fill-rule="evenodd" clip-rule="evenodd" d="M10.7733 1.49491C11.162 1.33323 11.579 1.25 12 1.25C12.4211 1.25 12.838 1.33323 13.2267 1.49491C13.6151 1.65642 13.9678 1.89303 14.2645 2.19116L14.2654 2.19209L15.0405 2.96719C15.3577 3.28257 15.7879 3.46002 16.2339 3.46002H17.3452C18.1925 3.46002 19.0051 3.79661 19.6043 4.39575C20.2034 4.99489 20.54 5.8075 20.54 6.65481V7.76607C20.54 8.21215 20.7169 8.64176 21.0323 8.95896L21.8086 9.73532C22.1069 10.0321 22.3436 10.3848 22.5051 10.7733C22.6668 11.162 22.75 11.5789 22.75 12C22.75 12.4211 22.6668 12.838 22.5051 13.2267C22.3436 13.6152 22.1069 13.9679 21.8086 14.2647L21.033 15.0403L21.0323 15.0411C20.7172 15.3583 20.5402 15.7872 20.54 16.2344V17.3452C20.54 18.1925 20.2034 19.0051 19.6043 19.6042C19.0051 20.2034 18.1925 20.54 17.3452 20.54H16.2344C15.7872 20.5402 15.3583 20.7172 15.0411 21.0322L15.0403 21.033L14.2654 21.8079L14.2643 21.809C13.9676 22.1071 13.615 22.3436 13.2267 22.5051C12.838 22.6668 12.4211 22.75 12 22.75C11.5789 22.75 11.162 22.6668 10.7733 22.5051C10.3848 22.3435 10.0321 22.1069 9.73533 21.8086L9.73461 21.8079L8.9597 21.033C8.64243 20.7178 8.21293 20.5402 7.76565 20.54H6.65481C5.8075 20.54 4.99489 20.2034 4.39575 19.6042C3.79661 19.0051 3.46002 18.1925 3.46002 17.3452V16.2344C3.45972 15.7873 3.28278 15.3583 2.96777 15.0411L2.967 15.0403L2.19209 14.2654L2.19116 14.2645C1.89303 13.9678 1.65642 13.6151 1.49491 13.2267C1.33323 12.838 1.25 12.4211 1.25 12C1.25 11.5789 1.33323 11.162 1.49491 10.7733C1.65643 10.3849 1.89307 10.0322 2.19124 9.73545L2.19209 9.7346L2.967 8.9597C3.28209 8.64249 3.45972 8.21296 3.46002 7.76583V6.65481C3.46002 5.8075 3.79662 4.99489 4.39575 4.39575C4.99489 3.79662 5.8075 3.46002 6.65481 3.46002L7.76565 3.46002C8.21275 3.45972 8.64179 3.28275 8.95899 2.9677L8.9597 2.96699L9.73461 2.19209L9.73546 2.19124C10.0322 1.89307 10.3849 1.65643 10.7733 1.49491ZM5.25 12C5.25 8.27208 8.27208 5.25 12 5.25C15.7279 5.25 18.75 8.27208 18.75 12C18.75 15.7279 15.7279 18.75 12 18.75C8.27208 18.75 5.25 15.7279 5.25 12Z" fill="black"/>
</svg>
