<svg width="24" height="24" viewBox="0 0 24 24" fill="none" xmlns="http://www.w3.org/2000/svg">
<path d="M11.25 1.5C10.2773 1.5 9.45117 2.13281 9.14062 3H5.25C4.01367 3 3 4.01367 3 5.25V18.75C3 19.9863 4.01367 21 5.25 21H10.5V21.0059C10.5 21.832 11.168 22.5 11.9883 22.5H19.5059C20.332 22.5 21 21.832 21 21.0059V11.9883C21 11.168 20.332 10.5 19.5059 10.5H19.5V5.25C19.5 4.01367 18.4863 3 17.25 3H13.3594C13.0488 2.13281 12.2227 1.5 11.25 1.5ZM11.25 3C11.6719 3 12 3.32812 12 3.75V4.5H13.5V6H9V4.5H10.5V3.75C10.5 3.32812 10.8281 3 11.25 3ZM5.25 4.5H7.5V7.5H15V4.5H17.25C17.6719 4.5 18 4.82812 18 5.25V10.5H11.9883C11.168 10.5 10.5 11.168 10.5 11.9883V19.5H5.25C4.82812 19.5 4.5 19.1719 4.5 18.75V5.25C4.5 4.82812 4.82812 4.5 5.25 4.5ZM11.9883 12H19.5L19.5059 21L12 21.0059L11.9883 12Z" fill="black"/>
</svg>
