<svg width="24" height="24" viewBox="0 0 24 24" fill="none" xmlns="http://www.w3.org/2000/svg">
<path d="M12 2C6.48608 2 2 6.48608 2 12C2 17.5139 6.48608 22 12 22C17.5139 22 22 17.5139 22 12C22 6.48608 17.5139 2 12 2ZM10.75 15.25C10.75 15.5261 10.5261 15.75 10.25 15.75H8.75C8.47386 15.75 8.25 15.5261 8.25 15.25V8.75C8.25 8.47386 8.47386 8.25 8.75 8.25H10.25C10.5261 8.25 10.75 8.47386 10.75 8.75V15.25ZM15.75 15.25C15.75 15.5261 15.5261 15.75 15.25 15.75H13.75C13.4739 15.75 13.25 15.5261 13.25 15.25V8.75C13.25 8.47386 13.4739 8.25 13.75 8.25H15.25C15.5261 8.25 15.75 8.47386 15.75 8.75V15.25Z" fill="black"/>
</svg>
