<svg width="24" height="24" viewBox="0 0 24 24" fill="none" xmlns="http://www.w3.org/2000/svg">
<path fill-rule="evenodd" clip-rule="evenodd" d="M7.75 13C7.474 13 7.25 13.224 7.25 13.5V16.5C7.25 16.776 7.474 17 7.75 17C8.026 17 8.25 16.776 8.25 16.5V16H8.75C9.577 16 10.25 15.327 10.25 14.5C10.25 13.673 9.577 13 8.75 13H7.75ZM8.25 14H8.75C9.0255 14 9.25 14.2245 9.25 14.5C9.25 14.7755 9.0255 15 8.75 15H8.25V14Z" fill="black"/>
<path fill-rule="evenodd" clip-rule="evenodd" d="M10.75 13.5C10.75 13.224 10.974 13 11.25 13H11.75C12.853 13 13.75 13.897 13.75 15C13.75 16.103 12.853 17 11.75 17H11.25C10.974 17 10.75 16.776 10.75 16.5V13.5ZM12.75 15C12.75 14.4485 12.3015 14 11.75 14V16C12.3015 16 12.75 15.5515 12.75 15Z" fill="black"/>
<path d="M14.25 13.5C14.25 13.224 14.474 13 14.75 13H16.25C16.526 13 16.75 13.224 16.75 13.5C16.75 13.776 16.526 14 16.25 14H15.25V14.5H16C16.276 14.5 16.5 14.724 16.5 15C16.5 15.276 16.276 15.5 16 15.5H15.25V16.5C15.25 16.776 15.026 17 14.75 17C14.474 17 14.25 16.776 14.25 16.5V13.5Z" fill="black"/>
<path fill-rule="evenodd" clip-rule="evenodd" d="M6.25 2H12.75C12.9489 2.00004 13.1396 2.07907 13.2803 2.21973L19.7803 8.71973C19.9119 8.85135 19.9896 9.02688 19.999 9.2119V11.0256C20.5684 11.142 20.998 11.6464 20.998 12.25V17.75C20.998 18.354 20.5679 18.8586 19.998 18.9746V19.75C19.998 20.9905 18.9885 22 17.748 22H6.25C5.0095 22 4 20.9905 4 19.75V18.9746C3.43012 18.8586 3 18.354 3 17.75V12.25C3 11.646 3.43012 11.1414 4 11.0254V4.25C4 3.01625 5.01625 2 6.25 2ZM17.748 20.5C18.1615 20.5 18.498 20.1635 18.498 19.75V19H5.5V19.75C5.5 20.1635 5.8365 20.5 6.25 20.5H17.748ZM19.498 17.5V12.5H4.5V17.5H19.498ZM18.5 11V10H14.25C13.0162 10 12 8.98375 12 7.75L11.9993 3.5H6.25C5.82675 3.5 5.5 3.82675 5.5 4.25V11H18.5ZM17.4385 8.5L13.5 4.56152V7.75C13.5 8.17325 13.8267 8.5 14.25 8.5H17.4385Z" fill="black"/>
</svg>
