<svg width="24" height="24" viewBox="0 0 24 24" fill="none" xmlns="http://www.w3.org/2000/svg">
<path fill-rule="evenodd" clip-rule="evenodd" d="M7.25 13.5C7.25 13.224 7.474 13 7.75 13H8.75C9.577 13 10.25 13.673 10.25 14.5C10.25 15.327 9.577 16 8.75 16H8.25V16.5C8.25 16.776 8.026 17 7.75 17C7.474 17 7.25 16.776 7.25 16.5V13.5ZM8.75 14H8.25V15H8.75C9.0255 15 9.25 14.7755 9.25 14.5C9.25 14.2245 9.0255 14 8.75 14Z" fill="black"/>
<path fill-rule="evenodd" clip-rule="evenodd" d="M10.75 13.5C10.75 13.224 10.974 13 11.25 13H11.75C12.853 13 13.75 13.897 13.75 15C13.75 16.103 12.853 17 11.75 17H11.25C10.974 17 10.75 16.776 10.75 16.5V13.5ZM12.75 15C12.75 14.4485 12.3015 14 11.75 14V16C12.3015 16 12.75 15.5515 12.75 15Z" fill="black"/>
<path d="M14.75 13C14.474 13 14.25 13.224 14.25 13.5V16.5C14.25 16.776 14.474 17 14.75 17C15.026 17 15.25 16.776 15.25 16.5V15.5H16C16.276 15.5 16.5 15.276 16.5 15C16.5 14.724 16.276 14.5 16 14.5H15.25V14H16.25C16.526 14 16.75 13.776 16.75 13.5C16.75 13.224 16.526 13 16.25 13H14.75Z" fill="black"/>
<path fill-rule="evenodd" clip-rule="evenodd" d="M6.25 2C5.0095 2 4 3.0095 4 4.25V11.0254C3.42987 11.1414 3 11.646 3 12.25V17.75C3 18.354 3.42987 18.8586 4 18.9746V19.75C4 20.9905 5.0095 22 6.25 22H17.75C18.9905 22 20 20.9905 20 19.75V18.9746C20.5701 18.8586 21 18.354 21 17.75V12.25C21 11.646 20.5701 11.1414 20 11.0254V10H14.25C13.0095 10 12 8.9905 12 7.75V2H6.25ZM4.5 12.5H19.5V17.5H4.5V12.5Z" fill="black"/>
<path d="M13.5 2.43945V7.75C13.5 8.1635 13.8365 8.5 14.25 8.5H19.5596L13.5 2.43945Z" fill="black"/>
</svg>
