<svg width="24" height="24" viewBox="0 0 24 24" fill="none" xmlns="http://www.w3.org/2000/svg">
<path d="M17.9766 3.00054C17.831 3.00521 17.6882 3.0416 17.5581 3.10717C17.428 3.17275 17.3139 3.26592 17.2236 3.38018L4.22363 19.3698C4.05632 19.5756 3.97765 19.8394 4.00494 20.1031C4.03223 20.3668 4.16324 20.6089 4.36914 20.7761C4.57505 20.9433 4.83898 21.022 5.10289 20.9947C5.3668 20.9674 5.60905 20.8365 5.77637 20.6307L18.7764 4.64108C18.9003 4.49313 18.9788 4.31248 19.0023 4.12094C19.0257 3.92941 18.9932 3.73518 18.9086 3.5617C18.8241 3.38823 18.6911 3.24293 18.5257 3.14335C18.3603 3.04377 18.1695 2.99418 17.9766 3.00054ZM6.5 3.01128C4.57912 3.01128 3 4.58938 3 6.50901V8.50772C3 10.4274 4.57912 12.0055 6.5 12.0055C8.42088 12.0055 10 10.4274 10 8.50772V6.50901C10 4.58938 8.42088 3.01128 6.5 3.01128ZM6.5 5.00999C7.33612 5.00999 8 5.67343 8 6.50901V8.50772C8 9.3433 7.33612 10.0068 6.5 10.0068C5.66388 10.0068 5 9.3433 5 8.50772V6.50901C5 5.67343 5.66388 5.00999 6.5 5.00999ZM16.5 12.0055C14.5791 12.0055 13 13.5836 13 15.5032V17.5019C13 19.4215 14.5791 20.9996 16.5 20.9996C18.4209 20.9996 20 19.4215 20 17.5019V15.5032C20 13.5836 18.4209 12.0055 16.5 12.0055ZM16.5 14.0042C17.3361 14.0042 18 14.6676 18 15.5032V17.5019C18 18.3375 17.3361 19.0009 16.5 19.0009C15.6639 19.0009 15 18.3375 15 17.5019V15.5032C15 14.6676 15.6639 14.0042 16.5 14.0042Z" fill="black"/>
</svg>
