<svg width="24" height="24" viewBox="0 0 24 24" fill="none" xmlns="http://www.w3.org/2000/svg">
<path d="M5.75 3C2.58 3 0 5.58 0 8.75C0 11.51 1.95469 13.82 4.55469 14.375C4.61469 13.87 4.72465 13.38 4.88965 12.915C2.95465 12.515 1.5 10.8 1.5 8.75C1.5 6.405 3.405 4.5 5.75 4.5H12.25C14.595 4.5 16.5 6.405 16.5 8.75C16.5 11.095 14.595 13 12.25 13H10.1846C9.66457 13.35 9.28047 13.885 9.10547 14.5H12.25C15.42 14.5 18 11.92 18 8.75C18 5.58 15.42 3 12.25 3H5.75ZM11.75 9.5C8.58 9.5 6 12.08 6 15.25C6 18.42 8.58 21 11.75 21H18.25C21.42 21 24 18.42 24 15.25C24 12.49 22.0453 10.18 19.4453 9.625C19.3853 10.13 19.2754 10.62 19.1104 11.085C21.0454 11.485 22.5 13.2 22.5 15.25C22.5 17.595 20.595 19.5 18.25 19.5H11.75C9.405 19.5 7.5 17.595 7.5 15.25C7.5 12.905 9.405 11 11.75 11H13.8154C14.3354 10.65 14.7195 10.115 14.8945 9.5H11.75Z" fill="black"/>
</svg>
