<svg width="24" height="24" viewBox="0 0 24 24" fill="none" xmlns="http://www.w3.org/2000/svg">
<path d="M12 2C6.48603 2 2 6.48604 2 12C2 17.514 6.48603 22 12 22C17.514 22 22 17.514 22 12C22 6.48604 17.514 2 12 2ZM12 3.5C16.7033 3.5 20.5 7.2967 20.5 12C20.5 16.7033 16.7033 20.5 12 20.5C7.29669 20.5 3.5 16.7033 3.5 12C3.5 7.2967 7.29669 3.5 12 3.5ZM15.7354 7.99316C15.5406 7.99884 15.3556 8.0801 15.2197 8.21973L10.75 12.6895L8.78027 10.7197C8.71116 10.6477 8.62839 10.5903 8.53679 10.5507C8.4452 10.5111 8.34662 10.4902 8.24684 10.4892C8.14706 10.4882 8.04808 10.5071 7.9557 10.5448C7.86332 10.5825 7.77939 10.6383 7.70883 10.7088C7.63828 10.7794 7.58251 10.8633 7.54479 10.9557C7.50707 11.0481 7.48817 11.1471 7.48918 11.2468C7.4902 11.3466 7.51111 11.4452 7.5507 11.5368C7.59028 11.6284 7.64775 11.7112 7.71973 11.7803L10.2197 14.2803C10.2906 14.3512 10.375 14.4072 10.468 14.4449C10.5609 14.4827 10.6605 14.5014 10.7607 14.5C10.9559 14.4971 11.1423 14.4183 11.2803 14.2803L16.2803 9.28027C16.3885 9.1749 16.4623 9.03931 16.4922 8.89126C16.5221 8.7432 16.5066 8.58958 16.4477 8.4505C16.3888 8.31141 16.2893 8.19335 16.1622 8.11175C16.0351 8.03015 15.8863 7.98882 15.7354 7.99316ZM10.7607 14.5H8.25C8.15062 14.4986 8.05194 14.517 7.95972 14.554C7.86749 14.5911 7.78355 14.6461 7.71277 14.7159C7.642 14.7857 7.58579 14.8688 7.54743 14.9605C7.50907 15.0522 7.48932 15.1506 7.48932 15.25C7.48932 15.3494 7.50907 15.4478 7.54743 15.5395C7.58579 15.6312 7.642 15.7143 7.71277 15.7841C7.78355 15.8539 7.86749 15.9089 7.95972 15.946C8.05194 15.983 8.15062 16.0014 8.25 16H15.75C15.8494 16.0014 15.9481 15.983 16.0403 15.946C16.1325 15.9089 16.2164 15.8539 16.2872 15.7841C16.358 15.7143 16.4142 15.6312 16.4526 15.5395C16.4909 15.4478 16.5107 15.3494 16.5107 15.25C16.5107 15.1506 16.4909 15.0522 16.4526 14.9605C16.4142 14.8688 16.358 14.7857 16.2872 14.7159C16.2164 14.6461 16.1325 14.5911 16.0403 14.554C15.9481 14.517 15.8494 14.4986 15.75 14.5H10.7607Z" fill="black"/>
</svg>
