<svg width="24" height="24" viewBox="0 0 24 24" fill="none" xmlns="http://www.w3.org/2000/svg">
<path d="M6.25 2C5.0095 2 4 3.0095 4 4.25V11.0254C3.43494 11.1438 3 11.6538 3 12.25V17.75C3 18.3462 3.43494 18.8562 4 18.9746V19.75C4 20.9905 5.0095 22 6.25 22H17.75C18.9905 22 20 20.9905 20 19.75V18.9746C20.5651 18.8562 21 18.3462 21 17.75V12.25C21 11.6538 20.5651 11.1438 20 11.0254V10H14.25C13.0095 10 12 8.9905 12 7.75V2H6.25ZM13.5 2.43945V7.75C13.5 8.1635 13.8365 8.5 14.25 8.5H19.5605L13.5 2.43945ZM4.5 12.5H19.5V17.5H4.5V12.5ZM7.5 13C7.224 13 7 13.224 7 13.5V16.5C7 16.776 7.224 17 7.5 17C7.776 17 8 16.776 8 16.5V16H8.5C9.327 16 10 15.327 10 14.5C10 13.673 9.327 13 8.5 13H7.5ZM11.0146 13C10.9618 12.9985 10.9081 13.0055 10.8555 13.0215C10.645 13.085 10.5 13.28 10.5 13.5V16.5C10.5 16.776 10.724 17 11 17C11.276 17 11.5 16.776 11.5 16.5V15.1514L12.584 16.7773C12.6785 16.9188 12.836 17 13 17C13.0485 17 13.0965 16.993 13.1445 16.9785C13.355 16.915 13.5 16.72 13.5 16.5V13.5C13.5 13.224 13.276 13 13 13C12.724 13 12.5 13.224 12.5 13.5V14.8486L11.416 13.2227C11.3238 13.085 11.1732 13.0045 11.0146 13ZM15.6465 13C14.739 13 14 13.897 14 15C14 16.103 14.738 17 15.6455 17C16.3665 17 16.8028 16.5121 16.9473 16.2236C16.9818 16.1546 17 16.0775 17 16V15.5C17 15.224 16.776 15 16.5 15C16.224 15 16 15.224 16 15.5V15.8457C15.9375 15.9147 15.8245 16 15.6465 16C15.3025 16 15 15.5325 15 15C15 14.4675 15.3015 14 15.6455 14C15.9135 14 16.0352 14.1936 16.0527 14.2236C16.1762 14.4706 16.4761 14.5718 16.7236 14.4473C16.9706 14.3238 17.0708 14.0234 16.9473 13.7764C16.8028 13.4879 16.3675 13 15.6465 13ZM8 14H8.5C8.7755 14 9 14.2245 9 14.5C9 14.7755 8.7755 15 8.5 15H8V14Z" fill="black"/>
</svg>
