<svg width="24" height="24" viewBox="0 0 24 24" fill="none" xmlns="http://www.w3.org/2000/svg">
<path fill-rule="evenodd" clip-rule="evenodd" d="M12 2.25C11.2707 2.25 10.5712 2.53973 10.0555 3.05546C9.53973 3.57118 9.25 4.27065 9.25 5C9.25 5.34377 9.31437 5.6809 9.43643 5.99528L6.37565 8.6188C5.961 8.37926 5.48716 8.25 5 8.25C4.27065 8.25 3.57118 8.53973 3.05546 9.05546C2.53973 9.57118 2.25 10.2707 2.25 11C2.25 11.7293 2.53973 12.4288 3.05546 12.9445C3.57118 13.4603 4.27065 13.75 5 13.75C5.50176 13.75 5.98938 13.6129 6.41276 13.3594L12.5529 17.7452C12.3557 18.13 12.25 18.5596 12.25 19C12.25 19.7293 12.5397 20.4288 13.0555 20.9445C13.5712 21.4603 14.2707 21.75 15 21.75C15.7293 21.75 16.4288 21.4603 16.9445 20.9445C17.4603 20.4288 17.75 19.7293 17.75 19C17.75 18.2707 17.4603 17.5712 16.9445 17.0555C16.9038 17.0147 16.8618 16.9753 16.8188 16.9374L19.0286 10.7499C19.7476 10.7424 20.4356 10.4535 20.9445 9.94454C21.4603 9.42882 21.75 8.72935 21.75 8C21.75 7.27065 21.4603 6.57118 20.9445 6.05546C20.4288 5.53973 19.7293 5.25 19 5.25C18.2707 5.25 17.5712 5.53973 17.0555 6.05546C17.0258 6.08508 16.997 6.1153 16.9688 6.1461L14.7498 5.03656L14.75 5C14.75 4.27065 14.4603 3.57118 13.9445 3.05546C13.4288 2.53973 12.7293 2.25 12 2.25ZM13.5872 16.6406C14.0106 16.3871 14.4982 16.25 15 16.25C15.1544 16.25 15.3075 16.263 15.4578 16.2884L17.5774 10.3535C17.3891 10.2396 17.2136 10.1027 17.0555 9.94454C16.5397 9.42882 16.25 8.72935 16.25 8C16.25 7.82689 16.2663 7.65547 16.2981 7.48779L14.3092 6.49334C14.2047 6.65496 14.0827 6.80635 13.9445 6.94454C13.4288 7.46027 12.7293 7.75 12 7.75C11.3984 7.75 10.817 7.55285 10.3424 7.19432L7.42201 9.69754C7.63538 10.0944 7.75 10.5413 7.75 11C7.75 11.4405 7.64433 11.87 7.44704 12.2548L13.5872 16.6406ZM11.1161 4.11612C11.3505 3.8817 11.6685 3.75 12 3.75C12.3315 3.75 12.6495 3.8817 12.8839 4.11612C13.1183 4.35054 13.25 4.66848 13.25 5C13.25 5.33152 13.1183 5.64946 12.8839 5.88388C12.6495 6.1183 12.3315 6.25 12 6.25C11.6685 6.25 11.3505 6.1183 11.1161 5.88388C10.8817 5.64946 10.75 5.33152 10.75 5C10.75 4.66848 10.8817 4.35054 11.1161 4.11612ZM18.1161 7.11612C18.3505 6.8817 18.6685 6.75 19 6.75C19.3315 6.75 19.6495 6.8817 19.8839 7.11612C20.1183 7.35054 20.25 7.66848 20.25 8C20.25 8.33152 20.1183 8.64946 19.8839 8.88388C19.6495 9.1183 19.3315 9.25 19 9.25C18.6685 9.25 18.3505 9.1183 18.1161 8.88388C17.8817 8.64946 17.75 8.33152 17.75 8C17.75 7.66848 17.8817 7.35054 18.1161 7.11612ZM5 9.75C4.66848 9.75 4.35054 9.8817 4.11612 10.1161C3.8817 10.3505 3.75 10.6685 3.75 11C3.75 11.3315 3.8817 11.6495 4.11612 11.8839C4.35054 12.1183 4.66848 12.25 5 12.25C5.33152 12.25 5.64946 12.1183 5.88388 11.8839C6.1183 11.6495 6.25 11.3315 6.25 11C6.25 10.6685 6.1183 10.3505 5.88388 10.1161C5.64946 9.8817 5.33152 9.75 5 9.75ZM14.1161 18.1161C14.3505 17.8817 14.6685 17.75 15 17.75C15.3315 17.75 15.6495 17.8817 15.8839 18.1161C16.1183 18.3505 16.25 18.6685 16.25 19C16.25 19.3315 16.1183 19.6495 15.8839 19.8839C15.6495 20.1183 15.3315 20.25 15 20.25C14.6685 20.25 14.3505 20.1183 14.1161 19.8839C13.8817 19.6495 13.75 19.3315 13.75 19C13.75 18.6685 13.8817 18.3505 14.1161 18.1161Z" fill="black"/>
</svg>
