<svg width="24" height="24" viewBox="0 0 24 24" fill="none" xmlns="http://www.w3.org/2000/svg">
<path d="M9.8847 20.5V17.673L6.49995 14.2885V9.30778C6.49995 8.96378 6.57403 8.64119 6.7222 8.34003C6.8702 8.03903 7.09678 7.80969 7.40195 7.65203L8.8077 9.05778H8.1922C8.14103 9.05778 8.0962 9.08019 8.0577 9.12503C8.0192 9.16986 7.99995 9.23078 7.99995 9.30778V13.65L11.3845 17.0345V19H12.6155V17.0345L13.6462 16.0038L1.61145 3.96928L2.6652 2.91553L21.0652 21.3155L20.0114 22.3693L14.7152 17.073L14.1152 17.673V20.5H9.8847ZM16.8615 14.2808L15.9999 13.4193V9.30778C15.9999 9.23078 15.9679 9.16028 15.9037 9.09628C15.8397 9.03211 15.7692 9.00003 15.6922 9.00003H11.5807L8.6732 6.09253V3.50003H10.173V7.50003H13.827V3.50003H15.3267V8.25003L14.577 7.50003H15.6922C16.1894 7.50003 16.615 7.67703 16.969 8.03103C17.323 8.38503 17.4999 8.81061 17.4999 9.30778V13.6423L16.8615 14.2808Z" fill="black"/>
</svg>
