<svg width="24" height="24" viewBox="0 0 24 24" fill="none" xmlns="http://www.w3.org/2000/svg">
<path fill-rule="evenodd" clip-rule="evenodd" d="M4.25 2.5C3.5682 2.5 3 3.0682 3 3.75V6.75C3 7.33508 3.45042 7.76502 4 7.89551V18.25C4 20.036 5.46403 21.5 7.25 21.5H12.3762C12.0203 21.0448 11.7237 20.5409 11.4982 20H7.25C6.27497 20 5.5 19.225 5.5 18.25V8H18.5V11.0765C19.0232 11.1572 19.5258 11.3004 20 11.4982V7.89551C20.5496 7.76502 21 7.33508 21 6.75V3.75C21 3.0682 20.4318 2.5 19.75 2.5H4.25ZM13.3465 12.5C13.8332 12.0953 14.3799 11.7602 14.9713 11.5102C14.9657 11.4935 14.9594 11.4769 14.9526 11.4605C14.9142 11.3688 14.858 11.2857 14.7872 11.2159C14.7164 11.1461 14.6325 11.0911 14.5403 11.054C14.4481 11.017 14.3494 10.9986 14.25 11H9.75C9.65062 10.9986 9.55194 11.017 9.45972 11.054C9.36749 11.0911 9.28355 11.1461 9.21277 11.2159C9.142 11.2857 9.08579 11.3688 9.04743 11.4605C9.00907 11.5522 8.98932 11.6506 8.98932 11.75C8.98932 11.8494 9.00907 11.9478 9.04743 12.0395C9.08579 12.1312 9.142 12.2143 9.21277 12.2841C9.28355 12.3539 9.36749 12.4089 9.45972 12.446C9.55194 12.483 9.65062 12.5014 9.75 12.5H13.3465ZM4.5 4H19.5V6.5H4.5V4ZM12 17.5C12 14.4625 14.4625 12 17.5 12C20.5375 12 23 14.4625 23 17.5C23 20.5375 20.5375 23 17.5 23C14.4625 23 12 20.5375 12 17.5ZM20.8537 15.1465C20.7559 15.0487 20.628 15 20.5001 15C20.3723 15 20.2444 15.0487 20.1466 15.1465L16.5001 18.793L14.8537 17.1465C14.6582 16.951 14.3421 16.951 14.1466 17.1465C13.9511 17.342 13.9511 17.658 14.1466 17.8535L16.1466 19.8535C16.2441 19.951 16.3721 20 16.5001 20C16.6281 20 16.7562 19.951 16.8537 19.8535L20.8537 15.8535C21.0492 15.658 21.0492 15.342 20.8537 15.1465Z" fill="black"/>
</svg>
