<svg width="24" height="24" viewBox="0 0 24 24" fill="none" xmlns="http://www.w3.org/2000/svg">
<path d="M13.5 4.75215C13.5006 4.55945 13.4274 4.36655 13.2803 4.21952L11.2868 2.2261C11.1506 2.08653 10.9604 1.99988 10.75 1.99988C10.5396 1.99988 10.3494 2.08653 10.2132 2.2261L8.21967 4.21963C7.92678 4.51252 7.92678 4.9874 8.21967 5.28029C8.51256 5.57318 8.98744 5.57318 9.28033 5.28029L10 4.56062V4.9471C10 5.82261 9.56244 6.6402 8.83398 7.12584C8.48933 7.35561 8.3962 7.82126 8.62596 8.1659C8.85573 8.51055 9.32138 8.60368 9.66603 8.37392C10.8118 7.61007 11.5 6.32414 11.5 4.9471V4.56062L12.2197 5.28029C12.5126 5.57318 12.9874 5.57318 13.2803 5.28029C13.4262 5.1344 13.4994 4.94336 13.5 4.75215Z" fill="black"/>
<path d="M6.75 5.49996C7.16421 5.49996 7.5 5.83574 7.5 6.24996C7.5 6.66417 7.16421 6.99996 6.75 6.99996H6.72258C6.29933 6.99996 5.97258 7.32671 5.97258 7.74996V12.0136C6.82004 12.6461 7.25217 12.9687 8.08391 13.5898C8.37027 12.6757 9.21962 12 10.2226 12H12.4189C13.8245 12 14.4807 11.8861 15.0439 11.7666C15.1858 11.7364 15.364 11.7173 15.5436 11.698C15.6922 11.6821 15.8419 11.666 15.9726 11.6435V7.74996C15.9726 7.32671 15.6458 6.99996 15.2226 6.99996H14.7501C14.3359 6.99996 14.0001 6.66417 14.0001 6.24996C14.0001 5.83574 14.3359 5.49996 14.7501 5.49996H15.2226C16.4563 5.49996 17.4726 6.51621 17.4726 7.74996V11.5644C19.2013 11.7316 20.5389 12.8333 21.4257 13.8955C22.385 15.0445 22.9052 16.1923 22.9052 16.1923C22.9461 16.282 22.9689 16.3788 22.9723 16.4773C22.9758 16.5757 22.9598 16.6739 22.9253 16.7662C22.8908 16.8585 22.8385 16.9431 22.7713 17.0151C22.7041 17.0872 22.6234 17.1453 22.5337 17.1862C22.444 17.227 22.3472 17.2498 22.2487 17.2532C22.1503 17.2566 22.0521 17.2406 21.9598 17.2061C21.8675 17.1716 21.783 17.1192 21.7109 17.052C21.6389 16.9848 21.5808 16.9041 21.54 16.8144C21.54 16.8144 21.0904 15.8349 20.2743 14.8574C19.4583 13.8799 18.3426 13 17.0595 13C16.415 13 16.0805 13.0739 15.6191 13.1759C15.5361 13.1942 15.4491 13.2135 15.3554 13.2334C14.7405 13.3638 13.9108 13.5 12.4189 13.5H10.2226C9.79934 13.5 9.47258 13.8267 9.47258 14.25C9.47258 14.4847 9.57549 14.6871 9.73723 14.8232L9.75774 14.8388C9.77216 14.85 9.78617 14.8618 9.79973 14.874L9.80071 14.875C9.91994 14.9543 10.0644 15 10.2226 15H13.7226C13.822 14.9986 13.9206 15.0169 14.0129 15.054C14.1051 15.091 14.189 15.1461 14.2598 15.2158C14.3306 15.2856 14.3868 15.3688 14.4252 15.4605C14.4635 15.5522 14.4833 15.6506 14.4833 15.75C14.4833 15.8494 14.4635 15.9478 14.4252 16.0394C14.3868 16.1311 14.3306 16.2143 14.2598 16.2841C14.189 16.3539 14.1051 16.4089 14.0129 16.4459C13.9206 16.483 13.822 16.5014 13.7226 16.5H10.2226C9.75227 16.5 9.31493 16.3507 8.95208 16.0996L8.95012 16.0986C8.91885 16.0815 8.88882 16.0623 8.86028 16.041C8.86028 16.041 4.5858 12.8489 3.83587 12.291C3.55369 12.0814 3.31884 12.0102 3.15325 12.0087C2.98766 12.0073 2.86366 12.0483 2.69231 12.2197C2.39661 12.5154 2.39839 12.9668 2.68645 13.2666C3.84396 14.2399 4.81585 15.0728 5.63619 15.7759C6.71346 16.6991 7.52938 17.3984 8.16106 17.8974C9.28762 18.7874 9.76009 19 10.2226 19C11.0987 19 12.0201 18.8849 12.9791 18.7652C14.0194 18.6353 15.1039 18.5 16.2226 18.5C17.4726 18.5 18.3512 19.1718 18.8222 19.7998C19.2932 20.4278 19.4501 21.0683 19.4501 21.0683C19.4766 21.1647 19.4835 21.2654 19.4705 21.3646C19.4575 21.4637 19.4248 21.5592 19.3743 21.6455C19.3239 21.7318 19.2567 21.8072 19.1767 21.8671C19.0967 21.9271 19.0055 21.9705 18.9085 21.9947C18.8115 22.0189 18.7107 22.0235 18.6119 22.0081C18.5131 21.9928 18.4183 21.9579 18.3332 21.9054C18.2481 21.853 18.1744 21.784 18.1163 21.7027C18.0582 21.6213 18.017 21.5291 17.995 21.4316C17.995 21.4316 17.902 21.0722 17.623 20.7002C17.344 20.3282 16.9726 20 16.2226 20C15.2924 20 14.3357 20.1194 13.3575 20.2415C12.3341 20.3693 11.2872 20.5 10.2226 20.5C9.27158 20.5 8.43017 20.0222 7.23137 19.0752C6.55239 18.5388 5.71593 17.8215 4.62375 16.8849C3.81157 16.1885 2.85798 15.3707 1.72258 14.416C1.69038 14.3933 1.66002 14.3682 1.63176 14.3408C1.63003 14.339 1.62892 14.337 1.62782 14.3349C1.62673 14.3328 1.62565 14.3308 1.62395 14.3291L1.622 14.331L1.59563 14.3037C1.52245 14.2274 1.46621 14.1366 1.43059 14.0371C0.807711 13.1608 0.848606 11.9413 1.63176 11.1582C2.04641 10.7435 2.60591 10.5038 3.16594 10.5087C3.62707 10.5128 4.06711 10.6697 4.47258 10.9189V7.74996C4.47258 6.51621 5.48883 5.49996 6.72258 5.49996H6.75Z" fill="black"/>
<path d="M12.2226 9.49996C12.322 9.49855 12.4206 9.51691 12.5129 9.55397C12.6051 9.59103 12.689 9.64605 12.7598 9.71584C12.8306 9.78562 12.8868 9.86878 12.9252 9.96047C12.9635 10.0522 12.9833 10.1506 12.9833 10.25C12.9833 10.3494 12.9635 10.4478 12.9252 10.5394C12.8868 10.6311 12.8306 10.7143 12.7598 10.7841C12.689 10.8539 12.6051 10.9089 12.5129 10.9459C12.4206 10.983 12.322 11.0014 12.2226 11H9.72258C9.6232 11.0014 9.52453 10.983 9.4323 10.9459C9.34008 10.9089 9.25613 10.8539 9.18536 10.7841C9.11458 10.7143 9.05838 10.6311 9.02002 10.5394C8.98166 10.4478 8.9619 10.3494 8.9619 10.25C8.9619 10.1506 8.98166 10.0522 9.02002 9.96047C9.05838 9.86878 9.11458 9.78562 9.18536 9.71584C9.25613 9.64605 9.34008 9.59103 9.4323 9.55397C9.52453 9.51691 9.6232 9.49855 9.72258 9.49996H12.2226Z" fill="black"/>
</svg>
