<svg width="24" height="24" viewBox="0 0 24 24" fill="none" xmlns="http://www.w3.org/2000/svg">
<path fill-rule="evenodd" clip-rule="evenodd" d="M3.87866 8V18.25C3.87866 20.042 5.33666 21.5 7.12866 21.5H12.3762C11.5139 20.397 11 19.0085 11 17.5C11 15.4896 11.9128 13.6923 13.3465 12.5H9.62866C9.21416 12.5 8.87866 12.164 8.87866 11.75C8.87866 11.336 9.21416 11 9.62866 11H14.1287C14.4778 11 14.7708 11.2384 14.8546 11.5609C15.6627 11.2004 16.558 11 17.5 11C18.3396 11 19.142 11.1592 19.8787 11.449V8H3.87866ZM19.6287 7H4.12866C3.43966 7 2.87866 6.4395 2.87866 5.75V3.75C2.87866 3.0605 3.43966 2.5 4.12866 2.5H19.6287C20.3177 2.5 20.8787 3.0605 20.8787 3.75V5.75C20.8787 6.4395 20.3177 7 19.6287 7ZM12 17.5C12 14.4625 14.4625 12 17.5 12C20.5375 12 23 14.4625 23 17.5C23 20.5375 20.5375 23 17.5 23C14.4625 23 12 20.5375 12 17.5ZM17.5 14C18.462 14 19.3545 14.4025 20 15.0645V14.5C20 14.224 20.2235 14 20.5 14C20.7765 14 21 14.224 21 14.5V16.5C21 16.776 20.776 17 20.5 17H18.5C18.2235 17 18 16.776 18 16.5C18 16.224 18.2235 16 18.5 16H19.4805C19.018 15.386 18.2945 15 17.5 15C16.4125 15 15.4846 15.6984 15.1416 16.6699C15.0716 16.8679 14.8848 17 14.6748 17C14.3233 17 14.0871 16.6489 14.2061 16.3184C14.6916 14.9684 15.985 14 17.5 14ZM14.5 18H16.5C16.7765 18 17 18.224 17 18.5C17 18.776 16.7765 19 16.5 19H15.5195C15.982 19.614 16.7055 20 17.5 20C18.5875 20 19.5154 19.3016 19.8584 18.3301C19.9284 18.1321 20.1152 18 20.3252 18C20.6767 18 20.9129 18.3511 20.7939 18.6816C20.3084 20.0316 19.015 21 17.5 21C16.538 21 15.6455 20.5975 15 19.9355V20.5C15 20.776 14.7765 21 14.5 21C14.2235 21 14 20.776 14 20.5V18.5C14 18.224 14.224 18 14.5 18Z" fill="black"/>
</svg>
