<svg width="24" height="24" viewBox="0 0 24 24" fill="none" xmlns="http://www.w3.org/2000/svg">
<path d="M12.0244 0.999999C11.831 0.993964 11.6428 1.06289 11.499 1.19238C11.499 1.19238 7.74508 4.5 3.25 4.5C3.05109 4.50002 2.86034 4.57904 2.71969 4.71969C2.57904 4.86034 2.50002 5.05109 2.5 5.25V11.3799C2.5 14.7189 4.04471 20.2132 11.709 23.4414C11.8011 23.4802 11.9 23.5002 12 23.5002C12.1 23.5002 12.1989 23.4802 12.291 23.4414C19.9553 20.2132 21.5 14.7189 21.5 11.3799V5.25C21.5 5.05109 21.421 4.86034 21.2803 4.71969C21.1397 4.57904 20.9489 4.50002 20.75 4.5C16.2549 4.5 12.501 1.19238 12.501 1.19238C12.3697 1.07414 12.201 1.00601 12.0244 0.999999ZM12 2.71387C13.0315 3.54318 16.0556 5.66859 20 5.9375V11.3799C20 14.251 18.8967 18.8828 12 21.9131C5.10328 18.8828 4 14.251 4 11.3799V5.9375C7.94437 5.66859 10.9685 3.54318 12 2.71387ZM15.7354 8.99316C15.5406 8.99884 15.3556 9.08009 15.2197 9.21973L10.75 13.6895L8.78027 11.7197C8.71116 11.6477 8.62839 11.5903 8.53679 11.5507C8.4452 11.5111 8.34662 11.4902 8.24684 11.4892C8.14706 11.4882 8.04808 11.5071 7.9557 11.5448C7.86332 11.5825 7.77939 11.6383 7.70883 11.7088C7.63828 11.7794 7.58251 11.8633 7.54479 11.9557C7.50707 12.0481 7.48817 12.1471 7.48918 12.2468C7.4902 12.3466 7.51111 12.4452 7.5507 12.5368C7.59028 12.6284 7.64775 12.7112 7.71973 12.7803L10.2197 15.2803C10.3604 15.4209 10.5511 15.4999 10.75 15.4999C10.9489 15.4999 11.1396 15.4209 11.2803 15.2803L16.2803 10.2803C16.3885 10.1749 16.4623 10.0393 16.4922 9.89125C16.5221 9.7432 16.5066 9.58958 16.4477 9.4505C16.3888 9.31141 16.2893 9.19335 16.1622 9.11174C16.0351 9.03014 15.8863 8.98881 15.7354 8.99316Z" fill="black"/>
</svg>
