<svg width="24" height="24" viewBox="0 0 24 24" fill="none" xmlns="http://www.w3.org/2000/svg">
<path fill-rule="evenodd" clip-rule="evenodd" d="M11.4179 2.26739C10.9763 2.2938 10.5352 2.35035 10.0979 2.43735C8.20656 2.81355 6.46927 3.74215 5.10571 5.10571C3.74215 6.46927 2.81355 8.20656 2.43735 10.0979C2.06114 11.9892 2.25422 13.9496 2.99218 15.7312C3.73013 17.5127 4.97982 19.0355 6.58319 20.1068C8.02447 21.0699 9.69336 21.6293 11.4167 21.7325C11.4997 21.7508 11.5859 21.7551 11.6713 21.7445C11.7807 21.7482 11.8903 21.75 12 21.75C12.4142 21.75 12.75 21.4142 12.75 21C12.75 20.5859 12.4143 20.2501 12.0002 20.25C11.1714 18.8437 10.5626 17.3261 10.1888 15.75H12C12.4142 15.75 12.75 15.4142 12.75 15C12.75 14.5858 12.4142 14.25 12 14.25H9.90674C9.80291 13.5073 9.75024 12.7556 9.75024 12.0001C9.75024 11.2446 9.80292 10.4928 9.90677 9.75H14.1061C14.2027 10.4953 14.25 11.2471 14.25 12.0001C14.25 12.4143 14.5858 12.7501 15 12.7501C15.4142 12.7501 15.75 12.4143 15.75 12.0001C15.75 11.2492 15.7066 10.4975 15.6176 9.75H19.9373C20.1437 10.4781 20.25 11.235 20.25 12C20.25 12.4142 20.5858 12.75 21 12.75C21.4142 12.75 21.75 12.4142 21.75 12C21.75 10.0716 21.1782 8.18657 20.1068 6.58319C19.0355 4.97982 17.5127 3.73013 15.7312 2.99218C14.7572 2.58874 13.7297 2.34815 12.6894 2.2744C12.5928 2.24921 12.4913 2.24322 12.3911 2.25785C12.1511 2.24821 11.9106 2.24744 11.67 2.25558C11.5855 2.24519 11.5002 2.24941 11.4179 2.26739ZM19.3485 8.25H15.3757C15.0758 6.78301 14.5909 5.34481 13.9041 3.97274C14.3301 4.07378 14.7492 4.20901 15.1571 4.378C16.6646 5.00242 17.9531 6.05984 18.8596 7.41655C19.0394 7.68552 19.2025 7.96386 19.3485 8.25ZM13.8418 8.25C13.4916 6.68684 12.9105 5.16972 12.0775 3.75037C12.0518 3.75012 12.026 3.75 12.0003 3.75C11.1715 5.15635 10.5627 6.67391 10.1889 8.25H13.8418ZM10.1789 3.95351C8.66072 4.2971 7.26911 5.06363 6.16637 6.16637C5.55211 6.78063 5.04217 7.48453 4.65154 8.25H8.65091C8.97275 6.7611 9.48558 5.3167 10.1789 3.95351ZM8.39343 9.75H4.06275C4.00299 9.96082 3.9515 10.1745 3.90853 10.3905C3.65292 11.6755 3.70789 12.9982 4.06274 14.25H8.3934C8.29838 13.5064 8.25024 12.755 8.25024 12.0001C8.25024 11.2452 8.29839 10.4937 8.39343 9.75ZM8.65087 15.75H4.65153C5.2907 17.0025 6.24134 18.0744 7.41655 18.8596C8.26114 19.424 9.19811 19.8245 10.1788 20.0465C9.48549 18.6833 8.97269 17.2389 8.65087 15.75Z" fill="black"/>
<path d="M18.5303 13.4697C18.2374 13.1768 17.7626 13.1768 17.4697 13.4697L14.4697 16.4697C14.1768 16.7626 14.1768 17.2374 14.4697 17.5303C14.7626 17.8232 15.2374 17.8232 15.5303 17.5303L17.25 15.8107V21C17.25 21.4142 17.5858 21.75 18 21.75C18.4142 21.75 18.75 21.4142 18.75 21V15.8107L20.4697 17.5303C20.7626 17.8232 21.2374 17.8232 21.5303 17.5303C21.8232 17.2374 21.8232 16.7626 21.5303 16.4697L18.5303 13.4697Z" fill="black"/>
</svg>
