<svg width="24" height="24" viewBox="0 0 24 24" fill="none" xmlns="http://www.w3.org/2000/svg">
<path fill-rule="evenodd" clip-rule="evenodd" d="M11.1719 12.1855C13.6004 9.75754 17.5622 9.78109 20.0205 12.2393C22.4786 14.6974 22.5029 18.6593 20.0752 21.0879C19.7585 21.4046 19.2396 21.4025 18.9189 21.082L15.6172 17.7803L12.248 21.1494C11.9379 21.4591 11.431 21.4564 11.1172 21.1426C10.8034 20.8288 10.8006 20.3219 11.1104 20.0117L14.4795 16.6426L11.1777 13.3398C10.8575 13.0192 10.8554 12.5022 11.1719 12.1855ZM17.4707 17.3379L19.4346 19.3018C20.5799 17.6525 20.512 15.409 19.2393 13.7998L17.4707 17.3379ZM18.459 13.0195C16.8498 11.7474 14.607 11.6801 12.958 12.8252L14.9219 14.7891L18.459 13.0195Z" fill="black"/>
<path fill-rule="evenodd" clip-rule="evenodd" d="M17.3799 2.625C18.8987 2.625 20.1299 3.85622 20.1299 5.375V9.375C20.1299 9.78921 19.7941 10.125 19.3799 10.125C18.9657 10.125 18.6299 9.78921 18.6299 9.375V8.125H4.12988V17.375C4.12988 18.0654 4.68953 18.625 5.37988 18.625H9.37988C9.7941 18.625 10.1299 18.9608 10.1299 19.375C10.1299 19.7892 9.7941 20.125 9.37988 20.125H5.37988C3.8611 20.125 2.62988 18.8938 2.62988 17.375V5.375C2.62988 3.85622 3.8611 2.625 5.37988 2.625H17.3799ZM5.37988 4.125C4.68953 4.125 4.12988 4.68464 4.12988 5.375V6.625H18.6299V5.375C18.6299 4.68464 18.0702 4.125 17.3799 4.125H5.37988Z" fill="black"/>
<path fill-rule="evenodd" clip-rule="evenodd" d="M9.37988 9.625C9.7941 9.625 10.1299 9.96079 10.1299 10.375V13.375C10.1299 13.7892 9.7941 14.125 9.37988 14.125H6.37988C5.96567 14.125 5.62988 13.7892 5.62988 13.375V10.375C5.62988 9.96079 5.96567 9.625 6.37988 9.625H9.37988ZM7.12988 12.625H8.62988V11.125H7.12988V12.625Z" fill="black"/>
</svg>
