<svg width="24" height="24" viewBox="0 0 24 24" fill="none" xmlns="http://www.w3.org/2000/svg">
<path fill-rule="evenodd" clip-rule="evenodd" d="M6.75 2.5H14.75C16.2665 2.5 17.5 3.734 17.5 5.25V16.25C17.5 17.766 16.2665 19 14.75 19H6.75C5.2335 19 4 17.766 4 16.25V5.25C4 3.734 5.2335 2.5 6.75 2.5ZM9.75 15C9.75 15.5525 10.1975 16 10.75 16C11.3025 16 11.75 15.5525 11.75 15C11.75 14.4475 11.3025 14 10.75 14C10.1975 14 9.75 14.4475 9.75 15ZM12.2132 10.8192L12.2135 10.819L12.2137 10.8188C12.7567 10.4038 13.5 9.83576 13.5 8.25C13.5 6.734 12.2665 5.5 10.75 5.5C9.2335 5.5 8 6.734 8 8.25V8.472C8 8.886 8.3355 9.222 8.75 9.222C9.1645 9.222 9.5 8.886 9.5 8.472V8.25C9.5 7.5605 10.061 7 10.75 7C11.439 7 12 7.5605 12 8.25C12 9.094 11.7525 9.2835 11.303 9.6265L11.3023 9.62704C10.7524 10.0475 10 10.6227 10 12.25C10 12.664 10.3355 13 10.75 13C11.1645 13 11.5 12.664 11.5 12.25C11.5 11.3642 11.7534 11.1706 12.2132 10.8192ZM6.9065 20.6095L6.5 20H15.25C17.045 20 18.5 18.545 18.5 16.75V5L19.1095 5.4065C19.666 5.7775 20 6.402 20 7.0705V16.75C20 19.3735 17.8735 21.5 15.25 21.5H8.5705C7.9015 21.5 7.277 21.166 6.9065 20.6095Z" fill="black"/>
</svg>
