<svg width="24" height="24" viewBox="0 0 24 24" fill="none" xmlns="http://www.w3.org/2000/svg">
<path d="M5 17.3529L6.70588 14.4118C5.41176 14.4118 4.30392 13.951 3.38235 13.0294C2.46078 12.1078 2 11 2 9.70588C2 8.41176 2.46078 7.30392 3.38235 6.38235C4.30392 5.46078 5.41176 5 6.70588 5C8 5 9.10784 5.46078 10.0294 6.38235C10.951 7.30392 11.4118 8.41176 11.4118 9.70588C11.4118 10.1569 11.3578 10.5735 11.25 10.9559C11.1422 11.3382 10.9804 11.7059 10.7647 12.0588L7.02941 18.5294C6.93137 18.7059 6.79412 18.848 6.61765 18.9559C6.44118 19.0637 6.2451 19.1176 6.02941 19.1176C5.57843 19.1176 5.2402 18.9216 5.01471 18.5294C4.78922 18.1373 4.78431 17.7451 5 17.3529ZM15.5882 17.3529L17.2941 14.4118C16 14.4118 14.8922 13.951 13.9706 13.0294C13.049 12.1078 12.5882 11 12.5882 9.70588C12.5882 8.41176 13.049 7.30392 13.9706 6.38235C14.8922 5.46078 16 5 17.2941 5C18.5882 5 19.6961 5.46078 20.6176 6.38235C21.5392 7.30392 22 8.41176 22 9.70588C22 10.1569 21.9461 10.5735 21.8382 10.9559C21.7304 11.3382 21.5686 11.7059 21.3529 12.0588L17.6176 18.5294C17.5196 18.7059 17.3824 18.848 17.2059 18.9559C17.0294 19.0637 16.8333 19.1176 16.6176 19.1176C16.1667 19.1176 15.8284 18.9216 15.6029 18.5294C15.3775 18.1373 15.3726 17.7451 15.5882 17.3529Z" fill="black"/>
</svg>
