<svg width="24" height="24" viewBox="0 0 24 24" fill="none" xmlns="http://www.w3.org/2000/svg">
<path d="M7.25 3.5C6.29252 3.5 5.5 4.29252 5.5 5.25V6.24219L3.09961 7.66992C2.42111 8.07342 2 8.81354 2 9.60254V17.25C2 19.042 3.458 20.5 5.25 20.5H18.75C20.542 20.5 22 19.042 22 17.25V9.60254C22 8.81354 21.5789 8.07342 20.9004 7.66992L18.5 6.24219V5.25C18.5 4.29252 17.7075 3.5 16.75 3.5H7.25ZM7.25 5H16.75C16.8975 5 17 5.10248 17 5.25V10.9834L12 13.416L7 10.9844V5.25C7 5.10248 7.10248 5 7.25 5ZM9.25 6.5C9.15062 6.49859 9.05194 6.51696 8.95972 6.55402C8.86749 6.59108 8.78355 6.6461 8.71277 6.71588C8.642 6.78566 8.58579 6.86882 8.54743 6.96051C8.50907 7.0522 8.48932 7.15061 8.48932 7.25C8.48932 7.34939 8.50907 7.4478 8.54743 7.53949C8.58579 7.63118 8.642 7.71434 8.71277 7.78412C8.78355 7.8539 8.86749 7.90892 8.95972 7.94598C9.05194 7.98304 9.15062 8.00141 9.25 8H14.75C14.8494 8.00141 14.9481 7.98304 15.0403 7.94598C15.1325 7.90892 15.2164 7.8539 15.2872 7.78412C15.358 7.71434 15.4142 7.63118 15.4526 7.53949C15.4909 7.4478 15.5107 7.34939 15.5107 7.25C15.5107 7.15061 15.4909 7.0522 15.4526 6.96051C15.4142 6.86882 15.358 6.78566 15.2872 6.71588C15.2164 6.6461 15.1325 6.59108 15.0403 6.55402C14.9481 6.51696 14.8494 6.49859 14.75 6.5H9.25ZM5.5 7.9873V10.2549L3.56543 9.31348C3.62693 9.16898 3.72771 9.04198 3.86621 8.95898L5.5 7.9873ZM18.5 7.98828L20.1328 8.95898C20.2713 9.04148 20.3721 9.16848 20.4336 9.31348L18.5 10.2539V7.98828ZM9.25 9.5C9.15062 9.49859 9.05194 9.51696 8.95972 9.55402C8.86749 9.59108 8.78355 9.6461 8.71277 9.71588C8.642 9.78566 8.58579 9.86882 8.54743 9.96051C8.50907 10.0522 8.48932 10.1506 8.48932 10.25C8.48932 10.3494 8.50907 10.4478 8.54743 10.5395C8.58579 10.6312 8.642 10.7143 8.71277 10.7841C8.78355 10.8539 8.86749 10.9089 8.95972 10.946C9.05194 10.983 9.15062 11.0014 9.25 11H12.75C12.8494 11.0014 12.9481 10.983 13.0403 10.946C13.1325 10.9089 13.2164 10.8539 13.2872 10.7841C13.358 10.7143 13.4142 10.6312 13.4526 10.5395C13.4909 10.4478 13.5107 10.3494 13.5107 10.25C13.5107 10.1506 13.4909 10.0522 13.4526 9.96051C13.4142 9.86882 13.358 9.78566 13.2872 9.71588C13.2164 9.6461 13.1325 9.59108 13.0403 9.55402C12.9481 9.51696 12.8494 9.49859 12.75 9.5H9.25Z" fill="black"/>
</svg>
