<svg width="24" height="24" viewBox="0 0 24 24" fill="none" xmlns="http://www.w3.org/2000/svg">
<path fill-rule="evenodd" clip-rule="evenodd" d="M14.25 10C13.0095 10 12 8.9905 12 7.75V2H6.25C5.0095 2 4 3.0095 4 4.25V19.75C4 20.9905 5.0095 22 6.25 22H12.8165C11.6935 20.832 11 19.248 11 17.5C11 15.752 11.6935 14.168 12.8165 13H7.25C6.836 13 6.5 12.6645 6.5 12.25C6.5 11.8355 6.836 11.5 7.25 11.5H14.9995C15.7695 11.1785 16.6135 11 17.5 11C18.386 11 19.23 11.1785 20 11.5V10H14.25ZM8.75 19H7.25C6.836 19 6.5 18.6645 6.5 18.25C6.5 17.8355 6.836 17.5 7.25 17.5H8.75C9.164 17.5 9.5 17.8355 9.5 18.25C9.5 18.6645 9.164 19 8.75 19ZM7.25 14.5H8.75C9.164 14.5 9.5 14.8355 9.5 15.25C9.5 15.6645 9.164 16 8.75 16H7.25C6.836 16 6.5 15.6645 6.5 15.25C6.5 14.8355 6.836 14.5 7.25 14.5ZM19.5605 8.5H14.25C13.8365 8.5 13.5 8.1635 13.5 7.75V2.4395L19.5605 8.5Z" fill="black"/>
<path d="M17.5 12C20.5376 12 23 14.4624 23 17.5C23 20.5376 20.5376 23 17.5 23C14.4624 23 12 20.5376 12 17.5C12 14.4624 14.4624 12 17.5 12ZM17.6758 14C17.612 14 17.5493 14.0182 17.4951 14.0518C17.441 14.0854 17.3975 14.1334 17.3691 14.1904L16.418 16.1094L14.2939 16.417C14.2307 16.4257 14.171 16.4522 14.1221 16.4932C14.0731 16.5341 14.0364 16.5878 14.0166 16.6484C13.9968 16.709 13.9944 16.7741 14.0098 16.8359C14.0252 16.8979 14.0576 16.9547 14.1035 16.999L15.6416 18.4922L15.2783 20.6016C15.2682 20.6642 15.2755 20.7285 15.2998 20.7871C15.3242 20.8458 15.3645 20.8974 15.416 20.9346C15.4675 20.9717 15.5285 20.9934 15.5918 20.998C15.6552 21.0027 15.719 20.9893 15.7754 20.96L17.6758 19.9648L19.5771 20.96C19.6335 20.9898 19.6972 21.0035 19.7607 20.999C19.8243 20.9945 19.8849 20.9719 19.9365 20.9346C19.9882 20.8971 20.0287 20.8462 20.0527 20.7871C20.0767 20.728 20.0841 20.6634 20.0732 20.6006L19.7109 18.4922L21.248 16.999C21.2936 16.9545 21.3256 16.8978 21.3408 16.8359C21.356 16.7741 21.3537 16.709 21.334 16.6484C21.3142 16.588 21.2782 16.5341 21.2295 16.4932C21.1808 16.4523 21.1215 16.4261 21.0586 16.417L18.9336 16.1094L17.9834 14.1904C17.955 14.1333 17.9107 14.0854 17.8564 14.0518C17.8022 14.0181 17.7396 14 17.6758 14Z" fill="black"/>
</svg>
