<svg width="24" height="24" viewBox="0 0 24 24" fill="none" xmlns="http://www.w3.org/2000/svg">
<path d="M6.25 2C5.0095 2 4 3.0095 4 4.25V19.75C4 20.9905 5.0095 22 6.25 22H12.8096C12.3831 21.5555 12.0194 21.051 11.7324 20.5H6.25C5.8365 20.5 5.5 20.1635 5.5 19.75V4.25C5.5 3.8365 5.8365 3.5 6.25 3.5H12V7.75C12 8.9905 13.0095 10 14.25 10H18.5V11.0762C19.023 11.1572 19.526 11.3 20 11.498V9.25C20 9.04275 19.916 8.85541 19.7803 8.71973L13.2803 2.21973C13.1445 2.08404 12.957 2 12.75 2H6.25ZM13.5 4.56055L17.4395 8.5H14.25C13.8365 8.5 13.5 8.1635 13.5 7.75V4.56055ZM17.5 12C14.4625 12 12 14.4625 12 17.5C12 20.5375 14.4625 23 17.5 23C20.5375 23 23 20.5375 23 17.5C23 14.4625 20.5375 12 17.5 12ZM8.75 12.5C8.336 12.5 8 12.8355 8 13.25C8 13.6645 8.336 14 8.75 14H12.0215C12.384 13.434 12.8312 12.928 13.3457 12.5H8.75ZM8.75 16C8.336 16 8 16.3355 8 16.75C8 17.1645 8.336 17.5 8.75 17.5H11C11 16.9835 11.0603 16.4815 11.1738 16H8.75ZM14 17H21C21.276 17 21.5 17.224 21.5 17.5C21.5 17.776 21.276 18 21 18H14C13.724 18 13.5 17.776 13.5 17.5C13.5 17.224 13.724 17 14 17Z" fill="black"/>
</svg>
