<svg width="24" height="24" viewBox="0 0 24 24" fill="none" xmlns="http://www.w3.org/2000/svg">
<path d="M11.7394 1.00001C11.5442 1.00287 11.3578 1.08169 11.2198 1.21974L6.21984 6.21974C6.14786 6.28885 6.0904 6.37162 6.05081 6.46322C6.01122 6.55482 5.99031 6.65339 5.9893 6.75317C5.98828 6.85295 6.00719 6.95193 6.0449 7.04431C6.08262 7.13669 6.13839 7.22062 6.20895 7.29118C6.27951 7.36174 6.36344 7.41751 6.45582 7.45522C6.5482 7.49294 6.64718 7.51185 6.74696 7.51083C6.84674 7.50982 6.94531 7.4889 7.03691 7.44932C7.1285 7.40973 7.21128 7.35226 7.28039 7.28029L11.0001 3.56056V20.4395L7.28039 16.7197C7.21128 16.6478 7.1285 16.5903 7.03691 16.5507C6.94531 16.5111 6.84674 16.4902 6.74696 16.4892C6.64718 16.4882 6.5482 16.5071 6.45582 16.5448C6.36344 16.5825 6.27951 16.6383 6.20895 16.7088C6.13839 16.7794 6.08262 16.8633 6.0449 16.9557C6.00719 17.0481 5.98828 17.1471 5.9893 17.2469C5.99031 17.3466 6.01122 17.4452 6.05081 17.5368C6.0904 17.6284 6.14786 17.7112 6.21984 17.7803L11.1554 22.7158C11.2257 22.8075 11.3162 22.8817 11.4198 22.9326C11.5235 22.9835 11.6375 23.0098 11.753 23.0094C11.8685 23.0091 11.9824 22.982 12.0857 22.9304C12.189 22.8788 12.2791 22.804 12.3487 22.7119L17.2804 17.7803C17.3524 17.7112 17.4098 17.6284 17.4494 17.5368C17.489 17.4452 17.5099 17.3466 17.5109 17.2469C17.5119 17.1471 17.493 17.0481 17.4553 16.9557C17.4176 16.8633 17.3618 16.7794 17.2913 16.7088C17.2207 16.6383 17.1368 16.5825 17.0444 16.5448C16.952 16.5071 16.8531 16.4882 16.7533 16.4892C16.6535 16.4902 16.5549 16.5111 16.4633 16.5507C16.3717 16.5903 16.289 16.6478 16.2198 16.7197L12.5001 20.4395V3.56056L16.2198 7.28029C16.289 7.35226 16.3717 7.40973 16.4633 7.44932C16.5549 7.4889 16.6535 7.50982 16.7533 7.51083C16.8531 7.51185 16.952 7.49294 17.0444 7.45522C17.1368 7.41751 17.2207 7.36174 17.2913 7.29118C17.3618 7.22062 17.4176 7.13669 17.4553 7.04431C17.493 6.95193 17.5119 6.85295 17.5109 6.75317C17.5099 6.65339 17.489 6.55482 17.4494 6.46322C17.4098 6.37162 17.3524 6.28885 17.2804 6.21974L12.2804 1.21974C12.2095 1.1488 12.1251 1.09281 12.0321 1.05507C11.9392 1.01733 11.8397 0.998606 11.7394 1.00001Z" fill="black"/>
</svg>
