<svg width="24" height="24" viewBox="0 0 24 24" fill="none" xmlns="http://www.w3.org/2000/svg">
<path d="M11.7393 1.00001C11.5441 1.00287 11.3577 1.08169 11.2197 1.21974L6.21972 6.21974C6.14774 6.28885 6.09028 6.37162 6.05069 6.46322C6.0111 6.55482 5.99019 6.65339 5.98917 6.75317C5.98816 6.85295 6.00706 6.95193 6.04478 7.04431C6.0825 7.13669 6.13827 7.22062 6.20883 7.29118C6.27939 7.36174 6.36331 7.41751 6.4557 7.45522C6.54808 7.49294 6.64706 7.51185 6.74684 7.51083C6.84662 7.50982 6.94519 7.4889 7.03679 7.44932C7.12838 7.40973 7.21116 7.35226 7.28027 7.28029L11 3.56056V20.4395L7.28027 16.7197C7.21116 16.6478 7.12838 16.5903 7.03679 16.5507C6.94519 16.5111 6.84662 16.4902 6.74684 16.4892C6.64706 16.4882 6.54808 16.5071 6.4557 16.5448C6.36331 16.5825 6.27939 16.6383 6.20883 16.7088C6.13827 16.7794 6.0825 16.8633 6.04478 16.9557C6.00706 17.0481 5.98816 17.1471 5.98917 17.2469C5.99019 17.3466 6.0111 17.4452 6.05069 17.5368C6.09028 17.6284 6.14774 17.7112 6.21972 17.7803L11.1553 22.7158C11.2256 22.8075 11.3161 22.8817 11.4197 22.9326C11.5234 22.9835 11.6374 23.0098 11.7529 23.0094C11.8684 23.0091 11.9823 22.982 12.0856 22.9304C12.1889 22.8788 12.2789 22.804 12.3486 22.7119L17.2803 17.7803C17.3522 17.7112 17.4097 17.6284 17.4493 17.5368C17.4889 17.4452 17.5098 17.3466 17.5108 17.2469C17.5118 17.1471 17.4929 17.0481 17.4552 16.9557C17.4175 16.8633 17.3617 16.7794 17.2912 16.7088C17.2206 16.6383 17.1367 16.5825 17.0443 16.5448C16.9519 16.5071 16.8529 16.4882 16.7532 16.4892C16.6534 16.4902 16.5548 16.5111 16.4632 16.5507C16.3716 16.5903 16.2888 16.6478 16.2197 16.7197L12.5 20.4395V3.56056L16.2197 7.28029C16.2888 7.35226 16.3716 7.40973 16.4632 7.44932C16.5548 7.4889 16.6534 7.50982 16.7532 7.51083C16.8529 7.51185 16.9519 7.49294 17.0443 7.45522C17.1367 7.41751 17.2206 7.36174 17.2912 7.29118C17.3617 7.22062 17.4175 7.13669 17.4552 7.04431C17.4929 6.95193 17.5118 6.85295 17.5108 6.75317C17.5098 6.65339 17.4889 6.55482 17.4493 6.46322C17.4097 6.37162 17.3522 6.28885 17.2803 6.21974L12.2803 1.21974C12.2094 1.1488 12.1249 1.09281 12.032 1.05507C11.9391 1.01733 11.8395 0.998606 11.7393 1.00001Z" fill="black"/>
</svg>
