<svg width="24" height="24" viewBox="0 0 24 24" fill="none" xmlns="http://www.w3.org/2000/svg">
<path d="M11.9999 3C11.5241 3 11.0705 3.04759 10.6376 3.11328C10.5378 3.12507 10.4413 3.15683 10.3539 3.20667C10.2665 3.25651 10.1901 3.32341 10.1291 3.40338C10.0681 3.48336 10.0239 3.57478 9.99893 3.67222C9.974 3.76965 9.96891 3.87111 9.98398 3.97055C9.99904 4.06999 10.034 4.16538 10.0866 4.25105C10.1393 4.33673 10.2087 4.41094 10.2906 4.46926C10.3726 4.52758 10.4654 4.56883 10.5636 4.59055C10.6618 4.61228 10.7634 4.61403 10.8622 4.5957C11.2464 4.53739 11.6238 4.5 11.9999 4.5C16.1511 4.5 19.4999 7.8488 19.4999 12C19.4999 16.1512 16.1511 19.5 11.9999 19.5C7.84874 19.5 4.49994 16.1512 4.49994 12C4.49994 10.0329 5.26369 8.25977 6.49994 6.9248V8.75C6.49853 8.84938 6.5169 8.94806 6.55396 9.04028C6.59102 9.13251 6.64604 9.21645 6.71582 9.28723C6.7856 9.358 6.86876 9.41421 6.96045 9.45257C7.05214 9.49093 7.15055 9.51068 7.24994 9.51068C7.34933 9.51068 7.44774 9.49093 7.53943 9.45257C7.63112 9.41421 7.71428 9.358 7.78406 9.28723C7.85384 9.21645 7.90886 9.13251 7.94592 9.04028C7.98298 8.94806 8.00135 8.84938 7.99994 8.75V5.25C7.99992 5.05109 7.9209 4.86034 7.78025 4.71969C7.6396 4.57904 7.44885 4.50002 7.24994 4.5H3.74994C3.65056 4.49859 3.55188 4.51696 3.45966 4.55402C3.36743 4.59108 3.28349 4.6461 3.21271 4.71588C3.14194 4.78566 3.08573 4.86882 3.04737 4.96051C3.00901 5.0522 2.98926 5.15061 2.98926 5.25C2.98926 5.34939 3.00901 5.4478 3.04737 5.53949C3.08573 5.63118 3.14194 5.71434 3.21271 5.78412C3.28349 5.8539 3.36743 5.90892 3.45966 5.94598C3.55188 5.98304 3.65056 6.00141 3.74994 6H5.30267C3.87351 7.59206 2.99994 9.69534 2.99994 12C2.99994 16.9618 7.03814 21 11.9999 21C16.9617 21 20.9999 16.9618 20.9999 12C20.9999 7.0382 16.9617 3 11.9999 3Z" fill="black"/>
</svg>
