<svg width="24" height="24" viewBox="0 0 24 24" fill="none" xmlns="http://www.w3.org/2000/svg">
<path d="M12 3C8.96497 3 6.27665 4.51161 4.64843 6.81738C4.59161 6.89786 4.55119 6.98873 4.52948 7.08483C4.50778 7.18092 4.50522 7.28035 4.52195 7.37743C4.53867 7.47452 4.57436 7.56736 4.62697 7.65065C4.67958 7.73394 4.74807 7.80605 4.82855 7.86287C4.90903 7.91969 4.99992 7.96009 5.09601 7.98178C5.19211 8.00347 5.29154 8.00602 5.38862 7.98928C5.4857 7.97255 5.57854 7.93685 5.66182 7.88423C5.74511 7.83161 5.81721 7.7631 5.87402 7.68262C7.2328 5.75839 9.46201 4.5 12 4.5C16.0408 4.5 19.3117 7.6754 19.4834 11.6729L18.2803 10.4697C18.2104 10.3977 18.1267 10.3405 18.0343 10.3014C17.9419 10.2623 17.8425 10.2422 17.7422 10.2422C17.5929 10.2422 17.4471 10.2868 17.3233 10.3702C17.1995 10.4536 17.1034 10.572 17.0473 10.7103C16.9912 10.8486 16.9776 11.0006 17.0083 11.1466C17.0391 11.2927 17.1127 11.4263 17.2197 11.5303L19.4697 13.7803C19.6104 13.9209 19.8011 13.9999 20 13.9999C20.1989 13.9999 20.3896 13.9209 20.5303 13.7803L20.7041 13.6064C20.7586 13.5651 20.8073 13.5165 20.8486 13.4619L22.7803 11.5303C22.8522 11.4612 22.9097 11.3784 22.9493 11.2868C22.9889 11.1952 23.0098 11.0966 23.0108 10.9968C23.0118 10.8971 22.9929 10.7981 22.9552 10.7057C22.9175 10.6133 22.8617 10.5294 22.7912 10.4588C22.7206 10.3883 22.6367 10.3325 22.5443 10.2948C22.4519 10.2571 22.3529 10.2382 22.2532 10.2392C22.1534 10.2402 22.0548 10.2611 21.9632 10.3007C21.8716 10.3403 21.7888 10.3977 21.7197 10.4697L20.9609 11.2285C20.5675 6.62702 16.7014 3 12 3ZM3.98925 10C3.79408 10.0029 3.60771 10.0817 3.46972 10.2197L3.29882 10.3906C3.24263 10.4329 3.19266 10.4829 3.15039 10.5391L1.21972 12.4697C1.14774 12.5388 1.09028 12.6216 1.05069 12.7132C1.0111 12.8048 0.990189 12.9034 0.989175 13.0032C0.98816 13.1029 1.00706 13.2019 1.04478 13.2943C1.0825 13.3867 1.13827 13.4706 1.20883 13.5412C1.27939 13.6117 1.36331 13.6675 1.4557 13.7052C1.54808 13.7429 1.64706 13.7618 1.74684 13.7608C1.84662 13.7598 1.94519 13.7389 2.03679 13.6993C2.12838 13.6597 2.21116 13.6023 2.28027 13.5303L3.03906 12.7715C3.43246 17.373 7.29854 21 12 21C15.035 21 17.7233 19.4884 19.3516 17.1826C19.4084 17.1021 19.4488 17.0113 19.4705 16.9152C19.4922 16.8191 19.4948 16.7197 19.478 16.6226C19.4613 16.5255 19.4256 16.4326 19.373 16.3494C19.3204 16.2661 19.2519 16.1939 19.1714 16.1371C19.091 16.0803 19.0001 16.0399 18.904 16.0182C18.8079 15.9965 18.7084 15.994 18.6114 16.0107C18.5143 16.0275 18.4215 16.0632 18.3382 16.1158C18.2549 16.1684 18.1828 16.2369 18.126 16.3174C16.7672 18.2416 14.538 19.5 12 19.5C7.95923 19.5 4.68828 16.3246 4.5166 12.3271L5.71972 13.5303C5.78883 13.6023 5.87161 13.6597 5.9632 13.6993C6.0548 13.7389 6.15337 13.7598 6.25315 13.7608C6.35293 13.7618 6.45191 13.7429 6.54429 13.7052C6.63667 13.6675 6.7206 13.6117 6.79116 13.5412C6.86172 13.4706 6.91749 13.3867 6.95521 13.2943C6.99292 13.2019 7.01183 13.1029 7.01081 13.0032C7.0098 12.9034 6.98889 12.8048 6.9493 12.7132C6.90971 12.6216 6.85225 12.5388 6.78027 12.4697L4.53027 10.2197C4.45936 10.1488 4.37495 10.0928 4.28202 10.0551C4.18909 10.0173 4.08954 9.99859 3.98925 10Z" fill="black"/>
</svg>
