<svg width="24" height="24" viewBox="0 0 24 24" fill="none" xmlns="http://www.w3.org/2000/svg">
<path d="M7.975 18.2518C7.80833 17.7684 7.65417 17.2768 7.5125 16.7768C7.37083 16.2768 7.25833 15.7768 7.175 15.2768L6 16.0768V19.0518L7.975 18.2518ZM11.65 4.87678C10.85 5.72678 10.2083 6.84762 9.725 8.23928C9.24167 9.63095 9 11.0934 9 12.6268C9 13.6268 9.09167 14.6059 9.275 15.5643C9.45833 16.5226 9.7 17.3351 10 18.0018H14C14.3 17.3351 14.5417 16.5226 14.725 15.5643C14.9083 14.6059 15 13.6268 15 12.6268C15 11.0934 14.7583 9.63095 14.275 8.23928C13.7917 6.84762 13.15 5.72678 12.35 4.87678C12.3 4.82678 12.2458 4.78928 12.1875 4.76428C12.1292 4.73928 12.0667 4.72678 12 4.72678C11.9333 4.72678 11.8708 4.73928 11.8125 4.76428C11.7542 4.78928 11.7 4.82678 11.65 4.87678ZM12 13.0018C11.45 13.0018 10.9792 12.8059 10.5875 12.4143C10.1958 12.0226 10 11.5518 10 11.0018C10 10.4518 10.1958 9.98095 10.5875 9.58928C10.9792 9.19762 11.45 9.00178 12 9.00178C12.55 9.00178 13.0208 9.19762 13.4125 9.58928C13.8042 9.98095 14 10.4518 14 11.0018C14 11.5518 13.8042 12.0226 13.4125 12.4143C13.0208 12.8059 12.55 13.0018 12 13.0018ZM16.025 18.2518L18 19.0518V16.0768L16.825 15.2768C16.7417 15.7768 16.6292 16.2768 16.4875 16.7768C16.3458 17.2768 16.1917 17.7684 16.025 18.2518ZM12.775 2.60178C14.175 3.80178 15.2292 5.27678 15.9375 7.02678C16.6458 8.77678 17 10.7684 17 13.0018L19.1 14.4018C19.3833 14.5851 19.6042 14.8268 19.7625 15.1268C19.9208 15.4268 20 15.7434 20 16.0768V20.5268C20 20.8768 19.8542 21.1518 19.5625 21.3518C19.2708 21.5518 18.9583 21.5851 18.625 21.4518L15.025 20.0018H8.975L5.375 21.4518C5.04167 21.5851 4.72917 21.5518 4.4375 21.3518C4.14583 21.1518 4 20.8768 4 20.5268V16.0768C4 15.7434 4.07917 15.4268 4.2375 15.1268C4.39583 14.8268 4.61667 14.5851 4.9 14.4018L7 13.0018C7 10.7684 7.35417 8.77678 8.0625 7.02678C8.77083 5.27678 9.825 3.80178 11.225 2.60178C11.3417 2.51845 11.4667 2.45178 11.6 2.40178C11.7333 2.35178 11.8667 2.32678 12 2.32678C12.1333 2.32678 12.2667 2.35178 12.4 2.40178C12.5333 2.45178 12.6583 2.51845 12.775 2.60178Z" fill="black"/>
</svg>
