<svg width="24" height="24" viewBox="0 0 24 24" fill="none" xmlns="http://www.w3.org/2000/svg">
<path d="M7.27217 11.3155C7.5055 10.8489 7.74717 10.3989 7.99717 9.96554C8.24717 9.5322 8.52217 9.09887 8.82217 8.66553L7.42217 8.39053L5.32217 10.4905L7.27217 11.3155ZM19.3222 4.44053C18.1555 4.47387 16.9097 4.81553 15.5847 5.46553C14.2597 6.11554 13.0555 6.9822 11.9722 8.06554C11.2722 8.76553 10.6472 9.51553 10.0972 10.3155C9.54717 11.1155 9.13883 11.8655 8.87217 12.5655L11.7222 15.3905C12.4222 15.1239 13.1722 14.7155 13.9722 14.1655C14.7722 13.6155 15.5222 12.9905 16.2222 12.2905C17.3055 11.2072 18.1722 10.0072 18.8222 8.69054C19.4722 7.37387 19.8138 6.1322 19.8472 4.96553C19.8472 4.89887 19.8347 4.8322 19.8097 4.76553C19.7847 4.69887 19.7472 4.64053 19.6972 4.59053C19.6472 4.54053 19.5888 4.50303 19.5222 4.47803C19.4555 4.45303 19.3888 4.44053 19.3222 4.44053ZM13.8222 10.4405C13.4388 10.0572 13.2472 9.58637 13.2472 9.02804C13.2472 8.4697 13.4388 7.99887 13.8222 7.61554C14.2055 7.2322 14.6805 7.04053 15.2472 7.04053C15.8138 7.04053 16.2888 7.2322 16.6722 7.61554C17.0555 7.99887 17.2472 8.4697 17.2472 9.02804C17.2472 9.58637 17.0555 10.0572 16.6722 10.4405C16.2888 10.8239 15.8138 11.0155 15.2472 11.0155C14.6805 11.0155 14.2055 10.8239 13.8222 10.4405ZM12.9722 16.9905L13.7972 18.9655L15.8972 16.8655L15.6222 15.4655C15.1888 15.7655 14.7555 16.0364 14.3222 16.278C13.8888 16.5197 13.4388 16.7572 12.9722 16.9905ZM21.7472 3.64053C21.8805 5.47387 21.5805 7.26137 20.8472 9.00304C20.1138 10.7447 18.9555 12.4072 17.3722 13.9905L17.8722 16.4655C17.9388 16.7989 17.9222 17.1239 17.8222 17.4405C17.7222 17.7572 17.5555 18.0322 17.3222 18.2655L14.1722 21.4155C13.9222 21.6655 13.6222 21.7614 13.2722 21.703C12.9222 21.6447 12.6805 21.4489 12.5472 21.1155L11.0222 17.5405L6.74717 13.2655L3.17217 11.7405C2.83883 11.6072 2.63883 11.3655 2.57217 11.0155C2.5055 10.6655 2.59717 10.3655 2.84717 10.1155L5.99717 6.96554C6.2305 6.7322 6.50967 6.56554 6.83467 6.46553C7.15967 6.36554 7.48883 6.34887 7.82217 6.41553L10.2972 6.91553C11.8805 5.3322 13.543 4.17387 15.2847 3.44053C17.0263 2.7072 18.8138 2.4072 20.6472 2.54053C20.7805 2.5572 20.9138 2.5947 21.0472 2.65303C21.1805 2.71137 21.2972 2.79053 21.3972 2.89053C21.4972 2.99053 21.5763 3.1072 21.6347 3.24053C21.693 3.37387 21.7305 3.5072 21.7472 3.64053ZM4.09717 15.9405C4.6805 15.3572 5.393 15.0614 6.23467 15.053C7.07633 15.0447 7.78883 15.3322 8.37217 15.9155C8.9555 16.4989 9.243 17.2114 9.23467 18.053C9.22634 18.8947 8.9305 19.6072 8.34717 20.1905C7.54717 20.9905 6.60133 21.4655 5.50967 21.6155C4.418 21.7655 3.32217 21.9155 2.22217 22.0655C2.37217 20.9655 2.52217 19.8697 2.67217 18.778C2.82217 17.6864 3.29717 16.7405 4.09717 15.9405ZM5.52217 17.3405C5.23883 17.6239 5.043 17.9655 4.93467 18.3655C4.82633 18.7655 4.73883 19.1739 4.67217 19.5905C5.08883 19.5239 5.49717 19.4405 5.89717 19.3405C6.29717 19.2405 6.63883 19.0489 6.92217 18.7655C7.12217 18.5655 7.2305 18.3239 7.24717 18.0405C7.26383 17.7572 7.17217 17.5155 6.97217 17.3155C6.77217 17.1155 6.5305 17.0197 6.24717 17.028C5.96383 17.0364 5.72217 17.1405 5.52217 17.3405Z" fill="black"/>
</svg>
