<svg width="24" height="24" viewBox="0 0 24 24" fill="none" xmlns="http://www.w3.org/2000/svg">
<path d="M5.375 21.4519C5.04167 21.5852 4.72917 21.5519 4.4375 21.3519C4.14583 21.1519 4 20.8769 4 20.5269V16.0769C4 15.7436 4.07917 15.4269 4.2375 15.1269C4.39583 14.8269 4.61667 14.5852 4.9 14.4019L6 13.6769C6.11667 15.0269 6.29583 16.1936 6.5375 17.1769C6.77917 18.1602 7.175 19.2769 7.725 20.5269L5.375 21.4519ZM9.8 20.0019C9.56667 20.0019 9.36667 19.9269 9.2 19.7769C9.03333 19.6269 8.90833 19.4436 8.825 19.2269C8.375 18.0769 8.04167 17.0144 7.825 16.0394C7.60833 15.0644 7.5 13.9436 7.5 12.6769C7.5 10.8102 7.83333 9.03107 8.5 7.3394C9.16667 5.64774 10.075 4.2769 11.225 3.2269C11.325 3.1269 11.4458 3.05607 11.5875 3.0144C11.7292 2.97274 11.8667 2.9519 12 2.9519C12.1333 2.9519 12.2708 2.97274 12.4125 3.0144C12.5542 3.05607 12.675 3.1269 12.775 3.2269C13.925 4.2769 14.8333 5.64774 15.5 7.3394C16.1667 9.03107 16.5 10.8102 16.5 12.6769C16.5 13.9602 16.3917 15.0852 16.175 16.0519C15.9583 17.0186 15.625 18.0769 15.175 19.2269C15.0917 19.4436 14.9667 19.6269 14.8 19.7769C14.6333 19.9269 14.4333 20.0019 14.2 20.0019H9.8ZM12 13.0019C12.55 13.0019 13.0208 12.8061 13.4125 12.4144C13.8042 12.0227 14 11.5519 14 11.0019C14 10.4519 13.8042 9.98107 13.4125 9.5894C13.0208 9.19774 12.55 9.0019 12 9.0019C11.45 9.0019 10.9792 9.19774 10.5875 9.5894C10.1958 9.98107 10 10.4519 10 11.0019C10 11.5519 10.1958 12.0227 10.5875 12.4144C10.9792 12.8061 11.45 13.0019 12 13.0019ZM18.625 21.4519L16.275 20.5269C16.825 19.2769 17.2208 18.1602 17.4625 17.1769C17.7042 16.1936 17.8833 15.0269 18 13.6769L19.1 14.4019C19.3833 14.5852 19.6042 14.8269 19.7625 15.1269C19.9208 15.4269 20 15.7436 20 16.0769V20.5269C20 20.8769 19.8542 21.1519 19.5625 21.3519C19.2708 21.5519 18.9583 21.5852 18.625 21.4519Z" fill="black"/>
</svg>
