<svg width="24" height="24" viewBox="0 0 24 24" fill="none" xmlns="http://www.w3.org/2000/svg">
<path d="M5 21C4.45 21 3.97917 20.8042 3.5875 20.4125C3.19583 20.0208 3 19.55 3 19V15C3 14.45 3.19583 13.9792 3.5875 13.5875C3.97917 13.1958 4.45 13 5 13H15V10C15 9.71667 15.0958 9.47917 15.2875 9.2875C15.4792 9.09583 15.7167 9 16 9C16.2833 9 16.5208 9.09583 16.7125 9.2875C16.9042 9.47917 17 9.71667 17 10V13H19C19.55 13 20.0208 13.1958 20.4125 13.5875C20.8042 13.9792 21 14.45 21 15V19C21 19.55 20.8042 20.0208 20.4125 20.4125C20.0208 20.8042 19.55 21 19 21H5ZM5 19H19V15H5V19ZM7 18C7.28333 18 7.52083 17.9042 7.7125 17.7125C7.90417 17.5208 8 17.2833 8 17C8 16.7167 7.90417 16.4792 7.7125 16.2875C7.52083 16.0958 7.28333 16 7 16C6.71667 16 6.47917 16.0958 6.2875 16.2875C6.09583 16.4792 6 16.7167 6 17C6 17.2833 6.09583 17.5208 6.2875 17.7125C6.47917 17.9042 6.71667 18 7 18ZM10.5 18C10.7833 18 11.0208 17.9042 11.2125 17.7125C11.4042 17.5208 11.5 17.2833 11.5 17C11.5 16.7167 11.4042 16.4792 11.2125 16.2875C11.0208 16.0958 10.7833 16 10.5 16C10.2167 16 9.97917 16.0958 9.7875 16.2875C9.59583 16.4792 9.5 16.7167 9.5 17C9.5 17.2833 9.59583 17.5208 9.7875 17.7125C9.97917 17.9042 10.2167 18 10.5 18ZM14 18C14.2833 18 14.5208 17.9042 14.7125 17.7125C14.9042 17.5208 15 17.2833 15 17C15 16.7167 14.9042 16.4792 14.7125 16.2875C14.5208 16.0958 14.2833 16 14 16C13.7167 16 13.4792 16.0958 13.2875 16.2875C13.0958 16.4792 13 16.7167 13 17C13 17.2833 13.0958 17.5208 13.2875 17.7125C13.4792 17.9042 13.7167 18 14 18ZM16 7.5C15.8167 7.5 15.65 7.51667 15.5 7.55C15.35 7.58333 15.2 7.63333 15.05 7.7C14.7833 7.81667 14.5125 7.86667 14.2375 7.85C13.9625 7.83333 13.725 7.725 13.525 7.525C13.325 7.325 13.2292 7.08333 13.2375 6.8C13.2458 6.51667 13.3667 6.30833 13.6 6.175C13.95 5.95833 14.3292 5.79167 14.7375 5.675C15.1458 5.55833 15.5667 5.5 16 5.5C16.45 5.5 16.875 5.55833 17.275 5.675C17.675 5.79167 18.05 5.95833 18.4 6.175C18.6333 6.30833 18.7542 6.51667 18.7625 6.8C18.7708 7.08333 18.675 7.325 18.475 7.525C18.275 7.725 18.0333 7.83333 17.75 7.85C17.4667 7.86667 17.1917 7.81667 16.925 7.7C16.7917 7.63333 16.6458 7.58333 16.4875 7.55C16.3292 7.51667 16.1667 7.5 16 7.5ZM16 4C15.35 4 14.7292 4.09583 14.1375 4.2875C13.5458 4.47917 13 4.75833 12.5 5.125C12.2667 5.29167 12.0125 5.36667 11.7375 5.35C11.4625 5.33333 11.2333 5.23333 11.05 5.05C10.85 4.85 10.75 4.61667 10.75 4.35C10.75 4.08333 10.8583 3.86667 11.075 3.7C11.7583 3.16667 12.5167 2.75 13.35 2.45C14.1833 2.15 15.0667 2 16 2C16.9333 2 17.8167 2.15 18.65 2.45C19.4833 2.75 20.2417 3.16667 20.925 3.7C21.1417 3.86667 21.25 4.08333 21.25 4.35C21.25 4.61667 21.15 4.85 20.95 5.05C20.7667 5.23333 20.5375 5.33333 20.2625 5.35C19.9875 5.36667 19.7333 5.29167 19.5 5.125C19 4.75833 18.4542 4.47917 17.8625 4.2875C17.2708 4.09583 16.65 4 16 4Z" fill="black"/>
</svg>
