<svg width="24" height="24" viewBox="0 0 24 24" fill="none" xmlns="http://www.w3.org/2000/svg">
<path fill-rule="evenodd" clip-rule="evenodd" d="M5 2.25C4.27065 2.25 3.57118 2.53973 3.05546 3.05546C2.53973 3.57118 2.25 4.27065 2.25 5C2.25 5.72935 2.53973 6.42882 3.05546 6.94454C3.57118 7.46027 4.27065 7.75 5 7.75C5.72935 7.75 6.42882 7.46027 6.94454 6.94454C7.46027 6.42882 7.75 5.72935 7.75 5C7.75 4.27065 7.46027 3.57118 6.94454 3.05546C6.42882 2.53973 5.72935 2.25 5 2.25ZM4.11612 4.11612C4.35054 3.8817 4.66848 3.75 5 3.75C5.33152 3.75 5.64946 3.8817 5.88388 4.11612C6.1183 4.35054 6.25 4.66848 6.25 5C6.25 5.33152 6.1183 5.64946 5.88388 5.88388C5.64946 6.1183 5.33152 6.25 5 6.25C4.66848 6.25 4.35054 6.1183 4.11612 5.88388C3.8817 5.64946 3.75 5.33152 3.75 5C3.75 4.66848 3.8817 4.35054 4.11612 4.11612Z" fill="black"/>
<path fill-rule="evenodd" clip-rule="evenodd" d="M19 2.25C18.2707 2.25 17.5712 2.53973 17.0555 3.05546C16.5397 3.57118 16.25 4.27065 16.25 5C16.25 5.72935 16.5397 6.42882 17.0555 6.94454C17.5712 7.46027 18.2707 7.75 19 7.75C19.7293 7.75 20.4288 7.46027 20.9445 6.94454C21.4603 6.42882 21.75 5.72935 21.75 5C21.75 4.27065 21.4603 3.57118 20.9445 3.05546C20.4288 2.53973 19.7293 2.25 19 2.25ZM18.1161 4.11612C18.3505 3.8817 18.6685 3.75 19 3.75C19.3315 3.75 19.6495 3.8817 19.8839 4.11612C20.1183 4.35054 20.25 4.66848 20.25 5C20.25 5.33152 20.1183 5.64946 19.8839 5.88388C19.6495 6.1183 19.3315 6.25 19 6.25C18.6685 6.25 18.3505 6.1183 18.1161 5.88388C17.8817 5.64946 17.75 5.33152 17.75 5C17.75 4.66848 17.8817 4.35054 18.1161 4.11612Z" fill="black"/>
<path fill-rule="evenodd" clip-rule="evenodd" d="M17.0555 11.0555C17.5712 10.5397 18.2707 10.25 19 10.25C19.7293 10.25 20.4288 10.5397 20.9445 11.0555C21.4603 11.5712 21.75 12.2707 21.75 13C21.75 13.7293 21.4603 14.4288 20.9445 14.9445C20.4288 15.4603 19.7293 15.75 19 15.75C18.2707 15.75 17.5712 15.4603 17.0555 14.9445C16.5397 14.4288 16.25 13.7293 16.25 13C16.25 12.2707 16.5397 11.5712 17.0555 11.0555ZM19 11.75C18.6685 11.75 18.3505 11.8817 18.1161 12.1161C17.8817 12.3505 17.75 12.6685 17.75 13C17.75 13.3315 17.8817 13.6495 18.1161 13.8839C18.3505 14.1183 18.6685 14.25 19 14.25C19.3315 14.25 19.6495 14.1183 19.8839 13.8839C20.1183 13.6495 20.25 13.3315 20.25 13C20.25 12.6685 20.1183 12.3505 19.8839 12.1161C19.6495 11.8817 19.3315 11.75 19 11.75Z" fill="black"/>
<path d="M14 4.25C13.2707 4.25 12.5712 4.53973 12.0555 5.05546C12.0367 5.07424 12.0182 5.09327 12 5.11254C11.9818 5.09327 11.9633 5.07424 11.9445 5.05546C11.4288 4.53973 10.7293 4.25 10 4.25C9.58579 4.25 9.25 4.58579 9.25 5C9.25 5.41421 9.58579 5.75 10 5.75C10.3315 5.75 10.6495 5.8817 10.8839 6.11612C11.1183 6.35054 11.25 6.66848 11.25 7V17C11.25 17.3315 11.1183 17.6495 10.8839 17.8839C10.6495 18.1183 10.3315 18.25 10 18.25C9.58579 18.25 9.25 18.5858 9.25 19C9.25 19.4142 9.58579 19.75 10 19.75C10.7293 19.75 11.4288 19.4603 11.9445 18.9445C12.4603 18.4288 12.75 17.7293 12.75 17V15C12.75 14.6685 12.8817 14.3505 13.1161 14.1161C13.3505 13.8817 13.6685 13.75 14 13.75C14.4142 13.75 14.75 13.4142 14.75 13C14.75 12.5858 14.4142 12.25 14 12.25C13.5614 12.25 13.1335 12.3548 12.75 12.5505V7C12.75 6.66848 12.8817 6.35054 13.1161 6.11612C13.3505 5.8817 13.6685 5.75 14 5.75C14.4142 5.75 14.75 5.41421 14.75 5C14.75 4.58579 14.4142 4.25 14 4.25Z" fill="black"/>
<path fill-rule="evenodd" clip-rule="evenodd" d="M3.25 17.0253C3.01156 17.0739 2.79059 17.1916 2.616 17.3663C2.38162 17.6008 2.25 17.9187 2.25 18.2502V19.7509C2.25 20.0823 2.38162 20.4003 2.616 20.6348C2.8504 20.8693 3.16837 21.0011 3.5 21.0011H6.5C6.83163 21.0011 7.1496 20.8693 7.384 20.6348C7.61838 20.4003 7.75 20.0823 7.75 19.7509V18.2502C7.75 17.9187 7.61838 17.6008 7.384 17.3663C7.20941 17.1916 6.98844 17.0739 6.75 17.0253V16.7504C6.75 16.2863 6.5657 15.8411 6.23755 15.5128C5.90939 15.1845 5.46423 15 5 15C4.53577 15 4.09061 15.1845 3.76245 15.5128C3.4343 15.8411 3.25 16.2863 3.25 16.7504V17.0253ZM3.75 18.5V19.5011H6.25V18.5H6.0364C6.02434 18.5006 6.0122 18.5009 6 18.5009C5.9878 18.5009 5.97566 18.5006 5.9636 18.5H4.0364C4.02434 18.5006 4.0122 18.5009 4 18.5009C3.9878 18.5009 3.97566 18.5006 3.9636 18.5H3.75ZM4.75 17H5.25V16.7504C5.25 16.6839 5.22358 16.6202 5.17666 16.5732C5.12975 16.5263 5.0662 16.5 5 16.5C4.9338 16.5 4.87025 16.5263 4.82334 16.5732C4.77642 16.6202 4.75 16.6839 4.75 16.7504V17Z" fill="black"/>
</svg>
