<svg width="24" height="24" viewBox="0 0 24 24" fill="none" xmlns="http://www.w3.org/2000/svg">
<path fill-rule="evenodd" clip-rule="evenodd" d="M18.5 2.25C17.8582 2.25 17.2304 2.43918 16.696 2.79411C16.1616 3.14909 15.7444 3.65409 15.4979 4.24579C15.2514 4.83752 15.1869 5.4889 15.3127 6.11735C15.4385 6.7457 15.749 7.3224 16.2038 7.77447L17.9712 9.53183C18.2637 9.82272 18.7363 9.82272 19.0288 9.53183L20.7963 7.77429C21.2512 7.32223 21.5615 6.7457 21.6873 6.11735C21.8131 5.4889 21.7486 4.83752 21.5021 4.24579C21.2556 3.65409 20.8384 3.14909 20.304 2.79411C19.7696 2.43918 19.1418 2.25 18.5 2.25ZM19.25 5.48535C19.25 5.07114 18.9142 4.73535 18.5 4.73535C18.0858 4.73535 17.75 5.07114 17.75 5.48535V5.49156C17.75 5.90578 18.0858 6.24156 18.5 6.24156C18.9142 6.24156 19.25 5.90578 19.25 5.49156V5.48535Z" fill="black"/>
<path d="M8.5 5.75C7.77065 5.75 7.07118 6.03973 6.55546 6.55546C6.03973 7.07118 5.75 7.77065 5.75 8.5C5.75 9.22935 6.03973 9.92882 6.55546 10.4445C7.07118 10.9603 7.77065 11.25 8.5 11.25H16.5C17.6272 11.25 18.7082 11.6978 19.5052 12.4948C20.3022 13.2918 20.75 14.3728 20.75 15.5C20.75 16.6272 20.3022 17.7082 19.5052 18.5052C18.7082 19.3022 17.6272 19.75 16.5 19.75H11C10.5858 19.75 10.25 19.4142 10.25 19C10.25 18.5858 10.5858 18.25 11 18.25H16.5C17.2293 18.25 17.9288 17.9603 18.4445 17.4445C18.9603 16.9288 19.25 16.2293 19.25 15.5C19.25 14.7707 18.9603 14.0712 18.4445 13.5555C17.9288 13.0397 17.2293 12.75 16.5 12.75H8.5C7.37283 12.75 6.29183 12.3022 5.4948 11.5052C4.69777 10.7082 4.25 9.62717 4.25 8.5C4.25 7.37283 4.69777 6.29183 5.4948 5.4948C6.29183 4.69777 7.37283 4.25 8.5 4.25H13C13.4142 4.25 13.75 4.58579 13.75 5C13.75 5.41421 13.4142 5.75 13 5.75H8.5Z" fill="black"/>
<path fill-rule="evenodd" clip-rule="evenodd" d="M3.69603 14.7941C4.23039 14.4392 4.85817 14.25 5.5 14.25C6.14183 14.25 6.76961 14.4392 7.30397 14.7941C7.83839 15.1491 8.25558 15.6541 8.50209 16.2458C8.74862 16.8375 8.81314 17.4889 8.68731 18.1174C8.5615 18.7457 8.25119 19.3222 7.79633 19.7743L6.02883 21.5318C5.73628 21.8227 5.26372 21.8227 4.97117 21.5318L3.20385 19.7745C2.74899 19.3224 2.4385 18.7457 2.31269 18.1174C2.18686 17.4889 2.25138 16.8375 2.49791 16.2458C2.74442 15.6541 3.16161 15.1491 3.69603 14.7941ZM6.25 17.4854C6.25 17.0712 5.91421 16.7354 5.5 16.7354C5.08579 16.7354 4.75 17.0712 4.75 17.4854V17.4916C4.75 17.9058 5.08579 18.2416 5.5 18.2416C5.91421 18.2416 6.25 17.9058 6.25 17.4916V17.4854Z" fill="black"/>
</svg>
