<svg width="24" height="24" viewBox="0 0 24 24" fill="none" xmlns="http://www.w3.org/2000/svg">
<path d="M3.24994 4.49995C3.15056 4.49855 3.05188 4.51691 2.95966 4.55397C2.86743 4.59103 2.78349 4.64605 2.71271 4.71583C2.64194 4.78562 2.58573 4.86877 2.54737 4.96046C2.50901 5.05216 2.48926 5.15056 2.48926 5.24995C2.48926 5.34935 2.50901 5.44775 2.54737 5.53944C2.58573 5.63114 2.64194 5.71429 2.71271 5.78407C2.78349 5.85386 2.86743 5.90888 2.95966 5.94594C3.05188 5.983 3.15056 6.00136 3.24994 5.99995H20.7499C20.8493 6.00136 20.948 5.983 21.0402 5.94594C21.1324 5.90888 21.2164 5.85386 21.2872 5.78407C21.3579 5.71429 21.4141 5.63114 21.4525 5.53944C21.4909 5.44775 21.5106 5.34935 21.5106 5.24995C21.5106 5.15056 21.4909 5.05216 21.4525 4.96046C21.4141 4.86877 21.3579 4.78562 21.2872 4.71583C21.2164 4.64605 21.1324 4.59103 21.0402 4.55397C20.948 4.51691 20.8493 4.49855 20.7499 4.49995H3.24994ZM3.24994 11.25C2.83544 11.25 2.49994 11.586 2.49994 12C2.49994 12.414 2.83544 12.75 3.24994 12.75H13.0732C13.8182 12.0555 14.7234 11.5345 15.7314 11.25H3.24994ZM17.4999 12C14.4624 12 11.9999 14.4625 11.9999 17.5C11.9999 20.5375 14.4624 23 17.4999 23C20.5374 23 22.9999 20.5375 22.9999 17.5C22.9999 14.4625 20.5374 12 17.4999 12ZM17.4999 14C17.7399 14 17.9542 14.1528 18.0322 14.3798L18.5888 16H20.4374C20.6789 16 20.8936 16.1543 20.9706 16.3828C21.0476 16.6118 20.9698 16.8647 20.7773 17.0107L19.2802 18.1464L19.787 19.7695C19.86 20.0025 19.7741 20.2554 19.5751 20.3964C19.4776 20.4654 19.3634 20.5 19.2499 20.5C19.1314 20.5 19.0125 20.4626 18.913 20.3876L17.4999 19.33L16.0869 20.3876C15.8919 20.5341 15.6242 20.5384 15.4247 20.3974C15.2257 20.2564 15.1398 20.0025 15.2128 19.7695L15.7197 18.1474L14.2226 17.0107C14.0301 16.8647 13.9522 16.6127 14.0292 16.3837C14.1067 16.1547 14.3209 16 14.5624 16H16.4111L16.9677 14.3798C17.0457 14.1528 17.2599 14 17.4999 14ZM3.24994 18C2.83544 18 2.49994 18.336 2.49994 18.75C2.49994 19.164 2.83544 19.5 3.24994 19.5H11.3173C11.1623 19.022 11.0648 18.5195 11.0253 18H3.24994Z" fill="black"/>
</svg>
