<svg width="24" height="24" viewBox="0 0 24 24" fill="none" xmlns="http://www.w3.org/2000/svg">
<path d="M7.23828 2.98925C7.20161 2.99016 7.16505 2.99375 7.12891 3H5.75C4.2335 3 3 4.234 3 5.75V18.25C3 19.766 4.2335 21 5.75 21H12.0283C11.7313 20.5365 11.4899 20.034 11.3174 19.5H7.5V13.75C7.5 13.6125 7.612 13.5 7.75 13.5H12.3838C12.8468 12.9085 13.4089 12.4015 14.0469 12H7.75C6.785 12 6 12.785 6 13.75V19.5H5.75C5.061 19.5 4.5 18.9395 4.5 18.25V5.75C4.5 5.0605 5.061 4.5 5.75 4.5H6.5V7.25C6.5 8.20747 7.29252 9 8.25 9H14.25C15.2075 9 16 8.20747 16 7.25V4.97558L19.5 8.08691V11.3174C20.034 11.4899 20.5365 11.7318 21 12.0293V7.75C21 7.5355 20.908 7.33145 20.748 7.18945L16.248 3.18945C16.1105 3.06745 15.9335 3 15.75 3H15.373C15.2925 2.98677 15.2104 2.98677 15.1299 3H7.37305C7.32854 2.99237 7.28343 2.98877 7.23828 2.98925ZM8 4.5H14.5V7.25C14.5 7.39752 14.3975 7.5 14.25 7.5H8.25C8.10248 7.5 8 7.39752 8 7.25V4.5ZM17.5 12C16.0924 12 14.6844 12.5373 13.6104 13.6113C11.4624 15.7593 11.4624 19.2412 13.6104 21.3887C15.7584 23.5362 19.2412 23.5367 21.3887 21.3887C23.5372 19.2412 23.5367 15.7593 21.3887 13.6113C20.3147 12.5373 18.9076 12 17.5 12ZM15.0254 14.5254C15.1534 14.5254 15.2814 14.5744 15.3789 14.6719L17.5 16.793L19.6211 14.6719C19.8161 14.4769 20.1331 14.4769 20.3281 14.6719C20.5231 14.8669 20.5231 15.1839 20.3281 15.3789L18.207 17.5L20.3281 19.6211C20.5231 19.8161 20.5231 20.1331 20.3281 20.3281C20.1326 20.5231 19.8161 20.5231 19.6211 20.3281L17.5 18.207L15.3789 20.3281C15.1839 20.5231 14.8669 20.5231 14.6719 20.3281C14.4769 20.1331 14.4769 19.8161 14.6719 19.6211L16.793 17.5L14.6719 15.3789C14.4769 15.1839 14.4769 14.8669 14.6719 14.6719C14.7694 14.5744 14.8974 14.5254 15.0254 14.5254Z" fill="black"/>
</svg>
