<svg width="24" height="24" viewBox="0 0 24 24" fill="none" xmlns="http://www.w3.org/2000/svg">
<path d="M4.75 3.5C4.41848 3.5 4.10054 3.6317 3.86612 3.86612C3.6317 4.10054 3.5 4.41848 3.5 4.75V6.75C3.5 7.16421 3.16421 7.5 2.75 7.5C2.33579 7.5 2 7.16421 2 6.75V4.75C2 4.02065 2.28973 3.32118 2.80546 2.80546C3.32118 2.28973 4.02065 2 4.75 2H6.75C7.16421 2 7.5 2.33579 7.5 2.75C7.5 3.16421 7.16421 3.5 6.75 3.5H4.75Z" fill="black"/>
<path d="M2.75 16C3.16421 16 3.5 16.3358 3.5 16.75V18.75C3.5 19.0815 3.6317 19.3995 3.86612 19.6339C4.10054 19.8683 4.41848 20 4.75 20H6.75C7.16421 20 7.5 20.3358 7.5 20.75C7.5 21.1642 7.16421 21.5 6.75 21.5H4.75C4.02065 21.5 3.32118 21.2103 2.80546 20.6945C2.28973 20.1788 2 19.4793 2 18.75V16.75C2 16.3358 2.33579 16 2.75 16Z" fill="black"/>
<path d="M16.75 2C16.3358 2 16 2.33579 16 2.75C16 3.16421 16.3358 3.5 16.75 3.5H18.75C19.0815 3.5 19.3995 3.6317 19.6339 3.86612C19.8683 4.10054 20 4.41848 20 4.75V6.75C20 7.16421 20.3358 7.5 20.75 7.5C21.1642 7.5 21.5 7.16421 21.5 6.75V4.75C21.5 4.02065 21.2103 3.32118 20.6945 2.80546C20.1788 2.28973 19.4793 2 18.75 2H16.75Z" fill="black"/>
<path d="M20.75 16C21.1642 16 21.5 16.3358 21.5 16.75V18.75C21.5 19.4793 21.2103 20.1788 20.6945 20.6945C20.1788 21.2103 19.4793 21.5 18.75 21.5H16.75C16.3358 21.5 16 21.1642 16 20.75C16 20.3358 16.3358 20 16.75 20H18.75C19.0815 20 19.3995 19.8683 19.6339 19.6339C19.8683 19.3995 20 19.0815 20 18.75V16.75C20 16.3358 20.3358 16 20.75 16Z" fill="black"/>
<path fill-rule="evenodd" clip-rule="evenodd" d="M16.5014 10.4975C16.5014 10.5137 16.5009 10.5299 16.5 10.5459V15.6389C16.5 16.1394 16.2953 16.615 15.9381 16.9623C15.5816 17.3089 15.1024 17.5 14.6071 17.5H8.89286C8.39755 17.5 7.91842 17.3089 7.56193 16.9623C7.20471 16.615 7 16.1394 7 15.6389V7.86111C7 7.36059 7.20471 6.88498 7.56193 6.53769C7.91842 6.1911 8.39755 6 8.89286 6H11.8929L11.9061 6.00012L11.92 6C12.2279 6 12.4957 6.17183 12.6327 6.42485L16.0483 9.77017C16.3167 9.90212 16.5014 10.1782 16.5014 10.4975ZM8.89286 7.5C8.78195 7.5 8.6797 7.54303 8.60754 7.61318C8.53611 7.68264 8.5 7.77226 8.5 7.86111V15.6389C8.5 15.7277 8.53611 15.8174 8.60754 15.8868C8.6797 15.957 8.78195 16 8.89286 16H14.6071C14.718 16 14.8203 15.957 14.8925 15.8868C14.9639 15.8174 15 15.7277 15 15.6389V11.3075H12.52C12.146 11.3075 11.7874 11.1589 11.523 10.8945C11.2585 10.6301 11.11 10.2715 11.11 9.8975V7.5H8.89286ZM13.8202 9.6875L12.73 8.61971V9.6875H13.8202Z" fill="black"/>
</svg>
