<svg width="24" height="24" viewBox="0 0 24 24" fill="none" xmlns="http://www.w3.org/2000/svg">
<path fill-rule="evenodd" clip-rule="evenodd" d="M8.46211 12.0005C7.84412 11.6437 8.04785 10.704 8.75812 10.6352L9.69934 10.544C10.0693 10.5081 10.3505 10.2005 10.3983 9.83192C10.5401 8.73931 10.9736 7.47912 11.6871 6.24326C13.3074 3.43685 15.7586 1.81861 17.162 2.62881C18.5654 3.43902 18.3895 6.37087 16.7691 9.17728C16.055 10.4142 15.1795 11.4203 14.3034 12.0894C14.0078 12.3151 13.8819 12.7125 14.0359 13.051L14.4254 13.9071C14.7209 14.5566 14.0089 15.2028 13.391 14.846L11.5678 13.7935L7.28955 21.2035C7.08244 21.5622 6.62374 21.6851 6.26502 21.478C5.9063 21.2709 5.78339 20.8122 5.9905 20.4535L10.2688 13.0435L8.46211 12.0005ZM11.8859 10.0249C11.8032 10.6621 11.4457 11.2831 10.8819 11.6654L12.4736 12.5844C12.5237 11.9058 12.8829 11.2868 13.3929 10.8973C14.0882 10.3663 14.8392 9.52007 15.4701 8.4273C16.1891 7.18205 16.5477 5.9716 16.6021 5.06467C16.6527 4.22137 16.4464 3.97082 16.4105 3.93041C16.3575 3.91952 16.0374 3.86613 15.3323 4.33159C14.5741 4.83217 13.7051 5.748 12.9862 6.99324C12.3558 8.08509 11.9984 9.1577 11.8859 10.0249Z" fill="black"/>
</svg>
