<svg width="24" height="24" viewBox="0 0 24 24" fill="none" xmlns="http://www.w3.org/2000/svg">
<path fill-rule="evenodd" clip-rule="evenodd" d="M2.08496 5.53491C2.08496 4.01613 3.31618 2.78491 4.83496 2.78491H16.835C18.3537 2.78491 19.585 4.01613 19.585 5.53491V9.53491C19.585 9.94912 19.2492 10.2849 18.835 10.2849C18.4207 10.2849 18.085 9.94912 18.085 9.53491L18.085 8.28491L3.58496 8.28491L3.58496 17.5349C3.58496 18.2253 4.1446 18.7849 4.83496 18.7849H9.83496C10.2492 18.7849 10.585 19.1207 10.585 19.5349C10.585 19.9491 10.2492 20.2849 9.83496 20.2849H4.83496C3.31618 20.2849 2.08496 19.0537 2.08496 17.5349L2.08496 5.53491ZM3.58496 6.78491H18.085V5.53491C18.085 4.84456 17.5253 4.28491 16.835 4.28491L4.83496 4.28491C4.14461 4.28491 3.58496 4.84456 3.58496 5.53491L3.58496 6.78491Z" fill="black"/>
<path fill-rule="evenodd" clip-rule="evenodd" d="M5.83496 9.78491C5.42075 9.78491 5.08496 10.1207 5.08496 10.5349L5.08496 13.5349C5.08496 13.9491 5.42075 14.2849 5.83496 14.2849L8.83496 14.2849C9.24917 14.2849 9.58496 13.9491 9.58496 13.5349L9.58496 10.5349C9.58496 10.1207 9.24917 9.78491 8.83496 9.78491L5.83496 9.78491Z" fill="black"/>
<path fill-rule="evenodd" clip-rule="evenodd" d="M20.7739 17.7379C22.2969 16.2149 22.2969 13.7456 20.7739 12.2225C19.2509 10.6995 16.7815 10.6995 15.2585 12.2225C13.9168 13.5642 13.757 15.6402 14.7791 17.1568L12.0058 19.9301C11.7129 20.223 11.7129 20.6979 12.0058 20.9907C12.2987 21.2836 12.7736 21.2836 13.0665 20.9907L15.8398 18.2174C17.3564 19.2394 19.4323 19.0796 20.7739 17.7379ZM19.5011 13.4953C20.3212 14.3154 20.3212 15.645 19.5011 16.4651C18.681 17.2852 17.3514 17.2852 16.5313 16.4651C15.7112 15.645 15.7112 14.3154 16.5313 13.4953C17.3514 12.6752 18.681 12.6752 19.5011 13.4953Z" fill="black"/>
</svg>
