<svg width="24" height="24" viewBox="0 0 24 24" fill="none" xmlns="http://www.w3.org/2000/svg">
<path fill-rule="evenodd" clip-rule="evenodd" d="M12.5071 1.19731L12.5013 1.1922C12.2163 0.936621 11.7835 0.936516 11.4986 1.19229L11.4929 1.19731L11.4651 1.2215C11.4394 1.2437 11.3994 1.27775 11.3458 1.32195C11.2386 1.4104 11.0774 1.5393 10.8679 1.6952C10.4483 2.00743 9.83802 2.42565 9.08256 2.84387C7.56294 3.68513 5.50351 4.50003 3.25 4.50003C2.83579 4.50003 2.5 4.83613 2.5 5.25035V11.3795C2.5 13.0471 2.85371 15.2513 4.20105 17.4559C5.5523 19.6669 7.87034 21.8244 11.7089 23.4412C11.895 23.5196 12.105 23.5196 12.2911 23.4412C16.1297 21.8244 18.4477 19.6669 19.799 17.4559C21.1463 15.2513 21.5 13.0471 21.5 11.3795V5.25003C21.5 4.83582 21.1642 4.50003 20.75 4.50003C18.4965 4.50003 16.4371 3.68513 14.9174 2.84387C14.162 2.42565 13.5517 2.00743 13.1321 1.6952C12.9226 1.5393 12.7614 1.4104 12.6542 1.32195C12.6006 1.27775 12.5606 1.2437 12.5349 1.2215L12.5071 1.19731ZM14.5 10.5C14.5 11.3179 14.1073 12.044 13.5001 12.5001V15.0002C13.5001 15.8287 12.8286 16.5002 12.0001 16.5002C11.1716 16.5002 10.5001 15.8287 10.5001 15.0002V12.5002C9.89281 12.0441 9.5 11.3179 9.5 10.5C9.5 9.11929 10.6193 8 12 8C13.3807 8 14.5 9.11929 14.5 10.5Z" fill="black"/>
</svg>
