<svg width="24" height="24" viewBox="0 0 24 24" fill="none" xmlns="http://www.w3.org/2000/svg">
<path d="M4.25 2.5C3 2.5 2 3.5 2 4.75V19.25C2 20.5 3 21.5 4.25 21.5H6.40039C6.00039 21.1 5.74961 20.55 5.59961 20H4.25C3.85 20 3.5 19.65 3.5 19.25V4.75C3.5 4.35 3.85 4 4.25 4H5.59961C5.74961 3.45 6.00039 2.9 6.40039 2.5H4.25ZM8.75 2.5C7.5 2.5 6.5 3.5 6.5 4.75V19.25C6.5 20.5 7.5 21.5 8.75 21.5H12.4004C12.0504 21.05 11.75 20.55 11.5 20H8.75C8.35 20 8 19.65 8 19.25V4.75C8 4.35 8.35 4 8.75 4H19.75C20.15 4 20.5 4.35 20.5 4.75V11.75C21.05 12.05 21.55 12.3996 22 12.8496V4.75C22 3.5 21 2.5 19.75 2.5H8.75ZM14.25 6.5C13.6533 6.5 13.081 6.73705 12.659 7.15901C12.2371 7.58097 12 8.15326 12 8.75C12 9.34674 12.2371 9.91903 12.659 10.341C13.081 10.7629 13.6533 11 14.25 11C14.8467 11 15.419 10.7629 15.841 10.341C16.2629 9.91903 16.5 9.34674 16.5 8.75C16.5 8.15326 16.2629 7.58097 15.841 7.15901C15.419 6.73705 14.8467 6.5 14.25 6.5ZM11.25 12C10.55 12 10 12.55 10 13.25V14C10 14.75 10.4502 15.4504 11.2002 15.9004C11.6002 14.2504 12.6498 12.85 14.0498 12H11.25ZM17.5 12C14.45 12 12 14.45 12 17.5C12 20.55 14.45 23 17.5 23C20.55 23 23 20.55 23 17.5C23 14.45 20.55 12 17.5 12ZM18 14.5C18.125 14.5 18.2496 14.5504 18.3496 14.6504L20.8496 17.1504C21.0496 17.3504 21.0496 17.6496 20.8496 17.8496L18.3496 20.3496C18.1496 20.5496 17.8504 20.5496 17.6504 20.3496C17.5504 20.2496 17.5 20.15 17.5 20C17.5 19.85 17.5504 19.7504 17.6504 19.6504L19.2998 18H14C13.7 18 13.5 17.8 13.5 17.5C13.5 17.2 13.7 17 14 17H19.2998L17.6504 15.3496C17.4504 15.1496 17.4504 14.8504 17.6504 14.6504C17.7504 14.5504 17.875 14.5 18 14.5Z" fill="black"/>
</svg>
