<svg width="24" height="24" viewBox="0 0 24 24" fill="none" xmlns="http://www.w3.org/2000/svg">
<path d="M17 2.00098C16.5732 2.00098 16.1469 2.05273 15.7139 2.15723C15.4029 2.23173 15.1726 2.49645 15.1416 2.81445L15.1211 3.02539C15.0976 3.26589 14.9595 3.48154 14.75 3.60254C14.5405 3.72304 14.2844 3.73674 14.0654 3.63574L13.8711 3.54785C13.5816 3.41635 13.2366 3.48187 13.0166 3.71387C12.4176 4.34387 11.9706 5.11441 11.7266 5.94141C11.6356 6.2479 11.7502 6.57767 12.0107 6.76367L12.1855 6.88867C12.382 7.03017 12.5 7.2585 12.5 7.5C12.5 7.628 12.4653 7.75135 12.4053 7.86035L12.499 8.43848L13.2207 8.16504C13.4187 8.09054 13.6259 8.05273 13.8369 8.05273C13.8644 8.05273 13.8914 8.06002 13.9189 8.06152C13.9669 7.87902 14 7.6925 14 7.5C14 6.897 13.7565 6.32232 13.335 5.90332C13.455 5.62882 13.6071 5.3675 13.7861 5.125C14.3591 5.2805 14.978 5.20384 15.5 4.90234C16.022 4.60084 16.3988 4.10184 16.5508 3.52734C16.8553 3.49134 17.1452 3.49134 17.4502 3.52734C17.6017 4.10184 17.9775 4.60084 18.5 4.90234C19.0215 5.20434 19.6399 5.2805 20.2139 5.125C20.3929 5.367 20.545 5.62882 20.665 5.90332C20.2435 6.32282 20 6.897 20 7.5C20 8.103 20.2435 8.67768 20.665 9.09668C20.545 9.37118 20.3929 9.6325 20.2139 9.875C19.6409 9.7195 19.022 9.79615 18.5 10.0977C17.9775 10.3992 17.6012 10.8982 17.4492 11.4727C17.2772 11.4932 17.1104 11.4986 16.9424 11.4961C17.0279 11.7211 17.1064 11.9477 17.1719 12.1787C17.2479 12.4472 17.2546 12.7238 17.2041 12.9873C17.5606 12.9733 17.9231 12.9303 18.2871 12.8428C18.5976 12.7683 18.8274 12.5035 18.8584 12.1855L18.8789 11.9736C18.9024 11.7331 19.0405 11.5185 19.25 11.3975C19.46 11.2775 19.7161 11.2643 19.9346 11.3643L20.1289 11.4521C20.4184 11.5846 20.7639 11.5186 20.9834 11.2861C21.5824 10.6561 22.0294 9.88559 22.2734 9.05859C22.3644 8.75159 22.2498 8.42183 21.9893 8.23633L21.8144 8.11133C21.6179 7.96983 21.5 7.7415 21.5 7.5C21.5 7.2585 21.6175 7.03065 21.8135 6.88965L21.9893 6.76367C22.2498 6.57817 22.3644 6.24841 22.2734 5.94141C22.0294 5.11441 21.5824 4.34387 20.9834 3.71387C20.7634 3.48137 20.4179 3.41535 20.1289 3.54785L19.9355 3.63574C19.7145 3.73574 19.459 3.72204 19.25 3.60254C19.0405 3.48154 18.9024 3.26637 18.8789 3.02637L18.8584 2.81445C18.8274 2.49595 18.5971 2.23173 18.2861 2.15723C17.8531 2.05273 17.4267 2.00098 17 2.00098ZM17 5.5C16.3958 5.5 15.8477 5.75357 15.5019 6.14258C15.1562 6.53159 15 7.02083 15 7.5C15 7.97917 15.1562 8.46841 15.5019 8.85742C15.8477 9.24643 16.3958 9.5 17 9.5C17.6042 9.5 18.1523 9.24643 18.498 8.85742C18.8438 8.46841 19 7.97917 19 7.5C19 7.02083 18.8438 6.53159 18.498 6.14258C18.1523 5.75357 17.6042 5.5 17 5.5ZM8.99999 7C8.36113 7 7.74872 7.08804 7.16894 7.2334C7.02695 7.26904 6.8985 7.34545 6.79942 7.45321C6.70033 7.56097 6.63495 7.69537 6.61132 7.83984L6.4873 8.59863C6.43856 8.89565 6.26018 9.15344 5.99999 9.30371C5.7398 9.45399 5.4286 9.47952 5.14648 9.37305L4.4248 9.09961C4.28791 9.0479 4.13888 9.03736 3.99608 9.06928C3.85327 9.10121 3.72292 9.17421 3.62109 9.2793C2.76958 10.1569 2.13282 11.2421 1.79003 12.4521C1.75019 12.5929 1.75235 12.7421 1.79625 12.8816C1.84014 13.0211 1.92386 13.1448 2.0371 13.2373L2.63378 13.7256C2.86585 13.9167 2.99999 14.1997 2.99999 14.5C2.99999 14.8007 2.86536 15.084 2.6328 15.2744L2.03613 15.7627C1.92306 15.8553 1.83953 15.979 1.79581 16.1185C1.75209 16.258 1.75008 16.4072 1.79003 16.5478C2.13326 17.7575 2.76946 18.843 3.62109 19.7207C3.72295 19.8254 3.85318 19.8981 3.99578 19.9299C4.13838 19.9616 4.28715 19.951 4.42382 19.8994L5.14648 19.6269C5.42779 19.5207 5.739 19.5457 5.99999 19.6963C6.26059 19.8466 6.43795 20.1039 6.48632 20.4004L6.61034 21.1592C6.63397 21.3036 6.69936 21.438 6.79844 21.5458C6.89753 21.6536 7.02598 21.73 7.16796 21.7656C7.7485 21.9116 8.36113 22 8.99999 22C9.63885 22 10.2513 21.912 10.831 21.7666C10.973 21.731 11.1015 21.6545 11.2006 21.5468C11.2997 21.439 11.365 21.3046 11.3887 21.1602L11.5127 20.4014C11.5614 20.1043 11.7398 19.8466 12 19.6963C12.2602 19.546 12.5714 19.5205 12.8535 19.6269L13.5752 19.9004C13.7121 19.9521 13.8611 19.9626 14.0039 19.9307C14.1467 19.8988 14.2771 19.8258 14.3789 19.7207C15.2304 18.8431 15.8672 17.7579 16.21 16.5478C16.2498 16.4071 16.2476 16.2579 16.2037 16.1184C16.1598 15.9789 16.0761 15.8552 15.9629 15.7627L15.3662 15.2744C15.1341 15.0833 15 14.8003 15 14.5C15 14.1993 15.1346 13.916 15.3672 13.7256L15.9639 13.2373C16.0769 13.1446 16.1605 13.021 16.2042 12.8815C16.2479 12.742 16.2499 12.5928 16.21 12.4521C15.8667 11.2409 15.2262 10.1577 14.3769 9.28125C14.2751 9.17617 14.1448 9.10316 14.002 9.07124C13.8592 9.03931 13.7101 9.04985 13.5732 9.10156L12.8535 9.37305C12.5722 9.47933 12.26 9.45429 11.999 9.30371C11.7384 9.15336 11.5611 8.89612 11.5127 8.59961L11.3867 7.83301C11.3632 7.68866 11.2979 7.55435 11.199 7.4466C11.1001 7.33885 10.9719 7.26237 10.8301 7.22656C10.245 7.07945 9.63138 7 8.99999 7ZM17 7C17.2292 7 17.3061 7.05893 17.3769 7.13867C17.4478 7.21841 17.5 7.35417 17.5 7.5C17.5 7.64583 17.4478 7.78159 17.3769 7.86133C17.3061 7.94107 17.2292 8 17 8C16.7708 8 16.6939 7.94107 16.623 7.86133C16.5522 7.78159 16.5 7.64583 16.5 7.5C16.5 7.35417 16.5522 7.21841 16.623 7.13867C16.6939 7.05893 16.7708 7 17 7ZM8.99999 8.5C9.34439 8.5 9.669 8.56799 9.99706 8.62402L10.0322 8.8418C10.1531 9.58091 10.6009 10.229 11.25 10.6035C11.899 10.9779 12.6831 11.0411 13.3838 10.7764L13.584 10.7012C14.0102 11.2153 14.3463 11.7939 14.583 12.4297L14.417 12.5654C14.4167 12.5654 14.4163 12.5654 14.416 12.5654C13.8366 13.04 13.5 13.7507 13.5 14.5C13.5 15.2493 13.8367 15.9597 14.415 16.4346C14.4154 16.4349 14.4157 16.4352 14.416 16.4355L14.583 16.5723C14.3467 17.2086 14.0112 17.7875 13.5859 18.3008L13.3838 18.2236C12.6829 17.9591 11.8978 18.0227 11.249 18.3975C10.6002 18.7722 10.1535 19.4192 10.0322 20.1582C10.0322 20.1585 10.0322 20.1589 10.0322 20.1592L9.99706 20.3721C9.66766 20.43 9.34086 20.5 8.99999 20.5C8.65879 20.5 8.33164 20.4303 8.00195 20.3721L7.96679 20.1592V20.1582C7.84594 19.4191 7.39913 18.771 6.74999 18.3965C6.10099 18.0221 5.31689 17.9589 4.6162 18.2236L4.41308 18.2998C3.98791 17.7865 3.65241 17.208 3.41601 16.5713L3.583 16.4346C3.58333 16.4346 3.58365 16.4346 3.58398 16.4346C4.16342 15.96 4.49999 15.2493 4.49999 14.5C4.49999 13.7507 4.16324 13.0403 3.58495 12.5654C3.58463 12.5651 3.5843 12.5648 3.58398 12.5645L3.41698 12.4277C3.65328 11.7914 3.98876 11.2125 4.41406 10.6992L4.6162 10.7764C5.31708 11.0409 6.10216 10.9773 6.75097 10.6025C7.39978 10.2278 7.8465 9.58078 7.96777 8.8418C7.96777 8.84147 7.96777 8.84114 7.96777 8.84082L8.00292 8.62793C8.3323 8.56993 8.65912 8.5 8.99999 8.5ZM8.99999 11.5C8.06249 11.5 7.2644 11.8786 6.75195 12.4551C6.23949 13.0316 5.99999 13.7708 5.99999 14.5C5.99999 15.2292 6.23949 15.9684 6.75195 16.5449C7.2644 17.1214 8.06249 17.5 8.99999 17.5C9.93749 17.5 10.7356 17.1214 11.248 16.5449C11.7605 15.9684 12 15.2292 12 14.5C12 13.7708 11.7605 13.0316 11.248 12.4551C10.7356 11.8786 9.93749 11.5 8.99999 11.5ZM8.99999 13C9.56249 13 9.8894 13.1839 10.1269 13.4512C10.3645 13.7184 10.5 14.1042 10.5 14.5C10.5 14.8958 10.3645 15.2816 10.1269 15.5488C9.8894 15.8161 9.56249 16 8.99999 16C8.43749 16 8.11059 15.8161 7.87304 15.5488C7.63549 15.2816 7.49999 14.8958 7.49999 14.5C7.49999 14.1042 7.63549 13.7184 7.87304 13.4512C8.11059 13.1839 8.43749 13 8.99999 13Z" fill="black"/>
</svg>
