<svg width="24" height="24" viewBox="0 0 24 24" fill="none" xmlns="http://www.w3.org/2000/svg">
<path d="M17.0001 2.00098C16.5734 2.00098 16.147 2.05273 15.714 2.15723C15.403 2.23173 15.1727 2.49645 15.1417 2.81445L15.1212 3.02539C15.0977 3.26589 14.9596 3.48154 14.7501 3.60254C14.5406 3.72304 14.2846 3.73674 14.0656 3.63574L13.8712 3.54785C13.5817 3.41635 13.2367 3.48187 13.0167 3.71387C12.4177 4.34387 11.9707 5.11441 11.7267 5.94141C11.6357 6.2479 11.7504 6.57767 12.0109 6.76367L12.1857 6.88867C12.3822 7.03017 12.5001 7.2585 12.5001 7.5C12.5001 7.7415 12.3826 7.96935 12.1866 8.11035L12.0109 8.23633C11.9949 8.24783 11.9848 8.26387 11.9698 8.27637L12.006 8.51367C12.0295 8.66667 12.1151 8.79359 12.2491 8.87109C12.3266 8.91559 12.4131 8.93945 12.4991 8.93945C12.5601 8.93945 12.6213 8.92732 12.6818 8.90332L13.5421 8.56738C13.7456 8.48838 13.9589 8.44824 14.1769 8.44824C14.6989 8.44824 15.1901 8.6786 15.5226 9.0791C16.1381 9.8191 16.6207 10.6526 16.9562 11.5576C17.1347 12.0396 17.0856 12.5592 16.8536 12.9912C16.9026 12.9927 16.9521 13 17.0001 13C17.4211 13 17.8542 12.9473 18.2872 12.8428C18.5977 12.7683 18.8275 12.5045 18.8585 12.1865L18.879 11.9746C18.9025 11.7341 19.0406 11.5185 19.2501 11.3975C19.4601 11.2775 19.7162 11.2643 19.9347 11.3643L20.129 11.4531C20.4185 11.5856 20.764 11.5196 20.9835 11.2871C21.5825 10.6571 22.0296 9.88657 22.2736 9.05957C22.3646 8.75207 22.2499 8.42183 21.9894 8.23633L21.8146 8.11133C21.6181 7.96983 21.5001 7.7415 21.5001 7.5C21.5001 7.2585 21.6176 7.03065 21.8136 6.88965L21.9894 6.76367C22.2499 6.57817 22.3646 6.24841 22.2736 5.94141C22.0296 5.11441 21.5825 4.34387 20.9835 3.71387C20.7635 3.48137 20.418 3.41535 20.129 3.54785L19.9357 3.63574C19.7147 3.73574 19.4591 3.72204 19.2501 3.60254C19.0406 3.48154 18.9025 3.26637 18.879 3.02637L18.8585 2.81445C18.8275 2.49595 18.5973 2.23173 18.2863 2.15723C17.8533 2.05273 17.4269 2.00098 17.0001 2.00098ZM17.0001 6C17.8286 6 18.5001 6.6715 18.5001 7.5C18.5001 8.3285 17.8286 9 17.0001 9C16.1716 9 15.5001 8.3285 15.5001 7.5C15.5001 6.6715 16.1716 6 17.0001 6ZM8.95129 6.99805C8.54748 6.9993 8.16 7.04046 7.7345 7.11621C7.418 7.17171 7.17167 7.42321 7.12317 7.74121L6.98254 8.66406C6.91404 9.11656 6.64712 9.5078 6.25012 9.7373C5.85412 9.9663 5.38172 10.0034 4.95422 9.83594L4.0929 9.49902C3.7924 9.38252 3.44979 9.46927 3.24329 9.71777C2.70129 10.3698 2.27609 11.1057 1.98059 11.9062C1.86859 12.2092 1.96344 12.55 2.21594 12.752L2.93762 13.3291C3.29512 13.6146 3.50012 14.0415 3.50012 14.5C3.50012 14.9585 3.29512 15.3854 2.93762 15.6709L2.21594 16.248C1.96344 16.45 1.86909 16.7907 1.98059 17.0937C2.27659 17.8942 2.70129 18.6302 3.24329 19.2822C3.44979 19.5307 3.7934 19.619 4.0929 19.501L4.95422 19.1641C5.38122 18.9971 5.85412 19.0342 6.25012 19.2627C6.64712 19.4922 6.91452 19.8829 6.98352 20.3359L7.12317 21.2588C7.17167 21.5768 7.418 21.8283 7.7345 21.8838C8.173 21.9623 8.58662 22 9.00012 22C9.41362 22 9.82725 21.9628 10.2657 21.8848C10.5822 21.8293 10.8286 21.5768 10.8771 21.2588L11.0167 20.3359H11.0177C11.0862 19.8834 11.3531 19.4922 11.7501 19.2627C12.1471 19.0342 12.6195 18.998 13.046 19.165L13.9073 19.5019C14.2079 19.6189 14.5505 19.5307 14.757 19.2822C15.299 18.6302 15.7242 17.8952 16.0197 17.0947C16.1317 16.7912 16.0368 16.45 15.7843 16.248L15.0626 15.6709C14.7051 15.3854 14.5001 14.9585 14.5001 14.5C14.5001 14.0415 14.7056 13.6141 15.0636 13.3281L15.7843 12.752C16.0368 12.5505 16.1307 12.2083 16.0187 11.9053C15.7227 11.1073 15.2975 10.3722 14.754 9.71875C14.5475 9.47025 14.2044 9.38252 13.9044 9.49902L13.046 9.83496C12.6195 10.0025 12.1471 9.9663 11.7501 9.7373C11.3531 9.5078 11.0857 9.11706 11.0167 8.66406L10.8771 7.74512C10.8286 7.42562 10.5808 7.17364 10.2628 7.11914C9.77507 7.03539 9.35511 6.9968 8.95129 6.99805ZM9.00012 12C10.3806 12 11.5001 13.1195 11.5001 14.5C11.5001 15.8805 10.3806 17 9.00012 17C7.61962 17 6.50012 15.8805 6.50012 14.5C6.50012 13.1195 7.61962 12 9.00012 12Z" fill="black"/>
</svg>
