<svg width="24" height="24" viewBox="0 0 24 24" fill="none" xmlns="http://www.w3.org/2000/svg">
<path d="M18.25 2.5C17.7508 2.50063 17.2584 2.61626 16.811 2.83794C16.3637 3.05961 15.9734 3.38136 15.6706 3.77823C15.3677 4.17509 15.1603 4.63641 15.0645 5.12637C14.9687 5.61634 14.9871 6.12179 15.1182 6.60352L15.0605 6.63184L8.36914 9.97656L8.31152 10.0049C8.00809 9.6147 7.61966 9.29887 7.17579 9.08141C6.73191 8.86396 6.24428 8.75061 5.75 8.75C4.88805 8.75 4.0614 9.09241 3.4519 9.7019C2.84241 10.3114 2.5 11.138 2.5 12C2.5 12.862 2.84241 13.6886 3.4519 14.2981C4.0614 14.9076 4.88805 15.25 5.75 15.25C6.24461 15.2497 6.73262 15.1365 7.17686 14.919C7.6211 14.7016 8.00984 14.3856 8.31348 13.9951L8.36914 14.0234L15.0605 17.3682L15.1152 17.3955C14.9839 17.8775 14.9654 18.3834 15.0613 18.8737C15.1572 19.364 15.3648 19.8256 15.668 20.2226C15.9713 20.6197 16.362 20.9415 16.8098 21.163C17.2576 21.3846 17.7504 21.4999 18.25 21.5C19.112 21.5 19.9386 21.1576 20.5481 20.5481C21.1576 19.9386 21.5 19.112 21.5 18.25C21.5 17.388 21.1576 16.5614 20.5481 15.9519C19.9386 15.3424 19.112 15 18.25 15C17.7945 15.0006 17.3441 15.097 16.9283 15.2829C16.5124 15.4688 16.1402 15.7401 15.8359 16.0791L15.7305 16.0264L9.04004 12.6816L8.93555 12.6299C9.01726 12.2142 9.01693 11.7866 8.93457 11.3711L9.04004 11.3184L15.7305 7.97363L15.833 7.92188C16.1377 8.26107 16.5104 8.53236 16.9268 8.71811C17.3432 8.90385 17.794 8.9999 18.25 9C19.112 9 19.9386 8.65759 20.5481 8.0481C21.1576 7.4386 21.5 6.61195 21.5 5.75C21.5 4.88805 21.1576 4.0614 20.5481 3.4519C19.9386 2.84241 19.112 2.5 18.25 2.5Z" fill="black"/>
</svg>
