<svg width="24" height="24" viewBox="0 0 24 24" fill="none" xmlns="http://www.w3.org/2000/svg">
<path d="M11.8744 2.25682L11.9855 2.25L12.1006 2.25682L12.1581 2.26463L12.2176 2.2773L12.3258 2.31045C12.4006 2.33801 12.4716 2.37468 12.5374 2.41965L12.6388 2.4996L12.8874 2.71215C14.8543 4.34582 17.3401 5.22307 19.8967 5.18572L20.2301 5.17597C20.4481 5.16603 20.6632 5.22951 20.8408 5.35625C21.0185 5.48299 21.1485 5.66567 21.21 5.87505C21.6891 7.50483 21.8357 9.2143 21.6411 10.9019C21.4853 12.2529 21.1134 13.5678 20.5415 14.7969C20.1265 14.8829 19.731 15.0869 19.4089 15.409L16.9999 17.818L16.5909 17.409C15.7122 16.5303 14.2876 16.5303 13.4089 17.409C12.5302 18.2877 12.5302 19.7123 13.4089 20.591L13.955 21.1371C13.3967 21.3715 12.821 21.566 12.2322 21.7188C12.0717 21.7604 11.9033 21.7604 11.7428 21.7188C10.0984 21.2923 8.55645 20.5397 7.20867 19.5056C5.86089 18.4714 4.73475 17.1769 3.89717 15.6989C3.05959 14.2209 2.52767 12.5897 2.333 10.9021C2.13834 9.21443 2.28491 7.5049 2.76401 5.87505C2.82554 5.66567 2.95553 5.48299 3.13319 5.35625C3.31084 5.22951 3.52588 5.16603 3.74388 5.17597C6.4129 5.29798 9.03136 4.41936 11.0866 2.71215L11.343 2.49277L11.4366 2.41965C11.5024 2.37468 11.5735 2.33801 11.6482 2.31045L11.7574 2.2773C11.7956 2.26807 11.8353 2.26123 11.8744 2.25682Z" fill="black"/>
<path d="M21.5302 17.5303C21.8231 17.2374 21.8231 16.7626 21.5302 16.4697C21.2373 16.1768 20.7624 16.1768 20.4695 16.4697L16.9999 19.9393L15.5302 18.4697C15.2373 18.1768 14.7624 18.1768 14.4695 18.4697C14.1767 18.7626 14.1767 19.2374 14.4695 19.5303L16.3988 21.4596C16.7308 21.7916 17.269 21.7916 17.6009 21.4596L21.5302 17.5303Z" fill="black"/>
</svg>
