<svg width="24" height="24" viewBox="0 0 24 24" fill="none" xmlns="http://www.w3.org/2000/svg">
<path d="M17.75 4H15.9745C15.8485 2.878 14.905 2 13.75 2H10.25C9.095 2 8.1515 2.878 8.0255 4H6.25C5.0095 4 4 5.0095 4 6.25V19.75C4 20.9905 5.0095 22 6.25 22H17.75C18.9905 22 20 20.9905 20 19.75V6.25C20 5.0095 18.9905 4 17.75 4ZM7.1285 6.765L8.1285 6.515C8.277 6.477 8.436 6.511 8.5575 6.606C8.679 6.7005 8.75 6.846 8.75 7V10C8.75 10.276 8.526 10.5 8.25 10.5C7.974 10.5 7.75 10.276 7.75 10V7.6405L7.3715 7.735C7.1045 7.802 6.832 7.639 6.765 7.371C6.698 7.1035 6.861 6.832 7.1285 6.765ZM8.25 20.5C7.4955 20.5 7.024 20.2 6.9725 20.166C6.743 20.013 6.681 19.7025 6.834 19.4725C6.986 19.2445 7.2925 19.1815 7.522 19.33C7.5415 19.3425 7.8075 19.5 8.25 19.5C8.3335 19.5 8.75 19.488 8.75 19.25C8.75 19.012 8.3335 19 8.25 19C7.974 19 7.75 18.776 7.75 18.5C7.75 18.224 7.974 18 8.25 18C8.625 18 8.625 17.8495 8.625 17.75C8.625 17.5325 8.351 17.5 8.1875 17.5C7.8365 17.5 7.6185 17.7135 7.6095 17.7225C7.416 17.915 7.101 17.9205 6.905 17.7305C6.709 17.5405 6.6985 17.232 6.885 17.0325C6.9365 16.9785 7.4075 16.5 8.1875 16.5C9.034 16.5 9.625 17.014 9.625 17.75C9.625 18.012 9.557 18.244 9.4335 18.435C9.636 18.6465 9.75 18.925 9.75 19.25C9.75 19.9975 9.147 20.5 8.25 20.5ZM9.25 14.5C9.526 14.5 9.75 14.724 9.75 15C9.75 15.276 9.526 15.5 9.25 15.5H7.25C6.974 15.5 6.75 15.276 6.75 15C6.75 14.3585 7.3605 14.018 7.899 13.7175C8.278 13.5055 8.75 13.2425 8.75 13C8.75 12.7245 8.5255 12.5 8.25 12.5C7.8475 12.5 7.701 12.72 7.686 12.745C7.5445 12.9745 7.2425 13.0585 7.0085 12.927C6.774 12.794 6.6825 12.507 6.8075 12.268C6.9565 11.983 7.428 11.5 8.25 11.5C9.077 11.5 9.75 12.173 9.75 13C9.75 13.7575 9.1195 14.175 8.5475 14.5H9.25ZM9.5 4.25C9.5 3.8365 9.8365 3.5 10.25 3.5H13.75C14.1635 3.5 14.5 3.8365 14.5 4.25C14.5 4.6635 14.1635 5 13.75 5H10.25C9.8365 5 9.5 4.6635 9.5 4.25ZM16.25 19H11.75C11.3355 19 11 18.664 11 18.25C11 17.836 11.3355 17.5 11.75 17.5H16.25C16.6645 17.5 17 17.836 17 18.25C17 18.664 16.6645 19 16.25 19ZM16.25 14.5H11.75C11.3355 14.5 11 14.164 11 13.75C11 13.336 11.3355 13 11.75 13H16.25C16.6645 13 17 13.336 17 13.75C17 14.164 16.6645 14.5 16.25 14.5ZM16.25 9.9995H11.75C11.3355 9.9995 11 9.6635 11 9.2495C11 8.8355 11.3355 8.4995 11.75 8.4995H16.25C16.6645 8.4995 17 8.8355 17 9.2495C17 9.6635 16.6645 9.9995 16.25 9.9995Z" fill="black"/>
</svg>
