<svg width="24" height="24" viewBox="0 0 24 24" fill="none" xmlns="http://www.w3.org/2000/svg">
<path fill-rule="evenodd" clip-rule="evenodd" d="M11.3857 4C5.12081 4 2.5537 10.4717 2.5537 10.4717C2.51433 10.5636 2.49375 10.6625 2.49317 10.7626C2.49259 10.8626 2.51203 10.9617 2.55034 11.0542C2.58864 11.1466 2.64505 11.2304 2.71623 11.3007C2.78742 11.3709 2.87194 11.4263 2.96483 11.4634C3.05772 11.5005 3.15709 11.5187 3.25711 11.5169C3.35713 11.515 3.45576 11.4932 3.54722 11.4526C3.63867 11.4121 3.72108 11.3537 3.78962 11.2808C3.85815 11.2079 3.91142 11.1221 3.94628 11.0283C3.94628 11.0283 6.16566 5.5 11.3857 5.5C15.1437 5.5 17.5969 8.38167 18.6807 10H16.25C16.1506 9.99859 16.0519 10.017 15.9597 10.054C15.8675 10.0911 15.7835 10.1461 15.7128 10.2159C15.642 10.2857 15.5858 10.3688 15.5474 10.4605C15.5091 10.5522 15.4893 10.6506 15.4893 10.75C15.4893 10.8494 15.5091 10.9478 15.5474 11.0395C15.5858 11.1312 15.642 11.2143 15.7128 11.2841C15.7835 11.3539 15.8675 11.4089 15.9597 11.446C16.0519 11.483 16.1506 11.5014 16.25 11.5H19.9814H20.75C20.9489 11.5 21.1397 11.421 21.2803 11.2803C21.4209 11.1397 21.5 10.9489 21.5 10.75V6.25C21.5014 6.14962 21.4827 6.04997 21.4449 5.95695C21.4071 5.86394 21.3511 5.77946 21.28 5.70852C21.209 5.63757 21.1245 5.58161 21.0314 5.54395C20.9383 5.50629 20.8387 5.48769 20.7383 5.48926C20.5395 5.49236 20.3501 5.57422 20.2117 5.71686C20.0733 5.8595 19.9971 6.05125 20 6.25V9.26172C18.7941 7.41153 15.9554 4 11.3857 4ZM3.75 20H6.25C7.215 20 8 19.215 8 18.25V15.75C8 14.785 7.215 14 6.25 14H3.75C2.785 14 2 14.785 2 15.75V18.25C2 19.215 2.785 20 3.75 20ZM17.75 20H20.25C21.215 20 22 19.215 22 18.25V15.75C22 14.785 21.215 14 20.25 14H17.75C16.785 14 16 14.785 16 15.75V18.25C16 19.215 16.785 20 17.75 20ZM13.25 20H10.75C9.78502 20 9.00002 19.215 9.00002 18.25V15.75C9.00002 14.785 9.78502 14 10.75 14H13.25C14.215 14 15 14.785 15 15.75V18.25C15 19.215 14.215 20 13.25 20Z" fill="#101828"/>
</svg>
