<svg width="24" height="24" viewBox="0 0 24 24" fill="none" xmlns="http://www.w3.org/2000/svg">
<path d="M16.7392 3.00007C16.544 3.00293 16.3577 3.08175 16.2197 3.2198L12.7197 6.7198C12.6477 6.78891 12.5902 6.87169 12.5506 6.96328C12.511 7.05488 12.4901 7.15345 12.4891 7.25323C12.4881 7.35301 12.507 7.45199 12.5447 7.54437C12.5824 7.63675 12.6382 7.72068 12.7088 7.79124C12.7793 7.8618 12.8633 7.91757 12.9556 7.95529C13.048 7.993 13.147 8.01191 13.2468 8.01089C13.3466 8.00988 13.4451 7.98897 13.5367 7.94938C13.6283 7.90979 13.7111 7.85233 13.7802 7.78035L15.9999 5.56062V16.5001C15.9985 16.5995 16.0169 16.6981 16.054 16.7904C16.091 16.8826 16.146 16.9665 16.2158 17.0373C16.2856 17.1081 16.3688 17.1643 16.4605 17.2026C16.5521 17.241 16.6505 17.2608 16.7499 17.2608C16.8493 17.2608 16.9477 17.241 17.0394 17.2026C17.1311 17.1643 17.2143 17.1081 17.2841 17.0373C17.3538 16.9665 17.4089 16.8826 17.4459 16.7904C17.483 16.6981 17.5013 16.5995 17.4999 16.5001V5.56062L19.7197 7.78035C19.7888 7.85233 19.8716 7.90979 19.9632 7.94938C20.0547 7.98897 20.1533 8.00988 20.2531 8.01089C20.3529 8.01191 20.4519 7.993 20.5442 7.95529C20.6366 7.91757 20.7205 7.8618 20.7911 7.79124C20.8617 7.72068 20.9174 7.63675 20.9552 7.54437C20.9929 7.45199 21.0118 7.35301 21.0108 7.25323C21.0097 7.15345 20.9888 7.05488 20.9492 6.96328C20.9097 6.87169 20.8522 6.78891 20.7802 6.7198L17.2802 3.2198C17.2093 3.14886 17.1249 3.09287 17.032 3.05513C16.939 3.01739 16.8395 2.99867 16.7392 3.00007ZM3.74994 3.50007C3.65056 3.49867 3.55188 3.51703 3.45966 3.55409C3.36743 3.59115 3.28349 3.64617 3.21271 3.71595C3.14194 3.78574 3.08573 3.86889 3.04737 3.96058C3.00901 4.05228 2.98926 4.15068 2.98926 4.25007C2.98926 4.34947 3.00901 4.44787 3.04737 4.53956C3.08573 4.63126 3.14194 4.71441 3.21271 4.78419C3.28349 4.85398 3.36743 4.909 3.45966 4.94606C3.55188 4.98312 3.65056 5.00148 3.74994 5.00007H5.24994C5.34932 5.00148 5.448 4.98312 5.54022 4.94606C5.63245 4.909 5.71639 4.85398 5.78717 4.78419C5.85794 4.71441 5.91415 4.63126 5.95251 4.53956C5.99087 4.44787 6.01062 4.34947 6.01062 4.25007C6.01062 4.15068 5.99087 4.05228 5.95251 3.96058C5.91415 3.86889 5.85794 3.78574 5.78717 3.71595C5.71639 3.64617 5.63245 3.59115 5.54022 3.55409C5.448 3.51703 5.34932 3.49867 5.24994 3.50007H3.74994ZM3.74994 7.50007C3.65056 7.49867 3.55188 7.51703 3.45966 7.55409C3.36743 7.59115 3.28349 7.64617 3.21271 7.71595C3.14194 7.78574 3.08573 7.86889 3.04737 7.96058C3.00901 8.05228 2.98926 8.15068 2.98926 8.25007C2.98926 8.34947 3.00901 8.44787 3.04737 8.53956C3.08573 8.63126 3.14194 8.71441 3.21271 8.78419C3.28349 8.85398 3.36743 8.909 3.45966 8.94606C3.55188 8.98312 3.65056 9.00148 3.74994 9.00007H7.24994C7.34932 9.00148 7.448 8.98312 7.54022 8.94606C7.63245 8.909 7.71639 8.85398 7.78717 8.78419C7.85794 8.71441 7.91415 8.63126 7.95251 8.53956C7.99087 8.44787 8.01062 8.34947 8.01062 8.25007C8.01062 8.15068 7.99087 8.05228 7.95251 7.96058C7.91415 7.86889 7.85794 7.78574 7.78717 7.71595C7.71639 7.64617 7.63245 7.59115 7.54022 7.55409C7.448 7.51703 7.34932 7.49867 7.24994 7.50007H3.74994ZM3.74994 11.5001C3.65056 11.4987 3.55188 11.517 3.45966 11.5541C3.36743 11.5912 3.28349 11.6462 3.21271 11.716C3.14194 11.7857 3.08573 11.8689 3.04737 11.9606C3.00901 12.0523 2.98926 12.1507 2.98926 12.2501C2.98926 12.3495 3.00901 12.4479 3.04737 12.5396C3.08573 12.6313 3.14194 12.7144 3.21271 12.7842C3.28349 12.854 3.36743 12.909 3.45966 12.9461C3.55188 12.9831 3.65056 13.0015 3.74994 13.0001H9.24994C9.34932 13.0015 9.448 12.9831 9.54022 12.9461C9.63245 12.909 9.71639 12.854 9.78717 12.7842C9.85794 12.7144 9.91415 12.6313 9.95251 12.5396C9.99087 12.4479 10.0106 12.3495 10.0106 12.2501C10.0106 12.1507 9.99087 12.0523 9.95251 11.9606C9.91415 11.8689 9.85794 11.7857 9.78717 11.716C9.71639 11.6462 9.63245 11.5912 9.54022 11.5541C9.448 11.517 9.34932 11.4987 9.24994 11.5001H3.74994ZM3.74994 15.5001C3.65056 15.4987 3.55188 15.517 3.45966 15.5541C3.36743 15.5912 3.28349 15.6462 3.21271 15.716C3.14194 15.7857 3.08573 15.8689 3.04737 15.9606C3.00901 16.0523 2.98926 16.1507 2.98926 16.2501C2.98926 16.3495 3.00901 16.4479 3.04737 16.5396C3.08573 16.6313 3.14194 16.7144 3.21271 16.7842C3.28349 16.854 3.36743 16.909 3.45966 16.9461C3.55188 16.9831 3.65056 17.0015 3.74994 17.0001H11.2499C11.3493 17.0015 11.448 16.9831 11.5402 16.9461C11.6324 16.909 11.7164 16.854 11.7872 16.7842C11.8579 16.7144 11.9141 16.6313 11.9525 16.5396C11.9909 16.4479 12.0106 16.3495 12.0106 16.2501C12.0106 16.1507 11.9909 16.0523 11.9525 15.9606C11.9141 15.8689 11.8579 15.7857 11.7872 15.716C11.7164 15.6462 11.6324 15.5912 11.5402 15.5541C11.448 15.517 11.3493 15.4987 11.2499 15.5001H3.74994ZM3.74994 19.5001C3.65056 19.4987 3.55188 19.517 3.45966 19.5541C3.36743 19.5912 3.28349 19.6462 3.21271 19.716C3.14194 19.7857 3.08573 19.8689 3.04737 19.9606C3.00901 20.0523 2.98926 20.1507 2.98926 20.2501C2.98926 20.3495 3.00901 20.4479 3.04737 20.5396C3.08573 20.6313 3.14194 20.7144 3.21271 20.7842C3.28349 20.854 3.36743 20.909 3.45966 20.9461C3.55188 20.9831 3.65056 21.0015 3.74994 21.0001H13.2499C13.3493 21.0015 13.448 20.9831 13.5402 20.9461C13.6324 20.909 13.7164 20.854 13.7872 20.7842C13.8579 20.7144 13.9141 20.6313 13.9525 20.5396C13.9909 20.4479 14.0106 20.3495 14.0106 20.2501C14.0106 20.1507 13.9909 20.0523 13.9525 19.9606C13.9141 19.8689 13.8579 19.7857 13.7872 19.716C13.7164 19.6462 13.6324 19.5912 13.5402 19.5541C13.448 19.517 13.3493 19.4987 13.2499 19.5001H3.74994Z" fill="black"/>
</svg>
