<svg width="24" height="24" viewBox="0 0 24 24" fill="none" xmlns="http://www.w3.org/2000/svg">
<path fill-rule="evenodd" clip-rule="evenodd" d="M9.97708 4.50257C9.96576 4.49879 9.95346 4.49919 9.94241 4.50369C9.93136 4.5082 9.92228 4.5165 9.91682 4.52711C9.89556 4.5684 9.87052 4.60761 9.84201 4.64427L6.34201 9.14427C6.19992 9.32696 5.98144 9.43381 5.75 9.43381H3.75C3.6837 9.43381 3.62011 9.46015 3.57322 9.50703C3.52634 9.55392 3.5 9.61751 3.5 9.68381V13.6838C3.5 13.7501 3.52634 13.8137 3.57322 13.8606C3.62011 13.9075 3.6837 13.9338 3.75 13.9338H5.75C5.98144 13.9338 6.19992 14.0407 6.34201 14.2234L9.84201 18.7234C9.87052 18.76 9.89556 18.7992 9.91682 18.8405C9.92228 18.8511 9.93136 18.8594 9.94241 18.8639C9.95346 18.8684 9.96576 18.8688 9.97708 18.8651C9.9884 18.8613 9.998 18.8536 10.0041 18.8433C10.0103 18.8331 10.0126 18.821 10.0106 18.8093C10.0035 18.7678 10 18.7258 10 18.6838V4.68381C10 4.64177 10.0035 4.59981 10.0106 4.55836C10.0126 4.5466 10.0103 4.5345 10.0041 4.52427C9.998 4.51404 9.9884 4.50634 9.97708 4.50257ZM9.37657 3.11451C9.7192 2.97495 10.1004 2.96255 10.4514 3.07954C10.8024 3.19653 11.1 3.4352 11.2903 3.75243C11.4681 4.04862 11.5414 4.39505 11.5 4.73659V18.631C11.5414 18.9726 11.4681 19.319 11.2903 19.6152C11.1 19.9324 10.8024 20.1711 10.4514 20.2881C10.1004 20.4051 9.7192 20.3927 9.37657 20.2531C9.05905 20.1238 8.7941 19.8931 8.62219 19.5982L5.38319 15.4338H3.75C3.28587 15.4338 2.84075 15.2494 2.51256 14.9212C2.18437 14.5931 2 14.1479 2 13.6838V9.68381C2 9.21968 2.18437 8.77456 2.51256 8.44637C2.84075 8.11819 3.28587 7.93381 3.75 7.93381H5.38319L8.62219 3.76937C8.7941 3.47448 9.05905 3.24385 9.37657 3.11451Z" fill="black"/>
<path fill-rule="evenodd" clip-rule="evenodd" d="M21.3284 11.6838C21.3284 12.098 20.9926 12.4338 20.5784 12.4338H14.9216C14.5074 12.4338 14.1716 12.098 14.1716 11.6838C14.1716 11.2696 14.5074 10.9338 14.9216 10.9338H20.5784C20.9926 10.9338 21.3284 11.2696 21.3284 11.6838Z" fill="black"/>
</svg>
