<svg width="24" height="24" viewBox="0 0 24 24" fill="none" xmlns="http://www.w3.org/2000/svg">
<path fill-rule="evenodd" clip-rule="evenodd" d="M9.37657 3.11451C9.7192 2.97495 10.1004 2.96255 10.4514 3.07954C10.8024 3.19653 11.1 3.4352 11.2903 3.75243C11.4681 4.04862 11.5414 4.39505 11.5 4.73659V18.631C11.5414 18.9726 11.4681 19.319 11.2903 19.6152C11.1 19.9324 10.8024 20.1711 10.4514 20.2881C10.1004 20.4051 9.7192 20.3927 9.37657 20.2531C9.05905 20.1238 8.7941 19.8931 8.62219 19.5982L5.38319 15.4338H3.75C3.28587 15.4338 2.84075 15.2494 2.51256 14.9212C2.18437 14.5931 2 14.1479 2 13.6838V9.68381C2 9.21968 2.18437 8.77456 2.51256 8.44637C2.84075 8.11819 3.28587 7.93381 3.75 7.93381H5.38319L8.62219 3.76937C8.7941 3.47448 9.05905 3.24385 9.37657 3.11451Z" fill="black"/>
<path fill-rule="evenodd" clip-rule="evenodd" d="M17.75 8.10538C18.1642 8.10538 18.5 8.44117 18.5 8.85538V10.9338H20.5784C20.9926 10.9338 21.3284 11.2696 21.3284 11.6838C21.3284 12.098 20.9926 12.4338 20.5784 12.4338H18.5V14.5122C18.5 14.9265 18.1642 15.2622 17.75 15.2622C17.3358 15.2622 17 14.9265 17 14.5122V12.4338H14.9216C14.5074 12.4338 14.1716 12.098 14.1716 11.6838C14.1716 11.2696 14.5074 10.9338 14.9216 10.9338H17V8.85538C17 8.44117 17.3358 8.10538 17.75 8.10538Z" fill="black"/>
</svg>
