<svg width="24" height="24" viewBox="0 0 24 24" fill="none" xmlns="http://www.w3.org/2000/svg">
<path fill-rule="evenodd" clip-rule="evenodd" d="M2.5 4.25C2.5 3.01625 3.51625 2 4.75 2H11.25C11.4489 2.00004 11.6396 2.07907 11.7803 2.21973L18.2803 8.71973C18.4209 8.86036 18.5 9.0511 18.5 9.25L18.5 15C17.9696 15 17.4632 15.1033 17 15.2908V10H12.75C11.5163 10 10.5 8.98375 10.5 7.75V3.5H4.75C4.32675 3.5 4 3.82675 4 4.25V19.75C4 20.1733 4.32675 20.5 4.75 20.5H14.7908C15.0256 21.08 15.3925 21.5925 15.8542 22H4.75C3.51625 22 2.5 20.9838 2.5 19.75V4.25ZM15.9395 8.5L12 4.56055V7.75C12 8.17325 12.3268 8.5 12.75 8.5H15.9395Z" fill="black"/>
<path d="M7.5194 11.9231C6.45942 11.9231 5.59637 12.7862 5.59637 13.8462C5.59637 14.9062 6.45942 15.7692 7.5194 15.7692H8.19246C8.40476 15.7692 8.57707 15.9415 8.57707 16.1538C8.57707 16.3661 8.40476 16.5384 8.19246 16.5384H7.35264C7.08957 16.5384 6.87328 16.343 6.81329 16.283C6.51252 15.9823 6.02633 15.9823 5.72557 16.283C5.42481 16.5838 5.42481 17.07 5.72557 17.3707C5.93787 17.583 6.52112 18.0769 7.35264 18.0769H8.19246C9.25244 18.0769 10.1155 17.2138 10.1155 16.1538C10.1155 15.0938 9.25244 14.2308 8.19246 14.2308H7.5194C7.3071 14.2308 7.13479 14.0585 7.13479 13.8462C7.13479 13.6339 7.3071 13.4616 7.5194 13.4616H8.19246C8.4263 13.4616 8.61012 13.6208 8.61012 13.6208C8.91088 13.9208 9.39707 13.9216 9.69783 13.6208C9.9986 13.3201 9.9986 12.8339 9.69783 12.5331C9.63553 12.4708 9.06244 11.9231 8.19246 11.9231H7.5194Z" fill="black"/>
<path fill-rule="evenodd" clip-rule="evenodd" d="M11.6539 11.9231C11.2293 11.9231 10.8847 12.2678 10.8847 12.6924V17.3076C10.8847 17.7322 11.2293 18.0769 11.6539 18.0769C12.0785 18.0769 12.4231 17.7322 12.4231 17.3076V16.5384H13.1924C14.4646 16.5384 15.5 15.5031 15.5 14.2308C15.5 12.9585 14.4646 11.9231 13.1924 11.9231H11.6539ZM12.4231 13.4616H13.1924C13.6162 13.4616 13.9616 13.807 13.9616 14.2308C13.9616 14.6546 13.6162 15 13.1924 15H12.4231V13.4616Z" fill="black"/>
<path fill-rule="evenodd" clip-rule="evenodd" d="M15.5 19C15.5 17.3431 16.8431 16 18.5 16C20.1569 16 21.5 17.3431 21.5 19C21.5 20.6569 20.1569 22 18.5 22C16.8431 22 15.5 20.6569 15.5 19ZM17.9459 17.8398C17.8621 17.7561 17.7525 17.7143 17.6429 17.7143C17.5332 17.7143 17.4236 17.7561 17.3398 17.8398C17.1723 18.0074 17.1723 18.2783 17.3398 18.4459L17.894 19L17.3398 19.5541C17.1723 19.7217 17.1723 19.9926 17.3398 20.1601C17.4234 20.2437 17.5331 20.2857 17.6429 20.2857C17.7526 20.2857 17.8623 20.2437 17.9459 20.1601L18.5 19.606L19.0541 20.1601C19.1377 20.2437 19.2474 20.2857 19.3571 20.2857C19.4669 20.2857 19.5766 20.2437 19.6601 20.1601C19.8277 19.9926 19.8277 19.7217 19.6601 19.5541L19.106 19L19.6601 18.4459C19.8277 18.2783 19.8277 18.0074 19.6601 17.8398C19.4926 17.6723 19.2217 17.6723 19.0541 17.8398L18.5 18.394L17.9459 17.8398Z" fill="black"/>
</svg>
