<svg width="24" height="24" viewBox="0 0 24 24" fill="none" xmlns="http://www.w3.org/2000/svg">
<path d="M12.5445 13.4616H13.3137C13.7375 13.4616 14.0829 13.807 14.0829 14.2308C14.0829 14.6546 13.7375 15 13.3137 15H12.5445V13.4616Z" fill="black"/>
<path fill-rule="evenodd" clip-rule="evenodd" d="M2.5 4.25C2.5 3.0095 3.5095 2 4.75 2H10.5V7.75C10.5 8.9905 11.5095 10 12.75 10H18.5L18.5 15C16.2909 15 14.5 16.7909 14.5 19C14.5 20.1947 15.0238 21.2671 15.8542 22H4.75C3.5095 22 2.5 20.9905 2.5 19.75V4.25ZM5.71771 13.8462C5.71771 12.7862 6.58076 11.9231 7.64074 11.9231H8.3138C9.18378 11.9231 9.75687 12.4708 9.81917 12.5331C10.1199 12.8339 10.1199 13.3201 9.81917 13.6208C9.51841 13.9216 9.03222 13.9208 8.73146 13.6208C8.73146 13.6208 8.54764 13.4616 8.3138 13.4616H7.64074C7.42843 13.4616 7.25613 13.6339 7.25613 13.8462C7.25613 14.0585 7.42843 14.2308 7.64074 14.2308H8.3138C9.37377 14.2308 10.2368 15.0938 10.2368 16.1538C10.2368 17.2138 9.37377 18.0769 8.3138 18.0769H7.47397C6.64246 18.0769 6.05921 17.583 5.84691 17.3707C5.54615 17.07 5.54615 16.5838 5.84691 16.283C6.14767 15.9823 6.63386 15.9823 6.93462 16.283C6.99462 16.343 7.2109 16.5384 7.47397 16.5384H8.3138C8.5261 16.5384 8.69841 16.3661 8.69841 16.1538C8.69841 15.9415 8.5261 15.7692 8.3138 15.7692H7.64074C6.58076 15.7692 5.71771 14.9062 5.71771 13.8462ZM11.7753 11.9231C11.3507 11.9231 11.0061 12.2678 11.0061 12.6924V17.3076C11.0061 17.7322 11.3507 18.0769 11.7753 18.0769C12.1999 18.0769 12.5445 17.7322 12.5445 17.3076V16.5384H13.3137C14.586 16.5384 15.6213 15.5031 15.6213 14.2308C15.6213 12.9585 14.586 11.9231 13.3137 11.9231H11.7753Z" fill="black"/>
<path d="M12 2.43945V7.75C12 8.1635 12.3365 8.5 12.75 8.5H18.0605L12 2.43945Z" fill="black"/>
<path fill-rule="evenodd" clip-rule="evenodd" d="M15.5 19C15.5 17.3431 16.8431 16 18.5 16C20.1569 16 21.5 17.3431 21.5 19C21.5 20.6569 20.1569 22 18.5 22C16.8431 22 15.5 20.6569 15.5 19ZM17.9459 17.8398C17.8621 17.7561 17.7525 17.7143 17.6429 17.7143C17.5332 17.7143 17.4236 17.7561 17.3398 17.8398C17.1723 18.0074 17.1723 18.2783 17.3398 18.4459L17.894 19L17.3398 19.5541C17.1723 19.7217 17.1723 19.9926 17.3398 20.1601C17.4234 20.2437 17.5331 20.2857 17.6429 20.2857C17.7526 20.2857 17.8623 20.2437 17.9459 20.1601L18.5 19.606L19.0541 20.1601C19.1377 20.2437 19.2474 20.2857 19.3571 20.2857C19.4669 20.2857 19.5766 20.2437 19.6601 20.1601C19.8277 19.9926 19.8277 19.7217 19.6601 19.5541L19.106 19L19.6601 18.4459C19.8277 18.2783 19.8277 18.0074 19.6601 17.8398C19.4926 17.6723 19.2217 17.6723 19.0541 17.8398L18.5 18.394L17.9459 17.8398Z" fill="black"/>
</svg>
