<svg width="24" height="24" viewBox="0 0 24 24" fill="none" xmlns="http://www.w3.org/2000/svg">
<path d="M14.5 18.75C14.5 18.335 14.835 18 15.25 18C15.665 18 16 18.335 16 18.75C16 19.165 15.665 19.5 15.25 19.5C14.835 19.5 14.5 19.165 14.5 18.75ZM15.25 22.5C15.665 22.5 16 22.165 16 21.75C16 21.335 15.665 21 15.25 21C14.835 21 14.5 21.335 14.5 21.75C14.5 22.165 14.835 22.5 15.25 22.5ZM12.25 22.5C12.665 22.5 13 22.165 13 21.75C13 21.335 12.665 21 12.25 21C11.835 21 11.5 21.335 11.5 21.75C11.5 22.165 11.835 22.5 12.25 22.5ZM9.25 22.5C9.665 22.5 10 22.165 10 21.75C10 21.335 9.665 21 9.25 21C8.835 21 8.5 21.335 8.5 21.75C8.5 22.165 8.835 22.5 9.25 22.5ZM6.25 22.5C6.665 22.5 7 22.165 7 21.75C7 21.335 6.665 21 6.25 21C5.835 21 5.5 21.335 5.5 21.75C5.5 22.165 5.835 22.5 6.25 22.5ZM3.25 22.5C3.665 22.5 4 22.165 4 21.75C4 21.335 3.665 21 3.25 21C2.835 21 2.5 21.335 2.5 21.75C2.5 22.165 2.835 22.5 3.25 22.5ZM3.25 19.5C3.665 19.5 4 19.165 4 18.75C4 18.335 3.665 18 3.25 18C2.835 18 2.5 18.335 2.5 18.75C2.5 19.165 2.835 19.5 3.25 19.5ZM6.25 16.5C6.665 16.5 7 16.165 7 15.75C7 15.335 6.665 15 6.25 15C5.835 15 5.5 15.335 5.5 15.75C5.5 16.165 5.835 16.5 6.25 16.5ZM3.25 16.5C3.665 16.5 4 16.165 4 15.75C4 15.335 3.665 15 3.25 15C2.835 15 2.5 15.335 2.5 15.75C2.5 16.165 2.835 16.5 3.25 16.5ZM9.25 16.5C9.665 16.5 10 16.165 10 15.75C10 15.335 9.665 15 9.25 15C8.835 15 8.5 15.335 8.5 15.75C8.5 16.165 8.835 16.5 9.25 16.5ZM7.3515 8.09301L6.7925 8.65201C6.604 8.84001 6.5 9.09051 6.5 9.35701C6.5 9.62301 6.6035 9.87301 6.792 10.062L12.939 16.2085C13.133 16.4025 13.3875 16.499 13.643 16.499C13.8985 16.499 14.1535 16.4025 14.348 16.208L14.9075 15.6485L7.3515 8.09301ZM17.816 12.742L16.2185 9.44201C16.182 9.36651 16.133 9.29751 16.0735 9.23851L13.761 6.92601C13.702 6.86701 13.633 6.81751 13.5575 6.78101L10.257 5.18351C9.5585 4.84551 8.7185 4.98701 8.168 5.53651L7.7185 5.98601C7.426 6.27901 7.426 6.75351 7.7185 7.04651L15.952 15.28C16.1 15.427 16.2915 15.5 16.4835 15.5C16.6755 15.5 16.8675 15.427 17.014 15.2805L17.4635 14.8315C18.013 14.281 18.155 13.4415 17.816 12.742ZM20.6145 2.38301C19.902 1.67201 18.8785 1.36451 17.8765 1.55951C16.798 1.77051 15.899 2.59601 15.586 3.66401C15.5285 3.86051 15.4905 4.06151 15.473 4.26051C15.4145 4.93101 15.1195 5.59101 14.6465 6.14301L14.5195 6.27001L16.73 8.48051L16.8305 8.37901C17.408 7.88101 18.069 7.58601 18.7425 7.52701C18.943 7.50901 19.1445 7.47051 19.341 7.41251C20.408 7.09801 21.233 6.19801 21.4425 5.11901C21.636 4.11701 21.3265 3.09401 20.6145 2.38301Z" fill="black"/>
</svg>
