<svg width="24" height="24" viewBox="0 0 24 24" fill="none" xmlns="http://www.w3.org/2000/svg">
<path d="M17.4961 1.50877C17.3361 1.51916 17.1746 1.54043 17.0117 1.57225C15.6517 1.8378 14.5581 2.86076 14.1709 4.17967V4.18065C14.0983 4.42847 14.0526 4.67595 14.0312 4.9199C13.9888 5.40577 13.8339 5.87258 13.5967 6.31053L10.624 4.75194C10.1986 4.52881 9.72322 4.45709 9.26953 4.52635C8.81584 4.59561 8.38341 4.80603 8.04395 5.14549L7.21973 5.96971C7.07913 6.11037 7.00014 6.3011 7.00014 6.49998C7.00014 6.69886 7.07913 6.8896 7.21973 7.03026L7.48535 7.29588L6.43164 8.35057C5.86315 8.91906 5.86315 9.86216 6.43164 10.4306L12.5693 16.5683C13.1378 17.1368 14.0819 17.1368 14.6504 16.5683L15.7041 15.5146L15.9697 15.7803C16.1104 15.9209 16.3011 15.9998 16.5 15.9998C16.6989 15.9998 16.8896 15.9209 17.0303 15.7803L17.8545 14.956C18.5337 14.2769 18.694 13.2264 18.248 12.376L16.6895 9.40233C17.1266 9.16576 17.5924 9.01204 18.0811 8.96873C18.3271 8.94728 18.5761 8.90022 18.8242 8.82713C20.1433 8.43856 21.1651 7.3435 21.4287 5.9824C21.9026 3.53877 19.8965 1.35295 17.4961 1.50877ZM17.8945 2.99998C19.2409 3.06489 20.233 4.26884 19.9561 5.69725C19.8037 6.48415 19.1793 7.15825 18.4004 7.38768C18.2445 7.43359 18.0951 7.46204 17.9512 7.47459H17.9502C17.1816 7.54249 16.4647 7.79244 15.8232 8.16502L14.834 7.17576C15.2067 6.53497 15.4582 5.81836 15.5254 5.05076C15.538 4.90702 15.5651 4.75734 15.6104 4.60252V4.60154C15.8393 3.82283 16.5132 3.1983 17.2988 3.0449C17.503 3.00504 17.7022 2.99071 17.8945 2.99998ZM9.49512 6.00682C9.63905 5.98482 9.7897 6.00817 9.92676 6.08006L13.4785 7.94236L15.0586 9.52244L16.9199 13.0722C16.9199 13.0726 16.9199 13.0729 16.9199 13.0732C17.0639 13.3478 17.0138 13.6757 16.7939 13.8955L16.5 14.1894L8.81055 6.49998L9.10449 6.20604C9.21403 6.0965 9.35118 6.02881 9.49512 6.00682ZM8.5459 8.35643L14.6436 14.4541L13.6094 15.4883L7.5127 9.39061L8.5459 8.35643ZM3.25 15C2.835 15 2.5 15.335 2.5 15.75C2.5 16.165 2.835 16.5 3.25 16.5C3.665 16.5 4 16.165 4 15.75C4 15.335 3.665 15 3.25 15ZM6.25 15C5.835 15 5.5 15.335 5.5 15.75C5.5 16.165 5.835 16.5 6.25 16.5C6.665 16.5 7 16.165 7 15.75C7 15.335 6.665 15 6.25 15ZM9.25 15C8.835 15 8.5 15.335 8.5 15.75C8.5 16.165 8.835 16.5 9.25 16.5C9.665 16.5 10 16.165 10 15.75C10 15.335 9.665 15 9.25 15ZM3.25 18C2.835 18 2.5 18.335 2.5 18.75C2.5 19.165 2.835 19.5 3.25 19.5C3.665 19.5 4 19.165 4 18.75C4 18.335 3.665 18 3.25 18ZM15.25 18C14.835 18 14.5 18.335 14.5 18.75C14.5 19.165 14.835 19.5 15.25 19.5C15.665 19.5 16 19.165 16 18.75C16 18.335 15.665 18 15.25 18ZM3.25 21C2.835 21 2.5 21.335 2.5 21.75C2.5 22.165 2.835 22.5 3.25 22.5C3.665 22.5 4 22.165 4 21.75C4 21.335 3.665 21 3.25 21ZM6.25 21C5.835 21 5.5 21.335 5.5 21.75C5.5 22.165 5.835 22.5 6.25 22.5C6.665 22.5 7 22.165 7 21.75C7 21.335 6.665 21 6.25 21ZM9.25 21C8.835 21 8.5 21.335 8.5 21.75C8.5 22.165 8.835 22.5 9.25 22.5C9.665 22.5 10 22.165 10 21.75C10 21.335 9.665 21 9.25 21ZM12.25 21C11.835 21 11.5 21.335 11.5 21.75C11.5 22.165 11.835 22.5 12.25 22.5C12.665 22.5 13 22.165 13 21.75C13 21.335 12.665 21 12.25 21ZM15.25 21C14.835 21 14.5 21.335 14.5 21.75C14.5 22.165 14.835 22.5 15.25 22.5C15.665 22.5 16 22.165 16 21.75C16 21.335 15.665 21 15.25 21Z" fill="black"/>
</svg>
