<svg width="24" height="24" viewBox="0 0 24 24" fill="none" xmlns="http://www.w3.org/2000/svg">
<path fill-rule="evenodd" clip-rule="evenodd" d="M12.6708 2.91459C12.5438 2.6605 12.2841 2.5 12 2.5C11.7159 2.5 11.4562 2.6605 11.3292 2.91459L8.75265 8.0677L2.63598 9.00872C2.35664 9.0517 2.12517 9.24806 2.03724 9.51666C1.94931 9.78526 2.01984 10.0805 2.21969 10.2803L6.45095 14.5116L5.50874 20.636C5.46575 20.9154 5.58356 21.1953 5.81346 21.3599C6.04336 21.5244 6.34628 21.5457 6.59694 21.4149L12 18.5959L17.4031 21.4149C17.6538 21.5457 17.9567 21.5244 18.1866 21.3599C18.4165 21.1953 18.5343 20.9154 18.4913 20.636L17.5491 14.5116L21.7803 10.2803C21.9802 10.0805 22.0507 9.78526 21.9628 9.51666C21.8749 9.24806 21.6434 9.0517 21.3641 9.00872L15.2474 8.0677L12.6708 2.91459Z" fill="black"/>
</svg>
