<svg width="24" height="24" viewBox="0 0 24 24" fill="none" xmlns="http://www.w3.org/2000/svg">
<path d="M11.9882 1.48935C11.7895 1.49245 11.6001 1.57432 11.4617 1.71696C11.3232 1.85959 11.2471 2.05135 11.2499 2.25009V3.00009H3.24994H2.24994C2.15056 2.99869 2.05188 3.01705 1.95966 3.05411C1.86743 3.09117 1.78349 3.14619 1.71271 3.21597C1.64194 3.28575 1.58573 3.36891 1.54737 3.4606C1.50901 3.55229 1.48926 3.6507 1.48926 3.75009C1.48926 3.84949 1.50901 3.94789 1.54737 4.03958C1.58573 4.13127 1.64194 4.21443 1.71271 4.28421C1.78349 4.354 1.86743 4.40902 1.95966 4.44608C2.05188 4.48314 2.15056 4.5015 2.24994 4.50009H2.49994V15.2501C2.49994 16.76 3.74005 18.0001 5.24994 18.0001H8.28705L6.57904 21.4151C6.5323 21.5035 6.50369 21.6003 6.49491 21.6999C6.48613 21.7995 6.49735 21.8999 6.52791 21.9951C6.55847 22.0903 6.60775 22.1784 6.67286 22.2543C6.73797 22.3301 6.81759 22.3922 6.90704 22.4369C6.99649 22.4816 7.09396 22.5079 7.19374 22.5143C7.29351 22.5208 7.39356 22.5072 7.48802 22.4744C7.58247 22.4416 7.66942 22.3903 7.74375 22.3234C7.81808 22.2566 7.87829 22.1755 7.92084 22.0851L9.96283 18.0001H14.037L16.079 22.0851C16.1216 22.1755 16.1818 22.2566 16.2561 22.3234C16.3305 22.3903 16.4174 22.4416 16.5119 22.4744C16.6063 22.5072 16.7064 22.5208 16.8061 22.5143C16.9059 22.5079 17.0034 22.4816 17.0928 22.4369C17.1823 22.3922 17.2619 22.3301 17.327 22.2543C17.3921 22.1784 17.4414 22.0903 17.472 21.9951C17.5025 21.8999 17.5137 21.7995 17.505 21.6999C17.4962 21.6003 17.4676 21.5035 17.4208 21.4151L15.7128 18.0001H18.7499C20.2598 18.0001 21.4999 16.76 21.4999 15.2501V4.50009H21.7499C21.8493 4.5015 21.948 4.48314 22.0402 4.44608C22.1324 4.40902 22.2164 4.354 22.2872 4.28421C22.3579 4.21443 22.4141 4.13127 22.4525 4.03958C22.4909 3.94789 22.5106 3.84949 22.5106 3.75009C22.5106 3.6507 22.4909 3.55229 22.4525 3.4606C22.4141 3.36891 22.3579 3.28575 22.2872 3.21597C22.2164 3.14619 22.1324 3.09117 22.0402 3.05411C21.948 3.01705 21.8493 2.99869 21.7499 3.00009H20.7499H12.7499V2.25009C12.7514 2.14971 12.7327 2.05006 12.6949 1.95705C12.6571 1.86403 12.601 1.77955 12.53 1.70861C12.459 1.63767 12.3744 1.5817 12.2813 1.54404C12.1883 1.50638 12.0886 1.48778 11.9882 1.48935ZM3.99994 4.50009H11.8769C11.9574 4.51332 12.0395 4.51332 12.1201 4.50009H19.9999V15.2501C19.9999 15.9492 19.4491 16.5001 18.7499 16.5001H14.6093C14.5767 16.4947 14.5437 16.4914 14.5107 16.4903C14.4656 16.4895 14.4205 16.4928 14.3759 16.5001H9.62494C9.57234 16.4915 9.51898 16.4886 9.46576 16.4913C9.43926 16.4928 9.41285 16.4958 9.38666 16.5001H5.24994C4.55083 16.5001 3.99994 15.9492 3.99994 15.2501V4.50009ZM17.2353 6.99326C17.0405 6.99893 16.8556 7.08019 16.7197 7.21982L11.7499 12.1895L9.78021 10.2198C9.63956 10.0792 9.44882 10.0002 9.24994 10.0002C9.05106 10.0002 8.86032 10.0792 8.71967 10.2198L6.21967 12.7198C6.14769 12.7889 6.09022 12.8717 6.05064 12.9633C6.01105 13.0549 5.99013 13.1535 5.98912 13.2532C5.98811 13.353 6.00701 13.452 6.04473 13.5444C6.08245 13.6368 6.13822 13.7207 6.20877 13.7913C6.27933 13.8618 6.36326 13.9176 6.45564 13.9553C6.54802 13.993 6.647 14.0119 6.74678 14.0109C6.84656 14.0099 6.94514 13.989 7.03673 13.9494C7.12833 13.9098 7.2111 13.8523 7.28021 13.7804L9.24994 11.8106L11.2197 13.7804C11.3603 13.921 11.5511 13.9999 11.7499 13.9999C11.9488 13.9999 12.1396 13.921 12.2802 13.7804L17.7802 8.28036C17.8884 8.17499 17.9623 8.0394 17.9921 7.89135C18.022 7.74329 18.0065 7.58967 17.9476 7.45059C17.8887 7.31151 17.7892 7.19344 17.6621 7.11184C17.535 7.03024 17.3863 6.98891 17.2353 6.99326Z" fill="black"/>
</svg>
