<svg width="24" height="24" viewBox="0 0 24 24" fill="none" xmlns="http://www.w3.org/2000/svg">
<path d="M6.25 2C5.0075 2 4 3.0075 4 4.25V19.75C4 20.9925 5.0075 22 6.25 22H17.75C18.9925 22 20 20.9925 20 19.75V10H14.25C13.0075 10 12 8.9925 12 7.75V2H6.25ZM13.5 2.43945V7.75C13.5 8.1635 13.8365 8.5 14.25 8.5H19.5605L13.5 2.43945ZM12.25 11.5C12.664 11.5 13 11.8355 13 12.25V18.75C13 19.1645 12.664 19.5 12.25 19.5C11.836 19.5 11.5 19.1645 11.5 18.75V12.25C11.5 11.8355 11.836 11.5 12.25 11.5ZM15.75 14C16.164 14 16.5 14.3355 16.5 14.75V18.75C16.5 19.1645 16.164 19.5 15.75 19.5C15.336 19.5 15 19.1645 15 18.75V14.75C15 14.3355 15.336 14 15.75 14ZM8.75 15.5C9.164 15.5 9.5 15.8355 9.5 16.25V18.75C9.5 19.1645 9.164 19.5 8.75 19.5C8.336 19.5 8 19.1645 8 18.75V16.25C8 15.8355 8.336 15.5 8.75 15.5Z" fill="black"/>
</svg>
