<svg width="24" height="24" viewBox="0 0 24 24" fill="none" xmlns="http://www.w3.org/2000/svg">
<path d="M18.5685 9.23544L9.2352 18.5688C8.91303 18.8909 8.3907 18.8909 8.06853 18.5688C7.74636 18.2466 7.74636 17.7243 8.06853 17.4021L17.4019 8.06877C17.724 7.74661 18.2464 7.74661 18.5685 8.06877C18.8907 8.39094 18.8907 8.91327 18.5685 9.23544Z" fill="black"/>
<path d="M17.9852 14.4854L14.4852 17.9854C14.163 18.3076 13.6407 18.3076 13.3185 17.9854C12.9964 17.6633 12.9964 17.1409 13.3185 16.8188L16.8185 13.3188C17.1407 12.9966 17.663 12.9966 17.9852 13.3188C18.3074 13.6409 18.3074 14.1633 17.9852 14.4854Z" fill="black"/>
</svg>
