<svg width="24" height="24" viewBox="0 0 24 24" fill="none" xmlns="http://www.w3.org/2000/svg">
<path fill-rule="evenodd" clip-rule="evenodd" d="M12 10C12 11.933 10.433 13.5 8.5 13.5C6.567 13.5 5 11.933 5 10C5 8.067 6.567 6.5 8.5 6.5C10.433 6.5 12 8.067 12 10ZM8.5 12C9.33934 12 10.0579 11.483 10.3546 10.75H9.1C8.63056 10.75 8.25 10.3694 8.25 9.9V8.01547C7.26342 8.1385 6.5 8.9801 6.5 10C6.5 11.1046 7.39543 12 8.5 12ZM10.3546 9.25C10.2251 8.93007 10.0152 8.65127 9.75 8.43866V9.25H10.3546Z" fill="black"/>
<path d="M5.5 14.75C5.08579 14.75 4.75 15.0858 4.75 15.5C4.75 15.9142 5.08579 16.25 5.5 16.25H11.5V16.5C11.5 16.9142 11.8358 17.25 12.25 17.25C12.6642 17.25 13 16.9142 13 16.5V14.5C13 14.0858 12.6642 13.75 12.25 13.75C11.8358 13.75 11.5 14.0858 11.5 14.5V14.75H5.5Z" fill="black"/>
<path d="M14.25 15.5C14.25 15.0858 14.5858 14.75 15 14.75H18.5C18.9142 14.75 19.25 15.0858 19.25 15.5C19.25 15.9142 18.9142 16.25 18.5 16.25H15C14.5858 16.25 14.25 15.9142 14.25 15.5Z" fill="black"/>
<path d="M15 10.75C14.5858 10.75 14.25 11.0858 14.25 11.5C14.25 11.9142 14.5858 12.25 15 12.25H18.5C18.9142 12.25 19.25 11.9142 19.25 11.5C19.25 11.0858 18.9142 10.75 18.5 10.75H15Z" fill="black"/>
<path d="M14.25 7.5C14.25 7.08579 14.5858 6.75 15 6.75H18.5C18.9142 6.75 19.25 7.08579 19.25 7.5C19.25 7.91421 18.9142 8.25 18.5 8.25H15C14.5858 8.25 14.25 7.91421 14.25 7.5Z" fill="black"/>
<path fill-rule="evenodd" clip-rule="evenodd" d="M2 5.5C2 4.39543 2.89543 3.5 4 3.5H20C21.1046 3.5 22 4.39543 22 5.5V18.5C22 19.6046 21.1046 20.5 20 20.5H4C2.89543 20.5 2 19.6046 2 18.5V5.5ZM4 5H20C20.2761 5 20.5 5.22386 20.5 5.5V18.5C20.5 18.7761 20.2761 19 20 19H4C3.72386 19 3.5 18.7761 3.5 18.5V5.5C3.5 5.22386 3.72386 5 4 5Z" fill="black"/>
</svg>
