<svg width="24" height="24" viewBox="0 0 24 24" fill="none" xmlns="http://www.w3.org/2000/svg">
<path d="M11.9882 1.98935C11.7895 1.99245 11.6001 2.07432 11.4617 2.21696C11.3232 2.35959 11.2471 2.55135 11.2499 2.75009V4.25009C11.2485 4.34948 11.2669 4.44815 11.304 4.54037C11.341 4.6326 11.396 4.71654 11.4658 4.78732C11.5356 4.8581 11.6188 4.9143 11.7105 4.95266C11.8021 4.99102 11.9005 5.01077 11.9999 5.01077C12.0993 5.01077 12.1977 4.99102 12.2894 4.95266C12.3811 4.9143 12.4643 4.8581 12.5341 4.78732C12.6038 4.71654 12.6589 4.6326 12.6959 4.54037C12.733 4.44815 12.7513 4.34948 12.7499 4.25009V2.75009C12.7514 2.64971 12.7327 2.55006 12.6949 2.45705C12.6571 2.36403 12.601 2.27955 12.53 2.20861C12.459 2.13767 12.3744 2.0817 12.2813 2.04404C12.1883 2.00638 12.0886 1.98778 11.9882 1.98935ZM5.45111 4.70224C5.30185 4.70228 5.15599 4.74684 5.03221 4.83024C4.90842 4.91364 4.81232 5.03207 4.75622 5.17039C4.70012 5.3087 4.68656 5.46061 4.71727 5.60668C4.74799 5.75274 4.82159 5.88632 4.92865 5.99033L5.9892 7.05087C6.12996 7.19164 6.32089 7.27072 6.51996 7.27072C6.71903 7.27072 6.90995 7.19164 7.05072 7.05087C7.19149 6.91011 7.27057 6.71919 7.27057 6.52011C7.27057 6.32104 7.19149 6.13012 7.05072 5.98935L5.99017 4.9288C5.92007 4.85687 5.83623 4.79975 5.74363 4.76083C5.65103 4.72191 5.55156 4.70199 5.45111 4.70224ZM18.5253 4.70224C18.3306 4.70792 18.1456 4.78917 18.0097 4.9288L16.9492 5.98935C16.8084 6.13012 16.7293 6.32104 16.7293 6.52011C16.7293 6.71919 16.8084 6.91011 16.9492 7.05087C17.0899 7.19164 17.2808 7.27072 17.4799 7.27072C17.679 7.27072 17.8699 7.19164 18.0107 7.05087L19.0712 5.99033C19.1799 5.88495 19.2541 5.74919 19.2841 5.60086C19.3142 5.45254 19.2986 5.2986 19.2396 5.15926C19.1805 5.01992 19.0807 4.9017 18.9532 4.82013C18.8258 4.73857 18.6766 4.69747 18.5253 4.70224ZM11.9999 6.50009C8.97126 6.50009 6.49994 8.97141 6.49994 12.0001C6.49994 15.0288 8.97126 17.5001 11.9999 17.5001C15.0286 17.5001 17.4999 15.0288 17.4999 12.0001C17.4999 8.97141 15.0286 6.50009 11.9999 6.50009ZM11.9999 8.00009C14.218 8.00009 15.9999 9.78207 15.9999 12.0001C15.9999 14.2181 14.218 16.0001 11.9999 16.0001C9.78192 16.0001 7.99994 14.2181 7.99994 12.0001C7.99994 9.78207 9.78192 8.00009 11.9999 8.00009ZM2.74994 11.2501C2.65056 11.2487 2.55188 11.267 2.45966 11.3041C2.36743 11.3412 2.28349 11.3962 2.21271 11.466C2.14194 11.5358 2.08573 11.6189 2.04737 11.7106C2.00901 11.8023 1.98926 11.9007 1.98926 12.0001C1.98926 12.0995 2.00901 12.1979 2.04737 12.2896C2.08573 12.3813 2.14194 12.4644 2.21271 12.5342C2.28349 12.604 2.36743 12.659 2.45966 12.6961C2.55188 12.7331 2.65056 12.7515 2.74994 12.7501H4.24994C4.34932 12.7515 4.448 12.7331 4.54022 12.6961C4.63245 12.659 4.71639 12.604 4.78717 12.5342C4.85794 12.4644 4.91415 12.3813 4.95251 12.2896C4.99087 12.1979 5.01062 12.0995 5.01062 12.0001C5.01062 11.9007 4.99087 11.8023 4.95251 11.7106C4.91415 11.6189 4.85794 11.5358 4.78717 11.466C4.71639 11.3962 4.63245 11.3412 4.54022 11.3041C4.448 11.267 4.34932 11.2487 4.24994 11.2501H2.74994ZM19.7499 11.2501C19.6506 11.2487 19.5519 11.267 19.4597 11.3041C19.3674 11.3412 19.2835 11.3962 19.2127 11.466C19.1419 11.5358 19.0857 11.6189 19.0474 11.7106C19.009 11.8023 18.9893 11.9007 18.9893 12.0001C18.9893 12.0995 19.009 12.1979 19.0474 12.2896C19.0857 12.3813 19.1419 12.4644 19.2127 12.5342C19.2835 12.604 19.3674 12.659 19.4597 12.6961C19.5519 12.7331 19.6506 12.7515 19.7499 12.7501H21.2499C21.3493 12.7515 21.448 12.7331 21.5402 12.6961C21.6324 12.659 21.7164 12.604 21.7872 12.5342C21.8579 12.4644 21.9141 12.3813 21.9525 12.2896C21.9909 12.1979 22.0106 12.0995 22.0106 12.0001C22.0106 11.9007 21.9909 11.8023 21.9525 11.7106C21.9141 11.6189 21.8579 11.5358 21.7872 11.466C21.7164 11.3962 21.6324 11.3412 21.5402 11.3041C21.448 11.267 21.3493 11.2487 21.2499 11.2501H19.7499ZM6.50482 16.7227C6.31004 16.7284 6.12512 16.8097 5.9892 16.9493L4.92865 18.0099C4.85893 18.0796 4.80361 18.1623 4.76587 18.2534C4.72813 18.3444 4.7087 18.4421 4.70869 18.5407C4.70868 18.6392 4.72809 18.7369 4.76581 18.8279C4.80353 18.919 4.85883 19.0018 4.92854 19.0715C4.99825 19.1412 5.08101 19.1965 5.17209 19.2342C5.26317 19.2719 5.36079 19.2914 5.45938 19.2913C5.55796 19.2913 5.65558 19.2719 5.74666 19.2342C5.83773 19.1964 5.92048 19.1411 5.99017 19.0714L7.05072 18.0108C7.15935 17.9055 7.23356 17.7697 7.2636 17.6214C7.29365 17.473 7.27813 17.3191 7.21907 17.1798C7.16002 17.0404 7.0602 16.9222 6.93273 16.8406C6.80525 16.7591 6.65608 16.718 6.50482 16.7227ZM17.4716 16.7227C17.3224 16.7228 17.1765 16.7674 17.0527 16.8507C16.9289 16.9341 16.8328 17.0526 16.7767 17.1909C16.7206 17.3292 16.7071 17.4811 16.7378 17.6272C16.7685 17.7732 16.8421 17.9068 16.9492 18.0108L18.0097 19.0714C18.0794 19.1411 18.1622 19.1964 18.2532 19.2341C18.3443 19.2718 18.4419 19.2912 18.5405 19.2912C18.639 19.2912 18.7366 19.2718 18.8277 19.2341C18.9188 19.1964 19.0015 19.1411 19.0712 19.0714C19.1409 19.0017 19.1962 18.9189 19.2339 18.8279C19.2717 18.7368 19.2911 18.6392 19.2911 18.5406C19.2911 18.442 19.2717 18.3444 19.2339 18.2534C19.1962 18.1623 19.1409 18.0796 19.0712 18.0099L18.0107 16.9493C17.9406 16.8774 17.8567 16.8203 17.7641 16.7813C17.6715 16.7424 17.5721 16.7225 17.4716 16.7227ZM11.9882 18.9893C11.7895 18.9925 11.6001 19.0743 11.4617 19.217C11.3232 19.3596 11.2471 19.5513 11.2499 19.7501V21.2501C11.2485 21.3495 11.2669 21.4481 11.304 21.5404C11.341 21.6326 11.396 21.7165 11.4658 21.7873C11.5356 21.8581 11.6188 21.9143 11.7105 21.9527C11.8021 21.991 11.9005 22.0108 11.9999 22.0108C12.0993 22.0108 12.1977 21.991 12.2894 21.9527C12.3811 21.9143 12.4643 21.8581 12.5341 21.7873C12.6038 21.7165 12.6589 21.6326 12.6959 21.5404C12.733 21.4481 12.7513 21.3495 12.7499 21.2501V19.7501C12.7514 19.6497 12.7327 19.5501 12.6949 19.457C12.6571 19.364 12.601 19.2796 12.53 19.2086C12.459 19.1377 12.3744 19.0817 12.2813 19.044C12.1883 19.0064 12.0886 18.9878 11.9882 18.9893Z" fill="black"/>
</svg>
