<svg width="24" height="24" viewBox="0 0 24 24" fill="none" xmlns="http://www.w3.org/2000/svg">
<path d="M13.2355 0.993162C13.0407 0.998839 12.8558 1.08009 12.7198 1.21972L10.7198 3.21972L10.4698 3.46972C10.3292 3.61038 10.2503 3.80112 10.2503 4C10.2503 4.19888 10.3292 4.38961 10.4698 4.53027L12.7198 6.78027C12.789 6.85225 12.8717 6.90972 12.9633 6.9493C13.0549 6.98889 13.1535 7.0098 13.2533 7.01082C13.3531 7.01183 13.452 6.99293 13.5444 6.95521C13.6368 6.91749 13.7207 6.86172 13.7913 6.79116C13.8618 6.72061 13.9176 6.63668 13.9553 6.5443C13.993 6.45191 14.012 6.35294 14.0109 6.25316C14.0099 6.15338 13.989 6.0548 13.9494 5.96321C13.9098 5.87161 13.8524 5.78883 13.7804 5.71973L12.5861 4.52539C13.6221 4.60596 14.5978 4.89463 15.4698 5.34961L16.5704 4.25C15.5026 3.61648 14.2904 3.20406 13.0001 3.06055L13.7804 2.28027C13.8886 2.17489 13.9625 2.03931 13.9923 1.89125C14.0222 1.7432 14.0067 1.58958 13.9478 1.4505C13.8889 1.31141 13.7894 1.19334 13.6623 1.11174C13.5352 1.03014 13.3864 0.988814 13.2355 0.993162ZM21.2355 1.99316C21.0407 1.99884 20.8558 2.08009 20.7198 2.21972L17.8048 5.13476L16.7452 6.19531L6.19543 16.7451L5.13488 17.8047L2.21984 20.7197C2.14786 20.7888 2.0904 20.8716 2.05081 20.9632C2.01122 21.0548 1.99031 21.1534 1.9893 21.2532C1.98828 21.3529 2.00719 21.4519 2.0449 21.5443C2.08262 21.6367 2.13839 21.7206 2.20895 21.7912C2.27951 21.8617 2.36344 21.9175 2.45582 21.9552C2.5482 21.9929 2.64718 22.0118 2.74696 22.0108C2.84674 22.0098 2.94531 21.9889 3.03691 21.9493C3.1285 21.9097 3.21128 21.8523 3.28039 21.7803L6.19348 18.8672C7.51871 19.9933 9.17651 20.7413 10.9952 20.9443L10.2198 21.7197C10.1479 21.7888 10.0904 21.8716 10.0508 21.9632C10.0112 22.0548 9.99031 22.1534 9.9893 22.2532C9.98828 22.3529 10.0072 22.4519 10.0449 22.5443C10.0826 22.6367 10.1384 22.7206 10.209 22.7912C10.2795 22.8617 10.3634 22.9175 10.4558 22.9552C10.5482 22.9929 10.6472 23.0118 10.747 23.0108C10.8467 23.0098 10.9453 22.9889 11.0369 22.9493C11.1285 22.9097 11.2113 22.8523 11.2804 22.7803L13.2804 20.7803L13.5304 20.5303C13.671 20.3896 13.75 20.1989 13.75 20C13.75 19.8011 13.671 19.6104 13.5304 19.4697L11.2804 17.2197C11.2105 17.1477 11.1268 17.0905 11.0344 17.0514C10.942 17.0123 10.8427 16.9922 10.7423 16.9922C10.593 16.9922 10.4472 17.0368 10.3234 17.1202C10.1996 17.2036 10.1035 17.322 10.0474 17.4603C9.99131 17.5986 9.97775 17.7506 10.0085 17.8966C10.0392 18.0427 10.1128 18.1763 10.2198 18.2803L11.4142 19.4746C9.84563 19.3524 8.41329 18.7422 7.26086 17.7998L17.7999 7.26074C18.8587 8.55547 19.5001 10.2033 19.5001 12C19.5001 14.43 18.3105 16.72 16.3155 18.125C15.9805 18.365 15.8999 18.8349 16.1349 19.1699C16.2849 19.3799 16.5151 19.4902 16.7501 19.4902C16.9001 19.4902 17.0497 19.4446 17.1847 19.3496C19.5747 17.6646 21.0001 14.915 21.0001 12C21.0001 9.78878 20.1978 7.75918 18.8673 6.19336L21.7804 3.28027C21.8886 3.17489 21.9625 3.03931 21.9923 2.89125C22.0222 2.7432 22.0067 2.58958 21.9478 2.4505C21.8889 2.31141 21.7894 2.19334 21.6623 2.11174C21.5352 2.03014 21.3864 1.98881 21.2355 1.99316ZM7.23352 4.51172C7.08844 4.51488 6.94305 4.56039 6.81555 4.65039C4.42555 6.33539 3.00012 9.085 3.00012 12C3.00012 13.665 3.45512 15.2303 4.25012 16.5703L5.34973 15.4697C4.80973 14.4347 4.50012 13.255 4.50012 12C4.50012 9.57 5.68969 7.28 7.68469 5.875C8.01969 5.635 8.10035 5.16508 7.86535 4.83008C7.71535 4.61758 7.47531 4.50644 7.23352 4.51172Z" fill="black"/>
</svg>
