<svg width="24" height="24" viewBox="0 0 24 24" fill="none" xmlns="http://www.w3.org/2000/svg">
<path d="M12.9854 0.993162C12.7906 0.998839 12.6056 1.08009 12.4697 1.21972L10.5342 3.15527C10.4809 3.19593 10.4332 3.24356 10.3926 3.29687L10.2197 3.46972C10.0791 3.61038 10.0001 3.80112 10.0001 4C10.0001 4.19888 10.0791 4.38961 10.2197 4.53027L12.4697 6.78027C12.5388 6.85225 12.6216 6.90972 12.7132 6.9493C12.8048 6.98889 12.9034 7.0098 13.0032 7.01082C13.1029 7.01183 13.2019 6.99293 13.2943 6.95521C13.3867 6.91749 13.4706 6.86172 13.5412 6.79116C13.6117 6.72061 13.6675 6.63668 13.7052 6.5443C13.7429 6.45192 13.7618 6.35294 13.7608 6.25316C13.7598 6.15338 13.7389 6.0548 13.6993 5.96321C13.6597 5.87161 13.6023 5.78883 13.5303 5.71973L12.3271 4.5166C16.3246 4.68829 19.5 7.95924 19.5 12C19.5 14.538 18.2416 16.7672 16.3174 18.126C16.2369 18.1828 16.1684 18.2549 16.1158 18.3382C16.0632 18.4215 16.0275 18.5143 16.0107 18.6114C15.994 18.7085 15.9965 18.8079 16.0182 18.904C16.0399 19.0001 16.0803 19.091 16.1371 19.1714C16.1939 19.2519 16.2661 19.3204 16.3494 19.373C16.4326 19.4256 16.5255 19.4613 16.6226 19.478C16.7197 19.4948 16.8191 19.4922 16.9152 19.4705C17.0113 19.4488 17.1021 19.4084 17.1826 19.3516C19.4884 17.7233 21 15.035 21 12C21 7.29854 17.373 3.43247 12.7715 3.03906L13.5303 2.28027C13.6385 2.17489 13.7123 2.03931 13.7422 1.89125C13.7721 1.7432 13.7566 1.58958 13.6977 1.4505C13.6388 1.31141 13.5393 1.19334 13.4122 1.11174C13.2851 1.03014 13.1363 0.988814 12.9854 0.993162ZM7.28906 4.50586C7.12027 4.49891 6.95407 4.54915 6.81738 4.64844C4.51161 6.27665 3 8.96498 3 12C3 16.7015 6.62702 20.5675 11.2285 20.9609L10.4697 21.7197C10.3977 21.7888 10.3403 21.8716 10.3007 21.9632C10.2611 22.0548 10.2402 22.1534 10.2392 22.2532C10.2382 22.3529 10.2571 22.4519 10.2948 22.5443C10.3325 22.6367 10.3883 22.7206 10.4588 22.7912C10.5294 22.8617 10.6133 22.9175 10.7057 22.9552C10.7981 22.9929 10.8971 23.0118 10.9968 23.0108C11.0966 23.0098 11.1952 22.9889 11.2868 22.9493C11.3784 22.9097 11.4612 22.8523 11.5303 22.7803L13.4658 20.8447C13.5191 20.8041 13.5668 20.7564 13.6074 20.7031L13.7803 20.5303C13.9209 20.3896 13.9999 20.1989 13.9999 20C13.9999 19.8011 13.9209 19.6104 13.7803 19.4697L11.5303 17.2197C11.4604 17.1477 11.3767 17.0905 11.2843 17.0514C11.1919 17.0123 11.0925 16.9922 10.9922 16.9922C10.8429 16.9922 10.6971 17.0368 10.5733 17.1202C10.4495 17.2036 10.3534 17.322 10.2973 17.4603C10.2412 17.5986 10.2276 17.7506 10.2584 17.8966C10.2891 18.0427 10.3627 18.1763 10.4697 18.2803L11.6729 19.4834C7.6754 19.3117 4.5 16.0408 4.5 12C4.5 9.46202 5.75839 7.23281 7.68262 5.87402C7.81258 5.78495 7.91119 5.65722 7.96447 5.50894C8.01774 5.36066 8.02297 5.19938 7.97942 5.04796C7.93586 4.89654 7.84574 4.76269 7.72182 4.66538C7.5979 4.56808 7.44649 4.51226 7.28906 4.50586Z" fill="black"/>
</svg>
