<svg width="24" height="24" viewBox="0 0 24 24" fill="none" xmlns="http://www.w3.org/2000/svg">
<path fill-rule="evenodd" clip-rule="evenodd" d="M4.86612 3.24112C5.10054 3.0067 5.41848 2.875 5.75 2.875H13.0001V6.12665C13.0001 6.59078 13.1844 7.03589 13.5126 7.36408C13.8408 7.69227 14.2859 7.87665 14.7501 7.87665H18V13.125C18 13.5392 18.3358 13.875 18.75 13.875C19.1642 13.875 19.5 13.5392 19.5 13.125V7.13616L19.5001 7.12665C19.5001 7.11603 19.4998 7.10547 19.4994 7.09497C19.4919 6.90697 19.4139 6.72823 19.2803 6.59467L14.2803 1.59467C14.1397 1.45402 13.9489 1.375 13.75 1.375H5.75C5.02065 1.375 4.32118 1.66473 3.80546 2.18046C3.28973 2.69618 3 3.39565 3 4.125V19.125C3 19.8543 3.28973 20.5538 3.80546 21.0695C4.32118 21.5853 5.02065 21.875 5.75 21.875H14.5C14.9142 21.875 15.25 21.5392 15.25 21.125C15.25 20.7108 14.9142 20.375 14.5 20.375H5.75C5.41848 20.375 5.10054 20.2433 4.86612 20.0089C4.6317 19.7745 4.5 19.4565 4.5 19.125V4.125C4.5 3.79348 4.6317 3.47554 4.86612 3.24112ZM16.941 6.37665L14.5001 3.93572V6.12665C14.5001 6.19295 14.5264 6.25654 14.5733 6.30342C14.6202 6.35031 14.6838 6.37665 14.7501 6.37665H16.941Z" fill="black"/>
<path d="M16.9916 10.9841C17.2244 10.6415 17.1354 10.175 16.7928 9.9422C16.4503 9.70937 15.9838 9.79834 15.751 10.1409L15.3088 10.7915L14.8703 10.1463C14.6375 9.80367 14.171 9.71469 13.8284 9.94752C13.4859 10.1804 13.3969 10.6468 13.6297 10.9894L14.402 12.1258L13.6297 13.2622C13.3968 13.6048 13.4858 14.0713 13.8284 14.3041C14.171 14.537 14.6374 14.448 14.8703 14.1054L15.3088 13.4601L15.751 14.1107C15.9839 14.4533 16.4503 14.5423 16.7929 14.3094C17.1355 14.0766 17.2245 13.6102 16.9916 13.2676L16.2156 12.1258L16.9916 10.9841Z" fill="black"/>
<path d="M11 9.875C11.3228 9.875 11.6094 10.0816 11.7115 10.3878L12.7115 13.3878C12.8425 13.7808 12.6301 14.2055 12.2372 14.3365C11.8442 14.4675 11.4195 14.2551 11.2885 13.8622L11 12.9967L10.7115 13.8622C10.5805 14.2551 10.1558 14.4675 9.76283 14.3365C9.36987 14.2055 9.1575 13.7808 9.28849 13.3878L10.2885 10.3878C10.3906 10.0816 10.6772 9.875 11 9.875Z" fill="black"/>
<path d="M6 6.125C6 5.71079 6.33579 5.375 6.75 5.375H9.25C9.66421 5.375 10 5.71079 10 6.125C10 6.53921 9.66421 6.875 9.25 6.875H6.75C6.33579 6.875 6 6.53921 6 6.125Z" fill="black"/>
<path d="M5.5 10.375C5.5 9.96079 5.83579 9.625 6.25 9.625H8.75C9.16421 9.625 9.5 9.96079 9.5 10.375C9.5 10.7892 9.16421 11.125 8.75 11.125H8.25V13.625C8.25 14.0392 7.91421 14.375 7.5 14.375C7.08579 14.375 6.75 14.0392 6.75 13.625V11.125H6.25C5.83579 11.125 5.5 10.7892 5.5 10.375Z" fill="black"/>
<path d="M6 17.625C6 17.2108 6.33579 16.875 6.75 16.875H13.25C13.6642 16.875 14 17.2108 14 17.625C14 18.0392 13.6642 18.375 13.25 18.375H6.75C6.33579 18.375 6 18.0392 6 17.625Z" fill="black"/>
<path d="M18 15.875C18 15.4608 18.3358 15.125 18.75 15.125C19.1642 15.125 19.5 15.4608 19.5 15.875H20.25C20.6642 15.875 21 16.2108 21 16.625C21 17.0392 20.6642 17.375 20.25 17.375H18.375C18.2759 17.375 18.1805 17.4141 18.1091 17.4851C18.0396 17.5548 18 17.6502 18 17.75C18 17.8491 18.0391 17.9445 18.11 18.0159C18.1798 18.0854 18.2752 18.125 18.375 18.125H19.125C19.6227 18.125 20.0986 18.3227 20.4501 18.673L20.4511 18.6739C20.8028 19.0256 21 19.503 21 20C21 20.4977 20.8023 20.9736 20.452 21.3251L20.4511 21.3261C20.1891 21.588 19.8575 21.7642 19.5 21.8372V21.875C19.5 22.2892 19.1642 22.625 18.75 22.625C18.3358 22.625 18 22.2892 18 21.875H17.25C16.8358 21.875 16.5 21.5392 16.5 21.125C16.5 20.7108 16.8358 20.375 17.25 20.375H19.125C19.2248 20.375 19.3202 20.3354 19.39 20.2659C19.4609 20.1945 19.5 20.099 19.5 20C19.5 19.9002 19.4604 19.8048 19.3909 19.735C19.3195 19.6641 19.224 19.625 19.125 19.625H18.375C17.878 19.625 17.4006 19.4278 17.0489 19.0761L17.048 19.0751C16.6977 18.7236 16.5 18.2477 16.5 17.75C16.5 17.253 16.6972 16.7756 17.0489 16.4239L17.0499 16.423C17.3117 16.1621 17.6425 15.9858 18 15.9129V15.875Z" fill="black"/>
</svg>
