<svg width="24" height="24" viewBox="0 0 24 24" fill="none" xmlns="http://www.w3.org/2000/svg">
<path fill-rule="evenodd" clip-rule="evenodd" d="M5.75 1.37988H12.5C12.7761 1.37988 13 1.60374 13 1.87988V6.12988C13 6.59401 13.1844 7.03913 13.5126 7.36732C13.8408 7.69551 14.2859 7.87988 14.75 7.87988H19C19.2761 7.87988 19.5 8.10374 19.5 8.37988V13.7579C19.2654 13.675 19.013 13.6299 18.75 13.6299C17.9087 13.6299 17.1752 14.0917 16.7892 14.7756C16.4979 14.9306 16.2286 15.1286 15.9911 15.3653L15.9892 15.3672L15.9883 15.3681C15.3546 16.0018 15 16.861 15 17.7549C15 18.4298 15.202 19.082 15.5705 19.6326C15.2156 20.0304 15 20.5549 15 21.1299C15 21.3929 15.0451 21.6453 15.128 21.8799H5.75C5.02065 21.8799 4.32118 21.5902 3.80546 21.0744C3.28973 20.5587 3 19.8592 3 19.1299V4.12988C3 3.40054 3.28973 2.70106 3.80546 2.18534C4.32118 1.66961 5.02065 1.37988 5.75 1.37988ZM6.25 5.37988C5.83579 5.37988 5.5 5.71567 5.5 6.12988C5.5 6.5441 5.83579 6.87988 6.25 6.87988H8.75C9.16421 6.87988 9.5 6.5441 9.5 6.12988C9.5 5.71567 9.16421 5.37988 8.75 5.37988H6.25ZM5.5 10.3799C5.5 9.96567 5.83579 9.62988 6.25 9.62988H8.75C9.16421 9.62988 9.5 9.96567 9.5 10.3799C9.5 10.7941 9.16421 11.1299 8.75 11.1299H8.25V13.6299C8.25 14.0441 7.91421 14.3799 7.5 14.3799C7.08579 14.3799 6.75 14.0441 6.75 13.6299V11.1299H6.25C5.83579 11.1299 5.5 10.7941 5.5 10.3799ZM16.7928 9.94543C17.1354 10.1783 17.2243 10.6447 16.9915 10.9873L16.2156 12.129L16.9916 13.2708C17.2244 13.6134 17.1354 14.0799 16.7928 14.3127C16.4503 14.5455 15.9838 14.4565 15.751 14.114L15.3088 13.4633L14.8702 14.1086C14.6374 14.4512 14.1709 14.5402 13.8283 14.3074C13.4857 14.0745 13.3968 13.6081 13.6296 13.2655L14.402 12.129L13.6297 10.9926C13.3968 10.6501 13.4858 10.1836 13.8284 9.95076C14.171 9.71793 14.6374 9.80691 14.8703 10.1495L15.3088 10.7947L15.7509 10.1442C15.9837 9.80158 16.4502 9.71261 16.7928 9.94543ZM11 9.87988C11.3228 9.87988 11.6094 10.0865 11.7115 10.3927L12.7115 13.3927C12.8425 13.7857 12.6301 14.2104 12.2371 14.3414C11.8442 14.4724 11.4194 14.26 11.2884 13.8671L11 13.0016L10.7115 13.8671C10.5805 14.26 10.1557 14.4724 9.76279 14.3414C9.36983 14.2104 9.15746 13.7857 9.28845 13.3927L10.2884 10.3927C10.3905 10.0865 10.6771 9.87988 11 9.87988ZM6.75 16.8799C6.33579 16.8799 6 17.2157 6 17.6299C6 18.0441 6.33579 18.3799 6.75 18.3799H13.25C13.6642 18.3799 14 18.0441 14 17.6299C14 17.2157 13.6642 16.8799 13.25 16.8799H6.75Z" fill="black"/>
<path d="M14.5 3.02633C14.5 2.58088 15.0386 2.35779 15.3536 2.67278L18.2071 5.52633C18.5221 5.84131 18.299 6.37988 17.8536 6.37988H14.75C14.6837 6.37988 14.6201 6.35354 14.5732 6.30666C14.5263 6.25978 14.5 6.19619 14.5 6.12988V3.02633Z" fill="black"/>
<path d="M18.75 15.1299C19.1642 15.1299 19.5 15.4657 19.5 15.8799H20.25C20.6642 15.8799 21 16.2157 21 16.6299C21 17.0441 20.6642 17.3799 20.25 17.3799H18.375C18.2759 17.3799 18.1805 17.419 18.1091 17.4899C18.0396 17.5597 18 17.6551 18 17.7549C18 17.8539 18.0391 17.9494 18.11 18.0208C18.1798 18.0903 18.2752 18.1299 18.375 18.1299H19.125C19.6227 18.1299 20.0986 18.3276 20.4501 18.6779L20.4511 18.6788C20.8028 19.0305 21 19.5079 21 20.0049C21 20.5026 20.8023 20.9785 20.452 21.33L20.4511 21.331C20.1891 21.5929 19.8575 21.7691 19.5 21.842V21.8799C19.5 22.2941 19.1642 22.6299 18.75 22.6299C18.3358 22.6299 18 22.2941 18 21.8799H17.25C16.8358 21.8799 16.5 21.5441 16.5 21.1299C16.5 20.7157 16.8358 20.3799 17.25 20.3799H19.125C19.2248 20.3799 19.3202 20.3402 19.39 20.2707C19.4609 20.1993 19.5 20.1039 19.5 20.0049C19.5 19.9051 19.4604 19.8096 19.3909 19.7399C19.3194 19.669 19.2241 19.6299 19.125 19.6299H18.375C17.878 19.6299 17.4006 19.4327 17.0489 19.081L17.048 19.08C16.6977 18.7285 16.5 18.2526 16.5 17.7549C16.5 17.2579 16.6972 16.7805 17.0489 16.4288L17.0499 16.4279C17.3117 16.167 17.6425 15.9907 18 15.9177V15.8799C18 15.4657 18.3358 15.1299 18.75 15.1299Z" fill="black"/>
</svg>
