<svg width="24" height="24" viewBox="0 0 24 24" fill="none" xmlns="http://www.w3.org/2000/svg">
<path d="M5.23819 2.98934C5.03945 2.99244 4.85007 3.0743 4.71164 3.21694C4.57321 3.35958 4.49706 3.55133 4.49991 3.75008V4.12703C4.48668 4.20755 4.48668 4.28968 4.49991 4.37019V4.75008C4.49803 4.92841 4.55976 5.10157 4.67401 5.2385C4.78826 5.37544 4.94756 5.46719 5.12334 5.49729C5.29912 5.52739 5.47988 5.49387 5.63318 5.40275C5.78649 5.31163 5.90231 5.16887 5.95987 5.00008H11.2499V19.5001H10.2499C10.1505 19.4987 10.0519 19.517 9.95963 19.5541C9.8674 19.5912 9.78346 19.6462 9.71268 19.716C9.64191 19.7857 9.5857 19.8689 9.54734 19.9606C9.50898 20.0523 9.48923 20.1507 9.48923 20.2501C9.48923 20.3495 9.50898 20.4479 9.54734 20.5396C9.5857 20.6313 9.64191 20.7144 9.71268 20.7842C9.78346 20.854 9.8674 20.909 9.95963 20.9461C10.0519 20.9831 10.1505 21.0015 10.2499 21.0001H11.8769C11.9574 21.0133 12.0395 21.0133 12.12 21.0001H13.7499C13.8493 21.0015 13.948 20.9831 14.0402 20.9461C14.1324 20.909 14.2164 20.854 14.2871 20.7842C14.3579 20.7144 14.4141 20.6313 14.4525 20.5396C14.4908 20.4479 14.5106 20.3495 14.5106 20.2501C14.5106 20.1507 14.4908 20.0523 14.4525 19.9606C14.4141 19.8689 14.3579 19.7857 14.2871 19.716C14.2164 19.6462 14.1324 19.5912 14.0402 19.5541C13.948 19.517 13.8493 19.4987 13.7499 19.5001H12.7499V5.00008H18.0399C18.0975 5.16887 18.2133 5.31163 18.3666 5.40275C18.5199 5.49387 18.7007 5.52739 18.8765 5.49729C19.0523 5.46719 19.2116 5.37544 19.3258 5.2385C19.4401 5.10157 19.5018 4.92841 19.4999 4.75008V4.37312C19.5131 4.29261 19.5131 4.21048 19.4999 4.12996V3.75008C19.5018 3.57175 19.4401 3.39859 19.3258 3.26165C19.2116 3.12472 19.0523 3.03297 18.8765 3.00287C18.7007 2.97277 18.5199 3.00629 18.3666 3.0974C18.2133 3.18852 18.0975 3.33128 18.0399 3.50008H12.123C12.0424 3.48685 11.9603 3.48685 11.8798 3.50008H5.95987C5.90919 3.34948 5.81198 3.21887 5.68228 3.12707C5.55258 3.03528 5.39707 2.98705 5.23819 2.98934Z" fill="black"/>
</svg>
