<svg width="24" height="24" viewBox="0 0 24 24" fill="none" xmlns="http://www.w3.org/2000/svg">
<path d="M2.2875 6.7125C2.47917 6.90417 2.71667 7 3 7C3.28333 7 3.52083 6.90417 3.7125 6.7125C3.90417 6.52083 4 6.28333 4 6V4H6C6.28333 4 6.52083 3.90417 6.7125 3.7125C6.90417 3.52083 7 3.28333 7 3C7 2.71667 6.90417 2.47917 6.7125 2.2875C6.52083 2.09583 6.28333 2 6 2H3C2.71667 2 2.47917 2.09583 2.2875 2.2875C2.09583 2.47917 2 2.71667 2 3V6C2 6.28333 2.09583 6.52083 2.2875 6.7125Z" fill="black"/>
<path d="M2.2875 21.7125C2.47917 21.9042 2.71667 22 3 22H6C6.28333 22 6.52083 21.9042 6.7125 21.7125C6.90417 21.5208 7 21.2833 7 21C7 20.7167 6.90417 20.4792 6.7125 20.2875C6.52083 20.0958 6.28333 20 6 20H4V18C4 17.7167 3.90417 17.4792 3.7125 17.2875C3.52083 17.0958 3.28333 17 3 17C2.71667 17 2.47917 17.0958 2.2875 17.2875C2.09583 17.4792 2 17.7167 2 18V21C2 21.2833 2.09583 21.5208 2.2875 21.7125Z" fill="black"/>
<path d="M17.2875 21.7125C17.4792 21.9042 17.7167 22 18 22H21C21.2833 22 21.5208 21.9042 21.7125 21.7125C21.9042 21.5208 22 21.2833 22 21V18C22 17.7167 21.9042 17.4792 21.7125 17.2875C21.5208 17.0958 21.2833 17 21 17C20.7167 17 20.4792 17.0958 20.2875 17.2875C20.0958 17.4792 20 17.7167 20 18V20H18C17.7167 20 17.4792 20.0958 17.2875 20.2875C17.0958 20.4792 17 20.7167 17 21C17 21.2833 17.0958 21.5208 17.2875 21.7125Z" fill="black"/>
<path d="M20.2875 6.7125C20.4792 6.90417 20.7167 7 21 7C21.2833 7 21.5208 6.90417 21.7125 6.7125C21.9042 6.52083 22 6.28333 22 6V3C22 2.71667 21.9042 2.47917 21.7125 2.2875C21.5208 2.09583 21.2833 2 21 2H18C17.7167 2 17.4792 2.09583 17.2875 2.2875C17.0958 2.47917 17 2.71667 17 3C17 3.28333 17.0958 3.52083 17.2875 3.7125C17.4792 3.90417 17.7167 4 18 4H20V6C20 6.28333 20.0958 6.52083 20.2875 6.7125Z" fill="black"/>
<path fill-rule="evenodd" clip-rule="evenodd" d="M15.3036 16.2786L14.2922 13.75H9.70778L8.69636 16.2786C8.54252 16.6632 8.10605 16.8502 7.72146 16.6964C7.33687 16.5426 7.14981 16.1061 7.30364 15.7215L10.3752 8.04269C10.9619 6.57594 13.0381 6.57594 13.6248 8.04269L16.6964 15.7215C16.8502 16.1061 16.6631 16.5426 16.2785 16.6964C15.894 16.8502 15.4575 16.6632 15.3036 16.2786ZM11.7679 8.59978C11.8517 8.39024 12.1483 8.39024 12.2321 8.59978L13.6922 12.25H10.3078L11.7679 8.59978Z" fill="black"/>
</svg>
