<svg width="24" height="24" viewBox="0 0 24 24" fill="none" xmlns="http://www.w3.org/2000/svg">
<path fill-rule="evenodd" clip-rule="evenodd" d="M11.25 3C11.25 2.58579 11.5858 2.25 12 2.25H16.083C16.4488 2.25 16.7613 2.51396 16.8225 2.87466C17.0047 3.94964 17.5167 4.94133 18.2877 5.7123C19.0587 6.48326 20.0504 6.99534 21.1253 7.17755C21.486 7.23869 21.75 7.55115 21.75 7.917V11.951C21.75 12.1628 21.6605 12.3647 21.5035 12.5069C21.3465 12.6491 21.1367 12.7182 20.926 12.6973C19.4531 12.5512 18.032 12.1017 16.75 11.3829V14.5C16.7497 15.862 16.3657 17.1966 15.6421 18.3505C14.9184 19.5044 13.8844 20.4311 12.6584 21.0244C11.4324 21.6178 10.0641 21.8538 8.71014 21.7054C7.35622 21.557 6.07148 21.0302 5.00311 20.1854C3.93474 19.3406 3.12596 18.2119 2.66941 16.9287C2.21287 15.6455 2.12704 14.2596 2.42176 12.9298C2.71647 11.6 3.37981 10.3802 4.33577 9.41002C5.29173 8.43983 6.50166 7.75856 7.82692 7.44424C8.05009 7.39131 8.28521 7.44341 8.46513 7.58565C8.64505 7.72789 8.75 7.94464 8.75 8.174V12.5C8.75 12.7361 8.63886 12.9584 8.45 13.1C8.21136 13.279 8.02243 13.516 7.90116 13.7885C7.77988 14.0611 7.73028 14.3601 7.75707 14.6572C7.78386 14.9543 7.88615 15.2396 8.05422 15.486C8.22229 15.7325 8.45057 15.9318 8.71738 16.0652C8.98418 16.1987 9.28066 16.2616 9.57866 16.2482C9.87666 16.2348 10.1663 16.1455 10.42 15.9886C10.6738 15.8318 10.8832 15.6127 11.0285 15.3522C11.1737 15.0916 11.25 14.7983 11.25 14.5V3Z" fill="black"/>
</svg>
