<svg width="24" height="24" viewBox="0 0 24 24" fill="none" xmlns="http://www.w3.org/2000/svg">
<path d="M10.1539 2.42647C12.0714 2.05662 14.0557 2.27107 15.8498 3.04204C17.644 3.81302 19.1653 5.10498 20.2167 6.75057C21.2681 8.39616 21.8011 10.3196 21.7467 12.2716C21.7352 12.6856 21.3902 13.0119 20.9761 13.0004C20.5621 12.9889 20.2358 12.6439 20.2473 12.2298C20.2933 10.5781 19.8423 8.9506 18.9527 7.55818C18.063 6.16575 16.7758 5.07255 15.2576 4.42019C13.7395 3.76783 12.0605 3.58637 10.438 3.89932C8.81554 4.21227 7.32444 5.0052 6.15785 6.1754C4.99126 7.3456 4.20294 8.83915 3.89502 10.4626C3.58709 12.086 3.77374 13.7645 4.43079 15.2806C5.08784 16.7967 6.18501 18.0805 7.58018 18.9659C8.97535 19.8512 10.6042 20.2972 12.2558 20.2461C12.6698 20.2332 13.0158 20.5585 13.0286 20.9725C13.0415 21.3865 12.7162 21.7325 12.3022 21.7453C10.3504 21.8058 8.42532 21.2787 6.77649 20.2324C5.12765 19.1861 3.83099 17.6688 3.05448 15.877C2.27796 14.0853 2.05738 12.1016 2.42129 10.183C2.78521 8.26445 3.71686 6.49935 5.09555 5.11638C6.47425 3.73342 8.23646 2.79631 10.1539 2.42647Z" fill="black"/>
<path fill-rule="evenodd" clip-rule="evenodd" d="M16.3483 16.3483C17.0516 15.6451 18.0054 15.25 19 15.25C19.9946 15.25 20.9484 15.6451 21.6517 16.3483C22.3549 17.0516 22.75 18.0054 22.75 19C22.75 19.9946 22.3549 20.9484 21.6517 21.6517C20.9484 22.3549 19.9946 22.75 19 22.75C18.0054 22.75 17.0516 22.3549 16.3483 21.6517C15.6451 20.9484 15.25 19.9946 15.25 19C15.25 18.0054 15.6451 17.0516 16.3483 16.3483ZM19 16.75C18.4033 16.75 17.831 16.9871 17.409 17.409C16.9871 17.831 16.75 18.4033 16.75 19C16.75 19.3388 16.8264 19.6697 16.9697 19.9697L19.9697 16.9697C19.6697 16.8264 19.3388 16.75 19 16.75ZM21.0303 18.0303L18.0303 21.0303C18.3303 21.1736 18.6612 21.25 19 21.25C19.5967 21.25 20.169 21.0129 20.591 20.591C21.0129 20.169 21.25 19.5967 21.25 19C21.25 18.6612 21.1736 18.3303 21.0303 18.0303Z" fill="black"/>
<path d="M12 6.25C12.4142 6.25 12.75 6.58579 12.75 7V11.6893L13.0303 11.9697C13.3232 12.2626 13.3232 12.7374 13.0303 13.0303C12.7374 13.3232 12.2626 13.3232 11.9697 13.0303L11.4697 12.5303C11.329 12.3897 11.25 12.1989 11.25 12V7C11.25 6.58579 11.5858 6.25 12 6.25Z" fill="black"/>
</svg>
