<svg width="24" height="24" viewBox="0 0 24 24" fill="none" xmlns="http://www.w3.org/2000/svg">
<path fill-rule="evenodd" clip-rule="evenodd" d="M8 9.25C7.27065 9.25 6.57118 9.53973 6.05546 10.0555C5.53973 10.5712 5.25 11.2707 5.25 12C5.25 12.7293 5.53973 13.4288 6.05546 13.9445C6.57118 14.4603 7.27065 14.75 8 14.75C8.72935 14.75 9.42882 14.4603 9.94454 13.9445C10.4603 13.4288 10.75 12.7293 10.75 12C10.75 11.2707 10.4603 10.5712 9.94454 10.0555C9.42882 9.53973 8.72935 9.25 8 9.25ZM7.11612 11.1161C7.35054 10.8817 7.66848 10.75 8 10.75C8.33152 10.75 8.64946 10.8817 8.88388 11.1161C9.1183 11.3505 9.25 11.6685 9.25 12C9.25 12.3315 9.1183 12.6495 8.88388 12.8839C8.64946 13.1183 8.33152 13.25 8 13.25C7.66848 13.25 7.35054 13.1183 7.11612 12.8839C6.8817 12.6495 6.75 12.3315 6.75 12C6.75 11.6685 6.8817 11.3505 7.11612 11.1161Z" fill="black"/>
<path fill-rule="evenodd" clip-rule="evenodd" d="M8 5.25C6.20979 5.25 4.4929 5.96116 3.22703 7.22703C1.96116 8.4929 1.25 10.2098 1.25 12C1.25 13.7902 1.96116 15.5071 3.22703 16.773C4.4929 18.0388 6.20979 18.75 8 18.75H16C17.7902 18.75 19.5071 18.0388 20.773 16.773C22.0388 15.5071 22.75 13.7902 22.75 12C22.75 10.2098 22.0388 8.4929 20.773 7.22703C19.5071 5.96116 17.7902 5.25 16 5.25H8ZM4.28769 8.28769C5.27226 7.30312 6.60761 6.75 8 6.75H16C17.3924 6.75 18.7277 7.30312 19.7123 8.28769C20.6969 9.27226 21.25 10.6076 21.25 12C21.25 13.3924 20.6969 14.7277 19.7123 15.7123C18.7277 16.6969 17.3924 17.25 16 17.25H8C6.60761 17.25 5.27225 16.6969 4.28769 15.7123C3.30312 14.7277 2.75 13.3924 2.75 12C2.75 10.6076 3.30312 9.27226 4.28769 8.28769Z" fill="black"/>
</svg>
