<svg width="24" height="24" viewBox="0 0 24 24" fill="none" xmlns="http://www.w3.org/2000/svg">
<path fill-rule="evenodd" clip-rule="evenodd" d="M20.773 7.22703C19.5071 5.96116 17.7902 5.25 16 5.25H8C6.20979 5.25 4.4929 5.96116 3.22703 7.22703C1.96116 8.4929 1.25 10.2098 1.25 12C1.25 13.7902 1.96116 15.5071 3.22703 16.773C4.4929 18.0388 6.20979 18.75 8 18.75H16C17.7902 18.75 19.5071 18.0388 20.773 16.773C22.0388 15.5071 22.75 13.7902 22.75 12C22.75 10.2098 22.0388 8.4929 20.773 7.22703ZM17.9445 10.0555C17.4288 9.53973 16.7293 9.25 16 9.25C15.2707 9.25 14.5712 9.53973 14.0555 10.0555C13.5397 10.5712 13.25 11.2707 13.25 12C13.25 12.7293 13.5397 13.4288 14.0555 13.9445C14.5712 14.4603 15.2707 14.75 16 14.75C16.7293 14.75 17.4288 14.4603 17.9445 13.9445C18.4603 13.4288 18.75 12.7293 18.75 12C18.75 11.2707 18.4603 10.5712 17.9445 10.0555Z" fill="black"/>
</svg>
