<svg width="24" height="24" viewBox="0 0 24 24" fill="none" xmlns="http://www.w3.org/2000/svg">
<path d="M9.25 2.5C8.29252 2.5 7.5 3.29252 7.5 4.25V6.5H4.75C3.24011 6.5 2 7.74011 2 9.25V18.75C2 20.2599 3.24011 21.5 4.75 21.5H19.25C20.7599 21.5 22 20.2599 22 18.75V9.25C22 7.74011 20.7599 6.5 19.25 6.5H16.5V4.25C16.5 3.29252 15.7075 2.5 14.75 2.5H9.25ZM9.25 4H14.75C14.8975 4 15 4.10248 15 4.25V6.5H9V4.25C9 4.10248 9.10248 4 9.25 4ZM4.75 8H19.25C19.9491 8 20.5 8.55089 20.5 9.25V11.5H18V11.25C18 10.836 17.664 10.5 17.25 10.5H15.75C15.336 10.5 15 10.836 15 11.25V11.5H9V11.25C9 10.836 8.664 10.5 8.25 10.5H6.75C6.336 10.5 6 10.836 6 11.25V11.5H3.5V9.25C3.5 8.55089 4.05089 8 4.75 8ZM3.5 13H6V13.25C6 13.664 6.336 14 6.75 14H8.25C8.664 14 9 13.664 9 13.25V13H15V13.25C15 13.664 15.336 14 15.75 14H17.25C17.664 14 18 13.664 18 13.25V13H20.5V18.75C20.5 19.4491 19.9491 20 19.25 20H4.75C4.05089 20 3.5 19.4491 3.5 18.75V13Z" fill="black"/>
</svg>
