<svg width="24" height="24" viewBox="0 0 24 24" fill="none" xmlns="http://www.w3.org/2000/svg">
<path d="M4.66712 3.00481C4.50206 3.023 4.34386 3.09565 4.21986 3.21965L3.21986 4.21965C2.97136 4.46865 2.92832 4.85577 3.11732 5.15227L5.04505 8.17669C5.32905 8.63219 5.79721 8.92771 6.33021 8.98821C6.39721 8.99571 6.46488 8.99993 6.53138 8.99993C6.91282 8.99993 7.27622 8.87021 7.57923 8.63958L11.2511 12.3115C10.704 13.2859 10.8379 14.5448 11.6613 15.3769L16.6066 20.2948C17.0901 20.7818 17.7345 21.0511 18.421 21.0536H18.4308C19.1138 21.0536 19.7563 20.7885 20.2413 20.3075C20.7278 19.824 20.9976 19.1796 21.0001 18.4931C21.0026 17.8066 20.7385 17.1602 20.256 16.6747L15.3156 11.7626C14.8321 11.2741 14.1876 11.0029 13.5001 10.9999H13.4884C13.0821 10.9999 12.695 11.1038 12.3419 11.2812L8.63783 7.57708C8.90815 7.22071 9.03973 6.78019 8.98841 6.32805C8.92741 5.79555 8.63175 5.3278 8.18275 5.0468L5.15248 3.11711C5.00373 3.02286 4.83219 2.98662 4.66712 3.00481ZM16.0597 3.00872C15.592 2.98097 15.1072 3.01527 14.6124 3.12102C12.5379 3.56452 10.9079 5.28238 10.5704 7.37688C10.5349 7.59738 10.5135 7.8147 10.505 8.0302L12.5939 10.1191C12.8874 10.0401 13.1859 9.99993 13.4884 9.99993C14.4589 10.0044 15.355 10.3805 16.0265 11.0585L17.9777 12.998C19.5332 12.2605 20.6924 10.7756 20.9454 9.01458C21.0669 8.16858 20.9824 7.35709 20.7384 6.61809C20.5664 6.09809 19.8906 5.95961 19.5031 6.34661L17.2726 8.5761C16.7551 9.0936 15.8645 9.13833 15.3595 8.60833C15.129 8.36633 15.0021 8.04929 15.0021 7.71379C15.0021 7.36729 15.137 7.0423 15.382 6.7968L17.674 4.50481C18.0605 4.11831 17.9224 3.44346 17.4044 3.26946C16.9779 3.12621 16.5274 3.03647 16.0597 3.00872ZM8.94154 11.4159L3.74134 16.6425C3.26084 17.1265 2.99763 17.7701 3.00013 18.4531C3.00263 19.1361 3.27101 19.7772 3.75501 20.2577C4.23701 20.7367 4.8758 20.9999 5.5558 20.9999H5.56556C6.24856 20.9974 6.88925 20.7291 7.37025 20.2441L11.2345 16.3622L10.9562 16.0859C10.0297 15.1504 9.71423 13.7831 10.0792 12.5536L8.94154 11.4159Z" fill="black"/>
</svg>
