<svg width="24" height="24" viewBox="0 0 24 24" fill="none" xmlns="http://www.w3.org/2000/svg">
<path d="M6.25007 1C5.2926 1 4.50008 1.79252 4.50008 2.75V3.5H3.25007C2.56828 3.5 2.00007 4.0682 2.00007 4.75V7.24707C2.00007 7.92887 2.56828 8.49707 3.25007 8.49707L4.50008 8.49805V13.5H3.00007V12.75C3.00148 12.6506 2.98312 12.5519 2.94606 12.4597C2.909 12.3675 2.85398 12.2836 2.7842 12.2128C2.71441 12.142 2.63126 12.0858 2.53956 12.0474C2.44787 12.0091 2.34947 11.9893 2.25007 11.9893C2.15068 11.9893 2.05228 12.0091 1.96059 12.0474C1.86889 12.0858 1.78574 12.142 1.71595 12.2128C1.64617 12.2836 1.59115 12.3675 1.55409 12.4597C1.51703 12.5519 1.49867 12.6506 1.50008 12.75V22.25C1.49867 22.3494 1.51703 22.4481 1.55409 22.5403C1.59115 22.6325 1.64617 22.7164 1.71595 22.7872C1.78574 22.858 1.86889 22.9142 1.96059 22.9526C2.05228 22.9909 2.15068 23.0107 2.25007 23.0107C2.34947 23.0107 2.44787 22.9909 2.53956 22.9526C2.63126 22.9142 2.71441 22.858 2.7842 22.7872C2.85398 22.7164 2.909 22.6325 2.94606 22.5403C2.98312 22.4481 3.00148 22.3494 3.00007 22.25V22H21.0001V22.25C20.9987 22.3494 21.017 22.4481 21.0541 22.5403C21.0912 22.6325 21.1462 22.7164 21.216 22.7872C21.2857 22.858 21.3689 22.9142 21.4606 22.9526C21.5523 22.9909 21.6507 23.0107 21.7501 23.0107C21.8495 23.0107 21.9479 22.9909 22.0396 22.9526C22.1313 22.9142 22.2144 22.858 22.2842 22.7872C22.354 22.7164 22.409 22.6325 22.4461 22.5403C22.4831 22.4481 22.5015 22.3494 22.5001 22.25V12.75C22.5015 12.6506 22.4831 12.5519 22.4461 12.4597C22.409 12.3675 22.354 12.2836 22.2842 12.2128C22.2144 12.142 22.1313 12.0858 22.0396 12.0474C21.9479 12.0091 21.8495 11.9893 21.7501 11.9893C21.6507 11.9893 21.5523 12.0091 21.4606 12.0474C21.3689 12.0858 21.2857 12.142 21.216 12.2128C21.1462 12.2836 21.0912 12.3675 21.0541 12.4597C21.017 12.5519 20.9987 12.6506 21.0001 12.75V13.5H20.0001V9.74023C21.2051 8.93023 22.0001 7.555 22.0001 6C22.0001 4.235 20.9801 2.70473 19.5001 1.96973C19.2181 1.82873 18.92 1.7162 18.6075 1.6377C18.298 1.5592 18.0001 1.80795 18.0001 2.12695V3.04492V5.5C18.0001 5.775 17.7751 6 17.5001 6C17.2251 6 17.0001 5.775 17.0001 5.5V3.04492V2.12695C17.0001 1.80795 16.7022 1.5592 16.3927 1.6377C16.0802 1.7162 15.7821 1.82873 15.5001 1.96973C14.0201 2.70473 13.0001 4.235 13.0001 6C13.0001 7.555 13.7951 8.93023 15.0001 9.74023V13.5H9.00007V8.49902L10.7501 8.5C11.4319 8.5 12.0001 7.9318 12.0001 7.25V5.95996C12.0001 5.6291 11.8701 5.31245 11.6348 5.07715L10.4278 3.86719C10.4275 3.86686 10.4272 3.86654 10.4268 3.86621C10.1937 3.63304 9.87529 3.5 9.54304 3.5H9.00007V2.75C9.00007 1.79252 8.20755 1 7.25007 1H6.25007ZM6.25007 2.5H7.25007C7.3976 2.5 7.50007 2.60248 7.50007 2.75V3.5H6.00007V2.75C6.00007 2.60248 6.10255 2.5 6.25007 2.5ZM15.5001 3.76953V5.41406C15.5001 6.45856 16.2648 7.39173 17.3048 7.49023C18.4978 7.60373 19.5001 6.6695 19.5001 5.5V3.76953C20.1151 4.31453 20.5001 5.115 20.5001 6C20.5001 6.61 20.3201 7.18027 20.0001 7.65527C19.6981 8.11077 19.2721 8.48232 18.7696 8.71582C18.6001 8.79432 18.5001 8.97268 18.5001 9.15918V10.3896V13.5H16.5001V10.3896V9.15918C16.5001 8.97268 16.4 8.79432 16.2305 8.71582C15.728 8.48282 15.3026 8.1098 15.0001 7.6543C14.6801 7.1793 14.5001 6.60902 14.5001 5.99902C14.5001 5.11402 14.8851 4.31453 15.5001 3.76953ZM3.50008 5H9.43855L10.5001 6.06348V7L8.36629 6.99902C8.28992 6.98715 8.21218 6.98715 8.13582 6.99902L5.35652 6.99805C5.2856 6.98783 5.21358 6.98783 5.14265 6.99805L3.50008 6.99707V5ZM6.00007 8.49805L7.50007 8.49902V13.5H6.00007V8.49805ZM3.00007 15H8.12703C8.20754 15.0132 8.28968 15.0132 8.37019 15H15.7501H19.2501H21.0001V17H3.00007V15ZM3.00007 18.5H21.0001V20.5H3.00007V18.5Z" fill="black"/>
</svg>
