<svg width="24" height="24" viewBox="0 0 24 24" fill="none" xmlns="http://www.w3.org/2000/svg">
<path fill-rule="evenodd" clip-rule="evenodd" d="M16.0555 4.05546C16.5712 3.53973 17.2707 3.25 18 3.25C18.7293 3.25 19.4288 3.53973 19.9445 4.05546C20.4603 4.57118 20.75 5.27065 20.75 6C20.75 6.72935 20.4603 7.42882 19.9445 7.94454C19.6098 8.27933 19.1975 8.51887 18.75 8.64576V15.3542C19.1975 15.4811 19.6098 15.7207 19.9445 16.0555C20.4603 16.5712 20.75 17.2707 20.75 18C20.75 18.7293 20.4603 19.4288 19.9445 19.9445C19.4288 20.4603 18.7293 20.75 18 20.75C17.2707 20.75 16.5712 20.4603 16.0555 19.9445C15.7207 19.6098 15.4811 19.1975 15.3542 18.75H8.64576C8.51887 19.1975 8.27933 19.6098 7.94454 19.9445C7.42882 20.4603 6.72935 20.75 6 20.75C5.27065 20.75 4.57118 20.4603 4.05546 19.9445C3.53973 19.4288 3.25 18.7293 3.25 18C3.25 17.2707 3.53973 16.5712 4.05546 16.0555C4.39024 15.7207 4.80245 15.4811 5.25 15.3542V8.64576C4.80245 8.51888 4.39024 8.27933 4.05546 7.94454C3.53973 7.42882 3.25 6.72935 3.25 6C3.25 5.27065 3.53973 4.57118 4.05546 4.05546C4.57118 3.53973 5.27065 3.25 6 3.25C6.72935 3.25 7.42882 3.53973 7.94454 4.05546C8.27933 4.39024 8.51888 4.80245 8.64576 5.25H15.3542C15.4811 4.80245 15.7207 4.39024 16.0555 4.05546ZM8.64576 17.25H15.3542C15.4811 16.8025 15.7207 16.3902 16.0555 16.0555C16.3902 15.7207 16.8025 15.4811 17.25 15.3542V8.64576C16.8025 8.51887 16.3902 8.27933 16.0555 7.94454C15.7207 7.60976 15.4811 7.19755 15.3542 6.75H8.64576C8.51888 7.19755 8.27933 7.60976 7.94454 7.94454C7.60976 8.27933 7.19755 8.51888 6.75 8.64576V15.3542C7.19755 15.4811 7.60976 15.7207 7.94454 16.0555C8.27933 16.3902 8.51887 16.8025 8.64576 17.25ZM7.25 18C7.25 18.3315 7.1183 18.6495 6.88388 18.8839C6.64946 19.1183 6.33152 19.25 6 19.25C5.66848 19.25 5.35054 19.1183 5.11612 18.8839C4.8817 18.6495 4.75 18.3315 4.75 18C4.75 17.6685 4.8817 17.3505 5.11612 17.1161C5.35054 16.8817 5.66848 16.75 6 16.75C6.33152 16.75 6.64946 16.8817 6.88388 17.1161C7.1183 17.3505 7.25 17.6685 7.25 18ZM16.75 18C16.75 18.3315 16.8817 18.6495 17.1161 18.8839C17.3505 19.1183 17.6685 19.25 18 19.25C18.3315 19.25 18.6495 19.1183 18.8839 18.8839C19.1183 18.6495 19.25 18.3315 19.25 18C19.25 17.6685 19.1183 17.3505 18.8839 17.1161C18.6495 16.8817 18.3315 16.75 18 16.75C17.6685 16.75 17.3505 16.8817 17.1161 17.1161C16.8817 17.3505 16.75 17.6685 16.75 18ZM17.1161 6.88388C16.8817 6.64946 16.75 6.33152 16.75 6C16.75 5.66848 16.8817 5.35054 17.1161 5.11612C17.3505 4.8817 17.6685 4.75 18 4.75C18.3315 4.75 18.6495 4.8817 18.8839 5.11612C19.1183 5.35054 19.25 5.66848 19.25 6C19.25 6.33152 19.1183 6.64946 18.8839 6.88388C18.6495 7.1183 18.3315 7.25 18 7.25C17.6685 7.25 17.3505 7.1183 17.1161 6.88388ZM6.88388 5.11612C7.1183 5.35054 7.25 5.66848 7.25 6C7.25 6.33152 7.1183 6.64946 6.88388 6.88388C6.64946 7.1183 6.33152 7.25 6 7.25C5.66848 7.25 5.35054 7.1183 5.11612 6.88388C4.8817 6.64946 4.75 6.33152 4.75 6C4.75 5.66848 4.8817 5.35054 5.11612 5.11612C5.35054 4.8817 5.66848 4.75 6 4.75C6.33152 4.75 6.64946 4.8817 6.88388 5.11612Z" fill="black"/>
</svg>
