<svg width="24" height="24" viewBox="0 0 24 24" fill="none" xmlns="http://www.w3.org/2000/svg">
<path d="M4.75008 2.00008C3.24019 2.00008 2.00008 3.24019 2.00008 4.75008V8.25007C1.99867 8.34946 2.01703 8.44813 2.05409 8.54036C2.09115 8.63258 2.14617 8.71652 2.21596 8.7873C2.28574 8.85808 2.36889 8.91428 2.46059 8.95264C2.55228 8.991 2.65068 9.01076 2.75008 9.01076C2.84947 9.01076 2.94787 8.991 3.03957 8.95264C3.13126 8.91428 3.21441 8.85808 3.2842 8.7873C3.35398 8.71652 3.409 8.63258 3.44606 8.54036C3.48312 8.44813 3.50148 8.34946 3.50008 8.25007V4.75008C3.50008 4.05096 4.05096 3.50007 4.75008 3.50007H8.25008C8.34946 3.50148 8.44813 3.48312 8.54036 3.44606C8.63259 3.409 8.71653 3.35398 8.7873 3.2842C8.85808 3.21441 8.91428 3.13126 8.95264 3.03956C8.991 2.94787 9.01076 2.84947 9.01076 2.75007C9.01076 2.65068 8.991 2.55228 8.95264 2.46059C8.91428 2.36889 8.85808 2.28574 8.7873 2.21595C8.71653 2.14617 8.63259 2.09115 8.54036 2.05409C8.44813 2.01703 8.34946 1.99867 8.25008 2.00008H4.75008ZM15.7501 2.00008C15.6507 1.99867 15.552 2.01703 15.4598 2.05409C15.3676 2.09115 15.2836 2.14617 15.2128 2.21595C15.1421 2.28574 15.0859 2.36889 15.0475 2.46059C15.0091 2.55228 14.9894 2.65068 14.9894 2.75007C14.9894 2.84947 15.0091 2.94787 15.0475 3.03956C15.0859 3.13126 15.1421 3.21441 15.2128 3.2842C15.2836 3.35398 15.3676 3.409 15.4598 3.44606C15.552 3.48312 15.6507 3.50148 15.7501 3.50007H19.2501C19.9492 3.50007 20.5001 4.05096 20.5001 4.75008V8.25007C20.4987 8.34946 20.517 8.44813 20.5541 8.54036C20.5912 8.63258 20.6462 8.71652 20.716 8.7873C20.7857 8.85808 20.8689 8.91428 20.9606 8.95264C21.0523 8.991 21.1507 9.01076 21.2501 9.01076C21.3495 9.01076 21.4479 8.991 21.5396 8.95264C21.6313 8.91428 21.7144 8.85808 21.7842 8.7873C21.854 8.71652 21.909 8.63258 21.9461 8.54036C21.9831 8.44813 22.0015 8.34946 22.0001 8.25007V4.75008C22.0001 3.24019 20.76 2.00008 19.2501 2.00008H15.7501ZM12.0001 5.00008C10.899 5.00008 9.85399 5.26653 8.93367 5.73738C8.84384 5.78098 8.76362 5.84208 8.69771 5.91709C8.63181 5.9921 8.58154 6.07951 8.54986 6.17421C8.51819 6.2689 8.50573 6.36896 8.51324 6.46853C8.52074 6.5681 8.54805 6.66517 8.59356 6.75405C8.63907 6.84292 8.70187 6.92182 8.77827 6.9861C8.85467 7.05039 8.94314 7.09878 9.03849 7.12842C9.13384 7.15807 9.23415 7.16838 9.33353 7.15875C9.43292 7.14912 9.52938 7.11974 9.61726 7.07234C10.3329 6.70619 11.1402 6.50007 12.0001 6.50007C14.9018 6.50007 17.2501 8.84833 17.2501 11.7501V16.2501C17.2487 16.3495 17.267 16.4481 17.3041 16.5404C17.3412 16.6326 17.3962 16.7165 17.466 16.7873C17.5357 16.8581 17.6189 16.9143 17.7106 16.9526C17.8023 16.991 17.9007 17.0108 18.0001 17.0108C18.0995 17.0108 18.1979 16.991 18.2896 16.9526C18.3813 16.9143 18.4644 16.8581 18.5342 16.7873C18.604 16.7165 18.659 16.6326 18.6961 16.5404C18.7331 16.4481 18.7515 16.3495 18.7501 16.2501V11.7501C18.7501 8.03482 15.7153 5.00008 12.0001 5.00008ZM7.14265 7.49129C7.02074 7.4901 6.90038 7.51865 6.79198 7.57446C6.68359 7.63028 6.59043 7.71167 6.52058 7.8116C5.72226 8.91969 5.25008 10.2845 5.25008 11.7501V16.2501C5.24867 16.3495 5.26703 16.4481 5.30409 16.5404C5.34115 16.6326 5.39617 16.7165 5.46596 16.7873C5.53574 16.8581 5.61889 16.9143 5.71059 16.9526C5.80228 16.991 5.90068 17.0108 6.00008 17.0108C6.09947 17.0108 6.19787 16.991 6.28957 16.9526C6.38126 16.9143 6.46441 16.8581 6.5342 16.7873C6.60398 16.7165 6.659 16.6326 6.69606 16.5404C6.73312 16.4481 6.75148 16.3495 6.75008 16.2501V11.7501C6.75008 10.6056 7.1157 9.55146 7.73738 8.68855C7.81988 8.57747 7.87005 8.44573 7.88233 8.30791C7.89461 8.17009 7.86854 8.03156 7.80698 7.90763C7.74542 7.78371 7.65079 7.67923 7.53355 7.60575C7.4163 7.53227 7.28102 7.49266 7.14265 7.49129ZM12.0001 8.00007C9.93896 8.00007 8.25008 9.68896 8.25008 11.7501V17.7501C8.24867 17.8495 8.26703 17.9481 8.30409 18.0404C8.34115 18.1326 8.39617 18.2165 8.46596 18.2873C8.53574 18.3581 8.61889 18.4143 8.71059 18.4526C8.80228 18.491 8.90068 18.5108 9.00008 18.5108C9.09947 18.5108 9.19787 18.491 9.28957 18.4526C9.38126 18.4143 9.46441 18.3581 9.5342 18.2873C9.60398 18.2165 9.659 18.1326 9.69606 18.0404C9.73312 17.9481 9.75148 17.8495 9.75008 17.7501V11.7501C9.75008 10.5022 10.7522 9.50007 12.0001 9.50007C12.0632 9.50007 12.1256 9.50272 12.1866 9.50789C12.2863 9.51926 12.3872 9.51053 12.4835 9.4822C12.5797 9.45387 12.6693 9.40652 12.7469 9.34296C12.8245 9.27939 12.8886 9.2009 12.9353 9.11213C12.9821 9.02336 13.0105 8.92612 13.019 8.82615C13.0275 8.72619 13.0159 8.62554 12.9848 8.53015C12.9537 8.43477 12.9038 8.34659 12.838 8.27084C12.7722 8.1951 12.6919 8.13331 12.6018 8.08915C12.5117 8.04499 12.4137 8.01935 12.3136 8.01375C12.2096 8.00492 12.1049 8.00007 12.0001 8.00007ZM14.3917 9.23445C14.2554 9.24037 14.1233 9.28335 14.0096 9.35875C13.896 9.43415 13.805 9.53912 13.7466 9.66236C13.6881 9.78561 13.6643 9.92246 13.6779 10.0582C13.6914 10.1939 13.7417 10.3234 13.8233 10.4327C14.0929 10.8045 14.2501 11.2553 14.2501 11.7501V17.7501C14.2487 17.8495 14.267 17.9481 14.3041 18.0404C14.3412 18.1326 14.3962 18.2165 14.466 18.2873C14.5357 18.3581 14.6189 18.4143 14.7106 18.4526C14.8023 18.491 14.9007 18.5108 15.0001 18.5108C15.0995 18.5108 15.1979 18.491 15.2896 18.4526C15.3813 18.4143 15.4644 18.3581 15.5342 18.2873C15.604 18.2165 15.659 18.1326 15.6961 18.0404C15.7331 17.9481 15.7515 17.8495 15.7501 17.7501V11.7501C15.7501 10.9329 15.4846 10.17 15.0372 9.55281C14.9649 9.44988 14.8679 9.36678 14.7551 9.31115C14.6423 9.25552 14.5173 9.22914 14.3917 9.23445ZM11.9884 10.9893C11.7896 10.9924 11.6002 11.0743 11.4618 11.2169C11.3234 11.3596 11.2472 11.5513 11.2501 11.7501V13.2501C11.2487 13.3495 11.267 13.4481 11.3041 13.5404C11.3412 13.6326 11.3962 13.7165 11.466 13.7873C11.5357 13.8581 11.6189 13.9143 11.7106 13.9526C11.8023 13.991 11.9007 14.0108 12.0001 14.0108C12.0995 14.0108 12.1979 13.991 12.2896 13.9526C12.3813 13.9143 12.4644 13.8581 12.5342 13.7873C12.604 13.7165 12.659 13.6326 12.6961 13.5404C12.7331 13.4481 12.7515 13.3495 12.7501 13.2501V11.7501C12.7515 11.6497 12.7328 11.55 12.695 11.457C12.6572 11.364 12.6012 11.2795 12.5301 11.2086C12.4591 11.1377 12.3745 11.0817 12.2815 11.044C12.1884 11.0064 12.0887 10.9878 11.9884 10.9893ZM2.73836 14.9893C2.53962 14.9924 2.35023 15.0743 2.21181 15.2169C2.07338 15.3596 1.99723 15.5513 2.00008 15.7501V19.2501C2.00008 20.76 3.24019 22.0001 4.75008 22.0001H8.25008C8.34946 22.0015 8.44813 21.9831 8.54036 21.9461C8.63259 21.909 8.71653 21.854 8.7873 21.7842C8.85808 21.7144 8.91428 21.6313 8.95264 21.5396C8.991 21.4479 9.01076 21.3495 9.01076 21.2501C9.01076 21.1507 8.991 21.0523 8.95264 20.9606C8.91428 20.8689 8.85808 20.7857 8.7873 20.716C8.71653 20.6462 8.63259 20.5912 8.54036 20.5541C8.44813 20.517 8.34946 20.4987 8.25008 20.5001H4.75008C4.05096 20.5001 3.50008 19.9492 3.50008 19.2501V15.7501C3.50152 15.6497 3.48279 15.55 3.44501 15.457C3.40723 15.364 3.35116 15.2795 3.28012 15.2086C3.20909 15.1377 3.12453 15.0817 3.03147 15.044C2.93841 15.0064 2.83874 14.9878 2.73836 14.9893ZM11.9884 14.9893C11.7896 14.9924 11.6002 15.0743 11.4618 15.2169C11.3234 15.3596 11.2472 15.5513 11.2501 15.7501V18.7501C11.2487 18.8495 11.267 18.9481 11.3041 19.0404C11.3412 19.1326 11.3962 19.2165 11.466 19.2873C11.5357 19.3581 11.6189 19.4143 11.7106 19.4526C11.8023 19.491 11.9007 19.5108 12.0001 19.5108C12.0995 19.5108 12.1979 19.491 12.2896 19.4526C12.3813 19.4143 12.4644 19.3581 12.5342 19.2873C12.604 19.2165 12.659 19.1326 12.6961 19.0404C12.7331 18.9481 12.7515 18.8495 12.7501 18.7501V15.7501C12.7515 15.6497 12.7328 15.55 12.695 15.457C12.6572 15.364 12.6012 15.2795 12.5301 15.2086C12.4591 15.1377 12.3745 15.0817 12.2815 15.044C12.1884 15.0064 12.0887 14.9878 11.9884 14.9893ZM21.2384 14.9893C21.0396 14.9924 20.8502 15.0743 20.7118 15.2169C20.5734 15.3596 20.4972 15.5513 20.5001 15.7501V19.2501C20.5001 19.9492 19.9492 20.5001 19.2501 20.5001H15.7501C15.6507 20.4987 15.552 20.517 15.4598 20.5541C15.3676 20.5912 15.2836 20.6462 15.2128 20.716C15.1421 20.7857 15.0859 20.8689 15.0475 20.9606C15.0091 21.0523 14.9894 21.1507 14.9894 21.2501C14.9894 21.3495 15.0091 21.4479 15.0475 21.5396C15.0859 21.6313 15.1421 21.7144 15.2128 21.7842C15.2836 21.854 15.3676 21.909 15.4598 21.9461C15.552 21.9831 15.6507 22.0015 15.7501 22.0001H19.2501C20.76 22.0001 22.0001 20.76 22.0001 19.2501V15.7501C22.0015 15.6497 21.9828 15.55 21.945 15.457C21.9072 15.364 21.8512 15.2795 21.7801 15.2086C21.7091 15.1377 21.6245 15.0817 21.5315 15.044C21.4384 15.0064 21.3387 14.9878 21.2384 14.9893Z" fill="black"/>
</svg>
