<svg width="24" height="24" viewBox="0 0 24 24" fill="none" xmlns="http://www.w3.org/2000/svg">
<path d="M11.9999 2C10.352 2 8.99994 3.35207 8.99994 5H5.87299C5.82848 4.99237 5.78337 4.98877 5.73822 4.98926C5.70187 4.99021 5.66565 4.9938 5.62982 5H3.74994C3.65056 4.99859 3.55188 5.01696 3.45966 5.05402C3.36743 5.09108 3.28349 5.1461 3.21271 5.21588C3.14194 5.28566 3.08573 5.36882 3.04737 5.46051C3.00901 5.5522 2.98926 5.65061 2.98926 5.75C2.98926 5.84939 3.00901 5.9478 3.04737 6.03949C3.08573 6.13118 3.14194 6.21434 3.21271 6.28412C3.28349 6.3539 3.36743 6.40892 3.45966 6.44598C3.55188 6.48304 3.65056 6.50141 3.74994 6.5H4.99994V19.25C4.99994 20.7599 6.24005 22 7.74994 22H16.2499C17.7598 22 18.9999 20.7599 18.9999 19.25V6.5H20.2499C20.3493 6.50141 20.448 6.48304 20.5402 6.44598C20.6324 6.40892 20.7164 6.3539 20.7872 6.28412C20.8579 6.21434 20.9141 6.13118 20.9525 6.03949C20.9909 5.9478 21.0106 5.84939 21.0106 5.75C21.0106 5.65061 20.9909 5.5522 20.9525 5.46051C20.9141 5.36882 20.8579 5.28566 20.7872 5.21588C20.7164 5.1461 20.6324 5.09108 20.5402 5.05402C20.448 5.01696 20.3493 4.99859 20.2499 5H18.373C18.2925 4.98677 18.2103 4.98677 18.1298 5H14.9999C14.9999 3.35207 13.6479 2 11.9999 2ZM11.9999 3.5C12.837 3.5 13.4999 4.16293 13.4999 5H10.4999C10.4999 4.16293 11.1629 3.5 11.9999 3.5ZM6.49994 6.5H17.4999V19.25C17.4999 19.9491 16.9491 20.5 16.2499 20.5H7.74994C7.05083 20.5 6.49994 19.9491 6.49994 19.25V6.5ZM11.9892 9C11.794 9.00285 11.6077 9.08168 11.4697 9.21973L8.96967 11.7197C8.89769 11.7888 8.84022 11.8716 8.80063 11.9632C8.76105 12.0548 8.74013 12.1534 8.73912 12.2532C8.73811 12.3529 8.75701 12.4519 8.79473 12.5443C8.83244 12.6367 8.88821 12.7206 8.95877 12.7912C9.02933 12.8617 9.11326 12.9175 9.20564 12.9552C9.29802 12.9929 9.397 13.0118 9.49678 13.0108C9.59656 13.0098 9.69514 12.9889 9.78673 12.9493C9.87833 12.9097 9.9611 12.8523 10.0302 12.7803L11.2499 11.5605V17.25C11.2485 17.3494 11.2669 17.4481 11.304 17.5403C11.341 17.6325 11.396 17.7164 11.4658 17.7872C11.5356 17.858 11.6188 17.9142 11.7104 17.9526C11.8021 17.9909 11.9005 18.0107 11.9999 18.0107C12.0993 18.0107 12.1977 17.9909 12.2894 17.9526C12.3811 17.9142 12.4643 17.858 12.5341 17.7872C12.6038 17.7164 12.6589 17.6325 12.6959 17.5403C12.733 17.4481 12.7513 17.3494 12.7499 17.25V11.5605L13.9697 12.7803C14.0388 12.8523 14.1216 12.9097 14.2131 12.9493C14.3047 12.9889 14.4033 13.0098 14.5031 13.0108C14.6029 13.0118 14.7019 12.9929 14.7942 12.9552C14.8866 12.9175 14.9705 12.8617 15.0411 12.7912C15.1117 12.7206 15.1674 12.6367 15.2051 12.5443C15.2429 12.4519 15.2618 12.3529 15.2608 12.2532C15.2597 12.1534 15.2388 12.0548 15.1992 11.9632C15.1597 11.8716 15.1022 11.7888 15.0302 11.7197L12.5302 9.21973C12.4593 9.14879 12.3749 9.0928 12.282 9.05505C12.189 9.01731 12.0895 8.99859 11.9892 9Z" fill="black"/>
</svg>
