<svg width="24" height="24" viewBox="0 0 24 24" fill="none" xmlns="http://www.w3.org/2000/svg">
<path d="M5.75 1.5C4.785 1.5 4 2.285 4 3.25V6.25C4 7.215 4.785 8 5.75 8H7V18.25C7 19.2075 7.79252 20 8.75 20H12.5V20.75C12.5 21.715 13.285 22.5 14.25 22.5H18.25C19.215 22.5 20 21.715 20 20.75V17.75C20 16.785 19.215 16 18.25 16H14.25C13.285 16 12.5 16.785 12.5 17.75V18.5H8.75C8.60248 18.5 8.5 18.3975 8.5 18.25V12H12.5V12.75C12.5 13.715 13.285 14.5 14.25 14.5H18.25C19.215 14.5 20 13.715 20 12.75V9.75C20 8.785 19.215 8 18.25 8H14.25C13.285 8 12.5 8.785 12.5 9.75V10.5H8.5V8H9.75C10.715 8 11.5 7.215 11.5 6.25V3.25C11.5 2.285 10.715 1.5 9.75 1.5H5.75Z" fill="black"/>
</svg>
