<svg width="24" height="24" viewBox="0 0 24 24" fill="none" xmlns="http://www.w3.org/2000/svg">
<path fill-rule="evenodd" clip-rule="evenodd" d="M3.89299 3.25H20.1154C20.5805 3.25523 21.0361 3.38217 21.4369 3.61812C21.8377 3.85407 22.1698 4.19084 22.4001 4.59494C22.6303 4.99905 22.7508 5.4564 22.7495 5.92151C22.7481 6.38661 22.6251 6.84327 22.3925 7.24605L22.3865 7.25642L14.2804 20.7904L14.2784 20.7936C14.0411 21.1854 13.7067 21.5094 13.3076 21.7342C12.9084 21.9591 12.4581 22.0772 12 22.0772C11.5419 22.0772 11.0915 21.9591 10.6924 21.7342C10.2933 21.5094 9.9589 21.1854 9.72153 20.7936L9.71956 20.7904L1.60741 7.24609C1.37483 6.84332 1.25183 6.38661 1.2505 5.92151C1.24917 5.4564 1.36963 4.99905 1.5999 4.59494C1.83018 4.19084 2.16224 3.85407 2.56305 3.61812C2.96387 3.38217 3.41948 3.25527 3.88456 3.25005L3.89299 3.25Z" fill="black"/>
</svg>
