<svg width="24" height="24" viewBox="0 0 24 24" fill="none" xmlns="http://www.w3.org/2000/svg">
<path fill-rule="evenodd" clip-rule="evenodd" d="M3.89299 20.75H20.1154C20.5805 20.7448 21.0361 20.6178 21.4369 20.3819C21.8377 20.1459 22.1698 19.8092 22.4001 19.4051C22.6303 19.001 22.7508 18.5436 22.7495 18.0785C22.7481 17.6134 22.6251 17.1567 22.3925 16.754L22.3865 16.7436L14.2804 3.20963L14.2784 3.20637C14.0411 2.81457 13.7067 2.4906 13.3076 2.26576C12.9084 2.04091 12.4581 1.92278 12 1.92278C11.5419 1.92278 11.0915 2.04091 10.6924 2.26576C10.2933 2.4906 9.9589 2.81457 9.72153 3.20637L9.71956 3.20963L1.60741 16.7539C1.37483 17.1567 1.25183 17.6134 1.2505 18.0785C1.24917 18.5436 1.36963 19.001 1.5999 19.4051C1.83018 19.8092 2.16224 20.1459 2.56305 20.3819C2.96387 20.6178 3.41948 20.7447 3.88456 20.75L3.89299 20.75ZM3.89772 19.25C3.69579 19.2471 3.49807 19.1917 3.324 19.0892C3.14886 18.9861 3.00378 18.839 2.90316 18.6624C2.80255 18.4858 2.74991 18.286 2.75049 18.0828C2.75107 17.8813 2.80393 17.6835 2.90386 17.5086L11.0044 3.98363C11.0047 3.98315 11.005 3.98268 11.0053 3.9822C11.109 3.81165 11.2548 3.67061 11.4287 3.57264C11.603 3.47439 11.7998 3.42278 12 3.42278C12.2001 3.42278 12.3969 3.47439 12.5713 3.57264C12.7452 3.67061 12.891 3.81165 12.9947 3.9822C12.995 3.98268 12.9952 3.98315 12.9955 3.98363L21.0961 17.5086C21.196 17.6834 21.2489 17.8813 21.2495 18.0828C21.2501 18.286 21.1974 18.4858 21.0968 18.6624C20.9962 18.839 20.8511 18.9861 20.676 19.0892C20.5019 19.1917 20.3042 19.2471 20.1022 19.25H3.89772Z" fill="black"/>
</svg>
