<svg width="24" height="24" viewBox="0 0 24 24" fill="none" xmlns="http://www.w3.org/2000/svg">
<path d="M8.73545 2.99317C8.54067 2.99885 8.35575 3.0801 8.21983 3.21973L3.21983 8.21973C3.07923 8.36039 3.00024 8.55113 3.00024 8.75001C3.00024 8.94888 3.07923 9.13962 3.21983 9.28028L8.21983 14.2803C8.28894 14.3523 8.37171 14.4097 8.46331 14.4493C8.5549 14.4889 8.65348 14.5098 8.75326 14.5108C8.85304 14.5118 8.95202 14.4929 9.0444 14.4552C9.13678 14.4175 9.22071 14.3617 9.29127 14.2912C9.36182 14.2206 9.41759 14.1367 9.45531 14.0443C9.49303 13.9519 9.51193 13.8529 9.51092 13.7532C9.5099 13.6534 9.48899 13.5548 9.4494 13.4632C9.40982 13.3716 9.35235 13.2888 9.28037 13.2197L5.56065 9.5H14.5001C17.2702 9.5 19.5001 11.7299 19.5001 14.5C19.5001 17.2701 17.2702 19.5 14.5001 19.5H10.7501C10.6507 19.4986 10.552 19.517 10.4598 19.554C10.3676 19.5911 10.2836 19.6461 10.2129 19.7159C10.1421 19.7857 10.0859 19.8688 10.0475 19.9605C10.0092 20.0522 9.98942 20.1506 9.98942 20.25C9.98942 20.3494 10.0092 20.4478 10.0475 20.5395C10.0859 20.6312 10.1421 20.7143 10.2129 20.7841C10.2836 20.8539 10.3676 20.9089 10.4598 20.946C10.552 20.983 10.6507 21.0014 10.7501 21H14.5001C18.081 21 21.0001 18.0809 21.0001 14.5C21.0001 10.9191 18.081 8.00001 14.5001 8.00001H5.56065L9.28037 4.28028C9.38857 4.1749 9.46244 4.03931 9.49231 3.89126C9.52218 3.74321 9.50665 3.58959 9.44777 3.4505C9.38888 3.31142 9.28938 3.19335 9.16229 3.11175C9.03519 3.03015 8.88642 2.98882 8.73545 2.99317Z" fill="black"/>
</svg>
