<svg width="24" height="24" viewBox="0 0 24 24" fill="none" xmlns="http://www.w3.org/2000/svg">
<path d="M4.75 1.5C3.5095 1.5 2.5 2.5095 2.5 3.75V19.25C2.5 20.4905 3.5095 21.5 4.75 21.5H11.3203C10.1958 20.331 9.5 18.7465 9.5 17H7.24512C6.83112 17 6.49512 16.664 6.49512 16.25C6.49512 15.8705 6.77755 15.5563 7.14355 15.5068L7.24512 15.5H9.68164C9.85364 14.777 10.1437 14.1075 10.5352 13.5H7.24512C6.83112 13.5 6.49512 13.1577 6.49512 12.7432C6.49512 12.3637 6.77755 12.0495 7.14355 12L7.24512 11.9932H11.8604C12.9859 11.0612 14.428 10.5 16 10.5C16.8855 10.5 17.73 10.68 18.5 11.002V9.5H12.75C11.5095 9.5 10.5 8.4905 10.5 7.25V1.5H4.75ZM12 1.93945V7.25C12 7.6635 12.3365 8 12.75 8H18.0605L12 1.93945Z" fill="black"/>
<path fill-rule="evenodd" clip-rule="evenodd" d="M21.5 17C21.5 20.0375 19.0375 22.5 16 22.5C12.9625 22.5 10.5 20.0375 10.5 17C10.5 13.9625 12.9625 11.5 16 11.5C19.0375 11.5 21.5 13.9625 21.5 17ZM15.9999 21C15.6999 21 15.4999 20.8 15.4999 20.5V15.2002L13.8495 16.8496C13.6495 17.0496 13.3503 17.0496 13.1503 16.8496C12.9503 16.6496 12.9503 16.3504 13.1503 16.1504L15.6503 13.6504C15.8503 13.4504 16.1495 13.4504 16.3495 13.6504L18.8495 16.1504C19.0495 16.3504 19.0495 16.6496 18.8495 16.8496C18.7495 16.9496 18.5999 17 18.4999 17C18.3999 17 18.2503 16.9496 18.1503 16.8496L16.4999 15.2002V20.5C16.4999 20.8 16.2999 21 15.9999 21Z" fill="black"/>
</svg>
