<svg width="24" height="24" viewBox="0 0 24 24" fill="none" xmlns="http://www.w3.org/2000/svg">
<path d="M11.9893 3C11.7941 3.00285 11.6077 3.08168 11.4697 3.21973L8.46973 6.21973C8.39775 6.28884 8.34028 6.37161 8.3007 6.46321C8.26111 6.5548 8.24019 6.65338 8.23918 6.75316C8.23817 6.85294 8.25707 6.95192 8.29479 7.0443C8.33251 7.13668 8.38828 7.22061 8.45883 7.29117C8.52939 7.36172 8.61332 7.41749 8.7057 7.45521C8.79808 7.49293 8.89706 7.51183 8.99684 7.51082C9.09662 7.5098 9.1952 7.48889 9.28679 7.4493C9.37839 7.40972 9.46116 7.35225 9.53027 7.28027L11.25 5.56055V16.25C11.2486 16.3494 11.267 16.4481 11.304 16.5403C11.3411 16.6325 11.3961 16.7164 11.4659 16.7872C11.5357 16.858 11.6188 16.9142 11.7105 16.9526C11.8022 16.9909 11.9006 17.0107 12 17.0107C12.0994 17.0107 12.1978 16.9909 12.2895 16.9526C12.3812 16.9142 12.4643 16.858 12.5341 16.7872C12.6039 16.7164 12.6589 16.6325 12.696 16.5403C12.733 16.4481 12.7514 16.3494 12.75 16.25V5.56055L14.4697 7.28027C14.5388 7.35225 14.6216 7.40972 14.7132 7.4493C14.8048 7.48889 14.9034 7.5098 15.0032 7.51082C15.1029 7.51183 15.2019 7.49293 15.2943 7.45521C15.3867 7.41749 15.4706 7.36172 15.5412 7.29117C15.6117 7.22061 15.6675 7.13668 15.7052 7.0443C15.7429 6.95192 15.7618 6.85294 15.7608 6.75316C15.7598 6.65338 15.7389 6.5548 15.6993 6.46321C15.6597 6.37161 15.6023 6.28884 15.5303 6.21973L12.5303 3.21973C12.4594 3.14879 12.375 3.0928 12.282 3.05505C12.1891 3.01731 12.0895 2.99859 11.9893 3ZM5.75 8.5C4.24011 8.5 3 9.74011 3 11.25V18.25C3 19.7599 4.24011 21 5.75 21H18.25C19.7599 21 21 19.7599 21 18.25V11.25C21 9.74011 19.7599 8.5 18.25 8.5H17.25C17.1506 8.49859 17.0519 8.51696 16.9597 8.55402C16.8675 8.59108 16.7836 8.6461 16.7128 8.71588C16.642 8.78566 16.5858 8.86882 16.5474 8.96051C16.5091 9.0522 16.4893 9.15061 16.4893 9.25C16.4893 9.34939 16.5091 9.4478 16.5474 9.53949C16.5858 9.63118 16.642 9.71434 16.7128 9.78412C16.7836 9.8539 16.8675 9.90892 16.9597 9.94598C17.0519 9.98304 17.1506 10.0014 17.25 10H18.25C18.9491 10 19.5 10.5509 19.5 11.25V18.25C19.5 18.9491 18.9491 19.5 18.25 19.5H5.75C5.05089 19.5 4.5 18.9491 4.5 18.25V11.25C4.5 10.5509 5.05089 10 5.75 10H6.75C6.84938 10.0014 6.94806 9.98304 7.04028 9.94598C7.13251 9.90892 7.21645 9.8539 7.28723 9.78412C7.358 9.71434 7.41421 9.63118 7.45257 9.53949C7.49093 9.4478 7.51068 9.34939 7.51068 9.25C7.51068 9.15061 7.49093 9.0522 7.45257 8.96051C7.41421 8.86882 7.358 8.78566 7.28723 8.71588C7.21645 8.6461 7.13251 8.59108 7.04028 8.55402C6.94806 8.51696 6.84938 8.49859 6.75 8.5H5.75Z" fill="black"/>
</svg>
