<svg width="24" height="24" viewBox="0 0 24 24" fill="none" xmlns="http://www.w3.org/2000/svg">
<path d="M2.5 3.75C2.5 2.5095 3.5095 1.5 4.75 1.5H10.5V7.25C10.5 8.4905 11.5095 9.5 12.75 9.5H18.5V11.002C17.73 10.68 16.8855 10.5 16 10.5C14.428 10.5 12.9859 11.0612 11.8604 11.9932H7.24512L7.14355 12C6.77755 12.0495 6.49512 12.3637 6.49512 12.7432C6.49512 13.1577 6.83112 13.5 7.24512 13.5H10.5352C10.1437 14.1075 9.85364 14.777 9.68164 15.5H7.24512L7.14355 15.5068C6.77755 15.5563 6.49512 15.8705 6.49512 16.25C6.49512 16.664 6.83112 17 7.24512 17H9.5C9.5 18.7465 10.1958 20.331 11.3203 21.5H4.75C3.5095 21.5 2.5 20.4905 2.5 19.25V3.75Z" fill="black"/>
<path d="M12 7.25V1.93945L18.0605 8H12.75C12.3365 8 12 7.6635 12 7.25Z" fill="black"/>
<path fill-rule="evenodd" clip-rule="evenodd" d="M16 22.5C12.9625 22.5 10.5 20.0375 10.5 17C10.5 13.9625 12.9625 11.5 16 11.5C19.0375 11.5 21.5 13.9625 21.5 17C21.5 20.0375 19.0375 22.5 16 22.5ZM12 16.9999C12 16.6999 12.2 16.4999 12.5 16.4999H17.7998L16.1504 14.8495C15.9504 14.6495 15.9504 14.3503 16.1504 14.1503C16.3504 13.9503 16.6496 13.9503 16.8496 14.1503L19.3496 16.6503C19.5496 16.8503 19.5496 17.1495 19.3496 17.3495L16.8496 19.8495C16.6496 20.0495 16.3504 20.0495 16.1504 19.8495C16.0504 19.7495 16 19.5999 16 19.4999C16 19.3999 16.0504 19.2503 16.1504 19.1503L17.7998 17.4999H12.5C12.2 17.4999 12 17.2999 12 16.9999Z" fill="black"/>
</svg>
