<svg width="24" height="24" viewBox="0 0 24 24" fill="none" xmlns="http://www.w3.org/2000/svg">
<path d="M11.9882 2.48926C11.7895 2.49236 11.6001 2.57423 11.4617 2.71686C11.3232 2.8595 11.2471 3.05125 11.2499 3.25V9.25H5.24994C5.15056 9.24859 5.05188 9.26696 4.95966 9.30402C4.86743 9.34108 4.78349 9.3961 4.71271 9.46588C4.64194 9.53566 4.58573 9.61882 4.54737 9.71051C4.50901 9.8022 4.48926 9.90061 4.48926 10C4.48926 10.0994 4.50901 10.1978 4.54737 10.2895C4.58573 10.3812 4.64194 10.4643 4.71271 10.5341C4.78349 10.6039 4.86743 10.6589 4.95966 10.696C5.05188 10.733 5.15056 10.7514 5.24994 10.75H11.2499V16.75C11.2485 16.8494 11.2669 16.9481 11.304 17.0403C11.341 17.1325 11.396 17.2164 11.4658 17.2872C11.5356 17.358 11.6188 17.4142 11.7104 17.4526C11.8021 17.4909 11.9005 17.5107 11.9999 17.5107C12.0993 17.5107 12.1977 17.4909 12.2894 17.4526C12.3811 17.4142 12.4643 17.358 12.5341 17.2872C12.6038 17.2164 12.6589 17.1325 12.6959 17.0403C12.733 16.9481 12.7513 16.8494 12.7499 16.75V10.75H18.7499C18.8493 10.7514 18.948 10.733 19.0402 10.696C19.1324 10.6589 19.2164 10.6039 19.2872 10.5341C19.3579 10.4643 19.4141 10.3812 19.4525 10.2895C19.4909 10.1978 19.5106 10.0994 19.5106 10C19.5106 9.90061 19.4909 9.8022 19.4525 9.71051C19.4141 9.61882 19.3579 9.53566 19.2872 9.46588C19.2164 9.3961 19.1324 9.34108 19.0402 9.30402C18.948 9.26696 18.8493 9.24859 18.7499 9.25H12.7499V3.25C12.7514 3.14962 12.7327 3.04997 12.6949 2.95695C12.6571 2.86394 12.601 2.77946 12.53 2.70852C12.4589 2.63758 12.3744 2.58161 12.2813 2.54395C12.1883 2.50629 12.0886 2.48769 11.9882 2.48926ZM5.24994 20C5.15056 19.9986 5.05188 20.017 4.95966 20.054C4.86743 20.0911 4.78349 20.1461 4.71271 20.2159C4.64194 20.2857 4.58573 20.3688 4.54737 20.4605C4.50901 20.5522 4.48926 20.6506 4.48926 20.75C4.48926 20.8494 4.50901 20.9478 4.54737 21.0395C4.58573 21.1312 4.64194 21.2143 4.71271 21.2841C4.78349 21.3539 4.86743 21.4089 4.95966 21.446C5.05188 21.483 5.15056 21.5014 5.24994 21.5H18.7499C18.8493 21.5014 18.948 21.483 19.0402 21.446C19.1324 21.4089 19.2164 21.3539 19.2872 21.2841C19.3579 21.2143 19.4141 21.1312 19.4525 21.0395C19.4909 20.9478 19.5106 20.8494 19.5106 20.75C19.5106 20.6506 19.4909 20.5522 19.4525 20.4605C19.4141 20.3688 19.3579 20.2857 19.2872 20.2159C19.2164 20.1461 19.1324 20.0911 19.0402 20.054C18.948 20.017 18.8493 19.9986 18.7499 20H5.24994Z" fill="black"/>
</svg>
