<svg width="24" height="24" viewBox="0 0 24 24" fill="none" xmlns="http://www.w3.org/2000/svg">
<path fill-rule="evenodd" clip-rule="evenodd" d="M4.64124 3.64124C5.53204 2.75044 6.74022 2.25 8 2.25C9.25978 2.25 10.468 2.75044 11.3588 3.64124C12.2496 4.53204 12.75 5.74022 12.75 7C12.75 8.25978 12.2496 9.46796 11.3588 10.3588C10.468 11.2496 9.25978 11.75 8 11.75C6.74022 11.75 5.53204 11.2496 4.64124 10.3588C3.75044 9.46796 3.25 8.25978 3.25 7C3.25 5.74022 3.75044 4.53204 4.64124 3.64124ZM8 3.75C7.13805 3.75 6.3114 4.09241 5.7019 4.7019C5.09241 5.3114 4.75 6.13805 4.75 7C4.75 7.86195 5.09241 8.6886 5.7019 9.2981C6.3114 9.90759 7.13805 10.25 8 10.25C8.86195 10.25 9.6886 9.90759 10.2981 9.2981C10.9076 8.6886 11.25 7.86195 11.25 7C11.25 6.13805 10.9076 5.3114 10.2981 4.7019C9.6886 4.09241 8.86195 3.75 8 3.75Z" fill="black"/>
<path d="M6 14.75C5.13805 14.75 4.3114 15.0924 3.7019 15.7019C3.09241 16.3114 2.75 17.138 2.75 18V20C2.75 20.4142 2.41421 20.75 2 20.75C1.58579 20.75 1.25 20.4142 1.25 20V18C1.25 16.7402 1.75044 15.532 2.64124 14.6412C3.53204 13.7504 4.74022 13.25 6 13.25H9C9.41421 13.25 9.75 13.5858 9.75 14C9.75 14.4142 9.41421 14.75 9 14.75H6Z" fill="black"/>
<path d="M17 12.75C17.4142 12.75 17.75 13.0858 17.75 13.5V14.25H18.5C18.9142 14.25 19.25 14.5858 19.25 15C19.25 15.4142 18.9142 15.75 18.5 15.75H17.75V16.5C17.75 16.9142 17.4142 17.25 17 17.25C16.5858 17.25 16.25 16.9142 16.25 16.5V15.75H15.5C15.0858 15.75 14.75 15.4142 14.75 15C14.75 14.5858 15.0858 14.25 15.5 14.25H16.25V13.5C16.25 13.0858 16.5858 12.75 17 12.75Z" fill="black"/>
<path fill-rule="evenodd" clip-rule="evenodd" d="M14 10.25C12.4812 10.25 11.25 11.4812 11.25 13V17C11.25 18.5188 12.4812 19.75 14 19.75H14.25V21C14.25 21.2599 14.3846 21.5013 14.6057 21.638C14.8268 21.7746 15.1029 21.7871 15.3354 21.6708L19.1771 19.75H20C21.5188 19.75 22.75 18.5188 22.75 17V13C22.75 11.4812 21.5188 10.25 20 10.25H14ZM12.75 13C12.75 12.3096 13.3096 11.75 14 11.75H20C20.6904 11.75 21.25 12.3096 21.25 13V17C21.25 17.6904 20.6904 18.25 20 18.25H19C18.8836 18.25 18.7687 18.2771 18.6646 18.3292L15.75 19.7865V19C15.75 18.5858 15.4142 18.25 15 18.25H14C13.3096 18.25 12.75 17.6904 12.75 17V13Z" fill="black"/>
</svg>
