<svg width="24" height="24" viewBox="0 0 24 24" fill="none" xmlns="http://www.w3.org/2000/svg">
<path d="M10 2C7.243 2 5 4.243 5 7C5 9.757 7.243 12 10 12C12.757 12 15 9.757 15 7C15 4.243 12.757 2 10 2ZM17 9C15.3455 9 14 10.3455 14 12C14 13.6545 15.3455 15 17 15C18.6545 15 20 13.6545 20 12C20 10.3455 18.6545 9 17 9ZM4.25 14C3.0095 14 2 15.0095 2 16.25V16.8496C2 19.7376 5.514 22 10 22C10.9375 22 11.8287 21.8964 12.6582 21.7139C11.6227 20.9434 11 19.8809 11 18.6709V18.25C11 16.458 12.458 15 14.25 15H14.3633C14.0383 14.714 13.76 14.3765 13.541 14H4.25ZM14.25 16C13.0095 16 12 17.0095 12 18.25V18.6709C12 20.5689 14.1495 22 17 22C19.8505 22 22 20.5689 22 18.6709V18.25C22 17.0095 20.9905 16 19.75 16H14.25Z" fill="black"/>
</svg>
