<svg width="24" height="24" viewBox="0 0 24 24" fill="none" xmlns="http://www.w3.org/2000/svg">
<path fill-rule="evenodd" clip-rule="evenodd" d="M21.25 4H20.5V3.25C20.5 2.8355 20.164 2.5 19.75 2.5H15C13.7725 2.5 12.6845 3.0955 12 4.0095C11.3155 3.0955 10.2275 2.5 9 2.5H4.25C3.836 2.5 3.5 2.8355 3.5 3.25V4H2.75C2.336 4 2 4.336 2 4.75V20.25C2 20.664 2.336 21 2.75 21H21.25C21.664 21 22 20.664 22 20.25V4.75C22 4.336 21.664 4 21.25 4ZM5 4H9C10.2405 4 11.25 5.0095 11.25 6.25V17.25C11.25 17.6645 11.586 18 12 18C12.414 18 12.75 17.6645 12.75 17.25V6.25C12.75 5.0095 13.7595 4 15 4H19V18H15C13.787 18 12.692 18.588 12 19.516C11.308 18.588 10.213 18 9 18H5V4ZM15.75 10C16.1642 10 16.5 10.3358 16.5 10.75V14.75C16.5 15.1642 16.1642 15.5 15.75 15.5C15.3358 15.5 15 15.1642 15 14.75V10.75C15 10.3358 15.3358 10 15.75 10ZM16.75 8C16.75 8.55228 16.3023 9 15.75 9C15.1977 9 14.75 8.55228 14.75 8C14.75 7.44772 15.1977 7 15.75 7C16.3023 7 16.75 7.44772 16.75 8Z" fill="black"/>
</svg>
