<svg width="24" height="24" viewBox="0 0 24 24" fill="none" xmlns="http://www.w3.org/2000/svg">
<path d="M6.5 3C5.5625 3 4.76441 3.37857 4.25195 3.95508C3.7395 4.53159 3.5 5.27083 3.5 6C3.5 6.72917 3.7395 7.46841 4.25195 8.04492C4.76441 8.62143 5.5625 9 6.5 9C7.4375 9 8.23559 8.62143 8.74805 8.04492C9.2605 7.46841 9.5 6.72917 9.5 6C9.5 5.27083 9.2605 4.53159 8.74805 3.95508C8.23559 3.37857 7.4375 3 6.5 3ZM17.5 3C16.5625 3 15.7644 3.37857 15.252 3.95508C14.7395 4.53159 14.5 5.27083 14.5 6C14.5 6.72917 14.7395 7.46841 15.252 8.04492C15.7644 8.62143 16.5625 9 17.5 9C18.4375 9 19.2356 8.62143 19.748 8.04492C20.2605 7.46841 20.5 6.72917 20.5 6C20.5 5.27083 20.2605 4.53159 19.748 3.95508C19.2356 3.37857 18.4375 3 17.5 3ZM6.5 4.5C7.0625 4.5 7.38941 4.68393 7.62695 4.95117C7.8645 5.21841 8 5.60417 8 6C8 6.39583 7.8645 6.78159 7.62695 7.04883C7.38941 7.31607 7.0625 7.5 6.5 7.5C5.9375 7.5 5.61059 7.31607 5.37305 7.04883C5.1355 6.78159 5 6.39583 5 6C5 5.60417 5.1355 5.21841 5.37305 4.95117C5.61059 4.68393 5.9375 4.5 6.5 4.5ZM17.5 4.5C18.0625 4.5 18.3894 4.68393 18.627 4.95117C18.8645 5.21841 19 5.60417 19 6C19 6.39583 18.8645 6.78159 18.627 7.04883C18.3894 7.31607 18.0625 7.5 17.5 7.5C16.9375 7.5 16.6106 7.31607 16.373 7.04883C16.1355 6.78159 16 6.39583 16 6C16 5.60417 16.1355 5.21841 16.373 4.95117C16.6106 4.68393 16.9375 4.5 17.5 4.5ZM12 8C11.0625 8 10.2644 8.37857 9.75195 8.95508C9.2395 9.53159 9 10.2708 9 11C9 11.7292 9.2395 12.4684 9.75195 13.0449C10.2644 13.6214 11.0625 14 12 14C12.9375 14 13.7356 13.6214 14.248 13.0449C14.7605 12.4684 15 11.7292 15 11C15 10.2708 14.7605 9.53159 14.248 8.95508C13.7356 8.37857 12.9375 8 12 8ZM12 9.5C12.5625 9.5 12.8894 9.68393 13.127 9.95117C13.3645 10.2184 13.5 10.6042 13.5 11C13.5 11.3958 13.3645 11.7816 13.127 12.0488C12.8894 12.3161 12.5625 12.5 12 12.5C11.4375 12.5 11.1106 12.3161 10.873 12.0488C10.6355 11.7816 10.5 11.3958 10.5 11C10.5 10.6042 10.6355 10.2184 10.873 9.95117C11.1106 9.68393 11.4375 9.5 12 9.5ZM3.75 10C2.785 10 2 10.785 2 11.75V13C2 14.68 3.975 16 6.5 16H6.60547C6.83047 15.195 7.41969 14.5398 8.17969 14.2148C7.70469 14.3898 7.13 14.5 6.5 14.5C4.785 14.5 3.5 13.71 3.5 13V11.75C3.5 11.61 3.61 11.5 3.75 11.5H8.03027C8.01027 11.335 8 11.17 8 11C8 10.655 8.045 10.32 8.125 10H3.75ZM15.875 10C15.955 10.32 16 10.655 16 11C16 11.17 15.9897 11.335 15.9697 11.5H20.25C20.39 11.5 20.5 11.61 20.5 11.75V13C20.5 13.71 19.215 14.5 17.5 14.5C16.87 14.5 16.2953 14.3898 15.8203 14.2148C16.5803 14.5398 17.1695 15.195 17.3945 16H17.5C20.025 16 22 14.68 22 13V11.75C22 10.785 21.215 10 20.25 10H15.875ZM9.25 15C8.29252 15 7.5 15.7925 7.5 16.75V18C7.5 18.9591 8.13996 19.7406 8.96289 20.2344C9.78582 20.7281 10.8429 21 12 21C13.1571 21 14.2142 20.7281 15.0371 20.2344C15.86 19.7406 16.5 18.9591 16.5 18V16.75C16.5 15.7925 15.7075 15 14.75 15H9.25ZM9.25 16.5H14.75C14.8975 16.5 15 16.6025 15 16.75V18C15 18.2834 14.7999 18.6276 14.2656 18.9482C13.7313 19.2688 12.9139 19.5 12 19.5C11.0861 19.5 10.2687 19.2688 9.73438 18.9482C9.20006 18.6276 9 18.2834 9 18V16.75C9 16.6025 9.10248 16.5 9.25 16.5Z" fill="black"/>
</svg>
