<svg width="24" height="24" viewBox="0 0 24 24" fill="none" xmlns="http://www.w3.org/2000/svg">
<path fill-rule="evenodd" clip-rule="evenodd" d="M3.64124 4.14124C4.53204 3.25044 5.74022 2.75 7 2.75C8.25978 2.75 9.46796 3.25044 10.3588 4.14124C11.2496 5.03204 11.75 6.24022 11.75 7.5C11.75 8.75978 11.2496 9.96796 10.3588 10.8588C9.46796 11.7496 8.25978 12.25 7 12.25C5.74022 12.25 4.53204 11.7496 3.64124 10.8588C2.75044 9.96796 2.25 8.75978 2.25 7.5C2.25 6.24022 2.75044 5.03204 3.64124 4.14124Z" fill="black"/>
<path fill-rule="evenodd" clip-rule="evenodd" d="M11.25 12.5C11.25 10.9812 12.4812 9.75 14 9.75H20C21.5188 9.75 22.75 10.9812 22.75 12.5V16.5C22.75 18.0188 21.5188 19.25 20 19.25H19.1771L15.3354 21.1708C15.1029 21.2871 14.8268 21.2746 14.6057 21.138C14.3846 21.0013 14.25 20.7599 14.25 20.5V19.25H14C12.4812 19.25 11.25 18.0188 11.25 16.5V12.5ZM17.75 13C17.75 12.5858 17.4142 12.25 17 12.25C16.5858 12.25 16.25 12.5858 16.25 13V13.75H15.5C15.0858 13.75 14.75 14.0858 14.75 14.5C14.75 14.9142 15.0858 15.25 15.5 15.25H16.25V16C16.25 16.4142 16.5858 16.75 17 16.75C17.4142 16.75 17.75 16.4142 17.75 16V15.25H18.5C18.9142 15.25 19.25 14.9142 19.25 14.5C19.25 14.0858 18.9142 13.75 18.5 13.75H17.75V13Z" fill="black"/>
<path d="M9.25 13.75C9.52614 13.75 9.75 13.9739 9.75 14.25V16.5C9.75 18.3295 10.9059 19.8889 12.5273 20.4879C12.6596 20.5368 12.7513 20.6609 12.7701 20.8006C12.8004 21.0256 12.6405 21.25 12.4135 21.25H2C1.58579 21.25 1.25 20.9142 1.25 20.5V18.5C1.25 17.2402 1.75044 16.032 2.64124 15.1412C3.53204 14.2504 4.74022 13.75 6 13.75H9.25Z" fill="black"/>
</svg>
