<svg width="24" height="24" viewBox="0 0 24 24" fill="none" xmlns="http://www.w3.org/2000/svg">
<path d="M10.95 13.0461L9.35765 11.4538C9.20893 11.3051 9.0349 11.2291 8.83555 11.2259C8.6362 11.2227 8.45896 11.2987 8.30382 11.4538C8.14871 11.6089 8.07115 11.7871 8.07115 11.9884C8.07115 12.1897 8.14871 12.3679 8.30382 12.523L10.3173 14.5519C10.4981 14.7326 10.709 14.823 10.95 14.823C11.191 14.823 11.4019 14.7326 11.5827 14.5519L15.7269 10.4076C15.8756 10.2589 15.9516 10.0823 15.9548 9.87785C15.958 9.67337 15.882 9.49356 15.7269 9.33843C15.5718 9.18331 15.3936 9.10575 15.1923 9.10575C14.991 9.10575 14.8128 9.18331 14.6577 9.33843L10.95 13.0461ZM12 21.3519C11.8961 21.3519 11.7942 21.3435 11.6942 21.3269C11.5942 21.3102 11.4974 21.2852 11.4038 21.2519C9.29486 20.5019 7.61698 19.172 6.3702 17.2624C5.1234 15.3528 4.5 13.2923 4.5 11.0807V6.5769C4.5 6.1987 4.60962 5.85736 4.82885 5.55288C5.04808 5.24838 5.33013 5.02754 5.675 4.89038L11.3673 2.76538C11.5814 2.68846 11.7923 2.65 12 2.65C12.2077 2.65 12.4186 2.68846 12.6327 2.76538L18.325 4.89038C18.6698 5.02754 18.9519 5.24838 19.1711 5.55288C19.3903 5.85736 19.5 6.1987 19.5 6.5769V11.0807C19.5 13.2923 18.8765 15.3528 17.6297 17.2624C16.383 19.172 14.7051 20.5019 12.5961 21.2519C12.5025 21.2852 12.4057 21.3102 12.3057 21.3269C12.2057 21.3435 12.1038 21.3519 12 21.3519Z" fill="black"/>
</svg>
