<svg width="24" height="24" viewBox="0 0 24 24" fill="none" xmlns="http://www.w3.org/2000/svg">
<path d="M12 2C6.48615 2 2 6.48615 2 12C2 17.5139 6.48615 22 12 22C17.5139 22 22 17.5139 22 12C22 6.48615 17.5139 2 12 2ZM12 3.5C16.7031 3.5 20.5 7.29685 20.5 12C20.5 16.7031 16.7031 20.5 12 20.5C7.29685 20.5 3.5 16.7031 3.5 12C3.5 7.29685 7.29685 3.5 12 3.5ZM9.75 8C8.79252 8 8 8.79252 8 9.75V14.25C8 15.2075 8.79252 16 9.75 16H14.25C15.2075 16 16 15.2075 16 14.25V9.75C16 8.79252 15.2075 8 14.25 8H9.75ZM9.75 9.5H14.25C14.3975 9.5 14.5 9.60248 14.5 9.75V14.25C14.5 14.3975 14.3975 14.5 14.25 14.5H9.75C9.60248 14.5 9.5 14.3975 9.5 14.25V9.75C9.5 9.60248 9.60248 9.5 9.75 9.5Z" fill="black"/>
</svg>
