<svg width="24" height="24" viewBox="0 0 24 24" fill="none" xmlns="http://www.w3.org/2000/svg">
<path d="M4 20.1366V3.86335C4 3.28364 4.18634 2.82816 4.55901 2.49689C4.93168 2.16563 5.36646 2 5.86335 2C6.02899 2 6.19462 2.0207 6.36025 2.06211C6.52588 2.10352 6.69151 2.16563 6.85714 2.24845L19.6522 10.4472C19.942 10.6542 20.1594 10.882 20.3043 11.1304C20.4493 11.3789 20.5217 11.6687 20.5217 12C20.5217 12.3313 20.4493 12.6211 20.3043 12.8696C20.1594 13.118 19.942 13.3458 19.6522 13.5528L6.85714 21.7516C6.69151 21.8344 6.52588 21.8965 6.36025 21.9379C6.19462 21.9793 6.02899 22 5.86335 22C5.36646 22 4.93168 21.8344 4.55901 21.5031C4.18634 21.1718 4 20.7164 4 20.1366Z" fill="black"/>
</svg>
