<svg width="24" height="24" viewBox="0 0 24 24" fill="none" xmlns="http://www.w3.org/2000/svg">
<path fill-rule="evenodd" clip-rule="evenodd" d="M3 6.25C3 5.55971 3.55971 5 4.25 5H19.75C20.4403 5 21 5.55971 21 6.25V17.75C21 18.4403 20.4403 19 19.75 19H4.25C3.55971 19 3 18.4403 3 17.75V6.25ZM4.25 3.5C2.73129 3.5 1.5 4.73129 1.5 6.25V17.75C1.5 19.2687 2.73129 20.5 4.25 20.5H19.75C21.2687 20.5 22.5 19.2687 22.5 17.75V6.25C22.5 4.73129 21.2687 3.5 19.75 3.5H4.25ZM9.99292 15.3621C10.1489 15.4541 10.3244 15.5001 10.4999 15.5001C10.6669 15.5001 10.8344 15.4581 10.9854 15.3746L15.4854 12.8746C15.8029 12.6981 15.9999 12.3636 15.9999 12.0001C15.9999 11.6366 15.8029 11.3021 15.4854 11.1256L10.9854 8.62557C10.6759 8.45357 10.2979 8.45857 9.99292 8.63807C9.68742 8.81807 9.49992 9.14607 9.49992 9.50007V14.5001C9.49992 14.8541 9.68742 15.1821 9.99292 15.3621Z" fill="black"/>
</svg>
