<svg width="24" height="24" viewBox="0 0 24 24" fill="none" xmlns="http://www.w3.org/2000/svg">
<path d="M12 2C6.477 2 2 6.477 2 12C2 17.523 6.477 22 12 22C17.523 22 22 17.523 22 12C22 6.477 17.523 2 12 2ZM9.78906 8.07715C9.90856 8.07715 10.0286 8.10556 10.1396 8.16406L16.166 11.3369C16.4135 11.4669 16.5669 11.7215 16.5664 12.001C16.5664 12.2805 16.4135 12.5341 16.166 12.6641L10.1396 15.8359C10.0291 15.8939 9.90856 15.9229 9.78906 15.9229C9.65506 15.9229 9.52184 15.8865 9.40234 15.8145C9.17534 15.6775 9.04004 15.4369 9.04004 15.1719V8.82812C9.04004 8.56313 9.17534 8.32255 9.40234 8.18555C9.52184 8.11305 9.65556 8.07715 9.78906 8.07715Z" fill="black"/>
</svg>
