<svg width="24" height="24" viewBox="0 0 24 24" fill="none" xmlns="http://www.w3.org/2000/svg">
<path d="M21.2353 1.99323C21.0406 1.99891 20.8556 2.08016 20.7197 2.21979L2.21972 20.7198C2.14774 20.7889 2.09028 20.8717 2.05069 20.9633C2.0111 21.0549 1.99019 21.1534 1.98917 21.2532C1.98816 21.353 2.00706 21.452 2.04478 21.5444C2.0825 21.6367 2.13827 21.7207 2.20883 21.7912C2.27939 21.8618 2.36331 21.9176 2.4557 21.9553C2.54808 21.993 2.64706 22.0119 2.74684 22.0109C2.84662 22.0099 2.94519 21.989 3.03679 21.9494C3.12838 21.9098 3.21116 21.8523 3.28027 21.7803L5.56054 19.5001H12.75C14.545 19.5001 16 18.0451 16 16.2501V9.06061L21.7803 3.28034C21.8885 3.17496 21.9623 3.03938 21.9922 2.89132C22.0221 2.74327 22.0065 2.58965 21.9477 2.45056C21.8888 2.31148 21.7893 2.19341 21.6622 2.11181C21.5351 2.03021 21.3863 1.98888 21.2353 1.99323ZM5.24999 4.50007C3.45499 4.50007 1.99999 5.95507 1.99999 7.75007V16.2501C1.99999 16.9801 2.24341 17.6509 2.64941 18.1934L15.2119 5.6319C14.6159 4.9404 13.735 4.50007 12.75 4.50007H5.24999ZM21.2402 6.50007C21.1097 6.50169 20.9803 6.53799 20.8643 6.60749L17 8.92585V15.0743L20.8643 17.3926C20.9828 17.4641 21.116 17.5001 21.25 17.5001C21.3775 17.5001 21.5046 17.4674 21.6191 17.4024C21.8541 17.2694 22 17.0206 22 16.7501V7.25007C22 6.97957 21.8541 6.73072 21.6191 6.59772C21.5016 6.53122 21.3707 6.49844 21.2402 6.50007Z" fill="black"/>
</svg>
