<svg width="24" height="24" viewBox="0 0 24 24" fill="none" xmlns="http://www.w3.org/2000/svg">
<path d="M21.2355 1.99323C21.0407 1.99891 20.8558 2.08016 20.7198 2.21979L2.21984 20.7198C2.14786 20.7889 2.0904 20.8717 2.05081 20.9633C2.01122 21.0549 1.99031 21.1534 1.9893 21.2532C1.98828 21.353 2.00719 21.452 2.0449 21.5444C2.08262 21.6367 2.13839 21.7207 2.20895 21.7912C2.27951 21.8618 2.36344 21.9176 2.45582 21.9553C2.5482 21.993 2.64718 22.0119 2.74696 22.0109C2.84674 22.0099 2.94531 21.989 3.03691 21.9494C3.1285 21.9098 3.21128 21.8523 3.28039 21.7803L5.56066 19.5001H13.7501C15.5361 19.5001 17.0001 18.036 17.0001 16.2501V15.5753L20.8644 17.8936C20.9782 17.9619 21.1081 17.9987 21.2408 18.0003C21.3736 18.0019 21.5043 17.9683 21.6198 17.9029C21.7353 17.8374 21.8314 17.7425 21.8982 17.6278C21.965 17.5132 22.0002 17.3828 22.0001 17.2501V6.75007C22.0002 6.64966 21.98 6.55027 21.9409 6.45778C21.9018 6.3653 21.8446 6.2816 21.7725 6.21166C21.7005 6.14172 21.6152 6.08695 21.5216 6.0506C21.428 6.01425 21.328 5.99707 21.2277 6.00007C21.0995 6.00391 20.9744 6.04055 20.8644 6.10651L17.0001 8.42487V8.06061L21.7804 3.28034C21.8886 3.17496 21.9625 3.03938 21.9923 2.89132C22.0222 2.74327 22.0067 2.58965 21.9478 2.45056C21.8889 2.31148 21.7894 2.19341 21.6623 2.11181C21.5352 2.03021 21.3864 1.98888 21.2355 1.99323ZM5.25012 4.50007C3.45812 4.50007 2.00012 5.95807 2.00012 7.75007V16.2501C2.00012 16.9671 2.23695 17.6291 2.63195 18.1671L3.71887 17.0792C3.58337 16.8312 3.50012 16.5516 3.50012 16.2501V7.75007C3.50012 6.78507 4.28512 6.00007 5.25012 6.00007H13.7501C14.0516 6.00007 14.3312 6.08332 14.5792 6.21882L15.6671 5.1319C15.1291 4.7369 14.4671 4.50007 13.7501 4.50007H5.25012ZM20.5001 8.07526V15.9249L17.0001 13.8253V10.1749L20.5001 8.07526ZM15.5001 9.56061V9.72663V14.2413V16.2501C15.5001 17.2251 14.7251 18.0001 13.7501 18.0001H7.06066L15.5001 9.56061Z" fill="black"/>
</svg>
