<svg width="24" height="24" viewBox="0 0 24 24" fill="none" xmlns="http://www.w3.org/2000/svg">
<path d="M12 2C6.48615 2 2 6.48615 2 12C2 17.5139 6.48615 22 12 22C17.5139 22 22 17.5139 22 12C22 6.48615 17.5139 2 12 2ZM12 3.5C16.7031 3.5 20.5 7.29685 20.5 12C20.5 16.7031 16.7031 20.5 12 20.5C7.29685 20.5 3.5 16.7031 3.5 12C3.5 7.29685 7.29685 3.5 12 3.5Z" fill="black"/>
<path d="M10.0996 8.16406C9.98861 8.10556 9.86852 8.07715 9.74902 8.07715C9.61552 8.07715 9.4818 8.11305 9.3623 8.18555C9.1353 8.32255 9 8.56313 9 8.82812V15.1719C9 15.4369 9.1353 15.6775 9.3623 15.8145C9.4818 15.8865 9.61502 15.9229 9.74902 15.9229C9.86852 15.9229 9.98911 15.8939 10.0996 15.8359L16.126 12.6641C16.3735 12.5341 16.5264 12.2805 16.5264 12.001C16.5269 11.7215 16.3735 11.4669 16.126 11.3369L10.0996 8.16406Z" fill="black"/>
</svg>
