<svg width="24" height="24" viewBox="0 0 24 24" fill="none" xmlns="http://www.w3.org/2000/svg">
<path d="M6.25 2C5.0095 2 4 3.0095 4 4.25V19.75C4 20.9905 5.0095 22 6.25 22H16.5V21.9746C15.3045 21.8556 14.2335 21.3125 13.4355 20.5H6.25C5.8365 20.5 5.5 20.1635 5.5 19.75V4.25C5.5 3.8365 5.8365 3.5 6.25 3.5H12V7.75C12 8.9905 13.0095 10 14.25 10H18.5V12.2305C19.0475 12.403 19.5515 12.6718 20 13.0098V9.25C20 9.04275 19.916 8.85541 19.7803 8.71973L13.2803 2.21973C13.1445 2.08404 12.957 2 12.75 2H6.25ZM13.5 4.56055L17.4395 8.5H14.25C13.8365 8.5 13.5 8.1635 13.5 7.75V4.56055ZM17 13C14.7945 13 13 14.7945 13 17C13 19.2055 14.7945 21 17 21C17.8325 21 18.6051 20.7436 19.2461 20.3066L21.7197 22.7803C21.8662 22.9273 22.058 23 22.25 23C22.442 23 22.6338 22.9268 22.7803 22.7803C23.0728 22.4873 23.0728 22.0127 22.7803 21.7197L20.3076 19.2461C20.7441 18.6051 21 17.8325 21 17C21 14.7945 19.2055 13 17 13ZM17 14.5C18.3785 14.5 19.5 15.6215 19.5 17C19.5 18.3785 18.3785 19.5 17 19.5C15.6215 19.5 14.5 18.3785 14.5 17C14.5 15.6215 15.6215 14.5 17 14.5Z" fill="black"/>
</svg>
