<svg width="24" height="24" viewBox="0 0 24 24" fill="none" xmlns="http://www.w3.org/2000/svg">
<path d="M18.25 4.49989H15.04L12.5045 2.19489C12.217 1.93339 11.778 1.93439 11.4925 2.19789L8.989 4.49989H5.75C4.2335 4.49989 3 5.73339 3 7.24989V18.2499C3 19.7664 4.2335 20.9999 5.75 20.9999H18.25C19.7665 20.9999 21 19.7664 21 18.2499V7.24989C21 5.73339 19.7665 4.49989 18.25 4.49989ZM7.25 16.4999C6.836 16.4999 6.5 16.1639 6.5 15.7499C6.5 15.3359 6.836 14.9999 7.25 14.9999C7.664 14.9999 8 15.3359 8 15.7499C8 16.1639 7.664 16.4999 7.25 16.4999ZM7.25 13.4999C6.836 13.4999 6.5 13.1639 6.5 12.7499C6.5 12.3359 6.836 11.9999 7.25 11.9999C7.664 11.9999 8 12.3359 8 12.7499C8 13.1639 7.664 13.4999 7.25 13.4999ZM7.25 10.4999C6.836 10.4999 6.5 10.1639 6.5 9.74989C6.5 9.33589 6.836 8.99989 7.25 8.99989C7.664 8.99989 8 9.33589 8 9.74989C8 10.1639 7.664 10.4999 7.25 10.4999ZM16.75 16.4999H10.25C9.8355 16.4999 9.5 16.1644 9.5 15.7499C9.5 15.3354 9.8355 14.9999 10.25 14.9999H16.75C17.1645 14.9999 17.5 15.3354 17.5 15.7499C17.5 16.1644 17.1645 16.4999 16.75 16.4999ZM16.75 13.4999H10.25C9.8355 13.4999 9.5 13.1644 9.5 12.7499C9.5 12.3354 9.8355 11.9999 10.25 11.9999H16.75C17.1645 11.9999 17.5 12.3354 17.5 12.7499C17.5 13.1644 17.1645 13.4999 16.75 13.4999ZM16.75 10.4999H10.25C9.8355 10.4999 9.5 10.1644 9.5 9.74989C9.5 9.33539 9.8355 8.99989 10.25 8.99989H16.75C17.1645 8.99989 17.5 9.33539 17.5 9.74989C17.5 10.1644 17.1645 10.4999 16.75 10.4999Z" fill="black"/>
</svg>
