<svg width="24" height="24" viewBox="0 0 24 24" fill="none" xmlns="http://www.w3.org/2000/svg">
<path d="M12.0283 2.00103C11.8306 1.9935 11.6379 2.0644 11.4922 2.1983L8.98828 4.50006H5.75C4.24011 4.50006 3 5.74017 3 7.25006V18.2501C3 19.7599 4.24011 21.0001 5.75 21.0001H18.25C19.7599 21.0001 21 19.7599 21 18.2501V7.25006C21 5.74017 19.7599 4.50006 18.25 4.50006H15.04L12.5049 2.19537C12.3739 2.07641 12.2051 2.00758 12.0283 2.00103ZM12.0029 3.76666L14.2451 5.80474C14.3832 5.93043 14.5633 6.00007 14.75 6.00006H18.25C18.9491 6.00006 19.5 6.55094 19.5 7.25006V18.2501C19.5 18.9492 18.9491 19.5001 18.25 19.5001H5.75C5.05089 19.5001 4.5 18.9492 4.5 18.2501V7.25006C4.5 6.55094 5.05089 6.00006 5.75 6.00006H9.28125C9.46939 6 9.65065 5.92924 9.78906 5.80181L12.0029 3.76666ZM7.25 9.00006C7.05109 9.00006 6.86032 9.07907 6.71967 9.21973C6.57902 9.36038 6.5 9.55114 6.5 9.75006C6.5 9.94897 6.57902 10.1397 6.71967 10.2804C6.86032 10.421 7.05109 10.5001 7.25 10.5001C7.44891 10.5001 7.63968 10.421 7.78033 10.2804C7.92098 10.1397 8 9.94897 8 9.75006C8 9.55114 7.92098 9.36038 7.78033 9.21973C7.63968 9.07907 7.44891 9.00006 7.25 9.00006ZM10.25 9.00006C10.1506 8.99865 10.0519 9.01701 9.95972 9.05407C9.86749 9.09113 9.78355 9.14615 9.71277 9.21594C9.642 9.28572 9.58579 9.36887 9.54743 9.46057C9.50907 9.55226 9.48932 9.65066 9.48932 9.75006C9.48932 9.84945 9.50907 9.94785 9.54743 10.0395C9.58579 10.1312 9.642 10.2144 9.71277 10.2842C9.78355 10.354 9.86749 10.409 9.95972 10.446C10.0519 10.4831 10.1506 10.5015 10.25 10.5001H16.75C16.8494 10.5015 16.9481 10.4831 17.0403 10.446C17.1325 10.409 17.2164 10.354 17.2872 10.2842C17.358 10.2144 17.4142 10.1312 17.4526 10.0395C17.4909 9.94785 17.5107 9.84945 17.5107 9.75006C17.5107 9.65066 17.4909 9.55226 17.4526 9.46057C17.4142 9.36887 17.358 9.28572 17.2872 9.21594C17.2164 9.14615 17.1325 9.09113 17.0403 9.05407C16.9481 9.01701 16.8494 8.99865 16.75 9.00006H10.25ZM7.25 12.0001C7.05109 12.0001 6.86032 12.0791 6.71967 12.2197C6.57902 12.3604 6.5 12.5511 6.5 12.7501C6.5 12.949 6.57902 13.1397 6.71967 13.2804C6.86032 13.421 7.05109 13.5001 7.25 13.5001C7.44891 13.5001 7.63968 13.421 7.78033 13.2804C7.92098 13.1397 8 12.949 8 12.7501C8 12.5511 7.92098 12.3604 7.78033 12.2197C7.63968 12.0791 7.44891 12.0001 7.25 12.0001ZM10.25 12.0001C10.1506 11.9987 10.0519 12.017 9.95972 12.0541C9.86749 12.0911 9.78355 12.1462 9.71277 12.2159C9.642 12.2857 9.58579 12.3689 9.54743 12.4606C9.50907 12.5523 9.48932 12.6507 9.48932 12.7501C9.48932 12.8495 9.50907 12.9479 9.54743 13.0395C9.58579 13.1312 9.642 13.2144 9.71277 13.2842C9.78355 13.354 9.86749 13.409 9.95972 13.446C10.0519 13.4831 10.1506 13.5015 10.25 13.5001H16.75C16.8494 13.5015 16.9481 13.4831 17.0403 13.446C17.1325 13.409 17.2164 13.354 17.2872 13.2842C17.358 13.2144 17.4142 13.1312 17.4526 13.0395C17.4909 12.9479 17.5107 12.8495 17.5107 12.7501C17.5107 12.6507 17.4909 12.5523 17.4526 12.4606C17.4142 12.3689 17.358 12.2857 17.2872 12.2159C17.2164 12.1462 17.1325 12.0911 17.0403 12.0541C16.9481 12.017 16.8494 11.9987 16.75 12.0001H10.25ZM7.25 15.0001C7.05109 15.0001 6.86032 15.0791 6.71967 15.2197C6.57902 15.3604 6.5 15.5511 6.5 15.7501C6.5 15.949 6.57902 16.1397 6.71967 16.2804C6.86032 16.421 7.05109 16.5001 7.25 16.5001C7.44891 16.5001 7.63968 16.421 7.78033 16.2804C7.92098 16.1397 8 15.949 8 15.7501C8 15.5511 7.92098 15.3604 7.78033 15.2197C7.63968 15.0791 7.44891 15.0001 7.25 15.0001ZM10.25 15.0001C10.1506 14.9987 10.0519 15.017 9.95972 15.0541C9.86749 15.0911 9.78355 15.1462 9.71277 15.2159C9.642 15.2857 9.58579 15.3689 9.54743 15.4606C9.50907 15.5523 9.48932 15.6507 9.48932 15.7501C9.48932 15.8495 9.50907 15.9479 9.54743 16.0395C9.58579 16.1312 9.642 16.2144 9.71277 16.2842C9.78355 16.354 9.86749 16.409 9.95972 16.446C10.0519 16.4831 10.1506 16.5015 10.25 16.5001H16.75C16.8494 16.5015 16.9481 16.4831 17.0403 16.446C17.1325 16.409 17.2164 16.354 17.2872 16.2842C17.358 16.2144 17.4142 16.1312 17.4526 16.0395C17.4909 15.9479 17.5107 15.8495 17.5107 15.7501C17.5107 15.6507 17.4909 15.5523 17.4526 15.4606C17.4142 15.3689 17.358 15.2857 17.2872 15.2159C17.2164 15.1462 17.1325 15.0911 17.0403 15.0541C16.9481 15.017 16.8494 14.9987 16.75 15.0001H10.25Z" fill="black"/>
</svg>
