<svg width="24" height="24" viewBox="0 0 24 24" fill="none" xmlns="http://www.w3.org/2000/svg">
<path fill-rule="evenodd" clip-rule="evenodd" d="M8 3.25C7.66848 3.25 7.35054 3.3817 7.11612 3.61612C6.8817 3.85054 6.75 4.16848 6.75 4.5V7.5C6.75 7.91421 6.41421 8.25 6 8.25C5.58579 8.25 5.25 7.91421 5.25 7.5V4.5C5.25 3.77065 5.53973 3.07118 6.05546 2.55546C6.57118 2.03973 7.27065 1.75 8 1.75H15C15.1989 1.75 15.3897 1.82902 15.5303 1.96967L20.5303 6.96967C20.671 7.11032 20.75 7.30109 20.75 7.5V18.5C20.75 19.2293 20.4603 19.9288 19.9445 20.4445C19.4288 20.9603 18.7293 21.25 18 21.25H13C12.5858 21.25 12.25 20.9142 12.25 20.5C12.25 20.0858 12.5858 19.75 13 19.75H18C18.3315 19.75 18.6495 19.6183 18.8839 19.3839C19.1183 19.1495 19.25 18.8315 19.25 18.5V7.81066L14.6893 3.25H8Z" fill="black"/>
<path d="M15 1.75C15.4142 1.75 15.75 2.08579 15.75 2.5V6.5C15.75 6.5663 15.7763 6.62989 15.8232 6.67678C15.8701 6.72366 15.9337 6.75 16 6.75H20C20.4142 6.75 20.75 7.08579 20.75 7.5C20.75 7.91421 20.4142 8.25 20 8.25H16C15.5359 8.25 15.0908 8.06563 14.7626 7.73744C14.4344 7.40925 14.25 6.96413 14.25 6.5V2.5C14.25 2.08579 14.5858 1.75 15 1.75Z" fill="black"/>
<path fill-rule="evenodd" clip-rule="evenodd" d="M4.34835 10.8483C5.05161 10.1451 6.00544 9.75 7 9.75C7.99456 9.75 8.94839 10.1451 9.65165 10.8483C10.3549 11.5516 10.75 12.5054 10.75 13.5C10.75 14.4946 10.3549 15.4484 9.65165 16.1517C9.53349 16.2698 9.40826 16.3793 9.27695 16.4796L10.7184 21.2844C10.8044 21.571 10.7118 21.8813 10.4828 22.0739C10.2538 22.2665 9.93225 22.3046 9.66462 22.1708L7.00003 20.8385L4.33544 22.1708C4.06782 22.3046 3.74626 22.2665 3.51727 22.0739C3.28828 21.8813 3.19568 21.571 3.28166 21.2844L4.7231 16.4797C4.59177 16.3793 4.46652 16.2698 4.34835 16.1517C3.64509 15.4484 3.25 14.4946 3.25 13.5C3.25 12.5054 3.64509 11.5516 4.34835 10.8483ZM6.09155 17.1383L5.21719 20.0529L6.66462 19.3291C6.87577 19.2236 7.1243 19.2236 7.33544 19.3291L8.78288 20.0529L7.90851 17.1383C7.61379 17.2119 7.30886 17.25 7 17.25C6.69116 17.25 6.38625 17.2119 6.09155 17.1383ZM7 11.25C6.40326 11.25 5.83097 11.4871 5.40901 11.909C4.98705 12.331 4.75 12.9033 4.75 13.5C4.75 14.0967 4.98705 14.669 5.40901 15.091C5.83097 15.5129 6.40326 15.75 7 15.75C7.59674 15.75 8.16903 15.5129 8.59099 15.091C9.01295 14.669 9.25 14.0967 9.25 13.5C9.25 12.9033 9.01295 12.331 8.59099 11.909C8.16903 11.4871 7.59674 11.25 7 11.25Z" fill="black"/>
</svg>
