<svg width="24" height="24" viewBox="0 0 24 24" fill="none" xmlns="http://www.w3.org/2000/svg">
<path fill-rule="evenodd" clip-rule="evenodd" d="M3.80775 19C3.30258 19 2.875 18.825 2.525 18.475C2.175 18.125 2 17.6974 2 17.1923V3.80775C2 3.30258 2.175 2.875 2.525 2.525C2.875 2.175 3.30258 2 3.80775 2H17.1923C17.6974 2 18.125 2.175 18.475 2.525C18.825 2.875 19 3.30258 19 3.80775V9.95963C18.5229 9.77714 18.0207 9.64537 17.5 9.57089V6.577H3.5V17.1923C3.5 17.2692 3.53208 17.3398 3.59625 17.4038C3.66025 17.4679 3.73075 17.5 3.80775 17.5H9.57089C9.64537 18.0207 9.77714 18.5229 9.95963 19H3.80775ZM12.6054 20.3946C13.6756 21.4649 14.9739 22 16.5 22C18.0261 22 19.3244 21.4649 20.3946 20.3946C21.4649 19.3244 22 18.0261 22 16.5C22 14.9739 21.4649 13.6756 20.3946 12.6054C19.3244 11.5351 18.0261 11 16.5 11C14.9739 11 13.6756 11.5351 12.6054 12.6054C11.5351 13.6756 11 14.9739 11 16.5C11 18.0261 11.5351 19.3244 12.6054 20.3946ZM13.4916 17.3697C13.7281 17.3697 13.9322 17.284 14.1039 17.1124C14.2754 16.9407 14.3612 16.7366 14.3612 16.5001C14.3612 16.2634 14.2754 16.0593 14.1039 15.8878C13.9322 15.7163 13.7281 15.6305 13.4916 15.6305C13.2549 15.6305 13.0508 15.7163 12.8792 15.8878C12.7077 16.0593 12.622 16.2634 12.622 16.5001C12.622 16.7366 12.7077 16.9407 12.8792 17.1124C13.0508 17.284 13.2549 17.3697 13.4916 17.3697ZM16.5001 17.3697C16.7368 17.3697 16.9409 17.284 17.1124 17.1124C17.2839 16.9407 17.3697 16.7366 17.3697 16.5001C17.3697 16.2634 17.2839 16.0593 17.1124 15.8878C16.9409 15.7163 16.7368 15.6305 16.5001 15.6305C16.2634 15.6305 16.0593 15.7163 15.8877 15.8878C15.7162 16.0593 15.6305 16.2634 15.6305 16.5001C15.6305 16.7366 15.7162 16.9407 15.8877 17.1124C16.0593 17.284 16.2634 17.3697 16.5001 17.3697ZM20.1209 17.1124C19.9494 17.284 19.7453 17.3697 19.5086 17.3697C19.2721 17.3697 19.068 17.284 18.8962 17.1124C18.7247 16.9407 18.639 16.7366 18.639 16.5001C18.639 16.2634 18.7247 16.0593 18.8962 15.8878C19.068 15.7163 19.2721 15.6305 19.5086 15.6305C19.7453 15.6305 19.9494 15.7163 20.1209 15.8878C20.2924 16.0593 20.3782 16.2634 20.3782 16.5001C20.3782 16.7366 20.2924 16.9407 20.1209 17.1124Z" fill="black"/>
</svg>
