<svg width="24" height="24" viewBox="0 0 24 24" fill="none" xmlns="http://www.w3.org/2000/svg">
<path fill-rule="evenodd" clip-rule="evenodd" d="M11 3H3.5C3.224 3 3 3.224 3 3.5V11C3 11.276 3.224 11.5 3.5 11.5H11C11.276 11.5 11.5 11.276 11.5 11V3.5C11.5 3.224 11.276 3 11 3ZM12.521 3.5V10.979C12.521 11.2555 12.7445 11.479 13.021 11.479H20.5C20.776 11.479 21 11.255 21 10.979V3.5C21 3.224 20.776 3 20.5 3H13.021C12.745 3 12.521 3.224 12.521 3.5ZM3.5 12.5H11C11.276 12.5 11.5 12.724 11.5 13V20.5C11.5 20.776 11.276 21 11 21H3.5C3.224 21 3 20.776 3 20.5V13C3 12.724 3.224 12.5 3.5 12.5ZM12.5 13V20.5C12.5 20.776 12.724 21 13 21H20.5C20.776 21 21 20.776 21 20.5V13C21 12.724 20.776 12.5 20.5 12.5H13C12.724 12.5 12.5 12.724 12.5 13Z" fill="black"/>
</svg>
