<svg width="24" height="24" viewBox="0 0 24 24" fill="none" xmlns="http://www.w3.org/2000/svg">
<path fill-rule="evenodd" clip-rule="evenodd" d="M12 2C11.2707 2 10.5712 2.28973 10.0555 2.80546C9.53973 3.32118 9.25 4.02065 9.25 4.75C9.25 5.47935 9.53973 6.17882 10.0555 6.69454C10.5712 7.21027 11.2707 7.5 12 7.5C12.7293 7.5 13.4288 7.21027 13.9445 6.69454C14.4603 6.17882 14.75 5.47935 14.75 4.75C14.75 4.02065 14.4603 3.32118 13.9445 2.80546C13.4288 2.28973 12.7293 2 12 2Z" fill="black"/>
<path fill-rule="evenodd" clip-rule="evenodd" d="M8.9786 9.84488C7.84334 10.0554 6.67541 10.6206 5.46842 11.5858C5.14492 11.8444 4.67296 11.7919 4.41427 11.4684C4.15559 11.1449 4.20813 10.6729 4.53164 10.4142C6.29354 9.00536 8.11972 8.25 10 8.25H14C15.8803 8.25 17.7065 9.00536 19.4684 10.4142C19.7919 10.6729 19.8444 11.1449 19.5858 11.4684C19.3271 11.7919 18.8551 11.8444 18.5316 11.5858C17.3246 10.6206 16.1567 10.0554 15.0214 9.84488L16.7211 15.794C16.7858 16.0202 16.7405 16.2638 16.5988 16.4516C16.457 16.6395 16.2353 16.75 16 16.75H14.75V21C14.75 21.4142 14.4142 21.75 14 21.75C13.5858 21.75 13.25 21.4142 13.25 21V16.75H10.75V21C10.75 21.4142 10.4142 21.75 10 21.75C9.58579 21.75 9.25 21.4142 9.25 21V16.75H8.00001C7.76466 16.75 7.54297 16.6395 7.40124 16.4516C7.25952 16.2638 7.21421 16.0202 7.27886 15.794L8.9786 9.84488Z" fill="black"/>
</svg>
