<svg width="24" height="24" viewBox="0 0 24 24" fill="none" xmlns="http://www.w3.org/2000/svg">
<path fill-rule="evenodd" clip-rule="evenodd" d="M12 2.25C11.0054 2.25 10.0516 2.64509 9.34835 3.34835C8.64509 4.05161 8.25 5.00544 8.25 6C8.25 6.99456 8.64509 7.94839 9.34835 8.65165C10.0516 9.35491 11.0054 9.75 12 9.75C12.9946 9.75 13.9484 9.35491 14.6517 8.65165C15.3549 7.94839 15.75 6.99456 15.75 6C15.75 5.00544 15.3549 4.05161 14.6517 3.34835C13.9484 2.64509 12.9946 2.25 12 2.25ZM10.409 4.40901C10.831 3.98705 11.4033 3.75 12 3.75C12.5967 3.75 13.169 3.98705 13.591 4.40901C14.0129 4.83097 14.25 5.40326 14.25 6C14.25 6.59674 14.0129 7.16903 13.591 7.59099C13.169 8.01295 12.5967 8.25 12 8.25C11.4033 8.25 10.831 8.01295 10.409 7.59099C9.98705 7.16903 9.75 6.59674 9.75 6C9.75 5.40326 9.98705 4.83097 10.409 4.40901Z" fill="black"/>
<path fill-rule="evenodd" clip-rule="evenodd" d="M17.3588 11.6412C17.8217 12.1042 18.1792 12.6529 18.4159 13.25H19C19.7293 13.25 20.4288 13.5397 20.9445 14.0555C21.4603 14.5712 21.75 15.2707 21.75 16V21C21.75 21.4142 21.4142 21.75 21 21.75C20.5858 21.75 20.25 21.4142 20.25 21V19H3.75V21C3.75 21.4142 3.41421 21.75 3 21.75C2.58579 21.75 2.25 21.4142 2.25 21V16C2.25 15.2707 2.53973 14.5712 3.05546 14.0555C3.57118 13.5397 4.27065 13.25 5 13.25H5.58412C5.82075 12.6529 6.17828 12.1042 6.64124 11.6412C7.53204 10.7504 8.74022 10.25 10 10.25H14C15.2598 10.25 16.468 10.7504 17.3588 11.6412ZM7.7019 12.7019C8.3114 12.0924 9.13805 11.75 10 11.75H14C14.862 11.75 15.6886 12.0924 16.2981 12.7019C16.4656 12.8695 16.613 13.0534 16.7386 13.25H7.26137C7.38699 13.0534 7.53436 12.8695 7.7019 12.7019ZM3.75 17.5H20.25V16C20.25 15.6685 20.1183 15.3505 19.8839 15.1161C19.6495 14.8817 19.3315 14.75 19 14.75H18.7434C18.7478 14.8331 18.75 14.9164 18.75 15V16C18.75 16.4142 18.4142 16.75 18 16.75C17.5858 16.75 17.25 16.4142 17.25 16V15C17.25 14.9163 17.2468 14.8329 17.2404 14.75H6.75962C6.75323 14.8329 6.75 14.9163 6.75 15V16C6.75 16.4142 6.41421 16.75 6 16.75C5.58579 16.75 5.25 16.4142 5.25 16V15C5.25 14.9164 5.2522 14.8331 5.25658 14.75H5C4.66848 14.75 4.35054 14.8817 4.11612 15.1161C3.8817 15.3505 3.75 15.6685 3.75 16V17.5Z" fill="black"/>
</svg>
