<svg width="24" height="24" viewBox="0 0 24 24" fill="none" xmlns="http://www.w3.org/2000/svg">
<path fill-rule="evenodd" clip-rule="evenodd" d="M14.328 12.0171C14.3289 11.2559 14.2764 10.4984 14.1718 9.75H9.82877C9.72491 10.4928 9.67224 11.2446 9.67224 12.0001C9.67224 12.7556 9.7249 13.5073 9.82874 14.25H12.5C12.9142 14.25 13.25 14.5858 13.25 15C13.25 15.4142 12.9142 15.75 12.5 15.75H10.1108C10.4846 17.3261 11.0935 18.8437 11.9223 20.2501C12.1464 20.2522 12.3711 20.2452 12.5958 20.2289C13.009 20.199 13.3681 20.5097 13.398 20.9228C13.428 21.336 13.1173 21.6951 12.7042 21.725C12.3379 21.7515 11.9717 21.7573 11.6073 21.7426C11.5082 21.7568 11.4078 21.7509 11.3122 21.7262C9.86829 21.6241 8.45909 21.2012 7.18986 20.4813C5.5149 19.5313 4.15875 18.1066 3.29243 16.3869C2.42612 14.6672 2.08844 12.7294 2.32198 10.818C2.55552 8.90661 3.34981 7.10717 4.6047 5.6466C5.85958 4.18603 7.51886 3.12976 9.37328 2.61098C10.0084 2.43331 10.6567 2.3214 11.3081 2.27506C11.4063 2.2491 11.5096 2.24298 11.6115 2.25823C11.8704 2.2479 12.1297 2.24791 12.3885 2.25823C12.4904 2.24298 12.5937 2.2491 12.6919 2.27507C13.4811 2.33121 14.2647 2.4835 15.0248 2.73156C16.8554 3.32895 18.4681 4.45504 19.6596 5.96779C20.851 7.48055 21.5679 9.31224 21.7197 11.2319C21.7523 11.6448 21.444 12.006 21.0311 12.0387C20.6182 12.0713 20.257 11.763 20.2243 11.3501C20.1813 10.8059 20.0846 10.2701 19.9371 9.75H15.6852C15.7809 10.4999 15.8289 11.2578 15.828 12.0191C15.8274 12.4333 15.4912 12.7686 15.077 12.7681C14.6628 12.7676 14.3275 12.4314 14.328 12.0171ZM11.9218 3.75086C11.974 3.75036 12.0262 3.75037 12.0783 3.75086C12.9073 5.15688 13.5161 6.67418 13.8898 8.25H10.1109C10.4846 6.67423 11.0933 5.15697 11.9218 3.75086ZM14.5595 4.15755C14.3451 4.08759 14.1285 4.02663 13.9103 3.97469C14.5984 5.3316 15.1077 6.76877 15.4278 8.25H19.3482C19.1052 7.77375 18.8152 7.32001 18.4812 6.8959C17.473 5.61587 16.1084 4.66304 14.5595 4.15755ZM10.0906 20.0265C9.40249 18.6692 8.89311 17.2316 8.57286 15.75H4.65129C5.38508 17.1882 6.52494 18.3797 7.92988 19.1766C8.61015 19.5624 9.33795 19.8474 10.0906 20.0265ZM8.3154 14.25C8.22038 13.5064 8.17224 12.755 8.17224 12.0001C8.17224 11.2452 8.22039 10.4937 8.31543 9.75H4.06289C3.94725 10.1578 3.86275 10.5756 3.81091 10.9999C3.67718 12.0944 3.7648 13.1992 4.06261 14.25H8.3154ZM10.0902 3.97459C9.4023 5.33158 8.89309 6.76877 8.57291 8.25H4.65179C4.94798 7.66967 5.31339 7.12349 5.74244 6.62412C6.80426 5.38826 8.20827 4.49449 9.77739 4.05552C9.88126 4.02646 9.98555 3.99949 10.0902 3.97459Z" fill="black"/>
<path fill-rule="evenodd" clip-rule="evenodd" d="M19 14.2493C18.2583 14.2493 17.5332 14.4692 16.9165 14.8813C16.2998 15.2934 15.8191 15.8792 15.5353 16.5645C15.2516 17.2498 15.1774 18.0038 15.3221 18.7313C15.4669 19.4584 15.8239 20.1263 16.348 20.6506C16.7916 21.0952 17.5208 21.7395 18.5185 22.5749C18.7983 22.8092 19.2062 22.8081 19.4847 22.5723C20.5325 21.685 21.2639 21.0396 21.6517 20.6509C22.176 20.1266 22.5331 19.4585 22.6779 18.7313C22.8226 18.0038 22.7485 17.2498 22.4647 16.5645C22.1809 15.8792 21.7002 15.2934 21.0835 14.8813C20.4668 14.4692 19.7417 14.2493 19 14.2493ZM19 17.25C19.4142 17.25 19.75 17.5858 19.75 18V18.01C19.75 18.4242 19.4142 18.76 19 18.76C18.5858 18.76 18.25 18.4242 18.25 18.01V18C18.25 17.5858 18.5858 17.25 19 17.25Z" fill="black"/>
</svg>
