<svg width="24" height="24" viewBox="0 0 24 24" fill="none" xmlns="http://www.w3.org/2000/svg">
<path d="M21.037 6.64592C20.9405 6.31192 20.5105 6.21292 20.2649 6.45892C18.9109 7.81292 17.6509 9.07292 17.5014 9.22242C16.6564 10.0674 15.2215 9.96292 14.5225 8.90942C14.014 8.14342 14.1635 7.11242 14.8135 6.46242L17.5415 3.73442C17.7875 3.48842 17.6885 3.05892 17.354 2.96242C15.5315 2.43692 13.49 2.88242 12.0535 4.31892C10.533 5.83942 10.1165 8.03992 10.791 9.93942C8.74195 11.9894 3.72595 17.0054 3.42695 17.3044C2.47145 18.2599 2.52745 19.8439 3.59495 20.7259C4.52595 21.4944 5.91195 21.3564 6.76545 20.5029L14.06 13.2084C15.9595 13.8829 18.16 13.4664 19.6805 11.9459C21.117 10.5099 21.5625 8.46842 21.037 6.64592Z" fill="black"/>
</svg>
