<svg width="24" height="24" viewBox="0 0 24 24" fill="none" xmlns="http://www.w3.org/2000/svg">
<path d="M12 7.75C12 8.9905 13.0095 10 14.25 10H20V11.0254C20.5651 11.1438 21 11.6538 21 12.25V17.75C21 18.3462 20.5651 18.8562 20 18.9746V19.75C20 20.9905 18.9905 22 17.75 22H6.25C5.0095 22 4 20.9905 4 19.75V18.9746C3.43494 18.8562 3 18.3462 3 17.75V12.25C3 11.6538 3.43494 11.1438 4 11.0254V4.25C4 3.0095 5.0095 2 6.25 2H12V7.75ZM4.5 17.5H19.5V12.5H4.5V17.5ZM9.45898 13.2227C9.61195 12.9932 9.92136 12.9311 10.1523 13.085C10.3823 13.238 10.4445 13.5488 10.291 13.7783L9.47559 15.001L10.291 16.2227C10.4445 16.4527 10.3823 16.763 10.1523 16.916C10.0669 16.9729 9.97091 17 9.87598 17C9.71456 16.9999 9.55494 16.9218 9.45898 16.7773L8.875 15.9014L8.29102 16.7783C8.19501 16.9227 8.03548 17.001 7.87402 17.001C7.77861 17.0009 7.68308 16.973 7.59766 16.916C7.36784 16.763 7.30562 16.4521 7.45898 16.2227L8.27441 15.001L7.45898 13.7783C7.30562 13.5484 7.36784 13.238 7.59766 13.085C7.65508 13.0465 7.71753 13.021 7.78125 13.0088C7.97262 12.9723 8.17588 13.0506 8.29102 13.2227L8.875 14.0986L9.45898 13.2227ZM13.6357 13.1797C13.7707 13.0177 13.9925 12.9588 14.1895 13.0303C14.3875 13.1018 14.5195 13.2895 14.5195 13.5V16.5C14.5195 16.776 14.2955 17 14.0195 17C13.7435 17 13.5195 16.776 13.5195 16.5V14.8809L13.1533 15.3203C12.9633 15.5483 12.5757 15.5483 12.3857 15.3203L12.0195 14.8809V16.5C12.0195 16.776 11.7955 17 11.5195 17C11.2435 17 11.0195 16.776 11.0195 16.5V13.5C11.0195 13.2895 11.1516 13.1018 11.3496 13.0303C11.3991 13.0124 11.4503 13.0029 11.501 13.001C11.653 12.9953 11.8021 13.0586 11.9033 13.1797L12.7695 14.2188L13.6357 13.1797ZM15.7695 13C16.0455 13 16.2695 13.224 16.2695 13.5V16H17.0195C17.2955 16 17.5195 16.224 17.5195 16.5C17.5195 16.776 17.2955 17 17.0195 17H15.7695C15.4935 17 15.2695 16.776 15.2695 16.5V13.5C15.2695 13.224 15.4935 13 15.7695 13ZM19.5605 8.5H14.25C13.8365 8.5 13.5 8.1635 13.5 7.75V2.43945L19.5605 8.5Z" fill="black"/>
</svg>
