<svg width="24" height="24" viewBox="0 0 24 24" fill="none" xmlns="http://www.w3.org/2000/svg">
<path fill-rule="evenodd" clip-rule="evenodd" d="M12 2C12.9693 2 13.7578 2.78855 13.7578 3.75781C13.7578 3.98639 13.7136 4.20473 13.6338 4.40527C14.3797 4.60863 14.9297 5.29211 14.9297 6.10156V7.35156C14.9297 8.01059 14.7105 8.61938 14.3418 9.10938H14.3438C15.9592 9.10938 17.2734 10.4236 17.2734 12.0391V17.3125H18.4453C19.7377 17.3125 20.7891 18.3639 20.7891 19.6562C20.7891 20.083 20.6737 20.4831 20.4736 20.8281H21.4141C21.7377 20.8281 22 21.0905 22 21.4141C22 21.7377 21.7377 22 21.4141 22H2.58594C2.26234 22 2 21.7377 2 21.4141C2 21.0905 2.26234 20.8281 2.58594 20.8281H3.52637C3.32625 20.4831 3.21094 20.083 3.21094 19.6562C3.21094 18.3639 4.26234 17.3125 5.55469 17.3125H7.31445C6.94578 16.8225 6.72656 16.2137 6.72656 15.5547V12.0391C6.72656 10.4236 8.04082 9.10938 9.65625 9.10938H9.6582C9.28953 8.61938 9.07031 8.01059 9.07031 7.35156V6.10156C9.07031 5.29211 9.62029 4.60863 10.3662 4.40527C10.2864 4.20473 10.2422 3.98639 10.2422 3.75781C10.2422 2.78855 11.0307 2 12 2ZM5.55469 18.4844C4.90852 18.4844 4.38281 19.0101 4.38281 19.6562C4.38281 20.3024 4.90852 20.8281 5.55469 20.8281H8.70801C8.47458 20.5734 8.25073 20.2979 8.0293 20.0254C7.41362 19.2677 6.77696 18.4844 6.14062 18.4844H5.55469ZM8.26074 18.4844C8.49417 18.7391 8.71802 19.0146 8.93945 19.2871C9.55513 20.0448 10.1918 20.8281 10.8281 20.8281H13.1719C13.8082 20.8281 14.4448 20.0448 15.0605 19.2871C15.282 19.0146 15.5058 18.7391 15.7393 18.4844H8.26074ZM17.8594 18.4844C17.223 18.4844 16.5864 19.2677 15.9707 20.0254C15.7493 20.2979 15.5254 20.5734 15.292 20.8281H18.4453C19.0915 20.8281 19.6172 20.3024 19.6172 19.6562C19.6172 19.0101 19.0915 18.4844 18.4453 18.4844H17.8594ZM9.65625 10.2812C8.68699 10.2812 7.89844 11.0698 7.89844 12.0391V15.5547C7.89844 16.5239 8.68699 17.3125 9.65625 17.3125H13.6572C13.4154 16.6305 12.7639 16.1406 12 16.1406H9.65625C9.33266 16.1406 9.07031 15.8783 9.07031 15.5547V12.0391C9.07031 11.7155 9.33266 11.4531 9.65625 11.4531C9.97984 11.4531 10.2422 11.7155 10.2422 12.0391V12.625H12C12.9693 12.625 13.7578 11.8364 13.7578 10.8672V10.2812H9.65625ZM14.9297 10.8672C14.9297 12.4826 13.6154 13.7969 12 13.7969H10.2422V14.9688H12C13.4148 14.9688 14.5989 15.9769 14.8711 17.3125H16.1016V12.0391C16.1016 11.2752 15.6117 10.6237 14.9297 10.3818V10.8672ZM10.8281 5.51562C10.505 5.51562 10.2422 5.77848 10.2422 6.10156V7.35156C10.2422 8.32082 11.0307 9.10938 12 9.10938C12.9693 9.10938 13.7578 8.32082 13.7578 7.35156V6.10156C13.7578 5.77848 13.495 5.51562 13.1719 5.51562H10.8281ZM12 3.17188C11.6769 3.17188 11.4141 3.43473 11.4141 3.75781C11.4141 4.0809 11.6769 4.34375 12 4.34375C12.3231 4.34375 12.5859 4.0809 12.5859 3.75781C12.5859 3.43473 12.3231 3.17188 12 3.17188Z" fill="black"/>
</svg>
