<svg width="24" height="24" viewBox="0 0 24 24" fill="none" xmlns="http://www.w3.org/2000/svg">
<path d="M6.14062 19.6562C6.77691 19.6562 7.41417 20.4393 8.02983 21.1974C8.25206 21.4708 8.47731 21.7446 8.71165 22C8.85125 22 2.70473 22 2.58594 22C2.26207 22 2 21.7379 2 21.4141C2 21.0902 2.26207 20.8281 2.58594 20.8281H4.38281C4.38281 20.1821 4.90867 19.6562 5.55469 19.6562H6.14062ZM15.7429 19.6562C15.5086 19.9117 15.2833 20.1855 15.0611 20.4588C14.4454 21.217 13.8082 22 13.1719 22H10.8281C10.1919 22 9.5546 21.2169 8.93892 20.4588C8.71669 20.1855 8.49144 19.9117 8.2571 19.6562H15.7429ZM18.4453 19.6562C19.0913 19.6562 19.6172 20.1821 19.6172 20.8281H21.4141C21.7379 20.8281 22 21.0902 22 21.4141C22 21.7379 21.7379 22 21.4141 22H15.2884C15.5227 21.7446 15.7488 21.4708 15.9711 21.1974C16.5866 20.4394 17.2232 19.6563 17.8594 19.6562H18.4453ZM13.7578 10.8672C13.7578 11.8365 12.9693 12.625 12 12.625H10.2422V12.0391C10.2422 11.7152 9.98012 11.4531 9.65625 11.4531C9.33238 11.4531 9.07031 11.7152 9.07031 12.0391V15.5547C9.07031 15.8786 9.33238 16.1406 9.65625 16.1406H12C12.6247 16.1406 13.1891 16.4608 13.5101 16.9973C13.7756 17.4414 13.8167 17.9663 13.6539 18.4844H9.65625C8.0409 18.4844 6.72656 17.17 6.72656 15.5547V12.0391C6.72656 10.4237 8.0409 9.10938 9.65625 9.10938H13.7578V10.8672ZM14.9297 9.16886C16.2653 9.4411 17.2734 10.6244 17.2734 12.0391V17.8984C17.2734 18.2223 17.0114 18.4844 16.6875 18.4844H14.8551C14.9979 17.7617 14.8967 17.0344 14.516 16.3972C13.9896 15.516 13.0254 14.9688 12 14.9688H10.2422V13.7969H12C13.6153 13.7969 14.9297 12.4825 14.9297 10.8672V9.16886ZM13.1719 4.34375C13.8179 4.34375 14.3438 4.86961 14.3438 5.51562V6.76562C14.3438 8.05824 13.2926 9.10938 12 9.10938C10.7074 9.10938 9.65625 8.05824 9.65625 6.76562V5.51562C9.65625 4.86961 10.1821 4.34375 10.8281 4.34375H13.1719ZM12 2C12.6472 2 13.1719 2.52467 13.1719 3.17188C13.1719 3.81908 12.6472 4.34375 12 4.34375C11.3528 4.34375 10.8281 3.81908 10.8281 3.17188C10.8281 2.52467 11.3528 2 12 2Z" fill="black"/>
</svg>
