<svg width="24" height="24" viewBox="0 0 24 24" fill="none" xmlns="http://www.w3.org/2000/svg">
<path d="M10.2422 19.5781V21.4141C10.2422 21.7379 9.98012 22 9.65625 22C9.33238 22 9.07031 21.7379 9.07031 21.4141V19.5781H10.2422ZM12.5859 21.4141C12.5859 21.7379 12.3239 22 12 22C11.6761 22 11.4141 21.7379 11.4141 21.4141V19.5781H12.5859V21.4141ZM14.9297 21.4141C14.9297 21.7379 14.6676 22 14.3438 22C14.0199 22 13.7578 21.7379 13.7578 21.4141V19.5781H14.9297V21.4141ZM16.1016 17.8203C16.1016 18.1442 15.8395 18.4062 15.5156 18.4062H8.48438C8.16051 18.4062 7.89844 18.1442 7.89844 17.8203V17.2344H16.1016V17.8203ZM8.59535 5.51562C7.76045 6.85024 7.3125 9.06776 7.3125 10.7891C7.3125 12.5104 7.76045 14.7279 8.59535 16.0625H8.48438C5.57645 16.0625 3.21094 13.697 3.21094 10.7891C3.21094 7.88113 5.57645 5.51562 8.48438 5.51562H8.59535ZM11.4141 16.0625H10.2422C9.5807 16.0625 8.48438 13.5082 8.48438 10.7891C8.48438 8.06996 9.5807 5.51562 10.2422 5.51562H11.4141V16.0625ZM13.7578 5.51562C14.4193 5.51562 15.5156 8.06996 15.5156 10.7891C15.5156 13.5082 14.4193 16.0625 13.7578 16.0625H12.5859V5.51562H13.7578ZM15.5156 5.51562C18.4235 5.51568 20.7891 7.88117 20.7891 10.7891C20.7891 13.697 18.4235 16.0624 15.5156 16.0625H15.4047C16.2395 14.7279 16.6875 12.5103 16.6875 10.7891C16.6875 9.06778 16.2395 6.85025 15.4047 5.51562H15.5156ZM12 2C12.3239 2 12.5859 2.26207 12.5859 2.58594V3.17188H15.5156C15.8395 3.17188 16.1016 3.43395 16.1016 3.75781V4.34375H7.89844V3.75781C7.89844 3.43395 8.16051 3.17188 8.48438 3.17188H11.4141V2.58594C11.4141 2.26207 11.6761 2 12 2Z" fill="black"/>
</svg>
