<svg width="24" height="24" viewBox="0 0 24 24" fill="none" xmlns="http://www.w3.org/2000/svg">
<path d="M3.71563 17.2857C4.2539 18.5842 5.06144 19.7878 6.10203 20.7978L2.99918 21.9617C2.52746 22.1386 2.06971 21.6753 2.24544 21.2071L3.71563 17.2857ZM6.28402 10.4354C5.91603 13.7766 7.17794 17.1458 9.73489 19.4359L7.32718 20.3379C5.95774 19.1653 4.96509 17.6348 4.4596 15.9025L4.3655 15.5536L6.28402 10.4354ZM10.3972 9.9587C10.1703 13.0161 11.2788 15.9713 13.3287 18.0882L10.9947 18.9636C7.64909 16.3433 6.43734 11.7711 8.21054 7.77117L10.3972 9.9587ZM16.4653 16.0268C16.7656 16.3272 16.6562 16.84 16.2566 16.99L14.5459 17.6319C12.7139 15.9386 11.6305 13.5884 11.5407 11.1022L16.4653 16.0268ZM19.1349 13.7718C19.3636 13.5431 19.7344 13.5432 19.9632 13.7718C20.192 14.0006 20.192 14.3713 19.9632 14.6001C19.7344 14.8289 19.3637 14.8289 19.1349 14.6001C18.9063 14.3713 18.9061 14.0005 19.1349 13.7718ZM15.8207 12.1143C18.5299 9.40529 21.2734 10.2762 21.3917 10.3156C21.6986 10.4179 21.865 10.7501 21.7628 11.0569C21.6604 11.3638 21.3283 11.5301 21.0214 11.428C21 11.4209 18.8533 10.7392 16.649 12.9435C16.4203 13.172 16.0495 13.172 15.8207 12.9435C15.5919 12.7147 15.5919 12.343 15.8207 12.1143ZM20.7924 2.17184C21.0212 1.94306 21.3919 1.94303 21.6207 2.17184C21.848 2.3995 21.8494 2.76763 21.6243 2.9966C21.4745 3.29772 22.0387 4.23868 21.5168 4.76065C21.0006 5.27664 20.0788 4.72866 19.7572 4.86541C19.6202 5.188 20.169 6.10847 19.6525 6.62502C19.136 7.14152 18.2163 6.59233 17.8928 6.72978C17.7558 7.05237 18.3046 7.97285 17.7881 8.48939C17.2716 9.00585 16.3515 8.45674 16.0285 8.59415C15.8914 8.91672 16.4402 9.83723 15.9237 10.3538C15.4016 10.8757 14.4623 10.3104 14.1597 10.4612C13.9297 10.6873 13.5616 10.6841 13.3349 10.4576C13.1061 10.2288 13.1061 9.85814 13.3349 9.62932C13.7966 9.16758 14.4482 9.25744 14.9143 9.34434C14.8273 8.87823 14.7375 8.22586 15.1993 7.76406C15.661 7.30274 16.3126 7.39301 16.7787 7.47997C16.6917 7.01387 16.6019 6.36236 17.0636 5.90058C17.5254 5.43877 18.1769 5.52866 18.643 5.6156C18.5561 5.1495 18.4662 4.49799 18.928 4.03621C19.3898 3.57446 20.0413 3.66424 20.5074 3.75123C20.4204 3.28512 20.3306 2.6336 20.7924 2.17184ZM20.3778 7.80046C20.7014 7.80046 20.9637 8.06282 20.9637 8.38641C20.9635 8.70979 20.7012 8.97147 20.3778 8.97147C20.0544 8.97137 19.7921 8.70974 19.7918 8.38641C19.7918 8.06288 20.0543 7.80056 20.3778 7.80046ZM13.1494 2.44439C13.4564 2.34207 13.7883 2.50759 13.8907 2.8146C13.9291 2.93058 14.8024 5.67535 12.092 8.38552C11.8638 8.61371 11.4928 8.61551 11.2628 8.38552C11.0334 8.15515 11.0356 7.7845 11.2628 7.55721C13.457 5.36333 12.7923 3.22683 12.7791 3.1857C12.6768 2.87868 12.8427 2.54673 13.1494 2.44439ZM10.0208 4.65678C10.2496 4.42842 10.6204 4.42824 10.8491 4.65678C11.0779 4.88559 11.0779 5.25716 10.8491 5.48598C10.6204 5.71467 10.2496 5.71449 10.0208 5.48598C9.79194 5.25716 9.79194 4.88556 10.0208 4.65678ZM15.8207 3.82846C16.0495 3.59989 16.4203 3.59985 16.649 3.82846C16.8779 4.05728 16.8779 4.42885 16.649 4.65767C16.4203 4.88613 16.0495 4.8861 15.8207 4.65767C15.5919 4.42885 15.5919 4.05728 15.8207 3.82846Z" fill="black"/>
</svg>
