<svg width="24" height="24" viewBox="0 0 24 24" fill="none" xmlns="http://www.w3.org/2000/svg">
<path d="M18.9417 8.99635C19.1705 8.76751 19.5412 8.76751 19.77 8.99635C21.2087 10.435 22.0011 12.3476 22.0012 14.3821C22.0012 16.4168 21.2088 18.33 19.77 19.7688C18.3313 21.2076 16.4181 22 14.3834 22C12.3487 21.9999 10.4354 21.2075 8.99671 19.7688C8.76831 19.54 8.76821 19.1692 8.99671 18.9404L18.9417 8.99635ZM12.3937 20.5164C13.028 20.7214 13.6975 20.828 14.3834 20.828C16.1051 20.828 17.7242 20.1579 18.9417 18.9404C20.159 17.723 20.8293 16.1039 20.8293 14.3821C20.8292 13.6962 20.7227 13.0268 20.5176 12.3924L12.3937 20.5164ZM10.2584 19.3364C10.5662 19.5937 10.8947 19.8197 11.2395 20.013L20.0133 11.2391C19.8201 10.8943 19.5949 10.565 19.3377 10.2571L10.2584 19.3364ZM5.68232 15.6251C6.36777 14.94 7.48301 14.9407 8.16833 15.626C8.85513 16.313 8.85538 17.425 8.16833 18.112C7.48303 18.7972 6.3677 18.7972 5.68232 18.112C4.99532 17.425 4.99516 16.3123 5.68232 15.6251ZM7.33996 16.4544C7.111 16.2254 6.73973 16.2254 6.51069 16.4544C6.28201 16.6834 6.28199 17.0538 6.51069 17.2828C6.73969 17.5118 7.11096 17.5118 7.33996 17.2828C7.56872 17.0538 7.56874 16.6834 7.33996 16.4544ZM6.19461 10.6691C7.53349 10.7253 8.82345 11.3083 9.82598 12.3107L11.4836 13.9684C11.7113 14.1964 11.7129 14.5673 11.4836 14.7968C11.2548 15.0256 10.8832 15.0256 10.6544 14.7968C8.98717 13.1298 6.55709 13.0459 5.00133 14.6014C4.31601 15.2868 3.20076 15.2867 2.51531 14.6014C1.82827 13.9144 1.82819 12.8026 2.51531 12.1154C3.50605 11.1248 4.81252 10.611 6.19461 10.6691ZM6.14578 11.8402C5.09549 11.796 4.09986 12.1878 3.34368 12.9438C3.11461 13.1728 3.11465 13.544 3.34368 13.7731C3.57214 14.0013 3.94355 14.0012 4.17206 13.7731C5.1628 12.7823 6.4692 12.2689 7.85226 12.3267C7.87145 12.3275 7.89077 12.3284 7.90997 12.3294C7.35781 12.0345 6.75723 11.8658 6.14578 11.8402ZM2.51531 2.51406C3.20067 1.82875 4.31573 1.82855 5.00133 2.51406C5.1096 2.62233 4.57839 1.99571 13.1777 12.3507C13.3708 12.5836 13.3543 12.9252 13.1404 13.1391C12.9265 13.3531 12.5848 13.3696 12.3519 13.1764C2.00156 4.58096 2.62189 5.1069 2.51531 5.00008C1.82831 4.31312 1.82815 3.20114 2.51531 2.51406ZM12.1167 2.51406C12.802 1.82867 13.9172 1.82863 14.6027 2.51406C15.288 3.19948 15.2881 4.3147 14.6027 5.00008C13.0469 6.55585 13.131 8.98594 14.798 10.6531C15.0261 10.8812 15.0276 11.2528 14.798 11.4824C14.5693 11.711 14.1985 11.7109 13.9696 11.4824L12.312 9.82473C11.3096 8.8223 10.7266 7.53304 10.6703 6.19426C10.6123 4.81199 11.1259 3.50491 12.1167 2.51406ZM4.43931 8.82411C4.7628 8.82415 5.02512 9.08664 5.0253 9.4101C5.0253 9.7337 4.7629 9.99604 4.43931 9.99609C4.11568 9.99609 3.85332 9.73373 3.85332 9.4101C3.85349 9.08661 4.11578 8.82411 4.43931 8.82411ZM15.6264 5.68107C16.3117 4.99576 17.427 4.99595 18.1124 5.68107C18.7978 6.36647 18.7978 7.48165 18.1124 8.16709C17.4254 8.85405 16.3135 8.85419 15.6264 8.16709C14.9413 7.48169 14.9411 6.36642 15.6264 5.68107ZM3.75832 3.17108C3.60827 3.17108 3.45787 3.22821 3.34368 3.34244C3.11527 3.57087 3.11538 3.94231 3.34368 4.17082C3.3579 4.18504 3.37276 4.19916 3.38808 4.21166C3.39606 4.21828 8.19079 8.19825 8.24203 8.24078L4.21557 3.39038C4.21461 3.38924 4.21382 3.38798 4.2129 3.38683C4.20048 3.3716 4.18628 3.3567 4.17206 3.34244C4.05789 3.22834 3.90821 3.17115 3.75832 3.17108ZM13.7743 3.34244C13.5458 3.11395 13.1735 3.11395 12.945 3.34244C11.7004 4.58716 11.5052 6.39198 12.3306 7.9176C12.3294 7.89549 12.328 7.87312 12.3271 7.85101C12.2691 6.46884 12.7836 5.16159 13.7743 4.17082C14.0023 3.94234 14.0025 3.57077 13.7743 3.34244ZM17.284 6.51034C17.0555 6.28184 16.6841 6.28188 16.4557 6.51034C16.2272 6.73883 16.2272 7.11023 16.4557 7.33871C16.6847 7.56753 17.055 7.56769 17.284 7.33871C17.513 7.10969 17.5129 6.73939 17.284 6.51034ZM9.41134 3.85207C9.73491 3.85207 9.99722 4.11453 9.99733 4.43806C9.99733 4.7617 9.73498 5.02405 9.41134 5.02405C9.08778 5.02398 8.82535 4.76165 8.82535 4.43806C8.82547 4.11457 9.08785 3.85215 9.41134 3.85207Z" fill="black"/>
</svg>
