<svg width="24" height="24" viewBox="0 0 24 24" fill="none" xmlns="http://www.w3.org/2000/svg">
<path d="M10.2334 19.1338C10.5556 19.1338 10.8481 19.2054 11.1016 19.3467C11.3635 19.4923 11.5344 19.7022 11.6064 19.9707L11.6289 20.0557L10.8525 20.248L10.8271 20.1729C10.7457 19.9391 10.5548 19.8252 10.2461 19.8252C10.0665 19.8253 9.92988 19.8611 9.83984 19.9316C9.75472 19.9992 9.71298 20.0825 9.71289 20.1846C9.71289 20.2436 9.71367 20.4252 10.1465 20.5322L10.7559 20.6836L10.7568 20.6855C11.145 20.7839 11.4119 20.9328 11.5488 21.1299C11.6851 21.3249 11.7548 21.5436 11.7549 21.7793C11.7548 22.1579 11.609 22.4605 11.3223 22.6787C11.0426 22.8917 10.678 22.9999 10.2402 23C9.87251 23 9.54433 22.9202 9.26562 22.7646C8.97974 22.6047 8.78585 22.3525 8.69238 22.0166L8.66895 21.9287L9.46973 21.7588L9.4873 21.8418C9.55328 22.154 9.80863 22.3066 10.2686 22.3066C10.4774 22.3066 10.6393 22.2672 10.7471 22.1875C10.8476 22.1133 10.8965 22.0242 10.8965 21.917C10.8964 21.8359 10.8732 21.7629 10.8271 21.6943C10.7963 21.6498 10.7182 21.5858 10.5176 21.5342L9.83203 21.3555C9.58529 21.2906 9.4051 21.2169 9.28418 21.1328C9.15987 21.0461 9.0608 20.9245 8.9873 20.7705C8.91531 20.6194 8.87796 20.4535 8.87793 20.2793C8.87796 19.9336 9.00884 19.6518 9.2666 19.4424C9.51882 19.2376 9.84396 19.1338 10.2334 19.1338ZM14.7764 19.9492H13.1172V20.748H14.4512V21.4404H13.1172V22.2705H14.7988V22.999H12.2998V19.2432H14.7764V19.9492ZM12 1C16.6383 1.00015 20.3984 4.75954 20.3984 9.39648L20.3877 9.82812C20.1627 14.2643 16.4933 17.7918 12 17.792C7.50677 17.7917 3.83729 14.2642 3.6123 9.82812L3.60156 9.39648C3.60161 4.75961 7.36182 1.00027 12 1ZM11.9355 4.47461C11.7132 4.50262 11.5226 4.65143 11.4414 4.86328L10.2441 7.9707L7.13672 9.16797C7.05577 9.19869 6.98291 9.24561 6.9209 9.30762C6.82464 9.40395 6.76363 9.53107 6.74805 9.66309C6.72595 9.84145 6.7852 10.0117 6.90332 10.1299C6.95344 10.18 7.01426 10.2216 7.08301 10.25L15.1299 13.5986C15.3385 13.6851 15.5781 13.6348 15.7432 13.4697C15.9082 13.3046 15.9581 13.0655 15.8721 12.8564L12.5215 4.80957C12.4238 4.57773 12.1896 4.44353 11.9355 4.47461Z" fill="black"/>
</svg>
