<svg width="24" height="24" viewBox="0 0 24 24" fill="none" xmlns="http://www.w3.org/2000/svg">
<path d="M9.29297 19.1338C9.61501 19.1338 9.90777 19.2054 10.1611 19.3467C10.4227 19.4923 10.592 19.7024 10.6641 19.9707L10.6875 20.0557L9.91211 20.248L9.88574 20.1729C9.80423 19.9392 9.61425 19.8252 9.30566 19.8252C9.1257 19.8252 8.98856 19.8609 8.89844 19.9316C8.81333 19.9992 8.77255 20.0825 8.77246 20.1846C8.77246 20.2436 8.77287 20.4252 9.20605 20.5322L9.81445 20.6836L9.81543 20.6855C10.2038 20.7839 10.4715 20.9327 10.6084 21.1299C10.7447 21.3249 10.8134 21.5436 10.8135 21.7793C10.8134 22.158 10.6678 22.4605 10.3809 22.6787C10.1011 22.8919 9.73586 23 9.29785 23C8.93038 22.9999 8.60177 22.9201 8.32324 22.7646C8.0378 22.6046 7.84533 22.3522 7.75195 22.0166L7.72656 21.9287L8.52832 21.7588L8.5459 21.8418C8.61187 22.1541 8.86797 22.3066 9.32812 22.3066C9.53635 22.3066 9.69699 22.2668 9.80469 22.1875C9.9053 22.1133 9.95508 22.0242 9.95508 21.917C9.95497 21.836 9.93267 21.7628 9.88672 21.6943C9.85588 21.6498 9.777 21.5858 9.57617 21.5342L8.89062 21.3555C8.64381 21.2906 8.46469 21.2169 8.34375 21.1328C8.21919 21.046 8.11949 20.9247 8.0459 20.7705C7.9739 20.6194 7.93753 20.4535 7.9375 20.2793C7.93753 19.9337 8.06669 19.6518 8.32422 19.4424C8.57657 19.2373 8.90317 19.1338 9.29297 19.1338ZM12.8955 21.5947L13.4775 19.2432H14.2637L14.9092 21.6074L15.5254 19.2432H16.2734L15.2695 22.999H14.46L13.8164 20.6211L13.2305 22.999H12.4336L11.4082 19.2432H12.2705L12.8955 21.5947ZM11.999 1C16.6374 1.00004 20.3984 4.75947 20.3984 9.39648L20.3877 9.82812C20.1627 14.2643 16.4924 17.792 11.999 17.792C7.50603 17.7915 3.83728 14.264 3.6123 9.82812L3.60156 9.39648C3.60161 4.75978 7.36108 1.00055 11.999 1ZM12.0645 4.47461C11.8104 4.44366 11.5761 4.57778 11.4785 4.80957L8.12891 12.8564H8.12793C8.04196 13.0654 8.09195 13.3046 8.25684 13.4697C8.42206 13.6349 8.66331 13.6853 8.87207 13.5986L16.917 10.25C16.9857 10.2217 17.0466 10.1799 17.0967 10.1299C17.2148 10.0118 17.275 9.84143 17.2529 9.66309C17.2373 9.53105 17.1754 9.40396 17.0791 9.30762C17.017 9.24559 16.9443 9.19867 16.8633 9.16797L13.7559 7.9707L12.5586 4.8623C12.4772 4.65069 12.2867 4.50258 12.0645 4.47461Z" fill="black"/>
</svg>
