<svg width="24" height="24" viewBox="0 0 24 24" fill="none" xmlns="http://www.w3.org/2000/svg">
<path d="M10.9443 21.335L11.5254 18.9834H12.3115L12.958 21.3477L13.5732 18.9834H14.3213L13.3164 22.7393H12.5078L11.8633 20.3613L11.2793 22.7393H10.4814L9.45605 18.9834H10.3193L10.9443 21.335ZM11.999 0.739258C16.6377 0.739258 20.3994 4.49941 20.3994 9.13672L20.3887 9.56836C20.1636 14.0048 16.4927 17.5322 11.999 17.5322C7.50587 17.5317 3.83634 14.0044 3.61133 9.56836L3.60059 9.13672C3.60059 4.49978 7.36086 0.739852 11.999 0.739258ZM16.0801 5.52637C15.9228 5.32473 15.6597 5.25287 15.4277 5.34961L7.37012 8.6709C7.16174 8.75612 7.02734 8.9636 7.02734 9.19727C7.02757 9.43069 7.16136 9.63488 7.37012 9.72168L15.4277 13.0439C15.4964 13.072 15.5693 13.0849 15.6396 13.085C15.8078 13.0849 15.9704 13.0075 16.082 12.8652C16.219 12.6879 16.2476 12.4491 16.1562 12.2422L14.8027 9.19727L16.1553 6.15332C16.191 6.07424 16.208 5.98923 16.208 5.90137C16.208 5.76501 16.1631 5.63138 16.0801 5.52637Z" fill="black"/>
</svg>
