<svg width="24" height="24" viewBox="0 0 24 24" fill="none" xmlns="http://www.w3.org/2000/svg">
<path d="M10.319 18.9834L10.9434 21.3351L11.5245 18.9834H12.3108L12.9575 21.3478L13.5724 18.9834H14.3207L13.3163 22.7395H12.5077L11.8632 20.3614L11.2789 22.7395H10.4809L9.4554 18.9834H10.319ZM11.9986 0.739502C16.6373 0.739502 20.3988 4.49918 20.3988 9.13648L20.3882 9.56829C20.1632 14.0047 16.4923 17.5324 11.9986 17.5324C7.50541 17.5319 3.83616 14.0044 3.61117 9.56829L3.60059 9.13648C3.60059 4.49951 7.36042 0.740048 11.9986 0.739502ZM11.9986 2.25718C8.22858 2.25773 5.13837 5.31869 5.13837 9.13648C5.13859 12.9541 8.22871 16.0152 11.9986 16.0158C15.769 16.0158 18.8608 12.9544 18.861 9.13648C18.861 5.31835 15.7691 2.25718 11.9986 2.25718ZM15.4277 5.34969C15.6597 5.25295 15.9224 5.32477 16.0796 5.52644C16.1627 5.63145 16.2077 5.76474 16.2077 5.90109C16.2077 5.98904 16.1905 6.07383 16.1548 6.15298L14.8022 9.19681L16.1558 12.2417C16.2474 12.4487 16.2188 12.6876 16.0818 12.8651C15.9702 13.0074 15.8076 13.0852 15.6394 13.0852C15.569 13.0852 15.4964 13.072 15.4277 13.0439L7.36938 9.72175C7.16051 9.6349 7.02654 9.43041 7.02648 9.19681C7.02648 8.96314 7.16101 8.75603 7.36938 8.67081L15.4277 5.34969Z" fill="black"/>
</svg>
