<svg width="32" height="32" viewBox="0 0 32 32" fill="none" xmlns="http://www.w3.org/2000/svg">
<path d="M1.332 6.66667H30.6653V24.6667H1.332V6.66667Z" fill="#ECEFF1"/>
<path d="M1.33333 6.66667H30.6667V8.66667H1.33333V6.66667ZM1.33333 10.6667H30.6667V12.6667H1.33333V10.6667ZM1.33333 14.6667H30.6667V16.6667H1.33333V14.6667ZM1.33333 18.6667H30.6667V20.6667H1.33333V18.6667ZM1.33333 22.6667H30.6667V24.6667H1.33333V22.6667Z" fill="#F44336"/>
<path d="M1.33333 6.66667H15.3333V16.6667H1.33333V6.66667Z" fill="#3F51B5"/>
<path d="M2.83334 8L3.142 8.65867L3.83334 8.764L3.33334 9.27733L3.452 10L2.83334 9.65867L2.21467 10L2.33334 9.27733L1.83334 8.764L2.52467 8.65867L2.83334 8ZM5.5 8L5.80867 8.65867L6.5 8.764L6 9.27733L6.11867 10L5.5 9.65867L4.88134 10L5 9.27733L4.5 8.764L5.19134 8.65867L5.5 8ZM8.16667 8L8.47534 8.65867L9.16667 8.764L8.66667 9.27733L8.78534 10L8.16667 9.65867L7.548 10L7.66667 9.27733L7.16667 8.764L7.858 8.65867L8.16667 8ZM10.8333 8L11.142 8.65867L11.8333 8.764L11.3333 9.27733L11.452 10L10.8333 9.65867L10.2147 10L10.3333 9.27733L9.83334 8.764L10.5247 8.65867L10.8333 8ZM13.3333 8L13.642 8.65867L14.3333 8.764L13.8333 9.27733L13.952 10L13.3333 9.65867L12.7147 10L12.8333 9.27733L12.3333 8.764L13.0247 8.65867L13.3333 8ZM2.83334 13.3333L3.142 13.992L3.83334 14.0973L3.33334 14.6107L3.452 15.3333L2.83334 14.992L2.21467 15.3333L2.33334 14.6107L1.83334 14.0973L2.52467 13.992L2.83334 13.3333ZM5.5 13.3333L5.80867 13.992L6.5 14.0973L6 14.6107L6.11867 15.3333L5.5 14.992L4.88134 15.3333L5 14.6107L4.5 14.0973L5.19134 13.992L5.5 13.3333ZM8.16667 13.3333L8.47534 13.992L9.16667 14.0973L8.66667 14.6107L8.78534 15.3333L8.16667 14.992L7.548 15.3333L7.66667 14.6107L7.16667 14.0973L7.858 13.992L8.16667 13.3333ZM10.8333 13.3333L11.142 13.992L11.8333 14.0973L11.3333 14.6107L11.452 15.3333L10.8333 14.992L10.2147 15.3333L10.3333 14.6107L9.83334 14.0973L10.5247 13.992L10.8333 13.3333ZM13.3333 13.3333L13.642 13.992L14.3333 14.0973L13.8333 14.6107L13.952 15.3333L13.3333 14.992L12.7147 15.3333L12.8333 14.6107L12.3333 14.0973L13.0247 13.992L13.3333 13.3333ZM3.5 10.6667L3.80867 11.3253L4.5 11.4307L4 11.944L4.11867 12.6667L3.5 12.3253L2.88134 12.6667L3 11.944L2.5 11.4307L3.19134 11.3253L3.5 10.6667ZM6.16667 10.6667L6.47534 11.3253L7.16667 11.4307L6.66667 11.944L6.78534 12.6667L6.16667 12.3253L5.548 12.6667L5.66667 11.944L5.16667 11.4307L5.858 11.3253L6.16667 10.6667ZM8.83334 10.6667L9.142 11.3253L9.83334 11.4307L9.33334 11.944L9.452 12.6667L8.83334 12.3253L8.21467 12.6667L8.33334 11.944L7.83334 11.4307L8.52467 11.3253L8.83334 10.6667ZM11.5 10.6667L11.8087 11.3253L12.5 11.4307L12 11.944L12.1187 12.6667L11.5 12.3253L10.8813 12.6667L11 11.944L10.5 11.4307L11.1913 11.3253L11.5 10.6667ZM14 10.6667L14.3087 11.3253L15 11.4307L14.5 11.944L14.6187 12.6667L14 12.3253L13.3813 12.6667L13.5 11.944L13 11.4307L13.6913 11.3253L14 10.6667Z" fill="white"/>
</svg>
