<svg width="32" height="32" viewBox="0 0 32 32" fill="none" xmlns="http://www.w3.org/2000/svg">
<path d="M1.33997 7H30.67V25H1.33997V7Z" fill="#EF0000"/>
<path d="M11.4981 17.1327C12.0987 17.4632 12.7458 17.5843 13.4255 17.4912C14.1657 17.3887 14.7896 17.0442 15.325 16.5321C15.3389 16.5182 15.3482 16.5042 15.3715 16.4716C14.0773 17.1886 12.648 16.5926 12.08 15.8384C12.0893 15.8291 12.094 15.8198 12.1033 15.8105C12.1126 15.8012 12.1219 15.7965 12.1359 15.7872C13.2113 17.0116 14.7896 16.8254 15.3994 16.318C14.9432 16.4669 14.8361 16.425 14.6452 16.3878C14.0912 16.2807 13.7374 15.9362 13.5512 15.4194C13.486 15.2472 13.472 15.0563 13.4255 14.8747C13.3277 14.4976 13.0903 14.209 12.7877 13.9716C12.4804 13.7248 12.1312 13.5665 11.7262 13.5898C11.554 13.5991 11.3817 13.6503 11.2094 13.6736C10.688 13.7341 10.1992 13.506 9.999 12.9613C9.96641 12.8682 9.94313 12.7751 9.91054 12.6727C9.89658 12.6913 9.89192 12.7006 9.88727 12.7099C9.64983 13.3291 9.56138 13.9669 9.68708 14.6233C9.89658 15.7453 10.5018 16.5833 11.4981 17.1327Z" fill="white"/>
<path d="M15.0456 15.8664C15.1201 15.9129 15.1993 15.9548 15.2737 16.0014C14.8175 15.5591 14.5661 15.0191 14.4916 14.3999C14.4171 13.776 14.5521 13.1987 14.878 12.6587C14.906 12.6773 14.9246 12.6913 14.9479 12.7053C14.6266 13.236 14.4916 13.8086 14.5801 14.4232C14.6732 15.0796 15.0782 15.8012 15.4181 15.9502C15.4181 15.9455 15.4227 15.9455 15.4227 15.9409C15.4134 15.9222 15.3994 15.9036 15.3855 15.885C15.1713 15.5777 15.0875 15.2379 15.1574 14.8701C15.2505 14.3533 15.5531 13.9855 16.0186 13.7574C16.2887 13.6224 16.5121 13.4408 16.6704 13.1801C17.0335 12.5796 17.1639 11.965 16.7542 11.3226C16.6332 11.1317 16.568 10.9175 16.5587 10.6941C16.5401 10.2564 16.7496 9.94451 17.1034 9.71173C17.1453 9.6838 17.1872 9.66052 17.2291 9.63724C17.2244 9.62328 17.2244 9.60931 17.2198 9.6C16.9637 9.61397 16.7077 9.61397 16.4563 9.65121C15.2644 9.82812 14.3799 10.4613 13.8212 11.5227C13.351 12.4166 13.2858 13.3477 13.6629 14.2928C13.9329 14.9772 14.4218 15.4846 15.0456 15.8664ZM15.2318 12.7937C15.2365 12.7937 15.2318 12.7984 15.2318 12.7984C15.2318 12.7984 15.2318 12.7984 15.2318 12.7937ZM15.8324 12.5051C15.8324 12.5004 15.8371 12.5004 15.8371 12.4958C15.8417 12.5004 15.8417 12.5051 15.8464 12.5051C15.8417 12.5051 15.8371 12.5051 15.8324 12.5051Z" fill="white"/>
<path d="M15.8557 16.5507C16.149 17.9614 15.1667 19.1625 14.2356 19.4931C14.2262 19.4698 14.2169 19.4465 14.2076 19.4232C15.6322 18.7947 16.0093 17.3422 15.7346 16.4949C15.7207 16.6252 15.716 16.7416 15.6927 16.8534C15.5345 17.6215 14.7942 18.0266 14.0866 17.9614C13.9609 17.9474 13.8398 17.9195 13.7141 17.9148C13.2253 17.9055 12.8156 18.0964 12.4525 18.413C12.1266 18.697 11.9497 19.0554 11.9264 19.4931C11.9124 19.7724 11.8054 20.0238 11.6191 20.2333C11.3864 20.494 11.0837 20.5918 10.7439 20.5825C10.6834 20.5825 10.6228 20.5825 10.5344 20.5825C10.6228 20.6523 10.688 20.7035 10.7579 20.7501C11.4469 21.2482 12.215 21.481 13.067 21.4251C13.7793 21.3786 14.4264 21.1318 14.9898 20.6942C15.7998 20.0657 16.2421 19.237 16.2607 18.2081C16.27 17.6401 16.1211 17.1001 15.879 16.5926C15.879 16.5694 15.8697 16.5647 15.8557 16.5507ZM14.1052 19.8515L14.1099 19.8469C14.1099 19.8515 14.1145 19.8515 14.1145 19.8562C14.1099 19.8515 14.1052 19.8515 14.1052 19.8515Z" fill="white"/>
<path d="M22.3083 15.3682C21.7729 13.6783 19.9805 12.6261 18.258 13.0079C17.0056 13.2825 16.2095 14.0693 15.8324 15.2844C15.7859 15.4427 15.7533 15.601 15.7114 15.764C15.7207 15.7686 15.7253 15.7733 15.7346 15.7733C15.9954 15.1913 16.4283 14.7816 16.9963 14.5209C17.5643 14.2602 18.1555 14.1997 18.7701 14.3487C18.7654 14.3813 18.7561 14.4045 18.7514 14.4325C18.1416 14.2928 17.555 14.344 16.9916 14.6187C16.433 14.8934 16.0186 15.2984 15.7952 15.8897C15.8184 15.8803 15.8324 15.8664 15.8417 15.8478C16.1816 15.3962 16.6378 15.2239 17.1918 15.3031C17.5503 15.3543 17.8436 15.5405 18.0997 15.7919C18.2067 15.899 18.3278 15.9967 18.4581 16.0712C18.7933 16.2621 19.1658 16.3133 19.5475 16.2761C19.9665 16.2388 20.3297 16.0759 20.5997 15.7314C20.6695 15.6383 20.7673 15.5591 20.8604 15.4939C21.2934 15.182 21.7822 15.1913 22.2059 15.5126C22.2617 15.5545 22.3129 15.5964 22.3642 15.6383C22.3688 15.6336 22.3735 15.6289 22.3781 15.6243C22.3595 15.5405 22.3362 15.452 22.3083 15.3682Z" fill="white"/>
<path d="M18.5652 16.6392C17.9553 16.2016 17.2617 16.0433 16.5214 16.0666C16.3631 16.0712 16.2095 16.0898 16.0512 16.1038V16.1224C16.0559 16.1271 16.0605 16.1317 16.0698 16.1317C16.7449 16.2016 17.2943 16.5088 17.7319 17.0163C18.0997 17.44 18.3092 17.9381 18.365 18.4968C18.3697 18.5247 18.3371 18.5526 18.3231 18.5806C18.3092 18.5526 18.2812 18.5294 18.2812 18.5014C18.1881 17.4725 17.4572 16.5833 16.4656 16.29C16.3212 16.2481 16.163 16.2295 16.0047 16.2016C16.0093 16.2295 16.0093 16.2342 16.0093 16.2342C16.0279 16.2435 16.0419 16.2481 16.0605 16.2528C16.4469 16.3831 16.7216 16.6345 16.8799 17.0116C17.0661 17.4679 17.0242 17.9148 16.8101 18.3524C16.7542 18.4688 16.6937 18.5899 16.6611 18.7156C16.4842 19.4139 16.8334 20.4614 17.6434 20.7594C18.3185 21.0061 18.5885 21.6625 18.2719 22.3469C18.2673 22.3609 18.2626 22.3795 18.2533 22.4074C18.6816 22.1328 19.0401 21.8069 19.3194 21.3972C19.8641 20.5964 20.055 19.7165 19.8827 18.7668C19.7245 17.8915 19.3008 17.1653 18.5652 16.6392Z" fill="white"/>
<path d="M12.5038 16.8371C12.4805 16.716 12.4572 16.6182 12.4433 16.5158C12.434 16.46 12.4107 16.432 12.3502 16.4181C12.2524 16.3994 12.1593 16.3668 12.0382 16.3389C12.1453 16.2784 12.2338 16.2272 12.3269 16.1806C12.3734 16.1573 12.3921 16.1248 12.3874 16.0689C12.3781 15.9711 12.3734 15.8734 12.3874 15.7616C12.4619 15.8315 12.5364 15.8966 12.6062 15.9665C12.6435 16.0084 12.6807 16.013 12.7319 15.9897C12.825 15.9525 12.9181 15.9153 13.0345 15.8734C12.9833 15.9897 12.9461 16.0782 12.8995 16.1713C12.8762 16.2179 12.8762 16.2551 12.9135 16.297C12.9787 16.3715 13.0392 16.4506 13.123 16.5484C13.0019 16.5344 12.9042 16.5251 12.8111 16.5112C12.7505 16.5019 12.7133 16.5158 12.6807 16.5717C12.6295 16.6508 12.569 16.7346 12.5038 16.8371Z" fill="#EF0000"/>
<path d="M16.042 13.7923C16.0141 13.662 16.0001 13.5595 15.9722 13.4571C15.9629 13.4292 15.9349 13.3966 15.907 13.3873C15.8092 13.3547 15.7068 13.3314 15.5765 13.2988C15.6789 13.243 15.7627 13.1918 15.8465 13.1499C15.9024 13.1219 15.9303 13.0847 15.921 13.0195C15.9117 12.9217 15.907 12.8193 15.9024 12.7029C15.9908 12.7867 16.07 12.8612 16.1538 12.9264C16.177 12.945 16.2282 12.9543 16.2562 12.945C16.3586 12.9124 16.4564 12.8705 16.5728 12.8286C16.5262 12.931 16.489 13.0195 16.4471 13.1033C16.4145 13.1685 16.4145 13.215 16.4657 13.2709C16.5309 13.3361 16.5867 13.4152 16.6612 13.5083C16.5448 13.4944 16.4564 13.4851 16.3679 13.4711C16.2934 13.4571 16.2469 13.4711 16.2096 13.5456C16.1584 13.6201 16.1025 13.6946 16.042 13.7923Z" fill="#EF0000"/>
<path d="M14.8362 20.1704C14.7804 20.2868 14.7431 20.3846 14.6966 20.473C14.6733 20.5196 14.6779 20.5522 14.7105 20.5894C14.7804 20.6639 14.8409 20.7477 14.92 20.8455C14.7943 20.8315 14.6872 20.8176 14.5848 20.8129C14.5522 20.8129 14.5103 20.8315 14.4871 20.8595C14.4265 20.9433 14.3707 21.0364 14.3055 21.1388C14.2822 21.0177 14.2589 20.92 14.2403 20.8176C14.231 20.7617 14.2077 20.7384 14.1519 20.7244C14.0541 20.7012 13.9517 20.6732 13.8353 20.6406C13.9424 20.5801 14.0308 20.5243 14.1193 20.4824C14.1705 20.4544 14.1891 20.4218 14.1844 20.3613C14.1751 20.2635 14.1705 20.1658 14.1612 20.0401C14.2589 20.1285 14.3334 20.203 14.4126 20.2682C14.4358 20.2868 14.4871 20.2961 14.515 20.2868C14.6174 20.2589 14.7105 20.217 14.8362 20.1704Z" fill="#EF0000"/>
<path d="M20.0272 16.2132C20.0039 16.1015 19.9806 16.0084 19.9713 15.9153C19.962 15.8361 19.9247 15.8035 19.8503 15.7896C19.7618 15.7709 19.6733 15.7477 19.5616 15.7151C19.6594 15.6592 19.7339 15.608 19.813 15.5707C19.8968 15.5335 19.9154 15.4776 19.9061 15.3938C19.8922 15.31 19.8922 15.2262 19.9108 15.1331C19.976 15.1936 20.0458 15.2542 20.111 15.3193C20.1622 15.3706 20.2087 15.3845 20.2739 15.3519C20.3577 15.31 20.4508 15.2821 20.5579 15.2402C20.5067 15.3519 20.4694 15.445 20.4229 15.5382C20.395 15.5894 20.4043 15.6266 20.4415 15.6685C20.5067 15.743 20.5672 15.8221 20.6464 15.9153C20.53 15.9013 20.4369 15.8966 20.3484 15.8827C20.2786 15.8687 20.232 15.8827 20.1948 15.9478C20.1482 16.0363 20.0923 16.1154 20.0272 16.2132Z" fill="#EF0000"/>
<path d="M19.5756 20.4637C19.4545 20.4498 19.3614 20.4405 19.2637 20.4265C19.1985 20.4172 19.1612 20.4311 19.1287 20.4917C19.0821 20.5755 19.0216 20.6593 18.9564 20.757C18.9331 20.636 18.9145 20.5382 18.8959 20.4358C18.8866 20.3846 18.8679 20.3567 18.8121 20.3427C18.7143 20.3194 18.6165 20.2915 18.5002 20.2589C18.6026 20.1984 18.691 20.1472 18.7795 20.1006C18.8307 20.0727 18.8493 20.0401 18.84 19.9796C18.8307 19.8864 18.826 19.7887 18.8167 19.663C18.8866 19.7235 18.9424 19.7654 18.9843 19.8166C19.0681 19.9283 19.1612 19.9377 19.2823 19.8725C19.3382 19.8399 19.4033 19.8259 19.4871 19.7933C19.4452 19.8818 19.422 19.9563 19.3801 20.0215C19.3195 20.1146 19.3288 20.1891 19.408 20.2635C19.4639 20.3148 19.5058 20.3799 19.5756 20.4637Z" fill="#EF0000"/>
</svg>
