<svg width="32" height="32" viewBox="0 0 32 32" fill="none" xmlns="http://www.w3.org/2000/svg">
<path d="M1.33333 6V16V26H30.6667V16V6H1.33333Z" fill="#FF3D00"/>
<path d="M6.66666 8.99333L7.45399 11.4933H10L7.93999 12.9113L8.72666 15.3333L6.66666 13.8367L4.60666 15.3333L5.39333 12.9113L3.33333 11.4933H5.87933L6.66666 8.99333ZM11.6493 7.31733L11.8853 8.06733H12.6493L12.0313 8.49133L12.2673 9.21867L11.6493 8.76933L11.0313 9.21867L11.2673 8.49133L10.6493 8.06733H11.4133L11.6493 7.31733ZM11.6667 16L11.9027 16.75H12.6667L12.0487 17.1747L12.2847 17.902L11.6667 17.4527L11.0487 17.902L11.2847 17.1747L10.6667 16.75H11.4307L11.6667 16ZM14.3333 10L14.5693 10.75H15.3333L14.7153 11.1747L14.9513 11.902L14.3333 11.4527L13.7153 11.902L13.9513 11.1747L13.3333 10.75H14.0973L14.3333 10ZM14.3333 13.3333L14.5693 14.0833H15.3333L14.7153 14.508L14.9513 15.2353L14.3333 14.786L13.7153 15.2353L13.9513 14.508L13.3333 14.0833H14.0973L14.3333 13.3333Z" fill="#FFEB3B"/>
</svg>
