<svg width="32" height="32" viewBox="0 0 32 32" fill="none" xmlns="http://www.w3.org/2000/svg">
<g clip-path="url(#clip0_33528_13046)">
<path d="M14.0548 15.6523L14.0797 15.67L1.41269 24.67H30.66V15.6523H14.0548Z" fill="#CC172C"/>
<path d="M30.66 6.66998H1.33V6.67444L14.0548 15.6523H30.66V6.66998Z" fill="#073CA5"/>
<path d="M1.33 6.67444V24.67H1.41269L14.0797 15.67L1.33 6.67444Z" fill="white"/>
<path d="M7.43447 15.7867C7.43447 16.6363 6.78302 17.3251 5.97946 17.3251C5.17591 17.3251 4.52446 16.6363 4.52446 15.7867C4.52446 14.937 5.17591 14.2482 5.97946 14.2482C6.78302 14.2482 7.43447 14.937 7.43447 15.7867Z" fill="#FBD036"/>
<path d="M5.97314 12.5134L5.76901 12.7291L5.87425 14.2531L6.06585 14.2727L6.15251 12.7095L5.97314 12.5134Z" fill="#FBD036"/>
<path d="M6.33821 12.8665L6.16489 14.2794L6.23298 14.2925L6.48663 13.0366L6.33821 12.8665Z" fill="#FBD036"/>
<path d="M5.60202 12.873L5.7752 14.2858L5.7071 14.299L5.4536 13.0431L5.60202 12.873Z" fill="#FBD036"/>
<path d="M8.16419 13.4863L7.87561 13.4844L6.92422 14.6346L7.04567 14.7927L8.1583 13.7591L8.16419 13.4863Z" fill="#FBD036"/>
<path d="M8.18305 14.0091L7.11096 14.8717L7.14987 14.932L8.17303 14.2402L8.18305 14.0091Z" fill="#FBD036"/>
<path d="M7.66131 13.4599L6.83255 14.5831L6.77596 14.5411L7.44259 13.4679L7.66131 13.4599Z" fill="#FBD036"/>
<path d="M9.05366 15.8026L8.85071 15.5855L7.40882 15.6875L7.38922 15.8902L8.86707 15.9911L9.05366 15.8026Z" fill="#FBD036"/>
<path d="M8.71748 16.1864L7.3823 15.9948L7.36963 16.0666L8.5558 16.3423L8.71748 16.1864Z" fill="#FBD036"/>
<path d="M8.71571 15.4081L7.37862 15.5827L7.36653 15.5106L8.5558 15.2501L8.71571 15.4081Z" fill="#FBD036"/>
<path d="M8.13352 18.1039L8.13529 17.7986L7.04743 16.7927L6.89798 16.9212L7.8756 18.0975L8.13352 18.1039Z" fill="#FBD036"/>
<path d="M7.63919 18.1238L6.82326 16.9901L6.76622 17.0313L7.42047 18.1132L7.63919 18.1238Z" fill="#FBD036"/>
<path d="M8.15844 17.5721L7.09622 16.6959L7.13587 16.636L8.15107 17.3409L8.15844 17.5721Z" fill="#FBD036"/>
<path d="M3.78546 18.0917L4.07404 18.0934L5.02543 16.9432L4.90383 16.7852L3.79136 17.8189L3.78546 18.0917Z" fill="#FBD036"/>
<path d="M3.76645 17.5689L4.83869 16.7062L4.79978 16.6458L3.77662 17.3376L3.76645 17.5689Z" fill="#FBD036"/>
<path d="M4.28835 18.1181L5.1171 16.9948L5.1737 17.0367L4.50707 18.1101L4.28835 18.1181Z" fill="#FBD036"/>
<path d="M2.87683 15.7853L3.07978 16.0024L4.52167 15.9004L4.54142 15.6977L3.06357 15.5968L2.87683 15.7853Z" fill="#FBD036"/>
<path d="M3.21317 15.4015L4.5482 15.5931L4.56102 15.5213L3.37485 15.2455L3.21317 15.4015Z" fill="#FBD036"/>
<path d="M3.21478 16.1798L4.55202 16.0053L4.56396 16.0772L3.37485 16.3378L3.21478 16.1798Z" fill="#FBD036"/>
<path d="M3.81598 13.464L3.81436 13.769L4.90208 14.7751L5.05153 14.6466L4.07406 13.4701L3.81598 13.464Z" fill="#FBD036"/>
<path d="M4.31046 13.4439L5.12639 14.5776L5.18343 14.5363L4.52903 13.4545L4.31046 13.4439Z" fill="#FBD036"/>
<path d="M3.79121 13.9956L4.85343 14.8718L4.81378 14.9318L3.79858 14.227L3.79121 13.9956Z" fill="#FBD036"/>
<path d="M5.96194 19.0343L6.16725 18.8197L6.07071 17.2951L5.87911 17.2742L5.7836 18.8369L5.96194 19.0343Z" fill="#FBD036"/>
<path d="M5.59892 18.6788L5.78021 17.267L5.71226 17.2535L5.45139 18.5077L5.59892 18.6788Z" fill="#FBD036"/>
<path d="M6.33511 18.6769L6.16989 17.263L6.23798 17.2503L6.48456 18.5078L6.33511 18.6769Z" fill="#FBD036"/>
<path d="M2.17202 9.40778L2.61389 9.82709L3.12753 9.51227L2.88685 10.0862L3.32886 10.5055L2.73828 10.4408L2.4976 11.0149L2.3732 10.401L1.78262 10.3365L2.29641 10.0216L2.17202 9.40778Z" fill="#FBD036"/>
<path d="M1.76567 21.2369L2.35861 21.203L2.5113 20.5964L2.72487 21.1821L3.3178 21.1482L2.85707 21.5441L3.07078 22.1298L2.57217 21.7887L2.11144 22.1846L2.26413 21.578L1.76567 21.2369Z" fill="#FBD036"/>
<path d="M12.0038 14.9548L12.0358 15.5818L12.6095 15.7431L12.0555 15.9691L12.0876 16.5959L11.7131 16.1088L11.1592 16.3348L11.4819 15.8077L11.1074 15.3204L11.6811 15.4818L12.0038 14.9548Z" fill="#FBD036"/>
</g>
<defs>
<clipPath id="clip0_33528_13046">
<rect width="29.33" height="18" fill="white" transform="translate(1.33 6.66998)"/>
</clipPath>
</defs>
</svg>
