<svg width="112" height="208" viewBox="0 0 112 208" fill="none" xmlns="http://www.w3.org/2000/svg">
<rect x="0.5" y="0.5" width="111" height="207" rx="4.5" stroke="#9747FF" stroke-dasharray="10 5"/>
<g filter="url(#filter0_dd_28870_57869)">
<rect x="16" y="16" width="80" height="80" rx="8" fill="white"/>
</g>
<path d="M60.047 59.543L70.75 50.625L83 61.762V32.999C83 29.6915 80.3085 27 77.001 27H32.999C29.6915 27 27 29.6915 27 32.999V65.3635L46.25 47.1285L60.047 59.543Z" fill="#B6D7FC"/>
<circle cx="72.9995" cy="37" r="4" fill="#FEE048"/>
<path d="M66.0705 51.0228L60.0505 56.0383L51.0555 47.9463C48.343 45.5033 44.2095 45.5558 41.56 48.0688L27 61.8553V69.9963C27 73.3108 29.6845 75.9953 32.999 75.9953H77.001C80.3155 75.9953 83 73.3108 83 69.9963V58.2538L75.258 51.2153C72.675 48.8703 68.7515 48.7863 66.0705 51.0228Z" fill="#25BB71"/>
<path d="M55 27H32.999C29.6915 27 27 29.6915 27 32.999V65.3635V61.8635L41.5565 48.0735C42.904 46.796 44.6365 46.1555 46.3725 46.1555C48.0455 46.1555 49.722 46.754 51.0555 47.951L55 51.5V27Z" fill="#E2EFFE"/>
<path d="M46.3725 46.1484C44.64 46.1484 42.9075 46.7889 41.5565 48.0664L27 61.8564V65.3564V69.9974C27 73.3119 29.6845 75.9964 32.999 75.9964H55V51.4964L51.0555 47.9439C49.722 46.7469 48.0455 46.1484 46.3725 46.1484Z" fill="#40D98D"/>
<g clip-path="url(#clip0_28870_57869)">
<path d="M82 71C82 77.6274 76.6274 83 70 83C63.3726 83 58 77.6274 58 71C58 64.3726 63.3726 59 70 59C76.6274 59 82 64.3726 82 71Z" fill="#157DF5"/>
<path fill-rule="evenodd" clip-rule="evenodd" d="M85 71C85 79.2843 78.2843 86 70 86C61.7157 86 55 79.2843 55 71C55 62.7157 61.7157 56 70 56C78.2843 56 85 62.7157 85 71ZM70 83C76.6274 83 82 77.6274 82 71C82 64.3726 76.6274 59 70 59C63.3726 59 58 64.3726 58 71C58 77.6274 63.3726 83 70 83Z" fill="white"/>
<path d="M70 83C76.6274 83 82 77.6274 82 71C82 64.3726 76.6274 59 70 59V83Z" fill="#0965CD"/>
<path fill-rule="evenodd" clip-rule="evenodd" d="M70 65.2578C70.8284 65.2578 71.5 65.9294 71.5 66.7578L71.5 69.5005H74.2426C75.071 69.5005 75.7426 70.172 75.7426 71.0005C75.7426 71.8289 75.071 72.5005 74.2426 72.5005L71.5 72.5005V75.2431C71.5 76.0715 70.8284 76.7431 70 76.7431C69.1715 76.7431 68.5 76.0715 68.5 75.2431V72.5005L65.7573 72.5005C64.9289 72.5005 64.2573 71.8289 64.2573 71.0005C64.2573 70.172 64.9289 69.5005 65.7573 69.5005H68.5L68.5 66.7578C68.5 65.9294 69.1715 65.2578 70 65.2578Z" fill="white"/>
<path d="M70 76.7431C70.8284 76.7431 71.5 76.0715 71.5 75.2431V72.5005L74.2426 72.5005C75.0711 72.5005 75.7426 71.8289 75.7426 71.0005C75.7426 70.172 75.0711 69.5005 74.2426 69.5005H71.5L71.5 66.7578C71.5 65.9294 70.8284 65.2578 70 65.2578V76.7431Z" fill="#F0F7FE"/>
</g>
<path d="M60.047 155.543L70.75 146.625L83 157.762V128.999C83 125.692 80.3085 123 77.001 123H32.999C29.6915 123 27 125.692 27 128.999V161.364L46.25 143.129L60.047 155.543Z" fill="#B6D7FC"/>
<circle cx="72.9995" cy="133" r="4" fill="#FEE048"/>
<path d="M66.0705 147.023L60.0505 152.038L51.0555 143.946C48.343 141.503 44.2095 141.556 41.56 144.069L27 157.855V165.996C27 169.311 29.6845 171.995 32.999 171.995H77.001C80.3155 171.995 83 169.311 83 165.996V154.254L75.258 147.215C72.675 144.87 68.7515 144.786 66.0705 147.023Z" fill="#25BB71"/>
<path d="M55 123H32.999C29.6915 123 27 125.692 27 128.999V161.364V157.864L41.5565 144.073C42.904 142.796 44.6365 142.155 46.3725 142.155C48.0455 142.155 49.722 142.754 51.0555 143.951L55 147.5V123Z" fill="#E2EFFE"/>
<path d="M46.3725 142.148C44.64 142.148 42.9075 142.789 41.5565 144.066L27 157.856V161.356V165.997C27 169.312 29.6845 171.996 32.999 171.996H55V147.496L51.0555 143.944C49.722 142.747 48.0455 142.148 46.3725 142.148Z" fill="#40D98D"/>
<g clip-path="url(#clip1_28870_57869)">
<path d="M82 167C82 173.627 76.6274 179 70 179C63.3726 179 58 173.627 58 167C58 160.373 63.3726 155 70 155C76.6274 155 82 160.373 82 167Z" fill="#157DF5"/>
<path fill-rule="evenodd" clip-rule="evenodd" d="M85 167C85 175.284 78.2843 182 70 182C61.7157 182 55 175.284 55 167C55 158.716 61.7157 152 70 152C78.2843 152 85 158.716 85 167ZM70 179C76.6274 179 82 173.627 82 167C82 160.373 76.6274 155 70 155C63.3726 155 58 160.373 58 167C58 173.627 63.3726 179 70 179Z" fill="white"/>
<path d="M70 179C76.6274 179 82 173.627 82 167C82 160.373 76.6274 155 70 155V179Z" fill="#0965CD"/>
<path fill-rule="evenodd" clip-rule="evenodd" d="M70 161.258C70.8284 161.258 71.5 161.929 71.5 162.758L71.5 165.5H74.2426C75.071 165.5 75.7426 166.172 75.7426 167C75.7426 167.829 75.071 168.5 74.2426 168.5L71.5 168.5V171.243C71.5 172.072 70.8284 172.743 70 172.743C69.1715 172.743 68.5 172.072 68.5 171.243V168.5L65.7573 168.5C64.9289 168.5 64.2573 167.829 64.2573 167C64.2573 166.172 64.9289 165.5 65.7573 165.5H68.5L68.5 162.758C68.5 161.929 69.1715 161.258 70 161.258Z" fill="white"/>
<path d="M70 172.743C70.8284 172.743 71.5 172.072 71.5 171.243V168.5L74.2426 168.5C75.0711 168.5 75.7426 167.829 75.7426 167C75.7426 166.172 75.0711 165.5 74.2426 165.5H71.5L71.5 162.758C71.5 161.929 70.8284 161.258 70 161.258V172.743Z" fill="#F0F7FE"/>
</g>
<defs>
<filter id="filter0_dd_28870_57869" x="6" y="9" width="100" height="100" filterUnits="userSpaceOnUse" color-interpolation-filters="sRGB">
<feFlood flood-opacity="0" result="BackgroundImageFix"/>
<feColorMatrix in="SourceAlpha" type="matrix" values="0 0 0 0 0 0 0 0 0 0 0 0 0 0 0 0 0 0 127 0" result="hardAlpha"/>
<feOffset dy="3"/>
<feGaussianBlur stdDeviation="5"/>
<feColorMatrix type="matrix" values="0 0 0 0 0.516667 0 0 0 0 0.578358 0 0 0 0 0.775 0 0 0 0.12 0"/>
<feBlend mode="normal" in2="BackgroundImageFix" result="effect1_dropShadow_28870_57869"/>
<feColorMatrix in="SourceAlpha" type="matrix" values="0 0 0 0 0 0 0 0 0 0 0 0 0 0 0 0 0 0 127 0" result="hardAlpha"/>
<feOffset dy="1"/>
<feGaussianBlur stdDeviation="3"/>
<feColorMatrix type="matrix" values="0 0 0 0 0.709809 0 0 0 0 0.788943 0 0 0 0 0.920833 0 0 0 0.15 0"/>
<feBlend mode="normal" in2="effect1_dropShadow_28870_57869" result="effect2_dropShadow_28870_57869"/>
<feBlend mode="normal" in="SourceGraphic" in2="effect2_dropShadow_28870_57869" result="shape"/>
</filter>
<clipPath id="clip0_28870_57869">
<rect width="30" height="30" fill="white" transform="translate(55 56)"/>
</clipPath>
<clipPath id="clip1_28870_57869">
<rect width="30" height="30" fill="white" transform="translate(55 152)"/>
</clipPath>
</defs>
</svg>
