<svg width="112" height="208" viewBox="0 0 112 208" fill="none" xmlns="http://www.w3.org/2000/svg">
<rect x="0.5" y="0.5" width="111" height="207" rx="4.5" stroke="#9747FF" stroke-dasharray="10 5"/>
<g filter="url(#filter0_dd_46179_11414)">
<rect x="16" y="16" width="80" height="80" rx="8" fill="white"/>
</g>
<path d="M65.981 46.6654L76.1173 62.2871L65.981 83.9958C65.516 83.9958 65.0461 83.9771 64.5738 83.9386C62.4636 83.7668 60.4327 83.2266 58.5268 82.3292L48.6078 83.5676C48.0357 83.6398 47.4673 83.4121 47.0912 82.9627C46.7151 82.5122 46.5769 81.8973 46.7259 81.3222L49.1389 71.9797C48.1956 69.4169 47.8086 66.6288 48.0165 63.8744C48.3915 58.9044 50.6146 54.3837 54.2727 51.1438C57.5739 48.2225 61.6861 46.6592 65.981 46.6654Z" fill="#09C369"/>
<path d="M83.944 66.7923C83.205 76.5581 75.2964 84 65.9927 84H65.9795V46.6696C66.4458 46.6709 66.9156 46.6908 67.3855 46.7281C72.184 47.1177 76.5498 49.4191 79.6779 53.2079C82.8048 56.998 84.3201 61.8223 83.944 66.7923Z" fill="#25BB71"/>
<path d="M65.9806 56.3693C65.1286 56.3792 64.3715 56.9107 64.0483 57.7297C64.0423 57.7434 64.0375 57.7583 64.0315 57.772L58.8881 71.7609C58.5336 72.7243 59.0011 73.8035 59.9312 74.1706C60.8613 74.5366 61.902 74.0536 62.2565 73.0903L63.0953 70.8088H65.9806L68.1523 68.8603L65.9806 67.0747H64.4689L65.9806 62.9648L67.8586 60.9015L65.9806 56.3693Z" fill="white"/>
<path d="M72.0239 74.1787C71.8148 74.2609 71.5997 74.2994 71.3882 74.2994C70.66 74.2994 69.9738 73.8389 69.701 73.0909L68.8718 70.8156H65.9805V67.0816H67.5115L65.9973 62.9256L65.9805 62.9716V56.3761H66.0009H66.0033C66.8637 56.3761 67.6304 56.9088 67.9573 57.7328C67.9645 57.749 67.9705 57.7664 67.9765 57.7838L73.0742 71.7728C73.425 72.7374 72.9553 73.8153 72.0239 74.1787Z" fill="#F0F7FE"/>
<path d="M46.2009 28.0002L52.7901 40.9451L46.2009 65.3252C36.1645 65.3252 28 56.9536 28 46.6627C28 36.3718 36.1645 28.0002 46.2009 28.0002Z" fill="#157DF5"/>
<path d="M65.2996 30.1518L63.3125 40.2983C64.0347 42.3358 64.4001 44.4742 64.4001 46.6673C64.4001 56.9582 56.2355 65.3298 46.1992 65.3298V28.0048C48.8928 28.0048 51.5743 28.6234 53.9923 29.7971L63.2651 28.0347C63.8368 27.9276 64.4219 28.1156 64.831 28.54C65.2377 28.9644 65.4137 29.5681 65.2996 30.1518Z" fill="#0965CD"/>
<path d="M46.1735 40.9506H46.2002L48.6045 39.1528L46.2002 37.2166H46.1735C41.3544 37.2166 37.4336 41.2369 37.4336 46.1782C37.4336 51.1195 41.3544 55.1398 46.1735 55.1398H46.2002L48.6045 52.8222L46.2002 51.4058H46.1735C43.3622 51.4058 41.0752 49.0608 41.0752 46.1782C41.0752 43.2956 43.3622 40.9506 46.1735 40.9506Z" fill="white"/>
<path d="M54.4317 54.5349C54.0761 54.8996 53.6111 55.0825 53.145 55.0825C52.6789 55.0825 52.2128 54.8996 51.8571 54.5349L50.9928 53.6487C49.6175 54.5847 47.9703 55.1348 46.1992 55.1398V51.4058C46.9591 51.4021 47.6789 51.2253 48.3259 50.9142L47.4301 49.9956C46.7188 49.2675 46.7188 48.085 47.4301 47.3557C48.1414 46.6263 49.2946 46.6263 50.0059 47.3557L50.8593 48.2319C51.1239 47.6009 51.2708 46.9076 51.2708 46.1782C51.2708 43.3043 48.9984 40.9656 46.1992 40.9506V37.2166C51.0062 37.2316 54.9124 41.2456 54.9124 46.1782C54.9124 47.9456 54.4087 49.5936 53.5432 50.9839L54.4317 51.8949C55.1431 52.6243 55.1431 53.8055 54.4317 54.5349Z" fill="#F0F7FE"/>
<path d="M65.981 142.665L76.1173 158.287L65.981 179.996C65.516 179.996 65.0461 179.977 64.5738 179.939C62.4636 179.767 60.4327 179.227 58.5268 178.329L48.6078 179.568C48.0357 179.64 47.4673 179.412 47.0912 178.963C46.7151 178.512 46.5769 177.897 46.7259 177.322L49.1389 167.98C48.1956 165.417 47.8086 162.629 48.0165 159.874C48.3915 154.904 50.6146 150.384 54.2727 147.144C57.5739 144.223 61.6861 142.659 65.981 142.665Z" fill="#09C369"/>
<path d="M83.944 162.792C83.205 172.558 75.2964 180 65.9927 180H65.9795V142.67C66.4458 142.671 66.9156 142.691 67.3855 142.728C72.184 143.118 76.5498 145.419 79.6779 149.208C82.8048 152.998 84.3201 157.822 83.944 162.792Z" fill="#25BB71"/>
<path d="M65.9806 152.369C65.1286 152.379 64.3715 152.911 64.0483 153.73C64.0423 153.743 64.0375 153.758 64.0315 153.772L58.8881 167.761C58.5336 168.724 59.0011 169.803 59.9312 170.171C60.8613 170.537 61.902 170.054 62.2565 169.09L63.0953 166.809H65.9806L68.1523 164.86L65.9806 163.075H64.4689L65.9806 158.965L67.8586 156.901L65.9806 152.369Z" fill="white"/>
<path d="M72.0239 170.179C71.8148 170.261 71.5997 170.299 71.3882 170.299C70.66 170.299 69.9738 169.839 69.701 169.091L68.8718 166.816H65.9805V163.082H67.5115L65.9973 158.926L65.9805 158.972V152.376H66.0009H66.0033C66.8637 152.376 67.6304 152.909 67.9573 153.733C67.9645 153.749 67.9705 153.766 67.9765 153.784L73.0742 167.773C73.425 168.737 72.9553 169.815 72.0239 170.179Z" fill="#F0F7FE"/>
<path d="M46.2009 124L52.7901 136.945L46.2009 161.325C36.1645 161.325 28 152.954 28 142.663C28 132.372 36.1645 124 46.2009 124Z" fill="#157DF5"/>
<path d="M65.2996 126.152L63.3125 136.298C64.0347 138.336 64.4001 140.474 64.4001 142.667C64.4001 152.958 56.2355 161.33 46.1992 161.33V124.005C48.8928 124.005 51.5743 124.623 53.9923 125.797L63.2651 124.035C63.8368 123.928 64.4219 124.116 64.831 124.54C65.2377 124.964 65.4137 125.568 65.2996 126.152Z" fill="#0965CD"/>
<path d="M46.1735 136.951H46.2002L48.6045 135.153L46.2002 133.217H46.1735C41.3544 133.217 37.4336 137.237 37.4336 142.178C37.4336 147.12 41.3544 151.14 46.1735 151.14H46.2002L48.6045 148.822L46.2002 147.406H46.1735C43.3622 147.406 41.0752 145.061 41.0752 142.178C41.0752 139.296 43.3622 136.951 46.1735 136.951Z" fill="white"/>
<path d="M54.4317 150.535C54.0761 150.9 53.6111 151.083 53.145 151.083C52.6789 151.083 52.2128 150.9 51.8571 150.535L50.9928 149.649C49.6175 150.585 47.9703 151.135 46.1992 151.14V147.406C46.9591 147.402 47.6789 147.225 48.3259 146.914L47.4301 145.996C46.7188 145.267 46.7188 144.085 47.4301 143.356C48.1414 142.626 49.2946 142.626 50.0059 143.356L50.8593 144.232C51.1239 143.601 51.2708 142.908 51.2708 142.178C51.2708 139.304 48.9984 136.966 46.1992 136.951V133.217C51.0062 133.232 54.9124 137.246 54.9124 142.178C54.9124 143.946 54.4087 145.594 53.5432 146.984L54.4317 147.895C55.1431 148.624 55.1431 149.806 54.4317 150.535Z" fill="#F0F7FE"/>
<defs>
<filter id="filter0_dd_46179_11414" x="6" y="9" width="100" height="100" filterUnits="userSpaceOnUse" color-interpolation-filters="sRGB">
<feFlood flood-opacity="0" result="BackgroundImageFix"/>
<feColorMatrix in="SourceAlpha" type="matrix" values="0 0 0 0 0 0 0 0 0 0 0 0 0 0 0 0 0 0 127 0" result="hardAlpha"/>
<feOffset dy="3"/>
<feGaussianBlur stdDeviation="5"/>
<feColorMatrix type="matrix" values="0 0 0 0 0.516667 0 0 0 0 0.578358 0 0 0 0 0.775 0 0 0 0.12 0"/>
<feBlend mode="normal" in2="BackgroundImageFix" result="effect1_dropShadow_46179_11414"/>
<feColorMatrix in="SourceAlpha" type="matrix" values="0 0 0 0 0 0 0 0 0 0 0 0 0 0 0 0 0 0 127 0" result="hardAlpha"/>
<feOffset dy="1"/>
<feGaussianBlur stdDeviation="3"/>
<feColorMatrix type="matrix" values="0 0 0 0 0.709809 0 0 0 0 0.788943 0 0 0 0 0.920833 0 0 0 0.15 0"/>
<feBlend mode="normal" in2="effect1_dropShadow_46179_11414" result="effect2_dropShadow_46179_11414"/>
<feBlend mode="normal" in="SourceGraphic" in2="effect2_dropShadow_46179_11414" result="shape"/>
</filter>
</defs>
</svg>
