<svg width="112" height="200" viewBox="0 0 112 200" fill="none" xmlns="http://www.w3.org/2000/svg">
<rect x="0.5" y="0.5" width="111" height="199" rx="4.5" stroke="#9747FF" stroke-dasharray="10 5"/>
<g filter="url(#filter0_d_47108_11689)">
<rect x="16" y="16" width="80" height="80" rx="8" fill="white"/>
</g>
<g clip-path="url(#clip0_47108_11689)">
<path d="M68.8412 61.1936C68.8412 61.7058 68.4541 62.1352 67.9446 62.1882L38.7502 65.2238V37.0699L67.9446 40.1037C68.4541 40.1567 68.8412 40.5861 68.8412 41.0984V61.1936Z" fill="#08A559"/>
<path d="M38.7574 65.224V37.0701L28 40.2046V62.0895L38.7574 65.224Z" fill="#09C369"/>
<path d="M44.1678 59.0653C43.4568 59.0653 42.8798 58.4743 42.8798 57.7461V46.9672C42.8798 46.239 43.4568 45.6479 44.1678 45.6479C44.8788 45.6479 45.4559 46.239 45.4559 46.9672V57.7461C45.4559 58.4743 44.8788 59.0653 44.1678 59.0653Z" fill="#BAF7DA"/>
<path d="M51.4972 58.1864C50.7862 58.1864 50.2092 57.5954 50.2092 56.8671V48.6512C50.2092 47.9229 50.7862 47.3319 51.4972 47.3319C52.2082 47.3319 52.7853 47.9229 52.7853 48.6512V56.8671C52.7853 57.5954 52.2082 58.1864 51.4972 58.1864Z" fill="#BAF7DA"/>
<path d="M58.0444 57.3075C57.3333 57.3075 56.7563 56.7165 56.7563 55.9882V46.3136C56.7563 45.5854 57.3333 44.9944 58.0444 44.9944C58.7554 44.9944 59.3324 45.5854 59.3324 46.3136V55.9882C59.3324 56.7165 58.7554 57.3075 58.0444 57.3075Z" fill="#BAF7DA"/>
<path d="M64.4564 56.8803C63.7454 56.8803 63.1683 56.2893 63.1683 55.5611V47.2057C63.1683 46.4774 63.7454 45.8864 64.4564 45.8864C65.1674 45.8864 65.7445 46.4774 65.7445 47.2057V55.5611C65.7445 56.2893 65.1674 56.8803 64.4564 56.8803Z" fill="#BAF7DA"/>
<path d="M45.4559 51.1478H42.8798V57.7438C42.8798 58.472 43.4568 59.063 44.1678 59.063C44.8788 59.063 45.4559 58.472 45.4559 57.7438V51.1478Z" fill="#2CE88D"/>
<path d="M52.7853 51.1478H50.2092V56.8645C50.2092 57.5928 50.7862 58.1838 51.4972 58.1838C52.2082 58.1838 52.7853 57.5928 52.7853 56.8645V51.1478Z" fill="#2CE88D"/>
<path d="M59.3324 51.1478H56.7563V55.9851C56.7563 56.7133 57.3333 57.3043 58.0444 57.3043C58.7554 57.3043 59.3324 56.7133 59.3324 55.9851V51.1478Z" fill="#2CE88D"/>
<path d="M65.7445 51.1662H63.1683V55.5638C63.1683 56.292 63.7454 56.883 64.4564 56.883C65.1674 56.883 65.7445 56.292 65.7445 55.5638V51.1662Z" fill="#2CE88D"/>
<path d="M31.9271 63.2325V39.0591L34.5032 38.3085V63.9832L31.9271 63.2325Z" fill="#BAF7DA"/>
<path d="M31.9271 51.5489H34.5032V63.984L31.9271 63.2334V51.5489Z" fill="#2CE88D"/>
<path d="M28 71.7092C28 70.8907 28.6478 70.2272 29.447 70.2272H39.4555V80.4777C39.4555 81.2962 38.8076 81.9597 38.0084 81.9597H29.447C28.6478 81.9597 28 81.2962 28 80.4777V71.7092Z" fill="#B6D7FC"/>
<path d="M32.5822 80.7246L29.6881 80.7246C29.4218 80.7246 29.2058 80.5034 29.2058 80.2306L29.2058 77.2666C29.2058 76.9938 29.4218 76.7726 29.6881 76.7726C29.9545 76.7726 30.1705 76.9938 30.1705 77.2666L30.1705 79.7366L32.5822 79.7366C32.8485 79.7366 33.0645 79.9578 33.0645 80.2306C33.0645 80.5034 32.8485 80.7246 32.5822 80.7246Z" fill="#E2EFFE"/>
<path d="M33.7277 70.2272H38.0084C38.8076 70.2272 39.4554 70.8907 39.4554 71.7092V80.4777C39.4554 81.2962 38.8076 81.9597 38.0084 81.9597H33.7277V70.2272Z" fill="#9DC9FB"/>
<path d="M39.4554 70.2272H49.4639C50.2631 70.2272 50.9109 70.8907 50.9109 71.7092V80.4777C50.9109 81.2962 50.2631 81.9597 49.4639 81.9597H40.9024C40.1033 81.9597 39.4554 81.2962 39.4554 80.4777V70.2272Z" fill="#B6D7FC"/>
<path d="M33.7277 59.9768C33.7277 59.1583 34.3756 58.4948 35.1747 58.4948H43.7362C44.5353 58.4948 45.1832 59.1583 45.1832 59.9768V68.7453C45.1832 69.5638 44.5353 70.2273 43.7362 70.2273H35.1747C34.3756 70.2273 33.7277 69.5638 33.7277 68.7453V59.9768Z" fill="#157DF5"/>
<path d="M35.235 61.6438C35.235 61.1322 35.64 60.7175 36.1394 60.7175C36.6389 60.7175 37.0438 61.1322 37.0438 61.6438V71.5237C37.0438 72.0353 36.6389 72.45 36.1394 72.45C35.64 72.45 35.235 72.0353 35.235 71.5237V61.6438Z" fill="#157DF5"/>
<path d="M38.5511 64.2378C38.5511 63.7262 38.956 63.3115 39.4555 63.3115C39.9549 63.3115 40.3598 63.7262 40.3598 64.2378V74.1177C40.3598 74.6293 39.9549 75.044 39.4555 75.044C38.956 75.044 38.5511 74.6293 38.5511 74.1177V64.2378Z" fill="#157DF5"/>
<path d="M39.4554 58.4948H43.7362C44.5353 58.4948 45.1832 59.1583 45.1832 59.9768V68.7453C45.1832 69.5638 44.5353 70.2273 43.7362 70.2273H39.4554V58.4948Z" fill="#0965CD"/>
<path d="M45.1832 70.2272H49.4639C50.263 70.2272 50.9109 70.8907 50.9109 71.7092V80.4777C50.9109 81.2962 50.263 81.9597 49.4639 81.9597H45.1832V70.2272Z" fill="#9DC9FB"/>
<path d="M39.4554 63.3115C39.9549 63.3115 40.3598 63.7262 40.3598 64.2378V74.1177C40.3598 74.6293 39.9549 75.044 39.4554 75.044V63.3115Z" fill="#0965CD"/>
<path d="M34.9335 63.1879V60.2239C34.9335 59.9511 35.1495 59.7299 35.4159 59.7299H38.3099C38.5763 59.7299 38.7922 59.9511 38.7922 60.2239C38.7922 60.4967 38.5763 60.7179 38.3099 60.7179H35.8982V63.1879C35.8982 63.4607 35.6823 63.6819 35.4159 63.6819C35.1495 63.6819 34.9335 63.4607 34.9335 63.1879Z" fill="#9DC9FB"/>
<path d="M44.0376 80.7246L41.1436 80.7246C40.8772 80.7246 40.6613 80.5034 40.6613 80.2306L40.6613 77.2666C40.6613 76.9938 40.8772 76.7726 41.1436 76.7726C41.41 76.7726 41.6259 76.9938 41.6259 77.2666L41.6259 79.7366L44.0376 79.7366C44.304 79.7366 44.5199 79.9578 44.5199 80.2306C44.5199 80.5034 44.304 80.7246 44.0376 80.7246Z" fill="#E2EFFE"/>
<path d="M40.2051 69.4772V80.4772C40.2051 81.6928 39.2388 82.7095 38.0088 82.7097H29.4473C28.2171 82.7097 27.25 81.6929 27.25 80.4772V71.7097C27.25 70.494 28.2171 69.4772 29.4473 69.4772H40.2051Z" fill="#B6D7FC" stroke="white" stroke-width="1.5"/>
<path d="M28.4558 77.2666L28.4617 77.1426C28.5228 76.5273 29.0343 76.0225 29.6882 76.0225C30.3856 76.0225 30.9206 76.5966 30.9207 77.2666L30.9207 78.9863L32.5818 78.9863C33.2791 78.9863 33.8141 79.5605 33.8142 80.2305C33.8142 80.9005 33.2792 81.4746 32.5818 81.4746L29.6882 81.4746C28.9908 81.4746 28.4558 80.9005 28.4558 80.2305L28.4558 77.2666Z" fill="#E2EFFE" stroke="white" stroke-width="1.5" stroke-linecap="round" stroke-linejoin="round"/>
<path d="M38.008 69.4772C39.2382 69.4772 40.2053 70.494 40.2053 71.7097V80.4772C40.2053 81.6929 39.2382 82.7097 38.008 82.7097H32.9777V69.4772H38.008Z" fill="#9DC9FB" stroke="white" stroke-width="1.5"/>
<path d="M49.4642 69.4772C50.6942 69.4774 51.6605 70.4941 51.6605 71.7097V80.4772C51.6605 81.6928 50.6942 82.7095 49.4642 82.7097H40.9027C39.6725 82.7097 38.7054 81.6929 38.7054 80.4772V69.4772H49.4642Z" fill="#B6D7FC" stroke="white" stroke-width="1.5"/>
<path d="M43.7365 57.7448C44.9665 57.745 45.9328 58.7616 45.9328 59.9772V68.7448C45.9328 69.9604 44.9665 70.977 43.7365 70.9772H35.175C33.9448 70.9772 32.9777 69.9605 32.9777 68.7448V59.9772C32.9777 58.7615 33.9448 57.7448 35.175 57.7448H43.7365Z" fill="#157DF5" stroke="white" stroke-width="1.5"/>
<path d="M36.1393 59.9675C37.0697 59.9675 37.7934 60.7347 37.7936 61.6433V71.5242C37.7934 72.4328 37.0697 73.2 36.1393 73.2C35.2091 73.1999 34.4853 72.4327 34.485 71.5242V61.6433C34.4853 60.7348 35.2091 59.9676 36.1393 59.9675Z" fill="#157DF5" stroke="white" stroke-width="1.5"/>
<path d="M39.4554 62.5615C40.3857 62.5615 41.1094 63.3287 41.1097 64.2373V74.1182C41.1094 75.0267 40.3857 75.7939 39.4554 75.7939C38.5251 75.7939 37.8013 75.0267 37.8011 74.1182V64.2373C37.8013 63.3288 38.5251 62.5616 39.4554 62.5615Z" fill="#157DF5" stroke="white" stroke-width="1.5"/>
<path d="M43.7357 57.7448C44.9659 57.7448 45.933 58.7615 45.933 59.9772V68.7448C45.933 69.9605 44.9659 70.9772 43.7357 70.9772H38.7054V57.7448H43.7357Z" fill="#0965CD" stroke="white" stroke-width="1.5"/>
<path d="M49.4634 69.4772C50.6936 69.4772 51.6607 70.494 51.6607 71.7097V80.4772C51.6607 81.6929 50.6936 82.7097 49.4634 82.7097H44.4332V69.4772H49.4634Z" fill="#9DC9FB" stroke="white" stroke-width="1.5"/>
<path d="M39.4554 62.5615C40.3858 62.5615 41.1095 63.3287 41.1097 64.2373V74.1182C41.1095 75.0267 40.3858 75.7939 39.4554 75.7939H38.7054V62.5615H39.4554Z" fill="#0965CD" stroke="white" stroke-width="1.5"/>
<path d="M38.3095 58.9799C39.0069 58.9799 39.5419 59.554 39.5419 60.2241C39.5419 60.894 39.0069 61.4682 38.3095 61.4682H36.6484V63.1879C36.6484 63.8579 36.1133 64.432 35.416 64.4321C34.7186 64.4321 34.1835 63.858 34.1835 63.1879V60.2241L34.1894 60.0991C34.2509 59.4841 34.7623 58.9799 35.416 58.9799H38.3095Z" fill="#9DC9FB" stroke="white" stroke-width="1.5" stroke-linecap="round" stroke-linejoin="round"/>
<path d="M39.9113 77.2666L39.9171 77.1426C39.9783 76.5273 40.4897 76.0225 41.1437 76.0225C41.841 76.0225 42.3761 76.5966 42.3761 77.2666L42.3761 78.9863L44.0372 78.9863C44.7346 78.9863 45.2696 79.5605 45.2697 80.2305C45.2697 80.9005 44.7346 81.4746 44.0372 81.4746L41.1437 81.4746C40.4463 81.4746 39.9113 80.9005 39.9113 80.2305L39.9113 77.2666Z" fill="#E2EFFE" stroke="white" stroke-width="1.5" stroke-linecap="round" stroke-linejoin="round"/>
<path d="M28 71.7092C28 70.8907 28.6478 70.2272 29.447 70.2272H39.4555V80.4777C39.4555 81.2962 38.8076 81.9597 38.0084 81.9597H29.447C28.6478 81.9597 28 81.2962 28 80.4777V71.7092Z" fill="#B6D7FC"/>
<path d="M32.5822 80.7246L29.6881 80.7246C29.4218 80.7246 29.2058 80.5034 29.2058 80.2306L29.2058 77.2666C29.2058 76.9938 29.4218 76.7726 29.6881 76.7726C29.9545 76.7726 30.1705 76.9938 30.1705 77.2666L30.1705 79.7366L32.5822 79.7366C32.8485 79.7366 33.0645 79.9578 33.0645 80.2306C33.0645 80.5034 32.8485 80.7246 32.5822 80.7246Z" fill="#E2EFFE"/>
<path d="M33.7277 70.2272H38.0084C38.8076 70.2272 39.4554 70.8907 39.4554 71.7092V80.4777C39.4554 81.2962 38.8076 81.9597 38.0084 81.9597H33.7277V70.2272Z" fill="#9DC9FB"/>
<path d="M39.4554 70.2272H49.4639C50.2631 70.2272 50.9109 70.8907 50.9109 71.7092V80.4777C50.9109 81.2962 50.2631 81.9597 49.4639 81.9597H40.9024C40.1033 81.9597 39.4554 81.2962 39.4554 80.4777V70.2272Z" fill="#B6D7FC"/>
<path d="M33.7277 59.9768C33.7277 59.1583 34.3756 58.4948 35.1747 58.4948H43.7362C44.5353 58.4948 45.1832 59.1583 45.1832 59.9768V68.7453C45.1832 69.5638 44.5353 70.2273 43.7362 70.2273H35.1747C34.3756 70.2273 33.7277 69.5638 33.7277 68.7453V59.9768Z" fill="#157DF5"/>
<path d="M35.235 61.6438C35.235 61.1322 35.64 60.7175 36.1394 60.7175C36.6389 60.7175 37.0438 61.1322 37.0438 61.6438V71.5237C37.0438 72.0353 36.6389 72.45 36.1394 72.45C35.64 72.45 35.235 72.0353 35.235 71.5237V61.6438Z" fill="#157DF5"/>
<path d="M38.5511 64.2378C38.5511 63.7262 38.956 63.3115 39.4555 63.3115C39.9549 63.3115 40.3598 63.7262 40.3598 64.2378V74.1177C40.3598 74.6293 39.9549 75.044 39.4555 75.044C38.956 75.044 38.5511 74.6293 38.5511 74.1177V64.2378Z" fill="#157DF5"/>
<path d="M39.4554 58.4948H43.7362C44.5353 58.4948 45.1832 59.1583 45.1832 59.9768V68.7453C45.1832 69.5638 44.5353 70.2273 43.7362 70.2273H39.4554V58.4948Z" fill="#0965CD"/>
<path d="M45.1832 70.2272H49.4639C50.263 70.2272 50.9109 70.8907 50.9109 71.7092V80.4777C50.9109 81.2962 50.263 81.9597 49.4639 81.9597H45.1832V70.2272Z" fill="#9DC9FB"/>
<path d="M39.4554 63.3115C39.9549 63.3115 40.3598 63.7262 40.3598 64.2378V74.1177C40.3598 74.6293 39.9549 75.044 39.4554 75.044V63.3115Z" fill="#0965CD"/>
<path d="M34.9335 63.1879V60.2239C34.9335 59.9511 35.1495 59.7299 35.4159 59.7299H38.3099C38.5763 59.7299 38.7922 59.9511 38.7922 60.2239C38.7922 60.4967 38.5763 60.7179 38.3099 60.7179H35.8982V63.1879C35.8982 63.4607 35.6823 63.6819 35.4159 63.6819C35.1495 63.6819 34.9335 63.4607 34.9335 63.1879Z" fill="#9DC9FB"/>
<path d="M44.0376 80.7246L41.1436 80.7246C40.8772 80.7246 40.6613 80.5034 40.6613 80.2306L40.6613 77.2666C40.6613 76.9938 40.8772 76.7726 41.1436 76.7726C41.41 76.7726 41.6259 76.9938 41.6259 77.2666L41.6259 79.7366L44.0376 79.7366C44.304 79.7366 44.5199 79.9578 44.5199 80.2306C44.5199 80.5034 44.304 80.7246 44.0376 80.7246Z" fill="#E2EFFE"/>
<path d="M74.7751 28.0001C76.7208 28.0001 78.2982 29.6157 78.2982 31.6084V34.9712H75.5457V39.1188C77.1208 39.4788 78.2982 40.9187 78.2982 42.6403V42.8204C81.7639 43.4281 84.4022 46.5181 84.4022 50.2408V50.8531C84.7727 51.2738 85 51.83 85 52.4444C84.9999 53.0592 84.7722 53.6147 84.4022 54.0346V72.6702C84.7727 73.0909 85 73.6471 85 74.2615C84.9999 74.8763 84.7722 75.4318 84.4022 75.8517V79.4117C84.4021 81.9467 82.3948 84.0001 79.9211 84.0001H61.9705C59.5733 84.0001 57.6166 82.0722 57.4967 79.6476L57.4904 79.4117V75.8528C57.1647 75.4837 56.9482 75.0101 56.901 74.4824L56.8915 74.2615C56.8915 73.6463 57.1194 73.0898 57.4904 72.6691V54.0357C57.1647 53.6666 56.9482 53.193 56.901 52.6653L56.8915 52.4444C56.8915 51.8292 57.1194 51.2727 57.4904 50.852V50.2408C57.4904 46.5184 60.1276 43.4282 63.5933 42.8204V42.6403C63.5933 40.9187 64.7708 39.4788 66.3458 39.1188V34.9712H63.5933V31.6084C63.5933 29.6157 65.1707 28.0001 67.1164 28.0001H74.7751Z" fill="white"/>
<path d="M58.9557 50.308C58.9557 47.0974 61.5584 44.4946 64.7691 44.4946H77.1226C80.3333 44.4946 82.936 47.0974 82.936 50.308V79.1329C82.936 80.7382 81.6346 82.0396 80.0293 82.0396H61.8624C60.2571 82.0396 58.9557 80.7382 58.9557 79.1329V50.308Z" fill="#157DF5"/>
<path d="M70.9459 44.4946H77.1226C80.3333 44.4946 82.936 47.0974 82.936 50.308V79.1329C82.936 80.7382 81.6347 82.0396 80.0293 82.0396H70.9459V44.4946Z" fill="#0965CD"/>
<path d="M65.1325 42.7981C65.1325 41.7279 66.0001 40.8603 67.0703 40.8603H74.8215C75.8918 40.8603 76.7593 41.7279 76.7593 42.7981V44.4937H65.1325V42.7981Z" fill="#BDCBDB"/>
<path d="M70.9459 44.4937C70.9459 42.487 72.5726 40.8603 74.5792 40.8603H74.8215C75.8917 40.8603 76.7593 41.7279 76.7593 42.7981V44.4937H70.9459Z" fill="#7B97B7"/>
<path d="M58.3501 52.4857C58.3501 52.0844 58.6754 51.759 59.0768 51.759H82.8149C83.2162 51.759 83.5416 52.0844 83.5416 52.4857C83.5416 52.887 83.2162 53.2124 82.8149 53.2124H59.0768C58.6754 53.2124 58.3501 52.887 58.3501 52.4857Z" fill="#BDCBDB"/>
<path d="M58.3501 74.0437C58.3501 73.6424 58.6754 73.317 59.0768 73.317H82.8149C83.2162 73.317 83.5416 73.6424 83.5416 74.0437C83.5416 74.445 83.2162 74.7704 82.8149 74.7704H59.0768C58.6754 74.7704 58.3501 74.445 58.3501 74.0437Z" fill="#BDCBDB"/>
<path d="M70.9459 51.759H82.8149C83.2163 51.759 83.5416 52.0844 83.5416 52.4857C83.5416 52.887 83.2163 53.2124 82.8149 53.2124H70.9459V51.759Z" fill="#7B97B7"/>
<path d="M70.9459 73.317H82.8149C83.2163 73.317 83.5416 73.6424 83.5416 74.0437C83.5416 74.445 83.2163 74.7704 82.8149 74.7704H70.9459V73.317Z" fill="#7B97B7"/>
<path d="M65.1325 31.8973C65.1325 30.8271 66.0001 29.9595 67.0703 29.9595H74.8215C75.8918 29.9595 76.7593 30.8271 76.7593 31.8973V33.5929H65.1325V31.8973Z" fill="#BDCBDB"/>
<path d="M70.9459 29.9595H74.8215C75.8917 29.9595 76.7593 30.8271 76.7593 31.8973V33.5929H70.9459V29.9595Z" fill="#7B97B7"/>
<path d="M67.9181 33.5917H73.9737V40.8584H67.9181V33.5917Z" fill="#7B97B7"/>
<path d="M70.9459 33.5917H73.9737V40.8584H70.9459V33.5917Z" fill="#5A7DA5"/>
<path fill-rule="evenodd" clip-rule="evenodd" d="M62.2474 44.1237C61.9971 43.5049 61.8683 42.8415 61.8683 42.1716C61.8683 41.5018 61.9971 40.8384 62.2474 40.2195C62.4977 39.6007 62.8646 39.0383 63.3271 38.5646C63.7896 38.091 64.3386 37.7152 64.9429 37.4589C65.5472 37.2025 66.1949 37.0706 66.8489 37.0706C67.503 37.0706 68.1506 37.2025 68.7549 37.4589C69.3592 37.7152 69.9083 38.091 70.3708 38.5646C70.8333 39.0383 71.2001 39.6006 71.4504 40.2195C71.7007 40.8384 71.8295 41.5018 71.8295 42.1716C71.8295 42.8415 71.7007 43.5049 71.4504 44.1237C71.2001 44.7426 70.8332 45.305 70.3708 45.7787C69.9083 46.2523 69.3592 46.6281 68.7549 46.8844C68.1506 47.1408 67.503 47.2727 66.8489 47.2727C66.1949 47.2727 65.5472 47.1408 64.9429 46.8844C64.3386 46.6281 63.7896 46.2523 63.3271 45.7787C62.8646 45.305 62.4977 44.7426 62.2474 44.1237ZM63.1677 43.7333C62.9675 43.2382 62.8644 42.7076 62.8644 42.1716C62.8644 41.6357 62.9675 41.1051 63.1677 40.61C63.368 40.1148 63.6615 39.665 64.0314 39.286C64.4014 38.9071 64.8407 38.6065 65.3241 38.4014C65.8075 38.1963 66.3257 38.0908 66.8489 38.0908C67.3722 38.0908 67.8903 38.1963 68.3737 38.4014C68.8571 38.6065 69.2964 38.9071 69.6664 39.286C70.0364 39.665 70.3299 40.1148 70.5301 40.61C70.7304 41.1051 70.8334 41.6357 70.8334 42.1716C70.8334 42.7076 70.7304 43.2382 70.5301 43.7333C70.3299 44.2284 70.0364 44.6783 69.6664 45.0573C69.2964 45.4362 68.8571 45.7368 68.3737 45.9419C67.8903 46.147 67.3722 46.2525 66.8489 46.2525C66.3257 46.2525 65.8075 46.147 65.3241 45.9419C64.8407 45.7368 64.4014 45.4362 64.0314 45.0573C63.6615 44.6783 63.368 44.2284 63.1677 43.7333Z" fill="white"/>
<path d="M62.8644 42.169C62.8644 42.7049 62.9675 43.2356 63.1677 43.7307C63.368 44.2258 63.6615 44.6757 64.0315 45.0546C64.4015 45.4336 64.8407 45.7342 65.3241 45.9392C65.8076 46.1443 66.3257 46.2499 66.8489 46.2499C67.3722 46.2499 67.8903 46.1443 68.3737 45.9392C68.8572 45.7342 69.2964 45.4336 69.6664 45.0546C70.0364 44.6757 70.3299 44.2258 70.5301 43.7307C70.7304 43.2356 70.8335 42.7049 70.8335 42.169C70.8335 41.6331 70.7304 41.1024 70.5301 40.6073C70.3299 40.1122 70.0364 39.6623 69.6664 39.2834C69.2964 38.9045 68.8572 38.6039 68.3737 38.3988C67.8903 38.1937 67.3722 38.0881 66.8489 38.0881C66.3257 38.0881 65.8076 38.1937 65.3241 38.3988C64.8407 38.6039 64.4015 38.9045 64.0315 39.2834C63.6615 39.6623 63.368 40.1122 63.1677 40.6073C62.9675 41.1024 62.8644 41.6331 62.8644 42.169Z" fill="#FDAA49"/>
<path d="M66.8489 38.0881C67.3722 38.0881 67.8903 38.1937 68.3738 38.3987C68.8572 38.6038 69.2965 38.9045 69.6665 39.2835C70.0364 39.6624 70.3299 40.1122 70.5302 40.6073C70.7304 41.1024 70.8334 41.6331 70.8334 42.169C70.8334 42.7049 70.7304 43.2356 70.5302 43.7307C70.3299 44.2258 70.0364 44.6756 69.6665 45.0546C69.2965 45.4335 68.8572 45.7342 68.3738 45.9393C67.8903 46.1444 67.3722 46.2499 66.8489 46.2499V38.0881Z" fill="#FD9317"/>
<path fill-rule="evenodd" clip-rule="evenodd" d="M65.1887 42.1685C65.1887 41.8868 65.4117 41.6584 65.6868 41.6584H66.8489C67.124 41.6584 67.347 41.8868 67.347 42.1685C67.347 42.4502 67.124 42.6786 66.8489 42.6786H65.6868C65.4117 42.6786 65.1887 42.4502 65.1887 42.1685Z" fill="white"/>
<path fill-rule="evenodd" clip-rule="evenodd" d="M66.8489 39.958C67.124 39.958 67.347 40.1864 67.347 40.4681V42.1685C67.347 42.4502 67.124 42.6786 66.8489 42.6786C66.5739 42.6786 66.3509 42.4502 66.3509 42.1685V40.4681C66.3509 40.1864 66.5739 39.958 66.8489 39.958Z" fill="white"/>
<path d="M66.8489 39.958C67.124 39.958 67.347 40.1864 67.347 40.4681V42.1684C67.347 42.4502 67.124 42.6785 66.8489 42.6785V39.958Z" fill="#DEE5ED"/>
</g>
<path d="M68.8412 157.194C68.8412 157.706 68.4541 158.135 67.9446 158.188L38.7502 161.224V133.07L67.9446 136.104C68.4541 136.157 68.8412 136.586 68.8412 137.098V157.194Z" fill="#08A559"/>
<path d="M38.7574 161.224V133.07L28 136.205V158.09L38.7574 161.224Z" fill="#09C369"/>
<path d="M44.1678 155.065C43.4568 155.065 42.8798 154.474 42.8798 153.746V142.967C42.8798 142.239 43.4568 141.648 44.1678 141.648C44.8788 141.648 45.4559 142.239 45.4559 142.967V153.746C45.4559 154.474 44.8788 155.065 44.1678 155.065Z" fill="#BAF7DA"/>
<path d="M51.4972 154.186C50.7862 154.186 50.2092 153.595 50.2092 152.867V144.651C50.2092 143.923 50.7862 143.332 51.4972 143.332C52.2082 143.332 52.7853 143.923 52.7853 144.651V152.867C52.7853 153.595 52.2082 154.186 51.4972 154.186Z" fill="#BAF7DA"/>
<path d="M58.0444 153.308C57.3333 153.308 56.7563 152.716 56.7563 151.988V142.314C56.7563 141.585 57.3333 140.994 58.0444 140.994C58.7554 140.994 59.3324 141.585 59.3324 142.314V151.988C59.3324 152.716 58.7554 153.308 58.0444 153.308Z" fill="#BAF7DA"/>
<path d="M64.4564 152.88C63.7454 152.88 63.1683 152.289 63.1683 151.561V143.206C63.1683 142.477 63.7454 141.886 64.4564 141.886C65.1674 141.886 65.7445 142.477 65.7445 143.206V151.561C65.7445 152.289 65.1674 152.88 64.4564 152.88Z" fill="#BAF7DA"/>
<path d="M45.4559 147.148H42.8798V153.744C42.8798 154.472 43.4568 155.063 44.1678 155.063C44.8788 155.063 45.4559 154.472 45.4559 153.744V147.148Z" fill="#2CE88D"/>
<path d="M52.7853 147.148H50.2092V152.865C50.2092 153.593 50.7862 154.184 51.4972 154.184C52.2082 154.184 52.7853 153.593 52.7853 152.865V147.148Z" fill="#2CE88D"/>
<path d="M59.3324 147.148H56.7563V151.985C56.7563 152.713 57.3333 153.304 58.0444 153.304C58.7554 153.304 59.3324 152.713 59.3324 151.985V147.148Z" fill="#2CE88D"/>
<path d="M65.7445 147.166H63.1683V151.564C63.1683 152.292 63.7454 152.883 64.4564 152.883C65.1674 152.883 65.7445 152.292 65.7445 151.564V147.166Z" fill="#2CE88D"/>
<path d="M31.9271 159.233V135.059L34.5032 134.309V159.983L31.9271 159.233Z" fill="#BAF7DA"/>
<path d="M31.9271 147.549H34.5032V159.984L31.9271 159.233V147.549Z" fill="#2CE88D"/>
<path d="M28 167.709C28 166.891 28.6478 166.227 29.447 166.227H39.4555V176.478C39.4555 177.296 38.8076 177.96 38.0084 177.96H29.447C28.6478 177.96 28 177.296 28 176.478V167.709Z" fill="#B6D7FC"/>
<path d="M32.5822 176.725L29.6881 176.725C29.4218 176.725 29.2058 176.503 29.2058 176.231L29.2058 173.267C29.2058 172.994 29.4218 172.773 29.6881 172.773C29.9545 172.773 30.1705 172.994 30.1705 173.267L30.1705 175.737L32.5822 175.737C32.8485 175.737 33.0645 175.958 33.0645 176.231C33.0645 176.503 32.8485 176.725 32.5822 176.725Z" fill="#E2EFFE"/>
<path d="M33.7277 166.227H38.0084C38.8076 166.227 39.4554 166.891 39.4554 167.709V176.478C39.4554 177.296 38.8076 177.96 38.0084 177.96H33.7277V166.227Z" fill="#9DC9FB"/>
<path d="M39.4554 166.227H49.4639C50.2631 166.227 50.9109 166.891 50.9109 167.709V176.478C50.9109 177.296 50.2631 177.96 49.4639 177.96H40.9024C40.1033 177.96 39.4554 177.296 39.4554 176.478V166.227Z" fill="#B6D7FC"/>
<path d="M33.7277 155.977C33.7277 155.158 34.3756 154.495 35.1747 154.495H43.7362C44.5353 154.495 45.1832 155.158 45.1832 155.977V164.745C45.1832 165.564 44.5353 166.227 43.7362 166.227H35.1747C34.3756 166.227 33.7277 165.564 33.7277 164.745V155.977Z" fill="#157DF5"/>
<path d="M35.235 157.644C35.235 157.132 35.64 156.718 36.1394 156.718C36.6389 156.718 37.0438 157.132 37.0438 157.644V167.524C37.0438 168.035 36.6389 168.45 36.1394 168.45C35.64 168.45 35.235 168.035 35.235 167.524V157.644Z" fill="#157DF5"/>
<path d="M38.5511 160.238C38.5511 159.726 38.956 159.312 39.4555 159.312C39.9549 159.312 40.3598 159.726 40.3598 160.238V170.118C40.3598 170.629 39.9549 171.044 39.4555 171.044C38.956 171.044 38.5511 170.629 38.5511 170.118V160.238Z" fill="#157DF5"/>
<path d="M39.4554 154.495H43.7362C44.5353 154.495 45.1832 155.158 45.1832 155.977V164.745C45.1832 165.564 44.5353 166.227 43.7362 166.227H39.4554V154.495Z" fill="#0965CD"/>
<path d="M45.1832 166.227H49.4639C50.263 166.227 50.9109 166.891 50.9109 167.709V176.478C50.9109 177.296 50.263 177.96 49.4639 177.96H45.1832V166.227Z" fill="#9DC9FB"/>
<path d="M39.4554 159.312C39.9549 159.312 40.3598 159.726 40.3598 160.238V170.118C40.3598 170.629 39.9549 171.044 39.4554 171.044V159.312Z" fill="#0965CD"/>
<path d="M34.9335 159.188V156.224C34.9335 155.951 35.1495 155.73 35.4159 155.73H38.3099C38.5763 155.73 38.7922 155.951 38.7922 156.224C38.7922 156.497 38.5763 156.718 38.3099 156.718H35.8982V159.188C35.8982 159.461 35.6823 159.682 35.4159 159.682C35.1495 159.682 34.9335 159.461 34.9335 159.188Z" fill="#9DC9FB"/>
<path d="M44.0376 176.725L41.1436 176.725C40.8772 176.725 40.6613 176.503 40.6613 176.231L40.6613 173.267C40.6613 172.994 40.8772 172.773 41.1436 172.773C41.41 172.773 41.6259 172.994 41.6259 173.267L41.6259 175.737L44.0376 175.737C44.304 175.737 44.5199 175.958 44.5199 176.231C44.5199 176.503 44.304 176.725 44.0376 176.725Z" fill="#E2EFFE"/>
<path d="M40.2051 165.477V176.477C40.2051 177.693 39.2388 178.709 38.0088 178.71H29.4473C28.2171 178.71 27.25 177.693 27.25 176.477V167.71C27.25 166.494 28.2171 165.477 29.4473 165.477H40.2051Z" fill="#B6D7FC" stroke="white" stroke-width="1.5"/>
<path d="M28.4558 173.267L28.4617 173.143C28.5228 172.527 29.0343 172.022 29.6882 172.022C30.3856 172.023 30.9206 172.597 30.9207 173.267L30.9207 174.986L32.5818 174.986C33.2791 174.986 33.8141 175.56 33.8142 176.23C33.8142 176.901 33.2792 177.475 32.5818 177.475L29.6882 177.475C28.9908 177.475 28.4558 176.901 28.4558 176.23L28.4558 173.267Z" fill="#E2EFFE" stroke="white" stroke-width="1.5" stroke-linecap="round" stroke-linejoin="round"/>
<path d="M38.008 165.477C39.2382 165.477 40.2053 166.494 40.2053 167.71V176.477C40.2053 177.693 39.2382 178.71 38.008 178.71H32.9777V165.477H38.008Z" fill="#9DC9FB" stroke="white" stroke-width="1.5"/>
<path d="M49.4642 165.477C50.6942 165.477 51.6605 166.494 51.6605 167.71V176.477C51.6605 177.693 50.6942 178.709 49.4642 178.71H40.9027C39.6725 178.71 38.7054 177.693 38.7054 176.477V165.477H49.4642Z" fill="#B6D7FC" stroke="white" stroke-width="1.5"/>
<path d="M43.7365 153.745C44.9665 153.745 45.9328 154.762 45.9328 155.977V164.745C45.9328 165.96 44.9665 166.977 43.7365 166.977H35.175C33.9448 166.977 32.9777 165.961 32.9777 164.745V155.977C32.9777 154.762 33.9448 153.745 35.175 153.745H43.7365Z" fill="#157DF5" stroke="white" stroke-width="1.5"/>
<path d="M36.1393 155.968C37.0697 155.968 37.7934 156.735 37.7936 157.643V167.524C37.7934 168.433 37.0697 169.2 36.1393 169.2C35.2091 169.2 34.4853 168.433 34.485 167.524V157.643C34.4853 156.735 35.2091 155.968 36.1393 155.968Z" fill="#157DF5" stroke="white" stroke-width="1.5"/>
<path d="M39.4554 158.562C40.3857 158.562 41.1094 159.329 41.1097 160.237V170.118C41.1094 171.027 40.3857 171.794 39.4554 171.794C38.5251 171.794 37.8013 171.027 37.8011 170.118V160.237C37.8013 159.329 38.5251 158.562 39.4554 158.562Z" fill="#157DF5" stroke="white" stroke-width="1.5"/>
<path d="M43.7357 153.745C44.9659 153.745 45.933 154.762 45.933 155.977V164.745C45.933 165.961 44.9659 166.977 43.7357 166.977H38.7054V153.745H43.7357Z" fill="#0965CD" stroke="white" stroke-width="1.5"/>
<path d="M49.4634 165.477C50.6936 165.477 51.6607 166.494 51.6607 167.71V176.477C51.6607 177.693 50.6936 178.71 49.4634 178.71H44.4332V165.477H49.4634Z" fill="#9DC9FB" stroke="white" stroke-width="1.5"/>
<path d="M39.4554 158.562C40.3858 158.562 41.1095 159.329 41.1097 160.237V170.118C41.1095 171.027 40.3858 171.794 39.4554 171.794H38.7054V158.562H39.4554Z" fill="#0965CD" stroke="white" stroke-width="1.5"/>
<path d="M38.3095 154.98C39.0069 154.98 39.5419 155.554 39.5419 156.224C39.5419 156.894 39.0069 157.468 38.3095 157.468H36.6484V159.188C36.6484 159.858 36.1133 160.432 35.416 160.432C34.7186 160.432 34.1835 159.858 34.1835 159.188V156.224L34.1894 156.099C34.2509 155.484 34.7623 154.98 35.416 154.98H38.3095Z" fill="#9DC9FB" stroke="white" stroke-width="1.5" stroke-linecap="round" stroke-linejoin="round"/>
<path d="M39.9113 173.267L39.9171 173.143C39.9783 172.527 40.4897 172.022 41.1437 172.022C41.841 172.023 42.3761 172.597 42.3761 173.267L42.3761 174.986L44.0372 174.986C44.7346 174.986 45.2696 175.56 45.2697 176.23C45.2697 176.901 44.7346 177.475 44.0372 177.475L41.1437 177.475C40.4463 177.475 39.9113 176.901 39.9113 176.23L39.9113 173.267Z" fill="#E2EFFE" stroke="white" stroke-width="1.5" stroke-linecap="round" stroke-linejoin="round"/>
<path d="M28 167.709C28 166.891 28.6478 166.227 29.447 166.227H39.4555V176.478C39.4555 177.296 38.8076 177.96 38.0084 177.96H29.447C28.6478 177.96 28 177.296 28 176.478V167.709Z" fill="#B6D7FC"/>
<path d="M32.5822 176.725L29.6881 176.725C29.4218 176.725 29.2058 176.503 29.2058 176.231L29.2058 173.267C29.2058 172.994 29.4218 172.773 29.6881 172.773C29.9545 172.773 30.1705 172.994 30.1705 173.267L30.1705 175.737L32.5822 175.737C32.8485 175.737 33.0645 175.958 33.0645 176.231C33.0645 176.503 32.8485 176.725 32.5822 176.725Z" fill="#E2EFFE"/>
<path d="M33.7277 166.227H38.0084C38.8076 166.227 39.4554 166.891 39.4554 167.709V176.478C39.4554 177.296 38.8076 177.96 38.0084 177.96H33.7277V166.227Z" fill="#9DC9FB"/>
<path d="M39.4554 166.227H49.4639C50.2631 166.227 50.9109 166.891 50.9109 167.709V176.478C50.9109 177.296 50.2631 177.96 49.4639 177.96H40.9024C40.1033 177.96 39.4554 177.296 39.4554 176.478V166.227Z" fill="#B6D7FC"/>
<path d="M33.7277 155.977C33.7277 155.158 34.3756 154.495 35.1747 154.495H43.7362C44.5353 154.495 45.1832 155.158 45.1832 155.977V164.745C45.1832 165.564 44.5353 166.227 43.7362 166.227H35.1747C34.3756 166.227 33.7277 165.564 33.7277 164.745V155.977Z" fill="#157DF5"/>
<path d="M35.235 157.644C35.235 157.132 35.64 156.718 36.1394 156.718C36.6389 156.718 37.0438 157.132 37.0438 157.644V167.524C37.0438 168.035 36.6389 168.45 36.1394 168.45C35.64 168.45 35.235 168.035 35.235 167.524V157.644Z" fill="#157DF5"/>
<path d="M38.5511 160.238C38.5511 159.726 38.956 159.312 39.4555 159.312C39.9549 159.312 40.3598 159.726 40.3598 160.238V170.118C40.3598 170.629 39.9549 171.044 39.4555 171.044C38.956 171.044 38.5511 170.629 38.5511 170.118V160.238Z" fill="#157DF5"/>
<path d="M39.4554 154.495H43.7362C44.5353 154.495 45.1832 155.158 45.1832 155.977V164.745C45.1832 165.564 44.5353 166.227 43.7362 166.227H39.4554V154.495Z" fill="#0965CD"/>
<path d="M45.1832 166.227H49.4639C50.263 166.227 50.9109 166.891 50.9109 167.709V176.478C50.9109 177.296 50.263 177.96 49.4639 177.96H45.1832V166.227Z" fill="#9DC9FB"/>
<path d="M39.4554 159.312C39.9549 159.312 40.3598 159.726 40.3598 160.238V170.118C40.3598 170.629 39.9549 171.044 39.4554 171.044V159.312Z" fill="#0965CD"/>
<path d="M34.9335 159.188V156.224C34.9335 155.951 35.1495 155.73 35.4159 155.73H38.3099C38.5763 155.73 38.7922 155.951 38.7922 156.224C38.7922 156.497 38.5763 156.718 38.3099 156.718H35.8982V159.188C35.8982 159.461 35.6823 159.682 35.4159 159.682C35.1495 159.682 34.9335 159.461 34.9335 159.188Z" fill="#9DC9FB"/>
<path d="M44.0376 176.725L41.1436 176.725C40.8772 176.725 40.6613 176.503 40.6613 176.231L40.6613 173.267C40.6613 172.994 40.8772 172.773 41.1436 172.773C41.41 172.773 41.6259 172.994 41.6259 173.267L41.6259 175.737L44.0376 175.737C44.304 175.737 44.5199 175.958 44.5199 176.231C44.5199 176.503 44.304 176.725 44.0376 176.725Z" fill="#E2EFFE"/>
<path d="M74.7751 124C76.7208 124 78.2982 125.616 78.2982 127.608V130.971H75.5457V135.119C77.1208 135.479 78.2982 136.919 78.2982 138.64V138.82C81.7639 139.428 84.4022 142.518 84.4022 146.241V146.853C84.7727 147.274 85 147.83 85 148.444C84.9999 149.059 84.7722 149.615 84.4022 150.035V168.67C84.7727 169.091 85 169.647 85 170.261C84.9999 170.876 84.7722 171.432 84.4022 171.852V175.412C84.4021 177.947 82.3948 180 79.9211 180H61.9705C59.5733 180 57.6166 178.072 57.4967 175.648L57.4904 175.412V171.853C57.1647 171.484 56.9482 171.01 56.901 170.482L56.8915 170.261C56.8915 169.646 57.1194 169.09 57.4904 168.669V150.036C57.1647 149.667 56.9482 149.193 56.901 148.665L56.8915 148.444C56.8915 147.829 57.1194 147.273 57.4904 146.852V146.241C57.4904 142.518 60.1276 139.428 63.5933 138.82V138.64C63.5933 136.919 64.7708 135.479 66.3458 135.119V130.971H63.5933V127.608C63.5933 125.616 65.1707 124 67.1164 124H74.7751Z" fill="white"/>
<path d="M58.9557 146.308C58.9557 143.097 61.5584 140.495 64.7691 140.495H77.1226C80.3333 140.495 82.936 143.097 82.936 146.308V175.133C82.936 176.738 81.6346 178.04 80.0293 178.04H61.8624C60.2571 178.04 58.9557 176.738 58.9557 175.133V146.308Z" fill="#157DF5"/>
<path d="M70.9459 140.495H77.1226C80.3333 140.495 82.936 143.097 82.936 146.308V175.133C82.936 176.738 81.6347 178.04 80.0293 178.04H70.9459V140.495Z" fill="#0965CD"/>
<path d="M65.1325 138.798C65.1325 137.728 66.0001 136.86 67.0703 136.86H74.8215C75.8918 136.86 76.7593 137.728 76.7593 138.798V140.494H65.1325V138.798Z" fill="#BDCBDB"/>
<path d="M70.9459 140.494C70.9459 138.487 72.5726 136.86 74.5792 136.86H74.8215C75.8917 136.86 76.7593 137.728 76.7593 138.798V140.494H70.9459Z" fill="#7B97B7"/>
<path d="M58.3501 148.486C58.3501 148.084 58.6754 147.759 59.0768 147.759H82.8149C83.2162 147.759 83.5416 148.084 83.5416 148.486C83.5416 148.887 83.2162 149.212 82.8149 149.212H59.0768C58.6754 149.212 58.3501 148.887 58.3501 148.486Z" fill="#BDCBDB"/>
<path d="M58.3501 170.044C58.3501 169.642 58.6754 169.317 59.0768 169.317H82.8149C83.2162 169.317 83.5416 169.642 83.5416 170.044C83.5416 170.445 83.2162 170.77 82.8149 170.77H59.0768C58.6754 170.77 58.3501 170.445 58.3501 170.044Z" fill="#BDCBDB"/>
<path d="M70.9459 147.759H82.8149C83.2163 147.759 83.5416 148.084 83.5416 148.486C83.5416 148.887 83.2163 149.212 82.8149 149.212H70.9459V147.759Z" fill="#7B97B7"/>
<path d="M70.9459 169.317H82.8149C83.2163 169.317 83.5416 169.642 83.5416 170.044C83.5416 170.445 83.2163 170.77 82.8149 170.77H70.9459V169.317Z" fill="#7B97B7"/>
<path d="M65.1325 127.897C65.1325 126.827 66.0001 125.959 67.0703 125.959H74.8215C75.8918 125.959 76.7593 126.827 76.7593 127.897V129.593H65.1325V127.897Z" fill="#BDCBDB"/>
<path d="M70.9459 125.959H74.8215C75.8917 125.959 76.7593 126.827 76.7593 127.897V129.593H70.9459V125.959Z" fill="#7B97B7"/>
<path d="M67.9181 129.592H73.9737V136.858H67.9181V129.592Z" fill="#7B97B7"/>
<path d="M70.9459 129.592H73.9737V136.858H70.9459V129.592Z" fill="#5A7DA5"/>
<path fill-rule="evenodd" clip-rule="evenodd" d="M62.2474 140.124C61.9971 139.505 61.8683 138.842 61.8683 138.172C61.8683 137.502 61.9971 136.838 62.2474 136.22C62.4977 135.601 62.8646 135.038 63.3271 134.565C63.7896 134.091 64.3386 133.715 64.9429 133.459C65.5472 133.203 66.1949 133.071 66.8489 133.071C67.503 133.071 68.1506 133.203 68.7549 133.459C69.3592 133.715 69.9083 134.091 70.3708 134.565C70.8333 135.038 71.2001 135.601 71.4504 136.22C71.7007 136.838 71.8295 137.502 71.8295 138.172C71.8295 138.842 71.7007 139.505 71.4504 140.124C71.2001 140.743 70.8332 141.305 70.3708 141.779C69.9083 142.252 69.3592 142.628 68.7549 142.884C68.1506 143.141 67.503 143.273 66.8489 143.273C66.1949 143.273 65.5472 143.141 64.9429 142.884C64.3386 142.628 63.7896 142.252 63.3271 141.779C62.8646 141.305 62.4977 140.743 62.2474 140.124ZM63.1677 139.733C62.9675 139.238 62.8644 138.708 62.8644 138.172C62.8644 137.636 62.9675 137.105 63.1677 136.61C63.368 136.115 63.6615 135.665 64.0314 135.286C64.4014 134.907 64.8407 134.606 65.3241 134.401C65.8075 134.196 66.3257 134.091 66.8489 134.091C67.3722 134.091 67.8903 134.196 68.3737 134.401C68.8571 134.606 69.2964 134.907 69.6664 135.286C70.0364 135.665 70.3299 136.115 70.5301 136.61C70.7304 137.105 70.8334 137.636 70.8334 138.172C70.8334 138.708 70.7304 139.238 70.5301 139.733C70.3299 140.228 70.0364 140.678 69.6664 141.057C69.2964 141.436 68.8571 141.737 68.3737 141.942C67.8903 142.147 67.3722 142.253 66.8489 142.253C66.3257 142.253 65.8075 142.147 65.3241 141.942C64.8407 141.737 64.4014 141.436 64.0314 141.057C63.6615 140.678 63.368 140.228 63.1677 139.733Z" fill="white"/>
<path d="M62.8644 138.169C62.8644 138.705 62.9675 139.236 63.1677 139.731C63.368 140.226 63.6615 140.676 64.0315 141.055C64.4015 141.434 64.8407 141.734 65.3241 141.939C65.8076 142.144 66.3257 142.25 66.8489 142.25C67.3722 142.25 67.8903 142.144 68.3737 141.939C68.8572 141.734 69.2964 141.434 69.6664 141.055C70.0364 140.676 70.3299 140.226 70.5301 139.731C70.7304 139.236 70.8335 138.705 70.8335 138.169C70.8335 137.633 70.7304 137.102 70.5301 136.607C70.3299 136.112 70.0364 135.662 69.6664 135.283C69.2964 134.904 68.8572 134.604 68.3737 134.399C67.8903 134.194 67.3722 134.088 66.8489 134.088C66.3257 134.088 65.8076 134.194 65.3241 134.399C64.8407 134.604 64.4015 134.904 64.0315 135.283C63.6615 135.662 63.368 136.112 63.1677 136.607C62.9675 137.102 62.8644 137.633 62.8644 138.169Z" fill="#FDAA49"/>
<path d="M66.8489 134.088C67.3722 134.088 67.8903 134.194 68.3738 134.399C68.8572 134.604 69.2965 134.905 69.6665 135.283C70.0364 135.662 70.3299 136.112 70.5302 136.607C70.7304 137.102 70.8334 137.633 70.8334 138.169C70.8334 138.705 70.7304 139.236 70.5302 139.731C70.3299 140.226 70.0364 140.676 69.6665 141.055C69.2965 141.433 68.8572 141.734 68.3738 141.939C67.8903 142.144 67.3722 142.25 66.8489 142.25V134.088Z" fill="#FD9317"/>
<path fill-rule="evenodd" clip-rule="evenodd" d="M65.1887 138.168C65.1887 137.887 65.4117 137.658 65.6868 137.658H66.8489C67.124 137.658 67.347 137.887 67.347 138.168C67.347 138.45 67.124 138.679 66.8489 138.679H65.6868C65.4117 138.679 65.1887 138.45 65.1887 138.168Z" fill="white"/>
<path fill-rule="evenodd" clip-rule="evenodd" d="M66.8489 135.958C67.124 135.958 67.347 136.186 67.347 136.468V138.168C67.347 138.45 67.124 138.679 66.8489 138.679C66.5739 138.679 66.3509 138.45 66.3509 138.168V136.468C66.3509 136.186 66.5739 135.958 66.8489 135.958Z" fill="white"/>
<path d="M66.8489 135.958C67.124 135.958 67.347 136.186 67.347 136.468V138.168C67.347 138.45 67.124 138.679 66.8489 138.679V135.958Z" fill="#DEE5ED"/>
<defs>
<filter id="filter0_d_47108_11689" x="10" y="9" width="96" height="96" filterUnits="userSpaceOnUse" color-interpolation-filters="sRGB">
<feFlood flood-opacity="0" result="BackgroundImageFix"/>
<feColorMatrix in="SourceAlpha" type="matrix" values="0 0 0 0 0 0 0 0 0 0 0 0 0 0 0 0 0 0 127 0" result="hardAlpha"/>
<feOffset dx="2" dy="1"/>
<feGaussianBlur stdDeviation="4"/>
<feColorMatrix type="matrix" values="0 0 0 0 0.0392157 0 0 0 0 0.0392157 0 0 0 0 0.0627451 0 0 0 0.08 0"/>
<feBlend mode="normal" in2="BackgroundImageFix" result="effect1_dropShadow_47108_11689"/>
<feBlend mode="normal" in="SourceGraphic" in2="effect1_dropShadow_47108_11689" result="shape"/>
</filter>
<clipPath id="clip0_47108_11689">
<rect width="56" height="56" fill="white" transform="translate(28 28)"/>
</clipPath>
</defs>
</svg>
