<svg width="112" height="208" viewBox="0 0 112 208" fill="none" xmlns="http://www.w3.org/2000/svg">
<rect x="0.5" y="0.5" width="111" height="207" rx="4.5" stroke="#9747FF" stroke-dasharray="10 5"/>
<g filter="url(#filter0_d_48435_11362)">
<rect x="16" y="16" width="80" height="80" rx="8" fill="white"/>
</g>
<path d="M44.0023 33.8636V58.6584C44.0023 58.9795 44.113 59.2913 44.3168 59.5408L53.2396 70.4862C53.5038 70.8111 53.901 71 54.3206 71H72.2817C73.8203 71 75.0724 69.7472 75.0724 68.2078V33.8636C75.0724 32.1669 76.4443 30.7922 78.1422 30.7922C78.9124 30.7922 79.5376 30.1668 79.5376 29.3961C79.5376 28.6255 80.3078 28 79.5376 28H49.8629C46.6312 28 44.0023 30.6303 44.0023 33.8636Z" fill="#E2EFFE"/>
<path d="M44.0003 58.6584V33.8636C44.0003 30.6303 46.6292 28 49.8608 28H60.3936V71H54.3186H45.5003C44.6719 71 44.0003 70.3284 44.0003 69.5V58.6584Z" fill="#F0F7FE"/>
<path d="M71.3504 43.6557C71.3504 44.5653 70.6125 45.3035 69.7034 45.3035H65.0406C64.1314 45.3035 63.3936 44.5653 63.3936 43.6557C63.3936 42.7461 64.1314 42.0078 65.0406 42.0078H69.7034C70.6125 42.0078 71.3504 42.7461 71.3504 43.6557Z" fill="#282A52"/>
<path d="M71.3504 50.6635C71.3504 51.5731 70.6125 52.3113 69.7034 52.3113H65.0406C64.1314 52.3113 63.3936 51.5731 63.3936 50.6635C63.3936 49.7539 64.1314 49.0156 65.0406 49.0156H69.7034C70.6125 49.0156 71.3504 49.7539 71.3504 50.6635Z" fill="#282A52"/>
<path d="M71.3504 36.6479C71.3504 37.5575 70.6125 38.2957 69.7034 38.2957H65.0406C64.1314 38.2957 63.3936 37.5575 63.3936 36.6479C63.3936 35.7382 64.1314 35 65.0406 35H69.7034C70.6125 35 71.3504 35.7382 71.3504 36.6479Z" fill="#0965CD"/>
<path d="M54.9569 36.6479C54.9569 37.5575 54.219 38.2957 53.3098 38.2957H48.6471C47.7379 38.2957 47 37.5575 47 36.6479C47 35.7382 47.7379 35 48.6471 35H53.3098C54.219 35 54.9569 35.7382 54.9569 36.6479Z" fill="#40D98D"/>
<path d="M75.0707 42.7056H81.2103C82.7516 42.7056 84.001 41.4556 84.001 39.9134V32.4675C84.001 30.0002 82.0019 28 79.5358 28C77.0766 28 75.0707 29.9934 75.0707 32.4675V42.7056Z" fill="#B6D7FC"/>
<path fill-rule="evenodd" clip-rule="evenodd" d="M70 84C77.732 84 84 77.732 84 70C84 62.268 77.732 56 70 56C62.268 56 56 62.268 56 70C56 77.732 62.268 84 70 84Z" fill="white"/>
<path d="M70 81.2C76.1856 81.2 81.2 76.1856 81.2 70.0001C81.2 63.8145 76.1856 58.8 70 58.8C63.8145 58.8 58.8 63.8145 58.8 70.0001C58.8 76.1856 63.8145 81.2 70 81.2Z" fill="#40D98D"/>
<path d="M75.7475 65.9281C75.0953 65.2759 74.0378 65.2759 73.3856 65.9281L68.7861 70.5276L66.6168 68.3582C65.9645 67.7057 64.907 67.7059 64.2548 68.3582C63.6026 69.0104 63.6026 70.068 64.2548 70.7201L67.6051 74.0705C67.9184 74.3838 68.3432 74.5598 68.7862 74.5598C69.2291 74.5598 69.654 74.3838 69.9672 74.0705L75.7476 68.2901C76.3999 67.6379 76.3999 66.5804 75.7475 65.9281Z" fill="white"/>
<path d="M69.9989 58.8C69.9971 58.8 69.9952 58.8 69.9934 58.8V81.1999C69.9952 81.1999 69.9971 81.2 69.9989 81.2C76.1845 81.2 81.1989 76.1857 81.1989 70.0001C81.1989 63.8144 76.1845 58.8 69.9989 58.8Z" fill="#25BB71"/>
<path d="M73.3855 65.9318L69.9956 69.3217V74.0458L75.7475 68.2938C76.3997 67.6415 76.3997 66.5839 75.7475 65.9318C75.0954 65.2796 74.0378 65.2796 73.3855 65.9318Z" fill="#F0F7FE"/>
<path d="M32.293 43.0079C34.4055 43.1327 36.3973 43.5745 38.1543 44.4532C39.3845 44.0822 40.677 43.879 41.9941 43.879C43.3203 43.879 44.6215 44.0851 45.8594 44.461C47.6147 43.5845 49.6041 43.1433 51.7139 43.0186C54.1671 42.8739 56.0375 44.8865 55.998 47.1602L55.9756 47.9942C55.9061 49.9036 55.7016 51.5646 55.1865 53.1973C55.6998 54.5965 55.9873 56.1064 55.9873 57.6827C55.9872 62.0114 54.2255 65.4305 51.4844 67.7198C48.8071 69.9558 45.3437 71 41.9941 71C38.6445 71 35.1803 69.9558 32.5029 67.7198C29.7619 65.4305 28.0001 62.0113 28 57.6827C28 56.0941 28.2927 54.5733 28.8135 53.1651C28.2301 51.3059 28.0481 49.4087 28.0088 47.1495C27.9704 44.9464 29.7248 42.9887 32.0645 43L32.293 43.0079ZM30.8574 58.876C30.9074 59.395 30.9882 59.8926 31.1006 60.3682C30.9883 59.8925 30.9073 59.395 30.8574 58.876ZM52.4102 53.7833C52.7294 54.5599 52.9594 55.3784 53.083 56.2276C52.9596 55.3788 52.7301 54.5606 52.4111 53.7842L52.4102 53.7833ZM31.8154 53.2452C31.3709 54.1782 31.0577 55.1792 30.9053 56.2266C31.0578 55.1794 31.3709 54.178 31.8154 53.2452ZM51.8789 45.8135C49.8327 45.9344 48.0847 46.39 46.6602 47.209L45.3135 47.2286C44.2435 46.8738 43.1244 46.6788 41.9941 46.6788C40.7551 46.6788 39.5281 46.9102 38.3662 47.3331L38.3691 47.3321C39.5301 46.9099 40.7563 46.6797 41.9941 46.6797C43.1233 46.6798 44.2415 46.8745 45.3105 47.2286H45.3135C45.5912 47.3206 45.8665 47.4207 46.1367 47.5342C46.3057 47.4195 46.4809 47.3121 46.6602 47.209H46.6621C48.0863 46.3907 49.8336 45.9353 51.8789 45.8145C52.5406 45.7756 53.0904 46.263 53.1836 46.8985C53.0908 46.2625 52.5409 45.7746 51.8789 45.8135Z" fill="white"/>
<path d="M30.8098 47.1111C30.7969 46.3747 31.3952 45.7699 32.1295 45.8132C35.4882 46.0117 38.0443 47.1087 39.6831 49.2421C39.8241 49.4255 39.7883 49.686 39.6112 49.8348L33.3428 55.1015C33.1339 55.277 32.8174 55.226 32.6801 54.9901C31.2682 52.5635 30.869 50.5181 30.8098 47.1111Z" fill="#FFA099"/>
<path d="M53.1954 47.128C53.2082 46.3915 52.6101 45.7867 51.8757 45.8301C48.517 46.0285 45.9608 47.1256 44.322 49.2589C44.1811 49.4424 44.2169 49.7028 44.394 49.8516L50.6624 55.1184C50.8713 55.2938 51.1878 55.2428 51.3251 55.007C52.7371 52.5803 53.1361 50.5349 53.1954 47.128Z" fill="#FF7E75"/>
<path d="M53.1869 57.6891C53.1869 51.6123 47.72 46.686 41.9929 46.686C36.2657 46.686 30.7988 51.6123 30.7988 57.6891C30.7988 71.7125 53.1869 71.7125 53.1869 57.6891Z" fill="#FFDECC"/>
<path d="M42.001 68.2066C47.5963 68.2045 53.1899 64.6986 53.1899 57.6891C53.1899 51.6141 47.7263 46.689 42.001 46.686V68.2066Z" fill="#FFCFB5"/>
<path d="M47.5439 59.7655C47.5439 57.3601 44.9198 55.4102 42.1707 55.4102C39.4217 55.4102 36.7976 57.3601 36.7976 59.7655C36.7976 65.3165 47.5439 65.3165 47.5439 59.7655Z" fill="#FFA099"/>
<path fill-rule="evenodd" clip-rule="evenodd" d="M40.4251 61.3224C39.9305 61.3224 39.5295 60.9209 39.5295 60.4257V59.529C39.5295 59.0338 39.9305 58.6323 40.4251 58.6323C40.9196 58.6323 41.3206 59.0338 41.3206 59.529V60.4257C41.3206 60.9209 40.9196 61.3224 40.4251 61.3224Z" fill="#282A52"/>
<path d="M42.001 63.9268C44.7441 63.9879 47.5476 62.6008 47.5476 59.7655C47.5476 57.3601 44.9235 55.4102 42.1745 55.4102C42.1166 55.4102 42.0587 55.411 42.001 55.4127V63.9268Z" fill="#FF7E75"/>
<path fill-rule="evenodd" clip-rule="evenodd" d="M43.5603 61.3224C43.0657 61.3224 42.6648 60.9209 42.6648 60.4257V59.529C42.6648 59.0338 43.0657 58.6323 43.5603 58.6323C44.0549 58.6323 44.4559 59.0338 44.4559 59.529V60.4257C44.4559 60.9209 44.0549 61.3224 43.5603 61.3224Z" fill="#1E203E"/>
<path d="M38.6344 51.2356C38.9469 50.9231 39.4533 50.9231 39.7657 51.2356C40.0781 51.548 40.0781 52.0545 39.7657 52.3669L39.1313 53.0013L39.7657 53.6357L39.8204 53.6967C40.0766 54.0109 40.0586 54.4742 39.7657 54.7671C39.4728 55.0599 39.0096 55.078 38.6954 54.8218L38.6344 54.7671L38 54.1326L37.3656 54.7671L37.3047 54.8218C36.9905 55.078 36.5272 55.0599 36.2343 54.7671C35.9414 54.4742 35.9234 54.0109 36.1796 53.6967L36.2343 53.6357L36.8687 53.0013L36.2343 52.3669C35.9219 52.0545 35.9219 51.548 36.2343 51.2356C36.5467 50.9231 37.0532 50.9231 37.3656 51.2356L38 51.87L38.6344 51.2356Z" fill="#282A52"/>
<path d="M46.6344 51.2356C46.9469 50.9231 47.4533 50.9231 47.7657 51.2356C48.0781 51.548 48.0781 52.0545 47.7657 52.3669L47.1313 53.0013L47.7657 53.6357L47.8204 53.6967C48.0766 54.0109 48.0586 54.4742 47.7657 54.7671C47.4728 55.0599 47.0096 55.078 46.6954 54.8218L46.6344 54.7671L46 54.1326L45.3656 54.7671L45.3047 54.8218C44.9905 55.078 44.5272 55.0599 44.2343 54.7671C43.9414 54.4742 43.9234 54.0109 44.1796 53.6967L44.2343 53.6357L44.8687 53.0013L44.2343 52.3669C43.9219 52.0545 43.9219 51.548 44.2343 51.2356C44.5467 50.9231 45.0532 50.9231 45.3656 51.2356L46 51.87L46.6344 51.2356Z" fill="#1E203E"/>
<path d="M44.0023 129.864V154.658C44.0023 154.98 44.113 155.291 44.3168 155.541L53.2396 166.486C53.5038 166.811 53.901 167 54.3206 167H72.2817C73.8203 167 75.0724 165.747 75.0724 164.208V129.864C75.0724 128.167 76.4443 126.792 78.1422 126.792C78.9124 126.792 79.5376 126.167 79.5376 125.396C79.5376 124.625 80.3078 124 79.5376 124H49.8629C46.6312 124 44.0023 126.63 44.0023 129.864Z" fill="#E2EFFE"/>
<path d="M44.0003 154.658V129.864C44.0003 126.63 46.6292 124 49.8608 124H60.3936V167H54.3186H45.5003C44.6719 167 44.0003 166.328 44.0003 165.5V154.658Z" fill="#F0F7FE"/>
<path d="M71.3504 139.656C71.3504 140.565 70.6125 141.304 69.7034 141.304H65.0406C64.1314 141.304 63.3936 140.565 63.3936 139.656C63.3936 138.746 64.1314 138.008 65.0406 138.008H69.7034C70.6125 138.008 71.3504 138.746 71.3504 139.656Z" fill="#282A52"/>
<path d="M71.3504 146.663C71.3504 147.573 70.6125 148.311 69.7034 148.311H65.0406C64.1314 148.311 63.3936 147.573 63.3936 146.663C63.3936 145.754 64.1314 145.016 65.0406 145.016H69.7034C70.6125 145.016 71.3504 145.754 71.3504 146.663Z" fill="#282A52"/>
<path d="M71.3504 132.648C71.3504 133.557 70.6125 134.296 69.7034 134.296H65.0406C64.1314 134.296 63.3936 133.557 63.3936 132.648C63.3936 131.738 64.1314 131 65.0406 131H69.7034C70.6125 131 71.3504 131.738 71.3504 132.648Z" fill="#0965CD"/>
<path d="M54.9569 132.648C54.9569 133.557 54.219 134.296 53.3098 134.296H48.6471C47.7379 134.296 47 133.557 47 132.648C47 131.738 47.7379 131 48.6471 131H53.3098C54.219 131 54.9569 131.738 54.9569 132.648Z" fill="#40D98D"/>
<path d="M75.0707 138.706H81.2103C82.7516 138.706 84.001 137.456 84.001 135.913V128.468C84.001 126 82.0019 124 79.5358 124C77.0766 124 75.0707 125.993 75.0707 128.468V138.706Z" fill="#B6D7FC"/>
<path fill-rule="evenodd" clip-rule="evenodd" d="M70 180C77.732 180 84 173.732 84 166C84 158.268 77.732 152 70 152C62.268 152 56 158.268 56 166C56 173.732 62.268 180 70 180Z" fill="white"/>
<path d="M70 177.2C76.1856 177.2 81.2 172.186 81.2 166C81.2 159.814 76.1856 154.8 70 154.8C63.8145 154.8 58.8 159.814 58.8 166C58.8 172.186 63.8145 177.2 70 177.2Z" fill="#40D98D"/>
<path d="M75.7475 161.928C75.0953 161.276 74.0378 161.276 73.3856 161.928L68.7861 166.528L66.6168 164.358C65.9645 163.706 64.907 163.706 64.2548 164.358C63.6026 165.01 63.6026 166.068 64.2548 166.72L67.6051 170.071C67.9184 170.384 68.3432 170.56 68.7862 170.56C69.2291 170.56 69.654 170.384 69.9672 170.071L75.7476 164.29C76.3999 163.638 76.3999 162.58 75.7475 161.928Z" fill="white"/>
<path d="M69.9989 154.8C69.9971 154.8 69.9952 154.8 69.9934 154.8V177.2C69.9952 177.2 69.9971 177.2 69.9989 177.2C76.1845 177.2 81.1989 172.186 81.1989 166C81.1989 159.814 76.1845 154.8 69.9989 154.8Z" fill="#25BB71"/>
<path d="M73.3855 161.932L69.9956 165.322V170.046L75.7475 164.294C76.3997 163.642 76.3997 162.584 75.7475 161.932C75.0954 161.28 74.0378 161.28 73.3855 161.932Z" fill="#F0F7FE"/>
<path d="M32.293 139.008C34.4055 139.133 36.3973 139.574 38.1543 140.453C39.3845 140.082 40.677 139.879 41.9941 139.879C43.3203 139.879 44.6215 140.085 45.8594 140.461C47.6147 139.585 49.6041 139.143 51.7139 139.019C54.1671 138.874 56.0375 140.887 55.998 143.16L55.9756 143.994C55.9061 145.904 55.7016 147.565 55.1865 149.197C55.6998 150.596 55.9873 152.106 55.9873 153.683C55.9872 158.011 54.2255 161.43 51.4844 163.72C48.8071 165.956 45.3437 167 41.9941 167C38.6445 167 35.1803 165.956 32.5029 163.72C29.7619 161.43 28.0001 158.011 28 153.683C28 152.094 28.2927 150.573 28.8135 149.165C28.2301 147.306 28.0481 145.409 28.0088 143.149C27.9704 140.946 29.7248 138.989 32.0645 139L32.293 139.008ZM30.8574 154.876C30.9074 155.395 30.9882 155.893 31.1006 156.368C30.9883 155.893 30.9073 155.395 30.8574 154.876ZM52.4102 149.783C52.7294 150.56 52.9594 151.378 53.083 152.228C52.9596 151.379 52.7301 150.561 52.4111 149.784L52.4102 149.783ZM31.8154 149.245C31.3709 150.178 31.0577 151.179 30.9053 152.227C31.0578 151.179 31.3709 150.178 31.8154 149.245ZM51.8789 141.814C49.8327 141.934 48.0847 142.39 46.6602 143.209L45.3135 143.229C44.2435 142.874 43.1244 142.679 41.9941 142.679C40.7551 142.679 39.5281 142.91 38.3662 143.333L38.3691 143.332C39.5301 142.91 40.7563 142.68 41.9941 142.68C43.1233 142.68 44.2415 142.874 45.3105 143.229H45.3135C45.5912 143.321 45.8665 143.421 46.1367 143.534C46.3057 143.42 46.4809 143.312 46.6602 143.209H46.6621C48.0863 142.391 49.8336 141.935 51.8789 141.815C52.5406 141.776 53.0904 142.263 53.1836 142.898C53.0908 142.263 52.5409 141.775 51.8789 141.814Z" fill="white"/>
<path d="M30.8098 143.111C30.7969 142.375 31.3952 141.77 32.1295 141.813C35.4882 142.012 38.0443 143.109 39.6831 145.242C39.8241 145.426 39.7883 145.686 39.6112 145.835L33.3428 151.102C33.1339 151.277 32.8174 151.226 32.6801 150.99C31.2682 148.563 30.869 146.518 30.8098 143.111Z" fill="#FFA099"/>
<path d="M53.1954 143.128C53.2082 142.391 52.6101 141.787 51.8757 141.83C48.517 142.029 45.9608 143.126 44.322 145.259C44.1811 145.442 44.2169 145.703 44.394 145.852L50.6624 151.118C50.8713 151.294 51.1878 151.243 51.3251 151.007C52.7371 148.58 53.1361 146.535 53.1954 143.128Z" fill="#FF7E75"/>
<path d="M53.1869 153.689C53.1869 147.612 47.72 142.686 41.9929 142.686C36.2657 142.686 30.7988 147.612 30.7988 153.689C30.7988 167.713 53.1869 167.713 53.1869 153.689Z" fill="#FFDECC"/>
<path d="M42.001 164.207C47.5963 164.205 53.1899 160.699 53.1899 153.689C53.1899 147.614 47.7263 142.689 42.001 142.686V164.207Z" fill="#FFCFB5"/>
<path d="M47.5439 155.766C47.5439 153.36 44.9198 151.41 42.1707 151.41C39.4217 151.41 36.7976 153.36 36.7976 155.766C36.7976 161.316 47.5439 161.316 47.5439 155.766Z" fill="#FFA099"/>
<path fill-rule="evenodd" clip-rule="evenodd" d="M40.4251 157.322C39.9305 157.322 39.5295 156.921 39.5295 156.426V155.529C39.5295 155.034 39.9305 154.632 40.4251 154.632C40.9196 154.632 41.3206 155.034 41.3206 155.529V156.426C41.3206 156.921 40.9196 157.322 40.4251 157.322Z" fill="#282A52"/>
<path d="M42.001 159.927C44.7441 159.988 47.5476 158.601 47.5476 155.766C47.5476 153.36 44.9235 151.41 42.1745 151.41C42.1166 151.41 42.0587 151.411 42.001 151.413V159.927Z" fill="#FF7E75"/>
<path fill-rule="evenodd" clip-rule="evenodd" d="M43.5603 157.322C43.0657 157.322 42.6648 156.921 42.6648 156.426V155.529C42.6648 155.034 43.0657 154.632 43.5603 154.632C44.0549 154.632 44.4559 155.034 44.4559 155.529V156.426C44.4559 156.921 44.0549 157.322 43.5603 157.322Z" fill="#1E203E"/>
<path d="M38.6344 147.236C38.9469 146.923 39.4533 146.923 39.7657 147.236C40.0781 147.548 40.0781 148.054 39.7657 148.367L39.1313 149.001L39.7657 149.636L39.8204 149.697C40.0766 150.011 40.0586 150.474 39.7657 150.767C39.4728 151.06 39.0096 151.078 38.6954 150.822L38.6344 150.767L38 150.133L37.3656 150.767L37.3047 150.822C36.9905 151.078 36.5272 151.06 36.2343 150.767C35.9414 150.474 35.9234 150.011 36.1796 149.697L36.2343 149.636L36.8687 149.001L36.2343 148.367C35.9219 148.054 35.9219 147.548 36.2343 147.236C36.5467 146.923 37.0532 146.923 37.3656 147.236L38 147.87L38.6344 147.236Z" fill="#282A52"/>
<path d="M46.6344 147.236C46.9469 146.923 47.4533 146.923 47.7657 147.236C48.0781 147.548 48.0781 148.054 47.7657 148.367L47.1313 149.001L47.7657 149.636L47.8204 149.697C48.0766 150.011 48.0586 150.474 47.7657 150.767C47.4728 151.06 47.0096 151.078 46.6954 150.822L46.6344 150.767L46 150.133L45.3656 150.767L45.3047 150.822C44.9905 151.078 44.5272 151.06 44.2343 150.767C43.9414 150.474 43.9234 150.011 44.1796 149.697L44.2343 149.636L44.8687 149.001L44.2343 148.367C43.9219 148.054 43.9219 147.548 44.2343 147.236C44.5467 146.923 45.0532 146.923 45.3656 147.236L46 147.87L46.6344 147.236Z" fill="#1E203E"/>
<defs>
<filter id="filter0_d_48435_11362" x="10" y="9" width="96" height="96" filterUnits="userSpaceOnUse" color-interpolation-filters="sRGB">
<feFlood flood-opacity="0" result="BackgroundImageFix"/>
<feColorMatrix in="SourceAlpha" type="matrix" values="0 0 0 0 0 0 0 0 0 0 0 0 0 0 0 0 0 0 127 0" result="hardAlpha"/>
<feOffset dx="2" dy="1"/>
<feGaussianBlur stdDeviation="4"/>
<feColorMatrix type="matrix" values="0 0 0 0 0.0392157 0 0 0 0 0.0392157 0 0 0 0 0.0627451 0 0 0 0.08 0"/>
<feBlend mode="normal" in2="BackgroundImageFix" result="effect1_dropShadow_48435_11362"/>
<feBlend mode="normal" in="SourceGraphic" in2="effect1_dropShadow_48435_11362" result="shape"/>
</filter>
</defs>
</svg>
