<svg width="112" height="208" viewBox="0 0 112 208" fill="none" xmlns="http://www.w3.org/2000/svg">
<rect x="0.5" y="0.5" width="111" height="207" rx="4.5" stroke="#9747FF" stroke-dasharray="10 5"/>
<g filter="url(#filter0_d_48279_11362)">
<rect x="16" y="16" width="80" height="80" rx="8" fill="white"/>
</g>
<path d="M49.1193 29V29.8084H42.0003V29H36.4725C35.6593 29 35 29.6593 35 30.4725V49.128C35 49.6803 35.4477 50.128 36 50.128H56.128V31.0045C56.128 29.8974 55.2306 29.0001 54.1237 29.0001L49.1193 29Z" fill="#157DF5"/>
<path d="M49.1198 29.8085H45.5674V50.128H56.1286V30.3344C56.1286 29.5975 55.5312 29 54.7942 29H49.1198V29.8085Z" fill="#0965CD"/>
<path d="M48.4766 35.429H42.6523C42.2925 35.429 42.0007 35.1373 42.0007 34.7774V29H49.1283V34.7774C49.1282 35.1373 48.8364 35.429 48.4766 35.429Z" fill="#40D98D"/>
<path d="M45.5674 35.429H48.4361C48.8184 35.429 49.1283 35.1192 49.1283 34.7369V29H45.5674V35.429Z" fill="#25BB71"/>
<path d="M40.8282 82.8469H31.8958C31.5845 82.8469 31.332 82.5946 31.332 82.2831V76.3997C31.332 76.0884 31.5844 75.8359 31.8958 75.8359H40.8283C41.1396 75.8359 41.3921 76.0883 41.3921 76.3997V82.2831C41.392 82.5946 41.1396 82.8469 40.8282 82.8469Z" fill="#282A52"/>
<path d="M60.4416 82.8469H51.5091C51.1978 82.8469 50.9453 82.5946 50.9453 82.2831V76.3997C50.9453 76.0884 51.1977 75.8359 51.5091 75.8359H60.4416C60.7529 75.8359 61.0054 76.0883 61.0054 76.3997V82.2831C61.0054 82.5946 60.7529 82.8469 60.4416 82.8469Z" fill="#282A52"/>
<path d="M79.8586 82.8469H70.9261C70.6148 82.8469 70.3623 82.5946 70.3623 82.2831V76.3997C70.3623 76.0884 70.6147 75.8359 70.9261 75.8359H79.8586C80.1699 75.8359 80.4224 76.0883 80.4224 76.3997V82.2831C80.4224 82.5946 80.17 82.8469 79.8586 82.8469Z" fill="#1E203E"/>
<path d="M49.0825 49.6953V50.5037H41.9634V49.6953H36.4356C35.6224 49.6953 34.9631 50.3546 34.9631 51.1678V70.8233H56.0912V49.6953H49.0825Z" fill="#157DF5"/>
<path d="M49.0827 50.5038H45.5303V70.8233H56.0915V49.6953H49.0827V50.5038Z" fill="#0965CD"/>
<path d="M48.4397 56.1244H42.6155C42.2556 56.1244 41.9639 55.8326 41.9639 55.4728V49.6953H49.0914V55.4728C49.0913 55.8326 48.7996 56.1244 48.4397 56.1244Z" fill="#40D98D"/>
<path d="M45.5303 56.1244H48.399C48.7813 56.1244 49.0912 55.8145 49.0912 55.4322V49.6953H45.5303V56.1244Z" fill="#25BB71"/>
<path d="M70.21 49.6953V50.5037H63.0911V49.6953H56.0908V70.8233H77.2189V51.2196C77.2189 50.3778 76.5364 49.6953 75.6945 49.6953H70.21Z" fill="#157DF5"/>
<path d="M70.2096 50.5037H66.6572V70.8233H77.2185V51.0372C77.2185 50.2961 76.6177 49.6953 75.8765 49.6953H70.2096V50.5037Z" fill="#0965CD"/>
<path d="M69.5667 56.1244H63.7424C63.3826 56.1244 63.0908 55.8326 63.0908 55.4728V49.6953H70.2184V55.4728C70.2184 55.8326 69.9266 56.1244 69.5667 56.1244Z" fill="#40D98D"/>
<path d="M66.6582 56.1244H69.527C69.9092 56.1244 70.2191 55.8145 70.2191 55.4322V49.6953H66.6582V56.1244Z" fill="#25BB71"/>
<path d="M84 76.1158C84 76.6155 83.5949 77.0207 83.095 77.0207H30.5342H28.905C28.4052 77.0207 28 76.6156 28 76.1158V70.8776C28 70.3779 28.4051 69.9727 28.905 69.9727H83.0951C83.5949 69.9727 84.0001 70.3778 84.0001 70.8776V76.1158H84Z" fill="#E2EFFE"/>
<path d="M60.4057 75.8359H55.999V82.8469H60.4057C60.7364 82.8469 61.0046 82.5788 61.0046 82.248V76.4347C61.0046 76.1041 60.7364 75.8359 60.4057 75.8359Z" fill="#1E203E"/>
<path d="M83.0951 77.0207C83.5948 77.0207 84.0001 76.6156 84.0001 76.1158V70.8776C84.0001 70.3779 83.5949 69.9727 83.0951 69.9727H55.9802V77.0206H83.0951V77.0207Z" fill="#B6D7FC"/>
<path fill-rule="evenodd" clip-rule="evenodd" d="M69 58C77.2843 58 84 51.2843 84 43C84 34.7157 77.2843 28 69 28C60.7157 28 54 34.7157 54 43C54 51.2843 60.7157 58 69 58Z" fill="white"/>
<path d="M69 55C75.6274 55 81 49.6274 81 43C81 36.3726 75.6274 31 69 31C62.3726 31 57 36.3726 57 43C57 49.6274 62.3726 55 69 55Z" fill="#40D98D"/>
<path d="M75.1581 38.6374C74.4592 37.9386 73.3262 37.9386 72.6274 38.6374L67.6994 43.5654L65.3751 41.241C64.6763 40.5419 63.5432 40.5422 62.8444 41.241C62.1456 41.9398 62.1456 43.073 62.8444 43.7717L66.434 47.3614C66.7697 47.6971 67.2248 47.8856 67.6995 47.8856C68.1741 47.8856 68.6293 47.6971 68.9648 47.3614L75.1582 41.1681C75.857 40.4692 75.857 39.3362 75.1581 38.6374Z" fill="white"/>
<path d="M68.9988 31C68.9969 31 68.9949 31 68.9929 31V54.9999C68.9949 54.9999 68.9969 55 68.9988 55C75.6263 55 80.9988 49.6275 80.9988 43C80.9988 36.3726 75.6263 31 68.9988 31Z" fill="#25BB71"/>
<path d="M72.6274 38.6397L68.9954 42.2718V47.3332L75.1581 41.1704C75.8569 40.4716 75.8569 39.3384 75.1581 38.6397C74.4594 37.9409 73.3262 37.9409 72.6274 38.6397Z" fill="#F0F7FE"/>
<path d="M49.1193 126V126.808H42.0003V126H36.4725C35.6593 126 35 126.659 35 127.472V146.128C35 146.68 35.4477 147.128 36 147.128H56.128V128.004C56.128 126.897 55.2306 126 54.1237 126L49.1193 126Z" fill="#157DF5"/>
<path d="M49.1198 126.809H45.5674V147.128H56.1286V127.334C56.1286 126.597 55.5312 126 54.7942 126H49.1198V126.809Z" fill="#0965CD"/>
<path d="M48.4766 132.429H42.6523C42.2925 132.429 42.0007 132.137 42.0007 131.777V126H49.1283V131.777C49.1282 132.137 48.8364 132.429 48.4766 132.429Z" fill="#40D98D"/>
<path d="M45.5674 132.429H48.4361C48.8184 132.429 49.1283 132.119 49.1283 131.737V126H45.5674V132.429Z" fill="#25BB71"/>
<path d="M40.8282 179.847H31.8958C31.5845 179.847 31.332 179.595 31.332 179.283V173.4C31.332 173.088 31.5844 172.836 31.8958 172.836H40.8283C41.1396 172.836 41.3921 173.088 41.3921 173.4V179.283C41.392 179.595 41.1396 179.847 40.8282 179.847Z" fill="#282A52"/>
<path d="M60.4416 179.847H51.5091C51.1978 179.847 50.9453 179.595 50.9453 179.283V173.4C50.9453 173.088 51.1977 172.836 51.5091 172.836H60.4416C60.7529 172.836 61.0054 173.088 61.0054 173.4V179.283C61.0054 179.595 60.7529 179.847 60.4416 179.847Z" fill="#282A52"/>
<path d="M79.8586 179.847H70.9261C70.6148 179.847 70.3623 179.595 70.3623 179.283V173.4C70.3623 173.088 70.6147 172.836 70.9261 172.836H79.8586C80.1699 172.836 80.4224 173.088 80.4224 173.4V179.283C80.4224 179.595 80.17 179.847 79.8586 179.847Z" fill="#1E203E"/>
<path d="M49.0825 146.695V147.504H41.9634V146.695H36.4356C35.6224 146.695 34.9631 147.355 34.9631 148.168V167.823H56.0912V146.695H49.0825Z" fill="#157DF5"/>
<path d="M49.0827 147.504H45.5303V167.823H56.0915V146.695H49.0827V147.504Z" fill="#0965CD"/>
<path d="M48.4397 153.124H42.6155C42.2556 153.124 41.9639 152.833 41.9639 152.473V146.695H49.0914V152.473C49.0913 152.833 48.7996 153.124 48.4397 153.124Z" fill="#40D98D"/>
<path d="M45.5303 153.124H48.399C48.7813 153.124 49.0912 152.814 49.0912 152.432V146.695H45.5303V153.124Z" fill="#25BB71"/>
<path d="M70.21 146.695V147.504H63.0911V146.695H56.0908V167.823H77.2189V148.22C77.2189 147.378 76.5364 146.695 75.6945 146.695H70.21Z" fill="#157DF5"/>
<path d="M70.2096 147.504H66.6572V167.823H77.2185V148.037C77.2185 147.296 76.6177 146.695 75.8765 146.695H70.2096V147.504Z" fill="#0965CD"/>
<path d="M69.5667 153.124H63.7424C63.3826 153.124 63.0908 152.833 63.0908 152.473V146.695H70.2184V152.473C70.2184 152.833 69.9266 153.124 69.5667 153.124Z" fill="#40D98D"/>
<path d="M66.6582 153.124H69.527C69.9092 153.124 70.2191 152.814 70.2191 152.432V146.695H66.6582V153.124Z" fill="#25BB71"/>
<path d="M84 173.116C84 173.615 83.5949 174.021 83.095 174.021H30.5342H28.905C28.4052 174.021 28 173.616 28 173.116V167.878C28 167.378 28.4051 166.973 28.905 166.973H83.0951C83.5949 166.973 84.0001 167.378 84.0001 167.878V173.116H84Z" fill="#E2EFFE"/>
<path d="M60.4057 172.836H55.999V179.847H60.4057C60.7364 179.847 61.0046 179.579 61.0046 179.248V173.435C61.0046 173.104 60.7364 172.836 60.4057 172.836Z" fill="#1E203E"/>
<path d="M83.0951 174.021C83.5948 174.021 84.0001 173.616 84.0001 173.116V167.878C84.0001 167.378 83.5949 166.973 83.0951 166.973H55.9802V174.021H83.0951V174.021Z" fill="#B6D7FC"/>
<path fill-rule="evenodd" clip-rule="evenodd" d="M69 156C77.2843 156 84 149.284 84 141C84 132.716 77.2843 126 69 126C60.7157 126 54 132.716 54 141C54 149.284 60.7157 156 69 156Z" fill="white"/>
<path d="M69 153C75.6274 153 81 147.627 81 141C81 134.373 75.6274 129 69 129C62.3726 129 57 134.373 57 141C57 147.627 62.3726 153 69 153Z" fill="#40D98D"/>
<path d="M75.1581 136.637C74.4592 135.939 73.3262 135.939 72.6274 136.637L67.6994 141.565L65.3751 139.241C64.6763 138.542 63.5432 138.542 62.8444 139.241C62.1456 139.94 62.1456 141.073 62.8444 141.772L66.434 145.361C66.7697 145.697 67.2248 145.886 67.6995 145.886C68.1741 145.886 68.6293 145.697 68.9648 145.361L75.1582 139.168C75.857 138.469 75.857 137.336 75.1581 136.637Z" fill="white"/>
<path d="M68.9988 129C68.9969 129 68.9949 129 68.9929 129V153C68.9949 153 68.9969 153 68.9988 153C75.6263 153 80.9988 147.627 80.9988 141C80.9988 134.373 75.6263 129 68.9988 129Z" fill="#25BB71"/>
<path d="M72.6274 136.64L68.9954 140.272V145.333L75.1581 139.17C75.8569 138.472 75.8569 137.338 75.1581 136.64C74.4594 135.941 73.3262 135.941 72.6274 136.64Z" fill="#F0F7FE"/>
<defs>
<filter id="filter0_d_48279_11362" x="10" y="9" width="96" height="96" filterUnits="userSpaceOnUse" color-interpolation-filters="sRGB">
<feFlood flood-opacity="0" result="BackgroundImageFix"/>
<feColorMatrix in="SourceAlpha" type="matrix" values="0 0 0 0 0 0 0 0 0 0 0 0 0 0 0 0 0 0 127 0" result="hardAlpha"/>
<feOffset dx="2" dy="1"/>
<feGaussianBlur stdDeviation="4"/>
<feColorMatrix type="matrix" values="0 0 0 0 0.0392157 0 0 0 0 0.0392157 0 0 0 0 0.0627451 0 0 0 0.08 0"/>
<feBlend mode="normal" in2="BackgroundImageFix" result="effect1_dropShadow_48279_11362"/>
<feBlend mode="normal" in="SourceGraphic" in2="effect1_dropShadow_48279_11362" result="shape"/>
</filter>
</defs>
</svg>
