<svg width="375" height="80" viewBox="0 0 375 80" fill="none" xmlns="http://www.w3.org/2000/svg">
<path d="M0 79.9999H80V-9.82285e-05H0V79.9999ZM101.562 57.2124L112.852 17.5249H118.32L115.156 32.9546L103.008 74.3999H97.5781L101.562 57.2124ZM89.8828 17.5249L98.8672 56.4312L101.562 74.3999H96.1719L82.3828 17.5249H89.8828ZM132.93 56.3921L141.719 17.5249H149.258L135.508 74.3999H130.117L132.93 56.3921ZM119.141 17.5249L130.117 57.2124L134.102 74.3999H128.672L116.953 32.9546L113.75 17.5249H119.141ZM172.812 75.1812C169.87 75.1812 167.201 74.6864 164.805 73.6968C162.435 72.6812 160.391 71.2619 158.672 69.439C156.979 67.616 155.677 65.4546 154.766 62.9546C153.854 60.4546 153.398 57.7202 153.398 54.7515V53.1108C153.398 49.6733 153.906 46.6134 154.922 43.9312C155.938 41.2228 157.318 38.9312 159.062 37.0562C160.807 35.1812 162.786 33.7619 165 32.7983C167.214 31.8348 169.505 31.353 171.875 31.353C174.896 31.353 177.5 31.8739 179.688 32.9155C181.901 33.9572 183.711 35.4155 185.117 37.2905C186.523 39.1395 187.565 41.327 188.242 43.853C188.919 46.353 189.258 49.0874 189.258 52.0562V55.2983H157.695V49.3999H182.031V48.853C181.927 46.978 181.536 45.1551 180.859 43.3843C180.208 41.6134 179.167 40.1551 177.734 39.0093C176.302 37.8634 174.349 37.2905 171.875 37.2905C170.234 37.2905 168.724 37.6421 167.344 38.3452C165.964 39.0223 164.779 40.0379 163.789 41.3921C162.799 42.7463 162.031 44.3999 161.484 46.353C160.938 48.3062 160.664 50.5588 160.664 53.1108V54.7515C160.664 56.7567 160.938 58.6447 161.484 60.4155C162.057 62.1603 162.878 63.6968 163.945 65.0249C165.039 66.353 166.354 67.3947 167.891 68.1499C169.453 68.9051 171.224 69.2827 173.203 69.2827C175.755 69.2827 177.917 68.7619 179.688 67.7202C181.458 66.6785 183.008 65.2853 184.336 63.5405L188.711 67.0171C187.799 68.3973 186.641 69.7124 185.234 70.9624C183.828 72.2124 182.096 73.228 180.039 74.0093C178.008 74.7905 175.599 75.1812 172.812 75.1812ZM222.617 67.1733V45.4155C222.617 43.7489 222.279 42.3035 221.602 41.0796C220.951 39.8296 219.961 38.866 218.633 38.189C217.305 37.5119 215.664 37.1733 213.711 37.1733C211.888 37.1733 210.286 37.4858 208.906 38.1108C207.552 38.7358 206.484 39.5562 205.703 40.5718C204.948 41.5874 204.57 42.6812 204.57 43.853H197.344C197.344 42.3426 197.734 40.8452 198.516 39.3608C199.297 37.8765 200.417 36.5353 201.875 35.3374C203.359 34.1134 205.13 33.1499 207.188 32.4468C209.271 31.7176 211.589 31.353 214.141 31.353C217.214 31.353 219.922 31.8739 222.266 32.9155C224.635 33.9572 226.484 35.5327 227.812 37.6421C229.167 39.7254 229.844 42.3426 229.844 45.4937V65.1812C229.844 66.5874 229.961 68.0848 230.195 69.6733C230.456 71.2619 230.833 72.6291 231.328 73.7749V74.3999H223.789C223.424 73.5666 223.138 72.4598 222.93 71.0796C222.721 69.6733 222.617 68.3713 222.617 67.1733ZM223.867 48.7749L223.945 53.853H216.641C214.583 53.853 212.747 54.0223 211.133 54.3608C209.518 54.6733 208.164 55.1551 207.07 55.8062C205.977 56.4572 205.143 57.2775 204.57 58.2671C203.997 59.2306 203.711 60.3634 203.711 61.6655C203.711 62.9937 204.01 64.2046 204.609 65.2983C205.208 66.3921 206.107 67.2645 207.305 67.9155C208.529 68.5405 210.026 68.853 211.797 68.853C214.01 68.853 215.964 68.3843 217.656 67.4468C219.349 66.5093 220.69 65.3634 221.68 64.0093C222.695 62.6551 223.242 61.34 223.32 60.064L226.406 63.5405C226.224 64.6343 225.729 65.8452 224.922 67.1733C224.115 68.5015 223.034 69.7775 221.68 71.0015C220.352 72.1994 218.763 73.202 216.914 74.0093C215.091 74.7905 213.034 75.1812 210.742 75.1812C207.878 75.1812 205.365 74.6213 203.203 73.5015C201.068 72.3817 199.401 70.8843 198.203 69.0093C197.031 67.1082 196.445 64.9858 196.445 62.6421C196.445 60.3765 196.888 58.3843 197.773 56.6655C198.659 54.9207 199.935 53.4754 201.602 52.3296C203.268 51.1577 205.273 50.2723 207.617 49.6733C209.961 49.0744 212.578 48.7749 215.469 48.7749H223.867ZM258.906 32.1343V37.6812H236.055V32.1343H258.906ZM243.789 21.8608H251.016V63.9312C251.016 65.3634 251.237 66.4442 251.68 67.1733C252.122 67.9025 252.695 68.3843 253.398 68.6187C254.102 68.853 254.857 68.9702 255.664 68.9702C256.263 68.9702 256.888 68.9181 257.539 68.814C258.216 68.6838 258.724 68.5796 259.062 68.5015L259.102 74.3999C258.529 74.5822 257.773 74.7515 256.836 74.9077C255.924 75.09 254.818 75.1812 253.516 75.1812C251.745 75.1812 250.117 74.8296 248.633 74.1265C247.148 73.4233 245.964 72.2515 245.078 70.6108C244.219 68.9442 243.789 66.7046 243.789 63.8921V21.8608ZM274.609 14.3999V74.3999H267.383V14.3999H274.609ZM272.891 51.6655L269.883 51.5483C269.909 48.6577 270.339 45.9884 271.172 43.5405C272.005 41.0666 273.177 38.9181 274.688 37.0952C276.198 35.2723 277.995 33.866 280.078 32.8765C282.188 31.8608 284.518 31.353 287.07 31.353C289.154 31.353 291.029 31.6395 292.695 32.2124C294.362 32.7593 295.781 33.6447 296.953 34.8687C298.151 36.0926 299.062 37.6812 299.688 39.6343C300.312 41.5614 300.625 43.9181 300.625 46.7046V74.3999H293.359V46.6265C293.359 44.4129 293.034 42.6421 292.383 41.314C291.732 39.9598 290.781 38.9832 289.531 38.3843C288.281 37.7593 286.745 37.4468 284.922 37.4468C283.125 37.4468 281.484 37.8244 280 38.5796C278.542 39.3348 277.279 40.3765 276.211 41.7046C275.169 43.0327 274.349 44.5562 273.75 46.2749C273.177 47.9676 272.891 49.7645 272.891 51.6655ZM328.984 75.1812C326.042 75.1812 323.372 74.6864 320.977 73.6968C318.607 72.6812 316.562 71.2619 314.844 69.439C313.151 67.616 311.849 65.4546 310.938 62.9546C310.026 60.4546 309.57 57.7202 309.57 54.7515V53.1108C309.57 49.6733 310.078 46.6134 311.094 43.9312C312.109 41.2228 313.49 38.9312 315.234 37.0562C316.979 35.1812 318.958 33.7619 321.172 32.7983C323.385 31.8348 325.677 31.353 328.047 31.353C331.068 31.353 333.672 31.8739 335.859 32.9155C338.073 33.9572 339.883 35.4155 341.289 37.2905C342.695 39.1395 343.737 41.327 344.414 43.853C345.091 46.353 345.43 49.0874 345.43 52.0562V55.2983H313.867V49.3999H338.203V48.853C338.099 46.978 337.708 45.1551 337.031 43.3843C336.38 41.6134 335.339 40.1551 333.906 39.0093C332.474 37.8634 330.521 37.2905 328.047 37.2905C326.406 37.2905 324.896 37.6421 323.516 38.3452C322.135 39.0223 320.951 40.0379 319.961 41.3921C318.971 42.7463 318.203 44.3999 317.656 46.353C317.109 48.3062 316.836 50.5588 316.836 53.1108V54.7515C316.836 56.7567 317.109 58.6447 317.656 60.4155C318.229 62.1603 319.049 63.6968 320.117 65.0249C321.211 66.353 322.526 67.3947 324.062 68.1499C325.625 68.9051 327.396 69.2827 329.375 69.2827C331.927 69.2827 334.089 68.7619 335.859 67.7202C337.63 66.6785 339.18 65.2853 340.508 63.5405L344.883 67.0171C343.971 68.3973 342.812 69.7124 341.406 70.9624C340 72.2124 338.268 73.228 336.211 74.0093C334.18 74.7905 331.771 75.1812 328.984 75.1812ZM361.094 38.7749V74.3999H353.867V32.1343H360.898L361.094 38.7749ZM374.297 31.8999L374.258 38.6187C373.659 38.4884 373.086 38.4103 372.539 38.3843C372.018 38.3322 371.419 38.3062 370.742 38.3062C369.076 38.3062 367.604 38.5666 366.328 39.0874C365.052 39.6082 363.971 40.3374 363.086 41.2749C362.201 42.2124 361.497 43.3322 360.977 44.6343C360.482 45.9103 360.156 47.3166 360 48.853L357.969 50.0249C357.969 47.4728 358.216 45.077 358.711 42.8374C359.232 40.5978 360.026 38.6187 361.094 36.8999C362.161 35.1551 363.516 33.8009 365.156 32.8374C366.823 31.8478 368.802 31.353 371.094 31.353C371.615 31.353 372.214 31.4181 372.891 31.5483C373.568 31.6525 374.036 31.7697 374.297 31.8999Z" fill="#344054"/>
</svg>
