<svg width="64" height="64" viewBox="0 0 64 64" fill="none" xmlns="http://www.w3.org/2000/svg">
<rect x="2" y="13" width="60" height="38" rx="4" fill="#BCD6E5"/>
<path d="M32 51H58C60.2091 51 62 49.2091 62 47V17C62 14.7909 60.2091 13 58 13H32V51Z" fill="#99C2D4"/>
<path d="M32.1807 31.9861C32.1807 31.4964 32.2043 30.9835 32.2515 30.4475C32.2987 29.9069 32.3884 29.3779 32.5205 28.8604C32.6574 28.3429 32.8486 27.8508 33.0941 27.3842C33.3396 26.9175 33.6605 26.5086 34.0571 26.1574C34.4583 25.8017 34.9469 25.5198 35.5228 25.3119C36.0987 25.104 36.7832 25 37.5762 25C38.374 25 39.0608 25.104 39.6367 25.3119C40.2174 25.5198 40.7083 25.8017 41.1095 26.1574C41.5108 26.5086 41.8341 26.9175 42.0796 27.3842C42.3298 27.8508 42.521 28.3429 42.6531 28.8604C42.79 29.3779 42.8821 29.9069 42.9293 30.4475C42.9765 30.9835 43.0001 31.4964 43.0001 31.9861C43.0001 32.5036 42.9765 33.0373 42.9293 33.5871C42.8821 34.1323 42.79 34.6637 42.6531 35.1812C42.521 35.6987 42.3298 36.1908 42.0796 36.6574C41.8341 37.1195 41.5108 37.5238 41.1095 37.8703C40.7083 38.2168 40.2174 38.4917 39.6367 38.6951C39.0608 38.8984 38.374 39 37.5762 39C36.7832 39 36.0987 38.8984 35.5228 38.6951C34.9469 38.4917 34.4583 38.2168 34.0571 37.8703C33.6605 37.5238 33.3396 37.1195 33.0941 36.6574C32.8486 36.1908 32.6574 35.6987 32.5205 35.1812C32.3884 34.6637 32.2987 34.1323 32.2515 33.5871C32.2043 33.0373 32.1807 32.5036 32.1807 31.9861ZM35.6927 31.9861C35.6927 32.2449 35.6951 32.529 35.6998 32.8386C35.7093 33.1482 35.7305 33.4601 35.7635 33.7743C35.8013 34.0884 35.858 34.3934 35.9335 34.6891C36.0137 34.9802 36.1223 35.2389 36.2592 35.4653C36.4008 35.6917 36.5778 35.8743 36.7903 36.0129C37.0027 36.1469 37.2647 36.2139 37.5762 36.2139C37.8925 36.2139 38.1568 36.1469 38.3693 36.0129C38.5864 35.8743 38.7658 35.6917 38.9074 35.4653C39.049 35.2389 39.1576 34.9802 39.2331 34.6891C39.3134 34.3934 39.3724 34.0884 39.4101 33.7743C39.4479 33.4601 39.4692 33.1482 39.4739 32.8386C39.4833 32.529 39.488 32.2449 39.488 31.9861C39.488 31.732 39.4833 31.4525 39.4739 31.1475C39.4692 30.8426 39.4479 30.5353 39.4101 30.2257C39.3724 29.9162 39.3134 29.6158 39.2331 29.3248C39.1576 29.0337 39.049 28.7772 38.9074 28.5554C38.7658 28.329 38.5864 28.1488 38.3693 28.0149C38.1521 27.8809 37.8878 27.8139 37.5762 27.8139C37.2694 27.8139 37.0098 27.8809 36.7973 28.0149C36.5896 28.1488 36.415 28.329 36.2734 28.5554C36.1365 28.7772 36.0279 29.0337 35.9476 29.3248C35.8721 29.6158 35.8155 29.9162 35.7777 30.2257C35.7399 30.5353 35.7163 30.8426 35.7069 31.1475C35.6975 31.4525 35.6927 31.732 35.6927 31.9861Z" fill="#646464"/>
<path d="M32.1807 31.9861C32.1807 31.4964 32.2043 30.9835 32.2515 30.4475C32.2987 29.9069 32.3884 29.3779 32.5205 28.8604C32.6574 28.3429 32.8486 27.8508 33.0941 27.3842C33.3396 26.9175 33.6605 26.5086 34.0571 26.1574C34.4583 25.8017 34.9469 25.5198 35.5228 25.3119C36.0987 25.104 36.7832 25 37.5762 25C38.374 25 39.0608 25.104 39.6367 25.3119C40.2174 25.5198 40.7083 25.8017 41.1095 26.1574C41.5108 26.5086 41.8341 26.9175 42.0796 27.3842C42.3298 27.8508 42.521 28.3429 42.6531 28.8604C42.79 29.3779 42.8821 29.9069 42.9293 30.4475C42.9765 30.9835 43.0001 31.4964 43.0001 31.9861C43.0001 32.5036 42.9765 33.0373 42.9293 33.5871C42.8821 34.1323 42.79 34.6637 42.6531 35.1812C42.521 35.6987 42.3298 36.1908 42.0796 36.6574C41.8341 37.1195 41.5108 37.5238 41.1095 37.8703C40.7083 38.2168 40.2174 38.4917 39.6367 38.6951C39.0608 38.8984 38.374 39 37.5762 39C36.7832 39 36.0987 38.8984 35.5228 38.6951C34.9469 38.4917 34.4583 38.2168 34.0571 37.8703C33.6605 37.5238 33.3396 37.1195 33.0941 36.6574C32.8486 36.1908 32.6574 35.6987 32.5205 35.1812C32.3884 34.6637 32.2987 34.1323 32.2515 33.5871C32.2043 33.0373 32.1807 32.5036 32.1807 31.9861ZM35.6927 31.9861C35.6927 32.2449 35.6951 32.529 35.6998 32.8386C35.7093 33.1482 35.7305 33.4601 35.7635 33.7743C35.8013 34.0884 35.858 34.3934 35.9335 34.6891C36.0137 34.9802 36.1223 35.2389 36.2592 35.4653C36.4008 35.6917 36.5778 35.8743 36.7903 36.0129C37.0027 36.1469 37.2647 36.2139 37.5762 36.2139C37.8925 36.2139 38.1568 36.1469 38.3693 36.0129C38.5864 35.8743 38.7658 35.6917 38.9074 35.4653C39.049 35.2389 39.1576 34.9802 39.2331 34.6891C39.3134 34.3934 39.3724 34.0884 39.4101 33.7743C39.4479 33.4601 39.4692 33.1482 39.4739 32.8386C39.4833 32.529 39.488 32.2449 39.488 31.9861C39.488 31.732 39.4833 31.4525 39.4739 31.1475C39.4692 30.8426 39.4479 30.5353 39.4101 30.2257C39.3724 29.9162 39.3134 29.6158 39.2331 29.3248C39.1576 29.0337 39.049 28.7772 38.9074 28.5554C38.7658 28.329 38.5864 28.1488 38.3693 28.0149C38.1521 27.8809 37.8878 27.8139 37.5762 27.8139C37.2694 27.8139 37.0098 27.8809 36.7973 28.0149C36.5896 28.1488 36.415 28.329 36.2734 28.5554C36.1365 28.7772 36.0279 29.0337 35.9476 29.3248C35.8721 29.6158 35.8155 29.9162 35.7777 30.2257C35.7399 30.5353 35.7163 30.8426 35.7069 31.1475C35.6975 31.4525 35.6927 31.732 35.6927 31.9861Z" fill="#303030"/>
<path d="M24.7387 28.0287L24.3067 30.399C24.5616 30.2604 24.7906 30.1472 24.9936 30.0594C25.2013 29.9716 25.4042 29.9046 25.6025 29.8584C25.8008 29.8076 26.0085 29.7729 26.2256 29.7544C26.4428 29.736 26.693 29.7267 26.9762 29.7267C27.3444 29.7267 27.7079 29.7614 28.0666 29.8307C28.4301 29.9 28.7723 30.0086 29.0933 30.1564C29.4191 30.2997 29.7188 30.4868 29.9926 30.7178C30.2664 30.9442 30.5024 31.2168 30.7007 31.5356C30.9037 31.8544 31.0618 32.2218 31.1751 32.6376C31.2884 33.0488 31.345 33.5132 31.345 34.0307C31.345 34.6129 31.2766 35.1373 31.1397 35.604C31.0028 36.0706 30.8069 36.4865 30.552 36.8515C30.3018 37.2119 29.9973 37.5238 29.6386 37.7871C29.2845 38.0459 28.888 38.2607 28.449 38.4317C28.0147 38.598 27.545 38.7205 27.0399 38.799C26.5348 38.8822 26.0085 38.9238 25.4609 38.9238C25.1777 38.9238 24.8708 38.9076 24.5404 38.8752C24.2147 38.8475 23.8866 38.7967 23.5562 38.7228C23.2257 38.6488 22.9071 38.5518 22.6003 38.4317C22.2934 38.3069 22.0196 38.1498 21.7789 37.9604C21.5429 37.7709 21.354 37.5469 21.2124 37.2881C21.0708 37.0294 21 36.7267 21 36.3802C21 36.1399 21.0472 35.9251 21.1416 35.7356C21.236 35.5416 21.3635 35.3776 21.524 35.2436C21.6892 35.1096 21.8804 35.0056 22.0975 34.9317C22.3147 34.8577 22.5483 34.8208 22.7985 34.8208C23.0345 34.8208 23.2375 34.8531 23.4075 34.9178C23.5821 34.9825 23.7403 35.0634 23.8819 35.1604C24.0282 35.2574 24.1651 35.3614 24.2926 35.4723C24.42 35.5832 24.5569 35.6871 24.7033 35.7842C24.8496 35.8812 25.0101 35.962 25.1847 36.0267C25.3641 36.0914 25.5742 36.1238 25.8149 36.1238C26.1454 36.1238 26.4333 36.0683 26.6788 35.9574C26.9243 35.8465 27.1272 35.6987 27.2877 35.5139C27.4482 35.3244 27.5662 35.1096 27.6418 34.8693C27.722 34.6244 27.7621 34.3703 27.7621 34.1069C27.7621 33.7974 27.7102 33.5224 27.6064 33.2822C27.5072 33.0373 27.3703 32.8317 27.1957 32.6653C27.021 32.499 26.818 32.3742 26.5867 32.2911C26.3554 32.2033 26.11 32.1594 25.8503 32.1594C25.5813 32.1594 25.3382 32.1987 25.121 32.2772C24.9039 32.3558 24.6844 32.4436 24.4625 32.5406C24.2406 32.633 24.0023 32.7185 23.7473 32.797C23.4972 32.8756 23.2068 32.9148 22.8764 32.9148C22.7112 32.9148 22.5271 32.8941 22.3241 32.8525C22.1211 32.8063 21.9299 32.7231 21.7506 32.603C21.5712 32.4782 21.4201 32.3096 21.2974 32.097C21.1747 31.8845 21.1133 31.6096 21.1133 31.2723C21.1133 31.1383 21.1227 30.9627 21.1416 30.7455C21.1652 30.5284 21.1959 30.2904 21.2337 30.0317C21.2714 29.7683 21.3139 29.4911 21.3611 29.2C21.4083 28.9089 21.4555 28.6247 21.5027 28.3475C21.5547 28.0657 21.6042 27.7977 21.6514 27.5436C21.6986 27.2894 21.7435 27.0653 21.786 26.8713C21.8521 26.5478 21.9394 26.2799 22.048 26.0673C22.1612 25.8548 22.3005 25.6861 22.4657 25.5614C22.6309 25.432 22.8292 25.3419 23.0605 25.2911C23.2965 25.2403 23.5727 25.2148 23.889 25.2148L29.065 25.2218C29.5748 25.2218 29.9572 25.3465 30.2121 25.596C30.4717 25.8409 30.6015 26.1805 30.6015 26.6148C30.6015 27.0492 30.4717 27.3934 30.2121 27.6475C29.9572 27.9016 29.5748 28.0287 29.065 28.0287H24.7387Z" fill="#646464"/>
<path fill-rule="evenodd" clip-rule="evenodd" d="M6 13C3.79089 13 2 14.791 2 17V47C2 49.209 3.79089 51 6 51H58C60.2092 51 62 49.209 62 47V17C62 14.791 60.2092 13 58 13H6ZM8 17C6.89539 17 6 17.8955 6 19V45C6 46.1045 6.89539 47 8 47H56C57.1045 47 58 46.1045 58 45V19C58 17.8955 57.1045 17 56 17H8Z" fill="#477AB1"/>
<path d="M32 13V17H56C57.1045 17 58 17.8955 58 19V45C58 46.1045 57.1045 47 56 47H32V51H58C60.2092 51 62 49.209 62 47V17C62 14.791 60.2092 13 58 13H32Z" fill="#477AB1"/>
</svg>
