<svg width="64" height="64" viewBox="0 0 64 64" fill="none" xmlns="http://www.w3.org/2000/svg">
<rect x="2" y="13" width="60" height="38" rx="4" fill="#D3E0D5"/>
<rect x="6" y="17" width="52" height="30" rx="2" fill="#D3E0D5"/>
<path d="M32 51H58C60.2091 51 62 49.2091 62 47V17C62 14.7909 60.2091 13 58 13H32V51Z" fill="#AAC0B2"/>
<path d="M32.3418 31.9861C32.3418 31.4964 32.365 30.9835 32.4115 30.4475C32.4581 29.9069 32.5464 29.3779 32.6766 28.8604C32.8115 28.3429 32.9998 27.8508 33.2416 27.3842C33.4834 26.9175 33.7996 26.5086 34.1902 26.1574C34.5855 25.8017 35.0668 25.5198 35.6341 25.3119C36.2014 25.104 36.8757 25 37.657 25C38.4428 25 39.1194 25.104 39.6868 25.3119C40.2587 25.5198 40.7423 25.8017 41.1376 26.1574C41.5329 26.5086 41.8514 26.9175 42.0932 27.3842C42.3397 27.8508 42.528 28.3429 42.6582 28.8604C42.7931 29.3779 42.8838 29.9069 42.9303 30.4475C42.9768 30.9835 43 31.4964 43 31.9861C43 32.5036 42.9768 33.0373 42.9303 33.5871C42.8838 34.1323 42.7931 34.6637 42.6582 35.1812C42.528 35.6987 42.3397 36.1908 42.0932 36.6574C41.8514 37.1195 41.5329 37.5238 41.1376 37.8703C40.7423 38.2168 40.2587 38.4917 39.6868 38.6951C39.1194 38.8984 38.4428 39 37.657 39C36.8757 39 36.2014 38.8984 35.6341 38.6951C35.0668 38.4917 34.5855 38.2168 34.1902 37.8703C33.7996 37.5238 33.4834 37.1195 33.2416 36.6574C32.9998 36.1908 32.8115 35.6987 32.6766 35.1812C32.5464 34.6637 32.4581 34.1323 32.4115 33.5871C32.365 33.0373 32.3418 32.5036 32.3418 31.9861ZM35.8015 31.9861C35.8015 32.2449 35.8039 32.529 35.8085 32.8386C35.8178 33.1482 35.8387 33.4601 35.8713 33.7743C35.9085 34.0884 35.9643 34.3934 36.0387 34.6891C36.1177 34.9802 36.2247 35.2389 36.3596 35.4653C36.4991 35.6917 36.6734 35.8743 36.8827 36.0129C37.092 36.1469 37.35 36.2139 37.657 36.2139C37.9685 36.2139 38.2289 36.1469 38.4382 36.0129C38.6521 35.8743 38.8288 35.6917 38.9683 35.4653C39.1078 35.2389 39.2148 34.9802 39.2892 34.6891C39.3682 34.3934 39.4263 34.0884 39.4635 33.7743C39.5007 33.4601 39.5217 33.1482 39.5263 32.8386C39.5356 32.529 39.5403 32.2449 39.5403 31.9861C39.5403 31.732 39.5356 31.4525 39.5263 31.1475C39.5217 30.8426 39.5007 30.5353 39.4635 30.2257C39.4263 29.9162 39.3682 29.6158 39.2892 29.3248C39.2148 29.0337 39.1078 28.7772 38.9683 28.5554C38.8288 28.329 38.6521 28.1488 38.4382 28.0149C38.2243 27.8809 37.9639 27.8139 37.657 27.8139C37.3547 27.8139 37.0989 27.8809 36.8897 28.0149C36.6851 28.1488 36.513 28.329 36.3735 28.5554C36.2386 28.7772 36.1317 29.0337 36.0526 29.3248C35.9782 29.6158 35.9224 29.9162 35.8852 30.2257C35.848 30.5353 35.8248 30.8426 35.8155 31.1475C35.8062 31.4525 35.8015 31.732 35.8015 31.9861Z" fill="#303030"/>
<path d="M30.2632 35.9714C30.7468 35.9714 31.0955 36.0939 31.3094 36.3387C31.528 36.5836 31.6373 36.9278 31.6373 37.3714C31.6373 37.815 31.528 38.1592 31.3094 38.4041C31.0955 38.649 30.7468 38.7714 30.2632 38.7714H22.3741C22.1602 38.7714 21.9672 38.7344 21.7952 38.6605C21.6278 38.582 21.4836 38.478 21.3627 38.3486C21.2465 38.2193 21.1558 38.0714 21.0907 37.9051C21.0302 37.7387 21 37.5655 21 37.3853C21 37.2051 21.0186 37.0295 21.0558 36.8585C21.093 36.6876 21.1604 36.512 21.2581 36.3318C21.3557 36.147 21.4929 35.9529 21.6696 35.7496C21.8463 35.5417 22.0719 35.313 22.3462 35.0635C22.6252 34.8094 22.9624 34.5275 23.3576 34.2179C23.7529 33.9084 24.2202 33.5572 24.7597 33.1645C25.2433 32.8226 25.6595 32.5176 26.0082 32.2496C26.357 31.977 26.6523 31.7321 26.8941 31.515C27.1406 31.2978 27.3382 31.1038 27.487 30.9328C27.6358 30.7572 27.7497 30.5932 27.8288 30.4407C27.9125 30.2836 27.9683 30.1335 27.9962 29.9902C28.0241 29.847 28.038 29.6968 28.038 29.5397C28.038 29.2486 27.9915 28.9899 27.8985 28.7635C27.8102 28.5371 27.68 28.3453 27.5079 28.1882C27.3359 28.0265 27.1289 27.9041 26.8871 27.8209C26.6453 27.7377 26.371 27.6962 26.064 27.6962C25.7897 27.6962 25.5525 27.7424 25.3526 27.8348C25.1573 27.9226 24.9875 28.0404 24.8434 28.1882C24.7039 28.3361 24.5853 28.5047 24.4876 28.6942C24.39 28.8836 24.304 29.0777 24.2295 29.2764C24.1737 29.4288 24.1086 29.5744 24.0342 29.713C23.9645 29.847 23.8738 29.9671 23.7622 30.0734C23.6553 30.175 23.5227 30.2582 23.3646 30.3229C23.2065 30.383 23.0135 30.413 22.7857 30.413C22.4834 30.413 22.2276 30.3737 22.0184 30.2952C21.8138 30.212 21.6464 30.0965 21.5162 29.9486C21.3906 29.8008 21.2976 29.6252 21.2372 29.4219C21.1814 29.2186 21.1535 28.9945 21.1535 28.7496C21.1535 28.4539 21.2 28.1582 21.293 27.8625C21.3906 27.5622 21.5348 27.2757 21.7254 27.0031C21.9161 26.7259 22.1509 26.4694 22.4299 26.2338C22.7136 25.9981 23.0414 25.7948 23.4134 25.6239C23.7855 25.4483 24.2016 25.312 24.662 25.215C25.127 25.1133 25.6339 25.0625 26.1826 25.0625C26.8383 25.0625 27.4242 25.1203 27.9404 25.2358C28.4612 25.3513 28.9169 25.5107 29.3075 25.714C29.7028 25.9127 30.0376 26.1483 30.312 26.4209C30.591 26.6935 30.8165 26.9892 30.9886 27.308C31.1653 27.6222 31.2932 27.9526 31.3722 28.2991C31.4513 28.6457 31.4908 28.9922 31.4908 29.3387C31.4908 29.7222 31.4559 30.0826 31.3862 30.4199C31.3211 30.7572 31.2095 31.0783 31.0514 31.3833C30.8979 31.6882 30.6933 31.9816 30.4375 32.2635C30.1818 32.5453 29.8656 32.8272 29.4889 33.109L25.6246 35.9714H30.2632Z" fill="#646464"/>
<path fill-rule="evenodd" clip-rule="evenodd" d="M6 13C3.79089 13 2 14.791 2 17V47C2 49.209 3.79089 51 6 51H58C60.2092 51 62 49.209 62 47V17C62 14.791 60.2092 13 58 13H6ZM8 17C6.89539 17 6 17.8955 6 19V45C6 46.1045 6.89539 47 8 47H56C57.1045 47 58 46.1045 58 45V19C58 17.8955 57.1045 17 56 17H8Z" fill="#7EA78B"/>
<path d="M32 13V17H56C57.1045 17 58 17.8955 58 19V45C58 46.1045 57.1045 47 56 47H32V51H58C60.2092 51 62 49.209 62 47V17C62 14.791 60.2092 13 58 13H32Z" fill="#81A189"/>
</svg>
