<svg width="64" height="64" viewBox="0 0 64 64" fill="none" xmlns="http://www.w3.org/2000/svg">
<rect x="2" y="13" width="60" height="38" rx="4" fill="#F4D9DE"/>
<path d="M32 51H58C60.2091 51 62 49.2091 62 47V17C62 14.7909 60.2091 13 58 13H32V51Z" fill="#DC899D"/>
<path d="M37.4932 31.9861C37.4932 31.4964 37.5161 30.9835 37.5619 30.4475C37.6078 29.9069 37.6949 29.3779 37.8232 28.8604C37.9562 28.3429 38.1418 27.8508 38.3802 27.3842C38.6186 26.9175 38.9303 26.5086 39.3153 26.1574C39.705 25.8017 40.1794 25.5198 40.7387 25.3119C41.298 25.104 41.9627 25 42.7328 25C43.5075 25 44.1745 25.104 44.7338 25.3119C45.2976 25.5198 45.7743 25.8017 46.164 26.1574C46.5536 26.5086 46.8677 26.9175 47.106 27.3842C47.349 27.8508 47.5346 28.3429 47.663 28.8604C47.7959 29.3779 47.8853 29.9069 47.9312 30.4475C47.977 30.9835 47.9999 31.4964 47.9999 31.9861C47.9999 32.5036 47.977 33.0373 47.9312 33.5871C47.8853 34.1323 47.7959 34.6637 47.663 35.1812C47.5346 35.6987 47.349 36.1908 47.106 36.6574C46.8677 37.1195 46.5536 37.5238 46.164 37.8703C45.7743 38.2168 45.2976 38.4917 44.7338 38.6951C44.1745 38.8984 43.5075 39 42.7328 39C41.9627 39 41.298 38.8984 40.7387 38.6951C40.1794 38.4917 39.705 38.2168 39.3153 37.8703C38.9303 37.5238 38.6186 37.1195 38.3802 36.6574C38.1418 36.1908 37.9562 35.6987 37.8232 35.1812C37.6949 34.6637 37.6078 34.1323 37.5619 33.5871C37.5161 33.0373 37.4932 32.5036 37.4932 31.9861ZM40.9037 31.9861C40.9037 32.2449 40.906 32.529 40.9106 32.8386C40.9198 33.1482 40.9404 33.4601 40.9725 33.7743C41.0092 34.0884 41.0642 34.3934 41.1375 34.6891C41.2155 34.9802 41.3209 35.2389 41.4538 35.4653C41.5914 35.6917 41.7633 35.8743 41.9695 36.0129C42.1758 36.1469 42.4302 36.2139 42.7328 36.2139C43.0399 36.2139 43.2966 36.1469 43.5029 36.0129C43.7138 35.8743 43.888 35.6917 44.0255 35.4653C44.163 35.2389 44.2685 34.9802 44.3418 34.6891C44.4197 34.3934 44.477 34.0884 44.5137 33.7743C44.5504 33.4601 44.571 33.1482 44.5756 32.8386C44.5848 32.529 44.5894 32.2449 44.5894 31.9861C44.5894 31.732 44.5848 31.4525 44.5756 31.1475C44.571 30.8426 44.5504 30.5353 44.5137 30.2257C44.477 29.9162 44.4197 29.6158 44.3418 29.3248C44.2685 29.0337 44.163 28.7772 44.0255 28.5554C43.888 28.329 43.7138 28.1488 43.5029 28.0149C43.2921 27.8809 43.0353 27.8139 42.7328 27.8139C42.4348 27.8139 42.1827 27.8809 41.9764 28.0149C41.7747 28.1488 41.6051 28.329 41.4676 28.5554C41.3346 28.7772 41.2292 29.0337 41.1513 29.3248C41.0779 29.6158 41.0229 29.9162 40.9863 30.2257C40.9496 30.5353 40.9267 30.8426 40.9175 31.1475C40.9083 31.4525 40.9037 31.732 40.9037 31.9861Z" fill="#646464"/>
<path d="M26.2988 31.9861C26.2988 31.4964 26.3217 30.9835 26.3676 30.4475C26.4134 29.9069 26.5005 29.3779 26.6289 28.8604C26.7618 28.3429 26.9475 27.8508 27.1859 27.3842C27.4242 26.9175 27.7359 26.5086 28.121 26.1574C28.5107 25.8017 28.9851 25.5198 29.5444 25.3119C30.1036 25.104 30.7683 25 31.5385 25C32.3132 25 32.9802 25.104 33.5394 25.3119C34.1033 25.5198 34.58 25.8017 34.9697 26.1574C35.3593 26.5086 35.6733 26.9175 35.9117 27.3842C36.1547 27.8508 36.3403 28.3429 36.4687 28.8604C36.6016 29.3779 36.691 29.9069 36.7368 30.4475C36.7827 30.9835 36.8056 31.4964 36.8056 31.9861C36.8056 32.5036 36.7827 33.0373 36.7368 33.5871C36.691 34.1323 36.6016 34.6637 36.4687 35.1812C36.3403 35.6987 36.1547 36.1908 35.9117 36.6574C35.6733 37.1195 35.3593 37.5238 34.9697 37.8703C34.58 38.2168 34.1033 38.4917 33.5394 38.6951C32.9802 38.8984 32.3132 39 31.5385 39C30.7683 39 30.1036 38.8984 29.5444 38.6951C28.9851 38.4917 28.5107 38.2168 28.121 37.8703C27.7359 37.5238 27.4242 37.1195 27.1859 36.6574C26.9475 36.1908 26.7618 35.6987 26.6289 35.1812C26.5005 34.6637 26.4134 34.1323 26.3676 33.5871C26.3217 33.0373 26.2988 32.5036 26.2988 31.9861ZM29.7094 31.9861C29.7094 32.2449 29.7117 32.529 29.7163 32.8386C29.7254 33.1482 29.7461 33.4601 29.7782 33.7743C29.8148 34.0884 29.8698 34.3934 29.9432 34.6891C30.0211 34.9802 30.1266 35.2389 30.2595 35.4653C30.397 35.6917 30.5689 35.8743 30.7752 36.0129C30.9815 36.1469 31.2359 36.2139 31.5385 36.2139C31.8456 36.2139 32.1023 36.1469 32.3086 36.0129C32.5195 35.8743 32.6937 35.6917 32.8312 35.4653C32.9687 35.2389 33.0741 34.9802 33.1475 34.6891C33.2254 34.3934 33.2827 34.0884 33.3194 33.7743C33.3561 33.4601 33.3767 33.1482 33.3813 32.8386C33.3904 32.529 33.395 32.2449 33.395 31.9861C33.395 31.732 33.3904 31.4525 33.3813 31.1475C33.3767 30.8426 33.3561 30.5353 33.3194 30.2257C33.2827 29.9162 33.2254 29.6158 33.1475 29.3248C33.0741 29.0337 32.9687 28.7772 32.8312 28.5554C32.6937 28.329 32.5195 28.1488 32.3086 28.0149C32.0977 27.8809 31.841 27.8139 31.5385 27.8139C31.2405 27.8139 30.9884 27.8809 30.7821 28.0149C30.5804 28.1488 30.4108 28.329 30.2732 28.5554C30.1403 28.7772 30.0349 29.0337 29.9569 29.3248C29.8836 29.6158 29.8286 29.9162 29.7919 30.2257C29.7552 30.5353 29.7323 30.8426 29.7232 31.1475C29.714 31.4525 29.7094 31.732 29.7094 31.9861Z" fill="#646464"/>
<path d="M20.4587 29.6782C20.257 29.7799 20.053 29.8608 19.8467 29.9208C19.6404 29.9763 19.4342 30.0202 19.2279 30.0525C19.0262 30.0802 18.8313 30.0987 18.6434 30.1079C18.4555 30.1172 18.2835 30.1218 18.1277 30.1218C17.7426 30.1218 17.4584 30.0294 17.275 29.8446C17.0917 29.6598 17 29.3918 17 29.0406C17 28.8419 17.0206 28.6779 17.0619 28.5485C17.1077 28.4146 17.1902 28.3013 17.3094 28.2089C17.4286 28.1165 17.5913 28.0403 17.7976 27.9802C18.0085 27.9155 18.2813 27.8555 18.6159 27.8C18.9322 27.7446 19.2095 27.6683 19.4479 27.5713C19.6909 27.4697 19.9063 27.3542 20.0943 27.2248C20.2868 27.0908 20.4564 26.9429 20.6031 26.7812C20.7544 26.6195 20.8965 26.4462 21.0294 26.2614C21.1669 26.0674 21.293 25.8964 21.4076 25.7485C21.5268 25.6007 21.6437 25.4759 21.7583 25.3743C21.8775 25.2726 22.0013 25.1964 22.1296 25.1456C22.258 25.0947 22.4001 25.0693 22.5559 25.0693C22.9593 25.0693 23.2711 25.1548 23.4911 25.3258C23.7111 25.4967 23.8211 25.7647 23.8211 26.1297V37.2535C23.8211 37.54 23.7799 37.7895 23.6974 38.002C23.6149 38.2099 23.498 38.3832 23.3467 38.5218C23.2 38.6604 23.0235 38.7621 22.8172 38.8268C22.6109 38.8961 22.384 38.9307 22.1365 38.9307C21.8935 38.9307 21.6689 38.8961 21.4626 38.8268C21.2563 38.7621 21.0776 38.6604 20.9263 38.5218C20.7796 38.3832 20.665 38.2099 20.5825 38.002C20.5 37.7895 20.4587 37.54 20.4587 37.2535V29.6782Z" fill="#646464"/>
<path d="M37.4932 31.9861C37.4932 31.4964 37.5161 30.9835 37.5619 30.4475C37.6078 29.9069 37.6949 29.3779 37.8232 28.8604C37.9562 28.3429 38.1418 27.8508 38.3802 27.3842C38.6186 26.9175 38.9303 26.5086 39.3153 26.1574C39.705 25.8017 40.1794 25.5198 40.7387 25.3119C41.298 25.104 41.9627 25 42.7328 25C43.5075 25 44.1745 25.104 44.7338 25.3119C45.2976 25.5198 45.7743 25.8017 46.164 26.1574C46.5536 26.5086 46.8677 26.9175 47.106 27.3842C47.349 27.8508 47.5346 28.3429 47.663 28.8604C47.7959 29.3779 47.8853 29.9069 47.9312 30.4475C47.977 30.9835 47.9999 31.4964 47.9999 31.9861C47.9999 32.5036 47.977 33.0373 47.9312 33.5871C47.8853 34.1323 47.7959 34.6637 47.663 35.1812C47.5346 35.6987 47.349 36.1908 47.106 36.6574C46.8677 37.1195 46.5536 37.5238 46.164 37.8703C45.7743 38.2168 45.2976 38.4917 44.7338 38.6951C44.1745 38.8984 43.5075 39 42.7328 39C41.9627 39 41.298 38.8984 40.7387 38.6951C40.1794 38.4917 39.705 38.2168 39.3153 37.8703C38.9303 37.5238 38.6186 37.1195 38.3802 36.6574C38.1418 36.1908 37.9562 35.6987 37.8232 35.1812C37.6949 34.6637 37.6078 34.1323 37.5619 33.5871C37.5161 33.0373 37.4932 32.5036 37.4932 31.9861ZM40.9037 31.9861C40.9037 32.2449 40.906 32.529 40.9106 32.8386C40.9198 33.1482 40.9404 33.4601 40.9725 33.7743C41.0092 34.0884 41.0642 34.3934 41.1375 34.6891C41.2155 34.9802 41.3209 35.2389 41.4538 35.4653C41.5914 35.6917 41.7633 35.8743 41.9695 36.0129C42.1758 36.1469 42.4302 36.2139 42.7328 36.2139C43.0399 36.2139 43.2966 36.1469 43.5029 36.0129C43.7138 35.8743 43.888 35.6917 44.0255 35.4653C44.163 35.2389 44.2685 34.9802 44.3418 34.6891C44.4197 34.3934 44.477 34.0884 44.5137 33.7743C44.5504 33.4601 44.571 33.1482 44.5756 32.8386C44.5848 32.529 44.5894 32.2449 44.5894 31.9861C44.5894 31.732 44.5848 31.4525 44.5756 31.1475C44.571 30.8426 44.5504 30.5353 44.5137 30.2257C44.477 29.9162 44.4197 29.6158 44.3418 29.3248C44.2685 29.0337 44.163 28.7772 44.0255 28.5554C43.888 28.329 43.7138 28.1488 43.5029 28.0149C43.2921 27.8809 43.0353 27.8139 42.7328 27.8139C42.4348 27.8139 42.1827 27.8809 41.9764 28.0149C41.7747 28.1488 41.6051 28.329 41.4676 28.5554C41.3346 28.7772 41.2292 29.0337 41.1513 29.3248C41.0779 29.6158 41.0229 29.9162 40.9863 30.2257C40.9496 30.5353 40.9267 30.8426 40.9175 31.1475C40.9083 31.4525 40.9037 31.732 40.9037 31.9861Z" fill="#303030"/>
<path d="M32 38.9869C32.5813 38.9539 33.0945 38.8565 33.5394 38.6947C34.1033 38.4914 34.58 38.2165 34.9697 37.87C35.3593 37.5234 35.6733 37.1191 35.9117 36.6571C36.1547 36.1904 36.3403 35.6983 36.4687 35.1809C36.6016 34.6634 36.691 34.132 36.7368 33.5868C36.7827 33.037 36.8056 32.5033 36.8056 31.9858C36.8056 31.496 36.7827 30.9832 36.7368 30.4472C36.691 29.9066 36.6016 29.3776 36.4687 28.8601C36.3403 28.3426 36.1547 27.8505 35.9117 27.3838C35.6733 26.9172 35.3593 26.5082 34.9697 26.1571C34.58 25.8013 34.1033 25.5195 33.5394 25.3115C33.0945 25.1461 32.5813 25.0465 32 25.0127V27.8755C32.1119 27.9086 32.2148 27.9549 32.3086 28.0145C32.5195 28.1485 32.6937 28.3287 32.8312 28.5551C32.9687 28.7769 33.0741 29.0333 33.1475 29.3244C33.2254 29.6155 33.2827 29.9158 33.3194 30.2254C33.3561 30.535 33.3767 30.8422 33.3813 31.1472C33.3904 31.4521 33.395 31.7317 33.395 31.9858C33.395 32.2446 33.3904 32.5287 33.3813 32.8383C33.3767 33.1479 33.3561 33.4597 33.3194 33.7739C33.2827 34.0881 33.2254 34.3931 33.1475 34.6888C33.0741 34.9799 32.9687 35.2386 32.8312 35.465C32.6937 35.6914 32.5195 35.8739 32.3086 36.0125C32.2159 36.0727 32.113 36.1194 32 36.1526V38.9869Z" fill="#303030"/>
<path fill-rule="evenodd" clip-rule="evenodd" d="M6 13C3.79089 13 2 14.791 2 17V47C2 49.209 3.79089 51 6 51H58C60.2092 51 62 49.209 62 47V17C62 14.791 60.2092 13 58 13H6ZM8 17C6.89539 17 6 17.8955 6 19V45C6 46.1045 6.89539 47 8 47H56C57.1045 47 58 46.1045 58 45V19C58 17.8955 57.1045 17 56 17H8Z" fill="#D8758D"/>
<path d="M32 13V17H56C57.1045 17 58 17.8955 58 19V45C58 46.1045 57.1045 47 56 47H32V51H58C60.2092 51 62 49.209 62 47V17C62 14.791 60.2092 13 58 13H32Z" fill="#AE626E"/>
</svg>
