<svg width="64" height="64" viewBox="0 0 64 64" fill="none" xmlns="http://www.w3.org/2000/svg">
<rect x="2" y="13" width="60" height="38" rx="4" fill="#E6DAE8"/>
<path d="M32 51H58C60.2091 51 62 49.2091 62 47V17C62 14.7909 60.2091 13 58 13H32V51Z" fill="#EECCEF"/>
<path d="M38.3506 31.9861C38.3506 31.4964 38.3738 30.9835 38.4203 30.4475C38.4667 29.9069 38.555 29.3779 38.6851 28.8604C38.8199 28.3429 39.008 27.8508 39.2496 27.3842C39.4912 26.9175 39.8072 26.5086 40.1975 26.1574C40.5924 25.8017 41.0733 25.5198 41.6401 25.3119C42.207 25.104 42.8807 25 43.6613 25C44.4465 25 45.1225 25.104 45.6893 25.3119C46.2608 25.5198 46.744 25.8017 47.139 26.1574C47.5339 26.5086 47.8522 26.9175 48.0938 27.3842C48.34 27.8508 48.5282 28.3429 48.6583 28.8604C48.793 29.3779 48.8836 29.9069 48.9301 30.4475C48.9766 30.9835 48.9998 31.4964 48.9998 31.9861C48.9998 32.5036 48.9766 33.0373 48.9301 33.5871C48.8836 34.1323 48.793 34.6637 48.6583 35.1812C48.5282 35.6987 48.34 36.1908 48.0938 36.6574C47.8522 37.1195 47.5339 37.5238 47.139 37.8703C46.744 38.2168 46.2608 38.4917 45.6893 38.6951C45.1225 38.8984 44.4465 39 43.6613 39C42.8807 39 42.207 38.8984 41.6401 38.6951C41.0733 38.4917 40.5924 38.2168 40.1975 37.8703C39.8072 37.5238 39.4912 37.1195 39.2496 36.6574C39.008 36.1908 38.8199 35.6987 38.6851 35.1812C38.555 34.6637 38.4667 34.1323 38.4203 33.5871C38.3738 33.0373 38.3506 32.5036 38.3506 31.9861ZM41.8074 31.9861C41.8074 32.2449 41.8097 32.529 41.8144 32.8386C41.8237 33.1482 41.8446 33.4601 41.8771 33.7743C41.9143 34.0884 41.97 34.3934 42.0444 34.6891C42.1233 34.9802 42.2302 35.2389 42.3649 35.4653C42.5043 35.6917 42.6786 35.8743 42.8877 36.0129C43.0967 36.1469 43.3546 36.2139 43.6613 36.2139C43.9726 36.2139 44.2327 36.1469 44.4418 36.0129C44.6555 35.8743 44.8321 35.6917 44.9715 35.4653C45.1109 35.2389 45.2177 34.9802 45.2921 34.6891C45.3711 34.3934 45.4292 34.0884 45.4663 33.7743C45.5035 33.4601 45.5244 33.1482 45.529 32.8386C45.5383 32.529 45.543 32.2449 45.543 31.9861C45.543 31.732 45.5383 31.4525 45.529 31.1475C45.5244 30.8426 45.5035 30.5353 45.4663 30.2257C45.4292 29.9162 45.3711 29.6158 45.2921 29.3248C45.2177 29.0337 45.1109 28.7772 44.9715 28.5554C44.8321 28.329 44.6555 28.1488 44.4418 28.0149C44.2281 27.8809 43.9679 27.8139 43.6613 27.8139C43.3592 27.8139 43.1037 27.8809 42.8946 28.0149C42.6902 28.1488 42.5183 28.329 42.3789 28.5554C42.2441 28.7772 42.1373 29.0337 42.0583 29.3248C41.984 29.6158 41.9282 29.9162 41.891 30.2257C41.8539 30.5353 41.8306 30.8426 41.8213 31.1475C41.812 31.4525 41.8074 31.732 41.8074 31.9861Z" fill="#646464"/>
<path d="M27.0044 31.9861C27.0044 31.4964 27.0276 30.9835 27.0741 30.4475C27.1206 29.9069 27.2088 29.3779 27.3389 28.8604C27.4737 28.3429 27.6618 27.8508 27.9034 27.3842C28.145 26.9175 28.461 26.5086 28.8513 26.1574C29.2462 25.8017 29.7271 25.5198 30.2939 25.3119C30.8608 25.104 31.5345 25 32.3151 25C33.1003 25 33.7763 25.104 34.3431 25.3119C34.9146 25.5198 35.3978 25.8017 35.7928 26.1574C36.1877 26.5086 36.506 26.9175 36.7476 27.3842C36.9938 27.8508 37.182 28.3429 37.3121 28.8604C37.4468 29.3779 37.5374 29.9069 37.5839 30.4475C37.6304 30.9835 37.6536 31.4964 37.6536 31.9861C37.6536 32.5036 37.6304 33.0373 37.5839 33.5871C37.5374 34.1323 37.4468 34.6637 37.3121 35.1812C37.182 35.6987 36.9938 36.1908 36.7476 36.6574C36.506 37.1195 36.1877 37.5238 35.7928 37.8703C35.3978 38.2168 34.9146 38.4917 34.3431 38.6951C33.7763 38.8984 33.1003 39 32.3151 39C31.5345 39 30.8608 38.8984 30.2939 38.6951C29.7271 38.4917 29.2462 38.2168 28.8513 37.8703C28.461 37.5238 28.145 37.1195 27.9034 36.6574C27.6618 36.1908 27.4737 35.6987 27.3389 35.1812C27.2088 34.6637 27.1206 34.1323 27.0741 33.5871C27.0276 33.0373 27.0044 32.5036 27.0044 31.9861ZM30.4612 31.9861C30.4612 32.2449 30.4635 32.529 30.4682 32.8386C30.4775 33.1482 30.4984 33.4601 30.5309 33.7743C30.5681 34.0884 30.6238 34.3934 30.6982 34.6891C30.7772 34.9802 30.884 35.2389 31.0188 35.4653C31.1581 35.6917 31.3324 35.8743 31.5415 36.0129C31.7505 36.1469 32.0084 36.2139 32.3151 36.2139C32.6264 36.2139 32.8865 36.1469 33.0956 36.0129C33.3094 35.8743 33.4859 35.6917 33.6253 35.4653C33.7647 35.2389 33.8716 34.9802 33.9459 34.6891C34.0249 34.3934 34.083 34.0884 34.1201 33.7743C34.1573 33.4601 34.1782 33.1482 34.1829 32.8386C34.1921 32.529 34.1968 32.2449 34.1968 31.9861C34.1968 31.732 34.1921 31.4525 34.1829 31.1475C34.1782 30.8426 34.1573 30.5353 34.1201 30.2257C34.083 29.9162 34.0249 29.6158 33.9459 29.3248C33.8716 29.0337 33.7647 28.7772 33.6253 28.5554C33.4859 28.329 33.3094 28.1488 33.0956 28.0149C32.8819 27.8809 32.6217 27.8139 32.3151 27.8139C32.0131 27.8139 31.7575 27.8809 31.5484 28.0149C31.344 28.1488 31.1721 28.329 31.0327 28.5554C30.898 28.7772 30.7911 29.0337 30.7121 29.3248C30.6378 29.6158 30.582 29.9162 30.5448 30.2257C30.5077 30.5353 30.4844 30.8426 30.4751 31.1475C30.4659 31.4525 30.4612 31.732 30.4612 31.9861Z" fill="#646464"/>
<path d="M19.6798 28.0287L19.2547 30.399C19.5056 30.2604 19.7309 30.1472 19.9307 30.0594C20.1352 29.9716 20.335 29.9046 20.5301 29.8584C20.7252 29.8076 20.9297 29.7729 21.1434 29.7544C21.3571 29.736 21.6034 29.7267 21.8822 29.7267C22.2446 29.7267 22.6023 29.7614 22.9554 29.8307C23.3132 29.9 23.6501 30.0086 23.966 30.1564C24.2866 30.2997 24.5816 30.4868 24.8511 30.7178C25.1206 30.9442 25.3529 31.2168 25.548 31.5356C25.7478 31.8544 25.9035 32.2218 26.015 32.6376C26.1265 33.0488 26.1823 33.5132 26.1823 34.0307C26.1823 34.6129 26.1149 35.1373 25.9801 35.604C25.8454 36.0706 25.6526 36.4865 25.4017 36.8515C25.1554 37.2119 24.8558 37.5238 24.5026 37.7871C24.1542 38.0459 23.7639 38.2607 23.3318 38.4317C22.9043 38.598 22.442 38.7205 21.9449 38.799C21.4477 38.8822 20.9297 38.9238 20.3907 38.9238C20.1119 38.9238 19.8099 38.9076 19.4847 38.8752C19.1641 38.8475 18.8412 38.7967 18.5159 38.7228C18.1907 38.6488 17.8771 38.5518 17.5751 38.4317C17.2731 38.3069 17.0036 38.1498 16.7666 37.9604C16.5343 37.7709 16.3485 37.5469 16.2091 37.2881C16.0697 37.0294 16 36.7267 16 36.3802C16 36.1399 16.0465 35.9251 16.1394 35.7356C16.2323 35.5416 16.3578 35.3776 16.5157 35.2436C16.6784 35.1096 16.8665 35.0056 17.0803 34.9317C17.294 34.8577 17.524 34.8208 17.7702 34.8208C18.0025 34.8208 18.2023 34.8531 18.3696 34.9178C18.5415 34.9825 18.6971 35.0634 18.8365 35.1604C18.9806 35.2574 19.1153 35.3614 19.2408 35.4723C19.3662 35.5832 19.501 35.6871 19.645 35.7842C19.789 35.8812 19.947 35.962 20.1189 36.0267C20.2955 36.0914 20.5022 36.1238 20.7392 36.1238C21.0644 36.1238 21.3478 36.0683 21.5894 35.9574C21.831 35.8465 22.0308 35.6987 22.1888 35.5139C22.3468 35.3244 22.4629 35.1096 22.5373 34.8693C22.6163 34.6244 22.6558 34.3703 22.6558 34.1069C22.6558 33.7974 22.6046 33.5224 22.5024 33.2822C22.4049 33.0373 22.2701 32.8317 22.0982 32.6653C21.9263 32.499 21.7265 32.3742 21.4988 32.2911C21.2712 32.2033 21.0296 32.1594 20.774 32.1594C20.5092 32.1594 20.2699 32.1987 20.0562 32.2772C19.8424 32.3558 19.6264 32.4436 19.408 32.5406C19.1897 32.633 18.955 32.7185 18.7041 32.797C18.4579 32.8756 18.1721 32.9148 17.8469 32.9148C17.6843 32.9148 17.5031 32.8941 17.3033 32.8525C17.1035 32.8063 16.9153 32.7231 16.7388 32.603C16.5622 32.4782 16.4135 32.3096 16.2927 32.097C16.1719 31.8845 16.1115 31.6096 16.1115 31.2723C16.1115 31.1383 16.1208 30.9627 16.1394 30.7455C16.1626 30.5284 16.1928 30.2904 16.23 30.0317C16.2672 29.7683 16.309 29.4911 16.3554 29.2C16.4019 28.9089 16.4484 28.6247 16.4948 28.3475C16.5459 28.0657 16.5947 27.7977 16.6412 27.5436C16.6876 27.2894 16.7318 27.0653 16.7736 26.8713C16.8386 26.5478 16.9246 26.2799 17.0315 26.0673C17.143 25.8548 17.28 25.6861 17.4427 25.5614C17.6053 25.432 17.8004 25.3419 18.0281 25.2911C18.2604 25.2403 18.5322 25.2148 18.8435 25.2148L23.9381 25.2218C24.4399 25.2218 24.8163 25.3465 25.0672 25.596C25.3227 25.8409 25.4505 26.1805 25.4505 26.6148C25.4505 27.0492 25.3227 27.3934 25.0672 27.6475C24.8163 27.9016 24.4399 28.0287 23.9381 28.0287H19.6798Z" fill="#646464"/>
<path d="M38.3506 31.9861C38.3506 31.4964 38.3738 30.9835 38.4203 30.4475C38.4667 29.9069 38.555 29.3779 38.6851 28.8604C38.8199 28.3429 39.008 27.8508 39.2496 27.3842C39.4912 26.9175 39.8072 26.5086 40.1975 26.1574C40.5924 25.8017 41.0733 25.5198 41.6401 25.3119C42.207 25.104 42.8807 25 43.6613 25C44.4465 25 45.1225 25.104 45.6893 25.3119C46.2608 25.5198 46.744 25.8017 47.139 26.1574C47.5339 26.5086 47.8522 26.9175 48.0938 27.3842C48.34 27.8508 48.5282 28.3429 48.6583 28.8604C48.793 29.3779 48.8836 29.9069 48.9301 30.4475C48.9766 30.9835 48.9998 31.4964 48.9998 31.9861C48.9998 32.5036 48.9766 33.0373 48.9301 33.5871C48.8836 34.1323 48.793 34.6637 48.6583 35.1812C48.5282 35.6987 48.34 36.1908 48.0938 36.6574C47.8522 37.1195 47.5339 37.5238 47.139 37.8703C46.744 38.2168 46.2608 38.4917 45.6893 38.6951C45.1225 38.8984 44.4465 39 43.6613 39C42.8807 39 42.207 38.8984 41.6401 38.6951C41.0733 38.4917 40.5924 38.2168 40.1975 37.8703C39.8072 37.5238 39.4912 37.1195 39.2496 36.6574C39.008 36.1908 38.8199 35.6987 38.6851 35.1812C38.555 34.6637 38.4667 34.1323 38.4203 33.5871C38.3738 33.0373 38.3506 32.5036 38.3506 31.9861ZM41.8074 31.9861C41.8074 32.2449 41.8097 32.529 41.8144 32.8386C41.8237 33.1482 41.8446 33.4601 41.8771 33.7743C41.9143 34.0884 41.97 34.3934 42.0444 34.6891C42.1233 34.9802 42.2302 35.2389 42.3649 35.4653C42.5043 35.6917 42.6786 35.8743 42.8877 36.0129C43.0967 36.1469 43.3546 36.2139 43.6613 36.2139C43.9726 36.2139 44.2327 36.1469 44.4418 36.0129C44.6555 35.8743 44.8321 35.6917 44.9715 35.4653C45.1109 35.2389 45.2177 34.9802 45.2921 34.6891C45.3711 34.3934 45.4292 34.0884 45.4663 33.7743C45.5035 33.4601 45.5244 33.1482 45.529 32.8386C45.5383 32.529 45.543 32.2449 45.543 31.9861C45.543 31.732 45.5383 31.4525 45.529 31.1475C45.5244 30.8426 45.5035 30.5353 45.4663 30.2257C45.4292 29.9162 45.3711 29.6158 45.2921 29.3248C45.2177 29.0337 45.1109 28.7772 44.9715 28.5554C44.8321 28.329 44.6555 28.1488 44.4418 28.0149C44.2281 27.8809 43.9679 27.8139 43.6613 27.8139C43.3592 27.8139 43.1037 27.8809 42.8946 28.0149C42.6902 28.1488 42.5183 28.329 42.3789 28.5554C42.2441 28.7772 42.1373 29.0337 42.0583 29.3248C41.984 29.6158 41.9282 29.9162 41.891 30.2257C41.8539 30.5353 41.8306 30.8426 41.8213 31.1475C41.812 31.4525 41.8074 31.732 41.8074 31.9861Z" fill="#303030"/>
<path d="M32 38.9943C32.1031 38.9981 32.2082 39 32.3153 39C33.1005 39 33.7766 38.8984 34.3434 38.6951C34.9149 38.4917 35.3981 38.2168 35.793 37.8703C36.188 37.5238 36.5062 37.1195 36.7478 36.6574C36.9941 36.1908 37.1823 35.6987 37.3123 35.1812C37.4471 34.6637 37.5377 34.1323 37.5842 33.5871C37.6306 33.0373 37.6538 32.5036 37.6538 31.9861C37.6538 31.4964 37.6306 30.9835 37.5842 30.4475C37.5377 29.9069 37.4471 29.3779 37.3123 28.8604C37.1823 28.3429 36.9941 27.8508 36.7478 27.3842C36.5062 26.9175 36.188 26.5086 35.793 26.1574C35.3981 25.8017 34.9149 25.5198 34.3434 25.3119C33.7766 25.104 33.1005 25 32.3153 25C32.2082 25 32.1031 25.002 32 25.0059V27.8412C32.0988 27.823 32.2039 27.8139 32.3153 27.8139C32.622 27.8139 32.8821 27.8809 33.0959 28.0149C33.3096 28.1488 33.4862 28.329 33.6255 28.5554C33.7649 28.7772 33.8718 29.0337 33.9461 29.3248C34.0251 29.6158 34.0832 29.9162 34.1204 30.2257C34.1575 30.5353 34.1785 30.8426 34.1831 31.1475C34.1924 31.4525 34.197 31.732 34.197 31.9861C34.197 32.2449 34.1924 32.529 34.1831 32.8386C34.1785 33.1482 34.1575 33.4601 34.1204 33.7743C34.0832 34.0884 34.0251 34.3934 33.9461 34.6891C33.8718 34.9802 33.7649 35.2389 33.6255 35.4653C33.4862 35.6917 33.3096 35.8743 33.0959 36.0129C32.8868 36.1469 32.6266 36.2139 32.3153 36.2139C32.2037 36.2139 32.0986 36.205 32 36.1873V38.9943Z" fill="#303030"/>
<path fill-rule="evenodd" clip-rule="evenodd" d="M6 13C3.79089 13 2 14.791 2 17V47C2 49.209 3.79089 51 6 51H58C60.2092 51 62 49.209 62 47V17C62 14.791 60.2092 13 58 13H6ZM8 17C6.89539 17 6 17.8955 6 19V45C6 46.1045 6.89539 47 8 47H56C57.1045 47 58 46.1045 58 45V19C58 17.8955 57.1045 17 56 17H8Z" fill="#CAA8CD"/>
<path d="M32 13V17H56C57.1045 17 58 17.8955 58 19V45C58 46.1045 57.1045 47 56 47H32V51H58C60.2092 51 62 49.209 62 47V17C62 14.791 60.2092 13 58 13H32Z" fill="#855C89"/>
</svg>
