<svg width="112" height="208" viewBox="0 0 112 208" fill="none" xmlns="http://www.w3.org/2000/svg">
<rect x="0.5" y="0.5" width="111" height="207" rx="4.5" stroke="#9747FF" stroke-dasharray="10 5"/>
<g filter="url(#filter0_d_37612_12023)">
<rect x="16" y="16" width="80" height="80" rx="8" fill="white"/>
</g>
<path d="M59.5938 30H38.5C36.17 30 34.2812 31.8888 34.2812 34.2188V73.7812C34.2812 76.1112 36.17 78 38.5 78H66.625C68.955 78 70.8438 76.1112 70.8438 73.7812V41.25L59.5938 30Z" fill="#E2EFFE"/>
<path d="M69.0585 26.2929C68.871 26.1054 68.6166 26 68.3514 26H44.1562C41.438 26 39.2344 28.2036 39.2344 30.9219V77.0781C39.2344 79.7964 41.438 82 44.1562 82H76.9688C79.687 82 81.8906 79.7964 81.8906 77.0781V39.5392C81.8906 39.274 81.7853 39.0196 81.5977 38.8321L69.0585 26.2929Z" fill="#F0F7FE"/>
<path d="M68.7656 26H60.5625V82H76.9688C79.687 82 81.8906 79.7964 81.8906 77.0781V39.125L68.7656 26Z" fill="#E2EFFE"/>
<path d="M68.7656 26V37.4844C68.7656 38.3904 69.5002 39.125 70.4062 39.125H81.8906L68.7656 26Z" fill="#B6D7FC"/>
<path d="M72.5938 59.0312H48.5312C47.6252 59.0312 46.8906 58.2967 46.8906 57.3906C46.8906 56.4846 47.6252 55.75 48.5312 55.75H72.5938C73.4998 55.75 74.2344 56.4846 74.2344 57.3906C74.2344 58.2967 73.4998 59.0312 72.5938 59.0312Z" fill="#323567"/>
<path d="M72.5938 49.1875H53.5312C52.6252 49.1875 51.8906 48.4529 51.8906 47.5469C51.8906 46.6408 52.6252 45.9062 53.5312 45.9062H72.5938C73.4998 45.9062 74.2344 46.6408 74.2344 47.5469C74.2344 48.4529 73.4998 49.1875 72.5938 49.1875Z" fill="#157DF5"/>
<path d="M72.5938 68.875H55.5312C54.6252 68.875 53.8906 68.1404 53.8906 67.2344C53.8906 66.3283 54.6252 65.5938 55.5312 65.5938H72.5938C73.4998 65.5938 74.2344 66.3283 74.2344 67.2344C74.2344 68.1404 73.4998 68.875 72.5938 68.875Z" fill="#323567"/>
<path d="M74.2344 57.3906C74.2344 56.4846 73.4998 55.75 72.5938 55.75H60.5625V59.0312H72.5938C73.4998 59.0312 74.2344 58.2967 74.2344 57.3906Z" fill="#282A52"/>
<path d="M74.2344 47.5469C74.2344 46.6408 73.4998 45.9062 72.5938 45.9062H60.5625V49.1875H72.5938C73.4998 49.1875 74.2344 48.4529 74.2344 47.5469Z" fill="#0965CD"/>
<path d="M72.5938 68.875C73.4998 68.875 74.2344 68.1404 74.2344 67.2344C74.2344 66.3283 73.4998 65.5938 72.5938 65.5938H60.5625V68.875H72.5938Z" fill="#282A52"/>
<path d="M40.7656 55.5312C32.6239 55.5312 26 48.9074 26 40.7656C26 32.6239 32.6239 26 40.7656 26C48.9074 26 55.5312 32.6239 55.5312 40.7656C55.5312 48.9074 48.9074 55.5312 40.7656 55.5312Z" fill="#FFF1AE"/>
<path d="M40.7656 26V55.5312C48.9074 55.5312 55.5312 48.9074 55.5312 40.7656C55.5312 32.6239 48.9074 26 40.7656 26Z" fill="#FEE87B"/>
<path d="M40.7656 29.2812C34.4331 29.2812 29.2812 34.4331 29.2812 40.7656C29.2812 47.0981 34.4331 52.25 40.7656 52.25C47.0981 52.25 52.25 47.0981 52.25 40.7656C52.25 34.4331 47.0981 29.2812 40.7656 29.2812Z" fill="#FEE048"/>
<path d="M40.7656 29.2812V52.25C47.0981 52.25 52.25 47.0981 52.25 40.7656C52.25 34.4331 47.0981 29.2812 40.7656 29.2812Z" fill="#FED601"/>
<path fill-rule="evenodd" clip-rule="evenodd" d="M38.7603 32.5312V32.0312C38.7603 31.2032 39.4323 30.5312 40.2603 30.5312C41.0883 30.5312 41.7603 31.2032 41.7603 32.0312V32.5903C44.0252 32.9506 45.7606 34.9165 45.7606 37.2813C45.7606 38.2963 45.4409 39.2378 44.8969 40.0105C46.0295 40.8792 46.7607 42.246 46.7607 43.781C46.7607 46.4012 44.6305 48.531 42.0106 48.531H41.7603V49.0311C41.7603 49.8591 41.0883 50.5311 40.2603 50.5311C39.4323 50.5311 38.7603 49.8591 38.7603 49.0311V48.531H36.2607C35.4327 48.531 34.7607 47.8591 34.7607 47.0311V34.0312C34.7607 33.2032 35.4327 32.5312 36.2607 32.5312H38.7603ZM37.7607 42.0314H41.0105L41.0528 42.0312H42.0106C42.9745 42.0312 43.7607 42.8171 43.7607 43.781C43.7607 44.7452 42.9745 45.5311 42.0106 45.5311H37.7607V42.0314ZM41.0361 39.0312C41.9886 39.0175 42.7606 38.2366 42.7606 37.2813C42.7606 36.3175 41.9747 35.5312 41.0105 35.5312H37.7607V39.0312H41.0361Z" fill="#FDAA49"/>
<path d="M40.7607 50.4458C41.3429 50.2396 41.7603 49.6839 41.7603 49.0314V48.5314H42.0106C44.6305 48.5314 46.7607 46.4015 46.7607 43.7813C46.7607 42.2463 46.0295 40.8795 44.8969 40.0108C45.4409 39.2382 45.7606 38.2966 45.7606 37.2816C45.7606 34.9168 44.0252 32.9509 41.7603 32.5906V32.0315C41.7603 31.379 41.3429 30.8234 40.7607 30.6172V35.5315H41.0105C41.9747 35.5315 42.7606 36.3178 42.7606 37.2816C42.7606 38.2369 41.9886 39.0178 41.0361 39.0316H40.7607V42.0317H41.0105L41.0528 42.0315H42.0106C42.9745 42.0315 43.7607 42.8174 43.7607 43.7813C43.7607 44.7455 42.9745 45.5314 42.0106 45.5314H40.7607V50.4458Z" fill="#FD9317"/>
<path fill-rule="evenodd" clip-rule="evenodd" d="M57.1418 76.7403C56.388 74.9204 56 72.9698 56 71C56 69.0302 56.388 67.0796 57.1418 65.2597C57.8956 63.4399 59.0005 61.7863 60.3934 60.3934C61.7863 59.0005 63.4399 57.8956 65.2597 57.1418C67.0796 56.388 69.0302 56 71 56C72.9698 56 74.9204 56.388 76.7403 57.1418C78.5601 57.8956 80.2137 59.0005 81.6066 60.3934C82.9995 61.7863 84.1044 63.4399 84.8582 65.2597C85.612 67.0796 86 69.0302 86 71C86 72.9698 85.612 74.9204 84.8582 76.7403C84.1044 78.5601 82.9995 80.2137 81.6066 81.6066C80.2137 82.9995 78.5601 84.1044 76.7403 84.8582C74.9204 85.612 72.9698 86 71 86C69.0302 86 67.0796 85.612 65.2597 84.8582C63.4399 84.1044 61.7863 82.9995 60.3934 81.6066C59.0005 80.2137 57.8956 78.5601 57.1418 76.7403ZM59.9134 75.5922C59.3104 74.1363 59 72.5759 59 71C59 69.4241 59.3104 67.8637 59.9134 66.4078C60.5165 64.9519 61.4004 63.629 62.5147 62.5147C63.629 61.4004 64.9519 60.5165 66.4078 59.9134C67.8637 59.3104 69.4241 59 71 59C72.5759 59 74.1363 59.3104 75.5922 59.9134C77.0481 60.5165 78.371 61.4004 79.4853 62.5147C80.5996 63.629 81.4835 64.9519 82.0866 66.4078C82.6896 67.8637 83 69.4241 83 71C83 72.5759 82.6896 74.1363 82.0866 75.5922C81.4835 77.0481 80.5996 78.371 79.4853 79.4853C78.371 80.5996 77.0481 81.4835 75.5922 82.0866C74.1363 82.6896 72.5759 83 71 83C69.4241 83 67.8637 82.6896 66.4078 82.0866C64.9519 81.4835 63.629 80.5996 62.5147 79.4853C61.4004 78.371 60.5165 77.0481 59.9134 75.5922Z" fill="white"/>
<path d="M59 71C59 72.5759 59.3104 74.1363 59.9134 75.5922C60.5165 77.0481 61.4004 78.371 62.5147 79.4853C63.629 80.5996 64.9519 81.4835 66.4078 82.0866C67.8637 82.6896 69.4241 83 71 83C72.5759 83 74.1363 82.6896 75.5922 82.0866C77.0481 81.4835 78.371 80.5996 79.4853 79.4853C80.5996 78.371 81.4835 77.0481 82.0866 75.5922C82.6896 74.1363 83 72.5759 83 71C83 69.4241 82.6896 67.8637 82.0866 66.4078C81.4835 64.9519 80.5996 63.629 79.4853 62.5147C78.371 61.4004 77.0481 60.5165 75.5922 59.9134C74.1363 59.3104 72.5759 59 71 59C69.4241 59 67.8637 59.3104 66.4078 59.9134C64.9519 60.5165 63.629 61.4004 62.5147 62.5147C61.4004 63.629 60.5165 64.9519 59.9134 66.4078C59.3104 67.8637 59 69.4241 59 71Z" fill="#F54B5E"/>
<path d="M71 59V83C72.5759 83 74.1363 82.6896 75.5922 82.0866C77.0481 81.4835 78.371 80.5996 79.4853 79.4853C80.5996 78.371 81.4835 77.0481 82.0866 75.5922C82.6896 74.1363 83 72.5759 83 71C83 69.4241 82.6896 67.8637 82.0866 66.4078C81.4835 64.9519 80.5996 63.629 79.4853 62.5147C78.371 61.4004 77.0481 60.5165 75.5922 59.9134C74.1363 59.3104 72.5759 59 71 59Z" fill="#F3263D"/>
<path fill-rule="evenodd" clip-rule="evenodd" d="M66 71C66 70.1716 66.6716 69.5 67.5 69.5H71C71.8284 69.5 72.5 70.1716 72.5 71C72.5 71.8284 71.8284 72.5 71 72.5H67.5C66.6716 72.5 66 71.8284 66 71Z" fill="white"/>
<path fill-rule="evenodd" clip-rule="evenodd" d="M71 64.5C71.8284 64.5 72.5 65.1716 72.5 66V71C72.5 71.8284 71.8284 72.5 71 72.5C70.1716 72.5 69.5 71.8284 69.5 71V66C69.5 65.1716 70.1716 64.5 71 64.5Z" fill="white"/>
<path fill-rule="evenodd" clip-rule="evenodd" d="M71 72.5C71.8284 72.5 72.5 71.8284 72.5 71V66C72.5 65.1716 71.8284 64.5 71 64.5V72.5Z" fill="#F0F7FE"/>
<path d="M59.5938 126H38.5C36.17 126 34.2812 127.889 34.2812 130.219V169.781C34.2812 172.111 36.17 174 38.5 174H66.625C68.955 174 70.8438 172.111 70.8438 169.781V137.25L59.5938 126Z" fill="#E2EFFE"/>
<path d="M69.0585 122.293C68.871 122.105 68.6166 122 68.3514 122H44.1562C41.438 122 39.2344 124.204 39.2344 126.922V173.078C39.2344 175.796 41.438 178 44.1562 178H76.9688C79.687 178 81.8906 175.796 81.8906 173.078V135.539C81.8906 135.274 81.7853 135.02 81.5977 134.832L69.0585 122.293Z" fill="#F0F7FE"/>
<path d="M68.7656 122H60.5625V178H76.9688C79.687 178 81.8906 175.796 81.8906 173.078V135.125L68.7656 122Z" fill="#E2EFFE"/>
<path d="M68.7656 122V133.484C68.7656 134.39 69.5002 135.125 70.4062 135.125H81.8906L68.7656 122Z" fill="#B6D7FC"/>
<path d="M72.5938 155.031H48.5312C47.6252 155.031 46.8906 154.297 46.8906 153.391C46.8906 152.485 47.6252 151.75 48.5312 151.75H72.5938C73.4998 151.75 74.2344 152.485 74.2344 153.391C74.2344 154.297 73.4998 155.031 72.5938 155.031Z" fill="#323567"/>
<path d="M72.5938 145.188H53.5312C52.6252 145.188 51.8906 144.453 51.8906 143.547C51.8906 142.641 52.6252 141.906 53.5312 141.906H72.5938C73.4998 141.906 74.2344 142.641 74.2344 143.547C74.2344 144.453 73.4998 145.188 72.5938 145.188Z" fill="#157DF5"/>
<path d="M72.5938 164.875H55.5312C54.6252 164.875 53.8906 164.14 53.8906 163.234C53.8906 162.328 54.6252 161.594 55.5312 161.594H72.5938C73.4998 161.594 74.2344 162.328 74.2344 163.234C74.2344 164.14 73.4998 164.875 72.5938 164.875Z" fill="#323567"/>
<path d="M74.2344 153.391C74.2344 152.485 73.4998 151.75 72.5938 151.75H60.5625V155.031H72.5938C73.4998 155.031 74.2344 154.297 74.2344 153.391Z" fill="#282A52"/>
<path d="M74.2344 143.547C74.2344 142.641 73.4998 141.906 72.5938 141.906H60.5625V145.188H72.5938C73.4998 145.188 74.2344 144.453 74.2344 143.547Z" fill="#0965CD"/>
<path d="M72.5938 164.875C73.4998 164.875 74.2344 164.14 74.2344 163.234C74.2344 162.328 73.4998 161.594 72.5938 161.594H60.5625V164.875H72.5938Z" fill="#282A52"/>
<path d="M40.7656 151.531C32.6239 151.531 26 144.907 26 136.766C26 128.624 32.6239 122 40.7656 122C48.9074 122 55.5312 128.624 55.5312 136.766C55.5312 144.907 48.9074 151.531 40.7656 151.531Z" fill="#FFF1AE"/>
<path d="M40.7656 122V151.531C48.9074 151.531 55.5312 144.907 55.5312 136.766C55.5312 128.624 48.9074 122 40.7656 122Z" fill="#FEE87B"/>
<path d="M40.7656 125.281C34.4331 125.281 29.2812 130.433 29.2812 136.766C29.2812 143.098 34.4331 148.25 40.7656 148.25C47.0981 148.25 52.25 143.098 52.25 136.766C52.25 130.433 47.0981 125.281 40.7656 125.281Z" fill="#FEE048"/>
<path d="M40.7656 125.281V148.25C47.0981 148.25 52.25 143.098 52.25 136.766C52.25 130.433 47.0981 125.281 40.7656 125.281Z" fill="#FED601"/>
<path fill-rule="evenodd" clip-rule="evenodd" d="M38.7603 128.531V128.031C38.7603 127.203 39.4323 126.531 40.2603 126.531C41.0883 126.531 41.7603 127.203 41.7603 128.031V128.59C44.0252 128.951 45.7606 130.917 45.7606 133.281C45.7606 134.296 45.4409 135.238 44.8969 136.01C46.0295 136.879 46.7607 138.246 46.7607 139.781C46.7607 142.401 44.6305 144.531 42.0106 144.531H41.7603V145.031C41.7603 145.859 41.0883 146.531 40.2603 146.531C39.4323 146.531 38.7603 145.859 38.7603 145.031V144.531H36.2607C35.4327 144.531 34.7607 143.859 34.7607 143.031V130.031C34.7607 129.203 35.4327 128.531 36.2607 128.531H38.7603ZM37.7607 138.031H41.0105L41.0528 138.031H42.0106C42.9745 138.031 43.7607 138.817 43.7607 139.781C43.7607 140.745 42.9745 141.531 42.0106 141.531H37.7607V138.031ZM41.0361 135.031C41.9886 135.017 42.7606 134.237 42.7606 133.281C42.7606 132.317 41.9747 131.531 41.0105 131.531H37.7607V135.031H41.0361Z" fill="#FDAA49"/>
<path d="M40.7607 146.446C41.3429 146.24 41.7603 145.684 41.7603 145.031V144.531H42.0106C44.6305 144.531 46.7607 142.401 46.7607 139.781C46.7607 138.246 46.0295 136.88 44.8969 136.011C45.4409 135.238 45.7606 134.297 45.7606 133.282C45.7606 130.917 44.0252 128.951 41.7603 128.591V128.032C41.7603 127.379 41.3429 126.823 40.7607 126.617V131.532H41.0105C41.9747 131.532 42.7606 132.318 42.7606 133.282C42.7606 134.237 41.9886 135.018 41.0361 135.032H40.7607V138.032H41.0105L41.0528 138.032H42.0106C42.9745 138.032 43.7607 138.817 43.7607 139.781C43.7607 140.745 42.9745 141.531 42.0106 141.531H40.7607V146.446Z" fill="#FD9317"/>
<path fill-rule="evenodd" clip-rule="evenodd" d="M57.1418 172.74C56.388 170.92 56 168.97 56 167C56 165.03 56.388 163.08 57.1418 161.26C57.8956 159.44 59.0005 157.786 60.3934 156.393C61.7863 155.001 63.4399 153.896 65.2597 153.142C67.0796 152.388 69.0302 152 71 152C72.9698 152 74.9204 152.388 76.7403 153.142C78.5601 153.896 80.2137 155.001 81.6066 156.393C82.9995 157.786 84.1044 159.44 84.8582 161.26C85.612 163.08 86 165.03 86 167C86 168.97 85.612 170.92 84.8582 172.74C84.1044 174.56 82.9995 176.214 81.6066 177.607C80.2137 178.999 78.5601 180.104 76.7403 180.858C74.9204 181.612 72.9698 182 71 182C69.0302 182 67.0796 181.612 65.2597 180.858C63.4399 180.104 61.7863 178.999 60.3934 177.607C59.0005 176.214 57.8956 174.56 57.1418 172.74ZM59.9134 171.592C59.3104 170.136 59 168.576 59 167C59 165.424 59.3104 163.864 59.9134 162.408C60.5165 160.952 61.4004 159.629 62.5147 158.515C63.629 157.4 64.9519 156.517 66.4078 155.913C67.8637 155.31 69.4241 155 71 155C72.5759 155 74.1363 155.31 75.5922 155.913C77.0481 156.517 78.371 157.4 79.4853 158.515C80.5996 159.629 81.4835 160.952 82.0866 162.408C82.6896 163.864 83 165.424 83 167C83 168.576 82.6896 170.136 82.0866 171.592C81.4835 173.048 80.5996 174.371 79.4853 175.485C78.371 176.6 77.0481 177.483 75.5922 178.087C74.1363 178.69 72.5759 179 71 179C69.4241 179 67.8637 178.69 66.4078 178.087C64.9519 177.483 63.629 176.6 62.5147 175.485C61.4004 174.371 60.5165 173.048 59.9134 171.592Z" fill="white"/>
<path d="M59 167C59 168.576 59.3104 170.136 59.9134 171.592C60.5165 173.048 61.4004 174.371 62.5147 175.485C63.629 176.6 64.9519 177.483 66.4078 178.087C67.8637 178.69 69.4241 179 71 179C72.5759 179 74.1363 178.69 75.5922 178.087C77.0481 177.483 78.371 176.6 79.4853 175.485C80.5996 174.371 81.4835 173.048 82.0866 171.592C82.6896 170.136 83 168.576 83 167C83 165.424 82.6896 163.864 82.0866 162.408C81.4835 160.952 80.5996 159.629 79.4853 158.515C78.371 157.4 77.0481 156.517 75.5922 155.913C74.1363 155.31 72.5759 155 71 155C69.4241 155 67.8637 155.31 66.4078 155.913C64.9519 156.517 63.629 157.4 62.5147 158.515C61.4004 159.629 60.5165 160.952 59.9134 162.408C59.3104 163.864 59 165.424 59 167Z" fill="#F54B5E"/>
<path d="M71 155V179C72.5759 179 74.1363 178.69 75.5922 178.087C77.0481 177.483 78.371 176.6 79.4853 175.485C80.5996 174.371 81.4835 173.048 82.0866 171.592C82.6896 170.136 83 168.576 83 167C83 165.424 82.6896 163.864 82.0866 162.408C81.4835 160.952 80.5996 159.629 79.4853 158.515C78.371 157.4 77.0481 156.517 75.5922 155.913C74.1363 155.31 72.5759 155 71 155Z" fill="#F3263D"/>
<path fill-rule="evenodd" clip-rule="evenodd" d="M66 167C66 166.172 66.6716 165.5 67.5 165.5H71C71.8284 165.5 72.5 166.172 72.5 167C72.5 167.828 71.8284 168.5 71 168.5H67.5C66.6716 168.5 66 167.828 66 167Z" fill="white"/>
<path fill-rule="evenodd" clip-rule="evenodd" d="M71 160.5C71.8284 160.5 72.5 161.172 72.5 162V167C72.5 167.828 71.8284 168.5 71 168.5C70.1716 168.5 69.5 167.828 69.5 167V162C69.5 161.172 70.1716 160.5 71 160.5Z" fill="white"/>
<path fill-rule="evenodd" clip-rule="evenodd" d="M71 168.5C71.8284 168.5 72.5 167.828 72.5 167V162C72.5 161.172 71.8284 160.5 71 160.5V168.5Z" fill="#F0F7FE"/>
<defs>
<filter id="filter0_d_37612_12023" x="10" y="9" width="96" height="96" filterUnits="userSpaceOnUse" color-interpolation-filters="sRGB">
<feFlood flood-opacity="0" result="BackgroundImageFix"/>
<feColorMatrix in="SourceAlpha" type="matrix" values="0 0 0 0 0 0 0 0 0 0 0 0 0 0 0 0 0 0 127 0" result="hardAlpha"/>
<feOffset dx="2" dy="1"/>
<feGaussianBlur stdDeviation="4"/>
<feColorMatrix type="matrix" values="0 0 0 0 0.0392157 0 0 0 0 0.0392157 0 0 0 0 0.0627451 0 0 0 0.08 0"/>
<feBlend mode="normal" in2="BackgroundImageFix" result="effect1_dropShadow_37612_12023"/>
<feBlend mode="normal" in="SourceGraphic" in2="effect1_dropShadow_37612_12023" result="shape"/>
</filter>
</defs>
</svg>
