<svg width="112" height="208" viewBox="0 0 112 208" fill="none" xmlns="http://www.w3.org/2000/svg">
<rect x="0.5" y="0.5" width="111" height="207" rx="4.5" stroke="#9747FF" stroke-dasharray="10 5"/>
<g filter="url(#filter0_dd_11513_74305)">
<rect x="16" y="16" width="80" height="80" rx="8" fill="white"/>
</g>
<path d="M49.877 73.356H51.9989L53.0599 70.0284L51.9989 65.9531H49.877V73.356Z" fill="#E2EFFE"/>
<path d="M52 65.9531H54.1219V73.3561H52V65.9531Z" fill="#B6D7FC"/>
<path d="M49.877 38.0513H51.9989L52.7871 34.3499L51.9989 30.6484H49.877V38.0513Z" fill="#E2EFFE"/>
<path d="M52 30.6484H54.1219V38.0514H52V30.6484Z" fill="#B6D7FC"/>
<path d="M30.6445 49.8789H38.0475V54.1228H30.6445V49.8789Z" fill="#E2EFFE"/>
<path d="M32.1847 49.3306V54.6703C32.1847 55.8259 31.2479 56.7626 30.0923 56.7626C28.9367 56.7626 28 55.8259 28 54.6703V49.3306C28 48.175 28.9367 47.2383 30.0923 47.2383C31.2478 47.2383 32.1847 48.1751 32.1847 49.3306Z" fill="#F0F7FE"/>
<path d="M65.9492 49.8789H73.3522V54.1228H65.9492V49.8789Z" fill="#B6D7FC"/>
<path d="M71.8145 54.6703V49.3306C71.8145 48.175 72.7512 47.2383 73.9068 47.2383C75.0624 47.2383 75.9991 48.175 75.9991 49.3306V54.6703C75.9991 55.8259 75.0624 56.7626 73.9068 56.7626C72.7513 56.7626 71.8145 55.8258 71.8145 54.6703Z" fill="#E2EFFE"/>
<path d="M35.3945 65.5977L40.6284 60.3637L43.6289 63.3642L38.395 68.5981L35.3945 65.5977Z" fill="#E2EFFE"/>
<path d="M36.1011 64.1284L39.8768 67.9042C40.6939 68.7212 40.6939 70.046 39.8768 70.8632C39.0598 71.6802 37.735 71.6802 36.9178 70.8632L33.1421 67.0874C32.325 66.2704 32.325 64.9456 33.1421 64.1284C33.9592 63.3114 35.2839 63.3114 36.1011 64.1284Z" fill="#157DF5"/>
<path d="M60.3574 40.6406L65.5913 35.4067L68.5918 38.4071L63.3578 43.641L60.3574 40.6406Z" fill="#B6D7FC"/>
<path d="M67.9003 39.8788L64.1245 36.1031C63.3075 35.286 63.3075 33.9612 64.1245 33.1441C64.9416 32.327 66.2665 32.327 67.0835 33.1441L70.8593 36.9198C71.6763 37.7369 71.6763 39.0616 70.8593 39.8788C70.0422 40.6959 68.7174 40.6959 67.9003 39.8788Z" fill="#0965CD"/>
<path d="M35.3984 38.4023L38.3989 35.4019L43.6328 40.6358L40.6323 43.6363L35.3984 38.4023Z" fill="#E2EFFE"/>
<path d="M39.8768 36.1031L36.1011 39.8788C35.284 40.6959 33.9593 40.6959 33.1421 39.8788C32.325 39.0617 32.325 37.737 33.1421 36.9198L36.9178 33.1441C37.7349 32.327 39.0597 32.327 39.8768 33.1441C40.6939 33.9611 40.6939 35.2859 39.8768 36.1031Z" fill="#157DF5"/>
<path d="M60.3574 63.3672L63.3578 60.3668L68.5918 65.6007L65.5913 68.6011L60.3574 63.3672Z" fill="#B6D7FC"/>
<path d="M64.1245 67.9042L67.9003 64.1284C68.7173 63.3114 70.0421 63.3114 70.8593 64.1284C71.6763 64.9455 71.6763 66.2704 70.8593 67.0874L67.0835 70.8632C66.2665 71.6802 64.9417 71.6802 64.1245 70.8632C63.3075 70.0461 63.3075 68.7213 64.1245 67.9042Z" fill="#0965CD"/>
<path d="M47.2383 73.9048C47.2383 75.0603 48.175 75.9972 49.3306 75.9972H52.0005L53.4901 74.1877L52.0005 71.8125H49.3306C48.175 71.8125 47.2383 72.7493 47.2383 73.9048Z" fill="#F0F7FE"/>
<path d="M54.6718 75.9972C55.8274 75.9972 56.7641 75.0604 56.7641 73.9048C56.7641 72.7492 55.8274 71.8125 54.6718 71.8125H52.002V75.9972H54.6718Z" fill="#E2EFFE"/>
<path d="M47.2383 30.0923C47.2383 31.2479 48.175 32.1847 49.3306 32.1847H52.0005L54.1224 30.6459L52.0005 28H49.3306C48.175 28 47.2383 28.9367 47.2383 30.0923Z" fill="#F0F7FE"/>
<path d="M54.6718 32.1847C55.8274 32.1847 56.7641 31.2479 56.7641 30.0923C56.7641 28.9368 55.8274 28 54.6718 28H52.002V32.1847H54.6718Z" fill="#E2EFFE"/>
<path d="M35.8867 52.0008C35.8867 60.9004 43.1012 68.1149 52.0008 68.1149L53.8406 53.7489L52.0008 35.8867C43.1012 35.8867 35.8867 43.1012 35.8867 52.0008Z" fill="#F0F7FE"/>
<path d="M68.116 51.9969C68.116 43.0973 60.9015 35.8828 52.002 35.8828V68.1109C60.9015 68.111 68.116 60.8965 68.116 51.9969Z" fill="#E2EFFE"/>
<path d="M49.0659 45.741C50.2262 45.1412 50.6806 43.7144 50.0809 42.554C49.4811 41.3937 48.0543 40.9393 46.8939 41.539C45.7336 42.1388 45.2792 43.5656 45.8789 44.726C46.4787 45.8863 47.9055 46.3407 49.0659 45.741Z" fill="#0965CD"/>
<path d="M50.2461 61.0172C50.2461 62.1114 50.9899 63.0294 51.9987 63.3L53.0596 61.0172L51.9987 58.7344C50.9899 59.005 50.2461 59.9231 50.2461 61.0172Z" fill="#0965CD"/>
<path d="M52.6134 63.3803C53.92 63.3803 54.9795 62.321 54.9795 61.0144C54.9795 59.7077 53.9202 58.6484 52.6134 58.6484C52.4009 58.6484 52.1959 58.6791 52 58.7317V63.2973C52.196 63.3496 52.4009 63.3803 52.6134 63.3803Z" fill="#0965CD"/>
<path d="M58.5841 55.8714C61.5279 55.8714 63.9143 53.4849 63.9143 50.5411C63.9143 47.5974 61.5279 45.2109 58.5841 45.2109C55.6403 45.2109 53.2539 47.5974 53.2539 50.5411C53.2539 53.4849 55.6403 55.8714 58.5841 55.8714Z" fill="#0965CD"/>
<path d="M44.5769 58.646C46.4639 58.646 47.9937 57.1163 47.9937 55.2293C47.9937 53.3422 46.4639 51.8125 44.5769 51.8125C42.6899 51.8125 41.1602 53.3422 41.1602 55.2293C41.1602 57.1163 42.6899 58.646 44.5769 58.646Z" fill="#0965CD"/>
<path fill-rule="evenodd" clip-rule="evenodd" d="M55.1418 74.7403C54.388 72.9204 54 70.9698 54 69C54 67.0302 54.388 65.0796 55.1418 63.2597C55.8956 61.4399 57.0005 59.7863 58.3934 58.3934C59.7863 57.0005 61.4399 55.8956 63.2597 55.1418C65.0796 54.388 67.0302 54 69 54C70.9698 54 72.9204 54.388 74.7403 55.1418C76.5601 55.8956 78.2137 57.0005 79.6066 58.3934C80.9995 59.7863 82.1044 61.4399 82.8582 63.2597C83.612 65.0796 84 67.0302 84 69C84 70.9698 83.612 72.9204 82.8582 74.7403C82.1044 76.5601 80.9995 78.2137 79.6066 79.6066C78.2137 80.9995 76.5601 82.1044 74.7403 82.8582C72.9204 83.612 70.9698 84 69 84C67.0302 84 65.0796 83.612 63.2597 82.8582C61.4399 82.1044 59.7863 80.9995 58.3934 79.6066C57.0005 78.2137 55.8956 76.5601 55.1418 74.7403ZM57.9134 73.5922C57.3104 72.1363 57 70.5759 57 69C57 67.4241 57.3104 65.8637 57.9134 64.4078C58.5165 62.9519 59.4004 61.629 60.5147 60.5147C61.629 59.4004 62.9519 58.5165 64.4078 57.9134C65.8637 57.3104 67.4241 57 69 57C70.5759 57 72.1363 57.3104 73.5922 57.9134C75.0481 58.5165 76.371 59.4004 77.4853 60.5147C78.5996 61.629 79.4835 62.9519 80.0866 64.4078C80.6896 65.8637 81 67.4241 81 69C81 70.5759 80.6896 72.1363 80.0866 73.5922C79.4835 75.0481 78.5996 76.371 77.4853 77.4853C76.371 78.5996 75.0481 79.4835 73.5922 80.0866C72.1363 80.6896 70.5759 81 69 81C67.4241 81 65.8637 80.6896 64.4078 80.0866C62.9519 79.4835 61.629 78.5996 60.5147 77.4853C59.4004 76.371 58.5165 75.0481 57.9134 73.5922Z" fill="white"/>
<path d="M57 69C57 70.5759 57.3104 72.1363 57.9134 73.5922C58.5165 75.0481 59.4004 76.371 60.5147 77.4853C61.629 78.5996 62.9519 79.4835 64.4078 80.0866C65.8637 80.6896 67.4241 81 69 81C70.5759 81 72.1363 80.6896 73.5922 80.0866C75.0481 79.4835 76.371 78.5996 77.4853 77.4853C78.5996 76.371 79.4835 75.0481 80.0866 73.5922C80.6896 72.1363 81 70.5759 81 69C81 67.4241 80.6896 65.8637 80.0866 64.4078C79.4835 62.9519 78.5996 61.629 77.4853 60.5147C76.371 59.4004 75.0481 58.5165 73.5922 57.9134C72.1363 57.3104 70.5759 57 69 57C67.4241 57 65.8637 57.3104 64.4078 57.9134C62.9519 58.5165 61.629 59.4004 60.5147 60.5147C59.4004 61.629 58.5165 62.9519 57.9134 64.4078C57.3104 65.8637 57 67.4241 57 69Z" fill="#40D98D"/>
<path fill-rule="evenodd" clip-rule="evenodd" d="M69 57V81C70.5759 81 72.1363 80.6896 73.5922 80.0866C75.0481 79.4835 76.371 78.5996 77.4853 77.4853C78.5996 76.371 79.4835 75.0481 80.0866 73.5922C80.6896 72.1363 81 70.5759 81 69C81 67.4241 80.6896 65.8637 80.0866 64.4078C79.4835 62.9519 78.5996 61.629 77.4853 60.5147C76.371 59.4004 75.0481 58.5165 73.5922 57.9134C72.1363 57.3104 70.5759 57 69 57Z" fill="#25BB71"/>
<path fill-rule="evenodd" clip-rule="evenodd" d="M64 69C64 68.1716 64.6716 67.5 65.5 67.5H69C69.8284 67.5 70.5 68.1716 70.5 69C70.5 69.8284 69.8284 70.5 69 70.5H65.5C64.6716 70.5 64 69.8284 64 69Z" fill="white"/>
<path fill-rule="evenodd" clip-rule="evenodd" d="M69 62.5C69.8284 62.5 70.5 63.1716 70.5 64V69C70.5 69.8284 69.8284 70.5 69 70.5C68.1716 70.5 67.5 69.8284 67.5 69V64C67.5 63.1716 68.1716 62.5 69 62.5Z" fill="white"/>
<path fill-rule="evenodd" clip-rule="evenodd" d="M69 70.5C69.8284 70.5 70.5 69.8284 70.5 69V64C70.5 63.1716 69.8284 62.5 69 62.5V70.5Z" fill="#F0F7FE"/>
<path d="M49.877 169.356H51.9989L53.0599 166.028L51.9989 161.953H49.877V169.356Z" fill="#E2EFFE"/>
<path d="M52 161.953H54.1219V169.356H52V161.953Z" fill="#B6D7FC"/>
<path d="M49.877 134.051H51.9989L52.7871 130.35L51.9989 126.648H49.877V134.051Z" fill="#E2EFFE"/>
<path d="M52 126.648H54.1219V134.051H52V126.648Z" fill="#B6D7FC"/>
<path d="M30.6445 145.879H38.0475V150.123H30.6445V145.879Z" fill="#E2EFFE"/>
<path d="M32.1847 145.331V150.67C32.1847 151.826 31.2479 152.763 30.0923 152.763C28.9367 152.763 28 151.826 28 150.67V145.331C28 144.175 28.9367 143.238 30.0923 143.238C31.2478 143.238 32.1847 144.175 32.1847 145.331Z" fill="#F0F7FE"/>
<path d="M65.9492 145.879H73.3522V150.123H65.9492V145.879Z" fill="#B6D7FC"/>
<path d="M71.8145 150.67V145.331C71.8145 144.175 72.7512 143.238 73.9068 143.238C75.0624 143.238 75.9991 144.175 75.9991 145.331V150.67C75.9991 151.826 75.0624 152.763 73.9068 152.763C72.7513 152.763 71.8145 151.826 71.8145 150.67Z" fill="#E2EFFE"/>
<path d="M35.3945 161.598L40.6284 156.364L43.6289 159.364L38.395 164.598L35.3945 161.598Z" fill="#E2EFFE"/>
<path d="M36.1011 160.128L39.8768 163.904C40.6939 164.721 40.6939 166.046 39.8768 166.863C39.0598 167.68 37.735 167.68 36.9178 166.863L33.1421 163.087C32.325 162.27 32.325 160.946 33.1421 160.128C33.9592 159.311 35.2839 159.311 36.1011 160.128Z" fill="#157DF5"/>
<path d="M60.3574 136.641L65.5913 131.407L68.5918 134.407L63.3578 139.641L60.3574 136.641Z" fill="#B6D7FC"/>
<path d="M67.9003 135.879L64.1245 132.103C63.3075 131.286 63.3075 129.961 64.1245 129.144C64.9416 128.327 66.2665 128.327 67.0835 129.144L70.8593 132.92C71.6763 133.737 71.6763 135.062 70.8593 135.879C70.0422 136.696 68.7174 136.696 67.9003 135.879Z" fill="#0965CD"/>
<path d="M35.3984 134.402L38.3989 131.402L43.6328 136.636L40.6323 139.636L35.3984 134.402Z" fill="#E2EFFE"/>
<path d="M39.8768 132.103L36.1011 135.879C35.284 136.696 33.9593 136.696 33.1421 135.879C32.325 135.062 32.325 133.737 33.1421 132.92L36.9178 129.144C37.7349 128.327 39.0597 128.327 39.8768 129.144C40.6939 129.961 40.6939 131.286 39.8768 132.103Z" fill="#157DF5"/>
<path d="M60.3574 159.367L63.3578 156.367L68.5918 161.601L65.5913 164.601L60.3574 159.367Z" fill="#B6D7FC"/>
<path d="M64.1245 163.904L67.9003 160.128C68.7173 159.311 70.0421 159.311 70.8593 160.128C71.6763 160.945 71.6763 162.27 70.8593 163.087L67.0835 166.863C66.2665 167.68 64.9417 167.68 64.1245 166.863C63.3075 166.046 63.3075 164.721 64.1245 163.904Z" fill="#0965CD"/>
<path d="M47.2383 169.905C47.2383 171.06 48.175 171.997 49.3306 171.997H52.0005L53.4901 170.188L52.0005 167.812H49.3306C48.175 167.812 47.2383 168.749 47.2383 169.905Z" fill="#F0F7FE"/>
<path d="M54.6718 171.997C55.8274 171.997 56.7641 171.06 56.7641 169.905C56.7641 168.749 55.8274 167.812 54.6718 167.812H52.002V171.997H54.6718Z" fill="#E2EFFE"/>
<path d="M47.2383 126.092C47.2383 127.248 48.175 128.185 49.3306 128.185H52.0005L54.1224 126.646L52.0005 124H49.3306C48.175 124 47.2383 124.937 47.2383 126.092Z" fill="#F0F7FE"/>
<path d="M54.6718 128.185C55.8274 128.185 56.7641 127.248 56.7641 126.092C56.7641 124.937 55.8274 124 54.6718 124H52.002V128.185H54.6718Z" fill="#E2EFFE"/>
<path d="M35.8867 148.001C35.8867 156.9 43.1012 164.115 52.0008 164.115L53.8406 149.749L52.0008 131.887C43.1012 131.887 35.8867 139.101 35.8867 148.001Z" fill="#F0F7FE"/>
<path d="M68.116 147.997C68.116 139.097 60.9015 131.883 52.002 131.883V164.111C60.9015 164.111 68.116 156.896 68.116 147.997Z" fill="#E2EFFE"/>
<path d="M49.0659 141.741C50.2262 141.141 50.6806 139.714 50.0809 138.554C49.4811 137.394 48.0543 136.939 46.8939 137.539C45.7336 138.139 45.2792 139.566 45.8789 140.726C46.4787 141.886 47.9055 142.341 49.0659 141.741Z" fill="#0965CD"/>
<path d="M50.2461 157.017C50.2461 158.111 50.9899 159.029 51.9987 159.3L53.0596 157.017L51.9987 154.734C50.9899 155.005 50.2461 155.923 50.2461 157.017Z" fill="#0965CD"/>
<path d="M52.6134 159.38C53.92 159.38 54.9795 158.321 54.9795 157.014C54.9795 155.708 53.9202 154.648 52.6134 154.648C52.4009 154.648 52.1959 154.679 52 154.732V159.297C52.196 159.35 52.4009 159.38 52.6134 159.38Z" fill="#0965CD"/>
<path d="M58.5841 151.871C61.5279 151.871 63.9143 149.485 63.9143 146.541C63.9143 143.597 61.5279 141.211 58.5841 141.211C55.6403 141.211 53.2539 143.597 53.2539 146.541C53.2539 149.485 55.6403 151.871 58.5841 151.871Z" fill="#0965CD"/>
<path d="M44.5769 154.646C46.4639 154.646 47.9937 153.116 47.9937 151.229C47.9937 149.342 46.4639 147.812 44.5769 147.812C42.6899 147.812 41.1602 149.342 41.1602 151.229C41.1602 153.116 42.6899 154.646 44.5769 154.646Z" fill="#0965CD"/>
<path fill-rule="evenodd" clip-rule="evenodd" d="M55.1418 170.74C54.388 168.92 54 166.97 54 165C54 163.03 54.388 161.08 55.1418 159.26C55.8956 157.44 57.0005 155.786 58.3934 154.393C59.7863 153.001 61.4399 151.896 63.2597 151.142C65.0796 150.388 67.0302 150 69 150C70.9698 150 72.9204 150.388 74.7403 151.142C76.5601 151.896 78.2137 153.001 79.6066 154.393C80.9995 155.786 82.1044 157.44 82.8582 159.26C83.612 161.08 84 163.03 84 165C84 166.97 83.612 168.92 82.8582 170.74C82.1044 172.56 80.9995 174.214 79.6066 175.607C78.2137 176.999 76.5601 178.104 74.7403 178.858C72.9204 179.612 70.9698 180 69 180C67.0302 180 65.0796 179.612 63.2597 178.858C61.4399 178.104 59.7863 176.999 58.3934 175.607C57.0005 174.214 55.8956 172.56 55.1418 170.74ZM57.9134 169.592C57.3104 168.136 57 166.576 57 165C57 163.424 57.3104 161.864 57.9134 160.408C58.5165 158.952 59.4004 157.629 60.5147 156.515C61.629 155.4 62.9519 154.517 64.4078 153.913C65.8637 153.31 67.4241 153 69 153C70.5759 153 72.1363 153.31 73.5922 153.913C75.0481 154.517 76.371 155.4 77.4853 156.515C78.5996 157.629 79.4835 158.952 80.0866 160.408C80.6896 161.864 81 163.424 81 165C81 166.576 80.6896 168.136 80.0866 169.592C79.4835 171.048 78.5996 172.371 77.4853 173.485C76.371 174.6 75.0481 175.483 73.5922 176.087C72.1363 176.69 70.5759 177 69 177C67.4241 177 65.8637 176.69 64.4078 176.087C62.9519 175.483 61.629 174.6 60.5147 173.485C59.4004 172.371 58.5165 171.048 57.9134 169.592Z" fill="white"/>
<path d="M57 165C57 166.576 57.3104 168.136 57.9134 169.592C58.5165 171.048 59.4004 172.371 60.5147 173.485C61.629 174.6 62.9519 175.483 64.4078 176.087C65.8637 176.69 67.4241 177 69 177C70.5759 177 72.1363 176.69 73.5922 176.087C75.0481 175.483 76.371 174.6 77.4853 173.485C78.5996 172.371 79.4835 171.048 80.0866 169.592C80.6896 168.136 81 166.576 81 165C81 163.424 80.6896 161.864 80.0866 160.408C79.4835 158.952 78.5996 157.629 77.4853 156.515C76.371 155.4 75.0481 154.517 73.5922 153.913C72.1363 153.31 70.5759 153 69 153C67.4241 153 65.8637 153.31 64.4078 153.913C62.9519 154.517 61.629 155.4 60.5147 156.515C59.4004 157.629 58.5165 158.952 57.9134 160.408C57.3104 161.864 57 163.424 57 165Z" fill="#40D98D"/>
<path fill-rule="evenodd" clip-rule="evenodd" d="M69 153V177C70.5759 177 72.1363 176.69 73.5922 176.087C75.0481 175.483 76.371 174.6 77.4853 173.485C78.5996 172.371 79.4835 171.048 80.0866 169.592C80.6896 168.136 81 166.576 81 165C81 163.424 80.6896 161.864 80.0866 160.408C79.4835 158.952 78.5996 157.629 77.4853 156.515C76.371 155.4 75.0481 154.517 73.5922 153.913C72.1363 153.31 70.5759 153 69 153Z" fill="#25BB71"/>
<path fill-rule="evenodd" clip-rule="evenodd" d="M64 165C64 164.172 64.6716 163.5 65.5 163.5H69C69.8284 163.5 70.5 164.172 70.5 165C70.5 165.828 69.8284 166.5 69 166.5H65.5C64.6716 166.5 64 165.828 64 165Z" fill="white"/>
<path fill-rule="evenodd" clip-rule="evenodd" d="M69 158.5C69.8284 158.5 70.5 159.172 70.5 160V165C70.5 165.828 69.8284 166.5 69 166.5C68.1716 166.5 67.5 165.828 67.5 165V160C67.5 159.172 68.1716 158.5 69 158.5Z" fill="white"/>
<path fill-rule="evenodd" clip-rule="evenodd" d="M69 166.5C69.8284 166.5 70.5 165.828 70.5 165V160C70.5 159.172 69.8284 158.5 69 158.5V166.5Z" fill="#F0F7FE"/>
<defs>
<filter id="filter0_dd_11513_74305" x="6" y="9" width="100" height="100" filterUnits="userSpaceOnUse" color-interpolation-filters="sRGB">
<feFlood flood-opacity="0" result="BackgroundImageFix"/>
<feColorMatrix in="SourceAlpha" type="matrix" values="0 0 0 0 0 0 0 0 0 0 0 0 0 0 0 0 0 0 127 0" result="hardAlpha"/>
<feOffset dy="3"/>
<feGaussianBlur stdDeviation="5"/>
<feColorMatrix type="matrix" values="0 0 0 0 0.516667 0 0 0 0 0.578358 0 0 0 0 0.775 0 0 0 0.12 0"/>
<feBlend mode="normal" in2="BackgroundImageFix" result="effect1_dropShadow_11513_74305"/>
<feColorMatrix in="SourceAlpha" type="matrix" values="0 0 0 0 0 0 0 0 0 0 0 0 0 0 0 0 0 0 127 0" result="hardAlpha"/>
<feOffset dy="1"/>
<feGaussianBlur stdDeviation="3"/>
<feColorMatrix type="matrix" values="0 0 0 0 0.709809 0 0 0 0 0.788943 0 0 0 0 0.920833 0 0 0 0.15 0"/>
<feBlend mode="normal" in2="effect1_dropShadow_11513_74305" result="effect2_dropShadow_11513_74305"/>
<feBlend mode="normal" in="SourceGraphic" in2="effect2_dropShadow_11513_74305" result="shape"/>
</filter>
</defs>
</svg>
