<svg width="112" height="208" viewBox="0 0 112 208" fill="none" xmlns="http://www.w3.org/2000/svg">
<rect x="0.5" y="0.5" width="111" height="207" rx="4.5" stroke="#9747FF" stroke-dasharray="10 5"/>
<g filter="url(#filter0_d_59015_12242)">
<rect x="16" y="16" width="80" height="80" rx="8" fill="white"/>
</g>
<path d="M74.0001 34.822V65.6414C74.0001 66.015 73.8728 66.3778 73.6386 66.668L63.3775 79.4023C63.0737 79.7802 62.6169 80 62.1345 80H41.4797C39.7103 80 38.2704 78.5425 38.2704 76.7515V34.822C38.2704 32.8479 36.6928 31.2485 34.7402 31.2485C33.8545 31.2485 33.1356 30.5209 33.1356 29.6243C33.1356 28.7277 32.2499 28 33.1356 28H67.2607C70.977 28 74.0001 31.0601 74.0001 34.822Z" fill="#157DF5"/>
<path fill-rule="evenodd" clip-rule="evenodd" d="M46.7451 36C47.1213 36 47.4734 36.0712 47.7764 36.2412L47.7773 36.2402C47.7813 36.2424 47.7861 36.2449 47.79 36.2471L47.7891 36.248C48.0643 36.3977 48.2959 36.5975 48.4707 36.8506C48.6238 37.065 48.7499 37.2957 48.8506 37.542L49.0137 37.9307C49.0725 38.0752 49.1367 38.2367 49.2061 38.415L52.1943 45.6396L52.3545 46.0371C52.497 46.4209 52.5849 46.7597 52.585 47.0283C52.5849 47.4438 52.3995 47.8011 52.1035 48.0908C51.7926 48.395 51.4052 48.5498 50.9697 48.5498C50.7349 48.5498 50.505 48.5076 50.2959 48.4043L50.2822 48.3984C50.0961 48.3087 49.9339 48.1831 49.8018 48.0234L49.7939 48.0156C49.6714 47.8603 49.5564 47.6521 49.4463 47.415L49.4414 47.4023C49.3422 47.1725 49.2561 46.9697 49.1826 46.7949L49.1768 46.7822L48.75 45.6836H44.7588L44.3311 46.8096C44.1178 47.3696 43.9151 47.8096 43.7178 48.0693L43.7139 48.0742C43.4388 48.4267 43.0209 48.5497 42.5918 48.5498C42.1715 48.5498 41.7975 48.394 41.4893 48.1064C41.1846 47.822 41.0002 47.4635 41 47.0439C41 46.8358 41.0352 46.6276 41.1006 46.4229C41.1586 46.2411 41.2509 46 41.3721 45.7061L44.2988 38.4346C44.3817 38.2268 44.4797 37.9777 44.5938 37.6885L44.5957 37.6846C44.7237 37.3687 44.8635 37.0915 45.0176 36.8623L45.0225 36.8564C45.2007 36.6015 45.4306 36.3976 45.7051 36.2461C46.0124 36.0742 46.3669 36 46.7451 36ZM45.7256 43.0146H47.7598L46.7334 40.2646L45.7256 43.0146Z" fill="white"/>
<path d="M73.9989 34.822V65.6414C73.9989 66.015 73.8716 66.3778 73.6374 66.668L63.3763 79.4023C63.0725 79.7802 62.6157 80 62.1332 80H55.3853V28H67.2595C70.9758 28 73.9989 31.0601 73.9989 34.822Z" fill="#0965CD"/>
<path d="M38.2696 45.109H31.2093C29.4368 45.109 28 43.6547 28 41.8605V33.1977C28 30.327 30.2989 28 33.1348 28C35.9628 28 38.2696 30.3191 38.2696 33.1977V45.109Z" fill="#0965CD"/>
<path d="M51.8676 65.4661C51.8676 66.3627 51.1487 67.0903 50.263 67.0903H45.7204C44.8346 67.0903 44.1157 66.3627 44.1157 65.4661C44.1157 64.5695 44.8346 63.8418 45.7204 63.8418H50.263C51.1487 63.8418 51.8676 64.5695 51.8676 65.4661Z" fill="white"/>
<path d="M51.8676 71.9719C51.8676 72.8685 51.1487 73.5962 50.263 73.5962H45.7204C44.8346 73.5962 44.1157 72.8685 44.1157 71.9719C44.1157 71.0753 44.8346 70.3477 45.7204 70.3477H50.263C51.1487 70.3477 51.8676 71.0753 51.8676 71.9719Z" fill="white"/>
<path d="M51.8676 58.9583C51.8676 59.8549 51.1487 60.5825 50.263 60.5825H45.7204C44.8346 60.5825 44.1157 59.8549 44.1157 58.9583C44.1157 58.0617 44.8346 57.334 45.7204 57.334H50.263C51.1487 57.334 51.8676 58.0617 51.8676 58.9583Z" fill="#40D98D"/>
<path fill-rule="evenodd" clip-rule="evenodd" d="M59.3064 57.0057C61.2143 57.1184 62.9825 57.5277 64.5169 58.3327C65.6294 57.9763 66.8019 57.7805 67.9961 57.7805C69.198 57.7805 70.3778 57.9788 71.4968 58.3396C73.0303 57.5359 74.7971 57.1272 76.7034 57.0146C78.5876 56.9033 80.03 58.4496 79.9995 60.2048C79.9635 62.2743 79.7925 63.9626 79.2471 65.6135C79.724 66.8556 79.9923 68.2006 79.9923 69.6072C79.9923 73.3259 78.4837 76.2382 76.1506 78.1869C73.8631 80.0976 70.889 81.0002 67.9962 81.0002C65.1033 81.0002 62.1292 80.0976 59.8417 78.1869C57.5086 76.2382 56 73.3259 56 69.6072C56 68.1898 56.2725 66.8349 56.7563 65.5849C56.2159 63.9401 56.0461 62.2571 56.0103 60.1961M58.9075 65.6434C58.3297 66.8558 58 68.1968 58 69.6072C58 82.1312 77.9923 82.1312 77.9923 69.6072C77.9923 68.2061 77.6669 66.8735 77.0962 65.6674C77.7456 64.0817 77.9597 62.4747 77.9998 60.1702C78.0112 59.5125 77.4772 58.9723 76.8213 59.0111C74.7661 59.1325 73.0474 59.6308 71.6982 60.5454C70.5263 60.0528 69.2684 59.7805 67.9961 59.7805C66.7307 59.7805 65.4795 60.0499 64.313 60.5375C62.9636 59.6222 61.2444 59.1237 59.1885 59.0022C58.5327 58.9634 57.9985 59.5036 58.01 60.1613C58.0499 62.4585 58.2629 64.0626 58.9075 65.6434ZM59.3064 57.0057C57.4225 56.8944 55.9797 58.4405 56.0103 60.1961L59.3064 57.0057Z" fill="white"/>
<path d="M58.0099 60.1611C57.9985 59.5034 58.5327 58.9632 59.1884 59.002C62.1877 59.1792 64.4703 60.1589 65.9338 62.0642C66.0596 62.228 66.0277 62.4607 65.8695 62.5935L60.2719 67.2972C60.0854 67.4539 59.8027 67.4083 59.6801 67.1977C58.4193 65.0305 58.0629 63.2038 58.0099 60.1611Z" fill="#FFA099"/>
<path d="M77.9998 60.1699C78.0112 59.5121 77.4771 58.972 76.8213 59.0108C73.822 59.188 71.5394 60.1677 70.0759 62.073C69.9501 62.2368 69.982 62.4695 70.1402 62.6023L75.7378 67.306C75.9243 67.4627 76.207 67.4171 76.3296 67.2065C77.5905 65.0393 77.9468 63.2126 77.9998 60.1699Z" fill="#FF7E75"/>
<path d="M77.9923 69.6069C77.9923 64.1798 73.1104 59.7803 67.9961 59.7803C62.8818 59.7803 58 64.1798 58 69.6069C58 82.131 77.9923 82.131 77.9923 69.6069Z" fill="#FFDECC"/>
<path d="M68.0034 79C73 78.9981 77.995 75.867 77.995 69.6069C77.995 64.1814 73.1161 59.7829 68.0034 59.7803V79Z" fill="#FFCFB5"/>
<path d="M72.9532 71.463C72.9532 69.3147 70.61 67.5732 68.1551 67.5732C65.7002 67.5732 63.3569 69.3147 63.3569 71.463C63.3569 76.4204 72.9532 76.4204 72.9532 71.463Z" fill="#FFA099"/>
<path d="M72.3952 65.7925C72.3952 65.1291 71.8581 64.5913 71.1956 64.5913C70.5332 64.5913 69.9961 65.1291 69.9961 65.7925C69.9961 66.456 70.5332 66.9938 71.1956 66.9938C71.8581 66.9938 72.3952 66.456 72.3952 65.7925Z" fill="#1E203E"/>
<path d="M65.9984 65.7925C65.9984 65.1291 65.4614 64.5913 64.7989 64.5913C64.1364 64.5913 63.5994 65.1291 63.5994 65.7925C63.5994 66.456 64.1364 66.9938 64.7989 66.9938C65.4614 66.9938 65.9984 66.456 65.9984 65.7925Z" fill="#282A52"/>
<path fill-rule="evenodd" clip-rule="evenodd" d="M66.5961 72.8541C66.1544 72.8541 65.7964 72.4956 65.7964 72.0533V71.2525C65.7964 70.8102 66.1544 70.4517 66.5961 70.4517C67.0377 70.4517 67.3958 70.8102 67.3958 71.2525V72.0533C67.3958 72.4956 67.0377 72.8541 66.5961 72.8541Z" fill="#282A52"/>
<path d="M68.0034 75.1793C70.453 75.2338 72.9565 73.9951 72.9565 71.463C72.9565 69.3147 70.6132 67.5732 68.1584 67.5732C68.1067 67.5732 68.055 67.574 68.0034 67.5755V75.1793Z" fill="#FF7E75"/>
<path fill-rule="evenodd" clip-rule="evenodd" d="M69.3959 72.8541C68.9542 72.8541 68.5962 72.4956 68.5962 72.0533V71.2525C68.5962 70.8102 68.9542 70.4517 69.3959 70.4517C69.8375 70.4517 70.1956 70.8102 70.1956 71.2525V72.0533C70.1956 72.4956 69.8375 72.8541 69.3959 72.8541Z" fill="#1E203E"/>
<path fill-rule="evenodd" clip-rule="evenodd" d="M64.1621 36C65.1874 36 66.1198 36.1923 66.9473 36.5898C67.7528 36.9769 68.397 37.4706 68.8545 38.0811C69.2931 38.6613 69.5527 39.2627 69.5527 39.876C69.5526 40.2715 69.3983 40.6197 69.1221 40.9014C68.8371 41.1917 68.4763 41.3438 68.0693 41.3438C67.6986 41.3436 67.3324 41.2624 67.0537 41.0186L67.0469 41.0127C66.8367 40.822 66.6351 40.5294 66.4385 40.1807C66.1536 39.6777 65.8322 39.3275 65.4854 39.1045L65.4824 39.1035C65.155 38.8904 64.7291 38.7686 64.1777 38.7686C63.3186 38.7687 62.6686 39.0676 62.1777 39.6553C61.6891 40.2468 61.4112 41.1282 61.4111 42.3662C61.4111 43.1929 61.5349 43.8474 61.7588 44.3477C61.9839 44.8454 62.2905 45.1941 62.6709 45.4219C63.0618 45.6558 63.5317 45.7812 64.0967 45.7812C64.7137 45.7812 65.2003 45.6396 65.582 45.3828L65.7227 45.2773C66.0446 45.0189 66.3031 44.6596 66.4902 44.1787C66.6056 43.8519 66.7558 43.5623 66.9502 43.3271C67.2253 42.9893 67.6339 42.8702 68.0537 42.8701C68.4575 42.8701 68.8216 43.0069 69.1191 43.2793C69.425 43.5595 69.5848 43.9232 69.585 44.3379C69.5849 44.7799 69.4679 45.2362 69.2578 45.6992C69.0444 46.1763 68.7125 46.6305 68.2812 47.0635L68.2803 47.0654C67.8258 47.5159 67.2556 47.8715 66.584 48.1406C65.8923 48.4178 65.1028 48.5498 64.2266 48.5498C63.5704 48.5498 62.964 48.4917 62.4102 48.3711C61.8539 48.2499 61.3401 48.0607 60.873 47.8018L60.8672 47.7988C60.4029 47.5323 59.9786 47.1857 59.5957 46.7646L59.5938 46.7617C59.2514 46.3786 58.9599 45.9517 58.7197 45.4834L58.7188 45.4814C58.4784 45.0073 58.297 44.5037 58.1748 43.9727L58.1738 43.9678C58.0574 43.4366 58 42.8766 58 42.29C58 41.3393 58.1461 40.471 58.4473 39.6934L58.4482 39.6904C58.7535 38.9176 59.1919 38.25 59.7637 37.6953C60.3321 37.1389 60.9983 36.7163 61.7568 36.4287C62.5133 36.142 63.3164 36 64.1621 36Z" fill="#F0F7FE"/>
<path d="M84 77C84 80.866 80.866 84 77 84C73.134 84 70 80.866 70 77C70 73.134 73.134 70 77 70C80.866 70 84 73.134 84 77Z" fill="#40D98D"/>
<path d="M77 84C80.866 84 84 80.866 84 77C84 73.134 80.866 70 77 70V84Z" fill="#25BB71"/>
<path d="M79.9303 74.9227C79.5977 74.5902 79.0586 74.5902 78.726 74.9227L76.381 77.2678L75.2749 76.1617C74.9424 75.829 74.4032 75.8292 74.0707 76.1617C73.7382 76.4942 73.7382 77.0335 74.0707 77.3659L75.7789 79.0742C75.9386 79.2339 76.1552 79.3236 76.381 79.3236C76.6069 79.3236 76.8235 79.2339 76.9832 79.0742L79.9303 76.127C80.2629 75.7945 80.2629 75.2553 79.9303 74.9227Z" fill="white"/>
<path d="M78.7262 74.9252L76.9978 76.6535V79.0621L79.9304 76.1294C80.263 75.7969 80.263 75.2577 79.9304 74.9252C79.5979 74.5926 79.0587 74.5926 78.7262 74.9252Z" fill="#F0F7FE"/>
<path d="M74.0001 130.822V161.641C74.0001 162.015 73.8728 162.378 73.6386 162.668L63.3775 175.402C63.0737 175.78 62.6169 176 62.1345 176H41.4797C39.7103 176 38.2704 174.542 38.2704 172.751V130.822C38.2704 128.848 36.6928 127.249 34.7402 127.249C33.8545 127.249 33.1356 126.521 33.1356 125.624C33.1356 124.728 32.2499 124 33.1356 124H67.2607C70.977 124 74.0001 127.06 74.0001 130.822Z" fill="#157DF5"/>
<path fill-rule="evenodd" clip-rule="evenodd" d="M46.7451 132C47.1213 132 47.4734 132.071 47.7764 132.241L47.7773 132.24C47.7813 132.242 47.7861 132.245 47.79 132.247L47.7891 132.248C48.0643 132.398 48.2959 132.597 48.4707 132.851C48.6238 133.065 48.7499 133.296 48.8506 133.542L49.0137 133.931C49.0725 134.075 49.1367 134.237 49.2061 134.415L52.1943 141.64L52.3545 142.037C52.497 142.421 52.5849 142.76 52.585 143.028C52.5849 143.444 52.3995 143.801 52.1035 144.091C51.7926 144.395 51.4052 144.55 50.9697 144.55C50.7349 144.55 50.505 144.508 50.2959 144.404L50.2822 144.398C50.0961 144.309 49.9339 144.183 49.8018 144.023L49.7939 144.016C49.6714 143.86 49.5564 143.652 49.4463 143.415L49.4414 143.402C49.3422 143.172 49.2561 142.97 49.1826 142.795L49.1768 142.782L48.75 141.684H44.7588L44.3311 142.81C44.1178 143.37 43.9151 143.81 43.7178 144.069L43.7139 144.074C43.4388 144.427 43.0209 144.55 42.5918 144.55C42.1715 144.55 41.7975 144.394 41.4893 144.106C41.1846 143.822 41.0002 143.464 41 143.044C41 142.836 41.0352 142.628 41.1006 142.423C41.1586 142.241 41.2509 142 41.3721 141.706L44.2988 134.435C44.3817 134.227 44.4797 133.978 44.5938 133.688L44.5957 133.685C44.7237 133.369 44.8635 133.091 45.0176 132.862L45.0225 132.856C45.2007 132.602 45.4306 132.398 45.7051 132.246C46.0124 132.074 46.3669 132 46.7451 132ZM45.7256 139.015H47.7598L46.7334 136.265L45.7256 139.015Z" fill="white"/>
<path d="M73.9989 130.822V161.641C73.9989 162.015 73.8716 162.378 73.6374 162.668L63.3763 175.402C63.0725 175.78 62.6157 176 62.1332 176H55.3853V124H67.2595C70.9758 124 73.9989 127.06 73.9989 130.822Z" fill="#0965CD"/>
<path d="M38.2696 141.109H31.2093C29.4368 141.109 28 139.655 28 137.86V129.198C28 126.327 30.2989 124 33.1348 124C35.9628 124 38.2696 126.319 38.2696 129.198V141.109Z" fill="#0965CD"/>
<path d="M51.8676 161.466C51.8676 162.363 51.1487 163.09 50.263 163.09H45.7204C44.8346 163.09 44.1157 162.363 44.1157 161.466C44.1157 160.569 44.8346 159.842 45.7204 159.842H50.263C51.1487 159.842 51.8676 160.569 51.8676 161.466Z" fill="white"/>
<path d="M51.8676 167.972C51.8676 168.869 51.1487 169.596 50.263 169.596H45.7204C44.8346 169.596 44.1157 168.869 44.1157 167.972C44.1157 167.075 44.8346 166.348 45.7204 166.348H50.263C51.1487 166.348 51.8676 167.075 51.8676 167.972Z" fill="white"/>
<path d="M51.8676 154.958C51.8676 155.855 51.1487 156.583 50.263 156.583H45.7204C44.8346 156.583 44.1157 155.855 44.1157 154.958C44.1157 154.062 44.8346 153.334 45.7204 153.334H50.263C51.1487 153.334 51.8676 154.062 51.8676 154.958Z" fill="#40D98D"/>
<path fill-rule="evenodd" clip-rule="evenodd" d="M59.3064 153.006C61.2143 153.118 62.9825 153.528 64.5169 154.333C65.6294 153.976 66.8019 153.781 67.9961 153.781C69.198 153.781 70.3778 153.979 71.4968 154.34C73.0303 153.536 74.7971 153.127 76.7034 153.015C78.5876 152.903 80.03 154.45 79.9995 156.205C79.9635 158.274 79.7925 159.963 79.2471 161.614C79.724 162.856 79.9923 164.201 79.9923 165.607C79.9923 169.326 78.4837 172.238 76.1506 174.187C73.8631 176.098 70.889 177 67.9962 177C65.1033 177 62.1292 176.098 59.8417 174.187C57.5086 172.238 56 169.326 56 165.607C56 164.19 56.2725 162.835 56.7563 161.585C56.2159 159.94 56.0461 158.257 56.0103 156.196M58.9075 161.643C58.3297 162.856 58 164.197 58 165.607C58 178.131 77.9923 178.131 77.9923 165.607C77.9923 164.206 77.6669 162.874 77.0962 161.667C77.7456 160.082 77.9597 158.475 77.9998 156.17C78.0112 155.512 77.4772 154.972 76.8213 155.011C74.7661 155.133 73.0474 155.631 71.6982 156.545C70.5263 156.053 69.2684 155.781 67.9961 155.781C66.7307 155.781 65.4795 156.05 64.313 156.537C62.9636 155.622 61.2444 155.124 59.1885 155.002C58.5327 154.963 57.9985 155.504 58.01 156.161C58.0499 158.459 58.2629 160.063 58.9075 161.643ZM59.3064 153.006C57.4225 152.894 55.9797 154.441 56.0103 156.196L59.3064 153.006Z" fill="white"/>
<path d="M58.0099 156.161C57.9985 155.503 58.5327 154.963 59.1884 155.002C62.1877 155.179 64.4703 156.159 65.9338 158.064C66.0596 158.228 66.0277 158.461 65.8695 158.594L60.2719 163.297C60.0854 163.454 59.8027 163.408 59.6801 163.198C58.4193 161.031 58.0629 159.204 58.0099 156.161Z" fill="#FFA099"/>
<path d="M77.9998 156.17C78.0112 155.512 77.4771 154.972 76.8213 155.011C73.822 155.188 71.5394 156.168 70.0759 158.073C69.9501 158.237 69.982 158.469 70.1402 158.602L75.7378 163.306C75.9243 163.463 76.207 163.417 76.3296 163.206C77.5905 161.039 77.9468 159.213 77.9998 156.17Z" fill="#FF7E75"/>
<path d="M77.9923 165.607C77.9923 160.18 73.1104 155.78 67.9961 155.78C62.8818 155.78 58 160.18 58 165.607C58 178.131 77.9923 178.131 77.9923 165.607Z" fill="#FFDECC"/>
<path d="M68.0034 175C73 174.998 77.995 171.867 77.995 165.607C77.995 160.181 73.1161 155.783 68.0034 155.78V175Z" fill="#FFCFB5"/>
<path d="M72.9532 167.463C72.9532 165.315 70.61 163.573 68.1551 163.573C65.7002 163.573 63.3569 165.315 63.3569 167.463C63.3569 172.42 72.9532 172.42 72.9532 167.463Z" fill="#FFA099"/>
<path d="M72.3952 161.793C72.3952 161.129 71.8581 160.591 71.1956 160.591C70.5332 160.591 69.9961 161.129 69.9961 161.793C69.9961 162.456 70.5332 162.994 71.1956 162.994C71.8581 162.994 72.3952 162.456 72.3952 161.793Z" fill="#1E203E"/>
<path d="M65.9984 161.793C65.9984 161.129 65.4614 160.591 64.7989 160.591C64.1364 160.591 63.5994 161.129 63.5994 161.793C63.5994 162.456 64.1364 162.994 64.7989 162.994C65.4614 162.994 65.9984 162.456 65.9984 161.793Z" fill="#282A52"/>
<path fill-rule="evenodd" clip-rule="evenodd" d="M66.5961 168.854C66.1544 168.854 65.7964 168.496 65.7964 168.053V167.252C65.7964 166.81 66.1544 166.452 66.5961 166.452C67.0377 166.452 67.3958 166.81 67.3958 167.252V168.053C67.3958 168.496 67.0377 168.854 66.5961 168.854Z" fill="#282A52"/>
<path d="M68.0034 171.179C70.453 171.234 72.9565 169.995 72.9565 167.463C72.9565 165.315 70.6132 163.573 68.1584 163.573C68.1067 163.573 68.055 163.574 68.0034 163.576V171.179Z" fill="#FF7E75"/>
<path fill-rule="evenodd" clip-rule="evenodd" d="M69.3959 168.854C68.9542 168.854 68.5962 168.496 68.5962 168.053V167.252C68.5962 166.81 68.9542 166.452 69.3959 166.452C69.8375 166.452 70.1956 166.81 70.1956 167.252V168.053C70.1956 168.496 69.8375 168.854 69.3959 168.854Z" fill="#1E203E"/>
<path fill-rule="evenodd" clip-rule="evenodd" d="M64.1621 132C65.1874 132 66.1198 132.192 66.9473 132.59C67.7528 132.977 68.397 133.471 68.8545 134.081C69.2931 134.661 69.5527 135.263 69.5527 135.876C69.5526 136.272 69.3983 136.62 69.1221 136.901C68.8371 137.192 68.4763 137.344 68.0693 137.344C67.6986 137.344 67.3324 137.262 67.0537 137.019L67.0469 137.013C66.8367 136.822 66.6351 136.529 66.4385 136.181C66.1536 135.678 65.8322 135.327 65.4854 135.104L65.4824 135.104C65.155 134.89 64.7291 134.769 64.1777 134.769C63.3186 134.769 62.6686 135.068 62.1777 135.655C61.6891 136.247 61.4112 137.128 61.4111 138.366C61.4111 139.193 61.5349 139.847 61.7588 140.348C61.9839 140.845 62.2905 141.194 62.6709 141.422C63.0618 141.656 63.5317 141.781 64.0967 141.781C64.7137 141.781 65.2003 141.64 65.582 141.383L65.7227 141.277C66.0446 141.019 66.3031 140.66 66.4902 140.179C66.6056 139.852 66.7558 139.562 66.9502 139.327C67.2253 138.989 67.6339 138.87 68.0537 138.87C68.4575 138.87 68.8216 139.007 69.1191 139.279C69.425 139.559 69.5848 139.923 69.585 140.338C69.5849 140.78 69.4679 141.236 69.2578 141.699C69.0444 142.176 68.7125 142.63 68.2812 143.063L68.2803 143.065C67.8258 143.516 67.2556 143.871 66.584 144.141C65.8923 144.418 65.1028 144.55 64.2266 144.55C63.5704 144.55 62.964 144.492 62.4102 144.371C61.8539 144.25 61.3401 144.061 60.873 143.802L60.8672 143.799C60.4029 143.532 59.9786 143.186 59.5957 142.765L59.5938 142.762C59.2514 142.379 58.9599 141.952 58.7197 141.483L58.7188 141.481C58.4784 141.007 58.297 140.504 58.1748 139.973L58.1738 139.968C58.0574 139.437 58 138.877 58 138.29C58 137.339 58.1461 136.471 58.4473 135.693L58.4482 135.69C58.7535 134.918 59.1919 134.25 59.7637 133.695C60.3321 133.139 60.9983 132.716 61.7568 132.429C62.5133 132.142 63.3164 132 64.1621 132Z" fill="#F0F7FE"/>
<path d="M84 173C84 176.866 80.866 180 77 180C73.134 180 70 176.866 70 173C70 169.134 73.134 166 77 166C80.866 166 84 169.134 84 173Z" fill="#40D98D"/>
<path d="M77 180C80.866 180 84 176.866 84 173C84 169.134 80.866 166 77 166V180Z" fill="#25BB71"/>
<path d="M79.9303 170.923C79.5977 170.59 79.0586 170.59 78.726 170.923L76.381 173.268L75.2749 172.162C74.9424 171.829 74.4032 171.829 74.0707 172.162C73.7382 172.494 73.7382 173.033 74.0707 173.366L75.7789 175.074C75.9386 175.234 76.1552 175.324 76.381 175.324C76.6069 175.324 76.8235 175.234 76.9832 175.074L79.9303 172.127C80.2629 171.794 80.2629 171.255 79.9303 170.923Z" fill="white"/>
<path d="M78.7262 170.925L76.9978 172.654V175.062L79.9304 172.129C80.263 171.797 80.263 171.258 79.9304 170.925C79.5979 170.593 79.0587 170.593 78.7262 170.925Z" fill="#F0F7FE"/>
<defs>
<filter id="filter0_d_59015_12242" x="10" y="9" width="96" height="96" filterUnits="userSpaceOnUse" color-interpolation-filters="sRGB">
<feFlood flood-opacity="0" result="BackgroundImageFix"/>
<feColorMatrix in="SourceAlpha" type="matrix" values="0 0 0 0 0 0 0 0 0 0 0 0 0 0 0 0 0 0 127 0" result="hardAlpha"/>
<feOffset dx="2" dy="1"/>
<feGaussianBlur stdDeviation="4"/>
<feColorMatrix type="matrix" values="0 0 0 0 0.0392157 0 0 0 0 0.0392157 0 0 0 0 0.0627451 0 0 0 0.08 0"/>
<feBlend mode="normal" in2="BackgroundImageFix" result="effect1_dropShadow_59015_12242"/>
<feBlend mode="normal" in="SourceGraphic" in2="effect1_dropShadow_59015_12242" result="shape"/>
</filter>
</defs>
</svg>
