<svg width="112" height="208" viewBox="0 0 112 208" fill="none" xmlns="http://www.w3.org/2000/svg">
<rect x="0.5" y="0.5" width="111" height="207" rx="4.5" stroke="#9747FF" stroke-dasharray="10 5"/>
<g filter="url(#filter0_dd_44803_11650)">
<rect x="16" y="16" width="80" height="80" rx="8" fill="white"/>
</g>
<g clip-path="url(#clip0_44803_11650)">
<path d="M74.0001 36.822V67.6414C74.0001 68.015 73.8728 68.3778 73.6386 68.668L63.3775 81.4023C63.0737 81.7802 62.6169 82 62.1345 82H41.4797C39.7103 82 38.2704 80.5425 38.2704 78.7515V36.822C38.2704 34.8479 36.6928 33.2485 34.7402 33.2485C33.8545 33.2485 33.1356 32.5209 33.1356 31.6243C33.1356 30.7277 32.2499 30 33.1356 30H67.2607C70.977 30 74.0001 33.0601 74.0001 36.822Z" fill="#157DF5"/>
<path d="M73.9989 36.822V67.6414C73.9989 68.015 73.8716 68.3778 73.6374 68.668L63.3763 81.4023C63.0725 81.7802 62.6157 82 62.1332 82H55.3853V30H67.2595C70.9758 30 73.9989 33.0601 73.9989 36.822Z" fill="#0965CD"/>
<path d="M38.2696 47.109H31.2093C29.4368 47.109 28 45.6547 28 43.8605V35.1977C28 32.327 30.2989 30 33.1348 30C35.9628 30 38.2696 32.3191 38.2696 35.1977V47.109Z" fill="#0965CD"/>
<path d="M51.8676 67.4661C51.8676 68.3627 51.1487 69.0903 50.263 69.0903H45.7204C44.8346 69.0903 44.1157 68.3627 44.1157 67.4661C44.1157 66.5695 44.8346 65.8418 45.7204 65.8418H50.263C51.1487 65.8418 51.8676 66.5695 51.8676 67.4661Z" fill="white"/>
<path d="M51.8676 73.9719C51.8676 74.8685 51.1487 75.5962 50.263 75.5962H45.7204C44.8346 75.5962 44.1157 74.8685 44.1157 73.9719C44.1157 73.0753 44.8346 72.3477 45.7204 72.3477H50.263C51.1487 72.3477 51.8676 73.0753 51.8676 73.9719Z" fill="white"/>
<path d="M51.8676 60.9583C51.8676 61.8549 51.1487 62.5825 50.263 62.5825H45.7204C44.8346 62.5825 44.1157 61.8549 44.1157 60.9583C44.1157 60.0617 44.8346 59.334 45.7204 59.334H50.263C51.1487 59.334 51.8676 60.0617 51.8676 60.9583Z" fill="#40D98D"/>
<path d="M47.1185 38.0344C44.9567 38.0344 43.1965 39.7948 43.1965 41.9568C43.1965 44.1188 44.9567 45.8791 47.1185 45.8791H48.4912C48.9241 45.8791 49.2755 46.2305 49.2755 46.6636C49.2755 47.0966 48.9241 47.448 48.4912 47.448H46.7784C46.2419 47.448 45.8008 47.0495 45.6784 46.9271C45.065 46.3136 44.0734 46.3136 43.46 46.9271C42.8467 47.5406 42.8467 48.5322 43.46 49.1457C43.893 49.5787 45.0825 50.5859 46.7784 50.5859H48.4912C50.6529 50.5859 52.4131 48.8256 52.4131 46.6636C52.4131 44.5016 50.6529 42.7412 48.4912 42.7412H47.1185C46.6855 42.7412 46.3341 42.3898 46.3341 41.9568C46.3341 41.5237 46.6855 41.1723 47.1185 41.1723H48.4912C48.9681 41.1723 49.343 41.4971 49.343 41.4971C49.9563 42.109 50.9479 42.1106 51.5613 41.4971C52.1747 40.8837 52.1747 39.892 51.5613 39.2785C51.4342 39.1515 50.2654 38.0344 48.4912 38.0344H47.1185Z" fill="white"/>
<path fill-rule="evenodd" clip-rule="evenodd" d="M63.6209 47.6453C64.5588 47.6453 66.0595 46.5937 66.0595 44.3102C66.0595 42.0266 64.5588 40.9751 63.6209 40.9751C62.6831 40.9751 61.1823 42.0266 61.1823 44.3102C61.1823 46.5937 62.6831 47.6453 63.6209 47.6453ZM63.6209 50.5859C66.5918 50.5859 69.0001 47.7762 69.0001 44.3102C69.0001 40.8442 66.5918 38.0344 63.6209 38.0344C60.6501 38.0344 58.2417 40.8442 58.2417 44.3102C58.2417 47.7762 60.6501 50.5859 63.6209 50.5859Z" fill="#E2EFFE"/>
<path fill-rule="evenodd" clip-rule="evenodd" d="M59.3064 59.0057C61.2143 59.1184 62.9825 59.5277 64.5169 60.3327C65.6294 59.9763 66.8019 59.7805 67.9961 59.7805C69.198 59.7805 70.3778 59.9788 71.4968 60.3396C73.0303 59.5359 74.7971 59.1272 76.7034 59.0146C78.5876 58.9033 80.03 60.4496 79.9995 62.2048C79.9635 64.2743 79.7925 65.9626 79.2471 67.6135C79.724 68.8556 79.9923 70.2006 79.9923 71.6072C79.9923 75.3259 78.4837 78.2382 76.1506 80.1869C73.8631 82.0976 70.889 83.0002 67.9962 83.0002C65.1033 83.0002 62.1292 82.0976 59.8417 80.1869C57.5086 78.2382 56 75.3259 56 71.6072C56 70.1898 56.2725 68.8349 56.7563 67.5849C56.2159 65.9401 56.0461 64.2571 56.0103 62.1961M58.9075 67.6434C58.3297 68.8558 58 70.1968 58 71.6072C58 84.1312 77.9923 84.1312 77.9923 71.6072C77.9923 70.2061 77.6669 68.8735 77.0962 67.6674C77.7456 66.0817 77.9597 64.4747 77.9998 62.1702C78.0112 61.5125 77.4772 60.9723 76.8213 61.0111C74.7661 61.1325 73.0474 61.6308 71.6982 62.5454C70.5263 62.0528 69.2684 61.7805 67.9961 61.7805C66.7307 61.7805 65.4795 62.0499 64.313 62.5375C62.9636 61.6222 61.2444 61.1237 59.1885 61.0022C58.5327 60.9634 57.9985 61.5036 58.01 62.1613C58.0499 64.4585 58.2629 66.0626 58.9075 67.6434ZM59.3064 59.0057C57.4225 58.8944 55.9797 60.4405 56.0103 62.1961L59.3064 59.0057Z" fill="white"/>
<path d="M58.0099 62.1611C57.9985 61.5034 58.5327 60.9632 59.1884 61.002C62.1877 61.1792 64.4703 62.1589 65.9338 64.0642C66.0596 64.228 66.0277 64.4607 65.8695 64.5935L60.2719 69.2972C60.0854 69.4539 59.8027 69.4083 59.6801 69.1977C58.4193 67.0305 58.0629 65.2038 58.0099 62.1611Z" fill="#FFA099"/>
<path d="M77.9998 62.1699C78.0112 61.5121 77.4771 60.972 76.8213 61.0108C73.822 61.188 71.5394 62.1677 70.0759 64.073C69.9501 64.2368 69.982 64.4695 70.1402 64.6023L75.7378 69.306C75.9243 69.4627 76.207 69.4171 76.3296 69.2065C77.5905 67.0393 77.9468 65.2126 77.9998 62.1699Z" fill="#FF7E75"/>
<path d="M77.9923 71.6069C77.9923 66.1798 73.1104 61.7803 67.9961 61.7803C62.8818 61.7803 58 66.1798 58 71.6069C58 84.131 77.9923 84.131 77.9923 71.6069Z" fill="#FFDECC"/>
<path d="M68.0034 81C73 80.9981 77.995 77.867 77.995 71.6069C77.995 66.1814 73.1161 61.7829 68.0034 61.7803V81Z" fill="#FFCFB5"/>
<path d="M72.9532 73.4632C72.9532 71.315 70.61 69.5735 68.1551 69.5735C65.7002 69.5735 63.3569 71.315 63.3569 73.4632C63.3569 78.4207 72.9532 78.4207 72.9532 73.4632Z" fill="#FFA099"/>
<path d="M72.3952 67.7928C72.3952 67.1294 71.8581 66.5916 71.1956 66.5916C70.5332 66.5916 69.9961 67.1294 69.9961 67.7928C69.9961 68.4562 70.5332 68.994 71.1956 68.994C71.8581 68.994 72.3952 68.4562 72.3952 67.7928Z" fill="#1E203E"/>
<path d="M65.9982 67.7928C65.9982 67.1294 65.4611 66.5916 64.7987 66.5916C64.1362 66.5916 63.5991 67.1294 63.5991 67.7928C63.5991 68.4562 64.1362 68.994 64.7987 68.994C65.4611 68.994 65.9982 68.4562 65.9982 67.7928Z" fill="#282A52"/>
<path fill-rule="evenodd" clip-rule="evenodd" d="M66.5961 74.8541C66.1544 74.8541 65.7964 74.4956 65.7964 74.0533V73.2525C65.7964 72.8102 66.1544 72.4517 66.5961 72.4517C67.0377 72.4517 67.3958 72.8102 67.3958 73.2525V74.0533C67.3958 74.4956 67.0377 74.8541 66.5961 74.8541Z" fill="#282A52"/>
<path d="M68.0034 77.1796C70.453 77.2341 72.9565 75.9953 72.9565 73.4632C72.9565 71.315 70.6132 69.5735 68.1584 69.5735C68.1067 69.5735 68.055 69.5743 68.0034 69.5758V77.1796Z" fill="#FF7E75"/>
<path fill-rule="evenodd" clip-rule="evenodd" d="M69.3959 74.8541C68.9542 74.8541 68.5962 74.4956 68.5962 74.0533V73.2525C68.5962 72.8102 68.9542 72.4517 69.3959 72.4517C69.8375 72.4517 70.1956 72.8102 70.1956 73.2525V74.0533C70.1956 74.4956 69.8375 74.8541 69.3959 74.8541Z" fill="#1E203E"/>
<ellipse cx="76.9998" cy="79" rx="6.99984" ry="6.99999" fill="#40D98D"/>
<path d="M77 86C80.8659 86 83.9998 82.866 83.9998 79C83.9998 75.134 80.8659 72 77 72V86Z" fill="#25BB71"/>
<path d="M76.4164 74.9177C76.0943 74.9177 75.8331 75.1789 75.8331 75.5011V77.8344H73.4998C73.1777 77.8344 72.9165 78.0956 72.9165 78.4177V79.5844C72.9165 79.9065 73.1777 80.1677 73.4998 80.1677H75.8331V82.501C75.8331 82.8232 76.0943 83.0844 76.4164 83.0844H77.5831C77.9052 83.0844 78.1664 82.8232 78.1664 82.501V80.1677H80.4997C80.8218 80.1677 81.083 79.9065 81.083 79.5844V78.4177C81.083 78.0956 80.8218 77.8344 80.4997 77.8344H78.1664V75.5011C78.1664 75.1789 77.9052 74.9177 77.5831 74.9177H76.4164Z" fill="white"/>
<path d="M77 83.0844H77.5833C77.9055 83.0844 78.1666 82.8232 78.1666 82.501V80.1677H80.4999C80.8221 80.1677 81.0832 79.9065 81.0832 79.5844V78.4177C81.0832 78.0956 80.8221 77.8344 80.4999 77.8344H78.1666V75.5011C78.1666 75.1789 77.9055 74.9177 77.5833 74.9177H77V83.0844Z" fill="#E2EFFE"/>
</g>
<g clip-path="url(#clip1_44803_11650)">
<path d="M74.0001 132.822V163.641C74.0001 164.015 73.8728 164.378 73.6386 164.668L63.3775 177.402C63.0737 177.78 62.6169 178 62.1345 178H41.4797C39.7103 178 38.2704 176.542 38.2704 174.751V132.822C38.2704 130.848 36.6928 129.249 34.7402 129.249C33.8545 129.249 33.1356 128.521 33.1356 127.624C33.1356 126.728 32.2499 126 33.1356 126H67.2607C70.977 126 74.0001 129.06 74.0001 132.822Z" fill="#157DF5"/>
<path d="M73.9989 132.822V163.641C73.9989 164.015 73.8716 164.378 73.6374 164.668L63.3763 177.402C63.0725 177.78 62.6157 178 62.1332 178H55.3853V126H67.2595C70.9758 126 73.9989 129.06 73.9989 132.822Z" fill="#0965CD"/>
<path d="M38.2696 143.109H31.2093C29.4368 143.109 28 141.655 28 139.86V131.198C28 128.327 30.2989 126 33.1348 126C35.9628 126 38.2696 128.319 38.2696 131.198V143.109Z" fill="#0965CD"/>
<path d="M51.8676 163.466C51.8676 164.363 51.1487 165.09 50.263 165.09H45.7204C44.8346 165.09 44.1157 164.363 44.1157 163.466C44.1157 162.569 44.8346 161.842 45.7204 161.842H50.263C51.1487 161.842 51.8676 162.569 51.8676 163.466Z" fill="white"/>
<path d="M51.8676 169.972C51.8676 170.869 51.1487 171.596 50.263 171.596H45.7204C44.8346 171.596 44.1157 170.869 44.1157 169.972C44.1157 169.075 44.8346 168.348 45.7204 168.348H50.263C51.1487 168.348 51.8676 169.075 51.8676 169.972Z" fill="white"/>
<path d="M51.8676 156.958C51.8676 157.855 51.1487 158.583 50.263 158.583H45.7204C44.8346 158.583 44.1157 157.855 44.1157 156.958C44.1157 156.062 44.8346 155.334 45.7204 155.334H50.263C51.1487 155.334 51.8676 156.062 51.8676 156.958Z" fill="#40D98D"/>
<path d="M47.1185 134.034C44.9567 134.034 43.1965 135.795 43.1965 137.957C43.1965 140.119 44.9567 141.879 47.1185 141.879H48.4912C48.9241 141.879 49.2755 142.231 49.2755 142.664C49.2755 143.097 48.9241 143.448 48.4912 143.448H46.7784C46.2419 143.448 45.8008 143.049 45.6784 142.927C45.065 142.314 44.0734 142.314 43.46 142.927C42.8467 143.541 42.8467 144.532 43.46 145.146C43.893 145.579 45.0825 146.586 46.7784 146.586H48.4912C50.6529 146.586 52.4131 144.826 52.4131 142.664C52.4131 140.502 50.6529 138.741 48.4912 138.741H47.1185C46.6855 138.741 46.3341 138.39 46.3341 137.957C46.3341 137.524 46.6855 137.172 47.1185 137.172H48.4912C48.9681 137.172 49.343 137.497 49.343 137.497C49.9563 138.109 50.9479 138.111 51.5613 137.497C52.1747 136.884 52.1747 135.892 51.5613 135.279C51.4342 135.151 50.2654 134.034 48.4912 134.034H47.1185Z" fill="white"/>
<path fill-rule="evenodd" clip-rule="evenodd" d="M63.6209 143.645C64.5588 143.645 66.0595 142.594 66.0595 140.31C66.0595 138.027 64.5588 136.975 63.6209 136.975C62.6831 136.975 61.1823 138.027 61.1823 140.31C61.1823 142.594 62.6831 143.645 63.6209 143.645ZM63.6209 146.586C66.5918 146.586 69.0001 143.776 69.0001 140.31C69.0001 136.844 66.5918 134.034 63.6209 134.034C60.6501 134.034 58.2417 136.844 58.2417 140.31C58.2417 143.776 60.6501 146.586 63.6209 146.586Z" fill="#E2EFFE"/>
<path fill-rule="evenodd" clip-rule="evenodd" d="M59.3064 155.006C61.2143 155.118 62.9825 155.528 64.5169 156.333C65.6294 155.976 66.8019 155.781 67.9961 155.781C69.198 155.781 70.3778 155.979 71.4968 156.34C73.0303 155.536 74.7971 155.127 76.7034 155.015C78.5876 154.903 80.03 156.45 79.9995 158.205C79.9635 160.274 79.7925 161.963 79.2471 163.614C79.724 164.856 79.9923 166.201 79.9923 167.607C79.9923 171.326 78.4837 174.238 76.1506 176.187C73.8631 178.098 70.889 179 67.9962 179C65.1033 179 62.1292 178.098 59.8417 176.187C57.5086 174.238 56 171.326 56 167.607C56 166.19 56.2725 164.835 56.7563 163.585C56.2159 161.94 56.0461 160.257 56.0103 158.196M58.9075 163.643C58.3297 164.856 58 166.197 58 167.607C58 180.131 77.9923 180.131 77.9923 167.607C77.9923 166.206 77.6669 164.874 77.0962 163.667C77.7456 162.082 77.9597 160.475 77.9998 158.17C78.0112 157.512 77.4772 156.972 76.8213 157.011C74.7661 157.133 73.0474 157.631 71.6982 158.545C70.5263 158.053 69.2684 157.781 67.9961 157.781C66.7307 157.781 65.4795 158.05 64.313 158.537C62.9636 157.622 61.2444 157.124 59.1885 157.002C58.5327 156.963 57.9985 157.504 58.01 158.161C58.0499 160.459 58.2629 162.063 58.9075 163.643ZM59.3064 155.006C57.4225 154.894 55.9797 156.441 56.0103 158.196L59.3064 155.006Z" fill="white"/>
<path d="M58.0099 158.161C57.9985 157.503 58.5327 156.963 59.1884 157.002C62.1877 157.179 64.4703 158.159 65.9338 160.064C66.0596 160.228 66.0277 160.461 65.8695 160.594L60.2719 165.297C60.0854 165.454 59.8027 165.408 59.6801 165.198C58.4193 163.031 58.0629 161.204 58.0099 158.161Z" fill="#FFA099"/>
<path d="M77.9998 158.17C78.0112 157.512 77.4771 156.972 76.8213 157.011C73.822 157.188 71.5394 158.168 70.0759 160.073C69.9501 160.237 69.982 160.469 70.1402 160.602L75.7378 165.306C75.9243 165.463 76.207 165.417 76.3296 165.206C77.5905 163.039 77.9468 161.213 77.9998 158.17Z" fill="#FF7E75"/>
<path d="M77.9923 167.607C77.9923 162.18 73.1104 157.78 67.9961 157.78C62.8818 157.78 58 162.18 58 167.607C58 180.131 77.9923 180.131 77.9923 167.607Z" fill="#FFDECC"/>
<path d="M68.0034 177C73 176.998 77.995 173.867 77.995 167.607C77.995 162.181 73.1161 157.783 68.0034 157.78V177Z" fill="#FFCFB5"/>
<path d="M72.9532 169.463C72.9532 167.315 70.61 165.573 68.1551 165.573C65.7002 165.573 63.3569 167.315 63.3569 169.463C63.3569 174.421 72.9532 174.421 72.9532 169.463Z" fill="#FFA099"/>
<path d="M72.3952 163.793C72.3952 163.129 71.8581 162.592 71.1956 162.592C70.5332 162.592 69.9961 163.129 69.9961 163.793C69.9961 164.456 70.5332 164.994 71.1956 164.994C71.8581 164.994 72.3952 164.456 72.3952 163.793Z" fill="#1E203E"/>
<path d="M65.9982 163.793C65.9982 163.129 65.4611 162.592 64.7987 162.592C64.1362 162.592 63.5991 163.129 63.5991 163.793C63.5991 164.456 64.1362 164.994 64.7987 164.994C65.4611 164.994 65.9982 164.456 65.9982 163.793Z" fill="#282A52"/>
<path fill-rule="evenodd" clip-rule="evenodd" d="M66.5961 170.854C66.1544 170.854 65.7964 170.496 65.7964 170.053V169.252C65.7964 168.81 66.1544 168.452 66.5961 168.452C67.0377 168.452 67.3958 168.81 67.3958 169.252V170.053C67.3958 170.496 67.0377 170.854 66.5961 170.854Z" fill="#282A52"/>
<path d="M68.0034 173.18C70.453 173.234 72.9565 171.995 72.9565 169.463C72.9565 167.315 70.6132 165.573 68.1584 165.573C68.1067 165.573 68.055 165.574 68.0034 165.576V173.18Z" fill="#FF7E75"/>
<path fill-rule="evenodd" clip-rule="evenodd" d="M69.3959 170.854C68.9542 170.854 68.5962 170.496 68.5962 170.053V169.252C68.5962 168.81 68.9542 168.452 69.3959 168.452C69.8375 168.452 70.1956 168.81 70.1956 169.252V170.053C70.1956 170.496 69.8375 170.854 69.3959 170.854Z" fill="#1E203E"/>
<ellipse cx="76.9998" cy="175" rx="6.99984" ry="6.99999" fill="#40D98D"/>
<path d="M77 182C80.8659 182 83.9998 178.866 83.9998 175C83.9998 171.134 80.8659 168 77 168V182Z" fill="#25BB71"/>
<path d="M76.4164 170.918C76.0943 170.918 75.8331 171.179 75.8331 171.501V173.834H73.4998C73.1777 173.834 72.9165 174.096 72.9165 174.418V175.584C72.9165 175.907 73.1777 176.168 73.4998 176.168H75.8331V178.501C75.8331 178.823 76.0943 179.084 76.4164 179.084H77.5831C77.9052 179.084 78.1664 178.823 78.1664 178.501V176.168H80.4997C80.8218 176.168 81.083 175.907 81.083 175.584V174.418C81.083 174.096 80.8218 173.834 80.4997 173.834H78.1664V171.501C78.1664 171.179 77.9052 170.918 77.5831 170.918H76.4164Z" fill="white"/>
<path d="M77 179.084H77.5833C77.9055 179.084 78.1666 178.823 78.1666 178.501V176.168H80.4999C80.8221 176.168 81.0832 175.907 81.0832 175.584V174.418C81.0832 174.096 80.8221 173.834 80.4999 173.834H78.1666V171.501C78.1666 171.179 77.9055 170.918 77.5833 170.918H77V179.084Z" fill="#E2EFFE"/>
</g>
<defs>
<filter id="filter0_dd_44803_11650" x="6" y="9" width="100" height="100" filterUnits="userSpaceOnUse" color-interpolation-filters="sRGB">
<feFlood flood-opacity="0" result="BackgroundImageFix"/>
<feColorMatrix in="SourceAlpha" type="matrix" values="0 0 0 0 0 0 0 0 0 0 0 0 0 0 0 0 0 0 127 0" result="hardAlpha"/>
<feOffset dy="3"/>
<feGaussianBlur stdDeviation="5"/>
<feColorMatrix type="matrix" values="0 0 0 0 0.516667 0 0 0 0 0.578358 0 0 0 0 0.775 0 0 0 0.12 0"/>
<feBlend mode="normal" in2="BackgroundImageFix" result="effect1_dropShadow_44803_11650"/>
<feColorMatrix in="SourceAlpha" type="matrix" values="0 0 0 0 0 0 0 0 0 0 0 0 0 0 0 0 0 0 127 0" result="hardAlpha"/>
<feOffset dy="1"/>
<feGaussianBlur stdDeviation="3"/>
<feColorMatrix type="matrix" values="0 0 0 0 0.709809 0 0 0 0 0.788943 0 0 0 0 0.920833 0 0 0 0.15 0"/>
<feBlend mode="normal" in2="effect1_dropShadow_44803_11650" result="effect2_dropShadow_44803_11650"/>
<feBlend mode="normal" in="SourceGraphic" in2="effect2_dropShadow_44803_11650" result="shape"/>
</filter>
<clipPath id="clip0_44803_11650">
<rect width="56" height="56" fill="white" transform="translate(28 30)"/>
</clipPath>
<clipPath id="clip1_44803_11650">
<rect width="56" height="56" fill="white" transform="translate(28 126)"/>
</clipPath>
</defs>
</svg>
