<svg width="112" height="208" viewBox="0 0 112 208" fill="none" xmlns="http://www.w3.org/2000/svg">
<rect x="0.5" y="0.5" width="111" height="207" rx="4.5" stroke="#9747FF" stroke-dasharray="10 5"/>
<g filter="url(#filter0_d_32872_65696)">
<rect x="16" y="16" width="80" height="80" rx="8" fill="white"/>
</g>
<path d="M28 29.6406V60.4897L46.5 61.5836L47.6028 44.0699L46.5 28H29.6541C28.7406 28 28 28.7346 28 29.6406Z" fill="#F0F7FE"/>
<path d="M63.3459 28H46.5V61.5835L65 60.4896V29.6406C65 28.7346 64.2595 28 63.3459 28Z" fill="#E2EFFE"/>
<path d="M28 60.4923V76.0806C28 76.9867 28.7406 77.7213 29.6541 77.7213H46.5L47.6028 68.9368L46.5 60.4922H28V60.4923Z" fill="#157DF5"/>
<path d="M46.5 77.7212H63.3459C64.2594 77.7212 65 76.9866 65 76.0805V60.4922H46.5V77.7212Z" fill="#0965CD"/>
<path d="M57.5459 43.0938H50.8259C49.9124 43.0938 49.1719 42.3592 49.1719 41.4531C49.1719 40.5471 49.9124 39.8125 50.8259 39.8125H57.5459C58.4594 39.8125 59.2 40.5471 59.2 41.4531C59.2 42.3592 58.4594 43.0938 57.5459 43.0938Z" fill="#157DF5"/>
<path d="M57.5459 49.6562H50.8259C49.9124 49.6562 49.1719 48.9217 49.1719 48.0156C49.1719 47.1096 49.9124 46.375 50.8259 46.375H57.5459C58.4594 46.375 59.2 47.1096 59.2 48.0156C59.2 48.9217 58.4594 49.6562 57.5459 49.6562Z" fill="#1E203E"/>
<path d="M41.3625 43.4021C40.9733 43.2555 40.6221 43.1349 40.3123 43.0284C39.3445 42.6959 38.9366 42.5459 38.5595 42.1683C38.2752 41.8838 38.1493 41.537 38.2142 41.2169C38.2786 40.8993 38.5293 40.6358 38.9202 40.4748C39.5392 40.2204 40.7381 40.5866 41.5521 41.0606C42.3399 41.519 43.3534 41.2579 43.816 40.4764C44.2785 39.6949 44.0148 38.6897 43.227 38.231C42.907 38.0447 42.2341 37.6872 41.3853 37.4256V37.0625C41.3853 36.1564 40.6447 35.4219 39.7313 35.4219C38.8178 35.4219 38.0772 36.1564 38.0772 37.0625V37.2951C37.935 37.3368 37.7931 37.3861 37.6523 37.4441C36.2323 38.0286 35.2549 39.1681 34.9708 40.5705C34.6895 41.9592 35.1525 43.42 36.2096 44.4781C37.1427 45.4121 38.1095 45.7442 39.2293 46.129C39.5318 46.2329 39.8445 46.3405 40.1883 46.4698C41.2109 46.855 41.6667 47.6066 41.4078 48.4805C41.2014 49.1768 40.4949 49.6093 39.5638 49.6093C38.7972 49.6093 37.9363 49.3402 37.2609 48.8893C36.5031 48.3835 35.4753 48.5825 34.9652 49.3344C34.4552 50.086 34.656 51.1055 35.4138 51.6115C36.2113 52.1439 37.1355 52.5263 38.0771 52.7277V53.0689C38.0771 53.9749 38.8177 54.7095 39.7311 54.7095C40.6446 54.7095 41.3852 53.9749 41.3852 53.0689V52.6003C42.9294 52.0878 44.1296 50.9302 44.5814 49.406C45.334 46.8677 44.0102 44.3989 41.3625 43.4021Z" fill="#40D98D"/>
<path d="M37.4399 66.6406C36.5264 66.6406 35.7859 67.3752 35.7859 68.2812C35.7859 69.1873 36.5264 69.9219 37.4399 69.9219H46.5008L47.6036 68.2812L46.5008 66.6406H37.4399Z" fill="#F0F7FE"/>
<path d="M51.0193 66.6406H46.5008V69.9219H51.0193C51.9328 69.9219 52.6734 69.1873 52.6734 68.2812C52.6734 67.3752 51.9329 66.6406 51.0193 66.6406Z" fill="#E2EFFE"/>
<rect x="70.5" y="59" width="9" height="21" fill="#B6D7FC"/>
<rect x="61.5" y="59" width="9" height="21" fill="#E2EFFE"/>
<path d="M79.5 57H61.5C60.6735 57 60 57.6735 60 58.5V79.5C60 80.328 60.6735 81 61.5 81H79.5C80.328 81 81 80.328 81 79.5V58.5C81 57.6735 80.328 57 79.5 57ZM66 77C66 77.5523 65.5523 78 65 78H64C63.4477 78 63 77.5523 63 77V76C63 75.4477 63.4477 75 64 75H65C65.5523 75 66 75.4477 66 76V77ZM66 71C66 71.5523 65.5523 72 65 72H64C63.4477 72 63 71.5523 63 71V70C63 69.4477 63.4477 69 64 69H65C65.5523 69 66 69.4477 66 70V71ZM72 77C72 77.5523 71.5523 78 71 78H70C69.4477 78 69 77.5523 69 77V76C69 75.4477 69.4477 75 70 75H71C71.5523 75 72 75.4477 72 76V77ZM72 71C72 71.5523 71.5523 72 71 72H70C69.4477 72 69 71.5523 69 71V70C69 69.4477 69.4477 69 70 69H71C71.5523 69 72 69.4477 72 70V71ZM78 77C78 77.5523 77.5523 78 77 78H76C75.4477 78 75 77.5523 75 77V70C75 69.4477 75.4477 69 76 69H77C77.5523 69 78 69.4477 78 70V77ZM78 65.25C78 65.664 77.664 66 77.25 66H63.75C63.336 66 63 65.664 63 65.25V60.75C63 60.336 63.336 60 63.75 60H77.25C77.664 60 78 60.336 78 60.75V65.25Z" fill="#157DF5"/>
<path fill-rule="evenodd" clip-rule="evenodd" d="M61.5 54H79.5C81.9868 54 84 56.0186 84 58.5V79.5C84 81.9849 81.9849 84 79.5 84H61.5C59.0186 84 57 81.9868 57 79.5V58.5C57 56.0166 59.0166 54 61.5 54ZM61.5 57H79.5C80.328 57 81 57.6735 81 58.5V79.5C81 80.328 80.328 81 79.5 81H61.5C60.6735 81 60 80.328 60 79.5V58.5C60 57.6735 60.6735 57 61.5 57Z" fill="white"/>
<path fill-rule="evenodd" clip-rule="evenodd" d="M70.5 57V60H77.25C77.664 60 78 60.336 78 60.75V65.25C78 65.664 77.664 66 77.25 66H70.5V69H71C71.5523 69 72 69.4477 72 70V71C72 71.5523 71.5523 72 71 72H70.5V75H71C71.5523 75 72 75.4477 72 76V77C72 77.5523 71.5523 78 71 78H70.5V81H79.5C80.328 81 81 80.328 81 79.5V58.5C81 57.6735 80.328 57 79.5 57H70.5ZM75 77C75 77.5523 75.4477 78 76 78H77C77.5523 78 78 77.5523 78 77V70C78 69.4477 77.5523 69 77 69H76C75.4477 69 75 69.4477 75 70V77Z" fill="#0965CD"/>
<path d="M28 125.641V156.49L46.5 157.584L47.6028 140.07L46.5 124H29.6541C28.7406 124 28 124.735 28 125.641Z" fill="#F0F7FE"/>
<path d="M63.3459 124H46.5V157.583L65 156.49V125.641C65 124.735 64.2595 124 63.3459 124Z" fill="#E2EFFE"/>
<path d="M28 156.492V172.081C28 172.987 28.7406 173.721 29.6541 173.721H46.5L47.6028 164.937L46.5 156.492H28V156.492Z" fill="#157DF5"/>
<path d="M46.5 173.721H63.3459C64.2594 173.721 65 172.987 65 172.081V156.492H46.5V173.721Z" fill="#0965CD"/>
<path d="M57.5459 139.094H50.8259C49.9124 139.094 49.1719 138.359 49.1719 137.453C49.1719 136.547 49.9124 135.812 50.8259 135.812H57.5459C58.4594 135.812 59.2 136.547 59.2 137.453C59.2 138.359 58.4594 139.094 57.5459 139.094Z" fill="#157DF5"/>
<path d="M57.5459 145.656H50.8259C49.9124 145.656 49.1719 144.922 49.1719 144.016C49.1719 143.11 49.9124 142.375 50.8259 142.375H57.5459C58.4594 142.375 59.2 143.11 59.2 144.016C59.2 144.922 58.4594 145.656 57.5459 145.656Z" fill="#1E203E"/>
<path d="M41.3625 139.402C40.9733 139.256 40.6221 139.135 40.3123 139.028C39.3445 138.696 38.9366 138.546 38.5595 138.168C38.2752 137.884 38.1493 137.537 38.2142 137.217C38.2786 136.899 38.5293 136.636 38.9202 136.475C39.5392 136.22 40.7381 136.587 41.5521 137.061C42.3399 137.519 43.3534 137.258 43.816 136.476C44.2785 135.695 44.0148 134.69 43.227 134.231C42.907 134.045 42.2341 133.687 41.3853 133.426V133.062C41.3853 132.156 40.6447 131.422 39.7313 131.422C38.8178 131.422 38.0772 132.156 38.0772 133.062V133.295C37.935 133.337 37.7931 133.386 37.6523 133.444C36.2323 134.029 35.2549 135.168 34.9708 136.57C34.6895 137.959 35.1525 139.42 36.2096 140.478C37.1427 141.412 38.1095 141.744 39.2293 142.129C39.5318 142.233 39.8445 142.34 40.1883 142.47C41.2109 142.855 41.6667 143.607 41.4078 144.48C41.2014 145.177 40.4949 145.609 39.5638 145.609C38.7972 145.609 37.9363 145.34 37.2609 144.889C36.5031 144.383 35.4753 144.583 34.9652 145.334C34.4552 146.086 34.656 147.105 35.4138 147.611C36.2113 148.144 37.1355 148.526 38.0771 148.728V149.069C38.0771 149.975 38.8177 150.71 39.7311 150.71C40.6446 150.71 41.3852 149.975 41.3852 149.069V148.6C42.9294 148.088 44.1296 146.93 44.5814 145.406C45.334 142.868 44.0102 140.399 41.3625 139.402Z" fill="#40D98D"/>
<path d="M37.4399 162.641C36.5264 162.641 35.7859 163.375 35.7859 164.281C35.7859 165.187 36.5264 165.922 37.4399 165.922H46.5008L47.6036 164.281L46.5008 162.641H37.4399Z" fill="#F0F7FE"/>
<path d="M51.0193 162.641H46.5008V165.922H51.0193C51.9328 165.922 52.6734 165.187 52.6734 164.281C52.6734 163.375 51.9329 162.641 51.0193 162.641Z" fill="#E2EFFE"/>
<rect x="70.5" y="155" width="9" height="21" fill="#B6D7FC"/>
<rect x="61.5" y="155" width="9" height="21" fill="#E2EFFE"/>
<path d="M79.5 153H61.5C60.6735 153 60 153.674 60 154.5V175.5C60 176.328 60.6735 177 61.5 177H79.5C80.328 177 81 176.328 81 175.5V154.5C81 153.674 80.328 153 79.5 153ZM66 173C66 173.552 65.5523 174 65 174H64C63.4477 174 63 173.552 63 173V172C63 171.448 63.4477 171 64 171H65C65.5523 171 66 171.448 66 172V173ZM66 167C66 167.552 65.5523 168 65 168H64C63.4477 168 63 167.552 63 167V166C63 165.448 63.4477 165 64 165H65C65.5523 165 66 165.448 66 166V167ZM72 173C72 173.552 71.5523 174 71 174H70C69.4477 174 69 173.552 69 173V172C69 171.448 69.4477 171 70 171H71C71.5523 171 72 171.448 72 172V173ZM72 167C72 167.552 71.5523 168 71 168H70C69.4477 168 69 167.552 69 167V166C69 165.448 69.4477 165 70 165H71C71.5523 165 72 165.448 72 166V167ZM78 173C78 173.552 77.5523 174 77 174H76C75.4477 174 75 173.552 75 173V166C75 165.448 75.4477 165 76 165H77C77.5523 165 78 165.448 78 166V173ZM78 161.25C78 161.664 77.664 162 77.25 162H63.75C63.336 162 63 161.664 63 161.25V156.75C63 156.336 63.336 156 63.75 156H77.25C77.664 156 78 156.336 78 156.75V161.25Z" fill="#157DF5"/>
<path fill-rule="evenodd" clip-rule="evenodd" d="M61.5 150H79.5C81.9868 150 84 152.019 84 154.5V175.5C84 177.985 81.9849 180 79.5 180H61.5C59.0186 180 57 177.987 57 175.5V154.5C57 152.017 59.0166 150 61.5 150ZM61.5 153H79.5C80.328 153 81 153.674 81 154.5V175.5C81 176.328 80.328 177 79.5 177H61.5C60.6735 177 60 176.328 60 175.5V154.5C60 153.674 60.6735 153 61.5 153Z" fill="white"/>
<path fill-rule="evenodd" clip-rule="evenodd" d="M70.5 153V156H77.25C77.664 156 78 156.336 78 156.75V161.25C78 161.664 77.664 162 77.25 162H70.5V165H71C71.5523 165 72 165.448 72 166V167C72 167.552 71.5523 168 71 168H70.5V171H71C71.5523 171 72 171.448 72 172V173C72 173.552 71.5523 174 71 174H70.5V177H79.5C80.328 177 81 176.328 81 175.5V154.5C81 153.674 80.328 153 79.5 153H70.5ZM75 173C75 173.552 75.4477 174 76 174H77C77.5523 174 78 173.552 78 173V166C78 165.448 77.5523 165 77 165H76C75.4477 165 75 165.448 75 166V173Z" fill="#0965CD"/>
<defs>
<filter id="filter0_d_32872_65696" x="10" y="9" width="96" height="96" filterUnits="userSpaceOnUse" color-interpolation-filters="sRGB">
<feFlood flood-opacity="0" result="BackgroundImageFix"/>
<feColorMatrix in="SourceAlpha" type="matrix" values="0 0 0 0 0 0 0 0 0 0 0 0 0 0 0 0 0 0 127 0" result="hardAlpha"/>
<feOffset dx="2" dy="1"/>
<feGaussianBlur stdDeviation="4"/>
<feColorMatrix type="matrix" values="0 0 0 0 0.0392157 0 0 0 0 0.0392157 0 0 0 0 0.0627451 0 0 0 0.08 0"/>
<feBlend mode="normal" in2="BackgroundImageFix" result="effect1_dropShadow_32872_65696"/>
<feBlend mode="normal" in="SourceGraphic" in2="effect1_dropShadow_32872_65696" result="shape"/>
</filter>
</defs>
</svg>
