<svg width="112" height="208" viewBox="0 0 112 208" fill="none" xmlns="http://www.w3.org/2000/svg">
<rect x="0.5" y="0.5" width="111" height="207" rx="4.5" stroke="#9747FF" stroke-dasharray="10 5"/>
<g filter="url(#filter0_d_12201_60173)">
<rect x="16" y="16" width="80" height="80" rx="8" fill="white"/>
</g>
<path d="M74.8501 75.9986H29.1483C28.5141 75.9986 28 75.4885 28 74.8591V33.6669C28 33.0375 28.5141 32.5273 29.1483 32.5273H74.8501C75.4843 32.5273 75.9983 33.0375 75.9983 33.6669V74.859C75.9983 75.4884 75.4843 75.9986 74.8501 75.9986Z" fill="#E2EFFE"/>
<path d="M52.4531 75.9986H75.0246C75.563 75.9986 75.9995 75.5557 75.9995 75.0094V33.4534C75.9995 32.9419 75.5909 32.5273 75.0868 32.5273H52.4531V75.9986Z" fill="#B6D7FC"/>
<path d="M74.7765 32.5273H29.2219C28.5471 32.5273 28 33.1239 28 33.8598V43.3952H75.9983V33.8598C75.9983 33.124 75.4513 32.5273 74.7765 32.5273Z" fill="#157DF5"/>
<path d="M74.8044 32.5273H52.4531V43.3952H75.9995V33.8598C75.9995 33.124 75.4645 32.5273 74.8044 32.5273Z" fill="#0965CD"/>
<path d="M69.6359 38.0326C68.7301 38.0326 67.9959 37.3676 67.9959 36.5472V29.4854C67.9958 28.665 68.73 28 69.6359 28C70.5417 28 71.2758 28.665 71.2758 29.4854V36.5473C71.2758 37.3676 70.5416 38.0326 69.6359 38.0326Z" fill="#1E203E"/>
<path d="M35.6398 38.0326C34.734 38.0326 33.9998 37.3676 33.9998 36.5472V29.4854C33.9997 28.665 34.7339 28 35.6398 28C36.5456 28 37.2797 28.665 37.2797 29.4854V36.5473C37.2797 37.3676 36.5455 38.0326 35.6398 38.0326Z" fill="#1E203E"/>
<path d="M52.45 38.0197C51.5456 38.0197 50.8125 37.3555 50.8125 36.5362V29.4835C50.8125 28.6642 51.5456 28 52.45 28C53.3544 28 54.0876 28.6642 54.0876 29.4835V36.5362C54.0876 37.3555 53.3544 38.0197 52.45 38.0197Z" fill="#282A52"/>
<path d="M52.4552 28.0039C52.4545 28.0039 52.4538 28.004 52.4531 28.004V38.0235C52.4538 38.0235 52.4545 38.0236 52.4552 38.0236C53.3596 38.0236 54.0927 37.3594 54.0927 36.5401V29.4874C54.0927 28.6681 53.3596 28.0039 52.4552 28.0039Z" fill="#1E203E"/>
<path d="M35.8748 59.8687C35.8748 58.2672 37.173 56.957 38.7745 56.957H40.1956C41.7971 56.957 43.0954 58.2672 43.0954 59.8687C43.0954 61.4702 41.7971 62.7803 40.1956 62.7803H38.7745C37.173 62.7803 35.8748 61.4702 35.8748 59.8687Z" fill="#40D98D"/>
<path d="M69.4267 48.1758H35.6189C34.7378 48.1758 34.0234 48.8843 34.0234 49.7582V70.3083C34.0234 71.1823 34.7378 71.8908 35.6189 71.8908H69.4267C70.3078 71.8908 71.0222 71.1823 71.0222 70.3083V49.7582C71.0222 48.8843 70.3078 48.1758 69.4267 48.1758ZM37.2144 59.0963C37.2144 58.5962 37.6199 58.1907 38.1201 58.1907H41.5697C42.0698 58.1907 42.4753 58.5962 42.4753 59.0963V60.9702C42.4753 61.4704 42.0698 61.8759 41.5697 61.8759H38.1201C37.6199 61.8759 37.2144 61.4704 37.2144 60.9702V59.0963ZM45.6663 59.0963C45.6663 58.5962 46.0717 58.1907 46.5719 58.1907H50.0215C50.5217 58.1907 50.9272 58.5962 50.9272 59.0963V60.9702C50.9272 61.4704 50.5217 61.8759 50.0215 61.8759H46.5719C46.0717 61.8759 45.6663 61.4704 45.6663 60.9702V59.0963ZM50.9273 54.1202C50.9273 54.6204 50.5218 55.0258 50.0216 55.0258H46.572C46.0719 55.0258 45.6664 54.6204 45.6664 54.1202V52.2464C45.6664 51.7462 46.0718 51.3407 46.572 51.3407H50.0216C50.5218 51.3407 50.9273 51.7462 50.9273 52.2464V54.1202ZM54.1182 52.2464C54.1182 51.7462 54.5237 51.3407 55.0239 51.3407H58.4735C58.9737 51.3407 59.3791 51.7462 59.3791 52.2464V54.1202C59.3791 54.6204 58.9737 55.0258 58.4735 55.0258H55.0239C54.5237 55.0258 54.1182 54.6204 54.1182 54.1202V52.2464ZM50.0216 65.0408C50.5218 65.0408 50.9273 65.4463 50.9273 65.9465V67.8203C50.9273 68.3204 50.5218 68.7259 50.0216 68.7259H46.572C46.0719 68.7259 45.6664 68.3204 45.6664 67.8203V65.9465C45.6664 65.4463 46.0718 65.0408 46.572 65.0408H50.0216ZM54.1182 65.9465C54.1182 65.4463 54.5237 65.0408 55.0239 65.0408H58.4735C58.9737 65.0408 59.3791 65.4463 59.3791 65.9465V67.8203C59.3791 68.3204 58.9737 68.7259 58.4735 68.7259H55.0239C54.5237 68.7259 54.1182 68.3204 54.1182 67.8203V65.9465ZM55.0239 61.876C54.5237 61.876 54.1182 61.4705 54.1182 60.9703V59.0964C54.1182 58.5963 54.5237 58.1908 55.0239 58.1908H58.4735C58.9737 58.1908 59.3791 58.5963 59.3791 59.0964V60.9703C59.3791 61.4705 58.9737 61.876 58.4735 61.876H55.0239ZM62.5702 59.0963C62.5702 58.5962 62.9757 58.1907 63.4758 58.1907H66.9256C67.4257 58.1907 67.8312 58.5962 67.8312 59.0963V60.9702C67.8312 61.4704 67.4257 61.8759 66.9256 61.8759H63.4758C62.9757 61.8759 62.5702 61.4704 62.5702 60.9702V59.0963ZM67.8311 54.1202C67.8311 54.6204 67.4256 55.0258 66.9255 55.0258H63.4757C62.9756 55.0258 62.5701 54.6204 62.5701 54.1202V52.2464C62.5701 51.7462 62.9756 51.3407 63.4757 51.3407H66.9255C67.4256 51.3407 67.8311 51.7462 67.8311 52.2464V54.1202ZM41.5697 51.3407C42.0698 51.3407 42.4753 51.7462 42.4753 52.2464V54.1202C42.4753 54.6204 42.0698 55.0258 41.5697 55.0258H38.1201C37.6199 55.0258 37.2144 54.6204 37.2144 54.1202V52.2464C37.2144 51.7462 37.6199 51.3407 38.1201 51.3407H41.5697ZM37.2144 65.9465C37.2144 65.4463 37.6199 65.0408 38.1201 65.0408H41.5697C42.0698 65.0408 42.4753 65.4463 42.4753 65.9465V67.8203C42.4753 68.3204 42.0698 68.7259 41.5697 68.7259H38.1201C37.6199 68.7259 37.2144 68.3204 37.2144 67.8203V65.9465ZM63.4758 68.7259C62.9757 68.7259 62.5702 68.3204 62.5702 67.8203V65.9465C62.5702 65.4463 62.9757 65.0408 63.4758 65.0408H66.9256C67.4257 65.0408 67.8312 65.4463 67.8312 65.9465V67.8203C67.8312 68.3204 67.4257 68.7259 66.9256 68.7259H63.4758Z" fill="white"/>
<path d="M69.423 48.1758H52.4492L52.4493 71.8909H69.423C70.3042 71.8909 71.0186 71.1824 71.0186 70.3084V49.7582C71.0186 48.8843 70.3042 48.1758 69.423 48.1758ZM59.3747 67.8203C59.3747 68.3204 58.9692 68.7259 58.4691 68.7259H55.0191C54.5189 68.7259 54.1134 68.3204 54.1134 67.8203V65.9465C54.1134 65.4463 54.5189 65.0408 55.0191 65.0408H58.4691C58.9692 65.0408 59.3747 65.4463 59.3747 65.9465V67.8203ZM59.3747 60.9703C59.3747 61.4705 58.9692 61.876 58.4691 61.876H55.0191C54.5189 61.876 54.1134 61.4705 54.1134 60.9703V59.0964C54.1134 58.5963 54.5189 58.1908 55.0191 58.1908H58.4691C58.9692 58.1908 59.3747 58.5963 59.3747 59.0964V60.9703ZM59.3747 54.1202C59.3747 54.6204 58.9692 55.0258 58.4691 55.0258H55.0191C54.5189 55.0258 54.1134 54.6204 54.1134 54.1202V52.2464C54.1134 51.7462 54.5189 51.3407 55.0191 51.3407H58.4691C58.9692 51.3407 59.3747 51.7462 59.3747 52.2464V54.1202ZM67.8273 67.8203C67.8273 68.3204 67.4218 68.7259 66.9216 68.7259H63.4716C62.9714 68.7259 62.5659 68.3204 62.5659 67.8203V65.9465C62.5659 65.4463 62.9714 65.0408 63.4716 65.0408H66.9216C67.4218 65.0408 67.8273 65.4463 67.8273 65.9465V67.8203ZM67.8273 60.9703C67.8273 61.4705 67.4218 61.876 66.9216 61.876H63.4716C62.9714 61.876 62.5659 61.4705 62.5659 60.9703V59.0964C62.5659 58.5963 62.9714 58.1908 63.4716 58.1908H66.9216C67.4218 58.1908 67.8273 58.5963 67.8273 59.0964V60.9703ZM67.8273 54.1202C67.8273 54.6204 67.4218 55.0258 66.9216 55.0258H63.4716C62.9714 55.0258 62.5659 54.6204 62.5659 54.1202V52.2464C62.5659 51.7462 62.9714 51.3407 63.4716 51.3407H66.9216C67.4218 51.3407 67.8273 51.7462 67.8273 52.2464V54.1202Z" fill="#E2EFFE"/>
<path d="M81 69C81 72.1926 79.7606 75.1973 77.5102 77.4609C75.261 79.7227 72.2671 80.9794 69.0787 80.9995C69.0708 80.9995 69.0623 81 69.0544 80.9995C69.0365 81 69.0183 81 69 81C65.7952 81 62.7816 79.7522 60.5151 77.4853C58.2483 75.2189 57 72.2053 57 69C57 65.7947 58.2483 62.7816 60.5151 60.5147C62.7816 58.2483 65.7952 57 69 57C69.0183 57 69.0361 57 69.0544 57.0005C69.0628 57.0005 69.0712 57.0005 69.0796 57.0009C72.2676 57.0216 75.2616 58.2778 77.5102 60.5395C79.7606 62.8031 81 65.8078 81 69Z" fill="#F3263D"/>
<path d="M81.0003 69.0003C81.0003 72.1929 79.7609 75.1976 77.5105 77.4612C75.2614 79.7229 72.2675 80.9797 69.0791 80.9998C69.0711 80.9998 69.0627 81.0003 69.0547 80.9998V57.0007C69.0631 57.0007 69.0716 57.0007 69.08 57.0012C72.2679 57.0218 75.2619 58.2781 77.5105 60.5398C79.7609 62.8034 81.0003 65.8081 81.0003 69.0003Z" fill="#F54B5E"/>
<path d="M71.0575 64.05V69.4143C71.0575 70.5168 70.1608 71.4141 69.0583 71.4141H69.0532C68.538 71.399 68.0065 71.1909 67.6441 70.8285C67.2668 70.4507 67.0586 69.9487 67.0586 69.4143V64.05C67.0586 62.9596 67.9638 62.0817 69.0532 62.0503H69.0583C70.1608 62.0503 71.0575 62.9474 71.0575 64.05Z" fill="white"/>
<path d="M70.9531 73.947C70.9531 74.991 70.1042 75.8398 69.0603 75.8398H69.0557C68.0145 75.8375 67.168 74.9895 67.168 73.947C67.168 72.905 68.0145 72.0571 69.0557 72.0547H69.0603C70.1042 72.0547 70.9531 72.9036 70.9531 73.947Z" fill="white"/>
<path d="M70.9521 73.947C70.9521 74.991 70.1032 75.8398 69.0593 75.8398H69.0547V72.0547H69.0593C70.1032 72.0547 70.9521 72.9036 70.9521 73.947Z" fill="#F0F7FE"/>
<path d="M71.0591 64.05V69.4143C71.0591 70.5168 70.1623 71.4141 69.0598 71.4141H69.0547V62.0503H69.0598C70.1623 62.0503 71.0591 62.9474 71.0591 64.05Z" fill="#F0F7FE"/>
<path fill-rule="evenodd" clip-rule="evenodd" d="M84 69C84 77.2843 77.2843 84 69 84C60.7157 84 54 77.2843 54 69C54 60.7157 60.7157 54 69 54C77.2843 54 84 60.7157 84 69ZM69 81C75.6274 81 81 75.6274 81 69C81 62.3726 75.6274 57 69 57C62.3726 57 57 62.3726 57 69C57 75.6274 62.3726 81 69 81Z" fill="white"/>
<path d="M74.8501 171.999H29.1483C28.5141 171.999 28 171.488 28 170.859V129.667C28 129.038 28.5141 128.527 29.1483 128.527H74.8501C75.4843 128.527 75.9983 129.038 75.9983 129.667V170.859C75.9983 171.488 75.4843 171.999 74.8501 171.999Z" fill="#E2EFFE"/>
<path d="M52.4531 171.999H75.0246C75.563 171.999 75.9995 171.556 75.9995 171.009V129.453C75.9995 128.942 75.5909 128.527 75.0868 128.527H52.4531V171.999Z" fill="#B6D7FC"/>
<path d="M74.7765 128.527H29.2219C28.5471 128.527 28 129.124 28 129.86V139.395H75.9983V129.86C75.9983 129.124 75.4513 128.527 74.7765 128.527Z" fill="#157DF5"/>
<path d="M74.8044 128.527H52.4531V139.395H75.9995V129.86C75.9995 129.124 75.4645 128.527 74.8044 128.527Z" fill="#0965CD"/>
<path d="M69.6359 134.033C68.7301 134.033 67.9959 133.368 67.9959 132.547V125.485C67.9958 124.665 68.73 124 69.6359 124C70.5417 124 71.2758 124.665 71.2758 125.485V132.547C71.2758 133.368 70.5416 134.033 69.6359 134.033Z" fill="#1E203E"/>
<path d="M35.6398 134.033C34.734 134.033 33.9998 133.368 33.9998 132.547V125.485C33.9997 124.665 34.7339 124 35.6398 124C36.5456 124 37.2797 124.665 37.2797 125.485V132.547C37.2797 133.368 36.5455 134.033 35.6398 134.033Z" fill="#1E203E"/>
<path d="M52.45 134.02C51.5456 134.02 50.8125 133.355 50.8125 132.536V125.484C50.8125 124.664 51.5456 124 52.45 124C53.3544 124 54.0876 124.664 54.0876 125.484V132.536C54.0876 133.355 53.3544 134.02 52.45 134.02Z" fill="#282A52"/>
<path d="M52.4552 124.004C52.4545 124.004 52.4538 124.004 52.4531 124.004V134.023C52.4538 134.023 52.4545 134.024 52.4552 134.024C53.3596 134.024 54.0927 133.359 54.0927 132.54V125.487C54.0927 124.668 53.3596 124.004 52.4552 124.004Z" fill="#1E203E"/>
<path d="M35.8748 155.869C35.8748 154.267 37.173 152.957 38.7745 152.957H40.1956C41.7971 152.957 43.0954 154.267 43.0954 155.869C43.0954 157.47 41.7971 158.78 40.1956 158.78H38.7745C37.173 158.78 35.8748 157.47 35.8748 155.869Z" fill="#40D98D"/>
<path d="M69.4267 144.176H35.6189C34.7378 144.176 34.0234 144.884 34.0234 145.758V166.308C34.0234 167.182 34.7378 167.891 35.6189 167.891H69.4267C70.3078 167.891 71.0222 167.182 71.0222 166.308V145.758C71.0222 144.884 70.3078 144.176 69.4267 144.176ZM37.2144 155.096C37.2144 154.596 37.6199 154.191 38.1201 154.191H41.5697C42.0698 154.191 42.4753 154.596 42.4753 155.096V156.97C42.4753 157.47 42.0698 157.876 41.5697 157.876H38.1201C37.6199 157.876 37.2144 157.47 37.2144 156.97V155.096ZM45.6663 155.096C45.6663 154.596 46.0717 154.191 46.5719 154.191H50.0215C50.5217 154.191 50.9272 154.596 50.9272 155.096V156.97C50.9272 157.47 50.5217 157.876 50.0215 157.876H46.5719C46.0717 157.876 45.6663 157.47 45.6663 156.97V155.096ZM50.9273 150.12C50.9273 150.62 50.5218 151.026 50.0216 151.026H46.572C46.0719 151.026 45.6664 150.62 45.6664 150.12V148.246C45.6664 147.746 46.0718 147.341 46.572 147.341H50.0216C50.5218 147.341 50.9273 147.746 50.9273 148.246V150.12ZM54.1182 148.246C54.1182 147.746 54.5237 147.341 55.0239 147.341H58.4735C58.9737 147.341 59.3791 147.746 59.3791 148.246V150.12C59.3791 150.62 58.9737 151.026 58.4735 151.026H55.0239C54.5237 151.026 54.1182 150.62 54.1182 150.12V148.246ZM50.0216 161.041C50.5218 161.041 50.9273 161.446 50.9273 161.946V163.82C50.9273 164.32 50.5218 164.726 50.0216 164.726H46.572C46.0719 164.726 45.6664 164.32 45.6664 163.82V161.946C45.6664 161.446 46.0718 161.041 46.572 161.041H50.0216ZM54.1182 161.946C54.1182 161.446 54.5237 161.041 55.0239 161.041H58.4735C58.9737 161.041 59.3791 161.446 59.3791 161.946V163.82C59.3791 164.32 58.9737 164.726 58.4735 164.726H55.0239C54.5237 164.726 54.1182 164.32 54.1182 163.82V161.946ZM55.0239 157.876C54.5237 157.876 54.1182 157.47 54.1182 156.97V155.096C54.1182 154.596 54.5237 154.191 55.0239 154.191H58.4735C58.9737 154.191 59.3791 154.596 59.3791 155.096V156.97C59.3791 157.47 58.9737 157.876 58.4735 157.876H55.0239ZM62.5702 155.096C62.5702 154.596 62.9757 154.191 63.4758 154.191H66.9256C67.4257 154.191 67.8312 154.596 67.8312 155.096V156.97C67.8312 157.47 67.4257 157.876 66.9256 157.876H63.4758C62.9757 157.876 62.5702 157.47 62.5702 156.97V155.096ZM67.8311 150.12C67.8311 150.62 67.4256 151.026 66.9255 151.026H63.4757C62.9756 151.026 62.5701 150.62 62.5701 150.12V148.246C62.5701 147.746 62.9756 147.341 63.4757 147.341H66.9255C67.4256 147.341 67.8311 147.746 67.8311 148.246V150.12ZM41.5697 147.341C42.0698 147.341 42.4753 147.746 42.4753 148.246V150.12C42.4753 150.62 42.0698 151.026 41.5697 151.026H38.1201C37.6199 151.026 37.2144 150.62 37.2144 150.12V148.246C37.2144 147.746 37.6199 147.341 38.1201 147.341H41.5697ZM37.2144 161.946C37.2144 161.446 37.6199 161.041 38.1201 161.041H41.5697C42.0698 161.041 42.4753 161.446 42.4753 161.946V163.82C42.4753 164.32 42.0698 164.726 41.5697 164.726H38.1201C37.6199 164.726 37.2144 164.32 37.2144 163.82V161.946ZM63.4758 164.726C62.9757 164.726 62.5702 164.32 62.5702 163.82V161.946C62.5702 161.446 62.9757 161.041 63.4758 161.041H66.9256C67.4257 161.041 67.8312 161.446 67.8312 161.946V163.82C67.8312 164.32 67.4257 164.726 66.9256 164.726H63.4758Z" fill="white"/>
<path d="M69.423 144.176H52.4492L52.4493 167.891H69.423C70.3042 167.891 71.0186 167.182 71.0186 166.308V145.758C71.0186 144.884 70.3042 144.176 69.423 144.176ZM59.3747 163.82C59.3747 164.32 58.9692 164.726 58.4691 164.726H55.0191C54.5189 164.726 54.1134 164.32 54.1134 163.82V161.946C54.1134 161.446 54.5189 161.041 55.0191 161.041H58.4691C58.9692 161.041 59.3747 161.446 59.3747 161.946V163.82ZM59.3747 156.97C59.3747 157.47 58.9692 157.876 58.4691 157.876H55.0191C54.5189 157.876 54.1134 157.47 54.1134 156.97V155.096C54.1134 154.596 54.5189 154.191 55.0191 154.191H58.4691C58.9692 154.191 59.3747 154.596 59.3747 155.096V156.97ZM59.3747 150.12C59.3747 150.62 58.9692 151.026 58.4691 151.026H55.0191C54.5189 151.026 54.1134 150.62 54.1134 150.12V148.246C54.1134 147.746 54.5189 147.341 55.0191 147.341H58.4691C58.9692 147.341 59.3747 147.746 59.3747 148.246V150.12ZM67.8273 163.82C67.8273 164.32 67.4218 164.726 66.9216 164.726H63.4716C62.9714 164.726 62.5659 164.32 62.5659 163.82V161.946C62.5659 161.446 62.9714 161.041 63.4716 161.041H66.9216C67.4218 161.041 67.8273 161.446 67.8273 161.946V163.82ZM67.8273 156.97C67.8273 157.47 67.4218 157.876 66.9216 157.876H63.4716C62.9714 157.876 62.5659 157.47 62.5659 156.97V155.096C62.5659 154.596 62.9714 154.191 63.4716 154.191H66.9216C67.4218 154.191 67.8273 154.596 67.8273 155.096V156.97ZM67.8273 150.12C67.8273 150.62 67.4218 151.026 66.9216 151.026H63.4716C62.9714 151.026 62.5659 150.62 62.5659 150.12V148.246C62.5659 147.746 62.9714 147.341 63.4716 147.341H66.9216C67.4218 147.341 67.8273 147.746 67.8273 148.246V150.12Z" fill="#E2EFFE"/>
<path d="M81 165C81 168.193 79.7606 171.197 77.5102 173.461C75.261 175.723 72.2671 176.979 69.0787 177C69.0708 177 69.0623 177 69.0544 177C69.0365 177 69.0183 177 69 177C65.7952 177 62.7816 175.752 60.5151 173.485C58.2483 171.219 57 168.205 57 165C57 161.795 58.2483 158.782 60.5151 156.515C62.7816 154.248 65.7952 153 69 153C69.0183 153 69.0361 153 69.0544 153C69.0628 153 69.0712 153 69.0796 153.001C72.2676 153.022 75.2616 154.278 77.5102 156.54C79.7606 158.803 81 161.808 81 165Z" fill="#F3263D"/>
<path d="M81.0003 165C81.0003 168.193 79.7609 171.198 77.5105 173.461C75.2614 175.723 72.2675 176.98 69.0791 177C69.0711 177 69.0627 177 69.0547 177V153.001C69.0631 153.001 69.0716 153.001 69.08 153.001C72.2679 153.022 75.2619 154.278 77.5105 156.54C79.7609 158.803 81.0003 161.808 81.0003 165Z" fill="#F54B5E"/>
<path d="M71.0575 160.05V165.414C71.0575 166.517 70.1608 167.414 69.0583 167.414H69.0532C68.538 167.399 68.0065 167.191 67.6441 166.829C67.2668 166.451 67.0586 165.949 67.0586 165.414V160.05C67.0586 158.96 67.9638 158.082 69.0532 158.05H69.0583C70.1608 158.05 71.0575 158.947 71.0575 160.05Z" fill="white"/>
<path d="M70.9531 169.947C70.9531 170.991 70.1042 171.84 69.0603 171.84H69.0557C68.0145 171.838 67.168 170.99 67.168 169.947C67.168 168.905 68.0145 168.057 69.0557 168.055H69.0603C70.1042 168.055 70.9531 168.904 70.9531 169.947Z" fill="white"/>
<path d="M70.9521 169.947C70.9521 170.991 70.1032 171.84 69.0593 171.84H69.0547V168.055H69.0593C70.1032 168.055 70.9521 168.904 70.9521 169.947Z" fill="#F0F7FE"/>
<path d="M71.0591 160.05V165.414C71.0591 166.517 70.1623 167.414 69.0598 167.414H69.0547V158.05H69.0598C70.1623 158.05 71.0591 158.947 71.0591 160.05Z" fill="#F0F7FE"/>
<path fill-rule="evenodd" clip-rule="evenodd" d="M84 165C84 173.284 77.2843 180 69 180C60.7157 180 54 173.284 54 165C54 156.716 60.7157 150 69 150C77.2843 150 84 156.716 84 165ZM69 177C75.6274 177 81 171.627 81 165C81 158.373 75.6274 153 69 153C62.3726 153 57 158.373 57 165C57 171.627 62.3726 177 69 177Z" fill="white"/>
<defs>
<filter id="filter0_d_12201_60173" x="10" y="9" width="96" height="96" filterUnits="userSpaceOnUse" color-interpolation-filters="sRGB">
<feFlood flood-opacity="0" result="BackgroundImageFix"/>
<feColorMatrix in="SourceAlpha" type="matrix" values="0 0 0 0 0 0 0 0 0 0 0 0 0 0 0 0 0 0 127 0" result="hardAlpha"/>
<feOffset dx="2" dy="1"/>
<feGaussianBlur stdDeviation="4"/>
<feColorMatrix type="matrix" values="0 0 0 0 0.0392157 0 0 0 0 0.0392157 0 0 0 0 0.0627451 0 0 0 0.08 0"/>
<feBlend mode="normal" in2="BackgroundImageFix" result="effect1_dropShadow_12201_60173"/>
<feBlend mode="normal" in="SourceGraphic" in2="effect1_dropShadow_12201_60173" result="shape"/>
</filter>
</defs>
</svg>
