<svg width="112" height="208" viewBox="0 0 112 208" fill="none" xmlns="http://www.w3.org/2000/svg">
<rect x="0.5" y="0.5" width="111" height="207" rx="4.5" stroke="#9747FF" stroke-dasharray="10 5"/>
<g filter="url(#filter0_d_8292_36026)">
<rect x="16" y="16" width="80" height="80" rx="8" fill="white"/>
</g>
<path d="M74.851 75.0003H29.1483C28.5141 75.0003 28 74.4901 28 73.8607V32.667C28 32.0375 28.5141 31.5273 29.1483 31.5273H74.851C75.4852 31.5273 75.9992 32.0375 75.9992 32.667V73.8606C75.9992 74.49 75.4852 75.0003 74.851 75.0003Z" fill="#E2EFFE"/>
<path d="M52.4532 75.0003H75.0251C75.5635 75.0003 76.0001 74.5574 76.0001 74.011V32.4534C76.0001 31.9419 75.5915 31.5273 75.0874 31.5273H52.4532V75.0003Z" fill="#B6D7FC"/>
<path d="M74.7774 31.5273H29.2219C28.5471 31.5273 28 32.1239 28 32.8599V42.3956H75.9992V32.8599C75.9992 32.124 75.4522 31.5273 74.7774 31.5273Z" fill="#157DF5"/>
<path d="M74.8049 31.5273H52.4532V42.3956H76.0001V32.8599C76.0001 32.124 75.465 31.5273 74.8049 31.5273Z" fill="#0965CD"/>
<path d="M69.639 37.033C68.7333 37.033 67.999 36.3679 67.999 35.5475V30.4855C67.9989 29.6651 68.7332 29 69.639 29C70.5448 29 71.279 29.6651 71.279 30.4855V35.5476C71.279 36.3679 70.5447 37.033 69.639 37.033Z" fill="#1E203E"/>
<path d="M35.64 37.033C34.7342 37.033 34 36.3679 34 35.5475V30.4855C33.9999 29.6651 34.7341 29 35.64 29C36.5458 29 37.2799 29.6651 37.2799 30.4855V35.5476C37.2799 36.3679 36.5457 37.033 35.64 37.033Z" fill="#1E203E"/>
<path d="M52.4501 37.0201C51.5457 37.0201 50.8125 36.3558 50.8125 35.5365V30.4836C50.8125 29.6642 51.5457 29 52.4501 29C53.3545 29 54.0876 29.6642 54.0876 30.4836V35.5365C54.0876 36.3558 53.3545 37.0201 52.4501 37.0201Z" fill="#282A52"/>
<path d="M52.4552 29.0039L52.4531 29.004V37.0239L52.4552 37.024C53.3596 37.024 54.0927 36.3598 54.0927 35.5404V30.4875C54.0927 29.6681 53.3596 29.0039 52.4552 29.0039Z" fill="#1E203E"/>
<path d="M35.875 55.959H43.0958V61.7825H35.875V55.959Z" fill="#282A52"/>
<path d="M69.4293 47.1797H35.6209C34.7397 47.1797 34.0254 47.8882 34.0254 48.7622V69.3131C34.0254 70.1871 34.7397 70.8956 35.6209 70.8956H69.4293C70.3105 70.8956 71.0248 70.1871 71.0248 69.3131V48.7622C71.0248 47.8882 70.3105 47.1797 69.4293 47.1797ZM37.2164 58.1006C37.2164 57.6005 37.6219 57.195 38.1221 57.195H41.5717C42.0719 57.195 42.4774 57.6005 42.4774 58.1006V59.9746C42.4774 60.4748 42.0719 60.8803 41.5717 60.8803H38.1221C37.6219 60.8803 37.2164 60.4748 37.2164 59.9746V58.1006ZM45.6685 58.1006C45.6685 57.6005 46.0739 57.195 46.5741 57.195H50.0238C50.524 57.195 50.9294 57.6005 50.9294 58.1006V59.9746C50.9294 60.4748 50.524 60.8803 50.0238 60.8803H46.5741C46.0739 60.8803 45.6685 60.4748 45.6685 59.9746V58.1006ZM50.9295 53.1243C50.9295 53.6245 50.5241 54.03 50.0239 54.03H46.5742C46.074 54.03 45.6686 53.6245 45.6686 53.1243V51.2504C45.6686 50.7503 46.074 50.3448 46.5742 50.3448H50.0239C50.5241 50.3448 50.9295 50.7503 50.9295 51.2504V53.1243ZM54.1206 51.2504C54.1206 50.7503 54.5261 50.3448 55.0262 50.3448H58.4759C58.9761 50.3448 59.3816 50.7503 59.3816 51.2504V53.1243C59.3816 53.6245 58.9761 54.03 58.4759 54.03H55.0262C54.5261 54.03 54.1206 53.6245 54.1206 53.1243V51.2504ZM50.0239 64.0454C50.5241 64.0454 50.9295 64.4509 50.9295 64.951V66.8249C50.9295 67.3251 50.5241 67.7306 50.0239 67.7306H46.5742C46.074 67.7306 45.6686 67.3251 45.6686 66.8249V64.951C45.6686 64.4509 46.074 64.0454 46.5742 64.0454H50.0239ZM54.1206 64.951C54.1206 64.4509 54.5261 64.0454 55.0262 64.0454H58.4759C58.9761 64.0454 59.3816 64.4509 59.3816 64.951V66.8249C59.3816 67.3251 58.9761 67.7306 58.4759 67.7306H55.0262C54.5261 67.7306 54.1206 67.3251 54.1206 66.8249V64.951ZM55.0262 60.8804C54.5261 60.8804 54.1206 60.4749 54.1206 59.9747V58.1007C54.1206 57.6006 54.5261 57.1951 55.0262 57.1951H58.4759C58.9761 57.1951 59.3816 57.6006 59.3816 58.1007V59.9747C59.3816 60.4749 58.9761 60.8804 58.4759 60.8804H55.0262ZM62.5727 58.1006C62.5727 57.6005 62.9782 57.195 63.4784 57.195H66.9281C67.4283 57.195 67.8338 57.6005 67.8338 58.1006V59.9746C67.8338 60.4748 67.4283 60.8803 66.9281 60.8803H63.4784C62.9782 60.8803 62.5727 60.4748 62.5727 59.9746V58.1006ZM67.8337 53.1243C67.8337 53.6245 67.4282 54.03 66.928 54.03H63.4783C62.9781 54.03 62.5726 53.6245 62.5726 53.1243V51.2504C62.5726 50.7503 62.9781 50.3448 63.4783 50.3448H66.928C67.4282 50.3448 67.8337 50.7503 67.8337 51.2504V53.1243ZM41.5717 50.3448C42.0719 50.3448 42.4774 50.7503 42.4774 51.2504V53.1243C42.4774 53.6245 42.0719 54.03 41.5717 54.03H38.1221C37.6219 54.03 37.2164 53.6245 37.2164 53.1243V51.2504C37.2164 50.7503 37.6219 50.3448 38.1221 50.3448H41.5717ZM37.2164 64.951C37.2164 64.4509 37.6219 64.0454 38.1221 64.0454H41.5717C42.0719 64.0454 42.4774 64.4509 42.4774 64.951V66.8249C42.4774 67.3251 42.0719 67.7306 41.5717 67.7306H38.1221C37.6219 67.7306 37.2164 67.3251 37.2164 66.8249V64.951ZM63.4784 67.7306C62.9782 67.7306 62.5727 67.3251 62.5727 66.8249V64.951C62.5727 64.4509 62.9782 64.0454 63.4784 64.0454H66.9281C67.4283 64.0454 67.8338 64.4509 67.8338 64.951V66.8249C67.8338 67.3251 67.4283 67.7306 66.9281 67.7306H63.4784Z" fill="white"/>
<path d="M69.4233 47.1797H52.4492L52.4493 70.8957H69.4233C70.3046 70.8957 71.019 70.1872 71.019 69.3132V48.7622C71.019 47.8882 70.3046 47.1797 69.4233 47.1797ZM59.3748 66.8249C59.3748 67.3251 58.9694 67.7306 58.4692 67.7306H55.0191C54.519 67.7306 54.1135 67.3251 54.1135 66.8249V64.951C54.1135 64.4509 54.519 64.0454 55.0191 64.0454H58.4692C58.9694 64.0454 59.3748 64.4509 59.3748 64.951V66.8249ZM59.3748 59.9747C59.3748 60.4749 58.9694 60.8804 58.4692 60.8804H55.0191C54.519 60.8804 54.1135 60.4749 54.1135 59.9747V58.1007C54.1135 57.6006 54.519 57.1951 55.0191 57.1951H58.4692C58.9694 57.1951 59.3748 57.6006 59.3748 58.1007V59.9747ZM59.3748 53.1243C59.3748 53.6245 58.9694 54.03 58.4692 54.03H55.0191C54.519 54.03 54.1135 53.6245 54.1135 53.1243V51.2504C54.1135 50.7503 54.519 50.3448 55.0191 50.3448H58.4692C58.9694 50.3448 59.3748 50.7503 59.3748 51.2504V53.1243ZM67.8276 66.8249C67.8276 67.3251 67.4221 67.7306 66.9219 67.7306H63.4718C62.9716 67.7306 62.5661 67.3251 62.5661 66.8249V64.951C62.5661 64.4509 62.9716 64.0454 63.4718 64.0454H66.9219C67.4221 64.0454 67.8276 64.4509 67.8276 64.951V66.8249ZM67.8276 59.9747C67.8276 60.4749 67.4221 60.8804 66.9219 60.8804H63.4718C62.9716 60.8804 62.5661 60.4749 62.5661 59.9747V58.1007C62.5661 57.6006 62.9716 57.1951 63.4718 57.1951H66.9219C67.4221 57.1951 67.8276 57.6006 67.8276 58.1007V59.9747ZM67.8276 53.1243C67.8276 53.6245 67.4221 54.03 66.9219 54.03H63.4718C62.9716 54.03 62.5661 53.6245 62.5661 53.1243V51.2504C62.5661 50.7503 62.9716 50.3448 63.4718 50.3448H66.9219C67.4221 50.3448 67.8276 50.7503 67.8276 51.2504V53.1243Z" fill="#E2EFFE"/>
<path d="M68.4997 55L74.7495 66.2925L68.4997 80C65.4201 80 62.597 78.8812 60.4168 77.027C59.6323 76.3615 58.9308 75.5995 58.332 74.7617C56.8645 72.7137 56 70.2053 56 67.5C56 62.6155 58.816 58.377 62.9087 56.3219C64.5915 55.4758 66.4907 55 68.4997 55Z" fill="#40D98D"/>
<path d="M80.9997 67.5C80.9997 74.3925 75.3923 80 68.5 80V55C70.5089 55 72.4081 55.4758 74.091 56.3219C78.1837 58.377 80.9997 62.6155 80.9997 67.5Z" fill="#25BB71"/>
<path fill-rule="evenodd" clip-rule="evenodd" d="M61.5625 53.6409C63.6534 52.59 66.0125 52 68.4997 52C70.9867 52 73.3462 52.5899 75.4372 53.6409M61.5612 53.6416C56.4978 56.1847 53 61.4347 53 67.5C53 70.8536 54.0735 73.9687 55.8924 76.5076C56.6344 77.5455 57.5029 78.4889 58.4745 79.3135C61.1756 81.61 64.6809 83 68.4997 83C77.0488 83 83.9997 76.0494 83.9997 67.5C83.9997 61.4347 80.5018 56.1847 75.4385 53.6416M58.332 74.7617C56.8645 72.7137 56 70.2053 56 67.5C56 62.6155 58.816 58.377 62.9087 56.3219C64.5915 55.4758 66.4907 55 68.4997 55C70.5086 55 72.4081 55.4758 74.091 56.3219C78.1837 58.377 80.9997 62.6155 80.9997 67.5C80.9997 74.3925 75.392 80 68.4997 80C65.4201 80 62.597 78.8812 60.4168 77.027C59.6323 76.3615 58.9308 75.5995 58.332 74.7617Z" fill="white"/>
<path d="M68.4992 61.1953L69.6062 65.4368L68.4992 69.6784L67.4111 68.5903C67.123 68.3021 66.9609 67.9104 66.9609 67.5022V62.7336C66.9609 61.8845 67.6501 61.1953 68.4992 61.1953Z" fill="white"/>
<path d="M71.9405 70.9428C71.64 71.2433 71.2463 71.3941 70.8535 71.3941C70.4597 71.3941 70.0659 71.2433 69.7655 70.9428L68.5 69.6784V61.1953C69.3491 61.1953 70.0382 61.8845 70.0382 62.7336V66.8654L71.9405 68.7677C72.5414 69.3687 72.5414 70.3429 71.9405 70.9428Z" fill="#F0F7FE"/>
<path d="M74.851 171H29.1483C28.5141 171 28 170.49 28 169.861V128.667C28 128.038 28.5141 127.527 29.1483 127.527H74.851C75.4852 127.527 75.9992 128.038 75.9992 128.667V169.861C75.9992 170.49 75.4852 171 74.851 171Z" fill="#E2EFFE"/>
<path d="M52.4532 171H75.0251C75.5635 171 76.0001 170.557 76.0001 170.011V128.453C76.0001 127.942 75.5915 127.527 75.0874 127.527H52.4532V171Z" fill="#B6D7FC"/>
<path d="M74.7774 127.527H29.2219C28.5471 127.527 28 128.124 28 128.86V138.396H75.9992V128.86C75.9992 128.124 75.4522 127.527 74.7774 127.527Z" fill="#157DF5"/>
<path d="M74.8049 127.527H52.4532V138.396H76.0001V128.86C76.0001 128.124 75.465 127.527 74.8049 127.527Z" fill="#0965CD"/>
<path d="M69.639 133.033C68.7333 133.033 67.999 132.368 67.999 131.548V126.485C67.9989 125.665 68.7332 125 69.639 125C70.5448 125 71.279 125.665 71.279 126.485V131.548C71.279 132.368 70.5447 133.033 69.639 133.033Z" fill="#1E203E"/>
<path d="M35.64 133.033C34.7342 133.033 34 132.368 34 131.548V126.485C33.9999 125.665 34.7341 125 35.64 125C36.5458 125 37.2799 125.665 37.2799 126.485V131.548C37.2799 132.368 36.5457 133.033 35.64 133.033Z" fill="#1E203E"/>
<path d="M52.4501 133.02C51.5457 133.02 50.8125 132.356 50.8125 131.536V126.484C50.8125 125.664 51.5457 125 52.4501 125C53.3545 125 54.0876 125.664 54.0876 126.484V131.536C54.0876 132.356 53.3545 133.02 52.4501 133.02Z" fill="#282A52"/>
<path d="M52.4552 125.004L52.4531 125.004V133.024L52.4552 133.024C53.3596 133.024 54.0927 132.36 54.0927 131.54V126.487C54.0927 125.668 53.3596 125.004 52.4552 125.004Z" fill="#1E203E"/>
<path d="M35.875 151.959H43.0958V157.783H35.875V151.959Z" fill="#282A52"/>
<path d="M69.4293 143.18H35.6209C34.7397 143.18 34.0254 143.888 34.0254 144.762V165.313C34.0254 166.187 34.7397 166.896 35.6209 166.896H69.4293C70.3105 166.896 71.0248 166.187 71.0248 165.313V144.762C71.0248 143.888 70.3105 143.18 69.4293 143.18ZM37.2164 154.101C37.2164 153.6 37.6219 153.195 38.1221 153.195H41.5717C42.0719 153.195 42.4774 153.6 42.4774 154.101V155.975C42.4774 156.475 42.0719 156.88 41.5717 156.88H38.1221C37.6219 156.88 37.2164 156.475 37.2164 155.975V154.101ZM45.6685 154.101C45.6685 153.6 46.0739 153.195 46.5741 153.195H50.0238C50.524 153.195 50.9294 153.6 50.9294 154.101V155.975C50.9294 156.475 50.524 156.88 50.0238 156.88H46.5741C46.0739 156.88 45.6685 156.475 45.6685 155.975V154.101ZM50.9295 149.124C50.9295 149.625 50.5241 150.03 50.0239 150.03H46.5742C46.074 150.03 45.6686 149.625 45.6686 149.124V147.25C45.6686 146.75 46.074 146.345 46.5742 146.345H50.0239C50.5241 146.345 50.9295 146.75 50.9295 147.25V149.124ZM54.1206 147.25C54.1206 146.75 54.5261 146.345 55.0262 146.345H58.4759C58.9761 146.345 59.3816 146.75 59.3816 147.25V149.124C59.3816 149.625 58.9761 150.03 58.4759 150.03H55.0262C54.5261 150.03 54.1206 149.625 54.1206 149.124V147.25ZM50.0239 160.045C50.5241 160.045 50.9295 160.451 50.9295 160.951V162.825C50.9295 163.325 50.5241 163.731 50.0239 163.731H46.5742C46.074 163.731 45.6686 163.325 45.6686 162.825V160.951C45.6686 160.451 46.074 160.045 46.5742 160.045H50.0239ZM54.1206 160.951C54.1206 160.451 54.5261 160.045 55.0262 160.045H58.4759C58.9761 160.045 59.3816 160.451 59.3816 160.951V162.825C59.3816 163.325 58.9761 163.731 58.4759 163.731H55.0262C54.5261 163.731 54.1206 163.325 54.1206 162.825V160.951ZM55.0262 156.88C54.5261 156.88 54.1206 156.475 54.1206 155.975V154.101C54.1206 153.601 54.5261 153.195 55.0262 153.195H58.4759C58.9761 153.195 59.3816 153.601 59.3816 154.101V155.975C59.3816 156.475 58.9761 156.88 58.4759 156.88H55.0262ZM62.5727 154.101C62.5727 153.6 62.9782 153.195 63.4784 153.195H66.9281C67.4283 153.195 67.8338 153.6 67.8338 154.101V155.975C67.8338 156.475 67.4283 156.88 66.9281 156.88H63.4784C62.9782 156.88 62.5727 156.475 62.5727 155.975V154.101ZM67.8337 149.124C67.8337 149.625 67.4282 150.03 66.928 150.03H63.4783C62.9781 150.03 62.5726 149.625 62.5726 149.124V147.25C62.5726 146.75 62.9781 146.345 63.4783 146.345H66.928C67.4282 146.345 67.8337 146.75 67.8337 147.25V149.124ZM41.5717 146.345C42.0719 146.345 42.4774 146.75 42.4774 147.25V149.124C42.4774 149.625 42.0719 150.03 41.5717 150.03H38.1221C37.6219 150.03 37.2164 149.625 37.2164 149.124V147.25C37.2164 146.75 37.6219 146.345 38.1221 146.345H41.5717ZM37.2164 160.951C37.2164 160.451 37.6219 160.045 38.1221 160.045H41.5717C42.0719 160.045 42.4774 160.451 42.4774 160.951V162.825C42.4774 163.325 42.0719 163.731 41.5717 163.731H38.1221C37.6219 163.731 37.2164 163.325 37.2164 162.825V160.951ZM63.4784 163.731C62.9782 163.731 62.5727 163.325 62.5727 162.825V160.951C62.5727 160.451 62.9782 160.045 63.4784 160.045H66.9281C67.4283 160.045 67.8338 160.451 67.8338 160.951V162.825C67.8338 163.325 67.4283 163.731 66.9281 163.731H63.4784Z" fill="white"/>
<path d="M69.4233 143.18H52.4492L52.4493 166.896H69.4233C70.3046 166.896 71.019 166.187 71.019 165.313V144.762C71.019 143.888 70.3046 143.18 69.4233 143.18ZM59.3748 162.825C59.3748 163.325 58.9694 163.731 58.4692 163.731H55.0191C54.519 163.731 54.1135 163.325 54.1135 162.825V160.951C54.1135 160.451 54.519 160.045 55.0191 160.045H58.4692C58.9694 160.045 59.3748 160.451 59.3748 160.951V162.825ZM59.3748 155.975C59.3748 156.475 58.9694 156.88 58.4692 156.88H55.0191C54.519 156.88 54.1135 156.475 54.1135 155.975V154.101C54.1135 153.601 54.519 153.195 55.0191 153.195H58.4692C58.9694 153.195 59.3748 153.601 59.3748 154.101V155.975ZM59.3748 149.124C59.3748 149.625 58.9694 150.03 58.4692 150.03H55.0191C54.519 150.03 54.1135 149.625 54.1135 149.124V147.25C54.1135 146.75 54.519 146.345 55.0191 146.345H58.4692C58.9694 146.345 59.3748 146.75 59.3748 147.25V149.124ZM67.8276 162.825C67.8276 163.325 67.4221 163.731 66.9219 163.731H63.4718C62.9716 163.731 62.5661 163.325 62.5661 162.825V160.951C62.5661 160.451 62.9716 160.045 63.4718 160.045H66.9219C67.4221 160.045 67.8276 160.451 67.8276 160.951V162.825ZM67.8276 155.975C67.8276 156.475 67.4221 156.88 66.9219 156.88H63.4718C62.9716 156.88 62.5661 156.475 62.5661 155.975V154.101C62.5661 153.601 62.9716 153.195 63.4718 153.195H66.9219C67.4221 153.195 67.8276 153.601 67.8276 154.101V155.975ZM67.8276 149.124C67.8276 149.625 67.4221 150.03 66.9219 150.03H63.4718C62.9716 150.03 62.5661 149.625 62.5661 149.124V147.25C62.5661 146.75 62.9716 146.345 63.4718 146.345H66.9219C67.4221 146.345 67.8276 146.75 67.8276 147.25V149.124Z" fill="#E2EFFE"/>
<path d="M68.4997 151L74.7495 162.292L68.4997 176C65.4201 176 62.597 174.881 60.4168 173.027C59.6323 172.361 58.9308 171.6 58.332 170.762C56.8645 168.714 56 166.205 56 163.5C56 158.615 58.816 154.377 62.9087 152.322C64.5915 151.476 66.4907 151 68.4997 151Z" fill="#40D98D"/>
<path d="M80.9997 163.5C80.9997 170.392 75.3923 176 68.5 176V151C70.5089 151 72.4081 151.476 74.091 152.322C78.1837 154.377 80.9997 158.615 80.9997 163.5Z" fill="#25BB71"/>
<path fill-rule="evenodd" clip-rule="evenodd" d="M61.5625 149.641C63.6534 148.59 66.0125 148 68.4997 148C70.9867 148 73.3462 148.59 75.4372 149.641M61.5612 149.642C56.4978 152.185 53 157.435 53 163.5C53 166.854 54.0735 169.969 55.8924 172.508C56.6344 173.545 57.5029 174.489 58.4745 175.313C61.1756 177.61 64.6809 179 68.4997 179C77.0488 179 83.9997 172.049 83.9997 163.5C83.9997 157.435 80.5018 152.185 75.4385 149.642M58.332 170.762C56.8645 168.714 56 166.205 56 163.5C56 158.615 58.816 154.377 62.9087 152.322C64.5915 151.476 66.4907 151 68.4997 151C70.5086 151 72.4081 151.476 74.091 152.322C78.1837 154.377 80.9997 158.615 80.9997 163.5C80.9997 170.392 75.392 176 68.4997 176C65.4201 176 62.597 174.881 60.4168 173.027C59.6323 172.361 58.9308 171.6 58.332 170.762Z" fill="white"/>
<path d="M68.4992 157.195L69.6062 161.437L68.4992 165.678L67.4111 164.59C67.123 164.302 66.9609 163.91 66.9609 163.502V158.734C66.9609 157.884 67.6501 157.195 68.4992 157.195Z" fill="white"/>
<path d="M71.9405 166.943C71.64 167.243 71.2463 167.394 70.8535 167.394C70.4597 167.394 70.0659 167.243 69.7655 166.943L68.5 165.678V157.195C69.3491 157.195 70.0382 157.884 70.0382 158.734V162.865L71.9405 164.768C72.5414 165.369 72.5414 166.343 71.9405 166.943Z" fill="#F0F7FE"/>
<defs>
<filter id="filter0_d_8292_36026" x="10" y="9" width="96" height="96" filterUnits="userSpaceOnUse" color-interpolation-filters="sRGB">
<feFlood flood-opacity="0" result="BackgroundImageFix"/>
<feColorMatrix in="SourceAlpha" type="matrix" values="0 0 0 0 0 0 0 0 0 0 0 0 0 0 0 0 0 0 127 0" result="hardAlpha"/>
<feOffset dx="2" dy="1"/>
<feGaussianBlur stdDeviation="4"/>
<feColorMatrix type="matrix" values="0 0 0 0 0.0392157 0 0 0 0 0.0392157 0 0 0 0 0.0627451 0 0 0 0.08 0"/>
<feBlend mode="normal" in2="BackgroundImageFix" result="effect1_dropShadow_8292_36026"/>
<feBlend mode="normal" in="SourceGraphic" in2="effect1_dropShadow_8292_36026" result="shape"/>
</filter>
</defs>
</svg>
