<svg width="112" height="208" viewBox="0 0 112 208" fill="none" xmlns="http://www.w3.org/2000/svg">
<rect x="0.5" y="0.5" width="111" height="207" rx="4.5" stroke="#9747FF" stroke-dasharray="10 5"/>
<g filter="url(#filter0_d_8292_36256)">
<rect x="16" y="16" width="80" height="80" rx="8" fill="white"/>
</g>
<path d="M74.851 74.0003H29.1483C28.5141 74.0003 28 73.4901 28 72.8607V31.667C28 31.0375 28.5141 30.5273 29.1483 30.5273H74.851C75.4852 30.5273 75.9992 31.0375 75.9992 31.667V72.8606C75.9992 73.49 75.4852 74.0003 74.851 74.0003Z" fill="#E2EFFE"/>
<path d="M52.4532 74.0003H75.0251C75.5635 74.0003 76 73.5574 76 73.011V31.4534C76 30.9419 75.5914 30.5273 75.0873 30.5273H52.4532V74.0003Z" fill="#B6D7FC"/>
<path d="M74.7774 30.5273H29.2219C28.5471 30.5273 28 31.1239 28 31.8599V41.3956H75.9992V31.8599C75.9992 31.124 75.4522 30.5273 74.7774 30.5273Z" fill="#157DF5"/>
<path d="M74.8049 30.5273H52.4532V41.3956H76V31.8599C76 31.124 75.465 30.5273 74.8049 30.5273Z" fill="#0965CD"/>
<path d="M69.639 36.033C68.7333 36.033 67.999 35.3679 67.999 34.5475V29.4855C67.9989 28.6651 68.7332 28 69.639 28C70.5448 28 71.279 28.6651 71.279 29.4855V34.5476C71.279 35.3679 70.5447 36.033 69.639 36.033Z" fill="#1E203E"/>
<path d="M35.64 36.033C34.7342 36.033 34 35.3679 34 34.5475V29.4855C33.9999 28.6651 34.7341 28 35.64 28C36.5458 28 37.2799 28.6651 37.2799 29.4855V34.5476C37.2799 35.3679 36.5457 36.033 35.64 36.033Z" fill="#1E203E"/>
<path d="M52.45 36.0201C51.5456 36.0201 50.8125 35.3558 50.8125 34.5365V29.4836C50.8125 28.6642 51.5456 28 52.45 28C53.3544 28 54.0876 28.6642 54.0876 29.4836V34.5365C54.0876 35.3558 53.3544 36.0201 52.45 36.0201Z" fill="#282A52"/>
<path d="M52.4551 28.0039L52.4531 28.004V36.0239L52.4551 36.024C53.3595 36.024 54.0927 35.3598 54.0927 34.5404V29.4875C54.0927 28.6681 53.3595 28.0039 52.4551 28.0039Z" fill="#1E203E"/>
<path d="M35.875 54.959H43.0958V60.7825H35.875V54.959Z" fill="#282A52"/>
<path d="M69.4293 46.1797H35.6209C34.7397 46.1797 34.0254 46.8882 34.0254 47.7622V68.3131C34.0254 69.1871 34.7397 69.8956 35.6209 69.8956H69.4293C70.3105 69.8956 71.0248 69.1871 71.0248 68.3131V47.7622C71.0248 46.8882 70.3105 46.1797 69.4293 46.1797ZM37.2164 57.1006C37.2164 56.6005 37.6219 56.195 38.1221 56.195H41.5717C42.0719 56.195 42.4774 56.6005 42.4774 57.1006V58.9746C42.4774 59.4748 42.0719 59.8803 41.5717 59.8803H38.1221C37.6219 59.8803 37.2164 59.4748 37.2164 58.9746V57.1006ZM45.6685 57.1006C45.6685 56.6005 46.0739 56.195 46.5741 56.195H50.0238C50.524 56.195 50.9294 56.6005 50.9294 57.1006V58.9746C50.9294 59.4748 50.524 59.8803 50.0238 59.8803H46.5741C46.0739 59.8803 45.6685 59.4748 45.6685 58.9746V57.1006ZM50.9295 52.1243C50.9295 52.6245 50.5241 53.03 50.0239 53.03H46.5742C46.074 53.03 45.6686 52.6245 45.6686 52.1243V50.2504C45.6686 49.7503 46.074 49.3448 46.5742 49.3448H50.0239C50.5241 49.3448 50.9295 49.7503 50.9295 50.2504V52.1243ZM54.1206 50.2504C54.1206 49.7503 54.5261 49.3448 55.0262 49.3448H58.4759C58.9761 49.3448 59.3816 49.7503 59.3816 50.2504V52.1243C59.3816 52.6245 58.9761 53.03 58.4759 53.03H55.0262C54.5261 53.03 54.1206 52.6245 54.1206 52.1243V50.2504ZM50.0239 63.0454C50.5241 63.0454 50.9295 63.4509 50.9295 63.951V65.8249C50.9295 66.3251 50.5241 66.7306 50.0239 66.7306H46.5742C46.074 66.7306 45.6686 66.3251 45.6686 65.8249V63.951C45.6686 63.4509 46.074 63.0454 46.5742 63.0454H50.0239ZM54.1206 63.951C54.1206 63.4509 54.5261 63.0454 55.0262 63.0454H58.4759C58.9761 63.0454 59.3816 63.4509 59.3816 63.951V65.8249C59.3816 66.3251 58.9761 66.7306 58.4759 66.7306H55.0262C54.5261 66.7306 54.1206 66.3251 54.1206 65.8249V63.951ZM55.0262 59.8804C54.5261 59.8804 54.1206 59.4749 54.1206 58.9747V57.1007C54.1206 56.6006 54.5261 56.1951 55.0262 56.1951H58.4759C58.9761 56.1951 59.3816 56.6006 59.3816 57.1007V58.9747C59.3816 59.4749 58.9761 59.8804 58.4759 59.8804H55.0262ZM62.5727 57.1006C62.5727 56.6005 62.9782 56.195 63.4784 56.195H66.9281C67.4283 56.195 67.8338 56.6005 67.8338 57.1006V58.9746C67.8338 59.4748 67.4283 59.8803 66.9281 59.8803H63.4784C62.9782 59.8803 62.5727 59.4748 62.5727 58.9746V57.1006ZM67.8337 52.1243C67.8337 52.6245 67.4282 53.03 66.928 53.03H63.4783C62.9781 53.03 62.5726 52.6245 62.5726 52.1243V50.2504C62.5726 49.7503 62.9781 49.3448 63.4783 49.3448H66.928C67.4282 49.3448 67.8337 49.7503 67.8337 50.2504V52.1243ZM41.5717 49.3448C42.0719 49.3448 42.4774 49.7503 42.4774 50.2504V52.1243C42.4774 52.6245 42.0719 53.03 41.5717 53.03H38.1221C37.6219 53.03 37.2164 52.6245 37.2164 52.1243V50.2504C37.2164 49.7503 37.6219 49.3448 38.1221 49.3448H41.5717ZM37.2164 63.951C37.2164 63.4509 37.6219 63.0454 38.1221 63.0454H41.5717C42.0719 63.0454 42.4774 63.4509 42.4774 63.951V65.8249C42.4774 66.3251 42.0719 66.7306 41.5717 66.7306H38.1221C37.6219 66.7306 37.2164 66.3251 37.2164 65.8249V63.951ZM63.4784 66.7306C62.9782 66.7306 62.5727 66.3251 62.5727 65.8249V63.951C62.5727 63.4509 62.9782 63.0454 63.4784 63.0454H66.9281C67.4283 63.0454 67.8338 63.4509 67.8338 63.951V65.8249C67.8338 66.3251 67.4283 66.7306 66.9281 66.7306H63.4784Z" fill="white"/>
<path d="M69.4233 46.1797H52.4492L52.4493 69.8957H69.4233C70.3046 69.8957 71.019 69.1872 71.019 68.3132V47.7622C71.019 46.8882 70.3046 46.1797 69.4233 46.1797ZM59.3748 65.8249C59.3748 66.3251 58.9694 66.7306 58.4692 66.7306H55.0191C54.519 66.7306 54.1135 66.3251 54.1135 65.8249V63.951C54.1135 63.4509 54.519 63.0454 55.0191 63.0454H58.4692C58.9694 63.0454 59.3748 63.4509 59.3748 63.951V65.8249ZM59.3748 58.9747C59.3748 59.4749 58.9694 59.8804 58.4692 59.8804H55.0191C54.519 59.8804 54.1135 59.4749 54.1135 58.9747V57.1007C54.1135 56.6006 54.519 56.1951 55.0191 56.1951H58.4692C58.9694 56.1951 59.3748 56.6006 59.3748 57.1007V58.9747ZM59.3748 52.1243C59.3748 52.6245 58.9694 53.03 58.4692 53.03H55.0191C54.519 53.03 54.1135 52.6245 54.1135 52.1243V50.2504C54.1135 49.7503 54.519 49.3448 55.0191 49.3448H58.4692C58.9694 49.3448 59.3748 49.7503 59.3748 50.2504V52.1243ZM67.8276 65.8249C67.8276 66.3251 67.4221 66.7306 66.9219 66.7306H63.4718C62.9716 66.7306 62.5661 66.3251 62.5661 65.8249V63.951C62.5661 63.4509 62.9716 63.0454 63.4718 63.0454H66.9219C67.4221 63.0454 67.8276 63.4509 67.8276 63.951V65.8249ZM67.8276 58.9747C67.8276 59.4749 67.4221 59.8804 66.9219 59.8804H63.4718C62.9716 59.8804 62.5661 59.4749 62.5661 58.9747V57.1007C62.5661 56.6006 62.9716 56.1951 63.4718 56.1951H66.9219C67.4221 56.1951 67.8276 56.6006 67.8276 57.1007V58.9747ZM67.8276 52.1243C67.8276 52.6245 67.4221 53.03 66.9219 53.03H63.4718C62.9716 53.03 62.5661 52.6245 62.5661 52.1243V50.2504C62.5661 49.7503 62.9716 49.3448 63.4718 49.3448H66.9219C67.4221 49.3448 67.8276 49.7503 67.8276 50.2504V52.1243Z" fill="#E2EFFE"/>
<path d="M74.0206 76.9844C74.0206 79.2193 72.2088 81.0311 69.9736 81.0311C67.7386 81.0311 65.9267 79.2193 65.9267 76.9844C65.9267 74.7493 67.7386 72.9375 69.9736 72.9375C72.2088 72.9375 74.0206 74.7493 74.0206 76.9844Z" fill="#FED601"/>
<path d="M80.265 73.8593C78.6062 72.4178 77.6545 70.3097 77.6545 68.0764V64.9308C77.6545 60.5746 74.208 57.0312 69.9732 57.0312C65.7384 57.0312 62.2919 60.5746 62.2919 64.9308V68.0764C62.2919 70.3097 61.3404 72.4178 59.6718 73.8679C59.2444 74.2447 59 74.7923 59 75.3694C59 76.4584 59.862 77.3437 60.9204 77.3437H79.0273C80.0858 77.3437 80.9478 76.4573 80.9478 75.3694C80.9478 74.7923 80.702 74.2447 80.265 73.8593Z" fill="#FEE048"/>
<path d="M80.9477 58.4208C80.9477 60.845 78.9826 62.8102 76.5584 62.8102C74.1342 62.8102 72.1689 60.845 72.1689 58.4208C72.1689 55.9966 74.1342 54.0312 76.5584 54.0312C78.9826 54.0312 80.9477 55.9966 80.9477 58.4208Z" fill="#F54B5E"/>
<path fill-rule="evenodd" clip-rule="evenodd" d="M59.6786 73.8366C61.3504 72.3866 62.3036 70.2785 62.3036 68.0452V64.8995C62.3036 60.5433 65.7566 57 69.9993 57C70.3899 57 70.7738 57.03 71.149 57.088C71.5499 57.1499 71.9408 57.2437 72.3192 57.3667C72.3742 57.1365 72.4475 56.9133 72.5373 56.6988C73.2006 55.1138 74.7684 54 76.5968 54C79.0255 54 80.9943 55.9653 80.9943 58.3895C80.9943 60.258 79.8248 61.8537 78.1766 62.4872C77.9259 62.5836 77.664 62.6577 77.3935 62.7071C77.527 63.1807 77.6184 63.6725 77.6632 64.1779C77.6842 64.4156 77.695 64.6563 77.695 64.8995V68.0452C77.695 70.2785 78.6485 72.3866 80.3103 73.8281C80.7482 74.2134 80.9944 74.7611 80.9944 75.3382C80.9944 76.426 80.1308 77.3125 79.0704 77.3125H74.0385C73.8564 79.3791 72.1178 81 69.9997 81C67.8818 81 66.1431 79.3791 65.961 77.3125H60.9296C59.8692 77.3125 59.0056 76.4272 59.0056 75.3382C59.0056 74.7611 59.2504 74.2134 59.6786 73.8366ZM63.7925 80.3125H60.9296C58.1322 80.3125 56 78.0061 56 75.3382C56 73.9161 56.6035 72.5432 57.691 71.5863L57.6991 71.5792L57.7071 71.5722C58.7118 70.7007 59.298 69.4234 59.298 68.0452V64.8995C59.298 58.9659 64.0181 54 69.9993 54C70.2101 54 70.4197 54.0063 70.6278 54.0186C71.9744 52.1885 74.1447 51 76.5968 51C80.6857 51 83.9999 54.3087 83.9999 58.3895C83.9999 60.9593 82.6873 63.2199 80.695 64.5436C80.6987 64.6619 80.7006 64.7805 80.7006 64.8995V68.0452C80.7006 69.4259 81.289 70.7024 82.2819 71.5637L82.29 71.5707L82.298 71.5778C83.3838 72.5333 84 73.9009 84 75.3382C84 78.0038 81.8689 80.3125 79.0704 80.3125H76.2071C75.0115 82.5095 72.6808 84 69.9997 84C67.3186 84 64.988 82.5095 63.7925 80.3125Z" fill="white"/>
<path d="M74.851 170H29.1483C28.5141 170 28 169.49 28 168.861V127.667C28 127.038 28.5141 126.527 29.1483 126.527H74.851C75.4852 126.527 75.9992 127.038 75.9992 127.667V168.861C75.9992 169.49 75.4852 170 74.851 170Z" fill="#E2EFFE"/>
<path d="M52.4532 170H75.0251C75.5635 170 76 169.557 76 169.011V127.453C76 126.942 75.5914 126.527 75.0873 126.527H52.4532V170Z" fill="#B6D7FC"/>
<path d="M74.7774 126.527H29.2219C28.5471 126.527 28 127.124 28 127.86V137.396H75.9992V127.86C75.9992 127.124 75.4522 126.527 74.7774 126.527Z" fill="#157DF5"/>
<path d="M74.8049 126.527H52.4532V137.396H76V127.86C76 127.124 75.465 126.527 74.8049 126.527Z" fill="#0965CD"/>
<path d="M69.639 132.033C68.7333 132.033 67.999 131.368 67.999 130.548V125.485C67.9989 124.665 68.7332 124 69.639 124C70.5448 124 71.279 124.665 71.279 125.485V130.548C71.279 131.368 70.5447 132.033 69.639 132.033Z" fill="#1E203E"/>
<path d="M35.64 132.033C34.7342 132.033 34 131.368 34 130.548V125.485C33.9999 124.665 34.7341 124 35.64 124C36.5458 124 37.2799 124.665 37.2799 125.485V130.548C37.2799 131.368 36.5457 132.033 35.64 132.033Z" fill="#1E203E"/>
<path d="M52.45 132.02C51.5456 132.02 50.8125 131.356 50.8125 130.536V125.484C50.8125 124.664 51.5456 124 52.45 124C53.3544 124 54.0876 124.664 54.0876 125.484V130.536C54.0876 131.356 53.3544 132.02 52.45 132.02Z" fill="#282A52"/>
<path d="M52.4551 124.004L52.4531 124.004V132.024L52.4551 132.024C53.3595 132.024 54.0927 131.36 54.0927 130.54V125.487C54.0927 124.668 53.3595 124.004 52.4551 124.004Z" fill="#1E203E"/>
<path d="M35.875 150.959H43.0958V156.783H35.875V150.959Z" fill="#282A52"/>
<path d="M69.4293 142.18H35.6209C34.7397 142.18 34.0254 142.888 34.0254 143.762V164.313C34.0254 165.187 34.7397 165.896 35.6209 165.896H69.4293C70.3105 165.896 71.0248 165.187 71.0248 164.313V143.762C71.0248 142.888 70.3105 142.18 69.4293 142.18ZM37.2164 153.101C37.2164 152.6 37.6219 152.195 38.1221 152.195H41.5717C42.0719 152.195 42.4774 152.6 42.4774 153.101V154.975C42.4774 155.475 42.0719 155.88 41.5717 155.88H38.1221C37.6219 155.88 37.2164 155.475 37.2164 154.975V153.101ZM45.6685 153.101C45.6685 152.6 46.0739 152.195 46.5741 152.195H50.0238C50.524 152.195 50.9294 152.6 50.9294 153.101V154.975C50.9294 155.475 50.524 155.88 50.0238 155.88H46.5741C46.0739 155.88 45.6685 155.475 45.6685 154.975V153.101ZM50.9295 148.124C50.9295 148.625 50.5241 149.03 50.0239 149.03H46.5742C46.074 149.03 45.6686 148.625 45.6686 148.124V146.25C45.6686 145.75 46.074 145.345 46.5742 145.345H50.0239C50.5241 145.345 50.9295 145.75 50.9295 146.25V148.124ZM54.1206 146.25C54.1206 145.75 54.5261 145.345 55.0262 145.345H58.4759C58.9761 145.345 59.3816 145.75 59.3816 146.25V148.124C59.3816 148.625 58.9761 149.03 58.4759 149.03H55.0262C54.5261 149.03 54.1206 148.625 54.1206 148.124V146.25ZM50.0239 159.045C50.5241 159.045 50.9295 159.451 50.9295 159.951V161.825C50.9295 162.325 50.5241 162.731 50.0239 162.731H46.5742C46.074 162.731 45.6686 162.325 45.6686 161.825V159.951C45.6686 159.451 46.074 159.045 46.5742 159.045H50.0239ZM54.1206 159.951C54.1206 159.451 54.5261 159.045 55.0262 159.045H58.4759C58.9761 159.045 59.3816 159.451 59.3816 159.951V161.825C59.3816 162.325 58.9761 162.731 58.4759 162.731H55.0262C54.5261 162.731 54.1206 162.325 54.1206 161.825V159.951ZM55.0262 155.88C54.5261 155.88 54.1206 155.475 54.1206 154.975V153.101C54.1206 152.601 54.5261 152.195 55.0262 152.195H58.4759C58.9761 152.195 59.3816 152.601 59.3816 153.101V154.975C59.3816 155.475 58.9761 155.88 58.4759 155.88H55.0262ZM62.5727 153.101C62.5727 152.6 62.9782 152.195 63.4784 152.195H66.9281C67.4283 152.195 67.8338 152.6 67.8338 153.101V154.975C67.8338 155.475 67.4283 155.88 66.9281 155.88H63.4784C62.9782 155.88 62.5727 155.475 62.5727 154.975V153.101ZM67.8337 148.124C67.8337 148.625 67.4282 149.03 66.928 149.03H63.4783C62.9781 149.03 62.5726 148.625 62.5726 148.124V146.25C62.5726 145.75 62.9781 145.345 63.4783 145.345H66.928C67.4282 145.345 67.8337 145.75 67.8337 146.25V148.124ZM41.5717 145.345C42.0719 145.345 42.4774 145.75 42.4774 146.25V148.124C42.4774 148.625 42.0719 149.03 41.5717 149.03H38.1221C37.6219 149.03 37.2164 148.625 37.2164 148.124V146.25C37.2164 145.75 37.6219 145.345 38.1221 145.345H41.5717ZM37.2164 159.951C37.2164 159.451 37.6219 159.045 38.1221 159.045H41.5717C42.0719 159.045 42.4774 159.451 42.4774 159.951V161.825C42.4774 162.325 42.0719 162.731 41.5717 162.731H38.1221C37.6219 162.731 37.2164 162.325 37.2164 161.825V159.951ZM63.4784 162.731C62.9782 162.731 62.5727 162.325 62.5727 161.825V159.951C62.5727 159.451 62.9782 159.045 63.4784 159.045H66.9281C67.4283 159.045 67.8338 159.451 67.8338 159.951V161.825C67.8338 162.325 67.4283 162.731 66.9281 162.731H63.4784Z" fill="white"/>
<path d="M69.4233 142.18H52.4492L52.4493 165.896H69.4233C70.3046 165.896 71.019 165.187 71.019 164.313V143.762C71.019 142.888 70.3046 142.18 69.4233 142.18ZM59.3748 161.825C59.3748 162.325 58.9694 162.731 58.4692 162.731H55.0191C54.519 162.731 54.1135 162.325 54.1135 161.825V159.951C54.1135 159.451 54.519 159.045 55.0191 159.045H58.4692C58.9694 159.045 59.3748 159.451 59.3748 159.951V161.825ZM59.3748 154.975C59.3748 155.475 58.9694 155.88 58.4692 155.88H55.0191C54.519 155.88 54.1135 155.475 54.1135 154.975V153.101C54.1135 152.601 54.519 152.195 55.0191 152.195H58.4692C58.9694 152.195 59.3748 152.601 59.3748 153.101V154.975ZM59.3748 148.124C59.3748 148.625 58.9694 149.03 58.4692 149.03H55.0191C54.519 149.03 54.1135 148.625 54.1135 148.124V146.25C54.1135 145.75 54.519 145.345 55.0191 145.345H58.4692C58.9694 145.345 59.3748 145.75 59.3748 146.25V148.124ZM67.8276 161.825C67.8276 162.325 67.4221 162.731 66.9219 162.731H63.4718C62.9716 162.731 62.5661 162.325 62.5661 161.825V159.951C62.5661 159.451 62.9716 159.045 63.4718 159.045H66.9219C67.4221 159.045 67.8276 159.451 67.8276 159.951V161.825ZM67.8276 154.975C67.8276 155.475 67.4221 155.88 66.9219 155.88H63.4718C62.9716 155.88 62.5661 155.475 62.5661 154.975V153.101C62.5661 152.601 62.9716 152.195 63.4718 152.195H66.9219C67.4221 152.195 67.8276 152.601 67.8276 153.101V154.975ZM67.8276 148.124C67.8276 148.625 67.4221 149.03 66.9219 149.03H63.4718C62.9716 149.03 62.5661 148.625 62.5661 148.124V146.25C62.5661 145.75 62.9716 145.345 63.4718 145.345H66.9219C67.4221 145.345 67.8276 145.75 67.8276 146.25V148.124Z" fill="#E2EFFE"/>
<path d="M74.0206 172.984C74.0206 175.219 72.2088 177.031 69.9736 177.031C67.7386 177.031 65.9267 175.219 65.9267 172.984C65.9267 170.749 67.7386 168.938 69.9736 168.938C72.2088 168.938 74.0206 170.749 74.0206 172.984Z" fill="#FED601"/>
<path d="M80.265 169.859C78.6062 168.418 77.6545 166.31 77.6545 164.076V160.931C77.6545 156.575 74.208 153.031 69.9732 153.031C65.7384 153.031 62.2919 156.575 62.2919 160.931V164.076C62.2919 166.31 61.3404 168.418 59.6718 169.868C59.2444 170.245 59 170.792 59 171.369C59 172.458 59.862 173.344 60.9204 173.344H79.0273C80.0858 173.344 80.9478 172.457 80.9478 171.369C80.9478 170.792 80.702 170.245 80.265 169.859Z" fill="#FEE048"/>
<path d="M80.9477 154.421C80.9477 156.845 78.9826 158.81 76.5584 158.81C74.1342 158.81 72.1689 156.845 72.1689 154.421C72.1689 151.997 74.1342 150.031 76.5584 150.031C78.9826 150.031 80.9477 151.997 80.9477 154.421Z" fill="#F54B5E"/>
<path fill-rule="evenodd" clip-rule="evenodd" d="M59.6786 169.837C61.3504 168.387 62.3036 166.278 62.3036 164.045V160.9C62.3036 156.543 65.7566 153 69.9993 153C70.3899 153 70.7738 153.03 71.149 153.088C71.5499 153.15 71.9408 153.244 72.3192 153.367C72.3742 153.137 72.4475 152.913 72.5373 152.699C73.2006 151.114 74.7684 150 76.5968 150C79.0255 150 80.9943 151.965 80.9943 154.39C80.9943 156.258 79.8248 157.854 78.1766 158.487C77.9259 158.584 77.664 158.658 77.3935 158.707C77.527 159.181 77.6184 159.673 77.6632 160.178C77.6842 160.416 77.695 160.656 77.695 160.9V164.045C77.695 166.278 78.6485 168.387 80.3103 169.828C80.7482 170.213 80.9944 170.761 80.9944 171.338C80.9944 172.426 80.1308 173.312 79.0704 173.312H74.0385C73.8564 175.379 72.1178 177 69.9997 177C67.8818 177 66.1431 175.379 65.961 173.312H60.9296C59.8692 173.312 59.0056 172.427 59.0056 171.338C59.0056 170.761 59.2504 170.213 59.6786 169.837ZM63.7925 176.312H60.9296C58.1322 176.312 56 174.006 56 171.338C56 169.916 56.6035 168.543 57.691 167.586L57.6991 167.579L57.7071 167.572C58.7118 166.701 59.298 165.423 59.298 164.045V160.9C59.298 154.966 64.0181 150 69.9993 150C70.2101 150 70.4197 150.006 70.6278 150.019C71.9744 148.189 74.1447 147 76.5968 147C80.6857 147 83.9999 150.309 83.9999 154.39C83.9999 156.959 82.6873 159.22 80.695 160.544C80.6987 160.662 80.7006 160.781 80.7006 160.9V164.045C80.7006 165.426 81.289 166.702 82.2819 167.564L82.29 167.571L82.298 167.578C83.3838 168.533 84 169.901 84 171.338C84 174.004 81.8689 176.312 79.0704 176.312H76.2071C75.0115 178.51 72.6808 180 69.9997 180C67.3186 180 64.988 178.509 63.7925 176.312Z" fill="white"/>
<defs>
<filter id="filter0_d_8292_36256" x="10" y="9" width="96" height="96" filterUnits="userSpaceOnUse" color-interpolation-filters="sRGB">
<feFlood flood-opacity="0" result="BackgroundImageFix"/>
<feColorMatrix in="SourceAlpha" type="matrix" values="0 0 0 0 0 0 0 0 0 0 0 0 0 0 0 0 0 0 127 0" result="hardAlpha"/>
<feOffset dx="2" dy="1"/>
<feGaussianBlur stdDeviation="4"/>
<feColorMatrix type="matrix" values="0 0 0 0 0.0392157 0 0 0 0 0.0392157 0 0 0 0 0.0627451 0 0 0 0.08 0"/>
<feBlend mode="normal" in2="BackgroundImageFix" result="effect1_dropShadow_8292_36256"/>
<feBlend mode="normal" in="SourceGraphic" in2="effect1_dropShadow_8292_36256" result="shape"/>
</filter>
</defs>
</svg>
