<svg width="112" height="208" viewBox="0 0 112 208" fill="none" xmlns="http://www.w3.org/2000/svg">
<rect x="0.5" y="0.5" width="111" height="207" rx="4.5" stroke="#9747FF" stroke-dasharray="10 5"/>
<g filter="url(#filter0_d_6367_24497)">
<rect x="16" y="16" width="80" height="80" rx="8" fill="white"/>
</g>
<path d="M83.996 80.7059V34.0392C83.996 30.7089 81.2871 28 77.9568 28H41.1725C40.2633 28 41.1725 28.7379 41.1725 29.6471C41.1725 30.5562 41.9103 31.2941 42.8195 31.2941C44.3337 31.2941 45.5646 32.525 45.5646 34.0392V80.7059C45.5646 82.522 47.0426 84 48.8587 84H80.7019C82.518 84 83.996 82.522 83.996 80.7059Z" fill="#F0F7FE"/>
<path d="M84.2157 80.7059V34.0392C84.2157 30.7089 81.5068 28 78.1765 28H65V84H80.9216C82.7377 84 84.2157 82.522 84.2157 80.7059Z" fill="#E2EFFE"/>
<path d="M73.9683 66.5404C73.9683 65.6313 73.2304 64.8934 72.3212 64.8934H57.2389C56.3297 64.8934 55.5918 65.6313 55.5918 66.5404C55.5918 67.4496 56.3297 68.1875 57.2389 68.1875H72.3212C73.2304 68.1875 73.9683 67.4496 73.9683 66.5404Z" fill="#157DF5"/>
<path d="M73.9685 66.5404C73.9685 65.6313 73.2306 64.8934 72.3215 64.8934H64.7803V68.1875H72.3215C73.2306 68.1875 73.9685 67.4496 73.9685 66.5404Z" fill="#0965CD"/>
<path d="M68.184 39.31C68.184 38.4008 67.4461 37.6629 66.5369 37.6629H57.2389C56.3297 37.6629 55.5918 38.4008 55.5918 39.31C55.5918 40.2191 56.3297 40.957 57.2389 40.957H66.5369C67.4461 40.957 68.184 40.2191 68.184 39.31Z" fill="#157DF5"/>
<path d="M73.1842 39.31C73.1842 38.4008 72.4463 37.6629 71.5371 37.6629H64.7803V40.957H71.5371C72.4463 40.957 73.1842 40.2191 73.1842 39.31Z" fill="#0965CD"/>
<path d="M73.9683 73.5678C73.9683 72.6586 73.2304 71.9207 72.3212 71.9207H57.2389C56.3297 71.9207 55.5918 72.6586 55.5918 73.5678C55.5918 74.477 56.3297 75.2148 57.2389 75.2148H72.3212C73.2304 75.2148 73.9683 74.477 73.9683 73.5678Z" fill="#40D98D"/>
<path d="M72.3215 71.9207H64.7803V75.2148H72.3215C73.2306 75.2148 73.9685 74.477 73.9685 73.5678C73.9685 72.6586 73.2306 71.9207 72.3215 71.9207Z" fill="#25BB71"/>
<path d="M73.7403 48.4825L68.4697 52.8747C68.0316 53.2403 67.4365 53.3523 66.8951 53.1722C64.1101 52.244 65.0181 52.5466 62.2306 51.6174C60.6871 52.3035 59.5002 53 57.9078 53.872C57.0873 54.2367 56.9383 53.4103 56.5639 52.5698C56.1984 51.7475 56.5704 50.8612 56.5704 50.8612C59.5002 49.5 59.5002 49.5 61.4763 48.3475C61.8518 48.1806 62.2757 48.1608 62.6655 48.2904C64.1976 48.8011 65.5073 49.2376 67.0664 49.7573L71.6321 45.9526C72.3304 45.3696 73.3692 45.464 73.9511 46.1635C74.5342 46.8618 74.4398 47.9006 73.7403 48.4825Z" fill="#40D98D"/>
<path d="M66.8951 53.1722L64.7803 52.4673V48.9953L67.0664 49.7573L71.632 45.9526C72.3304 45.3696 73.3691 45.464 73.9511 46.1635C74.5342 46.8618 74.4397 47.9006 73.7403 48.4825L68.4697 52.8747C68.0316 53.2403 67.4364 53.3523 66.8951 53.1722Z" fill="#25BB71"/>
<path d="M73.9683 59.5149C73.9683 60.4241 73.2304 61.162 72.3212 61.162H57.2389C56.3297 61.162 55.5918 60.4241 55.5918 59.5149V46.3385C55.5918 45.4293 56.3297 44.6914 57.2389 44.6914C58.148 44.6914 58.8859 45.4293 58.8859 46.3385V57.8679H72.3212C73.2304 57.8679 73.9683 58.6058 73.9683 59.5149Z" fill="#282A52"/>
<path d="M73.9685 59.5142C73.9685 60.4234 73.2306 61.1613 72.3215 61.1613H64.7803V57.8672H72.3215C73.2306 57.8672 73.9685 58.6051 73.9685 59.5142Z" fill="#1E203E"/>
<path d="M45.5646 42.7148V32.3933C45.5646 29.9676 43.5981 28.0011 41.1724 28.0011C38.7535 28.0011 36.7803 29.9609 36.7803 32.3933V39.4207C36.7803 41.2401 38.255 42.7148 40.0744 42.7148H45.5646Z" fill="#B6D7FC"/>
<path d="M44.2376 58.3516L52.6521 71.1761L44.2376 84.0007H29.0544C28.4723 84.0007 28 83.546 28 82.9858V62.0369L44.2376 58.3516Z" fill="#F0F7FE"/>
<path d="M37.1039 67.8698V70.5365C37.1039 70.9045 36.8053 71.2031 36.4373 71.2031H33.771C33.403 71.2031 33.1044 70.9045 33.1044 70.5365V67.8698C33.1044 67.5018 33.403 67.2031 33.771 67.2031H36.4373C36.8053 67.2031 37.1039 67.5018 37.1039 67.8698Z" fill="#157DF5"/>
<path d="M37.1039 75.9909V78.6576C37.1039 79.0256 36.8053 79.3242 36.4373 79.3242H33.771C33.403 79.3242 33.1044 79.0256 33.1044 78.6576V75.9909C33.1044 75.6229 33.403 75.3242 33.771 75.3242H36.4373C36.8053 75.3242 37.1039 75.6229 37.1039 75.9909Z" fill="#157DF5"/>
<path d="M59.7983 82.9832V60.5643H44.2373V83.998H58.7442C59.3261 83.998 59.7983 83.5434 59.7983 82.9832Z" fill="#E2EFFE"/>
<path d="M55.1196 67.526V70.1927C55.1196 70.5607 54.821 70.8594 54.453 70.8594H51.7867C51.4187 70.8594 51.1201 70.5607 51.1201 70.1927V67.526C51.1201 67.158 51.4187 66.8594 51.7867 66.8594H54.453C54.821 66.8594 55.1196 67.158 55.1196 67.526Z" fill="#0965CD"/>
<path d="M55.1196 75.6471V78.3138C55.1196 78.6818 54.821 78.9805 54.453 78.9805H51.7867C51.4187 78.9805 51.1201 78.6818 51.1201 78.3138V75.6471C51.1201 75.2791 51.4187 74.9805 51.7867 74.9805H54.453C54.821 74.9805 55.1196 75.2791 55.1196 75.6471Z" fill="#0965CD"/>
<path d="M44.2376 54.7949L47.76 58.4146L44.2376 62.0343H28V55.8098C28 55.2496 28.4722 54.7949 29.0541 54.7949H44.2376Z" fill="#40D98D"/>
<path d="M59.7983 55.8098V62.0343H44.2373V54.7949H58.7442C59.3261 54.7949 59.7983 55.2496 59.7983 55.8098Z" fill="#25BB71"/>
<path fill-rule="evenodd" clip-rule="evenodd" d="M35.1418 52C36.318 52 37.2715 52.9535 37.2715 54.1297L37.2715 58.0254C37.2715 59.2016 36.318 60.1551 35.1418 60.1551C33.9657 60.1551 33.0122 59.2016 33.0122 58.0254L33.0122 54.1297C33.0122 52.9535 33.9657 52 35.1418 52Z" fill="#E2EFFE"/>
<path fill-rule="evenodd" clip-rule="evenodd" d="M52.673 52C53.8491 52 54.8026 52.9535 54.8026 54.1297L54.8026 58.0254C54.8026 59.2016 53.8491 60.1551 52.673 60.1551C51.4968 60.1551 50.5433 59.2016 50.5433 58.0254L50.5433 54.1297C50.5433 52.9535 51.4968 52 52.673 52Z" fill="#B6D7FC"/>
<path d="M83.996 176.706V130.039C83.996 126.709 81.2871 124 77.9568 124H41.1725C40.2633 124 41.1725 124.738 41.1725 125.647C41.1725 126.556 41.9103 127.294 42.8195 127.294C44.3337 127.294 45.5646 128.525 45.5646 130.039V176.706C45.5646 178.522 47.0426 180 48.8587 180H80.7019C82.518 180 83.996 178.522 83.996 176.706Z" fill="#F0F7FE"/>
<path d="M84.2157 176.706V130.039C84.2157 126.709 81.5068 124 78.1765 124H65V180H80.9216C82.7377 180 84.2157 178.522 84.2157 176.706Z" fill="#E2EFFE"/>
<path d="M73.9683 162.54C73.9683 161.631 73.2304 160.893 72.3212 160.893H57.2389C56.3297 160.893 55.5918 161.631 55.5918 162.54C55.5918 163.45 56.3297 164.188 57.2389 164.188H72.3212C73.2304 164.188 73.9683 163.45 73.9683 162.54Z" fill="#157DF5"/>
<path d="M73.9685 162.54C73.9685 161.631 73.2306 160.893 72.3215 160.893H64.7803V164.188H72.3215C73.2306 164.188 73.9685 163.45 73.9685 162.54Z" fill="#0965CD"/>
<path d="M68.184 135.31C68.184 134.401 67.4461 133.663 66.5369 133.663H57.2389C56.3297 133.663 55.5918 134.401 55.5918 135.31C55.5918 136.219 56.3297 136.957 57.2389 136.957H66.5369C67.4461 136.957 68.184 136.219 68.184 135.31Z" fill="#157DF5"/>
<path d="M73.1842 135.31C73.1842 134.401 72.4463 133.663 71.5371 133.663H64.7803V136.957H71.5371C72.4463 136.957 73.1842 136.219 73.1842 135.31Z" fill="#0965CD"/>
<path d="M73.9683 169.568C73.9683 168.659 73.2304 167.921 72.3212 167.921H57.2389C56.3297 167.921 55.5918 168.659 55.5918 169.568C55.5918 170.477 56.3297 171.215 57.2389 171.215H72.3212C73.2304 171.215 73.9683 170.477 73.9683 169.568Z" fill="#40D98D"/>
<path d="M72.3215 167.921H64.7803V171.215H72.3215C73.2306 171.215 73.9685 170.477 73.9685 169.568C73.9685 168.659 73.2306 167.921 72.3215 167.921Z" fill="#25BB71"/>
<path d="M73.7403 144.483L68.4697 148.875C68.0316 149.24 67.4365 149.352 66.8951 149.172C64.1101 148.244 65.0181 148.547 62.2306 147.617C60.6871 148.303 59.5002 149 57.9078 149.872C57.0873 150.237 56.9383 149.41 56.5639 148.57C56.1984 147.748 56.5704 146.861 56.5704 146.861C59.5002 145.5 59.5002 145.5 61.4763 144.347C61.8518 144.181 62.2757 144.161 62.6655 144.29C64.1976 144.801 65.5073 145.238 67.0664 145.757L71.6321 141.953C72.3304 141.37 73.3692 141.464 73.9511 142.163C74.5342 142.862 74.4398 143.901 73.7403 144.483Z" fill="#40D98D"/>
<path d="M66.8951 149.172L64.7803 148.467V144.995L67.0664 145.757L71.632 141.953C72.3304 141.37 73.3691 141.464 73.9511 142.163C74.5342 142.862 74.4397 143.901 73.7403 144.483L68.4697 148.875C68.0316 149.24 67.4364 149.352 66.8951 149.172Z" fill="#25BB71"/>
<path d="M73.9683 155.515C73.9683 156.424 73.2304 157.162 72.3212 157.162H57.2389C56.3297 157.162 55.5918 156.424 55.5918 155.515V142.338C55.5918 141.429 56.3297 140.691 57.2389 140.691C58.148 140.691 58.8859 141.429 58.8859 142.338V153.868H72.3212C73.2304 153.868 73.9683 154.606 73.9683 155.515Z" fill="#282A52"/>
<path d="M73.9685 155.514C73.9685 156.423 73.2306 157.161 72.3215 157.161H64.7803V153.867H72.3215C73.2306 153.867 73.9685 154.605 73.9685 155.514Z" fill="#1E203E"/>
<path d="M45.5646 138.715V128.393C45.5646 125.968 43.5981 124.001 41.1724 124.001C38.7535 124.001 36.7803 125.961 36.7803 128.393V135.421C36.7803 137.24 38.255 138.715 40.0744 138.715H45.5646Z" fill="#B6D7FC"/>
<path d="M44.2376 154.352L52.6521 167.176L44.2376 180.001H29.0544C28.4723 180.001 28 179.546 28 178.986V158.037L44.2376 154.352Z" fill="#F0F7FE"/>
<path d="M37.1039 163.87V166.536C37.1039 166.904 36.8053 167.203 36.4373 167.203H33.771C33.403 167.203 33.1044 166.904 33.1044 166.536V163.87C33.1044 163.502 33.403 163.203 33.771 163.203H36.4373C36.8053 163.203 37.1039 163.502 37.1039 163.87Z" fill="#157DF5"/>
<path d="M37.1039 171.991V174.658C37.1039 175.026 36.8053 175.324 36.4373 175.324H33.771C33.403 175.324 33.1044 175.026 33.1044 174.658V171.991C33.1044 171.623 33.403 171.324 33.771 171.324H36.4373C36.8053 171.324 37.1039 171.623 37.1039 171.991Z" fill="#157DF5"/>
<path d="M59.7983 178.983V156.564H44.2373V179.998H58.7442C59.3261 179.998 59.7983 179.543 59.7983 178.983Z" fill="#E2EFFE"/>
<path d="M55.1196 163.526V166.193C55.1196 166.561 54.821 166.859 54.453 166.859H51.7867C51.4187 166.859 51.1201 166.561 51.1201 166.193V163.526C51.1201 163.158 51.4187 162.859 51.7867 162.859H54.453C54.821 162.859 55.1196 163.158 55.1196 163.526Z" fill="#0965CD"/>
<path d="M55.1196 171.647V174.314C55.1196 174.682 54.821 174.98 54.453 174.98H51.7867C51.4187 174.98 51.1201 174.682 51.1201 174.314V171.647C51.1201 171.279 51.4187 170.98 51.7867 170.98H54.453C54.821 170.98 55.1196 171.279 55.1196 171.647Z" fill="#0965CD"/>
<path d="M44.2376 150.795L47.76 154.415L44.2376 158.034H28V151.81C28 151.25 28.4722 150.795 29.0541 150.795H44.2376Z" fill="#40D98D"/>
<path d="M59.7983 151.81V158.034H44.2373V150.795H58.7442C59.3261 150.795 59.7983 151.25 59.7983 151.81Z" fill="#25BB71"/>
<path fill-rule="evenodd" clip-rule="evenodd" d="M35.1418 148C36.318 148 37.2715 148.953 37.2715 150.13L37.2715 154.025C37.2715 155.202 36.318 156.155 35.1418 156.155C33.9657 156.155 33.0122 155.202 33.0122 154.025L33.0122 150.13C33.0122 148.953 33.9657 148 35.1418 148Z" fill="#E2EFFE"/>
<path fill-rule="evenodd" clip-rule="evenodd" d="M52.673 148C53.8491 148 54.8026 148.953 54.8026 150.13L54.8026 154.025C54.8026 155.202 53.8491 156.155 52.673 156.155C51.4968 156.155 50.5433 155.202 50.5433 154.025L50.5433 150.13C50.5433 148.953 51.4968 148 52.673 148Z" fill="#B6D7FC"/>
<defs>
<filter id="filter0_d_6367_24497" x="10" y="9" width="96" height="96" filterUnits="userSpaceOnUse" color-interpolation-filters="sRGB">
<feFlood flood-opacity="0" result="BackgroundImageFix"/>
<feColorMatrix in="SourceAlpha" type="matrix" values="0 0 0 0 0 0 0 0 0 0 0 0 0 0 0 0 0 0 127 0" result="hardAlpha"/>
<feOffset dx="2" dy="1"/>
<feGaussianBlur stdDeviation="4"/>
<feColorMatrix type="matrix" values="0 0 0 0 0.0392157 0 0 0 0 0.0392157 0 0 0 0 0.0627451 0 0 0 0.08 0"/>
<feBlend mode="normal" in2="BackgroundImageFix" result="effect1_dropShadow_6367_24497"/>
<feBlend mode="normal" in="SourceGraphic" in2="effect1_dropShadow_6367_24497" result="shape"/>
</filter>
</defs>
</svg>
