<svg width="112" height="200" viewBox="0 0 112 200" fill="none" xmlns="http://www.w3.org/2000/svg">
<rect x="0.5" y="0.5" width="111" height="199" rx="4.5" stroke="#9747FF" stroke-dasharray="10 5"/>
<g filter="url(#filter0_d_17500_11343)">
<rect x="16" y="16" width="80" height="80" rx="8" fill="white"/>
</g>
<g clip-path="url(#clip0_17500_11343)">
<path d="M79.0008 66.9929L78.8367 71.9476L78.607 78.3132C78.6398 78.9367 78.3444 79.5601 77.7867 79.8555C77.2616 80.1835 76.5727 80.1835 76.0147 79.7898L73.3243 77.8537C68.9273 81.4633 62.6275 84.0008 55.9992 84.0008C50.7493 84.0008 44.9086 82.2508 40.0195 78.8384L45.7289 74.6383C48.7805 76.3446 52.2586 77.329 55.9992 77.329C59.7398 77.329 63.9397 76.246 67.4508 73.9492L64.9241 72.2759C64.432 71.9149 64.1366 71.3243 64.2023 70.7008C64.2681 70.1102 64.6946 69.5853 65.2853 69.3556C65.2853 69.3556 70.404 67.6493 74.6367 66.2713C75.3913 66.0416 76.1462 65.779 76.8025 65.5821C77.7867 65.1554 78.9352 65.9103 79.0008 66.9929Z" fill="#E2EFFE"/>
<path d="M79.0016 66.9929L78.8375 71.9476L78.6078 78.3132C78.6406 78.9367 78.3452 79.5601 77.7875 79.8555C77.2624 80.1835 76.5734 80.1835 76.0155 79.7898L73.3251 77.8537C68.9281 81.4633 62.6282 84.0008 56 84.0008V77.329C59.7406 77.329 63.9405 76.246 67.4516 73.9492L64.9249 72.2759C64.4328 71.9149 64.1374 71.3243 64.2031 70.7008C64.2689 70.1102 64.6954 69.5853 65.286 69.3556C65.286 69.3556 70.4048 67.6493 74.6375 66.2713C75.3921 66.0416 76.147 65.779 76.8032 65.5821C77.7875 65.1554 78.9359 65.9103 79.0016 66.9929Z" fill="#B6D7FC"/>
<path d="M45.0079 78.9969L40.0203 78.8328L33.6875 78.6031C33.0641 78.6359 32.4406 78.3405 32.1452 77.7828C31.8172 77.2577 31.8172 76.5688 32.2109 76.0108L34.147 73.3204C30.5324 68.8876 28 62.6149 28 55.9953C28 50.7088 29.7853 44.861 33.1624 40.0156L37.3625 45.725C35.6407 48.786 34.6719 52.2524 34.6719 55.9953C34.6719 59.736 35.6993 63.6251 38.0517 67.4469L39.7249 64.9202C40.0859 64.4281 40.6766 64.1327 41.3 64.1984C41.8906 64.2642 42.4155 64.6907 42.6452 65.2814C42.6452 65.2814 44.3516 70.4001 45.7296 74.6328C45.9593 75.3874 46.2219 76.1423 46.4188 76.7985C46.8454 77.7828 46.0905 78.9313 45.0079 78.9969Z" fill="#40D98D"/>
<path d="M71.9793 33.1624L66.2699 37.3625C63.2184 35.6563 59.7402 34.6719 55.9996 34.6719C51.9966 34.6719 48.2559 35.7876 44.548 38.0517L47.0747 39.7249C47.5668 40.0859 47.8622 40.6766 47.7965 41.3C47.7308 41.8906 47.3042 42.4155 46.7136 42.6452C46.7136 42.6452 41.5948 44.3516 37.3621 45.7296C36.6075 45.9593 35.8526 46.2219 35.1964 46.4188C34.212 46.8453 33.0637 46.0905 32.998 45.0078L33.1621 40.0202L33.3918 33.6875C33.359 33.0641 33.6544 32.4406 34.2121 32.1452C34.7372 31.8172 35.4262 31.8172 35.9841 32.2109L38.6745 34.147C43.0715 30.5703 49.3714 28 55.9996 28C61.2824 28 67.156 29.7828 71.9793 33.1624Z" fill="#E2EFFE"/>
<path d="M66.2703 37.3625C63.2187 35.6563 59.7406 34.6719 56 34.6719V28C61.2828 28 67.1564 29.7828 71.9797 33.1624L66.2703 37.3625Z" fill="#B6D7FC"/>
<path d="M78.8383 71.9483L79.0024 66.9936C78.9366 65.9109 77.7883 65.1561 76.804 65.5827C76.1478 65.7796 75.3929 66.0421 74.6383 66.2719C76.3775 63.1875 77.3289 59.6766 77.3289 56.0016C77.3289 51.4734 76.0492 47.9625 73.9491 44.55L72.2759 47.0767C71.9149 47.5687 71.3242 47.8642 70.7008 47.7984C70.1102 47.7327 69.5853 47.3061 69.3556 46.7155C69.3556 46.7155 67.6492 41.5968 66.2712 37.3641C66.0415 36.6095 65.7789 35.8546 65.582 35.1983C65.1555 34.214 65.9103 33.0656 66.993 33L71.9806 33.1641L78.3134 33.3937C78.9368 33.3609 79.5603 33.6564 79.8557 34.2141C80.1837 34.7392 80.1837 35.4281 79.79 35.986L77.8539 38.6765C81.4632 43.1061 84.0007 49.3732 84.0007 56.0015C84.0007 61.9077 82.021 67.3873 78.8383 71.9483Z" fill="#25BB71"/>
</g>
<path fill-rule="evenodd" clip-rule="evenodd" d="M47.0952 49C45.9381 49 45 49.9643 45 51.1538V54.3828V57.6154V60.8444C45 62.0339 45.9381 62.9982 47.0952 62.9982H51.2857C53.6001 62.9982 55.4762 61.0696 55.4762 58.6905C55.4762 57.3419 54.8733 56.138 53.9296 55.3482C54.2479 54.7409 54.4286 54.046 54.4286 53.3077C54.4286 50.9286 52.5525 49 50.2381 49H47.0952ZM48.1429 54.3828H50.2992C50.8494 54.3503 51.2857 53.8814 51.2857 53.3077C51.2857 52.7129 50.8167 52.2308 50.2381 52.2308H48.1429V54.3828ZM48.1429 59.7674V57.6154H50.2381C50.279 57.6154 50.3199 57.6148 50.3605 57.6136H51.2857C51.8643 57.6136 52.3333 58.0957 52.3333 58.6905C52.3333 59.2853 51.8643 59.7674 51.2857 59.7674H48.1429ZM60.5723 49C58.9154 49 57.5723 50.3431 57.5723 52V52.0892C57.5723 52.8705 57.8771 53.621 58.4219 54.1811L63.0324 58.9206C63.3407 59.2375 63.1162 59.7692 62.674 59.7692H59.1876C58.2955 59.7692 57.5723 60.4925 57.5723 61.3846C57.5723 62.2768 58.2955 63 59.1877 63H62.2866H64.0008C65.6577 63 67.0008 61.6569 67.0008 60V59.9108C67.0008 59.1295 66.696 58.379 66.1512 57.8189L61.5407 53.0794C61.2324 52.7625 61.4569 52.2308 61.8991 52.2308H65.3855C66.2776 52.2308 67.0008 51.5075 67.0008 50.6154C67.0008 49.7232 66.2776 49 65.3855 49H60.5723Z" fill="#157DF5"/>
<g clip-path="url(#clip1_17500_11343)">
<path d="M79.0008 162.993L78.8367 167.948L78.607 174.313C78.6398 174.937 78.3444 175.56 77.7867 175.856C77.2616 176.184 76.5727 176.184 76.0147 175.79L73.3243 173.854C68.9273 177.463 62.6275 180.001 55.9992 180.001C50.7493 180.001 44.9086 178.251 40.0195 174.838L45.7289 170.638C48.7805 172.345 52.2586 173.329 55.9992 173.329C59.7398 173.329 63.9397 172.246 67.4508 169.949L64.9241 168.276C64.432 167.915 64.1366 167.324 64.2023 166.701C64.2681 166.11 64.6946 165.585 65.2853 165.356C65.2853 165.356 70.404 163.649 74.6367 162.271C75.3913 162.042 76.1462 161.779 76.8025 161.582C77.7867 161.155 78.9352 161.91 79.0008 162.993Z" fill="#E2EFFE"/>
<path d="M79.0016 162.993L78.8375 167.948L78.6078 174.313C78.6406 174.937 78.3452 175.56 77.7875 175.856C77.2624 176.184 76.5734 176.184 76.0155 175.79L73.3251 173.854C68.9281 177.463 62.6282 180.001 56 180.001V173.329C59.7406 173.329 63.9405 172.246 67.4516 169.949L64.9249 168.276C64.4328 167.915 64.1374 167.324 64.2031 166.701C64.2689 166.11 64.6954 165.585 65.286 165.356C65.286 165.356 70.4048 163.649 74.6375 162.271C75.3921 162.042 76.147 161.779 76.8032 161.582C77.7875 161.155 78.9359 161.91 79.0016 162.993Z" fill="#B6D7FC"/>
<path d="M45.0079 174.997L40.0203 174.833L33.6875 174.603C33.0641 174.636 32.4406 174.341 32.1452 173.783C31.8172 173.258 31.8172 172.569 32.2109 172.011L34.147 169.32C30.5324 164.888 28 158.615 28 151.995C28 146.709 29.7853 140.861 33.1624 136.016L37.3625 141.725C35.6407 144.786 34.6719 148.252 34.6719 151.995C34.6719 155.736 35.6993 159.625 38.0517 163.447L39.7249 160.92C40.0859 160.428 40.6766 160.133 41.3 160.198C41.8906 160.264 42.4155 160.691 42.6452 161.281C42.6452 161.281 44.3516 166.4 45.7296 170.633C45.9593 171.387 46.2219 172.142 46.4188 172.799C46.8454 173.783 46.0905 174.931 45.0079 174.997Z" fill="#40D98D"/>
<path d="M71.9793 129.162L66.2699 133.363C63.2184 131.656 59.7402 130.672 55.9996 130.672C51.9966 130.672 48.2559 131.788 44.548 134.052L47.0747 135.725C47.5668 136.086 47.8622 136.677 47.7965 137.3C47.7308 137.891 47.3042 138.416 46.7136 138.645C46.7136 138.645 41.5948 140.352 37.3621 141.73C36.6075 141.959 35.8526 142.222 35.1964 142.419C34.212 142.845 33.0637 142.091 32.998 141.008L33.1621 136.02L33.3918 129.688C33.359 129.064 33.6544 128.441 34.2121 128.145C34.7372 127.817 35.4262 127.817 35.9841 128.211L38.6745 130.147C43.0715 126.57 49.3714 124 55.9996 124C61.2824 124 67.156 125.783 71.9793 129.162Z" fill="#E2EFFE"/>
<path d="M66.2703 133.363C63.2187 131.656 59.7406 130.672 56 130.672V124C61.2828 124 67.1564 125.783 71.9797 129.162L66.2703 133.363Z" fill="#B6D7FC"/>
<path d="M78.8383 167.948L79.0024 162.994C78.9366 161.911 77.7883 161.156 76.804 161.583C76.1478 161.78 75.3929 162.042 74.6383 162.272C76.3775 159.188 77.3289 155.677 77.3289 152.002C77.3289 147.473 76.0492 143.962 73.9491 140.55L72.2759 143.077C71.9149 143.569 71.3242 143.864 70.7008 143.798C70.1102 143.733 69.5853 143.306 69.3556 142.716C69.3556 142.716 67.6492 137.597 66.2712 133.364C66.0415 132.609 65.7789 131.855 65.582 131.198C65.1555 130.214 65.9103 129.066 66.993 129L71.9806 129.164L78.3134 129.394C78.9368 129.361 79.5603 129.656 79.8557 130.214C80.1837 130.739 80.1837 131.428 79.79 131.986L77.8539 134.676C81.4632 139.106 84.0007 145.373 84.0007 152.001C84.0007 157.908 82.021 163.387 78.8383 167.948Z" fill="#25BB71"/>
</g>
<path fill-rule="evenodd" clip-rule="evenodd" d="M47.0952 145C45.9381 145 45 145.964 45 147.154V150.383V153.615V156.844C45 158.034 45.9381 158.998 47.0952 158.998H51.2857C53.6001 158.998 55.4762 157.07 55.4762 154.691C55.4762 153.342 54.8733 152.138 53.9296 151.348C54.2479 150.741 54.4286 150.046 54.4286 149.308C54.4286 146.929 52.5525 145 50.2381 145H47.0952ZM48.1429 150.383H50.2992C50.8494 150.35 51.2857 149.881 51.2857 149.308C51.2857 148.713 50.8167 148.231 50.2381 148.231H48.1429V150.383ZM48.1429 155.767V153.615H50.2381C50.279 153.615 50.3199 153.615 50.3605 153.614H51.2857C51.8643 153.614 52.3333 154.096 52.3333 154.691C52.3333 155.285 51.8643 155.767 51.2857 155.767H48.1429ZM60.5723 145C58.9154 145 57.5723 146.343 57.5723 148V148.089C57.5723 148.871 57.8771 149.621 58.4219 150.181L63.0324 154.921C63.3407 155.238 63.1162 155.769 62.674 155.769H59.1876C58.2955 155.769 57.5723 156.492 57.5723 157.385C57.5723 158.277 58.2955 159 59.1877 159H62.2866H64.0008C65.6577 159 67.0008 157.657 67.0008 156V155.911C67.0008 155.129 66.696 154.379 66.1512 153.819L61.5407 149.079C61.2324 148.762 61.4569 148.231 61.8991 148.231H65.3855C66.2776 148.231 67.0008 147.508 67.0008 146.615C67.0008 145.723 66.2776 145 65.3855 145H60.5723Z" fill="#157DF5"/>
<defs>
<filter id="filter0_d_17500_11343" x="10" y="9" width="96" height="96" filterUnits="userSpaceOnUse" color-interpolation-filters="sRGB">
<feFlood flood-opacity="0" result="BackgroundImageFix"/>
<feColorMatrix in="SourceAlpha" type="matrix" values="0 0 0 0 0 0 0 0 0 0 0 0 0 0 0 0 0 0 127 0" result="hardAlpha"/>
<feOffset dx="2" dy="1"/>
<feGaussianBlur stdDeviation="4"/>
<feColorMatrix type="matrix" values="0 0 0 0 0.0392157 0 0 0 0 0.0392157 0 0 0 0 0.0627451 0 0 0 0.08 0"/>
<feBlend mode="normal" in2="BackgroundImageFix" result="effect1_dropShadow_17500_11343"/>
<feBlend mode="normal" in="SourceGraphic" in2="effect1_dropShadow_17500_11343" result="shape"/>
</filter>
<clipPath id="clip0_17500_11343">
<rect width="56" height="56" fill="white" transform="translate(28 28)"/>
</clipPath>
<clipPath id="clip1_17500_11343">
<rect width="56" height="56" fill="white" transform="translate(28 124)"/>
</clipPath>
</defs>
</svg>
