<svg width="112" height="200" viewBox="0 0 112 200" fill="none" xmlns="http://www.w3.org/2000/svg">
<rect x="0.5" y="0.5" width="111" height="199" rx="4.5" stroke="#9747FF" stroke-dasharray="10 5"/>
<g filter="url(#filter0_d_17500_11278)">
<rect x="16" y="16" width="80" height="80" rx="8" fill="white"/>
</g>
<path d="M79.0008 66.9929L78.8367 71.9476L78.607 78.3132C78.6398 78.9367 78.3444 79.5601 77.7867 79.8555C77.2616 80.1835 76.5727 80.1835 76.0147 79.7898L73.3243 77.8537C68.9273 81.4633 62.6275 84.0008 55.9992 84.0008C50.7493 84.0008 44.9086 82.2508 40.0195 78.8384L45.7289 74.6383C48.7805 76.3446 52.2586 77.329 55.9992 77.329C59.7398 77.329 63.9397 76.246 67.4508 73.9492L64.9241 72.2759C64.432 71.9149 64.1366 71.3243 64.2023 70.7008C64.2681 70.1102 64.6946 69.5853 65.2853 69.3556C65.2853 69.3556 70.404 67.6493 74.6367 66.2713C75.3913 66.0416 76.1462 65.779 76.8025 65.5821C77.7867 65.1554 78.9352 65.9103 79.0008 66.9929Z" fill="#E2EFFE"/>
<path d="M79.0016 66.9929L78.8375 71.9476L78.6078 78.3132C78.6406 78.9367 78.3452 79.5601 77.7875 79.8555C77.2624 80.1835 76.5734 80.1835 76.0155 79.7898L73.3251 77.8537C68.9281 81.4633 62.6282 84.0008 56 84.0008V77.329C59.7406 77.329 63.9405 76.246 67.4516 73.9492L64.9249 72.2759C64.4328 71.9149 64.1374 71.3243 64.2031 70.7008C64.2689 70.1102 64.6954 69.5853 65.286 69.3556C65.286 69.3556 70.4048 67.6493 74.6375 66.2713C75.3921 66.0416 76.147 65.779 76.8032 65.5821C77.7875 65.1554 78.9359 65.9103 79.0016 66.9929Z" fill="#B6D7FC"/>
<path d="M45.0079 78.9969L40.0203 78.8328L33.6875 78.6031C33.0641 78.6359 32.4406 78.3405 32.1452 77.7828C31.8172 77.2577 31.8172 76.5688 32.2109 76.0108L34.147 73.3204C30.5324 68.8876 28 62.6149 28 55.9953C28 50.7088 29.7853 44.861 33.1624 40.0156L37.3625 45.725C35.6407 48.786 34.6719 52.2524 34.6719 55.9953C34.6719 59.736 35.6993 63.6251 38.0517 67.4469L39.7249 64.9202C40.0859 64.4281 40.6766 64.1327 41.3 64.1984C41.8906 64.2642 42.4155 64.6907 42.6452 65.2814C42.6452 65.2814 44.3516 70.4001 45.7296 74.6328C45.9593 75.3874 46.2219 76.1423 46.4188 76.7985C46.8454 77.7828 46.0905 78.9313 45.0079 78.9969Z" fill="#40D98D"/>
<path d="M71.9793 33.1624L66.2699 37.3625C63.2184 35.6563 59.7402 34.6719 55.9996 34.6719C51.9966 34.6719 48.2559 35.7876 44.548 38.0517L47.0747 39.7249C47.5668 40.0859 47.8622 40.6766 47.7965 41.3C47.7308 41.8906 47.3042 42.4155 46.7136 42.6452C46.7136 42.6452 41.5948 44.3516 37.3621 45.7296C36.6075 45.9593 35.8526 46.2219 35.1964 46.4188C34.212 46.8453 33.0637 46.0905 32.998 45.0078L33.1621 40.0202L33.3918 33.6875C33.359 33.0641 33.6544 32.4406 34.2121 32.1452C34.7372 31.8172 35.4262 31.8172 35.9841 32.2109L38.6745 34.147C43.0715 30.5703 49.3714 28 55.9996 28C61.2824 28 67.156 29.7828 71.9793 33.1624Z" fill="#E2EFFE"/>
<path d="M66.2703 37.3625C63.2187 35.6563 59.7406 34.6719 56 34.6719V28C61.2828 28 67.1564 29.7828 71.9797 33.1624L66.2703 37.3625Z" fill="#B6D7FC"/>
<path d="M78.8383 71.9483L79.0024 66.9936C78.9366 65.9109 77.7883 65.1561 76.804 65.5827C76.1478 65.7796 75.3929 66.0421 74.6383 66.2719C76.3775 63.1875 77.3289 59.6766 77.3289 56.0016C77.3289 51.4734 76.0492 47.9625 73.9491 44.55L72.2759 47.0767C71.9149 47.5687 71.3242 47.8642 70.7008 47.7984C70.1102 47.7327 69.5853 47.3061 69.3556 46.7155C69.3556 46.7155 67.6492 41.5968 66.2712 37.3641C66.0415 36.6095 65.7789 35.8546 65.582 35.1983C65.1555 34.214 65.9103 33.0656 66.993 33L71.9806 33.1641L78.3134 33.3937C78.9368 33.3609 79.5603 33.6564 79.8557 34.2141C80.1837 34.7392 80.1837 35.4281 79.79 35.986L77.8539 38.6765C81.4632 43.1061 84.0007 49.3732 84.0007 56.0015C84.0007 61.9077 82.021 67.3873 78.8383 71.9483Z" fill="#25BB71"/>
<path d="M59.7474 46C59.5361 46 59.3648 46.1713 59.3648 46.3826C59.3648 46.5939 59.1935 46.7652 58.9822 46.7652H53.0088C52.7975 46.7652 52.6262 46.5939 52.6262 46.3826C52.6262 46.1713 52.4549 46 52.2436 46H46.9466C46.4238 46 46 46.4238 46 46.9466V65.0532C46 65.576 46.4238 65.9998 46.9466 65.9998H65.0525C65.5753 65.9998 65.9991 65.576 65.9991 65.0532V47.4429C65.9991 46.646 65.3531 46 64.5562 46H59.7474Z" fill="#157DF5"/>
<path d="M59.3644 46.7652H56.0018V65.9998H65.0522C65.5749 65.9998 65.9987 65.576 65.9987 65.0532V47.2703C65.9987 46.5687 65.4301 46 64.7285 46H59.3644V46.7652Z" fill="#0965CD"/>
<path d="M58.7548 52.0857H53.2418C52.9012 52.0857 52.625 51.8096 52.625 51.4689V46H59.3717V51.4689C59.3717 51.8096 59.0956 52.0857 58.7548 52.0857Z" fill="#40D98D"/>
<path d="M56.002 52.0857H58.7174C59.0793 52.0857 59.3726 51.7924 59.3726 51.4305V46H56.002V52.0857Z" fill="#25BB71"/>
<path d="M79.0008 162.993L78.8367 167.948L78.607 174.313C78.6398 174.937 78.3444 175.56 77.7867 175.856C77.2616 176.184 76.5727 176.184 76.0147 175.79L73.3243 173.854C68.9273 177.463 62.6275 180.001 55.9992 180.001C50.7493 180.001 44.9086 178.251 40.0195 174.838L45.7289 170.638C48.7805 172.345 52.2586 173.329 55.9992 173.329C59.7398 173.329 63.9397 172.246 67.4508 169.949L64.9241 168.276C64.432 167.915 64.1366 167.324 64.2023 166.701C64.2681 166.11 64.6946 165.585 65.2853 165.356C65.2853 165.356 70.404 163.649 74.6367 162.271C75.3913 162.042 76.1462 161.779 76.8025 161.582C77.7867 161.155 78.9352 161.91 79.0008 162.993Z" fill="#E2EFFE"/>
<path d="M79.0016 162.993L78.8375 167.948L78.6078 174.313C78.6406 174.937 78.3452 175.56 77.7875 175.856C77.2624 176.184 76.5734 176.184 76.0155 175.79L73.3251 173.854C68.9281 177.463 62.6282 180.001 56 180.001V173.329C59.7406 173.329 63.9405 172.246 67.4516 169.949L64.9249 168.276C64.4328 167.915 64.1374 167.324 64.2031 166.701C64.2689 166.11 64.6954 165.585 65.286 165.356C65.286 165.356 70.4048 163.649 74.6375 162.271C75.3921 162.042 76.147 161.779 76.8032 161.582C77.7875 161.155 78.9359 161.91 79.0016 162.993Z" fill="#B6D7FC"/>
<path d="M45.0079 174.997L40.0203 174.833L33.6875 174.603C33.0641 174.636 32.4406 174.341 32.1452 173.783C31.8172 173.258 31.8172 172.569 32.2109 172.011L34.147 169.32C30.5324 164.888 28 158.615 28 151.995C28 146.709 29.7853 140.861 33.1624 136.016L37.3625 141.725C35.6407 144.786 34.6719 148.252 34.6719 151.995C34.6719 155.736 35.6993 159.625 38.0517 163.447L39.7249 160.92C40.0859 160.428 40.6766 160.133 41.3 160.198C41.8906 160.264 42.4155 160.691 42.6452 161.281C42.6452 161.281 44.3516 166.4 45.7296 170.633C45.9593 171.387 46.2219 172.142 46.4188 172.799C46.8454 173.783 46.0905 174.931 45.0079 174.997Z" fill="#40D98D"/>
<path d="M71.9793 129.162L66.2699 133.363C63.2184 131.656 59.7402 130.672 55.9996 130.672C51.9966 130.672 48.2559 131.788 44.548 134.052L47.0747 135.725C47.5668 136.086 47.8622 136.677 47.7965 137.3C47.7308 137.891 47.3042 138.416 46.7136 138.645C46.7136 138.645 41.5948 140.352 37.3621 141.73C36.6075 141.959 35.8526 142.222 35.1964 142.419C34.212 142.845 33.0637 142.091 32.998 141.008L33.1621 136.02L33.3918 129.688C33.359 129.064 33.6544 128.441 34.2121 128.145C34.7372 127.817 35.4262 127.817 35.9841 128.211L38.6745 130.147C43.0715 126.57 49.3714 124 55.9996 124C61.2824 124 67.156 125.783 71.9793 129.162Z" fill="#E2EFFE"/>
<path d="M66.2703 133.363C63.2187 131.656 59.7406 130.672 56 130.672V124C61.2828 124 67.1564 125.783 71.9797 129.162L66.2703 133.363Z" fill="#B6D7FC"/>
<path d="M78.8383 167.948L79.0024 162.994C78.9366 161.911 77.7883 161.156 76.804 161.583C76.1478 161.78 75.3929 162.042 74.6383 162.272C76.3775 159.188 77.3289 155.677 77.3289 152.002C77.3289 147.473 76.0492 143.962 73.9491 140.55L72.2759 143.077C71.9149 143.569 71.3242 143.864 70.7008 143.798C70.1102 143.733 69.5853 143.306 69.3556 142.716C69.3556 142.716 67.6492 137.597 66.2712 133.364C66.0415 132.609 65.7789 131.855 65.582 131.198C65.1555 130.214 65.9103 129.066 66.993 129L71.9806 129.164L78.3134 129.394C78.9368 129.361 79.5603 129.656 79.8557 130.214C80.1837 130.739 80.1837 131.428 79.79 131.986L77.8539 134.676C81.4632 139.106 84.0007 145.373 84.0007 152.001C84.0007 157.908 82.021 163.387 78.8383 167.948Z" fill="#25BB71"/>
<path d="M59.7474 142C59.5361 142 59.3648 142.171 59.3648 142.383C59.3648 142.594 59.1935 142.765 58.9822 142.765H53.0088C52.7975 142.765 52.6262 142.594 52.6262 142.383C52.6262 142.171 52.4549 142 52.2436 142H46.9466C46.4238 142 46 142.424 46 142.947V161.053C46 161.576 46.4238 162 46.9466 162H65.0525C65.5753 162 65.9991 161.576 65.9991 161.053V143.443C65.9991 142.646 65.3531 142 64.5562 142H59.7474Z" fill="#157DF5"/>
<path d="M59.3644 142.765H56.0018V162H65.0522C65.5749 162 65.9987 161.576 65.9987 161.053V143.27C65.9987 142.569 65.4301 142 64.7285 142H59.3644V142.765Z" fill="#0965CD"/>
<path d="M58.7548 148.086H53.2418C52.9012 148.086 52.625 147.81 52.625 147.469V142H59.3717V147.469C59.3717 147.81 59.0956 148.086 58.7548 148.086Z" fill="#40D98D"/>
<path d="M56.002 148.086H58.7174C59.0793 148.086 59.3726 147.792 59.3726 147.431V142H56.002V148.086Z" fill="#25BB71"/>
<defs>
<filter id="filter0_d_17500_11278" x="10" y="9" width="96" height="96" filterUnits="userSpaceOnUse" color-interpolation-filters="sRGB">
<feFlood flood-opacity="0" result="BackgroundImageFix"/>
<feColorMatrix in="SourceAlpha" type="matrix" values="0 0 0 0 0 0 0 0 0 0 0 0 0 0 0 0 0 0 127 0" result="hardAlpha"/>
<feOffset dx="2" dy="1"/>
<feGaussianBlur stdDeviation="4"/>
<feColorMatrix type="matrix" values="0 0 0 0 0.0392157 0 0 0 0 0.0392157 0 0 0 0 0.0627451 0 0 0 0.08 0"/>
<feBlend mode="normal" in2="BackgroundImageFix" result="effect1_dropShadow_17500_11278"/>
<feBlend mode="normal" in="SourceGraphic" in2="effect1_dropShadow_17500_11278" result="shape"/>
</filter>
</defs>
</svg>
