<svg width="112" height="200" viewBox="0 0 112 200" fill="none" xmlns="http://www.w3.org/2000/svg">
<rect x="0.5" y="0.5" width="111" height="199" rx="4.5" stroke="#9747FF" stroke-dasharray="10 5"/>
<g filter="url(#filter0_d_37969_11669)">
<rect x="16" y="16" width="80" height="80" rx="8" fill="white"/>
</g>
<path fill-rule="evenodd" clip-rule="evenodd" d="M45.6 44.0079L45.6 44.0079C42.9715 43.8527 40.967 46.0088 41.0095 48.4454C41.0516 50.866 41.2462 52.8985 41.8713 54.8904C41.3133 56.3992 41 58.0282 41 59.7301C41 64.368 42.8881 68.0312 45.8254 70.484C48.6942 72.8797 52.4054 73.9984 55.9946 73.9984C59.5837 73.9984 63.2949 72.8797 66.1637 70.484C69.101 68.0312 70.9891 64.368 70.9891 59.7301C70.9891 58.0414 70.6806 56.4244 70.1307 54.9254C70.7614 52.9262 70.9574 50.8875 70.9998 48.4572L70.9998 48.4569C71.042 46.0208 69.0382 43.8644 66.4093 44.0196L66.4092 44.0196C64.1485 44.1532 62.0172 44.6263 60.1363 45.5654C58.8097 45.1626 57.4157 44.9417 55.9945 44.9417C54.5831 44.9417 53.1983 45.1596 51.88 45.5572C49.9973 44.6157 47.8636 44.1416 45.6 44.0079ZM67.9891 59.7301C67.9888 74.7542 44 74.7541 44 59.7298C44 59.7299 44 59.73 44 59.7301C44 74.7545 67.9891 74.7545 67.9891 59.7301ZM68.0002 48.4049C68.0004 48.3971 68.0004 48.3894 68.0004 48.3817C68.0004 48.3893 68.0004 48.3969 68.0002 48.4046C68.0002 48.4047 68.0002 48.4048 68.0002 48.4049ZM60.8402 48.5983L59.8373 48.6254C60.0381 48.6976 60.2371 48.7752 60.4341 48.8579C60.5665 48.768 60.7019 48.6815 60.8402 48.5983Z" fill="white"/>
<path d="M44.009 48.3929C43.9953 47.6039 44.6363 46.9559 45.4231 47.0024C49.022 47.215 51.7609 48.3903 53.5169 50.6759C53.668 50.8725 53.6296 51.1515 53.4399 51.311L46.7231 56.9536C46.4994 57.1416 46.1602 57.087 46.0131 56.8343C44.5002 54.2344 44.0725 52.043 44.009 48.3929Z" fill="#FFA099"/>
<path d="M68.0002 48.4046C68.0139 47.6156 67.3731 46.9676 66.5861 47.0141C62.9872 47.2267 60.2483 48.402 58.4923 50.6876C58.3413 50.8842 58.3796 51.1633 58.5694 51.3227L65.2861 56.9653C65.5099 57.1533 65.8491 57.0987 65.9962 56.846C67.5092 54.2461 67.9366 52.0547 68.0002 48.4046Z" fill="#FF7E75"/>
<path d="M67.9891 59.7298C67.9891 53.2192 62.1313 47.9414 55.9945 47.9414C49.8578 47.9414 44 53.2192 44 59.7298C44 74.7542 67.9891 74.7542 67.9891 59.7298Z" fill="#FFDECC"/>
<path d="M56 70.9981C61.9954 70.9958 67.9891 67.2397 67.9891 59.7298C67.9891 53.2212 62.1347 47.9446 56 47.9414V70.9981Z" fill="#FFCFB5"/>
<path d="M61.9435 61.9514C61.9435 59.3743 59.1317 57.2852 56.1861 57.2852C53.2405 57.2852 50.4287 59.3743 50.4287 61.9514C50.4287 67.8986 61.9435 67.8986 61.9435 61.9514Z" fill="#FFA099"/>
<path d="M61.2723 55.1481C61.2723 54.3522 60.6278 53.707 59.8329 53.707C59.038 53.707 58.3936 54.3522 58.3936 55.1481C58.3936 55.9439 59.038 56.5891 59.8329 56.5891C60.6278 56.5891 61.2723 55.9439 61.2723 55.1481Z" fill="#1E203E"/>
<path d="M53.5965 55.1481C53.5965 54.3522 52.952 53.707 52.1571 53.707C51.3622 53.707 50.7178 54.3522 50.7178 55.1481C50.7178 55.9439 51.3622 56.5891 52.1571 56.5891C52.952 56.5891 53.5965 55.9439 53.5965 55.1481Z" fill="#282A52"/>
<path fill-rule="evenodd" clip-rule="evenodd" d="M54.316 63.6204C53.7861 63.6204 53.3564 63.1902 53.3564 62.6597V61.699C53.3564 61.1684 53.7861 60.7383 54.316 60.7383C54.846 60.7383 55.2756 61.1684 55.2756 61.699V62.6597C55.2756 63.1902 54.846 63.6204 54.316 63.6204Z" fill="#282A52"/>
<path d="M56 66.4097C58.9393 66.4751 61.9433 64.989 61.9433 61.9514C61.9433 59.3743 59.1316 57.2852 56.1859 57.2852C56.1239 57.2852 56.0619 57.2861 56 57.2879V66.4097Z" fill="#FF7E75"/>
<path fill-rule="evenodd" clip-rule="evenodd" d="M57.6754 63.6204C57.1454 63.6204 56.7158 63.1902 56.7158 62.6597V61.699C56.7158 61.1684 57.1454 60.7383 57.6754 60.7383C58.2053 60.7383 58.635 61.1684 58.635 61.699V62.6597C58.635 63.1902 58.2053 63.6204 57.6754 63.6204Z" fill="#1E203E"/>
<path d="M79.0008 66.9929L78.8367 71.9476L78.607 78.3132C78.6398 78.9367 78.3444 79.5601 77.7867 79.8555C77.2616 80.1835 76.5727 80.1835 76.0147 79.7898L73.3243 77.8537C68.9273 81.4633 62.6275 84.0008 55.9992 84.0008C50.7493 84.0008 44.9086 82.2508 40.0195 78.8384L45.7289 74.6383C48.7805 76.3446 52.2586 77.329 55.9992 77.329C59.7398 77.329 63.9397 76.246 67.4508 73.9492L64.9241 72.2759C64.432 71.9149 64.1366 71.3243 64.2023 70.7008C64.2681 70.1102 64.6946 69.5853 65.2853 69.3556C65.2853 69.3556 70.404 67.6493 74.6367 66.2713C75.3913 66.0416 76.1462 65.779 76.8025 65.5821C77.7867 65.1554 78.9352 65.9103 79.0008 66.9929Z" fill="#E2EFFE"/>
<path d="M79.0016 66.9929L78.8375 71.9476L78.6078 78.3132C78.6406 78.9367 78.3452 79.5601 77.7875 79.8555C77.2624 80.1835 76.5734 80.1835 76.0155 79.7898L73.3251 77.8537C68.9281 81.4633 62.6282 84.0008 56 84.0008V77.329C59.7406 77.329 63.9405 76.246 67.4516 73.9492L64.9249 72.2759C64.4328 71.9149 64.1374 71.3243 64.2031 70.7008C64.2689 70.1102 64.6954 69.5853 65.286 69.3556C65.286 69.3556 70.4048 67.6493 74.6375 66.2713C75.3921 66.0416 76.147 65.779 76.8032 65.5821C77.7875 65.1554 78.9359 65.9103 79.0016 66.9929Z" fill="#B6D7FC"/>
<path d="M45.0079 78.9969L40.0203 78.8328L33.6875 78.6031C33.0641 78.6359 32.4406 78.3405 32.1452 77.7828C31.8172 77.2577 31.8172 76.5688 32.2109 76.0108L33.7232 73.9093C33.9732 73.5619 33.9578 73.0914 33.6971 72.7519C30.324 68.3597 28 62.3367 28 55.9953C28 51.1037 29.5286 45.7315 32.4324 41.1175C32.7778 40.5686 33.5614 40.558 33.9457 41.0804L37.0003 45.2327C37.2208 45.5324 37.2436 45.9326 37.0705 46.2619C35.5316 49.1891 34.6719 52.4696 34.6719 55.9953C34.6719 59.3177 35.4824 62.757 37.3117 66.1623C37.6389 66.7715 38.4883 66.7876 38.8701 66.2111L39.7249 64.9202C40.0859 64.4281 40.6766 64.1327 41.3 64.1984C41.8834 64.2634 42.4026 64.6803 42.6366 65.2597C42.6424 65.2741 42.647 65.2867 42.6519 65.3015C42.7691 65.6532 44.4018 70.5543 45.7296 74.6328C45.9593 75.3874 46.2219 76.1423 46.4188 76.7985C46.8454 77.7828 46.0905 78.9313 45.0079 78.9969Z" fill="#157DF5"/>
<path d="M71.9793 33.1624L66.2699 37.3625C63.2184 35.6563 59.7402 34.6719 55.9996 34.6719C51.9966 34.6719 48.2559 35.7876 44.548 38.0517L47.0747 39.7249C47.5668 40.0859 47.8622 40.6766 47.7965 41.3C47.7308 41.8906 47.3042 42.4155 46.7136 42.6452C46.7136 42.6452 41.5948 44.3516 37.3621 45.7296C36.6075 45.9593 35.8526 46.2219 35.1964 46.4188C34.212 46.8453 33.0637 46.0905 32.998 45.0078L33.1621 40.0202L33.3918 33.6875C33.359 33.0641 33.6544 32.4406 34.2121 32.1452C34.7372 31.8172 35.4262 31.8172 35.9841 32.2109L38.6745 34.147C43.0715 30.5703 49.3714 28 55.9996 28C61.2824 28 67.156 29.7828 71.9793 33.1624Z" fill="#E2EFFE"/>
<path d="M66.2703 37.3625C63.2187 35.6563 59.7406 34.6719 56 34.6719V28C61.2828 28 67.1564 29.7828 71.9797 33.1624L66.2703 37.3625Z" fill="#B6D7FC"/>
<path d="M78.8383 71.9483L79.0024 66.9936C78.9366 65.9109 77.7883 65.1561 76.804 65.5827C76.1478 65.7796 75.3929 66.0421 74.6383 66.2719C76.3775 63.1875 77.3289 59.6766 77.3289 56.0016C77.3289 51.4734 76.0492 47.9625 73.9491 44.55L72.2759 47.0767C71.9149 47.5687 71.3242 47.8642 70.7008 47.7984C70.1102 47.7327 69.5853 47.3061 69.3556 46.7155C69.3556 46.7155 67.6492 41.5968 66.2712 37.3641C66.0415 36.6095 65.7789 35.8546 65.582 35.1983C65.1555 34.214 65.9103 33.0656 66.993 33L71.9806 33.1641L78.3134 33.3937C78.9368 33.3609 79.5603 33.6564 79.8557 34.2141C80.1837 34.7392 80.1837 35.4281 79.79 35.986L77.8539 38.6765C81.4632 43.1061 84.0007 49.3732 84.0007 56.0015C84.0007 61.9077 82.021 67.3873 78.8383 71.9483Z" fill="#40D98D"/>
<path fill-rule="evenodd" clip-rule="evenodd" d="M45.6 140.008L45.6 140.008C42.9715 139.853 40.967 142.009 41.0095 144.445C41.0516 146.866 41.2462 148.899 41.8713 150.89C41.3133 152.399 41 154.028 41 155.73C41 160.368 42.8881 164.031 45.8254 166.484C48.6942 168.88 52.4054 169.998 55.9946 169.998C59.5837 169.998 63.2949 168.88 66.1637 166.484C69.101 164.031 70.9891 160.368 70.9891 155.73C70.9891 154.041 70.6806 152.424 70.1307 150.925C70.7614 148.926 70.9574 146.887 70.9998 144.457L70.9998 144.457C71.042 142.021 69.0382 139.864 66.4093 140.02L66.4092 140.02C64.1485 140.153 62.0172 140.626 60.1363 141.565C58.8097 141.163 57.4157 140.942 55.9945 140.942C54.5831 140.942 53.1983 141.16 51.88 141.557C49.9973 140.616 47.8636 140.142 45.6 140.008ZM67.9891 155.73C67.9888 170.754 44 170.754 44 155.73C44 155.73 44 155.73 44 155.73C44 170.754 67.9891 170.754 67.9891 155.73ZM68.0002 144.405C68.0004 144.397 68.0004 144.389 68.0004 144.382C68.0004 144.389 68.0004 144.397 68.0002 144.405C68.0002 144.405 68.0002 144.405 68.0002 144.405ZM60.8402 144.598L59.8373 144.625C60.0381 144.698 60.2371 144.775 60.4341 144.858C60.5665 144.768 60.7019 144.682 60.8402 144.598Z" fill="white"/>
<path d="M44.009 144.393C43.9953 143.604 44.6363 142.956 45.4231 143.002C49.022 143.215 51.7609 144.39 53.5169 146.676C53.668 146.872 53.6296 147.152 53.4399 147.311L46.7231 152.954C46.4994 153.142 46.1602 153.087 46.0131 152.834C44.5002 150.234 44.0725 148.043 44.009 144.393Z" fill="#FFA099"/>
<path d="M68.0002 144.405C68.0139 143.616 67.3731 142.968 66.5861 143.014C62.9872 143.227 60.2483 144.402 58.4923 146.688C58.3413 146.884 58.3796 147.163 58.5694 147.323L65.2861 152.965C65.5099 153.153 65.8491 153.099 65.9962 152.846C67.5092 150.246 67.9366 148.055 68.0002 144.405Z" fill="#FF7E75"/>
<path d="M67.9891 155.73C67.9891 149.219 62.1313 143.941 55.9945 143.941C49.8578 143.941 44 149.219 44 155.73C44 170.754 67.9891 170.754 67.9891 155.73Z" fill="#FFDECC"/>
<path d="M56 166.998C61.9954 166.996 67.9891 163.24 67.9891 155.73C67.9891 149.221 62.1347 143.945 56 143.941V166.998Z" fill="#FFCFB5"/>
<path d="M61.9435 157.951C61.9435 155.374 59.1317 153.285 56.1861 153.285C53.2405 153.285 50.4287 155.374 50.4287 157.951C50.4287 163.899 61.9435 163.899 61.9435 157.951Z" fill="#FFA099"/>
<path d="M61.2723 151.148C61.2723 150.352 60.6278 149.707 59.8329 149.707C59.038 149.707 58.3936 150.352 58.3936 151.148C58.3936 151.944 59.038 152.589 59.8329 152.589C60.6278 152.589 61.2723 151.944 61.2723 151.148Z" fill="#1E203E"/>
<path d="M53.5965 151.148C53.5965 150.352 52.952 149.707 52.1571 149.707C51.3622 149.707 50.7178 150.352 50.7178 151.148C50.7178 151.944 51.3622 152.589 52.1571 152.589C52.952 152.589 53.5965 151.944 53.5965 151.148Z" fill="#282A52"/>
<path fill-rule="evenodd" clip-rule="evenodd" d="M54.316 159.62C53.7861 159.62 53.3564 159.19 53.3564 158.66V157.699C53.3564 157.168 53.7861 156.738 54.316 156.738C54.846 156.738 55.2756 157.168 55.2756 157.699V158.66C55.2756 159.19 54.846 159.62 54.316 159.62Z" fill="#282A52"/>
<path d="M56 162.41C58.9393 162.475 61.9433 160.989 61.9433 157.951C61.9433 155.374 59.1316 153.285 56.1859 153.285C56.1239 153.285 56.0619 153.286 56 153.288V162.41Z" fill="#FF7E75"/>
<path fill-rule="evenodd" clip-rule="evenodd" d="M57.6754 159.62C57.1454 159.62 56.7158 159.19 56.7158 158.66V157.699C56.7158 157.168 57.1454 156.738 57.6754 156.738C58.2053 156.738 58.635 157.168 58.635 157.699V158.66C58.635 159.19 58.2053 159.62 57.6754 159.62Z" fill="#1E203E"/>
<path d="M79.0008 162.993L78.8367 167.948L78.607 174.313C78.6398 174.937 78.3444 175.56 77.7867 175.856C77.2616 176.184 76.5727 176.184 76.0147 175.79L73.3243 173.854C68.9273 177.463 62.6275 180.001 55.9992 180.001C50.7493 180.001 44.9086 178.251 40.0195 174.838L45.7289 170.638C48.7805 172.345 52.2586 173.329 55.9992 173.329C59.7398 173.329 63.9397 172.246 67.4508 169.949L64.9241 168.276C64.432 167.915 64.1366 167.324 64.2023 166.701C64.2681 166.11 64.6946 165.585 65.2853 165.356C65.2853 165.356 70.404 163.649 74.6367 162.271C75.3913 162.042 76.1462 161.779 76.8025 161.582C77.7867 161.155 78.9352 161.91 79.0008 162.993Z" fill="#E2EFFE"/>
<path d="M79.0016 162.993L78.8375 167.948L78.6078 174.313C78.6406 174.937 78.3452 175.56 77.7875 175.856C77.2624 176.184 76.5734 176.184 76.0155 175.79L73.3251 173.854C68.9281 177.463 62.6282 180.001 56 180.001V173.329C59.7406 173.329 63.9405 172.246 67.4516 169.949L64.9249 168.276C64.4328 167.915 64.1374 167.324 64.2031 166.701C64.2689 166.11 64.6954 165.585 65.286 165.356C65.286 165.356 70.4048 163.649 74.6375 162.271C75.3921 162.042 76.147 161.779 76.8032 161.582C77.7875 161.155 78.9359 161.91 79.0016 162.993Z" fill="#B6D7FC"/>
<path d="M45.0079 174.997L40.0203 174.833L33.6875 174.603C33.0641 174.636 32.4406 174.341 32.1452 173.783C31.8172 173.258 31.8172 172.569 32.2109 172.011L33.7232 169.909C33.9732 169.562 33.9578 169.091 33.6971 168.752C30.324 164.36 28 158.337 28 151.995C28 147.104 29.5286 141.731 32.4324 137.118C32.7778 136.569 33.5614 136.558 33.9457 137.08L37.0003 141.233C37.2208 141.532 37.2436 141.933 37.0705 142.262C35.5316 145.189 34.6719 148.47 34.6719 151.995C34.6719 155.318 35.4824 158.757 37.3117 162.162C37.6389 162.771 38.4883 162.788 38.8701 162.211L39.7249 160.92C40.0859 160.428 40.6766 160.133 41.3 160.198C41.8834 160.263 42.4026 160.68 42.6366 161.26C42.6424 161.274 42.647 161.287 42.6519 161.301C42.7691 161.653 44.4018 166.554 45.7296 170.633C45.9593 171.387 46.2219 172.142 46.4188 172.799C46.8454 173.783 46.0905 174.931 45.0079 174.997Z" fill="#157DF5"/>
<path d="M71.9793 129.162L66.2699 133.363C63.2184 131.656 59.7402 130.672 55.9996 130.672C51.9966 130.672 48.2559 131.788 44.548 134.052L47.0747 135.725C47.5668 136.086 47.8622 136.677 47.7965 137.3C47.7308 137.891 47.3042 138.416 46.7136 138.645C46.7136 138.645 41.5948 140.352 37.3621 141.73C36.6075 141.959 35.8526 142.222 35.1964 142.419C34.212 142.845 33.0637 142.091 32.998 141.008L33.1621 136.02L33.3918 129.688C33.359 129.064 33.6544 128.441 34.2121 128.145C34.7372 127.817 35.4262 127.817 35.9841 128.211L38.6745 130.147C43.0715 126.57 49.3714 124 55.9996 124C61.2824 124 67.156 125.783 71.9793 129.162Z" fill="#E2EFFE"/>
<path d="M66.2703 133.363C63.2187 131.656 59.7406 130.672 56 130.672V124C61.2828 124 67.1564 125.783 71.9797 129.162L66.2703 133.363Z" fill="#B6D7FC"/>
<path d="M78.8383 167.948L79.0024 162.994C78.9366 161.911 77.7883 161.156 76.804 161.583C76.1478 161.78 75.3929 162.042 74.6383 162.272C76.3775 159.188 77.3289 155.677 77.3289 152.002C77.3289 147.473 76.0492 143.962 73.9491 140.55L72.2759 143.077C71.9149 143.569 71.3242 143.864 70.7008 143.798C70.1102 143.733 69.5853 143.306 69.3556 142.716C69.3556 142.716 67.6492 137.597 66.2712 133.364C66.0415 132.609 65.7789 131.855 65.582 131.198C65.1555 130.214 65.9103 129.066 66.993 129L71.9806 129.164L78.3134 129.394C78.9368 129.361 79.5603 129.656 79.8557 130.214C80.1837 130.739 80.1837 131.428 79.79 131.986L77.8539 134.676C81.4632 139.106 84.0007 145.373 84.0007 152.001C84.0007 157.908 82.021 163.387 78.8383 167.948Z" fill="#40D98D"/>
<defs>
<filter id="filter0_d_37969_11669" x="10" y="9" width="96" height="96" filterUnits="userSpaceOnUse" color-interpolation-filters="sRGB">
<feFlood flood-opacity="0" result="BackgroundImageFix"/>
<feColorMatrix in="SourceAlpha" type="matrix" values="0 0 0 0 0 0 0 0 0 0 0 0 0 0 0 0 0 0 127 0" result="hardAlpha"/>
<feOffset dx="2" dy="1"/>
<feGaussianBlur stdDeviation="4"/>
<feColorMatrix type="matrix" values="0 0 0 0 0.0392157 0 0 0 0 0.0392157 0 0 0 0 0.0627451 0 0 0 0.08 0"/>
<feBlend mode="normal" in2="BackgroundImageFix" result="effect1_dropShadow_37969_11669"/>
<feBlend mode="normal" in="SourceGraphic" in2="effect1_dropShadow_37969_11669" result="shape"/>
</filter>
</defs>
</svg>
