<svg width="112" height="208" viewBox="0 0 112 208" fill="none" xmlns="http://www.w3.org/2000/svg">
<rect x="0.5" y="0.5" width="111" height="207" rx="4.5" stroke="#9747FF" stroke-dasharray="10 5"/>
<g filter="url(#filter0_dd_19799_58916)">
<rect x="16" y="16" width="80" height="80" rx="8" fill="white"/>
</g>
<path d="M78.7864 36.2048C78.0025 35.4279 76.9599 35 75.8508 35H62V79H75.8108C78.0961 79 79.9575 77.1593 79.96 74.8967L80 39.1124C80.0012 38.0144 79.5702 36.9817 78.7864 36.2048Z" fill="#F0F7FE"/>
<path d="M72.5841 32.7248C71.6695 31.7939 70.4532 31.2812 69.1592 31.2812H36.8875C34.2213 31.2812 32.0497 33.4868 32.0467 36.1977L32 79.0727C31.9985 80.3883 32.5014 81.6256 33.4159 82.5565C34.3305 83.4874 35.5468 84 36.8408 84H69.1125C71.7787 84 73.9504 81.7946 73.9533 79.0836L74 36.2086C74.0014 34.8929 73.4986 33.6557 72.5841 32.7248Z" fill="#F0F7FE"/>
<path d="M72.5841 32.7248C71.6695 31.7939 70.4532 31.2812 69.1592 31.2812H53V84H69.1125C71.7787 84 73.9504 81.7946 73.9533 79.0836L74 36.2086C74.0014 34.8929 73.4986 33.6557 72.5841 32.7248Z" fill="#E2EFFE"/>
<path d="M62.6812 34.5625H43.3182C42.724 34.5625 42.2424 34.0728 42.2424 33.4688V29.0938C42.2424 28.4897 42.724 28 43.3182 28H62.6812C63.2753 28 63.7569 28.4897 63.7569 29.0938V33.4688C63.7569 34.0728 63.2753 34.5625 62.6812 34.5625Z" fill="#157DF5"/>
<path d="M62.6813 28H52.9998V34.5625H62.6813C63.2754 34.5625 63.757 34.0728 63.757 33.4688V29.0938C63.757 28.4897 63.2754 28 62.6813 28Z" fill="#0965CD"/>
<path d="M69.0771 50.9688H57.613C56.7218 50.9688 55.9994 50.2342 55.9994 49.3281C55.9994 48.4221 56.7218 47.6875 57.613 47.6875H69.0771C69.9682 47.6875 70.6907 48.4221 70.6907 49.3281C70.6907 50.2342 69.9682 50.9688 69.0771 50.9688Z" fill="#0965CD"/>
<path d="M63.0771 61.9062H57.613C56.7218 61.9062 55.9994 61.1717 55.9994 60.2656C55.9994 59.3596 56.7218 58.625 57.613 58.625H63.0771C63.9682 58.625 64.6907 59.3596 64.6907 60.2656C64.6907 61.1717 63.9682 61.9062 63.0771 61.9062Z" fill="#1E203E"/>
<path d="M69.1232 72.8438H57.613C56.7218 72.8438 55.9994 72.1092 55.9994 71.2031C55.9994 70.2971 56.7218 69.5625 57.613 69.5625H69.1232C70.0144 69.5625 70.7368 70.2971 70.7368 71.2031C70.7368 72.1092 70.0144 72.8438 69.1232 72.8438Z" fill="#0965CD"/>
<path d="M40.9601 52.6037C40.532 52.6037 40.1217 52.4308 39.819 52.1231L37.8007 50.0708C37.1706 49.4301 37.1706 48.3914 37.8007 47.7507C38.4308 47.1101 39.4524 47.1101 40.0826 47.7507C40.5648 48.241 41.3552 48.241 41.8374 47.7507L44.6811 44.8594C45.3113 44.2187 46.3329 44.2187 46.9631 44.8594C47.5932 45.5002 47.5932 46.5389 46.9631 47.1796L42.1009 52.1231C41.7984 52.4309 41.388 52.6037 40.9601 52.6037Z" fill="#40D98D"/>
<path d="M40.9601 64.3773C40.532 64.3773 40.1218 64.2045 39.819 63.8967L37.8007 61.8444C37.1706 61.2037 37.1706 60.165 37.8007 59.5242C38.4308 58.8835 39.4524 58.8835 40.0826 59.5242C40.5648 60.0145 41.3551 60.0145 41.8373 59.5242L44.6811 56.6328C45.3112 55.9922 46.3329 55.9922 46.9631 56.6328C47.5932 57.2734 47.5932 58.3123 46.9631 58.953L42.1009 63.8966C41.7985 64.2045 41.388 64.3773 40.9601 64.3773Z" fill="#40D98D"/>
<path d="M40.9601 75.3148C40.532 75.3148 40.1218 75.142 39.819 74.8342L37.8007 72.7819C37.1706 72.1412 37.1706 71.1025 37.8007 70.4617C38.4308 69.821 39.4524 69.821 40.0826 70.4617C40.5648 70.952 41.3551 70.952 41.8373 70.4617L44.6811 67.5703C45.3112 66.9297 46.3329 66.9297 46.9631 67.5703C47.5932 68.2109 47.5932 69.2498 46.9631 69.8905L42.1009 74.8341C41.7985 75.142 41.388 75.3148 40.9601 75.3148Z" fill="#40D98D"/>
<path d="M78.7864 132.205C78.0025 131.428 76.9599 131 75.8508 131H62V175H75.8108C78.0961 175 79.9575 173.159 79.96 170.897L80 135.112C80.0012 134.014 79.5702 132.982 78.7864 132.205Z" fill="#F0F7FE"/>
<path d="M72.5841 128.725C71.6695 127.794 70.4532 127.281 69.1592 127.281H36.8875C34.2213 127.281 32.0497 129.487 32.0467 132.198L32 175.073C31.9985 176.388 32.5014 177.626 33.4159 178.556C34.3305 179.487 35.5468 180 36.8408 180H69.1125C71.7787 180 73.9504 177.795 73.9533 175.084L74 132.209C74.0014 130.893 73.4986 129.656 72.5841 128.725Z" fill="#F0F7FE"/>
<path d="M72.5841 128.725C71.6695 127.794 70.4532 127.281 69.1592 127.281H53V180H69.1125C71.7787 180 73.9504 177.795 73.9533 175.084L74 132.209C74.0014 130.893 73.4986 129.656 72.5841 128.725Z" fill="#E2EFFE"/>
<path d="M62.6812 130.562H43.3182C42.724 130.562 42.2424 130.073 42.2424 129.469V125.094C42.2424 124.49 42.724 124 43.3182 124H62.6812C63.2753 124 63.7569 124.49 63.7569 125.094V129.469C63.7569 130.073 63.2753 130.562 62.6812 130.562Z" fill="#157DF5"/>
<path d="M62.6813 124H52.9998V130.562H62.6813C63.2754 130.562 63.757 130.073 63.757 129.469V125.094C63.757 124.49 63.2754 124 62.6813 124Z" fill="#0965CD"/>
<path d="M69.0771 146.969H57.613C56.7218 146.969 55.9994 146.234 55.9994 145.328C55.9994 144.422 56.7218 143.688 57.613 143.688H69.0771C69.9682 143.688 70.6907 144.422 70.6907 145.328C70.6907 146.234 69.9682 146.969 69.0771 146.969Z" fill="#0965CD"/>
<path d="M63.0771 157.906H57.613C56.7218 157.906 55.9994 157.172 55.9994 156.266C55.9994 155.36 56.7218 154.625 57.613 154.625H63.0771C63.9682 154.625 64.6907 155.36 64.6907 156.266C64.6907 157.172 63.9682 157.906 63.0771 157.906Z" fill="#1E203E"/>
<path d="M69.1232 168.844H57.613C56.7218 168.844 55.9994 168.109 55.9994 167.203C55.9994 166.297 56.7218 165.562 57.613 165.562H69.1232C70.0144 165.562 70.7368 166.297 70.7368 167.203C70.7368 168.109 70.0144 168.844 69.1232 168.844Z" fill="#0965CD"/>
<path d="M40.9601 148.604C40.532 148.604 40.1217 148.431 39.819 148.123L37.8007 146.071C37.1706 145.43 37.1706 144.391 37.8007 143.751C38.4308 143.11 39.4524 143.11 40.0826 143.751C40.5648 144.241 41.3552 144.241 41.8374 143.751L44.6811 140.859C45.3113 140.219 46.3329 140.219 46.9631 140.859C47.5932 141.5 47.5932 142.539 46.9631 143.18L42.1009 148.123C41.7984 148.431 41.388 148.604 40.9601 148.604Z" fill="#40D98D"/>
<path d="M40.9601 160.377C40.532 160.377 40.1218 160.205 39.819 159.897L37.8007 157.844C37.1706 157.204 37.1706 156.165 37.8007 155.524C38.4308 154.884 39.4524 154.884 40.0826 155.524C40.5648 156.014 41.3551 156.014 41.8373 155.524L44.6811 152.633C45.3112 151.992 46.3329 151.992 46.9631 152.633C47.5932 153.273 47.5932 154.312 46.9631 154.953L42.1009 159.897C41.7985 160.205 41.388 160.377 40.9601 160.377Z" fill="#40D98D"/>
<path d="M40.9601 171.315C40.532 171.315 40.1218 171.142 39.819 170.834L37.8007 168.782C37.1706 168.141 37.1706 167.102 37.8007 166.462C38.4308 165.821 39.4524 165.821 40.0826 166.462C40.5648 166.952 41.3551 166.952 41.8373 166.462L44.6811 163.57C45.3112 162.93 46.3329 162.93 46.9631 163.57C47.5932 164.211 47.5932 165.25 46.9631 165.89L42.1009 170.834C41.7985 171.142 41.388 171.315 40.9601 171.315Z" fill="#40D98D"/>
<defs>
<filter id="filter0_dd_19799_58916" x="6" y="9" width="100" height="100" filterUnits="userSpaceOnUse" color-interpolation-filters="sRGB">
<feFlood flood-opacity="0" result="BackgroundImageFix"/>
<feColorMatrix in="SourceAlpha" type="matrix" values="0 0 0 0 0 0 0 0 0 0 0 0 0 0 0 0 0 0 127 0" result="hardAlpha"/>
<feOffset dy="3"/>
<feGaussianBlur stdDeviation="5"/>
<feColorMatrix type="matrix" values="0 0 0 0 0.516667 0 0 0 0 0.578358 0 0 0 0 0.775 0 0 0 0.12 0"/>
<feBlend mode="normal" in2="BackgroundImageFix" result="effect1_dropShadow_19799_58916"/>
<feColorMatrix in="SourceAlpha" type="matrix" values="0 0 0 0 0 0 0 0 0 0 0 0 0 0 0 0 0 0 127 0" result="hardAlpha"/>
<feOffset dy="1"/>
<feGaussianBlur stdDeviation="3"/>
<feColorMatrix type="matrix" values="0 0 0 0 0.709809 0 0 0 0 0.788943 0 0 0 0 0.920833 0 0 0 0.15 0"/>
<feBlend mode="normal" in2="effect1_dropShadow_19799_58916" result="effect2_dropShadow_19799_58916"/>
<feBlend mode="normal" in="SourceGraphic" in2="effect2_dropShadow_19799_58916" result="shape"/>
</filter>
</defs>
</svg>
