<svg width="112" height="208" viewBox="0 0 112 208" fill="none" xmlns="http://www.w3.org/2000/svg">
<rect x="0.5" y="0.5" width="111" height="207" rx="4.5" stroke="#9747FF" stroke-dasharray="10 5"/>
<g filter="url(#filter0_d_49987_12813)">
<rect x="16" y="16" width="80" height="80" rx="8" fill="white"/>
</g>
<rect x="31" y="37.9993" width="20" height="43.9971" fill="#E2EFFE"/>
<rect x="31" y="37.9993" width="9.99999" height="43.9971" fill="#F0F7FE"/>
<path d="M51 37.9993C51 32.4769 46.5228 28 41 28C35.4771 28 31 32.4769 31 37.9993H51Z" fill="#157DF5"/>
<path d="M41 28V37.9993H51C51 32.4769 46.5229 28 41 28Z" fill="#0965CD"/>
<path d="M69.1087 82.4215H37.1191V56.3035L53.1137 45.1521L69.1087 56.3035V82.4215Z" fill="#E2EFFE"/>
<path d="M68.9901 56.3035L52.9951 45.1521V82.4215H68.9901V56.3035Z" fill="#B6D7FC"/>
<path d="M35.5498 60.7387C34.8773 61.2701 33.8997 61.1663 33.3554 60.5058C32.8002 59.832 32.9074 58.8374 33.5937 58.2956L50.6768 44.8098C52.0369 43.7362 53.961 43.7294 55.3287 44.7936L72.3975 58.0746C73.0855 58.6099 73.2016 59.5998 72.656 60.2778C72.1179 60.9465 71.1379 61.0601 70.4593 60.5325L55.3294 48.7691C53.9613 47.7054 52.0372 47.7129 50.6775 48.7871L35.5498 60.7387Z" fill="#0965CD"/>
<path d="M45.5645 63.7593H60.4303V82.2838H45.5645V63.7593Z" fill="#F0F7FE"/>
<path d="M52.9951 63.7593H60.4281V82.2838H52.9951V63.7593Z" fill="#E2EFFE"/>
<path d="M45.641 62.4851C44.6042 62.4851 43.7637 63.3256 43.7637 64.3624V83.9885H62.229V64.3624C62.229 63.3256 61.3885 62.4851 60.3517 62.4851H45.641ZM50.9791 73.2688L46.9305 78.1677V68.3998L50.9791 73.2688ZM48.6821 65.5919H57.3234L52.9961 70.8035L48.6821 65.5919ZM52.9961 75.7276L57.3102 80.8813H48.7642L52.9961 75.7276ZM55.0611 73.2623L59.0622 68.4213V78.0734L55.0611 73.2623Z" fill="#157DF5"/>
<path d="M62.228 64.3624C62.228 63.3256 61.3875 62.4851 60.3507 62.4851H52.9951V65.5919H57.3224L52.9951 70.8035V75.7276L57.3092 80.8813H52.9951V83.9885H62.228V64.3624ZM59.0612 78.0734L55.0601 73.2623L59.0612 68.4213V78.0734Z" fill="#0965CD"/>
<path d="M52.996 44C52.1753 44.0037 51.3558 44.2738 50.6768 44.8098L33.5937 58.2956C32.9074 58.8373 32.8002 59.832 33.3554 60.5057C33.8997 61.1663 34.8773 61.27 35.5498 60.7387L50.6775 48.7871C51.3561 48.2509 52.1754 47.9805 52.996 47.9764V44Z" fill="#157DF5"/>
<path d="M50.2676 56.7264C50.2676 55.2202 51.4886 53.9993 52.9948 53.9993V59.4534H51.1767C50.6746 59.4534 50.2676 59.0465 50.2676 58.5444V56.7264Z" fill="#157DF5"/>
<path d="M52.9951 53.9993C54.5013 53.9993 55.7224 55.2202 55.7224 56.7264V58.5444C55.7224 59.0465 55.3154 59.4534 54.8133 59.4534H52.9951V53.9993Z" fill="#0965CD"/>
<path d="M28 82.3142C28 81.3832 28.7548 80.6284 29.6858 80.6284H70.9761C71.9071 80.6284 72.6619 81.3832 72.6619 82.3142C72.6619 83.2453 71.9071 84 70.9761 84H29.6858C28.7548 84 28 83.2453 28 82.3142Z" fill="#40D98D"/>
<path d="M60.9111 80.6284H70.9752C71.9062 80.6284 72.661 81.3832 72.661 82.3142C72.661 83.2453 71.9062 84 70.9752 84H60.9111V80.6284Z" fill="#25BB71"/>
<path d="M69.31 41.3056C69.8647 40.7513 70.7634 40.7513 71.318 41.3056L76.481 46.465C77.0356 47.0193 77.0356 47.9173 76.481 48.4716C75.9263 49.0259 75.0276 49.0259 74.4729 48.4716L69.31 43.3123C68.7553 42.758 68.7553 41.86 69.31 41.3056Z" fill="#E2EFFE"/>
<path d="M74.4768 48.4756L69.3139 43.3162C68.7592 42.7619 68.7592 41.8639 69.3139 41.3096L76.4849 48.4756C75.9301 49.03 75.0315 49.03 74.4768 48.4756Z" fill="#B6D7FC"/>
<path d="M58.7246 30.7241C60.4071 29.0419 62.73 28 65.2917 28C70.4149 28 74.5835 32.1677 74.5835 37.2898C74.5835 39.8509 73.5413 42.1733 71.8588 43.8555C70.1762 45.5376 67.8533 46.5796 65.2917 46.5796C60.1685 46.5796 55.9998 42.4119 55.9998 37.2898C55.9998 34.7287 57.042 32.4063 58.7246 30.7241Z" fill="#40D98D"/>
<path d="M56.0004 37.2949C56.0004 34.7338 57.0426 32.4114 58.7252 30.7292L71.8594 43.8606C70.1769 45.5428 67.8539 46.5847 65.2923 46.5847C60.1691 46.5847 56.0004 42.417 56.0004 37.2949Z" fill="#25BB71"/>
<path d="M60.0388 32.0396C61.3849 30.6938 63.2433 29.8604 65.2926 29.8604C69.3914 29.8604 72.7261 33.1943 72.7261 37.2922C72.7261 39.3411 71.8924 41.1991 70.5464 42.5448C69.2004 43.8906 67.342 44.7241 65.2926 44.7241C61.1939 44.7241 57.8591 41.3901 57.8591 37.2922C57.8591 35.2433 58.6928 33.3853 60.0388 32.0396Z" fill="#F0F7FE"/>
<path d="M57.8596 37.2954C57.8596 35.2465 58.6933 33.3885 60.0393 32.0427L70.5469 42.548C69.2008 43.8937 67.3424 44.7272 65.2931 44.7272C61.1943 44.7272 57.8596 41.3932 57.8596 37.2954Z" fill="#E2EFFE"/>
<path d="M72.6134 47.2363L73.9273 45.9227L75.2413 44.6091C75.6042 44.2462 76.1923 44.2462 76.5552 44.6091L83.1824 51.2349C83.7096 51.762 84 52.4624 84 53.2063C84 53.9747 83.6874 54.6714 83.1826 55.176C82.6778 55.6807 81.981 55.9932 81.2124 55.9932C80.4684 55.9932 79.7679 55.7029 79.2407 55.1758L72.6134 48.55C72.2504 48.1871 72.2504 47.5993 72.6134 47.2363Z" fill="#157DF5"/>
<path d="M79.2411 55.1816L72.6139 48.5557C72.251 48.1929 72.251 47.605 72.6139 47.2421L73.9278 45.9285L83.1831 55.1817C82.6784 55.6864 81.9815 55.9989 81.2129 55.9989C80.4688 55.9989 79.7684 55.7086 79.2411 55.1816Z" fill="#0965CD"/>
<rect x="31" y="133.999" width="20" height="43.9971" fill="#E2EFFE"/>
<rect x="31" y="133.999" width="9.99999" height="43.9971" fill="#F0F7FE"/>
<path d="M51 133.999C51 128.477 46.5228 124 41 124C35.4771 124 31 128.477 31 133.999H51Z" fill="#157DF5"/>
<path d="M41 124V133.999H51C51 128.477 46.5229 124 41 124Z" fill="#0965CD"/>
<path d="M69.1087 178.422H37.1191V152.304L53.1137 141.152L69.1087 152.304V178.422Z" fill="#E2EFFE"/>
<path d="M68.9901 152.304L52.9951 141.152V178.422H68.9901V152.304Z" fill="#B6D7FC"/>
<path d="M35.5498 156.739C34.8773 157.27 33.8997 157.166 33.3554 156.506C32.8002 155.832 32.9074 154.837 33.5937 154.296L50.6768 140.81C52.0369 139.736 53.961 139.729 55.3287 140.794L72.3975 154.075C73.0855 154.61 73.2016 155.6 72.656 156.278C72.1179 156.947 71.1379 157.06 70.4593 156.532L55.3294 144.769C53.9613 143.705 52.0372 143.713 50.6775 144.787L35.5498 156.739Z" fill="#0965CD"/>
<path d="M45.5645 159.759H60.4303V178.284H45.5645V159.759Z" fill="#F0F7FE"/>
<path d="M52.9951 159.759H60.4281V178.284H52.9951V159.759Z" fill="#E2EFFE"/>
<path d="M45.641 158.485C44.6042 158.485 43.7637 159.326 43.7637 160.362V179.988H62.229V160.362C62.229 159.326 61.3885 158.485 60.3517 158.485H45.641ZM50.9791 169.269L46.9305 174.168V164.4L50.9791 169.269ZM48.6821 161.592H57.3234L52.9961 166.804L48.6821 161.592ZM52.9961 171.728L57.3102 176.881H48.7642L52.9961 171.728ZM55.0611 169.262L59.0622 164.421V174.073L55.0611 169.262Z" fill="#157DF5"/>
<path d="M62.228 160.362C62.228 159.326 61.3875 158.485 60.3507 158.485H52.9951V161.592H57.3224L52.9951 166.804V171.728L57.3092 176.881H52.9951V179.988H62.228V160.362ZM59.0612 174.073L55.0601 169.262L59.0612 164.421V174.073Z" fill="#0965CD"/>
<path d="M52.996 140C52.1753 140.004 51.3558 140.274 50.6768 140.81L33.5937 154.296C32.9074 154.837 32.8002 155.832 33.3554 156.506C33.8997 157.166 34.8773 157.27 35.5498 156.739L50.6775 144.787C51.3561 144.251 52.1754 143.98 52.996 143.976V140Z" fill="#157DF5"/>
<path d="M50.2676 152.726C50.2676 151.22 51.4886 149.999 52.9948 149.999V155.453H51.1767C50.6746 155.453 50.2676 155.046 50.2676 154.544V152.726Z" fill="#157DF5"/>
<path d="M52.9951 149.999C54.5013 149.999 55.7224 151.22 55.7224 152.726V154.544C55.7224 155.046 55.3154 155.453 54.8133 155.453H52.9951V149.999Z" fill="#0965CD"/>
<path d="M28 178.314C28 177.383 28.7548 176.628 29.6858 176.628H70.9761C71.9071 176.628 72.6619 177.383 72.6619 178.314C72.6619 179.245 71.9071 180 70.9761 180H29.6858C28.7548 180 28 179.245 28 178.314Z" fill="#40D98D"/>
<path d="M60.9111 176.628H70.9752C71.9062 176.628 72.661 177.383 72.661 178.314C72.661 179.245 71.9062 180 70.9752 180H60.9111V176.628Z" fill="#25BB71"/>
<path d="M69.31 137.306C69.8647 136.751 70.7634 136.751 71.318 137.306L76.481 142.465C77.0356 143.019 77.0356 143.917 76.481 144.472C75.9263 145.026 75.0276 145.026 74.4729 144.472L69.31 139.312C68.7553 138.758 68.7553 137.86 69.31 137.306Z" fill="#E2EFFE"/>
<path d="M74.4768 144.476L69.3139 139.316C68.7592 138.762 68.7592 137.864 69.3139 137.31L76.4849 144.476C75.9301 145.03 75.0315 145.03 74.4768 144.476Z" fill="#B6D7FC"/>
<path d="M58.7246 126.724C60.4071 125.042 62.73 124 65.2917 124C70.4149 124 74.5835 128.168 74.5835 133.29C74.5835 135.851 73.5413 138.173 71.8588 139.855C70.1762 141.538 67.8533 142.58 65.2917 142.58C60.1685 142.58 55.9998 138.412 55.9998 133.29C55.9998 130.729 57.042 128.406 58.7246 126.724Z" fill="#40D98D"/>
<path d="M56.0004 133.295C56.0004 130.734 57.0426 128.411 58.7252 126.729L71.8594 139.861C70.1769 141.543 67.8539 142.585 65.2923 142.585C60.1691 142.585 56.0004 138.417 56.0004 133.295Z" fill="#25BB71"/>
<path d="M60.0388 128.04C61.3849 126.694 63.2433 125.86 65.2926 125.86C69.3914 125.86 72.7261 129.194 72.7261 133.292C72.7261 135.341 71.8924 137.199 70.5464 138.545C69.2004 139.891 67.342 140.724 65.2926 140.724C61.1939 140.724 57.8591 137.39 57.8591 133.292C57.8591 131.243 58.6928 129.385 60.0388 128.04Z" fill="#F0F7FE"/>
<path d="M57.8596 133.295C57.8596 131.246 58.6933 129.389 60.0393 128.043L70.5469 138.548C69.2008 139.894 67.3424 140.727 65.2931 140.727C61.1943 140.727 57.8596 137.393 57.8596 133.295Z" fill="#E2EFFE"/>
<path d="M72.6134 143.236L73.9273 141.923L75.2413 140.609C75.6042 140.246 76.1923 140.246 76.5552 140.609L83.1824 147.235C83.7096 147.762 84 148.462 84 149.206C84 149.975 83.6874 150.671 83.1826 151.176C82.6778 151.681 81.981 151.993 81.2124 151.993C80.4684 151.993 79.7679 151.703 79.2407 151.176L72.6134 144.55C72.2504 144.187 72.2504 143.599 72.6134 143.236Z" fill="#157DF5"/>
<path d="M79.2411 151.182L72.6139 144.556C72.251 144.193 72.251 143.605 72.6139 143.242L73.9278 141.928L83.1831 151.182C82.6784 151.686 81.9815 151.999 81.2129 151.999C80.4688 151.999 79.7684 151.709 79.2411 151.182Z" fill="#0965CD"/>
<defs>
<filter id="filter0_d_49987_12813" x="10" y="9" width="96" height="96" filterUnits="userSpaceOnUse" color-interpolation-filters="sRGB">
<feFlood flood-opacity="0" result="BackgroundImageFix"/>
<feColorMatrix in="SourceAlpha" type="matrix" values="0 0 0 0 0 0 0 0 0 0 0 0 0 0 0 0 0 0 127 0" result="hardAlpha"/>
<feOffset dx="2" dy="1"/>
<feGaussianBlur stdDeviation="4"/>
<feColorMatrix type="matrix" values="0 0 0 0 0.0392157 0 0 0 0 0.0392157 0 0 0 0 0.0627451 0 0 0 0.08 0"/>
<feBlend mode="normal" in2="BackgroundImageFix" result="effect1_dropShadow_49987_12813"/>
<feBlend mode="normal" in="SourceGraphic" in2="effect1_dropShadow_49987_12813" result="shape"/>
</filter>
</defs>
</svg>
