<svg width="112" height="208" viewBox="0 0 112 208" fill="none" xmlns="http://www.w3.org/2000/svg">
<rect x="0.5" y="0.5" width="111" height="207" rx="4.5" stroke="#9747FF" stroke-dasharray="10 5"/>
<g filter="url(#filter0_dd_19799_58948)">
<rect x="16" y="16" width="80" height="80" rx="8" fill="white"/>
</g>
<path d="M74.7864 36.2048C74.0025 35.4279 72.9599 35 71.8508 35H58V79H71.8108C74.0961 79 75.9575 77.1593 75.96 74.8967L76 39.1124C76.0012 38.0144 75.5702 36.9817 74.7864 36.2048Z" fill="#F0F7FE"/>
<path d="M68.5841 32.7248C67.6695 31.7939 66.4532 31.2812 65.1592 31.2812H32.8875C30.2213 31.2812 28.0497 33.4868 28.0467 36.1977L28 79.0727C27.9985 80.3883 28.5014 81.6256 29.4159 82.5565C30.3305 83.4874 31.5468 84 32.8408 84H65.1125C67.7787 84 69.9504 81.7946 69.9533 79.0836L70 36.2086C70.0014 34.8929 69.4986 33.6557 68.5841 32.7248Z" fill="#F0F7FE"/>
<path d="M68.5841 32.7248C67.6695 31.7939 66.4532 31.2812 65.1592 31.2812H49V84H65.1125C67.7787 84 69.9504 81.7946 69.9533 79.0836L70 36.2086C70.0014 34.8929 69.4986 33.6557 68.5841 32.7248Z" fill="#E2EFFE"/>
<path d="M58.6812 34.5625H39.3182C38.724 34.5625 38.2424 34.0728 38.2424 33.4688V29.0938C38.2424 28.4897 38.724 28 39.3182 28H58.6812C59.2753 28 59.7569 28.4897 59.7569 29.0938V33.4688C59.7569 34.0728 59.2753 34.5625 58.6812 34.5625Z" fill="#157DF5"/>
<path d="M58.6813 28H48.9998V34.5625H58.6813C59.2754 34.5625 59.757 34.0728 59.757 33.4688V29.0938C59.757 28.4897 59.2754 28 58.6813 28Z" fill="#0965CD"/>
<path d="M65.0771 50.9688H53.613C52.7218 50.9688 51.9994 50.2342 51.9994 49.3281C51.9994 48.4221 52.7218 47.6875 53.613 47.6875H65.0771C65.9682 47.6875 66.6907 48.4221 66.6907 49.3281C66.6907 50.2342 65.9682 50.9688 65.0771 50.9688Z" fill="#0965CD"/>
<path d="M59.0771 61.9062H53.613C52.7218 61.9062 51.9994 61.1717 51.9994 60.2656C51.9994 59.3596 52.7218 58.625 53.613 58.625H59.0771C59.9682 58.625 60.6907 59.3596 60.6907 60.2656C60.6907 61.1717 59.9682 61.9062 59.0771 61.9062Z" fill="#1E203E"/>
<path d="M65.1232 72.8438H53.613C52.7218 72.8438 51.9994 72.1092 51.9994 71.2031C51.9994 70.2971 52.7218 69.5625 53.613 69.5625H65.1232C66.0144 69.5625 66.7368 70.2971 66.7368 71.2031C66.7368 72.1092 66.0144 72.8438 65.1232 72.8438Z" fill="#0965CD"/>
<path d="M36.9601 52.6037C36.532 52.6037 36.1217 52.4308 35.819 52.1231L33.8007 50.0708C33.1706 49.4301 33.1706 48.3914 33.8007 47.7507C34.4308 47.1101 35.4524 47.1101 36.0826 47.7507C36.5648 48.241 37.3552 48.241 37.8374 47.7507L40.6811 44.8594C41.3113 44.2187 42.3329 44.2187 42.9631 44.8594C43.5932 45.5002 43.5932 46.5389 42.9631 47.1796L38.1009 52.1231C37.7984 52.4309 37.388 52.6037 36.9601 52.6037Z" fill="#40D98D"/>
<path d="M36.9601 64.3773C36.532 64.3773 36.1218 64.2045 35.819 63.8967L33.8007 61.8444C33.1706 61.2037 33.1706 60.165 33.8007 59.5242C34.4308 58.8835 35.4524 58.8835 36.0826 59.5242C36.5648 60.0145 37.3551 60.0145 37.8373 59.5242L40.6811 56.6328C41.3112 55.9922 42.3329 55.9922 42.9631 56.6328C43.5932 57.2734 43.5932 58.3123 42.9631 58.953L38.1009 63.8966C37.7985 64.2045 37.388 64.3773 36.9601 64.3773Z" fill="#40D98D"/>
<path d="M36.9601 75.3148C36.532 75.3148 36.1218 75.142 35.819 74.8342L33.8007 72.7819C33.1706 72.1412 33.1706 71.1025 33.8007 70.4617C34.4308 69.821 35.4524 69.821 36.0826 70.4617C36.5648 70.952 37.3551 70.952 37.8373 70.4617L40.6811 67.5703C41.3112 66.9297 42.3329 66.9297 42.9631 67.5703C43.5932 68.2109 43.5932 69.2498 42.9631 69.8905L38.1009 74.8341C37.7985 75.142 37.388 75.3148 36.9601 75.3148Z" fill="#40D98D"/>
<circle cx="69" cy="69" r="12" fill="#40D98D"/>
<path d="M69 81C75.6274 81 81 75.6274 81 69C81 62.3726 75.6274 57 69 57V81Z" fill="#25BB71"/>
<path fill-rule="evenodd" clip-rule="evenodd" d="M84 69C84 77.2843 77.2843 84 69 84C60.7157 84 54 77.2843 54 69C54 60.7157 60.7157 54 69 54C77.2843 54 84 60.7157 84 69ZM81 69C81 75.6274 75.6274 81 69 81C62.3726 81 57 75.6274 57 69C57 62.3726 62.3726 57 69 57C75.6274 57 81 62.3726 81 69Z" fill="white"/>
<path d="M68 61C67.4478 61 67 61.4478 67 62V67H62C61.4478 67 61 67.4478 61 68V70C61 70.5522 61.4478 71 62 71H67V76C67 76.5522 67.4478 77 68 77H70C70.5522 77 71 76.5522 71 76V71H76C76.5522 71 77 70.5522 77 70V68C77 67.4478 76.5522 67 76 67H71V62C71 61.4478 70.5522 61 70 61H68Z" fill="white"/>
<path d="M69 77H70C70.5522 77 71 76.5522 71 76V71H76C76.5522 71 77 70.5522 77 70V68C77 67.4478 76.5522 67 76 67H71V62C71 61.4478 70.5522 61 70 61H69V77Z" fill="#E2EFFE"/>
<path d="M74.7864 132.205C74.0025 131.428 72.9599 131 71.8508 131H58V175H71.8108C74.0961 175 75.9575 173.159 75.96 170.897L76 135.112C76.0012 134.014 75.5702 132.982 74.7864 132.205Z" fill="#F0F7FE"/>
<path d="M68.5841 128.725C67.6695 127.794 66.4532 127.281 65.1592 127.281H32.8875C30.2213 127.281 28.0497 129.487 28.0467 132.198L28 175.073C27.9985 176.388 28.5014 177.626 29.4159 178.556C30.3305 179.487 31.5468 180 32.8408 180H65.1125C67.7787 180 69.9504 177.795 69.9533 175.084L70 132.209C70.0014 130.893 69.4986 129.656 68.5841 128.725Z" fill="#F0F7FE"/>
<path d="M68.5841 128.725C67.6695 127.794 66.4532 127.281 65.1592 127.281H49V180H65.1125C67.7787 180 69.9504 177.795 69.9533 175.084L70 132.209C70.0014 130.893 69.4986 129.656 68.5841 128.725Z" fill="#E2EFFE"/>
<path d="M58.6812 130.562H39.3182C38.724 130.562 38.2424 130.073 38.2424 129.469V125.094C38.2424 124.49 38.724 124 39.3182 124H58.6812C59.2753 124 59.7569 124.49 59.7569 125.094V129.469C59.7569 130.073 59.2753 130.562 58.6812 130.562Z" fill="#157DF5"/>
<path d="M58.6813 124H48.9998V130.562H58.6813C59.2754 130.562 59.757 130.073 59.757 129.469V125.094C59.757 124.49 59.2754 124 58.6813 124Z" fill="#0965CD"/>
<path d="M65.0771 146.969H53.613C52.7218 146.969 51.9994 146.234 51.9994 145.328C51.9994 144.422 52.7218 143.688 53.613 143.688H65.0771C65.9682 143.688 66.6907 144.422 66.6907 145.328C66.6907 146.234 65.9682 146.969 65.0771 146.969Z" fill="#0965CD"/>
<path d="M59.0771 157.906H53.613C52.7218 157.906 51.9994 157.172 51.9994 156.266C51.9994 155.36 52.7218 154.625 53.613 154.625H59.0771C59.9682 154.625 60.6907 155.36 60.6907 156.266C60.6907 157.172 59.9682 157.906 59.0771 157.906Z" fill="#1E203E"/>
<path d="M65.1232 168.844H53.613C52.7218 168.844 51.9994 168.109 51.9994 167.203C51.9994 166.297 52.7218 165.562 53.613 165.562H65.1232C66.0144 165.562 66.7368 166.297 66.7368 167.203C66.7368 168.109 66.0144 168.844 65.1232 168.844Z" fill="#0965CD"/>
<path d="M36.9601 148.604C36.532 148.604 36.1217 148.431 35.819 148.123L33.8007 146.071C33.1706 145.43 33.1706 144.391 33.8007 143.751C34.4308 143.11 35.4524 143.11 36.0826 143.751C36.5648 144.241 37.3552 144.241 37.8374 143.751L40.6811 140.859C41.3113 140.219 42.3329 140.219 42.9631 140.859C43.5932 141.5 43.5932 142.539 42.9631 143.18L38.1009 148.123C37.7984 148.431 37.388 148.604 36.9601 148.604Z" fill="#40D98D"/>
<path d="M36.9601 160.377C36.532 160.377 36.1218 160.205 35.819 159.897L33.8007 157.844C33.1706 157.204 33.1706 156.165 33.8007 155.524C34.4308 154.884 35.4524 154.884 36.0826 155.524C36.5648 156.014 37.3551 156.014 37.8373 155.524L40.6811 152.633C41.3112 151.992 42.3329 151.992 42.9631 152.633C43.5932 153.273 43.5932 154.312 42.9631 154.953L38.1009 159.897C37.7985 160.205 37.388 160.377 36.9601 160.377Z" fill="#40D98D"/>
<path d="M36.9601 171.315C36.532 171.315 36.1218 171.142 35.819 170.834L33.8007 168.782C33.1706 168.141 33.1706 167.102 33.8007 166.462C34.4308 165.821 35.4524 165.821 36.0826 166.462C36.5648 166.952 37.3551 166.952 37.8373 166.462L40.6811 163.57C41.3112 162.93 42.3329 162.93 42.9631 163.57C43.5932 164.211 43.5932 165.25 42.9631 165.89L38.1009 170.834C37.7985 171.142 37.388 171.315 36.9601 171.315Z" fill="#40D98D"/>
<circle cx="69" cy="165" r="12" fill="#40D98D"/>
<path d="M69 177C75.6274 177 81 171.627 81 165C81 158.373 75.6274 153 69 153V177Z" fill="#25BB71"/>
<path fill-rule="evenodd" clip-rule="evenodd" d="M84 165C84 173.284 77.2843 180 69 180C60.7157 180 54 173.284 54 165C54 156.716 60.7157 150 69 150C77.2843 150 84 156.716 84 165ZM81 165C81 171.627 75.6274 177 69 177C62.3726 177 57 171.627 57 165C57 158.373 62.3726 153 69 153C75.6274 153 81 158.373 81 165Z" fill="white"/>
<path d="M68 157C67.4478 157 67 157.448 67 158V163H62C61.4478 163 61 163.448 61 164V166C61 166.552 61.4478 167 62 167H67V172C67 172.552 67.4478 173 68 173H70C70.5522 173 71 172.552 71 172V167H76C76.5522 167 77 166.552 77 166V164C77 163.448 76.5522 163 76 163H71V158C71 157.448 70.5522 157 70 157H68Z" fill="white"/>
<path d="M69 173H70C70.5522 173 71 172.552 71 172V167H76C76.5522 167 77 166.552 77 166V164C77 163.448 76.5522 163 76 163H71V158C71 157.448 70.5522 157 70 157H69V173Z" fill="#E2EFFE"/>
<defs>
<filter id="filter0_dd_19799_58948" x="6" y="9" width="100" height="100" filterUnits="userSpaceOnUse" color-interpolation-filters="sRGB">
<feFlood flood-opacity="0" result="BackgroundImageFix"/>
<feColorMatrix in="SourceAlpha" type="matrix" values="0 0 0 0 0 0 0 0 0 0 0 0 0 0 0 0 0 0 127 0" result="hardAlpha"/>
<feOffset dy="3"/>
<feGaussianBlur stdDeviation="5"/>
<feColorMatrix type="matrix" values="0 0 0 0 0.516667 0 0 0 0 0.578358 0 0 0 0 0.775 0 0 0 0.12 0"/>
<feBlend mode="normal" in2="BackgroundImageFix" result="effect1_dropShadow_19799_58948"/>
<feColorMatrix in="SourceAlpha" type="matrix" values="0 0 0 0 0 0 0 0 0 0 0 0 0 0 0 0 0 0 127 0" result="hardAlpha"/>
<feOffset dy="1"/>
<feGaussianBlur stdDeviation="3"/>
<feColorMatrix type="matrix" values="0 0 0 0 0.709809 0 0 0 0 0.788943 0 0 0 0 0.920833 0 0 0 0.15 0"/>
<feBlend mode="normal" in2="effect1_dropShadow_19799_58948" result="effect2_dropShadow_19799_58948"/>
<feBlend mode="normal" in="SourceGraphic" in2="effect2_dropShadow_19799_58948" result="shape"/>
</filter>
</defs>
</svg>
