<svg width="112" height="208" viewBox="0 0 112 208" fill="none" xmlns="http://www.w3.org/2000/svg">
<rect x="0.5" y="0.5" width="111" height="207" rx="4.5" stroke="#9747FF" stroke-dasharray="10 5"/>
<g filter="url(#filter0_d_10792_60692)">
<rect x="16" y="16" width="80" height="80" rx="8" fill="white"/>
</g>
<path d="M81.5574 76.0681L63.998 80.5533L59.2891 30.8828L81.558 35.9269C84.8571 48.9229 84.7725 63.0501 81.5574 76.0681Z" fill="#B6D7FC"/>
<path d="M46.4429 76.0712L63.9971 80.5564V76.0713V31.9648L46.4429 35.9295C43.1438 48.9255 43.2279 63.0531 46.4429 76.0712Z" fill="#E2EFFE"/>
<path d="M63.9962 35.9293H81.5557V30C81.5557 28.8954 80.6603 28 79.5557 28H63.9962L62.043 32.3597L63.9962 35.9293Z" fill="#0965CD"/>
<path d="M63.9967 76.0703H81.5562V81.9996C81.5562 83.1042 80.6608 83.9996 79.5562 83.9996H63.9967L61.7227 80.035L63.9967 76.0703Z" fill="#0965CD"/>
<path d="M46.4434 30C46.4434 28.8954 47.3388 28 48.4434 28H63.9976V35.9293H46.4434V30Z" fill="#157DF5"/>
<path d="M46.4434 76.0703H63.9976V83.9996H48.4434C47.3388 83.9996 46.4434 83.1042 46.4434 81.9996V76.0703Z" fill="#157DF5"/>
<path fill-rule="evenodd" clip-rule="evenodd" d="M67.7298 46.1909C67.3977 46.1721 67.0664 46.2312 66.7608 46.3633C66.7254 46.1644 66.6692 45.9671 66.5915 45.7747C66.4956 45.5373 66.3714 45.3183 66.224 45.1213C65.702 44.4236 64.8879 44 63.999 44C63.1112 44 62.2972 44.4236 61.7753 45.1216C61.628 45.3186 61.5039 45.5374 61.4081 45.7748C61.3304 45.9672 61.2742 46.1644 61.2388 46.3632C60.9334 46.2312 60.6022 46.1721 60.2703 46.1909C60.0271 46.2047 59.7834 46.2603 59.5491 46.3598C58.7742 46.689 58.2577 47.4319 58.2006 48.2813C58.1971 48.3334 58.1953 48.3859 58.1953 48.4388C58.1953 49.4235 58.8216 50.2582 59.6901 50.5446C58.8111 51.1231 58.0492 51.873 57.4496 52.7479C56.5365 54.0805 56 55.703 56 57.4515V66.453C56 66.8398 56.3059 67.1533 56.6831 67.1533H60.5802C60.9887 67.6799 61.6137 67.9984 62.2942 67.9984C62.6831 67.9984 63.0481 67.896 63.3654 67.7163C63.5996 67.5837 63.8078 67.4089 63.9804 67.202C64.1537 67.4092 64.3626 67.5838 64.5968 67.7163C64.9153 67.8963 65.2806 67.9984 65.667 67.9984C66.3472 67.9984 66.972 67.6799 67.3805 67.1533H71.3169C71.6941 67.1533 72 66.8398 72 66.453V57.4515C72 55.7029 71.4634 54.0803 70.5502 52.7478C69.9507 51.8729 69.1888 51.123 68.3098 50.5445C69.1774 50.2583 69.8044 49.4247 69.8044 48.4372C69.8044 48.3849 69.8027 48.3329 69.7992 48.2812C69.7425 47.4326 69.2259 46.6891 68.4505 46.3597C68.2164 46.2603 67.9729 46.2047 67.7298 46.1909ZM68.5946 43.2829C67.5233 41.8777 65.8505 41 63.999 41C62.1481 41 60.4758 41.8781 59.4049 43.283C59.0567 43.3511 58.7122 43.4559 58.3767 43.5984C56.4147 44.4318 55.1953 46.356 55.1953 48.4388C55.1953 49.0918 55.315 49.7212 55.5356 50.3031C53.9499 52.2479 53 54.7433 53 57.4515V66.453C53 68.4258 54.5791 70.1533 56.6831 70.1533H59.4662C60.2863 70.6915 61.2614 70.9984 62.2942 70.9984C62.8868 70.9984 63.4541 70.8984 63.9814 70.7162C64.5093 70.8986 65.0763 70.9984 65.667 70.9984C66.6998 70.9984 67.6747 70.6914 68.4946 70.1533H71.3169C73.4209 70.1533 75 68.4258 75 66.453V57.4515C75 54.7432 74.05 52.2476 72.4642 50.3028C72.6847 49.7208 72.8044 49.091 72.8044 48.4372M68.5946 43.2829C68.9428 43.351 69.2874 43.4558 69.6228 43.5983C71.584 44.4313 72.8044 46.355 72.8044 48.4372" fill="white"/>
<path d="M64.0003 50.6506H60.3528C59.1587 50.6506 58.1953 49.6601 58.1953 48.4388C58.1953 47.5246 58.7267 46.7092 59.5491 46.3598C60.3719 46.0105 61.3101 46.2019 61.9396 46.8473L64.4833 49.4551C64.6786 49.6554 64.7371 49.9566 64.6314 50.2183C64.5256 50.48 64.2765 50.6506 64.0003 50.6506Z" fill="#F3263D"/>
<path d="M67.647 50.6506H63.9995C63.7232 50.6506 63.4742 50.4799 63.3684 50.2182C63.2627 49.9566 63.3211 49.6553 63.5165 49.455L66.0602 46.8472C66.6897 46.2019 67.628 46.0105 68.4505 46.3597C69.2731 46.7091 69.8044 47.5246 69.8044 48.4372C69.8044 49.6624 68.8392 50.6506 67.647 50.6506Z" fill="#F54B5E"/>
<path d="M71.3169 67.1533H56.6831C56.3059 67.1533 56 66.8398 56 66.453V57.4515C56 52.9292 59.5888 49.25 64 49.25C68.4112 49.25 72 52.9292 72 57.4515V66.453C72 66.8398 71.6941 67.1533 71.3169 67.1533Z" fill="#F0F7FE"/>
<path d="M72.0008 66.453V57.4515C72.0008 52.9292 68.412 49.25 64.0008 49.25C64.0005 49.25 64.0003 49.25 64 49.25V67.1533H71.3177C71.6949 67.1533 72.0008 66.8398 72.0008 66.453Z" fill="#E2EFFE"/>
<path d="M67.218 64.1661L64.9234 61.8087C64.8236 61.7061 64.6881 61.6484 64.5467 61.6484C64.5465 61.6484 64.546 61.6484 64.5461 61.6484H63.4146C63.4148 61.6484 63.4143 61.6484 63.414 61.6484C63.2727 61.6484 63.1371 61.7061 63.0373 61.8087L60.7427 64.1661C60.1148 64.8113 59.9292 65.7718 60.2699 66.6131C60.6106 67.4546 61.4049 67.9984 62.2942 67.9984C62.9701 67.9984 63.5739 67.6892 63.9804 67.202C64.3895 67.6911 64.9965 67.9984 65.667 67.9984C66.5558 67.9984 67.3501 67.4546 67.6907 66.6131C68.0315 65.7718 67.8459 64.8113 67.218 64.1661Z" fill="#F54B5E"/>
<path d="M65.6682 67.9984C66.557 67.9984 67.3514 67.4546 67.6919 66.6131C68.0327 65.7718 67.8471 64.8113 67.2192 64.1661L64.9247 61.8087C64.8248 61.7061 64.6893 61.6484 64.5479 61.6484C64.5477 61.6484 64.5472 61.6484 64.5474 61.6484C64.5476 61.6484 64.2742 61.6484 63.9961 61.6484V67.2184C64.405 67.6978 65.0054 67.9984 65.6682 67.9984Z" fill="#F3263D"/>
<path d="M61.1094 57C61.9378 57 62.6094 56.3284 62.6094 55.5C62.6094 54.6716 61.9378 54 61.1094 54C60.2809 54 59.6094 54.6716 59.6094 55.5C59.6094 56.3284 60.2809 57 61.1094 57Z" fill="#282A52"/>
<path d="M66.9766 57C67.805 57 68.4766 56.3284 68.4766 55.5C68.4766 54.6716 67.805 54 66.9766 54C66.1481 54 65.4766 54.6716 65.4766 55.5C65.4766 56.3284 66.1481 57 66.9766 57Z" fill="#1E203E"/>
<path d="M63.9998 50.6515C63.825 50.6515 63.6501 50.5831 63.5168 50.4464L62.0161 48.9079C61.2113 48.0829 60.9727 46.8531 61.4081 45.7748C61.8436 44.6966 62.8606 44 63.999 44C65.1389 44 66.156 44.6966 66.5915 45.7747C67.0269 46.8531 66.7882 48.0829 65.9835 48.9078L64.4828 50.4464C64.3494 50.5831 64.1746 50.6515 63.9998 50.6515Z" fill="#F54B5E"/>
<path d="M64.4838 50.4464L65.9845 48.9078C66.7892 48.0829 67.0279 46.8531 66.5925 45.7747C66.157 44.6966 65.14 44 64 44V50.6515C64.0003 50.6515 64.0005 50.6515 64.0008 50.6515C64.1756 50.6515 64.3504 50.5831 64.4838 50.4464Z" fill="#F3263D"/>
<path d="M63.9833 63.0187C63.9827 63.0187 63.9821 63.0187 63.9815 63.0187C63.8354 63.0182 63.6956 62.9583 63.5927 62.852L61.2498 60.4339C61.036 60.2133 61.0366 59.8569 61.2511 59.637L62.3588 58.5014C62.7974 58.052 63.3798 57.8047 63.9989 57.8047C64.6181 57.8047 65.2005 58.052 65.639 58.5012L66.7468 59.637C66.8502 59.7431 66.9082 59.8871 66.908 60.0371C66.9078 60.187 66.8493 60.3308 66.7455 60.4365L64.3713 62.8547C64.2681 62.9597 64.1286 63.0187 63.9833 63.0187Z" fill="#FEE048"/>
<path d="M66.7452 60.4365C66.849 60.3308 66.9075 60.1871 66.9077 60.0371C66.908 59.887 66.85 59.7431 66.7465 59.637L65.6387 58.5012C65.2002 58.052 64.6178 57.8047 63.9987 57.8047C63.9985 57.8047 63.9983 57.8047 63.998 57.8047V63.0179C64.1379 63.014 64.2714 62.9561 64.371 62.8547L66.7452 60.4365Z" fill="#FED601"/>
<path d="M59.6052 47.724C59.6052 50.5031 57.4175 52.8215 54.6307 52.8215L46.7881 53.3757C46.0614 53.4285 45.4998 54.0338 45.4998 54.7622V70.5682C40.8196 70.2416 38.4308 68.6277 34.6998 66.7627C34.2289 66.5273 33.9314 66.0453 33.9314 65.5189V47.724C33.9314 47.116 34.3262 46.5784 34.9074 46.3968C48.2004 42.2438 45.6663 42.6265 54.6307 42.6265C57.3733 42.6265 59.6052 44.9129 59.6052 47.724Z" fill="#FFDECC"/>
<path d="M45.4998 57.3633V70.5686C40.8196 70.242 38.4308 68.628 34.6998 66.7631C34.2289 66.5277 33.9314 66.0457 33.9314 65.5193V57.3633H45.4998Z" fill="#FFCFB5"/>
<path d="M36.7124 45.4094V67.8384C36.7124 69.3714 35.4649 70.6189 33.9318 70.6189H30.7806C29.2475 70.6189 28 69.3714 28 67.8384V45.4094C28 43.8764 29.2475 42.6289 30.7806 42.6289H33.9318C35.4649 42.6289 36.7124 43.8764 36.7124 45.4094Z" fill="#40D98D"/>
<path d="M36.7121 57.3633V67.8364C36.7121 69.3693 35.4646 70.6168 33.9316 70.6168H30.7803C29.2473 70.6168 27.9998 69.3693 27.9998 67.8364V57.3633H36.7121Z" fill="#25BB71"/>
<path d="M81.5574 172.068L63.998 176.553L59.2891 126.883L81.558 131.927C84.8571 144.923 84.7725 159.05 81.5574 172.068Z" fill="#B6D7FC"/>
<path d="M46.4429 172.071L63.9971 176.556V172.071V127.965L46.4429 131.929C43.1438 144.925 43.2279 159.053 46.4429 172.071Z" fill="#E2EFFE"/>
<path d="M63.9962 131.929H81.5557V126C81.5557 124.895 80.6603 124 79.5557 124H63.9962L62.043 128.36L63.9962 131.929Z" fill="#0965CD"/>
<path d="M63.9967 172.07H81.5562V178C81.5562 179.104 80.6608 180 79.5562 180H63.9967L61.7227 176.035L63.9967 172.07Z" fill="#0965CD"/>
<path d="M46.4434 126C46.4434 124.895 47.3388 124 48.4434 124H63.9976V131.929H46.4434V126Z" fill="#157DF5"/>
<path d="M46.4434 172.07H63.9976V180H48.4434C47.3388 180 46.4434 179.104 46.4434 178V172.07Z" fill="#157DF5"/>
<path fill-rule="evenodd" clip-rule="evenodd" d="M67.7298 142.191C67.3977 142.172 67.0664 142.231 66.7608 142.363C66.7254 142.164 66.6692 141.967 66.5915 141.775C66.4956 141.537 66.3714 141.318 66.224 141.121C65.702 140.424 64.8879 140 63.999 140C63.1112 140 62.2972 140.424 61.7753 141.122C61.628 141.319 61.5039 141.537 61.4081 141.775C61.3304 141.967 61.2742 142.164 61.2388 142.363C60.9334 142.231 60.6022 142.172 60.2703 142.191C60.0271 142.205 59.7834 142.26 59.5491 142.36C58.7742 142.689 58.2577 143.432 58.2006 144.281C58.1971 144.333 58.1953 144.386 58.1953 144.439C58.1953 145.423 58.8216 146.258 59.6901 146.545C58.8111 147.123 58.0492 147.873 57.4496 148.748C56.5365 150.08 56 151.703 56 153.452V162.453C56 162.84 56.3059 163.153 56.6831 163.153H60.5802C60.9887 163.68 61.6137 163.998 62.2942 163.998C62.6831 163.998 63.0481 163.896 63.3654 163.716C63.5996 163.584 63.8078 163.409 63.9804 163.202C64.1537 163.409 64.3626 163.584 64.5968 163.716C64.9153 163.896 65.2806 163.998 65.667 163.998C66.3472 163.998 66.972 163.68 67.3805 163.153H71.3169C71.6941 163.153 72 162.84 72 162.453V153.452C72 151.703 71.4634 150.08 70.5502 148.748C69.9507 147.873 69.1888 147.123 68.3098 146.545C69.1774 146.258 69.8044 145.425 69.8044 144.437C69.8044 144.385 69.8027 144.333 69.7992 144.281C69.7425 143.433 69.2259 142.689 68.4505 142.36C68.2164 142.26 67.9729 142.205 67.7298 142.191ZM68.5946 139.283C67.5233 137.878 65.8505 137 63.999 137C62.1481 137 60.4758 137.878 59.4049 139.283C59.0567 139.351 58.7122 139.456 58.3767 139.598C56.4147 140.432 55.1953 142.356 55.1953 144.439C55.1953 145.092 55.315 145.721 55.5356 146.303C53.9499 148.248 53 150.743 53 153.452V162.453C53 164.426 54.5791 166.153 56.6831 166.153H59.4662C60.2863 166.691 61.2614 166.998 62.2942 166.998C62.8868 166.998 63.4541 166.898 63.9814 166.716C64.5093 166.899 65.0763 166.998 65.667 166.998C66.6998 166.998 67.6747 166.691 68.4946 166.153H71.3169C73.4209 166.153 75 164.426 75 162.453V153.452C75 150.743 74.05 148.248 72.4642 146.303C72.6847 145.721 72.8044 145.091 72.8044 144.437M68.5946 139.283C68.9428 139.351 69.2874 139.456 69.6228 139.598C71.584 140.431 72.8044 142.355 72.8044 144.437" fill="white"/>
<path d="M64.0003 146.651H60.3528C59.1587 146.651 58.1953 145.66 58.1953 144.439C58.1953 143.525 58.7267 142.709 59.5491 142.36C60.3719 142.01 61.3101 142.202 61.9396 142.847L64.4833 145.455C64.6786 145.655 64.7371 145.957 64.6314 146.218C64.5256 146.48 64.2765 146.651 64.0003 146.651Z" fill="#F3263D"/>
<path d="M67.647 146.651H63.9995C63.7232 146.651 63.4742 146.48 63.3684 146.218C63.2627 145.957 63.3211 145.655 63.5165 145.455L66.0602 142.847C66.6897 142.202 67.628 142.011 68.4505 142.36C69.2731 142.709 69.8044 143.525 69.8044 144.437C69.8044 145.662 68.8392 146.651 67.647 146.651Z" fill="#F54B5E"/>
<path d="M71.3169 163.153H56.6831C56.3059 163.153 56 162.84 56 162.453V153.452C56 148.929 59.5888 145.25 64 145.25C68.4112 145.25 72 148.929 72 153.452V162.453C72 162.84 71.6941 163.153 71.3169 163.153Z" fill="#F0F7FE"/>
<path d="M72.0008 162.453V153.452C72.0008 148.929 68.412 145.25 64.0008 145.25C64.0005 145.25 64.0003 145.25 64 145.25V163.153H71.3177C71.6949 163.153 72.0008 162.84 72.0008 162.453Z" fill="#E2EFFE"/>
<path d="M67.218 160.166L64.9234 157.809C64.8236 157.706 64.6881 157.648 64.5467 157.648C64.5465 157.648 64.546 157.648 64.5461 157.648H63.4146C63.4148 157.648 63.4143 157.648 63.414 157.648C63.2727 157.648 63.1371 157.706 63.0373 157.809L60.7427 160.166C60.1148 160.811 59.9292 161.772 60.2699 162.613C60.6106 163.455 61.4049 163.998 62.2942 163.998C62.9701 163.998 63.5739 163.689 63.9804 163.202C64.3895 163.691 64.9965 163.998 65.667 163.998C66.5558 163.998 67.3501 163.455 67.6907 162.613C68.0315 161.772 67.8459 160.811 67.218 160.166Z" fill="#F54B5E"/>
<path d="M65.6682 163.998C66.557 163.998 67.3514 163.455 67.6919 162.613C68.0327 161.772 67.8471 160.811 67.2192 160.166L64.9247 157.809C64.8248 157.706 64.6893 157.648 64.5479 157.648C64.5477 157.648 64.5472 157.648 64.5474 157.648C64.5476 157.648 64.2742 157.648 63.9961 157.648V163.218C64.405 163.698 65.0054 163.998 65.6682 163.998Z" fill="#F3263D"/>
<path d="M61.1094 153C61.9378 153 62.6094 152.328 62.6094 151.5C62.6094 150.672 61.9378 150 61.1094 150C60.2809 150 59.6094 150.672 59.6094 151.5C59.6094 152.328 60.2809 153 61.1094 153Z" fill="#282A52"/>
<path d="M66.9766 153C67.805 153 68.4766 152.328 68.4766 151.5C68.4766 150.672 67.805 150 66.9766 150C66.1481 150 65.4766 150.672 65.4766 151.5C65.4766 152.328 66.1481 153 66.9766 153Z" fill="#1E203E"/>
<path d="M63.9998 146.651C63.825 146.651 63.6501 146.583 63.5168 146.446L62.0161 144.908C61.2113 144.083 60.9727 142.853 61.4081 141.775C61.8436 140.697 62.8606 140 63.999 140C65.1389 140 66.156 140.697 66.5915 141.775C67.0269 142.853 66.7882 144.083 65.9835 144.908L64.4828 146.446C64.3494 146.583 64.1746 146.651 63.9998 146.651Z" fill="#F54B5E"/>
<path d="M64.4838 146.446L65.9845 144.908C66.7892 144.083 67.0279 142.853 66.5925 141.775C66.157 140.697 65.14 140 64 140V146.651C64.0003 146.651 64.0005 146.651 64.0008 146.651C64.1756 146.651 64.3504 146.583 64.4838 146.446Z" fill="#F3263D"/>
<path d="M63.9833 159.019C63.9827 159.019 63.9821 159.019 63.9815 159.019C63.8354 159.018 63.6956 158.958 63.5927 158.852L61.2498 156.434C61.036 156.213 61.0366 155.857 61.2511 155.637L62.3588 154.501C62.7974 154.052 63.3798 153.805 63.9989 153.805C64.6181 153.805 65.2005 154.052 65.639 154.501L66.7468 155.637C66.8502 155.743 66.9082 155.887 66.908 156.037C66.9078 156.187 66.8493 156.331 66.7455 156.437L64.3713 158.855C64.2681 158.96 64.1286 159.019 63.9833 159.019Z" fill="#FEE048"/>
<path d="M66.7452 156.437C66.849 156.331 66.9075 156.187 66.9077 156.037C66.908 155.887 66.85 155.743 66.7465 155.637L65.6387 154.501C65.2002 154.052 64.6178 153.805 63.9987 153.805C63.9985 153.805 63.9983 153.805 63.998 153.805V159.018C64.1379 159.014 64.2714 158.956 64.371 158.855L66.7452 156.437Z" fill="#FED601"/>
<path d="M59.6052 143.724C59.6052 146.503 57.4175 148.821 54.6307 148.821L46.7881 149.376C46.0614 149.429 45.4998 150.034 45.4998 150.762V166.568C40.8196 166.242 38.4308 164.628 34.6998 162.763C34.2289 162.527 33.9314 162.045 33.9314 161.519V143.724C33.9314 143.116 34.3262 142.578 34.9074 142.397C48.2004 138.244 45.6663 138.626 54.6307 138.626C57.3733 138.626 59.6052 140.913 59.6052 143.724Z" fill="#FFDECC"/>
<path d="M45.4998 153.363V166.569C40.8196 166.242 38.4308 164.628 34.6998 162.763C34.2289 162.528 33.9314 162.046 33.9314 161.519V153.363H45.4998Z" fill="#FFCFB5"/>
<path d="M36.7124 141.409V163.838C36.7124 165.371 35.4649 166.619 33.9318 166.619H30.7806C29.2475 166.619 28 165.371 28 163.838V141.409C28 139.876 29.2475 138.629 30.7806 138.629H33.9318C35.4649 138.629 36.7124 139.876 36.7124 141.409Z" fill="#40D98D"/>
<path d="M36.7121 153.363V163.836C36.7121 165.369 35.4646 166.617 33.9316 166.617H30.7803C29.2473 166.617 27.9998 165.369 27.9998 163.836V153.363H36.7121Z" fill="#25BB71"/>
<defs>
<filter id="filter0_d_10792_60692" x="10" y="9" width="96" height="96" filterUnits="userSpaceOnUse" color-interpolation-filters="sRGB">
<feFlood flood-opacity="0" result="BackgroundImageFix"/>
<feColorMatrix in="SourceAlpha" type="matrix" values="0 0 0 0 0 0 0 0 0 0 0 0 0 0 0 0 0 0 127 0" result="hardAlpha"/>
<feOffset dx="2" dy="1"/>
<feGaussianBlur stdDeviation="4"/>
<feColorMatrix type="matrix" values="0 0 0 0 0.0392157 0 0 0 0 0.0392157 0 0 0 0 0.0627451 0 0 0 0.08 0"/>
<feBlend mode="normal" in2="BackgroundImageFix" result="effect1_dropShadow_10792_60692"/>
<feBlend mode="normal" in="SourceGraphic" in2="effect1_dropShadow_10792_60692" result="shape"/>
</filter>
</defs>
</svg>
