<svg width="112" height="208" viewBox="0 0 112 208" fill="none" xmlns="http://www.w3.org/2000/svg">
<rect x="0.5" y="0.5" width="111" height="207" rx="4.5" stroke="#9747FF" stroke-dasharray="10 5"/>
<g filter="url(#filter0_d_44846_11362)">
<rect x="16" y="16" width="80" height="80" rx="8" fill="white"/>
</g>
<g clip-path="url(#clip0_44846_11362)">
<path d="M43.6083 33.8608V58.6436C43.6083 58.9645 43.719 59.2762 43.9227 59.5255L52.8456 70.4656C53.1098 70.7903 53.507 70.9791 53.9265 70.9791H71.8876C73.4262 70.9791 74.6784 69.727 74.6784 68.1883V33.8608C74.6784 32.1649 76.0503 30.7909 77.7481 30.7909C78.5184 30.7909 79.1435 30.1657 79.1435 29.3954C79.1435 28.6252 79.9138 28 79.1435 28H49.4688C46.2372 28 43.6083 30.629 43.6083 33.8608Z" fill="#E2EFFE"/>
<path d="M43.6063 58.6436V33.8608C43.6063 30.629 46.2351 28 49.4668 28H59.9995V70.9791H53.9245H45.1063C44.2779 70.9791 43.6063 70.3076 43.6063 69.4791V58.6436Z" fill="#F0F7FE"/>
<path d="M74.6766 42.6985H80.8162C82.3575 42.6985 83.6069 41.449 83.6069 39.9076V32.4654C83.6069 29.9992 81.6078 28 79.1418 28C76.6826 28 74.6766 29.9924 74.6766 32.4654V42.6985Z" fill="#B6D7FC"/>
<path d="M70.0777 41.5273H64.6136C63.7225 41.5273 63 40.7377 63 39.7637C63 38.7897 63.7225 38 64.6136 38H70.0777C70.9688 38 71.6913 38.7897 71.6913 39.7637C71.6913 40.7377 70.9688 41.5273 70.0777 41.5273Z" fill="#1E203E"/>
<path d="M70.0777 49.2852H64.6136C63.7225 49.2852 63 48.4955 63 47.5215C63 46.5475 63.7225 45.7578 64.6136 45.7578H70.0777C70.9688 45.7578 71.6913 46.5475 71.6913 47.5215C71.6913 48.4955 70.9688 49.2852 70.0777 49.2852Z" fill="#0965CD"/>
<path d="M59.7024 49.8175H59.4982L57.2966 45.1631H57.5481L56.6598 43.2678C56.4795 42.8782 56.0884 42.6287 55.6558 42.6287H49.5008L47.0254 49.5678L49.745 58.3718H59.0717C59.5798 58.3718 59.9919 57.9614 59.9924 57.4548C59.9924 57.4548 59.9997 52.3128 59.9998 50.5279C59.9998 50.4985 59.9934 50.4702 59.9811 50.4435L59.7024 49.8175Z" fill="#0965CD"/>
<path d="M57.5474 45.1608H53.5693C53.2473 45.1608 52.9863 45.421 52.9863 45.7421V49.1049C52.9863 49.4972 53.3052 49.8152 53.6987 49.8152H59.7017L57.5474 45.1608Z" fill="#B6D7FC"/>
<path d="M29.2539 52.4927V57.4597C29.2539 57.9127 29.7069 58.3727 30.2658 58.3727H49.7486V52.4926L29.2539 52.4927Z" fill="#157DF5"/>
<path d="M38.5234 52.4926H49.7461V58.3727H38.5234V52.4926Z" fill="#0965CD"/>
<path d="M49.7463 53.5031H28.7491C28.3354 53.5031 28 53.1686 28 52.7561V40.7469C28 40.3344 28.3354 40 28.7491 40L48.9972 40C49.4109 40 49.7463 40.3344 49.7463 40.7469V43.7959V53.5031Z" fill="#40D98D"/>
<path d="M34.6812 61.5003C32.9917 61.5003 31.6172 60.1298 31.6172 58.4452C31.6172 56.7607 32.9917 55.3901 34.6812 55.3901C36.3708 55.3901 37.7453 56.7607 37.7453 58.4452C37.7453 60.1298 36.3708 61.5003 34.6812 61.5003Z" fill="#1E203E"/>
<path d="M55.0641 61.4961C53.3745 61.4961 52 60.1256 52 58.441C52 56.7565 53.3745 55.3859 55.0641 55.3859C56.7536 55.3859 58.1281 56.7565 58.1281 58.441C58.1281 60.1256 56.7536 61.4961 55.0641 61.4961Z" fill="#1E203E"/>
<path d="M48.997 40H38.5234V53.5031H49.7461V40.7469C49.7461 40.3344 49.4107 40 48.997 40Z" fill="#25BB71"/>
<path d="M73.1816 57.2316C73.4972 56.9297 74.0165 56.9221 74.3418 57.215C74.667 57.508 74.6749 57.9906 74.3594 58.2921L73.6924 58.9308C74.9496 59.3096 76.172 60.0982 77.1963 61.2199C78.5782 62.7341 79.4033 64.6499 79.4033 66.3439C79.4033 67.576 78.9725 68.7327 78.1729 69.7091C78.3945 69.969 78.5964 70.2388 78.7773 70.5158L81.7754 69.1505C81.7868 69.1453 81.7989 69.1416 81.8105 69.1369C82.0643 69.0334 82.36 69.0484 82.5986 69.1837C82.8482 69.3245 83 69.5727 83 69.84C83 77.0667 78.0652 82.9972 72 82.9972L71.7168 82.9923C65.7819 82.8112 61 76.9538 61 69.84C61 69.5727 61.1518 69.3245 61.4014 69.1837C61.6493 69.043 61.9627 69.0316 62.2246 69.1505L65.2305 70.5197L65.2725 70.5002C65.4508 70.2286 65.6497 69.9641 65.8672 69.7091C65.0677 68.7328 64.6377 67.5759 64.6377 66.3439C64.6377 64.6499 65.4628 62.7342 66.8447 61.2199C67.8619 60.1058 69.0738 59.319 70.3223 58.9377L70.1279 58.758C69.808 58.4604 69.808 57.9774 70.1279 57.6798C70.4484 57.383 70.9677 57.383 71.2881 57.6798L72.0117 58.3517L72.0205 58.3429L73.1816 57.2316Z" fill="white"/>
<path d="M79.4033 66.3439C79.4033 64.6499 78.5782 62.7341 77.1963 61.2199C76.172 60.0982 74.9496 59.3096 73.6924 58.9308L74.3594 58.2921C74.6749 57.9906 74.667 57.508 74.3418 57.215C74.0165 56.9221 73.4972 56.9297 73.1816 57.2316L72.0205 58.3429L72.0117 58.3517L71.2881 57.6798C70.9677 57.383 70.4484 57.383 70.1279 57.6798C69.808 57.9774 69.808 58.4604 70.1279 58.758L70.3223 58.9377C69.0738 59.319 67.8619 60.1058 66.8447 61.2199L66.5918 61.5079C65.3625 62.9723 64.6377 64.7557 64.6377 66.3439L64.6426 66.5743C64.6928 67.72 65.1178 68.7939 65.8672 69.7091C65.6497 69.9641 65.4508 70.2286 65.2725 70.5002L65.2305 70.5197L62.2246 69.1505C61.9627 69.0316 61.6493 69.043 61.4014 69.1837L61.3125 69.2413C61.1162 69.3868 61 69.6061 61 69.84L61.0137 70.503C61.2998 77.3143 65.9674 82.8168 71.7168 82.9923L72 82.9972C77.8756 82.9972 82.69 77.4316 82.9854 70.5138L83 69.84C83 69.6061 82.8838 69.3868 82.6875 69.2413L82.5986 69.1837C82.36 69.0484 82.0643 69.0334 81.8105 69.1369C81.7989 69.1416 81.7868 69.1453 81.7754 69.1505L78.7773 70.5158L78.6377 70.3097C78.4942 70.1047 78.3391 69.9041 78.1729 69.7091C78.9224 68.7938 79.3481 67.7201 79.3984 66.5743L79.4033 66.3439ZM80.3975 66.6193C80.3616 67.4325 80.1656 68.2122 79.8301 68.9366L81.3584 68.2413L81.416 68.2169C81.4303 68.2112 81.4426 68.2073 81.4482 68.2052C81.4508 68.2042 81.4537 68.2024 81.4541 68.2023C81.4521 68.203 81.4433 68.2067 81.4326 68.2111C81.959 67.9965 82.5758 68.022 83.0898 68.3126L83.2832 68.4386C83.683 68.7357 83.9589 69.1925 83.9961 69.7179L84 69.84C84 77.4422 78.779 83.9972 72 83.9972H71.9824L71.6992 83.9923H71.6865C65.2661 83.7963 60.3178 77.7253 60.0146 70.5392L60 69.84C60 69.1811 60.3741 68.615 60.9102 68.3126C61.4433 68.0114 62.0933 67.9932 62.6377 68.2403L64.2188 68.9601C63.877 68.2292 63.6797 67.4407 63.6436 66.6193L63.6377 66.3439C63.6377 64.3502 64.5936 62.2038 66.1064 60.546L66.3193 60.3195C67.0931 59.5218 67.9699 58.8791 68.9014 58.4269C68.837 57.898 69.0187 57.346 69.4473 56.9474L69.4482 56.9464L69.585 56.8312C70.2425 56.3322 71.1734 56.3322 71.8311 56.8312L71.9678 56.9464L71.9688 56.9474L72 56.9777L72.4902 56.5089L72.625 56.3917C73.2759 55.8811 74.208 55.869 74.873 56.3595L75.0107 56.4718L75.1445 56.6046C75.6372 57.1515 75.7235 57.9292 75.3945 58.5577C76.2299 58.9992 77.0173 59.594 77.7197 60.3175L77.9346 60.546L78.2119 60.8624C79.5634 62.4715 80.4033 64.4749 80.4033 66.3439L80.3975 66.6193Z" fill="white"/>
<path d="M75.9306 73.8329L72.0205 79.6991C69.9659 79.6991 68.0267 79.102 66.5599 78.0178C65.038 76.8935 64.2002 75.3823 64.2002 73.7634C64.2002 72.1648 65.055 70.4052 66.4867 69.0565C68.031 67.6021 69.9965 66.8008 72.0205 66.8008L75.9306 73.8329Z" fill="#FEE048"/>
<path d="M79.8408 73.7634C79.8408 75.3823 79.003 76.8935 77.481 78.0178C76.0143 79.102 74.0751 79.6991 72.0205 79.6991V66.8008C74.0445 66.8008 76.0099 67.6021 77.5543 69.0565C78.986 70.4052 79.8408 72.1648 79.8408 73.7634Z" fill="#FED601"/>
<path d="M75.4658 66.8006L72.0205 72.3865C70.1627 72.3865 68.3149 71.7903 66.9504 70.7508C65.4591 69.6149 64.6377 68.0498 64.6377 66.3436C64.6377 64.6495 65.4629 62.7341 66.8449 61.2198C67.8621 60.1056 69.0739 59.319 70.3224 58.9377L70.1277 58.7574C69.8078 58.4598 69.8078 57.9774 70.1277 57.6798C70.4482 57.3828 70.9677 57.3828 71.2882 57.6798L72.0117 58.3517L72.0205 58.343L75.4658 66.8006Z" fill="#FEE048"/>
<path d="M79.4033 66.3438C79.4033 68.05 78.5819 69.6151 77.0906 70.7511C75.7261 71.7906 73.8782 72.3867 72.0205 72.3867V58.3432L73.1815 57.2317C73.4971 56.9295 74.016 56.9219 74.3414 57.2149C74.6668 57.5079 74.675 57.9903 74.3595 58.292L73.6928 58.9303C74.9501 59.3091 76.1718 60.0982 77.1961 61.22C78.578 62.7343 79.4033 64.6497 79.4033 66.3438Z" fill="#FED601"/>
<path d="M73.3056 67.0516L72.0204 69.543C71.771 69.543 71.5353 69.4379 71.38 69.2571L69.63 67.2258C69.4753 67.0461 69.4162 66.8114 69.4692 66.5865C69.5223 66.362 69.682 66.1716 69.9035 66.0685L71.6535 65.256C71.7689 65.2022 71.8946 65.1758 72.0204 65.1758L73.3056 67.0516Z" fill="#FDAA49"/>
<path d="M74.4109 67.2258L72.6609 69.2571C72.5056 69.4379 72.2699 69.543 72.0205 69.543V65.1758C72.1463 65.1758 72.2721 65.2022 72.3875 65.256L74.1375 66.0685C74.3589 66.1716 74.5186 66.362 74.5717 66.5865C74.6247 66.8114 74.5657 67.0461 74.4109 67.2258Z" fill="#FD9317"/>
<path d="M69.3955 65.0742C68.9425 65.0742 68.5752 64.7332 68.5752 64.3125V63.9062C68.5752 63.4856 68.9425 63.1445 69.3955 63.1445C69.8485 63.1445 70.2158 63.4856 70.2158 63.9062V64.3125C70.2158 64.7332 69.8486 65.0742 69.3955 65.0742Z" fill="#282A52"/>
<path d="M74.6455 65.0742C74.1925 65.0742 73.8252 64.7332 73.8252 64.3125V63.9062C73.8252 63.4856 74.1925 63.1445 74.6455 63.1445C75.0985 63.1445 75.4658 63.4856 75.4658 63.9062V64.3125C75.4658 64.7332 75.0986 65.0742 74.6455 65.0742Z" fill="#1E203E"/>
<path d="M72 82.9969C65.9348 82.9969 61 77.0664 61 69.8398C61 69.5725 61.152 69.3248 61.4016 69.184C61.6495 69.0432 61.9626 69.0312 62.2246 69.1501L65.2308 70.5196L68.2369 69.1501C68.4749 69.0418 68.7558 69.0418 68.9938 69.1501L72 70.5196L75.0062 69.1501C75.2442 69.0418 75.5251 69.0418 75.7631 69.1501L78.7692 70.5196L81.7754 69.1501C82.0365 69.0304 82.3489 69.0425 82.5984 69.184C82.848 69.3248 83 69.5725 83 69.8398C83 77.0664 78.0652 82.9969 72 82.9969Z" fill="#E2EFFE"/>
<path d="M83 69.8398C83 69.5725 82.848 69.3248 82.5984 69.184C82.3489 69.0425 82.0365 69.0304 81.7754 69.1501L78.7692 70.5196L75.7631 69.1501C75.5251 69.0418 75.2442 69.0418 75.0062 69.1501L72 70.5196V82.9969C78.0652 82.9969 83 77.0664 83 69.8398Z" fill="#B6D7FC"/>
</g>
<g clip-path="url(#clip1_44846_11362)">
<path d="M43.6083 129.861V154.644C43.6083 154.965 43.719 155.276 43.9227 155.525L52.8456 166.466C53.1098 166.79 53.507 166.979 53.9265 166.979H71.8876C73.4262 166.979 74.6784 165.727 74.6784 164.188V129.861C74.6784 128.165 76.0503 126.791 77.7481 126.791C78.5184 126.791 79.1435 126.166 79.1435 125.395C79.1435 124.625 79.9138 124 79.1435 124H49.4688C46.2372 124 43.6083 126.629 43.6083 129.861Z" fill="#E2EFFE"/>
<path d="M43.6063 154.644V129.861C43.6063 126.629 46.2351 124 49.4668 124H59.9995V166.979H53.9245H45.1063C44.2779 166.979 43.6063 166.308 43.6063 165.479V154.644Z" fill="#F0F7FE"/>
<path d="M74.6766 138.698H80.8162C82.3575 138.698 83.6069 137.449 83.6069 135.908V128.465C83.6069 125.999 81.6078 124 79.1418 124C76.6826 124 74.6766 125.992 74.6766 128.465V138.698Z" fill="#B6D7FC"/>
<path d="M70.0777 137.527H64.6136C63.7225 137.527 63 136.738 63 135.764C63 134.79 63.7225 134 64.6136 134H70.0777C70.9688 134 71.6913 134.79 71.6913 135.764C71.6913 136.738 70.9688 137.527 70.0777 137.527Z" fill="#1E203E"/>
<path d="M70.0777 145.285H64.6136C63.7225 145.285 63 144.496 63 143.521C63 142.547 63.7225 141.758 64.6136 141.758H70.0777C70.9688 141.758 71.6913 142.547 71.6913 143.521C71.6913 144.496 70.9688 145.285 70.0777 145.285Z" fill="#0965CD"/>
<path d="M59.7024 145.817H59.4982L57.2966 141.163H57.5481L56.6598 139.268C56.4795 138.878 56.0884 138.629 55.6558 138.629H49.5008L47.0254 145.568L49.745 154.372H59.0717C59.5798 154.372 59.9919 153.961 59.9924 153.455C59.9924 153.455 59.9997 148.313 59.9998 146.528C59.9998 146.499 59.9934 146.47 59.9811 146.443L59.7024 145.817Z" fill="#0965CD"/>
<path d="M57.5474 141.161H53.5693C53.2473 141.161 52.9863 141.421 52.9863 141.742V145.105C52.9863 145.497 53.3052 145.815 53.6987 145.815H59.7017L57.5474 141.161Z" fill="#B6D7FC"/>
<path d="M29.2539 148.493V153.46C29.2539 153.913 29.7069 154.373 30.2658 154.373H49.7486V148.493L29.2539 148.493Z" fill="#157DF5"/>
<path d="M38.5234 148.493H49.7461V154.373H38.5234V148.493Z" fill="#0965CD"/>
<path d="M49.7463 149.503H28.7491C28.3354 149.503 28 149.169 28 148.756V136.747C28 136.334 28.3354 136 28.7491 136L48.9972 136C49.4109 136 49.7463 136.334 49.7463 136.747V139.796V149.503Z" fill="#40D98D"/>
<path d="M34.6812 157.5C32.9917 157.5 31.6172 156.13 31.6172 154.445C31.6172 152.761 32.9917 151.39 34.6812 151.39C36.3708 151.39 37.7453 152.761 37.7453 154.445C37.7453 156.13 36.3708 157.5 34.6812 157.5Z" fill="#1E203E"/>
<path d="M55.0641 157.496C53.3745 157.496 52 156.126 52 154.441C52 152.756 53.3745 151.386 55.0641 151.386C56.7536 151.386 58.1281 152.756 58.1281 154.441C58.1281 156.126 56.7536 157.496 55.0641 157.496Z" fill="#1E203E"/>
<path d="M48.997 136H38.5234V149.503H49.7461V136.747C49.7461 136.334 49.4107 136 48.997 136Z" fill="#25BB71"/>
<path d="M73.1816 153.232C73.4972 152.93 74.0165 152.922 74.3418 153.215C74.667 153.508 74.6749 153.991 74.3594 154.292L73.6924 154.931C74.9496 155.31 76.172 156.098 77.1963 157.22C78.5782 158.734 79.4033 160.65 79.4033 162.344C79.4033 163.576 78.9725 164.733 78.1729 165.709C78.3945 165.969 78.5964 166.239 78.7773 166.516L81.7754 165.151C81.7868 165.145 81.7989 165.142 81.8105 165.137C82.0643 165.033 82.36 165.048 82.5986 165.184C82.8482 165.325 83 165.573 83 165.84C83 173.067 78.0652 178.997 72 178.997L71.7168 178.992C65.7819 178.811 61 172.954 61 165.84C61 165.573 61.1518 165.325 61.4014 165.184C61.6493 165.043 61.9627 165.032 62.2246 165.151L65.2305 166.52L65.2725 166.5C65.4508 166.229 65.6497 165.964 65.8672 165.709C65.0677 164.733 64.6377 163.576 64.6377 162.344C64.6377 160.65 65.4628 158.734 66.8447 157.22C67.8619 156.106 69.0738 155.319 70.3223 154.938L70.1279 154.758C69.808 154.46 69.808 153.977 70.1279 153.68C70.4484 153.383 70.9677 153.383 71.2881 153.68L72.0117 154.352L72.0205 154.343L73.1816 153.232Z" fill="white"/>
<path d="M79.4033 162.344C79.4033 160.65 78.5782 158.734 77.1963 157.22C76.172 156.098 74.9496 155.31 73.6924 154.931L74.3594 154.292C74.6749 153.991 74.667 153.508 74.3418 153.215C74.0165 152.922 73.4972 152.93 73.1816 153.232L72.0205 154.343L72.0117 154.352L71.2881 153.68C70.9677 153.383 70.4484 153.383 70.1279 153.68C69.808 153.977 69.808 154.46 70.1279 154.758L70.3223 154.938C69.0738 155.319 67.8619 156.106 66.8447 157.22L66.5918 157.508C65.3625 158.972 64.6377 160.756 64.6377 162.344L64.6426 162.574C64.6928 163.72 65.1178 164.794 65.8672 165.709C65.6497 165.964 65.4508 166.229 65.2725 166.5L65.2305 166.52L62.2246 165.151C61.9627 165.032 61.6493 165.043 61.4014 165.184L61.3125 165.241C61.1162 165.387 61 165.606 61 165.84L61.0137 166.503C61.2998 173.314 65.9674 178.817 71.7168 178.992L72 178.997C77.8756 178.997 82.69 173.432 82.9854 166.514L83 165.84C83 165.606 82.8838 165.387 82.6875 165.241L82.5986 165.184C82.36 165.048 82.0643 165.033 81.8105 165.137C81.7989 165.142 81.7868 165.145 81.7754 165.151L78.7773 166.516L78.6377 166.31C78.4942 166.105 78.3391 165.904 78.1729 165.709C78.9224 164.794 79.3481 163.72 79.3984 162.574L79.4033 162.344ZM80.3975 162.619C80.3616 163.433 80.1656 164.212 79.8301 164.937L81.3584 164.241L81.416 164.217C81.4303 164.211 81.4426 164.207 81.4482 164.205C81.4508 164.204 81.4537 164.202 81.4541 164.202C81.4521 164.203 81.4433 164.207 81.4326 164.211C81.959 163.997 82.5758 164.022 83.0898 164.313L83.2832 164.439C83.683 164.736 83.9589 165.193 83.9961 165.718L84 165.84C84 173.442 78.779 179.997 72 179.997H71.9824L71.6992 179.992H71.6865C65.2661 179.796 60.3178 173.725 60.0146 166.539L60 165.84C60 165.181 60.3741 164.615 60.9102 164.313C61.4433 164.011 62.0933 163.993 62.6377 164.24L64.2188 164.96C63.877 164.229 63.6797 163.441 63.6436 162.619L63.6377 162.344C63.6377 160.35 64.5936 158.204 66.1064 156.546L66.3193 156.319C67.0931 155.522 67.9699 154.879 68.9014 154.427C68.837 153.898 69.0187 153.346 69.4473 152.947L69.4482 152.946L69.585 152.831C70.2425 152.332 71.1734 152.332 71.8311 152.831L71.9678 152.946L71.9688 152.947L72 152.978L72.4902 152.509L72.625 152.392C73.2759 151.881 74.208 151.869 74.873 152.359L75.0107 152.472L75.1445 152.605C75.6372 153.151 75.7235 153.929 75.3945 154.558C76.2299 154.999 77.0173 155.594 77.7197 156.317L77.9346 156.546L78.2119 156.862C79.5634 158.471 80.4033 160.475 80.4033 162.344L80.3975 162.619Z" fill="white"/>
<path d="M75.9306 169.833L72.0205 175.699C69.9659 175.699 68.0267 175.102 66.5599 174.018C65.038 172.893 64.2002 171.382 64.2002 169.763C64.2002 168.165 65.055 166.405 66.4867 165.056C68.031 163.602 69.9965 162.801 72.0205 162.801L75.9306 169.833Z" fill="#FEE048"/>
<path d="M79.8408 169.763C79.8408 171.382 79.003 172.893 77.481 174.018C76.0143 175.102 74.0751 175.699 72.0205 175.699V162.801C74.0445 162.801 76.0099 163.602 77.5543 165.056C78.986 166.405 79.8408 168.165 79.8408 169.763Z" fill="#FED601"/>
<path d="M75.4658 162.801L72.0205 168.387C70.1627 168.387 68.3149 167.79 66.9504 166.751C65.4591 165.615 64.6377 164.05 64.6377 162.344C64.6377 160.65 65.4629 158.734 66.8449 157.22C67.8621 156.106 69.0739 155.319 70.3224 154.938L70.1277 154.757C69.8078 154.46 69.8078 153.977 70.1277 153.68C70.4482 153.383 70.9677 153.383 71.2882 153.68L72.0117 154.352L72.0205 154.343L75.4658 162.801Z" fill="#FEE048"/>
<path d="M79.4033 162.344C79.4033 164.05 78.5819 165.615 77.0906 166.751C75.7261 167.791 73.8782 168.387 72.0205 168.387V154.343L73.1815 153.232C73.4971 152.93 74.016 152.922 74.3414 153.215C74.6668 153.508 74.675 153.99 74.3595 154.292L73.6928 154.93C74.9501 155.309 76.1718 156.098 77.1961 157.22C78.578 158.734 79.4033 160.65 79.4033 162.344Z" fill="#FED601"/>
<path d="M73.3056 163.052L72.0204 165.543C71.771 165.543 71.5353 165.438 71.38 165.257L69.63 163.226C69.4753 163.046 69.4162 162.811 69.4692 162.586C69.5223 162.362 69.682 162.172 69.9035 162.069L71.6535 161.256C71.7689 161.202 71.8946 161.176 72.0204 161.176L73.3056 163.052Z" fill="#FDAA49"/>
<path d="M74.4109 163.226L72.6609 165.257C72.5056 165.438 72.2699 165.543 72.0205 165.543V161.176C72.1463 161.176 72.2721 161.202 72.3875 161.256L74.1375 162.069C74.3589 162.172 74.5186 162.362 74.5717 162.586C74.6247 162.811 74.5657 163.046 74.4109 163.226Z" fill="#FD9317"/>
<path d="M69.3955 161.074C68.9425 161.074 68.5752 160.733 68.5752 160.312V159.906C68.5752 159.486 68.9425 159.145 69.3955 159.145C69.8485 159.145 70.2158 159.486 70.2158 159.906V160.312C70.2158 160.733 69.8486 161.074 69.3955 161.074Z" fill="#282A52"/>
<path d="M74.6455 161.074C74.1925 161.074 73.8252 160.733 73.8252 160.312V159.906C73.8252 159.486 74.1925 159.145 74.6455 159.145C75.0985 159.145 75.4658 159.486 75.4658 159.906V160.312C75.4658 160.733 75.0986 161.074 74.6455 161.074Z" fill="#1E203E"/>
<path d="M72 178.997C65.9348 178.997 61 173.066 61 165.84C61 165.573 61.152 165.325 61.4016 165.184C61.6495 165.043 61.9626 165.031 62.2246 165.15L65.2308 166.52L68.2369 165.15C68.4749 165.042 68.7558 165.042 68.9938 165.15L72 166.52L75.0062 165.15C75.2442 165.042 75.5251 165.042 75.7631 165.15L78.7692 166.52L81.7754 165.15C82.0365 165.03 82.3489 165.042 82.5984 165.184C82.848 165.325 83 165.573 83 165.84C83 173.066 78.0652 178.997 72 178.997Z" fill="#E2EFFE"/>
<path d="M83 165.84C83 165.573 82.848 165.325 82.5984 165.184C82.3489 165.042 82.0365 165.03 81.7754 165.15L78.7692 166.52L75.7631 165.15C75.5251 165.042 75.2442 165.042 75.0062 165.15L72 166.52V178.997C78.0652 178.997 83 173.066 83 165.84Z" fill="#B6D7FC"/>
</g>
<defs>
<filter id="filter0_d_44846_11362" x="10" y="9" width="96" height="96" filterUnits="userSpaceOnUse" color-interpolation-filters="sRGB">
<feFlood flood-opacity="0" result="BackgroundImageFix"/>
<feColorMatrix in="SourceAlpha" type="matrix" values="0 0 0 0 0 0 0 0 0 0 0 0 0 0 0 0 0 0 127 0" result="hardAlpha"/>
<feOffset dx="2" dy="1"/>
<feGaussianBlur stdDeviation="4"/>
<feColorMatrix type="matrix" values="0 0 0 0 0.0392157 0 0 0 0 0.0392157 0 0 0 0 0.0627451 0 0 0 0.08 0"/>
<feBlend mode="normal" in2="BackgroundImageFix" result="effect1_dropShadow_44846_11362"/>
<feBlend mode="normal" in="SourceGraphic" in2="effect1_dropShadow_44846_11362" result="shape"/>
</filter>
<clipPath id="clip0_44846_11362">
<rect width="56" height="56" fill="white" transform="translate(28 28)"/>
</clipPath>
<clipPath id="clip1_44846_11362">
<rect width="56" height="56" fill="white" transform="translate(28 124)"/>
</clipPath>
</defs>
</svg>
