<svg width="112" height="208" viewBox="0 0 112 208" fill="none" xmlns="http://www.w3.org/2000/svg">
<rect x="0.5" y="0.5" width="111" height="207" rx="4.5" stroke="#9747FF" stroke-dasharray="10 5"/>
<g filter="url(#filter0_d_11148_58597)">
<rect x="16" y="16" width="80" height="80" rx="8" fill="white"/>
</g>
<path d="M47.2132 43.5806H38.4531C35.5853 43.5806 33.2715 41.2601 33.2715 38.399C33.2715 36.2574 34.5477 34.3471 36.5229 33.5286C38.499 32.7103 40.7522 33.1587 42.2641 34.6706L48.3732 40.7799C48.8424 41.2491 48.9828 41.9548 48.7289 42.5678C48.4749 43.1809 47.8768 43.5806 47.2132 43.5806Z" fill="#F3263D"/>
<path d="M55.9749 43.5806H47.2148C46.5512 43.5806 45.9531 43.1808 45.6991 42.5677C45.4452 41.9547 45.5856 41.249 46.0548 40.7798L52.1639 34.6705C53.6758 33.1587 55.9294 32.7104 57.9048 33.5284C59.8803 34.347 61.1564 36.2575 61.1564 38.3954C61.1565 41.2655 58.8383 43.5806 55.9749 43.5806Z" fill="#F54B5E"/>
<path d="M64.7865 82.2425H29.6406C28.7346 82.2425 28 81.5079 28 80.6019V59.5144C28 48.92 36.6192 40.3008 47.2136 40.3008C57.808 40.3008 66.4272 48.92 66.4272 59.5144V80.6019C66.4272 81.5079 65.6926 82.2425 64.7865 82.2425Z" fill="#F0F7FE"/>
<path d="M66.4264 80.6019V59.5144C66.4264 48.92 57.8072 40.3008 47.2128 40.3008C47.2121 40.3008 47.2116 40.3008 47.2109 40.3008V82.2424H64.7857C65.6918 82.2425 66.4264 81.5079 66.4264 80.6019Z" fill="#E2EFFE"/>
<path d="M57.1482 72.4739L50.0744 65.3843C49.7666 65.0757 49.3487 64.9023 48.9129 64.9023C48.9124 64.9023 48.9106 64.9023 48.9112 64.9023H45.4228C45.4233 64.9023 45.4217 64.9023 45.421 64.9023C44.9853 64.9023 44.5673 65.0757 44.2596 65.3843L37.1855 72.474C35.2499 74.4144 34.6778 77.303 35.7281 79.833C36.7782 82.364 39.227 83.9992 41.9688 83.9992C44.0525 83.9992 45.9139 83.0693 47.167 81.6041C48.4282 83.0752 50.2996 83.9992 52.3668 83.9992C55.1068 83.9992 57.5556 82.3638 58.6056 79.8332C59.6561 77.303 59.0839 74.4144 57.1482 72.4739Z" fill="#F54B5E"/>
<path d="M52.366 83.9992C55.1061 83.9992 57.5549 82.3638 58.6049 79.8332C59.6553 77.303 59.0832 74.4144 57.1474 72.4739L50.0736 65.3843C49.7658 65.0757 49.3479 64.9023 48.9122 64.9023C48.9116 64.9023 48.9099 64.9023 48.9104 64.9023C48.9113 64.9023 48.0683 64.9023 47.2109 64.9023V81.6536C48.4715 83.0953 50.3225 83.9992 52.366 83.9992Z" fill="#F3263D"/>
<path d="M40.1836 54.125C41.0897 54.125 41.8242 53.3905 41.8242 52.4844C41.8242 51.5783 41.0897 50.8438 40.1836 50.8438C39.2775 50.8438 38.543 51.5783 38.543 52.4844C38.543 53.3905 39.2775 54.125 40.1836 54.125Z" fill="#282A52"/>
<path d="M54.2422 54.125C55.1483 54.125 55.8828 53.3905 55.8828 52.4844C55.8828 51.5783 55.1483 50.8438 54.2422 50.8438C53.3361 50.8438 52.6016 51.5783 52.6016 52.4844C52.6016 53.3905 53.3361 54.125 54.2422 54.125Z" fill="#1E203E"/>
<path d="M47.1663 69.9414C47.1644 69.9414 47.1627 69.9414 47.1608 69.9414C46.7256 69.9399 46.309 69.7657 46.0023 69.4569L39.0197 62.4277C38.3826 61.7865 38.3842 60.7507 39.0235 60.1114L42.3247 56.8102C43.6319 55.5042 45.3677 54.7852 47.2129 54.7852C49.058 54.7852 50.7938 55.5042 52.1006 56.8099L55.4022 60.1115C55.7106 60.4198 55.8835 60.8383 55.8828 61.2743C55.8822 61.7102 55.7078 62.1282 55.3984 62.4355L48.3227 69.4647C48.0151 69.77 47.5994 69.9414 47.1663 69.9414Z" fill="#FEE048"/>
<path d="M55.3982 62.4355C55.7076 62.1282 55.8819 61.7103 55.8826 61.2743C55.8834 60.8382 55.7105 60.4198 55.402 60.1115L52.1004 56.8099C50.7937 55.5042 49.058 54.7852 47.2128 54.7852C47.2121 54.7852 47.2116 54.7852 47.2109 54.7852V69.9391C47.6278 69.9277 48.0257 69.7594 48.3224 69.4646L55.3982 62.4355Z" fill="#FED601"/>
<path d="M47.2128 43.5823C46.7929 43.5823 46.3731 43.4222 46.0528 43.1017L42.4486 39.4976C40.5158 37.565 39.9427 34.6838 40.9883 32.1578C42.0343 29.6319 44.4768 28 47.211 28C49.9487 28 52.3913 29.6319 53.4373 32.1576C54.4831 34.6838 53.9099 37.5648 51.9771 39.4975L48.3729 43.1017C48.0526 43.4221 47.6327 43.5823 47.2128 43.5823Z" fill="#F54B5E"/>
<path d="M48.3728 43.1017L51.9771 39.4975C53.9098 37.5648 54.483 34.6838 53.4372 32.1576C52.3914 29.6319 49.9488 28 47.2109 28V43.5822C47.2116 43.5822 47.2121 43.5823 47.2128 43.5823C47.6327 43.5823 48.0526 43.4221 48.3728 43.1017Z" fill="#F3263D"/>
<path d="M69 81C75.6274 81 81 75.6274 81 69C81 62.3726 75.6274 57 69 57C62.3726 57 57 62.3726 57 69C57 75.6274 62.3726 81 69 81Z" fill="#157DF5"/>
<path fill-rule="evenodd" clip-rule="evenodd" d="M84 69C84 77.2843 77.2843 84 69 84C60.7157 84 54 77.2843 54 69C54 60.7157 60.7157 54 69 54C77.2843 54 84 60.7157 84 69ZM81 69C81 75.6274 75.6274 81 69 81C62.3726 81 57 75.6274 57 69C57 62.3726 62.3726 57 69 57C75.6274 57 81 62.3726 81 69Z" fill="white"/>
<path d="M71.6603 69.0001L75.2565 65.4039C75.3536 65.3068 75.4306 65.1916 75.4831 65.0648C75.5357 64.938 75.5627 64.8021 75.5627 64.6649C75.5627 64.5276 75.5357 64.3917 75.4831 64.2649C75.4306 64.1381 75.3536 64.0229 75.2565 63.9259L74.0743 62.7437C73.9773 62.6466 73.8621 62.5696 73.7353 62.5171C73.6085 62.4645 73.4726 62.4375 73.3353 62.4375C73.1981 62.4375 73.0622 62.4645 72.9354 62.5171C72.8086 62.5696 72.6934 62.6466 72.5964 62.7437L69.0001 66.3399L65.4039 62.7437C65.3068 62.6466 65.1916 62.5696 65.0648 62.5171C64.938 62.4645 64.8021 62.4375 64.6649 62.4375C64.5276 62.4375 64.3917 62.4645 64.2649 62.5171C64.1381 62.5696 64.0229 62.6466 63.9259 62.7437L62.7437 63.9259C62.6466 64.0229 62.5696 64.1381 62.5171 64.2649C62.4645 64.3917 62.4375 64.5276 62.4375 64.6649C62.4375 64.8021 62.4645 64.938 62.5171 65.0648C62.5696 65.1916 62.6466 65.3068 62.7437 65.4039L66.3399 69.0001L62.7437 72.5964C62.6466 72.6934 62.5696 72.8086 62.5171 72.9354C62.4645 73.0622 62.4375 73.1981 62.4375 73.3353C62.4375 73.4726 62.4645 73.6085 62.5171 73.7353C62.5696 73.8621 62.6466 73.9773 62.7437 74.0743L63.9259 75.2565C64.0229 75.3536 64.1381 75.4306 64.2649 75.4831C64.3917 75.5357 64.5276 75.5627 64.6649 75.5627C64.8021 75.5627 64.938 75.5357 65.0648 75.4831C65.1916 75.4306 65.3068 75.3536 65.4039 75.2565L69.0001 71.6603L72.5964 75.2565C72.6934 75.3536 72.8086 75.4306 72.9354 75.4831C73.0622 75.5357 73.1981 75.5627 73.3353 75.5627C73.4726 75.5627 73.6085 75.5357 73.7353 75.4831C73.8621 75.4306 73.9773 75.3536 74.0743 75.2565L75.2565 74.0743C75.3536 73.9773 75.4306 73.8621 75.4831 73.7353C75.5357 73.6085 75.5627 73.4726 75.5627 73.3353C75.5627 73.1981 75.5357 73.0622 75.4831 72.9354C75.4306 72.8086 75.3536 72.6934 75.2565 72.5964L71.6603 69.0001Z" fill="white"/>
<path d="M69 81C75.6274 81 81 75.6274 81 69C81 62.3726 75.6274 57 69 57V81Z" fill="#0965CD"/>
<path d="M69 71.6604L72.5964 75.2565C72.6934 75.3536 72.8086 75.4306 72.9354 75.4831C73.0622 75.5357 73.1981 75.5627 73.3353 75.5627C73.4726 75.5627 73.6085 75.5357 73.7353 75.4831C73.8621 75.4306 73.9773 75.3536 74.0743 75.2565L75.2565 74.0743C75.3536 73.9773 75.4306 73.8621 75.4831 73.7353C75.5357 73.6085 75.5627 73.4726 75.5627 73.3353C75.5627 73.1981 75.5357 73.0622 75.4831 72.9354C75.4306 72.8086 75.3536 72.6934 75.2565 72.5964L71.6603 69.0001L75.2565 65.4039C75.3536 65.3068 75.4306 65.1916 75.4831 65.0648C75.5357 64.938 75.5627 64.8021 75.5627 64.6649C75.5627 64.5276 75.5357 64.3917 75.4831 64.2649C75.4306 64.1381 75.3536 64.0229 75.2565 63.9259L74.0743 62.7437C73.9773 62.6466 73.8621 62.5696 73.7353 62.5171C73.6085 62.4645 73.4726 62.4375 73.3353 62.4375C73.1981 62.4375 73.0622 62.4645 72.9354 62.5171C72.8086 62.5696 72.6934 62.6466 72.5964 62.7437L69.0001 66.3399L69 71.6604Z" fill="#F0F7FE"/>
<path d="M47.2132 139.581H38.4531C35.5853 139.581 33.2715 137.26 33.2715 134.399C33.2715 132.257 34.5477 130.347 36.5229 129.529C38.499 128.71 40.7522 129.159 42.2641 130.671L48.3732 136.78C48.8424 137.249 48.9828 137.955 48.7289 138.568C48.4749 139.181 47.8768 139.581 47.2132 139.581Z" fill="#F3263D"/>
<path d="M55.9749 139.581H47.2148C46.5512 139.581 45.9531 139.181 45.6991 138.568C45.4452 137.955 45.5856 137.249 46.0548 136.78L52.1639 130.671C53.6758 129.159 55.9294 128.71 57.9048 129.528C59.8803 130.347 61.1564 132.257 61.1564 134.395C61.1565 137.266 58.8383 139.581 55.9749 139.581Z" fill="#F54B5E"/>
<path d="M64.7865 178.242H29.6406C28.7346 178.242 28 177.508 28 176.602V155.514C28 144.92 36.6192 136.301 47.2136 136.301C57.808 136.301 66.4272 144.92 66.4272 155.514V176.602C66.4272 177.508 65.6926 178.242 64.7865 178.242Z" fill="#F0F7FE"/>
<path d="M66.4264 176.602V155.514C66.4264 144.92 57.8072 136.301 47.2128 136.301C47.2121 136.301 47.2116 136.301 47.2109 136.301V178.242H64.7857C65.6918 178.242 66.4264 177.508 66.4264 176.602Z" fill="#E2EFFE"/>
<path d="M57.1482 168.474L50.0744 161.384C49.7666 161.076 49.3487 160.902 48.9129 160.902C48.9124 160.902 48.9106 160.902 48.9112 160.902H45.4228C45.4233 160.902 45.4217 160.902 45.421 160.902C44.9853 160.902 44.5673 161.076 44.2596 161.384L37.1855 168.474C35.2499 170.414 34.6778 173.303 35.7281 175.833C36.7782 178.364 39.227 179.999 41.9688 179.999C44.0525 179.999 45.9139 179.069 47.167 177.604C48.4282 179.075 50.2996 179.999 52.3668 179.999C55.1068 179.999 57.5556 178.364 58.6056 175.833C59.6561 173.303 59.0839 170.414 57.1482 168.474Z" fill="#F54B5E"/>
<path d="M52.366 179.999C55.1061 179.999 57.5549 178.364 58.6049 175.833C59.6553 173.303 59.0832 170.414 57.1474 168.474L50.0736 161.384C49.7658 161.076 49.3479 160.902 48.9122 160.902C48.9116 160.902 48.9099 160.902 48.9104 160.902C48.9113 160.902 48.0683 160.902 47.2109 160.902V177.654C48.4715 179.095 50.3225 179.999 52.366 179.999Z" fill="#F3263D"/>
<path d="M40.1836 150.125C41.0897 150.125 41.8242 149.39 41.8242 148.484C41.8242 147.578 41.0897 146.844 40.1836 146.844C39.2775 146.844 38.543 147.578 38.543 148.484C38.543 149.39 39.2775 150.125 40.1836 150.125Z" fill="#282A52"/>
<path d="M54.2422 150.125C55.1483 150.125 55.8828 149.39 55.8828 148.484C55.8828 147.578 55.1483 146.844 54.2422 146.844C53.3361 146.844 52.6016 147.578 52.6016 148.484C52.6016 149.39 53.3361 150.125 54.2422 150.125Z" fill="#1E203E"/>
<path d="M47.1663 165.941C47.1644 165.941 47.1627 165.941 47.1608 165.941C46.7256 165.94 46.309 165.766 46.0023 165.457L39.0197 158.428C38.3826 157.786 38.3842 156.751 39.0235 156.111L42.3247 152.81C43.6319 151.504 45.3677 150.785 47.2129 150.785C49.058 150.785 50.7938 151.504 52.1006 152.81L55.4022 156.111C55.7106 156.42 55.8835 156.838 55.8828 157.274C55.8822 157.71 55.7078 158.128 55.3984 158.436L48.3227 165.465C48.0151 165.77 47.5994 165.941 47.1663 165.941Z" fill="#FEE048"/>
<path d="M55.3982 158.436C55.7076 158.128 55.8819 157.71 55.8826 157.274C55.8834 156.838 55.7105 156.42 55.402 156.111L52.1004 152.81C50.7937 151.504 49.058 150.785 47.2128 150.785C47.2121 150.785 47.2116 150.785 47.2109 150.785V165.939C47.6278 165.928 48.0257 165.759 48.3224 165.465L55.3982 158.436Z" fill="#FED601"/>
<path d="M47.2128 139.582C46.7929 139.582 46.3731 139.422 46.0528 139.102L42.4486 135.498C40.5158 133.565 39.9427 130.684 40.9883 128.158C42.0343 125.632 44.4768 124 47.211 124C49.9487 124 52.3913 125.632 53.4373 128.158C54.4831 130.684 53.9099 133.565 51.9771 135.498L48.3729 139.102C48.0526 139.422 47.6327 139.582 47.2128 139.582Z" fill="#F54B5E"/>
<path d="M48.3728 139.102L51.9771 135.498C53.9098 133.565 54.483 130.684 53.4372 128.158C52.3914 125.632 49.9488 124 47.2109 124V139.582C47.2116 139.582 47.2121 139.582 47.2128 139.582C47.6327 139.582 48.0526 139.422 48.3728 139.102Z" fill="#F3263D"/>
<path d="M69 177C75.6274 177 81 171.627 81 165C81 158.373 75.6274 153 69 153C62.3726 153 57 158.373 57 165C57 171.627 62.3726 177 69 177Z" fill="#157DF5"/>
<path fill-rule="evenodd" clip-rule="evenodd" d="M84 165C84 173.284 77.2843 180 69 180C60.7157 180 54 173.284 54 165C54 156.716 60.7157 150 69 150C77.2843 150 84 156.716 84 165ZM81 165C81 171.627 75.6274 177 69 177C62.3726 177 57 171.627 57 165C57 158.373 62.3726 153 69 153C75.6274 153 81 158.373 81 165Z" fill="white"/>
<path d="M71.6603 165L75.2565 161.404C75.3536 161.307 75.4306 161.192 75.4831 161.065C75.5357 160.938 75.5627 160.802 75.5627 160.665C75.5627 160.528 75.5357 160.392 75.4831 160.265C75.4306 160.138 75.3536 160.023 75.2565 159.926L74.0743 158.744C73.9773 158.647 73.8621 158.57 73.7353 158.517C73.6085 158.465 73.4726 158.438 73.3353 158.438C73.1981 158.438 73.0622 158.465 72.9354 158.517C72.8086 158.57 72.6934 158.647 72.5964 158.744L69.0001 162.34L65.4039 158.744C65.3068 158.647 65.1916 158.57 65.0648 158.517C64.938 158.465 64.8021 158.438 64.6649 158.438C64.5276 158.438 64.3917 158.465 64.2649 158.517C64.1381 158.57 64.0229 158.647 63.9259 158.744L62.7437 159.926C62.6466 160.023 62.5696 160.138 62.5171 160.265C62.4645 160.392 62.4375 160.528 62.4375 160.665C62.4375 160.802 62.4645 160.938 62.5171 161.065C62.5696 161.192 62.6466 161.307 62.7437 161.404L66.3399 165L62.7437 168.596C62.6466 168.693 62.5696 168.809 62.5171 168.935C62.4645 169.062 62.4375 169.198 62.4375 169.335C62.4375 169.473 62.4645 169.608 62.5171 169.735C62.5696 169.862 62.6466 169.977 62.7437 170.074L63.9259 171.257C64.0229 171.354 64.1381 171.431 64.2649 171.483C64.3917 171.536 64.5276 171.563 64.6649 171.563C64.8021 171.563 64.938 171.536 65.0648 171.483C65.1916 171.431 65.3068 171.354 65.4039 171.257L69.0001 167.66L72.5964 171.257C72.6934 171.354 72.8086 171.431 72.9354 171.483C73.0622 171.536 73.1981 171.563 73.3353 171.563C73.4726 171.563 73.6085 171.536 73.7353 171.483C73.8621 171.431 73.9773 171.354 74.0743 171.257L75.2565 170.074C75.3536 169.977 75.4306 169.862 75.4831 169.735C75.5357 169.608 75.5627 169.473 75.5627 169.335C75.5627 169.198 75.5357 169.062 75.4831 168.935C75.4306 168.809 75.3536 168.693 75.2565 168.596L71.6603 165Z" fill="white"/>
<path d="M69 177C75.6274 177 81 171.627 81 165C81 158.373 75.6274 153 69 153V177Z" fill="#0965CD"/>
<path d="M69 167.66L72.5964 171.257C72.6934 171.354 72.8086 171.431 72.9354 171.483C73.0622 171.536 73.1981 171.563 73.3353 171.563C73.4726 171.563 73.6085 171.536 73.7353 171.483C73.8621 171.431 73.9773 171.354 74.0743 171.257L75.2565 170.074C75.3536 169.977 75.4306 169.862 75.4831 169.735C75.5357 169.608 75.5627 169.473 75.5627 169.335C75.5627 169.198 75.5357 169.062 75.4831 168.935C75.4306 168.809 75.3536 168.693 75.2565 168.596L71.6603 165L75.2565 161.404C75.3536 161.307 75.4306 161.192 75.4831 161.065C75.5357 160.938 75.5627 160.802 75.5627 160.665C75.5627 160.528 75.5357 160.392 75.4831 160.265C75.4306 160.138 75.3536 160.023 75.2565 159.926L74.0743 158.744C73.9773 158.647 73.8621 158.57 73.7353 158.517C73.6085 158.465 73.4726 158.438 73.3353 158.438C73.1981 158.438 73.0622 158.465 72.9354 158.517C72.8086 158.57 72.6934 158.647 72.5964 158.744L69.0001 162.34L69 167.66Z" fill="#F0F7FE"/>
<defs>
<filter id="filter0_d_11148_58597" x="10" y="9" width="96" height="96" filterUnits="userSpaceOnUse" color-interpolation-filters="sRGB">
<feFlood flood-opacity="0" result="BackgroundImageFix"/>
<feColorMatrix in="SourceAlpha" type="matrix" values="0 0 0 0 0 0 0 0 0 0 0 0 0 0 0 0 0 0 127 0" result="hardAlpha"/>
<feOffset dx="2" dy="1"/>
<feGaussianBlur stdDeviation="4"/>
<feColorMatrix type="matrix" values="0 0 0 0 0.0392157 0 0 0 0 0.0392157 0 0 0 0 0.0627451 0 0 0 0.08 0"/>
<feBlend mode="normal" in2="BackgroundImageFix" result="effect1_dropShadow_11148_58597"/>
<feBlend mode="normal" in="SourceGraphic" in2="effect1_dropShadow_11148_58597" result="shape"/>
</filter>
</defs>
</svg>
