<svg width="112" height="208" viewBox="0 0 112 208" fill="none" xmlns="http://www.w3.org/2000/svg">
<rect x="0.5" y="0.5" width="111" height="207" rx="4.5" stroke="#9747FF" stroke-dasharray="10 5"/>
<g filter="url(#filter0_d_10792_62379)">
<rect x="16" y="16" width="80" height="80" rx="8" fill="white"/>
</g>
<path d="M47.2132 43.5806H38.4531C35.5853 43.5806 33.2715 41.2601 33.2715 38.399C33.2715 36.2574 34.5477 34.3471 36.5229 33.5286C38.499 32.7103 40.7522 33.1587 42.2641 34.6706L48.3732 40.7799C48.8424 41.2491 48.9828 41.9548 48.7289 42.5678C48.4749 43.1809 47.8768 43.5806 47.2132 43.5806Z" fill="#F3263D"/>
<path d="M55.9749 43.5806H47.2148C46.5512 43.5806 45.9531 43.1808 45.6991 42.5677C45.4452 41.9547 45.5856 41.249 46.0548 40.7798L52.1639 34.6705C53.6758 33.1587 55.9294 32.7104 57.9048 33.5284C59.8803 34.347 61.1564 36.2575 61.1564 38.3954C61.1565 41.2655 58.8383 43.5806 55.9749 43.5806Z" fill="#F54B5E"/>
<path d="M64.7865 82.2425H29.6406C28.7346 82.2425 28 81.5079 28 80.6019V59.5144C28 48.92 36.6192 40.3008 47.2136 40.3008C57.808 40.3008 66.4272 48.92 66.4272 59.5144V80.6019C66.4272 81.5079 65.6926 82.2425 64.7865 82.2425Z" fill="#F0F7FE"/>
<path d="M66.4264 80.6019V59.5144C66.4264 48.92 57.8072 40.3008 47.2128 40.3008C47.2121 40.3008 47.2116 40.3008 47.2109 40.3008V82.2424H64.7857C65.6918 82.2425 66.4264 81.5079 66.4264 80.6019Z" fill="#E2EFFE"/>
<path d="M57.1482 72.4739L50.0744 65.3843C49.7666 65.0757 49.3487 64.9023 48.9129 64.9023C48.9124 64.9023 48.9106 64.9023 48.9112 64.9023H45.4228C45.4233 64.9023 45.4217 64.9023 45.421 64.9023C44.9853 64.9023 44.5673 65.0757 44.2596 65.3843L37.1855 72.474C35.2499 74.4144 34.6778 77.303 35.7281 79.833C36.7782 82.364 39.227 83.9992 41.9688 83.9992C44.0525 83.9992 45.9139 83.0693 47.167 81.6041C48.4282 83.0752 50.2996 83.9992 52.3668 83.9992C55.1068 83.9992 57.5556 82.3638 58.6056 79.8332C59.6561 77.303 59.0839 74.4144 57.1482 72.4739Z" fill="#F54B5E"/>
<path d="M52.366 83.9992C55.1061 83.9992 57.5549 82.3638 58.6049 79.8332C59.6553 77.303 59.0832 74.4144 57.1474 72.4739L50.0736 65.3843C49.7658 65.0757 49.3479 64.9023 48.9122 64.9023C48.9116 64.9023 48.9099 64.9023 48.9104 64.9023C48.9113 64.9023 48.0683 64.9023 47.2109 64.9023V81.6536C48.4715 83.0953 50.3225 83.9992 52.366 83.9992Z" fill="#F3263D"/>
<path d="M40.1836 54.125C41.0897 54.125 41.8242 53.3905 41.8242 52.4844C41.8242 51.5783 41.0897 50.8438 40.1836 50.8438C39.2775 50.8438 38.543 51.5783 38.543 52.4844C38.543 53.3905 39.2775 54.125 40.1836 54.125Z" fill="#282A52"/>
<path d="M54.2422 54.125C55.1483 54.125 55.8828 53.3905 55.8828 52.4844C55.8828 51.5783 55.1483 50.8438 54.2422 50.8438C53.3361 50.8438 52.6016 51.5783 52.6016 52.4844C52.6016 53.3905 53.3361 54.125 54.2422 54.125Z" fill="#1E203E"/>
<path d="M47.1663 69.9414C47.1644 69.9414 47.1627 69.9414 47.1608 69.9414C46.7256 69.9399 46.309 69.7657 46.0023 69.4569L39.0197 62.4277C38.3826 61.7865 38.3842 60.7507 39.0235 60.1114L42.3247 56.8102C43.6319 55.5042 45.3677 54.7852 47.2129 54.7852C49.058 54.7852 50.7938 55.5042 52.1006 56.8099L55.4022 60.1115C55.7106 60.4198 55.8835 60.8383 55.8828 61.2743C55.8822 61.7102 55.7078 62.1282 55.3984 62.4355L48.3227 69.4647C48.0151 69.77 47.5994 69.9414 47.1663 69.9414Z" fill="#FEE048"/>
<path d="M55.3982 62.4355C55.7076 62.1282 55.8819 61.7103 55.8826 61.2743C55.8834 60.8382 55.7105 60.4198 55.402 60.1115L52.1004 56.8099C50.7937 55.5042 49.058 54.7852 47.2128 54.7852C47.2121 54.7852 47.2116 54.7852 47.2109 54.7852V69.9391C47.6278 69.9277 48.0257 69.7594 48.3224 69.4646L55.3982 62.4355Z" fill="#FED601"/>
<path d="M47.2128 43.5823C46.7929 43.5823 46.3731 43.4222 46.0528 43.1017L42.4486 39.4976C40.5158 37.565 39.9427 34.6838 40.9883 32.1578C42.0343 29.6319 44.4768 28 47.211 28C49.9487 28 52.3913 29.6319 53.4373 32.1576C54.4831 34.6838 53.9099 37.5648 51.9771 39.4975L48.3729 43.1017C48.0526 43.4221 47.6327 43.5823 47.2128 43.5823Z" fill="#F54B5E"/>
<path d="M48.3728 43.1017L51.9771 39.4975C53.9098 37.5648 54.483 34.6838 53.4372 32.1576C52.3914 29.6319 49.9488 28 47.2109 28V43.5822C47.2116 43.5822 47.2121 43.5823 47.2128 43.5823C47.6327 43.5823 48.0526 43.4221 48.3728 43.1017Z" fill="#F3263D"/>
<path d="M59.2284 61.3587C60.4645 60.0199 62.1495 59.1898 63.9579 59.0288C65.7663 58.8677 67.5699 59.3872 69.0201 60.4868C70.4704 59.3872 72.2739 58.8677 74.0823 59.0287C75.8907 59.1898 77.5757 60.0199 78.8118 61.3587C80.2183 62.8825 81 64.8856 81 66.9659C81 69.0461 80.2183 71.0492 78.8118 72.573L72.1508 79.6154C71.7446 80.0524 71.2535 80.4008 70.7082 80.639C70.1628 80.8771 69.5746 81 68.9802 81C68.3857 81 67.7976 80.8771 67.2522 80.639C66.7068 80.4008 66.2158 80.0524 65.8095 79.6154L59.1485 72.573C57.7529 71.0391 56.9854 69.0303 57.0002 66.95C57.015 64.8698 57.8111 62.8723 59.2284 61.3587Z" fill="#F3263D"/>
<path d="M69 60.4716C67.5532 59.3824 65.758 58.8685 63.9579 59.0287C62.1495 59.1898 60.4645 60.0199 59.2284 61.3587C57.8111 62.8723 57.015 64.8698 57.0002 66.95C56.9854 69.0303 57.7529 71.0391 59.1485 72.573L65.8095 79.6154C66.2158 80.0524 66.7068 80.4008 67.2522 80.6389C67.7976 80.8771 68.3857 81 68.9802 81C68.9868 81 68.9934 81 69 81V60.4716Z" fill="#F54B5E"/>
<path fill-rule="evenodd" clip-rule="evenodd" d="M78.8118 72.573C80.2183 71.0493 81 69.0461 81 66.9659C81 64.8856 80.2183 62.8825 78.8118 61.3587C77.5757 60.0199 75.8907 59.1898 74.0823 59.0288C72.2739 58.8677 70.4704 59.3872 69.0201 60.4868C67.5699 59.3872 65.7663 58.8677 63.9579 59.0288C62.1495 59.1898 60.4645 60.0199 59.2284 61.3587C57.8111 62.8723 57.015 64.8698 57.0002 66.9501C56.9854 69.0303 57.7529 71.0391 59.1485 72.573L65.8095 79.6154C66.2158 80.0524 66.7068 80.4008 67.2522 80.639C67.7976 80.8771 68.3857 81 68.9802 81C69.5746 81 70.1628 80.8771 70.7082 80.639C71.2535 80.4008 71.7446 80.0524 72.1508 79.6154L78.8118 72.573ZM74.338 81.6688L81.0039 74.6212L81.0163 74.6078C82.936 72.5279 84 69.7976 84 66.9659C84 64.1342 82.936 61.4038 81.0163 59.324C79.2769 57.44 76.9018 56.268 74.3484 56.0406C72.5059 55.8765 70.6682 56.213 69.0201 56.995C67.3721 56.213 65.5344 55.8765 63.6919 56.0406C61.142 56.2676 58.7702 57.4365 57.0315 59.3158C55.1013 61.3809 54.0204 64.1004 54.0003 66.9287C53.9801 69.7604 55.0246 72.4984 56.9296 74.592L56.9491 74.6134L63.6223 81.6688C64.3061 82.4014 65.1325 82.9869 66.0516 83.3883C66.9752 83.7916 67.972 84 68.9802 84C69.9883 84 70.9851 83.7916 71.9087 83.3883C72.8278 82.9869 73.6542 82.4014 74.338 81.6688Z" fill="white"/>
<path d="M59.5509 72.9979L59.149 72.573C58.4592 71.8149 57.9229 70.9407 57.5586 69.9993H59.1977L59.8759 68.9821C60.8939 67.455 63.1555 67.5088 64.0997 69.0826L65.1284 70.797L69.9026 64.3178C70.9612 62.8812 73.1408 62.9843 74.0589 64.5146L77.3498 69.9993H80.4255C80.0544 70.9425 79.5103 71.8168 78.8123 72.573L78.4091 72.9993H77.0667C76.1885 72.9993 75.3748 72.5386 74.923 71.7856L71.8726 66.7016L67.0984 73.1808C66.0398 74.6175 63.8602 74.5143 62.942 72.984L61.9338 71.3036L61.5454 71.8861C61.0976 72.5578 60.3542 72.9704 59.5509 72.9979Z" fill="white"/>
<path d="M69 70.6001V65.5428L69.9026 64.3178C70.9612 62.8812 73.1408 62.9843 74.059 64.5146L77.3498 69.9993H80.4255C80.0544 70.9425 79.5103 71.8168 78.8123 72.573L78.4091 72.9993H77.0667C76.1885 72.9993 75.3748 72.5386 74.923 71.7856L71.8726 66.7016L69 70.6001Z" fill="#F0F7FE"/>
<path d="M47.2132 139.581H38.4531C35.5853 139.581 33.2715 137.26 33.2715 134.399C33.2715 132.257 34.5477 130.347 36.5229 129.529C38.499 128.71 40.7522 129.159 42.2641 130.671L48.3732 136.78C48.8424 137.249 48.9828 137.955 48.7289 138.568C48.4749 139.181 47.8768 139.581 47.2132 139.581Z" fill="#F3263D"/>
<path d="M55.9749 139.581H47.2148C46.5512 139.581 45.9531 139.181 45.6991 138.568C45.4452 137.955 45.5856 137.249 46.0548 136.78L52.1639 130.671C53.6758 129.159 55.9294 128.71 57.9048 129.528C59.8803 130.347 61.1564 132.257 61.1564 134.395C61.1565 137.266 58.8383 139.581 55.9749 139.581Z" fill="#F54B5E"/>
<path d="M64.7865 178.242H29.6406C28.7346 178.242 28 177.508 28 176.602V155.514C28 144.92 36.6192 136.301 47.2136 136.301C57.808 136.301 66.4272 144.92 66.4272 155.514V176.602C66.4272 177.508 65.6926 178.242 64.7865 178.242Z" fill="#F0F7FE"/>
<path d="M66.4264 176.602V155.514C66.4264 144.92 57.8072 136.301 47.2128 136.301C47.2121 136.301 47.2116 136.301 47.2109 136.301V178.242H64.7857C65.6918 178.242 66.4264 177.508 66.4264 176.602Z" fill="#E2EFFE"/>
<path d="M57.1482 168.474L50.0744 161.384C49.7666 161.076 49.3487 160.902 48.9129 160.902C48.9124 160.902 48.9106 160.902 48.9112 160.902H45.4228C45.4233 160.902 45.4217 160.902 45.421 160.902C44.9853 160.902 44.5673 161.076 44.2596 161.384L37.1855 168.474C35.2499 170.414 34.6778 173.303 35.7281 175.833C36.7782 178.364 39.227 179.999 41.9688 179.999C44.0525 179.999 45.9139 179.069 47.167 177.604C48.4282 179.075 50.2996 179.999 52.3668 179.999C55.1068 179.999 57.5556 178.364 58.6056 175.833C59.6561 173.303 59.0839 170.414 57.1482 168.474Z" fill="#F54B5E"/>
<path d="M52.366 179.999C55.1061 179.999 57.5549 178.364 58.6049 175.833C59.6553 173.303 59.0832 170.414 57.1474 168.474L50.0736 161.384C49.7658 161.076 49.3479 160.902 48.9122 160.902C48.9116 160.902 48.9099 160.902 48.9104 160.902C48.9113 160.902 48.0683 160.902 47.2109 160.902V177.654C48.4715 179.095 50.3225 179.999 52.366 179.999Z" fill="#F3263D"/>
<path d="M40.1836 150.125C41.0897 150.125 41.8242 149.39 41.8242 148.484C41.8242 147.578 41.0897 146.844 40.1836 146.844C39.2775 146.844 38.543 147.578 38.543 148.484C38.543 149.39 39.2775 150.125 40.1836 150.125Z" fill="#282A52"/>
<path d="M54.2422 150.125C55.1483 150.125 55.8828 149.39 55.8828 148.484C55.8828 147.578 55.1483 146.844 54.2422 146.844C53.3361 146.844 52.6016 147.578 52.6016 148.484C52.6016 149.39 53.3361 150.125 54.2422 150.125Z" fill="#1E203E"/>
<path d="M47.1663 165.941C47.1644 165.941 47.1627 165.941 47.1608 165.941C46.7256 165.94 46.309 165.766 46.0023 165.457L39.0197 158.428C38.3826 157.786 38.3842 156.751 39.0235 156.111L42.3247 152.81C43.6319 151.504 45.3677 150.785 47.2129 150.785C49.058 150.785 50.7938 151.504 52.1006 152.81L55.4022 156.111C55.7106 156.42 55.8835 156.838 55.8828 157.274C55.8822 157.71 55.7078 158.128 55.3984 158.436L48.3227 165.465C48.0151 165.77 47.5994 165.941 47.1663 165.941Z" fill="#FEE048"/>
<path d="M55.3982 158.436C55.7076 158.128 55.8819 157.71 55.8826 157.274C55.8834 156.838 55.7105 156.42 55.402 156.111L52.1004 152.81C50.7937 151.504 49.058 150.785 47.2128 150.785C47.2121 150.785 47.2116 150.785 47.2109 150.785V165.939C47.6278 165.928 48.0257 165.759 48.3224 165.465L55.3982 158.436Z" fill="#FED601"/>
<path d="M47.2128 139.582C46.7929 139.582 46.3731 139.422 46.0528 139.102L42.4486 135.498C40.5158 133.565 39.9427 130.684 40.9883 128.158C42.0343 125.632 44.4768 124 47.211 124C49.9487 124 52.3913 125.632 53.4373 128.158C54.4831 130.684 53.9099 133.565 51.9771 135.498L48.3729 139.102C48.0526 139.422 47.6327 139.582 47.2128 139.582Z" fill="#F54B5E"/>
<path d="M48.3728 139.102L51.9771 135.498C53.9098 133.565 54.483 130.684 53.4372 128.158C52.3914 125.632 49.9488 124 47.2109 124V139.582C47.2116 139.582 47.2121 139.582 47.2128 139.582C47.6327 139.582 48.0526 139.422 48.3728 139.102Z" fill="#F3263D"/>
<path d="M59.2284 157.359C60.4645 156.02 62.1495 155.19 63.9579 155.029C65.7663 154.868 67.5699 155.387 69.0201 156.487C70.4704 155.387 72.2739 154.868 74.0823 155.029C75.8907 155.19 77.5757 156.02 78.8118 157.359C80.2183 158.882 81 160.886 81 162.966C81 165.046 80.2183 167.049 78.8118 168.573L72.1508 175.615C71.7446 176.052 71.2535 176.401 70.7082 176.639C70.1628 176.877 69.5746 177 68.9802 177C68.3857 177 67.7976 176.877 67.2522 176.639C66.7068 176.401 66.2158 176.052 65.8095 175.615L59.1485 168.573C57.7529 167.039 56.9854 165.03 57.0002 162.95C57.015 160.87 57.8111 158.872 59.2284 157.359Z" fill="#F3263D"/>
<path d="M69 156.472C67.5532 155.382 65.758 154.868 63.9579 155.029C62.1495 155.19 60.4645 156.02 59.2284 157.359C57.8111 158.872 57.015 160.87 57.0002 162.95C56.9854 165.03 57.7529 167.039 59.1485 168.573L65.8095 175.615C66.2158 176.052 66.7068 176.401 67.2522 176.639C67.7976 176.877 68.3857 177 68.9802 177C68.9868 177 68.9934 177 69 177V156.472Z" fill="#F54B5E"/>
<path fill-rule="evenodd" clip-rule="evenodd" d="M78.8118 168.573C80.2183 167.049 81 165.046 81 162.966C81 160.886 80.2183 158.882 78.8118 157.359C77.5757 156.02 75.8907 155.19 74.0823 155.029C72.2739 154.868 70.4704 155.387 69.0201 156.487C67.5699 155.387 65.7663 154.868 63.9579 155.029C62.1495 155.19 60.4645 156.02 59.2284 157.359C57.8111 158.872 57.015 160.87 57.0002 162.95C56.9854 165.03 57.7529 167.039 59.1485 168.573L65.8095 175.615C66.2158 176.052 66.7068 176.401 67.2522 176.639C67.7976 176.877 68.3857 177 68.9802 177C69.5746 177 70.1628 176.877 70.7082 176.639C71.2535 176.401 71.7446 176.052 72.1508 175.615L78.8118 168.573ZM74.338 177.669L81.0039 170.621L81.0163 170.608C82.936 168.528 84 165.798 84 162.966C84 160.134 82.936 157.404 81.0163 155.324C79.2769 153.44 76.9018 152.268 74.3484 152.041C72.5059 151.877 70.6682 152.213 69.0201 152.995C67.3721 152.213 65.5344 151.877 63.6919 152.041C61.142 152.268 58.7702 153.436 57.0315 155.316C55.1013 157.381 54.0204 160.1 54.0003 162.929C53.9801 165.76 55.0246 168.498 56.9296 170.592L56.9491 170.613L63.6223 177.669C64.3061 178.401 65.1325 178.987 66.0516 179.388C66.9752 179.792 67.972 180 68.9802 180C69.9883 180 70.9851 179.792 71.9087 179.388C72.8278 178.987 73.6542 178.401 74.338 177.669Z" fill="white"/>
<path d="M59.5509 168.998L59.149 168.573C58.4592 167.815 57.9229 166.941 57.5586 165.999H59.1977L59.8759 164.982C60.8939 163.455 63.1555 163.509 64.0997 165.083L65.1284 166.797L69.9026 160.318C70.9612 158.881 73.1408 158.984 74.0589 160.515L77.3498 165.999H80.4255C80.0544 166.942 79.5103 167.817 78.8123 168.573L78.4091 168.999H77.0667C76.1885 168.999 75.3748 168.539 74.923 167.786L71.8726 162.702L67.0984 169.181C66.0398 170.617 63.8602 170.514 62.942 168.984L61.9338 167.304L61.5454 167.886C61.0976 168.558 60.3542 168.97 59.5509 168.998Z" fill="white"/>
<path d="M69 166.6V161.543L69.9026 160.318C70.9612 158.881 73.1408 158.984 74.059 160.515L77.3498 165.999H80.4255C80.0544 166.942 79.5103 167.817 78.8123 168.573L78.4091 168.999H77.0667C76.1885 168.999 75.3748 168.539 74.923 167.786L71.8726 162.702L69 166.6Z" fill="#F0F7FE"/>
<defs>
<filter id="filter0_d_10792_62379" x="10" y="9" width="96" height="96" filterUnits="userSpaceOnUse" color-interpolation-filters="sRGB">
<feFlood flood-opacity="0" result="BackgroundImageFix"/>
<feColorMatrix in="SourceAlpha" type="matrix" values="0 0 0 0 0 0 0 0 0 0 0 0 0 0 0 0 0 0 127 0" result="hardAlpha"/>
<feOffset dx="2" dy="1"/>
<feGaussianBlur stdDeviation="4"/>
<feColorMatrix type="matrix" values="0 0 0 0 0.0392157 0 0 0 0 0.0392157 0 0 0 0 0.0627451 0 0 0 0.08 0"/>
<feBlend mode="normal" in2="BackgroundImageFix" result="effect1_dropShadow_10792_62379"/>
<feBlend mode="normal" in="SourceGraphic" in2="effect1_dropShadow_10792_62379" result="shape"/>
</filter>
</defs>
</svg>
