<svg width="112" height="208" viewBox="0 0 112 208" fill="none" xmlns="http://www.w3.org/2000/svg">
<rect x="0.5" y="0.5" width="111" height="207" rx="4.5" stroke="#9747FF" stroke-dasharray="10 5"/>
<g filter="url(#filter0_d_59913_72169)">
<rect x="16" y="16" width="80" height="80" rx="8" fill="white"/>
</g>
<path d="M28 33.2383C28 31.5814 29.3431 30.2383 31 30.2383H47.9998V83.9983H31C29.3431 83.9983 28 82.6551 28 80.9983V33.2383Z" fill="#E2EFFE"/>
<path d="M68 33.2383C68 31.5814 66.6569 30.2383 65 30.2383H48.0002V83.9983H65C66.6569 83.9983 68 82.6551 68 80.9983V33.2383Z" fill="#B6D7FC"/>
<path d="M32.4448 32.4805H48.0003V81.7605H32.2217C31.1171 81.7605 30.2217 80.865 30.2217 79.7604L30.2226 34.7205C30.2226 33.4834 31.2175 32.4805 32.4448 32.4805Z" fill="white"/>
<path d="M41.0193 38V38.4592H36.9759V38H33.8363C33.3744 38 33 38.3744 33 38.8363V49.25C33 49.6642 33.3358 50 33.75 50H44.25C44.6642 50 45 49.6642 45 49.25V39.1385C45 38.5097 44.4903 38.0001 43.8616 38.0001L41.0193 38Z" fill="#157DF5"/>
<path d="M41.0196 38.4592H39.002V50H44.2504C44.6646 50 45.0004 49.6642 45.0004 49.25V38.7579C45.0004 38.3393 44.6611 38 44.2425 38H41.0196V38.4592Z" fill="#0965CD"/>
<path d="M40.6536 41.6515H37.3457C37.1413 41.6515 36.9756 41.4858 36.9756 41.2814V38H41.0238V41.2814C41.0237 41.4858 40.858 41.6515 40.6536 41.6515Z" fill="#40D98D"/>
<path d="M39.002 41.6515H40.6313C40.8484 41.6515 41.0244 41.4755 41.0244 41.2583V38H39.002V41.6515Z" fill="#25BB71"/>
<path d="M65.7776 34.7205C65.7776 33.4834 64.7827 32.4805 63.5554 32.4805H48V81.7605H63.5554C64.7827 81.7605 65.7776 80.7576 65.7776 79.5205V34.7205Z" fill="#F0F7FE"/>
<path d="M62.8888 40.8792C62.8888 39.9514 62.1367 39.1992 61.2088 39.1992L52.68 39.1992C51.7522 39.1992 51 39.9514 51 40.8792C51 41.8071 51.7522 42.5592 52.68 42.5592H61.2088C62.1367 42.5592 62.8888 41.8071 62.8888 40.8792Z" fill="#25BB71"/>
<path d="M62.8898 47.68C62.8898 46.7522 62.1376 46 61.2098 46L52.681 46C51.7531 46 51.001 46.7522 51.001 47.68C51.001 48.6078 51.7531 49.36 52.681 49.36H61.2098C62.1376 49.36 62.8898 48.6078 62.8898 47.68Z" fill="#9DC9FB"/>
<path d="M33 75.5C33 74.6716 33.6716 74 34.5 74L48 74V77H34.5C33.6716 77 33 76.3284 33 75.5Z" fill="#157DF5"/>
<path d="M33.0029 68.5C33.0029 67.6716 33.6745 67 34.5029 67L48.002 67V70H34.5029C33.6745 70 33.0029 69.3284 33.0029 68.5Z" fill="#9DC9FB"/>
<path d="M60.001 75.5C60.001 76.3284 59.3294 77 58.501 77H48.001V74H58.501C59.3294 74 60.001 74.6716 60.001 75.5Z" fill="#0965CD"/>
<path d="M33.001 57.5C33.001 56.6716 33.6725 56 34.501 56L43.501 56C44.3294 56 45.001 56.6716 45.001 57.5C45.001 58.3284 44.3294 59 43.501 59H34.501C33.6725 59 33.001 58.3284 33.001 57.5Z" fill="#9DC9FB"/>
<path d="M60.002 68.5C60.002 69.3284 59.3304 70 58.502 70H48.002V67H58.502C59.3304 67 60.002 67.6716 60.002 68.5Z" fill="#9DC9FB"/>
<path d="M41.334 30C41.334 28.8954 42.2294 28 43.334 28H48.0006V32.48H41.334V30Z" fill="#E2EFFE"/>
<path d="M48 28H52.6666C53.7712 28 54.6666 28.8954 54.6666 30V32.48H48V28Z" fill="#B6D7FC"/>
<g clip-path="url(#clip0_59913_72169)">
<path fill-rule="evenodd" clip-rule="evenodd" d="M55.1418 74.7403C54.388 72.9204 54 70.9698 54 69C54 67.0302 54.388 65.0796 55.1418 63.2597C55.8956 61.4399 57.0005 59.7863 58.3934 58.3934C59.7863 57.0005 61.4399 55.8956 63.2597 55.1418C65.0796 54.388 67.0302 54 69 54C70.9698 54 72.9204 54.388 74.7403 55.1418C76.5601 55.8956 78.2137 57.0005 79.6066 58.3934C80.9995 59.7863 82.1044 61.4399 82.8582 63.2597C83.612 65.0796 84 67.0302 84 69C84 70.9698 83.612 72.9204 82.8582 74.7403C82.1044 76.5601 80.9995 78.2137 79.6066 79.6066C78.2137 80.9995 76.5601 82.1044 74.7403 82.8582C72.9204 83.612 70.9698 84 69 84C67.0302 84 65.0796 83.612 63.2597 82.8582C61.4399 82.1044 59.7863 80.9995 58.3934 79.6066C57.0005 78.2137 55.8956 76.5601 55.1418 74.7403ZM57.9134 73.5922C57.3104 72.1363 57 70.5759 57 69C57 67.4241 57.3104 65.8637 57.9134 64.4078C58.5165 62.9519 59.4004 61.629 60.5147 60.5147C61.629 59.4004 62.9519 58.5165 64.4078 57.9134C65.8637 57.3104 67.4241 57 69 57C70.5759 57 72.1363 57.3104 73.5922 57.9134C75.0481 58.5165 76.371 59.4004 77.4853 60.5147C78.5996 61.629 79.4835 62.9519 80.0866 64.4078C80.6896 65.8637 81 67.4241 81 69C81 70.5759 80.6896 72.1363 80.0866 73.5922C79.4835 75.0481 78.5996 76.371 77.4853 77.4853C76.371 78.5996 75.0481 79.4835 73.5922 80.0866C72.1363 80.6896 70.5759 81 69 81C67.4241 81 65.8637 80.6896 64.4078 80.0866C62.9519 79.4835 61.629 78.5996 60.5147 77.4853C59.4004 76.371 58.5165 75.0481 57.9134 73.5922Z" fill="white"/>
<path d="M57 69C57 70.5759 57.3104 72.1363 57.9134 73.5922C58.5165 75.0481 59.4004 76.371 60.5147 77.4853C61.629 78.5996 62.9519 79.4835 64.4078 80.0866C65.8637 80.6896 67.4241 81 69 81C70.5759 81 72.1363 80.6896 73.5922 80.0866C75.0481 79.4835 76.371 78.5996 77.4853 77.4853C78.5996 76.371 79.4835 75.0481 80.0866 73.5922C80.6896 72.1363 81 70.5759 81 69C81 67.4241 80.6896 65.8637 80.0866 64.4078C79.4835 62.9519 78.5996 61.629 77.4853 60.5147C76.371 59.4004 75.0481 58.5165 73.5922 57.9134C72.1363 57.3104 70.5759 57 69 57C67.4241 57 65.8637 57.3104 64.4078 57.9134C62.9519 58.5165 61.629 59.4004 60.5147 60.5147C59.4004 61.629 58.5165 62.9519 57.9134 64.4078C57.3104 65.8637 57 67.4241 57 69Z" fill="#FECE48"/>
<path d="M69 57C70.5757 57 72.136 57.3102 73.5918 57.9131C75.0477 58.5161 76.371 59.4003 77.4854 60.5146C78.5997 61.629 79.4839 62.9523 80.0869 64.4082C80.6898 65.864 81 67.4243 81 69C81 70.5757 80.6898 72.136 80.0869 73.5918C79.4839 75.0477 78.5997 76.371 77.4854 77.4854C76.371 78.5997 75.0477 79.4839 73.5918 80.0869C72.136 80.6898 70.5757 81 69 81V57Z" fill="#FEBE0B"/>
<path fill-rule="evenodd" clip-rule="evenodd" d="M64 69C64 68.1716 64.6716 67.5 65.5 67.5H69C69.8284 67.5 70.5 68.1716 70.5 69C70.5 69.8284 69.8284 70.5 69 70.5H65.5C64.6716 70.5 64 69.8284 64 69Z" fill="white"/>
<path fill-rule="evenodd" clip-rule="evenodd" d="M69 62.5C69.8284 62.5 70.5 63.1716 70.5 64V69C70.5 69.8284 69.8284 70.5 69 70.5C68.1716 70.5 67.5 69.8284 67.5 69V64C67.5 63.1716 68.1716 62.5 69 62.5Z" fill="white"/>
<path d="M69 70.5C69.8284 70.5 70.5 69.8284 70.5 69V64C70.5 63.1716 69.8284 62.5 69 62.5V70.5Z" fill="#F0F7FE"/>
</g>
<path d="M28 129.238C28 127.581 29.3431 126.238 31 126.238H47.9998V179.998H31C29.3431 179.998 28 178.655 28 176.998V129.238Z" fill="#E2EFFE"/>
<path d="M68 129.238C68 127.581 66.6569 126.238 65 126.238H48.0002V179.998H65C66.6569 179.998 68 178.655 68 176.998V129.238Z" fill="#B6D7FC"/>
<path d="M32.4448 128.48H48.0003V177.76H32.2217C31.1171 177.76 30.2217 176.865 30.2217 175.76L30.2226 130.72C30.2226 129.483 31.2175 128.48 32.4448 128.48Z" fill="white"/>
<path d="M41.0193 134V134.459H36.9759V134H33.8363C33.3744 134 33 134.374 33 134.836V145.25C33 145.664 33.3358 146 33.75 146H44.25C44.6642 146 45 145.664 45 145.25V135.138C45 134.51 44.4903 134 43.8616 134L41.0193 134Z" fill="#157DF5"/>
<path d="M41.0196 134.459H39.002V146H44.2504C44.6646 146 45.0004 145.664 45.0004 145.25V134.758C45.0004 134.339 44.6611 134 44.2425 134H41.0196V134.459Z" fill="#0965CD"/>
<path d="M40.6536 137.651H37.3457C37.1413 137.651 36.9756 137.486 36.9756 137.281V134H41.0238V137.281C41.0237 137.486 40.858 137.651 40.6536 137.651Z" fill="#40D98D"/>
<path d="M39.002 137.651H40.6313C40.8484 137.651 41.0244 137.475 41.0244 137.258V134H39.002V137.651Z" fill="#25BB71"/>
<path d="M65.7776 130.72C65.7776 129.483 64.7827 128.48 63.5554 128.48H48V177.76H63.5554C64.7827 177.76 65.7776 176.758 65.7776 175.52V130.72Z" fill="#F0F7FE"/>
<path d="M62.8888 136.879C62.8888 135.951 62.1367 135.199 61.2088 135.199L52.68 135.199C51.7522 135.199 51 135.951 51 136.879C51 137.807 51.7522 138.559 52.68 138.559H61.2088C62.1367 138.559 62.8888 137.807 62.8888 136.879Z" fill="#25BB71"/>
<path d="M62.8898 143.68C62.8898 142.752 62.1376 142 61.2098 142L52.681 142C51.7531 142 51.001 142.752 51.001 143.68C51.001 144.608 51.7531 145.36 52.681 145.36H61.2098C62.1376 145.36 62.8898 144.608 62.8898 143.68Z" fill="#9DC9FB"/>
<path d="M33 171.5C33 170.672 33.6716 170 34.5 170L48 170V173H34.5C33.6716 173 33 172.328 33 171.5Z" fill="#157DF5"/>
<path d="M33.0029 164.5C33.0029 163.672 33.6745 163 34.5029 163L48.002 163V166H34.5029C33.6745 166 33.0029 165.328 33.0029 164.5Z" fill="#9DC9FB"/>
<path d="M60.001 171.5C60.001 172.328 59.3294 173 58.501 173H48.001V170H58.501C59.3294 170 60.001 170.672 60.001 171.5Z" fill="#0965CD"/>
<path d="M33.001 153.5C33.001 152.672 33.6725 152 34.501 152L43.501 152C44.3294 152 45.001 152.672 45.001 153.5C45.001 154.328 44.3294 155 43.501 155H34.501C33.6725 155 33.001 154.328 33.001 153.5Z" fill="#9DC9FB"/>
<path d="M60.002 164.5C60.002 165.328 59.3304 166 58.502 166H48.002V163H58.502C59.3304 163 60.002 163.672 60.002 164.5Z" fill="#9DC9FB"/>
<path d="M41.334 126C41.334 124.895 42.2294 124 43.334 124H48.0006V128.48H41.334V126Z" fill="#E2EFFE"/>
<path d="M48 124H52.6666C53.7712 124 54.6666 124.895 54.6666 126V128.48H48V124Z" fill="#B6D7FC"/>
<g clip-path="url(#clip1_59913_72169)">
<path fill-rule="evenodd" clip-rule="evenodd" d="M55.1418 170.74C54.388 168.92 54 166.97 54 165C54 163.03 54.388 161.08 55.1418 159.26C55.8956 157.44 57.0005 155.786 58.3934 154.393C59.7863 153.001 61.4399 151.896 63.2597 151.142C65.0796 150.388 67.0302 150 69 150C70.9698 150 72.9204 150.388 74.7403 151.142C76.5601 151.896 78.2137 153.001 79.6066 154.393C80.9995 155.786 82.1044 157.44 82.8582 159.26C83.612 161.08 84 163.03 84 165C84 166.97 83.612 168.92 82.8582 170.74C82.1044 172.56 80.9995 174.214 79.6066 175.607C78.2137 176.999 76.5601 178.104 74.7403 178.858C72.9204 179.612 70.9698 180 69 180C67.0302 180 65.0796 179.612 63.2597 178.858C61.4399 178.104 59.7863 176.999 58.3934 175.607C57.0005 174.214 55.8956 172.56 55.1418 170.74ZM57.9134 169.592C57.3104 168.136 57 166.576 57 165C57 163.424 57.3104 161.864 57.9134 160.408C58.5165 158.952 59.4004 157.629 60.5147 156.515C61.629 155.4 62.9519 154.517 64.4078 153.913C65.8637 153.31 67.4241 153 69 153C70.5759 153 72.1363 153.31 73.5922 153.913C75.0481 154.517 76.371 155.4 77.4853 156.515C78.5996 157.629 79.4835 158.952 80.0866 160.408C80.6896 161.864 81 163.424 81 165C81 166.576 80.6896 168.136 80.0866 169.592C79.4835 171.048 78.5996 172.371 77.4853 173.485C76.371 174.6 75.0481 175.483 73.5922 176.087C72.1363 176.69 70.5759 177 69 177C67.4241 177 65.8637 176.69 64.4078 176.087C62.9519 175.483 61.629 174.6 60.5147 173.485C59.4004 172.371 58.5165 171.048 57.9134 169.592Z" fill="white"/>
<path d="M57 165C57 166.576 57.3104 168.136 57.9134 169.592C58.5165 171.048 59.4004 172.371 60.5147 173.485C61.629 174.6 62.9519 175.483 64.4078 176.087C65.8637 176.69 67.4241 177 69 177C70.5759 177 72.1363 176.69 73.5922 176.087C75.0481 175.483 76.371 174.6 77.4853 173.485C78.5996 172.371 79.4835 171.048 80.0866 169.592C80.6896 168.136 81 166.576 81 165C81 163.424 80.6896 161.864 80.0866 160.408C79.4835 158.952 78.5996 157.629 77.4853 156.515C76.371 155.4 75.0481 154.517 73.5922 153.913C72.1363 153.31 70.5759 153 69 153C67.4241 153 65.8637 153.31 64.4078 153.913C62.9519 154.517 61.629 155.4 60.5147 156.515C59.4004 157.629 58.5165 158.952 57.9134 160.408C57.3104 161.864 57 163.424 57 165Z" fill="#FECE48"/>
<path d="M69 153C70.5757 153 72.136 153.31 73.5918 153.913C75.0477 154.516 76.371 155.4 77.4854 156.515C78.5997 157.629 79.4839 158.952 80.0869 160.408C80.6898 161.864 81 163.424 81 165C81 166.576 80.6898 168.136 80.0869 169.592C79.4839 171.048 78.5997 172.371 77.4854 173.485C76.371 174.6 75.0477 175.484 73.5918 176.087C72.136 176.69 70.5757 177 69 177V153Z" fill="#FEBE0B"/>
<path fill-rule="evenodd" clip-rule="evenodd" d="M64 165C64 164.172 64.6716 163.5 65.5 163.5H69C69.8284 163.5 70.5 164.172 70.5 165C70.5 165.828 69.8284 166.5 69 166.5H65.5C64.6716 166.5 64 165.828 64 165Z" fill="white"/>
<path fill-rule="evenodd" clip-rule="evenodd" d="M69 158.5C69.8284 158.5 70.5 159.172 70.5 160V165C70.5 165.828 69.8284 166.5 69 166.5C68.1716 166.5 67.5 165.828 67.5 165V160C67.5 159.172 68.1716 158.5 69 158.5Z" fill="white"/>
<path d="M69 166.5C69.8284 166.5 70.5 165.828 70.5 165V160C70.5 159.172 69.8284 158.5 69 158.5V166.5Z" fill="#F0F7FE"/>
</g>
<defs>
<filter id="filter0_d_59913_72169" x="10" y="9" width="96" height="96" filterUnits="userSpaceOnUse" color-interpolation-filters="sRGB">
<feFlood flood-opacity="0" result="BackgroundImageFix"/>
<feColorMatrix in="SourceAlpha" type="matrix" values="0 0 0 0 0 0 0 0 0 0 0 0 0 0 0 0 0 0 127 0" result="hardAlpha"/>
<feOffset dx="2" dy="1"/>
<feGaussianBlur stdDeviation="4"/>
<feColorMatrix type="matrix" values="0 0 0 0 0.0392157 0 0 0 0 0.0392157 0 0 0 0 0.0627451 0 0 0 0.08 0"/>
<feBlend mode="normal" in2="BackgroundImageFix" result="effect1_dropShadow_59913_72169"/>
<feBlend mode="normal" in="SourceGraphic" in2="effect1_dropShadow_59913_72169" result="shape"/>
</filter>
<clipPath id="clip0_59913_72169">
<rect width="30" height="30" fill="white" transform="translate(54 54)"/>
</clipPath>
<clipPath id="clip1_59913_72169">
<rect width="30" height="30" fill="white" transform="translate(54 150)"/>
</clipPath>
</defs>
</svg>
