<svg width="112" height="208" viewBox="0 0 112 208" fill="none" xmlns="http://www.w3.org/2000/svg">
<rect x="0.5" y="0.5" width="111" height="207" rx="4.5" stroke="#9747FF" stroke-dasharray="10 5"/>
<g filter="url(#filter0_d_59913_72095)">
<rect x="16" y="16" width="80" height="80" rx="8" fill="white"/>
</g>
<path d="M28 33.2383C28 31.5814 29.3431 30.2383 31 30.2383H47.9998V83.9983H31C29.3431 83.9983 28 82.6551 28 80.9983V33.2383Z" fill="#E2EFFE"/>
<path d="M68 33.2383C68 31.5814 66.6569 30.2383 65 30.2383H48.0002V83.9983H65C66.6569 83.9983 68 82.6551 68 80.9983V33.2383Z" fill="#B6D7FC"/>
<path d="M32.4438 32.4805H47.9993V81.7605H32.2207C31.1161 81.7605 30.2207 80.865 30.2207 79.7604L30.2216 34.7205C30.2216 33.4834 31.2166 32.4805 32.4438 32.4805Z" fill="white"/>
<path d="M65.7776 34.7205C65.7776 33.4834 64.7827 32.4805 63.5554 32.4805H48V81.7605H63.5554C64.7827 81.7605 65.7776 80.7576 65.7776 79.5205V34.7205Z" fill="#F0F7FE"/>
<path d="M62.8888 40.8792C62.8888 39.9514 62.1367 39.1992 61.2088 39.1992L52.68 39.1992C51.7522 39.1992 51 39.9514 51 40.8792C51 41.8071 51.7522 42.5592 52.68 42.5592H61.2088C62.1367 42.5592 62.8888 41.8071 62.8888 40.8792Z" fill="#25BB71"/>
<path d="M62.8888 47.68C62.8888 46.7522 62.1367 46 61.2088 46L52.68 46C51.7522 46 51 46.7522 51 47.68C51 48.6078 51.7522 49.36 52.68 49.36H61.2088C62.1367 49.36 62.8888 48.6078 62.8888 47.68Z" fill="#9DC9FB"/>
<path d="M32.999 75.5C32.999 74.6716 33.6706 74 34.499 74L47.999 74V77H34.499C33.6706 77 32.999 76.3284 32.999 75.5Z" fill="#157DF5"/>
<path d="M33.002 68.5C33.002 67.6716 33.6735 67 34.502 67L48.001 67V70H34.502C33.6735 70 33.002 69.3284 33.002 68.5Z" fill="#9DC9FB"/>
<path d="M60.001 75.5C60.001 76.3284 59.3294 77 58.501 77H48.001V74H58.501C59.3294 74 60.001 74.6716 60.001 75.5Z" fill="#0965CD"/>
<path d="M33 57.5C33 56.6716 33.6716 56 34.5 56L43.5 56C44.3284 56 45 56.6716 45 57.5C45 58.3284 44.3284 59 43.5 59H34.5C33.6716 59 33 58.3284 33 57.5Z" fill="#9DC9FB"/>
<path d="M60.001 68.5C60.001 69.3284 59.3294 70 58.501 70H48.001V67H58.501C59.3294 67 60.001 67.6716 60.001 68.5Z" fill="#9DC9FB"/>
<path d="M41.334 30C41.334 28.8954 42.2294 28 43.334 28H48.0006V32.48H41.334V30Z" fill="#E2EFFE"/>
<path d="M48 28H52.6666C53.7712 28 54.6666 28.8954 54.6666 30V32.48H48V28Z" fill="#B6D7FC"/>
<path d="M41.0193 38V38.4592H36.9759V38H33.8363C33.3744 38 33 38.3744 33 38.8363V49.25C33 49.6642 33.3358 50 33.75 50H44.25C44.6642 50 45 49.6642 45 49.25V39.1385C45 38.5097 44.4903 38.0001 43.8616 38.0001L41.0193 38Z" fill="#157DF5"/>
<path d="M41.0196 38.4592H39.002V50H44.2504C44.6646 50 45.0004 49.6642 45.0004 49.25V38.7579C45.0004 38.3393 44.6611 38 44.2425 38H41.0196V38.4592Z" fill="#0965CD"/>
<path d="M40.6536 41.6515H37.3457C37.1413 41.6515 36.9756 41.4858 36.9756 41.2814V38H41.0238V41.2814C41.0237 41.4858 40.858 41.6515 40.6536 41.6515Z" fill="#40D98D"/>
<path d="M39.002 41.6515H40.6313C40.8484 41.6515 41.0244 41.4755 41.0244 41.2583V38H39.002V41.6515Z" fill="#25BB71"/>
<path d="M79 62C79 65.0684 77.0252 67.6739 74.2776 68.619C74.1141 68.6752 74 68.8266 74 68.9995C74 69.1725 74.1141 69.3238 74.2776 69.38C77.0253 70.3251 79 72.9315 79 76V79H65V76C65 72.9315 66.9747 70.3251 69.7224 69.38C69.8859 69.3238 70 69.1725 70 68.9995C70 68.8266 69.8859 68.6752 69.7224 68.619C66.9748 67.6739 65 65.0684 65 62V59H79V62Z" fill="#F0F7FE"/>
<path d="M79 62C79 65.0684 77.0249 67.6741 74.2773 68.6191C74.1141 68.6754 74.0002 68.8264 74 68.999C74 69.1719 74.114 69.3236 74.2773 69.3799C77.0251 70.3249 79 72.9315 79 76V79H72V59H79V62Z" fill="#E2EFFE"/>
<path d="M65.7209 65.0951C65.6978 65.0482 65.727 64.9926 65.7787 64.9846C69.9018 64.3437 74.0991 64.3437 78.2222 64.9846C78.2739 64.9926 78.3031 65.0482 78.28 65.0951C77.653 66.3649 76.6525 67.4168 75.4219 68.1077C74.1353 68.8299 73.0004 70.0244 73.0004 71.4998C73.0004 72.9753 74.1353 74.1698 75.4218 74.8922C76.647 75.5802 77.6442 76.6263 78.2716 77.8887C78.2971 77.9401 78.2595 77.9998 78.2021 77.9998H65.7988C65.7414 77.9998 65.7037 77.9401 65.7293 77.8887C66.3567 76.6263 67.3538 75.5802 68.5791 74.8922C69.8656 74.1698 71.0004 72.9753 71.0004 71.4998C71.0004 70.0244 69.8656 68.8299 68.579 68.1077C67.3484 67.4168 66.3479 66.3649 65.7209 65.0951Z" fill="#F54B5E"/>
<path d="M72 64.5039C74.0803 64.5039 76.161 64.6639 78.2227 64.9844C78.2739 64.9926 78.303 65.0481 78.2803 65.0947C77.6533 66.3645 76.6524 67.4166 75.4219 68.1074C74.1353 68.8297 73 70.0245 73 71.5C73.0001 72.9754 74.1354 74.1702 75.4219 74.8926C76.647 75.5806 77.6441 76.6264 78.2715 77.8887C78.297 77.94 78.2595 78 78.2021 78H72V64.5039Z" fill="#F3263D"/>
<path d="M63 79.5C63 78.6716 63.6716 78 64.5 78H79.5C80.3284 78 81 78.6716 81 79.5C81 80.3284 80.3284 81 79.5 81H64.5C63.6716 81 63 80.3284 63 79.5Z" fill="#323567"/>
<path d="M79.5 78C80.3284 78 81 78.6716 81 79.5C81 80.3284 80.3284 81 79.5 81H72V78H79.5Z" fill="#282A52"/>
<path d="M63 58.5C63 57.6716 63.6716 57 64.5 57H79.5C80.3284 57 81 57.6716 81 58.5C81 59.3284 80.3284 60 79.5 60H64.5C63.6716 60 63 59.3284 63 58.5Z" fill="#323567"/>
<path d="M79.5 57C80.3284 57 81 57.6716 81 58.5C81 59.3284 80.3284 60 79.5 60H72V57H79.5Z" fill="#282A52"/>
<path d="M79.8955 68.1328C79.894 68.1348 79.8947 68.135 79.8896 68.1416C79.8831 68.1502 79.8658 68.1736 79.8447 68.2002L79.8438 68.1992C79.774 68.2874 79.7069 68.3702 79.6436 68.4453L79.6416 68.4473C79.6356 68.4545 79.6194 68.4749 79.5996 68.498L79.5986 68.4971C79.5285 68.579 79.4616 68.6561 79.3984 68.7256L79.3975 68.7266C79.3825 68.743 79.3696 68.7567 79.3604 68.7666C79.3516 68.7759 79.3439 68.7839 79.3408 68.7871C79.3365 68.7917 79.3375 68.7905 79.3389 68.7891C79.2776 68.8552 79.2151 68.9211 79.1514 68.9863V68.9873C79.1488 68.9899 79.1436 68.9939 79.1377 69C79.2176 69.0814 79.2979 69.1629 79.375 69.2471C79.4585 69.3383 79.5429 69.4332 79.627 69.5322L79.8975 69.8652C81.1673 71.4981 81.9405 73.5397 81.9941 75.7539C83.2034 76.5606 84 77.9373 84 79.5C84 81.9853 81.9853 84 79.5 84H64.5C62.0147 84 60 81.9853 60 79.5C60 77.9378 60.7963 76.5617 62.0049 75.7549C62.0682 73.1237 63.145 70.7471 64.8604 68.999C64.8485 68.987 64.8365 68.9746 64.8242 68.9619L64.8232 68.9609C64.7785 68.9148 64.7326 68.8668 64.6865 68.8174V68.8164C64.6428 68.7696 64.6021 68.726 64.5674 68.6875L64.5664 68.6865C64.5499 68.6682 64.4879 68.5995 64.4307 68.5332V68.5322C64.3774 68.4706 64.3104 68.3906 64.3096 68.3896L64.3086 68.3887C64.2693 68.3414 64.2259 68.2875 64.1797 68.2295V68.2285C64.1668 68.2124 64.1302 68.1675 64.0957 68.123L64.0947 68.1221C64.0446 68.0574 63.9968 67.994 63.9521 67.9336V67.9326C63.9357 67.9103 63.8882 67.8468 63.8438 67.7842L63.8428 67.7832C63.8167 67.7464 63.7948 67.7143 63.7832 67.6973C63.7801 67.6927 63.7766 67.6888 63.7744 67.6855C63.772 67.682 63.7711 67.6791 63.7695 67.6768C63.7673 67.6734 63.7659 67.6722 63.7656 67.6719V67.6709C63.6448 67.4958 63.5245 67.3111 63.4082 67.1162L63.4072 67.1152C63.393 67.0913 63.3808 67.0709 63.3721 67.0557C63.3637 67.0411 63.3568 67.0283 63.3535 67.0225C63.3493 67.015 63.3502 67.015 63.3506 67.0156C63.3148 66.9541 63.2783 66.8907 63.2422 66.8252L63.2412 66.8232C63.2283 66.7998 63.1968 66.7436 63.166 66.6855C63.1363 66.6296 63.1072 66.5729 63.0781 66.5156L63.0732 66.5068C63.0724 66.5052 63.0715 66.5032 63.0703 66.501C63.0632 66.487 63.0559 66.4731 63.0488 66.459V66.458H63.0479C63.0426 66.4476 63.0366 66.4357 63.0303 66.4229L62.9395 66.2383L62.9316 66.2129C62.3672 65.0002 62.0379 63.6561 62.0039 62.2432C60.7962 61.4362 60 60.0616 60 58.5C60 56.0147 62.0147 54 64.5 54V57C63.6716 57 63 57.6716 63 58.5C63 59.3284 63.6716 60 64.5 60H65V62C65 63.1103 65.2596 64.1595 65.7197 65.0918L65.7207 65.0947C65.7247 65.1028 65.7294 65.1111 65.7334 65.1191C65.7601 65.1726 65.7874 65.2256 65.8154 65.2783C65.8327 65.3108 65.8504 65.3429 65.8682 65.375C65.8959 65.4252 65.9242 65.475 65.9531 65.5244C65.9637 65.5425 65.9736 65.5611 65.9844 65.5791C66.0637 65.712 66.1477 65.8417 66.2354 65.9688C66.2533 65.9948 66.2708 66.0211 66.2891 66.0469C66.3143 66.0824 66.3403 66.1173 66.3662 66.1523C66.3989 66.1967 66.4321 66.2407 66.4658 66.2842C66.4854 66.3095 66.5054 66.3344 66.5254 66.3594C66.5553 66.3968 66.5856 66.4339 66.6162 66.4707C66.6444 66.5046 66.6723 66.5389 66.7012 66.5723C66.7325 66.6086 66.7648 66.644 66.7969 66.6797C66.8246 66.7105 66.8526 66.7412 66.8809 66.7715C66.9124 66.8053 66.9443 66.8388 66.9766 66.8721C67.0021 66.8983 67.0278 66.9243 67.0537 66.9502C67.0956 66.992 67.1378 67.0335 67.1807 67.0742C67.1994 67.092 67.2184 67.1094 67.2373 67.127C67.2798 67.1665 67.3227 67.2057 67.3662 67.2441C67.3927 67.2675 67.4195 67.2905 67.4463 67.3135C67.5651 67.4154 67.687 67.5136 67.8125 67.6074C67.8205 67.6134 67.8289 67.619 67.8369 67.625C67.8907 67.6649 67.9451 67.7038 68 67.7422C68.023 67.7583 68.0461 67.7742 68.0693 67.79C68.2346 67.9025 68.4041 68.0092 68.5791 68.1074C69.0834 68.3905 69.5634 68.7474 69.9619 69.1641C69.9158 69.2632 69.8308 69.3426 69.7227 69.3799C66.9749 70.3249 65 72.9315 65 76V78H64.5C63.6716 78 63 78.6716 63 79.5C63 80.3284 63.6716 81 64.5 81H79.5C80.3284 81 81 80.3284 81 79.5C81 78.6716 80.3284 78 79.5 78H79V76C79 74.274 78.3756 72.6938 77.3398 71.4736C77.2822 71.4058 77.2232 71.3391 77.1631 71.2734C76.863 70.946 76.5318 70.6475 76.1748 70.3818C76.0318 70.2754 75.8845 70.1746 75.7334 70.0791C75.6579 70.0314 75.5813 69.9853 75.5039 69.9404C75.3492 69.8508 75.1912 69.7663 75.0293 69.6885C74.7862 69.5716 74.535 69.4685 74.2773 69.3799C74.1692 69.3426 74.0842 69.2632 74.0381 69.1641C74.4367 68.7472 74.9174 68.3906 75.4219 68.1074C75.6052 68.0045 75.7824 67.8919 75.9551 67.7734C75.9615 67.769 75.9682 67.7652 75.9746 67.7607C76.037 67.7176 76.0983 67.673 76.1592 67.6279C76.1686 67.621 76.1782 67.6144 76.1875 67.6074C76.2951 67.527 76.4012 67.4448 76.5039 67.3584C76.5318 67.3349 76.5584 67.31 76.5859 67.2861C76.5889 67.2836 76.5918 67.2809 76.5947 67.2783C76.6304 67.2472 76.6671 67.2173 76.7021 67.1855C76.7869 67.1086 76.8683 67.0282 76.9492 66.9473C76.9683 66.9282 76.987 66.9089 77.0059 66.8896C77.0545 66.8399 77.1023 66.7895 77.1494 66.7383C77.1591 66.7278 77.1691 66.7176 77.1787 66.707C77.2267 66.6543 77.274 66.601 77.3203 66.5469C77.3305 66.5349 77.3404 66.5227 77.3506 66.5107C77.3986 66.4538 77.446 66.3963 77.4922 66.3379C77.5034 66.3237 77.5143 66.3092 77.5254 66.2949C77.5695 66.2383 77.6129 66.1811 77.6553 66.123C77.6645 66.1104 77.6735 66.0976 77.6826 66.085C77.7022 66.0578 77.723 66.0314 77.7422 66.0039L77.7949 65.9248C77.8131 65.898 77.8308 65.8708 77.8486 65.8438C77.8797 65.7966 77.9105 65.7492 77.9404 65.7012C77.9524 65.6821 77.9638 65.6628 77.9756 65.6436C78.0138 65.5809 78.0516 65.518 78.0879 65.4541C78.0994 65.434 78.1108 65.4138 78.1221 65.3936C78.1497 65.3438 78.1767 65.2937 78.2031 65.2432C78.2162 65.2183 78.2285 65.193 78.2412 65.168C78.2537 65.1433 78.268 65.1195 78.2803 65.0947C78.2815 65.0921 78.2803 65.0886 78.2812 65.0859C78.3034 65.0409 78.3274 64.9967 78.3486 64.9512C78.7664 64.0545 79 63.0547 79 62V60H79.5C80.3284 60 81 59.3284 81 58.5C81 57.6716 80.3284 57 79.5 57V54C81.9853 54 84 56.0147 84 58.5C84 60.0616 83.2038 61.4362 81.9961 62.2432C81.9622 63.6562 81.6345 65.0026 81.0684 66.2178V66.2188C81.0444 66.2702 81.0203 66.3151 81.0039 66.3477C80.9949 66.3672 80.9871 66.3875 80.9775 66.4072L80.9736 66.415L80.9707 66.4229C80.9499 66.4651 80.9312 66.5005 80.918 66.5254C80.9154 66.5301 80.9125 66.5347 80.9102 66.5391L80.9043 66.5508L80.8604 66.6357C80.8239 66.7053 80.7858 66.7773 80.7451 66.8506L80.7441 66.8516L80.6953 66.9375C80.6375 67.0392 80.5818 67.1316 80.5352 67.208V67.209C80.5349 67.2094 80.5335 67.2107 80.5322 67.2129C80.5313 67.2145 80.5307 67.2164 80.5293 67.2188C80.5278 67.2212 80.5255 67.2242 80.5234 67.2275C80.5159 67.2399 80.5021 67.2632 80.4854 67.29C80.4377 67.3663 80.3927 67.4362 80.3545 67.4941H80.3535C80.3501 67.4993 80.3196 67.5438 80.29 67.5879L80.291 67.5889L80.2383 67.668L80.2207 67.6953L80.2012 67.7217C80.1613 67.7787 80.1266 67.8266 80.1152 67.8418C80.1135 67.8441 80.1116 67.846 80.1104 67.8477L80.0771 67.8916C80.0144 67.9775 79.9534 68.0584 79.8955 68.1328ZM66.085 70.0605L66.0918 70.0654C66.0899 70.0641 66.0788 70.0561 66.0674 70.0479C66.075 70.0534 66.0811 70.0578 66.085 70.0605ZM77.9189 70.0576C77.92 70.0568 77.9208 70.0555 77.9219 70.0547C77.9206 70.0556 77.9198 70.057 77.9189 70.0576ZM80.1064 67.8525C80.1051 67.8544 80.1045 67.8555 80.1045 67.8555C80.1045 67.8554 80.1069 67.8524 80.1104 67.8477L80.1064 67.8525ZM80.8896 66.5762V66.5781C80.8922 66.5734 80.8967 66.5635 80.9033 66.5508C80.8969 66.5625 80.8921 66.5717 80.8896 66.5762ZM81.2666 65.375C81.2717 65.3216 81.2754 65.2747 81.2773 65.2354C81.2786 65.209 81.2778 65.1844 81.2783 65.1621C81.2771 65.2159 81.2747 65.2889 81.2666 65.375ZM79.5 54V57H64.5V54H79.5Z" fill="white"/>
<path d="M28 129.238C28 127.581 29.3431 126.238 31 126.238H47.9998V179.998H31C29.3431 179.998 28 178.655 28 176.998V129.238Z" fill="#E2EFFE"/>
<path d="M68 129.238C68 127.581 66.6569 126.238 65 126.238H48.0002V179.998H65C66.6569 179.998 68 178.655 68 176.998V129.238Z" fill="#B6D7FC"/>
<path d="M32.4438 128.48H47.9993V177.76H32.2207C31.1161 177.76 30.2207 176.865 30.2207 175.76L30.2216 130.72C30.2216 129.483 31.2166 128.48 32.4438 128.48Z" fill="white"/>
<path d="M65.7776 130.72C65.7776 129.483 64.7827 128.48 63.5554 128.48H48V177.76H63.5554C64.7827 177.76 65.7776 176.758 65.7776 175.52V130.72Z" fill="#F0F7FE"/>
<path d="M62.8888 136.879C62.8888 135.951 62.1367 135.199 61.2088 135.199L52.68 135.199C51.7522 135.199 51 135.951 51 136.879C51 137.807 51.7522 138.559 52.68 138.559H61.2088C62.1367 138.559 62.8888 137.807 62.8888 136.879Z" fill="#25BB71"/>
<path d="M62.8888 143.68C62.8888 142.752 62.1367 142 61.2088 142L52.68 142C51.7522 142 51 142.752 51 143.68C51 144.608 51.7522 145.36 52.68 145.36H61.2088C62.1367 145.36 62.8888 144.608 62.8888 143.68Z" fill="#9DC9FB"/>
<path d="M32.999 171.5C32.999 170.672 33.6706 170 34.499 170L47.999 170V173H34.499C33.6706 173 32.999 172.328 32.999 171.5Z" fill="#157DF5"/>
<path d="M33.002 164.5C33.002 163.672 33.6735 163 34.502 163L48.001 163V166H34.502C33.6735 166 33.002 165.328 33.002 164.5Z" fill="#9DC9FB"/>
<path d="M60.001 171.5C60.001 172.328 59.3294 173 58.501 173H48.001V170H58.501C59.3294 170 60.001 170.672 60.001 171.5Z" fill="#0965CD"/>
<path d="M33 153.5C33 152.672 33.6716 152 34.5 152L43.5 152C44.3284 152 45 152.672 45 153.5C45 154.328 44.3284 155 43.5 155H34.5C33.6716 155 33 154.328 33 153.5Z" fill="#9DC9FB"/>
<path d="M60.001 164.5C60.001 165.328 59.3294 166 58.501 166H48.001V163H58.501C59.3294 163 60.001 163.672 60.001 164.5Z" fill="#9DC9FB"/>
<path d="M41.334 126C41.334 124.895 42.2294 124 43.334 124H48.0006V128.48H41.334V126Z" fill="#E2EFFE"/>
<path d="M48 124H52.6666C53.7712 124 54.6666 124.895 54.6666 126V128.48H48V124Z" fill="#B6D7FC"/>
<path d="M41.0193 134V134.459H36.9759V134H33.8363C33.3744 134 33 134.374 33 134.836V145.25C33 145.664 33.3358 146 33.75 146H44.25C44.6642 146 45 145.664 45 145.25V135.138C45 134.51 44.4903 134 43.8616 134L41.0193 134Z" fill="#157DF5"/>
<path d="M41.0196 134.459H39.002V146H44.2504C44.6646 146 45.0004 145.664 45.0004 145.25V134.758C45.0004 134.339 44.6611 134 44.2425 134H41.0196V134.459Z" fill="#0965CD"/>
<path d="M40.6536 137.651H37.3457C37.1413 137.651 36.9756 137.486 36.9756 137.281V134H41.0238V137.281C41.0237 137.486 40.858 137.651 40.6536 137.651Z" fill="#40D98D"/>
<path d="M39.002 137.651H40.6313C40.8484 137.651 41.0244 137.475 41.0244 137.258V134H39.002V137.651Z" fill="#25BB71"/>
<path d="M79 158C79 161.068 77.0252 163.674 74.2776 164.619C74.1141 164.675 74 164.827 74 165C74 165.172 74.1141 165.324 74.2776 165.38C77.0253 166.325 79 168.931 79 172V175H65V172C65 168.931 66.9747 166.325 69.7224 165.38C69.8859 165.324 70 165.172 70 165C70 164.827 69.8859 164.675 69.7224 164.619C66.9748 163.674 65 161.068 65 158V155H79V158Z" fill="#F0F7FE"/>
<path d="M79 158C79 161.068 77.0249 163.674 74.2773 164.619C74.1141 164.675 74.0002 164.826 74 164.999C74 165.172 74.114 165.324 74.2773 165.38C77.0251 166.325 79 168.931 79 172V175H72V155H79V158Z" fill="#E2EFFE"/>
<path d="M65.7209 161.095C65.6978 161.048 65.727 160.993 65.7787 160.985C69.9018 160.344 74.0991 160.344 78.2222 160.985C78.2739 160.993 78.3031 161.048 78.28 161.095C77.653 162.365 76.6525 163.417 75.4219 164.108C74.1353 164.83 73.0004 166.024 73.0004 167.5C73.0004 168.975 74.1353 170.17 75.4218 170.892C76.647 171.58 77.6442 172.626 78.2716 173.889C78.2971 173.94 78.2595 174 78.2021 174H65.7988C65.7414 174 65.7037 173.94 65.7293 173.889C66.3567 172.626 67.3538 171.58 68.5791 170.892C69.8656 170.17 71.0004 168.975 71.0004 167.5C71.0004 166.024 69.8656 164.83 68.579 164.108C67.3484 163.417 66.3479 162.365 65.7209 161.095Z" fill="#F54B5E"/>
<path d="M72 160.504C74.0803 160.504 76.161 160.664 78.2227 160.984C78.2739 160.993 78.303 161.048 78.2803 161.095C77.6533 162.364 76.6524 163.417 75.4219 164.107C74.1353 164.83 73 166.025 73 167.5C73.0001 168.975 74.1354 170.17 75.4219 170.893C76.647 171.581 77.6441 172.626 78.2715 173.889C78.297 173.94 78.2595 174 78.2021 174H72V160.504Z" fill="#F3263D"/>
<path d="M63 175.5C63 174.672 63.6716 174 64.5 174H79.5C80.3284 174 81 174.672 81 175.5C81 176.328 80.3284 177 79.5 177H64.5C63.6716 177 63 176.328 63 175.5Z" fill="#323567"/>
<path d="M79.5 174C80.3284 174 81 174.672 81 175.5C81 176.328 80.3284 177 79.5 177H72V174H79.5Z" fill="#282A52"/>
<path d="M63 154.5C63 153.672 63.6716 153 64.5 153H79.5C80.3284 153 81 153.672 81 154.5C81 155.328 80.3284 156 79.5 156H64.5C63.6716 156 63 155.328 63 154.5Z" fill="#323567"/>
<path d="M79.5 153C80.3284 153 81 153.672 81 154.5C81 155.328 80.3284 156 79.5 156H72V153H79.5Z" fill="#282A52"/>
<path d="M79.8955 164.133C79.894 164.135 79.8947 164.135 79.8896 164.142C79.8831 164.15 79.8658 164.174 79.8447 164.2L79.8438 164.199C79.774 164.287 79.7069 164.37 79.6436 164.445L79.6416 164.447C79.6356 164.455 79.6194 164.475 79.5996 164.498L79.5986 164.497C79.5285 164.579 79.4616 164.656 79.3984 164.726L79.3975 164.727C79.3825 164.743 79.3696 164.757 79.3604 164.767C79.3516 164.776 79.3439 164.784 79.3408 164.787C79.3365 164.792 79.3375 164.79 79.3389 164.789C79.2776 164.855 79.2151 164.921 79.1514 164.986V164.987C79.1488 164.99 79.1436 164.994 79.1377 165C79.2176 165.081 79.2979 165.163 79.375 165.247C79.4585 165.338 79.5429 165.433 79.627 165.532L79.8975 165.865C81.1673 167.498 81.9405 169.54 81.9941 171.754C83.2034 172.561 84 173.937 84 175.5C84 177.985 81.9853 180 79.5 180H64.5C62.0147 180 60 177.985 60 175.5C60 173.938 60.7963 172.562 62.0049 171.755C62.0682 169.124 63.145 166.747 64.8604 164.999C64.8485 164.987 64.8365 164.975 64.8242 164.962L64.8232 164.961C64.7785 164.915 64.7326 164.867 64.6865 164.817V164.816C64.6428 164.77 64.6021 164.726 64.5674 164.688L64.5664 164.687C64.5499 164.668 64.4879 164.599 64.4307 164.533V164.532C64.3774 164.471 64.3104 164.391 64.3096 164.39L64.3086 164.389C64.2693 164.341 64.2259 164.287 64.1797 164.229V164.229C64.1668 164.212 64.1302 164.168 64.0957 164.123L64.0947 164.122C64.0446 164.057 63.9968 163.994 63.9521 163.934V163.933C63.9357 163.91 63.8882 163.847 63.8438 163.784L63.8428 163.783C63.8167 163.746 63.7948 163.714 63.7832 163.697C63.7801 163.693 63.7766 163.689 63.7744 163.686C63.772 163.682 63.7711 163.679 63.7695 163.677C63.7673 163.673 63.7659 163.672 63.7656 163.672V163.671C63.6448 163.496 63.5245 163.311 63.4082 163.116L63.4072 163.115C63.393 163.091 63.3808 163.071 63.3721 163.056C63.3637 163.041 63.3568 163.028 63.3535 163.022C63.3493 163.015 63.3502 163.015 63.3506 163.016C63.3148 162.954 63.2783 162.891 63.2422 162.825L63.2412 162.823C63.2283 162.8 63.1968 162.744 63.166 162.686C63.1363 162.63 63.1072 162.573 63.0781 162.516L63.0732 162.507C63.0724 162.505 63.0715 162.503 63.0703 162.501C63.0632 162.487 63.0559 162.473 63.0488 162.459V162.458H63.0479C63.0426 162.448 63.0366 162.436 63.0303 162.423L62.9395 162.238L62.9316 162.213C62.3672 161 62.0379 159.656 62.0039 158.243C60.7962 157.436 60 156.062 60 154.5C60 152.015 62.0147 150 64.5 150V153C63.6716 153 63 153.672 63 154.5C63 155.328 63.6716 156 64.5 156H65V158C65 159.11 65.2596 160.159 65.7197 161.092L65.7207 161.095C65.7247 161.103 65.7294 161.111 65.7334 161.119C65.7601 161.173 65.7874 161.226 65.8154 161.278C65.8327 161.311 65.8504 161.343 65.8682 161.375C65.8959 161.425 65.9242 161.475 65.9531 161.524C65.9637 161.543 65.9736 161.561 65.9844 161.579C66.0637 161.712 66.1477 161.842 66.2354 161.969C66.2533 161.995 66.2708 162.021 66.2891 162.047C66.3143 162.082 66.3403 162.117 66.3662 162.152C66.3989 162.197 66.4321 162.241 66.4658 162.284C66.4854 162.309 66.5054 162.334 66.5254 162.359C66.5553 162.397 66.5856 162.434 66.6162 162.471C66.6444 162.505 66.6723 162.539 66.7012 162.572C66.7325 162.609 66.7648 162.644 66.7969 162.68C66.8246 162.711 66.8526 162.741 66.8809 162.771C66.9124 162.805 66.9443 162.839 66.9766 162.872C67.0021 162.898 67.0278 162.924 67.0537 162.95C67.0956 162.992 67.1378 163.033 67.1807 163.074C67.1994 163.092 67.2184 163.109 67.2373 163.127C67.2798 163.166 67.3227 163.206 67.3662 163.244C67.3927 163.268 67.4195 163.29 67.4463 163.313C67.5651 163.415 67.687 163.514 67.8125 163.607C67.8205 163.613 67.8289 163.619 67.8369 163.625C67.8907 163.665 67.9451 163.704 68 163.742C68.023 163.758 68.0461 163.774 68.0693 163.79C68.2346 163.902 68.4041 164.009 68.5791 164.107C69.0834 164.391 69.5634 164.747 69.9619 165.164C69.9158 165.263 69.8308 165.343 69.7227 165.38C66.9749 166.325 65 168.931 65 172V174H64.5C63.6716 174 63 174.672 63 175.5C63 176.328 63.6716 177 64.5 177H79.5C80.3284 177 81 176.328 81 175.5C81 174.672 80.3284 174 79.5 174H79V172C79 170.274 78.3756 168.694 77.3398 167.474C77.2822 167.406 77.2232 167.339 77.1631 167.273C76.863 166.946 76.5318 166.647 76.1748 166.382C76.0318 166.275 75.8845 166.175 75.7334 166.079C75.6579 166.031 75.5813 165.985 75.5039 165.94C75.3492 165.851 75.1912 165.766 75.0293 165.688C74.7862 165.572 74.535 165.469 74.2773 165.38C74.1692 165.343 74.0842 165.263 74.0381 165.164C74.4367 164.747 74.9174 164.391 75.4219 164.107C75.6052 164.004 75.7824 163.892 75.9551 163.773C75.9615 163.769 75.9682 163.765 75.9746 163.761C76.037 163.718 76.0983 163.673 76.1592 163.628C76.1686 163.621 76.1782 163.614 76.1875 163.607C76.2951 163.527 76.4012 163.445 76.5039 163.358C76.5318 163.335 76.5584 163.31 76.5859 163.286C76.5889 163.284 76.5918 163.281 76.5947 163.278C76.6304 163.247 76.6671 163.217 76.7021 163.186C76.7869 163.109 76.8683 163.028 76.9492 162.947C76.9683 162.928 76.987 162.909 77.0059 162.89C77.0545 162.84 77.1023 162.789 77.1494 162.738C77.1591 162.728 77.1691 162.718 77.1787 162.707C77.2267 162.654 77.274 162.601 77.3203 162.547C77.3305 162.535 77.3404 162.523 77.3506 162.511C77.3986 162.454 77.446 162.396 77.4922 162.338C77.5034 162.324 77.5143 162.309 77.5254 162.295C77.5695 162.238 77.6129 162.181 77.6553 162.123C77.6645 162.11 77.6735 162.098 77.6826 162.085C77.7022 162.058 77.723 162.031 77.7422 162.004L77.7949 161.925C77.8131 161.898 77.8308 161.871 77.8486 161.844C77.8797 161.797 77.9105 161.749 77.9404 161.701C77.9524 161.682 77.9638 161.663 77.9756 161.644C78.0138 161.581 78.0516 161.518 78.0879 161.454C78.0994 161.434 78.1108 161.414 78.1221 161.394C78.1497 161.344 78.1767 161.294 78.2031 161.243C78.2162 161.218 78.2285 161.193 78.2412 161.168C78.2537 161.143 78.268 161.12 78.2803 161.095C78.2815 161.092 78.2803 161.089 78.2812 161.086C78.3034 161.041 78.3274 160.997 78.3486 160.951C78.7664 160.055 79 159.055 79 158V156H79.5C80.3284 156 81 155.328 81 154.5C81 153.672 80.3284 153 79.5 153V150C81.9853 150 84 152.015 84 154.5C84 156.062 83.2038 157.436 81.9961 158.243C81.9622 159.656 81.6345 161.003 81.0684 162.218V162.219C81.0444 162.27 81.0203 162.315 81.0039 162.348C80.9949 162.367 80.9871 162.387 80.9775 162.407L80.9736 162.415L80.9707 162.423C80.9499 162.465 80.9312 162.501 80.918 162.525C80.9154 162.53 80.9125 162.535 80.9102 162.539L80.9043 162.551L80.8604 162.636C80.8239 162.705 80.7858 162.777 80.7451 162.851L80.7441 162.852L80.6953 162.938C80.6375 163.039 80.5818 163.132 80.5352 163.208V163.209C80.5349 163.209 80.5335 163.211 80.5322 163.213C80.5313 163.214 80.5307 163.216 80.5293 163.219C80.5278 163.221 80.5255 163.224 80.5234 163.228C80.5159 163.24 80.5021 163.263 80.4854 163.29C80.4377 163.366 80.3927 163.436 80.3545 163.494H80.3535C80.3501 163.499 80.3196 163.544 80.29 163.588L80.291 163.589L80.2383 163.668L80.2207 163.695L80.2012 163.722C80.1613 163.779 80.1266 163.827 80.1152 163.842C80.1135 163.844 80.1116 163.846 80.1104 163.848L80.0771 163.892C80.0144 163.978 79.9534 164.058 79.8955 164.133ZM66.085 166.061L66.0918 166.065C66.0899 166.064 66.0788 166.056 66.0674 166.048C66.075 166.053 66.0811 166.058 66.085 166.061ZM77.9189 166.058C77.92 166.057 77.9208 166.055 77.9219 166.055C77.9206 166.056 77.9198 166.057 77.9189 166.058ZM80.1064 163.853C80.1051 163.854 80.1045 163.855 80.1045 163.855C80.1045 163.855 80.1069 163.852 80.1104 163.848L80.1064 163.853ZM80.8896 162.576V162.578C80.8922 162.573 80.8967 162.563 80.9033 162.551C80.8969 162.563 80.8921 162.572 80.8896 162.576ZM81.2666 161.375C81.2717 161.322 81.2754 161.275 81.2773 161.235C81.2786 161.209 81.2778 161.184 81.2783 161.162C81.2771 161.216 81.2747 161.289 81.2666 161.375ZM79.5 150V153H64.5V150H79.5Z" fill="white"/>
<defs>
<filter id="filter0_d_59913_72095" x="10" y="9" width="96" height="96" filterUnits="userSpaceOnUse" color-interpolation-filters="sRGB">
<feFlood flood-opacity="0" result="BackgroundImageFix"/>
<feColorMatrix in="SourceAlpha" type="matrix" values="0 0 0 0 0 0 0 0 0 0 0 0 0 0 0 0 0 0 127 0" result="hardAlpha"/>
<feOffset dx="2" dy="1"/>
<feGaussianBlur stdDeviation="4"/>
<feColorMatrix type="matrix" values="0 0 0 0 0.0392157 0 0 0 0 0.0392157 0 0 0 0 0.0627451 0 0 0 0.08 0"/>
<feBlend mode="normal" in2="BackgroundImageFix" result="effect1_dropShadow_59913_72095"/>
<feBlend mode="normal" in="SourceGraphic" in2="effect1_dropShadow_59913_72095" result="shape"/>
</filter>
</defs>
</svg>
