<svg width="64" height="64" viewBox="0 0 64 64" fill="none" xmlns="http://www.w3.org/2000/svg">
<path fill-rule="evenodd" clip-rule="evenodd" d="M32 58C46.3594 58 58 46.3594 58 32C58 17.6406 46.3594 6 32 6C17.6406 6 6 17.6406 6 32C6 46.3594 17.6406 58 32 58Z" fill="#EBEBEB"/>
<path d="M33 58V6C46.8071 6 58 17.6404 58 32C58 46.3596 46.8071 58 33 58Z" fill="#D9D9D9"/>
<path fill-rule="evenodd" clip-rule="evenodd" d="M32 51C42.4934 51 51 42.4934 51 32C51 21.5066 42.4934 13 32 13C21.5066 13 13 21.5066 13 32C13 42.4934 21.5066 51 32 51Z" fill="#EDCD4E"/>
<path d="M33 51V13C42.9411 13 51 21.5065 51 32C51 42.4935 42.9411 51 33 51Z" fill="#DCC04F"/>
<path d="M30.9629 31.5797C30.9629 30.9782 30.9913 30.3483 31.048 29.6901C31.1048 29.0262 31.2126 28.3765 31.3714 27.7409C31.536 27.1054 31.7658 26.5011 32.0609 25.928C32.3559 25.3549 32.7418 24.8527 33.2185 24.4214C33.7008 23.9845 34.2881 23.6384 34.9803 23.383C35.6726 23.1277 36.4954 23 37.4487 23C38.4077 23 39.2333 23.1277 39.9256 23.383C40.6235 23.6384 41.2137 23.9845 41.696 24.4214C42.1783 24.8527 42.567 25.3549 42.8621 25.928C43.1628 26.5011 43.3926 27.1054 43.5515 27.7409C43.7161 28.3765 43.8267 29.0262 43.8834 29.6901C43.9402 30.3483 43.9686 30.9782 43.9686 31.5797C43.9686 32.2152 43.9402 32.8706 43.8834 33.5458C43.8267 34.2154 43.7161 34.868 43.5515 35.5035C43.3926 36.139 43.1628 36.7433 42.8621 37.3165C42.567 37.8839 42.1783 38.3804 41.696 38.806C41.2137 39.2316 40.6235 39.5692 39.9256 39.8189C39.2333 40.0685 38.4077 40.1934 37.4487 40.1934C36.4954 40.1934 35.6726 40.0685 34.9803 39.8189C34.2881 39.5692 33.7008 39.2316 33.2185 38.806C32.7418 38.3804 32.3559 37.8839 32.0609 37.3165C31.7658 36.7433 31.536 36.139 31.3714 35.5035C31.2126 34.868 31.1048 34.2154 31.048 33.5458C30.9913 32.8706 30.9629 32.2152 30.9629 31.5797ZM35.1846 31.5797C35.1846 31.8974 35.1875 32.2464 35.1931 32.6266C35.2045 33.0068 35.23 33.3898 35.2697 33.7756C35.3151 34.1615 35.3832 34.536 35.474 34.8992C35.5705 35.2567 35.701 35.5744 35.8656 35.8525C36.0358 36.1305 36.2486 36.3546 36.5039 36.5249C36.7593 36.6894 37.0742 36.7717 37.4487 36.7717C37.8289 36.7717 38.1467 36.6894 38.402 36.5249C38.663 36.3546 38.8786 36.1305 39.0489 35.8525C39.2191 35.5744 39.3496 35.2567 39.4404 34.8992C39.5369 34.536 39.6078 34.1615 39.6532 33.7756C39.6986 33.3898 39.7241 33.0068 39.7298 32.6266C39.7411 32.2464 39.7468 31.8974 39.7468 31.5797C39.7468 31.2676 39.7411 30.9243 39.7298 30.5498C39.7241 30.1752 39.6986 29.7979 39.6532 29.4177C39.6078 29.0375 39.5369 28.6687 39.4404 28.3112C39.3496 27.9537 39.2191 27.6388 39.0489 27.3664C38.8786 27.0884 38.663 26.8671 38.402 26.7025C38.141 26.538 37.8232 26.4557 37.4487 26.4557C37.0799 26.4557 36.7678 26.538 36.5124 26.7025C36.2628 26.8671 36.0528 27.0884 35.8826 27.3664C35.718 27.6388 35.5875 27.9537 35.491 28.3112C35.4003 28.6687 35.3322 29.0375 35.2868 29.4177C35.2414 29.7979 35.213 30.1752 35.2016 30.5498C35.1903 30.9243 35.1846 31.2676 35.1846 31.5797Z" fill="#646464"/>
<path fill-rule="evenodd" clip-rule="evenodd" d="M33 38.5994V24.6307C33.0706 24.5592 33.1435 24.4894 33.2187 24.4214C33.701 23.9845 34.2883 23.6384 34.9806 23.383C35.6729 23.1277 36.4957 23 37.4489 23C38.4079 23 39.2335 23.1277 39.9258 23.383C40.6238 23.6384 41.2139 23.9845 41.6962 24.4214C42.1785 24.8527 42.5672 25.3549 42.8623 25.928C43.163 26.5011 43.3929 27.1054 43.5517 27.7409C43.7163 28.3765 43.8269 29.0262 43.8837 29.6901C43.9404 30.3483 43.9688 30.9782 43.9688 31.5797C43.9688 32.2152 43.9404 32.8706 43.8837 33.5458C43.8269 34.2154 43.7163 34.868 43.5517 35.5035C43.3929 36.139 43.163 36.7433 42.8623 37.3165C42.5672 37.8839 42.1785 38.3804 41.6962 38.806C41.2139 39.2316 40.6238 39.5692 39.9258 39.8189C39.2335 40.0685 38.4079 40.1934 37.4489 40.1934C36.4957 40.1934 35.6729 40.0685 34.9806 39.8189C34.2883 39.5692 33.701 39.2316 33.2187 38.806C33.1435 38.7389 33.0706 38.67 33 38.5994ZM35.1934 32.6266C35.1877 32.2464 35.1849 31.8974 35.1849 31.5797C35.1849 31.2676 35.1905 30.9243 35.2019 30.5498C35.2132 30.1752 35.2416 29.7979 35.287 29.4177C35.3324 29.0375 35.4005 28.6687 35.4913 28.3112C35.5878 27.9537 35.7183 27.6388 35.8828 27.3664C36.053 27.0884 36.263 26.8671 36.5127 26.7025C36.768 26.538 37.0801 26.4557 37.4489 26.4557C37.8235 26.4557 38.1412 26.538 38.4022 26.7025C38.6633 26.8671 38.8789 27.0884 39.0491 27.3664C39.2194 27.6388 39.3499 27.9537 39.4407 28.3112C39.5371 28.6687 39.608 29.0375 39.6534 29.4177C39.6988 29.7979 39.7244 30.1752 39.73 30.5498C39.7414 30.9243 39.7471 31.2676 39.7471 31.5797C39.7471 31.8974 39.7414 32.2464 39.73 32.6266C39.7244 33.0068 39.6988 33.3898 39.6534 33.7756C39.608 34.1615 39.5371 34.536 39.4407 34.8992C39.3499 35.2567 39.2194 35.5744 39.0491 35.8525C38.8789 36.1305 38.6633 36.3546 38.4022 36.5249C38.1469 36.6894 37.8291 36.7717 37.4489 36.7717C37.0744 36.7717 36.7595 36.6894 36.5042 36.5249C36.2488 36.3546 36.036 36.1305 35.8658 35.8525C35.7012 35.5744 35.5707 35.2567 35.4743 34.8992C35.3835 34.536 35.3154 34.1615 35.27 33.7756C35.2303 33.3898 35.2047 33.0068 35.1934 32.6266Z" fill="#303030"/>
<path d="M24.2813 28.7452C24.0316 28.87 23.7791 28.9693 23.5238 29.0431C23.2684 29.1111 23.0131 29.1651 22.7577 29.2048C22.5081 29.2388 22.2669 29.2615 22.0343 29.2729C21.8016 29.2842 21.5888 29.2899 21.3959 29.2899C20.9192 29.2899 20.5674 29.1764 20.3405 28.9494C20.1135 28.7225 20 28.3933 20 27.9621C20 27.7181 20.0255 27.5166 20.0766 27.3578C20.1333 27.1932 20.2355 27.0542 20.383 26.9407C20.5306 26.8272 20.732 26.7336 20.9873 26.6598C21.2484 26.5804 21.586 26.5066 22.0002 26.4385C22.3917 26.3704 22.735 26.2768 23.0301 26.1576C23.3309 26.0328 23.5976 25.8909 23.8302 25.7321C24.0685 25.5675 24.2785 25.3859 24.4601 25.1873C24.6473 24.9887 24.8232 24.7759 24.9878 24.5489C25.158 24.3106 25.3141 24.1007 25.4559 23.9191C25.6034 23.7375 25.7481 23.5843 25.89 23.4595C26.0375 23.3346 26.1907 23.241 26.3496 23.1786C26.5085 23.1162 26.6844 23.085 26.8773 23.085C27.3767 23.085 27.7625 23.1899 28.0349 23.3999C28.3073 23.6098 28.4435 23.939 28.4435 24.3872V38.0483C28.4435 38.4001 28.3924 38.7065 28.2903 38.9675C28.1881 39.2229 28.0434 39.4357 27.8562 39.6059C27.6746 39.7761 27.4561 39.901 27.2008 39.9804C26.9454 40.0655 26.6646 40.1081 26.3581 40.1081C26.0574 40.1081 25.7794 40.0655 25.524 39.9804C25.2687 39.901 25.0474 39.7761 24.8601 39.6059C24.6785 39.4357 24.5367 39.2229 24.4345 38.9675C24.3324 38.7065 24.2813 38.4001 24.2813 38.0483V28.7452Z" fill="#646464"/>
</svg>
