<svg width="64" height="64" viewBox="0 0 64 64" fill="none" xmlns="http://www.w3.org/2000/svg">
<path fill-rule="evenodd" clip-rule="evenodd" d="M32 47C40.2843 47 47 40.2843 47 32C47 23.7157 40.2843 17 32 17C23.7157 17 17 23.7157 17 32C17 40.2843 23.7157 47 32 47Z" fill="#EDCD4E"/>
<path d="M32 47V17C40.2843 17 47 23.7156 47 32C47 40.2844 40.2843 47 32 47Z" fill="#DCC04F"/>
<path fill-rule="evenodd" clip-rule="evenodd" d="M34.8223 31.9062C34.8223 31.4922 34.8418 31.0586 34.8809 30.6055C34.9199 30.1484 34.9941 29.7012 35.1035 29.2637C35.2168 28.8262 35.375 28.4102 35.5781 28.0156C35.7812 27.6211 36.0469 27.2754 36.375 26.9785C36.707 26.6777 37.1113 26.4395 37.5879 26.2637C38.0645 26.0879 38.6309 26 39.2871 26C39.9473 26 40.5156 26.0879 40.9922 26.2637C41.4727 26.4395 41.8789 26.6777 42.2109 26.9785C42.543 27.2754 42.8105 27.6211 43.0137 28.0156C43.2207 28.4102 43.3789 28.8262 43.4883 29.2637C43.6016 29.7012 43.6777 30.1484 43.7168 30.6055C43.7559 31.0586 43.7754 31.4922 43.7754 31.9062C43.7754 32.3438 43.7559 32.7949 43.7168 33.2598C43.6777 33.7207 43.6016 34.1699 43.4883 34.6074C43.3789 35.0449 43.2207 35.4609 43.0137 35.8555C42.8105 36.2461 42.543 36.5879 42.2109 36.8809C41.8789 37.1738 41.4727 37.4062 40.9922 37.5781C40.5156 37.75 39.9473 37.8359 39.2871 37.8359C38.6309 37.8359 38.0645 37.75 37.5879 37.5781C37.1113 37.4062 36.707 37.1738 36.375 36.8809C36.0469 36.5879 35.7812 36.2461 35.5781 35.8555C35.375 35.4609 35.2168 35.0449 35.1035 34.6074C34.9941 34.1699 34.9199 33.7207 34.8809 33.2598C34.8418 32.7949 34.8223 32.3438 34.8223 31.9062ZM37.7285 31.9062C37.7285 32.125 37.7305 32.3652 37.7344 32.627C37.7422 32.8887 37.7598 33.1523 37.7871 33.418C37.8184 33.6836 37.8652 33.9414 37.9277 34.1914C37.9941 34.4375 38.084 34.6562 38.1973 34.8477C38.3145 35.0391 38.4609 35.1934 38.6367 35.3105C38.8125 35.4238 39.0293 35.4805 39.2871 35.4805C39.5488 35.4805 39.7676 35.4238 39.9434 35.3105C40.123 35.1934 40.2715 35.0391 40.3887 34.8477C40.5059 34.6562 40.5957 34.4375 40.6582 34.1914C40.7246 33.9414 40.7734 33.6836 40.8047 33.418C40.8359 33.1523 40.8535 32.8887 40.8574 32.627C40.8652 32.3652 40.8691 32.125 40.8691 31.9062C40.8691 31.6914 40.8652 31.4551 40.8574 31.1973C40.8535 30.9395 40.8359 30.6797 40.8047 30.418C40.7734 30.1562 40.7246 29.9023 40.6582 29.6562C40.5957 29.4102 40.5059 29.1934 40.3887 29.0059C40.2715 28.8145 40.123 28.6621 39.9434 28.5488C39.7637 28.4355 39.5449 28.3789 39.2871 28.3789C39.0332 28.3789 38.8184 28.4355 38.6426 28.5488C38.4707 28.6621 38.3262 28.8145 38.209 29.0059C38.0957 29.1934 38.0059 29.4102 37.9395 29.6562C37.877 29.9023 37.8301 30.1562 37.7988 30.418C37.7676 30.6797 37.748 30.9395 37.7402 31.1973C37.7324 31.4551 37.7285 31.6914 37.7285 31.9062ZM28.6641 28.5605L28.3066 30.5645C28.5176 30.4473 28.707 30.3516 28.875 30.2773C29.0469 30.2031 29.2148 30.1465 29.3789 30.1074C29.543 30.0645 29.7148 30.0352 29.8945 30.0195C30.0742 30.0039 30.2812 29.9961 30.5156 29.9961C30.8203 29.9961 31.1211 30.0254 31.418 30.084C31.7188 30.1426 32.002 30.2344 32.2676 30.3594C32.5371 30.4805 32.7852 30.6387 33.0117 30.834C33.2383 31.0254 33.4336 31.2559 33.5977 31.5254C33.7656 31.7949 33.8965 32.1055 33.9902 32.457C34.084 32.8047 34.1309 33.1973 34.1309 33.6348C34.1309 34.127 34.0742 34.5703 33.9609 34.9648C33.8477 35.3594 33.6855 35.7109 33.4746 36.0195C33.2676 36.3242 33.0156 36.5879 32.7188 36.8105C32.4258 37.0293 32.0977 37.2109 31.7344 37.3555C31.375 37.4961 30.9863 37.5996 30.5684 37.666C30.1504 37.7363 29.7148 37.7715 29.2617 37.7715C29.0273 37.7715 28.7734 37.7578 28.5 37.7305C28.2305 37.707 27.959 37.6641 27.6855 37.6016C27.4121 37.5391 27.1484 37.457 26.8945 37.3555C26.6406 37.25 26.4141 37.1172 26.2148 36.957C26.0195 36.7969 25.8633 36.6074 25.7461 36.3887C25.6289 36.1699 25.5703 35.9141 25.5703 35.6211C25.5703 35.418 25.6094 35.2363 25.6875 35.0762C25.7656 34.9121 25.8711 34.7734 26.0039 34.6602C26.1406 34.5469 26.2988 34.459 26.4785 34.3965C26.6582 34.334 26.8516 34.3027 27.0586 34.3027C27.2539 34.3027 27.4219 34.3301 27.5625 34.3848C27.707 34.4395 27.8379 34.5078 27.9551 34.5898C28.0762 34.6719 28.1895 34.7598 28.2949 34.8535C28.4004 34.9473 28.5137 35.0352 28.6348 35.1172C28.7559 35.1992 28.8887 35.2676 29.0332 35.3223C29.1816 35.377 29.3555 35.4043 29.5547 35.4043C29.8281 35.4043 30.0664 35.3574 30.2695 35.2637C30.4727 35.1699 30.6406 35.0449 30.7734 34.8887C30.9062 34.7285 31.0039 34.5469 31.0664 34.3438C31.1328 34.1367 31.166 33.9219 31.166 33.6992C31.166 33.4375 31.123 33.2051 31.0371 33.002C30.9551 32.7949 30.8418 32.6211 30.6973 32.4805C30.5527 32.3398 30.3848 32.2344 30.1934 32.1641C30.002 32.0898 29.7988 32.0527 29.584 32.0527C29.3613 32.0527 29.1602 32.0859 28.9805 32.1523C28.8008 32.2188 28.6191 32.293 28.4355 32.375C28.252 32.4531 28.0547 32.5254 27.8438 32.5918C27.6367 32.6582 27.3965 32.6914 27.123 32.6914C26.9863 32.6914 26.834 32.6738 26.666 32.6387C26.498 32.5996 26.3398 32.5293 26.1914 32.4277C26.043 32.3223 25.918 32.1797 25.8164 32C25.7148 31.8203 25.6641 31.5879 25.6641 31.3027C25.6641 31.1895 25.6719 31.041 25.6875 30.8574C25.707 30.6738 25.7324 30.4727 25.7637 30.2539C25.7949 30.0312 25.8301 29.7969 25.8691 29.5508C25.9082 29.3047 25.9473 29.0645 25.9863 28.8301C26.0293 28.5918 26.0703 28.3652 26.1094 28.1504C26.1484 27.9355 26.1855 27.7461 26.2207 27.582C26.2754 27.3086 26.3477 27.082 26.4375 26.9023C26.5312 26.7227 26.6465 26.5801 26.7832 26.4746C26.9199 26.3652 27.084 26.2891 27.2754 26.2461C27.4707 26.2031 27.6992 26.1816 27.9609 26.1816L32.2441 26.1875C32.666 26.1875 32.9824 26.293 33.1934 26.5039C33.4082 26.7109 33.5156 26.998 33.5156 27.3652C33.5156 27.7324 33.4082 28.0234 33.1934 28.2383C32.9824 28.4531 32.666 28.5605 32.2441 28.5605H28.6641ZM21.1172 35.6738C21.0391 35.8574 21 36.0527 21 36.2598C21 36.4668 21.0391 36.6621 21.1172 36.8457C21.1953 37.0293 21.3008 37.1895 21.4336 37.3262C21.5703 37.459 21.7305 37.5645 21.9141 37.6426C22.0977 37.7207 22.293 37.7598 22.5 37.7598C22.707 37.7598 22.9023 37.7207 23.0859 37.6426C23.2695 37.5645 23.4277 37.459 23.5605 37.3262C23.6973 37.1895 23.8047 37.0293 23.8828 36.8457C23.9609 36.6621 24 36.4668 24 36.2598C24 36.0527 23.9609 35.8574 23.8828 35.6738C23.8047 35.4902 23.6973 35.332 23.5605 35.1992C23.4277 35.0625 23.2695 34.9551 23.0859 34.877C22.9023 34.7988 22.707 34.7598 22.5 34.7598C22.293 34.7598 22.0977 34.7988 21.9141 34.877C21.7305 34.9551 21.5703 35.0625 21.4336 35.1992C21.3008 35.332 21.1953 35.4902 21.1172 35.6738Z" fill="#646464"/>
<path d="M32 37.2402C32.2594 37.1179 32.499 36.9747 32.7188 36.8105C33.0156 36.5879 33.2676 36.3242 33.4746 36.0195C33.6855 35.7109 33.8477 35.3594 33.9609 34.9648C34.0742 34.5703 34.1309 34.127 34.1309 33.6348C34.1309 33.1973 34.084 32.8047 33.9902 32.457C33.8965 32.1055 33.7656 31.7949 33.5977 31.5254C33.4336 31.2559 33.2383 31.0254 33.0117 30.834C32.7852 30.6387 32.5371 30.4805 32.2676 30.3594C32.1803 30.3183 32.0911 30.2808 32 30.2469V37.2402Z" fill="#303030"/>
<path d="M32 28.5605V26.1872L32.2441 26.1875C32.666 26.1875 32.9824 26.293 33.1934 26.5039C33.4082 26.7109 33.5156 26.998 33.5156 27.3652C33.5156 27.7324 33.4082 28.0234 33.1934 28.2383C32.9824 28.4531 32.666 28.5605 32.2441 28.5605H32Z" fill="#303030"/>
<path fill-rule="evenodd" clip-rule="evenodd" d="M34.8223 31.9062C34.8223 31.4922 34.8418 31.0586 34.8809 30.6055C34.9199 30.1484 34.9941 29.7012 35.1035 29.2637C35.2168 28.8262 35.375 28.4102 35.5781 28.0156C35.7812 27.6211 36.0469 27.2754 36.375 26.9785C36.707 26.6777 37.1113 26.4395 37.5879 26.2637C38.0645 26.0879 38.6309 26 39.2871 26C39.9473 26 40.5156 26.0879 40.9922 26.2637C41.4727 26.4395 41.8789 26.6777 42.2109 26.9785C42.543 27.2754 42.8105 27.6211 43.0137 28.0156C43.2207 28.4102 43.3789 28.8262 43.4883 29.2637C43.6016 29.7012 43.6777 30.1484 43.7168 30.6055C43.7559 31.0586 43.7754 31.4922 43.7754 31.9062C43.7754 32.3438 43.7559 32.7949 43.7168 33.2598C43.6777 33.7207 43.6016 34.1699 43.4883 34.6074C43.3789 35.0449 43.2207 35.4609 43.0137 35.8555C42.8105 36.2461 42.543 36.5879 42.2109 36.8809C41.8789 37.1738 41.4727 37.4062 40.9922 37.5781C40.5156 37.75 39.9473 37.8359 39.2871 37.8359C38.6309 37.8359 38.0645 37.75 37.5879 37.5781C37.1113 37.4062 36.707 37.1738 36.375 36.8809C36.0469 36.5879 35.7812 36.2461 35.5781 35.8555C35.375 35.4609 35.2168 35.0449 35.1035 34.6074C34.9941 34.1699 34.9199 33.7207 34.8809 33.2598C34.8418 32.7949 34.8223 32.3438 34.8223 31.9062ZM37.7285 31.9062C37.7285 32.125 37.7305 32.3652 37.7344 32.627C37.7422 32.8887 37.7598 33.1523 37.7871 33.418C37.8184 33.6836 37.8652 33.9414 37.9277 34.1914C37.9941 34.4375 38.084 34.6562 38.1973 34.8477C38.3145 35.0391 38.4609 35.1934 38.6367 35.3105C38.8125 35.4238 39.0293 35.4805 39.2871 35.4805C39.5488 35.4805 39.7676 35.4238 39.9434 35.3105C40.123 35.1934 40.2715 35.0391 40.3887 34.8477C40.5059 34.6562 40.5957 34.4375 40.6582 34.1914C40.7246 33.9414 40.7734 33.6836 40.8047 33.418C40.8359 33.1523 40.8535 32.8887 40.8574 32.627C40.8652 32.3652 40.8691 32.125 40.8691 31.9062C40.8691 31.6914 40.8652 31.4551 40.8574 31.1973C40.8535 30.9395 40.8359 30.6797 40.8047 30.418C40.7734 30.1562 40.7246 29.9023 40.6582 29.6562C40.5957 29.4102 40.5059 29.1934 40.3887 29.0059C40.2715 28.8145 40.123 28.6621 39.9434 28.5488C39.7637 28.4355 39.5449 28.3789 39.2871 28.3789C39.0332 28.3789 38.8184 28.4355 38.6426 28.5488C38.4707 28.6621 38.3262 28.8145 38.209 29.0059C38.0957 29.1934 38.0059 29.4102 37.9395 29.6562C37.877 29.9023 37.8301 30.1562 37.7988 30.418C37.7676 30.6797 37.748 30.9395 37.7402 31.1973C37.7324 31.4551 37.7285 31.6914 37.7285 31.9062Z" fill="#303030"/>
</svg>
