<svg width="64" height="64" viewBox="0 0 64 64" fill="none" xmlns="http://www.w3.org/2000/svg">
<path fill-rule="evenodd" clip-rule="evenodd" d="M32 45C39.1797 45 45 39.1797 45 32C45 24.8203 39.1797 19 32 19C24.8203 19 19 24.8203 19 32C19 39.1797 24.8203 45 32 45Z" fill="#EDCD4E"/>
<path d="M32 45V19C39.1797 19 45 24.8202 45 32C45 39.1798 39.1797 45 32 45Z" fill="#DCC04F"/>
<path d="M32.6541 35.1365C33.0125 35.1365 33.271 35.2278 33.4295 35.4104C33.5915 35.5931 33.6725 35.8498 33.6725 36.1807C33.6725 36.5115 33.5915 36.7682 33.4295 36.9509C33.271 37.1335 33.0125 37.2249 32.6541 37.2249H26.8076C26.6491 37.2249 26.5061 37.1973 26.3786 37.1422C26.2545 37.0836 26.1477 37.006 26.0581 36.9095C25.9719 36.813 25.9047 36.7028 25.8565 36.5787C25.8117 36.4546 25.7893 36.3254 25.7893 36.191C25.7893 36.0566 25.8031 35.9256 25.8306 35.7981C25.8582 35.6706 25.9082 35.5397 25.9806 35.4053C26.0529 35.2674 26.1546 35.1227 26.2855 34.9711C26.4165 34.816 26.5836 34.6454 26.787 34.4593C26.9937 34.2698 27.2436 34.0595 27.5365 33.8286C27.8294 33.5977 28.1758 33.3358 28.5755 33.0429C28.9339 32.7879 29.2424 32.5604 29.5008 32.3606C29.7593 32.1572 29.9781 31.9746 30.1573 31.8126C30.34 31.6506 30.4865 31.5059 30.5967 31.3784C30.707 31.2474 30.7914 31.1251 30.85 31.0114C30.9121 30.8942 30.9534 30.7822 30.9741 30.6754C30.9948 30.5685 31.0051 30.4565 31.0051 30.3394C31.0051 30.1223 30.9706 29.9293 30.9017 29.7604C30.8362 29.5915 30.7397 29.4485 30.6122 29.3314C30.4847 29.2107 30.3314 29.1194 30.1522 29.0574C29.973 28.9953 29.7696 28.9643 29.5422 28.9643C29.3389 28.9643 29.1631 28.9988 29.0149 29.0677C28.8702 29.1332 28.7444 29.2211 28.6376 29.3314C28.5342 29.4416 28.4463 29.5674 28.3739 29.7087C28.3016 29.85 28.2378 29.9947 28.1827 30.1429C28.1413 30.2567 28.0931 30.3652 28.0379 30.4686C27.9862 30.5685 27.919 30.6581 27.8363 30.7374C27.7571 30.8132 27.6588 30.8752 27.5417 30.9235C27.4245 30.9683 27.2815 30.9907 27.1126 30.9907C26.8886 30.9907 26.6991 30.9614 26.544 30.9028C26.3924 30.8408 26.2683 30.7546 26.1718 30.6444C26.0788 30.5341 26.0098 30.4031 25.965 30.2515C25.9237 30.0999 25.903 29.9327 25.903 29.7501C25.903 29.5295 25.9375 29.309 26.0064 29.0884C26.0788 28.8644 26.1856 28.6507 26.3269 28.4474C26.4682 28.2406 26.6422 28.0494 26.849 27.8736C27.0592 27.6979 27.3022 27.5462 27.5779 27.4187C27.8536 27.2878 28.162 27.1861 28.5032 27.1137C28.8478 27.0379 29.2234 27 29.6301 27C30.116 27 30.5502 27.0431 30.9327 27.1292C31.3187 27.2154 31.6564 27.3343 31.9459 27.4859C32.2388 27.6341 32.487 27.8099 32.6903 28.0132C32.8971 28.2165 33.0642 28.4371 33.1917 28.6749C33.3227 28.9092 33.4174 29.1556 33.476 29.4141C33.5346 29.6725 33.5639 29.931 33.5639 30.1895C33.5639 30.4755 33.5381 30.7443 33.4864 30.9959C33.4381 31.2474 33.3554 31.4869 33.2382 31.7144C33.1245 31.9418 32.9729 32.1607 32.7833 32.3709C32.5938 32.5811 32.3595 32.7913 32.0803 33.0016L29.2165 35.1365H32.6541Z" fill="#646464"/>
<path d="M37.1772 29.212L36.8619 30.9799C37.048 30.8765 37.2152 30.7921 37.3633 30.7266C37.515 30.6611 37.6632 30.6112 37.8079 30.5767C37.9526 30.5388 38.1043 30.513 38.2628 30.4992C38.4213 30.4854 38.604 30.4785 38.8107 30.4785C39.0795 30.4785 39.3449 30.5043 39.6068 30.556C39.8722 30.6077 40.122 30.6887 40.3564 30.799C40.5941 30.9058 40.813 31.0454 41.0129 31.2177C41.2127 31.3866 41.385 31.5899 41.5298 31.8277C41.678 32.0655 41.7934 32.3394 41.8761 32.6496C41.9588 32.9563 42.0002 33.3026 42.0002 33.6886C42.0002 34.1228 41.9502 34.514 41.8503 34.8621C41.7503 35.2101 41.6073 35.5203 41.4212 35.7925C41.2386 36.0613 41.0163 36.2939 40.7544 36.4904C40.4959 36.6834 40.2065 36.8436 39.886 36.9711C39.5689 37.0952 39.226 37.1865 38.8573 37.2451C38.4885 37.3071 38.1043 37.3381 37.7045 37.3381C37.4977 37.3381 37.2737 37.3261 37.0325 37.302C36.7947 37.2813 36.5552 37.2434 36.314 37.1882C36.0727 37.1331 35.8401 37.0607 35.6161 36.9711C35.3921 36.8781 35.1922 36.7609 35.0165 36.6196C34.8442 36.4783 34.7063 36.3112 34.6029 36.1182C34.4995 35.9252 34.4479 35.6995 34.4479 35.441C34.4479 35.2618 34.4823 35.1016 34.5512 34.9603C34.6202 34.8155 34.7132 34.6932 34.8304 34.5933C34.951 34.4933 35.0906 34.4158 35.2491 34.3606C35.4076 34.3055 35.5782 34.2779 35.7609 34.2779C35.9332 34.2779 36.0814 34.302 36.2054 34.3503C36.3329 34.3985 36.4484 34.4588 36.5518 34.5312C36.6586 34.6036 36.7585 34.6811 36.8516 34.7638C36.9446 34.8465 37.0446 34.9241 37.1514 34.9965C37.2582 35.0688 37.3754 35.1291 37.5029 35.1774C37.6339 35.2256 37.7872 35.2498 37.963 35.2498C38.2042 35.2498 38.4144 35.2084 38.5936 35.1257C38.7728 35.043 38.921 34.9327 39.0382 34.7949C39.1554 34.6536 39.2415 34.4933 39.2967 34.3141C39.3552 34.1315 39.3845 33.9419 39.3845 33.7455C39.3845 33.5146 39.3466 33.3095 39.2708 33.1303C39.1984 32.9477 39.0985 32.7943 38.971 32.6703C38.8435 32.5462 38.6953 32.4532 38.5264 32.3911C38.3576 32.3257 38.1784 32.2929 37.9888 32.2929C37.7924 32.2929 37.6149 32.3222 37.4564 32.3808C37.2979 32.4394 37.1376 32.5049 36.9756 32.5772C36.8137 32.6461 36.6396 32.7099 36.4535 32.7685C36.2709 32.8271 36.059 32.8564 35.8177 32.8564C35.6971 32.8564 35.5627 32.8409 35.4145 32.8098C35.2663 32.7754 35.1268 32.7134 34.9958 32.6237C34.8648 32.5307 34.7546 32.4049 34.665 32.2464C34.5754 32.0879 34.5306 31.8828 34.5306 31.6312C34.5306 31.5313 34.5375 31.4003 34.5512 31.2384C34.5685 31.0764 34.5909 30.8989 34.6184 30.7059C34.646 30.5095 34.677 30.3027 34.7115 30.0856C34.746 29.8685 34.7804 29.6566 34.8149 29.4498C34.8528 29.2396 34.889 29.0397 34.9234 28.8502C34.9579 28.6606 34.9906 28.4935 35.0216 28.3487C35.0699 28.1075 35.1336 27.9076 35.2129 27.7491C35.2956 27.5906 35.3973 27.4648 35.5179 27.3717C35.6385 27.2753 35.7833 27.2081 35.9521 27.1701C36.1244 27.1322 36.326 27.1133 36.5569 27.1133L40.3357 27.1185C40.7079 27.1185 40.987 27.2115 41.1731 27.3976C41.3626 27.5802 41.4574 27.8335 41.4574 28.1575C41.4574 28.4814 41.3626 28.7382 41.1731 28.9277C40.987 29.1172 40.7079 29.212 40.3357 29.212H37.1772Z" fill="#646464"/>
<path d="M22.4569 35.4881C22.388 35.65 22.3535 35.8223 22.3535 36.005C22.3535 36.1876 22.388 36.3599 22.4569 36.5219C22.5258 36.6839 22.6189 36.8252 22.736 36.9458C22.8567 37.063 22.998 37.156 23.1599 37.2249C23.3219 37.2939 23.4942 37.3283 23.6769 37.3283C23.8595 37.3283 24.0318 37.2939 24.1938 37.2249C24.3558 37.156 24.4953 37.063 24.6125 36.9458C24.7331 36.8252 24.8279 36.6839 24.8968 36.5219C24.9657 36.3599 25.0002 36.1876 25.0002 36.005C25.0002 35.8223 24.9657 35.65 24.8968 35.4881C24.8279 35.3261 24.7331 35.1865 24.6125 35.0693C24.4953 34.9487 24.3558 34.854 24.1938 34.785C24.0318 34.7161 23.8595 34.6816 23.6769 34.6816C23.4942 34.6816 23.3219 34.7161 23.1599 34.785C22.998 34.854 22.8567 34.9487 22.736 35.0693C22.6189 35.1865 22.5258 35.3261 22.4569 35.4881Z" fill="#646464"/>
<path d="M32 37.2249H32.6539C33.0123 37.2249 33.2708 37.1335 33.4293 36.9509C33.5913 36.7682 33.6723 36.5115 33.6723 36.1807C33.6723 35.8498 33.5913 35.5931 33.4293 35.4104C33.2708 35.2278 33.0123 35.1365 32.6539 35.1365H32V37.2249Z" fill="#303030"/>
<path d="M32 33.0613V27.5139C32.2694 27.6561 32.4995 27.8225 32.6901 28.0132C32.8969 28.2165 33.064 28.4371 33.1915 28.6749C33.3225 28.9092 33.4172 29.1556 33.4758 29.4141C33.5344 29.6725 33.5637 29.931 33.5637 30.1895C33.5637 30.4755 33.5379 30.7443 33.4862 30.9958C33.4379 31.2474 33.3552 31.4869 33.238 31.7144C33.1243 31.9418 32.9727 32.1607 32.7831 32.3709C32.5936 32.5811 32.3593 32.7913 32.0801 33.0016L32 33.0613Z" fill="#303030"/>
<path d="M37.1771 29.212L36.8617 30.9799C36.8994 30.959 36.9363 30.9388 36.9724 30.9195C37.1147 30.8431 37.245 30.7788 37.3632 30.7266C37.5148 30.6611 37.663 30.6112 37.8077 30.5767C37.9525 30.5388 38.1041 30.5129 38.2626 30.4992C38.4211 30.4854 38.6038 30.4785 38.8105 30.4785C39.0793 30.4785 39.3447 30.5043 39.6066 30.556C39.872 30.6077 40.1218 30.6887 40.3562 30.799C40.594 30.9058 40.8128 31.0454 41.0127 31.2177C41.2126 31.3866 41.3849 31.5899 41.5296 31.8277C41.6778 32.0655 41.7932 32.3394 41.8759 32.6496C41.9586 32.9563 42 33.3026 42 33.6886C42 34.1228 41.95 34.514 41.8501 34.8621C41.7502 35.2101 41.6071 35.5203 41.4211 35.7925C41.2384 36.0613 41.0161 36.2939 40.7542 36.4904C40.4957 36.6834 40.2063 36.8436 39.8858 36.9711C39.5687 37.0952 39.2258 37.1865 38.8571 37.2451C38.4883 37.3071 38.1041 37.3381 37.7043 37.3381C37.4976 37.3381 37.2735 37.3261 37.0323 37.302C36.7945 37.2813 36.555 37.2434 36.3138 37.1882C36.0725 37.1331 35.8399 37.0607 35.6159 36.9711C35.3919 36.8781 35.192 36.7609 35.0163 36.6196C34.844 36.4783 34.7061 36.3112 34.6028 36.1182C34.4994 35.9252 34.4477 35.6995 34.4477 35.441C34.4477 35.2618 34.4821 35.1016 34.5511 34.9603C34.62 34.8155 34.713 34.6932 34.8302 34.5933C34.9508 34.4933 35.0904 34.4158 35.2489 34.3606C35.4074 34.3055 35.578 34.2779 35.7607 34.2779C35.933 34.2779 36.0811 34.302 36.2052 34.3503C36.3327 34.3985 36.4482 34.4589 36.5516 34.5312C36.6584 34.6036 36.7583 34.6811 36.8514 34.7638C36.9444 34.8466 37.0444 34.9241 37.1512 34.9965C37.258 35.0688 37.3752 35.1291 37.5027 35.1774C37.6337 35.2256 37.787 35.2498 37.9628 35.2498C38.204 35.2498 38.4142 35.2084 38.5934 35.1257C38.7726 35.043 38.9208 34.9327 39.038 34.7949C39.1552 34.6536 39.2413 34.4933 39.2964 34.3141C39.355 34.1315 39.3843 33.9419 39.3843 33.7455C39.3843 33.5146 39.3464 33.3095 39.2706 33.1303C39.1982 32.9477 39.0983 32.7943 38.9708 32.6703C38.8433 32.5462 38.6951 32.4532 38.5262 32.3911C38.3574 32.3257 38.1782 32.2929 37.9886 32.2929C37.7922 32.2929 37.6147 32.3222 37.4562 32.3808C37.2977 32.4394 37.1374 32.5049 36.9754 32.5772C36.8135 32.6461 36.6394 32.7099 36.4533 32.7685C36.2707 32.8271 36.0587 32.8564 35.8175 32.8564C35.6969 32.8564 35.5625 32.8409 35.4143 32.8098C35.343 32.7932 35.2736 32.7703 35.2062 32.7409C35.1337 32.7092 35.0635 32.6702 34.9956 32.6237C34.8647 32.5307 34.7544 32.4049 34.6648 32.2464C34.5752 32.0879 34.5304 31.8828 34.5304 31.6313C34.5304 31.5313 34.5373 31.4004 34.5511 31.2384C34.5683 31.0764 34.5907 30.8989 34.6183 30.7059C34.6458 30.5095 34.6768 30.3027 34.7113 30.0856C34.7458 29.8685 34.7802 29.6566 34.8147 29.4498C34.8526 29.2396 34.8888 29.0397 34.9232 28.8502C34.9465 28.7224 34.9689 28.6049 34.9906 28.4975L35.0056 28.4238L35.0215 28.3488C35.0697 28.1075 35.1335 27.9076 35.2127 27.7491C35.2954 27.5906 35.3971 27.4648 35.5177 27.3717C35.6383 27.2752 35.7831 27.208 35.9519 27.1701C36.1242 27.1322 36.3258 27.1133 36.5567 27.1133L40.3355 27.1184C40.7077 27.1184 40.9868 27.2115 41.1729 27.3976C41.3625 27.5802 41.4572 27.8335 41.4572 28.1575C41.4572 28.4814 41.3625 28.7382 41.1729 28.9277C40.9868 29.1172 40.7077 29.212 40.3355 29.212H37.1771Z" fill="#303030"/>
</svg>
