<svg width="112" height="208" viewBox="0 0 112 208" fill="none" xmlns="http://www.w3.org/2000/svg">
<rect x="0.5" y="0.5" width="111" height="207" rx="4.5" stroke="#9747FF" stroke-dasharray="10 5"/>
<g filter="url(#filter0_dd_29753_11840)">
<rect x="16" y="16" width="80" height="80" rx="8" fill="white"/>
</g>
<path d="M79.8636 83.9993H59.7727C58.7942 83.9993 58 83.2095 58 82.2363V50.5024C58 49.9712 58.2411 49.4681 58.6547 49.1343C59.0684 48.7982 59.6096 48.6666 60.1344 48.777L80.7382 53.0693C82.6669 53.4948 84 55.145 84 57.089V79.8857C84 82.1541 82.1445 83.9993 79.8636 83.9993Z" fill="#0965CD"/>
<path d="M61.5454 49.0693V83.9978H59.7727H72.1818V51.286L61.5454 49.0693Z" fill="#157DF5"/>
<path d="M58.4033 31.9773L32.76 28.0517C31.57 27.8637 30.3567 28.1928 29.4467 28.9685C28.5367 29.7677 28 30.9195 28 32.1184V81.6468C28 82.9396 29.05 83.9974 30.3333 83.9974H37.9167V74.6787C37.9167 72.3986 39.7367 70.5651 42 70.5651H47.8333C50.0967 70.5651 51.9167 72.3986 51.9167 74.6787V83.9974H61.8333V36.044C61.8333 34.0224 60.3867 32.3064 58.4033 31.9773Z" fill="#B6D7FC"/>
<path d="M51.9167 74.6815V84.0002H37.9167V74.6815C37.9167 72.4014 39.7367 70.5679 42.0001 70.5679H47.8334C50.0967 70.5679 51.9167 72.4014 51.9167 74.6815Z" fill="#0965CD"/>
<path d="M32.102 28C31.1337 28 30.1887 28.3361 29.4467 28.9685C28.5367 29.7677 28 30.9195 28 32.1184V81.6468C28 82.9396 29.05 83.9974 30.3333 83.9974H37.9167V74.6787C37.9167 72.3986 39.7367 70.5651 42 70.5651H44.9167V29.9134L32.76 28.0517C32.5407 28.0165 32.3213 28 32.102 28Z" fill="#E2EFFE"/>
<path d="M39.1305 38.6646H34.8695C34.3893 38.6646 34 39.0567 34 39.5405V43.8331C34 44.3169 34.3893 44.7091 34.8695 44.7091H39.1305C39.6107 44.7091 40 44.3169 40 43.8331V39.5405C40 39.0567 39.6107 38.6646 39.1305 38.6646Z" fill="#40D98D"/>
<path d="M39.1305 48.7388H34.8695C34.3893 48.7388 34 49.131 34 49.6147V53.9074C34 54.3911 34.3893 54.7833 34.8695 54.7833H39.1305C39.6107 54.7833 40 54.3911 40 53.9074V49.6147C40 49.131 39.6107 48.7388 39.1305 48.7388Z" fill="#157DF5"/>
<path d="M68.1305 59.8203H63.8695C63.3893 59.8203 63 60.2125 63 60.6963V64.9889C63 65.4727 63.3893 65.8649 63.8695 65.8649H68.1305C68.6107 65.8649 69 65.4727 69 64.9889V60.6963C69 60.2125 68.6107 59.8203 68.1305 59.8203Z" fill="#40D98D"/>
<path d="M80.1305 59.8203H75.8695C75.3893 59.8203 75 60.2125 75 60.6963V64.9889C75 65.4727 75.3893 65.8649 75.8695 65.8649H80.1305C80.6107 65.8649 81 65.4727 81 64.9889V60.6963C81 60.2125 80.6107 59.8203 80.1305 59.8203Z" fill="#E2EFFE"/>
<path d="M68.1305 69.8945H63.8695C63.3893 69.8945 63 70.2867 63 70.7705V75.0631C63 75.5469 63.3893 75.9391 63.8695 75.9391H68.1305C68.6107 75.9391 69 75.5469 69 75.0631V70.7705C69 70.2867 68.6107 69.8945 68.1305 69.8945Z" fill="#F0F7FE"/>
<path d="M80.1305 69.8945H75.8695C75.3893 69.8945 75 70.2867 75 70.7705V75.0631C75 75.5469 75.3893 75.9391 75.8695 75.9391H80.1305C80.6107 75.9391 81 75.5469 81 75.0631V70.7705C81 70.2867 80.6107 69.8945 80.1305 69.8945Z" fill="#25BB71"/>
<path d="M39.1305 59.8203H34.8695C34.3893 59.8203 34 60.2125 34 60.6963V64.9889C34 65.4727 34.3893 65.8649 34.8695 65.8649H39.1305C39.6107 65.8649 40 65.4727 40 64.9889V60.6963C40 60.2125 39.6107 59.8203 39.1305 59.8203Z" fill="#157DF5"/>
<path d="M55.1305 38.6646H50.8695C50.3893 38.6646 50 39.0567 50 39.5405V43.8331C50 44.3169 50.3893 44.7091 50.8695 44.7091H55.1305C55.6107 44.7091 56 44.3169 56 43.8331V39.5405C56 39.0567 55.6107 38.6646 55.1305 38.6646Z" fill="#157DF5"/>
<path d="M55.1305 48.7388H50.8695C50.3893 48.7388 50 49.131 50 49.6147V53.9074C50 54.3911 50.3893 54.7833 50.8695 54.7833H55.1305C55.6107 54.7833 56 54.3911 56 53.9074V49.6147C56 49.131 55.6107 48.7388 55.1305 48.7388Z" fill="#157DF5"/>
<path d="M55.1305 59.8203H50.8695C50.3893 59.8203 50 60.2125 50 60.6963V64.9889C50 65.4727 50.3893 65.8649 50.8695 65.8649H55.1305C55.6107 65.8649 56 65.4727 56 64.9889V60.6963C56 60.2125 55.6107 59.8203 55.1305 59.8203Z" fill="#25BB71"/>
<path d="M44.9167 70.5679H42.0001C39.7367 70.5679 37.9167 72.4014 37.9167 74.6815V84.0002H44.9167V70.5679Z" fill="#157DF5"/>
<path d="M79.8636 179.999H59.7727C58.7942 179.999 58 179.209 58 178.236V146.502C58 145.971 58.2411 145.468 58.6547 145.134C59.0684 144.798 59.6096 144.667 60.1344 144.777L80.7382 149.069C82.6669 149.495 84 151.145 84 153.089V175.886C84 178.154 82.1445 179.999 79.8636 179.999Z" fill="#0965CD"/>
<path d="M61.5454 145.069V179.998H59.7727H72.1818V147.286L61.5454 145.069Z" fill="#157DF5"/>
<path d="M58.4033 127.977L32.76 124.052C31.57 123.864 30.3567 124.193 29.4467 124.968C28.5367 125.768 28 126.92 28 128.118V177.647C28 178.94 29.05 179.997 30.3333 179.997H37.9167V170.679C37.9167 168.399 39.7367 166.565 42 166.565H47.8333C50.0967 166.565 51.9167 168.399 51.9167 170.679V179.997H61.8333V132.044C61.8333 130.022 60.3867 128.306 58.4033 127.977Z" fill="#B6D7FC"/>
<path d="M51.9167 170.682V180H37.9167V170.682C37.9167 168.401 39.7367 166.568 42.0001 166.568H47.8334C50.0967 166.568 51.9167 168.401 51.9167 170.682Z" fill="#0965CD"/>
<path d="M32.102 124C31.1337 124 30.1887 124.336 29.4467 124.968C28.5367 125.768 28 126.92 28 128.118V177.647C28 178.94 29.05 179.997 30.3333 179.997H37.9167V170.679C37.9167 168.399 39.7367 166.565 42 166.565H44.9167V125.913L32.76 124.052C32.5407 124.016 32.3213 124 32.102 124Z" fill="#E2EFFE"/>
<path d="M39.1305 134.665H34.8695C34.3893 134.665 34 135.057 34 135.541V139.833C34 140.317 34.3893 140.709 34.8695 140.709H39.1305C39.6107 140.709 40 140.317 40 139.833V135.541C40 135.057 39.6107 134.665 39.1305 134.665Z" fill="#40D98D"/>
<path d="M39.1305 144.739H34.8695C34.3893 144.739 34 145.131 34 145.615V149.907C34 150.391 34.3893 150.783 34.8695 150.783H39.1305C39.6107 150.783 40 150.391 40 149.907V145.615C40 145.131 39.6107 144.739 39.1305 144.739Z" fill="#157DF5"/>
<path d="M68.1305 155.82H63.8695C63.3893 155.82 63 156.213 63 156.696V160.989C63 161.473 63.3893 161.865 63.8695 161.865H68.1305C68.6107 161.865 69 161.473 69 160.989V156.696C69 156.213 68.6107 155.82 68.1305 155.82Z" fill="#40D98D"/>
<path d="M80.1305 155.82H75.8695C75.3893 155.82 75 156.213 75 156.696V160.989C75 161.473 75.3893 161.865 75.8695 161.865H80.1305C80.6107 161.865 81 161.473 81 160.989V156.696C81 156.213 80.6107 155.82 80.1305 155.82Z" fill="#E2EFFE"/>
<path d="M68.1305 165.895H63.8695C63.3893 165.895 63 166.287 63 166.77V171.063C63 171.547 63.3893 171.939 63.8695 171.939H68.1305C68.6107 171.939 69 171.547 69 171.063V166.77C69 166.287 68.6107 165.895 68.1305 165.895Z" fill="#F0F7FE"/>
<path d="M80.1305 165.895H75.8695C75.3893 165.895 75 166.287 75 166.77V171.063C75 171.547 75.3893 171.939 75.8695 171.939H80.1305C80.6107 171.939 81 171.547 81 171.063V166.77C81 166.287 80.6107 165.895 80.1305 165.895Z" fill="#25BB71"/>
<path d="M39.1305 155.82H34.8695C34.3893 155.82 34 156.213 34 156.696V160.989C34 161.473 34.3893 161.865 34.8695 161.865H39.1305C39.6107 161.865 40 161.473 40 160.989V156.696C40 156.213 39.6107 155.82 39.1305 155.82Z" fill="#157DF5"/>
<path d="M55.1305 134.665H50.8695C50.3893 134.665 50 135.057 50 135.541V139.833C50 140.317 50.3893 140.709 50.8695 140.709H55.1305C55.6107 140.709 56 140.317 56 139.833V135.541C56 135.057 55.6107 134.665 55.1305 134.665Z" fill="#157DF5"/>
<path d="M55.1305 144.739H50.8695C50.3893 144.739 50 145.131 50 145.615V149.907C50 150.391 50.3893 150.783 50.8695 150.783H55.1305C55.6107 150.783 56 150.391 56 149.907V145.615C56 145.131 55.6107 144.739 55.1305 144.739Z" fill="#157DF5"/>
<path d="M55.1305 155.82H50.8695C50.3893 155.82 50 156.213 50 156.696V160.989C50 161.473 50.3893 161.865 50.8695 161.865H55.1305C55.6107 161.865 56 161.473 56 160.989V156.696C56 156.213 55.6107 155.82 55.1305 155.82Z" fill="#25BB71"/>
<path d="M44.9167 166.568H42.0001C39.7367 166.568 37.9167 168.401 37.9167 170.682V180H44.9167V166.568Z" fill="#157DF5"/>
<defs>
<filter id="filter0_dd_29753_11840" x="6" y="9" width="100" height="100" filterUnits="userSpaceOnUse" color-interpolation-filters="sRGB">
<feFlood flood-opacity="0" result="BackgroundImageFix"/>
<feColorMatrix in="SourceAlpha" type="matrix" values="0 0 0 0 0 0 0 0 0 0 0 0 0 0 0 0 0 0 127 0" result="hardAlpha"/>
<feOffset dy="3"/>
<feGaussianBlur stdDeviation="5"/>
<feColorMatrix type="matrix" values="0 0 0 0 0.516667 0 0 0 0 0.578358 0 0 0 0 0.775 0 0 0 0.12 0"/>
<feBlend mode="normal" in2="BackgroundImageFix" result="effect1_dropShadow_29753_11840"/>
<feColorMatrix in="SourceAlpha" type="matrix" values="0 0 0 0 0 0 0 0 0 0 0 0 0 0 0 0 0 0 127 0" result="hardAlpha"/>
<feOffset dy="1"/>
<feGaussianBlur stdDeviation="3"/>
<feColorMatrix type="matrix" values="0 0 0 0 0.709809 0 0 0 0 0.788943 0 0 0 0 0.920833 0 0 0 0.15 0"/>
<feBlend mode="normal" in2="effect1_dropShadow_29753_11840" result="effect2_dropShadow_29753_11840"/>
<feBlend mode="normal" in="SourceGraphic" in2="effect2_dropShadow_29753_11840" result="shape"/>
</filter>
</defs>
</svg>
