<svg width="112" height="208" viewBox="0 0 112 208" fill="none" xmlns="http://www.w3.org/2000/svg">
<rect x="0.5" y="0.5" width="111" height="207" rx="4.5" stroke="#9747FF" stroke-dasharray="10 5"/>
<g filter="url(#filter0_dd_17659_11775)">
<rect x="16" y="16" width="80" height="80" rx="8" fill="white"/>
</g>
<path d="M49.4375 54.3594H42.875H36.3125C31.7895 54.3594 28 58.0395 28 62.5625V65.8438L31.2885 72.3704L31.2812 82.3594C31.2812 83.2662 32.015 84 32.9219 84H39.5938L42.875 80.1221L57.6406 62.5625C57.6406 58.0395 53.9605 54.3594 49.4375 54.3594Z" fill="#157DF5"/>
<path d="M34.5625 69.125V65.8438C34.5625 64.9377 33.8279 64.2031 32.9219 64.2031H29.6406C28.7346 64.2031 28 64.9377 28 65.8438V69.125C28 73.6554 31.7821 77.3281 36.3125 77.3281H47.7969V70.7656H36.3125C35.4064 70.7656 34.5625 70.0311 34.5625 69.125Z" fill="#FFCFB5"/>
<path d="M49.4375 54.3594H42.875V80.1221L57.6406 62.5625C57.6406 58.0395 53.9605 54.3594 49.4375 54.3594Z" fill="#0965CD"/>
<path d="M60.6127 61.6028C60.3035 61.175 59.8083 60.9219 59.2813 60.9219H46.1563C45.4497 60.9219 44.8232 61.3737 44.6005 62.0434L38.038 81.8403C37.8698 82.3401 37.9547 82.8913 38.2623 83.3191C38.5715 83.7469 39.0667 84 39.5938 84H52.7188C53.4253 84 54.0518 83.5482 54.2745 82.8785L60.837 63.0816C61.0052 62.5801 60.9202 62.0306 60.6127 61.6028Z" fill="#282A52"/>
<path d="M53.3495 60.9219L45.6992 84H52.7185C53.425 84 54.0515 83.5482 54.2742 82.8785L60.8367 63.0816C61.0049 62.5801 60.9201 62.0306 60.6124 61.6027C60.3032 61.175 59.808 60.9219 59.281 60.9219H53.3495Z" fill="#1E203E"/>
<path d="M57.6406 75.6875H56C55.0939 75.6875 54.3594 74.9529 54.3594 74.0469V70.7656C54.3594 69.8596 55.0939 69.125 56 69.125H57.6406C59.4529 69.125 60.9219 70.594 60.9219 72.4062C60.9219 74.2185 59.4529 75.6875 57.6406 75.6875Z" fill="#FFCFB5"/>
<path d="M79.0781 28H69.125H59.2812C56.5672 28 54.3594 30.2078 54.3594 32.9219V46.1562C54.3594 48.8703 56.5672 51.0781 59.2812 51.0781H60.9219V56C60.9219 56.6632 61.3208 57.2625 61.9345 57.5156C62.5396 57.7682 63.2495 57.6328 63.7225 57.1599L69.125 51.7575L69.8043 51.0781H79.0781C81.7922 51.0781 84 48.8703 84 46.1562V32.9219C84 30.2078 81.7922 28 79.0781 28Z" fill="#157DF5"/>
<path d="M79.0781 51.0781C81.7922 51.0781 84 48.8703 84 46.1563V32.9219C84 30.2078 81.7922 28 79.0781 28H69.125V51.7575L69.8043 51.0781H79.0781Z" fill="#0965CD"/>
<path d="M66.04 36.3636C66.04 35.6105 66.631 35 67.36 35H70C70.5835 35 71.1431 35.2394 71.5556 35.6657C71.9682 36.0919 72.2 36.67 72.2 37.2727V39.0909C72.2 39.6937 71.9682 40.2717 71.5556 40.6979C71.1431 41.1242 70.5835 41.3636 70 41.3636H68.68V42.2727H70.88C71.609 42.2727 72.2 42.8832 72.2 43.6363C72.2 44.3894 71.609 45 70.88 45H68.24C67.6565 45 67.0969 44.7605 66.6844 44.3343C66.2718 43.9081 66.04 43.33 66.04 42.7272V40.9091C66.04 40.3063 66.2718 39.7282 66.6844 39.302C67.0969 38.8758 67.6565 38.6363 68.24 38.6363H69.56V37.7273H67.36C66.631 37.7273 66.04 37.1167 66.04 36.3636Z" fill="#F0F7FE"/>
<path d="M63.4 36.3637C63.4 35.8121 63.0784 35.3149 62.5851 35.1038C62.0919 34.8928 61.5241 35.0094 61.1466 35.3994L59.3866 37.2176C58.8711 37.7501 58.8711 38.6135 59.3866 39.1461C59.758 39.5297 60.2957 39.637 60.76 39.4678V43.6364C60.76 44.3895 61.351 45 62.08 45C62.809 45 63.4 44.3895 63.4 43.6364V36.3637Z" fill="#F0F7FE"/>
<path d="M76.16 35C75.431 35 74.84 35.6105 74.84 36.3636C74.84 37.1167 75.431 37.7273 76.16 37.7273H78.36V38.6363H77.04C76.311 38.6363 75.72 39.2469 75.72 40C75.72 40.7531 76.311 41.3636 77.04 41.3636H78.36V42.2727H76.16C75.431 42.2727 74.84 42.8832 74.84 43.6363C74.84 44.3894 75.431 45 76.16 45H78.36C79.0602 45 79.7317 44.7126 80.2268 44.2012C80.7219 43.6897 81 42.996 81 42.2727V41.3636C81 40.8807 80.876 40.411 80.6463 40C80.876 39.5889 81 39.1192 81 38.6363V37.7273C81 37.0039 80.7219 36.3103 80.2268 35.7988C79.7317 35.2873 79.0602 35 78.36 35H76.16Z" fill="#F0F7FE"/>
<path d="M69 45H70.88C71.609 45 72.2 44.3894 72.2 43.6363C72.2 42.8832 71.609 42.2727 70.88 42.2727H69V45Z" fill="#E2EFFE"/>
<path d="M69 41.3636H70C70.5835 41.3636 71.1431 41.1242 71.5556 40.6979C71.9682 40.2717 72.2 39.6937 72.2 39.0909V37.2727C72.2 36.67 71.9682 36.0919 71.5556 35.6657C71.1431 35.2394 70.5835 35 70 35H69V37.7273H69.56V38.6363H69V41.3636Z" fill="#E2EFFE"/>
<path d="M74.84 36.3636C74.84 35.6105 75.431 35 76.16 35H78.36C79.0602 35 79.7317 35.2873 80.2268 35.7988C80.7219 36.3103 81 37.0039 81 37.7273V38.6363C81 39.1192 80.876 39.5889 80.6463 40C80.876 40.411 81 40.8807 81 41.3636V42.2727C81 42.996 80.7219 43.6897 80.2268 44.2012C79.7317 44.7126 79.0602 45 78.36 45H76.16C75.431 45 74.84 44.3894 74.84 43.6363C74.84 42.8832 75.431 42.2727 76.16 42.2727H78.36V41.3636H77.04C76.311 41.3636 75.72 40.7531 75.72 40C75.72 39.2469 76.311 38.6363 77.04 38.6363H78.36V37.7273H76.16C75.431 37.7273 74.84 37.1167 74.84 36.3636Z" fill="#E2EFFE"/>
<path d="M42.8793 58.4968C41.1397 58.4968 39.7295 57.0312 39.7295 55.2234V51.0195H46.0292V55.2234C46.0292 57.0312 44.619 58.4968 42.8793 58.4968Z" fill="#FFCFB5"/>
<path d="M42.8799 51.0195V58.4968C44.6195 58.4968 46.0297 57.0312 46.0297 55.2234V51.0195H42.8799Z" fill="#FFCFB5"/>
<path d="M36.2295 42.5281V46.7426C36.2295 50.4229 39.2131 53.4065 42.8938 53.4065C46.5743 53.4065 49.558 50.4229 49.558 46.7426V44.8953L42.8938 40.9453L36.2295 42.5281Z" fill="#FFDECC"/>
<path d="M42.8936 53.4065C46.5741 53.4065 49.5578 50.4229 49.5578 46.7426V44.8953L42.8936 40.9453V53.4065Z" fill="#FFCFB5"/>
<path d="M49.558 42.0375C49.558 39.2553 47.3024 37 44.5202 37H41.2673C38.4851 37 36.2295 39.2554 36.2295 42.0375V42.5326L49.558 44.8996V42.0375Z" fill="#282A52"/>
<path d="M44.52 37H42.8936V43.7162L49.5578 44.8998V42.0375C49.5578 39.2553 47.3023 37 44.52 37Z" fill="#1E203E"/>
<path d="M74.0012 60C68.4788 60 64.002 64.5998 64.002 70.2739C64.002 70.2739 63.6284 78.8041 73.1957 83.8142C73.6663 84.0606 74.2227 84.0625 74.6935 83.8166C77.0353 82.5933 84.0004 78.2817 84.0004 70.2739C84.0004 64.5998 79.5236 60 74.0012 60Z" fill="#40D98D"/>
<path d="M74 60H74.0012C79.5236 60 84.0004 64.6 84.0004 70.2743C84.0004 78.2824 77.0353 82.5941 74.6935 83.8174C74.475 83.9315 74.2382 83.9923 74 84V60Z" fill="#25BB71"/>
<ellipse cx="74" cy="69.9933" rx="4" ry="3.99721" fill="#F0F7FE"/>
<path d="M74 73.9905V65.9961C71.7909 65.9961 70 67.7857 70 69.9933C70 72.2009 71.7909 73.9905 74 73.9905Z" fill="white"/>
<path d="M49.4375 150.359H42.875H36.3125C31.7895 150.359 28 154.04 28 158.562V161.844L31.2885 168.37L31.2812 178.359C31.2812 179.266 32.015 180 32.9219 180H39.5938L42.875 176.122L57.6406 158.562C57.6406 154.04 53.9605 150.359 49.4375 150.359Z" fill="#157DF5"/>
<path d="M34.5625 165.125V161.844C34.5625 160.938 33.8279 160.203 32.9219 160.203H29.6406C28.7346 160.203 28 160.938 28 161.844V165.125C28 169.655 31.7821 173.328 36.3125 173.328H47.7969V166.766H36.3125C35.4064 166.766 34.5625 166.031 34.5625 165.125Z" fill="#FFCFB5"/>
<path d="M49.4375 150.359H42.875V176.122L57.6406 158.562C57.6406 154.04 53.9605 150.359 49.4375 150.359Z" fill="#0965CD"/>
<path d="M60.6127 157.603C60.3035 157.175 59.8083 156.922 59.2813 156.922H46.1563C45.4497 156.922 44.8232 157.374 44.6005 158.043L38.038 177.84C37.8698 178.34 37.9547 178.891 38.2623 179.319C38.5715 179.747 39.0667 180 39.5938 180H52.7188C53.4253 180 54.0518 179.548 54.2745 178.878L60.837 159.082C61.0052 158.58 60.9202 158.031 60.6127 157.603Z" fill="#282A52"/>
<path d="M53.3495 156.922L45.6992 180H52.7185C53.425 180 54.0515 179.548 54.2742 178.878L60.8367 159.082C61.0049 158.58 60.9201 158.031 60.6124 157.603C60.3032 157.175 59.808 156.922 59.281 156.922H53.3495Z" fill="#1E203E"/>
<path d="M57.6406 171.688H56C55.0939 171.688 54.3594 170.953 54.3594 170.047V166.766C54.3594 165.86 55.0939 165.125 56 165.125H57.6406C59.4529 165.125 60.9219 166.594 60.9219 168.406C60.9219 170.218 59.4529 171.688 57.6406 171.688Z" fill="#FFCFB5"/>
<path d="M79.0781 124H69.125H59.2812C56.5672 124 54.3594 126.208 54.3594 128.922V142.156C54.3594 144.87 56.5672 147.078 59.2812 147.078H60.9219V152C60.9219 152.663 61.3208 153.263 61.9345 153.516C62.5396 153.768 63.2495 153.633 63.7225 153.16L69.125 147.757L69.8043 147.078H79.0781C81.7922 147.078 84 144.87 84 142.156V128.922C84 126.208 81.7922 124 79.0781 124Z" fill="#157DF5"/>
<path d="M79.0781 147.078C81.7922 147.078 84 144.87 84 142.156V128.922C84 126.208 81.7922 124 79.0781 124H69.125V147.757L69.8043 147.078H79.0781Z" fill="#0965CD"/>
<path d="M66.04 132.364C66.04 131.611 66.631 131 67.36 131H70C70.5835 131 71.1431 131.239 71.5556 131.666C71.9682 132.092 72.2 132.67 72.2 133.273V135.091C72.2 135.694 71.9682 136.272 71.5556 136.698C71.1431 137.124 70.5835 137.364 70 137.364H68.68V138.273H70.88C71.609 138.273 72.2 138.883 72.2 139.636C72.2 140.389 71.609 141 70.88 141H68.24C67.6565 141 67.0969 140.761 66.6844 140.334C66.2718 139.908 66.04 139.33 66.04 138.727V136.909C66.04 136.306 66.2718 135.728 66.6844 135.302C67.0969 134.876 67.6565 134.636 68.24 134.636H69.56V133.727H67.36C66.631 133.727 66.04 133.117 66.04 132.364Z" fill="#F0F7FE"/>
<path d="M63.4 132.364C63.4 131.812 63.0784 131.315 62.5851 131.104C62.0919 130.893 61.5241 131.009 61.1466 131.399L59.3866 133.218C58.8711 133.75 58.8711 134.614 59.3866 135.146C59.758 135.53 60.2957 135.637 60.76 135.468V139.636C60.76 140.389 61.351 141 62.08 141C62.809 141 63.4 140.389 63.4 139.636V132.364Z" fill="#F0F7FE"/>
<path d="M76.16 131C75.431 131 74.84 131.611 74.84 132.364C74.84 133.117 75.431 133.727 76.16 133.727H78.36V134.636H77.04C76.311 134.636 75.72 135.247 75.72 136C75.72 136.753 76.311 137.364 77.04 137.364H78.36V138.273H76.16C75.431 138.273 74.84 138.883 74.84 139.636C74.84 140.389 75.431 141 76.16 141H78.36C79.0602 141 79.7317 140.713 80.2268 140.201C80.7219 139.69 81 138.996 81 138.273V137.364C81 136.881 80.876 136.411 80.6463 136C80.876 135.589 81 135.119 81 134.636V133.727C81 133.004 80.7219 132.31 80.2268 131.799C79.7317 131.287 79.0602 131 78.36 131H76.16Z" fill="#F0F7FE"/>
<path d="M69 141H70.88C71.609 141 72.2 140.389 72.2 139.636C72.2 138.883 71.609 138.273 70.88 138.273H69V141Z" fill="#E2EFFE"/>
<path d="M69 137.364H70C70.5835 137.364 71.1431 137.124 71.5556 136.698C71.9682 136.272 72.2 135.694 72.2 135.091V133.273C72.2 132.67 71.9682 132.092 71.5556 131.666C71.1431 131.239 70.5835 131 70 131H69V133.727H69.56V134.636H69V137.364Z" fill="#E2EFFE"/>
<path d="M74.84 132.364C74.84 131.611 75.431 131 76.16 131H78.36C79.0602 131 79.7317 131.287 80.2268 131.799C80.7219 132.31 81 133.004 81 133.727V134.636C81 135.119 80.876 135.589 80.6463 136C80.876 136.411 81 136.881 81 137.364V138.273C81 138.996 80.7219 139.69 80.2268 140.201C79.7317 140.713 79.0602 141 78.36 141H76.16C75.431 141 74.84 140.389 74.84 139.636C74.84 138.883 75.431 138.273 76.16 138.273H78.36V137.364H77.04C76.311 137.364 75.72 136.753 75.72 136C75.72 135.247 76.311 134.636 77.04 134.636H78.36V133.727H76.16C75.431 133.727 74.84 133.117 74.84 132.364Z" fill="#E2EFFE"/>
<path d="M42.8793 154.497C41.1397 154.497 39.7295 153.031 39.7295 151.223V147.02H46.0292V151.223C46.0292 153.031 44.619 154.497 42.8793 154.497Z" fill="#FFCFB5"/>
<path d="M42.8799 147.02V154.497C44.6195 154.497 46.0297 153.031 46.0297 151.223V147.02H42.8799Z" fill="#FFCFB5"/>
<path d="M36.2295 138.528V142.743C36.2295 146.423 39.2131 149.407 42.8938 149.407C46.5743 149.407 49.558 146.423 49.558 142.743V140.895L42.8938 136.945L36.2295 138.528Z" fill="#FFDECC"/>
<path d="M42.8936 149.407C46.5741 149.407 49.5578 146.423 49.5578 142.743V140.895L42.8936 136.945V149.407Z" fill="#FFCFB5"/>
<path d="M49.558 138.038C49.558 135.255 47.3024 133 44.5202 133H41.2673C38.4851 133 36.2295 135.255 36.2295 138.038V138.533L49.558 140.9V138.038Z" fill="#282A52"/>
<path d="M44.52 133H42.8936V139.716L49.5578 140.9V138.038C49.5578 135.255 47.3023 133 44.52 133Z" fill="#1E203E"/>
<path d="M74.0012 156C68.4788 156 64.002 160.6 64.002 166.274C64.002 166.274 63.6284 174.804 73.1957 179.814C73.6663 180.061 74.2227 180.062 74.6935 179.817C77.0353 178.593 84.0004 174.282 84.0004 166.274C84.0004 160.6 79.5236 156 74.0012 156Z" fill="#40D98D"/>
<path d="M74 156H74.0012C79.5236 156 84.0004 160.6 84.0004 166.274C84.0004 174.282 77.0353 178.594 74.6935 179.817C74.475 179.932 74.2382 179.992 74 180V156Z" fill="#25BB71"/>
<ellipse cx="74" cy="165.993" rx="4" ry="3.99721" fill="#F0F7FE"/>
<path d="M74 169.991V161.996C71.7909 161.996 70 163.786 70 165.993C70 168.201 71.7909 169.991 74 169.991Z" fill="white"/>
<defs>
<filter id="filter0_dd_17659_11775" x="6" y="9" width="100" height="100" filterUnits="userSpaceOnUse" color-interpolation-filters="sRGB">
<feFlood flood-opacity="0" result="BackgroundImageFix"/>
<feColorMatrix in="SourceAlpha" type="matrix" values="0 0 0 0 0 0 0 0 0 0 0 0 0 0 0 0 0 0 127 0" result="hardAlpha"/>
<feOffset dy="3"/>
<feGaussianBlur stdDeviation="5"/>
<feColorMatrix type="matrix" values="0 0 0 0 0.516667 0 0 0 0 0.578358 0 0 0 0 0.775 0 0 0 0.12 0"/>
<feBlend mode="normal" in2="BackgroundImageFix" result="effect1_dropShadow_17659_11775"/>
<feColorMatrix in="SourceAlpha" type="matrix" values="0 0 0 0 0 0 0 0 0 0 0 0 0 0 0 0 0 0 127 0" result="hardAlpha"/>
<feOffset dy="1"/>
<feGaussianBlur stdDeviation="3"/>
<feColorMatrix type="matrix" values="0 0 0 0 0.709809 0 0 0 0 0.788943 0 0 0 0 0.920833 0 0 0 0.15 0"/>
<feBlend mode="normal" in2="effect1_dropShadow_17659_11775" result="effect2_dropShadow_17659_11775"/>
<feBlend mode="normal" in="SourceGraphic" in2="effect2_dropShadow_17659_11775" result="shape"/>
</filter>
</defs>
</svg>
