<svg width="392" height="92" viewBox="0 0 392 92" fill="none" xmlns="http://www.w3.org/2000/svg">
<path d="M0 79.9999H80V-9.82285e-05H0V79.9999ZM94.1406 17.5249V74.3999H86.6016V17.5249H94.1406ZM117.969 43.1108V49.2827H92.5V43.1108H117.969ZM121.836 17.5249V23.6968H92.5V17.5249H121.836ZM137.578 32.1343V74.3999H130.312V32.1343H137.578ZM129.766 20.9233C129.766 19.7515 130.117 18.7619 130.82 17.9546C131.549 17.1473 132.617 16.7437 134.023 16.7437C135.404 16.7437 136.458 17.1473 137.188 17.9546C137.943 18.7619 138.32 19.7515 138.32 20.9233C138.32 22.0431 137.943 23.0067 137.188 23.814C136.458 24.5952 135.404 24.9858 134.023 24.9858C132.617 24.9858 131.549 24.5952 130.82 23.814C130.117 23.0067 129.766 22.0431 129.766 20.9233ZM157.031 14.3999V74.3999H149.766V14.3999H157.031ZM186.172 75.1812C183.229 75.1812 180.56 74.6864 178.164 73.6968C175.794 72.6812 173.75 71.2619 172.031 69.439C170.339 67.616 169.036 65.4546 168.125 62.9546C167.214 60.4546 166.758 57.7202 166.758 54.7515V53.1108C166.758 49.6733 167.266 46.6134 168.281 43.9312C169.297 41.2228 170.677 38.9312 172.422 37.0562C174.167 35.1812 176.146 33.7619 178.359 32.7983C180.573 31.8348 182.865 31.353 185.234 31.353C188.255 31.353 190.859 31.8739 193.047 32.9155C195.26 33.9572 197.07 35.4155 198.477 37.2905C199.883 39.1395 200.924 41.327 201.602 43.853C202.279 46.353 202.617 49.0874 202.617 52.0562V55.2983H171.055V49.3999H195.391V48.853C195.286 46.978 194.896 45.1551 194.219 43.3843C193.568 41.6134 192.526 40.1551 191.094 39.0093C189.661 37.8634 187.708 37.2905 185.234 37.2905C183.594 37.2905 182.083 37.6421 180.703 38.3452C179.323 39.0223 178.138 40.0379 177.148 41.3921C176.159 42.7463 175.391 44.3999 174.844 46.353C174.297 48.3062 174.023 50.5588 174.023 53.1108V54.7515C174.023 56.7567 174.297 58.6447 174.844 60.4155C175.417 62.1603 176.237 63.6968 177.305 65.0249C178.398 66.353 179.714 67.3947 181.25 68.1499C182.812 68.9051 184.583 69.2827 186.562 69.2827C189.115 69.2827 191.276 68.7619 193.047 67.7202C194.818 66.6785 196.367 65.2853 197.695 63.5405L202.07 67.0171C201.159 68.3973 200 69.7124 198.594 70.9624C197.188 72.2124 195.456 73.228 193.398 74.0093C191.367 74.7905 188.958 75.1812 186.172 75.1812ZM251.445 17.5249V74.3999H244.023V17.5249H251.445ZM269.727 17.5249V23.6968H225.781V17.5249H269.727ZM286.133 70.0249L297.891 32.1343H305.625L288.672 80.9233C288.281 81.965 287.76 83.0848 287.109 84.2827C286.484 85.5067 285.677 86.6655 284.688 87.7593C283.698 88.853 282.5 89.7384 281.094 90.4155C279.714 91.1187 278.06 91.4702 276.133 91.4702C275.56 91.4702 274.831 91.3921 273.945 91.2358C273.06 91.0796 272.435 90.9494 272.07 90.8452L272.031 84.9858C272.24 85.0119 272.565 85.0379 273.008 85.064C273.477 85.116 273.802 85.1421 273.984 85.1421C275.625 85.1421 277.018 84.9207 278.164 84.478C279.31 84.0614 280.273 83.3452 281.055 82.3296C281.862 81.34 282.552 79.9728 283.125 78.228L286.133 70.0249ZM277.5 32.1343L288.477 64.9468L290.352 72.564L285.156 75.2202L269.609 32.1343H277.5ZM319.375 40.2593V90.6499H312.109V32.1343H318.75L319.375 40.2593ZM347.852 52.9155V53.7358C347.852 56.8088 347.487 59.6603 346.758 62.2905C346.029 64.8947 344.961 67.1603 343.555 69.0874C342.174 71.0145 340.469 72.5119 338.438 73.5796C336.406 74.6473 334.076 75.1812 331.445 75.1812C328.763 75.1812 326.393 74.7384 324.336 73.853C322.279 72.9676 320.534 71.6785 319.102 69.9858C317.669 68.2931 316.523 66.2619 315.664 63.8921C314.831 61.5223 314.258 58.853 313.945 55.8843V51.5093C314.258 48.3843 314.844 45.5848 315.703 43.1108C316.562 40.6369 317.695 38.5275 319.102 36.7827C320.534 35.0119 322.266 33.6707 324.297 32.7593C326.328 31.8218 328.672 31.353 331.328 31.353C333.984 31.353 336.341 31.8739 338.398 32.9155C340.456 33.9312 342.188 35.3895 343.594 37.2905C345 39.1916 346.055 41.4702 346.758 44.1265C347.487 46.7567 347.852 49.6864 347.852 52.9155ZM340.586 53.7358V52.9155C340.586 50.8062 340.365 48.827 339.922 46.978C339.479 45.103 338.789 43.4624 337.852 42.0562C336.94 40.6239 335.768 39.5041 334.336 38.6968C332.904 37.8634 331.198 37.4468 329.219 37.4468C327.396 37.4468 325.807 37.7593 324.453 38.3843C323.125 39.0093 321.992 39.8556 321.055 40.9233C320.117 41.965 319.349 43.1629 318.75 44.5171C318.177 45.8452 317.747 47.2254 317.461 48.6577V58.7749C317.982 60.5978 318.711 62.3166 319.648 63.9312C320.586 65.5197 321.836 66.8088 323.398 67.7983C324.961 68.7619 326.927 69.2437 329.297 69.2437C331.25 69.2437 332.93 68.84 334.336 68.0327C335.768 67.1994 336.94 66.0666 337.852 64.6343C338.789 63.202 339.479 61.5614 339.922 59.7124C340.365 57.8374 340.586 55.8452 340.586 53.7358ZM374.609 75.1812C371.667 75.1812 368.997 74.6864 366.602 73.6968C364.232 72.6812 362.188 71.2619 360.469 69.439C358.776 67.616 357.474 65.4546 356.562 62.9546C355.651 60.4546 355.195 57.7202 355.195 54.7515V53.1108C355.195 49.6733 355.703 46.6134 356.719 43.9312C357.734 41.2228 359.115 38.9312 360.859 37.0562C362.604 35.1812 364.583 33.7619 366.797 32.7983C369.01 31.8348 371.302 31.353 373.672 31.353C376.693 31.353 379.297 31.8739 381.484 32.9155C383.698 33.9572 385.508 35.4155 386.914 37.2905C388.32 39.1395 389.362 41.327 390.039 43.853C390.716 46.353 391.055 49.0874 391.055 52.0562V55.2983H359.492V49.3999H383.828V48.853C383.724 46.978 383.333 45.1551 382.656 43.3843C382.005 41.6134 380.964 40.1551 379.531 39.0093C378.099 37.8634 376.146 37.2905 373.672 37.2905C372.031 37.2905 370.521 37.6421 369.141 38.3452C367.76 39.0223 366.576 40.0379 365.586 41.3921C364.596 42.7463 363.828 44.3999 363.281 46.353C362.734 48.3062 362.461 50.5588 362.461 53.1108V54.7515C362.461 56.7567 362.734 58.6447 363.281 60.4155C363.854 62.1603 364.674 63.6968 365.742 65.0249C366.836 66.353 368.151 67.3947 369.688 68.1499C371.25 68.9051 373.021 69.2827 375 69.2827C377.552 69.2827 379.714 68.7619 381.484 67.7202C383.255 66.6785 384.805 65.2853 386.133 63.5405L390.508 67.0171C389.596 68.3973 388.438 69.7124 387.031 70.9624C385.625 72.2124 383.893 73.228 381.836 74.0093C379.805 74.7905 377.396 75.1812 374.609 75.1812Z" fill="#344054"/>
</svg>
