<svg width="278" height="80" viewBox="0 0 278 80" fill="none" xmlns="http://www.w3.org/2000/svg">
<path d="M0 79.9999H80V-9.82285e-05H0V79.9999ZM120.938 56.314H128.438C128.047 59.9077 127.018 63.1239 125.352 65.9624C123.685 68.8009 121.328 71.0535 118.281 72.7202C115.234 74.3608 111.432 75.1812 106.875 75.1812C103.542 75.1812 100.508 74.5562 97.7734 73.3062C95.0651 72.0562 92.7344 70.2853 90.7812 67.9937C88.8281 65.6759 87.3177 62.9025 86.25 59.6733C85.2083 56.4181 84.6875 52.7983 84.6875 48.814V43.1499C84.6875 39.1655 85.2083 35.5588 86.25 32.3296C87.3177 29.0744 88.8411 26.2879 90.8203 23.9702C92.8255 21.6525 95.2344 19.8687 98.0469 18.6187C100.859 17.3687 104.023 16.7437 107.539 16.7437C111.836 16.7437 115.469 17.5509 118.438 19.1655C121.406 20.7801 123.711 23.0197 125.352 25.8843C127.018 28.7228 128.047 32.0171 128.438 35.7671H120.938C120.573 33.1108 119.896 30.8322 118.906 28.9312C117.917 27.0041 116.51 25.5197 114.688 24.478C112.865 23.4364 110.482 22.9155 107.539 22.9155C105.013 22.9155 102.786 23.3973 100.859 24.3608C98.9583 25.3244 97.3568 26.6916 96.0547 28.4624C94.7786 30.2332 93.8151 32.3556 93.1641 34.8296C92.513 37.3035 92.1875 40.0509 92.1875 43.0718V48.814C92.1875 51.6004 92.474 54.2176 93.0469 56.6655C93.6458 59.1134 94.5443 61.2619 95.7422 63.1108C96.9401 64.9598 98.4635 66.4181 100.312 67.4858C102.161 68.5275 104.349 69.0483 106.875 69.0483C110.078 69.0483 112.63 68.5405 114.531 67.5249C116.432 66.5093 117.865 65.0509 118.828 63.1499C119.818 61.2489 120.521 58.9702 120.938 56.314ZM159.688 52.0952H144.492V45.9624H159.688C162.63 45.9624 165.013 45.4937 166.836 44.5562C168.659 43.6187 169.987 42.3166 170.82 40.6499C171.68 38.9832 172.109 37.0822 172.109 34.9468C172.109 32.9937 171.68 31.1577 170.82 29.439C169.987 27.7202 168.659 26.34 166.836 25.2983C165.013 24.2306 162.63 23.6968 159.688 23.6968H146.25V74.3999H138.711V17.5249H159.688C163.984 17.5249 167.617 18.2671 170.586 19.7515C173.555 21.2358 175.807 23.2931 177.344 25.9233C178.88 28.5275 179.648 31.5093 179.648 34.8687C179.648 38.5145 178.88 41.6265 177.344 44.2046C175.807 46.7827 173.555 48.7489 170.586 50.103C167.617 51.4312 163.984 52.0952 159.688 52.0952ZM210.195 17.5249V74.3999H202.773V17.5249H210.195ZM228.477 17.5249V23.6968H184.531V17.5249H228.477ZM277.852 46.0796V66.8999C277.148 67.9416 276.029 69.1134 274.492 70.4155C272.956 71.6916 270.833 72.8114 268.125 73.7749C265.443 74.7124 261.979 75.1812 257.734 75.1812C254.271 75.1812 251.081 74.5822 248.164 73.3843C245.273 72.1603 242.76 70.3895 240.625 68.0718C238.516 65.728 236.875 62.8895 235.703 59.5562C234.557 56.1968 233.984 52.3947 233.984 48.1499V43.7358C233.984 39.491 234.479 35.702 235.469 32.3687C236.484 29.0353 237.969 26.2098 239.922 23.8921C241.875 21.5483 244.271 19.7775 247.109 18.5796C249.948 17.3556 253.203 16.7437 256.875 16.7437C261.224 16.7437 264.857 17.4989 267.773 19.0093C270.716 20.4937 273.008 22.5509 274.648 25.1812C276.315 27.8114 277.383 30.8062 277.852 34.1655H270.312C269.974 32.1082 269.297 30.2332 268.281 28.5405C267.292 26.8478 265.872 25.4937 264.023 24.478C262.174 23.4364 259.792 22.9155 256.875 22.9155C254.245 22.9155 251.966 23.3973 250.039 24.3608C248.112 25.3244 246.523 26.7046 245.273 28.5015C244.023 30.2983 243.086 32.4728 242.461 35.0249C241.862 37.577 241.562 40.4546 241.562 43.6577V48.1499C241.562 51.4312 241.94 54.3608 242.695 56.939C243.477 59.5171 244.583 61.7176 246.016 63.5405C247.448 65.3374 249.154 66.7046 251.133 67.6421C253.138 68.5796 255.352 69.0483 257.773 69.0483C260.456 69.0483 262.63 68.827 264.297 68.3843C265.964 67.9155 267.266 67.3687 268.203 66.7437C269.141 66.0926 269.857 65.4806 270.352 64.9077V52.1733H257.188V46.0796H277.852Z" fill="#344054"/>
</svg>
