<svg width="112" height="208" viewBox="0 0 112 208" fill="none" xmlns="http://www.w3.org/2000/svg">
<rect x="0.5" y="0.5" width="111" height="207" rx="4.5" stroke="#9747FF" stroke-dasharray="10 5"/>
<g filter="url(#filter0_dd_7259_33258)">
<rect x="16" y="16" width="80" height="80" rx="8" fill="white"/>
</g>
<path d="M68.0938 29.6406V73.4062C68.0938 73.9585 67.646 74.4062 67.0938 74.4062H33C32.4477 74.4062 32 73.9585 32 73.4062V29.6406C32 28.7218 32.7218 28 33.6406 28H66.4531C67.372 28 68.0938 28.7218 68.0938 29.6406Z" fill="#F0F7FE"/>
<path fill-rule="evenodd" clip-rule="evenodd" d="M41.3276 37V36.5C41.3276 35.672 41.9996 35 42.8276 35C43.6556 35 44.3276 35.672 44.3276 36.5V37.059C46.5926 37.4194 48.328 39.3853 48.328 41.7501C48.328 42.7651 48.0083 43.7066 47.4643 44.4792C48.5968 45.3479 49.3281 46.7147 49.3281 48.2497C49.3281 50.8699 47.1979 52.9998 44.578 52.9998H44.3276V53.4998C44.3276 54.3278 43.6556 54.9998 42.8276 54.9998C41.9996 54.9998 41.3276 54.3278 41.3276 53.4998V52.9998H38.8281C38.0001 52.9998 37.3281 52.3278 37.3281 51.4998V38.5C37.3281 37.672 38.0001 37 38.8281 37H41.3276ZM40.3281 46.5002H43.5779L43.6202 46.5H44.578C45.5419 46.5 46.3281 47.2859 46.3281 48.2497C46.3281 49.2139 45.5419 49.9998 44.578 49.9998H40.3281V46.5002ZM43.6035 43.5C44.556 43.4862 45.328 42.7054 45.328 41.7501C45.328 40.7862 44.5421 40 43.5779 40H40.3281V43.5H43.6035Z" fill="#157DF5"/>
<path d="M43.3281 54.9145C43.9103 54.7083 44.3276 54.1527 44.3276 53.5002V53.0001H44.578C47.1979 53.0001 49.3281 50.8702 49.3281 48.25C49.3281 46.715 48.5968 45.3483 47.4643 44.4795C48.0083 43.7069 48.328 42.7654 48.328 41.7504C48.328 39.3856 46.5926 37.4197 44.3276 37.0594V36.5003C44.3276 35.8478 43.9103 35.2921 43.3281 35.0859V40.0003H43.5779C44.5421 40.0003 45.328 40.7865 45.328 41.7504C45.328 42.7057 44.556 43.4865 43.6035 43.5003H43.3281V46.5005H43.5779L43.6202 46.5003H44.578C45.5419 46.5003 46.3281 47.2862 46.3281 48.25C46.3281 49.2142 45.5419 50.0001 44.578 50.0001H43.3281V54.9145Z" fill="#0965CD"/>
<path d="M68.0938 29.6406V73.4062C68.0938 73.9585 67.646 74.4062 67.0938 74.4062H51.3281V28H66.4531C67.372 28 68.0938 28.7218 68.0938 29.6406Z" fill="#E2EFFE"/>
<path d="M84.0003 61.7419C84.0003 63.5822 83.011 65.2962 81.4188 66.2153L63.4933 76.5643C62.493 77.1419 61.3543 77.4471 60.1992 77.4471C43.6983 77.4471 47.4476 76.8732 37.1953 80.2899C36.3576 80.5727 35.4053 80.1296 35.1123 79.2479C34.8246 78.3848 35.2913 77.4526 36.1543 77.1649L36.6748 76.9914V62.5127C34.9324 62.5095 34.3985 60.164 35.938 59.3932C38.3582 58.1831 39.4319 57.4628 41.3547 57.4628H54.2434C57.8798 57.4628 60.3586 61.1294 59.0583 64.4903C63.0516 64.4903 63.5357 64.6216 64.5266 64.0488C71.5618 59.9872 68.5609 61.7197 76.258 57.2761C79.6716 55.3074 84.0003 57.7555 84.0003 61.7419Z" fill="#FFDECC"/>
<path d="M84 61.7419C84 63.5822 83.0107 65.2962 81.4185 66.2153L63.493 76.5643C61.5754 77.6715 60.3468 77.4471 56 77.4471V57.7714C58.7288 58.761 60.0971 61.8047 59.058 64.4903C63.0513 64.4903 63.5354 64.6216 64.5263 64.0488C71.5615 59.9872 68.5606 61.7197 76.2577 57.2761C79.6713 55.3074 84 57.7555 84 61.7419Z" fill="#FFDECC"/>
<path d="M81.8333 57.5436C69.7511 64.8982 73.2069 62.8398 66.1731 66.9011C65.1728 67.4786 64.0341 67.7839 62.8789 67.7839H47.2154C46.3062 67.7839 45.5684 67.046 45.5684 66.1368C45.5684 65.2276 46.3062 64.4898 47.2154 64.4898H62.8789C63.4565 64.4898 64.0264 64.3371 64.526 64.0483C71.5613 59.9867 68.5603 61.7192 76.2575 57.2756C78.0604 56.2358 80.2379 56.4093 81.8333 57.5436Z" fill="#FFCFB5"/>
<path d="M81.8336 57.5436C69.7514 64.8982 73.2072 62.8398 66.1733 66.9011C65.173 67.4786 64.0344 67.7839 62.8792 67.7839H56V64.4898H62.8792C63.4568 64.4898 64.0267 64.3371 64.5263 64.0483C71.5615 59.9867 68.5606 61.7192 76.2577 57.2756C78.0607 56.2358 80.2381 56.4093 81.8336 57.5436Z" fill="#FFCFB5"/>
<path d="M28 60C28 57.7909 29.7909 56 32 56H34C36.2091 56 38 57.7909 38 60V80C38 82.2091 36.2091 84 34 84H32C29.7909 84 28 82.2091 28 80V60Z" fill="#157DF5"/>
<circle cx="72" cy="40" r="12" fill="#40D98D"/>
<path d="M72 52C78.6274 52 84 46.6274 84 40C84 33.3726 78.6274 28 72 28V52Z" fill="#25BB71"/>
<path d="M71 32C70.4478 32 70 32.4478 70 33V38H65C64.4478 38 64 38.4478 64 39V41C64 41.5522 64.4478 42 65 42H70V47C70 47.5522 70.4478 48 71 48H73C73.5522 48 74 47.5522 74 47V42H79C79.5522 42 80 41.5522 80 41V39C80 38.4478 79.5522 38 79 38H74V33C74 32.4478 73.5522 32 73 32H71Z" fill="white"/>
<path d="M72 48H73C73.5522 48 74 47.5522 74 47V42H79C79.5522 42 80 41.5522 80 41V39C80 38.4478 79.5522 38 79 38H74V33C74 32.4478 73.5522 32 73 32H72V48Z" fill="#E2EFFE"/>
<path d="M68.0938 125.641V169.406C68.0938 169.959 67.646 170.406 67.0938 170.406H33C32.4477 170.406 32 169.959 32 169.406V125.641C32 124.722 32.7218 124 33.6406 124H66.4531C67.372 124 68.0938 124.722 68.0938 125.641Z" fill="#F0F7FE"/>
<path fill-rule="evenodd" clip-rule="evenodd" d="M41.3276 133V132.5C41.3276 131.672 41.9996 131 42.8276 131C43.6556 131 44.3276 131.672 44.3276 132.5V133.059C46.5926 133.419 48.328 135.385 48.328 137.75C48.328 138.765 48.0083 139.707 47.4643 140.479C48.5968 141.348 49.3281 142.715 49.3281 144.25C49.3281 146.87 47.1979 149 44.578 149H44.3276V149.5C44.3276 150.328 43.6556 151 42.8276 151C41.9996 151 41.3276 150.328 41.3276 149.5V149H38.8281C38.0001 149 37.3281 148.328 37.3281 147.5V134.5C37.3281 133.672 38.0001 133 38.8281 133H41.3276ZM40.3281 142.5H43.5779L43.6202 142.5H44.578C45.5419 142.5 46.3281 143.286 46.3281 144.25C46.3281 145.214 45.5419 146 44.578 146H40.3281V142.5ZM43.6035 139.5C44.556 139.486 45.328 138.705 45.328 137.75C45.328 136.786 44.5421 136 43.5779 136H40.3281V139.5H43.6035Z" fill="#157DF5"/>
<path d="M43.3281 150.915C43.9103 150.708 44.3276 150.153 44.3276 149.5V149H44.578C47.1979 149 49.3281 146.87 49.3281 144.25C49.3281 142.715 48.5968 141.348 47.4643 140.48C48.0083 139.707 48.328 138.765 48.328 137.75C48.328 135.386 46.5926 133.42 44.3276 133.059V132.5C44.3276 131.848 43.9103 131.292 43.3281 131.086V136H43.5779C44.5421 136 45.328 136.787 45.328 137.75C45.328 138.706 44.556 139.487 43.6035 139.5H43.3281V142.5H43.5779L43.6202 142.5H44.578C45.5419 142.5 46.3281 143.286 46.3281 144.25C46.3281 145.214 45.5419 146 44.578 146H43.3281V150.915Z" fill="#0965CD"/>
<path d="M68.0938 125.641V169.406C68.0938 169.959 67.646 170.406 67.0938 170.406H51.3281V124H66.4531C67.372 124 68.0938 124.722 68.0938 125.641Z" fill="#E2EFFE"/>
<path d="M84.0003 157.742C84.0003 159.582 83.011 161.296 81.4188 162.215L63.4933 172.564C62.493 173.142 61.3543 173.447 60.1992 173.447C43.6983 173.447 47.4476 172.873 37.1953 176.29C36.3576 176.573 35.4053 176.13 35.1123 175.248C34.8246 174.385 35.2913 173.453 36.1543 173.165L36.6748 172.991V158.513C34.9324 158.51 34.3985 156.164 35.938 155.393C38.3582 154.183 39.4319 153.463 41.3547 153.463H54.2434C57.8798 153.463 60.3586 157.129 59.0583 160.49C63.0516 160.49 63.5357 160.622 64.5266 160.049C71.5618 155.987 68.5609 157.72 76.258 153.276C79.6716 151.307 84.0003 153.756 84.0003 157.742Z" fill="#FFDECC"/>
<path d="M84 157.742C84 159.582 83.0107 161.296 81.4185 162.215L63.493 172.564C61.5754 173.671 60.3468 173.447 56 173.447V153.771C58.7288 154.761 60.0971 157.805 59.058 160.49C63.0513 160.49 63.5354 160.622 64.5263 160.049C71.5615 155.987 68.5606 157.72 76.2577 153.276C79.6713 151.307 84 153.756 84 157.742Z" fill="#FFDECC"/>
<path d="M81.8333 153.544C69.7511 160.898 73.2069 158.84 66.1731 162.901C65.1728 163.479 64.0341 163.784 62.8789 163.784H47.2154C46.3062 163.784 45.5684 163.046 45.5684 162.137C45.5684 161.228 46.3062 160.49 47.2154 160.49H62.8789C63.4565 160.49 64.0264 160.337 64.526 160.048C71.5613 155.987 68.5603 157.719 76.2575 153.276C78.0604 152.236 80.2379 152.409 81.8333 153.544Z" fill="#FFCFB5"/>
<path d="M81.8336 153.544C69.7514 160.898 73.2072 158.84 66.1733 162.901C65.173 163.479 64.0344 163.784 62.8792 163.784H56V160.49H62.8792C63.4568 160.49 64.0267 160.337 64.5263 160.048C71.5615 155.987 68.5606 157.719 76.2577 153.276C78.0607 152.236 80.2381 152.409 81.8336 153.544Z" fill="#FFCFB5"/>
<path d="M28 156C28 153.791 29.7909 152 32 152H34C36.2091 152 38 153.791 38 156V176C38 178.209 36.2091 180 34 180H32C29.7909 180 28 178.209 28 176V156Z" fill="#157DF5"/>
<circle cx="72" cy="136" r="12" fill="#40D98D"/>
<path d="M72 148C78.6274 148 84 142.627 84 136C84 129.373 78.6274 124 72 124V148Z" fill="#25BB71"/>
<path d="M71 128C70.4478 128 70 128.448 70 129V134H65C64.4478 134 64 134.448 64 135V137C64 137.552 64.4478 138 65 138H70V143C70 143.552 70.4478 144 71 144H73C73.5522 144 74 143.552 74 143V138H79C79.5522 138 80 137.552 80 137V135C80 134.448 79.5522 134 79 134H74V129C74 128.448 73.5522 128 73 128H71Z" fill="white"/>
<path d="M72 144H73C73.5522 144 74 143.552 74 143V138H79C79.5522 138 80 137.552 80 137V135C80 134.448 79.5522 134 79 134H74V129C74 128.448 73.5522 128 73 128H72V144Z" fill="#E2EFFE"/>
<defs>
<filter id="filter0_dd_7259_33258" x="6" y="9" width="100" height="100" filterUnits="userSpaceOnUse" color-interpolation-filters="sRGB">
<feFlood flood-opacity="0" result="BackgroundImageFix"/>
<feColorMatrix in="SourceAlpha" type="matrix" values="0 0 0 0 0 0 0 0 0 0 0 0 0 0 0 0 0 0 127 0" result="hardAlpha"/>
<feOffset dy="3"/>
<feGaussianBlur stdDeviation="5"/>
<feColorMatrix type="matrix" values="0 0 0 0 0.516667 0 0 0 0 0.578358 0 0 0 0 0.775 0 0 0 0.12 0"/>
<feBlend mode="normal" in2="BackgroundImageFix" result="effect1_dropShadow_7259_33258"/>
<feColorMatrix in="SourceAlpha" type="matrix" values="0 0 0 0 0 0 0 0 0 0 0 0 0 0 0 0 0 0 127 0" result="hardAlpha"/>
<feOffset dy="1"/>
<feGaussianBlur stdDeviation="3"/>
<feColorMatrix type="matrix" values="0 0 0 0 0.709809 0 0 0 0 0.788943 0 0 0 0 0.920833 0 0 0 0.15 0"/>
<feBlend mode="normal" in2="effect1_dropShadow_7259_33258" result="effect2_dropShadow_7259_33258"/>
<feBlend mode="normal" in="SourceGraphic" in2="effect2_dropShadow_7259_33258" result="shape"/>
</filter>
</defs>
</svg>
