<svg width="112" height="200" viewBox="0 0 112 200" fill="none" xmlns="http://www.w3.org/2000/svg">
<rect x="0.5" y="0.5" width="111" height="199" rx="4.5" stroke="#9747FF" stroke-dasharray="10 5"/>
<g filter="url(#filter0_d_14259_57067)">
<rect x="16" y="16" width="80" height="80" rx="8" fill="white"/>
</g>
<path d="M40.4395 84H31.5604C31.251 84 31 83.748 31 83.4371V77.5629C31 77.2521 31.2509 77 31.5604 77H40.4396C40.749 77 41 77.252 41 77.5629V83.4371C40.9999 83.748 40.749 84 40.4395 84Z" fill="#282A52"/>
<path d="M60.4396 84H51.5604C51.251 84 51 83.748 51 83.4371V77.5629C51 77.2521 51.2509 77 51.5604 77H60.4396C60.749 77 61 77.252 61 77.5629V83.4371C61 83.748 60.749 84 60.4396 84Z" fill="#282A52"/>
<path d="M79.4396 84H70.5604C70.251 84 70 83.748 70 83.4371V77.5629C70 77.2521 70.2509 77 70.5604 77H79.4396C79.749 77 80 77.252 80 77.5629V83.4371C80 83.748 79.7491 84 79.4396 84Z" fill="#1E203E"/>
<path d="M83.9999 77.1012C83.9999 77.5975 83.5947 78 83.0949 78H30.5342H28.905C28.4052 78 28 77.5976 28 77.1012V70.8988C28 70.4025 28.4051 70 28.905 70H83.095C83.5947 70 84 70.4024 84 70.8988L83.9999 77.1012Z" fill="#E2EFFE"/>
<path d="M60.4018 77H56V84H60.4018C60.7322 84 61 83.7323 61 83.402V77.5979C61 77.2677 60.7322 77 60.4018 77Z" fill="#1E203E"/>
<path d="M83.0957 78C83.595 78 84 77.5976 84 77.1012V70.8988C84 70.4025 83.5951 70 83.0957 70H56V77.9999L83.0957 78Z" fill="#B6D7FC"/>
<path d="M49.1192 49V49.8084H42.0001V49H36.4725C35.6593 49 35 49.6593 35 50.4725V70H56V51C56 49.8954 55.1046 49 54 49L49.1192 49Z" fill="#157DF5"/>
<path d="M48.9912 49.8085H45.5312V70H56V51C56 49.8954 55.1046 49 54 49H48.9912V49.8085Z" fill="#0965CD"/>
<path d="M48.4407 55.4291H41.6165C41.2566 55.4291 40.9648 55.1373 40.9648 54.7774V49H49.0924V54.7774C49.0923 55.1373 48.8006 55.4291 48.4407 55.4291Z" fill="#40D98D"/>
<path d="M45.5312 55.4291H49.4C49.7823 55.4291 50.0922 55.1192 50.0922 54.7369V49H45.5312V55.4291Z" fill="#25BB71"/>
<path d="M49.5234 28C49.3001 28 49.1192 28.181 49.1192 28.4042C49.1192 28.6274 48.9382 28.8084 48.715 28.8084H42.4043C42.1811 28.8084 42.0001 28.6274 42.0001 28.4042C42.0001 28.181 41.8191 28 41.5959 28H36.4725C35.6593 28 35 28.6593 35 29.4725V47C35 48.1046 35.8954 49 37 49H54C55.1046 49 56 48.1046 56 47V30C56 28.8954 55.1046 28 54 28L49.5234 28Z" fill="#157DF5"/>
<path d="M48.9912 28.8085H45.5312V49H54C55.1046 49 56 48.1046 56 47V30C56 28.8954 55.1046 28 54 28H48.9912V28.8085Z" fill="#0965CD"/>
<path d="M48.4407 34.4291H41.6165C41.2566 34.4291 40.9648 34.1373 40.9648 33.7774V28H49.0924V33.7774C49.0923 34.1373 48.8006 34.4291 48.4407 34.4291Z" fill="#40D98D"/>
<path d="M45.5312 34.4291H49.4C49.7823 34.4291 50.0922 34.1192 50.0922 33.7369V28H45.5312V34.4291Z" fill="#25BB71"/>
<path d="M70.1192 49V49.8084H63.0001V49H57.4725C56.6593 49 56 49.6593 56 50.4725V70H77V51C77 49.8954 76.1046 49 75 49L70.1192 49Z" fill="#157DF5"/>
<path d="M69.9912 49.8085H66.5312V70H77V51C77 49.8954 76.1046 49 75 49H69.9912V49.8085Z" fill="#0965CD"/>
<path d="M69.4407 55.4291H62.6165C62.2566 55.4291 61.9648 55.1373 61.9648 54.7774V49H70.0924V54.7774C70.0923 55.1373 69.8006 55.4291 69.4407 55.4291Z" fill="#40D98D"/>
<path d="M66.5312 55.4291H70.4C70.7823 55.4291 71.0922 55.1192 71.0922 54.7369V49H66.5312V55.4291Z" fill="#25BB71"/>
<path d="M70.5234 28C70.3001 28 70.1192 28.181 70.1192 28.4042C70.1192 28.6274 69.9382 28.8084 69.715 28.8084H63.4043C63.1811 28.8084 63.0001 28.6274 63.0001 28.4042C63.0001 28.181 62.8191 28 62.5959 28H57.4725C56.6593 28 56 28.6593 56 29.4725V47C56 48.1046 56.8954 49 58 49H75C76.1046 49 77 48.1046 77 47V30C77 28.8954 76.1046 28 75 28L70.5234 28Z" fill="#157DF5"/>
<path d="M69.9912 28.8085H66.5312V49H75C76.1046 49 77 48.1046 77 47V30C77 28.8954 76.1046 28 75 28H69.9912V28.8085Z" fill="#0965CD"/>
<path d="M69.4407 34.4291H62.6165C62.2566 34.4291 61.9648 34.1373 61.9648 33.7774V28H70.0924V33.7774C70.0923 34.1373 69.8006 34.4291 69.4407 34.4291Z" fill="#40D98D"/>
<path d="M66.5312 34.4291H70.4C70.7823 34.4291 71.0922 34.1192 71.0922 33.7369V28H66.5312V34.4291Z" fill="#25BB71"/>
<path d="M35 47H56C56 48.1046 55.1046 49 54 49H37C35.8954 49 35 48.1046 35 47Z" fill="#0965CD"/>
<path d="M56 47H77C77 48.1046 76.1046 49 75 49H58C56.8954 49 56 48.1046 56 47Z" fill="#0965CD"/>
<path d="M40.4395 180H31.5604C31.251 180 31 179.748 31 179.437V173.563C31 173.252 31.2509 173 31.5604 173H40.4396C40.749 173 41 173.252 41 173.563V179.437C40.9999 179.748 40.749 180 40.4395 180Z" fill="#282A52"/>
<path d="M60.4396 180H51.5604C51.251 180 51 179.748 51 179.437V173.563C51 173.252 51.2509 173 51.5604 173H60.4396C60.749 173 61 173.252 61 173.563V179.437C61 179.748 60.749 180 60.4396 180Z" fill="#282A52"/>
<path d="M79.4396 180H70.5604C70.251 180 70 179.748 70 179.437V173.563C70 173.252 70.2509 173 70.5604 173H79.4396C79.749 173 80 173.252 80 173.563V179.437C80 179.748 79.7491 180 79.4396 180Z" fill="#1E203E"/>
<path d="M83.9999 173.101C83.9999 173.598 83.5947 174 83.0949 174H30.5342H28.905C28.4052 174 28 173.598 28 173.101V166.899C28 166.402 28.4051 166 28.905 166H83.095C83.5947 166 84 166.402 84 166.899L83.9999 173.101Z" fill="#E2EFFE"/>
<path d="M60.4018 173H56V180H60.4018C60.7322 180 61 179.732 61 179.402V173.598C61 173.268 60.7322 173 60.4018 173Z" fill="#1E203E"/>
<path d="M83.0957 174C83.595 174 84 173.598 84 173.101V166.899C84 166.402 83.5951 166 83.0957 166H56V174L83.0957 174Z" fill="#B6D7FC"/>
<path d="M49.1192 145V145.808H42.0001V145H36.4725C35.6593 145 35 145.659 35 146.472V166H56V147C56 145.895 55.1046 145 54 145L49.1192 145Z" fill="#157DF5"/>
<path d="M48.9912 145.809H45.5312V166H56V147C56 145.895 55.1046 145 54 145H48.9912V145.809Z" fill="#0965CD"/>
<path d="M48.4407 151.429H41.6165C41.2566 151.429 40.9648 151.137 40.9648 150.777V145H49.0924V150.777C49.0923 151.137 48.8006 151.429 48.4407 151.429Z" fill="#40D98D"/>
<path d="M45.5312 151.429H49.4C49.7823 151.429 50.0922 151.119 50.0922 150.737V145H45.5312V151.429Z" fill="#25BB71"/>
<path d="M49.5234 124C49.3001 124 49.1192 124.181 49.1192 124.404C49.1192 124.627 48.9382 124.808 48.715 124.808H42.4043C42.1811 124.808 42.0001 124.627 42.0001 124.404C42.0001 124.181 41.8191 124 41.5959 124H36.4725C35.6593 124 35 124.659 35 125.472V143C35 144.105 35.8954 145 37 145H54C55.1046 145 56 144.105 56 143V126C56 124.895 55.1046 124 54 124L49.5234 124Z" fill="#157DF5"/>
<path d="M48.9912 124.809H45.5312V145H54C55.1046 145 56 144.105 56 143V126C56 124.895 55.1046 124 54 124H48.9912V124.809Z" fill="#0965CD"/>
<path d="M48.4407 130.429H41.6165C41.2566 130.429 40.9648 130.137 40.9648 129.777V124H49.0924V129.777C49.0923 130.137 48.8006 130.429 48.4407 130.429Z" fill="#40D98D"/>
<path d="M45.5312 130.429H49.4C49.7823 130.429 50.0922 130.119 50.0922 129.737V124H45.5312V130.429Z" fill="#25BB71"/>
<path d="M70.1192 145V145.808H63.0001V145H57.4725C56.6593 145 56 145.659 56 146.472V166H77V147C77 145.895 76.1046 145 75 145L70.1192 145Z" fill="#157DF5"/>
<path d="M69.9912 145.809H66.5312V166H77V147C77 145.895 76.1046 145 75 145H69.9912V145.809Z" fill="#0965CD"/>
<path d="M69.4407 151.429H62.6165C62.2566 151.429 61.9648 151.137 61.9648 150.777V145H70.0924V150.777C70.0923 151.137 69.8006 151.429 69.4407 151.429Z" fill="#40D98D"/>
<path d="M66.5312 151.429H70.4C70.7823 151.429 71.0922 151.119 71.0922 150.737V145H66.5312V151.429Z" fill="#25BB71"/>
<path d="M70.5234 124C70.3001 124 70.1192 124.181 70.1192 124.404C70.1192 124.627 69.9382 124.808 69.715 124.808H63.4043C63.1811 124.808 63.0001 124.627 63.0001 124.404C63.0001 124.181 62.8191 124 62.5959 124H57.4725C56.6593 124 56 124.659 56 125.472V143C56 144.105 56.8954 145 58 145H75C76.1046 145 77 144.105 77 143V126C77 124.895 76.1046 124 75 124L70.5234 124Z" fill="#157DF5"/>
<path d="M69.9912 124.809H66.5312V145H75C76.1046 145 77 144.105 77 143V126C77 124.895 76.1046 124 75 124H69.9912V124.809Z" fill="#0965CD"/>
<path d="M69.4407 130.429H62.6165C62.2566 130.429 61.9648 130.137 61.9648 129.777V124H70.0924V129.777C70.0923 130.137 69.8006 130.429 69.4407 130.429Z" fill="#40D98D"/>
<path d="M66.5312 130.429H70.4C70.7823 130.429 71.0922 130.119 71.0922 129.737V124H66.5312V130.429Z" fill="#25BB71"/>
<path d="M35 143H56C56 144.105 55.1046 145 54 145H37C35.8954 145 35 144.105 35 143Z" fill="#0965CD"/>
<path d="M56 143H77C77 144.105 76.1046 145 75 145H58C56.8954 145 56 144.105 56 143Z" fill="#0965CD"/>
<defs>
<filter id="filter0_d_14259_57067" x="10" y="9" width="96" height="96" filterUnits="userSpaceOnUse" color-interpolation-filters="sRGB">
<feFlood flood-opacity="0" result="BackgroundImageFix"/>
<feColorMatrix in="SourceAlpha" type="matrix" values="0 0 0 0 0 0 0 0 0 0 0 0 0 0 0 0 0 0 127 0" result="hardAlpha"/>
<feOffset dx="2" dy="1"/>
<feGaussianBlur stdDeviation="4"/>
<feColorMatrix type="matrix" values="0 0 0 0 0.0392157 0 0 0 0 0.0392157 0 0 0 0 0.0627451 0 0 0 0.08 0"/>
<feBlend mode="normal" in2="BackgroundImageFix" result="effect1_dropShadow_14259_57067"/>
<feBlend mode="normal" in="SourceGraphic" in2="effect1_dropShadow_14259_57067" result="shape"/>
</filter>
</defs>
</svg>
