<svg width="112" height="208" viewBox="0 0 112 208" fill="none" xmlns="http://www.w3.org/2000/svg">
<rect x="0.5" y="0.5" width="111" height="207" rx="4.5" stroke="#9747FF" stroke-dasharray="10 5"/>
<g filter="url(#filter0_d_14259_56724)">
<rect x="16" y="16" width="80" height="80" rx="8" fill="white"/>
</g>
<path d="M49.609 41.0047V42.3445H61.4023V41.0047H70.5595C71.9067 41.0047 72.9988 42.0973 72.9988 43.4452V72.8344C72.9988 74.0425 72.0195 75.0218 70.8114 75.0218H40.1859C38.9779 75.0218 37.9985 74.0425 37.9985 72.8344V44.3269C37.9985 42.4921 39.4852 41.0049 41.3189 41.0049L49.609 41.0047Z" fill="#157DF5"/>
<path d="M49.611 42.3447H55.4958V75.0218H40.1877C38.9797 75.0218 38.0003 74.0425 38.0003 72.8344V43.2163C38.0003 41.995 38.9899 41.0047 40.2109 41.0047H49.611V42.3447Z" fill="#0965CD"/>
<path d="M50.6773 50.6601H60.3256C60.9217 50.6601 61.405 50.1765 61.405 49.5801V40.0047H49.5977V49.5801C49.5978 50.1765 50.0811 50.6601 50.6773 50.6601Z" fill="#40D98D"/>
<path d="M55.4958 50.6601H50.7435C50.1102 50.6601 49.5969 50.1464 49.5969 49.5129V40.0047H55.4958V50.6601Z" fill="#25BB71"/>
<path d="M80.9643 80.2618H68.2324L53.9113 83.6875C51.5437 84.2539 49.0581 84.0456 46.8166 83.0932L30.7168 76.2525C28.4973 75.3498 27.4202 72.8029 28.3156 70.5715C29.2121 68.3378 31.7512 67.2529 33.9801 68.1552L49.196 74.4274L53.3316 71.2897L50.5039 70.5838C49.3795 70.2906 48.4361 69.5753 47.8475 68.5694C47.2588 67.5637 47.0954 66.3879 47.3874 65.2586C47.8951 63.2947 49.6628 61.9888 51.5992 61.989C51.9612 61.9891 52.3296 62.0348 52.6962 62.1303L66.9556 65.9721H80.9643C81.431 65.9721 81.8093 66.3521 81.8093 66.8208V79.413C81.8093 79.8818 81.431 80.2618 80.9643 80.2618Z" fill="#FFDECC"/>
<path d="M55.9421 83.2018L53.911 83.6876C51.5435 84.254 49.0578 84.0457 46.8164 83.0933L30.7165 76.2526C28.497 75.3498 27.4199 72.803 28.3154 70.5716C29.2118 68.3379 31.751 67.253 33.9798 68.1553L49.1957 74.4274L53.3315 71.2897L50.5038 70.5838C49.3794 70.2906 48.4359 69.5753 47.8474 68.5694C47.2587 67.5637 47.0953 66.3879 47.3872 65.2586C47.8949 63.2947 49.6627 61.9888 51.5989 61.989C51.961 61.9891 52.3294 62.0348 52.696 62.1303L55.9421 63.0049V83.2018Z" fill="#FFCFB5"/>
<path d="M81.8025 81.7768H78.3411C77.1295 81.7768 76.1438 80.7868 76.1438 79.57V66.0093C76.1438 64.7925 77.1295 63.8026 78.3411 63.8026H81.8025C83.0141 63.8026 83.9998 64.7925 83.9998 66.0093V79.5702C83.9998 80.7868 83.0141 81.7768 81.8025 81.7768Z" fill="#157DF5"/>
<path d="M56.6615 52.7435L64.8097 44.7968C64.9314 44.6729 65.0136 44.5171 65.046 44.3484C65.0785 44.1797 65.06 44.0055 64.9926 43.8469C64.9253 43.6884 64.8121 43.5524 64.6668 43.4555C64.5216 43.3586 64.3505 43.3051 64.1746 43.3014L60.368 43.3014C60.0673 39.0789 66.2031 34.2721 70.1949 33.9354C70.3937 33.9142 70.5797 33.8293 70.7237 33.6939C70.8677 33.5585 70.9615 33.3803 70.9905 33.1873C71.0194 32.9943 70.9819 32.7974 70.8837 32.6274C70.7855 32.4575 70.6322 32.3242 70.4479 32.2483C60.5479 28.4284 53.3169 33.7316 51.6645 43.3014L47.8781 43.3014C47.7036 43.308 47.5347 43.3632 47.3914 43.4606C47.2481 43.558 47.1364 43.6934 47.0695 43.8507C47.0027 44.0081 46.9835 44.1809 47.0143 44.3485C47.045 44.5162 47.1244 44.6718 47.2431 44.7968L55.3914 52.7435C55.5598 52.9077 55.7883 53 56.0265 53C56.2646 53 56.4931 52.9077 56.6615 52.7435Z" fill="#40D98D"/>
<path fill-rule="evenodd" clip-rule="evenodd" d="M58.7558 54.891C58.0193 55.609 57.0362 55.9995 56.0264 55.9995C55.0167 55.9995 54.0336 55.609 53.2971 54.891L45.1069 46.9034L45.0669 46.8613C44.5524 46.3191 44.2004 45.6359 44.0635 44.8892C43.9265 44.1422 44.0126 43.3736 44.3082 42.6775C44.6035 41.9822 45.0921 41.3953 45.7055 40.9786C46.3181 40.5624 47.0328 40.3307 47.7647 40.303L47.8214 40.3009L49.2724 40.3009C50.4919 36.0052 52.8698 32.412 56.3665 30.2135C60.5801 27.5642 65.8878 27.2727 71.5279 29.4489L71.5588 29.4609L71.5894 29.4735C72.3762 29.7972 73.0461 30.373 73.4812 31.126C73.9171 31.8805 74.0876 32.7629 73.9573 33.6318C73.8271 34.5 73.4067 35.2885 72.7788 35.8789C72.1521 36.4682 71.3537 36.8284 70.5125 36.918L70.4798 36.9215L70.447 36.9243C69.3156 37.0197 67.3702 37.8888 65.6635 39.404C65.3019 39.7252 64.9902 40.0394 64.7235 40.342C65.2942 40.4254 65.8442 40.6342 66.3313 40.9591C66.9564 41.3759 67.4546 41.9688 67.7539 42.6737C68.0536 43.3794 68.1375 44.1593 67.9919 44.9153C67.8464 45.6707 67.4803 46.3586 66.9497 46.8987L66.9272 46.9216L58.7558 54.891ZM60.368 42.6927C60.3539 42.8964 60.3536 43.0993 60.368 43.3009L64.1746 43.3009C64.3505 43.3045 64.5216 43.3581 64.6668 43.4549C64.8121 43.5518 64.9253 43.6878 64.9926 43.8464C65.06 44.0049 65.0785 44.1792 65.046 44.3479C65.0135 44.5165 64.9314 44.6723 64.8097 44.7962L56.6615 52.743C56.4931 52.9072 56.2646 52.9995 56.0264 52.9995C55.7883 52.9995 55.5598 52.9072 55.3914 52.743L47.243 44.7962C47.1244 44.6712 47.045 44.5157 47.0143 44.348C46.9835 44.1803 47.0027 44.0076 47.0695 43.8502C47.1363 43.6928 47.248 43.5574 47.3913 43.4601C47.5347 43.3627 47.7036 43.3075 47.8781 43.3009L51.6645 43.3009C53.16 34.6396 59.2252 29.4733 67.7029 31.4024C67.9855 31.4667 68.2708 31.5389 68.5588 31.6191C68.6564 31.6463 68.7544 31.6744 68.8527 31.7035C69.2299 31.8151 69.6116 31.9403 69.9974 32.0796C70.0115 32.0847 70.0256 32.0898 70.0397 32.0949C70.1753 32.1441 70.3113 32.1951 70.4479 32.2478C70.6322 32.3236 70.7855 32.457 70.8837 32.6269C70.9819 32.7968 71.0194 32.9938 70.9905 33.1868C70.9615 33.3798 70.8677 33.558 70.7237 33.6934C70.5797 33.8288 70.3937 33.9137 70.1949 33.9349C70.0582 33.9464 69.919 33.9632 69.7776 33.985C69.7618 33.9874 69.746 33.9899 69.7301 33.9925C69.3077 34.0608 68.8665 34.1735 68.4154 34.3254C68.2277 34.3886 68.0382 34.4586 67.8478 34.5349C65.2301 35.5845 62.4159 37.8406 61.1067 40.3009C60.6877 41.0882 60.4229 41.8964 60.368 42.6927Z" fill="white"/>
<path d="M49.609 137.005V138.345H61.4023V137.005H70.5595C71.9067 137.005 72.9988 138.097 72.9988 139.445V168.834C72.9988 170.042 72.0195 171.022 70.8114 171.022H40.1859C38.9779 171.022 37.9985 170.042 37.9985 168.834V140.327C37.9985 138.492 39.4852 137.005 41.3189 137.005L49.609 137.005Z" fill="#157DF5"/>
<path d="M49.611 138.345H55.4958V171.022H40.1877C38.9797 171.022 38.0003 170.042 38.0003 168.834V139.216C38.0003 137.995 38.9899 137.005 40.2109 137.005H49.611V138.345Z" fill="#0965CD"/>
<path d="M50.6773 146.66H60.3256C60.9217 146.66 61.405 146.177 61.405 145.58V136.005H49.5977V145.58C49.5978 146.177 50.0811 146.66 50.6773 146.66Z" fill="#40D98D"/>
<path d="M55.4958 146.66H50.7435C50.1102 146.66 49.5969 146.146 49.5969 145.513V136.005H55.4958V146.66Z" fill="#25BB71"/>
<path d="M80.9643 176.262H68.2324L53.9113 179.688C51.5437 180.254 49.0581 180.046 46.8166 179.093L30.7168 172.253C28.4973 171.35 27.4202 168.803 28.3156 166.571C29.2121 164.338 31.7512 163.253 33.9801 164.155L49.196 170.427L53.3316 167.29L50.5039 166.584C49.3795 166.291 48.4361 165.575 47.8475 164.569C47.2588 163.564 47.0954 162.388 47.3874 161.259C47.8951 159.295 49.6628 157.989 51.5992 157.989C51.9612 157.989 52.3296 158.035 52.6962 158.13L66.9556 161.972H80.9643C81.431 161.972 81.8093 162.352 81.8093 162.821V175.413C81.8093 175.882 81.431 176.262 80.9643 176.262Z" fill="#FFDECC"/>
<path d="M55.9421 179.202L53.911 179.688C51.5435 180.254 49.0578 180.046 46.8164 179.093L30.7165 172.253C28.497 171.35 27.4199 168.803 28.3154 166.572C29.2118 164.338 31.751 163.253 33.9798 164.155L49.1957 170.427L53.3315 167.29L50.5038 166.584C49.3794 166.291 48.4359 165.575 47.8474 164.569C47.2587 163.564 47.0953 162.388 47.3872 161.259C47.8949 159.295 49.6627 157.989 51.5989 157.989C51.961 157.989 52.3294 158.035 52.696 158.13L55.9421 159.005V179.202Z" fill="#FFCFB5"/>
<path d="M81.8025 177.777H78.3411C77.1295 177.777 76.1438 176.787 76.1438 175.57V162.009C76.1438 160.792 77.1295 159.803 78.3411 159.803H81.8025C83.0141 159.803 83.9998 160.792 83.9998 162.009V175.57C83.9998 176.787 83.0141 177.777 81.8025 177.777Z" fill="#157DF5"/>
<path d="M56.6615 148.744L64.8097 140.797C64.9314 140.673 65.0136 140.517 65.046 140.348C65.0785 140.18 65.06 140.005 64.9926 139.847C64.9253 139.688 64.8121 139.552 64.6668 139.455C64.5216 139.359 64.3505 139.305 64.1746 139.301L60.368 139.301C60.0673 135.079 66.2031 130.272 70.1949 129.935C70.3937 129.914 70.5797 129.829 70.7237 129.694C70.8677 129.559 70.9615 129.38 70.9905 129.187C71.0194 128.994 70.9819 128.797 70.8837 128.627C70.7855 128.458 70.6322 128.324 70.4479 128.248C60.5479 124.428 53.3169 129.732 51.6645 139.301L47.8781 139.301C47.7036 139.308 47.5347 139.363 47.3914 139.461C47.2481 139.558 47.1364 139.693 47.0695 139.851C47.0027 140.008 46.9835 140.181 47.0143 140.349C47.045 140.516 47.1244 140.672 47.2431 140.797L55.3914 148.744C55.5598 148.908 55.7883 149 56.0265 149C56.2646 149 56.4931 148.908 56.6615 148.744Z" fill="#40D98D"/>
<path fill-rule="evenodd" clip-rule="evenodd" d="M58.7558 150.891C58.0193 151.609 57.0362 151.999 56.0264 151.999C55.0167 151.999 54.0336 151.609 53.2971 150.891L45.1069 142.903L45.0669 142.861C44.5524 142.319 44.2004 141.636 44.0635 140.889C43.9265 140.142 44.0126 139.374 44.3082 138.678C44.6035 137.982 45.0921 137.395 45.7055 136.979C46.3181 136.562 47.0328 136.331 47.7647 136.303L47.8214 136.301L49.2724 136.301C50.4919 132.005 52.8698 128.412 56.3665 126.213C60.5801 123.564 65.8878 123.273 71.5279 125.449L71.5588 125.461L71.5894 125.473C72.3762 125.797 73.0461 126.373 73.4812 127.126C73.9171 127.88 74.0876 128.763 73.9573 129.632C73.8271 130.5 73.4067 131.289 72.7788 131.879C72.1521 132.468 71.3537 132.828 70.5125 132.918L70.4798 132.921L70.447 132.924C69.3156 133.02 67.3702 133.889 65.6635 135.404C65.3019 135.725 64.9902 136.039 64.7235 136.342C65.2942 136.425 65.8442 136.634 66.3313 136.959C66.9564 137.376 67.4546 137.969 67.7539 138.674C68.0536 139.379 68.1375 140.159 67.9919 140.915C67.8464 141.671 67.4803 142.359 66.9497 142.899L66.9272 142.922L58.7558 150.891ZM60.368 138.693C60.3539 138.896 60.3536 139.099 60.368 139.301L64.1746 139.301C64.3505 139.305 64.5216 139.358 64.6668 139.455C64.8121 139.552 64.9253 139.688 64.9926 139.846C65.06 140.005 65.0785 140.179 65.046 140.348C65.0135 140.517 64.9314 140.672 64.8097 140.796L56.6615 148.743C56.4931 148.907 56.2646 148.999 56.0264 148.999C55.7883 148.999 55.5598 148.907 55.3914 148.743L47.243 140.796C47.1244 140.671 47.045 140.516 47.0143 140.348C46.9835 140.18 47.0027 140.008 47.0695 139.85C47.1363 139.693 47.248 139.557 47.3913 139.46C47.5347 139.363 47.7036 139.307 47.8781 139.301L51.6645 139.301C53.16 130.64 59.2252 125.473 67.7029 127.402C67.9855 127.467 68.2708 127.539 68.5588 127.619C68.6564 127.646 68.7544 127.674 68.8527 127.704C69.2299 127.815 69.6116 127.94 69.9974 128.08C70.0115 128.085 70.0256 128.09 70.0397 128.095C70.1753 128.144 70.3113 128.195 70.4479 128.248C70.6322 128.324 70.7855 128.457 70.8837 128.627C70.9819 128.797 71.0194 128.994 70.9905 129.187C70.9615 129.38 70.8677 129.558 70.7237 129.693C70.5797 129.829 70.3937 129.914 70.1949 129.935C70.0582 129.946 69.919 129.963 69.7776 129.985C69.7618 129.987 69.746 129.99 69.7301 129.992C69.3077 130.061 68.8665 130.174 68.4154 130.325C68.2277 130.389 68.0382 130.459 67.8478 130.535C65.2301 131.584 62.4159 133.841 61.1067 136.301C60.6877 137.088 60.4229 137.896 60.368 138.693Z" fill="white"/>
<defs>
<filter id="filter0_d_14259_56724" x="10" y="9" width="96" height="96" filterUnits="userSpaceOnUse" color-interpolation-filters="sRGB">
<feFlood flood-opacity="0" result="BackgroundImageFix"/>
<feColorMatrix in="SourceAlpha" type="matrix" values="0 0 0 0 0 0 0 0 0 0 0 0 0 0 0 0 0 0 127 0" result="hardAlpha"/>
<feOffset dx="2" dy="1"/>
<feGaussianBlur stdDeviation="4"/>
<feColorMatrix type="matrix" values="0 0 0 0 0.0392157 0 0 0 0 0.0392157 0 0 0 0 0.0627451 0 0 0 0.08 0"/>
<feBlend mode="normal" in2="BackgroundImageFix" result="effect1_dropShadow_14259_56724"/>
<feBlend mode="normal" in="SourceGraphic" in2="effect1_dropShadow_14259_56724" result="shape"/>
</filter>
</defs>
</svg>
