<svg width="112" height="208" viewBox="0 0 112 208" fill="none" xmlns="http://www.w3.org/2000/svg">
<rect x="0.5" y="0.5" width="111" height="207" rx="4.5" stroke="#9747FF" stroke-dasharray="10 5"/>
<g filter="url(#filter0_dd_7259_33337)">
<rect x="16" y="16" width="80" height="80" rx="8" fill="white"/>
</g>
<path d="M76.2164 34.9176V64.1694C76.2164 64.5482 76.0857 64.9161 75.8452 65.2104L65.3128 78.1233C65.001 78.5065 64.5321 78.7294 64.0369 78.7294H42.836C41.0198 78.7294 39.5419 77.2515 39.5419 75.4353V34.9176C39.5419 32.9159 37.9225 31.2941 35.9183 31.2941C35.0091 31.2941 34.2713 30.5562 34.2713 29.6471C34.2713 28.7379 33.3621 28 34.2713 28H69.2987C73.1133 28 76.2164 31.1031 76.2164 34.9176Z" fill="#F0F7FE"/>
<path d="M76.2153 34.9176V64.1694C76.2153 64.5482 76.0846 64.9161 75.8441 65.2104L65.3117 78.1233C64.9999 78.5065 64.531 78.7294 64.0358 78.7294H57.1094V28H69.2976C73.1122 28 76.2153 31.1031 76.2153 34.9176Z" fill="#E2EFFE"/>
<path fill-rule="evenodd" clip-rule="evenodd" d="M65.1206 34V33.5C65.1206 32.672 65.7926 32 66.6206 32C67.4486 32 68.1206 32.672 68.1206 33.5V34.059C70.3856 34.4194 72.121 36.3853 72.121 38.7501C72.121 39.7651 71.8013 40.7066 71.2572 41.4792C72.3898 42.3479 73.1211 43.7147 73.1211 45.2497C73.1211 47.8699 70.9908 49.9998 68.371 49.9998H68.1206V50.4998C68.1206 51.3278 67.4486 51.9998 66.6206 51.9998C65.7926 51.9998 65.1206 51.3278 65.1206 50.4998V49.9998H62.6211C61.7931 49.9998 61.1211 49.3278 61.1211 48.4998V35.5C61.1211 34.672 61.7931 34 62.6211 34H65.1206ZM64.1211 43.5002H67.3708L67.4131 43.5H68.371C69.3348 43.5 70.1211 44.2859 70.1211 45.2497C70.1211 46.2139 69.3348 46.9998 68.371 46.9998H64.1211V43.5002ZM67.3965 40.5C68.349 40.4862 69.121 39.7054 69.121 38.7501C69.121 37.7862 68.3351 37 67.3708 37H64.1211V40.5H67.3965Z" fill="#157DF5"/>
<path d="M67.1211 51.9145C67.7033 51.7083 68.1206 51.1527 68.1206 50.5002V50.0001H68.371C70.9908 50.0001 73.1211 47.8702 73.1211 45.25C73.1211 43.715 72.3898 42.3483 71.2572 41.4795C71.8013 40.7069 72.121 39.7654 72.121 38.7504C72.121 36.3856 70.3856 34.4197 68.1206 34.0594V33.5003C68.1206 32.8478 67.7033 32.2921 67.1211 32.0859V37.0003H67.3708C68.3351 37.0003 69.121 37.7865 69.121 38.7504C69.121 39.7057 68.349 40.4865 67.3965 40.5003H67.1211V43.5005H67.3708L67.4131 43.5003H68.371C69.3348 43.5003 70.1211 44.2862 70.1211 45.25C70.1211 46.2142 69.3348 47.0001 68.371 47.0001H67.1211V51.9145Z" fill="#157DF5"/>
<path d="M39.5412 45.349H32.2941C30.4748 45.349 29 43.8742 29 42.0549V33.2706C29 30.3597 31.3597 28 34.2706 28C37.1734 28 39.5412 30.3517 39.5412 33.2706V45.349Z" fill="#E2EFFE"/>
<path d="M51.7291 41.8371H48.2154C47.3058 41.8371 46.5684 41.0996 46.5684 40.19C46.5684 39.2804 47.3058 38.543 48.2154 38.543H51.7291C52.6388 38.543 53.3762 39.2804 53.3762 40.19C53.3762 41.0996 52.6388 41.8371 51.7291 41.8371Z" fill="#40D98D"/>
<path d="M51.7291 47.9855H48.2154C47.3058 47.9855 46.5684 47.2481 46.5684 46.3385C46.5684 45.4288 47.3058 44.6914 48.2154 44.6914H51.7291C52.6388 44.6914 53.3762 45.4288 53.3762 46.3385C53.3762 47.2481 52.6388 47.9855 51.7291 47.9855Z" fill="#282A52"/>
<path d="M51.7291 55.0129H48.2154C47.3058 55.0129 46.5684 54.2754 46.5684 53.3658C46.5684 52.4562 47.3058 51.7188 48.2154 51.7188H51.7291C52.6388 51.7188 53.3762 52.4562 53.3762 53.3658C53.3762 54.2754 52.6388 55.0129 51.7291 55.0129Z" fill="#282A52"/>
<path d="M59.5252 60.3932C59.5252 61.3023 58.7873 62.0402 57.8782 62.0402H48.2154C47.3062 62.0402 46.5684 61.3023 46.5684 60.3932C46.5684 59.484 47.3062 58.7461 48.2154 58.7461H57.8782C58.7873 58.7461 59.5252 59.484 59.5252 60.3932Z" fill="#282A52"/>
<path d="M59.5252 67.4205C59.5252 68.3297 58.7873 69.0676 57.8782 69.0676H48.2154C47.3062 69.0676 46.5684 68.3297 46.5684 67.4205C46.5684 66.5113 47.3062 65.7734 48.2154 65.7734H57.8782C58.7873 65.7734 59.5252 66.5113 59.5252 67.4205Z" fill="#157DF5"/>
<path d="M59.5251 67.4185C59.5251 68.3277 58.7872 69.0656 57.878 69.0656H57.1094V65.7715H57.878C58.7872 65.7715 59.5251 66.5094 59.5251 67.4185Z" fill="#0965CD"/>
<path d="M57.878 62.0383H57.1094V58.7441H57.878C58.7872 58.7441 59.5251 59.482 59.5251 60.3912C59.5251 61.3004 58.7872 62.0383 57.878 62.0383Z" fill="#1E203E"/>
<circle cx="69" cy="69" r="15" fill="#157DF5"/>
<path fill-rule="evenodd" clip-rule="evenodd" d="M69 84C77.2843 84 84 77.2843 84 69C84 60.7157 77.2843 54 69 54V84Z" fill="#0965CD"/>
<path d="M62.4607 73.1793C62.4748 73.013 62.5473 72.857 62.6653 72.739L72.2007 63.2036C73.0294 62.3749 74.3735 62.3755 75.2021 63.2042C76.0308 64.0328 76.0314 65.3769 75.2027 66.2056L65.6673 75.741C65.5493 75.859 65.3933 75.9315 65.227 75.9456L63.0396 76.1313C62.6029 76.1683 62.238 75.8034 62.275 75.3667L62.4607 73.1793Z" fill="#F0F7FE"/>
<path fill-rule="evenodd" clip-rule="evenodd" d="M69 66.4043L62.6653 72.739C62.5473 72.857 62.4748 73.013 62.4607 73.1793L62.275 75.3667C62.238 75.8034 62.6029 76.1683 63.0396 76.1313L65.227 75.9456C65.3933 75.9315 65.5493 75.859 65.6673 75.741L69 72.4083V66.4043Z" fill="white"/>
<path d="M76.2164 130.918V160.169C76.2164 160.548 76.0857 160.916 75.8452 161.21L65.3128 174.123C65.001 174.507 64.5321 174.729 64.0369 174.729H42.836C41.0198 174.729 39.5419 173.251 39.5419 171.435V130.918C39.5419 128.916 37.9225 127.294 35.9183 127.294C35.0091 127.294 34.2713 126.556 34.2713 125.647C34.2713 124.738 33.3621 124 34.2713 124H69.2987C73.1133 124 76.2164 127.103 76.2164 130.918Z" fill="#F0F7FE"/>
<path d="M76.2153 130.918V160.169C76.2153 160.548 76.0846 160.916 75.8441 161.21L65.3117 174.123C64.9999 174.507 64.531 174.729 64.0358 174.729H57.1094V124H69.2976C73.1122 124 76.2153 127.103 76.2153 130.918Z" fill="#E2EFFE"/>
<path fill-rule="evenodd" clip-rule="evenodd" d="M65.1206 130V129.5C65.1206 128.672 65.7926 128 66.6206 128C67.4486 128 68.1206 128.672 68.1206 129.5V130.059C70.3856 130.419 72.121 132.385 72.121 134.75C72.121 135.765 71.8013 136.707 71.2572 137.479C72.3898 138.348 73.1211 139.715 73.1211 141.25C73.1211 143.87 70.9908 146 68.371 146H68.1206V146.5C68.1206 147.328 67.4486 148 66.6206 148C65.7926 148 65.1206 147.328 65.1206 146.5V146H62.6211C61.7931 146 61.1211 145.328 61.1211 144.5V131.5C61.1211 130.672 61.7931 130 62.6211 130H65.1206ZM64.1211 139.5H67.3708L67.4131 139.5H68.371C69.3348 139.5 70.1211 140.286 70.1211 141.25C70.1211 142.214 69.3348 143 68.371 143H64.1211V139.5ZM67.3965 136.5C68.349 136.486 69.121 135.705 69.121 134.75C69.121 133.786 68.3351 133 67.3708 133H64.1211V136.5H67.3965Z" fill="#157DF5"/>
<path d="M67.1211 147.915C67.7033 147.708 68.1206 147.153 68.1206 146.5V146H68.371C70.9908 146 73.1211 143.87 73.1211 141.25C73.1211 139.715 72.3898 138.348 71.2572 137.48C71.8013 136.707 72.121 135.765 72.121 134.75C72.121 132.386 70.3856 130.42 68.1206 130.059V129.5C68.1206 128.848 67.7033 128.292 67.1211 128.086V133H67.3708C68.3351 133 69.121 133.787 69.121 134.75C69.121 135.706 68.349 136.487 67.3965 136.5H67.1211V139.5H67.3708L67.4131 139.5H68.371C69.3348 139.5 70.1211 140.286 70.1211 141.25C70.1211 142.214 69.3348 143 68.371 143H67.1211V147.915Z" fill="#157DF5"/>
<path d="M39.5412 141.349H32.2941C30.4748 141.349 29 139.874 29 138.055V129.271C29 126.36 31.3597 124 34.2706 124C37.1734 124 39.5412 126.352 39.5412 129.271V141.349Z" fill="#E2EFFE"/>
<path d="M51.7291 137.837H48.2154C47.3058 137.837 46.5684 137.1 46.5684 136.19C46.5684 135.28 47.3058 134.543 48.2154 134.543H51.7291C52.6388 134.543 53.3762 135.28 53.3762 136.19C53.3762 137.1 52.6388 137.837 51.7291 137.837Z" fill="#40D98D"/>
<path d="M51.7291 143.986H48.2154C47.3058 143.986 46.5684 143.248 46.5684 142.338C46.5684 141.429 47.3058 140.691 48.2154 140.691H51.7291C52.6388 140.691 53.3762 141.429 53.3762 142.338C53.3762 143.248 52.6388 143.986 51.7291 143.986Z" fill="#282A52"/>
<path d="M51.7291 151.013H48.2154C47.3058 151.013 46.5684 150.275 46.5684 149.366C46.5684 148.456 47.3058 147.719 48.2154 147.719H51.7291C52.6388 147.719 53.3762 148.456 53.3762 149.366C53.3762 150.275 52.6388 151.013 51.7291 151.013Z" fill="#282A52"/>
<path d="M59.5252 156.393C59.5252 157.302 58.7873 158.04 57.8782 158.04H48.2154C47.3062 158.04 46.5684 157.302 46.5684 156.393C46.5684 155.484 47.3062 154.746 48.2154 154.746H57.8782C58.7873 154.746 59.5252 155.484 59.5252 156.393Z" fill="#282A52"/>
<path d="M59.5252 163.42C59.5252 164.33 58.7873 165.068 57.8782 165.068H48.2154C47.3062 165.068 46.5684 164.33 46.5684 163.42C46.5684 162.511 47.3062 161.773 48.2154 161.773H57.8782C58.7873 161.773 59.5252 162.511 59.5252 163.42Z" fill="#157DF5"/>
<path d="M59.5251 163.419C59.5251 164.328 58.7872 165.066 57.878 165.066H57.1094V161.771H57.878C58.7872 161.771 59.5251 162.509 59.5251 163.419Z" fill="#0965CD"/>
<path d="M57.878 158.038H57.1094V154.744H57.878C58.7872 154.744 59.5251 155.482 59.5251 156.391C59.5251 157.3 58.7872 158.038 57.878 158.038Z" fill="#1E203E"/>
<circle cx="69" cy="165" r="15" fill="#157DF5"/>
<path fill-rule="evenodd" clip-rule="evenodd" d="M69 180C77.2843 180 84 173.284 84 165C84 156.716 77.2843 150 69 150V180Z" fill="#0965CD"/>
<path d="M62.4607 169.179C62.4748 169.013 62.5473 168.857 62.6653 168.739L72.2007 159.204C73.0294 158.375 74.3735 158.376 75.2021 159.204C76.0308 160.033 76.0314 161.377 75.2027 162.206L65.6673 171.741C65.5493 171.859 65.3933 171.932 65.227 171.946L63.0396 172.131C62.6029 172.168 62.238 171.803 62.275 171.367L62.4607 169.179Z" fill="#F0F7FE"/>
<path fill-rule="evenodd" clip-rule="evenodd" d="M69 162.404L62.6653 168.739C62.5473 168.857 62.4748 169.013 62.4607 169.179L62.275 171.367C62.238 171.803 62.6029 172.168 63.0396 172.131L65.227 171.946C65.3933 171.932 65.5493 171.859 65.6673 171.741L69 168.408V162.404Z" fill="white"/>
<defs>
<filter id="filter0_dd_7259_33337" x="6" y="9" width="100" height="100" filterUnits="userSpaceOnUse" color-interpolation-filters="sRGB">
<feFlood flood-opacity="0" result="BackgroundImageFix"/>
<feColorMatrix in="SourceAlpha" type="matrix" values="0 0 0 0 0 0 0 0 0 0 0 0 0 0 0 0 0 0 127 0" result="hardAlpha"/>
<feOffset dy="3"/>
<feGaussianBlur stdDeviation="5"/>
<feColorMatrix type="matrix" values="0 0 0 0 0.516667 0 0 0 0 0.578358 0 0 0 0 0.775 0 0 0 0.12 0"/>
<feBlend mode="normal" in2="BackgroundImageFix" result="effect1_dropShadow_7259_33337"/>
<feColorMatrix in="SourceAlpha" type="matrix" values="0 0 0 0 0 0 0 0 0 0 0 0 0 0 0 0 0 0 127 0" result="hardAlpha"/>
<feOffset dy="1"/>
<feGaussianBlur stdDeviation="3"/>
<feColorMatrix type="matrix" values="0 0 0 0 0.709809 0 0 0 0 0.788943 0 0 0 0 0.920833 0 0 0 0.15 0"/>
<feBlend mode="normal" in2="effect1_dropShadow_7259_33337" result="effect2_dropShadow_7259_33337"/>
<feBlend mode="normal" in="SourceGraphic" in2="effect2_dropShadow_7259_33337" result="shape"/>
</filter>
</defs>
</svg>
