<svg width="112" height="208" viewBox="0 0 112 208" fill="none" xmlns="http://www.w3.org/2000/svg">
<rect x="0.5" y="0.5" width="111" height="207" rx="4.5" stroke="#9747FF" stroke-dasharray="10 5"/>
<g filter="url(#filter0_d_50361_11360)">
<rect x="16" y="16" width="80" height="80" rx="8" fill="white"/>
</g>
<path d="M78.6268 74H33.3732C31.5113 74 30 72.4906 30 70.6312V41.3688C30 39.5094 31.5113 38 33.3732 38H78.6268C80.4886 38 82 39.5094 82 41.3688V70.6312C82 72.4906 80.4885 74 78.6268 74Z" fill="#DEE5ED"/>
<path d="M78.6268 38H56V74H78.6267C80.4886 74 81.9999 72.4907 81.9999 70.6312V41.3687C82 39.5094 80.4885 38 78.6268 38Z" fill="#CDD8E4"/>
<path d="M30 43.1211H82V50.1867H30V43.1211Z" fill="#157DF5"/>
<path d="M56 43.1211H81.9999V50.1867H56V43.1211Z" fill="#0965CD"/>
<path d="M58.8365 61.1007H34.6656C34.2384 61.1007 33.888 60.7508 33.888 60.3242V55.7961C33.888 55.3695 34.2384 55.0195 34.6656 55.0195H58.8475C59.2746 55.0195 59.6251 55.3695 59.6251 55.7961V60.3242C59.6251 60.7507 59.2746 61.1007 58.8365 61.1007Z" fill="#7B97B7"/>
<path d="M58.8366 55.0078H56V61.089H58.8366C59.2637 61.089 59.6141 60.739 59.6141 60.3125V55.7843C59.6251 55.3578 59.2746 55.0078 58.8366 55.0078Z" fill="#5A7DA5"/>
<path d="M72 52C65.3832 52 60 46.6168 60 40C60 33.3832 65.3832 28 72 28C78.6168 28 84 33.3832 84 40C84 46.6168 78.6168 52 72 52Z" fill="#FFF1AE"/>
<path d="M72 28V52C78.6168 52 84 46.6168 84 40C84 33.3832 78.6168 28 72 28Z" fill="#FEE87B"/>
<path d="M72 30.6665C66.8536 30.6665 62.6667 34.8534 62.6667 39.9998C62.6667 45.1462 66.8536 49.3332 72 49.3332C77.1464 49.3332 81.3333 45.1462 81.3333 39.9998C81.3333 34.8534 77.1464 30.6665 72 30.6665Z" fill="#FEE048"/>
<path d="M72 30.6665V49.3332C77.1464 49.3332 81.3333 45.1462 81.3333 39.9998C81.3333 34.8534 77.1464 30.6665 72 30.6665Z" fill="#FED601"/>
<path fill-rule="evenodd" clip-rule="evenodd" d="M70.3702 33.307V32.9007C70.3702 32.2278 70.9164 31.6816 71.5893 31.6816C72.2622 31.6816 72.8083 32.2278 72.8083 32.9007V33.355C74.6491 33.6479 76.0594 35.2455 76.0594 37.1674C76.0594 37.9923 75.7996 38.7575 75.3575 39.3854C76.2779 40.0914 76.8722 41.2022 76.8722 42.4497C76.8722 44.5791 75.141 46.31 73.0118 46.31H72.8083V46.7164C72.8083 47.3893 72.2622 47.9355 71.5893 47.9355C70.9164 47.9355 70.3702 47.3893 70.3702 46.7164V46.31H68.3389C67.666 46.31 67.1198 45.7639 67.1198 45.091V34.5261C67.1198 33.8532 67.666 33.307 68.3389 33.307H70.3702ZM69.5579 41.0278H72.199L72.2334 41.0277H73.0118C73.7951 41.0277 74.4341 41.6663 74.4341 42.4497C74.4341 43.2333 73.7951 43.872 73.0118 43.872H69.5579V41.0278ZM72.2198 38.5896C72.9939 38.5784 73.6213 37.9438 73.6213 37.1674C73.6213 36.3841 72.9826 35.7451 72.199 35.7451H69.5579V38.5896H72.2198Z" fill="#FDAA49"/>
<path d="M71.996 47.8661C72.4692 47.6985 72.8083 47.247 72.8083 46.7167V46.3103H73.0118C75.141 46.3103 76.8722 44.5793 76.8722 42.4499C76.8722 41.2024 76.2779 40.0916 75.3575 39.3856C75.7996 38.7577 76.0594 37.9925 76.0594 37.1677C76.0594 35.2458 74.6491 33.6481 72.8083 33.3553V32.9009C72.8083 32.3706 72.4692 31.919 71.996 31.7515V35.7453H72.199C72.9826 35.7453 73.6213 36.3843 73.6213 37.1677C73.6213 37.944 72.9939 38.5786 72.2198 38.5898H71.996V41.028H72.199L72.2334 41.0279H73.0118C73.7951 41.0279 74.4341 41.6666 74.4341 42.4499C74.4341 43.2335 73.7951 43.8722 73.0118 43.8722H71.996V47.8661Z" fill="#FD9317"/>
<path fill-rule="evenodd" clip-rule="evenodd" d="M40 84C46.6274 84 52 78.6274 52 72C52 65.3726 46.6274 60 40 60C33.3726 60 28 65.3726 28 72C28 78.6274 33.3726 84 40 84Z" fill="white"/>
<path d="M40 81.6014C45.3019 81.6014 49.6 77.3033 49.6 72.0014C49.6 66.6994 45.3019 62.4014 40 62.4014C34.698 62.4014 30.4 66.6994 30.4 72.0014C30.4 77.3033 34.698 81.6014 40 81.6014Z" fill="#40D98D"/>
<path d="M44.9264 68.5116C44.3674 67.9525 43.4609 67.9525 42.9019 68.5116L38.9595 72.454L37.1 70.5945C36.541 70.0352 35.6346 70.0354 35.0755 70.5945C34.5165 71.1535 34.5165 72.06 35.0755 72.619L37.9472 75.4908C38.2157 75.7593 38.5798 75.9101 38.9596 75.9101C39.3392 75.9101 39.7034 75.7593 39.9718 75.4908L44.9265 70.5361C45.4856 69.9771 45.4856 69.0706 44.9264 68.5116Z" fill="white"/>
<path d="M39.999 62.4014C39.9974 62.4014 39.9959 62.4014 39.9943 62.4014V81.6013C39.9959 81.6013 39.9974 81.6014 39.999 81.6014C45.301 81.6014 49.599 77.3033 49.599 72.0014C49.599 66.6994 45.301 62.4014 39.999 62.4014Z" fill="#25BB71"/>
<path d="M42.9019 68.5145L39.9962 71.4202V75.4693L44.9264 70.539C45.4855 69.98 45.4855 69.0735 44.9264 68.5145C44.3675 67.9555 43.4609 67.9555 42.9019 68.5145Z" fill="#DEE5ED"/>
<path d="M78.6268 170H33.3732C31.5113 170 30 168.491 30 166.631V137.369C30 135.509 31.5113 134 33.3732 134H78.6268C80.4886 134 82 135.509 82 137.369V166.631C82 168.491 80.4885 170 78.6268 170Z" fill="#DEE5ED"/>
<path d="M78.6268 134H56V170H78.6267C80.4886 170 81.9999 168.491 81.9999 166.631V137.369C82 135.509 80.4885 134 78.6268 134Z" fill="#CDD8E4"/>
<path d="M30 139.121H82V146.187H30V139.121Z" fill="#157DF5"/>
<path d="M56 139.121H81.9999V146.187H56V139.121Z" fill="#0965CD"/>
<path d="M58.8365 157.101H34.6656C34.2384 157.101 33.888 156.751 33.888 156.324V151.796C33.888 151.37 34.2384 151.02 34.6656 151.02H58.8475C59.2746 151.02 59.6251 151.37 59.6251 151.796V156.324C59.6251 156.751 59.2746 157.101 58.8365 157.101Z" fill="#7B97B7"/>
<path d="M58.8366 151.008H56V157.089H58.8366C59.2637 157.089 59.6141 156.739 59.6141 156.312V151.784C59.6251 151.358 59.2746 151.008 58.8366 151.008Z" fill="#5A7DA5"/>
<path d="M72 148C65.3832 148 60 142.617 60 136C60 129.383 65.3832 124 72 124C78.6168 124 84 129.383 84 136C84 142.617 78.6168 148 72 148Z" fill="#FFF1AE"/>
<path d="M72 124V148C78.6168 148 84 142.617 84 136C84 129.383 78.6168 124 72 124Z" fill="#FEE87B"/>
<path d="M72 126.667C66.8536 126.667 62.6667 130.853 62.6667 136C62.6667 141.146 66.8536 145.333 72 145.333C77.1464 145.333 81.3333 141.146 81.3333 136C81.3333 130.853 77.1464 126.667 72 126.667Z" fill="#FEE048"/>
<path d="M72 126.667V145.333C77.1464 145.333 81.3333 141.146 81.3333 136C81.3333 130.853 77.1464 126.667 72 126.667Z" fill="#FED601"/>
<path fill-rule="evenodd" clip-rule="evenodd" d="M70.3702 129.307V128.901C70.3702 128.228 70.9164 127.682 71.5893 127.682C72.2622 127.682 72.8083 128.228 72.8083 128.901V129.355C74.6491 129.648 76.0594 131.246 76.0594 133.167C76.0594 133.992 75.7996 134.757 75.3575 135.385C76.2779 136.091 76.8722 137.202 76.8722 138.45C76.8722 140.579 75.141 142.31 73.0118 142.31H72.8083V142.716C72.8083 143.389 72.2622 143.935 71.5893 143.935C70.9164 143.935 70.3702 143.389 70.3702 142.716V142.31H68.3389C67.666 142.31 67.1198 141.764 67.1198 141.091V130.526C67.1198 129.853 67.666 129.307 68.3389 129.307H70.3702ZM69.5579 137.028H72.199L72.2334 137.028H73.0118C73.7951 137.028 74.4341 137.666 74.4341 138.45C74.4341 139.233 73.7951 139.872 73.0118 139.872H69.5579V137.028ZM72.2198 134.59C72.9939 134.578 73.6213 133.944 73.6213 133.167C73.6213 132.384 72.9826 131.745 72.199 131.745H69.5579V134.59H72.2198Z" fill="#FDAA49"/>
<path d="M71.996 143.866C72.4692 143.699 72.8083 143.247 72.8083 142.717V142.31H73.0118C75.141 142.31 76.8722 140.579 76.8722 138.45C76.8722 137.202 76.2779 136.092 75.3575 135.386C75.7996 134.758 76.0594 133.993 76.0594 133.168C76.0594 131.246 74.6491 129.648 72.8083 129.355V128.901C72.8083 128.371 72.4692 127.919 71.996 127.751V131.745H72.199C72.9826 131.745 73.6213 132.384 73.6213 133.168C73.6213 133.944 72.9939 134.579 72.2198 134.59H71.996V137.028H72.199L72.2334 137.028H73.0118C73.7951 137.028 74.4341 137.667 74.4341 138.45C74.4341 139.234 73.7951 139.872 73.0118 139.872H71.996V143.866Z" fill="#FD9317"/>
<path fill-rule="evenodd" clip-rule="evenodd" d="M40 180C46.6274 180 52 174.627 52 168C52 161.373 46.6274 156 40 156C33.3726 156 28 161.373 28 168C28 174.627 33.3726 180 40 180Z" fill="white"/>
<path d="M40 177.601C45.3019 177.601 49.6 173.303 49.6 168.001C49.6 162.699 45.3019 158.401 40 158.401C34.698 158.401 30.4 162.699 30.4 168.001C30.4 173.303 34.698 177.601 40 177.601Z" fill="#40D98D"/>
<path d="M44.9264 164.512C44.3674 163.953 43.4609 163.953 42.9019 164.512L38.9595 168.454L37.1 166.594C36.541 166.035 35.6346 166.035 35.0755 166.594C34.5165 167.154 34.5165 168.06 35.0755 168.619L37.9472 171.491C38.2157 171.759 38.5798 171.91 38.9596 171.91C39.3392 171.91 39.7034 171.759 39.9718 171.491L44.9265 166.536C45.4856 165.977 45.4856 165.071 44.9264 164.512Z" fill="white"/>
<path d="M39.999 158.401C39.9974 158.401 39.9959 158.401 39.9943 158.401V177.601C39.9959 177.601 39.9974 177.601 39.999 177.601C45.301 177.601 49.599 173.303 49.599 168.001C49.599 162.699 45.301 158.401 39.999 158.401Z" fill="#25BB71"/>
<path d="M42.9019 164.515L39.9962 167.42V171.469L44.9264 166.539C45.4855 165.98 45.4855 165.073 44.9264 164.515C44.3675 163.955 43.4609 163.955 42.9019 164.515Z" fill="#DEE5ED"/>
<defs>
<filter id="filter0_d_50361_11360" x="10" y="9" width="96" height="96" filterUnits="userSpaceOnUse" color-interpolation-filters="sRGB">
<feFlood flood-opacity="0" result="BackgroundImageFix"/>
<feColorMatrix in="SourceAlpha" type="matrix" values="0 0 0 0 0 0 0 0 0 0 0 0 0 0 0 0 0 0 127 0" result="hardAlpha"/>
<feOffset dx="2" dy="1"/>
<feGaussianBlur stdDeviation="4"/>
<feColorMatrix type="matrix" values="0 0 0 0 0.0392157 0 0 0 0 0.0392157 0 0 0 0 0.0627451 0 0 0 0.08 0"/>
<feBlend mode="normal" in2="BackgroundImageFix" result="effect1_dropShadow_50361_11360"/>
<feBlend mode="normal" in="SourceGraphic" in2="effect1_dropShadow_50361_11360" result="shape"/>
</filter>
</defs>
</svg>
