<svg width="112" height="208" viewBox="0 0 112 208" fill="none" xmlns="http://www.w3.org/2000/svg">
<rect x="0.5" y="0.5" width="111" height="207" rx="4.5" stroke="#9747FF" stroke-dasharray="10 5"/>
<g filter="url(#filter0_d_6367_25585)">
<rect x="16" y="16" width="80" height="80" rx="8" fill="white"/>
</g>
<path d="M48 58.9783C57.2583 58.9783 65.1269 53.4427 68 50.613V35.1484H28V50.613C30.8731 53.4428 38.7417 58.9783 48 58.9783Z" fill="#E2EFFE"/>
<path d="M47.9982 58.9783C57.2564 58.9783 65.1251 53.4428 67.9982 50.613V35.1484H47.9982V58.9783Z" fill="#B6D7FC"/>
<path d="M48 42.2979C59.0457 42.2979 68 39.0972 68 35.1489C68 31.2007 59.0457 28 48 28C36.9543 28 28 31.2007 28 35.1489C28 39.0972 36.9543 42.2979 48 42.2979Z" fill="#F0F7FE"/>
<path d="M67.9999 61.3862C65.1268 58.5565 57.2582 56.5955 47.9999 56.5955C38.7416 56.5955 30.873 58.5564 27.9999 61.3862V76.8508C27.9999 80.7991 36.9542 83.9998 47.9999 83.9998C59.0456 83.9998 67.9999 80.7991 67.9999 76.8508V61.3862Z" fill="#E2EFFE"/>
<path d="M67.9982 35.149C67.9982 31.2007 59.0439 28 47.9982 28V42.2979C59.0439 42.298 67.9982 39.0973 67.9982 35.149Z" fill="#E2EFFE"/>
<path d="M67.9982 61.3865C65.1251 58.5566 57.2564 56.5957 47.9982 56.5957V84C59.0438 84 67.9981 80.7993 67.9982 76.851V61.3865Z" fill="#B6D7FC"/>
<path d="M47.998 55.1227C48.0081 55.1227 48.0181 55.1227 48.0281 55.1227C57.2725 55.1227 65.1294 53.248 67.998 50.6367V64.5645C66.123 66.7959 60.498 69.7006 48.0281 69.7006L47.998 69.6723V55.1227Z" fill="#0965CD"/>
<path d="M48 55.1247C47.99 55.1247 47.98 55.1247 47.97 55.1247C38.7256 55.1247 30.8686 53.2499 28 50.6387V64.5665C29.875 66.7978 35.5 69.7025 47.97 69.7025L48 69.6742V55.1247Z" fill="#157DF5"/>
<path d="M81.0381 71.8808C81.0322 71.4955 81.2144 71.1257 81.5453 70.9284L83.1646 69.9628C83.6297 69.6856 83.7896 69.0885 83.5254 68.616L80.628 63.4331C80.3531 62.9413 79.7264 62.7736 79.2426 63.0624L77.665 64.004C77.3244 64.2073 76.8985 64.1856 76.5598 63.9793C76.5135 63.9511 76.4669 63.9234 76.4202 63.896C76.0919 63.7041 75.8738 63.3609 75.8738 62.9806V61C75.8738 60.4477 75.4261 60 74.8738 60H69.126C68.5737 60 68.126 60.4477 68.126 61V62.9807C68.126 63.361 67.9079 63.7042 67.5796 63.8961C67.5329 63.9235 67.4864 63.9512 67.4401 63.9794C67.1013 64.1857 66.6754 64.2073 66.3348 64.0041L64.7573 63.0625C64.2735 62.7737 63.6468 62.9414 63.3719 63.4332L60.4745 68.616C60.2103 69.0886 60.3702 69.6856 60.8353 69.9629L62.4547 70.9285C62.7856 71.1258 62.9678 71.4956 62.9619 71.8807C62.9607 71.96 62.9607 72.0394 62.9619 72.1194C62.9678 72.5046 62.7856 72.8744 62.4547 73.0717L60.8353 74.0372C60.3703 74.3144 60.2103 74.9115 60.4745 75.3841L63.3719 80.5669C63.6468 81.0587 64.2735 81.2264 64.7573 80.9376L66.3349 79.996C66.6755 79.7927 67.1014 79.8144 67.4401 80.0207C67.4865 80.0489 67.533 80.0766 67.5797 80.104C67.908 80.2959 68.1261 80.6391 68.1261 81.0194V83C68.1261 83.5523 68.5738 84 69.1261 84H74.8739C75.4262 84 75.8739 83.5523 75.8739 83V81.0193C75.8739 80.639 76.092 80.2958 76.4203 80.1039C76.467 80.0765 76.5135 80.0488 76.5599 80.0206C76.8986 79.8143 77.3245 79.7927 77.6651 79.9959L79.2427 80.9375C79.7265 81.2263 80.3532 81.0586 80.6281 80.5668L83.5255 75.384C83.7897 74.9114 83.6298 74.3144 83.1647 74.0371L81.5453 73.0715C81.2144 72.8742 81.0322 72.5044 81.0381 72.1192C81.0393 72.0401 81.0393 71.9607 81.0381 71.8808ZM72 76C69.8639 76 68.1261 74.2057 68.1261 72C68.1261 69.7943 69.8639 68 72 68C74.1361 68 75.8739 69.7943 75.8739 72C75.8739 74.2057 74.1361 76 72 76Z" fill="#40D98D"/>
<path d="M75.8739 81.0193C75.8739 80.639 76.092 80.2958 76.4203 80.1039C76.467 80.0765 76.5135 80.0488 76.5599 80.0206C76.8986 79.8143 77.3245 79.7927 77.6651 79.9959L79.2427 80.9375C79.7265 81.2263 80.3532 81.0586 80.6281 80.5668L83.5255 75.384C83.7897 74.9114 83.6298 74.3144 83.1647 74.0371L81.5453 73.0715C81.2144 72.8742 81.0322 72.5044 81.0381 72.1193C81.0394 72.0401 81.0394 71.9606 81.0381 71.8807C81.0322 71.4955 81.2145 71.1256 81.5454 70.9283L83.1647 69.9627C83.6298 69.6855 83.7897 69.0885 83.5255 68.6159L80.6281 63.433C80.3532 62.9412 79.7265 62.7735 79.2427 63.0623L77.6651 64.0039C77.3245 64.2072 76.8986 64.1855 76.5599 63.9792C76.5135 63.951 76.467 63.9233 76.4203 63.896C76.092 63.704 75.8739 63.3608 75.8739 62.9806V61C75.8739 60.4477 75.4262 60 74.8739 60H72V67C72 67.5523 72.4556 67.9866 72.9884 68.1319C74.6473 68.5842 75.8739 70.1469 75.8739 72C75.8739 73.8531 74.6473 75.4158 72.9884 75.8681C72.4556 76.0134 72 76.4477 72 77V84H74.8739C75.4262 84 75.8739 83.5523 75.8739 83V81.0193Z" fill="#25BB71"/>
<path d="M48 154.978C57.2583 154.978 65.1269 149.443 68 146.613V131.148H28V146.613C30.8731 149.443 38.7417 154.978 48 154.978Z" fill="#E2EFFE"/>
<path d="M47.9982 154.978C57.2564 154.978 65.1251 149.443 67.9982 146.613V131.148H47.9982V154.978Z" fill="#B6D7FC"/>
<path d="M48 138.298C59.0457 138.298 68 135.097 68 131.149C68 127.201 59.0457 124 48 124C36.9543 124 28 127.201 28 131.149C28 135.097 36.9543 138.298 48 138.298Z" fill="#F0F7FE"/>
<path d="M67.9999 157.386C65.1268 154.557 57.2582 152.595 47.9999 152.595C38.7416 152.595 30.873 154.556 27.9999 157.386V172.851C27.9999 176.799 36.9542 180 47.9999 180C59.0456 180 67.9999 176.799 67.9999 172.851V157.386Z" fill="#E2EFFE"/>
<path d="M67.9982 131.149C67.9982 127.201 59.0439 124 47.9982 124V138.298C59.0439 138.298 67.9982 135.097 67.9982 131.149Z" fill="#E2EFFE"/>
<path d="M67.9982 157.386C65.1251 154.557 57.2564 152.596 47.9982 152.596V180C59.0438 180 67.9981 176.799 67.9982 172.851V157.386Z" fill="#B6D7FC"/>
<path d="M47.998 151.123C48.0081 151.123 48.0181 151.123 48.0281 151.123C57.2725 151.123 65.1294 149.248 67.998 146.637V160.565C66.123 162.796 60.498 165.701 48.0281 165.701L47.998 165.672V151.123Z" fill="#0965CD"/>
<path d="M48 151.125C47.99 151.125 47.98 151.125 47.97 151.125C38.7256 151.125 30.8686 149.25 28 146.639V160.566C29.875 162.798 35.5 165.703 47.97 165.703L48 165.674V151.125Z" fill="#157DF5"/>
<path d="M81.0381 167.881C81.0322 167.496 81.2144 167.126 81.5453 166.928L83.1646 165.963C83.6297 165.686 83.7896 165.089 83.5254 164.616L80.628 159.433C80.3531 158.941 79.7264 158.774 79.2426 159.062L77.665 160.004C77.3244 160.207 76.8985 160.186 76.5598 159.979C76.5135 159.951 76.4669 159.923 76.4202 159.896C76.0919 159.704 75.8738 159.361 75.8738 158.981V157C75.8738 156.448 75.4261 156 74.8738 156H69.126C68.5737 156 68.126 156.448 68.126 157V158.981C68.126 159.361 67.9079 159.704 67.5796 159.896C67.5329 159.923 67.4864 159.951 67.4401 159.979C67.1013 160.186 66.6754 160.207 66.3348 160.004L64.7573 159.062C64.2735 158.774 63.6468 158.941 63.3719 159.433L60.4745 164.616C60.2103 165.089 60.3702 165.686 60.8353 165.963L62.4547 166.929C62.7856 167.126 62.9678 167.496 62.9619 167.881C62.9607 167.96 62.9607 168.039 62.9619 168.119C62.9678 168.505 62.7856 168.874 62.4547 169.072L60.8353 170.037C60.3703 170.314 60.2103 170.911 60.4745 171.384L63.3719 176.567C63.6468 177.059 64.2735 177.226 64.7573 176.938L66.3349 175.996C66.6755 175.793 67.1014 175.814 67.4401 176.021C67.4865 176.049 67.533 176.077 67.5797 176.104C67.908 176.296 68.1261 176.639 68.1261 177.019V179C68.1261 179.552 68.5738 180 69.1261 180H74.8739C75.4262 180 75.8739 179.552 75.8739 179V177.019C75.8739 176.639 76.092 176.296 76.4203 176.104C76.467 176.077 76.5135 176.049 76.5599 176.021C76.8986 175.814 77.3245 175.793 77.6651 175.996L79.2427 176.938C79.7265 177.226 80.3532 177.059 80.6281 176.567L83.5255 171.384C83.7897 170.911 83.6298 170.314 83.1647 170.037L81.5453 169.072C81.2144 168.874 81.0322 168.504 81.0381 168.119C81.0393 168.04 81.0393 167.961 81.0381 167.881ZM72 172C69.8639 172 68.1261 170.206 68.1261 168C68.1261 165.794 69.8639 164 72 164C74.1361 164 75.8739 165.794 75.8739 168C75.8739 170.206 74.1361 172 72 172Z" fill="#40D98D"/>
<path d="M75.8739 177.019C75.8739 176.639 76.092 176.296 76.4203 176.104C76.467 176.077 76.5135 176.049 76.5599 176.021C76.8986 175.814 77.3245 175.793 77.6651 175.996L79.2427 176.938C79.7265 177.226 80.3532 177.059 80.6281 176.567L83.5255 171.384C83.7897 170.911 83.6298 170.314 83.1647 170.037L81.5453 169.071C81.2144 168.874 81.0322 168.504 81.0381 168.119C81.0394 168.04 81.0394 167.961 81.0381 167.881C81.0322 167.495 81.2145 167.126 81.5454 166.928L83.1647 165.963C83.6298 165.685 83.7897 165.088 83.5255 164.616L80.6281 159.433C80.3532 158.941 79.7265 158.774 79.2427 159.062L77.6651 160.004C77.3245 160.207 76.8986 160.186 76.5599 159.979C76.5135 159.951 76.467 159.923 76.4203 159.896C76.092 159.704 75.8739 159.361 75.8739 158.981V157C75.8739 156.448 75.4262 156 74.8739 156H72V163C72 163.552 72.4556 163.987 72.9884 164.132C74.6473 164.584 75.8739 166.147 75.8739 168C75.8739 169.853 74.6473 171.416 72.9884 171.868C72.4556 172.013 72 172.448 72 173V180H74.8739C75.4262 180 75.8739 179.552 75.8739 179V177.019Z" fill="#25BB71"/>
<defs>
<filter id="filter0_d_6367_25585" x="10" y="9" width="96" height="96" filterUnits="userSpaceOnUse" color-interpolation-filters="sRGB">
<feFlood flood-opacity="0" result="BackgroundImageFix"/>
<feColorMatrix in="SourceAlpha" type="matrix" values="0 0 0 0 0 0 0 0 0 0 0 0 0 0 0 0 0 0 127 0" result="hardAlpha"/>
<feOffset dx="2" dy="1"/>
<feGaussianBlur stdDeviation="4"/>
<feColorMatrix type="matrix" values="0 0 0 0 0.0392157 0 0 0 0 0.0392157 0 0 0 0 0.0627451 0 0 0 0.08 0"/>
<feBlend mode="normal" in2="BackgroundImageFix" result="effect1_dropShadow_6367_25585"/>
<feBlend mode="normal" in="SourceGraphic" in2="effect1_dropShadow_6367_25585" result="shape"/>
</filter>
</defs>
</svg>
