<svg width="112" height="208" viewBox="0 0 112 208" fill="none" xmlns="http://www.w3.org/2000/svg">
<rect x="0.5" y="0.5" width="111" height="207" rx="4.5" stroke="#9747FF" stroke-dasharray="10 5"/>
<g filter="url(#filter0_d_6367_23631)">
<rect x="16" y="16" width="80" height="80" rx="8" fill="white"/>
</g>
<path d="M47.8047 70.957H64.1974V83.0384H47.8047V70.957Z" fill="#40D98D"/>
<path d="M55.9961 70.957H64.1956V83.0384H55.9961V70.957Z" fill="#25BB71"/>
<path d="M78.6411 71.6435H33.3601C31.3059 71.6435 29.6406 69.9782 29.6406 67.924V33.364C29.6406 31.3098 31.3059 29.6445 33.3601 29.6445H78.6411C80.6954 29.6445 82.3606 31.3098 82.3606 33.364V67.924C82.3606 69.9781 80.6953 71.6435 78.6411 71.6435Z" fill="#E2EFFE"/>
<path d="M78.6398 29.6445H55.9961V71.6435H78.6397C80.694 71.6435 82.3592 69.9782 82.3592 67.924V33.364C82.3593 31.3098 80.694 29.6445 78.6398 29.6445Z" fill="#B6D7FC"/>
<path d="M68.9713 80.7109H43.0267C42.121 80.7109 41.3867 81.4452 41.3867 82.3509C41.3867 83.2566 42.121 83.9909 43.0267 83.9909H68.9712C69.8769 83.9909 70.6112 83.2566 70.6112 82.3509C70.6112 81.4452 69.877 80.7109 68.9713 80.7109Z" fill="#157DF5"/>
<path d="M29.6602 69.4103C29.6602 70.3472 30.6484 71.1095 31.8632 71.1095H79.834C81.0488 71.1095 82.0371 70.3472 82.0371 69.4103V63.2852H29.6602V69.4103Z" fill="#F0F7FE"/>
<path d="M68.9716 80.7109H55.9961V83.9909H68.9715C69.8772 83.9909 70.6115 83.2566 70.6115 82.3509C70.6115 81.4452 69.8773 80.7109 68.9716 80.7109Z" fill="#0965CD"/>
<path d="M68.1556 55.0448C67.2499 55.0448 66.5156 54.3105 66.5156 53.4048V46.6322C66.5156 45.7265 67.2499 44.9922 68.1556 44.9922C69.0613 44.9922 69.7956 45.7265 69.7956 46.6322V53.4048C69.7956 54.3105 69.0614 55.0448 68.1556 55.0448Z" fill="#157DF5"/>
<path d="M65.2616 51.7608H63.5183V48.7689C63.5183 47.8632 62.784 47.1289 61.8783 47.1289C60.9726 47.1289 60.2383 47.8632 60.2383 48.7689V53.4008C60.2383 54.3065 60.9726 55.0408 61.8783 55.0408H65.2616V51.7608Z" fill="#40D98D"/>
<path d="M74.436 39.4531C73.5302 39.4531 72.796 40.1874 72.796 41.0931V51.7623H72.6719V55.0423H74.436C75.3417 55.0423 76.076 54.308 76.076 53.4023V41.0931C76.076 40.1874 75.3417 39.4531 74.436 39.4531Z" fill="#40D98D"/>
<path d="M75.2793 55.0414H61.0369C60.5958 55.0414 60.2383 54.6839 60.2383 54.2428V51.7461H76.0778V54.2428C76.0778 54.6839 75.7204 55.0414 75.2793 55.0414Z" fill="#E2EFFE"/>
<path d="M55.9435 71.1093H79.8329C81.0477 71.1093 82.036 70.3471 82.036 69.4102V63.285H55.9435V71.1093Z" fill="#E2EFFE"/>
<path d="M78.6405 73.2827H33.3595C30.4042 73.2827 28 70.8785 28 67.9232V33.3634C28 30.4082 30.4042 28.0039 33.3595 28.0039H78.6405C81.5958 28.0039 84 30.4081 84 33.3634V67.9233C84 70.8785 81.5958 73.2827 78.6405 73.2827ZM33.3595 31.2839C32.2128 31.2839 31.28 32.2167 31.28 33.3634V67.9233C31.28 69.0699 32.2128 70.0028 33.3595 70.0028H78.6405C79.7872 70.0028 80.72 69.07 80.72 67.9233V33.3634C80.72 32.2168 79.7872 31.2839 78.6405 31.2839H33.3595Z" fill="#157DF5"/>
<path d="M78.6398 28.0039H55.9961V31.2839H78.6397C79.7864 31.2839 80.7192 32.2167 80.7192 33.3634V67.9233C80.7192 69.0699 79.7864 70.0028 78.6397 70.0028H55.9961V73.2828H78.6397C81.595 73.2828 83.9992 70.8786 83.9992 67.9233V33.3634C83.9993 30.4082 81.5951 28.0039 78.6398 28.0039Z" fill="#0965CD"/>
<path d="M42.1541 39.9591V39.6133H36.4696C36.0355 39.6133 35.6836 39.9652 35.6836 40.3993V54.2574C35.6836 54.6915 36.0355 55.0434 36.4696 55.0434H43.5942V39.9591H42.1541Z" fill="#157DF5"/>
<path d="M51.02 39.6751C50.9259 39.6353 50.8225 39.6133 50.7141 39.6133H45.026V39.9591H43.5938V55.0435H50.7141C50.8226 55.0435 50.9259 55.0216 51.02 54.9818C51.0435 54.9718 51.0664 54.9608 51.0886 54.9486C51.1777 54.9002 51.2565 54.8352 51.3205 54.7575C51.3526 54.7187 51.381 54.6767 51.4052 54.6322C51.4293 54.5877 51.4494 54.5405 51.4647 54.4913C51.4877 54.4175 51.5001 54.339 51.5001 54.2576V40.3993C51.4999 40.0737 51.302 39.7943 51.02 39.6751Z" fill="#0965CD"/>
<path d="M43.594 45.8799C42.7987 45.8799 42.1541 45.2352 42.1541 44.44V39.6133H45.0341V44.44C45.0339 45.2352 44.3892 45.8799 43.594 45.8799Z" fill="#E2EFFE"/>
<path d="M45.0337 44.44V39.6133H43.5938V45.8799C44.3889 45.88 45.0337 45.2353 45.0337 44.44Z" fill="#B6D7FC"/>
<path d="M47.8047 166.957H64.1974V179.038H47.8047V166.957Z" fill="#40D98D"/>
<path d="M55.9961 166.957H64.1956V179.038H55.9961V166.957Z" fill="#25BB71"/>
<path d="M78.6411 167.643H33.3601C31.3059 167.643 29.6406 165.978 29.6406 163.924V129.364C29.6406 127.31 31.3059 125.645 33.3601 125.645H78.6411C80.6954 125.645 82.3606 127.31 82.3606 129.364V163.924C82.3606 165.978 80.6953 167.643 78.6411 167.643Z" fill="#E2EFFE"/>
<path d="M78.6398 125.645H55.9961V167.643H78.6397C80.694 167.643 82.3592 165.978 82.3592 163.924V129.364C82.3593 127.31 80.694 125.645 78.6398 125.645Z" fill="#B6D7FC"/>
<path d="M68.9713 176.711H43.0267C42.121 176.711 41.3867 177.445 41.3867 178.351C41.3867 179.257 42.121 179.991 43.0267 179.991H68.9712C69.8769 179.991 70.6112 179.257 70.6112 178.351C70.6112 177.445 69.877 176.711 68.9713 176.711Z" fill="#157DF5"/>
<path d="M29.6602 165.41C29.6602 166.347 30.6484 167.109 31.8632 167.109H79.834C81.0488 167.109 82.0371 166.347 82.0371 165.41V159.285H29.6602V165.41Z" fill="#F0F7FE"/>
<path d="M68.9716 176.711H55.9961V179.991H68.9715C69.8772 179.991 70.6115 179.257 70.6115 178.351C70.6115 177.445 69.8773 176.711 68.9716 176.711Z" fill="#0965CD"/>
<path d="M68.1556 151.045C67.2499 151.045 66.5156 150.311 66.5156 149.405V142.632C66.5156 141.726 67.2499 140.992 68.1556 140.992C69.0613 140.992 69.7956 141.726 69.7956 142.632V149.405C69.7956 150.311 69.0614 151.045 68.1556 151.045Z" fill="#157DF5"/>
<path d="M65.2616 147.761H63.5183V144.769C63.5183 143.863 62.784 143.129 61.8783 143.129C60.9726 143.129 60.2383 143.863 60.2383 144.769V149.401C60.2383 150.307 60.9726 151.041 61.8783 151.041H65.2616V147.761Z" fill="#40D98D"/>
<path d="M74.436 135.453C73.5302 135.453 72.796 136.187 72.796 137.093V147.762H72.6719V151.042H74.436C75.3417 151.042 76.076 150.308 76.076 149.402V137.093C76.076 136.187 75.3417 135.453 74.436 135.453Z" fill="#40D98D"/>
<path d="M75.2793 151.041H61.0369C60.5958 151.041 60.2383 150.684 60.2383 150.243V147.746H76.0778V150.243C76.0778 150.684 75.7204 151.041 75.2793 151.041Z" fill="#E2EFFE"/>
<path d="M55.9435 167.109H79.8329C81.0477 167.109 82.036 166.347 82.036 165.41V159.285H55.9435V167.109Z" fill="#E2EFFE"/>
<path d="M78.6405 169.283H33.3595C30.4042 169.283 28 166.878 28 163.923V129.363C28 126.408 30.4042 124.004 33.3595 124.004H78.6405C81.5958 124.004 84 126.408 84 129.363V163.923C84 166.878 81.5958 169.283 78.6405 169.283ZM33.3595 127.284C32.2128 127.284 31.28 128.217 31.28 129.363V163.923C31.28 165.07 32.2128 166.003 33.3595 166.003H78.6405C79.7872 166.003 80.72 165.07 80.72 163.923V129.363C80.72 128.217 79.7872 127.284 78.6405 127.284H33.3595Z" fill="#157DF5"/>
<path d="M78.6398 124.004H55.9961V127.284H78.6397C79.7864 127.284 80.7192 128.217 80.7192 129.363V163.923C80.7192 165.07 79.7864 166.003 78.6397 166.003H55.9961V169.283H78.6397C81.595 169.283 83.9992 166.879 83.9992 163.923V129.363C83.9993 126.408 81.5951 124.004 78.6398 124.004Z" fill="#0965CD"/>
<path d="M42.1541 135.959V135.613H36.4696C36.0355 135.613 35.6836 135.965 35.6836 136.399V150.257C35.6836 150.691 36.0355 151.043 36.4696 151.043H43.5942V135.959H42.1541Z" fill="#157DF5"/>
<path d="M51.02 135.675C50.9259 135.635 50.8225 135.613 50.7141 135.613H45.026V135.959H43.5938V151.044H50.7141C50.8226 151.044 50.9259 151.022 51.02 150.982C51.0435 150.972 51.0664 150.961 51.0886 150.949C51.1777 150.9 51.2565 150.835 51.3205 150.758C51.3526 150.719 51.381 150.677 51.4052 150.632C51.4293 150.588 51.4494 150.541 51.4647 150.491C51.4877 150.418 51.5001 150.339 51.5001 150.258V136.399C51.4999 136.074 51.302 135.794 51.02 135.675Z" fill="#0965CD"/>
<path d="M43.594 141.88C42.7987 141.88 42.1541 141.235 42.1541 140.44V135.613H45.0341V140.44C45.0339 141.235 44.3892 141.88 43.594 141.88Z" fill="#E2EFFE"/>
<path d="M45.0337 140.44V135.613H43.5938V141.88C44.3889 141.88 45.0337 141.235 45.0337 140.44Z" fill="#B6D7FC"/>
<defs>
<filter id="filter0_d_6367_23631" x="10" y="9" width="96" height="96" filterUnits="userSpaceOnUse" color-interpolation-filters="sRGB">
<feFlood flood-opacity="0" result="BackgroundImageFix"/>
<feColorMatrix in="SourceAlpha" type="matrix" values="0 0 0 0 0 0 0 0 0 0 0 0 0 0 0 0 0 0 127 0" result="hardAlpha"/>
<feOffset dx="2" dy="1"/>
<feGaussianBlur stdDeviation="4"/>
<feColorMatrix type="matrix" values="0 0 0 0 0.0392157 0 0 0 0 0.0392157 0 0 0 0 0.0627451 0 0 0 0.08 0"/>
<feBlend mode="normal" in2="BackgroundImageFix" result="effect1_dropShadow_6367_23631"/>
<feBlend mode="normal" in="SourceGraphic" in2="effect1_dropShadow_6367_23631" result="shape"/>
</filter>
</defs>
</svg>
