<svg width="112" height="208" viewBox="0 0 112 208" fill="none" xmlns="http://www.w3.org/2000/svg">
<rect x="0.5" y="0.5" width="111" height="207" rx="4.5" stroke="#9747FF" stroke-dasharray="10 5"/>
<g filter="url(#filter0_d_8359_36298)">
<rect x="16" y="16" width="80" height="80" rx="8" fill="white"/>
</g>
<path d="M64.0938 29.6406V72.4062C64.0938 73.5108 63.1983 74.4062 62.0938 74.4062H30C28.8954 74.4062 28 73.5108 28 72.4062V29.6406C28 28.7218 28.7218 28 29.6406 28H62.4531C63.372 28 64.0938 28.7218 64.0938 29.6406Z" fill="#F0F7FE"/>
<path d="M78.8438 66.4062H55.5V31.9219H77.2031C78.1092 31.9219 78.8438 32.6564 78.8438 33.5625V66.4062Z" fill="#F0F7FE"/>
<path d="M64.0938 29.6406V73.4062C64.0938 73.9585 63.646 74.4062 63.0938 74.4062H47.3281V28H62.4531C63.372 28 64.0938 28.7218 64.0938 29.6406Z" fill="#E2EFFE"/>
<path d="M59.2031 46.1562C59.2031 47.0749 58.4814 47.7969 57.5625 47.7969H52.6406C51.7218 47.7969 51 47.0749 51 46.1562C51 45.2374 51.7218 44.5156 52.6406 44.5156H57.5625C58.4814 44.5156 59.2031 45.2374 59.2031 46.1562Z" fill="#1E203E"/>
<path d="M59.2031 53.1562C59.2031 54.0749 58.4814 54.7969 57.5625 54.7969H52.6406C51.7218 54.7969 51 54.0749 51 53.1562C51 52.2374 51.7218 51.5156 52.6406 51.5156H57.5625C58.4814 51.5156 59.2031 52.2374 59.2031 53.1562Z" fill="#1E203E"/>
<path d="M59.2031 39.5938C59.2031 40.5126 58.4814 41.2344 57.5625 41.2344H52.6406C51.7218 41.2344 51 40.5126 51 39.5938C51 38.6749 51.7218 37.9531 52.6406 37.9531H57.5625C58.4814 37.9531 59.2031 38.6749 59.2031 39.5938Z" fill="#25BB71"/>
<path d="M83.7226 73.1329H83.5332L81.491 68.803H81.7242L80.9003 67.0398C80.733 66.6774 80.3702 66.4453 79.9689 66.4453H74.2595L71.9634 72.9006L74.4861 81.0908H83.1376C83.6089 81.0908 83.9911 80.709 83.9916 80.2378C83.9916 80.2378 83.9984 75.4542 83.9985 73.7938C83.9985 73.7665 83.9926 73.7401 83.9811 73.7153L83.7226 73.1329Z" fill="#25BB71"/>
<path d="M81.7233 68.8008H78.0332C77.7345 68.8008 77.4924 69.0429 77.4924 69.3415V72.4699C77.4924 72.8348 77.7883 73.1307 78.1532 73.1307H83.7216L81.7233 68.8008Z" fill="#F0F7FE"/>
<path d="M55.4751 75.6212V80.2418C55.4751 80.6632 55.8953 81.0912 56.4137 81.0912H74.486V75.6211L55.4751 75.6212Z" fill="#40D98D"/>
<path d="M64.0764 75.6211H74.4866V81.0912H64.0764V75.6211Z" fill="#25BB71"/>
<path d="M74.486 76.5617H54.4549C54.0711 76.5617 53.76 76.2506 53.76 75.8668V64.6949C53.76 64.3111 54.0711 64 54.4549 64H73.7911C74.1749 64 74.486 64.3111 74.486 64.6949V67.5312V76.5617Z" fill="#157DF5"/>
<path d="M60.5091 83.0566C61.5581 83.0566 62.4086 82.2062 62.4086 81.1572C62.4086 80.1082 61.5581 79.2578 60.5091 79.2578C59.46 79.2578 58.6096 80.1082 58.6096 81.1572C58.6096 82.2062 59.46 83.0566 60.5091 83.0566Z" fill="#157DF5"/>
<path d="M60.5104 84.0006C58.9432 84.0006 57.6682 82.7256 57.6682 81.1585C57.6682 79.5914 58.9432 78.3164 60.5104 78.3164C62.0776 78.3164 63.3527 79.5914 63.3527 81.1585C63.3527 82.7256 62.0776 84.0006 60.5104 84.0006ZM60.5104 80.2019C59.9829 80.2019 59.5537 80.631 59.5537 81.1585C59.5537 81.686 59.9829 82.1152 60.5104 82.1152C61.038 82.1152 61.4671 81.686 61.4671 81.1585C61.4671 80.631 61.038 80.2019 60.5104 80.2019Z" fill="#1E203E"/>
<path d="M79.4192 83.0566C80.4683 83.0566 81.3187 82.2062 81.3187 81.1572C81.3187 80.1082 80.4683 79.2578 79.4192 79.2578C78.3702 79.2578 77.5198 80.1082 77.5198 81.1572C77.5198 82.2062 78.3702 83.0566 79.4192 83.0566Z" fill="#0965CD"/>
<path d="M79.4186 83.9967C77.8514 83.9967 76.5764 82.7217 76.5764 81.1546C76.5764 79.5875 77.8514 78.3125 79.4186 78.3125C80.9858 78.3125 82.2609 79.5875 82.2609 81.1546C82.2609 82.7217 80.9858 83.9967 79.4186 83.9967ZM79.4186 80.1979C78.8911 80.1979 78.4619 80.6271 78.4619 81.1546C78.4619 81.6821 78.8911 82.1113 79.4186 82.1113C79.9462 82.1113 80.3753 81.6821 80.3753 81.1546C80.3753 80.6271 79.9462 80.1979 79.4186 80.1979Z" fill="#1E203E"/>
<path d="M73.7897 64H64.0745V76.5617H74.4846V64.6949C74.4846 64.3111 74.1735 64 73.7897 64Z" fill="#0965CD"/>
<path d="M38.0012 60C32.4788 60 28.002 64.5998 28.002 70.2739C28.002 70.2739 27.6284 78.8041 37.1957 83.8142C37.6663 84.0606 38.2227 84.0625 38.6935 83.8166C41.0353 82.5933 48.0004 78.2817 48.0004 70.2739C48.0004 64.5998 43.5236 60 38.0012 60Z" fill="#F54B5E"/>
<path d="M38 60H38.0012C43.5236 60 48.0004 64.5998 48.0004 70.2739C48.0004 78.2817 41.0353 82.5933 38.6935 83.8166C38.475 83.9307 38.2382 83.9914 38 83.9992V60Z" fill="#F3263D"/>
<circle cx="38" cy="70" r="4" fill="#F0F7FE"/>
<path d="M38 74V66C35.7909 66 34 67.7909 34 70C34 72.2091 35.7909 74 38 74Z" fill="white"/>
<path d="M40.2311 43.6515C39.8294 43.5214 39.6472 43.4566 39.5833 43.4363C36.3532 42.3384 36.2892 41.8938 36.2892 42.0077C35.8695 41.7565 35.685 41.4358 35.7961 40.8438C36.2107 38.7688 39.4634 39.2035 40.2114 39.9423C41.2699 40.9185 42.9905 40.1652 42.9905 38.7246C42.9905 38.1251 42.671 37.6013 42.1944 37.3114C41.9604 37.0774 40.8737 36.436 39.5833 36.176C39.5833 35.8496 39.6021 35.4277 39.5251 35.2164C39.3246 34.4148 38.4435 33.8131 37.5245 34.0535C36.7669 34.2588 36.2892 34.9198 36.2892 35.649C36.2892 36.3802 36.3153 36.2693 36.2233 36.2968C32.5588 37.1682 31.1577 42.0759 33.9558 44.3828C35.2181 45.4277 37.6638 46.2778 39.2067 46.782C40.2331 47.1182 40.8741 47.7709 40.7703 48.843C40.7598 48.8742 40.7434 49.3021 40.4343 49.8027C39.9003 50.6819 38.9589 51.1103 37.9263 51.1171C36.2572 51.1275 35.7808 51.0492 34.5005 50.2869C33.7219 49.8159 32.7096 50.064 32.2385 50.8426C31.7674 51.6211 32.0156 52.6335 32.7941 53.1045C34.0328 53.8511 34.9688 54.2149 36.2892 54.3508V54.958C36.2892 55.8683 37.027 56.6051 37.9362 56.6051C38.8454 56.6051 39.5833 55.8683 39.5833 54.958V54.2026C44.8609 52.8646 46.0088 45.5354 40.2311 43.6515Z" fill="#157DF5"/>
<path d="M42.1945 37.3114C41.9256 37.0425 40.7792 36.4122 39.5834 36.1761C39.5834 35.6477 39.5982 35.5142 39.5351 35.2526C39.4142 34.5886 38.7134 34.039 38.0396 34.0052V39.3285C39.4456 39.2808 40.1863 39.9423 40.2115 39.9423C41.27 40.9185 42.9906 40.1652 42.9906 38.7246C42.9906 38.1251 42.6711 37.6013 42.1945 37.3114ZM40.8242 43.8755C40.6365 43.7503 39.456 43.4393 38.0396 42.8708V46.3856C39.0683 46.7504 39.4161 46.8317 39.6614 46.9654C41.7742 48.0218 40.6918 51.0243 38.0396 51.1138V56.6018C38.8735 56.5601 39.5834 55.8512 39.5834 54.958V54.2026C44.716 52.867 45.8882 46.0384 40.8242 43.8755Z" fill="#0965CD"/>
<path d="M64.0938 125.641V168.406C64.0938 169.511 63.1983 170.406 62.0938 170.406H30C28.8954 170.406 28 169.511 28 168.406V125.641C28 124.722 28.7218 124 29.6406 124H62.4531C63.372 124 64.0938 124.722 64.0938 125.641Z" fill="#F0F7FE"/>
<path d="M78.8438 162.406H55.5V127.922H77.2031C78.1092 127.922 78.8438 128.656 78.8438 129.562V162.406Z" fill="#F0F7FE"/>
<path d="M64.0938 125.641V169.406C64.0938 169.959 63.646 170.406 63.0938 170.406H47.3281V124H62.4531C63.372 124 64.0938 124.722 64.0938 125.641Z" fill="#E2EFFE"/>
<path d="M59.2031 142.156C59.2031 143.075 58.4814 143.797 57.5625 143.797H52.6406C51.7218 143.797 51 143.075 51 142.156C51 141.237 51.7218 140.516 52.6406 140.516H57.5625C58.4814 140.516 59.2031 141.237 59.2031 142.156Z" fill="#1E203E"/>
<path d="M59.2031 149.156C59.2031 150.075 58.4814 150.797 57.5625 150.797H52.6406C51.7218 150.797 51 150.075 51 149.156C51 148.237 51.7218 147.516 52.6406 147.516H57.5625C58.4814 147.516 59.2031 148.237 59.2031 149.156Z" fill="#1E203E"/>
<path d="M59.2031 135.594C59.2031 136.513 58.4814 137.234 57.5625 137.234H52.6406C51.7218 137.234 51 136.513 51 135.594C51 134.675 51.7218 133.953 52.6406 133.953H57.5625C58.4814 133.953 59.2031 134.675 59.2031 135.594Z" fill="#25BB71"/>
<path d="M83.7226 169.133H83.5332L81.491 164.803H81.7242L80.9003 163.04C80.733 162.677 80.3702 162.445 79.9689 162.445H74.2595L71.9634 168.901L74.4861 177.091H83.1376C83.6089 177.091 83.9911 176.709 83.9916 176.238C83.9916 176.238 83.9984 171.454 83.9985 169.794C83.9985 169.766 83.9926 169.74 83.9811 169.715L83.7226 169.133Z" fill="#25BB71"/>
<path d="M81.7233 164.801H78.0332C77.7345 164.801 77.4924 165.043 77.4924 165.342V168.47C77.4924 168.835 77.7883 169.131 78.1532 169.131H83.7216L81.7233 164.801Z" fill="#F0F7FE"/>
<path d="M55.4751 171.621V176.242C55.4751 176.663 55.8953 177.091 56.4137 177.091H74.486V171.621L55.4751 171.621Z" fill="#40D98D"/>
<path d="M64.0764 171.621H74.4866V177.091H64.0764V171.621Z" fill="#25BB71"/>
<path d="M74.486 172.562H54.4549C54.0711 172.562 53.76 172.251 53.76 171.867V160.695C53.76 160.311 54.0711 160 54.4549 160H73.7911C74.1749 160 74.486 160.311 74.486 160.695V163.531V172.562Z" fill="#157DF5"/>
<path d="M60.5091 179.057C61.5581 179.057 62.4086 178.206 62.4086 177.157C62.4086 176.108 61.5581 175.258 60.5091 175.258C59.46 175.258 58.6096 176.108 58.6096 177.157C58.6096 178.206 59.46 179.057 60.5091 179.057Z" fill="#157DF5"/>
<path d="M60.5104 180.001C58.9432 180.001 57.6682 178.726 57.6682 177.159C57.6682 175.591 58.9432 174.316 60.5104 174.316C62.0776 174.316 63.3527 175.591 63.3527 177.159C63.3527 178.726 62.0776 180.001 60.5104 180.001ZM60.5104 176.202C59.9829 176.202 59.5537 176.631 59.5537 177.159C59.5537 177.686 59.9829 178.115 60.5104 178.115C61.038 178.115 61.4671 177.686 61.4671 177.159C61.4671 176.631 61.038 176.202 60.5104 176.202Z" fill="#1E203E"/>
<path d="M79.4192 179.057C80.4683 179.057 81.3187 178.206 81.3187 177.157C81.3187 176.108 80.4683 175.258 79.4192 175.258C78.3702 175.258 77.5198 176.108 77.5198 177.157C77.5198 178.206 78.3702 179.057 79.4192 179.057Z" fill="#0965CD"/>
<path d="M79.4186 179.997C77.8514 179.997 76.5764 178.722 76.5764 177.155C76.5764 175.587 77.8514 174.312 79.4186 174.312C80.9858 174.312 82.2609 175.587 82.2609 177.155C82.2609 178.722 80.9858 179.997 79.4186 179.997ZM79.4186 176.198C78.8911 176.198 78.4619 176.627 78.4619 177.155C78.4619 177.682 78.8911 178.111 79.4186 178.111C79.9462 178.111 80.3753 177.682 80.3753 177.155C80.3753 176.627 79.9462 176.198 79.4186 176.198Z" fill="#1E203E"/>
<path d="M73.7897 160H64.0745V172.562H74.4846V160.695C74.4846 160.311 74.1735 160 73.7897 160Z" fill="#0965CD"/>
<path d="M38.0012 156C32.4788 156 28.002 160.6 28.002 166.274C28.002 166.274 27.6284 174.804 37.1957 179.814C37.6663 180.061 38.2227 180.062 38.6935 179.817C41.0353 178.593 48.0004 174.282 48.0004 166.274C48.0004 160.6 43.5236 156 38.0012 156Z" fill="#F54B5E"/>
<path d="M38 156H38.0012C43.5236 156 48.0004 160.6 48.0004 166.274C48.0004 174.282 41.0353 178.593 38.6935 179.817C38.475 179.931 38.2382 179.991 38 179.999V156Z" fill="#F3263D"/>
<circle cx="38" cy="166" r="4" fill="#F0F7FE"/>
<path d="M38 170V162C35.7909 162 34 163.791 34 166C34 168.209 35.7909 170 38 170Z" fill="white"/>
<path d="M40.2311 139.651C39.8294 139.521 39.6472 139.457 39.5833 139.436C36.3532 138.338 36.2892 137.894 36.2892 138.008C35.8695 137.757 35.685 137.436 35.7961 136.844C36.2107 134.769 39.4634 135.203 40.2114 135.942C41.2699 136.918 42.9905 136.165 42.9905 134.725C42.9905 134.125 42.671 133.601 42.1944 133.311C41.9604 133.077 40.8737 132.436 39.5833 132.176C39.5833 131.85 39.6021 131.428 39.5251 131.216C39.3246 130.415 38.4435 129.813 37.5245 130.054C36.7669 130.259 36.2892 130.92 36.2892 131.649C36.2892 132.38 36.3153 132.269 36.2233 132.297C32.5588 133.168 31.1577 138.076 33.9558 140.383C35.2181 141.428 37.6638 142.278 39.2067 142.782C40.2331 143.118 40.8741 143.771 40.7703 144.843C40.7598 144.874 40.7434 145.302 40.4343 145.803C39.9003 146.682 38.9589 147.11 37.9263 147.117C36.2572 147.127 35.7808 147.049 34.5005 146.287C33.7219 145.816 32.7096 146.064 32.2385 146.843C31.7674 147.621 32.0156 148.633 32.7941 149.105C34.0328 149.851 34.9688 150.215 36.2892 150.351V150.958C36.2892 151.868 37.027 152.605 37.9362 152.605C38.8454 152.605 39.5833 151.868 39.5833 150.958V150.203C44.8609 148.865 46.0088 141.535 40.2311 139.651Z" fill="#157DF5"/>
<path d="M42.1945 133.311C41.9256 133.043 40.7792 132.412 39.5834 132.176C39.5834 131.648 39.5982 131.514 39.5351 131.253C39.4142 130.589 38.7134 130.039 38.0396 130.005V135.329C39.4456 135.281 40.1863 135.942 40.2115 135.942C41.27 136.919 42.9906 136.165 42.9906 134.725C42.9906 134.125 42.6711 133.601 42.1945 133.311ZM40.8242 139.876C40.6365 139.75 39.456 139.439 38.0396 138.871V142.386C39.0683 142.75 39.4161 142.832 39.6614 142.965C41.7742 144.022 40.6918 147.024 38.0396 147.114V152.602C38.8735 152.56 39.5834 151.851 39.5834 150.958V150.203C44.716 148.867 45.8882 142.038 40.8242 139.876Z" fill="#0965CD"/>
<defs>
<filter id="filter0_d_8359_36298" x="10" y="9" width="96" height="96" filterUnits="userSpaceOnUse" color-interpolation-filters="sRGB">
<feFlood flood-opacity="0" result="BackgroundImageFix"/>
<feColorMatrix in="SourceAlpha" type="matrix" values="0 0 0 0 0 0 0 0 0 0 0 0 0 0 0 0 0 0 127 0" result="hardAlpha"/>
<feOffset dx="2" dy="1"/>
<feGaussianBlur stdDeviation="4"/>
<feColorMatrix type="matrix" values="0 0 0 0 0.0392157 0 0 0 0 0.0392157 0 0 0 0 0.0627451 0 0 0 0.08 0"/>
<feBlend mode="normal" in2="BackgroundImageFix" result="effect1_dropShadow_8359_36298"/>
<feBlend mode="normal" in="SourceGraphic" in2="effect1_dropShadow_8359_36298" result="shape"/>
</filter>
</defs>
</svg>
