<svg width="112" height="208" viewBox="0 0 112 208" fill="none" xmlns="http://www.w3.org/2000/svg">
<rect x="0.5" y="0.5" width="111" height="207" rx="4.5" stroke="#9747FF" stroke-dasharray="10 5"/>
<g filter="url(#filter0_d_6367_23735)">
<rect x="16" y="16" width="80" height="80" rx="8" fill="white"/>
</g>
<path fill-rule="evenodd" clip-rule="evenodd" d="M35.3594 37.9994C35.3594 37.0936 36.0936 36.3594 36.9994 36.3594H67.9994C73.3234 36.3594 77.6394 40.6754 77.6394 45.9994C77.6394 51.3234 73.3234 55.6394 67.9994 55.6394H45.4994C41.7107 55.6394 38.6394 58.7107 38.6394 62.4994C38.6394 66.288 41.7107 69.3594 45.4994 69.3594H75.9994C76.9051 69.3594 77.6394 70.0936 77.6394 70.9994C77.6394 71.9051 76.9051 72.6394 75.9994 72.6394H45.4994C39.8992 72.6394 35.3594 68.0995 35.3594 62.4994C35.3594 56.8992 39.8992 52.3594 45.4994 52.3594H67.9994C71.5119 52.3594 74.3594 49.5119 74.3594 45.9994C74.3594 42.4868 71.5119 39.6394 67.9994 39.6394H36.9994C36.0936 39.6394 35.3594 38.9051 35.3594 37.9994Z" fill="#1E203E"/>
<path d="M35.566 28.4044V28H28.919C28.4114 28 28 28.4116 28 28.9191V45.1236C28 45.6313 28.4115 46.0427 28.919 46.0427H37.2498V28.4044H35.566Z" fill="#157DF5"/>
<path d="M45.9336 28.0722C45.8237 28.0257 45.7027 28 45.5758 28H38.9247V28.4044H37.25V46.0428H45.5757C46.2306 46.0428 46.4949 45.513 46.4949 45.1236V28.9191C46.4949 28.5383 46.2635 28.2117 45.9336 28.0722Z" fill="#0965CD"/>
<path d="M37.3085 35.3276H37.1916C36.294 35.3276 35.5664 34.6 35.5664 33.7025V28H38.934V33.7026C38.9337 34.6 38.2061 35.3276 37.3085 35.3276Z" fill="#E2EFFE"/>
<path d="M38.9338 33.6439V28H37.25V35.3276C38.18 35.3276 38.9338 34.5738 38.9338 33.6439Z" fill="#B6D7FC"/>
<path d="M77.3373 61C73.6557 61 70.6712 64.0665 70.6712 67.8493C70.6712 67.8493 70.4222 73.5361 76.8003 76.8761C77.114 77.0404 77.4849 77.0417 77.7988 76.8777C79.3599 76.0622 84.0033 73.1878 84.0033 67.8493C84.0033 64.0665 81.0188 61 77.3373 61Z" fill="#40D98D"/>
<path d="M77.3368 70.3333C78.8097 70.3333 80.0037 69.1394 80.0037 67.6667C80.0037 66.1939 78.8097 65 77.3368 65C75.8639 65 74.6699 66.1939 74.6699 67.6667C74.6699 69.1394 75.8639 70.3333 77.3368 70.3333Z" fill="white"/>
<path d="M56.6665 47C53.9053 47 51.667 49.2999 51.667 52.137C51.667 52.137 51.4802 56.4021 56.2638 58.9071C56.499 59.0303 56.7772 59.0312 57.0126 58.9083C58.1835 58.2967 61.666 56.1409 61.666 52.137C61.666 49.2999 59.4276 47 56.6665 47Z" fill="#40D98D"/>
<path d="M56.6662 54C57.7708 54 58.6663 53.1046 58.6663 52C58.6663 50.8954 57.7708 50 56.6662 50C55.5615 50 54.666 50.8954 54.666 52C54.666 53.1046 55.5615 54 56.6662 54Z" fill="white"/>
<path d="M76.0008 28C71.583 28 68.0016 31.6798 68.0016 36.2192C68.0016 36.2192 67.7027 43.0433 75.3564 47.0514C75.7329 47.2485 76.178 47.25 76.5546 47.0533C78.428 46.0747 84 42.6254 84 36.2192C84 31.6798 80.4186 28 76.0008 28Z" fill="#F3263D"/>
<path d="M75.9999 28H76.0009C80.4186 28 84 31.6798 84 36.2192C84 42.6254 78.4281 46.0747 76.5546 47.0533C76.3799 47.1445 76.1904 47.1931 75.9999 47.1993V28Z" fill="#F54B5E"/>
<ellipse cx="76.0007" cy="36.0008" rx="3.19994" ry="3.2" fill="#F0F7FE"/>
<path d="M76.0007 39.2008V32.8008C74.2334 32.8008 72.8008 34.2335 72.8008 36.0008C72.8008 37.7681 74.2334 39.2008 76.0007 39.2008Z" fill="white"/>
<path d="M36.0014 60C30.4789 60 26.002 64.5998 26.002 70.2739C26.002 70.2739 25.6284 78.8041 35.1959 83.8142C35.6665 84.0606 36.2229 84.0625 36.6937 83.8166C39.0356 82.5933 46.0008 78.2817 46.0008 70.2739C46.0008 64.5998 41.5239 60 36.0014 60Z" fill="#157DF5"/>
<path d="M36.0002 60H36.0015C41.5239 60 46.0008 64.5998 46.0008 70.2739C46.0008 78.2817 39.0356 82.5933 36.6937 83.8166C36.4753 83.9307 36.2384 83.9914 36.0002 83.9992V60Z" fill="#0965CD"/>
<ellipse cx="36.0001" cy="70.002" rx="4.00008" ry="4" fill="#F0F7FE"/>
<path d="M36.0001 74.002V66.002C33.7909 66.002 32 67.7928 32 70.002C32 72.2111 33.7909 74.002 36.0001 74.002Z" fill="white"/>
<path fill-rule="evenodd" clip-rule="evenodd" d="M35.3594 133.999C35.3594 133.094 36.0936 132.359 36.9994 132.359H67.9994C73.3234 132.359 77.6394 136.675 77.6394 141.999C77.6394 147.323 73.3234 151.639 67.9994 151.639H45.4994C41.7107 151.639 38.6394 154.711 38.6394 158.499C38.6394 162.288 41.7107 165.359 45.4994 165.359H75.9994C76.9051 165.359 77.6394 166.094 77.6394 166.999C77.6394 167.905 76.9051 168.639 75.9994 168.639H45.4994C39.8992 168.639 35.3594 164.1 35.3594 158.499C35.3594 152.899 39.8992 148.359 45.4994 148.359H67.9994C71.5119 148.359 74.3594 145.512 74.3594 141.999C74.3594 138.487 71.5119 135.639 67.9994 135.639H36.9994C36.0936 135.639 35.3594 134.905 35.3594 133.999Z" fill="#1E203E"/>
<path d="M35.566 124.404V124H28.919C28.4114 124 28 124.412 28 124.919V141.124C28 141.631 28.4115 142.043 28.919 142.043H37.2498V124.404H35.566Z" fill="#157DF5"/>
<path d="M45.9336 124.072C45.8237 124.026 45.7027 124 45.5758 124H38.9247V124.404H37.25V142.043H45.5757C46.2306 142.043 46.4949 141.513 46.4949 141.124V124.919C46.4949 124.538 46.2635 124.212 45.9336 124.072Z" fill="#0965CD"/>
<path d="M37.3085 131.328H37.1916C36.294 131.328 35.5664 130.6 35.5664 129.702V124H38.934V129.703C38.9337 130.6 38.2061 131.328 37.3085 131.328Z" fill="#E2EFFE"/>
<path d="M38.9338 129.644V124H37.25V131.328C38.18 131.328 38.9338 130.574 38.9338 129.644Z" fill="#B6D7FC"/>
<path d="M77.3373 157C73.6557 157 70.6712 160.067 70.6712 163.849C70.6712 163.849 70.4222 169.536 76.8003 172.876C77.114 173.04 77.4849 173.042 77.7988 172.878C79.3599 172.062 84.0033 169.188 84.0033 163.849C84.0033 160.067 81.0188 157 77.3373 157Z" fill="#40D98D"/>
<path d="M77.3368 166.333C78.8097 166.333 80.0037 165.139 80.0037 163.667C80.0037 162.194 78.8097 161 77.3368 161C75.8639 161 74.6699 162.194 74.6699 163.667C74.6699 165.139 75.8639 166.333 77.3368 166.333Z" fill="white"/>
<path d="M56.6665 143C53.9053 143 51.667 145.3 51.667 148.137C51.667 148.137 51.4802 152.402 56.2638 154.907C56.499 155.03 56.7772 155.031 57.0126 154.908C58.1835 154.297 61.666 152.141 61.666 148.137C61.666 145.3 59.4276 143 56.6665 143Z" fill="#40D98D"/>
<path d="M56.6662 150C57.7708 150 58.6663 149.105 58.6663 148C58.6663 146.895 57.7708 146 56.6662 146C55.5615 146 54.666 146.895 54.666 148C54.666 149.105 55.5615 150 56.6662 150Z" fill="white"/>
<path d="M76.0008 124C71.583 124 68.0016 127.68 68.0016 132.219C68.0016 132.219 67.7027 139.043 75.3564 143.051C75.7329 143.248 76.178 143.25 76.5546 143.053C78.428 142.075 84 138.625 84 132.219C84 127.68 80.4186 124 76.0008 124Z" fill="#F3263D"/>
<path d="M75.9999 124H76.0009C80.4186 124 84 127.68 84 132.219C84 138.625 78.4281 142.075 76.5546 143.053C76.3799 143.145 76.1904 143.193 75.9999 143.199V124Z" fill="#F54B5E"/>
<ellipse cx="76.0007" cy="132.001" rx="3.19994" ry="3.2" fill="#F0F7FE"/>
<path d="M76.0007 135.201V128.801C74.2334 128.801 72.8008 130.233 72.8008 132.001C72.8008 133.768 74.2334 135.201 76.0007 135.201Z" fill="white"/>
<path d="M36.0014 156C30.4789 156 26.002 160.6 26.002 166.274C26.002 166.274 25.6284 174.804 35.1959 179.814C35.6665 180.061 36.2229 180.062 36.6937 179.817C39.0356 178.593 46.0008 174.282 46.0008 166.274C46.0008 160.6 41.5239 156 36.0014 156Z" fill="#157DF5"/>
<path d="M36.0002 156H36.0015C41.5239 156 46.0008 160.6 46.0008 166.274C46.0008 174.282 39.0356 178.593 36.6937 179.817C36.4753 179.931 36.2384 179.991 36.0002 179.999V156Z" fill="#0965CD"/>
<ellipse cx="36.0001" cy="166.002" rx="4.00008" ry="4" fill="#F0F7FE"/>
<path d="M36.0001 170.002V162.002C33.7909 162.002 32 163.793 32 166.002C32 168.211 33.7909 170.002 36.0001 170.002Z" fill="white"/>
<defs>
<filter id="filter0_d_6367_23735" x="10" y="9" width="96" height="96" filterUnits="userSpaceOnUse" color-interpolation-filters="sRGB">
<feFlood flood-opacity="0" result="BackgroundImageFix"/>
<feColorMatrix in="SourceAlpha" type="matrix" values="0 0 0 0 0 0 0 0 0 0 0 0 0 0 0 0 0 0 127 0" result="hardAlpha"/>
<feOffset dx="2" dy="1"/>
<feGaussianBlur stdDeviation="4"/>
<feColorMatrix type="matrix" values="0 0 0 0 0.0392157 0 0 0 0 0.0392157 0 0 0 0 0.0627451 0 0 0 0.08 0"/>
<feBlend mode="normal" in2="BackgroundImageFix" result="effect1_dropShadow_6367_23735"/>
<feBlend mode="normal" in="SourceGraphic" in2="effect1_dropShadow_6367_23735" result="shape"/>
</filter>
</defs>
</svg>
