<svg width="112" height="208" viewBox="0 0 112 208" fill="none" xmlns="http://www.w3.org/2000/svg">
<rect x="0.5" y="0.5" width="111" height="207" rx="4.5" stroke="#9747FF" stroke-dasharray="10 5"/>
<g filter="url(#filter0_d_58761_11179)">
<rect x="16" y="16" width="80" height="80" rx="8" fill="white"/>
</g>
<path d="M73.4283 34.5455V62.2234C73.4283 62.5818 73.3026 62.9299 73.0712 63.2083L62.9367 75.4265C62.6366 75.7891 62.1855 76 61.709 76H41.309C39.5615 76 38.1394 74.6016 38.1394 72.8831V34.5455C38.1394 32.6514 36.5811 31.1169 34.6527 31.1169C33.7779 31.1169 33.0679 30.4187 33.0679 29.5584C33.0679 28.6982 32.1931 28 33.0679 28H66.772C70.4425 28 73.4283 30.9361 73.4283 34.5455Z" fill="#E2EFFE"/>
<path d="M73.4289 72.1789V34.5455C73.4289 30.9361 70.443 28 66.7726 28H55.0448V76H69.6078C71.7181 76 73.4289 74.2892 73.4289 72.1789Z" fill="#B6D7FC"/>
<path d="M57.6235 32.7344V33.3136H52.436V32.7344H48.4081C47.8155 32.7344 47.3351 33.2068 47.3351 33.7895V46.5998C47.3351 47.3033 47.9053 47.8735 48.6088 47.8735H61.4569C62.1603 47.8735 62.7306 47.3033 62.7306 46.5998V34.1707C62.7306 33.3774 62.0767 32.7345 61.2701 32.7345L57.6235 32.7344Z" fill="#157DF5"/>
<path d="M57.6196 33.3137H55.031V47.8735H61.453C62.1565 47.8735 62.7267 47.3033 62.7267 46.5998V33.6905C62.7267 33.1625 62.2914 32.7344 61.7544 32.7344H57.6196V33.3137Z" fill="#0965CD"/>
<path d="M57.1528 37.3411H52.9088C52.6465 37.3411 52.434 37.132 52.434 36.8742V32.7344H57.6277V36.8742C57.6276 37.132 57.415 37.3411 57.1528 37.3411Z" fill="#40D98D"/>
<path d="M55.031 37.3411H57.1214C57.4 37.3411 57.6258 37.119 57.6258 36.8451V32.7344H55.031V37.3411Z" fill="#25BB71"/>
<path d="M38.1431 44.4156H31.1698C29.4192 44.4156 28.0001 43.0202 28.0001 41.2987V32.987C28.0001 30.2327 30.2707 28 33.0716 28C35.8647 28 38.1431 30.2251 38.1431 32.987V44.4156Z" fill="#B6D7FC"/>
<path d="M51.0359 56.8359H44.668C43.8259 56.8359 43.1432 56.1643 43.1432 55.3359C43.1432 54.5075 43.8259 53.8359 44.668 53.8359H51.0359C51.878 53.8359 52.5607 54.5075 52.5607 55.3359C52.5607 56.1643 51.878 56.8359 51.0359 56.8359Z" fill="#282A52"/>
<path d="M61.9367 62.5001C61.9367 63.3281 61.2537 64.0001 60.412 64.0001H44.4629C43.6213 64.0001 42.9382 63.3281 42.9382 62.5001C42.9382 61.6721 43.6213 61.0001 44.4629 61.0001H60.412C61.2537 61.0001 61.9367 61.6721 61.9367 62.5001Z" fill="#157DF5"/>
<path d="M61.9367 69.499C61.9367 70.327 61.2537 70.999 60.412 70.999H44.4629C43.6213 70.999 42.9382 70.327 42.9382 69.499C42.9382 68.671 43.6213 67.999 44.4629 67.999H60.412C61.2537 67.999 61.9367 68.671 61.9367 69.499Z" fill="#282A52"/>
<path d="M63.4396 64H55.0603V61H63.4396C64.2813 61 64.9643 61.672 64.9643 62.5C64.9643 63.328 64.2813 64 63.4396 64Z" fill="#0965CD"/>
<path d="M63.4396 70.999H55.0603V67.999H63.4396C64.2813 67.999 64.9643 68.671 64.9643 69.499C64.9643 70.327 64.2813 70.999 63.4396 70.999Z" fill="#1E203E"/>
<path fill-rule="evenodd" clip-rule="evenodd" d="M83.8359 72.2907C84.5795 71.5505 85 70.5433 85 69.4898C85 68.4364 84.5795 67.4292 83.8359 66.689L77.6499 60.5326L77.6032 60.4897C77.0457 59.9761 76.3536 59.6339 75.6097 59.5015C74.8659 59.3691 74.0993 59.4515 73.4002 59.7397C72.7009 60.0279 72.097 60.5105 71.6616 61.1326C71.226 61.7549 70.9778 62.49 70.9481 63.2509L70.9457 63.3147V63.6421C67.7728 64.6567 65.0566 66.482 63.3223 69.1592C61.0511 72.6653 60.8526 77.0298 62.6367 81.5177L62.6503 81.552L62.6648 81.5861C63.0079 82.3956 63.61 83.0655 64.3732 83.4936C65.1362 83.9215 66.0186 84.0844 66.8827 83.9587C67.747 83.8328 68.5474 83.4247 69.1575 82.795C69.7678 82.1651 70.1528 81.3489 70.2487 80.4738L70.2528 80.437L70.256 80.4001C70.2972 79.9253 70.7211 78.8565 71.6071 77.7769C71.6184 77.7939 71.6298 77.8108 71.6414 77.8276C72.0775 78.4623 72.6882 78.9547 73.3972 79.247C74.1062 79.5392 74.8843 79.6195 75.6374 79.4787C76.3906 79.3379 77.0883 78.9816 77.6447 78.451L77.6701 78.4269L83.8359 72.2907ZM73.7557 72.746C72.8101 72.8093 71.8427 73.2444 70.9457 73.8995C69.8423 74.7052 68.8454 75.8437 68.1263 77.0326C67.9655 77.2984 67.8186 77.5667 67.6875 77.8344C67.3685 78.4859 67.1431 79.1335 67.0389 79.7319C67.0367 79.7447 67.0345 79.7574 67.0324 79.7702C67.0129 79.8876 66.9981 80.003 66.9883 80.1162C66.9719 80.2653 66.9063 80.4048 66.8017 80.5128C66.6971 80.6208 66.5594 80.6912 66.4102 80.7129C66.2611 80.7346 66.1089 80.7064 65.9776 80.6328C65.8463 80.5591 65.7432 80.4442 65.6847 80.3059C65.6429 80.201 65.6026 80.0965 65.5637 79.9924C65.5595 79.9811 65.5553 79.9698 65.5511 79.9585C65.4295 79.6309 65.3218 79.3072 65.2276 78.9878C65.1119 78.5958 65.0166 78.2101 64.9411 77.8312C64.8427 77.3374 64.7778 76.855 64.7451 76.3848C64.3742 71.0496 68.1475 67.2854 74.0873 66.2421C74.1333 66.2341 74.1794 66.2261 74.2257 66.2184V63.3786C74.2308 63.2477 74.2735 63.121 74.3487 63.0135C74.4239 62.906 74.5285 62.8223 74.6501 62.7721C74.7717 62.722 74.9052 62.7076 75.0348 62.7307C75.1644 62.7538 75.2846 62.8133 75.3812 62.9023L81.5218 69.0135C81.6487 69.1399 81.72 69.3112 81.72 69.4898C81.72 69.6685 81.6487 69.8398 81.5218 69.9661L75.3812 76.0773C75.2854 76.1686 75.165 76.2302 75.0347 76.2545C74.9044 76.2789 74.7697 76.265 74.6472 76.2145C74.5247 76.164 74.4196 76.0791 74.3447 75.9701C74.2699 75.8612 74.2285 75.7329 74.2257 75.601V72.746C74.179 72.7428 74.1323 72.7405 74.0855 72.7393C73.9759 72.7363 73.866 72.7386 73.7557 72.746Z" fill="white"/>
<path d="M81.5218 69.9659L75.3811 76.077C75.2854 76.1683 75.165 76.2299 75.0346 76.2543C74.9043 76.2786 74.7697 76.2647 74.6471 76.2142C74.5246 76.1637 74.4195 76.0788 74.3447 75.9699C74.2698 75.8609 74.2284 75.7326 74.2256 75.6007V72.7457C70.9628 72.5202 67.2484 77.122 66.9882 80.1159C66.9719 80.265 66.9062 80.4045 66.8016 80.5125C66.697 80.6205 66.5593 80.6909 66.4102 80.7126C66.261 80.7343 66.1089 80.7061 65.9775 80.6325C65.8462 80.5588 65.7432 80.4439 65.6846 80.3057C62.7328 72.8807 66.8308 67.4574 74.2256 66.2181V63.3783C74.2307 63.2474 74.2734 63.1207 74.3486 63.0132C74.4239 62.9058 74.5285 62.822 74.6501 62.7719C74.7717 62.7217 74.9052 62.7074 75.0347 62.7304C75.1643 62.7535 75.2845 62.813 75.3811 62.902L81.5218 69.0133C81.6487 69.1396 81.72 69.3109 81.72 69.4896C81.72 69.6682 81.6487 69.8395 81.5218 69.9659Z" fill="#40D98D"/>
<path d="M73.4283 130.545V158.223C73.4283 158.582 73.3026 158.93 73.0712 159.208L62.9367 171.426C62.6366 171.789 62.1855 172 61.709 172H41.309C39.5615 172 38.1394 170.602 38.1394 168.883V130.545C38.1394 128.651 36.5811 127.117 34.6527 127.117C33.7779 127.117 33.0679 126.419 33.0679 125.558C33.0679 124.698 32.1931 124 33.0679 124H66.772C70.4425 124 73.4283 126.936 73.4283 130.545Z" fill="#E2EFFE"/>
<path d="M73.4289 168.179V130.545C73.4289 126.936 70.443 124 66.7726 124H55.0448V172H69.6078C71.7181 172 73.4289 170.289 73.4289 168.179Z" fill="#B6D7FC"/>
<path d="M57.6235 128.734V129.314H52.436V128.734H48.4081C47.8155 128.734 47.3351 129.207 47.3351 129.789V142.6C47.3351 143.303 47.9053 143.874 48.6088 143.874H61.4569C62.1603 143.874 62.7306 143.303 62.7306 142.6V130.171C62.7306 129.377 62.0767 128.734 61.2701 128.734L57.6235 128.734Z" fill="#157DF5"/>
<path d="M57.6196 129.314H55.031V143.874H61.453C62.1565 143.874 62.7267 143.303 62.7267 142.6V129.691C62.7267 129.162 62.2914 128.734 61.7544 128.734H57.6196V129.314Z" fill="#0965CD"/>
<path d="M57.1528 133.341H52.9088C52.6465 133.341 52.434 133.132 52.434 132.874V128.734H57.6277V132.874C57.6276 133.132 57.415 133.341 57.1528 133.341Z" fill="#40D98D"/>
<path d="M55.031 133.341H57.1214C57.4 133.341 57.6258 133.119 57.6258 132.845V128.734H55.031V133.341Z" fill="#25BB71"/>
<path d="M38.1431 140.416H31.1698C29.4192 140.416 28.0001 139.02 28.0001 137.299V128.987C28.0001 126.233 30.2707 124 33.0716 124C35.8647 124 38.1431 126.225 38.1431 128.987V140.416Z" fill="#B6D7FC"/>
<path d="M51.0359 152.836H44.668C43.8259 152.836 43.1432 152.164 43.1432 151.336C43.1432 150.508 43.8259 149.836 44.668 149.836H51.0359C51.878 149.836 52.5607 150.508 52.5607 151.336C52.5607 152.164 51.878 152.836 51.0359 152.836Z" fill="#282A52"/>
<path d="M61.9367 158.5C61.9367 159.328 61.2537 160 60.412 160H44.4629C43.6213 160 42.9382 159.328 42.9382 158.5C42.9382 157.672 43.6213 157 44.4629 157H60.412C61.2537 157 61.9367 157.672 61.9367 158.5Z" fill="#157DF5"/>
<path d="M61.9367 165.499C61.9367 166.327 61.2537 166.999 60.412 166.999H44.4629C43.6213 166.999 42.9382 166.327 42.9382 165.499C42.9382 164.671 43.6213 163.999 44.4629 163.999H60.412C61.2537 163.999 61.9367 164.671 61.9367 165.499Z" fill="#282A52"/>
<path d="M63.4396 160H55.0603V157H63.4396C64.2813 157 64.9643 157.672 64.9643 158.5C64.9643 159.328 64.2813 160 63.4396 160Z" fill="#0965CD"/>
<path d="M63.4396 166.999H55.0603V163.999H63.4396C64.2813 163.999 64.9643 164.671 64.9643 165.499C64.9643 166.327 64.2813 166.999 63.4396 166.999Z" fill="#1E203E"/>
<path fill-rule="evenodd" clip-rule="evenodd" d="M82.8359 168.291C83.5795 167.55 84 166.543 84 165.49C84 164.436 83.5795 163.429 82.8359 162.689L76.6499 156.533L76.6032 156.49C76.0457 155.976 75.3536 155.634 74.6097 155.501C73.8659 155.369 73.0993 155.451 72.4002 155.74C71.7009 156.028 71.097 156.511 70.6616 157.133C70.226 157.755 69.9778 158.49 69.9481 159.251L69.9457 159.315V159.642C66.7728 160.657 64.0566 162.482 62.3223 165.159C60.0511 168.665 59.8526 173.03 61.6367 177.518L61.6503 177.552L61.6648 177.586C62.0079 178.396 62.61 179.066 63.3732 179.494C64.1362 179.921 65.0186 180.084 65.8827 179.959C66.747 179.833 67.5474 179.425 68.1575 178.795C68.7678 178.165 69.1528 177.349 69.2487 176.474L69.2528 176.437L69.256 176.4C69.2972 175.925 69.7211 174.857 70.6071 173.777C70.6184 173.794 70.6298 173.811 70.6414 173.828C71.0775 174.462 71.6882 174.955 72.3972 175.247C73.1062 175.539 73.8843 175.619 74.6374 175.479C75.3906 175.338 76.0883 174.982 76.6447 174.451L76.6701 174.427L82.8359 168.291ZM72.7557 168.746C71.8101 168.809 70.8427 169.244 69.9457 169.899C68.8423 170.705 67.8454 171.844 67.1263 173.033C66.9655 173.298 66.8186 173.567 66.6875 173.834C66.3685 174.486 66.1431 175.134 66.0389 175.732C66.0367 175.745 66.0345 175.757 66.0324 175.77C66.0129 175.888 65.9981 176.003 65.9883 176.116C65.9719 176.265 65.9063 176.405 65.8017 176.513C65.6971 176.621 65.5594 176.691 65.4102 176.713C65.2611 176.735 65.1089 176.706 64.9776 176.633C64.8463 176.559 64.7432 176.444 64.6847 176.306C64.6429 176.201 64.6026 176.097 64.5637 175.992C64.5595 175.981 64.5553 175.97 64.5511 175.959C64.4295 175.631 64.3218 175.307 64.2276 174.988C64.1119 174.596 64.0166 174.21 63.9411 173.831C63.8427 173.337 63.7778 172.855 63.7451 172.385C63.3742 167.05 67.1475 163.285 73.0873 162.242C73.1333 162.234 73.1794 162.226 73.2257 162.218V159.379C73.2308 159.248 73.2735 159.121 73.3487 159.014C73.4239 158.906 73.5285 158.822 73.6501 158.772C73.7717 158.722 73.9052 158.708 74.0348 158.731C74.1644 158.754 74.2846 158.813 74.3812 158.902L80.5218 165.014C80.6487 165.14 80.72 165.311 80.72 165.49C80.72 165.668 80.6487 165.84 80.5218 165.966L74.3812 172.077C74.2854 172.169 74.165 172.23 74.0347 172.255C73.9044 172.279 73.7697 172.265 73.6472 172.214C73.5247 172.164 73.4196 172.079 73.3447 171.97C73.2699 171.861 73.2285 171.733 73.2257 171.601V168.746C73.179 168.743 73.1323 168.741 73.0855 168.739C72.9759 168.736 72.866 168.739 72.7557 168.746Z" fill="white"/>
<path d="M80.5218 165.966L74.3811 172.077C74.2854 172.168 74.165 172.23 74.0346 172.254C73.9043 172.279 73.7697 172.265 73.6471 172.214C73.5246 172.164 73.4195 172.079 73.3447 171.97C73.2698 171.861 73.2284 171.733 73.2256 171.601V168.746C69.9628 168.52 66.2484 173.122 65.9882 176.116C65.9719 176.265 65.9062 176.405 65.8016 176.513C65.697 176.621 65.5593 176.691 65.4102 176.713C65.261 176.734 65.1089 176.706 64.9775 176.632C64.8462 176.559 64.7432 176.444 64.6846 176.306C61.7328 168.881 65.8308 163.457 73.2256 162.218V159.378C73.2307 159.247 73.2734 159.121 73.3486 159.013C73.4239 158.906 73.5285 158.822 73.6501 158.772C73.7717 158.722 73.9052 158.707 74.0347 158.73C74.1643 158.753 74.2845 158.813 74.3811 158.902L80.5218 165.013C80.6487 165.14 80.72 165.311 80.72 165.49C80.72 165.668 80.6487 165.84 80.5218 165.966Z" fill="#40D98D"/>
<defs>
<filter id="filter0_d_58761_11179" x="10" y="9" width="96" height="96" filterUnits="userSpaceOnUse" color-interpolation-filters="sRGB">
<feFlood flood-opacity="0" result="BackgroundImageFix"/>
<feColorMatrix in="SourceAlpha" type="matrix" values="0 0 0 0 0 0 0 0 0 0 0 0 0 0 0 0 0 0 127 0" result="hardAlpha"/>
<feOffset dx="2" dy="1"/>
<feGaussianBlur stdDeviation="4"/>
<feColorMatrix type="matrix" values="0 0 0 0 0.0392157 0 0 0 0 0.0392157 0 0 0 0 0.0627451 0 0 0 0.08 0"/>
<feBlend mode="normal" in2="BackgroundImageFix" result="effect1_dropShadow_58761_11179"/>
<feBlend mode="normal" in="SourceGraphic" in2="effect1_dropShadow_58761_11179" result="shape"/>
</filter>
</defs>
</svg>
