<svg width="112" height="208" viewBox="0 0 112 208" fill="none" xmlns="http://www.w3.org/2000/svg">
<rect x="0.5" y="0.5" width="111" height="207" rx="4.5" stroke="#9747FF" stroke-dasharray="10 5"/>
<g filter="url(#filter0_d_59913_72245)">
<rect x="16" y="16" width="80" height="80" rx="8" fill="white"/>
</g>
<path d="M28 33.2383C28 31.5814 29.3431 30.2383 31 30.2383H47.9998V83.9983H31C29.3431 83.9983 28 82.6551 28 80.9983V33.2383Z" fill="#E2EFFE"/>
<path d="M68 33.2383C68 31.5814 66.6569 30.2383 65 30.2383H48.0002V83.9983H65C66.6569 83.9983 68 82.6551 68 80.9983V33.2383Z" fill="#B6D7FC"/>
<path d="M32.4448 32.4805H48.0003V81.7605H32.2217C31.1171 81.7605 30.2217 80.865 30.2217 79.7604L30.2226 34.7205C30.2226 33.4834 31.2175 32.4805 32.4448 32.4805Z" fill="white"/>
<path d="M41.0193 38V38.4592H36.9759V38H33.8363C33.3744 38 33 38.3744 33 38.8363V49.25C33 49.6642 33.3358 50 33.75 50H44.25C44.6642 50 45 49.6642 45 49.25V39.1385C45 38.5097 44.4903 38.0001 43.8616 38.0001L41.0193 38Z" fill="#157DF5"/>
<path d="M41.0196 38.4592H39.002V50H44.2504C44.6646 50 45.0004 49.6642 45.0004 49.25V38.7579C45.0004 38.3393 44.6611 38 44.2425 38H41.0196V38.4592Z" fill="#0965CD"/>
<path d="M40.6536 41.6515H37.3457C37.1413 41.6515 36.9756 41.4858 36.9756 41.2814V38H41.0238V41.2814C41.0237 41.4858 40.858 41.6515 40.6536 41.6515Z" fill="#40D98D"/>
<path d="M39.002 41.6515H40.6313C40.8484 41.6515 41.0244 41.4755 41.0244 41.2583V38H39.002V41.6515Z" fill="#25BB71"/>
<path d="M65.7776 34.7205C65.7776 33.4834 64.7827 32.4805 63.5554 32.4805H48V81.7605H63.5554C64.7827 81.7605 65.7776 80.7576 65.7776 79.5205V34.7205Z" fill="#F0F7FE"/>
<path d="M62.8888 40.8792C62.8888 39.9514 62.1367 39.1992 61.2088 39.1992L52.68 39.1992C51.7522 39.1992 51 39.9514 51 40.8792C51 41.8071 51.7522 42.5592 52.68 42.5592H61.2088C62.1367 42.5592 62.8888 41.8071 62.8888 40.8792Z" fill="#25BB71"/>
<path d="M62.8898 47.68C62.8898 46.7522 62.1376 46 61.2098 46L52.681 46C51.7531 46 51.001 46.7522 51.001 47.68C51.001 48.6078 51.7531 49.36 52.681 49.36H61.2098C62.1376 49.36 62.8898 48.6078 62.8898 47.68Z" fill="#9DC9FB"/>
<path d="M33 75.5C33 74.6716 33.6716 74 34.5 74L48 74V77H34.5C33.6716 77 33 76.3284 33 75.5Z" fill="#157DF5"/>
<path d="M33.0029 68.5C33.0029 67.6716 33.6745 67 34.5029 67L48.002 67V70H34.5029C33.6745 70 33.0029 69.3284 33.0029 68.5Z" fill="#9DC9FB"/>
<path d="M60.001 75.5C60.001 76.3284 59.3294 77 58.501 77H48.001V74H58.501C59.3294 74 60.001 74.6716 60.001 75.5Z" fill="#0965CD"/>
<path d="M33.001 57.5C33.001 56.6716 33.6725 56 34.501 56L43.501 56C44.3294 56 45.001 56.6716 45.001 57.5C45.001 58.3284 44.3294 59 43.501 59H34.501C33.6725 59 33.001 58.3284 33.001 57.5Z" fill="#9DC9FB"/>
<path d="M60.002 68.5C60.002 69.3284 59.3304 70 58.502 70H48.002V67H58.502C59.3304 67 60.002 67.6716 60.002 68.5Z" fill="#9DC9FB"/>
<path d="M41.334 30C41.334 28.8954 42.2294 28 43.334 28H48.0006V32.48H41.334V30Z" fill="#E2EFFE"/>
<path d="M48 28H52.6666C53.7712 28 54.6666 28.8954 54.6666 30V32.48H48V28Z" fill="#B6D7FC"/>
<path fill-rule="evenodd" clip-rule="evenodd" d="M56 59C56 56.2386 58.2386 54 61 54H77C79.7614 54 82 56.2386 82 59V61C82 62.3627 81.4548 63.5981 80.5707 64.5C81.4548 65.4019 82 66.6373 82 68V70C82 71.3627 81.4548 72.5981 80.5707 73.5C81.4548 74.4019 82 75.6373 82 77V79C82 81.7614 79.7614 84 77 84H61C58.2386 84 56 81.7614 56 79V77C56 75.6373 56.5452 74.4019 57.4293 73.5C56.5452 72.5981 56 71.3627 56 70V68C56 66.6373 56.5452 65.4019 57.4293 64.5C56.5452 63.5981 56 62.3627 56 61V59ZM59 59C59 57.8954 59.8954 57 61 57H77C78.1046 57 79 57.8954 79 59V61C79 62.1046 78.1046 63 77 63H61C59.8954 63 59 62.1046 59 61V59ZM59 68C59 66.8954 59.8954 66 61 66H77C78.1046 66 79 66.8954 79 68V70C79 71.1046 78.1046 72 77 72H61C59.8954 72 59 71.1046 59 70V68ZM59 77C59 75.8954 59.8954 75 61 75H77C78.1046 75 79 75.8954 79 77V79C79 80.1046 78.1046 81 77 81H61C59.8954 81 59 80.1046 59 79V77Z" fill="white"/>
<path d="M59 59C59 57.8954 59.8954 57 61 57H77C78.1046 57 79 57.8954 79 59V61C79 62.1046 78.1046 63 77 63H61C59.8954 63 59 62.1046 59 61V59Z" fill="#E2EFFE"/>
<path d="M59 68C59 66.8954 59.8954 66 61 66H77C78.1046 66 79 66.8954 79 68V70C79 71.1046 78.1046 72 77 72H61C59.8954 72 59 71.1046 59 70V68Z" fill="#B6D7FC"/>
<path d="M59 77C59 75.8954 59.8954 75 61 75H77C78.1046 75 79 75.8954 79 77V79C79 80.1046 78.1046 81 77 81H61C59.8954 81 59 80.1046 59 79V77Z" fill="#40D98D"/>
<path d="M28 129.238C28 127.581 29.3431 126.238 31 126.238H47.9998V179.998H31C29.3431 179.998 28 178.655 28 176.998V129.238Z" fill="#E2EFFE"/>
<path d="M68 129.238C68 127.581 66.6569 126.238 65 126.238H48.0002V179.998H65C66.6569 179.998 68 178.655 68 176.998V129.238Z" fill="#B6D7FC"/>
<path d="M32.4448 128.48H48.0003V177.76H32.2217C31.1171 177.76 30.2217 176.865 30.2217 175.76L30.2226 130.72C30.2226 129.483 31.2175 128.48 32.4448 128.48Z" fill="white"/>
<path d="M41.0193 134V134.459H36.9759V134H33.8363C33.3744 134 33 134.374 33 134.836V145.25C33 145.664 33.3358 146 33.75 146H44.25C44.6642 146 45 145.664 45 145.25V135.138C45 134.51 44.4903 134 43.8616 134L41.0193 134Z" fill="#157DF5"/>
<path d="M41.0196 134.459H39.002V146H44.2504C44.6646 146 45.0004 145.664 45.0004 145.25V134.758C45.0004 134.339 44.6611 134 44.2425 134H41.0196V134.459Z" fill="#0965CD"/>
<path d="M40.6536 137.651H37.3457C37.1413 137.651 36.9756 137.486 36.9756 137.281V134H41.0238V137.281C41.0237 137.486 40.858 137.651 40.6536 137.651Z" fill="#40D98D"/>
<path d="M39.002 137.651H40.6313C40.8484 137.651 41.0244 137.475 41.0244 137.258V134H39.002V137.651Z" fill="#25BB71"/>
<path d="M65.7776 130.72C65.7776 129.483 64.7827 128.48 63.5554 128.48H48V177.76H63.5554C64.7827 177.76 65.7776 176.758 65.7776 175.52V130.72Z" fill="#F0F7FE"/>
<path d="M62.8888 136.879C62.8888 135.951 62.1367 135.199 61.2088 135.199L52.68 135.199C51.7522 135.199 51 135.951 51 136.879C51 137.807 51.7522 138.559 52.68 138.559H61.2088C62.1367 138.559 62.8888 137.807 62.8888 136.879Z" fill="#25BB71"/>
<path d="M62.8898 143.68C62.8898 142.752 62.1376 142 61.2098 142L52.681 142C51.7531 142 51.001 142.752 51.001 143.68C51.001 144.608 51.7531 145.36 52.681 145.36H61.2098C62.1376 145.36 62.8898 144.608 62.8898 143.68Z" fill="#9DC9FB"/>
<path d="M33 171.5C33 170.672 33.6716 170 34.5 170L48 170V173H34.5C33.6716 173 33 172.328 33 171.5Z" fill="#157DF5"/>
<path d="M33.0029 164.5C33.0029 163.672 33.6745 163 34.5029 163L48.002 163V166H34.5029C33.6745 166 33.0029 165.328 33.0029 164.5Z" fill="#9DC9FB"/>
<path d="M60.001 171.5C60.001 172.328 59.3294 173 58.501 173H48.001V170H58.501C59.3294 170 60.001 170.672 60.001 171.5Z" fill="#0965CD"/>
<path d="M33.001 153.5C33.001 152.672 33.6725 152 34.501 152L43.501 152C44.3294 152 45.001 152.672 45.001 153.5C45.001 154.328 44.3294 155 43.501 155H34.501C33.6725 155 33.001 154.328 33.001 153.5Z" fill="#9DC9FB"/>
<path d="M60.002 164.5C60.002 165.328 59.3304 166 58.502 166H48.002V163H58.502C59.3304 163 60.002 163.672 60.002 164.5Z" fill="#9DC9FB"/>
<path d="M41.334 126C41.334 124.895 42.2294 124 43.334 124H48.0006V128.48H41.334V126Z" fill="#E2EFFE"/>
<path d="M48 124H52.6666C53.7712 124 54.6666 124.895 54.6666 126V128.48H48V124Z" fill="#B6D7FC"/>
<path fill-rule="evenodd" clip-rule="evenodd" d="M56 155C56 152.239 58.2386 150 61 150H77C79.7614 150 82 152.239 82 155V157C82 158.363 81.4548 159.598 80.5707 160.5C81.4548 161.402 82 162.637 82 164V166C82 167.363 81.4548 168.598 80.5707 169.5C81.4548 170.402 82 171.637 82 173V175C82 177.761 79.7614 180 77 180H61C58.2386 180 56 177.761 56 175V173C56 171.637 56.5452 170.402 57.4293 169.5C56.5452 168.598 56 167.363 56 166V164C56 162.637 56.5452 161.402 57.4293 160.5C56.5452 159.598 56 158.363 56 157V155ZM59 155C59 153.895 59.8954 153 61 153H77C78.1046 153 79 153.895 79 155V157C79 158.105 78.1046 159 77 159H61C59.8954 159 59 158.105 59 157V155ZM59 164C59 162.895 59.8954 162 61 162H77C78.1046 162 79 162.895 79 164V166C79 167.105 78.1046 168 77 168H61C59.8954 168 59 167.105 59 166V164ZM59 173C59 171.895 59.8954 171 61 171H77C78.1046 171 79 171.895 79 173V175C79 176.105 78.1046 177 77 177H61C59.8954 177 59 176.105 59 175V173Z" fill="white"/>
<path d="M59 155C59 153.895 59.8954 153 61 153H77C78.1046 153 79 153.895 79 155V157C79 158.105 78.1046 159 77 159H61C59.8954 159 59 158.105 59 157V155Z" fill="#E2EFFE"/>
<path d="M59 164C59 162.895 59.8954 162 61 162H77C78.1046 162 79 162.895 79 164V166C79 167.105 78.1046 168 77 168H61C59.8954 168 59 167.105 59 166V164Z" fill="#B6D7FC"/>
<path d="M59 173C59 171.895 59.8954 171 61 171H77C78.1046 171 79 171.895 79 173V175C79 176.105 78.1046 177 77 177H61C59.8954 177 59 176.105 59 175V173Z" fill="#40D98D"/>
<defs>
<filter id="filter0_d_59913_72245" x="10" y="9" width="96" height="96" filterUnits="userSpaceOnUse" color-interpolation-filters="sRGB">
<feFlood flood-opacity="0" result="BackgroundImageFix"/>
<feColorMatrix in="SourceAlpha" type="matrix" values="0 0 0 0 0 0 0 0 0 0 0 0 0 0 0 0 0 0 127 0" result="hardAlpha"/>
<feOffset dx="2" dy="1"/>
<feGaussianBlur stdDeviation="4"/>
<feColorMatrix type="matrix" values="0 0 0 0 0.0392157 0 0 0 0 0.0392157 0 0 0 0 0.0627451 0 0 0 0.08 0"/>
<feBlend mode="normal" in2="BackgroundImageFix" result="effect1_dropShadow_59913_72245"/>
<feBlend mode="normal" in="SourceGraphic" in2="effect1_dropShadow_59913_72245" result="shape"/>
</filter>
</defs>
</svg>
