<svg width="112" height="208" viewBox="0 0 112 208" fill="none" xmlns="http://www.w3.org/2000/svg">
<rect x="0.5" y="0.5" width="111" height="207" rx="4.5" stroke="#9747FF" stroke-dasharray="10 5"/>
<g filter="url(#filter0_d_8292_36072)">
<rect x="16" y="16" width="80" height="80" rx="8" fill="white"/>
</g>
<path d="M39.6088 33.8608V58.6436C39.6088 58.9645 39.7195 59.2762 39.9232 59.5255L48.8461 70.4656C49.1103 70.7903 49.5075 70.9791 49.927 70.9791H67.8881C69.4267 70.9791 70.6788 69.727 70.6788 68.1883V33.8608C70.6788 32.1649 72.0508 30.7909 73.7486 30.7909C74.5189 30.7909 75.144 30.1657 75.144 29.3954C75.144 28.6252 75.9142 28 75.144 28H45.4693C42.2377 28 39.6088 30.629 39.6088 33.8608Z" fill="#E2EFFE"/>
<path d="M39.6068 58.6436V33.8608C39.6068 30.629 42.2356 28 45.4673 28H56V70.9791H49.925H41.1068C40.2783 70.9791 39.6068 70.3076 39.6068 69.4791V58.6436Z" fill="#F0F7FE"/>
<path d="M66.9569 44.6471C66.9569 45.5562 66.219 46.2941 65.3098 46.2941H60.6471C59.7379 46.2941 59 45.5562 59 44.6471C59 43.7379 59.7379 43 60.6471 43H65.3098C66.219 43 66.9569 43.7379 66.9569 44.6471Z" fill="#282A52"/>
<path d="M66.9569 51.6471C66.9569 52.5562 66.219 53.2941 65.3098 53.2941H60.6471C59.7379 53.2941 59 52.5562 59 51.6471C59 50.7379 59.7379 50 60.6471 50H65.3098C66.219 50 66.9569 50.7379 66.9569 51.6471Z" fill="#282A52"/>
<path d="M66.9569 37.6471C66.9569 38.5562 66.219 39.2941 65.3098 39.2941H60.6471C59.7379 39.2941 59 38.5562 59 37.6471C59 36.7379 59.7379 36 60.6471 36H65.3098C66.219 36 66.9569 36.7379 66.9569 37.6471Z" fill="#0965CD"/>
<path d="M70.6771 42.6985H76.8167C78.358 42.6985 79.6074 41.449 79.6074 39.9076V32.4654C79.6074 29.9992 77.6083 28 75.1423 28C72.6831 28 70.6771 29.9924 70.6771 32.4654V42.6985Z" fill="#B6D7FC"/>
<path d="M44.0386 38V38.9183H35.9518V38H29.6726C28.7489 38 28 38.7489 28 39.6726V60.5C28 61.3284 28.6716 62 29.5 62H50.5C51.3284 62 52 61.3284 52 60.5V40.2769C52 39.0194 50.9806 38.0001 49.7232 38.0001L44.0386 38Z" fill="#157DF5"/>
<path d="M44.0382 38.9184H40.0029V62H50.4998C51.3282 62 51.9998 61.3284 51.9998 60.5V39.5158C51.9998 38.6787 51.3212 38 50.484 38H44.0382V38.9184Z" fill="#0965CD"/>
<path d="M43.3073 45.303H36.6914C36.2826 45.303 35.9512 44.9716 35.9512 44.5628V38H44.0476V44.5628C44.0475 44.9716 43.7161 45.303 43.3073 45.303Z" fill="#40D98D"/>
<path d="M40.0029 45.303H43.2617C43.6959 45.303 44.0479 44.9509 44.0479 44.5167V38H40.0029V45.303Z" fill="#25BB71"/>
<path fill-rule="evenodd" clip-rule="evenodd" d="M83.9995 70.7214C83.9995 78.0558 78.0538 84.0014 70.7195 84.0014C63.3851 84.0014 57.4395 78.0557 57.4395 70.7214C57.4395 63.3871 63.3851 57.4414 70.7195 57.4414C78.0538 57.4414 83.9995 63.3871 83.9995 70.7214ZM80.7195 70.7214C80.7195 76.2443 76.2423 80.7214 70.7195 80.7214C65.1966 80.7214 60.7195 76.2443 60.7195 70.7214C60.7195 65.1986 65.1966 60.7214 70.7195 60.7214C76.2423 60.7214 80.7195 65.1986 80.7195 70.7214Z" fill="white"/>
<path d="M70.7197 80.7207C76.2426 80.7207 80.7197 76.2436 80.7197 70.7207C80.7197 65.1979 76.2426 60.7207 70.7197 60.7207C65.1969 60.7207 60.7197 65.1979 60.7197 70.7207C60.7197 76.2436 65.1969 80.7207 70.7197 80.7207Z" fill="#40D98D"/>
<path d="M70.7188 60.7207C70.7172 60.7207 70.7155 60.7207 70.7139 60.7207V80.7206C70.7155 80.7206 70.7172 80.7207 70.7188 80.7207C76.2417 80.7207 80.7188 76.2436 80.7188 70.7207C80.7188 65.1978 76.2417 60.7207 70.7188 60.7207Z" fill="#25BB71"/>
<path d="M75.8514 67.0852C75.2691 66.5029 74.3249 66.5029 73.7425 67.0852L69.6359 71.1919L67.699 69.2549C67.1166 68.6723 66.1724 68.6725 65.5901 69.2549C65.0077 69.8372 65.0077 70.7815 65.5901 71.3638L68.5814 74.3552C68.8612 74.6349 69.2404 74.792 69.636 74.792C70.0315 74.792 70.4108 74.6349 70.6904 74.3552L75.8515 69.1941C76.4339 68.6117 76.4339 67.6675 75.8514 67.0852Z" fill="white"/>
<path d="M70.7188 60.7207C70.7172 60.7207 70.7155 60.7207 70.7139 60.7207V80.7206C70.7155 80.7206 70.7172 80.7207 70.7188 80.7207C76.2417 80.7207 80.7188 76.2436 80.7188 70.7207C80.7188 65.1978 76.2417 60.7207 70.7188 60.7207Z" fill="#25BB71"/>
<path d="M73.7425 67.0872L70.7158 70.1139V74.3318L75.8514 69.196C76.4338 68.6137 76.4338 67.6694 75.8514 67.0872C75.2692 66.5048 74.3249 66.5048 73.7425 67.0872Z" fill="#F0F7FE"/>
<path d="M39.6088 129.861V154.644C39.6088 154.965 39.7195 155.276 39.9232 155.525L48.8461 166.466C49.1103 166.79 49.5075 166.979 49.927 166.979H67.8881C69.4267 166.979 70.6788 165.727 70.6788 164.188V129.861C70.6788 128.165 72.0508 126.791 73.7486 126.791C74.5189 126.791 75.144 126.166 75.144 125.395C75.144 124.625 75.9142 124 75.144 124H45.4693C42.2377 124 39.6088 126.629 39.6088 129.861Z" fill="#E2EFFE"/>
<path d="M39.6068 154.644V129.861C39.6068 126.629 42.2356 124 45.4673 124H56V166.979H49.925H41.1068C40.2783 166.979 39.6068 166.308 39.6068 165.479V154.644Z" fill="#F0F7FE"/>
<path d="M66.9569 140.647C66.9569 141.556 66.219 142.294 65.3098 142.294H60.6471C59.7379 142.294 59 141.556 59 140.647C59 139.738 59.7379 139 60.6471 139H65.3098C66.219 139 66.9569 139.738 66.9569 140.647Z" fill="#282A52"/>
<path d="M66.9569 147.647C66.9569 148.556 66.219 149.294 65.3098 149.294H60.6471C59.7379 149.294 59 148.556 59 147.647C59 146.738 59.7379 146 60.6471 146H65.3098C66.219 146 66.9569 146.738 66.9569 147.647Z" fill="#282A52"/>
<path d="M66.9569 133.647C66.9569 134.556 66.219 135.294 65.3098 135.294H60.6471C59.7379 135.294 59 134.556 59 133.647C59 132.738 59.7379 132 60.6471 132H65.3098C66.219 132 66.9569 132.738 66.9569 133.647Z" fill="#0965CD"/>
<path d="M70.6771 138.698H76.8167C78.358 138.698 79.6074 137.449 79.6074 135.908V128.465C79.6074 125.999 77.6083 124 75.1423 124C72.6831 124 70.6771 125.992 70.6771 128.465V138.698Z" fill="#B6D7FC"/>
<path d="M44.0386 134V134.918H35.9518V134H29.6726C28.7489 134 28 134.749 28 135.673V156.5C28 157.328 28.6716 158 29.5 158H50.5C51.3284 158 52 157.328 52 156.5V136.277C52 135.019 50.9806 134 49.7232 134L44.0386 134Z" fill="#157DF5"/>
<path d="M44.0382 134.918H40.0029V158H50.4998C51.3282 158 51.9998 157.328 51.9998 156.5V135.516C51.9998 134.679 51.3212 134 50.484 134H44.0382V134.918Z" fill="#0965CD"/>
<path d="M43.3073 141.303H36.6914C36.2826 141.303 35.9512 140.972 35.9512 140.563V134H44.0476V140.563C44.0475 140.972 43.7161 141.303 43.3073 141.303Z" fill="#40D98D"/>
<path d="M40.0029 141.303H43.2617C43.6959 141.303 44.0479 140.951 44.0479 140.517V134H40.0029V141.303Z" fill="#25BB71"/>
<path fill-rule="evenodd" clip-rule="evenodd" d="M83.9995 166.721C83.9995 174.056 78.0538 180.001 70.7195 180.001C63.3851 180.001 57.4395 174.056 57.4395 166.721C57.4395 159.387 63.3851 153.441 70.7195 153.441C78.0538 153.441 83.9995 159.387 83.9995 166.721ZM80.7195 166.721C80.7195 172.244 76.2423 176.721 70.7195 176.721C65.1966 176.721 60.7195 172.244 60.7195 166.721C60.7195 161.199 65.1966 156.721 70.7195 156.721C76.2423 156.721 80.7195 161.199 80.7195 166.721Z" fill="white"/>
<path d="M70.7197 176.721C76.2426 176.721 80.7197 172.244 80.7197 166.721C80.7197 161.198 76.2426 156.721 70.7197 156.721C65.1969 156.721 60.7197 161.198 60.7197 166.721C60.7197 172.244 65.1969 176.721 70.7197 176.721Z" fill="#40D98D"/>
<path d="M70.7188 156.721C70.7172 156.721 70.7155 156.721 70.7139 156.721V176.721C70.7155 176.721 70.7172 176.721 70.7188 176.721C76.2417 176.721 80.7188 172.244 80.7188 166.721C80.7188 161.198 76.2417 156.721 70.7188 156.721Z" fill="#25BB71"/>
<path d="M75.8514 163.085C75.2691 162.503 74.3249 162.503 73.7425 163.085L69.6359 167.192L67.699 165.255C67.1166 164.672 66.1724 164.673 65.5901 165.255C65.0077 165.837 65.0077 166.782 65.5901 167.364L68.5814 170.355C68.8612 170.635 69.2404 170.792 69.636 170.792C70.0315 170.792 70.4108 170.635 70.6904 170.355L75.8515 165.194C76.4339 164.612 76.4339 163.668 75.8514 163.085Z" fill="white"/>
<path d="M70.7188 156.721C70.7172 156.721 70.7155 156.721 70.7139 156.721V176.721C70.7155 176.721 70.7172 176.721 70.7188 176.721C76.2417 176.721 80.7188 172.244 80.7188 166.721C80.7188 161.198 76.2417 156.721 70.7188 156.721Z" fill="#25BB71"/>
<path d="M73.7425 163.087L70.7158 166.114V170.332L75.8514 165.196C76.4338 164.614 76.4338 163.669 75.8514 163.087C75.2692 162.505 74.3249 162.505 73.7425 163.087Z" fill="#F0F7FE"/>
<defs>
<filter id="filter0_d_8292_36072" x="10" y="9" width="96" height="96" filterUnits="userSpaceOnUse" color-interpolation-filters="sRGB">
<feFlood flood-opacity="0" result="BackgroundImageFix"/>
<feColorMatrix in="SourceAlpha" type="matrix" values="0 0 0 0 0 0 0 0 0 0 0 0 0 0 0 0 0 0 127 0" result="hardAlpha"/>
<feOffset dx="2" dy="1"/>
<feGaussianBlur stdDeviation="4"/>
<feColorMatrix type="matrix" values="0 0 0 0 0.0392157 0 0 0 0 0.0392157 0 0 0 0 0.0627451 0 0 0 0.08 0"/>
<feBlend mode="normal" in2="BackgroundImageFix" result="effect1_dropShadow_8292_36072"/>
<feBlend mode="normal" in="SourceGraphic" in2="effect1_dropShadow_8292_36072" result="shape"/>
</filter>
</defs>
</svg>
