<svg width="112" height="208" viewBox="0 0 112 208" fill="none" xmlns="http://www.w3.org/2000/svg">
<rect x="0.5" y="0.5" width="111" height="207" rx="4.5" stroke="#9747FF" stroke-dasharray="10 5"/>
<g filter="url(#filter0_d_58344_11679)">
<rect x="16" y="16" width="80" height="80" rx="8" fill="white"/>
</g>
<path d="M73.4283 34.5455V62.2234C73.4283 62.5818 73.3026 62.9299 73.0712 63.2083L62.9367 75.4265C62.6366 75.7891 62.1855 76 61.709 76H41.309C39.5615 76 38.1394 74.6016 38.1394 72.8831V34.5455C38.1394 32.6514 36.5811 31.1169 34.6527 31.1169C33.7779 31.1169 33.0679 30.4187 33.0679 29.5584C33.0679 28.6982 32.1931 28 33.0679 28H66.772C70.4425 28 73.4283 30.9361 73.4283 34.5455Z" fill="#E2EFFE"/>
<path d="M73.4289 72.1789V34.5455C73.4289 30.9361 70.443 28 66.7726 28H55.0448V76H69.6078C71.7181 76 73.4289 74.2892 73.4289 72.1789Z" fill="#B6D7FC"/>
<path d="M57.6235 32.7344V33.3136H52.436V32.7344H48.4081C47.8155 32.7344 47.3351 33.2068 47.3351 33.7895V46.5998C47.3351 47.3033 47.9053 47.8735 48.6088 47.8735H61.4569C62.1603 47.8735 62.7306 47.3033 62.7306 46.5998V34.1707C62.7306 33.3774 62.0767 32.7345 61.2701 32.7345L57.6235 32.7344Z" fill="#157DF5"/>
<path d="M57.6196 33.3137H55.031V47.8735H61.453C62.1565 47.8735 62.7267 47.3033 62.7267 46.5998V33.6905C62.7267 33.1625 62.2914 32.7344 61.7544 32.7344H57.6196V33.3137Z" fill="#0965CD"/>
<path d="M57.1528 37.3411H52.9088C52.6465 37.3411 52.434 37.132 52.434 36.8742V32.7344H57.6277V36.8742C57.6276 37.132 57.415 37.3411 57.1528 37.3411Z" fill="#40D98D"/>
<path d="M55.031 37.3411H57.1214C57.4 37.3411 57.6258 37.119 57.6258 36.8451V32.7344H55.031V37.3411Z" fill="#25BB71"/>
<path d="M38.1431 44.4156H31.1698C29.4192 44.4156 28.0001 43.0202 28.0001 41.2987V32.987C28.0001 30.2327 30.2707 28 33.0716 28C35.8647 28 38.1431 30.2251 38.1431 32.987V44.4156Z" fill="#B6D7FC"/>
<path d="M51.0359 56.8359H44.668C43.8259 56.8359 43.1432 56.1643 43.1432 55.3359C43.1432 54.5075 43.8259 53.8359 44.668 53.8359H51.0359C51.878 53.8359 52.5607 54.5075 52.5607 55.3359C52.5607 56.1643 51.878 56.8359 51.0359 56.8359Z" fill="#282A52"/>
<path d="M61.9367 62.5001C61.9367 63.3281 61.2537 64.0001 60.412 64.0001H44.4629C43.6213 64.0001 42.9382 63.3281 42.9382 62.5001C42.9382 61.6721 43.6213 61.0001 44.4629 61.0001H60.412C61.2537 61.0001 61.9367 61.6721 61.9367 62.5001Z" fill="#157DF5"/>
<path d="M61.9367 69.499C61.9367 70.327 61.2537 70.999 60.412 70.999H44.4629C43.6213 70.999 42.9382 70.327 42.9382 69.499C42.9382 68.671 43.6213 67.999 44.4629 67.999H60.412C61.2537 67.999 61.9367 68.671 61.9367 69.499Z" fill="#282A52"/>
<path d="M63.4396 64H55.0603V61H63.4396C64.2813 61 64.9643 61.672 64.9643 62.5C64.9643 63.328 64.2813 64 63.4396 64Z" fill="#0965CD"/>
<path d="M63.4396 70.999H55.0603V67.999H63.4396C64.2813 67.999 64.9643 68.671 64.9643 69.499C64.9643 70.327 64.2813 70.999 63.4396 70.999Z" fill="#1E203E"/>
<circle cx="69.2144" cy="69" r="12" fill="#FDAA49"/>
<path fill-rule="evenodd" clip-rule="evenodd" d="M84.2144 69C84.2144 77.2843 77.4986 84 69.2144 84C60.9301 84 54.2144 77.2843 54.2144 69C54.2144 60.7157 60.9301 54 69.2144 54C77.4986 54 84.2144 60.7157 84.2144 69ZM69.2144 81C75.8418 81 81.2144 75.6274 81.2144 69C81.2144 62.3726 75.8418 57 69.2144 57C62.5869 57 57.2144 62.3726 57.2144 69C57.2144 75.6274 62.5869 81 69.2144 81Z" fill="white"/>
<path d="M68.2144 80.9589C68.5441 80.9861 68.8776 81 69.2144 81C75.8418 81 81.2144 75.6274 81.2144 69C81.2144 62.3726 75.8418 57 69.2144 57C68.8776 57 68.5441 57.0139 68.2144 57.0411V80.9589Z" fill="#FD9317"/>
<path d="M62.4553 71.7468C62.4676 71.6013 62.5311 71.4649 62.6343 71.3617L70.9777 63.0202C71.7027 62.2953 72.8788 62.2958 73.6038 63.0207C74.3289 63.7456 74.3294 64.9214 73.6044 65.6463L65.261 73.9878C65.1578 74.091 65.0213 74.1544 64.8758 74.1668L62.9618 74.3292C62.5798 74.3616 62.2604 74.0423 62.2929 73.6603L62.4553 71.7468Z" fill="#F0F7FE"/>
<path d="M68.2133 65.7754L62.6333 71.3542C62.53 71.4574 62.4666 71.5939 62.4542 71.7393L62.2918 73.6528C62.2594 74.0348 62.5787 74.3541 62.9608 74.3217L64.8747 74.1593C65.0202 74.1469 65.1567 74.0835 65.26 73.9803L68.2133 71.0276V65.7754Z" fill="white"/>
<path d="M73.4283 130.545V158.223C73.4283 158.582 73.3026 158.93 73.0712 159.208L62.9367 171.426C62.6366 171.789 62.1855 172 61.709 172H41.309C39.5615 172 38.1394 170.602 38.1394 168.883V130.545C38.1394 128.651 36.5811 127.117 34.6527 127.117C33.7779 127.117 33.0679 126.419 33.0679 125.558C33.0679 124.698 32.1931 124 33.0679 124H66.772C70.4425 124 73.4283 126.936 73.4283 130.545Z" fill="#E2EFFE"/>
<path d="M73.4289 168.179V130.545C73.4289 126.936 70.443 124 66.7726 124H55.0448V172H69.6078C71.7181 172 73.4289 170.289 73.4289 168.179Z" fill="#B6D7FC"/>
<path d="M57.6235 128.734V129.314H52.436V128.734H48.4081C47.8155 128.734 47.3351 129.207 47.3351 129.789V142.6C47.3351 143.303 47.9053 143.874 48.6088 143.874H61.4569C62.1603 143.874 62.7306 143.303 62.7306 142.6V130.171C62.7306 129.377 62.0767 128.734 61.2701 128.734L57.6235 128.734Z" fill="#157DF5"/>
<path d="M57.6196 129.314H55.031V143.874H61.453C62.1565 143.874 62.7267 143.303 62.7267 142.6V129.691C62.7267 129.162 62.2914 128.734 61.7544 128.734H57.6196V129.314Z" fill="#0965CD"/>
<path d="M57.1528 133.341H52.9088C52.6465 133.341 52.434 133.132 52.434 132.874V128.734H57.6277V132.874C57.6276 133.132 57.415 133.341 57.1528 133.341Z" fill="#40D98D"/>
<path d="M55.031 133.341H57.1214C57.4 133.341 57.6258 133.119 57.6258 132.845V128.734H55.031V133.341Z" fill="#25BB71"/>
<path d="M38.1431 140.416H31.1698C29.4192 140.416 28.0001 139.02 28.0001 137.299V128.987C28.0001 126.233 30.2707 124 33.0716 124C35.8647 124 38.1431 126.225 38.1431 128.987V140.416Z" fill="#B6D7FC"/>
<path d="M51.0359 152.836H44.668C43.8259 152.836 43.1432 152.164 43.1432 151.336C43.1432 150.508 43.8259 149.836 44.668 149.836H51.0359C51.878 149.836 52.5607 150.508 52.5607 151.336C52.5607 152.164 51.878 152.836 51.0359 152.836Z" fill="#282A52"/>
<path d="M61.9367 158.5C61.9367 159.328 61.2537 160 60.412 160H44.4629C43.6213 160 42.9382 159.328 42.9382 158.5C42.9382 157.672 43.6213 157 44.4629 157H60.412C61.2537 157 61.9367 157.672 61.9367 158.5Z" fill="#157DF5"/>
<path d="M61.9367 165.499C61.9367 166.327 61.2537 166.999 60.412 166.999H44.4629C43.6213 166.999 42.9382 166.327 42.9382 165.499C42.9382 164.671 43.6213 163.999 44.4629 163.999H60.412C61.2537 163.999 61.9367 164.671 61.9367 165.499Z" fill="#282A52"/>
<path d="M63.4396 160H55.0603V157H63.4396C64.2813 157 64.9643 157.672 64.9643 158.5C64.9643 159.328 64.2813 160 63.4396 160Z" fill="#0965CD"/>
<path d="M63.4396 166.999H55.0603V163.999H63.4396C64.2813 163.999 64.9643 164.671 64.9643 165.499C64.9643 166.327 64.2813 166.999 63.4396 166.999Z" fill="#1E203E"/>
<circle cx="69.2144" cy="165" r="12" fill="#FDAA49"/>
<path fill-rule="evenodd" clip-rule="evenodd" d="M84.2144 165C84.2144 173.284 77.4986 180 69.2144 180C60.9301 180 54.2144 173.284 54.2144 165C54.2144 156.716 60.9301 150 69.2144 150C77.4986 150 84.2144 156.716 84.2144 165ZM69.2144 177C75.8418 177 81.2144 171.627 81.2144 165C81.2144 158.373 75.8418 153 69.2144 153C62.5869 153 57.2144 158.373 57.2144 165C57.2144 171.627 62.5869 177 69.2144 177Z" fill="white"/>
<path d="M68.2144 176.959C68.5441 176.986 68.8776 177 69.2144 177C75.8418 177 81.2144 171.627 81.2144 165C81.2144 158.373 75.8418 153 69.2144 153C68.8776 153 68.5441 153.014 68.2144 153.041V176.959Z" fill="#FD9317"/>
<path d="M62.4553 167.747C62.4676 167.601 62.5311 167.465 62.6343 167.362L70.9777 159.02C71.7027 158.295 72.8788 158.296 73.6038 159.021C74.3289 159.746 74.3294 160.921 73.6044 161.646L65.261 169.988C65.1578 170.091 65.0213 170.154 64.8758 170.167L62.9618 170.329C62.5798 170.362 62.2604 170.042 62.2929 169.66L62.4553 167.747Z" fill="#F0F7FE"/>
<path d="M68.2133 161.775L62.6333 167.354C62.53 167.457 62.4666 167.594 62.4542 167.739L62.2918 169.653C62.2594 170.035 62.5787 170.354 62.9608 170.322L64.8747 170.159C65.0202 170.147 65.1567 170.084 65.26 169.98L68.2133 167.028V161.775Z" fill="white"/>
<defs>
<filter id="filter0_d_58344_11679" x="10" y="9" width="96" height="96" filterUnits="userSpaceOnUse" color-interpolation-filters="sRGB">
<feFlood flood-opacity="0" result="BackgroundImageFix"/>
<feColorMatrix in="SourceAlpha" type="matrix" values="0 0 0 0 0 0 0 0 0 0 0 0 0 0 0 0 0 0 127 0" result="hardAlpha"/>
<feOffset dx="2" dy="1"/>
<feGaussianBlur stdDeviation="4"/>
<feColorMatrix type="matrix" values="0 0 0 0 0.0392157 0 0 0 0 0.0392157 0 0 0 0 0.0627451 0 0 0 0.08 0"/>
<feBlend mode="normal" in2="BackgroundImageFix" result="effect1_dropShadow_58344_11679"/>
<feBlend mode="normal" in="SourceGraphic" in2="effect1_dropShadow_58344_11679" result="shape"/>
</filter>
</defs>
</svg>
