<svg width="112" height="208" viewBox="0 0 112 208" fill="none" xmlns="http://www.w3.org/2000/svg">
<rect x="0.5" y="0.5" width="111" height="207" rx="4.5" stroke="#9747FF" stroke-dasharray="10 5"/>
<g filter="url(#filter0_d_16758_57858)">
<rect x="16" y="16" width="80" height="80" rx="8" fill="white"/>
</g>
<path d="M30.1602 36.0018C30.1602 34.345 31.5033 33.0019 33.1601 33.0019H48.1602V81H33.1601C31.5033 81 30.1602 79.6569 30.1602 78.0001V36.0018Z" fill="#157DF5"/>
<path d="M66.1606 36.0018C66.1606 34.345 64.8175 33.0019 63.1607 33.0019H48.1606V81H63.1607C64.8175 81 66.1606 79.6569 66.1606 78.0001V36.0018Z" fill="#0965CD"/>
<path d="M34.1606 35.0195H48.1606V79.0178H42.1606V72.018C42.1606 70.3612 40.8175 69.0181 39.1606 69.0181H32.1606V37.0194C32.1606 35.9149 33.0561 35.0195 34.1606 35.0195Z" fill="white"/>
<path d="M32.1606 69.0165H40.1606C41.2652 69.0165 42.1606 69.9119 42.1606 71.0164V79.0161L32.1606 69.0165Z" fill="#B6D7FC"/>
<path d="M64.1606 37.0194C64.1606 35.9149 63.2652 35.0195 62.1606 35.0195H48.1606V79.0178H62.1606C63.2652 79.0178 64.1606 78.1224 64.1606 77.0178V37.0194Z" fill="#F0F7FE"/>
<path d="M59.1606 58.5191C59.1606 57.6907 58.4891 57.0192 57.6607 57.0192L48.1606 57.0192V60.019H57.6607C58.4891 60.019 59.1606 59.3475 59.1606 58.5191Z" fill="#282A52"/>
<path d="M46.1606 64.5178C46.1606 63.6894 45.4891 63.0178 44.6607 63.0178H39.6606C38.8322 63.0178 38.1606 63.6894 38.1606 64.5178C38.1606 65.3462 38.8322 66.0177 39.6606 66.0177H44.6607C45.4891 66.0177 46.1606 65.3462 46.1606 64.5178Z" fill="#40D98D"/>
<path d="M59.1606 44.52C59.1606 43.6916 58.4891 43.02 57.6607 43.02H52.6606C51.8322 43.02 51.1606 43.6916 51.1606 44.52C51.1606 45.3484 51.8322 46.0199 52.6606 46.0199H57.6607C58.4891 46.0199 59.1606 45.3484 59.1606 44.52Z" fill="#282A52"/>
<path d="M59.1606 50.5186C59.1606 49.6902 58.4891 49.0186 57.6607 49.0186H52.6606C51.8322 49.0186 51.1606 49.6902 51.1606 50.5186C51.1606 51.347 51.8322 52.0185 52.6606 52.0185H57.6607C58.4891 52.0185 59.1606 51.347 59.1606 50.5186Z" fill="#282A52"/>
<path d="M59.1606 64.5178C59.1606 63.6894 58.4891 63.0178 57.6607 63.0178H52.6606C51.8322 63.0178 51.1606 63.6894 51.1606 64.5178C51.1606 65.3462 51.8322 66.0177 52.6606 66.0177H57.6607C58.4891 66.0177 59.1606 65.3462 59.1606 64.5178Z" fill="#282A52"/>
<path d="M38.1606 58.5191C38.1606 57.6907 38.8322 57.0192 39.6606 57.0192H48.1606V60.019H39.6606C38.8322 60.019 38.1606 59.3475 38.1606 58.5191Z" fill="#282A52"/>
<path d="M42.1602 33C42.1602 31.8954 43.0556 31 44.1601 31H48.1602V34.9998H42.1602V33Z" fill="#157DF5"/>
<path d="M48.1602 31H52.1602C53.2647 31 54.1602 31.8954 54.1602 33V34.9998H48.1602V31Z" fill="#0965CD"/>
<path d="M61.75 71.5714C61.75 76.7787 66.0593 81 71.375 81C76.6907 81 81 76.7787 81 71.5714C81 66.3642 76.6907 59 71.375 59C66.0593 59 61.75 66.3642 61.75 71.5714Z" fill="#FFCFB5"/>
<path fill-rule="evenodd" clip-rule="evenodd" d="M58.75 71.5714C58.75 78.4936 64.461 84 71.375 84C78.289 84 84 78.4936 84 71.5714C84 68.253 82.6718 64.5215 80.6398 61.6143C78.6506 58.7684 75.4556 56 71.375 56C67.2944 56 64.0994 58.7684 62.1102 61.6143C60.0782 64.5215 58.75 68.253 58.75 71.5714ZM71.375 81C66.0593 81 61.75 76.7787 61.75 71.5714C61.75 66.3642 66.0593 59 71.375 59C76.6907 59 81 66.3642 81 71.5714C81 76.7787 76.6907 81 71.375 81Z" fill="white"/>
<circle cx="38" cy="38" r="10" fill="#F54B5E"/>
<path fill-rule="evenodd" clip-rule="evenodd" d="M36.4658 35.5843V42.5577C36.4658 43.3758 37.129 44.0391 37.9472 44.0391C38.7653 44.0391 39.4285 43.3758 39.4285 42.5577V34.4281C39.4285 32.463 37.1851 31.3413 35.6131 32.5203L33.4452 34.1462C32.7907 34.6371 32.658 35.5657 33.1489 36.2202C33.6398 36.8747 34.5683 37.0074 35.2228 36.5165L36.4658 35.5843Z" fill="white"/>
<path d="M30.1602 132.002C30.1602 130.345 31.5033 129.002 33.1601 129.002H48.1602V177H33.1601C31.5033 177 30.1602 175.657 30.1602 174V132.002Z" fill="#157DF5"/>
<path d="M66.1606 132.002C66.1606 130.345 64.8175 129.002 63.1607 129.002H48.1606V177H63.1607C64.8175 177 66.1606 175.657 66.1606 174V132.002Z" fill="#0965CD"/>
<path d="M34.1606 131.019H48.1606V175.018H42.1606V168.018C42.1606 166.361 40.8175 165.018 39.1606 165.018H32.1606V133.019C32.1606 131.915 33.0561 131.019 34.1606 131.019Z" fill="white"/>
<path d="M32.1606 165.016H40.1606C41.2652 165.016 42.1606 165.912 42.1606 167.016V175.016L32.1606 165.016Z" fill="#B6D7FC"/>
<path d="M64.1606 133.019C64.1606 131.915 63.2652 131.019 62.1606 131.019H48.1606V175.018H62.1606C63.2652 175.018 64.1606 174.122 64.1606 173.018V133.019Z" fill="#F0F7FE"/>
<path d="M59.1606 154.519C59.1606 153.691 58.4891 153.019 57.6607 153.019L48.1606 153.019V156.019H57.6607C58.4891 156.019 59.1606 155.348 59.1606 154.519Z" fill="#282A52"/>
<path d="M46.1606 160.518C46.1606 159.689 45.4891 159.018 44.6607 159.018H39.6606C38.8322 159.018 38.1606 159.689 38.1606 160.518C38.1606 161.346 38.8322 162.018 39.6606 162.018H44.6607C45.4891 162.018 46.1606 161.346 46.1606 160.518Z" fill="#40D98D"/>
<path d="M59.1606 140.52C59.1606 139.692 58.4891 139.02 57.6607 139.02H52.6606C51.8322 139.02 51.1606 139.692 51.1606 140.52C51.1606 141.348 51.8322 142.02 52.6606 142.02H57.6607C58.4891 142.02 59.1606 141.348 59.1606 140.52Z" fill="#282A52"/>
<path d="M59.1606 146.519C59.1606 145.69 58.4891 145.019 57.6607 145.019H52.6606C51.8322 145.019 51.1606 145.69 51.1606 146.519C51.1606 147.347 51.8322 148.018 52.6606 148.018H57.6607C58.4891 148.018 59.1606 147.347 59.1606 146.519Z" fill="#282A52"/>
<path d="M59.1606 160.518C59.1606 159.689 58.4891 159.018 57.6607 159.018H52.6606C51.8322 159.018 51.1606 159.689 51.1606 160.518C51.1606 161.346 51.8322 162.018 52.6606 162.018H57.6607C58.4891 162.018 59.1606 161.346 59.1606 160.518Z" fill="#282A52"/>
<path d="M38.1606 154.519C38.1606 153.691 38.8322 153.019 39.6606 153.019H48.1606V156.019H39.6606C38.8322 156.019 38.1606 155.348 38.1606 154.519Z" fill="#282A52"/>
<path d="M42.1602 129C42.1602 127.895 43.0556 127 44.1601 127H48.1602V131H42.1602V129Z" fill="#157DF5"/>
<path d="M48.1602 127H52.1602C53.2647 127 54.1602 127.895 54.1602 129V131H48.1602V127Z" fill="#0965CD"/>
<path d="M61.75 167.571C61.75 172.779 66.0593 177 71.375 177C76.6907 177 81 172.779 81 167.571C81 162.364 76.6907 155 71.375 155C66.0593 155 61.75 162.364 61.75 167.571Z" fill="#FFCFB5"/>
<path fill-rule="evenodd" clip-rule="evenodd" d="M58.75 167.571C58.75 174.494 64.461 180 71.375 180C78.289 180 84 174.494 84 167.571C84 164.253 82.6718 160.521 80.6398 157.614C78.6506 154.768 75.4556 152 71.375 152C67.2944 152 64.0994 154.768 62.1102 157.614C60.0782 160.521 58.75 164.253 58.75 167.571ZM71.375 177C66.0593 177 61.75 172.779 61.75 167.571C61.75 162.364 66.0593 155 71.375 155C76.6907 155 81 162.364 81 167.571C81 172.779 76.6907 177 71.375 177Z" fill="white"/>
<circle cx="38" cy="134" r="10" fill="#F54B5E"/>
<path fill-rule="evenodd" clip-rule="evenodd" d="M36.4658 131.584V138.558C36.4658 139.376 37.129 140.039 37.9472 140.039C38.7653 140.039 39.4285 139.376 39.4285 138.558V130.428C39.4285 128.463 37.1851 127.341 35.6131 128.52L33.4452 130.146C32.7907 130.637 32.658 131.566 33.1489 132.22C33.6398 132.875 34.5683 133.007 35.2228 132.516L36.4658 131.584Z" fill="white"/>
<defs>
<filter id="filter0_d_16758_57858" x="10" y="9" width="96" height="96" filterUnits="userSpaceOnUse" color-interpolation-filters="sRGB">
<feFlood flood-opacity="0" result="BackgroundImageFix"/>
<feColorMatrix in="SourceAlpha" type="matrix" values="0 0 0 0 0 0 0 0 0 0 0 0 0 0 0 0 0 0 127 0" result="hardAlpha"/>
<feOffset dx="2" dy="1"/>
<feGaussianBlur stdDeviation="4"/>
<feColorMatrix type="matrix" values="0 0 0 0 0.0392157 0 0 0 0 0.0392157 0 0 0 0 0.0627451 0 0 0 0.08 0"/>
<feBlend mode="normal" in2="BackgroundImageFix" result="effect1_dropShadow_16758_57858"/>
<feBlend mode="normal" in="SourceGraphic" in2="effect1_dropShadow_16758_57858" result="shape"/>
</filter>
</defs>
</svg>
