<svg width="112" height="208" viewBox="0 0 112 208" fill="none" xmlns="http://www.w3.org/2000/svg">
<rect x="0.5" y="0.5" width="111" height="207" rx="4.5" stroke="#9747FF" stroke-dasharray="10 5"/>
<g filter="url(#filter0_dd_32397_12199)">
<rect x="16" y="16" width="80" height="80" rx="8" fill="white"/>
</g>
<rect x="28" y="37.4285" width="24.0001" height="38.5698" fill="#157DF5"/>
<rect x="52" y="37.4285" width="24.0001" height="38.5698" fill="#0965CD"/>
<path d="M33.1523 43.1602H70.5359V55.2092H33.1523V43.1602Z" fill="#E2EFFE"/>
<path d="M51.9624 43.1602H70.5377V55.2092H51.9624V43.1602Z" fill="#B6D7FC"/>
<path d="M71.5651 41.3323H32.6419C32.0252 41.3323 31.5254 41.8322 31.5254 42.4488V75.9962H72.6684V42.4353C72.6683 41.8262 72.1744 41.3323 71.5651 41.3323ZM34.6761 52.3624C34.6761 51.4915 35.3821 50.7856 36.253 50.7856H67.9405C68.8115 50.7856 69.5175 51.4915 69.5175 52.3624C69.5175 53.2332 68.8115 53.9391 67.9405 53.9391H36.253C35.3821 53.9391 34.6761 53.2332 34.6761 52.3624ZM67.9412 44.4829C68.8118 44.4829 69.5175 45.1885 69.5175 46.0589C69.5175 46.9294 68.8118 47.635 67.9412 47.635H36.2523C35.3818 47.635 34.6761 46.9294 34.6761 46.0589C34.6761 45.1885 35.3818 44.4829 36.2523 44.4829H67.9412Z" fill="#F0F7FE"/>
<path d="M71.5659 41.3323H51.9624V44.4829H67.942C68.8125 44.4829 69.5182 45.1885 69.5182 46.0589C69.5182 46.9294 68.8125 47.635 67.942 47.635H51.9624V50.7856H67.9413C68.8122 50.7856 69.5182 51.4915 69.5182 52.3624C69.5182 53.2332 68.8122 53.9391 67.9413 53.9391H51.9624V75.9963H72.669V42.4353C72.669 41.8261 72.1752 41.3323 71.5659 41.3323Z" fill="#E2EFFE"/>
<path d="M34.6758 58.8021C34.6758 57.8554 35.4434 57.0879 36.3902 57.0879H67.8027C68.7496 57.0879 69.5172 57.8554 69.5172 58.8021V75.9925H34.6758V58.8021Z" fill="#282A52"/>
<path d="M51.9624 57.0879H67.8038C68.7506 57.0879 69.5182 57.8554 69.5182 58.8021V75.9925H51.9624V57.0879Z" fill="#1E203E"/>
<path d="M28 35.3383C28 34.5516 28.5354 33.8659 29.2986 33.6751L52.0001 28V37.4282H28V35.3383Z" fill="#157DF5"/>
<path d="M76 35.3383C76 34.5516 75.4646 33.8659 74.7014 33.6751L51.9999 28V37.4282H76V35.3383Z" fill="#0965CD"/>
<path d="M53.002 74.8571C53.002 77.6975 55.4644 80 58.502 80C61.5395 80 64.002 77.6975 64.002 74.8571C64.002 72.0168 61.5395 68 58.502 68C55.4644 68 53.002 72.0168 53.002 74.8571Z" fill="#FF7E75"/>
<path d="M40.002 74.8571C40.002 77.6975 42.4644 80 45.502 80C48.5395 80 51.002 77.6975 51.002 74.8571C51.002 72.0168 48.5395 68 45.502 68C42.4644 68 40.002 72.0168 40.002 74.8571Z" fill="#FFA099"/>
<path d="M45.002 73.1429C45.002 76.93 48.136 80 52.002 80C55.8679 80 59.002 76.93 59.002 73.1429C59.002 69.3558 55.8679 64 52.002 64C48.136 64 45.002 69.3558 45.002 73.1429Z" fill="#FFCFB5"/>
<path fill-rule="evenodd" clip-rule="evenodd" d="M44.8909 65.0282C46.4837 62.9242 48.8924 61 52.002 61C55.1115 61 57.5202 62.9242 59.113 65.0282C61.6867 65.2669 63.6326 66.9811 64.8115 68.5911C66.1098 70.3642 67.002 72.6855 67.002 74.8571C67.002 79.5409 63.0035 83 58.502 83C57.4015 83 56.3418 82.7985 55.366 82.4275C54.3117 82.7987 53.1782 83 52.002 83C50.8257 83 49.6922 82.7987 48.6379 82.4275C47.6621 82.7985 46.6024 83 45.502 83C41.0004 83 37.002 79.5409 37.002 74.8571C37.002 72.6855 37.8941 70.3642 39.1924 68.5911C40.3713 66.9811 42.3172 65.2669 44.8909 65.0282ZM48.5746 79.1232C47.6973 79.6768 46.64 80 45.502 80C42.4644 80 40.002 77.6975 40.002 74.8571C40.002 72.0168 42.4644 68 45.502 68C45.8221 68 46.1358 68.0446 46.4409 68.1277C47.7202 65.8411 49.7353 64 52.002 64C54.2687 64 56.2837 65.8411 57.563 68.1277C57.8681 68.0446 58.1818 68 58.502 68C61.5395 68 64.002 72.0168 64.002 74.8571C64.002 77.6975 61.5395 80 58.502 80C57.3639 80 56.3066 79.6768 55.4293 79.1232C54.4163 79.6815 53.2471 80 52.002 80C50.7568 80 49.5876 79.6815 48.5746 79.1232Z" fill="white"/>
<path d="M52.002 64C48.136 64 45.002 69.3558 45.002 73.1429C45.002 76.93 48.136 80 52.002 80V64Z" fill="#FFDECC"/>
<rect x="64.0029" y="40" width="20" height="21" rx="3" fill="white"/>
<rect x="67.0029" y="55" width="14" height="3" rx="1.5" fill="#F54B5E"/>
<rect x="67.0029" y="49" width="14" height="3" rx="1.5" fill="#FEE048"/>
<rect x="67.0029" y="43" width="14" height="3" rx="1.5" fill="#09C369"/>
<rect x="28" y="133.428" width="24.0001" height="38.5698" fill="#157DF5"/>
<rect x="52" y="133.428" width="24.0001" height="38.5698" fill="#0965CD"/>
<path d="M33.1523 139.16H70.5359V151.209H33.1523V139.16Z" fill="#E2EFFE"/>
<path d="M51.9624 139.16H70.5377V151.209H51.9624V139.16Z" fill="#B6D7FC"/>
<path d="M71.5651 137.332H32.6419C32.0252 137.332 31.5254 137.832 31.5254 138.449V171.996H72.6684V138.435C72.6683 137.826 72.1744 137.332 71.5651 137.332ZM34.6761 148.362C34.6761 147.492 35.3821 146.786 36.253 146.786H67.9405C68.8115 146.786 69.5175 147.492 69.5175 148.362C69.5175 149.233 68.8115 149.939 67.9405 149.939H36.253C35.3821 149.939 34.6761 149.233 34.6761 148.362ZM67.9412 140.483C68.8118 140.483 69.5175 141.188 69.5175 142.059C69.5175 142.929 68.8118 143.635 67.9412 143.635H36.2523C35.3818 143.635 34.6761 142.929 34.6761 142.059C34.6761 141.188 35.3818 140.483 36.2523 140.483H67.9412Z" fill="#F0F7FE"/>
<path d="M71.5659 137.332H51.9624V140.483H67.942C68.8125 140.483 69.5182 141.188 69.5182 142.059C69.5182 142.929 68.8125 143.635 67.942 143.635H51.9624V146.786H67.9413C68.8122 146.786 69.5182 147.492 69.5182 148.362C69.5182 149.233 68.8122 149.939 67.9413 149.939H51.9624V171.996H72.669V138.435C72.669 137.826 72.1752 137.332 71.5659 137.332Z" fill="#E2EFFE"/>
<path d="M34.6758 154.802C34.6758 153.855 35.4434 153.088 36.3902 153.088H67.8027C68.7496 153.088 69.5172 153.855 69.5172 154.802V171.993H34.6758V154.802Z" fill="#282A52"/>
<path d="M51.9624 153.088H67.8038C68.7506 153.088 69.5182 153.855 69.5182 154.802V171.993H51.9624V153.088Z" fill="#1E203E"/>
<path d="M28 131.338C28 130.552 28.5354 129.866 29.2986 129.675L52.0001 124V133.428H28V131.338Z" fill="#157DF5"/>
<path d="M76 131.338C76 130.552 75.4646 129.866 74.7014 129.675L51.9999 124V133.428H76V131.338Z" fill="#0965CD"/>
<path d="M53.002 170.857C53.002 173.697 55.4644 176 58.502 176C61.5395 176 64.002 173.697 64.002 170.857C64.002 168.017 61.5395 164 58.502 164C55.4644 164 53.002 168.017 53.002 170.857Z" fill="#FF7E75"/>
<path d="M40.002 170.857C40.002 173.697 42.4644 176 45.502 176C48.5395 176 51.002 173.697 51.002 170.857C51.002 168.017 48.5395 164 45.502 164C42.4644 164 40.002 168.017 40.002 170.857Z" fill="#FFA099"/>
<path d="M45.002 169.143C45.002 172.93 48.136 176 52.002 176C55.8679 176 59.002 172.93 59.002 169.143C59.002 165.356 55.8679 160 52.002 160C48.136 160 45.002 165.356 45.002 169.143Z" fill="#FFCFB5"/>
<path fill-rule="evenodd" clip-rule="evenodd" d="M44.8909 161.028C46.4837 158.924 48.8924 157 52.002 157C55.1115 157 57.5202 158.924 59.113 161.028C61.6867 161.267 63.6326 162.981 64.8115 164.591C66.1098 166.364 67.002 168.686 67.002 170.857C67.002 175.541 63.0035 179 58.502 179C57.4015 179 56.3418 178.799 55.366 178.428C54.3117 178.799 53.1782 179 52.002 179C50.8257 179 49.6922 178.799 48.6379 178.428C47.6621 178.799 46.6024 179 45.502 179C41.0004 179 37.002 175.541 37.002 170.857C37.002 168.686 37.8941 166.364 39.1924 164.591C40.3713 162.981 42.3172 161.267 44.8909 161.028ZM48.5746 175.123C47.6973 175.677 46.64 176 45.502 176C42.4644 176 40.002 173.697 40.002 170.857C40.002 168.017 42.4644 164 45.502 164C45.8221 164 46.1358 164.045 46.4409 164.128C47.7202 161.841 49.7353 160 52.002 160C54.2687 160 56.2837 161.841 57.563 164.128C57.8681 164.045 58.1818 164 58.502 164C61.5395 164 64.002 168.017 64.002 170.857C64.002 173.697 61.5395 176 58.502 176C57.3639 176 56.3066 175.677 55.4293 175.123C54.4163 175.682 53.2471 176 52.002 176C50.7568 176 49.5876 175.682 48.5746 175.123Z" fill="white"/>
<path d="M52.002 160C48.136 160 45.002 165.356 45.002 169.143C45.002 172.93 48.136 176 52.002 176V160Z" fill="#FFDECC"/>
<rect x="64.0029" y="136" width="20" height="21" rx="3" fill="white"/>
<rect x="67.0029" y="151" width="14" height="3" rx="1.5" fill="#F54B5E"/>
<rect x="67.0029" y="145" width="14" height="3" rx="1.5" fill="#FEE048"/>
<rect x="67.0029" y="139" width="14" height="3" rx="1.5" fill="#09C369"/>
<defs>
<filter id="filter0_dd_32397_12199" x="6" y="9" width="100" height="100" filterUnits="userSpaceOnUse" color-interpolation-filters="sRGB">
<feFlood flood-opacity="0" result="BackgroundImageFix"/>
<feColorMatrix in="SourceAlpha" type="matrix" values="0 0 0 0 0 0 0 0 0 0 0 0 0 0 0 0 0 0 127 0" result="hardAlpha"/>
<feOffset dy="3"/>
<feGaussianBlur stdDeviation="5"/>
<feColorMatrix type="matrix" values="0 0 0 0 0.516667 0 0 0 0 0.578358 0 0 0 0 0.775 0 0 0 0.12 0"/>
<feBlend mode="normal" in2="BackgroundImageFix" result="effect1_dropShadow_32397_12199"/>
<feColorMatrix in="SourceAlpha" type="matrix" values="0 0 0 0 0 0 0 0 0 0 0 0 0 0 0 0 0 0 127 0" result="hardAlpha"/>
<feOffset dy="1"/>
<feGaussianBlur stdDeviation="3"/>
<feColorMatrix type="matrix" values="0 0 0 0 0.709809 0 0 0 0 0.788943 0 0 0 0 0.920833 0 0 0 0.15 0"/>
<feBlend mode="normal" in2="effect1_dropShadow_32397_12199" result="effect2_dropShadow_32397_12199"/>
<feBlend mode="normal" in="SourceGraphic" in2="effect2_dropShadow_32397_12199" result="shape"/>
</filter>
</defs>
</svg>
