<svg width="112" height="208" viewBox="0 0 112 208" fill="none" xmlns="http://www.w3.org/2000/svg">
<rect x="0.5" y="0.5" width="111" height="207" rx="4.5" stroke="#9747FF" stroke-dasharray="10 5"/>
<g filter="url(#filter0_dd_48545_11362)">
<rect x="16" y="16" width="80" height="80" rx="8" fill="white"/>
</g>
<path d="M77.8945 60.5332H73.2363C72.3788 60.5332 71.6836 59.8445 71.6836 58.9951V54.3809H37.3164V58.9951C37.3164 59.8445 36.6212 60.5332 35.7637 60.5332H31.1055C29.3903 60.5332 28 59.156 28 57.457V43.6143C28 41.0659 30.0855 39 32.6582 39H42.0781C45.8265 39 48.9653 41.6466 49.6871 45.1523H76.3418C78.9145 45.1523 81 47.2182 81 49.7666V57.457C81 59.156 79.6097 60.5332 77.8945 60.5332Z" fill="#157DF5"/>
<path d="M81 49.7666C81 47.2182 78.9145 45.1523 76.3418 45.1523H54.5V54.3809H71.6836V58.9951C71.6836 59.8446 72.3788 60.5332 73.2363 60.5332H77.8945C79.6097 60.5332 81 59.1558 81 57.457V49.7666Z" fill="#0965CD"/>
<path d="M77.5544 60.5332H31.4456C30.5873 60.5332 29.8928 59.8453 29.8928 58.9951V52.8428C29.8928 51.9926 30.5873 51.3047 31.4456 51.3047H77.5544C78.4126 51.3047 79.1071 51.9926 79.1071 52.8428V58.9951C79.1071 59.8453 78.4126 60.5332 77.5544 60.5332Z" fill="#E2EFFE"/>
<path d="M76.3418 84H32.6582C30.0855 84 28 81.9341 28 79.3857V57.457H54.9141L81 79.3857C81 81.9341 78.9145 84 76.3418 84Z" fill="#157DF5"/>
<path d="M77.5544 51.3047H54.5V60.5332H77.5544C78.4127 60.5332 79.1071 59.8453 79.1071 58.9951V52.8428C79.1071 51.9926 78.4127 51.3047 77.5544 51.3047Z" fill="#B6D7FC"/>
<path d="M81 57.457H54.5V84H76.3418C78.9145 84 81 81.9341 81 79.3857V57.457Z" fill="#0965CD"/>
<path d="M69 55C75.6274 55 81 49.6274 81 43C81 36.3726 75.6274 31 69 31C62.3726 31 57 36.3726 57 43C57 49.6274 62.3726 55 69 55Z" fill="#F54B5E"/>
<path fill-rule="evenodd" clip-rule="evenodd" d="M84 43C84 51.2843 77.2843 58 69 58C60.7157 58 54 51.2843 54 43C54 34.7157 60.7157 28 69 28C77.2843 28 84 34.7157 84 43ZM81 43C81 49.6274 75.6274 55 69 55C62.3726 55 57 49.6274 57 43C57 36.3726 62.3726 31 69 31C75.6274 31 81 36.3726 81 43Z" fill="white"/>
<path d="M71.6603 43.0001L75.2565 39.4039C75.3536 39.3068 75.4306 39.1916 75.4831 39.0648C75.5357 38.938 75.5627 38.8021 75.5627 38.6649C75.5627 38.5276 75.5357 38.3917 75.4831 38.2649C75.4306 38.1381 75.3536 38.0229 75.2565 37.9259L74.0743 36.7437C73.9773 36.6466 73.8621 36.5696 73.7353 36.5171C73.6085 36.4645 73.4726 36.4375 73.3353 36.4375C73.1981 36.4375 73.0622 36.4645 72.9354 36.5171C72.8086 36.5696 72.6934 36.6466 72.5964 36.7437L69.0001 40.3399L65.4039 36.7437C65.3068 36.6466 65.1916 36.5696 65.0648 36.5171C64.938 36.4645 64.8021 36.4375 64.6649 36.4375C64.5276 36.4375 64.3917 36.4645 64.2649 36.5171C64.1381 36.5696 64.0229 36.6466 63.9259 36.7437L62.7437 37.9259C62.6466 38.0229 62.5696 38.1381 62.5171 38.2649C62.4645 38.3917 62.4375 38.5276 62.4375 38.6649C62.4375 38.8021 62.4645 38.938 62.5171 39.0648C62.5696 39.1916 62.6466 39.3068 62.7437 39.4039L66.3399 43.0001L62.7437 46.5964C62.6466 46.6934 62.5696 46.8086 62.5171 46.9354C62.4645 47.0622 62.4375 47.1981 62.4375 47.3353C62.4375 47.4726 62.4645 47.6085 62.5171 47.7353C62.5696 47.8621 62.6466 47.9773 62.7437 48.0743L63.9259 49.2565C64.0229 49.3536 64.1381 49.4306 64.2649 49.4831C64.3917 49.5357 64.5276 49.5627 64.6649 49.5627C64.8021 49.5627 64.938 49.5357 65.0648 49.4831C65.1916 49.4306 65.3068 49.3536 65.4039 49.2565L69.0001 45.6603L72.5964 49.2565C72.6934 49.3536 72.8086 49.4306 72.9354 49.4831C73.0622 49.5357 73.1981 49.5627 73.3353 49.5627C73.4726 49.5627 73.6085 49.5357 73.7353 49.4831C73.8621 49.4306 73.9773 49.3536 74.0743 49.2565L75.2565 48.0743C75.3536 47.9773 75.4306 47.8621 75.4831 47.7353C75.5357 47.6085 75.5627 47.4726 75.5627 47.3353C75.5627 47.1981 75.5357 47.0622 75.4831 46.9354C75.4306 46.8086 75.3536 46.6934 75.2565 46.5964L71.6603 43.0001Z" fill="white"/>
<path d="M69 55C75.6274 55 81 49.6274 81 43C81 36.3726 75.6274 31 69 31V55Z" fill="#F3263D"/>
<path d="M69 45.6604L72.5964 49.2565C72.6934 49.3536 72.8086 49.4306 72.9354 49.4831C73.0622 49.5357 73.1981 49.5627 73.3353 49.5627C73.4726 49.5627 73.6085 49.5357 73.7353 49.4831C73.8621 49.4306 73.9773 49.3536 74.0743 49.2565L75.2565 48.0743C75.3536 47.9773 75.4306 47.8621 75.4831 47.7353C75.5357 47.6085 75.5627 47.4726 75.5627 47.3353C75.5627 47.1981 75.5357 47.0622 75.4831 46.9354C75.4306 46.8086 75.3536 46.6934 75.2565 46.5964L71.6603 43.0001L75.2565 39.4039C75.3536 39.3068 75.4306 39.1916 75.4831 39.0648C75.5357 38.938 75.5627 38.8021 75.5627 38.6649C75.5627 38.5276 75.5357 38.3917 75.4831 38.2649C75.4306 38.1381 75.3536 38.0229 75.2565 37.9259L74.0743 36.7437C73.9773 36.6466 73.8621 36.5696 73.7353 36.5171C73.6085 36.4645 73.4726 36.4375 73.3353 36.4375C73.1981 36.4375 73.0622 36.4645 72.9354 36.5171C72.8086 36.5696 72.6934 36.6466 72.5964 36.7437L69.0001 40.3399L69 45.6604Z" fill="white"/>
<path d="M77.8945 156.533H73.2363C72.3788 156.533 71.6836 155.845 71.6836 154.995V150.381H37.3164V154.995C37.3164 155.845 36.6212 156.533 35.7637 156.533H31.1055C29.3903 156.533 28 155.156 28 153.457V139.614C28 137.066 30.0855 135 32.6582 135H42.0781C45.8265 135 48.9653 137.647 49.6871 141.152H76.3418C78.9145 141.152 81 143.218 81 145.767V153.457C81 155.156 79.6097 156.533 77.8945 156.533Z" fill="#157DF5"/>
<path d="M81 145.767C81 143.218 78.9145 141.152 76.3418 141.152H54.5V150.381H71.6836V154.995C71.6836 155.845 72.3788 156.533 73.2363 156.533H77.8945C79.6097 156.533 81 155.156 81 153.457V145.767Z" fill="#0965CD"/>
<path d="M77.5544 156.533H31.4456C30.5873 156.533 29.8928 155.845 29.8928 154.995V148.843C29.8928 147.993 30.5873 147.305 31.4456 147.305H77.5544C78.4126 147.305 79.1071 147.993 79.1071 148.843V154.995C79.1071 155.845 78.4126 156.533 77.5544 156.533Z" fill="#E2EFFE"/>
<path d="M76.3418 180H32.6582C30.0855 180 28 177.934 28 175.386V153.457H54.9141L81 175.386C81 177.934 78.9145 180 76.3418 180Z" fill="#157DF5"/>
<path d="M77.5544 147.305H54.5V156.533H77.5544C78.4127 156.533 79.1071 155.845 79.1071 154.995V148.843C79.1071 147.993 78.4127 147.305 77.5544 147.305Z" fill="#B6D7FC"/>
<path d="M81 153.457H54.5V180H76.3418C78.9145 180 81 177.934 81 175.386V153.457Z" fill="#0965CD"/>
<path d="M69 151C75.6274 151 81 145.627 81 139C81 132.373 75.6274 127 69 127C62.3726 127 57 132.373 57 139C57 145.627 62.3726 151 69 151Z" fill="#F54B5E"/>
<path fill-rule="evenodd" clip-rule="evenodd" d="M84 139C84 147.284 77.2843 154 69 154C60.7157 154 54 147.284 54 139C54 130.716 60.7157 124 69 124C77.2843 124 84 130.716 84 139ZM81 139C81 145.627 75.6274 151 69 151C62.3726 151 57 145.627 57 139C57 132.373 62.3726 127 69 127C75.6274 127 81 132.373 81 139Z" fill="white"/>
<path d="M71.6603 139L75.2565 135.404C75.3536 135.307 75.4306 135.192 75.4831 135.065C75.5357 134.938 75.5627 134.802 75.5627 134.665C75.5627 134.528 75.5357 134.392 75.4831 134.265C75.4306 134.138 75.3536 134.023 75.2565 133.926L74.0743 132.744C73.9773 132.647 73.8621 132.57 73.7353 132.517C73.6085 132.465 73.4726 132.438 73.3353 132.438C73.1981 132.438 73.0622 132.465 72.9354 132.517C72.8086 132.57 72.6934 132.647 72.5964 132.744L69.0001 136.34L65.4039 132.744C65.3068 132.647 65.1916 132.57 65.0648 132.517C64.938 132.465 64.8021 132.438 64.6649 132.438C64.5276 132.438 64.3917 132.465 64.2649 132.517C64.1381 132.57 64.0229 132.647 63.9259 132.744L62.7437 133.926C62.6466 134.023 62.5696 134.138 62.5171 134.265C62.4645 134.392 62.4375 134.528 62.4375 134.665C62.4375 134.802 62.4645 134.938 62.5171 135.065C62.5696 135.192 62.6466 135.307 62.7437 135.404L66.3399 139L62.7437 142.596C62.6466 142.693 62.5696 142.809 62.5171 142.935C62.4645 143.062 62.4375 143.198 62.4375 143.335C62.4375 143.473 62.4645 143.608 62.5171 143.735C62.5696 143.862 62.6466 143.977 62.7437 144.074L63.9259 145.257C64.0229 145.354 64.1381 145.431 64.2649 145.483C64.3917 145.536 64.5276 145.563 64.6649 145.563C64.8021 145.563 64.938 145.536 65.0648 145.483C65.1916 145.431 65.3068 145.354 65.4039 145.257L69.0001 141.66L72.5964 145.257C72.6934 145.354 72.8086 145.431 72.9354 145.483C73.0622 145.536 73.1981 145.563 73.3353 145.563C73.4726 145.563 73.6085 145.536 73.7353 145.483C73.8621 145.431 73.9773 145.354 74.0743 145.257L75.2565 144.074C75.3536 143.977 75.4306 143.862 75.4831 143.735C75.5357 143.608 75.5627 143.473 75.5627 143.335C75.5627 143.198 75.5357 143.062 75.4831 142.935C75.4306 142.809 75.3536 142.693 75.2565 142.596L71.6603 139Z" fill="white"/>
<path d="M69 151C75.6274 151 81 145.627 81 139C81 132.373 75.6274 127 69 127V151Z" fill="#F3263D"/>
<path d="M69 141.66L72.5964 145.257C72.6934 145.354 72.8086 145.431 72.9354 145.483C73.0622 145.536 73.1981 145.563 73.3353 145.563C73.4726 145.563 73.6085 145.536 73.7353 145.483C73.8621 145.431 73.9773 145.354 74.0743 145.257L75.2565 144.074C75.3536 143.977 75.4306 143.862 75.4831 143.735C75.5357 143.608 75.5627 143.473 75.5627 143.335C75.5627 143.198 75.5357 143.062 75.4831 142.935C75.4306 142.809 75.3536 142.693 75.2565 142.596L71.6603 139L75.2565 135.404C75.3536 135.307 75.4306 135.192 75.4831 135.065C75.5357 134.938 75.5627 134.802 75.5627 134.665C75.5627 134.528 75.5357 134.392 75.4831 134.265C75.4306 134.138 75.3536 134.023 75.2565 133.926L74.0743 132.744C73.9773 132.647 73.8621 132.57 73.7353 132.517C73.6085 132.465 73.4726 132.438 73.3353 132.438C73.1981 132.438 73.0622 132.465 72.9354 132.517C72.8086 132.57 72.6934 132.647 72.5964 132.744L69.0001 136.34L69 141.66Z" fill="white"/>
<defs>
<filter id="filter0_dd_48545_11362" x="6" y="9" width="100" height="100" filterUnits="userSpaceOnUse" color-interpolation-filters="sRGB">
<feFlood flood-opacity="0" result="BackgroundImageFix"/>
<feColorMatrix in="SourceAlpha" type="matrix" values="0 0 0 0 0 0 0 0 0 0 0 0 0 0 0 0 0 0 127 0" result="hardAlpha"/>
<feOffset dy="3"/>
<feGaussianBlur stdDeviation="5"/>
<feColorMatrix type="matrix" values="0 0 0 0 0.516667 0 0 0 0 0.578358 0 0 0 0 0.775 0 0 0 0.12 0"/>
<feBlend mode="normal" in2="BackgroundImageFix" result="effect1_dropShadow_48545_11362"/>
<feColorMatrix in="SourceAlpha" type="matrix" values="0 0 0 0 0 0 0 0 0 0 0 0 0 0 0 0 0 0 127 0" result="hardAlpha"/>
<feOffset dy="1"/>
<feGaussianBlur stdDeviation="3"/>
<feColorMatrix type="matrix" values="0 0 0 0 0.709809 0 0 0 0 0.788943 0 0 0 0 0.920833 0 0 0 0.15 0"/>
<feBlend mode="normal" in2="effect1_dropShadow_48545_11362" result="effect2_dropShadow_48545_11362"/>
<feBlend mode="normal" in="SourceGraphic" in2="effect2_dropShadow_48545_11362" result="shape"/>
</filter>
</defs>
</svg>
