<svg width="112" height="200" viewBox="0 0 112 200" fill="none" xmlns="http://www.w3.org/2000/svg">
<rect x="0.5" y="0.5" width="111" height="199" rx="4.5" stroke="#9747FF" stroke-dasharray="10 5"/>
<g filter="url(#filter0_d_20184_57233)">
<rect x="16" y="16" width="80" height="80" rx="8" fill="white"/>
</g>
<path d="M72.9999 32H63.6249L64.7346 39.2286C64.7346 39.2286 64.9641 40.8393 66.5713 40.8393C68.1785 40.8393 72.9999 40.8393 72.9999 40.8393C72.9999 40.8393 77.8214 40.8393 79.4285 40.8393C81.0356 40.8393 81.2652 39.1401 81.2652 39.1401L82.3749 32H72.9999Z" fill="#25BB71"/>
<path d="M62 31.6875C62 30.8591 62.6716 30.1875 63.5 30.1875H82.4998C83.3282 30.1875 83.9998 30.8591 83.9998 31.6875C83.9998 32.5159 83.3282 33.1875 82.4998 33.1875H63.5C62.6716 33.1875 62 32.5159 62 31.6875Z" fill="#40D98D"/>
<path d="M73 33C74.6568 33 76 32.6569 76 31C76 29.3431 74.6568 28 73 28C71.3431 28 70 29.3431 70 31C70 32.6569 71.3431 33 73 33Z" fill="#40D98D"/>
<path d="M76 36C76 35.4477 76.4477 35 77 35C77.5523 35 78 35.4477 78 36V38C78 38.5523 77.5523 39 77 39C76.4477 39 76 38.5523 76 38V36Z" fill="white"/>
<path d="M71.9999 35.9922C71.9999 35.4399 72.4476 34.9922 72.9999 34.9922C73.5522 34.9922 73.9999 35.4399 73.9999 35.9922V37.9922C73.9999 38.5445 73.5522 38.9922 72.9999 38.9922C72.4476 38.9922 71.9999 38.5445 71.9999 37.9922L71.9999 35.9922Z" fill="white"/>
<path d="M68 36C68 35.4477 68.4477 35 69 35C69.5523 35 70 35.4477 70 36V38C70 38.5523 69.5523 39 69 39C68.4477 39 68 38.5523 68 38V36Z" fill="white"/>
<path fill-rule="evenodd" clip-rule="evenodd" d="M54.5 39C54.5 37.067 56.067 35.5 58 35.5H60C60.8284 35.5 61.5 36.1716 61.5 37C61.5 37.8284 60.8284 38.5 60 38.5H58C57.7239 38.5 57.5 38.7239 57.5 39V77C57.5 77.2761 57.7239 77.5 58 77.5H60C60.8284 77.5 61.5 78.1716 61.5 79C61.5 79.8284 60.8284 80.5 60 80.5H58C56.067 80.5 54.5 78.933 54.5 77V39Z" fill="#B6D7FC"/>
<path fill-rule="evenodd" clip-rule="evenodd" d="M54.5 57C54.5 56.1716 55.1716 55.5 56 55.5H62C62.8284 55.5 63.5 56.1716 63.5 57C63.5 57.8284 62.8284 58.5 62 58.5H56C55.1716 58.5 54.5 57.8284 54.5 57Z" fill="#B6D7FC"/>
<path fill-rule="evenodd" clip-rule="evenodd" d="M56 58.5H50V55.5H56V58.5Z" fill="#B6D7FC"/>
<circle cx="39.7336" cy="56.5187" r="4.8" fill="white"/>
<path d="M50.568 53.0286C50.1012 52.9608 49.6557 52.7886 49.2647 52.5247C48.8737 52.2609 48.5472 51.9122 48.3096 51.5047C48.072 51.0972 47.9294 50.6413 47.8924 50.1711C47.8555 49.7008 47.925 49.2283 48.096 48.7886C48.2047 48.5012 48.2207 48.187 48.1418 47.89C48.0629 47.593 47.893 47.3282 47.656 47.1326C46.6096 46.254 45.4186 45.5637 44.136 45.0926C43.8439 44.9841 43.5251 44.9706 43.2249 45.0539C42.9247 45.1372 42.6584 45.3131 42.464 45.5566C42.1714 45.9308 41.7975 46.2333 41.3706 46.4414C40.9437 46.6495 40.4749 46.7577 40 46.7577C39.5251 46.7577 39.0564 46.6495 38.6294 46.4414C38.2025 46.2333 37.8286 45.9308 37.536 45.5566C37.3416 45.3131 37.0754 45.1372 36.7751 45.0539C36.4749 44.9706 36.1561 44.9841 35.864 45.0926C34.6797 45.5275 33.5725 46.1487 32.584 46.9326C32.3348 47.1299 32.1554 47.4017 32.0719 47.7083C31.9884 48.015 32.0053 48.3403 32.12 48.6366C32.3046 49.0879 32.3809 49.5762 32.3427 50.0622C32.3045 50.5483 32.153 51.0187 31.9002 51.4356C31.6474 51.8525 31.3004 52.2044 30.887 52.4629C30.4737 52.7215 30.0055 52.8797 29.52 52.9246C29.2048 52.9583 28.9088 53.0923 28.6755 53.3069C28.4422 53.5215 28.2839 53.8053 28.224 54.1166C28.0751 54.854 28 55.6044 28 56.3566C27.9989 56.9864 28.0498 57.6152 28.152 58.2366C28.2029 58.5579 28.3582 58.8534 28.5939 59.0776C28.8296 59.3017 29.1326 59.4419 29.456 59.4766C29.9522 59.5232 30.43 59.6879 30.8494 59.957C31.2688 60.2261 31.6177 60.5918 31.8668 61.0234C32.1159 61.455 32.2579 61.94 32.2811 62.4378C32.3043 62.9356 32.2079 63.4317 32 63.8846C31.864 64.1792 31.8302 64.5108 31.9041 64.8268C31.978 65.1427 32.1554 65.425 32.408 65.6286C33.4481 66.4913 34.6277 67.1704 35.896 67.6366C36.0582 67.6928 36.2284 67.7225 36.4 67.7246C36.6353 67.7241 36.8671 67.6672 37.0759 67.5586C37.2847 67.45 37.4644 67.293 37.6 67.1006C37.8851 66.6852 38.2674 66.3456 38.7135 66.1114C39.1596 65.8772 39.6561 65.7554 40.16 65.7566C40.6482 65.7572 41.1295 65.8718 41.5656 66.0913C42.0017 66.3107 42.3806 66.6289 42.672 67.0206C42.8659 67.2812 43.1404 67.4703 43.453 67.5586C43.7655 67.6469 44.0985 67.6293 44.4 67.5086C45.5598 67.0419 46.6394 66.3967 47.6 65.5966C47.8413 65.3971 48.0131 65.1262 48.0907 64.8229C48.1684 64.5196 48.1478 64.1995 48.032 63.9086C47.8438 63.4632 47.7618 62.9801 47.7924 62.4975C47.8229 62.0149 47.9652 61.546 48.208 61.1278C48.4509 60.7096 48.7876 60.3536 49.1916 60.0879C49.5956 59.8222 50.0558 59.654 50.536 59.5966C50.8473 59.5536 51.1369 59.4125 51.3627 59.1939C51.5885 58.9753 51.7389 58.6904 51.792 58.3806C51.9205 57.7133 51.9901 57.0361 52 56.3566C52.0002 55.6399 51.9332 54.9248 51.8 54.2206C51.746 53.9177 51.5979 53.6394 51.3767 53.4254C51.1555 53.2115 50.8726 53.0726 50.568 53.0286ZM44 56.3566C44 57.1477 43.7654 57.9211 43.3259 58.5789C42.8864 59.2367 42.2616 59.7494 41.5307 60.0521C40.7998 60.3549 39.9956 60.4341 39.2196 60.2798C38.4437 60.1254 37.731 59.7445 37.1716 59.185C36.6122 58.6256 36.2312 57.9129 36.0769 57.137C35.9225 56.3611 36.0017 55.5568 36.3045 54.8259C36.6072 54.095 37.1199 53.4703 37.7777 53.0307C38.4355 52.5912 39.2089 52.3566 40 52.3566C41.0609 52.3566 42.0783 52.7781 42.8284 53.5282C43.5786 54.2783 44 55.2958 44 56.3566Z" fill="#157DF5"/>
<path fill-rule="evenodd" clip-rule="evenodd" d="M39.9993 65.7604C40.0527 65.7578 40.1064 65.7565 40.1601 65.7566C40.6483 65.7572 41.1296 65.8718 41.5657 66.0913C42.0018 66.3107 42.3806 66.6289 42.6721 67.0206C42.8659 67.2812 43.1405 67.4703 43.453 67.5586C43.7656 67.6469 44.0985 67.6293 44.4001 67.5086C45.5598 67.0419 46.6395 66.3967 47.6001 65.5966C47.8414 65.3971 48.0132 65.1262 48.0908 64.8229C48.1684 64.5196 48.1479 64.1995 48.0321 63.9086C47.8439 63.4632 47.7619 62.9801 47.7924 62.4975C47.823 62.0149 47.9653 61.546 48.2081 61.1278C48.4509 60.7096 48.7876 60.3536 49.1917 60.0879C49.5957 59.8222 50.0559 59.654 50.5361 59.5966C50.8474 59.5536 51.137 59.4125 51.3628 59.1939C51.5886 58.9753 51.739 58.6904 51.7921 58.3806C51.9205 57.7133 51.9901 57.0361 52.0001 56.3566C52.0002 55.6399 51.9333 54.9248 51.8001 54.2206C51.746 53.9177 51.5979 53.6394 51.3768 53.4254C51.1556 53.2115 50.8726 53.0726 50.5681 53.0286C50.1012 52.9608 49.6557 52.7886 49.2647 52.5247C48.8737 52.2609 48.5473 51.9122 48.3097 51.5047C48.0721 51.0972 47.9295 50.6413 47.8925 50.1711C47.8555 49.7008 47.9251 49.2283 48.0961 48.7886C48.2047 48.5012 48.2207 48.187 48.1418 47.89C48.0629 47.593 47.8931 47.3282 47.6561 47.1326C46.6097 46.254 45.4187 45.5637 44.1361 45.0926C43.844 44.9841 43.5251 44.9706 43.2249 45.0539C42.9247 45.1372 42.6584 45.3131 42.4641 45.5566C42.1715 45.9308 41.7976 46.2333 41.3706 46.4414C40.9437 46.6495 40.475 46.7577 40.0001 46.7577C39.9998 46.7577 39.9995 46.7577 39.9993 46.7577V52.3566C39.9995 52.3566 39.9998 52.3566 40.0001 52.3566C41.0609 52.3566 42.0783 52.7781 42.8285 53.5282C43.5786 54.2783 44.0001 55.2958 44.0001 56.3566C44.0001 57.1477 43.7655 57.9211 43.3259 58.5789C42.8864 59.2367 42.2617 59.7494 41.5308 60.0521C41.0429 60.2542 40.5223 60.3567 39.9993 60.3566V65.7604Z" fill="#0965CD"/>
<path d="M66.0002 51.6667C66.0002 47.0833 68.6865 45 72.0002 45H75.0002C78.314 45 81.0002 47.0833 81.0002 51.6667C81.0002 56.25 81.0002 58.3333 81.0002 58.3333C81.0002 62.8486 78.314 65 75.0002 65H72.0002C68.6865 65 66.0002 62.8486 66.0002 58.3333V51.6667Z" fill="#157DF5"/>
<path d="M67.6669 45H79.3334C79.7754 45 80.1994 45.1756 80.512 45.4882C80.8246 45.8007 81.0002 46.2246 81.0002 46.6667C81.0002 47.1087 80.8246 47.5326 80.512 47.8452C80.1994 48.1577 79.7754 48.3333 79.3334 48.3333H67.6669C67.2248 48.3333 66.8008 48.1577 66.4882 47.8452C66.1756 47.5326 66 47.1087 66 46.6667C66 46.2246 66.1756 45.8007 66.4882 45.4882C66.8008 45.1756 67.2248 45 67.6669 45Z" fill="#1E203E"/>
<path d="M66.0002 54.8333H81.0002V58.3333H66.0002V54.8333Z" fill="#0965CD"/>
<path d="M72.1815 68.4482V68H66.9937C66.4448 68 66 68.4562 66 69.0188V82.9811C66 83.5438 66.4449 83.9999 66.9937 83.9999H74.0023V68.4482H72.1815Z" fill="#F54B5E"/>
<path d="M81.3931 68.08C81.2742 68.0285 81.1434 68 81.0062 68H75.814V68.4482H74.0031V84H81.0061C81.7142 84 82 83.4127 82 82.9811V69.0188C82 68.5967 81.7498 68.2347 81.3931 68.08Z" fill="#F3263D"/>
<path d="M74.0654 76.1224H73.9389C72.9683 76.1224 72.1815 75.3159 72.1815 74.3211V68H75.823V74.3212C75.8228 75.3159 75.0359 76.1224 74.0654 76.1224Z" fill="#E2EFFE"/>
<path d="M75.8239 74.2561V68H74.0031V76.1224C75.0087 76.1224 75.8239 75.2868 75.8239 74.2561Z" fill="#B6D7FC"/>
<path d="M72.9999 128H63.6249L64.7346 135.229C64.7346 135.229 64.9641 136.839 66.5713 136.839C68.1785 136.839 72.9999 136.839 72.9999 136.839C72.9999 136.839 77.8214 136.839 79.4285 136.839C81.0356 136.839 81.2652 135.14 81.2652 135.14L82.3749 128H72.9999Z" fill="#25BB71"/>
<path d="M62 127.688C62 126.859 62.6716 126.188 63.5 126.188H82.4998C83.3282 126.188 83.9998 126.859 83.9998 127.688C83.9998 128.516 83.3282 129.188 82.4998 129.188H63.5C62.6716 129.188 62 128.516 62 127.688Z" fill="#40D98D"/>
<path d="M73 129C74.6568 129 76 128.657 76 127C76 125.343 74.6568 124 73 124C71.3431 124 70 125.343 70 127C70 128.657 71.3431 129 73 129Z" fill="#40D98D"/>
<path d="M76 132C76 131.448 76.4477 131 77 131C77.5523 131 78 131.448 78 132V134C78 134.552 77.5523 135 77 135C76.4477 135 76 134.552 76 134V132Z" fill="white"/>
<path d="M71.9999 131.992C71.9999 131.44 72.4476 130.992 72.9999 130.992C73.5522 130.992 73.9999 131.44 73.9999 131.992V133.992C73.9999 134.544 73.5522 134.992 72.9999 134.992C72.4476 134.992 71.9999 134.544 71.9999 133.992L71.9999 131.992Z" fill="white"/>
<path d="M68 132C68 131.448 68.4477 131 69 131C69.5523 131 70 131.448 70 132V134C70 134.552 69.5523 135 69 135C68.4477 135 68 134.552 68 134V132Z" fill="white"/>
<path fill-rule="evenodd" clip-rule="evenodd" d="M54.5 135C54.5 133.067 56.067 131.5 58 131.5H60C60.8284 131.5 61.5 132.172 61.5 133C61.5 133.828 60.8284 134.5 60 134.5H58C57.7239 134.5 57.5 134.724 57.5 135V173C57.5 173.276 57.7239 173.5 58 173.5H60C60.8284 173.5 61.5 174.172 61.5 175C61.5 175.828 60.8284 176.5 60 176.5H58C56.067 176.5 54.5 174.933 54.5 173V135Z" fill="#B6D7FC"/>
<path fill-rule="evenodd" clip-rule="evenodd" d="M54.5 153C54.5 152.172 55.1716 151.5 56 151.5H62C62.8284 151.5 63.5 152.172 63.5 153C63.5 153.828 62.8284 154.5 62 154.5H56C55.1716 154.5 54.5 153.828 54.5 153Z" fill="#B6D7FC"/>
<path fill-rule="evenodd" clip-rule="evenodd" d="M56 154.5H50V151.5H56V154.5Z" fill="#B6D7FC"/>
<circle cx="39.7336" cy="152.519" r="4.8" fill="white"/>
<path d="M50.568 149.029C50.1012 148.961 49.6557 148.789 49.2647 148.525C48.8737 148.261 48.5472 147.912 48.3096 147.505C48.072 147.097 47.9294 146.641 47.8924 146.171C47.8555 145.701 47.925 145.228 48.096 144.789C48.2047 144.501 48.2207 144.187 48.1418 143.89C48.0629 143.593 47.893 143.328 47.656 143.133C46.6096 142.254 45.4186 141.564 44.136 141.093C43.8439 140.984 43.5251 140.971 43.2249 141.054C42.9247 141.137 42.6584 141.313 42.464 141.557C42.1714 141.931 41.7975 142.233 41.3706 142.441C40.9437 142.65 40.4749 142.758 40 142.758C39.5251 142.758 39.0564 142.65 38.6294 142.441C38.2025 142.233 37.8286 141.931 37.536 141.557C37.3416 141.313 37.0754 141.137 36.7751 141.054C36.4749 140.971 36.1561 140.984 35.864 141.093C34.6797 141.528 33.5725 142.149 32.584 142.933C32.3348 143.13 32.1554 143.402 32.0719 143.708C31.9884 144.015 32.0053 144.34 32.12 144.637C32.3046 145.088 32.3809 145.576 32.3427 146.062C32.3045 146.548 32.153 147.019 31.9002 147.436C31.6474 147.852 31.3004 148.204 30.887 148.463C30.4737 148.722 30.0055 148.88 29.52 148.925C29.2048 148.958 28.9088 149.092 28.6755 149.307C28.4422 149.522 28.2839 149.805 28.224 150.117C28.0751 150.854 28 151.604 28 152.357C27.9989 152.986 28.0498 153.615 28.152 154.237C28.2029 154.558 28.3582 154.853 28.5939 155.078C28.8296 155.302 29.1326 155.442 29.456 155.477C29.9522 155.523 30.43 155.688 30.8494 155.957C31.2688 156.226 31.6177 156.592 31.8668 157.023C32.1159 157.455 32.2579 157.94 32.2811 158.438C32.3043 158.936 32.2079 159.432 32 159.885C31.864 160.179 31.8302 160.511 31.9041 160.827C31.978 161.143 32.1554 161.425 32.408 161.629C33.4481 162.491 34.6277 163.17 35.896 163.637C36.0582 163.693 36.2284 163.723 36.4 163.725C36.6353 163.724 36.8671 163.667 37.0759 163.559C37.2847 163.45 37.4644 163.293 37.6 163.101C37.8851 162.685 38.2674 162.346 38.7135 162.111C39.1596 161.877 39.6561 161.755 40.16 161.757C40.6482 161.757 41.1295 161.872 41.5656 162.091C42.0017 162.311 42.3806 162.629 42.672 163.021C42.8659 163.281 43.1404 163.47 43.453 163.559C43.7655 163.647 44.0985 163.629 44.4 163.509C45.5598 163.042 46.6394 162.397 47.6 161.597C47.8413 161.397 48.0131 161.126 48.0907 160.823C48.1684 160.52 48.1478 160.2 48.032 159.909C47.8438 159.463 47.7618 158.98 47.7924 158.497C47.8229 158.015 47.9652 157.546 48.208 157.128C48.4509 156.71 48.7876 156.354 49.1916 156.088C49.5956 155.822 50.0558 155.654 50.536 155.597C50.8473 155.554 51.1369 155.413 51.3627 155.194C51.5885 154.975 51.7389 154.69 51.792 154.381C51.9205 153.713 51.9901 153.036 52 152.357C52.0002 151.64 51.9332 150.925 51.8 150.221C51.746 149.918 51.5979 149.639 51.3767 149.425C51.1555 149.211 50.8726 149.073 50.568 149.029ZM44 152.357C44 153.148 43.7654 153.921 43.3259 154.579C42.8864 155.237 42.2616 155.749 41.5307 156.052C40.7998 156.355 39.9956 156.434 39.2196 156.28C38.4437 156.125 37.731 155.744 37.1716 155.185C36.6122 154.626 36.2312 153.913 36.0769 153.137C35.9225 152.361 36.0017 151.557 36.3045 150.826C36.6072 150.095 37.1199 149.47 37.7777 149.031C38.4355 148.591 39.2089 148.357 40 148.357C41.0609 148.357 42.0783 148.778 42.8284 149.528C43.5786 150.278 44 151.296 44 152.357Z" fill="#157DF5"/>
<path fill-rule="evenodd" clip-rule="evenodd" d="M39.9993 161.76C40.0527 161.758 40.1064 161.756 40.1601 161.757C40.6483 161.757 41.1296 161.872 41.5657 162.091C42.0018 162.311 42.3806 162.629 42.6721 163.021C42.8659 163.281 43.1405 163.47 43.453 163.559C43.7656 163.647 44.0985 163.629 44.4001 163.509C45.5598 163.042 46.6395 162.397 47.6001 161.597C47.8414 161.397 48.0132 161.126 48.0908 160.823C48.1684 160.52 48.1479 160.2 48.0321 159.909C47.8439 159.463 47.7619 158.98 47.7924 158.497C47.823 158.015 47.9653 157.546 48.2081 157.128C48.4509 156.71 48.7876 156.354 49.1917 156.088C49.5957 155.822 50.0559 155.654 50.5361 155.597C50.8474 155.554 51.137 155.413 51.3628 155.194C51.5886 154.975 51.739 154.69 51.7921 154.381C51.9205 153.713 51.9901 153.036 52.0001 152.357C52.0002 151.64 51.9333 150.925 51.8001 150.221C51.746 149.918 51.5979 149.639 51.3768 149.425C51.1556 149.211 50.8726 149.073 50.5681 149.029C50.1012 148.961 49.6557 148.789 49.2647 148.525C48.8737 148.261 48.5473 147.912 48.3097 147.505C48.0721 147.097 47.9295 146.641 47.8925 146.171C47.8555 145.701 47.9251 145.228 48.0961 144.789C48.2047 144.501 48.2207 144.187 48.1418 143.89C48.0629 143.593 47.8931 143.328 47.6561 143.133C46.6097 142.254 45.4187 141.564 44.1361 141.093C43.844 140.984 43.5251 140.971 43.2249 141.054C42.9247 141.137 42.6584 141.313 42.4641 141.557C42.1715 141.931 41.7976 142.233 41.3706 142.441C40.9437 142.65 40.475 142.758 40.0001 142.758C39.9998 142.758 39.9995 142.758 39.9993 142.758V148.357C39.9995 148.357 39.9998 148.357 40.0001 148.357C41.0609 148.357 42.0783 148.778 42.8285 149.528C43.5786 150.278 44.0001 151.296 44.0001 152.357C44.0001 153.148 43.7655 153.921 43.3259 154.579C42.8864 155.237 42.2617 155.749 41.5308 156.052C41.0429 156.254 40.5223 156.357 39.9993 156.357V161.76Z" fill="#0965CD"/>
<path d="M66.0002 147.667C66.0002 143.083 68.6865 141 72.0002 141H75.0002C78.314 141 81.0002 143.083 81.0002 147.667C81.0002 152.25 81.0002 154.333 81.0002 154.333C81.0002 158.849 78.314 161 75.0002 161H72.0002C68.6865 161 66.0002 158.849 66.0002 154.333V147.667Z" fill="#157DF5"/>
<path d="M67.6669 141H79.3334C79.7754 141 80.1994 141.176 80.512 141.488C80.8246 141.801 81.0002 142.225 81.0002 142.667C81.0002 143.109 80.8246 143.533 80.512 143.845C80.1994 144.158 79.7754 144.333 79.3334 144.333H67.6669C67.2248 144.333 66.8008 144.158 66.4882 143.845C66.1756 143.533 66 143.109 66 142.667C66 142.225 66.1756 141.801 66.4882 141.488C66.8008 141.176 67.2248 141 67.6669 141Z" fill="#1E203E"/>
<path d="M66.0002 150.833H81.0002V154.333H66.0002V150.833Z" fill="#0965CD"/>
<path d="M72.1815 164.448V164H66.9937C66.4448 164 66 164.456 66 165.019V178.981C66 179.544 66.4449 180 66.9937 180H74.0023V164.448H72.1815Z" fill="#F54B5E"/>
<path d="M81.3931 164.08C81.2742 164.028 81.1434 164 81.0062 164H75.814V164.448H74.0031V180H81.0061C81.7142 180 82 179.413 82 178.981V165.019C82 164.597 81.7498 164.235 81.3931 164.08Z" fill="#F3263D"/>
<path d="M74.0654 172.122H73.9389C72.9683 172.122 72.1815 171.316 72.1815 170.321V164H75.823V170.321C75.8228 171.316 75.0359 172.122 74.0654 172.122Z" fill="#E2EFFE"/>
<path d="M75.8239 170.256V164H74.0031V172.122C75.0087 172.122 75.8239 171.287 75.8239 170.256Z" fill="#B6D7FC"/>
<defs>
<filter id="filter0_d_20184_57233" x="10" y="9" width="96" height="96" filterUnits="userSpaceOnUse" color-interpolation-filters="sRGB">
<feFlood flood-opacity="0" result="BackgroundImageFix"/>
<feColorMatrix in="SourceAlpha" type="matrix" values="0 0 0 0 0 0 0 0 0 0 0 0 0 0 0 0 0 0 127 0" result="hardAlpha"/>
<feOffset dx="2" dy="1"/>
<feGaussianBlur stdDeviation="4"/>
<feColorMatrix type="matrix" values="0 0 0 0 0.0392157 0 0 0 0 0.0392157 0 0 0 0 0.0627451 0 0 0 0.08 0"/>
<feBlend mode="normal" in2="BackgroundImageFix" result="effect1_dropShadow_20184_57233"/>
<feBlend mode="normal" in="SourceGraphic" in2="effect1_dropShadow_20184_57233" result="shape"/>
</filter>
</defs>
</svg>
