<svg width="112" height="208" viewBox="0 0 112 208" fill="none" xmlns="http://www.w3.org/2000/svg">
<rect x="0.5" y="0.5" width="111" height="207" rx="4.5" stroke="#9747FF" stroke-dasharray="10 5"/>
<g filter="url(#filter0_d_10792_62451)">
<rect x="16" y="16" width="80" height="80" rx="8" fill="white"/>
</g>
<rect width="20.1284" height="44" transform="matrix(-1 0 0 1 70.9805 37)" fill="#F0F7FE"/>
<rect width="10.0642" height="44" transform="matrix(-1 0 0 1 70.9805 37)" fill="#B6D7FC"/>
<path d="M50.8521 37C50.8521 31.4772 55.358 27 60.9163 27C66.4746 27 70.9805 31.4772 70.9805 37H50.8521Z" fill="#0965CD"/>
<path d="M60.916 27V37H50.8518C50.8518 31.4772 55.3577 27 60.916 27Z" fill="#157DF5"/>
<path d="M32.6293 81.4242H64.8242V55.3045L48.727 44.1523L32.6293 55.3045V81.4242Z" fill="#B6D7FC"/>
<path d="M32.748 55.3045L48.8457 44.1523V81.4242H32.748V55.3045Z" fill="#F0F7FE"/>
<path d="M66.4026 59.7398C67.0794 60.2712 68.0633 60.1674 68.6111 59.5069C69.1698 58.833 69.0619 57.8383 68.3713 57.2966L51.1784 43.8099C49.8096 42.7361 47.8731 42.7294 46.4967 43.7936L29.3183 57.0755C28.6259 57.6108 28.509 58.6008 29.0581 59.2789C29.5997 59.9476 30.5859 60.0613 31.269 59.5335L46.496 47.7694C47.8728 46.7057 49.8094 46.7131 51.1778 47.7874L66.4026 59.7398Z" fill="#157DF5"/>
<path d="M56.3242 62.7617H41.3629V81.2875H56.3242V62.7617Z" fill="#E2EFFE"/>
<path d="M48.8457 62.7617H41.365V81.2875H48.8457V62.7617Z" fill="#F0F7FE"/>
<path d="M58.1367 61.4844V82.9892H39.5528V61.4844H58.1367ZM50.875 72.2688L54.9496 77.168V67.3995L50.875 72.2688ZM53.1867 64.5914H44.4899L48.845 69.8033L53.1867 64.5914ZM48.845 74.7277L44.5032 79.8817H53.104L48.845 74.7277ZM46.7668 72.2623L42.74 67.4209V77.0737L46.7668 72.2623Z" fill="#0965CD"/>
<path d="M39.5535 61.4844H48.8457V64.5914H44.4907L48.8457 69.8033V74.7277L44.504 79.8817H48.8457V82.9892H39.5535V61.4844ZM42.7407 77.0737L46.7675 72.2623L42.7407 67.4209V77.0737Z" fill="#157DF5"/>
<path d="M48.8444 43C49.6703 43.0037 50.4951 43.2738 51.1784 43.8098L68.3713 57.2965C69.0619 57.8383 69.1698 58.833 68.6111 59.5068C68.0633 60.1674 67.0794 60.2712 66.4026 59.7398L51.1778 47.7874C50.4948 47.2512 49.6702 46.9808 48.8444 46.9766V43Z" fill="#0965CD"/>
<path d="M51.5898 55.7273C51.5898 54.221 50.361 53 48.8451 53V58.4545H50.6749C51.1802 58.4545 51.5898 58.0475 51.5898 57.5454V55.7273Z" fill="#0965CD"/>
<path d="M48.8457 53C47.3298 53 46.1009 54.221 46.1009 55.7273V57.5454C46.1009 58.0475 46.5105 58.4545 47.0158 58.4545H48.8457V53Z" fill="#157DF5"/>
<path d="M74 81.3148C74 80.3837 73.2452 79.6289 72.3141 79.6289H29.6859C28.7548 79.6289 28 80.3837 28 81.3148C28 82.2459 28.7548 83.0007 29.6859 83.0007H72.3141C73.2452 83.0007 74 82.2459 74 81.3148Z" fill="#40D98D"/>
<path d="M40.8789 79.6289H29.6882C28.757 79.6289 28.0022 80.3837 28.0022 81.3148C28.0022 82.2459 28.7571 83.0007 29.6882 83.0007H40.8789V79.6289Z" fill="#25BB71"/>
<path fill-rule="evenodd" clip-rule="evenodd" d="M83.9995 70.7214C83.9995 78.0558 78.0538 84.0014 70.7195 84.0014C63.3851 84.0014 57.4395 78.0557 57.4395 70.7214C57.4395 63.3871 63.3851 57.4414 70.7195 57.4414C78.0538 57.4414 83.9995 63.3871 83.9995 70.7214ZM80.7195 70.7214C80.7195 76.2443 76.2423 80.7214 70.7195 80.7214C65.1966 80.7214 60.7195 76.2443 60.7195 70.7214C60.7195 65.1986 65.1966 60.7214 70.7195 60.7214C76.2423 60.7214 80.7195 65.1986 80.7195 70.7214Z" fill="white"/>
<path d="M70.7187 80.7227C76.2416 80.7227 80.7188 76.2455 80.7188 70.7227C80.7188 65.1998 76.2416 60.7227 70.7187 60.7227C65.1959 60.7227 60.7188 65.1998 60.7188 70.7227C60.7188 76.2455 65.1959 80.7227 70.7187 80.7227Z" fill="#40D98D"/>
<path d="M70.7198 60.7227C70.7181 60.7227 70.7165 60.7227 70.7148 60.7227V80.7226C70.7165 80.7226 70.7181 80.7227 70.7198 80.7227C76.2426 80.7227 80.7198 76.2455 80.7198 70.7227C80.7198 65.1998 76.2426 60.7227 70.7198 60.7227Z" fill="#25BB71"/>
<path d="M75.8505 67.0852C75.2681 66.5029 74.3239 66.5029 73.7416 67.0852L69.6349 71.1919L67.698 69.2549C67.1156 68.6723 66.1715 68.6725 65.5891 69.2549C65.0068 69.8372 65.0068 70.7815 65.5891 71.3638L68.5805 74.3552C68.8602 74.6349 69.2394 74.792 69.635 74.792C70.0305 74.792 70.4098 74.6349 70.6894 74.3552L75.8506 69.1941C76.4329 68.6117 76.4329 67.6675 75.8505 67.0852Z" fill="white"/>
<path d="M70.7198 60.7227C70.7181 60.7227 70.7165 60.7227 70.7148 60.7227V80.7226C70.7165 80.7226 70.7181 80.7227 70.7198 80.7227C76.2426 80.7227 80.7198 76.2455 80.7198 70.7227C80.7198 65.1998 76.2426 60.7227 70.7198 60.7227Z" fill="#25BB71"/>
<path d="M73.7416 67.0891L70.7148 70.1158V74.3337L75.8505 69.198C76.4328 68.6156 76.4328 67.6714 75.8505 67.0891C75.2682 66.5068 74.3239 66.5068 73.7416 67.0891Z" fill="#F0F7FE"/>
<rect width="20.1284" height="44" transform="matrix(-1 0 0 1 70.9805 133)" fill="#F0F7FE"/>
<rect width="10.0642" height="44" transform="matrix(-1 0 0 1 70.9805 133)" fill="#B6D7FC"/>
<path d="M50.8521 133C50.8521 127.477 55.358 123 60.9163 123C66.4746 123 70.9805 127.477 70.9805 133H50.8521Z" fill="#0965CD"/>
<path d="M60.916 123V133H50.8518C50.8518 127.477 55.3577 123 60.916 123Z" fill="#157DF5"/>
<path d="M32.6293 177.424H64.8242V151.305L48.727 140.152L32.6293 151.305V177.424Z" fill="#B6D7FC"/>
<path d="M32.748 151.305L48.8457 140.152V177.424H32.748V151.305Z" fill="#F0F7FE"/>
<path d="M66.4026 155.74C67.0794 156.271 68.0633 156.167 68.6111 155.507C69.1698 154.833 69.0619 153.838 68.3713 153.297L51.1784 139.81C49.8096 138.736 47.8731 138.729 46.4967 139.794L29.3183 153.075C28.6259 153.611 28.509 154.601 29.0581 155.279C29.5997 155.948 30.5859 156.061 31.269 155.534L46.496 143.769C47.8728 142.706 49.8094 142.713 51.1778 143.787L66.4026 155.74Z" fill="#157DF5"/>
<path d="M56.3242 158.762H41.3629V177.287H56.3242V158.762Z" fill="#E2EFFE"/>
<path d="M48.8457 158.762H41.365V177.287H48.8457V158.762Z" fill="#F0F7FE"/>
<path d="M58.1367 157.484V178.989H39.5528V157.484H58.1367ZM50.875 168.269L54.9496 173.168V163.399L50.875 168.269ZM53.1867 160.591H44.4899L48.845 165.803L53.1867 160.591ZM48.845 170.728L44.5032 175.882H53.104L48.845 170.728ZM46.7668 168.262L42.74 163.421V173.074L46.7668 168.262Z" fill="#0965CD"/>
<path d="M39.5535 157.484H48.8457V160.591H44.4907L48.8457 165.803V170.728L44.504 175.882H48.8457V178.989H39.5535V157.484ZM42.7407 173.074L46.7675 168.262L42.7407 163.421V173.074Z" fill="#157DF5"/>
<path d="M48.8444 139C49.6703 139.004 50.4951 139.274 51.1784 139.81L68.3713 153.297C69.0619 153.838 69.1698 154.833 68.6111 155.507C68.0633 156.167 67.0794 156.271 66.4026 155.74L51.1778 143.787C50.4948 143.251 49.6702 142.981 48.8444 142.977V139Z" fill="#0965CD"/>
<path d="M51.5898 151.727C51.5898 150.221 50.361 149 48.8451 149V154.455H50.6749C51.1802 154.455 51.5898 154.048 51.5898 153.545V151.727Z" fill="#0965CD"/>
<path d="M48.8457 149C47.3298 149 46.1009 150.221 46.1009 151.727V153.545C46.1009 154.048 46.5105 154.455 47.0158 154.455H48.8457V149Z" fill="#157DF5"/>
<path d="M74 177.315C74 176.384 73.2452 175.629 72.3141 175.629H29.6859C28.7548 175.629 28 176.384 28 177.315C28 178.246 28.7548 179.001 29.6859 179.001H72.3141C73.2452 179.001 74 178.246 74 177.315Z" fill="#40D98D"/>
<path d="M40.8789 175.629H29.6882C28.757 175.629 28.0022 176.384 28.0022 177.315C28.0022 178.246 28.7571 179.001 29.6882 179.001H40.8789V175.629Z" fill="#25BB71"/>
<path fill-rule="evenodd" clip-rule="evenodd" d="M83.9995 166.721C83.9995 174.056 78.0538 180.001 70.7195 180.001C63.3851 180.001 57.4395 174.056 57.4395 166.721C57.4395 159.387 63.3851 153.441 70.7195 153.441C78.0538 153.441 83.9995 159.387 83.9995 166.721ZM80.7195 166.721C80.7195 172.244 76.2423 176.721 70.7195 176.721C65.1966 176.721 60.7195 172.244 60.7195 166.721C60.7195 161.199 65.1966 156.721 70.7195 156.721C76.2423 156.721 80.7195 161.199 80.7195 166.721Z" fill="white"/>
<path d="M70.7187 176.723C76.2416 176.723 80.7188 172.246 80.7188 166.723C80.7188 161.2 76.2416 156.723 70.7187 156.723C65.1959 156.723 60.7188 161.2 60.7188 166.723C60.7188 172.246 65.1959 176.723 70.7187 176.723Z" fill="#40D98D"/>
<path d="M70.7198 156.723C70.7181 156.723 70.7165 156.723 70.7148 156.723V176.723C70.7165 176.723 70.7181 176.723 70.7198 176.723C76.2426 176.723 80.7198 172.246 80.7198 166.723C80.7198 161.2 76.2426 156.723 70.7198 156.723Z" fill="#25BB71"/>
<path d="M75.8505 163.085C75.2681 162.503 74.3239 162.503 73.7416 163.085L69.6349 167.192L67.698 165.255C67.1156 164.672 66.1715 164.673 65.5891 165.255C65.0068 165.837 65.0068 166.782 65.5891 167.364L68.5805 170.355C68.8602 170.635 69.2394 170.792 69.635 170.792C70.0305 170.792 70.4098 170.635 70.6894 170.355L75.8506 165.194C76.4329 164.612 76.4329 163.668 75.8505 163.085Z" fill="white"/>
<path d="M70.7198 156.723C70.7181 156.723 70.7165 156.723 70.7148 156.723V176.723C70.7165 176.723 70.7181 176.723 70.7198 176.723C76.2426 176.723 80.7198 172.246 80.7198 166.723C80.7198 161.2 76.2426 156.723 70.7198 156.723Z" fill="#25BB71"/>
<path d="M73.7416 163.089L70.7148 166.116V170.334L75.8505 165.198C76.4328 164.616 76.4328 163.671 75.8505 163.089C75.2682 162.507 74.3239 162.507 73.7416 163.089Z" fill="#F0F7FE"/>
<defs>
<filter id="filter0_d_10792_62451" x="10" y="9" width="96" height="96" filterUnits="userSpaceOnUse" color-interpolation-filters="sRGB">
<feFlood flood-opacity="0" result="BackgroundImageFix"/>
<feColorMatrix in="SourceAlpha" type="matrix" values="0 0 0 0 0 0 0 0 0 0 0 0 0 0 0 0 0 0 127 0" result="hardAlpha"/>
<feOffset dx="2" dy="1"/>
<feGaussianBlur stdDeviation="4"/>
<feColorMatrix type="matrix" values="0 0 0 0 0.0392157 0 0 0 0 0.0392157 0 0 0 0 0.0627451 0 0 0 0.08 0"/>
<feBlend mode="normal" in2="BackgroundImageFix" result="effect1_dropShadow_10792_62451"/>
<feBlend mode="normal" in="SourceGraphic" in2="effect1_dropShadow_10792_62451" result="shape"/>
</filter>
</defs>
</svg>
