<svg width="562" height="80" viewBox="0 0 562 80" fill="none" xmlns="http://www.w3.org/2000/svg">
<path d="M0 79.9999H80V-9.82285e-05H0V79.9999ZM94.1406 17.5249V74.3999H86.6016V17.5249H94.1406ZM117.969 43.1108V49.2827H92.5V43.1108H117.969ZM121.836 17.5249V23.6968H92.5V17.5249H121.836ZM153.32 67.1733V45.4155C153.32 43.7489 152.982 42.3035 152.305 41.0796C151.654 39.8296 150.664 38.866 149.336 38.189C148.008 37.5119 146.367 37.1733 144.414 37.1733C142.591 37.1733 140.99 37.4858 139.609 38.1108C138.255 38.7358 137.188 39.5562 136.406 40.5718C135.651 41.5874 135.273 42.6812 135.273 43.853H128.047C128.047 42.3426 128.438 40.8452 129.219 39.3608C130 37.8765 131.12 36.5353 132.578 35.3374C134.062 34.1134 135.833 33.1499 137.891 32.4468C139.974 31.7176 142.292 31.353 144.844 31.353C147.917 31.353 150.625 31.8739 152.969 32.9155C155.339 33.9572 157.188 35.5327 158.516 37.6421C159.87 39.7254 160.547 42.3426 160.547 45.4937V65.1812C160.547 66.5874 160.664 68.0848 160.898 69.6733C161.159 71.2619 161.536 72.6291 162.031 73.7749V74.3999H154.492C154.128 73.5666 153.841 72.4598 153.633 71.0796C153.424 69.6733 153.32 68.3713 153.32 67.1733ZM154.57 48.7749L154.648 53.853H147.344C145.286 53.853 143.451 54.0223 141.836 54.3608C140.221 54.6733 138.867 55.1551 137.773 55.8062C136.68 56.4572 135.846 57.2775 135.273 58.2671C134.701 59.2306 134.414 60.3634 134.414 61.6655C134.414 62.9937 134.714 64.2046 135.312 65.2983C135.911 66.3921 136.81 67.2645 138.008 67.9155C139.232 68.5405 140.729 68.853 142.5 68.853C144.714 68.853 146.667 68.3843 148.359 67.4468C150.052 66.5093 151.393 65.3634 152.383 64.0093C153.398 62.6551 153.945 61.34 154.023 60.064L157.109 63.5405C156.927 64.6343 156.432 65.8452 155.625 67.1733C154.818 68.5015 153.737 69.7775 152.383 71.0015C151.055 72.1994 149.466 73.202 147.617 74.0093C145.794 74.7905 143.737 75.1812 141.445 75.1812C138.581 75.1812 136.068 74.6213 133.906 73.5015C131.771 72.3817 130.104 70.8843 128.906 69.0093C127.734 67.1082 127.148 64.9858 127.148 62.6421C127.148 60.3765 127.591 58.3843 128.477 56.6655C129.362 54.9207 130.638 53.4754 132.305 52.3296C133.971 51.1577 135.977 50.2723 138.32 49.6733C140.664 49.0744 143.281 48.7749 146.172 48.7749H154.57ZM179.141 38.7749V74.3999H171.914V32.1343H178.945L179.141 38.7749ZM192.344 31.8999L192.305 38.6187C191.706 38.4884 191.133 38.4103 190.586 38.3843C190.065 38.3322 189.466 38.3062 188.789 38.3062C187.122 38.3062 185.651 38.5666 184.375 39.0874C183.099 39.6082 182.018 40.3374 181.133 41.2749C180.247 42.2124 179.544 43.3322 179.023 44.6343C178.529 45.9103 178.203 47.3166 178.047 48.853L176.016 50.0249C176.016 47.4728 176.263 45.077 176.758 42.8374C177.279 40.5978 178.073 38.6187 179.141 36.8999C180.208 35.1551 181.562 33.8009 183.203 32.8374C184.87 31.8478 186.849 31.353 189.141 31.353C189.661 31.353 190.26 31.4181 190.938 31.5483C191.615 31.6525 192.083 31.7697 192.344 31.8999ZM206.211 40.5327V74.3999H198.945V32.1343H205.82L206.211 40.5327ZM204.727 51.6655L201.367 51.5483C201.393 48.6577 201.771 45.9884 202.5 43.5405C203.229 41.0666 204.31 38.9181 205.742 37.0952C207.174 35.2723 208.958 33.866 211.094 32.8765C213.229 31.8608 215.703 31.353 218.516 31.353C220.495 31.353 222.318 31.6395 223.984 32.2124C225.651 32.7593 227.096 33.6317 228.32 34.8296C229.544 36.0275 230.495 37.564 231.172 39.439C231.849 41.314 232.188 43.5796 232.188 46.2358V74.3999H224.961V46.5874C224.961 44.3739 224.583 42.603 223.828 41.2749C223.099 39.9468 222.057 38.9832 220.703 38.3843C219.349 37.7593 217.76 37.4468 215.938 37.4468C213.802 37.4468 212.018 37.8244 210.586 38.5796C209.154 39.3348 208.008 40.3765 207.148 41.7046C206.289 43.0327 205.664 44.5562 205.273 46.2749C204.909 47.9676 204.727 49.7645 204.727 51.6655ZM232.109 47.6812L227.266 49.1655C227.292 46.8478 227.669 44.6213 228.398 42.4858C229.154 40.3504 230.234 38.4494 231.641 36.7827C233.073 35.116 234.831 33.8009 236.914 32.8374C238.997 31.8478 241.38 31.353 244.062 31.353C246.328 31.353 248.333 31.6525 250.078 32.2515C251.849 32.8504 253.333 33.7749 254.531 35.0249C255.755 36.2489 256.68 37.8244 257.305 39.7515C257.93 41.6785 258.242 43.9702 258.242 46.6265V74.3999H250.977V46.5483C250.977 44.1785 250.599 42.3426 249.844 41.0405C249.115 39.7124 248.073 38.7879 246.719 38.2671C245.391 37.7202 243.802 37.4468 241.953 37.4468C240.365 37.4468 238.958 37.7202 237.734 38.2671C236.51 38.814 235.482 39.5692 234.648 40.5327C233.815 41.4702 233.177 42.5509 232.734 43.7749C232.318 44.9989 232.109 46.3009 232.109 47.6812ZM324.453 56.314H331.953C331.562 59.9077 330.534 63.1239 328.867 65.9624C327.201 68.8009 324.844 71.0535 321.797 72.7202C318.75 74.3608 314.948 75.1812 310.391 75.1812C307.057 75.1812 304.023 74.5562 301.289 73.3062C298.581 72.0562 296.25 70.2853 294.297 67.9937C292.344 65.6759 290.833 62.9025 289.766 59.6733C288.724 56.4181 288.203 52.7983 288.203 48.814V43.1499C288.203 39.1655 288.724 35.5588 289.766 32.3296C290.833 29.0744 292.357 26.2879 294.336 23.9702C296.341 21.6525 298.75 19.8687 301.562 18.6187C304.375 17.3687 307.539 16.7437 311.055 16.7437C315.352 16.7437 318.984 17.5509 321.953 19.1655C324.922 20.7801 327.227 23.0197 328.867 25.8843C330.534 28.7228 331.562 32.0171 331.953 35.7671H324.453C324.089 33.1108 323.411 30.8322 322.422 28.9312C321.432 27.0041 320.026 25.5197 318.203 24.478C316.38 23.4364 313.997 22.9155 311.055 22.9155C308.529 22.9155 306.302 23.3973 304.375 24.3608C302.474 25.3244 300.872 26.6916 299.57 28.4624C298.294 30.2332 297.331 32.3556 296.68 34.8296C296.029 37.3035 295.703 40.0509 295.703 43.0718V48.814C295.703 51.6004 295.99 54.2176 296.562 56.6655C297.161 59.1134 298.06 61.2619 299.258 63.1108C300.456 64.9598 301.979 66.4181 303.828 67.4858C305.677 68.5275 307.865 69.0483 310.391 69.0483C313.594 69.0483 316.146 68.5405 318.047 67.5249C319.948 66.5093 321.38 65.0509 322.344 63.1499C323.333 61.2489 324.036 58.9702 324.453 56.314ZM348.359 14.3999V74.3999H341.133V14.3999H348.359ZM346.641 51.6655L343.633 51.5483C343.659 48.6577 344.089 45.9884 344.922 43.5405C345.755 41.0666 346.927 38.9181 348.438 37.0952C349.948 35.2723 351.745 33.866 353.828 32.8765C355.938 31.8608 358.268 31.353 360.82 31.353C362.904 31.353 364.779 31.6395 366.445 32.2124C368.112 32.7593 369.531 33.6447 370.703 34.8687C371.901 36.0926 372.812 37.6812 373.438 39.6343C374.062 41.5614 374.375 43.9181 374.375 46.7046V74.3999H367.109V46.6265C367.109 44.4129 366.784 42.6421 366.133 41.314C365.482 39.9598 364.531 38.9832 363.281 38.3843C362.031 37.7593 360.495 37.4468 358.672 37.4468C356.875 37.4468 355.234 37.8244 353.75 38.5796C352.292 39.3348 351.029 40.3765 349.961 41.7046C348.919 43.0327 348.099 44.5562 347.5 46.2749C346.927 47.9676 346.641 49.7645 346.641 51.6655ZM393.047 32.1343V74.3999H385.781V32.1343H393.047ZM385.234 20.9233C385.234 19.7515 385.586 18.7619 386.289 17.9546C387.018 17.1473 388.086 16.7437 389.492 16.7437C390.872 16.7437 391.927 17.1473 392.656 17.9546C393.411 18.7619 393.789 19.7515 393.789 20.9233C393.789 22.0431 393.411 23.0067 392.656 23.814C391.927 24.5952 390.872 24.9858 389.492 24.9858C388.086 24.9858 387.018 24.5952 386.289 23.814C385.586 23.0067 385.234 22.0431 385.234 20.9233ZM421.562 69.2437C423.281 69.2437 424.87 68.8921 426.328 68.189C427.786 67.4858 428.984 66.5223 429.922 65.2983C430.859 64.0483 431.393 62.6291 431.523 61.0405H438.398C438.268 63.5405 437.422 65.8713 435.859 68.0327C434.323 70.1681 432.305 71.8999 429.805 73.228C427.305 74.5301 424.557 75.1812 421.562 75.1812C418.385 75.1812 415.612 74.6213 413.242 73.5015C410.898 72.3817 408.945 70.8452 407.383 68.8921C405.846 66.939 404.688 64.6994 403.906 62.1733C403.151 59.6213 402.773 56.9259 402.773 54.0874V52.4468C402.773 49.6082 403.151 46.9259 403.906 44.3999C404.688 41.8478 405.846 39.5952 407.383 37.6421C408.945 35.689 410.898 34.1525 413.242 33.0327C415.612 31.9129 418.385 31.353 421.562 31.353C424.87 31.353 427.76 32.0301 430.234 33.3843C432.708 34.7124 434.648 36.5353 436.055 38.853C437.487 41.1447 438.268 43.7489 438.398 46.6655H431.523C431.393 44.9207 430.898 43.3452 430.039 41.939C429.206 40.5327 428.06 39.4129 426.602 38.5796C425.169 37.7202 423.49 37.2905 421.562 37.2905C419.349 37.2905 417.487 37.7332 415.977 38.6187C414.492 39.478 413.307 40.6499 412.422 42.1343C411.562 43.5926 410.938 45.2202 410.547 47.0171C410.182 48.7879 410 50.5978 410 52.4468V54.0874C410 55.9364 410.182 57.7593 410.547 59.5562C410.911 61.353 411.523 62.9806 412.383 64.439C413.268 65.8973 414.453 67.0692 415.938 67.9546C417.448 68.814 419.323 69.2437 421.562 69.2437ZM453.789 14.3999V74.3999H446.523V14.3999H453.789ZM479.609 32.1343L461.172 51.8608L450.859 62.564L450.273 54.8687L457.656 46.0405L470.781 32.1343H479.609ZM473.008 74.3999L457.93 54.2437L461.68 47.7983L481.523 74.3999H473.008ZM503.828 75.1812C500.885 75.1812 498.216 74.6864 495.82 73.6968C493.451 72.6812 491.406 71.2619 489.688 69.439C487.995 67.616 486.693 65.4546 485.781 62.9546C484.87 60.4546 484.414 57.7202 484.414 54.7515V53.1108C484.414 49.6733 484.922 46.6134 485.938 43.9312C486.953 41.2228 488.333 38.9312 490.078 37.0562C491.823 35.1812 493.802 33.7619 496.016 32.7983C498.229 31.8348 500.521 31.353 502.891 31.353C505.911 31.353 508.516 31.8739 510.703 32.9155C512.917 33.9572 514.727 35.4155 516.133 37.2905C517.539 39.1395 518.581 41.327 519.258 43.853C519.935 46.353 520.273 49.0874 520.273 52.0562V55.2983H488.711V49.3999H513.047V48.853C512.943 46.978 512.552 45.1551 511.875 43.3843C511.224 41.6134 510.182 40.1551 508.75 39.0093C507.318 37.8634 505.365 37.2905 502.891 37.2905C501.25 37.2905 499.74 37.6421 498.359 38.3452C496.979 39.0223 495.794 40.0379 494.805 41.3921C493.815 42.7463 493.047 44.3999 492.5 46.353C491.953 48.3062 491.68 50.5588 491.68 53.1108V54.7515C491.68 56.7567 491.953 58.6447 492.5 60.4155C493.073 62.1603 493.893 63.6968 494.961 65.0249C496.055 66.353 497.37 67.3947 498.906 68.1499C500.469 68.9051 502.24 69.2827 504.219 69.2827C506.771 69.2827 508.932 68.7619 510.703 67.7202C512.474 66.6785 514.023 65.2853 515.352 63.5405L519.727 67.0171C518.815 68.3973 517.656 69.7124 516.25 70.9624C514.844 72.2124 513.112 73.228 511.055 74.0093C509.023 74.7905 506.615 75.1812 503.828 75.1812ZM535.938 41.1577V74.3999H528.711V32.1343H535.547L535.938 41.1577ZM534.219 51.6655L531.211 51.5483C531.237 48.6577 531.667 45.9884 532.5 43.5405C533.333 41.0666 534.505 38.9181 536.016 37.0952C537.526 35.2723 539.323 33.866 541.406 32.8765C543.516 31.8608 545.846 31.353 548.398 31.353C550.482 31.353 552.357 31.6395 554.023 32.2124C555.69 32.7593 557.109 33.6447 558.281 34.8687C559.479 36.0926 560.391 37.6812 561.016 39.6343C561.641 41.5614 561.953 43.9181 561.953 46.7046V74.3999H554.688V46.6265C554.688 44.4129 554.362 42.6421 553.711 41.314C553.06 39.9598 552.109 38.9832 550.859 38.3843C549.609 37.7593 548.073 37.4468 546.25 37.4468C544.453 37.4468 542.812 37.8244 541.328 38.5796C539.87 39.3348 538.607 40.3765 537.539 41.7046C536.497 43.0327 535.677 44.5562 535.078 46.2749C534.505 47.9676 534.219 49.7645 534.219 51.6655Z" fill="#344054"/>
</svg>
