<svg width="556" height="92" viewBox="0 0 556 92" fill="none" xmlns="http://www.w3.org/2000/svg">
<path d="M0 79.9999H80V-9.82285e-05H0V79.9999ZM120.938 56.314H128.438C128.047 59.9077 127.018 63.1239 125.352 65.9624C123.685 68.8009 121.328 71.0535 118.281 72.7202C115.234 74.3608 111.432 75.1812 106.875 75.1812C103.542 75.1812 100.508 74.5562 97.7734 73.3062C95.0651 72.0562 92.7344 70.2853 90.7812 67.9937C88.8281 65.6759 87.3177 62.9025 86.25 59.6733C85.2083 56.4181 84.6875 52.7983 84.6875 48.814V43.1499C84.6875 39.1655 85.2083 35.5588 86.25 32.3296C87.3177 29.0744 88.8411 26.2879 90.8203 23.9702C92.8255 21.6525 95.2344 19.8687 98.0469 18.6187C100.859 17.3687 104.023 16.7437 107.539 16.7437C111.836 16.7437 115.469 17.5509 118.438 19.1655C121.406 20.7801 123.711 23.0197 125.352 25.8843C127.018 28.7228 128.047 32.0171 128.438 35.7671H120.938C120.573 33.1108 119.896 30.8322 118.906 28.9312C117.917 27.0041 116.51 25.5197 114.688 24.478C112.865 23.4364 110.482 22.9155 107.539 22.9155C105.013 22.9155 102.786 23.3973 100.859 24.3608C98.9583 25.3244 97.3568 26.6916 96.0547 28.4624C94.7786 30.2332 93.8151 32.3556 93.1641 34.8296C92.513 37.3035 92.1875 40.0509 92.1875 43.0718V48.814C92.1875 51.6004 92.474 54.2176 93.0469 56.6655C93.6458 59.1134 94.5443 61.2619 95.7422 63.1108C96.9401 64.9598 98.4635 66.4181 100.312 67.4858C102.161 68.5275 104.349 69.0483 106.875 69.0483C110.078 69.0483 112.63 68.5405 114.531 67.5249C116.432 66.5093 117.865 65.0509 118.828 63.1499C119.818 61.2489 120.521 58.9702 120.938 56.314ZM144.844 14.3999V74.3999H137.617V14.3999H144.844ZM143.125 51.6655L140.117 51.5483C140.143 48.6577 140.573 45.9884 141.406 43.5405C142.24 41.0666 143.411 38.9181 144.922 37.0952C146.432 35.2723 148.229 33.866 150.312 32.8765C152.422 31.8608 154.753 31.353 157.305 31.353C159.388 31.353 161.263 31.6395 162.93 32.2124C164.596 32.7593 166.016 33.6447 167.188 34.8687C168.385 36.0926 169.297 37.6812 169.922 39.6343C170.547 41.5614 170.859 43.9181 170.859 46.7046V74.3999H163.594V46.6265C163.594 44.4129 163.268 42.6421 162.617 41.314C161.966 39.9598 161.016 38.9832 159.766 38.3843C158.516 37.7593 156.979 37.4468 155.156 37.4468C153.359 37.4468 151.719 37.8244 150.234 38.5796C148.776 39.3348 147.513 40.3765 146.445 41.7046C145.404 43.0327 144.583 44.5562 143.984 46.2749C143.411 47.9676 143.125 49.7645 143.125 51.6655ZM189.531 32.1343V74.3999H182.266V32.1343H189.531ZM181.719 20.9233C181.719 19.7515 182.07 18.7619 182.773 17.9546C183.503 17.1473 184.57 16.7437 185.977 16.7437C187.357 16.7437 188.411 17.1473 189.141 17.9546C189.896 18.7619 190.273 19.7515 190.273 20.9233C190.273 22.0431 189.896 23.0067 189.141 23.814C188.411 24.5952 187.357 24.9858 185.977 24.9858C184.57 24.9858 183.503 24.5952 182.773 23.814C182.07 23.0067 181.719 22.0431 181.719 20.9233ZM218.047 69.2437C219.766 69.2437 221.354 68.8921 222.812 68.189C224.271 67.4858 225.469 66.5223 226.406 65.2983C227.344 64.0483 227.878 62.6291 228.008 61.0405H234.883C234.753 63.5405 233.906 65.8713 232.344 68.0327C230.807 70.1681 228.789 71.8999 226.289 73.228C223.789 74.5301 221.042 75.1812 218.047 75.1812C214.87 75.1812 212.096 74.6213 209.727 73.5015C207.383 72.3817 205.43 70.8452 203.867 68.8921C202.331 66.939 201.172 64.6994 200.391 62.1733C199.635 59.6213 199.258 56.9259 199.258 54.0874V52.4468C199.258 49.6082 199.635 46.9259 200.391 44.3999C201.172 41.8478 202.331 39.5952 203.867 37.6421C205.43 35.689 207.383 34.1525 209.727 33.0327C212.096 31.9129 214.87 31.353 218.047 31.353C221.354 31.353 224.245 32.0301 226.719 33.3843C229.193 34.7124 231.133 36.5353 232.539 38.853C233.971 41.1447 234.753 43.7489 234.883 46.6655H228.008C227.878 44.9207 227.383 43.3452 226.523 41.939C225.69 40.5327 224.544 39.4129 223.086 38.5796C221.654 37.7202 219.974 37.2905 218.047 37.2905C215.833 37.2905 213.971 37.7332 212.461 38.6187C210.977 39.478 209.792 40.6499 208.906 42.1343C208.047 43.5926 207.422 45.2202 207.031 47.0171C206.667 48.7879 206.484 50.5978 206.484 52.4468V54.0874C206.484 55.9364 206.667 57.7593 207.031 59.5562C207.396 61.353 208.008 62.9806 208.867 64.439C209.753 65.8973 210.938 67.0692 212.422 67.9546C213.932 68.814 215.807 69.2437 218.047 69.2437ZM250.273 14.3999V74.3999H243.008V14.3999H250.273ZM276.094 32.1343L257.656 51.8608L247.344 62.564L246.758 54.8687L254.141 46.0405L267.266 32.1343H276.094ZM269.492 74.3999L254.414 54.2437L258.164 47.7983L278.008 74.3999H269.492ZM300.312 75.1812C297.37 75.1812 294.701 74.6864 292.305 73.6968C289.935 72.6812 287.891 71.2619 286.172 69.439C284.479 67.616 283.177 65.4546 282.266 62.9546C281.354 60.4546 280.898 57.7202 280.898 54.7515V53.1108C280.898 49.6733 281.406 46.6134 282.422 43.9312C283.438 41.2228 284.818 38.9312 286.562 37.0562C288.307 35.1812 290.286 33.7619 292.5 32.7983C294.714 31.8348 297.005 31.353 299.375 31.353C302.396 31.353 305 31.8739 307.188 32.9155C309.401 33.9572 311.211 35.4155 312.617 37.2905C314.023 39.1395 315.065 41.327 315.742 43.853C316.419 46.353 316.758 49.0874 316.758 52.0562V55.2983H285.195V49.3999H309.531V48.853C309.427 46.978 309.036 45.1551 308.359 43.3843C307.708 41.6134 306.667 40.1551 305.234 39.0093C303.802 37.8634 301.849 37.2905 299.375 37.2905C297.734 37.2905 296.224 37.6421 294.844 38.3452C293.464 39.0223 292.279 40.0379 291.289 41.3921C290.299 42.7463 289.531 44.3999 288.984 46.353C288.438 48.3062 288.164 50.5588 288.164 53.1108V54.7515C288.164 56.7567 288.438 58.6447 288.984 60.4155C289.557 62.1603 290.378 63.6968 291.445 65.0249C292.539 66.353 293.854 67.3947 295.391 68.1499C296.953 68.9051 298.724 69.2827 300.703 69.2827C303.255 69.2827 305.417 68.7619 307.188 67.7202C308.958 66.6785 310.508 65.2853 311.836 63.5405L316.211 67.0171C315.299 68.3973 314.141 69.7124 312.734 70.9624C311.328 72.2124 309.596 73.228 307.539 74.0093C305.508 74.7905 303.099 75.1812 300.312 75.1812ZM332.422 41.1577V74.3999H325.195V32.1343H332.031L332.422 41.1577ZM330.703 51.6655L327.695 51.5483C327.721 48.6577 328.151 45.9884 328.984 43.5405C329.818 41.0666 330.99 38.9181 332.5 37.0952C334.01 35.2723 335.807 33.866 337.891 32.8765C340 31.8608 342.331 31.353 344.883 31.353C346.966 31.353 348.841 31.6395 350.508 32.2124C352.174 32.7593 353.594 33.6447 354.766 34.8687C355.964 36.0926 356.875 37.6812 357.5 39.6343C358.125 41.5614 358.438 43.9181 358.438 46.7046V74.3999H351.172V46.6265C351.172 44.4129 350.846 42.6421 350.195 41.314C349.544 39.9598 348.594 38.9832 347.344 38.3843C346.094 37.7593 344.557 37.4468 342.734 37.4468C340.938 37.4468 339.297 37.8244 337.812 38.5796C336.354 39.3348 335.091 40.3765 334.023 41.7046C332.982 43.0327 332.161 44.5562 331.562 46.2749C330.99 47.9676 330.703 49.7645 330.703 51.6655ZM426.484 68.2671V74.3999H396.367V68.2671H426.484ZM397.891 17.5249V74.3999H390.352V17.5249H397.891ZM422.5 41.978V48.1108H396.367V41.978H422.5ZM426.094 17.5249V23.6968H396.367V17.5249H426.094ZM461.328 32.1343H467.891V73.5015C467.891 77.2254 467.135 80.4025 465.625 83.0327C464.115 85.6629 462.005 87.6551 459.297 89.0093C456.615 90.3895 453.516 91.0796 450 91.0796C448.542 91.0796 446.823 90.8452 444.844 90.3765C442.891 89.9338 440.964 89.1655 439.062 88.0718C437.188 87.0041 435.612 85.5588 434.336 83.7358L438.125 79.439C439.896 81.5744 441.745 83.0588 443.672 83.8921C445.625 84.7254 447.552 85.1421 449.453 85.1421C451.745 85.1421 453.724 84.7124 455.391 83.853C457.057 82.9937 458.346 81.7176 459.258 80.0249C460.195 78.3582 460.664 76.3009 460.664 73.853V41.4312L461.328 32.1343ZM432.227 53.7358V52.9155C432.227 49.6864 432.604 46.7567 433.359 44.1265C434.141 41.4702 435.247 39.1916 436.68 37.2905C438.138 35.3895 439.896 33.9312 441.953 32.9155C444.01 31.8739 446.328 31.353 448.906 31.353C451.562 31.353 453.88 31.8218 455.859 32.7593C457.865 33.6707 459.557 35.0119 460.938 36.7827C462.344 38.5275 463.451 40.6369 464.258 43.1108C465.065 45.5848 465.625 48.3843 465.938 51.5093V55.103C465.651 58.202 465.091 60.9884 464.258 63.4624C463.451 65.9364 462.344 68.0457 460.938 69.7905C459.557 71.5353 457.865 72.8765 455.859 73.814C453.854 74.7254 451.51 75.1812 448.828 75.1812C446.302 75.1812 444.01 74.6473 441.953 73.5796C439.922 72.5119 438.177 71.0145 436.719 69.0874C435.26 67.1603 434.141 64.8947 433.359 62.2905C432.604 59.6603 432.227 56.8088 432.227 53.7358ZM439.453 52.9155V53.7358C439.453 55.8452 439.661 57.8244 440.078 59.6733C440.521 61.5223 441.185 63.1499 442.07 64.5562C442.982 65.9624 444.141 67.0692 445.547 67.8765C446.953 68.6577 448.633 69.0483 450.586 69.0483C452.982 69.0483 454.961 68.5405 456.523 67.5249C458.086 66.5093 459.323 65.1681 460.234 63.5015C461.172 61.8348 461.901 60.0249 462.422 58.0718V48.6577C462.135 47.2254 461.693 45.8452 461.094 44.5171C460.521 43.1629 459.766 41.965 458.828 40.9233C457.917 39.8556 456.784 39.0093 455.43 38.3843C454.076 37.7593 452.487 37.4468 450.664 37.4468C448.685 37.4468 446.979 37.8634 445.547 38.6968C444.141 39.5041 442.982 40.6239 442.07 42.0562C441.185 43.4624 440.521 45.103 440.078 46.978C439.661 48.827 439.453 50.8062 439.453 52.9155ZM506.25 32.1343H512.812V73.5015C512.812 77.2254 512.057 80.4025 510.547 83.0327C509.036 85.6629 506.927 87.6551 504.219 89.0093C501.536 90.3895 498.438 91.0796 494.922 91.0796C493.464 91.0796 491.745 90.8452 489.766 90.3765C487.812 89.9338 485.885 89.1655 483.984 88.0718C482.109 87.0041 480.534 85.5588 479.258 83.7358L483.047 79.439C484.818 81.5744 486.667 83.0588 488.594 83.8921C490.547 84.7254 492.474 85.1421 494.375 85.1421C496.667 85.1421 498.646 84.7124 500.312 83.853C501.979 82.9937 503.268 81.7176 504.18 80.0249C505.117 78.3582 505.586 76.3009 505.586 73.853V41.4312L506.25 32.1343ZM477.148 53.7358V52.9155C477.148 49.6864 477.526 46.7567 478.281 44.1265C479.062 41.4702 480.169 39.1916 481.602 37.2905C483.06 35.3895 484.818 33.9312 486.875 32.9155C488.932 31.8739 491.25 31.353 493.828 31.353C496.484 31.353 498.802 31.8218 500.781 32.7593C502.786 33.6707 504.479 35.0119 505.859 36.7827C507.266 38.5275 508.372 40.6369 509.18 43.1108C509.987 45.5848 510.547 48.3843 510.859 51.5093V55.103C510.573 58.202 510.013 60.9884 509.18 63.4624C508.372 65.9364 507.266 68.0457 505.859 69.7905C504.479 71.5353 502.786 72.8765 500.781 73.814C498.776 74.7254 496.432 75.1812 493.75 75.1812C491.224 75.1812 488.932 74.6473 486.875 73.5796C484.844 72.5119 483.099 71.0145 481.641 69.0874C480.182 67.1603 479.062 64.8947 478.281 62.2905C477.526 59.6603 477.148 56.8088 477.148 53.7358ZM484.375 52.9155V53.7358C484.375 55.8452 484.583 57.8244 485 59.6733C485.443 61.5223 486.107 63.1499 486.992 64.5562C487.904 65.9624 489.062 67.0692 490.469 67.8765C491.875 68.6577 493.555 69.0483 495.508 69.0483C497.904 69.0483 499.883 68.5405 501.445 67.5249C503.008 66.5093 504.245 65.1681 505.156 63.5015C506.094 61.8348 506.823 60.0249 507.344 58.0718V48.6577C507.057 47.2254 506.615 45.8452 506.016 44.5171C505.443 43.1629 504.688 41.965 503.75 40.9233C502.839 39.8556 501.706 39.0093 500.352 38.3843C498.997 37.7593 497.409 37.4468 495.586 37.4468C493.607 37.4468 491.901 37.8634 490.469 38.6968C489.062 39.5041 487.904 40.6239 486.992 42.0562C486.107 43.4624 485.443 45.103 485 46.978C484.583 48.827 484.375 50.8062 484.375 52.9155ZM548.398 63.189C548.398 62.1473 548.164 61.1838 547.695 60.2983C547.253 59.3869 546.328 58.5666 544.922 57.8374C543.542 57.0822 541.458 56.4312 538.672 55.8843C536.328 55.3895 534.206 54.8035 532.305 54.1265C530.43 53.4494 528.828 52.6291 527.5 51.6655C526.198 50.702 525.195 49.5692 524.492 48.2671C523.789 46.965 523.438 45.4416 523.438 43.6968C523.438 42.0301 523.802 40.4546 524.531 38.9702C525.286 37.4858 526.341 36.1707 527.695 35.0249C529.076 33.8791 530.729 32.9806 532.656 32.3296C534.583 31.6785 536.732 31.353 539.102 31.353C542.487 31.353 545.378 31.952 547.773 33.1499C550.169 34.3478 552.005 35.9494 553.281 37.9546C554.557 39.9338 555.195 42.1343 555.195 44.5562H547.969C547.969 43.3843 547.617 42.2515 546.914 41.1577C546.237 40.0379 545.234 39.1134 543.906 38.3843C542.604 37.6551 541.003 37.2905 539.102 37.2905C537.096 37.2905 535.469 37.603 534.219 38.228C532.995 38.827 532.096 39.5952 531.523 40.5327C530.977 41.4702 530.703 42.4598 530.703 43.5015C530.703 44.2827 530.833 44.9858 531.094 45.6108C531.38 46.2098 531.875 46.7697 532.578 47.2905C533.281 47.7853 534.271 48.2541 535.547 48.6968C536.823 49.1395 538.451 49.5822 540.43 50.0249C543.893 50.8062 546.745 51.7437 548.984 52.8374C551.224 53.9312 552.891 55.2723 553.984 56.8608C555.078 58.4494 555.625 60.3765 555.625 62.6421C555.625 64.491 555.234 66.1838 554.453 67.7202C553.698 69.2567 552.591 70.5848 551.133 71.7046C549.701 72.7983 547.982 73.6577 545.977 74.2827C543.997 74.8817 541.771 75.1812 539.297 75.1812C535.573 75.1812 532.422 74.5171 529.844 73.189C527.266 71.8608 525.312 70.1421 523.984 68.0327C522.656 65.9233 521.992 63.6968 521.992 61.353H529.258C529.362 63.3322 529.935 64.9077 530.977 66.0796C532.018 67.2254 533.294 68.0457 534.805 68.5405C536.315 69.0093 537.812 69.2437 539.297 69.2437C541.276 69.2437 542.93 68.9832 544.258 68.4624C545.612 67.9416 546.641 67.2254 547.344 66.314C548.047 65.4025 548.398 64.3608 548.398 63.189Z" fill="#344054"/>
</svg>
