<svg width="112" height="208" viewBox="0 0 112 208" fill="none" xmlns="http://www.w3.org/2000/svg">
<rect x="0.5" y="0.5" width="111" height="207" rx="4.5" stroke="#9747FF" stroke-dasharray="10 5"/>
<g filter="url(#filter0_d_58767_11379)">
<rect x="16" y="16" width="80" height="80" rx="8" fill="white"/>
</g>
<rect x="54" y="33" width="2" height="9" fill="#CDD8E4"/>
<path d="M56 33H58V42H56V33Z" fill="#BDCBDB"/>
<path d="M42 33H62V37C62 37.5523 61.5523 38 61 38H43C42.4477 38 42 37.5523 42 37V33Z" fill="#B6D7FC"/>
<path d="M70 37C70 37.5523 69.5523 38 69 38H56V33H70V37Z" fill="#9DC9FB"/>
<path d="M28 77C28 73.134 31.134 70 35 70H77C80.866 70 84 73.134 84 77C84 80.866 80.866 84 77 84H35C31.134 84 28 80.866 28 77Z" fill="#F0F7FE"/>
<path d="M77 70C80.866 70 84 73.134 84 77C84 80.866 80.866 84 77 84H56V70H77Z" fill="#E2EFFE"/>
<path d="M77 81V84H35V81H77ZM81 77C81 74.7909 79.2091 73 77 73H35C32.7909 73 31 74.7909 31 77C31 79.2091 32.7909 81 35 81V84C31.134 84 28 80.866 28 77C28 73.134 31.134 70 35 70H77L77.3604 70.0088C81.0589 70.1963 84 73.2549 84 77C84 80.866 80.866 84 77 84V81C79.2091 81 81 79.2091 81 77Z" fill="#B6D7FC"/>
<path d="M28 29C28 28.4477 28.4477 28 29 28H83C83.5523 28 84 28.4477 84 29V32C84 33.1046 83.1046 34 82 34H30C28.8954 34 28 33.1046 28 32V29Z" fill="#40D98D"/>
<path d="M58.6924 54V54.6122H53.3012V54H49.1151C48.4993 54 48 54.4993 48 55.1151V69C48 69.5523 48.4477 70 49 70H63C63.5523 70 64 69.5523 64 69V55.518C64 54.6796 63.3204 54.0001 62.4821 54.0001L58.6924 54Z" fill="#157DF5"/>
<path d="M58.6922 54.6123H56.002V70H62.9998C63.5521 70 63.9998 69.5523 63.9998 69V55.0105C63.9998 54.4525 63.5475 54 62.9893 54H58.6922V54.6123Z" fill="#0965CD"/>
<path d="M58.2049 58.8686H53.7942C53.5217 58.8686 53.3008 58.6477 53.3008 58.3752V54H58.6984V58.3752C58.6983 58.6477 58.4774 58.8686 58.2049 58.8686Z" fill="#40D98D"/>
<path d="M56.002 58.8686H58.1744C58.4639 58.8686 58.6986 58.634 58.6986 58.3445V54H56.002V58.8686Z" fill="#25BB71"/>
<path d="M42 51.0001V48.9825C42.0001 47.6248 42.9122 46.4364 44.2236 46.085L55.4824 43.0684C56.5494 42.7825 57.6458 43.4155 57.9316 44.4825C58.2175 45.5494 57.5845 46.6458 56.5176 46.9317L46 49.7491V51.0001C46 52.1046 45.1046 53.0001 44 53.0001C42.8954 53.0001 42 52.1046 42 51.0001Z" fill="#BDCBDB"/>
<path d="M70 51.0001V48.9825C69.9999 47.6248 69.0878 46.4364 67.7764 46.085L56.5176 43.0684C55.4506 42.7825 54.3542 43.4155 54.0684 44.4825C53.7825 45.5494 54.4155 46.6458 55.4824 46.9317L66 49.7491V51.0001C66 52.1046 66.8954 53.0001 68 53.0001C69.1046 53.0001 70 52.1046 70 51.0001Z" fill="#7B97B7"/>
<circle cx="56" cy="45" r="4" fill="#157DF5"/>
<path d="M56 41C58.2091 41 60 42.7909 60 45C60 47.2091 58.2091 49 56 49V41Z" fill="#0965CD"/>
<circle cx="56" cy="45" r="2" fill="#CDD8E4"/>
<circle cx="77" cy="77" r="2" fill="#BDCBDB"/>
<circle cx="35" cy="77" r="2" fill="#CDD8E4"/>
<circle cx="56" cy="77" r="2" fill="#CDD8E4"/>
<circle cx="66" cy="77" r="2" fill="#BDCBDB"/>
<circle cx="46" cy="77" r="2" fill="#CDD8E4"/>
<path d="M84 32C84 33.1046 83.1046 34 82 34H56V28H83C83.5523 28 84 28.4477 84 29V32Z" fill="#25BB71"/>
<path d="M56 43C57.1046 43 58 43.8954 58 45C58 46.1046 57.1046 47 56 47V43Z" fill="#BDCBDB"/>
<path d="M77.3604 70.0088C81.0589 70.1963 84 73.2549 84 77C84 80.866 80.866 84 77 84H56V81H77C79.2091 81 81 79.2091 81 77C81 74.7909 79.2091 73 77 73H56V70H77L77.3604 70.0088Z" fill="#9DC9FB"/>
<path d="M56 75C57.1046 75 58 75.8954 58 77C58 78.1046 57.1046 79 56 79V75Z" fill="#BDCBDB"/>
<rect x="54" y="129" width="2" height="9" fill="#CDD8E4"/>
<path d="M56 129H58V138H56V129Z" fill="#BDCBDB"/>
<path d="M42 129H62V133C62 133.552 61.5523 134 61 134H43C42.4477 134 42 133.552 42 133V129Z" fill="#B6D7FC"/>
<path d="M70 133C70 133.552 69.5523 134 69 134H56V129H70V133Z" fill="#9DC9FB"/>
<path d="M28 173C28 169.134 31.134 166 35 166H77C80.866 166 84 169.134 84 173C84 176.866 80.866 180 77 180H35C31.134 180 28 176.866 28 173Z" fill="#F0F7FE"/>
<path d="M77 166C80.866 166 84 169.134 84 173C84 176.866 80.866 180 77 180H56V166H77Z" fill="#E2EFFE"/>
<path d="M77 177V180H35V177H77ZM81 173C81 170.791 79.2091 169 77 169H35C32.7909 169 31 170.791 31 173C31 175.209 32.7909 177 35 177V180C31.134 180 28 176.866 28 173C28 169.134 31.134 166 35 166H77L77.3604 166.009C81.0589 166.196 84 169.255 84 173C84 176.866 80.866 180 77 180V177C79.2091 177 81 175.209 81 173Z" fill="#B6D7FC"/>
<path d="M28 125C28 124.448 28.4477 124 29 124H83C83.5523 124 84 124.448 84 125V128C84 129.105 83.1046 130 82 130H30C28.8954 130 28 129.105 28 128V125Z" fill="#40D98D"/>
<path d="M58.6924 150V150.612H53.3012V150H49.1151C48.4993 150 48 150.499 48 151.115V165C48 165.552 48.4477 166 49 166H63C63.5523 166 64 165.552 64 165V151.518C64 150.68 63.3204 150 62.4821 150L58.6924 150Z" fill="#157DF5"/>
<path d="M58.6922 150.612H56.002V166H62.9998C63.5521 166 63.9998 165.552 63.9998 165V151.011C63.9998 150.452 63.5475 150 62.9893 150H58.6922V150.612Z" fill="#0965CD"/>
<path d="M58.2049 154.869H53.7942C53.5217 154.869 53.3008 154.648 53.3008 154.375V150H58.6984V154.375C58.6983 154.648 58.4774 154.869 58.2049 154.869Z" fill="#40D98D"/>
<path d="M56.002 154.869H58.1744C58.4639 154.869 58.6986 154.634 58.6986 154.344V150H56.002V154.869Z" fill="#25BB71"/>
<path d="M42 147V144.982C42.0001 143.625 42.9122 142.436 44.2236 142.085L55.4824 139.068C56.5494 138.783 57.6458 139.416 57.9316 140.482C58.2175 141.549 57.5845 142.646 56.5176 142.932L46 145.749V147C46 148.105 45.1046 149 44 149C42.8954 149 42 148.105 42 147Z" fill="#BDCBDB"/>
<path d="M70 147V144.982C69.9999 143.625 69.0878 142.436 67.7764 142.085L56.5176 139.068C55.4506 138.783 54.3542 139.416 54.0684 140.482C53.7825 141.549 54.4155 142.646 55.4824 142.932L66 145.749V147C66 148.105 66.8954 149 68 149C69.1046 149 70 148.105 70 147Z" fill="#7B97B7"/>
<circle cx="56" cy="141" r="4" fill="#157DF5"/>
<path d="M56 137C58.2091 137 60 138.791 60 141C60 143.209 58.2091 145 56 145V137Z" fill="#0965CD"/>
<circle cx="56" cy="141" r="2" fill="#CDD8E4"/>
<circle cx="77" cy="173" r="2" fill="#BDCBDB"/>
<circle cx="35" cy="173" r="2" fill="#CDD8E4"/>
<circle cx="56" cy="173" r="2" fill="#CDD8E4"/>
<circle cx="66" cy="173" r="2" fill="#BDCBDB"/>
<circle cx="46" cy="173" r="2" fill="#CDD8E4"/>
<path d="M84 128C84 129.105 83.1046 130 82 130H56V124H83C83.5523 124 84 124.448 84 125V128Z" fill="#25BB71"/>
<path d="M56 139C57.1046 139 58 139.895 58 141C58 142.105 57.1046 143 56 143V139Z" fill="#BDCBDB"/>
<path d="M77.3604 166.009C81.0589 166.196 84 169.255 84 173C84 176.866 80.866 180 77 180H56V177H77C79.2091 177 81 175.209 81 173C81 170.791 79.2091 169 77 169H56V166H77L77.3604 166.009Z" fill="#9DC9FB"/>
<path d="M56 171C57.1046 171 58 171.895 58 173C58 174.105 57.1046 175 56 175V171Z" fill="#BDCBDB"/>
<defs>
<filter id="filter0_d_58767_11379" x="10" y="9" width="96" height="96" filterUnits="userSpaceOnUse" color-interpolation-filters="sRGB">
<feFlood flood-opacity="0" result="BackgroundImageFix"/>
<feColorMatrix in="SourceAlpha" type="matrix" values="0 0 0 0 0 0 0 0 0 0 0 0 0 0 0 0 0 0 127 0" result="hardAlpha"/>
<feOffset dx="2" dy="1"/>
<feGaussianBlur stdDeviation="4"/>
<feColorMatrix type="matrix" values="0 0 0 0 0.0392157 0 0 0 0 0.0392157 0 0 0 0 0.0627451 0 0 0 0.08 0"/>
<feBlend mode="normal" in2="BackgroundImageFix" result="effect1_dropShadow_58767_11379"/>
<feBlend mode="normal" in="SourceGraphic" in2="effect1_dropShadow_58767_11379" result="shape"/>
</filter>
</defs>
</svg>
