<svg width="112" height="208" viewBox="0 0 112 208" fill="none" xmlns="http://www.w3.org/2000/svg">
<rect x="0.5" y="0.5" width="111" height="207" rx="4.5" stroke="#9747FF" stroke-dasharray="10 5"/>
<g filter="url(#filter0_d_23749_11255)">
<rect x="16" y="16" width="80" height="80" rx="8" fill="white"/>
</g>
<path d="M59.4225 30C56.5979 30 54.2998 32.298 54.2998 35.1227V40.4906H61.6711L62.765 35.2453L61.6711 30H59.4225Z" fill="#40D98D"/>
<path d="M69.0421 35.1227C69.0421 32.298 66.744 30 63.9194 30H61.6709V40.4906H69.0421V35.1227Z" fill="#25BB71"/>
<path d="M40.873 60.675H29.6406C28.7346 60.675 28 59.9405 28 59.0344C28 58.1284 28.7346 57.3938 29.6406 57.3938H40.873C41.7791 57.3938 42.5136 58.1284 42.5136 59.0344C42.5136 59.9405 41.7791 60.675 40.873 60.675Z" fill="#E2EFFE"/>
<path d="M41.8616 54.1125H34.1494C33.2434 54.1125 32.5088 53.378 32.5088 52.4719C32.5088 51.5659 33.2434 50.8313 34.1494 50.8313H41.8616C42.7676 50.8313 43.5022 51.5659 43.5022 52.4719C43.5022 53.378 42.7676 54.1125 41.8616 54.1125Z" fill="#B6D7FC"/>
<path d="M41.8616 67.2375H34.1494C33.2434 67.2375 32.5088 66.503 32.5088 65.5969C32.5088 64.6909 33.2434 63.9563 34.1494 63.9563H41.8616C42.7676 63.9563 43.5022 64.6909 43.5022 65.5969C43.5022 66.503 42.7676 67.2375 41.8616 67.2375Z" fill="#B6D7FC"/>
<path d="M39.3418 59.0342C39.3418 71.3465 49.3586 81.3633 61.6708 81.3633L62.7647 59.0342L61.6708 36.7051C49.3586 36.7051 39.3418 46.7219 39.3418 59.0342Z" fill="#157DF5"/>
<path d="M61.6709 36.7051V81.3633C73.9831 81.3633 84 71.3465 84 59.0342C84 46.7219 73.9831 36.7051 61.6709 36.7051Z" fill="#0965CD"/>
<path d="M61.6708 44.8623C53.8567 44.8623 47.4995 51.2195 47.4995 59.0336C47.4995 66.8477 53.8567 73.2049 61.6708 73.2049L62.7647 59.0336L61.6708 44.8623Z" fill="#E2EFFE"/>
<path d="M75.8422 59.0336C75.8422 51.2195 69.485 44.8623 61.6709 44.8623V73.2049C69.485 73.2049 75.8422 66.8477 75.8422 59.0336Z" fill="#B6D7FC"/>
<path d="M53.3102 52.3142C52.8903 52.3142 52.4704 52.1541 52.1501 51.8336L50.96 50.6435C50.3193 50.0028 50.3193 48.964 50.96 48.3233C51.6006 47.6826 52.6395 47.6826 53.2802 48.3233L54.4703 49.5134C55.111 50.1541 55.111 51.1929 54.4703 51.8336C54.1498 52.1541 53.7301 52.3142 53.3102 52.3142Z" fill="#157DF5"/>
<path d="M49.8471 60.6748H48.1641C47.258 60.6748 46.5234 59.9402 46.5234 59.0342C46.5234 58.1281 47.258 57.3936 48.1641 57.3936H49.8471C50.7532 57.3936 51.4878 58.1281 51.4878 59.0342C51.4878 59.9402 50.7532 60.6748 49.8471 60.6748Z" fill="#157DF5"/>
<path d="M52.1201 70.2256C51.7002 70.2256 51.2803 70.0654 50.96 69.745C50.3193 69.1043 50.3193 68.0655 50.96 67.4248L52.1501 66.2347C52.7907 65.594 53.8296 65.594 54.4703 66.2347C55.111 66.8754 55.111 67.9141 54.4703 68.5549L53.2802 69.745C52.9598 70.0654 52.54 70.2256 52.1201 70.2256Z" fill="#157DF5"/>
<path d="M71.2213 70.2253C70.8014 70.2253 70.3815 70.0652 70.0613 69.7447L68.8712 68.5546C68.2304 67.9139 68.2304 66.8752 68.8712 66.2344C69.5118 65.5937 70.5506 65.5937 71.1913 66.2344L72.3814 67.4246C73.0222 68.0653 73.0222 69.104 72.3814 69.7447C72.0611 70.0652 71.6412 70.2253 71.2213 70.2253Z" fill="#0965CD"/>
<path d="M75.1771 60.6738H73.4941C72.5881 60.6738 71.8535 59.9393 71.8535 59.0332C71.8535 58.1271 72.5881 57.3926 73.4941 57.3926H75.1772C76.0833 57.3926 76.8178 58.1271 76.8178 59.0332C76.8178 59.9393 76.0833 60.6738 75.1771 60.6738Z" fill="#0965CD"/>
<path d="M70.0312 52.3132C69.6113 52.3132 69.1914 52.1531 68.8712 51.8326C68.2304 51.1919 68.2304 50.1532 68.8712 49.5124L70.0613 48.3223C70.7019 47.6816 71.7407 47.6816 72.3814 48.3223C73.0222 48.9631 73.0222 50.0018 72.3814 50.6425L71.1913 51.8326C70.8709 52.1531 70.451 52.3132 70.0312 52.3132Z" fill="#0965CD"/>
<path d="M60.03 53.4641V58.0176L57.8038 60.2439C57.1631 60.8847 57.1631 61.9234 57.8038 62.5641C58.1241 62.8845 58.544 63.0447 58.9638 63.0447C59.3836 63.0447 59.8036 62.8846 60.1238 62.5641L61.6706 61.0173L62.7645 56.1132L61.6706 51.8235C60.7646 51.8235 60.03 52.558 60.03 53.4641Z" fill="#40D98D"/>
<path d="M62.8309 59.8573C63.1386 59.5496 63.3115 59.1324 63.3115 58.6973V53.4641C63.3115 52.558 62.577 51.8235 61.6709 51.8235V61.0173L62.8309 59.8573Z" fill="#25BB71"/>
<path d="M60.0303 45.5264V47.2094C60.0303 48.1155 60.7648 48.8501 61.6709 48.8501L62.7648 46.3672L61.6709 43.8857C60.7648 43.8857 60.0303 44.6203 60.0303 45.5264Z" fill="#157DF5"/>
<path d="M63.3115 47.2094V45.5264C63.3115 44.6203 62.577 43.8857 61.6709 43.8857V48.8501C62.5771 48.8499 63.3115 48.1155 63.3115 47.2094Z" fill="#0965CD"/>
<path d="M60.0303 70.8572V72.5402C60.0303 73.4463 60.7648 74.1809 61.6709 74.1809L62.7648 71.6987L61.6709 69.2166C60.7648 69.2166 60.0303 69.9511 60.0303 70.8572Z" fill="#157DF5"/>
<path d="M63.3115 72.5402V70.8572C63.3115 69.9511 62.577 69.2166 61.6709 69.2166V74.1809C62.5771 74.1809 63.3115 73.4463 63.3115 72.5402Z" fill="#0965CD"/>
<path d="M61.6707 71.5642C54.7612 71.5642 49.1401 65.943 49.1401 59.0336C49.1401 52.1241 54.7612 46.5029 61.6707 46.5029L62.7645 44.8623L61.6707 43.2217C52.952 43.2217 45.8589 50.3149 45.8589 59.0336C45.8589 67.7523 52.9521 74.8455 61.6707 74.8455L62.7645 73.2049L61.6707 71.5642Z" fill="#F0F7FE"/>
<path d="M77.4828 59.0336C77.4828 50.3149 70.3896 43.2217 61.6709 43.2217V46.5029C68.5803 46.5029 74.2016 52.1241 74.2016 59.0336C74.2016 65.943 68.5803 71.5642 61.6709 71.5642V74.8455C70.3895 74.8455 77.4828 67.7523 77.4828 59.0336Z" fill="#E2EFFE"/>
<path d="M59.4225 126C56.5979 126 54.2998 128.298 54.2998 131.123V136.491H61.6711L62.765 131.245L61.6711 126H59.4225Z" fill="#40D98D"/>
<path d="M69.0421 131.123C69.0421 128.298 66.744 126 63.9194 126H61.6709V136.491H69.0421V131.123Z" fill="#25BB71"/>
<path d="M40.873 156.675H29.6406C28.7346 156.675 28 155.94 28 155.034C28 154.128 28.7346 153.394 29.6406 153.394H40.873C41.7791 153.394 42.5136 154.128 42.5136 155.034C42.5136 155.94 41.7791 156.675 40.873 156.675Z" fill="#E2EFFE"/>
<path d="M41.8616 150.113H34.1494C33.2434 150.113 32.5088 149.378 32.5088 148.472C32.5088 147.566 33.2434 146.831 34.1494 146.831H41.8616C42.7676 146.831 43.5022 147.566 43.5022 148.472C43.5022 149.378 42.7676 150.113 41.8616 150.113Z" fill="#B6D7FC"/>
<path d="M41.8616 163.238H34.1494C33.2434 163.238 32.5088 162.503 32.5088 161.597C32.5088 160.691 33.2434 159.956 34.1494 159.956H41.8616C42.7676 159.956 43.5022 160.691 43.5022 161.597C43.5022 162.503 42.7676 163.238 41.8616 163.238Z" fill="#B6D7FC"/>
<path d="M39.3418 155.034C39.3418 167.347 49.3586 177.363 61.6708 177.363L62.7647 155.034L61.6708 132.705C49.3586 132.705 39.3418 142.722 39.3418 155.034Z" fill="#157DF5"/>
<path d="M61.6709 132.705V177.363C73.9831 177.363 84 167.347 84 155.034C84 142.722 73.9831 132.705 61.6709 132.705Z" fill="#0965CD"/>
<path d="M61.6708 140.862C53.8567 140.862 47.4995 147.22 47.4995 155.034C47.4995 162.848 53.8567 169.205 61.6708 169.205L62.7647 155.034L61.6708 140.862Z" fill="#E2EFFE"/>
<path d="M75.8422 155.034C75.8422 147.22 69.485 140.862 61.6709 140.862V169.205C69.485 169.205 75.8422 162.848 75.8422 155.034Z" fill="#B6D7FC"/>
<path d="M53.3102 148.314C52.8903 148.314 52.4704 148.154 52.1501 147.834L50.96 146.643C50.3193 146.003 50.3193 144.964 50.96 144.323C51.6006 143.683 52.6395 143.683 53.2802 144.323L54.4703 145.513C55.111 146.154 55.111 147.193 54.4703 147.834C54.1498 148.154 53.7301 148.314 53.3102 148.314Z" fill="#157DF5"/>
<path d="M49.8471 156.675H48.1641C47.258 156.675 46.5234 155.94 46.5234 155.034C46.5234 154.128 47.258 153.394 48.1641 153.394H49.8471C50.7532 153.394 51.4878 154.128 51.4878 155.034C51.4878 155.94 50.7532 156.675 49.8471 156.675Z" fill="#157DF5"/>
<path d="M52.1201 166.226C51.7002 166.226 51.2803 166.065 50.96 165.745C50.3193 165.104 50.3193 164.066 50.96 163.425L52.1501 162.235C52.7907 161.594 53.8296 161.594 54.4703 162.235C55.111 162.875 55.111 163.914 54.4703 164.555L53.2802 165.745C52.9598 166.065 52.54 166.226 52.1201 166.226Z" fill="#157DF5"/>
<path d="M71.2213 166.225C70.8014 166.225 70.3815 166.065 70.0613 165.745L68.8712 164.555C68.2304 163.914 68.2304 162.875 68.8712 162.234C69.5118 161.594 70.5506 161.594 71.1913 162.234L72.3814 163.425C73.0222 164.065 73.0222 165.104 72.3814 165.745C72.0611 166.065 71.6412 166.225 71.2213 166.225Z" fill="#0965CD"/>
<path d="M75.1771 156.674H73.4941C72.5881 156.674 71.8535 155.939 71.8535 155.033C71.8535 154.127 72.5881 153.393 73.4941 153.393H75.1772C76.0833 153.393 76.8178 154.127 76.8178 155.033C76.8178 155.939 76.0833 156.674 75.1771 156.674Z" fill="#0965CD"/>
<path d="M70.0312 148.313C69.6113 148.313 69.1914 148.153 68.8712 147.833C68.2304 147.192 68.2304 146.153 68.8712 145.512L70.0613 144.322C70.7019 143.682 71.7407 143.682 72.3814 144.322C73.0222 144.963 73.0222 146.002 72.3814 146.643L71.1913 147.833C70.8709 148.153 70.451 148.313 70.0312 148.313Z" fill="#0965CD"/>
<path d="M60.03 149.464V154.018L57.8038 156.244C57.1631 156.885 57.1631 157.923 57.8038 158.564C58.1241 158.884 58.544 159.045 58.9638 159.045C59.3836 159.045 59.8036 158.885 60.1238 158.564L61.6706 157.017L62.7645 152.113L61.6706 147.823C60.7646 147.823 60.03 148.558 60.03 149.464Z" fill="#40D98D"/>
<path d="M62.8309 155.857C63.1386 155.55 63.3115 155.132 63.3115 154.697V149.464C63.3115 148.558 62.577 147.823 61.6709 147.823V157.017L62.8309 155.857Z" fill="#25BB71"/>
<path d="M60.0303 141.526V143.209C60.0303 144.115 60.7648 144.85 61.6709 144.85L62.7648 142.367L61.6709 139.886C60.7648 139.886 60.0303 140.62 60.0303 141.526Z" fill="#157DF5"/>
<path d="M63.3115 143.209V141.526C63.3115 140.62 62.577 139.886 61.6709 139.886V144.85C62.5771 144.85 63.3115 144.115 63.3115 143.209Z" fill="#0965CD"/>
<path d="M60.0303 166.857V168.54C60.0303 169.446 60.7648 170.181 61.6709 170.181L62.7648 167.699L61.6709 165.217C60.7648 165.217 60.0303 165.951 60.0303 166.857Z" fill="#157DF5"/>
<path d="M63.3115 168.54V166.857C63.3115 165.951 62.577 165.217 61.6709 165.217V170.181C62.5771 170.181 63.3115 169.446 63.3115 168.54Z" fill="#0965CD"/>
<path d="M61.6707 167.564C54.7612 167.564 49.1401 161.943 49.1401 155.034C49.1401 148.124 54.7612 142.503 61.6707 142.503L62.7645 140.862L61.6707 139.222C52.952 139.222 45.8589 146.315 45.8589 155.034C45.8589 163.752 52.9521 170.845 61.6707 170.845L62.7645 169.205L61.6707 167.564Z" fill="#F0F7FE"/>
<path d="M77.4828 155.034C77.4828 146.315 70.3896 139.222 61.6709 139.222V142.503C68.5803 142.503 74.2016 148.124 74.2016 155.034C74.2016 161.943 68.5803 167.564 61.6709 167.564V170.845C70.3895 170.845 77.4828 163.752 77.4828 155.034Z" fill="#E2EFFE"/>
<defs>
<filter id="filter0_d_23749_11255" x="10" y="9" width="96" height="96" filterUnits="userSpaceOnUse" color-interpolation-filters="sRGB">
<feFlood flood-opacity="0" result="BackgroundImageFix"/>
<feColorMatrix in="SourceAlpha" type="matrix" values="0 0 0 0 0 0 0 0 0 0 0 0 0 0 0 0 0 0 127 0" result="hardAlpha"/>
<feOffset dx="2" dy="1"/>
<feGaussianBlur stdDeviation="4"/>
<feColorMatrix type="matrix" values="0 0 0 0 0.0392157 0 0 0 0 0.0392157 0 0 0 0 0.0627451 0 0 0 0.08 0"/>
<feBlend mode="normal" in2="BackgroundImageFix" result="effect1_dropShadow_23749_11255"/>
<feBlend mode="normal" in="SourceGraphic" in2="effect1_dropShadow_23749_11255" result="shape"/>
</filter>
</defs>
</svg>
