<svg width="112" height="208" viewBox="0 0 112 208" fill="none" xmlns="http://www.w3.org/2000/svg">
<rect x="0.5" y="0.5" width="111" height="207" rx="4.5" stroke="#9747FF" stroke-dasharray="10 5"/>
<g filter="url(#filter0_d_47512_11506)">
<rect x="16" y="16" width="80" height="80" rx="8" fill="white"/>
</g>
<path fill-rule="evenodd" clip-rule="evenodd" d="M31.9744 63.9442C30.8091 64.2616 29.7428 63.1775 30.0551 61.9928L30.6354 59.7908C29.8193 53.8853 29.8193 47.9786 30.6354 42.0732L30.0551 39.8711C29.7429 38.6864 30.8091 37.6023 31.9745 37.9198L34.1077 38.5009C36.0429 38.0706 38.7973 37.866 41.5 37.866C44.2027 37.866 46.9572 38.0706 48.8923 38.5009L51.0255 37.9198C52.1908 37.6023 53.2572 38.6864 52.9449 39.8711L52.3646 42.0732C53.1807 47.9786 53.1807 53.8853 52.3646 59.7908L52.9449 61.9927C53.2572 63.1775 52.1907 64.2615 51.0255 63.9442L48.8923 63.363C46.9572 63.7933 44.2027 63.9978 41.5 63.9978C38.7973 63.9978 36.0428 63.7933 34.1077 63.363L31.9744 63.9442Z" fill="#9DC9FB"/>
<path d="M41.5 37.866C38.7973 37.866 36.0429 38.0706 34.1077 38.5009L31.9745 37.9198C30.8091 37.6023 29.7429 38.6864 30.0551 39.871L30.6354 42.0731C29.8193 47.9785 29.8193 53.8853 30.6354 59.7907L30.0551 61.9928C29.7428 63.1775 30.8091 64.2615 31.9744 63.9442L34.1077 63.363C36.0428 63.7933 38.7973 63.9978 41.5 63.9978V37.866Z" fill="#B6D7FC"/>
<path d="M30.0425 49.3638H52.9575C52.898 46.9335 52.7004 44.5032 52.3646 42.0732L52.9449 39.8711C53.2572 38.6864 52.1908 37.6023 51.0255 37.9198L48.8923 38.5009C46.9571 38.0706 44.2027 37.866 41.5 37.866C38.7973 37.866 36.0428 38.0706 34.1077 38.5009L31.9745 37.9198C30.8091 37.6023 29.7429 38.6864 30.0551 39.8711L30.6354 42.0732C30.2996 44.5032 30.1019 46.9335 30.0425 49.3638Z" fill="#0965CD"/>
<path d="M41.5 37.866C38.7973 37.866 36.0428 38.0706 34.1077 38.5009L31.9745 37.9198C30.8091 37.6023 29.7429 38.6864 30.0551 39.871L30.6354 42.0731C30.2996 44.5032 30.1019 46.9334 30.0425 49.3638H41.5L41.5 37.866Z" fill="#157DF5"/>
<path d="M36.7886 44.1388C37.8139 44.1994 38.7805 44.4145 39.6333 44.841C40.2305 44.6609 40.8581 44.5627 41.4976 44.5627C42.1413 44.5627 42.7727 44.6625 43.3735 44.8449C44.2256 44.4195 45.1913 44.2052 46.2153 44.1447C47.4062 44.0744 48.3144 45.0509 48.2954 46.1545C48.2762 47.2554 48.1875 48.1795 47.9019 49.0851C48.151 49.7642 48.2905 50.4969 48.2905 51.2619C48.2905 53.3631 47.4346 55.0227 46.104 56.1339C44.8044 57.2193 43.1235 57.7267 41.4976 57.7267C39.8716 57.7267 38.1898 57.2193 36.8901 56.1339C35.5597 55.0227 34.7046 53.3629 34.7046 51.2619C34.7046 50.4909 34.8464 49.753 35.0991 49.0695C34.816 48.1671 34.7276 47.2462 34.7085 46.1496C34.6893 45.0457 35.5978 44.0685 36.7886 44.1388ZM46.6509 49.6261C46.7708 49.9689 46.856 50.3264 46.8989 50.6955C46.856 50.3261 46.771 49.9682 46.6509 49.6252V49.6261ZM43.1079 46.1877C43.243 46.2324 43.3769 46.2809 43.5083 46.3361C43.5908 46.2801 43.6766 46.2282 43.7642 46.1779L43.1079 46.1877ZM41.2397 45.9279C40.7264 45.955 40.22 46.0626 39.7368 46.2384C40.3007 46.0333 40.8963 45.922 41.4976 45.922C41.8432 45.922 42.1871 45.9581 42.5239 46.0285C42.3555 45.9933 42.1854 45.9664 42.0142 45.9484C41.8429 45.9304 41.6704 45.9211 41.4976 45.9211C41.4115 45.9211 41.3255 45.9234 41.2397 45.9279ZM45.8853 45.5353C45.215 45.6089 44.6171 45.7637 44.0962 46.005C43.9922 46.0532 43.8913 46.1052 43.7935 46.1603C43.7835 46.1659 43.774 46.1722 43.7642 46.1779H43.7651C44.4561 45.7813 45.3035 45.5608 46.2954 45.5021C46.6007 45.4841 46.8568 45.6967 46.9204 45.9826C46.857 45.6964 46.6009 45.4831 46.2954 45.5011C46.1558 45.5094 46.0191 45.5206 45.8853 45.5353Z" fill="white"/>
<path d="M36.0685 46.1291C36.0622 45.7716 36.3526 45.4781 36.7091 45.4991C38.3395 45.5954 39.5803 46.1279 40.3758 47.1634C40.4442 47.2525 40.4268 47.3789 40.3409 47.4511L37.298 50.0076C37.1967 50.0927 37.043 50.068 36.9764 49.9535C36.291 48.7756 36.0972 47.7828 36.0685 46.1291Z" fill="#FFA099"/>
<path d="M46.9348 46.1342C46.941 45.7767 46.6507 45.4832 46.2942 45.5042C44.6638 45.6006 43.423 46.1331 42.6275 47.1686C42.5591 47.2576 42.5765 47.384 42.6625 47.4563L45.7053 50.0127C45.8067 50.0979 45.9603 50.0731 46.027 49.9586C46.7124 48.7808 46.906 47.7879 46.9348 46.1342Z" fill="#FF7E75"/>
<path d="M46.9309 51.2636C46.9309 48.314 44.2771 45.9229 41.497 45.9229C38.717 45.9229 36.0632 48.314 36.0632 51.2636C36.0632 58.0705 46.9309 58.0705 46.9309 51.2636Z" fill="#FFDECC"/>
<path d="M41.501 56.3688C44.2171 56.3677 46.9323 54.666 46.9323 51.2636C46.9323 48.3149 44.2802 45.9243 41.501 45.9229V56.3688Z" fill="#FFCFB5"/>
<path d="M44.1916 52.2718C44.1916 51.1042 42.9178 50.1577 41.5833 50.1577C40.2489 50.1577 38.9751 51.1042 38.9751 52.2718C38.9751 54.9662 44.1916 54.9662 44.1916 52.2718Z" fill="#FFA099"/>
<path d="M43.8883 49.1883C43.8883 48.8277 43.5964 48.5354 43.2363 48.5354C42.8762 48.5354 42.5842 48.8277 42.5842 49.1883C42.5842 49.5488 42.8762 49.8411 43.2363 49.8411C43.5964 49.8411 43.8883 49.5488 43.8883 49.1883Z" fill="#1E203E"/>
<path d="M40.4111 49.1883C40.4111 48.8277 40.1191 48.5354 39.759 48.5354C39.3989 48.5354 39.1069 48.8277 39.1069 49.1883C39.1069 49.5488 39.3989 49.8411 39.759 49.8411C40.1191 49.8411 40.4111 49.5488 40.4111 49.1883Z" fill="#282A52"/>
<path fill-rule="evenodd" clip-rule="evenodd" d="M40.736 53.0264C40.4959 53.0264 40.3013 52.8316 40.3013 52.5912V52.1559C40.3013 51.9156 40.4959 51.7207 40.736 51.7207C40.9761 51.7207 41.1707 51.9156 41.1707 52.1559V52.5912C41.1707 52.8316 40.9761 53.0264 40.736 53.0264Z" fill="#282A52"/>
<path d="M41.501 54.2916C42.8326 54.3213 44.1934 53.648 44.1934 52.2718C44.1934 51.1042 42.9197 50.1577 41.5852 50.1577C41.5571 50.1577 41.529 50.1581 41.501 50.159V54.2916Z" fill="#FF7E75"/>
<path fill-rule="evenodd" clip-rule="evenodd" d="M42.2579 53.0264C42.0179 53.0264 41.8232 52.8316 41.8232 52.5912V52.1559C41.8232 51.9156 42.0179 51.7207 42.2579 51.7207C42.498 51.7207 42.6927 51.9156 42.6927 52.1559V52.5912C42.6927 52.8316 42.498 53.0264 42.2579 53.0264Z" fill="#1E203E"/>
<path fill-rule="evenodd" clip-rule="evenodd" d="M56.0979 78.7874H45.2001C44.8062 78.7874 44.5436 78.492 44.5436 78.1309C44.5436 75.3084 43.2464 73.0109 40.3907 73.0109C37.5678 73.0109 35.2701 75.3084 35.2701 78.1309C35.2701 78.492 35.0075 78.7874 34.6136 78.7874H31.2825C29.4771 78.7874 28 77.3104 28 75.5053V62.6396C28 62.2785 28.2954 61.9832 28.6565 61.9832H56.0979C56.4589 61.9832 56.7543 62.2785 56.7543 62.6396V78.1309C56.7872 78.492 56.4589 78.7874 56.0979 78.7874Z" fill="#157DF5"/>
<path fill-rule="evenodd" clip-rule="evenodd" d="M81.9963 78.7883H77.3352C76.9741 78.7883 76.6787 78.4929 76.6787 78.1319C76.6787 75.3093 74.381 73.0118 71.558 73.0118C68.7351 73.0118 66.4374 75.3093 66.4374 78.1319C66.4374 78.4929 66.142 78.7883 65.7809 78.7883H56.0977C55.7366 78.7883 55.4412 78.4929 55.4412 78.1319L55.474 53.2538C55.7038 51.4158 57.3778 51.0548 58.2313 51.1204H68.4725C68.7679 51.1204 68.9977 51.2845 69.0962 51.5143L73.3962 62.2795L81.2741 63.3297C83.4734 63.6908 84.0314 65.299 83.9986 66.0867V77.016C83.9329 77.5739 83.4734 78.7883 81.9963 78.7883Z" fill="#0965CD"/>
<path fill-rule="evenodd" clip-rule="evenodd" d="M83.9992 68.0254V73.8681H81.603C77.7625 73.8681 77.7625 68.0254 81.603 68.0254H83.9992Z" fill="#40D98D"/>
<path fill-rule="evenodd" clip-rule="evenodd" d="M70.0157 53.7769L73.3966 62.2783H62.4661C60.6607 62.2783 59.1836 60.8013 59.1836 58.9959V57.0593C59.1836 55.2539 60.6607 53.7769 62.4661 53.7769H70.0157Z" fill="#B6D7FC"/>
<path fill-rule="evenodd" clip-rule="evenodd" d="M28 75.4733V69.6306H29.9367C33.7771 69.6306 33.7771 75.4733 29.9367 75.4733C29.6084 75.4733 28.6565 75.5062 28 75.4733Z" fill="#40D98D"/>
<path fill-rule="evenodd" clip-rule="evenodd" d="M71.5049 83.9986C68.4673 83.9986 66.0215 81.553 66.0215 78.5158C66.0215 75.4786 68.4673 72.9937 71.5049 72.9937C74.5424 72.9937 77.0277 75.4786 77.0277 78.5158C77.0277 81.553 74.5424 83.9986 71.5049 83.9986Z" fill="#1E203E"/>
<path fill-rule="evenodd" clip-rule="evenodd" d="M71.5246 80.4954C68.8564 80.4954 68.8564 76.4932 71.5246 76.4932C74.1927 76.4932 74.1927 80.4954 71.5246 80.4954Z" fill="#B6D7FC"/>
<path fill-rule="evenodd" clip-rule="evenodd" d="M40.4873 83.9986C37.4497 83.9986 35.0039 81.553 35.0039 78.5158C35.0039 75.4786 37.4497 72.9937 40.4873 72.9937C43.5248 72.9937 46.0101 75.4786 46.0101 78.5158C46.0101 81.553 43.5248 83.9986 40.4873 83.9986Z" fill="#1E203E"/>
<path fill-rule="evenodd" clip-rule="evenodd" d="M40.5017 80.4954C37.8406 80.4954 37.8406 76.4932 40.5017 76.4932C43.1629 76.4932 43.1909 80.4954 40.5017 80.4954Z" fill="#B6D7FC"/>
<path d="M75.8018 35.2454L69.6611 41.3558C69.5654 41.4471 69.445 41.5087 69.3147 41.5331C69.1843 41.5574 69.0497 41.5435 68.9272 41.493C68.8046 41.4425 68.6995 41.3576 68.6247 41.2487C68.5498 41.1398 68.5085 41.0115 68.5056 40.8796V38.0249C65.2428 37.7994 61.5284 42.4007 61.2683 45.3943C61.2519 45.5434 61.1863 45.6829 61.0816 45.7909C60.977 45.8988 60.8393 45.9692 60.6902 45.9909C60.5411 46.0126 60.3889 45.9845 60.2576 45.9108C60.1263 45.8372 60.0232 45.7222 59.9646 45.584C57.0129 38.1598 61.1108 32.7371 68.5056 31.498V28.6585C68.5107 28.5276 68.5534 28.401 68.6287 28.2935C68.7039 28.186 68.8085 28.1023 68.9301 28.0521C69.0517 28.002 69.1852 27.9876 69.3148 28.0107C69.4443 28.0338 69.5645 28.0933 69.6611 28.1823L75.8018 34.2929C75.9287 34.4192 76 34.5905 76 34.7691C76 34.9477 75.9287 35.119 75.8018 35.2454Z" fill="#40D98D"/>
<path fill-rule="evenodd" clip-rule="evenodd" d="M31.9744 159.944C30.8091 160.262 29.7428 159.177 30.0551 157.993L30.6354 155.791C29.8193 149.885 29.8193 143.979 30.6354 138.073L30.0551 135.871C29.7429 134.686 30.8091 133.602 31.9745 133.92L34.1077 134.501C36.0429 134.071 38.7973 133.866 41.5 133.866C44.2027 133.866 46.9572 134.071 48.8923 134.501L51.0255 133.92C52.1908 133.602 53.2572 134.686 52.9449 135.871L52.3646 138.073C53.1807 143.979 53.1807 149.885 52.3646 155.791L52.9449 157.993C53.2572 159.178 52.1907 160.262 51.0255 159.944L48.8923 159.363C46.9572 159.793 44.2027 159.998 41.5 159.998C38.7973 159.998 36.0428 159.793 34.1077 159.363L31.9744 159.944Z" fill="#9DC9FB"/>
<path d="M41.5 133.866C38.7973 133.866 36.0429 134.071 34.1077 134.501L31.9745 133.92C30.8091 133.602 29.7429 134.686 30.0551 135.871L30.6354 138.073C29.8193 143.979 29.8193 149.885 30.6354 155.791L30.0551 157.993C29.7428 159.177 30.8091 160.262 31.9744 159.944L34.1077 159.363C36.0428 159.793 38.7973 159.998 41.5 159.998V133.866Z" fill="#B6D7FC"/>
<path d="M30.0425 145.364H52.9575C52.898 142.933 52.7004 140.503 52.3646 138.073L52.9449 135.871C53.2572 134.686 52.1908 133.602 51.0255 133.92L48.8923 134.501C46.9571 134.071 44.2027 133.866 41.5 133.866C38.7973 133.866 36.0428 134.071 34.1077 134.501L31.9745 133.92C30.8091 133.602 29.7429 134.686 30.0551 135.871L30.6354 138.073C30.2996 140.503 30.1019 142.933 30.0425 145.364Z" fill="#0965CD"/>
<path d="M41.5 133.866C38.7973 133.866 36.0428 134.071 34.1077 134.501L31.9745 133.92C30.8091 133.602 29.7429 134.686 30.0551 135.871L30.6354 138.073C30.2996 140.503 30.1019 142.933 30.0425 145.364H41.5L41.5 133.866Z" fill="#157DF5"/>
<path d="M36.7886 140.139C37.8139 140.199 38.7805 140.415 39.6333 140.841C40.2305 140.661 40.8581 140.563 41.4976 140.563C42.1413 140.563 42.7727 140.662 43.3735 140.845C44.2256 140.419 45.1913 140.205 46.2153 140.145C47.4062 140.074 48.3144 141.051 48.2954 142.154C48.2762 143.255 48.1875 144.179 47.9019 145.085C48.151 145.764 48.2905 146.497 48.2905 147.262C48.2905 149.363 47.4346 151.023 46.104 152.134C44.8044 153.219 43.1235 153.727 41.4976 153.727C39.8716 153.727 38.1898 153.219 36.8901 152.134C35.5597 151.023 34.7046 149.363 34.7046 147.262C34.7046 146.491 34.8464 145.753 35.0991 145.069C34.816 144.167 34.7276 143.246 34.7085 142.15C34.6893 141.046 35.5978 140.069 36.7886 140.139ZM46.6509 145.626C46.7708 145.969 46.856 146.326 46.8989 146.695C46.856 146.326 46.771 145.968 46.6509 145.625V145.626ZM43.1079 142.188C43.243 142.232 43.3769 142.281 43.5083 142.336C43.5908 142.28 43.6766 142.228 43.7642 142.178L43.1079 142.188ZM41.2397 141.928C40.7264 141.955 40.22 142.063 39.7368 142.238C40.3007 142.033 40.8963 141.922 41.4976 141.922C41.8432 141.922 42.1871 141.958 42.5239 142.028C42.3555 141.993 42.1854 141.966 42.0142 141.948C41.8429 141.93 41.6704 141.921 41.4976 141.921C41.4115 141.921 41.3255 141.923 41.2397 141.928ZM45.8853 141.535C45.215 141.609 44.6171 141.764 44.0962 142.005C43.9922 142.053 43.8913 142.105 43.7935 142.16C43.7835 142.166 43.774 142.172 43.7642 142.178H43.7651C44.4561 141.781 45.3035 141.561 46.2954 141.502C46.6007 141.484 46.8568 141.697 46.9204 141.983C46.857 141.696 46.6009 141.483 46.2954 141.501C46.1558 141.509 46.0191 141.521 45.8853 141.535Z" fill="white"/>
<path d="M36.0685 142.129C36.0622 141.772 36.3526 141.478 36.7091 141.499C38.3395 141.595 39.5803 142.128 40.3758 143.163C40.4442 143.252 40.4268 143.379 40.3409 143.451L37.298 146.008C37.1967 146.093 37.043 146.068 36.9764 145.953C36.291 144.776 36.0972 143.783 36.0685 142.129Z" fill="#FFA099"/>
<path d="M46.9348 142.134C46.941 141.777 46.6507 141.483 46.2942 141.504C44.6638 141.601 43.423 142.133 42.6275 143.169C42.5591 143.258 42.5765 143.384 42.6625 143.456L45.7053 146.013C45.8067 146.098 45.9603 146.073 46.027 145.959C46.7124 144.781 46.906 143.788 46.9348 142.134Z" fill="#FF7E75"/>
<path d="M46.9309 147.264C46.9309 144.314 44.2771 141.923 41.497 141.923C38.717 141.923 36.0632 144.314 36.0632 147.264C36.0632 154.07 46.9309 154.07 46.9309 147.264Z" fill="#FFDECC"/>
<path d="M41.501 152.369C44.2171 152.368 46.9323 150.666 46.9323 147.264C46.9323 144.315 44.2802 141.924 41.501 141.923V152.369Z" fill="#FFCFB5"/>
<path d="M44.1916 148.272C44.1916 147.104 42.9178 146.158 41.5833 146.158C40.2489 146.158 38.9751 147.104 38.9751 148.272C38.9751 150.966 44.1916 150.966 44.1916 148.272Z" fill="#FFA099"/>
<path d="M43.8883 145.188C43.8883 144.828 43.5964 144.535 43.2363 144.535C42.8762 144.535 42.5842 144.828 42.5842 145.188C42.5842 145.549 42.8762 145.841 43.2363 145.841C43.5964 145.841 43.8883 145.549 43.8883 145.188Z" fill="#1E203E"/>
<path d="M40.4111 145.188C40.4111 144.828 40.1191 144.535 39.759 144.535C39.3989 144.535 39.1069 144.828 39.1069 145.188C39.1069 145.549 39.3989 145.841 39.759 145.841C40.1191 145.841 40.4111 145.549 40.4111 145.188Z" fill="#282A52"/>
<path fill-rule="evenodd" clip-rule="evenodd" d="M40.736 149.026C40.4959 149.026 40.3013 148.832 40.3013 148.591V148.156C40.3013 147.916 40.4959 147.721 40.736 147.721C40.9761 147.721 41.1707 147.916 41.1707 148.156V148.591C41.1707 148.832 40.9761 149.026 40.736 149.026Z" fill="#282A52"/>
<path d="M41.501 150.292C42.8326 150.321 44.1934 149.648 44.1934 148.272C44.1934 147.104 42.9197 146.158 41.5852 146.158C41.5571 146.158 41.529 146.158 41.501 146.159V150.292Z" fill="#FF7E75"/>
<path fill-rule="evenodd" clip-rule="evenodd" d="M42.2579 149.026C42.0179 149.026 41.8232 148.832 41.8232 148.591V148.156C41.8232 147.916 42.0179 147.721 42.2579 147.721C42.498 147.721 42.6927 147.916 42.6927 148.156V148.591C42.6927 148.832 42.498 149.026 42.2579 149.026Z" fill="#1E203E"/>
<path fill-rule="evenodd" clip-rule="evenodd" d="M56.0979 174.787H45.2001C44.8062 174.787 44.5436 174.492 44.5436 174.131C44.5436 171.308 43.2464 169.011 40.3907 169.011C37.5678 169.011 35.2701 171.308 35.2701 174.131C35.2701 174.492 35.0075 174.787 34.6136 174.787H31.2825C29.4771 174.787 28 173.31 28 171.505V158.64C28 158.279 28.2954 157.983 28.6565 157.983H56.0979C56.4589 157.983 56.7543 158.279 56.7543 158.64V174.131C56.7872 174.492 56.4589 174.787 56.0979 174.787Z" fill="#157DF5"/>
<path fill-rule="evenodd" clip-rule="evenodd" d="M81.9963 174.788H77.3352C76.9741 174.788 76.6787 174.493 76.6787 174.132C76.6787 171.309 74.381 169.012 71.558 169.012C68.7351 169.012 66.4374 171.309 66.4374 174.132C66.4374 174.493 66.142 174.788 65.7809 174.788H56.0977C55.7366 174.788 55.4412 174.493 55.4412 174.132L55.474 149.254C55.7038 147.416 57.3778 147.055 58.2313 147.12H68.4725C68.7679 147.12 68.9977 147.285 69.0962 147.514L73.3962 158.279L81.2741 159.33C83.4734 159.691 84.0314 161.299 83.9986 162.087V173.016C83.9329 173.574 83.4734 174.788 81.9963 174.788Z" fill="#0965CD"/>
<path fill-rule="evenodd" clip-rule="evenodd" d="M83.9992 164.025V169.868H81.603C77.7625 169.868 77.7625 164.025 81.603 164.025H83.9992Z" fill="#40D98D"/>
<path fill-rule="evenodd" clip-rule="evenodd" d="M70.0157 149.777L73.3966 158.278H62.4661C60.6607 158.278 59.1836 156.801 59.1836 154.996V153.059C59.1836 151.254 60.6607 149.777 62.4661 149.777H70.0157Z" fill="#B6D7FC"/>
<path fill-rule="evenodd" clip-rule="evenodd" d="M28 171.473V165.631H29.9367C33.7771 165.631 33.7771 171.473 29.9367 171.473C29.6084 171.473 28.6565 171.506 28 171.473Z" fill="#40D98D"/>
<path fill-rule="evenodd" clip-rule="evenodd" d="M71.5049 179.999C68.4673 179.999 66.0215 177.553 66.0215 174.516C66.0215 171.479 68.4673 168.994 71.5049 168.994C74.5424 168.994 77.0277 171.479 77.0277 174.516C77.0277 177.553 74.5424 179.999 71.5049 179.999Z" fill="#1E203E"/>
<path fill-rule="evenodd" clip-rule="evenodd" d="M71.5246 176.495C68.8564 176.495 68.8564 172.493 71.5246 172.493C74.1927 172.493 74.1927 176.495 71.5246 176.495Z" fill="#B6D7FC"/>
<path fill-rule="evenodd" clip-rule="evenodd" d="M40.4873 179.999C37.4497 179.999 35.0039 177.553 35.0039 174.516C35.0039 171.479 37.4497 168.994 40.4873 168.994C43.5248 168.994 46.0101 171.479 46.0101 174.516C46.0101 177.553 43.5248 179.999 40.4873 179.999Z" fill="#1E203E"/>
<path fill-rule="evenodd" clip-rule="evenodd" d="M40.5017 176.495C37.8406 176.495 37.8406 172.493 40.5017 172.493C43.1629 172.493 43.1909 176.495 40.5017 176.495Z" fill="#B6D7FC"/>
<path d="M75.8018 131.245L69.6611 137.356C69.5654 137.447 69.445 137.509 69.3147 137.533C69.1843 137.557 69.0497 137.544 68.9272 137.493C68.8046 137.443 68.6995 137.358 68.6247 137.249C68.5498 137.14 68.5085 137.012 68.5056 136.88V134.025C65.2428 133.799 61.5284 138.401 61.2683 141.394C61.2519 141.543 61.1863 141.683 61.0816 141.791C60.977 141.899 60.8393 141.969 60.6902 141.991C60.5411 142.013 60.3889 141.984 60.2576 141.911C60.1263 141.837 60.0232 141.722 59.9646 141.584C57.0129 134.16 61.1108 128.737 68.5056 127.498V124.659C68.5107 124.528 68.5534 124.401 68.6287 124.293C68.7039 124.186 68.8085 124.102 68.9301 124.052C69.0517 124.002 69.1852 123.988 69.3148 124.011C69.4443 124.034 69.5645 124.093 69.6611 124.182L75.8018 130.293C75.9287 130.419 76 130.59 76 130.769C76 130.948 75.9287 131.119 75.8018 131.245Z" fill="#40D98D"/>
<defs>
<filter id="filter0_d_47512_11506" x="10" y="9" width="96" height="96" filterUnits="userSpaceOnUse" color-interpolation-filters="sRGB">
<feFlood flood-opacity="0" result="BackgroundImageFix"/>
<feColorMatrix in="SourceAlpha" type="matrix" values="0 0 0 0 0 0 0 0 0 0 0 0 0 0 0 0 0 0 127 0" result="hardAlpha"/>
<feOffset dx="2" dy="1"/>
<feGaussianBlur stdDeviation="4"/>
<feColorMatrix type="matrix" values="0 0 0 0 0.0392157 0 0 0 0 0.0392157 0 0 0 0 0.0627451 0 0 0 0.08 0"/>
<feBlend mode="normal" in2="BackgroundImageFix" result="effect1_dropShadow_47512_11506"/>
<feBlend mode="normal" in="SourceGraphic" in2="effect1_dropShadow_47512_11506" result="shape"/>
</filter>
</defs>
</svg>
