<svg width="112" height="208" viewBox="0 0 112 208" fill="none" xmlns="http://www.w3.org/2000/svg">
<rect x="0.5" y="0.5" width="111" height="207" rx="4.5" stroke="#9747FF" stroke-dasharray="10 5"/>
<g filter="url(#filter0_d_12791_60829)">
<rect x="16" y="16" width="80" height="80" rx="8" fill="white"/>
</g>
<path d="M47.6357 41.7363L47.6162 41.9268L47.5801 42.1143C47.4942 42.4863 47.3182 42.8321 47.0664 43.1201L46.9336 43.2598L46.791 43.3877C46.4454 43.6711 46.0233 43.8492 45.5752 43.8984L45.5381 43.9023C44.5273 43.9902 42.9527 44.7428 41.6104 45.9707C40.9077 46.6135 40.4 47.2655 40.0781 47.8652L40.8984 47.8652L40.916 47.8662C41.368 47.8759 41.8068 48.0179 42.1787 48.2734L42.3145 48.373C42.6211 48.6183 42.8607 48.938 43.0107 49.3018C43.1607 49.6656 43.2159 50.0611 43.1719 50.4502L43.1465 50.6162L43.1094 50.7803C43.024 51.1047 42.8699 51.4076 42.6562 51.667L42.5439 51.793L42.5322 51.8057L42.5195 51.8184L36.4082 57.959C35.975 58.3941 35.3855 58.6396 34.7695 58.6396C34.1536 58.6396 33.5641 58.3941 33.1309 57.959L27.0195 51.8184L26.9971 51.7959L26.9756 51.7725C26.6744 51.4455 26.4743 51.0391 26.3965 50.6025C26.3187 50.1658 26.367 49.715 26.5361 49.3047C26.7053 48.8945 26.9888 48.5404 27.3535 48.2852C27.7183 48.0299 28.149 47.8846 28.5947 47.8672L28.627 47.8652L30.1641 47.8652C30.9985 44.4653 32.7415 41.656 35.3311 39.9785C38.3034 38.0532 42.0915 37.8107 46.1914 39.4404L46.209 39.4473L46.2256 39.4551C46.6993 39.6559 47.0919 40.008 47.3428 40.4551C47.5622 40.8464 47.6635 41.2917 47.6357 41.7363Z" fill="#40D98D" stroke="white" stroke-width="3.28"/>
<path d="M53.6472 31.0043L78.3529 31.0043C79.261 31.0043 80 31.7433 80 32.6513L80 46.8154C80 47.7235 79.261 48.4624 78.3529 48.4624L62.4863 48.4624C62.0318 48.4624 61.6628 48.0935 61.6628 47.6389L58.9177 47.6389C58.9177 48.0935 58.5488 48.4624 58.0942 48.4624L53.6472 48.4624C52.7391 48.4624 52.0001 47.7235 52.0001 46.8154L52.0001 32.6513C52.0001 31.7433 52.7391 31.0043 53.6472 31.0043Z" fill="#40D98D"/>
<path d="M66.0001 31.0043L78.353 31.0043C79.2611 31.0043 80 31.7433 80 32.6513L80 46.8154C80 47.7235 79.2611 48.4624 78.353 48.4624L66.0001 48.4624L66.0001 31.0043Z" fill="#25BB71"/>
<path d="M58.0942 48.4624L53.6472 48.4624C52.7391 48.4624 52.0001 47.7235 52.0001 46.8154L52.0001 41.5297L52.8236 41.5297C56.2067 41.5297 58.9512 44.2609 58.9721 47.6389L58.9177 47.6389C58.9177 48.0935 58.5488 48.4624 58.0942 48.4624Z" fill="#09C369"/>
<path d="M79.1763 41.4901L79.9999 41.4901L79.9999 46.8154C79.9999 47.7235 79.2609 48.4624 78.3528 48.4624L73.0273 48.4624L73.0273 47.6389C73.0273 44.2428 75.7801 41.4901 79.1763 41.4901Z" fill="#08A559"/>
<path d="M53.647 30.9999L58.9725 30.9999L58.9725 31.8234C58.9725 35.2195 56.2197 37.9722 52.8235 37.9722L52 37.9722L52 32.6469C52 31.7389 52.739 30.9999 53.647 30.9999Z" fill="#09C369"/>
<path d="M73.0273 31.8234L73.0273 30.9999L78.3528 30.9999C79.2609 30.9999 79.9999 31.7389 79.9999 32.6469L79.9999 37.9722L79.1763 37.9722C75.7801 37.9722 73.0273 35.2195 73.0273 31.8234Z" fill="#08A559"/>
<path d="M71.2163 39.7298C71.2163 36.8494 68.8812 34.5144 66.0007 34.5144C63.1202 34.5144 60.785 36.8494 60.785 39.7298C60.785 42.6103 63.1202 44.9453 66.0007 44.9453C68.8812 44.9453 71.2163 42.6103 71.2163 39.7298Z" fill="#09C369"/>
<path d="M66 34.5144C68.8757 34.5144 71.2157 36.8542 71.2157 39.7298C71.2157 42.6055 68.8757 44.9453 66 44.9453L66 34.5144Z" fill="#08A559"/>
<path d="M64.3517 39.7329C64.3517 40.6409 65.0907 41.3799 65.9987 41.3799C66.9068 41.3799 67.6458 40.6409 67.6458 39.7329C67.6458 38.8249 66.9068 38.0859 65.9987 38.0859C65.0907 38.0859 64.3517 38.8249 64.3517 39.7329Z" fill="#40D98D"/>
<path d="M66 38.0859C66.9081 38.0859 67.647 38.8249 67.647 39.7329C67.647 40.6409 66.9081 41.3799 66 41.3799L66 38.0859Z" fill="#25BB71"/>
<path d="M82.0487 50.8727H73.8639L64.6575 53.0736C63.1355 53.4375 61.5375 53.3037 60.0966 52.6918L49.7467 48.2968C48.3199 47.7168 47.6275 46.0805 48.2031 44.6469C48.7794 43.2118 50.4117 42.5148 51.8445 43.0945L61.6262 47.1242L64.2848 45.1083L62.467 44.6548C61.7442 44.4664 61.1377 44.0068 60.7593 43.3606C60.3809 42.7144 60.2758 41.959 60.4635 41.2335C60.7899 39.9717 61.9263 39.1327 63.1711 39.1328C63.4039 39.1329 63.6407 39.1622 63.8764 39.2236L73.0431 41.6919H82.0487C82.3487 41.6919 82.5919 41.936 82.5919 42.2371V50.3274C82.5919 50.6285 82.3487 50.8727 82.0487 50.8727Z" fill="#FFDECC"/>
<path d="M65.9628 52.7615L64.6571 53.0737C63.1351 53.4375 61.5371 53.3037 60.0962 52.6919L49.7463 48.2969C48.3195 47.7168 47.627 46.0806 48.2027 44.6469C48.779 43.2118 50.4113 42.5148 51.8441 43.0945L61.6258 47.1242L64.2845 45.1083L62.4667 44.6548C61.7439 44.4664 61.1373 44.0068 60.759 43.3606C60.3806 42.7144 60.2755 41.959 60.4632 41.2335C60.7896 39.9717 61.926 39.1327 63.1707 39.1328C63.4034 39.1329 63.6403 39.1622 63.876 39.2236L65.9628 39.7855V52.7615Z" fill="#FFCFB5"/>
<path d="M82.5875 51.8448H80.3623C79.5834 51.8448 78.9498 51.2088 78.9498 50.4271V41.7146C78.9498 40.9329 79.5834 40.2969 80.3623 40.2969H82.5875C83.3663 40.2969 84 40.9329 84 41.7146V50.4272C84 51.2088 83.3663 51.8448 82.5875 51.8448Z" fill="#157DF5"/>
<path d="M30.6013 77.7734H41.5145L53.7898 80.7305C55.8192 81.2194 57.9498 81.0396 59.871 80.2175L73.6711 74.3125C75.5735 73.5333 76.4968 71.3348 75.7293 69.4086C74.9609 67.4804 72.7844 66.5439 70.8739 67.3228L57.8316 72.7371L54.2867 70.0285L56.7105 69.4192C57.6743 69.1661 58.483 68.5486 58.9874 67.6804C59.492 66.8122 59.6321 65.7972 59.3819 64.8224C58.9467 63.1271 57.4314 61.9999 55.7717 62C55.4613 62.0001 55.1456 62.0395 54.8313 62.122L42.6089 65.4383H30.6013C30.2012 65.4383 29.877 65.7663 29.877 66.1709V77.0407C29.877 77.4453 30.2012 77.7734 30.6013 77.7734Z" fill="#FFDECC"/>
<path d="M52.0488 80.3112L53.7898 80.7306C55.8191 81.2195 57.9498 81.0397 59.871 80.2176L73.6711 74.3126C75.5735 73.5333 76.4968 71.3349 75.7292 69.4087C74.9608 67.4805 72.7844 66.544 70.8739 67.3229L57.8315 72.7371L54.2866 70.0285L56.7104 69.4192C57.6741 69.1661 58.4828 68.5486 58.9873 67.6804C59.4919 66.8122 59.6319 65.7972 59.3817 64.8224C58.9465 63.1271 57.4313 61.9999 55.7716 62C55.4613 62.0001 55.1455 62.0395 54.8313 62.122L52.0488 62.877V80.3112Z" fill="#FFCFB5"/>
<path d="M29.8834 79.0859H32.8503C33.8888 79.0859 34.7337 78.2314 34.7337 77.181V65.4752C34.7337 64.4248 33.8888 63.5703 32.8503 63.5703H29.8834C28.8449 63.5703 28 64.4248 28 65.4752V77.1811C28 78.2314 28.8449 79.0859 29.8834 79.0859Z" fill="#157DF5"/>
<path d="M47.6357 137.736L47.6162 137.927L47.5801 138.114C47.4942 138.486 47.3182 138.832 47.0664 139.12L46.9336 139.26L46.791 139.388C46.4454 139.671 46.0233 139.849 45.5752 139.898L45.5381 139.902C44.5273 139.99 42.9527 140.743 41.6104 141.971C40.9077 142.613 40.4 143.266 40.0781 143.865L40.8984 143.865L40.916 143.866C41.368 143.876 41.8068 144.018 42.1787 144.273L42.3145 144.373C42.6211 144.618 42.8607 144.938 43.0107 145.302C43.1607 145.666 43.2159 146.061 43.1719 146.45L43.1465 146.616L43.1094 146.78C43.024 147.105 42.8699 147.408 42.6562 147.667L42.5439 147.793L42.5322 147.806L42.5195 147.818L36.4082 153.959C35.975 154.394 35.3855 154.64 34.7695 154.64C34.1536 154.64 33.5641 154.394 33.1309 153.959L27.0195 147.818L26.9971 147.796L26.9756 147.772C26.6744 147.445 26.4743 147.039 26.3965 146.603C26.3187 146.166 26.367 145.715 26.5361 145.305C26.7053 144.894 26.9888 144.54 27.3535 144.285C27.7183 144.03 28.149 143.885 28.5947 143.867L28.627 143.865L30.1641 143.865C30.9985 140.465 32.7415 137.656 35.3311 135.979C38.3034 134.053 42.0915 133.811 46.1914 135.44L46.209 135.447L46.2256 135.455C46.6993 135.656 47.0919 136.008 47.3428 136.455C47.5622 136.846 47.6635 137.292 47.6357 137.736Z" fill="#40D98D" stroke="white" stroke-width="3.28"/>
<path d="M53.6472 127.004L78.3529 127.004C79.261 127.004 80 127.743 80 128.651L80 142.815C80 143.723 79.261 144.462 78.3529 144.462L62.4863 144.462C62.0318 144.462 61.6628 144.093 61.6628 143.639L58.9177 143.639C58.9177 144.093 58.5488 144.462 58.0942 144.462L53.6472 144.462C52.7391 144.462 52.0001 143.723 52.0001 142.815L52.0001 128.651C52.0001 127.743 52.7391 127.004 53.6472 127.004Z" fill="#40D98D"/>
<path d="M66.0001 127.004L78.353 127.004C79.2611 127.004 80 127.743 80 128.651L80 142.815C80 143.723 79.2611 144.462 78.353 144.462L66.0001 144.462L66.0001 127.004Z" fill="#25BB71"/>
<path d="M58.0942 144.462L53.6472 144.462C52.7391 144.462 52.0001 143.723 52.0001 142.815L52.0001 137.53L52.8236 137.53C56.2067 137.53 58.9512 140.261 58.9721 143.639L58.9177 143.639C58.9177 144.093 58.5488 144.462 58.0942 144.462Z" fill="#09C369"/>
<path d="M79.1763 137.49L79.9999 137.49L79.9999 142.815C79.9999 143.723 79.2609 144.462 78.3528 144.462L73.0273 144.462L73.0273 143.639C73.0273 140.243 75.7801 137.49 79.1763 137.49Z" fill="#08A559"/>
<path d="M53.647 127L58.9725 127L58.9725 127.823C58.9725 131.219 56.2197 133.972 52.8235 133.972L52 133.972L52 128.647C52 127.739 52.739 127 53.647 127Z" fill="#09C369"/>
<path d="M73.0273 127.823L73.0273 127L78.3528 127C79.2609 127 79.9999 127.739 79.9999 128.647L79.9999 133.972L79.1763 133.972C75.7801 133.972 73.0273 131.22 73.0273 127.823Z" fill="#08A559"/>
<path d="M71.2163 135.73C71.2163 132.849 68.8812 130.514 66.0007 130.514C63.1202 130.514 60.785 132.849 60.785 135.73C60.785 138.61 63.1202 140.945 66.0007 140.945C68.8812 140.945 71.2163 138.61 71.2163 135.73Z" fill="#09C369"/>
<path d="M66 130.514C68.8757 130.514 71.2157 132.854 71.2157 135.73C71.2157 138.605 68.8757 140.945 66 140.945L66 130.514Z" fill="#08A559"/>
<path d="M64.3517 135.733C64.3517 136.641 65.0907 137.38 65.9987 137.38C66.9068 137.38 67.6458 136.641 67.6458 135.733C67.6458 134.825 66.9068 134.086 65.9987 134.086C65.0907 134.086 64.3517 134.825 64.3517 135.733Z" fill="#40D98D"/>
<path d="M66 134.086C66.9081 134.086 67.647 134.825 67.647 135.733C67.647 136.641 66.9081 137.38 66 137.38L66 134.086Z" fill="#25BB71"/>
<path d="M82.0487 146.873H73.8639L64.6575 149.074C63.1355 149.437 61.5375 149.304 60.0966 148.692L49.7467 144.297C48.3199 143.717 47.6275 142.081 48.2031 140.647C48.7794 139.212 50.4117 138.515 51.8445 139.094L61.6262 143.124L64.2848 141.108L62.467 140.655C61.7442 140.466 61.1377 140.007 60.7593 139.361C60.3809 138.714 60.2758 137.959 60.4635 137.234C60.7899 135.972 61.9263 135.133 63.1711 135.133C63.4039 135.133 63.6407 135.162 63.8764 135.224L73.0431 137.692H82.0487C82.3487 137.692 82.5919 137.936 82.5919 138.237V146.327C82.5919 146.628 82.3487 146.873 82.0487 146.873Z" fill="#FFDECC"/>
<path d="M65.9628 148.762L64.6571 149.074C63.1351 149.438 61.5371 149.304 60.0962 148.692L49.7463 144.297C48.3195 143.717 47.627 142.081 48.2027 140.647C48.779 139.212 50.4113 138.515 51.8441 139.095L61.6258 143.124L64.2845 141.108L62.4667 140.655C61.7439 140.466 61.1373 140.007 60.759 139.361C60.3806 138.714 60.2755 137.959 60.4632 137.234C60.7896 135.972 61.926 135.133 63.1707 135.133C63.4034 135.133 63.6403 135.162 63.876 135.224L65.9628 135.786V148.762Z" fill="#FFCFB5"/>
<path d="M82.5875 147.845H80.3623C79.5834 147.845 78.9498 147.209 78.9498 146.427V137.715C78.9498 136.933 79.5834 136.297 80.3623 136.297H82.5875C83.3663 136.297 84 136.933 84 137.715V146.427C84 147.209 83.3663 147.845 82.5875 147.845Z" fill="#157DF5"/>
<path d="M30.6013 173.773H41.5145L53.7898 176.731C55.8192 177.219 57.9498 177.04 59.871 176.218L73.6711 170.313C75.5735 169.533 76.4968 167.335 75.7293 165.409C74.9609 163.48 72.7844 162.544 70.8739 163.323L57.8316 168.737L54.2867 166.029L56.7105 165.419C57.6743 165.166 58.483 164.549 58.9874 163.68C59.492 162.812 59.6321 161.797 59.3819 160.822C58.9467 159.127 57.4314 158 55.7717 158C55.4613 158 55.1456 158.04 54.8313 158.122L42.6089 161.438H30.6013C30.2012 161.438 29.877 161.766 29.877 162.171V173.041C29.877 173.445 30.2012 173.773 30.6013 173.773Z" fill="#FFDECC"/>
<path d="M52.0488 176.311L53.7898 176.731C55.8191 177.22 57.9498 177.04 59.871 176.218L73.6711 170.313C75.5735 169.533 76.4968 167.335 75.7292 165.409C74.9608 163.48 72.7844 162.544 70.8739 163.323L57.8315 168.737L54.2866 166.029L56.7104 165.419C57.6741 165.166 58.4828 164.549 58.9873 163.68C59.4919 162.812 59.6319 161.797 59.3817 160.822C58.9465 159.127 57.4313 158 55.7716 158C55.4613 158 55.1455 158.04 54.8313 158.122L52.0488 158.877V176.311Z" fill="#FFCFB5"/>
<path d="M29.8834 175.086H32.8503C33.8888 175.086 34.7337 174.231 34.7337 173.181V161.475C34.7337 160.425 33.8888 159.57 32.8503 159.57H29.8834C28.8449 159.57 28 160.425 28 161.475V173.181C28 174.231 28.8449 175.086 29.8834 175.086Z" fill="#157DF5"/>
<defs>
<filter id="filter0_d_12791_60829" x="10" y="9" width="96" height="96" filterUnits="userSpaceOnUse" color-interpolation-filters="sRGB">
<feFlood flood-opacity="0" result="BackgroundImageFix"/>
<feColorMatrix in="SourceAlpha" type="matrix" values="0 0 0 0 0 0 0 0 0 0 0 0 0 0 0 0 0 0 127 0" result="hardAlpha"/>
<feOffset dx="2" dy="1"/>
<feGaussianBlur stdDeviation="4"/>
<feColorMatrix type="matrix" values="0 0 0 0 0.0392157 0 0 0 0 0.0392157 0 0 0 0 0.0627451 0 0 0 0.08 0"/>
<feBlend mode="normal" in2="BackgroundImageFix" result="effect1_dropShadow_12791_60829"/>
<feBlend mode="normal" in="SourceGraphic" in2="effect1_dropShadow_12791_60829" result="shape"/>
</filter>
</defs>
</svg>
