<svg width="398" height="80" viewBox="0 0 398 80" fill="none" xmlns="http://www.w3.org/2000/svg">
<path d="M0 79.9999H80V-9.82285e-05H0V79.9999ZM94.1406 17.5249V74.3999H86.6016V17.5249H94.1406ZM117.969 43.1108V49.2827H92.5V43.1108H117.969ZM121.836 17.5249V23.6968H92.5V17.5249H121.836ZM137.578 32.1343V74.3999H130.312V32.1343H137.578ZM129.766 20.9233C129.766 19.7515 130.117 18.7619 130.82 17.9546C131.549 17.1473 132.617 16.7437 134.023 16.7437C135.404 16.7437 136.458 17.1473 137.188 17.9546C137.943 18.7619 138.32 19.7515 138.32 20.9233C138.32 22.0431 137.943 23.0067 137.188 23.814C136.458 24.5952 135.404 24.9858 134.023 24.9858C132.617 24.9858 131.549 24.5952 130.82 23.814C130.117 23.0067 129.766 22.0431 129.766 20.9233ZM156.406 41.1577V74.3999H149.18V32.1343H156.016L156.406 41.1577ZM154.688 51.6655L151.68 51.5483C151.706 48.6577 152.135 45.9884 152.969 43.5405C153.802 41.0666 154.974 38.9181 156.484 37.0952C157.995 35.2723 159.792 33.866 161.875 32.8765C163.984 31.8608 166.315 31.353 168.867 31.353C170.951 31.353 172.826 31.6395 174.492 32.2124C176.159 32.7593 177.578 33.6447 178.75 34.8687C179.948 36.0926 180.859 37.6812 181.484 39.6343C182.109 41.5614 182.422 43.9181 182.422 46.7046V74.3999H175.156V46.6265C175.156 44.4129 174.831 42.6421 174.18 41.314C173.529 39.9598 172.578 38.9832 171.328 38.3843C170.078 37.7593 168.542 37.4468 166.719 37.4468C164.922 37.4468 163.281 37.8244 161.797 38.5796C160.339 39.3348 159.076 40.3765 158.008 41.7046C156.966 43.0327 156.146 44.5562 155.547 46.2749C154.974 47.9676 154.688 49.7645 154.688 51.6655ZM218.32 67.1733V45.4155C218.32 43.7489 217.982 42.3035 217.305 41.0796C216.654 39.8296 215.664 38.866 214.336 38.189C213.008 37.5119 211.367 37.1733 209.414 37.1733C207.591 37.1733 205.99 37.4858 204.609 38.1108C203.255 38.7358 202.188 39.5562 201.406 40.5718C200.651 41.5874 200.273 42.6812 200.273 43.853H193.047C193.047 42.3426 193.438 40.8452 194.219 39.3608C195 37.8765 196.12 36.5353 197.578 35.3374C199.062 34.1134 200.833 33.1499 202.891 32.4468C204.974 31.7176 207.292 31.353 209.844 31.353C212.917 31.353 215.625 31.8739 217.969 32.9155C220.339 33.9572 222.188 35.5327 223.516 37.6421C224.87 39.7254 225.547 42.3426 225.547 45.4937V65.1812C225.547 66.5874 225.664 68.0848 225.898 69.6733C226.159 71.2619 226.536 72.6291 227.031 73.7749V74.3999H219.492C219.128 73.5666 218.841 72.4598 218.633 71.0796C218.424 69.6733 218.32 68.3713 218.32 67.1733ZM219.57 48.7749L219.648 53.853H212.344C210.286 53.853 208.451 54.0223 206.836 54.3608C205.221 54.6733 203.867 55.1551 202.773 55.8062C201.68 56.4572 200.846 57.2775 200.273 58.2671C199.701 59.2306 199.414 60.3634 199.414 61.6655C199.414 62.9937 199.714 64.2046 200.312 65.2983C200.911 66.3921 201.81 67.2645 203.008 67.9155C204.232 68.5405 205.729 68.853 207.5 68.853C209.714 68.853 211.667 68.3843 213.359 67.4468C215.052 66.5093 216.393 65.3634 217.383 64.0093C218.398 62.6551 218.945 61.34 219.023 60.064L222.109 63.5405C221.927 64.6343 221.432 65.8452 220.625 67.1733C219.818 68.5015 218.737 69.7775 217.383 71.0015C216.055 72.1994 214.466 73.202 212.617 74.0093C210.794 74.7905 208.737 75.1812 206.445 75.1812C203.581 75.1812 201.068 74.6213 198.906 73.5015C196.771 72.3817 195.104 70.8843 193.906 69.0093C192.734 67.1082 192.148 64.9858 192.148 62.6421C192.148 60.3765 192.591 58.3843 193.477 56.6655C194.362 54.9207 195.638 53.4754 197.305 52.3296C198.971 51.1577 200.977 50.2723 203.32 49.6733C205.664 49.0744 208.281 48.7749 211.172 48.7749H219.57ZM244.141 41.1577V74.3999H236.914V32.1343H243.75L244.141 41.1577ZM242.422 51.6655L239.414 51.5483C239.44 48.6577 239.87 45.9884 240.703 43.5405C241.536 41.0666 242.708 38.9181 244.219 37.0952C245.729 35.2723 247.526 33.866 249.609 32.8765C251.719 31.8608 254.049 31.353 256.602 31.353C258.685 31.353 260.56 31.6395 262.227 32.2124C263.893 32.7593 265.312 33.6447 266.484 34.8687C267.682 36.0926 268.594 37.6812 269.219 39.6343C269.844 41.5614 270.156 43.9181 270.156 46.7046V74.3999H262.891V46.6265C262.891 44.4129 262.565 42.6421 261.914 41.314C261.263 39.9598 260.312 38.9832 259.062 38.3843C257.812 37.7593 256.276 37.4468 254.453 37.4468C252.656 37.4468 251.016 37.8244 249.531 38.5796C248.073 39.3348 246.81 40.3765 245.742 41.7046C244.701 43.0327 243.88 44.5562 243.281 46.2749C242.708 47.9676 242.422 49.7645 242.422 51.6655ZM298.047 69.2437C299.766 69.2437 301.354 68.8921 302.812 68.189C304.271 67.4858 305.469 66.5223 306.406 65.2983C307.344 64.0483 307.878 62.6291 308.008 61.0405H314.883C314.753 63.5405 313.906 65.8713 312.344 68.0327C310.807 70.1681 308.789 71.8999 306.289 73.228C303.789 74.5301 301.042 75.1812 298.047 75.1812C294.87 75.1812 292.096 74.6213 289.727 73.5015C287.383 72.3817 285.43 70.8452 283.867 68.8921C282.331 66.939 281.172 64.6994 280.391 62.1733C279.635 59.6213 279.258 56.9259 279.258 54.0874V52.4468C279.258 49.6082 279.635 46.9259 280.391 44.3999C281.172 41.8478 282.331 39.5952 283.867 37.6421C285.43 35.689 287.383 34.1525 289.727 33.0327C292.096 31.9129 294.87 31.353 298.047 31.353C301.354 31.353 304.245 32.0301 306.719 33.3843C309.193 34.7124 311.133 36.5353 312.539 38.853C313.971 41.1447 314.753 43.7489 314.883 46.6655H308.008C307.878 44.9207 307.383 43.3452 306.523 41.939C305.69 40.5327 304.544 39.4129 303.086 38.5796C301.654 37.7202 299.974 37.2905 298.047 37.2905C295.833 37.2905 293.971 37.7332 292.461 38.6187C290.977 39.478 289.792 40.6499 288.906 42.1343C288.047 43.5926 287.422 45.2202 287.031 47.0171C286.667 48.7879 286.484 50.5978 286.484 52.4468V54.0874C286.484 55.9364 286.667 57.7593 287.031 59.5562C287.396 61.353 288.008 62.9806 288.867 64.439C289.753 65.8973 290.938 67.0692 292.422 67.9546C293.932 68.814 295.807 69.2437 298.047 69.2437ZM340.547 75.1812C337.604 75.1812 334.935 74.6864 332.539 73.6968C330.169 72.6812 328.125 71.2619 326.406 69.439C324.714 67.616 323.411 65.4546 322.5 62.9546C321.589 60.4546 321.133 57.7202 321.133 54.7515V53.1108C321.133 49.6733 321.641 46.6134 322.656 43.9312C323.672 41.2228 325.052 38.9312 326.797 37.0562C328.542 35.1812 330.521 33.7619 332.734 32.7983C334.948 31.8348 337.24 31.353 339.609 31.353C342.63 31.353 345.234 31.8739 347.422 32.9155C349.635 33.9572 351.445 35.4155 352.852 37.2905C354.258 39.1395 355.299 41.327 355.977 43.853C356.654 46.353 356.992 49.0874 356.992 52.0562V55.2983H325.43V49.3999H349.766V48.853C349.661 46.978 349.271 45.1551 348.594 43.3843C347.943 41.6134 346.901 40.1551 345.469 39.0093C344.036 37.8634 342.083 37.2905 339.609 37.2905C337.969 37.2905 336.458 37.6421 335.078 38.3452C333.698 39.0223 332.513 40.0379 331.523 41.3921C330.534 42.7463 329.766 44.3999 329.219 46.353C328.672 48.3062 328.398 50.5588 328.398 53.1108V54.7515C328.398 56.7567 328.672 58.6447 329.219 60.4155C329.792 62.1603 330.612 63.6968 331.68 65.0249C332.773 66.353 334.089 67.3947 335.625 68.1499C337.188 68.9051 338.958 69.2827 340.938 69.2827C343.49 69.2827 345.651 68.7619 347.422 67.7202C349.193 66.6785 350.742 65.2853 352.07 63.5405L356.445 67.0171C355.534 68.3973 354.375 69.7124 352.969 70.9624C351.562 72.2124 349.831 73.228 347.773 74.0093C345.742 74.7905 343.333 75.1812 340.547 75.1812ZM390.039 63.189C390.039 62.1473 389.805 61.1838 389.336 60.2983C388.893 59.3869 387.969 58.5666 386.562 57.8374C385.182 57.0822 383.099 56.4312 380.312 55.8843C377.969 55.3895 375.846 54.8035 373.945 54.1265C372.07 53.4494 370.469 52.6291 369.141 51.6655C367.839 50.702 366.836 49.5692 366.133 48.2671C365.43 46.965 365.078 45.4416 365.078 43.6968C365.078 42.0301 365.443 40.4546 366.172 38.9702C366.927 37.4858 367.982 36.1707 369.336 35.0249C370.716 33.8791 372.37 32.9806 374.297 32.3296C376.224 31.6785 378.372 31.353 380.742 31.353C384.128 31.353 387.018 31.952 389.414 33.1499C391.81 34.3478 393.646 35.9494 394.922 37.9546C396.198 39.9338 396.836 42.1343 396.836 44.5562H389.609C389.609 43.3843 389.258 42.2515 388.555 41.1577C387.878 40.0379 386.875 39.1134 385.547 38.3843C384.245 37.6551 382.643 37.2905 380.742 37.2905C378.737 37.2905 377.109 37.603 375.859 38.228C374.635 38.827 373.737 39.5952 373.164 40.5327C372.617 41.4702 372.344 42.4598 372.344 43.5015C372.344 44.2827 372.474 44.9858 372.734 45.6108C373.021 46.2098 373.516 46.7697 374.219 47.2905C374.922 47.7853 375.911 48.2541 377.188 48.6968C378.464 49.1395 380.091 49.5822 382.07 50.0249C385.534 50.8062 388.385 51.7437 390.625 52.8374C392.865 53.9312 394.531 55.2723 395.625 56.8608C396.719 58.4494 397.266 60.3765 397.266 62.6421C397.266 64.491 396.875 66.1838 396.094 67.7202C395.339 69.2567 394.232 70.5848 392.773 71.7046C391.341 72.7983 389.622 73.6577 387.617 74.2827C385.638 74.8817 383.411 75.1812 380.938 75.1812C377.214 75.1812 374.062 74.5171 371.484 73.189C368.906 71.8608 366.953 70.1421 365.625 68.0327C364.297 65.9233 363.633 63.6968 363.633 61.353H370.898C371.003 63.3322 371.576 64.9077 372.617 66.0796C373.659 67.2254 374.935 68.0457 376.445 68.5405C377.956 69.0093 379.453 69.2437 380.938 69.2437C382.917 69.2437 384.57 68.9832 385.898 68.4624C387.253 67.9416 388.281 67.2254 388.984 66.314C389.688 65.4025 390.039 64.3608 390.039 63.189Z" fill="#344054"/>
</svg>
