<svg width="112" height="208" viewBox="0 0 112 208" fill="none" xmlns="http://www.w3.org/2000/svg">
<rect x="0.5" y="0.5" width="111" height="207" rx="4.5" stroke="#9747FF" stroke-dasharray="10 5"/>
<g filter="url(#filter0_dd_48681_11487)">
<rect x="16" y="16" width="80" height="80" rx="8" fill="white"/>
</g>
<path d="M40.5472 28H58.0015V81.9993H49.5016V73.5449C49.5016 71.4362 47.7921 69.7267 45.6834 69.7267H38.0018V30.5455C38.0018 29.1396 39.1414 28 40.5472 28Z" fill="#157DF5"/>
<path d="M38.0001 69.7274H45.6817C47.7904 69.7274 49.4999 71.4369 49.4999 73.5456V82L38.0001 69.7274Z" fill="#0965CD"/>
<path d="M78 30.5455C78 29.1396 76.8604 28 75.4545 28H58.0003V81.9993H75.4545C76.8604 81.9993 78 80.8597 78 79.4539V30.5455Z" fill="#0965CD"/>
<path d="M67.9987 45.7966C67.9987 44.7799 67.1745 43.9557 66.1578 43.9557H57.9988V47.6375H66.1578C67.1745 47.6375 67.9987 46.8133 67.9987 45.7966Z" fill="#E2EFFE"/>
<path d="M67.9987 54.3846C67.9987 53.368 67.1745 52.5438 66.1578 52.5438H57.9988V56.2255H66.1578C67.1745 56.2255 67.9987 55.4013 67.9987 54.3846Z" fill="#E2EFFE"/>
<path d="M55.4994 37.201C55.4994 36.1843 54.6752 35.3601 53.6585 35.3601H47.3404C46.3237 35.3601 45.4995 36.1843 45.4995 37.201C45.4995 38.2177 46.3237 39.0419 47.3404 39.0419H53.6585C54.6752 39.0419 55.4994 38.2177 55.4994 37.201Z" fill="#40D98D"/>
<path d="M55.4994 62.9802C55.4994 61.9635 54.6752 61.1393 53.6585 61.1393H47.3404C46.3237 61.1393 45.4995 61.9635 45.4995 62.9802C45.4995 63.9969 46.3237 64.8211 47.3404 64.8211H53.6585C54.6752 64.8211 55.4994 63.9969 55.4994 62.9802Z" fill="white"/>
<path d="M45.5024 45.7966C45.5024 44.7799 46.3266 43.9557 47.3433 43.9557H58.0023V47.6375H47.3433C46.3266 47.6375 45.5024 46.8133 45.5024 45.7966Z" fill="white"/>
<path d="M45.5024 54.3846C45.5024 53.368 46.3266 52.5438 47.3433 52.5438H58.0023V56.2255H47.3433C46.3266 56.2255 45.5024 55.4013 45.5024 54.3846Z" fill="white"/>
<path d="M51.6008 58.738V57.7482C51.6008 57.4083 51.321 57.1328 50.9758 57.1328H48.9084C48.5632 57.1328 48.2834 57.4083 48.2834 57.7482V58.738C46.5458 59.5115 42.7012 61.8865 42.7012 65.8479C42.7012 69.2317 45.8141 71.7834 49.9421 71.7834C54.0701 71.7834 57.183 69.2317 57.183 65.8479C57.183 61.8865 53.3384 59.5115 51.6008 58.738Z" fill="#FF7E75"/>
<path d="M32.6624 60.5329L32.2302 59.5047C31.7643 58.3964 31.6027 57.0855 32.2056 56.1004C32.2464 56.0338 32.2968 55.9731 32.3549 55.9208C33.3358 55.0387 34.4654 55.5829 34.9205 56.0973C35.2953 56.522 35.2009 57.1766 35.0642 57.7229C34.9816 58.0527 35.0037 58.4075 35.1426 58.7378L35.5749 59.766L32.6624 60.5329Z" fill="#25BB71"/>
<path d="M42.1372 61.6143C41.925 60.6026 41.2853 59.7142 40.3823 59.1768C39.4793 58.6395 38.3777 58.4917 37.3599 58.7714C37.031 58.8618 36.7215 58.9917 36.434 59.1597C35.403 58.7772 34.2657 58.788 33.2258 59.205C32.1858 59.6221 31.369 60.395 30.9107 61.3747C30.5853 61.4524 30.2716 61.5725 29.9727 61.7339C29.0473 62.2335 28.3698 63.0947 28.114 64.0969C27.8581 65.099 28.0423 66.17 28.6192 67.0356L33.1538 73.8391L43.8061 69.5671L42.1372 61.6143Z" fill="#40D98D"/>
<path d="M45.7566 52C44.6712 52 43.6917 52.4486 43.0001 53.1651L42.265 54.9745L43.0001 61.0096H44.6588V57.7115H45.279C47.3689 57.7115 48.4442 56.0509 48.4442 54.0096V52H45.7566Z" fill="#40D98D"/>
<path d="M40.2434 52H37.5558V54.625C37.5558 56.6662 38.6311 57.7115 40.721 57.7115H41.3412V61.0096H42.9999V53.165C42.3083 52.4486 41.3288 52 40.2434 52Z" fill="#40D98D"/>
<path d="M45.9822 60.5497C45.2143 59.7436 44.1274 59.2812 43.0001 59.2812L42.265 67.1787L43.0001 75.6594H46.1671L47.0627 63.5461C47.1439 62.4479 46.75 61.3557 45.9822 60.5497Z" fill="#F54B5E"/>
<path d="M40.0176 60.5497C39.2497 61.3558 38.8559 62.4479 38.9371 63.5462L39.8328 75.6595H42.9997V59.2812C41.8724 59.2812 40.7855 59.7435 40.0176 60.5497Z" fill="#F54B5E"/>
<path d="M56.1251 73.5373C56.1251 73.1974 55.8496 72.9219 55.5097 72.9219H29.8751V80.3065H55.5097C55.8496 80.3065 56.1251 80.031 56.1251 79.6911V73.5373Z" fill="#0965CD"/>
<path d="M43 73.6154C43 73.2755 42.7245 73 42.3846 73H30V80H42.3846C42.7245 80 43 79.7245 43 79.3846V73.6154Z" fill="#157DF5"/>
<path d="M28.0001 69.848C28.0001 69.1682 28.5598 68.6172 29.2501 68.6172H43.0001V74.2422H29.2501C28.5598 74.2422 28.0001 73.6912 28.0001 73.0114V69.848Z" fill="#E2EFFE"/>
<path d="M58.0001 69.848C58.0001 69.1682 57.4405 68.6172 56.7501 68.6172H43.0001V74.2422H56.7501C57.4405 74.2422 58.0001 73.6912 58.0001 73.0114V69.848Z" fill="#B6D7FC"/>
<path d="M56.7501 84C57.4405 84 58.0001 83.449 58.0001 82.7692V79.6058C58.0001 78.926 57.4405 78.375 56.7501 78.375H43.0001L42.265 80.4103L43.0001 84H56.7501Z" fill="#B6D7FC"/>
<path d="M28 79.6058C28 78.926 28.5596 78.375 29.25 78.375H43V84H29.25C28.5596 84 28 83.449 28 82.7692V79.6058Z" fill="#E2EFFE"/>
<path d="M81.8828 78.7441C82.5715 78.8139 83.1094 79.3955 83.1094 80.1025C83.1094 80.1756 83.1378 80.2462 83.1895 80.2979C83.2411 80.3495 83.3117 80.3779 83.3848 80.3779C84.1386 80.378 84.7498 80.9893 84.75 81.7432C84.75 82.4972 84.1388 83.1093 83.3848 83.1094C83.3117 83.1094 83.2411 83.1378 83.1895 83.1895C83.1378 83.2411 83.1094 83.3117 83.1094 83.3848C83.1093 84.1388 82.4972 84.75 81.7432 84.75C80.9893 84.7498 80.378 84.1386 80.3779 83.3848C80.3779 83.3117 80.3495 83.2411 80.2979 83.1895C80.2462 83.1378 80.1756 83.1094 80.1025 83.1094C79.3955 83.1094 78.8139 82.5715 78.7441 81.8828L78.7373 81.7432L78.7441 81.6035C78.8143 80.9152 79.3958 80.3779 80.1025 80.3779C80.1756 80.3779 80.2462 80.3495 80.2979 80.2979C80.3495 80.2462 80.3779 80.1756 80.3779 80.1025C80.3779 79.3486 80.9893 78.7375 81.7432 78.7373L81.8828 78.7441ZM74.0654 68.9561C74.7302 67.1607 77.2698 67.1607 77.9346 68.9561L79.3145 72.6846L83.0439 74.0654C84.8394 74.7301 84.8394 77.2698 83.0439 77.9346L79.3145 79.3145L77.9346 83.0439C77.2699 84.8395 74.7301 84.8395 74.0654 83.0439L72.6846 79.3145L68.9561 77.9346C67.1607 77.2698 67.1606 74.7301 68.9561 74.0654L72.6846 72.6846L74.0654 68.9561ZM70.3965 67.2568C71.0847 67.327 71.622 67.9085 71.6221 68.6152C71.6221 68.6883 71.6505 68.7589 71.7021 68.8105C71.7538 68.8622 71.8244 68.8906 71.8975 68.8906C72.6515 68.8906 73.2627 69.5028 73.2627 70.2568C73.2625 71.0107 72.6514 71.6221 71.8975 71.6221C71.8244 71.6221 71.7538 71.6505 71.7021 71.7021C71.6505 71.7538 71.6221 71.8244 71.6221 71.8975C71.6221 72.6514 71.0107 73.2625 70.2568 73.2627C69.5028 73.2627 68.8906 72.6515 68.8906 71.8975C68.8906 71.8244 68.8622 71.7538 68.8105 71.7021C68.7589 71.6505 68.6883 71.6221 68.6152 71.6221C67.9085 71.622 67.327 71.0847 67.2568 70.3965L67.25 70.2568L67.2568 70.1172C67.3266 69.4285 67.9082 68.8907 68.6152 68.8906C68.6883 68.8906 68.7589 68.8622 68.8105 68.8105C68.8622 68.7589 68.8906 68.6883 68.8906 68.6152C68.8907 67.8612 69.5028 67.25 70.2568 67.25L70.3965 67.2568Z" fill="#FEE048" stroke="white" stroke-width="1.5" stroke-linecap="round" stroke-linejoin="round"/>
<path d="M81.7432 79.4873C82.083 79.4873 82.3594 79.7627 82.3594 80.1025C82.3594 80.3746 82.4668 80.6358 82.6592 80.8281C82.8515 81.0204 83.1128 81.1279 83.3848 81.1279C83.7244 81.128 83.9998 81.4035 84 81.7432C84 82.083 83.7246 82.3593 83.3848 82.3594C83.1127 82.3594 82.8515 82.4668 82.6592 82.6592C82.4668 82.8515 82.3594 83.1128 82.3594 83.3848C82.3593 83.7246 82.083 84 81.7432 84C81.4035 83.9998 81.128 83.7244 81.1279 83.3848C81.1279 83.1128 81.0204 82.8515 80.8281 82.6592C80.6358 82.4668 80.3746 82.3594 80.1025 82.3594C79.7627 82.3594 79.4873 82.083 79.4873 81.7432C79.4875 81.4035 79.7628 81.1279 80.1025 81.1279C80.3746 81.1279 80.6358 81.0205 80.8281 80.8281C81.0205 80.6358 81.1279 80.3746 81.1279 80.1025C81.1279 79.7628 81.4035 79.4875 81.7432 79.4873Z" fill="#FED601"/>
<path d="M76 68.3594C76.5099 68.3594 77.02 68.6453 77.2314 69.2168L78.7305 73.2695L82.7832 74.7686C83.9262 75.1915 83.9262 76.8085 82.7832 77.2314L78.7305 78.7305L77.2314 82.7832C77.02 83.3547 76.5099 83.6406 76 83.6406V68.3594Z" fill="#FED601"/>
<path d="M40.5472 124H58.0015V177.999H49.5016V169.545C49.5016 167.436 47.7921 165.727 45.6834 165.727H38.0018V126.545C38.0018 125.14 39.1414 124 40.5472 124Z" fill="#157DF5"/>
<path d="M38.0001 165.727H45.6817C47.7904 165.727 49.4999 167.437 49.4999 169.546V178L38.0001 165.727Z" fill="#0965CD"/>
<path d="M78 126.545C78 125.14 76.8604 124 75.4545 124H58.0003V177.999H75.4545C76.8604 177.999 78 176.86 78 175.454V126.545Z" fill="#0965CD"/>
<path d="M67.9987 141.797C67.9987 140.78 67.1745 139.956 66.1578 139.956H57.9988V143.637H66.1578C67.1745 143.637 67.9987 142.813 67.9987 141.797Z" fill="#E2EFFE"/>
<path d="M67.9987 150.385C67.9987 149.368 67.1745 148.544 66.1578 148.544H57.9988V152.226H66.1578C67.1745 152.226 67.9987 151.401 67.9987 150.385Z" fill="#E2EFFE"/>
<path d="M55.4994 133.201C55.4994 132.184 54.6752 131.36 53.6585 131.36H47.3404C46.3237 131.36 45.4995 132.184 45.4995 133.201C45.4995 134.218 46.3237 135.042 47.3404 135.042H53.6585C54.6752 135.042 55.4994 134.218 55.4994 133.201Z" fill="#40D98D"/>
<path d="M55.4994 158.98C55.4994 157.964 54.6752 157.139 53.6585 157.139H47.3404C46.3237 157.139 45.4995 157.964 45.4995 158.98C45.4995 159.997 46.3237 160.821 47.3404 160.821H53.6585C54.6752 160.821 55.4994 159.997 55.4994 158.98Z" fill="white"/>
<path d="M45.5024 141.797C45.5024 140.78 46.3266 139.956 47.3433 139.956H58.0023V143.637H47.3433C46.3266 143.637 45.5024 142.813 45.5024 141.797Z" fill="white"/>
<path d="M45.5024 150.385C45.5024 149.368 46.3266 148.544 47.3433 148.544H58.0023V152.226H47.3433C46.3266 152.226 45.5024 151.401 45.5024 150.385Z" fill="white"/>
<path d="M51.6008 154.738V153.748C51.6008 153.408 51.321 153.133 50.9758 153.133H48.9084C48.5632 153.133 48.2834 153.408 48.2834 153.748V154.738C46.5458 155.512 42.7012 157.886 42.7012 161.848C42.7012 165.232 45.8141 167.783 49.9421 167.783C54.0701 167.783 57.183 165.232 57.183 161.848C57.183 157.886 53.3384 155.512 51.6008 154.738Z" fill="#FF7E75"/>
<path d="M32.6624 156.533L32.2302 155.505C31.7643 154.396 31.6027 153.086 32.2056 152.1C32.2464 152.034 32.2968 151.973 32.3549 151.921C33.3358 151.039 34.4654 151.583 34.9205 152.097C35.2953 152.522 35.2009 153.177 35.0642 153.723C34.9816 154.053 35.0037 154.407 35.1426 154.738L35.5749 155.766L32.6624 156.533Z" fill="#25BB71"/>
<path d="M42.1372 157.614C41.925 156.603 41.2853 155.714 40.3823 155.177C39.4793 154.64 38.3777 154.492 37.3599 154.771C37.031 154.862 36.7215 154.992 36.434 155.16C35.403 154.777 34.2657 154.788 33.2258 155.205C32.1858 155.622 31.369 156.395 30.9107 157.375C30.5853 157.452 30.2716 157.573 29.9727 157.734C29.0473 158.234 28.3698 159.095 28.114 160.097C27.8581 161.099 28.0423 162.17 28.6192 163.036L33.1538 169.839L43.8061 165.567L42.1372 157.614Z" fill="#40D98D"/>
<path d="M45.7566 148C44.6712 148 43.6917 148.449 43.0001 149.165L42.265 150.974L43.0001 157.01H44.6588V153.712H45.279C47.3689 153.712 48.4442 152.051 48.4442 150.01V148H45.7566Z" fill="#40D98D"/>
<path d="M40.2434 148H37.5558V150.625C37.5558 152.666 38.6311 153.712 40.721 153.712H41.3412V157.01H42.9999V149.165C42.3083 148.449 41.3288 148 40.2434 148Z" fill="#40D98D"/>
<path d="M45.9822 156.55C45.2143 155.744 44.1274 155.281 43.0001 155.281L42.265 163.179L43.0001 171.659H46.1671L47.0627 159.546C47.1439 158.448 46.75 157.356 45.9822 156.55Z" fill="#F54B5E"/>
<path d="M40.0176 156.55C39.2497 157.356 38.8559 158.448 38.9371 159.546L39.8328 171.66H42.9997V155.281C41.8724 155.281 40.7855 155.744 40.0176 156.55Z" fill="#F54B5E"/>
<path d="M56.1251 169.537C56.1251 169.197 55.8496 168.922 55.5097 168.922H29.8751V176.306H55.5097C55.8496 176.306 56.1251 176.031 56.1251 175.691V169.537Z" fill="#0965CD"/>
<path d="M43 169.615C43 169.276 42.7245 169 42.3846 169H30V176H42.3846C42.7245 176 43 175.724 43 175.385V169.615Z" fill="#157DF5"/>
<path d="M28.0001 165.848C28.0001 165.168 28.5598 164.617 29.2501 164.617H43.0001V170.242H29.2501C28.5598 170.242 28.0001 169.691 28.0001 169.011V165.848Z" fill="#E2EFFE"/>
<path d="M58.0001 165.848C58.0001 165.168 57.4405 164.617 56.7501 164.617H43.0001V170.242H56.7501C57.4405 170.242 58.0001 169.691 58.0001 169.011V165.848Z" fill="#B6D7FC"/>
<path d="M56.7501 180C57.4405 180 58.0001 179.449 58.0001 178.769V175.606C58.0001 174.926 57.4405 174.375 56.7501 174.375H43.0001L42.265 176.41L43.0001 180H56.7501Z" fill="#B6D7FC"/>
<path d="M28 175.606C28 174.926 28.5596 174.375 29.25 174.375H43V180H29.25C28.5596 180 28 179.449 28 178.769V175.606Z" fill="#E2EFFE"/>
<path d="M81.8828 174.744C82.5715 174.814 83.1094 175.395 83.1094 176.103C83.1094 176.176 83.1378 176.246 83.1895 176.298C83.2411 176.35 83.3117 176.378 83.3848 176.378C84.1386 176.378 84.7498 176.989 84.75 177.743C84.75 178.497 84.1388 179.109 83.3848 179.109C83.3117 179.109 83.2411 179.138 83.1895 179.189C83.1378 179.241 83.1094 179.312 83.1094 179.385C83.1093 180.139 82.4972 180.75 81.7432 180.75C80.9893 180.75 80.378 180.139 80.3779 179.385C80.3779 179.312 80.3495 179.241 80.2979 179.189C80.2462 179.138 80.1756 179.109 80.1025 179.109C79.3955 179.109 78.8139 178.571 78.7441 177.883L78.7373 177.743L78.7441 177.604C78.8143 176.915 79.3958 176.378 80.1025 176.378C80.1756 176.378 80.2462 176.35 80.2979 176.298C80.3495 176.246 80.3779 176.176 80.3779 176.103C80.3779 175.349 80.9893 174.738 81.7432 174.737L81.8828 174.744ZM74.0654 164.956C74.7302 163.161 77.2698 163.161 77.9346 164.956L79.3145 168.685L83.0439 170.065C84.8394 170.73 84.8394 173.27 83.0439 173.935L79.3145 175.314L77.9346 179.044C77.2699 180.839 74.7301 180.839 74.0654 179.044L72.6846 175.314L68.9561 173.935C67.1607 173.27 67.1606 170.73 68.9561 170.065L72.6846 168.685L74.0654 164.956ZM70.3965 163.257C71.0847 163.327 71.622 163.909 71.6221 164.615C71.6221 164.688 71.6505 164.759 71.7021 164.811C71.7538 164.862 71.8244 164.891 71.8975 164.891C72.6515 164.891 73.2627 165.503 73.2627 166.257C73.2625 167.011 72.6514 167.622 71.8975 167.622C71.8244 167.622 71.7538 167.65 71.7021 167.702C71.6505 167.754 71.6221 167.824 71.6221 167.897C71.6221 168.651 71.0107 169.262 70.2568 169.263C69.5028 169.263 68.8906 168.652 68.8906 167.897C68.8906 167.824 68.8622 167.754 68.8105 167.702C68.7589 167.65 68.6883 167.622 68.6152 167.622C67.9085 167.622 67.327 167.085 67.2568 166.396L67.25 166.257L67.2568 166.117C67.3266 165.429 67.9082 164.891 68.6152 164.891C68.6883 164.891 68.7589 164.862 68.8105 164.811C68.8622 164.759 68.8906 164.688 68.8906 164.615C68.8907 163.861 69.5028 163.25 70.2568 163.25L70.3965 163.257Z" fill="#FEE048" stroke="white" stroke-width="1.5" stroke-linecap="round" stroke-linejoin="round"/>
<path d="M81.7432 175.487C82.083 175.487 82.3594 175.763 82.3594 176.103C82.3594 176.375 82.4668 176.636 82.6592 176.828C82.8515 177.02 83.1128 177.128 83.3848 177.128C83.7244 177.128 83.9998 177.404 84 177.743C84 178.083 83.7246 178.359 83.3848 178.359C83.1127 178.359 82.8515 178.467 82.6592 178.659C82.4668 178.852 82.3594 179.113 82.3594 179.385C82.3593 179.725 82.083 180 81.7432 180C81.4035 180 81.128 179.724 81.1279 179.385C81.1279 179.113 81.0204 178.852 80.8281 178.659C80.6358 178.467 80.3746 178.359 80.1025 178.359C79.7627 178.359 79.4873 178.083 79.4873 177.743C79.4875 177.404 79.7628 177.128 80.1025 177.128C80.3746 177.128 80.6358 177.02 80.8281 176.828C81.0205 176.636 81.1279 176.375 81.1279 176.103C81.1279 175.763 81.4035 175.488 81.7432 175.487Z" fill="#FED601"/>
<path d="M76 164.359C76.5099 164.359 77.02 164.645 77.2314 165.217L78.7305 169.27L82.7832 170.769C83.9262 171.191 83.9262 172.809 82.7832 173.231L78.7305 174.73L77.2314 178.783C77.02 179.355 76.5099 179.641 76 179.641V164.359Z" fill="#FED601"/>
<defs>
<filter id="filter0_dd_48681_11487" x="6" y="9" width="100" height="100" filterUnits="userSpaceOnUse" color-interpolation-filters="sRGB">
<feFlood flood-opacity="0" result="BackgroundImageFix"/>
<feColorMatrix in="SourceAlpha" type="matrix" values="0 0 0 0 0 0 0 0 0 0 0 0 0 0 0 0 0 0 127 0" result="hardAlpha"/>
<feOffset dy="3"/>
<feGaussianBlur stdDeviation="5"/>
<feColorMatrix type="matrix" values="0 0 0 0 0.516667 0 0 0 0 0.578358 0 0 0 0 0.775 0 0 0 0.12 0"/>
<feBlend mode="normal" in2="BackgroundImageFix" result="effect1_dropShadow_48681_11487"/>
<feColorMatrix in="SourceAlpha" type="matrix" values="0 0 0 0 0 0 0 0 0 0 0 0 0 0 0 0 0 0 127 0" result="hardAlpha"/>
<feOffset dy="1"/>
<feGaussianBlur stdDeviation="3"/>
<feColorMatrix type="matrix" values="0 0 0 0 0.709809 0 0 0 0 0.788943 0 0 0 0 0.920833 0 0 0 0.15 0"/>
<feBlend mode="normal" in2="effect1_dropShadow_48681_11487" result="effect2_dropShadow_48681_11487"/>
<feBlend mode="normal" in="SourceGraphic" in2="effect2_dropShadow_48681_11487" result="shape"/>
</filter>
</defs>
</svg>
