<svg width="255" height="80" viewBox="0 0 255 80" fill="none" xmlns="http://www.w3.org/2000/svg">
<path d="M0 80H80V2.38419e-05H0V80ZM94.1406 17.525V74.4H86.6016V17.525H94.1406ZM117.969 43.111V49.2828H92.5V43.111H117.969ZM121.836 17.525V23.6969H92.5V17.525H121.836ZM126.953 53.736V52.8375C126.953 49.7906 127.396 46.9651 128.281 44.361C129.167 41.7308 130.443 39.4521 132.109 37.525C133.776 35.5719 135.794 34.0615 138.164 32.9938C140.534 31.9 143.19 31.3531 146.133 31.3531C149.102 31.3531 151.771 31.9 154.141 32.9938C156.536 34.0615 158.568 35.5719 160.234 37.525C161.927 39.4521 163.216 41.7308 164.102 44.361C164.987 46.9651 165.43 49.7906 165.43 52.8375V53.736C165.43 56.7828 164.987 59.6084 164.102 62.2125C163.216 64.8167 161.927 67.0953 160.234 69.0485C158.568 70.9755 156.549 72.486 154.18 73.5797C151.836 74.6474 149.18 75.1813 146.211 75.1813C143.242 75.1813 140.573 74.6474 138.203 73.5797C135.833 72.486 133.802 70.9755 132.109 69.0485C130.443 67.0953 129.167 64.8167 128.281 62.2125C127.396 59.6084 126.953 56.7828 126.953 53.736ZM134.18 52.8375V53.736C134.18 55.8453 134.427 57.8375 134.922 59.7125C135.417 61.5615 136.159 63.2021 137.148 64.6344C138.164 66.0667 139.427 67.1995 140.938 68.0328C142.448 68.8401 144.206 69.2438 146.211 69.2438C148.19 69.2438 149.922 68.8401 151.406 68.0328C152.917 67.1995 154.167 66.0667 155.156 64.6344C156.146 63.2021 156.888 61.5615 157.383 59.7125C157.904 57.8375 158.164 55.8453 158.164 53.736V52.8375C158.164 50.7542 157.904 48.788 157.383 46.9391C156.888 45.0641 156.133 43.4104 155.117 41.9781C154.128 40.5198 152.878 39.374 151.367 38.5406C149.883 37.7073 148.138 37.2906 146.133 37.2906C144.154 37.2906 142.409 37.7073 140.898 38.5406C139.414 39.374 138.164 40.5198 137.148 41.9781C136.159 43.4104 135.417 45.0641 134.922 46.9391C134.427 48.788 134.18 50.7542 134.18 52.8375ZM172.578 53.736V52.8375C172.578 49.7906 173.021 46.9651 173.906 44.361C174.792 41.7308 176.068 39.4521 177.734 37.525C179.401 35.5719 181.419 34.0615 183.789 32.9938C186.159 31.9 188.815 31.3531 191.758 31.3531C194.727 31.3531 197.396 31.9 199.766 32.9938C202.161 34.0615 204.193 35.5719 205.859 37.525C207.552 39.4521 208.841 41.7308 209.727 44.361C210.612 46.9651 211.055 49.7906 211.055 52.8375V53.736C211.055 56.7828 210.612 59.6084 209.727 62.2125C208.841 64.8167 207.552 67.0953 205.859 69.0485C204.193 70.9755 202.174 72.486 199.805 73.5797C197.461 74.6474 194.805 75.1813 191.836 75.1813C188.867 75.1813 186.198 74.6474 183.828 73.5797C181.458 72.486 179.427 70.9755 177.734 69.0485C176.068 67.0953 174.792 64.8167 173.906 62.2125C173.021 59.6084 172.578 56.7828 172.578 53.736ZM179.805 52.8375V53.736C179.805 55.8453 180.052 57.8375 180.547 59.7125C181.042 61.5615 181.784 63.2021 182.773 64.6344C183.789 66.0667 185.052 67.1995 186.562 68.0328C188.073 68.8401 189.831 69.2438 191.836 69.2438C193.815 69.2438 195.547 68.8401 197.031 68.0328C198.542 67.1995 199.792 66.0667 200.781 64.6344C201.771 63.2021 202.513 61.5615 203.008 59.7125C203.529 57.8375 203.789 55.8453 203.789 53.736V52.8375C203.789 50.7542 203.529 48.788 203.008 46.9391C202.513 45.0641 201.758 43.4104 200.742 41.9781C199.753 40.5198 198.503 39.374 196.992 38.5406C195.508 37.7073 193.763 37.2906 191.758 37.2906C189.779 37.2906 188.034 37.7073 186.523 38.5406C185.039 39.374 183.789 40.5198 182.773 41.9781C181.784 43.4104 181.042 45.0641 180.547 46.9391C180.052 48.788 179.805 50.7542 179.805 52.8375ZM246.758 66.1969V14.4H254.023V74.4H247.383L246.758 66.1969ZM218.32 53.736V52.9156C218.32 49.6865 218.711 46.7568 219.492 44.1266C220.299 41.4703 221.432 39.1917 222.891 37.2906C224.375 35.3896 226.133 33.9313 228.164 32.9156C230.221 31.874 232.513 31.3531 235.039 31.3531C237.695 31.3531 240.013 31.8219 241.992 32.7594C243.997 33.6709 245.69 35.012 247.07 36.7828C248.477 38.5276 249.583 40.637 250.391 43.111C251.198 45.5849 251.758 48.3844 252.07 51.5094V55.1031C251.784 58.2021 251.224 60.9886 250.391 63.4625C249.583 65.9365 248.477 68.0459 247.07 69.7906C245.69 71.5354 243.997 72.8766 241.992 73.8141C239.987 74.7255 237.643 75.1813 234.961 75.1813C232.487 75.1813 230.221 74.6474 228.164 73.5797C226.133 72.512 224.375 71.0146 222.891 69.0875C221.432 67.1604 220.299 64.8948 219.492 62.2906C218.711 59.6604 218.32 56.8089 218.32 53.736ZM225.586 52.9156V53.736C225.586 55.8453 225.794 57.8245 226.211 59.6735C226.654 61.5224 227.331 63.15 228.242 64.5563C229.154 65.9625 230.312 67.0693 231.719 67.8766C233.125 68.6578 234.805 69.0485 236.758 69.0485C239.154 69.0485 241.12 68.5406 242.656 67.525C244.219 66.5094 245.469 65.1683 246.406 63.5016C247.344 61.8349 248.073 60.025 248.594 58.0719V48.6578C248.281 47.2255 247.826 45.8453 247.227 44.5172C246.654 43.163 245.898 41.9651 244.961 40.9235C244.049 39.8558 242.917 39.0094 241.562 38.3844C240.234 37.7594 238.659 37.4469 236.836 37.4469C234.857 37.4469 233.151 37.8636 231.719 38.6969C230.312 39.5042 229.154 40.624 228.242 42.0563C227.331 43.4625 226.654 45.1031 226.211 46.9781C225.794 48.8271 225.586 50.8063 225.586 52.9156Z" fill="black"/>
</svg>
