<svg width="112" height="208" viewBox="0 0 112 208" fill="none" xmlns="http://www.w3.org/2000/svg">
<rect x="0.5" y="0.5" width="111" height="207" rx="4.5" stroke="#9747FF" stroke-dasharray="10 5"/>
<g filter="url(#filter0_dd_41306_74559)">
<rect x="16" y="16" width="80" height="80" rx="8" fill="white"/>
</g>
<path d="M73.1354 77.0269H33.1484V44.3776L53.1417 30.4375L73.1354 44.3776V77.0269Z" fill="#E2EFFE"/>
<path d="M72.9879 44.3776L52.9941 30.4375V77.0269H72.9879V44.3776Z" fill="#B6D7FC"/>
<path d="M31.1873 49.9246C30.3466 50.5888 29.1246 50.4591 28.4442 49.6334C27.7502 48.7911 27.8843 47.5477 28.7421 46.8705L50.0961 30.0123C51.7961 28.6702 54.2013 28.6618 55.9109 29.992L77.2469 46.5942C78.1069 47.2634 78.2521 48.5008 77.57 49.3484C76.8974 50.1844 75.6725 50.3264 74.8241 49.6667L55.9118 34.9617C54.2017 33.6321 51.7965 33.6414 50.0969 34.9842L31.1873 49.9246Z" fill="#0965CD"/>
<path d="M43.7051 53.7031H62.2875V76.8601H43.7051V53.7031Z" fill="#F0F7FE"/>
<path d="M52.9941 53.7031H62.2853V76.8601H52.9941V53.7031Z" fill="#E2EFFE"/>
<path d="M43.8017 52.1016C42.5057 52.1016 41.4551 53.1522 41.4551 54.4482V78.9823H64.5368V54.4482C64.5368 53.1522 63.4862 52.1016 62.1902 52.1016H43.8017ZM50.4743 65.5819L45.4136 71.7059V59.4954L50.4743 65.5819ZM47.6031 55.9853H58.4047L52.9957 62.5002L47.6031 55.9853ZM52.9957 68.6556L58.3882 75.0981H47.7058L52.9957 68.6556ZM55.5769 65.5738L60.5783 59.5222V71.588L55.5769 65.5738Z" fill="#157DF5"/>
<path d="M64.5352 54.4482C64.5352 53.1522 63.4846 52.1016 62.1886 52.1016H52.9941V55.9853H58.4032L52.9941 62.5002V68.6556L58.3867 75.0981H52.9941V78.9823H64.5352V54.4482ZM60.5767 71.588L55.5753 65.5738L60.5767 59.5222V71.588Z" fill="#0965CD"/>
<path d="M29.6348 76.9978C29.6348 75.8944 30.5292 75 31.6326 75H74.8519C75.9553 75 76.8497 75.8944 76.8497 76.9978C76.8497 78.1012 75.9553 78.9956 74.8519 78.9956H31.6326C30.5292 78.9956 29.6348 78.1012 29.6348 76.9978Z" fill="#40D98D"/>
<path d="M52.9941 75H74.8505C75.9539 75 76.8483 75.8944 76.8483 76.9978C76.8483 78.1012 75.9539 78.9956 74.8505 78.9956H52.9941V75Z" fill="#25BB71"/>
<path d="M52.995 29C51.9691 29.0046 50.9447 29.3423 50.0961 30.0123L28.7421 46.8705C27.8843 47.5477 27.7502 48.7911 28.4442 49.6333C29.1246 50.459 30.3466 50.5887 31.1873 49.9245L50.0969 34.9842C50.9452 34.3139 51.9693 33.9759 52.995 33.9708V29Z" fill="#157DF5"/>
<path d="M49.5859 44.909C49.5859 43.0263 51.1122 41.5 52.995 41.5V48.3181H50.7223C50.0947 48.3181 49.5859 47.8093 49.5859 47.1817V44.909Z" fill="#157DF5"/>
<path d="M52.9941 41.5C54.8769 41.5 56.4032 43.0263 56.4032 44.909V47.1817C56.4032 47.8093 55.8945 48.3181 55.2669 48.3181H52.9941V41.5Z" fill="#0965CD"/>
<path fill-rule="evenodd" clip-rule="evenodd" d="M68.7093 51.8367C69.4495 52.5802 70.4567 53.0008 71.5102 53.0008C72.5636 53.0008 73.5708 52.5802 74.311 51.8367L80.4674 45.6507L80.5103 45.604C81.0239 45.0464 81.3661 44.3543 81.4985 43.6104C81.6309 42.8666 81.5485 42.1 81.2603 41.4009C80.9721 40.7017 80.4895 40.0977 79.8674 39.6623C79.2451 39.2267 78.51 38.9785 77.7491 38.9489L77.6853 38.9464L77.3579 38.9464C76.3433 35.7735 74.518 33.0573 71.8408 31.3231C68.3347 29.0519 63.9702 28.8533 59.4823 30.6374L59.448 30.6511L59.4139 30.6655C58.6044 31.0087 57.9345 31.6107 57.5064 32.3739C57.0785 33.1369 56.9156 34.0193 57.0413 34.8835C57.1672 35.7477 57.5753 36.5482 58.205 37.1582C58.8349 37.7685 59.6511 38.1535 60.5262 38.2495L60.563 38.2535L60.5999 38.2567C61.0747 38.298 62.1435 38.7218 63.2231 39.6078C63.2061 39.6191 63.1892 39.6305 63.1724 39.6421C62.5377 40.0782 62.0453 40.6889 61.753 41.398C61.4608 42.1069 61.3805 42.8851 61.5213 43.6382C61.6621 44.3913 62.0184 45.089 62.549 45.6454L62.5731 45.6708L68.7093 51.8367ZM68.254 41.7565C68.1907 40.8109 67.7556 39.8435 67.1005 38.9464C66.2948 37.843 65.1563 36.8461 63.9674 36.127C63.7016 35.9662 63.4333 35.8193 63.1656 35.6882C62.5141 35.3692 61.8665 35.1438 61.2681 35.0396C61.2553 35.0374 61.2426 35.0352 61.2298 35.0331C61.1124 35.0136 60.997 34.9989 60.8838 34.989C60.7347 34.9727 60.5952 34.907 60.4872 34.8024C60.3792 34.6978 60.3088 34.5601 60.2871 34.411C60.2654 34.2618 60.2936 34.1097 60.3672 33.9783C60.4409 33.847 60.5558 33.744 60.6941 33.6854C60.799 33.6437 60.9035 33.6034 61.0076 33.5645C61.0189 33.5603 61.0302 33.556 61.0415 33.5519C61.3691 33.4303 61.6928 33.3225 62.0122 33.2283C62.4042 33.1127 62.7899 33.0174 63.1688 32.9418C63.6626 32.8434 64.145 32.7785 64.6152 32.7458C69.9504 32.3749 73.7146 36.1483 74.7579 42.088C74.7659 42.134 74.7739 42.1801 74.7816 42.2264L77.6214 42.2264C77.7523 42.2315 77.879 42.2742 77.9865 42.3494C78.094 42.4247 78.1777 42.5293 78.2279 42.6509C78.278 42.7725 78.2924 42.906 78.2693 43.0355C78.2462 43.1651 78.1867 43.2853 78.0977 43.3819L71.9865 49.5226C71.8601 49.6495 71.6888 49.7208 71.5102 49.7208C71.3315 49.7208 71.1602 49.6495 71.0339 49.5226L64.9227 43.3819C64.8314 43.2862 64.7698 43.1658 64.7455 43.0354C64.7211 42.9051 64.735 42.7705 64.7855 42.6479C64.836 42.5254 64.9209 42.4203 65.0299 42.3455C65.1388 42.2706 65.2671 42.2292 65.399 42.2264L68.254 42.2264C68.2572 42.1797 68.2595 42.133 68.2607 42.0862C68.2637 41.9767 68.2614 41.8667 68.254 41.7565Z" fill="white"/>
<path d="M71.0332 49.5206L64.922 43.3799C64.8307 43.2841 64.7691 43.1637 64.7448 43.0334C64.7204 42.9031 64.7343 42.7684 64.7848 42.6459C64.8353 42.5234 64.9202 42.4183 65.0292 42.3434C65.1381 42.2686 65.2664 42.2272 65.3983 42.2244L68.2533 42.2244C68.4789 38.9616 63.877 35.2472 60.8831 34.987C60.734 34.9707 60.5945 34.905 60.4865 34.8004C60.3785 34.6958 60.3081 34.5581 60.2864 34.409C60.2647 34.2598 60.2929 34.1076 60.3665 33.9763C60.4402 33.845 60.5551 33.742 60.6933 33.6834C68.1184 30.7316 73.5416 34.8296 74.7809 42.2244L77.6207 42.2244C77.7516 42.2295 77.8783 42.2722 77.9858 42.3474C78.0933 42.4226 78.177 42.5273 78.2272 42.6489C78.2773 42.7705 78.2917 42.904 78.2686 43.0335C78.2455 43.1631 78.186 43.2833 78.097 43.3799L71.9858 49.5206C71.8594 49.6475 71.6881 49.7187 71.5095 49.7187C71.3308 49.7187 71.1595 49.6475 71.0332 49.5206Z" fill="#40D98D"/>
<path fill-rule="evenodd" clip-rule="evenodd" d="M50.8755 70.8078C50.9535 70.9375 51.0291 71.069 51.1022 71.2019C51.1579 70.7738 51.2359 70.3384 51.335 69.8993C51.5214 69.0723 51.7823 68.2323 52.1089 67.4045C53.8337 63.033 57.3913 59 61.5 59C67.299 59 72 67.0336 72 72.7143C72 78.3949 67.299 83 61.5 83C58.8212 83 56.3767 82.0173 54.5217 80.3999C54.0076 79.9517 53.5388 79.4547 53.1228 78.9164C52.8266 78.533 52.5572 78.1287 52.3173 77.7061C52.2191 78.1188 52.0828 78.5171 51.9123 78.8974C51.6132 79.5646 51.2087 80.1763 50.7194 80.7122C49.4376 82.1163 47.5742 83 45.5 83C41.634 83 38.5 79.93 38.5 76.1429C38.5 72.3558 41.634 67 45.5 67C46.6403 67 47.717 67.466 48.6683 68.2202C49.5189 68.8946 50.2693 69.7995 50.8755 70.8078ZM49.7439 65.3009C50.4099 63.8374 51.2465 62.4374 52.2181 61.1942C54.3464 58.471 57.543 56 61.5 56C65.8222 56 69.236 58.9358 71.3835 62.0082C73.5739 65.1419 75 69.1591 75 72.7143C75 80.1098 68.8972 86 61.5 86C58.1945 86 55.157 84.8286 52.8036 82.8764C50.9715 84.8059 48.3672 86 45.5 86C40.0358 86 35.5 81.6448 35.5 76.1429C35.5 73.5345 36.5344 70.6601 38.0914 68.4326C39.6055 66.2663 42.1442 64 45.5 64C47.1069 64 48.5267 64.5134 49.7439 65.3009Z" fill="white"/>
<path d="M38.5 76.1429C38.5 79.93 41.634 83 45.5 83C49.366 83 52.5 79.93 52.5 76.1429C52.5 72.3558 49.366 67 45.5 67C41.634 67 38.5 72.3558 38.5 76.1429Z" fill="#FFDECC"/>
<path d="M51 72.7143C51 78.3949 55.701 83 61.5 83C67.299 83 72 78.3949 72 72.7143C72 67.0336 67.299 59 61.5 59C55.701 59 51 67.0336 51 72.7143Z" fill="#FFA099"/>
<path d="M73.1354 173.027H33.1484V140.378L53.1417 126.438L73.1354 140.378V173.027Z" fill="#E2EFFE"/>
<path d="M72.9879 140.378L52.9941 126.438V173.027H72.9879V140.378Z" fill="#B6D7FC"/>
<path d="M31.1873 145.925C30.3466 146.589 29.1246 146.459 28.4442 145.633C27.7502 144.791 27.8843 143.548 28.7421 142.871L50.0961 126.012C51.7961 124.67 54.2013 124.662 55.9109 125.992L77.2469 142.594C78.1069 143.263 78.2521 144.501 77.57 145.348C76.8974 146.184 75.6725 146.326 74.8241 145.667L55.9118 130.962C54.2017 129.632 51.7965 129.641 50.0969 130.984L31.1873 145.925Z" fill="#0965CD"/>
<path d="M43.7051 149.703H62.2875V172.86H43.7051V149.703Z" fill="#F0F7FE"/>
<path d="M52.9941 149.703H62.2853V172.86H52.9941V149.703Z" fill="#E2EFFE"/>
<path d="M43.8017 148.102C42.5057 148.102 41.4551 149.152 41.4551 150.448V174.982H64.5368V150.448C64.5368 149.152 63.4862 148.102 62.1902 148.102H43.8017ZM50.4743 161.582L45.4136 167.706V155.495L50.4743 161.582ZM47.6031 151.985H58.4047L52.9957 158.5L47.6031 151.985ZM52.9957 164.656L58.3882 171.098H47.7058L52.9957 164.656ZM55.5769 161.574L60.5783 155.522V167.588L55.5769 161.574Z" fill="#157DF5"/>
<path d="M64.5352 150.448C64.5352 149.152 63.4846 148.102 62.1886 148.102H52.9941V151.985H58.4032L52.9941 158.5V164.656L58.3867 171.098H52.9941V174.982H64.5352V150.448ZM60.5767 167.588L55.5753 161.574L60.5767 155.522V167.588Z" fill="#0965CD"/>
<path d="M29.6348 172.998C29.6348 171.894 30.5292 171 31.6326 171H74.8519C75.9553 171 76.8497 171.894 76.8497 172.998C76.8497 174.101 75.9553 174.996 74.8519 174.996H31.6326C30.5292 174.996 29.6348 174.101 29.6348 172.998Z" fill="#40D98D"/>
<path d="M52.9941 171H74.8505C75.9539 171 76.8483 171.894 76.8483 172.998C76.8483 174.101 75.9539 174.996 74.8505 174.996H52.9941V171Z" fill="#25BB71"/>
<path d="M52.995 125C51.9691 125.005 50.9447 125.342 50.0961 126.012L28.7421 142.87C27.8843 143.548 27.7502 144.791 28.4442 145.633C29.1246 146.459 30.3466 146.589 31.1873 145.925L50.0969 130.984C50.9452 130.314 51.9693 129.976 52.995 129.971V125Z" fill="#157DF5"/>
<path d="M49.5859 140.909C49.5859 139.026 51.1122 137.5 52.995 137.5V144.318H50.7223C50.0947 144.318 49.5859 143.809 49.5859 143.182V140.909Z" fill="#157DF5"/>
<path d="M52.9941 137.5C54.8769 137.5 56.4032 139.026 56.4032 140.909V143.182C56.4032 143.809 55.8945 144.318 55.2669 144.318H52.9941V137.5Z" fill="#0965CD"/>
<path fill-rule="evenodd" clip-rule="evenodd" d="M68.7093 147.837C69.4495 148.58 70.4567 149.001 71.5102 149.001C72.5636 149.001 73.5708 148.58 74.311 147.837L80.4674 141.651L80.5103 141.604C81.0239 141.046 81.3661 140.354 81.4985 139.61C81.6309 138.867 81.5485 138.1 81.2603 137.401C80.9721 136.702 80.4895 136.098 79.8674 135.662C79.2451 135.227 78.51 134.979 77.7491 134.949L77.6853 134.946L77.3579 134.946C76.3433 131.773 74.518 129.057 71.8408 127.323C68.3347 125.052 63.9702 124.853 59.4823 126.637L59.448 126.651L59.4139 126.666C58.6044 127.009 57.9345 127.611 57.5064 128.374C57.0785 129.137 56.9156 130.019 57.0413 130.883C57.1672 131.748 57.5753 132.548 58.205 133.158C58.8349 133.769 59.6511 134.153 60.5262 134.249L60.563 134.254L60.5999 134.257C61.0747 134.298 62.1435 134.722 63.2231 135.608C63.2061 135.619 63.1892 135.631 63.1724 135.642C62.5377 136.078 62.0453 136.689 61.753 137.398C61.4608 138.107 61.3805 138.885 61.5213 139.638C61.6621 140.391 62.0184 141.089 62.549 141.645L62.5731 141.671L68.7093 147.837ZM68.254 137.756C68.1907 136.811 67.7556 135.843 67.1005 134.946C66.2948 133.843 65.1563 132.846 63.9674 132.127C63.7016 131.966 63.4333 131.819 63.1656 131.688C62.5141 131.369 61.8665 131.144 61.2681 131.04C61.2553 131.037 61.2426 131.035 61.2298 131.033C61.1124 131.014 60.997 130.999 60.8838 130.989C60.7347 130.973 60.5952 130.907 60.4872 130.802C60.3792 130.698 60.3088 130.56 60.2871 130.411C60.2654 130.262 60.2936 130.11 60.3672 129.978C60.4409 129.847 60.5558 129.744 60.6941 129.685C60.799 129.644 60.9035 129.603 61.0076 129.564C61.0189 129.56 61.0302 129.556 61.0415 129.552C61.3691 129.43 61.6928 129.323 62.0122 129.228C62.4042 129.113 62.7899 129.017 63.1688 128.942C63.6626 128.843 64.145 128.779 64.6152 128.746C69.9504 128.375 73.7146 132.148 74.7579 138.088C74.7659 138.134 74.7739 138.18 74.7816 138.226L77.6214 138.226C77.7523 138.231 77.879 138.274 77.9865 138.349C78.094 138.425 78.1777 138.529 78.2279 138.651C78.278 138.772 78.2924 138.906 78.2693 139.036C78.2462 139.165 78.1867 139.285 78.0977 139.382L71.9865 145.523C71.8601 145.649 71.6888 145.721 71.5102 145.721C71.3315 145.721 71.1602 145.649 71.0339 145.523L64.9227 139.382C64.8314 139.286 64.7698 139.166 64.7455 139.035C64.7211 138.905 64.735 138.77 64.7855 138.648C64.836 138.525 64.9209 138.42 65.0299 138.345C65.1388 138.271 65.2671 138.229 65.399 138.226L68.254 138.226C68.2572 138.18 68.2595 138.133 68.2607 138.086C68.2637 137.977 68.2614 137.867 68.254 137.756Z" fill="white"/>
<path d="M71.0332 145.521L64.922 139.38C64.8307 139.284 64.7691 139.164 64.7448 139.033C64.7204 138.903 64.7343 138.768 64.7848 138.646C64.8353 138.523 64.9202 138.418 65.0292 138.343C65.1381 138.269 65.2664 138.227 65.3983 138.224L68.2533 138.224C68.4789 134.962 63.877 131.247 60.8831 130.987C60.734 130.971 60.5945 130.905 60.4865 130.8C60.3785 130.696 60.3081 130.558 60.2864 130.409C60.2647 130.26 60.2929 130.108 60.3665 129.976C60.4402 129.845 60.5551 129.742 60.6933 129.683C68.1184 126.732 73.5416 130.83 74.7809 138.224L77.6207 138.224C77.7516 138.229 77.8783 138.272 77.9858 138.347C78.0933 138.423 78.177 138.527 78.2272 138.649C78.2773 138.77 78.2917 138.904 78.2686 139.034C78.2455 139.163 78.186 139.283 78.097 139.38L71.9858 145.521C71.8594 145.647 71.6881 145.719 71.5095 145.719C71.3308 145.719 71.1595 145.647 71.0332 145.521Z" fill="#40D98D"/>
<path fill-rule="evenodd" clip-rule="evenodd" d="M50.8755 166.808C50.9535 166.938 51.0291 167.069 51.1022 167.202C51.1579 166.774 51.2359 166.338 51.335 165.899C51.5214 165.072 51.7823 164.232 52.1089 163.404C53.8337 159.033 57.3913 155 61.5 155C67.299 155 72 163.034 72 168.714C72 174.395 67.299 179 61.5 179C58.8212 179 56.3767 178.017 54.5217 176.4C54.0076 175.952 53.5388 175.455 53.1228 174.916C52.8266 174.533 52.5572 174.129 52.3173 173.706C52.2191 174.119 52.0828 174.517 51.9123 174.897C51.6132 175.565 51.2087 176.176 50.7194 176.712C49.4376 178.116 47.5742 179 45.5 179C41.634 179 38.5 175.93 38.5 172.143C38.5 168.356 41.634 163 45.5 163C46.6403 163 47.717 163.466 48.6683 164.22C49.5189 164.895 50.2693 165.799 50.8755 166.808ZM49.7439 161.301C50.4099 159.837 51.2465 158.437 52.2181 157.194C54.3464 154.471 57.543 152 61.5 152C65.8222 152 69.236 154.936 71.3835 158.008C73.5739 161.142 75 165.159 75 168.714C75 176.11 68.8972 182 61.5 182C58.1945 182 55.157 180.829 52.8036 178.876C50.9715 180.806 48.3672 182 45.5 182C40.0358 182 35.5 177.645 35.5 172.143C35.5 169.534 36.5344 166.66 38.0914 164.433C39.6055 162.266 42.1442 160 45.5 160C47.1069 160 48.5267 160.513 49.7439 161.301Z" fill="white"/>
<path d="M38.5 172.143C38.5 175.93 41.634 179 45.5 179C49.366 179 52.5 175.93 52.5 172.143C52.5 168.356 49.366 163 45.5 163C41.634 163 38.5 168.356 38.5 172.143Z" fill="#FFDECC"/>
<path d="M51 168.714C51 174.395 55.701 179 61.5 179C67.299 179 72 174.395 72 168.714C72 163.034 67.299 155 61.5 155C55.701 155 51 163.034 51 168.714Z" fill="#FFA099"/>
<defs>
<filter id="filter0_dd_41306_74559" x="6" y="9" width="100" height="100" filterUnits="userSpaceOnUse" color-interpolation-filters="sRGB">
<feFlood flood-opacity="0" result="BackgroundImageFix"/>
<feColorMatrix in="SourceAlpha" type="matrix" values="0 0 0 0 0 0 0 0 0 0 0 0 0 0 0 0 0 0 127 0" result="hardAlpha"/>
<feOffset dy="3"/>
<feGaussianBlur stdDeviation="5"/>
<feColorMatrix type="matrix" values="0 0 0 0 0.516667 0 0 0 0 0.578358 0 0 0 0 0.775 0 0 0 0.12 0"/>
<feBlend mode="normal" in2="BackgroundImageFix" result="effect1_dropShadow_41306_74559"/>
<feColorMatrix in="SourceAlpha" type="matrix" values="0 0 0 0 0 0 0 0 0 0 0 0 0 0 0 0 0 0 127 0" result="hardAlpha"/>
<feOffset dy="1"/>
<feGaussianBlur stdDeviation="3"/>
<feColorMatrix type="matrix" values="0 0 0 0 0.709809 0 0 0 0 0.788943 0 0 0 0 0.920833 0 0 0 0.15 0"/>
<feBlend mode="normal" in2="effect1_dropShadow_41306_74559" result="effect2_dropShadow_41306_74559"/>
<feBlend mode="normal" in="SourceGraphic" in2="effect2_dropShadow_41306_74559" result="shape"/>
</filter>
</defs>
</svg>
