<svg width="112" height="208" viewBox="0 0 112 208" fill="none" xmlns="http://www.w3.org/2000/svg">
<rect x="0.5" y="0.5" width="111" height="207" rx="4.5" stroke="#9747FF" stroke-dasharray="10 5"/>
<g filter="url(#filter0_dd_41306_74673)">
<rect x="16" y="16" width="80" height="80" rx="8" fill="white"/>
</g>
<path d="M28 36.4297H52.0001V74.9995H30C28.8954 74.9995 28 74.104 28 72.9995V36.4297Z" fill="#157DF5"/>
<path d="M52 36.4297H76.0001V72.9995C76.0001 74.104 75.1046 74.9995 74.0001 74.9995H52V36.4297Z" fill="#0965CD"/>
<path d="M33.1523 42.1641H70.5359V54.2131H33.1523V42.1641Z" fill="#E2EFFE"/>
<path d="M51.9629 42.1641H70.5382V54.2131H51.9629V42.1641Z" fill="#B6D7FC"/>
<path d="M71.5651 40.3359H32.6419C32.0252 40.3359 31.5254 40.8358 31.5254 41.4524V74.9999H72.6684V41.439C72.6683 40.8299 72.1744 40.3359 71.5651 40.3359ZM34.6761 51.366C34.6761 50.4952 35.3821 49.7893 36.253 49.7893H67.9405C68.8115 49.7893 69.5175 50.4952 69.5175 51.366C69.5175 52.2368 68.8115 52.9428 67.9405 52.9428H36.253C35.3821 52.9428 34.6761 52.2368 34.6761 51.366ZM67.9412 43.4865C68.8118 43.4865 69.5175 44.1922 69.5175 45.0626C69.5175 45.933 68.8118 46.6387 67.9412 46.6387H36.2523C35.3818 46.6387 34.6761 45.933 34.6761 45.0626C34.6761 44.1922 35.3818 43.4865 36.2523 43.4865H67.9412Z" fill="#F0F7FE"/>
<path d="M71.5664 40.3359H51.9629V43.4865H67.9425C68.813 43.4865 69.5187 44.1922 69.5187 45.0626C69.5187 45.933 68.813 46.6387 67.9425 46.6387H51.9629V49.7893H67.9418C68.8127 49.7893 69.5187 50.4952 69.5187 51.366C69.5187 52.2368 68.8127 52.9428 67.9418 52.9428H51.9629V75H72.6695V41.439C72.6695 40.8298 72.1757 40.3359 71.5664 40.3359Z" fill="#E2EFFE"/>
<path d="M34.6758 57.808C34.6758 56.8612 35.4434 56.0938 36.3902 56.0938H67.8027C68.7496 56.0938 69.5172 56.8612 69.5172 57.808V74.9984H34.6758V57.808Z" fill="#282A52"/>
<path d="M51.9629 56.0938H67.8043C68.7511 56.0938 69.5187 56.8612 69.5187 57.808V74.9984H51.9629V56.0938Z" fill="#1E203E"/>
<path d="M28 34.3383C28 33.5516 28.5354 32.8659 29.2986 32.6751L52.0001 27V36.4282H28V34.3383Z" fill="#157DF5"/>
<path d="M76 34.3383C76 33.5516 75.4646 32.8659 74.7014 32.6751L51.9999 27V36.4282H76V34.3383Z" fill="#0965CD"/>
<path fill-rule="evenodd" clip-rule="evenodd" d="M58.8683 30.8683H58.8683C59.9361 29.8004 61.2039 28.9533 62.5991 28.3754C63.9944 27.7975 65.4898 27.5 67 27.5C68.5102 27.5 70.0056 27.7975 71.4009 28.3754C72.7961 28.9533 74.0639 29.8004 75.1317 30.8683C76.1996 31.9361 77.0467 33.2039 77.6246 34.5991C78.2025 35.9944 78.5 37.4898 78.5 39C78.5 40.4743 78.2165 41.9346 77.6653 43.3013L81.182 46.818L79.0607 48.9393L73.9767 43.8554C74.3247 43.3554 74.6187 42.8183 74.853 42.2528C75.2801 41.2215 75.5 40.1162 75.5 39C75.5 38.0233 75.3317 37.055 75.0034 36.1373C74.9565 36.0062 74.9064 35.8761 74.853 35.7472C74.4792 34.8448 73.9531 34.0146 73.2987 33.2924C73.2052 33.1892 73.1091 33.0883 73.0104 32.9896C72.2704 32.2496 71.4006 31.6531 70.4451 31.2294C70.3813 31.2012 70.3173 31.1737 70.2528 31.147C69.2215 30.7199 68.1162 30.5 67 30.5C65.8838 30.5 64.7785 30.7199 63.7472 31.147C62.7159 31.5742 61.7789 32.2003 60.9896 32.9896C60.2496 33.7296 59.6531 34.5994 59.2294 35.5549C59.2012 35.6187 59.1737 35.6827 59.147 35.7472C58.7199 36.7785 58.5 37.8838 58.5 39C58.5 39.9767 58.6683 40.945 58.9966 41.8627C59.0435 41.9938 59.0936 42.1239 59.147 42.2528C59.5742 43.2841 60.2003 44.2211 60.9896 45.0104C61.7789 45.7997 62.7159 46.4258 63.7472 46.853C64.7785 47.2801 65.8838 47.5 67 47.5C67.9767 47.5 68.945 47.3317 69.8627 47.0034C69.9938 46.9565 70.1239 46.9064 70.2528 46.853C70.7684 46.6394 71.2605 46.3761 71.7223 46.0675C71.767 46.0377 71.8113 46.0074 71.8554 45.9767L76.9393 51.0607L74.818 53.182L71.3013 49.6653C69.9346 50.2165 68.4743 50.5 67 50.5C65.4898 50.5 63.9944 50.2025 62.5991 49.6246C61.2039 49.0467 59.9361 48.1996 58.8683 47.1317C57.8004 46.0639 56.9533 44.7961 56.3754 43.4009C55.7975 42.0056 55.5 40.5102 55.5 39C55.5 37.4898 55.7975 35.9944 56.3754 34.5991C56.9533 33.2039 57.8004 31.9361 58.8683 30.8683ZM71.5144 42.1417C71.7395 41.8182 71.9298 41.4707 72.0813 41.1048C72.3577 40.4375 72.5 39.7223 72.5 39C72.5 38.2777 72.3577 37.5625 72.0813 36.8952C71.8049 36.228 71.3998 35.6216 70.8891 35.1109C70.8252 35.0471 70.7599 34.9849 70.6932 34.9244C70.2258 34.5009 69.6886 34.1605 69.1048 33.9187C68.4375 33.6423 67.7223 33.5 67 33.5C66.2777 33.5 65.5625 33.6423 64.8952 33.9187C64.228 34.1951 63.6216 34.6002 63.1109 35.1109C63.0471 35.1748 62.9849 35.2401 62.9244 35.3068C62.5009 35.7742 62.1605 36.3114 61.9187 36.8952C61.6423 37.5625 61.5 38.2777 61.5 39C61.5 39.7223 61.6423 40.4375 61.9187 41.1048C62.1951 41.772 62.6002 42.3784 63.1109 42.8891C63.6216 43.3998 64.228 43.8049 64.8952 44.0813C65.5625 44.3577 66.2777 44.5 67 44.5C67.7223 44.5 68.4375 44.3577 69.1048 44.0813C69.4707 43.9298 69.8182 43.7395 70.1417 43.5144C70.4082 43.3289 70.6584 43.1198 70.8891 42.8891C71.1198 42.6584 71.3289 42.4082 71.5144 42.1417ZM70.8891 35.1109L68.7678 37.2322C68.9999 37.4644 69.1841 37.74 69.3097 38.0433C69.4353 38.3466 69.5 38.6717 69.5 39C69.5 39.3283 69.4353 39.6534 69.3097 39.9567C69.1841 40.26 68.9999 40.5356 68.7678 40.7678C68.5356 40.9999 68.26 41.1841 67.9567 41.3097C67.6534 41.4353 67.3283 41.5 67 41.5C66.6717 41.5 66.3466 41.4353 66.0433 41.3097C65.74 41.1841 65.4644 40.9999 65.2322 40.7678C65.0001 40.5356 64.8159 40.26 64.6903 39.9567C64.5647 39.6534 64.5 39.3283 64.5 39C64.5 38.6717 64.5647 38.3466 64.6903 38.0433C64.8159 37.74 65.0001 37.4644 65.2322 37.2322C65.4644 37.0001 65.74 36.8159 66.0433 36.6903C66.3466 36.5647 66.6717 36.5 67 36.5C67.3283 36.5 67.6534 36.5647 67.9567 36.6903C68.26 36.8159 68.5356 37.0001 68.7678 37.2322L70.8891 35.1109ZM76.9393 51.0607L74.818 53.182C76.5754 54.9393 79.4246 54.9393 81.182 53.182L81.182 53.182C82.9393 51.4246 82.9393 48.5754 81.182 46.818L79.0607 48.9393C79.6464 49.5251 79.6464 50.4749 79.0607 51.0607C78.4749 51.6464 77.5251 51.6464 76.9393 51.0607Z" fill="white"/>
<path d="M60 39C60 39.9193 60.1811 40.8295 60.5328 41.6788C60.8846 42.5281 61.4002 43.2997 62.0503 43.9497C62.7003 44.5998 63.4719 45.1154 64.3212 45.4672C65.1705 45.8189 66.0807 46 67 46C67.9193 46 68.8295 45.8189 69.6788 45.4672C70.5281 45.1154 71.2997 44.5998 71.9497 43.9497C72.5998 43.2997 73.1154 42.5281 73.4672 41.6788C73.8189 40.8295 74 39.9193 74 39C74 38.0807 73.8189 37.1705 73.4672 36.3212C73.1154 35.4719 72.5998 34.7003 71.9497 34.0503C71.2997 33.4002 70.5281 32.8846 69.6788 32.5328C68.8295 32.1811 67.9193 32 67 32C66.0807 32 65.1705 32.1811 64.3212 32.5328C63.4719 32.8846 62.7003 33.4002 62.0503 34.0503C61.4002 34.7003 60.8846 35.4719 60.5328 36.3212C60.1811 37.1705 60 38.0807 60 39Z" fill="#E2EFFE"/>
<path fill-rule="evenodd" clip-rule="evenodd" d="M67 30.5C65.8838 30.5 64.7785 30.7199 63.7472 31.147C62.7159 31.5742 61.7789 32.2003 60.9896 32.9896C60.2003 33.7789 59.5742 34.7159 59.147 35.7472C58.7199 36.7785 58.5 37.8838 58.5 39C58.5 40.1162 58.7199 41.2215 59.147 42.2528C59.5742 43.2841 60.2003 44.2211 60.9896 45.0104C61.7789 45.7997 62.7159 46.4258 63.7472 46.853C64.7785 47.2801 65.8838 47.5 67 47.5C68.1162 47.5 69.2215 47.2801 70.2528 46.853C70.8183 46.6187 71.3554 46.3247 71.8554 45.9767L76.9393 51.0607C77.5251 51.6464 78.4749 51.6464 79.0607 51.0607C79.6464 50.4749 79.6464 49.5251 79.0607 48.9393L73.9767 43.8554C74.3247 43.3554 74.6187 42.8183 74.853 42.2528C75.2801 41.2215 75.5 40.1162 75.5 39C75.5 37.8838 75.2801 36.7785 74.853 35.7472C74.4258 34.7159 73.7997 33.7789 73.0104 32.9896C72.2211 32.2003 71.2841 31.5742 70.2528 31.147C69.2215 30.7199 68.1162 30.5 67 30.5ZM64.8952 33.9187C65.5625 33.6423 66.2777 33.5 67 33.5C67.7223 33.5 68.4375 33.6423 69.1048 33.9187C69.772 34.1951 70.3784 34.6002 70.8891 35.1109C71.3998 35.6216 71.8049 36.228 72.0813 36.8952C72.3577 37.5625 72.5 38.2777 72.5 39C72.5 39.7223 72.3577 40.4375 72.0813 41.1048C71.8049 41.772 71.3998 42.3784 70.8891 42.8891C70.3784 43.3998 69.772 43.8049 69.1048 44.0813C68.4375 44.3577 67.7223 44.5 67 44.5C66.2777 44.5 65.5625 44.3577 64.8952 44.0813C64.228 43.8049 63.6216 43.3998 63.1109 42.8891C62.6002 42.3784 62.1951 41.772 61.9187 41.1048C61.6423 40.4375 61.5 39.7223 61.5 39C61.5 38.2777 61.6423 37.5625 61.9187 36.8952C62.1951 36.228 62.6002 35.6216 63.1109 35.1109C63.6216 34.6002 64.228 34.1951 64.8952 33.9187Z" fill="#0965CD"/>
<path fill-rule="evenodd" clip-rule="evenodd" d="M67 30.5C65.8838 30.5 64.7785 30.7199 63.7472 31.147C62.7159 31.5742 61.7789 32.2003 60.9896 32.9896C60.2003 33.7789 59.5742 34.7159 59.147 35.7472C58.7199 36.7785 58.5 37.8838 58.5 39C58.5 40.1162 58.7199 41.2215 59.147 42.2528C59.5742 43.2841 60.2003 44.2211 60.9896 45.0104C61.7789 45.7997 62.7159 46.4258 63.7472 46.853C64.7785 47.2801 65.8838 47.5 67 47.5C68.1162 47.5 69.2215 47.2801 70.2528 46.853C70.8183 46.6187 71.3554 46.3247 71.8554 45.9767L76.9393 51.0607C77.5251 51.6464 78.4749 51.6464 79.0607 51.0607C79.6464 50.4749 79.6464 49.5251 79.0607 48.9393L73.9767 43.8554C74.3247 43.3554 74.6187 42.8183 74.853 42.2528C75.2801 41.2215 75.5 40.1162 75.5 39C75.5 37.8838 75.2801 36.7785 74.853 35.7472C74.4258 34.7159 73.7997 33.7789 73.0104 32.9896C72.2211 32.2003 71.2841 31.5742 70.2528 31.147C69.2215 30.7199 68.1162 30.5 67 30.5ZM64.8952 33.9187C65.5625 33.6423 66.2777 33.5 67 33.5C67.7223 33.5 68.4375 33.6423 69.1048 33.9187C69.772 34.1951 70.3784 34.6002 70.8891 35.1109C71.3998 35.6216 71.8049 36.228 72.0813 36.8952C72.3577 37.5625 72.5 38.2777 72.5 39C72.5 39.7223 72.3577 40.4375 72.0813 41.1048C71.8049 41.772 71.3998 42.3784 70.8891 42.8891C70.3784 43.3998 69.772 43.8049 69.1048 44.0813C68.4375 44.3577 67.7223 44.5 67 44.5C66.2777 44.5 65.5625 44.3577 64.8952 44.0813C64.228 43.8049 63.6216 43.3998 63.1109 42.8891C62.6002 42.3784 62.1951 41.772 61.9187 41.1048C61.6423 40.4375 61.5 39.7223 61.5 39C61.5 38.2777 61.6423 37.5625 61.9187 36.8952C62.1951 36.228 62.6002 35.6216 63.1109 35.1109C63.6216 34.6002 64.228 34.1951 64.8952 33.9187Z" fill="#25BB71"/>
<path d="M67 32C66.0807 32 65.1705 32.1811 64.3212 32.5328C63.4719 32.8846 62.7003 33.4002 62.0503 34.0503C61.4002 34.7003 60.8846 35.4719 60.5328 36.3212C60.1811 37.1705 60 38.0807 60 39C60 39.9193 60.1811 40.8295 60.5328 41.6788C60.8846 42.5281 61.4002 43.2997 62.0503 43.9497C62.7003 44.5998 63.4719 45.1154 64.3212 45.4672C65.1705 45.8189 66.0807 46 67 46V32Z" fill="#F0F7FE"/>
<path d="M67 30.5C65.8838 30.5 64.7785 30.7199 63.7472 31.147C62.7159 31.5742 61.7789 32.2003 60.9896 32.9896C60.2003 33.7789 59.5742 34.7159 59.147 35.7472C58.7199 36.7785 58.5 37.8838 58.5 39C58.5 40.1162 58.7199 41.2215 59.147 42.2528C59.5742 43.2841 60.2003 44.2211 60.9896 45.0104C61.7789 45.7997 62.7159 46.4258 63.7472 46.853C64.7785 47.2801 65.8838 47.5 67 47.5V44.5C66.2777 44.5 65.5625 44.3577 64.8952 44.0813C64.228 43.8049 63.6216 43.3998 63.1109 42.8891C62.6002 42.3784 62.1951 41.772 61.9187 41.1048C61.6423 40.4375 61.5 39.7223 61.5 39C61.5 38.2777 61.6423 37.5625 61.9187 36.8952C62.1951 36.228 62.6002 35.6216 63.1109 35.1109C63.6216 34.6002 64.228 34.1951 64.8952 33.9187C65.5625 33.6423 66.2777 33.5 67 33.5V30.5Z" fill="#40D98D"/>
<path fill-rule="evenodd" clip-rule="evenodd" d="M47.8755 70.8078C47.9535 70.9375 48.0291 71.069 48.1022 71.2019C48.1579 70.7738 48.2359 70.3384 48.335 69.8993C48.5214 69.0723 48.7823 68.2323 49.1089 67.4045C50.8337 63.033 54.3913 59 58.5 59C64.299 59 69 67.0336 69 72.7143C69 78.3949 64.299 83 58.5 83C55.8212 83 53.3767 82.0173 51.5217 80.3999C51.0076 79.9517 50.5388 79.4547 50.1228 78.9164C49.8266 78.533 49.5572 78.1287 49.3173 77.7061C49.2191 78.1188 49.0828 78.5171 48.9123 78.8974C48.6132 79.5646 48.2087 80.1763 47.7194 80.7122C46.4376 82.1163 44.5742 83 42.5 83C38.634 83 35.5 79.93 35.5 76.1429C35.5 72.3558 38.634 67 42.5 67C43.6403 67 44.717 67.466 45.6683 68.2202C46.5189 68.8946 47.2693 69.7995 47.8755 70.8078ZM46.7439 65.3009C47.4099 63.8374 48.2465 62.4374 49.2181 61.1942C51.3464 58.471 54.543 56 58.5 56C62.8222 56 66.236 58.9358 68.3835 62.0082C70.5739 65.1419 72 69.1591 72 72.7143C72 80.1098 65.8972 86 58.5 86C55.1945 86 52.157 84.8286 49.8036 82.8764C47.9715 84.8059 45.3672 86 42.5 86C37.0358 86 32.5 81.6448 32.5 76.1429C32.5 73.5345 33.5344 70.6601 35.0914 68.4326C36.6055 66.2663 39.1442 64 42.5 64C44.1069 64 45.5267 64.5134 46.7439 65.3009Z" fill="white"/>
<path d="M35.5 76.1429C35.5 79.93 38.634 83 42.5 83C46.366 83 49.5 79.93 49.5 76.1429C49.5 72.3558 46.366 67 42.5 67C38.634 67 35.5 72.3558 35.5 76.1429Z" fill="#FFDECC"/>
<path d="M48 72.7143C48 78.3949 52.701 83 58.5 83C64.299 83 69 78.3949 69 72.7143C69 67.0336 64.299 59 58.5 59C52.701 59 48 67.0336 48 72.7143Z" fill="#FFA099"/>
<path d="M28 132.43H52.0001V170.999H30C28.8954 170.999 28 170.104 28 168.999V132.43Z" fill="#157DF5"/>
<path d="M52 132.43H76.0001V168.999C76.0001 170.104 75.1046 170.999 74.0001 170.999H52V132.43Z" fill="#0965CD"/>
<path d="M33.1523 138.164H70.5359V150.213H33.1523V138.164Z" fill="#E2EFFE"/>
<path d="M51.9629 138.164H70.5382V150.213H51.9629V138.164Z" fill="#B6D7FC"/>
<path d="M71.5651 136.336H32.6419C32.0252 136.336 31.5254 136.836 31.5254 137.452V171H72.6684V137.439C72.6683 136.83 72.1744 136.336 71.5651 136.336ZM34.6761 147.366C34.6761 146.495 35.3821 145.789 36.253 145.789H67.9405C68.8115 145.789 69.5175 146.495 69.5175 147.366C69.5175 148.237 68.8115 148.943 67.9405 148.943H36.253C35.3821 148.943 34.6761 148.237 34.6761 147.366ZM67.9412 139.487C68.8118 139.487 69.5175 140.192 69.5175 141.063C69.5175 141.933 68.8118 142.639 67.9412 142.639H36.2523C35.3818 142.639 34.6761 141.933 34.6761 141.063C34.6761 140.192 35.3818 139.487 36.2523 139.487H67.9412Z" fill="#F0F7FE"/>
<path d="M71.5664 136.336H51.9629V139.487H67.9425C68.813 139.487 69.5187 140.192 69.5187 141.063C69.5187 141.933 68.813 142.639 67.9425 142.639H51.9629V145.789H67.9418C68.8127 145.789 69.5187 146.495 69.5187 147.366C69.5187 148.237 68.8127 148.943 67.9418 148.943H51.9629V171H72.6695V137.439C72.6695 136.83 72.1757 136.336 71.5664 136.336Z" fill="#E2EFFE"/>
<path d="M34.6758 153.808C34.6758 152.861 35.4434 152.094 36.3902 152.094H67.8027C68.7496 152.094 69.5172 152.861 69.5172 153.808V170.998H34.6758V153.808Z" fill="#282A52"/>
<path d="M51.9629 152.094H67.8043C68.7511 152.094 69.5187 152.861 69.5187 153.808V170.998H51.9629V152.094Z" fill="#1E203E"/>
<path d="M28 130.338C28 129.552 28.5354 128.866 29.2986 128.675L52.0001 123V132.428H28V130.338Z" fill="#157DF5"/>
<path d="M76 130.338C76 129.552 75.4646 128.866 74.7014 128.675L51.9999 123V132.428H76V130.338Z" fill="#0965CD"/>
<path fill-rule="evenodd" clip-rule="evenodd" d="M58.8683 126.868H58.8683C59.9361 125.8 61.2039 124.953 62.5991 124.375C63.9944 123.797 65.4898 123.5 67 123.5C68.5102 123.5 70.0056 123.797 71.4009 124.375C72.7961 124.953 74.0639 125.8 75.1317 126.868C76.1996 127.936 77.0467 129.204 77.6246 130.599C78.2025 131.994 78.5 133.49 78.5 135C78.5 136.474 78.2165 137.935 77.6653 139.301L81.182 142.818L79.0607 144.939L73.9767 139.855C74.3247 139.355 74.6187 138.818 74.853 138.253C75.2801 137.222 75.5 136.116 75.5 135C75.5 134.023 75.3317 133.055 75.0034 132.137C74.9565 132.006 74.9064 131.876 74.853 131.747C74.4792 130.845 73.9531 130.015 73.2987 129.292C73.2052 129.189 73.1091 129.088 73.0104 128.99C72.2704 128.25 71.4006 127.653 70.4451 127.229C70.3813 127.201 70.3173 127.174 70.2528 127.147C69.2215 126.72 68.1162 126.5 67 126.5C65.8838 126.5 64.7785 126.72 63.7472 127.147C62.7159 127.574 61.7789 128.2 60.9896 128.99C60.2496 129.73 59.6531 130.599 59.2294 131.555C59.2012 131.619 59.1737 131.683 59.147 131.747C58.7199 132.778 58.5 133.884 58.5 135C58.5 135.977 58.6683 136.945 58.9966 137.863C59.0435 137.994 59.0936 138.124 59.147 138.253C59.5742 139.284 60.2003 140.221 60.9896 141.01C61.7789 141.8 62.7159 142.426 63.7472 142.853C64.7785 143.28 65.8838 143.5 67 143.5C67.9767 143.5 68.945 143.332 69.8627 143.003C69.9938 142.957 70.1239 142.906 70.2528 142.853C70.7684 142.639 71.2605 142.376 71.7223 142.067C71.767 142.038 71.8113 142.007 71.8554 141.977L76.9393 147.061L74.818 149.182L71.3013 145.665C69.9346 146.217 68.4743 146.5 67 146.5C65.4898 146.5 63.9944 146.203 62.5991 145.625C61.2039 145.047 59.9361 144.2 58.8683 143.132C57.8004 142.064 56.9533 140.796 56.3754 139.401C55.7975 138.006 55.5 136.51 55.5 135C55.5 133.49 55.7975 131.994 56.3754 130.599C56.9533 129.204 57.8004 127.936 58.8683 126.868ZM71.5144 138.142C71.7395 137.818 71.9298 137.471 72.0813 137.105C72.3577 136.437 72.5 135.722 72.5 135C72.5 134.278 72.3577 133.563 72.0813 132.895C71.8049 132.228 71.3998 131.622 70.8891 131.111C70.8252 131.047 70.7599 130.985 70.6932 130.924C70.2258 130.501 69.6886 130.161 69.1048 129.919C68.4375 129.642 67.7223 129.5 67 129.5C66.2777 129.5 65.5625 129.642 64.8952 129.919C64.228 130.195 63.6216 130.6 63.1109 131.111C63.0471 131.175 62.9849 131.24 62.9244 131.307C62.5009 131.774 62.1605 132.311 61.9187 132.895C61.6423 133.563 61.5 134.278 61.5 135C61.5 135.722 61.6423 136.437 61.9187 137.105C62.1951 137.772 62.6002 138.378 63.1109 138.889C63.6216 139.4 64.228 139.805 64.8952 140.081C65.5625 140.358 66.2777 140.5 67 140.5C67.7223 140.5 68.4375 140.358 69.1048 140.081C69.4707 139.93 69.8182 139.74 70.1417 139.514C70.4082 139.329 70.6584 139.12 70.8891 138.889C71.1198 138.658 71.3289 138.408 71.5144 138.142ZM70.8891 131.111L68.7678 133.232C68.9999 133.464 69.1841 133.74 69.3097 134.043C69.4353 134.347 69.5 134.672 69.5 135C69.5 135.328 69.4353 135.653 69.3097 135.957C69.1841 136.26 68.9999 136.536 68.7678 136.768C68.5356 137 68.26 137.184 67.9567 137.31C67.6534 137.435 67.3283 137.5 67 137.5C66.6717 137.5 66.3466 137.435 66.0433 137.31C65.74 137.184 65.4644 137 65.2322 136.768C65.0001 136.536 64.8159 136.26 64.6903 135.957C64.5647 135.653 64.5 135.328 64.5 135C64.5 134.672 64.5647 134.347 64.6903 134.043C64.8159 133.74 65.0001 133.464 65.2322 133.232C65.4644 133 65.74 132.816 66.0433 132.69C66.3466 132.565 66.6717 132.5 67 132.5C67.3283 132.5 67.6534 132.565 67.9567 132.69C68.26 132.816 68.5356 133 68.7678 133.232L70.8891 131.111ZM76.9393 147.061L74.818 149.182C76.5754 150.939 79.4246 150.939 81.182 149.182L81.182 149.182C82.9393 147.425 82.9393 144.575 81.182 142.818L79.0607 144.939C79.6464 145.525 79.6464 146.475 79.0607 147.061C78.4749 147.646 77.5251 147.646 76.9393 147.061Z" fill="white"/>
<path d="M60 135C60 135.919 60.1811 136.83 60.5328 137.679C60.8846 138.528 61.4002 139.3 62.0503 139.95C62.7003 140.6 63.4719 141.115 64.3212 141.467C65.1705 141.819 66.0807 142 67 142C67.9193 142 68.8295 141.819 69.6788 141.467C70.5281 141.115 71.2997 140.6 71.9497 139.95C72.5998 139.3 73.1154 138.528 73.4672 137.679C73.8189 136.83 74 135.919 74 135C74 134.081 73.8189 133.17 73.4672 132.321C73.1154 131.472 72.5998 130.7 71.9497 130.05C71.2997 129.4 70.5281 128.885 69.6788 128.533C68.8295 128.181 67.9193 128 67 128C66.0807 128 65.1705 128.181 64.3212 128.533C63.4719 128.885 62.7003 129.4 62.0503 130.05C61.4002 130.7 60.8846 131.472 60.5328 132.321C60.1811 133.17 60 134.081 60 135Z" fill="#E2EFFE"/>
<path fill-rule="evenodd" clip-rule="evenodd" d="M67 126.5C65.8838 126.5 64.7785 126.72 63.7472 127.147C62.7159 127.574 61.7789 128.2 60.9896 128.99C60.2003 129.779 59.5742 130.716 59.147 131.747C58.7199 132.778 58.5 133.884 58.5 135C58.5 136.116 58.7199 137.222 59.147 138.253C59.5742 139.284 60.2003 140.221 60.9896 141.01C61.7789 141.8 62.7159 142.426 63.7472 142.853C64.7785 143.28 65.8838 143.5 67 143.5C68.1162 143.5 69.2215 143.28 70.2528 142.853C70.8183 142.619 71.3554 142.325 71.8554 141.977L76.9393 147.061C77.5251 147.646 78.4749 147.646 79.0607 147.061C79.6464 146.475 79.6464 145.525 79.0607 144.939L73.9767 139.855C74.3247 139.355 74.6187 138.818 74.853 138.253C75.2801 137.222 75.5 136.116 75.5 135C75.5 133.884 75.2801 132.778 74.853 131.747C74.4258 130.716 73.7997 129.779 73.0104 128.99C72.2211 128.2 71.2841 127.574 70.2528 127.147C69.2215 126.72 68.1162 126.5 67 126.5ZM64.8952 129.919C65.5625 129.642 66.2777 129.5 67 129.5C67.7223 129.5 68.4375 129.642 69.1048 129.919C69.772 130.195 70.3784 130.6 70.8891 131.111C71.3998 131.622 71.8049 132.228 72.0813 132.895C72.3577 133.563 72.5 134.278 72.5 135C72.5 135.722 72.3577 136.437 72.0813 137.105C71.8049 137.772 71.3998 138.378 70.8891 138.889C70.3784 139.4 69.772 139.805 69.1048 140.081C68.4375 140.358 67.7223 140.5 67 140.5C66.2777 140.5 65.5625 140.358 64.8952 140.081C64.228 139.805 63.6216 139.4 63.1109 138.889C62.6002 138.378 62.1951 137.772 61.9187 137.105C61.6423 136.437 61.5 135.722 61.5 135C61.5 134.278 61.6423 133.563 61.9187 132.895C62.1951 132.228 62.6002 131.622 63.1109 131.111C63.6216 130.6 64.228 130.195 64.8952 129.919Z" fill="#0965CD"/>
<path fill-rule="evenodd" clip-rule="evenodd" d="M67 126.5C65.8838 126.5 64.7785 126.72 63.7472 127.147C62.7159 127.574 61.7789 128.2 60.9896 128.99C60.2003 129.779 59.5742 130.716 59.147 131.747C58.7199 132.778 58.5 133.884 58.5 135C58.5 136.116 58.7199 137.222 59.147 138.253C59.5742 139.284 60.2003 140.221 60.9896 141.01C61.7789 141.8 62.7159 142.426 63.7472 142.853C64.7785 143.28 65.8838 143.5 67 143.5C68.1162 143.5 69.2215 143.28 70.2528 142.853C70.8183 142.619 71.3554 142.325 71.8554 141.977L76.9393 147.061C77.5251 147.646 78.4749 147.646 79.0607 147.061C79.6464 146.475 79.6464 145.525 79.0607 144.939L73.9767 139.855C74.3247 139.355 74.6187 138.818 74.853 138.253C75.2801 137.222 75.5 136.116 75.5 135C75.5 133.884 75.2801 132.778 74.853 131.747C74.4258 130.716 73.7997 129.779 73.0104 128.99C72.2211 128.2 71.2841 127.574 70.2528 127.147C69.2215 126.72 68.1162 126.5 67 126.5ZM64.8952 129.919C65.5625 129.642 66.2777 129.5 67 129.5C67.7223 129.5 68.4375 129.642 69.1048 129.919C69.772 130.195 70.3784 130.6 70.8891 131.111C71.3998 131.622 71.8049 132.228 72.0813 132.895C72.3577 133.563 72.5 134.278 72.5 135C72.5 135.722 72.3577 136.437 72.0813 137.105C71.8049 137.772 71.3998 138.378 70.8891 138.889C70.3784 139.4 69.772 139.805 69.1048 140.081C68.4375 140.358 67.7223 140.5 67 140.5C66.2777 140.5 65.5625 140.358 64.8952 140.081C64.228 139.805 63.6216 139.4 63.1109 138.889C62.6002 138.378 62.1951 137.772 61.9187 137.105C61.6423 136.437 61.5 135.722 61.5 135C61.5 134.278 61.6423 133.563 61.9187 132.895C62.1951 132.228 62.6002 131.622 63.1109 131.111C63.6216 130.6 64.228 130.195 64.8952 129.919Z" fill="#25BB71"/>
<path d="M67 128C66.0807 128 65.1705 128.181 64.3212 128.533C63.4719 128.885 62.7003 129.4 62.0503 130.05C61.4002 130.7 60.8846 131.472 60.5328 132.321C60.1811 133.17 60 134.081 60 135C60 135.919 60.1811 136.83 60.5328 137.679C60.8846 138.528 61.4002 139.3 62.0503 139.95C62.7003 140.6 63.4719 141.115 64.3212 141.467C65.1705 141.819 66.0807 142 67 142V128Z" fill="#F0F7FE"/>
<path d="M67 126.5C65.8838 126.5 64.7785 126.72 63.7472 127.147C62.7159 127.574 61.7789 128.2 60.9896 128.99C60.2003 129.779 59.5742 130.716 59.147 131.747C58.7199 132.778 58.5 133.884 58.5 135C58.5 136.116 58.7199 137.222 59.147 138.253C59.5742 139.284 60.2003 140.221 60.9896 141.01C61.7789 141.8 62.7159 142.426 63.7472 142.853C64.7785 143.28 65.8838 143.5 67 143.5V140.5C66.2777 140.5 65.5625 140.358 64.8952 140.081C64.228 139.805 63.6216 139.4 63.1109 138.889C62.6002 138.378 62.1951 137.772 61.9187 137.105C61.6423 136.437 61.5 135.722 61.5 135C61.5 134.278 61.6423 133.563 61.9187 132.895C62.1951 132.228 62.6002 131.622 63.1109 131.111C63.6216 130.6 64.228 130.195 64.8952 129.919C65.5625 129.642 66.2777 129.5 67 129.5V126.5Z" fill="#40D98D"/>
<path fill-rule="evenodd" clip-rule="evenodd" d="M47.8755 166.808C47.9535 166.938 48.0291 167.069 48.1022 167.202C48.1579 166.774 48.2359 166.338 48.335 165.899C48.5214 165.072 48.7823 164.232 49.1089 163.404C50.8337 159.033 54.3913 155 58.5 155C64.299 155 69 163.034 69 168.714C69 174.395 64.299 179 58.5 179C55.8212 179 53.3767 178.017 51.5217 176.4C51.0076 175.952 50.5388 175.455 50.1228 174.916C49.8266 174.533 49.5572 174.129 49.3173 173.706C49.2191 174.119 49.0828 174.517 48.9123 174.897C48.6132 175.565 48.2087 176.176 47.7194 176.712C46.4376 178.116 44.5742 179 42.5 179C38.634 179 35.5 175.93 35.5 172.143C35.5 168.356 38.634 163 42.5 163C43.6403 163 44.717 163.466 45.6683 164.22C46.5189 164.895 47.2693 165.799 47.8755 166.808ZM46.7439 161.301C47.4099 159.837 48.2465 158.437 49.2181 157.194C51.3464 154.471 54.543 152 58.5 152C62.8222 152 66.236 154.936 68.3835 158.008C70.5739 161.142 72 165.159 72 168.714C72 176.11 65.8972 182 58.5 182C55.1945 182 52.157 180.829 49.8036 178.876C47.9715 180.806 45.3672 182 42.5 182C37.0358 182 32.5 177.645 32.5 172.143C32.5 169.534 33.5344 166.66 35.0914 164.433C36.6055 162.266 39.1442 160 42.5 160C44.1069 160 45.5267 160.513 46.7439 161.301Z" fill="white"/>
<path d="M35.5 172.143C35.5 175.93 38.634 179 42.5 179C46.366 179 49.5 175.93 49.5 172.143C49.5 168.356 46.366 163 42.5 163C38.634 163 35.5 168.356 35.5 172.143Z" fill="#FFDECC"/>
<path d="M48 168.714C48 174.395 52.701 179 58.5 179C64.299 179 69 174.395 69 168.714C69 163.034 64.299 155 58.5 155C52.701 155 48 163.034 48 168.714Z" fill="#FFA099"/>
<defs>
<filter id="filter0_dd_41306_74673" x="6" y="9" width="100" height="100" filterUnits="userSpaceOnUse" color-interpolation-filters="sRGB">
<feFlood flood-opacity="0" result="BackgroundImageFix"/>
<feColorMatrix in="SourceAlpha" type="matrix" values="0 0 0 0 0 0 0 0 0 0 0 0 0 0 0 0 0 0 127 0" result="hardAlpha"/>
<feOffset dy="3"/>
<feGaussianBlur stdDeviation="5"/>
<feColorMatrix type="matrix" values="0 0 0 0 0.516667 0 0 0 0 0.578358 0 0 0 0 0.775 0 0 0 0.12 0"/>
<feBlend mode="normal" in2="BackgroundImageFix" result="effect1_dropShadow_41306_74673"/>
<feColorMatrix in="SourceAlpha" type="matrix" values="0 0 0 0 0 0 0 0 0 0 0 0 0 0 0 0 0 0 127 0" result="hardAlpha"/>
<feOffset dy="1"/>
<feGaussianBlur stdDeviation="3"/>
<feColorMatrix type="matrix" values="0 0 0 0 0.709809 0 0 0 0 0.788943 0 0 0 0 0.920833 0 0 0 0.15 0"/>
<feBlend mode="normal" in2="effect1_dropShadow_41306_74673" result="effect2_dropShadow_41306_74673"/>
<feBlend mode="normal" in="SourceGraphic" in2="effect2_dropShadow_41306_74673" result="shape"/>
</filter>
</defs>
</svg>
