<svg width="112" height="208" viewBox="0 0 112 208" fill="none" xmlns="http://www.w3.org/2000/svg">
<rect x="0.5" y="0.5" width="111" height="207" rx="4.5" stroke="#9747FF" stroke-dasharray="10 5"/>
<g filter="url(#filter0_dd_58767_11984)">
<rect x="16" y="16" width="80" height="80" rx="8" fill="white"/>
</g>
<path d="M68.0938 29.6406V73.4062C68.0938 73.9585 67.646 74.4062 67.0938 74.4062H33C32.4477 74.4062 32 73.9585 32 73.4062V29.6406C32 28.7218 32.7218 28 33.6406 28H66.4531C67.372 28 68.0938 28.7218 68.0938 29.6406Z" fill="#F0F7FE"/>
<path d="M74.6562 65.4043C74.6562 65.9566 74.2085 66.4043 73.6562 66.4043H65.8125C65.2602 66.4043 64.8125 65.9566 64.8125 65.4043V32.9199C64.8125 32.3676 65.2602 31.9199 65.8125 31.9199H73.0156C73.9217 31.9199 74.6562 32.6545 74.6562 33.5605V65.4043Z" fill="#B6D7FC"/>
<path d="M68.0938 29.6406V73.4062C68.0938 73.9585 67.646 74.4062 67.0938 74.4062H51C50.4477 74.4062 50 73.9585 50 73.4062V29C50 28.4477 50.4477 28 51 28H66.4531C67.372 28 68.0938 28.7218 68.0938 29.6406Z" fill="#E2EFFE"/>
<path d="M62.5312 46.1562C62.5312 47.0749 61.8095 47.7969 60.8906 47.7969H55.9688C55.0499 47.7969 54.3281 47.0749 54.3281 46.1562C54.3281 45.2374 55.0499 44.5156 55.9688 44.5156H60.8906C61.8095 44.5156 62.5312 45.2374 62.5312 46.1562Z" fill="#B6D7FC"/>
<path d="M47.5312 52.6406C47.5312 53.5593 46.8095 54.2812 45.8906 54.2812H40.9688C40.0499 54.2812 39.3281 53.5593 39.3281 52.6406C39.3281 51.7218 40.0499 51 40.9688 51H45.8906C46.8095 51 47.5312 51.7218 47.5312 52.6406Z" fill="#B6D7FC"/>
<path d="M62.5312 39.5938C62.5312 40.5126 61.8095 41.2344 60.8906 41.2344H39.9688C39.0499 41.2344 38.3281 40.5126 38.3281 39.5938C38.3281 38.6749 39.0499 37.9531 39.9688 37.9531H60.8906C61.8095 37.9531 62.5312 38.6749 62.5312 39.5938Z" fill="#157DF5"/>
<path d="M60.8906 37.9531C61.8095 37.9531 62.5312 38.6749 62.5312 39.5938C62.5312 40.5126 61.8095 41.2344 60.8906 41.2344H50V37.9531H60.8906Z" fill="#0965CD"/>
<path d="M62.5312 52.6406C62.5312 53.5593 61.8095 54.2812 60.8906 54.2812H55.9688C55.0499 54.2812 54.3281 53.5593 54.3281 52.6406C54.3281 51.7218 55.0499 51 55.9688 51H60.8906C61.8095 51 62.5312 51.7218 62.5312 52.6406Z" fill="#25BB71"/>
<path d="M84.0003 61.7419C84.0003 63.5822 83.011 65.2962 81.4188 66.2153L63.4933 76.5643C62.493 77.1419 61.3543 77.4471 60.1992 77.4471C43.6983 77.4471 47.4476 76.8732 37.1953 80.2899C36.3576 80.5727 35.4053 80.1296 35.1123 79.2479C34.8246 78.3848 35.2913 77.4526 36.1543 77.1649L36.6748 76.9914V62.5127C34.9324 62.5095 34.3985 60.164 35.938 59.3932C38.3582 58.1831 39.4319 57.4628 41.3547 57.4628H54.2434C57.8798 57.4628 60.3586 61.1294 59.0583 64.4903C63.0516 64.4903 63.5357 64.6216 64.5266 64.0488C71.5618 59.9872 68.5609 61.7197 76.258 57.2761C79.6716 55.3074 84.0003 57.7555 84.0003 61.7419Z" fill="#FFDECC"/>
<path d="M84 61.7419C84 63.5822 83.0107 65.2962 81.4185 66.2153L63.493 76.5643C61.5754 77.6715 60.3468 77.4471 56 77.4471V57.7714C58.7288 58.761 60.0971 61.8047 59.058 64.4903C63.0513 64.4903 63.5354 64.6216 64.5263 64.0488C71.5615 59.9872 68.5606 61.7197 76.2577 57.2761C79.6713 55.3074 84 57.7555 84 61.7419Z" fill="#FFCFB5"/>
<path d="M81.8333 57.5436C69.7511 64.8982 73.2069 62.8398 66.1731 66.9011C65.1728 67.4786 64.0341 67.7839 62.8789 67.7839H47.2154C46.3062 67.7839 45.5684 67.046 45.5684 66.1368C45.5684 65.2276 46.3062 64.4898 47.2154 64.4898H62.8789C63.4565 64.4898 64.0264 64.3371 64.526 64.0483C71.5613 59.9867 68.5603 61.7192 76.2575 57.2756C78.0604 56.2358 80.2379 56.4093 81.8333 57.5436Z" fill="#FFCFB5"/>
<path d="M81.8336 57.5436C69.7514 64.8982 73.2072 62.8398 66.1733 66.9011C65.173 67.4786 64.0344 67.7839 62.8792 67.7839H56V64.4898H62.8792C63.4568 64.4898 64.0267 64.3371 64.5263 64.0483C71.5615 59.9867 68.5606 61.7192 76.2577 57.2756C78.0607 56.2358 80.2381 56.4093 81.8336 57.5436Z" fill="#FFB78F"/>
<path d="M28 58C28 56.8954 28.8954 56 30 56H36C37.1046 56 38 56.8954 38 58V82C38 83.1046 37.1046 84 36 84H30C28.8954 84 28 83.1046 28 82V58Z" fill="#157DF5"/>
<path d="M68.0938 125.641V169.406C68.0938 169.959 67.646 170.406 67.0938 170.406H33C32.4477 170.406 32 169.959 32 169.406V125.641C32 124.722 32.7218 124 33.6406 124H66.4531C67.372 124 68.0938 124.722 68.0938 125.641Z" fill="#F0F7FE"/>
<path d="M74.6562 161.404C74.6562 161.957 74.2085 162.404 73.6562 162.404H65.8125C65.2602 162.404 64.8125 161.957 64.8125 161.404V128.92C64.8125 128.368 65.2602 127.92 65.8125 127.92H73.0156C73.9217 127.92 74.6562 128.654 74.6562 129.561V161.404Z" fill="#B6D7FC"/>
<path d="M68.0938 125.641V169.406C68.0938 169.959 67.646 170.406 67.0938 170.406H51C50.4477 170.406 50 169.959 50 169.406V125C50 124.448 50.4477 124 51 124H66.4531C67.372 124 68.0938 124.722 68.0938 125.641Z" fill="#E2EFFE"/>
<path d="M62.5312 142.156C62.5312 143.075 61.8095 143.797 60.8906 143.797H55.9688C55.0499 143.797 54.3281 143.075 54.3281 142.156C54.3281 141.237 55.0499 140.516 55.9688 140.516H60.8906C61.8095 140.516 62.5312 141.237 62.5312 142.156Z" fill="#B6D7FC"/>
<path d="M47.5312 148.641C47.5312 149.559 46.8095 150.281 45.8906 150.281H40.9688C40.0499 150.281 39.3281 149.559 39.3281 148.641C39.3281 147.722 40.0499 147 40.9688 147H45.8906C46.8095 147 47.5312 147.722 47.5312 148.641Z" fill="#B6D7FC"/>
<path d="M62.5312 135.594C62.5312 136.513 61.8095 137.234 60.8906 137.234H39.9688C39.0499 137.234 38.3281 136.513 38.3281 135.594C38.3281 134.675 39.0499 133.953 39.9688 133.953H60.8906C61.8095 133.953 62.5312 134.675 62.5312 135.594Z" fill="#157DF5"/>
<path d="M60.8906 133.953C61.8095 133.953 62.5312 134.675 62.5312 135.594C62.5312 136.513 61.8095 137.234 60.8906 137.234H50V133.953H60.8906Z" fill="#0965CD"/>
<path d="M62.5312 148.641C62.5312 149.559 61.8095 150.281 60.8906 150.281H55.9688C55.0499 150.281 54.3281 149.559 54.3281 148.641C54.3281 147.722 55.0499 147 55.9688 147H60.8906C61.8095 147 62.5312 147.722 62.5312 148.641Z" fill="#25BB71"/>
<path d="M84.0003 157.742C84.0003 159.582 83.011 161.296 81.4188 162.215L63.4933 172.564C62.493 173.142 61.3543 173.447 60.1992 173.447C43.6983 173.447 47.4476 172.873 37.1953 176.29C36.3576 176.573 35.4053 176.13 35.1123 175.248C34.8246 174.385 35.2913 173.453 36.1543 173.165L36.6748 172.991V158.513C34.9324 158.51 34.3985 156.164 35.938 155.393C38.3582 154.183 39.4319 153.463 41.3547 153.463H54.2434C57.8798 153.463 60.3586 157.129 59.0583 160.49C63.0516 160.49 63.5357 160.622 64.5266 160.049C71.5618 155.987 68.5609 157.72 76.258 153.276C79.6716 151.307 84.0003 153.756 84.0003 157.742Z" fill="#FFDECC"/>
<path d="M84 157.742C84 159.582 83.0107 161.296 81.4185 162.215L63.493 172.564C61.5754 173.671 60.3468 173.447 56 173.447V153.771C58.7288 154.761 60.0971 157.805 59.058 160.49C63.0513 160.49 63.5354 160.622 64.5263 160.049C71.5615 155.987 68.5606 157.72 76.2577 153.276C79.6713 151.307 84 153.756 84 157.742Z" fill="#FFCFB5"/>
<path d="M81.8333 153.544C69.7511 160.898 73.2069 158.84 66.1731 162.901C65.1728 163.479 64.0341 163.784 62.8789 163.784H47.2154C46.3062 163.784 45.5684 163.046 45.5684 162.137C45.5684 161.228 46.3062 160.49 47.2154 160.49H62.8789C63.4565 160.49 64.0264 160.337 64.526 160.048C71.5613 155.987 68.5603 157.719 76.2575 153.276C78.0604 152.236 80.2379 152.409 81.8333 153.544Z" fill="#FFCFB5"/>
<path d="M81.8336 153.544C69.7514 160.898 73.2072 158.84 66.1733 162.901C65.173 163.479 64.0344 163.784 62.8792 163.784H56V160.49H62.8792C63.4568 160.49 64.0267 160.337 64.5263 160.048C71.5615 155.987 68.5606 157.719 76.2577 153.276C78.0607 152.236 80.2381 152.409 81.8336 153.544Z" fill="#FFB78F"/>
<path d="M28 154C28 152.895 28.8954 152 30 152H36C37.1046 152 38 152.895 38 154V178C38 179.105 37.1046 180 36 180H30C28.8954 180 28 179.105 28 178V154Z" fill="#157DF5"/>
<defs>
<filter id="filter0_dd_58767_11984" x="6" y="9" width="100" height="100" filterUnits="userSpaceOnUse" color-interpolation-filters="sRGB">
<feFlood flood-opacity="0" result="BackgroundImageFix"/>
<feColorMatrix in="SourceAlpha" type="matrix" values="0 0 0 0 0 0 0 0 0 0 0 0 0 0 0 0 0 0 127 0" result="hardAlpha"/>
<feOffset dy="3"/>
<feGaussianBlur stdDeviation="5"/>
<feColorMatrix type="matrix" values="0 0 0 0 0.516667 0 0 0 0 0.578358 0 0 0 0 0.775 0 0 0 0.12 0"/>
<feBlend mode="normal" in2="BackgroundImageFix" result="effect1_dropShadow_58767_11984"/>
<feColorMatrix in="SourceAlpha" type="matrix" values="0 0 0 0 0 0 0 0 0 0 0 0 0 0 0 0 0 0 127 0" result="hardAlpha"/>
<feOffset dy="1"/>
<feGaussianBlur stdDeviation="3"/>
<feColorMatrix type="matrix" values="0 0 0 0 0.709809 0 0 0 0 0.788943 0 0 0 0 0.920833 0 0 0 0.15 0"/>
<feBlend mode="normal" in2="effect1_dropShadow_58767_11984" result="effect2_dropShadow_58767_11984"/>
<feBlend mode="normal" in="SourceGraphic" in2="effect2_dropShadow_58767_11984" result="shape"/>
</filter>
</defs>
</svg>
