<svg width="112" height="208" viewBox="0 0 112 208" fill="none" xmlns="http://www.w3.org/2000/svg">
<rect x="0.5" y="0.5" width="111" height="207" rx="4.5" stroke="#9747FF" stroke-dasharray="10 5"/>
<g filter="url(#filter0_d_11790_61204)">
<rect x="16" y="16" width="80" height="80" rx="8" fill="white"/>
</g>
<path d="M78.551 78.79L33.7656 81.79V45.2224L56.158 29.6094L78.551 45.2224V78.79Z" fill="#E2EFFE"/>
<path d="M78.3852 45.2224L55.9922 29.6094V81.79L78.3852 78.79V45.2224Z" fill="#B6D7FC"/>
<path d="M31.5697 51.4357C30.6282 52.1797 29.2595 52.0344 28.4975 51.1096C27.7203 50.1663 27.8704 48.7737 28.8312 48.0152L52.7476 29.1338C54.6517 27.6306 57.3455 27.6212 59.2602 29.1111L83.1565 47.7057C84.1197 48.4552 84.2823 49.8411 83.5184 50.7904C82.7651 51.7267 81.3932 51.8858 80.443 51.147L59.2612 34.6772C57.3459 33.188 54.6521 33.1984 52.7485 34.7024L31.5697 51.4357Z" fill="#0965CD"/>
<path d="M45.5898 55.6677H66.4021V81.6038H45.5898V55.6677Z" fill="#F0F7FE"/>
<path d="M55.9922 55.668H66.3983V81.604H55.9922V55.668Z" fill="#E2EFFE"/>
<path d="M45.6985 53.875C44.247 53.875 43.0703 55.0517 43.0703 56.5032V83.9817H68.9218V56.5032C68.9218 55.0517 67.7451 53.875 66.2936 53.875H45.6985ZM53.1719 68.9731L47.5038 75.8321V62.1561L53.1719 68.9731ZM49.9561 58.2248H62.0539L55.9958 65.5215L49.9561 58.2248ZM55.9958 72.4157L62.0354 79.6313H50.0711L55.9958 72.4157ZM58.8867 68.9641L64.4883 62.1862V75.7L58.8867 68.9641Z" fill="#157DF5"/>
<path d="M68.9182 56.5032C68.9182 55.0517 67.7415 53.875 66.29 53.875H55.9922V58.2248H62.0503L55.9922 65.5215V72.4157L62.0319 79.6313H55.9922V83.9817H68.9182V56.5032ZM64.4847 75.7L58.8831 68.9641L64.4847 62.1862V75.7Z" fill="#0965CD"/>
<path d="M29.832 81.761C29.832 80.5252 30.8338 79.5234 32.0696 79.5234H70.4752C71.711 79.5234 72.7128 80.5252 72.7128 81.761C72.7128 82.9968 71.711 83.9986 70.4752 83.9986H32.0696C30.8338 83.9986 29.832 82.9968 29.832 81.761Z" fill="#40D98D"/>
<path d="M55.9922 79.5234H70.4713C71.7071 79.5234 72.7089 80.5252 72.7089 81.761C72.7089 82.9968 71.7071 83.9986 70.4713 83.9986H55.9922V79.5234Z" fill="#25BB71"/>
<path d="M55.9944 28C54.8454 28.0052 53.6981 28.3834 52.7476 29.1338L28.8312 48.0151C27.8704 48.7736 27.7203 50.1662 28.4975 51.1095C29.2595 52.0343 30.6282 52.1796 31.5697 51.4357L52.7485 34.7023C53.6986 33.9516 54.8456 33.5731 55.9944 33.5673V28Z" fill="#157DF5"/>
<path d="M52.1758 45.8182C52.1758 43.7095 53.8852 42 55.994 42V49.6363H53.4485C52.7456 49.6363 52.1758 49.0665 52.1758 48.3636V45.8182Z" fill="#157DF5"/>
<path d="M55.9922 42C58.1009 42 59.8104 43.7095 59.8104 45.8182V48.3636C59.8104 49.0665 59.2406 49.6363 58.5376 49.6363H55.9922V42Z" fill="#0965CD"/>
<path d="M71.0012 57C65.4788 57 61.002 61.5998 61.002 67.2739C61.002 67.2739 60.6284 75.8041 70.1957 80.8142C70.6663 81.0606 71.2227 81.0625 71.6935 80.8166C74.0353 79.5933 81.0004 75.2817 81.0004 67.2739C81.0004 61.5998 76.5236 57 71.0012 57Z" fill="#40D98D"/>
<path fill-rule="evenodd" clip-rule="evenodd" d="M71.6935 80.8166C71.2227 81.0625 70.6663 81.0606 70.1957 80.8142C60.6284 75.8041 61.002 67.2739 61.002 67.2739C61.002 61.5998 65.4788 57 71.0012 57C76.5236 57 81.0004 61.5998 81.0004 67.2739C81.0004 75.2817 74.0353 79.5933 71.6935 80.8166ZM58.002 67.2266C58.0012 67.2608 58.0005 67.3028 58.0002 67.3521C57.9995 67.455 58.0007 67.5902 58.0064 67.7548C58.0179 68.0834 58.0476 68.5312 58.1183 69.0729C58.2591 70.1536 58.5652 71.6267 59.2253 73.2786C60.5648 76.6304 63.3212 80.6007 68.804 83.4719L68.8041 83.4719C70.139 84.1709 71.7342 84.1799 73.0824 83.4757L73.0824 83.4757C74.4198 82.7771 77.0823 81.1999 79.4424 78.6102C81.8289 75.9917 84.0004 72.223 84.0004 67.2739C84.0004 60.0201 78.2566 54 71.0012 54C63.7616 54 58.027 59.9939 58.002 67.2266Z" fill="white"/>
<path d="M71 57H71.0012C76.5236 57 81.0004 61.5998 81.0004 67.2739C81.0004 75.2817 74.0353 79.5933 71.6935 80.8166C71.475 80.9307 71.2382 80.9914 71 80.9992V57Z" fill="#25BB71"/>
<circle cx="71" cy="67" r="4" fill="#F0F7FE"/>
<path d="M71 71V63C68.7909 63 67 64.7909 67 67C67 69.2091 68.7909 71 71 71Z" fill="white"/>
<path d="M78.551 174.79L33.7656 177.79V141.222L56.158 125.609L78.551 141.222V174.79Z" fill="#E2EFFE"/>
<path d="M78.3852 141.222L55.9922 125.609V177.79L78.3852 174.79V141.222Z" fill="#B6D7FC"/>
<path d="M31.5697 147.436C30.6282 148.18 29.2595 148.034 28.4975 147.11C27.7203 146.166 27.8704 144.774 28.8312 144.015L52.7476 125.134C54.6517 123.631 57.3455 123.621 59.2602 125.111L83.1565 143.706C84.1197 144.455 84.2823 145.841 83.5184 146.79C82.7651 147.727 81.3932 147.886 80.443 147.147L59.2612 130.677C57.3459 129.188 54.6521 129.198 52.7485 130.702L31.5697 147.436Z" fill="#0965CD"/>
<path d="M45.5898 151.668H66.4021V177.604H45.5898V151.668Z" fill="#F0F7FE"/>
<path d="M55.9922 151.668H66.3983V177.604H55.9922V151.668Z" fill="#E2EFFE"/>
<path d="M45.6985 149.875C44.247 149.875 43.0703 151.052 43.0703 152.503V179.982H68.9218V152.503C68.9218 151.052 67.7451 149.875 66.2936 149.875H45.6985ZM53.1719 164.973L47.5038 171.832V158.156L53.1719 164.973ZM49.9561 154.225H62.0539L55.9958 161.522L49.9561 154.225ZM55.9958 168.416L62.0354 175.631H50.0711L55.9958 168.416ZM58.8867 164.964L64.4883 158.186V171.7L58.8867 164.964Z" fill="#157DF5"/>
<path d="M68.9182 152.503C68.9182 151.052 67.7415 149.875 66.29 149.875H55.9922V154.225H62.0503L55.9922 161.522V168.416L62.0319 175.631H55.9922V179.982H68.9182V152.503ZM64.4847 171.7L58.8831 164.964L64.4847 158.186V171.7Z" fill="#0965CD"/>
<path d="M29.832 177.761C29.832 176.525 30.8338 175.523 32.0696 175.523H70.4752C71.711 175.523 72.7128 176.525 72.7128 177.761C72.7128 178.997 71.711 179.999 70.4752 179.999H32.0696C30.8338 179.999 29.832 178.997 29.832 177.761Z" fill="#40D98D"/>
<path d="M55.9922 175.523H70.4713C71.7071 175.523 72.7089 176.525 72.7089 177.761C72.7089 178.997 71.7071 179.999 70.4713 179.999H55.9922V175.523Z" fill="#25BB71"/>
<path d="M55.9944 124C54.8454 124.005 53.6981 124.383 52.7476 125.134L28.8312 144.015C27.8704 144.774 27.7203 146.166 28.4975 147.11C29.2595 148.034 30.6282 148.18 31.5697 147.436L52.7485 130.702C53.6986 129.952 54.8456 129.573 55.9944 129.567V124Z" fill="#157DF5"/>
<path d="M52.1758 141.818C52.1758 139.709 53.8852 138 55.994 138V145.636H53.4485C52.7456 145.636 52.1758 145.067 52.1758 144.364V141.818Z" fill="#157DF5"/>
<path d="M55.9922 138C58.1009 138 59.8104 139.709 59.8104 141.818V144.364C59.8104 145.067 59.2406 145.636 58.5376 145.636H55.9922V138Z" fill="#0965CD"/>
<path d="M71.0012 153C65.4788 153 61.002 157.6 61.002 163.274C61.002 163.274 60.6284 171.804 70.1957 176.814C70.6663 177.061 71.2227 177.062 71.6935 176.817C74.0353 175.593 81.0004 171.282 81.0004 163.274C81.0004 157.6 76.5236 153 71.0012 153Z" fill="#40D98D"/>
<path fill-rule="evenodd" clip-rule="evenodd" d="M71.6935 176.817C71.2227 177.062 70.6663 177.061 70.1957 176.814C60.6284 171.804 61.002 163.274 61.002 163.274C61.002 157.6 65.4788 153 71.0012 153C76.5236 153 81.0004 157.6 81.0004 163.274C81.0004 171.282 74.0353 175.593 71.6935 176.817ZM58.002 163.227C58.0012 163.261 58.0005 163.303 58.0002 163.352C57.9995 163.455 58.0007 163.59 58.0064 163.755C58.0179 164.083 58.0476 164.531 58.1183 165.073C58.2591 166.154 58.5652 167.627 59.2253 169.279C60.5648 172.63 63.3212 176.601 68.804 179.472L68.8041 179.472C70.139 180.171 71.7342 180.18 73.0824 179.476L73.0824 179.476C74.4198 178.777 77.0823 177.2 79.4424 174.61C81.8289 171.992 84.0004 168.223 84.0004 163.274C84.0004 156.02 78.2566 150 71.0012 150C63.7616 150 58.027 155.994 58.002 163.227Z" fill="white"/>
<path d="M71 153H71.0012C76.5236 153 81.0004 157.6 81.0004 163.274C81.0004 171.282 74.0353 175.593 71.6935 176.817C71.475 176.931 71.2382 176.991 71 176.999V153Z" fill="#25BB71"/>
<circle cx="71" cy="163" r="4" fill="#F0F7FE"/>
<path d="M71 167V159C68.7909 159 67 160.791 67 163C67 165.209 68.7909 167 71 167Z" fill="white"/>
<defs>
<filter id="filter0_d_11790_61204" x="10" y="9" width="96" height="96" filterUnits="userSpaceOnUse" color-interpolation-filters="sRGB">
<feFlood flood-opacity="0" result="BackgroundImageFix"/>
<feColorMatrix in="SourceAlpha" type="matrix" values="0 0 0 0 0 0 0 0 0 0 0 0 0 0 0 0 0 0 127 0" result="hardAlpha"/>
<feOffset dx="2" dy="1"/>
<feGaussianBlur stdDeviation="4"/>
<feColorMatrix type="matrix" values="0 0 0 0 0.0392157 0 0 0 0 0.0392157 0 0 0 0 0.0627451 0 0 0 0.08 0"/>
<feBlend mode="normal" in2="BackgroundImageFix" result="effect1_dropShadow_11790_61204"/>
<feBlend mode="normal" in="SourceGraphic" in2="effect1_dropShadow_11790_61204" result="shape"/>
</filter>
</defs>
</svg>
