<svg width="561" height="77" viewBox="0 0 561 77" fill="none" xmlns="http://www.w3.org/2000/svg">
<path d="M7.8125 17.7344V60H0.546875V17.7344H7.8125ZM0 6.52344C0 5.35156 0.351562 4.36198 1.05469 3.55469C1.78385 2.7474 2.85156 2.34375 4.25781 2.34375C5.63802 2.34375 6.69271 2.7474 7.42188 3.55469C8.17708 4.36198 8.55469 5.35156 8.55469 6.52344C8.55469 7.64323 8.17708 8.60677 7.42188 9.41406C6.69271 10.1953 5.63802 10.5859 4.25781 10.5859C2.85156 10.5859 1.78385 10.1953 1.05469 9.41406C0.351562 8.60677 0 7.64323 0 6.52344ZM54.8438 41.9141H62.3438C61.9531 45.5078 60.9245 48.724 59.2578 51.5625C57.5911 54.401 55.2344 56.6536 52.1875 58.3203C49.1406 59.9609 45.3385 60.7812 40.7812 60.7812C37.4479 60.7812 34.4141 60.1562 31.6797 58.9062C28.9714 57.6562 26.6406 55.8854 24.6875 53.5938C22.7344 51.276 21.224 48.5026 20.1562 45.2734C19.1146 42.0182 18.5938 38.3984 18.5938 34.4141V28.75C18.5938 24.7656 19.1146 21.1589 20.1562 17.9297C21.224 14.6745 22.7474 11.888 24.7266 9.57031C26.7318 7.2526 29.1406 5.46875 31.9531 4.21875C34.7656 2.96875 37.9297 2.34375 41.4453 2.34375C45.7422 2.34375 49.375 3.15104 52.3438 4.76562C55.3125 6.38021 57.6172 8.61979 59.2578 11.4844C60.9245 14.3229 61.9531 17.6172 62.3438 21.3672H54.8438C54.4792 18.7109 53.8021 16.4323 52.8125 14.5312C51.8229 12.6042 50.4167 11.1198 48.5938 10.0781C46.7708 9.03646 44.388 8.51562 41.4453 8.51562C38.9193 8.51562 36.6927 8.9974 34.7656 9.96094C32.8646 10.9245 31.263 12.2917 29.9609 14.0625C28.6849 15.8333 27.7214 17.9557 27.0703 20.4297C26.4193 22.9036 26.0938 25.651 26.0938 28.6719V34.4141C26.0938 37.2005 26.3802 39.8177 26.9531 42.2656C27.5521 44.7135 28.4505 46.862 29.6484 48.7109C30.8464 50.5599 32.3698 52.0182 34.2188 53.0859C36.0677 54.1276 38.2552 54.6484 40.7812 54.6484C43.9844 54.6484 46.5365 54.1406 48.4375 53.125C50.3385 52.1094 51.7708 50.651 52.7344 48.75C53.724 46.849 54.4271 44.5703 54.8438 41.9141ZM96.4453 52.7734V31.0156C96.4453 29.349 96.1068 27.9036 95.4297 26.6797C94.7786 25.4297 93.7891 24.4661 92.4609 23.7891C91.1328 23.112 89.4922 22.7734 87.5391 22.7734C85.7161 22.7734 84.1146 23.0859 82.7344 23.7109C81.3802 24.3359 80.3125 25.1562 79.5312 26.1719C78.776 27.1875 78.3984 28.2812 78.3984 29.4531H71.1719C71.1719 27.9427 71.5625 26.4453 72.3438 24.9609C73.125 23.4766 74.2448 22.1354 75.7031 20.9375C77.1875 19.7135 78.9583 18.75 81.0156 18.0469C83.099 17.3177 85.4167 16.9531 87.9688 16.9531C91.0417 16.9531 93.75 17.474 96.0938 18.5156C98.4635 19.5573 100.312 21.1328 101.641 23.2422C102.995 25.3255 103.672 27.9427 103.672 31.0938V50.7812C103.672 52.1875 103.789 53.6849 104.023 55.2734C104.284 56.862 104.661 58.2292 105.156 59.375V60H97.6172C97.2526 59.1667 96.9661 58.0599 96.7578 56.6797C96.5495 55.2734 96.4453 53.9714 96.4453 52.7734ZM97.6953 34.375L97.7734 39.4531H90.4688C88.4115 39.4531 86.5755 39.6224 84.9609 39.9609C83.3464 40.2734 81.9922 40.7552 80.8984 41.4062C79.8047 42.0573 78.9714 42.8776 78.3984 43.8672C77.8255 44.8307 77.5391 45.9635 77.5391 47.2656C77.5391 48.5938 77.8385 49.8047 78.4375 50.8984C79.0365 51.9922 79.9349 52.8646 81.1328 53.5156C82.3568 54.1406 83.8542 54.4531 85.625 54.4531C87.8385 54.4531 89.7917 53.9844 91.4844 53.0469C93.1771 52.1094 94.5182 50.9635 95.5078 49.6094C96.5234 48.2552 97.0703 46.9401 97.1484 45.6641L100.234 49.1406C100.052 50.2344 99.5573 51.4453 98.75 52.7734C97.9427 54.1016 96.862 55.3776 95.5078 56.6016C94.1797 57.7995 92.5911 58.8021 90.7422 59.6094C88.9193 60.3906 86.862 60.7812 84.5703 60.7812C81.7057 60.7812 79.1927 60.2214 77.0312 59.1016C74.8958 57.9818 73.2292 56.4844 72.0312 54.6094C70.8594 52.7083 70.2734 50.5859 70.2734 48.2422C70.2734 45.9766 70.7161 43.9844 71.6016 42.2656C72.487 40.5208 73.763 39.0755 75.4297 37.9297C77.0964 36.7578 79.1016 35.8724 81.4453 35.2734C83.7891 34.6745 86.4062 34.375 89.2969 34.375H97.6953ZM132.734 17.7344V23.2812H109.883V17.7344H132.734ZM117.617 7.46094H124.844V49.5312C124.844 50.9635 125.065 52.0443 125.508 52.7734C125.951 53.5026 126.523 53.9844 127.227 54.2188C127.93 54.4531 128.685 54.5703 129.492 54.5703C130.091 54.5703 130.716 54.5182 131.367 54.4141C132.044 54.2839 132.552 54.1797 132.891 54.1016L132.93 60C132.357 60.1823 131.602 60.3516 130.664 60.5078C129.753 60.6901 128.646 60.7812 127.344 60.7812C125.573 60.7812 123.945 60.4297 122.461 59.7266C120.977 59.0234 119.792 57.8516 118.906 56.2109C118.047 54.5443 117.617 52.3047 117.617 49.4922V7.46094ZM158.75 60.7812C155.807 60.7812 153.138 60.2865 150.742 59.2969C148.372 58.2812 146.328 56.862 144.609 55.0391C142.917 53.2161 141.615 51.0547 140.703 48.5547C139.792 46.0547 139.336 43.3203 139.336 40.3516V38.7109C139.336 35.2734 139.844 32.2135 140.859 29.5312C141.875 26.8229 143.255 24.5312 145 22.6562C146.745 20.7812 148.724 19.362 150.938 18.3984C153.151 17.4349 155.443 16.9531 157.812 16.9531C160.833 16.9531 163.438 17.474 165.625 18.5156C167.839 19.5573 169.648 21.0156 171.055 22.8906C172.461 24.7396 173.503 26.9271 174.18 29.4531C174.857 31.9531 175.195 34.6875 175.195 37.6562V40.8984H143.633V35H167.969V34.4531C167.865 32.5781 167.474 30.7552 166.797 28.9844C166.146 27.2135 165.104 25.7552 163.672 24.6094C162.24 23.4635 160.286 22.8906 157.812 22.8906C156.172 22.8906 154.661 23.2422 153.281 23.9453C151.901 24.6224 150.716 25.638 149.727 26.9922C148.737 28.3464 147.969 30 147.422 31.9531C146.875 33.9062 146.602 36.1589 146.602 38.7109V40.3516C146.602 42.3568 146.875 44.2448 147.422 46.0156C147.995 47.7604 148.815 49.2969 149.883 50.625C150.977 51.9531 152.292 52.9948 153.828 53.75C155.391 54.5052 157.161 54.8828 159.141 54.8828C161.693 54.8828 163.854 54.362 165.625 53.3203C167.396 52.2786 168.945 50.8854 170.273 49.1406L174.648 52.6172C173.737 53.9974 172.578 55.3125 171.172 56.5625C169.766 57.8125 168.034 58.8281 165.977 59.6094C163.945 60.3906 161.536 60.7812 158.75 60.7812ZM190.859 24.375V60H183.633V17.7344H190.664L190.859 24.375ZM204.062 17.5L204.023 24.2188C203.424 24.0885 202.852 24.0104 202.305 23.9844C201.784 23.9323 201.185 23.9062 200.508 23.9062C198.841 23.9062 197.37 24.1667 196.094 24.6875C194.818 25.2083 193.737 25.9375 192.852 26.875C191.966 27.8125 191.263 28.9323 190.742 30.2344C190.247 31.5104 189.922 32.9167 189.766 34.4531L187.734 35.625C187.734 33.0729 187.982 30.6771 188.477 28.4375C188.997 26.1979 189.792 24.2188 190.859 22.5C191.927 20.7552 193.281 19.401 194.922 18.4375C196.589 17.4479 198.568 16.9531 200.859 16.9531C201.38 16.9531 201.979 17.0182 202.656 17.1484C203.333 17.2526 203.802 17.3698 204.062 17.5ZM218.594 17.7344V60H211.328V17.7344H218.594ZM210.781 6.52344C210.781 5.35156 211.133 4.36198 211.836 3.55469C212.565 2.7474 213.633 2.34375 215.039 2.34375C216.419 2.34375 217.474 2.7474 218.203 3.55469C218.958 4.36198 219.336 5.35156 219.336 6.52344C219.336 7.64323 218.958 8.60677 218.203 9.41406C217.474 10.1953 216.419 10.5859 215.039 10.5859C213.633 10.5859 212.565 10.1953 211.836 9.41406C211.133 8.60677 210.781 7.64323 210.781 6.52344ZM237.422 26.7578V60H230.195V17.7344H237.031L237.422 26.7578ZM235.703 37.2656L232.695 37.1484C232.721 34.2578 233.151 31.5885 233.984 29.1406C234.818 26.6667 235.99 24.5182 237.5 22.6953C239.01 20.8724 240.807 19.4661 242.891 18.4766C245 17.4609 247.331 16.9531 249.883 16.9531C251.966 16.9531 253.841 17.2396 255.508 17.8125C257.174 18.3594 258.594 19.2448 259.766 20.4688C260.964 21.6927 261.875 23.2812 262.5 25.2344C263.125 27.1615 263.438 29.5182 263.438 32.3047V60H256.172V32.2266C256.172 30.013 255.846 28.2422 255.195 26.9141C254.544 25.5599 253.594 24.5833 252.344 23.9844C251.094 23.3594 249.557 23.0469 247.734 23.0469C245.938 23.0469 244.297 23.4245 242.812 24.1797C241.354 24.9349 240.091 25.9766 239.023 27.3047C237.982 28.6328 237.161 30.1562 236.562 31.875C235.99 33.5677 235.703 35.3646 235.703 37.2656ZM301.797 17.7344H308.359V59.1016C308.359 62.8255 307.604 66.0026 306.094 68.6328C304.583 71.263 302.474 73.2552 299.766 74.6094C297.083 75.9896 293.984 76.6797 290.469 76.6797C289.01 76.6797 287.292 76.4453 285.312 75.9766C283.359 75.5339 281.432 74.7656 279.531 73.6719C277.656 72.6042 276.081 71.1589 274.805 69.3359L278.594 65.0391C280.365 67.1745 282.214 68.6589 284.141 69.4922C286.094 70.3255 288.021 70.7422 289.922 70.7422C292.214 70.7422 294.193 70.3125 295.859 69.4531C297.526 68.5938 298.815 67.3177 299.727 65.625C300.664 63.9583 301.133 61.901 301.133 59.4531V27.0312L301.797 17.7344ZM272.695 39.3359V38.5156C272.695 35.2865 273.073 32.3568 273.828 29.7266C274.609 27.0703 275.716 24.7917 277.148 22.8906C278.607 20.9896 280.365 19.5312 282.422 18.5156C284.479 17.474 286.797 16.9531 289.375 16.9531C292.031 16.9531 294.349 17.4219 296.328 18.3594C298.333 19.2708 300.026 20.612 301.406 22.3828C302.812 24.1276 303.919 26.237 304.727 28.7109C305.534 31.1849 306.094 33.9844 306.406 37.1094V40.7031C306.12 43.8021 305.56 46.5885 304.727 49.0625C303.919 51.5365 302.812 53.6458 301.406 55.3906C300.026 57.1354 298.333 58.4766 296.328 59.4141C294.323 60.3255 291.979 60.7812 289.297 60.7812C286.771 60.7812 284.479 60.2474 282.422 59.1797C280.391 58.112 278.646 56.6146 277.188 54.6875C275.729 52.7604 274.609 50.4948 273.828 47.8906C273.073 45.2604 272.695 42.4089 272.695 39.3359ZM279.922 38.5156V39.3359C279.922 41.4453 280.13 43.4245 280.547 45.2734C280.99 47.1224 281.654 48.75 282.539 50.1562C283.451 51.5625 284.609 52.6693 286.016 53.4766C287.422 54.2578 289.102 54.6484 291.055 54.6484C293.451 54.6484 295.43 54.1406 296.992 53.125C298.555 52.1094 299.792 50.7682 300.703 49.1016C301.641 47.4349 302.37 45.625 302.891 43.6719V34.2578C302.604 32.8255 302.161 31.4453 301.562 30.1172C300.99 28.763 300.234 27.5651 299.297 26.5234C298.385 25.4557 297.253 24.6094 295.898 23.9844C294.544 23.3594 292.956 23.0469 291.133 23.0469C289.154 23.0469 287.448 23.4635 286.016 24.2969C284.609 25.1042 283.451 26.224 282.539 27.6562C281.654 29.0625 280.99 30.7031 280.547 32.5781C280.13 34.4271 279.922 36.4062 279.922 38.5156ZM374.609 41.9141H382.109C381.719 45.5078 380.69 48.724 379.023 51.5625C377.357 54.401 375 56.6536 371.953 58.3203C368.906 59.9609 365.104 60.7812 360.547 60.7812C357.214 60.7812 354.18 60.1562 351.445 58.9062C348.737 57.6562 346.406 55.8854 344.453 53.5938C342.5 51.276 340.99 48.5026 339.922 45.2734C338.88 42.0182 338.359 38.3984 338.359 34.4141V28.75C338.359 24.7656 338.88 21.1589 339.922 17.9297C340.99 14.6745 342.513 11.888 344.492 9.57031C346.497 7.2526 348.906 5.46875 351.719 4.21875C354.531 2.96875 357.695 2.34375 361.211 2.34375C365.508 2.34375 369.141 3.15104 372.109 4.76562C375.078 6.38021 377.383 8.61979 379.023 11.4844C380.69 14.3229 381.719 17.6172 382.109 21.3672H374.609C374.245 18.7109 373.568 16.4323 372.578 14.5312C371.589 12.6042 370.182 11.1198 368.359 10.0781C366.536 9.03646 364.154 8.51562 361.211 8.51562C358.685 8.51562 356.458 8.9974 354.531 9.96094C352.63 10.9245 351.029 12.2917 349.727 14.0625C348.451 15.8333 347.487 17.9557 346.836 20.4297C346.185 22.9036 345.859 25.651 345.859 28.6719V34.4141C345.859 37.2005 346.146 39.8177 346.719 42.2656C347.318 44.7135 348.216 46.862 349.414 48.7109C350.612 50.5599 352.135 52.0182 353.984 53.0859C355.833 54.1276 358.021 54.6484 360.547 54.6484C363.75 54.6484 366.302 54.1406 368.203 53.125C370.104 52.1094 371.536 50.651 372.5 48.75C373.49 46.849 374.193 44.5703 374.609 41.9141ZM389.375 39.3359V38.4375C389.375 35.3906 389.818 32.5651 390.703 29.9609C391.589 27.3307 392.865 25.0521 394.531 23.125C396.198 21.1719 398.216 19.6615 400.586 18.5938C402.956 17.5 405.612 16.9531 408.555 16.9531C411.523 16.9531 414.193 17.5 416.562 18.5938C418.958 19.6615 420.99 21.1719 422.656 23.125C424.349 25.0521 425.638 27.3307 426.523 29.9609C427.409 32.5651 427.852 35.3906 427.852 38.4375V39.3359C427.852 42.3828 427.409 45.2083 426.523 47.8125C425.638 50.4167 424.349 52.6953 422.656 54.6484C420.99 56.5755 418.971 58.0859 416.602 59.1797C414.258 60.2474 411.602 60.7812 408.633 60.7812C405.664 60.7812 402.995 60.2474 400.625 59.1797C398.255 58.0859 396.224 56.5755 394.531 54.6484C392.865 52.6953 391.589 50.4167 390.703 47.8125C389.818 45.2083 389.375 42.3828 389.375 39.3359ZM396.602 38.4375V39.3359C396.602 41.4453 396.849 43.4375 397.344 45.3125C397.839 47.1615 398.581 48.8021 399.57 50.2344C400.586 51.6667 401.849 52.7995 403.359 53.6328C404.87 54.4401 406.628 54.8438 408.633 54.8438C410.612 54.8438 412.344 54.4401 413.828 53.6328C415.339 52.7995 416.589 51.6667 417.578 50.2344C418.568 48.8021 419.31 47.1615 419.805 45.3125C420.326 43.4375 420.586 41.4453 420.586 39.3359V38.4375C420.586 36.3542 420.326 34.388 419.805 32.5391C419.31 30.6641 418.555 29.0104 417.539 27.5781C416.549 26.1198 415.299 24.974 413.789 24.1406C412.305 23.3073 410.56 22.8906 408.555 22.8906C406.576 22.8906 404.831 23.3073 403.32 24.1406C401.836 24.974 400.586 26.1198 399.57 27.5781C398.581 29.0104 397.839 30.6641 397.344 32.5391C396.849 34.388 396.602 36.3542 396.602 38.4375ZM444.766 0V60H437.5V0H444.766ZM454.453 39.3359V38.4375C454.453 35.3906 454.896 32.5651 455.781 29.9609C456.667 27.3307 457.943 25.0521 459.609 23.125C461.276 21.1719 463.294 19.6615 465.664 18.5938C468.034 17.5 470.69 16.9531 473.633 16.9531C476.602 16.9531 479.271 17.5 481.641 18.5938C484.036 19.6615 486.068 21.1719 487.734 23.125C489.427 25.0521 490.716 27.3307 491.602 29.9609C492.487 32.5651 492.93 35.3906 492.93 38.4375V39.3359C492.93 42.3828 492.487 45.2083 491.602 47.8125C490.716 50.4167 489.427 52.6953 487.734 54.6484C486.068 56.5755 484.049 58.0859 481.68 59.1797C479.336 60.2474 476.68 60.7812 473.711 60.7812C470.742 60.7812 468.073 60.2474 465.703 59.1797C463.333 58.0859 461.302 56.5755 459.609 54.6484C457.943 52.6953 456.667 50.4167 455.781 47.8125C454.896 45.2083 454.453 42.3828 454.453 39.3359ZM461.68 38.4375V39.3359C461.68 41.4453 461.927 43.4375 462.422 45.3125C462.917 47.1615 463.659 48.8021 464.648 50.2344C465.664 51.6667 466.927 52.7995 468.438 53.6328C469.948 54.4401 471.706 54.8438 473.711 54.8438C475.69 54.8438 477.422 54.4401 478.906 53.6328C480.417 52.7995 481.667 51.6667 482.656 50.2344C483.646 48.8021 484.388 47.1615 484.883 45.3125C485.404 43.4375 485.664 41.4453 485.664 39.3359V38.4375C485.664 36.3542 485.404 34.388 484.883 32.5391C484.388 30.6641 483.633 29.0104 482.617 27.5781C481.628 26.1198 480.378 24.974 478.867 24.1406C477.383 23.3073 475.638 22.8906 473.633 22.8906C471.654 22.8906 469.909 23.3073 468.398 24.1406C466.914 24.974 465.664 26.1198 464.648 27.5781C463.659 29.0104 462.917 30.6641 462.422 32.5391C461.927 34.388 461.68 36.3542 461.68 38.4375ZM509.219 24.375V60H501.992V17.7344H509.023L509.219 24.375ZM522.422 17.5L522.383 24.2188C521.784 24.0885 521.211 24.0104 520.664 23.9844C520.143 23.9323 519.544 23.9062 518.867 23.9062C517.201 23.9062 515.729 24.1667 514.453 24.6875C513.177 25.2083 512.096 25.9375 511.211 26.875C510.326 27.8125 509.622 28.9323 509.102 30.2344C508.607 31.5104 508.281 32.9167 508.125 34.4531L506.094 35.625C506.094 33.0729 506.341 30.6771 506.836 28.4375C507.357 26.1979 508.151 24.2188 509.219 22.5C510.286 20.7552 511.641 19.401 513.281 18.4375C514.948 17.4479 516.927 16.9531 519.219 16.9531C519.74 16.9531 520.339 17.0182 521.016 17.1484C521.693 17.2526 522.161 17.3698 522.422 17.5ZM553.711 48.7891C553.711 47.7474 553.477 46.7839 553.008 45.8984C552.565 44.987 551.641 44.1667 550.234 43.4375C548.854 42.6823 546.771 42.0312 543.984 41.4844C541.641 40.9896 539.518 40.4036 537.617 39.7266C535.742 39.0495 534.141 38.2292 532.812 37.2656C531.51 36.3021 530.508 35.1693 529.805 33.8672C529.102 32.5651 528.75 31.0417 528.75 29.2969C528.75 27.6302 529.115 26.0547 529.844 24.5703C530.599 23.0859 531.654 21.7708 533.008 20.625C534.388 19.4792 536.042 18.5807 537.969 17.9297C539.896 17.2786 542.044 16.9531 544.414 16.9531C547.799 16.9531 550.69 17.5521 553.086 18.75C555.482 19.9479 557.318 21.5495 558.594 23.5547C559.87 25.5339 560.508 27.7344 560.508 30.1562H553.281C553.281 28.9844 552.93 27.8516 552.227 26.7578C551.549 25.638 550.547 24.7135 549.219 23.9844C547.917 23.2552 546.315 22.8906 544.414 22.8906C542.409 22.8906 540.781 23.2031 539.531 23.8281C538.307 24.4271 537.409 25.1953 536.836 26.1328C536.289 27.0703 536.016 28.0599 536.016 29.1016C536.016 29.8828 536.146 30.5859 536.406 31.2109C536.693 31.8099 537.188 32.3698 537.891 32.8906C538.594 33.3854 539.583 33.8542 540.859 34.2969C542.135 34.7396 543.763 35.1823 545.742 35.625C549.206 36.4062 552.057 37.3438 554.297 38.4375C556.536 39.5312 558.203 40.8724 559.297 42.4609C560.391 44.0495 560.938 45.9766 560.938 48.2422C560.938 50.0911 560.547 51.7839 559.766 53.3203C559.01 54.8568 557.904 56.1849 556.445 57.3047C555.013 58.3984 553.294 59.2578 551.289 59.8828C549.31 60.4818 547.083 60.7812 544.609 60.7812C540.885 60.7812 537.734 60.1172 535.156 58.7891C532.578 57.4609 530.625 55.7422 529.297 53.6328C527.969 51.5234 527.305 49.2969 527.305 46.9531H534.57C534.674 48.9323 535.247 50.5078 536.289 51.6797C537.331 52.8255 538.607 53.6458 540.117 54.1406C541.628 54.6094 543.125 54.8438 544.609 54.8438C546.589 54.8438 548.242 54.5833 549.57 54.0625C550.924 53.5417 551.953 52.8255 552.656 51.9141C553.359 51.0026 553.711 49.9609 553.711 48.7891Z" fill="#344054"/>
</svg>
