<svg width="112" height="208" viewBox="0 0 112 208" fill="none" xmlns="http://www.w3.org/2000/svg">
<rect x="0.5" y="0.5" width="111" height="207" rx="4.5" stroke="#9747FF" stroke-dasharray="10 5"/>
<g filter="url(#filter0_d_6367_22897)">
<rect x="16" y="16" width="80" height="80" rx="8" fill="white"/>
</g>
<path d="M72 36.4521V63.1193C72 64.9785 70.5189 66.5 68.6716 66.5H31.3283C29.4978 66.5 28 64.9785 28 63.1191V31.3809C28 29.5045 29.4978 28 31.3283 28H39.4493C40.3148 28 41.1468 28.3379 41.7625 28.9467L44.991 32.1246C45.6067 32.7331 46.4387 33.0712 47.3042 33.0712H68.6716C70.5189 33.0712 72 34.5756 72 36.4521Z" fill="#0965CD"/>
<path d="M50 33.0712H47.3042C46.4387 33.0712 45.6067 32.7331 44.991 32.1246L41.7625 28.9467C41.1468 28.3379 40.3148 28 39.4493 28H31.3283C29.4978 28 28 29.5045 28 31.3809V63.1191C28 64.9785 29.4978 66.5 31.3283 66.5H50V33.0712Z" fill="#157DF5"/>
<path d="M28 41.75H50V45.03H28V41.75Z" fill="#E2EFFE"/>
<path d="M50 41.75H72V45.03H50V41.75Z" fill="#B6D7FC"/>
<path d="M83.9977 81.9412V52.7745C83.9977 50.693 82.3047 49 80.2232 49H57.233C56.6648 49 57.233 49.4612 57.233 50.0294C57.233 50.5976 57.6942 51.0588 58.2624 51.0588C59.2088 51.0588 59.9781 51.8281 59.9781 52.7745V81.9412C59.9781 83.0763 60.9018 84 62.0369 84H81.9389C83.074 84 83.9977 83.0763 83.9977 81.9412Z" fill="#F0F7FE"/>
<path d="M83.9981 81.9412V52.7745C83.9981 50.693 82.3051 49 80.2236 49H71.9883V84H81.9393C83.0744 84 83.9981 83.0763 83.9981 81.9412Z" fill="#E2EFFE"/>
<path d="M75.4772 76.8196C75.4772 75.8877 74.7208 75.1313 73.7889 75.1313H64.2585C63.3266 75.1313 62.5703 75.8877 62.5703 76.8196C62.5703 77.7515 63.3266 78.5078 64.2585 78.5078H73.7889C74.7208 78.5078 75.4772 77.7515 75.4772 76.8196Z" fill="#157DF5"/>
<path d="M80.6022 76.8196C80.6022 75.8877 79.8459 75.1313 78.914 75.1313H71.9883V78.5078H78.914C79.8459 78.5078 80.6022 77.7515 80.6022 76.8196Z" fill="#0965CD"/>
<path d="M75.4772 57.0696C75.4772 56.1377 74.7208 55.3813 73.7889 55.3813H64.2585C63.3266 55.3813 62.5703 56.1377 62.5703 57.0696C62.5703 58.0015 63.3266 58.7578 64.2585 58.7578H73.7889C74.7208 58.7578 75.4772 58.0015 75.4772 57.0696Z" fill="#40D98D"/>
<path d="M80.6022 57.0696C80.6022 56.1377 79.8459 55.3813 78.914 55.3813H71.9883V58.7578H78.914C79.8459 58.7578 80.6022 58.0015 80.6022 57.0696Z" fill="#25BB71"/>
<path d="M75.4772 70.3821C75.4772 69.4502 74.7208 68.6938 73.7889 68.6938H64.2585C63.3266 68.6938 62.5703 69.4502 62.5703 70.3821C62.5703 71.314 63.3266 72.0703 64.2585 72.0703H73.7889C74.7208 72.0703 75.4772 71.314 75.4772 70.3821Z" fill="#282A52"/>
<path d="M80.6022 70.3821C80.6022 69.4502 79.8459 68.6938 78.914 68.6938H71.9883V72.0703H78.914C79.8459 72.0703 80.6022 71.314 80.6022 70.3821Z" fill="#1E203E"/>
<path d="M75.4772 63.4446C75.4772 62.5127 74.7208 61.7563 73.7889 61.7563H64.2585C63.3266 61.7563 62.5703 62.5127 62.5703 63.4446C62.5703 64.3765 63.3266 65.1328 64.2585 65.1328H73.7889C74.7208 65.1328 75.4772 64.3765 75.4772 63.4446Z" fill="#282A52"/>
<path d="M80.6022 63.4446C80.6022 62.5127 79.8459 61.7563 78.914 61.7563H71.9883V65.1328H78.914C79.8459 65.1328 80.6022 64.3765 80.6022 63.4446Z" fill="#1E203E"/>
<path d="M59.9785 58.1953V51.7443C59.9785 50.2283 58.7494 48.9992 57.2334 48.9992C55.7215 48.9992 54.4883 50.2241 54.4883 51.7443V56.1365C54.4883 57.2736 55.41 58.1953 56.5471 58.1953H59.9785Z" fill="#B6D7FC"/>
<path fill-rule="evenodd" clip-rule="evenodd" d="M42.5068 76.5939C41.4758 77.6249 39.8042 77.6249 38.7732 76.5939L33.4803 71.3011C32.8399 70.6606 32.8399 69.6222 33.4803 68.9817C34.1208 68.3413 35.1592 68.3413 35.7997 68.9817L39 72.1821V59.6413C39 58.7355 39.7343 58.0013 40.64 58.0013C41.5457 58.0013 42.28 58.7355 42.28 59.6413V72.1821L45.4803 68.9817C46.1208 68.3413 47.1592 68.3413 47.7997 68.9817C48.4401 69.6222 48.4401 70.6606 47.7997 71.3011L42.5068 76.5939Z" fill="#40D98D"/>
<path d="M72 132.452V159.119C72 160.979 70.5189 162.5 68.6716 162.5H31.3283C29.4978 162.5 28 160.979 28 159.119V127.381C28 125.505 29.4978 124 31.3283 124H39.4493C40.3148 124 41.1468 124.338 41.7625 124.947L44.991 128.125C45.6067 128.733 46.4387 129.071 47.3042 129.071H68.6716C70.5189 129.071 72 130.576 72 132.452Z" fill="#0965CD"/>
<path d="M50 129.071H47.3042C46.4387 129.071 45.6067 128.733 44.991 128.125L41.7625 124.947C41.1468 124.338 40.3148 124 39.4493 124H31.3283C29.4978 124 28 125.505 28 127.381V159.119C28 160.979 29.4978 162.5 31.3283 162.5H50V129.071Z" fill="#157DF5"/>
<path d="M28 137.75H50V141.03H28V137.75Z" fill="#E2EFFE"/>
<path d="M50 137.75H72V141.03H50V137.75Z" fill="#B6D7FC"/>
<path d="M83.9977 177.941V148.775C83.9977 146.693 82.3047 145 80.2232 145H57.233C56.6648 145 57.233 145.461 57.233 146.029C57.233 146.598 57.6942 147.059 58.2624 147.059C59.2088 147.059 59.9781 147.828 59.9781 148.775V177.941C59.9781 179.076 60.9018 180 62.0369 180H81.9389C83.074 180 83.9977 179.076 83.9977 177.941Z" fill="#F0F7FE"/>
<path d="M83.9981 177.941V148.775C83.9981 146.693 82.3051 145 80.2236 145H71.9883V180H81.9393C83.0744 180 83.9981 179.076 83.9981 177.941Z" fill="#E2EFFE"/>
<path d="M75.4772 172.82C75.4772 171.888 74.7208 171.131 73.7889 171.131H64.2585C63.3266 171.131 62.5703 171.888 62.5703 172.82C62.5703 173.751 63.3266 174.508 64.2585 174.508H73.7889C74.7208 174.508 75.4772 173.751 75.4772 172.82Z" fill="#157DF5"/>
<path d="M80.6022 172.82C80.6022 171.888 79.8459 171.131 78.914 171.131H71.9883V174.508H78.914C79.8459 174.508 80.6022 173.751 80.6022 172.82Z" fill="#0965CD"/>
<path d="M75.4772 153.07C75.4772 152.138 74.7208 151.381 73.7889 151.381H64.2585C63.3266 151.381 62.5703 152.138 62.5703 153.07C62.5703 154.001 63.3266 154.758 64.2585 154.758H73.7889C74.7208 154.758 75.4772 154.001 75.4772 153.07Z" fill="#40D98D"/>
<path d="M80.6022 153.07C80.6022 152.138 79.8459 151.381 78.914 151.381H71.9883V154.758H78.914C79.8459 154.758 80.6022 154.001 80.6022 153.07Z" fill="#25BB71"/>
<path d="M75.4772 166.382C75.4772 165.45 74.7208 164.694 73.7889 164.694H64.2585C63.3266 164.694 62.5703 165.45 62.5703 166.382C62.5703 167.314 63.3266 168.07 64.2585 168.07H73.7889C74.7208 168.07 75.4772 167.314 75.4772 166.382Z" fill="#282A52"/>
<path d="M80.6022 166.382C80.6022 165.45 79.8459 164.694 78.914 164.694H71.9883V168.07H78.914C79.8459 168.07 80.6022 167.314 80.6022 166.382Z" fill="#1E203E"/>
<path d="M75.4772 159.445C75.4772 158.513 74.7208 157.756 73.7889 157.756H64.2585C63.3266 157.756 62.5703 158.513 62.5703 159.445C62.5703 160.376 63.3266 161.133 64.2585 161.133H73.7889C74.7208 161.133 75.4772 160.376 75.4772 159.445Z" fill="#282A52"/>
<path d="M80.6022 159.445C80.6022 158.513 79.8459 157.756 78.914 157.756H71.9883V161.133H78.914C79.8459 161.133 80.6022 160.376 80.6022 159.445Z" fill="#1E203E"/>
<path d="M59.9785 154.195V147.744C59.9785 146.228 58.7494 144.999 57.2334 144.999C55.7215 144.999 54.4883 146.224 54.4883 147.744V152.136C54.4883 153.274 55.41 154.195 56.5471 154.195H59.9785Z" fill="#B6D7FC"/>
<path fill-rule="evenodd" clip-rule="evenodd" d="M42.5068 172.594C41.4758 173.625 39.8042 173.625 38.7732 172.594L33.4803 167.301C32.8399 166.661 32.8399 165.622 33.4803 164.982C34.1208 164.341 35.1592 164.341 35.7997 164.982L39 168.182V155.641C39 154.736 39.7343 154.001 40.64 154.001C41.5457 154.001 42.28 154.736 42.28 155.641V168.182L45.4803 164.982C46.1208 164.341 47.1592 164.341 47.7997 164.982C48.4401 165.622 48.4401 166.661 47.7997 167.301L42.5068 172.594Z" fill="#40D98D"/>
<defs>
<filter id="filter0_d_6367_22897" x="10" y="9" width="96" height="96" filterUnits="userSpaceOnUse" color-interpolation-filters="sRGB">
<feFlood flood-opacity="0" result="BackgroundImageFix"/>
<feColorMatrix in="SourceAlpha" type="matrix" values="0 0 0 0 0 0 0 0 0 0 0 0 0 0 0 0 0 0 127 0" result="hardAlpha"/>
<feOffset dx="2" dy="1"/>
<feGaussianBlur stdDeviation="4"/>
<feColorMatrix type="matrix" values="0 0 0 0 0.0392157 0 0 0 0 0.0392157 0 0 0 0 0.0627451 0 0 0 0.08 0"/>
<feBlend mode="normal" in2="BackgroundImageFix" result="effect1_dropShadow_6367_22897"/>
<feBlend mode="normal" in="SourceGraphic" in2="effect1_dropShadow_6367_22897" result="shape"/>
</filter>
</defs>
</svg>
