<svg width="112" height="208" viewBox="0 0 112 208" fill="none" xmlns="http://www.w3.org/2000/svg">
<rect x="0.5" y="0.5" width="111" height="207" rx="4.5" stroke="#9747FF" stroke-dasharray="10 5"/>
<g filter="url(#filter0_d_6367_21293)">
<rect x="16" y="16" width="80" height="80" rx="8" fill="white"/>
</g>
<path d="M76.1378 63.7353V38.7354C76.1378 36.9513 74.6867 35.5001 72.9026 35.5001H53.1969C52.7099 35.5001 53.1969 35.8954 53.1969 36.3825C53.1969 36.8696 53.5922 37.2648 54.0793 37.2648C54.8904 37.2648 55.5498 37.9243 55.5498 38.7354V63.7353C55.5498 64.7082 56.3416 65.5 57.3145 65.5H74.3731C75.3461 65.5 76.1378 64.7082 76.1378 63.7353Z" fill="#F0F7FE"/>
<path d="M76.1377 63.7353V38.7354C76.1377 36.9513 74.6866 35.5001 72.9025 35.5001H65.8438V65.5H74.3731C75.346 65.5 76.1377 64.7082 76.1377 63.7353Z" fill="#E2EFFE"/>
<path d="M69.2795 59.3424C69.2795 58.4371 68.5449 57.7024 67.6396 57.7024H61.3821C60.4769 57.7024 59.7422 58.4371 59.7422 59.3424C59.7422 60.2477 60.4769 60.9824 61.3821 60.9824H67.6396C68.5449 60.9824 69.2795 60.2477 69.2795 59.3424Z" fill="#282A52"/>
<path d="M72.258 59.3424C72.258 58.4371 71.5233 57.7024 70.6181 57.7024H65.8906V60.9824H70.6181C71.5233 60.9824 72.258 60.2477 72.258 59.3424Z" fill="#1E203E"/>
<path d="M69.2783 42.4186C69.2783 41.5133 68.5438 40.7786 67.6388 40.7786H61.3836C60.4786 40.7786 59.7441 41.5133 59.7441 42.4186C59.7441 43.3239 60.4786 44.0586 61.3836 44.0586H67.6388C68.5438 44.0586 69.2783 43.3239 69.2783 42.4186Z" fill="#157DF5"/>
<path d="M72.2578 42.4186C72.2578 41.5133 71.5233 40.7786 70.6183 40.7786H65.8926V44.0586H70.6183C71.5233 44.0586 72.2578 43.3239 72.2578 42.4186Z" fill="#0965CD"/>
<path d="M69.2779 50.8248C69.2779 49.9196 68.5434 49.1848 67.6383 49.1848H61.3819C60.4768 49.1848 59.7422 49.9196 59.7422 50.8248C59.7422 51.7301 60.4768 52.4648 61.3819 52.4648H67.6383C68.5434 52.4648 69.2779 51.7301 69.2779 50.8248Z" fill="#282A52"/>
<path d="M72.2549 50.8248C72.2549 49.9196 71.5204 49.1848 70.6153 49.1848H65.8887V52.4648H70.6153C71.5204 52.4648 72.2549 51.7301 72.2549 50.8248Z" fill="#1E203E"/>
<path d="M55.5496 43.3828V37.8534C55.5496 36.554 54.4961 35.5005 53.1967 35.5005C51.9008 35.5005 50.8438 36.5504 50.8438 37.8534V41.6181C50.8438 42.5928 51.6338 43.3828 52.6084 43.3828H55.5496Z" fill="#B6D7FC"/>
<path d="M47.8047 70.967H64.1974V83.0512H47.8047V70.967Z" fill="#40D98D"/>
<path d="M55.9961 70.967H64.1956V83.0512H55.9961V70.967Z" fill="#25BB71"/>
<path d="M68.9713 80.7227H43.0267C42.121 80.7227 41.3867 81.4569 41.3867 82.3627C41.3867 83.2684 42.121 84.0026 43.0267 84.0026H68.9712C69.8769 84.0026 70.6112 83.2684 70.6112 82.3627C70.6112 81.4569 69.877 80.7227 68.9713 80.7227Z" fill="#157DF5"/>
<path d="M68.9716 80.7227H55.9961V84.0026H68.9715C69.8772 84.0026 70.6115 83.2684 70.6115 82.3627C70.6115 81.4569 69.8773 80.7227 68.9716 80.7227Z" fill="#0965CD"/>
<path d="M78.6405 73.2932H33.3595C30.4042 73.2932 28 70.8884 28 67.9325V33.3646C28 30.4088 30.4042 28.0039 33.3595 28.0039H78.6405C81.5958 28.0039 84 30.4087 84 33.3646V67.9326C84 70.8884 81.5958 73.2932 78.6405 73.2932ZM33.3595 31.2847C32.2128 31.2847 31.28 32.2177 31.28 33.3646V67.9326C31.28 69.0794 32.2128 70.0126 33.3595 70.0126H78.6405C79.7872 70.0126 80.72 69.0795 80.72 67.9326V33.3646C80.72 32.2178 79.7872 31.2847 78.6405 31.2847H33.3595Z" fill="#157DF5"/>
<path d="M78.6398 28.0039H55.9961V31.2847H78.6397C79.7864 31.2847 80.7192 32.2177 80.7192 33.3646V67.9326C80.7192 69.0794 79.7864 70.0126 78.6397 70.0126H55.9961V73.2933H78.6397C81.595 73.2933 83.9992 70.8885 83.9992 67.9326V33.3646C83.9993 30.4088 81.5951 28.0039 78.6398 28.0039Z" fill="#0965CD"/>
<path fill-rule="evenodd" clip-rule="evenodd" d="M50.5471 48.8141C51.5781 49.8451 51.5781 51.5167 50.5471 52.5477L45.7316 57.3634C45.0911 58.0039 44.0527 58.0039 43.4123 57.3634C42.7718 56.7229 42.7718 55.6846 43.4123 55.0441L46.1359 52.3203L36.5944 52.3203C35.6886 52.3203 34.9544 51.5861 34.9544 50.6803C34.9544 49.7746 35.6886 49.0403 36.5944 49.0403L46.1346 49.0403L43.4123 46.318C42.7718 45.6775 42.7718 44.6391 43.4123 43.9986C44.0527 43.3582 45.0911 43.3582 45.7316 43.9986L50.5471 48.8141Z" fill="#40D98D"/>
<path d="M76.1378 159.735V134.735C76.1378 132.951 74.6867 131.5 72.9026 131.5H53.1969C52.7099 131.5 53.1969 131.895 53.1969 132.382C53.1969 132.87 53.5922 133.265 54.0793 133.265C54.8904 133.265 55.5498 133.924 55.5498 134.735V159.735C55.5498 160.708 56.3416 161.5 57.3145 161.5H74.3731C75.3461 161.5 76.1378 160.708 76.1378 159.735Z" fill="#F0F7FE"/>
<path d="M76.1377 159.735V134.735C76.1377 132.951 74.6866 131.5 72.9025 131.5H65.8438V161.5H74.3731C75.346 161.5 76.1377 160.708 76.1377 159.735Z" fill="#E2EFFE"/>
<path d="M69.2795 155.342C69.2795 154.437 68.5449 153.702 67.6396 153.702H61.3821C60.4769 153.702 59.7422 154.437 59.7422 155.342C59.7422 156.248 60.4769 156.982 61.3821 156.982H67.6396C68.5449 156.982 69.2795 156.248 69.2795 155.342Z" fill="#282A52"/>
<path d="M72.258 155.342C72.258 154.437 71.5233 153.702 70.6181 153.702H65.8906V156.982H70.6181C71.5233 156.982 72.258 156.248 72.258 155.342Z" fill="#1E203E"/>
<path d="M69.2783 138.419C69.2783 137.513 68.5438 136.779 67.6388 136.779H61.3836C60.4786 136.779 59.7441 137.513 59.7441 138.419C59.7441 139.324 60.4786 140.059 61.3836 140.059H67.6388C68.5438 140.059 69.2783 139.324 69.2783 138.419Z" fill="#157DF5"/>
<path d="M72.2578 138.419C72.2578 137.513 71.5233 136.779 70.6183 136.779H65.8926V140.059H70.6183C71.5233 140.059 72.2578 139.324 72.2578 138.419Z" fill="#0965CD"/>
<path d="M69.2779 146.825C69.2779 145.92 68.5434 145.185 67.6383 145.185H61.3819C60.4768 145.185 59.7422 145.92 59.7422 146.825C59.7422 147.73 60.4768 148.465 61.3819 148.465H67.6383C68.5434 148.465 69.2779 147.73 69.2779 146.825Z" fill="#282A52"/>
<path d="M72.2549 146.825C72.2549 145.92 71.5204 145.185 70.6153 145.185H65.8887V148.465H70.6153C71.5204 148.465 72.2549 147.73 72.2549 146.825Z" fill="#1E203E"/>
<path d="M55.5496 139.383V133.853C55.5496 132.554 54.4961 131.5 53.1967 131.5C51.9008 131.5 50.8438 132.55 50.8438 133.853V137.618C50.8438 138.593 51.6338 139.383 52.6084 139.383H55.5496Z" fill="#B6D7FC"/>
<path d="M47.8047 166.967H64.1974V179.051H47.8047V166.967Z" fill="#40D98D"/>
<path d="M55.9961 166.967H64.1956V179.051H55.9961V166.967Z" fill="#25BB71"/>
<path d="M68.9713 176.723H43.0267C42.121 176.723 41.3867 177.457 41.3867 178.363C41.3867 179.268 42.121 180.003 43.0267 180.003H68.9712C69.8769 180.003 70.6112 179.268 70.6112 178.363C70.6112 177.457 69.877 176.723 68.9713 176.723Z" fill="#157DF5"/>
<path d="M68.9716 176.723H55.9961V180.003H68.9715C69.8772 180.003 70.6115 179.268 70.6115 178.363C70.6115 177.457 69.8773 176.723 68.9716 176.723Z" fill="#0965CD"/>
<path d="M78.6405 169.293H33.3595C30.4042 169.293 28 166.888 28 163.932V129.365C28 126.409 30.4042 124.004 33.3595 124.004H78.6405C81.5958 124.004 84 126.409 84 129.365V163.933C84 166.888 81.5958 169.293 78.6405 169.293ZM33.3595 127.285C32.2128 127.285 31.28 128.218 31.28 129.365V163.933C31.28 165.079 32.2128 166.013 33.3595 166.013H78.6405C79.7872 166.013 80.72 165.08 80.72 163.933V129.365C80.72 128.218 79.7872 127.285 78.6405 127.285H33.3595Z" fill="#157DF5"/>
<path d="M78.6398 124.004H55.9961V127.285H78.6397C79.7864 127.285 80.7192 128.218 80.7192 129.365V163.933C80.7192 165.079 79.7864 166.013 78.6397 166.013H55.9961V169.293H78.6397C81.595 169.293 83.9992 166.889 83.9992 163.933V129.365C83.9993 126.409 81.5951 124.004 78.6398 124.004Z" fill="#0965CD"/>
<path fill-rule="evenodd" clip-rule="evenodd" d="M50.5471 144.814C51.5781 145.845 51.5781 147.517 50.5471 148.548L45.7316 153.363C45.0911 154.004 44.0527 154.004 43.4123 153.363C42.7718 152.723 42.7718 151.685 43.4123 151.044L46.1359 148.32L36.5944 148.32C35.6886 148.32 34.9544 147.586 34.9544 146.68C34.9544 145.775 35.6886 145.04 36.5944 145.04L46.1346 145.04L43.4123 142.318C42.7718 141.677 42.7718 140.639 43.4123 139.999C44.0527 139.358 45.0911 139.358 45.7316 139.999L50.5471 144.814Z" fill="#40D98D"/>
<defs>
<filter id="filter0_d_6367_21293" x="10" y="9" width="96" height="96" filterUnits="userSpaceOnUse" color-interpolation-filters="sRGB">
<feFlood flood-opacity="0" result="BackgroundImageFix"/>
<feColorMatrix in="SourceAlpha" type="matrix" values="0 0 0 0 0 0 0 0 0 0 0 0 0 0 0 0 0 0 127 0" result="hardAlpha"/>
<feOffset dx="2" dy="1"/>
<feGaussianBlur stdDeviation="4"/>
<feColorMatrix type="matrix" values="0 0 0 0 0.0392157 0 0 0 0 0.0392157 0 0 0 0 0.0627451 0 0 0 0.08 0"/>
<feBlend mode="normal" in2="BackgroundImageFix" result="effect1_dropShadow_6367_21293"/>
<feBlend mode="normal" in="SourceGraphic" in2="effect1_dropShadow_6367_21293" result="shape"/>
</filter>
</defs>
</svg>
