<svg width="112" height="208" viewBox="0 0 112 208" fill="none" xmlns="http://www.w3.org/2000/svg">
<rect x="0.5" y="0.5" width="111" height="207" rx="4.5" stroke="#9747FF" stroke-dasharray="10 5"/>
<g filter="url(#filter0_d_6367_23297)">
<rect x="16" y="16" width="80" height="80" rx="8" fill="white"/>
</g>
<path d="M76.0044 80.7059V34.0392C76.0044 30.7089 73.2503 28 69.8643 28H32.4655C31.5412 28 32.4655 28.7379 32.4655 29.6471C32.4655 30.5562 33.2157 31.2941 34.1401 31.2941C35.6796 31.2941 36.931 32.525 36.931 34.0392V80.7059C36.931 82.522 38.4337 84 40.2802 84H72.6552C74.5017 84 76.0044 82.522 76.0044 80.7059Z" fill="#F0F7FE"/>
<path d="M76.0035 80.7059V34.0392C76.0035 30.7089 73.2494 28 69.8634 28H56.4668V84H72.6543C74.5008 84 76.0035 82.522 76.0035 80.7059Z" fill="#E2EFFE"/>
<path fill-rule="evenodd" clip-rule="evenodd" d="M71.3005 65.592C72.3315 66.623 74.0033 66.623 75.0343 65.592L79.8503 60.7765C80.4908 60.136 80.4908 59.0976 79.8503 58.4572C79.2098 57.8167 78.1713 57.8167 77.5308 58.4572L73.1674 62.8201L68.8038 58.4572C68.1633 57.8167 67.1248 57.8167 66.4843 58.4572C65.8438 59.0976 65.8438 60.136 66.4843 60.7765L71.3005 65.592Z" fill="#40D98D"/>
<path fill-rule="evenodd" clip-rule="evenodd" d="M73.1673 64.2793C74.0731 64.2793 74.8073 63.545 74.8073 62.6393L74.8073 51.6393C74.8073 50.7336 74.0731 49.9993 73.1673 49.9993C72.2616 49.9993 71.5273 50.7336 71.5273 51.6393L71.5273 62.6393C71.5273 63.545 72.2616 64.2793 73.1673 64.2793Z" fill="#40D98D"/>
<path d="M62.8099 56.3217C62.8099 55.4125 62.0597 54.6746 61.1353 54.6746H48.8013C47.8769 54.6746 47.1267 55.4125 47.1267 56.3217C47.1267 57.2309 47.8769 57.9688 48.8013 57.9688H61.1353C62.0597 57.9688 62.8099 57.2309 62.8099 56.3217Z" fill="#157DF5"/>
<path d="M62.8074 56.3217C62.8074 55.4125 62.0573 54.6746 61.133 54.6746H56.4666V57.9688H61.133C62.0573 57.9688 62.8074 57.2309 62.8074 56.3217Z" fill="#0965CD"/>
<path d="M65.8101 47.3158C65.8101 46.4067 65.0599 45.6688 64.1356 45.6688H48.8013C47.8769 45.6688 47.1267 46.4067 47.1267 47.3158C47.1267 48.225 47.8769 48.9629 48.8013 48.9629H64.1356C65.0599 48.9629 65.8101 48.225 65.8101 47.3158Z" fill="#282A52"/>
<path d="M65.8074 47.3158C65.8074 46.4067 65.0573 45.6688 64.133 45.6688H56.4666V48.9629H64.133C65.0573 48.9629 65.8074 48.225 65.8074 47.3158Z" fill="#1E203E"/>
<path d="M62.8099 65.3276C62.8099 64.4184 62.0597 63.6805 61.1353 63.6805H48.8013C47.8769 63.6805 47.1267 64.4184 47.1267 65.3276C47.1267 66.2367 47.8769 66.9746 48.8013 66.9746H61.1353C62.0597 66.9746 62.8099 66.2367 62.8099 65.3276Z" fill="#157DF5"/>
<path d="M62.8074 65.3276C62.8074 64.4184 62.0573 63.6805 61.133 63.6805H56.4666V66.9746H61.133C62.0573 66.9746 62.8074 66.2367 62.8074 65.3276Z" fill="#0965CD"/>
<path d="M65.8101 74.3334C65.8101 73.4242 65.0599 72.6864 64.1356 72.6864H48.8013C47.8769 72.6864 47.1267 73.4242 47.1267 74.3334C47.1267 75.2426 47.8769 75.9805 48.8013 75.9805H64.1356C65.0599 75.9805 65.8101 75.2426 65.8101 74.3334Z" fill="#157DF5"/>
<path d="M65.8074 74.3334C65.8074 73.4242 65.0573 72.6864 64.133 72.6864H56.4666V75.9805H64.133C65.0573 75.9805 65.8074 75.2426 65.8074 74.3334Z" fill="#0965CD"/>
<path d="M59.9292 38.31C59.9292 37.4008 59.179 36.6629 58.2546 36.6629H48.8013C47.8769 36.6629 47.1267 37.4008 47.1267 38.31C47.1267 39.2191 47.8769 39.957 48.8013 39.957H58.2546C59.179 39.957 59.9292 39.2191 59.9292 38.31Z" fill="#282A52"/>
<path d="M65.0101 38.31C65.0101 37.4008 64.2599 36.6629 63.3357 36.6629H56.4666V39.957H63.3357C64.2599 39.957 65.0101 39.2191 65.0101 38.31Z" fill="#1E203E"/>
<path d="M36.9302 42.7148V32.3933C36.9302 29.9676 34.9311 28.0011 32.4651 28.0011C30.006 28.0011 28 29.9609 28 32.3933V39.4207C28 41.2401 29.4993 42.7148 31.3488 42.7148H36.9302Z" fill="#B6D7FC"/>
<path d="M64.7793 70.2441H82.4902V82.357H64.7793V70.2441Z" fill="white"/>
<path d="M78.8511 80.7144H66.4199V71.8809H78.8511V80.7144Z" fill="#E2EFFE"/>
<path d="M80.4893 83.9956H64.7786C63.873 83.9956 63.1388 83.2614 63.1388 82.3559V70.2431C63.1388 69.3376 63.873 68.6035 64.7786 68.6035H80.4893C81.3949 68.6035 82.1291 69.3376 82.1291 70.2431V82.3559C82.1291 83.2616 81.3949 83.9956 80.4893 83.9956ZM66.4183 80.7163H78.8495V71.8828H66.4183V80.7163Z" fill="#282A52"/>
<path d="M82.3591 84H62.9113C62.0057 84 61.2715 83.2658 61.2715 82.3603C61.2715 81.4548 62.0057 80.7207 62.9113 80.7207H82.3591C83.2647 80.7207 83.9989 81.4548 83.9989 82.3603C83.9989 83.2658 83.2647 84 82.3591 84Z" fill="#1E203E"/>
<path d="M76.0044 176.706V130.039C76.0044 126.709 73.2503 124 69.8643 124H32.4655C31.5412 124 32.4655 124.738 32.4655 125.647C32.4655 126.556 33.2157 127.294 34.1401 127.294C35.6796 127.294 36.931 128.525 36.931 130.039V176.706C36.931 178.522 38.4337 180 40.2802 180H72.6552C74.5017 180 76.0044 178.522 76.0044 176.706Z" fill="#F0F7FE"/>
<path d="M76.0035 176.706V130.039C76.0035 126.709 73.2494 124 69.8634 124H56.4668V180H72.6543C74.5008 180 76.0035 178.522 76.0035 176.706Z" fill="#E2EFFE"/>
<path fill-rule="evenodd" clip-rule="evenodd" d="M71.3005 161.592C72.3315 162.623 74.0033 162.623 75.0343 161.592L79.8503 156.776C80.4908 156.136 80.4908 155.098 79.8503 154.457C79.2098 153.817 78.1713 153.817 77.5308 154.457L73.1674 158.82L68.8038 154.457C68.1633 153.817 67.1248 153.817 66.4843 154.457C65.8438 155.098 65.8438 156.136 66.4843 156.776L71.3005 161.592Z" fill="#40D98D"/>
<path fill-rule="evenodd" clip-rule="evenodd" d="M73.1673 160.279C74.0731 160.279 74.8073 159.545 74.8073 158.639L74.8073 147.639C74.8073 146.734 74.0731 145.999 73.1673 145.999C72.2616 145.999 71.5273 146.734 71.5273 147.639L71.5273 158.639C71.5273 159.545 72.2616 160.279 73.1673 160.279Z" fill="#40D98D"/>
<path d="M62.8099 152.322C62.8099 151.413 62.0597 150.675 61.1353 150.675H48.8013C47.8769 150.675 47.1267 151.413 47.1267 152.322C47.1267 153.231 47.8769 153.969 48.8013 153.969H61.1353C62.0597 153.969 62.8099 153.231 62.8099 152.322Z" fill="#157DF5"/>
<path d="M62.8074 152.322C62.8074 151.413 62.0573 150.675 61.133 150.675H56.4666V153.969H61.133C62.0573 153.969 62.8074 153.231 62.8074 152.322Z" fill="#0965CD"/>
<path d="M65.8101 143.316C65.8101 142.407 65.0599 141.669 64.1356 141.669H48.8013C47.8769 141.669 47.1267 142.407 47.1267 143.316C47.1267 144.225 47.8769 144.963 48.8013 144.963H64.1356C65.0599 144.963 65.8101 144.225 65.8101 143.316Z" fill="#282A52"/>
<path d="M65.8074 143.316C65.8074 142.407 65.0573 141.669 64.133 141.669H56.4666V144.963H64.133C65.0573 144.963 65.8074 144.225 65.8074 143.316Z" fill="#1E203E"/>
<path d="M62.8099 161.328C62.8099 160.418 62.0597 159.68 61.1353 159.68H48.8013C47.8769 159.68 47.1267 160.418 47.1267 161.328C47.1267 162.237 47.8769 162.975 48.8013 162.975H61.1353C62.0597 162.975 62.8099 162.237 62.8099 161.328Z" fill="#157DF5"/>
<path d="M62.8074 161.328C62.8074 160.418 62.0573 159.68 61.133 159.68H56.4666V162.975H61.133C62.0573 162.975 62.8074 162.237 62.8074 161.328Z" fill="#0965CD"/>
<path d="M65.8101 170.333C65.8101 169.424 65.0599 168.686 64.1356 168.686H48.8013C47.8769 168.686 47.1267 169.424 47.1267 170.333C47.1267 171.243 47.8769 171.98 48.8013 171.98H64.1356C65.0599 171.98 65.8101 171.243 65.8101 170.333Z" fill="#157DF5"/>
<path d="M65.8074 170.333C65.8074 169.424 65.0573 168.686 64.133 168.686H56.4666V171.98H64.133C65.0573 171.98 65.8074 171.243 65.8074 170.333Z" fill="#0965CD"/>
<path d="M59.9292 134.31C59.9292 133.401 59.179 132.663 58.2546 132.663H48.8013C47.8769 132.663 47.1267 133.401 47.1267 134.31C47.1267 135.219 47.8769 135.957 48.8013 135.957H58.2546C59.179 135.957 59.9292 135.219 59.9292 134.31Z" fill="#282A52"/>
<path d="M65.0101 134.31C65.0101 133.401 64.2599 132.663 63.3357 132.663H56.4666V135.957H63.3357C64.2599 135.957 65.0101 135.219 65.0101 134.31Z" fill="#1E203E"/>
<path d="M36.9302 138.715V128.393C36.9302 125.968 34.9311 124.001 32.4651 124.001C30.006 124.001 28 125.961 28 128.393V135.421C28 137.24 29.4993 138.715 31.3488 138.715H36.9302Z" fill="#B6D7FC"/>
<path d="M64.7793 166.244H82.4902V178.357H64.7793V166.244Z" fill="white"/>
<path d="M78.8511 176.714H66.4199V167.881H78.8511V176.714Z" fill="#E2EFFE"/>
<path d="M80.4893 179.996H64.7786C63.873 179.996 63.1388 179.261 63.1388 178.356V166.243C63.1388 165.338 63.873 164.604 64.7786 164.604H80.4893C81.3949 164.604 82.1291 165.338 82.1291 166.243V178.356C82.1291 179.262 81.3949 179.996 80.4893 179.996ZM66.4183 176.716H78.8495V167.883H66.4183V176.716Z" fill="#282A52"/>
<path d="M82.3591 180H62.9113C62.0057 180 61.2715 179.266 61.2715 178.36C61.2715 177.455 62.0057 176.721 62.9113 176.721H82.3591C83.2647 176.721 83.9989 177.455 83.9989 178.36C83.9989 179.266 83.2647 180 82.3591 180Z" fill="#1E203E"/>
<defs>
<filter id="filter0_d_6367_23297" x="10" y="9" width="96" height="96" filterUnits="userSpaceOnUse" color-interpolation-filters="sRGB">
<feFlood flood-opacity="0" result="BackgroundImageFix"/>
<feColorMatrix in="SourceAlpha" type="matrix" values="0 0 0 0 0 0 0 0 0 0 0 0 0 0 0 0 0 0 127 0" result="hardAlpha"/>
<feOffset dx="2" dy="1"/>
<feGaussianBlur stdDeviation="4"/>
<feColorMatrix type="matrix" values="0 0 0 0 0.0392157 0 0 0 0 0.0392157 0 0 0 0 0.0627451 0 0 0 0.08 0"/>
<feBlend mode="normal" in2="BackgroundImageFix" result="effect1_dropShadow_6367_23297"/>
<feBlend mode="normal" in="SourceGraphic" in2="effect1_dropShadow_6367_23297" result="shape"/>
</filter>
</defs>
</svg>
