<svg width="112" height="208" viewBox="0 0 112 208" fill="none" xmlns="http://www.w3.org/2000/svg">
<rect x="0.5" y="0.5" width="111" height="207" rx="4.5" stroke="#9747FF" stroke-dasharray="10 5"/>
<g filter="url(#filter0_d_23749_11635)">
<rect x="16" y="16" width="80" height="80" rx="8" fill="white"/>
</g>
<path d="M28 40.5781C28 47.5137 33.6425 53.1562 40.5781 53.1562L43.8594 40.3594L40.5781 28C33.6425 28 28 33.6425 28 40.5781Z" fill="#157DF5"/>
<path d="M40.5781 28V53.1562C47.5137 53.1562 53.1562 47.5137 53.1562 40.5781C53.1562 33.6425 47.5137 28 40.5781 28Z" fill="#0965CD"/>
<path d="M31.2812 40.5781C31.2812 45.7044 35.4518 49.875 40.5781 49.875L43.8594 40.25L40.5781 31.2812C35.4518 31.2812 31.2812 35.4518 31.2812 40.5781Z" fill="#F0F7FE"/>
<path d="M40.5781 31.2812V49.875C45.7044 49.875 49.875 45.7044 49.875 40.5781C49.875 35.4518 45.7044 31.2812 40.5781 31.2812Z" fill="#E2EFFE"/>
<path d="M75.6875 49.875L77.4375 66.1172L75.6875 82.3594H70.7656V51.5156C70.7656 50.6096 71.5002 49.875 72.4062 49.875H75.6875Z" fill="#157DF5"/>
<path d="M62.5625 58.625L64.3125 70.4922L62.5625 82.3594H57.6406V60.2656C57.6406 59.3596 58.3752 58.625 59.2812 58.625H62.5625Z" fill="#E2EFFE"/>
<path d="M36.3125 69.5625H33.0312C32.1252 69.5625 31.3906 70.2971 31.3906 71.2031V82.3594H36.3125L38.0625 75.9609L36.3125 69.5625Z" fill="#E2EFFE"/>
<path d="M36.3125 82.3594H41.2344V71.2031C41.2344 70.2971 40.4998 69.5625 39.5938 69.5625H36.3125V82.3594Z" fill="#B6D7FC"/>
<path d="M49.4375 65.1875L51.1875 73.7734L49.4375 82.3594H44.5156V66.8281C44.5156 65.9221 45.2502 65.1875 46.1562 65.1875H49.4375Z" fill="#157DF5"/>
<path d="M49.4375 65.1875H52.7188C53.6248 65.1875 54.3594 65.9221 54.3594 66.8281V82.3594H49.4375V65.1875Z" fill="#0965CD"/>
<path d="M62.5625 58.625H65.8438C66.7498 58.625 67.4844 59.3596 67.4844 60.2656V82.3594H62.5625V58.625Z" fill="#B6D7FC"/>
<path d="M75.6875 49.875H78.9688C79.8748 49.875 80.6094 50.6096 80.6094 51.5156V82.3594H75.6875V49.875Z" fill="#0965CD"/>
<path d="M48.8906 55.5947C45.4623 56.866 41.7993 57.5313 38.0336 57.5313H31.9375C31.0314 57.5313 30.2969 58.2659 30.2969 59.1719C30.2969 60.078 31.0314 60.8126 31.9375 60.8126H38.0336C41.7495 60.8126 45.3908 60.2227 48.8906 59.0576L50.8594 56.4376L48.8906 55.5947Z" fill="#40D98D"/>
<path d="M40.5781 34.5625C39.6721 34.5625 38.9375 35.2971 38.9375 36.2031V38.9375H36.2031C35.2971 38.9375 34.5625 39.6721 34.5625 40.5781C34.5625 41.4842 35.2971 42.2188 36.2031 42.2188H40.5781L41.4531 38.3906L40.5781 34.5625Z" fill="#40D98D"/>
<path d="M42.2188 40.5781V36.2031C42.2188 35.2971 41.4842 34.5625 40.5781 34.5625V42.2188C41.4842 42.2188 42.2188 41.4842 42.2188 40.5781Z" fill="#25BB71"/>
<path d="M56 80.7188L57.75 82.3594L56 84H29.6406C28.7346 84 28 83.2654 28 82.3594C28 81.4533 28.7346 80.7188 29.6406 80.7188H56Z" fill="#453D82"/>
<path d="M65.8438 43.3125H60.375C59.4689 43.3125 58.7344 44.0471 58.7344 44.9531C58.7344 45.8592 59.4689 46.5938 60.375 46.5938H61.883L60.0755 48.4012C56.8506 51.6261 53.0428 54.0552 48.8906 55.5947V59.0576C49.6737 58.7968 50.4501 58.5081 51.2182 58.1898C55.4195 56.4496 59.1802 53.9369 62.3956 50.7213L64.2031 48.9139V50.4219C64.2031 51.3279 64.9377 52.0625 65.8438 52.0625C66.7498 52.0625 67.4844 51.3279 67.4844 50.4219V44.9531C67.4844 44.0471 66.7498 43.3125 65.8438 43.3125Z" fill="#25BB71"/>
<path d="M56 80.7188H82.3594C83.2654 80.7188 84 81.4533 84 82.3594C84 83.2654 83.2654 84 82.3594 84H56V80.7188Z" fill="#39326C"/>
<path d="M28 136.578C28 143.514 33.6425 149.156 40.5781 149.156L43.8594 136.359L40.5781 124C33.6425 124 28 129.643 28 136.578Z" fill="#157DF5"/>
<path d="M40.5781 124V149.156C47.5137 149.156 53.1562 143.514 53.1562 136.578C53.1562 129.643 47.5137 124 40.5781 124Z" fill="#0965CD"/>
<path d="M31.2812 136.578C31.2812 141.704 35.4518 145.875 40.5781 145.875L43.8594 136.25L40.5781 127.281C35.4518 127.281 31.2812 131.452 31.2812 136.578Z" fill="#F0F7FE"/>
<path d="M40.5781 127.281V145.875C45.7044 145.875 49.875 141.704 49.875 136.578C49.875 131.452 45.7044 127.281 40.5781 127.281Z" fill="#E2EFFE"/>
<path d="M75.6875 145.875L77.4375 162.117L75.6875 178.359H70.7656V147.516C70.7656 146.61 71.5002 145.875 72.4062 145.875H75.6875Z" fill="#157DF5"/>
<path d="M62.5625 154.625L64.3125 166.492L62.5625 178.359H57.6406V156.266C57.6406 155.36 58.3752 154.625 59.2812 154.625H62.5625Z" fill="#E2EFFE"/>
<path d="M36.3125 165.562H33.0312C32.1252 165.562 31.3906 166.297 31.3906 167.203V178.359H36.3125L38.0625 171.961L36.3125 165.562Z" fill="#E2EFFE"/>
<path d="M36.3125 178.359H41.2344V167.203C41.2344 166.297 40.4998 165.562 39.5938 165.562H36.3125V178.359Z" fill="#B6D7FC"/>
<path d="M49.4375 161.188L51.1875 169.773L49.4375 178.359H44.5156V162.828C44.5156 161.922 45.2502 161.188 46.1562 161.188H49.4375Z" fill="#157DF5"/>
<path d="M49.4375 161.188H52.7188C53.6248 161.188 54.3594 161.922 54.3594 162.828V178.359H49.4375V161.188Z" fill="#0965CD"/>
<path d="M62.5625 154.625H65.8438C66.7498 154.625 67.4844 155.36 67.4844 156.266V178.359H62.5625V154.625Z" fill="#B6D7FC"/>
<path d="M75.6875 145.875H78.9688C79.8748 145.875 80.6094 146.61 80.6094 147.516V178.359H75.6875V145.875Z" fill="#0965CD"/>
<path d="M48.8906 151.595C45.4623 152.866 41.7993 153.531 38.0336 153.531H31.9375C31.0314 153.531 30.2969 154.266 30.2969 155.172C30.2969 156.078 31.0314 156.813 31.9375 156.813H38.0336C41.7495 156.813 45.3908 156.223 48.8906 155.058L50.8594 152.438L48.8906 151.595Z" fill="#40D98D"/>
<path d="M40.5781 130.562C39.6721 130.562 38.9375 131.297 38.9375 132.203V134.938H36.2031C35.2971 134.938 34.5625 135.672 34.5625 136.578C34.5625 137.484 35.2971 138.219 36.2031 138.219H40.5781L41.4531 134.391L40.5781 130.562Z" fill="#40D98D"/>
<path d="M42.2188 136.578V132.203C42.2188 131.297 41.4842 130.562 40.5781 130.562V138.219C41.4842 138.219 42.2188 137.484 42.2188 136.578Z" fill="#25BB71"/>
<path d="M56 176.719L57.75 178.359L56 180H29.6406C28.7346 180 28 179.265 28 178.359C28 177.453 28.7346 176.719 29.6406 176.719H56Z" fill="#453D82"/>
<path d="M65.8438 139.312H60.375C59.4689 139.312 58.7344 140.047 58.7344 140.953C58.7344 141.859 59.4689 142.594 60.375 142.594H61.883L60.0755 144.401C56.8506 147.626 53.0428 150.055 48.8906 151.595V155.058C49.6737 154.797 50.4501 154.508 51.2182 154.19C55.4195 152.45 59.1802 149.937 62.3956 146.721L64.2031 144.914V146.422C64.2031 147.328 64.9377 148.062 65.8438 148.062C66.7498 148.062 67.4844 147.328 67.4844 146.422V140.953C67.4844 140.047 66.7498 139.312 65.8438 139.312Z" fill="#25BB71"/>
<path d="M56 176.719H82.3594C83.2654 176.719 84 177.453 84 178.359C84 179.265 83.2654 180 82.3594 180H56V176.719Z" fill="#39326C"/>
<defs>
<filter id="filter0_d_23749_11635" x="10" y="9" width="96" height="96" filterUnits="userSpaceOnUse" color-interpolation-filters="sRGB">
<feFlood flood-opacity="0" result="BackgroundImageFix"/>
<feColorMatrix in="SourceAlpha" type="matrix" values="0 0 0 0 0 0 0 0 0 0 0 0 0 0 0 0 0 0 127 0" result="hardAlpha"/>
<feOffset dx="2" dy="1"/>
<feGaussianBlur stdDeviation="4"/>
<feColorMatrix type="matrix" values="0 0 0 0 0.0392157 0 0 0 0 0.0392157 0 0 0 0 0.0627451 0 0 0 0.08 0"/>
<feBlend mode="normal" in2="BackgroundImageFix" result="effect1_dropShadow_23749_11635"/>
<feBlend mode="normal" in="SourceGraphic" in2="effect1_dropShadow_23749_11635" result="shape"/>
</filter>
</defs>
</svg>
