<svg width="112" height="208" viewBox="0 0 112 208" fill="none" xmlns="http://www.w3.org/2000/svg">
<rect x="0.5" y="0.5" width="111" height="207" rx="4.5" stroke="#9747FF" stroke-dasharray="10 5"/>
<g filter="url(#filter0_d_6367_25181)">
<rect x="16" y="16" width="80" height="80" rx="8" fill="white"/>
</g>
<path d="M56.4317 62.5704V61.733C56.4317 58.6509 53.9077 56.1523 50.7942 56.1523H44.7646L42.9609 79.1002L56.4316 77.3147L56.4317 62.5704Z" fill="#25BB71"/>
<path d="M46.2332 64.6007V51H43.3033C39.3906 51 36.2188 54.1399 36.2188 58.0132V65.9092L46.2332 64.6007Z" fill="#40D98D"/>
<path d="M74.2227 61.0898L76.5892 58.7471C77.1869 58.1555 78.156 58.1555 78.7537 58.7471C79.3514 59.3388 79.3514 60.2981 78.7537 60.8898L76.3871 63.2325L74.2227 61.0898Z" fill="#25BB71"/>
<path d="M40.5101 77.1096C36.23 74.6967 33.3438 70.1393 33.3438 64.9146V57.8789C39.4287 57.8789 44.8032 60.8893 48.0305 65.4878L50.7632 79.4059L40.5101 77.1096Z" fill="#157DF5"/>
<path d="M68.6237 76.4092C68.9958 76.1507 69.3514 75.859 69.6838 75.5299L76.4305 68.8513C78.617 66.6868 78.6299 63.1854 76.4691 61.0051C74.3362 58.8531 70.8234 58.776 68.6008 60.837C68.5854 60.8512 68.5703 60.8655 68.5551 60.8798C67.5608 61.8222 66.2009 62.2802 64.8306 62.1504C62.5445 61.934 60.1818 62.6962 58.436 64.4371C58.238 64.6346 58.0532 64.8402 57.8809 65.0527V76.4093L68.6237 76.4092Z" fill="#40D98D"/>
<path d="M59.8894 64.1875H58.8816L56.9062 78.6056L64.3386 76.6502C65.9437 75.365 66.9709 73.4006 66.9709 71.1977C66.9709 67.326 63.8004 64.1875 59.8894 64.1875Z" fill="#0965CD"/>
<path d="M57.8745 64.1875C55.285 64.1875 53.0201 65.5634 51.7852 67.617V76.6502L58.8823 78.6056V64.1875H57.8745Z" fill="#157DF5"/>
<path d="M45.5273 75.7789C45.0595 75.3034 44.6724 74.735 44.4001 74.0844C42.8812 70.4544 42.7969 65.3846 46.0839 64.0367C49.371 62.6889 52.9327 66.3328 54.4516 69.9627C55.3088 72.0115 54.7935 74.2836 53.3255 75.7789L49.1278 77.9802L45.5273 75.7789Z" fill="#F0F7FE"/>
<path d="M80.0859 76.1133H31.9141C30.1723 76.1133 29.0821 77.9969 29.9498 79.5072L32.531 84.0003H78.8902C79.2482 84.0003 79.5789 83.8089 79.7573 83.4984L82.0502 79.5072C82.9179 77.9969 81.8277 76.1133 80.0859 76.1133Z" fill="#1E203E"/>
<path d="M58.8755 76.1133H31.9141C30.1723 76.1133 29.0821 77.9969 29.9498 79.5072L31.9544 82.9966C32.3111 83.6175 32.9725 84.0003 33.6886 84.0003H58.8755V76.1133Z" fill="#282A52"/>
<circle cx="77" cy="35" r="7" fill="#40D98D"/>
<circle cx="35" cy="35" r="7" fill="#B6D7FC"/>
<circle cx="56" cy="35" r="7" fill="#157DF5"/>
<path d="M56.4317 158.57V157.733C56.4317 154.651 53.9077 152.152 50.7942 152.152H44.7646L42.9609 175.1L56.4316 173.315L56.4317 158.57Z" fill="#25BB71"/>
<path d="M46.2332 160.601V147H43.3033C39.3906 147 36.2188 150.14 36.2188 154.013V161.909L46.2332 160.601Z" fill="#40D98D"/>
<path d="M74.2227 157.09L76.5892 154.747C77.1869 154.155 78.156 154.155 78.7537 154.747C79.3514 155.339 79.3514 156.298 78.7537 156.89L76.3871 159.232L74.2227 157.09Z" fill="#25BB71"/>
<path d="M40.5101 173.11C36.23 170.697 33.3438 166.139 33.3438 160.915V153.879C39.4287 153.879 44.8032 156.889 48.0305 161.488L50.7632 175.406L40.5101 173.11Z" fill="#157DF5"/>
<path d="M68.6237 172.409C68.9958 172.151 69.3514 171.859 69.6838 171.53L76.4305 164.851C78.617 162.687 78.6299 159.185 76.4691 157.005C74.3362 154.853 70.8234 154.776 68.6008 156.837C68.5854 156.851 68.5703 156.866 68.5551 156.88C67.5608 157.822 66.2009 158.28 64.8306 158.15C62.5445 157.934 60.1818 158.696 58.436 160.437C58.238 160.635 58.0532 160.84 57.8809 161.053V172.409L68.6237 172.409Z" fill="#40D98D"/>
<path d="M59.8894 160.188H58.8816L56.9062 174.606L64.3386 172.65C65.9437 171.365 66.9709 169.401 66.9709 167.198C66.9709 163.326 63.8004 160.188 59.8894 160.188Z" fill="#0965CD"/>
<path d="M57.8745 160.188C55.285 160.188 53.0201 161.563 51.7852 163.617V172.65L58.8823 174.606V160.188H57.8745Z" fill="#157DF5"/>
<path d="M45.5273 171.779C45.0595 171.303 44.6724 170.735 44.4001 170.084C42.8812 166.454 42.7969 161.385 46.0839 160.037C49.371 158.689 52.9327 162.333 54.4516 165.963C55.3088 168.012 54.7935 170.284 53.3255 171.779L49.1278 173.98L45.5273 171.779Z" fill="#F0F7FE"/>
<path d="M80.0859 172.113H31.9141C30.1723 172.113 29.0821 173.997 29.9498 175.507L32.531 180H78.8902C79.2482 180 79.5789 179.809 79.7573 179.498L82.0502 175.507C82.9179 173.997 81.8277 172.113 80.0859 172.113Z" fill="#1E203E"/>
<path d="M58.8755 172.113H31.9141C30.1723 172.113 29.0821 173.997 29.9498 175.507L31.9544 178.997C32.3111 179.617 32.9725 180 33.6886 180H58.8755V172.113Z" fill="#282A52"/>
<circle cx="77" cy="131" r="7" fill="#40D98D"/>
<circle cx="35" cy="131" r="7" fill="#B6D7FC"/>
<circle cx="56" cy="131" r="7" fill="#157DF5"/>
<defs>
<filter id="filter0_d_6367_25181" x="10" y="9" width="96" height="96" filterUnits="userSpaceOnUse" color-interpolation-filters="sRGB">
<feFlood flood-opacity="0" result="BackgroundImageFix"/>
<feColorMatrix in="SourceAlpha" type="matrix" values="0 0 0 0 0 0 0 0 0 0 0 0 0 0 0 0 0 0 127 0" result="hardAlpha"/>
<feOffset dx="2" dy="1"/>
<feGaussianBlur stdDeviation="4"/>
<feColorMatrix type="matrix" values="0 0 0 0 0.0392157 0 0 0 0 0.0392157 0 0 0 0 0.0627451 0 0 0 0.08 0"/>
<feBlend mode="normal" in2="BackgroundImageFix" result="effect1_dropShadow_6367_25181"/>
<feBlend mode="normal" in="SourceGraphic" in2="effect1_dropShadow_6367_25181" result="shape"/>
</filter>
</defs>
</svg>
