<svg width="112" height="208" viewBox="0 0 112 208" fill="none" xmlns="http://www.w3.org/2000/svg">
<rect x="0.5" y="0.5" width="111" height="207" rx="4.5" stroke="#9747FF" stroke-dasharray="10 5"/>
<g filter="url(#filter0_d_6367_22441)">
<rect x="16" y="16" width="80" height="80" rx="8" fill="white"/>
</g>
<path d="M82.3593 82.031H29.6406C28.7346 82.031 28 81.2964 28 80.3904V43.8595C28 43.2564 28.3309 42.7018 28.8618 42.4155L55.2211 28.1966C55.7073 27.9345 56.2927 27.9345 56.7788 28.1966L83.1382 42.4155C83.6691 42.7018 84 43.2564 84 43.8595V80.3904C84 81.2964 83.2654 82.031 82.3593 82.031Z" fill="#F0F7FE"/>
<path d="M83.1375 42.4146L56.7781 28.1958C56.53 28.0619 56.256 27.9973 55.9824 28.0001V82.03H82.3586C83.2647 82.03 83.9992 81.2955 83.9992 80.3894V43.8586C83.9992 43.2555 83.6684 42.701 83.1375 42.4146Z" fill="#E2EFFE"/>
<path d="M56.0029 60.1528V59.2818C56.0029 56.0757 53.4034 53.4766 50.1967 53.4766H43.9866L42.1289 77.3477L56.0028 75.4904L56.0029 60.1528Z" fill="#25BB71"/>
<path d="M45.4998 61.2221V47.0742H42.4822C38.4524 47.0742 35.1855 50.3405 35.1855 54.3696V62.5833L45.4998 61.2221Z" fill="#40D98D"/>
<path d="M74.666 58.5312L77.2021 55.9956C77.8426 55.3552 78.8811 55.3552 79.5216 55.9956C80.1621 56.636 80.1621 57.6743 79.5216 58.3147L76.9855 60.8503L74.666 58.5312Z" fill="#25BB71"/>
<path d="M39.6074 75.2739C35.1992 72.7639 32.2266 68.0232 32.2266 62.5883V55.2695C38.4936 55.2695 44.029 58.4011 47.353 63.1846L50.1675 77.6626L39.6074 75.2739Z" fill="#157DF5"/>
<path d="M68.5625 74.5452C68.9457 74.2762 69.312 73.9728 69.6544 73.6305L76.603 66.6832C78.855 64.4316 78.8682 60.7893 76.6428 58.5214C74.446 56.2827 70.828 56.2025 68.5389 58.3465C68.5231 58.3613 68.5075 58.3761 68.4919 58.391C67.4678 59.3713 66.0672 59.8478 64.6558 59.7127C62.3013 59.4876 59.8678 60.2804 58.0698 62.0914C57.8659 62.2968 57.6755 62.5108 57.498 62.7318V74.5453L68.5625 74.5452Z" fill="#40D98D"/>
<path d="M56.9982 61.832H55.9602L53.9258 76.8302L61.5807 74.7961C63.2338 73.4592 64.2918 71.4158 64.2918 69.1243C64.2918 65.0968 61.0263 61.832 56.9982 61.832Z" fill="#F3263D"/>
<path d="M54.9221 61.832C52.255 61.832 49.9223 63.2633 48.6504 65.3995V74.7961L55.9601 76.8302V61.832H54.9221Z" fill="#F54B5E"/>
<path d="M44.3569 74.321C43.9661 73.9199 43.6427 73.4402 43.4152 72.8913C42.1463 69.8286 42.0759 65.551 44.8218 64.4138C47.5678 63.2766 50.5432 66.3511 51.812 69.4138C52.5282 71.1424 52.0977 73.0594 50.8713 74.321L47.3647 76.1783L44.3569 74.321Z" fill="#F0F7FE"/>
<path d="M82.3594 84H29.6407C28.7346 84 28 83.2654 28 82.3594V74.1562H84V82.3594C84 83.2654 83.2654 84 82.3594 84Z" fill="#282A52"/>
<path d="M55.9824 74.1562V84H82.3586C83.2647 84 83.9992 83.2654 83.9992 82.3594V74.1562H55.9824Z" fill="#1E203E"/>
<path d="M82.3593 178.031H29.6406C28.7346 178.031 28 177.296 28 176.39V139.859C28 139.256 28.3309 138.702 28.8618 138.415L55.2211 124.197C55.7073 123.934 56.2927 123.934 56.7788 124.197L83.1382 138.415C83.6691 138.702 84 139.256 84 139.859V176.39C84 177.296 83.2654 178.031 82.3593 178.031Z" fill="#F0F7FE"/>
<path d="M83.1375 138.415L56.7781 124.196C56.53 124.062 56.256 123.997 55.9824 124V178.03H82.3586C83.2647 178.03 83.9992 177.295 83.9992 176.389V139.859C83.9992 139.255 83.6684 138.701 83.1375 138.415Z" fill="#E2EFFE"/>
<path d="M56.0029 156.153V155.282C56.0029 152.076 53.4034 149.477 50.1967 149.477H43.9866L42.1289 173.348L56.0028 171.49L56.0029 156.153Z" fill="#25BB71"/>
<path d="M45.4998 157.222V143.074H42.4822C38.4524 143.074 35.1855 146.34 35.1855 150.37V158.583L45.4998 157.222Z" fill="#40D98D"/>
<path d="M74.666 154.531L77.2021 151.996C77.8426 151.355 78.8811 151.355 79.5216 151.996C80.1621 152.636 80.1621 153.674 79.5216 154.315L76.9855 156.85L74.666 154.531Z" fill="#25BB71"/>
<path d="M39.6074 171.274C35.1992 168.764 32.2266 164.023 32.2266 158.588V151.27C38.4936 151.27 44.029 154.401 47.353 159.185L50.1675 173.663L39.6074 171.274Z" fill="#157DF5"/>
<path d="M68.5625 170.545C68.9457 170.276 69.312 169.973 69.6544 169.631L76.603 162.683C78.855 160.432 78.8682 156.789 76.6428 154.521C74.446 152.283 70.828 152.203 68.5389 154.346C68.5231 154.361 68.5075 154.376 68.4919 154.391C67.4678 155.371 66.0672 155.848 64.6558 155.713C62.3013 155.488 59.8678 156.28 58.0698 158.091C57.8659 158.297 57.6755 158.511 57.498 158.732V170.545L68.5625 170.545Z" fill="#40D98D"/>
<path d="M56.9982 157.832H55.9602L53.9258 172.83L61.5807 170.796C63.2338 169.459 64.2918 167.416 64.2918 165.124C64.2918 161.097 61.0263 157.832 56.9982 157.832Z" fill="#F3263D"/>
<path d="M54.9221 157.832C52.255 157.832 49.9223 159.263 48.6504 161.399V170.796L55.9601 172.83V157.832H54.9221Z" fill="#F54B5E"/>
<path d="M44.3569 170.321C43.9661 169.92 43.6427 169.44 43.4152 168.891C42.1463 165.829 42.0759 161.551 44.8218 160.414C47.5678 159.277 50.5432 162.351 51.812 165.414C52.5282 167.142 52.0977 169.059 50.8713 170.321L47.3647 172.178L44.3569 170.321Z" fill="#F0F7FE"/>
<path d="M82.3594 180H29.6407C28.7346 180 28 179.265 28 178.359V170.156H84V178.359C84 179.265 83.2654 180 82.3594 180Z" fill="#282A52"/>
<path d="M55.9824 170.156V180H82.3586C83.2647 180 83.9992 179.265 83.9992 178.359V170.156H55.9824Z" fill="#1E203E"/>
<defs>
<filter id="filter0_d_6367_22441" x="10" y="9" width="96" height="96" filterUnits="userSpaceOnUse" color-interpolation-filters="sRGB">
<feFlood flood-opacity="0" result="BackgroundImageFix"/>
<feColorMatrix in="SourceAlpha" type="matrix" values="0 0 0 0 0 0 0 0 0 0 0 0 0 0 0 0 0 0 127 0" result="hardAlpha"/>
<feOffset dx="2" dy="1"/>
<feGaussianBlur stdDeviation="4"/>
<feColorMatrix type="matrix" values="0 0 0 0 0.0392157 0 0 0 0 0.0392157 0 0 0 0 0.0627451 0 0 0 0.08 0"/>
<feBlend mode="normal" in2="BackgroundImageFix" result="effect1_dropShadow_6367_22441"/>
<feBlend mode="normal" in="SourceGraphic" in2="effect1_dropShadow_6367_22441" result="shape"/>
</filter>
</defs>
</svg>
