<svg width="112" height="208" viewBox="0 0 112 208" fill="none" xmlns="http://www.w3.org/2000/svg">
<rect x="0.5" y="0.5" width="111" height="207" rx="4.5" stroke="#9747FF" stroke-dasharray="10 5"/>
<g filter="url(#filter0_d_6367_20909)">
<rect x="16" y="16" width="80" height="80" rx="8" fill="white"/>
</g>
<path d="M56.4278 64.5704V63.733C56.4278 60.6509 53.9038 58.1523 50.7903 58.1523H44.7607L42.957 81.1002L56.4277 79.3147L56.4278 64.5704Z" fill="#25BB71"/>
<path d="M46.2293 66.6007V53H43.2994C39.3867 53 36.2148 56.1399 36.2148 60.0132V67.9092L46.2293 66.6007Z" fill="#40D98D"/>
<path d="M74.2227 63.0898L77.6714 59.6758L79.8359 61.8185L76.3871 65.2325L74.2227 63.0898Z" fill="#25BB71"/>
<path d="M40.5081 79.1096C36.228 76.6967 33.3418 72.1393 33.3418 66.9146V59.8789C39.4267 59.8789 44.8012 62.8893 48.0285 67.4878L50.7612 81.4059L40.5081 79.1096Z" fill="#157DF5"/>
<path d="M68.6217 78.4092C68.9938 78.1507 69.3495 77.859 69.6819 77.5299L76.4285 70.8513C78.6151 68.6868 78.6279 65.1854 76.4671 63.0051C74.3342 60.8531 70.8214 60.776 68.5988 62.837C68.5835 62.8512 68.5683 62.8655 68.5532 62.8798C67.5588 63.8222 66.199 64.2802 64.8286 64.1504C62.5425 63.934 60.1798 64.6962 58.4341 66.4371C58.236 66.6346 58.0512 66.8402 57.8789 67.0527V78.4093L68.6217 78.4092Z" fill="#40D98D"/>
<path d="M59.8855 64.1875H58.8777L56.9023 78.6056L64.3347 76.6502C65.9398 75.365 66.967 73.4006 66.967 71.1977C66.967 67.326 63.7965 64.1875 59.8855 64.1875Z" fill="#0965CD"/>
<path d="M57.8706 64.1875C55.2811 64.1875 53.0162 65.5634 51.7812 67.617V76.6502L58.8784 78.6056V64.1875H57.8706Z" fill="#157DF5"/>
<path d="M45.5253 75.7789C45.0576 75.3034 44.6704 74.735 44.3981 74.0844C42.8792 70.4544 42.7949 65.3846 46.0819 64.0367C49.369 62.6889 52.9307 66.3328 54.4496 69.9627C55.3069 72.0115 54.7915 74.2836 53.3235 75.7789L49.1258 77.9802L45.5253 75.7789Z" fill="#F0F7FE"/>
<path d="M80.0859 76.1133H31.9141C30.1723 76.1133 29.0821 77.9969 29.9498 79.5072L32.531 84.0003H78.8902C79.2482 84.0003 79.5789 83.8089 79.7573 83.4984L82.0502 79.5072C82.9179 77.9969 81.8277 76.1133 80.0859 76.1133Z" fill="#1E203E"/>
<path d="M58.8755 76.1133H31.9141C30.1723 76.1133 29.0821 77.9969 29.9498 79.5072L31.9544 82.9966C32.3111 83.6175 32.9725 84.0003 33.6886 84.0003H58.8755V76.1133Z" fill="#282A52"/>
<path d="M40.2579 36H46.2763V39.2812H40.2579V36Z" fill="#E2EFFE"/>
<path d="M57.8945 36H64.9129V39.2812H57.8945V36Z" fill="#B6D7FC"/>
<path d="M74 48C79.5228 48 84 43.5228 84 38C84 32.4772 79.5228 28 74 28C68.4772 28 64 32.4772 64 38C64 43.5228 68.4772 48 74 48Z" fill="#40D98D"/>
<path d="M73.9991 28C73.9974 28 73.9958 28 73.9941 28V47.9999C73.9958 47.9999 73.9974 48 73.9991 48C79.5219 48 83.9991 43.5229 83.9991 38C83.9991 32.4771 79.5219 28 73.9991 28Z" fill="#25BB71"/>
<path d="M79.1317 34.3645C78.5494 33.7821 77.6052 33.7821 77.0228 34.3645L72.9162 38.4712L70.9792 36.5342C70.3969 35.9516 69.4527 35.9518 68.8704 36.5342C68.288 37.1165 68.288 38.0608 68.8704 38.6431L71.8617 41.6345C72.1414 41.9142 72.5207 42.0713 72.9162 42.0713C73.3117 42.0713 73.6911 41.9142 73.9707 41.6345L79.1318 36.4734C79.7142 35.891 79.7142 34.9468 79.1317 34.3645Z" fill="white"/>
<path d="M77.0228 34.3645L73.9961 37.3912V41.6091L79.1317 36.4734C79.7141 35.891 79.7141 34.9467 79.1317 34.3645C78.5495 33.7821 77.6052 33.7821 77.0228 34.3645Z" fill="#F0F7FE"/>
<path d="M34.9498 44.8994C31.1176 44.8994 28 41.7817 28 37.9496C28 34.1176 31.1176 30.9998 34.9498 30.9998C38.782 30.9998 41.8996 34.1174 41.8996 37.9496C41.8996 41.7818 38.7819 44.8994 34.9498 44.8994Z" fill="#40D98D"/>
<path d="M52.5859 30.9998L51.4922 37.9496L52.5859 44.8994C56.418 44.8994 59.5357 41.7818 59.5357 37.9496C59.5357 34.1174 56.418 30.9998 52.5859 30.9998Z" fill="#0965CD"/>
<path d="M45.6367 37.9496C45.6367 41.7817 48.7543 44.8994 52.5865 44.8994V30.9998C48.7545 30.9998 45.6367 34.1176 45.6367 37.9496Z" fill="#157DF5"/>
<path d="M56.4278 160.57V159.733C56.4278 156.651 53.9038 154.152 50.7903 154.152H44.7607L42.957 177.1L56.4277 175.315L56.4278 160.57Z" fill="#25BB71"/>
<path d="M46.2293 162.601V149H43.2994C39.3867 149 36.2148 152.14 36.2148 156.013V163.909L46.2293 162.601Z" fill="#40D98D"/>
<path d="M74.2227 159.09L77.6714 155.676L79.8359 157.818L76.3871 161.232L74.2227 159.09Z" fill="#25BB71"/>
<path d="M40.5081 175.11C36.228 172.697 33.3418 168.139 33.3418 162.915V155.879C39.4267 155.879 44.8012 158.889 48.0285 163.488L50.7612 177.406L40.5081 175.11Z" fill="#157DF5"/>
<path d="M68.6217 174.409C68.9938 174.151 69.3495 173.859 69.6819 173.53L76.4285 166.851C78.6151 164.687 78.6279 161.185 76.4671 159.005C74.3342 156.853 70.8214 156.776 68.5988 158.837C68.5835 158.851 68.5683 158.866 68.5532 158.88C67.5588 159.822 66.199 160.28 64.8286 160.15C62.5425 159.934 60.1798 160.696 58.4341 162.437C58.236 162.635 58.0512 162.84 57.8789 163.053V174.409L68.6217 174.409Z" fill="#40D98D"/>
<path d="M59.8855 160.188H58.8777L56.9023 174.606L64.3347 172.65C65.9398 171.365 66.967 169.401 66.967 167.198C66.967 163.326 63.7965 160.188 59.8855 160.188Z" fill="#0965CD"/>
<path d="M57.8706 160.188C55.2811 160.188 53.0162 161.563 51.7812 163.617V172.65L58.8784 174.606V160.188H57.8706Z" fill="#157DF5"/>
<path d="M45.5253 171.779C45.0576 171.303 44.6704 170.735 44.3981 170.084C42.8792 166.454 42.7949 161.385 46.0819 160.037C49.369 158.689 52.9307 162.333 54.4496 165.963C55.3069 168.012 54.7915 170.284 53.3235 171.779L49.1258 173.98L45.5253 171.779Z" fill="#F0F7FE"/>
<path d="M80.0859 172.113H31.9141C30.1723 172.113 29.0821 173.997 29.9498 175.507L31.9544 178.997C32.3111 179.617 32.9725 180 33.6886 180H78.8902C79.2482 180 79.5789 179.809 79.7573 179.498L82.0502 175.507C82.9179 173.997 81.8277 172.113 80.0859 172.113Z" fill="#1E203E"/>
<path d="M58.8755 172.113H31.9141C30.1723 172.113 29.0821 173.997 29.9498 175.507L31.9544 178.997C32.3111 179.617 32.9725 180 33.6886 180H58.8755V172.113Z" fill="#282A52"/>
<path d="M40.2579 132H46.2763V135.281H40.2579V132Z" fill="#E2EFFE"/>
<path d="M57.8945 132H64.9129V135.281H57.8945V132Z" fill="#B6D7FC"/>
<path d="M74 144C79.5228 144 84 139.523 84 134C84 128.477 79.5228 124 74 124C68.4772 124 64 128.477 64 134C64 139.523 68.4772 144 74 144Z" fill="#40D98D"/>
<path d="M73.9991 124C73.9974 124 73.9958 124 73.9941 124V144C73.9958 144 73.9974 144 73.9991 144C79.5219 144 83.9991 139.523 83.9991 134C83.9991 128.477 79.5219 124 73.9991 124Z" fill="#25BB71"/>
<path d="M79.1317 130.364C78.5494 129.782 77.6052 129.782 77.0228 130.364L72.9162 134.471L70.9792 132.534C70.3969 131.952 69.4527 131.952 68.8704 132.534C68.288 133.117 68.288 134.061 68.8704 134.643L71.8617 137.635C72.1414 137.914 72.5207 138.071 72.9162 138.071C73.3117 138.071 73.6911 137.914 73.9707 137.635L79.1318 132.473C79.7142 131.891 79.7142 130.947 79.1317 130.364Z" fill="white"/>
<path d="M77.0228 130.364L73.9961 133.391V137.609L79.1317 132.473C79.7141 131.891 79.7141 130.947 79.1317 130.364C78.5495 129.782 77.6052 129.782 77.0228 130.364Z" fill="#F0F7FE"/>
<path d="M34.9498 140.899C31.1176 140.899 28 137.782 28 133.95C28 130.118 31.1176 127 34.9498 127C38.782 127 41.8996 130.117 41.8996 133.95C41.8996 137.782 38.7819 140.899 34.9498 140.899Z" fill="#40D98D"/>
<path d="M52.5859 127L51.4922 133.95L52.5859 140.899C56.418 140.899 59.5357 137.782 59.5357 133.95C59.5357 130.117 56.418 127 52.5859 127Z" fill="#0965CD"/>
<path d="M45.6367 133.95C45.6367 137.782 48.7543 140.899 52.5865 140.899V127C48.7545 127 45.6367 130.118 45.6367 133.95Z" fill="#157DF5"/>
<defs>
<filter id="filter0_d_6367_20909" x="10" y="9" width="96" height="96" filterUnits="userSpaceOnUse" color-interpolation-filters="sRGB">
<feFlood flood-opacity="0" result="BackgroundImageFix"/>
<feColorMatrix in="SourceAlpha" type="matrix" values="0 0 0 0 0 0 0 0 0 0 0 0 0 0 0 0 0 0 127 0" result="hardAlpha"/>
<feOffset dx="2" dy="1"/>
<feGaussianBlur stdDeviation="4"/>
<feColorMatrix type="matrix" values="0 0 0 0 0.0392157 0 0 0 0 0.0392157 0 0 0 0 0.0627451 0 0 0 0.08 0"/>
<feBlend mode="normal" in2="BackgroundImageFix" result="effect1_dropShadow_6367_20909"/>
<feBlend mode="normal" in="SourceGraphic" in2="effect1_dropShadow_6367_20909" result="shape"/>
</filter>
</defs>
</svg>
