<svg width="112" height="208" viewBox="0 0 112 208" fill="none" xmlns="http://www.w3.org/2000/svg">
<rect x="0.5" y="0.5" width="111" height="207" rx="4.5" stroke="#9747FF" stroke-dasharray="10 5"/>
<g filter="url(#filter0_dd_7390_32571)">
<rect x="16" y="16" width="80" height="80" rx="8" fill="white"/>
</g>
<path d="M72.375 29.6406V72.4062H36.2812V29.6406C36.2812 28.7218 37.003 28 37.9219 28H70.7344C71.6532 28 72.375 28.7218 72.375 29.6406Z" fill="#157DF5"/>
<path d="M75.375 29.6406V72.4062H55.6094V28H73.7344C74.6532 28 75.375 28.7218 75.375 29.6406Z" fill="#0965CD"/>
<path d="M66.8125 54.7188C66.8125 55.6374 66.0907 56.3594 65.1719 56.3594H60.25C59.3311 56.3594 58.6094 55.6374 58.6094 54.7188C58.6094 53.7999 59.3311 53.0781 60.25 53.0781H65.1719C66.0907 53.0781 66.8125 53.7999 66.8125 54.7188Z" fill="#25BB71"/>
<path d="M65.8125 61.2812C65.8125 62.1999 65.0907 62.9219 64.1719 62.9219H43.4844C42.5655 62.9219 41.8438 62.1999 41.8438 61.2812C41.8438 60.3624 42.5655 59.6406 43.4844 59.6406H64.1719C65.0907 59.6406 65.8125 60.3624 65.8125 61.2812Z" fill="#E2EFFE"/>
<path d="M66.8125 61.2812C66.8125 62.1999 66.0907 62.9219 65.1719 62.9219H55.6094V59.6406H65.1719C66.0907 59.6406 66.8125 60.3624 66.8125 61.2812Z" fill="#B6D7FC"/>
<path d="M78.5781 68.2031H65.4531C64.5343 68.2031 63.8125 68.9249 63.8125 69.8438V71.4844H47.4062V69.8438C47.4062 68.9249 46.6845 68.2031 45.7656 68.2031H32.6406C31.7218 68.2031 31 68.9249 31 69.8438V82.3594C31 83.278 31.7218 84 32.6406 84H78.5781C79.497 84 80.2188 83.278 80.2188 82.3594V69.8438C80.2188 68.9249 79.497 68.2031 78.5781 68.2031Z" fill="#E2EFFE"/>
<path d="M80.2188 69.8438V82.3594C80.2188 83.278 79.497 84 78.5781 84H55.6094V71.4844H63.8125V69.8438C63.8125 68.9249 64.5343 68.2031 65.4531 68.2031H78.5781C79.497 68.2031 80.2188 68.9249 80.2188 69.8438Z" fill="#B6D7FC"/>
<path d="M63.8125 77.6875C63.8125 78.6061 63.0907 79.3281 62.1719 79.3281H49.0469C48.128 79.3281 47.4062 78.6061 47.4062 77.6875C47.4062 76.7686 48.128 76.0469 49.0469 76.0469H62.1719C63.0907 76.0469 63.8125 76.7686 63.8125 77.6875Z" fill="#40D98D"/>
<path d="M63.8125 77.6875C63.8125 78.6061 63.0907 79.3281 62.1719 79.3281H55.6094V76.0469H62.1719C63.0907 76.0469 63.8125 76.7686 63.8125 77.6875Z" fill="#25BB71"/>
<path d="M55.4099 36.7414C55.1557 36.0734 54.5167 35.634 53.8032 35.6348C53.0896 35.6341 52.4541 36.0718 52.1975 36.7374L48.4572 46.5573C48.1633 47.3283 48.5508 48.1918 49.3218 48.4857C50.0927 48.7785 50.9563 48.392 51.2502 47.6211L51.815 46.137H55.6689L56.5825 43.6116L55.6689 37.4276L55.4099 36.7414ZM52.9535 43.1489L53.7972 40.9327L54.6339 43.1489H52.9535Z" fill="white"/>
<path d="M46.6639 35.6348H41.163C40.3378 35.6348 39.6688 36.3037 39.6688 37.1288C39.6688 37.9539 40.3378 38.6229 41.163 38.6229H42.4082V47.0892C42.4082 47.9143 43.0771 48.5833 43.9023 48.5833C44.7275 48.5833 45.3964 47.9143 45.3964 47.0892V38.6229H46.6639C47.489 38.6229 48.158 37.9539 48.158 37.1288C48.158 36.3037 47.4891 35.6348 46.6639 35.6348Z" fill="white"/>
<path d="M58.2458 48.4868C58.0715 48.5525 57.8932 48.5834 57.7179 48.5834C57.1143 48.5834 56.5455 48.2148 56.3204 47.6162L55.6689 46.1371V37.4277L59.1164 46.5614C59.4073 47.3333 59.0178 48.1959 58.2458 48.4868Z" fill="#E2EFFE"/>
<path d="M71.0346 48.3118C70.7726 48.4951 70.4728 48.5838 70.176 48.5838C69.7058 48.5838 69.2436 48.3626 68.9527 47.9493L66.4217 44.3516L63.8856 47.9503C63.5948 48.3626 63.1326 48.5838 62.6634 48.5838C62.3656 48.5838 62.0658 48.4951 61.8038 48.3108C61.1294 47.8357 60.9681 46.9034 61.4432 46.2291L64.5948 41.7549L61.9452 37.9889C61.4701 37.3136 61.6325 36.3823 62.3078 35.9072C62.9832 35.4321 63.9145 35.5944 64.3897 36.2697L66.4227 39.1602L68.4597 36.2687C68.9348 35.5944 69.8672 35.4331 70.5425 35.9082C71.2169 36.3833 71.3782 37.3146 70.9031 37.9899L68.2495 41.7559L71.3972 46.2301C71.8713 46.9044 71.7089 47.8367 71.0346 48.3118Z" fill="#E2EFFE"/>
<path d="M72.375 125.641V168.406H36.2812V125.641C36.2812 124.722 37.003 124 37.9219 124H70.7344C71.6532 124 72.375 124.722 72.375 125.641Z" fill="#157DF5"/>
<path d="M75.375 125.641V168.406H55.6094V124H73.7344C74.6532 124 75.375 124.722 75.375 125.641Z" fill="#0965CD"/>
<path d="M66.8125 150.719C66.8125 151.637 66.0907 152.359 65.1719 152.359H60.25C59.3311 152.359 58.6094 151.637 58.6094 150.719C58.6094 149.8 59.3311 149.078 60.25 149.078H65.1719C66.0907 149.078 66.8125 149.8 66.8125 150.719Z" fill="#25BB71"/>
<path d="M65.8125 157.281C65.8125 158.2 65.0907 158.922 64.1719 158.922H43.4844C42.5655 158.922 41.8438 158.2 41.8438 157.281C41.8438 156.362 42.5655 155.641 43.4844 155.641H64.1719C65.0907 155.641 65.8125 156.362 65.8125 157.281Z" fill="#E2EFFE"/>
<path d="M66.8125 157.281C66.8125 158.2 66.0907 158.922 65.1719 158.922H55.6094V155.641H65.1719C66.0907 155.641 66.8125 156.362 66.8125 157.281Z" fill="#B6D7FC"/>
<path d="M78.5781 164.203H65.4531C64.5343 164.203 63.8125 164.925 63.8125 165.844V167.484H47.4062V165.844C47.4062 164.925 46.6845 164.203 45.7656 164.203H32.6406C31.7218 164.203 31 164.925 31 165.844V178.359C31 179.278 31.7218 180 32.6406 180H78.5781C79.497 180 80.2188 179.278 80.2188 178.359V165.844C80.2188 164.925 79.497 164.203 78.5781 164.203Z" fill="#E2EFFE"/>
<path d="M80.2188 165.844V178.359C80.2188 179.278 79.497 180 78.5781 180H55.6094V167.484H63.8125V165.844C63.8125 164.925 64.5343 164.203 65.4531 164.203H78.5781C79.497 164.203 80.2188 164.925 80.2188 165.844Z" fill="#B6D7FC"/>
<path d="M63.8125 173.688C63.8125 174.606 63.0907 175.328 62.1719 175.328H49.0469C48.128 175.328 47.4062 174.606 47.4062 173.688C47.4062 172.769 48.128 172.047 49.0469 172.047H62.1719C63.0907 172.047 63.8125 172.769 63.8125 173.688Z" fill="#40D98D"/>
<path d="M63.8125 173.688C63.8125 174.606 63.0907 175.328 62.1719 175.328H55.6094V172.047H62.1719C63.0907 172.047 63.8125 172.769 63.8125 173.688Z" fill="#25BB71"/>
<path d="M55.4099 132.741C55.1557 132.073 54.5167 131.634 53.8032 131.635C53.0896 131.634 52.4541 132.072 52.1975 132.737L48.4572 142.557C48.1633 143.328 48.5508 144.192 49.3218 144.486C50.0927 144.779 50.9563 144.392 51.2502 143.621L51.815 142.137H55.6689L56.5825 139.612L55.6689 133.428L55.4099 132.741ZM52.9535 139.149L53.7972 136.933L54.6339 139.149H52.9535Z" fill="white"/>
<path d="M46.6639 131.635H41.163C40.3378 131.635 39.6688 132.304 39.6688 133.129C39.6688 133.954 40.3378 134.623 41.163 134.623H42.4082V143.089C42.4082 143.914 43.0771 144.583 43.9023 144.583C44.7275 144.583 45.3964 143.914 45.3964 143.089V134.623H46.6639C47.489 134.623 48.158 133.954 48.158 133.129C48.158 132.304 47.4891 131.635 46.6639 131.635Z" fill="white"/>
<path d="M58.2458 144.487C58.0715 144.552 57.8932 144.583 57.7179 144.583C57.1143 144.583 56.5455 144.215 56.3204 143.616L55.6689 142.137V133.428L59.1164 142.561C59.4073 143.333 59.0178 144.196 58.2458 144.487Z" fill="#E2EFFE"/>
<path d="M71.0346 144.312C70.7726 144.495 70.4728 144.584 70.176 144.584C69.7058 144.584 69.2436 144.363 68.9527 143.949L66.4217 140.352L63.8856 143.95C63.5948 144.363 63.1326 144.584 62.6634 144.584C62.3656 144.584 62.0658 144.495 61.8038 144.311C61.1294 143.836 60.9681 142.903 61.4432 142.229L64.5948 137.755L61.9452 133.989C61.4701 133.314 61.6325 132.382 62.3078 131.907C62.9832 131.432 63.9145 131.594 64.3897 132.27L66.4227 135.16L68.4597 132.269C68.9348 131.594 69.8672 131.433 70.5425 131.908C71.2169 132.383 71.3782 133.315 70.9031 133.99L68.2495 137.756L71.3972 142.23C71.8713 142.904 71.7089 143.837 71.0346 144.312Z" fill="#E2EFFE"/>
<defs>
<filter id="filter0_dd_7390_32571" x="6" y="9" width="100" height="100" filterUnits="userSpaceOnUse" color-interpolation-filters="sRGB">
<feFlood flood-opacity="0" result="BackgroundImageFix"/>
<feColorMatrix in="SourceAlpha" type="matrix" values="0 0 0 0 0 0 0 0 0 0 0 0 0 0 0 0 0 0 127 0" result="hardAlpha"/>
<feOffset dy="3"/>
<feGaussianBlur stdDeviation="5"/>
<feColorMatrix type="matrix" values="0 0 0 0 0.516667 0 0 0 0 0.578358 0 0 0 0 0.775 0 0 0 0.12 0"/>
<feBlend mode="normal" in2="BackgroundImageFix" result="effect1_dropShadow_7390_32571"/>
<feColorMatrix in="SourceAlpha" type="matrix" values="0 0 0 0 0 0 0 0 0 0 0 0 0 0 0 0 0 0 127 0" result="hardAlpha"/>
<feOffset dy="1"/>
<feGaussianBlur stdDeviation="3"/>
<feColorMatrix type="matrix" values="0 0 0 0 0.709809 0 0 0 0 0.788943 0 0 0 0 0.920833 0 0 0 0.15 0"/>
<feBlend mode="normal" in2="effect1_dropShadow_7390_32571" result="effect2_dropShadow_7390_32571"/>
<feBlend mode="normal" in="SourceGraphic" in2="effect2_dropShadow_7390_32571" result="shape"/>
</filter>
</defs>
</svg>
