<svg width="112" height="208" viewBox="0 0 112 208" fill="none" xmlns="http://www.w3.org/2000/svg">
<rect x="0.5" y="0.5" width="111" height="207" rx="4.5" stroke="#9747FF" stroke-dasharray="10 5"/>
<g filter="url(#filter0_d_20671_11084)">
<rect x="16" y="16" width="80" height="80" rx="8" fill="white"/>
</g>
<path d="M66.4997 34.281C67.3958 39.5127 68.2918 44.7445 69.1877 49.9762C68.2916 54.6921 67.3957 59.408 66.4997 64.1238C64.8265 64.9453 63.1532 65.7668 61.48 66.5883C59.8356 65.9815 58.1911 65.3748 56.5466 64.768C56.0102 63.9629 55.4739 63.1579 54.9375 62.3528C55.4739 61.2773 56.0102 60.2019 56.5466 59.1265L59.9339 52.5662C61.0364 50.4323 61.6183 48.0348 61.6183 45.6341V34.281C62.5064 33.98 63.3945 33.6789 64.2826 33.3779C65.0216 33.6789 65.7606 33.9799 66.4997 34.281Z" fill="#F0F7FE"/>
<path d="M78.9408 63.7882C76.6329 65.6648 74.325 67.5416 72.0171 69.4182C70.1779 67.6535 68.3387 65.8887 66.4995 64.124V34.2812C67.3495 33.7344 68.1995 33.1875 69.0495 32.6406C69.8536 33.1875 70.6577 33.7344 71.4618 34.2812V45.6343C71.4618 48.035 72.0437 50.4325 73.1462 52.5664L78.9408 63.7882Z" fill="#E2EFFE"/>
<path d="M66.4996 64.1242C67.5196 66.857 68.5397 69.5898 69.5598 72.3227C68.5395 75.3556 67.5191 78.3887 66.4988 81.4217C61.3954 81.4217 56.2918 81.4217 51.1885 81.4217C51.1438 77.6812 51.0992 73.9408 51.0547 70.2004C52.8854 68.3897 54.716 66.5791 56.5467 64.7684L58.1862 63.9426C60.938 62.8008 63.7631 62.8642 66.4996 64.1242Z" fill="#40D98D"/>
<path d="M83.0718 78.3906C82.6797 79.0345 81.9699 79.9425 80.788 80.6103C79.4771 81.3509 78.2451 81.4232 77.6785 81.4214C73.9518 81.4214 70.2251 81.4214 66.4985 81.4214C66.4989 75.6555 66.4991 69.8897 66.4994 64.1239C66.6806 64.2212 66.9436 64.3578 67.2661 64.5089C68.325 65.0047 70.1503 65.8881 72.3958 65.8881C73.6722 65.8881 74.9508 65.6343 76.214 65.1301L78.9407 63.7881L83.2894 72.2099C84.3088 74.183 84.2268 76.4941 83.0718 78.3906Z" fill="#25BB71"/>
<path d="M66.4995 31C66.812 31.5469 67.1246 32.0937 67.4373 32.6406C67.1248 33.1875 66.8122 33.7344 66.4995 34.2812H61.1948C60.2948 34.2812 59.5542 33.5407 59.5542 32.6406C59.5542 31.7406 60.2948 31 61.1948 31H66.4995Z" fill="#E2EFFE"/>
<path d="M73.4448 32.6406C73.4448 33.5407 72.7042 34.2812 71.8042 34.2812H66.4995V31H71.8042C72.7042 31 73.4448 31.7406 73.4448 32.6406Z" fill="#B6D7FC"/>
<path d="M43.9138 44.8906C44.6682 46.8734 45.4225 48.856 46.1769 50.8387C45.4225 52.5189 44.6682 54.1992 43.9138 55.8794C42.2232 56.7187 40.5325 57.5579 38.8419 58.3971C36.3216 58.1416 33.8014 57.886 31.2811 57.6305V52.7273L28.2153 47.3428C27.9255 46.8353 27.9288 46.2119 28.2219 45.7066C28.5161 45.2012 29.0564 44.8906 29.6405 44.8906H43.9138Z" fill="#F0F7FE"/>
<path d="M56.5463 46.5312V55.2516C54.1075 57.3862 51.6686 59.5206 49.2298 61.6552C47.4577 59.73 45.6857 57.8048 43.9136 55.8794V44.8906H54.9057C55.8113 44.8906 56.5463 45.6256 56.5463 46.5312Z" fill="#E2EFFE"/>
<path d="M43.914 55.8797C44.6683 60.0364 45.4227 64.1932 46.1771 68.35C45.4228 72.7072 44.6684 77.0646 43.914 81.4218H36.7937C33.7493 81.4218 31.2812 78.9538 31.2812 75.9094V71.0269C31.8002 70.4257 32.3191 69.8243 32.8381 69.2231C32.3191 68.7306 31.8002 68.2382 31.2812 67.7457V64.4645L32.6705 62.7165C32.2074 62.2054 31.7443 61.6943 31.2812 61.1832V57.6308L34.8701 56.0671C37.7387 54.7912 40.9378 54.7365 43.914 55.8797Z" fill="#157DF5"/>
<path d="M56.5463 55.251V75.9085C56.5585 78.956 54.0279 81.4365 51.0338 81.4209H43.9136V55.8788C44.1695 55.9761 44.4233 56.0811 44.677 56.196C46.3515 56.9517 48.0643 57.3313 49.7804 57.3313C51.3021 57.3232 52.8864 57.0585 54.2667 56.3698L56.5463 55.251Z" fill="#0965CD"/>
<path d="M38.9374 62.8237C38.9374 63.7304 38.2024 64.4643 37.2968 64.4643H31.2812V61.1831H37.2968C38.2024 61.1831 38.9374 61.9181 38.9374 62.8237Z" fill="#40D98D"/>
<path d="M38.9374 69.3862C38.9374 70.2929 38.2024 71.0268 37.2968 71.0268H31.2812V67.7456H37.2968C38.2024 67.7456 38.9374 68.4806 38.9374 69.3862Z" fill="#40D98D"/>
<path d="M66.4997 130.281C67.3958 135.513 68.2918 140.745 69.1877 145.976C68.2916 150.692 67.3957 155.408 66.4997 160.124C64.8265 160.945 63.1532 161.767 61.48 162.588C59.8356 161.981 58.1911 161.375 56.5466 160.768C56.0102 159.963 55.4739 159.158 54.9375 158.353C55.4739 157.277 56.0102 156.202 56.5466 155.126L59.9339 148.566C61.0364 146.432 61.6183 144.035 61.6183 141.634V130.281C62.5064 129.98 63.3945 129.679 64.2826 129.378C65.0216 129.679 65.7606 129.98 66.4997 130.281Z" fill="#F0F7FE"/>
<path d="M78.9408 159.788C76.6329 161.665 74.325 163.542 72.0171 165.418C70.1779 163.653 68.3387 161.889 66.4995 160.124V130.281C67.3495 129.734 68.1995 129.187 69.0495 128.641C69.8536 129.187 70.6577 129.734 71.4618 130.281V141.634C71.4618 144.035 72.0437 146.433 73.1462 148.566L78.9408 159.788Z" fill="#E2EFFE"/>
<path d="M66.4996 160.124C67.5196 162.857 68.5397 165.59 69.5598 168.323C68.5395 171.356 67.5191 174.389 66.4988 177.422C61.3954 177.422 56.2918 177.422 51.1885 177.422C51.1438 173.681 51.0992 169.941 51.0547 166.2C52.8854 164.39 54.716 162.579 56.5467 160.768L58.1862 159.943C60.938 158.801 63.7631 158.864 66.4996 160.124Z" fill="#40D98D"/>
<path d="M83.0718 174.391C82.6797 175.035 81.9699 175.943 80.788 176.61C79.4771 177.351 78.2451 177.423 77.6785 177.421C73.9518 177.421 70.2251 177.421 66.4985 177.421C66.4989 171.656 66.4991 165.89 66.4994 160.124C66.6806 160.221 66.9436 160.358 67.2661 160.509C68.325 161.005 70.1503 161.888 72.3958 161.888C73.6722 161.888 74.9508 161.634 76.214 161.13L78.9407 159.788L83.2894 168.21C84.3088 170.183 84.2268 172.494 83.0718 174.391Z" fill="#25BB71"/>
<path d="M66.4995 127C66.812 127.547 67.1246 128.094 67.4373 128.641C67.1248 129.187 66.8122 129.734 66.4995 130.281H61.1948C60.2948 130.281 59.5542 129.541 59.5542 128.641C59.5542 127.741 60.2948 127 61.1948 127H66.4995Z" fill="#E2EFFE"/>
<path d="M73.4448 128.641C73.4448 129.541 72.7042 130.281 71.8042 130.281H66.4995V127H71.8042C72.7042 127 73.4448 127.741 73.4448 128.641Z" fill="#B6D7FC"/>
<path d="M43.9138 140.891C44.6682 142.873 45.4225 144.856 46.1769 146.839C45.4225 148.519 44.6682 150.199 43.9138 151.879C42.2232 152.719 40.5325 153.558 38.8419 154.397C36.3216 154.142 33.8014 153.886 31.2811 153.631V148.727L28.2153 143.343C27.9255 142.835 27.9288 142.212 28.2219 141.707C28.5161 141.201 29.0564 140.891 29.6405 140.891H43.9138Z" fill="#F0F7FE"/>
<path d="M56.5463 142.531V151.252C54.1075 153.386 51.6686 155.521 49.2298 157.655C47.4577 155.73 45.6857 153.805 43.9136 151.879V140.891H54.9057C55.8113 140.891 56.5463 141.626 56.5463 142.531Z" fill="#E2EFFE"/>
<path d="M43.914 151.88C44.6683 156.036 45.4227 160.193 46.1771 164.35C45.4228 168.707 44.6684 173.065 43.914 177.422H36.7937C33.7493 177.422 31.2812 174.954 31.2812 171.909V167.027C31.8002 166.426 32.3191 165.824 32.8381 165.223C32.3191 164.731 31.8002 164.238 31.2812 163.746V160.464L32.6705 158.717C32.2074 158.205 31.7443 157.694 31.2812 157.183V153.631L34.8701 152.067C37.7387 150.791 40.9378 150.737 43.914 151.88Z" fill="#157DF5"/>
<path d="M56.5463 151.251V171.908C56.5585 174.956 54.0279 177.436 51.0338 177.421H43.9136V151.879C44.1695 151.976 44.4233 152.081 44.677 152.196C46.3515 152.952 48.0643 153.331 49.7804 153.331C51.3021 153.323 52.8864 153.058 54.2667 152.37L56.5463 151.251Z" fill="#0965CD"/>
<path d="M38.9374 158.824C38.9374 159.73 38.2024 160.464 37.2968 160.464H31.2812V157.183H37.2968C38.2024 157.183 38.9374 157.918 38.9374 158.824Z" fill="#40D98D"/>
<path d="M38.9374 165.386C38.9374 166.293 38.2024 167.027 37.2968 167.027H31.2812V163.746H37.2968C38.2024 163.746 38.9374 164.481 38.9374 165.386Z" fill="#40D98D"/>
<defs>
<filter id="filter0_d_20671_11084" x="10" y="9" width="96" height="96" filterUnits="userSpaceOnUse" color-interpolation-filters="sRGB">
<feFlood flood-opacity="0" result="BackgroundImageFix"/>
<feColorMatrix in="SourceAlpha" type="matrix" values="0 0 0 0 0 0 0 0 0 0 0 0 0 0 0 0 0 0 127 0" result="hardAlpha"/>
<feOffset dx="2" dy="1"/>
<feGaussianBlur stdDeviation="4"/>
<feColorMatrix type="matrix" values="0 0 0 0 0.0392157 0 0 0 0 0.0392157 0 0 0 0 0.0627451 0 0 0 0.08 0"/>
<feBlend mode="normal" in2="BackgroundImageFix" result="effect1_dropShadow_20671_11084"/>
<feBlend mode="normal" in="SourceGraphic" in2="effect1_dropShadow_20671_11084" result="shape"/>
</filter>
</defs>
</svg>
