<svg width="112" height="208" viewBox="0 0 112 208" fill="none" xmlns="http://www.w3.org/2000/svg">
<rect x="0.5" y="0.5" width="111" height="207" rx="4.5" stroke="#9747FF" stroke-dasharray="10 5"/>
<g filter="url(#filter0_d_20671_11228)">
<rect x="16" y="16" width="80" height="80" rx="8" fill="white"/>
</g>
<path d="M70.3894 61.8417C70.1663 61.9555 69.9158 62.0156 69.6577 62.0156H42.5808C42.3227 62.0156 42.0722 61.9555 41.8491 61.8417C43.403 58.7245 42.1305 61.2782 49.1193 47.25V29.6406H63.1193V47.25C70.218 61.4992 68.9363 58.9268 70.3894 61.8417Z" fill="#F0F7FE"/>
<path d="M70.3893 61.8417C70.1662 61.9555 69.9157 62.0156 69.6576 62.0156H56.1191V29.6406H63.1191V47.25C70.2179 61.4992 68.9361 58.9268 70.3893 61.8417Z" fill="#E2EFFE"/>
<path d="M75.3099 82.3596H36.9281C34.489 82.3596 32.902 79.7926 33.9935 77.6106C43.3258 58.8771 41.4842 62.5735 42.9448 59.6436H69.2932C70.7672 62.6003 69.1383 59.3312 78.2445 77.6106C79.336 79.7926 77.749 82.3596 75.3099 82.3596Z" fill="#157DF5"/>
<path d="M75.3101 82.3596H56.1191V59.6436H69.2934C70.7673 62.6003 69.1385 59.3312 78.2446 77.6106C79.3362 79.7926 77.7491 82.3596 75.3101 82.3596Z" fill="#0965CD"/>
<path d="M70.0098 29.6406C70.0098 30.5462 69.2748 31.2812 68.3691 31.2812H43.8691C42.9635 31.2812 42.2285 30.5462 42.2285 29.6406C42.2285 28.735 42.9635 28 43.8691 28H68.3691C69.2748 28 70.0098 28.735 70.0098 29.6406Z" fill="#E2EFFE"/>
<path d="M68.3691 31.2812H56.1191V28H68.3691C69.2748 28 70.0098 28.735 70.0098 29.6406C70.0098 30.5462 69.2748 31.2812 68.3691 31.2812Z" fill="#B6D7FC"/>
<path d="M49.1191 76.8906C51.9582 76.8906 54.2598 74.5891 54.2598 71.75C54.2598 68.9109 51.9582 66.6094 49.1191 66.6094C46.2801 66.6094 43.9785 68.9109 43.9785 71.75C43.9785 74.5891 46.2801 76.8906 49.1191 76.8906Z" fill="#40D98D"/>
<path d="M61.3691 69.8902C60.4724 69.8902 59.7285 69.1584 59.7285 68.2496C59.7285 67.3102 60.5329 66.5251 61.531 66.6167C62.4535 66.7133 63.0922 67.533 63.0021 68.4115C62.9136 69.2642 62.2005 69.8902 61.3691 69.8902Z" fill="#25BB71"/>
<path d="M66.6191 73.3902C65.7182 73.3902 64.9785 72.6536 64.9785 71.7496C64.9785 70.8117 65.7813 70.025 66.781 70.1167C67.7142 70.2144 68.3411 71.0436 68.2521 71.9115C68.1624 72.7755 67.4391 73.3902 66.6191 73.3902Z" fill="#25BB71"/>
<path d="M59.6191 76.8903C58.7185 76.8903 57.9785 76.1541 57.9785 75.2496C57.9785 74.3125 58.7808 73.5249 59.781 73.6167C60.6421 73.7069 61.3307 74.4478 61.2521 75.4115C61.1635 76.2642 60.4505 76.8903 59.6191 76.8903Z" fill="#25BB71"/>
<path d="M56.1191 65.5156C58.9582 65.5156 61.2598 63.2141 61.2598 60.375C61.2598 57.5359 58.9582 55.2344 56.1191 55.2344C53.2801 55.2344 50.9785 57.5359 50.9785 60.375C50.9785 63.2141 53.2801 65.5156 56.1191 65.5156Z" fill="#40D98D"/>
<path d="M61.2598 60.375C61.2598 63.21 58.9541 65.5156 56.1191 65.5156V55.2344C58.9541 55.2344 61.2598 57.54 61.2598 60.375Z" fill="#25BB71"/>
<path d="M79.7136 76.8786L64.7599 46.8639V29.6406C64.7599 28.735 64.0249 28 63.1193 28H49.1193C48.2136 28 47.4786 28.735 47.4786 29.6406V46.8639L32.526 76.8775C30.8885 80.1547 33.2734 84 36.9283 84H75.3102C78.972 84 81.3463 80.1485 79.7136 76.8786ZM75.3102 80.7188H36.9283C35.7072 80.7188 34.9156 79.4356 35.4616 78.342L50.5882 47.9817C50.7008 47.7542 50.7599 47.5037 50.7599 47.25V31.2812H61.4786V47.25C61.4786 47.5037 61.5377 47.7542 61.6504 47.9817L76.778 78.3442C77.3232 79.4363 76.5296 80.7188 75.3102 80.7188Z" fill="#E2EFFE"/>
<path d="M75.3101 84H56.1191V80.7188H75.3101C76.5307 80.7188 77.3226 79.4353 76.7779 78.3442L61.6502 47.9817C61.5376 47.7542 61.4785 47.5037 61.4785 47.25V31.2812H56.1191V28H63.1191C64.0248 28 64.7598 28.735 64.7598 29.6406V46.8639L79.7135 76.8786C81.3492 80.1547 78.965 84 75.3101 84Z" fill="#B6D7FC"/>
<path d="M70.3894 157.842C70.1663 157.955 69.9158 158.016 69.6577 158.016H42.5808C42.3227 158.016 42.0722 157.955 41.8491 157.842C43.403 154.725 42.1305 157.278 49.1193 143.25V125.641H63.1193V143.25C70.218 157.499 68.9363 154.927 70.3894 157.842Z" fill="#F0F7FE"/>
<path d="M70.3893 157.842C70.1662 157.955 69.9157 158.016 69.6576 158.016H56.1191V125.641H63.1191V143.25C70.2179 157.499 68.9361 154.927 70.3893 157.842Z" fill="#E2EFFE"/>
<path d="M75.3099 178.36H36.9281C34.489 178.36 32.902 175.793 33.9935 173.611C43.3258 154.877 41.4842 158.573 42.9448 155.644H69.2932C70.7672 158.6 69.1383 155.331 78.2445 173.611C79.336 175.793 77.749 178.36 75.3099 178.36Z" fill="#157DF5"/>
<path d="M75.3101 178.36H56.1191V155.644H69.2934C70.7673 158.6 69.1385 155.331 78.2446 173.611C79.3362 175.793 77.7491 178.36 75.3101 178.36Z" fill="#0965CD"/>
<path d="M70.0098 125.641C70.0098 126.546 69.2748 127.281 68.3691 127.281H43.8691C42.9635 127.281 42.2285 126.546 42.2285 125.641C42.2285 124.735 42.9635 124 43.8691 124H68.3691C69.2748 124 70.0098 124.735 70.0098 125.641Z" fill="#E2EFFE"/>
<path d="M68.3691 127.281H56.1191V124H68.3691C69.2748 124 70.0098 124.735 70.0098 125.641C70.0098 126.546 69.2748 127.281 68.3691 127.281Z" fill="#B6D7FC"/>
<path d="M49.1191 172.891C51.9582 172.891 54.2598 170.589 54.2598 167.75C54.2598 164.911 51.9582 162.609 49.1191 162.609C46.2801 162.609 43.9785 164.911 43.9785 167.75C43.9785 170.589 46.2801 172.891 49.1191 172.891Z" fill="#40D98D"/>
<path d="M61.3691 165.89C60.4724 165.89 59.7285 165.158 59.7285 164.25C59.7285 163.31 60.5329 162.525 61.531 162.617C62.4535 162.713 63.0922 163.533 63.0021 164.411C62.9136 165.264 62.2005 165.89 61.3691 165.89Z" fill="#25BB71"/>
<path d="M66.6191 169.39C65.7182 169.39 64.9785 168.654 64.9785 167.75C64.9785 166.812 65.7813 166.025 66.781 166.117C67.7142 166.214 68.3411 167.044 68.2521 167.911C68.1624 168.775 67.4391 169.39 66.6191 169.39Z" fill="#25BB71"/>
<path d="M59.6191 172.89C58.7185 172.89 57.9785 172.154 57.9785 171.25C57.9785 170.313 58.7808 169.525 59.781 169.617C60.6421 169.707 61.3307 170.448 61.2521 171.412C61.1635 172.264 60.4505 172.89 59.6191 172.89Z" fill="#25BB71"/>
<path d="M56.1191 161.516C58.9582 161.516 61.2598 159.214 61.2598 156.375C61.2598 153.536 58.9582 151.234 56.1191 151.234C53.2801 151.234 50.9785 153.536 50.9785 156.375C50.9785 159.214 53.2801 161.516 56.1191 161.516Z" fill="#40D98D"/>
<path d="M61.2598 156.375C61.2598 159.21 58.9541 161.516 56.1191 161.516V151.234C58.9541 151.234 61.2598 153.54 61.2598 156.375Z" fill="#25BB71"/>
<path d="M79.7136 172.879L64.7599 142.864V125.641C64.7599 124.735 64.0249 124 63.1193 124H49.1193C48.2136 124 47.4786 124.735 47.4786 125.641V142.864L32.526 172.878C30.8885 176.155 33.2734 180 36.9283 180H75.3102C78.972 180 81.3463 176.148 79.7136 172.879ZM75.3102 176.719H36.9283C35.7072 176.719 34.9156 175.436 35.4616 174.342L50.5882 143.982C50.7008 143.754 50.7599 143.504 50.7599 143.25V127.281H61.4786V143.25C61.4786 143.504 61.5377 143.754 61.6504 143.982L76.778 174.344C77.3232 175.436 76.5296 176.719 75.3102 176.719Z" fill="#E2EFFE"/>
<path d="M75.3101 180H56.1191V176.719H75.3101C76.5307 176.719 77.3226 175.435 76.7779 174.344L61.6502 143.982C61.5376 143.754 61.4785 143.504 61.4785 143.25V127.281H56.1191V124H63.1191C64.0248 124 64.7598 124.735 64.7598 125.641V142.864L79.7135 172.879C81.3492 176.155 78.965 180 75.3101 180Z" fill="#B6D7FC"/>
<defs>
<filter id="filter0_d_20671_11228" x="10" y="9" width="96" height="96" filterUnits="userSpaceOnUse" color-interpolation-filters="sRGB">
<feFlood flood-opacity="0" result="BackgroundImageFix"/>
<feColorMatrix in="SourceAlpha" type="matrix" values="0 0 0 0 0 0 0 0 0 0 0 0 0 0 0 0 0 0 127 0" result="hardAlpha"/>
<feOffset dx="2" dy="1"/>
<feGaussianBlur stdDeviation="4"/>
<feColorMatrix type="matrix" values="0 0 0 0 0.0392157 0 0 0 0 0.0392157 0 0 0 0 0.0627451 0 0 0 0.08 0"/>
<feBlend mode="normal" in2="BackgroundImageFix" result="effect1_dropShadow_20671_11228"/>
<feBlend mode="normal" in="SourceGraphic" in2="effect1_dropShadow_20671_11228" result="shape"/>
</filter>
</defs>
</svg>
