<svg width="112" height="208" viewBox="0 0 112 208" fill="none" xmlns="http://www.w3.org/2000/svg">
<rect x="0.5" y="0.5" width="111" height="207" rx="4.5" stroke="#9747FF" stroke-dasharray="10 5"/>
<g filter="url(#filter0_d_17664_11006)">
<rect x="16" y="16" width="80" height="80" rx="8" fill="white"/>
</g>
<path d="M81.9153 37.8255V70.6773L55.8703 72.4356L30.082 70.6773V37.8255C30.082 36.265 31.3472 35 32.9075 35H79.0897C80.6502 34.9999 81.9153 36.265 81.9153 37.8255Z" fill="#157DF5"/>
<path d="M56 72.4269L81.9153 70.6773V37.8255C81.9153 36.265 80.6503 34.9999 79.0897 35H56V72.4269Z" fill="#0965CD"/>
<g opacity="0.2">
<path d="M48.2554 70.9498C48.2482 70.858 48.2435 70.7655 48.2435 70.6719H48.1367C48.1726 70.7664 48.2118 70.8593 48.2554 70.9498Z" fill="black"/>
</g>
<path d="M34.3086 42.4219C34.3086 41.8696 34.7563 41.4219 35.3086 41.4219H76.6911C77.2434 41.4219 77.6911 41.8696 77.6911 42.4219L77.6912 64.0858C77.6912 64.6381 77.2435 65.0858 76.6912 65.0858L52.5607 65.0855L35.3086 65.0852C34.7563 65.0852 34.3086 64.6374 34.3086 64.0852V42.4219Z" fill="#E2EFFE"/>
<path d="M38 47C38 45.8954 38.8954 45 40 45H50C51.1046 45 52 45.8954 52 47V51C52 52.1046 51.1046 53 50 53H40C38.8954 53 38 52.1046 38 51V47Z" fill="#B6D7FC"/>
<path d="M38 57.5C38 56.6716 38.6716 56 39.5 56H46.5C47.3284 56 48 56.6716 48 57.5C48 58.3284 47.3284 59 46.5 59H39.5C38.6716 59 38 58.3284 38 57.5Z" fill="#40D98D"/>
<path d="M56 65.0858H76.6912C77.2435 65.0858 77.6912 64.6381 77.6912 64.0858L77.6911 42.4219C77.6911 41.8696 77.2434 41.4219 76.6911 41.4219H56V65.0858Z" fill="#B6D7FC"/>
<path d="M72 45.8594C72 45.3071 72.4477 44.8594 73 44.8594H74C74.5523 44.8594 75 45.3071 75 45.8594V46.8594C75 47.4117 74.5523 47.8594 74 47.8594H73C72.4477 47.8594 72 47.4117 72 46.8594V45.8594Z" fill="#40D98D"/>
<path d="M67 45.8594C67 45.3071 67.4477 44.8594 68 44.8594H69C69.5523 44.8594 70 45.3071 70 45.8594V46.8594C70 47.4117 69.5523 47.8594 69 47.8594H68C67.4477 47.8594 67 47.4117 67 46.8594V45.8594Z" fill="#282A52"/>
<path d="M83 70.6797C83.5523 70.6798 84 71.1275 84 71.6797V74.8969C84 76.4573 82.7349 77.7223 81.1745 77.7223H30.8255C29.2651 77.7223 28 76.4572 28 74.8967V71.6797C28 71.1274 28.4477 70.6797 29 70.6797L83 70.6797Z" fill="#157DF5"/>
<path d="M56 77.7223H81.1745C82.7349 77.7223 84 76.4573 84 74.8969V71.6798C84 71.1275 83.5523 70.6798 83 70.6798L56 70.6797V77.7223Z" fill="#0965CD"/>
<path d="M31.2422 70.6797H63.755C63.755 72.6219 62.1804 74.1964 60.2382 74.1964H34.7603C32.8181 74.1964 31.2422 72.6219 31.2422 70.6797Z" fill="#E2EFFE"/>
<path d="M56 74.1964H77.2382C79.1804 74.1964 80.755 72.6219 80.755 70.6797H56V74.1964Z" fill="#B6D7FC"/>
<path d="M81.9153 133.825V166.677L55.8703 168.436L30.082 166.677V133.825C30.082 132.265 31.3472 131 32.9075 131H79.0897C80.6502 131 81.9153 132.265 81.9153 133.825Z" fill="#157DF5"/>
<path d="M56 168.427L81.9153 166.677V133.825C81.9153 132.265 80.6503 131 79.0897 131H56V168.427Z" fill="#0965CD"/>
<g opacity="0.2">
<path d="M48.2554 166.95C48.2482 166.858 48.2435 166.766 48.2435 166.672H48.1367C48.1726 166.766 48.2118 166.859 48.2554 166.95Z" fill="black"/>
</g>
<path d="M34.3086 138.422C34.3086 137.87 34.7563 137.422 35.3086 137.422H76.6911C77.2434 137.422 77.6911 137.87 77.6911 138.422L77.6912 160.086C77.6912 160.638 77.2435 161.086 76.6912 161.086L52.5607 161.085L35.3086 161.085C34.7563 161.085 34.3086 160.637 34.3086 160.085V138.422Z" fill="#E2EFFE"/>
<path d="M38 143C38 141.895 38.8954 141 40 141H50C51.1046 141 52 141.895 52 143V147C52 148.105 51.1046 149 50 149H40C38.8954 149 38 148.105 38 147V143Z" fill="#B6D7FC"/>
<path d="M38 153.5C38 152.672 38.6716 152 39.5 152H46.5C47.3284 152 48 152.672 48 153.5C48 154.328 47.3284 155 46.5 155H39.5C38.6716 155 38 154.328 38 153.5Z" fill="#40D98D"/>
<path d="M56 161.086H76.6912C77.2435 161.086 77.6912 160.638 77.6912 160.086L77.6911 138.422C77.6911 137.87 77.2434 137.422 76.6911 137.422H56V161.086Z" fill="#B6D7FC"/>
<path d="M72 141.859C72 141.307 72.4477 140.859 73 140.859H74C74.5523 140.859 75 141.307 75 141.859V142.859C75 143.412 74.5523 143.859 74 143.859H73C72.4477 143.859 72 143.412 72 142.859V141.859Z" fill="#40D98D"/>
<path d="M67 141.859C67 141.307 67.4477 140.859 68 140.859H69C69.5523 140.859 70 141.307 70 141.859V142.859C70 143.412 69.5523 143.859 69 143.859H68C67.4477 143.859 67 143.412 67 142.859V141.859Z" fill="#282A52"/>
<path d="M83 166.68C83.5523 166.68 84 167.127 84 167.68V170.897C84 172.457 82.7349 173.722 81.1745 173.722H30.8255C29.2651 173.722 28 172.457 28 170.897V167.68C28 167.127 28.4477 166.68 29 166.68L83 166.68Z" fill="#157DF5"/>
<path d="M56 173.722H81.1745C82.7349 173.722 84 172.457 84 170.897V167.68C84 167.128 83.5523 166.68 83 166.68L56 166.68V173.722Z" fill="#0965CD"/>
<path d="M31.3827 167.667C31.2279 167.136 31.6899 166.68 32.2422 166.68H63.755C63.755 168.622 62.1804 170.196 60.2382 170.196H34.7604C33.1607 170.196 31.8096 169.128 31.3827 167.667Z" fill="#E2EFFE"/>
<path d="M56 170.196H77.2382C78.8378 170.196 80.188 169.128 80.6146 167.667C80.7693 167.136 80.3072 166.68 79.755 166.68H56V170.196Z" fill="#B6D7FC"/>
<defs>
<filter id="filter0_d_17664_11006" x="10" y="9" width="96" height="96" filterUnits="userSpaceOnUse" color-interpolation-filters="sRGB">
<feFlood flood-opacity="0" result="BackgroundImageFix"/>
<feColorMatrix in="SourceAlpha" type="matrix" values="0 0 0 0 0 0 0 0 0 0 0 0 0 0 0 0 0 0 127 0" result="hardAlpha"/>
<feOffset dx="2" dy="1"/>
<feGaussianBlur stdDeviation="4"/>
<feColorMatrix type="matrix" values="0 0 0 0 0.0392157 0 0 0 0 0.0392157 0 0 0 0 0.0627451 0 0 0 0.08 0"/>
<feBlend mode="normal" in2="BackgroundImageFix" result="effect1_dropShadow_17664_11006"/>
<feBlend mode="normal" in="SourceGraphic" in2="effect1_dropShadow_17664_11006" result="shape"/>
</filter>
</defs>
</svg>
