<svg width="112" height="208" viewBox="0 0 112 208" fill="none" xmlns="http://www.w3.org/2000/svg">
<rect x="0.5" y="0.5" width="111" height="207" rx="4.5" stroke="#9747FF" stroke-dasharray="10 5"/>
<g filter="url(#filter0_d_35792_11136)">
<rect x="16" y="16" width="80" height="80" rx="8" fill="white"/>
</g>
<path d="M80.0148 28H71.9557H63.9852C61.7877 28 60 29.7877 60 31.9852V42.7011C60 44.8986 61.7877 46.6863 63.9852 46.6863H65.3137V48.6715C65.3137 49.2086 65.6366 49.6938 66.1335 49.8987C66.6236 50.1032 67.1983 49.9936 67.5813 49.6107L71.9557 47.2363L72.5058 46.6863H80.0148C82.2123 46.6863 84 44.8986 84 42.7011V31.9852C84 29.7877 82.2123 28 80.0148 28Z" fill="#40D98D"/>
<path d="M80.0151 46.6863C82.2126 46.6863 84.0003 44.8986 84.0003 42.7011V31.9852C84.0003 29.7877 82.2126 28 80.0151 28H71.9561V47.2363L72.5061 46.6863H80.0151Z" fill="#25BB71"/>
<path d="M76.3865 33.9728C75.7457 33.332 74.7074 33.332 74.0666 33.9728L71.9453 36.094L70.3047 37.7347L69.0037 36.4336C68.3629 35.7928 67.3246 35.7928 66.6837 36.4336C66.0429 37.0745 66.0429 38.1128 66.6837 38.7536L69.1447 41.2145C69.4652 41.535 69.8849 41.6952 70.3046 41.6952C70.7243 41.6952 71.1442 41.535 71.4645 41.2145L71.9452 40.7338L76.3864 36.2927C77.0274 35.6518 77.0274 34.6136 76.3865 33.9728Z" fill="white"/>
<path d="M76.3865 33.9728C75.7457 33.332 74.7074 33.332 74.0665 33.9728L71.9453 36.094V40.7339L76.3865 36.2928C77.0274 35.6518 77.0274 34.6136 76.3865 33.9728Z" fill="#F0F7FE"/>
<path d="M49.4375 54.3594H42.875H36.3125C31.7895 54.3594 28 58.0395 28 62.5625V65.8438L31.2885 72.3704L31.2812 82.3594C31.2812 83.2662 32.015 84 32.9219 84H39.5938L42.875 80.1221L57.6406 62.5625C57.6406 58.0395 53.9605 54.3594 49.4375 54.3594Z" fill="#157DF5"/>
<path d="M34.5625 69.125V65.8438C34.5625 64.9377 33.8279 64.2031 32.9219 64.2031H29.6406C28.7346 64.2031 28 64.9377 28 65.8438V69.125C28 73.6554 31.7821 77.3281 36.3125 77.3281H47.7969V70.7656H36.3125C35.4064 70.7656 34.5625 70.0311 34.5625 69.125Z" fill="#FFCFB5"/>
<path d="M49.4375 54.3594H42.875V80.1221L57.6406 62.5625C57.6406 58.0395 53.9605 54.3594 49.4375 54.3594Z" fill="#0965CD"/>
<path d="M60.6128 61.6028C60.3036 61.175 59.8085 60.9219 59.2814 60.9219H46.1564C45.4498 60.9219 44.8233 61.3737 44.6006 62.0434L38.0381 81.8403C37.8699 82.3401 37.9548 82.8913 38.2625 83.3191C38.5717 83.7469 39.0668 84 39.5939 84H52.7189C53.4254 84 54.0519 83.5482 54.2746 82.8785L60.8371 63.0816C61.0053 62.5801 60.9204 62.0306 60.6128 61.6028Z" fill="#282A52"/>
<path d="M53.3495 60.9219L45.6992 84H52.7185C53.425 84 54.0515 83.5482 54.2742 82.8785L60.8367 63.0816C61.0049 62.5801 60.9201 62.0306 60.6124 61.6027C60.3032 61.175 59.808 60.9219 59.281 60.9219H53.3495Z" fill="#1E203E"/>
<path d="M55.0812 76.6875H53.4406C52.5346 76.6875 51.8 75.9529 51.8 75.0469V71.7656C51.8 70.8596 52.5346 70.125 53.4406 70.125H55.0812C56.8935 70.125 58.3625 71.594 58.3625 73.4062C58.3625 75.2185 56.8935 76.6875 55.0812 76.6875Z" fill="#FFCFB5"/>
<path d="M42.8793 58.4968C41.1397 58.4968 39.7295 57.0312 39.7295 55.2234V51.0195H46.0292V55.2234C46.0292 57.0312 44.619 58.4968 42.8793 58.4968Z" fill="#FFCFB5"/>
<path d="M42.8799 51.0195V58.4968C44.6195 58.4968 46.0297 57.0312 46.0297 55.2234V51.0195H42.8799Z" fill="#FFCFB5"/>
<path d="M36.2295 42.5281V46.7426C36.2295 50.4229 39.2131 53.4065 42.8938 53.4065C46.5743 53.4065 49.558 50.4229 49.558 46.7426V44.8953L42.8938 40.9453L36.2295 42.5281Z" fill="#FFDECC"/>
<path d="M42.8936 53.4065C46.5741 53.4065 49.5578 50.4229 49.5578 46.7426V44.8953L42.8936 40.9453V53.4065Z" fill="#FFCFB5"/>
<path d="M49.558 42.0375C49.558 39.2553 47.3024 37 44.5202 37H41.2673C38.4851 37 36.2295 39.2554 36.2295 42.0375V42.5326L49.558 44.8996V42.0375Z" fill="#282A52"/>
<path d="M44.52 37H42.8936V43.7162L49.5578 44.8998V42.0375C49.5578 39.2553 47.3023 37 44.52 37Z" fill="#1E203E"/>
<path d="M80.0148 124H71.9557H63.9852C61.7877 124 60 125.788 60 127.985V138.701C60 140.899 61.7877 142.686 63.9852 142.686H65.3137V144.672C65.3137 145.209 65.6366 145.694 66.1335 145.899C66.6236 146.103 67.1983 145.994 67.5813 145.611L71.9557 143.236L72.5058 142.686H80.0148C82.2123 142.686 84 140.899 84 138.701V127.985C84 125.788 82.2123 124 80.0148 124Z" fill="#40D98D"/>
<path d="M80.0151 142.686C82.2126 142.686 84.0003 140.899 84.0003 138.701V127.985C84.0003 125.788 82.2126 124 80.0151 124H71.9561V143.236L72.5061 142.686H80.0151Z" fill="#25BB71"/>
<path d="M76.3865 129.973C75.7457 129.332 74.7074 129.332 74.0666 129.973L71.9453 132.094L70.3047 133.735L69.0037 132.434C68.3629 131.793 67.3246 131.793 66.6837 132.434C66.0429 133.074 66.0429 134.113 66.6837 134.754L69.1447 137.215C69.4652 137.535 69.8849 137.695 70.3046 137.695C70.7243 137.695 71.1442 137.535 71.4645 137.215L71.9452 136.734L76.3864 132.293C77.0274 131.652 77.0274 130.614 76.3865 129.973Z" fill="white"/>
<path d="M76.3865 129.973C75.7457 129.332 74.7074 129.332 74.0665 129.973L71.9453 132.094V136.734L76.3865 132.293C77.0274 131.652 77.0274 130.614 76.3865 129.973Z" fill="#F0F7FE"/>
<path d="M49.4375 150.359H42.875H36.3125C31.7895 150.359 28 154.04 28 158.562V161.844L31.2885 168.37L31.2812 178.359C31.2812 179.266 32.015 180 32.9219 180H39.5938L42.875 176.122L57.6406 158.562C57.6406 154.04 53.9605 150.359 49.4375 150.359Z" fill="#157DF5"/>
<path d="M34.5625 165.125V161.844C34.5625 160.938 33.8279 160.203 32.9219 160.203H29.6406C28.7346 160.203 28 160.938 28 161.844V165.125C28 169.655 31.7821 173.328 36.3125 173.328H47.7969V166.766H36.3125C35.4064 166.766 34.5625 166.031 34.5625 165.125Z" fill="#FFCFB5"/>
<path d="M49.4375 150.359H42.875V176.122L57.6406 158.562C57.6406 154.04 53.9605 150.359 49.4375 150.359Z" fill="#0965CD"/>
<path d="M60.6128 157.603C60.3036 157.175 59.8085 156.922 59.2814 156.922H46.1564C45.4498 156.922 44.8233 157.374 44.6006 158.043L38.0381 177.84C37.8699 178.34 37.9548 178.891 38.2625 179.319C38.5717 179.747 39.0668 180 39.5939 180H52.7189C53.4254 180 54.0519 179.548 54.2746 178.878L60.8371 159.082C61.0053 158.58 60.9204 158.031 60.6128 157.603Z" fill="#282A52"/>
<path d="M53.3495 156.922L45.6992 180H52.7185C53.425 180 54.0515 179.548 54.2742 178.878L60.8367 159.082C61.0049 158.58 60.9201 158.031 60.6124 157.603C60.3032 157.175 59.808 156.922 59.281 156.922H53.3495Z" fill="#1E203E"/>
<path d="M55.0812 172.688H53.4406C52.5346 172.688 51.8 171.953 51.8 171.047V167.766C51.8 166.86 52.5346 166.125 53.4406 166.125H55.0812C56.8935 166.125 58.3625 167.594 58.3625 169.406C58.3625 171.218 56.8935 172.688 55.0812 172.688Z" fill="#FFCFB5"/>
<path d="M42.8793 154.497C41.1397 154.497 39.7295 153.031 39.7295 151.223V147.02H46.0292V151.223C46.0292 153.031 44.619 154.497 42.8793 154.497Z" fill="#FFCFB5"/>
<path d="M42.8799 147.02V154.497C44.6195 154.497 46.0297 153.031 46.0297 151.223V147.02H42.8799Z" fill="#FFCFB5"/>
<path d="M36.2295 138.528V142.743C36.2295 146.423 39.2131 149.407 42.8938 149.407C46.5743 149.407 49.558 146.423 49.558 142.743V140.895L42.8938 136.945L36.2295 138.528Z" fill="#FFDECC"/>
<path d="M42.8936 149.407C46.5741 149.407 49.5578 146.423 49.5578 142.743V140.895L42.8936 136.945V149.407Z" fill="#FFCFB5"/>
<path d="M49.558 138.038C49.558 135.255 47.3024 133 44.5202 133H41.2673C38.4851 133 36.2295 135.255 36.2295 138.038V138.533L49.558 140.9V138.038Z" fill="#282A52"/>
<path d="M44.52 133H42.8936V139.716L49.5578 140.9V138.038C49.5578 135.255 47.3023 133 44.52 133Z" fill="#1E203E"/>
<defs>
<filter id="filter0_d_35792_11136" x="10" y="9" width="96" height="96" filterUnits="userSpaceOnUse" color-interpolation-filters="sRGB">
<feFlood flood-opacity="0" result="BackgroundImageFix"/>
<feColorMatrix in="SourceAlpha" type="matrix" values="0 0 0 0 0 0 0 0 0 0 0 0 0 0 0 0 0 0 127 0" result="hardAlpha"/>
<feOffset dx="2" dy="1"/>
<feGaussianBlur stdDeviation="4"/>
<feColorMatrix type="matrix" values="0 0 0 0 0.0392157 0 0 0 0 0.0392157 0 0 0 0 0.0627451 0 0 0 0.08 0"/>
<feBlend mode="normal" in2="BackgroundImageFix" result="effect1_dropShadow_35792_11136"/>
<feBlend mode="normal" in="SourceGraphic" in2="effect1_dropShadow_35792_11136" result="shape"/>
</filter>
</defs>
</svg>
