<svg width="112" height="208" viewBox="0 0 112 208" fill="none" xmlns="http://www.w3.org/2000/svg">
<rect x="0.5" y="0.5" width="111" height="207" rx="4.5" stroke="#9747FF" stroke-dasharray="10 5"/>
<g filter="url(#filter0_d_16986_12934)">
<rect x="16" y="16" width="80" height="80" rx="8" fill="white"/>
</g>
<g clip-path="url(#clip0_16986_12934)">
<path d="M30.8125 29.4062H73.1875V71.7812H30.8125V29.4062Z" fill="#157DF5"/>
<path d="M52 29.4062H73.1875V71.7812H52V29.4062Z" fill="#0965CD"/>
<path d="M33.625 29.4062H50.5938V49.1875H33.625V29.4062Z" fill="#E2EFFE"/>
<path d="M33.625 52H50.5938V73.1875H33.625V52Z" fill="#E2EFFE"/>
<path d="M53.4062 52H70.375V73.1875H53.4062V52Z" fill="#B6D7FC"/>
<path d="M53.4062 29.4062H70.375V49.1875H53.4062V29.4062Z" fill="#B6D7FC"/>
<path d="M46.375 36.4375H37.8438C37.0665 36.4375 36.4375 35.8085 36.4375 35.0312C36.4375 34.254 37.0665 33.625 37.8438 33.625H46.375C47.1523 33.625 47.7812 34.254 47.7812 35.0312C47.7812 35.8085 47.1523 36.4375 46.375 36.4375Z" fill="#157DF5"/>
<path d="M66.1562 36.4375H57.625C56.8477 36.4375 56.2188 35.8085 56.2188 35.0312C56.2188 34.254 56.8477 33.625 57.625 33.625H66.1562C66.9335 33.625 67.5625 34.254 67.5625 35.0312C67.5625 35.8085 66.9335 36.4375 66.1562 36.4375Z" fill="#0965CD"/>
<path d="M66.1562 57.625H57.625C56.8477 57.625 56.2188 56.996 56.2188 56.2188C56.2188 55.4415 56.8477 54.8125 57.625 54.8125H66.1562C66.9335 54.8125 67.5625 55.4415 67.5625 56.2188C67.5625 56.996 66.9335 57.625 66.1562 57.625Z" fill="#0965CD"/>
<path d="M46.375 57.625H37.8438C37.0665 57.625 36.4375 56.996 36.4375 56.2188C36.4375 55.4415 37.0665 54.8125 37.8438 54.8125H46.375C47.1523 54.8125 47.7812 55.4415 47.7812 56.2188C47.7812 56.996 47.1523 57.625 46.375 57.625Z" fill="#157DF5"/>
<path d="M66.1562 45.0625C66.9847 45.0625 67.6562 44.3909 67.6562 43.5625C67.6562 42.7341 66.9847 42.0625 66.1562 42.0625C65.3278 42.0625 64.6562 42.7341 64.6562 43.5625C64.6562 44.3909 65.3278 45.0625 66.1562 45.0625Z" fill="#0965CD"/>
<path d="M46.375 45.0625C47.2034 45.0625 47.875 44.3909 47.875 43.5625C47.875 42.7341 47.2034 42.0625 46.375 42.0625C45.5466 42.0625 44.875 42.7341 44.875 43.5625C44.875 44.3909 45.5466 45.0625 46.375 45.0625Z" fill="#157DF5"/>
<path d="M46.375 66.1562C47.2034 66.1562 47.875 65.4847 47.875 64.6562C47.875 63.8278 47.2034 63.1562 46.375 63.1562C45.5466 63.1562 44.875 63.8278 44.875 64.6562C44.875 65.4847 45.5466 66.1562 46.375 66.1562Z" fill="#157DF5"/>
<path d="M29.4062 30.8125H52H74.5938C75.3813 30.8125 76 30.1938 76 29.4062C76 28.6187 75.3813 28 74.5938 28H52H29.4062C28.6187 28 28 28.6187 28 29.4062C28 30.1938 28.6187 30.8125 29.4062 30.8125Z" fill="#40D98D"/>
<path d="M74.5938 30.8125H52V28H74.5938C75.3813 28 76 28.6187 76 29.4062C76 30.1938 75.3813 30.8125 74.5938 30.8125Z" fill="#25BB71"/>
<path d="M73.1875 70.375H52H30.8125C29.2656 70.375 28 71.6406 28 73.1875V74.5938C28 75.3812 28.6187 76 29.4062 76H52H74.5938C75.3813 76 76 75.3812 76 74.5938V73.1875C76 71.6406 74.7344 70.375 73.1875 70.375Z" fill="#40D98D"/>
<path d="M76 73.1875V74.5938C76 75.3812 75.3813 76 74.5938 76H52V70.375H73.1875C74.7344 70.375 76 71.6406 76 73.1875Z" fill="#25BB71"/>
</g>
<path fill-rule="evenodd" clip-rule="evenodd" d="M63.74 54.9141C63.74 52.2001 65.9446 50 68.6641 50H76.3359C79.0554 50 81.26 52.2001 81.26 54.9141V56.2812C81.26 56.933 81.0965 57.5465 80.8082 58.0834C82.8368 59.8479 84 62.3973 84 65.0856V78.5391C84 81.5551 81.5501 84 78.5279 84H66.4721C63.4499 84 61 81.5551 61 78.5391V65.0856C61 62.3997 62.1649 59.8466 64.1918 58.0834C63.9035 57.5465 63.74 56.9329 63.74 56.2812V54.9141Z" fill="white"/>
<path d="M78.8016 60.3106L77.1652 58.9118V56.2812H67.8426V58.9118L66.2062 60.3105C64.8084 61.5053 64.0039 63.2496 64.0039 65.0856V66.125L65.6491 71.8672L64.0039 77.6094V78.5391C64.0039 79.8982 65.1087 81 66.4716 81H78.5362C79.8991 81 81.0039 79.8982 81.0039 78.5391V65.0856C81.0039 63.2473 80.2012 61.5069 78.8016 60.3106Z" fill="#FEE048"/>
<path d="M78.8002 60.3106L77.1637 58.9118V56.2812H72.5024V81H78.5347C79.8976 81 81.0024 79.8982 81.0024 78.5391V65.0856C81.0024 63.2473 80.1997 61.5069 78.8002 60.3106Z" fill="#FED601"/>
<path d="M76.3409 53H68.6635C67.6035 53 66.7441 53.857 66.7441 54.9141V56.2812C66.7441 56.7343 67.1124 57.1016 67.5667 57.1016H77.4377C77.892 57.1016 78.2603 56.7343 78.2603 56.2812V54.9141C78.2603 53.857 77.4009 53 76.3409 53Z" fill="#40D98D"/>
<path d="M76.3412 53H72.5024V57.1016H77.4379C77.8922 57.1016 78.2605 56.7343 78.2605 56.2812V54.9141C78.2605 53.857 77.4012 53 76.3412 53Z" fill="#25BB71"/>
<path d="M76.891 64.125H64.0039V79.1094H76.891C77.3453 79.1094 77.7136 78.7421 77.7136 78.2891V64.9453C77.7136 64.4923 77.3453 64.125 76.891 64.125Z" fill="white"/>
<path d="M76.8876 64.125H72.5005V79.1094H76.8876C77.3419 79.1094 77.7102 78.7421 77.7102 78.2891V64.9453C77.7102 64.4923 77.3419 64.125 76.8876 64.125Z" fill="#F0F7FE"/>
<path d="M73.0943 70.8083L72.7634 71.138C72.6177 71.2832 72.3816 71.2832 72.236 71.138L71.9049 70.8081C70.5961 69.5039 70.7916 67.5482 71.9049 66.4388L72.236 66.1088C72.3816 65.9637 72.6177 65.9637 72.7634 66.1088L73.0944 66.4387C74.3033 67.6433 74.3096 69.5973 73.0943 70.8083Z" fill="#FEE048"/>
<path d="M71.8137 74.6207L71.6924 75.0712C71.639 75.2696 71.4345 75.3873 71.2356 75.3342L70.7835 75.2136C68.9962 74.7367 68.1849 72.9455 68.5928 71.4296L68.7141 70.9788C68.7675 70.7805 68.972 70.6628 69.1709 70.7158L69.623 70.8365C71.2738 71.2769 72.2589 72.966 71.8137 74.6207Z" fill="#FEE048"/>
<path d="M73.1075 74.6207L73.2288 75.0712C73.2821 75.2696 73.4867 75.3873 73.6856 75.3342L74.1377 75.2136C75.925 74.7367 76.7363 72.9455 76.3284 71.4296L76.2071 70.9788C76.1537 70.7805 75.9492 70.6628 75.7503 70.7158L75.2982 70.8365C73.6474 71.2769 72.6622 72.966 73.1075 74.6207Z" fill="#FED601"/>
<path d="M73.0946 70.8161C74.3099 69.6051 74.3036 67.6511 73.0948 66.4466L72.7637 66.1167C72.6909 66.0441 72.5954 66.0078 72.5 66.0078L72.5 71.2547C72.5954 71.2547 72.6909 71.2184 72.7637 71.1459L73.0946 70.8161Z" fill="#FED601"/>
<g clip-path="url(#clip1_16986_12934)">
<path d="M30.8125 125.406H73.1875V167.781H30.8125V125.406Z" fill="#157DF5"/>
<path d="M52 125.406H73.1875V167.781H52V125.406Z" fill="#0965CD"/>
<path d="M33.625 125.406H50.5938V145.188H33.625V125.406Z" fill="#E2EFFE"/>
<path d="M33.625 148H50.5938V169.188H33.625V148Z" fill="#E2EFFE"/>
<path d="M53.4062 148H70.375V169.188H53.4062V148Z" fill="#B6D7FC"/>
<path d="M53.4062 125.406H70.375V145.188H53.4062V125.406Z" fill="#B6D7FC"/>
<path d="M46.375 132.438H37.8438C37.0665 132.438 36.4375 131.809 36.4375 131.031C36.4375 130.254 37.0665 129.625 37.8438 129.625H46.375C47.1523 129.625 47.7812 130.254 47.7812 131.031C47.7812 131.809 47.1523 132.438 46.375 132.438Z" fill="#157DF5"/>
<path d="M66.1562 132.438H57.625C56.8477 132.438 56.2188 131.809 56.2188 131.031C56.2188 130.254 56.8477 129.625 57.625 129.625H66.1562C66.9335 129.625 67.5625 130.254 67.5625 131.031C67.5625 131.809 66.9335 132.438 66.1562 132.438Z" fill="#0965CD"/>
<path d="M66.1562 153.625H57.625C56.8477 153.625 56.2188 152.996 56.2188 152.219C56.2188 151.441 56.8477 150.812 57.625 150.812H66.1562C66.9335 150.812 67.5625 151.441 67.5625 152.219C67.5625 152.996 66.9335 153.625 66.1562 153.625Z" fill="#0965CD"/>
<path d="M46.375 153.625H37.8438C37.0665 153.625 36.4375 152.996 36.4375 152.219C36.4375 151.441 37.0665 150.812 37.8438 150.812H46.375C47.1523 150.812 47.7812 151.441 47.7812 152.219C47.7812 152.996 47.1523 153.625 46.375 153.625Z" fill="#157DF5"/>
<path d="M66.1562 141.062C66.9847 141.062 67.6562 140.391 67.6562 139.562C67.6562 138.734 66.9847 138.062 66.1562 138.062C65.3278 138.062 64.6562 138.734 64.6562 139.562C64.6562 140.391 65.3278 141.062 66.1562 141.062Z" fill="#0965CD"/>
<path d="M46.375 141.062C47.2034 141.062 47.875 140.391 47.875 139.562C47.875 138.734 47.2034 138.062 46.375 138.062C45.5466 138.062 44.875 138.734 44.875 139.562C44.875 140.391 45.5466 141.062 46.375 141.062Z" fill="#157DF5"/>
<path d="M46.375 162.156C47.2034 162.156 47.875 161.485 47.875 160.656C47.875 159.828 47.2034 159.156 46.375 159.156C45.5466 159.156 44.875 159.828 44.875 160.656C44.875 161.485 45.5466 162.156 46.375 162.156Z" fill="#157DF5"/>
<path d="M29.4062 126.812H52H74.5938C75.3813 126.812 76 126.194 76 125.406C76 124.619 75.3813 124 74.5938 124H52H29.4062C28.6187 124 28 124.619 28 125.406C28 126.194 28.6187 126.812 29.4062 126.812Z" fill="#40D98D"/>
<path d="M74.5938 126.812H52V124H74.5938C75.3813 124 76 124.619 76 125.406C76 126.194 75.3813 126.812 74.5938 126.812Z" fill="#25BB71"/>
<path d="M73.1875 166.375H52H30.8125C29.2656 166.375 28 167.641 28 169.188V170.594C28 171.381 28.6187 172 29.4062 172H52H74.5938C75.3813 172 76 171.381 76 170.594V169.188C76 167.641 74.7344 166.375 73.1875 166.375Z" fill="#40D98D"/>
<path d="M76 169.188V170.594C76 171.381 75.3813 172 74.5938 172H52V166.375H73.1875C74.7344 166.375 76 167.641 76 169.188Z" fill="#25BB71"/>
</g>
<path fill-rule="evenodd" clip-rule="evenodd" d="M63.74 150.914C63.74 148.2 65.9446 146 68.6641 146H76.3359C79.0554 146 81.26 148.2 81.26 150.914V152.281C81.26 152.933 81.0965 153.547 80.8082 154.083C82.8368 155.848 84 158.397 84 161.086V174.539C84 177.555 81.5501 180 78.5279 180H66.4721C63.4499 180 61 177.555 61 174.539V161.086C61 158.4 62.1649 155.847 64.1918 154.083C63.9035 153.547 63.74 152.933 63.74 152.281V150.914Z" fill="white"/>
<path d="M78.8016 156.311L77.1652 154.912V152.281H67.8426V154.912L66.2062 156.311C64.8084 157.505 64.0039 159.25 64.0039 161.086V162.125L65.6491 167.867L64.0039 173.609V174.539C64.0039 175.898 65.1087 177 66.4716 177H78.5362C79.8991 177 81.0039 175.898 81.0039 174.539V161.086C81.0039 159.247 80.2012 157.507 78.8016 156.311Z" fill="#FEE048"/>
<path d="M78.8002 156.311L77.1637 154.912V152.281H72.5024V177H78.5347C79.8976 177 81.0024 175.898 81.0024 174.539V161.086C81.0024 159.247 80.1997 157.507 78.8002 156.311Z" fill="#FED601"/>
<path d="M76.3409 149H68.6635C67.6035 149 66.7441 149.857 66.7441 150.914V152.281C66.7441 152.734 67.1124 153.102 67.5667 153.102H77.4377C77.892 153.102 78.2603 152.734 78.2603 152.281V150.914C78.2603 149.857 77.4009 149 76.3409 149Z" fill="#40D98D"/>
<path d="M76.3412 149H72.5024V153.102H77.4379C77.8922 153.102 78.2605 152.734 78.2605 152.281V150.914C78.2605 149.857 77.4012 149 76.3412 149Z" fill="#25BB71"/>
<path d="M76.891 160.125H64.0039V175.109H76.891C77.3453 175.109 77.7136 174.742 77.7136 174.289V160.945C77.7136 160.492 77.3453 160.125 76.891 160.125Z" fill="white"/>
<path d="M76.8876 160.125H72.5005V175.109H76.8876C77.3419 175.109 77.7102 174.742 77.7102 174.289V160.945C77.7102 160.492 77.3419 160.125 76.8876 160.125Z" fill="#F0F7FE"/>
<path d="M73.0943 166.808L72.7634 167.138C72.6177 167.283 72.3816 167.283 72.236 167.138L71.9049 166.808C70.5961 165.504 70.7916 163.548 71.9049 162.439L72.236 162.109C72.3816 161.964 72.6177 161.964 72.7634 162.109L73.0944 162.439C74.3033 163.643 74.3096 165.597 73.0943 166.808Z" fill="#FEE048"/>
<path d="M71.8137 170.621L71.6924 171.071C71.639 171.27 71.4345 171.387 71.2356 171.334L70.7835 171.214C68.9962 170.737 68.1849 168.946 68.5928 167.43L68.7141 166.979C68.7675 166.781 68.972 166.663 69.1709 166.716L69.623 166.836C71.2738 167.277 72.2589 168.966 71.8137 170.621Z" fill="#FEE048"/>
<path d="M73.1075 170.621L73.2288 171.071C73.2821 171.27 73.4867 171.387 73.6856 171.334L74.1377 171.214C75.925 170.737 76.7363 168.946 76.3284 167.43L76.2071 166.979C76.1537 166.781 75.9492 166.663 75.7503 166.716L75.2982 166.836C73.6474 167.277 72.6622 168.966 73.1075 170.621Z" fill="#FED601"/>
<path d="M73.0946 166.816C74.3099 165.605 74.3036 163.651 73.0948 162.447L72.7637 162.117C72.6909 162.044 72.5954 162.008 72.5 162.008L72.5 167.255C72.5954 167.255 72.6909 167.218 72.7637 167.146L73.0946 166.816Z" fill="#FED601"/>
<defs>
<filter id="filter0_d_16986_12934" x="10" y="9" width="96" height="96" filterUnits="userSpaceOnUse" color-interpolation-filters="sRGB">
<feFlood flood-opacity="0" result="BackgroundImageFix"/>
<feColorMatrix in="SourceAlpha" type="matrix" values="0 0 0 0 0 0 0 0 0 0 0 0 0 0 0 0 0 0 127 0" result="hardAlpha"/>
<feOffset dx="2" dy="1"/>
<feGaussianBlur stdDeviation="4"/>
<feColorMatrix type="matrix" values="0 0 0 0 0.0392157 0 0 0 0 0.0392157 0 0 0 0 0.0627451 0 0 0 0.08 0"/>
<feBlend mode="normal" in2="BackgroundImageFix" result="effect1_dropShadow_16986_12934"/>
<feBlend mode="normal" in="SourceGraphic" in2="effect1_dropShadow_16986_12934" result="shape"/>
</filter>
<clipPath id="clip0_16986_12934">
<rect width="48" height="48" fill="white" transform="translate(28 28)"/>
</clipPath>
<clipPath id="clip1_16986_12934">
<rect width="48" height="48" fill="white" transform="translate(28 124)"/>
</clipPath>
</defs>
</svg>
