<svg width="112" height="208" viewBox="0 0 112 208" fill="none" xmlns="http://www.w3.org/2000/svg">
<rect x="0.5" y="0.5" width="111" height="207" rx="4.5" stroke="#9747FF" stroke-dasharray="10 5"/>
<g filter="url(#filter0_d_6367_22825)">
<rect x="16" y="16" width="80" height="80" rx="8" fill="white"/>
</g>
<path fill-rule="evenodd" clip-rule="evenodd" d="M74 36.28H37C36.6024 36.28 36.28 36.6024 36.28 37V74C36.28 74.3976 36.6024 74.72 37 74.72H74C74.3976 74.72 74.72 74.3976 74.72 74V37C74.72 36.6024 74.3976 36.28 74 36.28ZM37 33C34.7909 33 33 34.7909 33 37V74C33 76.2091 34.7909 78 37 78H74C76.2091 78 78 76.2091 78 74V37C78 34.7909 76.2091 33 74 33H37Z" fill="#282A52"/>
<path d="M75.6646 28C71.0624 28 67.3316 31.8332 67.3316 36.5616C67.3316 36.5616 67.0203 43.6701 74.9933 47.8452C75.3854 48.0505 75.8491 48.0521 76.2414 47.8472C78.193 46.8278 83.9974 43.2348 83.9974 36.5616C83.9974 31.8332 80.2666 28 75.6646 28Z" fill="#157DF5"/>
<path d="M75.662 28H75.663C80.2651 28 83.9959 31.8332 83.9959 36.5616C83.9959 43.2348 78.1915 46.8278 76.2399 47.8472C76.0579 47.9422 75.8605 47.9929 75.662 47.9993V28Z" fill="#0965CD"/>
<ellipse cx="75.6633" cy="36.3353" rx="3.33343" ry="3.33333" fill="#F0F7FE"/>
<path d="M75.6633 39.6686V33.002C73.8223 33.002 72.3298 34.4943 72.3298 36.3353C72.3298 38.1762 73.8223 39.6686 75.6633 39.6686Z" fill="white"/>
<path d="M83.7804 75.3069H83.6289L81.9952 71.8432H82.1817L81.5226 70.4326C81.3888 70.1427 81.0985 69.957 80.7775 69.957H76.21L74.373 75.1211L76.3912 81.6731H83.3124C83.6895 81.6731 83.9952 81.3677 83.9957 80.9907C83.9957 80.9907 84.0011 77.164 84.0012 75.8356C84.0012 75.8138 83.9964 75.7926 83.9873 75.7728L83.7804 75.3069Z" fill="#25BB71"/>
<path d="M82.1816 71.8398H79.2295C78.9905 71.8398 78.7969 72.0335 78.7969 72.2724V74.7751C78.7969 75.067 79.0335 75.3037 79.3255 75.3037H83.7802L82.1816 71.8398Z" fill="#F0F7FE"/>
<path d="M61.1836 77.2969V80.9933C61.1836 81.3305 61.5198 81.6728 61.9345 81.6728H76.3924V77.2969L61.1836 77.2969Z" fill="#40D98D"/>
<path d="M68.0625 77.2969H76.3906V81.6728H68.0625V77.2969Z" fill="#25BB71"/>
<path d="M76.3914 78.049H60.3665C60.0594 78.049 59.8105 77.8001 59.8105 77.4931V68.5559C59.8105 68.2489 60.0594 68 60.3665 68H75.8355C76.1425 68 76.3914 68.2489 76.3914 68.5559V70.8249V78.049Z" fill="#157DF5"/>
<path d="M65.2113 84.0004C63.9575 84.0004 62.9375 82.9804 62.9375 81.7267C62.9375 80.4731 63.9575 79.4531 65.2113 79.4531C66.4651 79.4531 67.4851 80.4731 67.4851 81.7267C67.4851 82.9804 66.4651 84.0004 65.2113 84.0004Z" fill="#1E203E"/>
<path d="M80.3363 83.9964C79.0825 83.9964 78.0625 82.9765 78.0625 81.7228C78.0625 80.4692 79.0825 79.4492 80.3363 79.4492C81.5901 79.4492 82.6101 80.4692 82.6101 81.7228C82.6101 82.9765 81.5901 83.9964 80.3363 83.9964Z" fill="#1E203E"/>
<path d="M75.8347 68H68.0625V78.049H76.3906V68.5559C76.3906 68.2489 76.1417 68 75.8347 68Z" fill="#0965CD"/>
<path d="M35.566 28.4044V28H28.919C28.4114 28 28 28.4116 28 28.9191V45.1236C28 45.6313 28.4115 46.0427 28.919 46.0427H37.2498V28.4044H35.566Z" fill="#157DF5"/>
<path d="M45.9336 28.0722C45.8237 28.0257 45.7027 28 45.5758 28H38.9247V28.4044H37.25V46.0428H45.5757C46.2306 46.0428 46.4949 45.513 46.4949 45.1236V28.9191C46.4949 28.5383 46.2635 28.2117 45.9336 28.0722Z" fill="#0965CD"/>
<path d="M37.3085 35.3276H37.1916C36.294 35.3276 35.5664 34.6 35.5664 33.7025V28H38.934V33.7026C38.9337 34.6 38.2061 35.3276 37.3085 35.3276Z" fill="#E2EFFE"/>
<path d="M38.9338 33.6439V28H37.25V35.3276C38.18 35.3276 38.9338 34.5738 38.9338 33.6439Z" fill="#B6D7FC"/>
<path d="M40.6946 83.9959H28.8016C28.3589 83.9959 28 83.637 28 83.1943V82.6275C28 80.5529 29.682 78.8711 31.7567 78.8711H37.7396C39.8143 78.8711 41.4963 80.5529 41.4963 82.6275V83.1943C41.4963 83.637 41.1374 83.9959 40.6946 83.9959Z" fill="#40D98D"/>
<path d="M37.7395 78.8711H34.748V83.9959H40.6945C41.1373 83.9959 41.4962 83.637 41.4962 83.1943V82.6275C41.4962 80.5529 39.8142 78.8711 37.7395 78.8711Z" fill="#25BB71"/>
<path d="M30.5391 72.3317V74.9935C30.5391 77.318 32.4235 79.2023 34.7482 79.2023C37.0728 79.2023 38.9574 77.318 38.9574 74.9935V73.8268L34.7482 71.332L30.5391 72.3317Z" fill="#FFDECC"/>
<path d="M34.748 79.2023C37.0727 79.2023 38.9572 77.318 38.9572 74.9935V73.8268L34.748 71.332V79.2023Z" fill="#FFCFB5"/>
<path d="M38.9574 72.0215C38.9574 70.2643 37.5327 68.8398 35.7755 68.8398H33.7209C31.9637 68.8398 30.5391 70.2643 30.5391 72.0215V72.3342L38.9574 73.8291V72.0215Z" fill="#282A52"/>
<path d="M35.7753 68.8398H34.748V73.0817L38.9572 73.8292V72.0215C38.9572 70.2643 37.5326 68.8398 35.7753 68.8398Z" fill="#1E203E"/>
<path d="M48.5078 49.6406H66.2171V61.7535H48.5078V49.6406Z" fill="white"/>
<path d="M62.5785 60.1109H50.1484V51.2773H62.5785V60.1109Z" fill="#E2EFFE"/>
<path d="M64.2161 63.392H48.5068C47.6013 63.392 46.8672 62.6579 46.8672 61.7524V49.6396C46.8672 48.7341 47.6013 48 48.5068 48H64.2161C65.1216 48 65.8557 48.7341 65.8557 49.6396V61.7524C65.8557 62.658 65.1216 63.392 64.2161 63.392ZM50.1464 60.1128H62.5765V51.2793H50.1464V60.1128Z" fill="#157DF5"/>
<path d="M66.0857 63.3964H46.6396C45.7341 63.3964 45 62.6623 45 61.7568C45 60.8513 45.7341 60.1172 46.6396 60.1172H66.0857C66.9912 60.1172 67.7253 60.8513 67.7253 61.7568C67.7253 62.6623 66.9912 63.3964 66.0857 63.3964Z" fill="#0965CD"/>
<path fill-rule="evenodd" clip-rule="evenodd" d="M74 132.28H37C36.6024 132.28 36.28 132.602 36.28 133V170C36.28 170.398 36.6024 170.72 37 170.72H74C74.3976 170.72 74.72 170.398 74.72 170V133C74.72 132.602 74.3976 132.28 74 132.28ZM37 129C34.7909 129 33 130.791 33 133V170C33 172.209 34.7909 174 37 174H74C76.2091 174 78 172.209 78 170V133C78 130.791 76.2091 129 74 129H37Z" fill="#282A52"/>
<path d="M75.6646 124C71.0624 124 67.3316 127.833 67.3316 132.562C67.3316 132.562 67.0203 139.67 74.9933 143.845C75.3854 144.05 75.8491 144.052 76.2414 143.847C78.193 142.828 83.9974 139.235 83.9974 132.562C83.9974 127.833 80.2666 124 75.6646 124Z" fill="#157DF5"/>
<path d="M75.662 124H75.663C80.2651 124 83.9959 127.833 83.9959 132.562C83.9959 139.235 78.1915 142.828 76.2399 143.847C76.0579 143.942 75.8605 143.993 75.662 143.999V124Z" fill="#0965CD"/>
<ellipse cx="75.6633" cy="132.335" rx="3.33343" ry="3.33333" fill="#F0F7FE"/>
<path d="M75.6633 135.669V129.002C73.8223 129.002 72.3298 130.494 72.3298 132.335C72.3298 134.176 73.8223 135.669 75.6633 135.669Z" fill="white"/>
<path d="M83.7804 171.307H83.6289L81.9952 167.843H82.1817L81.5226 166.433C81.3888 166.143 81.0985 165.957 80.7775 165.957H76.21L74.373 171.121L76.3912 177.673H83.3124C83.6895 177.673 83.9952 177.368 83.9957 176.991C83.9957 176.991 84.0011 173.164 84.0012 171.836C84.0012 171.814 83.9964 171.793 83.9873 171.773L83.7804 171.307Z" fill="#25BB71"/>
<path d="M82.1816 167.84H79.2295C78.9905 167.84 78.7969 168.033 78.7969 168.272V170.775C78.7969 171.067 79.0335 171.304 79.3255 171.304H83.7802L82.1816 167.84Z" fill="#F0F7FE"/>
<path d="M61.1836 173.297V176.993C61.1836 177.33 61.5198 177.673 61.9345 177.673H76.3924V173.297L61.1836 173.297Z" fill="#40D98D"/>
<path d="M68.0625 173.297H76.3906V177.673H68.0625V173.297Z" fill="#25BB71"/>
<path d="M76.3914 174.049H60.3665C60.0594 174.049 59.8105 173.8 59.8105 173.493V164.556C59.8105 164.249 60.0594 164 60.3665 164H75.8355C76.1425 164 76.3914 164.249 76.3914 164.556V166.825V174.049Z" fill="#157DF5"/>
<path d="M65.2113 180C63.9575 180 62.9375 178.98 62.9375 177.727C62.9375 176.473 63.9575 175.453 65.2113 175.453C66.4651 175.453 67.4851 176.473 67.4851 177.727C67.4851 178.98 66.4651 180 65.2113 180Z" fill="#1E203E"/>
<path d="M80.3363 179.996C79.0825 179.996 78.0625 178.976 78.0625 177.723C78.0625 176.469 79.0825 175.449 80.3363 175.449C81.5901 175.449 82.6101 176.469 82.6101 177.723C82.6101 178.976 81.5901 179.996 80.3363 179.996Z" fill="#1E203E"/>
<path d="M75.8347 164H68.0625V174.049H76.3906V164.556C76.3906 164.249 76.1417 164 75.8347 164Z" fill="#0965CD"/>
<path d="M35.566 124.404V124H28.919C28.4114 124 28 124.412 28 124.919V141.124C28 141.631 28.4115 142.043 28.919 142.043H37.2498V124.404H35.566Z" fill="#157DF5"/>
<path d="M45.9336 124.072C45.8237 124.026 45.7027 124 45.5758 124H38.9247V124.404H37.25V142.043H45.5757C46.2306 142.043 46.4949 141.513 46.4949 141.124V124.919C46.4949 124.538 46.2635 124.212 45.9336 124.072Z" fill="#0965CD"/>
<path d="M37.3085 131.328H37.1916C36.294 131.328 35.5664 130.6 35.5664 129.702V124H38.934V129.703C38.9337 130.6 38.2061 131.328 37.3085 131.328Z" fill="#E2EFFE"/>
<path d="M38.9338 129.644V124H37.25V131.328C38.18 131.328 38.9338 130.574 38.9338 129.644Z" fill="#B6D7FC"/>
<path d="M40.6946 179.996H28.8016C28.3589 179.996 28 179.637 28 179.194V178.628C28 176.553 29.682 174.871 31.7567 174.871H37.7396C39.8143 174.871 41.4963 176.553 41.4963 178.628V179.194C41.4963 179.637 41.1374 179.996 40.6946 179.996Z" fill="#40D98D"/>
<path d="M37.7395 174.871H34.748V179.996H40.6945C41.1373 179.996 41.4962 179.637 41.4962 179.194V178.628C41.4962 176.553 39.8142 174.871 37.7395 174.871Z" fill="#25BB71"/>
<path d="M30.5391 168.332V170.994C30.5391 173.318 32.4235 175.202 34.7482 175.202C37.0728 175.202 38.9574 173.318 38.9574 170.994V169.827L34.7482 167.332L30.5391 168.332Z" fill="#FFDECC"/>
<path d="M34.748 175.202C37.0727 175.202 38.9572 173.318 38.9572 170.994V169.827L34.748 167.332V175.202Z" fill="#FFCFB5"/>
<path d="M38.9574 168.021C38.9574 166.264 37.5327 164.84 35.7755 164.84H33.7209C31.9637 164.84 30.5391 166.264 30.5391 168.021V168.334L38.9574 169.829V168.021Z" fill="#282A52"/>
<path d="M35.7753 164.84H34.748V169.082L38.9572 169.829V168.021C38.9572 166.264 37.5326 164.84 35.7753 164.84Z" fill="#1E203E"/>
<path d="M48.5078 145.641H66.2171V157.754H48.5078V145.641Z" fill="white"/>
<path d="M62.5785 156.111H50.1484V147.277H62.5785V156.111Z" fill="#E2EFFE"/>
<path d="M64.2161 159.392H48.5068C47.6013 159.392 46.8672 158.658 46.8672 157.752V145.64C46.8672 144.734 47.6013 144 48.5068 144H64.2161C65.1216 144 65.8557 144.734 65.8557 145.64V157.752C65.8557 158.658 65.1216 159.392 64.2161 159.392ZM50.1464 156.113H62.5765V147.279H50.1464V156.113Z" fill="#157DF5"/>
<path d="M66.0857 159.396H46.6396C45.7341 159.396 45 158.662 45 157.757C45 156.851 45.7341 156.117 46.6396 156.117H66.0857C66.9912 156.117 67.7253 156.851 67.7253 157.757C67.7253 158.662 66.9912 159.396 66.0857 159.396Z" fill="#0965CD"/>
<defs>
<filter id="filter0_d_6367_22825" x="10" y="9" width="96" height="96" filterUnits="userSpaceOnUse" color-interpolation-filters="sRGB">
<feFlood flood-opacity="0" result="BackgroundImageFix"/>
<feColorMatrix in="SourceAlpha" type="matrix" values="0 0 0 0 0 0 0 0 0 0 0 0 0 0 0 0 0 0 127 0" result="hardAlpha"/>
<feOffset dx="2" dy="1"/>
<feGaussianBlur stdDeviation="4"/>
<feColorMatrix type="matrix" values="0 0 0 0 0.0392157 0 0 0 0 0.0392157 0 0 0 0 0.0627451 0 0 0 0.08 0"/>
<feBlend mode="normal" in2="BackgroundImageFix" result="effect1_dropShadow_6367_22825"/>
<feBlend mode="normal" in="SourceGraphic" in2="effect1_dropShadow_6367_22825" result="shape"/>
</filter>
</defs>
</svg>
