<svg width="112" height="208" viewBox="0 0 112 208" fill="none" xmlns="http://www.w3.org/2000/svg">
<rect x="0.5" y="0.5" width="111" height="207" rx="4.5" stroke="#9747FF" stroke-dasharray="10 5"/>
<g filter="url(#filter0_d_6367_25437)">
<rect x="16" y="16" width="80" height="80" rx="8" fill="white"/>
</g>
<path fill-rule="evenodd" clip-rule="evenodd" d="M75.72 55.5L75.72 41.5L79 41.5L79 55.5C79 58.6149 76.4749 61.14 73.36 61.14L37.36 61.14C34.2451 61.14 31.72 58.6149 31.72 55.5L31.72 43.1154L35 43.1154L35 55.5C35 56.8034 36.0566 57.86 37.36 57.86L73.36 57.86C74.6634 57.86 75.72 56.8034 75.72 55.5Z" fill="#282A52"/>
<path fill-rule="evenodd" clip-rule="evenodd" d="M53.72 68.5L53.72 41.5L57 41.5L57 68.5L53.72 68.5Z" fill="#282A52"/>
<path d="M65.9736 36.392H65.841L64.4115 33.3613H64.5748L63.998 32.1271C63.8809 31.8734 63.627 31.7109 63.3461 31.7109H59.3495L57.7422 36.2294L59.5081 41.9623H65.5641C65.894 41.9623 66.1616 41.695 66.1619 41.3652C66.1619 41.3652 66.1667 38.0169 66.1667 36.8546C66.1667 36.8355 66.1626 36.817 66.1546 36.7996L65.9736 36.392Z" fill="#25BB71"/>
<path d="M64.5749 33.3594H61.9918C61.7827 33.3594 61.6133 33.5288 61.6133 33.7379V35.9276C61.6133 36.1831 61.8204 36.3902 62.0759 36.3902H65.9737L64.5749 33.3594Z" fill="#F0F7FE"/>
<path d="M46.1992 38.1329V41.3671C46.1992 41.6621 46.4934 41.9617 46.8563 41.9617H59.5068V38.1328L46.1992 38.1329Z" fill="#40D98D"/>
<path d="M52.2207 38.1328H59.5078V41.9617H52.2207V38.1328Z" fill="#25BB71"/>
<path d="M60.5081 38.7927H46.4864C46.2178 38.7927 46 38.5749 46 38.3063V30.4864C46 30.2178 46.2178 30 46.4864 30H60.0217C60.2904 30 60.5081 30.2178 60.5081 30.4864V32.4717V38.7927Z" fill="#157DF5"/>
<path d="M49.7239 43.9983C48.6269 43.9983 47.7344 43.1058 47.7344 42.0089C47.7344 40.912 48.6269 40.0195 49.7239 40.0195C50.821 40.0195 51.7135 40.912 51.7135 42.0089C51.7135 43.1058 50.821 43.9983 49.7239 43.9983Z" fill="#1E203E"/>
<path d="M62.9603 43.9944C61.8632 43.9944 60.9707 43.1019 60.9707 42.005C60.9707 40.9081 61.8632 40.0156 62.9603 40.0156C64.0573 40.0156 64.9498 40.9081 64.9498 42.005C64.9498 43.1019 64.0573 43.9944 62.9603 43.9944Z" fill="#1E203E"/>
<path d="M60.0214 30H52.2207V38.7927H60.5078V30.4864C60.5078 30.2178 60.29 30 60.0214 30Z" fill="#0965CD"/>
<path d="M41.401 44H28.8462C28.3789 44 28 43.6212 28 43.1538V42.5554C28 40.3653 29.7755 38.5898 31.9658 38.5898H38.2815C40.4717 38.5898 42.2473 40.3653 42.2473 42.5554V43.1538C42.2473 43.6211 41.8684 44 41.401 44Z" fill="#40D98D"/>
<path d="M38.2809 38.5898H35.123V44H41.4004C41.8678 44 42.2467 43.6212 42.2467 43.1538V42.5554C42.2467 40.3653 40.4711 38.5898 38.2809 38.5898Z" fill="#25BB71"/>
<path d="M30.6797 31.6862V34.4962C30.6797 36.9501 32.669 38.9394 35.123 38.9394C37.577 38.9394 39.5664 36.9501 39.5664 34.4962V33.2645L35.123 30.6309L30.6797 31.6862Z" fill="#FFDECC"/>
<path d="M35.123 38.9394C37.577 38.9394 39.5664 36.9501 39.5664 34.4962V33.2645L35.123 30.6309V38.9394Z" fill="#FFCFB5"/>
<path d="M39.5664 31.3588C39.5664 29.5037 38.0625 28 36.2075 28H34.0386C32.1836 28 30.6797 29.5038 30.6797 31.3588V31.6889L39.5664 33.2671V31.3588Z" fill="#282A52"/>
<path d="M36.2075 28H35.123V32.478L39.5664 33.2672V31.3588C39.5664 29.5037 38.0625 28 36.2075 28Z" fill="#1E203E"/>
<path d="M47.7051 69.7031H66.4077V82.2909H47.7051V69.7031Z" fill="white"/>
<path d="M64.2947 83.9954H47.7042C46.7479 83.9954 45.9727 83.2325 45.9727 82.2915V69.7039C45.9727 68.7629 46.7479 68 47.7042 68H64.2947C65.251 68 66.0262 68.7629 66.0262 69.7039V82.2915C66.0262 83.2327 65.251 83.9954 64.2947 83.9954ZM49.4358 80.5876H62.5631V71.4078H49.4358V80.5876Z" fill="#157DF5"/>
<path d="M66.2684 84.0016H45.7316C44.7753 84.0016 44 83.2387 44 82.2977C44 81.3566 44.7753 80.5938 45.7316 80.5938H66.2684C67.2247 80.5938 68 81.3566 68 82.2977C68 83.2387 67.2247 84.0016 66.2684 84.0016Z" fill="#0965CD"/>
<path d="M62.5628 80.5861H49.4355V71.4062H62.5628V80.5861Z" fill="#E2EFFE"/>
<path d="M77.3378 28C73.656 28 70.6712 31.0665 70.6712 34.8493C70.6712 34.8493 70.4222 40.5361 76.8008 43.8761C77.1145 44.0404 77.4855 44.0417 77.7993 43.8777C79.3606 43.0622 84.0043 40.1878 84.0043 34.8493C84.0043 31.0665 81.0196 28 77.3378 28Z" fill="#157DF5"/>
<path d="M77.3359 28H77.3368C81.0185 28 84.0033 31.0665 84.0033 34.8493C84.0033 40.1878 79.3596 43.0622 77.7983 43.8777C77.6526 43.9538 77.4947 43.9943 77.3359 43.9994V28Z" fill="#0965CD"/>
<ellipse cx="77.3367" cy="34.6686" rx="2.66682" ry="2.66667" fill="#F0F7FE"/>
<path d="M77.3367 37.3353V32.002C75.8639 32.002 74.6699 33.1959 74.6699 34.6686C74.6699 36.1414 75.8639 37.3353 77.3367 37.3353Z" fill="white"/>
<path fill-rule="evenodd" clip-rule="evenodd" d="M75.72 151.5L75.72 137.5L79 137.5L79 151.5C79 154.615 76.4749 157.14 73.36 157.14L37.36 157.14C34.2451 157.14 31.72 154.615 31.72 151.5L31.72 139.115L35 139.115L35 151.5C35 152.803 36.0566 153.86 37.36 153.86L73.36 153.86C74.6634 153.86 75.72 152.803 75.72 151.5Z" fill="#282A52"/>
<path fill-rule="evenodd" clip-rule="evenodd" d="M53.72 164.5L53.72 137.5L57 137.5L57 164.5L53.72 164.5Z" fill="#282A52"/>
<path d="M65.9736 132.392H65.841L64.4115 129.361H64.5748L63.998 128.127C63.8809 127.873 63.627 127.711 63.3461 127.711H59.3495L57.7422 132.229L59.5081 137.962H65.5641C65.894 137.962 66.1616 137.695 66.1619 137.365C66.1619 137.365 66.1667 134.017 66.1667 132.855C66.1667 132.835 66.1626 132.817 66.1546 132.8L65.9736 132.392Z" fill="#25BB71"/>
<path d="M64.5749 129.359H61.9918C61.7827 129.359 61.6133 129.529 61.6133 129.738V131.928C61.6133 132.183 61.8204 132.39 62.0759 132.39H65.9737L64.5749 129.359Z" fill="#F0F7FE"/>
<path d="M46.1992 134.133V137.367C46.1992 137.662 46.4934 137.962 46.8563 137.962H59.5068V134.133L46.1992 134.133Z" fill="#40D98D"/>
<path d="M52.2207 134.133H59.5078V137.962H52.2207V134.133Z" fill="#25BB71"/>
<path d="M60.5081 134.793H46.4864C46.2178 134.793 46 134.575 46 134.306V126.486C46 126.218 46.2178 126 46.4864 126H60.0217C60.2904 126 60.5081 126.218 60.5081 126.486V128.472V134.793Z" fill="#157DF5"/>
<path d="M49.7239 139.998C48.6269 139.998 47.7344 139.106 47.7344 138.009C47.7344 136.912 48.6269 136.02 49.7239 136.02C50.821 136.02 51.7135 136.912 51.7135 138.009C51.7135 139.106 50.821 139.998 49.7239 139.998Z" fill="#1E203E"/>
<path d="M62.9603 139.994C61.8632 139.994 60.9707 139.102 60.9707 138.005C60.9707 136.908 61.8632 136.016 62.9603 136.016C64.0573 136.016 64.9498 136.908 64.9498 138.005C64.9498 139.102 64.0573 139.994 62.9603 139.994Z" fill="#1E203E"/>
<path d="M60.0214 126H52.2207V134.793H60.5078V126.486C60.5078 126.218 60.29 126 60.0214 126Z" fill="#0965CD"/>
<path d="M41.401 140H28.8462C28.3789 140 28 139.621 28 139.154V138.555C28 136.365 29.7755 134.59 31.9658 134.59H38.2815C40.4717 134.59 42.2473 136.365 42.2473 138.555V139.154C42.2473 139.621 41.8684 140 41.401 140Z" fill="#40D98D"/>
<path d="M38.2809 134.59H35.123V140H41.4004C41.8678 140 42.2467 139.621 42.2467 139.154V138.555C42.2467 136.365 40.4711 134.59 38.2809 134.59Z" fill="#25BB71"/>
<path d="M30.6797 127.686V130.496C30.6797 132.95 32.669 134.939 35.123 134.939C37.577 134.939 39.5664 132.95 39.5664 130.496V129.264L35.123 126.631L30.6797 127.686Z" fill="#FFDECC"/>
<path d="M35.123 134.939C37.577 134.939 39.5664 132.95 39.5664 130.496V129.264L35.123 126.631V134.939Z" fill="#FFCFB5"/>
<path d="M39.5664 127.359C39.5664 125.504 38.0625 124 36.2075 124H34.0386C32.1836 124 30.6797 125.504 30.6797 127.359V127.689L39.5664 129.267V127.359Z" fill="#282A52"/>
<path d="M36.2075 124H35.123V128.478L39.5664 129.267V127.359C39.5664 125.504 38.0625 124 36.2075 124Z" fill="#1E203E"/>
<path d="M47.7051 165.703H66.4077V178.291H47.7051V165.703Z" fill="white"/>
<path d="M64.2947 179.995H47.7042C46.7479 179.995 45.9727 179.233 45.9727 178.292V165.704C45.9727 164.763 46.7479 164 47.7042 164H64.2947C65.251 164 66.0262 164.763 66.0262 165.704V178.292C66.0262 179.233 65.251 179.995 64.2947 179.995ZM49.4358 176.588H62.5631V167.408H49.4358V176.588Z" fill="#157DF5"/>
<path d="M66.2684 180.002H45.7316C44.7753 180.002 44 179.239 44 178.298C44 177.357 44.7753 176.594 45.7316 176.594H66.2684C67.2247 176.594 68 177.357 68 178.298C68 179.239 67.2247 180.002 66.2684 180.002Z" fill="#0965CD"/>
<path d="M62.5628 176.586H49.4355V167.406H62.5628V176.586Z" fill="#E2EFFE"/>
<path d="M77.3378 124C73.656 124 70.6712 127.067 70.6712 130.849C70.6712 130.849 70.4222 136.536 76.8008 139.876C77.1145 140.04 77.4855 140.042 77.7993 139.878C79.3606 139.062 84.0043 136.188 84.0043 130.849C84.0043 127.067 81.0196 124 77.3378 124Z" fill="#157DF5"/>
<path d="M77.3359 124H77.3368C81.0185 124 84.0033 127.067 84.0033 130.849C84.0033 136.188 79.3596 139.062 77.7983 139.878C77.6526 139.954 77.4947 139.994 77.3359 139.999V124Z" fill="#0965CD"/>
<ellipse cx="77.3367" cy="130.669" rx="2.66682" ry="2.66667" fill="#F0F7FE"/>
<path d="M77.3367 133.335V128.002C75.8639 128.002 74.6699 129.196 74.6699 130.669C74.6699 132.141 75.8639 133.335 77.3367 133.335Z" fill="white"/>
<defs>
<filter id="filter0_d_6367_25437" x="10" y="9" width="96" height="96" filterUnits="userSpaceOnUse" color-interpolation-filters="sRGB">
<feFlood flood-opacity="0" result="BackgroundImageFix"/>
<feColorMatrix in="SourceAlpha" type="matrix" values="0 0 0 0 0 0 0 0 0 0 0 0 0 0 0 0 0 0 127 0" result="hardAlpha"/>
<feOffset dx="2" dy="1"/>
<feGaussianBlur stdDeviation="4"/>
<feColorMatrix type="matrix" values="0 0 0 0 0.0392157 0 0 0 0 0.0392157 0 0 0 0 0.0627451 0 0 0 0.08 0"/>
<feBlend mode="normal" in2="BackgroundImageFix" result="effect1_dropShadow_6367_25437"/>
<feBlend mode="normal" in="SourceGraphic" in2="effect1_dropShadow_6367_25437" result="shape"/>
</filter>
</defs>
</svg>
