<svg width="112" height="208" viewBox="0 0 112 208" fill="none" xmlns="http://www.w3.org/2000/svg">
<rect x="0.5" y="0.5" width="111" height="207" rx="4.5" stroke="#9747FF" stroke-dasharray="10 5"/>
<g filter="url(#filter0_d_6367_23431)">
<rect x="16" y="16" width="80" height="80" rx="8" fill="white"/>
</g>
<path fill-rule="evenodd" clip-rule="evenodd" d="M51 36.6394H37V33.3594H51C54.1149 33.3594 56.64 35.8845 56.64 38.9994V70.9994C56.64 74.1143 54.1149 76.6394 51 76.6394H38.6154V73.3594H51C52.3034 73.3594 53.36 72.3028 53.36 70.9994V38.9994C53.36 37.696 52.3034 36.6394 51 36.6394Z" fill="#282A52"/>
<path fill-rule="evenodd" clip-rule="evenodd" d="M64 56.6394H37V53.3594H64V56.6394Z" fill="#282A52"/>
<path d="M47.9736 76.392H47.841L46.4115 73.3613H46.5748L45.998 72.1271C45.8809 71.8734 45.627 71.7109 45.3461 71.7109H41.3495L39.7422 76.2294L41.5081 81.9623H47.5641C47.894 81.9623 48.1616 81.695 48.1619 81.3652C48.1619 81.3652 48.1667 78.0169 48.1667 76.8546C48.1667 76.8355 48.1626 76.817 48.1546 76.7996L47.9736 76.392Z" fill="#25BB71"/>
<path d="M46.5749 73.3594H43.9918C43.7827 73.3594 43.6133 73.5288 43.6133 73.7379V75.9276C43.6133 76.1831 43.8204 76.3902 44.0759 76.3902H47.9737L46.5749 73.3594Z" fill="#F0F7FE"/>
<path d="M28.1992 78.1329V81.3671C28.1992 81.6621 28.4934 81.9617 28.8563 81.9617H41.5068V78.1328L28.1992 78.1329Z" fill="#40D98D"/>
<path d="M34.2207 78.1328H41.5078V81.9617H34.2207V78.1328Z" fill="#25BB71"/>
<path d="M42.5081 78.7927H28.4864C28.2178 78.7927 28 78.5749 28 78.3063V70.4864C28 70.2178 28.2178 70 28.4864 70H42.0217C42.2904 70 42.5081 70.2178 42.5081 70.4864V72.4717V78.7927Z" fill="#157DF5"/>
<path d="M31.7239 83.9983C30.6269 83.9983 29.7344 83.1058 29.7344 82.0089C29.7344 80.912 30.6269 80.0195 31.7239 80.0195C32.821 80.0195 33.7135 80.912 33.7135 82.0089C33.7135 83.1058 32.821 83.9983 31.7239 83.9983Z" fill="#1E203E"/>
<path d="M44.9603 83.9944C43.8632 83.9944 42.9707 83.1019 42.9707 82.005C42.9707 80.9081 43.8632 80.0156 44.9603 80.0156C46.0573 80.0156 46.9498 80.9081 46.9498 82.005C46.9498 83.1019 46.0573 83.9944 44.9603 83.9944Z" fill="#1E203E"/>
<path d="M42.0214 70H34.2207V78.7927H42.5078V70.4864C42.5078 70.2178 42.29 70 42.0214 70Z" fill="#0965CD"/>
<path d="M40.6946 43.1561H28.8016C28.3589 43.1561 28 42.7972 28 42.3545V41.7877C28 39.7131 29.682 38.0312 31.7567 38.0312H37.7396C39.8143 38.0312 41.4963 39.7131 41.4963 41.7877V42.3545C41.4963 42.7971 41.1374 43.1561 40.6946 43.1561Z" fill="#40D98D"/>
<path d="M37.7395 38.0312H34.748V43.1561H40.6945C41.1373 43.1561 41.4962 42.7972 41.4962 42.3545V41.7877C41.4962 39.7131 39.8142 38.0312 37.7395 38.0312Z" fill="#25BB71"/>
<path d="M30.5391 31.4919V34.1537C30.5391 36.4781 32.4235 38.3625 34.7482 38.3625C37.0728 38.3625 38.9574 36.4781 38.9574 34.1537V32.9869L34.7482 30.4922L30.5391 31.4919Z" fill="#FFDECC"/>
<path d="M34.748 38.3625C37.0727 38.3625 38.9572 36.4781 38.9572 34.1537V32.9869L34.748 30.4922V38.3625Z" fill="#FFCFB5"/>
<path d="M38.9574 31.1816C38.9574 29.4244 37.5327 28 35.7755 28H33.7209C31.9637 28 30.5391 29.4245 30.5391 31.1816V31.4943L38.9574 32.9893V31.1816Z" fill="#282A52"/>
<path d="M35.7753 28H34.748V32.2418L38.9572 32.9894V31.1816C38.9572 29.4244 37.5326 28 35.7753 28Z" fill="#1E203E"/>
<path d="M36.3346 46.5996C31.7324 46.5996 28.0016 50.4328 28.0016 55.1612C28.0016 55.1612 27.6903 62.2697 35.6633 66.4448C36.0554 66.6501 36.5192 66.6517 36.9115 66.4468C38.8631 65.4274 44.6675 61.8344 44.6675 55.1612C44.6675 50.4328 40.9367 46.5996 36.3346 46.5996Z" fill="#157DF5"/>
<path d="M36.332 46.5996H36.3331C40.9351 46.5996 44.6659 50.4328 44.6659 55.1612C44.6659 61.8344 38.8615 65.4274 36.9099 66.4468C36.7279 66.5418 36.5305 66.5925 36.332 66.5989V46.5996Z" fill="#0965CD"/>
<ellipse cx="36.3334" cy="54.9349" rx="3.33343" ry="3.33333" fill="#F0F7FE"/>
<path d="M36.3334 58.2682V51.6016C34.4924 51.6016 33 53.0939 33 54.9349C33 56.7758 34.4924 58.2682 36.3334 58.2682Z" fill="white"/>
<path d="M64.7793 48.6406H82.4886V60.7535H64.7793V48.6406Z" fill="white"/>
<path d="M80.4895 62.392H64.7803C63.8747 62.392 63.1406 61.6579 63.1406 60.7524V48.6396C63.1406 47.7341 63.8747 47 64.7803 47H80.4895C81.395 47 82.1291 47.7341 82.1291 48.6396V60.7524C82.1291 61.658 81.395 62.392 80.4895 62.392ZM66.4199 59.1128H78.8499V50.2793H66.4199V59.1128Z" fill="#157DF5"/>
<path d="M82.3572 62.3964H62.9111C62.0056 62.3964 61.2715 61.6623 61.2715 60.7568C61.2715 59.8513 62.0056 59.1172 62.9111 59.1172H82.3572C83.2627 59.1172 83.9968 59.8513 83.9968 60.7568C83.9968 61.6623 83.2627 62.3964 82.3572 62.3964Z" fill="#0965CD"/>
<path d="M78.848 59.1109H66.418V50.2773H78.848V59.1109Z" fill="#E2EFFE"/>
<path fill-rule="evenodd" clip-rule="evenodd" d="M51 132.639H37V129.359H51C54.1149 129.359 56.64 131.884 56.64 134.999V166.999C56.64 170.114 54.1149 172.639 51 172.639H38.6154V169.359H51C52.3034 169.359 53.36 168.303 53.36 166.999V134.999C53.36 133.696 52.3034 132.639 51 132.639Z" fill="#282A52"/>
<path fill-rule="evenodd" clip-rule="evenodd" d="M64 152.639H37V149.359H64V152.639Z" fill="#282A52"/>
<path d="M47.9736 172.392H47.841L46.4115 169.361H46.5748L45.998 168.127C45.8809 167.873 45.627 167.711 45.3461 167.711H41.3495L39.7422 172.229L41.5081 177.962H47.5641C47.894 177.962 48.1616 177.695 48.1619 177.365C48.1619 177.365 48.1667 174.017 48.1667 172.855C48.1667 172.835 48.1626 172.817 48.1546 172.8L47.9736 172.392Z" fill="#25BB71"/>
<path d="M46.5749 169.359H43.9918C43.7827 169.359 43.6133 169.529 43.6133 169.738V171.928C43.6133 172.183 43.8204 172.39 44.0759 172.39H47.9737L46.5749 169.359Z" fill="#F0F7FE"/>
<path d="M28.1992 174.133V177.367C28.1992 177.662 28.4934 177.962 28.8563 177.962H41.5068V174.133L28.1992 174.133Z" fill="#40D98D"/>
<path d="M34.2207 174.133H41.5078V177.962H34.2207V174.133Z" fill="#25BB71"/>
<path d="M42.5081 174.793H28.4864C28.2178 174.793 28 174.575 28 174.306V166.486C28 166.218 28.2178 166 28.4864 166H42.0217C42.2904 166 42.5081 166.218 42.5081 166.486V168.472V174.793Z" fill="#157DF5"/>
<path d="M31.7239 179.998C30.6269 179.998 29.7344 179.106 29.7344 178.009C29.7344 176.912 30.6269 176.02 31.7239 176.02C32.821 176.02 33.7135 176.912 33.7135 178.009C33.7135 179.106 32.821 179.998 31.7239 179.998Z" fill="#1E203E"/>
<path d="M44.9603 179.994C43.8632 179.994 42.9707 179.102 42.9707 178.005C42.9707 176.908 43.8632 176.016 44.9603 176.016C46.0573 176.016 46.9498 176.908 46.9498 178.005C46.9498 179.102 46.0573 179.994 44.9603 179.994Z" fill="#1E203E"/>
<path d="M42.0214 166H34.2207V174.793H42.5078V166.486C42.5078 166.218 42.29 166 42.0214 166Z" fill="#0965CD"/>
<path d="M40.6946 139.156H28.8016C28.3589 139.156 28 138.797 28 138.354V137.788C28 135.713 29.682 134.031 31.7567 134.031H37.7396C39.8143 134.031 41.4963 135.713 41.4963 137.788V138.354C41.4963 138.797 41.1374 139.156 40.6946 139.156Z" fill="#40D98D"/>
<path d="M37.7395 134.031H34.748V139.156H40.6945C41.1373 139.156 41.4962 138.797 41.4962 138.354V137.788C41.4962 135.713 39.8142 134.031 37.7395 134.031Z" fill="#25BB71"/>
<path d="M30.5391 127.492V130.154C30.5391 132.478 32.4235 134.362 34.7482 134.362C37.0728 134.362 38.9574 132.478 38.9574 130.154V128.987L34.7482 126.492L30.5391 127.492Z" fill="#FFDECC"/>
<path d="M34.748 134.362C37.0727 134.362 38.9572 132.478 38.9572 130.154V128.987L34.748 126.492V134.362Z" fill="#FFCFB5"/>
<path d="M38.9574 127.182C38.9574 125.424 37.5327 124 35.7755 124H33.7209C31.9637 124 30.5391 125.424 30.5391 127.182V127.494L38.9574 128.989V127.182Z" fill="#282A52"/>
<path d="M35.7753 124H34.748V128.242L38.9572 128.989V127.182C38.9572 125.424 37.5326 124 35.7753 124Z" fill="#1E203E"/>
<path d="M36.3346 142.6C31.7324 142.6 28.0016 146.433 28.0016 151.161C28.0016 151.161 27.6903 158.27 35.6633 162.445C36.0554 162.65 36.5192 162.652 36.9115 162.447C38.8631 161.427 44.6675 157.834 44.6675 151.161C44.6675 146.433 40.9367 142.6 36.3346 142.6Z" fill="#157DF5"/>
<path d="M36.332 142.6H36.3331C40.9351 142.6 44.6659 146.433 44.6659 151.161C44.6659 157.834 38.8615 161.427 36.9099 162.447C36.7279 162.542 36.5305 162.592 36.332 162.599V142.6Z" fill="#0965CD"/>
<ellipse cx="36.3334" cy="150.935" rx="3.33343" ry="3.33333" fill="#F0F7FE"/>
<path d="M36.3334 154.268V147.602C34.4924 147.602 33 149.094 33 150.935C33 152.776 34.4924 154.268 36.3334 154.268Z" fill="white"/>
<path d="M64.7793 144.641H82.4886V156.754H64.7793V144.641Z" fill="white"/>
<path d="M80.4895 158.392H64.7803C63.8747 158.392 63.1406 157.658 63.1406 156.752V144.64C63.1406 143.734 63.8747 143 64.7803 143H80.4895C81.395 143 82.1291 143.734 82.1291 144.64V156.752C82.1291 157.658 81.395 158.392 80.4895 158.392ZM66.4199 155.113H78.8499V146.279H66.4199V155.113Z" fill="#157DF5"/>
<path d="M82.3572 158.396H62.9111C62.0056 158.396 61.2715 157.662 61.2715 156.757C61.2715 155.851 62.0056 155.117 62.9111 155.117H82.3572C83.2627 155.117 83.9968 155.851 83.9968 156.757C83.9968 157.662 83.2627 158.396 82.3572 158.396Z" fill="#0965CD"/>
<path d="M78.848 155.111H66.418V146.277H78.848V155.111Z" fill="#E2EFFE"/>
<defs>
<filter id="filter0_d_6367_23431" x="10" y="9" width="96" height="96" filterUnits="userSpaceOnUse" color-interpolation-filters="sRGB">
<feFlood flood-opacity="0" result="BackgroundImageFix"/>
<feColorMatrix in="SourceAlpha" type="matrix" values="0 0 0 0 0 0 0 0 0 0 0 0 0 0 0 0 0 0 127 0" result="hardAlpha"/>
<feOffset dx="2" dy="1"/>
<feGaussianBlur stdDeviation="4"/>
<feColorMatrix type="matrix" values="0 0 0 0 0.0392157 0 0 0 0 0.0392157 0 0 0 0 0.0627451 0 0 0 0.08 0"/>
<feBlend mode="normal" in2="BackgroundImageFix" result="effect1_dropShadow_6367_23431"/>
<feBlend mode="normal" in="SourceGraphic" in2="effect1_dropShadow_6367_23431" result="shape"/>
</filter>
</defs>
</svg>
