<svg width="467" height="61" viewBox="0 0 467 61" fill="none" xmlns="http://www.w3.org/2000/svg">
<path d="M2.38281 3.125H9.6875L28.3203 49.4922L46.9141 3.125H54.2578L31.1328 60H25.4297L2.38281 3.125ZM0 3.125H6.44531L7.5 37.8125V60H0V3.125ZM50.1562 3.125H56.6016V60H49.1016V37.8125L50.1562 3.125ZM93.6719 52.7734V31.0156C93.6719 29.349 93.3333 27.9036 92.6562 26.6797C92.0052 25.4297 91.0156 24.4661 89.6875 23.7891C88.3594 23.112 86.7188 22.7734 84.7656 22.7734C82.9427 22.7734 81.3411 23.0859 79.9609 23.7109C78.6068 24.3359 77.5391 25.1562 76.7578 26.1719C76.0026 27.1875 75.625 28.2812 75.625 29.4531H68.3984C68.3984 27.9427 68.7891 26.4453 69.5703 24.9609C70.3516 23.4766 71.4714 22.1354 72.9297 20.9375C74.4141 19.7135 76.1849 18.75 78.2422 18.0469C80.3255 17.3177 82.6432 16.9531 85.1953 16.9531C88.2682 16.9531 90.9766 17.474 93.3203 18.5156C95.6901 19.5573 97.5391 21.1328 98.8672 23.2422C100.221 25.3255 100.898 27.9427 100.898 31.0938V50.7812C100.898 52.1875 101.016 53.6849 101.25 55.2734C101.51 56.862 101.888 58.2292 102.383 59.375V60H94.8438C94.4792 59.1667 94.1927 58.0599 93.9844 56.6797C93.776 55.2734 93.6719 53.9714 93.6719 52.7734ZM94.9219 34.375L95 39.4531H87.6953C85.638 39.4531 83.8021 39.6224 82.1875 39.9609C80.5729 40.2734 79.2188 40.7552 78.125 41.4062C77.0312 42.0573 76.1979 42.8776 75.625 43.8672C75.0521 44.8307 74.7656 45.9635 74.7656 47.2656C74.7656 48.5938 75.0651 49.8047 75.6641 50.8984C76.263 51.9922 77.1615 52.8646 78.3594 53.5156C79.5833 54.1406 81.0807 54.4531 82.8516 54.4531C85.0651 54.4531 87.0182 53.9844 88.7109 53.0469C90.4036 52.1094 91.7448 50.9635 92.7344 49.6094C93.75 48.2552 94.2969 46.9401 94.375 45.6641L97.4609 49.1406C97.2786 50.2344 96.7839 51.4453 95.9766 52.7734C95.1693 54.1016 94.0885 55.3776 92.7344 56.6016C91.4062 57.7995 89.8177 58.8021 87.9688 59.6094C86.1458 60.3906 84.0885 60.7812 81.7969 60.7812C78.9323 60.7812 76.4193 60.2214 74.2578 59.1016C72.1224 57.9818 70.4557 56.4844 69.2578 54.6094C68.0859 52.7083 67.5 50.5859 67.5 48.2422C67.5 45.9766 67.9427 43.9844 68.8281 42.2656C69.7135 40.5208 70.9896 39.0755 72.6562 37.9297C74.3229 36.7578 76.3281 35.8724 78.6719 35.2734C81.0156 34.6745 83.6328 34.375 86.5234 34.375H94.9219ZM119.531 0V60H112.266V0H119.531ZM145.352 17.7344L126.914 37.4609L116.602 48.1641L116.016 40.4688L123.398 31.6406L136.523 17.7344H145.352ZM138.75 60L123.672 39.8438L127.422 33.3984L147.266 60H138.75ZM160.039 24.375V60H152.812V17.7344H159.844L160.039 24.375ZM173.242 17.5L173.203 24.2188C172.604 24.0885 172.031 24.0104 171.484 23.9844C170.964 23.9323 170.365 23.9062 169.688 23.9062C168.021 23.9062 166.549 24.1667 165.273 24.6875C163.997 25.2083 162.917 25.9375 162.031 26.875C161.146 27.8125 160.443 28.9323 159.922 30.2344C159.427 31.5104 159.102 32.9167 158.945 34.4531L156.914 35.625C156.914 33.0729 157.161 30.6771 157.656 28.4375C158.177 26.1979 158.971 24.2188 160.039 22.5C161.107 20.7552 162.461 19.401 164.102 18.4375C165.768 17.4479 167.747 16.9531 170.039 16.9531C170.56 16.9531 171.159 17.0182 171.836 17.1484C172.513 17.2526 172.982 17.3698 173.242 17.5ZM177.227 39.3359V38.4375C177.227 35.3906 177.669 32.5651 178.555 29.9609C179.44 27.3307 180.716 25.0521 182.383 23.125C184.049 21.1719 186.068 19.6615 188.438 18.5938C190.807 17.5 193.464 16.9531 196.406 16.9531C199.375 16.9531 202.044 17.5 204.414 18.5938C206.81 19.6615 208.841 21.1719 210.508 23.125C212.201 25.0521 213.49 27.3307 214.375 29.9609C215.26 32.5651 215.703 35.3906 215.703 38.4375V39.3359C215.703 42.3828 215.26 45.2083 214.375 47.8125C213.49 50.4167 212.201 52.6953 210.508 54.6484C208.841 56.5755 206.823 58.0859 204.453 59.1797C202.109 60.2474 199.453 60.7812 196.484 60.7812C193.516 60.7812 190.846 60.2474 188.477 59.1797C186.107 58.0859 184.076 56.5755 182.383 54.6484C180.716 52.6953 179.44 50.4167 178.555 47.8125C177.669 45.2083 177.227 42.3828 177.227 39.3359ZM184.453 38.4375V39.3359C184.453 41.4453 184.701 43.4375 185.195 45.3125C185.69 47.1615 186.432 48.8021 187.422 50.2344C188.438 51.6667 189.701 52.7995 191.211 53.6328C192.721 54.4401 194.479 54.8438 196.484 54.8438C198.464 54.8438 200.195 54.4401 201.68 53.6328C203.19 52.7995 204.44 51.6667 205.43 50.2344C206.419 48.8021 207.161 47.1615 207.656 45.3125C208.177 43.4375 208.438 41.4453 208.438 39.3359V38.4375C208.438 36.3542 208.177 34.388 207.656 32.5391C207.161 30.6641 206.406 29.0104 205.391 27.5781C204.401 26.1198 203.151 24.974 201.641 24.1406C200.156 23.3073 198.411 22.8906 196.406 22.8906C194.427 22.8906 192.682 23.3073 191.172 24.1406C189.688 24.974 188.438 26.1198 187.422 27.5781C186.432 29.0104 185.69 30.6641 185.195 32.5391C184.701 34.388 184.453 36.3542 184.453 38.4375ZM280.039 41.9141H287.539C287.148 45.5078 286.12 48.724 284.453 51.5625C282.786 54.401 280.43 56.6536 277.383 58.3203C274.336 59.9609 270.534 60.7812 265.977 60.7812C262.643 60.7812 259.609 60.1562 256.875 58.9062C254.167 57.6562 251.836 55.8854 249.883 53.5938C247.93 51.276 246.419 48.5026 245.352 45.2734C244.31 42.0182 243.789 38.3984 243.789 34.4141V28.75C243.789 24.7656 244.31 21.1589 245.352 17.9297C246.419 14.6745 247.943 11.888 249.922 9.57031C251.927 7.2526 254.336 5.46875 257.148 4.21875C259.961 2.96875 263.125 2.34375 266.641 2.34375C270.938 2.34375 274.57 3.15104 277.539 4.76562C280.508 6.38021 282.812 8.61979 284.453 11.4844C286.12 14.3229 287.148 17.6172 287.539 21.3672H280.039C279.674 18.7109 278.997 16.4323 278.008 14.5312C277.018 12.6042 275.612 11.1198 273.789 10.0781C271.966 9.03646 269.583 8.51562 266.641 8.51562C264.115 8.51562 261.888 8.9974 259.961 9.96094C258.06 10.9245 256.458 12.2917 255.156 14.0625C253.88 15.8333 252.917 17.9557 252.266 20.4297C251.615 22.9036 251.289 25.651 251.289 28.6719V34.4141C251.289 37.2005 251.576 39.8177 252.148 42.2656C252.747 44.7135 253.646 46.862 254.844 48.7109C256.042 50.5599 257.565 52.0182 259.414 53.0859C261.263 54.1276 263.451 54.6484 265.977 54.6484C269.18 54.6484 271.732 54.1406 273.633 53.125C275.534 52.1094 276.966 50.651 277.93 48.75C278.919 46.849 279.622 44.5703 280.039 41.9141ZM294.805 39.3359V38.4375C294.805 35.3906 295.247 32.5651 296.133 29.9609C297.018 27.3307 298.294 25.0521 299.961 23.125C301.628 21.1719 303.646 19.6615 306.016 18.5938C308.385 17.5 311.042 16.9531 313.984 16.9531C316.953 16.9531 319.622 17.5 321.992 18.5938C324.388 19.6615 326.419 21.1719 328.086 23.125C329.779 25.0521 331.068 27.3307 331.953 29.9609C332.839 32.5651 333.281 35.3906 333.281 38.4375V39.3359C333.281 42.3828 332.839 45.2083 331.953 47.8125C331.068 50.4167 329.779 52.6953 328.086 54.6484C326.419 56.5755 324.401 58.0859 322.031 59.1797C319.688 60.2474 317.031 60.7812 314.062 60.7812C311.094 60.7812 308.424 60.2474 306.055 59.1797C303.685 58.0859 301.654 56.5755 299.961 54.6484C298.294 52.6953 297.018 50.4167 296.133 47.8125C295.247 45.2083 294.805 42.3828 294.805 39.3359ZM302.031 38.4375V39.3359C302.031 41.4453 302.279 43.4375 302.773 45.3125C303.268 47.1615 304.01 48.8021 305 50.2344C306.016 51.6667 307.279 52.7995 308.789 53.6328C310.299 54.4401 312.057 54.8438 314.062 54.8438C316.042 54.8438 317.773 54.4401 319.258 53.6328C320.768 52.7995 322.018 51.6667 323.008 50.2344C323.997 48.8021 324.74 47.1615 325.234 45.3125C325.755 43.4375 326.016 41.4453 326.016 39.3359V38.4375C326.016 36.3542 325.755 34.388 325.234 32.5391C324.74 30.6641 323.984 29.0104 322.969 27.5781C321.979 26.1198 320.729 24.974 319.219 24.1406C317.734 23.3073 315.99 22.8906 313.984 22.8906C312.005 22.8906 310.26 23.3073 308.75 24.1406C307.266 24.974 306.016 26.1198 305 27.5781C304.01 29.0104 303.268 30.6641 302.773 32.5391C302.279 34.388 302.031 36.3542 302.031 38.4375ZM350.195 0V60H342.93V0H350.195ZM359.883 39.3359V38.4375C359.883 35.3906 360.326 32.5651 361.211 29.9609C362.096 27.3307 363.372 25.0521 365.039 23.125C366.706 21.1719 368.724 19.6615 371.094 18.5938C373.464 17.5 376.12 16.9531 379.062 16.9531C382.031 16.9531 384.701 17.5 387.07 18.5938C389.466 19.6615 391.497 21.1719 393.164 23.125C394.857 25.0521 396.146 27.3307 397.031 29.9609C397.917 32.5651 398.359 35.3906 398.359 38.4375V39.3359C398.359 42.3828 397.917 45.2083 397.031 47.8125C396.146 50.4167 394.857 52.6953 393.164 54.6484C391.497 56.5755 389.479 58.0859 387.109 59.1797C384.766 60.2474 382.109 60.7812 379.141 60.7812C376.172 60.7812 373.503 60.2474 371.133 59.1797C368.763 58.0859 366.732 56.5755 365.039 54.6484C363.372 52.6953 362.096 50.4167 361.211 47.8125C360.326 45.2083 359.883 42.3828 359.883 39.3359ZM367.109 38.4375V39.3359C367.109 41.4453 367.357 43.4375 367.852 45.3125C368.346 47.1615 369.089 48.8021 370.078 50.2344C371.094 51.6667 372.357 52.7995 373.867 53.6328C375.378 54.4401 377.135 54.8438 379.141 54.8438C381.12 54.8438 382.852 54.4401 384.336 53.6328C385.846 52.7995 387.096 51.6667 388.086 50.2344C389.076 48.8021 389.818 47.1615 390.312 45.3125C390.833 43.4375 391.094 41.4453 391.094 39.3359V38.4375C391.094 36.3542 390.833 34.388 390.312 32.5391C389.818 30.6641 389.062 29.0104 388.047 27.5781C387.057 26.1198 385.807 24.974 384.297 24.1406C382.812 23.3073 381.068 22.8906 379.062 22.8906C377.083 22.8906 375.339 23.3073 373.828 24.1406C372.344 24.974 371.094 26.1198 370.078 27.5781C369.089 29.0104 368.346 30.6641 367.852 32.5391C367.357 34.388 367.109 36.3542 367.109 38.4375ZM414.648 24.375V60H407.422V17.7344H414.453L414.648 24.375ZM427.852 17.5L427.812 24.2188C427.214 24.0885 426.641 24.0104 426.094 23.9844C425.573 23.9323 424.974 23.9062 424.297 23.9062C422.63 23.9062 421.159 24.1667 419.883 24.6875C418.607 25.2083 417.526 25.9375 416.641 26.875C415.755 27.8125 415.052 28.9323 414.531 30.2344C414.036 31.5104 413.711 32.9167 413.555 34.4531L411.523 35.625C411.523 33.0729 411.771 30.6771 412.266 28.4375C412.786 26.1979 413.581 24.2188 414.648 22.5C415.716 20.7552 417.07 19.401 418.711 18.4375C420.378 17.4479 422.357 16.9531 424.648 16.9531C425.169 16.9531 425.768 17.0182 426.445 17.1484C427.122 17.2526 427.591 17.3698 427.852 17.5ZM459.141 48.7891C459.141 47.7474 458.906 46.7839 458.438 45.8984C457.995 44.987 457.07 44.1667 455.664 43.4375C454.284 42.6823 452.201 42.0312 449.414 41.4844C447.07 40.9896 444.948 40.4036 443.047 39.7266C441.172 39.0495 439.57 38.2292 438.242 37.2656C436.94 36.3021 435.938 35.1693 435.234 33.8672C434.531 32.5651 434.18 31.0417 434.18 29.2969C434.18 27.6302 434.544 26.0547 435.273 24.5703C436.029 23.0859 437.083 21.7708 438.438 20.625C439.818 19.4792 441.471 18.5807 443.398 17.9297C445.326 17.2786 447.474 16.9531 449.844 16.9531C453.229 16.9531 456.12 17.5521 458.516 18.75C460.911 19.9479 462.747 21.5495 464.023 23.5547C465.299 25.5339 465.938 27.7344 465.938 30.1562H458.711C458.711 28.9844 458.359 27.8516 457.656 26.7578C456.979 25.638 455.977 24.7135 454.648 23.9844C453.346 23.2552 451.745 22.8906 449.844 22.8906C447.839 22.8906 446.211 23.2031 444.961 23.8281C443.737 24.4271 442.839 25.1953 442.266 26.1328C441.719 27.0703 441.445 28.0599 441.445 29.1016C441.445 29.8828 441.576 30.5859 441.836 31.2109C442.122 31.8099 442.617 32.3698 443.32 32.8906C444.023 33.3854 445.013 33.8542 446.289 34.2969C447.565 34.7396 449.193 35.1823 451.172 35.625C454.635 36.4062 457.487 37.3438 459.727 38.4375C461.966 39.5312 463.633 40.8724 464.727 42.4609C465.82 44.0495 466.367 45.9766 466.367 48.2422C466.367 50.0911 465.977 51.7839 465.195 53.3203C464.44 54.8568 463.333 56.1849 461.875 57.3047C460.443 58.3984 458.724 59.2578 456.719 59.8828C454.74 60.4818 452.513 60.7812 450.039 60.7812C446.315 60.7812 443.164 60.1172 440.586 58.7891C438.008 57.4609 436.055 55.7422 434.727 53.6328C433.398 51.5234 432.734 49.2969 432.734 46.9531H440C440.104 48.9323 440.677 50.5078 441.719 51.6797C442.76 52.8255 444.036 53.6458 445.547 54.1406C447.057 54.6094 448.555 54.8438 450.039 54.8438C452.018 54.8438 453.672 54.5833 455 54.0625C456.354 53.5417 457.383 52.8255 458.086 51.9141C458.789 51.0026 459.141 49.9609 459.141 48.7891Z" fill="#344054"/>
</svg>
