<svg width="632" height="91" viewBox="0 0 632 91" fill="none" xmlns="http://www.w3.org/2000/svg">
<path d="M0 79.9999H80V-9.82285e-05H0V79.9999ZM88.9844 17.5249H96.2891L114.922 63.8921L133.516 17.5249H140.859L117.734 74.3999H112.031L88.9844 17.5249ZM86.6016 17.5249H93.0469L94.1016 52.2124V74.3999H86.6016V17.5249ZM136.758 17.5249H143.203V74.3999H135.703V52.2124L136.758 17.5249ZM180.273 67.1733V45.4155C180.273 43.7489 179.935 42.3035 179.258 41.0796C178.607 39.8296 177.617 38.866 176.289 38.189C174.961 37.5119 173.32 37.1733 171.367 37.1733C169.544 37.1733 167.943 37.4858 166.562 38.1108C165.208 38.7358 164.141 39.5562 163.359 40.5718C162.604 41.5874 162.227 42.6812 162.227 43.853H155C155 42.3426 155.391 40.8452 156.172 39.3608C156.953 37.8765 158.073 36.5353 159.531 35.3374C161.016 34.1134 162.786 33.1499 164.844 32.4468C166.927 31.7176 169.245 31.353 171.797 31.353C174.87 31.353 177.578 31.8739 179.922 32.9155C182.292 33.9572 184.141 35.5327 185.469 37.6421C186.823 39.7254 187.5 42.3426 187.5 45.4937V65.1812C187.5 66.5874 187.617 68.0848 187.852 69.6733C188.112 71.2619 188.49 72.6291 188.984 73.7749V74.3999H181.445C181.081 73.5666 180.794 72.4598 180.586 71.0796C180.378 69.6733 180.273 68.3713 180.273 67.1733ZM181.523 48.7749L181.602 53.853H174.297C172.24 53.853 170.404 54.0223 168.789 54.3608C167.174 54.6733 165.82 55.1551 164.727 55.8062C163.633 56.4572 162.799 57.2775 162.227 58.2671C161.654 59.2306 161.367 60.3634 161.367 61.6655C161.367 62.9937 161.667 64.2046 162.266 65.2983C162.865 66.3921 163.763 67.2645 164.961 67.9155C166.185 68.5405 167.682 68.853 169.453 68.853C171.667 68.853 173.62 68.3843 175.312 67.4468C177.005 66.5093 178.346 65.3634 179.336 64.0093C180.352 62.6551 180.898 61.34 180.977 60.064L184.062 63.5405C183.88 64.6343 183.385 65.8452 182.578 67.1733C181.771 68.5015 180.69 69.7775 179.336 71.0015C178.008 72.1994 176.419 73.202 174.57 74.0093C172.747 74.7905 170.69 75.1812 168.398 75.1812C165.534 75.1812 163.021 74.6213 160.859 73.5015C158.724 72.3817 157.057 70.8843 155.859 69.0093C154.688 67.1082 154.102 64.9858 154.102 62.6421C154.102 60.3765 154.544 58.3843 155.43 56.6655C156.315 54.9207 157.591 53.4754 159.258 52.3296C160.924 51.1577 162.93 50.2723 165.273 49.6733C167.617 49.0744 170.234 48.7749 173.125 48.7749H181.523ZM206.094 40.2593V90.6499H198.828V32.1343H205.469L206.094 40.2593ZM234.57 52.9155V53.7358C234.57 56.8088 234.206 59.6603 233.477 62.2905C232.747 64.8947 231.68 67.1603 230.273 69.0874C228.893 71.0145 227.188 72.5119 225.156 73.5796C223.125 74.6473 220.794 75.1812 218.164 75.1812C215.482 75.1812 213.112 74.7384 211.055 73.853C208.997 72.9676 207.253 71.6785 205.82 69.9858C204.388 68.2931 203.242 66.2619 202.383 63.8921C201.549 61.5223 200.977 58.853 200.664 55.8843V51.5093C200.977 48.3843 201.562 45.5848 202.422 43.1108C203.281 40.6369 204.414 38.5275 205.82 36.7827C207.253 35.0119 208.984 33.6707 211.016 32.7593C213.047 31.8218 215.391 31.353 218.047 31.353C220.703 31.353 223.06 31.8739 225.117 32.9155C227.174 33.9312 228.906 35.3895 230.312 37.2905C231.719 39.1916 232.773 41.4702 233.477 44.1265C234.206 46.7567 234.57 49.6864 234.57 52.9155ZM227.305 53.7358V52.9155C227.305 50.8062 227.083 48.827 226.641 46.978C226.198 45.103 225.508 43.4624 224.57 42.0562C223.659 40.6239 222.487 39.5041 221.055 38.6968C219.622 37.8634 217.917 37.4468 215.938 37.4468C214.115 37.4468 212.526 37.7593 211.172 38.3843C209.844 39.0093 208.711 39.8556 207.773 40.9233C206.836 41.965 206.068 43.1629 205.469 44.5171C204.896 45.8452 204.466 47.2254 204.18 48.6577V58.7749C204.701 60.5978 205.43 62.3166 206.367 63.9312C207.305 65.5197 208.555 66.8088 210.117 67.7983C211.68 68.7619 213.646 69.2437 216.016 69.2437C217.969 69.2437 219.648 68.84 221.055 68.0327C222.487 67.1994 223.659 66.0666 224.57 64.6343C225.508 63.202 226.198 61.5614 226.641 59.7124C227.083 57.8374 227.305 55.8452 227.305 53.7358ZM274.141 42.8374L282.656 36.7827C284.297 35.6629 285.56 34.5431 286.445 33.4233C287.357 32.2775 287.812 30.715 287.812 28.7358C287.812 27.1994 287.214 25.8062 286.016 24.5562C284.818 23.2801 283.125 22.6421 280.938 22.6421C279.427 22.6421 278.151 22.9937 277.109 23.6968C276.068 24.3999 275.286 25.3374 274.766 26.5093C274.245 27.6551 273.984 28.9181 273.984 30.2983C273.984 31.4702 274.271 32.6812 274.844 33.9312C275.417 35.1812 276.211 36.4832 277.227 37.8374C278.242 39.1916 279.401 40.6239 280.703 42.1343L307.617 74.3999H298.945L276.875 47.9937C274.922 45.702 273.177 43.6056 271.641 41.7046C270.104 39.7775 268.893 37.9155 268.008 36.1187C267.148 34.3218 266.719 32.4598 266.719 30.5327C266.719 27.564 267.305 25.064 268.477 23.0327C269.674 20.9754 271.341 19.4129 273.477 18.3452C275.612 17.2775 278.112 16.7437 280.977 16.7437C283.763 16.7437 286.159 17.3035 288.164 18.4233C290.195 19.5171 291.758 20.9754 292.852 22.7983C293.945 24.5952 294.492 26.5744 294.492 28.7358C294.492 30.5588 294.167 32.1994 293.516 33.6577C292.865 35.09 291.953 36.4051 290.781 37.603C289.635 38.8009 288.294 39.9728 286.758 41.1187L275.469 49.5171C273.594 50.8973 272.227 52.2124 271.367 53.4624C270.508 54.7124 269.948 55.8192 269.688 56.7827C269.453 57.7463 269.336 58.5145 269.336 59.0874C269.336 60.9364 269.74 62.6291 270.547 64.1655C271.354 65.702 272.578 66.939 274.219 67.8765C275.885 68.7879 277.969 69.2437 280.469 69.2437C282.656 69.2437 284.779 68.7489 286.836 67.7593C288.919 66.7437 290.781 65.3114 292.422 63.4624C294.062 61.5874 295.365 59.3608 296.328 56.7827C297.318 54.1785 297.812 51.3009 297.812 48.1499H304.297C304.297 50.728 304.049 53.1629 303.555 55.4546C303.06 57.7463 302.292 59.8817 301.25 61.8608C300.234 63.814 298.932 65.5978 297.344 67.2124C297.109 67.4468 296.927 67.7202 296.797 68.0327C296.667 68.3452 296.484 68.6187 296.25 68.853C294.297 70.9624 291.888 72.5509 289.023 73.6187C286.185 74.6603 283.333 75.1812 280.469 75.1812C276.693 75.1812 273.424 74.491 270.664 73.1108C267.93 71.7306 265.82 69.8296 264.336 67.4077C262.852 64.9858 262.109 62.2124 262.109 59.0874C262.109 56.6916 262.617 54.5822 263.633 52.7593C264.674 50.9364 266.094 49.2306 267.891 47.6421C269.714 46.0535 271.797 44.452 274.141 42.8374ZM368.828 68.2671V74.3999H340.391V68.2671H368.828ZM341.875 17.5249V74.3999H334.336V17.5249H341.875ZM374.453 53.7358V52.8374C374.453 49.7905 374.896 46.965 375.781 44.3608C376.667 41.7306 377.943 39.452 379.609 37.5249C381.276 35.5718 383.294 34.0614 385.664 32.9937C388.034 31.8999 390.69 31.353 393.633 31.353C396.602 31.353 399.271 31.8999 401.641 32.9937C404.036 34.0614 406.068 35.5718 407.734 37.5249C409.427 39.452 410.716 41.7306 411.602 44.3608C412.487 46.965 412.93 49.7905 412.93 52.8374V53.7358C412.93 56.7827 412.487 59.6082 411.602 62.2124C410.716 64.8166 409.427 67.0952 407.734 69.0483C406.068 70.9754 404.049 72.4858 401.68 73.5796C399.336 74.6473 396.68 75.1812 393.711 75.1812C390.742 75.1812 388.073 74.6473 385.703 73.5796C383.333 72.4858 381.302 70.9754 379.609 69.0483C377.943 67.0952 376.667 64.8166 375.781 62.2124C374.896 59.6082 374.453 56.7827 374.453 53.7358ZM381.68 52.8374V53.7358C381.68 55.8452 381.927 57.8374 382.422 59.7124C382.917 61.5614 383.659 63.202 384.648 64.6343C385.664 66.0666 386.927 67.1994 388.438 68.0327C389.948 68.84 391.706 69.2437 393.711 69.2437C395.69 69.2437 397.422 68.84 398.906 68.0327C400.417 67.1994 401.667 66.0666 402.656 64.6343C403.646 63.202 404.388 61.5614 404.883 59.7124C405.404 57.8374 405.664 55.8452 405.664 53.7358V52.8374C405.664 50.7541 405.404 48.7879 404.883 46.939C404.388 45.064 403.633 43.4103 402.617 41.978C401.628 40.5197 400.378 39.3739 398.867 38.5405C397.383 37.7072 395.638 37.2905 393.633 37.2905C391.654 37.2905 389.909 37.7072 388.398 38.5405C386.914 39.3739 385.664 40.5197 384.648 41.978C383.659 43.4103 382.917 45.064 382.422 46.939C381.927 48.7879 381.68 50.7541 381.68 52.8374ZM438.906 69.2437C440.625 69.2437 442.214 68.8921 443.672 68.189C445.13 67.4858 446.328 66.5223 447.266 65.2983C448.203 64.0483 448.737 62.6291 448.867 61.0405H455.742C455.612 63.5405 454.766 65.8713 453.203 68.0327C451.667 70.1681 449.648 71.8999 447.148 73.228C444.648 74.5301 441.901 75.1812 438.906 75.1812C435.729 75.1812 432.956 74.6213 430.586 73.5015C428.242 72.3817 426.289 70.8452 424.727 68.8921C423.19 66.939 422.031 64.6994 421.25 62.1733C420.495 59.6213 420.117 56.9259 420.117 54.0874V52.4468C420.117 49.6082 420.495 46.9259 421.25 44.3999C422.031 41.8478 423.19 39.5952 424.727 37.6421C426.289 35.689 428.242 34.1525 430.586 33.0327C432.956 31.9129 435.729 31.353 438.906 31.353C442.214 31.353 445.104 32.0301 447.578 33.3843C450.052 34.7124 451.992 36.5353 453.398 38.853C454.831 41.1447 455.612 43.7489 455.742 46.6655H448.867C448.737 44.9207 448.242 43.3452 447.383 41.939C446.549 40.5327 445.404 39.4129 443.945 38.5796C442.513 37.7202 440.833 37.2905 438.906 37.2905C436.693 37.2905 434.831 37.7332 433.32 38.6187C431.836 39.478 430.651 40.6499 429.766 42.1343C428.906 43.5926 428.281 45.2202 427.891 47.0171C427.526 48.7879 427.344 50.5978 427.344 52.4468V54.0874C427.344 55.9364 427.526 57.7593 427.891 59.5562C428.255 61.353 428.867 62.9806 429.727 64.439C430.612 65.8973 431.797 67.0692 433.281 67.9546C434.792 68.814 436.667 69.2437 438.906 69.2437ZM488.789 67.1733V45.4155C488.789 43.7489 488.451 42.3035 487.773 41.0796C487.122 39.8296 486.133 38.866 484.805 38.189C483.477 37.5119 481.836 37.1733 479.883 37.1733C478.06 37.1733 476.458 37.4858 475.078 38.1108C473.724 38.7358 472.656 39.5562 471.875 40.5718C471.12 41.5874 470.742 42.6812 470.742 43.853H463.516C463.516 42.3426 463.906 40.8452 464.688 39.3608C465.469 37.8765 466.589 36.5353 468.047 35.3374C469.531 34.1134 471.302 33.1499 473.359 32.4468C475.443 31.7176 477.76 31.353 480.312 31.353C483.385 31.353 486.094 31.8739 488.438 32.9155C490.807 33.9572 492.656 35.5327 493.984 37.6421C495.339 39.7254 496.016 42.3426 496.016 45.4937V65.1812C496.016 66.5874 496.133 68.0848 496.367 69.6733C496.628 71.2619 497.005 72.6291 497.5 73.7749V74.3999H489.961C489.596 73.5666 489.31 72.4598 489.102 71.0796C488.893 69.6733 488.789 68.3713 488.789 67.1733ZM490.039 48.7749L490.117 53.853H482.812C480.755 53.853 478.919 54.0223 477.305 54.3608C475.69 54.6733 474.336 55.1551 473.242 55.8062C472.148 56.4572 471.315 57.2775 470.742 58.2671C470.169 59.2306 469.883 60.3634 469.883 61.6655C469.883 62.9937 470.182 64.2046 470.781 65.2983C471.38 66.3921 472.279 67.2645 473.477 67.9155C474.701 68.5405 476.198 68.853 477.969 68.853C480.182 68.853 482.135 68.3843 483.828 67.4468C485.521 66.5093 486.862 65.3634 487.852 64.0093C488.867 62.6551 489.414 61.34 489.492 60.064L492.578 63.5405C492.396 64.6343 491.901 65.8452 491.094 67.1733C490.286 68.5015 489.206 69.7775 487.852 71.0015C486.523 72.1994 484.935 73.202 483.086 74.0093C481.263 74.7905 479.206 75.1812 476.914 75.1812C474.049 75.1812 471.536 74.6213 469.375 73.5015C467.24 72.3817 465.573 70.8843 464.375 69.0093C463.203 67.1082 462.617 64.9858 462.617 62.6421C462.617 60.3765 463.06 58.3843 463.945 56.6655C464.831 54.9207 466.107 53.4754 467.773 52.3296C469.44 51.1577 471.445 50.2723 473.789 49.6733C476.133 49.0744 478.75 48.7749 481.641 48.7749H490.039ZM525.078 32.1343V37.6812H502.227V32.1343H525.078ZM509.961 21.8608H517.188V63.9312C517.188 65.3634 517.409 66.4442 517.852 67.1733C518.294 67.9025 518.867 68.3843 519.57 68.6187C520.273 68.853 521.029 68.9702 521.836 68.9702C522.435 68.9702 523.06 68.9181 523.711 68.814C524.388 68.6838 524.896 68.5796 525.234 68.5015L525.273 74.3999C524.701 74.5822 523.945 74.7515 523.008 74.9077C522.096 75.09 520.99 75.1812 519.688 75.1812C517.917 75.1812 516.289 74.8296 514.805 74.1265C513.32 73.4233 512.135 72.2515 511.25 70.6108C510.391 68.9442 509.961 66.7046 509.961 63.8921V21.8608ZM541.406 32.1343V74.3999H534.141V32.1343H541.406ZM533.594 20.9233C533.594 19.7515 533.945 18.7619 534.648 17.9546C535.378 17.1473 536.445 16.7437 537.852 16.7437C539.232 16.7437 540.286 17.1473 541.016 17.9546C541.771 18.7619 542.148 19.7515 542.148 20.9233C542.148 22.0431 541.771 23.0067 541.016 23.814C540.286 24.5952 539.232 24.9858 537.852 24.9858C536.445 24.9858 535.378 24.5952 534.648 23.814C533.945 23.0067 533.594 22.0431 533.594 20.9233ZM551.094 53.7358V52.8374C551.094 49.7905 551.536 46.965 552.422 44.3608C553.307 41.7306 554.583 39.452 556.25 37.5249C557.917 35.5718 559.935 34.0614 562.305 32.9937C564.674 31.8999 567.331 31.353 570.273 31.353C573.242 31.353 575.911 31.8999 578.281 32.9937C580.677 34.0614 582.708 35.5718 584.375 37.5249C586.068 39.452 587.357 41.7306 588.242 44.3608C589.128 46.965 589.57 49.7905 589.57 52.8374V53.7358C589.57 56.7827 589.128 59.6082 588.242 62.2124C587.357 64.8166 586.068 67.0952 584.375 69.0483C582.708 70.9754 580.69 72.4858 578.32 73.5796C575.977 74.6473 573.32 75.1812 570.352 75.1812C567.383 75.1812 564.714 74.6473 562.344 73.5796C559.974 72.4858 557.943 70.9754 556.25 69.0483C554.583 67.0952 553.307 64.8166 552.422 62.2124C551.536 59.6082 551.094 56.7827 551.094 53.7358ZM558.32 52.8374V53.7358C558.32 55.8452 558.568 57.8374 559.062 59.7124C559.557 61.5614 560.299 63.202 561.289 64.6343C562.305 66.0666 563.568 67.1994 565.078 68.0327C566.589 68.84 568.346 69.2437 570.352 69.2437C572.331 69.2437 574.062 68.84 575.547 68.0327C577.057 67.1994 578.307 66.0666 579.297 64.6343C580.286 63.202 581.029 61.5614 581.523 59.7124C582.044 57.8374 582.305 55.8452 582.305 53.7358V52.8374C582.305 50.7541 582.044 48.7879 581.523 46.939C581.029 45.064 580.273 43.4103 579.258 41.978C578.268 40.5197 577.018 39.3739 575.508 38.5405C574.023 37.7072 572.279 37.2905 570.273 37.2905C568.294 37.2905 566.549 37.7072 565.039 38.5405C563.555 39.3739 562.305 40.5197 561.289 41.978C560.299 43.4103 559.557 45.064 559.062 46.939C558.568 48.7879 558.32 50.7541 558.32 52.8374ZM605.859 41.1577V74.3999H598.633V32.1343H605.469L605.859 41.1577ZM604.141 51.6655L601.133 51.5483C601.159 48.6577 601.589 45.9884 602.422 43.5405C603.255 41.0666 604.427 38.9181 605.938 37.0952C607.448 35.2723 609.245 33.866 611.328 32.8765C613.438 31.8608 615.768 31.353 618.32 31.353C620.404 31.353 622.279 31.6395 623.945 32.2124C625.612 32.7593 627.031 33.6447 628.203 34.8687C629.401 36.0926 630.312 37.6812 630.938 39.6343C631.562 41.5614 631.875 43.9181 631.875 46.7046V74.3999H624.609V46.6265C624.609 44.4129 624.284 42.6421 623.633 41.314C622.982 39.9598 622.031 38.9832 620.781 38.3843C619.531 37.7593 617.995 37.4468 616.172 37.4468C614.375 37.4468 612.734 37.8244 611.25 38.5796C609.792 39.3348 608.529 40.3765 607.461 41.7046C606.419 43.0327 605.599 44.5562 605 46.2749C604.427 47.9676 604.141 49.7645 604.141 51.6655Z" fill="#344054"/>
</svg>
