<svg width="112" height="208" viewBox="0 0 112 208" fill="none" xmlns="http://www.w3.org/2000/svg">
<rect x="0.5" y="0.5" width="111" height="207" rx="4.5" stroke="#9747FF" stroke-dasharray="10 5"/>
<g filter="url(#filter0_d_22783_11725)">
<rect x="16" y="16" width="80" height="80" rx="8" fill="white"/>
</g>
<path d="M35 39.2735C35 37.5446 36.4015 36.1431 38.1304 36.1431H73.8696C75.5985 36.1431 77 37.5446 77 39.2735V73.7083C77 75.4372 75.5985 76.8387 73.8696 76.8387H38.1304C36.4015 76.8387 35 75.4372 35 73.7083V39.2735Z" fill="#E2EFFE"/>
<path d="M58.9654 50.8719C59.3988 50.8719 59.7531 50.5181 59.7531 50.0852V35.4907H65.0089L65.0092 50.0852C65.0092 50.5181 65.3635 50.8719 65.7968 50.8719L76.759 50.8685L76.7694 56.1216L52.4194 56.1216C51.6111 56.1216 51.6008 56.3552 52.0101 56.8843L63.8565 77.4907H57.2283L45.0103 56.3998C44.8658 56.2143 44.6939 56.1215 44.3396 56.1215H35.231V53.2631V50.8719H58.9654Z" fill="#43BC80"/>
<rect x="73.5" y="74.5" width="3" height="34" transform="rotate(90 73.5 74.5)" fill="#157DF5"/>
<rect x="73.5" y="34.5" width="3" height="34" transform="rotate(90 73.5 34.5)" fill="#157DF5"/>
<rect x="74.5" y="40" width="3" height="34" fill="#157DF5"/>
<rect x="34.5" y="40" width="3" height="34" fill="#157DF5"/>
<path d="M41 36C41 38.7614 38.7614 41 36 41C33.2386 41 31 38.7614 31 36C31 33.2386 33.2386 31 36 31C38.7614 31 41 33.2386 41 36Z" fill="#157DF5"/>
<path fill-rule="evenodd" clip-rule="evenodd" d="M44 36C44 40.4183 40.4183 44 36 44C31.5817 44 28 40.4183 28 36C28 31.5817 31.5817 28 36 28C40.4183 28 44 31.5817 44 36ZM36 41C38.7614 41 41 38.7614 41 36C41 33.2386 38.7614 31 36 31C33.2386 31 31 33.2386 31 36C31 38.7614 33.2386 41 36 41Z" fill="white"/>
<path d="M41 76C41 78.7614 38.7614 81 36 81C33.2386 81 31 78.7614 31 76C31 73.2386 33.2386 71 36 71C38.7614 71 41 73.2386 41 76Z" fill="#157DF5"/>
<path fill-rule="evenodd" clip-rule="evenodd" d="M44 76C44 80.4183 40.4183 84 36 84C31.5817 84 28 80.4183 28 76C28 71.5817 31.5817 68 36 68C40.4183 68 44 71.5817 44 76ZM36 81C38.7614 81 41 78.7614 41 76C41 73.2386 38.7614 71 36 71C33.2386 71 31 73.2386 31 76C31 78.7614 33.2386 81 36 81Z" fill="white"/>
<path d="M81 76C81 78.7614 78.7614 81 76 81C73.2386 81 71 78.7614 71 76C71 73.2386 73.2386 71 76 71C78.7614 71 81 73.2386 81 76Z" fill="#157DF5"/>
<path fill-rule="evenodd" clip-rule="evenodd" d="M84 76C84 80.4183 80.4183 84 76 84C71.5817 84 68 80.4183 68 76C68 71.5817 71.5817 68 76 68C80.4183 68 84 71.5817 84 76ZM76 81C78.7614 81 81 78.7614 81 76C81 73.2386 78.7614 71 76 71C73.2386 71 71 73.2386 71 76C71 78.7614 73.2386 81 76 81Z" fill="white"/>
<path d="M72.1678 31C67.1056 31 63.0018 35.2165 63.0018 40.4178C63.0018 40.4178 62.6593 48.2371 71.4295 52.8297C71.8608 53.0555 72.3709 53.0573 72.8024 52.8319C74.9491 51.7105 81.3338 47.7582 81.3338 40.4178C81.3338 35.2165 77.23 31 72.1678 31Z" fill="#F54B5E"/>
<path fill-rule="evenodd" clip-rule="evenodd" d="M72.8024 52.8319C72.3709 53.0573 71.8608 53.0555 71.4295 52.8297C62.6593 48.2371 63.0018 40.4178 63.0018 40.4178C63.0018 35.2165 67.1056 31 72.1678 31C77.23 31 81.3338 35.2165 81.3338 40.4178C81.3338 47.7582 74.9491 51.7105 72.8024 52.8319ZM60.0019 40.3709C60.0011 40.4033 60.0004 40.4423 60.0002 40.4879C59.9995 40.5854 60.0007 40.7128 60.006 40.8672C60.0168 41.1757 60.0446 41.5941 60.1105 42.0991C60.2419 43.1067 60.5268 44.4779 61.1411 46.0148C62.3887 49.1367 64.9535 52.8249 70.0377 55.4873L70.0379 55.4874C71.3335 56.1658 72.8823 56.1747 74.1913 55.491L74.1914 55.491C75.4311 54.8434 77.8997 53.3815 80.0904 50.9778C82.3074 48.5453 84.3338 45.0332 84.3338 40.4178C84.3338 33.6368 78.963 28 72.1678 28C65.3883 28 60.0266 33.6108 60.0019 40.3709Z" fill="white"/>
<path d="M72.1671 31H72.1682C77.2304 31 81.3342 35.2165 81.3342 40.4178C81.3342 47.7582 74.9495 51.7105 72.8028 52.8319C72.6026 52.9365 72.3854 52.9921 72.1671 52.9992V31Z" fill="#F3263D"/>
<ellipse cx="72.1667" cy="40.1667" rx="3.66668" ry="3.66667" fill="#F0F7FE"/>
<path d="M72.1667 43.8333V36.5C70.1416 36.5 68.5 38.1416 68.5 40.1667C68.5 42.1917 70.1416 43.8333 72.1667 43.8333Z" fill="white"/>
<path d="M35 135.274C35 133.545 36.4015 132.143 38.1304 132.143H73.8696C75.5985 132.143 77 133.545 77 135.274V169.708C77 171.437 75.5985 172.839 73.8696 172.839H38.1304C36.4015 172.839 35 171.437 35 169.708V135.274Z" fill="#E2EFFE"/>
<path d="M58.9654 146.872C59.3988 146.872 59.7531 146.518 59.7531 146.085V131.491H65.0089L65.0092 146.085C65.0092 146.518 65.3635 146.872 65.7968 146.872L76.759 146.868L76.7694 152.122L52.4194 152.122C51.6111 152.122 51.6008 152.355 52.0101 152.884L63.8565 173.491H57.2283L45.0103 152.4C44.8658 152.214 44.6939 152.121 44.3396 152.121H35.231V149.263V146.872H58.9654Z" fill="#43BC80"/>
<rect x="73.5" y="170.5" width="3" height="34" transform="rotate(90 73.5 170.5)" fill="#157DF5"/>
<rect x="73.5" y="130.5" width="3" height="34" transform="rotate(90 73.5 130.5)" fill="#157DF5"/>
<rect x="74.5" y="136" width="3" height="34" fill="#157DF5"/>
<rect x="34.5" y="136" width="3" height="34" fill="#157DF5"/>
<path d="M41 132C41 134.761 38.7614 137 36 137C33.2386 137 31 134.761 31 132C31 129.239 33.2386 127 36 127C38.7614 127 41 129.239 41 132Z" fill="#157DF5"/>
<path fill-rule="evenodd" clip-rule="evenodd" d="M44 132C44 136.418 40.4183 140 36 140C31.5817 140 28 136.418 28 132C28 127.582 31.5817 124 36 124C40.4183 124 44 127.582 44 132ZM36 137C38.7614 137 41 134.761 41 132C41 129.239 38.7614 127 36 127C33.2386 127 31 129.239 31 132C31 134.761 33.2386 137 36 137Z" fill="white"/>
<path d="M41 172C41 174.761 38.7614 177 36 177C33.2386 177 31 174.761 31 172C31 169.239 33.2386 167 36 167C38.7614 167 41 169.239 41 172Z" fill="#157DF5"/>
<path fill-rule="evenodd" clip-rule="evenodd" d="M44 172C44 176.418 40.4183 180 36 180C31.5817 180 28 176.418 28 172C28 167.582 31.5817 164 36 164C40.4183 164 44 167.582 44 172ZM36 177C38.7614 177 41 174.761 41 172C41 169.239 38.7614 167 36 167C33.2386 167 31 169.239 31 172C31 174.761 33.2386 177 36 177Z" fill="white"/>
<path d="M81 172C81 174.761 78.7614 177 76 177C73.2386 177 71 174.761 71 172C71 169.239 73.2386 167 76 167C78.7614 167 81 169.239 81 172Z" fill="#157DF5"/>
<path fill-rule="evenodd" clip-rule="evenodd" d="M84 172C84 176.418 80.4183 180 76 180C71.5817 180 68 176.418 68 172C68 167.582 71.5817 164 76 164C80.4183 164 84 167.582 84 172ZM76 177C78.7614 177 81 174.761 81 172C81 169.239 78.7614 167 76 167C73.2386 167 71 169.239 71 172C71 174.761 73.2386 177 76 177Z" fill="white"/>
<path d="M72.1678 127C67.1056 127 63.0018 131.216 63.0018 136.418C63.0018 136.418 62.6593 144.237 71.4295 148.83C71.8608 149.056 72.3709 149.057 72.8024 148.832C74.9491 147.711 81.3338 143.758 81.3338 136.418C81.3338 131.216 77.23 127 72.1678 127Z" fill="#F54B5E"/>
<path fill-rule="evenodd" clip-rule="evenodd" d="M72.8024 148.832C72.3709 149.057 71.8608 149.056 71.4295 148.83C62.6593 144.237 63.0018 136.418 63.0018 136.418C63.0018 131.216 67.1056 127 72.1678 127C77.23 127 81.3338 131.216 81.3338 136.418C81.3338 143.758 74.9491 147.711 72.8024 148.832ZM60.0019 136.371C60.0011 136.403 60.0004 136.442 60.0002 136.488C59.9995 136.585 60.0007 136.713 60.006 136.867C60.0168 137.176 60.0446 137.594 60.1105 138.099C60.2419 139.107 60.5268 140.478 61.1411 142.015C62.3887 145.137 64.9535 148.825 70.0377 151.487L70.0379 151.487C71.3335 152.166 72.8823 152.175 74.1913 151.491L74.1914 151.491C75.4311 150.843 77.8997 149.381 80.0904 146.978C82.3074 144.545 84.3338 141.033 84.3338 136.418C84.3338 129.637 78.963 124 72.1678 124C65.3883 124 60.0266 129.611 60.0019 136.371Z" fill="white"/>
<path d="M72.1671 127H72.1682C77.2304 127 81.3342 131.216 81.3342 136.418C81.3342 143.758 74.9495 147.711 72.8028 148.832C72.6026 148.936 72.3854 148.992 72.1671 148.999V127Z" fill="#F3263D"/>
<ellipse cx="72.1667" cy="136.167" rx="3.66668" ry="3.66667" fill="#F0F7FE"/>
<path d="M72.1667 139.833V132.5C70.1416 132.5 68.5 134.142 68.5 136.167C68.5 138.192 70.1416 139.833 72.1667 139.833Z" fill="white"/>
<defs>
<filter id="filter0_d_22783_11725" x="10" y="9" width="96" height="96" filterUnits="userSpaceOnUse" color-interpolation-filters="sRGB">
<feFlood flood-opacity="0" result="BackgroundImageFix"/>
<feColorMatrix in="SourceAlpha" type="matrix" values="0 0 0 0 0 0 0 0 0 0 0 0 0 0 0 0 0 0 127 0" result="hardAlpha"/>
<feOffset dx="2" dy="1"/>
<feGaussianBlur stdDeviation="4"/>
<feColorMatrix type="matrix" values="0 0 0 0 0.0392157 0 0 0 0 0.0392157 0 0 0 0 0.0627451 0 0 0 0.08 0"/>
<feBlend mode="normal" in2="BackgroundImageFix" result="effect1_dropShadow_22783_11725"/>
<feBlend mode="normal" in="SourceGraphic" in2="effect1_dropShadow_22783_11725" result="shape"/>
</filter>
</defs>
</svg>
