<svg width="112" height="208" viewBox="0 0 112 208" fill="none" xmlns="http://www.w3.org/2000/svg">
<rect x="0.5" y="0.5" width="111" height="207" rx="4.5" stroke="#9747FF" stroke-dasharray="10 5"/>
<g filter="url(#filter0_d_36670_73992)">
<rect x="16" y="16" width="80" height="80" rx="8" fill="white"/>
</g>
<path d="M78.5 48.4297V76.8613C78.5 77.8411 77.7303 78.6113 76.75 78.6113H50.5L47 73.3613H40L36.5 78.6113H31.25C30.2697 78.6113 29.5 77.8411 29.5 76.8613V48.4297C29.5 47.4845 30.2697 46.6797 31.25 46.6797H76.75C77.7303 46.6797 78.5 47.4845 78.5 48.4297Z" fill="#E2EFFE"/>
<path d="M78.5 48.4297V76.8613C78.5 77.8411 77.7303 78.6113 76.75 78.6113H54V46.6797H76.75C77.7303 46.6797 78.5 47.4845 78.5 48.4297Z" fill="#B6D7FC"/>
<path d="M43.5 26L43.5633 33.8549L37.375 40L31.6875 43.5L26 40L35.22 27.7067C36.0258 26.6323 37.2904 26 38.6333 26H43.5Z" fill="#157DF5"/>
<path d="M82 40L76.3125 43.5L70.625 40L64.0625 33L64.5 26H69.3667C70.7096 26 71.9742 26.6323 72.78 27.7067L82 40Z" fill="#0965CD"/>
<path d="M70.625 40L64.9375 43.5L59.25 40L54.875 33L57.5 26H64.5L70.625 40Z" fill="#25BB71"/>
<path d="M53.125 33L48.75 40L43.5 43.5L37.375 40L43.5 26H50.5L53.125 33Z" fill="#40D98D"/>
<path d="M59.25 40L54 43.5L48.75 40L50.5 26H57.5L59.25 40Z" fill="#157DF5"/>
<path d="M59.25 40L54 43.5V26H57.5L59.25 40Z" fill="#0965CD"/>
<path d="M48.75 57.5H38.25C37.2829 57.5 36.5 58.2829 36.5 59.25V78.6167H50.5V59.25C50.5 58.2829 49.7171 57.5 48.75 57.5Z" fill="#282A52"/>
<path d="M73.25 68.1167H59.25C58.2829 68.1167 57.5 67.3337 57.5 66.3667V59.25C57.5 58.2829 58.2829 57.5 59.25 57.5H73.25C74.2171 57.5 75 58.2829 75 59.25V66.3667C75 67.3337 74.2171 68.1167 73.25 68.1167Z" fill="#F0F7FE"/>
<path d="M26 40H37.375V48.3125C37.375 51.4538 34.8288 54 31.6875 54C28.5462 54 26 51.4538 26 48.3125V40Z" fill="#157DF5"/>
<path d="M37.375 40H48.75V48.3125C48.75 51.4538 46.2038 54 43.0625 54C39.9212 54 37.375 51.4538 37.375 48.3125V40Z" fill="#40D98D"/>
<path d="M59.25 40H70.625V48.3125C70.625 51.4538 68.0788 54 64.9375 54C61.7962 54 59.25 51.4538 59.25 48.3125V40Z" fill="#25BB71"/>
<path d="M70.625 40H82V48.3125C82 51.4538 79.4538 54 76.3125 54C73.1712 54 70.625 51.4538 70.625 48.3125V40Z" fill="#0965CD"/>
<path d="M59.25 40V48.75C59.25 51.6548 56.9053 54 54 54C51.0947 54 48.75 51.6548 48.75 48.75V40H59.25Z" fill="#157DF5"/>
<path d="M59.25 40V48.75C59.25 51.6548 56.9053 54 54 54V40H59.25Z" fill="#0965CD"/>
<path fill-rule="evenodd" clip-rule="evenodd" d="M60.8683 60.8683H60.8683C61.9361 59.8004 63.2039 58.9533 64.5991 58.3754C65.9944 57.7975 67.4898 57.5 69 57.5C70.5102 57.5 72.0056 57.7975 73.4009 58.3754C74.7961 58.9533 76.0639 59.8004 77.1317 60.8683C78.1996 61.9361 79.0467 63.2039 79.6246 64.5991C80.2025 65.9944 80.5 67.4898 80.5 69C80.5 70.4743 80.2165 71.9346 79.6653 73.3013L83.182 76.818L81.0607 78.9393L75.9767 73.8554C76.3247 73.3554 76.6187 72.8183 76.853 72.2528C77.2801 71.2215 77.5 70.1162 77.5 69C77.5 68.0233 77.3317 67.055 77.0034 66.1373C76.9565 66.0062 76.9064 65.8761 76.853 65.7472C76.4792 64.8448 75.9531 64.0146 75.2987 63.2924C75.2052 63.1892 75.1091 63.0883 75.0104 62.9896C74.2704 62.2496 73.4006 61.6531 72.4451 61.2294C72.3813 61.2012 72.3173 61.1737 72.2528 61.147C71.2215 60.7199 70.1162 60.5 69 60.5C67.8838 60.5 66.7785 60.7199 65.7472 61.147C64.7159 61.5742 63.7789 62.2003 62.9896 62.9896C62.2496 63.7296 61.6531 64.5994 61.2294 65.5549C61.2012 65.6187 61.1737 65.6827 61.147 65.7472C60.7199 66.7785 60.5 67.8838 60.5 69C60.5 69.9767 60.6683 70.945 60.9966 71.8627C61.0435 71.9938 61.0936 72.1239 61.147 72.2528C61.5742 73.2841 62.2003 74.2211 62.9896 75.0104C63.7789 75.7997 64.7159 76.4258 65.7472 76.853C66.7785 77.2801 67.8838 77.5 69 77.5C69.9767 77.5 70.945 77.3317 71.8627 77.0034C71.9938 76.9565 72.1239 76.9064 72.2528 76.853C72.7684 76.6394 73.2605 76.3761 73.7223 76.0675C73.767 76.0377 73.8113 76.0074 73.8554 75.9767L78.9393 81.0607L76.818 83.182L73.3013 79.6653C71.9346 80.2165 70.4743 80.5 69 80.5C67.4898 80.5 65.9944 80.2025 64.5991 79.6246C63.2039 79.0467 61.9361 78.1996 60.8683 77.1317C59.8004 76.0639 58.9533 74.7961 58.3754 73.4009C57.7975 72.0056 57.5 70.5102 57.5 69C57.5 67.4898 57.7975 65.9944 58.3754 64.5991C58.9533 63.2039 59.8004 61.9361 60.8683 60.8683ZM73.5144 72.1417C73.7395 71.8182 73.9298 71.4707 74.0813 71.1048C74.3577 70.4375 74.5 69.7223 74.5 69C74.5 68.2777 74.3577 67.5625 74.0813 66.8952C73.8049 66.228 73.3998 65.6216 72.8891 65.1109C72.8252 65.0471 72.7599 64.9849 72.6932 64.9244C72.2258 64.5009 71.6886 64.1605 71.1048 63.9187C70.4375 63.6423 69.7223 63.5 69 63.5C68.2777 63.5 67.5625 63.6423 66.8952 63.9187C66.228 64.1951 65.6216 64.6002 65.1109 65.1109C65.0471 65.1748 64.9849 65.2401 64.9244 65.3068C64.5009 65.7742 64.1605 66.3114 63.9187 66.8952C63.6423 67.5625 63.5 68.2777 63.5 69C63.5 69.7223 63.6423 70.4375 63.9187 71.1048C64.1951 71.772 64.6002 72.3784 65.1109 72.8891C65.6216 73.3998 66.228 73.8049 66.8952 74.0813C67.5625 74.3577 68.2777 74.5 69 74.5C69.7223 74.5 70.4375 74.3577 71.1048 74.0813C71.4707 73.9298 71.8182 73.7395 72.1417 73.5144C72.4082 73.3289 72.6584 73.1198 72.8891 72.8891C73.1198 72.6584 73.3289 72.4082 73.5144 72.1417ZM72.8891 65.1109L70.7678 67.2322C70.9999 67.4644 71.1841 67.74 71.3097 68.0433C71.4353 68.3466 71.5 68.6717 71.5 69C71.5 69.3283 71.4353 69.6534 71.3097 69.9567C71.1841 70.26 70.9999 70.5356 70.7678 70.7678C70.5356 70.9999 70.26 71.1841 69.9567 71.3097C69.6534 71.4353 69.3283 71.5 69 71.5C68.6717 71.5 68.3466 71.4353 68.0433 71.3097C67.74 71.1841 67.4644 70.9999 67.2322 70.7678C67.0001 70.5356 66.8159 70.26 66.6903 69.9567C66.5647 69.6534 66.5 69.3283 66.5 69C66.5 68.6717 66.5647 68.3466 66.6903 68.0433C66.8159 67.74 67.0001 67.4644 67.2322 67.2322C67.4644 67.0001 67.74 66.8159 68.0433 66.6903C68.3466 66.5647 68.6717 66.5 69 66.5C69.3283 66.5 69.6534 66.5647 69.9567 66.6903C70.26 66.8159 70.5356 67.0001 70.7678 67.2322L72.8891 65.1109ZM78.9393 81.0607L76.818 83.182C78.5754 84.9393 81.4246 84.9393 83.182 83.182L83.182 83.182C84.9393 81.4246 84.9393 78.5754 83.182 76.818L81.0607 78.9393C81.6464 79.5251 81.6464 80.4749 81.0607 81.0607C80.4749 81.6464 79.5251 81.6464 78.9393 81.0607Z" fill="white"/>
<path d="M62 69C62 69.9193 62.1811 70.8295 62.5328 71.6788C62.8846 72.5281 63.4002 73.2997 64.0503 73.9497C64.7003 74.5998 65.4719 75.1154 66.3212 75.4672C67.1705 75.8189 68.0807 76 69 76C69.9193 76 70.8295 75.8189 71.6788 75.4672C72.5281 75.1154 73.2997 74.5998 73.9497 73.9497C74.5998 73.2997 75.1154 72.5281 75.4672 71.6788C75.8189 70.8295 76 69.9193 76 69C76 68.0807 75.8189 67.1705 75.4672 66.3212C75.1154 65.4719 74.5998 64.7003 73.9497 64.0503C73.2997 63.4002 72.5281 62.8846 71.6788 62.5328C70.8295 62.1811 69.9193 62 69 62C68.0807 62 67.1705 62.1811 66.3212 62.5328C65.4719 62.8846 64.7003 63.4002 64.0503 64.0503C63.4002 64.7003 62.8846 65.4719 62.5328 66.3212C62.1811 67.1705 62 68.0807 62 69Z" fill="#E2EFFE"/>
<path fill-rule="evenodd" clip-rule="evenodd" d="M69 60.5C67.8838 60.5 66.7785 60.7199 65.7472 61.147C64.7159 61.5742 63.7789 62.2003 62.9896 62.9896C62.2003 63.7789 61.5742 64.7159 61.147 65.7472C60.7199 66.7785 60.5 67.8838 60.5 69C60.5 70.1162 60.7199 71.2215 61.147 72.2528C61.5742 73.2841 62.2003 74.2211 62.9896 75.0104C63.7789 75.7997 64.7159 76.4258 65.7472 76.853C66.7785 77.2801 67.8838 77.5 69 77.5C70.1162 77.5 71.2215 77.2801 72.2528 76.853C72.8183 76.6187 73.3554 76.3247 73.8554 75.9767L78.9393 81.0607C79.5251 81.6464 80.4749 81.6464 81.0607 81.0607C81.6464 80.4749 81.6464 79.5251 81.0607 78.9393L75.9767 73.8554C76.3247 73.3554 76.6187 72.8183 76.853 72.2528C77.2801 71.2215 77.5 70.1162 77.5 69C77.5 67.8838 77.2801 66.7785 76.853 65.7472C76.4258 64.7159 75.7997 63.7789 75.0104 62.9896C74.2211 62.2003 73.2841 61.5742 72.2528 61.147C71.2215 60.7199 70.1162 60.5 69 60.5ZM66.8952 63.9187C67.5625 63.6423 68.2777 63.5 69 63.5C69.7223 63.5 70.4375 63.6423 71.1048 63.9187C71.772 64.1951 72.3784 64.6002 72.8891 65.1109C73.3998 65.6216 73.8049 66.228 74.0813 66.8952C74.3577 67.5625 74.5 68.2777 74.5 69C74.5 69.7223 74.3577 70.4375 74.0813 71.1048C73.8049 71.772 73.3998 72.3784 72.8891 72.8891C72.3784 73.3998 71.772 73.8049 71.1048 74.0813C70.4375 74.3577 69.7223 74.5 69 74.5C68.2777 74.5 67.5625 74.3577 66.8952 74.0813C66.228 73.8049 65.6216 73.3998 65.1109 72.8891C64.6002 72.3784 64.1951 71.772 63.9187 71.1048C63.6423 70.4375 63.5 69.7223 63.5 69C63.5 68.2777 63.6423 67.5625 63.9187 66.8952C64.1951 66.228 64.6002 65.6216 65.1109 65.1109C65.6216 64.6002 66.228 64.1951 66.8952 63.9187Z" fill="#0965CD"/>
<path fill-rule="evenodd" clip-rule="evenodd" d="M69 60.5C67.8838 60.5 66.7785 60.7199 65.7472 61.147C64.7159 61.5742 63.7789 62.2003 62.9896 62.9896C62.2003 63.7789 61.5742 64.7159 61.147 65.7472C60.7199 66.7785 60.5 67.8838 60.5 69C60.5 70.1162 60.7199 71.2215 61.147 72.2528C61.5742 73.2841 62.2003 74.2211 62.9896 75.0104C63.7789 75.7997 64.7159 76.4258 65.7472 76.853C66.7785 77.2801 67.8838 77.5 69 77.5C70.1162 77.5 71.2215 77.2801 72.2528 76.853C72.8183 76.6187 73.3554 76.3247 73.8554 75.9767L78.9393 81.0607C79.5251 81.6464 80.4749 81.6464 81.0607 81.0607C81.6464 80.4749 81.6464 79.5251 81.0607 78.9393L75.9767 73.8554C76.3247 73.3554 76.6187 72.8183 76.853 72.2528C77.2801 71.2215 77.5 70.1162 77.5 69C77.5 67.8838 77.2801 66.7785 76.853 65.7472C76.4258 64.7159 75.7997 63.7789 75.0104 62.9896C74.2211 62.2003 73.2841 61.5742 72.2528 61.147C71.2215 60.7199 70.1162 60.5 69 60.5ZM66.8952 63.9187C67.5625 63.6423 68.2777 63.5 69 63.5C69.7223 63.5 70.4375 63.6423 71.1048 63.9187C71.772 64.1951 72.3784 64.6002 72.8891 65.1109C73.3998 65.6216 73.8049 66.228 74.0813 66.8952C74.3577 67.5625 74.5 68.2777 74.5 69C74.5 69.7223 74.3577 70.4375 74.0813 71.1048C73.8049 71.772 73.3998 72.3784 72.8891 72.8891C72.3784 73.3998 71.772 73.8049 71.1048 74.0813C70.4375 74.3577 69.7223 74.5 69 74.5C68.2777 74.5 67.5625 74.3577 66.8952 74.0813C66.228 73.8049 65.6216 73.3998 65.1109 72.8891C64.6002 72.3784 64.1951 71.772 63.9187 71.1048C63.6423 70.4375 63.5 69.7223 63.5 69C63.5 68.2777 63.6423 67.5625 63.9187 66.8952C64.1951 66.228 64.6002 65.6216 65.1109 65.1109C65.6216 64.6002 66.228 64.1951 66.8952 63.9187Z" fill="#0965CD"/>
<path d="M69 62C68.0807 62 67.1705 62.1811 66.3212 62.5328C65.4719 62.8846 64.7003 63.4002 64.0503 64.0503C63.4002 64.7003 62.8846 65.4719 62.5328 66.3212C62.1811 67.1705 62 68.0807 62 69C62 69.9193 62.1811 70.8295 62.5328 71.6788C62.8846 72.5281 63.4002 73.2997 64.0503 73.9497C64.7003 74.5998 65.4719 75.1154 66.3212 75.4672C67.1705 75.8189 68.0807 76 69 76V62Z" fill="#F0F7FE"/>
<path d="M69 60.5C67.8838 60.5 66.7785 60.7199 65.7472 61.147C64.7159 61.5742 63.7789 62.2003 62.9896 62.9896C62.2003 63.7789 61.5742 64.7159 61.147 65.7472C60.7199 66.7785 60.5 67.8838 60.5 69C60.5 70.1162 60.7199 71.2215 61.147 72.2528C61.5742 73.2841 62.2003 74.2211 62.9896 75.0104C63.7789 75.7997 64.7159 76.4258 65.7472 76.853C66.7785 77.2801 67.8838 77.5 69 77.5V74.5C68.2777 74.5 67.5625 74.3577 66.8952 74.0813C66.228 73.8049 65.6216 73.3998 65.1109 72.8891C64.6002 72.3784 64.1951 71.772 63.9187 71.1048C63.6423 70.4375 63.5 69.7223 63.5 69C63.5 68.2777 63.6423 67.5625 63.9187 66.8952C64.1951 66.228 64.6002 65.6216 65.1109 65.1109C65.6216 64.6002 66.228 64.1951 66.8952 63.9187C67.5625 63.6423 68.2777 63.5 69 63.5V60.5Z" fill="#157DF5"/>
<path d="M78.5 144.43V172.861C78.5 173.841 77.7303 174.611 76.75 174.611H50.5L47 169.361H40L36.5 174.611H31.25C30.2697 174.611 29.5 173.841 29.5 172.861V144.43C29.5 143.485 30.2697 142.68 31.25 142.68H76.75C77.7303 142.68 78.5 143.485 78.5 144.43Z" fill="#E2EFFE"/>
<path d="M78.5 144.43V172.861C78.5 173.841 77.7303 174.611 76.75 174.611H54V142.68H76.75C77.7303 142.68 78.5 143.485 78.5 144.43Z" fill="#B6D7FC"/>
<path d="M43.5 122L43.5633 129.855L37.375 136L31.6875 139.5L26 136L35.22 123.707C36.0258 122.632 37.2904 122 38.6333 122H43.5Z" fill="#157DF5"/>
<path d="M82 136L76.3125 139.5L70.625 136L64.0625 129L64.5 122H69.3667C70.7096 122 71.9742 122.632 72.78 123.707L82 136Z" fill="#0965CD"/>
<path d="M70.625 136L64.9375 139.5L59.25 136L54.875 129L57.5 122H64.5L70.625 136Z" fill="#25BB71"/>
<path d="M53.125 129L48.75 136L43.5 139.5L37.375 136L43.5 122H50.5L53.125 129Z" fill="#40D98D"/>
<path d="M59.25 136L54 139.5L48.75 136L50.5 122H57.5L59.25 136Z" fill="#157DF5"/>
<path d="M59.25 136L54 139.5V122H57.5L59.25 136Z" fill="#0965CD"/>
<path d="M48.75 153.5H38.25C37.2829 153.5 36.5 154.283 36.5 155.25V174.617H50.5V155.25C50.5 154.283 49.7171 153.5 48.75 153.5Z" fill="#282A52"/>
<path d="M73.25 164.117H59.25C58.2829 164.117 57.5 163.334 57.5 162.367V155.25C57.5 154.283 58.2829 153.5 59.25 153.5H73.25C74.2171 153.5 75 154.283 75 155.25V162.367C75 163.334 74.2171 164.117 73.25 164.117Z" fill="#F0F7FE"/>
<path d="M26 136H37.375V144.312C37.375 147.454 34.8288 150 31.6875 150C28.5462 150 26 147.454 26 144.312V136Z" fill="#157DF5"/>
<path d="M37.375 136H48.75V144.312C48.75 147.454 46.2038 150 43.0625 150C39.9212 150 37.375 147.454 37.375 144.312V136Z" fill="#40D98D"/>
<path d="M59.25 136H70.625V144.312C70.625 147.454 68.0788 150 64.9375 150C61.7962 150 59.25 147.454 59.25 144.312V136Z" fill="#25BB71"/>
<path d="M70.625 136H82V144.312C82 147.454 79.4538 150 76.3125 150C73.1712 150 70.625 147.454 70.625 144.312V136Z" fill="#0965CD"/>
<path d="M59.25 136V144.75C59.25 147.655 56.9053 150 54 150C51.0947 150 48.75 147.655 48.75 144.75V136H59.25Z" fill="#157DF5"/>
<path d="M59.25 136V144.75C59.25 147.655 56.9053 150 54 150V136H59.25Z" fill="#0965CD"/>
<path fill-rule="evenodd" clip-rule="evenodd" d="M60.8683 156.868H60.8683C61.9361 155.8 63.2039 154.953 64.5991 154.375C65.9944 153.797 67.4898 153.5 69 153.5C70.5102 153.5 72.0056 153.797 73.4009 154.375C74.7961 154.953 76.0639 155.8 77.1317 156.868C78.1996 157.936 79.0467 159.204 79.6246 160.599C80.2025 161.994 80.5 163.49 80.5 165C80.5 166.474 80.2165 167.935 79.6653 169.301L83.182 172.818L81.0607 174.939L75.9767 169.855C76.3247 169.355 76.6187 168.818 76.853 168.253C77.2801 167.222 77.5 166.116 77.5 165C77.5 164.023 77.3317 163.055 77.0034 162.137C76.9565 162.006 76.9064 161.876 76.853 161.747C76.4792 160.845 75.9531 160.015 75.2987 159.292C75.2052 159.189 75.1091 159.088 75.0104 158.99C74.2704 158.25 73.4006 157.653 72.4451 157.229C72.3813 157.201 72.3173 157.174 72.2528 157.147C71.2215 156.72 70.1162 156.5 69 156.5C67.8838 156.5 66.7785 156.72 65.7472 157.147C64.7159 157.574 63.7789 158.2 62.9896 158.99C62.2496 159.73 61.6531 160.599 61.2294 161.555C61.2012 161.619 61.1737 161.683 61.147 161.747C60.7199 162.778 60.5 163.884 60.5 165C60.5 165.977 60.6683 166.945 60.9966 167.863C61.0435 167.994 61.0936 168.124 61.147 168.253C61.5742 169.284 62.2003 170.221 62.9896 171.01C63.7789 171.8 64.7159 172.426 65.7472 172.853C66.7785 173.28 67.8838 173.5 69 173.5C69.9767 173.5 70.945 173.332 71.8627 173.003C71.9938 172.957 72.1239 172.906 72.2528 172.853C72.7684 172.639 73.2605 172.376 73.7223 172.067C73.767 172.038 73.8113 172.007 73.8554 171.977L78.9393 177.061L76.818 179.182L73.3013 175.665C71.9346 176.217 70.4743 176.5 69 176.5C67.4898 176.5 65.9944 176.203 64.5991 175.625C63.2039 175.047 61.9361 174.2 60.8683 173.132C59.8004 172.064 58.9533 170.796 58.3754 169.401C57.7975 168.006 57.5 166.51 57.5 165C57.5 163.49 57.7975 161.994 58.3754 160.599C58.9533 159.204 59.8004 157.936 60.8683 156.868ZM73.5144 168.142C73.7395 167.818 73.9298 167.471 74.0813 167.105C74.3577 166.437 74.5 165.722 74.5 165C74.5 164.278 74.3577 163.563 74.0813 162.895C73.8049 162.228 73.3998 161.622 72.8891 161.111C72.8252 161.047 72.7599 160.985 72.6932 160.924C72.2258 160.501 71.6886 160.161 71.1048 159.919C70.4375 159.642 69.7223 159.5 69 159.5C68.2777 159.5 67.5625 159.642 66.8952 159.919C66.228 160.195 65.6216 160.6 65.1109 161.111C65.0471 161.175 64.9849 161.24 64.9244 161.307C64.5009 161.774 64.1605 162.311 63.9187 162.895C63.6423 163.563 63.5 164.278 63.5 165C63.5 165.722 63.6423 166.437 63.9187 167.105C64.1951 167.772 64.6002 168.378 65.1109 168.889C65.6216 169.4 66.228 169.805 66.8952 170.081C67.5625 170.358 68.2777 170.5 69 170.5C69.7223 170.5 70.4375 170.358 71.1048 170.081C71.4707 169.93 71.8182 169.74 72.1417 169.514C72.4082 169.329 72.6584 169.12 72.8891 168.889C73.1198 168.658 73.3289 168.408 73.5144 168.142ZM72.8891 161.111L70.7678 163.232C70.9999 163.464 71.1841 163.74 71.3097 164.043C71.4353 164.347 71.5 164.672 71.5 165C71.5 165.328 71.4353 165.653 71.3097 165.957C71.1841 166.26 70.9999 166.536 70.7678 166.768C70.5356 167 70.26 167.184 69.9567 167.31C69.6534 167.435 69.3283 167.5 69 167.5C68.6717 167.5 68.3466 167.435 68.0433 167.31C67.74 167.184 67.4644 167 67.2322 166.768C67.0001 166.536 66.8159 166.26 66.6903 165.957C66.5647 165.653 66.5 165.328 66.5 165C66.5 164.672 66.5647 164.347 66.6903 164.043C66.8159 163.74 67.0001 163.464 67.2322 163.232C67.4644 163 67.74 162.816 68.0433 162.69C68.3466 162.565 68.6717 162.5 69 162.5C69.3283 162.5 69.6534 162.565 69.9567 162.69C70.26 162.816 70.5356 163 70.7678 163.232L72.8891 161.111ZM78.9393 177.061L76.818 179.182C78.5754 180.939 81.4246 180.939 83.182 179.182L83.182 179.182C84.9393 177.425 84.9393 174.575 83.182 172.818L81.0607 174.939C81.6464 175.525 81.6464 176.475 81.0607 177.061C80.4749 177.646 79.5251 177.646 78.9393 177.061Z" fill="white"/>
<path d="M62 165C62 165.919 62.1811 166.83 62.5328 167.679C62.8846 168.528 63.4002 169.3 64.0503 169.95C64.7003 170.6 65.4719 171.115 66.3212 171.467C67.1705 171.819 68.0807 172 69 172C69.9193 172 70.8295 171.819 71.6788 171.467C72.5281 171.115 73.2997 170.6 73.9497 169.95C74.5998 169.3 75.1154 168.528 75.4672 167.679C75.8189 166.83 76 165.919 76 165C76 164.081 75.8189 163.17 75.4672 162.321C75.1154 161.472 74.5998 160.7 73.9497 160.05C73.2997 159.4 72.5281 158.885 71.6788 158.533C70.8295 158.181 69.9193 158 69 158C68.0807 158 67.1705 158.181 66.3212 158.533C65.4719 158.885 64.7003 159.4 64.0503 160.05C63.4002 160.7 62.8846 161.472 62.5328 162.321C62.1811 163.17 62 164.081 62 165Z" fill="#E2EFFE"/>
<path fill-rule="evenodd" clip-rule="evenodd" d="M69 156.5C67.8838 156.5 66.7785 156.72 65.7472 157.147C64.7159 157.574 63.7789 158.2 62.9896 158.99C62.2003 159.779 61.5742 160.716 61.147 161.747C60.7199 162.778 60.5 163.884 60.5 165C60.5 166.116 60.7199 167.222 61.147 168.253C61.5742 169.284 62.2003 170.221 62.9896 171.01C63.7789 171.8 64.7159 172.426 65.7472 172.853C66.7785 173.28 67.8838 173.5 69 173.5C70.1162 173.5 71.2215 173.28 72.2528 172.853C72.8183 172.619 73.3554 172.325 73.8554 171.977L78.9393 177.061C79.5251 177.646 80.4749 177.646 81.0607 177.061C81.6464 176.475 81.6464 175.525 81.0607 174.939L75.9767 169.855C76.3247 169.355 76.6187 168.818 76.853 168.253C77.2801 167.222 77.5 166.116 77.5 165C77.5 163.884 77.2801 162.778 76.853 161.747C76.4258 160.716 75.7997 159.779 75.0104 158.99C74.2211 158.2 73.2841 157.574 72.2528 157.147C71.2215 156.72 70.1162 156.5 69 156.5ZM66.8952 159.919C67.5625 159.642 68.2777 159.5 69 159.5C69.7223 159.5 70.4375 159.642 71.1048 159.919C71.772 160.195 72.3784 160.6 72.8891 161.111C73.3998 161.622 73.8049 162.228 74.0813 162.895C74.3577 163.563 74.5 164.278 74.5 165C74.5 165.722 74.3577 166.437 74.0813 167.105C73.8049 167.772 73.3998 168.378 72.8891 168.889C72.3784 169.4 71.772 169.805 71.1048 170.081C70.4375 170.358 69.7223 170.5 69 170.5C68.2777 170.5 67.5625 170.358 66.8952 170.081C66.228 169.805 65.6216 169.4 65.1109 168.889C64.6002 168.378 64.1951 167.772 63.9187 167.105C63.6423 166.437 63.5 165.722 63.5 165C63.5 164.278 63.6423 163.563 63.9187 162.895C64.1951 162.228 64.6002 161.622 65.1109 161.111C65.6216 160.6 66.228 160.195 66.8952 159.919Z" fill="#0965CD"/>
<path fill-rule="evenodd" clip-rule="evenodd" d="M69 156.5C67.8838 156.5 66.7785 156.72 65.7472 157.147C64.7159 157.574 63.7789 158.2 62.9896 158.99C62.2003 159.779 61.5742 160.716 61.147 161.747C60.7199 162.778 60.5 163.884 60.5 165C60.5 166.116 60.7199 167.222 61.147 168.253C61.5742 169.284 62.2003 170.221 62.9896 171.01C63.7789 171.8 64.7159 172.426 65.7472 172.853C66.7785 173.28 67.8838 173.5 69 173.5C70.1162 173.5 71.2215 173.28 72.2528 172.853C72.8183 172.619 73.3554 172.325 73.8554 171.977L78.9393 177.061C79.5251 177.646 80.4749 177.646 81.0607 177.061C81.6464 176.475 81.6464 175.525 81.0607 174.939L75.9767 169.855C76.3247 169.355 76.6187 168.818 76.853 168.253C77.2801 167.222 77.5 166.116 77.5 165C77.5 163.884 77.2801 162.778 76.853 161.747C76.4258 160.716 75.7997 159.779 75.0104 158.99C74.2211 158.2 73.2841 157.574 72.2528 157.147C71.2215 156.72 70.1162 156.5 69 156.5ZM66.8952 159.919C67.5625 159.642 68.2777 159.5 69 159.5C69.7223 159.5 70.4375 159.642 71.1048 159.919C71.772 160.195 72.3784 160.6 72.8891 161.111C73.3998 161.622 73.8049 162.228 74.0813 162.895C74.3577 163.563 74.5 164.278 74.5 165C74.5 165.722 74.3577 166.437 74.0813 167.105C73.8049 167.772 73.3998 168.378 72.8891 168.889C72.3784 169.4 71.772 169.805 71.1048 170.081C70.4375 170.358 69.7223 170.5 69 170.5C68.2777 170.5 67.5625 170.358 66.8952 170.081C66.228 169.805 65.6216 169.4 65.1109 168.889C64.6002 168.378 64.1951 167.772 63.9187 167.105C63.6423 166.437 63.5 165.722 63.5 165C63.5 164.278 63.6423 163.563 63.9187 162.895C64.1951 162.228 64.6002 161.622 65.1109 161.111C65.6216 160.6 66.228 160.195 66.8952 159.919Z" fill="#0965CD"/>
<path d="M69 158C68.0807 158 67.1705 158.181 66.3212 158.533C65.4719 158.885 64.7003 159.4 64.0503 160.05C63.4002 160.7 62.8846 161.472 62.5328 162.321C62.1811 163.17 62 164.081 62 165C62 165.919 62.1811 166.83 62.5328 167.679C62.8846 168.528 63.4002 169.3 64.0503 169.95C64.7003 170.6 65.4719 171.115 66.3212 171.467C67.1705 171.819 68.0807 172 69 172V158Z" fill="#F0F7FE"/>
<path d="M69 156.5C67.8838 156.5 66.7785 156.72 65.7472 157.147C64.7159 157.574 63.7789 158.2 62.9896 158.99C62.2003 159.779 61.5742 160.716 61.147 161.747C60.7199 162.778 60.5 163.884 60.5 165C60.5 166.116 60.7199 167.222 61.147 168.253C61.5742 169.284 62.2003 170.221 62.9896 171.01C63.7789 171.8 64.7159 172.426 65.7472 172.853C66.7785 173.28 67.8838 173.5 69 173.5V170.5C68.2777 170.5 67.5625 170.358 66.8952 170.081C66.228 169.805 65.6216 169.4 65.1109 168.889C64.6002 168.378 64.1951 167.772 63.9187 167.105C63.6423 166.437 63.5 165.722 63.5 165C63.5 164.278 63.6423 163.563 63.9187 162.895C64.1951 162.228 64.6002 161.622 65.1109 161.111C65.6216 160.6 66.228 160.195 66.8952 159.919C67.5625 159.642 68.2777 159.5 69 159.5V156.5Z" fill="#157DF5"/>
<defs>
<filter id="filter0_d_36670_73992" x="10" y="9" width="96" height="96" filterUnits="userSpaceOnUse" color-interpolation-filters="sRGB">
<feFlood flood-opacity="0" result="BackgroundImageFix"/>
<feColorMatrix in="SourceAlpha" type="matrix" values="0 0 0 0 0 0 0 0 0 0 0 0 0 0 0 0 0 0 127 0" result="hardAlpha"/>
<feOffset dx="2" dy="1"/>
<feGaussianBlur stdDeviation="4"/>
<feColorMatrix type="matrix" values="0 0 0 0 0.0392157 0 0 0 0 0.0392157 0 0 0 0 0.0627451 0 0 0 0.08 0"/>
<feBlend mode="normal" in2="BackgroundImageFix" result="effect1_dropShadow_36670_73992"/>
<feBlend mode="normal" in="SourceGraphic" in2="effect1_dropShadow_36670_73992" result="shape"/>
</filter>
</defs>
</svg>
