<svg width="112" height="208" viewBox="0 0 112 208" fill="none" xmlns="http://www.w3.org/2000/svg">
<rect x="0.5" y="0.5" width="111" height="207" rx="4.5" stroke="#9747FF" stroke-dasharray="10 5"/>
<g filter="url(#filter0_dd_13970_56473)">
<rect x="16" y="16" width="80" height="80" rx="8" fill="white"/>
</g>
<path d="M66.0002 28C64.4178 28 63.0499 28.9189 62.4012 30.2522C61.9652 30.0891 61.4932 30 61.0002 30C60.5073 30 60.0353 30.0891 59.5992 30.2522C58.9506 28.9189 57.5827 28 56.0002 28C54.4178 28 53.0499 28.9189 52.4012 30.2522C51.9652 30.0891 51.4932 30 51.0002 30C50.5073 30 50.0353 30.0891 49.5992 30.2522C48.9506 28.9189 47.5827 28 46.0002 28C43.7911 28 42.0002 29.7908 42.0002 32C42.0002 32.0422 42.0009 32.0845 42.0022 32.1265C41.682 32.0439 41.3463 32 41.0002 32C38.7911 32 37.0002 33.7908 37.0002 36C37.0002 38.2092 38.7911 40 41.0002 40H71.0002C73.2094 40 75.0002 38.2092 75.0002 36C75.0002 33.7908 73.2094 32 71.0002 32C70.6542 32 70.3185 32.0439 69.9983 32.1265C69.9996 32.0845 70.0002 32.0422 70.0002 32C70.0002 29.7908 68.2094 28 66.0002 28Z" fill="#FFA099"/>
<path d="M56.0002 40H71.0002C73.2094 40 75.0002 38.2091 75.0002 36C75.0002 33.7909 73.2094 32 71.0002 32C70.6542 32 70.3185 32.0439 69.9983 32.1265C69.9996 32.0845 70.0002 32.0423 70.0002 32C70.0002 29.7909 68.2094 28 66.0002 28C64.4178 28 63.05 28.9189 62.4013 30.2522C61.9653 30.0892 61.4932 30 61.0002 30C60.5073 30 60.0352 30.0892 59.5992 30.2522C58.9505 28.9189 57.5827 28 56.0002 28V40Z" fill="#FF7E75"/>
<path d="M74 49H78.5C79.3284 49 80 49.6716 80 50.5C80 51.3284 79.3284 52 78.5 52H74V49Z" fill="#25BB71"/>
<path d="M38 52H33.5C32.6716 52 32 51.3284 32 50.5C32 49.6716 32.6716 49 33.5 49H38V52Z" fill="#40D98D"/>
<path d="M76.4687 44.5316L74.3518 46.1094V79.1897C74.3518 81.8428 72.1937 84 69.5415 84H56.0002L48.9456 59.0312L56.0002 39.6484H72.9456C73.7218 39.6484 74.3518 40.2775 74.3518 41.0547V43.2969L76.4687 44.5316Z" fill="#B6D7FC"/>
<path d="M39.0549 39.6406C38.2787 39.6406 37.6487 40.2697 37.6487 41.0469V43.2891L36.0315 44.6484L37.6487 46.1016V79.1819C37.6487 81.835 39.8068 83.9922 42.459 83.9922H56.0002V39.6406H39.0549Z" fill="#E2EFFE"/>
<path d="M77.176 39.4062V45.0547C77.176 45.8309 76.546 46.4609 75.7698 46.4609H55.9998L49.5452 42.2305L55.9998 38H75.7698C76.546 38 77.176 38.6291 77.176 39.4062Z" fill="#0965CD"/>
<path d="M36.2305 38C35.4542 38 34.8242 38.6291 34.8242 39.4062V45.0547C34.8242 45.8309 35.4542 46.4609 36.2305 46.4609H56.0005V38H36.2305Z" fill="#157DF5"/>
<path d="M72 75C72 73.8954 72.8954 73 74 73H75C76.1046 73 77 73.8954 77 75V82C77 83.1046 76.1046 84 75 84H74C72.8954 84 72 83.1046 72 82V75Z" fill="#1E203E"/>
<path d="M35 75C35 73.8954 35.8954 73 37 73H38C39.1046 73 40 73.8954 40 75V82C40 83.1046 39.1046 84 38 84H37C35.8954 84 35 83.1046 35 82V75Z" fill="#282A52"/>
<path d="M66.0002 124C64.4178 124 63.0499 124.919 62.4012 126.252C61.9652 126.089 61.4932 126 61.0002 126C60.5073 126 60.0353 126.089 59.5992 126.252C58.9506 124.919 57.5827 124 56.0002 124C54.4178 124 53.0499 124.919 52.4012 126.252C51.9652 126.089 51.4932 126 51.0002 126C50.5073 126 50.0353 126.089 49.5992 126.252C48.9506 124.919 47.5827 124 46.0002 124C43.7911 124 42.0002 125.791 42.0002 128C42.0002 128.042 42.0009 128.084 42.0022 128.126C41.682 128.044 41.3463 128 41.0002 128C38.7911 128 37.0002 129.791 37.0002 132C37.0002 134.209 38.7911 136 41.0002 136H71.0002C73.2094 136 75.0002 134.209 75.0002 132C75.0002 129.791 73.2094 128 71.0002 128C70.6542 128 70.3185 128.044 69.9983 128.126C69.9996 128.084 70.0002 128.042 70.0002 128C70.0002 125.791 68.2094 124 66.0002 124Z" fill="#FFA099"/>
<path d="M56.0002 136H71.0002C73.2094 136 75.0002 134.209 75.0002 132C75.0002 129.791 73.2094 128 71.0002 128C70.6542 128 70.3185 128.044 69.9983 128.127C69.9996 128.085 70.0002 128.042 70.0002 128C70.0002 125.791 68.2094 124 66.0002 124C64.4178 124 63.05 124.919 62.4013 126.252C61.9653 126.089 61.4932 126 61.0002 126C60.5073 126 60.0352 126.089 59.5992 126.252C58.9505 124.919 57.5827 124 56.0002 124V136Z" fill="#FF7E75"/>
<path d="M74 145H78.5C79.3284 145 80 145.672 80 146.5C80 147.328 79.3284 148 78.5 148H74V145Z" fill="#25BB71"/>
<path d="M38 148H33.5C32.6716 148 32 147.328 32 146.5C32 145.672 32.6716 145 33.5 145H38V148Z" fill="#40D98D"/>
<path d="M76.4687 140.532L74.3518 142.109V175.19C74.3518 177.843 72.1937 180 69.5415 180H56.0002L48.9456 155.031L56.0002 135.648H72.9456C73.7218 135.648 74.3518 136.278 74.3518 137.055V139.297L76.4687 140.532Z" fill="#B6D7FC"/>
<path d="M39.0549 135.641C38.2787 135.641 37.6487 136.27 37.6487 137.047V139.289L36.0315 140.648L37.6487 142.102V175.182C37.6487 177.835 39.8068 179.992 42.459 179.992H56.0002V135.641H39.0549Z" fill="#E2EFFE"/>
<path d="M77.176 135.406V141.055C77.176 141.831 76.546 142.461 75.7698 142.461H55.9998L49.5452 138.23L55.9998 134H75.7698C76.546 134 77.176 134.629 77.176 135.406Z" fill="#0965CD"/>
<path d="M36.2305 134C35.4542 134 34.8242 134.629 34.8242 135.406V141.055C34.8242 141.831 35.4542 142.461 36.2305 142.461H56.0005V134H36.2305Z" fill="#157DF5"/>
<path d="M72 171C72 169.895 72.8954 169 74 169H75C76.1046 169 77 169.895 77 171V178C77 179.105 76.1046 180 75 180H74C72.8954 180 72 179.105 72 178V171Z" fill="#1E203E"/>
<path d="M35 171C35 169.895 35.8954 169 37 169H38C39.1046 169 40 169.895 40 171V178C40 179.105 39.1046 180 38 180H37C35.8954 180 35 179.105 35 178V171Z" fill="#282A52"/>
<defs>
<filter id="filter0_dd_13970_56473" x="6" y="9" width="100" height="100" filterUnits="userSpaceOnUse" color-interpolation-filters="sRGB">
<feFlood flood-opacity="0" result="BackgroundImageFix"/>
<feColorMatrix in="SourceAlpha" type="matrix" values="0 0 0 0 0 0 0 0 0 0 0 0 0 0 0 0 0 0 127 0" result="hardAlpha"/>
<feOffset dy="3"/>
<feGaussianBlur stdDeviation="5"/>
<feColorMatrix type="matrix" values="0 0 0 0 0.516667 0 0 0 0 0.578358 0 0 0 0 0.775 0 0 0 0.12 0"/>
<feBlend mode="normal" in2="BackgroundImageFix" result="effect1_dropShadow_13970_56473"/>
<feColorMatrix in="SourceAlpha" type="matrix" values="0 0 0 0 0 0 0 0 0 0 0 0 0 0 0 0 0 0 127 0" result="hardAlpha"/>
<feOffset dy="1"/>
<feGaussianBlur stdDeviation="3"/>
<feColorMatrix type="matrix" values="0 0 0 0 0.709809 0 0 0 0 0.788943 0 0 0 0 0.920833 0 0 0 0.15 0"/>
<feBlend mode="normal" in2="effect1_dropShadow_13970_56473" result="effect2_dropShadow_13970_56473"/>
<feBlend mode="normal" in="SourceGraphic" in2="effect2_dropShadow_13970_56473" result="shape"/>
</filter>
</defs>
</svg>
