<svg width="112" height="208" viewBox="0 0 112 208" fill="none" xmlns="http://www.w3.org/2000/svg">
<rect x="0.5" y="0.5" width="111" height="207" rx="4.5" stroke="#9747FF" stroke-dasharray="10 5"/>
<g filter="url(#filter0_d_7407_33852)">
<rect x="16" y="16" width="80" height="80" rx="8" fill="white"/>
</g>
<path d="M80.5927 53.6016H48.6025C46.7208 53.6016 45.1953 55.127 45.1953 57.0088V80.5957C45.1953 82.4775 46.7208 84.003 48.6025 84.003H80.5927C82.4745 84.003 83.9999 82.4775 83.9999 80.5957V57.0088C83.9999 55.127 82.4745 53.6016 80.5927 53.6016Z" fill="#0965CD"/>
<path d="M48.7822 58.1914C48.7822 57.6391 49.2299 57.1914 49.7822 57.1914H79.4114C79.9637 57.1914 80.4114 57.6391 80.4114 58.1914V79.4172C80.4114 79.9695 79.9637 80.4172 79.4114 80.4172H49.7822C49.2299 80.4172 48.7822 79.9695 48.7822 79.4172V58.1914Z" fill="#E2EFFE"/>
<path d="M54.9933 42.1992H31.4072C29.5254 42.1992 28 43.7247 28 45.6065V80.5977C28 82.4795 29.5254 84.005 31.4072 84.005H54.9933C56.8751 84.005 58.4005 82.4795 58.4005 80.5977V45.6065C58.4005 43.7247 56.8751 42.1992 54.9933 42.1992Z" fill="#157DF5"/>
<path d="M31.5879 46.7891C31.5879 46.2368 32.0356 45.7891 32.5879 45.7891H53.813C54.3653 45.7891 54.813 46.2368 54.813 46.7891V79.4192C54.813 79.9715 54.3653 80.4192 53.813 80.4192H32.5879C32.0356 80.4192 31.5879 79.9715 31.5879 79.4192V46.7891Z" fill="#F0F7FE"/>
<path fill-rule="evenodd" clip-rule="evenodd" d="M54.8131 72.2803V79.4201C54.8131 79.9724 54.3653 80.4201 53.8131 80.4201H33.6211L46.0971 67.9438C47.3064 66.7344 49.2673 66.7344 50.4767 67.9438L54.8131 72.2803Z" fill="#25BB71"/>
<path fill-rule="evenodd" clip-rule="evenodd" d="M50.6523 80.4201H32.5879C32.0356 80.4201 31.5879 79.9724 31.5879 79.4201V70.1526L33.7967 67.9438C35.006 66.7343 36.9669 66.7343 38.1762 67.9438L50.6523 80.4201Z" fill="#40D98D"/>
<path d="M42.1587 64.425C44.4527 64.425 46.3125 62.5652 46.3125 60.2711C46.3125 57.977 44.4527 56.1172 42.1587 56.1172C39.8646 56.1172 38.0049 57.977 38.0049 60.2711C38.0049 62.5652 39.8646 64.425 42.1587 64.425Z" fill="#157DF5"/>
<path fill-rule="evenodd" clip-rule="evenodd" d="M71.2686 67.9129C71.9568 68.3102 71.9568 69.3035 71.2686 69.7008L69.1853 70.9036L67.1021 72.1063C66.4139 72.5036 65.5537 72.007 65.5537 71.2123V68.8068V66.4012C65.5537 65.6066 66.4139 65.11 67.1021 65.5073L69.1853 66.7101L71.2686 67.9129Z" fill="#0965CD"/>
<path d="M74.8368 28C69.7746 28 65.6708 32.2165 65.6708 37.4178C65.6708 37.4178 65.3283 45.2371 74.0985 49.8297C74.5298 50.0555 75.0399 50.0573 75.4714 49.8319C77.6181 48.7105 84.0028 44.7582 84.0028 37.4178C84.0028 32.2165 79.899 28 74.8368 28Z" fill="#40D98D"/>
<path d="M74.8357 28H74.8368C79.899 28 84.0028 32.2165 84.0028 37.4178C84.0028 44.7582 77.6181 48.7105 75.4714 49.8319C75.2711 49.9365 75.054 49.9921 74.8357 49.9992V28Z" fill="#25BB71"/>
<ellipse cx="74.8357" cy="37.1667" rx="3.66668" ry="3.66667" fill="#F0F7FE"/>
<path d="M74.8357 40.8333V33.5C72.8106 33.5 71.169 35.1416 71.169 37.1667C71.169 39.1917 72.8106 40.8333 74.8357 40.8333Z" fill="white"/>
<path d="M80.5927 149.602H48.6025C46.7208 149.602 45.1953 151.127 45.1953 153.009V176.596C45.1953 178.477 46.7208 180.003 48.6025 180.003H80.5927C82.4745 180.003 83.9999 178.477 83.9999 176.596V153.009C83.9999 151.127 82.4745 149.602 80.5927 149.602Z" fill="#0965CD"/>
<path d="M48.7822 154.191C48.7822 153.639 49.2299 153.191 49.7822 153.191H79.4114C79.9637 153.191 80.4114 153.639 80.4114 154.191V175.417C80.4114 175.969 79.9637 176.417 79.4114 176.417H49.7822C49.2299 176.417 48.7822 175.969 48.7822 175.417V154.191Z" fill="#E2EFFE"/>
<path d="M54.9933 138.199H31.4072C29.5254 138.199 28 139.725 28 141.606V176.598C28 178.479 29.5254 180.005 31.4072 180.005H54.9933C56.8751 180.005 58.4005 178.479 58.4005 176.598V141.606C58.4005 139.725 56.8751 138.199 54.9933 138.199Z" fill="#157DF5"/>
<path d="M31.5879 142.789C31.5879 142.237 32.0356 141.789 32.5879 141.789H53.813C54.3653 141.789 54.813 142.237 54.813 142.789V175.419C54.813 175.972 54.3653 176.419 53.813 176.419H32.5879C32.0356 176.419 31.5879 175.972 31.5879 175.419V142.789Z" fill="#F0F7FE"/>
<path fill-rule="evenodd" clip-rule="evenodd" d="M54.8131 168.28V175.42C54.8131 175.972 54.3653 176.42 53.8131 176.42H33.6211L46.0971 163.944C47.3064 162.734 49.2673 162.734 50.4767 163.944L54.8131 168.28Z" fill="#25BB71"/>
<path fill-rule="evenodd" clip-rule="evenodd" d="M50.6523 176.42H32.5879C32.0356 176.42 31.5879 175.972 31.5879 175.42V166.153L33.7967 163.944C35.006 162.734 36.9669 162.734 38.1762 163.944L50.6523 176.42Z" fill="#40D98D"/>
<path d="M42.1587 160.425C44.4527 160.425 46.3125 158.565 46.3125 156.271C46.3125 153.977 44.4527 152.117 42.1587 152.117C39.8646 152.117 38.0049 153.977 38.0049 156.271C38.0049 158.565 39.8646 160.425 42.1587 160.425Z" fill="#157DF5"/>
<path fill-rule="evenodd" clip-rule="evenodd" d="M71.2686 163.913C71.9568 164.31 71.9568 165.303 71.2686 165.701L69.1853 166.904L67.1021 168.106C66.4139 168.504 65.5537 168.007 65.5537 167.212V164.807V162.401C65.5537 161.607 66.4139 161.11 67.1021 161.507L69.1853 162.71L71.2686 163.913Z" fill="#0965CD"/>
<path d="M74.8368 124C69.7746 124 65.6708 128.216 65.6708 133.418C65.6708 133.418 65.3283 141.237 74.0985 145.83C74.5298 146.056 75.0399 146.057 75.4714 145.832C77.6181 144.711 84.0028 140.758 84.0028 133.418C84.0028 128.216 79.899 124 74.8368 124Z" fill="#40D98D"/>
<path d="M74.8357 124H74.8368C79.899 124 84.0028 128.216 84.0028 133.418C84.0028 140.758 77.6181 144.711 75.4714 145.832C75.2711 145.936 75.054 145.992 74.8357 145.999V124Z" fill="#25BB71"/>
<ellipse cx="74.8357" cy="133.167" rx="3.66668" ry="3.66667" fill="#F0F7FE"/>
<path d="M74.8357 136.833V129.5C72.8106 129.5 71.169 131.142 71.169 133.167C71.169 135.192 72.8106 136.833 74.8357 136.833Z" fill="white"/>
<defs>
<filter id="filter0_d_7407_33852" x="10" y="9" width="96" height="96" filterUnits="userSpaceOnUse" color-interpolation-filters="sRGB">
<feFlood flood-opacity="0" result="BackgroundImageFix"/>
<feColorMatrix in="SourceAlpha" type="matrix" values="0 0 0 0 0 0 0 0 0 0 0 0 0 0 0 0 0 0 127 0" result="hardAlpha"/>
<feOffset dx="2" dy="1"/>
<feGaussianBlur stdDeviation="4"/>
<feColorMatrix type="matrix" values="0 0 0 0 0.0392157 0 0 0 0 0.0392157 0 0 0 0 0.0627451 0 0 0 0.08 0"/>
<feBlend mode="normal" in2="BackgroundImageFix" result="effect1_dropShadow_7407_33852"/>
<feBlend mode="normal" in="SourceGraphic" in2="effect1_dropShadow_7407_33852" result="shape"/>
</filter>
</defs>
</svg>
