<svg width="112" height="208" viewBox="0 0 112 208" fill="none" xmlns="http://www.w3.org/2000/svg">
<rect x="0.5" y="0.5" width="111" height="207" rx="4.5" stroke="#9747FF" stroke-dasharray="10 5"/>
<g filter="url(#filter0_dd_31246_59160)">
<rect x="16" y="16" width="80" height="80" rx="8" fill="white"/>
</g>
<path d="M30.1875 58.308V64.9287L43.9141 72.3019H56L59.2812 65.305L56 58.308H30.1875Z" fill="#F0F7FE"/>
<path d="M44.1651 70.6472L44.5915 54.5633C44.6439 53.2745 43.7669 51.4836 42.9065 50.5222L45.1518 46.649L46.4584 48.0587C48.2894 50.0343 49.2768 52.7106 49.1674 55.4014L48.7676 70.8342L44.1651 70.6472Z" fill="#25BB71"/>
<path d="M47.0879 34.6469L51.2015 37.2489C51.6287 37.5191 51.7561 38.085 51.4857 38.512L48.2044 43.6949L48.2029 43.6939L43.9438 50.4212C43.7694 50.6966 43.4616 50.8587 43.1354 50.8466C42.8096 50.8341 42.5145 50.6496 42.3616 50.3615L40.7368 47.3093L37.5788 45.3118L39.4742 41.518L42.1759 39.8778C42.3907 39.9085 42.6431 39.9631 42.9172 40.0314L41.8831 36.1859L47.0879 34.6469Z" fill="#E2EFFE"/>
<path d="M43.1527 40.4305C43.1568 40.4343 43.1609 40.4381 43.1651 40.4419C43.4133 41.5452 45.0642 45.5309 45.8486 47.4072L43.4172 51.2477L43.2211 51.1236C42.7953 50.8543 42.4443 50.4822 42.2004 50.0415L40.64 47.2227L29.6242 40.2546C28.188 39.3462 27.8565 37.5068 28.7653 36.0714L30.8909 32.7141C30.9243 32.7279 30.9578 32.7418 30.9912 32.7556L33.0968 29.4298C33.9833 28.0134 35.9088 27.5603 37.3427 28.4754L47.0874 34.6393L45.8791 35.3803C45.1422 35.8256 44.5444 36.4936 44.0863 37.2087C43.5741 38.0179 43.3092 38.8322 43.1659 39.8473C43.1557 39.9195 43.1618 40.0212 43.168 40.1243C43.1751 40.2409 43.1822 40.3594 43.166 40.4389L43.1527 40.4305Z" fill="#40D98D"/>
<path d="M56 58.308V72.3019H67.2656L81.8125 64.9287V58.308H56Z" fill="#E2EFFE"/>
<path d="M72.0649 47.6883L73.7038 48.1248L73.6948 48.1759L73.707 48.1307L75.3459 48.5672L73.9858 53.6129L77.1769 69.1148L73.8526 69.7911L72.022 60.8985L68.2157 75.0191L66.5769 74.5825L66.5916 74.5279L66.5737 74.5766L64.9347 74.1402L68.7409 60.0199L62.378 67.1527C59.7473 70.1018 60.4632 74.121 62.6751 76.3029L60.2848 78.6972C56.4846 74.9486 56.2889 68.8945 59.8392 64.9147L70.7047 52.7345L72.0649 47.6883Z" fill="#282A52"/>
<path d="M69.8821 47.1197L73.5163 33.6369C74.0823 31.5375 76.253 30.2916 78.365 30.8541L78.3648 30.8588L78.3651 30.8578C80.477 31.4204 81.7303 33.5783 81.1644 35.6776L77.5301 49.1605C77.2876 50.0602 76.3573 50.5941 75.4521 50.353L73.267 49.771L73.2691 49.7632L73.2669 49.7673L71.0818 49.1853C70.1767 48.9442 69.6396 48.0194 69.8821 47.1197Z" fill="#157DF5"/>
<path d="M56 64.8676C49.957 64.8676 49.957 67.0542 43.9141 67.0542C37.8711 67.0542 37.8711 64.8676 31.8281 64.8676C31.225 64.8676 30.6822 64.8894 30.1875 64.9287V71.4273C30.1875 78.3599 35.83 84 42.7656 84H56L60.375 74.5978L56 64.8676Z" fill="#40D98D"/>
<path d="M29.6406 56.6681C28.7346 56.6681 28 57.4023 28 58.308C28 59.2137 28.7346 59.9479 29.6406 59.9479H56L58.625 58.308L56 56.6681H29.6406Z" fill="#E2EFFE"/>
<path d="M82.3594 56.6681H56V59.9479H82.3594C83.2654 59.9479 84 59.2137 84 58.308C84 57.4023 83.2654 56.6681 82.3594 56.6681Z" fill="#B6D7FC"/>
<path d="M68.0859 67.0542C62.043 67.0542 62.043 64.8676 56 64.8676V84H69.2344C76.17 84 81.8125 78.3599 81.8125 71.4273V64.9287C81.3178 64.8894 80.775 64.8676 80.1719 64.8676C74.1289 64.8676 74.1289 67.0542 68.0859 67.0542Z" fill="#157DF5"/>
<path d="M30.1875 154.308V160.929L43.9141 168.302H56L59.2812 161.305L56 154.308H30.1875Z" fill="#F0F7FE"/>
<path d="M44.1651 166.647L44.5915 150.563C44.6439 149.274 43.7669 147.484 42.9065 146.522L45.1518 142.649L46.4584 144.059C48.2894 146.034 49.2768 148.711 49.1674 151.401L48.7676 166.834L44.1651 166.647Z" fill="#25BB71"/>
<path d="M47.0879 130.647L51.2015 133.249C51.6287 133.519 51.7561 134.085 51.4857 134.512L48.2044 139.695L48.2029 139.694L43.9438 146.421C43.7694 146.697 43.4616 146.859 43.1354 146.847C42.8096 146.834 42.5145 146.65 42.3616 146.362L40.7368 143.309L37.5788 141.312L39.4742 137.518L42.1759 135.878C42.3907 135.909 42.6431 135.963 42.9172 136.031L41.8831 132.186L47.0879 130.647Z" fill="#E2EFFE"/>
<path d="M43.1527 136.431C43.1568 136.434 43.1609 136.438 43.1651 136.442C43.4133 137.545 45.0642 141.531 45.8486 143.407L43.4172 147.248L43.2211 147.124C42.7953 146.854 42.4443 146.482 42.2004 146.042L40.64 143.223L29.6242 136.255C28.188 135.346 27.8565 133.507 28.7653 132.071L30.8909 128.714C30.9243 128.728 30.9578 128.742 30.9912 128.756L33.0968 125.43C33.9833 124.013 35.9088 123.56 37.3427 124.475L47.0874 130.639L45.8791 131.38C45.1422 131.826 44.5444 132.494 44.0863 133.209C43.5741 134.018 43.3092 134.832 43.1659 135.847C43.1557 135.92 43.1618 136.021 43.168 136.124C43.1751 136.241 43.1822 136.359 43.166 136.439L43.1527 136.431Z" fill="#40D98D"/>
<path d="M56 154.308V168.302H67.2656L81.8125 160.929V154.308H56Z" fill="#E2EFFE"/>
<path d="M72.0649 143.688L73.7038 144.125L73.6948 144.176L73.707 144.131L75.3459 144.567L73.9858 149.613L77.1769 165.115L73.8526 165.791L72.022 156.899L68.2157 171.019L66.5769 170.583L66.5916 170.528L66.5737 170.577L64.9347 170.14L68.7409 156.02L62.378 163.153C59.7473 166.102 60.4632 170.121 62.6751 172.303L60.2848 174.697C56.4846 170.949 56.2889 164.894 59.8392 160.915L70.7047 148.734L72.0649 143.688Z" fill="#282A52"/>
<path d="M69.8821 143.12L73.5163 129.637C74.0823 127.537 76.253 126.292 78.365 126.854L78.3648 126.859L78.3651 126.858C80.477 127.42 81.7303 129.578 81.1644 131.678L77.5301 145.16C77.2876 146.06 76.3573 146.594 75.4521 146.353L73.267 145.771L73.2691 145.763L73.2669 145.767L71.0818 145.185C70.1767 144.944 69.6396 144.019 69.8821 143.12Z" fill="#157DF5"/>
<path d="M56 160.868C49.957 160.868 49.957 163.054 43.9141 163.054C37.8711 163.054 37.8711 160.868 31.8281 160.868C31.225 160.868 30.6822 160.889 30.1875 160.929V167.427C30.1875 174.36 35.83 180 42.7656 180H56L60.375 170.598L56 160.868Z" fill="#40D98D"/>
<path d="M29.6406 152.668C28.7346 152.668 28 153.402 28 154.308C28 155.214 28.7346 155.948 29.6406 155.948H56L58.625 154.308L56 152.668H29.6406Z" fill="#E2EFFE"/>
<path d="M82.3594 152.668H56V155.948H82.3594C83.2654 155.948 84 155.214 84 154.308C84 153.402 83.2654 152.668 82.3594 152.668Z" fill="#B6D7FC"/>
<path d="M68.0859 163.054C62.043 163.054 62.043 160.868 56 160.868V180H69.2344C76.17 180 81.8125 174.36 81.8125 167.427V160.929C81.3178 160.889 80.775 160.868 80.1719 160.868C74.1289 160.868 74.1289 163.054 68.0859 163.054Z" fill="#157DF5"/>
<defs>
<filter id="filter0_dd_31246_59160" x="6" y="9" width="100" height="100" filterUnits="userSpaceOnUse" color-interpolation-filters="sRGB">
<feFlood flood-opacity="0" result="BackgroundImageFix"/>
<feColorMatrix in="SourceAlpha" type="matrix" values="0 0 0 0 0 0 0 0 0 0 0 0 0 0 0 0 0 0 127 0" result="hardAlpha"/>
<feOffset dy="3"/>
<feGaussianBlur stdDeviation="5"/>
<feColorMatrix type="matrix" values="0 0 0 0 0.516667 0 0 0 0 0.578358 0 0 0 0 0.775 0 0 0 0.12 0"/>
<feBlend mode="normal" in2="BackgroundImageFix" result="effect1_dropShadow_31246_59160"/>
<feColorMatrix in="SourceAlpha" type="matrix" values="0 0 0 0 0 0 0 0 0 0 0 0 0 0 0 0 0 0 127 0" result="hardAlpha"/>
<feOffset dy="1"/>
<feGaussianBlur stdDeviation="3"/>
<feColorMatrix type="matrix" values="0 0 0 0 0.709809 0 0 0 0 0.788943 0 0 0 0 0.920833 0 0 0 0.15 0"/>
<feBlend mode="normal" in2="effect1_dropShadow_31246_59160" result="effect2_dropShadow_31246_59160"/>
<feBlend mode="normal" in="SourceGraphic" in2="effect2_dropShadow_31246_59160" result="shape"/>
</filter>
</defs>
</svg>
