<svg width="112" height="208" viewBox="0 0 112 208" fill="none" xmlns="http://www.w3.org/2000/svg">
<rect x="0.5" y="0.5" width="111" height="207" rx="4.5" stroke="#9747FF" stroke-dasharray="10 5"/>
<g filter="url(#filter0_dd_58767_12152)">
<rect x="16" y="16" width="80" height="80" rx="8" fill="white"/>
</g>
<path d="M64.5528 80H48.582V28H52.6444V39.0407C52.6444 40.8356 54.0995 42.2907 55.8944 42.2907H66.9984V77.6364C66.9984 78.9418 65.9035 80 64.5528 80Z" fill="#9DC9FB"/>
<path d="M28 77.6364C28 78.9418 29.0949 80 30.4456 80H49.6664V28H30.4456C29.0949 28 28 29.0582 28 30.3636V77.6364Z" fill="#B6D7FC"/>
<path fill-rule="evenodd" clip-rule="evenodd" d="M36.6662 55.2907V54.749C36.6662 53.852 37.3942 53.124 38.2912 53.124C39.1882 53.124 39.9162 53.852 39.9162 54.749V55.3547C42.3699 55.745 44.2499 57.8747 44.2499 60.4366C44.2499 61.5362 43.9036 62.5562 43.3142 63.3932C44.5412 64.3343 45.3334 65.815 45.3334 67.4779C45.3334 70.3164 43.0256 72.6238 40.1874 72.6238H39.9162V73.1655C39.9162 74.0625 39.1882 74.7905 38.2912 74.7905C37.3942 74.7905 36.6662 74.0625 36.6662 73.1655V72.6238H33.9584C33.0614 72.6238 32.3334 71.8958 32.3334 70.9988V56.9157C32.3334 56.0187 33.0614 55.2907 33.9584 55.2907H36.6662ZM35.5834 65.5825H39.1039L39.1497 65.5823H40.1874C41.2316 65.5823 42.0834 66.4337 42.0834 67.4779C42.0834 68.5225 41.2316 69.3738 40.1874 69.3738H35.5834V65.5825ZM39.1317 62.3324C40.1636 62.3174 40.9999 61.4715 40.9999 60.4366C40.9999 59.3924 40.1485 58.5407 39.1039 58.5407H35.5834V62.3324H39.1317Z" fill="#157DF5"/>
<path d="M55.8959 42.2907H66.9999L52.6459 28V39.0407C52.6459 40.8356 54.1009 42.2907 55.8959 42.2907Z" fill="#157DF5"/>
<path d="M32.3334 37.4155C32.3334 36.5181 33.0609 35.7905 33.9584 35.7905H43.7084C44.6058 35.7905 45.3334 36.5181 45.3334 37.4155C45.3334 38.313 44.6058 39.0405 43.7084 39.0405H33.9584C33.0609 39.0405 32.3334 38.313 32.3334 37.4155Z" fill="#323567"/>
<path d="M32.3334 44.999C32.3334 44.1016 33.0609 43.374 33.9584 43.374H38.2917C39.1892 43.374 39.9167 44.1016 39.9167 44.999C39.9167 45.8965 39.1892 46.624 38.2917 46.624H33.9584C33.0609 46.624 32.3334 45.8965 32.3334 44.999Z" fill="#40D98D"/>
<path d="M81 75.0352V77.6219C81 79.4875 79.4353 80.9995 77.5049 80.9995H60.076C58.3772 80.9995 57 79.6223 57 77.9235V75.0352H81Z" fill="#FFF1AE"/>
<path d="M80.9995 75.0352V77.6219C80.9995 79.4875 79.4348 80.9995 77.5043 80.9995H69.116L69.116 75.0352H80.9995Z" fill="#FEE87B"/>
<path d="M57 69H81V75.0364H57V69Z" fill="#FEE048"/>
<path d="M69.116 69H80.9995V75.0364H69.116L69.116 69Z" fill="#FED601"/>
<path d="M57 62.9258H81V69.0005H57V62.9258Z" fill="#FFF1AE"/>
<path d="M69.116 62.9258H80.9995V69.0005H69.116L69.116 62.9258Z" fill="#FEE87B"/>
<path d="M81 60.3776V62.9216H57V60.3776C57 58.512 58.5647 57 60.4951 57H77.5049C79.4353 57 81 58.512 81 60.3776Z" fill="#FEE048"/>
<path d="M80.9995 60.3776V62.9216H69.116L69.116 57H77.5043C79.4348 57 80.9995 58.512 80.9995 60.3776Z" fill="#FED601"/>
<path d="M81 77.6221V60.3779C81 58.5124 79.4354 57 77.5049 57V54C80.995 54 84 56.76 84 60.3779V77.6221C83.9998 81.2397 80.9951 84 77.5049 84H60.0762C56.7203 84 54.0004 81.2788 54 77.9238V60.3779C54 56.76 57.005 54 60.4951 54V57C58.5646 57 57 58.5124 57 60.3779V77.9238C57.0002 79.6225 58.3774 81 60.0762 81H77.5049C79.4353 81 80.9999 79.4876 81 77.6221ZM77.5049 54V57H60.4951V54H77.5049Z" fill="white"/>
<path d="M64.5528 176H48.582V124H52.6444V135.041C52.6444 136.836 54.0995 138.291 55.8944 138.291H66.9984V173.636C66.9984 174.942 65.9035 176 64.5528 176Z" fill="#9DC9FB"/>
<path d="M28 173.636C28 174.942 29.0949 176 30.4456 176H49.6664V124H30.4456C29.0949 124 28 125.058 28 126.364V173.636Z" fill="#B6D7FC"/>
<path fill-rule="evenodd" clip-rule="evenodd" d="M36.6662 151.291V150.749C36.6662 149.852 37.3942 149.124 38.2912 149.124C39.1882 149.124 39.9162 149.852 39.9162 150.749V151.355C42.3699 151.745 44.2499 153.875 44.2499 156.437C44.2499 157.536 43.9036 158.556 43.3142 159.393C44.5412 160.334 45.3334 161.815 45.3334 163.478C45.3334 166.316 43.0256 168.624 40.1874 168.624H39.9162V169.166C39.9162 170.063 39.1882 170.791 38.2912 170.791C37.3942 170.791 36.6662 170.063 36.6662 169.166V168.624H33.9584C33.0614 168.624 32.3334 167.896 32.3334 166.999V152.916C32.3334 152.019 33.0614 151.291 33.9584 151.291H36.6662ZM35.5834 161.583H39.1039L39.1497 161.582H40.1874C41.2316 161.582 42.0834 162.434 42.0834 163.478C42.0834 164.522 41.2316 165.374 40.1874 165.374H35.5834V161.583ZM39.1317 158.332C40.1636 158.317 40.9999 157.472 40.9999 156.437C40.9999 155.392 40.1485 154.541 39.1039 154.541H35.5834V158.332H39.1317Z" fill="#157DF5"/>
<path d="M55.8959 138.291H66.9999L52.6459 124V135.041C52.6459 136.836 54.1009 138.291 55.8959 138.291Z" fill="#157DF5"/>
<path d="M32.3334 133.416C32.3334 132.518 33.0609 131.791 33.9584 131.791H43.7084C44.6058 131.791 45.3334 132.518 45.3334 133.416C45.3334 134.313 44.6058 135.041 43.7084 135.041H33.9584C33.0609 135.041 32.3334 134.313 32.3334 133.416Z" fill="#323567"/>
<path d="M32.3334 140.999C32.3334 140.102 33.0609 139.374 33.9584 139.374H38.2917C39.1892 139.374 39.9167 140.102 39.9167 140.999C39.9167 141.896 39.1892 142.624 38.2917 142.624H33.9584C33.0609 142.624 32.3334 141.896 32.3334 140.999Z" fill="#40D98D"/>
<path d="M81 171.035V173.622C81 175.487 79.4353 177 77.5049 177H60.076C58.3772 177 57 175.622 57 173.923V171.035H81Z" fill="#FFF1AE"/>
<path d="M80.9995 171.035V173.622C80.9995 175.487 79.4348 177 77.5043 177H69.116L69.116 171.035H80.9995Z" fill="#FEE87B"/>
<path d="M57 165H81V171.036H57V165Z" fill="#FEE048"/>
<path d="M69.116 165H80.9995V171.036H69.116L69.116 165Z" fill="#FED601"/>
<path d="M57 158.926H81V165H57V158.926Z" fill="#FFF1AE"/>
<path d="M69.116 158.926H80.9995V165H69.116L69.116 158.926Z" fill="#FEE87B"/>
<path d="M81 156.378V158.922H57V156.378C57 154.512 58.5647 153 60.4951 153H77.5049C79.4353 153 81 154.512 81 156.378Z" fill="#FEE048"/>
<path d="M80.9995 156.378V158.922H69.116L69.116 153H77.5043C79.4348 153 80.9995 154.512 80.9995 156.378Z" fill="#FED601"/>
<path d="M81 173.622V156.378C81 154.512 79.4354 153 77.5049 153V150C80.995 150 84 152.76 84 156.378V173.622C83.9998 177.24 80.9951 180 77.5049 180H60.0762C56.7203 180 54.0004 177.279 54 173.924V156.378C54 152.76 57.005 150 60.4951 150V153C58.5646 153 57 154.512 57 156.378V173.924C57.0002 175.623 58.3774 177 60.0762 177H77.5049C79.4353 177 80.9999 175.488 81 173.622ZM77.5049 150V153H60.4951V150H77.5049Z" fill="white"/>
<defs>
<filter id="filter0_dd_58767_12152" x="6" y="9" width="100" height="100" filterUnits="userSpaceOnUse" color-interpolation-filters="sRGB">
<feFlood flood-opacity="0" result="BackgroundImageFix"/>
<feColorMatrix in="SourceAlpha" type="matrix" values="0 0 0 0 0 0 0 0 0 0 0 0 0 0 0 0 0 0 127 0" result="hardAlpha"/>
<feOffset dy="3"/>
<feGaussianBlur stdDeviation="5"/>
<feColorMatrix type="matrix" values="0 0 0 0 0.516667 0 0 0 0 0.578358 0 0 0 0 0.775 0 0 0 0.12 0"/>
<feBlend mode="normal" in2="BackgroundImageFix" result="effect1_dropShadow_58767_12152"/>
<feColorMatrix in="SourceAlpha" type="matrix" values="0 0 0 0 0 0 0 0 0 0 0 0 0 0 0 0 0 0 127 0" result="hardAlpha"/>
<feOffset dy="1"/>
<feGaussianBlur stdDeviation="3"/>
<feColorMatrix type="matrix" values="0 0 0 0 0.709809 0 0 0 0 0.788943 0 0 0 0 0.920833 0 0 0 0.15 0"/>
<feBlend mode="normal" in2="effect1_dropShadow_58767_12152" result="effect2_dropShadow_58767_12152"/>
<feBlend mode="normal" in="SourceGraphic" in2="effect2_dropShadow_58767_12152" result="shape"/>
</filter>
</defs>
</svg>
