<svg width="112" height="208" viewBox="0 0 112 208" fill="none" xmlns="http://www.w3.org/2000/svg">
<rect x="0.5" y="0.5" width="111" height="207" rx="4.5" stroke="#9747FF" stroke-dasharray="10 5"/>
<g filter="url(#filter0_d_6367_22113)">
<rect x="16" y="16" width="80" height="80" rx="8" fill="white"/>
</g>
<path d="M67.4196 38.1283V80.7059C68.3288 80.7059 69.0667 81.4438 69.0667 82.3529C69.0667 83.2621 68.3288 84 67.4196 84H31.2941C29.478 84 28 82.522 28 80.7059V31.2941C28 29.478 29.478 28 31.2941 28H65.7725C67.5887 28 69.0667 29.478 69.0667 31.2941V36.4813C69.0667 37.3904 68.3288 38.1283 67.4196 38.1283Z" fill="#F0F7FE"/>
<path fill-rule="evenodd" clip-rule="evenodd" d="M38.1206 37V36.5C38.1206 35.672 38.7926 35 39.6206 35C40.4486 35 41.1206 35.672 41.1206 36.5V37.059C43.3856 37.4194 45.121 39.3853 45.121 41.7501C45.121 42.7651 44.8013 43.7066 44.2572 44.4792C45.3898 45.3479 46.1211 46.7147 46.1211 48.2497C46.1211 50.8699 43.9908 52.9998 41.371 52.9998H41.1206V53.4998C41.1206 54.3278 40.4486 54.9998 39.6206 54.9998C38.7926 54.9998 38.1206 54.3278 38.1206 53.4998V52.9998H35.6211C34.7931 52.9998 34.1211 52.3278 34.1211 51.4998V38.5C34.1211 37.672 34.7931 37 35.6211 37H38.1206ZM37.1211 46.5002H40.3708L40.4131 46.5H41.371C42.3348 46.5 43.1211 47.2859 43.1211 48.2497C43.1211 49.2139 42.3348 49.9998 41.371 49.9998H37.1211V46.5002ZM40.3965 43.5C41.349 43.4862 42.121 42.7054 42.121 41.7501C42.121 40.7862 41.3351 40 40.3708 40H37.1211V43.5H40.3965Z" fill="#157DF5"/>
<path fill-rule="evenodd" clip-rule="evenodd" d="M40.1211 54.914C40.7033 54.7078 41.1206 54.1522 41.1206 53.4997V52.9996H41.371C43.9908 52.9996 46.1211 50.8697 46.1211 48.2495C46.1211 46.7145 45.3898 45.3478 44.2572 44.479C44.8013 43.7064 45.121 42.7649 45.121 41.7499C45.121 39.3851 43.3856 37.4192 41.1206 37.0589V36.4998C41.1206 35.8473 40.7033 35.2916 40.1211 35.0854V39.9998H40.3708C41.3351 39.9998 42.121 40.786 42.121 41.7499C42.121 42.7052 41.349 43.486 40.3965 43.4998H40.1211V46.5H40.3708L40.4131 46.4998H41.371C42.3348 46.4998 43.1211 47.2857 43.1211 48.2495C43.1211 49.2138 42.3348 49.9996 41.371 49.9996H40.1211V54.914Z" fill="#0965CD"/>
<path d="M67.4196 38.1283V80.7059C68.3288 80.7059 69.0667 81.4438 69.0667 82.3529C69.0667 83.2621 68.3288 84 67.4196 84H48.5333V28H65.7725C67.5887 28 69.0667 29.478 69.0667 31.2941V36.4813C69.0667 37.3904 68.3288 38.1283 67.4196 38.1283Z" fill="#E2EFFE"/>
<path d="M72.6907 55.8891C78.9369 55.8891 84.0005 50.8256 84.0005 44.5793C84.0005 38.3331 78.9369 33.2695 72.6907 33.2695C66.4444 33.2695 61.3809 38.3331 61.3809 44.5793C61.3809 50.8256 66.4444 55.8891 72.6907 55.8891Z" fill="#F0F7FE"/>
<path d="M84.0002 44.5793C84.0002 50.8151 78.9262 55.8891 72.6904 55.8891V33.2695C78.9262 33.2695 84.0002 38.3436 84.0002 44.5793Z" fill="#E2EFFE"/>
<path d="M76.0941 44.6907C76.0941 46.6097 74.4409 48.0877 72.6902 47.9816C70.9246 47.9245 69.5059 46.4696 69.5059 44.6907C69.5059 42.9119 70.9246 41.457 72.6902 41.3999C74.4329 41.2942 76.0941 42.7615 76.0941 44.6907Z" fill="white"/>
<path d="M76.0944 44.6907C76.0944 46.6097 74.4411 48.0877 72.6904 47.9816V41.3999C74.4331 41.2942 76.0944 42.7615 76.0944 44.6907Z" fill="#F0F7FE"/>
<path d="M84.0005 76.1836V80.7064C84.0005 82.5259 82.5258 84.0005 80.7064 84.0005H61.3809V76.1836H84.0005Z" fill="#F0F7FE"/>
<path d="M84 76.1836V80.7064C84 82.5259 82.5253 84.0005 80.7059 84.0005H72.8V76.1836H84Z" fill="#E2EFFE"/>
<path d="M61.3809 68.2969H84.0005V76.1841H61.3809V68.2969Z" fill="#157DF5"/>
<path d="M72.8 68.2969H84V76.1841H72.8V68.2969Z" fill="#0965CD"/>
<path d="M61.3809 60.3711H84.0005V68.2956H61.3809V60.3711Z" fill="#F0F7FE"/>
<path d="M72.8 60.3711H84V68.2956H72.8V60.3711Z" fill="#E2EFFE"/>
<path d="M84.0005 55.8898V60.3709H61.3809V55.8898C61.3809 54.0704 62.8555 52.5957 64.675 52.5957H80.7064C82.5258 52.5957 84.0005 54.0704 84.0005 55.8898Z" fill="#157DF5"/>
<path d="M84 55.8898V60.3709H72.8V52.5957H80.7059C82.5253 52.5957 84 54.0704 84 55.8898Z" fill="#0965CD"/>
<path d="M57.3004 61.4028L51.1514 69.3087C50.8395 69.7095 50.3597 69.9444 49.8513 69.9444H45.2066L37.7696 76.5557C36.7543 76.1389 35.7096 75.1924 35.5801 74.0939L43.486 67.0665C43.7879 66.7986 44.1777 66.6503 44.5807 66.6503H49.0453L54.7002 59.3802C55.2591 58.6621 56.2935 58.5325 57.0116 59.0914C57.7297 59.6503 57.8593 60.6847 57.3004 61.4028Z" fill="#40D98D"/>
<path d="M57.3001 61.4028L51.1511 69.3087C50.8392 69.7095 50.3594 69.9444 49.851 69.9444H48.5333V66.6503H49.045L54.6999 59.3802C55.2588 58.6621 56.2932 58.5325 57.0113 59.0914C57.7294 59.6503 57.859 60.6847 57.3001 61.4028Z" fill="#25BB71"/>
<path d="M57.6471 75.3255C57.6471 76.2347 56.9092 76.9725 56 76.9725H36.6745C35.7653 76.9725 35.0275 76.2347 35.0275 75.3255V62.149C35.0275 61.2398 35.7653 60.502 36.6745 60.502C37.5837 60.502 38.3216 61.2398 38.3216 62.149V73.6784H56C56.9092 73.6784 57.6471 74.4163 57.6471 75.3255Z" fill="#282A52"/>
<path d="M57.6471 75.3248C57.6471 76.234 56.9092 76.9719 56 76.9719H48.5333V73.6777H56C56.9092 73.6777 57.6471 74.4156 57.6471 75.3248Z" fill="#282A52"/>
<path d="M57.7568 38.3215H52.4863C51.5766 38.3215 50.8392 37.584 50.8392 36.6744C50.8392 35.7648 51.5766 35.0273 52.4863 35.0273H57.7568C58.6665 35.0273 59.4039 35.7648 59.4039 36.6744C59.4039 37.584 58.6665 38.3215 57.7568 38.3215Z" fill="#157DF5"/>
<path d="M56 45.3488H52.4863C51.5766 45.3488 50.8392 44.6114 50.8392 43.7017C50.8392 42.7921 51.5766 42.0547 52.4863 42.0547H56C56.9096 42.0547 57.647 42.7921 57.647 43.7017C57.647 44.6114 56.9096 45.3488 56 45.3488Z" fill="#282A52"/>
<path d="M56 52.3761H52.4863C51.5766 52.3761 50.8392 51.6387 50.8392 50.7291C50.8392 49.8195 51.5766 49.082 52.4863 49.082H56C56.9096 49.082 57.647 49.8195 57.647 50.7291C57.647 51.6387 56.9096 52.3761 56 52.3761Z" fill="#282A52"/>
<path d="M67.4196 134.128V176.706C68.3288 176.706 69.0667 177.444 69.0667 178.353C69.0667 179.262 68.3288 180 67.4196 180H31.2941C29.478 180 28 178.522 28 176.706V127.294C28 125.478 29.478 124 31.2941 124H65.7725C67.5887 124 69.0667 125.478 69.0667 127.294V132.481C69.0667 133.39 68.3288 134.128 67.4196 134.128Z" fill="#F0F7FE"/>
<path fill-rule="evenodd" clip-rule="evenodd" d="M38.1206 133V132.5C38.1206 131.672 38.7926 131 39.6206 131C40.4486 131 41.1206 131.672 41.1206 132.5V133.059C43.3856 133.419 45.121 135.385 45.121 137.75C45.121 138.765 44.8013 139.707 44.2572 140.479C45.3898 141.348 46.1211 142.715 46.1211 144.25C46.1211 146.87 43.9908 149 41.371 149H41.1206V149.5C41.1206 150.328 40.4486 151 39.6206 151C38.7926 151 38.1206 150.328 38.1206 149.5V149H35.6211C34.7931 149 34.1211 148.328 34.1211 147.5V134.5C34.1211 133.672 34.7931 133 35.6211 133H38.1206ZM37.1211 142.5H40.3708L40.4131 142.5H41.371C42.3348 142.5 43.1211 143.286 43.1211 144.25C43.1211 145.214 42.3348 146 41.371 146H37.1211V142.5ZM40.3965 139.5C41.349 139.486 42.121 138.705 42.121 137.75C42.121 136.786 41.3351 136 40.3708 136H37.1211V139.5H40.3965Z" fill="#157DF5"/>
<path fill-rule="evenodd" clip-rule="evenodd" d="M40.1211 150.914C40.7033 150.708 41.1206 150.152 41.1206 149.5V149H41.371C43.9908 149 46.1211 146.87 46.1211 144.25C46.1211 142.715 45.3898 141.348 44.2572 140.479C44.8013 139.706 45.121 138.765 45.121 137.75C45.121 135.385 43.3856 133.419 41.1206 133.059V132.5C41.1206 131.847 40.7033 131.292 40.1211 131.085V136H40.3708C41.3351 136 42.121 136.786 42.121 137.75C42.121 138.705 41.349 139.486 40.3965 139.5H40.1211V142.5H40.3708L40.4131 142.5H41.371C42.3348 142.5 43.1211 143.286 43.1211 144.25C43.1211 145.214 42.3348 146 41.371 146H40.1211V150.914Z" fill="#0965CD"/>
<path d="M67.4196 134.128V176.706C68.3288 176.706 69.0667 177.444 69.0667 178.353C69.0667 179.262 68.3288 180 67.4196 180H48.5333V124H65.7725C67.5887 124 69.0667 125.478 69.0667 127.294V132.481C69.0667 133.39 68.3288 134.128 67.4196 134.128Z" fill="#E2EFFE"/>
<path d="M72.6907 151.889C78.9369 151.889 84.0005 146.826 84.0005 140.579C84.0005 134.333 78.9369 129.27 72.6907 129.27C66.4444 129.27 61.3809 134.333 61.3809 140.579C61.3809 146.826 66.4444 151.889 72.6907 151.889Z" fill="#F0F7FE"/>
<path d="M84.0002 140.579C84.0002 146.815 78.9262 151.889 72.6904 151.889V129.27C78.9262 129.27 84.0002 134.344 84.0002 140.579Z" fill="#E2EFFE"/>
<path d="M76.0941 140.691C76.0941 142.61 74.4409 144.088 72.6902 143.982C70.9246 143.924 69.5059 142.47 69.5059 140.691C69.5059 138.912 70.9246 137.457 72.6902 137.4C74.4329 137.294 76.0941 138.761 76.0941 140.691Z" fill="white"/>
<path d="M76.0944 140.691C76.0944 142.61 74.4411 144.088 72.6904 143.982V137.4C74.4331 137.294 76.0944 138.761 76.0944 140.691Z" fill="#F0F7FE"/>
<path d="M84.0005 172.184V176.706C84.0005 178.526 82.5258 180.001 80.7064 180.001H61.3809V172.184H84.0005Z" fill="#F0F7FE"/>
<path d="M84 172.184V176.706C84 178.526 82.5253 180.001 80.7059 180.001H72.8V172.184H84Z" fill="#E2EFFE"/>
<path d="M61.3809 164.297H84.0005V172.184H61.3809V164.297Z" fill="#157DF5"/>
<path d="M72.8 164.297H84V172.184H72.8V164.297Z" fill="#0965CD"/>
<path d="M61.3809 156.371H84.0005V164.296H61.3809V156.371Z" fill="#F0F7FE"/>
<path d="M72.8 156.371H84V164.296H72.8V156.371Z" fill="#E2EFFE"/>
<path d="M84.0005 151.89V156.371H61.3809V151.89C61.3809 150.07 62.8555 148.596 64.675 148.596H80.7064C82.5258 148.596 84.0005 150.07 84.0005 151.89Z" fill="#157DF5"/>
<path d="M84 151.89V156.371H72.8V148.596H80.7059C82.5253 148.596 84 150.07 84 151.89Z" fill="#0965CD"/>
<path d="M57.3004 157.403L51.1514 165.309C50.8395 165.709 50.3597 165.944 49.8513 165.944H45.2066L37.7696 172.556C36.7543 172.139 35.7096 171.192 35.5801 170.094L43.486 163.066C43.7879 162.799 44.1777 162.65 44.5807 162.65H49.0453L54.7002 155.38C55.2591 154.662 56.2935 154.533 57.0116 155.091C57.7297 155.65 57.8593 156.685 57.3004 157.403Z" fill="#40D98D"/>
<path d="M57.3001 157.403L51.1511 165.309C50.8392 165.709 50.3594 165.944 49.851 165.944H48.5333V162.65H49.045L54.6999 155.38C55.2588 154.662 56.2932 154.533 57.0113 155.091C57.7294 155.65 57.859 156.685 57.3001 157.403Z" fill="#25BB71"/>
<path d="M57.6471 171.325C57.6471 172.235 56.9092 172.973 56 172.973H36.6745C35.7653 172.973 35.0275 172.235 35.0275 171.325V158.149C35.0275 157.24 35.7653 156.502 36.6745 156.502C37.5837 156.502 38.3216 157.24 38.3216 158.149V169.678H56C56.9092 169.678 57.6471 170.416 57.6471 171.325Z" fill="#282A52"/>
<path d="M57.6471 171.325C57.6471 172.234 56.9092 172.972 56 172.972H48.5333V169.678H56C56.9092 169.678 57.6471 170.416 57.6471 171.325Z" fill="#282A52"/>
<path d="M57.7568 134.321H52.4863C51.5766 134.321 50.8392 133.584 50.8392 132.674C50.8392 131.765 51.5766 131.027 52.4863 131.027H57.7568C58.6665 131.027 59.4039 131.765 59.4039 132.674C59.4039 133.584 58.6665 134.321 57.7568 134.321Z" fill="#157DF5"/>
<path d="M56 141.349H52.4863C51.5766 141.349 50.8392 140.611 50.8392 139.702C50.8392 138.792 51.5766 138.055 52.4863 138.055H56C56.9096 138.055 57.647 138.792 57.647 139.702C57.647 140.611 56.9096 141.349 56 141.349Z" fill="#282A52"/>
<path d="M56 148.376H52.4863C51.5766 148.376 50.8392 147.639 50.8392 146.729C50.8392 145.819 51.5766 145.082 52.4863 145.082H56C56.9096 145.082 57.647 145.819 57.647 146.729C57.647 147.639 56.9096 148.376 56 148.376Z" fill="#282A52"/>
<defs>
<filter id="filter0_d_6367_22113" x="10" y="9" width="96" height="96" filterUnits="userSpaceOnUse" color-interpolation-filters="sRGB">
<feFlood flood-opacity="0" result="BackgroundImageFix"/>
<feColorMatrix in="SourceAlpha" type="matrix" values="0 0 0 0 0 0 0 0 0 0 0 0 0 0 0 0 0 0 127 0" result="hardAlpha"/>
<feOffset dx="2" dy="1"/>
<feGaussianBlur stdDeviation="4"/>
<feColorMatrix type="matrix" values="0 0 0 0 0.0392157 0 0 0 0 0.0392157 0 0 0 0 0.0627451 0 0 0 0.08 0"/>
<feBlend mode="normal" in2="BackgroundImageFix" result="effect1_dropShadow_6367_22113"/>
<feBlend mode="normal" in="SourceGraphic" in2="effect1_dropShadow_6367_22113" result="shape"/>
</filter>
</defs>
</svg>
