<svg width="112" height="208" viewBox="0 0 112 208" fill="none" xmlns="http://www.w3.org/2000/svg">
<rect x="0.5" y="0.5" width="111" height="207" rx="4.5" stroke="#9747FF" stroke-dasharray="10 5"/>
<g filter="url(#filter0_dd_30008_10863)">
<rect x="16" y="16" width="80" height="80" rx="8" fill="white"/>
</g>
<path d="M44 58C51.4066 58 57.7015 53.3541 60 50.9792V38H28V50.9792C30.2985 53.3542 36.5934 58 44 58Z" fill="#E2EFFE"/>
<path d="M44 58C51.4066 58 57.7015 53.3542 60 50.9792V38H44V58Z" fill="#B6D7FC"/>
<path d="M44 44C52.8366 44 60 41.3137 60 38C60 34.6863 52.8366 32 44 32C35.1634 32 28 34.6863 28 38C28 41.3137 35.1634 44 44 44Z" fill="#F0F7FE"/>
<path d="M60 61.0208C57.7015 58.6459 51.4066 57 44 57C36.5934 57 30.2985 58.6458 28 61.0208V74C28 77.3137 35.1634 80 44 80C52.8366 80 60 77.3137 60 74V61.0208Z" fill="#E2EFFE"/>
<path d="M60 38.0001C60 34.6863 52.8366 32 44 32V44C52.8366 44.0001 60 41.3138 60 38.0001Z" fill="#E2EFFE"/>
<path d="M60 61.0208C57.7015 58.6458 51.4066 57 44 57V80C52.8365 80 59.9999 77.3137 60 74V61.0208Z" fill="#B6D7FC"/>
<path d="M44 54.765C44.008 54.765 44.016 54.765 44.024 54.765C51.4195 54.765 57.7051 53.1916 60 51V63.6894C58.5 65.5621 54 68 44.024 68L44 67.9762V54.765Z" fill="#0965CD"/>
<path d="M44 54.765C43.992 54.765 43.984 54.765 43.976 54.765C36.5805 54.765 30.2949 53.1916 28 51V63.6894C29.5 65.5621 34 68 43.976 68L44 67.9762V54.765Z" fill="#157DF5"/>
<path d="M64 42C64 47.514 68.486 52 74 52L77.0433 42.1842L74 32C68.486 32 64 36.486 64 42Z" fill="#FEE048"/>
<path d="M74 32V52C79.514 52 84 47.514 84 42C84 36.486 79.514 32 74 32Z" fill="#FED601"/>
<path d="M72.4175 45.6326V43.2178H73.9958L75.0603 41.7833L73.9958 40.3964H72.4175V37.9815H73.9958L74.9046 35.9315L73.9958 33.7969C73.2167 33.7969 72.5851 34.4285 72.5851 35.2076V35.1601H71.3208C70.3682 35.1601 69.5959 35.9323 69.5959 36.885V46.7291C69.5959 47.6818 70.3682 48.454 71.3208 48.454H72.5851V48.386C72.5851 49.1651 73.2167 49.7967 73.9958 49.7967L74.7176 48.2423L73.9958 45.6326H72.4175Z" fill="#F0F7FE"/>
<path d="M75.4066 48.454H75.5944C77.8159 48.454 79.6232 46.6467 79.6232 44.4252C79.6232 43.4262 79.2569 42.5118 78.6528 41.8071C79.257 41.1023 79.6232 40.1878 79.6232 39.1889C79.6232 36.9674 77.8158 35.1601 75.5944 35.1601H75.4066V35.2076C75.4066 34.4285 74.775 33.7969 73.9958 33.7969V37.9815H75.5944C76.2602 37.9815 76.8018 38.5231 76.8018 39.1889C76.8018 39.8547 76.2602 40.3964 75.5944 40.3964H73.9958V43.2179H75.5944C76.2602 43.2179 76.8018 43.7595 76.8018 44.4253C76.8018 45.0911 76.2602 45.6327 75.5944 45.6327H73.9958V49.7969C74.775 49.7969 75.4066 49.1653 75.4066 48.3862V48.454Z" fill="#E2EFFE"/>
<path d="M62.8 53C63.1077 53 63.4069 53.0992 63.6512 53.2824L63.7912 53.4016L67.5796 57.112H76.8C77.8713 57.1119 78.9021 57.5126 79.6815 58.2322C80.461 58.9517 80.9301 59.9357 80.993 60.9827L81 61.2239L81 72.888C81.0001 73.9369 80.5907 74.9461 79.8558 75.7092C79.1209 76.4723 78.1159 76.9316 77.0464 76.9931L76.8 77H57.2C56.1287 77.0001 55.0979 76.5993 54.3185 75.8798C53.539 75.1603 53.0699 74.1763 53.007 73.1293L53 72.888L53 57.112C52.9999 56.0631 53.4093 55.0539 54.1442 54.2908C54.8791 53.5277 55.8841 53.0684 56.9536 53.0069L57.2 53H62.8Z" fill="#157DF5"/>
<path fill-rule="evenodd" clip-rule="evenodd" d="M65.5253 50.9379L65.8158 51.1854L68.804 54.112H76.7998C76.7998 54.112 76.7999 54.112 76.7998 54.112C78.617 54.1119 80.3768 54.7911 81.7165 56.0278C83.0581 57.2663 83.8777 58.9727 83.9876 60.8029L83.9904 60.8493L84 61.1804L84 72.8879C84 72.8878 84 72.8879 84 72.8879C84.0001 74.7216 83.2839 76.4745 82.0166 77.7903C80.7512 79.1042 79.0332 79.8838 77.2187 79.9882L77.1743 79.9908L76.8417 80H57.2002C57.2001 80 57.2002 80 57.2002 80C55.383 80.0001 53.6232 79.3208 52.2835 78.0841C50.9419 76.8456 50.1223 75.1393 50.0124 73.309L50.0096 73.2627L50 72.9316L50 57.1121C50 57.1121 50 57.1122 50 57.1121C49.9999 55.2784 50.7161 53.5255 51.9834 52.2097C53.2488 50.8958 54.9668 50.1162 56.7813 50.0118L56.8257 50.0093L57.1583 50H62.7997C62.7997 50 62.7998 50 62.7997 50C63.7509 50 64.6827 50.3063 65.4506 50.8819L65.5253 50.9379ZM53 57.112L53 72.888L53.007 73.1293C53.0699 74.1763 53.539 75.1602 54.3185 75.8798C55.0979 76.5993 56.1287 77.0001 57.2 77H76.8L77.0464 76.9931C78.1159 76.9316 79.1209 76.4723 79.8558 75.7092C80.5907 74.9461 81.0001 73.9369 81 72.888L81 61.2239L80.993 60.9827C80.9301 59.9357 80.461 58.9517 79.6815 58.2322C78.9021 57.5126 77.8713 57.1119 76.8 57.112H67.5796L63.7912 53.4016L63.6512 53.2824C63.4069 53.0992 63.1077 53 62.8 53H57.2L56.9536 53.0069C55.8841 53.0684 54.8791 53.5277 54.1442 54.2908C53.4093 55.0539 52.9999 56.0631 53 57.112Z" fill="white"/>
<path d="M67 76.9987H76.8L77.0464 76.9918C78.1159 76.9303 79.1209 76.471 79.8558 75.7079C80.5908 74.9448 81.0001 73.9355 81 72.8867L81 61.2226L80.993 60.9814C80.9301 59.9343 80.461 58.9504 79.6816 58.2308C78.9021 57.5113 77.8713 57.1106 76.8 57.1106H67.5796L67 56.543V76.9987Z" fill="#0965CD"/>
<path d="M44 154C51.4066 154 57.7015 149.354 60 146.979V134H28V146.979C30.2985 149.354 36.5934 154 44 154Z" fill="#E2EFFE"/>
<path d="M44 154C51.4066 154 57.7015 149.354 60 146.979V134H44V154Z" fill="#B6D7FC"/>
<path d="M44 140C52.8366 140 60 137.314 60 134C60 130.686 52.8366 128 44 128C35.1634 128 28 130.686 28 134C28 137.314 35.1634 140 44 140Z" fill="#F0F7FE"/>
<path d="M60 157.021C57.7015 154.646 51.4066 153 44 153C36.5934 153 30.2985 154.646 28 157.021V170C28 173.314 35.1634 176 44 176C52.8366 176 60 173.314 60 170V157.021Z" fill="#E2EFFE"/>
<path d="M60 134C60 130.686 52.8366 128 44 128V140C52.8366 140 60 137.314 60 134Z" fill="#E2EFFE"/>
<path d="M60 157.021C57.7015 154.646 51.4066 153 44 153V176C52.8365 176 59.9999 173.314 60 170V157.021Z" fill="#B6D7FC"/>
<path d="M44 150.765C44.008 150.765 44.016 150.765 44.024 150.765C51.4195 150.765 57.7051 149.192 60 147V159.689C58.5 161.562 54 164 44.024 164L44 163.976V150.765Z" fill="#0965CD"/>
<path d="M44 150.765C43.992 150.765 43.984 150.765 43.976 150.765C36.5805 150.765 30.2949 149.192 28 147V159.689C29.5 161.562 34 164 43.976 164L44 163.976V150.765Z" fill="#157DF5"/>
<path d="M64 138C64 143.514 68.486 148 74 148L77.0433 138.184L74 128C68.486 128 64 132.486 64 138Z" fill="#FEE048"/>
<path d="M74 128V148C79.514 148 84 143.514 84 138C84 132.486 79.514 128 74 128Z" fill="#FED601"/>
<path d="M72.4175 141.633V139.218H73.9958L75.0603 137.783L73.9958 136.396H72.4175V133.982H73.9958L74.9046 131.932L73.9958 129.797C73.2167 129.797 72.5851 130.428 72.5851 131.208V131.16H71.3208C70.3682 131.16 69.5959 131.932 69.5959 132.885V142.729C69.5959 143.682 70.3682 144.454 71.3208 144.454H72.5851V144.386C72.5851 145.165 73.2167 145.797 73.9958 145.797L74.7176 144.242L73.9958 141.633H72.4175Z" fill="#F0F7FE"/>
<path d="M75.4066 144.454H75.5944C77.8159 144.454 79.6232 142.647 79.6232 140.425C79.6232 139.426 79.2569 138.512 78.6528 137.807C79.257 137.102 79.6232 136.188 79.6232 135.189C79.6232 132.967 77.8158 131.16 75.5944 131.16H75.4066V131.208C75.4066 130.428 74.775 129.797 73.9958 129.797V133.982H75.5944C76.2602 133.982 76.8018 134.523 76.8018 135.189C76.8018 135.855 76.2602 136.396 75.5944 136.396H73.9958V139.218H75.5944C76.2602 139.218 76.8018 139.76 76.8018 140.425C76.8018 141.091 76.2602 141.633 75.5944 141.633H73.9958V145.797C74.775 145.797 75.4066 145.165 75.4066 144.386V144.454Z" fill="#E2EFFE"/>
<path d="M62.8 149C63.1077 149 63.4069 149.099 63.6512 149.282L63.7912 149.402L67.5796 153.112H76.8C77.8713 153.112 78.9021 153.513 79.6815 154.232C80.461 154.952 80.9301 155.936 80.993 156.983L81 157.224L81 168.888C81.0001 169.937 80.5907 170.946 79.8558 171.709C79.1209 172.472 78.1159 172.932 77.0464 172.993L76.8 173H57.2C56.1287 173 55.0979 172.599 54.3185 171.88C53.539 171.16 53.0699 170.176 53.007 169.129L53 168.888L53 153.112C52.9999 152.063 53.4093 151.054 54.1442 150.291C54.8791 149.528 55.8841 149.068 56.9536 149.007L57.2 149H62.8Z" fill="#157DF5"/>
<path fill-rule="evenodd" clip-rule="evenodd" d="M65.5253 146.938L65.8158 147.185L68.804 150.112H76.7998C76.7998 150.112 76.7999 150.112 76.7998 150.112C78.617 150.112 80.3768 150.791 81.7165 152.028C83.0581 153.266 83.8777 154.973 83.9876 156.803L83.9904 156.849L84 157.18L84 168.888C84 168.888 84 168.888 84 168.888C84.0001 170.722 83.2839 172.474 82.0166 173.79C80.7512 175.104 79.0332 175.884 77.2187 175.988L77.1743 175.991L76.8417 176H57.2002C57.2001 176 57.2002 176 57.2002 176C55.383 176 53.6232 175.321 52.2835 174.084C50.9419 172.846 50.1223 171.139 50.0124 169.309L50.0096 169.263L50 168.932L50 153.112C50 153.112 50 153.112 50 153.112C49.9999 151.278 50.7161 149.526 51.9834 148.21C53.2488 146.896 54.9668 146.116 56.7813 146.012L56.8257 146.009L57.1583 146H62.7997C62.7997 146 62.7998 146 62.7997 146C63.7509 146 64.6827 146.306 65.4506 146.882L65.5253 146.938ZM53 153.112L53 168.888L53.007 169.129C53.0699 170.176 53.539 171.16 54.3185 171.88C55.0979 172.599 56.1287 173 57.2 173H76.8L77.0464 172.993C78.1159 172.932 79.1209 172.472 79.8558 171.709C80.5907 170.946 81.0001 169.937 81 168.888L81 157.224L80.993 156.983C80.9301 155.936 80.461 154.952 79.6815 154.232C78.9021 153.513 77.8713 153.112 76.8 153.112H67.5796L63.7912 149.402L63.6512 149.282C63.4069 149.099 63.1077 149 62.8 149H57.2L56.9536 149.007C55.8841 149.068 54.8791 149.528 54.1442 150.291C53.4093 151.054 52.9999 152.063 53 153.112Z" fill="white"/>
<path d="M67 172.999H76.8L77.0464 172.992C78.1159 172.93 79.1209 172.471 79.8558 171.708C80.5908 170.945 81.0001 169.936 81 168.887L81 157.223L80.993 156.981C80.9301 155.934 80.461 154.95 79.6816 154.231C78.9021 153.511 77.8713 153.111 76.8 153.111H67.5796L67 152.543V172.999Z" fill="#0965CD"/>
<defs>
<filter id="filter0_dd_30008_10863" x="6" y="9" width="100" height="100" filterUnits="userSpaceOnUse" color-interpolation-filters="sRGB">
<feFlood flood-opacity="0" result="BackgroundImageFix"/>
<feColorMatrix in="SourceAlpha" type="matrix" values="0 0 0 0 0 0 0 0 0 0 0 0 0 0 0 0 0 0 127 0" result="hardAlpha"/>
<feOffset dy="3"/>
<feGaussianBlur stdDeviation="5"/>
<feColorMatrix type="matrix" values="0 0 0 0 0.516667 0 0 0 0 0.578358 0 0 0 0 0.775 0 0 0 0.12 0"/>
<feBlend mode="normal" in2="BackgroundImageFix" result="effect1_dropShadow_30008_10863"/>
<feColorMatrix in="SourceAlpha" type="matrix" values="0 0 0 0 0 0 0 0 0 0 0 0 0 0 0 0 0 0 127 0" result="hardAlpha"/>
<feOffset dy="1"/>
<feGaussianBlur stdDeviation="3"/>
<feColorMatrix type="matrix" values="0 0 0 0 0.709809 0 0 0 0 0.788943 0 0 0 0 0.920833 0 0 0 0.15 0"/>
<feBlend mode="normal" in2="effect1_dropShadow_30008_10863" result="effect2_dropShadow_30008_10863"/>
<feBlend mode="normal" in="SourceGraphic" in2="effect2_dropShadow_30008_10863" result="shape"/>
</filter>
</defs>
</svg>
