<svg width="112" height="208" viewBox="0 0 112 208" fill="none" xmlns="http://www.w3.org/2000/svg">
<rect x="0.5" y="0.5" width="111" height="207" rx="4.5" stroke="#9747FF" stroke-dasharray="10 5"/>
<g filter="url(#filter0_dd_29753_11868)">
<rect x="16" y="16" width="80" height="80" rx="8" fill="white"/>
</g>
<path d="M30.6406 34.8281C29.7346 34.8281 29 35.5627 29 36.4687V82.3587C29 83.2647 29.7346 83.9993 30.6406 83.9993H48.4248L49.5186 59.2089L48.4248 34.8281H30.6406Z" fill="#F0F7FE"/>
<path d="M66.209 34.8281H48.4247V83.9993H67.8495V36.4687C67.8496 35.5627 67.1151 34.8281 66.209 34.8281Z" fill="#E2EFFE"/>
<path d="M41.708 52.4737C41.3571 52.3405 41.0412 52.2312 40.7626 52.1347C39.92 51.8429 39.5657 51.7118 39.2524 51.3957C39.0355 51.1768 38.9383 50.9155 38.9858 50.6789C39.0334 50.4419 39.2195 50.2499 39.524 50.1236C40.0125 49.9208 41.0351 50.2284 41.7412 50.643C42.5227 51.1018 43.5279 50.8405 43.9867 50.0591C44.4455 49.2777 44.1841 48.2724 43.4028 47.8136C43.1244 47.6501 42.5542 47.3447 41.8305 47.1077V46.8945C41.8305 45.9885 41.0959 45.2539 40.1899 45.2539C39.2838 45.2539 38.5492 45.9885 38.5492 46.8945V46.9896C38.4546 47.0206 38.3602 47.0541 38.2663 47.093C36.9443 47.6416 36.0339 48.713 35.7687 50.0326C35.5062 51.3391 35.9371 52.7122 36.9215 53.7055C37.7836 54.5755 38.7088 54.896 39.6884 55.2354C39.9583 55.3289 40.2374 55.4256 40.5434 55.5417C41.3862 55.8616 41.7496 56.4534 41.5402 57.1653C41.3758 57.7242 40.8009 58.0715 40.0398 58.0715C39.383 58.0715 38.6446 57.8384 38.0648 57.4481C37.3131 56.9422 36.2937 57.1413 35.7876 57.893C35.2817 58.6446 35.4807 59.6641 36.2324 60.1701C36.9281 60.6385 37.7289 60.9821 38.5491 61.1749V61.3554C38.5491 62.2615 39.2837 62.9961 40.1898 62.9961C41.0958 62.9961 41.8304 62.2615 41.8304 61.3554V61.0454C43.2104 60.5487 44.2789 59.483 44.6881 58.0911C45.387 55.7147 44.1614 53.405 41.708 52.4737Z" fill="#157DF5"/>
<path d="M59.8677 49.6328H54.0059C53.0998 49.6328 52.3652 48.8983 52.3652 47.9922C52.3652 47.0861 53.0998 46.3516 54.0059 46.3516H59.8677C60.7737 46.3516 61.5083 47.0861 61.5083 47.9922C61.5083 48.8983 60.7737 49.6328 59.8677 49.6328Z" fill="#1E203E"/>
<path d="M59.8677 56.3164H54.0059C53.0998 56.3164 52.3652 55.5818 52.3652 54.6758C52.3652 53.7697 53.0998 53.0352 54.0059 53.0352H59.8677C60.7737 53.0352 61.5083 53.7697 61.5083 54.6758C61.5083 55.5818 60.7737 56.3164 59.8677 56.3164Z" fill="#157DF5"/>
<path d="M35.3408 68.0352C35.3408 68.9412 36.0754 69.6758 36.9814 69.6758H48.4248L49.5187 67.9958L48.4248 66.3945H36.9814C36.0754 66.3945 35.3408 67.1291 35.3408 68.0352Z" fill="#E2EFFE"/>
<path d="M59.8683 69.6758C60.7743 69.6758 61.5089 68.9412 61.5089 68.0352C61.5089 67.1291 60.7743 66.3945 59.8683 66.3945H48.4248V69.6758H59.8683Z" fill="#B6D7FC"/>
<path d="M36.9814 73.0781C36.0754 73.0781 35.3408 73.8127 35.3408 74.7188C35.3408 75.6248 36.0754 76.3594 36.9814 76.3594H48.4248L49.5187 74.7188L48.4248 73.0781H36.9814Z" fill="#E2EFFE"/>
<path d="M59.8683 73.0781H48.4248V76.3594H59.8682C60.7742 76.3594 61.5088 75.6248 61.5088 74.7188C61.5088 73.8127 60.7743 73.0781 59.8683 73.0781Z" fill="#B6D7FC"/>
<path d="M48.4251 28C45.9601 28 43.7559 29.3473 42.6186 31.4529H39.4072C38.5012 31.4529 37.7666 32.1874 37.7666 33.0935V37.7338C37.7666 38.6399 38.5012 39.3745 39.4072 39.3745H48.4252L49.5191 35.4878L48.4251 28Z" fill="#157DF5"/>
<path d="M57.4428 31.4529H54.2314C53.0941 29.3473 50.8899 28 48.4248 28V39.3745H57.4428C58.3488 39.3745 59.0834 38.6399 59.0834 37.7338V33.0935C59.0834 32.1874 58.3488 31.4529 57.4428 31.4529Z" fill="#0965CD"/>
<path d="M79.4541 69C79.4541 75.6274 74.0815 81 67.4541 81C60.8267 81 55.4541 75.6274 55.4541 69C55.4541 62.3726 60.8267 57 67.4541 57C74.0815 57 79.4541 62.3726 79.4541 69Z" fill="#40D98D"/>
<path fill-rule="evenodd" clip-rule="evenodd" d="M82.4541 69C82.4541 77.2843 75.7384 84 67.4541 84C59.1698 84 52.4541 77.2843 52.4541 69C52.4541 60.7157 59.1698 54 67.4541 54C75.7384 54 82.4541 60.7157 82.4541 69ZM67.4541 81C74.0815 81 79.4541 75.6274 79.4541 69C79.4541 62.3726 74.0815 57 67.4541 57C60.8267 57 55.4541 62.3726 55.4541 69C55.4541 75.6274 60.8267 81 67.4541 81Z" fill="white"/>
<path d="M67.4541 81C74.0815 81 79.4541 75.6274 79.4541 69C79.4541 62.3726 74.0815 57 67.4541 57V81Z" fill="#25BB71"/>
<path d="M72.4774 65.4393C71.9074 64.8692 70.9831 64.8692 70.413 65.4393L66.3929 69.4594L64.4969 67.5632C63.9268 66.9929 63.0025 66.9931 62.4324 67.5632C61.8624 68.1333 61.8624 69.0576 62.4324 69.6276L65.3607 72.556C65.6345 72.8298 66.0058 72.9836 66.393 72.9836C66.7802 72.9836 67.1515 72.8298 67.4252 72.556L72.4775 67.5037C73.0476 66.9336 73.0476 66.0093 72.4774 65.4393Z" fill="white"/>
<path d="M70.4131 65.4432L67.4502 68.4061V72.535L72.4775 67.5076C73.0476 66.9375 73.0476 66.0132 72.4775 65.4432C71.9076 64.8731 70.9832 64.8731 70.4131 65.4432Z" fill="#F0F7FE"/>
<path d="M30.6406 130.828C29.7346 130.828 29 131.563 29 132.469V178.359C29 179.265 29.7346 179.999 30.6406 179.999H48.4248L49.5186 155.209L48.4248 130.828H30.6406Z" fill="#F0F7FE"/>
<path d="M66.209 130.828H48.4247V179.999H67.8495V132.469C67.8496 131.563 67.1151 130.828 66.209 130.828Z" fill="#E2EFFE"/>
<path d="M41.708 148.474C41.3571 148.341 41.0412 148.231 40.7626 148.135C39.92 147.843 39.5657 147.712 39.2524 147.396C39.0355 147.177 38.9383 146.915 38.9858 146.679C39.0334 146.442 39.2195 146.25 39.524 146.124C40.0125 145.921 41.0351 146.228 41.7412 146.643C42.5227 147.102 43.5279 146.84 43.9867 146.059C44.4455 145.278 44.1841 144.272 43.4028 143.814C43.1244 143.65 42.5542 143.345 41.8305 143.108V142.895C41.8305 141.988 41.0959 141.254 40.1899 141.254C39.2838 141.254 38.5492 141.988 38.5492 142.895V142.99C38.4546 143.021 38.3602 143.054 38.2663 143.093C36.9443 143.642 36.0339 144.713 35.7687 146.033C35.5062 147.339 35.9371 148.712 36.9215 149.706C37.7836 150.576 38.7088 150.896 39.6884 151.235C39.9583 151.329 40.2374 151.426 40.5434 151.542C41.3862 151.862 41.7496 152.453 41.5402 153.165C41.3758 153.724 40.8009 154.071 40.0398 154.071C39.383 154.071 38.6446 153.838 38.0648 153.448C37.3131 152.942 36.2937 153.141 35.7876 153.893C35.2817 154.645 35.4807 155.664 36.2324 156.17C36.9281 156.638 37.7289 156.982 38.5491 157.175V157.355C38.5491 158.261 39.2837 158.996 40.1898 158.996C41.0958 158.996 41.8304 158.261 41.8304 157.355V157.045C43.2104 156.549 44.2789 155.483 44.6881 154.091C45.387 151.715 44.1614 149.405 41.708 148.474Z" fill="#157DF5"/>
<path d="M59.8677 145.633H54.0059C53.0998 145.633 52.3652 144.898 52.3652 143.992C52.3652 143.086 53.0998 142.352 54.0059 142.352H59.8677C60.7737 142.352 61.5083 143.086 61.5083 143.992C61.5083 144.898 60.7737 145.633 59.8677 145.633Z" fill="#1E203E"/>
<path d="M59.8677 152.316H54.0059C53.0998 152.316 52.3652 151.582 52.3652 150.676C52.3652 149.77 53.0998 149.035 54.0059 149.035H59.8677C60.7737 149.035 61.5083 149.77 61.5083 150.676C61.5083 151.582 60.7737 152.316 59.8677 152.316Z" fill="#157DF5"/>
<path d="M35.3408 164.035C35.3408 164.941 36.0754 165.676 36.9814 165.676H48.4248L49.5187 163.996L48.4248 162.395H36.9814C36.0754 162.395 35.3408 163.129 35.3408 164.035Z" fill="#E2EFFE"/>
<path d="M59.8683 165.676C60.7743 165.676 61.5089 164.941 61.5089 164.035C61.5089 163.129 60.7743 162.395 59.8683 162.395H48.4248V165.676H59.8683Z" fill="#B6D7FC"/>
<path d="M36.9814 169.078C36.0754 169.078 35.3408 169.813 35.3408 170.719C35.3408 171.625 36.0754 172.359 36.9814 172.359H48.4248L49.5187 170.719L48.4248 169.078H36.9814Z" fill="#E2EFFE"/>
<path d="M59.8683 169.078H48.4248V172.359H59.8682C60.7742 172.359 61.5088 171.625 61.5088 170.719C61.5088 169.813 60.7743 169.078 59.8683 169.078Z" fill="#B6D7FC"/>
<path d="M48.4251 124C45.9601 124 43.7559 125.347 42.6186 127.453H39.4072C38.5012 127.453 37.7666 128.187 37.7666 129.093V133.734C37.7666 134.64 38.5012 135.374 39.4072 135.374H48.4252L49.5191 131.488L48.4251 124Z" fill="#157DF5"/>
<path d="M57.4428 127.453H54.2314C53.0941 125.347 50.8899 124 48.4248 124V135.374H57.4428C58.3488 135.374 59.0834 134.64 59.0834 133.734V129.093C59.0834 128.187 58.3488 127.453 57.4428 127.453Z" fill="#0965CD"/>
<path d="M79.4541 165C79.4541 171.627 74.0815 177 67.4541 177C60.8267 177 55.4541 171.627 55.4541 165C55.4541 158.373 60.8267 153 67.4541 153C74.0815 153 79.4541 158.373 79.4541 165Z" fill="#40D98D"/>
<path fill-rule="evenodd" clip-rule="evenodd" d="M82.4541 165C82.4541 173.284 75.7384 180 67.4541 180C59.1698 180 52.4541 173.284 52.4541 165C52.4541 156.716 59.1698 150 67.4541 150C75.7384 150 82.4541 156.716 82.4541 165ZM67.4541 177C74.0815 177 79.4541 171.627 79.4541 165C79.4541 158.373 74.0815 153 67.4541 153C60.8267 153 55.4541 158.373 55.4541 165C55.4541 171.627 60.8267 177 67.4541 177Z" fill="white"/>
<path d="M67.4541 177C74.0815 177 79.4541 171.627 79.4541 165C79.4541 158.373 74.0815 153 67.4541 153V177Z" fill="#25BB71"/>
<path d="M72.4774 161.439C71.9074 160.869 70.9831 160.869 70.413 161.439L66.3929 165.459L64.4969 163.563C63.9268 162.993 63.0025 162.993 62.4324 163.563C61.8624 164.133 61.8624 165.058 62.4324 165.628L65.3607 168.556C65.6345 168.83 66.0058 168.984 66.393 168.984C66.7802 168.984 67.1515 168.83 67.4252 168.556L72.4775 163.504C73.0476 162.934 73.0476 162.009 72.4774 161.439Z" fill="white"/>
<path d="M70.4131 161.443L67.4502 164.406V168.535L72.4775 163.508C73.0476 162.938 73.0476 162.013 72.4775 161.443C71.9076 160.873 70.9832 160.873 70.4131 161.443Z" fill="#F0F7FE"/>
<defs>
<filter id="filter0_dd_29753_11868" x="6" y="9" width="100" height="100" filterUnits="userSpaceOnUse" color-interpolation-filters="sRGB">
<feFlood flood-opacity="0" result="BackgroundImageFix"/>
<feColorMatrix in="SourceAlpha" type="matrix" values="0 0 0 0 0 0 0 0 0 0 0 0 0 0 0 0 0 0 127 0" result="hardAlpha"/>
<feOffset dy="3"/>
<feGaussianBlur stdDeviation="5"/>
<feColorMatrix type="matrix" values="0 0 0 0 0.516667 0 0 0 0 0.578358 0 0 0 0 0.775 0 0 0 0.12 0"/>
<feBlend mode="normal" in2="BackgroundImageFix" result="effect1_dropShadow_29753_11868"/>
<feColorMatrix in="SourceAlpha" type="matrix" values="0 0 0 0 0 0 0 0 0 0 0 0 0 0 0 0 0 0 127 0" result="hardAlpha"/>
<feOffset dy="1"/>
<feGaussianBlur stdDeviation="3"/>
<feColorMatrix type="matrix" values="0 0 0 0 0.709809 0 0 0 0 0.788943 0 0 0 0 0.920833 0 0 0 0.15 0"/>
<feBlend mode="normal" in2="effect1_dropShadow_29753_11868" result="effect2_dropShadow_29753_11868"/>
<feBlend mode="normal" in="SourceGraphic" in2="effect2_dropShadow_29753_11868" result="shape"/>
</filter>
</defs>
</svg>
