<svg width="112" height="208" viewBox="0 0 112 208" fill="none" xmlns="http://www.w3.org/2000/svg">
<rect x="0.5" y="0.5" width="111" height="207" rx="4.5" stroke="#9747FF" stroke-dasharray="10 5"/>
<g filter="url(#filter0_dd_11513_74321)">
<rect x="16" y="16" width="80" height="80" rx="8" fill="white"/>
</g>
<path d="M38.5 33.25C38.5 33.9849 38.3601 34.7199 38.045 35.3499L35.3151 38.045C34.6849 38.3599 33.9851 38.5 33.25 38.5C30.3449 38.5 28 36.1549 28 33.25C28 30.3449 30.3449 28 33.25 28C36.1551 28 38.5 30.3449 38.5 33.25Z" fill="#40D98D"/>
<path d="M84 33.25C84 36.1549 81.6551 38.5 78.75 38.5C78.0149 38.5 77.2801 38.3599 76.6501 38.045L73.955 35.3499C73.6399 34.7199 73.5 33.9849 73.5 33.25C73.5 30.3449 75.8449 28 78.75 28C81.6551 28 84 30.3449 84 33.25Z" fill="#25BB71"/>
<path d="M38.5 78.75C38.5 81.6549 36.1551 84 33.25 84C30.3449 84 28 81.6549 28 78.75C28 75.8449 30.3449 73.5 33.25 73.5C34.0199 73.5 34.7199 73.675 35.385 73.955L38.01 76.615C38.325 77.2799 38.5 77.9799 38.5 78.75Z" fill="#40D98D"/>
<path d="M84 78.75C84 81.6549 81.6551 84 78.75 84C75.8449 84 73.5 81.6549 73.5 78.75C73.5 77.9799 73.675 77.2799 73.955 76.615L76.615 73.99C77.28 73.6749 77.98 73.5 78.75 73.5C81.6551 73.5 84 75.8449 84 78.75Z" fill="#25BB71"/>
<path d="M74.0942 63.8066C73.7443 61.4267 73.4993 58.8017 73.4993 56.0017C73.4993 48.0917 75.4593 41.4066 76.6495 38.0467L73.9543 35.3516C70.6293 36.5417 64.0493 38.5017 55.9993 38.5017C53.3743 38.5017 45.3243 38.0817 38.0443 35.3516L35.3145 38.0467C38.0093 45.1866 38.4993 53.3066 38.4993 56.0017C38.4993 63.9816 36.5393 70.5966 35.3843 73.9567L38.0093 76.6167H38.0795C43.1895 74.8317 49.5592 73.5017 55.9993 73.5017C63.9795 73.5017 70.5942 75.4617 73.9543 76.6167L76.6143 73.9917C76.1593 72.6967 75.1093 69.5116 74.3743 65.3466C74.2692 64.8566 74.1993 64.3317 74.0942 63.8066ZM45.3595 40.9517C45.7445 42.4917 46.1293 44.3816 46.4445 46.4465C44.3793 46.1316 42.4895 45.7467 40.9495 45.3615C40.5295 43.0516 40.0043 41.0916 39.5493 39.5516C41.0893 40.0067 43.0493 40.5316 45.3595 40.9517ZM45.3595 71.0517C43.0493 71.4717 41.0893 71.9968 39.5493 72.4518C40.0043 70.9118 40.5295 68.9518 40.9495 66.6417C42.5245 66.2567 44.4145 65.8718 46.4796 65.5217C46.1293 67.5867 45.7443 69.4766 45.3595 71.0517ZM46.9342 61.9517C44.9742 62.1965 43.1543 62.5466 41.5443 62.9316C41.7543 61.3215 41.8942 59.5715 41.9643 57.7517H47.1442C47.1095 59.1866 47.0743 60.6217 46.9342 61.9517ZM41.9643 54.2517C41.8942 52.4316 41.7543 50.6816 41.5443 49.0716C43.1193 49.4217 44.9395 49.7716 46.8995 50.0517C47.0393 51.4167 47.1442 52.8166 47.1793 54.2517H41.9643ZM54.2493 70.0367C52.4292 70.1066 50.6792 70.2467 49.0695 70.4567C49.4193 68.8466 49.8043 67.0616 50.0493 65.0666C51.4143 64.9267 52.8145 64.8216 54.2493 64.7867V70.0367ZM54.2493 61.2867C52.9543 61.3215 51.6945 61.3916 50.4692 61.5315C50.5743 60.3416 50.6093 59.0466 50.6442 57.7516H54.2493V61.2867ZM54.2493 54.2517H50.6792C50.6442 52.9567 50.5743 51.6966 50.4692 50.4716C51.6943 50.5767 52.9543 50.6466 54.2493 50.6816V54.2517ZM54.2493 47.1816C52.8145 47.1466 51.4143 47.0417 50.0493 46.9015C49.7692 44.9415 49.4193 43.1216 49.0695 41.5466C50.6793 41.7566 52.4293 41.8965 54.2493 41.9666V47.1816ZM57.7493 50.6816C59.0443 50.6466 60.3042 50.5767 61.5295 50.4716C61.4243 51.6965 61.3545 52.9567 61.3195 54.2517H57.7493V50.6816ZM57.7493 57.7517H61.3545C61.3892 59.0467 61.4243 60.3417 61.5295 61.5316C60.3043 61.3917 59.0443 61.3216 57.7493 61.2868V57.7517ZM57.7493 70.0367V64.7867C59.1842 64.8215 60.5843 64.9266 61.9493 65.0666C62.1943 67.0616 62.5793 68.8467 62.9292 70.4567C61.3195 70.2467 59.5695 70.1066 57.7493 70.0367ZM61.9493 46.9016C60.5843 47.0417 59.1842 47.1466 57.7493 47.1817V41.9667C59.5695 41.8966 61.3195 41.7567 62.9292 41.5467C62.5793 43.1217 62.2295 44.9416 61.9493 46.9016ZM65.0992 50.0517C67.0592 49.7716 68.8793 49.4217 70.4543 49.0716C70.2443 50.6817 70.1045 52.4317 70.0343 54.2517H64.8193C64.8545 52.8166 64.9593 51.4167 65.0992 50.0517ZM64.8545 57.7517H70.0343C70.1045 59.5716 70.2443 61.3216 70.4543 62.9316C68.8442 62.5466 67.0245 62.1965 65.0645 61.9517C64.9243 60.6217 64.8892 59.1866 64.8545 57.7517ZM66.6392 71.0517C66.2542 69.4767 65.8693 67.5867 65.5192 65.5216C67.5843 65.8717 69.4742 66.2567 71.0493 66.6416C71.4693 68.9517 71.9945 70.9117 72.4495 72.4517C70.9093 71.9967 68.9493 71.4716 66.6392 71.0517ZM71.0493 45.3616C69.5093 45.7467 67.6195 46.1317 65.5543 46.4466C65.8695 44.3817 66.2543 42.4918 66.6393 40.9518C68.9495 40.5316 70.9095 40.0067 72.4495 39.5517C71.9943 41.0917 71.4692 43.0517 71.0493 45.3616Z" fill="#157DF5"/>
<path fill-rule="evenodd" clip-rule="evenodd" d="M56 73.5017C63.98 73.5017 70.5947 75.4617 73.9548 76.6167L76.6148 73.9917C76.1598 72.6967 75.1098 69.5116 74.3748 65.3466C74.3182 65.0825 74.2718 64.8083 74.2246 64.5293C74.1842 64.2907 74.1432 64.0487 74.0947 63.8066C73.7448 61.4267 73.4998 58.8017 73.4998 56.0017C73.4998 48.0917 75.4598 41.4066 76.6499 38.0467L73.9548 35.3516C70.6299 36.5417 64.0499 38.5016 56 38.5017V73.5017ZM61.5299 50.4716C60.3047 50.5767 59.0448 50.6466 57.7498 50.6816V54.2517H61.3199C61.3549 52.9567 61.4248 51.6965 61.5299 50.4716ZM61.3549 57.7517H57.7498V61.2868C59.0448 61.3216 60.3048 61.3917 61.5299 61.5316C61.4248 60.3417 61.3897 59.0467 61.3549 57.7517ZM57.7498 64.7867V70.0367C59.5699 70.1066 61.3199 70.2467 62.9297 70.4567C62.5798 68.8467 62.1948 67.0616 61.9498 65.0666C60.5848 64.9266 59.1847 64.8215 57.7498 64.7867ZM57.7498 47.1817C59.1847 47.1466 60.5848 47.0417 61.9498 46.9016C62.2299 44.9416 62.5798 43.1217 62.9297 41.5467C61.3199 41.7567 59.5699 41.8966 57.7498 41.9667V47.1817ZM70.4548 49.0716C68.8798 49.4217 67.0597 49.7716 65.0997 50.0517C64.9598 51.4167 64.8549 52.8166 64.8198 54.2517H70.0348C70.1049 52.4317 70.2448 50.6817 70.4548 49.0716ZM70.0348 57.7517H64.8549C64.8897 59.1866 64.9248 60.6217 65.0649 61.9517C67.0249 62.1965 68.8447 62.5466 70.4548 62.9316C70.2448 61.3216 70.1049 59.5716 70.0348 57.7517ZM65.5197 65.5216C65.8698 67.5867 66.2547 69.4767 66.6397 71.0517C68.9498 71.4716 70.9098 71.9967 72.4499 72.4517C71.9949 70.9117 71.4698 68.9517 71.0498 66.6416C69.4747 66.2567 67.5848 65.8717 65.5197 65.5216ZM65.5548 46.4466C67.6199 46.1317 69.5098 45.7467 71.0498 45.3616C71.4697 43.0517 71.9948 41.0917 72.4499 39.5517C70.9099 40.0067 68.9499 40.5316 66.6398 40.9518C66.2548 42.4918 65.8699 44.3817 65.5548 46.4466Z" fill="#0965CD"/>
<path fill-rule="evenodd" clip-rule="evenodd" d="M55.1418 74.7403C54.388 72.9204 54 70.9698 54 69C54 67.0302 54.388 65.0796 55.1418 63.2597C55.8956 61.4399 57.0005 59.7863 58.3934 58.3934C59.7863 57.0005 61.4399 55.8956 63.2597 55.1418C65.0796 54.388 67.0302 54 69 54C70.9698 54 72.9204 54.388 74.7403 55.1418C76.5601 55.8956 78.2137 57.0005 79.6066 58.3934C80.9995 59.7863 82.1044 61.4399 82.8582 63.2597C83.612 65.0796 84 67.0302 84 69C84 70.9698 83.612 72.9204 82.8582 74.7403C82.1044 76.5601 80.9995 78.2137 79.6066 79.6066C78.2137 80.9995 76.5601 82.1044 74.7403 82.8582C72.9204 83.612 70.9698 84 69 84C67.0302 84 65.0796 83.612 63.2597 82.8582C61.4399 82.1044 59.7863 80.9995 58.3934 79.6066C57.0005 78.2137 55.8956 76.5601 55.1418 74.7403ZM57.9134 73.5922C57.3104 72.1363 57 70.5759 57 69C57 67.4241 57.3104 65.8637 57.9134 64.4078C58.5165 62.9519 59.4004 61.629 60.5147 60.5147C61.629 59.4004 62.9519 58.5165 64.4078 57.9134C65.8637 57.3104 67.4241 57 69 57C70.5759 57 72.1363 57.3104 73.5922 57.9134C75.0481 58.5165 76.371 59.4004 77.4853 60.5147C78.5996 61.629 79.4835 62.9519 80.0866 64.4078C80.6896 65.8637 81 67.4241 81 69C81 70.5759 80.6896 72.1363 80.0866 73.5922C79.4835 75.0481 78.5996 76.371 77.4853 77.4853C76.371 78.5996 75.0481 79.4835 73.5922 80.0866C72.1363 80.6896 70.5759 81 69 81C67.4241 81 65.8637 80.6896 64.4078 80.0866C62.9519 79.4835 61.629 78.5996 60.5147 77.4853C59.4004 76.371 58.5165 75.0481 57.9134 73.5922Z" fill="white"/>
<path d="M57 69C57 70.5759 57.3104 72.1363 57.9134 73.5922C58.5165 75.0481 59.4004 76.371 60.5147 77.4853C61.629 78.5996 62.9519 79.4835 64.4078 80.0866C65.8637 80.6896 67.4241 81 69 81C70.5759 81 72.1363 80.6896 73.5922 80.0866C75.0481 79.4835 76.371 78.5996 77.4853 77.4853C78.5996 76.371 79.4835 75.0481 80.0866 73.5922C80.6896 72.1363 81 70.5759 81 69C81 67.4241 80.6896 65.8637 80.0866 64.4078C79.4835 62.9519 78.5996 61.629 77.4853 60.5147C76.371 59.4004 75.0481 58.5165 73.5922 57.9134C72.1363 57.3104 70.5759 57 69 57C67.4241 57 65.8637 57.3104 64.4078 57.9134C62.9519 58.5165 61.629 59.4004 60.5147 60.5147C59.4004 61.629 58.5165 62.9519 57.9134 64.4078C57.3104 65.8637 57 67.4241 57 69Z" fill="#40D98D"/>
<path fill-rule="evenodd" clip-rule="evenodd" d="M69 57V81C70.5759 81 72.1363 80.6896 73.5922 80.0866C75.0481 79.4835 76.371 78.5996 77.4853 77.4853C78.5996 76.371 79.4835 75.0481 80.0866 73.5922C80.6896 72.1363 81 70.5759 81 69C81 67.4241 80.6896 65.8637 80.0866 64.4078C79.4835 62.9519 78.5996 61.629 77.4853 60.5147C76.371 59.4004 75.0481 58.5165 73.5922 57.9134C72.1363 57.3104 70.5759 57 69 57Z" fill="#25BB71"/>
<path fill-rule="evenodd" clip-rule="evenodd" d="M64 69C64 68.1716 64.6716 67.5 65.5 67.5H69C69.8284 67.5 70.5 68.1716 70.5 69C70.5 69.8284 69.8284 70.5 69 70.5H65.5C64.6716 70.5 64 69.8284 64 69Z" fill="white"/>
<path fill-rule="evenodd" clip-rule="evenodd" d="M69 62.5C69.8284 62.5 70.5 63.1716 70.5 64V69C70.5 69.8284 69.8284 70.5 69 70.5C68.1716 70.5 67.5 69.8284 67.5 69V64C67.5 63.1716 68.1716 62.5 69 62.5Z" fill="white"/>
<path fill-rule="evenodd" clip-rule="evenodd" d="M69 70.5C69.8284 70.5 70.5 69.8284 70.5 69V64C70.5 63.1716 69.8284 62.5 69 62.5V70.5Z" fill="#F0F7FE"/>
<path d="M38.5 129.25C38.5 129.985 38.3601 130.72 38.045 131.35L35.3151 134.045C34.6849 134.36 33.9851 134.5 33.25 134.5C30.3449 134.5 28 132.155 28 129.25C28 126.345 30.3449 124 33.25 124C36.1551 124 38.5 126.345 38.5 129.25Z" fill="#40D98D"/>
<path d="M84 129.25C84 132.155 81.6551 134.5 78.75 134.5C78.0149 134.5 77.2801 134.36 76.6501 134.045L73.955 131.35C73.6399 130.72 73.5 129.985 73.5 129.25C73.5 126.345 75.8449 124 78.75 124C81.6551 124 84 126.345 84 129.25Z" fill="#25BB71"/>
<path d="M38.5 174.75C38.5 177.655 36.1551 180 33.25 180C30.3449 180 28 177.655 28 174.75C28 171.845 30.3449 169.5 33.25 169.5C34.0199 169.5 34.7199 169.675 35.385 169.955L38.01 172.615C38.325 173.28 38.5 173.98 38.5 174.75Z" fill="#40D98D"/>
<path d="M84 174.75C84 177.655 81.6551 180 78.75 180C75.8449 180 73.5 177.655 73.5 174.75C73.5 173.98 73.675 173.28 73.955 172.615L76.615 169.99C77.28 169.675 77.98 169.5 78.75 169.5C81.6551 169.5 84 171.845 84 174.75Z" fill="#25BB71"/>
<path d="M74.0942 159.807C73.7443 157.427 73.4993 154.802 73.4993 152.002C73.4993 144.092 75.4593 137.407 76.6495 134.047L73.9543 131.352C70.6293 132.542 64.0493 134.502 55.9993 134.502C53.3743 134.502 45.3243 134.082 38.0443 131.352L35.3145 134.047C38.0093 141.187 38.4993 149.307 38.4993 152.002C38.4993 159.982 36.5393 166.597 35.3843 169.957L38.0093 172.617H38.0795C43.1895 170.832 49.5592 169.502 55.9993 169.502C63.9795 169.502 70.5942 171.462 73.9543 172.617L76.6143 169.992C76.1593 168.697 75.1093 165.512 74.3743 161.347C74.2692 160.857 74.1993 160.332 74.0942 159.807ZM45.3595 136.952C45.7445 138.492 46.1293 140.382 46.4445 142.446C44.3793 142.132 42.4895 141.747 40.9495 141.361C40.5295 139.052 40.0043 137.092 39.5493 135.552C41.0893 136.007 43.0493 136.532 45.3595 136.952ZM45.3595 167.052C43.0493 167.472 41.0893 167.997 39.5493 168.452C40.0043 166.912 40.5295 164.952 40.9495 162.642C42.5245 162.257 44.4145 161.872 46.4796 161.522C46.1293 163.587 45.7443 165.477 45.3595 167.052ZM46.9342 157.952C44.9742 158.196 43.1543 158.547 41.5443 158.932C41.7543 157.321 41.8942 155.571 41.9643 153.752H47.1442C47.1095 155.187 47.0743 156.622 46.9342 157.952ZM41.9643 150.252C41.8942 148.432 41.7543 146.682 41.5443 145.072C43.1193 145.422 44.9395 145.772 46.8995 146.052C47.0393 147.417 47.1442 148.817 47.1793 150.252H41.9643ZM54.2493 166.037C52.4292 166.107 50.6792 166.247 49.0695 166.457C49.4193 164.847 49.8043 163.062 50.0493 161.067C51.4143 160.927 52.8145 160.822 54.2493 160.787V166.037ZM54.2493 157.287C52.9543 157.321 51.6945 157.392 50.4692 157.531C50.5743 156.342 50.6093 155.047 50.6442 153.752H54.2493V157.287ZM54.2493 150.252H50.6792C50.6442 148.957 50.5743 147.697 50.4692 146.472C51.6943 146.577 52.9543 146.647 54.2493 146.682V150.252ZM54.2493 143.182C52.8145 143.147 51.4143 143.042 50.0493 142.901C49.7692 140.941 49.4193 139.122 49.0695 137.547C50.6793 137.757 52.4293 137.896 54.2493 137.967V143.182ZM57.7493 146.682C59.0443 146.647 60.3042 146.577 61.5295 146.472C61.4243 147.696 61.3545 148.957 61.3195 150.252H57.7493V146.682ZM57.7493 153.752H61.3545C61.3892 155.047 61.4243 156.342 61.5295 157.532C60.3043 157.392 59.0443 157.322 57.7493 157.287V153.752ZM57.7493 166.037V160.787C59.1842 160.821 60.5843 160.927 61.9493 161.067C62.1943 163.062 62.5793 164.847 62.9292 166.457C61.3195 166.247 59.5695 166.107 57.7493 166.037ZM61.9493 142.902C60.5843 143.042 59.1842 143.147 57.7493 143.182V137.967C59.5695 137.897 61.3195 137.757 62.9292 137.547C62.5793 139.122 62.2295 140.942 61.9493 142.902ZM65.0992 146.052C67.0592 145.772 68.8793 145.422 70.4543 145.072C70.2443 146.682 70.1045 148.432 70.0343 150.252H64.8193C64.8545 148.817 64.9593 147.417 65.0992 146.052ZM64.8545 153.752H70.0343C70.1045 155.572 70.2443 157.322 70.4543 158.932C68.8442 158.547 67.0245 158.196 65.0645 157.952C64.9243 156.622 64.8892 155.187 64.8545 153.752ZM66.6392 167.052C66.2542 165.477 65.8693 163.587 65.5192 161.522C67.5843 161.872 69.4742 162.257 71.0493 162.642C71.4693 164.952 71.9945 166.912 72.4495 168.452C70.9093 167.997 68.9493 167.472 66.6392 167.052ZM71.0493 141.362C69.5093 141.747 67.6195 142.132 65.5543 142.447C65.8695 140.382 66.2543 138.492 66.6393 136.952C68.9495 136.532 70.9095 136.007 72.4495 135.552C71.9943 137.092 71.4692 139.052 71.0493 141.362Z" fill="#157DF5"/>
<path fill-rule="evenodd" clip-rule="evenodd" d="M56 169.502C63.98 169.502 70.5947 171.462 73.9548 172.617L76.6148 169.992C76.1598 168.697 75.1098 165.512 74.3748 161.347C74.3182 161.082 74.2718 160.808 74.2246 160.529C74.1842 160.291 74.1432 160.049 74.0947 159.807C73.7448 157.427 73.4998 154.802 73.4998 152.002C73.4998 144.092 75.4598 137.407 76.6499 134.047L73.9548 131.352C70.6299 132.542 64.0499 134.502 56 134.502V169.502ZM61.5299 146.472C60.3047 146.577 59.0448 146.647 57.7498 146.682V150.252H61.3199C61.3549 148.957 61.4248 147.696 61.5299 146.472ZM61.3549 153.752H57.7498V157.287C59.0448 157.322 60.3048 157.392 61.5299 157.532C61.4248 156.342 61.3897 155.047 61.3549 153.752ZM57.7498 160.787V166.037C59.5699 166.107 61.3199 166.247 62.9297 166.457C62.5798 164.847 62.1948 163.062 61.9498 161.067C60.5848 160.927 59.1847 160.821 57.7498 160.787ZM57.7498 143.182C59.1847 143.147 60.5848 143.042 61.9498 142.902C62.2299 140.942 62.5798 139.122 62.9297 137.547C61.3199 137.757 59.5699 137.897 57.7498 137.967V143.182ZM70.4548 145.072C68.8798 145.422 67.0597 145.772 65.0997 146.052C64.9598 147.417 64.8549 148.817 64.8198 150.252H70.0348C70.1049 148.432 70.2448 146.682 70.4548 145.072ZM70.0348 153.752H64.8549C64.8897 155.187 64.9248 156.622 65.0649 157.952C67.0249 158.196 68.8447 158.547 70.4548 158.932C70.2448 157.322 70.1049 155.572 70.0348 153.752ZM65.5197 161.522C65.8698 163.587 66.2547 165.477 66.6397 167.052C68.9498 167.472 70.9098 167.997 72.4499 168.452C71.9949 166.912 71.4698 164.952 71.0498 162.642C69.4747 162.257 67.5848 161.872 65.5197 161.522ZM65.5548 142.447C67.6199 142.132 69.5098 141.747 71.0498 141.362C71.4697 139.052 71.9948 137.092 72.4499 135.552C70.9099 136.007 68.9499 136.532 66.6398 136.952C66.2548 138.492 65.8699 140.382 65.5548 142.447Z" fill="#0965CD"/>
<path fill-rule="evenodd" clip-rule="evenodd" d="M55.1418 170.74C54.388 168.92 54 166.97 54 165C54 163.03 54.388 161.08 55.1418 159.26C55.8956 157.44 57.0005 155.786 58.3934 154.393C59.7863 153.001 61.4399 151.896 63.2597 151.142C65.0796 150.388 67.0302 150 69 150C70.9698 150 72.9204 150.388 74.7403 151.142C76.5601 151.896 78.2137 153.001 79.6066 154.393C80.9995 155.786 82.1044 157.44 82.8582 159.26C83.612 161.08 84 163.03 84 165C84 166.97 83.612 168.92 82.8582 170.74C82.1044 172.56 80.9995 174.214 79.6066 175.607C78.2137 176.999 76.5601 178.104 74.7403 178.858C72.9204 179.612 70.9698 180 69 180C67.0302 180 65.0796 179.612 63.2597 178.858C61.4399 178.104 59.7863 176.999 58.3934 175.607C57.0005 174.214 55.8956 172.56 55.1418 170.74ZM57.9134 169.592C57.3104 168.136 57 166.576 57 165C57 163.424 57.3104 161.864 57.9134 160.408C58.5165 158.952 59.4004 157.629 60.5147 156.515C61.629 155.4 62.9519 154.517 64.4078 153.913C65.8637 153.31 67.4241 153 69 153C70.5759 153 72.1363 153.31 73.5922 153.913C75.0481 154.517 76.371 155.4 77.4853 156.515C78.5996 157.629 79.4835 158.952 80.0866 160.408C80.6896 161.864 81 163.424 81 165C81 166.576 80.6896 168.136 80.0866 169.592C79.4835 171.048 78.5996 172.371 77.4853 173.485C76.371 174.6 75.0481 175.483 73.5922 176.087C72.1363 176.69 70.5759 177 69 177C67.4241 177 65.8637 176.69 64.4078 176.087C62.9519 175.483 61.629 174.6 60.5147 173.485C59.4004 172.371 58.5165 171.048 57.9134 169.592Z" fill="white"/>
<path d="M57 165C57 166.576 57.3104 168.136 57.9134 169.592C58.5165 171.048 59.4004 172.371 60.5147 173.485C61.629 174.6 62.9519 175.483 64.4078 176.087C65.8637 176.69 67.4241 177 69 177C70.5759 177 72.1363 176.69 73.5922 176.087C75.0481 175.483 76.371 174.6 77.4853 173.485C78.5996 172.371 79.4835 171.048 80.0866 169.592C80.6896 168.136 81 166.576 81 165C81 163.424 80.6896 161.864 80.0866 160.408C79.4835 158.952 78.5996 157.629 77.4853 156.515C76.371 155.4 75.0481 154.517 73.5922 153.913C72.1363 153.31 70.5759 153 69 153C67.4241 153 65.8637 153.31 64.4078 153.913C62.9519 154.517 61.629 155.4 60.5147 156.515C59.4004 157.629 58.5165 158.952 57.9134 160.408C57.3104 161.864 57 163.424 57 165Z" fill="#40D98D"/>
<path fill-rule="evenodd" clip-rule="evenodd" d="M69 153V177C70.5759 177 72.1363 176.69 73.5922 176.087C75.0481 175.483 76.371 174.6 77.4853 173.485C78.5996 172.371 79.4835 171.048 80.0866 169.592C80.6896 168.136 81 166.576 81 165C81 163.424 80.6896 161.864 80.0866 160.408C79.4835 158.952 78.5996 157.629 77.4853 156.515C76.371 155.4 75.0481 154.517 73.5922 153.913C72.1363 153.31 70.5759 153 69 153Z" fill="#25BB71"/>
<path fill-rule="evenodd" clip-rule="evenodd" d="M64 165C64 164.172 64.6716 163.5 65.5 163.5H69C69.8284 163.5 70.5 164.172 70.5 165C70.5 165.828 69.8284 166.5 69 166.5H65.5C64.6716 166.5 64 165.828 64 165Z" fill="white"/>
<path fill-rule="evenodd" clip-rule="evenodd" d="M69 158.5C69.8284 158.5 70.5 159.172 70.5 160V165C70.5 165.828 69.8284 166.5 69 166.5C68.1716 166.5 67.5 165.828 67.5 165V160C67.5 159.172 68.1716 158.5 69 158.5Z" fill="white"/>
<path fill-rule="evenodd" clip-rule="evenodd" d="M69 166.5C69.8284 166.5 70.5 165.828 70.5 165V160C70.5 159.172 69.8284 158.5 69 158.5V166.5Z" fill="#F0F7FE"/>
<defs>
<filter id="filter0_dd_11513_74321" x="6" y="9" width="100" height="100" filterUnits="userSpaceOnUse" color-interpolation-filters="sRGB">
<feFlood flood-opacity="0" result="BackgroundImageFix"/>
<feColorMatrix in="SourceAlpha" type="matrix" values="0 0 0 0 0 0 0 0 0 0 0 0 0 0 0 0 0 0 127 0" result="hardAlpha"/>
<feOffset dy="3"/>
<feGaussianBlur stdDeviation="5"/>
<feColorMatrix type="matrix" values="0 0 0 0 0.516667 0 0 0 0 0.578358 0 0 0 0 0.775 0 0 0 0.12 0"/>
<feBlend mode="normal" in2="BackgroundImageFix" result="effect1_dropShadow_11513_74321"/>
<feColorMatrix in="SourceAlpha" type="matrix" values="0 0 0 0 0 0 0 0 0 0 0 0 0 0 0 0 0 0 127 0" result="hardAlpha"/>
<feOffset dy="1"/>
<feGaussianBlur stdDeviation="3"/>
<feColorMatrix type="matrix" values="0 0 0 0 0.709809 0 0 0 0 0.788943 0 0 0 0 0.920833 0 0 0 0.15 0"/>
<feBlend mode="normal" in2="effect1_dropShadow_11513_74321" result="effect2_dropShadow_11513_74321"/>
<feBlend mode="normal" in="SourceGraphic" in2="effect2_dropShadow_11513_74321" result="shape"/>
</filter>
</defs>
</svg>
