<svg width="112" height="208" viewBox="0 0 112 208" fill="none" xmlns="http://www.w3.org/2000/svg">
<rect x="0.5" y="0.5" width="111" height="207" rx="4.5" stroke="#9747FF" stroke-dasharray="10 5"/>
<g filter="url(#filter0_dd_7407_35811)">
<rect x="16" y="16" width="80" height="80" rx="8" fill="white"/>
</g>
<path d="M30.7588 42.1115L32.2109 45.0541L55.9994 33.3153V29.6562L30.7588 42.1115Z" fill="#282A52"/>
<path d="M55.999 29.6562V33.3153L79.7875 45.0541L81.2396 42.1115L55.999 29.6562Z" fill="#1E203E"/>
<path d="M52.5145 31.4855C52.5145 33.4105 54.075 34.9709 56 34.9709L57.0937 31.4855L56 28C54.075 28 52.5145 29.5605 52.5145 31.4855Z" fill="#157DF5"/>
<path d="M56 28V34.9709C57.925 34.9709 59.4855 33.4105 59.4855 31.4855C59.4855 29.5605 57.925 28 56 28Z" fill="#0965CD"/>
<path d="M30 41.9414C28.8954 41.9414 28 42.8368 28 43.9414V81.9995C28 83.1041 28.8954 83.9995 30 83.9995H56L59.2812 65.5151L56 41.9414H30Z" fill="#E2EFFE"/>
<path d="M56 41.9414H82C83.1046 41.9414 84 42.8368 84 43.9414V81.9995C84 83.1041 83.1046 83.9995 82 83.9995H56V41.9414Z" fill="#B6D7FC"/>
<path d="M59.7744 64.0898C59.7744 63.5376 60.2221 63.0898 60.7744 63.0898H77.7719C78.3242 63.0898 78.7719 63.5376 78.7719 64.0898V76.0318C78.7719 76.5841 78.3242 77.0318 77.7719 77.0318H60.7744C60.2221 77.0318 59.7744 76.584 59.7744 76.0318V64.0898Z" fill="#F54B5E"/>
<path d="M73.1096 70.0586C73.1096 70.9647 72.3751 71.6992 71.469 71.6992H68.5048C67.7986 71.6992 67.1716 71.2473 66.9483 70.5774C66.5942 69.515 67.3849 68.418 68.5048 68.418H71.469C72.3751 68.418 73.1096 69.1525 73.1096 70.0586Z" fill="#F3263D"/>
<path d="M33.2275 77.0312C33.2275 76.1252 33.9621 75.3906 34.8682 75.3906H49.1304C50.0365 75.3906 50.7711 76.1252 50.7711 77.0312C50.7711 77.9373 50.0365 78.6719 49.1304 78.6719H34.8682C33.9621 78.6719 33.2275 77.9373 33.2275 77.0312Z" fill="#282A52"/>
<path d="M33.2275 70.0586C33.2275 69.1525 33.9621 68.418 34.8682 68.418H38.6741C39.5802 68.418 40.3147 69.1525 40.3147 70.0586C40.3147 70.9647 39.5802 71.6992 38.6741 71.6992H34.8682C33.9621 71.6992 33.2275 70.9647 33.2275 70.0586Z" fill="#282A52"/>
<path d="M61.2275 48.9102C61.2275 48.0041 61.9621 47.2695 62.8682 47.2695H77.1304C78.0365 47.2695 78.7711 48.0041 78.7711 48.9102C78.7711 49.8162 78.0365 50.5508 77.1304 50.5508H62.8682C61.9621 50.5508 61.2275 49.8162 61.2275 48.9102Z" fill="#1E203E"/>
<path d="M71.6846 55.8828C71.6846 54.9767 72.4191 54.2422 73.3252 54.2422H77.1311C78.0372 54.2422 78.7717 54.9767 78.7717 55.8828C78.7717 56.7889 78.0372 57.5234 77.1311 57.5234H73.3252C72.4191 57.5234 71.6846 56.7889 71.6846 55.8828Z" fill="#1E203E"/>
<path d="M45.6777 54.2422C45.1254 54.2422 44.6777 54.6899 44.6777 55.2422V70.6977C44.6777 71.25 45.1254 71.6977 45.6777 71.6977H56.0007L58.1882 61.9416L56.0007 54.2422H45.6777Z" fill="#157DF5"/>
<path d="M56.001 54.2422H66.3239C66.8762 54.2422 67.3239 54.6899 67.3239 55.2422V70.6978C67.3239 71.2501 66.8762 71.6978 66.3239 71.6978H56.001V54.2422Z" fill="#0965CD"/>
<path d="M33.2285 49.9141C33.2285 49.3618 33.6762 48.9141 34.2285 48.9141H51.226C51.7783 48.9141 52.226 49.3618 52.226 49.9141V61.856C52.226 62.4083 51.7783 62.856 51.226 62.856H34.2285C33.6762 62.856 33.2285 62.4083 33.2285 61.856V49.9141Z" fill="#40D98D"/>
<path d="M38.8896 55.8828C38.8896 54.9767 39.6242 54.2422 40.5303 54.2422H44.9235C45.8296 54.2422 46.5642 54.9767 46.5642 55.8828C46.5642 56.7889 45.8296 57.5234 44.9235 57.5234H40.5303C39.6242 57.5234 38.8896 56.7889 38.8896 55.8828Z" fill="#25BB71"/>
<path d="M30.7588 138.112L32.2109 141.054L55.9994 129.315V125.656L30.7588 138.112Z" fill="#282A52"/>
<path d="M55.999 125.656V129.315L79.7875 141.054L81.2396 138.112L55.999 125.656Z" fill="#1E203E"/>
<path d="M52.5145 127.485C52.5145 129.41 54.075 130.971 56 130.971L57.0937 127.485L56 124C54.075 124 52.5145 125.56 52.5145 127.485Z" fill="#157DF5"/>
<path d="M56 124V130.971C57.925 130.971 59.4855 129.41 59.4855 127.485C59.4855 125.56 57.925 124 56 124Z" fill="#0965CD"/>
<path d="M30 137.941C28.8954 137.941 28 138.837 28 139.941V177.999C28 179.104 28.8954 179.999 30 179.999H56L59.2812 161.515L56 137.941H30Z" fill="#E2EFFE"/>
<path d="M56 137.941H82C83.1046 137.941 84 138.837 84 139.941V177.999C84 179.104 83.1046 179.999 82 179.999H56V137.941Z" fill="#B6D7FC"/>
<path d="M59.7744 160.09C59.7744 159.538 60.2221 159.09 60.7744 159.09H77.7719C78.3242 159.09 78.7719 159.538 78.7719 160.09V172.032C78.7719 172.584 78.3242 173.032 77.7719 173.032H60.7744C60.2221 173.032 59.7744 172.584 59.7744 172.032V160.09Z" fill="#F54B5E"/>
<path d="M73.1096 166.059C73.1096 166.965 72.3751 167.699 71.469 167.699H68.5048C67.7986 167.699 67.1716 167.247 66.9483 166.577C66.5942 165.515 67.3849 164.418 68.5048 164.418H71.469C72.3751 164.418 73.1096 165.153 73.1096 166.059Z" fill="#F3263D"/>
<path d="M33.2275 173.031C33.2275 172.125 33.9621 171.391 34.8682 171.391H49.1304C50.0365 171.391 50.7711 172.125 50.7711 173.031C50.7711 173.937 50.0365 174.672 49.1304 174.672H34.8682C33.9621 174.672 33.2275 173.937 33.2275 173.031Z" fill="#282A52"/>
<path d="M33.2275 166.059C33.2275 165.153 33.9621 164.418 34.8682 164.418H38.6741C39.5802 164.418 40.3147 165.153 40.3147 166.059C40.3147 166.965 39.5802 167.699 38.6741 167.699H34.8682C33.9621 167.699 33.2275 166.965 33.2275 166.059Z" fill="#282A52"/>
<path d="M61.2275 144.91C61.2275 144.004 61.9621 143.27 62.8682 143.27H77.1304C78.0365 143.27 78.7711 144.004 78.7711 144.91C78.7711 145.816 78.0365 146.551 77.1304 146.551H62.8682C61.9621 146.551 61.2275 145.816 61.2275 144.91Z" fill="#1E203E"/>
<path d="M71.6846 151.883C71.6846 150.977 72.4191 150.242 73.3252 150.242H77.1311C78.0372 150.242 78.7717 150.977 78.7717 151.883C78.7717 152.789 78.0372 153.523 77.1311 153.523H73.3252C72.4191 153.523 71.6846 152.789 71.6846 151.883Z" fill="#1E203E"/>
<path d="M45.6777 150.242C45.1254 150.242 44.6777 150.69 44.6777 151.242V166.698C44.6777 167.25 45.1254 167.698 45.6777 167.698H56.0007L58.1882 157.942L56.0007 150.242H45.6777Z" fill="#157DF5"/>
<path d="M56.001 150.242H66.3239C66.8762 150.242 67.3239 150.69 67.3239 151.242V166.698C67.3239 167.25 66.8762 167.698 66.3239 167.698H56.001V150.242Z" fill="#0965CD"/>
<path d="M33.2285 145.914C33.2285 145.362 33.6762 144.914 34.2285 144.914H51.226C51.7783 144.914 52.226 145.362 52.226 145.914V157.856C52.226 158.408 51.7783 158.856 51.226 158.856H34.2285C33.6762 158.856 33.2285 158.408 33.2285 157.856V145.914Z" fill="#40D98D"/>
<path d="M38.8896 151.883C38.8896 150.977 39.6242 150.242 40.5303 150.242H44.9235C45.8296 150.242 46.5642 150.977 46.5642 151.883C46.5642 152.789 45.8296 153.523 44.9235 153.523H40.5303C39.6242 153.523 38.8896 152.789 38.8896 151.883Z" fill="#25BB71"/>
<defs>
<filter id="filter0_dd_7407_35811" x="6" y="9" width="100" height="100" filterUnits="userSpaceOnUse" color-interpolation-filters="sRGB">
<feFlood flood-opacity="0" result="BackgroundImageFix"/>
<feColorMatrix in="SourceAlpha" type="matrix" values="0 0 0 0 0 0 0 0 0 0 0 0 0 0 0 0 0 0 127 0" result="hardAlpha"/>
<feOffset dy="3"/>
<feGaussianBlur stdDeviation="5"/>
<feColorMatrix type="matrix" values="0 0 0 0 0.516667 0 0 0 0 0.578358 0 0 0 0 0.775 0 0 0 0.12 0"/>
<feBlend mode="normal" in2="BackgroundImageFix" result="effect1_dropShadow_7407_35811"/>
<feColorMatrix in="SourceAlpha" type="matrix" values="0 0 0 0 0 0 0 0 0 0 0 0 0 0 0 0 0 0 127 0" result="hardAlpha"/>
<feOffset dy="1"/>
<feGaussianBlur stdDeviation="3"/>
<feColorMatrix type="matrix" values="0 0 0 0 0.709809 0 0 0 0 0.788943 0 0 0 0 0.920833 0 0 0 0.15 0"/>
<feBlend mode="normal" in2="effect1_dropShadow_7407_35811" result="effect2_dropShadow_7407_35811"/>
<feBlend mode="normal" in="SourceGraphic" in2="effect2_dropShadow_7407_35811" result="shape"/>
</filter>
</defs>
</svg>
