<svg width="112" height="208" viewBox="0 0 112 208" fill="none" xmlns="http://www.w3.org/2000/svg">
<rect x="0.5" y="0.5" width="111" height="207" rx="4.5" stroke="#9747FF" stroke-dasharray="10 5"/>
<g filter="url(#filter0_dd_19799_58579)">
<rect x="16" y="16" width="80" height="80" rx="8" fill="white"/>
</g>
<path d="M68.2797 30.0976C68.4259 29.9238 68.6689 29.8681 68.8758 29.9609C69.16 30.0884 69.2647 30.4401 69.0968 30.7035L61.8445 42.0734C61.54 42.5509 60.8967 42.6695 60.4432 42.3319L59.7667 41.8284C59.3143 41.4916 59.2391 40.841 59.6025 40.4091L68.2797 30.0976Z" fill="#FF7E75"/>
<path d="M58.9386 40.5088C59.1591 40.0153 59.7361 39.7949 60.2274 40.0164L62.0063 40.8188C62.4975 41.0403 62.717 41.6199 62.4965 42.1134L57.306 53.729C57.0855 54.2225 56.5085 54.4429 56.0173 54.2213L54.2384 53.419C53.7471 53.1975 53.5277 52.6178 53.7482 52.1244L58.9386 40.5088Z" fill="#FFA099"/>
<path d="M75.2624 39.4899C75.4385 39.3468 75.6876 39.3379 75.8734 39.4681C76.1288 39.647 76.1658 40.0122 75.9516 40.2392L66.7026 50.0387C66.3143 50.4501 65.6603 50.4453 65.2779 50.0281L64.7077 49.4059C64.3263 48.9898 64.374 48.3366 64.8118 47.9809L75.2624 39.4899Z" fill="#FF7E75"/>
<path d="M64.14 47.9528C64.4488 47.5097 65.0568 47.4021 65.4978 47.7123L67.0951 48.836C67.5362 49.1463 67.6433 49.757 67.3345 50.2001L60.0647 60.6298C59.7558 61.0729 59.1479 61.1806 58.7068 60.8703L57.1096 59.7466C56.6685 59.4363 56.5613 58.8256 56.8702 58.3825L64.14 47.9528Z" fill="#FFA099"/>
<path d="M83.2229 52.5824C83.4455 52.5399 83.6692 52.6502 83.7717 52.8531C83.9127 53.132 83.7736 53.4715 83.4781 53.5698L70.7185 57.8173C70.1827 57.9956 69.6085 57.681 69.4678 57.1319L69.2578 56.3129C69.1173 55.7652 69.4666 55.2122 70.0196 55.1065L83.2229 52.5824Z" fill="#FF7E75"/>
<path d="M69.4297 54.7601C69.9102 54.5162 70.4966 54.7098 70.7395 55.1926L71.6188 56.9408C71.8616 57.4236 71.6688 58.0127 71.1883 58.2567L59.8766 63.9988C59.396 64.2427 58.8096 64.0491 58.5668 63.5663L57.6875 61.818C57.4447 61.3353 57.6374 60.7461 58.118 60.5022L69.4297 54.7601Z" fill="#FFA099"/>
<path d="M59.7386 67.4628C59.5911 67.29 59.5751 67.0402 59.6992 66.8498C59.8698 66.5882 60.2322 66.5405 60.4642 66.7491L66.6221 70.6414C67.0428 71.0196 67.0569 71.6765 66.6528 72.0724L66.0502 72.663C65.6471 73.0579 64.9959 73.0288 64.6293 72.5994L59.7386 67.4628Z" fill="#FFA099"/>
<path d="M63.8506 72.8296C63.4008 72.5322 63.2761 71.9248 63.5721 71.473L64.644 69.8368C64.94 69.3849 65.5446 69.2597 65.9944 69.5571L72.3335 71.1186C72.7833 71.416 72.908 72.0234 72.612 72.4752L72.5151 75.0909C72.2191 75.5428 71.6145 75.668 71.1647 75.3706L63.8506 72.8296Z" fill="#FF7E75"/>
<path d="M43.7184 30.0976C43.5721 29.9238 43.3291 29.8681 43.1223 29.9609C42.838 30.0884 42.7333 30.4401 42.9013 30.7035L50.1535 42.0734C50.4581 42.5509 51.1013 42.6695 51.5549 42.3319L52.2313 41.8284C52.6837 41.4916 52.759 40.841 52.3955 40.4091L43.7184 30.0976Z" fill="#FF7E75"/>
<path d="M53.0594 40.5088C52.8389 40.0153 52.2619 39.7949 51.7707 40.0164L49.9918 40.8188C49.5005 41.0403 49.281 41.6199 49.5015 42.1134L54.692 53.729C54.9125 54.2225 55.4895 54.4429 55.9807 54.2213L57.7597 53.419C58.2509 53.1975 58.4704 52.6178 58.2499 52.1244L53.0594 40.5088Z" fill="#FFA099"/>
<path d="M36.7162 39.4899C36.54 39.3468 36.2909 39.3379 36.1051 39.4681C35.8497 39.647 35.8127 40.0122 36.0269 40.2392L45.2759 50.0387C45.6643 50.4501 46.3182 50.4453 46.7006 50.0281L47.2709 49.4059C47.6522 48.9898 47.6045 48.3366 47.1667 47.9809L36.7162 39.4899Z" fill="#FF7E75"/>
<path d="M47.8385 47.9528C47.5297 47.5097 46.9217 47.4021 46.4807 47.7123L44.8834 48.836C44.4424 49.1463 44.3352 49.757 44.644 50.2001L51.9138 60.6298C52.2227 61.0729 52.8306 61.1806 53.2717 60.8703L54.8689 59.7466C55.31 59.4363 55.4172 58.8256 55.1083 58.3825L47.8385 47.9528Z" fill="#FFA099"/>
<path d="M28.779 52.5824C28.5565 52.5399 28.3328 52.6502 28.2302 52.8531C28.0893 53.132 28.2284 53.4715 28.5239 53.5698L41.2835 57.8173C41.8193 57.9956 42.3934 57.681 42.5342 57.1319L42.7442 56.3129C42.8846 55.7652 42.5354 55.2122 41.9823 55.1065L28.779 52.5824Z" fill="#FF7E75"/>
<path d="M42.5723 54.7601C42.0917 54.5162 41.5053 54.7098 41.2625 55.1926L40.3832 56.9408C40.1404 57.4236 40.3331 58.0127 40.8137 58.2567L52.1254 63.9988C52.6059 64.2427 53.1923 64.0491 53.4352 63.5663L54.3145 61.818C54.5573 61.3353 54.3645 60.7461 53.884 60.5022L42.5723 54.7601Z" fill="#FFA099"/>
<path d="M52.2526 67.4628C52.4001 67.29 52.4161 67.0402 52.292 66.8498C52.1214 66.5882 51.759 66.5405 51.527 66.7491L45.3691 70.6414C44.9484 71.0196 44.9344 71.6765 45.3384 72.0724L45.9411 72.663C46.3441 73.0579 46.9954 73.0288 47.3619 72.5994L52.2526 67.4628Z" fill="#FFA099"/>
<path d="M48.1407 72.8296C48.5904 72.5322 48.7151 71.9248 48.4191 71.473L47.3472 69.8368C47.0512 69.3849 46.4466 69.2597 45.9968 69.5571L39.6577 71.1186C39.2079 71.416 39.0832 72.0234 39.3792 72.4752L39.4761 75.0909C39.7721 75.5428 40.3767 75.668 40.8265 75.3706L48.1407 72.8296Z" fill="#FF7E75"/>
<path d="M60.5272 83.9814C60.4408 83.9921 60.3523 83.9974 60.2628 83.9974H52.2612C52.1716 83.9974 52.0831 83.9921 51.9968 83.9814C50.4602 83.8078 49.5144 82.1314 50.2288 80.6938L52.8498 75.4278H59.6742L62.2951 80.6938C63.0096 82.1314 62.0638 83.8078 60.5272 83.9814Z" fill="#FFDECC"/>
<path d="M59.46 76.2835H53.0607C52.4716 76.2835 51.9941 75.8039 51.9941 75.2123V70.499C51.9941 69.9074 52.4716 69.4278 53.0607 69.4278H59.46C60.049 69.4278 60.5265 69.9074 60.5265 70.499V75.2123C60.5265 75.8039 60.049 76.2835 59.46 76.2835Z" fill="#FFA099"/>
<path d="M60.3128 70.2874H52.2089C51.62 70.2874 51.1426 69.8078 51.1426 69.2162V64.5029C51.1426 63.9113 51.62 63.4317 52.2089 63.4317H60.3128C60.9017 63.4317 61.3791 63.9113 61.3791 64.5029V69.2162C61.3791 69.8078 60.9017 70.2874 60.3128 70.2874Z" fill="#FFDECC"/>
<path d="M61.1595 64.2904H51.3495C50.7606 64.2904 50.2832 63.8108 50.2832 63.2192V56.792C50.2832 56.2003 50.7606 55.7208 51.3495 55.7208H61.1595C61.7484 55.7208 62.2258 56.2003 62.2258 56.792V63.2192C62.2258 63.8108 61.7484 64.2904 61.1595 64.2904Z" fill="#FFA099"/>
<path d="M61.378 57.4361H51.1625C49.8272 57.4361 48.8204 56.2173 49.0665 54.8988L50.8259 45.4722C51.015 44.459 51.8957 43.7247 52.9219 43.7247H59.6186C60.6448 43.7247 61.5256 44.459 61.7147 45.4722L63.4741 54.8988C63.7203 56.2173 62.7134 57.4361 61.378 57.4361Z" fill="#FFDECC"/>
<path d="M50.2981 48.8674C51.2404 48.8674 52.0043 48.1 52.0043 47.1534C52.0043 46.2069 51.2404 45.4395 50.2981 45.4395C49.3557 45.4395 48.5918 46.2069 48.5918 47.1534C48.5918 48.1 49.3557 48.8674 50.2981 48.8674Z" fill="#284C5B"/>
<path d="M56.2598 83.9974H60.2607C60.3502 83.9974 60.4388 83.9921 60.5251 83.9814C62.0618 83.8078 63.0077 82.1314 62.2932 80.6938L59.672 75.4278H56.2598V83.9974Z" fill="#FFCFB5"/>
<path d="M56.2598 76.2835H59.459C60.048 76.2835 60.5254 75.8039 60.5254 75.2123V70.499C60.5254 69.9074 60.048 69.4278 59.459 69.4278H56.2598V76.2835Z" fill="#FF7E75"/>
<path d="M56.2598 70.2874H60.3121C60.9011 70.2874 61.3786 69.8078 61.3786 69.2162V64.5029C61.3786 63.9113 60.9011 63.4317 60.3121 63.4317H56.2598V70.2874Z" fill="#FFCFB5"/>
<path d="M56.2598 64.2904H61.1653C61.7543 64.2904 62.2317 63.8108 62.2317 63.2192V56.792C62.2317 56.2003 61.7543 55.7208 61.1653 55.7208H56.2598V64.2904Z" fill="#FF7E75"/>
<path d="M56.2598 57.4361H61.3696C62.7051 57.4361 63.7121 56.2173 63.4658 54.8988L61.7063 45.4722C61.5172 44.459 60.6363 43.7247 59.61 43.7247H56.2598V57.4361Z" fill="#FFCFB5"/>
<path d="M62.2229 48.8674C63.1652 48.8674 63.9291 48.1 63.9291 47.1534C63.9291 46.2069 63.1652 45.4395 62.2229 45.4395C61.2805 45.4395 60.5166 46.2069 60.5166 47.1534C60.5166 48.1 61.2805 48.8674 62.2229 48.8674Z" fill="#284C5B"/>
<circle cx="69" cy="69" r="12" fill="#40D98D"/>
<path d="M69 81C75.6274 81 81 75.6274 81 69C81 62.3726 75.6274 57 69 57V81Z" fill="#25BB71"/>
<path fill-rule="evenodd" clip-rule="evenodd" d="M84 69C84 77.2843 77.2843 84 69 84C60.7157 84 54 77.2843 54 69C54 60.7157 60.7157 54 69 54C77.2843 54 84 60.7157 84 69ZM81 69C81 75.6274 75.6274 81 69 81C62.3726 81 57 75.6274 57 69C57 62.3726 62.3726 57 69 57C75.6274 57 81 62.3726 81 69Z" fill="white"/>
<path d="M68 61C67.4478 61 67 61.4478 67 62V67H62C61.4478 67 61 67.4478 61 68V70C61 70.5522 61.4478 71 62 71H67V76C67 76.5522 67.4478 77 68 77H70C70.5522 77 71 76.5522 71 76V71H76C76.5522 71 77 70.5522 77 70V68C77 67.4478 76.5522 67 76 67H71V62C71 61.4478 70.5522 61 70 61H68Z" fill="white"/>
<path d="M69 77H70C70.5522 77 71 76.5522 71 76V71H76C76.5522 71 77 70.5522 77 70V68C77 67.4478 76.5522 67 76 67H71V62C71 61.4478 70.5522 61 70 61H69V77Z" fill="#E2EFFE"/>
<path d="M68.2797 126.098C68.4259 125.924 68.6689 125.868 68.8758 125.961C69.16 126.088 69.2647 126.44 69.0968 126.703L61.8445 138.073C61.54 138.551 60.8967 138.67 60.4432 138.332L59.7667 137.828C59.3143 137.492 59.2391 136.841 59.6025 136.409L68.2797 126.098Z" fill="#FF7E75"/>
<path d="M58.9386 136.509C59.1591 136.015 59.7361 135.795 60.2274 136.016L62.0063 136.819C62.4975 137.04 62.717 137.62 62.4965 138.113L57.306 149.729C57.0855 150.222 56.5085 150.443 56.0173 150.221L54.2384 149.419C53.7471 149.197 53.5277 148.618 53.7482 148.124L58.9386 136.509Z" fill="#FFA099"/>
<path d="M75.2624 135.49C75.4385 135.347 75.6876 135.338 75.8734 135.468C76.1288 135.647 76.1658 136.012 75.9516 136.239L66.7026 146.039C66.3143 146.45 65.6603 146.445 65.2779 146.028L64.7077 145.406C64.3263 144.99 64.374 144.337 64.8118 143.981L75.2624 135.49Z" fill="#FF7E75"/>
<path d="M64.14 143.953C64.4488 143.51 65.0568 143.402 65.4978 143.712L67.0951 144.836C67.5362 145.146 67.6433 145.757 67.3345 146.2L60.0647 156.63C59.7558 157.073 59.1479 157.181 58.7068 156.87L57.1096 155.747C56.6685 155.436 56.5613 154.826 56.8702 154.383L64.14 143.953Z" fill="#FFA099"/>
<path d="M83.2229 148.582C83.4455 148.54 83.6692 148.65 83.7717 148.853C83.9127 149.132 83.7736 149.471 83.4781 149.57L70.7185 153.817C70.1827 153.996 69.6085 153.681 69.4678 153.132L69.2578 152.313C69.1173 151.765 69.4666 151.212 70.0196 151.106L83.2229 148.582Z" fill="#FF7E75"/>
<path d="M69.4297 150.76C69.9102 150.516 70.4966 150.71 70.7395 151.193L71.6188 152.941C71.8616 153.424 71.6688 154.013 71.1883 154.257L59.8766 159.999C59.396 160.243 58.8096 160.049 58.5668 159.566L57.6875 157.818C57.4447 157.335 57.6374 156.746 58.118 156.502L69.4297 150.76Z" fill="#FFA099"/>
<path d="M59.7386 163.463C59.5911 163.29 59.5751 163.04 59.6992 162.85C59.8698 162.588 60.2322 162.541 60.4642 162.749L66.6221 166.641C67.0428 167.02 67.0569 167.676 66.6528 168.072L66.0502 168.663C65.6471 169.058 64.9959 169.029 64.6293 168.599L59.7386 163.463Z" fill="#FFA099"/>
<path d="M63.8506 168.83C63.4008 168.532 63.2761 167.925 63.5721 167.473L64.644 165.837C64.94 165.385 65.5446 165.26 65.9944 165.557L72.3335 167.119C72.7833 167.416 72.908 168.023 72.612 168.475L72.5151 171.091C72.2191 171.543 71.6145 171.668 71.1647 171.371L63.8506 168.83Z" fill="#FF7E75"/>
<path d="M43.7184 126.098C43.5721 125.924 43.3291 125.868 43.1223 125.961C42.838 126.088 42.7333 126.44 42.9013 126.703L50.1535 138.073C50.4581 138.551 51.1013 138.67 51.5549 138.332L52.2313 137.828C52.6837 137.492 52.759 136.841 52.3955 136.409L43.7184 126.098Z" fill="#FF7E75"/>
<path d="M53.0594 136.509C52.8389 136.015 52.2619 135.795 51.7707 136.016L49.9918 136.819C49.5005 137.04 49.281 137.62 49.5015 138.113L54.692 149.729C54.9125 150.222 55.4895 150.443 55.9807 150.221L57.7597 149.419C58.2509 149.197 58.4704 148.618 58.2499 148.124L53.0594 136.509Z" fill="#FFA099"/>
<path d="M36.7162 135.49C36.54 135.347 36.2909 135.338 36.1051 135.468C35.8497 135.647 35.8127 136.012 36.0269 136.239L45.2759 146.039C45.6643 146.45 46.3182 146.445 46.7006 146.028L47.2709 145.406C47.6522 144.99 47.6045 144.337 47.1667 143.981L36.7162 135.49Z" fill="#FF7E75"/>
<path d="M47.8385 143.953C47.5297 143.51 46.9217 143.402 46.4807 143.712L44.8834 144.836C44.4424 145.146 44.3352 145.757 44.644 146.2L51.9138 156.63C52.2227 157.073 52.8306 157.181 53.2717 156.87L54.8689 155.747C55.31 155.436 55.4172 154.826 55.1083 154.383L47.8385 143.953Z" fill="#FFA099"/>
<path d="M28.779 148.582C28.5565 148.54 28.3328 148.65 28.2302 148.853C28.0893 149.132 28.2284 149.471 28.5239 149.57L41.2835 153.817C41.8193 153.996 42.3934 153.681 42.5342 153.132L42.7442 152.313C42.8846 151.765 42.5354 151.212 41.9823 151.106L28.779 148.582Z" fill="#FF7E75"/>
<path d="M42.5723 150.76C42.0917 150.516 41.5053 150.71 41.2625 151.193L40.3832 152.941C40.1404 153.424 40.3331 154.013 40.8137 154.257L52.1254 159.999C52.6059 160.243 53.1923 160.049 53.4352 159.566L54.3145 157.818C54.5573 157.335 54.3645 156.746 53.884 156.502L42.5723 150.76Z" fill="#FFA099"/>
<path d="M52.2526 163.463C52.4001 163.29 52.4161 163.04 52.292 162.85C52.1214 162.588 51.759 162.541 51.527 162.749L45.3691 166.641C44.9484 167.02 44.9344 167.676 45.3384 168.072L45.9411 168.663C46.3441 169.058 46.9954 169.029 47.3619 168.599L52.2526 163.463Z" fill="#FFA099"/>
<path d="M48.1407 168.83C48.5904 168.532 48.7151 167.925 48.4191 167.473L47.3472 165.837C47.0512 165.385 46.4466 165.26 45.9968 165.557L39.6577 167.119C39.2079 167.416 39.0832 168.023 39.3792 168.475L39.4761 171.091C39.7721 171.543 40.3767 171.668 40.8265 171.371L48.1407 168.83Z" fill="#FF7E75"/>
<path d="M60.5272 179.981C60.4408 179.992 60.3523 179.997 60.2628 179.997H52.2612C52.1716 179.997 52.0831 179.992 51.9968 179.981C50.4602 179.808 49.5144 178.131 50.2288 176.694L52.8498 171.428H59.6742L62.2951 176.694C63.0096 178.131 62.0638 179.808 60.5272 179.981Z" fill="#FFDECC"/>
<path d="M59.46 172.284H53.0607C52.4716 172.284 51.9941 171.804 51.9941 171.212V166.499C51.9941 165.907 52.4716 165.428 53.0607 165.428H59.46C60.049 165.428 60.5265 165.907 60.5265 166.499V171.212C60.5265 171.804 60.049 172.284 59.46 172.284Z" fill="#FFA099"/>
<path d="M60.3128 166.287H52.2089C51.62 166.287 51.1426 165.808 51.1426 165.216V160.503C51.1426 159.911 51.62 159.432 52.2089 159.432H60.3128C60.9017 159.432 61.3791 159.911 61.3791 160.503V165.216C61.3791 165.808 60.9017 166.287 60.3128 166.287Z" fill="#FFDECC"/>
<path d="M61.1595 160.29H51.3495C50.7606 160.29 50.2832 159.811 50.2832 159.219V152.792C50.2832 152.2 50.7606 151.721 51.3495 151.721H61.1595C61.7484 151.721 62.2258 152.2 62.2258 152.792V159.219C62.2258 159.811 61.7484 160.29 61.1595 160.29Z" fill="#FFA099"/>
<path d="M61.378 153.436H51.1625C49.8272 153.436 48.8204 152.217 49.0665 150.899L50.8259 141.472C51.015 140.459 51.8957 139.725 52.9219 139.725H59.6186C60.6448 139.725 61.5256 140.459 61.7147 141.472L63.4741 150.899C63.7203 152.217 62.7134 153.436 61.378 153.436Z" fill="#FFDECC"/>
<path d="M50.2981 144.867C51.2404 144.867 52.0043 144.1 52.0043 143.153C52.0043 142.207 51.2404 141.44 50.2981 141.44C49.3557 141.44 48.5918 142.207 48.5918 143.153C48.5918 144.1 49.3557 144.867 50.2981 144.867Z" fill="#284C5B"/>
<path d="M56.2598 179.997H60.2607C60.3502 179.997 60.4388 179.992 60.5251 179.981C62.0618 179.808 63.0077 178.131 62.2932 176.694L59.672 171.428H56.2598V179.997Z" fill="#FFCFB5"/>
<path d="M56.2598 172.284H59.459C60.048 172.284 60.5254 171.804 60.5254 171.212V166.499C60.5254 165.907 60.048 165.428 59.459 165.428H56.2598V172.284Z" fill="#FF7E75"/>
<path d="M56.2598 166.287H60.3121C60.9011 166.287 61.3786 165.808 61.3786 165.216V160.503C61.3786 159.911 60.9011 159.432 60.3121 159.432H56.2598V166.287Z" fill="#FFCFB5"/>
<path d="M56.2598 160.29H61.1653C61.7543 160.29 62.2317 159.811 62.2317 159.219V152.792C62.2317 152.2 61.7543 151.721 61.1653 151.721H56.2598V160.29Z" fill="#FF7E75"/>
<path d="M56.2598 153.436H61.3696C62.7051 153.436 63.7121 152.217 63.4658 150.899L61.7063 141.472C61.5172 140.459 60.6363 139.725 59.61 139.725H56.2598V153.436Z" fill="#FFCFB5"/>
<path d="M62.2229 144.867C63.1652 144.867 63.9291 144.1 63.9291 143.153C63.9291 142.207 63.1652 141.44 62.2229 141.44C61.2805 141.44 60.5166 142.207 60.5166 143.153C60.5166 144.1 61.2805 144.867 62.2229 144.867Z" fill="#284C5B"/>
<circle cx="69" cy="165" r="12" fill="#40D98D"/>
<path d="M69 177C75.6274 177 81 171.627 81 165C81 158.373 75.6274 153 69 153V177Z" fill="#25BB71"/>
<path fill-rule="evenodd" clip-rule="evenodd" d="M84 165C84 173.284 77.2843 180 69 180C60.7157 180 54 173.284 54 165C54 156.716 60.7157 150 69 150C77.2843 150 84 156.716 84 165ZM81 165C81 171.627 75.6274 177 69 177C62.3726 177 57 171.627 57 165C57 158.373 62.3726 153 69 153C75.6274 153 81 158.373 81 165Z" fill="white"/>
<path d="M68 157C67.4478 157 67 157.448 67 158V163H62C61.4478 163 61 163.448 61 164V166C61 166.552 61.4478 167 62 167H67V172C67 172.552 67.4478 173 68 173H70C70.5522 173 71 172.552 71 172V167H76C76.5522 167 77 166.552 77 166V164C77 163.448 76.5522 163 76 163H71V158C71 157.448 70.5522 157 70 157H68Z" fill="white"/>
<path d="M69 173H70C70.5522 173 71 172.552 71 172V167H76C76.5522 167 77 166.552 77 166V164C77 163.448 76.5522 163 76 163H71V158C71 157.448 70.5522 157 70 157H69V173Z" fill="#E2EFFE"/>
<defs>
<filter id="filter0_dd_19799_58579" x="6" y="9" width="100" height="100" filterUnits="userSpaceOnUse" color-interpolation-filters="sRGB">
<feFlood flood-opacity="0" result="BackgroundImageFix"/>
<feColorMatrix in="SourceAlpha" type="matrix" values="0 0 0 0 0 0 0 0 0 0 0 0 0 0 0 0 0 0 127 0" result="hardAlpha"/>
<feOffset dy="3"/>
<feGaussianBlur stdDeviation="5"/>
<feColorMatrix type="matrix" values="0 0 0 0 0.516667 0 0 0 0 0.578358 0 0 0 0 0.775 0 0 0 0.12 0"/>
<feBlend mode="normal" in2="BackgroundImageFix" result="effect1_dropShadow_19799_58579"/>
<feColorMatrix in="SourceAlpha" type="matrix" values="0 0 0 0 0 0 0 0 0 0 0 0 0 0 0 0 0 0 127 0" result="hardAlpha"/>
<feOffset dy="1"/>
<feGaussianBlur stdDeviation="3"/>
<feColorMatrix type="matrix" values="0 0 0 0 0.709809 0 0 0 0 0.788943 0 0 0 0 0.920833 0 0 0 0.15 0"/>
<feBlend mode="normal" in2="effect1_dropShadow_19799_58579" result="effect2_dropShadow_19799_58579"/>
<feBlend mode="normal" in="SourceGraphic" in2="effect2_dropShadow_19799_58579" result="shape"/>
</filter>
</defs>
</svg>
