<svg width="112" height="208" viewBox="0 0 112 208" fill="none" xmlns="http://www.w3.org/2000/svg">
<rect x="0.5" y="0.5" width="111" height="207" rx="4.5" stroke="#9747FF" stroke-dasharray="10 5"/>
<g filter="url(#filter0_d_6367_23359)">
<rect x="16" y="16" width="80" height="80" rx="8" fill="white"/>
</g>
<path d="M47.8047 70.957H64.1974V83.0384H47.8047V70.957Z" fill="#F0F7FE"/>
<path d="M55.9961 70.957H64.1956V83.0384H55.9961V70.957Z" fill="#E2EFFE"/>
<path d="M78.6411 71.6435H33.3601C31.3059 71.6435 29.6406 69.9782 29.6406 67.924V33.364C29.6406 31.3098 31.3059 29.6445 33.3601 29.6445H78.6411C80.6954 29.6445 82.3606 31.3098 82.3606 33.364V67.924C82.3606 69.9781 80.6953 71.6435 78.6411 71.6435Z" fill="white"/>
<path d="M78.6398 29.6445H55.9961V71.6435H78.6397C80.694 71.6435 82.3592 69.9782 82.3592 67.924V33.364C82.3593 31.3098 80.694 29.6445 78.6398 29.6445Z" fill="#F0F7FE"/>
<path d="M68.9713 80.7109H43.0267C42.121 80.7109 41.3867 81.4452 41.3867 82.3509C41.3867 83.2566 42.121 83.9909 43.0267 83.9909H68.9712C69.8769 83.9909 70.6112 83.2566 70.6112 82.3509C70.6112 81.4452 69.877 80.7109 68.9713 80.7109Z" fill="#E2EFFE"/>
<path d="M29.6602 69.4103C29.6602 70.3472 30.6484 71.1095 31.8632 71.1095H79.834C81.0488 71.1095 82.0371 70.3472 82.0371 69.4103V63.2852H29.6602V69.4103Z" fill="#157DF5"/>
<path d="M68.9716 80.7109H55.9961V83.9909H68.9715C69.8772 83.9909 70.6115 83.2566 70.6115 82.3509C70.6115 81.4452 69.8773 80.7109 68.9716 80.7109Z" fill="#B6D7FC"/>
<path d="M55.9435 71.1093H79.8329C81.0477 71.1093 82.036 70.3471 82.036 69.4102V63.285H55.9435V71.1093Z" fill="#0965CD"/>
<path d="M78.6405 73.2827H33.3595C30.4042 73.2827 28 70.8785 28 67.9232V33.3634C28 30.4082 30.4042 28.0039 33.3595 28.0039H78.6405C81.5958 28.0039 84 30.4081 84 33.3634V67.9233C84 70.8785 81.5958 73.2827 78.6405 73.2827ZM33.3595 31.2839C32.2128 31.2839 31.28 32.2167 31.28 33.3634V67.9233C31.28 69.0699 32.2128 70.0028 33.3595 70.0028H78.6405C79.7872 70.0028 80.72 69.07 80.72 67.9233V33.3634C80.72 32.2168 79.7872 31.2839 78.6405 31.2839H33.3595Z" fill="#E2EFFE"/>
<path d="M78.6398 28.0039H55.9961V31.2839H78.6397C79.7864 31.2839 80.7192 32.2167 80.7192 33.3634V67.9233C80.7192 69.0699 79.7864 70.0028 78.6397 70.0028H55.9961V73.2828H78.6397C81.595 73.2828 83.9992 70.8786 83.9992 67.9233V33.3634C83.9993 30.4082 81.5951 28.0039 78.6398 28.0039Z" fill="#B6D7FC"/>
<path d="M61.9465 56.7945H50.0535C49.6107 56.7945 49.2518 56.4356 49.2518 55.9929V55.4261C49.2518 53.3515 50.9338 51.6697 53.0086 51.6697H58.9914C61.0662 51.6697 62.7481 53.3515 62.7481 55.4261V55.9929C62.7481 56.4355 62.3892 56.7945 61.9465 56.7945Z" fill="#40D98D"/>
<path d="M58.9914 51.6697H56V56.7945H61.9465C62.3892 56.7945 62.7481 56.4356 62.7481 55.9929V55.4261C62.7481 53.3515 61.0662 51.6697 58.9914 51.6697Z" fill="#25BB71"/>
<path d="M75.1983 56.7936H63.5497C63.107 56.7936 62.748 56.4347 62.748 55.992V55.7076C62.748 53.633 64.43 51.9512 66.5048 51.9512H72.2432C74.318 51.9512 75.9999 53.633 75.9999 55.7076V55.992C75.9999 56.4346 75.641 56.7936 75.1983 56.7936Z" fill="#157DF5"/>
<path d="M72.2441 51.9902C74.2973 51.9902 75.9619 53.6549 75.9619 55.708V55.9922C75.9619 56.4133 75.6204 56.7549 75.1992 56.7549H69.4141V51.9902H72.2441Z" fill="#0965CD" stroke="#0965CD" stroke-width="0.078122"/>
<path d="M51.7909 45.1286V47.7904C51.7909 50.1148 53.6753 51.9992 56 51.9992C58.3247 51.9992 60.2092 50.1148 60.2092 47.7904V46.6236L56 44.1289L51.7909 45.1286Z" fill="#FFDECC"/>
<path d="M65.2404 46.3049V48.1533C65.2404 50.4357 67.0908 52.2858 69.3733 52.2858C71.6558 52.2858 73.5062 50.4356 73.5062 48.1533V46.3049L69.5153 44.2068L65.2404 46.3049Z" fill="#FFDECC"/>
<path d="M73.5062 45.2315C73.5062 43.5061 72.1074 42.1074 70.3819 42.1074H68.3645C66.6391 42.1074 65.2402 43.5061 65.2402 45.2315V46.3037H73.5061L73.5062 45.2315Z" fill="#282A52"/>
<path d="M56 51.9992C58.3246 51.9992 60.2091 50.1148 60.2091 47.7904V46.6236L56 44.1289V51.9992Z" fill="#FFCFB5"/>
<path d="M69.375 44.2748V52.2842C71.6576 52.2842 73.5079 50.434 73.5079 48.1516V46.3033L69.517 44.2051L69.375 44.2748Z" fill="#FFCFB5"/>
<path d="M70.3837 42.1055H69.375V46.3018H73.5079V45.2295C73.5079 43.5042 72.1091 42.1055 70.3837 42.1055Z" fill="#1E203E"/>
<path d="M60.2092 44.8181C60.2092 43.0609 58.7846 41.6365 57.0273 41.6365H54.9728C53.2155 41.6365 51.7909 43.061 51.7909 44.8181V45.1308L60.2092 46.6258V44.8181Z" fill="#282A52"/>
<path d="M57.0273 41.6365H56V45.8783L60.2091 46.6258V44.8181C60.2091 43.0609 58.7845 41.6365 57.0273 41.6365Z" fill="#1E203E"/>
<path d="M48.4503 56.7956H36.8016C36.3589 56.7956 36 56.4367 36 55.994V55.7095C36 53.6349 37.682 51.9531 39.7567 51.9531H45.4952C47.5699 51.9531 49.2519 53.6349 49.2519 55.7095V55.994C49.2519 56.4367 48.893 56.7956 48.4503 56.7956Z" fill="#157DF5"/>
<path d="M45.4941 51.9922C47.5473 51.9922 49.2119 53.6569 49.2119 55.71V55.9941C49.2119 56.4152 48.8704 56.7568 48.4492 56.7568H42.6641V51.9922H45.4941Z" fill="#0965CD" stroke="#0965CD" stroke-width="0.078122"/>
<path d="M45.741 42.1926C45.741 40.44 44.3288 39.0173 42.5801 39.0001C40.8024 38.9827 39.3525 40.4885 39.3555 42.2661C39.3561 42.6554 39.3662 42.842 39.5184 43.202L45.61 43.1041C45.7519 42.7429 45.741 42.6042 45.741 42.1926Z" fill="#282A52"/>
<path d="M42.627 39V43.1504L45.6114 43.1024C45.7533 42.7411 45.7424 42.6024 45.7424 42.1908C45.7424 40.4536 44.3545 39.0412 42.627 39Z" fill="#1E203E"/>
<path d="M38.4922 46.3043V48.1526C38.4922 50.435 40.3426 52.2852 42.6252 52.2852C44.9077 52.2852 46.7581 50.435 46.7581 48.1526V46.3043L42.6588 44.9707L38.4922 46.3043Z" fill="#FFDECC"/>
<path d="M42.627 44.9814V52.2852C44.9095 52.2852 46.7599 50.435 46.7599 48.1526V46.3043L42.6605 44.9707L42.627 44.9814Z" fill="#FFCFB5"/>
<path d="M46.7581 45.2295C46.7581 43.5042 45.3594 42.1055 43.6338 42.1055H41.6165C39.891 42.1055 38.4922 43.5041 38.4922 45.2295V46.3018H46.7581V45.2295H46.7581Z" fill="#282A52"/>
<path d="M43.6356 42.1172H42.627V46.3135H46.7599V45.2412C46.7599 43.5158 45.3611 42.1172 43.6356 42.1172Z" fill="#1E203E"/>
<path d="M47.8047 166.957H64.1974V179.038H47.8047V166.957Z" fill="#F0F7FE"/>
<path d="M55.9961 166.957H64.1956V179.038H55.9961V166.957Z" fill="#E2EFFE"/>
<path d="M78.6411 167.643H33.3601C31.3059 167.643 29.6406 165.978 29.6406 163.924V129.364C29.6406 127.31 31.3059 125.645 33.3601 125.645H78.6411C80.6954 125.645 82.3606 127.31 82.3606 129.364V163.924C82.3606 165.978 80.6953 167.643 78.6411 167.643Z" fill="white"/>
<path d="M78.6398 125.645H55.9961V167.643H78.6397C80.694 167.643 82.3592 165.978 82.3592 163.924V129.364C82.3593 127.31 80.694 125.645 78.6398 125.645Z" fill="#F0F7FE"/>
<path d="M68.9713 176.711H43.0267C42.121 176.711 41.3867 177.445 41.3867 178.351C41.3867 179.257 42.121 179.991 43.0267 179.991H68.9712C69.8769 179.991 70.6112 179.257 70.6112 178.351C70.6112 177.445 69.877 176.711 68.9713 176.711Z" fill="#E2EFFE"/>
<path d="M29.6602 165.41C29.6602 166.347 30.6484 167.109 31.8632 167.109H79.834C81.0488 167.109 82.0371 166.347 82.0371 165.41V159.285H29.6602V165.41Z" fill="#157DF5"/>
<path d="M68.9716 176.711H55.9961V179.991H68.9715C69.8772 179.991 70.6115 179.257 70.6115 178.351C70.6115 177.445 69.8773 176.711 68.9716 176.711Z" fill="#B6D7FC"/>
<path d="M55.9435 167.109H79.8329C81.0477 167.109 82.036 166.347 82.036 165.41V159.285H55.9435V167.109Z" fill="#0965CD"/>
<path d="M78.6405 169.283H33.3595C30.4042 169.283 28 166.878 28 163.923V129.363C28 126.408 30.4042 124.004 33.3595 124.004H78.6405C81.5958 124.004 84 126.408 84 129.363V163.923C84 166.878 81.5958 169.283 78.6405 169.283ZM33.3595 127.284C32.2128 127.284 31.28 128.217 31.28 129.363V163.923C31.28 165.07 32.2128 166.003 33.3595 166.003H78.6405C79.7872 166.003 80.72 165.07 80.72 163.923V129.363C80.72 128.217 79.7872 127.284 78.6405 127.284H33.3595Z" fill="#E2EFFE"/>
<path d="M78.6398 124.004H55.9961V127.284H78.6397C79.7864 127.284 80.7192 128.217 80.7192 129.363V163.923C80.7192 165.07 79.7864 166.003 78.6397 166.003H55.9961V169.283H78.6397C81.595 169.283 83.9992 166.879 83.9992 163.923V129.363C83.9993 126.408 81.5951 124.004 78.6398 124.004Z" fill="#B6D7FC"/>
<path d="M61.9465 152.795H50.0535C49.6107 152.795 49.2518 152.436 49.2518 151.993V151.426C49.2518 149.351 50.9338 147.67 53.0086 147.67H58.9914C61.0662 147.67 62.7481 149.351 62.7481 151.426V151.993C62.7481 152.436 62.3892 152.795 61.9465 152.795Z" fill="#40D98D"/>
<path d="M58.9914 147.67H56V152.795H61.9465C62.3892 152.795 62.7481 152.436 62.7481 151.993V151.426C62.7481 149.351 61.0662 147.67 58.9914 147.67Z" fill="#25BB71"/>
<path d="M75.1983 152.794H63.5497C63.107 152.794 62.748 152.435 62.748 151.992V151.708C62.748 149.633 64.43 147.951 66.5048 147.951H72.2432C74.318 147.951 75.9999 149.633 75.9999 151.708V151.992C75.9999 152.435 75.641 152.794 75.1983 152.794Z" fill="#157DF5"/>
<path d="M72.2441 147.99C74.2973 147.99 75.9619 149.655 75.9619 151.708V151.992C75.9619 152.413 75.6204 152.755 75.1992 152.755H69.4141V147.99H72.2441Z" fill="#0965CD" stroke="#0965CD" stroke-width="0.078122"/>
<path d="M51.7909 141.129V143.79C51.7909 146.115 53.6753 147.999 56 147.999C58.3247 147.999 60.2092 146.115 60.2092 143.79V142.624L56 140.129L51.7909 141.129Z" fill="#FFDECC"/>
<path d="M65.2404 142.305V144.153C65.2404 146.436 67.0908 148.286 69.3733 148.286C71.6558 148.286 73.5062 146.436 73.5062 144.153V142.305L69.5153 140.207L65.2404 142.305Z" fill="#FFDECC"/>
<path d="M73.5062 141.231C73.5062 139.506 72.1074 138.107 70.3819 138.107H68.3645C66.6391 138.107 65.2402 139.506 65.2402 141.231V142.304H73.5061L73.5062 141.231Z" fill="#282A52"/>
<path d="M56 147.999C58.3246 147.999 60.2091 146.115 60.2091 143.79V142.624L56 140.129V147.999Z" fill="#FFCFB5"/>
<path d="M69.375 140.275V148.284C71.6576 148.284 73.5079 146.434 73.5079 144.152V142.303L69.517 140.205L69.375 140.275Z" fill="#FFCFB5"/>
<path d="M70.3837 138.105H69.375V142.302H73.5079V141.23C73.5079 139.504 72.1091 138.105 70.3837 138.105Z" fill="#1E203E"/>
<path d="M60.2092 140.818C60.2092 139.061 58.7846 137.636 57.0273 137.636H54.9728C53.2155 137.636 51.7909 139.061 51.7909 140.818V141.131L60.2092 142.626V140.818Z" fill="#282A52"/>
<path d="M57.0273 137.636H56V141.878L60.2091 142.626V140.818C60.2091 139.061 58.7845 137.636 57.0273 137.636Z" fill="#1E203E"/>
<path d="M48.4503 152.796H36.8016C36.3589 152.796 36 152.437 36 151.994V151.71C36 149.635 37.682 147.953 39.7567 147.953H45.4952C47.5699 147.953 49.2519 149.635 49.2519 151.71V151.994C49.2519 152.437 48.893 152.796 48.4503 152.796Z" fill="#157DF5"/>
<path d="M45.4941 147.992C47.5473 147.992 49.2119 149.657 49.2119 151.71V151.994C49.2119 152.415 48.8704 152.757 48.4492 152.757H42.6641V147.992H45.4941Z" fill="#0965CD" stroke="#0965CD" stroke-width="0.078122"/>
<path d="M45.741 138.193C45.741 136.44 44.3288 135.017 42.5801 135C40.8024 134.983 39.3525 136.489 39.3555 138.266C39.3561 138.655 39.3662 138.842 39.5184 139.202L45.61 139.104C45.7519 138.743 45.741 138.604 45.741 138.193Z" fill="#282A52"/>
<path d="M42.627 135V139.15L45.6114 139.102C45.7533 138.741 45.7424 138.602 45.7424 138.191C45.7424 136.454 44.3545 135.041 42.627 135Z" fill="#1E203E"/>
<path d="M38.4922 142.304V144.153C38.4922 146.435 40.3426 148.285 42.6252 148.285C44.9077 148.285 46.7581 146.435 46.7581 144.153V142.304L42.6588 140.971L38.4922 142.304Z" fill="#FFDECC"/>
<path d="M42.627 140.981V148.285C44.9095 148.285 46.7599 146.435 46.7599 144.153V142.304L42.6605 140.971L42.627 140.981Z" fill="#FFCFB5"/>
<path d="M46.7581 141.23C46.7581 139.504 45.3594 138.105 43.6338 138.105H41.6165C39.891 138.105 38.4922 139.504 38.4922 141.23V142.302H46.7581V141.23H46.7581Z" fill="#282A52"/>
<path d="M43.6356 138.117H42.627V142.313H46.7599V141.241C46.7599 139.516 45.3611 138.117 43.6356 138.117Z" fill="#1E203E"/>
<defs>
<filter id="filter0_d_6367_23359" x="10" y="9" width="96" height="96" filterUnits="userSpaceOnUse" color-interpolation-filters="sRGB">
<feFlood flood-opacity="0" result="BackgroundImageFix"/>
<feColorMatrix in="SourceAlpha" type="matrix" values="0 0 0 0 0 0 0 0 0 0 0 0 0 0 0 0 0 0 127 0" result="hardAlpha"/>
<feOffset dx="2" dy="1"/>
<feGaussianBlur stdDeviation="4"/>
<feColorMatrix type="matrix" values="0 0 0 0 0.0392157 0 0 0 0 0.0392157 0 0 0 0 0.0627451 0 0 0 0.08 0"/>
<feBlend mode="normal" in2="BackgroundImageFix" result="effect1_dropShadow_6367_23359"/>
<feBlend mode="normal" in="SourceGraphic" in2="effect1_dropShadow_6367_23359" result="shape"/>
</filter>
</defs>
</svg>
