<svg width="112" height="208" viewBox="0 0 112 208" fill="none" xmlns="http://www.w3.org/2000/svg">
<rect x="0.5" y="0.5" width="111" height="207" rx="4.5" stroke="#9747FF" stroke-dasharray="10 5"/>
<g filter="url(#filter0_d_6367_24469)">
<rect x="16" y="16" width="80" height="80" rx="8" fill="white"/>
</g>
<path d="M68.0436 62.9115H43.4414C42.8503 62.9115 42.3047 62.5935 42.0135 62.079C41.7224 61.5645 41.7306 60.933 42.0349 60.4263C42.035 60.426 42.7877 59.1729 43.7229 57.6123C46.2285 53.437 50.809 50.8438 55.6773 50.8438H55.8074C60.6758 50.8438 65.2563 53.437 67.7614 57.6114C67.7615 57.6118 67.7617 57.612 67.7618 57.6123C68.6972 59.173 69.4499 60.4263 69.4499 60.4263C69.7542 60.9332 69.7624 61.5645 69.4713 62.079C69.1801 62.5935 68.6348 62.9115 68.0436 62.9115Z" fill="#40D98D"/>
<path d="M69.4719 62.079C69.7631 61.5645 69.7549 60.933 69.4506 60.4263C69.4506 60.4263 68.6979 59.173 67.7625 57.6123C67.7624 57.612 67.7622 57.6118 67.7621 57.6114C65.2569 53.437 60.6764 50.8438 55.808 50.8438H55.7412V62.9115H68.044C68.6353 62.9115 69.1808 62.5935 69.4719 62.079Z" fill="#25BB71"/>
<path d="M68.5405 51.7782C67.9604 51.0821 68.0544 50.0476 68.7504 49.4675C69.4921 48.8494 69.9175 47.9413 69.9175 46.976V41.9414C69.9175 41.0353 70.652 40.3008 71.5581 40.3008C72.4642 40.3008 73.1987 41.0353 73.1987 41.9414V46.976C73.1987 48.9179 72.3431 50.7447 70.8512 51.988C70.1181 52.5991 69.0887 52.4359 68.5405 51.7782Z" fill="#B6D7FC"/>
<path d="M64.5293 47.0971H68.0438C70.892 47.0971 73.199 44.7934 73.199 41.9419V40.1846C73.199 37.3144 70.8709 35.0293 68.0438 35.0293H64.5293C63.6232 35.0293 62.8887 35.7639 62.8887 36.6699V45.4565C62.8887 46.3625 63.6232 47.0971 64.5293 47.0971Z" fill="#0965CD"/>
<path d="M46.9568 47.0971H43.4423C40.5942 47.0971 38.2871 44.7934 38.2871 41.9419V40.1846C38.2871 37.3144 40.6153 35.0293 43.4423 35.0293H46.9568C47.8629 35.0293 48.5975 35.7639 48.5975 36.6699V45.4565C48.5975 46.3625 47.863 47.0971 46.9568 47.0971Z" fill="#157DF5"/>
<path d="M55.7453 54.126C49.9933 54.126 45.3164 49.4492 45.3164 43.7008V38.4253C45.3164 32.6768 49.9933 28 55.7418 28C61.4938 28 66.1706 32.6768 66.1706 38.4253V43.7007C66.1706 49.4492 61.4938 54.126 55.7453 54.126Z" fill="#FFDECC"/>
<path d="M66.17 43.7008V38.4253C66.17 32.6768 61.4932 28 55.7412 28V54.126H55.7447C61.4932 54.126 66.17 49.4492 66.17 43.7008Z" fill="#FFCFB5"/>
<path d="M71.559 83.9996H39.9278C39.175 83.9996 38.5187 83.4872 38.3362 82.7569C38.3362 82.7569 35.7002 72.2131 34.1565 66.0362C33.7683 64.4849 34.1101 62.8728 35.0943 61.6135C36.0776 60.3537 37.5587 59.6309 39.1573 59.6309H72.3298C73.9283 59.6309 75.4094 60.3537 76.3933 61.6142C77.3769 62.873 77.7187 64.4851 77.3304 66.0367C75.7868 72.2131 73.1507 82.7569 73.1507 82.7569C72.968 83.4872 72.3117 83.9996 71.559 83.9996Z" fill="#157DF5"/>
<path d="M73.1501 82.7569C73.1501 82.7569 75.7863 72.2131 77.3299 66.0367C77.7181 64.4851 77.3764 62.873 76.3927 61.6142C75.4088 60.3538 73.9278 59.6309 72.3292 59.6309H55.7412V83.9996H71.5586C72.3113 83.9996 72.9676 83.4872 73.1501 82.7569Z" fill="#0965CD"/>
<path d="M55.7431 76.9706C52.9005 76.9706 50.5879 74.6579 50.5879 71.8153C50.5879 68.9728 52.9005 66.6602 55.7431 66.6602C58.5856 66.6602 60.8983 68.9728 60.8983 71.8153C60.8983 74.6579 58.5856 76.9706 55.7431 76.9706Z" fill="#E2EFFE"/>
<path d="M60.8982 71.8153C60.8982 68.9728 58.5855 66.6602 55.743 66.6602C55.7424 66.6602 55.7418 66.6602 55.7412 66.6602V76.9705H55.743C58.5855 76.9705 60.8982 74.6579 60.8982 71.8153Z" fill="#B6D7FC"/>
<path d="M68.0436 158.912H43.4414C42.8503 158.912 42.3047 158.593 42.0135 158.079C41.7224 157.564 41.7306 156.933 42.0349 156.426C42.035 156.426 42.7877 155.173 43.7229 153.612C46.2285 149.437 50.809 146.844 55.6773 146.844H55.8074C60.6758 146.844 65.2563 149.437 67.7614 153.611C67.7615 153.612 67.7617 153.612 67.7618 153.612C68.6972 155.173 69.4499 156.426 69.4499 156.426C69.7542 156.933 69.7624 157.564 69.4713 158.079C69.1801 158.593 68.6348 158.912 68.0436 158.912Z" fill="#40D98D"/>
<path d="M69.4719 158.079C69.7631 157.564 69.7549 156.933 69.4506 156.426C69.4506 156.426 68.6979 155.173 67.7625 153.612C67.7624 153.612 67.7622 153.612 67.7621 153.611C65.2569 149.437 60.6764 146.844 55.808 146.844H55.7412V158.912H68.044C68.6353 158.912 69.1808 158.593 69.4719 158.079Z" fill="#25BB71"/>
<path d="M68.5405 147.778C67.9604 147.082 68.0544 146.048 68.7504 145.467C69.4921 144.849 69.9175 143.941 69.9175 142.976V137.941C69.9175 137.035 70.652 136.301 71.5581 136.301C72.4642 136.301 73.1987 137.035 73.1987 137.941V142.976C73.1987 144.918 72.3431 146.745 70.8512 147.988C70.1181 148.599 69.0887 148.436 68.5405 147.778Z" fill="#B6D7FC"/>
<path d="M64.5293 143.097H68.0438C70.892 143.097 73.199 140.793 73.199 137.942V136.185C73.199 133.314 70.8709 131.029 68.0438 131.029H64.5293C63.6232 131.029 62.8887 131.764 62.8887 132.67V141.456C62.8887 142.363 63.6232 143.097 64.5293 143.097Z" fill="#0965CD"/>
<path d="M46.9568 143.097H43.4423C40.5942 143.097 38.2871 140.793 38.2871 137.942V136.185C38.2871 133.314 40.6153 131.029 43.4423 131.029H46.9568C47.8629 131.029 48.5975 131.764 48.5975 132.67V141.456C48.5975 142.363 47.863 143.097 46.9568 143.097Z" fill="#157DF5"/>
<path d="M55.7453 150.126C49.9933 150.126 45.3164 145.449 45.3164 139.701V134.425C45.3164 128.677 49.9933 124 55.7418 124C61.4938 124 66.1706 128.677 66.1706 134.425V139.701C66.1706 145.449 61.4938 150.126 55.7453 150.126Z" fill="#FFDECC"/>
<path d="M66.17 139.701V134.425C66.17 128.677 61.4932 124 55.7412 124V150.126H55.7447C61.4932 150.126 66.17 145.449 66.17 139.701Z" fill="#FFCFB5"/>
<path d="M71.559 180H39.9278C39.175 180 38.5187 179.487 38.3362 178.757C38.3362 178.757 35.7002 168.213 34.1565 162.036C33.7683 160.485 34.1101 158.873 35.0943 157.613C36.0776 156.354 37.5587 155.631 39.1573 155.631H72.3298C73.9283 155.631 75.4094 156.354 76.3933 157.614C77.3769 158.873 77.7187 160.485 77.3304 162.037C75.7868 168.213 73.1507 178.757 73.1507 178.757C72.968 179.487 72.3117 180 71.559 180Z" fill="#157DF5"/>
<path d="M73.1501 178.757C73.1501 178.757 75.7863 168.213 77.3299 162.037C77.7181 160.485 77.3764 158.873 76.3927 157.614C75.4088 156.354 73.9278 155.631 72.3292 155.631H55.7412V180H71.5586C72.3113 180 72.9676 179.487 73.1501 178.757Z" fill="#0965CD"/>
<path d="M55.7431 172.971C52.9005 172.971 50.5879 170.658 50.5879 167.815C50.5879 164.973 52.9005 162.66 55.7431 162.66C58.5856 162.66 60.8983 164.973 60.8983 167.815C60.8983 170.658 58.5856 172.971 55.7431 172.971Z" fill="#E2EFFE"/>
<path d="M60.8982 167.815C60.8982 164.973 58.5855 162.66 55.743 162.66C55.7424 162.66 55.7418 162.66 55.7412 162.66V172.97H55.743C58.5855 172.97 60.8982 170.658 60.8982 167.815Z" fill="#B6D7FC"/>
<defs>
<filter id="filter0_d_6367_24469" x="10" y="9" width="96" height="96" filterUnits="userSpaceOnUse" color-interpolation-filters="sRGB">
<feFlood flood-opacity="0" result="BackgroundImageFix"/>
<feColorMatrix in="SourceAlpha" type="matrix" values="0 0 0 0 0 0 0 0 0 0 0 0 0 0 0 0 0 0 127 0" result="hardAlpha"/>
<feOffset dx="2" dy="1"/>
<feGaussianBlur stdDeviation="4"/>
<feColorMatrix type="matrix" values="0 0 0 0 0.0392157 0 0 0 0 0.0392157 0 0 0 0 0.0627451 0 0 0 0.08 0"/>
<feBlend mode="normal" in2="BackgroundImageFix" result="effect1_dropShadow_6367_24469"/>
<feBlend mode="normal" in="SourceGraphic" in2="effect1_dropShadow_6367_24469" result="shape"/>
</filter>
</defs>
</svg>
