<svg width="112" height="208" viewBox="0 0 112 208" fill="none" xmlns="http://www.w3.org/2000/svg">
<rect x="0.5" y="0.5" width="111" height="207" rx="4.5" stroke="#9747FF" stroke-dasharray="10 5"/>
<g filter="url(#filter0_dd_7259_33128)">
<rect x="16" y="20" width="80" height="80" rx="8" fill="white"/>
</g>
<path d="M50 72.2461H33.125L35.1224 85.0982C35.1224 85.0982 35.5357 87.9961 38.4286 87.9961C41.3214 87.9961 50 87.9961 50 87.9961C50 87.9961 58.6787 87.9961 61.5714 87.9961C64.4643 87.9961 64.8776 85.0982 64.8776 85.0982L66.875 72.2461H50Z" fill="#157DF5"/>
<path fill-rule="evenodd" clip-rule="evenodd" d="M50 87.9961H61.5714C64.4643 87.9961 64.8776 85.0982 64.8776 85.0982L66.875 72.2461H50V87.9961Z" fill="#0965CD"/>
<rect x="32" y="69.9961" width="36" height="3.375" rx="1.6875" fill="#157DF5"/>
<path d="M50 76.7461C52.4853 76.7461 54.5 74.7314 54.5 72.2461C54.5 69.7608 52.4853 67.7461 50 67.7461C47.5147 67.7461 45.5 69.7608 45.5 72.2461C45.5 74.7314 47.5147 76.7461 50 76.7461Z" fill="#157DF5"/>
<rect x="57.2969" y="62.1211" width="3.375" height="13.5" rx="1.6875" transform="rotate(45 57.2969 62.1211)" fill="#40D98D"/>
<path d="M41.5625 78.4336C41.5625 77.5016 42.318 76.7461 43.25 76.7461C44.182 76.7461 44.9375 77.5016 44.9375 78.4336V82.9336C44.9375 83.8656 44.182 84.6211 43.25 84.6211C42.318 84.6211 41.5625 83.8656 41.5625 82.9336V78.4336Z" fill="#E2EFFE"/>
<path d="M48.3125 78.4336C48.3125 77.5016 49.068 76.7461 50 76.7461C50.932 76.7461 51.6875 77.5016 51.6875 78.4336V82.9336C51.6875 83.8656 50.932 84.6211 50 84.6211C49.068 84.6211 48.3125 83.8656 48.3125 82.9336V78.4336Z" fill="#E2EFFE"/>
<path d="M55.0625 78.4336C55.0625 77.5016 55.818 76.7461 56.75 76.7461C57.682 76.7461 58.4375 77.5016 58.4375 78.4336V82.9336C58.4375 83.8656 57.682 84.6211 56.75 84.6211C55.818 84.6211 55.0625 83.8656 55.0625 82.9336V78.4336Z" fill="#B6D7FC"/>
<path fill-rule="evenodd" clip-rule="evenodd" d="M50 84.6211C50.932 84.6211 51.6875 83.8656 51.6875 82.9336V78.4336C51.6875 77.5016 50.932 76.7461 50 76.7461V84.6211Z" fill="#B6D7FC"/>
<path fill-rule="evenodd" clip-rule="evenodd" d="M50 76.7461C52.4853 76.7461 54.5 74.7314 54.5 72.2461C54.5 69.7608 52.4853 67.7461 50 67.7461V76.7461Z" fill="#0965CD"/>
<path fill-rule="evenodd" clip-rule="evenodd" d="M50 73.3711H66.3125C67.2445 73.3711 68 72.6156 68 71.6836C68 70.7516 67.2445 69.9961 66.3125 69.9961H50V73.3711Z" fill="#0965CD"/>
<path fill-rule="evenodd" clip-rule="evenodd" d="M50 73.3472C50.4764 73.3859 50.9662 73.223 51.3307 72.8586L58.4901 65.6991C59.1491 65.0401 59.1491 63.9716 58.4901 63.3126C57.8311 62.6536 56.7626 62.6536 56.1036 63.3126L50 69.4162V73.3472Z" fill="#25BB71"/>
<path d="M42.0009 44.1858L37.6016 40.4141L35.4262 40.9181L35.4023 42.8676L39.8976 46.7219L41.5548 46.0527L42.0009 44.1858Z" fill="#E2EFFE"/>
<path d="M46.25 43.8583L46.633 46.1687L48.751 46.0022L49.4073 45.2368L50.3567 42.7049L49.4073 40.1758L46.25 43.8583Z" fill="#E2EFFE"/>
<path d="M51.7424 39.9147L50.0679 39.4023L49.4062 40.174V45.235L52.5695 41.5458L51.7424 39.9147Z" fill="#E2EFFE"/>
<path d="M68.3236 48.693L66.735 49.5044L56.8164 41.2215L57.2398 39.4044L58.9584 38.7188L68.875 47L68.3236 48.693Z" fill="#B6D7FC"/>
<path d="M29.445 42.0813C27.5183 40.1547 27.5183 37.0199 29.445 35.0933C31.3715 33.1668 34.5063 33.1669 36.4328 35.0933C38.3594 37.0199 38.3594 40.1547 36.4328 42.0813C34.5059 44.0078 31.3715 44.0076 29.445 42.0813Z" fill="#157DF5"/>
<path d="M54.3506 41.8777C49.9792 41.8777 47.7399 36.5616 50.8568 33.4448C52.7833 31.5183 55.9181 31.5184 57.8446 33.4448C59.7712 35.3715 59.7712 38.5063 57.8446 40.4329C56.8813 41.396 55.616 41.8777 54.3506 41.8777Z" fill="#0965CD"/>
<path d="M44.4693 53.4098C43.1492 53.4098 41.9083 52.8955 40.9753 51.9617C39.1622 50.1502 39.0467 47.2105 40.7106 45.2638C40.7906 45.1679 40.8774 45.0733 40.9758 44.975C41.9083 44.0417 43.1492 43.5273 44.4693 43.5273C47.1986 43.5273 49.4105 45.7365 49.4105 48.4685C49.4105 51.1978 47.2009 53.4098 44.4693 53.4098Z" fill="#40D98D"/>
<path d="M74 58C79.5228 58 84 53.5228 84 48C84 42.4772 79.5228 38 74 38C68.4772 38 64 42.4772 64 48C64 53.5228 68.4772 58 74 58Z" fill="#40D98D"/>
<path d="M73.9991 38C73.9974 38 73.9958 38 73.9941 38V57.9999C73.9958 57.9999 73.9974 58 73.9991 58C79.5219 58 83.9991 53.5229 83.9991 48C83.9991 42.4771 79.5219 38 73.9991 38Z" fill="#25BB71"/>
<path d="M79.1317 44.3645C78.5494 43.7821 77.6052 43.7821 77.0228 44.3645L72.9162 48.4712L70.9792 46.5342C70.3969 45.9516 69.4527 45.9518 68.8704 46.5342C68.288 47.1165 68.288 48.0608 68.8704 48.6431L71.8617 51.6345C72.1414 51.9142 72.5207 52.0713 72.9162 52.0713C73.3117 52.0713 73.6911 51.9142 73.9707 51.6345L79.1318 46.4734C79.7142 45.891 79.7142 44.9468 79.1317 44.3645Z" fill="white"/>
<path d="M77.0228 44.3645L73.9961 47.3912V51.6091L79.1317 46.4734C79.7141 45.891 79.7141 44.9467 79.1317 44.3645C78.5495 43.7821 77.6052 43.7821 77.0228 44.3645Z" fill="#F0F7FE"/>
<path d="M50 172.246H33.125L35.1224 185.098C35.1224 185.098 35.5357 187.996 38.4286 187.996C41.3214 187.996 50 187.996 50 187.996C50 187.996 58.6787 187.996 61.5714 187.996C64.4643 187.996 64.8776 185.098 64.8776 185.098L66.875 172.246H50Z" fill="#157DF5"/>
<path fill-rule="evenodd" clip-rule="evenodd" d="M50 187.996H61.5714C64.4643 187.996 64.8776 185.098 64.8776 185.098L66.875 172.246H50V187.996Z" fill="#0965CD"/>
<rect x="32" y="169.996" width="36" height="3.375" rx="1.6875" fill="#157DF5"/>
<path d="M50 176.746C52.4853 176.746 54.5 174.731 54.5 172.246C54.5 169.761 52.4853 167.746 50 167.746C47.5147 167.746 45.5 169.761 45.5 172.246C45.5 174.731 47.5147 176.746 50 176.746Z" fill="#157DF5"/>
<rect x="57.2969" y="162.121" width="3.375" height="13.5" rx="1.6875" transform="rotate(45 57.2969 162.121)" fill="#40D98D"/>
<path d="M41.5625 178.434C41.5625 177.502 42.318 176.746 43.25 176.746C44.182 176.746 44.9375 177.502 44.9375 178.434V182.934C44.9375 183.866 44.182 184.621 43.25 184.621C42.318 184.621 41.5625 183.866 41.5625 182.934V178.434Z" fill="#E2EFFE"/>
<path d="M48.3125 178.434C48.3125 177.502 49.068 176.746 50 176.746C50.932 176.746 51.6875 177.502 51.6875 178.434V182.934C51.6875 183.866 50.932 184.621 50 184.621C49.068 184.621 48.3125 183.866 48.3125 182.934V178.434Z" fill="#E2EFFE"/>
<path d="M55.0625 178.434C55.0625 177.502 55.818 176.746 56.75 176.746C57.682 176.746 58.4375 177.502 58.4375 178.434V182.934C58.4375 183.866 57.682 184.621 56.75 184.621C55.818 184.621 55.0625 183.866 55.0625 182.934V178.434Z" fill="#B6D7FC"/>
<path fill-rule="evenodd" clip-rule="evenodd" d="M50 184.621C50.932 184.621 51.6875 183.866 51.6875 182.934V178.434C51.6875 177.502 50.932 176.746 50 176.746V184.621Z" fill="#B6D7FC"/>
<path fill-rule="evenodd" clip-rule="evenodd" d="M50 176.746C52.4853 176.746 54.5 174.731 54.5 172.246C54.5 169.761 52.4853 167.746 50 167.746V176.746Z" fill="#0965CD"/>
<path fill-rule="evenodd" clip-rule="evenodd" d="M50 173.371H66.3125C67.2445 173.371 68 172.616 68 171.684C68 170.752 67.2445 169.996 66.3125 169.996H50V173.371Z" fill="#0965CD"/>
<path fill-rule="evenodd" clip-rule="evenodd" d="M50 173.347C50.4764 173.386 50.9662 173.223 51.3307 172.859L58.4901 165.699C59.1491 165.04 59.1491 163.972 58.4901 163.313C57.8311 162.654 56.7626 162.654 56.1036 163.313L50 169.416V173.347Z" fill="#25BB71"/>
<path d="M42.0009 144.186L37.6016 140.414L35.4262 140.918L35.4023 142.868L39.8976 146.722L41.5548 146.053L42.0009 144.186Z" fill="#E2EFFE"/>
<path d="M46.25 143.858L46.633 146.169L48.751 146.002L49.4073 145.237L50.3567 142.705L49.4073 140.176L46.25 143.858Z" fill="#E2EFFE"/>
<path d="M51.7424 139.915L50.0679 139.402L49.4062 140.174V145.235L52.5695 141.546L51.7424 139.915Z" fill="#E2EFFE"/>
<path d="M68.3236 148.693L66.735 149.504L56.8164 141.222L57.2398 139.404L58.9584 138.719L68.875 147L68.3236 148.693Z" fill="#B6D7FC"/>
<path d="M29.445 142.081C27.5183 140.155 27.5183 137.02 29.445 135.093C31.3715 133.167 34.5063 133.167 36.4328 135.093C38.3594 137.02 38.3594 140.155 36.4328 142.081C34.5059 144.008 31.3715 144.008 29.445 142.081Z" fill="#157DF5"/>
<path d="M54.3506 141.878C49.9792 141.878 47.7399 136.562 50.8568 133.445C52.7833 131.518 55.9181 131.518 57.8446 133.445C59.7712 135.371 59.7712 138.506 57.8446 140.433C56.8813 141.396 55.616 141.878 54.3506 141.878Z" fill="#0965CD"/>
<path d="M44.4693 153.41C43.1492 153.41 41.9083 152.895 40.9753 151.962C39.1622 150.15 39.0467 147.21 40.7106 145.264C40.7906 145.168 40.8774 145.073 40.9758 144.975C41.9083 144.042 43.1492 143.527 44.4693 143.527C47.1986 143.527 49.4105 145.736 49.4105 148.469C49.4105 151.198 47.2009 153.41 44.4693 153.41Z" fill="#40D98D"/>
<path d="M74 158C79.5228 158 84 153.523 84 148C84 142.477 79.5228 138 74 138C68.4772 138 64 142.477 64 148C64 153.523 68.4772 158 74 158Z" fill="#40D98D"/>
<path d="M73.9991 138C73.9974 138 73.9958 138 73.9941 138V158C73.9958 158 73.9974 158 73.9991 158C79.5219 158 83.9991 153.523 83.9991 148C83.9991 142.477 79.5219 138 73.9991 138Z" fill="#25BB71"/>
<path d="M79.1317 144.364C78.5494 143.782 77.6052 143.782 77.0228 144.364L72.9162 148.471L70.9792 146.534C70.3969 145.952 69.4527 145.952 68.8704 146.534C68.288 147.117 68.288 148.061 68.8704 148.643L71.8617 151.635C72.1414 151.914 72.5207 152.071 72.9162 152.071C73.3117 152.071 73.6911 151.914 73.9707 151.635L79.1318 146.473C79.7142 145.891 79.7142 144.947 79.1317 144.364Z" fill="white"/>
<path d="M77.0228 144.364L73.9961 147.391V151.609L79.1317 146.473C79.7141 145.891 79.7141 144.947 79.1317 144.364C78.5495 143.782 77.6052 143.782 77.0228 144.364Z" fill="#F0F7FE"/>
<defs>
<filter id="filter0_dd_7259_33128" x="6" y="13" width="100" height="100" filterUnits="userSpaceOnUse" color-interpolation-filters="sRGB">
<feFlood flood-opacity="0" result="BackgroundImageFix"/>
<feColorMatrix in="SourceAlpha" type="matrix" values="0 0 0 0 0 0 0 0 0 0 0 0 0 0 0 0 0 0 127 0" result="hardAlpha"/>
<feOffset dy="3"/>
<feGaussianBlur stdDeviation="5"/>
<feColorMatrix type="matrix" values="0 0 0 0 0.516667 0 0 0 0 0.578358 0 0 0 0 0.775 0 0 0 0.12 0"/>
<feBlend mode="normal" in2="BackgroundImageFix" result="effect1_dropShadow_7259_33128"/>
<feColorMatrix in="SourceAlpha" type="matrix" values="0 0 0 0 0 0 0 0 0 0 0 0 0 0 0 0 0 0 127 0" result="hardAlpha"/>
<feOffset dy="1"/>
<feGaussianBlur stdDeviation="3"/>
<feColorMatrix type="matrix" values="0 0 0 0 0.709809 0 0 0 0 0.788943 0 0 0 0 0.920833 0 0 0 0.15 0"/>
<feBlend mode="normal" in2="effect1_dropShadow_7259_33128" result="effect2_dropShadow_7259_33128"/>
<feBlend mode="normal" in="SourceGraphic" in2="effect2_dropShadow_7259_33128" result="shape"/>
</filter>
</defs>
</svg>
