<svg width="112" height="208" viewBox="0 0 112 208" fill="none" xmlns="http://www.w3.org/2000/svg">
<rect x="0.5" y="0.5" width="111" height="207" rx="4.5" stroke="#9747FF" stroke-dasharray="10 5"/>
<g filter="url(#filter0_d_10792_59808)">
<rect x="16" y="16" width="80" height="80" rx="8" fill="white"/>
</g>
<path d="M69.5574 76.0681L49.998 80.5533L45.2891 30.8828L69.558 35.9269C72.8571 48.9229 72.7725 63.0501 69.5574 76.0681Z" fill="#B6D7FC"/>
<path d="M30.4429 76.0712L49.9971 80.5564V76.0713V31.9648L30.4429 35.9295C27.1438 48.9255 27.2279 63.0531 30.4429 76.0712Z" fill="#E2EFFE"/>
<path d="M49.9962 35.9293H69.5557V30C69.5557 28.8954 68.6603 28 67.5557 28H49.9962L48.043 32.3597L49.9962 35.9293Z" fill="#0965CD"/>
<path d="M49.9967 76.0703H69.5562V81.9996C69.5562 83.1042 68.6608 83.9996 67.5562 83.9996H49.9967L47.7227 80.035L49.9967 76.0703Z" fill="#0965CD"/>
<path d="M30.4434 30C30.4434 28.8954 31.3388 28 32.4434 28H49.9976V35.9293H30.4434V30Z" fill="#157DF5"/>
<path d="M30.4434 76.0703H49.9976V83.9996H32.4434C31.3388 83.9996 30.4434 83.1042 30.4434 81.9996V76.0703Z" fill="#157DF5"/>
<path fill-rule="evenodd" clip-rule="evenodd" d="M51.7298 46.1909C51.3977 46.1721 51.0664 46.2312 50.7608 46.3633C50.7254 46.1644 50.6692 45.9671 50.5915 45.7747C50.4956 45.5373 50.3714 45.3183 50.224 45.1213C49.702 44.4236 48.8879 44 47.999 44C47.1112 44 46.2972 44.4236 45.7753 45.1216C45.628 45.3186 45.5039 45.5374 45.4081 45.7748C45.3304 45.9672 45.2742 46.1644 45.2388 46.3632C44.9334 46.2312 44.6022 46.1721 44.2703 46.1909C44.0271 46.2047 43.7834 46.2603 43.5491 46.3598C42.7742 46.689 42.2577 47.4319 42.2006 48.2813C42.1971 48.3334 42.1953 48.3859 42.1953 48.4388C42.1953 49.4235 42.8216 50.2582 43.6901 50.5446C42.8111 51.1231 42.0492 51.873 41.4496 52.7479C40.5365 54.0805 40 55.703 40 57.4515V66.453C40 66.8398 40.3059 67.1533 40.6831 67.1533H44.5802C44.9887 67.6799 45.6137 67.9984 46.2942 67.9984C46.6831 67.9984 47.0481 67.896 47.3654 67.7163C47.5996 67.5837 47.8078 67.4089 47.9804 67.202C48.1537 67.4092 48.3626 67.5838 48.5968 67.7163C48.9153 67.8963 49.2806 67.9984 49.667 67.9984C50.3472 67.9984 50.972 67.6799 51.3805 67.1533H55.3169C55.6941 67.1533 56 66.8398 56 66.453V57.4515C56 55.7029 55.4634 54.0803 54.5502 52.7478C53.9507 51.8729 53.1888 51.123 52.3098 50.5445C53.1774 50.2583 53.8044 49.4247 53.8044 48.4372C53.8044 48.3849 53.8027 48.3329 53.7992 48.2812C53.7425 47.4326 53.2259 46.6891 52.4505 46.3597C52.2164 46.2603 51.9729 46.2047 51.7298 46.1909ZM52.5946 43.2829C51.5233 41.8777 49.8505 41 47.999 41C46.1481 41 44.4758 41.8781 43.4049 43.283C43.0567 43.3511 42.7122 43.4559 42.3767 43.5984C40.4147 44.4318 39.1953 46.356 39.1953 48.4388C39.1953 49.0918 39.315 49.7212 39.5356 50.3031C37.9499 52.2479 37 54.7433 37 57.4515V66.453C37 68.4258 38.5791 70.1533 40.6831 70.1533H43.4662C44.2863 70.6915 45.2614 70.9984 46.2942 70.9984C46.8868 70.9984 47.4541 70.8984 47.9814 70.7162C48.5093 70.8986 49.0763 70.9984 49.667 70.9984C50.6998 70.9984 51.6747 70.6914 52.4946 70.1533H55.3169C57.4209 70.1533 59 68.4258 59 66.453V57.4515C59 54.7432 58.05 52.2476 56.4642 50.3028C56.6847 49.7208 56.8044 49.091 56.8044 48.4372M52.5946 43.2829C52.9428 43.351 53.2874 43.4558 53.6228 43.5983C55.584 44.4313 56.8044 46.355 56.8044 48.4372" fill="white"/>
<path d="M48.0003 50.6506H44.3528C43.1587 50.6506 42.1953 49.6601 42.1953 48.4388C42.1953 47.5246 42.7267 46.7092 43.5491 46.3598C44.3719 46.0105 45.3101 46.2019 45.9396 46.8473L48.4833 49.4551C48.6786 49.6554 48.7371 49.9566 48.6314 50.2183C48.5256 50.48 48.2765 50.6506 48.0003 50.6506Z" fill="#F3263D"/>
<path d="M51.647 50.6506H47.9995C47.7232 50.6506 47.4742 50.4799 47.3684 50.2182C47.2627 49.9566 47.3211 49.6553 47.5165 49.455L50.0602 46.8472C50.6897 46.2019 51.628 46.0105 52.4505 46.3597C53.2731 46.7091 53.8044 47.5246 53.8044 48.4372C53.8044 49.6624 52.8392 50.6506 51.647 50.6506Z" fill="#F54B5E"/>
<path d="M55.3169 67.1533H40.6831C40.3059 67.1533 40 66.8398 40 66.453V57.4515C40 52.9292 43.5888 49.25 48 49.25C52.4112 49.25 56 52.9292 56 57.4515V66.453C56 66.8398 55.6941 67.1533 55.3169 67.1533Z" fill="#F0F7FE"/>
<path d="M56.0008 66.453V57.4515C56.0008 52.9292 52.412 49.25 48.0008 49.25C48.0005 49.25 48.0003 49.25 48 49.25V67.1533H55.3177C55.6949 67.1533 56.0008 66.8398 56.0008 66.453Z" fill="#E2EFFE"/>
<path d="M51.218 64.1661L48.9234 61.8087C48.8236 61.7061 48.6881 61.6484 48.5467 61.6484C48.5465 61.6484 48.546 61.6484 48.5461 61.6484H47.4146C47.4148 61.6484 47.4143 61.6484 47.414 61.6484C47.2727 61.6484 47.1371 61.7061 47.0373 61.8087L44.7427 64.1661C44.1148 64.8113 43.9292 65.7718 44.2699 66.6131C44.6106 67.4546 45.4049 67.9984 46.2942 67.9984C46.9701 67.9984 47.5739 67.6892 47.9804 67.202C48.3895 67.6911 48.9965 67.9984 49.667 67.9984C50.5558 67.9984 51.3501 67.4546 51.6907 66.6131C52.0315 65.7718 51.8459 64.8113 51.218 64.1661Z" fill="#F54B5E"/>
<path d="M49.6682 67.9984C50.557 67.9984 51.3514 67.4546 51.6919 66.6131C52.0327 65.7718 51.8471 64.8113 51.2192 64.1661L48.9247 61.8087C48.8248 61.7061 48.6893 61.6484 48.5479 61.6484C48.5477 61.6484 48.5472 61.6484 48.5474 61.6484C48.5476 61.6484 48.2742 61.6484 47.9961 61.6484V67.2184C48.405 67.6978 49.0054 67.9984 49.6682 67.9984Z" fill="#F3263D"/>
<path d="M45.1094 57C45.9378 57 46.6094 56.3284 46.6094 55.5C46.6094 54.6716 45.9378 54 45.1094 54C44.2809 54 43.6094 54.6716 43.6094 55.5C43.6094 56.3284 44.2809 57 45.1094 57Z" fill="#282A52"/>
<path d="M50.9766 57C51.805 57 52.4766 56.3284 52.4766 55.5C52.4766 54.6716 51.805 54 50.9766 54C50.1481 54 49.4766 54.6716 49.4766 55.5C49.4766 56.3284 50.1481 57 50.9766 57Z" fill="#1E203E"/>
<path d="M47.9998 50.6515C47.825 50.6515 47.6501 50.5831 47.5168 50.4464L46.0161 48.9079C45.2113 48.0829 44.9727 46.8531 45.4081 45.7748C45.8436 44.6966 46.8606 44 47.999 44C49.1389 44 50.156 44.6966 50.5915 45.7747C51.0269 46.8531 50.7882 48.0829 49.9835 48.9078L48.4828 50.4464C48.3494 50.5831 48.1746 50.6515 47.9998 50.6515Z" fill="#F54B5E"/>
<path d="M48.4838 50.4464L49.9845 48.9078C50.7892 48.0829 51.0279 46.8531 50.5925 45.7747C50.157 44.6966 49.14 44 48 44V50.6515C48.0003 50.6515 48.0005 50.6515 48.0008 50.6515C48.1756 50.6515 48.3504 50.5831 48.4838 50.4464Z" fill="#F3263D"/>
<path d="M47.9833 63.0187C47.9827 63.0187 47.9821 63.0187 47.9815 63.0187C47.8354 63.0182 47.6956 62.9583 47.5927 62.852L45.2498 60.4339C45.036 60.2133 45.0366 59.8569 45.2511 59.637L46.3588 58.5014C46.7974 58.052 47.3798 57.8047 47.9989 57.8047C48.6181 57.8047 49.2005 58.052 49.639 58.5012L50.7468 59.637C50.8502 59.7431 50.9082 59.8871 50.908 60.0371C50.9078 60.187 50.8493 60.3308 50.7455 60.4365L48.3713 62.8547C48.2681 62.9597 48.1286 63.0187 47.9833 63.0187Z" fill="#FEE048"/>
<path d="M50.7452 60.4365C50.849 60.3308 50.9075 60.1871 50.9077 60.0371C50.908 59.887 50.85 59.7431 50.7465 59.637L49.6387 58.5012C49.2002 58.052 48.6178 57.8047 47.9987 57.8047C47.9985 57.8047 47.9983 57.8047 47.998 57.8047V63.0179C48.1379 63.014 48.2714 62.9561 48.371 62.8547L50.7452 60.4365Z" fill="#FED601"/>
<path fill-rule="evenodd" clip-rule="evenodd" d="M77.575 61.9993H79.5C81.9853 61.9993 84 64.014 84 66.4993C84 67.7807 83.4655 68.9345 82.608 69.753L81.1908 78.8719L81.1889 78.8842L81.1863 78.9011C81.183 78.9219 81.179 78.9457 81.1744 78.972C81.1651 79.0247 81.153 79.0884 81.1373 79.1617C81.1062 79.3073 81.0601 79.4951 80.9932 79.7116C80.8626 80.1345 80.6356 80.7217 80.2442 81.3317C79.401 82.6457 77.7998 83.9993 75.2857 83.9993H58.7143C56.2002 83.9993 54.599 82.6457 53.7558 81.3317C53.3644 80.7217 53.1374 80.1345 53.0068 79.7116C52.9399 79.4951 52.8938 79.3073 52.8627 79.1617C52.847 79.0884 52.8349 79.0247 52.8256 78.972C52.821 78.9457 52.817 78.9219 52.8137 78.9011L51.392 69.753C50.5345 68.9345 50 67.7807 50 66.4993C50 64.014 52.0147 61.9993 54.5 61.9993H62.1016C63.3621 60.7646 65.0907 59.9993 67 59.9993C67.0797 59.9993 67.1591 60.0007 67.2382 60.0033L70.3024 56.9391C72.0598 55.1818 74.909 55.1818 76.6664 56.9391C78.0347 58.3075 78.3376 60.3379 77.575 61.9993Z" fill="white"/>
<path d="M67 67H54L55.7755 78.4241C55.7755 78.4241 56.1428 81 58.7143 81C61.2857 81 67 81 67 81C67 81 72.7144 81 75.2857 81C77.8572 81 78.2245 78.4241 78.2245 78.4241L80 67H67Z" fill="#40D98D"/>
<path d="M67 81H75.2857C77.8572 81 78.2245 78.4241 78.2245 78.4241L80 67H67V81Z" fill="#25BB71"/>
<path d="M53 66.5C53 65.6716 53.6716 65 54.5 65H79.5C80.3284 65 81 65.6716 81 66.5C81 67.3284 80.3284 68 79.5 68H54.5C53.6716 68 53 67.3284 53 66.5Z" fill="#40D98D"/>
<path d="M67 71C69.2091 71 71 69.2091 71 67C71 64.7909 69.2091 63 67 63C64.7909 63 63 64.7909 63 67C63 69.2091 64.7909 71 67 71Z" fill="#40D98D"/>
<rect x="73.4844" y="58" width="3" height="12" rx="1.5" transform="rotate(45 73.4844 58)" fill="#282A52"/>
<path d="M59.5 72.5C59.5 71.6716 60.1716 71 61 71C61.8284 71 62.5 71.6716 62.5 72.5V76.5C62.5 77.3284 61.8284 78 61 78C60.1716 78 59.5 77.3284 59.5 76.5V72.5Z" fill="white"/>
<path d="M65.5 72.5C65.5 71.6716 66.1716 71 67 71C67.8284 71 68.5 71.6716 68.5 72.5V76.5C68.5 77.3284 67.8284 78 67 78C66.1716 78 65.5 77.3284 65.5 76.5V72.5Z" fill="white"/>
<path d="M71.5 72.5C71.5 71.6716 72.1716 71 73 71C73.8284 71 74.5 71.6716 74.5 72.5V76.5C74.5 77.3284 73.8284 78 73 78C72.1716 78 71.5 77.3284 71.5 76.5V72.5Z" fill="#EEFCF5"/>
<path d="M67 78C67.8284 78 68.5 77.3284 68.5 76.5V72.5C68.5 71.6716 67.8284 71 67 71V78Z" fill="#EEFCF5"/>
<path d="M67 71C69.2091 71 71 69.2091 71 67C71 64.7909 69.2091 63 67 63V71Z" fill="#25BB71"/>
<path d="M67 68H79.5C80.3284 68 81 67.3284 81 66.5C81 65.6716 80.3284 65 79.5 65H67V68Z" fill="#25BB71"/>
<path fill-rule="evenodd" clip-rule="evenodd" d="M67 67.9841C67.423 68.018 67.8575 67.8732 68.1811 67.5496L74.545 61.1857C75.1308 60.5999 75.1308 59.6501 74.545 59.0643C73.9592 58.4786 73.0095 58.4786 72.4237 59.0643L67 64.4881V67.9841Z" fill="#1E203E"/>
<path d="M69.5574 172.068L49.998 176.553L45.2891 126.883L69.558 131.927C72.8571 144.923 72.7725 159.05 69.5574 172.068Z" fill="#B6D7FC"/>
<path d="M30.4429 172.071L49.9971 176.556V172.071V127.965L30.4429 131.929C27.1438 144.925 27.2279 159.053 30.4429 172.071Z" fill="#E2EFFE"/>
<path d="M49.9962 131.929H69.5557V126C69.5557 124.895 68.6603 124 67.5557 124H49.9962L48.043 128.36L49.9962 131.929Z" fill="#0965CD"/>
<path d="M49.9967 172.07H69.5562V178C69.5562 179.104 68.6608 180 67.5562 180H49.9967L47.7227 176.035L49.9967 172.07Z" fill="#0965CD"/>
<path d="M30.4434 126C30.4434 124.895 31.3388 124 32.4434 124H49.9976V131.929H30.4434V126Z" fill="#157DF5"/>
<path d="M30.4434 172.07H49.9976V180H32.4434C31.3388 180 30.4434 179.104 30.4434 178V172.07Z" fill="#157DF5"/>
<path fill-rule="evenodd" clip-rule="evenodd" d="M51.7298 142.191C51.3977 142.172 51.0664 142.231 50.7608 142.363C50.7254 142.164 50.6692 141.967 50.5915 141.775C50.4956 141.537 50.3714 141.318 50.224 141.121C49.702 140.424 48.8879 140 47.999 140C47.1112 140 46.2972 140.424 45.7753 141.122C45.628 141.319 45.5039 141.537 45.4081 141.775C45.3304 141.967 45.2742 142.164 45.2388 142.363C44.9334 142.231 44.6022 142.172 44.2703 142.191C44.0271 142.205 43.7834 142.26 43.5491 142.36C42.7742 142.689 42.2577 143.432 42.2006 144.281C42.1971 144.333 42.1953 144.386 42.1953 144.439C42.1953 145.423 42.8216 146.258 43.6901 146.545C42.8111 147.123 42.0492 147.873 41.4496 148.748C40.5365 150.08 40 151.703 40 153.452V162.453C40 162.84 40.3059 163.153 40.6831 163.153H44.5802C44.9887 163.68 45.6137 163.998 46.2942 163.998C46.6831 163.998 47.0481 163.896 47.3654 163.716C47.5996 163.584 47.8078 163.409 47.9804 163.202C48.1537 163.409 48.3626 163.584 48.5968 163.716C48.9153 163.896 49.2806 163.998 49.667 163.998C50.3472 163.998 50.972 163.68 51.3805 163.153H55.3169C55.6941 163.153 56 162.84 56 162.453V153.452C56 151.703 55.4634 150.08 54.5502 148.748C53.9507 147.873 53.1888 147.123 52.3098 146.545C53.1774 146.258 53.8044 145.425 53.8044 144.437C53.8044 144.385 53.8027 144.333 53.7992 144.281C53.7425 143.433 53.2259 142.689 52.4505 142.36C52.2164 142.26 51.9729 142.205 51.7298 142.191ZM52.5946 139.283C51.5233 137.878 49.8505 137 47.999 137C46.1481 137 44.4758 137.878 43.4049 139.283C43.0567 139.351 42.7122 139.456 42.3767 139.598C40.4147 140.432 39.1953 142.356 39.1953 144.439C39.1953 145.092 39.315 145.721 39.5356 146.303C37.9499 148.248 37 150.743 37 153.452V162.453C37 164.426 38.5791 166.153 40.6831 166.153H43.4662C44.2863 166.691 45.2614 166.998 46.2942 166.998C46.8868 166.998 47.4541 166.898 47.9814 166.716C48.5093 166.899 49.0763 166.998 49.667 166.998C50.6998 166.998 51.6747 166.691 52.4946 166.153H55.3169C57.4209 166.153 59 164.426 59 162.453V153.452C59 150.743 58.05 148.248 56.4642 146.303C56.6847 145.721 56.8044 145.091 56.8044 144.437M52.5946 139.283C52.9428 139.351 53.2874 139.456 53.6228 139.598C55.584 140.431 56.8044 142.355 56.8044 144.437" fill="white"/>
<path d="M48.0003 146.651H44.3528C43.1587 146.651 42.1953 145.66 42.1953 144.439C42.1953 143.525 42.7267 142.709 43.5491 142.36C44.3719 142.01 45.3101 142.202 45.9396 142.847L48.4833 145.455C48.6786 145.655 48.7371 145.957 48.6314 146.218C48.5256 146.48 48.2765 146.651 48.0003 146.651Z" fill="#F3263D"/>
<path d="M51.647 146.651H47.9995C47.7232 146.651 47.4742 146.48 47.3684 146.218C47.2627 145.957 47.3211 145.655 47.5165 145.455L50.0602 142.847C50.6897 142.202 51.628 142.011 52.4505 142.36C53.2731 142.709 53.8044 143.525 53.8044 144.437C53.8044 145.662 52.8392 146.651 51.647 146.651Z" fill="#F54B5E"/>
<path d="M55.3169 163.153H40.6831C40.3059 163.153 40 162.84 40 162.453V153.452C40 148.929 43.5888 145.25 48 145.25C52.4112 145.25 56 148.929 56 153.452V162.453C56 162.84 55.6941 163.153 55.3169 163.153Z" fill="#F0F7FE"/>
<path d="M56.0008 162.453V153.452C56.0008 148.929 52.412 145.25 48.0008 145.25C48.0005 145.25 48.0003 145.25 48 145.25V163.153H55.3177C55.6949 163.153 56.0008 162.84 56.0008 162.453Z" fill="#E2EFFE"/>
<path d="M51.218 160.166L48.9234 157.809C48.8236 157.706 48.6881 157.648 48.5467 157.648C48.5465 157.648 48.546 157.648 48.5461 157.648H47.4146C47.4148 157.648 47.4143 157.648 47.414 157.648C47.2727 157.648 47.1371 157.706 47.0373 157.809L44.7427 160.166C44.1148 160.811 43.9292 161.772 44.2699 162.613C44.6106 163.455 45.4049 163.998 46.2942 163.998C46.9701 163.998 47.5739 163.689 47.9804 163.202C48.3895 163.691 48.9965 163.998 49.667 163.998C50.5558 163.998 51.3501 163.455 51.6907 162.613C52.0315 161.772 51.8459 160.811 51.218 160.166Z" fill="#F54B5E"/>
<path d="M49.6682 163.998C50.557 163.998 51.3514 163.455 51.6919 162.613C52.0327 161.772 51.8471 160.811 51.2192 160.166L48.9247 157.809C48.8248 157.706 48.6893 157.648 48.5479 157.648C48.5477 157.648 48.5472 157.648 48.5474 157.648C48.5476 157.648 48.2742 157.648 47.9961 157.648V163.218C48.405 163.698 49.0054 163.998 49.6682 163.998Z" fill="#F3263D"/>
<path d="M45.1094 153C45.9378 153 46.6094 152.328 46.6094 151.5C46.6094 150.672 45.9378 150 45.1094 150C44.2809 150 43.6094 150.672 43.6094 151.5C43.6094 152.328 44.2809 153 45.1094 153Z" fill="#282A52"/>
<path d="M50.9766 153C51.805 153 52.4766 152.328 52.4766 151.5C52.4766 150.672 51.805 150 50.9766 150C50.1481 150 49.4766 150.672 49.4766 151.5C49.4766 152.328 50.1481 153 50.9766 153Z" fill="#1E203E"/>
<path d="M47.9998 146.651C47.825 146.651 47.6501 146.583 47.5168 146.446L46.0161 144.908C45.2113 144.083 44.9727 142.853 45.4081 141.775C45.8436 140.697 46.8606 140 47.999 140C49.1389 140 50.156 140.697 50.5915 141.775C51.0269 142.853 50.7882 144.083 49.9835 144.908L48.4828 146.446C48.3494 146.583 48.1746 146.651 47.9998 146.651Z" fill="#F54B5E"/>
<path d="M48.4838 146.446L49.9845 144.908C50.7892 144.083 51.0279 142.853 50.5925 141.775C50.157 140.697 49.14 140 48 140V146.651C48.0003 146.651 48.0005 146.651 48.0008 146.651C48.1756 146.651 48.3504 146.583 48.4838 146.446Z" fill="#F3263D"/>
<path d="M47.9833 159.019C47.9827 159.019 47.9821 159.019 47.9815 159.019C47.8354 159.018 47.6956 158.958 47.5927 158.852L45.2498 156.434C45.036 156.213 45.0366 155.857 45.2511 155.637L46.3588 154.501C46.7974 154.052 47.3798 153.805 47.9989 153.805C48.6181 153.805 49.2005 154.052 49.639 154.501L50.7468 155.637C50.8502 155.743 50.9082 155.887 50.908 156.037C50.9078 156.187 50.8493 156.331 50.7455 156.437L48.3713 158.855C48.2681 158.96 48.1286 159.019 47.9833 159.019Z" fill="#FEE048"/>
<path d="M50.7452 156.437C50.849 156.331 50.9075 156.187 50.9077 156.037C50.908 155.887 50.85 155.743 50.7465 155.637L49.6387 154.501C49.2002 154.052 48.6178 153.805 47.9987 153.805C47.9985 153.805 47.9983 153.805 47.998 153.805V159.018C48.1379 159.014 48.2714 158.956 48.371 158.855L50.7452 156.437Z" fill="#FED601"/>
<path fill-rule="evenodd" clip-rule="evenodd" d="M77.575 157.999H79.5C81.9853 157.999 84 160.014 84 162.499C84 163.781 83.4655 164.935 82.608 165.753L81.1908 174.872L81.1889 174.884L81.1863 174.901C81.183 174.922 81.179 174.946 81.1744 174.972C81.1651 175.025 81.153 175.088 81.1373 175.162C81.1062 175.307 81.0601 175.495 80.9932 175.712C80.8626 176.134 80.6356 176.722 80.2442 177.332C79.401 178.646 77.7998 179.999 75.2857 179.999H58.7143C56.2002 179.999 54.599 178.646 53.7558 177.332C53.3644 176.722 53.1374 176.134 53.0068 175.712C52.9399 175.495 52.8938 175.307 52.8627 175.162C52.847 175.088 52.8349 175.025 52.8256 174.972C52.821 174.946 52.817 174.922 52.8137 174.901L51.392 165.753C50.5345 164.935 50 163.781 50 162.499C50 160.014 52.0147 157.999 54.5 157.999H62.1016C63.3621 156.765 65.0907 155.999 67 155.999C67.0797 155.999 67.1591 156.001 67.2382 156.003L70.3024 152.939C72.0598 151.182 74.909 151.182 76.6664 152.939C78.0347 154.307 78.3376 156.338 77.575 157.999Z" fill="white"/>
<path d="M67 163H54L55.7755 174.424C55.7755 174.424 56.1428 177 58.7143 177C61.2857 177 67 177 67 177C67 177 72.7144 177 75.2857 177C77.8572 177 78.2245 174.424 78.2245 174.424L80 163H67Z" fill="#40D98D"/>
<path d="M67 177H75.2857C77.8572 177 78.2245 174.424 78.2245 174.424L80 163H67V177Z" fill="#25BB71"/>
<path d="M53 162.5C53 161.672 53.6716 161 54.5 161H79.5C80.3284 161 81 161.672 81 162.5C81 163.328 80.3284 164 79.5 164H54.5C53.6716 164 53 163.328 53 162.5Z" fill="#40D98D"/>
<path d="M67 167C69.2091 167 71 165.209 71 163C71 160.791 69.2091 159 67 159C64.7909 159 63 160.791 63 163C63 165.209 64.7909 167 67 167Z" fill="#40D98D"/>
<rect x="73.4844" y="154" width="3" height="12" rx="1.5" transform="rotate(45 73.4844 154)" fill="#282A52"/>
<path d="M59.5 168.5C59.5 167.672 60.1716 167 61 167C61.8284 167 62.5 167.672 62.5 168.5V172.5C62.5 173.328 61.8284 174 61 174C60.1716 174 59.5 173.328 59.5 172.5V168.5Z" fill="white"/>
<path d="M65.5 168.5C65.5 167.672 66.1716 167 67 167C67.8284 167 68.5 167.672 68.5 168.5V172.5C68.5 173.328 67.8284 174 67 174C66.1716 174 65.5 173.328 65.5 172.5V168.5Z" fill="white"/>
<path d="M71.5 168.5C71.5 167.672 72.1716 167 73 167C73.8284 167 74.5 167.672 74.5 168.5V172.5C74.5 173.328 73.8284 174 73 174C72.1716 174 71.5 173.328 71.5 172.5V168.5Z" fill="#EEFCF5"/>
<path d="M67 174C67.8284 174 68.5 173.328 68.5 172.5V168.5C68.5 167.672 67.8284 167 67 167V174Z" fill="#EEFCF5"/>
<path d="M67 167C69.2091 167 71 165.209 71 163C71 160.791 69.2091 159 67 159V167Z" fill="#25BB71"/>
<path d="M67 164H79.5C80.3284 164 81 163.328 81 162.5C81 161.672 80.3284 161 79.5 161H67V164Z" fill="#25BB71"/>
<path fill-rule="evenodd" clip-rule="evenodd" d="M67 163.984C67.423 164.018 67.8575 163.873 68.1811 163.55L74.545 157.186C75.1308 156.6 75.1308 155.65 74.545 155.064C73.9592 154.479 73.0095 154.479 72.4237 155.064L67 160.488V163.984Z" fill="#1E203E"/>
<defs>
<filter id="filter0_d_10792_59808" x="10" y="9" width="96" height="96" filterUnits="userSpaceOnUse" color-interpolation-filters="sRGB">
<feFlood flood-opacity="0" result="BackgroundImageFix"/>
<feColorMatrix in="SourceAlpha" type="matrix" values="0 0 0 0 0 0 0 0 0 0 0 0 0 0 0 0 0 0 127 0" result="hardAlpha"/>
<feOffset dx="2" dy="1"/>
<feGaussianBlur stdDeviation="4"/>
<feColorMatrix type="matrix" values="0 0 0 0 0.0392157 0 0 0 0 0.0392157 0 0 0 0 0.0627451 0 0 0 0.08 0"/>
<feBlend mode="normal" in2="BackgroundImageFix" result="effect1_dropShadow_10792_59808"/>
<feBlend mode="normal" in="SourceGraphic" in2="effect1_dropShadow_10792_59808" result="shape"/>
</filter>
</defs>
</svg>
