<svg width="112" height="208" viewBox="0 0 112 208" fill="none" xmlns="http://www.w3.org/2000/svg">
<rect x="0.5" y="0.5" width="111" height="207" rx="4.5" stroke="#9747FF" stroke-dasharray="10 5"/>
<g filter="url(#filter0_dd_8156_35984)">
<rect x="16" y="16" width="80" height="80" rx="8" fill="white"/>
</g>
<path d="M47.6357 44.7363L47.6162 44.9268L47.5801 45.1143C47.4942 45.4863 47.3182 45.8321 47.0664 46.1201L46.9336 46.2598L46.791 46.3877C46.4454 46.6711 46.0233 46.8492 45.5752 46.8984L45.5381 46.9023C44.5273 46.9902 42.9527 47.7428 41.6104 48.9707C40.9077 49.6135 40.4 50.2655 40.0781 50.8652L40.8984 50.8652L40.916 50.8662C41.368 50.8759 41.8068 51.0179 42.1787 51.2734L42.3145 51.373C42.6211 51.6183 42.8607 51.938 43.0107 52.3018C43.1607 52.6656 43.2159 53.0611 43.1719 53.4502L43.1465 53.6162L43.1094 53.7803C43.024 54.1047 42.8699 54.4076 42.6562 54.667L42.5439 54.793L42.5322 54.8057L42.5195 54.8184L36.4082 60.959C35.975 61.3941 35.3855 61.6396 34.7695 61.6396C34.1536 61.6396 33.5641 61.3941 33.1309 60.959L27.0195 54.8184L26.9971 54.7959L26.9756 54.7725C26.6744 54.4455 26.4743 54.0391 26.3965 53.6025C26.3187 53.1658 26.367 52.715 26.5361 52.3047C26.7053 51.8945 26.9888 51.5404 27.3535 51.2852C27.7183 51.0299 28.149 50.8846 28.5947 50.8672L28.627 50.8652L30.1641 50.8652C30.9985 47.4653 32.7415 44.656 35.3311 42.9785C38.3034 41.0532 42.0915 40.8107 46.1914 42.4404L46.209 42.4473L46.2256 42.4551C46.6993 42.6559 47.0919 43.008 47.3428 43.4551C47.5622 43.8464 47.6635 44.2917 47.6357 44.7363Z" fill="#40D98D" stroke="white" stroke-width="3.28"/>
<path d="M61.8915 28V28.8608H69.4728V28H75.3596C76.2257 28 76.9277 28.702 76.9277 29.5679V49.0914C76.9277 49.868 76.2982 50.4976 75.5216 50.4976H55.8338C55.0572 50.4976 54.4276 49.868 54.4276 49.0914V30.1344C54.4276 28.9556 55.3833 28.0001 56.5621 28.0001L61.8915 28Z" fill="#157DF5"/>
<path d="M61.8927 28.8609H65.6758V50.4976H55.8349C55.0582 50.4976 54.4287 49.868 54.4287 49.0914V29.4209C54.4287 28.6362 55.0648 28 55.8497 28H61.8927V28.8609Z" fill="#0965CD"/>
<path d="M62.5782 34.8458H68.7807C69.1639 34.8458 69.4746 34.5351 69.4746 34.1519V28H61.8842V34.1519C61.8843 34.5351 62.195 34.8458 62.5782 34.8458Z" fill="#40D98D"/>
<path d="M65.6758 34.8458H62.6207C62.2136 34.8458 61.8836 34.5158 61.8836 34.1087V28H65.6758V34.8458Z" fill="#25BB71"/>
<path d="M82.0488 53.8727H73.864L64.6576 56.0736C63.1356 56.4375 61.5377 56.3037 60.0967 55.6918L49.7468 51.2968C48.32 50.7168 47.6276 49.0805 48.2032 47.6469C48.7795 46.2118 50.4118 45.5148 51.8447 46.0945L61.6263 50.1242L64.2849 48.1083L62.4671 47.6548C61.7443 47.4664 61.1378 47.0068 60.7594 46.3606C60.381 45.7144 60.276 44.959 60.4636 44.2335C60.79 42.9717 61.9264 42.1327 63.1712 42.1328C63.404 42.1329 63.6408 42.1622 63.8765 42.2236L73.0432 44.6919H82.0488C82.3488 44.6919 82.592 44.936 82.592 45.2371V53.3274C82.592 53.6285 82.3488 53.8727 82.0488 53.8727Z" fill="#FFDECC"/>
<path d="M65.9629 55.7615L64.6572 56.0737C63.1352 56.4375 61.5373 56.3037 60.0963 55.6919L49.7464 51.2969C48.3196 50.7168 47.6272 49.0806 48.2028 47.6469C48.7791 46.2118 50.4114 45.5148 51.8443 46.0945L61.6259 50.1242L64.2846 48.1083L62.4668 47.6548C61.744 47.4664 61.1375 47.0068 60.7591 46.3606C60.3807 45.7144 60.2756 44.959 60.4633 44.2335C60.7897 42.9717 61.9261 42.1327 63.1708 42.1328C63.4036 42.1329 63.6404 42.1622 63.8761 42.2236L65.9629 42.7855V55.7615Z" fill="#FFCFB5"/>
<path d="M82.5875 54.8448H80.3623C79.5834 54.8448 78.9498 54.2088 78.9498 53.4271V44.7146C78.9498 43.9329 79.5834 43.2969 80.3623 43.2969H82.5875C83.3663 43.2969 84 43.9329 84 44.7146V53.4272C84 54.2088 83.3663 54.8448 82.5875 54.8448Z" fill="#157DF5"/>
<path d="M30.6013 80.7734H41.5145L53.7898 83.7305C55.8192 84.2194 57.9498 84.0396 59.871 83.2175L73.6711 77.3125C75.5735 76.5333 76.4968 74.3348 75.7293 72.4086C74.9609 70.4804 72.7844 69.5439 70.8739 70.3228L57.8316 75.7371L54.2867 73.0285L56.7105 72.4192C57.6743 72.1661 58.483 71.5486 58.9874 70.6804C59.492 69.8122 59.6321 68.7972 59.3819 67.8224C58.9467 66.1271 57.4314 64.9999 55.7717 65C55.4613 65.0001 55.1456 65.0395 54.8313 65.122L42.6089 68.4383H30.6013C30.2012 68.4383 29.877 68.7663 29.877 69.1709V80.0407C29.877 80.4453 30.2012 80.7734 30.6013 80.7734Z" fill="#FFDECC"/>
<path d="M52.0488 83.3112L53.7898 83.7306C55.8191 84.2195 57.9498 84.0397 59.871 83.2176L73.6711 77.3126C75.5735 76.5333 76.4968 74.3349 75.7292 72.4087C74.9608 70.4805 72.7844 69.544 70.8739 70.3229L57.8315 75.7371L54.2866 73.0285L56.7104 72.4192C57.6741 72.1661 58.4828 71.5486 58.9873 70.6804C59.4919 69.8122 59.6319 68.7972 59.3817 67.8224C58.9465 66.1271 57.4313 64.9999 55.7716 65C55.4613 65.0001 55.1455 65.0395 54.8313 65.122L52.0488 65.877V83.3112Z" fill="#FFCFB5"/>
<path d="M29.8834 82.0859H32.8503C33.8888 82.0859 34.7337 81.2314 34.7337 80.181V68.4752C34.7337 67.4248 33.8888 66.5703 32.8503 66.5703H29.8834C28.8449 66.5703 28 67.4248 28 68.4752V80.1811C28 81.2314 28.8449 82.0859 29.8834 82.0859Z" fill="#157DF5"/>
<path d="M47.6357 140.736L47.6162 140.927L47.5801 141.114C47.4942 141.486 47.3182 141.832 47.0664 142.12L46.9336 142.26L46.791 142.388C46.4454 142.671 46.0233 142.849 45.5752 142.898L45.5381 142.902C44.5273 142.99 42.9527 143.743 41.6104 144.971C40.9077 145.613 40.4 146.266 40.0781 146.865L40.8984 146.865L40.916 146.866C41.368 146.876 41.8068 147.018 42.1787 147.273L42.3145 147.373C42.6211 147.618 42.8607 147.938 43.0107 148.302C43.1607 148.666 43.2159 149.061 43.1719 149.45L43.1465 149.616L43.1094 149.78C43.024 150.105 42.8699 150.408 42.6562 150.667L42.5439 150.793L42.5322 150.806L42.5195 150.818L36.4082 156.959C35.975 157.394 35.3855 157.64 34.7695 157.64C34.1536 157.64 33.5641 157.394 33.1309 156.959L27.0195 150.818L26.9971 150.796L26.9756 150.772C26.6744 150.445 26.4743 150.039 26.3965 149.603C26.3187 149.166 26.367 148.715 26.5361 148.305C26.7053 147.894 26.9888 147.54 27.3535 147.285C27.7183 147.03 28.149 146.885 28.5947 146.867L28.627 146.865L30.1641 146.865C30.9985 143.465 32.7415 140.656 35.3311 138.979C38.3034 137.053 42.0915 136.811 46.1914 138.44L46.209 138.447L46.2256 138.455C46.6993 138.656 47.0919 139.008 47.3428 139.455C47.5622 139.846 47.6635 140.292 47.6357 140.736Z" fill="#40D98D" stroke="white" stroke-width="3.28"/>
<path d="M61.8915 124V124.861H69.4728V124H75.3596C76.2257 124 76.9277 124.702 76.9277 125.568V145.091C76.9277 145.868 76.2982 146.498 75.5216 146.498H55.8338C55.0572 146.498 54.4276 145.868 54.4276 145.091V126.134C54.4276 124.956 55.3833 124 56.5621 124L61.8915 124Z" fill="#157DF5"/>
<path d="M61.8927 124.861H65.6758V146.498H55.8349C55.0582 146.498 54.4287 145.868 54.4287 145.091V125.421C54.4287 124.636 55.0648 124 55.8497 124H61.8927V124.861Z" fill="#0965CD"/>
<path d="M62.5782 130.846H68.7807C69.1639 130.846 69.4746 130.535 69.4746 130.152V124H61.8842V130.152C61.8843 130.535 62.195 130.846 62.5782 130.846Z" fill="#40D98D"/>
<path d="M65.6758 130.846H62.6207C62.2136 130.846 61.8836 130.516 61.8836 130.109V124H65.6758V130.846Z" fill="#25BB71"/>
<path d="M82.0488 149.873H73.864L64.6576 152.074C63.1356 152.437 61.5377 152.304 60.0967 151.692L49.7468 147.297C48.32 146.717 47.6276 145.081 48.2032 143.647C48.7795 142.212 50.4118 141.515 51.8447 142.094L61.6263 146.124L64.2849 144.108L62.4671 143.655C61.7443 143.466 61.1378 143.007 60.7594 142.361C60.381 141.714 60.276 140.959 60.4636 140.234C60.79 138.972 61.9264 138.133 63.1712 138.133C63.404 138.133 63.6408 138.162 63.8765 138.224L73.0432 140.692H82.0488C82.3488 140.692 82.592 140.936 82.592 141.237V149.327C82.592 149.628 82.3488 149.873 82.0488 149.873Z" fill="#FFDECC"/>
<path d="M65.9629 151.762L64.6572 152.074C63.1352 152.438 61.5373 152.304 60.0963 151.692L49.7464 147.297C48.3196 146.717 47.6272 145.081 48.2028 143.647C48.7791 142.212 50.4114 141.515 51.8443 142.095L61.6259 146.124L64.2846 144.108L62.4668 143.655C61.744 143.466 61.1375 143.007 60.7591 142.361C60.3807 141.714 60.2756 140.959 60.4633 140.234C60.7897 138.972 61.9261 138.133 63.1708 138.133C63.4036 138.133 63.6404 138.162 63.8761 138.224L65.9629 138.786V151.762Z" fill="#FFCFB5"/>
<path d="M82.5875 150.845H80.3623C79.5834 150.845 78.9498 150.209 78.9498 149.427V140.715C78.9498 139.933 79.5834 139.297 80.3623 139.297H82.5875C83.3663 139.297 84 139.933 84 140.715V149.427C84 150.209 83.3663 150.845 82.5875 150.845Z" fill="#157DF5"/>
<path d="M30.6013 176.773H41.5145L53.7898 179.731C55.8192 180.219 57.9498 180.04 59.871 179.218L73.6711 173.313C75.5735 172.533 76.4968 170.335 75.7293 168.409C74.9609 166.48 72.7844 165.544 70.8739 166.323L57.8316 171.737L54.2867 169.029L56.7105 168.419C57.6743 168.166 58.483 167.549 58.9874 166.68C59.492 165.812 59.6321 164.797 59.3819 163.822C58.9467 162.127 57.4314 161 55.7717 161C55.4613 161 55.1456 161.04 54.8313 161.122L42.6089 164.438H30.6013C30.2012 164.438 29.877 164.766 29.877 165.171V176.041C29.877 176.445 30.2012 176.773 30.6013 176.773Z" fill="#FFDECC"/>
<path d="M52.0488 179.311L53.7898 179.731C55.8191 180.22 57.9498 180.04 59.871 179.218L73.6711 173.313C75.5735 172.533 76.4968 170.335 75.7292 168.409C74.9608 166.48 72.7844 165.544 70.8739 166.323L57.8315 171.737L54.2866 169.029L56.7104 168.419C57.6741 168.166 58.4828 167.549 58.9873 166.68C59.4919 165.812 59.6319 164.797 59.3817 163.822C58.9465 162.127 57.4313 161 55.7716 161C55.4613 161 55.1455 161.04 54.8313 161.122L52.0488 161.877V179.311Z" fill="#FFCFB5"/>
<path d="M29.8834 178.086H32.8503C33.8888 178.086 34.7337 177.231 34.7337 176.181V164.475C34.7337 163.425 33.8888 162.57 32.8503 162.57H29.8834C28.8449 162.57 28 163.425 28 164.475V176.181C28 177.231 28.8449 178.086 29.8834 178.086Z" fill="#157DF5"/>
<defs>
<filter id="filter0_dd_8156_35984" x="6" y="9" width="100" height="100" filterUnits="userSpaceOnUse" color-interpolation-filters="sRGB">
<feFlood flood-opacity="0" result="BackgroundImageFix"/>
<feColorMatrix in="SourceAlpha" type="matrix" values="0 0 0 0 0 0 0 0 0 0 0 0 0 0 0 0 0 0 127 0" result="hardAlpha"/>
<feOffset dy="3"/>
<feGaussianBlur stdDeviation="5"/>
<feColorMatrix type="matrix" values="0 0 0 0 0.516667 0 0 0 0 0.578358 0 0 0 0 0.775 0 0 0 0.12 0"/>
<feBlend mode="normal" in2="BackgroundImageFix" result="effect1_dropShadow_8156_35984"/>
<feColorMatrix in="SourceAlpha" type="matrix" values="0 0 0 0 0 0 0 0 0 0 0 0 0 0 0 0 0 0 127 0" result="hardAlpha"/>
<feOffset dy="1"/>
<feGaussianBlur stdDeviation="3"/>
<feColorMatrix type="matrix" values="0 0 0 0 0.709809 0 0 0 0 0.788943 0 0 0 0 0.920833 0 0 0 0.15 0"/>
<feBlend mode="normal" in2="effect1_dropShadow_8156_35984" result="effect2_dropShadow_8156_35984"/>
<feBlend mode="normal" in="SourceGraphic" in2="effect2_dropShadow_8156_35984" result="shape"/>
</filter>
</defs>
</svg>
