<svg width="112" height="208" viewBox="0 0 112 208" fill="none" xmlns="http://www.w3.org/2000/svg">
<rect x="0.5" y="0.5" width="111" height="207" rx="4.5" stroke="#9747FF" stroke-dasharray="10 5"/>
<g filter="url(#filter0_dd_8156_35886)">
<rect x="16" y="16" width="80" height="80" rx="8" fill="white"/>
</g>
<path d="M62.3896 34V35.3392H50.5964V34H41.4393C40.0921 34 39 35.0921 39 36.4393V66.8125C39 68.0206 39.9794 69 41.1875 69H71.8125C73.0206 69 74 68.0206 74 66.8125V37.3205C74 35.4866 72.5134 34.0002 70.6796 34.0002L62.3896 34Z" fill="#157DF5"/>
<path d="M62.3887 35.3394H56.5039V69H71.8118C73.0199 69 73.9993 68.0206 73.9993 66.8125V36.2105C73.9993 34.9898 73.0097 34 71.7888 34H62.3887V35.3394Z" fill="#0965CD"/>
<path d="M61.3234 44.6502H51.6751C51.079 44.6502 50.5957 44.1669 50.5957 43.5707V34H62.403V43.5707C62.4028 44.1669 61.9195 44.6502 61.3234 44.6502Z" fill="#40D98D"/>
<path d="M56.5039 44.6502H61.2562C61.8895 44.6502 62.4028 44.1368 62.4028 43.5035V34H56.5039V44.6502Z" fill="#25BB71"/>
<path d="M31.0364 74.264H43.7682L58.0893 77.688C60.4568 78.2541 62.9424 78.0459 65.1839 77.094L81.2836 70.2566C83.5031 69.3543 84.5802 66.8087 83.6847 64.5783C82.7883 62.3457 80.2492 61.2614 78.0203 62.1632L62.8045 68.4324L58.6689 65.2962L61.4966 64.5906C62.621 64.2976 63.5645 63.5826 64.153 62.5773C64.7417 61.572 64.9051 60.3968 64.6131 59.2681C64.1054 57.3051 62.3377 55.9999 60.4013 56C60.0393 56.0001 59.6709 56.0458 59.3043 56.1413L45.0451 59.9812H31.0364C30.5697 59.9812 30.1914 60.361 30.1914 60.8295V73.4156C30.1914 73.8841 30.5697 74.264 31.0364 74.264Z" fill="#FFDECC"/>
<path d="M56.0586 77.2025L58.0897 77.6881C60.4572 78.2542 62.9429 78.046 65.1843 77.0941L81.2841 70.2567C83.5035 69.3543 84.5806 66.8088 83.6852 64.5785C82.7887 62.3458 80.2496 61.2615 78.0208 62.1633L62.805 68.4324L58.6693 65.2962L61.4969 64.5906C62.6213 64.2976 63.5648 63.5826 64.1533 62.5773C64.742 61.572 64.9054 60.3968 64.6135 59.2681C64.1058 57.3051 62.338 55.9999 60.4018 56C60.0397 56.0001 59.6714 56.0458 59.3047 56.1413L56.0586 57.0155V77.2025Z" fill="#FFCFB5"/>
<path d="M30.1972 75.7779H33.6586C34.8702 75.7779 35.8559 74.7885 35.8559 73.5723V60.0181C35.8559 58.802 34.8702 57.8125 33.6586 57.8125H30.1972C28.9857 57.8125 28 58.802 28 60.0181V73.5724C28 74.7885 28.9857 75.7779 30.1972 75.7779Z" fill="#157DF5"/>
<path d="M62.3896 130V131.339H50.5964V130H41.4393C40.0921 130 39 131.092 39 132.439V162.812C39 164.021 39.9794 165 41.1875 165H71.8125C73.0206 165 74 164.021 74 162.812V133.321C74 131.487 72.5134 130 70.6796 130L62.3896 130Z" fill="#157DF5"/>
<path d="M62.3887 131.339H56.5039V165H71.8118C73.0199 165 73.9993 164.021 73.9993 162.812V132.21C73.9993 130.99 73.0097 130 71.7888 130H62.3887V131.339Z" fill="#0965CD"/>
<path d="M61.3234 140.65H51.6751C51.079 140.65 50.5957 140.167 50.5957 139.571V130H62.403V139.571C62.4028 140.167 61.9195 140.65 61.3234 140.65Z" fill="#40D98D"/>
<path d="M56.5039 140.65H61.2562C61.8895 140.65 62.4028 140.137 62.4028 139.504V130H56.5039V140.65Z" fill="#25BB71"/>
<path d="M31.0364 170.264H43.7682L58.0893 173.688C60.4568 174.254 62.9424 174.046 65.1839 173.094L81.2836 166.257C83.5031 165.354 84.5802 162.809 83.6847 160.578C82.7883 158.346 80.2492 157.261 78.0203 158.163L62.8045 164.432L58.6689 161.296L61.4966 160.591C62.621 160.298 63.5645 159.583 64.153 158.577C64.7417 157.572 64.9051 156.397 64.6131 155.268C64.1054 153.305 62.3377 152 60.4013 152C60.0393 152 59.6709 152.046 59.3043 152.141L45.0451 155.981H31.0364C30.5697 155.981 30.1914 156.361 30.1914 156.829V169.416C30.1914 169.884 30.5697 170.264 31.0364 170.264Z" fill="#FFDECC"/>
<path d="M56.0586 173.202L58.0897 173.688C60.4572 174.254 62.9429 174.046 65.1843 173.094L81.2841 166.257C83.5035 165.354 84.5806 162.809 83.6852 160.578C82.7887 158.346 80.2496 157.261 78.0208 158.163L62.805 164.432L58.6693 161.296L61.4969 160.591C62.6213 160.298 63.5648 159.583 64.1533 158.577C64.742 157.572 64.9054 156.397 64.6135 155.268C64.1058 153.305 62.338 152 60.4018 152C60.0397 152 59.6714 152.046 59.3047 152.141L56.0586 153.015V173.202Z" fill="#FFCFB5"/>
<path d="M30.1972 171.778H33.6586C34.8702 171.778 35.8559 170.788 35.8559 169.572V156.018C35.8559 154.802 34.8702 153.812 33.6586 153.812H30.1972C28.9857 153.812 28 154.802 28 156.018V169.572C28 170.788 28.9857 171.778 30.1972 171.778Z" fill="#157DF5"/>
<defs>
<filter id="filter0_dd_8156_35886" x="6" y="9" width="100" height="100" filterUnits="userSpaceOnUse" color-interpolation-filters="sRGB">
<feFlood flood-opacity="0" result="BackgroundImageFix"/>
<feColorMatrix in="SourceAlpha" type="matrix" values="0 0 0 0 0 0 0 0 0 0 0 0 0 0 0 0 0 0 127 0" result="hardAlpha"/>
<feOffset dy="3"/>
<feGaussianBlur stdDeviation="5"/>
<feColorMatrix type="matrix" values="0 0 0 0 0.516667 0 0 0 0 0.578358 0 0 0 0 0.775 0 0 0 0.12 0"/>
<feBlend mode="normal" in2="BackgroundImageFix" result="effect1_dropShadow_8156_35886"/>
<feColorMatrix in="SourceAlpha" type="matrix" values="0 0 0 0 0 0 0 0 0 0 0 0 0 0 0 0 0 0 127 0" result="hardAlpha"/>
<feOffset dy="1"/>
<feGaussianBlur stdDeviation="3"/>
<feColorMatrix type="matrix" values="0 0 0 0 0.709809 0 0 0 0 0.788943 0 0 0 0 0.920833 0 0 0 0.15 0"/>
<feBlend mode="normal" in2="effect1_dropShadow_8156_35886" result="effect2_dropShadow_8156_35886"/>
<feBlend mode="normal" in="SourceGraphic" in2="effect2_dropShadow_8156_35886" result="shape"/>
</filter>
</defs>
</svg>
