<svg width="112" height="208" viewBox="0 0 112 208" fill="none" xmlns="http://www.w3.org/2000/svg">
<rect x="0.5" y="0.5" width="111" height="207" rx="4.5" stroke="#9747FF" stroke-dasharray="10 5"/>
<g filter="url(#filter0_dd_8156_35724)">
<rect x="16" y="16" width="80" height="80" rx="8" fill="white"/>
</g>
<path d="M54.731 28V29.5305H41.2531V28H30.7877C29.2481 28 28 29.2481 28 30.7877V65.5C28 66.8807 29.1193 68 30.5 68H65.5C66.8807 68 68 66.8807 68 65.5V31.7949C68 29.699 66.301 28.0002 64.2053 28.0002L54.731 28Z" fill="#157DF5"/>
<path d="M54.7314 29.5307H48.0059V68H65.5006C66.8813 68 68.0006 66.8807 68.0006 65.5V30.5263C68.0006 29.1312 66.8696 28 65.4743 28H54.7314V29.5307Z" fill="#0965CD"/>
<path d="M53.5122 40.1716H42.4856C41.8043 40.1716 41.252 39.6193 41.252 38.938V28H54.746V38.938C54.7458 39.6193 54.1935 40.1716 53.5122 40.1716Z" fill="#40D98D"/>
<path d="M48.0059 40.1716H53.4371C54.1608 40.1716 54.7475 39.5849 54.7475 38.8612V28H48.0059V40.1716Z" fill="#25BB71"/>
<path d="M72.0386 44V44.9183H63.9518V44H57.6726C56.7489 44 56 44.7489 56 45.6726V66.5C56 67.3284 56.6716 68 57.5 68H78.5C79.3284 68 80 67.3284 80 66.5V46.2769C80 45.0194 78.9806 44.0001 77.7232 44.0001L72.0386 44Z" fill="#157DF5"/>
<path d="M72.0383 44.9184H68.0031V68H78.4999C79.3283 68 79.9999 67.3284 79.9999 66.5V45.5158C79.9999 44.6787 79.3213 44 78.4841 44H72.0383V44.9184Z" fill="#0965CD"/>
<path d="M71.3073 51.303H64.6914C64.2826 51.303 63.9512 50.9716 63.9512 50.5628V44H72.0476V50.5628C72.0475 50.9716 71.7161 51.303 71.3073 51.303Z" fill="#40D98D"/>
<path d="M68.0031 51.303H71.2618C71.696 51.303 72.048 50.9509 72.048 50.5167V44H68.0031V51.303Z" fill="#25BB71"/>
<path fill-rule="evenodd" clip-rule="evenodd" d="M83.9999 70.7199C83.9999 78.0543 78.0543 83.9999 70.7199 83.9999C63.3856 83.9999 57.4399 78.0543 57.4399 70.7199C57.4399 63.3856 63.3856 57.4399 70.7199 57.4399C78.0543 57.4399 83.9999 63.3856 83.9999 70.7199ZM80.7199 70.7199C80.7199 76.2428 76.2428 80.7199 70.7199 80.7199C65.1971 80.7199 60.7199 76.2428 60.7199 70.7199C60.7199 65.1971 65.1971 60.7199 70.7199 60.7199C76.2428 60.7199 80.7199 65.1971 80.7199 70.7199Z" fill="white"/>
<path d="M70.72 80.72C76.2428 80.72 80.72 76.2428 80.72 70.72C80.72 65.1971 76.2428 60.72 70.72 60.72C65.1971 60.72 60.72 65.1971 60.72 70.72C60.72 76.2428 65.1971 80.72 70.72 80.72Z" fill="#40D98D"/>
<path d="M70.719 60.72C70.7174 60.72 70.7158 60.72 70.7141 60.72V80.7199C70.7158 80.7199 70.7174 80.72 70.719 80.72C76.2419 80.72 80.719 76.2428 80.719 70.72C80.719 65.1971 76.2419 60.72 70.719 60.72Z" fill="#25BB71"/>
<path d="M75.8517 67.0845C75.2693 66.5021 74.3251 66.5021 73.7428 67.0845L69.6361 71.1911L67.6992 69.2541C67.1169 68.6716 66.1727 68.6718 65.5903 69.2541C65.008 69.8365 65.008 70.7808 65.5903 71.363L68.5817 74.3545C68.8614 74.6342 69.2406 74.7913 69.6362 74.7913C70.0317 74.7913 70.411 74.6342 70.6907 74.3545L75.8518 69.1934C76.4341 68.611 76.4341 67.6668 75.8517 67.0845Z" fill="white"/>
<path d="M70.719 60.72C70.7174 60.72 70.7158 60.72 70.7141 60.72V80.7199C70.7158 80.7199 70.7174 80.72 70.719 80.72C76.2419 80.72 80.719 76.2428 80.719 70.72C80.719 65.1971 76.2419 60.72 70.719 60.72Z" fill="#25BB71"/>
<path d="M73.7428 67.0864L70.7161 70.1131V74.331L75.8517 69.1953C76.434 68.613 76.434 67.6687 75.8517 67.0864C75.2694 66.5041 74.3251 66.5041 73.7428 67.0864Z" fill="#F0F7FE"/>
<path d="M54.731 124V125.531H41.2531V124H30.7877C29.2481 124 28 125.248 28 126.788V161.5C28 162.881 29.1193 164 30.5 164H65.5C66.8807 164 68 162.881 68 161.5V127.795C68 125.699 66.301 124 64.2053 124L54.731 124Z" fill="#157DF5"/>
<path d="M54.7314 125.531H48.0059V164H65.5006C66.8813 164 68.0006 162.881 68.0006 161.5V126.526C68.0006 125.131 66.8696 124 65.4743 124H54.7314V125.531Z" fill="#0965CD"/>
<path d="M53.5122 136.172H42.4856C41.8043 136.172 41.252 135.619 41.252 134.938V124H54.746V134.938C54.7458 135.619 54.1935 136.172 53.5122 136.172Z" fill="#40D98D"/>
<path d="M48.0059 136.172H53.4371C54.1608 136.172 54.7475 135.585 54.7475 134.861V124H48.0059V136.172Z" fill="#25BB71"/>
<path d="M72.0386 140V140.918H63.9518V140H57.6726C56.7489 140 56 140.749 56 141.673V162.5C56 163.328 56.6716 164 57.5 164H78.5C79.3284 164 80 163.328 80 162.5V142.277C80 141.019 78.9806 140 77.7232 140L72.0386 140Z" fill="#157DF5"/>
<path d="M72.0383 140.918H68.0031V164H78.4999C79.3283 164 79.9999 163.328 79.9999 162.5V141.516C79.9999 140.679 79.3213 140 78.4841 140H72.0383V140.918Z" fill="#0965CD"/>
<path d="M71.3073 147.303H64.6914C64.2826 147.303 63.9512 146.972 63.9512 146.563V140H72.0476V146.563C72.0475 146.972 71.7161 147.303 71.3073 147.303Z" fill="#40D98D"/>
<path d="M68.0031 147.303H71.2618C71.696 147.303 72.048 146.951 72.048 146.517V140H68.0031V147.303Z" fill="#25BB71"/>
<path fill-rule="evenodd" clip-rule="evenodd" d="M83.9999 166.72C83.9999 174.054 78.0543 180 70.7199 180C63.3856 180 57.4399 174.054 57.4399 166.72C57.4399 159.386 63.3856 153.44 70.7199 153.44C78.0543 153.44 83.9999 159.386 83.9999 166.72ZM80.7199 166.72C80.7199 172.243 76.2428 176.72 70.7199 176.72C65.1971 176.72 60.7199 172.243 60.7199 166.72C60.7199 161.197 65.1971 156.72 70.7199 156.72C76.2428 156.72 80.7199 161.197 80.7199 166.72Z" fill="white"/>
<path d="M70.72 176.72C76.2428 176.72 80.72 172.243 80.72 166.72C80.72 161.197 76.2428 156.72 70.72 156.72C65.1971 156.72 60.72 161.197 60.72 166.72C60.72 172.243 65.1971 176.72 70.72 176.72Z" fill="#40D98D"/>
<path d="M70.719 156.72C70.7174 156.72 70.7158 156.72 70.7141 156.72V176.72C70.7158 176.72 70.7174 176.72 70.719 176.72C76.2419 176.72 80.719 172.243 80.719 166.72C80.719 161.197 76.2419 156.72 70.719 156.72Z" fill="#25BB71"/>
<path d="M75.8517 163.084C75.2693 162.502 74.3251 162.502 73.7428 163.084L69.6361 167.191L67.6992 165.254C67.1169 164.672 66.1727 164.672 65.5903 165.254C65.008 165.836 65.008 166.781 65.5903 167.363L68.5817 170.354C68.8614 170.634 69.2406 170.791 69.6362 170.791C70.0317 170.791 70.411 170.634 70.6907 170.354L75.8518 165.193C76.4341 164.611 76.4341 163.667 75.8517 163.084Z" fill="white"/>
<path d="M70.719 156.72C70.7174 156.72 70.7158 156.72 70.7141 156.72V176.72C70.7158 176.72 70.7174 176.72 70.719 176.72C76.2419 176.72 80.719 172.243 80.719 166.72C80.719 161.197 76.2419 156.72 70.719 156.72Z" fill="#25BB71"/>
<path d="M73.7428 163.086L70.7161 166.113V170.331L75.8517 165.195C76.434 164.613 76.434 163.669 75.8517 163.086C75.2694 162.504 74.3251 162.504 73.7428 163.086Z" fill="#F0F7FE"/>
<defs>
<filter id="filter0_dd_8156_35724" x="6" y="9" width="100" height="100" filterUnits="userSpaceOnUse" color-interpolation-filters="sRGB">
<feFlood flood-opacity="0" result="BackgroundImageFix"/>
<feColorMatrix in="SourceAlpha" type="matrix" values="0 0 0 0 0 0 0 0 0 0 0 0 0 0 0 0 0 0 127 0" result="hardAlpha"/>
<feOffset dy="3"/>
<feGaussianBlur stdDeviation="5"/>
<feColorMatrix type="matrix" values="0 0 0 0 0.516667 0 0 0 0 0.578358 0 0 0 0 0.775 0 0 0 0.12 0"/>
<feBlend mode="normal" in2="BackgroundImageFix" result="effect1_dropShadow_8156_35724"/>
<feColorMatrix in="SourceAlpha" type="matrix" values="0 0 0 0 0 0 0 0 0 0 0 0 0 0 0 0 0 0 127 0" result="hardAlpha"/>
<feOffset dy="1"/>
<feGaussianBlur stdDeviation="3"/>
<feColorMatrix type="matrix" values="0 0 0 0 0.709809 0 0 0 0 0.788943 0 0 0 0 0.920833 0 0 0 0.15 0"/>
<feBlend mode="normal" in2="effect1_dropShadow_8156_35724" result="effect2_dropShadow_8156_35724"/>
<feBlend mode="normal" in="SourceGraphic" in2="effect2_dropShadow_8156_35724" result="shape"/>
</filter>
</defs>
</svg>
