<svg width="112" height="208" viewBox="0 0 112 208" fill="none" xmlns="http://www.w3.org/2000/svg">
<rect x="0.5" y="0.5" width="111" height="207" rx="4.5" stroke="#9747FF" stroke-dasharray="10 5"/>
<g filter="url(#filter0_d_17664_10954)">
<rect x="16" y="16" width="80" height="80" rx="8" fill="white"/>
</g>
<path d="M80.2667 28H31.7333C29.6715 28 28 29.6715 28 31.7333V69.0667C28 71.1285 29.6715 72.8 31.7333 72.8H80.2667C82.3285 72.8 84 71.1285 84 69.0667V31.7333C84 29.6715 82.3285 28 80.2667 28Z" fill="#157DF5"/>
<path d="M31.7324 32.7344C31.7324 32.1821 32.1801 31.7344 32.7324 31.7344H79.2658C79.818 31.7344 80.2658 32.1821 80.2658 32.7344V64.3344C80.2658 64.8867 79.818 65.3344 79.2658 65.3344H32.7324C32.1801 65.3344 31.7324 64.8867 31.7324 64.3344V32.7344Z" fill="#E2EFFE"/>
<path d="M35 41C35 39.8954 35.8954 39 37 39H48C49.1046 39 50 39.8954 50 41V45C50 46.1046 49.1046 47 48 47H37C35.8954 47 35 46.1046 35 45V41Z" fill="#B6D7FC"/>
<path d="M35 51.5C35 50.6716 35.6716 50 36.5 50H44.5C45.3284 50 46 50.6716 46 51.5C46 52.3284 45.3284 53 44.5 53H36.5C35.6716 53 35 52.3284 35 51.5Z" fill="#40D98D"/>
<path d="M35 57.5C35 56.6716 35.6716 56 36.5 56H41.5C42.3284 56 43 56.6716 43 57.5C43 58.3284 42.3284 59 41.5 59H36.5C35.6716 59 35 58.3284 35 57.5Z" fill="#B6D7FC"/>
<path d="M47.5996 72.7969H64.3996V80.2635H47.5996V72.7969Z" fill="#E2EFFE"/>
<path d="M68.1333 80.2656C68.6284 80.2656 69.1032 80.4623 69.4533 80.8124C69.8033 81.1624 70 81.6372 70 82.1323V82.999C70 83.5512 69.5523 83.999 69 83.999H43C42.4477 83.999 42 83.5512 42 82.999V82.1323C42 81.6372 42.1967 81.1624 42.5467 80.8124C42.8968 80.4623 43.3716 80.2656 43.8667 80.2656H68.1333Z" fill="#157DF5"/>
<path d="M56 83.999H69C69.5523 83.999 70 83.5512 70 82.999V82.1323C70 81.6372 69.8033 81.1624 69.4533 80.8124C69.1032 80.4623 68.6284 80.2656 68.1333 80.2656H56V83.999Z" fill="#0965CD"/>
<path d="M56 80.2635H64.3996V72.7969H56V80.2635Z" fill="#B6D7FC"/>
<path d="M56 72.8H80.2667C82.3285 72.8 84 71.1285 84 69.0667V31.7333C84 29.6715 82.3285 28 80.2667 28H56V72.8Z" fill="#0965CD"/>
<path d="M56 65.3344H79.2658C79.818 65.3344 80.2658 64.8867 80.2658 64.3344V32.7344C80.2658 32.1821 79.818 31.7344 79.2658 31.7344H56V65.3344Z" fill="#B6D7FC"/>
<path d="M59.7305 48.6641C59.7305 47.5595 60.6259 46.6641 61.7305 46.6641H81.9971C83.1017 46.6641 83.9971 47.5595 83.9971 48.6641V81.9974C83.9971 83.102 83.1017 83.9974 81.9971 83.9974H61.7305C60.6259 83.9974 59.7305 83.102 59.7305 81.9974V48.6641Z" fill="#157DF5"/>
<path d="M63.4648 70.0703C63.4648 69.518 63.9126 69.0703 64.4648 69.0703H79.2648C79.8171 69.0703 80.2648 69.518 80.2648 70.0703V84.0036H63.4648V70.0703Z" fill="#B6D7FC"/>
<path d="M63.4648 52.2651C63.4648 51.2342 64.3006 50.3984 65.3315 50.3984H78.3982C79.4291 50.3984 80.2648 51.2342 80.2648 52.2651C80.2648 53.296 79.4291 54.1318 78.3982 54.1318H65.3315C64.3006 54.1318 63.4648 53.296 63.4648 52.2651Z" fill="#B6D7FC"/>
<path d="M66.2656 72.8005C66.2656 72.2851 66.6835 71.8672 67.199 71.8672H76.5323C77.0478 71.8672 77.4656 72.2851 77.4656 72.8005C77.4656 73.316 77.0478 73.7339 76.5323 73.7339H67.199C66.6835 73.7339 66.2656 73.316 66.2656 72.8005Z" fill="#E2EFFE"/>
<path d="M66.2656 76.5349C66.2656 76.0194 66.6835 75.6016 67.199 75.6016H76.5323C77.0478 75.6016 77.4656 76.0194 77.4656 76.5349C77.4656 77.0504 77.0478 77.4682 76.5323 77.4682H67.199C66.6835 77.4682 66.2656 77.0504 66.2656 76.5349Z" fill="#E2EFFE"/>
<path d="M66.2656 80.2693C66.2656 79.7538 66.6835 79.3359 67.199 79.3359H76.5323C77.0478 79.3359 77.4656 79.7538 77.4656 80.2693C77.4656 80.7847 77.0478 81.2026 76.5323 81.2026H67.199C66.6835 81.2026 66.2656 80.7847 66.2656 80.2693Z" fill="#E2EFFE"/>
<path d="M63.832 64.8281C63.832 64.2758 64.2797 63.8281 64.832 63.8281H69.8315C70.3838 63.8281 70.8315 64.2758 70.8315 64.8281V65.8281C70.8315 66.3804 70.3838 66.8281 69.8315 66.8281H64.832C64.2797 66.8281 63.832 66.3804 63.832 65.8281V64.8281Z" fill="#282A52"/>
<path d="M77.7656 64.8281C77.7656 64.2758 78.2133 63.8281 78.7656 63.8281H79.7656C80.3179 63.8281 80.7656 64.2758 80.7656 64.8281V65.8281C80.7656 66.3804 80.3179 66.8281 79.7656 66.8281H78.7656C78.2133 66.8281 77.7656 66.3804 77.7656 65.8281V64.8281Z" fill="#40D98D"/>
<path d="M63.4648 59.7339C63.4648 58.7029 64.3006 57.8672 65.3315 57.8672H78.3982C79.4291 57.8672 80.2648 58.7029 80.2648 59.7339C80.2648 60.7648 79.4291 61.6005 78.3982 61.6005H65.3315C64.3006 61.6005 63.4648 60.7648 63.4648 59.7339Z" fill="#B6D7FC"/>
<path d="M80.2667 124H31.7333C29.6715 124 28 125.671 28 127.733V165.067C28 167.129 29.6715 168.8 31.7333 168.8H80.2667C82.3285 168.8 84 167.129 84 165.067V127.733C84 125.671 82.3285 124 80.2667 124Z" fill="#157DF5"/>
<path d="M31.7324 128.734C31.7324 128.182 32.1801 127.734 32.7324 127.734H79.2658C79.818 127.734 80.2658 128.182 80.2658 128.734V160.334C80.2658 160.887 79.818 161.334 79.2658 161.334H32.7324C32.1801 161.334 31.7324 160.887 31.7324 160.334V128.734Z" fill="#E2EFFE"/>
<path d="M35 137C35 135.895 35.8954 135 37 135H48C49.1046 135 50 135.895 50 137V141C50 142.105 49.1046 143 48 143H37C35.8954 143 35 142.105 35 141V137Z" fill="#B6D7FC"/>
<path d="M35 147.5C35 146.672 35.6716 146 36.5 146H44.5C45.3284 146 46 146.672 46 147.5C46 148.328 45.3284 149 44.5 149H36.5C35.6716 149 35 148.328 35 147.5Z" fill="#40D98D"/>
<path d="M35 153.5C35 152.672 35.6716 152 36.5 152H41.5C42.3284 152 43 152.672 43 153.5C43 154.328 42.3284 155 41.5 155H36.5C35.6716 155 35 154.328 35 153.5Z" fill="#B6D7FC"/>
<path d="M47.5996 168.797H64.3996V176.264H47.5996V168.797Z" fill="#E2EFFE"/>
<path d="M68.1333 176.266C68.6284 176.266 69.1032 176.462 69.4533 176.812C69.8033 177.162 70 177.637 70 178.132V178.999C70 179.551 69.5523 179.999 69 179.999H43C42.4477 179.999 42 179.551 42 178.999V178.132C42 177.637 42.1967 177.162 42.5467 176.812C42.8968 176.462 43.3716 176.266 43.8667 176.266H68.1333Z" fill="#157DF5"/>
<path d="M56 179.999H69C69.5523 179.999 70 179.551 70 178.999V178.132C70 177.637 69.8033 177.162 69.4533 176.812C69.1032 176.462 68.6284 176.266 68.1333 176.266H56V179.999Z" fill="#0965CD"/>
<path d="M56 176.264H64.3996V168.797H56V176.264Z" fill="#B6D7FC"/>
<path d="M56 168.8H80.2667C82.3285 168.8 84 167.129 84 165.067V127.733C84 125.671 82.3285 124 80.2667 124H56V168.8Z" fill="#0965CD"/>
<path d="M56 161.334H79.2658C79.818 161.334 80.2658 160.887 80.2658 160.334V128.734C80.2658 128.182 79.818 127.734 79.2658 127.734H56V161.334Z" fill="#B6D7FC"/>
<path d="M59.7305 144.664C59.7305 143.559 60.6259 142.664 61.7305 142.664H81.9971C83.1017 142.664 83.9971 143.559 83.9971 144.664V177.997C83.9971 179.102 83.1017 179.997 81.9971 179.997H61.7305C60.6259 179.997 59.7305 179.102 59.7305 177.997V144.664Z" fill="#157DF5"/>
<path d="M63.4648 166.07C63.4648 165.518 63.9126 165.07 64.4648 165.07H79.2648C79.8171 165.07 80.2648 165.518 80.2648 166.07V180.004H63.4648V166.07Z" fill="#B6D7FC"/>
<path d="M63.4648 148.265C63.4648 147.234 64.3006 146.398 65.3315 146.398H78.3982C79.4291 146.398 80.2648 147.234 80.2648 148.265C80.2648 149.296 79.4291 150.132 78.3982 150.132H65.3315C64.3006 150.132 63.4648 149.296 63.4648 148.265Z" fill="#B6D7FC"/>
<path d="M66.2656 168.801C66.2656 168.285 66.6835 167.867 67.199 167.867H76.5323C77.0478 167.867 77.4656 168.285 77.4656 168.801C77.4656 169.316 77.0478 169.734 76.5323 169.734H67.199C66.6835 169.734 66.2656 169.316 66.2656 168.801Z" fill="#E2EFFE"/>
<path d="M66.2656 172.535C66.2656 172.019 66.6835 171.602 67.199 171.602H76.5323C77.0478 171.602 77.4656 172.019 77.4656 172.535C77.4656 173.05 77.0478 173.468 76.5323 173.468H67.199C66.6835 173.468 66.2656 173.05 66.2656 172.535Z" fill="#E2EFFE"/>
<path d="M66.2656 176.269C66.2656 175.754 66.6835 175.336 67.199 175.336H76.5323C77.0478 175.336 77.4656 175.754 77.4656 176.269C77.4656 176.785 77.0478 177.203 76.5323 177.203H67.199C66.6835 177.203 66.2656 176.785 66.2656 176.269Z" fill="#E2EFFE"/>
<path d="M63.832 160.828C63.832 160.276 64.2797 159.828 64.832 159.828H69.8315C70.3838 159.828 70.8315 160.276 70.8315 160.828V161.828C70.8315 162.38 70.3838 162.828 69.8315 162.828H64.832C64.2797 162.828 63.832 162.38 63.832 161.828V160.828Z" fill="#282A52"/>
<path d="M77.7656 160.828C77.7656 160.276 78.2133 159.828 78.7656 159.828H79.7656C80.3179 159.828 80.7656 160.276 80.7656 160.828V161.828C80.7656 162.38 80.3179 162.828 79.7656 162.828H78.7656C78.2133 162.828 77.7656 162.38 77.7656 161.828V160.828Z" fill="#40D98D"/>
<path d="M63.4648 155.734C63.4648 154.703 64.3006 153.867 65.3315 153.867H78.3982C79.4291 153.867 80.2648 154.703 80.2648 155.734C80.2648 156.765 79.4291 157.601 78.3982 157.601H65.3315C64.3006 157.601 63.4648 156.765 63.4648 155.734Z" fill="#B6D7FC"/>
<defs>
<filter id="filter0_d_17664_10954" x="10" y="9" width="96" height="96" filterUnits="userSpaceOnUse" color-interpolation-filters="sRGB">
<feFlood flood-opacity="0" result="BackgroundImageFix"/>
<feColorMatrix in="SourceAlpha" type="matrix" values="0 0 0 0 0 0 0 0 0 0 0 0 0 0 0 0 0 0 127 0" result="hardAlpha"/>
<feOffset dx="2" dy="1"/>
<feGaussianBlur stdDeviation="4"/>
<feColorMatrix type="matrix" values="0 0 0 0 0.0392157 0 0 0 0 0.0392157 0 0 0 0 0.0627451 0 0 0 0.08 0"/>
<feBlend mode="normal" in2="BackgroundImageFix" result="effect1_dropShadow_17664_10954"/>
<feBlend mode="normal" in="SourceGraphic" in2="effect1_dropShadow_17664_10954" result="shape"/>
</filter>
</defs>
</svg>
