<svg width="112" height="208" viewBox="0 0 112 208" fill="none" xmlns="http://www.w3.org/2000/svg">
<rect x="0.5" y="0.5" width="111" height="207" rx="4.5" stroke="#9747FF" stroke-dasharray="10 5"/>
<g filter="url(#filter0_dd_32397_12083)">
<rect x="16" y="16" width="80" height="80" rx="8" fill="white"/>
</g>
<path d="M73.4881 64.2166C75.583 65.0053 75.0289 68.1745 72.7961 68.1745H30C28.8954 68.1745 28 67.2603 28 66.1325V57.6188L56 53.2107L55.9651 57.6188L73.4881 64.2166Z" fill="#E2EFFE"/>
<path d="M56.0014 51.0059L55.9844 56.495V68.173H82.0014C83.106 68.173 84.0014 67.2588 84.0014 66.131V57.6173L56.0014 51.0059Z" fill="#B6D7FC"/>
<path d="M40.4961 36.0247C41.8108 31.838 44.605 28 47.8394 28C51.074 28 53.8682 31.8381 55.1829 36.0249L47.8394 48.8299L40.4961 36.0247Z" fill="#FFCFB5"/>
<path d="M56.7852 36.0247C58.0999 31.838 60.894 28 64.1285 28C67.3627 28 70.1567 31.8374 71.4716 36.0239L64.1285 48.83L56.7852 36.0247Z" fill="#FFDECC"/>
<path d="M31.5469 48.8325C31.5469 43.3718 35.1935 35.9485 39.6918 35.9485C44.1902 35.9485 47.8367 43.3718 47.8367 48.8325H31.5469Z" fill="#FFDECC"/>
<path d="M47.8359 48.8325C47.8359 43.3718 51.4825 35.9485 55.9809 35.9485C60.4792 35.9485 63.0258 43.3718 63.0258 48.8325H47.8359Z" fill="#FFDECC"/>
<path d="M64.1293 48.8325C64.1293 43.3718 60.4827 35.9485 55.9844 35.9485V48.8325H64.1293Z" fill="#FFCFB5"/>
<path d="M64.1289 48.8325C64.1289 43.3718 67.7755 35.9485 72.2738 35.9485C76.7722 35.9485 80.4188 43.3718 80.4188 48.8325H64.1289Z" fill="#FFCFB5"/>
<path d="M28 49.1011C28 47.9733 28.8954 47.0591 30 47.0591H82C83.1046 47.0591 84 47.9733 84 49.1011V57.6148H28V49.1011Z" fill="#F0F7FE"/>
<path d="M55.9844 47.0591H82.0014C83.106 47.0591 84.0014 47.9733 84.0014 49.1011V57.6148H55.9844V47.0591Z" fill="#E2EFFE"/>
<path d="M77.5878 63.5363C76.493 61.6317 74.0682 60.9791 72.1718 62.0788L62.6816 67.5819C63.3496 67.067 63.8607 66.3358 64.0956 65.4558C64.6623 63.3315 63.4072 61.148 61.2921 60.5788L53.2283 58.4087C53.2282 58.4087 53.2281 58.4087 53.228 58.4086C51.1265 57.8432 48.8876 58.1392 47.0036 59.2317L34.4597 66.5053C33.6751 66.9603 33.4061 67.9681 33.8593 68.7562L40.4218 80.1722C40.8748 80.9602 41.8782 81.2304 42.6629 80.7753L48.8905 77.1641L60.9212 77.5154C61.2252 77.5243 61.5257 77.4481 61.7892 77.2954L76.1367 68.9759C78.033 67.8763 78.6828 65.4409 77.5878 63.5363Z" fill="#FFDECC"/>
<path d="M39.7447 63.0082L48.4947 78.2295C48.7123 78.6079 48.7712 79.0578 48.6587 79.4798C48.5461 79.9019 48.2712 80.2619 47.8943 80.4803L42.2109 83.7759C41.426 84.2312 40.4226 83.9608 39.9698 83.1728L31.2198 67.9515C31.0023 67.573 30.9433 67.1232 31.0559 66.7011C31.1684 66.2791 31.4434 65.9191 31.8203 65.7006L37.5036 62.4051C37.762 62.2553 38.044 62.1841 38.3224 62.1841C38.8894 62.184 39.4409 62.4796 39.7447 63.0082Z" fill="#157DF5"/>
<path d="M76.1366 68.9731L61.7891 77.2926C61.5257 77.4454 61.2252 77.5215 60.9211 77.5127L54.5591 77.3269V58.7639L61.292 60.5758C63.4071 61.145 64.6623 63.3285 64.0955 65.4528C63.8607 66.3328 63.3496 67.064 62.6815 67.5789L72.1717 62.0758C74.0681 60.9762 76.4929 61.6287 77.5878 63.5333C78.6827 65.4381 78.0329 67.8735 76.1366 68.9731Z" fill="#FFCFB5"/>
<path d="M73.4881 160.217C75.583 161.005 75.0289 164.174 72.7961 164.174H30C28.8954 164.174 28 163.26 28 162.132V153.619L56 149.211L55.9651 153.619L73.4881 160.217Z" fill="#E2EFFE"/>
<path d="M56.0014 147.006L55.9844 152.495V164.173H82.0014C83.106 164.173 84.0014 163.259 84.0014 162.131V153.617L56.0014 147.006Z" fill="#B6D7FC"/>
<path d="M40.4961 132.025C41.8108 127.838 44.605 124 47.8394 124C51.074 124 53.8682 127.838 55.1829 132.025L47.8394 144.83L40.4961 132.025Z" fill="#FFCFB5"/>
<path d="M56.7852 132.025C58.0999 127.838 60.894 124 64.1285 124C67.3627 124 70.1567 127.837 71.4716 132.024L64.1285 144.83L56.7852 132.025Z" fill="#FFDECC"/>
<path d="M31.5469 144.832C31.5469 139.372 35.1935 131.948 39.6918 131.948C44.1902 131.948 47.8367 139.372 47.8367 144.832H31.5469Z" fill="#FFDECC"/>
<path d="M47.8359 144.832C47.8359 139.372 51.4825 131.948 55.9809 131.948C60.4792 131.948 63.0258 139.372 63.0258 144.832H47.8359Z" fill="#FFDECC"/>
<path d="M64.1293 144.832C64.1293 139.372 60.4827 131.948 55.9844 131.948V144.832H64.1293Z" fill="#FFCFB5"/>
<path d="M64.1289 144.832C64.1289 139.372 67.7755 131.948 72.2738 131.948C76.7722 131.948 80.4188 139.372 80.4188 144.832H64.1289Z" fill="#FFCFB5"/>
<path d="M28 145.101C28 143.973 28.8954 143.059 30 143.059H82C83.1046 143.059 84 143.973 84 145.101V153.615H28V145.101Z" fill="#F0F7FE"/>
<path d="M55.9844 143.059H82.0014C83.106 143.059 84.0014 143.973 84.0014 145.101V153.615H55.9844V143.059Z" fill="#E2EFFE"/>
<path d="M77.5878 159.536C76.493 157.632 74.0682 156.979 72.1718 158.079L62.6816 163.582C63.3496 163.067 63.8607 162.336 64.0956 161.456C64.6623 159.332 63.4072 157.148 61.2921 156.579L53.2283 154.409C53.2282 154.409 53.2281 154.409 53.228 154.409C51.1265 153.843 48.8876 154.139 47.0036 155.232L34.4597 162.505C33.6751 162.96 33.4061 163.968 33.8593 164.756L40.4218 176.172C40.8748 176.96 41.8782 177.23 42.6629 176.775L48.8905 173.164L60.9212 173.515C61.2252 173.524 61.5257 173.448 61.7892 173.295L76.1367 164.976C78.033 163.876 78.6828 161.441 77.5878 159.536Z" fill="#FFDECC"/>
<path d="M39.7447 159.008L48.4947 174.23C48.7123 174.608 48.7712 175.058 48.6587 175.48C48.5461 175.902 48.2712 176.262 47.8943 176.48L42.2109 179.776C41.426 180.231 40.4226 179.961 39.9698 179.173L31.2198 163.951C31.0023 163.573 30.9433 163.123 31.0559 162.701C31.1684 162.279 31.4434 161.919 31.8203 161.701L37.5036 158.405C37.762 158.255 38.044 158.184 38.3224 158.184C38.8894 158.184 39.4409 158.48 39.7447 159.008Z" fill="#157DF5"/>
<path d="M76.1366 164.973L61.7891 173.293C61.5257 173.445 61.2252 173.522 60.9211 173.513L54.5591 173.327V154.764L61.292 156.576C63.4071 157.145 64.6623 159.329 64.0955 161.453C63.8607 162.333 63.3496 163.064 62.6815 163.579L72.1717 158.076C74.0681 156.976 76.4929 157.629 77.5878 159.533C78.6827 161.438 78.0329 163.873 76.1366 164.973Z" fill="#FFCFB5"/>
<defs>
<filter id="filter0_dd_32397_12083" x="6" y="9" width="100" height="100" filterUnits="userSpaceOnUse" color-interpolation-filters="sRGB">
<feFlood flood-opacity="0" result="BackgroundImageFix"/>
<feColorMatrix in="SourceAlpha" type="matrix" values="0 0 0 0 0 0 0 0 0 0 0 0 0 0 0 0 0 0 127 0" result="hardAlpha"/>
<feOffset dy="3"/>
<feGaussianBlur stdDeviation="5"/>
<feColorMatrix type="matrix" values="0 0 0 0 0.516667 0 0 0 0 0.578358 0 0 0 0 0.775 0 0 0 0.12 0"/>
<feBlend mode="normal" in2="BackgroundImageFix" result="effect1_dropShadow_32397_12083"/>
<feColorMatrix in="SourceAlpha" type="matrix" values="0 0 0 0 0 0 0 0 0 0 0 0 0 0 0 0 0 0 127 0" result="hardAlpha"/>
<feOffset dy="1"/>
<feGaussianBlur stdDeviation="3"/>
<feColorMatrix type="matrix" values="0 0 0 0 0.709809 0 0 0 0 0.788943 0 0 0 0 0.920833 0 0 0 0.15 0"/>
<feBlend mode="normal" in2="effect1_dropShadow_32397_12083" result="effect2_dropShadow_32397_12083"/>
<feBlend mode="normal" in="SourceGraphic" in2="effect2_dropShadow_32397_12083" result="shape"/>
</filter>
</defs>
</svg>
