<svg width="112" height="208" viewBox="0 0 112 208" fill="none" xmlns="http://www.w3.org/2000/svg">
<rect x="0.5" y="0.5" width="111" height="207" rx="4.5" stroke="#9747FF" stroke-dasharray="10 5"/>
<g filter="url(#filter0_d_55984_11735)">
<rect x="16" y="16" width="80" height="80" rx="8" fill="white"/>
</g>
<path fill-rule="evenodd" clip-rule="evenodd" d="M55.9021 67.7719H66.7999C67.1938 67.7719 67.4564 67.4755 67.4564 67.1132C67.4564 64.2805 68.7536 61.9749 71.6093 61.9749C74.4322 61.9749 76.7299 64.2805 76.7299 67.1132C76.7299 67.4755 76.9925 67.7719 77.3864 67.7719H80.7175C82.5229 67.7719 84 66.2897 84 64.4782V51.5667C84 51.2044 83.7046 50.908 83.3435 50.908H55.9021C55.5411 50.908 55.2457 51.2044 55.2457 51.5667V67.1132C55.2128 67.4755 55.5411 67.7719 55.9021 67.7719Z" fill="#157DF5"/>
<path fill-rule="evenodd" clip-rule="evenodd" d="M30.0035 67.7734H34.6646C35.0257 67.7734 35.3211 67.477 35.3211 67.1147C35.3211 64.2821 37.6188 61.9764 40.4417 61.9764C43.2646 61.9764 45.5624 64.2821 45.5624 67.1147C45.5624 67.477 45.8578 67.7734 46.2188 67.7734H55.9021C56.2632 67.7734 56.5586 67.477 56.5586 67.1147L56.5258 42.1481C56.296 40.3036 54.6219 39.9413 53.7685 40.0072H43.5272C43.2318 40.0072 43.002 40.1719 42.9036 40.4024L38.6035 51.2059L30.7256 52.2599C28.5264 52.6222 27.9684 54.2361 28.0012 55.0266V65.9948C28.0668 66.5547 28.5264 67.7734 30.0035 67.7734Z" fill="#0965CD"/>
<path fill-rule="evenodd" clip-rule="evenodd" d="M28.0008 56.9723V62.8351H30.397C34.2375 62.8351 34.2375 56.9723 30.397 56.9723H28.0008Z" fill="#40D98D"/>
<path fill-rule="evenodd" clip-rule="evenodd" d="M41.9843 42.671L38.6034 51.2018H49.5339C51.3393 51.2018 52.8164 49.7196 52.8164 47.9081V45.9648C52.8164 44.1532 51.3393 42.671 49.5339 42.671H41.9843Z" fill="#B6D7FC"/>
<path fill-rule="evenodd" clip-rule="evenodd" d="M84 64.4478V58.585H82.0633C78.2229 58.585 78.2229 64.4478 82.0633 64.4478C82.3916 64.4478 83.3435 64.4808 84 64.4478Z" fill="#40D98D"/>
<path fill-rule="evenodd" clip-rule="evenodd" d="M40.4953 73C43.5328 73 45.9786 70.5457 45.9786 67.4977C45.9786 64.4497 43.5328 61.9559 40.4953 61.9559C37.4577 61.9559 34.9724 64.4497 34.9724 67.4977C34.9724 70.5457 37.4577 73 40.4953 73Z" fill="#1E203E"/>
<path fill-rule="evenodd" clip-rule="evenodd" d="M40.4754 69.4885C43.1436 69.4885 43.1436 65.4725 40.4754 65.4725C37.8073 65.4725 37.8073 69.4885 40.4754 69.4885Z" fill="#B6D7FC"/>
<path fill-rule="evenodd" clip-rule="evenodd" d="M71.5127 73C74.5503 73 76.9961 70.5457 76.9961 67.4977C76.9961 64.4497 74.5503 61.9559 71.5127 61.9559C68.4752 61.9559 65.9899 64.4497 65.9899 67.4977C65.9899 70.5457 68.4752 73 71.5127 73Z" fill="#1E203E"/>
<path fill-rule="evenodd" clip-rule="evenodd" d="M71.4983 69.4885C74.1594 69.4885 74.1594 65.4725 71.4983 65.4725C68.8371 65.4725 68.8091 69.4885 71.4983 69.4885Z" fill="#B6D7FC"/>
<path fill-rule="evenodd" clip-rule="evenodd" d="M55.9021 163.772H66.7999C67.1938 163.772 67.4564 163.475 67.4564 163.113C67.4564 160.281 68.7536 157.975 71.6093 157.975C74.4322 157.975 76.7299 160.281 76.7299 163.113C76.7299 163.475 76.9925 163.772 77.3864 163.772H80.7175C82.5229 163.772 84 162.29 84 160.478V147.567C84 147.204 83.7046 146.908 83.3435 146.908H55.9021C55.5411 146.908 55.2457 147.204 55.2457 147.567V163.113C55.2128 163.475 55.5411 163.772 55.9021 163.772Z" fill="#157DF5"/>
<path fill-rule="evenodd" clip-rule="evenodd" d="M30.0035 163.773H34.6646C35.0257 163.773 35.3211 163.477 35.3211 163.115C35.3211 160.282 37.6188 157.976 40.4417 157.976C43.2646 157.976 45.5624 160.282 45.5624 163.115C45.5624 163.477 45.8578 163.773 46.2188 163.773H55.9021C56.2632 163.773 56.5586 163.477 56.5586 163.115L56.5258 138.148C56.296 136.304 54.6219 135.941 53.7685 136.007H43.5272C43.2318 136.007 43.002 136.172 42.9036 136.402L38.6035 147.206L30.7256 148.26C28.5264 148.622 27.9684 150.236 28.0012 151.027V161.995C28.0668 162.555 28.5264 163.773 30.0035 163.773Z" fill="#0965CD"/>
<path fill-rule="evenodd" clip-rule="evenodd" d="M28.0008 152.972V158.835H30.397C34.2375 158.835 34.2375 152.972 30.397 152.972H28.0008Z" fill="#40D98D"/>
<path fill-rule="evenodd" clip-rule="evenodd" d="M41.9843 138.671L38.6034 147.202H49.5339C51.3393 147.202 52.8164 145.72 52.8164 143.908V141.965C52.8164 140.153 51.3393 138.671 49.5339 138.671H41.9843Z" fill="#B6D7FC"/>
<path fill-rule="evenodd" clip-rule="evenodd" d="M84 160.448V154.585H82.0633C78.2229 154.585 78.2229 160.448 82.0633 160.448C82.3916 160.448 83.3435 160.481 84 160.448Z" fill="#40D98D"/>
<path fill-rule="evenodd" clip-rule="evenodd" d="M40.4953 169C43.5328 169 45.9786 166.546 45.9786 163.498C45.9786 160.45 43.5328 157.956 40.4953 157.956C37.4577 157.956 34.9724 160.45 34.9724 163.498C34.9724 166.546 37.4577 169 40.4953 169Z" fill="#1E203E"/>
<path fill-rule="evenodd" clip-rule="evenodd" d="M40.4754 165.489C43.1436 165.489 43.1436 161.473 40.4754 161.473C37.8073 161.473 37.8073 165.489 40.4754 165.489Z" fill="#B6D7FC"/>
<path fill-rule="evenodd" clip-rule="evenodd" d="M71.5127 169C74.5503 169 76.9961 166.546 76.9961 163.498C76.9961 160.45 74.5503 157.956 71.5127 157.956C68.4752 157.956 65.9899 160.45 65.9899 163.498C65.9899 166.546 68.4752 169 71.5127 169Z" fill="#1E203E"/>
<path fill-rule="evenodd" clip-rule="evenodd" d="M71.4983 165.489C74.1594 165.489 74.1594 161.473 71.4983 161.473C68.8371 161.473 68.8091 165.489 71.4983 165.489Z" fill="#B6D7FC"/>
<defs>
<filter id="filter0_d_55984_11735" x="10" y="9" width="96" height="96" filterUnits="userSpaceOnUse" color-interpolation-filters="sRGB">
<feFlood flood-opacity="0" result="BackgroundImageFix"/>
<feColorMatrix in="SourceAlpha" type="matrix" values="0 0 0 0 0 0 0 0 0 0 0 0 0 0 0 0 0 0 127 0" result="hardAlpha"/>
<feOffset dx="2" dy="1"/>
<feGaussianBlur stdDeviation="4"/>
<feColorMatrix type="matrix" values="0 0 0 0 0.0392157 0 0 0 0 0.0392157 0 0 0 0 0.0627451 0 0 0 0.08 0"/>
<feBlend mode="normal" in2="BackgroundImageFix" result="effect1_dropShadow_55984_11735"/>
<feBlend mode="normal" in="SourceGraphic" in2="effect1_dropShadow_55984_11735" result="shape"/>
</filter>
</defs>
</svg>
