<svg width="112" height="208" viewBox="0 0 112 208" fill="none" xmlns="http://www.w3.org/2000/svg">
<rect x="0.5" y="0.5" width="111" height="207" rx="4.5" stroke="#9747FF" stroke-dasharray="10 5"/>
<g filter="url(#filter0_d_52294_11360)">
<rect x="16" y="16" width="80" height="80" rx="8" fill="white"/>
</g>
<path d="M28.0095 35.161C27.998 34.5033 28.5323 33.9632 29.188 34.002C32.1876 34.1792 34.4704 35.1588 35.9339 37.0639C36.0598 37.2278 36.0278 37.4604 35.8697 37.5932L30.2716 42.2964C30.0851 42.4531 29.8024 42.4076 29.6798 42.197C28.4188 40.03 28.0624 38.2034 28.0095 35.161Z" fill="#FFA099"/>
<path d="M48.0004 35.168C48.0118 34.5104 47.4777 33.9703 46.8218 34.009C43.8223 34.1862 41.5395 35.1659 40.076 37.071C39.9501 37.2348 39.982 37.4674 40.1402 37.6003L45.7383 42.3035C45.9248 42.4602 46.2075 42.4147 46.3301 42.2041C47.5911 40.0371 47.9474 38.2105 48.0004 35.168Z" fill="#FF7E75"/>
<path d="M47.9923 44.607C47.9923 39.1808 43.1105 34.782 37.9961 34.782C32.8818 34.782 28 39.1808 28 44.607C28 57.129 47.9923 57.129 47.9923 44.607Z" fill="#FFDECC"/>
<path d="M38.0034 53.9985C43 53.9966 47.995 50.8661 47.995 44.607C47.995 39.1824 43.1161 34.7846 38.0034 34.782V53.9985Z" fill="#FFCFB5"/>
<path d="M42.954 46.4621C42.954 44.3141 40.6105 42.5728 38.1555 42.5728C35.7004 42.5728 33.3569 44.3141 33.3569 46.4621C33.3569 51.4192 42.954 51.4192 42.954 46.4621Z" fill="#FFA099"/>
<path d="M42.3954 40.7912C42.3954 40.1279 41.8583 39.5901 41.1957 39.5901C40.5332 39.5901 39.9961 40.1279 39.9961 40.7912C39.9961 41.4546 40.5332 41.9923 41.1957 41.9923C41.8583 41.9923 42.3954 41.4546 42.3954 40.7912Z" fill="#1E203E"/>
<path d="M35.9986 40.7912C35.9986 40.1279 35.4615 39.5901 34.799 39.5901C34.1365 39.5901 33.5994 40.1279 33.5994 40.7912C33.5994 41.4546 34.1365 41.9923 34.799 41.9923C35.4615 41.9923 35.9986 41.4546 35.9986 40.7912Z" fill="#282A52"/>
<path fill-rule="evenodd" clip-rule="evenodd" d="M36.5961 47.8515C36.1544 47.8515 35.7964 47.493 35.7964 47.0507V46.25C35.7964 45.8077 36.1544 45.4492 36.5961 45.4492C37.0378 45.4492 37.3959 45.8077 37.3959 46.25V47.0507C37.3959 47.493 37.0378 47.8515 36.5961 47.8515Z" fill="#282A52"/>
<path d="M38.0034 50.1782C40.4532 50.2327 42.9569 48.994 42.9569 46.4621C42.9569 44.3141 40.6134 42.5728 38.1584 42.5728C38.1067 42.5728 38.055 42.5735 38.0034 42.5751V50.1782Z" fill="#FF7E75"/>
<path fill-rule="evenodd" clip-rule="evenodd" d="M39.3959 47.8515C38.9543 47.8515 38.5962 47.493 38.5962 47.0507V46.25C38.5962 45.8077 38.9543 45.4492 39.3959 45.4492C39.8376 45.4492 40.1957 45.8077 40.1957 46.25V47.0507C40.1957 47.493 39.8376 47.8515 39.3959 47.8515Z" fill="#1E203E"/>
<path d="M43.0095 58.161C42.998 57.5033 43.5323 56.9632 44.188 57.002C47.1876 57.1792 49.4704 58.1588 50.9339 60.0639C51.0598 60.2278 51.0278 60.4604 50.8697 60.5932L45.2716 65.2964C45.0851 65.4531 44.8024 65.4076 44.6798 65.197C43.4188 63.03 43.0624 61.2034 43.0095 58.161Z" fill="#FFA099"/>
<path d="M63.0004 58.168C63.0118 57.5104 62.4777 56.9703 61.8218 57.009C58.8223 57.1862 56.5395 58.1659 55.076 60.071C54.9501 60.2348 54.982 60.4674 55.1402 60.6003L60.7383 65.3035C60.9248 65.4602 61.2075 65.4147 61.3301 65.2041C62.5911 63.0371 62.9474 61.2105 63.0004 58.168Z" fill="#FF7E75"/>
<path d="M62.9923 67.607C62.9923 62.1808 58.1105 57.782 52.9961 57.782C47.8818 57.782 43 62.1808 43 67.607C43 80.129 62.9923 80.129 62.9923 67.607Z" fill="#FFDECC"/>
<path d="M53.0034 76.9985C58 76.9966 62.995 73.8661 62.995 67.607C62.995 62.1824 58.1161 57.7846 53.0034 57.782V76.9985Z" fill="#FFCFB5"/>
<path d="M57.954 69.4621C57.954 67.3141 55.6105 65.5728 53.1555 65.5728C50.7004 65.5728 48.3569 67.3141 48.3569 69.4621C48.3569 74.4192 57.954 74.4192 57.954 69.4621Z" fill="#FFA099"/>
<path d="M57.3954 63.7912C57.3954 63.1279 56.8583 62.5901 56.1957 62.5901C55.5332 62.5901 54.9961 63.1279 54.9961 63.7912C54.9961 64.4546 55.5332 64.9923 56.1957 64.9923C56.8583 64.9923 57.3954 64.4546 57.3954 63.7912Z" fill="#1E203E"/>
<path d="M50.9986 63.7912C50.9986 63.1279 50.4615 62.5901 49.799 62.5901C49.1365 62.5901 48.5994 63.1279 48.5994 63.7912C48.5994 64.4546 49.1365 64.9923 49.799 64.9923C50.4615 64.9923 50.9986 64.4546 50.9986 63.7912Z" fill="#282A52"/>
<path fill-rule="evenodd" clip-rule="evenodd" d="M51.5961 70.8515C51.1544 70.8515 50.7964 70.493 50.7964 70.0507V69.25C50.7964 68.8077 51.1544 68.4492 51.5961 68.4492C52.0378 68.4492 52.3959 68.8077 52.3959 69.25V70.0507C52.3959 70.493 52.0378 70.8515 51.5961 70.8515Z" fill="#282A52"/>
<path d="M53.0034 73.1782C55.4532 73.2327 57.9569 71.994 57.9569 69.4621C57.9569 67.3141 55.6134 65.5728 53.1584 65.5728C53.1067 65.5728 53.055 65.5735 53.0034 65.5751V73.1782Z" fill="#FF7E75"/>
<path fill-rule="evenodd" clip-rule="evenodd" d="M54.3959 70.8515C53.9543 70.8515 53.5962 70.493 53.5962 70.0507V69.25C53.5962 68.8077 53.9543 68.4492 54.3959 68.4492C54.8376 68.4492 55.1957 68.8077 55.1957 69.25V70.0507C55.1957 70.493 54.8376 70.8515 54.3959 70.8515Z" fill="#1E203E"/>
<path d="M67 33.9999C67 30.6863 69.6863 28 72.9999 28H78.0001C81.3137 28 84 30.6863 84 33.9999V39.0001C84 42.3137 81.3137 45 78.0001 45H72.9999C69.6863 45 67 42.3137 67 39.0001V33.9999Z" fill="#B6D7FC"/>
<path d="M67 53.4999C67 50.1863 69.6863 47.5 72.9999 47.5H78.0001C81.3137 47.5 84 50.1863 84 53.4999V58.5001C84 61.8137 81.3137 64.5 78.0001 64.5H72.9999C69.6863 64.5 67 61.8137 67 58.5001V53.4999Z" fill="#157DF5"/>
<path d="M67 72.9999C67 69.6863 69.6863 67 72.9999 67H78.0001C81.3137 67 84 69.6863 84 72.9999V78.0001C84 81.3137 81.3137 84 78.0001 84H72.9999C69.6863 84 67 81.3137 67 78.0001V72.9999Z" fill="#0965CD"/>
<path d="M75.3753 70.5C73.6454 70.5 72.6909 71.7468 72.6509 71.7998C72.4024 72.1308 72.4688 72.6011 72.8003 72.8496C73.1313 73.0986 73.6015 73.0317 73.85 72.7002C73.855 72.6932 74.4024 72 75.3753 72C76.1337 72 76.7502 72.6165 76.7502 73.375C76.7502 74.1335 76.1337 74.75 75.3753 74.75H75.2503C74.8358 74.75 74.5003 75.0855 74.5003 75.5C74.5003 75.9145 74.8358 76.25 75.2503 76.25H75.5003C76.3272 76.25 77.0001 76.8665 77.0001 77.625C77.0001 78.3835 76.3272 79 75.5003 79C74.4534 79 73.8664 78.3178 73.8334 78.2783C73.5754 77.9593 73.1067 77.9066 72.7837 78.1621C72.4592 78.4201 72.4051 78.8923 72.6626 79.2168C72.7046 79.2693 73.7029 80.5 75.5003 80.5C77.1546 80.5 78.5 79.21 78.5 77.625C78.5 76.733 78.0743 75.9352 77.4073 75.4072C77.9278 74.8867 78.25 74.1675 78.25 73.375C78.25 71.79 76.9601 70.5 75.3753 70.5Z" fill="#F0F7FE"/>
<path d="M75.5 51C73.8455 51 72.5 52.3455 72.5 54V54.25C72.5 54.6645 72.8355 55 73.25 55C73.6645 55 74 54.6645 74 54.25V54C74 53.173 74.673 52.5 75.5 52.5C76.327 52.5 77 53.173 77 54C77 54.8855 76.4918 55.6706 75.7363 55.9541L75.5166 56.0352C74.3151 56.4747 72.5 57.14 72.5 60.25C72.5 60.6645 72.8355 61 73.25 61H77.75C78.1645 61 78.5 60.6645 78.5 60.25C78.5 59.8355 78.1645 59.5 77.75 59.5H74.0488C74.2493 58.097 75.0512 57.8033 76.0322 57.4443L76.2637 57.3584C77.6012 56.8569 78.5 55.507 78.5 54C78.5 52.3455 77.1545 51 75.5 51Z" fill="#E2EFFE"/>
<path d="M76.2071 31.5012C76.1492 31.5045 76.0912 31.5146 76.0343 31.5315L73.5347 32.2815C73.1382 32.4005 72.9128 32.8195 73.0318 33.216C73.1508 33.6125 73.5673 33.8374 73.9662 33.718L75.5002 33.258V40.75C75.5002 41.1645 75.8357 41.5 76.2501 41.5C76.6645 41.5 77 41.164 77 40.75V32.2502C77 32.0127 76.8878 31.7902 76.6973 31.6487C76.5545 31.5425 76.3811 31.4913 76.2071 31.5012Z" fill="#0965CD"/>
<path d="M52.257 38.1794C52.8751 37.5099 53.7176 37.0949 54.6218 37.0144C55.526 36.9339 56.4278 37.1936 57.1529 37.7434C57.878 37.1936 58.7798 36.9339 59.684 37.0144C60.5882 37.0949 61.4307 37.5099 62.0487 38.1794C62.752 38.9412 63.1428 39.9428 63.1428 40.9829C63.1428 42.023 62.752 43.0246 62.0487 43.7865L58.7182 47.3077C58.5151 47.5262 58.2696 47.7004 57.9969 47.8195C57.7242 47.9386 57.4301 48 57.1329 48C56.8357 48 56.5416 47.9386 56.2689 47.8195C55.9962 47.7004 55.7507 47.5262 55.5476 47.3077L52.2171 43.7865C51.5193 43.0196 51.1355 42.0151 51.1429 40.975C51.1503 39.9349 51.5484 38.9361 52.257 38.1794Z" fill="#F3263D"/>
<path d="M57.1428 37.7358C56.4194 37.1912 55.5218 36.9342 54.6218 37.0144C53.7176 37.0949 52.8751 37.5099 52.257 38.1794C51.5484 38.9361 51.1503 39.9349 51.1429 40.975C51.1355 42.0151 51.5193 43.0196 52.2171 43.7865L55.5476 47.3077C55.7507 47.5262 55.9962 47.7004 56.2689 47.8195C56.5416 47.9386 56.8357 48 57.1329 48C57.1362 48 57.1395 48 57.1428 48V37.7358Z" fill="#F54B5E"/>
<path d="M29.1142 64.1794C29.7323 63.5099 30.5748 63.0949 31.479 63.0144C32.3832 62.9339 33.2849 63.1936 34.0101 63.7434C34.7352 63.1936 35.637 62.9339 36.5412 63.0144C37.4454 63.0949 38.2879 63.5099 38.9059 64.1794C39.6091 64.9412 40 65.9428 40 66.9829C40 68.023 39.6091 69.0246 38.9059 69.7865L35.5754 73.3077C35.3723 73.5262 35.1268 73.7004 34.8541 73.8195C34.5814 73.9386 34.2873 74 33.9901 74C33.6928 74 33.3988 73.9386 33.1261 73.8195C32.8534 73.7004 32.6079 73.5262 32.4048 73.3077L29.0743 69.7865C28.3764 69.0196 27.9927 68.0151 28.0001 66.975C28.0075 65.9349 28.4055 64.9361 29.1142 64.1794Z" fill="#F3263D"/>
<path d="M34 63.7358C33.2766 63.1912 32.379 62.9342 31.479 63.0144C30.5748 63.0949 29.7323 63.5099 29.1142 64.1794C28.4055 64.9361 28.0075 65.9349 28.0001 66.975C27.9927 68.0151 28.3764 69.0196 29.0743 69.7865L32.4048 73.3077C32.6079 73.5262 32.8534 73.7004 33.1261 73.8195C33.3988 73.9386 33.6928 74 33.9901 74C33.9934 74 33.9967 74 34 74V63.7358Z" fill="#F54B5E"/>
<path d="M28.0095 131.161C27.998 130.503 28.5323 129.963 29.188 130.002C32.1876 130.179 34.4704 131.159 35.9339 133.064C36.0598 133.228 36.0278 133.46 35.8697 133.593L30.2716 138.296C30.0851 138.453 29.8024 138.408 29.6798 138.197C28.4188 136.03 28.0624 134.203 28.0095 131.161Z" fill="#FFA099"/>
<path d="M48.0004 131.168C48.0118 130.51 47.4777 129.97 46.8218 130.009C43.8223 130.186 41.5395 131.166 40.076 133.071C39.9501 133.235 39.982 133.467 40.1402 133.6L45.7383 138.304C45.9248 138.46 46.2075 138.415 46.3301 138.204C47.5911 136.037 47.9474 134.21 48.0004 131.168Z" fill="#FF7E75"/>
<path d="M47.9923 140.607C47.9923 135.181 43.1105 130.782 37.9961 130.782C32.8818 130.782 28 135.181 28 140.607C28 153.129 47.9923 153.129 47.9923 140.607Z" fill="#FFDECC"/>
<path d="M38.0034 149.999C43 149.997 47.995 146.866 47.995 140.607C47.995 135.182 43.1161 130.785 38.0034 130.782V149.999Z" fill="#FFCFB5"/>
<path d="M42.954 142.462C42.954 140.314 40.6105 138.573 38.1555 138.573C35.7004 138.573 33.3569 140.314 33.3569 142.462C33.3569 147.419 42.954 147.419 42.954 142.462Z" fill="#FFA099"/>
<path d="M42.3954 136.791C42.3954 136.128 41.8583 135.59 41.1957 135.59C40.5332 135.59 39.9961 136.128 39.9961 136.791C39.9961 137.455 40.5332 137.992 41.1957 137.992C41.8583 137.992 42.3954 137.455 42.3954 136.791Z" fill="#1E203E"/>
<path d="M35.9986 136.791C35.9986 136.128 35.4615 135.59 34.799 135.59C34.1365 135.59 33.5994 136.128 33.5994 136.791C33.5994 137.455 34.1365 137.992 34.799 137.992C35.4615 137.992 35.9986 137.455 35.9986 136.791Z" fill="#282A52"/>
<path fill-rule="evenodd" clip-rule="evenodd" d="M36.5961 143.851C36.1544 143.851 35.7964 143.493 35.7964 143.051V142.25C35.7964 141.808 36.1544 141.449 36.5961 141.449C37.0378 141.449 37.3959 141.808 37.3959 142.25V143.051C37.3959 143.493 37.0378 143.851 36.5961 143.851Z" fill="#282A52"/>
<path d="M38.0034 146.178C40.4532 146.233 42.9569 144.994 42.9569 142.462C42.9569 140.314 40.6134 138.573 38.1584 138.573C38.1067 138.573 38.055 138.574 38.0034 138.575V146.178Z" fill="#FF7E75"/>
<path fill-rule="evenodd" clip-rule="evenodd" d="M39.3959 143.851C38.9543 143.851 38.5962 143.493 38.5962 143.051V142.25C38.5962 141.808 38.9543 141.449 39.3959 141.449C39.8376 141.449 40.1957 141.808 40.1957 142.25V143.051C40.1957 143.493 39.8376 143.851 39.3959 143.851Z" fill="#1E203E"/>
<path d="M43.0095 154.161C42.998 153.503 43.5323 152.963 44.188 153.002C47.1876 153.179 49.4704 154.159 50.9339 156.064C51.0598 156.228 51.0278 156.46 50.8697 156.593L45.2716 161.296C45.0851 161.453 44.8024 161.408 44.6798 161.197C43.4188 159.03 43.0624 157.203 43.0095 154.161Z" fill="#FFA099"/>
<path d="M63.0004 154.168C63.0118 153.51 62.4777 152.97 61.8218 153.009C58.8223 153.186 56.5395 154.166 55.076 156.071C54.9501 156.235 54.982 156.467 55.1402 156.6L60.7383 161.304C60.9248 161.46 61.2075 161.415 61.3301 161.204C62.5911 159.037 62.9474 157.21 63.0004 154.168Z" fill="#FF7E75"/>
<path d="M62.9923 163.607C62.9923 158.181 58.1105 153.782 52.9961 153.782C47.8818 153.782 43 158.181 43 163.607C43 176.129 62.9923 176.129 62.9923 163.607Z" fill="#FFDECC"/>
<path d="M53.0034 172.999C58 172.997 62.995 169.866 62.995 163.607C62.995 158.182 58.1161 153.785 53.0034 153.782V172.999Z" fill="#FFCFB5"/>
<path d="M57.954 165.462C57.954 163.314 55.6105 161.573 53.1555 161.573C50.7004 161.573 48.3569 163.314 48.3569 165.462C48.3569 170.419 57.954 170.419 57.954 165.462Z" fill="#FFA099"/>
<path d="M57.3954 159.791C57.3954 159.128 56.8583 158.59 56.1957 158.59C55.5332 158.59 54.9961 159.128 54.9961 159.791C54.9961 160.455 55.5332 160.992 56.1957 160.992C56.8583 160.992 57.3954 160.455 57.3954 159.791Z" fill="#1E203E"/>
<path d="M50.9986 159.791C50.9986 159.128 50.4615 158.59 49.799 158.59C49.1365 158.59 48.5994 159.128 48.5994 159.791C48.5994 160.455 49.1365 160.992 49.799 160.992C50.4615 160.992 50.9986 160.455 50.9986 159.791Z" fill="#282A52"/>
<path fill-rule="evenodd" clip-rule="evenodd" d="M51.5961 166.851C51.1544 166.851 50.7964 166.493 50.7964 166.051V165.25C50.7964 164.808 51.1544 164.449 51.5961 164.449C52.0378 164.449 52.3959 164.808 52.3959 165.25V166.051C52.3959 166.493 52.0378 166.851 51.5961 166.851Z" fill="#282A52"/>
<path d="M53.0034 169.178C55.4532 169.233 57.9569 167.994 57.9569 165.462C57.9569 163.314 55.6134 161.573 53.1584 161.573C53.1067 161.573 53.055 161.574 53.0034 161.575V169.178Z" fill="#FF7E75"/>
<path fill-rule="evenodd" clip-rule="evenodd" d="M54.3959 166.851C53.9543 166.851 53.5962 166.493 53.5962 166.051V165.25C53.5962 164.808 53.9543 164.449 54.3959 164.449C54.8376 164.449 55.1957 164.808 55.1957 165.25V166.051C55.1957 166.493 54.8376 166.851 54.3959 166.851Z" fill="#1E203E"/>
<path d="M67 130C67 126.686 69.6863 124 72.9999 124H78.0001C81.3137 124 84 126.686 84 130V135C84 138.314 81.3137 141 78.0001 141H72.9999C69.6863 141 67 138.314 67 135V130Z" fill="#B6D7FC"/>
<path d="M67 149.5C67 146.186 69.6863 143.5 72.9999 143.5H78.0001C81.3137 143.5 84 146.186 84 149.5V154.5C84 157.814 81.3137 160.5 78.0001 160.5H72.9999C69.6863 160.5 67 157.814 67 154.5V149.5Z" fill="#157DF5"/>
<path d="M67 169C67 165.686 69.6863 163 72.9999 163H78.0001C81.3137 163 84 165.686 84 169V174C84 177.314 81.3137 180 78.0001 180H72.9999C69.6863 180 67 177.314 67 174V169Z" fill="#0965CD"/>
<path d="M75.3753 166.5C73.6454 166.5 72.6909 167.747 72.6509 167.8C72.4024 168.131 72.4688 168.601 72.8003 168.85C73.1313 169.099 73.6015 169.032 73.85 168.7C73.855 168.693 74.4024 168 75.3753 168C76.1337 168 76.7502 168.616 76.7502 169.375C76.7502 170.134 76.1337 170.75 75.3753 170.75H75.2503C74.8358 170.75 74.5003 171.085 74.5003 171.5C74.5003 171.915 74.8358 172.25 75.2503 172.25H75.5003C76.3272 172.25 77.0001 172.866 77.0001 173.625C77.0001 174.384 76.3272 175 75.5003 175C74.4534 175 73.8664 174.318 73.8334 174.278C73.5754 173.959 73.1067 173.907 72.7837 174.162C72.4592 174.42 72.4051 174.892 72.6626 175.217C72.7046 175.269 73.7029 176.5 75.5003 176.5C77.1546 176.5 78.5 175.21 78.5 173.625C78.5 172.733 78.0743 171.935 77.4073 171.407C77.9278 170.887 78.25 170.168 78.25 169.375C78.25 167.79 76.9601 166.5 75.3753 166.5Z" fill="#F0F7FE"/>
<path d="M75.5 147C73.8455 147 72.5 148.345 72.5 150V150.25C72.5 150.664 72.8355 151 73.25 151C73.6645 151 74 150.664 74 150.25V150C74 149.173 74.673 148.5 75.5 148.5C76.327 148.5 77 149.173 77 150C77 150.885 76.4918 151.671 75.7363 151.954L75.5166 152.035C74.3151 152.475 72.5 153.14 72.5 156.25C72.5 156.665 72.8355 157 73.25 157H77.75C78.1645 157 78.5 156.665 78.5 156.25C78.5 155.835 78.1645 155.5 77.75 155.5H74.0488C74.2493 154.097 75.0512 153.803 76.0322 153.444L76.2637 153.358C77.6012 152.857 78.5 151.507 78.5 150C78.5 148.345 77.1545 147 75.5 147Z" fill="#E2EFFE"/>
<path d="M76.2071 127.501C76.1492 127.505 76.0912 127.515 76.0343 127.531L73.5347 128.281C73.1382 128.4 72.9128 128.82 73.0318 129.216C73.1508 129.612 73.5673 129.837 73.9662 129.718L75.5002 129.258V136.75C75.5002 137.165 75.8357 137.5 76.2501 137.5C76.6645 137.5 77 137.164 77 136.75V128.25C77 128.013 76.8878 127.79 76.6973 127.649C76.5545 127.543 76.3811 127.491 76.2071 127.501Z" fill="#0965CD"/>
<path d="M52.257 134.179C52.8751 133.51 53.7176 133.095 54.6218 133.014C55.526 132.934 56.4278 133.194 57.1529 133.743C57.878 133.194 58.7798 132.934 59.684 133.014C60.5882 133.095 61.4307 133.51 62.0487 134.179C62.752 134.941 63.1428 135.943 63.1428 136.983C63.1428 138.023 62.752 139.025 62.0487 139.786L58.7182 143.308C58.5151 143.526 58.2696 143.7 57.9969 143.819C57.7242 143.939 57.4301 144 57.1329 144C56.8357 144 56.5416 143.939 56.2689 143.819C55.9962 143.7 55.7507 143.526 55.5476 143.308L52.2171 139.786C51.5193 139.02 51.1355 138.015 51.1429 136.975C51.1503 135.935 51.5484 134.936 52.257 134.179Z" fill="#F3263D"/>
<path d="M57.1428 133.736C56.4194 133.191 55.5218 132.934 54.6218 133.014C53.7176 133.095 52.8751 133.51 52.257 134.179C51.5484 134.936 51.1503 135.935 51.1429 136.975C51.1355 138.015 51.5193 139.02 52.2171 139.786L55.5476 143.308C55.7507 143.526 55.9962 143.7 56.2689 143.819C56.5416 143.939 56.8357 144 57.1329 144C57.1362 144 57.1395 144 57.1428 144V133.736Z" fill="#F54B5E"/>
<path d="M29.1142 160.179C29.7323 159.51 30.5748 159.095 31.479 159.014C32.3832 158.934 33.2849 159.194 34.0101 159.743C34.7352 159.194 35.637 158.934 36.5412 159.014C37.4454 159.095 38.2879 159.51 38.9059 160.179C39.6091 160.941 40 161.943 40 162.983C40 164.023 39.6091 165.025 38.9059 165.786L35.5754 169.308C35.3723 169.526 35.1268 169.7 34.8541 169.819C34.5814 169.939 34.2873 170 33.9901 170C33.6928 170 33.3988 169.939 33.1261 169.819C32.8534 169.7 32.6079 169.526 32.4048 169.308L29.0743 165.786C28.3764 165.02 27.9927 164.015 28.0001 162.975C28.0075 161.935 28.4055 160.936 29.1142 160.179Z" fill="#F3263D"/>
<path d="M34 159.736C33.2766 159.191 32.379 158.934 31.479 159.014C30.5748 159.095 29.7323 159.51 29.1142 160.179C28.4055 160.936 28.0075 161.935 28.0001 162.975C27.9927 164.015 28.3764 165.02 29.0743 165.786L32.4048 169.308C32.6079 169.526 32.8534 169.7 33.1261 169.819C33.3988 169.939 33.6928 170 33.9901 170C33.9934 170 33.9967 170 34 170V159.736Z" fill="#F54B5E"/>
<defs>
<filter id="filter0_d_52294_11360" x="10" y="9" width="96" height="96" filterUnits="userSpaceOnUse" color-interpolation-filters="sRGB">
<feFlood flood-opacity="0" result="BackgroundImageFix"/>
<feColorMatrix in="SourceAlpha" type="matrix" values="0 0 0 0 0 0 0 0 0 0 0 0 0 0 0 0 0 0 127 0" result="hardAlpha"/>
<feOffset dx="2" dy="1"/>
<feGaussianBlur stdDeviation="4"/>
<feColorMatrix type="matrix" values="0 0 0 0 0.0392157 0 0 0 0 0.0392157 0 0 0 0 0.0627451 0 0 0 0.08 0"/>
<feBlend mode="normal" in2="BackgroundImageFix" result="effect1_dropShadow_52294_11360"/>
<feBlend mode="normal" in="SourceGraphic" in2="effect1_dropShadow_52294_11360" result="shape"/>
</filter>
</defs>
</svg>
