<svg width="112" height="208" viewBox="0 0 112 208" fill="none" xmlns="http://www.w3.org/2000/svg">
<rect x="0.5" y="0.5" width="111" height="207" rx="4.5" stroke="#9747FF" stroke-dasharray="10 5"/>
<g filter="url(#filter0_d_52429_11600)">
<rect x="17" y="16" width="80" height="80" rx="8" fill="white"/>
</g>
<path d="M36.8394 33.2399C36.8394 31.5831 38.1825 30.24 39.8393 30.24H57.0001V83.9999H39.8393C38.1825 83.9999 36.8394 82.6568 36.8394 81V33.2399Z" fill="#157DF5"/>
<path d="M77.1611 33.2399C77.1611 31.5831 75.818 30.24 74.1612 30.24H57.0004V83.9999H74.1612C75.818 83.9999 77.1611 82.6568 77.1611 81V33.2399Z" fill="#0965CD"/>
<path d="M41.3202 32.4961H57.0008V81.776H50.2805V73.936C50.2805 72.0804 48.7761 70.576 46.9204 70.576H39.0801V34.7361C39.0801 33.499 40.083 32.4961 41.3202 32.4961Z" fill="white"/>
<path d="M39.0801 70.5732H48.0404C49.2776 70.5732 50.2805 71.5761 50.2805 72.8132V81.7732L39.0801 70.5732Z" fill="#B6D7FC"/>
<path d="M74.9212 34.7361C74.9212 33.499 73.9182 32.4961 72.6811 32.4961H57.0005V81.776H72.6811C73.9182 81.776 74.9212 80.7731 74.9212 79.536V34.7361Z" fill="#F0F7FE"/>
<path d="M69.3208 58.8172C69.3208 57.8894 68.5686 57.1372 67.6408 57.1372L57.0003 57.1372V60.4972H67.6408C68.5686 60.4972 69.3208 59.745 69.3208 58.8172Z" fill="#282A52"/>
<path d="M54.7603 65.5374C54.7603 64.6096 54.0081 63.8574 53.0803 63.8574H47.4799C46.5521 63.8574 45.7999 64.6096 45.7999 65.5374C45.7999 66.4653 46.5521 67.2174 47.4799 67.2174H53.0803C54.0081 67.2174 54.7603 66.4653 54.7603 65.5374Z" fill="#40D98D"/>
<path d="M69.3208 49.8568C69.3208 48.9289 68.5686 48.1768 67.6408 48.1768H62.0405C61.1126 48.1768 60.3605 48.9289 60.3605 49.8568C60.3605 50.7846 61.1126 51.5368 62.0405 51.5368H67.6408C68.5686 51.5368 69.3208 50.7846 69.3208 49.8568Z" fill="#282A52"/>
<path d="M69.3208 65.5374C69.3208 64.6096 68.5686 63.8574 67.6408 63.8574H62.0405C61.1126 63.8574 60.3605 64.6096 60.3605 65.5374C60.3605 66.4653 61.1126 67.2174 62.0405 67.2174H67.6408C68.5686 67.2174 69.3208 66.4653 69.3208 65.5374Z" fill="#282A52"/>
<path d="M45.8003 58.8172C45.8003 57.8894 46.5525 57.1372 47.4803 57.1372H57.0007V60.4972H47.4803C46.5525 60.4972 45.8003 59.745 45.8003 58.8172Z" fill="#282A52"/>
<path d="M43.0035 40.6945C42.9967 40.3 43.3172 39.976 43.7106 39.9992C45.51 40.1055 46.8795 40.6932 47.7575 41.836C47.833 41.9343 47.8138 42.0738 47.719 42.1535L44.3606 44.9749C44.2487 45.0689 44.0791 45.0415 44.0056 44.9152C43.2491 43.6153 43.0353 42.5196 43.0035 40.6945Z" fill="#FFA099"/>
<path d="M55.0001 40.7018C55.007 40.3073 54.6866 39.9833 54.2931 40.0065C52.4936 40.1128 51.1242 40.7005 50.2462 41.8433C50.1706 41.9416 50.1898 42.0812 50.2847 42.1609L53.6431 44.9822C53.755 45.0762 53.9246 45.0489 53.9981 44.9225C54.7546 43.6226 54.9683 42.5269 55.0001 40.7018Z" fill="#FF7E75"/>
<path d="M54.9946 46.3647C54.9946 43.1094 52.0657 40.4705 48.9973 40.4705C45.9289 40.4705 43 43.1094 43 46.3647C43 53.8769 54.9946 53.8769 54.9946 46.3647Z" fill="#FFDECC"/>
<path d="M49.0005 51.9988C51.9982 51.9977 54.995 50.1196 54.995 46.3647C54.995 43.1104 52.0679 40.472 49.0005 40.4705V51.9988Z" fill="#FFCFB5"/>
<path d="M51.9708 47.4767C51.9708 46.1881 50.5649 45.1436 49.0921 45.1436C47.6193 45.1436 46.2134 46.1881 46.2134 47.4767C46.2134 50.4503 51.9708 50.4503 51.9708 47.4767Z" fill="#FFA099"/>
<path d="M51.6356 44.0684C51.6356 43.6705 51.3134 43.3479 50.916 43.3479C50.5185 43.3479 50.1963 43.6705 50.1963 44.0684C50.1963 44.4664 50.5185 44.7889 50.916 44.7889C51.3134 44.7889 51.6356 44.4664 51.6356 44.0684Z" fill="#1E203E"/>
<path d="M47.7973 44.0684C47.7973 43.6705 47.475 43.3479 47.0776 43.3479C46.6801 43.3479 46.3579 43.6705 46.3579 44.0684C46.3579 44.4664 46.6801 44.7889 47.0776 44.7889C47.475 44.7889 47.7973 44.4664 47.7973 44.0684Z" fill="#282A52"/>
<path fill-rule="evenodd" clip-rule="evenodd" d="M48.157 48.3046C47.892 48.3046 47.6772 48.0895 47.6772 47.8242V47.3439C47.6772 47.0786 47.892 46.8635 48.157 46.8635C48.422 46.8635 48.6368 47.0786 48.6368 47.3439V47.8242C48.6368 48.0895 48.422 48.3046 48.157 48.3046Z" fill="#282A52"/>
<path d="M49.0005 49.7058C50.4702 49.7385 51.9722 48.9955 51.9722 47.4767C51.9722 46.1881 50.5663 45.1436 49.0935 45.1436C49.0624 45.1436 49.0314 45.144 49.0005 45.1449V49.7058Z" fill="#FF7E75"/>
<path fill-rule="evenodd" clip-rule="evenodd" d="M49.8367 48.3046C49.5717 48.3046 49.3569 48.0895 49.3569 47.8242V47.3439C49.3569 47.0786 49.5717 46.8635 49.8367 46.8635C50.1017 46.8635 50.3165 47.0786 50.3165 47.3439V47.8242C50.3165 48.0895 50.1017 48.3046 49.8367 48.3046Z" fill="#1E203E"/>
<path d="M50.2798 30C50.2798 28.8954 51.1752 28 52.2797 28H57V32.48H50.2798V30Z" fill="#157DF5"/>
<path d="M57.0005 28H61.7208C62.8253 28 63.7207 28.8954 63.7207 30V32.48H57.0005V28Z" fill="#0965CD"/>
<path fill-rule="evenodd" clip-rule="evenodd" d="M69.9099 41.716C70.1516 42.3154 69.8903 43.0096 69.3263 43.2665L62.5813 46.3388C61.3593 46.8953 60 45.9427 60 44.5298V42.1811C60 41.529 60.4974 41.0003 61.1111 41.0003C61.7247 41.0003 62.2222 41.529 62.2222 42.1811V43.9329L68.451 41.0958C69.015 40.8389 69.6682 41.1166 69.9099 41.716Z" fill="#40D98D"/>
<path d="M36.8394 129.24C36.8394 127.583 38.1825 126.24 39.8393 126.24H57.0001V180H39.8393C38.1825 180 36.8394 178.657 36.8394 177V129.24Z" fill="#157DF5"/>
<path d="M77.1611 129.24C77.1611 127.583 75.818 126.24 74.1612 126.24H57.0004V180H74.1612C75.818 180 77.1611 178.657 77.1611 177V129.24Z" fill="#0965CD"/>
<path d="M41.3202 128.496H57.0008V177.776H50.2805V169.936C50.2805 168.08 48.7761 166.576 46.9204 166.576H39.0801V130.736C39.0801 129.499 40.083 128.496 41.3202 128.496Z" fill="white"/>
<path d="M39.0801 166.573H48.0404C49.2776 166.573 50.2805 167.576 50.2805 168.813V177.773L39.0801 166.573Z" fill="#B6D7FC"/>
<path d="M74.9212 130.736C74.9212 129.499 73.9182 128.496 72.6811 128.496H57.0005V177.776H72.6811C73.9182 177.776 74.9212 176.773 74.9212 175.536V130.736Z" fill="#F0F7FE"/>
<path d="M69.3208 154.817C69.3208 153.889 68.5686 153.137 67.6408 153.137L57.0003 153.137V156.497H67.6408C68.5686 156.497 69.3208 155.745 69.3208 154.817Z" fill="#282A52"/>
<path d="M54.7603 161.537C54.7603 160.61 54.0081 159.857 53.0803 159.857H47.4799C46.5521 159.857 45.7999 160.61 45.7999 161.537C45.7999 162.465 46.5521 163.217 47.4799 163.217H53.0803C54.0081 163.217 54.7603 162.465 54.7603 161.537Z" fill="#40D98D"/>
<path d="M69.3208 145.857C69.3208 144.929 68.5686 144.177 67.6408 144.177H62.0405C61.1126 144.177 60.3605 144.929 60.3605 145.857C60.3605 146.785 61.1126 147.537 62.0405 147.537H67.6408C68.5686 147.537 69.3208 146.785 69.3208 145.857Z" fill="#282A52"/>
<path d="M69.3208 161.537C69.3208 160.61 68.5686 159.857 67.6408 159.857H62.0405C61.1126 159.857 60.3605 160.61 60.3605 161.537C60.3605 162.465 61.1126 163.217 62.0405 163.217H67.6408C68.5686 163.217 69.3208 162.465 69.3208 161.537Z" fill="#282A52"/>
<path d="M45.8003 154.817C45.8003 153.889 46.5525 153.137 47.4803 153.137H57.0007V156.497H47.4803C46.5525 156.497 45.8003 155.745 45.8003 154.817Z" fill="#282A52"/>
<path d="M43.0035 136.694C42.9967 136.3 43.3172 135.976 43.7106 135.999C45.51 136.106 46.8795 136.693 47.7575 137.836C47.833 137.934 47.8138 138.074 47.719 138.154L44.3606 140.975C44.2487 141.069 44.0791 141.042 44.0056 140.915C43.2491 139.615 43.0353 138.52 43.0035 136.694Z" fill="#FFA099"/>
<path d="M55.0001 136.702C55.007 136.307 54.6866 135.983 54.2931 136.007C52.4936 136.113 51.1242 136.701 50.2462 137.843C50.1706 137.942 50.1898 138.081 50.2847 138.161L53.6431 140.982C53.755 141.076 53.9246 141.049 53.9981 140.923C54.7546 139.623 54.9683 138.527 55.0001 136.702Z" fill="#FF7E75"/>
<path d="M54.9946 142.365C54.9946 139.109 52.0657 136.47 48.9973 136.47C45.9289 136.47 43 139.109 43 142.365C43 149.877 54.9946 149.877 54.9946 142.365Z" fill="#FFDECC"/>
<path d="M49.0005 147.999C51.9982 147.998 54.995 146.12 54.995 142.365C54.995 139.11 52.0679 136.472 49.0005 136.47V147.999Z" fill="#FFCFB5"/>
<path d="M51.9708 143.477C51.9708 142.188 50.5649 141.144 49.0921 141.144C47.6193 141.144 46.2134 142.188 46.2134 143.477C46.2134 146.45 51.9708 146.45 51.9708 143.477Z" fill="#FFA099"/>
<path d="M51.6356 140.068C51.6356 139.67 51.3134 139.348 50.916 139.348C50.5185 139.348 50.1963 139.67 50.1963 140.068C50.1963 140.466 50.5185 140.789 50.916 140.789C51.3134 140.789 51.6356 140.466 51.6356 140.068Z" fill="#1E203E"/>
<path d="M47.7973 140.068C47.7973 139.67 47.475 139.348 47.0776 139.348C46.6801 139.348 46.3579 139.67 46.3579 140.068C46.3579 140.466 46.6801 140.789 47.0776 140.789C47.475 140.789 47.7973 140.466 47.7973 140.068Z" fill="#282A52"/>
<path fill-rule="evenodd" clip-rule="evenodd" d="M48.157 144.305C47.892 144.305 47.6772 144.09 47.6772 143.824V143.344C47.6772 143.079 47.892 142.864 48.157 142.864C48.422 142.864 48.6368 143.079 48.6368 143.344V143.824C48.6368 144.09 48.422 144.305 48.157 144.305Z" fill="#282A52"/>
<path d="M49.0005 145.706C50.4702 145.739 51.9722 144.995 51.9722 143.477C51.9722 142.188 50.5663 141.144 49.0935 141.144C49.0624 141.144 49.0314 141.144 49.0005 141.145V145.706Z" fill="#FF7E75"/>
<path fill-rule="evenodd" clip-rule="evenodd" d="M49.8367 144.305C49.5717 144.305 49.3569 144.09 49.3569 143.824V143.344C49.3569 143.079 49.5717 142.864 49.8367 142.864C50.1017 142.864 50.3165 143.079 50.3165 143.344V143.824C50.3165 144.09 50.1017 144.305 49.8367 144.305Z" fill="#1E203E"/>
<path d="M50.2798 126C50.2798 124.895 51.1752 124 52.2797 124H57V128.48H50.2798V126Z" fill="#157DF5"/>
<path d="M57.0005 124H61.7208C62.8253 124 63.7207 124.895 63.7207 126V128.48H57.0005V124Z" fill="#0965CD"/>
<path fill-rule="evenodd" clip-rule="evenodd" d="M69.9099 137.716C70.1516 138.315 69.8903 139.01 69.3263 139.267L62.5813 142.339C61.3593 142.895 60 141.943 60 140.53V138.181C60 137.529 60.4974 137 61.1111 137C61.7247 137 62.2222 137.529 62.2222 138.181V139.933L68.451 137.096C69.015 136.839 69.6682 137.117 69.9099 137.716Z" fill="#40D98D"/>
<defs>
<filter id="filter0_d_52429_11600" x="11" y="9" width="96" height="96" filterUnits="userSpaceOnUse" color-interpolation-filters="sRGB">
<feFlood flood-opacity="0" result="BackgroundImageFix"/>
<feColorMatrix in="SourceAlpha" type="matrix" values="0 0 0 0 0 0 0 0 0 0 0 0 0 0 0 0 0 0 127 0" result="hardAlpha"/>
<feOffset dx="2" dy="1"/>
<feGaussianBlur stdDeviation="4"/>
<feColorMatrix type="matrix" values="0 0 0 0 0.0392157 0 0 0 0 0.0392157 0 0 0 0 0.0627451 0 0 0 0.08 0"/>
<feBlend mode="normal" in2="BackgroundImageFix" result="effect1_dropShadow_52429_11600"/>
<feBlend mode="normal" in="SourceGraphic" in2="effect1_dropShadow_52429_11600" result="shape"/>
</filter>
</defs>
</svg>
