<svg width="112" height="208" viewBox="0 0 112 208" fill="none" xmlns="http://www.w3.org/2000/svg">
<rect x="0.5" y="0.5" width="111" height="207" rx="4.5" stroke="#9747FF" stroke-dasharray="10 5"/>
<g filter="url(#filter0_d_59001_11161)">
<rect x="16" y="16" width="80" height="80" rx="8" fill="white"/>
</g>
<path d="M52.5426 47.6836H44.7234H36.9043C31.5152 47.6836 27 52.0684 27 57.4575V61.3671L30.9182 69.1435L30.9096 81.0453C30.9096 82.1258 31.7839 83.0001 32.8644 83.0001H40.8138L44.7234 78.3796L62.3165 57.4575C62.3165 52.0684 57.9316 47.6836 52.5426 47.6836Z" fill="#157DF5"/>
<path d="M34.8191 65.2765V61.3669C34.8191 60.2873 33.9439 59.4121 32.8644 59.4121H28.9548C27.8752 59.4121 27 60.2873 27 61.3669V65.2765C27 70.6744 31.5063 75.0504 36.9043 75.0504H50.5878V67.2313H36.9043C35.8247 67.2313 34.8191 66.356 34.8191 65.2765Z" fill="#FFCFB5"/>
<path d="M52.5425 47.6836H44.7234V78.3796L62.3165 57.4575C62.3165 52.0684 57.9316 47.6836 52.5425 47.6836Z" fill="#0965CD"/>
<path d="M65.8579 56.3138C65.4895 55.804 64.8995 55.5024 64.2715 55.5024H48.6332C47.7914 55.5024 47.0449 56.0408 46.7796 56.8387L38.9604 80.4265C38.76 81.0221 38.8611 81.6787 39.2277 82.1885C39.5961 82.6982 40.1861 82.9998 40.8141 82.9998H56.4524C57.2942 82.9998 58.0407 82.4614 58.306 81.6635L66.1252 58.0757C66.3256 57.4782 66.2243 56.8235 65.8579 56.3138Z" fill="#282A52"/>
<path d="M57.2036 55.5024L48.0884 82.9998H56.4517C57.2936 82.9998 58.0401 82.4614 58.3054 81.6635L66.1245 58.0757C66.325 57.4782 66.2239 56.8235 65.8573 56.3137C65.4889 55.804 64.8989 55.5024 64.2709 55.5024H57.2036Z" fill="#1E203E"/>
<path d="M59.2668 74.2874H57.312C56.2324 74.2874 55.3572 73.4122 55.3572 72.3326V68.423C55.3572 67.3435 56.2324 66.4683 57.312 66.4683H59.2668C61.426 66.4683 63.1763 68.2186 63.1763 70.3778C63.1763 72.5371 61.426 74.2874 59.2668 74.2874Z" fill="#FFCFB5"/>
<path d="M44.7288 52.6132C42.6561 52.6132 40.9758 50.867 40.9758 48.7129V43.7041H48.4819V48.7129C48.4819 50.867 46.8016 52.6132 44.7288 52.6132Z" fill="#FFCFB5"/>
<path d="M44.7295 43.7041V52.6132C46.8022 52.6132 48.4825 50.867 48.4825 48.7129V43.7041H44.7295Z" fill="#FFCFB5"/>
<path d="M36.8057 33.5866V38.6081C36.8057 42.9932 40.3606 46.5481 44.7461 46.5481C49.1313 46.5481 52.6865 42.9932 52.6865 38.6081V36.407L44.7461 31.7007L36.8057 33.5866Z" fill="#FFDECC"/>
<path d="M44.7458 46.5481C49.1311 46.5481 52.6862 42.9932 52.6862 38.6081V36.407L44.7458 31.7007V46.5481Z" fill="#FFCFB5"/>
<path d="M52.6865 33.0022C52.6865 29.6872 49.999 27 46.684 27H42.8082C39.4931 27 36.8057 29.6873 36.8057 33.0022V33.5921L52.6865 36.4123V33.0022Z" fill="#282A52"/>
<path d="M46.6837 27H44.7458V35.0023L52.6862 36.4125V33.0022C52.6862 29.6872 49.9988 27 46.6837 27Z" fill="#1E203E"/>
<path d="M59.0093 28.3937C58.9955 27.6048 59.6364 26.9569 60.4231 27.0033C64.0216 27.2159 66.7602 28.3912 68.5159 30.6766C68.667 30.8731 68.6286 31.1522 68.4389 31.3116L61.723 36.9537C61.4993 37.1417 61.1601 37.0871 61.0131 36.8344C59.5004 34.2348 59.0727 32.0436 59.0093 28.3937Z" fill="#FFA099"/>
<path d="M83 28.4094C83.0136 27.6204 82.3729 26.9725 81.586 27.019C77.9876 27.2315 75.249 28.4068 73.4933 30.6922C73.3423 30.8888 73.3806 31.1678 73.5703 31.3272L80.2862 36.9694C80.5099 37.1573 80.8491 37.1027 80.9962 36.85C82.509 34.2504 82.9364 32.0592 83 28.4094Z" fill="#FF7E75"/>
<path d="M82.9882 39.7337C82.9882 33.2237 77.1311 27.9463 70.9952 27.9463C64.8592 27.9463 59.0022 33.2237 59.0022 39.7337C59.0022 54.7568 82.9882 54.7568 82.9882 39.7337Z" fill="#FFDECC"/>
<path d="M71.0012 51.001C76.9959 50.9988 82.9887 47.243 82.9887 39.7337C82.9887 33.2256 77.1352 27.9494 71.0012 27.9463V51.001Z" fill="#FFCFB5"/>
<path d="M76.9417 41.9549C76.9417 39.378 74.1304 37.2891 71.1851 37.2891C68.2398 37.2891 65.4285 39.378 65.4285 41.9549C65.4285 47.9016 76.9417 47.9016 76.9417 41.9549Z" fill="#FFA099"/>
<path d="M76.2719 35.1445C76.2719 34.3487 75.6276 33.7036 74.8327 33.7036C74.0379 33.7036 73.3936 34.3487 73.3936 35.1445C73.3936 35.9403 74.0379 36.5855 74.8327 36.5855C75.6276 36.5855 76.2719 35.9403 76.2719 35.1445Z" fill="#1E203E"/>
<path d="M68.5959 35.1445C68.5959 34.3487 67.9515 33.7036 67.1567 33.7036C66.3619 33.7036 65.7175 34.3487 65.7175 35.1445C65.7175 35.9403 66.3619 36.5855 67.1567 36.5855C67.9515 36.5855 68.5959 35.9403 68.5959 35.1445Z" fill="#282A52"/>
<path fill-rule="evenodd" clip-rule="evenodd" d="M69.3154 43.6162C68.7855 43.6162 68.356 43.1861 68.356 42.6556V41.695C68.356 41.1645 68.7855 40.7344 69.3154 40.7344C69.8453 40.7344 70.2749 41.1645 70.2749 41.695V42.6556C70.2749 43.1861 69.8453 43.6162 69.3154 43.6162Z" fill="#282A52"/>
<path d="M71.0012 46.4129C73.9402 46.4783 76.9438 44.9923 76.9438 41.9549C76.9438 39.378 74.1324 37.2891 71.1871 37.2891C71.1251 37.2891 71.0631 37.29 71.0012 37.2918V46.4129Z" fill="#FF7E75"/>
<path fill-rule="evenodd" clip-rule="evenodd" d="M72.6735 43.6162C72.1437 43.6162 71.7141 43.1861 71.7141 42.6556V41.695C71.7141 41.1645 72.1437 40.7344 72.6735 40.7344C73.2034 40.7344 73.633 41.1645 73.633 41.695V42.6556C73.633 43.1861 73.2034 43.6162 72.6735 43.6162Z" fill="#1E203E"/>
<path d="M79.0148 61H70.9557H62.9852C60.7877 61 59 62.7877 59 64.9852V75.7011C59 77.8986 60.7877 79.6863 62.9852 79.6863H64.3137V81.6715C64.3137 82.2086 64.6366 82.6938 65.1335 82.8987C65.6236 83.1032 66.1983 82.9936 66.5813 82.6107L70.9557 80.2363L71.5058 79.6863H79.0148C81.2123 79.6863 83 77.8986 83 75.7011V64.9852C83 62.7877 81.2123 61 79.0148 61Z" fill="#E2EFFE"/>
<path d="M56 75.7012V64.9854C56 61.1309 59.131 58 62.9854 58V61C60.7878 61 59 62.7878 59 64.9854V75.7012L59.0049 75.9062C59.1086 77.9409 60.7456 79.5771 62.7803 79.6807L62.9854 79.6865H64.3135V81.6719C64.3136 82.2088 64.637 82.6936 65.1338 82.8984C65.6238 83.1029 66.1981 82.9932 66.5811 82.6104L70.9561 80.2363L71.5059 79.6865H79.0146L79.2197 79.6807C81.2544 79.5771 82.8914 77.9409 82.9951 75.9062L83 75.7012V64.9854C83 62.7878 81.2122 61 79.0146 61V58C82.869 58 86 61.1309 86 64.9854V75.7012C85.9999 79.5555 82.869 82.6865 79.0146 82.6865H72.7305L68.2725 85.1055C67.0539 86.0394 65.421 86.2631 63.9902 85.6709C63.988 85.67 63.9856 85.6699 63.9834 85.6689C63.9818 85.6683 63.9801 85.6677 63.9785 85.667C62.6216 85.1028 61.67 83.9012 61.3965 82.502C58.3064 81.7815 56 79.0089 56 75.7012ZM79.0146 58V61H70.9561V58H79.0146ZM70.9561 58V61H62.9854V58H70.9561Z" fill="white"/>
<path d="M79.0151 79.6863C81.2126 79.6863 83.0003 77.8986 83.0003 75.7011V64.9852C83.0003 62.7877 81.2126 61 79.0151 61H70.9561V80.2363L71.5061 79.6863H79.0151Z" fill="#B6D7FC"/>
<path fill-rule="evenodd" clip-rule="evenodd" d="M71.125 63C72.0607 63 72.9872 63.1847 73.8516 63.5427C74.716 63.9008 75.5019 64.4249 76.1635 65.0865C76.8251 65.7481 77.3492 66.534 77.7073 67.3984C78.0653 68.2628 78.25 69.1893 78.25 70.125C78.25 71.0607 78.0653 71.9872 77.7073 72.8516C77.3492 73.716 76.8251 74.5019 76.1635 75.1635C75.5019 75.8251 74.716 76.3492 73.8516 76.7073C72.9872 77.0653 72.0607 77.25 71.125 77.25C70.1893 77.25 69.2628 77.0653 68.3984 76.7073C67.534 76.3492 66.7481 75.8251 66.0865 75.1635C65.4249 74.5019 64.9008 73.716 64.5427 72.8516C64.1847 71.9872 64 71.0607 64 70.125C64 69.1893 64.1847 68.2628 64.5427 67.3984C64.9008 66.534 65.4249 65.7481 66.0865 65.0865C66.7481 64.4249 67.534 63.9008 68.3984 63.5427C69.2628 63.1847 70.1893 63 71.125 63ZM69.2825 73.9816C69.3507 74.0141 69.4195 74.0454 69.4894 74.0744C70.008 74.2891 70.5637 74.4 71.125 74.4C71.6863 74.4 72.242 74.2891 72.7606 74.0744C73.2793 73.8595 73.7506 73.5445 74.1476 73.1476C74.5445 72.7506 74.8595 72.2793 75.0744 71.7606C75.2891 71.242 75.4 70.6863 75.4 70.125C75.4 69.5637 75.2891 69.008 75.0744 68.4894C75.0454 68.4195 75.0141 68.3507 74.9816 68.2825L69.2825 73.9816ZM71.125 65.85C70.5637 65.85 70.008 65.9609 69.4894 66.1756C68.9707 66.3905 68.4994 66.7055 68.1024 67.1024C67.7055 67.4994 67.3905 67.9707 67.1756 68.4894C66.9609 69.008 66.85 69.5637 66.85 70.125C66.85 70.6863 66.9609 71.242 67.1756 71.7606C67.2044 71.8301 67.2351 71.8988 67.2675 71.9666L72.9666 66.2675C72.8988 66.2351 72.8301 66.2044 72.7606 66.1756C72.242 65.9609 71.6863 65.85 71.125 65.85Z" fill="#F3263D"/>
<path d="M71.125 65.8501C70.5637 65.8501 70.0079 65.9615 69.4893 66.1763C68.9707 66.3911 68.4995 66.7061 68.1025 67.103C67.7056 67.5 67.3906 67.9711 67.1758 68.4897C66.961 69.0083 66.8496 69.5642 66.8496 70.1255C66.8496 70.6868 66.961 71.2426 67.1758 71.7612C67.2046 71.8307 67.2352 71.8996 67.2676 71.9673L71.125 68.1099V72.1392L69.2822 73.9819C69.3503 74.0145 69.4194 74.0458 69.4893 74.0747C69.9431 74.2627 70.4255 74.3709 70.915 74.395L71.125 74.4009V77.2505L70.7744 77.2417C69.9585 77.2014 69.1547 77.0208 68.3984 76.7075C67.5341 76.3495 66.7485 75.8251 66.0869 75.1636C65.4253 74.502 64.901 73.7164 64.543 72.8521C64.1849 71.9876 64 71.0612 64 70.1255C64 69.1898 64.1849 68.2634 64.543 67.3989C64.901 66.5345 65.4253 65.749 66.0869 65.0874C66.7485 64.4258 67.5341 63.9015 68.3984 63.5435C69.2629 63.1854 70.1893 63.0005 71.125 63.0005V65.8501Z" fill="#F54B5E"/>
<path d="M52.5426 143.684H44.7234H36.9043C31.5152 143.684 27 148.068 27 153.458V157.367L30.9182 165.144L30.9096 177.045C30.9096 178.126 31.7839 179 32.8644 179H40.8138L44.7234 174.38L62.3165 153.458C62.3165 148.068 57.9316 143.684 52.5426 143.684Z" fill="#157DF5"/>
<path d="M34.8191 161.276V157.367C34.8191 156.287 33.9439 155.412 32.8644 155.412H28.9548C27.8752 155.412 27 156.287 27 157.367V161.276C27 166.674 31.5063 171.05 36.9043 171.05H50.5878V163.231H36.9043C35.8247 163.231 34.8191 162.356 34.8191 161.276Z" fill="#FFCFB5"/>
<path d="M52.5425 143.684H44.7234V174.38L62.3165 153.458C62.3165 148.068 57.9316 143.684 52.5425 143.684Z" fill="#0965CD"/>
<path d="M65.8579 152.314C65.4895 151.804 64.8995 151.502 64.2715 151.502H48.6332C47.7914 151.502 47.0449 152.041 46.7796 152.839L38.9604 176.427C38.76 177.022 38.8611 177.679 39.2277 178.189C39.5961 178.698 40.1861 179 40.8141 179H56.4524C57.2942 179 58.0407 178.461 58.306 177.663L66.1252 154.076C66.3256 153.478 66.2243 152.823 65.8579 152.314Z" fill="#282A52"/>
<path d="M57.2036 151.502L48.0884 179H56.4517C57.2936 179 58.0401 178.461 58.3054 177.663L66.1245 154.076C66.325 153.478 66.2239 152.823 65.8573 152.314C65.4889 151.804 64.8989 151.502 64.2709 151.502H57.2036Z" fill="#1E203E"/>
<path d="M59.2668 170.287H57.312C56.2324 170.287 55.3572 169.412 55.3572 168.333V164.423C55.3572 163.343 56.2324 162.468 57.312 162.468H59.2668C61.426 162.468 63.1763 164.219 63.1763 166.378C63.1763 168.537 61.426 170.287 59.2668 170.287Z" fill="#FFCFB5"/>
<path d="M44.7288 148.613C42.6561 148.613 40.9758 146.867 40.9758 144.713V139.704H48.4819V144.713C48.4819 146.867 46.8016 148.613 44.7288 148.613Z" fill="#FFCFB5"/>
<path d="M44.7295 139.704V148.613C46.8022 148.613 48.4825 146.867 48.4825 144.713V139.704H44.7295Z" fill="#FFCFB5"/>
<path d="M36.8057 129.587V134.608C36.8057 138.993 40.3606 142.548 44.7461 142.548C49.1313 142.548 52.6865 138.993 52.6865 134.608V132.407L44.7461 127.701L36.8057 129.587Z" fill="#FFDECC"/>
<path d="M44.7458 142.548C49.1311 142.548 52.6862 138.993 52.6862 134.608V132.407L44.7458 127.701V142.548Z" fill="#FFCFB5"/>
<path d="M52.6865 129.002C52.6865 125.687 49.999 123 46.684 123H42.8082C39.4931 123 36.8057 125.687 36.8057 129.002V129.592L52.6865 132.412V129.002Z" fill="#282A52"/>
<path d="M46.6837 123H44.7458V131.002L52.6862 132.412V129.002C52.6862 125.687 49.9988 123 46.6837 123Z" fill="#1E203E"/>
<path d="M59.0093 124.394C58.9955 123.605 59.6364 122.957 60.4231 123.003C64.0216 123.216 66.7602 124.391 68.5159 126.677C68.667 126.873 68.6286 127.152 68.4389 127.312L61.723 132.954C61.4993 133.142 61.1601 133.087 61.0131 132.834C59.5004 130.235 59.0727 128.044 59.0093 124.394Z" fill="#FFA099"/>
<path d="M83 124.409C83.0136 123.62 82.3729 122.972 81.586 123.019C77.9876 123.232 75.249 124.407 73.4933 126.692C73.3423 126.889 73.3806 127.168 73.5703 127.327L80.2862 132.969C80.5099 133.157 80.8491 133.103 80.9962 132.85C82.509 130.25 82.9364 128.059 83 124.409Z" fill="#FF7E75"/>
<path d="M82.9882 135.734C82.9882 129.224 77.1311 123.946 70.9952 123.946C64.8592 123.946 59.0022 129.224 59.0022 135.734C59.0022 150.757 82.9882 150.757 82.9882 135.734Z" fill="#FFDECC"/>
<path d="M71.0012 147.001C76.9959 146.999 82.9887 143.243 82.9887 135.734C82.9887 129.226 77.1352 123.949 71.0012 123.946V147.001Z" fill="#FFCFB5"/>
<path d="M76.9417 137.955C76.9417 135.378 74.1304 133.289 71.1851 133.289C68.2398 133.289 65.4285 135.378 65.4285 137.955C65.4285 143.902 76.9417 143.902 76.9417 137.955Z" fill="#FFA099"/>
<path d="M76.2719 131.145C76.2719 130.349 75.6276 129.704 74.8327 129.704C74.0379 129.704 73.3936 130.349 73.3936 131.145C73.3936 131.94 74.0379 132.585 74.8327 132.585C75.6276 132.585 76.2719 131.94 76.2719 131.145Z" fill="#1E203E"/>
<path d="M68.5959 131.145C68.5959 130.349 67.9515 129.704 67.1567 129.704C66.3619 129.704 65.7175 130.349 65.7175 131.145C65.7175 131.94 66.3619 132.585 67.1567 132.585C67.9515 132.585 68.5959 131.94 68.5959 131.145Z" fill="#282A52"/>
<path fill-rule="evenodd" clip-rule="evenodd" d="M69.3154 139.616C68.7855 139.616 68.356 139.186 68.356 138.656V137.695C68.356 137.164 68.7855 136.734 69.3154 136.734C69.8453 136.734 70.2749 137.164 70.2749 137.695V138.656C70.2749 139.186 69.8453 139.616 69.3154 139.616Z" fill="#282A52"/>
<path d="M71.0012 142.413C73.9402 142.478 76.9438 140.992 76.9438 137.955C76.9438 135.378 74.1324 133.289 71.1871 133.289C71.1251 133.289 71.0631 133.29 71.0012 133.292V142.413Z" fill="#FF7E75"/>
<path fill-rule="evenodd" clip-rule="evenodd" d="M72.6735 139.616C72.1437 139.616 71.7141 139.186 71.7141 138.656V137.695C71.7141 137.164 72.1437 136.734 72.6735 136.734C73.2034 136.734 73.633 137.164 73.633 137.695V138.656C73.633 139.186 73.2034 139.616 72.6735 139.616Z" fill="#1E203E"/>
<path d="M79.0148 157H70.9557H62.9852C60.7877 157 59 158.788 59 160.985V171.701C59 173.899 60.7877 175.686 62.9852 175.686H64.3137V177.672C64.3137 178.209 64.6366 178.694 65.1335 178.899C65.6236 179.103 66.1983 178.994 66.5813 178.611L70.9557 176.236L71.5058 175.686H79.0148C81.2123 175.686 83 173.899 83 171.701V160.985C83 158.788 81.2123 157 79.0148 157Z" fill="#E2EFFE"/>
<path d="M56 171.701V160.985C56 157.131 59.131 154 62.9854 154V157C60.7878 157 59 158.788 59 160.985V171.701L59.0049 171.906C59.1086 173.941 60.7456 175.577 62.7803 175.681L62.9854 175.687H64.3135V177.672C64.3136 178.209 64.637 178.694 65.1338 178.898C65.6238 179.103 66.1981 178.993 66.5811 178.61L70.9561 176.236L71.5059 175.687H79.0146L79.2197 175.681C81.2544 175.577 82.8914 173.941 82.9951 171.906L83 171.701V160.985C83 158.788 81.2122 157 79.0146 157V154C82.869 154 86 157.131 86 160.985V171.701C85.9999 175.556 82.869 178.687 79.0146 178.687H72.7305L68.2725 181.105C67.0539 182.039 65.421 182.263 63.9902 181.671C63.988 181.67 63.9856 181.67 63.9834 181.669C63.9818 181.668 63.9801 181.668 63.9785 181.667C62.6216 181.103 61.67 179.901 61.3965 178.502C58.3064 177.781 56 175.009 56 171.701ZM79.0146 154V157H70.9561V154H79.0146ZM70.9561 154V157H62.9854V154H70.9561Z" fill="white"/>
<path d="M79.0151 175.686C81.2126 175.686 83.0003 173.899 83.0003 171.701V160.985C83.0003 158.788 81.2126 157 79.0151 157H70.9561V176.236L71.5061 175.686H79.0151Z" fill="#B6D7FC"/>
<path fill-rule="evenodd" clip-rule="evenodd" d="M71.125 159C72.0607 159 72.9872 159.185 73.8516 159.543C74.716 159.901 75.5019 160.425 76.1635 161.086C76.8251 161.748 77.3492 162.534 77.7073 163.398C78.0653 164.263 78.25 165.189 78.25 166.125C78.25 167.061 78.0653 167.987 77.7073 168.852C77.3492 169.716 76.8251 170.502 76.1635 171.164C75.5019 171.825 74.716 172.349 73.8516 172.707C72.9872 173.065 72.0607 173.25 71.125 173.25C70.1893 173.25 69.2628 173.065 68.3984 172.707C67.534 172.349 66.7481 171.825 66.0865 171.164C65.4249 170.502 64.9008 169.716 64.5427 168.852C64.1847 167.987 64 167.061 64 166.125C64 165.189 64.1847 164.263 64.5427 163.398C64.9008 162.534 65.4249 161.748 66.0865 161.086C66.7481 160.425 67.534 159.901 68.3984 159.543C69.2628 159.185 70.1893 159 71.125 159ZM69.2825 169.982C69.3507 170.014 69.4195 170.045 69.4894 170.074C70.008 170.289 70.5637 170.4 71.125 170.4C71.6863 170.4 72.242 170.289 72.7606 170.074C73.2793 169.86 73.7506 169.545 74.1476 169.148C74.5445 168.751 74.8595 168.279 75.0744 167.761C75.2891 167.242 75.4 166.686 75.4 166.125C75.4 165.564 75.2891 165.008 75.0744 164.489C75.0454 164.419 75.0141 164.351 74.9816 164.283L69.2825 169.982ZM71.125 161.85C70.5637 161.85 70.008 161.961 69.4894 162.176C68.9707 162.39 68.4994 162.705 68.1024 163.102C67.7055 163.499 67.3905 163.971 67.1756 164.489C66.9609 165.008 66.85 165.564 66.85 166.125C66.85 166.686 66.9609 167.242 67.1756 167.761C67.2044 167.83 67.2351 167.899 67.2675 167.967L72.9666 162.267C72.8988 162.235 72.8301 162.204 72.7606 162.176C72.242 161.961 71.6863 161.85 71.125 161.85Z" fill="#F3263D"/>
<path d="M71.125 161.85C70.5637 161.85 70.0079 161.961 69.4893 162.176C68.9707 162.391 68.4995 162.706 68.1025 163.103C67.7056 163.5 67.3906 163.971 67.1758 164.49C66.961 165.008 66.8496 165.564 66.8496 166.125C66.8496 166.687 66.961 167.243 67.1758 167.761C67.2046 167.831 67.2352 167.9 67.2676 167.967L71.125 164.11V168.139L69.2822 169.982C69.3503 170.014 69.4194 170.046 69.4893 170.075C69.9431 170.263 70.4255 170.371 70.915 170.395L71.125 170.401V173.25L70.7744 173.242C69.9585 173.201 69.1547 173.021 68.3984 172.708C67.5341 172.349 66.7485 171.825 66.0869 171.164C65.4253 170.502 64.901 169.716 64.543 168.852C64.1849 167.988 64 167.061 64 166.125C64 165.19 64.1849 164.263 64.543 163.399C64.901 162.535 65.4253 161.749 66.0869 161.087C66.7485 160.426 67.5341 159.902 68.3984 159.543C69.2629 159.185 70.1893 159 71.125 159V161.85Z" fill="#F54B5E"/>
<defs>
<filter id="filter0_d_59001_11161" x="10" y="9" width="96" height="96" filterUnits="userSpaceOnUse" color-interpolation-filters="sRGB">
<feFlood flood-opacity="0" result="BackgroundImageFix"/>
<feColorMatrix in="SourceAlpha" type="matrix" values="0 0 0 0 0 0 0 0 0 0 0 0 0 0 0 0 0 0 127 0" result="hardAlpha"/>
<feOffset dx="2" dy="1"/>
<feGaussianBlur stdDeviation="4"/>
<feColorMatrix type="matrix" values="0 0 0 0 0.0392157 0 0 0 0 0.0392157 0 0 0 0 0.0627451 0 0 0 0.08 0"/>
<feBlend mode="normal" in2="BackgroundImageFix" result="effect1_dropShadow_59001_11161"/>
<feBlend mode="normal" in="SourceGraphic" in2="effect1_dropShadow_59001_11161" result="shape"/>
</filter>
</defs>
</svg>
