<svg width="112" height="208" viewBox="0 0 112 208" fill="none" xmlns="http://www.w3.org/2000/svg">
<rect x="0.5" y="0.5" width="111" height="207" rx="4.5" stroke="#9747FF" stroke-dasharray="10 5"/>
<g filter="url(#filter0_d_59001_11221)">
<rect x="16" y="16" width="80" height="80" rx="8" fill="white"/>
</g>
<path d="M26 31.2421C26 29.5853 27.3324 28.2422 28.976 28.2422H46.9999V82.0021H28.976C27.3324 82.0021 26 80.659 26 79.0022V31.2421Z" fill="#157DF5"/>
<path d="M69 31.2421C69 29.5853 67.6676 28.2422 66.024 28.2422H47.0001V82.0021H66.024C67.6676 82.0021 69 80.659 69 79.0022V31.2421Z" fill="#0965CD"/>
<path d="M31.4371 31.4961H47.0005V78.776H40.3259V70.936C40.3259 69.0804 39.8255 67.576 37.9846 67.576H29.2148V33.7361C29.2148 32.499 30.2098 31.4961 31.4371 31.4961Z" fill="white"/>
<path d="M29.2148 67.5703H38.1037C39.331 67.5703 40.3259 68.5732 40.3259 69.8103V78.7703L29.2148 67.5703Z" fill="#B6D7FC"/>
<path d="M65.7864 33.7361C65.7864 32.499 64.7915 31.4961 63.5642 31.4961H47.0007L47.0002 78.776H63.5637C64.791 78.776 65.7859 77.7731 65.7859 76.536L65.7864 33.7361Z" fill="#F0F7FE"/>
<path fill-rule="evenodd" clip-rule="evenodd" d="M56.5 37.5C57.4193 37.5 58.3295 37.6814 59.1788 38.0332C60.028 38.385 60.8002 38.8999 61.4501 39.5499C62.1001 40.1998 62.615 40.972 62.9668 41.8212C63.3186 42.6705 63.5 43.5807 63.5 44.5C63.5 45.4193 63.3186 46.3295 62.9668 47.1788C62.615 48.028 62.1001 48.8002 61.4501 49.4501C60.8002 50.1001 60.028 50.615 59.1788 50.9668C58.3295 51.3186 57.4193 51.5 56.5 51.5C55.5807 51.5 54.6705 51.3186 53.8212 50.9668C52.972 50.615 52.1998 50.1001 51.5499 49.4501C50.8999 48.8002 50.385 48.028 50.0332 47.1788C49.6814 46.3295 49.5 45.4193 49.5 44.5C49.5 43.5807 49.6814 42.6705 50.0332 41.8212C50.385 40.972 50.8999 40.1998 51.5499 39.5499C52.1998 38.8999 52.972 38.385 53.8212 38.0332C54.6705 37.6814 55.5807 37.5 56.5 37.5ZM54.6898 48.2889C54.7568 48.3209 54.8244 48.3516 54.8931 48.3801C55.4026 48.5911 55.9485 48.7 56.5 48.7C57.0515 48.7 57.5974 48.5911 58.1069 48.3801C58.6165 48.169 59.0795 47.8595 59.4695 47.4695C59.8595 47.0795 60.169 46.6165 60.3801 46.1069C60.5911 45.5974 60.7 45.0515 60.7 44.5C60.7 43.9485 60.5911 43.4026 60.3801 42.8931C60.3516 42.8244 60.3209 42.7568 60.2889 42.6898L54.6898 48.2889ZM56.5 40.3C55.9485 40.3 55.4026 40.4089 54.8931 40.6199C54.3835 40.831 53.9205 41.1405 53.5305 41.5305C53.1405 41.9205 52.831 42.3835 52.6199 42.8931C52.4089 43.4026 52.3 43.9485 52.3 44.5C52.3 45.0515 52.4089 45.5974 52.6199 46.1069C52.6482 46.1752 52.6784 46.2427 52.7102 46.3092L58.3092 40.7102C58.2427 40.6784 58.1752 40.6482 58.1069 40.6199C57.5974 40.4089 57.0515 40.3 56.5 40.3Z" fill="#F54B5E"/>
<path d="M58.2222 56.8167C58.2222 55.8889 57.47 55.1367 56.5422 55.1367L47 55.1367V58.4967H56.5422C57.47 58.4967 58.2222 57.7446 58.2222 56.8167Z" fill="#282A52"/>
<path d="M43.7778 63.5394C43.7778 62.6115 43.0257 61.8594 42.0978 61.8594H36.569C35.6412 61.8594 34.889 62.6115 34.889 63.5394C34.889 64.4672 35.6412 65.2194 36.569 65.2194H42.0978C43.0257 65.2194 43.7778 64.4672 43.7778 63.5394Z" fill="#40D98D"/>
<path d="M58.2222 71.5394C58.2222 70.6115 57.47 69.8594 56.5422 69.8594H51.0133C50.0855 69.8594 49.3333 70.6115 49.3333 71.5394C49.3333 72.4672 50.0855 73.2194 51.0133 73.2194H56.5422C57.47 73.2194 58.2222 72.4672 58.2222 71.5394Z" fill="#282A52"/>
<path d="M34.8892 56.8167C34.8892 55.8889 35.6413 55.1367 36.5692 55.1367H47.0002V58.4967H36.5692C35.6413 58.4967 34.8892 57.7446 34.8892 56.8167Z" fill="#323567"/>
<path d="M31.6136 39.6964C31.6068 39.3019 31.9273 38.9779 32.3206 39.0012C34.12 39.1075 35.4894 39.6951 36.3674 40.838C36.4429 40.9363 36.4237 41.0758 36.3289 41.1555L32.9706 43.9768C32.8588 44.0708 32.6892 44.0435 32.6156 43.9171C31.8592 42.6172 31.6454 41.5215 31.6136 39.6964Z" fill="#FFA099"/>
<path d="M43.61 39.7042C43.6169 39.3097 43.2965 38.9858 42.903 39.009C41.1036 39.1153 39.7342 39.703 38.8563 40.8458C38.7808 40.9441 38.7999 41.0836 38.8948 41.1633L42.253 43.9846C42.3649 44.0786 42.5345 44.0513 42.608 43.925C43.3645 42.625 43.5782 41.5293 43.61 39.7042Z" fill="#FF7E75"/>
<path d="M43.6041 45.3669C43.6041 42.1116 40.6754 39.4727 37.6071 39.4727C34.5389 39.4727 31.6101 42.1116 31.6101 45.3669C31.6101 52.8791 43.6041 52.8791 43.6041 45.3669Z" fill="#FFDECC"/>
<path d="M37.6104 51.001C40.6079 50.9999 43.6046 49.1218 43.6046 45.3669C43.6046 42.1126 40.6776 39.4742 37.6104 39.4727V51.001Z" fill="#FFCFB5"/>
<path d="M40.5806 46.4777C40.5806 45.1891 39.1748 44.1445 37.7021 44.1445C36.2293 44.1445 34.8235 45.1891 34.8235 46.4777C34.8235 49.4513 40.5806 49.4513 40.5806 46.4777Z" fill="#FFA099"/>
<path d="M40.2457 43.0721C40.2457 42.6742 39.9235 42.3516 39.526 42.3516C39.1286 42.3516 38.8064 42.6742 38.8064 43.0721C38.8064 43.47 39.1286 43.7926 39.526 43.7926C39.9235 43.7926 40.2457 43.47 40.2457 43.0721Z" fill="#1E203E"/>
<path d="M36.4073 43.0721C36.4073 42.6742 36.0851 42.3516 35.6877 42.3516C35.2902 42.3516 34.968 42.6742 34.968 43.0721C34.968 43.47 35.2902 43.7926 35.6877 43.7926C36.0851 43.7926 36.4073 43.47 36.4073 43.0721Z" fill="#282A52"/>
<path fill-rule="evenodd" clip-rule="evenodd" d="M36.7671 47.3082C36.5021 47.3082 36.2874 47.0932 36.2874 46.8279V46.3475C36.2874 46.0823 36.5021 45.8672 36.7671 45.8672C37.0321 45.8672 37.2469 46.0823 37.2469 46.3475V46.8279C37.2469 47.0932 37.0321 47.3082 36.7671 47.3082Z" fill="#282A52"/>
<path d="M37.6104 48.7068C39.0799 48.7395 40.5819 47.9965 40.5819 46.4777C40.5819 45.1891 39.1761 44.1445 37.7033 44.1445C37.6723 44.1445 37.6413 44.145 37.6104 44.1459V48.7068Z" fill="#FF7E75"/>
<path fill-rule="evenodd" clip-rule="evenodd" d="M38.4463 47.3082C38.1813 47.3082 37.9666 47.0932 37.9666 46.8279V46.3475C37.9666 46.0823 38.1813 45.8672 38.4463 45.8672C38.7113 45.8672 38.9261 46.0823 38.9261 46.3475V46.8279C38.9261 47.0932 38.7113 47.3082 38.4463 47.3082Z" fill="#1E203E"/>
<path d="M40.333 28C40.333 26.8954 41.2213 26 42.317 26H46.9996V30.48H40.333V28Z" fill="#157DF5"/>
<path d="M47 26H51.6826C52.7784 26 53.6666 26.8954 53.6666 28V30.48H47V26Z" fill="#0965CD"/>
<g clip-path="url(#clip0_59001_11221)">
<path d="M83 71C83 77.6274 77.6274 83 71 83C64.3726 83 59 77.6274 59 71C59 64.3726 64.3726 59 71 59C77.6274 59 83 64.3726 83 71Z" fill="#40D98D"/>
<path fill-rule="evenodd" clip-rule="evenodd" d="M86 71C86 79.2843 79.2843 86 71 86C62.7157 86 56 79.2843 56 71C56 62.7157 62.7157 56 71 56C79.2843 56 86 62.7157 86 71ZM71 83C77.6274 83 83 77.6274 83 71C83 64.3726 77.6274 59 71 59C64.3726 59 59 64.3726 59 71C59 77.6274 64.3726 83 71 83Z" fill="white"/>
<path d="M71 83C77.6274 83 83 77.6274 83 71C83 64.3726 77.6274 59 71 59V83Z" fill="#25BB71"/>
<path d="M76.0233 67.4393C75.4533 66.8692 74.529 66.8692 73.9589 67.4393L69.9388 71.4594L68.0428 69.5632C67.4727 68.9929 66.5484 68.9931 65.9783 69.5632C65.4083 70.1333 65.4083 71.0576 65.9783 71.6276L68.9066 74.556C69.1804 74.8298 69.5517 74.9836 69.9389 74.9836C70.3261 74.9836 70.6974 74.8298 70.9711 74.556L76.0234 69.5037C76.5935 68.9336 76.5935 68.0093 76.0233 67.4393Z" fill="white"/>
<path d="M73.959 67.4432L70.9961 70.4061V74.535L76.0234 69.5076C76.5935 68.9375 76.5935 68.0132 76.0234 67.4432C75.4534 66.8731 74.5291 66.8731 73.959 67.4432Z" fill="#F0F7FE"/>
</g>
<path d="M26 127.242C26 125.585 27.3324 124.242 28.976 124.242H46.9999V178.002H28.976C27.3324 178.002 26 176.659 26 175.002V127.242Z" fill="#157DF5"/>
<path d="M69 127.242C69 125.585 67.6676 124.242 66.024 124.242H47.0001V178.002H66.024C67.6676 178.002 69 176.659 69 175.002V127.242Z" fill="#0965CD"/>
<path d="M31.4371 127.496H47.0005V174.776H40.3259V166.936C40.3259 165.08 39.8255 163.576 37.9846 163.576H29.2148V129.736C29.2148 128.499 30.2098 127.496 31.4371 127.496Z" fill="white"/>
<path d="M29.2148 163.57H38.1037C39.331 163.57 40.3259 164.573 40.3259 165.81V174.77L29.2148 163.57Z" fill="#B6D7FC"/>
<path d="M65.7864 129.736C65.7864 128.499 64.7915 127.496 63.5642 127.496H47.0007L47.0002 174.776H63.5637C64.791 174.776 65.7859 173.773 65.7859 172.536L65.7864 129.736Z" fill="#F0F7FE"/>
<path fill-rule="evenodd" clip-rule="evenodd" d="M56.5 133.5C57.4193 133.5 58.3295 133.681 59.1788 134.033C60.028 134.385 60.8002 134.9 61.4501 135.55C62.1001 136.2 62.615 136.972 62.9668 137.821C63.3186 138.671 63.5 139.581 63.5 140.5C63.5 141.419 63.3186 142.329 62.9668 143.179C62.615 144.028 62.1001 144.8 61.4501 145.45C60.8002 146.1 60.028 146.615 59.1788 146.967C58.3295 147.319 57.4193 147.5 56.5 147.5C55.5807 147.5 54.6705 147.319 53.8212 146.967C52.972 146.615 52.1998 146.1 51.5499 145.45C50.8999 144.8 50.385 144.028 50.0332 143.179C49.6814 142.329 49.5 141.419 49.5 140.5C49.5 139.581 49.6814 138.671 50.0332 137.821C50.385 136.972 50.8999 136.2 51.5499 135.55C52.1998 134.9 52.972 134.385 53.8212 134.033C54.6705 133.681 55.5807 133.5 56.5 133.5ZM54.6898 144.289C54.7568 144.321 54.8244 144.352 54.8931 144.38C55.4026 144.591 55.9485 144.7 56.5 144.7C57.0515 144.7 57.5974 144.591 58.1069 144.38C58.6165 144.169 59.0795 143.86 59.4695 143.47C59.8595 143.08 60.169 142.616 60.3801 142.107C60.5911 141.597 60.7 141.051 60.7 140.5C60.7 139.949 60.5911 139.403 60.3801 138.893C60.3516 138.824 60.3209 138.757 60.2889 138.69L54.6898 144.289ZM56.5 136.3C55.9485 136.3 55.4026 136.409 54.8931 136.62C54.3835 136.831 53.9205 137.14 53.5305 137.53C53.1405 137.92 52.831 138.384 52.6199 138.893C52.4089 139.403 52.3 139.949 52.3 140.5C52.3 141.051 52.4089 141.597 52.6199 142.107C52.6482 142.175 52.6784 142.243 52.7102 142.309L58.3092 136.71C58.2427 136.678 58.1752 136.648 58.1069 136.62C57.5974 136.409 57.0515 136.3 56.5 136.3Z" fill="#F54B5E"/>
<path d="M58.2222 152.817C58.2222 151.889 57.47 151.137 56.5422 151.137L47 151.137V154.497H56.5422C57.47 154.497 58.2222 153.745 58.2222 152.817Z" fill="#282A52"/>
<path d="M43.7778 159.539C43.7778 158.612 43.0257 157.859 42.0978 157.859H36.569C35.6412 157.859 34.889 158.612 34.889 159.539C34.889 160.467 35.6412 161.219 36.569 161.219H42.0978C43.0257 161.219 43.7778 160.467 43.7778 159.539Z" fill="#40D98D"/>
<path d="M58.2222 167.539C58.2222 166.612 57.47 165.859 56.5422 165.859H51.0133C50.0855 165.859 49.3333 166.612 49.3333 167.539C49.3333 168.467 50.0855 169.219 51.0133 169.219H56.5422C57.47 169.219 58.2222 168.467 58.2222 167.539Z" fill="#282A52"/>
<path d="M34.8892 152.817C34.8892 151.889 35.6413 151.137 36.5692 151.137H47.0002V154.497H36.5692C35.6413 154.497 34.8892 153.745 34.8892 152.817Z" fill="#323567"/>
<path d="M31.6136 135.696C31.6068 135.302 31.9273 134.978 32.3206 135.001C34.12 135.107 35.4894 135.695 36.3674 136.838C36.4429 136.936 36.4237 137.076 36.3289 137.155L32.9706 139.977C32.8588 140.071 32.6892 140.044 32.6156 139.917C31.8592 138.617 31.6454 137.522 31.6136 135.696Z" fill="#FFA099"/>
<path d="M43.61 135.704C43.6169 135.31 43.2965 134.986 42.903 135.009C41.1036 135.115 39.7342 135.703 38.8563 136.846C38.7808 136.944 38.7999 137.084 38.8948 137.163L42.253 139.985C42.3649 140.079 42.5345 140.051 42.608 139.925C43.3645 138.625 43.5782 137.529 43.61 135.704Z" fill="#FF7E75"/>
<path d="M43.6041 141.367C43.6041 138.112 40.6754 135.473 37.6071 135.473C34.5389 135.473 31.6101 138.112 31.6101 141.367C31.6101 148.879 43.6041 148.879 43.6041 141.367Z" fill="#FFDECC"/>
<path d="M37.6104 147.001C40.6079 147 43.6046 145.122 43.6046 141.367C43.6046 138.113 40.6776 135.474 37.6104 135.473V147.001Z" fill="#FFCFB5"/>
<path d="M40.5806 142.478C40.5806 141.189 39.1748 140.145 37.7021 140.145C36.2293 140.145 34.8235 141.189 34.8235 142.478C34.8235 145.451 40.5806 145.451 40.5806 142.478Z" fill="#FFA099"/>
<path d="M40.2457 139.072C40.2457 138.674 39.9235 138.352 39.526 138.352C39.1286 138.352 38.8064 138.674 38.8064 139.072C38.8064 139.47 39.1286 139.793 39.526 139.793C39.9235 139.793 40.2457 139.47 40.2457 139.072Z" fill="#1E203E"/>
<path d="M36.4073 139.072C36.4073 138.674 36.0851 138.352 35.6877 138.352C35.2902 138.352 34.968 138.674 34.968 139.072C34.968 139.47 35.2902 139.793 35.6877 139.793C36.0851 139.793 36.4073 139.47 36.4073 139.072Z" fill="#282A52"/>
<path fill-rule="evenodd" clip-rule="evenodd" d="M36.7671 143.308C36.5021 143.308 36.2874 143.093 36.2874 142.828V142.348C36.2874 142.082 36.5021 141.867 36.7671 141.867C37.0321 141.867 37.2469 142.082 37.2469 142.348V142.828C37.2469 143.093 37.0321 143.308 36.7671 143.308Z" fill="#282A52"/>
<path d="M37.6104 144.707C39.0799 144.74 40.5819 143.996 40.5819 142.478C40.5819 141.189 39.1761 140.145 37.7033 140.145C37.6723 140.145 37.6413 140.145 37.6104 140.146V144.707Z" fill="#FF7E75"/>
<path fill-rule="evenodd" clip-rule="evenodd" d="M38.4463 143.308C38.1813 143.308 37.9666 143.093 37.9666 142.828V142.348C37.9666 142.082 38.1813 141.867 38.4463 141.867C38.7113 141.867 38.9261 142.082 38.9261 142.348V142.828C38.9261 143.093 38.7113 143.308 38.4463 143.308Z" fill="#1E203E"/>
<path d="M40.333 124C40.333 122.895 41.2213 122 42.317 122H46.9996V126.48H40.333V124Z" fill="#157DF5"/>
<path d="M47 122H51.6826C52.7784 122 53.6666 122.895 53.6666 124V126.48H47V122Z" fill="#0965CD"/>
<g clip-path="url(#clip1_59001_11221)">
<path d="M83 167C83 173.627 77.6274 179 71 179C64.3726 179 59 173.627 59 167C59 160.373 64.3726 155 71 155C77.6274 155 83 160.373 83 167Z" fill="#40D98D"/>
<path fill-rule="evenodd" clip-rule="evenodd" d="M86 167C86 175.284 79.2843 182 71 182C62.7157 182 56 175.284 56 167C56 158.716 62.7157 152 71 152C79.2843 152 86 158.716 86 167ZM71 179C77.6274 179 83 173.627 83 167C83 160.373 77.6274 155 71 155C64.3726 155 59 160.373 59 167C59 173.627 64.3726 179 71 179Z" fill="white"/>
<path d="M71 179C77.6274 179 83 173.627 83 167C83 160.373 77.6274 155 71 155V179Z" fill="#25BB71"/>
<path d="M76.0233 163.439C75.4533 162.869 74.529 162.869 73.9589 163.439L69.9388 167.459L68.0428 165.563C67.4727 164.993 66.5484 164.993 65.9783 165.563C65.4083 166.133 65.4083 167.058 65.9783 167.628L68.9066 170.556C69.1804 170.83 69.5517 170.984 69.9389 170.984C70.3261 170.984 70.6974 170.83 70.9711 170.556L76.0234 165.504C76.5935 164.934 76.5935 164.009 76.0233 163.439Z" fill="white"/>
<path d="M73.959 163.443L70.9961 166.406V170.535L76.0234 165.508C76.5935 164.938 76.5935 164.013 76.0234 163.443C75.4534 162.873 74.5291 162.873 73.959 163.443Z" fill="#F0F7FE"/>
</g>
<defs>
<filter id="filter0_d_59001_11221" x="10" y="9" width="96" height="96" filterUnits="userSpaceOnUse" color-interpolation-filters="sRGB">
<feFlood flood-opacity="0" result="BackgroundImageFix"/>
<feColorMatrix in="SourceAlpha" type="matrix" values="0 0 0 0 0 0 0 0 0 0 0 0 0 0 0 0 0 0 127 0" result="hardAlpha"/>
<feOffset dx="2" dy="1"/>
<feGaussianBlur stdDeviation="4"/>
<feColorMatrix type="matrix" values="0 0 0 0 0.0392157 0 0 0 0 0.0392157 0 0 0 0 0.0627451 0 0 0 0.08 0"/>
<feBlend mode="normal" in2="BackgroundImageFix" result="effect1_dropShadow_59001_11221"/>
<feBlend mode="normal" in="SourceGraphic" in2="effect1_dropShadow_59001_11221" result="shape"/>
</filter>
<clipPath id="clip0_59001_11221">
<rect width="30" height="30" fill="white" transform="translate(56 56)"/>
</clipPath>
<clipPath id="clip1_59001_11221">
<rect width="30" height="30" fill="white" transform="translate(56 152)"/>
</clipPath>
</defs>
</svg>
