<svg width="112" height="208" viewBox="0 0 112 208" fill="none" xmlns="http://www.w3.org/2000/svg">
<rect x="0.5" y="0.5" width="111" height="207" rx="4.5" stroke="#9747FF" stroke-dasharray="10 5"/>
<g filter="url(#filter0_d_52429_11662)">
<rect x="16" y="16" width="80" height="80" rx="8" fill="white"/>
</g>
<rect x="31" y="37.9993" width="20" height="43.9971" fill="#E2EFFE"/>
<rect x="31" y="37.9993" width="9.99999" height="43.9971" fill="#F0F7FE"/>
<path d="M51 37.9993C51 32.4769 46.5228 28 41 28C35.4771 28 31 32.4769 31 37.9993H51Z" fill="#157DF5"/>
<path d="M41 28V37.9993H51C51 32.4769 46.5229 28 41 28Z" fill="#0965CD"/>
<path d="M69.1087 82.4215H37.1191V56.3035L53.1137 45.1521L69.1087 56.3035V82.4215Z" fill="#E2EFFE"/>
<path d="M68.9901 56.3035L52.9951 45.1521V82.4215H68.9901V56.3035Z" fill="#B6D7FC"/>
<path d="M35.5498 60.7387C34.8773 61.2701 33.8997 61.1663 33.3554 60.5058C32.8002 59.832 32.9074 58.8374 33.5937 58.2956L50.6768 44.8098C52.0369 43.7362 53.961 43.7294 55.3287 44.7936L72.3975 58.0746C73.0855 58.6099 73.2016 59.5998 72.656 60.2778C72.1179 60.9465 71.1379 61.0601 70.4593 60.5325L55.3294 48.7691C53.9613 47.7054 52.0372 47.7129 50.6775 48.7871L35.5498 60.7387Z" fill="#0965CD"/>
<path d="M45.5645 63.7593H60.4303V82.2838H45.5645V63.7593Z" fill="#F0F7FE"/>
<path d="M52.9951 63.7593H60.4281V82.2838H52.9951V63.7593Z" fill="#E2EFFE"/>
<path d="M45.641 62.4851C44.6042 62.4851 43.7637 63.3256 43.7637 64.3624V83.9885H62.229V64.3624C62.229 63.3256 61.3885 62.4851 60.3517 62.4851H45.641ZM50.9791 73.2688L46.9305 78.1677V68.3998L50.9791 73.2688ZM48.6821 65.5919H57.3234L52.9961 70.8035L48.6821 65.5919ZM52.9961 75.7276L57.3102 80.8813H48.7642L52.9961 75.7276ZM55.0611 73.2623L59.0622 68.4213V78.0734L55.0611 73.2623Z" fill="#157DF5"/>
<path d="M62.228 64.3624C62.228 63.3256 61.3875 62.4851 60.3507 62.4851H52.9951V65.5919H57.3224L52.9951 70.8035V75.7276L57.3092 80.8813H52.9951V83.9885H62.228V64.3624ZM59.0612 78.0734L55.0601 73.2623L59.0612 68.4213V78.0734Z" fill="#0965CD"/>
<path d="M52.996 44C52.1753 44.0037 51.3558 44.2738 50.6768 44.8098L33.5937 58.2956C32.9074 58.8373 32.8002 59.832 33.3554 60.5057C33.8997 61.1663 34.8773 61.27 35.5498 60.7387L50.6775 48.7871C51.3561 48.2509 52.1754 47.9805 52.996 47.9764V44Z" fill="#157DF5"/>
<path d="M50.2676 56.7264C50.2676 55.2202 51.4886 53.9993 52.9948 53.9993V59.4534H51.1767C50.6746 59.4534 50.2676 59.0465 50.2676 58.5444V56.7264Z" fill="#157DF5"/>
<path d="M52.9951 53.9993C54.5013 53.9993 55.7224 55.2202 55.7224 56.7264V58.5444C55.7224 59.0465 55.3154 59.4534 54.8133 59.4534H52.9951V53.9993Z" fill="#0965CD"/>
<path d="M28 82.3142C28 81.3832 28.7548 80.6284 29.6858 80.6284H70.9761C71.9071 80.6284 72.6619 81.3832 72.6619 82.3142C72.6619 83.2453 71.9071 84 70.9761 84H29.6858C28.7548 84 28 83.2453 28 82.3142Z" fill="#40D98D"/>
<path d="M60.9111 80.6284H70.9752C71.9062 80.6284 72.661 81.3832 72.661 82.3142C72.661 83.2453 71.9062 84 70.9752 84H60.9111V80.6284Z" fill="#25BB71"/>
<path d="M56.8975 32.7571C59.0961 32.8841 61.1684 33.3354 62.9971 34.2297C64.2776 33.8521 65.6231 33.6448 66.9941 33.6448C68.3747 33.6448 69.729 33.8549 71.0176 34.2375C72.8447 33.3454 74.9153 32.8957 77.1113 32.7688C79.6649 32.6214 81.6113 34.6703 81.5703 36.9846C81.5292 39.2933 81.3392 41.2301 80.7266 43.1292C81.2608 44.5532 81.5596 46.0902 81.5596 47.6946C81.5594 52.1003 79.726 55.5802 76.873 57.9104C74.0863 60.1864 70.4806 61.2493 66.9941 61.2493C63.5077 61.2492 59.9029 60.1863 57.1162 57.9104C54.2631 55.5802 52.4288 52.1005 52.4287 47.6946C52.4287 46.0777 52.7334 44.5293 53.2754 43.0959C52.6682 41.2036 52.4784 39.2725 52.4375 36.9729C52.3965 34.6582 54.3444 32.6096 56.8975 32.7571ZM55.6357 50.3401C55.4454 49.521 55.3428 48.6394 55.3428 47.6956C55.3428 46.0886 55.7272 44.5604 56.4004 43.179V43.178C55.7273 44.5594 55.3428 46.0876 55.3428 47.6946C55.3428 48.6389 55.4452 49.5207 55.6357 50.3401ZM78.5654 46.4358C78.5809 46.5583 78.5954 46.6813 78.6064 46.8049C78.5955 46.6813 78.5809 46.5583 78.5654 46.4358ZM77.8828 43.8391C78.1544 44.5064 78.3606 45.2032 78.4893 45.9231C78.3607 45.2031 78.1543 44.5065 77.8828 43.8391ZM77.2832 35.6135C75.1536 35.7366 73.3342 36.1999 71.8516 37.0334L70.4502 37.054C69.3363 36.6928 68.1708 36.4944 66.9941 36.4944C65.7044 36.4944 64.4272 36.7289 63.2178 37.1594L63.2246 37.1584C64.432 36.7295 65.7069 36.4964 66.9941 36.4963C68.1688 36.4963 69.3322 36.694 70.4443 37.054H70.4502C70.7392 37.1477 71.0254 37.25 71.3066 37.3655C71.4827 37.2486 71.6648 37.1384 71.8516 37.0334H71.8535C73.3357 36.2007 75.1547 35.7385 77.2832 35.6155C77.9958 35.5744 78.5837 36.1068 78.6494 36.7864C78.5845 36.106 77.9964 35.5725 77.2832 35.6135ZM55.6357 50.3401C55.6478 50.3921 55.6601 50.4439 55.6729 50.4954C55.6601 50.4439 55.6478 50.3921 55.6357 50.3401Z" fill="white"/>
<path d="M55.3532 36.9287C55.3399 36.1792 55.9626 35.5636 56.7269 35.6077C60.2228 35.8097 62.8834 36.9263 64.5892 39.0977C64.7359 39.2845 64.6986 39.5496 64.5143 39.701L57.9897 45.0617C57.7724 45.2403 57.4429 45.1884 57.3 44.9483C55.8304 42.4784 55.4149 40.3965 55.3532 36.9287Z" fill="#FFA099"/>
<path d="M78.6533 36.9392C78.6666 36.1896 78.0441 35.5741 77.2797 35.6182C73.7837 35.8202 71.1231 36.9368 69.4174 39.1082C69.2707 39.295 69.3079 39.5601 69.4923 39.7115L76.0168 45.0722C76.2342 45.2508 76.5637 45.1989 76.7066 44.9588C78.1763 42.4889 78.5915 40.407 78.6533 36.9392Z" fill="#FF7E75"/>
<path d="M78.6447 47.6954C78.6447 41.5102 72.9544 36.4961 66.9932 36.4961C61.032 36.4961 55.3418 41.5102 55.3418 47.6954C55.3418 61.969 78.6447 61.969 78.6447 47.6954Z" fill="#FFDECC"/>
<path d="M67.002 58.4006C72.8259 58.3985 78.6481 54.8301 78.6481 47.6954C78.6481 41.5121 72.9612 36.4991 67.002 36.4961V58.4006Z" fill="#FFCFB5"/>
<path d="M72.7713 49.8088C72.7713 47.3605 70.04 45.3757 67.1786 45.3757C64.3172 45.3757 61.5859 47.3605 61.5859 49.8088C61.5859 55.4588 72.7713 55.4588 72.7713 49.8088Z" fill="#FFA099"/>
<path d="M72.1206 43.3468C72.1206 42.5907 71.4946 41.9778 70.7224 41.9778C69.9502 41.9778 69.3242 42.5907 69.3242 43.3468C69.3242 44.1029 69.9502 44.7159 70.7224 44.7159C71.4946 44.7159 72.1206 44.1029 72.1206 43.3468Z" fill="#1E203E"/>
<path d="M64.6645 43.3468C64.6645 42.5907 64.0385 41.9778 63.2663 41.9778C62.4941 41.9778 61.8682 42.5907 61.8682 43.3468C61.8682 44.1029 62.4941 44.7159 63.2663 44.7159C64.0385 44.7159 64.6645 44.1029 64.6645 43.3468Z" fill="#282A52"/>
<path fill-rule="evenodd" clip-rule="evenodd" d="M65.3613 51.4007C64.8465 51.4007 64.4292 50.992 64.4292 50.488V49.5753C64.4292 49.0712 64.8465 48.6626 65.3613 48.6626C65.8761 48.6626 66.2934 49.0712 66.2934 49.5753V50.488C66.2934 50.992 65.8761 51.4007 65.3613 51.4007Z" fill="#282A52"/>
<path d="M67.002 54.0443C69.8572 54.1065 72.7753 52.6946 72.7753 49.8088C72.7753 47.3605 70.0439 45.3757 67.1826 45.3757C67.1223 45.3757 67.0621 45.3766 67.002 45.3784V54.0443Z" fill="#FF7E75"/>
<path fill-rule="evenodd" clip-rule="evenodd" d="M68.6245 51.4007C68.1097 51.4007 67.6924 50.992 67.6924 50.488V49.5753C67.6924 49.0712 68.1097 48.6626 68.6245 48.6626C69.1393 48.6626 69.5566 49.0712 69.5566 49.5753V50.488C69.5566 50.992 69.1393 51.4007 68.6245 51.4007Z" fill="#1E203E"/>
<path fill-rule="evenodd" clip-rule="evenodd" d="M68.6095 57.3012C68.0986 57.8023 67.8095 58.484 67.8095 59.1971C67.8095 59.9102 68.0986 60.592 68.6095 61.093L72.8607 65.2604L72.8927 65.2895C73.2759 65.6371 73.7515 65.8687 74.2628 65.9584C74.7739 66.048 75.3008 65.9922 75.7812 65.7972C76.2617 65.6021 76.6767 65.2754 76.976 64.8542C77.2753 64.433 77.4459 63.9354 77.4663 63.4204L77.468 63.3772V63.1555C79.6485 62.4688 81.5151 61.2332 82.7069 59.4209C84.2677 57.0476 84.4042 54.0932 83.1781 51.0553L83.1687 51.0321L83.1588 51.009C82.9229 50.461 82.5092 50.0075 81.9847 49.7178C81.4604 49.4282 80.854 49.3178 80.2601 49.403C79.6662 49.4882 79.1161 49.7644 78.6969 50.1907C78.2774 50.6171 78.0129 51.1696 77.9469 51.7619L77.9441 51.7868L77.9419 51.8118C77.9136 52.1332 77.6223 52.8567 77.0134 53.5875C77.0057 53.576 76.9978 53.5646 76.9899 53.5532C76.6902 53.1235 76.2705 52.7902 75.7832 52.5924C75.296 52.3946 74.7612 52.3402 74.2437 52.4355C73.7261 52.5309 73.2466 52.772 72.8642 53.1312L72.8468 53.1475L68.6095 57.3012ZM75.5368 56.993C76.1867 56.9502 76.8515 56.6556 77.468 56.2122C78.2262 55.6668 78.9113 54.8961 79.4055 54.0914C79.516 53.9114 79.617 53.7298 79.7071 53.5486C79.9263 53.1076 80.0812 52.6692 80.1528 52.2642C80.1543 52.2555 80.1558 52.2469 80.1573 52.2382C80.1707 52.1588 80.1808 52.0806 80.1876 52.004C80.1988 51.9031 80.2439 51.8086 80.3158 51.7355C80.3877 51.6624 80.4823 51.6148 80.5848 51.6001C80.6873 51.5854 80.7919 51.6045 80.8821 51.6543C80.9724 51.7042 81.0432 51.782 81.0834 51.8756C81.1121 51.9466 81.1398 52.0173 81.1665 52.0878C81.1694 52.0955 81.1723 52.1031 81.1752 52.1107C81.2588 52.3325 81.3328 52.5516 81.3976 52.7678C81.477 53.0332 81.5425 53.2942 81.5944 53.5507C81.6621 53.885 81.7067 54.2116 81.7291 54.5298C81.984 58.1413 79.3909 60.6894 75.309 61.3955C75.2774 61.401 75.2457 61.4064 75.2139 61.4116V63.3339C75.2104 63.4225 75.1811 63.5083 75.1293 63.581C75.0776 63.6538 75.0057 63.7105 74.9222 63.7444C74.8386 63.7784 74.7469 63.7881 74.6578 63.7725C74.5688 63.7569 74.4862 63.7166 74.4198 63.6563L70.1998 59.5195C70.1126 59.434 70.0636 59.318 70.0636 59.1971C70.0636 59.0762 70.1126 58.9602 70.1998 58.8747L74.4198 54.738C74.4856 54.6762 74.5683 54.6345 74.6579 54.618C74.7475 54.6015 74.84 54.6109 74.9242 54.6451C75.0084 54.6793 75.0806 54.7368 75.1321 54.8105C75.1835 54.8843 75.2119 54.9711 75.2139 55.0604V56.993C75.246 56.9952 75.2781 56.9967 75.3102 56.9975C75.3855 56.9996 75.4611 56.998 75.5368 56.993Z" fill="white"/>
<path d="M70.2025 58.8756L74.4225 54.7389C74.4883 54.6771 74.571 54.6354 74.6606 54.6189C74.7501 54.6024 74.8427 54.6119 74.9269 54.646C75.0111 54.6802 75.0833 54.7377 75.1347 54.8114C75.1862 54.8852 75.2146 54.972 75.2166 55.0613V56.9939C77.4588 57.1466 80.0114 54.0315 80.1902 52.0049C80.2015 51.904 80.2466 51.8096 80.3185 51.7365C80.3904 51.6634 80.485 51.6157 80.5875 51.601C80.69 51.5863 80.7946 51.6054 80.8848 51.6552C80.975 51.7051 81.0458 51.7829 81.0861 51.8765C83.1146 56.9026 80.2984 60.5737 75.2166 61.4125V63.3348C75.2131 63.4234 75.1837 63.5092 75.132 63.5819C75.0803 63.6547 75.0084 63.7114 74.9248 63.7453C74.8413 63.7793 74.7495 63.789 74.6605 63.7734C74.5715 63.7578 74.4889 63.7175 74.4225 63.6572L70.2025 59.5205C70.1153 59.4349 70.0663 59.319 70.0663 59.198C70.0663 59.0771 70.1153 58.9611 70.2025 58.8756Z" fill="#0965CD"/>
<path fill-rule="evenodd" clip-rule="evenodd" d="M65.3905 36.6988C65.9014 36.1977 66.1905 35.516 66.1905 34.8029C66.1905 34.0898 65.9015 33.408 65.3905 32.907L61.1393 28.7396L61.1073 28.7105C60.7241 28.3629 60.2485 28.1313 59.7372 28.0416C59.2261 27.952 58.6992 28.0078 58.2188 28.2028C57.7383 28.3979 57.3233 28.7246 57.024 29.1458C56.7247 29.567 56.5541 30.0646 56.5337 30.5796L56.532 30.6228L56.532 30.8445C54.3515 31.5312 52.4849 32.7668 51.2931 34.5791C49.7323 36.9524 49.5958 39.9068 50.8219 42.9447L50.8313 42.9679L50.8412 42.991C51.0771 43.539 51.4908 43.9925 52.0153 44.2822C52.5396 44.5718 53.146 44.6822 53.7399 44.597C54.3338 44.5118 54.8839 44.2356 55.3031 43.8093C55.7226 43.3829 55.9871 42.8304 56.0531 42.2381L56.0559 42.2132L56.0581 42.1882C56.0864 41.8668 56.3777 41.1433 56.9866 40.4125C56.9943 40.424 57.0022 40.4354 57.0101 40.4468C57.3098 40.8765 57.7295 41.2098 58.2168 41.4076C58.704 41.6054 59.2388 41.6598 59.7563 41.5645C60.2739 41.4691 60.7534 41.228 61.1358 40.8688L61.1532 40.8525L65.3905 36.6988ZM58.4632 37.007C57.8133 37.0498 57.1485 37.3444 56.532 37.7878C55.7738 38.3332 55.0887 39.1039 54.5945 39.9086C54.484 40.0886 54.383 40.2702 54.2929 40.4514C54.0737 40.8924 53.9188 41.3308 53.8472 41.7358C53.8457 41.7445 53.8442 41.7531 53.8427 41.7618C53.8293 41.8412 53.8192 41.9194 53.8124 41.996C53.8012 42.0969 53.7561 42.1914 53.6842 42.2645C53.6123 42.3376 53.5177 42.3852 53.4152 42.3999C53.3127 42.4146 53.2081 42.3955 53.1179 42.3457C53.0276 42.2958 52.9568 42.218 52.9166 42.1244C52.8879 42.0534 52.8602 41.9827 52.8335 41.9122C52.8306 41.9045 52.8277 41.8969 52.8248 41.8893C52.7412 41.6675 52.6672 41.4484 52.6024 41.2322C52.523 40.9668 52.4575 40.7058 52.4056 40.4493C52.3379 40.115 52.2933 39.7884 52.2709 39.4702C52.016 35.8587 54.6091 33.3106 58.691 32.6045C58.7226 32.599 58.7543 32.5936 58.7861 32.5884L58.7861 30.6661C58.7896 30.5775 58.819 30.4917 58.8707 30.419C58.9224 30.3462 58.9943 30.2895 59.0778 30.2556C59.1614 30.2216 59.2531 30.2119 59.3422 30.2275C59.4312 30.2431 59.5138 30.2834 59.5802 30.3437L63.8002 34.4805C63.8874 34.566 63.9364 34.682 63.9364 34.8029C63.9364 34.9238 63.8874 35.0398 63.8002 35.1253L59.5802 39.262C59.5144 39.3238 59.4317 39.3655 59.3421 39.382C59.2525 39.3985 59.16 39.3891 59.0758 39.3549C58.9916 39.3207 58.9194 39.2632 58.8679 39.1895C58.8165 39.1157 58.7881 39.0289 58.7861 38.9396L58.7861 37.007C58.754 37.0048 58.7219 37.0033 58.6898 37.0025C58.6145 37.0004 58.5389 37.002 58.4632 37.007Z" fill="white"/>
<path d="M63.7975 35.1244L59.5775 39.2611C59.5117 39.3229 59.429 39.3646 59.3394 39.3811C59.2499 39.3976 59.1573 39.3881 59.0731 39.354C58.9889 39.3198 58.9167 39.2623 58.8653 39.1886C58.8138 39.1148 58.7854 39.028 58.7834 38.9387L58.7834 37.0061C56.5412 36.8534 53.9886 39.9685 53.8098 41.9951C53.7985 42.096 53.7534 42.1904 53.6815 42.2635C53.6096 42.3366 53.515 42.3843 53.4125 42.399C53.31 42.4137 53.2054 42.3946 53.1152 42.3448C53.025 42.2949 52.9542 42.2171 52.9139 42.1235C50.8854 37.0974 53.7016 33.4263 58.7834 32.5875L58.7834 30.6652C58.7869 30.5766 58.8163 30.4908 58.868 30.4181C58.9197 30.3453 58.9916 30.2886 59.0752 30.2547C59.1587 30.2207 59.2505 30.211 59.3395 30.2266C59.4285 30.2422 59.5111 30.2825 59.5775 30.3428L63.7975 34.4795C63.8847 34.5651 63.9337 34.681 63.9337 34.802C63.9337 34.9229 63.8847 35.0389 63.7975 35.1244Z" fill="#40D98D"/>
<rect x="31" y="133.999" width="20" height="43.9971" fill="#E2EFFE"/>
<rect x="31" y="133.999" width="9.99999" height="43.9971" fill="#F0F7FE"/>
<path d="M51 133.999C51 128.477 46.5228 124 41 124C35.4771 124 31 128.477 31 133.999H51Z" fill="#157DF5"/>
<path d="M41 124V133.999H51C51 128.477 46.5229 124 41 124Z" fill="#0965CD"/>
<path d="M69.1087 178.422H37.1191V152.304L53.1137 141.152L69.1087 152.304V178.422Z" fill="#E2EFFE"/>
<path d="M68.9901 152.304L52.9951 141.152V178.422H68.9901V152.304Z" fill="#B6D7FC"/>
<path d="M35.5498 156.739C34.8773 157.27 33.8997 157.166 33.3554 156.506C32.8002 155.832 32.9074 154.837 33.5937 154.296L50.6768 140.81C52.0369 139.736 53.961 139.729 55.3287 140.794L72.3975 154.075C73.0855 154.61 73.2016 155.6 72.656 156.278C72.1179 156.947 71.1379 157.06 70.4593 156.532L55.3294 144.769C53.9613 143.705 52.0372 143.713 50.6775 144.787L35.5498 156.739Z" fill="#0965CD"/>
<path d="M45.5645 159.759H60.4303V178.284H45.5645V159.759Z" fill="#F0F7FE"/>
<path d="M52.9951 159.759H60.4281V178.284H52.9951V159.759Z" fill="#E2EFFE"/>
<path d="M45.641 158.485C44.6042 158.485 43.7637 159.326 43.7637 160.362V179.988H62.229V160.362C62.229 159.326 61.3885 158.485 60.3517 158.485H45.641ZM50.9791 169.269L46.9305 174.168V164.4L50.9791 169.269ZM48.6821 161.592H57.3234L52.9961 166.804L48.6821 161.592ZM52.9961 171.728L57.3102 176.881H48.7642L52.9961 171.728ZM55.0611 169.262L59.0622 164.421V174.073L55.0611 169.262Z" fill="#157DF5"/>
<path d="M62.228 160.362C62.228 159.326 61.3875 158.485 60.3507 158.485H52.9951V161.592H57.3224L52.9951 166.804V171.728L57.3092 176.881H52.9951V179.988H62.228V160.362ZM59.0612 174.073L55.0601 169.262L59.0612 164.421V174.073Z" fill="#0965CD"/>
<path d="M52.996 140C52.1753 140.004 51.3558 140.274 50.6768 140.81L33.5937 154.296C32.9074 154.837 32.8002 155.832 33.3554 156.506C33.8997 157.166 34.8773 157.27 35.5498 156.739L50.6775 144.787C51.3561 144.251 52.1754 143.98 52.996 143.976V140Z" fill="#157DF5"/>
<path d="M50.2676 152.726C50.2676 151.22 51.4886 149.999 52.9948 149.999V155.453H51.1767C50.6746 155.453 50.2676 155.046 50.2676 154.544V152.726Z" fill="#157DF5"/>
<path d="M52.9951 149.999C54.5013 149.999 55.7224 151.22 55.7224 152.726V154.544C55.7224 155.046 55.3154 155.453 54.8133 155.453H52.9951V149.999Z" fill="#0965CD"/>
<path d="M28 178.314C28 177.383 28.7548 176.628 29.6858 176.628H70.9761C71.9071 176.628 72.6619 177.383 72.6619 178.314C72.6619 179.245 71.9071 180 70.9761 180H29.6858C28.7548 180 28 179.245 28 178.314Z" fill="#40D98D"/>
<path d="M60.9111 176.628H70.9752C71.9062 176.628 72.661 177.383 72.661 178.314C72.661 179.245 71.9062 180 70.9752 180H60.9111V176.628Z" fill="#25BB71"/>
<path d="M56.8975 128.757C59.0961 128.884 61.1684 129.335 62.9971 130.23C64.2776 129.852 65.6231 129.645 66.9941 129.645C68.3747 129.645 69.729 129.855 71.0176 130.238C72.8447 129.345 74.9153 128.896 77.1113 128.769C79.6649 128.621 81.6113 130.67 81.5703 132.985C81.5292 135.293 81.3392 137.23 80.7266 139.129C81.2608 140.553 81.5596 142.09 81.5596 143.695C81.5594 148.1 79.726 151.58 76.873 153.91C74.0863 156.186 70.4806 157.249 66.9941 157.249C63.5077 157.249 59.9029 156.186 57.1162 153.91C54.2631 151.58 52.4288 148.1 52.4287 143.695C52.4287 142.078 52.7334 140.529 53.2754 139.096C52.6682 137.204 52.4784 135.272 52.4375 132.973C52.3965 130.658 54.3444 128.61 56.8975 128.757ZM55.6357 146.34C55.4454 145.521 55.3428 144.639 55.3428 143.696C55.3428 142.089 55.7272 140.56 56.4004 139.179V139.178C55.7273 140.559 55.3428 142.088 55.3428 143.695C55.3428 144.639 55.4452 145.521 55.6357 146.34ZM78.5654 142.436C78.5809 142.558 78.5954 142.681 78.6064 142.805C78.5955 142.681 78.5809 142.558 78.5654 142.436ZM77.8828 139.839C78.1544 140.506 78.3606 141.203 78.4893 141.923C78.3607 141.203 78.1543 140.506 77.8828 139.839ZM77.2832 131.614C75.1536 131.737 73.3342 132.2 71.8516 133.033L70.4502 133.054C69.3363 132.693 68.1708 132.494 66.9941 132.494C65.7044 132.494 64.4272 132.729 63.2178 133.159L63.2246 133.158C64.432 132.73 65.7069 132.496 66.9941 132.496C68.1688 132.496 69.3322 132.694 70.4443 133.054H70.4502C70.7392 133.148 71.0254 133.25 71.3066 133.365C71.4827 133.249 71.6648 133.138 71.8516 133.033H71.8535C73.3357 132.201 75.1547 131.738 77.2832 131.615C77.9958 131.574 78.5837 132.107 78.6494 132.786C78.5845 132.106 77.9964 131.572 77.2832 131.614ZM55.6357 146.34C55.6478 146.392 55.6601 146.444 55.6729 146.495C55.6601 146.444 55.6478 146.392 55.6357 146.34Z" fill="white"/>
<path d="M55.3532 132.929C55.3399 132.179 55.9626 131.564 56.7269 131.608C60.2228 131.81 62.8834 132.926 64.5892 135.098C64.7359 135.284 64.6986 135.55 64.5143 135.701L57.9897 141.062C57.7724 141.24 57.4429 141.188 57.3 140.948C55.8304 138.478 55.4149 136.396 55.3532 132.929Z" fill="#FFA099"/>
<path d="M78.6533 132.939C78.6666 132.19 78.0441 131.574 77.2797 131.618C73.7837 131.82 71.1231 132.937 69.4174 135.108C69.2707 135.295 69.3079 135.56 69.4923 135.712L76.0168 141.072C76.2342 141.251 76.5637 141.199 76.7066 140.959C78.1763 138.489 78.5915 136.407 78.6533 132.939Z" fill="#FF7E75"/>
<path d="M78.6447 143.695C78.6447 137.51 72.9544 132.496 66.9932 132.496C61.032 132.496 55.3418 137.51 55.3418 143.695C55.3418 157.969 78.6447 157.969 78.6447 143.695Z" fill="#FFDECC"/>
<path d="M67.002 154.401C72.8259 154.398 78.6481 150.83 78.6481 143.695C78.6481 137.512 72.9612 132.499 67.002 132.496V154.401Z" fill="#FFCFB5"/>
<path d="M72.7713 145.809C72.7713 143.36 70.04 141.376 67.1786 141.376C64.3172 141.376 61.5859 143.36 61.5859 145.809C61.5859 151.459 72.7713 151.459 72.7713 145.809Z" fill="#FFA099"/>
<path d="M72.1206 139.347C72.1206 138.591 71.4946 137.978 70.7224 137.978C69.9502 137.978 69.3242 138.591 69.3242 139.347C69.3242 140.103 69.9502 140.716 70.7224 140.716C71.4946 140.716 72.1206 140.103 72.1206 139.347Z" fill="#1E203E"/>
<path d="M64.6645 139.347C64.6645 138.591 64.0385 137.978 63.2663 137.978C62.4941 137.978 61.8682 138.591 61.8682 139.347C61.8682 140.103 62.4941 140.716 63.2663 140.716C64.0385 140.716 64.6645 140.103 64.6645 139.347Z" fill="#282A52"/>
<path fill-rule="evenodd" clip-rule="evenodd" d="M65.3613 147.401C64.8465 147.401 64.4292 146.992 64.4292 146.488V145.575C64.4292 145.071 64.8465 144.663 65.3613 144.663C65.8761 144.663 66.2934 145.071 66.2934 145.575V146.488C66.2934 146.992 65.8761 147.401 65.3613 147.401Z" fill="#282A52"/>
<path d="M67.002 150.044C69.8572 150.106 72.7753 148.695 72.7753 145.809C72.7753 143.36 70.0439 141.376 67.1826 141.376C67.1223 141.376 67.0621 141.377 67.002 141.378V150.044Z" fill="#FF7E75"/>
<path fill-rule="evenodd" clip-rule="evenodd" d="M68.6245 147.401C68.1097 147.401 67.6924 146.992 67.6924 146.488V145.575C67.6924 145.071 68.1097 144.663 68.6245 144.663C69.1393 144.663 69.5566 145.071 69.5566 145.575V146.488C69.5566 146.992 69.1393 147.401 68.6245 147.401Z" fill="#1E203E"/>
<path fill-rule="evenodd" clip-rule="evenodd" d="M68.6095 153.301C68.0986 153.802 67.8095 154.484 67.8095 155.197C67.8095 155.91 68.0986 156.592 68.6095 157.093L72.8607 161.26L72.8927 161.289C73.2759 161.637 73.7515 161.869 74.2628 161.958C74.7739 162.048 75.3008 161.992 75.7812 161.797C76.2617 161.602 76.6767 161.275 76.976 160.854C77.2753 160.433 77.4459 159.935 77.4663 159.42L77.468 159.377V159.156C79.6485 158.469 81.5151 157.233 82.7069 155.421C84.2677 153.048 84.4042 150.093 83.1781 147.055L83.1687 147.032L83.1588 147.009C82.9229 146.461 82.5092 146.008 81.9847 145.718C81.4604 145.428 80.854 145.318 80.2601 145.403C79.6662 145.488 79.1161 145.764 78.6969 146.191C78.2774 146.617 78.0129 147.17 77.9469 147.762L77.9441 147.787L77.9419 147.812C77.9136 148.133 77.6223 148.857 77.0134 149.587C77.0057 149.576 76.9978 149.565 76.9899 149.553C76.6902 149.124 76.2705 148.79 75.7832 148.592C75.296 148.395 74.7612 148.34 74.2437 148.436C73.7261 148.531 73.2466 148.772 72.8642 149.131L72.8468 149.148L68.6095 153.301ZM75.5368 152.993C76.1867 152.95 76.8515 152.656 77.468 152.212C78.2262 151.667 78.9113 150.896 79.4055 150.091C79.516 149.911 79.617 149.73 79.7071 149.549C79.9263 149.108 80.0812 148.669 80.1528 148.264C80.1543 148.255 80.1558 148.247 80.1573 148.238C80.1707 148.159 80.1808 148.081 80.1876 148.004C80.1988 147.903 80.2439 147.809 80.3158 147.736C80.3877 147.662 80.4823 147.615 80.5848 147.6C80.6873 147.585 80.7919 147.604 80.8821 147.654C80.9724 147.704 81.0432 147.782 81.0834 147.876C81.1121 147.947 81.1398 148.017 81.1665 148.088C81.1694 148.095 81.1723 148.103 81.1752 148.111C81.2588 148.333 81.3328 148.552 81.3976 148.768C81.477 149.033 81.5425 149.294 81.5944 149.551C81.6621 149.885 81.7067 150.212 81.7291 150.53C81.984 154.141 79.3909 156.689 75.309 157.396C75.2774 157.401 75.2457 157.406 75.2139 157.412V159.334C75.2104 159.423 75.1811 159.508 75.1293 159.581C75.0776 159.654 75.0057 159.71 74.9222 159.744C74.8386 159.778 74.7469 159.788 74.6578 159.772C74.5688 159.757 74.4862 159.717 74.4198 159.656L70.1998 155.52C70.1126 155.434 70.0636 155.318 70.0636 155.197C70.0636 155.076 70.1126 154.96 70.1998 154.875L74.4198 150.738C74.4856 150.676 74.5683 150.635 74.6579 150.618C74.7475 150.602 74.84 150.611 74.9242 150.645C75.0084 150.679 75.0806 150.737 75.1321 150.811C75.1835 150.884 75.2119 150.971 75.2139 151.06V152.993C75.246 152.995 75.2781 152.997 75.3102 152.998C75.3855 153 75.4611 152.998 75.5368 152.993Z" fill="white"/>
<path d="M70.2025 154.876L74.4225 150.739C74.4883 150.677 74.571 150.635 74.6606 150.619C74.7501 150.602 74.8427 150.612 74.9269 150.646C75.0111 150.68 75.0833 150.738 75.1347 150.811C75.1862 150.885 75.2146 150.972 75.2166 151.061V152.994C77.4588 153.147 80.0114 150.032 80.1902 148.005C80.2015 147.904 80.2466 147.81 80.3185 147.736C80.3904 147.663 80.485 147.616 80.5875 147.601C80.69 147.586 80.7946 147.605 80.8848 147.655C80.975 147.705 81.0458 147.783 81.0861 147.876C83.1146 152.903 80.2984 156.574 75.2166 157.413V159.335C75.2131 159.423 75.1837 159.509 75.132 159.582C75.0803 159.655 75.0084 159.711 74.9248 159.745C74.8413 159.779 74.7495 159.789 74.6605 159.773C74.5715 159.758 74.4889 159.717 74.4225 159.657L70.2025 155.52C70.1153 155.435 70.0663 155.319 70.0663 155.198C70.0663 155.077 70.1153 154.961 70.2025 154.876Z" fill="#0965CD"/>
<path fill-rule="evenodd" clip-rule="evenodd" d="M65.3905 132.699C65.9014 132.198 66.1905 131.516 66.1905 130.803C66.1905 130.09 65.9015 129.408 65.3905 128.907L61.1393 124.74L61.1073 124.711C60.7241 124.363 60.2485 124.131 59.7372 124.042C59.2261 123.952 58.6992 124.008 58.2188 124.203C57.7383 124.398 57.3233 124.725 57.024 125.146C56.7247 125.567 56.5541 126.065 56.5337 126.58L56.532 126.623L56.532 126.844C54.3515 127.531 52.4849 128.767 51.2931 130.579C49.7323 132.952 49.5958 135.907 50.8219 138.945L50.8313 138.968L50.8412 138.991C51.0771 139.539 51.4908 139.992 52.0153 140.282C52.5396 140.572 53.146 140.682 53.7399 140.597C54.3338 140.512 54.8839 140.236 55.3031 139.809C55.7226 139.383 55.9871 138.83 56.0531 138.238L56.0559 138.213L56.0581 138.188C56.0864 137.867 56.3777 137.143 56.9866 136.413C56.9943 136.424 57.0022 136.435 57.0101 136.447C57.3098 136.876 57.7295 137.21 58.2168 137.408C58.704 137.605 59.2388 137.66 59.7563 137.564C60.2739 137.469 60.7534 137.228 61.1358 136.869L61.1532 136.852L65.3905 132.699ZM58.4632 133.007C57.8133 133.05 57.1485 133.344 56.532 133.788C55.7738 134.333 55.0887 135.104 54.5945 135.909C54.484 136.089 54.383 136.27 54.2929 136.451C54.0737 136.892 53.9188 137.331 53.8472 137.736C53.8457 137.745 53.8442 137.753 53.8427 137.762C53.8293 137.841 53.8192 137.919 53.8124 137.996C53.8012 138.097 53.7561 138.191 53.6842 138.264C53.6123 138.338 53.5177 138.385 53.4152 138.4C53.3127 138.415 53.2081 138.396 53.1179 138.346C53.0276 138.296 52.9568 138.218 52.9166 138.124C52.8879 138.053 52.8602 137.983 52.8335 137.912C52.8306 137.905 52.8277 137.897 52.8248 137.889C52.7412 137.667 52.6672 137.448 52.6024 137.232C52.523 136.967 52.4575 136.706 52.4056 136.449C52.3379 136.115 52.2933 135.788 52.2709 135.47C52.016 131.859 54.6091 129.311 58.691 128.604C58.7226 128.599 58.7543 128.594 58.7861 128.588L58.7861 126.666C58.7896 126.577 58.819 126.492 58.8707 126.419C58.9224 126.346 58.9943 126.29 59.0778 126.256C59.1614 126.222 59.2531 126.212 59.3422 126.228C59.4312 126.243 59.5138 126.283 59.5802 126.344L63.8002 130.48C63.8874 130.566 63.9364 130.682 63.9364 130.803C63.9364 130.924 63.8874 131.04 63.8002 131.125L59.5802 135.262C59.5144 135.324 59.4317 135.365 59.3421 135.382C59.2525 135.398 59.16 135.389 59.0758 135.355C58.9916 135.321 58.9194 135.263 58.8679 135.189C58.8165 135.116 58.7881 135.029 58.7861 134.94L58.7861 133.007C58.754 133.005 58.7219 133.003 58.6898 133.002C58.6145 133 58.5389 133.002 58.4632 133.007Z" fill="white"/>
<path d="M63.7975 131.124L59.5775 135.261C59.5117 135.323 59.429 135.365 59.3394 135.381C59.2499 135.398 59.1573 135.388 59.0731 135.354C58.9889 135.32 58.9167 135.262 58.8653 135.189C58.8138 135.115 58.7854 135.028 58.7834 134.939L58.7834 133.006C56.5412 132.853 53.9886 135.968 53.8098 137.995C53.7985 138.096 53.7534 138.19 53.6815 138.264C53.6096 138.337 53.515 138.384 53.4125 138.399C53.31 138.414 53.2054 138.395 53.1152 138.345C53.025 138.295 52.9542 138.217 52.9139 138.124C50.8854 133.097 53.7016 129.426 58.7834 128.587L58.7834 126.665C58.7869 126.577 58.8163 126.491 58.868 126.418C58.9197 126.345 58.9916 126.289 59.0752 126.255C59.1587 126.221 59.2505 126.211 59.3395 126.227C59.4285 126.242 59.5111 126.283 59.5775 126.343L63.7975 130.48C63.8847 130.565 63.9337 130.681 63.9337 130.802C63.9337 130.923 63.8847 131.039 63.7975 131.124Z" fill="#40D98D"/>
<defs>
<filter id="filter0_d_52429_11662" x="10" y="9" width="96" height="96" filterUnits="userSpaceOnUse" color-interpolation-filters="sRGB">
<feFlood flood-opacity="0" result="BackgroundImageFix"/>
<feColorMatrix in="SourceAlpha" type="matrix" values="0 0 0 0 0 0 0 0 0 0 0 0 0 0 0 0 0 0 127 0" result="hardAlpha"/>
<feOffset dx="2" dy="1"/>
<feGaussianBlur stdDeviation="4"/>
<feColorMatrix type="matrix" values="0 0 0 0 0.0392157 0 0 0 0 0.0392157 0 0 0 0 0.0627451 0 0 0 0.08 0"/>
<feBlend mode="normal" in2="BackgroundImageFix" result="effect1_dropShadow_52429_11662"/>
<feBlend mode="normal" in="SourceGraphic" in2="effect1_dropShadow_52429_11662" result="shape"/>
</filter>
</defs>
</svg>
