<svg width="112" height="208" viewBox="0 0 112 208" fill="none" xmlns="http://www.w3.org/2000/svg">
<rect x="0.5" y="0.5" width="111" height="207" rx="4.5" stroke="#9747FF" stroke-dasharray="10 5"/>
<g filter="url(#filter0_d_40775_11360)">
<rect x="16" y="16" width="80" height="80" rx="8" fill="white"/>
</g>
<g clip-path="url(#clip0_40775_11360)">
<path d="M52.5 45.2865C52.5 44.6929 52.7636 44.13 53.2196 43.75L59.4228 38.5807C60.1644 37.9627 61.2418 37.9627 61.9835 38.5807L68.1866 43.75C68.6426 44.13 68.9062 44.6929 68.9062 45.2865V57.3594H52.5V45.2865Z" fill="#0965CD"/>
<path d="M60.7002 38.1172C60.2464 38.1178 59.7928 38.2724 59.4228 38.5807L53.2196 43.75C52.7636 44.13 52.5 44.6929 52.5 45.2865V57.3594H60.7002V38.1172Z" fill="#157DF5"/>
<path d="M58.7031 49.6641C58.1508 49.6641 57.7031 50.1118 57.7031 50.6641V56.0641H60.7031L61.5031 55.0641L60.7031 49.6641H58.7031Z" fill="#40D98D"/>
<path d="M60.7031 49.6641H62.7031C63.2554 49.6641 63.7031 50.1118 63.7031 50.6641V56.0641H60.7031V49.6641Z" fill="#25BB71"/>
<path d="M76.6719 47.9375H79.9531V56.2035H76.6719V47.9375Z" fill="#FEC27C"/>
<path d="M78.3125 34.8672C74.618 34.8672 72.625 41.2661 72.625 43.8824C72.625 47.0185 75.1764 49.5699 78.3125 49.5699C81.4486 49.5699 84 47.0185 84 43.8824C84 41.2661 82.007 34.8672 78.3125 34.8672Z" fill="#40D98D"/>
<path d="M31 50C31 48.8954 31.8954 48 33 48H43.9844C45.0889 48 45.9844 48.8954 45.9844 50V57.4062H31V50Z" fill="#FEE048"/>
<path d="M62.0415 71.3548L60.9958 67.4273L60.5311 65.7097L60.9958 62.6372L62.0415 58.9355L60.9958 56H58.6969L55.0705 57.9194L53.7678 56H44.6389L41.2448 56.9032L39.7097 56H30C28.8954 56 28 56.8954 28 58V67.3792L28.6971 68.871L28 72.1692V81.0405L30.3237 81.2903L29.8837 84H39.0126L43.1037 82.871L43.9418 84H53.0707L56.4647 82.9839L57.9999 84H60.9958L61.4606 82.7581L60.9958 81.0886L60.2988 79.371L60.9958 76.2985L62.0415 71.3548Z" fill="#DDF8EB"/>
<path d="M84.0002 58.7337L81.909 57.9194L81.8842 56H72.7553L69.4774 57.0161L67.8261 56H60.9961V62.6372L62.0417 63.7903L60.9961 67.4273V76.2985L62.7388 77.1129L60.9961 81.0886V84H67.129L69.5936 83.3226L72.0582 84H82.0002C83.1048 84 84.0002 83.1046 84.0002 82V72.395L83.3031 71.0161L84.0002 67.605V58.7337Z" fill="#BFF2D9"/>
<path d="M39.7097 56L28 67.3792V72.1692L44.6389 56H39.7097Z" fill="#40D98D"/>
<path d="M53.7678 56L28 81.0405V82.1163C28 83.1567 28.8433 84 29.8837 84L58.6969 56H53.7678Z" fill="#40D98D"/>
<path d="M67.1289 84.0044H72.0581L84.0001 72.3994V67.6094L67.1289 84.0044Z" fill="#25BB71"/>
<path d="M39.0127 83.9956H43.9419L60.9959 67.4228L61.8092 64.2375L60.9959 62.6328L39.0127 83.9956Z" fill="#40D98D"/>
<path d="M67.8261 56L60.9961 62.6372V67.4273L72.7553 56H67.8261Z" fill="#25BB71"/>
<path d="M60.9955 76.3047L53.0703 84.0062H57.9995L60.9955 81.0947L62.8544 77.5707L60.9955 76.3047Z" fill="#40D98D"/>
<path d="M81.8842 56L60.9961 76.2985V81.0886L84.0002 58.7337V58C84.0002 56.8954 83.1048 56 82.0002 56H81.8842Z" fill="#25BB71"/>
<path d="M31.5 29.5C31.5 28.6716 32.1716 28 33 28C33.8284 28 34.5 28.6716 34.5 29.5V36.5C34.5 37.3284 33.8284 38 33 38C32.1716 38 31.5 37.3284 31.5 36.5V29.5Z" fill="#40D98D"/>
<path d="M36.5 31.5C37.3284 31.5 38 32.1716 38 33C38 33.8284 37.3284 34.5 36.5 34.5L29.5 34.5C28.6716 34.5 28 33.8284 28 33C28 32.1716 28.6716 31.5 29.5 31.5L36.5 31.5Z" fill="#40D98D"/>
<path d="M43.5 36C43.5 35.1716 44.1716 34.5 45 34.5C45.8284 34.5 46.5 35.1716 46.5 36V43C46.5 43.8284 45.8284 44.5 45 44.5C44.1716 44.5 43.5 43.8284 43.5 43V36Z" fill="#40D98D"/>
<path d="M48.5 38C49.3284 38 50 38.6716 50 39.5C50 40.3284 49.3284 41 48.5 41L41.5 41C40.6716 41 40 40.3284 40 39.5C40 38.6716 40.6716 38 41.5 38L48.5 38Z" fill="#40D98D"/>
</g>
<path d="M63.2284 65.3587C64.4645 64.0199 66.1495 63.1898 67.9579 63.0288C69.7663 62.8677 71.5699 63.3872 73.0201 64.4868C74.4704 63.3872 76.2739 62.8677 78.0823 63.0287C79.8907 63.1898 81.5757 64.0199 82.8118 65.3587C84.2183 66.8825 85 68.8856 85 70.9659C85 73.0461 84.2183 75.0492 82.8118 76.573L76.1508 83.6154C75.7446 84.0524 75.2535 84.4008 74.7082 84.639C74.1628 84.8771 73.5746 85 72.9802 85C72.3857 85 71.7976 84.8771 71.2522 84.639C70.7068 84.4008 70.2158 84.0524 69.8095 83.6154L63.1485 76.573C61.7529 75.0391 60.9854 73.0303 61.0002 70.95C61.015 68.8698 61.8111 66.8723 63.2284 65.3587Z" fill="#09C369"/>
<path d="M73 64.4716C71.5532 63.3824 69.758 62.8685 67.9579 63.0287C66.1495 63.1898 64.4645 64.0199 63.2284 65.3587C61.8111 66.8723 61.015 68.8698 61.0002 70.95C60.9854 73.0303 61.7529 75.0391 63.1485 76.573L69.8095 83.6154C70.2158 84.0524 70.7068 84.4008 71.2522 84.6389C71.7976 84.8771 72.3857 85 72.9802 85C72.9868 85 72.9934 85 73 85V64.4716Z" fill="#2CE88D"/>
<path fill-rule="evenodd" clip-rule="evenodd" d="M82.8118 76.573C84.2183 75.0493 85 73.0461 85 70.9659C85 68.8856 84.2183 66.8825 82.8118 65.3587C81.5757 64.0199 79.8907 63.1898 78.0823 63.0288C76.2739 62.8677 74.4704 63.3872 73.0201 64.4868C71.5699 63.3872 69.7663 62.8677 67.9579 63.0288C66.1495 63.1898 64.4645 64.0199 63.2284 65.3587C61.8111 66.8723 61.015 68.8698 61.0002 70.9501C60.9854 73.0303 61.7529 75.0391 63.1485 76.573L69.8095 83.6154C70.2158 84.0524 70.7068 84.4008 71.2522 84.639C71.7976 84.8771 72.3857 85 72.9802 85C73.5746 85 74.1628 84.8771 74.7082 84.639C75.2535 84.4008 75.7446 84.0524 76.1508 83.6154L82.8118 76.573ZM78.338 85.6688L85.0039 78.6212L85.0163 78.6078C86.936 76.5279 88 73.7976 88 70.9659C88 68.1342 86.936 65.4038 85.0163 63.324C83.2769 61.44 80.9018 60.268 78.3484 60.0406C76.5059 59.8765 74.6682 60.213 73.0201 60.995C71.3721 60.213 69.5344 59.8765 67.6919 60.0406C65.142 60.2676 62.7702 61.4365 61.0315 63.3158C59.1013 65.3809 58.0204 68.1004 58.0003 70.9287C57.9801 73.7604 59.0246 76.4984 60.9296 78.592L60.9491 78.6134L67.6223 85.6688C68.3061 86.4014 69.1325 86.9869 70.0516 87.3883C70.9752 87.7916 71.972 88 72.9802 88C73.9883 88 74.9851 87.7916 75.9087 87.3883C76.8278 86.9869 77.6542 86.4014 78.338 85.6688Z" fill="white"/>
<path d="M63.5509 76.9979L63.149 76.573C62.4592 75.8149 61.9229 74.9407 61.5586 73.9993H63.1977L63.8759 72.9821C64.8939 71.455 67.1555 71.5088 68.0997 73.0826L69.1284 74.797L73.9026 68.3178C74.9612 66.8812 77.1408 66.9843 78.0589 68.5146L81.3498 73.9993H84.4255C84.0544 74.9425 83.5103 75.8168 82.8123 76.573L82.4091 76.9993H81.0667C80.1885 76.9993 79.3748 76.5386 78.923 75.7856L75.8726 70.7016L71.0984 77.1808C70.0398 78.6175 67.8602 78.5143 66.942 76.984L65.9338 75.3036L65.5454 75.8861C65.0976 76.5578 64.3542 76.9704 63.5509 76.9979Z" fill="white"/>
<path d="M73 74.6001V69.5428L73.9026 68.3178C74.9612 66.8812 77.1408 66.9843 78.059 68.5146L81.3498 73.9993H84.4255C84.0544 74.9425 83.5103 75.8168 82.8123 76.573L82.4091 76.9993H81.0667C80.1885 76.9993 79.3748 76.5386 78.923 75.7856L75.8726 70.7016L73 74.6001Z" fill="#F0F7FE"/>
<g clip-path="url(#clip1_40775_11360)">
<path d="M52.5 141.286C52.5 140.693 52.7636 140.13 53.2196 139.75L59.4228 134.581C60.1644 133.963 61.2418 133.963 61.9835 134.581L68.1866 139.75C68.6426 140.13 68.9062 140.693 68.9062 141.286V153.359H52.5V141.286Z" fill="#0965CD"/>
<path d="M60.7002 134.117C60.2464 134.118 59.7928 134.272 59.4228 134.581L53.2196 139.75C52.7636 140.13 52.5 140.693 52.5 141.286V153.359H60.7002V134.117Z" fill="#157DF5"/>
<path d="M58.7031 145.664C58.1508 145.664 57.7031 146.112 57.7031 146.664V152.064H60.7031L61.5031 151.064L60.7031 145.664H58.7031Z" fill="#40D98D"/>
<path d="M60.7031 145.664H62.7031C63.2554 145.664 63.7031 146.112 63.7031 146.664V152.064H60.7031V145.664Z" fill="#25BB71"/>
<path d="M76.6719 143.938H79.9531V152.204H76.6719V143.938Z" fill="#FEC27C"/>
<path d="M78.3125 130.867C74.618 130.867 72.625 137.266 72.625 139.882C72.625 143.019 75.1764 145.57 78.3125 145.57C81.4486 145.57 84 143.019 84 139.882C84 137.266 82.007 130.867 78.3125 130.867Z" fill="#40D98D"/>
<path d="M31 146C31 144.895 31.8954 144 33 144H43.9844C45.0889 144 45.9844 144.895 45.9844 146V153.406H31V146Z" fill="#FEE048"/>
<path d="M62.0415 167.355L60.9958 163.427L60.5311 161.71L60.9958 158.637L62.0415 154.935L60.9958 152H58.6969L55.0705 153.919L53.7678 152H44.6389L41.2448 152.903L39.7097 152H30C28.8954 152 28 152.895 28 154V163.379L28.6971 164.871L28 168.169V177.04L30.3237 177.29L29.8837 180H39.0126L43.1037 178.871L43.9418 180H53.0707L56.4647 178.984L57.9999 180H60.9958L61.4606 178.758L60.9958 177.089L60.2988 175.371L60.9958 172.299L62.0415 167.355Z" fill="#DDF8EB"/>
<path d="M84.0002 154.734L81.909 153.919L81.8842 152H72.7553L69.4774 153.016L67.8261 152H60.9961V158.637L62.0417 159.79L60.9961 163.427V172.299L62.7388 173.113L60.9961 177.089V180H67.129L69.5936 179.323L72.0582 180H82.0002C83.1048 180 84.0002 179.105 84.0002 178V168.395L83.3031 167.016L84.0002 163.605V154.734Z" fill="#BFF2D9"/>
<path d="M39.7097 152L28 163.379V168.169L44.6389 152H39.7097Z" fill="#40D98D"/>
<path d="M53.7678 152L28 177.04V178.116C28 179.157 28.8433 180 29.8837 180L58.6969 152H53.7678Z" fill="#40D98D"/>
<path d="M67.1289 180.004H72.0581L84.0001 168.399V163.609L67.1289 180.004Z" fill="#25BB71"/>
<path d="M39.0127 179.996H43.9419L60.9959 163.423L61.8092 160.238L60.9959 158.633L39.0127 179.996Z" fill="#40D98D"/>
<path d="M67.8261 152L60.9961 158.637V163.427L72.7553 152H67.8261Z" fill="#25BB71"/>
<path d="M60.9955 172.305L53.0703 180.006H57.9995L60.9955 177.095L62.8544 173.571L60.9955 172.305Z" fill="#40D98D"/>
<path d="M81.8842 152L60.9961 172.299V177.089L84.0002 154.734V154C84.0002 152.895 83.1048 152 82.0002 152H81.8842Z" fill="#25BB71"/>
<path d="M31.5 125.5C31.5 124.672 32.1716 124 33 124C33.8284 124 34.5 124.672 34.5 125.5V132.5C34.5 133.328 33.8284 134 33 134C32.1716 134 31.5 133.328 31.5 132.5V125.5Z" fill="#40D98D"/>
<path d="M36.5 127.5C37.3284 127.5 38 128.172 38 129C38 129.828 37.3284 130.5 36.5 130.5L29.5 130.5C28.6716 130.5 28 129.828 28 129C28 128.172 28.6716 127.5 29.5 127.5L36.5 127.5Z" fill="#40D98D"/>
<path d="M43.5 132C43.5 131.172 44.1716 130.5 45 130.5C45.8284 130.5 46.5 131.172 46.5 132V139C46.5 139.828 45.8284 140.5 45 140.5C44.1716 140.5 43.5 139.828 43.5 139V132Z" fill="#40D98D"/>
<path d="M48.5 134C49.3284 134 50 134.672 50 135.5C50 136.328 49.3284 137 48.5 137L41.5 137C40.6716 137 40 136.328 40 135.5C40 134.672 40.6716 134 41.5 134L48.5 134Z" fill="#40D98D"/>
</g>
<path d="M63.2284 161.359C64.4645 160.02 66.1495 159.19 67.9579 159.029C69.7663 158.868 71.5699 159.387 73.0201 160.487C74.4704 159.387 76.2739 158.868 78.0823 159.029C79.8907 159.19 81.5757 160.02 82.8118 161.359C84.2183 162.882 85 164.886 85 166.966C85 169.046 84.2183 171.049 82.8118 172.573L76.1508 179.615C75.7446 180.052 75.2535 180.401 74.7082 180.639C74.1628 180.877 73.5746 181 72.9802 181C72.3857 181 71.7976 180.877 71.2522 180.639C70.7068 180.401 70.2158 180.052 69.8095 179.615L63.1485 172.573C61.7529 171.039 60.9854 169.03 61.0002 166.95C61.015 164.87 61.8111 162.872 63.2284 161.359Z" fill="#09C369"/>
<path d="M73 160.472C71.5532 159.382 69.758 158.868 67.9579 159.029C66.1495 159.19 64.4645 160.02 63.2284 161.359C61.8111 162.872 61.015 164.87 61.0002 166.95C60.9854 169.03 61.7529 171.039 63.1485 172.573L69.8095 179.615C70.2158 180.052 70.7068 180.401 71.2522 180.639C71.7976 180.877 72.3857 181 72.9802 181C72.9868 181 72.9934 181 73 181V160.472Z" fill="#2CE88D"/>
<path fill-rule="evenodd" clip-rule="evenodd" d="M82.8118 172.573C84.2183 171.049 85 169.046 85 166.966C85 164.886 84.2183 162.882 82.8118 161.359C81.5757 160.02 79.8907 159.19 78.0823 159.029C76.2739 158.868 74.4704 159.387 73.0201 160.487C71.5699 159.387 69.7663 158.868 67.9579 159.029C66.1495 159.19 64.4645 160.02 63.2284 161.359C61.8111 162.872 61.015 164.87 61.0002 166.95C60.9854 169.03 61.7529 171.039 63.1485 172.573L69.8095 179.615C70.2158 180.052 70.7068 180.401 71.2522 180.639C71.7976 180.877 72.3857 181 72.9802 181C73.5746 181 74.1628 180.877 74.7082 180.639C75.2535 180.401 75.7446 180.052 76.1508 179.615L82.8118 172.573ZM78.338 181.669L85.0039 174.621L85.0163 174.608C86.936 172.528 88 169.798 88 166.966C88 164.134 86.936 161.404 85.0163 159.324C83.2769 157.44 80.9018 156.268 78.3484 156.041C76.5059 155.877 74.6682 156.213 73.0201 156.995C71.3721 156.213 69.5344 155.877 67.6919 156.041C65.142 156.268 62.7702 157.436 61.0315 159.316C59.1013 161.381 58.0204 164.1 58.0003 166.929C57.9801 169.76 59.0246 172.498 60.9296 174.592L60.9491 174.613L67.6223 181.669C68.3061 182.401 69.1325 182.987 70.0516 183.388C70.9752 183.792 71.972 184 72.9802 184C73.9883 184 74.9851 183.792 75.9087 183.388C76.8278 182.987 77.6542 182.401 78.338 181.669Z" fill="white"/>
<path d="M63.5509 172.998L63.149 172.573C62.4592 171.815 61.9229 170.941 61.5586 169.999H63.1977L63.8759 168.982C64.8939 167.455 67.1555 167.509 68.0997 169.083L69.1284 170.797L73.9026 164.318C74.9612 162.881 77.1408 162.984 78.0589 164.515L81.3498 169.999H84.4255C84.0544 170.942 83.5103 171.817 82.8123 172.573L82.4091 172.999H81.0667C80.1885 172.999 79.3748 172.539 78.923 171.786L75.8726 166.702L71.0984 173.181C70.0398 174.617 67.8602 174.514 66.942 172.984L65.9338 171.304L65.5454 171.886C65.0976 172.558 64.3542 172.97 63.5509 172.998Z" fill="white"/>
<path d="M73 170.6V165.543L73.9026 164.318C74.9612 162.881 77.1408 162.984 78.059 164.515L81.3498 169.999H84.4255C84.0544 170.942 83.5103 171.817 82.8123 172.573L82.4091 172.999H81.0667C80.1885 172.999 79.3748 172.539 78.923 171.786L75.8726 166.702L73 170.6Z" fill="#F0F7FE"/>
<defs>
<filter id="filter0_d_40775_11360" x="10" y="9" width="96" height="96" filterUnits="userSpaceOnUse" color-interpolation-filters="sRGB">
<feFlood flood-opacity="0" result="BackgroundImageFix"/>
<feColorMatrix in="SourceAlpha" type="matrix" values="0 0 0 0 0 0 0 0 0 0 0 0 0 0 0 0 0 0 127 0" result="hardAlpha"/>
<feOffset dx="2" dy="1"/>
<feGaussianBlur stdDeviation="4"/>
<feColorMatrix type="matrix" values="0 0 0 0 0.0392157 0 0 0 0 0.0392157 0 0 0 0 0.0627451 0 0 0 0.08 0"/>
<feBlend mode="normal" in2="BackgroundImageFix" result="effect1_dropShadow_40775_11360"/>
<feBlend mode="normal" in="SourceGraphic" in2="effect1_dropShadow_40775_11360" result="shape"/>
</filter>
<clipPath id="clip0_40775_11360">
<rect width="56" height="56" fill="white" transform="translate(28 28)"/>
</clipPath>
<clipPath id="clip1_40775_11360">
<rect width="56" height="56" fill="white" transform="translate(28 124)"/>
</clipPath>
</defs>
</svg>
