<svg width="112" height="208" viewBox="0 0 112 208" fill="none" xmlns="http://www.w3.org/2000/svg">
<rect x="0.5" y="0.5" width="111" height="207" rx="4.5" stroke="#9747FF" stroke-dasharray="10 5"/>
<g filter="url(#filter0_d_40775_11338)">
<rect x="16" y="16" width="80" height="80" rx="8" fill="white"/>
</g>
<g clip-path="url(#clip0_40775_11338)">
<path d="M42.1572 37.3594V52.3394H43.7979L44.9301 37.3594H42.1572Z" fill="#40D98D"/>
<path d="M43.7979 37.3594H45.4385V52.3393H43.7979V37.3594Z" fill="#25BB71"/>
<path d="M43.7973 39.7492H39.9145C36.0968 39.7492 33.002 36.6612 33.002 32.8521V30H36.8848C40.7024 30 43.7973 33.088 43.7973 36.8971V39.7492Z" fill="#40D98D"/>
<path d="M43.7969 39.7492H47.6797C51.4973 39.7492 54.5922 36.6612 54.5922 32.8521V30H50.7094C46.8917 30 43.7969 33.088 43.7969 36.8971V39.7492Z" fill="#25BB71"/>
<path d="M66.5625 37.3594V52.3394H68.2031L69.3354 37.3594H66.5625Z" fill="#40D98D"/>
<path d="M68.2031 37.3594H69.8438V52.3393H68.2031V37.3594Z" fill="#25BB71"/>
<path d="M68.2035 39.7492H64.3207C60.5031 39.7492 57.4082 36.6612 57.4082 32.8521V30H61.291C65.1086 30 68.2035 33.088 68.2035 36.8971V39.7492Z" fill="#40D98D"/>
<path d="M68.2031 39.7492H72.0859C75.9036 39.7492 78.9984 36.6612 78.9984 32.8521V30H75.1156C71.298 30 68.2031 33.088 68.2031 36.8971V39.7492Z" fill="#25BB71"/>
<path d="M33.8848 54.1487H57.4925V64.6502H33.8848V54.1487Z" fill="#FFB78F"/>
<path d="M56 54.1487H78.1151V64.6502H56V54.1487Z" fill="#FBA474"/>
<path d="M33.8848 48.8281V55.8854H55.9998L62.2927 52.3589L55.9998 48.8281H33.8848Z" fill="#FFCFB5"/>
<path d="M56 48.8281H78.1151V55.8853H56V48.8281Z" fill="#FFB78F"/>
<path d="M35.1136 70.0024H55.9998L59.5562 66.4739L55.9998 62.9453H33.8848L35.1136 70.0024Z" fill="#FFCFB5"/>
<path d="M76.8862 70.0024L78.1151 62.9453H56V70.0024H76.8862Z" fill="#FFB78F"/>
<path d="M76.8867 47.1987C76.8867 46.0966 77.7821 45.2031 78.8867 45.2031H82.0005C83.105 45.2031 84.0005 46.0966 84.0005 47.1987V67.9744C84.0005 69.0789 83.105 70 82.0005 70H76.8867V47.1987Z" fill="#FFB78F"/>
<path d="M28 47.1987C28 46.0966 28.8954 45.2031 30 45.2031H33.1138C34.2183 45.2031 35.1137 46.0966 35.1137 47.1987V70H30C28.8954 70 28 69.0789 28 67.9744V47.1987Z" fill="#FFB78F"/>
<path d="M72.0011 57C67.0082 57 62.9608 61.216 62.9608 66.4167C62.9608 66.4167 62.623 74.235 71.2728 78.8271C71.6982 79.0529 72.2013 79.0546 72.6269 78.8293C74.7442 77.7081 81.0413 73.7562 81.0413 66.4167C81.0413 61.216 76.9938 57 72.0011 57Z" fill="#157DF5"/>
<path fill-rule="evenodd" clip-rule="evenodd" d="M72.6268 78.8289C72.2012 79.0543 71.6981 79.0525 71.2727 78.8267C62.6229 74.2347 62.9606 66.4163 62.9606 66.4163C62.9606 61.2156 67.0081 56.9996 72.0009 56.9996C76.9937 56.9996 81.0411 61.2156 81.0411 66.4163C81.0411 73.7559 74.744 77.7077 72.6268 78.8289ZM60.0019 66.3694C60.0011 66.4018 60.0004 66.4409 60.0001 66.4864C59.9995 66.5839 60.0006 66.7113 60.0059 66.8657C60.0166 67.1741 60.044 67.5925 60.109 68.0975C60.2385 69.1049 60.5196 70.4759 61.1254 72.0127C62.3559 75.1342 64.8856 78.822 69.9001 81.4841L69.9002 81.4841C71.178 82.1624 72.7056 82.1714 73.9967 81.4877L73.9967 81.4877C75.2195 80.8402 77.6542 79.3784 79.8148 76.9751C82.0014 74.5428 84 71.0311 84 66.4163C84 59.6361 78.7029 54 72.0009 54C65.3144 54 60.0262 59.6101 60.0019 66.3694Z" fill="white"/>
<path d="M72 57H72.0011C76.9938 57 81.0413 61.216 81.0413 66.4167C81.0413 73.7562 74.7442 77.7081 72.627 78.8293C72.4295 78.9338 72.2153 78.9895 72 78.9966V57Z" fill="#0965CD"/>
<ellipse cx="71.9994" cy="66.1667" rx="3.61639" ry="3.66667" fill="#F0F7FE"/>
<path d="M71.9994 69.8333V62.5C70.0022 62.5 68.3831 64.1416 68.3831 66.1667C68.3831 68.1917 70.0022 69.8333 71.9994 69.8333Z" fill="white"/>
</g>
<g clip-path="url(#clip1_40775_11338)">
<path d="M42.1572 133.359V148.339H43.7979L44.9301 133.359H42.1572Z" fill="#40D98D"/>
<path d="M43.7979 133.359H45.4385V148.339H43.7979V133.359Z" fill="#25BB71"/>
<path d="M43.7973 135.749H39.9145C36.0968 135.749 33.002 132.661 33.002 128.852V126H36.8848C40.7024 126 43.7973 129.088 43.7973 132.897V135.749Z" fill="#40D98D"/>
<path d="M43.7969 135.749H47.6797C51.4973 135.749 54.5922 132.661 54.5922 128.852V126H50.7094C46.8917 126 43.7969 129.088 43.7969 132.897V135.749Z" fill="#25BB71"/>
<path d="M66.5625 133.359V148.339H68.2031L69.3354 133.359H66.5625Z" fill="#40D98D"/>
<path d="M68.2031 133.359H69.8438V148.339H68.2031V133.359Z" fill="#25BB71"/>
<path d="M68.2035 135.749H64.3207C60.5031 135.749 57.4082 132.661 57.4082 128.852V126H61.291C65.1086 126 68.2035 129.088 68.2035 132.897V135.749Z" fill="#40D98D"/>
<path d="M68.2031 135.749H72.0859C75.9036 135.749 78.9984 132.661 78.9984 128.852V126H75.1156C71.298 126 68.2031 129.088 68.2031 132.897V135.749Z" fill="#25BB71"/>
<path d="M33.8848 150.149H57.4925V160.65H33.8848V150.149Z" fill="#FFB78F"/>
<path d="M56 150.149H78.1151V160.65H56V150.149Z" fill="#FBA474"/>
<path d="M33.8848 144.828V151.885H55.9998L62.2927 148.359L55.9998 144.828H33.8848Z" fill="#FFCFB5"/>
<path d="M56 144.828H78.1151V151.885H56V144.828Z" fill="#FFB78F"/>
<path d="M35.1136 166.002H55.9998L59.5562 162.474L55.9998 158.945H33.8848L35.1136 166.002Z" fill="#FFCFB5"/>
<path d="M76.8862 166.002L78.1151 158.945H56V166.002H76.8862Z" fill="#FFB78F"/>
<path d="M76.8867 143.199C76.8867 142.097 77.7821 141.203 78.8867 141.203H82.0005C83.105 141.203 84.0005 142.097 84.0005 143.199V163.974C84.0005 165.079 83.105 166 82.0005 166H76.8867V143.199Z" fill="#FFB78F"/>
<path d="M28 143.199C28 142.097 28.8954 141.203 30 141.203H33.1138C34.2183 141.203 35.1137 142.097 35.1137 143.199V166H30C28.8954 166 28 165.079 28 163.974V143.199Z" fill="#FFB78F"/>
<path d="M72.0011 153C67.0082 153 62.9608 157.216 62.9608 162.417C62.9608 162.417 62.623 170.235 71.2728 174.827C71.6982 175.053 72.2013 175.055 72.6269 174.829C74.7442 173.708 81.0413 169.756 81.0413 162.417C81.0413 157.216 76.9938 153 72.0011 153Z" fill="#157DF5"/>
<path fill-rule="evenodd" clip-rule="evenodd" d="M72.6268 174.829C72.2012 175.054 71.6981 175.053 71.2727 174.827C62.6229 170.235 62.9606 162.416 62.9606 162.416C62.9606 157.216 67.0081 153 72.0009 153C76.9937 153 81.0411 157.216 81.0411 162.416C81.0411 169.756 74.744 173.708 72.6268 174.829ZM60.0019 162.369C60.0011 162.402 60.0004 162.441 60.0001 162.486C59.9995 162.584 60.0006 162.711 60.0059 162.866C60.0166 163.174 60.044 163.592 60.109 164.097C60.2385 165.105 60.5196 166.476 61.1254 168.013C62.3559 171.134 64.8856 174.822 69.9001 177.484L69.9002 177.484C71.178 178.162 72.7056 178.171 73.9967 177.488L73.9967 177.488C75.2195 176.84 77.6542 175.378 79.8148 172.975C82.0014 170.543 84 167.031 84 162.416C84 155.636 78.7029 150 72.0009 150C65.3144 150 60.0262 155.61 60.0019 162.369Z" fill="white"/>
<path d="M72 153H72.0011C76.9938 153 81.0413 157.216 81.0413 162.417C81.0413 169.756 74.7442 173.708 72.627 174.829C72.4295 174.934 72.2153 174.99 72 174.997V153Z" fill="#0965CD"/>
<ellipse cx="71.9994" cy="162.167" rx="3.61639" ry="3.66667" fill="#F0F7FE"/>
<path d="M71.9994 165.833V158.5C70.0022 158.5 68.3831 160.142 68.3831 162.167C68.3831 164.192 70.0022 165.833 71.9994 165.833Z" fill="white"/>
</g>
<defs>
<filter id="filter0_d_40775_11338" x="10" y="9" width="96" height="96" filterUnits="userSpaceOnUse" color-interpolation-filters="sRGB">
<feFlood flood-opacity="0" result="BackgroundImageFix"/>
<feColorMatrix in="SourceAlpha" type="matrix" values="0 0 0 0 0 0 0 0 0 0 0 0 0 0 0 0 0 0 127 0" result="hardAlpha"/>
<feOffset dx="2" dy="1"/>
<feGaussianBlur stdDeviation="4"/>
<feColorMatrix type="matrix" values="0 0 0 0 0.0392157 0 0 0 0 0.0392157 0 0 0 0 0.0627451 0 0 0 0.08 0"/>
<feBlend mode="normal" in2="BackgroundImageFix" result="effect1_dropShadow_40775_11338"/>
<feBlend mode="normal" in="SourceGraphic" in2="effect1_dropShadow_40775_11338" result="shape"/>
</filter>
<clipPath id="clip0_40775_11338">
<rect width="56" height="56" fill="white" transform="translate(28 28)"/>
</clipPath>
<clipPath id="clip1_40775_11338">
<rect width="56" height="56" fill="white" transform="translate(28 124)"/>
</clipPath>
</defs>
</svg>
