<svg width="112" height="208" viewBox="0 0 112 208" fill="none" xmlns="http://www.w3.org/2000/svg">
<rect x="0.5" y="0.5" width="111" height="207" rx="4.5" stroke="#9747FF" stroke-dasharray="10 5"/>
<g filter="url(#filter0_dd_48047_11362)">
<rect x="16" y="16" width="80" height="80" rx="8" fill="white"/>
</g>
<path d="M31.6892 34.8281C30.7563 34.8281 30 35.5627 30 36.4687V82.3587C30 83.2647 30.7563 83.9993 31.6892 83.9993H50L51.1262 59.2089L50 34.8281H31.6892Z" fill="#F0F7FE"/>
<path d="M68.3109 34.8281H50V83.9993H70V36.4687C70.0001 35.5627 69.2438 34.8281 68.3109 34.8281Z" fill="#E2EFFE"/>
<path d="M36.5283 68.0352C36.5283 68.9412 37.2846 69.6758 38.2175 69.6758H49.9997L51.126 67.9958L49.9997 66.3945H38.2175C37.2846 66.3945 36.5283 67.1291 36.5283 68.0352Z" fill="#E2EFFE"/>
<path d="M61.7823 69.6758C62.7152 69.6758 63.4715 68.9412 63.4715 68.0352C63.4715 67.1291 62.7152 66.3945 61.7823 66.3945H50V69.6758H61.7823Z" fill="#B6D7FC"/>
<path d="M38.2175 73.0781C37.2846 73.0781 36.5283 73.8127 36.5283 74.7188C36.5283 75.6248 37.2846 76.3594 38.2175 76.3594H49.9997L51.126 74.7188L49.9997 73.0781H38.2175Z" fill="#E2EFFE"/>
<path d="M61.7823 73.0781H50V76.3594H61.7822C62.7151 76.3594 63.4714 75.6248 63.4714 74.7188C63.4714 73.8127 62.7152 73.0781 61.7823 73.0781Z" fill="#B6D7FC"/>
<path d="M50.0005 28C47.4625 28 45.193 29.3473 44.022 31.4529H40.7156C39.7827 31.4529 39.0264 32.1874 39.0264 33.0935V37.7338C39.0264 38.6399 39.7827 39.3745 40.7156 39.3745H50.0006L51.1268 35.4878L50.0005 28Z" fill="#323567"/>
<path d="M59.285 31.4529H55.9786C54.8076 29.3473 52.5381 28 50 28V39.3745H59.285C60.2179 39.3745 60.9742 38.6399 60.9742 37.7338V33.0935C60.9742 32.1874 60.2179 31.4529 59.285 31.4529Z" fill="#282A52"/>
<path d="M56.0477 51.2C55.5807 51.2 55.202 50.8336 55.202 50.3816C55.202 49.9296 55.5807 49.5632 56.0477 49.5632C56.9995 49.5632 57.7738 48.814 57.7738 47.893C57.7738 45.2704 55.5689 43.1367 52.8587 43.1367H48.1496C47.6825 43.1367 47.3039 42.7703 47.3039 42.3184C47.3039 41.8664 47.6825 41.5 48.1496 41.5H52.8587C56.5015 41.5 59.4652 44.3679 59.4652 47.893C59.4652 49.7165 57.9321 51.2 56.0477 51.2Z" fill="white"/>
<path d="M55.203 50.3846C55.2039 50.8358 55.5821 51.2014 56.0486 51.2014C56.9074 51.2014 57.6926 50.8926 58.2935 50.3846H55.203Z" fill="white"/>
<path d="M56.1373 53.6472C54.4223 53.6472 53.0031 52.345 52.9061 50.6826C52.8799 50.2314 53.2366 49.845 53.7029 49.8195C54.1696 49.7945 54.5686 50.1393 54.5949 50.5905C54.6412 51.3868 55.3188 52.0105 56.1372 52.0105C56.6043 52.0105 56.9829 52.3769 56.9829 52.8288C56.9829 53.2808 56.6043 53.6472 56.1373 53.6472Z" fill="white"/>
<path d="M52.5357 55.969C52.4086 55.969 52.2795 55.9412 52.1581 55.8824C50.797 55.2238 49.1544 53.7952 49.0047 51.9365C48.9684 51.4859 49.3165 51.0921 49.7822 51.057C50.247 51.0223 50.6547 51.3587 50.691 51.8094C50.7792 52.9055 51.9054 53.9303 52.9145 54.4185C53.3323 54.6206 53.5016 55.1122 53.2927 55.5164C53.1446 55.8032 52.8459 55.969 52.5357 55.969Z" fill="white"/>
<path d="M52.5357 55.969C52.4086 55.969 52.2795 55.9412 52.1581 55.8824C50.797 55.2238 49.1544 53.7952 49.0047 51.9365C48.9684 51.4859 49.3165 51.0921 49.7822 51.057C50.247 51.0223 50.6547 51.3587 50.691 51.8094C50.7792 52.9055 51.9054 53.9303 52.9145 54.4185C53.3323 54.6206 53.5016 55.1122 53.2927 55.5164C53.1446 55.8032 52.8459 55.969 52.5357 55.969Z" fill="white"/>
<path fill-rule="evenodd" clip-rule="evenodd" d="M39 52.9712C39 54.3244 39.2887 55.6372 39.8583 56.8644C40.0034 57.1771 40.1648 57.4791 40.3408 57.7703L40.5956 58.192L40.6201 58.2023C41.0588 58.8458 41.5774 59.435 42.17 59.9626C43.154 60.8388 44.2924 61.5022 45.548 61.9307C46.5462 62.2713 47.583 62.4505 48.6375 62.4655C49.044 62.914 49.603 63.389 50.3254 63.6786C50.9321 63.9217 51.5344 64 52.0618 64C53.3756 63.9999 54.4458 63.5109 54.5596 63.458C55.4966 63.0224 55.9674 61.9701 55.6335 60.9948L55.6333 60.994C55.6117 60.9312 55.4449 60.448 55.087 59.8645C55.4449 59.2809 55.6118 58.7976 55.6334 58.7346L55.6335 58.7341C55.9673 57.7588 55.4961 56.7063 54.5592 56.2707C54.4655 56.2272 53.9688 56.0042 53.2736 55.8587C53.1339 55.8294 52.9802 55.8021 52.8152 55.7801C52.7808 55.5443 52.7238 55.3133 52.646 55.0902C52.8983 55.0116 53.1487 54.9258 53.3971 54.8328C53.5008 54.794 53.6041 54.754 53.7069 54.7127C53.7818 54.6827 53.8564 54.652 53.9306 54.6208C54.5926 54.9576 55.3441 55.1472 56.1373 55.1472C57.4378 55.1472 58.5178 54.123 58.5178 52.8289C58.5178 52.5807 58.4781 52.3426 58.4047 52.1196C59.9447 51.3077 61 49.7248 61 47.893C61 43.5256 57.3349 40 52.8586 40H48.1495C46.8491 40 45.769 41.0241 45.769 42.3184C45.769 43.6127 46.8491 44.6367 48.1495 44.6367H52.8586C54.575 44.6367 55.979 45.8711 56.2066 47.4437C55.4285 46.9635 54.5652 46.5324 53.6577 46.1685C52.4621 45.6891 51.2295 45.3423 50.0594 45.1679L48.5407 45.0399L48.4969 45.0394C48.4766 45.0392 48.4543 45.039 48.4317 45.039H47.1793C44.8983 45.039 42.8303 45.9504 41.3468 47.4145L40.9839 47.7726L40.9797 47.8037C39.7497 49.1892 39 50.9961 39 52.9712Z" fill="white"/>
<path fill-rule="evenodd" clip-rule="evenodd" d="M47.4746 52.0541C47.3708 50.7632 48.3665 49.6592 49.6643 49.5615L49.6654 49.5614C50.9575 49.4649 52.1172 50.4004 52.2212 51.6916C52.2291 51.7895 52.3054 52.0206 52.5979 52.3379C52.8779 52.6416 53.2523 52.9081 53.5956 53.0742C54.7696 53.6422 55.2599 55.0372 54.6629 56.1926C54.2412 57.0088 53.3968 57.469 52.5358 57.469C52.1784 57.469 51.8157 57.3904 51.4773 57.2267M49.7822 51.057C50.247 51.0223 50.6547 51.3587 50.691 51.8094C50.7792 52.9055 51.9054 53.9303 52.9145 54.4185C53.3323 54.6206 53.5016 55.1122 53.2927 55.5164C53.1446 55.8032 52.8459 55.969 52.5357 55.969C52.4086 55.969 52.2795 55.9412 52.1581 55.8824C50.797 55.2238 49.1544 53.7952 49.0047 51.9365C48.9684 51.4859 49.3165 51.0921 49.7822 51.057ZM47.4746 52.0541C47.6868 54.6887 49.917 56.4717 51.4773 57.2267L47.4746 52.0541Z" fill="white"/>
<path d="M48.9367 57.1333C48.8481 57.1333 48.7579 57.1197 48.6692 57.0911C47.6402 56.7591 46.7166 56.083 46.0685 55.1871C45.4378 54.3153 45.0905 53.2721 45.0905 52.2499C45.0905 51.7979 45.4691 51.4315 45.9362 51.4315C46.4032 51.4315 46.7819 51.7979 46.7819 52.2499C46.7819 53.7026 47.8005 55.0856 49.204 55.5383C49.6471 55.6812 49.8866 56.1447 49.7389 56.5735C49.6208 56.9163 49.2909 57.1333 48.9367 57.1333Z" fill="white"/>
<path d="M46.6877 54.7838L42.437 48.4726C41.2611 49.633 40.5348 51.2215 40.5348 52.9712C40.5348 54.1124 40.7774 55.2138 41.2559 56.2448C41.3777 56.5073 41.5136 56.7615 41.6623 57.0075L41.8299 57.078C42.5807 57.3934 43.3815 57.5524 44.1824 57.5524C44.7855 57.5524 45.3886 57.4622 45.97 57.2809L46.5794 57.0834C46.331 56.7791 46.1901 56.3981 46.1901 55.9923C46.1901 55.5248 46.3796 55.0996 46.6877 54.7838Z" fill="white"/>
<path d="M57.1002 50.0166C56.1384 49.0852 54.7088 48.2114 53.075 47.5562C51.478 46.9158 49.8666 46.5569 48.5241 46.5409L48.3538 46.7378C46.5242 48.8525 46.5256 51.9213 48.3571 54.0347L48.5244 54.2277C50.1102 54.2165 51.6573 53.9134 53.1241 53.3251C54.6188 52.7255 55.9566 51.8599 57.1002 50.7524C57.3101 50.5491 57.3101 50.2198 57.1002 50.0166Z" fill="white"/>
<path d="M40.5348 52.9679C40.5348 54.1091 40.7774 55.2105 41.2559 56.2415C41.3777 56.5039 41.5136 56.7582 41.6623 57.0042L41.8299 57.0747C42.5807 57.3901 43.3815 57.5491 44.1824 57.5491C44.7855 57.5491 45.3886 57.4589 45.97 57.2775L46.5794 57.0801C46.331 56.7757 46.1901 56.3948 46.1901 55.989C46.1901 55.5215 46.3795 55.0963 46.6877 54.7805L43.7257 50.3827H41.0962C40.7355 51.1742 40.5348 52.0487 40.5348 52.9679Z" fill="white"/>
<path d="M48.5244 46.5398C48.4934 46.5394 48.4623 46.539 48.4316 46.539H47.1792C45.3238 46.539 43.6439 47.2791 42.4373 48.4699L42.4156 48.653C42.2635 49.9368 42.5745 51.2461 43.2912 52.3399C44.0122 53.4402 45.1133 54.2732 46.3915 54.6855L46.6881 54.7811C47.0203 54.4407 47.4905 54.2276 48.0113 54.2276H48.4334C48.4639 54.2276 48.4943 54.2267 48.5247 54.2265L48.5244 46.5398Z" fill="white"/>
<path d="M43.2907 52.3393C44.0117 53.4396 45.1128 54.2726 46.391 54.6849L46.6877 54.7805C47.0199 54.4401 47.49 54.227 48.0108 54.227H48.4329C48.4634 54.227 48.4938 54.2261 48.5242 54.2259L48.5241 50.3827H42.4869C42.6263 51.0733 42.8972 51.7388 43.2907 52.3393Z" fill="white"/>
<path d="M57.1002 50.0166C56.1384 49.0852 54.7088 48.2114 53.075 47.5562C51.478 46.9158 49.8666 46.5569 48.5241 46.5409L48.3538 46.7378C46.5242 48.8525 46.5256 51.9213 48.3571 54.0347L48.5244 54.2277C50.1102 54.2165 51.6573 53.9134 53.1241 53.3251C54.6188 52.7255 55.9566 51.8599 57.1002 50.7524C57.3101 50.5491 57.3101 50.2198 57.1002 50.0166Z" fill="white"/>
<path d="M46.9825 50.3827C46.9826 51.6792 47.4408 52.9756 48.3571 54.0329L48.5242 54.2259C50.11 54.2147 51.6573 53.9116 53.1241 53.3233C54.6188 52.7237 55.9566 51.8581 57.1002 50.7506C57.2051 50.649 57.2576 50.5159 57.2576 50.3827H46.9825Z" fill="white"/>
<path d="M50.9237 51.2024C51.3857 51.2024 51.7602 50.8362 51.7602 50.3844C51.7602 49.9326 51.3857 49.5663 50.9237 49.5663C50.4617 49.5663 50.0872 49.9326 50.0872 50.3844C50.0872 50.8362 50.4617 51.2024 50.9237 51.2024Z" fill="white"/>
<path d="M50.9237 51.2024C51.3857 51.2024 51.7602 50.8362 51.7602 50.3844H50.0872C50.0872 50.8362 50.4617 51.2024 50.9237 51.2024Z" fill="white"/>
<path d="M53.1703 59.8645C53.8558 59.1803 54.1622 58.3037 54.1778 58.2583C54.2629 58.0098 54.144 57.7388 53.9001 57.6255C53.8347 57.5951 52.2823 56.8872 50.9078 57.4381C50.2678 57.6947 49.7807 58.2183 49.4606 58.6616L47.1972 57.5664C46.9515 57.4475 46.7427 57.2809 46.58 57.0815L41.6629 57.0057C42.0763 57.6899 42.592 58.3093 43.2035 58.8538C44.0349 59.5941 44.9939 60.1528 46.0539 60.5145C46.935 60.8152 47.85 60.9666 48.7825 60.9666C48.9794 60.9666 49.1772 60.9594 49.3755 60.9459C49.6912 61.4108 50.2082 62.0104 50.9078 62.2908C51.2906 62.4442 51.6871 62.5001 52.0616 62.5C53.0316 62.5 53.853 62.1254 53.9001 62.1034C54.144 61.9901 54.2629 61.7191 54.1778 61.4706C54.1622 61.4252 53.8558 60.5487 53.1703 59.8645Z" fill="white"/>
<path d="M56.0486 51.2C55.5815 51.2 55.2029 50.8336 55.2029 50.3816C55.2029 49.9297 55.5815 49.5632 56.0486 49.5632C57.0003 49.5632 57.7746 48.814 57.7746 47.893C57.7746 45.2704 55.5697 43.1367 52.8595 43.1367H48.1504C47.6833 43.1367 47.3047 42.7703 47.3047 42.3184C47.3047 41.8664 47.6833 41.5 48.1504 41.5H52.8595C56.5024 41.5 59.466 44.3679 59.466 47.893C59.466 49.7165 57.933 51.2 56.0486 51.2Z" fill="#FFDECC"/>
<path d="M55.2041 50.3848C55.205 50.836 55.5832 51.2015 56.0497 51.2015C56.9085 51.2015 57.6937 50.8927 58.2946 50.3848H55.2041Z" fill="#FFCFB5"/>
<path d="M56.1378 53.6473C54.4228 53.6473 53.0036 52.3451 52.9066 50.6828C52.8804 50.2315 53.2371 49.8451 53.7034 49.8196C54.1701 49.7946 54.5691 50.1394 54.5954 50.5907C54.6417 51.3869 55.3193 52.0106 56.1377 52.0106C56.6048 52.0106 56.9834 52.377 56.9834 52.829C56.9834 53.2809 56.6048 53.6473 56.1378 53.6473Z" fill="#FFDECC"/>
<path d="M52.5365 55.9691C52.4094 55.9691 52.2804 55.9413 52.159 55.8825C50.7978 55.224 49.1552 53.7954 49.0055 51.9366C48.9693 51.486 49.3174 51.0922 49.783 51.0571C50.2478 51.0224 50.6555 51.3589 50.6919 51.8095C50.78 52.9056 51.9063 53.9304 52.9154 54.4186C53.3332 54.6207 53.5025 55.1123 53.2936 55.5166C53.1454 55.8033 52.8467 55.9691 52.5365 55.9691Z" fill="#FFDECC"/>
<path d="M48.9371 57.1334C48.8484 57.1334 48.7582 57.1198 48.6696 57.0912C47.6405 56.7593 46.7169 56.0831 46.0688 55.1873C45.4381 54.3154 45.0908 53.2723 45.0908 52.25C45.0908 51.7981 45.4695 51.4316 45.9365 51.4316C46.4036 51.4316 46.7822 51.7981 46.7822 52.25C46.7822 53.7027 47.8008 55.0858 49.2044 55.5384C49.6475 55.6814 49.8869 56.1449 49.7393 56.5736C49.6211 56.9165 49.2912 57.1334 48.9371 57.1334Z" fill="#FFDECC"/>
<path d="M46.6881 54.782L42.4374 48.4707C41.2615 49.6312 40.5352 51.2196 40.5352 52.9694C40.5352 54.1106 40.7778 55.212 41.2563 56.2429C41.3781 56.5054 41.514 56.7596 41.6627 57.0057L41.8303 57.0761C42.581 57.3916 43.3819 57.5505 44.1828 57.5505C44.7858 57.5505 45.3889 57.4604 45.9704 57.279L46.5798 57.0815C46.3314 56.7772 46.1905 56.3963 46.1905 55.9904C46.1905 55.523 46.38 55.0977 46.6881 54.782Z" fill="#FFDECC"/>
<path d="M57.1002 50.0167C56.1383 49.0852 54.7088 48.2115 53.0749 47.5563C51.4779 46.9159 49.8666 46.5569 48.524 46.541L48.3537 46.7379C46.5241 48.8526 46.5255 51.9214 48.357 54.0348L48.5243 54.2278C50.1101 54.2166 51.6572 53.9135 53.124 53.3251C54.6188 52.7256 55.9565 51.86 57.1002 50.7525C57.31 50.5492 57.31 50.2198 57.1002 50.0167Z" fill="#157DF5"/>
<path d="M40.5352 52.968C40.5352 54.1093 40.7778 55.2106 41.2563 56.2416C41.3781 56.5041 41.514 56.7583 41.6627 57.0043L41.8303 57.0748C42.581 57.3902 43.3819 57.5492 44.1828 57.5492C44.7858 57.5492 45.3889 57.459 45.9704 57.2777L46.5798 57.0802C46.3314 56.7759 46.1905 56.3949 46.1905 55.9891C46.1905 55.5216 46.3799 55.0964 46.688 54.7806L43.7261 50.3828H41.0966C40.7359 51.1743 40.5352 52.0488 40.5352 52.968Z" fill="#FFCFB5"/>
<path d="M48.5245 46.5398C48.4934 46.5394 48.4624 46.5391 48.4316 46.5391H47.1792C45.3238 46.5391 43.6439 47.2792 42.4374 48.47L42.4157 48.6531C42.2635 49.9368 42.5745 51.2462 43.2912 52.34C44.0122 53.4403 45.1133 54.2733 46.3916 54.6856L46.6881 54.7812C47.0203 54.4408 47.4905 54.2276 48.0114 54.2276H48.4335C48.4639 54.2276 48.4943 54.2268 48.5248 54.2266L48.5245 46.5398Z" fill="#F54B5E"/>
<path d="M43.2911 52.3395C44.0121 53.4397 45.1131 54.2728 46.3914 54.685L46.688 54.7807C47.0202 54.4402 47.4903 54.2271 48.0112 54.2271H48.4333C48.4638 54.2271 48.4942 54.2263 48.5246 54.226L48.5245 50.3828H42.4873C42.6267 51.0734 42.8976 51.7389 43.2911 52.3395Z" fill="#F3263D"/>
<path d="M57.1002 50.0167C56.1383 49.0852 54.7088 48.2115 53.0749 47.5563C51.4779 46.9159 49.8666 46.5569 48.524 46.541L48.3537 46.7379C46.5241 48.8526 46.5255 51.9214 48.357 54.0348L48.5243 54.2278C50.1101 54.2166 51.6572 53.9135 53.124 53.3251C54.6188 52.7256 55.9565 51.86 57.1002 50.7525C57.31 50.5492 57.31 50.2198 57.1002 50.0167Z" fill="#FFDECC"/>
<path d="M46.9824 50.3828C46.9825 51.6793 47.4407 52.9757 48.357 54.033L48.5243 54.226C50.1101 54.2148 51.6572 53.9117 53.124 53.3234C54.6188 52.7238 55.9565 51.8582 57.1002 50.7507C57.2051 50.6491 57.2575 50.516 57.2575 50.3828H46.9824Z" fill="#FFCFB5"/>
<path d="M50.9244 51.2025C51.3864 51.2025 51.7609 50.8363 51.7609 50.3845C51.7609 49.9327 51.3864 49.5664 50.9244 49.5664C50.4624 49.5664 50.0879 49.9327 50.0879 50.3845C50.0879 50.8363 50.4624 51.2025 50.9244 51.2025Z" fill="#282A52"/>
<path d="M50.9244 51.203C51.3864 51.203 51.7609 50.8367 51.7609 50.3849H50.0879C50.0879 50.8367 50.4624 51.203 50.9244 51.203Z" fill="#1E203E"/>
<path d="M53.1705 59.8666C53.856 59.1824 54.1625 58.3059 54.178 58.2605C54.2631 58.012 54.1442 57.741 53.9003 57.6276C53.8349 57.5972 52.2825 56.8893 50.908 57.4403C50.268 57.6968 49.7809 58.2205 49.4608 58.6637L47.1974 57.5686C46.9517 57.4497 46.7429 57.2831 46.5802 57.0837L41.6631 57.0078C42.0765 57.692 42.5922 58.3115 43.2037 58.8559C44.0351 59.5962 44.9941 60.155 46.0541 60.5167C46.9352 60.8174 47.8502 60.9687 48.7827 60.9687C48.9796 60.9687 49.1774 60.9616 49.3757 60.9481C49.6914 61.4129 50.2085 62.0125 50.908 62.2929C51.2908 62.4464 51.6873 62.5022 52.0618 62.5022C53.0318 62.5021 53.8532 62.1275 53.9003 62.1056C54.1442 61.9922 54.2631 61.7212 54.178 61.4727C54.1625 61.4274 53.856 60.5509 53.1705 59.8666Z" fill="#F54B5E"/>
<path d="M81 69C81 75.6274 75.6274 81 69 81C62.3726 81 57 75.6274 57 69C57 62.3726 62.3726 57 69 57C75.6274 57 81 62.3726 81 69Z" fill="#40D98D"/>
<path fill-rule="evenodd" clip-rule="evenodd" d="M84 69C84 77.2843 77.2843 84 69 84C60.7157 84 54 77.2843 54 69C54 60.7157 60.7157 54 69 54C77.2843 54 84 60.7157 84 69ZM69 81C75.6274 81 81 75.6274 81 69C81 62.3726 75.6274 57 69 57C62.3726 57 57 62.3726 57 69C57 75.6274 62.3726 81 69 81Z" fill="white"/>
<path d="M69 81C75.6274 81 81 75.6274 81 69C81 62.3726 75.6274 57 69 57V81Z" fill="#25BB71"/>
<path d="M74.0233 65.4393C73.4533 64.8692 72.529 64.8692 71.9589 65.4393L67.9388 69.4594L66.0428 67.5632C65.4727 66.9929 64.5484 66.9931 63.9783 67.5632C63.4083 68.1333 63.4083 69.0576 63.9783 69.6276L66.9066 72.556C67.1804 72.8298 67.5517 72.9836 67.9389 72.9836C68.3261 72.9836 68.6974 72.8298 68.9711 72.556L74.0234 67.5037C74.5935 66.9336 74.5935 66.0093 74.0233 65.4393Z" fill="white"/>
<path d="M71.959 65.4432L68.9961 68.4061V72.535L74.0234 67.5076C74.5935 66.9375 74.5935 66.0132 74.0234 65.4432C73.4534 64.8731 72.5291 64.8731 71.959 65.4432Z" fill="#F0F7FE"/>
<path d="M31.6892 130.828C30.7563 130.828 30 131.563 30 132.469V178.359C30 179.265 30.7563 179.999 31.6892 179.999H50L51.1262 155.209L50 130.828H31.6892Z" fill="#F0F7FE"/>
<path d="M68.3109 130.828H50V179.999H70V132.469C70.0001 131.563 69.2438 130.828 68.3109 130.828Z" fill="#E2EFFE"/>
<path d="M36.5283 164.035C36.5283 164.941 37.2846 165.676 38.2175 165.676H49.9997L51.126 163.996L49.9997 162.395H38.2175C37.2846 162.395 36.5283 163.129 36.5283 164.035Z" fill="#E2EFFE"/>
<path d="M61.7823 165.676C62.7152 165.676 63.4715 164.941 63.4715 164.035C63.4715 163.129 62.7152 162.395 61.7823 162.395H50V165.676H61.7823Z" fill="#B6D7FC"/>
<path d="M38.2175 169.078C37.2846 169.078 36.5283 169.813 36.5283 170.719C36.5283 171.625 37.2846 172.359 38.2175 172.359H49.9997L51.126 170.719L49.9997 169.078H38.2175Z" fill="#E2EFFE"/>
<path d="M61.7823 169.078H50V172.359H61.7822C62.7151 172.359 63.4714 171.625 63.4714 170.719C63.4714 169.813 62.7152 169.078 61.7823 169.078Z" fill="#B6D7FC"/>
<path d="M50.0005 124C47.4625 124 45.193 125.347 44.022 127.453H40.7156C39.7827 127.453 39.0264 128.187 39.0264 129.093V133.734C39.0264 134.64 39.7827 135.374 40.7156 135.374H50.0006L51.1268 131.488L50.0005 124Z" fill="#323567"/>
<path d="M59.285 127.453H55.9786C54.8076 125.347 52.5381 124 50 124V135.374H59.285C60.2179 135.374 60.9742 134.64 60.9742 133.734V129.093C60.9742 128.187 60.2179 127.453 59.285 127.453Z" fill="#282A52"/>
<path d="M56.0477 147.2C55.5807 147.2 55.202 146.834 55.202 146.382C55.202 145.93 55.5807 145.563 56.0477 145.563C56.9995 145.563 57.7738 144.814 57.7738 143.893C57.7738 141.27 55.5689 139.137 52.8587 139.137H48.1496C47.6825 139.137 47.3039 138.77 47.3039 138.318C47.3039 137.866 47.6825 137.5 48.1496 137.5H52.8587C56.5015 137.5 59.4652 140.368 59.4652 143.893C59.4652 145.716 57.9321 147.2 56.0477 147.2Z" fill="white"/>
<path d="M55.203 146.385C55.2039 146.836 55.5821 147.201 56.0486 147.201C56.9074 147.201 57.6926 146.893 58.2935 146.385H55.203Z" fill="white"/>
<path d="M56.1373 149.647C54.4223 149.647 53.0031 148.345 52.9061 146.683C52.8799 146.231 53.2366 145.845 53.7029 145.82C54.1696 145.794 54.5686 146.139 54.5949 146.591C54.6412 147.387 55.3188 148.01 56.1372 148.01C56.6043 148.01 56.9829 148.377 56.9829 148.829C56.9829 149.281 56.6043 149.647 56.1373 149.647Z" fill="white"/>
<path d="M52.5357 151.969C52.4086 151.969 52.2795 151.941 52.1581 151.882C50.797 151.224 49.1544 149.795 49.0047 147.936C48.9684 147.486 49.3165 147.092 49.7822 147.057C50.247 147.022 50.6547 147.359 50.691 147.809C50.7792 148.906 51.9054 149.93 52.9145 150.418C53.3323 150.621 53.5016 151.112 53.2927 151.516C53.1446 151.803 52.8459 151.969 52.5357 151.969Z" fill="white"/>
<path d="M52.5357 151.969C52.4086 151.969 52.2795 151.941 52.1581 151.882C50.797 151.224 49.1544 149.795 49.0047 147.936C48.9684 147.486 49.3165 147.092 49.7822 147.057C50.247 147.022 50.6547 147.359 50.691 147.809C50.7792 148.906 51.9054 149.93 52.9145 150.418C53.3323 150.621 53.5016 151.112 53.2927 151.516C53.1446 151.803 52.8459 151.969 52.5357 151.969Z" fill="white"/>
<path fill-rule="evenodd" clip-rule="evenodd" d="M39 148.971C39 150.324 39.2887 151.637 39.8583 152.864C40.0034 153.177 40.1648 153.479 40.3408 153.77L40.5956 154.192L40.6201 154.202C41.0588 154.846 41.5774 155.435 42.17 155.963C43.154 156.839 44.2924 157.502 45.548 157.931C46.5462 158.271 47.583 158.45 48.6375 158.466C49.044 158.914 49.603 159.389 50.3254 159.679C50.9321 159.922 51.5344 160 52.0618 160C53.3756 160 54.4458 159.511 54.5596 159.458C55.4966 159.022 55.9674 157.97 55.6335 156.995L55.6333 156.994C55.6117 156.931 55.4449 156.448 55.087 155.864C55.4449 155.281 55.6118 154.798 55.6334 154.735L55.6335 154.734C55.9673 153.759 55.4961 152.706 54.5592 152.271C54.4655 152.227 53.9688 152.004 53.2736 151.859C53.1339 151.829 52.9802 151.802 52.8152 151.78C52.7808 151.544 52.7238 151.313 52.646 151.09C52.8983 151.012 53.1487 150.926 53.3971 150.833C53.5008 150.794 53.6041 150.754 53.7069 150.713C53.7818 150.683 53.8564 150.652 53.9306 150.621C54.5926 150.958 55.3441 151.147 56.1373 151.147C57.4378 151.147 58.5178 150.123 58.5178 148.829C58.5178 148.581 58.4781 148.343 58.4047 148.12C59.9447 147.308 61 145.725 61 143.893C61 139.526 57.3349 136 52.8586 136H48.1495C46.8491 136 45.769 137.024 45.769 138.318C45.769 139.613 46.8491 140.637 48.1495 140.637H52.8586C54.575 140.637 55.979 141.871 56.2066 143.444C55.4285 142.963 54.5652 142.532 53.6577 142.169C52.4621 141.689 51.2295 141.342 50.0594 141.168L48.5407 141.04L48.4969 141.039C48.4766 141.039 48.4543 141.039 48.4317 141.039H47.1793C44.8983 141.039 42.8303 141.95 41.3468 143.414L40.9839 143.773L40.9797 143.804C39.7497 145.189 39 146.996 39 148.971Z" fill="white"/>
<path fill-rule="evenodd" clip-rule="evenodd" d="M47.4746 148.054C47.3708 146.763 48.3665 145.659 49.6643 145.561L49.6654 145.561C50.9575 145.465 52.1172 146.4 52.2212 147.692C52.2291 147.79 52.3054 148.021 52.5979 148.338C52.8779 148.642 53.2523 148.908 53.5956 149.074C54.7696 149.642 55.2599 151.037 54.6629 152.193C54.2412 153.009 53.3968 153.469 52.5358 153.469C52.1784 153.469 51.8157 153.39 51.4773 153.227M49.7822 147.057C50.247 147.022 50.6547 147.359 50.691 147.809C50.7792 148.906 51.9054 149.93 52.9145 150.418C53.3323 150.621 53.5016 151.112 53.2927 151.516C53.1446 151.803 52.8459 151.969 52.5357 151.969C52.4086 151.969 52.2795 151.941 52.1581 151.882C50.797 151.224 49.1544 149.795 49.0047 147.936C48.9684 147.486 49.3165 147.092 49.7822 147.057ZM47.4746 148.054C47.6868 150.689 49.917 152.472 51.4773 153.227L47.4746 148.054Z" fill="white"/>
<path d="M48.9367 153.133C48.8481 153.133 48.7579 153.12 48.6692 153.091C47.6402 152.759 46.7166 152.083 46.0685 151.187C45.4378 150.315 45.0905 149.272 45.0905 148.25C45.0905 147.798 45.4691 147.431 45.9362 147.431C46.4032 147.431 46.7819 147.798 46.7819 148.25C46.7819 149.703 47.8005 151.086 49.204 151.538C49.6471 151.681 49.8866 152.145 49.7389 152.573C49.6208 152.916 49.2909 153.133 48.9367 153.133Z" fill="white"/>
<path d="M46.6877 150.784L42.437 144.473C41.2611 145.633 40.5348 147.221 40.5348 148.971C40.5348 150.112 40.7774 151.214 41.2559 152.245C41.3777 152.507 41.5136 152.761 41.6623 153.008L41.8299 153.078C42.5807 153.393 43.3815 153.552 44.1824 153.552C44.7855 153.552 45.3886 153.462 45.97 153.281L46.5794 153.083C46.331 152.779 46.1901 152.398 46.1901 151.992C46.1901 151.525 46.3796 151.1 46.6877 150.784Z" fill="white"/>
<path d="M57.1002 146.017C56.1384 145.085 54.7088 144.211 53.075 143.556C51.478 142.916 49.8666 142.557 48.5241 142.541L48.3538 142.738C46.5242 144.853 46.5256 147.921 48.3571 150.035L48.5244 150.228C50.1102 150.216 51.6573 149.913 53.1241 149.325C54.6188 148.725 55.9566 147.86 57.1002 146.752C57.3101 146.549 57.3101 146.22 57.1002 146.017Z" fill="white"/>
<path d="M40.5348 148.968C40.5348 150.109 40.7774 151.211 41.2559 152.241C41.3777 152.504 41.5136 152.758 41.6623 153.004L41.8299 153.075C42.5807 153.39 43.3815 153.549 44.1824 153.549C44.7855 153.549 45.3886 153.459 45.97 153.278L46.5794 153.08C46.331 152.776 46.1901 152.395 46.1901 151.989C46.1901 151.521 46.3795 151.096 46.6877 150.781L43.7257 146.383H41.0962C40.7355 147.174 40.5348 148.049 40.5348 148.968Z" fill="white"/>
<path d="M48.5244 142.54C48.4934 142.539 48.4623 142.539 48.4316 142.539H47.1792C45.3238 142.539 43.6439 143.279 42.4373 144.47L42.4156 144.653C42.2635 145.937 42.5745 147.246 43.2912 148.34C44.0122 149.44 45.1133 150.273 46.3915 150.685L46.6881 150.781C47.0203 150.441 47.4905 150.228 48.0113 150.228H48.4334C48.4639 150.228 48.4943 150.227 48.5247 150.226L48.5244 142.54Z" fill="white"/>
<path d="M43.2907 148.339C44.0117 149.44 45.1128 150.273 46.391 150.685L46.6877 150.781C47.0199 150.44 47.49 150.227 48.0108 150.227H48.4329C48.4634 150.227 48.4938 150.226 48.5242 150.226L48.5241 146.383H42.4869C42.6263 147.073 42.8972 147.739 43.2907 148.339Z" fill="white"/>
<path d="M57.1002 146.017C56.1384 145.085 54.7088 144.211 53.075 143.556C51.478 142.916 49.8666 142.557 48.5241 142.541L48.3538 142.738C46.5242 144.853 46.5256 147.921 48.3571 150.035L48.5244 150.228C50.1102 150.216 51.6573 149.913 53.1241 149.325C54.6188 148.725 55.9566 147.86 57.1002 146.752C57.3101 146.549 57.3101 146.22 57.1002 146.017Z" fill="white"/>
<path d="M46.9825 146.383C46.9826 147.679 47.4408 148.976 48.3571 150.033L48.5242 150.226C50.11 150.215 51.6573 149.912 53.1241 149.323C54.6188 148.724 55.9566 147.858 57.1002 146.751C57.2051 146.649 57.2576 146.516 57.2576 146.383H46.9825Z" fill="white"/>
<path d="M50.9237 147.202C51.3857 147.202 51.7602 146.836 51.7602 146.384C51.7602 145.933 51.3857 145.566 50.9237 145.566C50.4617 145.566 50.0872 145.933 50.0872 146.384C50.0872 146.836 50.4617 147.202 50.9237 147.202Z" fill="white"/>
<path d="M50.9237 147.202C51.3857 147.202 51.7602 146.836 51.7602 146.384H50.0872C50.0872 146.836 50.4617 147.202 50.9237 147.202Z" fill="white"/>
<path d="M53.1703 155.864C53.8558 155.18 54.1622 154.304 54.1778 154.258C54.2629 154.01 54.144 153.739 53.9001 153.625C53.8347 153.595 52.2823 152.887 50.9078 153.438C50.2678 153.695 49.7807 154.218 49.4606 154.662L47.1972 153.566C46.9515 153.448 46.7427 153.281 46.58 153.082L41.6629 153.006C42.0763 153.69 42.592 154.309 43.2035 154.854C44.0349 155.594 44.9939 156.153 46.0539 156.515C46.935 156.815 47.85 156.967 48.7825 156.967C48.9794 156.967 49.1772 156.959 49.3755 156.946C49.6912 157.411 50.2082 158.01 50.9078 158.291C51.2906 158.444 51.6871 158.5 52.0616 158.5C53.0316 158.5 53.853 158.125 53.9001 158.103C54.144 157.99 54.2629 157.719 54.1778 157.471C54.1622 157.425 53.8558 156.549 53.1703 155.864Z" fill="white"/>
<path d="M56.0486 147.2C55.5815 147.2 55.2029 146.834 55.2029 146.382C55.2029 145.93 55.5815 145.563 56.0486 145.563C57.0003 145.563 57.7746 144.814 57.7746 143.893C57.7746 141.27 55.5697 139.137 52.8595 139.137H48.1504C47.6833 139.137 47.3047 138.77 47.3047 138.318C47.3047 137.866 47.6833 137.5 48.1504 137.5H52.8595C56.5024 137.5 59.466 140.368 59.466 143.893C59.466 145.717 57.933 147.2 56.0486 147.2Z" fill="#FFDECC"/>
<path d="M55.2041 146.385C55.205 146.836 55.5832 147.201 56.0497 147.201C56.9085 147.201 57.6937 146.893 58.2946 146.385H55.2041Z" fill="#FFCFB5"/>
<path d="M56.1378 149.647C54.4228 149.647 53.0036 148.345 52.9066 146.683C52.8804 146.232 53.2371 145.845 53.7034 145.82C54.1701 145.795 54.5691 146.139 54.5954 146.591C54.6417 147.387 55.3193 148.011 56.1377 148.011C56.6048 148.011 56.9834 148.377 56.9834 148.829C56.9834 149.281 56.6048 149.647 56.1378 149.647Z" fill="#FFDECC"/>
<path d="M52.5365 151.969C52.4094 151.969 52.2804 151.941 52.159 151.883C50.7978 151.224 49.1552 149.795 49.0055 147.937C48.9693 147.486 49.3174 147.092 49.783 147.057C50.2478 147.022 50.6555 147.359 50.6919 147.81C50.78 148.906 51.9063 149.93 52.9154 150.419C53.3332 150.621 53.5025 151.112 53.2936 151.517C53.1454 151.803 52.8467 151.969 52.5365 151.969Z" fill="#FFDECC"/>
<path d="M48.9371 153.133C48.8484 153.133 48.7582 153.12 48.6696 153.091C47.6405 152.759 46.7169 152.083 46.0688 151.187C45.4381 150.315 45.0908 149.272 45.0908 148.25C45.0908 147.798 45.4695 147.432 45.9365 147.432C46.4036 147.432 46.7822 147.798 46.7822 148.25C46.7822 149.703 47.8008 151.086 49.2044 151.538C49.6475 151.681 49.8869 152.145 49.7393 152.574C49.6211 152.916 49.2912 153.133 48.9371 153.133Z" fill="#FFDECC"/>
<path d="M46.6881 150.782L42.4374 144.471C41.2615 145.631 40.5352 147.22 40.5352 148.969C40.5352 150.111 40.7778 151.212 41.2563 152.243C41.3781 152.505 41.514 152.76 41.6627 153.006L41.8303 153.076C42.581 153.392 43.3819 153.551 44.1828 153.551C44.7858 153.551 45.3889 153.46 45.9704 153.279L46.5798 153.082C46.3314 152.777 46.1905 152.396 46.1905 151.99C46.1905 151.523 46.38 151.098 46.6881 150.782Z" fill="#FFDECC"/>
<path d="M57.1002 146.017C56.1383 145.085 54.7088 144.211 53.0749 143.556C51.4779 142.916 49.8666 142.557 48.524 142.541L48.3537 142.738C46.5241 144.853 46.5255 147.921 48.357 150.035L48.5243 150.228C50.1101 150.217 51.6572 149.913 53.124 149.325C54.6188 148.726 55.9565 147.86 57.1002 146.752C57.31 146.549 57.31 146.22 57.1002 146.017Z" fill="#157DF5"/>
<path d="M40.5352 148.968C40.5352 150.109 40.7778 151.211 41.2563 152.242C41.3781 152.504 41.514 152.758 41.6627 153.004L41.8303 153.075C42.581 153.39 43.3819 153.549 44.1828 153.549C44.7858 153.549 45.3889 153.459 45.9704 153.278L46.5798 153.08C46.3314 152.776 46.1905 152.395 46.1905 151.989C46.1905 151.522 46.3799 151.096 46.688 150.781L43.7261 146.383H41.0966C40.7359 147.174 40.5352 148.049 40.5352 148.968Z" fill="#FFCFB5"/>
<path d="M48.5245 142.54C48.4934 142.539 48.4624 142.539 48.4316 142.539H47.1792C45.3238 142.539 43.6439 143.279 42.4374 144.47L42.4157 144.653C42.2635 145.937 42.5745 147.246 43.2912 148.34C44.0122 149.44 45.1133 150.273 46.3916 150.686L46.6881 150.781C47.0203 150.441 47.4905 150.228 48.0114 150.228H48.4335C48.4639 150.228 48.4943 150.227 48.5248 150.227L48.5245 142.54Z" fill="#F54B5E"/>
<path d="M43.2911 148.339C44.0121 149.44 45.1131 150.273 46.3914 150.685L46.688 150.781C47.0202 150.44 47.4903 150.227 48.0112 150.227H48.4333C48.4638 150.227 48.4942 150.226 48.5246 150.226L48.5245 146.383H42.4873C42.6267 147.073 42.8976 147.739 43.2911 148.339Z" fill="#F3263D"/>
<path d="M57.1002 146.017C56.1383 145.085 54.7088 144.211 53.0749 143.556C51.4779 142.916 49.8666 142.557 48.524 142.541L48.3537 142.738C46.5241 144.853 46.5255 147.921 48.357 150.035L48.5243 150.228C50.1101 150.217 51.6572 149.913 53.124 149.325C54.6188 148.726 55.9565 147.86 57.1002 146.752C57.31 146.549 57.31 146.22 57.1002 146.017Z" fill="#FFDECC"/>
<path d="M46.9824 146.383C46.9825 147.679 47.4407 148.976 48.357 150.033L48.5243 150.226C50.1101 150.215 51.6572 149.912 53.124 149.323C54.6188 148.724 55.9565 147.858 57.1002 146.751C57.2051 146.649 57.2575 146.516 57.2575 146.383H46.9824Z" fill="#FFCFB5"/>
<path d="M50.9244 147.203C51.3864 147.203 51.7609 146.836 51.7609 146.384C51.7609 145.933 51.3864 145.566 50.9244 145.566C50.4624 145.566 50.0879 145.933 50.0879 146.384C50.0879 146.836 50.4624 147.203 50.9244 147.203Z" fill="#282A52"/>
<path d="M50.9244 147.203C51.3864 147.203 51.7609 146.837 51.7609 146.385H50.0879C50.0879 146.837 50.4624 147.203 50.9244 147.203Z" fill="#1E203E"/>
<path d="M53.1705 155.867C53.856 155.182 54.1625 154.306 54.178 154.26C54.2631 154.012 54.1442 153.741 53.9003 153.628C53.8349 153.597 52.2825 152.889 50.908 153.44C50.268 153.697 49.7809 154.22 49.4608 154.664L47.1974 153.569C46.9517 153.45 46.7429 153.283 46.5802 153.084L41.6631 153.008C42.0765 153.692 42.5922 154.311 43.2037 154.856C44.0351 155.596 44.9941 156.155 46.0541 156.517C46.9352 156.817 47.8502 156.969 48.7827 156.969C48.9796 156.969 49.1774 156.962 49.3757 156.948C49.6914 157.413 50.2085 158.013 50.908 158.293C51.2908 158.446 51.6873 158.502 52.0618 158.502C53.0318 158.502 53.8532 158.128 53.9003 158.106C54.1442 157.992 54.2631 157.721 54.178 157.473C54.1625 157.427 53.856 156.551 53.1705 155.867Z" fill="#F54B5E"/>
<path d="M81 165C81 171.627 75.6274 177 69 177C62.3726 177 57 171.627 57 165C57 158.373 62.3726 153 69 153C75.6274 153 81 158.373 81 165Z" fill="#40D98D"/>
<path fill-rule="evenodd" clip-rule="evenodd" d="M84 165C84 173.284 77.2843 180 69 180C60.7157 180 54 173.284 54 165C54 156.716 60.7157 150 69 150C77.2843 150 84 156.716 84 165ZM69 177C75.6274 177 81 171.627 81 165C81 158.373 75.6274 153 69 153C62.3726 153 57 158.373 57 165C57 171.627 62.3726 177 69 177Z" fill="white"/>
<path d="M69 177C75.6274 177 81 171.627 81 165C81 158.373 75.6274 153 69 153V177Z" fill="#25BB71"/>
<path d="M74.0233 161.439C73.4533 160.869 72.529 160.869 71.9589 161.439L67.9388 165.459L66.0428 163.563C65.4727 162.993 64.5484 162.993 63.9783 163.563C63.4083 164.133 63.4083 165.058 63.9783 165.628L66.9066 168.556C67.1804 168.83 67.5517 168.984 67.9389 168.984C68.3261 168.984 68.6974 168.83 68.9711 168.556L74.0234 163.504C74.5935 162.934 74.5935 162.009 74.0233 161.439Z" fill="white"/>
<path d="M71.959 161.443L68.9961 164.406V168.535L74.0234 163.508C74.5935 162.938 74.5935 162.013 74.0234 161.443C73.4534 160.873 72.5291 160.873 71.959 161.443Z" fill="#F0F7FE"/>
<defs>
<filter id="filter0_dd_48047_11362" x="6" y="9" width="100" height="100" filterUnits="userSpaceOnUse" color-interpolation-filters="sRGB">
<feFlood flood-opacity="0" result="BackgroundImageFix"/>
<feColorMatrix in="SourceAlpha" type="matrix" values="0 0 0 0 0 0 0 0 0 0 0 0 0 0 0 0 0 0 127 0" result="hardAlpha"/>
<feOffset dy="3"/>
<feGaussianBlur stdDeviation="5"/>
<feColorMatrix type="matrix" values="0 0 0 0 0.516667 0 0 0 0 0.578358 0 0 0 0 0.775 0 0 0 0.12 0"/>
<feBlend mode="normal" in2="BackgroundImageFix" result="effect1_dropShadow_48047_11362"/>
<feColorMatrix in="SourceAlpha" type="matrix" values="0 0 0 0 0 0 0 0 0 0 0 0 0 0 0 0 0 0 127 0" result="hardAlpha"/>
<feOffset dy="1"/>
<feGaussianBlur stdDeviation="3"/>
<feColorMatrix type="matrix" values="0 0 0 0 0.709809 0 0 0 0 0.788943 0 0 0 0 0.920833 0 0 0 0.15 0"/>
<feBlend mode="normal" in2="effect1_dropShadow_48047_11362" result="effect2_dropShadow_48047_11362"/>
<feBlend mode="normal" in="SourceGraphic" in2="effect2_dropShadow_48047_11362" result="shape"/>
</filter>
</defs>
</svg>
