<svg width="112" height="208" viewBox="0 0 112 208" fill="none" xmlns="http://www.w3.org/2000/svg">
<rect x="0.5" y="0.5" width="111" height="207" rx="4.5" stroke="#9747FF" stroke-dasharray="10 5"/>
<g filter="url(#filter0_dd_58767_11280)">
<rect x="16" y="16" width="80" height="80" rx="8" fill="white"/>
</g>
<path d="M75.2048 31.1767C74.918 30.9451 74.5843 30.7737 74.2249 30.6734C73.8655 30.5731 73.4883 30.5462 73.1175 30.5944C72.7467 30.6426 72.3904 30.7647 72.0713 30.9531C71.7523 31.1415 71.4775 31.392 71.2645 31.6885L71.1984 31.7801L71.2885 30.8332C71.3231 30.4739 71.2795 30.1116 71.1605 29.7695C71.0415 29.4274 70.8498 29.113 70.5976 28.8464C70.3454 28.5797 70.0383 28.3667 69.6959 28.221C69.3535 28.0753 68.9833 28 68.6089 28C68.2346 28 67.8644 28.0753 67.522 28.221C67.1795 28.3667 66.8724 28.5797 66.6202 28.8464C66.368 29.113 66.1763 29.4274 66.0574 29.7695C65.9384 30.1116 65.8948 30.4739 65.9293 30.8332L66.0195 31.7801L65.9539 31.6885C65.7407 31.3924 65.4658 31.1423 65.1468 30.9543C64.8278 30.7662 64.4716 30.6443 64.101 30.5964C63.7303 30.5484 63.3534 30.5754 62.9942 30.6757C62.635 30.776 62.3015 30.9473 62.0148 31.1787C61.7281 31.4102 61.4946 31.6967 61.3293 32.02C61.1639 32.3433 61.0702 32.6962 61.0542 33.0563C61.0382 33.4164 61.1003 33.7758 61.2364 34.1115C61.3726 34.4472 61.5798 34.7519 61.8449 35.0061L67.0638 40L68.6071 38.7517L70.1514 39.999L75.3708 35.0051C75.6363 34.7511 75.844 34.4466 75.9805 34.1109C76.1171 33.7753 76.1796 33.4159 76.1639 33.0556C76.1483 32.6954 76.055 32.3423 75.8898 32.0188C75.7247 31.6953 75.4914 31.4085 75.2048 31.1767Z" fill="#F3263D"/>
<path d="M74.4599 41.3945C75.2705 43.6415 79.2206 44.2526 78.575 46.67C77.9518 49.0054 74.7231 49.4875 72.4121 48.0807L74.4599 41.3945Z" fill="#F3263D"/>
<path d="M78.1816 41.0019C78.1816 41.0019 77.2707 44.5253 73.1441 46.0006L73.1435 41.0008L78.1816 41.0019Z" fill="#FED601"/>
<path d="M73.1437 36C73.9648 36.0002 74.6699 36.4882 74.9838 37.1875C76.5022 37.3842 78.8153 38.159 79.9649 40.9492C80.0933 41.2611 79.8518 41.5907 79.5123 41.5908H73.5245V39.9619C73.4011 39.9854 73.274 40 73.1437 40C72.0307 40 71.1274 39.1046 71.1274 38C71.1274 36.8954 72.0307 36 73.1437 36Z" fill="#FEE048"/>
<path d="M61.8856 81.0692H60.9087L59.7624 73.7969L56.8797 74.2551L57.9569 81.0936C57.2509 81.1818 56.6013 81.5259 56.1301 82.0611C55.6589 82.5962 55.3987 83.2858 55.3982 84H64.8048C64.8048 83.2227 64.4972 82.4773 63.9498 81.9276C63.4023 81.378 62.6598 81.0692 61.8856 81.0692Z" fill="#FED601"/>
<path d="M58.4703 81.0692H57.4934L56.3471 73.7969L53.4644 74.2551L54.5416 81.0936C53.8356 81.1818 53.186 81.5259 52.7148 82.0611C52.2437 82.5962 51.9834 83.2858 51.9829 84H61.3895C61.3895 83.2227 61.082 82.4773 60.5345 81.9276C59.9871 81.378 59.2445 81.0692 58.4703 81.0692Z" fill="#FEE87B"/>
<path d="M55.9136 76.3573C67.0975 76.3573 74.151 74.5005 77.1739 68.0005C80.1968 61.5005 78.6853 57.0005 74.7667 50.4781C75.2533 41.8078 75.6756 34.8091 68.8033 34.8091C66.378 34.8091 62.0823 35.0477 61.5145 47.341C61.1905 53.5832 61.3365 49.3263 57.525 49.0005C57.525 49.0005 52.761 40.5719 34.6387 39.6875C34.3447 39.6732 34.0943 39.9145 34.112 40.206C34.3823 44.6617 35.5919 46.353 36.233 46.9447C36.3135 47.0191 36.2447 47.2343 36.1348 47.2343H32.4854C32.1546 47.2343 31.9185 47.5417 32.0265 47.8521C32.5261 49.2873 34.0174 52.815 36.9279 54.0012C37.0399 54.0469 37.0055 54.2839 36.8844 54.2839H32.526C32.2217 54.2839 31.9855 54.55 32.051 54.8449C32.2775 55.8652 32.7467 56.8185 33.4219 57.6216C34.2041 58.5519 35.2305 59.2425 36.3839 59.6153C36.4248 59.6285 36.453 59.6594 36.4551 59.702C36.5123 60.8334 37.6303 76.3573 55.9136 76.3573Z" fill="#B6D7FC"/>
<path d="M73.1432 61.0411C73.1432 70.643 55.6511 71.8898 48.6291 67.7699C44.4914 65.3423 42.7379 62.378 42.1377 61.1046C41.9931 60.7978 42.224 60.4742 42.5653 60.4742H49.5816C49.7029 60.4742 49.7258 60.2787 49.6088 60.2471C47.7764 59.7516 46.0387 58.9335 44.4737 57.8266C42.8798 56.6993 41.4939 55.2929 40.378 53.6738C40.156 53.3517 40.3952 52.9261 40.7883 52.9261H48.0822C48.196 52.9261 48.2263 52.758 48.1211 52.7151C46.7785 52.167 45.5582 51.3392 44.5382 50.2813C43.5383 49.2441 42.7551 48.011 42.2337 46.6578C42.1101 46.3371 42.3685 46.0064 42.7143 46.0182C61.975 46.6788 73.1432 50.6939 73.1432 61.0411Z" fill="#E2EFFE"/>
<path d="M57.4934 81.0693H58.4705C59.2446 81.0694 59.9866 81.3783 60.534 81.9277C61.0815 82.4774 61.3891 83.2227 61.3891 84H56.0134V73.8496L56.347 73.7969L57.4934 81.0693Z" fill="#FEE048"/>
<path d="M68.8027 34.8086C75.675 34.8086 75.2534 41.8072 74.7669 50.4775C78.6854 56.9999 80.1967 61.5 77.1738 68C74.1599 74.4806 67.1394 76.3444 56.0134 76.3555V57.6318C59.462 57.5113 61.2059 53.2772 61.5141 47.3408C62.0818 35.0483 66.3773 34.8086 68.8027 34.8086Z" fill="#9DC9FB"/>
<path d="M70.6242 40C71.459 40 72.1357 39.3284 72.1357 38.5C72.1357 37.6716 71.459 37 70.6242 37C69.7895 37 69.1128 37.6716 69.1128 38.5C69.1128 39.3284 69.7895 40 70.6242 40Z" fill="#1E203E"/>
<path d="M56.0134 47.2656C67.0167 49.1919 73.1432 53.3822 73.1432 61.0459C73.1431 68.0681 63.7872 70.6195 56.0134 69.873V47.2656Z" fill="#B6D7FC"/>
<path d="M75.2048 127.177C74.918 126.945 74.5843 126.774 74.2249 126.673C73.8655 126.573 73.4883 126.546 73.1175 126.594C72.7467 126.643 72.3904 126.765 72.0713 126.953C71.7523 127.142 71.4775 127.392 71.2645 127.689L71.1984 127.78L71.2885 126.833C71.3231 126.474 71.2795 126.112 71.1605 125.77C71.0415 125.427 70.8498 125.113 70.5976 124.846C70.3454 124.58 70.0383 124.367 69.6959 124.221C69.3535 124.075 68.9833 124 68.6089 124C68.2346 124 67.8644 124.075 67.522 124.221C67.1795 124.367 66.8724 124.58 66.6202 124.846C66.368 125.113 66.1763 125.427 66.0574 125.77C65.9384 126.112 65.8948 126.474 65.9293 126.833L66.0195 127.78L65.9539 127.689C65.7407 127.392 65.4658 127.142 65.1468 126.954C64.8278 126.766 64.4716 126.644 64.101 126.596C63.7303 126.548 63.3534 126.575 62.9942 126.676C62.635 126.776 62.3015 126.947 62.0148 127.179C61.7281 127.41 61.4946 127.697 61.3293 128.02C61.1639 128.343 61.0702 128.696 61.0542 129.056C61.0382 129.416 61.1003 129.776 61.2364 130.112C61.3726 130.447 61.5798 130.752 61.8449 131.006L67.0638 136L68.6071 134.752L70.1514 135.999L75.3708 131.005C75.6363 130.751 75.844 130.447 75.9805 130.111C76.1171 129.775 76.1796 129.416 76.1639 129.056C76.1483 128.695 76.055 128.342 75.8898 128.019C75.7247 127.695 75.4914 127.408 75.2048 127.177Z" fill="#F3263D"/>
<path d="M74.4599 137.395C75.2705 139.641 79.2206 140.253 78.575 142.67C77.9518 145.005 74.7231 145.487 72.4121 144.081L74.4599 137.395Z" fill="#F3263D"/>
<path d="M78.1816 137.002C78.1816 137.002 77.2707 140.525 73.1441 142.001L73.1435 137.001L78.1816 137.002Z" fill="#FED601"/>
<path d="M73.1437 132C73.9648 132 74.6699 132.488 74.9838 133.188C76.5022 133.384 78.8153 134.159 79.9649 136.949C80.0933 137.261 79.8518 137.591 79.5123 137.591H73.5245V135.962C73.4011 135.985 73.274 136 73.1437 136C72.0307 136 71.1274 135.105 71.1274 134C71.1274 132.895 72.0307 132 73.1437 132Z" fill="#FEE048"/>
<path d="M61.8856 177.069H60.9087L59.7624 169.797L56.8797 170.255L57.9569 177.094C57.2509 177.182 56.6013 177.526 56.1301 178.061C55.6589 178.596 55.3987 179.286 55.3982 180H64.8048C64.8048 179.223 64.4972 178.477 63.9498 177.928C63.4023 177.378 62.6598 177.069 61.8856 177.069Z" fill="#FED601"/>
<path d="M58.4703 177.069H57.4934L56.3471 169.797L53.4644 170.255L54.5416 177.094C53.8356 177.182 53.186 177.526 52.7148 178.061C52.2437 178.596 51.9834 179.286 51.9829 180H61.3895C61.3895 179.223 61.082 178.477 60.5345 177.928C59.9871 177.378 59.2445 177.069 58.4703 177.069Z" fill="#FEE87B"/>
<path d="M55.9136 172.357C67.0975 172.357 74.151 170.5 77.1739 164C80.1968 157.5 78.6853 153 74.7667 146.478C75.2533 137.808 75.6756 130.809 68.8033 130.809C66.378 130.809 62.0823 131.048 61.5145 143.341C61.1905 149.583 61.3365 145.326 57.525 145C57.525 145 52.761 136.572 34.6387 135.688C34.3447 135.673 34.0943 135.914 34.112 136.206C34.3823 140.662 35.5919 142.353 36.233 142.945C36.3135 143.019 36.2447 143.234 36.1348 143.234H32.4854C32.1546 143.234 31.9185 143.542 32.0265 143.852C32.5261 145.287 34.0174 148.815 36.9279 150.001C37.0399 150.047 37.0055 150.284 36.8844 150.284H32.526C32.2217 150.284 31.9855 150.55 32.051 150.845C32.2775 151.865 32.7467 152.818 33.4219 153.622C34.2041 154.552 35.2305 155.243 36.3839 155.615C36.4248 155.629 36.453 155.659 36.4551 155.702C36.5123 156.833 37.6303 172.357 55.9136 172.357Z" fill="#B6D7FC"/>
<path d="M73.1432 157.041C73.1432 166.643 55.6511 167.89 48.6291 163.77C44.4914 161.342 42.7379 158.378 42.1377 157.105C41.9931 156.798 42.224 156.474 42.5653 156.474H49.5816C49.7029 156.474 49.7258 156.279 49.6088 156.247C47.7764 155.752 46.0387 154.933 44.4737 153.827C42.8798 152.699 41.4939 151.293 40.378 149.674C40.156 149.352 40.3952 148.926 40.7883 148.926H48.0822C48.196 148.926 48.2263 148.758 48.1211 148.715C46.7785 148.167 45.5582 147.339 44.5382 146.281C43.5383 145.244 42.7551 144.011 42.2337 142.658C42.1101 142.337 42.3685 142.006 42.7143 142.018C61.975 142.679 73.1432 146.694 73.1432 157.041Z" fill="#E2EFFE"/>
<path d="M57.4934 177.069H58.4705C59.2446 177.069 59.9866 177.378 60.534 177.928C61.0815 178.477 61.3891 179.223 61.3891 180H56.0134V169.85L56.347 169.797L57.4934 177.069Z" fill="#FEE048"/>
<path d="M68.8027 130.809C75.675 130.809 75.2534 137.807 74.7669 146.478C78.6854 153 80.1967 157.5 77.1738 164C74.1599 170.481 67.1394 172.344 56.0134 172.355V153.632C59.462 153.511 61.2059 149.277 61.5141 143.341C62.0818 131.048 66.3773 130.809 68.8027 130.809Z" fill="#9DC9FB"/>
<path d="M70.6242 136C71.459 136 72.1357 135.328 72.1357 134.5C72.1357 133.672 71.459 133 70.6242 133C69.7895 133 69.1128 133.672 69.1128 134.5C69.1128 135.328 69.7895 136 70.6242 136Z" fill="#1E203E"/>
<path d="M56.0134 143.266C67.0167 145.192 73.1432 149.382 73.1432 157.046C73.1431 164.068 63.7872 166.62 56.0134 165.873V143.266Z" fill="#B6D7FC"/>
<defs>
<filter id="filter0_dd_58767_11280" x="6" y="9" width="100" height="100" filterUnits="userSpaceOnUse" color-interpolation-filters="sRGB">
<feFlood flood-opacity="0" result="BackgroundImageFix"/>
<feColorMatrix in="SourceAlpha" type="matrix" values="0 0 0 0 0 0 0 0 0 0 0 0 0 0 0 0 0 0 127 0" result="hardAlpha"/>
<feOffset dy="3"/>
<feGaussianBlur stdDeviation="5"/>
<feColorMatrix type="matrix" values="0 0 0 0 0.516667 0 0 0 0 0.578358 0 0 0 0 0.775 0 0 0 0.12 0"/>
<feBlend mode="normal" in2="BackgroundImageFix" result="effect1_dropShadow_58767_11280"/>
<feColorMatrix in="SourceAlpha" type="matrix" values="0 0 0 0 0 0 0 0 0 0 0 0 0 0 0 0 0 0 127 0" result="hardAlpha"/>
<feOffset dy="1"/>
<feGaussianBlur stdDeviation="3"/>
<feColorMatrix type="matrix" values="0 0 0 0 0.709809 0 0 0 0 0.788943 0 0 0 0 0.920833 0 0 0 0.15 0"/>
<feBlend mode="normal" in2="effect1_dropShadow_58767_11280" result="effect2_dropShadow_58767_11280"/>
<feBlend mode="normal" in="SourceGraphic" in2="effect2_dropShadow_58767_11280" result="shape"/>
</filter>
</defs>
</svg>
