<svg width="112" height="208" viewBox="0 0 112 208" fill="none" xmlns="http://www.w3.org/2000/svg">
<rect x="0.5" y="0.5" width="111" height="207" rx="4.5" stroke="#9747FF" stroke-dasharray="10 5"/>
<g filter="url(#filter0_dd_36376_11380)">
<rect x="16" y="16" width="80" height="80" rx="8" fill="white"/>
</g>
<path d="M39.853 32.375C41.4102 33.3787 42.9676 34.3826 44.5249 35.3863C42.9676 36.9627 41.4102 38.539 39.853 40.1155C38.5898 41.4992 37.3266 42.8829 36.0634 44.2666C34.6947 42.8829 33.3259 41.4992 31.9572 40.1155C31.9572 38.0822 31.9572 36.0489 31.9572 34.0156C31.9572 33.11 32.6922 32.375 33.5978 32.375H39.853Z" fill="#B6D7FC"/>
<path d="M80.0428 34.0156V40.1155C78.5081 41.2199 76.9733 42.3244 75.4385 43.4289C74.3413 42.3244 73.2442 41.2199 72.147 40.1155C70.6751 38.7346 69.2031 37.3536 67.731 35.9728C69.2031 34.7735 70.6751 33.5743 72.147 32.375H78.4022C79.3078 32.375 80.0428 33.11 80.0428 34.0156Z" fill="#9DC9FB"/>
<path d="M56 28C57.2016 29.6522 58.4032 31.3045 59.6047 32.9568C58.4032 35.343 57.2016 37.7292 56 40.1155C53.3479 41.8902 50.6957 43.6648 48.0435 45.4395C45.3133 43.6648 42.5831 41.8902 39.853 40.1155C39.853 36.6239 39.853 33.1322 39.853 29.6406C39.853 28.735 40.588 28 41.4936 28H56Z" fill="#F0F7FE"/>
<path d="M72.147 29.6406V40.1155C69.5301 41.4713 66.9131 42.8271 64.2962 44.1829C61.5308 42.8271 58.7654 41.4713 56 40.1155C56 36.077 56 32.0385 56 28H70.5064C71.412 28 72.147 28.735 72.147 29.6406Z" fill="#E2EFFE"/>
<path d="M39.853 68.1314H29.6406C28.735 68.1314 28 67.3964 28 66.4908V41.7578C28 40.8522 28.735 40.1172 29.6406 40.1172H56C57.576 42.0868 59.1519 44.0563 60.7278 46.026C59.1519 48.4398 57.576 50.8535 56 53.2673C50.6177 58.222 45.2353 63.1767 39.853 68.1314Z" fill="#157DF5"/>
<path d="M84 41.7578V66.4908C84 67.3964 83.265 68.1314 82.3594 68.1314H72.147C66.7647 63.1767 61.3823 58.222 56 53.2673V40.1172H82.3594C83.265 40.1172 84 40.8522 84 41.7578Z" fill="#0965CD"/>
<path d="M56 56.5469C57.8997 60.9149 59.7995 65.2829 61.6991 69.651C59.7995 74.434 57.8997 79.217 56 84H40.4936C39.5869 84 38.853 83.265 38.853 82.3594V56.5469C41.4367 56 45.0206 55.4531 47.6044 54.9062C50.403 55.4531 53.2014 56 56 56.5469Z" fill="#F0F7FE"/>
<path d="M73.147 56.5473V82.3598C73.147 83.2654 72.4131 84.0004 71.5064 84.0004H56V56.5473C58.8161 55.9482 61.6322 55.349 64.4482 54.75C67.0145 55.349 70.5808 55.9482 73.147 56.5473Z" fill="#E2EFFE"/>
<path d="M56 53.2656C56.5781 53.7625 57.1561 54.2594 57.7341 54.7563C57.1561 55.3532 56.5781 55.95 56 56.5469H37.8481C36.9481 56.5469 36.2075 55.8063 36.2075 54.9062C36.2075 54.0062 36.9481 53.2656 37.8481 53.2656H56Z" fill="#323567"/>
<path d="M75.7925 54.9062C75.7925 55.8063 75.0519 56.5469 74.1519 56.5469H56V53.2656H74.1519C75.0519 53.2656 75.7925 54.0062 75.7925 54.9062Z" fill="#282A52"/>
<path d="M69.2249 49.9609C70.1309 49.9609 70.8655 49.2264 70.8655 48.3203C70.8655 47.4142 70.1309 46.6797 69.2249 46.6797C68.3188 46.6797 67.5842 47.4142 67.5842 48.3203C67.5842 49.2264 68.3188 49.9609 69.2249 49.9609Z" fill="#F3263D"/>
<path d="M75.7925 49.9609C76.6986 49.9609 77.4331 49.2264 77.4331 48.3203C77.4331 47.4142 76.6986 46.6797 75.7925 46.6797C74.8864 46.6797 74.1519 47.4142 74.1519 48.3203C74.1519 49.2264 74.8864 49.9609 75.7925 49.9609Z" fill="#25BB71"/>
<path d="M48.3089 66.0938H43.395C42.6315 66.0938 42.0124 66.7944 42.0124 67.6586C42.0124 68.5228 42.6315 69.2234 43.395 69.2234H44.4594V75.5289C44.4594 76.3931 45.0784 77.0938 45.842 77.0938C46.6056 77.0938 47.2246 76.3931 47.2246 75.5289V69.2234H48.3088C49.0724 69.2234 49.6914 68.5228 49.6914 67.6586C49.6914 66.7944 49.0725 66.0938 48.3089 66.0938Z" fill="#00C56B"/>
<path d="M54.8364 66.0938C54.836 66.0938 54.8354 66.0938 54.8346 66.0938C54.0879 66.0943 53.5521 66.5907 53.3699 67.0222C53.364 67.0361 53.3597 67.0473 53.358 67.0518L50.0166 75.3255C49.7466 75.9941 50.1078 76.7539 50.8167 77.0085C51.5256 77.2632 52.3312 76.9226 52.6012 76.2539L53.0934 75.0334H56.0135C56.4115 74.1104 56.8096 73.1874 57.2077 72.2644C56.8096 70.3718 56.4115 68.4793 56.0135 66.5867C55.6923 66.2849 55.3053 66.094 54.8364 66.0938ZM54.147 72.4253L54.8318 70.73L55.5093 72.4253H54.147Z" fill="#00C56B"/>
<path d="M58.8221 77.015C58.1127 77.2675 57.3086 76.925 57.0404 76.2561L56.5537 75.039H56.0135V66.5923C56.1333 66.7175 56.2311 66.8635 56.302 67.0252C56.3066 67.0365 56.3122 67.0487 56.3168 67.0609L59.6277 75.3346C59.8954 76.004 59.5317 76.7624 58.8221 77.015Z" fill="#25BB71"/>
<path d="M69.3356 76.9136C68.6829 77.2779 67.8279 77.0712 67.4414 76.4554L65.8127 73.8575L64.1812 76.4554C63.7949 77.0714 62.9397 77.2782 62.287 76.9136C61.6344 76.5491 61.4154 75.7425 61.8021 75.1269L64.207 71.2961L62.1791 68.0625C61.7911 67.4426 62.0086 66.6427 62.6658 66.2758C63.323 65.9089 64.171 66.1141 64.5591 66.734L65.8145 68.7364L67.0718 66.734C67.4607 66.1141 68.3088 65.9089 68.966 66.2758C69.6232 66.6436 69.8398 67.4435 69.4508 68.0625L67.4202 71.2969L69.8223 75.1278C70.2078 75.7437 69.988 76.5495 69.3356 76.9136Z" fill="#25BB71"/>
<path d="M39.853 128.375C41.4102 129.379 42.9676 130.383 44.5249 131.386C42.9676 132.963 41.4102 134.539 39.853 136.115C38.5898 137.499 37.3266 138.883 36.0634 140.267C34.6947 138.883 33.3259 137.499 31.9572 136.115C31.9572 134.082 31.9572 132.049 31.9572 130.016C31.9572 129.11 32.6922 128.375 33.5978 128.375H39.853Z" fill="#B6D7FC"/>
<path d="M80.0428 130.016V136.115C78.5081 137.22 76.9733 138.324 75.4385 139.429C74.3413 138.324 73.2442 137.22 72.147 136.115C70.6751 134.735 69.2031 133.354 67.731 131.973C69.2031 130.773 70.6751 129.574 72.147 128.375H78.4022C79.3078 128.375 80.0428 129.11 80.0428 130.016Z" fill="#9DC9FB"/>
<path d="M56 124C57.2016 125.652 58.4032 127.305 59.6047 128.957C58.4032 131.343 57.2016 133.729 56 136.115C53.3479 137.89 50.6957 139.665 48.0435 141.44C45.3133 139.665 42.5831 137.89 39.853 136.115C39.853 132.624 39.853 129.132 39.853 125.641C39.853 124.735 40.588 124 41.4936 124H56Z" fill="#F0F7FE"/>
<path d="M72.147 125.641V136.115C69.5301 137.471 66.9131 138.827 64.2962 140.183C61.5308 138.827 58.7654 137.471 56 136.115C56 132.077 56 128.038 56 124H70.5064C71.412 124 72.147 124.735 72.147 125.641Z" fill="#E2EFFE"/>
<path d="M39.853 164.131H29.6406C28.735 164.131 28 163.396 28 162.491V137.758C28 136.852 28.735 136.117 29.6406 136.117H56C57.576 138.087 59.1519 140.056 60.7278 142.026C59.1519 144.44 57.576 146.854 56 149.267C50.6177 154.222 45.2353 159.177 39.853 164.131Z" fill="#157DF5"/>
<path d="M84 137.758V162.491C84 163.396 83.265 164.131 82.3594 164.131H72.147C66.7647 159.177 61.3823 154.222 56 149.267V136.117H82.3594C83.265 136.117 84 136.852 84 137.758Z" fill="#0965CD"/>
<path d="M56 152.547C57.8997 156.915 59.7995 161.283 61.6991 165.651C59.7995 170.434 57.8997 175.217 56 180H40.4936C39.5869 180 38.853 179.265 38.853 178.359V152.547C41.4367 152 45.0206 151.453 47.6044 150.906C50.403 151.453 53.2014 152 56 152.547Z" fill="#F0F7FE"/>
<path d="M73.147 152.547V178.36C73.147 179.265 72.4131 180 71.5064 180H56V152.547C58.8161 151.948 61.6322 151.349 64.4482 150.75C67.0145 151.349 70.5808 151.948 73.147 152.547Z" fill="#E2EFFE"/>
<path d="M56 149.266C56.5781 149.763 57.1561 150.259 57.7341 150.756C57.1561 151.353 56.5781 151.95 56 152.547H37.8481C36.9481 152.547 36.2075 151.806 36.2075 150.906C36.2075 150.006 36.9481 149.266 37.8481 149.266H56Z" fill="#323567"/>
<path d="M75.7925 150.906C75.7925 151.806 75.0519 152.547 74.1519 152.547H56V149.266H74.1519C75.0519 149.266 75.7925 150.006 75.7925 150.906Z" fill="#282A52"/>
<path d="M69.2249 145.961C70.1309 145.961 70.8655 145.226 70.8655 144.32C70.8655 143.414 70.1309 142.68 69.2249 142.68C68.3188 142.68 67.5842 143.414 67.5842 144.32C67.5842 145.226 68.3188 145.961 69.2249 145.961Z" fill="#F3263D"/>
<path d="M75.7925 145.961C76.6986 145.961 77.4331 145.226 77.4331 144.32C77.4331 143.414 76.6986 142.68 75.7925 142.68C74.8864 142.68 74.1519 143.414 74.1519 144.32C74.1519 145.226 74.8864 145.961 75.7925 145.961Z" fill="#25BB71"/>
<path d="M48.3089 162.094H43.395C42.6315 162.094 42.0124 162.794 42.0124 163.659C42.0124 164.523 42.6315 165.223 43.395 165.223H44.4594V171.529C44.4594 172.393 45.0784 173.094 45.842 173.094C46.6056 173.094 47.2246 172.393 47.2246 171.529V165.223H48.3088C49.0724 165.223 49.6914 164.523 49.6914 163.659C49.6914 162.794 49.0725 162.094 48.3089 162.094Z" fill="#00C56B"/>
<path d="M54.8364 162.094C54.836 162.094 54.8354 162.094 54.8346 162.094C54.0879 162.094 53.5521 162.591 53.3699 163.022C53.364 163.036 53.3597 163.047 53.358 163.052L50.0166 171.325C49.7466 171.994 50.1078 172.754 50.8167 173.009C51.5256 173.263 52.3312 172.923 52.6012 172.254L53.0934 171.033H56.0135C56.4115 170.11 56.8096 169.187 57.2077 168.264C56.8096 166.372 56.4115 164.479 56.0135 162.587C55.6923 162.285 55.3053 162.094 54.8364 162.094ZM54.147 168.425L54.8318 166.73L55.5093 168.425H54.147Z" fill="#00C56B"/>
<path d="M58.8221 173.015C58.1127 173.267 57.3086 172.925 57.0404 172.256L56.5537 171.039H56.0135V162.592C56.1333 162.717 56.2311 162.864 56.302 163.025C56.3066 163.037 56.3122 163.049 56.3168 163.061L59.6277 171.335C59.8954 172.004 59.5317 172.762 58.8221 173.015Z" fill="#25BB71"/>
<path d="M69.3356 172.914C68.6829 173.278 67.8279 173.071 67.4414 172.455L65.8127 169.857L64.1812 172.455C63.7949 173.071 62.9397 173.278 62.287 172.914C61.6344 172.549 61.4154 171.742 61.8021 171.127L64.207 167.296L62.1791 164.063C61.7911 163.443 62.0086 162.643 62.6658 162.276C63.323 161.909 64.171 162.114 64.5591 162.734L65.8145 164.736L67.0718 162.734C67.4607 162.114 68.3088 161.909 68.966 162.276C69.6232 162.644 69.8398 163.443 69.4508 164.063L67.4202 167.297L69.8223 171.128C70.2078 171.744 69.988 172.55 69.3356 172.914Z" fill="#25BB71"/>
<defs>
<filter id="filter0_dd_36376_11380" x="6" y="9" width="100" height="100" filterUnits="userSpaceOnUse" color-interpolation-filters="sRGB">
<feFlood flood-opacity="0" result="BackgroundImageFix"/>
<feColorMatrix in="SourceAlpha" type="matrix" values="0 0 0 0 0 0 0 0 0 0 0 0 0 0 0 0 0 0 127 0" result="hardAlpha"/>
<feOffset dy="3"/>
<feGaussianBlur stdDeviation="5"/>
<feColorMatrix type="matrix" values="0 0 0 0 0.516667 0 0 0 0 0.578358 0 0 0 0 0.775 0 0 0 0.12 0"/>
<feBlend mode="normal" in2="BackgroundImageFix" result="effect1_dropShadow_36376_11380"/>
<feColorMatrix in="SourceAlpha" type="matrix" values="0 0 0 0 0 0 0 0 0 0 0 0 0 0 0 0 0 0 127 0" result="hardAlpha"/>
<feOffset dy="1"/>
<feGaussianBlur stdDeviation="3"/>
<feColorMatrix type="matrix" values="0 0 0 0 0.709809 0 0 0 0 0.788943 0 0 0 0 0.920833 0 0 0 0.15 0"/>
<feBlend mode="normal" in2="effect1_dropShadow_36376_11380" result="effect2_dropShadow_36376_11380"/>
<feBlend mode="normal" in="SourceGraphic" in2="effect2_dropShadow_36376_11380" result="shape"/>
</filter>
</defs>
</svg>
