<svg width="112" height="208" viewBox="0 0 112 208" fill="none" xmlns="http://www.w3.org/2000/svg">
<rect x="0.5" y="0.5" width="111" height="207" rx="4.5" stroke="#9747FF" stroke-dasharray="10 5"/>
<g filter="url(#filter0_d_6367_21633)">
<rect x="16" y="16" width="80" height="80" rx="8" fill="white"/>
</g>
<path d="M51.0891 35.0076V34.6172H44.6724C44.1823 34.6172 43.7852 35.0144 43.7852 35.5044V51.1475C43.7852 51.6376 44.1823 52.0347 44.6724 52.0347H52.7146V35.0076H51.0891Z" fill="#157DF5"/>
<path d="M41.304 56.3943V56.0039H34.8872C34.3972 56.0039 34 56.4011 34 56.8912V72.5342C34 73.0243 34.3972 73.4215 34.8872 73.4215H42.9295V56.3943H41.304Z" fill="#157DF5"/>
<path d="M61.0975 34.6869C60.9914 34.642 60.8747 34.6172 60.7521 34.6172H54.3315V35.0076H52.7148V52.0347H60.7521C60.8747 52.0347 60.9914 52.0099 61.0975 51.9651C61.124 51.9538 61.1499 51.9413 61.175 51.9277C61.2756 51.8731 61.3644 51.7996 61.4368 51.7118C61.473 51.668 61.5051 51.6207 61.5323 51.5704C61.5596 51.5201 61.5822 51.4669 61.5995 51.4113C61.6254 51.328 61.6394 51.2394 61.6394 51.1475V35.5043C61.6394 35.1369 61.4159 34.8215 61.0975 34.6869Z" fill="#0965CD"/>
<path d="M51.3123 56.0736C51.2062 56.0287 51.0895 56.0039 50.967 56.0039H44.5463V56.3943H42.9297V73.4215H50.967C51.0895 73.4215 51.2062 73.3966 51.3123 73.3518C51.3388 73.3405 51.3647 73.3281 51.3899 73.3144C51.4904 73.2598 51.5792 73.1863 51.6517 73.0986C51.6879 73.0547 51.7199 73.0074 51.7471 72.9571C51.7745 72.9068 51.797 72.8536 51.8143 72.7981C51.8402 72.7147 51.8542 72.6261 51.8542 72.5342V56.891C51.8542 56.5236 51.6308 56.2082 51.3123 56.0736Z" fill="#0965CD"/>
<path d="M52.7152 41.6871C51.8175 41.6871 51.0898 40.9593 51.0898 40.0617V34.6133H54.3406V40.0616C54.3406 40.9593 53.6129 41.6871 52.7152 41.6871Z" fill="#E2EFFE"/>
<path d="M42.9301 63.0738C42.0323 63.0738 41.3047 62.3461 41.3047 61.4484V56H44.5555V61.4483C44.5555 62.3461 43.8277 63.0738 42.9301 63.0738Z" fill="#E2EFFE"/>
<path d="M54.3402 40.0617V34.6133H52.7148V41.6871C53.6125 41.6871 54.3402 40.9593 54.3402 40.0617Z" fill="#B6D7FC"/>
<path d="M44.5551 61.4484V56H42.9297V63.0738C43.8273 63.0738 44.5551 62.3461 44.5551 61.4484Z" fill="#B6D7FC"/>
<path d="M77.4235 51.6029C77.4236 51.595 77.4247 51.5875 77.4247 51.5796C77.4247 51.5717 77.4236 51.5642 77.4235 51.5563V29.6408C77.4235 28.7347 76.6888 28 75.7826 28H29.642C28.7359 28 28.0012 28.7347 28.0012 29.6408V51.5553C28.0011 51.5635 28 51.5714 28 51.5796C28 51.5878 28.0011 51.5958 28.0012 51.6039V72.9544L28 82.3588C27.9999 83.265 28.7344 83.9998 29.6406 83.9999H29.6408C30.5469 83.9999 31.2815 83.2654 31.2816 82.3593L31.2826 74.5955H74.1405V82.3591C74.1405 83.2652 74.8752 83.9999 75.7813 83.9999C76.6875 83.9999 77.4222 83.2652 77.4222 82.3591V73.0384C77.4222 73.0286 77.4208 73.0191 77.4207 73.0092C77.4213 72.991 77.4235 72.9731 77.4235 72.9546V51.6029ZM74.1418 31.2816V49.9389H31.2829V31.2816H74.1418ZM31.2829 71.3139V53.2206H74.1418V71.3139H31.2829Z" fill="#E2EFFE"/>
<path d="M77.4242 29.6408C77.4242 28.7347 76.6896 28 75.7834 28H52.6875V31.2816H74.1425V49.9389H52.6875V53.2206H74.1425V71.3139H52.6875V74.5956H74.1413V82.3592C74.1413 83.2653 74.8759 84 75.7821 84C76.6883 84 77.4229 83.2653 77.4229 82.3592V73.0384C77.4229 73.0286 77.4216 73.0191 77.4215 73.0092C77.422 72.991 77.4242 72.9731 77.4242 72.9546V51.6029C77.4243 51.595 77.4254 51.5875 77.4254 51.5796C77.4254 51.5717 77.4243 51.5642 77.4242 51.5563V29.6408Z" fill="#B6D7FC"/>
<path d="M83.9998 57.6471V82.3529C83.9998 83.261 83.2609 84 82.3528 84H68.1881C67.28 84 66.541 83.261 66.541 82.3529V66.4863C66.541 66.0317 66.91 65.6627 67.3645 65.6627V62.9176C66.91 62.9176 66.541 62.5487 66.541 62.0941V57.6471C66.541 56.739 67.28 56 68.1881 56H82.3528C83.2609 56 83.9998 56.739 83.9998 57.6471Z" fill="#40D98D"/>
<path d="M83.9998 70V82.3529C83.9998 83.261 83.2609 84 82.3528 84H68.1881C67.28 84 66.541 83.261 66.541 82.3529V70H83.9998Z" fill="#25BB71"/>
<path d="M66.541 62.0941V57.6471C66.541 56.739 67.28 56 68.1881 56H73.474V56.8235C73.474 60.2066 70.7427 62.9511 67.3645 62.972V62.9737C66.91 62.9737 66.541 63.4375 66.541 62.0941Z" fill="#09C369"/>
<path d="M73.5136 83.1764V83.9999H68.1881C67.28 83.9999 66.541 83.2609 66.541 82.3528V77.0273H67.3645C70.7608 77.0273 73.5136 79.7801 73.5136 83.1764Z" fill="#08A559"/>
<path d="M84 57.6471V62.9725H83.1765C79.7803 62.9725 77.0275 60.2198 77.0275 56.8235V56H82.353C83.261 56 84 56.739 84 57.6471Z" fill="#09C369"/>
<path d="M83.1765 77.0273H84V82.3528C84 83.2609 83.261 83.9999 82.353 83.9999H77.0275V83.1764C77.0275 79.7801 79.7803 77.0273 83.1765 77.0273Z" fill="#08A559"/>
<path d="M75.2704 75.2156C78.1509 75.2156 80.4861 72.8804 80.4861 69.9999C80.4861 67.1193 78.1509 64.7842 75.2704 64.7842C72.3898 64.7842 70.0547 67.1193 70.0547 69.9999C70.0547 72.8804 72.3898 75.2156 75.2704 75.2156Z" fill="#09C369"/>
<path d="M80.4861 70C80.4861 72.8758 78.1461 75.2157 75.2704 75.2157C72.3946 75.2157 70.0547 72.8758 70.0547 70H80.4861Z" fill="#08A559"/>
<path d="M75.2701 68.3525C74.362 68.3525 73.623 69.0915 73.623 69.9996C73.623 70.9077 74.362 71.6467 75.2701 71.6467C76.1782 71.6467 76.9172 70.9077 76.9172 69.9996C76.9172 69.0915 76.1782 68.3525 75.2701 68.3525Z" fill="#40D98D"/>
<path d="M76.9172 70C76.9172 70.9081 76.1782 71.6471 75.2701 71.6471C74.362 71.6471 73.623 70.9081 73.623 70H76.9172Z" fill="#25BB71"/>
<path d="M74.7215 64.2888C74.7215 65.9351 73.4257 67.3084 71.7749 67.3084L67.3043 67.6367C66.8738 67.668 66.5411 68.0265 66.5411 68.458V77.821C63.7688 77.6275 62.1789 76.6715 59.9688 75.5667C59.6899 75.4273 59.5137 75.1418 59.5137 74.8299V64.2888C59.5137 63.9286 59.7476 63.6102 60.0918 63.5026C67.9659 61.0425 66.4648 61.2692 71.7749 61.2692C73.3995 61.2692 74.7215 62.6236 74.7215 64.2888Z" fill="#FFDECC"/>
<path d="M66.5411 70V77.8224C63.7688 77.629 62.1789 76.6729 59.9688 75.5682C59.6899 75.4287 59.5137 75.1432 59.5137 74.8314V70H66.5411Z" fill="#FFCFB5"/>
<path d="M61.1608 62.9176V76.2038C61.1608 77.1119 60.4218 77.8509 59.5137 77.8509H57.6471C56.739 77.8509 56 77.1119 56 76.2038V62.9176C56 62.0095 56.739 61.2705 57.6471 61.2705H59.5137C60.4218 61.2705 61.1608 62.0095 61.1608 62.9176Z" fill="#157DF5"/>
<path d="M61.1608 70V76.2039C61.1608 77.112 60.4218 77.851 59.5137 77.851H57.6471C56.739 77.851 56 77.112 56 76.2039V70H61.1608Z" fill="#0965CD"/>
<path d="M51.0891 131.008V130.617H44.6724C44.1823 130.617 43.7852 131.014 43.7852 131.504V147.148C43.7852 147.638 44.1823 148.035 44.6724 148.035H52.7146V131.008H51.0891Z" fill="#157DF5"/>
<path d="M41.304 152.394V152.004H34.8872C34.3972 152.004 34 152.401 34 152.891V168.534C34 169.024 34.3972 169.421 34.8872 169.421H42.9295V152.394H41.304Z" fill="#157DF5"/>
<path d="M61.0975 130.687C60.9914 130.642 60.8747 130.617 60.7521 130.617H54.3315V131.008H52.7148V148.035H60.7521C60.8747 148.035 60.9914 148.01 61.0975 147.965C61.124 147.954 61.1499 147.941 61.175 147.928C61.2756 147.873 61.3644 147.8 61.4368 147.712C61.473 147.668 61.5051 147.621 61.5323 147.57C61.5596 147.52 61.5822 147.467 61.5995 147.411C61.6254 147.328 61.6394 147.239 61.6394 147.148V131.504C61.6394 131.137 61.4159 130.822 61.0975 130.687Z" fill="#0965CD"/>
<path d="M51.3123 152.074C51.2062 152.029 51.0895 152.004 50.967 152.004H44.5463V152.394H42.9297V169.421H50.967C51.0895 169.421 51.2062 169.397 51.3123 169.352C51.3388 169.341 51.3647 169.328 51.3899 169.314C51.4904 169.26 51.5792 169.186 51.6517 169.099C51.6879 169.055 51.7199 169.007 51.7471 168.957C51.7745 168.907 51.797 168.854 51.8143 168.798C51.8402 168.715 51.8542 168.626 51.8542 168.534V152.891C51.8542 152.524 51.6308 152.208 51.3123 152.074Z" fill="#0965CD"/>
<path d="M52.7152 137.687C51.8175 137.687 51.0898 136.959 51.0898 136.062V130.613H54.3406V136.062C54.3406 136.959 53.6129 137.687 52.7152 137.687Z" fill="#E2EFFE"/>
<path d="M42.9301 159.074C42.0323 159.074 41.3047 158.346 41.3047 157.448V152H44.5555V157.448C44.5555 158.346 43.8277 159.074 42.9301 159.074Z" fill="#E2EFFE"/>
<path d="M54.3402 136.062V130.613H52.7148V137.687C53.6125 137.687 54.3402 136.959 54.3402 136.062Z" fill="#B6D7FC"/>
<path d="M44.5551 157.448V152H42.9297V159.074C43.8273 159.074 44.5551 158.346 44.5551 157.448Z" fill="#B6D7FC"/>
<path d="M77.4235 147.603C77.4236 147.595 77.4247 147.587 77.4247 147.58C77.4247 147.572 77.4236 147.564 77.4235 147.556V125.641C77.4235 124.735 76.6888 124 75.7826 124H29.642C28.7359 124 28.0012 124.735 28.0012 125.641V147.555C28.0011 147.564 28 147.571 28 147.58C28 147.588 28.0011 147.596 28.0012 147.604V168.954L28 178.359C27.9999 179.265 28.7344 180 29.6406 180H29.6408C30.5469 180 31.2815 179.265 31.2816 178.359L31.2826 170.595H74.1405V178.359C74.1405 179.265 74.8752 180 75.7813 180C76.6875 180 77.4222 179.265 77.4222 178.359V169.038C77.4222 169.029 77.4208 169.019 77.4207 169.009C77.4213 168.991 77.4235 168.973 77.4235 168.955V147.603ZM74.1418 127.282V145.939H31.2829V127.282H74.1418ZM31.2829 167.314V149.221H74.1418V167.314H31.2829Z" fill="#E2EFFE"/>
<path d="M77.4242 125.641C77.4242 124.735 76.6896 124 75.7834 124H52.6875V127.282H74.1425V145.939H52.6875V149.221H74.1425V167.314H52.6875V170.596H74.1413V178.359C74.1413 179.265 74.8759 180 75.7821 180C76.6883 180 77.4229 179.265 77.4229 178.359V169.038C77.4229 169.029 77.4216 169.019 77.4215 169.009C77.422 168.991 77.4242 168.973 77.4242 168.955V147.603C77.4243 147.595 77.4254 147.587 77.4254 147.58C77.4254 147.572 77.4243 147.564 77.4242 147.556V125.641Z" fill="#B6D7FC"/>
<path d="M83.9998 153.647V178.353C83.9998 179.261 83.2609 180 82.3528 180H68.1881C67.28 180 66.541 179.261 66.541 178.353V162.486C66.541 162.032 66.91 161.663 67.3645 161.663V158.918C66.91 158.918 66.541 158.549 66.541 158.094V153.647C66.541 152.739 67.28 152 68.1881 152H82.3528C83.2609 152 83.9998 152.739 83.9998 153.647Z" fill="#40D98D"/>
<path d="M83.9998 166V178.353C83.9998 179.261 83.2609 180 82.3528 180H68.1881C67.28 180 66.541 179.261 66.541 178.353V166H83.9998Z" fill="#25BB71"/>
<path d="M66.541 158.094V153.647C66.541 152.739 67.28 152 68.1881 152H73.474V152.824C73.474 156.207 70.7427 158.951 67.3645 158.972V158.974C66.91 158.974 66.541 159.438 66.541 158.094Z" fill="#09C369"/>
<path d="M73.5136 179.176V180H68.1881C67.28 180 66.541 179.261 66.541 178.353V173.027H67.3645C70.7608 173.027 73.5136 175.78 73.5136 179.176Z" fill="#08A559"/>
<path d="M84 153.647V158.973H83.1765C79.7803 158.973 77.0275 156.22 77.0275 152.824V152H82.353C83.261 152 84 152.739 84 153.647Z" fill="#09C369"/>
<path d="M83.1765 173.027H84V178.353C84 179.261 83.261 180 82.353 180H77.0275V179.176C77.0275 175.78 79.7803 173.027 83.1765 173.027Z" fill="#08A559"/>
<path d="M75.2704 171.216C78.1509 171.216 80.4861 168.88 80.4861 166C80.4861 163.119 78.1509 160.784 75.2704 160.784C72.3898 160.784 70.0547 163.119 70.0547 166C70.0547 168.88 72.3898 171.216 75.2704 171.216Z" fill="#09C369"/>
<path d="M80.4861 166C80.4861 168.876 78.1461 171.216 75.2704 171.216C72.3946 171.216 70.0547 168.876 70.0547 166H80.4861Z" fill="#08A559"/>
<path d="M75.2701 164.353C74.362 164.353 73.623 165.092 73.623 166C73.623 166.908 74.362 167.647 75.2701 167.647C76.1782 167.647 76.9172 166.908 76.9172 166C76.9172 165.092 76.1782 164.353 75.2701 164.353Z" fill="#40D98D"/>
<path d="M76.9172 166C76.9172 166.908 76.1782 167.647 75.2701 167.647C74.362 167.647 73.623 166.908 73.623 166H76.9172Z" fill="#25BB71"/>
<path d="M74.7215 160.289C74.7215 161.935 73.4257 163.308 71.7749 163.308L67.3043 163.637C66.8738 163.668 66.5411 164.026 66.5411 164.458V173.821C63.7688 173.628 62.1789 172.671 59.9688 171.567C59.6899 171.427 59.5137 171.142 59.5137 170.83V160.289C59.5137 159.929 59.7476 159.61 60.0918 159.503C67.9659 157.042 66.4648 157.269 71.7749 157.269C73.3995 157.269 74.7215 158.624 74.7215 160.289Z" fill="#FFDECC"/>
<path d="M66.5411 166V173.822C63.7688 173.629 62.1789 172.673 59.9688 171.568C59.6899 171.429 59.5137 171.143 59.5137 170.831V166H66.5411Z" fill="#FFCFB5"/>
<path d="M61.1608 158.918V172.204C61.1608 173.112 60.4218 173.851 59.5137 173.851H57.6471C56.739 173.851 56 173.112 56 172.204V158.918C56 158.009 56.739 157.271 57.6471 157.271H59.5137C60.4218 157.271 61.1608 158.009 61.1608 158.918Z" fill="#157DF5"/>
<path d="M61.1608 166V172.204C61.1608 173.112 60.4218 173.851 59.5137 173.851H57.6471C56.739 173.851 56 173.112 56 172.204V166H61.1608Z" fill="#0965CD"/>
<defs>
<filter id="filter0_d_6367_21633" x="10" y="9" width="96" height="96" filterUnits="userSpaceOnUse" color-interpolation-filters="sRGB">
<feFlood flood-opacity="0" result="BackgroundImageFix"/>
<feColorMatrix in="SourceAlpha" type="matrix" values="0 0 0 0 0 0 0 0 0 0 0 0 0 0 0 0 0 0 127 0" result="hardAlpha"/>
<feOffset dx="2" dy="1"/>
<feGaussianBlur stdDeviation="4"/>
<feColorMatrix type="matrix" values="0 0 0 0 0.0392157 0 0 0 0 0.0392157 0 0 0 0 0.0627451 0 0 0 0.08 0"/>
<feBlend mode="normal" in2="BackgroundImageFix" result="effect1_dropShadow_6367_21633"/>
<feBlend mode="normal" in="SourceGraphic" in2="effect1_dropShadow_6367_21633" result="shape"/>
</filter>
</defs>
</svg>
