<svg width="112" height="208" viewBox="0 0 112 208" fill="none" xmlns="http://www.w3.org/2000/svg">
<rect x="0.5" y="0.5" width="111" height="207" rx="4.5" stroke="#9747FF" stroke-dasharray="10 5"/>
<g filter="url(#filter0_dd_14697_11168)">
<rect x="16" y="16" width="80" height="80" rx="8" fill="white"/>
</g>
<path d="M77.0594 84.0049H35.9432C35.2967 84.0049 34.7725 83.4814 34.7725 82.8356V62.6406H78.23V82.8356C78.2301 83.4814 77.706 84.0049 77.0594 84.0049Z" fill="#0965CD"/>
<path d="M57.4508 62.6406H34.7325V82.8356C34.7325 83.4814 35.2566 84.0049 35.9032 84.0049H57.4508V62.6406Z" fill="#157DF5"/>
<path d="M82.3215 66H31.6792C31.1114 66 30.7951 65.3428 31.1498 64.8984L34.0415 61.8259C34.5028 61.2498 35.2013 60.9141 35.9405 60.9141H77.0597C77.7967 60.9141 79.493 61.2476 79.9543 61.8204L79.9587 61.8259L82.8509 64.8984C82.8564 64.905 82.8607 64.9115 82.8651 64.9181C83.1968 65.3614 82.8805 66 82.3215 66Z" fill="#0965CD"/>
<path d="M49.8954 80.1698H39.7527C39.24 80.1698 38.8243 79.7546 38.8243 79.2425V71.357C38.8243 70.8449 39.24 70.4297 39.7527 70.4297H49.8954C50.4081 70.4297 50.8238 70.8449 50.8238 71.357V79.2425C50.8238 79.7547 50.4081 80.1698 49.8954 80.1698Z" fill="#E2EFFE"/>
<path d="M47.4381 73.9439C47.1776 73.3481 46.5064 73.0479 45.8881 73.2506L44.9567 73.5559C44.8707 73.5841 44.7779 73.5841 44.6918 73.5559L43.7605 73.2506C43.1421 73.0479 42.4709 73.3481 42.2104 73.9439C41.9958 74.4346 42.1048 75.0065 42.4848 75.3842L44.5247 77.4123C44.6904 77.5771 44.9583 77.5771 45.124 77.4123L47.1639 75.3842C47.5437 75.0065 47.6526 74.4346 47.4381 73.9439Z" fill="#B6D7FC"/>
<path d="M52.4854 54.546L43.9813 55.2541L35.3232 54.546V32.3881L44.1508 31.2891L52.4854 32.3881V54.546Z" fill="#157DF5"/>
<path d="M70.2124 49.4919C69.7574 49.4919 69.3886 49.1235 69.3886 48.6691C69.3886 45.8362 70.398 43.7244 70.4409 43.6359C70.6394 43.2269 71.1323 43.0563 71.5416 43.2544C71.9504 43.4525 72.1214 43.9436 71.9242 44.3521C71.9153 44.3707 71.0362 46.2304 71.0362 48.6691C71.0361 49.1235 70.6674 49.4919 70.2124 49.4919Z" fill="#25BB71"/>
<path d="M52.5612 29.4844H35.244C34.9731 29.4844 34.7706 29.7329 34.8256 29.9979L35.3215 32.3854H52.4837L52.9796 29.9979C53.0345 29.7329 52.8321 29.4844 52.5612 29.4844Z" fill="#40D98D"/>
<path d="M52.4837 54.5312H35.3215L34.8256 56.9188C34.7706 57.1838 34.9731 57.4323 35.244 57.4323H52.5612C52.8321 57.4323 53.0346 57.1838 52.9796 56.9188L52.4837 54.5312Z" fill="#40D98D"/>
<path d="M66.0146 29.4766H74.4132V40.747H66.0146V29.4766Z" fill="#40D98D"/>
<path d="M70.2145 37.942C71.0552 37.942 71.7367 36.5576 71.7367 34.8499C71.7367 33.1422 71.0552 31.7578 70.2145 31.7578C69.3738 31.7578 68.6923 33.1422 68.6923 34.8499C68.6923 36.5576 69.3738 37.942 70.2145 37.942Z" fill="#B6D7FC"/>
<path d="M75.2868 48.1594C72.4905 45.5231 70.2123 48.682 70.2123 48.682C70.2123 48.682 67.9341 45.5231 65.1378 48.1594C62.3004 50.8345 66.2335 56.564 68.5257 57.5659C68.7428 57.6608 69.2296 57.4536 69.6145 57.2539C69.9539 57.0778 70.3568 57.0693 70.7011 57.2359C71.1248 57.4409 71.6751 57.6638 71.8988 57.5659C74.1911 56.5639 78.1242 50.8345 75.2868 48.1594Z" fill="#40D98D"/>
<path d="M44.8459 51.5953H43.0528C41.0331 51.5953 39.3957 49.9599 39.3957 47.9425V39.1059C39.3957 37.0886 41.033 35.4531 43.0528 35.4531H44.8459C46.8656 35.4531 48.503 37.0885 48.503 39.1059V47.9425C48.503 49.9598 46.8656 51.5953 44.8459 51.5953Z" fill="#B6D7FC"/>
<path d="M73.9757 30.9655H66.45C65.6298 30.9655 64.965 30.3016 64.965 29.4827C64.965 28.6639 65.6298 28 66.45 28H73.9757C74.7958 28 75.4607 28.6639 75.4607 29.4827C75.4607 30.3016 74.7958 30.9655 73.9757 30.9655Z" fill="#157DF5"/>
<path d="M73.9757 42.2233H66.45C65.6298 42.2233 64.965 41.5594 64.965 40.7405C64.965 39.9217 65.6298 39.2578 66.45 39.2578H73.9757C74.7958 39.2578 75.4607 39.9217 75.4607 40.7405C75.4607 41.5594 74.7958 42.2233 73.9757 42.2233Z" fill="#157DF5"/>
<path d="M42.9976 41.7958C42.7869 41.7958 42.576 41.7155 42.4153 41.5548C42.0936 41.2335 42.0936 40.7126 42.4153 40.3914L44.7087 38.1004C45.0303 37.779 45.5519 37.779 45.8734 38.1004C46.195 38.4217 46.195 38.9426 45.8734 39.2638L43.58 41.5548C43.4192 41.7154 43.2085 41.7958 42.9976 41.7958Z" fill="#E2EFFE"/>
<path d="M42.9978 45.5849C42.7871 45.5849 42.5762 45.5046 42.4155 45.3439C42.0938 45.0226 42.0938 44.5016 42.4155 44.1804L44.7089 41.8894C45.0305 41.5681 45.5521 41.5681 45.8736 41.8894C46.1952 42.2107 46.1952 42.7317 45.8736 43.0529L43.5802 45.3439C43.4194 45.5046 43.2087 45.5849 42.9978 45.5849Z" fill="#E2EFFE"/>
<path d="M42.9978 49.3662C42.7871 49.3662 42.5762 49.2859 42.4155 49.1251C42.0938 48.8038 42.0938 48.2829 42.4155 47.9617L44.7089 45.6707C45.0305 45.3494 45.5521 45.3494 45.8736 45.6707C46.1952 45.992 46.1952 46.513 45.8736 46.8342L43.5802 49.1251C43.4194 49.2859 43.2087 49.3662 42.9978 49.3662Z" fill="#E2EFFE"/>
<path d="M57.4893 60.9062H33.9405C33.2013 60.9062 32.5028 61.242 32.0415 61.818L29.1496 64.8984C28.7948 65.3428 29.1111 66 29.679 66H57.4893V60.9062Z" fill="#157DF5"/>
<rect x="57.4893" y="66" width="20.779" height="3" fill="#1E203E"/>
<rect x="34.7305" y="66" width="22.758" height="3" fill="#282A52"/>
<path d="M77.0594 180.005H35.9432C35.2967 180.005 34.7725 179.481 34.7725 178.836V158.641H78.23V178.836C78.2301 179.481 77.706 180.005 77.0594 180.005Z" fill="#0965CD"/>
<path d="M57.4508 158.641H34.7325V178.836C34.7325 179.481 35.2566 180.005 35.9032 180.005H57.4508V158.641Z" fill="#157DF5"/>
<path d="M82.3215 162H31.6792C31.1114 162 30.7951 161.343 31.1498 160.898L34.0415 157.826C34.5028 157.25 35.2013 156.914 35.9405 156.914H77.0597C77.7967 156.914 79.493 157.248 79.9543 157.82L79.9587 157.826L82.8509 160.898C82.8564 160.905 82.8607 160.912 82.8651 160.918C83.1968 161.361 82.8805 162 82.3215 162Z" fill="#0965CD"/>
<path d="M49.8954 176.17H39.7527C39.24 176.17 38.8243 175.755 38.8243 175.243V167.357C38.8243 166.845 39.24 166.43 39.7527 166.43H49.8954C50.4081 166.43 50.8238 166.845 50.8238 167.357V175.243C50.8238 175.755 50.4081 176.17 49.8954 176.17Z" fill="#E2EFFE"/>
<path d="M47.4381 169.944C47.1776 169.348 46.5064 169.048 45.8881 169.251L44.9567 169.556C44.8707 169.584 44.7779 169.584 44.6918 169.556L43.7605 169.251C43.1421 169.048 42.4709 169.348 42.2104 169.944C41.9958 170.435 42.1048 171.006 42.4848 171.384L44.5247 173.412C44.6904 173.577 44.9583 173.577 45.124 173.412L47.1639 171.384C47.5437 171.006 47.6526 170.435 47.4381 169.944Z" fill="#B6D7FC"/>
<path d="M52.4854 150.546L43.9813 151.254L35.3232 150.546V128.388L44.1508 127.289L52.4854 128.388V150.546Z" fill="#157DF5"/>
<path d="M70.2124 145.492C69.7574 145.492 69.3886 145.123 69.3886 144.669C69.3886 141.836 70.398 139.724 70.4409 139.636C70.6394 139.227 71.1323 139.056 71.5416 139.254C71.9504 139.452 72.1214 139.944 71.9242 140.352C71.9153 140.371 71.0362 142.23 71.0362 144.669C71.0361 145.123 70.6674 145.492 70.2124 145.492Z" fill="#25BB71"/>
<path d="M52.5612 125.484H35.244C34.9731 125.484 34.7706 125.733 34.8256 125.998L35.3215 128.385H52.4837L52.9796 125.998C53.0345 125.733 52.8321 125.484 52.5612 125.484Z" fill="#40D98D"/>
<path d="M52.4837 150.531H35.3215L34.8256 152.919C34.7706 153.184 34.9731 153.432 35.244 153.432H52.5612C52.8321 153.432 53.0346 153.184 52.9796 152.919L52.4837 150.531Z" fill="#40D98D"/>
<path d="M66.0146 125.477H74.4132V136.747H66.0146V125.477Z" fill="#40D98D"/>
<path d="M70.2145 133.942C71.0552 133.942 71.7367 132.558 71.7367 130.85C71.7367 129.142 71.0552 127.758 70.2145 127.758C69.3738 127.758 68.6923 129.142 68.6923 130.85C68.6923 132.558 69.3738 133.942 70.2145 133.942Z" fill="#B6D7FC"/>
<path d="M75.2868 144.159C72.4905 141.523 70.2123 144.682 70.2123 144.682C70.2123 144.682 67.9341 141.523 65.1378 144.159C62.3004 146.835 66.2335 152.564 68.5257 153.566C68.7428 153.661 69.2296 153.454 69.6145 153.254C69.9539 153.078 70.3568 153.069 70.7011 153.236C71.1248 153.441 71.6751 153.664 71.8988 153.566C74.1911 152.564 78.1242 146.835 75.2868 144.159Z" fill="#40D98D"/>
<path d="M44.8459 147.595H43.0528C41.0331 147.595 39.3957 145.96 39.3957 143.942V135.106C39.3957 133.089 41.033 131.453 43.0528 131.453H44.8459C46.8656 131.453 48.503 133.088 48.503 135.106V143.942C48.503 145.96 46.8656 147.595 44.8459 147.595Z" fill="#B6D7FC"/>
<path d="M73.9757 126.965H66.45C65.6298 126.965 64.965 126.302 64.965 125.483C64.965 124.664 65.6298 124 66.45 124H73.9757C74.7958 124 75.4607 124.664 75.4607 125.483C75.4607 126.302 74.7958 126.965 73.9757 126.965Z" fill="#157DF5"/>
<path d="M73.9757 138.223H66.45C65.6298 138.223 64.965 137.559 64.965 136.741C64.965 135.922 65.6298 135.258 66.45 135.258H73.9757C74.7958 135.258 75.4607 135.922 75.4607 136.741C75.4607 137.559 74.7958 138.223 73.9757 138.223Z" fill="#157DF5"/>
<path d="M42.9976 137.796C42.7869 137.796 42.576 137.716 42.4153 137.555C42.0936 137.234 42.0936 136.713 42.4153 136.391L44.7087 134.1C45.0303 133.779 45.5519 133.779 45.8734 134.1C46.195 134.422 46.195 134.943 45.8734 135.264L43.58 137.555C43.4192 137.715 43.2085 137.796 42.9976 137.796Z" fill="#E2EFFE"/>
<path d="M42.9978 141.585C42.7871 141.585 42.5762 141.505 42.4155 141.344C42.0938 141.023 42.0938 140.502 42.4155 140.18L44.7089 137.889C45.0305 137.568 45.5521 137.568 45.8736 137.889C46.1952 138.211 46.1952 138.732 45.8736 139.053L43.5802 141.344C43.4194 141.505 43.2087 141.585 42.9978 141.585Z" fill="#E2EFFE"/>
<path d="M42.9978 145.366C42.7871 145.366 42.5762 145.286 42.4155 145.125C42.0938 144.804 42.0938 144.283 42.4155 143.962L44.7089 141.671C45.0305 141.349 45.5521 141.349 45.8736 141.671C46.1952 141.992 46.1952 142.513 45.8736 142.834L43.5802 145.125C43.4194 145.286 43.2087 145.366 42.9978 145.366Z" fill="#E2EFFE"/>
<path d="M57.4893 156.906H33.9405C33.2013 156.906 32.5028 157.242 32.0415 157.818L29.1496 160.898C28.7948 161.343 29.1111 162 29.679 162H57.4893V156.906Z" fill="#157DF5"/>
<rect x="57.4893" y="162" width="20.779" height="3" fill="#1E203E"/>
<rect x="34.7305" y="162" width="22.758" height="3" fill="#282A52"/>
<defs>
<filter id="filter0_dd_14697_11168" x="6" y="9" width="100" height="100" filterUnits="userSpaceOnUse" color-interpolation-filters="sRGB">
<feFlood flood-opacity="0" result="BackgroundImageFix"/>
<feColorMatrix in="SourceAlpha" type="matrix" values="0 0 0 0 0 0 0 0 0 0 0 0 0 0 0 0 0 0 127 0" result="hardAlpha"/>
<feOffset dy="3"/>
<feGaussianBlur stdDeviation="5"/>
<feColorMatrix type="matrix" values="0 0 0 0 0.516667 0 0 0 0 0.578358 0 0 0 0 0.775 0 0 0 0.12 0"/>
<feBlend mode="normal" in2="BackgroundImageFix" result="effect1_dropShadow_14697_11168"/>
<feColorMatrix in="SourceAlpha" type="matrix" values="0 0 0 0 0 0 0 0 0 0 0 0 0 0 0 0 0 0 127 0" result="hardAlpha"/>
<feOffset dy="1"/>
<feGaussianBlur stdDeviation="3"/>
<feColorMatrix type="matrix" values="0 0 0 0 0.709809 0 0 0 0 0.788943 0 0 0 0 0.920833 0 0 0 0.15 0"/>
<feBlend mode="normal" in2="effect1_dropShadow_14697_11168" result="effect2_dropShadow_14697_11168"/>
<feBlend mode="normal" in="SourceGraphic" in2="effect2_dropShadow_14697_11168" result="shape"/>
</filter>
</defs>
</svg>
