<svg width="112" height="208" viewBox="0 0 112 208" fill="none" xmlns="http://www.w3.org/2000/svg">
<rect x="0.5" y="0.5" width="111" height="207" rx="4.5" stroke="#9747FF" stroke-dasharray="10 5"/>
<g filter="url(#filter0_dd_39873_11419)">
<rect x="16" y="16" width="80" height="80" rx="8" fill="white"/>
</g>
<path d="M46.5472 28H64.0014V84H55.5015V75.0909C55.5015 72.9822 53.7921 71.2727 51.6834 71.2727H44.0017V30.5455C44.0017 29.1396 45.1414 28 46.5472 28Z" fill="#157DF5"/>
<path d="M44.0001 71.2734H51.6817C53.7904 71.2734 55.4999 72.9829 55.4999 75.0916V84.0007L44.0001 71.2734Z" fill="#0965CD"/>
<path d="M84 30.5455C84 29.1396 82.8604 28 81.4545 28H64.0003V84H81.4545C82.8604 84 84 82.8604 84 81.4545V30.5455Z" fill="#0965CD"/>
<path d="M73.9986 46.456C73.9986 45.4016 73.1439 44.5469 72.0895 44.5469H63.9988V48.3651H72.0895C73.1439 48.3651 73.9986 47.5103 73.9986 46.456Z" fill="#E2EFFE"/>
<path d="M73.9986 55.3622C73.9986 54.3079 73.1439 53.4531 72.0895 53.4531H63.9988V57.2713H72.0895C73.1439 57.2713 73.9986 56.4166 73.9986 55.3622Z" fill="#E2EFFE"/>
<path d="M61.4994 37.5419C61.4994 36.4875 60.6447 35.6328 59.5903 35.6328H53.4087C52.3543 35.6328 51.4996 36.4875 51.4996 37.5419C51.4996 38.5963 52.3543 39.451 53.4087 39.451H59.5903C60.6447 39.451 61.4994 38.5963 61.4994 37.5419Z" fill="#40D98D"/>
<path d="M61.4994 64.2763C61.4994 63.2219 60.6447 62.3672 59.5903 62.3672H53.4087C52.3543 62.3672 51.4996 63.2219 51.4996 64.2763C51.4996 65.3306 52.3543 66.1854 53.4087 66.1854H59.5903C60.6447 66.1854 61.4994 65.3306 61.4994 64.2763Z" fill="white"/>
<path d="M51.5024 46.456C51.5024 45.4016 52.3571 44.5469 53.4115 44.5469H64.0022V48.3651H53.4115C52.3571 48.3651 51.5024 47.5103 51.5024 46.456Z" fill="white"/>
<path d="M51.5024 55.3622C51.5024 54.3079 52.3571 53.4531 53.4115 53.4531H64.0022V57.2713H53.4115C52.3571 57.2713 51.5024 56.4166 51.5024 55.3622Z" fill="white"/>
<path d="M51.6008 58.738V57.7482C51.6008 57.4083 51.3209 57.1328 50.9758 57.1328H48.9084C48.5632 57.1328 48.2834 57.4083 48.2834 57.7482V58.738C46.5457 59.5115 42.7011 61.8865 42.7011 65.8479C42.7011 69.2317 45.8141 71.7834 49.9421 71.7834C54.0701 71.7834 57.183 69.2317 57.183 65.8479C57.183 61.8865 53.3384 59.5115 51.6008 58.738Z" fill="#FF7E75"/>
<path d="M32.6624 60.5329L32.2302 59.5047C31.7643 58.3964 31.6027 57.0855 32.2056 56.1004C32.2464 56.0338 32.2968 55.9731 32.3549 55.9208C33.3358 55.0387 34.4654 55.5829 34.9205 56.0973C35.2953 56.522 35.2009 57.1766 35.0642 57.7229C34.9816 58.0527 35.0037 58.4075 35.1426 58.7378L35.5749 59.766L32.6624 60.5329Z" fill="#25BB71"/>
<path d="M42.1373 61.6143C41.925 60.6026 41.2853 59.7142 40.3823 59.1768C39.4794 58.6395 38.3777 58.4917 37.3599 58.7714C37.031 58.8618 36.7215 58.9917 36.434 59.1597C35.403 58.7772 34.2657 58.788 33.2258 59.205C32.1859 59.6221 31.369 60.395 30.9107 61.3747C30.5853 61.4524 30.2716 61.5725 29.9727 61.7339C29.0473 62.2335 28.3698 63.0947 28.114 64.0969C27.8581 65.099 28.0423 66.17 28.6192 67.0356L33.1538 73.8391L43.8061 69.5671L42.1373 61.6143Z" fill="#40D98D"/>
<path d="M45.7566 52C44.6712 52 43.6917 52.4486 43.0001 53.1651L42.265 54.9745L43.0001 61.0096H44.6588V57.7115H45.279C47.3689 57.7115 48.4442 56.0509 48.4442 54.0096V52H45.7566Z" fill="#40D98D"/>
<path d="M40.2434 52H37.5558V54.625C37.5558 56.6662 38.6311 57.7115 40.721 57.7115H41.3412V61.0096H42.9999V53.165C42.3083 52.4486 41.3288 52 40.2434 52Z" fill="#40D98D"/>
<path d="M45.9821 60.5497C45.2143 59.7436 44.1274 59.2812 43.0001 59.2812L42.265 67.1787L43.0001 75.6594H46.167L47.0627 63.5461C47.1439 62.4479 46.75 61.3557 45.9821 60.5497Z" fill="#F54B5E"/>
<path d="M40.0176 60.5497C39.2497 61.3558 38.8559 62.4479 38.9371 63.5462L39.8328 75.6595H42.9997V59.2812C41.8725 59.2812 40.7855 59.7435 40.0176 60.5497Z" fill="#F54B5E"/>
<path d="M56.1251 73.5373C56.1251 73.1974 55.8496 72.9219 55.5097 72.9219H29.8751V80.3065H55.5097C55.8496 80.3065 56.1251 80.031 56.1251 79.6911V73.5373Z" fill="#B6D7FC"/>
<path d="M28.0001 69.848C28.0001 69.1682 28.5598 68.6172 29.2501 68.6172H43.0001V74.2422H29.2501C28.5598 74.2422 28.0001 73.6912 28.0001 73.0114V69.848Z" fill="#F0F7FE"/>
<path d="M58.0002 69.848C58.0002 69.1682 57.4405 68.6172 56.7502 68.6172H43.0002V74.2422H56.7502C57.4405 74.2422 58.0002 73.6912 58.0002 73.0114V69.848Z" fill="#E2EFFE"/>
<path d="M56.7501 84C57.4404 84 58.0001 83.449 58.0001 82.7692V79.6058C58.0001 78.926 57.4404 78.375 56.7501 78.375H43.0001L42.265 80.4103L43.0001 84H56.7501Z" fill="#E2EFFE"/>
<path d="M28.0001 79.6058C28.0001 78.926 28.5597 78.375 29.2501 78.375H43.0001V84H29.2501C28.5597 84 28.0001 83.449 28.0001 82.7692V79.6058Z" fill="#F0F7FE"/>
<path d="M46.5472 124H64.0014V180H55.5015V171.091C55.5015 168.982 53.7921 167.273 51.6834 167.273H44.0017V126.545C44.0017 125.14 45.1414 124 46.5472 124Z" fill="#157DF5"/>
<path d="M44.0001 167.273H51.6817C53.7904 167.273 55.4999 168.983 55.4999 171.092V180.001L44.0001 167.273Z" fill="#0965CD"/>
<path d="M84 126.545C84 125.14 82.8604 124 81.4545 124H64.0003V180H81.4545C82.8604 180 84 178.86 84 177.455V126.545Z" fill="#0965CD"/>
<path d="M73.9986 142.456C73.9986 141.402 73.1439 140.547 72.0895 140.547H63.9988V144.365H72.0895C73.1439 144.365 73.9986 143.51 73.9986 142.456Z" fill="#E2EFFE"/>
<path d="M73.9986 151.362C73.9986 150.308 73.1439 149.453 72.0895 149.453H63.9988V153.271H72.0895C73.1439 153.271 73.9986 152.417 73.9986 151.362Z" fill="#E2EFFE"/>
<path d="M61.4994 133.542C61.4994 132.488 60.6447 131.633 59.5903 131.633H53.4087C52.3543 131.633 51.4996 132.488 51.4996 133.542C51.4996 134.596 52.3543 135.451 53.4087 135.451H59.5903C60.6447 135.451 61.4994 134.596 61.4994 133.542Z" fill="#40D98D"/>
<path d="M61.4994 160.276C61.4994 159.222 60.6447 158.367 59.5903 158.367H53.4087C52.3543 158.367 51.4996 159.222 51.4996 160.276C51.4996 161.331 52.3543 162.185 53.4087 162.185H59.5903C60.6447 162.185 61.4994 161.331 61.4994 160.276Z" fill="white"/>
<path d="M51.5024 142.456C51.5024 141.402 52.3571 140.547 53.4115 140.547H64.0022V144.365H53.4115C52.3571 144.365 51.5024 143.51 51.5024 142.456Z" fill="white"/>
<path d="M51.5024 151.362C51.5024 150.308 52.3571 149.453 53.4115 149.453H64.0022V153.271H53.4115C52.3571 153.271 51.5024 152.417 51.5024 151.362Z" fill="white"/>
<path d="M51.6008 154.738V153.748C51.6008 153.408 51.3209 153.133 50.9758 153.133H48.9084C48.5632 153.133 48.2834 153.408 48.2834 153.748V154.738C46.5457 155.512 42.7011 157.886 42.7011 161.848C42.7011 165.232 45.8141 167.783 49.9421 167.783C54.0701 167.783 57.183 165.232 57.183 161.848C57.183 157.886 53.3384 155.512 51.6008 154.738Z" fill="#FF7E75"/>
<path d="M32.6624 156.533L32.2302 155.505C31.7643 154.396 31.6027 153.086 32.2056 152.1C32.2464 152.034 32.2968 151.973 32.3549 151.921C33.3358 151.039 34.4654 151.583 34.9205 152.097C35.2953 152.522 35.2009 153.177 35.0642 153.723C34.9816 154.053 35.0037 154.407 35.1426 154.738L35.5749 155.766L32.6624 156.533Z" fill="#25BB71"/>
<path d="M42.1373 157.614C41.925 156.603 41.2853 155.714 40.3823 155.177C39.4794 154.64 38.3777 154.492 37.3599 154.771C37.031 154.862 36.7215 154.992 36.434 155.16C35.403 154.777 34.2657 154.788 33.2258 155.205C32.1859 155.622 31.369 156.395 30.9107 157.375C30.5853 157.452 30.2716 157.573 29.9727 157.734C29.0473 158.234 28.3698 159.095 28.114 160.097C27.8581 161.099 28.0423 162.17 28.6192 163.036L33.1538 169.839L43.8061 165.567L42.1373 157.614Z" fill="#40D98D"/>
<path d="M45.7566 148C44.6712 148 43.6917 148.449 43.0001 149.165L42.265 150.974L43.0001 157.01H44.6588V153.712H45.279C47.3689 153.712 48.4442 152.051 48.4442 150.01V148H45.7566Z" fill="#40D98D"/>
<path d="M40.2434 148H37.5558V150.625C37.5558 152.666 38.6311 153.712 40.721 153.712H41.3412V157.01H42.9999V149.165C42.3083 148.449 41.3288 148 40.2434 148Z" fill="#40D98D"/>
<path d="M45.9821 156.55C45.2143 155.744 44.1274 155.281 43.0001 155.281L42.265 163.179L43.0001 171.659H46.167L47.0627 159.546C47.1439 158.448 46.75 157.356 45.9821 156.55Z" fill="#F54B5E"/>
<path d="M40.0176 156.55C39.2497 157.356 38.8559 158.448 38.9371 159.546L39.8328 171.66H42.9997V155.281C41.8725 155.281 40.7855 155.744 40.0176 156.55Z" fill="#F54B5E"/>
<path d="M56.1251 169.537C56.1251 169.197 55.8496 168.922 55.5097 168.922H29.8751V176.306H55.5097C55.8496 176.306 56.1251 176.031 56.1251 175.691V169.537Z" fill="#B6D7FC"/>
<path d="M28.0001 165.848C28.0001 165.168 28.5598 164.617 29.2501 164.617H43.0001V170.242H29.2501C28.5598 170.242 28.0001 169.691 28.0001 169.011V165.848Z" fill="#F0F7FE"/>
<path d="M58.0002 165.848C58.0002 165.168 57.4405 164.617 56.7502 164.617H43.0002V170.242H56.7502C57.4405 170.242 58.0002 169.691 58.0002 169.011V165.848Z" fill="#E2EFFE"/>
<path d="M56.7501 180C57.4404 180 58.0001 179.449 58.0001 178.769V175.606C58.0001 174.926 57.4404 174.375 56.7501 174.375H43.0001L42.265 176.41L43.0001 180H56.7501Z" fill="#E2EFFE"/>
<path d="M28.0001 175.606C28.0001 174.926 28.5597 174.375 29.2501 174.375H43.0001V180H29.2501C28.5597 180 28.0001 179.449 28.0001 178.769V175.606Z" fill="#F0F7FE"/>
<defs>
<filter id="filter0_dd_39873_11419" x="6" y="9" width="100" height="100" filterUnits="userSpaceOnUse" color-interpolation-filters="sRGB">
<feFlood flood-opacity="0" result="BackgroundImageFix"/>
<feColorMatrix in="SourceAlpha" type="matrix" values="0 0 0 0 0 0 0 0 0 0 0 0 0 0 0 0 0 0 127 0" result="hardAlpha"/>
<feOffset dy="3"/>
<feGaussianBlur stdDeviation="5"/>
<feColorMatrix type="matrix" values="0 0 0 0 0.516667 0 0 0 0 0.578358 0 0 0 0 0.775 0 0 0 0.12 0"/>
<feBlend mode="normal" in2="BackgroundImageFix" result="effect1_dropShadow_39873_11419"/>
<feColorMatrix in="SourceAlpha" type="matrix" values="0 0 0 0 0 0 0 0 0 0 0 0 0 0 0 0 0 0 127 0" result="hardAlpha"/>
<feOffset dy="1"/>
<feGaussianBlur stdDeviation="3"/>
<feColorMatrix type="matrix" values="0 0 0 0 0.709809 0 0 0 0 0.788943 0 0 0 0 0.920833 0 0 0 0.15 0"/>
<feBlend mode="normal" in2="effect1_dropShadow_39873_11419" result="effect2_dropShadow_39873_11419"/>
<feBlend mode="normal" in="SourceGraphic" in2="effect2_dropShadow_39873_11419" result="shape"/>
</filter>
</defs>
</svg>
