<svg width="112" height="208" viewBox="0 0 112 208" fill="none" xmlns="http://www.w3.org/2000/svg">
<rect x="0.5" y="0.5" width="111" height="207" rx="4.5" stroke="#9747FF" stroke-dasharray="10 5"/>
<g filter="url(#filter0_d_14896_16444)">
<rect x="16" y="16" width="80" height="80" rx="8" fill="white"/>
</g>
<g clip-path="url(#clip0_14896_16444)">
<path d="M84 50.9742H74.3933C67.6722 50.9742 61.4751 54.2528 57.6392 59.7281V75.7828H54.3606V69.5641C50.5247 64.0889 44.3276 60.8102 37.6065 60.8102H28C28.2297 60.4824 30.1312 50.9742 39.6066 50.9742C45.6721 50.9742 50.6558 55.7282 51.0492 61.6955C52.2295 62.5152 53.3442 63.4331 54.3607 64.4495V49.3348C54.3607 44.8103 50.6885 41.1381 46.164 41.1381H37.9673V39.4988C37.9673 34.9742 41.6394 31.3021 46.164 31.3021C50.6885 31.3021 54.3607 34.9742 54.3607 39.4988C54.3607 40.0561 54.295 40.6137 54.1966 41.1381C54.5248 41.4659 54.787 41.8268 55.082 42.1873C55.3445 41.4987 55.6395 40.843 56.0001 40.22C56.492 39.3678 57.1152 38.5481 57.8035 37.8595C57.705 37.335 57.6394 36.7774 57.6394 36.2201C57.6394 31.6956 61.3116 28.0234 65.8361 28.0234C70.3607 28.0234 74.0328 31.6956 74.0328 36.2201V37.8595H65.8361C61.3116 37.8595 57.6394 41.5316 57.6394 46.0562V54.6135C58.6561 53.5971 59.7707 52.6792 60.9509 51.8595C61.4099 45.7939 66.3604 41.1381 72.3935 41.1381C81.9016 41.1381 83.7375 50.5807 84 50.9742Z" fill="#40D98D"/>
<path d="M84.0001 50.9742H74.3934C67.6723 50.9742 61.4752 54.2528 57.6393 59.7281V75.7828H56V40.22C56.4919 39.3678 57.1151 38.5481 57.8034 37.8595C57.7049 37.335 57.6393 36.7774 57.6393 36.2201C57.6393 31.6956 61.3115 28.0234 65.836 28.0234C70.3606 28.0234 74.0327 31.6956 74.0327 36.2201V37.8595H65.836C61.3115 37.8595 57.6393 41.5316 57.6393 46.0562V54.6135C58.6559 53.5971 59.7706 52.6792 60.9508 51.8595C61.4098 45.7939 66.3603 41.1381 72.3934 41.1381C81.9018 41.1381 83.7376 50.5807 84.0001 50.9742Z" fill="#25BB71"/>
<path d="M75.6723 80.698C71.2505 80.698 69.1629 79.3068 66.7455 77.6947C64.2481 76.0282 61.4145 74.1406 56.0002 74.1406C50.5859 74.1406 47.7523 76.0282 45.2549 77.6947C42.8375 79.3068 40.7499 80.698 36.3282 80.698H34.0331C32.5845 80.698 31.4102 81.8723 31.4102 83.3209C31.4102 83.6831 31.7037 83.9767 32.0659 83.9767H79.9346C80.2967 83.9767 80.5903 83.6831 80.5903 83.3209C80.5903 81.8723 79.416 80.698 77.9674 80.698H75.6723Z" fill="#FFDECC"/>
<path d="M79.9985 83.9767C80.3607 83.9767 80.5901 83.6831 80.5901 83.3209C80.5901 81.8723 79.4157 80.698 77.9671 80.698H75.6721C71.2503 80.698 69.1627 79.3068 66.7453 77.6947C64.2478 76.0282 61.4143 74.1406 56 74.1406V83.9767C56.5135 83.9767 76.2143 83.9767 79.9985 83.9767Z" fill="#FFCFB5"/>
</g>
<path d="M58.5088 40.1886L58.4915 37.4328C58.4896 37.1225 58.6555 36.8353 58.9254 36.6821L61.3214 35.3217L62.6818 32.9256C62.835 32.6557 63.1222 32.4898 63.4325 32.4917L66.1885 32.5089L68.5672 31.1173C68.7008 31.0391 68.8504 31 69 31L70.1429 43L69 55C68.8504 55 68.7008 54.9609 68.5672 54.8827L66.1885 53.4911L63.4325 53.5083C63.1222 53.5102 62.835 53.3442 62.6818 53.0743L61.3214 50.6783L58.9254 49.3179C58.6555 49.1646 58.4896 48.8775 58.4915 48.5671L58.5088 45.8113L57.1173 43.4327C56.9609 43.1654 56.9609 42.8345 57.1173 42.5671L58.5088 40.1886Z" fill="#FFD944"/>
<path d="M79.4912 40.1886L79.5085 37.4328C79.5104 37.1225 79.3445 36.8353 79.0746 36.6821L76.6786 35.3217L75.3182 32.9256C75.165 32.6557 74.8778 32.4898 74.5675 32.4917L71.8115 32.5089L69.4328 31.1173C69.2991 31.0391 69.1496 31 69 31V55C69.1496 55 69.2991 54.9609 69.4328 54.8827L71.8115 53.4911L74.5675 53.5083C74.8778 53.5102 75.165 53.3442 75.3182 53.0743L76.6786 50.6783L79.0746 49.3179C79.3445 49.1646 79.5104 48.8775 79.5085 48.5671L79.4912 45.8113L80.8827 43.4327C81.0391 43.1653 81.0391 42.8344 80.8827 42.5671L79.4912 40.1886Z" fill="#FFB555"/>
<path d="M58.4915 37.4328L58.5088 40.1886L57.1173 42.5671C56.9609 42.8345 56.9609 43.1654 57.1173 43.4327L58.5088 45.8113L58.4915 48.5671C58.4896 48.8775 58.6555 49.1646 58.9254 49.3179L61.3214 50.6783L62.6818 53.0743C62.835 53.3442 63.1222 53.5102 63.4325 53.5083L66.1885 53.4911L68.5672 54.8827C68.7008 54.9609 68.8504 55 69 55C69.1496 55 69.2991 54.9609 69.4328 54.8827L71.8115 53.4911L74.5675 53.5083C74.8778 53.5102 75.165 53.3442 75.3182 53.0743L76.6786 50.6783L79.0746 49.3179C79.3445 49.1646 79.5104 48.8775 79.5085 48.5671L79.4912 45.8113L80.8827 43.4327C81.0391 43.1653 81.0391 42.8344 80.8827 42.5671L79.4912 40.1886L79.5085 37.4328C79.5104 37.1225 79.3445 36.8353 79.0746 36.6821L76.6786 35.3217L75.3182 32.9256C75.165 32.6557 74.8778 32.4898 74.5675 32.4917L71.8115 32.5089L69.4328 31.1173C69.2991 31.0391 69.1496 31 69 31C68.8504 31 68.7008 31.0391 68.5672 31.1173L66.1885 32.5089L63.4325 32.4917C63.1222 32.4898 62.835 32.6557 62.6818 32.9256L61.3214 35.3217L58.9254 36.6821C58.6555 36.8353 58.4896 37.1225 58.4915 37.4328Z" fill="#FFB555"/>
<path fill-rule="evenodd" clip-rule="evenodd" d="M75.3182 53.0743C75.1649 53.3442 74.8778 53.5102 74.5675 53.5083L71.8115 53.4911L69.4328 54.8827C69.2991 54.9609 69.1496 55 69 55C68.8504 55 68.7008 54.9609 68.5672 54.8827L66.1885 53.4911L63.4325 53.5083C63.1221 53.5102 62.835 53.3442 62.6817 53.0743L61.3213 50.6783L58.9254 49.3179C58.6555 49.1646 58.4896 48.8775 58.4915 48.5671L58.5088 45.8113L57.1173 43.4327C56.9609 43.1654 56.9609 42.8345 57.1173 42.5671L58.5088 40.1886L58.4915 37.4328C58.4896 37.1225 58.6555 36.8353 58.9254 36.6821L61.3213 35.3217L62.6817 32.9256C62.835 32.6557 63.1221 32.4898 63.4325 32.4917L66.1885 32.5089L68.5672 31.1173C68.7008 31.0391 68.8504 31 69 31C69.1496 31 69.2991 31.0391 69.4328 31.1173L71.8115 32.5089L74.5675 32.4917C74.8778 32.4898 75.1649 32.6557 75.3182 32.9256L76.6786 35.3217L79.0745 36.6821C79.3444 36.8353 79.5104 37.1225 79.5084 37.4328L79.4912 40.1886L80.8827 42.5671C81.0391 42.8344 81.0391 43.1653 80.8827 43.4327L79.4912 45.8113L79.5084 48.5671C79.5104 48.8775 79.3444 49.1646 79.0745 49.3179L76.6786 50.6783L75.3182 53.0743ZM78.8791 52.8787L77.927 54.5556C77.2376 55.7696 75.9456 56.5169 74.5488 56.5082C74.5488 56.5082 74.5488 56.5082 74.5488 56.5082L72.6159 56.4962L70.9482 57.4718C70.3463 57.8241 69.6723 58 69 58C68.3277 58 67.6536 57.8241 67.0517 57.4718L65.3841 56.4962L63.4512 56.5082C63.4512 56.5082 63.4513 56.5082 63.4512 56.5082C62.0544 56.5169 60.7624 55.7698 60.073 54.5557L59.1208 52.8787L57.4441 51.9267C56.2297 51.2371 55.4828 49.9448 55.4916 48.5484L55.5037 46.6157L54.5278 44.9476C53.8242 43.7447 53.8239 42.2555 54.5278 41.0523C54.5278 41.0523 54.5278 41.0522 54.5278 41.0523L55.5037 39.3842L55.4916 37.4516C55.4828 36.0555 56.2292 34.763 57.4441 34.0733C57.444 34.0733 57.4442 34.0732 57.4441 34.0733L59.1208 33.1212L60.0729 31.4444C60.7625 30.23 62.0547 29.4831 63.4511 29.4918C63.4511 29.4918 63.4512 29.4918 63.4511 29.4918L65.3841 29.5038L67.0518 28.5282C67.0516 28.5283 67.0519 28.5281 67.0518 28.5282C67.6535 28.1761 68.3279 28 69 28C69.6721 28 70.3459 28.1758 70.9476 28.5279C70.9474 28.5278 70.9478 28.528 70.9476 28.5279L72.6159 29.5038L74.5487 29.4918C74.5486 29.4918 74.5487 29.4918 74.5487 29.4918C75.9451 29.4831 77.2373 30.2298 77.9269 31.4442L78.8791 33.1212L80.5555 34.0731C80.5554 34.073 80.5556 34.0731 80.5555 34.0731C81.7704 34.7629 82.5171 36.0555 82.5084 37.4516L82.4963 39.3842L83.472 41.0521C83.472 41.0521 83.472 41.0521 83.472 41.0521C84.1759 42.2553 84.1758 43.7445 83.4722 44.9474L82.4963 46.6156L82.5084 48.5484C82.5171 49.9448 81.7704 51.237 80.5559 51.9266L78.8791 52.8787Z" fill="white"/>
<path d="M68.9998 50.1429C65.0612 50.1429 61.8569 46.9386 61.8569 43C61.8569 39.0615 65.0612 35.8572 68.9998 35.8572L73.8569 43L68.9998 50.1429Z" fill="#FFF58D"/>
<path d="M69 35.8572V50.1429C72.9386 50.1429 76.1429 46.9386 76.1429 43C76.1429 39.0615 72.9386 35.8572 69 35.8572Z" fill="#FFD944"/>
<g clip-path="url(#clip1_14896_16444)">
<path d="M84 146.974H74.3933C67.6722 146.974 61.4751 150.253 57.6392 155.728V171.783H54.3606V165.564C50.5247 160.089 44.3276 156.81 37.6065 156.81H28C28.2297 156.482 30.1312 146.974 39.6066 146.974C45.6721 146.974 50.6558 151.728 51.0492 157.696C52.2295 158.515 53.3442 159.433 54.3607 160.45V145.335C54.3607 140.81 50.6885 137.138 46.164 137.138H37.9673V135.499C37.9673 130.974 41.6394 127.302 46.164 127.302C50.6885 127.302 54.3607 130.974 54.3607 135.499C54.3607 136.056 54.295 136.614 54.1966 137.138C54.5248 137.466 54.787 137.827 55.082 138.187C55.3445 137.499 55.6395 136.843 56.0001 136.22C56.492 135.368 57.1152 134.548 57.8035 133.859C57.705 133.335 57.6394 132.777 57.6394 132.22C57.6394 127.696 61.3116 124.023 65.8361 124.023C70.3607 124.023 74.0328 127.696 74.0328 132.22V133.859H65.8361C61.3116 133.859 57.6394 137.532 57.6394 142.056V150.613C58.6561 149.597 59.7707 148.679 60.9509 147.86C61.4099 141.794 66.3604 137.138 72.3935 137.138C81.9016 137.138 83.7375 146.581 84 146.974Z" fill="#40D98D"/>
<path d="M84.0001 146.974H74.3934C67.6723 146.974 61.4752 150.253 57.6393 155.728V171.783H56V136.22C56.4919 135.368 57.1151 134.548 57.8034 133.859C57.7049 133.335 57.6393 132.777 57.6393 132.22C57.6393 127.696 61.3115 124.023 65.836 124.023C70.3606 124.023 74.0327 127.696 74.0327 132.22V133.859H65.836C61.3115 133.859 57.6393 137.532 57.6393 142.056V150.613C58.6559 149.597 59.7706 148.679 60.9508 147.86C61.4098 141.794 66.3603 137.138 72.3934 137.138C81.9018 137.138 83.7376 146.581 84.0001 146.974Z" fill="#25BB71"/>
<path d="M75.6723 176.698C71.2505 176.698 69.1629 175.307 66.7455 173.695C64.2481 172.028 61.4145 170.141 56.0002 170.141C50.5859 170.141 47.7523 172.028 45.2549 173.695C42.8375 175.307 40.7499 176.698 36.3282 176.698H34.0331C32.5845 176.698 31.4102 177.872 31.4102 179.321C31.4102 179.683 31.7037 179.977 32.0659 179.977H79.9346C80.2967 179.977 80.5903 179.683 80.5903 179.321C80.5903 177.872 79.416 176.698 77.9674 176.698H75.6723Z" fill="#FFDECC"/>
<path d="M79.9985 179.977C80.3607 179.977 80.5901 179.683 80.5901 179.321C80.5901 177.872 79.4157 176.698 77.9671 176.698H75.6721C71.2503 176.698 69.1627 175.307 66.7453 173.695C64.2478 172.028 61.4143 170.141 56 170.141V179.977C56.5135 179.977 76.2143 179.977 79.9985 179.977Z" fill="#FFCFB5"/>
</g>
<path d="M58.5088 136.189L58.4915 133.433C58.4896 133.122 58.6555 132.835 58.9254 132.682L61.3214 131.322L62.6818 128.926C62.835 128.656 63.1222 128.49 63.4325 128.492L66.1885 128.509L68.5672 127.117C68.7008 127.039 68.8504 127 69 127L70.1429 139L69 151C68.8504 151 68.7008 150.961 68.5672 150.883L66.1885 149.491L63.4325 149.508C63.1222 149.51 62.835 149.344 62.6818 149.074L61.3214 146.678L58.9254 145.318C58.6555 145.165 58.4896 144.877 58.4915 144.567L58.5088 141.811L57.1173 139.433C56.9609 139.165 56.9609 138.834 57.1173 138.567L58.5088 136.189Z" fill="#FFD944"/>
<path d="M79.4912 136.189L79.5085 133.433C79.5104 133.122 79.3445 132.835 79.0746 132.682L76.6786 131.322L75.3182 128.926C75.165 128.656 74.8778 128.49 74.5675 128.492L71.8115 128.509L69.4328 127.117C69.2991 127.039 69.1496 127 69 127V151C69.1496 151 69.2991 150.961 69.4328 150.883L71.8115 149.491L74.5675 149.508C74.8778 149.51 75.165 149.344 75.3182 149.074L76.6786 146.678L79.0746 145.318C79.3445 145.165 79.5104 144.877 79.5085 144.567L79.4912 141.811L80.8827 139.433C81.0391 139.165 81.0391 138.834 80.8827 138.567L79.4912 136.189Z" fill="#FFB555"/>
<path d="M58.4915 133.433L58.5088 136.189L57.1173 138.567C56.9609 138.834 56.9609 139.165 57.1173 139.433L58.5088 141.811L58.4915 144.567C58.4896 144.877 58.6555 145.165 58.9254 145.318L61.3214 146.678L62.6818 149.074C62.835 149.344 63.1222 149.51 63.4325 149.508L66.1885 149.491L68.5672 150.883C68.7008 150.961 68.8504 151 69 151C69.1496 151 69.2991 150.961 69.4328 150.883L71.8115 149.491L74.5675 149.508C74.8778 149.51 75.165 149.344 75.3182 149.074L76.6786 146.678L79.0746 145.318C79.3445 145.165 79.5104 144.877 79.5085 144.567L79.4912 141.811L80.8827 139.433C81.0391 139.165 81.0391 138.834 80.8827 138.567L79.4912 136.189L79.5085 133.433C79.5104 133.122 79.3445 132.835 79.0746 132.682L76.6786 131.322L75.3182 128.926C75.165 128.656 74.8778 128.49 74.5675 128.492L71.8115 128.509L69.4328 127.117C69.2991 127.039 69.1496 127 69 127C68.8504 127 68.7008 127.039 68.5672 127.117L66.1885 128.509L63.4325 128.492C63.1222 128.49 62.835 128.656 62.6818 128.926L61.3214 131.322L58.9254 132.682C58.6555 132.835 58.4896 133.122 58.4915 133.433Z" fill="#FFB555"/>
<path fill-rule="evenodd" clip-rule="evenodd" d="M75.3182 149.074C75.1649 149.344 74.8778 149.51 74.5675 149.508L71.8115 149.491L69.4328 150.883C69.2991 150.961 69.1496 151 69 151C68.8504 151 68.7008 150.961 68.5672 150.883L66.1885 149.491L63.4325 149.508C63.1221 149.51 62.835 149.344 62.6817 149.074L61.3213 146.678L58.9254 145.318C58.6555 145.165 58.4896 144.877 58.4915 144.567L58.5088 141.811L57.1173 139.433C56.9609 139.165 56.9609 138.834 57.1173 138.567L58.5088 136.189L58.4915 133.433C58.4896 133.122 58.6555 132.835 58.9254 132.682L61.3213 131.322L62.6817 128.926C62.835 128.656 63.1221 128.49 63.4325 128.492L66.1885 128.509L68.5672 127.117C68.7008 127.039 68.8504 127 69 127C69.1496 127 69.2991 127.039 69.4328 127.117L71.8115 128.509L74.5675 128.492C74.8778 128.49 75.1649 128.656 75.3182 128.926L76.6786 131.322L79.0745 132.682C79.3444 132.835 79.5104 133.122 79.5084 133.433L79.4912 136.189L80.8827 138.567C81.0391 138.834 81.0391 139.165 80.8827 139.433L79.4912 141.811L79.5084 144.567C79.5104 144.877 79.3444 145.165 79.0745 145.318L76.6786 146.678L75.3182 149.074ZM78.8791 148.879L77.927 150.556C77.2376 151.77 75.9456 152.517 74.5488 152.508C74.5488 152.508 74.5488 152.508 74.5488 152.508L72.6159 152.496L70.9482 153.472C70.3463 153.824 69.6723 154 69 154C68.3277 154 67.6536 153.824 67.0517 153.472L65.3841 152.496L63.4512 152.508C63.4512 152.508 63.4513 152.508 63.4512 152.508C62.0544 152.517 60.7624 151.77 60.073 150.556L59.1208 148.879L57.4441 147.927C56.2297 147.237 55.4828 145.945 55.4916 144.548L55.5037 142.616L54.5278 140.948C53.8242 139.745 53.8239 138.255 54.5278 137.052C54.5278 137.052 54.5278 137.052 54.5278 137.052L55.5037 135.384L55.4916 133.452C55.4828 132.056 56.2292 130.763 57.4441 130.073C57.444 130.073 57.4442 130.073 57.4441 130.073L59.1208 129.121L60.0729 127.444C60.7625 126.23 62.0547 125.483 63.4511 125.492C63.4511 125.492 63.4512 125.492 63.4511 125.492L65.3841 125.504L67.0518 124.528C67.0516 124.528 67.0519 124.528 67.0518 124.528C67.6535 124.176 68.3279 124 69 124C69.6721 124 70.3459 124.176 70.9476 124.528C70.9474 124.528 70.9478 124.528 70.9476 124.528L72.6159 125.504L74.5487 125.492C74.5486 125.492 74.5487 125.492 74.5487 125.492C75.9451 125.483 77.2373 126.23 77.9269 127.444L78.8791 129.121L80.5555 130.073C80.5554 130.073 80.5556 130.073 80.5555 130.073C81.7704 130.763 82.5171 132.056 82.5084 133.452L82.4963 135.384L83.472 137.052C83.472 137.052 83.472 137.052 83.472 137.052C84.1759 138.255 84.1758 139.745 83.4722 140.947L82.4963 142.616L82.5084 144.548C82.5171 145.945 81.7704 147.237 80.5559 147.927L78.8791 148.879Z" fill="white"/>
<path d="M68.9998 146.143C65.0612 146.143 61.8569 142.939 61.8569 139C61.8569 135.061 65.0612 131.857 68.9998 131.857L73.8569 139L68.9998 146.143Z" fill="#FFF58D"/>
<path d="M69 131.857V146.143C72.9386 146.143 76.1429 142.939 76.1429 139C76.1429 135.061 72.9386 131.857 69 131.857Z" fill="#FFD944"/>
<defs>
<filter id="filter0_d_14896_16444" x="10" y="9" width="96" height="96" filterUnits="userSpaceOnUse" color-interpolation-filters="sRGB">
<feFlood flood-opacity="0" result="BackgroundImageFix"/>
<feColorMatrix in="SourceAlpha" type="matrix" values="0 0 0 0 0 0 0 0 0 0 0 0 0 0 0 0 0 0 127 0" result="hardAlpha"/>
<feOffset dx="2" dy="1"/>
<feGaussianBlur stdDeviation="4"/>
<feColorMatrix type="matrix" values="0 0 0 0 0.0392157 0 0 0 0 0.0392157 0 0 0 0 0.0627451 0 0 0 0.08 0"/>
<feBlend mode="normal" in2="BackgroundImageFix" result="effect1_dropShadow_14896_16444"/>
<feBlend mode="normal" in="SourceGraphic" in2="effect1_dropShadow_14896_16444" result="shape"/>
</filter>
<clipPath id="clip0_14896_16444">
<rect width="56" height="56" fill="white" transform="translate(28 28)"/>
</clipPath>
<clipPath id="clip1_14896_16444">
<rect width="56" height="56" fill="white" transform="translate(28 124)"/>
</clipPath>
</defs>
</svg>
