<svg width="112" height="200" viewBox="0 0 112 200" fill="none" xmlns="http://www.w3.org/2000/svg">
<rect x="0.5" y="0.5" width="111" height="199" rx="4.5" stroke="#9747FF" stroke-dasharray="10 5"/>
<g filter="url(#filter0_d_17640_13120)">
<rect x="16" y="16" width="80" height="80" rx="8" fill="white"/>
</g>
<path d="M44.0023 33.8636V58.6584C44.0023 58.9795 44.113 59.2913 44.3168 59.5408L53.2396 70.4862C53.5038 70.8111 53.901 71 54.3206 71H72.2817C73.8203 71 75.0724 69.7472 75.0724 68.2078V33.8636C75.0724 32.1669 76.4443 30.7922 78.1422 30.7922C78.9124 30.7922 79.5376 30.1668 79.5376 29.3961C79.5376 28.6255 80.3078 28 79.5376 28H49.8629C46.6312 28 44.0023 30.6303 44.0023 33.8636Z" fill="#E2EFFE"/>
<path d="M44.0003 58.6584V33.8636C44.0003 30.6303 46.6292 28 49.8608 28H60.3936V71H54.3186H45.5003C44.6719 71 44.0003 70.3284 44.0003 69.5V58.6584Z" fill="#F0F7FE"/>
<path d="M71.3504 43.6557C71.3504 44.5653 70.6125 45.3035 69.7034 45.3035H65.0406C64.1314 45.3035 63.3936 44.5653 63.3936 43.6557C63.3936 42.7461 64.1314 42.0078 65.0406 42.0078H69.7034C70.6125 42.0078 71.3504 42.7461 71.3504 43.6557Z" fill="#282A52"/>
<path d="M71.3504 50.6635C71.3504 51.5731 70.6125 52.3113 69.7034 52.3113H65.0406C64.1314 52.3113 63.3936 51.5731 63.3936 50.6635C63.3936 49.7539 64.1314 49.0156 65.0406 49.0156H69.7034C70.6125 49.0156 71.3504 49.7539 71.3504 50.6635Z" fill="#282A52"/>
<path d="M71.3504 36.6479C71.3504 37.5575 70.6125 38.2957 69.7034 38.2957H65.0406C64.1314 38.2957 63.3936 37.5575 63.3936 36.6479C63.3936 35.7382 64.1314 35 65.0406 35H69.7034C70.6125 35 71.3504 35.7382 71.3504 36.6479Z" fill="#0965CD"/>
<path d="M54.9569 36.6479C54.9569 37.5575 54.219 38.2957 53.3098 38.2957H48.6471C47.7379 38.2957 47 37.5575 47 36.6479C47 35.7382 47.7379 35 48.6471 35H53.3098C54.219 35 54.9569 35.7382 54.9569 36.6479Z" fill="#40D98D"/>
<path d="M75.0707 42.7056H81.2103C82.7516 42.7056 84.001 41.4556 84.001 39.9134V32.4675C84.001 30.0002 82.0019 28 79.5358 28C77.0766 28 75.0707 29.9934 75.0707 32.4675V42.7056Z" fill="#B6D7FC"/>
<path d="M47.0386 44V44.9183H38.9518V44H32.6726C31.7489 44 31 44.7489 31 45.6726V66.5C31 67.3284 31.6716 68 32.5 68H53.5C54.3284 68 55 67.3284 55 66.5V46.2769C55 45.0194 53.9806 44.0001 52.7232 44.0001L47.0386 44Z" fill="#157DF5"/>
<path d="M47.0382 44.9184H43.0029V68H53.4998C54.3282 68 54.9998 67.3284 54.9998 66.5V45.5158C54.9998 44.6787 54.3212 44 53.484 44H47.0382V44.9184Z" fill="#0965CD"/>
<path d="M46.3073 51.303H39.6914C39.2826 51.303 38.9512 50.9716 38.9512 50.5628V44H47.0476V50.5628C47.0475 50.9716 46.7161 51.303 46.3073 51.303Z" fill="#40D98D"/>
<path d="M43.0029 51.303H46.2617C46.6959 51.303 47.0479 50.9509 47.0479 50.5167V44H43.0029V51.303Z" fill="#25BB71"/>
<path fill-rule="evenodd" clip-rule="evenodd" d="M55 46.2769V66.5C55 67.3284 54.3282 68 53.4998 68H32.5C31.6716 68 31 67.3284 31 66.5V45.6726C31 44.7489 31.7489 44 32.6726 44H53.484C54.3212 44 54.9998 44.6787 54.9998 45.5158V46.2438L55 46.2769ZM57.9998 46.2331V45.5158C57.9998 43.022 55.9782 41 53.484 41H32.6726C30.092 41 28 43.092 28 45.6726V66.5C28 68.9853 30.0147 71 32.5 71H53.4998C55.9844 71 58 68.9859 58 66.5V46.2662L57.9998 46.2331Z" fill="white"/>
<circle cx="69.5" cy="70.4922" r="4.5" fill="white"/>
<path d="M79.6575 67.2143C79.2199 67.1508 78.8022 66.9893 78.4356 66.7419C78.0691 66.4946 77.763 66.1677 77.5403 65.7857C77.3175 65.4036 77.1839 64.9763 77.1492 64.5354C77.1145 64.0945 77.1797 63.6515 77.34 63.2393C77.4419 62.9699 77.4569 62.6753 77.3829 62.3969C77.309 62.1185 77.1497 61.8702 76.9275 61.6868C75.9465 60.8631 74.8299 60.216 73.6275 59.7743C73.3537 59.6726 73.0548 59.6599 72.7733 59.738C72.4919 59.8161 72.2423 59.9811 72.06 60.2093C71.7857 60.5601 71.4352 60.8438 71.0349 61.0389C70.6347 61.2339 70.1953 61.3353 69.75 61.3353C69.3048 61.3353 68.8653 61.2339 68.4651 61.0389C68.0649 60.8438 67.7143 60.5601 67.44 60.2093C67.2578 59.9811 67.0082 59.8161 66.7267 59.738C66.4452 59.6599 66.1463 59.6726 65.8725 59.7743C64.7623 60.1821 63.7242 60.7644 62.7975 61.4993C62.5639 61.6843 62.3957 61.9391 62.3174 62.2266C62.2391 62.514 62.2549 62.819 62.3625 63.0968C62.5356 63.5199 62.6071 63.9776 62.5713 64.4333C62.5355 64.889 62.3934 65.33 62.1564 65.7209C61.9194 66.1117 61.5941 66.4416 61.2066 66.684C60.8191 66.9265 60.3802 67.0747 59.925 67.1168C59.6295 67.1484 59.352 67.2741 59.1332 67.4752C58.9145 67.6764 58.7662 67.9425 58.71 68.2343C58.5704 68.9256 58.5 69.6291 58.5 70.3343C58.499 70.9248 58.5467 71.5143 58.6425 72.0968C58.6902 72.398 58.8358 72.6751 59.0568 72.8852C59.2778 73.0954 59.5618 73.2268 59.865 73.2593C60.3302 73.303 60.7781 73.4574 61.1713 73.7097C61.5645 73.962 61.8916 74.3048 62.1251 74.7095C62.3586 75.1141 62.4918 75.5688 62.5136 76.0355C62.5353 76.5021 62.4449 76.9673 62.25 77.3918C62.1225 77.668 62.0908 77.9789 62.1601 78.2751C62.2294 78.5713 62.3957 78.8359 62.6325 79.0268C63.6076 79.8356 64.7134 80.4723 65.9025 80.9093C66.0546 80.962 66.2141 80.9899 66.375 80.9918C66.5956 80.9914 66.8129 80.938 67.0087 80.8362C67.2044 80.7344 67.3729 80.5872 67.5 80.4068C67.7673 80.0174 68.1257 79.699 68.5439 79.4795C68.9621 79.2599 69.4276 79.1457 69.9 79.1468C70.3577 79.1474 70.8089 79.2549 71.2178 79.4606C71.6266 79.6663 71.9818 79.9646 72.255 80.3318C72.4367 80.5761 72.6942 80.7535 72.9872 80.8362C73.2802 80.919 73.5923 80.9025 73.875 80.7893C74.9623 80.3518 75.9745 79.747 76.875 78.9968C77.1012 78.8098 77.2623 78.5559 77.3351 78.2715C77.4078 77.9872 77.3886 77.687 77.28 77.4143C77.1036 76.9967 77.0267 76.5438 77.0553 76.0914C77.084 75.639 77.2174 75.1994 77.4451 74.8073C77.6727 74.4153 77.9884 74.0815 78.3671 73.8324C78.7459 73.5833 79.1774 73.4256 79.6275 73.3718C79.9194 73.3315 80.1909 73.1992 80.4026 72.9943C80.6143 72.7893 80.7552 72.5223 80.805 72.2318C80.9255 71.6063 80.9907 70.9713 81 70.3343C81.0002 69.6625 80.9374 68.992 80.8125 68.3318C80.7619 68.0478 80.623 67.787 80.4157 67.5864C80.2083 67.3858 79.9431 67.2556 79.6575 67.2143ZM73.5 70.3343C73.5 71.076 73.2801 71.801 72.868 72.4177C72.456 73.0344 71.8703 73.5151 71.1851 73.7989C70.4999 74.0827 69.7459 74.157 69.0184 74.0123C68.291 73.8676 67.6228 73.5104 67.0984 72.986C66.5739 72.4615 66.2168 71.7934 66.0721 71.0659C65.9274 70.3385 66.0016 69.5845 66.2855 68.8993C66.5693 68.2141 67.0499 67.6284 67.6666 67.2163C68.2833 66.8043 69.0083 66.5843 69.75 66.5843C70.7446 66.5843 71.6984 66.9794 72.4017 67.6827C73.1049 68.386 73.5 69.3398 73.5 70.3343Z" fill="#40D98D"/>
<path fill-rule="evenodd" clip-rule="evenodd" d="M69.75 79.1504C69.7999 79.1479 69.8499 79.1467 69.9 79.1468C70.3577 79.1474 70.8089 79.2549 71.2178 79.4606C71.6266 79.6663 71.9818 79.9646 72.255 80.3318C72.4367 80.5761 72.6942 80.7535 72.9872 80.8362C73.2802 80.919 73.5923 80.9025 73.875 80.7893C74.9623 80.3518 75.9745 79.747 76.875 78.9968C77.1012 78.8098 77.2623 78.5559 77.3351 78.2715C77.4078 77.9872 77.3886 77.687 77.28 77.4143C77.1036 76.9967 77.0267 76.5438 77.0553 76.0914C77.084 75.639 77.2174 75.1994 77.4451 74.8073C77.6727 74.4153 77.9884 74.0815 78.3671 73.8324C78.7459 73.5833 79.1774 73.4256 79.6275 73.3718C79.9194 73.3315 80.1909 73.1992 80.4026 72.9943C80.6143 72.7893 80.7552 72.5223 80.805 72.2318C80.9255 71.6063 80.9907 70.9713 81 70.3343C81.0002 69.6625 80.9374 68.992 80.8125 68.3318C80.7619 68.0478 80.623 67.787 80.4157 67.5864C80.2083 67.3858 79.9431 67.2556 79.6575 67.2143C79.2199 67.1508 78.8022 66.9893 78.4356 66.7419C78.0691 66.4946 77.763 66.1677 77.5403 65.7857C77.3175 65.4036 77.1839 64.9763 77.1492 64.5354C77.1145 64.0945 77.1797 63.6515 77.34 63.2393C77.4419 62.9699 77.4569 62.6753 77.3829 62.3969C77.309 62.1185 77.1497 61.8702 76.9275 61.6868C75.9465 60.8631 74.8299 60.216 73.6275 59.7743C73.3537 59.6726 73.0548 59.6599 72.7733 59.738C72.4919 59.8161 72.2423 59.9811 72.06 60.2093C71.7857 60.5601 71.4352 60.8438 71.0349 61.0389C70.6347 61.2339 70.1953 61.3353 69.75 61.3353C69.75 61.3353 69.75 61.3353 69.75 61.3353V66.5843C69.75 66.5843 69.75 66.5843 69.75 66.5843C70.7446 66.5843 71.6984 66.9794 72.4017 67.6827C73.1049 68.386 73.5 69.3398 73.5 70.3343C73.5 71.076 73.2801 71.801 72.868 72.4177C72.456 73.0344 71.8703 73.5151 71.1851 73.7989C70.7279 73.9883 70.2401 74.0843 69.75 74.0843V79.1504Z" fill="#25BB71"/>
<path fill-rule="evenodd" clip-rule="evenodd" d="M55.5 70.3306L55.5003 70.3091C55.5121 69.5044 55.5938 68.7022 55.7446 67.9117C55.9075 67.0075 56.3502 66.177 57.0107 65.5376C57.6701 64.8992 58.5127 64.4839 59.4198 64.3496C59.0879 63.496 59.0314 62.5597 59.2586 61.6719C59.4883 60.7745 59.9961 59.9728 60.7092 59.3817C61.8488 58.4332 63.1294 57.6684 64.5049 57.1148L64.5102 57.1126C65.4074 56.7536 66.3982 56.7013 67.3282 56.9639C68.2273 57.2178 69.0208 57.7523 69.5937 58.4882C69.9914 57.9449 70.5093 57.5003 71.1073 57.1893C71.7285 56.8663 72.4182 56.6969 73.1185 56.6954L73.1402 56.6953L73.1619 56.6956C73.6446 56.7015 74.1232 56.7851 74.5794 56.9431L74.606 56.9523L74.6325 56.9621C76.1367 57.515 77.5358 58.3194 78.7704 59.341C79.5171 59.9503 80.0414 60.7898 80.261 61.7287C80.4742 62.64 80.3887 63.5947 80.0186 64.4523C80.9534 64.5663 81.8273 64.9783 82.5105 65.628C83.2066 66.2899 83.6662 67.1619 83.8188 68.1101C83.9399 68.8481 84.0005 69.5946 84 70.3424L84 70.364L83.9997 70.3856C83.988 71.1903 83.9062 71.9925 83.7554 72.783C83.5925 73.6871 83.1498 74.5176 82.4893 75.1571C81.83 75.7954 80.9873 76.2107 80.0802 76.345C80.4121 77.1986 80.4686 78.135 80.2414 79.0228C80.0118 79.9202 79.504 80.7218 78.7908 81.3129C77.6512 82.2614 76.3706 83.0263 74.9951 83.5799L74.9898 83.582C74.0926 83.9411 73.1019 83.9934 72.1719 83.7307C71.2728 83.4768 70.4792 82.9423 69.9063 82.2065C69.5086 82.7498 68.9907 83.1944 68.3928 83.5053C67.7715 83.8284 67.0818 83.9978 66.3815 83.9993L66.3599 83.9993L66.3382 83.9991C65.8554 83.9931 65.3768 83.9096 64.9207 83.7516L64.894 83.7423L64.8675 83.7326C63.3634 83.1797 61.9642 82.3753 60.7297 81.3536C59.9829 80.7443 59.4587 79.9048 59.239 78.966C59.0258 78.0546 59.1114 77.0999 59.4814 76.2424C58.5466 76.1283 57.6727 75.7164 56.9895 75.0667C56.2934 74.4047 55.8338 73.5327 55.6812 72.5845C55.5602 71.8466 55.4996 71.1 55.5 70.3522L55.5 70.3306ZM78.4356 66.7497C78.8022 66.9971 79.2199 67.1586 79.6575 67.2222C79.9431 67.2634 80.2083 67.3936 80.4157 67.5942C80.623 67.7948 80.7619 68.0556 80.8125 68.3397C80.9374 68.9998 81.0002 69.6703 81 70.3422C80.9907 70.9791 80.9255 71.6141 80.805 72.2397C80.7552 72.5301 80.6143 72.7971 80.4026 73.0021C80.1909 73.207 79.9194 73.3393 79.6275 73.3797C79.1774 73.4334 78.7459 73.5911 78.3671 73.8402C77.9884 74.0894 77.6727 74.4231 77.4451 74.8151C77.2174 75.2072 77.084 75.6468 77.0553 76.0992C77.0267 76.5516 77.1036 77.0045 77.28 77.4222C77.3886 77.6949 77.4078 77.995 77.3351 78.2793C77.2623 78.5637 77.1012 78.8176 76.875 79.0047C75.9745 79.7548 74.9623 80.3596 73.875 80.7972C73.5923 80.9103 73.2802 80.9268 72.9872 80.844C72.6942 80.7613 72.4367 80.5839 72.255 80.3397C71.9818 79.9725 71.6266 79.6741 71.2178 79.4684C70.8089 79.2627 70.3577 79.1552 69.9 79.1547C69.4276 79.1535 68.9621 79.2677 68.5439 79.4873C68.1257 79.7069 67.7673 80.0252 67.5 80.4147C67.3729 80.595 67.2044 80.7422 67.0087 80.844C66.8129 80.9458 66.5956 80.9992 66.375 80.9997C66.2141 80.9977 66.0546 80.9698 65.9025 80.9172C64.7134 80.4801 63.6076 79.8434 62.6325 79.0347C62.3957 78.8437 62.2294 78.5791 62.1601 78.2829C62.0908 77.9867 62.1225 77.6758 62.25 77.3997C62.4449 76.9751 62.5353 76.51 62.5136 76.0433C62.4918 75.5766 62.3586 75.1219 62.1251 74.7173C61.8916 74.3126 61.5645 73.9698 61.1713 73.7175C60.7781 73.4652 60.3302 73.3108 59.865 73.2672C59.5618 73.2346 59.2778 73.1032 59.0568 72.893C58.8358 72.6829 58.6902 72.4058 58.6425 72.1047C58.5466 71.5221 58.499 70.9326 58.5 70.3422C58.5 69.6369 58.5704 68.9334 58.71 68.2422C58.7662 67.9503 58.9145 67.6842 59.1332 67.4831C59.352 67.2819 59.6295 67.1562 59.925 67.1247C60.3802 67.0825 60.8191 66.9343 61.2066 66.6918C61.5941 66.4494 61.9194 66.1195 62.1564 65.7287C62.3934 65.3378 62.5355 64.8968 62.5713 64.4412C62.6071 63.9855 62.5356 63.5277 62.3625 63.1047C62.2549 62.8268 62.2391 62.5219 62.3174 62.2344C62.3957 61.9469 62.5639 61.6921 62.7975 61.5072C63.7242 60.7722 64.7623 60.1899 65.8725 59.7822C66.1463 59.6804 66.4452 59.6677 66.7267 59.7458C67.0082 59.8239 67.2578 59.9889 67.44 60.2172C67.7143 60.5679 68.0649 60.8516 68.4651 61.0467C68.8653 61.2418 69.3048 61.3432 69.75 61.3432C70.1953 61.3432 70.6347 61.2418 71.0349 61.0467C71.4352 60.8516 71.7857 60.5679 72.06 60.2172C72.2422 59.9889 72.4919 59.8239 72.7733 59.7458C73.0548 59.6677 73.3537 59.6804 73.6275 59.7822C74.8299 60.2238 75.9465 60.8709 76.9275 61.6947C77.1497 61.878 77.309 62.1263 77.3829 62.4047C77.4569 62.6831 77.4419 62.9777 77.34 63.2472C77.1797 63.6593 77.1145 64.1023 77.1492 64.5432C77.1839 64.9841 77.3175 65.4114 77.5403 65.7935C77.763 66.1755 78.0691 66.5024 78.4356 66.7497Z" fill="white"/>
<path d="M44.0023 129.864V154.658C44.0023 154.98 44.113 155.291 44.3168 155.541L53.2396 166.486C53.5038 166.811 53.901 167 54.3206 167H72.2817C73.8203 167 75.0724 165.747 75.0724 164.208V129.864C75.0724 128.167 76.4443 126.792 78.1422 126.792C78.9124 126.792 79.5376 126.167 79.5376 125.396C79.5376 124.625 80.3078 124 79.5376 124H49.8629C46.6312 124 44.0023 126.63 44.0023 129.864Z" fill="#E2EFFE"/>
<path d="M44.0003 154.658V129.864C44.0003 126.63 46.6292 124 49.8608 124H60.3936V167H54.3186H45.5003C44.6719 167 44.0003 166.328 44.0003 165.5V154.658Z" fill="#F0F7FE"/>
<path d="M71.3504 139.656C71.3504 140.565 70.6125 141.304 69.7034 141.304H65.0406C64.1314 141.304 63.3936 140.565 63.3936 139.656C63.3936 138.746 64.1314 138.008 65.0406 138.008H69.7034C70.6125 138.008 71.3504 138.746 71.3504 139.656Z" fill="#282A52"/>
<path d="M71.3504 146.663C71.3504 147.573 70.6125 148.311 69.7034 148.311H65.0406C64.1314 148.311 63.3936 147.573 63.3936 146.663C63.3936 145.754 64.1314 145.016 65.0406 145.016H69.7034C70.6125 145.016 71.3504 145.754 71.3504 146.663Z" fill="#282A52"/>
<path d="M71.3504 132.648C71.3504 133.557 70.6125 134.296 69.7034 134.296H65.0406C64.1314 134.296 63.3936 133.557 63.3936 132.648C63.3936 131.738 64.1314 131 65.0406 131H69.7034C70.6125 131 71.3504 131.738 71.3504 132.648Z" fill="#0965CD"/>
<path d="M54.9569 132.648C54.9569 133.557 54.219 134.296 53.3098 134.296H48.6471C47.7379 134.296 47 133.557 47 132.648C47 131.738 47.7379 131 48.6471 131H53.3098C54.219 131 54.9569 131.738 54.9569 132.648Z" fill="#40D98D"/>
<path d="M75.0707 138.706H81.2103C82.7516 138.706 84.001 137.456 84.001 135.913V128.468C84.001 126 82.0019 124 79.5358 124C77.0766 124 75.0707 125.993 75.0707 128.468V138.706Z" fill="#B6D7FC"/>
<path d="M47.0386 140V140.918H38.9518V140H32.6726C31.7489 140 31 140.749 31 141.673V162.5C31 163.328 31.6716 164 32.5 164H53.5C54.3284 164 55 163.328 55 162.5V142.277C55 141.019 53.9806 140 52.7232 140L47.0386 140Z" fill="#157DF5"/>
<path d="M47.0382 140.918H43.0029V164H53.4998C54.3282 164 54.9998 163.328 54.9998 162.5V141.516C54.9998 140.679 54.3212 140 53.484 140H47.0382V140.918Z" fill="#0965CD"/>
<path d="M46.3073 147.303H39.6914C39.2826 147.303 38.9512 146.972 38.9512 146.563V140H47.0476V146.563C47.0475 146.972 46.7161 147.303 46.3073 147.303Z" fill="#40D98D"/>
<path d="M43.0029 147.303H46.2617C46.6959 147.303 47.0479 146.951 47.0479 146.517V140H43.0029V147.303Z" fill="#25BB71"/>
<path fill-rule="evenodd" clip-rule="evenodd" d="M55 142.277V162.5C55 163.328 54.3282 164 53.4998 164H32.5C31.6716 164 31 163.328 31 162.5V141.673C31 140.749 31.7489 140 32.6726 140H53.484C54.3212 140 54.9998 140.679 54.9998 141.516V142.244L55 142.277ZM57.9998 142.233V141.516C57.9998 139.022 55.9782 137 53.484 137H32.6726C30.092 137 28 139.092 28 141.673V162.5C28 164.985 30.0147 167 32.5 167H53.4998C55.9844 167 58 164.986 58 162.5V142.266L57.9998 142.233Z" fill="white"/>
<circle cx="69.5" cy="166.492" r="4.5" fill="white"/>
<path d="M79.6575 163.214C79.2199 163.151 78.8022 162.989 78.4356 162.742C78.0691 162.495 77.763 162.168 77.5403 161.786C77.3175 161.404 77.1839 160.976 77.1492 160.535C77.1145 160.095 77.1797 159.652 77.34 159.239C77.4419 158.97 77.4569 158.675 77.3829 158.397C77.309 158.118 77.1497 157.87 76.9275 157.687C75.9465 156.863 74.8299 156.216 73.6275 155.774C73.3537 155.673 73.0548 155.66 72.7733 155.738C72.4919 155.816 72.2423 155.981 72.06 156.209C71.7857 156.56 71.4352 156.844 71.0349 157.039C70.6347 157.234 70.1953 157.335 69.75 157.335C69.3048 157.335 68.8653 157.234 68.4651 157.039C68.0649 156.844 67.7143 156.56 67.44 156.209C67.2578 155.981 67.0082 155.816 66.7267 155.738C66.4452 155.66 66.1463 155.673 65.8725 155.774C64.7623 156.182 63.7242 156.764 62.7975 157.499C62.5639 157.684 62.3957 157.939 62.3174 158.227C62.2391 158.514 62.2549 158.819 62.3625 159.097C62.5356 159.52 62.6071 159.978 62.5713 160.433C62.5355 160.889 62.3934 161.33 62.1564 161.721C61.9194 162.112 61.5941 162.442 61.2066 162.684C60.8191 162.926 60.3802 163.075 59.925 163.117C59.6295 163.148 59.352 163.274 59.1332 163.475C58.9145 163.676 58.7662 163.943 58.71 164.234C58.5704 164.926 58.5 165.629 58.5 166.334C58.499 166.925 58.5467 167.514 58.6425 168.097C58.6902 168.398 58.8358 168.675 59.0568 168.885C59.2778 169.095 59.5618 169.227 59.865 169.259C60.3302 169.303 60.7781 169.457 61.1713 169.71C61.5645 169.962 61.8916 170.305 62.1251 170.709C62.3586 171.114 62.4918 171.569 62.5136 172.035C62.5353 172.502 62.4449 172.967 62.25 173.392C62.1225 173.668 62.0908 173.979 62.1601 174.275C62.2294 174.571 62.3957 174.836 62.6325 175.027C63.6076 175.836 64.7134 176.472 65.9025 176.909C66.0546 176.962 66.2141 176.99 66.375 176.992C66.5956 176.991 66.8129 176.938 67.0087 176.836C67.2044 176.734 67.3729 176.587 67.5 176.407C67.7673 176.017 68.1257 175.699 68.5439 175.479C68.9621 175.26 69.4276 175.146 69.9 175.147C70.3577 175.147 70.8089 175.255 71.2178 175.461C71.6266 175.666 71.9818 175.965 72.255 176.332C72.4367 176.576 72.6942 176.753 72.9872 176.836C73.2802 176.919 73.5923 176.902 73.875 176.789C74.9623 176.352 75.9745 175.747 76.875 174.997C77.1012 174.81 77.2623 174.556 77.3351 174.272C77.4078 173.987 77.3886 173.687 77.28 173.414C77.1036 172.997 77.0267 172.544 77.0553 172.091C77.084 171.639 77.2174 171.199 77.4451 170.807C77.6727 170.415 77.9884 170.082 78.3671 169.832C78.7459 169.583 79.1774 169.426 79.6275 169.372C79.9194 169.331 80.1909 169.199 80.4026 168.994C80.6143 168.789 80.7552 168.522 80.805 168.232C80.9255 167.606 80.9907 166.971 81 166.334C81.0002 165.662 80.9374 164.992 80.8125 164.332C80.7619 164.048 80.623 163.787 80.4157 163.586C80.2083 163.386 79.9431 163.256 79.6575 163.214ZM73.5 166.334C73.5 167.076 73.2801 167.801 72.868 168.418C72.456 169.034 71.8703 169.515 71.1851 169.799C70.4999 170.083 69.7459 170.157 69.0184 170.012C68.291 169.868 67.6228 169.51 67.0984 168.986C66.5739 168.462 66.2168 167.793 66.0721 167.066C65.9274 166.339 66.0016 165.585 66.2855 164.899C66.5693 164.214 67.0499 163.628 67.6666 163.216C68.2833 162.804 69.0083 162.584 69.75 162.584C70.7446 162.584 71.6984 162.979 72.4017 163.683C73.1049 164.386 73.5 165.34 73.5 166.334Z" fill="#40D98D"/>
<path fill-rule="evenodd" clip-rule="evenodd" d="M69.75 175.15C69.7999 175.148 69.8499 175.147 69.9 175.147C70.3577 175.147 70.8089 175.255 71.2178 175.461C71.6266 175.666 71.9818 175.965 72.255 176.332C72.4367 176.576 72.6942 176.753 72.9872 176.836C73.2802 176.919 73.5923 176.902 73.875 176.789C74.9623 176.352 75.9745 175.747 76.875 174.997C77.1012 174.81 77.2623 174.556 77.3351 174.272C77.4078 173.987 77.3886 173.687 77.28 173.414C77.1036 172.997 77.0267 172.544 77.0553 172.091C77.084 171.639 77.2174 171.199 77.4451 170.807C77.6727 170.415 77.9884 170.082 78.3671 169.832C78.7459 169.583 79.1774 169.426 79.6275 169.372C79.9194 169.331 80.1909 169.199 80.4026 168.994C80.6143 168.789 80.7552 168.522 80.805 168.232C80.9255 167.606 80.9907 166.971 81 166.334C81.0002 165.662 80.9374 164.992 80.8125 164.332C80.7619 164.048 80.623 163.787 80.4157 163.586C80.2083 163.386 79.9431 163.256 79.6575 163.214C79.2199 163.151 78.8022 162.989 78.4356 162.742C78.0691 162.495 77.763 162.168 77.5403 161.786C77.3175 161.404 77.1839 160.976 77.1492 160.535C77.1145 160.095 77.1797 159.652 77.34 159.239C77.4419 158.97 77.4569 158.675 77.3829 158.397C77.309 158.118 77.1497 157.87 76.9275 157.687C75.9465 156.863 74.8299 156.216 73.6275 155.774C73.3537 155.673 73.0548 155.66 72.7733 155.738C72.4919 155.816 72.2423 155.981 72.06 156.209C71.7857 156.56 71.4352 156.844 71.0349 157.039C70.6347 157.234 70.1953 157.335 69.75 157.335C69.75 157.335 69.75 157.335 69.75 157.335V162.584C69.75 162.584 69.75 162.584 69.75 162.584C70.7446 162.584 71.6984 162.979 72.4017 163.683C73.1049 164.386 73.5 165.34 73.5 166.334C73.5 167.076 73.2801 167.801 72.868 168.418C72.456 169.034 71.8703 169.515 71.1851 169.799C70.7279 169.988 70.2401 170.084 69.75 170.084V175.15Z" fill="#25BB71"/>
<path fill-rule="evenodd" clip-rule="evenodd" d="M55.5 166.331L55.5003 166.309C55.5121 165.504 55.5938 164.702 55.7446 163.912C55.9075 163.008 56.3502 162.177 57.0107 161.538C57.6701 160.899 58.5127 160.484 59.4198 160.35C59.0879 159.496 59.0314 158.56 59.2586 157.672C59.4883 156.774 59.9961 155.973 60.7092 155.382C61.8488 154.433 63.1294 153.668 64.5049 153.115L64.5102 153.113C65.4074 152.754 66.3982 152.701 67.3282 152.964C68.2273 153.218 69.0208 153.752 69.5937 154.488C69.9914 153.945 70.5093 153.5 71.1073 153.189C71.7285 152.866 72.4182 152.697 73.1185 152.695L73.1402 152.695L73.1619 152.696C73.6446 152.702 74.1232 152.785 74.5794 152.943L74.606 152.952L74.6325 152.962C76.1367 153.515 77.5358 154.319 78.7704 155.341C79.5171 155.95 80.0414 156.79 80.261 157.729C80.4742 158.64 80.3887 159.595 80.0186 160.452C80.9534 160.566 81.8273 160.978 82.5105 161.628C83.2066 162.29 83.6662 163.162 83.8188 164.11C83.9399 164.848 84.0005 165.595 84 166.342L84 166.364L83.9997 166.386C83.988 167.19 83.9062 167.992 83.7554 168.783C83.5925 169.687 83.1498 170.518 82.4893 171.157C81.83 171.795 80.9873 172.211 80.0802 172.345C80.4121 173.199 80.4686 174.135 80.2414 175.023C80.0118 175.92 79.504 176.722 78.7908 177.313C77.6512 178.261 76.3706 179.026 74.9951 179.58L74.9898 179.582C74.0926 179.941 73.1019 179.993 72.1719 179.731C71.2728 179.477 70.4792 178.942 69.9063 178.206C69.5086 178.75 68.9907 179.194 68.3928 179.505C67.7715 179.828 67.0818 179.998 66.3815 179.999L66.3599 179.999L66.3382 179.999C65.8554 179.993 65.3768 179.91 64.9207 179.752L64.894 179.742L64.8675 179.733C63.3634 179.18 61.9642 178.375 60.7297 177.354C59.9829 176.744 59.4587 175.905 59.239 174.966C59.0258 174.055 59.1114 173.1 59.4814 172.242C58.5466 172.128 57.6727 171.716 56.9895 171.067C56.2934 170.405 55.8338 169.533 55.6812 168.585C55.5602 167.847 55.4996 167.1 55.5 166.352L55.5 166.331ZM78.4356 162.75C78.8022 162.997 79.2199 163.159 79.6575 163.222C79.9431 163.263 80.2083 163.394 80.4157 163.594C80.623 163.795 80.7619 164.056 80.8125 164.34C80.9374 165 81.0002 165.67 81 166.342C80.9907 166.979 80.9255 167.614 80.805 168.24C80.7552 168.53 80.6143 168.797 80.4026 169.002C80.1909 169.207 79.9194 169.339 79.6275 169.38C79.1774 169.433 78.7459 169.591 78.3671 169.84C77.9884 170.089 77.6727 170.423 77.4451 170.815C77.2174 171.207 77.084 171.647 77.0553 172.099C77.0267 172.552 77.1036 173.005 77.28 173.422C77.3886 173.695 77.4078 173.995 77.3351 174.279C77.2623 174.564 77.1012 174.818 76.875 175.005C75.9745 175.755 74.9623 176.36 73.875 176.797C73.5923 176.91 73.2802 176.927 72.9872 176.844C72.6942 176.761 72.4367 176.584 72.255 176.34C71.9818 175.972 71.6266 175.674 71.2178 175.468C70.8089 175.263 70.3577 175.155 69.9 175.155C69.4276 175.154 68.9621 175.268 68.5439 175.487C68.1257 175.707 67.7673 176.025 67.5 176.415C67.3729 176.595 67.2044 176.742 67.0087 176.844C66.8129 176.946 66.5956 176.999 66.375 177C66.2141 176.998 66.0546 176.97 65.9025 176.917C64.7134 176.48 63.6076 175.843 62.6325 175.035C62.3957 174.844 62.2294 174.579 62.1601 174.283C62.0908 173.987 62.1225 173.676 62.25 173.4C62.4449 172.975 62.5353 172.51 62.5136 172.043C62.4918 171.577 62.3586 171.122 62.1251 170.717C61.8916 170.313 61.5645 169.97 61.1713 169.718C60.7781 169.465 60.3302 169.311 59.865 169.267C59.5618 169.235 59.2778 169.103 59.0568 168.893C58.8358 168.683 58.6902 168.406 58.6425 168.105C58.5466 167.522 58.499 166.933 58.5 166.342C58.5 165.637 58.5704 164.933 58.71 164.242C58.7662 163.95 58.9145 163.684 59.1332 163.483C59.352 163.282 59.6295 163.156 59.925 163.125C60.3802 163.083 60.8191 162.934 61.2066 162.692C61.5941 162.449 61.9194 162.12 62.1564 161.729C62.3934 161.338 62.5355 160.897 62.5713 160.441C62.6071 159.985 62.5356 159.528 62.3625 159.105C62.2549 158.827 62.2391 158.522 62.3174 158.234C62.3957 157.947 62.5639 157.692 62.7975 157.507C63.7242 156.772 64.7623 156.19 65.8725 155.782C66.1463 155.68 66.4452 155.668 66.7267 155.746C67.0082 155.824 67.2578 155.989 67.44 156.217C67.7143 156.568 68.0649 156.852 68.4651 157.047C68.8653 157.242 69.3048 157.343 69.75 157.343C70.1953 157.343 70.6347 157.242 71.0349 157.047C71.4352 156.852 71.7857 156.568 72.06 156.217C72.2422 155.989 72.4919 155.824 72.7733 155.746C73.0548 155.668 73.3537 155.68 73.6275 155.782C74.8299 156.224 75.9465 156.871 76.9275 157.695C77.1497 157.878 77.309 158.126 77.3829 158.405C77.4569 158.683 77.4419 158.978 77.34 159.247C77.1797 159.659 77.1145 160.102 77.1492 160.543C77.1839 160.984 77.3175 161.411 77.5403 161.793C77.763 162.176 78.0691 162.502 78.4356 162.75Z" fill="white"/>
<defs>
<filter id="filter0_d_17640_13120" x="10" y="9" width="96" height="96" filterUnits="userSpaceOnUse" color-interpolation-filters="sRGB">
<feFlood flood-opacity="0" result="BackgroundImageFix"/>
<feColorMatrix in="SourceAlpha" type="matrix" values="0 0 0 0 0 0 0 0 0 0 0 0 0 0 0 0 0 0 127 0" result="hardAlpha"/>
<feOffset dx="2" dy="1"/>
<feGaussianBlur stdDeviation="4"/>
<feColorMatrix type="matrix" values="0 0 0 0 0.0392157 0 0 0 0 0.0392157 0 0 0 0 0.0627451 0 0 0 0.08 0"/>
<feBlend mode="normal" in2="BackgroundImageFix" result="effect1_dropShadow_17640_13120"/>
<feBlend mode="normal" in="SourceGraphic" in2="effect1_dropShadow_17640_13120" result="shape"/>
</filter>
</defs>
</svg>
