<svg width="112" height="200" viewBox="0 0 112 200" fill="none" xmlns="http://www.w3.org/2000/svg">
<rect x="0.5" y="0.5" width="111" height="199" rx="4.5" stroke="#9747FF" stroke-dasharray="10 5"/>
<g filter="url(#filter0_d_28867_57988)">
<rect x="16" y="16" width="80" height="80" rx="8" fill="white"/>
</g>
<path d="M41.6088 33.8608V58.6436C41.6088 58.9645 41.7195 59.2762 41.9232 59.5255L50.8461 70.4656C51.1103 70.7903 51.5075 70.9791 51.927 70.9791H69.8881C71.4267 70.9791 72.6788 69.727 72.6788 68.1883V33.8608C72.6788 32.1649 74.0508 30.7909 75.7486 30.7909C76.5189 30.7909 77.144 30.1657 77.144 29.3954C77.144 28.6252 77.9142 28 77.144 28H47.4693C44.2377 28 41.6088 30.629 41.6088 33.8608Z" fill="#E2EFFE"/>
<path d="M41.6068 58.6436V33.8608C41.6068 30.629 44.2356 28 47.4673 28H58V70.9791H51.925H43.1068C42.2783 70.9791 41.6068 70.3076 41.6068 69.4791V58.6436Z" fill="#F0F7FE"/>
<path d="M72.6771 42.6985H78.8167C80.358 42.6985 81.6074 41.449 81.6074 39.9076V32.4654C81.6074 29.9992 79.6083 28 77.1423 28C74.6831 28 72.6771 29.9924 72.6771 32.4654V42.6985Z" fill="#B6D7FC"/>
<path d="M68.0777 41.5273H62.6136C61.7225 41.5273 61 40.7377 61 39.7637C61 38.7897 61.7225 38 62.6136 38H68.0777C68.9688 38 69.6913 38.7897 69.6913 39.7637C69.6913 40.7377 68.9688 41.5273 68.0777 41.5273Z" fill="#1E203E"/>
<path d="M68.0777 49.2852H62.6136C61.7225 49.2852 61 48.4955 61 47.5215C61 46.5475 61.7225 45.7578 62.6136 45.7578H68.0777C68.9688 45.7578 69.6913 46.5475 69.6913 47.5215C69.6913 48.4955 68.9688 49.2852 68.0777 49.2852Z" fill="#0965CD"/>
<path fill-rule="evenodd" clip-rule="evenodd" d="M85.9995 70.7214C85.9995 78.0558 80.0538 84.0014 72.7195 84.0014C65.3851 84.0014 59.4395 78.0557 59.4395 70.7214C59.4395 63.3871 65.3851 57.4414 72.7195 57.4414C80.0538 57.4414 85.9995 63.3871 85.9995 70.7214ZM82.7195 70.7214C82.7195 76.2443 78.2423 80.7214 72.7195 80.7214C67.1966 80.7214 62.7195 76.2443 62.7195 70.7214C62.7195 65.1986 67.1966 60.7214 72.7195 60.7214C78.2423 60.7214 82.7195 65.1986 82.7195 70.7214Z" fill="white"/>
<path d="M72.7197 80.7207C78.2426 80.7207 82.7197 76.2436 82.7197 70.7207C82.7197 65.1979 78.2426 60.7207 72.7197 60.7207C67.1969 60.7207 62.7197 65.1979 62.7197 70.7207C62.7197 76.2436 67.1969 80.7207 72.7197 80.7207Z" fill="#40D98D"/>
<path d="M72.7188 60.7207C72.7172 60.7207 72.7155 60.7207 72.7139 60.7207V80.7206C72.7155 80.7206 72.7172 80.7207 72.7188 80.7207C78.2417 80.7207 82.7188 76.2436 82.7188 70.7207C82.7188 65.1978 78.2417 60.7207 72.7188 60.7207Z" fill="#25BB71"/>
<path d="M77.8514 67.0852C77.2691 66.5029 76.3249 66.5029 75.7425 67.0852L71.6359 71.1919L69.699 69.2549C69.1166 68.6723 68.1724 68.6725 67.5901 69.2549C67.0077 69.8372 67.0077 70.7815 67.5901 71.3638L70.5814 74.3552C70.8612 74.6349 71.2404 74.792 71.636 74.792C72.0315 74.792 72.4108 74.6349 72.6904 74.3552L77.8515 69.1941C78.4339 68.6117 78.4339 67.6675 77.8514 67.0852Z" fill="white"/>
<path d="M72.7188 60.7207C72.7172 60.7207 72.7155 60.7207 72.7139 60.7207V80.7206C72.7155 80.7206 72.7172 80.7207 72.7188 80.7207C78.2417 80.7207 82.7188 76.2436 82.7188 70.7207C82.7188 65.1978 78.2417 60.7207 72.7188 60.7207Z" fill="#25BB71"/>
<path d="M75.7425 67.0872L72.7158 70.1139V74.3318L77.8514 69.196C78.4338 68.6137 78.4338 67.6694 77.8514 67.0872C77.2692 66.5048 76.3249 66.5048 75.7425 67.0872Z" fill="#F0F7FE"/>
<path d="M57.7024 49.8175H57.4982L55.2966 45.1631H55.5481L54.6598 43.2678C54.4795 42.8782 54.0884 42.6287 53.6558 42.6287H47.5008L45.0254 49.5678L47.745 58.3718H57.0717C57.5798 58.3718 57.9919 57.9614 57.9924 57.4548C57.9924 57.4548 57.9997 52.3128 57.9998 50.5279C57.9998 50.4985 57.9934 50.4702 57.9811 50.4435L57.7024 49.8175Z" fill="#0965CD"/>
<path d="M55.5474 45.1608H51.5693C51.2473 45.1608 50.9863 45.421 50.9863 45.7421V49.1049C50.9863 49.4972 51.3052 49.8152 51.6987 49.8152H57.7017L55.5474 45.1608Z" fill="#B6D7FC"/>
<path d="M27.2539 52.4927V57.4597C27.2539 57.9127 27.7069 58.3728 28.2658 58.3728H47.7486V52.4927L27.2539 52.4927Z" fill="#157DF5"/>
<path d="M36.5234 52.4927H47.7461V58.3728H36.5234V52.4927Z" fill="#0965CD"/>
<path d="M47.7463 53.5031H26.7491C26.3354 53.5031 26 53.1686 26 52.7561V40.7469C26 40.3344 26.3354 40 26.7491 40L46.9972 40C47.4109 40 47.7463 40.3344 47.7463 40.7469V43.7959V53.5031Z" fill="#40D98D"/>
<path d="M32.6812 61.5003C30.9917 61.5003 29.6172 60.1298 29.6172 58.4452C29.6172 56.7607 30.9917 55.3901 32.6812 55.3901C34.3708 55.3901 35.7453 56.7607 35.7453 58.4452C35.7453 60.1298 34.3708 61.5003 32.6812 61.5003Z" fill="#1E203E"/>
<path d="M53.0641 61.4961C51.3745 61.4961 50 60.1256 50 58.441C50 56.7565 51.3745 55.3859 53.0641 55.3859C54.7536 55.3859 56.1281 56.7565 56.1281 58.441C56.1281 60.1256 54.7536 61.4961 53.0641 61.4961Z" fill="#1E203E"/>
<path d="M46.997 40H36.5234V53.5031H47.7461V40.7469C47.7461 40.3344 47.4107 40 46.997 40Z" fill="#25BB71"/>
<path d="M41.6088 129.861V154.644C41.6088 154.965 41.7195 155.276 41.9232 155.525L50.8461 166.466C51.1103 166.79 51.5075 166.979 51.927 166.979H69.8881C71.4267 166.979 72.6788 165.727 72.6788 164.188V129.861C72.6788 128.165 74.0508 126.791 75.7486 126.791C76.5189 126.791 77.144 126.166 77.144 125.395C77.144 124.625 77.9142 124 77.144 124H47.4693C44.2377 124 41.6088 126.629 41.6088 129.861Z" fill="#E2EFFE"/>
<path d="M41.6068 154.644V129.861C41.6068 126.629 44.2356 124 47.4673 124H58V166.979H51.925H43.1068C42.2783 166.979 41.6068 166.308 41.6068 165.479V154.644Z" fill="#F0F7FE"/>
<path d="M72.6771 138.698H78.8167C80.358 138.698 81.6074 137.449 81.6074 135.908V128.465C81.6074 125.999 79.6083 124 77.1423 124C74.6831 124 72.6771 125.992 72.6771 128.465V138.698Z" fill="#B6D7FC"/>
<path d="M68.0777 137.527H62.6136C61.7225 137.527 61 136.738 61 135.764C61 134.79 61.7225 134 62.6136 134H68.0777C68.9688 134 69.6913 134.79 69.6913 135.764C69.6913 136.738 68.9688 137.527 68.0777 137.527Z" fill="#1E203E"/>
<path d="M68.0777 145.285H62.6136C61.7225 145.285 61 144.496 61 143.521C61 142.547 61.7225 141.758 62.6136 141.758H68.0777C68.9688 141.758 69.6913 142.547 69.6913 143.521C69.6913 144.496 68.9688 145.285 68.0777 145.285Z" fill="#0965CD"/>
<path fill-rule="evenodd" clip-rule="evenodd" d="M85.9995 166.721C85.9995 174.056 80.0538 180.001 72.7195 180.001C65.3851 180.001 59.4395 174.056 59.4395 166.721C59.4395 159.387 65.3851 153.441 72.7195 153.441C80.0538 153.441 85.9995 159.387 85.9995 166.721ZM82.7195 166.721C82.7195 172.244 78.2423 176.721 72.7195 176.721C67.1966 176.721 62.7195 172.244 62.7195 166.721C62.7195 161.199 67.1966 156.721 72.7195 156.721C78.2423 156.721 82.7195 161.199 82.7195 166.721Z" fill="white"/>
<path d="M72.7197 176.721C78.2426 176.721 82.7197 172.244 82.7197 166.721C82.7197 161.198 78.2426 156.721 72.7197 156.721C67.1969 156.721 62.7197 161.198 62.7197 166.721C62.7197 172.244 67.1969 176.721 72.7197 176.721Z" fill="#40D98D"/>
<path d="M72.7188 156.721C72.7172 156.721 72.7155 156.721 72.7139 156.721V176.721C72.7155 176.721 72.7172 176.721 72.7188 176.721C78.2417 176.721 82.7188 172.244 82.7188 166.721C82.7188 161.198 78.2417 156.721 72.7188 156.721Z" fill="#25BB71"/>
<path d="M77.8514 163.085C77.2691 162.503 76.3249 162.503 75.7425 163.085L71.6359 167.192L69.699 165.255C69.1166 164.672 68.1724 164.673 67.5901 165.255C67.0077 165.837 67.0077 166.782 67.5901 167.364L70.5814 170.355C70.8612 170.635 71.2404 170.792 71.636 170.792C72.0315 170.792 72.4108 170.635 72.6904 170.355L77.8515 165.194C78.4339 164.612 78.4339 163.668 77.8514 163.085Z" fill="white"/>
<path d="M72.7188 156.721C72.7172 156.721 72.7155 156.721 72.7139 156.721V176.721C72.7155 176.721 72.7172 176.721 72.7188 176.721C78.2417 176.721 82.7188 172.244 82.7188 166.721C82.7188 161.198 78.2417 156.721 72.7188 156.721Z" fill="#25BB71"/>
<path d="M75.7425 163.087L72.7158 166.114V170.332L77.8514 165.196C78.4338 164.614 78.4338 163.669 77.8514 163.087C77.2692 162.505 76.3249 162.505 75.7425 163.087Z" fill="#F0F7FE"/>
<path d="M57.7024 145.817H57.4982L55.2966 141.163H55.5481L54.6598 139.268C54.4795 138.878 54.0884 138.629 53.6558 138.629H47.5008L45.0254 145.568L47.745 154.372H57.0717C57.5798 154.372 57.9919 153.961 57.9924 153.455C57.9924 153.455 57.9997 148.313 57.9998 146.528C57.9998 146.499 57.9934 146.47 57.9811 146.443L57.7024 145.817Z" fill="#0965CD"/>
<path d="M55.5474 141.161H51.5693C51.2473 141.161 50.9863 141.421 50.9863 141.742V145.105C50.9863 145.497 51.3052 145.815 51.6987 145.815H57.7017L55.5474 141.161Z" fill="#B6D7FC"/>
<path d="M27.2539 148.493V153.46C27.2539 153.913 27.7069 154.373 28.2658 154.373H47.7486V148.493L27.2539 148.493Z" fill="#157DF5"/>
<path d="M36.5234 148.493H47.7461V154.373H36.5234V148.493Z" fill="#0965CD"/>
<path d="M47.7463 149.503H26.7491C26.3354 149.503 26 149.169 26 148.756V136.747C26 136.334 26.3354 136 26.7491 136L46.9972 136C47.4109 136 47.7463 136.334 47.7463 136.747V139.796V149.503Z" fill="#40D98D"/>
<path d="M32.6812 157.5C30.9917 157.5 29.6172 156.13 29.6172 154.445C29.6172 152.761 30.9917 151.39 32.6812 151.39C34.3708 151.39 35.7453 152.761 35.7453 154.445C35.7453 156.13 34.3708 157.5 32.6812 157.5Z" fill="#1E203E"/>
<path d="M53.0641 157.496C51.3745 157.496 50 156.126 50 154.441C50 152.756 51.3745 151.386 53.0641 151.386C54.7536 151.386 56.1281 152.756 56.1281 154.441C56.1281 156.126 54.7536 157.496 53.0641 157.496Z" fill="#1E203E"/>
<path d="M46.997 136H36.5234V149.503H47.7461V136.747C47.7461 136.334 47.4107 136 46.997 136Z" fill="#25BB71"/>
<defs>
<filter id="filter0_d_28867_57988" x="10" y="9" width="96" height="96" filterUnits="userSpaceOnUse" color-interpolation-filters="sRGB">
<feFlood flood-opacity="0" result="BackgroundImageFix"/>
<feColorMatrix in="SourceAlpha" type="matrix" values="0 0 0 0 0 0 0 0 0 0 0 0 0 0 0 0 0 0 127 0" result="hardAlpha"/>
<feOffset dx="2" dy="1"/>
<feGaussianBlur stdDeviation="4"/>
<feColorMatrix type="matrix" values="0 0 0 0 0.0392157 0 0 0 0 0.0392157 0 0 0 0 0.0627451 0 0 0 0.08 0"/>
<feBlend mode="normal" in2="BackgroundImageFix" result="effect1_dropShadow_28867_57988"/>
<feBlend mode="normal" in="SourceGraphic" in2="effect1_dropShadow_28867_57988" result="shape"/>
</filter>
</defs>
</svg>
