<svg width="112" height="208" viewBox="0 0 112 208" fill="none" xmlns="http://www.w3.org/2000/svg">
<rect x="0.5" y="0.5" width="111" height="207" rx="4.5" stroke="#9747FF" stroke-dasharray="10 5"/>
<g filter="url(#filter0_dd_28372_10945)">
<rect x="16" y="16" width="80" height="80" rx="8" fill="white"/>
</g>
<path d="M54.775 47.9778H51.2005C50.0303 47.9778 49.0862 47.0071 49.0862 45.8102C49.0862 44.9144 49.6069 44.1152 50.4129 43.7728C51.2192 43.4305 52.1386 43.6181 52.7555 44.2506L55.2483 46.8062C55.4398 47.0025 55.4971 47.2977 55.3935 47.5542C55.2898 47.8106 55.0458 47.9778 54.775 47.9778Z" fill="#F3263D"/>
<path d="M58.3497 47.9778H54.7752C54.5044 47.9778 54.2604 47.8106 54.1567 47.5541C54.0531 47.2977 54.1104 47.0025 54.3019 46.8062L56.7947 44.2505C57.4116 43.6181 58.3311 43.4306 59.1372 43.7728C59.9433 44.1152 60.464 44.9144 60.464 45.8087C60.4641 47.0094 59.5181 47.9778 58.3497 47.9778Z" fill="#F54B5E"/>
<path d="M61.9454 64.1502H47.6043C47.2346 64.1502 46.9349 63.8429 46.9349 63.4639V54.6425C46.9349 50.2106 50.4519 46.605 54.7749 46.605C59.0979 46.605 62.6149 50.2106 62.6149 54.6425V63.4639C62.6149 63.8429 62.3151 64.1502 61.9454 64.1502Z" fill="#F0F7FE"/>
<path d="M62.6151 63.4639V54.6425C62.6151 50.2106 59.0981 46.605 54.7751 46.605C54.7748 46.605 54.7746 46.605 54.7743 46.605V64.1502H61.9456C62.3153 64.1502 62.6151 63.8429 62.6151 63.4639Z" fill="#E2EFFE"/>
<path d="M57.9285 61.2227L55.6799 58.9124C55.582 58.8119 55.4492 58.7554 55.3106 58.7554C55.3105 58.7554 55.3099 58.7554 55.3101 58.7554H54.2012C54.2014 58.7554 54.2008 58.7554 54.2006 58.7554C54.0621 58.7554 53.9293 58.8119 53.8314 58.9124L51.5827 61.2227C50.9674 61.855 50.7855 62.7963 51.1194 63.6207C51.4532 64.4454 52.2317 64.9783 53.1032 64.9783C53.7656 64.9783 54.3573 64.6753 54.7556 64.1978C55.1566 64.6772 55.7514 64.9783 56.4086 64.9783C57.2796 64.9783 58.058 64.4454 58.3918 63.6208C58.7257 62.7963 58.5438 61.855 57.9285 61.2227Z" fill="#F54B5E"/>
<path d="M56.4089 64.9783C57.28 64.9783 58.0584 64.4454 58.3922 63.6208C58.7261 62.7963 58.5442 61.855 57.9289 61.2227L55.6802 58.9124C55.5824 58.8119 55.4495 58.7554 55.311 58.7554C55.3108 58.7554 55.3103 58.7554 55.3105 58.7554C55.3107 58.7554 55.0428 58.7554 54.7702 58.7554V64.2139C55.1709 64.6838 55.7594 64.9783 56.4089 64.9783Z" fill="#F3263D"/>
<path d="M51.9431 54.2003C52.755 54.2003 53.4131 53.5421 53.4131 52.7303C53.4131 51.9184 52.755 51.2603 51.9431 51.2603C51.1313 51.2603 50.4731 51.9184 50.4731 52.7303C50.4731 53.5421 51.1313 54.2003 51.9431 54.2003Z" fill="#282A52"/>
<path d="M57.6922 54.2003C58.504 54.2003 59.1622 53.5421 59.1622 52.7303C59.1622 51.9184 58.504 51.2603 57.6922 51.2603C56.8803 51.2603 56.2222 51.9184 56.2222 52.7303C56.2222 53.5421 56.8803 54.2003 57.6922 54.2003Z" fill="#1E203E"/>
<path d="M54.7748 47.9784C54.6035 47.9784 54.4321 47.9114 54.3015 47.7774L52.8308 46.2697C52.0421 45.4612 51.8083 44.256 52.2349 43.1993C52.6617 42.1426 53.6584 41.46 54.774 41.46C55.8912 41.46 56.8878 42.1426 57.3146 43.1992C57.7414 44.256 57.5075 45.4612 56.7188 46.2696L55.2481 47.7774C55.1175 47.9114 54.9461 47.9784 54.7748 47.9784Z" fill="#F54B5E"/>
<path d="M55.2482 47.7774L56.7188 46.2696C57.5075 45.4612 57.7414 44.256 57.3146 43.1992C56.8879 42.1426 55.8912 41.46 54.774 41.46V47.9784C54.7743 47.9784 54.7745 47.9784 54.7748 47.9784C54.9461 47.9784 55.1175 47.9114 55.2482 47.7774Z" fill="#F3263D"/>
<path d="M54.7593 60.0985C54.7587 60.0985 54.7581 60.0985 54.7575 60.0985C54.6144 60.098 54.4774 60.0393 54.3766 59.9352L52.0805 57.5654C51.871 57.3492 51.8715 57 52.0818 56.7844L53.1673 55.6715C53.5971 55.2312 54.1679 54.9888 54.7746 54.9888C55.3814 54.9888 55.9522 55.2312 56.3819 55.6714L57.4675 56.7845C57.5689 56.8884 57.6258 57.0295 57.6256 57.1765C57.6253 57.3235 57.568 57.4644 57.4663 57.568L55.1396 59.9378C55.0384 60.0407 54.9017 60.0985 54.7593 60.0985Z" fill="#FEE048"/>
<path d="M57.4662 57.568C57.568 57.4644 57.6253 57.3235 57.6255 57.1765C57.6258 57.0295 57.5689 56.8884 57.4675 56.7845L56.3818 55.6714C55.9522 55.2312 55.3814 54.9888 54.7747 54.9888C54.7744 54.9888 54.7743 54.9888 54.774 54.9888V60.0977C54.9111 60.0939 55.042 60.0371 55.1395 59.9378L57.4662 57.568Z" fill="#FED601"/>
<path d="M28 31.8C28 30.2536 29.2536 29 30.8 29H43.6279V73.352H30.8C29.2536 73.352 28 72.0984 28 70.552V31.8Z" fill="#E2EFFE"/>
<path d="M59.2558 31.8C59.2558 30.2536 58.0022 29 56.4558 29H43.6279V73.352H56.4558C58.0022 73.352 59.2558 72.0984 59.2558 70.552V31.8Z" fill="#B6D7FC"/>
<path d="M41.5442 35.0483H54.3721V79.4003H48.5116H42.9442C40.6246 79.4003 38.7442 77.5199 38.7442 75.2003V69.3203V37.8483C38.7442 36.3019 39.9978 35.0483 41.5442 35.0483Z" fill="#157DF5"/>
<path d="M70.0001 37.8483C70.0001 36.3019 68.7465 35.0483 67.2001 35.0483H54.3722V79.4003H67.2001C68.7465 79.4003 70.0001 78.1467 70.0001 76.6003V37.8483Z" fill="#0965CD"/>
<path d="M62.1861 49.6643C62.1861 48.8293 61.5091 48.1523 60.6741 48.1523H54.3721V51.1763H60.674C61.5091 51.1763 62.1861 50.4994 62.1861 49.6643Z" fill="#E2EFFE"/>
<path d="M62.1861 56.72C62.1861 55.885 61.5091 55.208 60.6741 55.208H54.3721V58.232H60.674C61.5091 58.232 62.1861 57.5551 62.1861 56.72Z" fill="#E2EFFE"/>
<path d="M52.4186 42.6087C52.4186 41.7736 51.7417 41.0967 50.9066 41.0967H46.1167C45.2816 41.0967 44.6047 41.7736 44.6047 42.6087C44.6047 43.4437 45.2816 44.1207 46.1167 44.1207H50.9066C51.7417 44.1207 52.4186 43.4437 52.4186 42.6087Z" fill="#40D98D"/>
<path d="M52.4186 63.7762C52.4186 62.9411 51.7417 62.2642 50.9066 62.2642H46.1167C45.2816 62.2642 44.6047 62.9411 44.6047 63.7762C44.6047 64.6112 45.2816 65.2882 46.1167 65.2882H50.9066C51.7417 65.2882 52.4186 64.6112 52.4186 63.7762Z" fill="white"/>
<path d="M44.6045 49.6643C44.6045 48.8293 45.2815 48.1523 46.1165 48.1523H54.372V51.1763H46.1165C45.2815 51.1763 44.6045 50.4994 44.6045 49.6643Z" fill="white"/>
<path d="M44.6045 56.72C44.6045 55.885 45.2815 55.208 46.1165 55.208H54.372V58.232H46.1165C45.2815 58.232 44.6045 57.5551 44.6045 56.72Z" fill="white"/>
<path fill-rule="evenodd" clip-rule="evenodd" d="M77.6506 60.4934H79.5529C82.009 60.4934 84 62.4813 84 64.9334C84 66.1977 83.4718 67.3362 82.6244 68.1438L81.2239 77.1411L81.222 77.1532L81.2194 77.1699C81.2161 77.1905 81.2122 77.2139 81.2076 77.2399C81.1985 77.2919 81.1865 77.3548 81.171 77.427C81.1402 77.5707 81.0947 77.756 81.0286 77.9696C80.8995 78.3869 80.6752 78.9663 80.2884 79.5681C79.4551 80.8646 77.8728 82.2002 75.3882 82.2002H59.0117C56.5272 82.2002 54.9449 80.8646 54.1116 79.5681C53.7248 78.9663 53.5005 78.3869 53.3714 77.9696C53.3053 77.756 53.2598 77.5707 53.229 77.427C53.2135 77.3548 53.2015 77.2919 53.1923 77.2399C53.1878 77.2139 53.1839 77.1905 53.1806 77.1699L51.7756 68.1438C50.9282 67.3362 50.4 66.1977 50.4 64.9334C50.4 62.4813 52.391 60.4934 54.8471 60.4934H62.3592C63.6049 59.2751 65.3132 58.5201 67.2 58.5201C67.2788 58.5201 67.3573 58.5214 67.4354 58.524L70.4635 55.5006C72.2002 53.7667 75.0159 53.7667 76.7526 55.5006C78.1049 56.8508 78.4042 58.8541 77.6506 60.4934Z" fill="white"/>
<path d="M67.1997 65.4277H54.3526L56.1072 76.6996C56.1072 76.6996 56.4703 79.2411 59.0115 79.2411C61.5526 79.2411 67.1997 79.2411 67.1997 79.2411C67.1997 79.2411 72.8469 79.2411 75.388 79.2411C77.9292 79.2411 78.2922 76.6996 78.2922 76.6996L80.0468 65.4277H67.1997Z" fill="#40D98D"/>
<path d="M67.1998 79.2411H75.3881C77.9293 79.2411 78.2923 76.6996 78.2923 76.6996L80.0469 65.4277H67.1998V79.2411Z" fill="#25BB71"/>
<path d="M53.3641 64.9346C53.3641 64.1172 54.0278 63.4546 54.8465 63.4546H79.5524C80.3711 63.4546 81.0347 64.1172 81.0347 64.9346C81.0347 65.752 80.3711 66.4146 79.5524 66.4146H54.8465C54.0278 66.4146 53.3641 65.752 53.3641 64.9346Z" fill="#40D98D"/>
<path d="M67.1994 69.3748C69.3826 69.3748 71.1524 67.6078 71.1524 65.4281C71.1524 63.2484 69.3826 61.4814 67.1994 61.4814C65.0163 61.4814 63.2465 63.2484 63.2465 65.4281C63.2465 67.6078 65.0163 69.3748 67.1994 69.3748Z" fill="#40D98D"/>
<rect width="2.96236" height="11.8494" rx="1.48118" transform="matrix(0.707666 0.706547 -0.707666 0.706547 73.6079 56.5479)" fill="#282A52"/>
<path d="M59.7881 70.8574C59.7881 70.0387 60.4518 69.375 61.2704 69.375C62.0891 69.375 62.7528 70.0387 62.7528 70.8574V74.7994C62.7528 75.618 62.0891 76.2817 61.2704 76.2817C60.4518 76.2817 59.7881 75.618 59.7881 74.7994V70.8574Z" fill="white"/>
<path d="M65.7171 70.8574C65.7171 70.0387 66.3807 69.375 67.1994 69.375C68.0181 69.375 68.6818 70.0387 68.6818 70.8574V74.7994C68.6818 75.618 68.0181 76.2817 67.1994 76.2817C66.3807 76.2817 65.7171 75.618 65.7171 74.7994V70.8574Z" fill="white"/>
<path d="M71.6468 70.8574C71.6468 70.0387 72.3104 69.375 73.1291 69.375C73.9478 69.375 74.6115 70.0387 74.6115 70.8574V74.7994C74.6115 75.618 73.9478 76.2817 73.1291 76.2817C72.3104 76.2817 71.6468 75.618 71.6468 74.7994V70.8574Z" fill="#EEFCF5"/>
<path d="M67.1998 76.2817C68.0185 76.2817 68.6822 75.6191 68.6822 74.8017V70.855C68.6822 70.0376 68.0185 69.375 67.1998 69.375V76.2817Z" fill="#EEFCF5"/>
<path d="M67.1998 69.3748C69.383 69.3748 71.1528 67.6078 71.1528 65.4281C71.1528 63.2484 69.383 61.4814 67.1998 61.4814V69.3748Z" fill="#25BB71"/>
<path d="M67.1998 66.4146H79.5528C80.3715 66.4146 81.0351 65.752 81.0351 64.9346C81.0351 64.1172 80.3715 63.4546 79.5528 63.4546H67.1998V66.4146Z" fill="#25BB71"/>
<path fill-rule="evenodd" clip-rule="evenodd" d="M67.1996 66.3989C67.6176 66.4324 68.0472 66.2895 68.367 65.9702L74.6561 59.6911C75.235 59.1131 75.235 58.176 74.6561 57.598C74.0772 57.0201 73.1386 57.0201 72.5598 57.598L67.1996 62.9497V66.3989Z" fill="#1E203E"/>
<path d="M54.775 143.978H51.2005C50.0303 143.978 49.0862 143.007 49.0862 141.81C49.0862 140.914 49.6069 140.115 50.4129 139.773C51.2192 139.431 52.1386 139.618 52.7555 140.251L55.2483 142.806C55.4398 143.003 55.4971 143.298 55.3935 143.554C55.2898 143.811 55.0458 143.978 54.775 143.978Z" fill="#F3263D"/>
<path d="M58.3497 143.978H54.7752C54.5044 143.978 54.2604 143.811 54.1567 143.554C54.0531 143.298 54.1104 143.002 54.3019 142.806L56.7947 140.251C57.4116 139.618 58.3311 139.431 59.1372 139.773C59.9433 140.115 60.464 140.914 60.464 141.809C60.4641 143.009 59.5181 143.978 58.3497 143.978Z" fill="#F54B5E"/>
<path d="M61.9454 160.15H47.6043C47.2346 160.15 46.9349 159.843 46.9349 159.464V150.642C46.9349 146.211 50.4519 142.605 54.7749 142.605C59.0979 142.605 62.6149 146.211 62.6149 150.642V159.464C62.6149 159.843 62.3151 160.15 61.9454 160.15Z" fill="#F0F7FE"/>
<path d="M62.6151 159.464V150.642C62.6151 146.211 59.0981 142.605 54.7751 142.605C54.7748 142.605 54.7746 142.605 54.7743 142.605V160.15H61.9456C62.3153 160.15 62.6151 159.843 62.6151 159.464Z" fill="#E2EFFE"/>
<path d="M57.9285 157.223L55.6799 154.912C55.582 154.812 55.4492 154.755 55.3106 154.755C55.3105 154.755 55.3099 154.755 55.3101 154.755H54.2012C54.2014 154.755 54.2008 154.755 54.2006 154.755C54.0621 154.755 53.9293 154.812 53.8314 154.912L51.5827 157.223C50.9674 157.855 50.7855 158.796 51.1194 159.621C51.4532 160.445 52.2317 160.978 53.1032 160.978C53.7656 160.978 54.3573 160.675 54.7556 160.198C55.1566 160.677 55.7514 160.978 56.4086 160.978C57.2796 160.978 58.058 160.445 58.3918 159.621C58.7257 158.796 58.5438 157.855 57.9285 157.223Z" fill="#F54B5E"/>
<path d="M56.4089 160.978C57.28 160.978 58.0584 160.445 58.3922 159.621C58.7261 158.796 58.5442 157.855 57.9289 157.223L55.6802 154.912C55.5824 154.812 55.4495 154.755 55.311 154.755C55.3108 154.755 55.3103 154.755 55.3105 154.755C55.3107 154.755 55.0428 154.755 54.7702 154.755V160.214C55.1709 160.684 55.7594 160.978 56.4089 160.978Z" fill="#F3263D"/>
<path d="M51.9431 150.2C52.755 150.2 53.4131 149.542 53.4131 148.73C53.4131 147.918 52.755 147.26 51.9431 147.26C51.1313 147.26 50.4731 147.918 50.4731 148.73C50.4731 149.542 51.1313 150.2 51.9431 150.2Z" fill="#282A52"/>
<path d="M57.6922 150.2C58.504 150.2 59.1622 149.542 59.1622 148.73C59.1622 147.918 58.504 147.26 57.6922 147.26C56.8803 147.26 56.2222 147.918 56.2222 148.73C56.2222 149.542 56.8803 150.2 57.6922 150.2Z" fill="#1E203E"/>
<path d="M54.7748 143.978C54.6035 143.978 54.4321 143.911 54.3015 143.777L52.8308 142.27C52.0421 141.461 51.8083 140.256 52.2349 139.199C52.6617 138.143 53.6584 137.46 54.774 137.46C55.8912 137.46 56.8878 138.143 57.3146 139.199C57.7414 140.256 57.5075 141.461 56.7188 142.27L55.2481 143.777C55.1175 143.911 54.9461 143.978 54.7748 143.978Z" fill="#F54B5E"/>
<path d="M55.2482 143.777L56.7188 142.27C57.5075 141.461 57.7414 140.256 57.3146 139.199C56.8879 138.143 55.8912 137.46 54.774 137.46V143.978C54.7743 143.978 54.7745 143.978 54.7748 143.978C54.9461 143.978 55.1175 143.911 55.2482 143.777Z" fill="#F3263D"/>
<path d="M54.7593 156.098C54.7587 156.098 54.7581 156.098 54.7575 156.098C54.6144 156.098 54.4774 156.039 54.3766 155.935L52.0805 153.565C51.871 153.349 51.8715 153 52.0818 152.784L53.1673 151.672C53.5971 151.231 54.1679 150.989 54.7746 150.989C55.3814 150.989 55.9522 151.231 56.3819 151.671L57.4675 152.784C57.5689 152.888 57.6258 153.03 57.6256 153.176C57.6253 153.323 57.568 153.464 57.4663 153.568L55.1396 155.938C55.0384 156.041 54.9017 156.098 54.7593 156.098Z" fill="#FEE048"/>
<path d="M57.4662 153.568C57.568 153.464 57.6253 153.324 57.6255 153.176C57.6258 153.029 57.5689 152.888 57.4675 152.784L56.3818 151.671C55.9522 151.231 55.3814 150.989 54.7747 150.989C54.7744 150.989 54.7743 150.989 54.774 150.989V156.098C54.9111 156.094 55.042 156.037 55.1395 155.938L57.4662 153.568Z" fill="#FED601"/>
<path d="M28 127.8C28 126.254 29.2536 125 30.8 125H43.6279V169.352H30.8C29.2536 169.352 28 168.098 28 166.552V127.8Z" fill="#E2EFFE"/>
<path d="M59.2558 127.8C59.2558 126.254 58.0022 125 56.4558 125H43.6279V169.352H56.4558C58.0022 169.352 59.2558 168.098 59.2558 166.552V127.8Z" fill="#B6D7FC"/>
<path d="M41.5442 131.048H54.3721V175.4H48.5116H42.9442C40.6246 175.4 38.7442 173.52 38.7442 171.2V165.32V133.848C38.7442 132.302 39.9978 131.048 41.5442 131.048Z" fill="#157DF5"/>
<path d="M70.0001 133.848C70.0001 132.302 68.7465 131.048 67.2001 131.048H54.3722V175.4H67.2001C68.7465 175.4 70.0001 174.147 70.0001 172.6V133.848Z" fill="#0965CD"/>
<path d="M62.1861 145.664C62.1861 144.829 61.5091 144.152 60.6741 144.152H54.3721V147.176H60.674C61.5091 147.176 62.1861 146.499 62.1861 145.664Z" fill="#E2EFFE"/>
<path d="M62.1861 152.72C62.1861 151.885 61.5091 151.208 60.6741 151.208H54.3721V154.232H60.674C61.5091 154.232 62.1861 153.555 62.1861 152.72Z" fill="#E2EFFE"/>
<path d="M52.4186 138.609C52.4186 137.774 51.7417 137.097 50.9066 137.097H46.1167C45.2816 137.097 44.6047 137.774 44.6047 138.609C44.6047 139.444 45.2816 140.121 46.1167 140.121H50.9066C51.7417 140.121 52.4186 139.444 52.4186 138.609Z" fill="#40D98D"/>
<path d="M52.4186 159.776C52.4186 158.941 51.7417 158.264 50.9066 158.264H46.1167C45.2816 158.264 44.6047 158.941 44.6047 159.776C44.6047 160.611 45.2816 161.288 46.1167 161.288H50.9066C51.7417 161.288 52.4186 160.611 52.4186 159.776Z" fill="white"/>
<path d="M44.6045 145.664C44.6045 144.829 45.2815 144.152 46.1165 144.152H54.372V147.176H46.1165C45.2815 147.176 44.6045 146.499 44.6045 145.664Z" fill="white"/>
<path d="M44.6045 152.72C44.6045 151.885 45.2815 151.208 46.1165 151.208H54.372V154.232H46.1165C45.2815 154.232 44.6045 153.555 44.6045 152.72Z" fill="white"/>
<path fill-rule="evenodd" clip-rule="evenodd" d="M77.6506 156.493H79.5529C82.009 156.493 84 158.481 84 160.933C84 162.198 83.4718 163.336 82.6244 164.144L81.2239 173.141L81.222 173.153L81.2194 173.17C81.2161 173.19 81.2122 173.214 81.2076 173.24C81.1985 173.292 81.1865 173.355 81.171 173.427C81.1402 173.571 81.0947 173.756 81.0286 173.97C80.8995 174.387 80.6752 174.966 80.2884 175.568C79.4551 176.865 77.8728 178.2 75.3882 178.2H59.0117C56.5272 178.2 54.9449 176.865 54.1116 175.568C53.7248 174.966 53.5005 174.387 53.3714 173.97C53.3053 173.756 53.2598 173.571 53.229 173.427C53.2135 173.355 53.2015 173.292 53.1923 173.24C53.1878 173.214 53.1839 173.19 53.1806 173.17L51.7756 164.144C50.9282 163.336 50.4 162.198 50.4 160.933C50.4 158.481 52.391 156.493 54.8471 156.493H62.3592C63.6049 155.275 65.3132 154.52 67.2 154.52C67.2788 154.52 67.3573 154.521 67.4354 154.524L70.4635 151.501C72.2002 149.767 75.0159 149.767 76.7526 151.501C78.1049 152.851 78.4042 154.854 77.6506 156.493Z" fill="white"/>
<path d="M67.1997 161.428H54.3526L56.1072 172.7C56.1072 172.7 56.4703 175.241 59.0115 175.241C61.5526 175.241 67.1997 175.241 67.1997 175.241C67.1997 175.241 72.8469 175.241 75.388 175.241C77.9292 175.241 78.2922 172.7 78.2922 172.7L80.0468 161.428H67.1997Z" fill="#40D98D"/>
<path d="M67.1998 175.241H75.3881C77.9293 175.241 78.2923 172.7 78.2923 172.7L80.0469 161.428H67.1998V175.241Z" fill="#25BB71"/>
<path d="M53.3641 160.935C53.3641 160.117 54.0278 159.455 54.8465 159.455H79.5524C80.3711 159.455 81.0347 160.117 81.0347 160.935C81.0347 161.752 80.3711 162.415 79.5524 162.415H54.8465C54.0278 162.415 53.3641 161.752 53.3641 160.935Z" fill="#40D98D"/>
<path d="M67.1994 165.375C69.3826 165.375 71.1524 163.608 71.1524 161.428C71.1524 159.248 69.3826 157.481 67.1994 157.481C65.0163 157.481 63.2465 159.248 63.2465 161.428C63.2465 163.608 65.0163 165.375 67.1994 165.375Z" fill="#40D98D"/>
<rect width="2.96236" height="11.8494" rx="1.48118" transform="matrix(0.707666 0.706547 -0.707666 0.706547 73.6079 152.548)" fill="#282A52"/>
<path d="M59.7881 166.857C59.7881 166.039 60.4518 165.375 61.2704 165.375C62.0891 165.375 62.7528 166.039 62.7528 166.857V170.799C62.7528 171.618 62.0891 172.282 61.2704 172.282C60.4518 172.282 59.7881 171.618 59.7881 170.799V166.857Z" fill="white"/>
<path d="M65.7171 166.857C65.7171 166.039 66.3807 165.375 67.1994 165.375C68.0181 165.375 68.6818 166.039 68.6818 166.857V170.799C68.6818 171.618 68.0181 172.282 67.1994 172.282C66.3807 172.282 65.7171 171.618 65.7171 170.799V166.857Z" fill="white"/>
<path d="M71.6468 166.857C71.6468 166.039 72.3104 165.375 73.1291 165.375C73.9478 165.375 74.6115 166.039 74.6115 166.857V170.799C74.6115 171.618 73.9478 172.282 73.1291 172.282C72.3104 172.282 71.6468 171.618 71.6468 170.799V166.857Z" fill="#EEFCF5"/>
<path d="M67.1998 172.282C68.0185 172.282 68.6822 171.619 68.6822 170.802V166.855C68.6822 166.038 68.0185 165.375 67.1998 165.375V172.282Z" fill="#EEFCF5"/>
<path d="M67.1998 165.375C69.383 165.375 71.1528 163.608 71.1528 161.428C71.1528 159.248 69.383 157.481 67.1998 157.481V165.375Z" fill="#25BB71"/>
<path d="M67.1998 162.415H79.5528C80.3715 162.415 81.0351 161.752 81.0351 160.935C81.0351 160.117 80.3715 159.455 79.5528 159.455H67.1998V162.415Z" fill="#25BB71"/>
<path fill-rule="evenodd" clip-rule="evenodd" d="M67.1996 162.399C67.6176 162.432 68.0472 162.29 68.367 161.97L74.6561 155.691C75.235 155.113 75.235 154.176 74.6561 153.598C74.0772 153.02 73.1386 153.02 72.5598 153.598L67.1996 158.95V162.399Z" fill="#1E203E"/>
<defs>
<filter id="filter0_dd_28372_10945" x="6" y="9" width="100" height="100" filterUnits="userSpaceOnUse" color-interpolation-filters="sRGB">
<feFlood flood-opacity="0" result="BackgroundImageFix"/>
<feColorMatrix in="SourceAlpha" type="matrix" values="0 0 0 0 0 0 0 0 0 0 0 0 0 0 0 0 0 0 127 0" result="hardAlpha"/>
<feOffset dy="3"/>
<feGaussianBlur stdDeviation="5"/>
<feColorMatrix type="matrix" values="0 0 0 0 0.516667 0 0 0 0 0.578358 0 0 0 0 0.775 0 0 0 0.12 0"/>
<feBlend mode="normal" in2="BackgroundImageFix" result="effect1_dropShadow_28372_10945"/>
<feColorMatrix in="SourceAlpha" type="matrix" values="0 0 0 0 0 0 0 0 0 0 0 0 0 0 0 0 0 0 127 0" result="hardAlpha"/>
<feOffset dy="1"/>
<feGaussianBlur stdDeviation="3"/>
<feColorMatrix type="matrix" values="0 0 0 0 0.709809 0 0 0 0 0.788943 0 0 0 0 0.920833 0 0 0 0.15 0"/>
<feBlend mode="normal" in2="effect1_dropShadow_28372_10945" result="effect2_dropShadow_28372_10945"/>
<feBlend mode="normal" in="SourceGraphic" in2="effect2_dropShadow_28372_10945" result="shape"/>
</filter>
</defs>
</svg>
