<svg width="112" height="208" viewBox="0 0 112 208" fill="none" xmlns="http://www.w3.org/2000/svg">
<rect x="0.5" y="0.5" width="111" height="207" rx="4.5" stroke="#9747FF" stroke-dasharray="10 5"/>
<g filter="url(#filter0_d_48996_11362)">
<rect x="16" y="16" width="80" height="80" rx="8" fill="white"/>
</g>
<path d="M51.843 35.272C51.843 34.7197 52.2907 34.272 52.843 34.272H77.9999C78.5522 34.272 78.9999 34.7197 78.9999 35.272V42.3343H51.843V35.272Z" fill="#BFF2D9"/>
<path d="M53.6536 34.2707C53.6536 30.8075 56.727 28 60.5182 28H70.3249C74.1161 28 77.1895 30.8075 77.1895 34.2707H53.6536Z" fill="#7B97B7"/>
<path d="M70.3247 28C74.116 28 77.1894 30.8075 77.1894 34.2707H65.4214V28H70.3247Z" fill="#5A7DA5"/>
<rect x="51.843" y="42.3342" width="27.1569" height="8.06228" fill="#40D98D"/>
<path d="M51.843 50.3921H78.9999V57.4544C78.9999 58.0067 78.5522 58.4544 77.9999 58.4544H52.843C52.2907 58.4544 51.843 58.0067 51.843 57.4544V50.3921Z" fill="#BFF2D9"/>
<path d="M56.3691 58.4587H74.4737L67.4331 66.521H63.4098L56.3691 58.4587Z" fill="#7B97B7"/>
<path d="M63.6111 66.5208H67.232C67.232 67.5102 66.4299 68.3124 65.4404 68.3124H65.4027C64.4132 68.3124 63.6111 67.5102 63.6111 66.5208Z" fill="#40D98D"/>
<path d="M78.0299 34.272C78.5656 34.272 78.9998 34.673 78.9998 35.1678V42.3343H65.4214V34.272H78.0299Z" fill="#AAEECC"/>
<rect x="53.6536" y="58.4587" width="2.71569" height="12.5413" fill="#323567"/>
<rect x="74.4739" y="58.4587" width="2.71569" height="12.5413" fill="#1E203E"/>
<path d="M67.2318 66.5208C67.2318 67.5102 66.4213 68.3124 65.4214 68.3124V66.5208H67.2318Z" fill="#25BB71"/>
<path d="M67.433 66.521H65.4214V58.4587H74.4737L67.433 66.521Z" fill="#5A7DA5"/>
<path d="M78.9998 57.5586C78.9998 58.0533 78.5656 58.4544 78.0299 58.4544H65.4214V50.3921H78.9998V57.5586Z" fill="#AAEECC"/>
<path d="M78.9998 50.3965H65.4214V42.3342H78.9998V50.3965Z" fill="#25BB71"/>
<path fill-rule="evenodd" clip-rule="evenodd" d="M50.2762 48.0002C52.2092 48.0002 53.7762 49.5672 53.7762 51.5002V53.2795C55.4256 59.9116 55.3811 67.0797 53.7772 73.7043V75.5002C53.7772 77.4331 52.21 79 50.2772 79.0002H36.7205C34.7875 79.0002 33.2205 77.4332 33.2205 75.5002V73.7141C31.6157 67.0883 31.5708 59.9187 33.2205 53.2854V51.5002C33.2205 49.5672 34.7875 48.0002 36.7205 48.0002H50.2762ZM33.4989 63.2014V63.4983C33.4986 63.3179 33.4998 63.1376 33.5018 62.9573C33.5009 63.0387 33.4993 63.12 33.4989 63.2014Z" fill="white"/>
<path d="M52.2786 73.5337L43.4989 75.7763L41.1445 50.9414L52.2788 53.4634C53.9283 59.9613 53.8861 67.0248 52.2786 73.5337Z" fill="#B6D7FC"/>
<path d="M34.7214 73.5372L43.4984 75.7798V73.5373V51.4844L34.7214 53.4667C33.0719 59.9646 33.114 67.0283 34.7214 73.5372Z" fill="#E2EFFE"/>
<path d="M43.4982 53.465H52.2786V51.5C52.2786 50.3954 51.3832 49.5 50.2786 49.5H43.4982L42.5215 51.68L43.4982 53.465Z" fill="#0965CD"/>
<path d="M43.4984 73.5352H52.2789V75.5001C52.2789 76.6047 51.3835 77.5001 50.2789 77.5001H43.4984L42.3613 75.5176L43.4984 73.5352Z" fill="#0965CD"/>
<path d="M34.7219 51.5C34.7219 50.3954 35.6174 49.5 36.7219 49.5H43.4997V53.465H34.7219V51.5Z" fill="#157DF5"/>
<path d="M34.7217 73.5352H43.4995V77.5001H36.7217C35.6171 77.5001 34.7217 76.6047 34.7217 75.5001V73.5352Z" fill="#157DF5"/>
<path fill-rule="evenodd" clip-rule="evenodd" d="M45.3648 58.5954C45.1987 58.586 45.0331 58.6156 44.8803 58.6816C44.8626 58.5822 44.8345 58.4835 44.7956 58.3873C44.7477 58.2686 44.6856 58.1591 44.6119 58.0606C44.3509 57.7118 43.9439 57.5 43.4994 57.5C43.0555 57.5 42.6485 57.7118 42.3876 58.0607C42.3139 58.1593 42.2519 58.2687 42.204 58.3874C42.1651 58.4835 42.137 58.5821 42.1193 58.6816C41.9666 58.6156 41.8011 58.586 41.6351 58.5954C41.5135 58.6023 41.3917 58.6301 41.2745 58.6799C40.8871 58.8444 40.6288 59.2159 40.6003 59.6406C40.5985 59.6667 40.5976 59.6929 40.5976 59.7193C40.5976 60.2117 40.9108 60.629 41.345 60.7722C40.9055 61.0615 40.5246 61.4364 40.2248 61.8739C39.7682 62.5401 39.5 63.3514 39.5 64.2256V68.7263C39.5 68.9197 39.6529 69.0765 39.8415 69.0765H41.79C41.9943 69.3398 42.3068 69.499 42.6471 69.499C42.8415 69.499 43.024 69.4478 43.1826 69.358C43.2997 69.2916 43.4038 69.2042 43.4901 69.1008C43.5768 69.2044 43.6812 69.2917 43.7983 69.3579C43.9576 69.448 44.1402 69.499 44.3334 69.499C44.6735 69.499 44.9859 69.3398 45.1902 69.0765H47.1583C47.3469 69.0765 47.4999 68.9197 47.4999 68.7263V64.2256C47.4999 63.3513 47.2316 62.5401 46.775 61.8738C46.4752 61.4364 46.0943 61.0614 45.6548 60.7722C46.0886 60.6291 46.4021 60.2123 46.4021 59.7186C46.4021 59.6924 46.4012 59.6664 46.3995 59.6406C46.3711 59.2163 46.1128 58.8445 45.7251 58.6798C45.6081 58.6301 45.4863 58.6023 45.3648 58.5954ZM45.7972 57.1414C45.2616 56.4389 44.4251 56 43.4994 56C42.574 56 41.7379 56.4391 41.2024 57.1415C41.0283 57.1755 40.856 57.2279 40.6883 57.2992C39.7073 57.7159 39.0976 58.678 39.0976 59.7193C39.0976 60.0458 39.1575 60.3605 39.2678 60.6515C38.4749 61.6238 38 62.8715 38 64.2256V68.7263C38 69.7127 38.7895 70.5764 39.8415 70.5764H41.2331C41.6431 70.8455 42.1306 70.999 42.6471 70.999C42.9433 70.999 43.227 70.949 43.4906 70.8579C43.7546 70.9491 44.0381 70.999 44.3334 70.999C44.8498 70.999 45.3372 70.8455 45.7472 70.5764H47.1583C48.2103 70.5764 48.9998 69.7127 48.9998 68.7263V64.2256C48.9998 62.8715 48.5249 61.6237 47.7319 60.6513C47.8422 60.3603 47.9021 60.0454 47.9021 59.7186M45.7972 57.1414C45.9713 57.1755 46.1436 57.2279 46.3113 57.2991C47.2919 57.7156 47.902 58.6774 47.9021 59.7186" fill="white"/>
<path d="M43.5004 60.8255H41.6765C41.0794 60.8255 40.5977 60.3302 40.5977 59.7195C40.5977 59.2624 40.8634 58.8546 41.2746 58.6799C41.686 58.5052 42.1552 58.6009 42.4699 58.9237L43.7419 60.2277C43.8396 60.3278 43.8688 60.4784 43.8159 60.6093C43.7631 60.7402 43.6385 60.8255 43.5004 60.8255Z" fill="#F3263D"/>
<path d="M45.3236 60.8255H43.4998C43.3616 60.8255 43.2371 60.7401 43.1842 60.6093C43.1314 60.4784 43.1606 60.3278 43.2583 60.2276L44.5302 58.9236C44.845 58.6009 45.3142 58.5053 45.7255 58.6799C46.1368 58.8546 46.4025 59.2624 46.4025 59.7187C46.4025 60.3313 45.9198 60.8255 45.3236 60.8255Z" fill="#F54B5E"/>
<path d="M47.1591 69.0774H39.8416C39.6529 69.0774 39.5 68.9206 39.5 68.7272V64.2261C39.5 61.9647 41.2945 60.125 43.5003 60.125C45.7061 60.125 47.5006 61.9647 47.5006 64.2261V68.7272C47.5006 68.9206 47.3477 69.0774 47.1591 69.0774Z" fill="#F0F7FE"/>
<path d="M47.5007 68.7272V64.2261C47.5007 61.9647 45.7062 60.125 43.5004 60.125C43.5003 60.125 43.5001 60.125 43.5 60.125V69.0773H47.1591C47.3478 69.0774 47.5007 68.9206 47.5007 68.7272Z" fill="#E2EFFE"/>
<path d="M45.1093 67.587L43.9619 66.4083C43.912 66.3569 43.8442 66.3281 43.7735 66.3281C43.7734 66.3281 43.7732 66.3281 43.7732 66.3281H43.2074C43.2075 66.3281 43.2073 66.3281 43.2072 66.3281C43.1365 66.3281 43.0687 66.3569 43.0188 66.4083L41.8714 67.5871C41.5574 67.9097 41.4646 68.39 41.635 68.8106C41.8053 69.2315 42.2025 69.5033 42.6472 69.5033C42.9852 69.5033 43.2871 69.3487 43.4903 69.1051C43.6949 69.3497 43.9984 69.5033 44.3337 69.5033C44.7782 69.5033 45.1754 69.2314 45.3457 68.8107C45.516 68.39 45.4232 67.9097 45.1093 67.587Z" fill="#F54B5E"/>
<path d="M44.3342 69.5033C44.7786 69.5033 45.1758 69.2314 45.3461 68.8107C45.5165 68.39 45.4237 67.9097 45.1097 67.587L43.9624 66.4083C43.9124 66.3569 43.8447 66.3281 43.774 66.3281C43.7739 66.3281 43.7736 66.3281 43.7737 66.3281C43.7738 66.3281 43.6371 66.3281 43.498 66.3281V69.1133C43.7025 69.3531 44.0027 69.5033 44.3342 69.5033Z" fill="#F3263D"/>
<path d="M42.0547 64.0001C42.469 64.0001 42.8048 63.6643 42.8048 63.2501C42.8048 62.8358 42.469 62.5 42.0547 62.5C41.6405 62.5 41.3047 62.8358 41.3047 63.2501C41.3047 63.6643 41.6405 64.0001 42.0547 64.0001Z" fill="#282A52"/>
<path d="M44.9883 64.0001C45.4026 64.0001 45.7384 63.6643 45.7384 63.2501C45.7384 62.8358 45.4026 62.5 44.9883 62.5C44.5741 62.5 44.2383 62.8358 44.2383 63.2501C44.2383 63.6643 44.5741 64.0001 44.9883 64.0001Z" fill="#1E203E"/>
<path d="M43.5 60.826C43.4126 60.826 43.3252 60.7918 43.2585 60.7234L42.5081 59.9541C42.1057 59.5416 41.9863 58.9266 42.204 58.3875C42.4218 57.8483 42.9304 57.5 43.4996 57.5C44.0696 57.5 44.5782 57.8483 44.7959 58.3874C45.0137 58.9266 44.8943 59.5416 44.4919 59.9541L43.7415 60.7234C43.6748 60.7918 43.5874 60.826 43.5 60.826Z" fill="#F54B5E"/>
<path d="M43.7419 60.7234L44.4923 59.9541C44.8947 59.5416 45.0141 58.9266 44.7963 58.3874C44.5786 57.8483 44.07 57.5 43.5 57.5V60.826C43.5001 60.826 43.5003 60.826 43.5004 60.826C43.5878 60.826 43.6752 60.7918 43.7419 60.7234Z" fill="#F3263D"/>
<path d="M43.4918 67.0135C43.4915 67.0135 43.4912 67.0135 43.4908 67.0135C43.4178 67.0132 43.3479 66.9832 43.2965 66.9301L42.1249 65.7209C42.018 65.6106 42.0183 65.4325 42.1256 65.3225L42.6794 64.7546C42.8988 64.5299 43.19 64.4062 43.4996 64.4062C43.8092 64.4062 44.1004 64.5299 44.3197 64.7546L44.8736 65.3225C44.9253 65.3755 44.9544 65.4475 44.9542 65.5225C44.9541 65.5975 44.9249 65.6694 44.873 65.7223L43.6858 66.9315C43.6342 66.984 43.5644 67.0135 43.4918 67.0135Z" fill="#FEE048"/>
<path d="M44.8727 65.7223C44.9246 65.6694 44.9539 65.5975 44.954 65.5225C44.9541 65.4475 44.9251 65.3755 44.8733 65.3225L44.3194 64.7546C44.1002 64.5299 43.8089 64.4062 43.4993 64.4062C43.4992 64.4062 43.4991 64.4062 43.499 64.4062V67.0131C43.569 67.0111 43.6357 66.9822 43.6855 66.9314L44.8727 65.7223Z" fill="#FED601"/>
<path d="M55.2986 65.7814C56.2322 65.7077 56.3007 67.1104 55.3616 67.1235C54.5066 67.1352 54.4373 65.8496 55.2986 65.7814Z" fill="#323567"/>
<path d="M55.2041 64.5853C55.7619 64.5413 56.29 64.7226 56.6767 65.1039C57.0411 65.4632 57.2107 65.9301 57.2314 66.3627C57.2521 66.7952 57.128 67.2773 56.7978 67.6703C56.4913 68.035 56.0626 68.2551 55.5859 68.3099L55.3779 68.3236C54.838 68.3309 54.3475 68.1235 53.9971 67.7523C53.6653 67.4009 53.5091 66.9571 53.4883 66.5424C53.4675 66.1276 53.5783 65.6681 53.8779 65.2836C54.1946 64.8772 54.667 64.6278 55.2041 64.5853ZM55.2988 65.7816C54.4377 65.8498 54.5066 67.1348 55.3613 67.1234C56.3004 67.1102 56.2323 65.7083 55.2988 65.7816Z" fill="white"/>
<path d="M59.056 66.3398C58.7308 66.0507 58.745 65.454 59.1496 65.2401C59.9125 64.8372 60.5974 65.8903 59.8652 66.37C59.6432 66.5157 59.2591 66.5203 59.056 66.3398Z" fill="#323567"/>
<path d="M58.5893 64.1794C59.6027 63.6441 60.6175 64.1091 61.0776 64.8259C61.305 65.1804 61.4351 65.6427 61.353 66.1326C61.2666 66.6475 60.9637 67.0849 60.5229 67.3738L60.5219 67.3728C60.1709 67.6028 59.7706 67.6838 59.4282 67.6765C59.0895 67.6693 58.6348 67.5718 58.2582 67.2371C57.7856 66.8168 57.5974 66.218 57.6313 65.6853C57.6661 65.1386 57.9507 64.517 58.5893 64.1794ZM59.8657 66.3699C60.5971 65.8901 59.9124 64.8375 59.1498 65.24C58.7452 65.4539 58.731 66.0505 59.0561 66.3396C59.2592 66.5201 59.6437 66.5155 59.8657 66.3699Z" fill="white"/>
<path d="M74.3741 75.2191C74.9826 74.6332 75.895 75.5383 75.3644 76.1358C74.7055 76.8782 73.712 75.8561 74.3741 75.2191Z" fill="#323567"/>
<path d="M74.9466 73.8343C75.4269 73.8691 75.8358 74.0885 76.1263 74.3665C76.6848 74.9013 77.0766 76.0134 76.261 76.932L76.262 76.9329C75.893 77.3487 75.3877 77.5993 74.8294 77.5951C74.3009 77.5909 73.8477 77.3592 73.5345 77.0531C73.2224 76.7479 72.9884 76.3117 72.9583 75.807C72.9264 75.2705 73.1322 74.7487 73.5413 74.3548C73.9327 73.978 74.4359 73.7973 74.9466 73.8343ZM75.3645 76.1361C75.895 75.5387 74.9828 74.6337 74.3743 75.2191L74.3167 75.2796C73.7733 75.918 74.7261 76.8553 75.3645 76.1361Z" fill="white"/>
<path d="M77.3183 64.9743C80.5963 64.6644 82.9557 67.8075 81.6197 70.7941C80.9703 72.2455 79.5572 73.1607 77.9378 73.2072L49.7239 73.1886C49.1421 73.0685 49.2019 72.1146 49.8246 72.0448L77.3875 72.0464C79.9004 72.1928 81.6583 69.8959 80.4145 67.6324C79.0833 65.2099 75.4258 65.8539 74.94 68.515C74.8448 69.0389 75.0054 69.7843 74.1654 69.6805C73.6159 69.6123 73.6679 69.0319 73.7104 68.6204C73.8946 66.8303 75.4714 65.1487 77.3183 64.9743Z" fill="#323567"/>
<path d="M77.59 63.756C81.4067 63.6433 84.2085 67.2843 82.8634 70.921L82.715 71.2843C81.8692 73.1746 80.0312 74.3472 77.9718 74.4064L77.9543 74.4073L49.6007 74.3888L49.4816 74.3644C48.419 74.145 48.0755 73.1666 48.1261 72.506C48.1781 71.8295 48.661 70.9682 49.6906 70.8526L49.758 70.8448L73.8693 70.8458C73.5624 70.783 73.2631 70.6433 73.0158 70.4005C72.7402 70.1299 72.611 69.8141 72.55 69.5655C72.4411 69.1224 72.5 68.6598 72.5168 68.4972C72.756 66.175 74.7525 64.011 77.2052 63.7794L77.59 63.756ZM77.3185 64.9747C75.4717 65.1491 73.8944 66.8302 73.7101 68.6202C73.6676 69.0317 73.6158 69.6125 74.1652 69.6808C75.0052 69.7846 74.8443 69.0386 74.9396 68.5148C75.4255 65.8539 79.083 65.2106 80.4142 67.6329C81.6577 69.8963 79.9004 72.1922 77.3878 72.046L49.8244 72.045C49.2018 72.1149 49.1421 73.0685 49.7238 73.1886L77.9376 73.2071C79.557 73.1606 80.9698 72.2455 81.6193 70.7941C82.9552 67.8076 80.5964 64.665 77.3185 64.9747ZM79.3625 68.2101C78.5857 66.7973 76.4072 67.1586 76.1203 68.7306C76.1105 68.7846 76.1083 68.8386 76.0929 69.0294C76.0816 69.1692 76.0602 69.4344 75.9748 69.7003C75.8819 69.9892 75.682 70.3795 75.2501 70.6417C75.0791 70.7456 74.9018 70.8085 74.7277 70.8458L77.422 70.8468L77.4572 70.8487C78.3279 70.8995 78.9885 70.5286 79.3322 70.047C79.6587 69.589 79.7658 68.944 79.3625 68.2101Z" fill="white"/>
<path d="M68.1958 75.6941C69.7569 75.6686 71.2723 75.6631 72.4902 76.7465C74.6189 78.6404 74.3126 82.1671 71.7549 83.5318C69.094 84.9515 65.6979 82.9824 65.6089 80.0361C65.5932 79.5223 65.8372 79.1751 66.4056 79.2906C66.8969 79.3906 66.7851 79.8943 66.8323 80.2252C67.2739 83.3171 71.4345 83.8193 72.5476 80.9071C73.2774 78.9992 71.8997 77.0433 69.8765 76.9201L45.5268 76.9216C44.8615 76.8472 44.8025 75.8716 45.4866 75.76C50.1966 75.7747 63.496 75.7716 68.1958 75.6941Z" fill="#323567"/>
<path d="M68.1757 74.4942C69.6197 74.4705 71.5455 74.4153 73.1347 75.7198L73.288 75.8496L73.5331 76.083C75.978 78.5475 75.5532 82.8654 72.3192 84.5909C68.8872 86.4216 64.526 83.9241 64.4091 80.0733V79.9102C64.4217 79.513 64.5308 79.0071 64.9188 78.5996C65.166 78.3402 65.4561 78.1908 65.7528 78.1202L45.4598 78.1221L45.3934 78.1143C44.3792 78.0009 43.8367 77.1655 43.8016 76.4102C43.7656 75.6301 44.2599 74.7439 45.2929 74.5752L45.3915 74.5596H45.4901C50.2017 74.5743 63.4893 74.5714 68.1757 74.4942ZM68.1952 75.6944L66.0634 75.7198C60.3048 75.7721 49.6074 75.7727 45.4862 75.7598C44.8025 75.8716 44.8614 76.8472 45.5263 76.9219L69.8768 76.92C71.8998 77.0434 73.2775 78.9995 72.5477 80.9073C71.4694 83.7283 67.5316 83.3452 66.8847 80.5078L66.8319 80.2256C66.7847 79.8947 66.8964 79.391 66.4052 79.291C65.837 79.1757 65.5935 79.5225 65.6093 80.0362C65.6983 82.9824 69.094 84.9517 71.7548 83.5323C74.3125 82.1676 74.6188 78.6401 72.4901 76.7461C71.2723 75.6629 69.7562 75.6688 68.1952 75.6944ZM66.6698 78.1202C66.9986 78.1917 67.3184 78.353 67.5682 78.6328C67.8111 78.9049 67.9117 79.204 67.9579 79.4151C68.0022 79.6178 68.0097 79.8086 68.0136 79.9053C68.0162 79.9697 68.0165 79.9946 68.0184 80.0303C68.0191 80.043 68.02 80.0513 68.0204 80.0557C68.2941 81.9704 70.7732 82.1881 71.4266 80.4785L71.4911 80.2735C71.7446 79.2513 71.0143 78.2022 69.8202 78.1202H66.6698Z" fill="white"/>
<path d="M67.9211 61.4894C70.7418 61.2616 72.9217 63.9343 72.173 66.6032C71.6912 68.3212 70.1333 69.6262 68.3037 69.7223H52.5338C51.8277 69.6805 51.7615 68.701 52.4559 68.5584L68.1077 68.5607C70.9819 68.546 72.2257 64.9968 69.953 63.2199C68.2565 61.8932 65.6736 62.8905 65.2737 64.9588C65.2225 65.2238 65.2422 65.4579 65.2059 65.7043C65.1532 66.0662 64.8249 66.2522 64.4667 66.1809C63.9039 66.0693 63.9873 65.4927 64.0416 65.0611C64.2809 63.1501 65.9885 61.646 67.9211 61.4894Z" fill="#323567"/>
<path d="M67.8246 60.293C71.4738 59.9984 74.3036 63.4498 73.3285 66.9268C72.7125 69.1232 70.7277 70.7969 68.3666 70.9209L68.3353 70.9219H52.4984L52.4623 70.92C50.3 70.7914 50.2005 67.7965 52.2142 67.3828L52.3344 67.3584L64.2484 67.3594L64.2328 67.3575C63.8831 67.288 63.5414 67.1236 63.2728 66.8321C63.013 66.5501 62.8972 66.2315 62.8461 65.9776C62.7564 65.5322 62.832 65.0616 62.851 64.9112C63.1678 62.3841 65.3799 60.491 67.8246 60.293ZM67.9213 61.4893C65.9887 61.6458 64.2808 63.1497 64.0414 65.0606C63.9871 65.4921 63.9038 66.0689 64.4662 66.1807C64.8244 66.252 65.1527 66.066 65.2055 65.7041C65.2416 65.4578 65.2227 65.2239 65.2738 64.959C65.6737 62.8908 68.256 61.8933 69.9525 63.2198C72.2252 64.9966 70.9818 68.5457 68.1078 68.5606L52.4555 68.5586C51.7616 68.7015 51.8277 69.6798 52.5336 69.7217H68.3041C70.1334 69.6254 71.6915 68.3204 72.1732 66.6026C72.9215 63.9339 70.7416 61.2617 67.9213 61.4893ZM69.2133 64.1651C68.2287 63.3953 66.6825 63.992 66.4515 65.1866C66.4433 65.2295 66.4386 65.2822 66.433 65.3975C66.4283 65.4936 66.4216 65.6843 66.393 65.8789C66.2658 66.7462 65.6333 67.2346 64.9515 67.3594H68.101C69.8625 67.3504 70.5691 65.2255 69.2133 64.1651Z" fill="white"/>
<path d="M77.0403 69.2623C77.7693 69.1477 78.1936 70.0109 77.5812 70.4526C77.0954 70.8029 76.4208 70.3945 76.5027 69.8172C76.5365 69.5762 76.7939 69.3019 77.0403 69.2623Z" fill="#323567"/>
<path d="M76.8544 68.0771C77.7608 67.9347 78.5593 68.4131 78.9003 69.1386C79.2568 69.8976 79.0755 70.8543 78.2831 71.4257C76.9608 72.3793 75.0803 71.2989 75.3143 69.6484C75.3767 69.2081 75.6099 68.8592 75.8261 68.6337C76.0423 68.4083 76.391 68.1508 76.8505 68.0771H76.8544ZM77.0409 69.2627C76.7945 69.3022 76.5367 69.5763 76.5028 69.8173C76.4262 70.3584 77.0142 70.7512 77.4882 70.5097L77.5809 70.4531C78.1933 70.0114 77.7697 69.1483 77.0409 69.2627Z" fill="white"/>
<path d="M45.7197 80.9666C45.1316 80.349 46.0606 79.4524 46.6714 80.0111C47.3989 80.676 46.3274 81.6052 45.7197 80.9666Z" fill="#323567"/>
<path d="M44.9043 79.1928C45.4741 78.6319 46.5899 78.3102 47.4815 79.1255C47.8901 79.4991 48.1398 80.0131 48.1143 80.5844C48.0902 81.1219 47.8291 81.5629 47.5147 81.8559C46.9451 82.3865 45.8646 82.6697 45.0166 81.9516L44.8506 81.7944C44.4759 81.4009 44.2944 80.8935 44.3389 80.3755C44.3808 79.8883 44.6138 79.4789 44.9043 79.1928ZM46.6719 80.0112C46.061 79.4525 45.1317 80.3496 45.7197 80.9673C46.3085 81.5853 47.332 80.733 46.7344 80.0747L46.6719 80.0112Z" fill="white"/>
<path d="M49.0117 79.7633C48.304 79.2115 49.1802 78.1661 49.8808 78.7342C50.5437 79.272 49.7132 80.3096 49.0117 79.7633Z" fill="#323567"/>
<path d="M49.163 77.3923C49.6149 77.321 50.0745 77.4206 50.4706 77.6803L50.6366 77.8024C51.067 78.1516 51.3091 78.6425 51.3231 79.1667C51.3362 79.6584 51.1484 80.0969 50.8846 80.4176C50.62 80.7393 50.2263 81.0063 49.7421 81.0905C49.2934 81.1684 48.8365 81.0762 48.4403 80.8268L48.2743 80.7096C47.8359 80.3679 47.5725 79.8772 47.5516 79.3356C47.5321 78.828 47.728 78.3794 47.9999 78.0563C48.2725 77.7323 48.675 77.4692 49.163 77.3923ZM49.8807 78.734C49.1801 78.166 48.3039 79.2116 49.0116 79.7633C49.713 80.3096 50.5436 79.2718 49.8807 78.734Z" fill="white"/>
<path d="M47.1945 73.1696C48.1305 73.0774 48.2211 74.497 47.2551 74.5009C46.4459 74.504 46.3537 73.2525 47.1945 73.1696Z" fill="#323567"/>
<path d="M47.0764 71.9756C47.6374 71.9203 48.1728 72.0941 48.5666 72.4727C48.9371 72.8289 49.112 73.2974 49.1359 73.7334C49.1599 74.1699 49.0363 74.6593 48.6975 75.0567C48.338 75.4781 47.8193 75.698 47.26 75.7002C46.0692 75.7048 45.4558 74.7365 45.4084 73.9385C45.3844 73.5325 45.4864 73.0774 45.7766 72.6914C46.0835 72.2834 46.5459 72.028 47.0764 71.9756ZM47.1945 73.169C46.4064 73.2467 46.4379 74.3519 47.1115 74.4873L47.2551 74.501C48.221 74.4971 48.1305 73.0769 47.1945 73.169Z" fill="white"/>
<path d="M77.4446 76.7599C78.4397 76.5786 78.5601 77.927 77.7406 78.0571C76.8251 78.2028 76.6558 76.9033 77.4446 76.7599Z" fill="#323567"/>
<path d="M77.427 75.5529C77.8893 75.5106 78.3542 75.6166 78.7425 75.9054C79.1678 76.2219 79.3907 76.6764 79.4583 77.1056C79.5791 77.8742 79.1988 78.9098 78.1477 79.1955L77.929 79.2423C77.4 79.3264 76.8746 79.2077 76.4573 78.881C76.0614 78.5709 75.8463 78.1393 75.7727 77.7287C75.6323 76.9445 76.0084 75.8014 77.2298 75.5792L77.427 75.5529ZM77.7405 78.0578C78.56 77.9276 78.4397 76.5786 77.4446 76.7599C76.6803 76.8988 76.8155 78.1231 77.6575 78.0665L77.7405 78.0578Z" fill="white"/>
<path d="M68.1116 66.923C67.8243 67.2198 67.3 67.1749 67.0701 66.8331C66.6474 66.2054 67.3905 65.5111 67.988 65.8908C68.3375 66.1132 68.3982 66.6262 68.1116 66.923Z" fill="#323567"/>
<path d="M66.3041 65.1295C66.8513 64.5904 67.7948 64.347 68.6312 64.8785H68.6322C69.6209 65.5077 69.7895 66.9126 68.975 67.7564L68.974 67.7574C68.1606 68.5976 66.7352 68.4828 66.0756 67.5025L66.0746 67.5035C65.5044 66.6568 65.7332 65.692 66.3041 65.1295ZM67.9877 65.8912C67.3902 65.5115 66.647 66.2059 67.0697 66.8336C67.2852 67.1538 67.7599 67.2134 68.0551 66.9752L68.1117 66.9234C68.3983 66.6266 68.3372 66.1136 67.9877 65.8912Z" fill="white"/>
<path d="M51.843 131.272C51.843 130.72 52.2907 130.272 52.843 130.272H77.9999C78.5522 130.272 78.9999 130.72 78.9999 131.272V138.334H51.843V131.272Z" fill="#BFF2D9"/>
<path d="M53.6536 130.271C53.6536 126.807 56.727 124 60.5182 124H70.3249C74.1161 124 77.1895 126.807 77.1895 130.271H53.6536Z" fill="#7B97B7"/>
<path d="M70.3247 124C74.116 124 77.1894 126.807 77.1894 130.271H65.4214V124H70.3247Z" fill="#5A7DA5"/>
<rect x="51.843" y="138.334" width="27.1569" height="8.06228" fill="#40D98D"/>
<path d="M51.843 146.392H78.9999V153.454C78.9999 154.007 78.5522 154.454 77.9999 154.454H52.843C52.2907 154.454 51.843 154.007 51.843 153.454V146.392Z" fill="#BFF2D9"/>
<path d="M56.3691 154.459H74.4737L67.4331 162.521H63.4098L56.3691 154.459Z" fill="#7B97B7"/>
<path d="M63.6111 162.521H67.232C67.232 163.51 66.4299 164.312 65.4404 164.312H65.4027C64.4132 164.312 63.6111 163.51 63.6111 162.521Z" fill="#40D98D"/>
<path d="M78.0299 130.272C78.5656 130.272 78.9998 130.673 78.9998 131.168V138.334H65.4214V130.272H78.0299Z" fill="#AAEECC"/>
<rect x="53.6536" y="154.459" width="2.71569" height="12.5413" fill="#323567"/>
<rect x="74.4739" y="154.459" width="2.71569" height="12.5413" fill="#1E203E"/>
<path d="M67.2318 162.521C67.2318 163.51 66.4213 164.312 65.4214 164.312V162.521H67.2318Z" fill="#25BB71"/>
<path d="M67.433 162.521H65.4214V154.459H74.4737L67.433 162.521Z" fill="#5A7DA5"/>
<path d="M78.9998 153.559C78.9998 154.053 78.5656 154.454 78.0299 154.454H65.4214V146.392H78.9998V153.559Z" fill="#AAEECC"/>
<path d="M78.9998 146.397H65.4214V138.334H78.9998V146.397Z" fill="#25BB71"/>
<path fill-rule="evenodd" clip-rule="evenodd" d="M50.2762 144C52.2092 144 53.7762 145.567 53.7762 147.5V149.28C55.4256 155.912 55.3811 163.08 53.7772 169.704V171.5C53.7772 173.433 52.21 175 50.2772 175H36.7205C34.7875 175 33.2205 173.433 33.2205 171.5V169.714C31.6157 163.088 31.5708 155.919 33.2205 149.285V147.5C33.2205 145.567 34.7875 144 36.7205 144H50.2762ZM33.4989 159.201V159.498C33.4986 159.318 33.4998 159.138 33.5018 158.957C33.5009 159.039 33.4993 159.12 33.4989 159.201Z" fill="white"/>
<path d="M52.2786 169.534L43.4989 171.776L41.1445 146.941L52.2788 149.463C53.9283 155.961 53.8861 163.025 52.2786 169.534Z" fill="#B6D7FC"/>
<path d="M34.7214 169.537L43.4984 171.78V169.537V147.484L34.7214 149.467C33.0719 155.965 33.114 163.028 34.7214 169.537Z" fill="#E2EFFE"/>
<path d="M43.4982 149.465H52.2786V147.5C52.2786 146.395 51.3832 145.5 50.2786 145.5H43.4982L42.5215 147.68L43.4982 149.465Z" fill="#0965CD"/>
<path d="M43.4984 169.535H52.2789V171.5C52.2789 172.605 51.3835 173.5 50.2789 173.5H43.4984L42.3613 171.518L43.4984 169.535Z" fill="#0965CD"/>
<path d="M34.7219 147.5C34.7219 146.395 35.6174 145.5 36.7219 145.5H43.4997V149.465H34.7219V147.5Z" fill="#157DF5"/>
<path d="M34.7217 169.535H43.4995V173.5H36.7217C35.6171 173.5 34.7217 172.605 34.7217 171.5V169.535Z" fill="#157DF5"/>
<path fill-rule="evenodd" clip-rule="evenodd" d="M45.3648 154.595C45.1987 154.586 45.0331 154.616 44.8803 154.682C44.8626 154.582 44.8345 154.484 44.7956 154.387C44.7477 154.269 44.6856 154.159 44.6119 154.061C44.3509 153.712 43.9439 153.5 43.4994 153.5C43.0555 153.5 42.6485 153.712 42.3876 154.061C42.3139 154.159 42.2519 154.269 42.204 154.387C42.1651 154.484 42.137 154.582 42.1193 154.682C41.9666 154.616 41.8011 154.586 41.6351 154.595C41.5135 154.602 41.3917 154.63 41.2745 154.68C40.8871 154.844 40.6288 155.216 40.6003 155.641C40.5985 155.667 40.5976 155.693 40.5976 155.719C40.5976 156.212 40.9108 156.629 41.345 156.772C40.9055 157.061 40.5246 157.436 40.2248 157.874C39.7682 158.54 39.5 159.351 39.5 160.226V164.726C39.5 164.92 39.6529 165.076 39.8415 165.076H41.79C41.9943 165.34 42.3068 165.499 42.6471 165.499C42.8415 165.499 43.024 165.448 43.1826 165.358C43.2997 165.292 43.4038 165.204 43.4901 165.101C43.5768 165.204 43.6812 165.292 43.7983 165.358C43.9576 165.448 44.1402 165.499 44.3334 165.499C44.6735 165.499 44.9859 165.34 45.1902 165.076H47.1583C47.3469 165.076 47.4999 164.92 47.4999 164.726V160.226C47.4999 159.351 47.2316 158.54 46.775 157.874C46.4752 157.436 46.0943 157.061 45.6548 156.772C46.0886 156.629 46.4021 156.212 46.4021 155.719C46.4021 155.692 46.4012 155.666 46.3995 155.641C46.3711 155.216 46.1128 154.845 45.7251 154.68C45.6081 154.63 45.4863 154.602 45.3648 154.595ZM45.7972 153.141C45.2616 152.439 44.4251 152 43.4994 152C42.574 152 41.7379 152.439 41.2024 153.141C41.0283 153.176 40.856 153.228 40.6883 153.299C39.7073 153.716 39.0976 154.678 39.0976 155.719C39.0976 156.046 39.1575 156.361 39.2678 156.652C38.4749 157.624 38 158.872 38 160.226V164.726C38 165.713 38.7895 166.576 39.8415 166.576H41.2331C41.6431 166.846 42.1306 166.999 42.6471 166.999C42.9433 166.999 43.227 166.949 43.4906 166.858C43.7546 166.949 44.0381 166.999 44.3334 166.999C44.8498 166.999 45.3372 166.845 45.7472 166.576H47.1583C48.2103 166.576 48.9998 165.713 48.9998 164.726V160.226C48.9998 158.871 48.5249 157.624 47.7319 156.651C47.8422 156.36 47.9021 156.045 47.9021 155.719M45.7972 153.141C45.9713 153.175 46.1436 153.228 46.3113 153.299C47.2919 153.716 47.902 154.677 47.9021 155.719" fill="white"/>
<path d="M43.5004 156.825H41.6765C41.0794 156.825 40.5977 156.33 40.5977 155.719C40.5977 155.262 40.8634 154.855 41.2746 154.68C41.686 154.505 42.1552 154.601 42.4699 154.924L43.7419 156.228C43.8396 156.328 43.8688 156.478 43.8159 156.609C43.7631 156.74 43.6385 156.825 43.5004 156.825Z" fill="#F3263D"/>
<path d="M45.3236 156.825H43.4998C43.3616 156.825 43.2371 156.74 43.1842 156.609C43.1314 156.478 43.1606 156.328 43.2583 156.228L44.5302 154.924C44.845 154.601 45.3142 154.505 45.7255 154.68C46.1368 154.855 46.4025 155.262 46.4025 155.719C46.4025 156.331 45.9198 156.825 45.3236 156.825Z" fill="#F54B5E"/>
<path d="M47.1591 165.077H39.8416C39.6529 165.077 39.5 164.921 39.5 164.727V160.226C39.5 157.965 41.2945 156.125 43.5003 156.125C45.7061 156.125 47.5006 157.965 47.5006 160.226V164.727C47.5006 164.921 47.3477 165.077 47.1591 165.077Z" fill="#F0F7FE"/>
<path d="M47.5007 164.727V160.226C47.5007 157.965 45.7062 156.125 43.5004 156.125C43.5003 156.125 43.5001 156.125 43.5 156.125V165.077H47.1591C47.3478 165.077 47.5007 164.921 47.5007 164.727Z" fill="#E2EFFE"/>
<path d="M45.1093 163.587L43.9619 162.408C43.912 162.357 43.8442 162.328 43.7735 162.328C43.7734 162.328 43.7732 162.328 43.7732 162.328H43.2074C43.2075 162.328 43.2073 162.328 43.2072 162.328C43.1365 162.328 43.0687 162.357 43.0188 162.408L41.8714 163.587C41.5574 163.91 41.4646 164.39 41.635 164.811C41.8053 165.231 42.2025 165.503 42.6472 165.503C42.9852 165.503 43.2871 165.349 43.4903 165.105C43.6949 165.35 43.9984 165.503 44.3337 165.503C44.7782 165.503 45.1754 165.231 45.3457 164.811C45.516 164.39 45.4232 163.91 45.1093 163.587Z" fill="#F54B5E"/>
<path d="M44.3342 165.503C44.7786 165.503 45.1758 165.231 45.3461 164.811C45.5165 164.39 45.4237 163.91 45.1097 163.587L43.9624 162.408C43.9124 162.357 43.8447 162.328 43.774 162.328C43.7739 162.328 43.7736 162.328 43.7737 162.328C43.7738 162.328 43.6371 162.328 43.498 162.328V165.113C43.7025 165.353 44.0027 165.503 44.3342 165.503Z" fill="#F3263D"/>
<path d="M42.0547 160C42.469 160 42.8048 159.664 42.8048 159.25C42.8048 158.836 42.469 158.5 42.0547 158.5C41.6405 158.5 41.3047 158.836 41.3047 159.25C41.3047 159.664 41.6405 160 42.0547 160Z" fill="#282A52"/>
<path d="M44.9883 160C45.4026 160 45.7384 159.664 45.7384 159.25C45.7384 158.836 45.4026 158.5 44.9883 158.5C44.5741 158.5 44.2383 158.836 44.2383 159.25C44.2383 159.664 44.5741 160 44.9883 160Z" fill="#1E203E"/>
<path d="M43.5 156.826C43.4126 156.826 43.3252 156.792 43.2585 156.723L42.5081 155.954C42.1057 155.542 41.9863 154.927 42.204 154.387C42.4218 153.848 42.9304 153.5 43.4996 153.5C44.0696 153.5 44.5782 153.848 44.7959 154.387C45.0137 154.927 44.8943 155.542 44.4919 155.954L43.7415 156.723C43.6748 156.792 43.5874 156.826 43.5 156.826Z" fill="#F54B5E"/>
<path d="M43.7419 156.723L44.4923 155.954C44.8947 155.542 45.0141 154.927 44.7963 154.387C44.5786 153.848 44.07 153.5 43.5 153.5V156.826C43.5001 156.826 43.5003 156.826 43.5004 156.826C43.5878 156.826 43.6752 156.792 43.7419 156.723Z" fill="#F3263D"/>
<path d="M43.4918 163.013C43.4915 163.013 43.4912 163.013 43.4908 163.013C43.4178 163.013 43.3479 162.983 43.2965 162.93L42.1249 161.721C42.018 161.611 42.0183 161.432 42.1256 161.322L42.6794 160.755C42.8988 160.53 43.19 160.406 43.4996 160.406C43.8092 160.406 44.1004 160.53 44.3197 160.755L44.8736 161.323C44.9253 161.376 44.9544 161.448 44.9542 161.523C44.9541 161.598 44.9249 161.669 44.873 161.722L43.6858 162.931C43.6342 162.984 43.5644 163.013 43.4918 163.013Z" fill="#FEE048"/>
<path d="M44.8727 161.722C44.9246 161.669 44.9539 161.598 44.954 161.523C44.9541 161.448 44.9251 161.376 44.8733 161.323L44.3194 160.755C44.1002 160.53 43.8089 160.406 43.4993 160.406C43.4992 160.406 43.4991 160.406 43.499 160.406V163.013C43.569 163.011 43.6357 162.982 43.6855 162.931L44.8727 161.722Z" fill="#FED601"/>
<path d="M55.2986 161.781C56.2322 161.708 56.3007 163.11 55.3616 163.124C54.5066 163.135 54.4373 161.85 55.2986 161.781Z" fill="#323567"/>
<path d="M55.2041 160.585C55.7619 160.541 56.29 160.723 56.6767 161.104C57.0411 161.463 57.2107 161.93 57.2314 162.363C57.2521 162.795 57.128 163.277 56.7978 163.67C56.4913 164.035 56.0626 164.255 55.5859 164.31L55.3779 164.324C54.838 164.331 54.3475 164.123 53.9971 163.752C53.6653 163.401 53.5091 162.957 53.4883 162.542C53.4675 162.128 53.5783 161.668 53.8779 161.284C54.1946 160.877 54.667 160.628 55.2041 160.585ZM55.2988 161.782C54.4377 161.85 54.5066 163.135 55.3613 163.123C56.3004 163.11 56.2323 161.708 55.2988 161.782Z" fill="white"/>
<path d="M59.056 162.34C58.7308 162.051 58.745 161.454 59.1496 161.24C59.9125 160.837 60.5974 161.89 59.8652 162.37C59.6432 162.516 59.2591 162.52 59.056 162.34Z" fill="#323567"/>
<path d="M58.5893 160.179C59.6027 159.644 60.6175 160.109 61.0776 160.826C61.305 161.18 61.4351 161.643 61.353 162.133C61.2666 162.648 60.9637 163.085 60.5229 163.374L60.5219 163.373C60.1709 163.603 59.7706 163.684 59.4282 163.677C59.0895 163.669 58.6348 163.572 58.2582 163.237C57.7856 162.817 57.5974 162.218 57.6313 161.685C57.6661 161.139 57.9507 160.517 58.5893 160.179ZM59.8657 162.37C60.5971 161.89 59.9124 160.837 59.1498 161.24C58.7452 161.454 58.731 162.051 59.0561 162.34C59.2592 162.52 59.6437 162.516 59.8657 162.37Z" fill="white"/>
<path d="M74.3741 171.219C74.9826 170.633 75.895 171.538 75.3644 172.136C74.7055 172.878 73.712 171.856 74.3741 171.219Z" fill="#323567"/>
<path d="M74.9466 169.834C75.4269 169.869 75.8358 170.088 76.1263 170.367C76.6848 170.901 77.0766 172.013 76.261 172.932L76.262 172.933C75.893 173.349 75.3877 173.599 74.8294 173.595C74.3009 173.591 73.8477 173.359 73.5345 173.053C73.2224 172.748 72.9884 172.312 72.9583 171.807C72.9264 171.271 73.1322 170.749 73.5413 170.355C73.9327 169.978 74.4359 169.797 74.9466 169.834ZM75.3645 172.136C75.895 171.539 74.9828 170.634 74.3743 171.219L74.3167 171.28C73.7733 171.918 74.7261 172.855 75.3645 172.136Z" fill="white"/>
<path d="M77.3183 160.974C80.5963 160.664 82.9557 163.807 81.6197 166.794C80.9703 168.246 79.5572 169.161 77.9378 169.207L49.7239 169.189C49.1421 169.069 49.2019 168.115 49.8246 168.045L77.3875 168.046C79.9004 168.193 81.6583 165.896 80.4145 163.632C79.0833 161.21 75.4258 161.854 74.94 164.515C74.8448 165.039 75.0054 165.784 74.1654 165.681C73.6159 165.612 73.6679 165.032 73.7104 164.62C73.8946 162.83 75.4714 161.149 77.3183 160.974Z" fill="#323567"/>
<path d="M77.59 159.756C81.4067 159.643 84.2085 163.284 82.8634 166.921L82.715 167.284C81.8692 169.175 80.0312 170.347 77.9718 170.406L77.9543 170.407L49.6007 170.389L49.4816 170.364C48.419 170.145 48.0755 169.167 48.1261 168.506C48.1781 167.83 48.661 166.968 49.6906 166.853L49.758 166.845L73.8693 166.846C73.5624 166.783 73.2631 166.643 73.0158 166.4C72.7402 166.13 72.611 165.814 72.55 165.566C72.4411 165.122 72.5 164.66 72.5168 164.497C72.756 162.175 74.7525 160.011 77.2052 159.779L77.59 159.756ZM77.3185 160.975C75.4717 161.149 73.8944 162.83 73.7101 164.62C73.6676 165.032 73.6158 165.613 74.1652 165.681C75.0052 165.785 74.8443 165.039 74.9396 164.515C75.4255 161.854 79.083 161.211 80.4142 163.633C81.6577 165.896 79.9004 168.192 77.3878 168.046L49.8244 168.045C49.2018 168.115 49.1421 169.068 49.7238 169.189L77.9376 169.207C79.557 169.161 80.9698 168.245 81.6193 166.794C82.9552 163.808 80.5964 160.665 77.3185 160.975ZM79.3625 164.21C78.5857 162.797 76.4072 163.159 76.1203 164.731C76.1105 164.785 76.1083 164.839 76.0929 165.029C76.0816 165.169 76.0602 165.434 75.9748 165.7C75.8819 165.989 75.682 166.379 75.2501 166.642C75.0791 166.746 74.9018 166.808 74.7277 166.846L77.422 166.847L77.4572 166.849C78.3279 166.899 78.9885 166.529 79.3322 166.047C79.6587 165.589 79.7658 164.944 79.3625 164.21Z" fill="white"/>
<path d="M68.1958 171.694C69.7569 171.669 71.2723 171.663 72.4902 172.746C74.6189 174.64 74.3126 178.167 71.7549 179.532C69.094 180.951 65.6979 178.982 65.6089 176.036C65.5932 175.522 65.8372 175.175 66.4056 175.291C66.8969 175.391 66.7851 175.894 66.8323 176.225C67.2739 179.317 71.4345 179.819 72.5476 176.907C73.2774 174.999 71.8997 173.043 69.8765 172.92L45.5268 172.922C44.8615 172.847 44.8025 171.872 45.4866 171.76C50.1966 171.775 63.496 171.772 68.1958 171.694Z" fill="#323567"/>
<path d="M68.1757 170.494C69.6197 170.471 71.5455 170.415 73.1347 171.72L73.288 171.85L73.5331 172.083C75.978 174.548 75.5532 178.865 72.3192 180.591C68.8872 182.422 64.526 179.924 64.4091 176.073V175.91C64.4217 175.513 64.5308 175.007 64.9188 174.6C65.166 174.34 65.4561 174.191 65.7528 174.12L45.4598 174.122L45.3934 174.114C44.3792 174.001 43.8367 173.165 43.8016 172.41C43.7656 171.63 44.2599 170.744 45.2929 170.575L45.3915 170.56H45.4901C50.2017 170.574 63.4893 170.571 68.1757 170.494ZM68.1952 171.694L66.0634 171.72C60.3048 171.772 49.6074 171.773 45.4862 171.76C44.8025 171.872 44.8614 172.847 45.5263 172.922L69.8768 172.92C71.8998 173.043 73.2775 175 72.5477 176.907C71.4694 179.728 67.5316 179.345 66.8847 176.508L66.8319 176.226C66.7847 175.895 66.8964 175.391 66.4052 175.291C65.837 175.176 65.5935 175.522 65.6093 176.036C65.6983 178.982 69.094 180.952 71.7548 179.532C74.3125 178.168 74.6188 174.64 72.4901 172.746C71.2723 171.663 69.7562 171.669 68.1952 171.694ZM66.6698 174.12C66.9986 174.192 67.3184 174.353 67.5682 174.633C67.8111 174.905 67.9117 175.204 67.9579 175.415C68.0022 175.618 68.0097 175.809 68.0136 175.905C68.0162 175.97 68.0165 175.995 68.0184 176.03C68.0191 176.043 68.02 176.051 68.0204 176.056C68.2941 177.97 70.7732 178.188 71.4266 176.479L71.4911 176.273C71.7446 175.251 71.0143 174.202 69.8202 174.12H66.6698Z" fill="white"/>
<path d="M67.9211 157.489C70.7418 157.262 72.9217 159.934 72.173 162.603C71.6912 164.321 70.1333 165.626 68.3037 165.722H52.5338C51.8277 165.68 51.7615 164.701 52.4559 164.558L68.1077 164.561C70.9819 164.546 72.2257 160.997 69.953 159.22C68.2565 157.893 65.6736 158.891 65.2737 160.959C65.2225 161.224 65.2422 161.458 65.2059 161.704C65.1532 162.066 64.8249 162.252 64.4667 162.181C63.9039 162.069 63.9873 161.493 64.0416 161.061C64.2809 159.15 65.9885 157.646 67.9211 157.489Z" fill="#323567"/>
<path d="M67.8246 156.293C71.4738 155.998 74.3036 159.45 73.3285 162.927C72.7125 165.123 70.7277 166.797 68.3666 166.921L68.3353 166.922H52.4984L52.4623 166.92C50.3 166.791 50.2005 163.797 52.2142 163.383L52.3344 163.358L64.2484 163.359L64.2328 163.357C63.8831 163.288 63.5414 163.124 63.2728 162.832C63.013 162.55 62.8972 162.232 62.8461 161.978C62.7564 161.532 62.832 161.062 62.851 160.911C63.1678 158.384 65.3799 156.491 67.8246 156.293ZM67.9213 157.489C65.9887 157.646 64.2808 159.15 64.0414 161.061C63.9871 161.492 63.9038 162.069 64.4662 162.181C64.8244 162.252 65.1527 162.066 65.2055 161.704C65.2416 161.458 65.2227 161.224 65.2738 160.959C65.6737 158.891 68.256 157.893 69.9525 159.22C72.2252 160.997 70.9818 164.546 68.1078 164.561L52.4555 164.559C51.7616 164.701 51.8277 165.68 52.5336 165.722H68.3041C70.1334 165.625 71.6915 164.32 72.1732 162.603C72.9215 159.934 70.7416 157.262 67.9213 157.489ZM69.2133 160.165C68.2287 159.395 66.6825 159.992 66.4515 161.187C66.4433 161.23 66.4386 161.282 66.433 161.397C66.4283 161.494 66.4216 161.684 66.393 161.879C66.2658 162.746 65.6333 163.235 64.9515 163.359H68.101C69.8625 163.35 70.5691 161.226 69.2133 160.165Z" fill="white"/>
<path d="M77.0403 165.262C77.7693 165.148 78.1936 166.011 77.5812 166.453C77.0954 166.803 76.4208 166.395 76.5027 165.817C76.5365 165.576 76.7939 165.302 77.0403 165.262Z" fill="#323567"/>
<path d="M76.8544 164.077C77.7608 163.935 78.5593 164.413 78.9003 165.139C79.2568 165.898 79.0755 166.854 78.2831 167.426C76.9608 168.379 75.0803 167.299 75.3143 165.648C75.3767 165.208 75.6099 164.859 75.8261 164.634C76.0423 164.408 76.391 164.151 76.8505 164.077H76.8544ZM77.0409 165.263C76.7945 165.302 76.5367 165.576 76.5028 165.817C76.4262 166.358 77.0142 166.751 77.4882 166.51L77.5809 166.453C78.1933 166.011 77.7697 165.148 77.0409 165.263Z" fill="white"/>
<path d="M45.7197 176.967C45.1316 176.349 46.0606 175.452 46.6714 176.011C47.3989 176.676 46.3274 177.605 45.7197 176.967Z" fill="#323567"/>
<path d="M44.9043 175.193C45.4741 174.632 46.5899 174.31 47.4815 175.125C47.8901 175.499 48.1398 176.013 48.1143 176.584C48.0902 177.122 47.8291 177.563 47.5147 177.856C46.9451 178.386 45.8646 178.67 45.0166 177.952L44.8506 177.794C44.4759 177.401 44.2944 176.894 44.3389 176.375C44.3808 175.888 44.6138 175.479 44.9043 175.193ZM46.6719 176.011C46.061 175.452 45.1317 176.35 45.7197 176.967C46.3085 177.585 47.332 176.733 46.7344 176.075L46.6719 176.011Z" fill="white"/>
<path d="M49.0117 175.763C48.304 175.212 49.1802 174.166 49.8808 174.734C50.5437 175.272 49.7132 176.31 49.0117 175.763Z" fill="#323567"/>
<path d="M49.163 173.392C49.6149 173.321 50.0745 173.421 50.4706 173.68L50.6366 173.802C51.067 174.152 51.3091 174.643 51.3231 175.167C51.3362 175.658 51.1484 176.097 50.8846 176.418C50.62 176.739 50.2263 177.006 49.7421 177.09C49.2934 177.168 48.8365 177.076 48.4403 176.827L48.2743 176.71C47.8359 176.368 47.5725 175.877 47.5516 175.336C47.5321 174.828 47.728 174.379 47.9999 174.056C48.2725 173.732 48.675 173.469 49.163 173.392ZM49.8807 174.734C49.1801 174.166 48.3039 175.212 49.0116 175.763C49.713 176.31 50.5436 175.272 49.8807 174.734Z" fill="white"/>
<path d="M47.1945 169.17C48.1305 169.077 48.2211 170.497 47.2551 170.501C46.4459 170.504 46.3537 169.253 47.1945 169.17Z" fill="#323567"/>
<path d="M47.0764 167.976C47.6374 167.92 48.1728 168.094 48.5666 168.473C48.9371 168.829 49.112 169.297 49.1359 169.733C49.1599 170.17 49.0363 170.659 48.6975 171.057C48.338 171.478 47.8193 171.698 47.26 171.7C46.0692 171.705 45.4558 170.737 45.4084 169.939C45.3844 169.533 45.4864 169.077 45.7766 168.691C46.0835 168.283 46.5459 168.028 47.0764 167.976ZM47.1945 169.169C46.4064 169.247 46.4379 170.352 47.1115 170.487L47.2551 170.501C48.221 170.497 48.1305 169.077 47.1945 169.169Z" fill="white"/>
<path d="M77.4446 172.76C78.4397 172.579 78.5601 173.927 77.7406 174.057C76.8251 174.203 76.6558 172.903 77.4446 172.76Z" fill="#323567"/>
<path d="M77.427 171.553C77.8893 171.511 78.3542 171.617 78.7425 171.905C79.1678 172.222 79.3907 172.676 79.4583 173.106C79.5791 173.874 79.1988 174.91 78.1477 175.195L77.929 175.242C77.4 175.326 76.8746 175.208 76.4573 174.881C76.0614 174.571 75.8463 174.139 75.7727 173.729C75.6323 172.945 76.0084 171.801 77.2298 171.579L77.427 171.553ZM77.7405 174.058C78.56 173.928 78.4397 172.579 77.4446 172.76C76.6803 172.899 76.8155 174.123 77.6575 174.067L77.7405 174.058Z" fill="white"/>
<path d="M68.1116 162.923C67.8243 163.22 67.3 163.175 67.0701 162.833C66.6474 162.205 67.3905 161.511 67.988 161.891C68.3375 162.113 68.3982 162.626 68.1116 162.923Z" fill="#323567"/>
<path d="M66.3041 161.129C66.8513 160.59 67.7948 160.347 68.6312 160.879H68.6322C69.6209 161.508 69.7895 162.913 68.975 163.756L68.974 163.757C68.1606 164.598 66.7352 164.483 66.0756 163.503L66.0746 163.504C65.5044 162.657 65.7332 161.692 66.3041 161.129ZM67.9877 161.891C67.3902 161.512 66.647 162.206 67.0697 162.834C67.2852 163.154 67.7599 163.213 68.0551 162.975L68.1117 162.923C68.3983 162.627 68.3372 162.114 67.9877 161.891Z" fill="white"/>
<defs>
<filter id="filter0_d_48996_11362" x="10" y="9" width="96" height="96" filterUnits="userSpaceOnUse" color-interpolation-filters="sRGB">
<feFlood flood-opacity="0" result="BackgroundImageFix"/>
<feColorMatrix in="SourceAlpha" type="matrix" values="0 0 0 0 0 0 0 0 0 0 0 0 0 0 0 0 0 0 127 0" result="hardAlpha"/>
<feOffset dx="2" dy="1"/>
<feGaussianBlur stdDeviation="4"/>
<feColorMatrix type="matrix" values="0 0 0 0 0.0392157 0 0 0 0 0.0392157 0 0 0 0 0.0627451 0 0 0 0.08 0"/>
<feBlend mode="normal" in2="BackgroundImageFix" result="effect1_dropShadow_48996_11362"/>
<feBlend mode="normal" in="SourceGraphic" in2="effect1_dropShadow_48996_11362" result="shape"/>
</filter>
</defs>
</svg>
