<svg width="112" height="208" viewBox="0 0 112 208" fill="none" xmlns="http://www.w3.org/2000/svg">
<rect x="0.5" y="0.5" width="111" height="207" rx="4.5" stroke="#9747FF" stroke-dasharray="10 5"/>
<g filter="url(#filter0_d_46816_12190)">
<rect x="16" y="16" width="80" height="80" rx="8" fill="white"/>
</g>
<path d="M63.8612 64.2555L56.0409 76.8904C51.9317 76.8904 48.0533 75.6042 45.1199 73.269C42.076 70.8475 40.4004 67.5925 40.4004 64.1057C40.4004 60.6626 42.1099 56.8727 44.9733 53.9678C48.0621 50.8353 51.993 49.1093 56.0409 49.1093L63.8612 64.2555Z" fill="#FEE048"/>
<path d="M71.6815 64.1057C71.6815 67.5925 70.0059 70.8475 66.962 73.269C64.0286 75.6042 60.1502 76.8904 56.041 76.8904V49.1093C60.089 49.1093 64.0199 50.8353 67.1086 53.9678C69.972 56.8727 71.6815 60.6626 71.6815 64.1057Z" fill="#FED601"/>
<path d="M62.9315 49.109L56.0409 61.1402C52.3255 61.1402 48.6297 59.8561 45.9008 57.6172C42.9182 55.1705 41.2754 51.7996 41.2754 48.1246C41.2754 44.4759 42.9258 40.3503 45.6897 37.0887C47.7241 34.6891 50.1478 32.9949 52.6449 32.1735L52.2555 31.7852C51.6156 31.1442 51.6156 30.1052 52.2555 29.4643C52.8964 28.8244 53.9355 28.8244 54.5764 29.4643L56.0234 30.9113L56.0409 30.8927L62.9315 49.109Z" fill="#FEE048"/>
<path d="M70.8066 48.1251C70.8066 51.8001 69.1638 55.171 66.1811 57.6177C63.4522 59.8566 59.7565 61.1406 56.041 61.1406V30.8932L58.363 28.4989C58.9941 27.8482 60.0321 27.8318 60.6829 28.4629C61.3336 29.0939 61.35 30.133 60.719 30.7827L59.3857 32.1575C61.9002 32.9735 64.3436 34.6731 66.3922 37.0892C69.1561 40.3508 70.8066 44.4764 70.8066 48.1251Z" fill="#FED601"/>
<path d="M58.6111 49.6497L56.0408 55.0156C55.5421 55.0156 55.0707 54.7892 54.7601 54.3998L51.26 50.0248C50.9505 49.6376 50.8324 49.1323 50.9385 48.6478C51.0446 48.1643 51.364 47.7542 51.8069 47.5322L55.3069 45.7822C55.5377 45.6662 55.7893 45.6093 56.0408 45.6093L58.6111 49.6497Z" fill="#FDAA49"/>
<path d="M60.8218 50.0248L57.3218 54.3998C57.0112 54.7892 56.5398 55.0156 56.041 55.0156V45.6093C56.2926 45.6093 56.5441 45.6662 56.7749 45.7822L60.2749 47.5322C60.7179 47.7542 61.0373 48.1643 61.1434 48.6478C61.2495 49.1323 61.1313 49.6376 60.8218 50.0248Z" fill="#FD9317"/>
<path d="M50.791 45.3908C49.885 45.3908 49.1504 44.6562 49.1504 43.7502V42.8752C49.1504 41.9691 49.885 41.2346 50.791 41.2346C51.6971 41.2346 52.4316 41.9691 52.4316 42.8752V43.7502C52.4316 44.6562 51.6972 45.3908 50.791 45.3908Z" fill="#282A52"/>
<path d="M61.291 45.3908C60.385 45.3908 59.6504 44.6562 59.6504 43.7502V42.8752C59.6504 41.9691 60.385 41.2346 61.291 41.2346C62.1971 41.2346 62.9316 41.9691 62.9316 42.8752V43.7502C62.9316 44.6562 62.1972 45.3908 61.291 45.3908Z" fill="#1E203E"/>
<path d="M56 84C43.8695 84 34 71.2266 34 55.6615C34 55.0859 34.3041 54.5523 34.8032 54.2491C35.299 53.9459 35.9253 53.9199 36.4492 54.1762L42.4615 57.1258L48.4739 54.1762C48.9498 53.9427 49.5117 53.9427 49.9877 54.1762L56 57.1258L62.0123 54.1762C62.4883 53.9427 63.0502 53.9427 63.5261 54.1762L69.5385 57.1258L75.5508 54.1762C76.073 53.9183 76.6977 53.9442 77.1968 54.2491C77.6959 54.5523 78 55.0859 78 55.6615C78 71.2266 68.1305 84 56 84Z" fill="#E2EFFE"/>
<path d="M78 55.6615C78 55.0859 77.6959 54.5523 77.1968 54.2491C76.6977 53.9442 76.073 53.9183 75.5508 54.1762L69.5385 57.1258L63.5261 54.1762C63.0502 53.9427 62.4883 53.9427 62.0123 54.1762L56 57.1258V84C68.1305 84 78 71.2266 78 55.6615Z" fill="#B6D7FC"/>
<path d="M71 58C74.4694 58 77.7391 59.3543 80.1924 61.8076L80.4189 62.0402C82.7287 64.4657 84 67.639 84 71C84 74.361 82.7287 77.5343 80.4189 79.9598L80.1924 80.1924C77.7391 82.6457 74.4694 84 71 84C69.0042 84 67.029 83.5386 65.2475 82.6594H59.3406V76.7515C58.4617 74.9702 58 72.9955 58 71C58 67.5306 59.3543 64.2609 61.8076 61.8076L62.0402 61.5811C64.4657 59.2713 67.639 58 71 58Z" fill="white"/>
<path d="M79.0894 62.9101C76.9287 60.7494 74.0558 59.5594 71.0001 59.5594L70.5532 70.3738L71.0001 82.4394C74.0558 82.4394 76.9287 81.2495 79.0894 79.0888C81.2501 76.928 82.4401 74.0552 82.4401 70.9994C82.4401 67.9437 81.2501 65.0709 79.0894 62.9101Z" fill="#25BB71"/>
<path d="M62.9107 62.9101C60.75 65.0709 59.5601 67.9437 59.5601 70.9994C59.5601 72.875 60.0231 74.73 60.9007 76.3761V81.0988H65.6234C67.2695 81.9764 69.1245 82.4394 71.0001 82.4394V59.5594C67.9443 59.5594 65.0715 60.7494 62.9107 62.9101Z" fill="#157DF5"/>
<path d="M78.1414 63.8581C76.2339 61.9506 73.6977 60.9001 71.0001 60.9001L70.5532 70.3738L71.0001 81.0988C73.6977 81.0988 76.2339 80.0483 78.1414 78.1408C80.049 76.2333 81.0995 73.6971 81.0995 70.9995C81.0995 68.3018 80.049 65.7657 78.1414 63.8581Z" fill="#25BB71"/>
<path d="M63.8587 63.8581C61.9511 65.7657 60.9006 68.3018 60.9006 70.9995C60.9006 72.7073 61.3352 74.3954 62.1575 75.8813L62.2413 76.0328V79.7582H65.9667L66.1181 79.842C67.604 80.6642 69.2921 81.0988 71 81.0988V60.9001C68.3024 60.9001 65.7662 61.9506 63.8587 63.8581Z" fill="#157DF5"/>
<path fill-rule="evenodd" clip-rule="evenodd" d="M75.022 64.2963C76.87 64.2963 78.3735 65.7998 78.3735 67.6479C78.3735 69.2665 77.2202 70.6206 75.6923 70.932V73.6807H77.7032V75.0213H75.6923V77.0323H74.3517V75.0213H72.3407V73.6807H74.3517V70.932C72.8237 70.6206 71.6704 69.2665 71.6704 67.6479C71.6704 65.7998 73.1739 64.2963 75.022 64.2963ZM75.022 65.637C73.9131 65.637 73.011 66.5391 73.011 67.6479C73.011 68.7567 73.9131 69.6588 75.022 69.6588C76.1308 69.6588 77.0329 68.7567 77.0329 67.6479C77.0329 66.5391 76.1308 65.637 75.022 65.637Z" fill="#DDF8EB"/>
<path fill-rule="evenodd" clip-rule="evenodd" d="M69.8223 68.2027L68.8743 69.1507L67.6486 67.925V71.0663C69.1765 71.3777 70.3298 72.7319 70.3298 74.3504C70.3298 76.1407 68.9189 77.6076 67.1506 77.6976L66.9783 77.702L66.8059 77.6976C65.0377 77.6076 63.6267 76.1407 63.6267 74.3504C63.6267 72.7319 64.78 71.3777 66.308 71.0663V67.925L65.0822 69.1507L64.1342 68.2027L66.9783 65.3587L69.8223 68.2027ZM66.8749 72.3419C65.8139 72.3959 64.9673 73.2763 64.9673 74.3504C64.9674 75.4592 65.8695 76.3614 66.9783 76.3614C68.0871 76.3614 68.9892 75.4592 68.9892 74.3504C68.9892 73.2416 68.0871 72.3395 66.9783 72.3395L66.8749 72.3419Z" fill="white"/>
<path d="M63.8612 160.256L56.0409 172.89C51.9317 172.89 48.0533 171.604 45.1199 169.269C42.076 166.847 40.4004 163.593 40.4004 160.106C40.4004 156.663 42.1099 152.873 44.9733 149.968C48.0621 146.835 51.993 145.109 56.0409 145.109L63.8612 160.256Z" fill="#FEE048"/>
<path d="M71.6815 160.106C71.6815 163.593 70.0059 166.847 66.962 169.269C64.0286 171.604 60.1502 172.89 56.041 172.89V145.109C60.089 145.109 64.0199 146.835 67.1086 149.968C69.972 152.873 71.6815 156.663 71.6815 160.106Z" fill="#FED601"/>
<path d="M62.9315 145.109L56.0409 157.14C52.3255 157.14 48.6297 155.856 45.9008 153.617C42.9182 151.171 41.2754 147.8 41.2754 144.125C41.2754 140.476 42.9258 136.35 45.6897 133.089C47.7241 130.689 50.1478 128.995 52.6449 128.173L52.2555 127.785C51.6156 127.144 51.6156 126.105 52.2555 125.464C52.8964 124.824 53.9355 124.824 54.5764 125.464L56.0234 126.911L56.0409 126.893L62.9315 145.109Z" fill="#FEE048"/>
<path d="M70.8066 144.125C70.8066 147.8 69.1638 151.171 66.1811 153.618C63.4522 155.857 59.7565 157.141 56.041 157.141V126.893L58.363 124.499C58.9941 123.848 60.0321 123.832 60.6829 124.463C61.3336 125.094 61.35 126.133 60.719 126.783L59.3857 128.158C61.9002 128.973 64.3436 130.673 66.3922 133.089C69.1561 136.351 70.8066 140.476 70.8066 144.125Z" fill="#FED601"/>
<path d="M58.6111 145.65L56.0408 151.016C55.5421 151.016 55.0707 150.789 54.7601 150.4L51.26 146.025C50.9505 145.638 50.8324 145.132 50.9385 144.648C51.0446 144.164 51.364 143.754 51.8069 143.532L55.3069 141.782C55.5377 141.666 55.7893 141.609 56.0408 141.609L58.6111 145.65Z" fill="#FDAA49"/>
<path d="M60.8218 146.025L57.3218 150.4C57.0112 150.789 56.5398 151.016 56.041 151.016V141.609C56.2926 141.609 56.5441 141.666 56.7749 141.782L60.2749 143.532C60.7179 143.754 61.0373 144.164 61.1434 144.648C61.2495 145.132 61.1313 145.638 60.8218 146.025Z" fill="#FD9317"/>
<path d="M50.791 141.391C49.885 141.391 49.1504 140.656 49.1504 139.75V138.875C49.1504 137.969 49.885 137.235 50.791 137.235C51.6971 137.235 52.4316 137.969 52.4316 138.875V139.75C52.4316 140.656 51.6972 141.391 50.791 141.391Z" fill="#282A52"/>
<path d="M61.291 141.391C60.385 141.391 59.6504 140.656 59.6504 139.75V138.875C59.6504 137.969 60.385 137.235 61.291 137.235C62.1971 137.235 62.9316 137.969 62.9316 138.875V139.75C62.9316 140.656 62.1972 141.391 61.291 141.391Z" fill="#1E203E"/>
<path d="M56 180C43.8695 180 34 167.227 34 151.661C34 151.086 34.3041 150.552 34.8032 150.249C35.299 149.946 35.9253 149.92 36.4492 150.176L42.4615 153.126L48.4739 150.176C48.9498 149.943 49.5117 149.943 49.9877 150.176L56 153.126L62.0123 150.176C62.4883 149.943 63.0502 149.943 63.5261 150.176L69.5385 153.126L75.5508 150.176C76.073 149.918 76.6977 149.944 77.1968 150.249C77.6959 150.552 78 151.086 78 151.661C78 167.227 68.1305 180 56 180Z" fill="#E2EFFE"/>
<path d="M78 151.661C78 151.086 77.6959 150.552 77.1968 150.249C76.6977 149.944 76.073 149.918 75.5508 150.176L69.5385 153.126L63.5261 150.176C63.0502 149.943 62.4883 149.943 62.0123 150.176L56 153.126V180C68.1305 180 78 167.227 78 151.661Z" fill="#B6D7FC"/>
<path d="M71 154C74.4694 154 77.7391 155.354 80.1924 157.808L80.4189 158.04C82.7287 160.466 84 163.639 84 167C84 170.361 82.7287 173.534 80.4189 175.96L80.1924 176.192C77.7391 178.646 74.4694 180 71 180C69.0042 180 67.029 179.539 65.2475 178.659H59.3406V172.751C58.4617 170.97 58 168.995 58 167C58 163.531 59.3543 160.261 61.8076 157.808L62.0402 157.581C64.4657 155.271 67.639 154 71 154Z" fill="white"/>
<path d="M79.0894 158.91C76.9287 156.749 74.0558 155.559 71.0001 155.559L70.5532 166.374L71.0001 178.439C74.0558 178.439 76.9287 177.249 79.0894 175.089C81.2501 172.928 82.4401 170.055 82.4401 166.999C82.4401 163.944 81.2501 161.071 79.0894 158.91Z" fill="#25BB71"/>
<path d="M62.9107 158.91C60.75 161.071 59.5601 163.944 59.5601 166.999C59.5601 168.875 60.0231 170.73 60.9007 172.376V177.099H65.6234C67.2695 177.976 69.1245 178.439 71.0001 178.439V155.559C67.9443 155.559 65.0715 156.749 62.9107 158.91Z" fill="#157DF5"/>
<path d="M78.1414 159.858C76.2339 157.951 73.6977 156.9 71.0001 156.9L70.5532 166.374L71.0001 177.099C73.6977 177.099 76.2339 176.048 78.1414 174.141C80.049 172.233 81.0995 169.697 81.0995 166.999C81.0995 164.302 80.049 161.766 78.1414 159.858Z" fill="#25BB71"/>
<path d="M63.8587 159.858C61.9511 161.766 60.9006 164.302 60.9006 166.999C60.9006 168.707 61.3352 170.395 62.1575 171.881L62.2413 172.033V175.758H65.9667L66.1181 175.842C67.604 176.664 69.2921 177.099 71 177.099V156.9C68.3024 156.9 65.7662 157.951 63.8587 159.858Z" fill="#157DF5"/>
<path fill-rule="evenodd" clip-rule="evenodd" d="M75.022 160.296C76.87 160.296 78.3735 161.8 78.3735 163.648C78.3735 165.266 77.2202 166.621 75.6923 166.932V169.681H77.7032V171.021H75.6923V173.032H74.3517V171.021H72.3407V169.681H74.3517V166.932C72.8237 166.621 71.6704 165.266 71.6704 163.648C71.6704 161.8 73.1739 160.296 75.022 160.296ZM75.022 161.637C73.9131 161.637 73.011 162.539 73.011 163.648C73.011 164.757 73.9131 165.659 75.022 165.659C76.1308 165.659 77.0329 164.757 77.0329 163.648C77.0329 162.539 76.1308 161.637 75.022 161.637Z" fill="#DDF8EB"/>
<path fill-rule="evenodd" clip-rule="evenodd" d="M69.8223 164.203L68.8743 165.151L67.6486 163.925V167.066C69.1765 167.378 70.3298 168.732 70.3298 170.35C70.3298 172.141 68.9189 173.608 67.1506 173.698L66.9783 173.702L66.8059 173.698C65.0377 173.608 63.6267 172.141 63.6267 170.35C63.6267 168.732 64.78 167.378 66.308 167.066V163.925L65.0822 165.151L64.1342 164.203L66.9783 161.359L69.8223 164.203ZM66.8749 168.342C65.8139 168.396 64.9673 169.276 64.9673 170.35C64.9674 171.459 65.8695 172.361 66.9783 172.361C68.0871 172.361 68.9892 171.459 68.9892 170.35C68.9892 169.242 68.0871 168.339 66.9783 168.339L66.8749 168.342Z" fill="white"/>
<defs>
<filter id="filter0_d_46816_12190" x="10" y="9" width="96" height="96" filterUnits="userSpaceOnUse" color-interpolation-filters="sRGB">
<feFlood flood-opacity="0" result="BackgroundImageFix"/>
<feColorMatrix in="SourceAlpha" type="matrix" values="0 0 0 0 0 0 0 0 0 0 0 0 0 0 0 0 0 0 127 0" result="hardAlpha"/>
<feOffset dx="2" dy="1"/>
<feGaussianBlur stdDeviation="4"/>
<feColorMatrix type="matrix" values="0 0 0 0 0.0392157 0 0 0 0 0.0392157 0 0 0 0 0.0627451 0 0 0 0.08 0"/>
<feBlend mode="normal" in2="BackgroundImageFix" result="effect1_dropShadow_46816_12190"/>
<feBlend mode="normal" in="SourceGraphic" in2="effect1_dropShadow_46816_12190" result="shape"/>
</filter>
</defs>
</svg>
