<svg width="112" height="208" viewBox="0 0 112 208" fill="none" xmlns="http://www.w3.org/2000/svg">
<rect x="0.5" y="0.5" width="111" height="207" rx="4.5" stroke="#9747FF" stroke-dasharray="10 5"/>
<g filter="url(#filter0_d_23749_11259)">
<rect x="16" y="16" width="80" height="80" rx="8" fill="white"/>
</g>
<path d="M56 69.3672C55.0939 69.3672 54.3594 70.1017 54.3594 71.0078V82.3593C54.3594 83.2654 55.0939 83.9999 56 83.9999C56.9061 83.9999 57.6406 83.2654 57.6406 82.3593V71.0078C57.6406 70.1017 56.9061 69.3672 56 69.3672Z" fill="#E2EFFE"/>
<path d="M38.3872 68.7888C37.4811 68.7888 36.7466 69.5234 36.7466 70.4294V82.3593C36.7466 83.2654 37.4811 83.9999 38.3872 83.9999C39.2933 83.9999 40.0278 83.2654 40.0278 82.3593V70.4294C40.0278 69.5234 39.2933 68.7888 38.3872 68.7888Z" fill="#E2EFFE"/>
<path d="M73.6128 68.915C72.7067 68.915 71.9722 69.6496 71.9722 70.5557V82.3597C71.9722 83.2658 72.7067 84.0004 73.6128 84.0004C74.5189 84.0004 75.2534 83.2658 75.2534 82.3597V70.5557C75.2534 69.6496 74.5189 68.915 73.6128 68.915Z" fill="#B6D7FC"/>
<path d="M46.9199 69.2578C46.0139 69.2578 45.2793 69.9924 45.2793 70.8984V82.3596C45.2793 83.2657 46.0139 84.0002 46.9199 84.0002C47.826 84.0002 48.5605 83.2657 48.5605 82.3596V70.8984C48.5605 69.9924 47.826 69.2578 46.9199 69.2578Z" fill="#E2EFFE"/>
<path d="M65.0801 69.2578C64.174 69.2578 63.4395 69.9924 63.4395 70.8984V82.3596C63.4395 83.2657 64.174 84.0002 65.0801 84.0002C65.9861 84.0002 66.7207 83.2657 66.7207 82.3596V70.8984C66.7207 69.9924 65.9862 69.2578 65.0801 69.2578Z" fill="#B6D7FC"/>
<path d="M57.6406 82.3593V71.0078C57.6406 70.1017 56.9061 69.3672 56 69.3672V83.9999C56.9061 83.9999 57.6406 83.2654 57.6406 82.3593Z" fill="#B6D7FC"/>
<path d="M60.3218 43.5843C61.1065 43.1313 61.3753 42.1279 60.9223 41.3432L59.5916 39.0386C58.8416 37.7396 57.4982 36.9639 55.9982 36.9639C54.4982 36.9639 53.1548 37.7394 52.4048 39.0386L51.6623 40.3247C51.2532 40.1049 50.7542 40.0582 50.2877 40.2405C49.4439 40.5705 49.0273 41.5221 49.3572 42.366L50.0933 44.2488C50.3417 44.8838 50.9525 45.2921 51.6204 45.2921C51.6895 45.2921 51.7594 45.2876 51.8294 45.2788L53.7084 45.0384C54.6072 44.9234 55.2427 44.1016 55.1277 43.2028C55.0668 42.7271 54.8067 42.3266 54.4431 42.0707L55.2464 40.6794C55.4726 40.2877 55.8475 40.2453 55.9982 40.2453C56.1489 40.2453 56.5239 40.2877 56.7501 40.6794L58.0807 42.9841C58.5337 43.7685 59.537 44.0374 60.3218 43.5843Z" fill="#AAE857"/>
<path d="M82.3594 56.4016H29.6406C28.7346 56.4016 28 57.1362 28 58.0422V69.7453C28 70.6513 28.7346 71.3859 29.6406 71.3859H82.3594C83.2654 71.3859 84 70.6513 84 69.7453V58.0422C84 57.1362 83.2654 56.4016 82.3594 56.4016Z" fill="#157DF5"/>
<path d="M82.3594 56.4016H56V71.3859H82.3594C83.2654 71.3859 84 70.6513 84 69.7453V58.0422C84 57.1362 83.2654 56.4016 82.3594 56.4016Z" fill="#0965CD"/>
<path d="M73.6127 64.4054H38.3872C37.4811 64.4054 36.7466 63.6708 36.7466 62.7647V29.6406C36.7466 28.7346 37.4811 28 38.3872 28H65.02L75.2535 38.2576V62.7646C75.2534 63.6708 74.5188 64.4054 73.6127 64.4054Z" fill="#F0F7FE"/>
<path d="M56 28.0269V64.4323L73.6128 64.4054C74.5188 64.4054 75.2534 63.6708 75.2534 62.7647V38.2576L65.0199 28L56 28.0269Z" fill="#E2EFFE"/>
<path d="M74.7746 37.0991L66.1818 28.4821C65.8739 28.1735 65.456 28 65.02 28V36.617C65.02 37.5231 65.7546 38.2576 66.6606 38.2576H75.2535C75.2535 37.8233 75.0812 37.4067 74.7746 37.0991Z" fill="#B6D7FC"/>
<path d="M60.3218 43.5851C61.1065 43.132 61.3753 42.1286 60.9223 41.344L59.5916 39.0393C58.8416 37.7403 57.4982 36.9646 55.9982 36.9646C54.4982 36.9646 53.1548 37.7402 52.4048 39.0393L51.6623 40.3255C51.2532 40.1056 50.7542 40.0589 50.2877 40.2413C49.4439 40.5712 49.0273 41.5228 49.3572 42.3667L50.0933 44.2495C50.3417 44.8846 50.9525 45.2928 51.6204 45.2928C51.6895 45.2928 51.7594 45.2884 51.8294 45.2795L53.7084 45.0391C54.6072 44.9241 55.2427 44.1023 55.1277 43.2036C55.0668 42.7278 54.8067 42.3274 54.4431 42.0714L55.2464 40.6802C55.4726 40.2884 55.8475 40.2461 55.9982 40.2461C56.1489 40.2461 56.5239 40.2884 56.7501 40.6802L58.0807 42.9848C58.5337 43.7693 59.537 44.0381 60.3218 43.5851Z" fill="#40D98D"/>
<path d="M65.7451 49.5088L64.9728 48.1704C65.3592 47.9225 65.6407 47.5157 65.7117 47.0256C65.8415 46.1288 65.2199 45.2966 64.3232 45.1668L62.3225 44.877C61.5778 44.7696 60.8551 45.1819 60.5694 45.878L59.8505 47.6307C59.5066 48.469 59.9075 49.4274 60.7458 49.7712C60.9495 49.8548 61.1604 49.8944 61.3679 49.8944C61.6178 49.8944 61.8625 49.8363 62.084 49.729L62.9032 51.1487C63.1293 51.5405 62.9783 51.8863 62.903 52.0168C62.8276 52.1473 62.6035 52.4507 62.1513 52.4507C62.1512 52.4507 62.1512 52.4507 62.1511 52.4507L59.4897 52.45C59.4896 52.45 59.4895 52.45 59.4893 52.45C58.5834 52.45 57.8489 53.1843 57.8486 54.0902C57.8484 54.9963 58.5828 55.7311 59.4888 55.7313L62.1502 55.7319H62.1513C63.651 55.7319 64.994 54.9568 65.7442 53.6582C66.4944 52.3593 66.4948 50.8081 65.7451 49.5088Z" fill="#25BB71"/>
<path d="M54.4216 51.5813C53.8687 50.8635 52.8385 50.7297 52.1207 51.2827C51.7364 51.5788 51.5212 52.0119 51.4876 52.4605L49.8478 52.4583C49.3954 52.4578 49.1717 52.1539 49.0965 52.0233C49.0213 51.8927 48.8709 51.5467 49.0976 51.1552L50.3915 48.9208C50.8456 48.1367 50.5781 47.1329 49.7938 46.6789C49.0097 46.2248 48.006 46.4924 47.552 47.2765L46.2581 49.511C45.5063 50.8091 45.5044 52.3603 46.2527 53.6603C47.0011 54.9604 48.3434 55.7377 49.8435 55.7396L51.3865 55.7415C51.407 56.2006 51.6178 56.6487 52.0066 56.956C52.3078 57.1942 52.6667 57.3097 53.023 57.3097C53.5075 57.3097 53.9873 57.0961 54.311 56.6865L55.5648 55.1007C56.0315 54.5104 56.0368 53.6783 55.5776 53.0821L54.4216 51.5813Z" fill="#40D98D"/>
<path d="M59.5914 39.0385C58.8418 37.74 57.4993 36.9645 56 36.9639V40.2451C56.1519 40.2454 56.5246 40.289 56.7499 40.6792L58.0805 42.9839C58.5337 43.7685 59.5369 44.0375 60.3216 43.5843C61.1063 43.1313 61.3751 42.1279 60.9221 41.3432L59.5914 39.0385Z" fill="#25BB71"/>
<path d="M75.1359 65.499H36.8643C35.9582 65.499 35.2236 64.7645 35.2236 63.8584C35.2236 62.9523 35.9582 62.2178 36.8643 62.2178H75.1358C76.0418 62.2178 76.7764 62.9523 76.7764 63.8584C76.7764 64.7645 76.0419 65.499 75.1359 65.499Z" fill="#FFF36C"/>
<path d="M75.1358 62.2178H56V65.499H75.1358C76.0419 65.499 76.7764 64.7645 76.7764 63.8584C76.7764 62.9523 76.0419 62.2178 75.1358 62.2178Z" fill="#FFDE46"/>
<path d="M56 165.367C55.0939 165.367 54.3594 166.102 54.3594 167.008V178.359C54.3594 179.265 55.0939 180 56 180C56.9061 180 57.6406 179.265 57.6406 178.359V167.008C57.6406 166.102 56.9061 165.367 56 165.367Z" fill="#E2EFFE"/>
<path d="M38.3872 164.789C37.4811 164.789 36.7466 165.523 36.7466 166.429V178.359C36.7466 179.265 37.4811 180 38.3872 180C39.2933 180 40.0278 179.265 40.0278 178.359V166.429C40.0278 165.523 39.2933 164.789 38.3872 164.789Z" fill="#E2EFFE"/>
<path d="M73.6128 164.915C72.7067 164.915 71.9722 165.65 71.9722 166.556V178.36C71.9722 179.266 72.7067 180 73.6128 180C74.5189 180 75.2534 179.266 75.2534 178.36V166.556C75.2534 165.65 74.5189 164.915 73.6128 164.915Z" fill="#B6D7FC"/>
<path d="M46.9199 165.258C46.0139 165.258 45.2793 165.992 45.2793 166.898V178.36C45.2793 179.266 46.0139 180 46.9199 180C47.826 180 48.5605 179.266 48.5605 178.36V166.898C48.5605 165.992 47.826 165.258 46.9199 165.258Z" fill="#E2EFFE"/>
<path d="M65.0801 165.258C64.174 165.258 63.4395 165.992 63.4395 166.898V178.36C63.4395 179.266 64.174 180 65.0801 180C65.9861 180 66.7207 179.266 66.7207 178.36V166.898C66.7207 165.992 65.9862 165.258 65.0801 165.258Z" fill="#B6D7FC"/>
<path d="M57.6406 178.359V167.008C57.6406 166.102 56.9061 165.367 56 165.367V180C56.9061 180 57.6406 179.265 57.6406 178.359Z" fill="#B6D7FC"/>
<path d="M60.3218 139.584C61.1065 139.131 61.3753 138.128 60.9223 137.343L59.5916 135.039C58.8416 133.74 57.4982 132.964 55.9982 132.964C54.4982 132.964 53.1548 133.739 52.4048 135.039L51.6623 136.325C51.2532 136.105 50.7542 136.058 50.2877 136.241C49.4439 136.571 49.0273 137.522 49.3572 138.366L50.0933 140.249C50.3417 140.884 50.9525 141.292 51.6204 141.292C51.6895 141.292 51.7594 141.288 51.8294 141.279L53.7084 141.038C54.6072 140.923 55.2427 140.102 55.1277 139.203C55.0668 138.727 54.8067 138.327 54.4431 138.071L55.2464 136.679C55.4726 136.288 55.8475 136.245 55.9982 136.245C56.1489 136.245 56.5239 136.288 56.7501 136.679L58.0807 138.984C58.5337 139.769 59.537 140.037 60.3218 139.584Z" fill="#AAE857"/>
<path d="M82.3594 152.402H29.6406C28.7346 152.402 28 153.136 28 154.042V165.745C28 166.651 28.7346 167.386 29.6406 167.386H82.3594C83.2654 167.386 84 166.651 84 165.745V154.042C84 153.136 83.2654 152.402 82.3594 152.402Z" fill="#157DF5"/>
<path d="M82.3594 152.402H56V167.386H82.3594C83.2654 167.386 84 166.651 84 165.745V154.042C84 153.136 83.2654 152.402 82.3594 152.402Z" fill="#0965CD"/>
<path d="M73.6127 160.405H38.3872C37.4811 160.405 36.7466 159.671 36.7466 158.765V125.641C36.7466 124.735 37.4811 124 38.3872 124H65.02L75.2535 134.258V158.765C75.2534 159.671 74.5188 160.405 73.6127 160.405Z" fill="#F0F7FE"/>
<path d="M56 124.027V160.432L73.6128 160.405C74.5188 160.405 75.2534 159.671 75.2534 158.765V134.258L65.0199 124L56 124.027Z" fill="#E2EFFE"/>
<path d="M74.7746 133.099L66.1818 124.482C65.8739 124.173 65.456 124 65.02 124V132.617C65.02 133.523 65.7546 134.258 66.6606 134.258H75.2535C75.2535 133.823 75.0812 133.407 74.7746 133.099Z" fill="#B6D7FC"/>
<path d="M60.3218 139.585C61.1065 139.132 61.3753 138.129 60.9223 137.344L59.5916 135.039C58.8416 133.74 57.4982 132.965 55.9982 132.965C54.4982 132.965 53.1548 133.74 52.4048 135.039L51.6623 136.325C51.2532 136.106 50.7542 136.059 50.2877 136.241C49.4439 136.571 49.0273 137.523 49.3572 138.367L50.0933 140.25C50.3417 140.885 50.9525 141.293 51.6204 141.293C51.6895 141.293 51.7594 141.288 51.8294 141.28L53.7084 141.039C54.6072 140.924 55.2427 140.102 55.1277 139.204C55.0668 138.728 54.8067 138.327 54.4431 138.071L55.2464 136.68C55.4726 136.288 55.8475 136.246 55.9982 136.246C56.1489 136.246 56.5239 136.288 56.7501 136.68L58.0807 138.985C58.5337 139.769 59.537 140.038 60.3218 139.585Z" fill="#40D98D"/>
<path d="M65.7451 145.509L64.9728 144.17C65.3592 143.922 65.6407 143.516 65.7117 143.026C65.8415 142.129 65.2199 141.297 64.3232 141.167L62.3225 140.877C61.5778 140.77 60.8551 141.182 60.5694 141.878L59.8505 143.631C59.5066 144.469 59.9075 145.427 60.7458 145.771C60.9495 145.855 61.1604 145.894 61.3679 145.894C61.6178 145.894 61.8625 145.836 62.084 145.729L62.9032 147.149C63.1293 147.54 62.9783 147.886 62.903 148.017C62.8276 148.147 62.6035 148.451 62.1513 148.451C62.1512 148.451 62.1512 148.451 62.1511 148.451L59.4897 148.45C59.4896 148.45 59.4895 148.45 59.4893 148.45C58.5834 148.45 57.8489 149.184 57.8486 150.09C57.8484 150.996 58.5828 151.731 59.4888 151.731L62.1502 151.732H62.1513C63.651 151.732 64.994 150.957 65.7442 149.658C66.4944 148.359 66.4948 146.808 65.7451 145.509Z" fill="#25BB71"/>
<path d="M54.4216 147.581C53.8687 146.864 52.8385 146.73 52.1207 147.283C51.7364 147.579 51.5212 148.012 51.4876 148.46L49.8478 148.458C49.3954 148.458 49.1717 148.154 49.0965 148.023C49.0213 147.893 48.8709 147.547 49.0976 147.155L50.3915 144.921C50.8456 144.137 50.5781 143.133 49.7938 142.679C49.0097 142.225 48.006 142.492 47.552 143.277L46.2581 145.511C45.5063 146.809 45.5044 148.36 46.2527 149.66C47.0011 150.96 48.3434 151.738 49.8435 151.74L51.3865 151.742C51.407 152.201 51.6178 152.649 52.0066 152.956C52.3078 153.194 52.6667 153.31 53.023 153.31C53.5075 153.31 53.9873 153.096 54.311 152.687L55.5648 151.101C56.0315 150.51 56.0368 149.678 55.5776 149.082L54.4216 147.581Z" fill="#40D98D"/>
<path d="M59.5914 135.038C58.8418 133.74 57.4993 132.965 56 132.964V136.245C56.1519 136.245 56.5246 136.289 56.7499 136.679L58.0805 138.984C58.5337 139.769 59.5369 140.037 60.3216 139.584C61.1063 139.131 61.3751 138.128 60.9221 137.343L59.5914 135.038Z" fill="#25BB71"/>
<path d="M75.1359 161.499H36.8643C35.9582 161.499 35.2236 160.764 35.2236 159.858C35.2236 158.952 35.9582 158.218 36.8643 158.218H75.1358C76.0418 158.218 76.7764 158.952 76.7764 159.858C76.7764 160.764 76.0419 161.499 75.1359 161.499Z" fill="#FFF36C"/>
<path d="M75.1358 158.218H56V161.499H75.1358C76.0419 161.499 76.7764 160.764 76.7764 159.858C76.7764 158.952 76.0419 158.218 75.1358 158.218Z" fill="#FFDE46"/>
<defs>
<filter id="filter0_d_23749_11259" x="10" y="9" width="96" height="96" filterUnits="userSpaceOnUse" color-interpolation-filters="sRGB">
<feFlood flood-opacity="0" result="BackgroundImageFix"/>
<feColorMatrix in="SourceAlpha" type="matrix" values="0 0 0 0 0 0 0 0 0 0 0 0 0 0 0 0 0 0 127 0" result="hardAlpha"/>
<feOffset dx="2" dy="1"/>
<feGaussianBlur stdDeviation="4"/>
<feColorMatrix type="matrix" values="0 0 0 0 0.0392157 0 0 0 0 0.0392157 0 0 0 0 0.0627451 0 0 0 0.08 0"/>
<feBlend mode="normal" in2="BackgroundImageFix" result="effect1_dropShadow_23749_11259"/>
<feBlend mode="normal" in="SourceGraphic" in2="effect1_dropShadow_23749_11259" result="shape"/>
</filter>
</defs>
</svg>
