<svg width="112" height="208" viewBox="0 0 112 208" fill="none" xmlns="http://www.w3.org/2000/svg">
<rect x="0.5" y="0.5" width="111" height="207" rx="4.5" stroke="#9747FF" stroke-dasharray="10 5"/>
<g filter="url(#filter0_d_49987_12643)">
<rect x="16" y="16" width="80" height="80" rx="8" fill="white"/>
</g>
<path d="M62.2952 44.3335C63.1334 44.3335 63.8153 43.682 63.8153 42.8811V39.6185C63.8153 39.0361 64.309 38.564 64.9178 38.564H75.3656C75.9744 38.564 76.4681 39.0361 76.4681 39.6185V42.8811C76.4681 43.682 77.1499 44.3335 77.9882 44.3335C80.0422 44.3335 81.7134 45.9311 81.7134 47.8949V63.6134C81.7134 66.0325 79.6547 68.0006 77.1243 68.0006H63.1591C60.6287 68.0006 58.57 66.0325 58.57 63.6134V47.895C58.57 45.9311 60.2412 44.3335 62.2952 44.3335Z" fill="#0965CD"/>
<path d="M62.2966 44.3278C63.1348 44.3278 63.8167 43.6763 63.8167 42.8755V39.6129C63.8167 39.0305 64.3103 38.5583 64.9192 38.5583H70.1431V67.995H63.1605C60.63 67.995 58.5714 66.0269 58.5714 63.6077V47.8894C58.5714 45.9255 60.2426 44.3278 62.2966 44.3278Z" fill="#157DF5"/>
<path d="M63.5409 49.2324H76.7437C77.3526 49.2324 77.8462 49.7046 77.8462 50.287V62.3863C77.8462 62.9687 77.3526 63.4409 76.7437 63.4409H63.5408C62.932 63.4409 62.4383 62.9687 62.4383 62.3863V50.287C62.4384 49.7046 62.932 49.2324 63.5409 49.2324Z" fill="#E2EFFE"/>
<path d="M63.5417 49.2324H70.1431V63.4409H63.5417C62.9328 63.4409 62.4392 62.9687 62.4392 62.3863V50.287C62.4392 49.7046 62.9327 49.2324 63.5417 49.2324Z" fill="#F0F7FE"/>
<path d="M62.6581 38.5612H62.6607V34.2706C62.6607 33.0198 63.7246 32.0022 65.0322 32.0022H75.2524C76.56 32.0022 77.6239 33.0198 77.6239 34.2706V38.5612H77.6265C78.2354 38.5612 78.729 39.0334 78.729 39.6158C78.729 40.1982 78.2354 40.6703 77.6265 40.6703H76.5214H63.7632H62.6581C62.0492 40.6703 61.5556 40.1982 61.5556 39.6158C61.5556 39.0334 62.0492 38.5612 62.6581 38.5612Z" fill="#25BB71"/>
<path d="M62.6589 38.5612H62.6614V34.2706C62.6614 33.0198 63.7253 32.0022 65.033 32.0022H70.1431V40.6703H63.7639H62.6589C62.05 40.6703 61.5564 40.1982 61.5564 39.6158C61.5564 39.0334 62.05 38.5612 62.6589 38.5612Z" fill="#40D98D"/>
<path d="M66.4044 55.1428H68.501V53.0489C68.501 52.1429 69.2356 51.4084 70.1417 51.4084C71.0477 51.4084 71.7823 52.1429 71.7823 53.0489V55.1428H73.8789C74.785 55.1428 75.5195 55.8772 75.5195 56.7832C75.5195 57.6892 74.785 58.4237 73.8789 58.4237H71.7823V60.5175C71.7823 61.4235 71.0477 62.158 70.1417 62.158C69.2356 62.158 68.501 61.4235 68.501 60.5175V58.4237H66.4044C65.4984 58.4237 64.7638 57.6892 64.7638 56.7832C64.7638 55.8772 65.4984 55.1428 66.4044 55.1428Z" fill="#F3263D"/>
<path d="M66.4053 55.1428H68.502V53.0489C68.502 52.1429 69.2365 51.4084 70.1426 51.4084V62.158C69.2365 62.158 68.502 61.4235 68.502 60.5175V58.4237H66.4053C65.4993 58.4237 64.7647 57.6892 64.7647 56.7832C64.7647 55.8772 65.4993 55.1428 66.4053 55.1428Z" fill="#F54B5E"/>
<path fill-rule="evenodd" clip-rule="evenodd" d="M55.9021 78.7898H66.7999C67.1938 78.7898 67.4564 78.4944 67.4564 78.1334C67.4564 75.3108 68.7536 73.0134 71.6093 73.0134C74.4322 73.0134 76.7299 75.3108 76.7299 78.1334C76.7299 78.4944 76.9925 78.7898 77.3864 78.7898H80.7175C82.5229 78.7898 84 77.3129 84 75.5077V62.642C84 62.281 83.7046 61.9856 83.3435 61.9856H55.9021C55.5411 61.9856 55.2457 62.281 55.2457 62.642V78.1334C55.2128 78.4944 55.5411 78.7898 55.9021 78.7898Z" fill="#157DF5"/>
<path fill-rule="evenodd" clip-rule="evenodd" d="M30.0035 78.7912H34.6646C35.0257 78.7912 35.3211 78.4958 35.3211 78.1348C35.3211 75.3122 37.6188 73.0148 40.4417 73.0148C43.2646 73.0148 45.5624 75.3122 45.5624 78.1348C45.5624 78.4958 45.8578 78.7912 46.2188 78.7912H55.9021C56.2632 78.7912 56.5586 78.4958 56.5586 78.1348L56.5258 53.2567C56.296 51.4188 54.6219 51.0577 53.7685 51.1234H43.5272C43.2318 51.1234 43.002 51.2875 42.9036 51.5172L38.6035 62.2824L30.7256 63.3327C28.5264 63.6937 27.9684 65.3019 28.0012 66.0896V77.0189C28.0668 77.5769 28.5264 78.7912 30.0035 78.7912Z" fill="#0965CD"/>
<path fill-rule="evenodd" clip-rule="evenodd" d="M28.0008 68.0283V73.8704H30.397C34.2375 73.8704 34.2375 68.0283 30.397 68.0283H28.0008Z" fill="#40D98D"/>
<path fill-rule="evenodd" clip-rule="evenodd" d="M41.9843 53.7778L38.6034 62.2784H49.5339C51.3393 62.2784 52.8164 60.8015 52.8164 58.9963V57.0599C52.8164 55.2548 51.3393 53.7778 49.5339 53.7778H41.9843Z" fill="#B6D7FC"/>
<path fill-rule="evenodd" clip-rule="evenodd" d="M84 75.4773V69.6353H82.0633C78.2229 69.6353 78.2229 75.4773 82.0633 75.4773C82.3916 75.4773 83.3435 75.5102 84 75.4773Z" fill="#40D98D"/>
<path fill-rule="evenodd" clip-rule="evenodd" d="M40.4951 83.9993C43.5327 83.9993 45.9785 81.5538 45.9785 78.5166C45.9785 75.4794 43.5327 72.9944 40.4951 72.9944C37.4576 72.9944 34.9723 75.4794 34.9723 78.5166C34.9723 81.5538 37.4576 83.9993 40.4951 83.9993Z" fill="#1E203E"/>
<path fill-rule="evenodd" clip-rule="evenodd" d="M40.4754 80.5003C43.1436 80.5003 43.1436 76.4985 40.4754 76.4985C37.8073 76.4985 37.8073 80.5003 40.4754 80.5003Z" fill="#B6D7FC"/>
<path fill-rule="evenodd" clip-rule="evenodd" d="M71.5127 83.9993C74.5503 83.9993 76.9961 81.5538 76.9961 78.5166C76.9961 75.4794 74.5503 72.9944 71.5127 72.9944C68.4752 72.9944 65.9899 75.4794 65.9899 78.5166C65.9899 81.5538 68.4752 83.9993 71.5127 83.9993Z" fill="#1E203E"/>
<path fill-rule="evenodd" clip-rule="evenodd" d="M71.4983 80.5003C74.1594 80.5003 74.1594 76.4985 71.4983 76.4985C68.8371 76.4985 68.8091 80.5003 71.4983 80.5003Z" fill="#B6D7FC"/>
<path d="M36.1965 38.7527L42.3371 32.6422C42.4329 32.5509 42.5533 32.4893 42.6836 32.465C42.814 32.4406 42.9486 32.4545 43.0711 32.505C43.1936 32.5555 43.2987 32.6404 43.3736 32.7494C43.4485 32.8583 43.4898 32.9865 43.4927 33.1185V35.9731C46.7555 36.1987 50.4699 31.5973 50.73 28.6038C50.7464 28.4547 50.812 28.3152 50.9166 28.2072C51.0213 28.0992 51.1589 28.0288 51.3081 28.0071C51.4572 27.9854 51.6094 28.0136 51.7407 28.0872C51.872 28.1609 51.9751 28.2758 52.0337 28.414C54.9854 35.8382 50.8875 41.2609 43.4927 42.5V45.3395C43.4876 45.4704 43.4449 45.5971 43.3696 45.7046C43.2944 45.812 43.1898 45.8958 43.0682 45.9459C42.9466 45.996 42.8131 46.0104 42.6835 45.9873C42.554 45.9643 42.4337 45.9047 42.3371 45.8158L36.1965 39.7052C36.0696 39.5789 35.9983 39.4076 35.9983 39.2289C35.9983 39.0503 36.0696 38.879 36.1965 38.7527Z" fill="#157DF5"/>
<path d="M62.2952 140.333C63.1334 140.333 63.8153 139.682 63.8153 138.881V135.619C63.8153 135.036 64.309 134.564 64.9178 134.564H75.3656C75.9744 134.564 76.4681 135.036 76.4681 135.619V138.881C76.4681 139.682 77.1499 140.333 77.9882 140.333C80.0422 140.333 81.7134 141.931 81.7134 143.895V159.613C81.7134 162.033 79.6547 164.001 77.1243 164.001H63.1591C60.6287 164.001 58.57 162.033 58.57 159.613V143.895C58.57 141.931 60.2412 140.333 62.2952 140.333Z" fill="#0965CD"/>
<path d="M62.2966 140.328C63.1348 140.328 63.8167 139.676 63.8167 138.876V135.613C63.8167 135.031 64.3103 134.558 64.9192 134.558H70.1431V163.995H63.1605C60.63 163.995 58.5714 162.027 58.5714 159.608V143.889C58.5714 141.926 60.2426 140.328 62.2966 140.328Z" fill="#157DF5"/>
<path d="M63.5409 145.232H76.7437C77.3526 145.232 77.8462 145.705 77.8462 146.287V158.386C77.8462 158.969 77.3526 159.441 76.7437 159.441H63.5408C62.932 159.441 62.4383 158.969 62.4383 158.386V146.287C62.4384 145.705 62.932 145.232 63.5409 145.232Z" fill="#E2EFFE"/>
<path d="M63.5417 145.232H70.1431V159.441H63.5417C62.9328 159.441 62.4392 158.969 62.4392 158.386V146.287C62.4392 145.705 62.9327 145.232 63.5417 145.232Z" fill="#F0F7FE"/>
<path d="M62.6581 134.561H62.6607V130.271C62.6607 129.02 63.7246 128.002 65.0322 128.002H75.2524C76.56 128.002 77.6239 129.02 77.6239 130.271V134.561H77.6265C78.2354 134.561 78.729 135.033 78.729 135.616C78.729 136.198 78.2354 136.67 77.6265 136.67H76.5214H63.7632H62.6581C62.0492 136.67 61.5556 136.198 61.5556 135.616C61.5556 135.033 62.0492 134.561 62.6581 134.561Z" fill="#25BB71"/>
<path d="M62.6589 134.561H62.6614V130.271C62.6614 129.02 63.7253 128.002 65.033 128.002H70.1431V136.67H63.7639H62.6589C62.05 136.67 61.5564 136.198 61.5564 135.616C61.5564 135.033 62.05 134.561 62.6589 134.561Z" fill="#40D98D"/>
<path d="M66.4044 151.143H68.501V149.049C68.501 148.143 69.2356 147.408 70.1417 147.408C71.0477 147.408 71.7823 148.143 71.7823 149.049V151.143H73.8789C74.785 151.143 75.5195 151.877 75.5195 152.783C75.5195 153.689 74.785 154.424 73.8789 154.424H71.7823V156.518C71.7823 157.423 71.0477 158.158 70.1417 158.158C69.2356 158.158 68.501 157.423 68.501 156.518V154.424H66.4044C65.4984 154.424 64.7638 153.689 64.7638 152.783C64.7638 151.877 65.4984 151.143 66.4044 151.143Z" fill="#F3263D"/>
<path d="M66.4053 151.143H68.502V149.049C68.502 148.143 69.2365 147.408 70.1426 147.408V158.158C69.2365 158.158 68.502 157.423 68.502 156.518V154.424H66.4053C65.4993 154.424 64.7647 153.689 64.7647 152.783C64.7647 151.877 65.4993 151.143 66.4053 151.143Z" fill="#F54B5E"/>
<path fill-rule="evenodd" clip-rule="evenodd" d="M55.9021 174.79H66.7999C67.1938 174.79 67.4564 174.494 67.4564 174.133C67.4564 171.311 68.7536 169.013 71.6093 169.013C74.4322 169.013 76.7299 171.311 76.7299 174.133C76.7299 174.494 76.9925 174.79 77.3864 174.79H80.7175C82.5229 174.79 84 173.313 84 171.508V158.642C84 158.281 83.7046 157.986 83.3435 157.986H55.9021C55.5411 157.986 55.2457 158.281 55.2457 158.642V174.133C55.2128 174.494 55.5411 174.79 55.9021 174.79Z" fill="#157DF5"/>
<path fill-rule="evenodd" clip-rule="evenodd" d="M30.0035 174.791H34.6646C35.0257 174.791 35.3211 174.496 35.3211 174.135C35.3211 171.312 37.6188 169.015 40.4417 169.015C43.2646 169.015 45.5624 171.312 45.5624 174.135C45.5624 174.496 45.8578 174.791 46.2188 174.791H55.9021C56.2632 174.791 56.5586 174.496 56.5586 174.135L56.5258 149.257C56.296 147.419 54.6219 147.058 53.7685 147.123H43.5272C43.2318 147.123 43.002 147.287 42.9036 147.517L38.6035 158.282L30.7256 159.333C28.5264 159.694 27.9684 161.302 28.0012 162.09V173.019C28.0668 173.577 28.5264 174.791 30.0035 174.791Z" fill="#0965CD"/>
<path fill-rule="evenodd" clip-rule="evenodd" d="M28.0008 164.028V169.87H30.397C34.2375 169.87 34.2375 164.028 30.397 164.028H28.0008Z" fill="#40D98D"/>
<path fill-rule="evenodd" clip-rule="evenodd" d="M41.9843 149.778L38.6034 158.278H49.5339C51.3393 158.278 52.8164 156.801 52.8164 154.996V153.06C52.8164 151.255 51.3393 149.778 49.5339 149.778H41.9843Z" fill="#B6D7FC"/>
<path fill-rule="evenodd" clip-rule="evenodd" d="M84 171.477V165.635H82.0633C78.2229 165.635 78.2229 171.477 82.0633 171.477C82.3916 171.477 83.3435 171.51 84 171.477Z" fill="#40D98D"/>
<path fill-rule="evenodd" clip-rule="evenodd" d="M40.4951 179.999C43.5327 179.999 45.9785 177.554 45.9785 174.517C45.9785 171.479 43.5327 168.994 40.4951 168.994C37.4576 168.994 34.9723 171.479 34.9723 174.517C34.9723 177.554 37.4576 179.999 40.4951 179.999Z" fill="#1E203E"/>
<path fill-rule="evenodd" clip-rule="evenodd" d="M40.4754 176.5C43.1436 176.5 43.1436 172.499 40.4754 172.499C37.8073 172.499 37.8073 176.5 40.4754 176.5Z" fill="#B6D7FC"/>
<path fill-rule="evenodd" clip-rule="evenodd" d="M71.5127 179.999C74.5503 179.999 76.9961 177.554 76.9961 174.517C76.9961 171.479 74.5503 168.994 71.5127 168.994C68.4752 168.994 65.9899 171.479 65.9899 174.517C65.9899 177.554 68.4752 179.999 71.5127 179.999Z" fill="#1E203E"/>
<path fill-rule="evenodd" clip-rule="evenodd" d="M71.4983 176.5C74.1594 176.5 74.1594 172.499 71.4983 172.499C68.8371 172.499 68.8091 176.5 71.4983 176.5Z" fill="#B6D7FC"/>
<path d="M36.1965 134.753L42.3371 128.642C42.4329 128.551 42.5533 128.489 42.6836 128.465C42.814 128.441 42.9486 128.455 43.0711 128.505C43.1936 128.556 43.2987 128.64 43.3736 128.749C43.4485 128.858 43.4898 128.987 43.4927 129.118V131.973C46.7555 132.199 50.4699 127.597 50.73 124.604C50.7464 124.455 50.812 124.315 50.9166 124.207C51.0213 124.099 51.1589 124.029 51.3081 124.007C51.4572 123.985 51.6094 124.014 51.7407 124.087C51.872 124.161 51.9751 124.276 52.0337 124.414C54.9854 131.838 50.8875 137.261 43.4927 138.5V141.34C43.4876 141.47 43.4449 141.597 43.3696 141.705C43.2944 141.812 43.1898 141.896 43.0682 141.946C42.9466 141.996 42.8131 142.01 42.6835 141.987C42.554 141.964 42.4337 141.905 42.3371 141.816L36.1965 135.705C36.0696 135.579 35.9983 135.408 35.9983 135.229C35.9983 135.05 36.0696 134.879 36.1965 134.753Z" fill="#157DF5"/>
<defs>
<filter id="filter0_d_49987_12643" x="10" y="9" width="96" height="96" filterUnits="userSpaceOnUse" color-interpolation-filters="sRGB">
<feFlood flood-opacity="0" result="BackgroundImageFix"/>
<feColorMatrix in="SourceAlpha" type="matrix" values="0 0 0 0 0 0 0 0 0 0 0 0 0 0 0 0 0 0 127 0" result="hardAlpha"/>
<feOffset dx="2" dy="1"/>
<feGaussianBlur stdDeviation="4"/>
<feColorMatrix type="matrix" values="0 0 0 0 0.0392157 0 0 0 0 0.0392157 0 0 0 0 0.0627451 0 0 0 0.08 0"/>
<feBlend mode="normal" in2="BackgroundImageFix" result="effect1_dropShadow_49987_12643"/>
<feBlend mode="normal" in="SourceGraphic" in2="effect1_dropShadow_49987_12643" result="shape"/>
</filter>
</defs>
</svg>
