<svg width="112" height="208" viewBox="0 0 112 208" fill="none" xmlns="http://www.w3.org/2000/svg">
<rect x="0.5" y="0.5" width="111" height="207" rx="4.5" stroke="#9747FF" stroke-dasharray="10 5"/>
<g filter="url(#filter0_d_6367_21095)">
<rect x="16" y="16" width="80" height="80" rx="8" fill="white"/>
</g>
<path d="M73.189 38.8125H30.8145V73.1259H73.189V38.8125Z" fill="#E2EFFE"/>
<path d="M54.1762 38.8125H30.8105V73.1229H54.1762V38.8125Z" fill="#F0F7FE"/>
<path fill-rule="evenodd" clip-rule="evenodd" d="M76 56.2214C76 56.2246 76 56.2278 76 56.2311L76.0029 74.5326C76.0029 74.5417 76.0023 74.5505 76.0017 74.5594C76.0012 74.5661 76.0008 74.5727 76.0006 74.5794C76.0007 74.5878 76.0018 74.596 76.0018 74.6044V82.5936C76.0018 83.3703 75.3721 84 74.5954 84C73.8187 84 73.189 83.3703 73.189 82.5936V75.939H30.8137L30.8128 82.5938C30.8127 83.3704 30.1829 84 29.4062 84C28.6295 83.9999 27.9999 83.3701 28 82.5934L28.001 56.232C28.001 56.2287 28.0008 56.2254 28.0005 56.2222C28.0003 56.2185 28 56.2149 28 56.2111C28 56.2074 28.0003 56.2038 28.0005 56.2002C28.0008 56.1969 28.001 56.1937 28.001 56.1903V37.4064C28.001 36.6297 28.6307 36 29.4075 36H74.5965C75.3732 36 76.0029 36.6297 76.0029 37.4064L76 56.1912C76 56.1979 76 56.2044 76 56.2111C76 56.2146 76 56.218 76 56.2214ZM30.814 38.8125H73.1885V73.1259H30.814V38.8125Z" fill="#B6D7FC"/>
<path d="M54.1772 36H29.4075C28.6307 36 28.001 36.6297 28.001 37.4064V56.1903C28.001 56.1937 28.0008 56.1969 28.0005 56.2002C28.0003 56.2038 28 56.2074 28 56.2111C28 56.2149 28.0003 56.2185 28.0005 56.2222C28.0008 56.2254 28.001 56.2287 28.001 56.232L28 82.5934C27.9999 83.3701 28.6295 83.9999 29.4062 84C30.1829 84 30.8127 83.3704 30.8128 82.5938L30.8137 75.939H54.1772V73.1259H30.814V38.8125H54.1772V36Z" fill="#E2EFFE"/>
<path d="M52.326 56.7488V56.1088C52.326 53.7533 50.4161 51.8438 48.0601 51.8438H43.4976L42.1328 69.3817L52.3259 68.0172L52.326 56.7488Z" fill="#25BB71"/>
<path d="M44.6091 57.535V47.1406H42.3921C39.4314 47.1406 37.0312 49.5403 37.0312 52.5005V58.5351L44.6091 57.535Z" fill="#40D98D"/>
<path d="M64.2637 57.7344L66.5833 55.4152C67.1691 54.8295 68.1189 54.8295 68.7048 55.4152C69.2906 56.0009 69.2906 56.9506 68.7048 57.5363L66.3852 59.8555L64.2637 57.7344Z" fill="#25BB71"/>
<path d="M40.2801 67.8573C37.0414 66.0132 34.8574 62.5302 34.8574 58.5372V53.1602C39.4618 53.1602 43.5286 55.4609 45.9707 58.9753L48.0385 69.6122L40.2801 67.8573Z" fill="#157DF5"/>
<path d="M60.5547 69.3227C60.8363 69.1251 61.1054 68.9022 61.357 68.6507L66.4621 63.5465C68.1166 61.8923 68.1263 59.2163 66.4913 57.5501C64.8773 55.9054 62.2192 55.8464 60.5374 57.4216C60.5258 57.4324 60.5143 57.4433 60.5029 57.4543C59.7505 58.1745 58.7215 58.5245 57.6846 58.4253C55.9547 58.26 54.1669 58.8424 52.8459 60.1729C52.696 60.3239 52.5562 60.481 52.4258 60.6434V69.3227L60.5547 69.3227Z" fill="#40D98D"/>
<path d="M54.9448 57.9805H54.1822L52.6875 68.9995L58.3115 67.5051C59.526 66.5229 60.3033 65.0216 60.3033 63.3381C60.3033 60.3791 57.9042 57.9805 54.9448 57.9805Z" fill="#F3263D"/>
<path d="M53.4203 57.9805C51.4608 57.9805 49.747 59.032 48.8125 60.6015V67.5051L54.1829 68.9995V57.9805H53.4203Z" fill="#F54B5E"/>
<path d="M44.0753 66.8416C43.7213 66.4782 43.4284 66.0437 43.2223 65.5465C42.073 62.7723 42.0092 58.8977 44.4965 57.8676C46.9838 56.8375 49.6789 59.6224 50.8282 62.3966C51.4769 63.9623 51.0869 65.6988 49.9761 66.8416L46.7998 68.5239L44.0753 66.8416Z" fill="#F0F7FE"/>
<path d="M68.4615 67.0977H35.542C33.9465 67.0977 32.9933 68.8741 33.8755 70.2035L35.2211 72.2312C35.5917 72.7896 36.2173 73.1253 36.8876 73.1253H67.1159C67.7861 73.1253 68.4118 72.7896 68.7824 72.2312L70.1279 70.2035C71.0101 68.8741 70.057 67.0977 68.4615 67.0977Z" fill="#1E203E"/>
<path d="M54.1776 67.0977H35.542C33.9465 67.0977 32.9933 68.8741 33.8755 70.2035L35.2211 72.2312C35.5917 72.7896 36.2173 73.1253 36.8876 73.1253H54.1776V67.0977Z" fill="#282A52"/>
<path d="M71.4997 28L77.7495 39.2925L71.4997 53C68.4201 53 65.597 51.8812 63.4168 50.027C62.6323 49.3615 61.9308 48.5995 61.332 47.7617C59.8645 45.7137 59 43.2053 59 40.5C59 35.6155 61.816 31.377 65.9087 29.3219C67.5915 28.4758 69.4907 28 71.4997 28Z" fill="#157DF5"/>
<path d="M83.9997 40.5C83.9997 47.3925 78.3923 53 71.5 53V28C73.5089 28 75.4081 28.4758 77.091 29.3219C81.1837 31.377 83.9997 35.6155 83.9997 40.5Z" fill="#0965CD"/>
<path d="M71.4992 34.1953L72.6062 38.4368L71.4992 42.6784L70.4111 41.5903C70.123 41.3021 69.9609 40.9104 69.9609 40.5022V35.7336C69.9609 34.8845 70.6501 34.1953 71.4992 34.1953Z" fill="white"/>
<path d="M74.9405 43.9428C74.64 44.2433 74.2463 44.3941 73.8535 44.3941C73.4597 44.3941 73.0659 44.2433 72.7655 43.9428L71.5 42.6784V34.1953C72.3491 34.1953 73.0382 34.8845 73.0382 35.7336V39.8654L74.9405 41.7677C75.5414 42.3687 75.5414 43.3429 74.9405 43.9428Z" fill="#F0F7FE"/>
<path d="M73.189 134.812H30.8145V169.126H73.189V134.812Z" fill="#E2EFFE"/>
<path d="M54.1762 134.812H30.8105V169.123H54.1762V134.812Z" fill="#F0F7FE"/>
<path fill-rule="evenodd" clip-rule="evenodd" d="M76 152.221C76 152.225 76 152.228 76 152.231L76.0029 170.533C76.0029 170.542 76.0023 170.551 76.0017 170.559C76.0012 170.566 76.0008 170.573 76.0006 170.579C76.0007 170.588 76.0018 170.596 76.0018 170.604V178.594C76.0018 179.37 75.3721 180 74.5954 180C73.8187 180 73.189 179.37 73.189 178.594V171.939H30.8137L30.8128 178.594C30.8127 179.37 30.1829 180 29.4062 180C28.6295 180 27.9999 179.37 28 178.593L28.001 152.232C28.001 152.229 28.0008 152.225 28.0005 152.222C28.0003 152.219 28 152.215 28 152.211C28 152.207 28.0003 152.204 28.0005 152.2C28.0008 152.197 28.001 152.194 28.001 152.19V133.406C28.001 132.63 28.6307 132 29.4075 132H74.5965C75.3732 132 76.0029 132.63 76.0029 133.406L76 152.191C76 152.198 76 152.204 76 152.211C76 152.215 76 152.218 76 152.221ZM30.814 134.813H73.1885V169.126H30.814V134.813Z" fill="#B6D7FC"/>
<path d="M54.1772 132H29.4075C28.6307 132 28.001 132.63 28.001 133.406V152.19C28.001 152.194 28.0008 152.197 28.0005 152.2C28.0003 152.204 28 152.207 28 152.211C28 152.215 28.0003 152.219 28.0005 152.222C28.0008 152.225 28.001 152.229 28.001 152.232L28 178.593C27.9999 179.37 28.6295 180 29.4062 180C30.1829 180 30.8127 179.37 30.8128 178.594L30.8137 171.939H54.1772V169.126H30.814V134.813H54.1772V132Z" fill="#E2EFFE"/>
<path d="M52.326 152.749V152.109C52.326 149.753 50.4161 147.844 48.0601 147.844H43.4976L42.1328 165.382L52.3259 164.017L52.326 152.749Z" fill="#25BB71"/>
<path d="M44.6091 153.535V143.141H42.3921C39.4314 143.141 37.0312 145.54 37.0312 148.5V154.535L44.6091 153.535Z" fill="#40D98D"/>
<path d="M64.2637 153.734L66.5833 151.415C67.1691 150.829 68.1189 150.829 68.7048 151.415C69.2906 152.001 69.2906 152.951 68.7048 153.536L66.3852 155.856L64.2637 153.734Z" fill="#25BB71"/>
<path d="M40.2801 163.857C37.0414 162.013 34.8574 158.53 34.8574 154.537V149.16C39.4618 149.16 43.5286 151.461 45.9707 154.975L48.0385 165.612L40.2801 163.857Z" fill="#157DF5"/>
<path d="M60.5547 165.323C60.8363 165.125 61.1054 164.902 61.357 164.651L66.4621 159.547C68.1166 157.892 68.1263 155.216 66.4913 153.55C64.8773 151.905 62.2192 151.846 60.5374 153.422C60.5258 153.432 60.5143 153.443 60.5029 153.454C59.7505 154.174 58.7215 154.525 57.6846 154.425C55.9547 154.26 54.1669 154.842 52.8459 156.173C52.696 156.324 52.5562 156.481 52.4258 156.643V165.323L60.5547 165.323Z" fill="#40D98D"/>
<path d="M54.9448 153.98H54.1822L52.6875 165L58.3115 163.505C59.526 162.523 60.3033 161.022 60.3033 159.338C60.3033 156.379 57.9042 153.98 54.9448 153.98Z" fill="#F3263D"/>
<path d="M53.4203 153.98C51.4608 153.98 49.747 155.032 48.8125 156.601V163.505L54.1829 165V153.98H53.4203Z" fill="#F54B5E"/>
<path d="M44.0753 162.842C43.7213 162.478 43.4284 162.044 43.2223 161.547C42.073 158.772 42.0092 154.898 44.4965 153.868C46.9838 152.837 49.6789 155.622 50.8282 158.397C51.4769 159.962 51.0869 161.699 49.9761 162.842L46.7998 164.524L44.0753 162.842Z" fill="#F0F7FE"/>
<path d="M68.4615 163.098H35.542C33.9465 163.098 32.9933 164.874 33.8755 166.204L35.2211 168.231C35.5917 168.79 36.2173 169.125 36.8876 169.125H67.1159C67.7861 169.125 68.4118 168.79 68.7824 168.231L70.1279 166.204C71.0101 164.874 70.057 163.098 68.4615 163.098Z" fill="#1E203E"/>
<path d="M54.1776 163.098H35.542C33.9465 163.098 32.9933 164.874 33.8755 166.204L35.2211 168.231C35.5917 168.79 36.2173 169.125 36.8876 169.125H54.1776V163.098Z" fill="#282A52"/>
<path d="M71.4997 124L77.7495 135.292L71.4997 149C68.4201 149 65.597 147.881 63.4168 146.027C62.6323 145.361 61.9308 144.6 61.332 143.762C59.8645 141.714 59 139.205 59 136.5C59 131.615 61.816 127.377 65.9087 125.322C67.5915 124.476 69.4907 124 71.4997 124Z" fill="#157DF5"/>
<path d="M83.9997 136.5C83.9997 143.392 78.3923 149 71.5 149V124C73.5089 124 75.4081 124.476 77.091 125.322C81.1837 127.377 83.9997 131.615 83.9997 136.5Z" fill="#0965CD"/>
<path d="M71.4992 130.195L72.6062 134.437L71.4992 138.678L70.4111 137.59C70.123 137.302 69.9609 136.91 69.9609 136.502V131.734C69.9609 130.884 70.6501 130.195 71.4992 130.195Z" fill="white"/>
<path d="M74.9405 139.943C74.64 140.243 74.2463 140.394 73.8535 140.394C73.4597 140.394 73.0659 140.243 72.7655 139.943L71.5 138.678V130.195C72.3491 130.195 73.0382 130.884 73.0382 131.734V135.865L74.9405 137.768C75.5414 138.369 75.5414 139.343 74.9405 139.943Z" fill="#F0F7FE"/>
<defs>
<filter id="filter0_d_6367_21095" x="10" y="9" width="96" height="96" filterUnits="userSpaceOnUse" color-interpolation-filters="sRGB">
<feFlood flood-opacity="0" result="BackgroundImageFix"/>
<feColorMatrix in="SourceAlpha" type="matrix" values="0 0 0 0 0 0 0 0 0 0 0 0 0 0 0 0 0 0 127 0" result="hardAlpha"/>
<feOffset dx="2" dy="1"/>
<feGaussianBlur stdDeviation="4"/>
<feColorMatrix type="matrix" values="0 0 0 0 0.0392157 0 0 0 0 0.0392157 0 0 0 0 0.0627451 0 0 0 0.08 0"/>
<feBlend mode="normal" in2="BackgroundImageFix" result="effect1_dropShadow_6367_21095"/>
<feBlend mode="normal" in="SourceGraphic" in2="effect1_dropShadow_6367_21095" result="shape"/>
</filter>
</defs>
</svg>
