<svg width="112" height="208" viewBox="0 0 112 208" fill="none" xmlns="http://www.w3.org/2000/svg">
<rect x="0.5" y="0.5" width="111" height="207" rx="4.5" stroke="#9747FF" stroke-dasharray="10 5"/>
<g filter="url(#filter0_d_6367_23495)">
<rect x="16" y="16" width="80" height="80" rx="8" fill="white"/>
</g>
<path fill-rule="evenodd" clip-rule="evenodd" d="M83.1906 41.9547C84.2701 40.8752 84.2701 39.1248 83.1906 38.0453L77.6488 32.503C76.9782 31.8323 75.891 31.8323 75.2204 32.503C74.5498 33.1736 74.5498 34.2609 75.2204 34.9316L78.5698 38.2812H65.4408C64.4924 38.2812 63.7236 39.0501 63.7236 39.9985C63.7236 40.947 64.4924 41.7158 65.4408 41.7158H78.5728L75.2204 45.0684C74.5498 45.7391 74.5498 46.8264 75.2204 47.497C75.891 48.1677 76.9782 48.1677 77.6488 47.497L83.1906 41.9547Z" fill="#B6D7FC"/>
<path fill-rule="evenodd" clip-rule="evenodd" d="M48.1877 39.9985C48.1877 40.947 47.419 41.7158 46.4706 41.7158H29.7181C28.7698 41.7158 28.001 40.947 28.001 39.9985C28.001 39.0501 28.7698 38.2812 29.7181 38.2812H46.4706C47.419 38.2812 48.1877 39.0501 48.1877 39.9985Z" fill="#E2EFFE"/>
<path d="M56.4999 28L62.7497 39.2925L56.4999 53C53.4204 53 50.5972 51.8812 48.417 50.027C47.6325 49.3615 46.9311 48.5995 46.3322 47.7617C44.8647 45.7137 44.0002 43.2053 44.0002 40.5C44.0002 35.6155 46.8162 31.377 50.9089 29.3219C52.5918 28.4758 54.491 28 56.4999 28Z" fill="#157DF5"/>
<path d="M68.9999 40.5C68.9999 47.3925 63.3925 53 56.5002 53V28C58.5092 28 60.4084 28.4758 62.0912 29.3219C66.1839 31.377 68.9999 35.6155 68.9999 40.5Z" fill="#0965CD"/>
<path d="M56.4994 34.1953L57.6064 38.4368L56.4994 42.6784L55.4114 41.5903C55.1232 41.3021 54.9612 40.9104 54.9612 40.5022V35.7336C54.9612 34.8845 55.6503 34.1953 56.4994 34.1953Z" fill="white"/>
<path d="M59.9408 43.9428C59.6403 44.2433 59.2465 44.3941 58.8537 44.3941C58.46 44.3941 58.0662 44.2433 57.7657 43.9428L56.5002 42.6784V34.1953C57.3493 34.1953 58.0385 34.8845 58.0385 35.7336V39.8654L59.9408 41.7677C60.5417 42.3687 60.5417 43.3429 59.9408 43.9428Z" fill="#F0F7FE"/>
<path d="M39.6721 73.4258H46.0381V76.8967H39.6721V73.4258Z" fill="#E2EFFE"/>
<path d="M57.2698 73.4258H63.6358V76.8967H57.2698V73.4258Z" fill="#B6D7FC"/>
<path d="M34.6143 71.0882H33.51C31.3786 71.0882 29.6448 69.3542 29.6448 67.2229V66.1186C29.6448 65.8136 29.8921 65.5664 30.197 65.5664H31.3013C33.4327 65.5664 35.1665 67.3004 35.1665 69.4317V70.5361C35.1665 70.8411 34.9192 71.0882 34.6143 71.0882Z" fill="#40D98D"/>
<path d="M39.7856 80.713C38.6776 81.8173 37.4444 82.2664 36.0897 81.5118C35.6407 81.2615 35.4014 81.14 35.1658 81.14C34.9265 81.14 34.6909 81.2652 34.2455 81.5118C32.8872 82.2665 31.6503 81.81 30.5497 80.713C28.6134 78.784 26.5704 73.888 29.3791 71.0056C30.9178 69.43 32.7326 69.0803 34.4921 70.0227C34.8087 70.1957 34.9854 70.284 35.1658 70.284C35.3425 70.284 35.5192 70.1957 35.8468 70.0227C37.6027 69.0803 39.4176 69.43 40.9562 71.0056C43.7685 73.888 41.7218 78.784 39.7856 80.713Z" fill="#09C369"/>
<path d="M39.7861 80.713C38.6781 81.8173 37.4448 82.2664 36.0902 81.5118C35.6411 81.2615 35.4018 81.14 35.1663 81.14V70.284C35.3429 70.284 35.5197 70.1957 35.8473 70.0227C37.6031 69.0803 39.418 69.43 40.9567 71.0056C43.769 73.888 41.7223 78.784 39.7861 80.713Z" fill="#08A559"/>
<path d="M51.5362 71.0882H50.4318C48.3005 71.0882 46.5667 69.3542 46.5667 67.2229V66.1186C46.5667 65.8136 46.814 65.5664 47.1188 65.5664H48.2232C50.3546 65.5664 52.0884 67.3004 52.0884 69.4317V70.5361C52.0884 70.8411 51.841 71.0882 51.5362 71.0882Z" fill="#40D98D"/>
<path d="M56.7094 80.713C55.6014 81.8173 54.3682 82.2664 53.0136 81.5118C52.5645 81.2615 52.3252 81.14 52.0896 81.14C51.8503 81.14 51.6147 81.2652 51.1693 81.5118C49.811 82.2665 48.5741 81.81 47.4735 80.713C45.5372 78.784 43.4942 73.888 46.3029 71.0056C47.8416 69.43 49.6564 69.0803 51.416 70.0227C51.7326 70.1957 51.9093 70.284 52.0896 70.284C52.2663 70.284 52.443 70.1957 52.7706 70.0227C54.5265 69.0803 56.3414 69.43 57.8801 71.0056C60.6923 73.888 58.6457 78.784 56.7094 80.713Z" fill="#40D98D"/>
<path d="M56.7099 80.713C55.6019 81.8173 54.3687 82.2664 53.014 81.5118C52.565 81.2615 52.3257 81.14 52.0901 81.14V70.284C52.2668 70.284 52.4435 70.1957 52.7711 70.0227C54.527 69.0803 56.3418 69.43 57.8805 71.0056C60.6928 73.888 58.6461 78.784 56.7099 80.713Z" fill="#25BB71"/>
<path d="M72.4155 67.8023H70.759C67.5619 67.8023 64.9612 65.2013 64.9612 62.0043V60.3478C64.9612 59.8903 65.3322 59.5195 65.7895 59.5195H67.446C70.643 59.5195 73.2437 62.1206 73.2437 65.3175V66.974C73.2437 67.4316 72.8728 67.8023 72.4155 67.8023Z" fill="#25BB71"/>
<path d="M80.1743 82.2394C78.5123 83.8959 76.6625 84.5696 74.6306 83.4376C73.957 83.0621 73.598 82.8799 73.2446 82.8799C72.8857 82.8799 72.5323 83.0677 71.8642 83.4376C69.8268 84.5696 67.9715 83.8849 66.3205 82.2394C63.416 79.3459 60.3515 72.0019 64.5646 67.6783C66.8726 65.3149 69.5948 64.7903 72.2342 66.2039C72.7091 66.4634 72.9741 66.596 73.2447 66.596C73.5097 66.596 73.7748 66.4634 74.2662 66.2039C76.9 64.7903 79.6223 65.3149 81.9303 67.6783C86.1487 72.0019 83.0787 79.3459 80.1743 82.2394Z" fill="#157DF5"/>
<path d="M80.176 82.2394C78.514 83.8959 76.6642 84.5696 74.6323 83.4376C73.9586 83.0621 73.5997 82.8799 73.2463 82.8799V66.596C73.5114 66.596 73.7764 66.4634 74.2678 66.2039C76.9017 64.7903 79.6239 65.3149 81.932 67.6783C86.1504 72.0019 83.0804 79.3459 80.176 82.2394Z" fill="#0965CD"/>
<path fill-rule="evenodd" clip-rule="evenodd" d="M83.1906 137.955C84.2701 136.875 84.2701 135.125 83.1906 134.045L77.6488 128.503C76.9782 127.832 75.891 127.832 75.2204 128.503C74.5498 129.174 74.5498 130.261 75.2204 130.932L78.5698 134.281H65.4408C64.4924 134.281 63.7236 135.05 63.7236 135.999C63.7236 136.947 64.4924 137.716 65.4408 137.716H78.5728L75.2204 141.068C74.5498 141.739 74.5498 142.826 75.2204 143.497C75.891 144.168 76.9782 144.168 77.6488 143.497L83.1906 137.955Z" fill="#B6D7FC"/>
<path fill-rule="evenodd" clip-rule="evenodd" d="M48.1877 135.999C48.1877 136.947 47.419 137.716 46.4706 137.716H29.7181C28.7698 137.716 28.001 136.947 28.001 135.999C28.001 135.05 28.7698 134.281 29.7181 134.281H46.4706C47.419 134.281 48.1877 135.05 48.1877 135.999Z" fill="#E2EFFE"/>
<path d="M56.4999 124L62.7497 135.292L56.4999 149C53.4204 149 50.5972 147.881 48.417 146.027C47.6325 145.361 46.9311 144.6 46.3322 143.762C44.8647 141.714 44.0002 139.205 44.0002 136.5C44.0002 131.615 46.8162 127.377 50.9089 125.322C52.5918 124.476 54.491 124 56.4999 124Z" fill="#157DF5"/>
<path d="M68.9999 136.5C68.9999 143.392 63.3925 149 56.5002 149V124C58.5092 124 60.4084 124.476 62.0912 125.322C66.1839 127.377 68.9999 131.615 68.9999 136.5Z" fill="#0965CD"/>
<path d="M56.4994 130.195L57.6064 134.437L56.4994 138.678L55.4114 137.59C55.1232 137.302 54.9612 136.91 54.9612 136.502V131.734C54.9612 130.884 55.6503 130.195 56.4994 130.195Z" fill="white"/>
<path d="M59.9408 139.943C59.6403 140.243 59.2465 140.394 58.8537 140.394C58.46 140.394 58.0662 140.243 57.7657 139.943L56.5002 138.678V130.195C57.3493 130.195 58.0385 130.884 58.0385 131.734V135.865L59.9408 137.768C60.5417 138.369 60.5417 139.343 59.9408 139.943Z" fill="#F0F7FE"/>
<path d="M39.6721 169.426H46.0381V172.897H39.6721V169.426Z" fill="#E2EFFE"/>
<path d="M57.2698 169.426H63.6358V172.897H57.2698V169.426Z" fill="#B6D7FC"/>
<path d="M34.6143 167.088H33.51C31.3786 167.088 29.6448 165.354 29.6448 163.223V162.119C29.6448 161.814 29.8921 161.566 30.197 161.566H31.3013C33.4327 161.566 35.1665 163.3 35.1665 165.432V166.536C35.1665 166.841 34.9192 167.088 34.6143 167.088Z" fill="#40D98D"/>
<path d="M39.7856 176.713C38.6776 177.817 37.4444 178.266 36.0897 177.512C35.6407 177.261 35.4014 177.14 35.1658 177.14C34.9265 177.14 34.6909 177.265 34.2455 177.512C32.8872 178.266 31.6503 177.81 30.5497 176.713C28.6134 174.784 26.5704 169.888 29.3791 167.006C30.9178 165.43 32.7326 165.08 34.4921 166.023C34.8087 166.196 34.9854 166.284 35.1658 166.284C35.3425 166.284 35.5192 166.196 35.8468 166.023C37.6027 165.08 39.4176 165.43 40.9562 167.006C43.7685 169.888 41.7218 174.784 39.7856 176.713Z" fill="#09C369"/>
<path d="M39.7861 176.713C38.6781 177.817 37.4448 178.266 36.0902 177.512C35.6411 177.261 35.4018 177.14 35.1663 177.14V166.284C35.3429 166.284 35.5197 166.196 35.8473 166.023C37.6031 165.08 39.418 165.43 40.9567 167.006C43.769 169.888 41.7223 174.784 39.7861 176.713Z" fill="#08A559"/>
<path d="M51.5362 167.088H50.4318C48.3005 167.088 46.5667 165.354 46.5667 163.223V162.119C46.5667 161.814 46.814 161.566 47.1188 161.566H48.2232C50.3546 161.566 52.0884 163.3 52.0884 165.432V166.536C52.0884 166.841 51.841 167.088 51.5362 167.088Z" fill="#40D98D"/>
<path d="M56.7094 176.713C55.6014 177.817 54.3682 178.266 53.0136 177.512C52.5645 177.261 52.3252 177.14 52.0896 177.14C51.8503 177.14 51.6147 177.265 51.1693 177.512C49.811 178.266 48.5741 177.81 47.4735 176.713C45.5372 174.784 43.4942 169.888 46.3029 167.006C47.8416 165.43 49.6564 165.08 51.416 166.023C51.7326 166.196 51.9093 166.284 52.0896 166.284C52.2663 166.284 52.443 166.196 52.7706 166.023C54.5265 165.08 56.3414 165.43 57.8801 167.006C60.6923 169.888 58.6457 174.784 56.7094 176.713Z" fill="#40D98D"/>
<path d="M56.7099 176.713C55.6019 177.817 54.3687 178.266 53.014 177.512C52.565 177.261 52.3257 177.14 52.0901 177.14V166.284C52.2668 166.284 52.4435 166.196 52.7711 166.023C54.527 165.08 56.3418 165.43 57.8805 167.006C60.6928 169.888 58.6461 174.784 56.7099 176.713Z" fill="#25BB71"/>
<path d="M72.4155 163.802H70.759C67.5619 163.802 64.9612 161.201 64.9612 158.004V156.348C64.9612 155.89 65.3322 155.52 65.7895 155.52H67.446C70.643 155.52 73.2437 158.121 73.2437 161.317V162.974C73.2437 163.432 72.8728 163.802 72.4155 163.802Z" fill="#25BB71"/>
<path d="M80.1743 178.239C78.5123 179.896 76.6625 180.57 74.6306 179.438C73.957 179.062 73.598 178.88 73.2446 178.88C72.8857 178.88 72.5323 179.068 71.8642 179.438C69.8268 180.57 67.9715 179.885 66.3205 178.239C63.416 175.346 60.3515 168.002 64.5646 163.678C66.8726 161.315 69.5948 160.79 72.2342 162.204C72.7091 162.463 72.9741 162.596 73.2447 162.596C73.5097 162.596 73.7748 162.463 74.2662 162.204C76.9 160.79 79.6223 161.315 81.9303 163.678C86.1487 168.002 83.0787 175.346 80.1743 178.239Z" fill="#157DF5"/>
<path d="M80.176 178.239C78.514 179.896 76.6642 180.57 74.6323 179.438C73.9586 179.062 73.5997 178.88 73.2463 178.88V162.596C73.5114 162.596 73.7764 162.463 74.2678 162.204C76.9017 160.79 79.6239 161.315 81.932 163.678C86.1504 168.002 83.0804 175.346 80.176 178.239Z" fill="#0965CD"/>
<defs>
<filter id="filter0_d_6367_23495" x="10" y="9" width="96" height="96" filterUnits="userSpaceOnUse" color-interpolation-filters="sRGB">
<feFlood flood-opacity="0" result="BackgroundImageFix"/>
<feColorMatrix in="SourceAlpha" type="matrix" values="0 0 0 0 0 0 0 0 0 0 0 0 0 0 0 0 0 0 127 0" result="hardAlpha"/>
<feOffset dx="2" dy="1"/>
<feGaussianBlur stdDeviation="4"/>
<feColorMatrix type="matrix" values="0 0 0 0 0.0392157 0 0 0 0 0.0392157 0 0 0 0 0.0627451 0 0 0 0.08 0"/>
<feBlend mode="normal" in2="BackgroundImageFix" result="effect1_dropShadow_6367_23495"/>
<feBlend mode="normal" in="SourceGraphic" in2="effect1_dropShadow_6367_23495" result="shape"/>
</filter>
</defs>
</svg>
