<svg width="112" height="208" viewBox="0 0 112 208" fill="none" xmlns="http://www.w3.org/2000/svg">
<rect x="0.5" y="0.5" width="111" height="207" rx="4.5" stroke="#9747FF" stroke-dasharray="10 5"/>
<g filter="url(#filter0_d_6367_20857)">
<rect x="16" y="16" width="80" height="80" rx="8" fill="white"/>
</g>
<path d="M54.8027 84.0009H29.6925C28.7578 84.0009 28 83.2431 28 82.3083V81.1114C28 76.7309 31.5512 73.1797 35.9317 73.1797H48.5635C52.9441 73.1797 56.4952 76.7309 56.4952 81.1114V82.3083C56.4952 83.2429 55.7375 84.0009 54.8027 84.0009Z" fill="#157DF5"/>
<path d="M48.5639 73.1797H42.248V84.0009H54.8031C55.7379 84.0009 56.4957 83.2431 56.4957 82.3083V81.1114C56.4957 76.7309 52.9445 73.1797 48.5639 73.1797Z" fill="#0965CD"/>
<path d="M33.3594 59.3726V64.9931C33.3594 69.9011 37.3381 73.88 42.2463 73.88C47.1544 73.88 51.1333 69.9011 51.1333 64.9931V62.5294L42.2463 57.2617L33.3594 59.3726Z" fill="#FFDECC"/>
<path d="M42.248 73.88C47.1561 73.88 51.135 69.9011 51.135 64.9931V62.5294L42.248 57.2617V73.88Z" fill="#FFCFB5"/>
<path d="M51.1333 58.7181C51.1333 55.0077 48.1254 52 44.4152 52H40.0774C36.3672 52 33.3594 55.0078 33.3594 58.7181V59.3783L51.1333 62.535V58.7181Z" fill="#282A52"/>
<path d="M44.4168 51.9998H42.2479V60.9565L51.1349 62.5349V58.7178C51.1349 55.0074 48.127 51.9998 44.4168 51.9998Z" fill="#1E203E"/>
<path d="M42.0009 40.1858L37.6016 36.4141L35.4262 36.9181L35.4023 38.8676L39.8976 42.7219L41.5548 42.0527L42.0009 40.1858Z" fill="#E2EFFE"/>
<path d="M46.25 39.8583L46.633 42.1687L48.751 42.0022L49.4073 41.2368L50.3567 38.7049L49.4073 36.1758L46.25 39.8583Z" fill="#E2EFFE"/>
<path d="M51.7424 35.9147L50.0679 35.4023L49.4062 36.174V41.235L52.5695 37.5458L51.7424 35.9147Z" fill="#E2EFFE"/>
<path d="M68.3236 44.693L66.735 45.5044L56.8164 37.2215L57.2398 35.4044L58.9584 34.7188L68.875 43L68.3236 44.693Z" fill="#B6D7FC"/>
<path d="M29.445 38.0813C27.5183 36.1547 27.5183 33.0199 29.445 31.0933C31.3715 29.1668 34.5063 29.1669 36.4328 31.0933C38.3594 33.0199 38.3594 36.1547 36.4328 38.0813C34.5059 40.0078 31.3715 40.0076 29.445 38.0813Z" fill="#157DF5"/>
<path d="M54.3506 37.8777C49.9792 37.8777 47.7399 32.5616 50.8568 29.4448C52.7833 27.5183 55.9181 27.5184 57.8446 29.4448C59.7712 31.3715 59.7712 34.5063 57.8446 36.4329C56.8813 37.396 55.616 37.8777 54.3506 37.8777Z" fill="#0965CD"/>
<path d="M44.4693 49.4098C43.1492 49.4098 41.9083 48.8955 40.9753 47.9617C39.1622 46.1502 39.0467 43.2105 40.7106 41.2638C40.7906 41.1679 40.8774 41.0733 40.9758 40.975C41.9083 40.0417 43.1492 39.5273 44.4693 39.5273C47.1986 39.5273 49.4105 41.7365 49.4105 44.4685C49.4105 47.1978 47.2009 49.4098 44.4693 49.4098Z" fill="#40D98D"/>
<path d="M74 54C79.5228 54 84 49.5228 84 44C84 38.4772 79.5228 34 74 34C68.4772 34 64 38.4772 64 44C64 49.5228 68.4772 54 74 54Z" fill="#40D98D"/>
<path d="M73.9991 34C73.9974 34 73.9958 34 73.9941 34V53.9999C73.9958 53.9999 73.9974 54 73.9991 54C79.5219 54 83.9991 49.5229 83.9991 44C83.9991 38.4771 79.5219 34 73.9991 34Z" fill="#25BB71"/>
<path d="M79.1317 40.3645C78.5494 39.7821 77.6052 39.7821 77.0228 40.3645L72.9162 44.4712L70.9792 42.5342C70.3969 41.9516 69.4527 41.9518 68.8704 42.5342C68.288 43.1165 68.288 44.0608 68.8704 44.6431L71.8617 47.6345C72.1414 47.9142 72.5207 48.0713 72.9162 48.0713C73.3117 48.0713 73.6911 47.9142 73.9707 47.6345L79.1318 42.4734C79.7142 41.891 79.7142 40.9468 79.1317 40.3645Z" fill="white"/>
<path d="M77.0228 40.3645L73.9961 43.3912V47.6091L79.1317 42.4734C79.7141 41.891 79.7141 40.9467 79.1317 40.3645C78.5495 39.7821 77.6052 39.7821 77.0228 40.3645Z" fill="#F0F7FE"/>
<path d="M54.8027 180.001H29.6925C28.7578 180.001 28 179.243 28 178.308V177.111C28 172.731 31.5512 169.18 35.9317 169.18H48.5635C52.9441 169.18 56.4952 172.731 56.4952 177.111V178.308C56.4952 179.243 55.7375 180.001 54.8027 180.001Z" fill="#157DF5"/>
<path d="M48.5639 169.18H42.248V180.001H54.8031C55.7379 180.001 56.4957 179.243 56.4957 178.308V177.111C56.4957 172.731 52.9445 169.18 48.5639 169.18Z" fill="#0965CD"/>
<path d="M33.3594 155.373V160.993C33.3594 165.901 37.3381 169.88 42.2463 169.88C47.1544 169.88 51.1333 165.901 51.1333 160.993V158.529L42.2463 153.262L33.3594 155.373Z" fill="#FFDECC"/>
<path d="M42.248 169.88C47.1561 169.88 51.135 165.901 51.135 160.993V158.529L42.248 153.262V169.88Z" fill="#FFCFB5"/>
<path d="M51.1333 154.718C51.1333 151.008 48.1254 148 44.4152 148H40.0774C36.3672 148 33.3594 151.008 33.3594 154.718V155.378L51.1333 158.535V154.718Z" fill="#282A52"/>
<path d="M44.4168 148H42.2479V156.957L51.1349 158.535V154.718C51.1349 151.007 48.127 148 44.4168 148Z" fill="#1E203E"/>
<path d="M42.0009 136.186L37.6016 132.414L35.4262 132.918L35.4023 134.868L39.8976 138.722L41.5548 138.053L42.0009 136.186Z" fill="#E2EFFE"/>
<path d="M46.25 135.858L46.633 138.169L48.751 138.002L49.4073 137.237L50.3567 134.705L49.4073 132.176L46.25 135.858Z" fill="#E2EFFE"/>
<path d="M51.7424 131.915L50.0679 131.402L49.4062 132.174V137.235L52.5695 133.546L51.7424 131.915Z" fill="#E2EFFE"/>
<path d="M68.3236 140.693L66.735 141.504L56.8164 133.222L57.2398 131.404L58.9584 130.719L68.875 139L68.3236 140.693Z" fill="#B6D7FC"/>
<path d="M29.445 134.081C27.5183 132.155 27.5183 129.02 29.445 127.093C31.3715 125.167 34.5063 125.167 36.4328 127.093C38.3594 129.02 38.3594 132.155 36.4328 134.081C34.5059 136.008 31.3715 136.008 29.445 134.081Z" fill="#157DF5"/>
<path d="M54.3506 133.878C49.9792 133.878 47.7399 128.562 50.8568 125.445C52.7833 123.518 55.9181 123.518 57.8446 125.445C59.7712 127.371 59.7712 130.506 57.8446 132.433C56.8813 133.396 55.616 133.878 54.3506 133.878Z" fill="#0965CD"/>
<path d="M44.4693 145.41C43.1492 145.41 41.9083 144.895 40.9753 143.962C39.1622 142.15 39.0467 139.21 40.7106 137.264C40.7906 137.168 40.8774 137.073 40.9758 136.975C41.9083 136.042 43.1492 135.527 44.4693 135.527C47.1986 135.527 49.4105 137.736 49.4105 140.469C49.4105 143.198 47.2009 145.41 44.4693 145.41Z" fill="#40D98D"/>
<path d="M74 150C79.5228 150 84 145.523 84 140C84 134.477 79.5228 130 74 130C68.4772 130 64 134.477 64 140C64 145.523 68.4772 150 74 150Z" fill="#40D98D"/>
<path d="M73.9991 130C73.9974 130 73.9958 130 73.9941 130V150C73.9958 150 73.9974 150 73.9991 150C79.5219 150 83.9991 145.523 83.9991 140C83.9991 134.477 79.5219 130 73.9991 130Z" fill="#25BB71"/>
<path d="M79.1317 136.364C78.5494 135.782 77.6052 135.782 77.0228 136.364L72.9162 140.471L70.9792 138.534C70.3969 137.952 69.4527 137.952 68.8704 138.534C68.288 139.117 68.288 140.061 68.8704 140.643L71.8617 143.635C72.1414 143.914 72.5207 144.071 72.9162 144.071C73.3117 144.071 73.6911 143.914 73.9707 143.635L79.1318 138.473C79.7142 137.891 79.7142 136.947 79.1317 136.364Z" fill="white"/>
<path d="M77.0228 136.364L73.9961 139.391V143.609L79.1317 138.473C79.7141 137.891 79.7141 136.947 79.1317 136.364C78.5495 135.782 77.6052 135.782 77.0228 136.364Z" fill="#F0F7FE"/>
<defs>
<filter id="filter0_d_6367_20857" x="10" y="9" width="96" height="96" filterUnits="userSpaceOnUse" color-interpolation-filters="sRGB">
<feFlood flood-opacity="0" result="BackgroundImageFix"/>
<feColorMatrix in="SourceAlpha" type="matrix" values="0 0 0 0 0 0 0 0 0 0 0 0 0 0 0 0 0 0 127 0" result="hardAlpha"/>
<feOffset dx="2" dy="1"/>
<feGaussianBlur stdDeviation="4"/>
<feColorMatrix type="matrix" values="0 0 0 0 0.0392157 0 0 0 0 0.0392157 0 0 0 0 0.0627451 0 0 0 0.08 0"/>
<feBlend mode="normal" in2="BackgroundImageFix" result="effect1_dropShadow_6367_20857"/>
<feBlend mode="normal" in="SourceGraphic" in2="effect1_dropShadow_6367_20857" result="shape"/>
</filter>
</defs>
</svg>
