<svg width="112" height="208" viewBox="0 0 112 208" fill="none" xmlns="http://www.w3.org/2000/svg">
<rect x="0.5" y="0.5" width="111" height="207" rx="4.5" stroke="#9747FF" stroke-dasharray="10 5"/>
<g filter="url(#filter0_d_6367_25121)">
<rect x="16" y="16" width="80" height="80" rx="8" fill="white"/>
</g>
<path d="M76.125 35.8436V42.2186C75.5781 42.5708 75.0312 42.923 74.4844 43.2751C73.9375 42.923 73.3906 42.5708 72.8438 42.2186V37.8436C73.4909 37.5637 74.1382 35.2838 74.7854 35.0039C75.232 35.2838 75.6784 35.5637 76.125 35.8436Z" fill="#1E203E"/>
<path d="M56.0437 37.8439C56.211 38.6028 56.3781 39.3618 56.5453 40.1208C56.3781 40.8201 56.211 41.5195 56.0437 42.2189C55.763 42.4594 55.4823 42.6998 55.2016 42.9403C54.9208 42.6998 54.6401 42.4594 54.3594 42.2189V37.5464C54.6418 37.3617 54.9241 37.1769 55.2065 36.9922C55.4855 37.2761 55.7646 37.56 56.0437 37.8439Z" fill="#282A52"/>
<path d="M57.6398 37.5776V42.2183C57.3943 42.5061 57.1488 42.7938 56.9032 43.0815C56.6164 42.7938 56.3298 42.5061 56.043 42.2183V37.8433C56.313 37.5687 56.5832 37.2942 56.8533 37.0195C57.1155 37.2056 57.3777 37.3915 57.6398 37.5776Z" fill="#1E203E"/>
<path d="M35.1973 37.5778V42.2186C34.5708 42.6258 33.9443 43.0329 33.3178 43.4401C32.8505 43.0329 32.3833 42.6258 31.916 42.2186V37.5461C32.4582 37.2404 33.0005 36.9346 33.5426 36.6289C34.0942 36.9452 34.6457 37.2615 35.1973 37.5778Z" fill="#282A52"/>
<path d="M38.5215 32.9219C38.5215 35.0766 37.1291 36.913 35.1965 37.578C34.6955 37.7497 34.1585 37.8438 33.5996 37.8438C33.0079 37.8438 32.4402 37.7387 31.9152 37.5462C30.0285 36.8572 28.6777 35.0437 28.6777 32.9219C28.6777 30.2083 30.886 28 33.5996 28C36.3132 28 38.5215 30.2083 38.5215 32.9219Z" fill="#157DF5"/>
<path d="M46.3947 55.3436V59.9844C45.8122 60.4372 45.2297 60.8901 44.647 61.343C44.1358 60.9006 43.6246 60.4584 43.1135 60.0161V55.3436C43.6522 54.8735 44.1909 54.4034 44.7296 53.9333C45.2847 54.4034 45.8397 54.8735 46.3947 55.3436Z" fill="#282A52"/>
<path d="M49.7209 64.6404C49.7209 67.354 47.5126 69.5623 44.799 69.5623C42.0854 69.5623 39.8772 67.354 39.8772 64.6404C39.8772 62.5185 41.2279 60.7051 43.1147 60.016C43.6397 59.8235 44.2073 59.7185 44.799 59.7185C45.3579 59.7185 45.895 59.8126 46.3959 59.9843C48.3286 60.6493 49.7209 62.4857 49.7209 64.6404Z" fill="#157DF5"/>
<path d="M84 32.6406V34.2031C84 35.1087 83 35.5 82.3266 35.8438L72.8438 37.8438V29.6406C72.8438 28.859 73.4022 28.2045 74.149 28.0399C74.3885 27.9871 74.6346 28.0451 74.8635 28.133L82.3266 31C83.5 31.5 84 31.735 84 32.6406Z" fill="#157DF5"/>
<path d="M56.043 28C56.5756 29.7677 57.1083 31.5355 57.6408 33.3033C57.1082 34.8168 56.5755 36.3302 56.043 37.8438C53.3429 37.8438 51.1211 35.6219 51.1211 32.9219C51.1211 30.2218 53.3429 28 56.043 28Z" fill="#40D98D"/>
<path d="M60.9648 32.9219C60.9648 35.6219 58.743 37.8438 56.043 37.8438V28C58.743 28 60.9648 30.2218 60.9648 32.9219Z" fill="#25BB71"/>
<path d="M39.2 42.2188C39.8129 44.6963 40.4259 47.174 41.0389 49.6515C40.426 51.549 39.813 53.4463 39.2 55.3438H29.6406C28.735 55.3438 28 54.6088 28 53.7031V43.8594C28 42.9538 28.735 42.2188 29.6406 42.2188H39.2Z" fill="#157DF5"/>
<path d="M50.3992 42.2188C51.0022 44.324 51.6053 46.4292 52.2083 48.5346C51.6053 50.8044 51.0022 53.0741 50.3992 55.3438H39.1992V42.2188H50.3992Z" fill="#0965CD"/>
<path d="M56.0441 42.2188C56.7021 44.4062 57.36 46.5938 58.018 48.7812C57.36 50.9688 56.7021 53.1562 56.0441 55.3438H50.4004V42.2188H56.0441Z" fill="#157DF5"/>
<path d="M61.643 42.2188C62.0385 44.4062 62.4339 46.5938 62.8294 48.7812C62.4339 50.9688 62.0385 53.1562 61.643 55.3438H56.043V42.2188H61.643Z" fill="#0965CD"/>
<path d="M72.8445 42.2188C73.5 44.4605 74.1555 46.7024 74.811 48.9441C74.1555 51.0774 73.5 53.2105 72.8445 55.3438H61.6445V42.2188H72.8445Z" fill="#157DF5"/>
<path d="M84 43.8594V53.7031C84 54.6088 83.265 55.3438 82.3594 55.3438H72.8438V42.2188H82.3594C83.265 42.2188 84 42.9538 84 43.8594Z" fill="#0965CD"/>
<path d="M82.3027 84.0009H57.1925C56.2578 84.0009 55.5 83.2431 55.5 82.3083V81.1114C55.5 76.7309 59.0512 73.1797 63.4317 73.1797H76.0635C80.4441 73.1797 83.9952 76.7309 83.9952 81.1114V82.3083C83.9952 83.2429 83.2375 84.0009 82.3027 84.0009Z" fill="#157DF5"/>
<path d="M76.0639 73.1797H69.748V84.0009H82.3031C83.2379 84.0009 83.9957 83.2431 83.9957 82.3083V81.1114C83.9957 76.7309 80.4445 73.1797 76.0639 73.1797Z" fill="#0965CD"/>
<path d="M60.8594 59.3726V64.9931C60.8594 69.9011 64.8381 73.88 69.7463 73.88C74.6544 73.88 78.6333 69.9011 78.6333 64.9931V62.5294L69.7463 57.2617L60.8594 59.3726Z" fill="#FFDECC"/>
<path d="M69.748 73.88C74.6561 73.88 78.635 69.9011 78.635 64.9931V62.5294L69.748 57.2617V73.88Z" fill="#FFCFB5"/>
<path d="M78.6333 58.7181C78.6333 55.0077 75.6254 52 71.9152 52H67.5774C63.8672 52 60.8594 55.0078 60.8594 58.7181V59.3783L78.6333 62.535V58.7181Z" fill="#282A52"/>
<path d="M71.9168 51.9998H69.7479V60.9565L78.6349 62.5349V58.7178C78.6349 55.0074 75.627 51.9998 71.9168 51.9998Z" fill="#1E203E"/>
<path d="M76.125 131.844V138.219C75.5781 138.571 75.0312 138.923 74.4844 139.275C73.9375 138.923 73.3906 138.571 72.8438 138.219V133.844C73.4909 133.564 74.1382 131.284 74.7854 131.004C75.232 131.284 75.6784 131.564 76.125 131.844Z" fill="#1E203E"/>
<path d="M56.0437 133.844C56.211 134.603 56.3781 135.362 56.5453 136.121C56.3781 136.82 56.211 137.52 56.0437 138.219C55.763 138.459 55.4823 138.7 55.2016 138.94C54.9208 138.7 54.6401 138.459 54.3594 138.219V133.546C54.6418 133.362 54.9241 133.177 55.2065 132.992C55.4855 133.276 55.7646 133.56 56.0437 133.844Z" fill="#282A52"/>
<path d="M57.6398 133.578V138.218C57.3943 138.506 57.1488 138.794 56.9032 139.082C56.6164 138.794 56.3298 138.506 56.043 138.218V133.843C56.313 133.569 56.5832 133.294 56.8533 133.02C57.1155 133.206 57.3777 133.392 57.6398 133.578Z" fill="#1E203E"/>
<path d="M35.1973 133.578V138.219C34.5708 138.626 33.9443 139.033 33.3178 139.44C32.8505 139.033 32.3833 138.626 31.916 138.219V133.546C32.4582 133.24 33.0005 132.935 33.5426 132.629C34.0942 132.945 34.6457 133.262 35.1973 133.578Z" fill="#282A52"/>
<path d="M38.5215 128.922C38.5215 131.077 37.1291 132.913 35.1965 133.578C34.6955 133.75 34.1585 133.844 33.5996 133.844C33.0079 133.844 32.4402 133.739 31.9152 133.546C30.0285 132.857 28.6777 131.044 28.6777 128.922C28.6777 126.208 30.886 124 33.5996 124C36.3132 124 38.5215 126.208 38.5215 128.922Z" fill="#157DF5"/>
<path d="M46.3947 151.344V155.984C45.8122 156.437 45.2297 156.89 44.647 157.343C44.1358 156.901 43.6246 156.458 43.1135 156.016V151.344C43.6522 150.874 44.1909 150.403 44.7296 149.933C45.2847 150.403 45.8397 150.874 46.3947 151.344Z" fill="#282A52"/>
<path d="M49.7209 160.64C49.7209 163.354 47.5126 165.562 44.799 165.562C42.0854 165.562 39.8772 163.354 39.8772 160.64C39.8772 158.519 41.2279 156.705 43.1147 156.016C43.6397 155.824 44.2073 155.719 44.799 155.719C45.3579 155.719 45.895 155.813 46.3959 155.984C48.3286 156.649 49.7209 158.486 49.7209 160.64Z" fill="#157DF5"/>
<path d="M84 128.641V130.203C84 131.109 83 131.5 82.3266 131.844L72.8438 133.844V125.641C72.8438 124.859 73.4022 124.204 74.149 124.04C74.3885 123.987 74.6346 124.045 74.8635 124.133L82.3266 127C83.5 127.5 84 127.735 84 128.641Z" fill="#157DF5"/>
<path d="M56.043 124C56.5756 125.768 57.1083 127.536 57.6408 129.303C57.1082 130.817 56.5755 132.33 56.043 133.844C53.3429 133.844 51.1211 131.622 51.1211 128.922C51.1211 126.222 53.3429 124 56.043 124Z" fill="#40D98D"/>
<path d="M60.9648 128.922C60.9648 131.622 58.743 133.844 56.043 133.844V124C58.743 124 60.9648 126.222 60.9648 128.922Z" fill="#25BB71"/>
<path d="M39.2 138.219C39.8129 140.696 40.4259 143.174 41.0389 145.652C40.426 147.549 39.813 149.446 39.2 151.344H29.6406C28.735 151.344 28 150.609 28 149.703V139.859C28 138.954 28.735 138.219 29.6406 138.219H39.2Z" fill="#157DF5"/>
<path d="M50.3992 138.219C51.0022 140.324 51.6053 142.429 52.2083 144.535C51.6053 146.804 51.0022 149.074 50.3992 151.344H39.1992V138.219H50.3992Z" fill="#0965CD"/>
<path d="M56.0441 138.219C56.7021 140.406 57.36 142.594 58.018 144.781C57.36 146.969 56.7021 149.156 56.0441 151.344H50.4004V138.219H56.0441Z" fill="#157DF5"/>
<path d="M61.643 138.219C62.0385 140.406 62.4339 142.594 62.8294 144.781C62.4339 146.969 62.0385 149.156 61.643 151.344H56.043V138.219H61.643Z" fill="#0965CD"/>
<path d="M72.8445 138.219C73.5 140.461 74.1555 142.702 74.811 144.944C74.1555 147.077 73.5 149.21 72.8445 151.344H61.6445V138.219H72.8445Z" fill="#157DF5"/>
<path d="M84 139.859V149.703C84 150.609 83.265 151.344 82.3594 151.344H72.8438V138.219H82.3594C83.265 138.219 84 138.954 84 139.859Z" fill="#0965CD"/>
<path d="M82.3027 180.001H57.1925C56.2578 180.001 55.5 179.243 55.5 178.308V177.111C55.5 172.731 59.0512 169.18 63.4317 169.18H76.0635C80.4441 169.18 83.9952 172.731 83.9952 177.111V178.308C83.9952 179.243 83.2375 180.001 82.3027 180.001Z" fill="#157DF5"/>
<path d="M76.0639 169.18H69.748V180.001H82.3031C83.2379 180.001 83.9957 179.243 83.9957 178.308V177.111C83.9957 172.731 80.4445 169.18 76.0639 169.18Z" fill="#0965CD"/>
<path d="M60.8594 155.373V160.993C60.8594 165.901 64.8381 169.88 69.7463 169.88C74.6544 169.88 78.6333 165.901 78.6333 160.993V158.529L69.7463 153.262L60.8594 155.373Z" fill="#FFDECC"/>
<path d="M69.748 169.88C74.6561 169.88 78.635 165.901 78.635 160.993V158.529L69.748 153.262V169.88Z" fill="#FFCFB5"/>
<path d="M78.6333 154.718C78.6333 151.008 75.6254 148 71.9152 148H67.5774C63.8672 148 60.8594 151.008 60.8594 154.718V155.378L78.6333 158.535V154.718Z" fill="#282A52"/>
<path d="M71.9168 148H69.7479V156.957L78.6349 158.535V154.718C78.6349 151.007 75.627 148 71.9168 148Z" fill="#1E203E"/>
<defs>
<filter id="filter0_d_6367_25121" x="10" y="9" width="96" height="96" filterUnits="userSpaceOnUse" color-interpolation-filters="sRGB">
<feFlood flood-opacity="0" result="BackgroundImageFix"/>
<feColorMatrix in="SourceAlpha" type="matrix" values="0 0 0 0 0 0 0 0 0 0 0 0 0 0 0 0 0 0 127 0" result="hardAlpha"/>
<feOffset dx="2" dy="1"/>
<feGaussianBlur stdDeviation="4"/>
<feColorMatrix type="matrix" values="0 0 0 0 0.0392157 0 0 0 0 0.0392157 0 0 0 0 0.0627451 0 0 0 0.08 0"/>
<feBlend mode="normal" in2="BackgroundImageFix" result="effect1_dropShadow_6367_25121"/>
<feBlend mode="normal" in="SourceGraphic" in2="effect1_dropShadow_6367_25121" result="shape"/>
</filter>
</defs>
</svg>
