<svg width="112" height="208" viewBox="0 0 112 208" fill="none" xmlns="http://www.w3.org/2000/svg">
<rect x="0.5" y="0.5" width="111" height="207" rx="4.5" stroke="#9747FF" stroke-dasharray="10 5"/>
<g filter="url(#filter0_d_16986_12776)">
<rect x="16" y="16" width="80" height="80" rx="8" fill="white"/>
</g>
<path d="M73.8193 30.1819C73.8193 28.9769 72.8424 28 71.6374 28H32.3635C31.1585 28 30.1816 28.9769 30.1816 30.1819V36.7276H73.8193V30.1819Z" fill="#0965CD"/>
<path d="M73.8193 36.7275H30.1817V67.274H73.8193V36.7275Z" fill="#B6D7FC"/>
<path d="M52.0005 36.7275H30.1817V67.274H52.0005V36.7275Z" fill="#E2EFFE"/>
<path d="M52.0004 28H32.3635C31.1585 28 30.1816 28.9769 30.1816 30.1819V36.7276H52.0004V28Z" fill="#157DF5"/>
<path d="M46.5459 49.8188H35.6365V67.274H46.5459V49.8188Z" fill="#B6D7FC"/>
<path d="M68.3647 50.9098C68.3647 50.3073 67.8763 49.8188 67.2738 49.8188H56.3644C55.7619 49.8188 55.2734 50.3073 55.2734 50.9098V57.4555C55.2734 58.058 55.7619 58.5464 56.3644 58.5464H67.2738C67.8763 58.5464 68.3647 58.058 68.3647 57.4555V50.9098Z" fill="#157DF5"/>
<path d="M56.3625 67.2742L55.0898 69.6008L56.3625 70.8538H74.2098C75.1983 70.8538 75.9996 70.0525 75.9996 69.064C75.9996 68.0755 75.1983 67.2742 74.2098 67.2742H56.3625Z" fill="#25BB71"/>
<path d="M27.9995 69.064C27.9995 70.0525 28.8008 70.8538 29.7893 70.8538H56.3641V67.2742H29.7893C28.8008 67.2742 27.9995 68.0755 27.9995 69.064Z" fill="#40D98D"/>
<path fill-rule="evenodd" clip-rule="evenodd" d="M63.74 54.9141C63.74 52.2001 65.9446 50 68.6641 50H76.3359C79.0554 50 81.26 52.2001 81.26 54.9141V56.2812C81.26 56.933 81.0965 57.5465 80.8082 58.0834C82.8368 59.8479 84 62.3973 84 65.0856V78.5391C84 81.5551 81.5501 84 78.5279 84H66.4721C63.4499 84 61 81.5551 61 78.5391V65.0856C61 62.3997 62.1649 59.8466 64.1918 58.0834C63.9035 57.5465 63.74 56.9329 63.74 56.2812V54.9141Z" fill="white"/>
<path d="M78.8016 60.3106L77.1652 58.9118V56.2812H67.8426V58.9118L66.2062 60.3105C64.8084 61.5053 64.0039 63.2496 64.0039 65.0856V66.125L65.6491 71.8672L64.0039 77.6094V78.5391C64.0039 79.8982 65.1087 81 66.4716 81H78.5362C79.8991 81 81.0039 79.8982 81.0039 78.5391V65.0856C81.0039 63.2473 80.2012 61.5069 78.8016 60.3106Z" fill="#FEE048"/>
<path d="M78.8002 60.3106L77.1637 58.9118V56.2812H72.5024V81H78.5347C79.8976 81 81.0024 79.8982 81.0024 78.5391V65.0856C81.0024 63.2473 80.1997 61.5069 78.8002 60.3106Z" fill="#FED601"/>
<path d="M76.3409 53H68.6635C67.6035 53 66.7441 53.857 66.7441 54.9141V56.2812C66.7441 56.7343 67.1124 57.1016 67.5667 57.1016H77.4377C77.892 57.1016 78.2603 56.7343 78.2603 56.2812V54.9141C78.2603 53.857 77.4009 53 76.3409 53Z" fill="#40D98D"/>
<path d="M76.3412 53H72.5024V57.1016H77.4379C77.8922 57.1016 78.2605 56.7343 78.2605 56.2812V54.9141C78.2605 53.857 77.4012 53 76.3412 53Z" fill="#25BB71"/>
<path d="M76.891 64.125H64.0039V79.1094H76.891C77.3453 79.1094 77.7136 78.7421 77.7136 78.2891V64.9453C77.7136 64.4923 77.3453 64.125 76.891 64.125Z" fill="white"/>
<path d="M76.8876 64.125H72.5005V79.1094H76.8876C77.3419 79.1094 77.7102 78.7421 77.7102 78.2891V64.9453C77.7102 64.4923 77.3419 64.125 76.8876 64.125Z" fill="#F0F7FE"/>
<path d="M73.0943 70.8083L72.7634 71.138C72.6177 71.2832 72.3816 71.2832 72.236 71.138L71.9049 70.8081C70.5961 69.5039 70.7916 67.5482 71.9049 66.4388L72.236 66.1088C72.3816 65.9637 72.6177 65.9637 72.7634 66.1088L73.0944 66.4387C74.3033 67.6433 74.3096 69.5973 73.0943 70.8083Z" fill="#FEE048"/>
<path d="M71.8137 74.6207L71.6924 75.0712C71.639 75.2696 71.4345 75.3873 71.2356 75.3342L70.7835 75.2136C68.9962 74.7367 68.1849 72.9455 68.5928 71.4296L68.7141 70.9788C68.7675 70.7805 68.972 70.6628 69.1709 70.7158L69.623 70.8365C71.2738 71.2769 72.2589 72.966 71.8137 74.6207Z" fill="#FEE048"/>
<path d="M73.1075 74.6207L73.2288 75.0712C73.2821 75.2696 73.4867 75.3873 73.6856 75.3342L74.1377 75.2136C75.925 74.7367 76.7363 72.9455 76.3284 71.4296L76.2071 70.9788C76.1537 70.7805 75.9492 70.6628 75.7503 70.7158L75.2982 70.8365C73.6474 71.2769 72.6622 72.966 73.1075 74.6207Z" fill="#FED601"/>
<path d="M73.0946 70.8161C74.3099 69.6051 74.3036 67.6511 73.0948 66.4466L72.7637 66.1167C72.6909 66.0441 72.5954 66.0078 72.5 66.0078L72.5 71.2547C72.5954 71.2547 72.6909 71.2184 72.7637 71.1459L73.0946 70.8161Z" fill="#FED601"/>
<path d="M73.8193 126.182C73.8193 124.977 72.8424 124 71.6374 124H32.3635C31.1585 124 30.1816 124.977 30.1816 126.182V132.728H73.8193V126.182Z" fill="#0965CD"/>
<path d="M73.8193 132.728H30.1817V163.274H73.8193V132.728Z" fill="#B6D7FC"/>
<path d="M52.0005 132.728H30.1817V163.274H52.0005V132.728Z" fill="#E2EFFE"/>
<path d="M52.0004 124H32.3635C31.1585 124 30.1816 124.977 30.1816 126.182V132.728H52.0004V124Z" fill="#157DF5"/>
<path d="M46.5459 145.819H35.6365V163.274H46.5459V145.819Z" fill="#B6D7FC"/>
<path d="M68.3647 146.91C68.3647 146.307 67.8763 145.819 67.2738 145.819H56.3644C55.7619 145.819 55.2734 146.307 55.2734 146.91V153.455C55.2734 154.058 55.7619 154.546 56.3644 154.546H67.2738C67.8763 154.546 68.3647 154.058 68.3647 153.455V146.91Z" fill="#157DF5"/>
<path d="M56.3625 163.274L55.0898 165.601L56.3625 166.854H74.2098C75.1983 166.854 75.9996 166.052 75.9996 165.064C75.9996 164.076 75.1983 163.274 74.2098 163.274H56.3625Z" fill="#25BB71"/>
<path d="M27.9995 165.064C27.9995 166.052 28.8008 166.854 29.7893 166.854H56.3641V163.274H29.7893C28.8008 163.274 27.9995 164.076 27.9995 165.064Z" fill="#40D98D"/>
<path fill-rule="evenodd" clip-rule="evenodd" d="M63.74 150.914C63.74 148.2 65.9446 146 68.6641 146H76.3359C79.0554 146 81.26 148.2 81.26 150.914V152.281C81.26 152.933 81.0965 153.547 80.8082 154.083C82.8368 155.848 84 158.397 84 161.086V174.539C84 177.555 81.5501 180 78.5279 180H66.4721C63.4499 180 61 177.555 61 174.539V161.086C61 158.4 62.1649 155.847 64.1918 154.083C63.9035 153.547 63.74 152.933 63.74 152.281V150.914Z" fill="white"/>
<path d="M78.8016 156.311L77.1652 154.912V152.281H67.8426V154.912L66.2062 156.311C64.8084 157.505 64.0039 159.25 64.0039 161.086V162.125L65.6491 167.867L64.0039 173.609V174.539C64.0039 175.898 65.1087 177 66.4716 177H78.5362C79.8991 177 81.0039 175.898 81.0039 174.539V161.086C81.0039 159.247 80.2012 157.507 78.8016 156.311Z" fill="#FEE048"/>
<path d="M78.8002 156.311L77.1637 154.912V152.281H72.5024V177H78.5347C79.8976 177 81.0024 175.898 81.0024 174.539V161.086C81.0024 159.247 80.1997 157.507 78.8002 156.311Z" fill="#FED601"/>
<path d="M76.3409 149H68.6635C67.6035 149 66.7441 149.857 66.7441 150.914V152.281C66.7441 152.734 67.1124 153.102 67.5667 153.102H77.4377C77.892 153.102 78.2603 152.734 78.2603 152.281V150.914C78.2603 149.857 77.4009 149 76.3409 149Z" fill="#40D98D"/>
<path d="M76.3412 149H72.5024V153.102H77.4379C77.8922 153.102 78.2605 152.734 78.2605 152.281V150.914C78.2605 149.857 77.4012 149 76.3412 149Z" fill="#25BB71"/>
<path d="M76.891 160.125H64.0039V175.109H76.891C77.3453 175.109 77.7136 174.742 77.7136 174.289V160.945C77.7136 160.492 77.3453 160.125 76.891 160.125Z" fill="white"/>
<path d="M76.8876 160.125H72.5005V175.109H76.8876C77.3419 175.109 77.7102 174.742 77.7102 174.289V160.945C77.7102 160.492 77.3419 160.125 76.8876 160.125Z" fill="#F0F7FE"/>
<path d="M73.0943 166.808L72.7634 167.138C72.6177 167.283 72.3816 167.283 72.236 167.138L71.9049 166.808C70.5961 165.504 70.7916 163.548 71.9049 162.439L72.236 162.109C72.3816 161.964 72.6177 161.964 72.7634 162.109L73.0944 162.439C74.3033 163.643 74.3096 165.597 73.0943 166.808Z" fill="#FEE048"/>
<path d="M71.8137 170.621L71.6924 171.071C71.639 171.27 71.4345 171.387 71.2356 171.334L70.7835 171.214C68.9962 170.737 68.1849 168.946 68.5928 167.43L68.7141 166.979C68.7675 166.781 68.972 166.663 69.1709 166.716L69.623 166.836C71.2738 167.277 72.2589 168.966 71.8137 170.621Z" fill="#FEE048"/>
<path d="M73.1075 170.621L73.2288 171.071C73.2821 171.27 73.4867 171.387 73.6856 171.334L74.1377 171.214C75.925 170.737 76.7363 168.946 76.3284 167.43L76.2071 166.979C76.1537 166.781 75.9492 166.663 75.7503 166.716L75.2982 166.836C73.6474 167.277 72.6622 168.966 73.1075 170.621Z" fill="#FED601"/>
<path d="M73.0946 166.816C74.3099 165.605 74.3036 163.651 73.0948 162.447L72.7637 162.117C72.6909 162.044 72.5954 162.008 72.5 162.008L72.5 167.255C72.5954 167.255 72.6909 167.218 72.7637 167.146L73.0946 166.816Z" fill="#FED601"/>
<defs>
<filter id="filter0_d_16986_12776" x="10" y="9" width="96" height="96" filterUnits="userSpaceOnUse" color-interpolation-filters="sRGB">
<feFlood flood-opacity="0" result="BackgroundImageFix"/>
<feColorMatrix in="SourceAlpha" type="matrix" values="0 0 0 0 0 0 0 0 0 0 0 0 0 0 0 0 0 0 127 0" result="hardAlpha"/>
<feOffset dx="2" dy="1"/>
<feGaussianBlur stdDeviation="4"/>
<feColorMatrix type="matrix" values="0 0 0 0 0.0392157 0 0 0 0 0.0392157 0 0 0 0 0.0627451 0 0 0 0.08 0"/>
<feBlend mode="normal" in2="BackgroundImageFix" result="effect1_dropShadow_16986_12776"/>
<feBlend mode="normal" in="SourceGraphic" in2="effect1_dropShadow_16986_12776" result="shape"/>
</filter>
</defs>
</svg>
