<svg width="112" height="208" viewBox="0 0 112 208" fill="none" xmlns="http://www.w3.org/2000/svg">
<rect x="0.5" y="0.5" width="111" height="207" rx="4.5" stroke="#9747FF" stroke-dasharray="10 5"/>
<g filter="url(#filter0_dd_34088_73863)">
<rect x="16" y="16" width="80" height="80" rx="8" fill="white"/>
</g>
<path d="M52.9999 77.8322C52.9999 76.8031 53.7896 75.9446 54.8071 76.0985C56.3719 76.3351 58.525 77.1057 59.4497 79.4854H52.9999V77.8322Z" fill="#FED601"/>
<path d="M43.9999 77.8322C43.9999 76.8031 44.7896 75.9446 45.8071 76.0985C47.3719 76.3351 49.525 77.1057 50.4497 79.4854H43.9999V77.8322Z" fill="#FEE048"/>
<path d="M58.4054 81.5315H55.2607V71.7812H52.5528V80.5638H48.5662C46.6092 80.5638 45.0229 82.1008 45.0229 83.9967H60.9501C60.95 82.6352 59.8107 81.5315 58.4054 81.5315Z" fill="#FD9317"/>
<path d="M52 80.5625H48.5662C46.6092 80.5625 45.0229 82.0995 45.0229 83.9953H52V80.5625Z" fill="#FDAA49"/>
<path d="M45.9608 39.0078C45.9608 39.0078 48.8164 40.5224 50.4 46.4248C54.4569 50.3639 67.997 65.3765 63.3447 68.8865C63.3447 68.8865 54.2342 74.1195 43.7688 72.4752C22.7617 69.1745 38.1038 43.5744 38.1038 43.5744L45.9608 39.0078Z" fill="#282A52"/>
<path d="M51.5 45.5C47.837 39.0752 44.9609 38.0078 44.9609 38.0078L38.1039 43.5744C38.1039 43.5744 34.7385 49.19 33.3184 55.5L37.5 52L41 55L43 51L46.5 52.5L48 49L54.2158 50.8555C54.3895 50.9073 54.537 50.7199 54.4459 50.5632L51.5 45.5Z" fill="#FD9317"/>
<path d="M53.4067 76.2713C50.6571 76.2713 48.4282 74.1119 48.4282 71.448V69.5234H58.3851V71.448C58.3851 74.1119 56.1562 76.2713 53.4067 76.2713Z" fill="#282A52"/>
<path d="M49.3131 81.5315H46.1684V71.7812H43.4605V80.5638H39.4739C37.5169 80.5638 35.9307 82.1008 35.9307 83.9967H51.8578C51.8577 82.6352 50.7184 81.5315 49.3131 81.5315Z" fill="#FD9317"/>
<path d="M52 69.5234H48.4282V71.448C48.4282 73.6386 49.9354 75.4881 52 76.0761V69.5234Z" fill="#323567"/>
<path d="M52 48.0482C51.3802 47.3981 50.8355 46.8476 50.4 46.4248C48.8164 40.5224 45.9608 39.0078 45.9608 39.0078L38.1038 43.5744C38.1038 43.5744 22.7617 69.1745 43.7688 72.4752C46.672 72.9313 49.4709 72.8582 52 72.5144V48.0482Z" fill="#323567"/>
<path d="M51.9998 46.4167L51.4998 45.5C47.8368 39.0752 44.9607 38.0078 44.9607 38.0078L38.1037 43.5744C38.1037 43.5744 34.9406 48.8526 33.4534 54.9246C33.4079 55.1104 33.6248 55.2434 33.7714 55.1206L37.175 52.2718C37.3625 52.115 37.6358 52.1166 37.8214 52.2756L40.8053 54.8333C40.9041 54.918 41.0562 54.8873 41.1144 54.7709L42.789 51.4217C42.9074 51.1849 43.1898 51.0814 43.4331 51.1857L46.316 52.4212C46.4175 52.4647 46.5351 52.4177 46.5786 52.3162L47.8228 49.4131C47.9234 49.1782 48.1851 49.057 48.4294 49.1322L51.9998 50.2308V46.4167Z" fill="#FDAA49"/>
<path d="M81.4262 49.6188C81.9681 49.7342 82.3351 49.048 81.8702 48.7465C79.172 46.9969 75.9277 45.9761 72.437 45.9761C69.7694 45.9761 67.2458 46.5725 64.9995 47.6343C68.1124 44.2007 72.677 42.0327 77.7648 42.0327C79.0216 42.0327 80.2466 42.165 81.4256 42.416C81.9675 42.5313 82.3346 41.845 81.8697 41.5436C79.1715 39.7941 75.9274 38.7734 72.4369 38.7734C63.0562 38.7734 55.4517 46.141 55.4517 55.2294C55.4517 56.4655 55.4863 66.4488 55.462 67.1565H63.5843C66.6232 62.6997 71.8388 59.7582 77.7648 59.7582C79.0216 59.7582 80.2466 59.8905 81.4256 60.1415C81.9675 60.2568 82.3346 59.5705 81.8697 59.2691C79.1715 57.5196 75.9274 56.4989 72.4369 56.4989C71.2904 56.4989 70.1708 56.6097 69.0881 56.8194C71.6276 55.3544 74.5944 54.5119 77.7647 54.5119C79.0215 54.5119 80.2465 54.6442 81.4255 54.8952C81.9674 55.0105 82.3344 54.3242 81.8696 54.0227C79.1714 52.2733 75.9273 51.2526 72.4367 51.2526C71.2625 51.2526 70.1161 51.3681 69.009 51.588C71.5658 50.0947 74.5615 49.2353 77.7647 49.2353C79.0218 49.2354 80.247 49.3677 81.4262 49.6188Z" fill="#25BB71"/>
<path d="M36.2441 39.9607C36.2445 39.9574 36.2446 39.9559 36.2453 39.9526C36.2666 39.8481 36.8781 37.1047 42.6181 36.1544C45.1241 35.7395 46.962 33.6431 46.962 31.18C46.962 29.4237 45.4925 28 43.6798 28H43.1966C41.7817 28 40.5265 28.8784 40.0813 30.1786C40.0789 30.1856 40.0706 30.1885 40.0644 30.1845C39.2548 29.6604 38.2273 29.5658 37.3302 29.9328C35.7636 30.5739 35.1024 32.3792 35.9015 33.8336L35.9648 33.9487C36.0238 34.0561 35.9752 34.1925 35.8641 34.2444C34.9783 34.6587 31.7292 36.5416 33.8523 41.1086C33.8847 41.1784 33.9564 41.2254 34.0333 41.2254H35.9018C36.0021 41.2254 36.0869 41.151 36.1001 41.0515L36.2441 39.9607Z" fill="#F3263D"/>
<path d="M46.495 41.3263C46.495 38.32 43.9794 35.8828 40.8764 35.8828C37.7734 35.8828 34.2578 38.32 34.2578 41.3263L35 46.6508C35 48.7907 37.0483 51.5254 39.2571 51.5254C41.6304 51.5254 43.4815 49.5346 43.2347 47.2477L43.1336 46.3112C45.1125 45.4689 46.495 43.5546 46.495 41.3263Z" fill="#FF5247"/>
<path d="M38.3382 41.0594C39.2191 41.0594 39.9332 40.3676 39.9332 39.5141C39.9332 38.6606 39.2191 37.9688 38.3382 37.9688C37.4573 37.9688 36.7432 38.6606 36.7432 39.5141C36.7432 40.3676 37.4573 41.0594 38.3382 41.0594Z" fill="#1E203E"/>
<path d="M30.3804 44.6016C30.3804 44.6016 31.3583 47.0293 34.9244 47.4181C35.2084 47.449 35.4495 47.2199 35.4495 46.9343V44.6016H30.3804Z" fill="#FEE048"/>
<path d="M47.6828 55.602C45.9422 57.9971 45.2565 61.9258 46.9388 64.903C50.3174 70.8823 59.017 74.3016 67.7162 71.0192C68.274 70.8088 68.8442 70.5767 69.4268 70.3213C69.7795 70.1668 69.822 69.688 69.5065 69.4673L67.4511 68.0291C67.4511 68.0291 70.2732 67.5102 71.5802 64.8807C71.7388 64.5616 71.479 64.2109 71.1229 64.2227C69.8377 64.2652 67.2903 64.2826 66.7378 63.7866C66.7378 63.7866 68.8563 63.6256 70.6937 62.0011C70.9321 61.7903 70.8859 61.4168 70.6144 61.2507C69.0367 60.2855 64.1747 57.3022 59.8271 54.5438C56.0154 52.1254 50.2107 52.1235 47.6828 55.602Z" fill="#1E203E"/>
<path d="M52 53.0234C50.258 53.3632 48.7034 54.2003 47.6828 55.6046C45.9422 57.9998 45.2565 61.9284 46.9388 64.9056C48.0838 66.932 49.8399 68.6643 52 69.9415V53.0234Z" fill="#282A52"/>
<path d="M35.4498 42.9416C35.4498 41.9125 34.6601 41.054 33.6426 41.2079C32.0778 41.4445 29.9248 42.2151 29 44.5947H35.4498V42.9416Z" fill="#FED601"/>
<path d="M52.9999 173.832C52.9999 172.803 53.7896 171.945 54.8071 172.099C56.3719 172.335 58.525 173.106 59.4497 175.485H52.9999V173.832Z" fill="#FED601"/>
<path d="M43.9999 173.832C43.9999 172.803 44.7896 171.945 45.8071 172.099C47.3719 172.335 49.525 173.106 50.4497 175.485H43.9999V173.832Z" fill="#FEE048"/>
<path d="M58.4054 177.532H55.2607V167.781H52.5528V176.564H48.5662C46.6092 176.564 45.0229 178.101 45.0229 179.997H60.9501C60.95 178.635 59.8107 177.532 58.4054 177.532Z" fill="#FD9317"/>
<path d="M52 176.562H48.5662C46.6092 176.562 45.0229 178.099 45.0229 179.995H52V176.562Z" fill="#FDAA49"/>
<path d="M45.9608 135.008C45.9608 135.008 48.8164 136.522 50.4 142.425C54.4569 146.364 67.997 161.376 63.3447 164.887C63.3447 164.887 54.2342 170.12 43.7688 168.475C22.7617 165.175 38.1038 139.574 38.1038 139.574L45.9608 135.008Z" fill="#282A52"/>
<path d="M51.5 141.5C47.837 135.075 44.9609 134.008 44.9609 134.008L38.1039 139.574C38.1039 139.574 34.7385 145.19 33.3184 151.5L37.5 148L41 151L43 147L46.5 148.5L48 145L54.2158 146.855C54.3895 146.907 54.537 146.72 54.4459 146.563L51.5 141.5Z" fill="#FD9317"/>
<path d="M53.4067 172.271C50.6571 172.271 48.4282 170.112 48.4282 167.448V165.523H58.3851V167.448C58.3851 170.112 56.1562 172.271 53.4067 172.271Z" fill="#282A52"/>
<path d="M49.3131 177.532H46.1684V167.781H43.4605V176.564H39.4739C37.5169 176.564 35.9307 178.101 35.9307 179.997H51.8578C51.8577 178.635 50.7184 177.532 49.3131 177.532Z" fill="#FD9317"/>
<path d="M52 165.523H48.4282V167.448C48.4282 169.639 49.9354 171.488 52 172.076V165.523Z" fill="#323567"/>
<path d="M52 144.048C51.3802 143.398 50.8355 142.848 50.4 142.425C48.8164 136.522 45.9608 135.008 45.9608 135.008L38.1038 139.574C38.1038 139.574 22.7617 165.175 43.7688 168.475C46.672 168.931 49.4709 168.858 52 168.514V144.048Z" fill="#323567"/>
<path d="M51.9998 142.417L51.4998 141.5C47.8368 135.075 44.9607 134.008 44.9607 134.008L38.1037 139.574C38.1037 139.574 34.9406 144.853 33.4534 150.925C33.4079 151.11 33.6248 151.243 33.7714 151.121L37.175 148.272C37.3625 148.115 37.6358 148.117 37.8214 148.276L40.8053 150.833C40.9041 150.918 41.0562 150.887 41.1144 150.771L42.789 147.422C42.9074 147.185 43.1898 147.081 43.4331 147.186L46.316 148.421C46.4175 148.465 46.5351 148.418 46.5786 148.316L47.8228 145.413C47.9234 145.178 48.1851 145.057 48.4294 145.132L51.9998 146.231V142.417Z" fill="#FDAA49"/>
<path d="M81.4262 145.619C81.9681 145.734 82.3351 145.048 81.8702 144.747C79.172 142.997 75.9277 141.976 72.437 141.976C69.7694 141.976 67.2458 142.573 64.9995 143.634C68.1124 140.201 72.677 138.033 77.7648 138.033C79.0216 138.033 80.2466 138.165 81.4256 138.416C81.9675 138.531 82.3346 137.845 81.8697 137.544C79.1715 135.794 75.9274 134.773 72.4369 134.773C63.0562 134.773 55.4517 142.141 55.4517 151.229C55.4517 152.465 55.4863 162.449 55.462 163.157H63.5843C66.6232 158.7 71.8388 155.758 77.7648 155.758C79.0216 155.758 80.2466 155.891 81.4256 156.141C81.9675 156.257 82.3346 155.57 81.8697 155.269C79.1715 153.52 75.9274 152.499 72.4369 152.499C71.2904 152.499 70.1708 152.61 69.0881 152.819C71.6276 151.354 74.5944 150.512 77.7647 150.512C79.0215 150.512 80.2465 150.644 81.4255 150.895C81.9674 151.01 82.3344 150.324 81.8696 150.023C79.1714 148.273 75.9273 147.253 72.4367 147.253C71.2625 147.253 70.1161 147.368 69.009 147.588C71.5658 146.095 74.5615 145.235 77.7647 145.235C79.0218 145.235 80.247 145.368 81.4262 145.619Z" fill="#25BB71"/>
<path d="M36.2441 135.961C36.2445 135.957 36.2446 135.956 36.2453 135.953C36.2666 135.848 36.8781 133.105 42.6181 132.154C45.1241 131.739 46.962 129.643 46.962 127.18C46.962 125.424 45.4925 124 43.6798 124H43.1966C41.7817 124 40.5265 124.878 40.0813 126.179C40.0789 126.186 40.0706 126.189 40.0644 126.185C39.2548 125.66 38.2273 125.566 37.3302 125.933C35.7636 126.574 35.1024 128.379 35.9015 129.834L35.9648 129.949C36.0238 130.056 35.9752 130.193 35.8641 130.244C34.9783 130.659 31.7292 132.542 33.8523 137.109C33.8847 137.178 33.9564 137.225 34.0333 137.225H35.9018C36.0021 137.225 36.0869 137.151 36.1001 137.052L36.2441 135.961Z" fill="#F3263D"/>
<path d="M46.495 137.326C46.495 134.32 43.9794 131.883 40.8764 131.883C37.7734 131.883 34.2578 134.32 34.2578 137.326L35 142.651C35 144.791 37.0483 147.525 39.2571 147.525C41.6304 147.525 43.4815 145.535 43.2347 143.248L43.1336 142.311C45.1125 141.469 46.495 139.555 46.495 137.326Z" fill="#FF5247"/>
<path d="M38.3382 137.059C39.2191 137.059 39.9332 136.368 39.9332 135.514C39.9332 134.661 39.2191 133.969 38.3382 133.969C37.4573 133.969 36.7432 134.661 36.7432 135.514C36.7432 136.368 37.4573 137.059 38.3382 137.059Z" fill="#1E203E"/>
<path d="M30.3804 140.602C30.3804 140.602 31.3583 143.029 34.9244 143.418C35.2084 143.449 35.4495 143.22 35.4495 142.934V140.602H30.3804Z" fill="#FEE048"/>
<path d="M47.6828 151.602C45.9422 153.997 45.2565 157.926 46.9388 160.903C50.3174 166.882 59.017 170.302 67.7162 167.019C68.274 166.809 68.8442 166.577 69.4268 166.321C69.7795 166.167 69.822 165.688 69.5065 165.467L67.4511 164.029C67.4511 164.029 70.2732 163.51 71.5802 160.881C71.7388 160.562 71.479 160.211 71.1229 160.223C69.8377 160.265 67.2903 160.283 66.7378 159.787C66.7378 159.787 68.8563 159.626 70.6937 158.001C70.9321 157.79 70.8859 157.417 70.6144 157.251C69.0367 156.285 64.1747 153.302 59.8271 150.544C56.0154 148.125 50.2107 148.124 47.6828 151.602Z" fill="#1E203E"/>
<path d="M52 149.023C50.258 149.363 48.7034 150.2 47.6828 151.605C45.9422 154 45.2565 157.928 46.9388 160.906C48.0838 162.932 49.8399 164.664 52 165.941V149.023Z" fill="#282A52"/>
<path d="M35.4498 138.942C35.4498 137.913 34.6601 137.054 33.6426 137.208C32.0778 137.445 29.9248 138.215 29 140.595H35.4498V138.942Z" fill="#FED601"/>
<defs>
<filter id="filter0_dd_34088_73863" x="6" y="9" width="100" height="100" filterUnits="userSpaceOnUse" color-interpolation-filters="sRGB">
<feFlood flood-opacity="0" result="BackgroundImageFix"/>
<feColorMatrix in="SourceAlpha" type="matrix" values="0 0 0 0 0 0 0 0 0 0 0 0 0 0 0 0 0 0 127 0" result="hardAlpha"/>
<feOffset dy="3"/>
<feGaussianBlur stdDeviation="5"/>
<feColorMatrix type="matrix" values="0 0 0 0 0.516667 0 0 0 0 0.578358 0 0 0 0 0.775 0 0 0 0.12 0"/>
<feBlend mode="normal" in2="BackgroundImageFix" result="effect1_dropShadow_34088_73863"/>
<feColorMatrix in="SourceAlpha" type="matrix" values="0 0 0 0 0 0 0 0 0 0 0 0 0 0 0 0 0 0 127 0" result="hardAlpha"/>
<feOffset dy="1"/>
<feGaussianBlur stdDeviation="3"/>
<feColorMatrix type="matrix" values="0 0 0 0 0.709809 0 0 0 0 0.788943 0 0 0 0 0.920833 0 0 0 0.15 0"/>
<feBlend mode="normal" in2="effect1_dropShadow_34088_73863" result="effect2_dropShadow_34088_73863"/>
<feBlend mode="normal" in="SourceGraphic" in2="effect2_dropShadow_34088_73863" result="shape"/>
</filter>
</defs>
</svg>
