<svg width="112" height="208" viewBox="0 0 112 208" fill="none" xmlns="http://www.w3.org/2000/svg">
<rect x="0.5" y="0.5" width="111" height="207" rx="4.5" stroke="#9747FF" stroke-dasharray="10 5"/>
<g filter="url(#filter0_dd_7390_32591)">
<rect x="16" y="16" width="80" height="80" rx="8" fill="white"/>
</g>
<path d="M75.2164 34.9176V66.1694C75.2164 66.5482 75.0857 66.9161 74.8452 67.2104L64.3128 80.1233C64.001 80.5065 63.5321 80.7294 63.0369 80.7294H41.836C40.0198 80.7294 38.5419 79.2515 38.5419 77.4353V34.9176C38.5419 32.9159 36.9225 31.2941 34.9183 31.2941C34.0091 31.2941 33.2713 30.5562 33.2713 29.6471C33.2713 28.7379 32.3621 28 33.2713 28H68.2987C72.1133 28 75.2164 31.1031 75.2164 34.9176Z" fill="#157DF5"/>
<path d="M75.2153 34.9176V66.1694C75.2153 66.5482 75.0846 66.9161 74.8441 67.2104L64.3117 80.1233C63.9999 80.5065 63.531 80.7294 63.0358 80.7294H56.1094V28H68.2976C72.1122 28 75.2153 31.1031 75.2153 34.9176Z" fill="#0965CD"/>
<path d="M47.0938 37C44.6825 37 42.7192 38.9635 42.7192 41.375C42.7192 43.7865 44.6825 45.75 47.0938 45.75H48.6249C49.1078 45.75 49.4998 46.142 49.4998 46.625C49.4998 47.108 49.1078 47.5 48.6249 47.5H46.7144C46.116 47.5 45.624 47.0554 45.4875 46.9189C44.8033 46.2347 43.6973 46.2347 43.0131 46.9189C42.329 47.6032 42.329 48.7093 43.0131 49.3936C43.4961 49.8766 44.8229 51 46.7144 51H48.6249C51.0361 51 52.9994 49.0365 52.9994 46.625C52.9994 44.2135 51.0361 42.25 48.6249 42.25H47.0938C46.6108 42.25 46.2189 41.858 46.2189 41.375C46.2189 40.892 46.6108 40.5 47.0938 40.5H48.6249C49.1568 40.5 49.575 40.8623 49.575 40.8623C50.2592 41.5448 51.3652 41.5466 52.0493 40.8623C52.7335 40.1781 52.7335 39.0719 52.0493 38.3877C51.9076 38.2459 50.6039 37 48.6249 37H47.0938Z" fill="white"/>
<path fill-rule="evenodd" clip-rule="evenodd" d="M65.5 47.72C66.5461 47.72 68.22 46.5471 68.22 44C68.22 41.4529 66.5461 40.28 65.5 40.28C64.4539 40.28 62.78 41.4529 62.78 44C62.78 46.5471 64.4539 47.72 65.5 47.72ZM65.5 51C68.8137 51 71.5 47.866 71.5 44C71.5 40.134 68.8137 37 65.5 37C62.1863 37 59.5 40.134 59.5 44C59.5 47.866 62.1863 51 65.5 51Z" fill="#E2EFFE"/>
<path d="M38.5412 45.349H31.2941C29.4748 45.349 28 43.8742 28 42.0549V33.2706C28 30.3597 30.3597 28 33.2706 28C36.1734 28 38.5412 30.3517 38.5412 33.2706V45.349Z" fill="#0965CD"/>
<path d="M53.5252 65.9908C53.5252 66.9 52.7873 67.6379 51.8782 67.6379H47.2154C46.3062 67.6379 45.5684 66.9 45.5684 65.9908C45.5684 65.0816 46.3062 64.3438 47.2154 64.3438H51.8782C52.7873 64.3438 53.5252 65.0816 53.5252 65.9908Z" fill="white"/>
<path d="M53.5252 72.5885C53.5252 73.4976 52.7873 74.2355 51.8782 74.2355H47.2154C46.3062 74.2355 45.5684 73.4976 45.5684 72.5885C45.5684 71.6793 46.3062 70.9414 47.2154 70.9414H51.8782C52.7873 70.9414 53.5252 71.6793 53.5252 72.5885Z" fill="white"/>
<path d="M53.5252 59.3932C53.5252 60.3023 52.7873 61.0402 51.8782 61.0402H47.2154C46.3062 61.0402 45.5684 60.3023 45.5684 59.3932C45.5684 58.484 46.3062 57.7461 47.2154 57.7461H51.8782C52.7873 57.7461 53.5252 58.484 53.5252 59.3932Z" fill="#40D98D"/>
<path d="M76.497 60C76.2434 60 76.0379 60.2056 76.0379 60.4592C76.0379 60.7127 75.8323 60.9183 75.5787 60.9183H68.8698C68.3626 60.9183 67.9515 60.5072 67.9515 60H61.6726C60.7488 60 60 60.7489 60 61.6726V81.6C60 82.9255 61.0745 84 62.4 84H81.5989C82.9244 84 83.9989 82.9255 83.9989 81.6V62.2769C83.9989 61.0194 82.9796 60.0001 81.7222 60.0001L76.497 60Z" fill="#E2EFFE"/>
<path d="M76.0389 60.9184H72.0038V84H81.6001C82.9256 84 84.0001 82.9255 84.0001 81.6V61.5158C84.0001 60.6787 83.3215 60 82.4844 60H76.0389V60.9184Z" fill="#B6D7FC"/>
<path d="M75.307 67.303H68.6913C68.2826 67.303 67.9512 66.9716 67.9512 66.5628V60H76.0472V66.5628C76.0471 66.9716 75.7157 67.303 75.307 67.303Z" fill="#40D98D"/>
<path d="M72.0038 67.303H75.2624C75.6966 67.303 76.0486 66.9509 76.0486 66.5167V60H72.0038V67.303Z" fill="#25BB71"/>
<path d="M75.2164 130.918V162.169C75.2164 162.548 75.0857 162.916 74.8452 163.21L64.3128 176.123C64.001 176.507 63.5321 176.729 63.0369 176.729H41.836C40.0198 176.729 38.5419 175.251 38.5419 173.435V130.918C38.5419 128.916 36.9225 127.294 34.9183 127.294C34.0091 127.294 33.2713 126.556 33.2713 125.647C33.2713 124.738 32.3621 124 33.2713 124H68.2987C72.1133 124 75.2164 127.103 75.2164 130.918Z" fill="#157DF5"/>
<path d="M75.2153 130.918V162.169C75.2153 162.548 75.0846 162.916 74.8441 163.21L64.3117 176.123C63.9999 176.507 63.531 176.729 63.0358 176.729H56.1094V124H68.2976C72.1122 124 75.2153 127.103 75.2153 130.918Z" fill="#0965CD"/>
<path d="M47.0938 133C44.6825 133 42.7192 134.963 42.7192 137.375C42.7192 139.787 44.6825 141.75 47.0938 141.75H48.6249C49.1078 141.75 49.4998 142.142 49.4998 142.625C49.4998 143.108 49.1078 143.5 48.6249 143.5H46.7144C46.116 143.5 45.624 143.055 45.4875 142.919C44.8033 142.235 43.6973 142.235 43.0131 142.919C42.329 143.603 42.329 144.709 43.0131 145.394C43.4961 145.877 44.8229 147 46.7144 147H48.6249C51.0361 147 52.9994 145.037 52.9994 142.625C52.9994 140.213 51.0361 138.25 48.6249 138.25H47.0938C46.6108 138.25 46.2189 137.858 46.2189 137.375C46.2189 136.892 46.6108 136.5 47.0938 136.5H48.6249C49.1568 136.5 49.575 136.862 49.575 136.862C50.2592 137.545 51.3652 137.547 52.0493 136.862C52.7335 136.178 52.7335 135.072 52.0493 134.388C51.9076 134.246 50.6039 133 48.6249 133H47.0938Z" fill="white"/>
<path fill-rule="evenodd" clip-rule="evenodd" d="M65.5 143.72C66.5461 143.72 68.22 142.547 68.22 140C68.22 137.453 66.5461 136.28 65.5 136.28C64.4539 136.28 62.78 137.453 62.78 140C62.78 142.547 64.4539 143.72 65.5 143.72ZM65.5 147C68.8137 147 71.5 143.866 71.5 140C71.5 136.134 68.8137 133 65.5 133C62.1863 133 59.5 136.134 59.5 140C59.5 143.866 62.1863 147 65.5 147Z" fill="#E2EFFE"/>
<path d="M38.5412 141.349H31.2941C29.4748 141.349 28 139.874 28 138.055V129.271C28 126.36 30.3597 124 33.2706 124C36.1734 124 38.5412 126.352 38.5412 129.271V141.349Z" fill="#0965CD"/>
<path d="M53.5252 161.991C53.5252 162.9 52.7873 163.638 51.8782 163.638H47.2154C46.3062 163.638 45.5684 162.9 45.5684 161.991C45.5684 161.082 46.3062 160.344 47.2154 160.344H51.8782C52.7873 160.344 53.5252 161.082 53.5252 161.991Z" fill="white"/>
<path d="M53.5252 168.588C53.5252 169.498 52.7873 170.236 51.8782 170.236H47.2154C46.3062 170.236 45.5684 169.498 45.5684 168.588C45.5684 167.679 46.3062 166.941 47.2154 166.941H51.8782C52.7873 166.941 53.5252 167.679 53.5252 168.588Z" fill="white"/>
<path d="M53.5252 155.393C53.5252 156.302 52.7873 157.04 51.8782 157.04H47.2154C46.3062 157.04 45.5684 156.302 45.5684 155.393C45.5684 154.484 46.3062 153.746 47.2154 153.746H51.8782C52.7873 153.746 53.5252 154.484 53.5252 155.393Z" fill="#40D98D"/>
<path d="M76.497 156C76.2434 156 76.0379 156.206 76.0379 156.459C76.0379 156.713 75.8323 156.918 75.5787 156.918H68.8698C68.3626 156.918 67.9515 156.507 67.9515 156H61.6726C60.7488 156 60 156.749 60 157.673V177.6C60 178.925 61.0745 180 62.4 180H81.5989C82.9244 180 83.9989 178.925 83.9989 177.6V158.277C83.9989 157.019 82.9796 156 81.7222 156L76.497 156Z" fill="#E2EFFE"/>
<path d="M76.0389 156.918H72.0038V180H81.6001C82.9256 180 84.0001 178.925 84.0001 177.6V157.516C84.0001 156.679 83.3215 156 82.4844 156H76.0389V156.918Z" fill="#B6D7FC"/>
<path d="M75.307 163.303H68.6913C68.2826 163.303 67.9512 162.972 67.9512 162.563V156H76.0472V162.563C76.0471 162.972 75.7157 163.303 75.307 163.303Z" fill="#40D98D"/>
<path d="M72.0038 163.303H75.2624C75.6966 163.303 76.0486 162.951 76.0486 162.517V156H72.0038V163.303Z" fill="#25BB71"/>
<defs>
<filter id="filter0_dd_7390_32591" x="6" y="9" width="100" height="100" filterUnits="userSpaceOnUse" color-interpolation-filters="sRGB">
<feFlood flood-opacity="0" result="BackgroundImageFix"/>
<feColorMatrix in="SourceAlpha" type="matrix" values="0 0 0 0 0 0 0 0 0 0 0 0 0 0 0 0 0 0 127 0" result="hardAlpha"/>
<feOffset dy="3"/>
<feGaussianBlur stdDeviation="5"/>
<feColorMatrix type="matrix" values="0 0 0 0 0.516667 0 0 0 0 0.578358 0 0 0 0 0.775 0 0 0 0.12 0"/>
<feBlend mode="normal" in2="BackgroundImageFix" result="effect1_dropShadow_7390_32591"/>
<feColorMatrix in="SourceAlpha" type="matrix" values="0 0 0 0 0 0 0 0 0 0 0 0 0 0 0 0 0 0 127 0" result="hardAlpha"/>
<feOffset dy="1"/>
<feGaussianBlur stdDeviation="3"/>
<feColorMatrix type="matrix" values="0 0 0 0 0.709809 0 0 0 0 0.788943 0 0 0 0 0.920833 0 0 0 0.15 0"/>
<feBlend mode="normal" in2="effect1_dropShadow_7390_32591" result="effect2_dropShadow_7390_32591"/>
<feBlend mode="normal" in="SourceGraphic" in2="effect2_dropShadow_7390_32591" result="shape"/>
</filter>
</defs>
</svg>
