<svg width="112" height="208" viewBox="0 0 112 208" fill="none" xmlns="http://www.w3.org/2000/svg">
<rect x="0.5" y="0.5" width="111" height="207" rx="4.5" stroke="#9747FF" stroke-dasharray="10 5"/>
<g filter="url(#filter0_dd_25180_11325)">
<rect x="16" y="16" width="80" height="80" rx="8" fill="white"/>
</g>
<path d="M44.9995 41.5806H36.3369C33.501 41.5806 31.2129 39.2601 31.2129 36.399C31.2129 34.2574 32.4749 32.3471 34.4281 31.5286C36.3822 30.7103 38.6104 31.1587 40.1055 32.6706L46.1467 38.7799C46.6107 39.2491 46.7494 39.9548 46.4984 40.5678C46.2473 41.1809 45.6557 41.5806 44.9995 41.5806Z" fill="#F3263D"/>
<path d="M53.6637 41.5806H45.001C44.3448 41.5806 43.7533 41.1808 43.5022 40.5677C43.2511 39.9547 43.3899 39.249 43.8539 38.7798L49.8951 32.6705C51.3902 31.1587 53.6187 30.7104 55.5721 31.5284C57.5257 32.347 58.7876 34.2575 58.7876 36.3954C58.7877 39.2655 56.4953 41.5806 53.6637 41.5806Z" fill="#F54B5E"/>
<path d="M62.3774 80.2425H27.6224C26.7264 80.2425 26 79.5079 26 78.6019V57.5144C26 46.92 34.5233 38.3008 44.9999 38.3008C55.4765 38.3008 63.9998 46.92 63.9998 57.5144V78.6019C63.9998 79.5079 63.2734 80.2425 62.3774 80.2425Z" fill="#F0F7FE"/>
<path d="M63.9991 78.6019V57.5144C63.9991 46.92 55.4757 38.3008 44.9992 38.3008C44.9985 38.3008 44.998 38.3008 44.9973 38.3008V80.2424H62.3767C63.2727 80.2425 63.9991 79.5079 63.9991 78.6019Z" fill="#E2EFFE"/>
<path d="M54.8241 70.4739L47.829 63.3843C47.5246 63.0757 47.1113 62.9023 46.6804 62.9023C46.6799 62.9023 46.6782 62.9023 46.6787 62.9023H43.2291C43.2296 62.9023 43.228 62.9023 43.2274 62.9023C42.7965 62.9023 42.3832 63.0757 42.0788 63.3843L35.0834 70.474C33.1694 72.4144 32.6036 75.303 33.6422 77.833C34.6807 80.364 37.1022 81.9992 39.8135 81.9992C41.8741 81.9992 43.7147 81.0693 44.9539 79.6041C46.2011 81.0752 48.0517 81.9992 50.0959 81.9992C52.8055 81.9992 55.227 80.3638 56.2653 77.8332C57.3041 75.303 56.7383 72.4144 54.8241 70.4739Z" fill="#F54B5E"/>
<path d="M50.095 81.9992C52.8046 81.9992 55.2262 80.3638 56.2645 77.8332C57.3033 75.303 56.7375 72.4144 54.8233 70.4739L47.8282 63.3843C47.5238 63.0757 47.1105 62.9023 46.6796 62.9023C46.6791 62.9023 46.6773 62.9023 46.6779 62.9023C46.6787 62.9023 45.8452 62.9023 44.9973 62.9023V79.6536C46.2438 81.0953 48.0743 81.9992 50.095 81.9992Z" fill="#F3263D"/>
<path d="M38.0482 52.125C38.9442 52.125 39.6705 51.3905 39.6705 50.4844C39.6705 49.5783 38.9442 48.8438 38.0482 48.8438C37.1521 48.8438 36.4258 49.5783 36.4258 50.4844C36.4258 51.3905 37.1521 52.125 38.0482 52.125Z" fill="#282A52"/>
<path d="M51.9503 52.125C52.8463 52.125 53.5726 51.3905 53.5726 50.4844C53.5726 49.5783 52.8463 48.8438 51.9503 48.8438C51.0542 48.8438 50.3279 49.5783 50.3279 50.4844C50.3279 51.3905 51.0542 52.125 51.9503 52.125Z" fill="#1E203E"/>
<path d="M44.9532 67.9414C44.9514 67.9414 44.9496 67.9414 44.9478 67.9414C44.5174 67.9399 44.1055 67.7657 43.8022 67.4569L36.8972 60.4277C36.2672 59.7865 36.2688 58.7507 36.901 58.1114L40.1654 54.8102C41.4582 53.5042 43.1746 52.7852 44.9993 52.7852C46.8239 52.7852 48.5404 53.5042 49.8327 54.8099L53.0975 58.1115C53.4024 58.4198 53.5734 58.8383 53.5728 59.2743C53.5721 59.7102 53.3997 60.1282 53.0938 60.4355L46.0968 67.4647C45.7926 67.77 45.3815 67.9414 44.9532 67.9414Z" fill="#FEE048"/>
<path d="M53.0935 60.4355C53.3995 60.1282 53.5718 59.7103 53.5726 59.2743C53.5733 58.8382 53.4023 58.4198 53.0973 58.1115L49.8324 54.8099C48.5403 53.5042 46.8238 52.7852 44.9992 52.7852C44.9985 52.7852 44.998 52.7852 44.9973 52.7852V67.9391C45.4095 67.9277 45.803 67.7594 46.0964 67.4646L53.0935 60.4355Z" fill="#FED601"/>
<path d="M44.9992 41.5823C44.584 41.5823 44.1688 41.4222 43.8521 41.1017L40.2879 37.4976C38.3767 35.565 37.8099 32.6838 38.8439 30.1578C39.8782 27.6319 42.2936 26 44.9974 26C47.7047 26 50.1201 27.6319 51.1544 30.1576C52.1886 32.6838 51.6218 35.5648 49.7105 37.4975L46.1463 41.1017C45.8296 41.4221 45.4144 41.5823 44.9992 41.5823Z" fill="#F54B5E"/>
<path d="M46.1463 41.1017L49.7104 37.4975C51.6217 35.5648 52.1885 32.6838 51.1544 30.1576C50.1201 27.6319 47.7047 26 44.9973 26V41.5822C44.998 41.5822 44.9985 41.5823 44.9992 41.5823C45.4144 41.5823 45.8296 41.4221 46.1463 41.1017Z" fill="#F3263D"/>
<g clip-path="url(#clip0_25180_11325)">
<path d="M60.4118 59L81.5881 59C81.8139 59 82.0274 59.0533 82.2169 59.1479C82.6807 59.3796 83 59.8592 83 60.4118V72.553C83 73.3313 82.3666 73.9648 81.5882 73.9648H77.7049C77.5702 75.8945 77.0045 77.1559 76.2894 78.5764H76.3176C76.3237 78.5764 76.3297 78.5764 76.3358 78.5765C76.4267 78.5777 76.5156 78.5875 76.6017 78.6051C77.2444 78.737 77.7294 79.3071 77.7294 79.9881V81.5881C77.7294 82.2692 77.2444 82.8393 76.6017 82.9712C76.5099 82.99 76.4149 82.9999 76.3176 82.9999C76.3176 82.9999 76.3177 82.9999 76.3176 82.9999H64.9293C64.151 82.9999 63.5176 82.3665 63.5176 81.5881V79.9881C63.5176 79.2098 64.151 78.5764 64.9293 78.5764H65.1433C64.9898 78.0893 64.8507 77.6505 64.7246 77.2528C64.2174 75.6535 63.9205 74.7174 63.7477 73.9648H60.4118C59.6334 73.9648 59 73.3313 59 72.553V60.4118C59 59.6335 59.6334 59 60.4118 59Z" fill="#0965CD"/>
<path fill-rule="evenodd" clip-rule="evenodd" d="M77.4668 79.169C77.6321 79.4002 77.7294 79.683 77.7294 79.9881V81.5881C77.7294 82.2692 77.2444 82.8393 76.6017 82.9712C76.5099 82.99 76.4149 82.9999 76.3176 82.9999H64.9293C64.151 82.9999 63.5176 82.3665 63.5176 81.5881V79.9881C63.5176 79.5739 63.697 79.2007 63.9822 78.9422C64.2329 78.715 64.5653 78.5764 64.9293 78.5764H65.1433C65.0686 78.3394 64.9974 78.1139 64.9293 77.899C64.8575 77.6721 64.7893 77.4571 64.7246 77.2528L64.7245 77.2527C64.5236 76.6189 64.3556 76.0893 64.2153 75.634C64.0016 74.9403 63.852 74.4191 63.7477 73.9648H60.4118C59.6334 73.9648 59 73.3313 59 72.553V60.4118C59 59.6335 59.6334 59 60.4118 59H81.5881C81.8139 59 82.0274 59.0533 82.2169 59.1479C82.6807 59.3796 83 59.8592 83 60.4118V72.553C83 73.3313 82.3666 73.9648 81.5882 73.9648H77.7049C77.6596 74.615 77.5652 75.1894 77.4327 75.7195C77.282 76.3225 77.0819 76.8684 76.8483 77.4036C76.8482 77.4037 76.8482 77.4037 76.8482 77.4038C76.6913 77.7632 76.5193 78.1178 76.337 78.4817C76.337 78.4817 76.337 78.4817 76.337 78.4817C76.3305 78.4946 76.3241 78.5075 76.3176 78.5204C76.3082 78.539 76.2988 78.5577 76.2894 78.5764H76.3176L76.3358 78.5765C76.4267 78.5777 76.5156 78.5875 76.6017 78.6051C76.9565 78.6779 77.2632 78.8842 77.4668 79.169ZM80.0066 77.5684C80.4633 78.2624 80.7294 79.0935 80.7294 79.9881V81.5881C80.7294 83.7245 79.2123 85.4981 77.2046 85.91C76.9159 85.9692 76.6189 85.9999 76.3178 85.9999L76.3176 83.0475L76.3176 85.9999H64.9293C62.4941 85.9999 60.5176 84.0234 60.5176 81.5881V79.9881C60.5176 78.9105 60.9047 77.9226 61.5473 77.1561C61.5269 77.0914 61.5069 77.0276 61.4872 76.9648H60.4118C57.9766 76.9648 56 74.9882 56 72.553V60.4118C56 57.9767 57.9764 56 60.4118 56H81.5881C82.2908 56 82.9622 56.1667 83.5574 56.4641M80.0066 77.5684C80.0751 77.3729 80.1403 77.1719 80.2017 76.9648H81.5882C84.0234 76.9648 86 74.9882 86 72.553V60.4118C86 58.6755 84.9955 57.1825 83.5576 56.4642" fill="white"/>
<path d="M60.4118 59.0001L81.5882 59.0001C82.3666 59.0001 83 59.6335 83 60.4119L83 72.5531C83 73.3314 82.3666 73.9648 81.5882 73.9648L67.9882 73.9648C67.5986 73.9648 67.2824 73.6486 67.2824 73.259L64.9294 73.259C64.9294 73.6486 64.6132 73.9648 64.2235 73.9648L60.4118 73.9648C59.6334 73.9648 59 73.3314 59 72.5531L59 60.4119C59 59.6335 59.6334 59.0001 60.4118 59.0001Z" fill="#40D98D"/>
<path d="M71 59.0001L81.5882 59.0001C82.3666 59.0001 83 59.6335 83 60.4119L83 72.5531C83 73.3314 82.3666 73.9648 81.5882 73.9648L71 73.9648L71 59.0001Z" fill="#25BB71"/>
<path d="M64.2235 73.9648L60.4118 73.9648C59.6334 73.9648 59 73.3314 59 72.5531L59 68.0223L59.7059 68.0223C62.6056 68.0223 64.9581 70.3634 64.976 73.259L64.9775 73.259C64.9775 73.6486 65.375 73.9648 64.2235 73.9648Z" fill="#09C369"/>
<path d="M82.294 67.9884L82.9999 67.9884L82.9999 72.5531C82.9999 73.3314 82.3665 73.9648 81.5881 73.9648L77.0234 73.9648L77.0234 73.259C77.0234 70.3479 79.383 67.9884 82.294 67.9884Z" fill="#08A559"/>
<path d="M60.4118 59.0001L64.9765 59.0001L64.9765 59.706C64.9765 62.617 62.6169 64.9766 59.7059 64.9766L59 64.9766L59 60.4119C59 59.6335 59.6334 59.0001 60.4118 59.0001Z" fill="#09C369"/>
<path d="M77.0234 59.706L77.0234 59.0001L81.5881 59.0001C82.3665 59.0001 82.9999 59.6335 82.9999 60.4119L82.9999 64.9766L82.294 64.9766C79.383 64.9766 77.0234 62.617 77.0234 59.706Z" fill="#08A559"/>
<path d="M75.4705 66.4825C75.4705 64.0135 73.4689 62.0119 70.9999 62.0119C68.5308 62.0119 66.5293 64.0135 66.5293 66.4825C66.5293 68.9516 68.5308 70.9531 70.9999 70.9531C73.4689 70.9531 75.4705 68.9516 75.4705 66.4825Z" fill="#09C369"/>
<path d="M71 62.0119C73.4649 62.0119 75.4706 64.0176 75.4706 66.4825C75.4706 68.9475 73.4649 70.9531 71 70.9531L71 62.0119Z" fill="#08A559"/>
<path d="M69.5 66.4824C69.5 67.3094 70.1729 67.9824 70.9998 67.9824C71.8267 67.9824 72.4996 67.3094 72.4996 66.4824C72.4996 65.6554 71.8267 64.9824 70.9998 64.9824C70.1729 64.9824 69.5 65.6554 69.5 66.4824Z" fill="#40D98D"/>
<path d="M71 64.9824C71.8269 64.9824 72.4998 65.6554 72.4998 66.4824C72.4998 67.3094 71.8269 67.9824 71 67.9824L71 64.9824Z" fill="#25BB71"/>
<path d="M66.1047 66.953C67.5158 66.953 68.6929 68.0637 68.6929 69.4786L68.9743 73.3106C69.0011 73.6796 69.3084 73.9648 69.6783 73.9648L77.7037 73.9648C77.5379 76.341 76.7184 77.7038 75.7715 79.5982C75.652 79.8372 75.4072 79.9883 75.14 79.9883L66.1047 79.9883C65.796 79.9883 65.523 79.7878 65.4308 79.4928C63.3221 72.7435 63.5164 74.0302 63.5164 69.4786C63.5164 68.0862 64.6774 66.953 66.1047 66.953Z" fill="#FFDECC"/>
<path d="M71 73.9648L77.7049 73.9648C77.5391 76.341 76.7196 77.7038 75.7727 79.5982C75.6532 79.8372 75.4085 79.9883 75.1412 79.9883L71 79.9883L71 73.9648Z" fill="#FFCFB5"/>
<path d="M64.9293 78.5765L76.3176 78.5765C77.0959 78.5765 77.7293 79.2099 77.7293 79.9882L77.7293 81.5882C77.7293 82.3666 77.0959 83 76.3176 83L64.9293 83C64.151 83 63.5176 82.3666 63.5176 81.5882L63.5176 79.9882C63.5176 79.2099 64.151 78.5765 64.9293 78.5765Z" fill="#157DF5"/>
<path d="M71 78.5765L76.3176 78.5765C77.096 78.5765 77.7294 79.2099 77.7294 79.9882L77.7294 81.5882C77.7294 82.3666 77.096 83 76.3176 83L71 83L71 78.5765Z" fill="#0965CD"/>
</g>
<path d="M44.9995 137.581H36.3369C33.501 137.581 31.2129 135.26 31.2129 132.399C31.2129 130.257 32.4749 128.347 34.4281 127.529C36.3822 126.71 38.6104 127.159 40.1055 128.671L46.1467 134.78C46.6107 135.249 46.7494 135.955 46.4984 136.568C46.2473 137.181 45.6557 137.581 44.9995 137.581Z" fill="#F3263D"/>
<path d="M53.6637 137.581H45.001C44.3448 137.581 43.7533 137.181 43.5022 136.568C43.2511 135.955 43.3899 135.249 43.8539 134.78L49.8951 128.671C51.3902 127.159 53.6187 126.71 55.5721 127.528C57.5257 128.347 58.7876 130.257 58.7876 132.395C58.7877 135.266 56.4953 137.581 53.6637 137.581Z" fill="#F54B5E"/>
<path d="M62.3774 176.242H27.6224C26.7264 176.242 26 175.508 26 174.602V153.514C26 142.92 34.5233 134.301 44.9999 134.301C55.4765 134.301 63.9998 142.92 63.9998 153.514V174.602C63.9998 175.508 63.2734 176.242 62.3774 176.242Z" fill="#F0F7FE"/>
<path d="M63.9991 174.602V153.514C63.9991 142.92 55.4757 134.301 44.9992 134.301C44.9985 134.301 44.998 134.301 44.9973 134.301V176.242H62.3767C63.2727 176.242 63.9991 175.508 63.9991 174.602Z" fill="#E2EFFE"/>
<path d="M54.8241 166.474L47.829 159.384C47.5246 159.076 47.1113 158.902 46.6804 158.902C46.6799 158.902 46.6782 158.902 46.6787 158.902H43.2291C43.2296 158.902 43.228 158.902 43.2274 158.902C42.7965 158.902 42.3832 159.076 42.0788 159.384L35.0834 166.474C33.1694 168.414 32.6036 171.303 33.6422 173.833C34.6807 176.364 37.1022 177.999 39.8135 177.999C41.8741 177.999 43.7147 177.069 44.9539 175.604C46.2011 177.075 48.0517 177.999 50.0959 177.999C52.8055 177.999 55.227 176.364 56.2653 173.833C57.3041 171.303 56.7383 168.414 54.8241 166.474Z" fill="#F54B5E"/>
<path d="M50.095 177.999C52.8046 177.999 55.2262 176.364 56.2645 173.833C57.3033 171.303 56.7375 168.414 54.8233 166.474L47.8282 159.384C47.5238 159.076 47.1105 158.902 46.6796 158.902C46.6791 158.902 46.6773 158.902 46.6779 158.902C46.6787 158.902 45.8452 158.902 44.9973 158.902V175.654C46.2438 177.095 48.0743 177.999 50.095 177.999Z" fill="#F3263D"/>
<path d="M38.0482 148.125C38.9442 148.125 39.6705 147.39 39.6705 146.484C39.6705 145.578 38.9442 144.844 38.0482 144.844C37.1521 144.844 36.4258 145.578 36.4258 146.484C36.4258 147.39 37.1521 148.125 38.0482 148.125Z" fill="#282A52"/>
<path d="M51.9503 148.125C52.8463 148.125 53.5726 147.39 53.5726 146.484C53.5726 145.578 52.8463 144.844 51.9503 144.844C51.0542 144.844 50.3279 145.578 50.3279 146.484C50.3279 147.39 51.0542 148.125 51.9503 148.125Z" fill="#1E203E"/>
<path d="M44.9532 163.941C44.9514 163.941 44.9496 163.941 44.9478 163.941C44.5174 163.94 44.1055 163.766 43.8022 163.457L36.8972 156.428C36.2672 155.786 36.2688 154.751 36.901 154.111L40.1654 150.81C41.4582 149.504 43.1746 148.785 44.9993 148.785C46.8239 148.785 48.5404 149.504 49.8327 150.81L53.0975 154.111C53.4024 154.42 53.5734 154.838 53.5728 155.274C53.5721 155.71 53.3997 156.128 53.0938 156.436L46.0968 163.465C45.7926 163.77 45.3815 163.941 44.9532 163.941Z" fill="#FEE048"/>
<path d="M53.0935 156.436C53.3995 156.128 53.5718 155.71 53.5726 155.274C53.5733 154.838 53.4023 154.42 53.0973 154.111L49.8324 150.81C48.5403 149.504 46.8238 148.785 44.9992 148.785C44.9985 148.785 44.998 148.785 44.9973 148.785V163.939C45.4095 163.928 45.803 163.759 46.0964 163.465L53.0935 156.436Z" fill="#FED601"/>
<path d="M44.9992 137.582C44.584 137.582 44.1688 137.422 43.8521 137.102L40.2879 133.498C38.3767 131.565 37.8099 128.684 38.8439 126.158C39.8782 123.632 42.2936 122 44.9974 122C47.7047 122 50.1201 123.632 51.1544 126.158C52.1886 128.684 51.6218 131.565 49.7105 133.498L46.1463 137.102C45.8296 137.422 45.4144 137.582 44.9992 137.582Z" fill="#F54B5E"/>
<path d="M46.1463 137.102L49.7104 133.498C51.6217 131.565 52.1885 128.684 51.1544 126.158C50.1201 123.632 47.7047 122 44.9973 122V137.582C44.998 137.582 44.9985 137.582 44.9992 137.582C45.4144 137.582 45.8296 137.422 46.1463 137.102Z" fill="#F3263D"/>
<g clip-path="url(#clip1_25180_11325)">
<path d="M60.4118 155L81.5881 155C81.8139 155 82.0274 155.053 82.2169 155.148C82.6807 155.38 83 155.859 83 156.412V168.553C83 169.331 82.3666 169.965 81.5882 169.965H77.7049C77.5702 171.894 77.0045 173.156 76.2894 174.576H76.3176C76.3237 174.576 76.3297 174.576 76.3358 174.576C76.4267 174.578 76.5156 174.587 76.6017 174.605C77.2444 174.737 77.7294 175.307 77.7294 175.988V177.588C77.7294 178.269 77.2444 178.839 76.6017 178.971C76.5099 178.99 76.4149 179 76.3176 179C76.3176 179 76.3177 179 76.3176 179H64.9293C64.151 179 63.5176 178.366 63.5176 177.588V175.988C63.5176 175.21 64.151 174.576 64.9293 174.576H65.1433C64.9898 174.089 64.8507 173.651 64.7246 173.253C64.2174 171.653 63.9205 170.717 63.7477 169.965H60.4118C59.6334 169.965 59 169.331 59 168.553V156.412C59 155.633 59.6334 155 60.4118 155Z" fill="#0965CD"/>
<path fill-rule="evenodd" clip-rule="evenodd" d="M77.4668 175.169C77.6321 175.4 77.7294 175.683 77.7294 175.988V177.588C77.7294 178.269 77.2444 178.839 76.6017 178.971C76.5099 178.99 76.4149 179 76.3176 179H64.9293C64.151 179 63.5176 178.366 63.5176 177.588V175.988C63.5176 175.574 63.697 175.201 63.9822 174.942C64.2329 174.715 64.5653 174.576 64.9293 174.576H65.1433C65.0686 174.339 64.9974 174.114 64.9293 173.899C64.8575 173.672 64.7893 173.457 64.7246 173.253L64.7245 173.253C64.5236 172.619 64.3556 172.089 64.2153 171.634C64.0016 170.94 63.852 170.419 63.7477 169.965H60.4118C59.6334 169.965 59 169.331 59 168.553V156.412C59 155.633 59.6334 155 60.4118 155H81.5881C81.8139 155 82.0274 155.053 82.2169 155.148C82.6807 155.38 83 155.859 83 156.412V168.553C83 169.331 82.3666 169.965 81.5882 169.965H77.7049C77.6596 170.615 77.5652 171.189 77.4327 171.719C77.282 172.323 77.0819 172.868 76.8483 173.404C76.8482 173.404 76.8482 173.404 76.8482 173.404C76.6913 173.763 76.5193 174.118 76.337 174.482C76.337 174.482 76.337 174.482 76.337 174.482C76.3305 174.495 76.3241 174.507 76.3176 174.52C76.3082 174.539 76.2988 174.558 76.2894 174.576H76.3176L76.3358 174.576C76.4267 174.578 76.5156 174.587 76.6017 174.605C76.9565 174.678 77.2632 174.884 77.4668 175.169ZM80.0066 173.568C80.4633 174.262 80.7294 175.093 80.7294 175.988V177.588C80.7294 179.725 79.2123 181.498 77.2046 181.91C76.9159 181.969 76.6189 182 76.3178 182L76.3176 179.048L76.3176 182H64.9293C62.4941 182 60.5176 180.023 60.5176 177.588V175.988C60.5176 174.91 60.9047 173.923 61.5473 173.156C61.5269 173.091 61.5069 173.028 61.4872 172.965H60.4118C57.9766 172.965 56 170.988 56 168.553V156.412C56 153.977 57.9764 152 60.4118 152H81.5881C82.2908 152 82.9622 152.167 83.5574 152.464M80.0066 173.568C80.0751 173.373 80.1403 173.172 80.2017 172.965H81.5882C84.0234 172.965 86 170.988 86 168.553V156.412C86 154.675 84.9955 153.183 83.5576 152.464" fill="white"/>
<path d="M60.4118 155L81.5882 155C82.3666 155 83 155.634 83 156.412L83 168.553C83 169.331 82.3666 169.965 81.5882 169.965L67.9882 169.965C67.5986 169.965 67.2824 169.649 67.2824 169.259L64.9294 169.259C64.9294 169.649 64.6132 169.965 64.2235 169.965L60.4118 169.965C59.6334 169.965 59 169.331 59 168.553L59 156.412C59 155.634 59.6334 155 60.4118 155Z" fill="#40D98D"/>
<path d="M71 155L81.5882 155C82.3666 155 83 155.634 83 156.412L83 168.553C83 169.331 82.3666 169.965 81.5882 169.965L71 169.965L71 155Z" fill="#25BB71"/>
<path d="M64.2235 169.965L60.4118 169.965C59.6334 169.965 59 169.331 59 168.553L59 164.022L59.7059 164.022C62.6056 164.022 64.9581 166.363 64.976 169.259L64.9775 169.259C64.9775 169.649 65.375 169.965 64.2235 169.965Z" fill="#09C369"/>
<path d="M82.294 163.988L82.9999 163.988L82.9999 168.553C82.9999 169.331 82.3665 169.965 81.5881 169.965L77.0234 169.965L77.0234 169.259C77.0234 166.348 79.383 163.988 82.294 163.988Z" fill="#08A559"/>
<path d="M60.4118 155L64.9765 155L64.9765 155.706C64.9765 158.617 62.6169 160.977 59.7059 160.977L59 160.977L59 156.412C59 155.634 59.6334 155 60.4118 155Z" fill="#09C369"/>
<path d="M77.0234 155.706L77.0234 155L81.5881 155C82.3665 155 82.9999 155.634 82.9999 156.412L82.9999 160.977L82.294 160.977C79.383 160.977 77.0234 158.617 77.0234 155.706Z" fill="#08A559"/>
<path d="M75.4705 162.483C75.4705 160.013 73.4689 158.012 70.9999 158.012C68.5308 158.012 66.5293 160.013 66.5293 162.483C66.5293 164.952 68.5308 166.953 70.9999 166.953C73.4689 166.953 75.4705 164.952 75.4705 162.483Z" fill="#09C369"/>
<path d="M71 158.012C73.4649 158.012 75.4706 160.018 75.4706 162.483C75.4706 164.947 73.4649 166.953 71 166.953L71 158.012Z" fill="#08A559"/>
<path d="M69.5 162.482C69.5 163.309 70.1729 163.982 70.9998 163.982C71.8267 163.982 72.4996 163.309 72.4996 162.482C72.4996 161.655 71.8267 160.982 70.9998 160.982C70.1729 160.982 69.5 161.655 69.5 162.482Z" fill="#40D98D"/>
<path d="M71 160.982C71.8269 160.982 72.4998 161.655 72.4998 162.482C72.4998 163.309 71.8269 163.982 71 163.982L71 160.982Z" fill="#25BB71"/>
<path d="M66.1047 162.953C67.5158 162.953 68.6929 164.064 68.6929 165.479L68.9743 169.311C69.0011 169.68 69.3084 169.965 69.6783 169.965L77.7037 169.965C77.5379 172.341 76.7184 173.704 75.7715 175.598C75.652 175.837 75.4072 175.988 75.14 175.988L66.1047 175.988C65.796 175.988 65.523 175.788 65.4308 175.493C63.3221 168.744 63.5164 170.03 63.5164 165.479C63.5164 164.086 64.6774 162.953 66.1047 162.953Z" fill="#FFDECC"/>
<path d="M71 169.965L77.7049 169.965C77.5391 172.341 76.7196 173.704 75.7727 175.598C75.6532 175.837 75.4085 175.988 75.1412 175.988L71 175.988L71 169.965Z" fill="#FFCFB5"/>
<path d="M64.9293 174.576L76.3176 174.576C77.0959 174.576 77.7293 175.21 77.7293 175.988L77.7293 177.588C77.7293 178.367 77.0959 179 76.3176 179L64.9293 179C64.151 179 63.5176 178.367 63.5176 177.588L63.5176 175.988C63.5176 175.21 64.151 174.576 64.9293 174.576Z" fill="#157DF5"/>
<path d="M71 174.576L76.3176 174.576C77.096 174.576 77.7294 175.21 77.7294 175.988L77.7294 177.588C77.7294 178.367 77.096 179 76.3176 179L71 179L71 174.576Z" fill="#0965CD"/>
</g>
<defs>
<filter id="filter0_dd_25180_11325" x="6" y="9" width="100" height="100" filterUnits="userSpaceOnUse" color-interpolation-filters="sRGB">
<feFlood flood-opacity="0" result="BackgroundImageFix"/>
<feColorMatrix in="SourceAlpha" type="matrix" values="0 0 0 0 0 0 0 0 0 0 0 0 0 0 0 0 0 0 127 0" result="hardAlpha"/>
<feOffset dy="3"/>
<feGaussianBlur stdDeviation="5"/>
<feColorMatrix type="matrix" values="0 0 0 0 0.516667 0 0 0 0 0.578358 0 0 0 0 0.775 0 0 0 0.12 0"/>
<feBlend mode="normal" in2="BackgroundImageFix" result="effect1_dropShadow_25180_11325"/>
<feColorMatrix in="SourceAlpha" type="matrix" values="0 0 0 0 0 0 0 0 0 0 0 0 0 0 0 0 0 0 127 0" result="hardAlpha"/>
<feOffset dy="1"/>
<feGaussianBlur stdDeviation="3"/>
<feColorMatrix type="matrix" values="0 0 0 0 0.709809 0 0 0 0 0.788943 0 0 0 0 0.920833 0 0 0 0.15 0"/>
<feBlend mode="normal" in2="effect1_dropShadow_25180_11325" result="effect2_dropShadow_25180_11325"/>
<feBlend mode="normal" in="SourceGraphic" in2="effect2_dropShadow_25180_11325" result="shape"/>
</filter>
<clipPath id="clip0_25180_11325">
<rect width="30" height="30" fill="white" transform="translate(56 56)"/>
</clipPath>
<clipPath id="clip1_25180_11325">
<rect width="30" height="30" fill="white" transform="translate(56 152)"/>
</clipPath>
</defs>
</svg>
