<svg width="112" height="208" viewBox="0 0 112 208" fill="none" xmlns="http://www.w3.org/2000/svg">
<rect x="0.5" y="0.5" width="111" height="207" rx="4.5" stroke="#9747FF" stroke-dasharray="10 5"/>
<g filter="url(#filter0_dd_11513_74285)">
<rect x="16" y="16" width="80" height="80" rx="8" fill="white"/>
</g>
<rect x="31.0195" y="38" width="20.1284" height="44" fill="#E2EFFE"/>
<rect x="31.0195" y="38" width="10.0642" height="44" fill="#F0F7FE"/>
<path d="M51.1479 38C51.1479 32.4772 46.642 28 41.0837 28C35.5254 28 31.0195 32.4772 31.0195 38H51.1479Z" fill="#157DF5"/>
<path d="M41.084 28V38H51.1482C51.1482 32.4772 46.6423 28 41.084 28Z" fill="#0965CD"/>
<path d="M69.3707 82.4242H37.1758V56.3045L53.273 45.1523L69.3707 56.3045V82.4242Z" fill="#E2EFFE"/>
<path d="M69.252 56.3045L53.1543 45.1523V82.4242H69.252V56.3045Z" fill="#B6D7FC"/>
<path d="M35.5974 60.7398C34.9206 61.2712 33.9367 61.1674 33.3889 60.5069C32.8302 59.833 32.9381 58.8383 33.6287 58.2966L50.8216 44.8099C52.1904 43.7361 54.1269 43.7294 55.5033 44.7936L72.6817 58.0755C73.3741 58.6108 73.491 59.6008 72.9419 60.2789C72.4003 60.9476 71.4141 61.0613 70.731 60.5335L55.504 48.7694C54.1272 47.7057 52.1906 47.7131 50.8222 48.7874L35.5974 60.7398Z" fill="#0965CD"/>
<path d="M45.6758 63.7617H60.6371V82.2875H45.6758V63.7617Z" fill="#F0F7FE"/>
<path d="M53.1543 63.7617H60.635V82.2875H53.1543V63.7617Z" fill="#E2EFFE"/>
<path d="M45.7406 62.4824C44.7038 62.4824 43.8633 63.3229 43.8633 64.3597V83.9872H62.4472V64.3597C62.4472 63.3229 61.6067 62.4824 60.5699 62.4824H45.7406ZM51.125 73.2668L47.0504 78.1661V68.3975L51.125 73.2668ZM48.8133 65.5894H57.5101L53.155 70.8014L48.8133 65.5894ZM53.155 75.7258L57.4968 80.8798H48.896L53.155 75.7258ZM55.2332 73.2603L59.26 68.419V78.0717L55.2332 73.2603Z" fill="#157DF5"/>
<path d="M62.4465 64.3597C62.4465 63.3229 61.606 62.4824 60.5692 62.4824H53.1543V65.5894H57.5093L53.1543 70.8014V75.7258L57.496 80.8798H53.1543V83.9872H62.4465V64.3597ZM59.2593 78.0717L55.2325 73.2603L59.2593 68.419V78.0717Z" fill="#0965CD"/>
<path d="M53.1556 44C52.3297 44.0037 51.5049 44.2738 50.8216 44.8098L33.6287 58.2965C32.9381 58.8383 32.8302 59.833 33.3889 60.5068C33.9367 61.1674 34.9206 61.2712 35.5974 60.7398L50.8222 48.7874C51.5052 48.2512 52.3298 47.9808 53.1556 47.9766V44Z" fill="#157DF5"/>
<path d="M50.4102 56.7273C50.4102 55.221 51.639 54 53.1549 54V59.4545H51.3251C50.8198 59.4545 50.4102 59.0475 50.4102 58.5454V56.7273Z" fill="#157DF5"/>
<path d="M53.1543 54C54.6702 54 55.8991 55.221 55.8991 56.7273V58.5454C55.8991 59.0475 55.4895 59.4545 54.9842 59.4545H53.1543V54Z" fill="#0965CD"/>
<path d="M28 82.3148C28 81.3837 28.7548 80.6289 29.6859 80.6289H67.3141C68.2452 80.6289 69 81.3837 69 82.3148C69 83.2459 68.2452 84.0007 67.3141 84.0007H29.6859C28.7548 84.0007 28 83.2459 28 82.3148Z" fill="#40D98D"/>
<path d="M61.1211 80.6289H66.3118C67.2429 80.6289 67.9978 81.3837 67.9978 82.3148C67.9978 83.2459 67.2429 84.0007 66.3118 84.0007H61.1211V80.6289Z" fill="#25BB71"/>
<path d="M58.4118 57L79.5881 57C79.8139 57 80.0274 57.0533 80.2169 57.1479C80.6807 57.3796 81 57.8592 81 58.4118V70.553C81 71.3313 80.3666 71.9648 79.5882 71.9648H75.7049C75.5702 73.8945 75.0045 75.1559 74.2894 76.5764H74.3176C74.3237 76.5764 74.3297 76.5764 74.3358 76.5765C74.4267 76.5777 74.5156 76.5875 74.6017 76.6051C75.2444 76.737 75.7294 77.3071 75.7294 77.9881V79.5881C75.7294 80.2692 75.2444 80.8393 74.6017 80.9712C74.5099 80.99 74.4149 80.9999 74.3176 80.9999C74.3176 80.9999 74.3177 80.9999 74.3176 80.9999H62.9293C62.151 80.9999 61.5176 80.3665 61.5176 79.5881V77.9881C61.5176 77.2098 62.151 76.5764 62.9293 76.5764H63.1433C62.9898 76.0893 62.8507 75.6505 62.7246 75.2528C62.2174 73.6535 61.9205 72.7174 61.7477 71.9648H58.4118C57.6334 71.9648 57 71.3313 57 70.553V58.4118C57 57.6335 57.6334 57 58.4118 57Z" fill="#0965CD"/>
<path fill-rule="evenodd" clip-rule="evenodd" d="M75.4668 77.169C75.6321 77.4002 75.7294 77.683 75.7294 77.9881V79.5881C75.7294 80.2692 75.2444 80.8393 74.6017 80.9712C74.5099 80.99 74.4149 80.9999 74.3176 80.9999H62.9293C62.151 80.9999 61.5176 80.3665 61.5176 79.5881V77.9881C61.5176 77.5739 61.697 77.2007 61.9822 76.9422C62.2329 76.715 62.5653 76.5764 62.9293 76.5764H63.1433C63.0686 76.3394 62.9974 76.1139 62.9293 75.899C62.8575 75.6721 62.7893 75.4571 62.7246 75.2528L62.7245 75.2527C62.5236 74.6189 62.3556 74.0893 62.2153 73.634C62.0016 72.9403 61.852 72.4191 61.7477 71.9648H58.4118C57.6334 71.9648 57 71.3313 57 70.553V58.4118C57 57.6335 57.6334 57 58.4118 57H79.5881C79.8139 57 80.0274 57.0533 80.2169 57.1479C80.6807 57.3796 81 57.8592 81 58.4118V70.553C81 71.3313 80.3666 71.9648 79.5882 71.9648H75.7049C75.6596 72.615 75.5652 73.1894 75.4327 73.7195C75.282 74.3225 75.0819 74.8684 74.8483 75.4036C74.8482 75.4037 74.8482 75.4037 74.8482 75.4038C74.6913 75.7632 74.5193 76.1178 74.337 76.4817C74.337 76.4817 74.337 76.4817 74.337 76.4817C74.3305 76.4946 74.3241 76.5075 74.3176 76.5204C74.3082 76.539 74.2988 76.5577 74.2894 76.5764H74.3176L74.3358 76.5765C74.4267 76.5777 74.5156 76.5875 74.6017 76.6051C74.9565 76.6779 75.2632 76.8842 75.4668 77.169ZM78.0066 75.5684C78.4633 76.2624 78.7294 77.0935 78.7294 77.9881V79.5881C78.7294 81.7245 77.2123 83.4981 75.2046 83.91C74.9159 83.9692 74.6189 83.9999 74.3178 83.9999L74.3176 81.0475L74.3176 83.9999H62.9293C60.4941 83.9999 58.5176 82.0234 58.5176 79.5881V77.9881C58.5176 76.9105 58.9047 75.9226 59.5473 75.1561C59.5269 75.0914 59.5069 75.0276 59.4872 74.9648H58.4118C55.9766 74.9648 54 72.9882 54 70.553V58.4118C54 55.9767 55.9764 54 58.4118 54H79.5881C80.2908 54 80.9622 54.1667 81.5574 54.4641M78.0066 75.5684C78.0751 75.3729 78.1403 75.1719 78.2017 74.9648H79.5882C82.0234 74.9648 84 72.9882 84 70.553V58.4118C84 56.6755 82.9955 55.1825 81.5576 54.4642" fill="white"/>
<path d="M58.4118 57.0001L79.5882 57.0001C80.3666 57.0001 81 57.6335 81 58.4119L81 70.5531C81 71.3314 80.3666 71.9648 79.5882 71.9648L65.9882 71.9648C65.5986 71.9648 65.2824 71.6486 65.2824 71.259L62.9294 71.259C62.9294 71.6486 62.6132 71.9648 62.2235 71.9648L58.4118 71.9648C57.6334 71.9648 57 71.3314 57 70.5531L57 58.4119C57 57.6335 57.6334 57.0001 58.4118 57.0001Z" fill="#40D98D"/>
<path d="M69 57.0001L79.5882 57.0001C80.3666 57.0001 81 57.6335 81 58.4119L81 70.5531C81 71.3314 80.3666 71.9648 79.5882 71.9648L69 71.9648L69 57.0001Z" fill="#25BB71"/>
<path d="M62.2235 71.9648L58.4118 71.9648C57.6334 71.9648 57 71.3314 57 70.5531L57 66.0223L57.7059 66.0223C60.6056 66.0223 62.9581 68.3634 62.976 71.259L62.9775 71.259C62.9775 71.6486 63.375 71.9648 62.2235 71.9648Z" fill="#09C369"/>
<path d="M80.294 65.9884L80.9999 65.9884L80.9999 70.5531C80.9999 71.3314 80.3665 71.9648 79.5881 71.9648L75.0234 71.9648L75.0234 71.259C75.0234 68.3479 77.383 65.9884 80.294 65.9884Z" fill="#08A559"/>
<path d="M58.4118 57.0001L62.9765 57.0001L62.9765 57.706C62.9765 60.617 60.6169 62.9766 57.7059 62.9766L57 62.9766L57 58.4119C57 57.6335 57.6334 57.0001 58.4118 57.0001Z" fill="#09C369"/>
<path d="M75.0234 57.706L75.0234 57.0001L79.5881 57.0001C80.3665 57.0001 80.9999 57.6335 80.9999 58.4119L80.9999 62.9766L80.294 62.9766C77.383 62.9766 75.0234 60.617 75.0234 57.706Z" fill="#08A559"/>
<path d="M73.4705 64.4825C73.4705 62.0135 71.4689 60.0119 68.9999 60.0119C66.5308 60.0119 64.5293 62.0135 64.5293 64.4825C64.5293 66.9516 66.5308 68.9531 68.9999 68.9531C71.4689 68.9531 73.4705 66.9516 73.4705 64.4825Z" fill="#09C369"/>
<path d="M69 60.0119C71.4649 60.0119 73.4706 62.0176 73.4706 64.4825C73.4706 66.9475 71.4649 68.9531 69 68.9531L69 60.0119Z" fill="#08A559"/>
<path d="M67.5 64.4824C67.5 65.3094 68.1729 65.9824 68.9998 65.9824C69.8267 65.9824 70.4996 65.3094 70.4996 64.4824C70.4996 63.6554 69.8267 62.9824 68.9998 62.9824C68.1729 62.9824 67.5 63.6554 67.5 64.4824Z" fill="#40D98D"/>
<path d="M69 62.9824C69.8269 62.9824 70.4998 63.6554 70.4998 64.4824C70.4998 65.3094 69.8269 65.9824 69 65.9824L69 62.9824Z" fill="#25BB71"/>
<path d="M64.1047 64.953C65.5158 64.953 66.6929 66.0637 66.6929 67.4786L66.9743 71.3106C67.0011 71.6796 67.3084 71.9648 67.6783 71.9648L75.7037 71.9648C75.5379 74.341 74.7184 75.7038 73.7715 77.5982C73.652 77.8372 73.4072 77.9883 73.14 77.9883L64.1047 77.9883C63.796 77.9883 63.523 77.7878 63.4308 77.4928C61.3221 70.7435 61.5164 72.0302 61.5164 67.4786C61.5164 66.0862 62.6774 64.953 64.1047 64.953Z" fill="#FFDECC"/>
<path d="M69 71.9648L75.7049 71.9648C75.5391 74.341 74.7196 75.7038 73.7727 77.5982C73.6532 77.8372 73.4085 77.9883 73.1412 77.9883L69 77.9883L69 71.9648Z" fill="#FFCFB5"/>
<path d="M62.9293 76.5765L74.3176 76.5765C75.0959 76.5765 75.7293 77.2099 75.7293 77.9882L75.7293 79.5882C75.7293 80.3666 75.0959 81 74.3176 81L62.9293 81C62.151 81 61.5176 80.3666 61.5176 79.5882L61.5176 77.9882C61.5176 77.2099 62.151 76.5765 62.9293 76.5765Z" fill="#157DF5"/>
<path d="M69 76.5765L74.3176 76.5765C75.096 76.5765 75.7294 77.2099 75.7294 77.9882L75.7294 79.5882C75.7294 80.3666 75.096 81 74.3176 81L69 81L69 76.5765Z" fill="#0965CD"/>
<rect x="31.0195" y="134" width="20.1284" height="44" fill="#E2EFFE"/>
<rect x="31.0195" y="134" width="10.0642" height="44" fill="#F0F7FE"/>
<path d="M51.1479 134C51.1479 128.477 46.642 124 41.0837 124C35.5254 124 31.0195 128.477 31.0195 134H51.1479Z" fill="#157DF5"/>
<path d="M41.084 124V134H51.1482C51.1482 128.477 46.6423 124 41.084 124Z" fill="#0965CD"/>
<path d="M69.3707 178.424H37.1758V152.305L53.273 141.152L69.3707 152.305V178.424Z" fill="#E2EFFE"/>
<path d="M69.252 152.305L53.1543 141.152V178.424H69.252V152.305Z" fill="#B6D7FC"/>
<path d="M35.5974 156.74C34.9206 157.271 33.9367 157.167 33.3889 156.507C32.8302 155.833 32.9381 154.838 33.6287 154.297L50.8216 140.81C52.1904 139.736 54.1269 139.729 55.5033 140.794L72.6817 154.075C73.3741 154.611 73.491 155.601 72.9419 156.279C72.4003 156.948 71.4141 157.061 70.731 156.534L55.504 144.769C54.1272 143.706 52.1906 143.713 50.8222 144.787L35.5974 156.74Z" fill="#0965CD"/>
<path d="M45.6758 159.762H60.6371V178.287H45.6758V159.762Z" fill="#F0F7FE"/>
<path d="M53.1543 159.762H60.635V178.287H53.1543V159.762Z" fill="#E2EFFE"/>
<path d="M45.7406 158.482C44.7038 158.482 43.8633 159.323 43.8633 160.36V179.987H62.4472V160.36C62.4472 159.323 61.6067 158.482 60.5699 158.482H45.7406ZM51.125 169.267L47.0504 174.166V164.398L51.125 169.267ZM48.8133 161.589H57.5101L53.155 166.801L48.8133 161.589ZM53.155 171.726L57.4968 176.88H48.896L53.155 171.726ZM55.2332 169.26L59.26 164.419V174.072L55.2332 169.26Z" fill="#157DF5"/>
<path d="M62.4465 160.36C62.4465 159.323 61.606 158.482 60.5692 158.482H53.1543V161.589H57.5093L53.1543 166.801V171.726L57.496 176.88H53.1543V179.987H62.4465V160.36ZM59.2593 174.072L55.2325 169.26L59.2593 164.419V174.072Z" fill="#0965CD"/>
<path d="M53.1556 140C52.3297 140.004 51.5049 140.274 50.8216 140.81L33.6287 154.297C32.9381 154.838 32.8302 155.833 33.3889 156.507C33.9367 157.167 34.9206 157.271 35.5974 156.74L50.8222 144.787C51.5052 144.251 52.3298 143.981 53.1556 143.977V140Z" fill="#157DF5"/>
<path d="M50.4102 152.727C50.4102 151.221 51.639 150 53.1549 150V155.455H51.3251C50.8198 155.455 50.4102 155.048 50.4102 154.545V152.727Z" fill="#157DF5"/>
<path d="M53.1543 150C54.6702 150 55.8991 151.221 55.8991 152.727V154.545C55.8991 155.048 55.4895 155.455 54.9842 155.455H53.1543V150Z" fill="#0965CD"/>
<path d="M28 178.315C28 177.384 28.7548 176.629 29.6859 176.629H67.3141C68.2452 176.629 69 177.384 69 178.315C69 179.246 68.2452 180.001 67.3141 180.001H29.6859C28.7548 180.001 28 179.246 28 178.315Z" fill="#40D98D"/>
<path d="M61.1211 176.629H66.3118C67.2429 176.629 67.9978 177.384 67.9978 178.315C67.9978 179.246 67.2429 180.001 66.3118 180.001H61.1211V176.629Z" fill="#25BB71"/>
<path d="M58.4118 153L79.5881 153C79.8139 153 80.0274 153.053 80.2169 153.148C80.6807 153.38 81 153.859 81 154.412V166.553C81 167.331 80.3666 167.965 79.5882 167.965H75.7049C75.5702 169.894 75.0045 171.156 74.2894 172.576H74.3176C74.3237 172.576 74.3297 172.576 74.3358 172.576C74.4267 172.578 74.5156 172.587 74.6017 172.605C75.2444 172.737 75.7294 173.307 75.7294 173.988V175.588C75.7294 176.269 75.2444 176.839 74.6017 176.971C74.5099 176.99 74.4149 177 74.3176 177C74.3176 177 74.3177 177 74.3176 177H62.9293C62.151 177 61.5176 176.366 61.5176 175.588V173.988C61.5176 173.21 62.151 172.576 62.9293 172.576H63.1433C62.9898 172.089 62.8507 171.651 62.7246 171.253C62.2174 169.653 61.9205 168.717 61.7477 167.965H58.4118C57.6334 167.965 57 167.331 57 166.553V154.412C57 153.633 57.6334 153 58.4118 153Z" fill="#0965CD"/>
<path fill-rule="evenodd" clip-rule="evenodd" d="M75.4668 173.169C75.6321 173.4 75.7294 173.683 75.7294 173.988V175.588C75.7294 176.269 75.2444 176.839 74.6017 176.971C74.5099 176.99 74.4149 177 74.3176 177H62.9293C62.151 177 61.5176 176.366 61.5176 175.588V173.988C61.5176 173.574 61.697 173.201 61.9822 172.942C62.2329 172.715 62.5653 172.576 62.9293 172.576H63.1433C63.0686 172.339 62.9974 172.114 62.9293 171.899C62.8575 171.672 62.7893 171.457 62.7246 171.253L62.7245 171.253C62.5236 170.619 62.3556 170.089 62.2153 169.634C62.0016 168.94 61.852 168.419 61.7477 167.965H58.4118C57.6334 167.965 57 167.331 57 166.553V154.412C57 153.633 57.6334 153 58.4118 153H79.5881C79.8139 153 80.0274 153.053 80.2169 153.148C80.6807 153.38 81 153.859 81 154.412V166.553C81 167.331 80.3666 167.965 79.5882 167.965H75.7049C75.6596 168.615 75.5652 169.189 75.4327 169.719C75.282 170.323 75.0819 170.868 74.8483 171.404C74.8482 171.404 74.8482 171.404 74.8482 171.404C74.6913 171.763 74.5193 172.118 74.337 172.482C74.337 172.482 74.337 172.482 74.337 172.482C74.3305 172.495 74.3241 172.507 74.3176 172.52C74.3082 172.539 74.2988 172.558 74.2894 172.576H74.3176L74.3358 172.576C74.4267 172.578 74.5156 172.587 74.6017 172.605C74.9565 172.678 75.2632 172.884 75.4668 173.169ZM78.0066 171.568C78.4633 172.262 78.7294 173.093 78.7294 173.988V175.588C78.7294 177.725 77.2123 179.498 75.2046 179.91C74.9159 179.969 74.6189 180 74.3178 180L74.3176 177.048L74.3176 180H62.9293C60.4941 180 58.5176 178.023 58.5176 175.588V173.988C58.5176 172.91 58.9047 171.923 59.5473 171.156C59.5269 171.091 59.5069 171.028 59.4872 170.965H58.4118C55.9766 170.965 54 168.988 54 166.553V154.412C54 151.977 55.9764 150 58.4118 150H79.5881C80.2908 150 80.9622 150.167 81.5574 150.464M78.0066 171.568C78.0751 171.373 78.1403 171.172 78.2017 170.965H79.5882C82.0234 170.965 84 168.988 84 166.553V154.412C84 152.675 82.9955 151.183 81.5576 150.464" fill="white"/>
<path d="M58.4118 153L79.5882 153C80.3666 153 81 153.634 81 154.412L81 166.553C81 167.331 80.3666 167.965 79.5882 167.965L65.9882 167.965C65.5986 167.965 65.2824 167.649 65.2824 167.259L62.9294 167.259C62.9294 167.649 62.6132 167.965 62.2235 167.965L58.4118 167.965C57.6334 167.965 57 167.331 57 166.553L57 154.412C57 153.634 57.6334 153 58.4118 153Z" fill="#40D98D"/>
<path d="M69 153L79.5882 153C80.3666 153 81 153.634 81 154.412L81 166.553C81 167.331 80.3666 167.965 79.5882 167.965L69 167.965L69 153Z" fill="#25BB71"/>
<path d="M62.2235 167.965L58.4118 167.965C57.6334 167.965 57 167.331 57 166.553L57 162.022L57.7059 162.022C60.6056 162.022 62.9581 164.363 62.976 167.259L62.9775 167.259C62.9775 167.649 63.375 167.965 62.2235 167.965Z" fill="#09C369"/>
<path d="M80.294 161.988L80.9999 161.988L80.9999 166.553C80.9999 167.331 80.3665 167.965 79.5881 167.965L75.0234 167.965L75.0234 167.259C75.0234 164.348 77.383 161.988 80.294 161.988Z" fill="#08A559"/>
<path d="M58.4118 153L62.9765 153L62.9765 153.706C62.9765 156.617 60.6169 158.977 57.7059 158.977L57 158.977L57 154.412C57 153.634 57.6334 153 58.4118 153Z" fill="#09C369"/>
<path d="M75.0234 153.706L75.0234 153L79.5881 153C80.3665 153 80.9999 153.634 80.9999 154.412L80.9999 158.977L80.294 158.977C77.383 158.977 75.0234 156.617 75.0234 153.706Z" fill="#08A559"/>
<path d="M73.4705 160.483C73.4705 158.013 71.4689 156.012 68.9999 156.012C66.5308 156.012 64.5293 158.013 64.5293 160.483C64.5293 162.952 66.5308 164.953 68.9999 164.953C71.4689 164.953 73.4705 162.952 73.4705 160.483Z" fill="#09C369"/>
<path d="M69 156.012C71.4649 156.012 73.4706 158.018 73.4706 160.483C73.4706 162.947 71.4649 164.953 69 164.953L69 156.012Z" fill="#08A559"/>
<path d="M67.5 160.482C67.5 161.309 68.1729 161.982 68.9998 161.982C69.8267 161.982 70.4996 161.309 70.4996 160.482C70.4996 159.655 69.8267 158.982 68.9998 158.982C68.1729 158.982 67.5 159.655 67.5 160.482Z" fill="#40D98D"/>
<path d="M69 158.982C69.8269 158.982 70.4998 159.655 70.4998 160.482C70.4998 161.309 69.8269 161.982 69 161.982L69 158.982Z" fill="#25BB71"/>
<path d="M64.1047 160.953C65.5158 160.953 66.6929 162.064 66.6929 163.479L66.9743 167.311C67.0011 167.68 67.3084 167.965 67.6783 167.965L75.7037 167.965C75.5379 170.341 74.7184 171.704 73.7715 173.598C73.652 173.837 73.4072 173.988 73.14 173.988L64.1047 173.988C63.796 173.988 63.523 173.788 63.4308 173.493C61.3221 166.744 61.5164 168.03 61.5164 163.479C61.5164 162.086 62.6774 160.953 64.1047 160.953Z" fill="#FFDECC"/>
<path d="M69 167.965L75.7049 167.965C75.5391 170.341 74.7196 171.704 73.7727 173.598C73.6532 173.837 73.4085 173.988 73.1412 173.988L69 173.988L69 167.965Z" fill="#FFCFB5"/>
<path d="M62.9293 172.576L74.3176 172.576C75.0959 172.576 75.7293 173.21 75.7293 173.988L75.7293 175.588C75.7293 176.367 75.0959 177 74.3176 177L62.9293 177C62.151 177 61.5176 176.367 61.5176 175.588L61.5176 173.988C61.5176 173.21 62.151 172.576 62.9293 172.576Z" fill="#157DF5"/>
<path d="M69 172.576L74.3176 172.576C75.096 172.576 75.7294 173.21 75.7294 173.988L75.7294 175.588C75.7294 176.367 75.096 177 74.3176 177L69 177L69 172.576Z" fill="#0965CD"/>
<defs>
<filter id="filter0_dd_11513_74285" x="6" y="9" width="100" height="100" filterUnits="userSpaceOnUse" color-interpolation-filters="sRGB">
<feFlood flood-opacity="0" result="BackgroundImageFix"/>
<feColorMatrix in="SourceAlpha" type="matrix" values="0 0 0 0 0 0 0 0 0 0 0 0 0 0 0 0 0 0 127 0" result="hardAlpha"/>
<feOffset dy="3"/>
<feGaussianBlur stdDeviation="5"/>
<feColorMatrix type="matrix" values="0 0 0 0 0.516667 0 0 0 0 0.578358 0 0 0 0 0.775 0 0 0 0.12 0"/>
<feBlend mode="normal" in2="BackgroundImageFix" result="effect1_dropShadow_11513_74285"/>
<feColorMatrix in="SourceAlpha" type="matrix" values="0 0 0 0 0 0 0 0 0 0 0 0 0 0 0 0 0 0 127 0" result="hardAlpha"/>
<feOffset dy="1"/>
<feGaussianBlur stdDeviation="3"/>
<feColorMatrix type="matrix" values="0 0 0 0 0.709809 0 0 0 0 0.788943 0 0 0 0 0.920833 0 0 0 0.15 0"/>
<feBlend mode="normal" in2="effect1_dropShadow_11513_74285" result="effect2_dropShadow_11513_74285"/>
<feBlend mode="normal" in="SourceGraphic" in2="effect2_dropShadow_11513_74285" result="shape"/>
</filter>
</defs>
</svg>
