<svg width="112" height="208" viewBox="0 0 112 208" fill="none" xmlns="http://www.w3.org/2000/svg">
<rect x="0.5" y="0.5" width="111" height="207" rx="4.5" stroke="#9747FF" stroke-dasharray="10 5"/>
<g filter="url(#filter0_d_23749_11267)">
<rect x="16" y="16" width="80" height="80" rx="8" fill="white"/>
</g>
<path d="M43.6529 68.0002C35.0219 68.0002 28 60.9784 28 52.3474C28 46.9715 32.3323 39.9094 34.1948 37.1226C35.8099 34.7061 37.5645 32.4858 39.1352 30.871C41.638 28.2978 42.9121 28.0002 43.6529 28.0002C44.3937 28.0002 45.6678 28.2978 48.1706 30.871C49.7414 32.4859 51.4959 34.7061 53.111 37.1226C54.9735 39.9094 59.3058 46.9715 59.3058 52.3474C59.3058 60.9784 52.2839 68.0002 43.6529 68.0002Z" fill="#157DF5"/>
<path d="M53.1109 37.1223C51.4958 34.7058 49.7412 32.4856 48.1705 30.8707C45.6678 28.2975 44.3936 28 43.6528 28V68C52.2839 68 59.3057 60.9781 59.3057 52.3471C59.3057 46.9713 54.9735 39.9091 53.1109 37.1223Z" fill="#0965CD"/>
<path d="M71.5226 56.0002C66.344 56.0002 62.1309 51.7871 62.1309 46.6085C62.1309 43.383 64.7302 39.1457 65.8478 37.4736C66.8168 36.0237 67.8696 34.6916 68.812 33.7227C70.3136 32.1788 71.0781 32.0002 71.5226 32.0002C71.9671 32.0002 72.7315 32.1788 74.2332 33.7227C75.1757 34.6917 76.2284 36.0237 77.1974 37.4736C78.315 39.1457 80.9143 43.383 80.9143 46.6085C80.9143 51.7871 76.7012 56.0002 71.5226 56.0002Z" fill="#E2EFFE"/>
<path d="M77.1973 37.4734C76.2282 36.0235 75.1755 34.6914 74.2331 33.7224C72.7314 32.1785 71.9669 32 71.5225 32V56C76.7011 56 80.9142 51.7869 80.9142 46.6083C80.9142 43.3828 78.3148 39.1455 77.1973 37.4734Z" fill="#B6D7FC"/>
<path d="M66.5617 83.9864C65.6561 83.9864 64.9219 83.2522 64.9219 82.3465V76.058C64.9219 75.1524 65.6561 74.4182 66.5617 74.4182C67.4673 74.4182 68.2015 75.1524 68.2015 76.058V82.3465C68.2015 83.2522 67.4673 83.9864 66.5617 83.9864Z" fill="#09C369"/>
<path d="M66.5615 74.4182V83.9864C67.4671 83.9864 68.2013 83.2522 68.2013 82.3465V76.058C68.2013 75.1523 67.4671 74.4182 66.5615 74.4182Z" fill="#08A559"/>
<path d="M83.5082 56.7594C83.4051 56.3369 83.1384 55.9727 82.7667 55.7467C82.395 55.5207 81.9486 55.452 81.5263 55.5549L78.053 56.4025C72.7938 57.6858 68.6924 61.2774 66.5604 65.8371C66.2955 65.2731 66 64.7194 65.6716 64.1791C63.2837 60.2498 59.5189 57.488 55.0705 56.4025L51.5971 55.555C50.7164 55.34 49.83 55.8796 49.6153 56.7594C47.3692 65.9648 53.031 75.2813 62.2363 77.5275L65.7095 78.3749C66.1668 78.4763 66.9867 78.4716 67.4139 78.3751L70.8871 77.5275C80.0924 75.2813 85.7542 65.9648 83.5082 56.7594Z" fill="#40D98D"/>
<path d="M83.5079 56.7595C83.4048 56.337 83.1381 55.9727 82.7664 55.7468C82.3947 55.5208 81.9483 55.452 81.526 55.555L78.0528 56.4026C72.7946 57.6856 68.694 61.276 66.5615 65.8343V78.4491C66.881 78.4491 67.1976 78.4239 67.4137 78.3751L70.8869 77.5276C80.0921 75.2813 85.7539 65.9648 83.5079 56.7595Z" fill="#25BB71"/>
<path d="M43.6529 164C35.0219 164 28 156.978 28 148.347C28 142.972 32.3323 135.909 34.1948 133.123C35.8099 130.706 37.5645 128.486 39.1352 126.871C41.638 124.298 42.9121 124 43.6529 124C44.3937 124 45.6678 124.298 48.1706 126.871C49.7414 128.486 51.4959 130.706 53.111 133.123C54.9735 135.909 59.3058 142.972 59.3058 148.347C59.3058 156.978 52.2839 164 43.6529 164Z" fill="#157DF5"/>
<path d="M53.1109 133.122C51.4958 130.706 49.7412 128.486 48.1705 126.871C45.6678 124.298 44.3936 124 43.6528 124V164C52.2839 164 59.3057 156.978 59.3057 148.347C59.3057 142.971 54.9735 135.909 53.1109 133.122Z" fill="#0965CD"/>
<path d="M71.5226 152C66.344 152 62.1309 147.787 62.1309 142.609C62.1309 139.383 64.7302 135.146 65.8478 133.474C66.8168 132.024 67.8696 130.692 68.812 129.723C70.3136 128.179 71.0781 128 71.5226 128C71.9671 128 72.7315 128.179 74.2332 129.723C75.1757 130.692 76.2284 132.024 77.1974 133.474C78.315 135.146 80.9143 139.383 80.9143 142.609C80.9143 147.787 76.7012 152 71.5226 152Z" fill="#E2EFFE"/>
<path d="M77.1973 133.473C76.2282 132.023 75.1755 130.691 74.2331 129.722C72.7314 128.179 71.9669 128 71.5225 128V152C76.7011 152 80.9142 147.787 80.9142 142.608C80.9142 139.383 78.3148 135.145 77.1973 133.473Z" fill="#B6D7FC"/>
<path d="M66.5617 179.986C65.6561 179.986 64.9219 179.252 64.9219 178.347V172.058C64.9219 171.152 65.6561 170.418 66.5617 170.418C67.4673 170.418 68.2015 171.152 68.2015 172.058V178.347C68.2015 179.252 67.4673 179.986 66.5617 179.986Z" fill="#09C369"/>
<path d="M66.5615 170.418V179.986C67.4671 179.986 68.2013 179.252 68.2013 178.347V172.058C68.2013 171.152 67.4671 170.418 66.5615 170.418Z" fill="#08A559"/>
<path d="M83.5082 152.759C83.4051 152.337 83.1384 151.973 82.7667 151.747C82.395 151.521 81.9486 151.452 81.5263 151.555L78.053 152.403C72.7938 153.686 68.6924 157.277 66.5604 161.837C66.2955 161.273 66 160.719 65.6716 160.179C63.2837 156.25 59.5189 153.488 55.0705 152.403L51.5971 151.555C50.7164 151.34 49.83 151.88 49.6153 152.759C47.3692 161.965 53.031 171.281 62.2363 173.527L65.7095 174.375C66.1668 174.476 66.9867 174.472 67.4139 174.375L70.8871 173.527C80.0924 171.281 85.7542 161.965 83.5082 152.759Z" fill="#40D98D"/>
<path d="M83.5079 152.76C83.4048 152.337 83.1381 151.973 82.7664 151.747C82.3947 151.521 81.9483 151.452 81.526 151.555L78.0528 152.403C72.7946 153.686 68.694 157.276 66.5615 161.834V174.449C66.881 174.449 67.1976 174.424 67.4137 174.375L70.8869 173.528C80.0921 171.281 85.7539 161.965 83.5079 152.76Z" fill="#25BB71"/>
<defs>
<filter id="filter0_d_23749_11267" x="10" y="9" width="96" height="96" filterUnits="userSpaceOnUse" color-interpolation-filters="sRGB">
<feFlood flood-opacity="0" result="BackgroundImageFix"/>
<feColorMatrix in="SourceAlpha" type="matrix" values="0 0 0 0 0 0 0 0 0 0 0 0 0 0 0 0 0 0 127 0" result="hardAlpha"/>
<feOffset dx="2" dy="1"/>
<feGaussianBlur stdDeviation="4"/>
<feColorMatrix type="matrix" values="0 0 0 0 0.0392157 0 0 0 0 0.0392157 0 0 0 0 0.0627451 0 0 0 0.08 0"/>
<feBlend mode="normal" in2="BackgroundImageFix" result="effect1_dropShadow_23749_11267"/>
<feBlend mode="normal" in="SourceGraphic" in2="effect1_dropShadow_23749_11267" result="shape"/>
</filter>
</defs>
</svg>
