<svg width="112" height="208" viewBox="0 0 112 208" fill="none" xmlns="http://www.w3.org/2000/svg">
<rect x="0.5" y="0.5" width="111" height="207" rx="4.5" stroke="#9747FF" stroke-dasharray="10 5"/>
<g filter="url(#filter0_d_20685_10842)">
<rect x="16" y="16" width="80" height="80" rx="8" fill="white"/>
</g>
<path d="M32.3294 44.5233V34.4812C32.3294 32.7913 32.7913 32.3294 34.4812 32.3294H44.5233C45.094 32.3294 45.6414 32.1027 46.0449 31.6991C46.4485 31.2955 46.6752 30.7482 46.6752 30.1775C46.6752 29.6068 46.4485 29.0594 46.0449 28.6559C45.6414 28.2523 45.094 28.0256 44.5233 28.0256H34.4812C33.6133 27.9447 32.7382 28.0561 31.9181 28.3519C31.0981 28.6477 30.3534 29.1206 29.737 29.737C29.1206 30.3534 28.6477 31.0981 28.3519 31.9181C28.0561 32.7382 27.9447 33.6133 28.0256 34.4812V44.5233C28.0256 45.094 28.2523 45.6414 28.6559 46.0449C29.0594 46.4485 29.6068 46.6752 30.1775 46.6752C30.7482 46.6752 31.2955 46.4485 31.6991 46.0449C32.1027 45.6414 32.3294 45.094 32.3294 44.5233ZM46.6752 81.8225C46.6752 81.2518 46.4485 80.7044 46.0449 80.3009C45.6414 79.8973 45.094 79.6706 44.5233 79.6706H34.4812C32.7913 79.6706 32.3294 79.2087 32.3294 77.5187V67.4767C32.3294 66.906 32.1027 66.3586 31.6991 65.9551C31.2955 65.5515 30.7482 65.3248 30.1775 65.3248C29.6068 65.3248 29.0594 65.5515 28.6559 65.9551C28.2523 66.3586 28.0256 66.906 28.0256 67.4767V77.5187C27.9447 78.3867 28.0561 79.2618 28.3519 80.0819C28.6477 80.9019 29.1206 81.6466 29.737 82.263C30.3534 82.8794 31.0981 83.3523 31.9181 83.6481C32.7382 83.9439 33.6133 84.0553 34.4812 83.9744H44.5233C45.094 83.9744 45.6414 83.7477 46.0449 83.3441C46.4485 82.9406 46.6752 82.3932 46.6752 81.8225Z" fill="#E2EFFE"/>
<path d="M80.3003 46.0449C80.7039 46.4485 81.2512 46.6752 81.8219 46.6752C82.3926 46.6752 82.94 46.4485 83.3435 46.0449C83.7471 45.6414 83.9738 45.094 83.9738 44.5233V34.4812C84.0547 33.6133 83.9434 32.7382 83.6475 31.9181C83.3517 31.0981 82.8788 30.3534 82.2624 29.737C81.646 29.1206 80.9013 28.6477 80.0813 28.3519C79.2613 28.0561 78.3861 27.9447 77.5182 28.0256H67.4761C66.9054 28.0256 66.358 28.2523 65.9545 28.6559C65.5509 29.0594 65.3242 29.6068 65.3242 30.1775C65.3242 30.7482 65.5509 31.2955 65.9545 31.6991C66.358 32.1027 66.9054 32.3294 67.4761 32.3294H77.5182C79.2081 32.3294 79.6701 32.7913 79.6701 34.4812V44.5233C79.6701 45.094 79.8968 45.6414 80.3003 46.0449Z" fill="#B6D7FC"/>
<path d="M83.9738 67.4767V77.5187C84.0547 78.3867 83.9434 79.2618 83.6475 80.0819C83.3517 80.9019 82.8788 81.6466 82.2624 82.263C81.646 82.8794 80.9013 83.3523 80.0813 83.6481C79.2613 83.9439 78.3861 84.0553 77.5182 83.9744H67.4761C66.9054 83.9744 66.358 83.7477 65.9545 83.3441C65.5509 82.9406 65.3242 82.3932 65.3242 81.8225C65.3242 81.2518 65.5509 80.7044 65.9545 80.3009C66.358 79.8973 66.9054 79.6706 67.4761 79.6706H77.5182C79.2081 79.6706 79.6701 79.2087 79.6701 77.5187V67.4767C79.6701 66.906 79.8968 66.3586 80.3003 65.9551C80.7039 65.5515 81.2512 65.3248 81.8219 65.3248C82.3926 65.3248 82.94 65.5515 83.3435 65.9551C83.7471 66.3586 83.9738 66.906 83.9738 67.4767Z" fill="#B6D7FC"/>
<path d="M43.8057 53.1286H50.9786C51.2709 53.1703 51.5689 53.1433 51.849 53.05C52.1291 52.9566 52.3836 52.7992 52.5924 52.5905C52.8012 52.3817 52.9585 52.1272 53.0519 51.8471C53.1453 51.567 53.1722 51.269 53.1305 50.9767V43.8038C53.1722 43.5115 53.1453 43.2135 53.0519 42.9334C52.9585 42.6533 52.8012 42.3988 52.5924 42.19C52.3836 41.9812 52.1291 41.8239 51.849 41.7305C51.5689 41.6371 51.2709 41.6102 50.9786 41.6519H43.8057C43.5134 41.6102 43.2154 41.6371 42.9353 41.7305C42.6552 41.8239 42.4007 41.9812 42.1919 42.19C41.9831 42.3988 41.8258 42.6533 41.7324 42.9334C41.639 43.2135 41.6121 43.5115 41.6538 43.8038V50.9767C41.6121 51.269 41.639 51.567 41.7324 51.8471C41.8258 52.1272 41.9831 52.3817 42.1919 52.5905C42.4007 52.7992 42.6552 52.9566 42.9353 53.05C43.2154 53.1433 43.5134 53.1703 43.8057 53.1286ZM43.8057 70.3436H50.9786C51.2709 70.3853 51.5689 70.3583 51.849 70.265C52.1291 70.1716 52.3836 70.0142 52.5924 69.8055C52.8012 69.5967 52.9585 69.3422 53.0519 69.0621C53.1453 68.782 53.1722 68.484 53.1305 68.1917V61.0188C53.1722 60.7265 53.1453 60.4285 53.0519 60.1484C52.9585 59.8683 52.8012 59.6138 52.5924 59.405C52.3836 59.1962 52.1291 59.0389 51.849 58.9455C51.5689 58.8521 51.2709 58.8252 50.9786 58.8669H43.8057C43.5134 58.8252 43.2154 58.8521 42.9353 58.9455C42.6552 59.0389 42.4007 59.1962 42.1919 59.405C41.9831 59.6138 41.8258 59.8683 41.7324 60.1484C41.639 60.4285 41.6121 60.7265 41.6538 61.0188V68.1917C41.6121 68.484 41.639 68.782 41.7324 69.0621C41.8258 69.3422 41.9831 69.5967 42.1919 69.8055C42.4007 70.0142 42.6552 70.1716 42.9353 70.265C43.2154 70.3583 43.5134 70.3853 43.8057 70.3436Z" fill="#157DF5"/>
<path d="M68.1935 70.3473H61.0206C60.7283 70.389 60.4303 70.3621 60.1502 70.2687C59.8701 70.1753 59.6155 70.018 59.4068 69.8092C59.198 69.6004 59.0407 69.3459 58.9473 69.0658C58.8539 68.7857 58.827 68.4877 58.8687 68.1954V61.0225C58.827 60.7302 58.8539 60.4322 58.9473 60.1521C59.0407 59.872 59.198 59.6175 59.4068 59.4087C59.6155 59.1999 59.8701 59.0426 60.1502 58.9492C60.4303 58.8558 60.7283 58.8289 61.0206 58.8706H68.1935C68.4858 58.8289 68.7838 58.8558 69.0639 58.9492C69.344 59.0426 69.5985 59.1999 69.8073 59.4087C70.016 59.6175 70.1734 59.872 70.2667 60.1521C70.3601 60.4322 70.3871 60.7302 70.3454 61.0225V68.1954C70.3871 68.4877 70.3601 68.7857 70.2667 69.0658C70.1734 69.3459 70.016 69.6004 69.8073 69.8092C69.5985 70.018 69.344 70.1753 69.0639 70.2687C68.7838 70.3621 68.4858 70.389 68.1935 70.3473Z" fill="#0965CD"/>
<path d="M58.8687 43.8038V50.9767C58.827 51.269 58.8539 51.567 58.9473 51.8471C59.0407 52.1272 59.198 52.3817 59.4068 52.5905C59.6155 52.7992 59.8701 52.9566 60.1502 53.05C60.4303 53.1433 60.7283 53.1703 61.0206 53.1286H68.1935C68.4858 53.1703 68.7838 53.1433 69.0639 53.05C69.344 52.9566 69.5985 52.7992 69.8073 52.5905C70.016 52.3817 70.1734 52.1272 70.2667 51.8471C70.3601 51.567 70.3871 51.269 70.3454 50.9767V43.8038C70.3871 43.5115 70.3601 43.2135 70.2667 42.9334C70.1734 42.6533 70.016 42.3988 69.8073 42.19C69.5985 41.9812 69.344 41.8239 69.0639 41.7305C68.7838 41.6371 68.4858 41.6102 68.1935 41.6519H61.0206C60.7283 41.6102 60.4303 41.6371 60.1502 41.7305C59.8701 41.8239 59.6155 41.9812 59.4068 42.19C59.198 42.3988 59.0407 42.6533 58.9473 42.9334C58.8539 43.2135 58.827 43.5115 58.8687 43.8038Z" fill="#40D98D"/>
<path d="M32.3294 140.523V130.481C32.3294 128.791 32.7913 128.329 34.4812 128.329H44.5233C45.094 128.329 45.6414 128.103 46.0449 127.699C46.4485 127.296 46.6752 126.748 46.6752 126.177C46.6752 125.607 46.4485 125.059 46.0449 124.656C45.6414 124.252 45.094 124.026 44.5233 124.026H34.4812C33.6133 123.945 32.7382 124.056 31.9181 124.352C31.0981 124.648 30.3534 125.121 29.737 125.737C29.1206 126.353 28.6477 127.098 28.3519 127.918C28.0561 128.738 27.9447 129.613 28.0256 130.481V140.523C28.0256 141.094 28.2523 141.641 28.6559 142.045C29.0594 142.448 29.6068 142.675 30.1775 142.675C30.7482 142.675 31.2955 142.448 31.6991 142.045C32.1027 141.641 32.3294 141.094 32.3294 140.523ZM46.6752 177.823C46.6752 177.252 46.4485 176.704 46.0449 176.301C45.6414 175.897 45.094 175.671 44.5233 175.671H34.4812C32.7913 175.671 32.3294 175.209 32.3294 173.519V163.477C32.3294 162.906 32.1027 162.359 31.6991 161.955C31.2955 161.552 30.7482 161.325 30.1775 161.325C29.6068 161.325 29.0594 161.552 28.6559 161.955C28.2523 162.359 28.0256 162.906 28.0256 163.477V173.519C27.9447 174.387 28.0561 175.262 28.3519 176.082C28.6477 176.902 29.1206 177.647 29.737 178.263C30.3534 178.879 31.0981 179.352 31.9181 179.648C32.7382 179.944 33.6133 180.055 34.4812 179.974H44.5233C45.094 179.974 45.6414 179.748 46.0449 179.344C46.4485 178.941 46.6752 178.393 46.6752 177.823Z" fill="#E2EFFE"/>
<path d="M80.3003 142.045C80.7039 142.448 81.2512 142.675 81.8219 142.675C82.3926 142.675 82.94 142.448 83.3435 142.045C83.7471 141.641 83.9738 141.094 83.9738 140.523V130.481C84.0547 129.613 83.9434 128.738 83.6475 127.918C83.3517 127.098 82.8788 126.353 82.2624 125.737C81.646 125.121 80.9013 124.648 80.0813 124.352C79.2613 124.056 78.3861 123.945 77.5182 124.026H67.4761C66.9054 124.026 66.358 124.252 65.9545 124.656C65.5509 125.059 65.3242 125.607 65.3242 126.177C65.3242 126.748 65.5509 127.296 65.9545 127.699C66.358 128.103 66.9054 128.329 67.4761 128.329H77.5182C79.2081 128.329 79.6701 128.791 79.6701 130.481V140.523C79.6701 141.094 79.8968 141.641 80.3003 142.045Z" fill="#B6D7FC"/>
<path d="M83.9738 163.477V173.519C84.0547 174.387 83.9434 175.262 83.6475 176.082C83.3517 176.902 82.8788 177.647 82.2624 178.263C81.646 178.879 80.9013 179.352 80.0813 179.648C79.2613 179.944 78.3861 180.055 77.5182 179.974H67.4761C66.9054 179.974 66.358 179.748 65.9545 179.344C65.5509 178.941 65.3242 178.393 65.3242 177.823C65.3242 177.252 65.5509 176.704 65.9545 176.301C66.358 175.897 66.9054 175.671 67.4761 175.671H77.5182C79.2081 175.671 79.6701 175.209 79.6701 173.519V163.477C79.6701 162.906 79.8968 162.359 80.3003 161.955C80.7039 161.552 81.2512 161.325 81.8219 161.325C82.3926 161.325 82.94 161.552 83.3435 161.955C83.7471 162.359 83.9738 162.906 83.9738 163.477Z" fill="#B6D7FC"/>
<path d="M43.8057 149.129H50.9786C51.2709 149.17 51.5689 149.143 51.849 149.05C52.1291 148.957 52.3836 148.799 52.5924 148.59C52.8012 148.382 52.9585 148.127 53.0519 147.847C53.1453 147.567 53.1722 147.269 53.1305 146.977V139.804C53.1722 139.511 53.1453 139.213 53.0519 138.933C52.9585 138.653 52.8012 138.399 52.5924 138.19C52.3836 137.981 52.1291 137.824 51.849 137.73C51.5689 137.637 51.2709 137.61 50.9786 137.652H43.8057C43.5134 137.61 43.2154 137.637 42.9353 137.73C42.6552 137.824 42.4007 137.981 42.1919 138.19C41.9831 138.399 41.8258 138.653 41.7324 138.933C41.639 139.213 41.6121 139.511 41.6538 139.804V146.977C41.6121 147.269 41.639 147.567 41.7324 147.847C41.8258 148.127 41.9831 148.382 42.1919 148.59C42.4007 148.799 42.6552 148.957 42.9353 149.05C43.2154 149.143 43.5134 149.17 43.8057 149.129ZM43.8057 166.344H50.9786C51.2709 166.385 51.5689 166.358 51.849 166.265C52.1291 166.172 52.3836 166.014 52.5924 165.805C52.8012 165.597 52.9585 165.342 53.0519 165.062C53.1453 164.782 53.1722 164.484 53.1305 164.192V157.019C53.1722 156.726 53.1453 156.428 53.0519 156.148C52.9585 155.868 52.8012 155.614 52.5924 155.405C52.3836 155.196 52.1291 155.039 51.849 154.945C51.5689 154.852 51.2709 154.825 50.9786 154.867H43.8057C43.5134 154.825 43.2154 154.852 42.9353 154.945C42.6552 155.039 42.4007 155.196 42.1919 155.405C41.9831 155.614 41.8258 155.868 41.7324 156.148C41.639 156.428 41.6121 156.726 41.6538 157.019V164.192C41.6121 164.484 41.639 164.782 41.7324 165.062C41.8258 165.342 41.9831 165.597 42.1919 165.805C42.4007 166.014 42.6552 166.172 42.9353 166.265C43.2154 166.358 43.5134 166.385 43.8057 166.344Z" fill="#157DF5"/>
<path d="M68.1935 166.347H61.0206C60.7283 166.389 60.4303 166.362 60.1502 166.269C59.8701 166.175 59.6155 166.018 59.4068 165.809C59.198 165.6 59.0407 165.346 58.9473 165.066C58.8539 164.786 58.827 164.488 58.8687 164.195V157.023C58.827 156.73 58.8539 156.432 58.9473 156.152C59.0407 155.872 59.198 155.618 59.4068 155.409C59.6155 155.2 59.8701 155.043 60.1502 154.949C60.4303 154.856 60.7283 154.829 61.0206 154.871H68.1935C68.4858 154.829 68.7838 154.856 69.0639 154.949C69.344 155.043 69.5985 155.2 69.8073 155.409C70.016 155.618 70.1734 155.872 70.2667 156.152C70.3601 156.432 70.3871 156.73 70.3454 157.023V164.195C70.3871 164.488 70.3601 164.786 70.2667 165.066C70.1734 165.346 70.016 165.6 69.8073 165.809C69.5985 166.018 69.344 166.175 69.0639 166.269C68.7838 166.362 68.4858 166.389 68.1935 166.347Z" fill="#0965CD"/>
<path d="M58.8687 139.804V146.977C58.827 147.269 58.8539 147.567 58.9473 147.847C59.0407 148.127 59.198 148.382 59.4068 148.59C59.6155 148.799 59.8701 148.957 60.1502 149.05C60.4303 149.143 60.7283 149.17 61.0206 149.129H68.1935C68.4858 149.17 68.7838 149.143 69.0639 149.05C69.344 148.957 69.5985 148.799 69.8073 148.59C70.016 148.382 70.1734 148.127 70.2667 147.847C70.3601 147.567 70.3871 147.269 70.3454 146.977V139.804C70.3871 139.511 70.3601 139.213 70.2667 138.933C70.1734 138.653 70.016 138.399 69.8073 138.19C69.5985 137.981 69.344 137.824 69.0639 137.73C68.7838 137.637 68.4858 137.61 68.1935 137.652H61.0206C60.7283 137.61 60.4303 137.637 60.1502 137.73C59.8701 137.824 59.6155 137.981 59.4068 138.19C59.198 138.399 59.0407 138.653 58.9473 138.933C58.8539 139.213 58.827 139.511 58.8687 139.804Z" fill="#40D98D"/>
<defs>
<filter id="filter0_d_20685_10842" x="10" y="9" width="96" height="96" filterUnits="userSpaceOnUse" color-interpolation-filters="sRGB">
<feFlood flood-opacity="0" result="BackgroundImageFix"/>
<feColorMatrix in="SourceAlpha" type="matrix" values="0 0 0 0 0 0 0 0 0 0 0 0 0 0 0 0 0 0 127 0" result="hardAlpha"/>
<feOffset dx="2" dy="1"/>
<feGaussianBlur stdDeviation="4"/>
<feColorMatrix type="matrix" values="0 0 0 0 0.0392157 0 0 0 0 0.0392157 0 0 0 0 0.0627451 0 0 0 0.08 0"/>
<feBlend mode="normal" in2="BackgroundImageFix" result="effect1_dropShadow_20685_10842"/>
<feBlend mode="normal" in="SourceGraphic" in2="effect1_dropShadow_20685_10842" result="shape"/>
</filter>
</defs>
</svg>
