<svg width="112" height="208" viewBox="0 0 112 208" fill="none" xmlns="http://www.w3.org/2000/svg">
<rect x="0.5" y="0.5" width="111" height="207" rx="4.5" stroke="#9747FF" stroke-dasharray="10 5"/>
<g filter="url(#filter0_dd_34091_74316)">
<rect x="16" y="16" width="80" height="80" rx="8" fill="white"/>
</g>
<path d="M36 31.0496C36 29.3653 37.3431 28 39 28H81C82.6569 28 84 29.3653 84 31.0496V67.6442C84 69.3284 82.6569 70.6938 81 70.6938H39C37.3431 70.6938 36 69.3284 36 67.6442V31.0496Z" fill="#B6D7FC"/>
<path d="M73.0938 40.8359H52H30.8125L28 43.6949V76.5729C28 77.3624 28.6296 78.0024 29.4062 78.0024H52H74.5938C75.3704 78.0024 76 77.3624 76 76.5729V43.6949L73.0938 40.8359Z" fill="#F0F7FE"/>
<path d="M76 76.5729V43.6949L73.0938 40.8359H52V78.0024H74.5938C75.3704 78.0024 76 77.3624 76 76.5729Z" fill="#E2EFFE"/>
<path d="M74.5938 35.1172H52H44.9688L42.1562 36.9091V42.2646L44.9688 43.6941H52H76V36.5467C76 35.757 75.3704 35.1172 74.5938 35.1172Z" fill="#157DF5"/>
<path d="M76 36.5467C76 35.757 75.3704 35.1172 74.5938 35.1172H52V43.6941H76V36.5467Z" fill="#0965CD"/>
<path d="M39.3438 35.1172L36.5312 36.8185V41.7612L39.3438 43.6941H44.9688V35.1172H39.3438Z" fill="#B6D7FC"/>
<path d="M33.7188 43.6941H39.3438V35.1172H33.7188L30.8125 36.7278V42.2646L33.7188 43.6941Z" fill="#E2EFFE"/>
<path d="M29.4062 35.1172C28.6296 35.1172 28 35.757 28 36.5467V43.6941H33.7188V35.1172H29.4062Z" fill="#157DF5"/>
<path d="M68.875 47.9844H35.125C34.3374 47.9844 33.7188 48.6133 33.7188 49.4139V60.8497C33.7188 61.6501 34.3374 62.2792 35.125 62.2792H68.875C69.6626 62.2792 70.2812 61.6501 70.2812 60.8497V49.4139C70.2812 48.6133 69.6626 47.9844 68.875 47.9844Z" fill="#E2EFFE"/>
<path d="M70.2812 49.4139V60.8497C70.2812 61.6501 69.6626 62.2792 68.875 62.2792H52V47.9844H68.875C69.6626 47.9844 70.2812 48.6133 70.2812 49.4139Z" fill="#B6D7FC"/>
<path fill-rule="evenodd" clip-rule="evenodd" d="M57.1 52.8001C57.7627 52.303 58.7029 52.4373 59.2 53.1001L61 55.5001L62.8 53.1001C63.297 52.4373 64.2372 52.303 64.9 52.8001C65.5627 53.2971 65.697 54.2373 65.2 54.9001L63 57.8334C62 59.1668 60 59.1668 59 57.8334L56.8 54.9001C56.3029 54.2373 56.4372 53.2971 57.1 52.8001Z" fill="#0965CD"/>
<path d="M46.375 73.7097H35.125C34.3477 73.7097 33.7188 73.0703 33.7188 72.2802V66.5623C33.7188 65.7722 34.3477 65.1328 35.125 65.1328H46.375C47.1523 65.1328 47.7812 65.7722 47.7812 66.5623V72.2802C47.7812 73.0703 47.1523 73.7097 46.375 73.7097Z" fill="#157DF5"/>
<path d="M68.875 73.7097H63.25C62.4727 73.7097 61.8438 73.0703 61.8438 72.2802V66.5623C61.8438 65.7722 62.4727 65.1328 63.25 65.1328H68.875C69.6523 65.1328 70.2812 65.7722 70.2812 66.5623V72.2802C70.2812 73.0703 69.6523 73.7097 68.875 73.7097Z" fill="#25BB71"/>
<path d="M57.625 65.1328H52C51.2124 65.1328 50.5938 65.7617 50.5938 66.5623V72.2802C50.5938 73.0806 51.2124 73.7097 52 73.7097H57.625C58.4126 73.7097 59.0312 73.0806 59.0312 72.2802V66.5623C59.0312 65.7617 58.4126 65.1328 57.625 65.1328Z" fill="#40D98D"/>
<path d="M59.0312 66.5623V72.2802C59.0312 73.0806 58.4126 73.7097 57.625 73.7097H52V65.1328H57.625C58.4126 65.1328 59.0312 65.7617 59.0312 66.5623Z" fill="#25BB71"/>
<path d="M68.3021 69.9433L68.3021 63.1094C68.3021 61.9464 69.2485 61 70.4114 61C71.5744 61 72.5208 61.9464 72.5208 63.1094V66.8397C72.7407 66.7614 72.9774 66.7187 73.2239 66.7187C73.7635 66.7187 74.2566 66.9222 74.6302 67.2573C74.9288 67.5241 75.151 67.8752 75.2593 68.2731C75.5002 68.177 75.7627 68.125 76.0364 68.125C77.0072 68.125 77.828 68.7841 78.0718 69.6794C78.3127 69.5833 78.5752 69.5312 78.8489 69.5312C80.0119 69.5312 80.9583 70.4777 80.9583 71.6406V74.4531C80.9583 76.7128 80.5665 78.9146 79.7937 81.0047C80.4839 81.3518 80.9585 82.0668 80.9585 82.8906V84.2969C80.9585 84.6855 80.644 85 80.2554 85H69.0054C68.6167 85 68.3022 84.6855 68.3022 84.2969V82.8906C68.3022 82.1627 68.6728 81.5198 69.2352 81.1405L65.8121 76.862C64.6932 75.4586 64.8029 73.4425 66.0755 72.1708L68.3021 69.9433Z" fill="#FD003A"/>
<path fill-rule="evenodd" clip-rule="evenodd" d="M65.8121 76.862C64.6932 75.4586 64.8028 73.4425 66.0755 72.1708L68.3021 69.9433V63.1094C68.3021 61.9464 69.2485 61 70.4114 61C71.5744 61 72.5208 61.9464 72.5208 63.1094V66.8397C72.7407 66.7614 72.9774 66.7188 73.2239 66.7188C73.4708 66.7188 73.708 66.7614 73.9285 66.8397C74.1898 66.9325 74.4276 67.0756 74.6302 67.2573C74.8126 67.4203 74.9666 67.6148 75.0834 67.8322C75.1578 67.9706 75.2171 68.1183 75.2593 68.2731C75.4036 68.2155 75.5558 68.1738 75.7134 68.1496C75.8188 68.1334 75.9267 68.125 76.0364 68.125C76.8396 68.125 77.5401 68.5761 77.8961 69.2389C77.9704 69.3772 78.0297 69.5248 78.0718 69.6794C78.2159 69.6219 78.3679 69.5801 78.5253 69.5559C78.6309 69.5396 78.739 69.5312 78.8489 69.5312C80.0119 69.5312 80.9583 70.4777 80.9583 71.6406V74.4531C80.9583 76.7128 80.5665 78.9146 79.7937 81.0047C80.4839 81.3518 80.9585 82.0668 80.9585 82.8906V84.2969C80.9585 84.6855 80.644 85 80.2554 85H69.0054C68.6167 85 68.3022 84.6855 68.3022 84.2969V82.8906C68.3022 82.2867 68.5573 81.7412 68.9654 81.3563C69.0492 81.2774 69.1394 81.2051 69.2352 81.1405L65.8121 76.862ZM65.5455 81.3309L63.4663 78.7322C61.398 76.1379 61.5991 72.4028 63.955 70.0487M65.5455 81.3309C65.3877 81.8222 65.3022 82.3463 65.3022 82.8906V84.2969C65.3022 86.3424 66.9599 88 69.0054 88H80.2554C82.3008 88 83.9585 86.3424 83.9585 84.2969V82.8906C83.9585 81.9042 83.6784 80.985 83.196 80.2063C83.7029 78.3401 83.9583 76.4123 83.9583 74.4531V71.6406C83.9583 69.0809 82.0716 66.9581 79.6142 66.5883C78.865 65.8525 77.8899 65.3456 76.8018 65.182C76.7469 65.1281 76.6908 65.0755 76.6335 65.0243C76.3001 64.7251 75.926 64.4688 75.5208 64.2644V63.1094C75.5208 60.2896 73.2313 58 70.4114 58C67.5916 58 65.3021 60.2896 65.3021 63.1094L65.3021 68.701L63.955 70.0487" fill="white"/>
<path d="M68.3021 63.1094L68.3021 69.9433L66.0755 72.1708C64.8029 73.4425 64.6932 75.4586 65.8121 76.862L69.8621 81.9241C69.9961 82.09 70.1977 82.1875 70.4115 82.1875L78.8489 82.1875C79.1339 82.1875 79.3908 82.0159 79.4991 81.752L79.5994 81.5078C80.5008 79.2691 80.9583 76.8948 80.9583 74.4531L80.9583 71.6406C80.9583 70.4777 80.0119 69.5312 78.8489 69.5312C78.5752 69.5312 78.3127 69.5833 78.0718 69.6794C77.828 68.7841 77.0072 68.125 76.0364 68.125C75.7627 68.125 75.5002 68.177 75.2593 68.2731C75.151 67.8752 74.9288 67.5241 74.6302 67.2573C74.2566 66.9222 73.7635 66.7187 73.2239 66.7187C72.9774 66.7187 72.7407 66.7614 72.5208 66.8397L72.5208 63.1094C72.5208 61.9464 71.5744 61 70.4114 61C69.2485 61 68.3021 61.9464 68.3021 63.1094Z" fill="#FFCFB5"/>
<path d="M75.2594 68.2731C75.5004 68.177 75.7629 68.125 76.0366 68.125C77.0074 68.125 77.8282 68.7841 78.0719 69.6794C78.3129 69.5833 78.5754 69.5312 78.8491 69.5312C80.0121 69.5312 80.9585 70.4777 80.9585 71.6406L80.9585 74.4531C80.9585 76.8948 80.501 79.2691 79.5996 81.5078L79.4993 81.752C79.391 82.0159 79.1341 82.1875 78.8491 82.1875L74.6304 82.1875L74.6304 67.2573C74.929 67.5241 75.1512 67.8752 75.2594 68.2731Z" fill="#FFB78F"/>
<path d="M80.9585 82.8906L80.9585 84.2969C80.9585 84.6855 80.644 85 80.2554 85L69.0054 85C68.6167 85 68.3022 84.6855 68.3022 84.2969L68.3022 82.8906C68.3022 81.7275 69.2485 80.7812 70.4116 80.7812L78.8491 80.7812C80.0123 80.7812 80.9585 81.7275 80.9585 82.8906Z" fill="#40D98D"/>
<path d="M74.6304 85L80.2554 85C80.644 85 80.9585 84.6855 80.9585 84.2969L80.9585 82.8906C80.9585 81.7275 80.0123 80.7812 78.8491 80.7812L74.6304 80.7812L74.6304 85Z" fill="#25BB71"/>
<path d="M36 127.05C36 125.365 37.3431 124 39 124H81C82.6569 124 84 125.365 84 127.05V163.644C84 165.328 82.6569 166.694 81 166.694H39C37.3431 166.694 36 165.328 36 163.644V127.05Z" fill="#B6D7FC"/>
<path d="M73.0938 136.836H52H30.8125L28 139.695V172.573C28 173.362 28.6296 174.002 29.4062 174.002H52H74.5938C75.3704 174.002 76 173.362 76 172.573V139.695L73.0938 136.836Z" fill="#F0F7FE"/>
<path d="M76 172.573V139.695L73.0938 136.836H52V174.002H74.5938C75.3704 174.002 76 173.362 76 172.573Z" fill="#E2EFFE"/>
<path d="M74.5938 131.117H52H44.9688L42.1562 132.909V138.265L44.9688 139.694H52H76V132.547C76 131.757 75.3704 131.117 74.5938 131.117Z" fill="#157DF5"/>
<path d="M76 132.547C76 131.757 75.3704 131.117 74.5938 131.117H52V139.694H76V132.547Z" fill="#0965CD"/>
<path d="M39.3438 131.117L36.5312 132.818V137.761L39.3438 139.694H44.9688V131.117H39.3438Z" fill="#B6D7FC"/>
<path d="M33.7188 139.694H39.3438V131.117H33.7188L30.8125 132.728V138.265L33.7188 139.694Z" fill="#E2EFFE"/>
<path d="M29.4062 131.117C28.6296 131.117 28 131.757 28 132.547V139.694H33.7188V131.117H29.4062Z" fill="#157DF5"/>
<path d="M68.875 143.984H35.125C34.3374 143.984 33.7188 144.613 33.7188 145.414V156.85C33.7188 157.65 34.3374 158.279 35.125 158.279H68.875C69.6626 158.279 70.2812 157.65 70.2812 156.85V145.414C70.2812 144.613 69.6626 143.984 68.875 143.984Z" fill="#E2EFFE"/>
<path d="M70.2812 145.414V156.85C70.2812 157.65 69.6626 158.279 68.875 158.279H52V143.984H68.875C69.6626 143.984 70.2812 144.613 70.2812 145.414Z" fill="#B6D7FC"/>
<path fill-rule="evenodd" clip-rule="evenodd" d="M57.1 148.8C57.7627 148.303 58.7029 148.437 59.2 149.1L61 151.5L62.8 149.1C63.297 148.437 64.2372 148.303 64.9 148.8C65.5627 149.297 65.697 150.237 65.2 150.9L63 153.833C62 155.167 60 155.167 59 153.833L56.8 150.9C56.3029 150.237 56.4372 149.297 57.1 148.8Z" fill="#0965CD"/>
<path d="M46.375 169.71H35.125C34.3477 169.71 33.7188 169.07 33.7188 168.28V162.562C33.7188 161.772 34.3477 161.133 35.125 161.133H46.375C47.1523 161.133 47.7812 161.772 47.7812 162.562V168.28C47.7812 169.07 47.1523 169.71 46.375 169.71Z" fill="#157DF5"/>
<path d="M68.875 169.71H63.25C62.4727 169.71 61.8438 169.07 61.8438 168.28V162.562C61.8438 161.772 62.4727 161.133 63.25 161.133H68.875C69.6523 161.133 70.2812 161.772 70.2812 162.562V168.28C70.2812 169.07 69.6523 169.71 68.875 169.71Z" fill="#25BB71"/>
<path d="M57.625 161.133H52C51.2124 161.133 50.5938 161.762 50.5938 162.562V168.28C50.5938 169.081 51.2124 169.71 52 169.71H57.625C58.4126 169.71 59.0312 169.081 59.0312 168.28V162.562C59.0312 161.762 58.4126 161.133 57.625 161.133Z" fill="#40D98D"/>
<path d="M59.0312 162.562V168.28C59.0312 169.081 58.4126 169.71 57.625 169.71H52V161.133H57.625C58.4126 161.133 59.0312 161.762 59.0312 162.562Z" fill="#25BB71"/>
<path d="M68.3021 165.943L68.3021 159.109C68.3021 157.946 69.2485 157 70.4114 157C71.5744 157 72.5208 157.946 72.5208 159.109V162.84C72.7407 162.761 72.9774 162.719 73.2239 162.719C73.7635 162.719 74.2566 162.922 74.6302 163.257C74.9288 163.524 75.151 163.875 75.2593 164.273C75.5002 164.177 75.7627 164.125 76.0364 164.125C77.0072 164.125 77.828 164.784 78.0718 165.679C78.3127 165.583 78.5752 165.531 78.8489 165.531C80.0119 165.531 80.9583 166.478 80.9583 167.641V170.453C80.9583 172.713 80.5665 174.915 79.7937 177.005C80.4839 177.352 80.9585 178.067 80.9585 178.891V180.297C80.9585 180.686 80.644 181 80.2554 181H69.0054C68.6167 181 68.3022 180.686 68.3022 180.297V178.891C68.3022 178.163 68.6728 177.52 69.2352 177.141L65.8121 172.862C64.6932 171.459 64.8029 169.443 66.0755 168.171L68.3021 165.943Z" fill="#FD003A"/>
<path fill-rule="evenodd" clip-rule="evenodd" d="M65.8121 172.862C64.6932 171.459 64.8028 169.443 66.0755 168.171L68.3021 165.943V159.109C68.3021 157.946 69.2485 157 70.4114 157C71.5744 157 72.5208 157.946 72.5208 159.109V162.84C72.7407 162.761 72.9774 162.719 73.2239 162.719C73.4708 162.719 73.708 162.761 73.9285 162.84C74.1898 162.933 74.4276 163.076 74.6302 163.257C74.8126 163.42 74.9666 163.615 75.0834 163.832C75.1578 163.971 75.2171 164.118 75.2593 164.273C75.4036 164.216 75.5558 164.174 75.7134 164.15C75.8188 164.133 75.9267 164.125 76.0364 164.125C76.8396 164.125 77.5401 164.576 77.8961 165.239C77.9704 165.377 78.0297 165.525 78.0718 165.679C78.2159 165.622 78.3679 165.58 78.5253 165.556C78.6309 165.54 78.739 165.531 78.8489 165.531C80.0119 165.531 80.9583 166.478 80.9583 167.641V170.453C80.9583 172.713 80.5665 174.915 79.7937 177.005C80.4839 177.352 80.9585 178.067 80.9585 178.891V180.297C80.9585 180.686 80.644 181 80.2554 181H69.0054C68.6167 181 68.3022 180.686 68.3022 180.297V178.891C68.3022 178.287 68.5573 177.741 68.9654 177.356C69.0492 177.277 69.1394 177.205 69.2352 177.141L65.8121 172.862ZM65.5455 177.331L63.4663 174.732C61.398 172.138 61.5991 168.403 63.955 166.049M65.5455 177.331C65.3877 177.822 65.3022 178.346 65.3022 178.891V180.297C65.3022 182.342 66.9599 184 69.0054 184H80.2554C82.3008 184 83.9585 182.342 83.9585 180.297V178.891C83.9585 177.904 83.6784 176.985 83.196 176.206C83.7029 174.34 83.9583 172.412 83.9583 170.453V167.641C83.9583 165.081 82.0716 162.958 79.6142 162.588C78.865 161.852 77.8899 161.346 76.8018 161.182C76.7469 161.128 76.6908 161.076 76.6335 161.024C76.3001 160.725 75.926 160.469 75.5208 160.264V159.109C75.5208 156.29 73.2313 154 70.4114 154C67.5916 154 65.3021 156.29 65.3021 159.109L65.3021 164.701L63.955 166.049" fill="white"/>
<path d="M68.3021 159.109L68.3021 165.943L66.0755 168.171C64.8029 169.443 64.6932 171.459 65.8121 172.862L69.8621 177.924C69.9961 178.09 70.1977 178.187 70.4115 178.187L78.8489 178.187C79.1339 178.187 79.3908 178.016 79.4991 177.752L79.5994 177.508C80.5008 175.269 80.9583 172.895 80.9583 170.453L80.9583 167.641C80.9583 166.478 80.0119 165.531 78.8489 165.531C78.5752 165.531 78.3127 165.583 78.0718 165.679C77.828 164.784 77.0072 164.125 76.0364 164.125C75.7627 164.125 75.5002 164.177 75.2593 164.273C75.151 163.875 74.9288 163.524 74.6302 163.257C74.2566 162.922 73.7635 162.719 73.2239 162.719C72.9774 162.719 72.7407 162.761 72.5208 162.84L72.5208 159.109C72.5208 157.946 71.5744 157 70.4114 157C69.2485 157 68.3021 157.946 68.3021 159.109Z" fill="#FFCFB5"/>
<path d="M75.2594 164.273C75.5004 164.177 75.7629 164.125 76.0366 164.125C77.0074 164.125 77.8282 164.784 78.0719 165.679C78.3129 165.583 78.5754 165.531 78.8491 165.531C80.0121 165.531 80.9585 166.478 80.9585 167.641L80.9585 170.453C80.9585 172.895 80.501 175.269 79.5996 177.508L79.4993 177.752C79.391 178.016 79.1341 178.187 78.8491 178.187L74.6304 178.188L74.6304 163.257C74.929 163.524 75.1512 163.875 75.2594 164.273Z" fill="#FFB78F"/>
<path d="M80.9585 178.891L80.9585 180.297C80.9585 180.686 80.644 181 80.2554 181L69.0054 181C68.6167 181 68.3022 180.686 68.3022 180.297L68.3022 178.891C68.3022 177.727 69.2485 176.781 70.4116 176.781L78.8491 176.781C80.0123 176.781 80.9585 177.727 80.9585 178.891Z" fill="#40D98D"/>
<path d="M74.6304 181L80.2554 181C80.644 181 80.9585 180.686 80.9585 180.297L80.9585 178.891C80.9585 177.727 80.0123 176.781 78.8491 176.781L74.6304 176.781L74.6304 181Z" fill="#25BB71"/>
<defs>
<filter id="filter0_dd_34091_74316" x="6" y="9" width="100" height="100" filterUnits="userSpaceOnUse" color-interpolation-filters="sRGB">
<feFlood flood-opacity="0" result="BackgroundImageFix"/>
<feColorMatrix in="SourceAlpha" type="matrix" values="0 0 0 0 0 0 0 0 0 0 0 0 0 0 0 0 0 0 127 0" result="hardAlpha"/>
<feOffset dy="3"/>
<feGaussianBlur stdDeviation="5"/>
<feColorMatrix type="matrix" values="0 0 0 0 0.516667 0 0 0 0 0.578358 0 0 0 0 0.775 0 0 0 0.12 0"/>
<feBlend mode="normal" in2="BackgroundImageFix" result="effect1_dropShadow_34091_74316"/>
<feColorMatrix in="SourceAlpha" type="matrix" values="0 0 0 0 0 0 0 0 0 0 0 0 0 0 0 0 0 0 127 0" result="hardAlpha"/>
<feOffset dy="1"/>
<feGaussianBlur stdDeviation="3"/>
<feColorMatrix type="matrix" values="0 0 0 0 0.709809 0 0 0 0 0.788943 0 0 0 0 0.920833 0 0 0 0.15 0"/>
<feBlend mode="normal" in2="effect1_dropShadow_34091_74316" result="effect2_dropShadow_34091_74316"/>
<feBlend mode="normal" in="SourceGraphic" in2="effect2_dropShadow_34091_74316" result="shape"/>
</filter>
</defs>
</svg>
