<svg width="112" height="208" viewBox="0 0 112 208" fill="none" xmlns="http://www.w3.org/2000/svg">
<rect x="0.5" y="0.5" width="111" height="207" rx="4.5" stroke="#9747FF" stroke-dasharray="10 5"/>
<g filter="url(#filter0_dd_11513_74077)">
<rect x="16" y="16" width="80" height="80" rx="8" fill="white"/>
</g>
<path d="M38.5 33.25C38.5 33.9849 38.3601 34.7199 38.045 35.3499L35.3151 38.045C34.6849 38.3599 33.9851 38.5 33.25 38.5C30.3449 38.5 28 36.1549 28 33.25C28 30.3449 30.3449 28 33.25 28C36.1551 28 38.5 30.3449 38.5 33.25Z" fill="#40D98D"/>
<path d="M84 33.25C84 36.1549 81.6551 38.5 78.75 38.5C78.0149 38.5 77.2801 38.3599 76.6501 38.045L73.955 35.3499C73.6399 34.7199 73.5 33.9849 73.5 33.25C73.5 30.3449 75.8449 28 78.75 28C81.6551 28 84 30.3449 84 33.25Z" fill="#25BB71"/>
<path d="M38.5 78.75C38.5 81.6549 36.1551 84 33.25 84C30.3449 84 28 81.6549 28 78.75C28 75.8449 30.3449 73.5 33.25 73.5C34.0199 73.5 34.7199 73.675 35.385 73.955L38.01 76.615C38.325 77.2799 38.5 77.9799 38.5 78.75Z" fill="#40D98D"/>
<path d="M84 78.75C84 81.6549 81.6551 84 78.75 84C75.8449 84 73.5 81.6549 73.5 78.75C73.5 77.9799 73.675 77.2799 73.955 76.615L76.615 73.99C77.28 73.6749 77.98 73.5 78.75 73.5C81.6551 73.5 84 75.8449 84 78.75Z" fill="#25BB71"/>
<path d="M74.0942 63.8066C73.7443 61.4267 73.4993 58.8017 73.4993 56.0017C73.4993 48.0917 75.4593 41.4066 76.6495 38.0467L73.9543 35.3516C70.6293 36.5417 64.0493 38.5017 55.9993 38.5017C53.3743 38.5017 45.3243 38.0817 38.0443 35.3516L35.3145 38.0467C38.0093 45.1866 38.4993 53.3066 38.4993 56.0017C38.4993 63.9816 36.5393 70.5966 35.3843 73.9567L38.0093 76.6167H38.0795C43.1895 74.8317 49.5592 73.5017 55.9993 73.5017C63.9795 73.5017 70.5942 75.4617 73.9543 76.6167L76.6143 73.9917C76.1593 72.6967 75.1093 69.5116 74.3743 65.3466C74.2692 64.8566 74.1993 64.3317 74.0942 63.8066ZM45.3595 40.9517C45.7445 42.4917 46.1293 44.3816 46.4445 46.4465C44.3793 46.1316 42.4895 45.7467 40.9495 45.3615C40.5295 43.0516 40.0043 41.0916 39.5493 39.5516C41.0893 40.0067 43.0493 40.5316 45.3595 40.9517ZM45.3595 71.0517C43.0493 71.4717 41.0893 71.9968 39.5493 72.4518C40.0043 70.9118 40.5295 68.9518 40.9495 66.6417C42.5245 66.2567 44.4145 65.8718 46.4796 65.5217C46.1293 67.5867 45.7443 69.4766 45.3595 71.0517ZM46.9342 61.9517C44.9742 62.1965 43.1543 62.5466 41.5443 62.9316C41.7543 61.3215 41.8942 59.5715 41.9643 57.7517H47.1442C47.1095 59.1866 47.0743 60.6217 46.9342 61.9517ZM41.9643 54.2517C41.8942 52.4316 41.7543 50.6816 41.5443 49.0716C43.1193 49.4217 44.9395 49.7716 46.8995 50.0517C47.0393 51.4167 47.1442 52.8166 47.1793 54.2517H41.9643ZM54.2493 70.0367C52.4292 70.1066 50.6792 70.2467 49.0695 70.4567C49.4193 68.8466 49.8043 67.0616 50.0493 65.0666C51.4143 64.9267 52.8145 64.8216 54.2493 64.7867V70.0367ZM54.2493 61.2867C52.9543 61.3215 51.6945 61.3916 50.4692 61.5315C50.5743 60.3416 50.6093 59.0466 50.6442 57.7516H54.2493V61.2867ZM54.2493 54.2517H50.6792C50.6442 52.9567 50.5743 51.6966 50.4692 50.4716C51.6943 50.5767 52.9543 50.6466 54.2493 50.6816V54.2517ZM54.2493 47.1816C52.8145 47.1466 51.4143 47.0417 50.0493 46.9015C49.7692 44.9415 49.4193 43.1216 49.0695 41.5466C50.6793 41.7566 52.4293 41.8965 54.2493 41.9666V47.1816ZM57.7493 50.6816C59.0443 50.6466 60.3042 50.5767 61.5295 50.4716C61.4243 51.6965 61.3545 52.9567 61.3195 54.2517H57.7493V50.6816ZM57.7493 57.7517H61.3545C61.3892 59.0467 61.4243 60.3417 61.5295 61.5316C60.3043 61.3917 59.0443 61.3216 57.7493 61.2868V57.7517ZM57.7493 70.0367V64.7867C59.1842 64.8215 60.5843 64.9266 61.9493 65.0666C62.1943 67.0616 62.5793 68.8467 62.9292 70.4567C61.3195 70.2467 59.5695 70.1066 57.7493 70.0367ZM61.9493 46.9016C60.5843 47.0417 59.1842 47.1466 57.7493 47.1817V41.9667C59.5695 41.8966 61.3195 41.7567 62.9292 41.5467C62.5793 43.1217 62.2295 44.9416 61.9493 46.9016ZM65.0992 50.0517C67.0592 49.7716 68.8793 49.4217 70.4543 49.0716C70.2443 50.6817 70.1045 52.4317 70.0343 54.2517H64.8193C64.8545 52.8166 64.9593 51.4167 65.0992 50.0517ZM64.8545 57.7517H70.0343C70.1045 59.5716 70.2443 61.3216 70.4543 62.9316C68.8442 62.5466 67.0245 62.1965 65.0645 61.9517C64.9243 60.6217 64.8892 59.1866 64.8545 57.7517ZM66.6392 71.0517C66.2542 69.4767 65.8693 67.5867 65.5192 65.5216C67.5843 65.8717 69.4742 66.2567 71.0493 66.6416C71.4693 68.9517 71.9945 70.9117 72.4495 72.4517C70.9093 71.9967 68.9493 71.4716 66.6392 71.0517ZM71.0493 45.3616C69.5093 45.7467 67.6195 46.1317 65.5543 46.4466C65.8695 44.3817 66.2543 42.4918 66.6393 40.9518C68.9495 40.5316 70.9095 40.0067 72.4495 39.5517C71.9943 41.0917 71.4692 43.0517 71.0493 45.3616Z" fill="#157DF5"/>
<path fill-rule="evenodd" clip-rule="evenodd" d="M56 73.5017C63.98 73.5017 70.5947 75.4617 73.9548 76.6167L76.6148 73.9917C76.1598 72.6967 75.1098 69.5116 74.3748 65.3466C74.3182 65.0825 74.2718 64.8083 74.2246 64.5293C74.1842 64.2907 74.1432 64.0487 74.0947 63.8066C73.7448 61.4267 73.4998 58.8017 73.4998 56.0017C73.4998 48.0917 75.4598 41.4066 76.6499 38.0467L73.9548 35.3516C70.6299 36.5417 64.0499 38.5016 56 38.5017V73.5017ZM61.5299 50.4716C60.3047 50.5767 59.0448 50.6466 57.7498 50.6816V54.2517H61.3199C61.3549 52.9567 61.4248 51.6965 61.5299 50.4716ZM61.3549 57.7517H57.7498V61.2868C59.0448 61.3216 60.3048 61.3917 61.5299 61.5316C61.4248 60.3417 61.3897 59.0467 61.3549 57.7517ZM57.7498 64.7867V70.0367C59.5699 70.1066 61.3199 70.2467 62.9297 70.4567C62.5798 68.8467 62.1948 67.0616 61.9498 65.0666C60.5848 64.9266 59.1847 64.8215 57.7498 64.7867ZM57.7498 47.1817C59.1847 47.1466 60.5848 47.0417 61.9498 46.9016C62.2299 44.9416 62.5798 43.1217 62.9297 41.5467C61.3199 41.7567 59.5699 41.8966 57.7498 41.9667V47.1817ZM70.4548 49.0716C68.8798 49.4217 67.0597 49.7716 65.0997 50.0517C64.9598 51.4167 64.8549 52.8166 64.8198 54.2517H70.0348C70.1049 52.4317 70.2448 50.6817 70.4548 49.0716ZM70.0348 57.7517H64.8549C64.8897 59.1866 64.9248 60.6217 65.0649 61.9517C67.0249 62.1965 68.8447 62.5466 70.4548 62.9316C70.2448 61.3216 70.1049 59.5716 70.0348 57.7517ZM65.5197 65.5216C65.8698 67.5867 66.2547 69.4767 66.6397 71.0517C68.9498 71.4716 70.9098 71.9967 72.4499 72.4517C71.9949 70.9117 71.4698 68.9517 71.0498 66.6416C69.4747 66.2567 67.5848 65.8717 65.5197 65.5216ZM65.5548 46.4466C67.6199 46.1317 69.5098 45.7467 71.0498 45.3616C71.4697 43.0517 71.9948 41.0917 72.4499 39.5517C70.9099 40.0067 68.9499 40.5316 66.6398 40.9518C66.2548 42.4918 65.8699 44.3817 65.5548 46.4466Z" fill="#0965CD"/>
<path d="M67.321 50.4002C66.4081 50.4002 65.668 49.6674 65.668 48.7634C65.668 47.8595 66.4081 47.1267 67.321 47.1267C69.1813 47.1267 70.6947 45.6282 70.6947 43.7862C70.6947 38.5409 66.3851 34.2735 61.0877 34.2735H51.8835C50.9706 34.2735 50.2305 33.5407 50.2305 32.6368C50.2305 31.7328 50.9706 31 51.8835 31H61.0877C68.208 31 74.0006 36.7359 74.0006 43.7862C74.0006 47.4332 71.0042 50.4002 67.321 50.4002Z" fill="white"/>
<path d="M65.6699 48.7695C65.6717 49.6719 66.4109 50.403 67.3228 50.403C69.0012 50.403 70.536 49.7854 71.7106 48.7695H65.6699Z" fill="white"/>
<path d="M67.4961 55.2947C64.144 55.2947 61.37 52.6903 61.1805 49.3655C61.1292 48.463 61.8264 47.6901 62.7379 47.6393C63.65 47.5892 64.43 48.2788 64.4813 49.1813C64.5719 50.7738 65.8962 52.0212 67.4959 52.0212C68.4088 52.0212 69.1489 52.754 69.1489 53.658C69.1489 54.5619 68.409 55.2947 67.4961 55.2947Z" fill="white"/>
<path d="M60.4564 59.9384C60.208 59.9384 59.9558 59.8827 59.7185 59.7652C57.058 58.448 53.8475 55.5908 53.5549 51.8733C53.484 50.9721 54.1644 50.1845 55.0745 50.1143C55.983 50.0449 56.78 50.7177 56.8509 51.619C57.0233 53.8113 59.2246 55.8609 61.197 56.8372C62.0135 57.2415 62.3445 58.2247 61.9362 59.0332C61.6466 59.6067 61.0627 59.9384 60.4564 59.9384Z" fill="white"/>
<path d="M60.4564 59.9384C60.208 59.9384 59.9558 59.8827 59.7185 59.7652C57.058 58.448 53.8475 55.5908 53.5549 51.8733C53.484 50.9721 54.1644 50.1845 55.0745 50.1143C55.983 50.0449 56.78 50.7177 56.8509 51.619C57.0233 53.8113 59.2246 55.8609 61.197 56.8372C62.0135 57.2415 62.3445 58.2247 61.9362 59.0332C61.6466 59.6067 61.0627 59.9384 60.4564 59.9384Z" fill="white"/>
<path fill-rule="evenodd" clip-rule="evenodd" d="M34 53.9427C34 56.649 34.5642 59.2748 35.6775 61.7292C35.9611 62.3546 36.2766 62.9586 36.6207 63.5411L37.1187 64.3843L37.1666 64.405C38.024 65.692 39.0377 66.8704 40.1959 67.9256C42.1193 69.678 44.3444 71.0048 46.7985 71.8618C48.7497 72.5432 50.776 72.9015 52.8372 72.9316C53.6316 73.8284 54.7242 74.7785 56.1364 75.3577C57.3221 75.8439 58.4995 76.0006 59.5301 76.0005C62.0982 76.0004 64.19 75.0223 64.4123 74.9165C66.2437 74.0453 67.1639 71.9407 66.5114 69.99L66.5109 69.9885C66.4688 69.8629 66.1427 68.8965 65.4431 67.7294C66.1427 66.5623 66.4689 65.5957 66.5111 65.4696L66.5114 65.4686C67.1639 63.5179 66.2429 61.413 64.4115 60.5419C64.2284 60.4548 63.2576 60.0088 61.8987 59.7177C61.6256 59.6592 61.3253 59.6045 61.0028 59.5605C60.9356 59.0889 60.8242 58.627 60.672 58.1807C61.1651 58.0235 61.6546 57.8519 62.1402 57.666C62.3428 57.5884 62.5447 57.5083 62.7457 57.4258C62.8921 57.3657 63.0378 57.3044 63.1829 57.2419C64.4768 57.9155 65.9457 58.2948 67.496 58.2948C70.038 58.2948 72.1489 56.2464 72.1489 53.658C72.1489 53.1618 72.0713 52.6854 71.9279 52.2395C74.938 50.6157 77.0006 47.4499 77.0006 43.7861C77.0006 35.0512 69.8369 28 61.0877 28H51.8834C49.3416 28 47.2304 30.0482 47.2304 32.6368C47.2304 35.2254 49.3416 37.2735 51.8834 37.2735H61.0877C64.4425 37.2735 67.1867 39.7422 67.6315 42.8875C66.1106 41.9271 64.4233 41.065 62.6495 40.3372C60.3126 39.3782 57.9035 38.6846 55.6164 38.3359L52.6479 38.0798L52.5623 38.0789C52.5226 38.0784 52.4791 38.0781 52.4348 38.0781H49.987C45.5287 38.0781 41.4865 39.9009 38.587 42.8291L37.8778 43.5453L37.8695 43.6076C35.4653 46.3787 34 49.9925 34 53.9427Z" fill="white"/>
<path fill-rule="evenodd" clip-rule="evenodd" d="M50.5643 52.1084C50.3613 49.5266 52.3075 47.3187 54.8441 47.1232L54.8462 47.123C57.3717 46.9301 59.6385 48.8011 59.8419 51.3835C59.8573 51.5793 60.0063 52.0415 60.578 52.6761C61.1253 53.2835 61.8572 53.8165 62.5281 54.1486C64.8227 55.2847 65.7812 58.0747 64.6143 60.3855C63.7899 62.018 62.1396 62.9384 60.4566 62.9384C59.7582 62.9384 59.0491 62.7813 58.3877 62.4537M55.0745 50.1143C55.983 50.0449 56.78 50.7177 56.8509 51.619C57.0233 53.8113 59.2246 55.8609 61.197 56.8372C62.0135 57.2415 62.3445 58.2247 61.9362 59.0332C61.6466 59.6067 61.0627 59.9384 60.4564 59.9384C60.208 59.9384 59.9558 59.8827 59.7185 59.7652C57.058 58.448 53.8475 55.5908 53.5549 51.8733C53.484 50.9721 54.1644 50.1845 55.0745 50.1143ZM50.5643 52.1084C50.979 57.3778 55.3381 60.9438 58.3877 62.4537L50.5643 52.1084Z" fill="white"/>
<path d="M53.4221 62.2669C53.2488 62.2669 53.0725 62.2397 52.8992 62.1826C50.8878 61.5187 49.0826 60.1663 47.8159 58.3746C46.5831 56.6309 45.9043 54.5446 45.9043 52.5C45.9043 51.5961 46.6444 50.8633 47.5573 50.8633C48.4702 50.8633 49.2103 51.5961 49.2103 52.5C49.2103 55.4055 51.2012 58.1716 53.9445 59.077C54.8106 59.3628 55.2786 60.2898 54.99 61.1474C54.7591 61.833 54.1142 62.2669 53.4221 62.2669Z" fill="white"/>
<path d="M49.0262 57.568L40.7178 44.9453C38.4195 47.2662 36.9998 50.4432 36.9998 53.9427C36.9998 56.2252 37.4741 58.428 38.4094 60.49C38.6475 61.0149 38.913 61.5234 39.2036 62.0155L39.5312 62.1563C40.9986 62.7872 42.564 63.1052 44.1293 63.1052C45.3081 63.1052 46.4869 62.9249 47.6234 62.5621L48.8145 62.1672C48.329 61.5585 48.0535 60.7966 48.0535 59.985C48.0536 59.05 48.4239 58.1995 49.0262 57.568Z" fill="white"/>
<path d="M69.3782 48.0334C67.4981 46.1705 64.704 44.423 61.5105 43.1126C58.3892 41.8318 55.2396 41.1139 52.6155 41.082L52.2826 41.4757C48.7065 45.7052 48.7092 51.8429 52.2891 56.0697L52.616 56.4558C55.7156 56.4333 58.7396 55.8272 61.6065 54.6505C64.5281 53.4513 67.1429 51.7201 69.3782 49.505C69.7884 49.0985 69.7884 48.4398 69.3782 48.0334Z" fill="white"/>
<path d="M36.9998 53.9361C36.9998 56.2186 37.4741 58.4214 38.4094 60.4833C38.6475 61.0083 38.913 61.5168 39.2036 62.0089L39.5312 62.1497C40.9986 62.7806 42.564 63.0985 44.1293 63.0985C45.3081 63.0985 46.4869 62.9182 47.6234 62.5555L48.8145 62.1606C48.329 61.5519 48.0535 60.79 48.0535 59.9783C48.0535 59.0434 48.4239 58.1929 49.0261 57.5614L43.2367 48.7656H38.0973C37.3921 50.3486 36.9998 52.0977 36.9998 53.9361Z" fill="white"/>
<path d="M52.6162 41.0797C52.5555 41.0789 52.4948 41.0781 52.4347 41.0781H49.9868C46.3603 41.0781 43.0768 42.5584 40.7185 44.94L40.6761 45.3062C40.3788 47.8738 40.9865 50.4925 42.3875 52.6801C43.7967 54.8807 45.9488 56.5467 48.4473 57.3713L49.0269 57.5626C49.6763 56.8817 50.5952 56.4555 51.6133 56.4555H52.4383C52.4979 56.4555 52.5573 56.4537 52.6168 56.4533L52.6162 41.0797Z" fill="white"/>
<path d="M42.3865 52.679C43.7958 54.8796 45.9478 56.5456 48.4463 57.3702L49.0261 57.5614C49.6754 56.8805 50.5942 56.4543 51.6123 56.4543H52.4373C52.4969 56.4543 52.5563 56.4526 52.6158 56.4522L52.6155 48.7656H40.8155C41.0879 50.1468 41.6174 51.4779 42.3865 52.679Z" fill="white"/>
<path d="M69.3782 48.0334C67.4981 46.1705 64.704 44.423 61.5105 43.1126C58.3892 41.8318 55.2396 41.1139 52.6155 41.082L52.2826 41.4757C48.7065 45.7052 48.7092 51.8429 52.2891 56.0697L52.616 56.4558C55.7156 56.4333 58.7396 55.8272 61.6065 54.6505C64.5281 53.4513 67.1429 51.7201 69.3782 49.505C69.7884 49.0985 69.7884 48.4398 69.3782 48.0334Z" fill="white"/>
<path d="M49.6024 48.7656C49.6025 51.3586 50.4981 53.9515 52.2891 56.0661L52.6158 56.4522C55.7154 56.4297 58.7396 55.8236 61.6065 54.6469C64.5281 53.4477 67.1429 51.7165 69.3782 49.5014C69.5832 49.2983 69.6858 49.032 69.6858 48.7656H49.6024Z" fill="white"/>
<path d="M57.3057 50.4051C58.2087 50.4051 58.9407 49.6726 58.9407 48.7689C58.9407 47.8653 58.2087 47.1328 57.3057 47.1328C56.4027 47.1328 55.6707 47.8653 55.6707 48.7689C55.6707 49.6726 56.4027 50.4051 57.3057 50.4051Z" fill="white"/>
<path d="M57.3057 50.4051C58.2087 50.4051 58.9407 49.6726 58.9407 48.7689H55.6707C55.6707 49.6726 56.4027 50.4051 57.3057 50.4051Z" fill="white"/>
<path d="M61.6969 67.7294C63.0368 66.3609 63.6357 64.6079 63.6661 64.517C63.8324 64.02 63.6 63.4781 63.1234 63.2514C62.9955 63.1906 59.9612 61.7747 57.2746 62.8767C56.0237 63.3897 55.0716 64.437 54.446 65.3236L50.022 63.1333C49.5417 62.8954 49.1337 62.5622 48.8157 62.1634L39.2048 62.0117C40.0129 63.3802 41.0209 64.6191 42.2161 65.708C43.8411 67.1886 45.7155 68.3061 47.7873 69.0296C49.5095 69.631 51.298 69.9337 53.1206 69.9337C53.5055 69.9337 53.892 69.9194 54.2796 69.8923C54.8968 70.822 55.9073 72.0213 57.2746 72.5821C58.0228 72.889 58.7978 73.0006 59.5298 73.0006C61.4258 73.0005 63.0312 72.2513 63.1234 72.2073C63.6 71.9806 63.8324 71.4386 63.6661 70.9417C63.6357 70.8509 63.0368 69.0979 61.6969 67.7294Z" fill="white"/>
<path d="M67.321 50.4002C66.4081 50.4002 65.668 49.6674 65.668 48.7634C65.668 47.8595 66.4081 47.1267 67.321 47.1267C69.1813 47.1267 70.6947 45.6282 70.6947 43.7862C70.6947 38.5409 66.3851 34.2735 61.0877 34.2735H51.8835C50.9706 34.2735 50.2305 33.5407 50.2305 32.6368C50.2305 31.7328 50.9706 31 51.8835 31H61.0877C68.208 31 74.0006 36.7359 74.0006 43.7862C74.0006 47.4332 71.0042 50.4002 67.321 50.4002Z" fill="#FFDECC"/>
<path d="M65.6699 48.7695C65.6717 49.6719 66.4109 50.403 67.3228 50.403C69.0012 50.403 70.536 49.7854 71.7106 48.7695H65.6699Z" fill="#FFCFB5"/>
<path d="M67.4959 55.2947C64.1439 55.2947 61.3698 52.6903 61.1804 49.3655C61.129 48.463 61.8263 47.6901 62.7377 47.6393C63.6498 47.5892 64.4298 48.2788 64.4812 49.1813C64.5718 50.7738 65.896 52.0212 67.4958 52.0212C68.4087 52.0212 69.1488 52.754 69.1488 53.658C69.1488 54.5619 68.4088 55.2947 67.4959 55.2947Z" fill="#FFDECC"/>
<path d="M60.4564 59.9384C60.208 59.9384 59.9558 59.8827 59.7185 59.7652C57.058 58.448 53.8475 55.5908 53.5549 51.8733C53.484 50.9721 54.1644 50.1845 55.0745 50.1143C55.983 50.0449 56.78 50.7177 56.8509 51.619C57.0233 53.8113 59.2246 55.8609 61.197 56.8372C62.0135 57.2415 62.3445 58.2247 61.9362 59.0332C61.6466 59.6067 61.0627 59.9384 60.4564 59.9384Z" fill="#FFDECC"/>
<path d="M53.4221 62.2669C53.2488 62.2669 53.0725 62.2397 52.8992 62.1826C50.8878 61.5187 49.0825 60.1663 47.8159 58.3746C46.5831 56.6309 45.9043 54.5446 45.9043 52.5C45.9043 51.5961 46.6444 50.8633 47.5573 50.8633C48.4702 50.8633 49.2103 51.5961 49.2103 52.5C49.2103 55.4055 51.2012 58.1716 53.9445 59.077C54.8106 59.3629 55.2786 60.2898 54.99 61.1474C54.7591 61.8331 54.1142 62.2669 53.4221 62.2669Z" fill="#FFDECC"/>
<path d="M49.0263 57.568L40.718 44.9453C38.4197 47.2662 37 50.4432 37 53.9427C37 56.2252 37.4743 58.428 38.4096 60.49C38.6477 61.0149 38.9131 61.5234 39.2038 62.0155L39.5314 62.1564C40.9988 62.7872 42.5642 63.1052 44.1295 63.1052C45.3083 63.1052 46.4871 62.9249 47.6236 62.5621L48.8147 62.1672C48.3292 61.5585 48.0537 60.7966 48.0537 59.985C48.0538 59.05 48.4241 58.1995 49.0263 57.568Z" fill="#FFDECC"/>
<path d="M69.3784 48.0334C67.4983 46.1705 64.7042 44.423 61.5107 43.1126C58.3894 41.8318 55.2398 41.1139 52.6157 41.082L52.2828 41.4757C48.7067 45.7052 48.7094 51.8429 52.2893 56.0697L52.6162 56.4558C55.7158 56.4333 58.7398 55.8272 61.6067 54.6505C64.5283 53.4513 67.1431 51.7201 69.3784 49.505C69.7886 49.0985 69.7886 48.4398 69.3784 48.0334Z" fill="#157DF5"/>
<path d="M37 53.9361C37 56.2186 37.4743 58.4214 38.4096 60.4833C38.6477 61.0083 38.9131 61.5168 39.2038 62.0089L39.5314 62.1497C40.9988 62.7806 42.5642 63.0985 44.1295 63.0985C45.3083 63.0985 46.4871 62.9182 47.6236 62.5555L48.8147 62.1606C48.3292 61.5519 48.0537 60.79 48.0537 59.9783C48.0537 59.0433 48.424 58.1929 49.0263 57.5614L43.2369 48.7656H38.0974C37.3923 50.3486 37 52.0977 37 53.9361Z" fill="#FFCFB5"/>
<path d="M52.6164 41.0797C52.5557 41.0789 52.495 41.0781 52.4349 41.0781H49.987C46.3605 41.0781 43.077 42.5584 40.7187 44.94L40.6763 45.3062C40.3789 47.8738 40.9867 50.4925 42.3877 52.6801C43.7969 54.8807 45.949 56.5467 48.4475 57.3713L49.0271 57.5626C49.6764 56.8817 50.5954 56.4555 51.6135 56.4555H52.4385C52.4981 56.4555 52.5574 56.4537 52.6169 56.4533L52.6164 41.0797Z" fill="#F54B5E"/>
<path d="M42.3865 52.679C43.7957 54.8796 45.9478 56.5456 48.4463 57.3702L49.0259 57.5614C49.6753 56.8806 50.5942 56.4543 51.6123 56.4543H52.4373C52.4969 56.4543 52.5562 56.4526 52.6157 56.4522L52.6155 48.7656H40.8154C41.0879 50.1468 41.6173 51.4779 42.3865 52.679Z" fill="#F3263D"/>
<path d="M69.3784 48.0334C67.4983 46.1705 64.7042 44.423 61.5107 43.1126C58.3894 41.8318 55.2398 41.1139 52.6157 41.082L52.2828 41.4757C48.7067 45.7052 48.7094 51.8429 52.2893 56.0697L52.6162 56.4558C55.7158 56.4333 58.7398 55.8272 61.6067 54.6505C64.5283 53.4513 67.1431 51.7201 69.3784 49.505C69.7886 49.0985 69.7886 48.4398 69.3784 48.0334Z" fill="#FFDECC"/>
<path d="M49.6025 48.7656C49.6027 51.3586 50.4983 53.9515 52.2893 56.0661L52.6162 56.4522C55.7158 56.4297 58.7398 55.8236 61.6067 54.6469C64.5283 53.4477 67.1431 51.7165 69.3784 49.5014C69.5834 49.2983 69.686 49.032 69.686 48.7656H49.6025Z" fill="#FFCFB5"/>
<path d="M57.3059 50.4051C58.2089 50.4051 58.9409 49.6726 58.9409 48.7689C58.9409 47.8653 58.2089 47.1328 57.3059 47.1328C56.4029 47.1328 55.6709 47.8653 55.6709 48.7689C55.6709 49.6726 56.4029 50.4051 57.3059 50.4051Z" fill="#282A52"/>
<path d="M57.3059 50.4057C58.2089 50.4057 58.9409 49.6731 58.9409 48.7695H55.6709C55.6709 49.6731 56.4029 50.4057 57.3059 50.4057Z" fill="#1E203E"/>
<path d="M61.6972 67.7294C63.0371 66.3609 63.636 64.6079 63.6664 64.517C63.8326 64.02 63.6003 63.4781 63.1237 63.2514C62.9958 63.1906 59.9615 61.7747 57.2749 62.8767C56.024 63.3897 55.0719 64.437 54.4463 65.3236L50.0223 63.1333C49.542 62.8954 49.134 62.5622 48.816 62.1634L39.2051 62.0117C40.0132 63.3802 41.0212 64.6191 42.2164 65.708C43.8414 67.1886 45.7158 68.3061 47.7876 69.0296C49.5098 69.631 51.2983 69.9337 53.1209 69.9337C53.5058 69.9337 53.8923 69.9194 54.2799 69.8923C54.8971 70.822 55.9076 72.0213 57.2749 72.5821C58.0231 72.889 58.7981 73.0006 59.5301 73.0006C61.4261 73.0005 63.0315 72.2513 63.1237 72.2073C63.6003 71.9806 63.8326 71.4386 63.6664 70.9417C63.636 70.8509 63.0371 69.0979 61.6972 67.7294Z" fill="#F54B5E"/>
<path d="M38.5 129.25C38.5 129.985 38.3601 130.72 38.045 131.35L35.3151 134.045C34.6849 134.36 33.9851 134.5 33.25 134.5C30.3449 134.5 28 132.155 28 129.25C28 126.345 30.3449 124 33.25 124C36.1551 124 38.5 126.345 38.5 129.25Z" fill="#40D98D"/>
<path d="M84 129.25C84 132.155 81.6551 134.5 78.75 134.5C78.0149 134.5 77.2801 134.36 76.6501 134.045L73.955 131.35C73.6399 130.72 73.5 129.985 73.5 129.25C73.5 126.345 75.8449 124 78.75 124C81.6551 124 84 126.345 84 129.25Z" fill="#25BB71"/>
<path d="M38.5 174.75C38.5 177.655 36.1551 180 33.25 180C30.3449 180 28 177.655 28 174.75C28 171.845 30.3449 169.5 33.25 169.5C34.0199 169.5 34.7199 169.675 35.385 169.955L38.01 172.615C38.325 173.28 38.5 173.98 38.5 174.75Z" fill="#40D98D"/>
<path d="M84 174.75C84 177.655 81.6551 180 78.75 180C75.8449 180 73.5 177.655 73.5 174.75C73.5 173.98 73.675 173.28 73.955 172.615L76.615 169.99C77.28 169.675 77.98 169.5 78.75 169.5C81.6551 169.5 84 171.845 84 174.75Z" fill="#25BB71"/>
<path d="M74.0942 159.807C73.7443 157.427 73.4993 154.802 73.4993 152.002C73.4993 144.092 75.4593 137.407 76.6495 134.047L73.9543 131.352C70.6293 132.542 64.0493 134.502 55.9993 134.502C53.3743 134.502 45.3243 134.082 38.0443 131.352L35.3145 134.047C38.0093 141.187 38.4993 149.307 38.4993 152.002C38.4993 159.982 36.5393 166.597 35.3843 169.957L38.0093 172.617H38.0795C43.1895 170.832 49.5592 169.502 55.9993 169.502C63.9795 169.502 70.5942 171.462 73.9543 172.617L76.6143 169.992C76.1593 168.697 75.1093 165.512 74.3743 161.347C74.2692 160.857 74.1993 160.332 74.0942 159.807ZM45.3595 136.952C45.7445 138.492 46.1293 140.382 46.4445 142.446C44.3793 142.132 42.4895 141.747 40.9495 141.361C40.5295 139.052 40.0043 137.092 39.5493 135.552C41.0893 136.007 43.0493 136.532 45.3595 136.952ZM45.3595 167.052C43.0493 167.472 41.0893 167.997 39.5493 168.452C40.0043 166.912 40.5295 164.952 40.9495 162.642C42.5245 162.257 44.4145 161.872 46.4796 161.522C46.1293 163.587 45.7443 165.477 45.3595 167.052ZM46.9342 157.952C44.9742 158.196 43.1543 158.547 41.5443 158.932C41.7543 157.321 41.8942 155.571 41.9643 153.752H47.1442C47.1095 155.187 47.0743 156.622 46.9342 157.952ZM41.9643 150.252C41.8942 148.432 41.7543 146.682 41.5443 145.072C43.1193 145.422 44.9395 145.772 46.8995 146.052C47.0393 147.417 47.1442 148.817 47.1793 150.252H41.9643ZM54.2493 166.037C52.4292 166.107 50.6792 166.247 49.0695 166.457C49.4193 164.847 49.8043 163.062 50.0493 161.067C51.4143 160.927 52.8145 160.822 54.2493 160.787V166.037ZM54.2493 157.287C52.9543 157.321 51.6945 157.392 50.4692 157.531C50.5743 156.342 50.6093 155.047 50.6442 153.752H54.2493V157.287ZM54.2493 150.252H50.6792C50.6442 148.957 50.5743 147.697 50.4692 146.472C51.6943 146.577 52.9543 146.647 54.2493 146.682V150.252ZM54.2493 143.182C52.8145 143.147 51.4143 143.042 50.0493 142.901C49.7692 140.941 49.4193 139.122 49.0695 137.547C50.6793 137.757 52.4293 137.896 54.2493 137.967V143.182ZM57.7493 146.682C59.0443 146.647 60.3042 146.577 61.5295 146.472C61.4243 147.696 61.3545 148.957 61.3195 150.252H57.7493V146.682ZM57.7493 153.752H61.3545C61.3892 155.047 61.4243 156.342 61.5295 157.532C60.3043 157.392 59.0443 157.322 57.7493 157.287V153.752ZM57.7493 166.037V160.787C59.1842 160.821 60.5843 160.927 61.9493 161.067C62.1943 163.062 62.5793 164.847 62.9292 166.457C61.3195 166.247 59.5695 166.107 57.7493 166.037ZM61.9493 142.902C60.5843 143.042 59.1842 143.147 57.7493 143.182V137.967C59.5695 137.897 61.3195 137.757 62.9292 137.547C62.5793 139.122 62.2295 140.942 61.9493 142.902ZM65.0992 146.052C67.0592 145.772 68.8793 145.422 70.4543 145.072C70.2443 146.682 70.1045 148.432 70.0343 150.252H64.8193C64.8545 148.817 64.9593 147.417 65.0992 146.052ZM64.8545 153.752H70.0343C70.1045 155.572 70.2443 157.322 70.4543 158.932C68.8442 158.547 67.0245 158.196 65.0645 157.952C64.9243 156.622 64.8892 155.187 64.8545 153.752ZM66.6392 167.052C66.2542 165.477 65.8693 163.587 65.5192 161.522C67.5843 161.872 69.4742 162.257 71.0493 162.642C71.4693 164.952 71.9945 166.912 72.4495 168.452C70.9093 167.997 68.9493 167.472 66.6392 167.052ZM71.0493 141.362C69.5093 141.747 67.6195 142.132 65.5543 142.447C65.8695 140.382 66.2543 138.492 66.6393 136.952C68.9495 136.532 70.9095 136.007 72.4495 135.552C71.9943 137.092 71.4692 139.052 71.0493 141.362Z" fill="#157DF5"/>
<path fill-rule="evenodd" clip-rule="evenodd" d="M56 169.502C63.98 169.502 70.5947 171.462 73.9548 172.617L76.6148 169.992C76.1598 168.697 75.1098 165.512 74.3748 161.347C74.3182 161.082 74.2718 160.808 74.2246 160.529C74.1842 160.291 74.1432 160.049 74.0947 159.807C73.7448 157.427 73.4998 154.802 73.4998 152.002C73.4998 144.092 75.4598 137.407 76.6499 134.047L73.9548 131.352C70.6299 132.542 64.0499 134.502 56 134.502V169.502ZM61.5299 146.472C60.3047 146.577 59.0448 146.647 57.7498 146.682V150.252H61.3199C61.3549 148.957 61.4248 147.696 61.5299 146.472ZM61.3549 153.752H57.7498V157.287C59.0448 157.322 60.3048 157.392 61.5299 157.532C61.4248 156.342 61.3897 155.047 61.3549 153.752ZM57.7498 160.787V166.037C59.5699 166.107 61.3199 166.247 62.9297 166.457C62.5798 164.847 62.1948 163.062 61.9498 161.067C60.5848 160.927 59.1847 160.821 57.7498 160.787ZM57.7498 143.182C59.1847 143.147 60.5848 143.042 61.9498 142.902C62.2299 140.942 62.5798 139.122 62.9297 137.547C61.3199 137.757 59.5699 137.897 57.7498 137.967V143.182ZM70.4548 145.072C68.8798 145.422 67.0597 145.772 65.0997 146.052C64.9598 147.417 64.8549 148.817 64.8198 150.252H70.0348C70.1049 148.432 70.2448 146.682 70.4548 145.072ZM70.0348 153.752H64.8549C64.8897 155.187 64.9248 156.622 65.0649 157.952C67.0249 158.196 68.8447 158.547 70.4548 158.932C70.2448 157.322 70.1049 155.572 70.0348 153.752ZM65.5197 161.522C65.8698 163.587 66.2547 165.477 66.6397 167.052C68.9498 167.472 70.9098 167.997 72.4499 168.452C71.9949 166.912 71.4698 164.952 71.0498 162.642C69.4747 162.257 67.5848 161.872 65.5197 161.522ZM65.5548 142.447C67.6199 142.132 69.5098 141.747 71.0498 141.362C71.4697 139.052 71.9948 137.092 72.4499 135.552C70.9099 136.007 68.9499 136.532 66.6398 136.952C66.2548 138.492 65.8699 140.382 65.5548 142.447Z" fill="#0965CD"/>
<path d="M67.321 146.4C66.4081 146.4 65.668 145.667 65.668 144.763C65.668 143.86 66.4081 143.127 67.321 143.127C69.1813 143.127 70.6947 141.628 70.6947 139.786C70.6947 134.541 66.3851 130.274 61.0877 130.274H51.8835C50.9706 130.274 50.2305 129.541 50.2305 128.637C50.2305 127.733 50.9706 127 51.8835 127H61.0877C68.208 127 74.0006 132.736 74.0006 139.786C74.0006 143.433 71.0042 146.4 67.321 146.4Z" fill="white"/>
<path d="M65.6699 144.77C65.6717 145.672 66.4109 146.403 67.3228 146.403C69.0012 146.403 70.536 145.785 71.7106 144.77H65.6699Z" fill="white"/>
<path d="M67.4961 151.295C64.144 151.295 61.37 148.69 61.1805 145.366C61.1292 144.463 61.8264 143.69 62.7379 143.639C63.65 143.589 64.43 144.279 64.4813 145.181C64.5719 146.774 65.8962 148.021 67.4959 148.021C68.4088 148.021 69.1489 148.754 69.1489 149.658C69.1489 150.562 68.409 151.295 67.4961 151.295Z" fill="white"/>
<path d="M60.4564 155.938C60.208 155.938 59.9558 155.883 59.7185 155.765C57.058 154.448 53.8475 151.591 53.5549 147.873C53.484 146.972 54.1644 146.184 55.0745 146.114C55.983 146.045 56.78 146.718 56.8509 147.619C57.0233 149.811 59.2246 151.861 61.197 152.837C62.0135 153.242 62.3445 154.225 61.9362 155.033C61.6466 155.607 61.0627 155.938 60.4564 155.938Z" fill="white"/>
<path d="M60.4564 155.938C60.208 155.938 59.9558 155.883 59.7185 155.765C57.058 154.448 53.8475 151.591 53.5549 147.873C53.484 146.972 54.1644 146.184 55.0745 146.114C55.983 146.045 56.78 146.718 56.8509 147.619C57.0233 149.811 59.2246 151.861 61.197 152.837C62.0135 153.242 62.3445 154.225 61.9362 155.033C61.6466 155.607 61.0627 155.938 60.4564 155.938Z" fill="white"/>
<path fill-rule="evenodd" clip-rule="evenodd" d="M34 149.943C34 152.649 34.5642 155.275 35.6775 157.729C35.9611 158.355 36.2766 158.959 36.6207 159.541L37.1187 160.384L37.1666 160.405C38.024 161.692 39.0377 162.87 40.1959 163.926C42.1193 165.678 44.3444 167.005 46.7985 167.862C48.7497 168.543 50.776 168.901 52.8372 168.932C53.6316 169.828 54.7242 170.779 56.1364 171.358C57.3221 171.844 58.4995 172.001 59.5301 172.001C62.0982 172 64.19 171.022 64.4123 170.917C66.2437 170.045 67.1639 167.941 66.5114 165.99L66.5109 165.988C66.4688 165.863 66.1427 164.896 65.4431 163.729C66.1427 162.562 66.4689 161.596 66.5111 161.47L66.5114 161.469C67.1639 159.518 66.2429 157.413 64.4115 156.542C64.2284 156.455 63.2576 156.009 61.8987 155.718C61.6256 155.659 61.3253 155.604 61.0028 155.56C60.9356 155.089 60.8242 154.627 60.672 154.181C61.1651 154.023 61.6546 153.852 62.1402 153.666C62.3428 153.588 62.5447 153.508 62.7457 153.426C62.8921 153.366 63.0378 153.304 63.1829 153.242C64.4768 153.915 65.9457 154.295 67.496 154.295C70.038 154.295 72.1489 152.246 72.1489 149.658C72.1489 149.162 72.0713 148.685 71.9279 148.239C74.938 146.616 77.0006 143.45 77.0006 139.786C77.0006 131.051 69.8369 124 61.0877 124H51.8834C49.3416 124 47.2304 126.048 47.2304 128.637C47.2304 131.225 49.3416 133.273 51.8834 133.273H61.0877C64.4425 133.273 67.1867 135.742 67.6315 138.888C66.1106 137.927 64.4233 137.065 62.6495 136.337C60.3126 135.378 57.9035 134.685 55.6164 134.336L52.6479 134.08L52.5623 134.079C52.5226 134.078 52.4791 134.078 52.4348 134.078H49.987C45.5287 134.078 41.4865 135.901 38.587 138.829L37.8778 139.545L37.8695 139.608C35.4653 142.379 34 145.992 34 149.943Z" fill="white"/>
<path fill-rule="evenodd" clip-rule="evenodd" d="M50.5643 148.108C50.3613 145.527 52.3075 143.319 54.8441 143.123L54.8462 143.123C57.3717 142.93 59.6385 144.801 59.8419 147.384C59.8573 147.579 60.0063 148.041 60.578 148.676C61.1253 149.284 61.8572 149.817 62.5281 150.149C64.8227 151.285 65.7812 154.075 64.6143 156.385C63.7899 158.018 62.1396 158.938 60.4566 158.938C59.7582 158.938 59.0491 158.781 58.3877 158.454M55.0745 146.114C55.983 146.045 56.78 146.718 56.8509 147.619C57.0233 149.811 59.2246 151.861 61.197 152.837C62.0135 153.242 62.3445 154.225 61.9362 155.033C61.6466 155.607 61.0627 155.938 60.4564 155.938C60.208 155.938 59.9558 155.883 59.7185 155.765C57.058 154.448 53.8475 151.591 53.5549 147.873C53.484 146.972 54.1644 146.184 55.0745 146.114ZM50.5643 148.108C50.979 153.378 55.3381 156.944 58.3877 158.454L50.5643 148.108Z" fill="white"/>
<path d="M53.4221 158.267C53.2488 158.267 53.0725 158.24 52.8992 158.183C50.8878 157.519 49.0826 156.166 47.8159 154.375C46.5831 152.631 45.9043 150.545 45.9043 148.5C45.9043 147.596 46.6444 146.863 47.5573 146.863C48.4702 146.863 49.2103 147.596 49.2103 148.5C49.2103 151.405 51.2012 154.172 53.9445 155.077C54.8106 155.363 55.2786 156.29 54.99 157.147C54.7591 157.833 54.1142 158.267 53.4221 158.267Z" fill="white"/>
<path d="M49.0262 153.568L40.7178 140.945C38.4195 143.266 36.9998 146.443 36.9998 149.943C36.9998 152.225 37.4741 154.428 38.4094 156.49C38.6475 157.015 38.913 157.523 39.2036 158.015L39.5312 158.156C40.9986 158.787 42.564 159.105 44.1293 159.105C45.3081 159.105 46.4869 158.925 47.6234 158.562L48.8145 158.167C48.329 157.558 48.0535 156.797 48.0535 155.985C48.0536 155.05 48.4239 154.2 49.0262 153.568Z" fill="white"/>
<path d="M69.3782 144.033C67.4981 142.171 64.704 140.423 61.5105 139.113C58.3892 137.832 55.2396 137.114 52.6155 137.082L52.2826 137.476C48.7065 141.705 48.7092 147.843 52.2891 152.07L52.616 152.456C55.7156 152.433 58.7396 151.827 61.6065 150.65C64.5281 149.451 67.1429 147.72 69.3782 145.505C69.7884 145.099 69.7884 144.44 69.3782 144.033Z" fill="white"/>
<path d="M36.9998 149.936C36.9998 152.219 37.4741 154.421 38.4094 156.483C38.6475 157.008 38.913 157.517 39.2036 158.009L39.5312 158.15C40.9986 158.781 42.564 159.099 44.1293 159.099C45.3081 159.099 46.4869 158.918 47.6234 158.555L48.8145 158.161C48.329 157.552 48.0535 156.79 48.0535 155.978C48.0535 155.043 48.4239 154.193 49.0261 153.561L43.2367 144.766H38.0973C37.3921 146.349 36.9998 148.098 36.9998 149.936Z" fill="white"/>
<path d="M52.6162 137.08C52.5555 137.079 52.4948 137.078 52.4347 137.078H49.9868C46.3603 137.078 43.0768 138.558 40.7185 140.94L40.6761 141.306C40.3788 143.874 40.9865 146.492 42.3875 148.68C43.7967 150.881 45.9488 152.547 48.4473 153.371L49.0269 153.563C49.6763 152.882 50.5952 152.455 51.6133 152.455H52.4383C52.4979 152.455 52.5573 152.454 52.6168 152.453L52.6162 137.08Z" fill="white"/>
<path d="M42.3865 148.679C43.7958 150.88 45.9478 152.546 48.4463 153.37L49.0261 153.561C49.6754 152.881 50.5942 152.454 51.6123 152.454H52.4373C52.4969 152.454 52.5563 152.453 52.6158 152.452L52.6155 144.766H40.8155C41.0879 146.147 41.6174 147.478 42.3865 148.679Z" fill="white"/>
<path d="M69.3782 144.033C67.4981 142.171 64.704 140.423 61.5105 139.113C58.3892 137.832 55.2396 137.114 52.6155 137.082L52.2826 137.476C48.7065 141.705 48.7092 147.843 52.2891 152.07L52.616 152.456C55.7156 152.433 58.7396 151.827 61.6065 150.65C64.5281 149.451 67.1429 147.72 69.3782 145.505C69.7884 145.099 69.7884 144.44 69.3782 144.033Z" fill="white"/>
<path d="M49.6024 144.766C49.6025 147.359 50.4981 149.952 52.2891 152.066L52.6158 152.452C55.7154 152.43 58.7396 151.824 61.6065 150.647C64.5281 149.448 67.1429 147.716 69.3782 145.501C69.5832 145.298 69.6858 145.032 69.6858 144.766H49.6024Z" fill="white"/>
<path d="M57.3057 146.405C58.2087 146.405 58.9407 145.673 58.9407 144.769C58.9407 143.865 58.2087 143.133 57.3057 143.133C56.4027 143.133 55.6707 143.865 55.6707 144.769C55.6707 145.673 56.4027 146.405 57.3057 146.405Z" fill="white"/>
<path d="M57.3057 146.405C58.2087 146.405 58.9407 145.673 58.9407 144.769H55.6707C55.6707 145.673 56.4027 146.405 57.3057 146.405Z" fill="white"/>
<path d="M61.6969 163.729C63.0368 162.361 63.6357 160.608 63.6661 160.517C63.8324 160.02 63.6 159.478 63.1234 159.251C62.9955 159.191 59.9612 157.775 57.2746 158.877C56.0237 159.39 55.0716 160.437 54.446 161.324L50.022 159.133C49.5417 158.895 49.1337 158.562 48.8157 158.163L39.2048 158.012C40.0129 159.38 41.0209 160.619 42.2161 161.708C43.8411 163.189 45.7155 164.306 47.7873 165.03C49.5095 165.631 51.298 165.934 53.1206 165.934C53.5055 165.934 53.892 165.919 54.2796 165.892C54.8968 166.822 55.9073 168.021 57.2746 168.582C58.0228 168.889 58.7978 169.001 59.5298 169.001C61.4258 169 63.0312 168.251 63.1234 168.207C63.6 167.981 63.8324 167.439 63.6661 166.942C63.6357 166.851 63.0368 165.098 61.6969 163.729Z" fill="white"/>
<path d="M67.321 146.4C66.4081 146.4 65.668 145.667 65.668 144.763C65.668 143.86 66.4081 143.127 67.321 143.127C69.1813 143.127 70.6947 141.628 70.6947 139.786C70.6947 134.541 66.3851 130.274 61.0877 130.274H51.8835C50.9706 130.274 50.2305 129.541 50.2305 128.637C50.2305 127.733 50.9706 127 51.8835 127H61.0877C68.208 127 74.0006 132.736 74.0006 139.786C74.0006 143.433 71.0042 146.4 67.321 146.4Z" fill="#FFDECC"/>
<path d="M65.6699 144.77C65.6717 145.672 66.4109 146.403 67.3228 146.403C69.0012 146.403 70.536 145.785 71.7106 144.77H65.6699Z" fill="#FFCFB5"/>
<path d="M67.4959 151.295C64.1439 151.295 61.3698 148.69 61.1804 145.366C61.129 144.463 61.8263 143.69 62.7377 143.639C63.6498 143.589 64.4298 144.279 64.4812 145.181C64.5718 146.774 65.896 148.021 67.4958 148.021C68.4087 148.021 69.1488 148.754 69.1488 149.658C69.1488 150.562 68.4088 151.295 67.4959 151.295Z" fill="#FFDECC"/>
<path d="M60.4564 155.938C60.208 155.938 59.9558 155.883 59.7185 155.765C57.058 154.448 53.8475 151.591 53.5549 147.873C53.484 146.972 54.1644 146.184 55.0745 146.114C55.983 146.045 56.78 146.718 56.8509 147.619C57.0233 149.811 59.2246 151.861 61.197 152.837C62.0135 153.242 62.3445 154.225 61.9362 155.033C61.6466 155.607 61.0627 155.938 60.4564 155.938Z" fill="#FFDECC"/>
<path d="M53.4221 158.267C53.2488 158.267 53.0725 158.24 52.8992 158.183C50.8878 157.519 49.0825 156.166 47.8159 154.375C46.5831 152.631 45.9043 150.545 45.9043 148.5C45.9043 147.596 46.6444 146.863 47.5573 146.863C48.4702 146.863 49.2103 147.596 49.2103 148.5C49.2103 151.406 51.2012 154.172 53.9445 155.077C54.8106 155.363 55.2786 156.29 54.99 157.147C54.7591 157.833 54.1142 158.267 53.4221 158.267Z" fill="#FFDECC"/>
<path d="M49.0263 153.568L40.718 140.945C38.4197 143.266 37 146.443 37 149.943C37 152.225 37.4743 154.428 38.4096 156.49C38.6477 157.015 38.9131 157.523 39.2038 158.015L39.5314 158.156C40.9988 158.787 42.5642 159.105 44.1295 159.105C45.3083 159.105 46.4871 158.925 47.6236 158.562L48.8147 158.167C48.3292 157.558 48.0537 156.797 48.0537 155.985C48.0538 155.05 48.4241 154.2 49.0263 153.568Z" fill="#FFDECC"/>
<path d="M69.3784 144.033C67.4983 142.171 64.7042 140.423 61.5107 139.113C58.3894 137.832 55.2398 137.114 52.6157 137.082L52.2828 137.476C48.7067 141.705 48.7094 147.843 52.2893 152.07L52.6162 152.456C55.7158 152.433 58.7398 151.827 61.6067 150.65C64.5283 149.451 67.1431 147.72 69.3784 145.505C69.7886 145.099 69.7886 144.44 69.3784 144.033Z" fill="#157DF5"/>
<path d="M37 149.936C37 152.219 37.4743 154.421 38.4096 156.483C38.6477 157.008 38.9131 157.517 39.2038 158.009L39.5314 158.15C40.9988 158.781 42.5642 159.099 44.1295 159.099C45.3083 159.099 46.4871 158.918 47.6236 158.555L48.8147 158.161C48.3292 157.552 48.0537 156.79 48.0537 155.978C48.0537 155.043 48.424 154.193 49.0263 153.561L43.2369 144.766H38.0974C37.3923 146.349 37 148.098 37 149.936Z" fill="#FFCFB5"/>
<path d="M52.6164 137.08C52.5557 137.079 52.495 137.078 52.4349 137.078H49.987C46.3605 137.078 43.077 138.558 40.7187 140.94L40.6763 141.306C40.3789 143.874 40.9867 146.492 42.3877 148.68C43.7969 150.881 45.949 152.547 48.4475 153.371L49.0271 153.563C49.6764 152.882 50.5954 152.455 51.6135 152.455H52.4385C52.4981 152.455 52.5574 152.454 52.6169 152.453L52.6164 137.08Z" fill="#F54B5E"/>
<path d="M42.3865 148.679C43.7957 150.88 45.9478 152.546 48.4463 153.37L49.0259 153.561C49.6753 152.881 50.5942 152.454 51.6123 152.454H52.4373C52.4969 152.454 52.5562 152.453 52.6157 152.452L52.6155 144.766H40.8154C41.0879 146.147 41.6173 147.478 42.3865 148.679Z" fill="#F3263D"/>
<path d="M69.3784 144.033C67.4983 142.171 64.7042 140.423 61.5107 139.113C58.3894 137.832 55.2398 137.114 52.6157 137.082L52.2828 137.476C48.7067 141.705 48.7094 147.843 52.2893 152.07L52.6162 152.456C55.7158 152.433 58.7398 151.827 61.6067 150.65C64.5283 149.451 67.1431 147.72 69.3784 145.505C69.7886 145.099 69.7886 144.44 69.3784 144.033Z" fill="#FFDECC"/>
<path d="M49.6025 144.766C49.6027 147.359 50.4983 149.952 52.2893 152.066L52.6162 152.452C55.7158 152.43 58.7398 151.824 61.6067 150.647C64.5283 149.448 67.1431 147.716 69.3784 145.501C69.5834 145.298 69.686 145.032 69.686 144.766H49.6025Z" fill="#FFCFB5"/>
<path d="M57.3059 146.405C58.2089 146.405 58.9409 145.673 58.9409 144.769C58.9409 143.865 58.2089 143.133 57.3059 143.133C56.4029 143.133 55.6709 143.865 55.6709 144.769C55.6709 145.673 56.4029 146.405 57.3059 146.405Z" fill="#282A52"/>
<path d="M57.3059 146.406C58.2089 146.406 58.9409 145.673 58.9409 144.77H55.6709C55.6709 145.673 56.4029 146.406 57.3059 146.406Z" fill="#1E203E"/>
<path d="M61.6972 163.729C63.0371 162.361 63.636 160.608 63.6664 160.517C63.8326 160.02 63.6003 159.478 63.1237 159.251C62.9958 159.191 59.9615 157.775 57.2749 158.877C56.024 159.39 55.0719 160.437 54.4463 161.324L50.0223 159.133C49.542 158.895 49.134 158.562 48.816 158.163L39.2051 158.012C40.0132 159.38 41.0212 160.619 42.2164 161.708C43.8414 163.189 45.7158 164.306 47.7876 165.03C49.5098 165.631 51.2983 165.934 53.1209 165.934C53.5058 165.934 53.8923 165.919 54.2799 165.892C54.8971 166.822 55.9076 168.021 57.2749 168.582C58.0231 168.889 58.7981 169.001 59.5301 169.001C61.4261 169 63.0315 168.251 63.1237 168.207C63.6003 167.981 63.8326 167.439 63.6664 166.942C63.636 166.851 63.0371 165.098 61.6972 163.729Z" fill="#F54B5E"/>
<defs>
<filter id="filter0_dd_11513_74077" x="6" y="9" width="100" height="100" filterUnits="userSpaceOnUse" color-interpolation-filters="sRGB">
<feFlood flood-opacity="0" result="BackgroundImageFix"/>
<feColorMatrix in="SourceAlpha" type="matrix" values="0 0 0 0 0 0 0 0 0 0 0 0 0 0 0 0 0 0 127 0" result="hardAlpha"/>
<feOffset dy="3"/>
<feGaussianBlur stdDeviation="5"/>
<feColorMatrix type="matrix" values="0 0 0 0 0.516667 0 0 0 0 0.578358 0 0 0 0 0.775 0 0 0 0.12 0"/>
<feBlend mode="normal" in2="BackgroundImageFix" result="effect1_dropShadow_11513_74077"/>
<feColorMatrix in="SourceAlpha" type="matrix" values="0 0 0 0 0 0 0 0 0 0 0 0 0 0 0 0 0 0 127 0" result="hardAlpha"/>
<feOffset dy="1"/>
<feGaussianBlur stdDeviation="3"/>
<feColorMatrix type="matrix" values="0 0 0 0 0.709809 0 0 0 0 0.788943 0 0 0 0 0.920833 0 0 0 0.15 0"/>
<feBlend mode="normal" in2="effect1_dropShadow_11513_74077" result="effect2_dropShadow_11513_74077"/>
<feBlend mode="normal" in="SourceGraphic" in2="effect2_dropShadow_11513_74077" result="shape"/>
</filter>
</defs>
</svg>
