<svg width="112" height="208" viewBox="0 0 112 208" fill="none" xmlns="http://www.w3.org/2000/svg">
<rect x="0.5" y="0.5" width="111" height="207" rx="4.5" stroke="#9747FF" stroke-dasharray="10 5"/>
<g filter="url(#filter0_dd_19799_58011)">
<rect x="16" y="16" width="80" height="80" rx="8" fill="white"/>
</g>
<path d="M47.8047 70.9631H64.1974V83.0473H47.8047V70.9631Z" fill="#E2EFFE"/>
<path d="M55.9961 70.9631H64.1956V83.0473H55.9961V70.9631Z" fill="#B6D7FC"/>
<path d="M78.6411 71.6493H33.3601C31.3059 71.6493 29.6406 69.9837 29.6406 67.9289V33.361C29.6406 31.3063 31.3059 29.6406 33.3601 29.6406H78.6411C80.6954 29.6406 82.3606 31.3063 82.3606 33.361V67.9289C82.3606 69.9836 80.6953 71.6493 78.6411 71.6493Z" fill="white"/>
<path d="M78.6398 29.6406H55.9961V71.6493H78.6397C80.694 71.6493 82.3592 69.9837 82.3592 67.9289V33.361C82.3593 31.3063 80.694 29.6406 78.6398 29.6406Z" fill="#F0F7FE"/>
<path d="M68.9713 80.7188H43.0267C42.121 80.7188 41.3867 81.453 41.3867 82.3587C41.3867 83.2645 42.121 83.9987 43.0267 83.9987H68.9712C69.8769 83.9987 70.6112 83.2645 70.6112 82.3587C70.6112 81.453 69.877 80.7188 68.9713 80.7188Z" fill="#157DF5"/>
<path d="M29.6602 69.4156C29.6602 70.3527 30.6484 71.1152 31.8632 71.1152H79.834C81.0488 71.1152 82.0371 70.3527 82.0371 69.4156V63.2891H29.6602V69.4156Z" fill="#F0F7FE"/>
<path d="M68.9716 80.7188H55.9961V83.9987H68.9715C69.8772 83.9987 70.6115 83.2645 70.6115 82.3587C70.6115 81.453 69.8773 80.7188 68.9716 80.7188Z" fill="#0965CD"/>
<path d="M55.9434 71.1152H79.8327C81.0475 71.1152 82.0358 70.3527 82.0358 69.4156V63.2891H55.9434V71.1152Z" fill="#E2EFFE"/>
<path d="M78.6405 73.2893H33.3595C30.4042 73.2893 28 70.8845 28 67.9286V33.3607C28 30.4049 30.4042 28 33.3595 28H78.6405C81.5958 28 84 30.4048 84 33.3607V67.9287C84 70.8845 81.5958 73.2893 78.6405 73.2893ZM33.3595 31.2807C32.2128 31.2807 31.28 32.2138 31.28 33.3607V67.9287C31.28 69.0755 32.2128 70.0087 33.3595 70.0087H78.6405C79.7872 70.0087 80.72 69.0756 80.72 67.9287V33.3607C80.72 32.2139 79.7872 31.2807 78.6405 31.2807H33.3595Z" fill="#157DF5"/>
<path d="M78.6398 28H55.9961V31.2807H78.6397C79.7864 31.2807 80.7192 32.2138 80.7192 33.3607V67.9287C80.7192 69.0755 79.7864 70.0087 78.6397 70.0087H55.9961V73.2894H78.6397C81.595 73.2894 83.9992 70.8846 83.9992 67.9287V33.3607C83.9993 30.4049 81.5951 28 78.6398 28Z" fill="#0965CD"/>
<rect x="44.5713" y="48.5703" width="6.42899" height="6.42899" rx="1.6001" fill="#22AB68"/>
<rect x="36" y="40" width="6.42899" height="6.42899" rx="1.60725" fill="#157DF5"/>
<rect x="36" y="48.5703" width="6.42899" height="6.42899" rx="1.60725" fill="#157DF5"/>
<rect x="44.5713" y="40" width="6.42899" height="6.42899" rx="1.60725" fill="#0965CD"/>
<path d="M74.321 58.4002C73.4081 58.4002 72.668 57.6674 72.668 56.7634C72.668 55.8595 73.4081 55.1267 74.321 55.1267C76.1813 55.1267 77.6947 53.6282 77.6947 51.7862C77.6947 46.5409 73.3851 42.2735 68.0877 42.2735H58.8835C57.9706 42.2735 57.2305 41.5407 57.2305 40.6368C57.2305 39.7328 57.9706 39 58.8835 39H68.0877C75.208 39 81.0006 44.7359 81.0006 51.7862C81.0006 55.4332 78.0042 58.4002 74.321 58.4002Z" fill="white"/>
<path d="M72.6699 56.7695C72.6717 57.6719 73.4109 58.403 74.3228 58.403C76.0012 58.403 77.536 57.7854 78.7106 56.7695H72.6699Z" fill="white"/>
<path d="M74.4961 63.2947C71.144 63.2947 68.37 60.6903 68.1805 57.3655C68.1292 56.463 68.8264 55.6901 69.7379 55.6393C70.65 55.5892 71.43 56.2788 71.4813 57.1813C71.5719 58.7738 72.8962 60.0212 74.4959 60.0212C75.4088 60.0212 76.1489 60.754 76.1489 61.658C76.1489 62.5619 75.409 63.2947 74.4961 63.2947Z" fill="white"/>
<path d="M67.4564 67.9384C67.208 67.9384 66.9558 67.8827 66.7185 67.7652C64.058 66.448 60.8475 63.5908 60.5549 59.8733C60.484 58.9721 61.1644 58.1845 62.0745 58.1143C62.983 58.0449 63.78 58.7177 63.8509 59.619C64.0233 61.8113 66.2246 63.8609 68.197 64.8372C69.0135 65.2415 69.3445 66.2247 68.9362 67.0332C68.6466 67.6067 68.0627 67.9384 67.4564 67.9384Z" fill="white"/>
<path d="M67.4564 67.9384C67.208 67.9384 66.9558 67.8827 66.7185 67.7652C64.058 66.448 60.8475 63.5908 60.5549 59.8733C60.484 58.9721 61.1644 58.1845 62.0745 58.1143C62.983 58.0449 63.78 58.7177 63.8509 59.619C64.0233 61.8113 66.2246 63.8609 68.197 64.8372C69.0135 65.2415 69.3445 66.2247 68.9362 67.0332C68.6466 67.6067 68.0627 67.9384 67.4564 67.9384Z" fill="white"/>
<path fill-rule="evenodd" clip-rule="evenodd" d="M41 61.9427C41 64.649 41.5642 67.2748 42.6775 69.7292C42.9611 70.3546 43.2766 70.9586 43.6207 71.5411L44.1187 72.3843L44.1666 72.405C45.024 73.692 46.0377 74.8704 47.1959 75.9256C49.1193 77.678 51.3444 79.0048 53.7985 79.8618C55.7497 80.5432 57.776 80.9015 59.8372 80.9316C60.6316 81.8284 61.7242 82.7785 63.1364 83.3577C64.3221 83.8439 65.4995 84.0006 66.5301 84.0005C69.0982 84.0004 71.19 83.0223 71.4123 82.9165C73.2437 82.0453 74.1639 79.9407 73.5114 77.99L73.5109 77.9885C73.4688 77.8629 73.1427 76.8965 72.4431 75.7294C73.1427 74.5623 73.4689 73.5957 73.5111 73.4696L73.5114 73.4686C74.1639 71.5179 73.2429 69.413 71.4115 68.5419C71.2284 68.4548 70.2576 68.0088 68.8987 67.7177C68.6256 67.6592 68.3253 67.6045 68.0028 67.5605C67.9356 67.0889 67.8242 66.627 67.672 66.1807C68.1651 66.0235 68.6546 65.8519 69.1402 65.666C69.3428 65.5884 69.5447 65.5083 69.7457 65.4258C69.8921 65.3657 70.0378 65.3044 70.1829 65.2419C71.4768 65.9155 72.9457 66.2948 74.496 66.2948C77.038 66.2948 79.1489 64.2464 79.1489 61.658C79.1489 61.1618 79.0713 60.6854 78.9279 60.2395C81.938 58.6157 84.0006 55.4499 84.0006 51.7861C84.0006 43.0512 76.8369 36 68.0877 36H58.8834C56.3416 36 54.2304 38.0482 54.2304 40.6368C54.2304 43.2254 56.3416 45.2735 58.8834 45.2735H68.0877C71.4425 45.2735 74.1867 47.7422 74.6315 50.8875C73.1106 49.9271 71.4233 49.065 69.6495 48.3372C67.3126 47.3782 64.9035 46.6846 62.6164 46.3359L59.6479 46.0798L59.5623 46.0789C59.5226 46.0784 59.4791 46.0781 59.4348 46.0781H56.987C52.5287 46.0781 48.4865 47.9009 45.587 50.8291L44.8778 51.5453L44.8695 51.6076C42.4653 54.3787 41 57.9925 41 61.9427Z" fill="white"/>
<path fill-rule="evenodd" clip-rule="evenodd" d="M57.5643 60.1084C57.3613 57.5266 59.3075 55.3187 61.8441 55.1232L61.8462 55.123C64.3717 54.9301 66.6385 56.8011 66.8419 59.3835C66.8573 59.5793 67.0063 60.0415 67.578 60.6761C68.1253 61.2835 68.8572 61.8165 69.5281 62.1486C71.8227 63.2847 72.7812 66.0747 71.6143 68.3855C70.7899 70.018 69.1396 70.9384 67.4566 70.9384C66.7582 70.9384 66.0491 70.7813 65.3877 70.4537M62.0745 58.1143C62.983 58.0449 63.78 58.7177 63.8509 59.619C64.0233 61.8113 66.2246 63.8609 68.197 64.8372C69.0135 65.2415 69.3445 66.2247 68.9362 67.0332C68.6466 67.6067 68.0627 67.9384 67.4564 67.9384C67.208 67.9384 66.9558 67.8827 66.7185 67.7652C64.058 66.448 60.8475 63.5908 60.5549 59.8733C60.484 58.9721 61.1644 58.1845 62.0745 58.1143ZM57.5643 60.1084C57.979 65.3778 62.3381 68.9438 65.3877 70.4537L57.5643 60.1084Z" fill="white"/>
<path d="M60.4221 70.2669C60.2488 70.2669 60.0725 70.2397 59.8992 70.1826C57.8878 69.5187 56.0826 68.1663 54.8159 66.3746C53.5831 64.6309 52.9043 62.5446 52.9043 60.5C52.9043 59.5961 53.6444 58.8633 54.5573 58.8633C55.4702 58.8633 56.2103 59.5961 56.2103 60.5C56.2103 63.4055 58.2012 66.1716 60.9445 67.077C61.8106 67.3628 62.2786 68.2898 61.99 69.1474C61.7591 69.833 61.1142 70.2669 60.4221 70.2669Z" fill="white"/>
<path d="M56.0262 65.568L47.7178 52.9453C45.4195 55.2662 43.9998 58.4432 43.9998 61.9427C43.9998 64.2252 44.4741 66.428 45.4094 68.49C45.6475 69.0149 45.913 69.5234 46.2036 70.0155L46.5312 70.1563C47.9986 70.7872 49.564 71.1052 51.1293 71.1052C52.3081 71.1052 53.4869 70.9249 54.6234 70.5621L55.8145 70.1672C55.329 69.5585 55.0535 68.7966 55.0535 67.985C55.0536 67.05 55.4239 66.1995 56.0262 65.568Z" fill="white"/>
<path d="M76.3782 56.0334C74.4981 54.1705 71.704 52.423 68.5105 51.1126C65.3892 49.8318 62.2396 49.1139 59.6155 49.082L59.2826 49.4757C55.7065 53.7052 55.7092 59.8429 59.2891 64.0697L59.616 64.4558C62.7156 64.4333 65.7396 63.8272 68.6065 62.6505C71.5281 61.4513 74.1429 59.7201 76.3782 57.505C76.7884 57.0985 76.7884 56.4398 76.3782 56.0334Z" fill="white"/>
<path d="M43.9998 61.9361C43.9998 64.2186 44.4741 66.4214 45.4094 68.4833C45.6475 69.0083 45.913 69.5168 46.2036 70.0089L46.5312 70.1497C47.9986 70.7806 49.564 71.0985 51.1293 71.0985C52.3081 71.0985 53.4869 70.9182 54.6234 70.5555L55.8145 70.1606C55.329 69.5519 55.0535 68.79 55.0535 67.9783C55.0535 67.0434 55.4239 66.1929 56.0261 65.5614L50.2367 56.7656H45.0973C44.3921 58.3486 43.9998 60.0977 43.9998 61.9361Z" fill="white"/>
<path d="M59.6162 49.0797C59.5555 49.0789 59.4948 49.0781 59.4347 49.0781H56.9868C53.3603 49.0781 50.0768 50.5584 47.7185 52.94L47.6761 53.3062C47.3788 55.8738 47.9865 58.4925 49.3875 60.6801C50.7967 62.8807 52.9488 64.5467 55.4473 65.3713L56.0269 65.5626C56.6763 64.8817 57.5952 64.4555 58.6133 64.4555H59.4383C59.4979 64.4555 59.5573 64.4537 59.6168 64.4533L59.6162 49.0797Z" fill="white"/>
<path d="M49.3865 60.679C50.7958 62.8796 52.9478 64.5456 55.4463 65.3702L56.0261 65.5614C56.6754 64.8805 57.5942 64.4543 58.6123 64.4543H59.4373C59.4969 64.4543 59.5563 64.4526 59.6158 64.4522L59.6155 56.7656H47.8155C48.0879 58.1468 48.6174 59.4779 49.3865 60.679Z" fill="white"/>
<path d="M76.3782 56.0334C74.4981 54.1705 71.704 52.423 68.5105 51.1126C65.3892 49.8318 62.2396 49.1139 59.6155 49.082L59.2826 49.4757C55.7065 53.7052 55.7092 59.8429 59.2891 64.0697L59.616 64.4558C62.7156 64.4333 65.7396 63.8272 68.6065 62.6505C71.5281 61.4513 74.1429 59.7201 76.3782 57.505C76.7884 57.0985 76.7884 56.4398 76.3782 56.0334Z" fill="white"/>
<path d="M56.6024 56.7656C56.6025 59.3586 57.4981 61.9515 59.2891 64.0661L59.6158 64.4522C62.7154 64.4297 65.7396 63.8236 68.6065 62.6469C71.5281 61.4477 74.1429 59.7165 76.3782 57.5014C76.5832 57.2983 76.6858 57.032 76.6858 56.7656H56.6024Z" fill="white"/>
<path d="M64.3057 58.4051C65.2087 58.4051 65.9407 57.6726 65.9407 56.7689C65.9407 55.8653 65.2087 55.1328 64.3057 55.1328C63.4027 55.1328 62.6707 55.8653 62.6707 56.7689C62.6707 57.6726 63.4027 58.4051 64.3057 58.4051Z" fill="white"/>
<path d="M64.3057 58.4051C65.2087 58.4051 65.9407 57.6726 65.9407 56.7689H62.6707C62.6707 57.6726 63.4027 58.4051 64.3057 58.4051Z" fill="white"/>
<path d="M68.6969 75.7294C70.0368 74.3609 70.6357 72.6079 70.6661 72.517C70.8324 72.02 70.6 71.4781 70.1234 71.2514C69.9955 71.1906 66.9612 69.7747 64.2746 70.8767C63.0237 71.3897 62.0716 72.437 61.446 73.3236L57.022 71.1333C56.5417 70.8954 56.1337 70.5622 55.8157 70.1634L46.2048 70.0117C47.0129 71.3802 48.0209 72.6191 49.2161 73.708C50.8411 75.1886 52.7155 76.3061 54.7873 77.0296C56.5095 77.631 58.298 77.9337 60.1206 77.9337C60.5055 77.9337 60.892 77.9194 61.2796 77.8923C61.8968 78.822 62.9073 80.0213 64.2746 80.5821C65.0228 80.889 65.7978 81.0006 66.5298 81.0006C68.4258 81.0005 70.0312 80.2513 70.1234 80.2073C70.6 79.9806 70.8324 79.4386 70.6661 78.9417C70.6357 78.8509 70.0368 77.0979 68.6969 75.7294Z" fill="white"/>
<path d="M74.321 58.4002C73.4081 58.4002 72.668 57.6674 72.668 56.7634C72.668 55.8595 73.4081 55.1267 74.321 55.1267C76.1813 55.1267 77.6947 53.6282 77.6947 51.7862C77.6947 46.5409 73.3851 42.2735 68.0877 42.2735H58.8835C57.9706 42.2735 57.2305 41.5407 57.2305 40.6368C57.2305 39.7328 57.9706 39 58.8835 39H68.0877C75.208 39 81.0006 44.7359 81.0006 51.7862C81.0006 55.4332 78.0042 58.4002 74.321 58.4002Z" fill="#FFDECC"/>
<path d="M72.6699 56.7695C72.6717 57.6719 73.4109 58.403 74.3228 58.403C76.0012 58.403 77.536 57.7854 78.7106 56.7695H72.6699Z" fill="#FFCFB5"/>
<path d="M74.4959 63.2947C71.1439 63.2947 68.3698 60.6903 68.1804 57.3655C68.129 56.463 68.8263 55.6901 69.7377 55.6393C70.6498 55.5892 71.4298 56.2788 71.4812 57.1813C71.5718 58.7738 72.896 60.0212 74.4958 60.0212C75.4087 60.0212 76.1488 60.754 76.1488 61.658C76.1488 62.5619 75.4088 63.2947 74.4959 63.2947Z" fill="#FFDECC"/>
<path d="M67.4564 67.9384C67.208 67.9384 66.9558 67.8827 66.7185 67.7652C64.058 66.448 60.8475 63.5908 60.5549 59.8733C60.484 58.9721 61.1644 58.1845 62.0745 58.1143C62.983 58.0449 63.78 58.7177 63.8509 59.619C64.0233 61.8113 66.2246 63.8609 68.197 64.8372C69.0135 65.2415 69.3445 66.2247 68.9362 67.0332C68.6466 67.6067 68.0627 67.9384 67.4564 67.9384Z" fill="#FFDECC"/>
<path d="M60.4221 70.2669C60.2488 70.2669 60.0725 70.2397 59.8992 70.1826C57.8878 69.5187 56.0825 68.1663 54.8159 66.3746C53.5831 64.6309 52.9043 62.5446 52.9043 60.5C52.9043 59.5961 53.6444 58.8633 54.5573 58.8633C55.4702 58.8633 56.2103 59.5961 56.2103 60.5C56.2103 63.4055 58.2012 66.1716 60.9445 67.077C61.8106 67.3629 62.2786 68.2898 61.99 69.1474C61.7591 69.8331 61.1142 70.2669 60.4221 70.2669Z" fill="#FFDECC"/>
<path d="M56.0263 65.568L47.718 52.9453C45.4197 55.2662 44 58.4432 44 61.9427C44 64.2252 44.4743 66.428 45.4096 68.49C45.6477 69.0149 45.9131 69.5234 46.2038 70.0155L46.5314 70.1564C47.9988 70.7872 49.5642 71.1052 51.1295 71.1052C52.3083 71.1052 53.4871 70.9249 54.6236 70.5621L55.8147 70.1672C55.3292 69.5585 55.0537 68.7966 55.0537 67.985C55.0538 67.05 55.4241 66.1995 56.0263 65.568Z" fill="#FFDECC"/>
<path d="M76.3784 56.0334C74.4983 54.1705 71.7042 52.423 68.5107 51.1126C65.3894 49.8318 62.2398 49.1139 59.6157 49.082L59.2828 49.4757C55.7067 53.7052 55.7094 59.8429 59.2893 64.0697L59.6162 64.4558C62.7158 64.4333 65.7398 63.8272 68.6067 62.6505C71.5283 61.4513 74.1431 59.7201 76.3784 57.505C76.7886 57.0985 76.7886 56.4398 76.3784 56.0334Z" fill="#157DF5"/>
<path d="M44 61.9361C44 64.2186 44.4743 66.4214 45.4096 68.4833C45.6477 69.0083 45.9131 69.5168 46.2038 70.0089L46.5314 70.1497C47.9988 70.7806 49.5642 71.0985 51.1295 71.0985C52.3083 71.0985 53.4871 70.9182 54.6236 70.5555L55.8147 70.1606C55.3292 69.5519 55.0537 68.79 55.0537 67.9783C55.0537 67.0433 55.424 66.1929 56.0263 65.5614L50.2369 56.7656H45.0974C44.3923 58.3486 44 60.0977 44 61.9361Z" fill="#FFCFB5"/>
<path d="M59.6164 49.0797C59.5557 49.0789 59.495 49.0781 59.4349 49.0781H56.987C53.3605 49.0781 50.077 50.5584 47.7187 52.94L47.6763 53.3062C47.3789 55.8738 47.9867 58.4925 49.3877 60.6801C50.7969 62.8807 52.949 64.5467 55.4475 65.3713L56.0271 65.5626C56.6764 64.8817 57.5954 64.4555 58.6135 64.4555H59.4385C59.4981 64.4555 59.5574 64.4537 59.6169 64.4533L59.6164 49.0797Z" fill="#F54B5E"/>
<path d="M49.3865 60.679C50.7957 62.8796 52.9478 64.5456 55.4463 65.3702L56.0259 65.5614C56.6753 64.8806 57.5942 64.4543 58.6123 64.4543H59.4373C59.4969 64.4543 59.5562 64.4526 59.6157 64.4522L59.6155 56.7656H47.8154C48.0879 58.1468 48.6173 59.4779 49.3865 60.679Z" fill="#F3263D"/>
<path d="M76.3784 56.0334C74.4983 54.1705 71.7042 52.423 68.5107 51.1126C65.3894 49.8318 62.2398 49.1139 59.6157 49.082L59.2828 49.4757C55.7067 53.7052 55.7094 59.8429 59.2893 64.0697L59.6162 64.4558C62.7158 64.4333 65.7398 63.8272 68.6067 62.6505C71.5283 61.4513 74.1431 59.7201 76.3784 57.505C76.7886 57.0985 76.7886 56.4398 76.3784 56.0334Z" fill="#FFDECC"/>
<path d="M56.6025 56.7656C56.6027 59.3586 57.4983 61.9515 59.2893 64.0661L59.6162 64.4522C62.7158 64.4297 65.7398 63.8236 68.6067 62.6469C71.5283 61.4477 74.1431 59.7165 76.3784 57.5014C76.5834 57.2983 76.686 57.032 76.686 56.7656H56.6025Z" fill="#FFCFB5"/>
<path d="M64.3059 58.4051C65.2089 58.4051 65.9409 57.6726 65.9409 56.7689C65.9409 55.8653 65.2089 55.1328 64.3059 55.1328C63.4029 55.1328 62.6709 55.8653 62.6709 56.7689C62.6709 57.6726 63.4029 58.4051 64.3059 58.4051Z" fill="#282A52"/>
<path d="M64.3059 58.4057C65.2089 58.4057 65.9409 57.6732 65.9409 56.7696H62.6709C62.6709 57.6732 63.4029 58.4057 64.3059 58.4057Z" fill="#1E203E"/>
<path d="M68.6972 75.7294C70.0371 74.3609 70.636 72.6079 70.6664 72.517C70.8326 72.02 70.6003 71.4781 70.1237 71.2514C69.9958 71.1906 66.9615 69.7747 64.2749 70.8767C63.024 71.3897 62.0719 72.437 61.4463 73.3236L57.0223 71.1333C56.542 70.8954 56.134 70.5622 55.816 70.1634L46.2051 70.0117C47.0132 71.3802 48.0212 72.6191 49.2164 73.708C50.8414 75.1886 52.7158 76.3061 54.7876 77.0296C56.5098 77.631 58.2983 77.9337 60.1209 77.9337C60.5058 77.9337 60.8923 77.9194 61.2799 77.8923C61.8971 78.822 62.9076 80.0213 64.2749 80.5821C65.0231 80.889 65.7981 81.0006 66.5301 81.0006C68.4261 81.0005 70.0315 80.2513 70.1237 80.2073C70.6003 79.9806 70.8326 79.4386 70.6664 78.9417C70.636 78.8509 70.0371 77.0979 68.6972 75.7294Z" fill="#F54B5E"/>
<path d="M47.8047 166.963H64.1974V179.047H47.8047V166.963Z" fill="#E2EFFE"/>
<path d="M55.9961 166.963H64.1956V179.047H55.9961V166.963Z" fill="#B6D7FC"/>
<path d="M78.6411 167.649H33.3601C31.3059 167.649 29.6406 165.984 29.6406 163.929V129.361C29.6406 127.306 31.3059 125.641 33.3601 125.641H78.6411C80.6954 125.641 82.3606 127.306 82.3606 129.361V163.929C82.3606 165.984 80.6953 167.649 78.6411 167.649Z" fill="white"/>
<path d="M78.6398 125.641H55.9961V167.649H78.6397C80.694 167.649 82.3592 165.984 82.3592 163.929V129.361C82.3593 127.306 80.694 125.641 78.6398 125.641Z" fill="#F0F7FE"/>
<path d="M68.9713 176.719H43.0267C42.121 176.719 41.3867 177.453 41.3867 178.359C41.3867 179.264 42.121 179.999 43.0267 179.999H68.9712C69.8769 179.999 70.6112 179.264 70.6112 178.359C70.6112 177.453 69.877 176.719 68.9713 176.719Z" fill="#157DF5"/>
<path d="M29.6602 165.416C29.6602 166.353 30.6484 167.115 31.8632 167.115H79.834C81.0488 167.115 82.0371 166.353 82.0371 165.416V159.289H29.6602V165.416Z" fill="#F0F7FE"/>
<path d="M68.9716 176.719H55.9961V179.999H68.9715C69.8772 179.999 70.6115 179.264 70.6115 178.359C70.6115 177.453 69.8773 176.719 68.9716 176.719Z" fill="#0965CD"/>
<path d="M55.9434 167.115H79.8327C81.0475 167.115 82.0358 166.353 82.0358 165.416V159.289H55.9434V167.115Z" fill="#E2EFFE"/>
<path d="M78.6405 169.289H33.3595C30.4042 169.289 28 166.885 28 163.929V129.361C28 126.405 30.4042 124 33.3595 124H78.6405C81.5958 124 84 126.405 84 129.361V163.929C84 166.885 81.5958 169.289 78.6405 169.289ZM33.3595 127.281C32.2128 127.281 31.28 128.214 31.28 129.361V163.929C31.28 165.076 32.2128 166.009 33.3595 166.009H78.6405C79.7872 166.009 80.72 165.076 80.72 163.929V129.361C80.72 128.214 79.7872 127.281 78.6405 127.281H33.3595Z" fill="#157DF5"/>
<path d="M78.6398 124H55.9961V127.281H78.6397C79.7864 127.281 80.7192 128.214 80.7192 129.361V163.929C80.7192 165.076 79.7864 166.009 78.6397 166.009H55.9961V169.289H78.6397C81.595 169.289 83.9992 166.885 83.9992 163.929V129.361C83.9993 126.405 81.5951 124 78.6398 124Z" fill="#0965CD"/>
<rect x="44.5713" y="144.57" width="6.42899" height="6.42899" rx="1.6001" fill="#22AB68"/>
<rect x="36" y="136" width="6.42899" height="6.42899" rx="1.60725" fill="#157DF5"/>
<rect x="36" y="144.57" width="6.42899" height="6.42899" rx="1.60725" fill="#157DF5"/>
<rect x="44.5713" y="136" width="6.42899" height="6.42899" rx="1.60725" fill="#0965CD"/>
<path d="M74.321 154.4C73.4081 154.4 72.668 153.667 72.668 152.763C72.668 151.86 73.4081 151.127 74.321 151.127C76.1813 151.127 77.6947 149.628 77.6947 147.786C77.6947 142.541 73.3851 138.274 68.0877 138.274H58.8835C57.9706 138.274 57.2305 137.541 57.2305 136.637C57.2305 135.733 57.9706 135 58.8835 135H68.0877C75.208 135 81.0006 140.736 81.0006 147.786C81.0006 151.433 78.0042 154.4 74.321 154.4Z" fill="white"/>
<path d="M72.6699 152.77C72.6717 153.672 73.4109 154.403 74.3228 154.403C76.0012 154.403 77.536 153.785 78.7106 152.77H72.6699Z" fill="white"/>
<path d="M74.4961 159.295C71.144 159.295 68.37 156.69 68.1805 153.366C68.1292 152.463 68.8264 151.69 69.7379 151.639C70.65 151.589 71.43 152.279 71.4813 153.181C71.5719 154.774 72.8962 156.021 74.4959 156.021C75.4088 156.021 76.1489 156.754 76.1489 157.658C76.1489 158.562 75.409 159.295 74.4961 159.295Z" fill="white"/>
<path d="M67.4564 163.938C67.208 163.938 66.9558 163.883 66.7185 163.765C64.058 162.448 60.8475 159.591 60.5549 155.873C60.484 154.972 61.1644 154.184 62.0745 154.114C62.983 154.045 63.78 154.718 63.8509 155.619C64.0233 157.811 66.2246 159.861 68.197 160.837C69.0135 161.242 69.3445 162.225 68.9362 163.033C68.6466 163.607 68.0627 163.938 67.4564 163.938Z" fill="white"/>
<path d="M67.4564 163.938C67.208 163.938 66.9558 163.883 66.7185 163.765C64.058 162.448 60.8475 159.591 60.5549 155.873C60.484 154.972 61.1644 154.184 62.0745 154.114C62.983 154.045 63.78 154.718 63.8509 155.619C64.0233 157.811 66.2246 159.861 68.197 160.837C69.0135 161.242 69.3445 162.225 68.9362 163.033C68.6466 163.607 68.0627 163.938 67.4564 163.938Z" fill="white"/>
<path fill-rule="evenodd" clip-rule="evenodd" d="M41 157.943C41 160.649 41.5642 163.275 42.6775 165.729C42.9611 166.355 43.2766 166.959 43.6207 167.541L44.1187 168.384L44.1666 168.405C45.024 169.692 46.0377 170.87 47.1959 171.926C49.1193 173.678 51.3444 175.005 53.7985 175.862C55.7497 176.543 57.776 176.901 59.8372 176.932C60.6316 177.828 61.7242 178.779 63.1364 179.358C64.3221 179.844 65.4995 180.001 66.5301 180.001C69.0982 180 71.19 179.022 71.4123 178.917C73.2437 178.045 74.1639 175.941 73.5114 173.99L73.5109 173.988C73.4688 173.863 73.1427 172.896 72.4431 171.729C73.1427 170.562 73.4689 169.596 73.5111 169.47L73.5114 169.469C74.1639 167.518 73.2429 165.413 71.4115 164.542C71.2284 164.455 70.2576 164.009 68.8987 163.718C68.6256 163.659 68.3253 163.604 68.0028 163.56C67.9356 163.089 67.8242 162.627 67.672 162.181C68.1651 162.023 68.6546 161.852 69.1402 161.666C69.3428 161.588 69.5447 161.508 69.7457 161.426C69.8921 161.366 70.0378 161.304 70.1829 161.242C71.4768 161.915 72.9457 162.295 74.496 162.295C77.038 162.295 79.1489 160.246 79.1489 157.658C79.1489 157.162 79.0713 156.685 78.9279 156.239C81.938 154.616 84.0006 151.45 84.0006 147.786C84.0006 139.051 76.8369 132 68.0877 132H58.8834C56.3416 132 54.2304 134.048 54.2304 136.637C54.2304 139.225 56.3416 141.273 58.8834 141.273H68.0877C71.4425 141.273 74.1867 143.742 74.6315 146.888C73.1106 145.927 71.4233 145.065 69.6495 144.337C67.3126 143.378 64.9035 142.685 62.6164 142.336L59.6479 142.08L59.5623 142.079C59.5226 142.078 59.4791 142.078 59.4348 142.078H56.987C52.5287 142.078 48.4865 143.901 45.587 146.829L44.8778 147.545L44.8695 147.608C42.4653 150.379 41 153.992 41 157.943Z" fill="white"/>
<path fill-rule="evenodd" clip-rule="evenodd" d="M57.5643 156.108C57.3613 153.527 59.3075 151.319 61.8441 151.123L61.8462 151.123C64.3717 150.93 66.6385 152.801 66.8419 155.384C66.8573 155.579 67.0063 156.041 67.578 156.676C68.1253 157.284 68.8572 157.817 69.5281 158.149C71.8227 159.285 72.7812 162.075 71.6143 164.385C70.7899 166.018 69.1396 166.938 67.4566 166.938C66.7582 166.938 66.0491 166.781 65.3877 166.454M62.0745 154.114C62.983 154.045 63.78 154.718 63.8509 155.619C64.0233 157.811 66.2246 159.861 68.197 160.837C69.0135 161.242 69.3445 162.225 68.9362 163.033C68.6466 163.607 68.0627 163.938 67.4564 163.938C67.208 163.938 66.9558 163.883 66.7185 163.765C64.058 162.448 60.8475 159.591 60.5549 155.873C60.484 154.972 61.1644 154.184 62.0745 154.114ZM57.5643 156.108C57.979 161.378 62.3381 164.944 65.3877 166.454L57.5643 156.108Z" fill="white"/>
<path d="M60.4221 166.267C60.2488 166.267 60.0725 166.24 59.8992 166.183C57.8878 165.519 56.0826 164.166 54.8159 162.375C53.5831 160.631 52.9043 158.545 52.9043 156.5C52.9043 155.596 53.6444 154.863 54.5573 154.863C55.4702 154.863 56.2103 155.596 56.2103 156.5C56.2103 159.405 58.2012 162.172 60.9445 163.077C61.8106 163.363 62.2786 164.29 61.99 165.147C61.7591 165.833 61.1142 166.267 60.4221 166.267Z" fill="white"/>
<path d="M56.0262 161.568L47.7178 148.945C45.4195 151.266 43.9998 154.443 43.9998 157.943C43.9998 160.225 44.4741 162.428 45.4094 164.49C45.6475 165.015 45.913 165.523 46.2036 166.015L46.5312 166.156C47.9986 166.787 49.564 167.105 51.1293 167.105C52.3081 167.105 53.4869 166.925 54.6234 166.562L55.8145 166.167C55.329 165.558 55.0535 164.797 55.0535 163.985C55.0536 163.05 55.4239 162.2 56.0262 161.568Z" fill="white"/>
<path d="M76.3782 152.033C74.4981 150.171 71.704 148.423 68.5105 147.113C65.3892 145.832 62.2396 145.114 59.6155 145.082L59.2826 145.476C55.7065 149.705 55.7092 155.843 59.2891 160.07L59.616 160.456C62.7156 160.433 65.7396 159.827 68.6065 158.65C71.5281 157.451 74.1429 155.72 76.3782 153.505C76.7884 153.099 76.7884 152.44 76.3782 152.033Z" fill="white"/>
<path d="M43.9998 157.936C43.9998 160.219 44.4741 162.421 45.4094 164.483C45.6475 165.008 45.913 165.517 46.2036 166.009L46.5312 166.15C47.9986 166.781 49.564 167.099 51.1293 167.099C52.3081 167.099 53.4869 166.918 54.6234 166.555L55.8145 166.161C55.329 165.552 55.0535 164.79 55.0535 163.978C55.0535 163.043 55.4239 162.193 56.0261 161.561L50.2367 152.766H45.0973C44.3921 154.349 43.9998 156.098 43.9998 157.936Z" fill="white"/>
<path d="M59.6162 145.08C59.5555 145.079 59.4948 145.078 59.4347 145.078H56.9868C53.3603 145.078 50.0768 146.558 47.7185 148.94L47.6761 149.306C47.3788 151.874 47.9865 154.492 49.3875 156.68C50.7967 158.881 52.9488 160.547 55.4473 161.371L56.0269 161.563C56.6763 160.882 57.5952 160.455 58.6133 160.455H59.4383C59.4979 160.455 59.5573 160.454 59.6168 160.453L59.6162 145.08Z" fill="white"/>
<path d="M49.3865 156.679C50.7958 158.88 52.9478 160.546 55.4463 161.37L56.0261 161.561C56.6754 160.881 57.5942 160.454 58.6123 160.454H59.4373C59.4969 160.454 59.5563 160.453 59.6158 160.452L59.6155 152.766H47.8155C48.0879 154.147 48.6174 155.478 49.3865 156.679Z" fill="white"/>
<path d="M76.3782 152.033C74.4981 150.171 71.704 148.423 68.5105 147.113C65.3892 145.832 62.2396 145.114 59.6155 145.082L59.2826 145.476C55.7065 149.705 55.7092 155.843 59.2891 160.07L59.616 160.456C62.7156 160.433 65.7396 159.827 68.6065 158.65C71.5281 157.451 74.1429 155.72 76.3782 153.505C76.7884 153.099 76.7884 152.44 76.3782 152.033Z" fill="white"/>
<path d="M56.6024 152.766C56.6025 155.359 57.4981 157.952 59.2891 160.066L59.6158 160.452C62.7154 160.43 65.7396 159.824 68.6065 158.647C71.5281 157.448 74.1429 155.716 76.3782 153.501C76.5832 153.298 76.6858 153.032 76.6858 152.766H56.6024Z" fill="white"/>
<path d="M64.3057 154.405C65.2087 154.405 65.9407 153.673 65.9407 152.769C65.9407 151.865 65.2087 151.133 64.3057 151.133C63.4027 151.133 62.6707 151.865 62.6707 152.769C62.6707 153.673 63.4027 154.405 64.3057 154.405Z" fill="white"/>
<path d="M64.3057 154.405C65.2087 154.405 65.9407 153.673 65.9407 152.769H62.6707C62.6707 153.673 63.4027 154.405 64.3057 154.405Z" fill="white"/>
<path d="M68.6969 171.729C70.0368 170.361 70.6357 168.608 70.6661 168.517C70.8324 168.02 70.6 167.478 70.1234 167.251C69.9955 167.191 66.9612 165.775 64.2746 166.877C63.0237 167.39 62.0716 168.437 61.446 169.324L57.022 167.133C56.5417 166.895 56.1337 166.562 55.8157 166.163L46.2048 166.012C47.0129 167.38 48.0209 168.619 49.2161 169.708C50.8411 171.189 52.7155 172.306 54.7873 173.03C56.5095 173.631 58.298 173.934 60.1206 173.934C60.5055 173.934 60.892 173.919 61.2796 173.892C61.8968 174.822 62.9073 176.021 64.2746 176.582C65.0228 176.889 65.7978 177.001 66.5298 177.001C68.4258 177 70.0312 176.251 70.1234 176.207C70.6 175.981 70.8324 175.439 70.6661 174.942C70.6357 174.851 70.0368 173.098 68.6969 171.729Z" fill="white"/>
<path d="M74.321 154.4C73.4081 154.4 72.668 153.667 72.668 152.763C72.668 151.86 73.4081 151.127 74.321 151.127C76.1813 151.127 77.6947 149.628 77.6947 147.786C77.6947 142.541 73.3851 138.274 68.0877 138.274H58.8835C57.9706 138.274 57.2305 137.541 57.2305 136.637C57.2305 135.733 57.9706 135 58.8835 135H68.0877C75.208 135 81.0006 140.736 81.0006 147.786C81.0006 151.433 78.0042 154.4 74.321 154.4Z" fill="#FFDECC"/>
<path d="M72.6699 152.77C72.6717 153.672 73.4109 154.403 74.3228 154.403C76.0012 154.403 77.536 153.785 78.7106 152.77H72.6699Z" fill="#FFCFB5"/>
<path d="M74.4959 159.295C71.1439 159.295 68.3698 156.69 68.1804 153.366C68.129 152.463 68.8263 151.69 69.7377 151.639C70.6498 151.589 71.4298 152.279 71.4812 153.181C71.5718 154.774 72.896 156.021 74.4958 156.021C75.4087 156.021 76.1488 156.754 76.1488 157.658C76.1488 158.562 75.4088 159.295 74.4959 159.295Z" fill="#FFDECC"/>
<path d="M67.4564 163.938C67.208 163.938 66.9558 163.883 66.7185 163.765C64.058 162.448 60.8475 159.591 60.5549 155.873C60.484 154.972 61.1644 154.184 62.0745 154.114C62.983 154.045 63.78 154.718 63.8509 155.619C64.0233 157.811 66.2246 159.861 68.197 160.837C69.0135 161.242 69.3445 162.225 68.9362 163.033C68.6466 163.607 68.0627 163.938 67.4564 163.938Z" fill="#FFDECC"/>
<path d="M60.4221 166.267C60.2488 166.267 60.0725 166.24 59.8992 166.183C57.8878 165.519 56.0825 164.166 54.8159 162.375C53.5831 160.631 52.9043 158.545 52.9043 156.5C52.9043 155.596 53.6444 154.863 54.5573 154.863C55.4702 154.863 56.2103 155.596 56.2103 156.5C56.2103 159.406 58.2012 162.172 60.9445 163.077C61.8106 163.363 62.2786 164.29 61.99 165.147C61.7591 165.833 61.1142 166.267 60.4221 166.267Z" fill="#FFDECC"/>
<path d="M56.0263 161.568L47.718 148.945C45.4197 151.266 44 154.443 44 157.943C44 160.225 44.4743 162.428 45.4096 164.49C45.6477 165.015 45.9131 165.523 46.2038 166.015L46.5314 166.156C47.9988 166.787 49.5642 167.105 51.1295 167.105C52.3083 167.105 53.4871 166.925 54.6236 166.562L55.8147 166.167C55.3292 165.558 55.0537 164.797 55.0537 163.985C55.0538 163.05 55.4241 162.2 56.0263 161.568Z" fill="#FFDECC"/>
<path d="M76.3784 152.033C74.4983 150.171 71.7042 148.423 68.5107 147.113C65.3894 145.832 62.2398 145.114 59.6157 145.082L59.2828 145.476C55.7067 149.705 55.7094 155.843 59.2893 160.07L59.6162 160.456C62.7158 160.433 65.7398 159.827 68.6067 158.65C71.5283 157.451 74.1431 155.72 76.3784 153.505C76.7886 153.099 76.7886 152.44 76.3784 152.033Z" fill="#157DF5"/>
<path d="M44 157.936C44 160.219 44.4743 162.421 45.4096 164.483C45.6477 165.008 45.9131 165.517 46.2038 166.009L46.5314 166.15C47.9988 166.781 49.5642 167.099 51.1295 167.099C52.3083 167.099 53.4871 166.918 54.6236 166.555L55.8147 166.161C55.3292 165.552 55.0537 164.79 55.0537 163.978C55.0537 163.043 55.424 162.193 56.0263 161.561L50.2369 152.766H45.0974C44.3923 154.349 44 156.098 44 157.936Z" fill="#FFCFB5"/>
<path d="M59.6164 145.08C59.5557 145.079 59.495 145.078 59.4349 145.078H56.987C53.3605 145.078 50.077 146.558 47.7187 148.94L47.6763 149.306C47.3789 151.874 47.9867 154.492 49.3877 156.68C50.7969 158.881 52.949 160.547 55.4475 161.371L56.0271 161.563C56.6764 160.882 57.5954 160.455 58.6135 160.455H59.4385C59.4981 160.455 59.5574 160.454 59.6169 160.453L59.6164 145.08Z" fill="#F54B5E"/>
<path d="M49.3865 156.679C50.7957 158.88 52.9478 160.546 55.4463 161.37L56.0259 161.561C56.6753 160.881 57.5942 160.454 58.6123 160.454H59.4373C59.4969 160.454 59.5562 160.453 59.6157 160.452L59.6155 152.766H47.8154C48.0879 154.147 48.6173 155.478 49.3865 156.679Z" fill="#F3263D"/>
<path d="M76.3784 152.033C74.4983 150.171 71.7042 148.423 68.5107 147.113C65.3894 145.832 62.2398 145.114 59.6157 145.082L59.2828 145.476C55.7067 149.705 55.7094 155.843 59.2893 160.07L59.6162 160.456C62.7158 160.433 65.7398 159.827 68.6067 158.65C71.5283 157.451 74.1431 155.72 76.3784 153.505C76.7886 153.099 76.7886 152.44 76.3784 152.033Z" fill="#FFDECC"/>
<path d="M56.6025 152.766C56.6027 155.359 57.4983 157.952 59.2893 160.066L59.6162 160.452C62.7158 160.43 65.7398 159.824 68.6067 158.647C71.5283 157.448 74.1431 155.716 76.3784 153.501C76.5834 153.298 76.686 153.032 76.686 152.766H56.6025Z" fill="#FFCFB5"/>
<path d="M64.3059 154.405C65.2089 154.405 65.9409 153.673 65.9409 152.769C65.9409 151.865 65.2089 151.133 64.3059 151.133C63.4029 151.133 62.6709 151.865 62.6709 152.769C62.6709 153.673 63.4029 154.405 64.3059 154.405Z" fill="#282A52"/>
<path d="M64.3059 154.406C65.2089 154.406 65.9409 153.673 65.9409 152.77H62.6709C62.6709 153.673 63.4029 154.406 64.3059 154.406Z" fill="#1E203E"/>
<path d="M68.6972 171.729C70.0371 170.361 70.636 168.608 70.6664 168.517C70.8326 168.02 70.6003 167.478 70.1237 167.251C69.9958 167.191 66.9615 165.775 64.2749 166.877C63.024 167.39 62.0719 168.437 61.4463 169.324L57.0223 167.133C56.542 166.895 56.134 166.562 55.816 166.163L46.2051 166.012C47.0132 167.38 48.0212 168.619 49.2164 169.708C50.8414 171.189 52.7158 172.306 54.7876 173.03C56.5098 173.631 58.2983 173.934 60.1209 173.934C60.5058 173.934 60.8923 173.919 61.2799 173.892C61.8971 174.822 62.9076 176.021 64.2749 176.582C65.0231 176.889 65.7981 177.001 66.5301 177.001C68.4261 177 70.0315 176.251 70.1237 176.207C70.6003 175.981 70.8326 175.439 70.6664 174.942C70.636 174.851 70.0371 173.098 68.6972 171.729Z" fill="#F54B5E"/>
<defs>
<filter id="filter0_dd_19799_58011" x="6" y="9" width="100" height="100" filterUnits="userSpaceOnUse" color-interpolation-filters="sRGB">
<feFlood flood-opacity="0" result="BackgroundImageFix"/>
<feColorMatrix in="SourceAlpha" type="matrix" values="0 0 0 0 0 0 0 0 0 0 0 0 0 0 0 0 0 0 127 0" result="hardAlpha"/>
<feOffset dy="3"/>
<feGaussianBlur stdDeviation="5"/>
<feColorMatrix type="matrix" values="0 0 0 0 0.516667 0 0 0 0 0.578358 0 0 0 0 0.775 0 0 0 0.12 0"/>
<feBlend mode="normal" in2="BackgroundImageFix" result="effect1_dropShadow_19799_58011"/>
<feColorMatrix in="SourceAlpha" type="matrix" values="0 0 0 0 0 0 0 0 0 0 0 0 0 0 0 0 0 0 127 0" result="hardAlpha"/>
<feOffset dy="1"/>
<feGaussianBlur stdDeviation="3"/>
<feColorMatrix type="matrix" values="0 0 0 0 0.709809 0 0 0 0 0.788943 0 0 0 0 0.920833 0 0 0 0.15 0"/>
<feBlend mode="normal" in2="effect1_dropShadow_19799_58011" result="effect2_dropShadow_19799_58011"/>
<feBlend mode="normal" in="SourceGraphic" in2="effect2_dropShadow_19799_58011" result="shape"/>
</filter>
</defs>
</svg>
