<svg width="112" height="208" viewBox="0 0 112 208" fill="none" xmlns="http://www.w3.org/2000/svg">
<rect x="0.5" y="0.5" width="111" height="207" rx="4.5" stroke="#9747FF" stroke-dasharray="10 5"/>
<g filter="url(#filter0_dd_7407_35305)">
<rect x="16" y="16" width="80" height="80" rx="8" fill="white"/>
</g>
<path d="M76.3505 32.8695L75.8095 31.2969H68.2917C67.1871 31.2969 66.2917 32.1923 66.2917 33.2969V54.3557H43.4603L42.3623 56.1433L43.4603 57.6498H66.2917V78.7086C66.2917 79.8132 67.1871 80.7086 68.2917 80.7086H75.8093L76.0669 79.0616L75.8093 77.4145H69.5858V57.6498H75.8098L76.2042 55.9237L75.8098 54.3557H69.5858V34.591H75.8094L76.3505 32.8695Z" fill="#282A52"/>
<path d="M79.0632 37.8824C81.7922 37.8824 84.0044 35.6701 84.0044 32.9412C84.0044 30.2122 81.7922 28 79.0632 28C76.3343 28 74.1221 30.2122 74.1221 32.9412C74.1221 35.6701 76.3343 37.8824 79.0632 37.8824Z" fill="#157DF5"/>
<path d="M79.0632 60.9409C81.7922 60.9409 84.0044 58.7287 84.0044 55.9998C84.0044 53.2708 81.7922 51.0586 79.0632 51.0586C76.3343 51.0586 74.1221 53.2708 74.1221 55.9998C74.1221 58.7287 76.3343 60.9409 79.0632 60.9409Z" fill="#40D98D"/>
<path d="M79.0632 83.9995C81.7922 83.9995 84.0044 81.7873 84.0044 79.0584C84.0044 76.3294 81.7922 74.1172 79.0632 74.1172C76.3343 74.1172 74.1221 76.3294 74.1221 79.0584C74.1221 81.7873 76.3343 83.9995 79.0632 83.9995Z" fill="#0965CD"/>
<path d="M34.6799 54.4002C35.5928 54.4002 36.3329 53.6674 36.3329 52.7634C36.3329 51.8595 35.5928 51.1267 34.6799 51.1267C32.8197 51.1267 31.3063 49.6282 31.3063 47.7862C31.3063 42.5409 35.6159 38.2735 40.9132 38.2735H54.1175C55.0304 38.2735 55.7705 37.5407 55.7705 36.6368C55.7705 35.7328 55.0304 35 54.1175 35H40.9132C33.7929 35 28.0003 40.7359 28.0003 47.7862C28.0003 51.4332 30.9968 54.4002 34.6799 54.4002Z" fill="#157DF5"/>
<path d="M36.3311 52.7695C36.3293 53.6719 35.5901 54.403 34.6782 54.403C32.9997 54.403 31.465 53.7854 30.2904 52.7695H36.3311Z" fill="#0965CD"/>
<path d="M33.5051 59.2947C36.8571 59.2947 39.6311 56.6903 39.8206 53.3655C39.8719 52.463 39.1747 51.6901 38.2632 51.6393C37.3511 51.5892 36.5711 52.2788 36.5198 53.1813C36.4292 54.7738 35.1049 56.0212 33.5052 56.0212C32.5923 56.0212 31.8522 56.754 31.8522 57.658C31.8522 58.5619 32.5922 59.2947 33.5051 59.2947Z" fill="#157DF5"/>
<path d="M40.5446 63.9384C40.7929 63.9384 41.0452 63.8827 41.2824 63.7652C43.943 62.448 47.1535 59.5908 47.4461 55.8733C47.517 54.9721 46.8366 54.1845 45.9265 54.1143C45.018 54.0449 44.221 54.7177 44.15 55.619C43.9777 57.8113 41.7764 59.8609 39.804 60.8372C38.9874 61.2415 38.6565 62.2247 39.0648 63.0332C39.3544 63.6067 39.9382 63.9384 40.5446 63.9384Z" fill="#157DF5"/>
<path d="M47.5789 66.2669C47.7521 66.2669 47.9284 66.2397 48.1018 66.1826C50.1131 65.5187 51.9184 64.1663 53.1851 62.3746C54.4179 60.6309 55.0967 58.5446 55.0967 56.5C55.0967 55.5961 54.3566 54.8633 53.4437 54.8633C52.5308 54.8633 51.7907 55.5961 51.7907 56.5C51.7907 59.4055 49.7997 62.1716 47.0564 63.077C46.1904 63.3629 45.7224 64.2898 46.011 65.1474C46.2419 65.8331 46.8867 66.2669 47.5789 66.2669Z" fill="#157DF5"/>
<path d="M51.9746 61.568L60.283 48.9453C62.5813 51.2662 64.001 54.4432 64.001 57.9427C64.001 60.2252 63.5267 62.428 62.5914 64.49C62.3533 65.0149 62.0878 65.5234 61.7972 66.0155L61.4696 66.1564C60.0021 66.7872 58.4368 67.1052 56.8714 67.1052C55.6927 67.1052 54.5139 66.9249 53.3774 66.5621L52.1863 66.1672C52.6718 65.5585 52.9473 64.7966 52.9473 63.985C52.9472 63.05 52.5769 62.1995 51.9746 61.568Z" fill="#157DF5"/>
<path d="M31.6226 52.0334C33.5027 50.1705 36.2967 48.423 39.4902 47.1126C42.6116 45.8318 45.7612 45.1139 48.3853 45.082L48.7182 45.4757C52.2943 49.7052 52.2916 55.8429 48.7117 60.0697L48.3848 60.4558C45.2852 60.4333 42.2612 59.8272 39.3943 58.6505C36.4727 57.4513 33.8579 55.7201 31.6226 53.505C31.2124 53.0985 31.2124 52.4398 31.6226 52.0334Z" fill="#157DF5"/>
<path d="M64.001 57.9361C64.001 60.2186 63.5267 62.4214 62.5914 64.4833C62.3533 65.0083 62.0878 65.5168 61.7972 66.0089L61.4696 66.1497C60.0021 66.7806 58.4368 67.0985 56.8714 67.0985C55.6927 67.0985 54.5139 66.9182 53.3774 66.5555L52.1863 66.1606C52.6718 65.5519 52.9473 64.79 52.9473 63.9783C52.9473 63.0433 52.5769 62.1929 51.9747 61.5614L57.7641 52.7656H62.9035C63.6086 54.3486 64.001 56.0977 64.001 57.9361Z" fill="#0965CD"/>
<path d="M48.3846 45.0797C48.4453 45.0789 48.506 45.0781 48.5661 45.0781H51.014C54.6405 45.0781 57.924 46.5584 60.2823 48.94L60.3247 49.3062C60.622 51.8738 60.0143 54.4925 58.6133 56.6801C57.2041 58.8807 55.052 60.5467 52.5535 61.3713L51.9739 61.5626C51.3245 60.8817 50.4056 60.4555 49.3875 60.4555H48.5625C48.5029 60.4555 48.4435 60.4537 48.384 60.4533L48.3846 45.0797Z" fill="#E2EFFE"/>
<path d="M58.6145 56.679C57.2052 58.8796 55.0532 60.5456 52.5547 61.3702L51.975 61.5614C51.3257 60.8806 50.4068 60.4543 49.3887 60.4543H48.5637C48.5041 60.4543 48.4447 60.4526 48.3852 60.4522L48.3855 52.7656H60.1855C59.9131 54.1468 59.3837 55.4779 58.6145 56.679Z" fill="#B6D7FC"/>
<path d="M31.6226 52.0334C33.5027 50.1705 36.2967 48.423 39.4902 47.1126C42.6116 45.8318 45.7612 45.1139 48.3853 45.082L48.7182 45.4757C52.2943 49.7052 52.2916 55.8429 48.7117 60.0697L48.3848 60.4558C45.2852 60.4333 42.2612 59.8272 39.3943 58.6505C36.4727 57.4513 33.8579 55.7201 31.6226 53.505C31.2124 53.0985 31.2124 52.4398 31.6226 52.0334Z" fill="#157DF5"/>
<path d="M51.3984 52.7656C51.3983 55.3586 50.5027 57.9515 48.7117 60.0661L48.3848 60.4522C45.2852 60.4297 42.2612 59.8236 39.3943 58.6469C36.4727 57.4477 33.8579 55.7165 31.6226 53.5014C31.4175 53.2983 31.315 53.032 31.315 52.7656H51.3984Z" fill="#0965CD"/>
<path d="M43.6951 54.4051C42.7921 54.4051 42.0601 53.6726 42.0601 52.7689C42.0601 51.8653 42.7921 51.1328 43.6951 51.1328C44.5981 51.1328 45.3301 51.8653 45.3301 52.7689C45.3301 53.6726 44.5981 54.4051 43.6951 54.4051Z" fill="#282A52"/>
<path d="M43.6951 54.4057C42.7921 54.4057 42.0601 53.6731 42.0601 52.7695H45.3301C45.3301 53.6731 44.598 54.4057 43.6951 54.4057Z" fill="#1E203E"/>
<path d="M39.3038 71.7294C37.9639 70.3609 37.365 68.6079 37.3346 68.517C37.1683 68.02 37.4007 67.4781 37.8773 67.2514C38.0052 67.1906 41.0395 65.7747 43.7261 66.8767C44.977 67.3897 45.9291 68.437 46.5547 69.3236L50.9786 67.1333C51.459 66.8954 51.867 66.5622 52.185 66.1634L61.7959 66.0117C60.9878 67.3802 59.9798 68.6191 58.7846 69.708C57.1596 71.1886 55.2851 72.3061 53.2134 73.0296C51.4912 73.631 49.7027 73.9337 47.8801 73.9337C47.4952 73.9337 47.1087 73.9194 46.7211 73.8923C46.1039 74.822 45.0934 76.0213 43.7261 76.5821C42.9778 76.889 42.2029 77.0006 41.4709 77.0006C39.5749 77.0005 37.9695 76.2513 37.8773 76.2073C37.4007 75.9806 37.1683 75.4386 37.3346 74.9417C37.365 74.8509 37.9639 73.0979 39.3038 71.7294Z" fill="#B6D7FC"/>
<path d="M76.3505 128.869L75.8095 127.297H68.2917C67.1871 127.297 66.2917 128.192 66.2917 129.297V150.356H43.4603L42.3623 152.143L43.4603 153.65H66.2917V174.709C66.2917 175.813 67.1871 176.709 68.2917 176.709H75.8093L76.0669 175.062L75.8093 173.415H69.5858V153.65H75.8098L76.2042 151.924L75.8098 150.356H69.5858V130.591H75.8094L76.3505 128.869Z" fill="#282A52"/>
<path d="M79.0632 133.882C81.7922 133.882 84.0044 131.67 84.0044 128.941C84.0044 126.212 81.7922 124 79.0632 124C76.3343 124 74.1221 126.212 74.1221 128.941C74.1221 131.67 76.3343 133.882 79.0632 133.882Z" fill="#157DF5"/>
<path d="M79.0632 156.941C81.7922 156.941 84.0044 154.729 84.0044 152C84.0044 149.271 81.7922 147.059 79.0632 147.059C76.3343 147.059 74.1221 149.271 74.1221 152C74.1221 154.729 76.3343 156.941 79.0632 156.941Z" fill="#40D98D"/>
<path d="M79.0632 180C81.7922 180 84.0044 177.787 84.0044 175.058C84.0044 172.329 81.7922 170.117 79.0632 170.117C76.3343 170.117 74.1221 172.329 74.1221 175.058C74.1221 177.787 76.3343 180 79.0632 180Z" fill="#0965CD"/>
<path d="M34.6799 150.4C35.5928 150.4 36.3329 149.667 36.3329 148.763C36.3329 147.86 35.5928 147.127 34.6799 147.127C32.8197 147.127 31.3063 145.628 31.3063 143.786C31.3063 138.541 35.6159 134.274 40.9132 134.274H54.1175C55.0304 134.274 55.7705 133.541 55.7705 132.637C55.7705 131.733 55.0304 131 54.1175 131H40.9132C33.7929 131 28.0003 136.736 28.0003 143.786C28.0003 147.433 30.9968 150.4 34.6799 150.4Z" fill="#157DF5"/>
<path d="M36.3311 148.77C36.3293 149.672 35.5901 150.403 34.6782 150.403C32.9997 150.403 31.465 149.785 30.2904 148.77H36.3311Z" fill="#0965CD"/>
<path d="M33.5051 155.295C36.8571 155.295 39.6311 152.69 39.8206 149.366C39.8719 148.463 39.1747 147.69 38.2632 147.639C37.3511 147.589 36.5711 148.279 36.5198 149.181C36.4292 150.774 35.1049 152.021 33.5052 152.021C32.5923 152.021 31.8522 152.754 31.8522 153.658C31.8522 154.562 32.5922 155.295 33.5051 155.295Z" fill="#157DF5"/>
<path d="M40.5446 159.938C40.7929 159.938 41.0452 159.883 41.2824 159.765C43.943 158.448 47.1535 155.591 47.4461 151.873C47.517 150.972 46.8366 150.184 45.9265 150.114C45.018 150.045 44.221 150.718 44.15 151.619C43.9777 153.811 41.7764 155.861 39.804 156.837C38.9874 157.242 38.6565 158.225 39.0648 159.033C39.3544 159.607 39.9382 159.938 40.5446 159.938Z" fill="#157DF5"/>
<path d="M47.5789 162.267C47.7521 162.267 47.9284 162.24 48.1018 162.183C50.1131 161.519 51.9184 160.166 53.1851 158.375C54.4179 156.631 55.0967 154.545 55.0967 152.5C55.0967 151.596 54.3566 150.863 53.4437 150.863C52.5308 150.863 51.7907 151.596 51.7907 152.5C51.7907 155.406 49.7997 158.172 47.0564 159.077C46.1904 159.363 45.7224 160.29 46.011 161.147C46.2419 161.833 46.8867 162.267 47.5789 162.267Z" fill="#157DF5"/>
<path d="M51.9746 157.568L60.283 144.945C62.5813 147.266 64.001 150.443 64.001 153.943C64.001 156.225 63.5267 158.428 62.5914 160.49C62.3533 161.015 62.0878 161.523 61.7972 162.015L61.4696 162.156C60.0021 162.787 58.4368 163.105 56.8714 163.105C55.6927 163.105 54.5139 162.925 53.3774 162.562L52.1863 162.167C52.6718 161.558 52.9473 160.797 52.9473 159.985C52.9472 159.05 52.5769 158.2 51.9746 157.568Z" fill="#157DF5"/>
<path d="M31.6226 148.033C33.5027 146.171 36.2967 144.423 39.4902 143.113C42.6116 141.832 45.7612 141.114 48.3853 141.082L48.7182 141.476C52.2943 145.705 52.2916 151.843 48.7117 156.07L48.3848 156.456C45.2852 156.433 42.2612 155.827 39.3943 154.65C36.4727 153.451 33.8579 151.72 31.6226 149.505C31.2124 149.099 31.2124 148.44 31.6226 148.033Z" fill="#157DF5"/>
<path d="M64.001 153.936C64.001 156.219 63.5267 158.421 62.5914 160.483C62.3533 161.008 62.0878 161.517 61.7972 162.009L61.4696 162.15C60.0021 162.781 58.4368 163.099 56.8714 163.099C55.6927 163.099 54.5139 162.918 53.3774 162.555L52.1863 162.161C52.6718 161.552 52.9473 160.79 52.9473 159.978C52.9473 159.043 52.5769 158.193 51.9747 157.561L57.7641 148.766H62.9035C63.6086 150.349 64.001 152.098 64.001 153.936Z" fill="#0965CD"/>
<path d="M48.3846 141.08C48.4453 141.079 48.506 141.078 48.5661 141.078H51.014C54.6405 141.078 57.924 142.558 60.2823 144.94L60.3247 145.306C60.622 147.874 60.0143 150.492 58.6133 152.68C57.2041 154.881 55.052 156.547 52.5535 157.371L51.9739 157.563C51.3245 156.882 50.4056 156.455 49.3875 156.455H48.5625C48.5029 156.455 48.4435 156.454 48.384 156.453L48.3846 141.08Z" fill="#E2EFFE"/>
<path d="M58.6145 152.679C57.2052 154.88 55.0532 156.546 52.5547 157.37L51.975 157.561C51.3257 156.881 50.4068 156.454 49.3887 156.454H48.5637C48.5041 156.454 48.4447 156.453 48.3852 156.452L48.3855 148.766H60.1855C59.9131 150.147 59.3837 151.478 58.6145 152.679Z" fill="#B6D7FC"/>
<path d="M31.6226 148.033C33.5027 146.171 36.2967 144.423 39.4902 143.113C42.6116 141.832 45.7612 141.114 48.3853 141.082L48.7182 141.476C52.2943 145.705 52.2916 151.843 48.7117 156.07L48.3848 156.456C45.2852 156.433 42.2612 155.827 39.3943 154.65C36.4727 153.451 33.8579 151.72 31.6226 149.505C31.2124 149.099 31.2124 148.44 31.6226 148.033Z" fill="#157DF5"/>
<path d="M51.3984 148.766C51.3983 151.359 50.5027 153.952 48.7117 156.066L48.3848 156.452C45.2852 156.43 42.2612 155.824 39.3943 154.647C36.4727 153.448 33.8579 151.716 31.6226 149.501C31.4175 149.298 31.315 149.032 31.315 148.766H51.3984Z" fill="#0965CD"/>
<path d="M43.6951 150.405C42.7921 150.405 42.0601 149.673 42.0601 148.769C42.0601 147.865 42.7921 147.133 43.6951 147.133C44.5981 147.133 45.3301 147.865 45.3301 148.769C45.3301 149.673 44.5981 150.405 43.6951 150.405Z" fill="#282A52"/>
<path d="M43.6951 150.406C42.7921 150.406 42.0601 149.673 42.0601 148.77H45.3301C45.3301 149.673 44.598 150.406 43.6951 150.406Z" fill="#1E203E"/>
<path d="M39.3038 167.729C37.9639 166.361 37.365 164.608 37.3346 164.517C37.1683 164.02 37.4007 163.478 37.8773 163.251C38.0052 163.191 41.0395 161.775 43.7261 162.877C44.977 163.39 45.9291 164.437 46.5547 165.324L50.9786 163.133C51.459 162.895 51.867 162.562 52.185 162.163L61.7959 162.012C60.9878 163.38 59.9798 164.619 58.7846 165.708C57.1596 167.189 55.2851 168.306 53.2134 169.03C51.4912 169.631 49.7027 169.934 47.8801 169.934C47.4952 169.934 47.1087 169.919 46.7211 169.892C46.1039 170.822 45.0934 172.021 43.7261 172.582C42.9778 172.889 42.2029 173.001 41.4709 173.001C39.5749 173 37.9695 172.251 37.8773 172.207C37.4007 171.981 37.1683 171.439 37.3346 170.942C37.365 170.851 37.9639 169.098 39.3038 167.729Z" fill="#B6D7FC"/>
<defs>
<filter id="filter0_dd_7407_35305" x="6" y="9" width="100" height="100" filterUnits="userSpaceOnUse" color-interpolation-filters="sRGB">
<feFlood flood-opacity="0" result="BackgroundImageFix"/>
<feColorMatrix in="SourceAlpha" type="matrix" values="0 0 0 0 0 0 0 0 0 0 0 0 0 0 0 0 0 0 127 0" result="hardAlpha"/>
<feOffset dy="3"/>
<feGaussianBlur stdDeviation="5"/>
<feColorMatrix type="matrix" values="0 0 0 0 0.516667 0 0 0 0 0.578358 0 0 0 0 0.775 0 0 0 0.12 0"/>
<feBlend mode="normal" in2="BackgroundImageFix" result="effect1_dropShadow_7407_35305"/>
<feColorMatrix in="SourceAlpha" type="matrix" values="0 0 0 0 0 0 0 0 0 0 0 0 0 0 0 0 0 0 127 0" result="hardAlpha"/>
<feOffset dy="1"/>
<feGaussianBlur stdDeviation="3"/>
<feColorMatrix type="matrix" values="0 0 0 0 0.709809 0 0 0 0 0.788943 0 0 0 0 0.920833 0 0 0 0.15 0"/>
<feBlend mode="normal" in2="effect1_dropShadow_7407_35305" result="effect2_dropShadow_7407_35305"/>
<feBlend mode="normal" in="SourceGraphic" in2="effect2_dropShadow_7407_35305" result="shape"/>
</filter>
</defs>
</svg>
