<svg width="112" height="208" viewBox="0 0 112 208" fill="none" xmlns="http://www.w3.org/2000/svg">
<rect x="0.5" y="0.5" width="111" height="207" rx="4.5" stroke="#9747FF" stroke-dasharray="10 5"/>
<g filter="url(#filter0_dd_7415_38887)">
<rect x="16" y="16" width="80" height="80" rx="8" fill="white"/>
</g>
<path d="M62.0938 29.6406V72.4062C62.0938 73.5108 61.1983 74.4062 60.0938 74.4062H30C28.8954 74.4062 28 73.5108 28 72.4062V29.6406C28 28.7218 28.7218 28 29.6406 28H60.4531C61.372 28 62.0938 28.7218 62.0938 29.6406Z" fill="#F0F7FE"/>
<path fill-rule="evenodd" clip-rule="evenodd" d="M37.3276 37V36.5C37.3276 35.672 37.9996 35 38.8276 35C39.6556 35 40.3276 35.672 40.3276 36.5V37.059C42.5926 37.4194 44.328 39.3853 44.328 41.7501C44.328 42.7651 44.0083 43.7066 43.4643 44.4792C44.5968 45.3479 45.3281 46.7147 45.3281 48.2497C45.3281 50.8699 43.1979 52.9998 40.578 52.9998H40.3276V53.4998C40.3276 54.3278 39.6556 54.9998 38.8276 54.9998C37.9996 54.9998 37.3276 54.3278 37.3276 53.4998V52.9998H34.8281C34.0001 52.9998 33.3281 52.3278 33.3281 51.4998V38.5C33.3281 37.672 34.0001 37 34.8281 37H37.3276ZM36.3281 46.5002H39.5779L39.6202 46.5H40.578C41.5419 46.5 42.3281 47.2859 42.3281 48.2497C42.3281 49.2139 41.5419 49.9998 40.578 49.9998H36.3281V46.5002ZM39.6035 43.5C40.556 43.4862 41.328 42.7054 41.328 41.7501C41.328 40.7862 40.5421 40 39.5779 40H36.3281V43.5H39.6035Z" fill="#157DF5"/>
<path d="M39.3281 54.9145C39.9103 54.7083 40.3276 54.1527 40.3276 53.5002V53.0001H40.578C43.1979 53.0001 45.3281 50.8702 45.3281 48.25C45.3281 46.715 44.5968 45.3483 43.4643 44.4795C44.0083 43.7069 44.328 42.7654 44.328 41.7504C44.328 39.3856 42.5926 37.4197 40.3276 37.0594V36.5003C40.3276 35.8478 39.9103 35.2921 39.3281 35.0859V40.0003H39.5779C40.5421 40.0003 41.328 40.7865 41.328 41.7504C41.328 42.7057 40.556 43.4865 39.6035 43.5003H39.3281V46.5005H39.5779L39.6202 46.5003H40.578C41.5419 46.5003 42.3281 47.2862 42.3281 48.25C42.3281 49.2142 41.5419 50.0001 40.578 50.0001H39.3281V54.9145Z" fill="#0965CD"/>
<path d="M62.0938 29.6406V73.4062C62.0938 73.9585 61.646 74.4062 61.0938 74.4062H47.3281V28H60.4531C61.372 28 62.0938 28.7218 62.0938 29.6406Z" fill="#E2EFFE"/>
<path d="M43.2031 59.6406C43.2031 60.5593 42.4814 61.2812 41.5625 61.2812H36.6406C35.7218 61.2812 35 60.5593 35 59.6406C35 58.7218 35.7218 58 36.6406 58H41.5625C42.4814 58 43.2031 58.7218 43.2031 59.6406Z" fill="#1E203E"/>
<path d="M53.7221 73.1329H53.5327L51.4905 68.803H51.7237L50.8998 67.0398C50.7326 66.6774 50.3698 66.4453 49.9684 66.4453H44.2591L41.9629 72.9006L44.4856 81.0908H53.1371C53.6084 81.0908 53.9906 80.709 53.9912 80.2378C53.9912 80.2378 53.9979 75.4542 53.998 73.7938C53.998 73.7665 53.9921 73.7401 53.9806 73.7153L53.7221 73.1329Z" fill="#25BB71"/>
<path d="M51.7231 68.8008H48.0329C47.7343 68.8008 47.4922 69.0429 47.4922 69.3415V72.4699C47.4922 72.8348 47.788 73.1307 48.153 73.1307H53.7214L51.7231 68.8008Z" fill="#F0F7FE"/>
<path d="M30.4746 75.6212V80.2418C30.4746 80.6632 30.8948 81.0912 31.4132 81.0912H49.4855V75.6211L30.4746 75.6212Z" fill="#40D98D"/>
<path d="M39.0762 75.6211H49.4863V81.0912H39.0762V75.6211Z" fill="#25BB71"/>
<path d="M44.4858 76.5617H29.4547C29.0709 76.5617 28.7598 76.2506 28.7598 75.8668V65.6949C28.7598 65.3111 29.0709 65 29.4547 65H43.7909C44.1746 65 44.4858 65.3111 44.4858 65.6949V67.5312V76.5617Z" fill="#157DF5"/>
<path d="M35.5088 83.0566C36.5579 83.0566 37.4083 82.2062 37.4083 81.1572C37.4083 80.1082 36.5579 79.2578 35.5088 79.2578C34.4598 79.2578 33.6094 80.1082 33.6094 81.1572C33.6094 82.2062 34.4598 83.0566 35.5088 83.0566Z" fill="#157DF5"/>
<path d="M35.5102 84.0006C33.943 84.0006 32.668 82.7256 32.668 81.1585C32.668 79.5914 33.943 78.3164 35.5102 78.3164C37.0774 78.3164 38.3524 79.5914 38.3524 81.1585C38.3524 82.7256 37.0774 84.0006 35.5102 84.0006ZM35.5102 80.2019C34.9827 80.2019 34.5535 80.631 34.5535 81.1585C34.5535 81.686 34.9827 82.1152 35.5102 82.1152C36.0377 82.1152 36.4669 81.686 36.4669 81.1585C36.4669 80.631 36.0377 80.2019 35.5102 80.2019Z" fill="#1E203E"/>
<path d="M49.419 83.0566C50.468 83.0566 51.3185 82.2062 51.3185 81.1572C51.3185 80.1082 50.468 79.2578 49.419 79.2578C48.37 79.2578 47.5195 80.1082 47.5195 81.1572C47.5195 82.2062 48.37 83.0566 49.419 83.0566Z" fill="#0965CD"/>
<path d="M49.4184 83.9967C47.8512 83.9967 46.5762 82.7217 46.5762 81.1546C46.5762 79.5875 47.8512 78.3125 49.4184 78.3125C50.9856 78.3125 52.2606 79.5875 52.2606 81.1546C52.2606 82.7217 50.9856 83.9967 49.4184 83.9967ZM49.4184 80.1979C48.8909 80.1979 48.4617 80.6271 48.4617 81.1546C48.4617 81.6821 48.8909 82.1113 49.4184 82.1113C49.9459 82.1113 50.3751 81.6821 50.3751 81.1546C50.3751 80.6271 49.9459 80.1979 49.4184 80.1979Z" fill="#1E203E"/>
<path d="M43.7895 65H39.0742V76.5617H44.4844V65.6949C44.4844 65.3111 44.1732 65 43.7895 65Z" fill="#0965CD"/>
<path d="M55.679 49.4002C56.5919 49.4002 57.332 48.6674 57.332 47.7634C57.332 46.8595 56.5919 46.1267 55.679 46.1267C53.8187 46.1267 52.3053 44.6282 52.3053 42.7862C52.3053 38.5409 56.6149 38.2735 61.9123 38.2735H65.1165C66.0294 38.2735 66.7695 37.5407 66.7695 36.6368C66.7695 35.7328 66.0294 35 65.1165 35H61.9123C54.792 35 48.9994 36.7359 48.9994 42.7862C48.9994 46.4332 51.9958 49.4002 55.679 49.4002Z" fill="#157DF5"/>
<path d="M57.3301 47.7695C57.3283 48.6719 56.5891 49.403 55.6772 49.403C53.9988 49.403 52.464 48.7854 51.2894 47.7695H57.3301Z" fill="#0965CD"/>
<path d="M54.5041 54.2947C57.8561 54.2947 60.6302 51.6903 60.8196 48.3655C60.871 47.463 60.1737 46.6901 59.2623 46.6393C58.3502 46.5892 57.5702 47.2788 57.5188 48.1813C57.4282 49.7738 56.104 51.0212 54.5042 51.0212C53.5913 51.0212 52.8512 51.754 52.8512 52.658C52.8512 53.5619 53.5912 54.2947 54.5041 54.2947Z" fill="#157DF5"/>
<path d="M61.5436 57.9384C61.792 57.9384 62.0442 57.8827 62.2815 57.7652C64.942 56.448 68.1525 53.5908 68.4451 49.8733C68.516 48.9721 67.8356 48.1845 66.9255 48.1143C66.017 48.0449 65.22 48.7177 65.1491 49.619C64.9767 51.8113 62.7754 53.8609 60.803 54.8372C59.9865 55.2415 59.6555 56.2247 60.0638 57.0332C60.3534 57.6067 60.9373 57.9384 61.5436 57.9384Z" fill="#157DF5"/>
<path d="M68.5779 60.2669C68.7512 60.2669 68.9275 60.2397 69.1008 60.1826C71.1122 59.5187 72.9175 58.1663 74.1841 56.3746C75.4169 54.6309 76.0957 52.5446 76.0957 50.5C76.0957 49.5961 75.3556 48.8633 74.4427 48.8633C73.5298 48.8633 72.7897 49.5961 72.7897 50.5C72.7897 53.4055 70.7988 56.1716 68.0555 57.077C67.1894 57.3629 66.7214 58.2898 67.01 59.1474C67.2409 59.8331 67.8858 60.2669 68.5779 60.2669Z" fill="#157DF5"/>
<path d="M71.9737 56.568L80.282 43.9453C82.5803 46.2662 84 49.4432 84 52.9427C84 55.2252 83.5257 57.428 82.5904 59.49C82.3523 60.0149 82.0869 60.5234 81.7962 61.0155L81.4686 61.1564C80.0012 61.7872 78.4358 62.1052 76.8705 62.1052C75.6917 62.1052 74.5129 61.9249 73.3764 61.5621L72.1853 61.1672C72.6708 60.5585 72.9463 59.7966 72.9463 58.985C72.9462 58.05 72.5759 57.1995 71.9737 56.568Z" fill="#157DF5"/>
<path d="M52.6216 47.0334C54.5017 45.1705 56.2958 43.423 59.4893 42.1126C62.6106 40.8318 65.7602 40.1139 68.3843 40.082L68.7172 40.4757C72.2933 44.7052 72.2906 50.8429 68.7107 55.0697L68.3838 55.4558C65.2842 55.4333 62.2602 54.8272 59.3933 53.6505C56.4717 52.4513 54.8569 50.7201 52.6216 48.505C52.2114 48.0985 52.2114 47.4398 52.6216 47.0334Z" fill="#157DF5"/>
<path d="M84 52.9361C84 55.2186 83.5257 57.4214 82.5904 59.4833C82.3523 60.0083 82.0869 60.5168 81.7962 61.0089L81.4686 61.1497C80.0012 61.7806 78.4358 62.0985 76.8705 62.0985C75.6917 62.0985 74.5129 61.9182 73.3764 61.5555L72.1853 61.1606C72.6708 60.5519 72.9463 59.79 72.9463 58.9783C72.9463 58.0433 72.576 57.1929 71.9737 56.5614L77.7631 47.7656H82.9026C83.6077 49.3486 84 51.0977 84 52.9361Z" fill="#0965CD"/>
<path d="M68.3836 40.0797C68.4443 40.0789 68.505 40.0781 68.5651 40.0781H71.013C74.6395 40.0781 77.923 41.5584 80.2813 43.94L80.3237 44.3062C80.6211 46.8738 80.0133 49.4925 78.6123 51.6801C77.2031 53.8807 75.051 55.5467 72.5525 56.3713L71.9729 56.5626C71.3236 55.8817 70.4046 55.4555 69.3865 55.4555H68.5615C68.5019 55.4555 68.4426 55.4537 68.3831 55.4533L68.3836 40.0797Z" fill="#E2EFFE"/>
<path d="M78.6135 51.679C77.2043 53.8796 75.0522 55.5456 72.5537 56.3702L71.9741 56.5614C71.3247 55.8806 70.4058 55.4543 69.3877 55.4543H68.5627C68.5031 55.4543 68.4438 55.4526 68.3843 55.4522L68.3845 47.7656H80.1846C79.9121 49.1468 79.3827 50.4779 78.6135 51.679Z" fill="#B6D7FC"/>
<path d="M52.6216 47.0334C54.5017 45.1705 56.2958 43.423 59.4893 42.1126C62.6106 40.8318 65.7602 40.1139 68.3843 40.082L68.7172 40.4757C72.2933 44.7052 72.2906 50.8429 68.7107 55.0697L68.3838 55.4558C65.2842 55.4333 62.2602 54.8272 59.3933 53.6505C56.4717 52.4513 54.8569 50.7201 52.6216 48.505C52.2114 48.0985 52.2114 47.4398 52.6216 47.0334Z" fill="#157DF5"/>
<path d="M71.3975 47.7656C71.3973 50.3586 70.5017 52.9515 68.7107 55.0661L68.3838 55.4522C65.2842 55.4297 62.2602 54.8236 59.3933 53.6469C56.4717 52.4477 54.8569 50.7165 52.6216 48.5014C52.4166 48.2983 52.314 48.032 52.314 47.7656H71.3975Z" fill="#0965CD"/>
<path d="M63.6941 49.4051C62.7911 49.4051 62.0591 48.6726 62.0591 47.7689C62.0591 46.8653 62.7911 46.1328 63.6941 46.1328C64.5971 46.1328 65.3291 46.8653 65.3291 47.7689C65.3291 48.6726 64.5971 49.4051 63.6941 49.4051Z" fill="#282A52"/>
<path d="M63.6941 49.4057C62.7911 49.4057 62.0591 48.6731 62.0591 47.7695H65.3291C65.3291 48.6731 64.5971 49.4057 63.6941 49.4057Z" fill="#1E203E"/>
<path d="M60.3028 66.7294C58.9629 65.3609 58.364 63.6079 58.3336 63.517C58.1674 63.02 58.3997 62.4781 58.8763 62.2514C59.0042 62.1906 61.0385 60.7747 63.7251 61.8767C64.976 62.3897 65.9281 63.437 66.5537 64.3236L70.9777 62.1333C71.458 61.8954 71.866 61.5622 72.184 61.1634L81.7949 61.0117C80.9868 62.3802 79.9788 63.6191 78.7836 64.708C77.1586 66.1886 75.2842 67.3061 73.2124 68.0296C71.4902 68.631 69.7017 68.9337 67.8791 68.9337C67.4942 68.9337 67.1077 68.9194 66.7201 68.8923C66.1029 69.822 65.0924 71.0213 63.7251 71.5821C62.9769 71.889 62.2019 72.0006 61.4699 72.0006C59.5739 72.0005 58.9685 71.2513 58.8763 71.2073C58.3997 70.9806 58.1674 70.4386 58.3336 69.9417C58.364 69.8509 58.9629 68.0979 60.3028 66.7294Z" fill="#B6D7FC"/>
<path d="M62.0938 125.641V168.406C62.0938 169.511 61.1983 170.406 60.0938 170.406H30C28.8954 170.406 28 169.511 28 168.406V125.641C28 124.722 28.7218 124 29.6406 124H60.4531C61.372 124 62.0938 124.722 62.0938 125.641Z" fill="#F0F7FE"/>
<path fill-rule="evenodd" clip-rule="evenodd" d="M37.3276 133V132.5C37.3276 131.672 37.9996 131 38.8276 131C39.6556 131 40.3276 131.672 40.3276 132.5V133.059C42.5926 133.419 44.328 135.385 44.328 137.75C44.328 138.765 44.0083 139.707 43.4643 140.479C44.5968 141.348 45.3281 142.715 45.3281 144.25C45.3281 146.87 43.1979 149 40.578 149H40.3276V149.5C40.3276 150.328 39.6556 151 38.8276 151C37.9996 151 37.3276 150.328 37.3276 149.5V149H34.8281C34.0001 149 33.3281 148.328 33.3281 147.5V134.5C33.3281 133.672 34.0001 133 34.8281 133H37.3276ZM36.3281 142.5H39.5779L39.6202 142.5H40.578C41.5419 142.5 42.3281 143.286 42.3281 144.25C42.3281 145.214 41.5419 146 40.578 146H36.3281V142.5ZM39.6035 139.5C40.556 139.486 41.328 138.705 41.328 137.75C41.328 136.786 40.5421 136 39.5779 136H36.3281V139.5H39.6035Z" fill="#157DF5"/>
<path d="M39.3281 150.915C39.9103 150.708 40.3276 150.153 40.3276 149.5V149H40.578C43.1979 149 45.3281 146.87 45.3281 144.25C45.3281 142.715 44.5968 141.348 43.4643 140.48C44.0083 139.707 44.328 138.765 44.328 137.75C44.328 135.386 42.5926 133.42 40.3276 133.059V132.5C40.3276 131.848 39.9103 131.292 39.3281 131.086V136H39.5779C40.5421 136 41.328 136.787 41.328 137.75C41.328 138.706 40.556 139.487 39.6035 139.5H39.3281V142.5H39.5779L39.6202 142.5H40.578C41.5419 142.5 42.3281 143.286 42.3281 144.25C42.3281 145.214 41.5419 146 40.578 146H39.3281V150.915Z" fill="#0965CD"/>
<path d="M62.0938 125.641V169.406C62.0938 169.959 61.646 170.406 61.0938 170.406H47.3281V124H60.4531C61.372 124 62.0938 124.722 62.0938 125.641Z" fill="#E2EFFE"/>
<path d="M43.2031 155.641C43.2031 156.559 42.4814 157.281 41.5625 157.281H36.6406C35.7218 157.281 35 156.559 35 155.641C35 154.722 35.7218 154 36.6406 154H41.5625C42.4814 154 43.2031 154.722 43.2031 155.641Z" fill="#1E203E"/>
<path d="M53.7221 169.133H53.5327L51.4905 164.803H51.7237L50.8998 163.04C50.7326 162.677 50.3698 162.445 49.9684 162.445H44.2591L41.9629 168.901L44.4856 177.091H53.1371C53.6084 177.091 53.9906 176.709 53.9912 176.238C53.9912 176.238 53.9979 171.454 53.998 169.794C53.998 169.766 53.9921 169.74 53.9806 169.715L53.7221 169.133Z" fill="#25BB71"/>
<path d="M51.7231 164.801H48.0329C47.7343 164.801 47.4922 165.043 47.4922 165.342V168.47C47.4922 168.835 47.788 169.131 48.153 169.131H53.7214L51.7231 164.801Z" fill="#F0F7FE"/>
<path d="M30.4746 171.621V176.242C30.4746 176.663 30.8948 177.091 31.4132 177.091H49.4855V171.621L30.4746 171.621Z" fill="#40D98D"/>
<path d="M39.0762 171.621H49.4863V177.091H39.0762V171.621Z" fill="#25BB71"/>
<path d="M44.4858 172.562H29.4547C29.0709 172.562 28.7598 172.251 28.7598 171.867V161.695C28.7598 161.311 29.0709 161 29.4547 161H43.7909C44.1746 161 44.4858 161.311 44.4858 161.695V163.531V172.562Z" fill="#157DF5"/>
<path d="M35.5088 179.057C36.5579 179.057 37.4083 178.206 37.4083 177.157C37.4083 176.108 36.5579 175.258 35.5088 175.258C34.4598 175.258 33.6094 176.108 33.6094 177.157C33.6094 178.206 34.4598 179.057 35.5088 179.057Z" fill="#157DF5"/>
<path d="M35.5102 180.001C33.943 180.001 32.668 178.726 32.668 177.159C32.668 175.591 33.943 174.316 35.5102 174.316C37.0774 174.316 38.3524 175.591 38.3524 177.159C38.3524 178.726 37.0774 180.001 35.5102 180.001ZM35.5102 176.202C34.9827 176.202 34.5535 176.631 34.5535 177.159C34.5535 177.686 34.9827 178.115 35.5102 178.115C36.0377 178.115 36.4669 177.686 36.4669 177.159C36.4669 176.631 36.0377 176.202 35.5102 176.202Z" fill="#1E203E"/>
<path d="M49.419 179.057C50.468 179.057 51.3185 178.206 51.3185 177.157C51.3185 176.108 50.468 175.258 49.419 175.258C48.37 175.258 47.5195 176.108 47.5195 177.157C47.5195 178.206 48.37 179.057 49.419 179.057Z" fill="#0965CD"/>
<path d="M49.4184 179.997C47.8512 179.997 46.5762 178.722 46.5762 177.155C46.5762 175.587 47.8512 174.312 49.4184 174.312C50.9856 174.312 52.2606 175.587 52.2606 177.155C52.2606 178.722 50.9856 179.997 49.4184 179.997ZM49.4184 176.198C48.8909 176.198 48.4617 176.627 48.4617 177.155C48.4617 177.682 48.8909 178.111 49.4184 178.111C49.9459 178.111 50.3751 177.682 50.3751 177.155C50.3751 176.627 49.9459 176.198 49.4184 176.198Z" fill="#1E203E"/>
<path d="M43.7895 161H39.0742V172.562H44.4844V161.695C44.4844 161.311 44.1732 161 43.7895 161Z" fill="#0965CD"/>
<path d="M55.679 145.4C56.5919 145.4 57.332 144.667 57.332 143.763C57.332 142.86 56.5919 142.127 55.679 142.127C53.8187 142.127 52.3053 140.628 52.3053 138.786C52.3053 134.541 56.6149 134.274 61.9123 134.274H65.1165C66.0294 134.274 66.7695 133.541 66.7695 132.637C66.7695 131.733 66.0294 131 65.1165 131H61.9123C54.792 131 48.9994 132.736 48.9994 138.786C48.9994 142.433 51.9958 145.4 55.679 145.4Z" fill="#157DF5"/>
<path d="M57.3301 143.77C57.3283 144.672 56.5891 145.403 55.6772 145.403C53.9988 145.403 52.464 144.785 51.2894 143.77H57.3301Z" fill="#0965CD"/>
<path d="M54.5041 150.295C57.8561 150.295 60.6302 147.69 60.8196 144.366C60.871 143.463 60.1737 142.69 59.2623 142.639C58.3502 142.589 57.5702 143.279 57.5188 144.181C57.4282 145.774 56.104 147.021 54.5042 147.021C53.5913 147.021 52.8512 147.754 52.8512 148.658C52.8512 149.562 53.5912 150.295 54.5041 150.295Z" fill="#157DF5"/>
<path d="M61.5436 153.938C61.792 153.938 62.0442 153.883 62.2815 153.765C64.942 152.448 68.1525 149.591 68.4451 145.873C68.516 144.972 67.8356 144.184 66.9255 144.114C66.017 144.045 65.22 144.718 65.1491 145.619C64.9767 147.811 62.7754 149.861 60.803 150.837C59.9865 151.242 59.6555 152.225 60.0638 153.033C60.3534 153.607 60.9373 153.938 61.5436 153.938Z" fill="#157DF5"/>
<path d="M68.5779 156.267C68.7512 156.267 68.9275 156.24 69.1008 156.183C71.1122 155.519 72.9175 154.166 74.1841 152.375C75.4169 150.631 76.0957 148.545 76.0957 146.5C76.0957 145.596 75.3556 144.863 74.4427 144.863C73.5298 144.863 72.7897 145.596 72.7897 146.5C72.7897 149.406 70.7988 152.172 68.0555 153.077C67.1894 153.363 66.7214 154.29 67.01 155.147C67.2409 155.833 67.8858 156.267 68.5779 156.267Z" fill="#157DF5"/>
<path d="M71.9737 152.568L80.282 139.945C82.5803 142.266 84 145.443 84 148.943C84 151.225 83.5257 153.428 82.5904 155.49C82.3523 156.015 82.0869 156.523 81.7962 157.015L81.4686 157.156C80.0012 157.787 78.4358 158.105 76.8705 158.105C75.6917 158.105 74.5129 157.925 73.3764 157.562L72.1853 157.167C72.6708 156.558 72.9463 155.797 72.9463 154.985C72.9462 154.05 72.5759 153.2 71.9737 152.568Z" fill="#157DF5"/>
<path d="M52.6216 143.033C54.5017 141.171 56.2958 139.423 59.4893 138.113C62.6106 136.832 65.7602 136.114 68.3843 136.082L68.7172 136.476C72.2933 140.705 72.2906 146.843 68.7107 151.07L68.3838 151.456C65.2842 151.433 62.2602 150.827 59.3933 149.65C56.4717 148.451 54.8569 146.72 52.6216 144.505C52.2114 144.099 52.2114 143.44 52.6216 143.033Z" fill="#157DF5"/>
<path d="M84 148.936C84 151.219 83.5257 153.421 82.5904 155.483C82.3523 156.008 82.0869 156.517 81.7962 157.009L81.4686 157.15C80.0012 157.781 78.4358 158.099 76.8705 158.099C75.6917 158.099 74.5129 157.918 73.3764 157.555L72.1853 157.161C72.6708 156.552 72.9463 155.79 72.9463 154.978C72.9463 154.043 72.576 153.193 71.9737 152.561L77.7631 143.766H82.9026C83.6077 145.349 84 147.098 84 148.936Z" fill="#0965CD"/>
<path d="M68.3836 136.08C68.4443 136.079 68.505 136.078 68.5651 136.078H71.013C74.6395 136.078 77.923 137.558 80.2813 139.94L80.3237 140.306C80.6211 142.874 80.0133 145.492 78.6123 147.68C77.2031 149.881 75.051 151.547 72.5525 152.371L71.9729 152.563C71.3236 151.882 70.4046 151.455 69.3865 151.455H68.5615C68.5019 151.455 68.4426 151.454 68.3831 151.453L68.3836 136.08Z" fill="#E2EFFE"/>
<path d="M78.6135 147.679C77.2043 149.88 75.0522 151.546 72.5537 152.37L71.9741 152.561C71.3247 151.881 70.4058 151.454 69.3877 151.454H68.5627C68.5031 151.454 68.4438 151.453 68.3843 151.452L68.3845 143.766H80.1846C79.9121 145.147 79.3827 146.478 78.6135 147.679Z" fill="#B6D7FC"/>
<path d="M52.6216 143.033C54.5017 141.171 56.2958 139.423 59.4893 138.113C62.6106 136.832 65.7602 136.114 68.3843 136.082L68.7172 136.476C72.2933 140.705 72.2906 146.843 68.7107 151.07L68.3838 151.456C65.2842 151.433 62.2602 150.827 59.3933 149.65C56.4717 148.451 54.8569 146.72 52.6216 144.505C52.2114 144.099 52.2114 143.44 52.6216 143.033Z" fill="#157DF5"/>
<path d="M71.3975 143.766C71.3973 146.359 70.5017 148.952 68.7107 151.066L68.3838 151.452C65.2842 151.43 62.2602 150.824 59.3933 149.647C56.4717 148.448 54.8569 146.716 52.6216 144.501C52.4166 144.298 52.314 144.032 52.314 143.766H71.3975Z" fill="#0965CD"/>
<path d="M63.6941 145.405C62.7911 145.405 62.0591 144.673 62.0591 143.769C62.0591 142.865 62.7911 142.133 63.6941 142.133C64.5971 142.133 65.3291 142.865 65.3291 143.769C65.3291 144.673 64.5971 145.405 63.6941 145.405Z" fill="#282A52"/>
<path d="M63.6941 145.406C62.7911 145.406 62.0591 144.673 62.0591 143.77H65.3291C65.3291 144.673 64.5971 145.406 63.6941 145.406Z" fill="#1E203E"/>
<path d="M60.3028 162.729C58.9629 161.361 58.364 159.608 58.3336 159.517C58.1674 159.02 58.3997 158.478 58.8763 158.251C59.0042 158.191 61.0385 156.775 63.7251 157.877C64.976 158.39 65.9281 159.437 66.5537 160.324L70.9777 158.133C71.458 157.895 71.866 157.562 72.184 157.163L81.7949 157.012C80.9868 158.38 79.9788 159.619 78.7836 160.708C77.1586 162.189 75.2842 163.306 73.2124 164.03C71.4902 164.631 69.7017 164.934 67.8791 164.934C67.4942 164.934 67.1077 164.919 66.7201 164.892C66.1029 165.822 65.0924 167.021 63.7251 167.582C62.9769 167.889 62.2019 168.001 61.4699 168.001C59.5739 168 58.9685 167.251 58.8763 167.207C58.3997 166.981 58.1674 166.439 58.3336 165.942C58.364 165.851 58.9629 164.098 60.3028 162.729Z" fill="#B6D7FC"/>
<defs>
<filter id="filter0_dd_7415_38887" x="6" y="9" width="100" height="100" filterUnits="userSpaceOnUse" color-interpolation-filters="sRGB">
<feFlood flood-opacity="0" result="BackgroundImageFix"/>
<feColorMatrix in="SourceAlpha" type="matrix" values="0 0 0 0 0 0 0 0 0 0 0 0 0 0 0 0 0 0 127 0" result="hardAlpha"/>
<feOffset dy="3"/>
<feGaussianBlur stdDeviation="5"/>
<feColorMatrix type="matrix" values="0 0 0 0 0.516667 0 0 0 0 0.578358 0 0 0 0 0.775 0 0 0 0.12 0"/>
<feBlend mode="normal" in2="BackgroundImageFix" result="effect1_dropShadow_7415_38887"/>
<feColorMatrix in="SourceAlpha" type="matrix" values="0 0 0 0 0 0 0 0 0 0 0 0 0 0 0 0 0 0 127 0" result="hardAlpha"/>
<feOffset dy="1"/>
<feGaussianBlur stdDeviation="3"/>
<feColorMatrix type="matrix" values="0 0 0 0 0.709809 0 0 0 0 0.788943 0 0 0 0 0.920833 0 0 0 0.15 0"/>
<feBlend mode="normal" in2="effect1_dropShadow_7415_38887" result="effect2_dropShadow_7415_38887"/>
<feBlend mode="normal" in="SourceGraphic" in2="effect2_dropShadow_7415_38887" result="shape"/>
</filter>
</defs>
</svg>
