<svg width="112" height="208" viewBox="0 0 112 208" fill="none" xmlns="http://www.w3.org/2000/svg">
<rect x="0.5" y="0.5" width="111" height="207" rx="4.5" stroke="#9747FF" stroke-dasharray="10 5"/>
<g filter="url(#filter0_dd_11513_74325)">
<rect x="16" y="16" width="80" height="80" rx="8" fill="white"/>
</g>
<path d="M75.5565 76.0681L55.997 80.5533L51.2881 30.8828L75.557 35.9269C78.8561 48.9229 78.7715 63.0501 75.5565 76.0681Z" fill="#B6D7FC"/>
<path d="M36.4429 76.0712L55.9971 80.5564V76.0713V31.9648L36.4429 35.9295C33.1438 48.9255 33.2279 63.0531 36.4429 76.0712Z" fill="#E2EFFE"/>
<path d="M55.9962 35.9293H75.5557V30C75.5557 28.8954 74.6603 28 73.5557 28H55.9962L54.043 32.3597L55.9962 35.9293Z" fill="#0965CD"/>
<path d="M55.9957 76.0703H75.5552V81.9996C75.5552 83.1042 74.6598 83.9996 73.5552 83.9996H55.9957L53.7217 80.035L55.9957 76.0703Z" fill="#0965CD"/>
<path d="M36.4434 30C36.4434 28.8954 37.3388 28 38.4434 28H55.9976V35.9293H36.4434V30Z" fill="#157DF5"/>
<path d="M36.4434 76.0703H55.9976V83.9996H38.4434C37.3388 83.9996 36.4434 83.1042 36.4434 81.9996V76.0703Z" fill="#157DF5"/>
<path d="M67.821 54.4002C66.9081 54.4002 66.168 53.6674 66.168 52.7634C66.168 51.8595 66.9081 51.1267 67.821 51.1267C69.6813 51.1267 71.1947 49.6282 71.1947 47.7862C71.1947 42.5409 66.8851 38.2735 61.5877 38.2735H52.3835C51.4706 38.2735 50.7305 37.5407 50.7305 36.6368C50.7305 35.7328 51.4706 35 52.3835 35H61.5877C68.708 35 74.5006 40.7359 74.5006 47.7862C74.5006 51.4332 71.5042 54.4002 67.821 54.4002Z" fill="white"/>
<path d="M66.1699 52.7695C66.1717 53.6719 66.9109 54.403 67.8228 54.403C69.5012 54.403 71.036 53.7854 72.2106 52.7695H66.1699Z" fill="white"/>
<path d="M67.9961 59.2947C64.644 59.2947 61.87 56.6903 61.6805 53.3655C61.6292 52.463 62.3264 51.6901 63.2379 51.6393C64.15 51.5892 64.93 52.2788 64.9813 53.1813C65.0719 54.7738 66.3962 56.0212 67.9959 56.0212C68.9088 56.0212 69.6489 56.754 69.6489 57.658C69.6489 58.5619 68.909 59.2947 67.9961 59.2947Z" fill="white"/>
<path d="M60.9564 63.9384C60.708 63.9384 60.4558 63.8827 60.2185 63.7652C57.558 62.448 54.3475 59.5908 54.0549 55.8733C53.984 54.9721 54.6644 54.1845 55.5745 54.1143C56.483 54.0449 57.28 54.7177 57.3509 55.619C57.5233 57.8113 59.7246 59.8609 61.697 60.8372C62.5135 61.2415 62.8445 62.2247 62.4362 63.0332C62.1466 63.6067 61.5627 63.9384 60.9564 63.9384Z" fill="white"/>
<path d="M60.9564 63.9384C60.708 63.9384 60.4558 63.8827 60.2185 63.7652C57.558 62.448 54.3475 59.5908 54.0549 55.8733C53.984 54.9721 54.6644 54.1845 55.5745 54.1143C56.483 54.0449 57.28 54.7177 57.3509 55.619C57.5233 57.8113 59.7246 59.8609 61.697 60.8372C62.5135 61.2415 62.8445 62.2247 62.4362 63.0332C62.1466 63.6067 61.5627 63.9384 60.9564 63.9384Z" fill="white"/>
<path fill-rule="evenodd" clip-rule="evenodd" d="M34.5 57.9427C34.5 60.649 35.0642 63.2748 36.1775 65.7292C36.4611 66.3546 36.7766 66.9586 37.1207 67.5411L37.6187 68.3843L37.6666 68.405C38.524 69.692 39.5377 70.8704 40.6959 71.9256C42.6193 73.678 44.8444 75.0048 47.2985 75.8618C49.2497 76.5432 51.276 76.9015 53.3372 76.9316C54.1316 77.8284 55.2242 78.7785 56.6364 79.3577C57.8221 79.8439 58.9995 80.0006 60.0301 80.0005C62.5982 80.0004 64.69 79.0223 64.9123 78.9165C66.7437 78.0453 67.6639 75.9407 67.0114 73.99L67.0109 73.9885C66.9688 73.8629 66.6427 72.8965 65.9431 71.7294C66.6427 70.5623 66.9689 69.5957 67.0111 69.4696L67.0114 69.4686C67.6639 67.5179 66.7429 65.413 64.9115 64.5419C64.7284 64.4548 63.7576 64.0088 62.3987 63.7177C62.1256 63.6592 61.8253 63.6045 61.5028 63.5605C61.4356 63.0889 61.3242 62.627 61.172 62.1807C61.6651 62.0235 62.1546 61.8519 62.6402 61.666C62.8428 61.5884 63.0447 61.5083 63.2457 61.4258C63.3921 61.3657 63.5378 61.3044 63.6829 61.2419C64.9768 61.9155 66.4457 62.2948 67.996 62.2948C70.538 62.2948 72.6489 60.2464 72.6489 57.658C72.6489 57.1618 72.5713 56.6854 72.4279 56.2395C75.438 54.6157 77.5006 51.4499 77.5006 47.7861C77.5006 39.0512 70.3369 32 61.5877 32H52.3834C49.8416 32 47.7304 34.0482 47.7304 36.6368C47.7304 39.2254 49.8416 41.2735 52.3834 41.2735H61.5877C64.9425 41.2735 67.6867 43.7422 68.1315 46.8875C66.6106 45.9271 64.9233 45.065 63.1495 44.3372C60.8126 43.3782 58.4035 42.6846 56.1164 42.3359L53.1479 42.0798L53.0623 42.0789C53.0226 42.0784 52.9791 42.0781 52.9348 42.0781H50.487C46.0287 42.0781 41.9865 43.9009 39.087 46.8291L38.3778 47.5453L38.3695 47.6076C35.9653 50.3787 34.5 53.9925 34.5 57.9427Z" fill="white"/>
<path fill-rule="evenodd" clip-rule="evenodd" d="M51.0643 56.1084C50.8613 53.5266 52.8075 51.3187 55.3441 51.1232L55.3462 51.123C57.8717 50.9301 60.1385 52.8011 60.3419 55.3835C60.3573 55.5793 60.5063 56.0415 61.078 56.6761C61.6253 57.2835 62.3572 57.8165 63.0281 58.1486C65.3227 59.2847 66.2812 62.0747 65.1143 64.3855C64.2899 66.018 62.6396 66.9384 60.9566 66.9384C60.2582 66.9384 59.5491 66.7813 58.8877 66.4537M55.5745 54.1143C56.483 54.0449 57.28 54.7177 57.3509 55.619C57.5233 57.8113 59.7246 59.8609 61.697 60.8372C62.5135 61.2415 62.8445 62.2247 62.4362 63.0332C62.1466 63.6067 61.5627 63.9384 60.9564 63.9384C60.708 63.9384 60.4558 63.8827 60.2185 63.7652C57.558 62.448 54.3475 59.5908 54.0549 55.8733C53.984 54.9721 54.6644 54.1845 55.5745 54.1143ZM51.0643 56.1084C51.479 61.3778 55.8381 64.9438 58.8877 66.4537L51.0643 56.1084Z" fill="white"/>
<path d="M53.9221 66.2669C53.7488 66.2669 53.5725 66.2397 53.3992 66.1826C51.3878 65.5187 49.5826 64.1663 48.3159 62.3746C47.0831 60.6309 46.4043 58.5446 46.4043 56.5C46.4043 55.5961 47.1444 54.8633 48.0573 54.8633C48.9702 54.8633 49.7103 55.5961 49.7103 56.5C49.7103 59.4055 51.7012 62.1716 54.4445 63.077C55.3106 63.3628 55.7786 64.2898 55.49 65.1474C55.2591 65.833 54.6142 66.2669 53.9221 66.2669Z" fill="white"/>
<path d="M49.5262 61.568L41.2178 48.9453C38.9195 51.2662 37.4998 54.4432 37.4998 57.9427C37.4998 60.2252 37.9741 62.428 38.9094 64.49C39.1475 65.0149 39.413 65.5234 39.7036 66.0155L40.0312 66.1563C41.4986 66.7872 43.064 67.1052 44.6293 67.1052C45.8081 67.1052 46.9869 66.9249 48.1234 66.5621L49.3145 66.1672C48.829 65.5585 48.5535 64.7966 48.5535 63.985C48.5536 63.05 48.9239 62.1995 49.5262 61.568Z" fill="white"/>
<path d="M69.8782 52.0334C67.9981 50.1705 65.204 48.423 62.0105 47.1126C58.8892 45.8318 55.7396 45.1139 53.1155 45.082L52.7826 45.4757C49.2065 49.7052 49.2092 55.8429 52.7891 60.0697L53.116 60.4558C56.2156 60.4333 59.2396 59.8272 62.1065 58.6505C65.0281 57.4513 67.6429 55.7201 69.8782 53.505C70.2884 53.0985 70.2884 52.4398 69.8782 52.0334Z" fill="white"/>
<path d="M37.4998 57.9361C37.4998 60.2186 37.9741 62.4214 38.9094 64.4833C39.1475 65.0083 39.413 65.5168 39.7036 66.0089L40.0312 66.1497C41.4986 66.7806 43.064 67.0985 44.6293 67.0985C45.8081 67.0985 46.9869 66.9182 48.1234 66.5555L49.3145 66.1606C48.829 65.5519 48.5535 64.79 48.5535 63.9783C48.5535 63.0434 48.9239 62.1929 49.5261 61.5614L43.7367 52.7656H38.5973C37.8921 54.3486 37.4998 56.0977 37.4998 57.9361Z" fill="white"/>
<path d="M53.1162 45.0797C53.0555 45.0789 52.9948 45.0781 52.9347 45.0781H50.4868C46.8603 45.0781 43.5768 46.5584 41.2185 48.94L41.1761 49.3062C40.8788 51.8738 41.4865 54.4925 42.8875 56.6801C44.2967 58.8807 46.4488 60.5467 48.9473 61.3713L49.5269 61.5626C50.1763 60.8817 51.0952 60.4555 52.1133 60.4555H52.9383C52.9979 60.4555 53.0573 60.4537 53.1168 60.4533L53.1162 45.0797Z" fill="white"/>
<path d="M42.8865 56.679C44.2958 58.8796 46.4478 60.5456 48.9463 61.3702L49.5261 61.5614C50.1754 60.8805 51.0942 60.4543 52.1123 60.4543H52.9373C52.9969 60.4543 53.0563 60.4526 53.1158 60.4522L53.1155 52.7656H41.3155C41.5879 54.1468 42.1174 55.4779 42.8865 56.679Z" fill="white"/>
<path d="M69.8782 52.0334C67.9981 50.1705 65.204 48.423 62.0105 47.1126C58.8892 45.8318 55.7396 45.1139 53.1155 45.082L52.7826 45.4757C49.2065 49.7052 49.2092 55.8429 52.7891 60.0697L53.116 60.4558C56.2156 60.4333 59.2396 59.8272 62.1065 58.6505C65.0281 57.4513 67.6429 55.7201 69.8782 53.505C70.2884 53.0985 70.2884 52.4398 69.8782 52.0334Z" fill="white"/>
<path d="M50.1024 52.7656C50.1025 55.3586 50.9981 57.9515 52.7891 60.0661L53.1158 60.4522C56.2154 60.4297 59.2396 59.8236 62.1065 58.6469C65.0281 57.4477 67.6429 55.7165 69.8782 53.5014C70.0832 53.2983 70.1858 53.032 70.1858 52.7656H50.1024Z" fill="white"/>
<path d="M57.8057 54.4051C58.7087 54.4051 59.4407 53.6726 59.4407 52.7689C59.4407 51.8653 58.7087 51.1328 57.8057 51.1328C56.9027 51.1328 56.1707 51.8653 56.1707 52.7689C56.1707 53.6726 56.9027 54.4051 57.8057 54.4051Z" fill="white"/>
<path d="M57.8057 54.4051C58.7087 54.4051 59.4407 53.6726 59.4407 52.7689H56.1707C56.1707 53.6726 56.9027 54.4051 57.8057 54.4051Z" fill="white"/>
<path d="M62.1969 71.7294C63.5368 70.3609 64.1357 68.6079 64.1661 68.517C64.3324 68.02 64.1 67.4781 63.6234 67.2514C63.4955 67.1906 60.4612 65.7747 57.7746 66.8767C56.5237 67.3897 55.5716 68.437 54.946 69.3236L50.522 67.1333C50.0417 66.8954 49.6337 66.5622 49.3157 66.1634L39.7048 66.0117C40.5129 67.3802 41.5209 68.6191 42.7161 69.708C44.3411 71.1886 46.2155 72.3061 48.2873 73.0296C50.0095 73.631 51.798 73.9337 53.6206 73.9337C54.0055 73.9337 54.392 73.9194 54.7796 73.8923C55.3968 74.822 56.4073 76.0213 57.7746 76.5821C58.5228 76.889 59.2978 77.0006 60.0298 77.0006C61.9258 77.0005 63.5312 76.2513 63.6234 76.2073C64.1 75.9806 64.3324 75.4386 64.1661 74.9417C64.1357 74.8509 63.5368 73.0979 62.1969 71.7294Z" fill="white"/>
<path d="M67.821 54.4002C66.9081 54.4002 66.168 53.6674 66.168 52.7634C66.168 51.8595 66.9081 51.1267 67.821 51.1267C69.6813 51.1267 71.1947 49.6282 71.1947 47.7862C71.1947 42.5409 66.8851 38.2735 61.5877 38.2735H52.3835C51.4706 38.2735 50.7305 37.5407 50.7305 36.6368C50.7305 35.7328 51.4706 35 52.3835 35H61.5877C68.708 35 74.5006 40.7359 74.5006 47.7862C74.5006 51.4332 71.5042 54.4002 67.821 54.4002Z" fill="#FFDECC"/>
<path d="M66.1699 52.7695C66.1717 53.6719 66.9109 54.403 67.8228 54.403C69.5012 54.403 71.036 53.7854 72.2106 52.7695H66.1699Z" fill="#FFCFB5"/>
<path d="M67.9959 59.2947C64.6439 59.2947 61.8698 56.6903 61.6804 53.3655C61.629 52.463 62.3263 51.6901 63.2377 51.6393C64.1498 51.5892 64.9298 52.2788 64.9812 53.1813C65.0718 54.7738 66.396 56.0212 67.9958 56.0212C68.9087 56.0212 69.6488 56.754 69.6488 57.658C69.6488 58.5619 68.9088 59.2947 67.9959 59.2947Z" fill="#FFDECC"/>
<path d="M60.9564 63.9384C60.708 63.9384 60.4558 63.8827 60.2185 63.7652C57.558 62.448 54.3475 59.5908 54.0549 55.8733C53.984 54.9721 54.6644 54.1845 55.5745 54.1143C56.483 54.0449 57.28 54.7177 57.3509 55.619C57.5233 57.8113 59.7246 59.8609 61.697 60.8372C62.5135 61.2415 62.8445 62.2247 62.4362 63.0332C62.1466 63.6067 61.5627 63.9384 60.9564 63.9384Z" fill="#FFDECC"/>
<path d="M53.9221 66.2669C53.7488 66.2669 53.5725 66.2397 53.3992 66.1826C51.3878 65.5187 49.5825 64.1663 48.3159 62.3746C47.0831 60.6309 46.4043 58.5446 46.4043 56.5C46.4043 55.5961 47.1444 54.8633 48.0573 54.8633C48.9702 54.8633 49.7103 55.5961 49.7103 56.5C49.7103 59.4055 51.7012 62.1716 54.4445 63.077C55.3106 63.3629 55.7786 64.2898 55.49 65.1474C55.2591 65.8331 54.6142 66.2669 53.9221 66.2669Z" fill="#FFDECC"/>
<path d="M49.5263 61.568L41.218 48.9453C38.9197 51.2662 37.5 54.4432 37.5 57.9427C37.5 60.2252 37.9743 62.428 38.9096 64.49C39.1477 65.0149 39.4131 65.5234 39.7038 66.0155L40.0314 66.1564C41.4988 66.7872 43.0642 67.1052 44.6295 67.1052C45.8083 67.1052 46.9871 66.9249 48.1236 66.5621L49.3147 66.1672C48.8292 65.5585 48.5537 64.7966 48.5537 63.985C48.5538 63.05 48.9241 62.1995 49.5263 61.568Z" fill="#FFDECC"/>
<path d="M69.8784 52.0334C67.9983 50.1705 65.2042 48.423 62.0107 47.1126C58.8894 45.8318 55.7398 45.1139 53.1157 45.082L52.7828 45.4757C49.2067 49.7052 49.2094 55.8429 52.7893 60.0697L53.1162 60.4558C56.2158 60.4333 59.2398 59.8272 62.1067 58.6505C65.0283 57.4513 67.6431 55.7201 69.8784 53.505C70.2886 53.0985 70.2886 52.4398 69.8784 52.0334Z" fill="#157DF5"/>
<path d="M37.5 57.9361C37.5 60.2186 37.9743 62.4214 38.9096 64.4833C39.1477 65.0083 39.4131 65.5168 39.7038 66.0089L40.0314 66.1497C41.4988 66.7806 43.0642 67.0985 44.6295 67.0985C45.8083 67.0985 46.9871 66.9182 48.1236 66.5555L49.3147 66.1606C48.8292 65.5519 48.5537 64.79 48.5537 63.9783C48.5537 63.0433 48.924 62.1929 49.5263 61.5614L43.7369 52.7656H38.5974C37.8923 54.3486 37.5 56.0977 37.5 57.9361Z" fill="#FFCFB5"/>
<path d="M53.1164 45.0797C53.0557 45.0789 52.995 45.0781 52.9349 45.0781H50.487C46.8605 45.0781 43.577 46.5584 41.2187 48.94L41.1763 49.3062C40.8789 51.8738 41.4867 54.4925 42.8877 56.6801C44.2969 58.8807 46.449 60.5467 48.9475 61.3713L49.5271 61.5626C50.1764 60.8817 51.0954 60.4555 52.1135 60.4555H52.9385C52.9981 60.4555 53.0574 60.4537 53.1169 60.4533L53.1164 45.0797Z" fill="#F54B5E"/>
<path d="M42.8865 56.679C44.2957 58.8796 46.4478 60.5456 48.9463 61.3702L49.5259 61.5614C50.1753 60.8806 51.0942 60.4543 52.1123 60.4543H52.9373C52.9969 60.4543 53.0562 60.4526 53.1157 60.4522L53.1155 52.7656H41.3154C41.5879 54.1468 42.1173 55.4779 42.8865 56.679Z" fill="#F3263D"/>
<path d="M69.8784 52.0334C67.9983 50.1705 65.2042 48.423 62.0107 47.1126C58.8894 45.8318 55.7398 45.1139 53.1157 45.082L52.7828 45.4757C49.2067 49.7052 49.2094 55.8429 52.7893 60.0697L53.1162 60.4558C56.2158 60.4333 59.2398 59.8272 62.1067 58.6505C65.0283 57.4513 67.6431 55.7201 69.8784 53.505C70.2886 53.0985 70.2886 52.4398 69.8784 52.0334Z" fill="#FFDECC"/>
<path d="M50.1025 52.7656C50.1027 55.3586 50.9983 57.9515 52.7893 60.0661L53.1162 60.4522C56.2158 60.4297 59.2398 59.8236 62.1067 58.6469C65.0283 57.4477 67.6431 55.7165 69.8784 53.5014C70.0834 53.2983 70.186 53.032 70.186 52.7656H50.1025Z" fill="#FFCFB5"/>
<path d="M57.8059 54.4051C58.7089 54.4051 59.4409 53.6726 59.4409 52.7689C59.4409 51.8653 58.7089 51.1328 57.8059 51.1328C56.9029 51.1328 56.1709 51.8653 56.1709 52.7689C56.1709 53.6726 56.9029 54.4051 57.8059 54.4051Z" fill="#282A52"/>
<path d="M57.8059 54.4057C58.7089 54.4057 59.4409 53.6731 59.4409 52.7695H56.1709C56.1709 53.6731 56.9029 54.4057 57.8059 54.4057Z" fill="#1E203E"/>
<path d="M62.1972 71.7294C63.5371 70.3609 64.136 68.6079 64.1664 68.517C64.3326 68.02 64.1003 67.4781 63.6237 67.2514C63.4958 67.1906 60.4615 65.7747 57.7749 66.8767C56.524 67.3897 55.5719 68.437 54.9463 69.3236L50.5223 67.1333C50.042 66.8954 49.634 66.5622 49.316 66.1634L39.7051 66.0117C40.5132 67.3802 41.5212 68.6191 42.7164 69.708C44.3414 71.1886 46.2158 72.3061 48.2876 73.0296C50.0098 73.631 51.7983 73.9337 53.6209 73.9337C54.0058 73.9337 54.3923 73.9194 54.7799 73.8923C55.3971 74.822 56.4076 76.0213 57.7749 76.5821C58.5231 76.889 59.2981 77.0006 60.0301 77.0006C61.9261 77.0005 63.5315 76.2513 63.6237 76.2073C64.1003 75.9806 64.3326 75.4386 64.1664 74.9417C64.136 74.8509 63.5371 73.0979 62.1972 71.7294Z" fill="#F54B5E"/>
<path d="M75.5565 172.068L55.997 176.553L51.2881 126.883L75.557 131.927C78.8561 144.923 78.7715 159.05 75.5565 172.068Z" fill="#B6D7FC"/>
<path d="M36.4429 172.071L55.9971 176.556V172.071V127.965L36.4429 131.929C33.1438 144.925 33.2279 159.053 36.4429 172.071Z" fill="#E2EFFE"/>
<path d="M55.9962 131.929H75.5557V126C75.5557 124.895 74.6603 124 73.5557 124H55.9962L54.043 128.36L55.9962 131.929Z" fill="#0965CD"/>
<path d="M55.9957 172.07H75.5552V178C75.5552 179.104 74.6598 180 73.5552 180H55.9957L53.7217 176.035L55.9957 172.07Z" fill="#0965CD"/>
<path d="M36.4434 126C36.4434 124.895 37.3388 124 38.4434 124H55.9976V131.929H36.4434V126Z" fill="#157DF5"/>
<path d="M36.4434 172.07H55.9976V180H38.4434C37.3388 180 36.4434 179.104 36.4434 178V172.07Z" fill="#157DF5"/>
<path d="M67.821 150.4C66.9081 150.4 66.168 149.667 66.168 148.763C66.168 147.86 66.9081 147.127 67.821 147.127C69.6813 147.127 71.1947 145.628 71.1947 143.786C71.1947 138.541 66.8851 134.274 61.5877 134.274H52.3835C51.4706 134.274 50.7305 133.541 50.7305 132.637C50.7305 131.733 51.4706 131 52.3835 131H61.5877C68.708 131 74.5006 136.736 74.5006 143.786C74.5006 147.433 71.5042 150.4 67.821 150.4Z" fill="white"/>
<path d="M66.1699 148.77C66.1717 149.672 66.9109 150.403 67.8228 150.403C69.5012 150.403 71.036 149.785 72.2106 148.77H66.1699Z" fill="white"/>
<path d="M67.9961 155.295C64.644 155.295 61.87 152.69 61.6805 149.366C61.6292 148.463 62.3264 147.69 63.2379 147.639C64.15 147.589 64.93 148.279 64.9813 149.181C65.0719 150.774 66.3962 152.021 67.9959 152.021C68.9088 152.021 69.6489 152.754 69.6489 153.658C69.6489 154.562 68.909 155.295 67.9961 155.295Z" fill="white"/>
<path d="M60.9564 159.938C60.708 159.938 60.4558 159.883 60.2185 159.765C57.558 158.448 54.3475 155.591 54.0549 151.873C53.984 150.972 54.6644 150.184 55.5745 150.114C56.483 150.045 57.28 150.718 57.3509 151.619C57.5233 153.811 59.7246 155.861 61.697 156.837C62.5135 157.242 62.8445 158.225 62.4362 159.033C62.1466 159.607 61.5627 159.938 60.9564 159.938Z" fill="white"/>
<path d="M60.9564 159.938C60.708 159.938 60.4558 159.883 60.2185 159.765C57.558 158.448 54.3475 155.591 54.0549 151.873C53.984 150.972 54.6644 150.184 55.5745 150.114C56.483 150.045 57.28 150.718 57.3509 151.619C57.5233 153.811 59.7246 155.861 61.697 156.837C62.5135 157.242 62.8445 158.225 62.4362 159.033C62.1466 159.607 61.5627 159.938 60.9564 159.938Z" fill="white"/>
<path fill-rule="evenodd" clip-rule="evenodd" d="M34.5 153.943C34.5 156.649 35.0642 159.275 36.1775 161.729C36.4611 162.355 36.7766 162.959 37.1207 163.541L37.6187 164.384L37.6666 164.405C38.524 165.692 39.5377 166.87 40.6959 167.926C42.6193 169.678 44.8444 171.005 47.2985 171.862C49.2497 172.543 51.276 172.901 53.3372 172.932C54.1316 173.828 55.2242 174.779 56.6364 175.358C57.8221 175.844 58.9995 176.001 60.0301 176.001C62.5982 176 64.69 175.022 64.9123 174.917C66.7437 174.045 67.6639 171.941 67.0114 169.99L67.0109 169.988C66.9688 169.863 66.6427 168.896 65.9431 167.729C66.6427 166.562 66.9689 165.596 67.0111 165.47L67.0114 165.469C67.6639 163.518 66.7429 161.413 64.9115 160.542C64.7284 160.455 63.7576 160.009 62.3987 159.718C62.1256 159.659 61.8253 159.604 61.5028 159.56C61.4356 159.089 61.3242 158.627 61.172 158.181C61.6651 158.023 62.1546 157.852 62.6402 157.666C62.8428 157.588 63.0447 157.508 63.2457 157.426C63.3921 157.366 63.5378 157.304 63.6829 157.242C64.9768 157.915 66.4457 158.295 67.996 158.295C70.538 158.295 72.6489 156.246 72.6489 153.658C72.6489 153.162 72.5713 152.685 72.4279 152.239C75.438 150.616 77.5006 147.45 77.5006 143.786C77.5006 135.051 70.3369 128 61.5877 128H52.3834C49.8416 128 47.7304 130.048 47.7304 132.637C47.7304 135.225 49.8416 137.273 52.3834 137.273H61.5877C64.9425 137.273 67.6867 139.742 68.1315 142.888C66.6106 141.927 64.9233 141.065 63.1495 140.337C60.8126 139.378 58.4035 138.685 56.1164 138.336L53.1479 138.08L53.0623 138.079C53.0226 138.078 52.9791 138.078 52.9348 138.078H50.487C46.0287 138.078 41.9865 139.901 39.087 142.829L38.3778 143.545L38.3695 143.608C35.9653 146.379 34.5 149.992 34.5 153.943Z" fill="white"/>
<path fill-rule="evenodd" clip-rule="evenodd" d="M51.0643 152.108C50.8613 149.527 52.8075 147.319 55.3441 147.123L55.3462 147.123C57.8717 146.93 60.1385 148.801 60.3419 151.384C60.3573 151.579 60.5063 152.041 61.078 152.676C61.6253 153.284 62.3572 153.817 63.0281 154.149C65.3227 155.285 66.2812 158.075 65.1143 160.385C64.2899 162.018 62.6396 162.938 60.9566 162.938C60.2582 162.938 59.5491 162.781 58.8877 162.454M55.5745 150.114C56.483 150.045 57.28 150.718 57.3509 151.619C57.5233 153.811 59.7246 155.861 61.697 156.837C62.5135 157.242 62.8445 158.225 62.4362 159.033C62.1466 159.607 61.5627 159.938 60.9564 159.938C60.708 159.938 60.4558 159.883 60.2185 159.765C57.558 158.448 54.3475 155.591 54.0549 151.873C53.984 150.972 54.6644 150.184 55.5745 150.114ZM51.0643 152.108C51.479 157.378 55.8381 160.944 58.8877 162.454L51.0643 152.108Z" fill="white"/>
<path d="M53.9221 162.267C53.7488 162.267 53.5725 162.24 53.3992 162.183C51.3878 161.519 49.5826 160.166 48.3159 158.375C47.0831 156.631 46.4043 154.545 46.4043 152.5C46.4043 151.596 47.1444 150.863 48.0573 150.863C48.9702 150.863 49.7103 151.596 49.7103 152.5C49.7103 155.405 51.7012 158.172 54.4445 159.077C55.3106 159.363 55.7786 160.29 55.49 161.147C55.2591 161.833 54.6142 162.267 53.9221 162.267Z" fill="white"/>
<path d="M49.5262 157.568L41.2178 144.945C38.9195 147.266 37.4998 150.443 37.4998 153.943C37.4998 156.225 37.9741 158.428 38.9094 160.49C39.1475 161.015 39.413 161.523 39.7036 162.015L40.0312 162.156C41.4986 162.787 43.064 163.105 44.6293 163.105C45.8081 163.105 46.9869 162.925 48.1234 162.562L49.3145 162.167C48.829 161.558 48.5535 160.797 48.5535 159.985C48.5536 159.05 48.9239 158.2 49.5262 157.568Z" fill="white"/>
<path d="M69.8782 148.033C67.9981 146.171 65.204 144.423 62.0105 143.113C58.8892 141.832 55.7396 141.114 53.1155 141.082L52.7826 141.476C49.2065 145.705 49.2092 151.843 52.7891 156.07L53.116 156.456C56.2156 156.433 59.2396 155.827 62.1065 154.65C65.0281 153.451 67.6429 151.72 69.8782 149.505C70.2884 149.099 70.2884 148.44 69.8782 148.033Z" fill="white"/>
<path d="M37.4998 153.936C37.4998 156.219 37.9741 158.421 38.9094 160.483C39.1475 161.008 39.413 161.517 39.7036 162.009L40.0312 162.15C41.4986 162.781 43.064 163.099 44.6293 163.099C45.8081 163.099 46.9869 162.918 48.1234 162.555L49.3145 162.161C48.829 161.552 48.5535 160.79 48.5535 159.978C48.5535 159.043 48.9239 158.193 49.5261 157.561L43.7367 148.766H38.5973C37.8921 150.349 37.4998 152.098 37.4998 153.936Z" fill="white"/>
<path d="M53.1162 141.08C53.0555 141.079 52.9948 141.078 52.9347 141.078H50.4868C46.8603 141.078 43.5768 142.558 41.2185 144.94L41.1761 145.306C40.8788 147.874 41.4865 150.492 42.8875 152.68C44.2967 154.881 46.4488 156.547 48.9473 157.371L49.5269 157.563C50.1763 156.882 51.0952 156.455 52.1133 156.455H52.9383C52.9979 156.455 53.0573 156.454 53.1168 156.453L53.1162 141.08Z" fill="white"/>
<path d="M42.8865 152.679C44.2958 154.88 46.4478 156.546 48.9463 157.37L49.5261 157.561C50.1754 156.881 51.0942 156.454 52.1123 156.454H52.9373C52.9969 156.454 53.0563 156.453 53.1158 156.452L53.1155 148.766H41.3155C41.5879 150.147 42.1174 151.478 42.8865 152.679Z" fill="white"/>
<path d="M69.8782 148.033C67.9981 146.171 65.204 144.423 62.0105 143.113C58.8892 141.832 55.7396 141.114 53.1155 141.082L52.7826 141.476C49.2065 145.705 49.2092 151.843 52.7891 156.07L53.116 156.456C56.2156 156.433 59.2396 155.827 62.1065 154.65C65.0281 153.451 67.6429 151.72 69.8782 149.505C70.2884 149.099 70.2884 148.44 69.8782 148.033Z" fill="white"/>
<path d="M50.1024 148.766C50.1025 151.359 50.9981 153.952 52.7891 156.066L53.1158 156.452C56.2154 156.43 59.2396 155.824 62.1065 154.647C65.0281 153.448 67.6429 151.716 69.8782 149.501C70.0832 149.298 70.1858 149.032 70.1858 148.766H50.1024Z" fill="white"/>
<path d="M57.8057 150.405C58.7087 150.405 59.4407 149.673 59.4407 148.769C59.4407 147.865 58.7087 147.133 57.8057 147.133C56.9027 147.133 56.1707 147.865 56.1707 148.769C56.1707 149.673 56.9027 150.405 57.8057 150.405Z" fill="white"/>
<path d="M57.8057 150.405C58.7087 150.405 59.4407 149.673 59.4407 148.769H56.1707C56.1707 149.673 56.9027 150.405 57.8057 150.405Z" fill="white"/>
<path d="M62.1969 167.729C63.5368 166.361 64.1357 164.608 64.1661 164.517C64.3324 164.02 64.1 163.478 63.6234 163.251C63.4955 163.191 60.4612 161.775 57.7746 162.877C56.5237 163.39 55.5716 164.437 54.946 165.324L50.522 163.133C50.0417 162.895 49.6337 162.562 49.3157 162.163L39.7048 162.012C40.5129 163.38 41.5209 164.619 42.7161 165.708C44.3411 167.189 46.2155 168.306 48.2873 169.03C50.0095 169.631 51.798 169.934 53.6206 169.934C54.0055 169.934 54.392 169.919 54.7796 169.892C55.3968 170.822 56.4073 172.021 57.7746 172.582C58.5228 172.889 59.2978 173.001 60.0298 173.001C61.9258 173 63.5312 172.251 63.6234 172.207C64.1 171.981 64.3324 171.439 64.1661 170.942C64.1357 170.851 63.5368 169.098 62.1969 167.729Z" fill="white"/>
<path d="M67.821 150.4C66.9081 150.4 66.168 149.667 66.168 148.763C66.168 147.86 66.9081 147.127 67.821 147.127C69.6813 147.127 71.1947 145.628 71.1947 143.786C71.1947 138.541 66.8851 134.274 61.5877 134.274H52.3835C51.4706 134.274 50.7305 133.541 50.7305 132.637C50.7305 131.733 51.4706 131 52.3835 131H61.5877C68.708 131 74.5006 136.736 74.5006 143.786C74.5006 147.433 71.5042 150.4 67.821 150.4Z" fill="#FFDECC"/>
<path d="M66.1699 148.77C66.1717 149.672 66.9109 150.403 67.8228 150.403C69.5012 150.403 71.036 149.785 72.2106 148.77H66.1699Z" fill="#FFCFB5"/>
<path d="M67.9959 155.295C64.6439 155.295 61.8698 152.69 61.6804 149.366C61.629 148.463 62.3263 147.69 63.2377 147.639C64.1498 147.589 64.9298 148.279 64.9812 149.181C65.0718 150.774 66.396 152.021 67.9958 152.021C68.9087 152.021 69.6488 152.754 69.6488 153.658C69.6488 154.562 68.9088 155.295 67.9959 155.295Z" fill="#FFDECC"/>
<path d="M60.9564 159.938C60.708 159.938 60.4558 159.883 60.2185 159.765C57.558 158.448 54.3475 155.591 54.0549 151.873C53.984 150.972 54.6644 150.184 55.5745 150.114C56.483 150.045 57.28 150.718 57.3509 151.619C57.5233 153.811 59.7246 155.861 61.697 156.837C62.5135 157.242 62.8445 158.225 62.4362 159.033C62.1466 159.607 61.5627 159.938 60.9564 159.938Z" fill="#FFDECC"/>
<path d="M53.9221 162.267C53.7488 162.267 53.5725 162.24 53.3992 162.183C51.3878 161.519 49.5825 160.166 48.3159 158.375C47.0831 156.631 46.4043 154.545 46.4043 152.5C46.4043 151.596 47.1444 150.863 48.0573 150.863C48.9702 150.863 49.7103 151.596 49.7103 152.5C49.7103 155.406 51.7012 158.172 54.4445 159.077C55.3106 159.363 55.7786 160.29 55.49 161.147C55.2591 161.833 54.6142 162.267 53.9221 162.267Z" fill="#FFDECC"/>
<path d="M49.5263 157.568L41.218 144.945C38.9197 147.266 37.5 150.443 37.5 153.943C37.5 156.225 37.9743 158.428 38.9096 160.49C39.1477 161.015 39.4131 161.523 39.7038 162.015L40.0314 162.156C41.4988 162.787 43.0642 163.105 44.6295 163.105C45.8083 163.105 46.9871 162.925 48.1236 162.562L49.3147 162.167C48.8292 161.558 48.5537 160.797 48.5537 159.985C48.5538 159.05 48.9241 158.2 49.5263 157.568Z" fill="#FFDECC"/>
<path d="M69.8784 148.033C67.9983 146.171 65.2042 144.423 62.0107 143.113C58.8894 141.832 55.7398 141.114 53.1157 141.082L52.7828 141.476C49.2067 145.705 49.2094 151.843 52.7893 156.07L53.1162 156.456C56.2158 156.433 59.2398 155.827 62.1067 154.65C65.0283 153.451 67.6431 151.72 69.8784 149.505C70.2886 149.099 70.2886 148.44 69.8784 148.033Z" fill="#157DF5"/>
<path d="M37.5 153.936C37.5 156.219 37.9743 158.421 38.9096 160.483C39.1477 161.008 39.4131 161.517 39.7038 162.009L40.0314 162.15C41.4988 162.781 43.0642 163.099 44.6295 163.099C45.8083 163.099 46.9871 162.918 48.1236 162.555L49.3147 162.161C48.8292 161.552 48.5537 160.79 48.5537 159.978C48.5537 159.043 48.924 158.193 49.5263 157.561L43.7369 148.766H38.5974C37.8923 150.349 37.5 152.098 37.5 153.936Z" fill="#FFCFB5"/>
<path d="M53.1164 141.08C53.0557 141.079 52.995 141.078 52.9349 141.078H50.487C46.8605 141.078 43.577 142.558 41.2187 144.94L41.1763 145.306C40.8789 147.874 41.4867 150.492 42.8877 152.68C44.2969 154.881 46.449 156.547 48.9475 157.371L49.5271 157.563C50.1764 156.882 51.0954 156.455 52.1135 156.455H52.9385C52.9981 156.455 53.0574 156.454 53.1169 156.453L53.1164 141.08Z" fill="#F54B5E"/>
<path d="M42.8865 152.679C44.2957 154.88 46.4478 156.546 48.9463 157.37L49.5259 157.561C50.1753 156.881 51.0942 156.454 52.1123 156.454H52.9373C52.9969 156.454 53.0562 156.453 53.1157 156.452L53.1155 148.766H41.3154C41.5879 150.147 42.1173 151.478 42.8865 152.679Z" fill="#F3263D"/>
<path d="M69.8784 148.033C67.9983 146.171 65.2042 144.423 62.0107 143.113C58.8894 141.832 55.7398 141.114 53.1157 141.082L52.7828 141.476C49.2067 145.705 49.2094 151.843 52.7893 156.07L53.1162 156.456C56.2158 156.433 59.2398 155.827 62.1067 154.65C65.0283 153.451 67.6431 151.72 69.8784 149.505C70.2886 149.099 70.2886 148.44 69.8784 148.033Z" fill="#FFDECC"/>
<path d="M50.1025 148.766C50.1027 151.359 50.9983 153.952 52.7893 156.066L53.1162 156.452C56.2158 156.43 59.2398 155.824 62.1067 154.647C65.0283 153.448 67.6431 151.716 69.8784 149.501C70.0834 149.298 70.186 149.032 70.186 148.766H50.1025Z" fill="#FFCFB5"/>
<path d="M57.8059 150.405C58.7089 150.405 59.4409 149.673 59.4409 148.769C59.4409 147.865 58.7089 147.133 57.8059 147.133C56.9029 147.133 56.1709 147.865 56.1709 148.769C56.1709 149.673 56.9029 150.405 57.8059 150.405Z" fill="#282A52"/>
<path d="M57.8059 150.406C58.7089 150.406 59.4409 149.673 59.4409 148.77H56.1709C56.1709 149.673 56.9029 150.406 57.8059 150.406Z" fill="#1E203E"/>
<path d="M62.1972 167.729C63.5371 166.361 64.136 164.608 64.1664 164.517C64.3326 164.02 64.1003 163.478 63.6237 163.251C63.4958 163.191 60.4615 161.775 57.7749 162.877C56.524 163.39 55.5719 164.437 54.9463 165.324L50.5223 163.133C50.042 162.895 49.634 162.562 49.316 162.163L39.7051 162.012C40.5132 163.38 41.5212 164.619 42.7164 165.708C44.3414 167.189 46.2158 168.306 48.2876 169.03C50.0098 169.631 51.7983 169.934 53.6209 169.934C54.0058 169.934 54.3923 169.919 54.7799 169.892C55.3971 170.822 56.4076 172.021 57.7749 172.582C58.5231 172.889 59.2981 173.001 60.0301 173.001C61.9261 173 63.5315 172.251 63.6237 172.207C64.1003 171.981 64.3326 171.439 64.1664 170.942C64.136 170.851 63.5371 169.098 62.1972 167.729Z" fill="#F54B5E"/>
<defs>
<filter id="filter0_dd_11513_74325" x="6" y="9" width="100" height="100" filterUnits="userSpaceOnUse" color-interpolation-filters="sRGB">
<feFlood flood-opacity="0" result="BackgroundImageFix"/>
<feColorMatrix in="SourceAlpha" type="matrix" values="0 0 0 0 0 0 0 0 0 0 0 0 0 0 0 0 0 0 127 0" result="hardAlpha"/>
<feOffset dy="3"/>
<feGaussianBlur stdDeviation="5"/>
<feColorMatrix type="matrix" values="0 0 0 0 0.516667 0 0 0 0 0.578358 0 0 0 0 0.775 0 0 0 0.12 0"/>
<feBlend mode="normal" in2="BackgroundImageFix" result="effect1_dropShadow_11513_74325"/>
<feColorMatrix in="SourceAlpha" type="matrix" values="0 0 0 0 0 0 0 0 0 0 0 0 0 0 0 0 0 0 127 0" result="hardAlpha"/>
<feOffset dy="1"/>
<feGaussianBlur stdDeviation="3"/>
<feColorMatrix type="matrix" values="0 0 0 0 0.709809 0 0 0 0 0.788943 0 0 0 0 0.920833 0 0 0 0.15 0"/>
<feBlend mode="normal" in2="effect1_dropShadow_11513_74325" result="effect2_dropShadow_11513_74325"/>
<feBlend mode="normal" in="SourceGraphic" in2="effect2_dropShadow_11513_74325" result="shape"/>
</filter>
</defs>
</svg>
