<svg width="112" height="208" viewBox="0 0 112 208" fill="none" xmlns="http://www.w3.org/2000/svg">
<rect x="0.5" y="0.5" width="111" height="207" rx="4.5" stroke="#9747FF" stroke-dasharray="10 5"/>
<g filter="url(#filter0_dd_11513_74265)">
<rect x="16" y="16" width="80" height="80" rx="8" fill="white"/>
</g>
<path d="M35.422 49.5549C36.4363 49.5549 37.2587 48.7407 37.2587 47.7364C37.2587 46.732 36.4363 45.9178 35.422 45.9178C33.3551 45.9178 31.6736 44.2529 31.6736 42.2063C31.6736 36.3784 36.4619 31.6371 42.3478 31.6371H57.0189C58.0332 31.6371 58.8555 30.8229 58.8555 29.8185C58.8555 28.8142 58.0332 28 57.0189 28H42.3478C34.4365 28 28.0004 34.3729 28.0004 42.2063C28.0004 46.2584 31.3297 49.5549 35.422 49.5549Z" fill="#FFDECC"/>
<path d="M37.2559 47.7422C37.2539 48.7448 36.4326 49.5571 35.4194 49.5571C33.5545 49.5571 31.8492 48.8709 30.5442 47.7422H37.2559Z" fill="#FFCFB5"/>
<path d="M34.1167 54.9929C37.8411 54.9929 40.9233 52.0993 41.1338 48.4052C41.1908 47.4024 40.4161 46.5437 39.4034 46.4872C38.39 46.4316 37.5234 47.1978 37.4663 48.2005C37.3656 49.9699 35.8943 51.3558 34.1168 51.3558C33.1025 51.3558 32.2802 52.1701 32.2802 53.1744C32.2802 54.1787 33.1024 54.9929 34.1167 54.9929Z" fill="#FFDECC"/>
<path d="M41.9375 60.155C42.2135 60.155 42.4937 60.0932 42.7573 59.9626C45.7134 58.4992 49.2806 55.3246 49.6057 51.1942C49.6844 50.1929 48.9285 49.3178 47.9172 49.2398C46.9078 49.1627 46.0223 49.9103 45.9435 50.9117C45.752 53.3475 43.3061 55.6246 41.1147 56.7095C40.2074 57.1587 39.8397 58.251 40.2934 59.1494C40.6151 59.7866 41.2638 60.155 41.9375 60.155Z" fill="#FFDECC"/>
<path d="M49.7545 62.7405C49.947 62.7405 50.1429 62.7103 50.3355 62.6468C52.5703 61.9092 54.5761 60.4066 55.9834 58.4159C57.3532 56.4785 58.1074 54.1605 58.1074 51.8889C58.1074 50.8845 57.2851 50.0703 56.2708 50.0703C55.2565 50.0703 54.4342 50.8845 54.4342 51.8889C54.4342 55.117 52.2221 58.1904 49.174 59.1963C48.2118 59.5139 47.6918 60.5438 48.0124 61.4966C48.269 62.2585 48.9855 62.7405 49.7545 62.7405Z" fill="#FFDECC"/>
<path d="M54.6377 57.5206L63.869 43.496C66.4226 46.0747 68 49.6045 68 53.4927C68 56.0287 67.4731 58.4762 66.4338 60.7671C66.1693 61.3503 65.8743 61.9153 65.5514 62.462L65.1874 62.6186C63.557 63.3195 61.8177 63.6728 60.0785 63.6728C58.7688 63.6728 57.4591 63.4724 56.1963 63.0694L54.8729 62.6306C55.4123 61.9543 55.7184 61.1078 55.7184 60.206C55.7183 59.1672 55.3068 58.2223 54.6377 57.5206Z" fill="#FFDECC"/>
<path d="M32.0254 46.9265C34.1143 44.8568 37.2188 42.9151 40.767 41.4592C44.2351 40.0362 47.7346 39.2385 50.6502 39.2031L51.0201 39.6405C54.9934 44.3398 54.9904 51.1592 51.0128 55.8554L50.6496 56.2844C47.2057 56.2594 43.8458 55.5859 40.6604 54.2785C37.4142 52.9462 34.509 51.0227 32.0254 48.5616C31.5696 48.11 31.5696 47.3781 32.0254 46.9265Z" fill="#157DF5"/>
<path d="M68 53.4869C68 56.0229 67.4731 58.4704 66.4338 60.7614C66.1693 61.3446 65.8743 61.9095 65.5514 62.4563L65.1874 62.6128C63.557 63.3138 61.8177 63.667 60.0785 63.667C58.7688 63.667 57.4591 63.4667 56.1963 63.0636L54.8729 62.6248C55.4123 61.9485 55.7184 61.1021 55.7184 60.2003C55.7184 59.1614 55.3069 58.2165 54.6378 57.5148L61.0703 47.7422H66.7807C67.5641 49.501 68 51.4443 68 53.4869Z" fill="#FFCFB5"/>
<path d="M50.6487 39.2009C50.7161 39.2001 50.7835 39.1992 50.8503 39.1992H53.5701C57.5995 39.1992 61.2477 40.8439 63.868 43.49L63.9151 43.8969C64.2455 46.7496 63.5702 49.6592 62.0136 52.0898C60.4478 54.5348 58.0567 56.3859 55.2807 57.302L54.6366 57.5145C53.9152 56.758 52.8942 56.2845 51.763 56.2845H50.8463C50.7801 56.2845 50.7142 56.2825 50.648 56.2821L50.6487 39.2009Z" fill="#F54B5E"/>
<path d="M62.0142 52.0902C60.4484 54.5352 58.0573 56.3862 55.2813 57.3024L54.6372 57.5149C53.9157 56.7584 52.8947 56.2848 51.7635 56.2848H50.8469C50.7807 56.2848 50.7147 56.2829 50.6486 56.2825L50.6489 47.7422H63.7598C63.457 49.2767 62.8688 50.7557 62.0142 52.0902Z" fill="#F3263D"/>
<path d="M32.0254 46.9265C34.1143 44.8568 37.2188 42.9151 40.767 41.4592C44.2351 40.0362 47.7346 39.2385 50.6502 39.2031L51.0201 39.6405C54.9934 44.3398 54.9904 51.1592 51.0128 55.8554L50.6496 56.2844C47.2057 56.2594 43.8458 55.5859 40.6604 54.2785C37.4142 52.9462 34.509 51.0227 32.0254 48.5616C31.5696 48.11 31.5696 47.3781 32.0254 46.9265Z" fill="#FFDECC"/>
<path d="M53.998 47.7422C53.9979 50.6232 53.0028 53.504 51.0129 55.8535L50.6496 56.2825C47.2057 56.2575 43.8458 55.584 40.6604 54.2766C37.4142 52.9443 34.509 51.0208 32.0254 48.5597C31.7976 48.334 31.6836 48.0381 31.6836 47.7422H53.998Z" fill="#FFCFB5"/>
<path d="M45.4392 49.5615C44.4359 49.5615 43.6226 48.7476 43.6226 47.7436C43.6226 46.7397 44.4359 45.9258 45.4392 45.9258C46.4425 45.9258 47.2559 46.7397 47.2559 47.7436C47.2559 48.7476 46.4425 49.5615 45.4392 49.5615Z" fill="#282A52"/>
<path d="M45.4392 49.564C44.436 49.564 43.6226 48.75 43.6226 47.7461H47.2559C47.2559 48.75 46.4425 49.564 45.4392 49.564Z" fill="#1E203E"/>
<path d="M40.5601 68.8097C39.0714 67.2893 38.4059 65.3415 38.3722 65.2406C38.1874 64.6884 38.4456 64.0863 38.9752 63.8344C39.1173 63.7668 42.4886 62.1937 45.4737 63.4181C46.8635 63.9881 47.9214 65.1517 48.6165 66.1367L53.5319 63.7031C54.0656 63.4389 54.5189 63.0687 54.8722 62.6256L65.5508 62.457C64.6529 63.9775 63.533 65.354 62.205 66.5638C60.3994 68.2089 58.3168 69.4505 56.0149 70.2543C54.1013 70.9225 52.1142 71.2588 50.0892 71.2588C49.6615 71.2588 49.232 71.243 48.8014 71.2129C48.1156 72.2459 46.9928 73.5783 45.4737 74.2014C44.6423 74.5424 43.7812 74.6664 42.968 74.6664C40.8613 74.6663 39.0776 73.8339 38.9752 73.785C38.4456 73.5331 38.1874 72.9309 38.3722 72.3788C38.4059 72.2779 39.0714 70.3303 40.5601 68.8097Z" fill="#F54B5E"/>
<path d="M59.2275 61.3587C60.4636 60.0199 62.1486 59.1898 63.957 59.0288C65.7654 58.8677 67.5689 59.3872 69.0192 60.4868C70.4694 59.3872 72.2729 58.8677 74.0813 59.0287C75.8897 59.1898 77.5747 60.0199 78.8108 61.3587C80.2173 62.8825 80.999 64.8856 80.999 66.9659C80.999 69.0461 80.2173 71.0492 78.8108 72.573L72.1498 79.6154C71.7436 80.0524 71.2526 80.4008 70.7072 80.639C70.1618 80.8771 69.5737 81 68.9792 81C68.3847 81 67.7966 80.8771 67.2512 80.639C66.7058 80.4008 66.2148 80.0524 65.8085 79.6154L59.1475 72.573C57.7519 71.0391 56.9844 69.0303 56.9992 66.95C57.0141 64.8698 57.8101 62.8723 59.2275 61.3587Z" fill="#0965CD"/>
<path d="M68.999 60.4716C67.5522 59.3824 65.757 58.8685 63.957 59.0287C62.1486 59.1898 60.4636 60.0199 59.2275 61.3587C57.8101 62.8723 57.0141 64.8698 56.9992 66.95C56.9844 69.0303 57.7519 71.0391 59.1475 72.573L65.8085 79.6154C66.2148 80.0524 66.7058 80.4008 67.2512 80.6389C67.7966 80.8771 68.3847 81 68.9792 81C68.9858 81 68.9924 81 68.999 81V60.4716Z" fill="#157DF5"/>
<path fill-rule="evenodd" clip-rule="evenodd" d="M78.8108 72.573C80.2173 71.0493 80.999 69.0461 80.999 66.9659C80.999 64.8856 80.2173 62.8825 78.8108 61.3587C77.5747 60.0199 75.8897 59.1898 74.0813 59.0288C72.2729 58.8677 70.4694 59.3872 69.0192 60.4868C67.5689 59.3872 65.7654 58.8677 63.957 59.0288C62.1486 59.1898 60.4636 60.0199 59.2275 61.3587C57.8101 62.8723 57.0141 64.8698 56.9992 66.9501C56.9844 69.0303 57.7519 71.0391 59.1475 72.573L65.8085 79.6154C66.2148 80.0524 66.7058 80.4008 67.2512 80.639C67.7966 80.8771 68.3847 81 68.9792 81C69.5737 81 70.1618 80.8771 70.7072 80.639C71.2526 80.4008 71.7436 80.0524 72.1498 79.6154L78.8108 72.573ZM74.337 81.6688L81.0029 74.6212L81.0153 74.6078C82.9351 72.5279 83.999 69.7976 83.999 66.9659C83.999 64.1342 82.9351 61.4038 81.0153 59.324C79.2759 57.44 76.9008 56.268 74.3474 56.0406C72.5049 55.8765 70.6672 56.213 69.0192 56.995C67.3711 56.213 65.5334 55.8765 63.6909 56.0406C61.1411 56.2676 58.7693 57.4365 57.0306 59.3158C55.1003 61.3809 54.0195 64.1004 53.9993 66.9287C53.9791 69.7604 55.0237 72.4984 56.9286 74.592L56.9481 74.6134L63.6214 81.6688C64.3051 82.4014 65.1316 82.9869 66.0506 83.3883C66.9742 83.7916 67.9711 84 68.9792 84C69.9873 84 70.9841 83.7916 71.9078 83.3883C72.8268 82.9869 73.6532 82.4014 74.337 81.6688Z" fill="white"/>
<path d="M59.5499 72.9979L59.148 72.573C58.4582 71.8149 57.9219 70.9407 57.5576 69.9993H59.1967L59.8749 68.9821C60.8929 67.455 63.1545 67.5088 64.0988 69.0826L65.1274 70.797L69.9016 64.3178C70.9602 62.8812 73.1398 62.9843 74.058 64.5146L77.3488 69.9993H80.4245C80.0535 70.9425 79.5093 71.8168 78.8113 72.573L78.4081 72.9993H77.0657C76.1876 72.9993 75.3738 72.5386 74.922 71.7856L71.8716 66.7016L67.0974 73.1808C66.0389 74.6175 63.8592 74.5143 62.9411 72.984L61.9328 71.3036L61.5445 71.8861C61.0967 72.5578 60.3532 72.9704 59.5499 72.9979Z" fill="white"/>
<path d="M68.999 70.6001V65.5428L69.9016 64.3178C70.9602 62.8812 73.1398 62.9843 74.058 64.5146L77.3488 69.9993H80.4245C80.0535 70.9425 79.5093 71.8168 78.8113 72.573L78.4081 72.9993H77.0657C76.1876 72.9993 75.3738 72.5386 74.922 71.7856L71.8716 66.7016L68.999 70.6001Z" fill="#F0F7FE"/>
<path d="M35.422 145.555C36.4363 145.555 37.2587 144.741 37.2587 143.736C37.2587 142.732 36.4363 141.918 35.422 141.918C33.3551 141.918 31.6736 140.253 31.6736 138.206C31.6736 132.378 36.4619 127.637 42.3478 127.637H57.0189C58.0332 127.637 58.8555 126.823 58.8555 125.819C58.8555 124.814 58.0332 124 57.0189 124H42.3478C34.4365 124 28.0004 130.373 28.0004 138.206C28.0004 142.258 31.3297 145.555 35.422 145.555Z" fill="#FFDECC"/>
<path d="M37.2559 143.742C37.2539 144.745 36.4326 145.557 35.4194 145.557C33.5545 145.557 31.8492 144.871 30.5442 143.742H37.2559Z" fill="#FFCFB5"/>
<path d="M34.1167 150.993C37.8411 150.993 40.9233 148.099 41.1338 144.405C41.1908 143.402 40.4161 142.544 39.4034 142.487C38.39 142.432 37.5234 143.198 37.4663 144.201C37.3656 145.97 35.8943 147.356 34.1168 147.356C33.1025 147.356 32.2802 148.17 32.2802 149.174C32.2802 150.179 33.1024 150.993 34.1167 150.993Z" fill="#FFDECC"/>
<path d="M41.9375 156.155C42.2135 156.155 42.4937 156.093 42.7573 155.963C45.7134 154.499 49.2806 151.325 49.6057 147.194C49.6844 146.193 48.9285 145.318 47.9172 145.24C46.9078 145.163 46.0223 145.91 45.9435 146.912C45.752 149.347 43.3061 151.625 41.1147 152.709C40.2074 153.159 39.8397 154.251 40.2934 155.149C40.6151 155.787 41.2638 156.155 41.9375 156.155Z" fill="#FFDECC"/>
<path d="M49.7545 158.741C49.947 158.741 50.1429 158.71 50.3355 158.647C52.5703 157.909 54.5761 156.407 55.9834 154.416C57.3532 152.479 58.1074 150.16 58.1074 147.889C58.1074 146.885 57.2851 146.07 56.2708 146.07C55.2565 146.07 54.4342 146.885 54.4342 147.889C54.4342 151.117 52.2221 154.19 49.174 155.196C48.2118 155.514 47.6918 156.544 48.0124 157.497C48.269 158.258 48.9855 158.741 49.7545 158.741Z" fill="#FFDECC"/>
<path d="M54.6377 153.521L63.869 139.496C66.4226 142.075 68 145.604 68 149.493C68 152.029 67.4731 154.476 66.4338 156.767C66.1693 157.35 65.8743 157.915 65.5514 158.462L65.1874 158.619C63.557 159.32 61.8177 159.673 60.0785 159.673C58.7688 159.673 57.4591 159.472 56.1963 159.069L54.8729 158.631C55.4123 157.954 55.7184 157.108 55.7184 156.206C55.7183 155.167 55.3068 154.222 54.6377 153.521Z" fill="#FFDECC"/>
<path d="M32.0254 142.927C34.1143 140.857 37.2188 138.915 40.767 137.459C44.2351 136.036 47.7346 135.239 50.6502 135.203L51.0201 135.641C54.9934 140.34 54.9904 147.159 51.0128 151.855L50.6496 152.284C47.2057 152.259 43.8458 151.586 40.6604 150.279C37.4142 148.946 34.509 147.023 32.0254 144.562C31.5696 144.11 31.5696 143.378 32.0254 142.927Z" fill="#157DF5"/>
<path d="M68 149.487C68 152.023 67.4731 154.47 66.4338 156.761C66.1693 157.345 65.8743 157.91 65.5514 158.456L65.1874 158.613C63.557 159.314 61.8177 159.667 60.0785 159.667C58.7688 159.667 57.4591 159.467 56.1963 159.064L54.8729 158.625C55.4123 157.949 55.7184 157.102 55.7184 156.2C55.7184 155.161 55.3069 154.216 54.6378 153.515L61.0703 143.742H66.7807C67.5641 145.501 68 147.444 68 149.487Z" fill="#FFCFB5"/>
<path d="M50.6487 135.201C50.7161 135.2 50.7835 135.199 50.8503 135.199H53.5701C57.5995 135.199 61.2477 136.844 63.868 139.49L63.9151 139.897C64.2455 142.75 63.5702 145.659 62.0136 148.09C60.4478 150.535 58.0567 152.386 55.2807 153.302L54.6366 153.515C53.9152 152.758 52.8942 152.284 51.763 152.284H50.8463C50.7801 152.284 50.7142 152.283 50.648 152.282L50.6487 135.201Z" fill="#F54B5E"/>
<path d="M62.0142 148.09C60.4484 150.535 58.0573 152.386 55.2813 153.302L54.6372 153.515C53.9157 152.758 52.8947 152.285 51.7635 152.285H50.8469C50.7807 152.285 50.7147 152.283 50.6486 152.282L50.6489 143.742H63.7598C63.457 145.277 62.8688 146.756 62.0142 148.09Z" fill="#F3263D"/>
<path d="M32.0254 142.927C34.1143 140.857 37.2188 138.915 40.767 137.459C44.2351 136.036 47.7346 135.239 50.6502 135.203L51.0201 135.641C54.9934 140.34 54.9904 147.159 51.0128 151.855L50.6496 152.284C47.2057 152.259 43.8458 151.586 40.6604 150.279C37.4142 148.946 34.509 147.023 32.0254 144.562C31.5696 144.11 31.5696 143.378 32.0254 142.927Z" fill="#FFDECC"/>
<path d="M53.998 143.742C53.9979 146.623 53.0028 149.504 51.0129 151.854L50.6496 152.282C47.2057 152.257 43.8458 151.584 40.6604 150.277C37.4142 148.944 34.509 147.021 32.0254 144.56C31.7976 144.334 31.6836 144.038 31.6836 143.742H53.998Z" fill="#FFCFB5"/>
<path d="M45.4392 145.561C44.4359 145.561 43.6226 144.748 43.6226 143.744C43.6226 142.74 44.4359 141.926 45.4392 141.926C46.4425 141.926 47.2559 142.74 47.2559 143.744C47.2559 144.748 46.4425 145.561 45.4392 145.561Z" fill="#282A52"/>
<path d="M45.4392 145.564C44.436 145.564 43.6226 144.75 43.6226 143.746H47.2559C47.2559 144.75 46.4425 145.564 45.4392 145.564Z" fill="#1E203E"/>
<path d="M40.5601 164.81C39.0714 163.289 38.4059 161.342 38.3722 161.241C38.1874 160.688 38.4456 160.086 38.9752 159.834C39.1173 159.767 42.4886 158.194 45.4737 159.418C46.8635 159.988 47.9214 161.152 48.6165 162.137L53.5319 159.703C54.0656 159.439 54.5189 159.069 54.8722 158.626L65.5508 158.457C64.6529 159.977 63.533 161.354 62.205 162.564C60.3994 164.209 58.3168 165.45 56.0149 166.254C54.1013 166.923 52.1142 167.259 50.0892 167.259C49.6615 167.259 49.232 167.243 48.8014 167.213C48.1156 168.246 46.9928 169.578 45.4737 170.201C44.6423 170.542 43.7812 170.666 42.968 170.666C40.8613 170.666 39.0776 169.834 38.9752 169.785C38.4456 169.533 38.1874 168.931 38.3722 168.379C38.4059 168.278 39.0714 166.33 40.5601 164.81Z" fill="#F54B5E"/>
<path d="M59.2275 157.359C60.4636 156.02 62.1486 155.19 63.957 155.029C65.7654 154.868 67.5689 155.387 69.0192 156.487C70.4694 155.387 72.2729 154.868 74.0813 155.029C75.8897 155.19 77.5747 156.02 78.8108 157.359C80.2173 158.882 80.999 160.886 80.999 162.966C80.999 165.046 80.2173 167.049 78.8108 168.573L72.1498 175.615C71.7436 176.052 71.2526 176.401 70.7072 176.639C70.1618 176.877 69.5737 177 68.9792 177C68.3847 177 67.7966 176.877 67.2512 176.639C66.7058 176.401 66.2148 176.052 65.8085 175.615L59.1475 168.573C57.7519 167.039 56.9844 165.03 56.9992 162.95C57.0141 160.87 57.8101 158.872 59.2275 157.359Z" fill="#0965CD"/>
<path d="M68.999 156.472C67.5522 155.382 65.757 154.868 63.957 155.029C62.1486 155.19 60.4636 156.02 59.2275 157.359C57.8101 158.872 57.0141 160.87 56.9992 162.95C56.9844 165.03 57.7519 167.039 59.1475 168.573L65.8085 175.615C66.2148 176.052 66.7058 176.401 67.2512 176.639C67.7966 176.877 68.3847 177 68.9792 177C68.9858 177 68.9924 177 68.999 177V156.472Z" fill="#157DF5"/>
<path fill-rule="evenodd" clip-rule="evenodd" d="M78.8108 168.573C80.2173 167.049 80.999 165.046 80.999 162.966C80.999 160.886 80.2173 158.882 78.8108 157.359C77.5747 156.02 75.8897 155.19 74.0813 155.029C72.2729 154.868 70.4694 155.387 69.0192 156.487C67.5689 155.387 65.7654 154.868 63.957 155.029C62.1486 155.19 60.4636 156.02 59.2275 157.359C57.8101 158.872 57.0141 160.87 56.9992 162.95C56.9844 165.03 57.7519 167.039 59.1475 168.573L65.8085 175.615C66.2148 176.052 66.7058 176.401 67.2512 176.639C67.7966 176.877 68.3847 177 68.9792 177C69.5737 177 70.1618 176.877 70.7072 176.639C71.2526 176.401 71.7436 176.052 72.1498 175.615L78.8108 168.573ZM74.337 177.669L81.0029 170.621L81.0153 170.608C82.9351 168.528 83.999 165.798 83.999 162.966C83.999 160.134 82.9351 157.404 81.0153 155.324C79.2759 153.44 76.9008 152.268 74.3474 152.041C72.5049 151.877 70.6672 152.213 69.0192 152.995C67.3711 152.213 65.5334 151.877 63.6909 152.041C61.1411 152.268 58.7693 153.436 57.0306 155.316C55.1003 157.381 54.0195 160.1 53.9993 162.929C53.9791 165.76 55.0237 168.498 56.9286 170.592L56.9481 170.613L63.6214 177.669C64.3051 178.401 65.1316 178.987 66.0506 179.388C66.9742 179.792 67.9711 180 68.9792 180C69.9873 180 70.9841 179.792 71.9078 179.388C72.8268 178.987 73.6532 178.401 74.337 177.669Z" fill="white"/>
<path d="M59.5499 168.998L59.148 168.573C58.4582 167.815 57.9219 166.941 57.5576 165.999H59.1967L59.8749 164.982C60.8929 163.455 63.1545 163.509 64.0988 165.083L65.1274 166.797L69.9016 160.318C70.9602 158.881 73.1398 158.984 74.058 160.515L77.3488 165.999H80.4245C80.0535 166.942 79.5093 167.817 78.8113 168.573L78.4081 168.999H77.0657C76.1876 168.999 75.3738 168.539 74.922 167.786L71.8716 162.702L67.0974 169.181C66.0389 170.617 63.8592 170.514 62.9411 168.984L61.9328 167.304L61.5445 167.886C61.0967 168.558 60.3532 168.97 59.5499 168.998Z" fill="white"/>
<path d="M68.999 166.6V161.543L69.9016 160.318C70.9602 158.881 73.1398 158.984 74.058 160.515L77.3488 165.999H80.4245C80.0535 166.942 79.5093 167.817 78.8113 168.573L78.4081 168.999H77.0657C76.1876 168.999 75.3738 168.539 74.922 167.786L71.8716 162.702L68.999 166.6Z" fill="#F0F7FE"/>
<defs>
<filter id="filter0_dd_11513_74265" x="6" y="9" width="100" height="100" filterUnits="userSpaceOnUse" color-interpolation-filters="sRGB">
<feFlood flood-opacity="0" result="BackgroundImageFix"/>
<feColorMatrix in="SourceAlpha" type="matrix" values="0 0 0 0 0 0 0 0 0 0 0 0 0 0 0 0 0 0 127 0" result="hardAlpha"/>
<feOffset dy="3"/>
<feGaussianBlur stdDeviation="5"/>
<feColorMatrix type="matrix" values="0 0 0 0 0.516667 0 0 0 0 0.578358 0 0 0 0 0.775 0 0 0 0.12 0"/>
<feBlend mode="normal" in2="BackgroundImageFix" result="effect1_dropShadow_11513_74265"/>
<feColorMatrix in="SourceAlpha" type="matrix" values="0 0 0 0 0 0 0 0 0 0 0 0 0 0 0 0 0 0 127 0" result="hardAlpha"/>
<feOffset dy="1"/>
<feGaussianBlur stdDeviation="3"/>
<feColorMatrix type="matrix" values="0 0 0 0 0.709809 0 0 0 0 0.788943 0 0 0 0 0.920833 0 0 0 0.15 0"/>
<feBlend mode="normal" in2="effect1_dropShadow_11513_74265" result="effect2_dropShadow_11513_74265"/>
<feBlend mode="normal" in="SourceGraphic" in2="effect2_dropShadow_11513_74265" result="shape"/>
</filter>
</defs>
</svg>
