<svg width="112" height="208" viewBox="0 0 112 208" fill="none" xmlns="http://www.w3.org/2000/svg">
<rect x="0.5" y="0.5" width="111" height="207" rx="4.5" stroke="#9747FF" stroke-dasharray="10 5"/>
<g filter="url(#filter0_dd_7415_38707)">
<rect x="16" y="16" width="80" height="80" rx="8" fill="white"/>
</g>
<rect x="28" y="28" width="16" height="16" rx="3.76471" fill="#40D98D"/>
<rect x="28" y="49" width="16" height="16" rx="3.76471" fill="#157DF5"/>
<rect x="49" y="28" width="16" height="16" rx="3.76471" fill="#157DF5"/>
<path d="M54.679 61.4002C55.5919 61.4002 56.332 60.6674 56.332 59.7634C56.332 58.8595 55.5919 58.1267 54.679 58.1267C52.8187 58.1267 51.3053 56.6282 51.3053 54.7862C51.3053 50.5409 55.6149 50.2735 60.9123 50.2735H64.1165C65.0294 50.2735 65.7695 49.5407 65.7695 48.6368C65.7695 47.7328 65.0294 47 64.1165 47H60.9123C53.792 47 47.9994 48.7359 47.9994 54.7862C47.9994 58.4332 50.9958 61.4002 54.679 61.4002Z" fill="#157DF5"/>
<path d="M56.3301 59.7695C56.3283 60.6719 55.5891 61.403 54.6772 61.403C52.9988 61.403 51.464 60.7854 50.2894 59.7695H56.3301Z" fill="#0965CD"/>
<path d="M54.5041 66.2947C57.8561 66.2947 60.6302 63.6903 60.8196 60.3655C60.871 59.463 60.1737 58.6901 59.2623 58.6393C58.3502 58.5892 57.5702 59.2788 57.5188 60.1813C57.4282 61.7738 56.104 63.0212 54.5042 63.0212C53.5913 63.0212 52.8512 63.754 52.8512 64.658C52.8512 65.5619 53.5912 66.2947 54.5041 66.2947Z" fill="#157DF5"/>
<path d="M61.5436 69.9384C61.792 69.9384 62.0442 69.8827 62.2815 69.7652C64.942 68.448 68.1525 65.5908 68.4451 61.8733C68.516 60.9721 67.8356 60.1845 66.9255 60.1143C66.017 60.0449 65.22 60.7177 65.1491 61.619C64.9767 63.8113 62.7754 65.8609 60.803 66.8372C59.9865 67.2415 59.6555 68.2247 60.0638 69.0332C60.3534 69.6067 60.9373 69.9384 61.5436 69.9384Z" fill="#157DF5"/>
<path d="M68.5779 72.2669C68.7512 72.2669 68.9275 72.2397 69.1008 72.1826C71.1122 71.5187 72.9175 70.1663 74.1841 68.3746C75.4169 66.6309 76.0957 64.5446 76.0957 62.5C76.0957 61.5961 75.3556 60.8633 74.4427 60.8633C73.5298 60.8633 72.7897 61.5961 72.7897 62.5C72.7897 65.4055 70.7988 68.1716 68.0555 69.077C67.1894 69.3629 66.7214 70.2898 67.01 71.1474C67.2409 71.8331 67.8858 72.2669 68.5779 72.2669Z" fill="#157DF5"/>
<path d="M71.9737 68.568L80.282 55.9453C82.5803 58.2662 84 61.4432 84 64.9427C84 67.2252 83.5257 69.428 82.5904 71.49C82.3523 72.0149 82.0869 72.5234 81.7962 73.0155L81.4686 73.1564C80.0012 73.7872 78.4358 74.1052 76.8705 74.1052C75.6917 74.1052 74.5129 73.9249 73.3764 73.5621L72.1853 73.1672C72.6708 72.5585 72.9463 71.7966 72.9463 70.985C72.9462 70.05 72.5759 69.1995 71.9737 68.568Z" fill="#157DF5"/>
<path d="M51.6216 59.0334C53.5017 57.1705 56.2958 55.423 59.4893 54.1126C62.6106 52.8318 65.7602 52.1139 68.3843 52.082L68.7172 52.4757C72.2933 56.7052 72.2906 62.8429 68.7107 67.0697L68.3838 67.4558C65.2842 67.4333 62.2602 66.8272 59.3933 65.6505C56.4717 64.4513 53.8569 62.7201 51.6216 60.505C51.2114 60.0985 51.2114 59.4398 51.6216 59.0334Z" fill="#157DF5"/>
<path d="M84 64.9361C84 67.2186 83.5257 69.4214 82.5904 71.4833C82.3523 72.0083 82.0869 72.5168 81.7962 73.0089L81.4686 73.1497C80.0012 73.7806 78.4358 74.0985 76.8705 74.0985C75.6917 74.0985 74.5129 73.9182 73.3764 73.5555L72.1853 73.1606C72.6708 72.5519 72.9463 71.79 72.9463 70.9783C72.9463 70.0433 72.576 69.1929 71.9737 68.5614L77.7631 59.7656H82.9026C83.6077 61.3486 84 63.0977 84 64.9361Z" fill="#0965CD"/>
<path d="M68.3836 52.0797C68.4443 52.0789 68.505 52.0781 68.5651 52.0781H71.013C74.6395 52.0781 77.923 53.5584 80.2813 55.94L80.3237 56.3062C80.6211 58.8738 80.0133 61.4925 78.6123 63.6801C77.2031 65.8807 75.051 67.5467 72.5525 68.3713L71.9729 68.5626C71.3236 67.8817 70.4046 67.4555 69.3865 67.4555H68.5615C68.5019 67.4555 68.4426 67.4537 68.3831 67.4533L68.3836 52.0797Z" fill="#E2EFFE"/>
<path d="M78.6135 63.679C77.2043 65.8796 75.0522 67.5456 72.5537 68.3702L71.9741 68.5614C71.3247 67.8806 70.4058 67.4543 69.3877 67.4543H68.5627C68.5031 67.4543 68.4438 67.4526 68.3843 67.4522L68.3845 59.7656H80.1846C79.9121 61.1468 79.3827 62.4779 78.6135 63.679Z" fill="#B6D7FC"/>
<path d="M51.6216 59.0334C53.5017 57.1705 56.2958 55.423 59.4893 54.1126C62.6106 52.8318 65.7602 52.1139 68.3843 52.082L68.7172 52.4757C72.2933 56.7052 72.2906 62.8429 68.7107 67.0697L68.3838 67.4558C65.2842 67.4333 62.2602 66.8272 59.3933 65.6505C56.4717 64.4513 53.8569 62.7201 51.6216 60.505C51.2114 60.0985 51.2114 59.4398 51.6216 59.0334Z" fill="#157DF5"/>
<path d="M71.3975 59.7656C71.3973 62.3586 70.5017 64.9515 68.7107 67.0661L68.3838 67.4522C65.2842 67.4297 62.2602 66.8236 59.3933 65.6469C56.4717 64.4477 53.8569 62.7165 51.6216 60.5014C51.4166 60.2983 51.314 60.032 51.314 59.7656H71.3975Z" fill="#0965CD"/>
<path d="M63.6941 61.4051C62.7911 61.4051 62.0591 60.6726 62.0591 59.7689C62.0591 58.8653 62.7911 58.1328 63.6941 58.1328C64.5971 58.1328 65.3291 58.8653 65.3291 59.7689C65.3291 60.6726 64.5971 61.4051 63.6941 61.4051Z" fill="#282A52"/>
<path d="M63.6941 61.4057C62.7911 61.4057 62.0591 60.6731 62.0591 59.7695H65.3291C65.3291 60.6731 64.5971 61.4057 63.6941 61.4057Z" fill="#1E203E"/>
<path d="M59.3028 78.7294C57.9629 77.3609 57.364 75.6079 57.3336 75.517C57.1674 75.02 57.3997 74.4781 57.8763 74.2514C58.0042 74.1906 61.0385 72.7747 63.7251 73.8767C64.976 74.3897 65.9281 75.437 66.5537 76.3236L70.9777 74.1333C71.458 73.8954 71.866 73.5622 72.184 73.1634L81.7949 73.0117C80.9868 74.3802 79.9788 75.6191 78.7836 76.708C77.1586 78.1886 75.2842 79.3061 73.2124 80.0296C71.4902 80.631 69.7017 80.9337 67.8791 80.9337C67.4942 80.9337 67.1077 80.9194 66.7201 80.8923C66.1029 81.822 65.0924 83.0213 63.7251 83.5821C62.9769 83.889 62.2019 84.0006 61.4699 84.0006C59.5739 84.0005 57.9685 83.2513 57.8763 83.2073C57.3997 82.9806 57.1674 82.4386 57.3336 81.9417C57.364 81.8509 57.9629 80.0979 59.3028 78.7294Z" fill="#B6D7FC"/>
<rect x="28" y="124" width="16" height="16" rx="3.76471" fill="#40D98D"/>
<rect x="28" y="145" width="16" height="16" rx="3.76471" fill="#157DF5"/>
<rect x="49" y="124" width="16" height="16" rx="3.76471" fill="#157DF5"/>
<path d="M54.679 157.4C55.5919 157.4 56.332 156.667 56.332 155.763C56.332 154.86 55.5919 154.127 54.679 154.127C52.8187 154.127 51.3053 152.628 51.3053 150.786C51.3053 146.541 55.6149 146.274 60.9123 146.274H64.1165C65.0294 146.274 65.7695 145.541 65.7695 144.637C65.7695 143.733 65.0294 143 64.1165 143H60.9123C53.792 143 47.9994 144.736 47.9994 150.786C47.9994 154.433 50.9958 157.4 54.679 157.4Z" fill="#157DF5"/>
<path d="M56.3301 155.77C56.3283 156.672 55.5891 157.403 54.6772 157.403C52.9988 157.403 51.464 156.785 50.2894 155.77H56.3301Z" fill="#0965CD"/>
<path d="M54.5041 162.295C57.8561 162.295 60.6302 159.69 60.8196 156.366C60.871 155.463 60.1737 154.69 59.2623 154.639C58.3502 154.589 57.5702 155.279 57.5188 156.181C57.4282 157.774 56.104 159.021 54.5042 159.021C53.5913 159.021 52.8512 159.754 52.8512 160.658C52.8512 161.562 53.5912 162.295 54.5041 162.295Z" fill="#157DF5"/>
<path d="M61.5436 165.938C61.792 165.938 62.0442 165.883 62.2815 165.765C64.942 164.448 68.1525 161.591 68.4451 157.873C68.516 156.972 67.8356 156.184 66.9255 156.114C66.017 156.045 65.22 156.718 65.1491 157.619C64.9767 159.811 62.7754 161.861 60.803 162.837C59.9865 163.242 59.6555 164.225 60.0638 165.033C60.3534 165.607 60.9373 165.938 61.5436 165.938Z" fill="#157DF5"/>
<path d="M68.5779 168.267C68.7512 168.267 68.9275 168.24 69.1008 168.183C71.1122 167.519 72.9175 166.166 74.1841 164.375C75.4169 162.631 76.0957 160.545 76.0957 158.5C76.0957 157.596 75.3556 156.863 74.4427 156.863C73.5298 156.863 72.7897 157.596 72.7897 158.5C72.7897 161.406 70.7988 164.172 68.0555 165.077C67.1894 165.363 66.7214 166.29 67.01 167.147C67.2409 167.833 67.8858 168.267 68.5779 168.267Z" fill="#157DF5"/>
<path d="M71.9737 164.568L80.282 151.945C82.5803 154.266 84 157.443 84 160.943C84 163.225 83.5257 165.428 82.5904 167.49C82.3523 168.015 82.0869 168.523 81.7962 169.015L81.4686 169.156C80.0012 169.787 78.4358 170.105 76.8705 170.105C75.6917 170.105 74.5129 169.925 73.3764 169.562L72.1853 169.167C72.6708 168.558 72.9463 167.797 72.9463 166.985C72.9462 166.05 72.5759 165.2 71.9737 164.568Z" fill="#157DF5"/>
<path d="M51.6216 155.033C53.5017 153.171 56.2958 151.423 59.4893 150.113C62.6106 148.832 65.7602 148.114 68.3843 148.082L68.7172 148.476C72.2933 152.705 72.2906 158.843 68.7107 163.07L68.3838 163.456C65.2842 163.433 62.2602 162.827 59.3933 161.65C56.4717 160.451 53.8569 158.72 51.6216 156.505C51.2114 156.099 51.2114 155.44 51.6216 155.033Z" fill="#157DF5"/>
<path d="M84 160.936C84 163.219 83.5257 165.421 82.5904 167.483C82.3523 168.008 82.0869 168.517 81.7962 169.009L81.4686 169.15C80.0012 169.781 78.4358 170.099 76.8705 170.099C75.6917 170.099 74.5129 169.918 73.3764 169.555L72.1853 169.161C72.6708 168.552 72.9463 167.79 72.9463 166.978C72.9463 166.043 72.576 165.193 71.9737 164.561L77.7631 155.766H82.9026C83.6077 157.349 84 159.098 84 160.936Z" fill="#0965CD"/>
<path d="M68.3836 148.08C68.4443 148.079 68.505 148.078 68.5651 148.078H71.013C74.6395 148.078 77.923 149.558 80.2813 151.94L80.3237 152.306C80.6211 154.874 80.0133 157.492 78.6123 159.68C77.2031 161.881 75.051 163.547 72.5525 164.371L71.9729 164.563C71.3236 163.882 70.4046 163.455 69.3865 163.455H68.5615C68.5019 163.455 68.4426 163.454 68.3831 163.453L68.3836 148.08Z" fill="#E2EFFE"/>
<path d="M78.6135 159.679C77.2043 161.88 75.0522 163.546 72.5537 164.37L71.9741 164.561C71.3247 163.881 70.4058 163.454 69.3877 163.454H68.5627C68.5031 163.454 68.4438 163.453 68.3843 163.452L68.3845 155.766H80.1846C79.9121 157.147 79.3827 158.478 78.6135 159.679Z" fill="#B6D7FC"/>
<path d="M51.6216 155.033C53.5017 153.171 56.2958 151.423 59.4893 150.113C62.6106 148.832 65.7602 148.114 68.3843 148.082L68.7172 148.476C72.2933 152.705 72.2906 158.843 68.7107 163.07L68.3838 163.456C65.2842 163.433 62.2602 162.827 59.3933 161.65C56.4717 160.451 53.8569 158.72 51.6216 156.505C51.2114 156.099 51.2114 155.44 51.6216 155.033Z" fill="#157DF5"/>
<path d="M71.3975 155.766C71.3973 158.359 70.5017 160.952 68.7107 163.066L68.3838 163.452C65.2842 163.43 62.2602 162.824 59.3933 161.647C56.4717 160.448 53.8569 158.716 51.6216 156.501C51.4166 156.298 51.314 156.032 51.314 155.766H71.3975Z" fill="#0965CD"/>
<path d="M63.6941 157.405C62.7911 157.405 62.0591 156.673 62.0591 155.769C62.0591 154.865 62.7911 154.133 63.6941 154.133C64.5971 154.133 65.3291 154.865 65.3291 155.769C65.3291 156.673 64.5971 157.405 63.6941 157.405Z" fill="#282A52"/>
<path d="M63.6941 157.406C62.7911 157.406 62.0591 156.673 62.0591 155.77H65.3291C65.3291 156.673 64.5971 157.406 63.6941 157.406Z" fill="#1E203E"/>
<path d="M59.3028 174.729C57.9629 173.361 57.364 171.608 57.3336 171.517C57.1674 171.02 57.3997 170.478 57.8763 170.251C58.0042 170.191 61.0385 168.775 63.7251 169.877C64.976 170.39 65.9281 171.437 66.5537 172.324L70.9777 170.133C71.458 169.895 71.866 169.562 72.184 169.163L81.7949 169.012C80.9868 170.38 79.9788 171.619 78.7836 172.708C77.1586 174.189 75.2842 175.306 73.2124 176.03C71.4902 176.631 69.7017 176.934 67.8791 176.934C67.4942 176.934 67.1077 176.919 66.7201 176.892C66.1029 177.822 65.0924 179.021 63.7251 179.582C62.9769 179.889 62.2019 180.001 61.4699 180.001C59.5739 180 57.9685 179.251 57.8763 179.207C57.3997 178.981 57.1674 178.439 57.3336 177.942C57.364 177.851 57.9629 176.098 59.3028 174.729Z" fill="#B6D7FC"/>
<defs>
<filter id="filter0_dd_7415_38707" x="6" y="9" width="100" height="100" filterUnits="userSpaceOnUse" color-interpolation-filters="sRGB">
<feFlood flood-opacity="0" result="BackgroundImageFix"/>
<feColorMatrix in="SourceAlpha" type="matrix" values="0 0 0 0 0 0 0 0 0 0 0 0 0 0 0 0 0 0 127 0" result="hardAlpha"/>
<feOffset dy="3"/>
<feGaussianBlur stdDeviation="5"/>
<feColorMatrix type="matrix" values="0 0 0 0 0.516667 0 0 0 0 0.578358 0 0 0 0 0.775 0 0 0 0.12 0"/>
<feBlend mode="normal" in2="BackgroundImageFix" result="effect1_dropShadow_7415_38707"/>
<feColorMatrix in="SourceAlpha" type="matrix" values="0 0 0 0 0 0 0 0 0 0 0 0 0 0 0 0 0 0 127 0" result="hardAlpha"/>
<feOffset dy="1"/>
<feGaussianBlur stdDeviation="3"/>
<feColorMatrix type="matrix" values="0 0 0 0 0.709809 0 0 0 0 0.788943 0 0 0 0 0.920833 0 0 0 0.15 0"/>
<feBlend mode="normal" in2="effect1_dropShadow_7415_38707" result="effect2_dropShadow_7415_38707"/>
<feBlend mode="normal" in="SourceGraphic" in2="effect2_dropShadow_7415_38707" result="shape"/>
</filter>
</defs>
</svg>
