<svg width="112" height="208" viewBox="0 0 112 208" fill="none" xmlns="http://www.w3.org/2000/svg">
<rect x="0.5" y="0.5" width="111" height="207" rx="4.5" stroke="#9747FF" stroke-dasharray="10 5"/>
<g filter="url(#filter0_dd_19799_57845)">
<rect x="16" y="16" width="80" height="80" rx="8" fill="white"/>
</g>
<path d="M27.9996 80.7059V34.0392C27.9996 30.7089 30.7535 28 34.1392 28H71.5345C72.4588 28 71.5345 28.7379 71.5345 29.6471C71.5345 30.5562 70.7844 31.2941 69.8601 31.2941C68.3208 31.2941 67.0694 32.525 67.0694 34.0392V80.7059C67.0694 82.522 65.5669 84 63.7206 84H31.3485C29.5022 84 27.9996 82.522 27.9996 80.7059Z" fill="#E2EFFE"/>
<path d="M28.0003 80.7059V34.0392C28.0003 30.7089 30.7541 28 34.1398 28H47.5352V84H31.3491C29.5028 84 28.0003 82.522 28.0003 80.7059Z" fill="#F0F7FE"/>
<path d="M34.1943 73.94C34.1943 74.8492 34.9444 75.5871 35.8687 75.5871H41.8881C42.7977 75.5871 43.5352 74.8497 43.5352 73.94C43.5352 73.0304 42.7977 72.293 41.8881 72.293H35.8687C34.9444 72.293 34.1943 73.0309 34.1943 73.94Z" fill="#282A52"/>
<path d="M34.1943 67.6471C34.1943 68.5562 34.9444 69.2941 35.8687 69.2941H41.8881C42.7977 69.2941 43.5352 68.5567 43.5352 67.6471C43.5352 66.7374 42.7977 66 41.8881 66H35.8687C34.9444 66 34.1943 66.7379 34.1943 67.6471Z" fill="#282A52"/>
<path d="M67.0698 42.7148V32.3933C67.0698 29.9676 69.0689 28.0011 71.5349 28.0011C73.994 28.0011 76 29.9609 76 32.3933V39.4207C76 41.2401 74.5007 42.7148 72.6512 42.7148H67.0698Z" fill="#B6D7FC"/>
<path d="M77.321 61.4002C76.4081 61.4002 75.668 60.6674 75.668 59.7634C75.668 58.8595 76.4081 58.1267 77.321 58.1267C79.1813 58.1267 80.6947 56.6282 80.6947 54.7862C80.6947 49.5409 76.3851 45.2735 71.0877 45.2735H61.8835C60.9706 45.2735 60.2305 44.5407 60.2305 43.6368C60.2305 42.7328 60.9706 42 61.8835 42H71.0877C78.208 42 84.0006 47.7359 84.0006 54.7862C84.0006 58.4332 81.0042 61.4002 77.321 61.4002Z" fill="#FFDECC"/>
<path d="M75.6699 59.7695C75.6717 60.6719 76.4109 61.403 77.3228 61.403C79.0012 61.403 80.536 60.7854 81.7106 59.7695H75.6699Z" fill="#FFCFB5"/>
<path d="M76.4959 66.2947C73.1439 66.2947 70.3698 63.6903 70.1804 60.3655C70.129 59.463 70.8263 58.6901 71.7377 58.6393C72.6498 58.5892 73.4298 59.2788 73.4812 60.1813C73.5718 61.7738 74.896 63.0212 76.4958 63.0212C77.4087 63.0212 78.1488 63.754 78.1488 64.658C78.1488 65.5619 77.4088 66.2947 76.4959 66.2947Z" fill="#FFDECC"/>
<path d="M69.4564 70.9384C69.208 70.9384 68.9558 70.8827 68.7185 70.7652C66.058 69.448 62.8475 66.5908 62.5549 62.8733C62.484 61.9721 63.1644 61.1845 64.0745 61.1143C64.983 61.0449 65.78 61.7177 65.8509 62.619C66.0233 64.8113 68.2246 66.8609 70.197 67.8372C71.0135 68.2415 71.3445 69.2247 70.9362 70.0332C70.6466 70.6067 70.0627 70.9384 69.4564 70.9384Z" fill="#FFDECC"/>
<path d="M62.4221 73.2669C62.2488 73.2669 62.0725 73.2397 61.8992 73.1826C59.8878 72.5187 58.0825 71.1663 56.8159 69.3746C55.5831 67.6309 54.9043 65.5446 54.9043 63.5C54.9043 62.5961 55.6444 61.8633 56.5573 61.8633C57.4702 61.8633 58.2103 62.5961 58.2103 63.5C58.2103 66.4055 60.2012 69.1716 62.9445 70.077C63.8106 70.3629 64.2786 71.2898 63.99 72.1474C63.7591 72.8331 63.1142 73.2669 62.4221 73.2669Z" fill="#FFDECC"/>
<path d="M58.0263 68.568L49.718 55.9453C47.4197 58.2662 46 61.4432 46 64.9427C46 67.2252 46.4743 69.428 47.4096 71.49C47.6477 72.0149 47.9131 72.5234 48.2038 73.0155L48.5314 73.1564C49.9988 73.7872 51.5642 74.1052 53.1295 74.1052C54.3083 74.1052 55.4871 73.9249 56.6236 73.5621L57.8147 73.1672C57.3292 72.5585 57.0537 71.7966 57.0537 70.985C57.0538 70.05 57.4241 69.1995 58.0263 68.568Z" fill="#FFDECC"/>
<path d="M78.3784 59.0334C76.4983 57.1705 73.7042 55.423 70.5107 54.1126C67.3894 52.8318 64.2398 52.1139 61.6157 52.082L61.2828 52.4757C57.7067 56.7052 57.7094 62.8429 61.2893 67.0697L61.6162 67.4558C64.7158 67.4333 67.7398 66.8272 70.6067 65.6505C73.5283 64.4513 76.1431 62.7201 78.3784 60.505C78.7886 60.0985 78.7886 59.4398 78.3784 59.0334Z" fill="#157DF5"/>
<path d="M46 64.9361C46 67.2186 46.4743 69.4214 47.4096 71.4833C47.6477 72.0083 47.9131 72.5168 48.2038 73.0089L48.5314 73.1497C49.9988 73.7806 51.5642 74.0985 53.1295 74.0985C54.3083 74.0985 55.4871 73.9182 56.6236 73.5555L57.8147 73.1606C57.3292 72.5519 57.0537 71.79 57.0537 70.9783C57.0537 70.0433 57.424 69.1929 58.0263 68.5614L52.2369 59.7656H47.0974C46.3923 61.3486 46 63.0977 46 64.9361Z" fill="#FFCFB5"/>
<path d="M61.6164 52.0797C61.5557 52.0789 61.495 52.0781 61.4349 52.0781H58.987C55.3605 52.0781 52.077 53.5584 49.7187 55.94L49.6763 56.3062C49.3789 58.8738 49.9867 61.4925 51.3877 63.6801C52.7969 65.8807 54.949 67.5467 57.4475 68.3713L58.0271 68.5626C58.6764 67.8817 59.5954 67.4555 60.6135 67.4555H61.4385C61.4981 67.4555 61.5574 67.4537 61.6169 67.4533L61.6164 52.0797Z" fill="#F54B5E"/>
<path d="M51.3865 63.679C52.7957 65.8796 54.9478 67.5456 57.4463 68.3702L58.0259 68.5614C58.6753 67.8806 59.5942 67.4543 60.6123 67.4543H61.4373C61.4969 67.4543 61.5562 67.4526 61.6157 67.4522L61.6155 59.7656H49.8154C50.0879 61.1468 50.6173 62.4779 51.3865 63.679Z" fill="#F3263D"/>
<path d="M78.3784 59.0334C76.4983 57.1705 73.7042 55.423 70.5107 54.1126C67.3894 52.8318 64.2398 52.1139 61.6157 52.082L61.2828 52.4757C57.7067 56.7052 57.7094 62.8429 61.2893 67.0697L61.6162 67.4558C64.7158 67.4333 67.7398 66.8272 70.6067 65.6505C73.5283 64.4513 76.1431 62.7201 78.3784 60.505C78.7886 60.0985 78.7886 59.4398 78.3784 59.0334Z" fill="#FFDECC"/>
<path d="M58.6025 59.7656C58.6027 62.3586 59.4983 64.9515 61.2893 67.0661L61.6162 67.4522C64.7158 67.4297 67.7398 66.8236 70.6067 65.6469C73.5283 64.4477 76.1431 62.7165 78.3784 60.5014C78.5834 60.2983 78.686 60.032 78.686 59.7656H58.6025Z" fill="#FFCFB5"/>
<path d="M66.3059 61.4051C67.2089 61.4051 67.9409 60.6726 67.9409 59.7689C67.9409 58.8653 67.2089 58.1328 66.3059 58.1328C65.4029 58.1328 64.6709 58.8653 64.6709 59.7689C64.6709 60.6726 65.4029 61.4051 66.3059 61.4051Z" fill="#282A52"/>
<path d="M66.3059 61.4057C67.2089 61.4057 67.9409 60.6732 67.9409 59.7696H64.6709C64.6709 60.6732 65.4029 61.4057 66.3059 61.4057Z" fill="#1E203E"/>
<path d="M70.6972 78.7294C72.0371 77.3609 72.636 75.6079 72.6664 75.517C72.8326 75.02 72.6003 74.4781 72.1237 74.2514C71.9958 74.1906 68.9615 72.7747 66.2749 73.8767C65.024 74.3897 64.0719 75.437 63.4463 76.3236L59.0223 74.1333C58.542 73.8954 58.134 73.5622 57.816 73.1634L48.2051 73.0117C49.0132 74.3802 50.0212 75.6191 51.2164 76.708C52.8414 78.1886 54.7158 79.3061 56.7876 80.0296C58.5098 80.631 60.2983 80.9337 62.1209 80.9337C62.5058 80.9337 62.8923 80.9194 63.2799 80.8923C63.8971 81.822 64.9076 83.0213 66.2749 83.5821C67.0231 83.889 67.7981 84.0006 68.5301 84.0006C70.4261 84.0005 72.0315 83.2513 72.1237 83.2073C72.6003 82.9806 72.8326 82.4386 72.6664 81.9417C72.636 81.8509 72.0371 80.0979 70.6972 78.7294Z" fill="#F54B5E"/>
<circle cx="43" cy="43" r="12" fill="#40D98D"/>
<path d="M43 55C49.6274 55 55 49.6274 55 43C55 36.3726 49.6274 31 43 31V55Z" fill="#25BB71"/>
<path fill-rule="evenodd" clip-rule="evenodd" d="M58 43C58 51.2843 51.2843 58 43 58C34.7157 58 28 51.2843 28 43C28 34.7157 34.7157 28 43 28C51.2843 28 58 34.7157 58 43ZM55 43C55 49.6274 49.6274 55 43 55C36.3726 55 31 49.6274 31 43C31 36.3726 36.3726 31 43 31C49.6274 31 55 36.3726 55 43Z" fill="white"/>
<path d="M42 35C41.4478 35 41 35.4478 41 36V41H36C35.4478 41 35 41.4478 35 42V44C35 44.5522 35.4478 45 36 45H41V50C41 50.5522 41.4478 51 42 51H44C44.5522 51 45 50.5522 45 50V45H50C50.5522 45 51 44.5522 51 44V42C51 41.4478 50.5522 41 50 41H45V36C45 35.4478 44.5522 35 44 35H42Z" fill="white"/>
<path d="M43 51H44C44.5522 51 45 50.5522 45 50V45H50C50.5522 45 51 44.5522 51 44V42C51 41.4478 50.5522 41 50 41H45V36C45 35.4478 44.5522 35 44 35H43V51Z" fill="#E2EFFE"/>
<path d="M27.9996 176.706V130.039C27.9996 126.709 30.7535 124 34.1392 124H71.5345C72.4588 124 71.5345 124.738 71.5345 125.647C71.5345 126.556 70.7844 127.294 69.8601 127.294C68.3208 127.294 67.0694 128.525 67.0694 130.039V176.706C67.0694 178.522 65.5669 180 63.7206 180H31.3485C29.5022 180 27.9996 178.522 27.9996 176.706Z" fill="#E2EFFE"/>
<path d="M28.0003 176.706V130.039C28.0003 126.709 30.7541 124 34.1398 124H47.5352V180H31.3491C29.5028 180 28.0003 178.522 28.0003 176.706Z" fill="#F0F7FE"/>
<path d="M34.1943 169.94C34.1943 170.849 34.9444 171.587 35.8687 171.587H41.8881C42.7977 171.587 43.5352 170.85 43.5352 169.94C43.5352 169.03 42.7977 168.293 41.8881 168.293H35.8687C34.9444 168.293 34.1943 169.031 34.1943 169.94Z" fill="#282A52"/>
<path d="M34.1943 163.647C34.1943 164.556 34.9444 165.294 35.8687 165.294H41.8881C42.7977 165.294 43.5352 164.557 43.5352 163.647C43.5352 162.737 42.7977 162 41.8881 162H35.8687C34.9444 162 34.1943 162.738 34.1943 163.647Z" fill="#282A52"/>
<path d="M67.0698 138.715V128.393C67.0698 125.968 69.0689 124.001 71.5349 124.001C73.994 124.001 76 125.961 76 128.393V135.421C76 137.24 74.5007 138.715 72.6512 138.715H67.0698Z" fill="#B6D7FC"/>
<path d="M77.321 157.4C76.4081 157.4 75.668 156.667 75.668 155.763C75.668 154.86 76.4081 154.127 77.321 154.127C79.1813 154.127 80.6947 152.628 80.6947 150.786C80.6947 145.541 76.3851 141.274 71.0877 141.274H61.8835C60.9706 141.274 60.2305 140.541 60.2305 139.637C60.2305 138.733 60.9706 138 61.8835 138H71.0877C78.208 138 84.0006 143.736 84.0006 150.786C84.0006 154.433 81.0042 157.4 77.321 157.4Z" fill="#FFDECC"/>
<path d="M75.6699 155.77C75.6717 156.672 76.4109 157.403 77.3228 157.403C79.0012 157.403 80.536 156.785 81.7106 155.77H75.6699Z" fill="#FFCFB5"/>
<path d="M76.4959 162.295C73.1439 162.295 70.3698 159.69 70.1804 156.366C70.129 155.463 70.8263 154.69 71.7377 154.639C72.6498 154.589 73.4298 155.279 73.4812 156.181C73.5718 157.774 74.896 159.021 76.4958 159.021C77.4087 159.021 78.1488 159.754 78.1488 160.658C78.1488 161.562 77.4088 162.295 76.4959 162.295Z" fill="#FFDECC"/>
<path d="M69.4564 166.938C69.208 166.938 68.9558 166.883 68.7185 166.765C66.058 165.448 62.8475 162.591 62.5549 158.873C62.484 157.972 63.1644 157.184 64.0745 157.114C64.983 157.045 65.78 157.718 65.8509 158.619C66.0233 160.811 68.2246 162.861 70.197 163.837C71.0135 164.242 71.3445 165.225 70.9362 166.033C70.6466 166.607 70.0627 166.938 69.4564 166.938Z" fill="#FFDECC"/>
<path d="M62.4221 169.267C62.2488 169.267 62.0725 169.24 61.8992 169.183C59.8878 168.519 58.0825 167.166 56.8159 165.375C55.5831 163.631 54.9043 161.545 54.9043 159.5C54.9043 158.596 55.6444 157.863 56.5573 157.863C57.4702 157.863 58.2103 158.596 58.2103 159.5C58.2103 162.406 60.2012 165.172 62.9445 166.077C63.8106 166.363 64.2786 167.29 63.99 168.147C63.7591 168.833 63.1142 169.267 62.4221 169.267Z" fill="#FFDECC"/>
<path d="M58.0263 164.568L49.718 151.945C47.4197 154.266 46 157.443 46 160.943C46 163.225 46.4743 165.428 47.4096 167.49C47.6477 168.015 47.9131 168.523 48.2038 169.015L48.5314 169.156C49.9988 169.787 51.5642 170.105 53.1295 170.105C54.3083 170.105 55.4871 169.925 56.6236 169.562L57.8147 169.167C57.3292 168.558 57.0537 167.797 57.0537 166.985C57.0538 166.05 57.4241 165.2 58.0263 164.568Z" fill="#FFDECC"/>
<path d="M78.3784 155.033C76.4983 153.171 73.7042 151.423 70.5107 150.113C67.3894 148.832 64.2398 148.114 61.6157 148.082L61.2828 148.476C57.7067 152.705 57.7094 158.843 61.2893 163.07L61.6162 163.456C64.7158 163.433 67.7398 162.827 70.6067 161.65C73.5283 160.451 76.1431 158.72 78.3784 156.505C78.7886 156.099 78.7886 155.44 78.3784 155.033Z" fill="#157DF5"/>
<path d="M46 160.936C46 163.219 46.4743 165.421 47.4096 167.483C47.6477 168.008 47.9131 168.517 48.2038 169.009L48.5314 169.15C49.9988 169.781 51.5642 170.099 53.1295 170.099C54.3083 170.099 55.4871 169.918 56.6236 169.555L57.8147 169.161C57.3292 168.552 57.0537 167.79 57.0537 166.978C57.0537 166.043 57.424 165.193 58.0263 164.561L52.2369 155.766H47.0974C46.3923 157.349 46 159.098 46 160.936Z" fill="#FFCFB5"/>
<path d="M61.6164 148.08C61.5557 148.079 61.495 148.078 61.4349 148.078H58.987C55.3605 148.078 52.077 149.558 49.7187 151.94L49.6763 152.306C49.3789 154.874 49.9867 157.492 51.3877 159.68C52.7969 161.881 54.949 163.547 57.4475 164.371L58.0271 164.563C58.6764 163.882 59.5954 163.455 60.6135 163.455H61.4385C61.4981 163.455 61.5574 163.454 61.6169 163.453L61.6164 148.08Z" fill="#F54B5E"/>
<path d="M51.3865 159.679C52.7957 161.88 54.9478 163.546 57.4463 164.37L58.0259 164.561C58.6753 163.881 59.5942 163.454 60.6123 163.454H61.4373C61.4969 163.454 61.5562 163.453 61.6157 163.452L61.6155 155.766H49.8154C50.0879 157.147 50.6173 158.478 51.3865 159.679Z" fill="#F3263D"/>
<path d="M78.3784 155.033C76.4983 153.171 73.7042 151.423 70.5107 150.113C67.3894 148.832 64.2398 148.114 61.6157 148.082L61.2828 148.476C57.7067 152.705 57.7094 158.843 61.2893 163.07L61.6162 163.456C64.7158 163.433 67.7398 162.827 70.6067 161.65C73.5283 160.451 76.1431 158.72 78.3784 156.505C78.7886 156.099 78.7886 155.44 78.3784 155.033Z" fill="#FFDECC"/>
<path d="M58.6025 155.766C58.6027 158.359 59.4983 160.952 61.2893 163.066L61.6162 163.452C64.7158 163.43 67.7398 162.824 70.6067 161.647C73.5283 160.448 76.1431 158.716 78.3784 156.501C78.5834 156.298 78.686 156.032 78.686 155.766H58.6025Z" fill="#FFCFB5"/>
<path d="M66.3059 157.405C67.2089 157.405 67.9409 156.673 67.9409 155.769C67.9409 154.865 67.2089 154.133 66.3059 154.133C65.4029 154.133 64.6709 154.865 64.6709 155.769C64.6709 156.673 65.4029 157.405 66.3059 157.405Z" fill="#282A52"/>
<path d="M66.3059 157.406C67.2089 157.406 67.9409 156.673 67.9409 155.77H64.6709C64.6709 156.673 65.4029 157.406 66.3059 157.406Z" fill="#1E203E"/>
<path d="M70.6972 174.729C72.0371 173.361 72.636 171.608 72.6664 171.517C72.8326 171.02 72.6003 170.478 72.1237 170.251C71.9958 170.191 68.9615 168.775 66.2749 169.877C65.024 170.39 64.0719 171.437 63.4463 172.324L59.0223 170.133C58.542 169.895 58.134 169.562 57.816 169.163L48.2051 169.012C49.0132 170.38 50.0212 171.619 51.2164 172.708C52.8414 174.189 54.7158 175.306 56.7876 176.03C58.5098 176.631 60.2983 176.934 62.1209 176.934C62.5058 176.934 62.8923 176.919 63.2799 176.892C63.8971 177.822 64.9076 179.021 66.2749 179.582C67.0231 179.889 67.7981 180.001 68.5301 180.001C70.4261 180 72.0315 179.251 72.1237 179.207C72.6003 178.981 72.8326 178.439 72.6664 177.942C72.636 177.851 72.0371 176.098 70.6972 174.729Z" fill="#F54B5E"/>
<circle cx="43" cy="139" r="12" fill="#40D98D"/>
<path d="M43 151C49.6274 151 55 145.627 55 139C55 132.373 49.6274 127 43 127V151Z" fill="#25BB71"/>
<path fill-rule="evenodd" clip-rule="evenodd" d="M58 139C58 147.284 51.2843 154 43 154C34.7157 154 28 147.284 28 139C28 130.716 34.7157 124 43 124C51.2843 124 58 130.716 58 139ZM55 139C55 145.627 49.6274 151 43 151C36.3726 151 31 145.627 31 139C31 132.373 36.3726 127 43 127C49.6274 127 55 132.373 55 139Z" fill="white"/>
<path d="M42 131C41.4478 131 41 131.448 41 132V137H36C35.4478 137 35 137.448 35 138V140C35 140.552 35.4478 141 36 141H41V146C41 146.552 41.4478 147 42 147H44C44.5522 147 45 146.552 45 146V141H50C50.5522 141 51 140.552 51 140V138C51 137.448 50.5522 137 50 137H45V132C45 131.448 44.5522 131 44 131H42Z" fill="white"/>
<path d="M43 147H44C44.5522 147 45 146.552 45 146V141H50C50.5522 141 51 140.552 51 140V138C51 137.448 50.5522 137 50 137H45V132C45 131.448 44.5522 131 44 131H43V147Z" fill="#E2EFFE"/>
<defs>
<filter id="filter0_dd_19799_57845" x="6" y="9" width="100" height="100" filterUnits="userSpaceOnUse" color-interpolation-filters="sRGB">
<feFlood flood-opacity="0" result="BackgroundImageFix"/>
<feColorMatrix in="SourceAlpha" type="matrix" values="0 0 0 0 0 0 0 0 0 0 0 0 0 0 0 0 0 0 127 0" result="hardAlpha"/>
<feOffset dy="3"/>
<feGaussianBlur stdDeviation="5"/>
<feColorMatrix type="matrix" values="0 0 0 0 0.516667 0 0 0 0 0.578358 0 0 0 0 0.775 0 0 0 0.12 0"/>
<feBlend mode="normal" in2="BackgroundImageFix" result="effect1_dropShadow_19799_57845"/>
<feColorMatrix in="SourceAlpha" type="matrix" values="0 0 0 0 0 0 0 0 0 0 0 0 0 0 0 0 0 0 127 0" result="hardAlpha"/>
<feOffset dy="1"/>
<feGaussianBlur stdDeviation="3"/>
<feColorMatrix type="matrix" values="0 0 0 0 0.709809 0 0 0 0 0.788943 0 0 0 0 0.920833 0 0 0 0.15 0"/>
<feBlend mode="normal" in2="effect1_dropShadow_19799_57845" result="effect2_dropShadow_19799_57845"/>
<feBlend mode="normal" in="SourceGraphic" in2="effect2_dropShadow_19799_57845" result="shape"/>
</filter>
</defs>
</svg>
