<svg width="112" height="208" viewBox="0 0 112 208" fill="none" xmlns="http://www.w3.org/2000/svg">
<rect x="0.5" y="0.5" width="111" height="207" rx="4.5" stroke="#9747FF" stroke-dasharray="10 5"/>
<g filter="url(#filter0_dd_11513_74293)">
<rect x="16" y="16" width="80" height="80" rx="8" fill="white"/>
</g>
<path d="M69.5565 76.0681L49.997 80.5533L45.2881 30.8828L69.557 35.9269C72.8561 48.9229 72.7715 63.0501 69.5565 76.0681Z" fill="#B6D7FC"/>
<path d="M30.4429 76.0712L49.9971 80.5564V76.0713V31.9648L30.4429 35.9295C27.1438 48.9255 27.2279 63.0531 30.4429 76.0712Z" fill="#E2EFFE"/>
<path d="M49.9962 35.9293H69.5557V30C69.5557 28.8954 68.6603 28 67.5557 28H49.9962L48.043 32.3597L49.9962 35.9293Z" fill="#0965CD"/>
<path d="M49.9957 76.0703H69.5552V81.9996C69.5552 83.1042 68.6598 83.9996 67.5552 83.9996H49.9957L47.7217 80.035L49.9957 76.0703Z" fill="#0965CD"/>
<path d="M30.4434 30C30.4434 28.8954 31.3388 28 32.4434 28H49.9976V35.9293H30.4434V30Z" fill="#157DF5"/>
<path d="M30.4434 76.0703H49.9976V83.9996H32.4434C31.3388 83.9996 30.4434 83.1042 30.4434 81.9996V76.0703Z" fill="#157DF5"/>
<path d="M61.821 54.4002C60.9081 54.4002 60.168 53.6674 60.168 52.7634C60.168 51.8595 60.9081 51.1267 61.821 51.1267C63.6813 51.1267 65.1947 49.6282 65.1947 47.7862C65.1947 42.5409 60.8851 38.2735 55.5877 38.2735H46.3835C45.4706 38.2735 44.7305 37.5407 44.7305 36.6368C44.7305 35.7328 45.4706 35 46.3835 35H55.5877C62.708 35 68.5006 40.7359 68.5006 47.7862C68.5006 51.4332 65.5042 54.4002 61.821 54.4002Z" fill="white"/>
<path d="M60.1699 52.7695C60.1717 53.6719 60.9109 54.403 61.8228 54.403C63.5012 54.403 65.036 53.7854 66.2106 52.7695H60.1699Z" fill="white"/>
<path d="M61.9961 59.2947C58.644 59.2947 55.87 56.6903 55.6805 53.3655C55.6292 52.463 56.3264 51.6901 57.2379 51.6393C58.15 51.5892 58.93 52.2788 58.9813 53.1813C59.0719 54.7738 60.3962 56.0212 61.9959 56.0212C62.9088 56.0212 63.6489 56.754 63.6489 57.658C63.6489 58.5619 62.909 59.2947 61.9961 59.2947Z" fill="white"/>
<path d="M54.9564 63.9384C54.708 63.9384 54.4558 63.8827 54.2185 63.7652C51.558 62.448 48.3475 59.5908 48.0549 55.8733C47.984 54.9721 48.6644 54.1845 49.5745 54.1143C50.483 54.0449 51.28 54.7177 51.3509 55.619C51.5233 57.8113 53.7246 59.8609 55.697 60.8372C56.5135 61.2415 56.8445 62.2247 56.4362 63.0332C56.1466 63.6067 55.5627 63.9384 54.9564 63.9384Z" fill="white"/>
<path d="M54.9564 63.9384C54.708 63.9384 54.4558 63.8827 54.2185 63.7652C51.558 62.448 48.3475 59.5908 48.0549 55.8733C47.984 54.9721 48.6644 54.1845 49.5745 54.1143C50.483 54.0449 51.28 54.7177 51.3509 55.619C51.5233 57.8113 53.7246 59.8609 55.697 60.8372C56.5135 61.2415 56.8445 62.2247 56.4362 63.0332C56.1466 63.6067 55.5627 63.9384 54.9564 63.9384Z" fill="white"/>
<path fill-rule="evenodd" clip-rule="evenodd" d="M28.5 57.9427C28.5 60.649 29.0642 63.2748 30.1775 65.7292C30.4611 66.3546 30.7766 66.9586 31.1207 67.5411L31.6187 68.3843L31.6666 68.405C32.524 69.692 33.5377 70.8704 34.6959 71.9256C36.6193 73.678 38.8444 75.0048 41.2985 75.8618C43.2497 76.5432 45.276 76.9015 47.3372 76.9316C48.1316 77.8284 49.2242 78.7785 50.6364 79.3577C51.8221 79.8439 52.9995 80.0006 54.0301 80.0005C56.5982 80.0004 58.69 79.0223 58.9123 78.9165C60.7437 78.0453 61.6639 75.9407 61.0114 73.99L61.0109 73.9885C60.9688 73.8629 60.6427 72.8965 59.9431 71.7294C60.6427 70.5623 60.9689 69.5957 61.0111 69.4696L61.0114 69.4686C61.6639 67.5179 60.7429 65.413 58.9115 64.5419C58.7284 64.4548 57.7576 64.0088 56.3987 63.7177C56.1256 63.6592 55.8253 63.6045 55.5028 63.5605C55.4356 63.0889 55.3242 62.627 55.172 62.1807C55.6651 62.0235 56.1546 61.8519 56.6402 61.666C56.8428 61.5884 57.0447 61.5083 57.2457 61.4258C57.3921 61.3657 57.5378 61.3044 57.6829 61.2419C58.9768 61.9155 60.4457 62.2948 61.996 62.2948C64.538 62.2948 66.6489 60.2464 66.6489 57.658C66.6489 57.1618 66.5713 56.6854 66.4279 56.2395C69.438 54.6157 71.5006 51.4499 71.5006 47.7861C71.5006 39.0512 64.3369 32 55.5877 32H46.3834C43.8416 32 41.7304 34.0482 41.7304 36.6368C41.7304 39.2254 43.8416 41.2735 46.3834 41.2735H55.5877C58.9425 41.2735 61.6867 43.7422 62.1315 46.8875C60.6106 45.9271 58.9233 45.065 57.1495 44.3372C54.8126 43.3782 52.4035 42.6846 50.1164 42.3359L47.1479 42.0798L47.0623 42.0789C47.0226 42.0784 46.9791 42.0781 46.9348 42.0781H44.487C40.0287 42.0781 35.9865 43.9009 33.087 46.8291L32.3778 47.5453L32.3695 47.6076C29.9653 50.3787 28.5 53.9925 28.5 57.9427Z" fill="white"/>
<path fill-rule="evenodd" clip-rule="evenodd" d="M45.0643 56.1084C44.8613 53.5266 46.8075 51.3187 49.3441 51.1232L49.3462 51.123C51.8717 50.9301 54.1385 52.8011 54.3419 55.3835C54.3573 55.5793 54.5063 56.0415 55.078 56.6761C55.6253 57.2835 56.3572 57.8165 57.0281 58.1486C59.3227 59.2847 60.2812 62.0747 59.1143 64.3855C58.2899 66.018 56.6396 66.9384 54.9566 66.9384C54.2582 66.9384 53.5491 66.7813 52.8877 66.4537M49.5745 54.1143C50.483 54.0449 51.28 54.7177 51.3509 55.619C51.5233 57.8113 53.7246 59.8609 55.697 60.8372C56.5135 61.2415 56.8445 62.2247 56.4362 63.0332C56.1466 63.6067 55.5627 63.9384 54.9564 63.9384C54.708 63.9384 54.4558 63.8827 54.2185 63.7652C51.558 62.448 48.3475 59.5908 48.0549 55.8733C47.984 54.9721 48.6644 54.1845 49.5745 54.1143ZM45.0643 56.1084C45.479 61.3778 49.8381 64.9438 52.8877 66.4537L45.0643 56.1084Z" fill="white"/>
<path d="M47.9221 66.2669C47.7488 66.2669 47.5725 66.2397 47.3992 66.1826C45.3878 65.5187 43.5826 64.1663 42.3159 62.3746C41.0831 60.6309 40.4043 58.5446 40.4043 56.5C40.4043 55.5961 41.1444 54.8633 42.0573 54.8633C42.9702 54.8633 43.7103 55.5961 43.7103 56.5C43.7103 59.4055 45.7012 62.1716 48.4445 63.077C49.3106 63.3628 49.7786 64.2898 49.49 65.1474C49.2591 65.833 48.6142 66.2669 47.9221 66.2669Z" fill="white"/>
<path d="M43.5262 61.568L35.2178 48.9453C32.9195 51.2662 31.4998 54.4432 31.4998 57.9427C31.4998 60.2252 31.9741 62.428 32.9094 64.49C33.1475 65.0149 33.413 65.5234 33.7036 66.0155L34.0312 66.1563C35.4986 66.7872 37.064 67.1052 38.6293 67.1052C39.8081 67.1052 40.9869 66.9249 42.1234 66.5621L43.3145 66.1672C42.829 65.5585 42.5535 64.7966 42.5535 63.985C42.5536 63.05 42.9239 62.1995 43.5262 61.568Z" fill="white"/>
<path d="M63.8782 52.0334C61.9981 50.1705 59.204 48.423 56.0105 47.1126C52.8892 45.8318 49.7396 45.1139 47.1155 45.082L46.7826 45.4757C43.2065 49.7052 43.2092 55.8429 46.7891 60.0697L47.116 60.4558C50.2156 60.4333 53.2396 59.8272 56.1065 58.6505C59.0281 57.4513 61.6429 55.7201 63.8782 53.505C64.2884 53.0985 64.2884 52.4398 63.8782 52.0334Z" fill="white"/>
<path d="M31.4998 57.9361C31.4998 60.2186 31.9741 62.4214 32.9094 64.4833C33.1475 65.0083 33.413 65.5168 33.7036 66.0089L34.0312 66.1497C35.4986 66.7806 37.064 67.0985 38.6293 67.0985C39.8081 67.0985 40.9869 66.9182 42.1234 66.5555L43.3145 66.1606C42.829 65.5519 42.5535 64.79 42.5535 63.9783C42.5535 63.0434 42.9239 62.1929 43.5261 61.5614L37.7367 52.7656H32.5973C31.8921 54.3486 31.4998 56.0977 31.4998 57.9361Z" fill="white"/>
<path d="M47.1162 45.0797C47.0555 45.0789 46.9948 45.0781 46.9347 45.0781H44.4868C40.8603 45.0781 37.5768 46.5584 35.2185 48.94L35.1761 49.3062C34.8788 51.8738 35.4865 54.4925 36.8875 56.6801C38.2967 58.8807 40.4488 60.5467 42.9473 61.3713L43.5269 61.5626C44.1763 60.8817 45.0952 60.4555 46.1133 60.4555H46.9383C46.9979 60.4555 47.0573 60.4537 47.1168 60.4533L47.1162 45.0797Z" fill="white"/>
<path d="M36.8865 56.679C38.2958 58.8796 40.4478 60.5456 42.9463 61.3702L43.5261 61.5614C44.1754 60.8805 45.0942 60.4543 46.1123 60.4543H46.9373C46.9969 60.4543 47.0563 60.4526 47.1158 60.4522L47.1155 52.7656H35.3155C35.5879 54.1468 36.1174 55.4779 36.8865 56.679Z" fill="white"/>
<path d="M63.8782 52.0334C61.9981 50.1705 59.204 48.423 56.0105 47.1126C52.8892 45.8318 49.7396 45.1139 47.1155 45.082L46.7826 45.4757C43.2065 49.7052 43.2092 55.8429 46.7891 60.0697L47.116 60.4558C50.2156 60.4333 53.2396 59.8272 56.1065 58.6505C59.0281 57.4513 61.6429 55.7201 63.8782 53.505C64.2884 53.0985 64.2884 52.4398 63.8782 52.0334Z" fill="white"/>
<path d="M44.1024 52.7656C44.1025 55.3586 44.9981 57.9515 46.7891 60.0661L47.1158 60.4522C50.2154 60.4297 53.2396 59.8236 56.1065 58.6469C59.0281 57.4477 61.6429 55.7165 63.8782 53.5014C64.0832 53.2983 64.1858 53.032 64.1858 52.7656H44.1024Z" fill="white"/>
<path d="M51.8057 54.4051C52.7087 54.4051 53.4407 53.6726 53.4407 52.7689C53.4407 51.8653 52.7087 51.1328 51.8057 51.1328C50.9027 51.1328 50.1707 51.8653 50.1707 52.7689C50.1707 53.6726 50.9027 54.4051 51.8057 54.4051Z" fill="white"/>
<path d="M51.8057 54.4051C52.7087 54.4051 53.4407 53.6726 53.4407 52.7689H50.1707C50.1707 53.6726 50.9027 54.4051 51.8057 54.4051Z" fill="white"/>
<path d="M56.1969 71.7294C57.5368 70.3609 58.1357 68.6079 58.1661 68.517C58.3324 68.02 58.1 67.4781 57.6234 67.2514C57.4955 67.1906 54.4612 65.7747 51.7746 66.8767C50.5237 67.3897 49.5716 68.437 48.946 69.3236L44.522 67.1333C44.0417 66.8954 43.6337 66.5622 43.3157 66.1634L33.7048 66.0117C34.5129 67.3802 35.5209 68.6191 36.7161 69.708C38.3411 71.1886 40.2155 72.3061 42.2873 73.0296C44.0095 73.631 45.798 73.9337 47.6206 73.9337C48.0055 73.9337 48.392 73.9194 48.7796 73.8923C49.3968 74.822 50.4073 76.0213 51.7746 76.5821C52.5228 76.889 53.2978 77.0006 54.0298 77.0006C55.9258 77.0005 57.5312 76.2513 57.6234 76.2073C58.1 75.9806 58.3324 75.4386 58.1661 74.9417C58.1357 74.8509 57.5368 73.0979 56.1969 71.7294Z" fill="white"/>
<path d="M61.821 54.4002C60.9081 54.4002 60.168 53.6674 60.168 52.7634C60.168 51.8595 60.9081 51.1267 61.821 51.1267C63.6813 51.1267 65.1947 49.6282 65.1947 47.7862C65.1947 42.5409 60.8851 38.2735 55.5877 38.2735H46.3835C45.4706 38.2735 44.7305 37.5407 44.7305 36.6368C44.7305 35.7328 45.4706 35 46.3835 35H55.5877C62.708 35 68.5006 40.7359 68.5006 47.7862C68.5006 51.4332 65.5042 54.4002 61.821 54.4002Z" fill="#FFDECC"/>
<path d="M60.1699 52.7695C60.1717 53.6719 60.9109 54.403 61.8228 54.403C63.5012 54.403 65.036 53.7854 66.2106 52.7695H60.1699Z" fill="#FFCFB5"/>
<path d="M61.9959 59.2947C58.6439 59.2947 55.8698 56.6903 55.6804 53.3655C55.629 52.463 56.3263 51.6901 57.2377 51.6393C58.1498 51.5892 58.9298 52.2788 58.9812 53.1813C59.0718 54.7738 60.396 56.0212 61.9958 56.0212C62.9087 56.0212 63.6488 56.754 63.6488 57.658C63.6488 58.5619 62.9088 59.2947 61.9959 59.2947Z" fill="#FFDECC"/>
<path d="M54.9564 63.9384C54.708 63.9384 54.4558 63.8827 54.2185 63.7652C51.558 62.448 48.3475 59.5908 48.0549 55.8733C47.984 54.9721 48.6644 54.1845 49.5745 54.1143C50.483 54.0449 51.28 54.7177 51.3509 55.619C51.5233 57.8113 53.7246 59.8609 55.697 60.8372C56.5135 61.2415 56.8445 62.2247 56.4362 63.0332C56.1466 63.6067 55.5627 63.9384 54.9564 63.9384Z" fill="#FFDECC"/>
<path d="M47.9221 66.2669C47.7488 66.2669 47.5725 66.2397 47.3992 66.1826C45.3878 65.5187 43.5825 64.1663 42.3159 62.3746C41.0831 60.6309 40.4043 58.5446 40.4043 56.5C40.4043 55.5961 41.1444 54.8633 42.0573 54.8633C42.9702 54.8633 43.7103 55.5961 43.7103 56.5C43.7103 59.4055 45.7012 62.1716 48.4445 63.077C49.3106 63.3629 49.7786 64.2898 49.49 65.1474C49.2591 65.8331 48.6142 66.2669 47.9221 66.2669Z" fill="#FFDECC"/>
<path d="M43.5263 61.568L35.218 48.9453C32.9197 51.2662 31.5 54.4432 31.5 57.9427C31.5 60.2252 31.9743 62.428 32.9096 64.49C33.1477 65.0149 33.4131 65.5234 33.7038 66.0155L34.0314 66.1564C35.4988 66.7872 37.0642 67.1052 38.6295 67.1052C39.8083 67.1052 40.9871 66.9249 42.1236 66.5621L43.3147 66.1672C42.8292 65.5585 42.5537 64.7966 42.5537 63.985C42.5538 63.05 42.9241 62.1995 43.5263 61.568Z" fill="#FFDECC"/>
<path d="M63.8784 52.0334C61.9983 50.1705 59.2042 48.423 56.0107 47.1126C52.8894 45.8318 49.7398 45.1139 47.1157 45.082L46.7828 45.4757C43.2067 49.7052 43.2094 55.8429 46.7893 60.0697L47.1162 60.4558C50.2158 60.4333 53.2398 59.8272 56.1067 58.6505C59.0283 57.4513 61.6431 55.7201 63.8784 53.505C64.2886 53.0985 64.2886 52.4398 63.8784 52.0334Z" fill="#157DF5"/>
<path d="M31.5 57.9361C31.5 60.2186 31.9743 62.4214 32.9096 64.4833C33.1477 65.0083 33.4131 65.5168 33.7038 66.0089L34.0314 66.1497C35.4988 66.7806 37.0642 67.0985 38.6295 67.0985C39.8083 67.0985 40.9871 66.9182 42.1236 66.5555L43.3147 66.1606C42.8292 65.5519 42.5537 64.79 42.5537 63.9783C42.5537 63.0433 42.924 62.1929 43.5263 61.5614L37.7369 52.7656H32.5974C31.8923 54.3486 31.5 56.0977 31.5 57.9361Z" fill="#FFCFB5"/>
<path d="M47.1164 45.0797C47.0557 45.0789 46.995 45.0781 46.9349 45.0781H44.487C40.8605 45.0781 37.577 46.5584 35.2187 48.94L35.1763 49.3062C34.8789 51.8738 35.4867 54.4925 36.8877 56.6801C38.2969 58.8807 40.449 60.5467 42.9475 61.3713L43.5271 61.5626C44.1764 60.8817 45.0954 60.4555 46.1135 60.4555H46.9385C46.9981 60.4555 47.0574 60.4537 47.1169 60.4533L47.1164 45.0797Z" fill="#F54B5E"/>
<path d="M36.8865 56.679C38.2957 58.8796 40.4478 60.5456 42.9463 61.3702L43.5259 61.5614C44.1753 60.8806 45.0942 60.4543 46.1123 60.4543H46.9373C46.9969 60.4543 47.0562 60.4526 47.1157 60.4522L47.1155 52.7656H35.3154C35.5879 54.1468 36.1173 55.4779 36.8865 56.679Z" fill="#F3263D"/>
<path d="M63.8784 52.0334C61.9983 50.1705 59.2042 48.423 56.0107 47.1126C52.8894 45.8318 49.7398 45.1139 47.1157 45.082L46.7828 45.4757C43.2067 49.7052 43.2094 55.8429 46.7893 60.0697L47.1162 60.4558C50.2158 60.4333 53.2398 59.8272 56.1067 58.6505C59.0283 57.4513 61.6431 55.7201 63.8784 53.505C64.2886 53.0985 64.2886 52.4398 63.8784 52.0334Z" fill="#FFDECC"/>
<path d="M44.1025 52.7656C44.1027 55.3586 44.9983 57.9515 46.7893 60.0661L47.1162 60.4522C50.2158 60.4297 53.2398 59.8236 56.1067 58.6469C59.0283 57.4477 61.6431 55.7165 63.8784 53.5014C64.0834 53.2983 64.186 53.032 64.186 52.7656H44.1025Z" fill="#FFCFB5"/>
<path d="M51.8059 54.4051C52.7089 54.4051 53.4409 53.6726 53.4409 52.7689C53.4409 51.8653 52.7089 51.1328 51.8059 51.1328C50.9029 51.1328 50.1709 51.8653 50.1709 52.7689C50.1709 53.6726 50.9029 54.4051 51.8059 54.4051Z" fill="#282A52"/>
<path d="M51.8059 54.4057C52.7089 54.4057 53.4409 53.6731 53.4409 52.7695H50.1709C50.1709 53.6731 50.9029 54.4057 51.8059 54.4057Z" fill="#1E203E"/>
<path d="M56.1972 71.7294C57.5371 70.3609 58.136 68.6079 58.1664 68.517C58.3326 68.02 58.1003 67.4781 57.6237 67.2514C57.4958 67.1906 54.4615 65.7747 51.7749 66.8767C50.524 67.3897 49.5719 68.437 48.9463 69.3236L44.5223 67.1333C44.042 66.8954 43.634 66.5622 43.316 66.1634L33.7051 66.0117C34.5132 67.3802 35.5212 68.6191 36.7164 69.708C38.3414 71.1886 40.2158 72.3061 42.2876 73.0296C44.0098 73.631 45.7983 73.9337 47.6209 73.9337C48.0058 73.9337 48.3923 73.9194 48.7799 73.8923C49.3971 74.822 50.4076 76.0213 51.7749 76.5821C52.5231 76.889 53.2981 77.0006 54.0301 77.0006C55.9261 77.0005 57.5315 76.2513 57.6237 76.2073C58.1003 75.9806 58.3326 75.4386 58.1664 74.9417C58.136 74.8509 57.5371 73.0979 56.1972 71.7294Z" fill="#F54B5E"/>
<rect x="64" y="63" width="20" height="21" rx="3" fill="white"/>
<rect x="67" y="78" width="14" height="3" rx="1.5" fill="#F54B5E"/>
<rect x="67" y="72" width="14" height="3" rx="1.5" fill="#FEE048"/>
<rect x="67" y="66" width="14" height="3" rx="1.5" fill="#09C369"/>
<path d="M69.5565 172.068L49.997 176.553L45.2881 126.883L69.557 131.927C72.8561 144.923 72.7715 159.05 69.5565 172.068Z" fill="#B6D7FC"/>
<path d="M30.4429 172.071L49.9971 176.556V172.071V127.965L30.4429 131.929C27.1438 144.925 27.2279 159.053 30.4429 172.071Z" fill="#E2EFFE"/>
<path d="M49.9962 131.929H69.5557V126C69.5557 124.895 68.6603 124 67.5557 124H49.9962L48.043 128.36L49.9962 131.929Z" fill="#0965CD"/>
<path d="M49.9957 172.07H69.5552V178C69.5552 179.104 68.6598 180 67.5552 180H49.9957L47.7217 176.035L49.9957 172.07Z" fill="#0965CD"/>
<path d="M30.4434 126C30.4434 124.895 31.3388 124 32.4434 124H49.9976V131.929H30.4434V126Z" fill="#157DF5"/>
<path d="M30.4434 172.07H49.9976V180H32.4434C31.3388 180 30.4434 179.104 30.4434 178V172.07Z" fill="#157DF5"/>
<path d="M61.821 150.4C60.9081 150.4 60.168 149.667 60.168 148.763C60.168 147.86 60.9081 147.127 61.821 147.127C63.6813 147.127 65.1947 145.628 65.1947 143.786C65.1947 138.541 60.8851 134.274 55.5877 134.274H46.3835C45.4706 134.274 44.7305 133.541 44.7305 132.637C44.7305 131.733 45.4706 131 46.3835 131H55.5877C62.708 131 68.5006 136.736 68.5006 143.786C68.5006 147.433 65.5042 150.4 61.821 150.4Z" fill="white"/>
<path d="M60.1699 148.77C60.1717 149.672 60.9109 150.403 61.8228 150.403C63.5012 150.403 65.036 149.785 66.2106 148.77H60.1699Z" fill="white"/>
<path d="M61.9961 155.295C58.644 155.295 55.87 152.69 55.6805 149.366C55.6292 148.463 56.3264 147.69 57.2379 147.639C58.15 147.589 58.93 148.279 58.9813 149.181C59.0719 150.774 60.3962 152.021 61.9959 152.021C62.9088 152.021 63.6489 152.754 63.6489 153.658C63.6489 154.562 62.909 155.295 61.9961 155.295Z" fill="white"/>
<path d="M54.9564 159.938C54.708 159.938 54.4558 159.883 54.2185 159.765C51.558 158.448 48.3475 155.591 48.0549 151.873C47.984 150.972 48.6644 150.184 49.5745 150.114C50.483 150.045 51.28 150.718 51.3509 151.619C51.5233 153.811 53.7246 155.861 55.697 156.837C56.5135 157.242 56.8445 158.225 56.4362 159.033C56.1466 159.607 55.5627 159.938 54.9564 159.938Z" fill="white"/>
<path d="M54.9564 159.938C54.708 159.938 54.4558 159.883 54.2185 159.765C51.558 158.448 48.3475 155.591 48.0549 151.873C47.984 150.972 48.6644 150.184 49.5745 150.114C50.483 150.045 51.28 150.718 51.3509 151.619C51.5233 153.811 53.7246 155.861 55.697 156.837C56.5135 157.242 56.8445 158.225 56.4362 159.033C56.1466 159.607 55.5627 159.938 54.9564 159.938Z" fill="white"/>
<path fill-rule="evenodd" clip-rule="evenodd" d="M28.5 153.943C28.5 156.649 29.0642 159.275 30.1775 161.729C30.4611 162.355 30.7766 162.959 31.1207 163.541L31.6187 164.384L31.6666 164.405C32.524 165.692 33.5377 166.87 34.6959 167.926C36.6193 169.678 38.8444 171.005 41.2985 171.862C43.2497 172.543 45.276 172.901 47.3372 172.932C48.1316 173.828 49.2242 174.779 50.6364 175.358C51.8221 175.844 52.9995 176.001 54.0301 176.001C56.5982 176 58.69 175.022 58.9123 174.917C60.7437 174.045 61.6639 171.941 61.0114 169.99L61.0109 169.988C60.9688 169.863 60.6427 168.896 59.9431 167.729C60.6427 166.562 60.9689 165.596 61.0111 165.47L61.0114 165.469C61.6639 163.518 60.7429 161.413 58.9115 160.542C58.7284 160.455 57.7576 160.009 56.3987 159.718C56.1256 159.659 55.8253 159.604 55.5028 159.56C55.4356 159.089 55.3242 158.627 55.172 158.181C55.6651 158.023 56.1546 157.852 56.6402 157.666C56.8428 157.588 57.0447 157.508 57.2457 157.426C57.3921 157.366 57.5378 157.304 57.6829 157.242C58.9768 157.915 60.4457 158.295 61.996 158.295C64.538 158.295 66.6489 156.246 66.6489 153.658C66.6489 153.162 66.5713 152.685 66.4279 152.239C69.438 150.616 71.5006 147.45 71.5006 143.786C71.5006 135.051 64.3369 128 55.5877 128H46.3834C43.8416 128 41.7304 130.048 41.7304 132.637C41.7304 135.225 43.8416 137.273 46.3834 137.273H55.5877C58.9425 137.273 61.6867 139.742 62.1315 142.888C60.6106 141.927 58.9233 141.065 57.1495 140.337C54.8126 139.378 52.4035 138.685 50.1164 138.336L47.1479 138.08L47.0623 138.079C47.0226 138.078 46.9791 138.078 46.9348 138.078H44.487C40.0287 138.078 35.9865 139.901 33.087 142.829L32.3778 143.545L32.3695 143.608C29.9653 146.379 28.5 149.992 28.5 153.943Z" fill="white"/>
<path fill-rule="evenodd" clip-rule="evenodd" d="M45.0643 152.108C44.8613 149.527 46.8075 147.319 49.3441 147.123L49.3462 147.123C51.8717 146.93 54.1385 148.801 54.3419 151.384C54.3573 151.579 54.5063 152.041 55.078 152.676C55.6253 153.284 56.3572 153.817 57.0281 154.149C59.3227 155.285 60.2812 158.075 59.1143 160.385C58.2899 162.018 56.6396 162.938 54.9566 162.938C54.2582 162.938 53.5491 162.781 52.8877 162.454M49.5745 150.114C50.483 150.045 51.28 150.718 51.3509 151.619C51.5233 153.811 53.7246 155.861 55.697 156.837C56.5135 157.242 56.8445 158.225 56.4362 159.033C56.1466 159.607 55.5627 159.938 54.9564 159.938C54.708 159.938 54.4558 159.883 54.2185 159.765C51.558 158.448 48.3475 155.591 48.0549 151.873C47.984 150.972 48.6644 150.184 49.5745 150.114ZM45.0643 152.108C45.479 157.378 49.8381 160.944 52.8877 162.454L45.0643 152.108Z" fill="white"/>
<path d="M47.9221 162.267C47.7488 162.267 47.5725 162.24 47.3992 162.183C45.3878 161.519 43.5826 160.166 42.3159 158.375C41.0831 156.631 40.4043 154.545 40.4043 152.5C40.4043 151.596 41.1444 150.863 42.0573 150.863C42.9702 150.863 43.7103 151.596 43.7103 152.5C43.7103 155.405 45.7012 158.172 48.4445 159.077C49.3106 159.363 49.7786 160.29 49.49 161.147C49.2591 161.833 48.6142 162.267 47.9221 162.267Z" fill="white"/>
<path d="M43.5262 157.568L35.2178 144.945C32.9195 147.266 31.4998 150.443 31.4998 153.943C31.4998 156.225 31.9741 158.428 32.9094 160.49C33.1475 161.015 33.413 161.523 33.7036 162.015L34.0312 162.156C35.4986 162.787 37.064 163.105 38.6293 163.105C39.8081 163.105 40.9869 162.925 42.1234 162.562L43.3145 162.167C42.829 161.558 42.5535 160.797 42.5535 159.985C42.5536 159.05 42.9239 158.2 43.5262 157.568Z" fill="white"/>
<path d="M63.8782 148.033C61.9981 146.171 59.204 144.423 56.0105 143.113C52.8892 141.832 49.7396 141.114 47.1155 141.082L46.7826 141.476C43.2065 145.705 43.2092 151.843 46.7891 156.07L47.116 156.456C50.2156 156.433 53.2396 155.827 56.1065 154.65C59.0281 153.451 61.6429 151.72 63.8782 149.505C64.2884 149.099 64.2884 148.44 63.8782 148.033Z" fill="white"/>
<path d="M31.4998 153.936C31.4998 156.219 31.9741 158.421 32.9094 160.483C33.1475 161.008 33.413 161.517 33.7036 162.009L34.0312 162.15C35.4986 162.781 37.064 163.099 38.6293 163.099C39.8081 163.099 40.9869 162.918 42.1234 162.555L43.3145 162.161C42.829 161.552 42.5535 160.79 42.5535 159.978C42.5535 159.043 42.9239 158.193 43.5261 157.561L37.7367 148.766H32.5973C31.8921 150.349 31.4998 152.098 31.4998 153.936Z" fill="white"/>
<path d="M47.1162 141.08C47.0555 141.079 46.9948 141.078 46.9347 141.078H44.4868C40.8603 141.078 37.5768 142.558 35.2185 144.94L35.1761 145.306C34.8788 147.874 35.4865 150.492 36.8875 152.68C38.2967 154.881 40.4488 156.547 42.9473 157.371L43.5269 157.563C44.1763 156.882 45.0952 156.455 46.1133 156.455H46.9383C46.9979 156.455 47.0573 156.454 47.1168 156.453L47.1162 141.08Z" fill="white"/>
<path d="M36.8865 152.679C38.2958 154.88 40.4478 156.546 42.9463 157.37L43.5261 157.561C44.1754 156.881 45.0942 156.454 46.1123 156.454H46.9373C46.9969 156.454 47.0563 156.453 47.1158 156.452L47.1155 148.766H35.3155C35.5879 150.147 36.1174 151.478 36.8865 152.679Z" fill="white"/>
<path d="M63.8782 148.033C61.9981 146.171 59.204 144.423 56.0105 143.113C52.8892 141.832 49.7396 141.114 47.1155 141.082L46.7826 141.476C43.2065 145.705 43.2092 151.843 46.7891 156.07L47.116 156.456C50.2156 156.433 53.2396 155.827 56.1065 154.65C59.0281 153.451 61.6429 151.72 63.8782 149.505C64.2884 149.099 64.2884 148.44 63.8782 148.033Z" fill="white"/>
<path d="M44.1024 148.766C44.1025 151.359 44.9981 153.952 46.7891 156.066L47.1158 156.452C50.2154 156.43 53.2396 155.824 56.1065 154.647C59.0281 153.448 61.6429 151.716 63.8782 149.501C64.0832 149.298 64.1858 149.032 64.1858 148.766H44.1024Z" fill="white"/>
<path d="M51.8057 150.405C52.7087 150.405 53.4407 149.673 53.4407 148.769C53.4407 147.865 52.7087 147.133 51.8057 147.133C50.9027 147.133 50.1707 147.865 50.1707 148.769C50.1707 149.673 50.9027 150.405 51.8057 150.405Z" fill="white"/>
<path d="M51.8057 150.405C52.7087 150.405 53.4407 149.673 53.4407 148.769H50.1707C50.1707 149.673 50.9027 150.405 51.8057 150.405Z" fill="white"/>
<path d="M56.1969 167.729C57.5368 166.361 58.1357 164.608 58.1661 164.517C58.3324 164.02 58.1 163.478 57.6234 163.251C57.4955 163.191 54.4612 161.775 51.7746 162.877C50.5237 163.39 49.5716 164.437 48.946 165.324L44.522 163.133C44.0417 162.895 43.6337 162.562 43.3157 162.163L33.7048 162.012C34.5129 163.38 35.5209 164.619 36.7161 165.708C38.3411 167.189 40.2155 168.306 42.2873 169.03C44.0095 169.631 45.798 169.934 47.6206 169.934C48.0055 169.934 48.392 169.919 48.7796 169.892C49.3968 170.822 50.4073 172.021 51.7746 172.582C52.5228 172.889 53.2978 173.001 54.0298 173.001C55.9258 173 57.5312 172.251 57.6234 172.207C58.1 171.981 58.3324 171.439 58.1661 170.942C58.1357 170.851 57.5368 169.098 56.1969 167.729Z" fill="white"/>
<path d="M61.821 150.4C60.9081 150.4 60.168 149.667 60.168 148.763C60.168 147.86 60.9081 147.127 61.821 147.127C63.6813 147.127 65.1947 145.628 65.1947 143.786C65.1947 138.541 60.8851 134.274 55.5877 134.274H46.3835C45.4706 134.274 44.7305 133.541 44.7305 132.637C44.7305 131.733 45.4706 131 46.3835 131H55.5877C62.708 131 68.5006 136.736 68.5006 143.786C68.5006 147.433 65.5042 150.4 61.821 150.4Z" fill="#FFDECC"/>
<path d="M60.1699 148.77C60.1717 149.672 60.9109 150.403 61.8228 150.403C63.5012 150.403 65.036 149.785 66.2106 148.77H60.1699Z" fill="#FFCFB5"/>
<path d="M61.9959 155.295C58.6439 155.295 55.8698 152.69 55.6804 149.366C55.629 148.463 56.3263 147.69 57.2377 147.639C58.1498 147.589 58.9298 148.279 58.9812 149.181C59.0718 150.774 60.396 152.021 61.9958 152.021C62.9087 152.021 63.6488 152.754 63.6488 153.658C63.6488 154.562 62.9088 155.295 61.9959 155.295Z" fill="#FFDECC"/>
<path d="M54.9564 159.938C54.708 159.938 54.4558 159.883 54.2185 159.765C51.558 158.448 48.3475 155.591 48.0549 151.873C47.984 150.972 48.6644 150.184 49.5745 150.114C50.483 150.045 51.28 150.718 51.3509 151.619C51.5233 153.811 53.7246 155.861 55.697 156.837C56.5135 157.242 56.8445 158.225 56.4362 159.033C56.1466 159.607 55.5627 159.938 54.9564 159.938Z" fill="#FFDECC"/>
<path d="M47.9221 162.267C47.7488 162.267 47.5725 162.24 47.3992 162.183C45.3878 161.519 43.5825 160.166 42.3159 158.375C41.0831 156.631 40.4043 154.545 40.4043 152.5C40.4043 151.596 41.1444 150.863 42.0573 150.863C42.9702 150.863 43.7103 151.596 43.7103 152.5C43.7103 155.406 45.7012 158.172 48.4445 159.077C49.3106 159.363 49.7786 160.29 49.49 161.147C49.2591 161.833 48.6142 162.267 47.9221 162.267Z" fill="#FFDECC"/>
<path d="M43.5263 157.568L35.218 144.945C32.9197 147.266 31.5 150.443 31.5 153.943C31.5 156.225 31.9743 158.428 32.9096 160.49C33.1477 161.015 33.4131 161.523 33.7038 162.015L34.0314 162.156C35.4988 162.787 37.0642 163.105 38.6295 163.105C39.8083 163.105 40.9871 162.925 42.1236 162.562L43.3147 162.167C42.8292 161.558 42.5537 160.797 42.5537 159.985C42.5538 159.05 42.9241 158.2 43.5263 157.568Z" fill="#FFDECC"/>
<path d="M63.8784 148.033C61.9983 146.171 59.2042 144.423 56.0107 143.113C52.8894 141.832 49.7398 141.114 47.1157 141.082L46.7828 141.476C43.2067 145.705 43.2094 151.843 46.7893 156.07L47.1162 156.456C50.2158 156.433 53.2398 155.827 56.1067 154.65C59.0283 153.451 61.6431 151.72 63.8784 149.505C64.2886 149.099 64.2886 148.44 63.8784 148.033Z" fill="#157DF5"/>
<path d="M31.5 153.936C31.5 156.219 31.9743 158.421 32.9096 160.483C33.1477 161.008 33.4131 161.517 33.7038 162.009L34.0314 162.15C35.4988 162.781 37.0642 163.099 38.6295 163.099C39.8083 163.099 40.9871 162.918 42.1236 162.555L43.3147 162.161C42.8292 161.552 42.5537 160.79 42.5537 159.978C42.5537 159.043 42.924 158.193 43.5263 157.561L37.7369 148.766H32.5974C31.8923 150.349 31.5 152.098 31.5 153.936Z" fill="#FFCFB5"/>
<path d="M47.1164 141.08C47.0557 141.079 46.995 141.078 46.9349 141.078H44.487C40.8605 141.078 37.577 142.558 35.2187 144.94L35.1763 145.306C34.8789 147.874 35.4867 150.492 36.8877 152.68C38.2969 154.881 40.449 156.547 42.9475 157.371L43.5271 157.563C44.1764 156.882 45.0954 156.455 46.1135 156.455H46.9385C46.9981 156.455 47.0574 156.454 47.1169 156.453L47.1164 141.08Z" fill="#F54B5E"/>
<path d="M36.8865 152.679C38.2957 154.88 40.4478 156.546 42.9463 157.37L43.5259 157.561C44.1753 156.881 45.0942 156.454 46.1123 156.454H46.9373C46.9969 156.454 47.0562 156.453 47.1157 156.452L47.1155 148.766H35.3154C35.5879 150.147 36.1173 151.478 36.8865 152.679Z" fill="#F3263D"/>
<path d="M63.8784 148.033C61.9983 146.171 59.2042 144.423 56.0107 143.113C52.8894 141.832 49.7398 141.114 47.1157 141.082L46.7828 141.476C43.2067 145.705 43.2094 151.843 46.7893 156.07L47.1162 156.456C50.2158 156.433 53.2398 155.827 56.1067 154.65C59.0283 153.451 61.6431 151.72 63.8784 149.505C64.2886 149.099 64.2886 148.44 63.8784 148.033Z" fill="#FFDECC"/>
<path d="M44.1025 148.766C44.1027 151.359 44.9983 153.952 46.7893 156.066L47.1162 156.452C50.2158 156.43 53.2398 155.824 56.1067 154.647C59.0283 153.448 61.6431 151.716 63.8784 149.501C64.0834 149.298 64.186 149.032 64.186 148.766H44.1025Z" fill="#FFCFB5"/>
<path d="M51.8059 150.405C52.7089 150.405 53.4409 149.673 53.4409 148.769C53.4409 147.865 52.7089 147.133 51.8059 147.133C50.9029 147.133 50.1709 147.865 50.1709 148.769C50.1709 149.673 50.9029 150.405 51.8059 150.405Z" fill="#282A52"/>
<path d="M51.8059 150.406C52.7089 150.406 53.4409 149.673 53.4409 148.77H50.1709C50.1709 149.673 50.9029 150.406 51.8059 150.406Z" fill="#1E203E"/>
<path d="M56.1972 167.729C57.5371 166.361 58.136 164.608 58.1664 164.517C58.3326 164.02 58.1003 163.478 57.6237 163.251C57.4958 163.191 54.4615 161.775 51.7749 162.877C50.524 163.39 49.5719 164.437 48.9463 165.324L44.5223 163.133C44.042 162.895 43.634 162.562 43.316 162.163L33.7051 162.012C34.5132 163.38 35.5212 164.619 36.7164 165.708C38.3414 167.189 40.2158 168.306 42.2876 169.03C44.0098 169.631 45.7983 169.934 47.6209 169.934C48.0058 169.934 48.3923 169.919 48.7799 169.892C49.3971 170.822 50.4076 172.021 51.7749 172.582C52.5231 172.889 53.2981 173.001 54.0301 173.001C55.9261 173 57.5315 172.251 57.6237 172.207C58.1003 171.981 58.3326 171.439 58.1664 170.942C58.136 170.851 57.5371 169.098 56.1972 167.729Z" fill="#F54B5E"/>
<rect x="64" y="159" width="20" height="21" rx="3" fill="white"/>
<rect x="67" y="174" width="14" height="3" rx="1.5" fill="#F54B5E"/>
<rect x="67" y="168" width="14" height="3" rx="1.5" fill="#FEE048"/>
<rect x="67" y="162" width="14" height="3" rx="1.5" fill="#09C369"/>
<defs>
<filter id="filter0_dd_11513_74293" x="6" y="9" width="100" height="100" filterUnits="userSpaceOnUse" color-interpolation-filters="sRGB">
<feFlood flood-opacity="0" result="BackgroundImageFix"/>
<feColorMatrix in="SourceAlpha" type="matrix" values="0 0 0 0 0 0 0 0 0 0 0 0 0 0 0 0 0 0 127 0" result="hardAlpha"/>
<feOffset dy="3"/>
<feGaussianBlur stdDeviation="5"/>
<feColorMatrix type="matrix" values="0 0 0 0 0.516667 0 0 0 0 0.578358 0 0 0 0 0.775 0 0 0 0.12 0"/>
<feBlend mode="normal" in2="BackgroundImageFix" result="effect1_dropShadow_11513_74293"/>
<feColorMatrix in="SourceAlpha" type="matrix" values="0 0 0 0 0 0 0 0 0 0 0 0 0 0 0 0 0 0 127 0" result="hardAlpha"/>
<feOffset dy="1"/>
<feGaussianBlur stdDeviation="3"/>
<feColorMatrix type="matrix" values="0 0 0 0 0.709809 0 0 0 0 0.788943 0 0 0 0 0.920833 0 0 0 0.15 0"/>
<feBlend mode="normal" in2="effect1_dropShadow_11513_74293" result="effect2_dropShadow_11513_74293"/>
<feBlend mode="normal" in="SourceGraphic" in2="effect2_dropShadow_11513_74293" result="shape"/>
</filter>
</defs>
</svg>
