<svg width="112" height="208" viewBox="0 0 112 208" fill="none" xmlns="http://www.w3.org/2000/svg">
<rect x="0.5" y="0.5" width="111" height="207" rx="4.5" stroke="#9747FF" stroke-dasharray="10 5"/>
<g filter="url(#filter0_d_16529_76345)">
<rect x="16" y="16" width="80" height="80" rx="16" fill="white"/>
</g>
<path d="M70.603 60.5558H56.4636V54.4189C56.4636 53.5134 55.7295 52.7793 54.824 52.7793C53.9184 52.7793 53.1843 53.5134 53.1843 54.4189V60.5558H39.3623C38.4568 60.5558 37.7227 61.2899 37.7227 62.1954V69.2584C37.7227 70.1639 38.4568 70.898 39.3623 70.898C40.2678 70.898 41.0019 70.1639 41.0019 69.2584V63.8351H68.9632V69.2584C68.9632 70.1639 69.6973 70.898 70.6028 70.898C71.5084 70.898 72.2425 70.1639 72.2425 69.2584V62.1954C72.2426 61.2899 71.5085 60.5558 70.603 60.5558Z" fill="#40D98D"/>
<path d="M70.6033 60.5558H56.4639V54.4189C56.4639 53.5134 55.7298 52.7793 54.8243 52.7793C54.8104 52.7793 54.797 52.781 54.7832 52.7814V63.8351H68.9637V69.2584C68.9637 70.1639 69.6978 70.898 70.6033 70.898C71.5088 70.898 72.2429 70.1639 72.2429 69.2584V62.1954C72.2429 61.2899 71.5088 60.5558 70.6033 60.5558Z" fill="#25BB71"/>
<path d="M73.8103 39.9622C73.4732 39.8591 73.2352 39.5533 73.226 39.2009C73.0643 33.042 68.3612 27.8848 62.3145 27.1027C61.7778 27.0333 61.2305 30.0677 60.6749 30.0696C60.1191 30.0696 59.5718 27.0363 59.0351 27.1063C55.1198 27.6171 51.7717 29.9322 49.8517 33.1896C49.6125 33.5955 49.0781 33.7176 48.6826 33.4613C47.5058 32.6983 46.1026 32.255 44.5957 32.255C40.6686 32.255 36.225 35.2633 35.7664 39.1009C35.7259 39.4396 35.4724 39.7156 35.1406 39.7949C31.3007 40.7116 28.4456 44.1649 28.4456 48.2856C28.4456 53.107 32.354 57.0154 37.1754 57.0154H38.931L40.7114 54.5616L42.1982 57.0154H72.5427C76.8035 57.0154 80.3514 53.963 81.1188 49.9256C81.2198 49.3943 78.0449 48.8461 78.0449 48.2855C78.0449 47.7249 81.194 47.1765 81.0486 46.6452C80.1822 43.4796 76.9424 40.9199 73.8103 39.9622Z" fill="#157DF5"/>
<path d="M78.045 48.2857C78.045 47.725 81.1941 47.1767 81.0487 46.6454C80.1822 43.4796 76.9424 40.9199 73.8103 39.9622C73.4732 39.8591 73.2353 39.5533 73.2261 39.2009C73.0643 33.042 68.3612 27.8848 62.3146 27.1027C61.7779 27.0333 61.2306 30.0677 60.675 30.0696C60.1191 30.0696 59.5718 27.0363 59.0351 27.1063C57.5154 27.3046 56.0818 27.7757 54.7834 28.4672V57.0154H72.5428C76.8035 57.0154 80.3514 53.963 81.1188 49.9256C81.2198 49.3945 78.045 48.8463 78.045 48.2857Z" fill="#0965CD"/>
<path d="M48.2161 82.9975H30.5068C29.6013 82.9975 28.8672 82.2634 28.8672 81.3579V69.2451C28.8672 68.3396 29.6013 67.6055 30.5068 67.6055H48.2161C49.1216 67.6055 49.8557 68.3396 49.8557 69.2451V81.3579C49.8557 82.2635 49.1216 82.9975 48.2161 82.9975ZM32.1464 79.7183H46.5765V70.8847H32.1464V79.7183Z" fill="#282A52"/>
<path d="M50.0857 83H28.6396C27.7341 83 27 82.2658 27 81.3603C27 80.4548 27.7341 79.7207 28.6396 79.7207H50.0857C50.9912 79.7207 51.7253 80.4548 51.7253 81.3603C51.7253 82.2658 50.9912 83 50.0857 83Z" fill="#1E203E"/>
<path d="M79.5675 82.9975H61.6396C60.7341 82.9975 60 82.2634 60 81.3579V69.2451C60 68.3396 60.7341 67.6055 61.6396 67.6055H79.5676C80.4731 67.6055 81.2072 68.3396 81.2072 69.2451V81.3579C81.2071 82.2635 80.4731 82.9975 79.5675 82.9975ZM63.2793 79.7183H77.928V70.8847H63.2793V79.7183Z" fill="#282A52"/>
<path d="M81.3259 83H59.8799C58.9743 83 58.2402 82.2658 58.2402 81.3603C58.2402 80.4548 58.9743 79.7207 59.8799 79.7207H81.3259C82.2315 79.7207 82.9656 80.4548 82.9656 81.3603C82.9656 82.2658 82.2315 83 81.3259 83Z" fill="#1E203E"/>
<path d="M42.2032 52.3402L45.3459 49.1974C45.9862 48.5571 45.9862 47.519 45.3459 46.8787C44.7057 46.2384 43.6675 46.2384 43.0272 46.8787L39.4041 50.5017C39.0966 50.8092 38.9238 51.2262 38.9238 51.661V56.8967C38.9238 56.937 38.927 56.9765 38.9298 57.0161H42.1971C42.1999 56.9765 42.2031 56.937 42.2031 56.8967V52.3402H42.2032Z" fill="#E2EFFE"/>
<path d="M60.6748 38.5401C61.5803 38.5401 62.3144 37.806 62.3144 36.9005V27.1028C61.7777 27.0334 61.2304 26.9982 60.6748 27.0001C60.1188 27.0001 59.572 27.0381 59.0352 27.1082V36.9006C59.0352 37.806 59.7693 38.5401 60.6748 38.5401Z" fill="#B6D7FC"/>
<path d="M81.2727 48.2852C81.2727 47.7246 81.1917 47.1768 81.0463 46.6456H69.4334L67.6937 44.9059C67.0535 44.2657 66.0153 44.2657 65.375 44.9059C64.7347 45.5463 64.7348 46.5844 65.375 47.2247L67.5949 49.4445C67.9024 49.752 68.3194 49.9247 68.7542 49.9247H81.1167C81.2177 49.3935 81.2727 48.8459 81.2727 48.2852Z" fill="#B6D7FC"/>
<path d="M46.4963 49.6275C48.6075 49.6275 50.3189 47.9161 50.3189 45.8049C50.3189 43.6938 48.6075 41.9824 46.4963 41.9824C44.3852 41.9824 42.6738 43.6938 42.6738 45.8049C42.6738 47.9161 44.3852 49.6275 46.4963 49.6275Z" fill="#40D98D"/>
<path d="M70.0011 55.9771H64.53C62.7389 55.9771 61.2938 54.4913 61.2938 52.6593C61.2938 51.2881 62.0909 50.065 63.3245 49.5409C64.5586 49.0169 65.9659 49.3041 66.9102 50.2721L70.7256 54.1838C71.0187 54.4842 71.1063 54.9361 70.9478 55.3286C70.7892 55.7211 70.4156 55.9771 70.0011 55.9771Z" fill="#F3263D"/>
<path d="M75.4693 55.9771H69.9982C69.5837 55.9771 69.2101 55.7211 69.0515 55.3286C68.893 54.936 68.9806 54.4842 69.2737 54.1838L73.0891 50.2721C74.0334 49.304 75.4408 49.017 76.6746 49.5408C77.9084 50.0649 78.7054 51.2882 78.7054 52.6571C78.7055 54.4948 77.2576 55.9771 75.4693 55.9771Z" fill="#F54B5E"/>
<path d="M80.9751 80.7294H59.0247C58.4588 80.7294 58 80.259 58 79.6789V66.1768C58 59.3933 63.3831 53.8745 69.9999 53.8745C76.6166 53.8745 81.9997 59.3933 81.9997 66.1768V79.6789C81.9997 80.259 81.5409 80.7294 80.9751 80.7294Z" fill="#F0F7FE"/>
<path d="M82.0008 79.6789V66.1768C82.0008 59.3933 76.6177 53.8745 70.0009 53.8745C70.0005 53.8745 70.0002 53.8745 69.9998 53.8745V80.7293H80.9761C81.542 80.7294 82.0008 80.259 82.0008 79.6789Z" fill="#E2EFFE"/>
<path d="M74.8255 76.2501L71.3837 72.714C71.234 72.5601 71.0307 72.4736 70.8186 72.4736C70.8184 72.4736 70.8175 72.4736 70.8178 72.4736H69.1205C69.1208 72.4736 69.12 72.4736 69.1197 72.4736C68.9076 72.4736 68.7043 72.5601 68.5546 72.714L65.1127 76.2501C64.1709 77.2179 63.8925 78.6586 64.4036 79.9205C64.9145 81.1829 66.106 81.9985 67.44 81.9985C68.4538 81.9985 69.3595 81.5347 69.9692 80.8039C70.5828 81.5376 71.4933 81.9985 72.4991 81.9985C73.8323 81.9985 75.0237 81.1828 75.5346 79.9206C76.0457 78.6586 75.7673 77.2179 74.8255 76.2501Z" fill="#F54B5E"/>
<path d="M72.502 81.9985C73.8351 81.9985 75.0266 81.1828 75.5375 79.9206C76.0486 78.6586 75.7702 77.2179 74.8284 76.2501L71.3866 72.714C71.2369 72.5601 71.0335 72.4736 70.8215 72.4736C70.8212 72.4736 70.8204 72.4736 70.8207 72.4736C70.8211 72.4736 70.4109 72.4736 69.9938 72.4736V80.8286C70.6071 81.5477 71.5077 81.9985 72.502 81.9985Z" fill="#F3263D"/>
<path d="M65.6643 65.5019C66.9069 65.5019 67.9143 64.4946 67.9143 63.2519C67.9143 62.0093 66.9069 61.002 65.6643 61.002C64.4217 61.002 63.4143 62.0093 63.4143 63.2519C63.4143 64.4946 64.4217 65.5019 65.6643 65.5019Z" fill="#282A52"/>
<path d="M74.4646 65.5019C75.7072 65.5019 76.7145 64.4946 76.7145 63.2519C76.7145 62.0093 75.7072 61.002 74.4646 61.002C73.2219 61.002 72.2146 62.0093 72.2146 63.2519C72.2146 64.4946 73.2219 65.5019 74.4646 65.5019Z" fill="#1E203E"/>
<path d="M69.9991 55.9772C69.7369 55.9772 69.4747 55.8747 69.2746 55.6695L67.0236 53.3618C65.8165 52.1243 65.4586 50.2796 66.1116 48.6622C66.7649 47.0449 68.2904 46 69.998 46C71.7079 46 73.2334 47.0449 73.8866 48.662C74.5398 50.2796 74.1818 52.1243 72.9747 53.3617L70.7236 55.6695C70.5236 55.8746 70.2614 55.9772 69.9991 55.9772Z" fill="#F54B5E"/>
<path d="M70.7254 55.6695L72.9764 53.3617C74.1836 52.1243 74.5415 50.2796 73.8884 48.662C73.2352 47.0449 71.7097 46 69.9998 46V55.9771C70.0002 55.9771 70.0005 55.9772 70.0009 55.9772C70.2632 55.9772 70.5254 55.8746 70.7254 55.6695Z" fill="#F3263D"/>
<path d="M69.9756 74.53C69.9747 74.53 69.9738 74.53 69.9729 74.53C69.7538 74.5292 69.5442 74.4393 69.3898 74.28L65.8754 70.6527C65.5548 70.3218 65.5556 69.7873 65.8774 69.4575L67.5388 67.754C68.1968 67.08 69.0704 66.709 69.9991 66.709C70.9277 66.709 71.8014 67.08 72.4591 67.7538L74.1208 69.4575C74.276 69.6166 74.363 69.8326 74.3627 70.0575C74.3623 70.2825 74.2746 70.4982 74.1189 70.6568L70.5577 74.284C70.4029 74.4415 70.1936 74.53 69.9756 74.53Z" fill="#FEE048"/>
<path d="M74.1179 70.6568C74.2736 70.4982 74.3613 70.2826 74.3617 70.0575C74.3621 69.8325 74.275 69.6166 74.1198 69.4575L72.4581 67.7538C71.8004 67.08 70.9268 66.709 69.9981 66.709C69.9978 66.709 69.9975 66.709 69.9972 66.709V74.5288C70.207 74.5229 70.4072 74.436 70.5566 74.2839L74.1179 70.6568Z" fill="#FED601"/>
<path d="M63.5351 55.8169C62.2324 55.3872 61.293 54.1352 61.293 52.6581C61.293 51.2869 62.09 50.0637 63.3236 49.5397C64.1544 49.187 65.0636 49.2018 65.8573 49.5445C65.9103 49.2463 65.9947 48.9506 66.1111 48.6622C66.7644 47.0449 68.2899 46 69.9975 46H70C71.7099 46 73.2354 47.0449 73.8886 48.662C74.005 48.9502 74.0893 49.2457 74.1424 49.5436C74.9355 49.2018 75.8439 49.1873 76.6737 49.5396C77.9076 50.0637 78.7045 51.2869 78.7045 52.6558C78.7046 54.1366 77.7646 55.3866 76.4638 55.8163C79.7908 58.0056 81.9997 61.8319 81.9997 66.1773V79.6794C81.9997 80.2595 81.5409 80.7298 80.9751 80.7298H75.0756C74.463 81.5221 73.5243 82.0014 72.5023 82.0014H72.5005C71.4947 82.0014 70.5841 81.5406 69.9705 80.8068C69.3608 81.5376 68.4552 82.0014 67.4413 82.0014C66.4187 82.0014 65.4799 81.5222 64.8672 80.7298H59.0247C58.4588 80.7298 58 80.2595 58 79.6794V66.1773C58 61.8323 60.2085 58.0062 63.5351 55.8169Z" fill="#F3263D"/>
<path fill-rule="evenodd" clip-rule="evenodd" d="M66.6603 47.6846C67.4431 46.6364 68.6648 46 69.9975 46H70C71.3369 46 72.5611 46.6387 73.3438 47.6903C73.5621 47.9837 73.7461 48.3093 73.8886 48.662C74.005 48.9502 74.0893 49.2457 74.1424 49.5436C74.5982 49.3471 75.0921 49.2588 75.5873 49.2861C75.9537 49.3063 76.3208 49.3897 76.6737 49.5396C77.9076 50.0637 78.7045 51.2869 78.7045 52.6558C78.7045 52.9916 78.6562 53.3155 78.5663 53.6207C78.2597 54.6613 77.4696 55.4841 76.4638 55.8163C77.3655 56.4097 78.185 57.1232 78.9007 57.9348C80.8259 60.1177 81.9997 63.0096 81.9997 66.1773V79.6794C81.9997 80.2595 81.5409 80.7298 80.9751 80.7298H75.0756C74.463 81.5221 73.5243 82.0014 72.5023 82.0014H72.5005C71.9209 82.0014 71.3729 81.8484 70.8952 81.5783C70.5439 81.3797 70.2305 81.1177 69.9705 80.8068C69.7116 81.1172 69.3993 81.3794 69.048 81.5784C68.5721 81.8479 68.0246 82.0014 67.4413 82.0014C66.4187 82.0014 65.4799 81.5222 64.8672 80.7298H59.0247C58.4588 80.7298 58 80.2595 58 79.6794V66.1773C58 63.01 59.1735 60.1185 61.0981 57.9357C61.8138 57.124 62.6334 56.4103 63.5351 55.8169C62.5281 55.4847 61.7381 54.6611 61.4314 53.6221C61.3414 53.317 61.293 52.9934 61.293 52.6581C61.293 51.2869 62.09 50.0637 63.3236 49.5397C63.6755 49.3903 64.0415 49.3068 64.4068 49.2863C64.904 49.2584 65.3998 49.3469 65.8573 49.5445C65.9103 49.2463 65.9946 48.9506 66.1111 48.6622C66.2546 48.3071 66.4401 47.9795 66.6603 47.6846ZM63.9636 46.3126C65.2659 44.2864 67.5045 43 69.9975 43H70C72.4944 43 74.7337 44.286 76.0364 46.3128C76.6491 46.3748 77.2588 46.5288 77.8461 46.7781L77.8467 46.7784C80.2191 47.7862 81.7045 50.1172 81.7045 52.6557M63.9636 46.3126C63.35 46.3745 62.7393 46.5286 62.1512 46.7783L62.1507 46.7785C59.7774 47.7867 58.293 50.1183 58.293 52.6581C58.293 53.7573 58.5717 54.7995 59.0668 55.7089C56.5422 58.452 55 62.1396 55 66.1773V79.6794C55 81.8455 56.732 83.7298 59.0247 83.7298H63.6685C64.729 84.5355 66.0418 85.0014 67.4413 85.0014C68.3446 85.0014 69.2 84.8095 69.9719 84.4677C70.7453 84.8099 71.6007 85.0014 72.5005 85.0014H72.5023C73.9017 85.0014 75.2141 84.5353 76.2744 83.7298H80.9751C83.2677 83.7298 84.9997 81.8455 84.9997 79.6794V66.1773C84.9997 62.1388 83.4569 58.4506 80.9315 55.7074C81.4261 54.7983 81.7046 53.7561 81.7045 52.6558" fill="white"/>
<path d="M70.0011 55.9771H64.53C62.7389 55.9771 61.2938 54.4913 61.2938 52.6593C61.2938 51.2881 62.0909 50.065 63.3245 49.5409C64.5586 49.0169 65.9659 49.3041 66.9102 50.2721L70.7256 54.1838C71.0187 54.4842 71.1063 54.9361 70.9478 55.3286C70.7892 55.7211 70.4156 55.9771 70.0011 55.9771Z" fill="#F3263D"/>
<path d="M75.4693 55.9771H69.9982C69.5837 55.9771 69.2101 55.7211 69.0515 55.3286C68.893 54.936 68.9806 54.4842 69.2737 54.1838L73.0891 50.2721C74.0334 49.304 75.4408 49.017 76.6746 49.5408C77.9084 50.0649 78.7054 51.2882 78.7054 52.6571C78.7055 54.4948 77.2576 55.9771 75.4693 55.9771Z" fill="#F54B5E"/>
<path d="M80.9751 80.7294H59.0247C58.4588 80.7294 58 80.259 58 79.6789V66.1768C58 59.3933 63.3831 53.8745 69.9999 53.8745C76.6166 53.8745 81.9997 59.3933 81.9997 66.1768V79.6789C81.9997 80.259 81.5409 80.7294 80.9751 80.7294Z" fill="#F0F7FE"/>
<path d="M82.0008 79.6789V66.1768C82.0008 59.3933 76.6177 53.8745 70.0009 53.8745C70.0005 53.8745 70.0002 53.8745 69.9998 53.8745V80.7293H80.9761C81.542 80.7294 82.0008 80.259 82.0008 79.6789Z" fill="#E2EFFE"/>
<path d="M74.8255 76.2501L71.3837 72.714C71.234 72.5601 71.0307 72.4736 70.8186 72.4736C70.8184 72.4736 70.8175 72.4736 70.8178 72.4736H69.1205C69.1208 72.4736 69.12 72.4736 69.1197 72.4736C68.9076 72.4736 68.7043 72.5601 68.5546 72.714L65.1127 76.2501C64.1709 77.2179 63.8925 78.6586 64.4036 79.9205C64.9145 81.1829 66.106 81.9985 67.44 81.9985C68.4538 81.9985 69.3595 81.5347 69.9692 80.8039C70.5828 81.5376 71.4933 81.9985 72.4991 81.9985C73.8323 81.9985 75.0237 81.1828 75.5346 79.9206C76.0457 78.6586 75.7673 77.2179 74.8255 76.2501Z" fill="#F54B5E"/>
<path d="M72.502 81.9985C73.8351 81.9985 75.0266 81.1828 75.5375 79.9206C76.0486 78.6586 75.7702 77.2179 74.8284 76.2501L71.3866 72.714C71.2369 72.5601 71.0335 72.4736 70.8215 72.4736C70.8212 72.4736 70.8204 72.4736 70.8207 72.4736C70.8211 72.4736 70.4109 72.4736 69.9938 72.4736V80.8286C70.6071 81.5477 71.5077 81.9985 72.502 81.9985Z" fill="#F3263D"/>
<path d="M65.6643 65.5019C66.9069 65.5019 67.9143 64.4946 67.9143 63.2519C67.9143 62.0093 66.9069 61.002 65.6643 61.002C64.4217 61.002 63.4143 62.0093 63.4143 63.2519C63.4143 64.4946 64.4217 65.5019 65.6643 65.5019Z" fill="#282A52"/>
<path d="M74.4646 65.5019C75.7072 65.5019 76.7145 64.4946 76.7145 63.2519C76.7145 62.0093 75.7072 61.002 74.4646 61.002C73.2219 61.002 72.2146 62.0093 72.2146 63.2519C72.2146 64.4946 73.2219 65.5019 74.4646 65.5019Z" fill="#1E203E"/>
<path d="M69.9991 55.9772C69.7369 55.9772 69.4747 55.8747 69.2746 55.6695L67.0236 53.3618C65.8165 52.1243 65.4586 50.2796 66.1116 48.6622C66.7649 47.0449 68.2904 46 69.998 46C71.7079 46 73.2334 47.0449 73.8866 48.662C74.5398 50.2796 74.1818 52.1243 72.9747 53.3617L70.7236 55.6695C70.5236 55.8746 70.2614 55.9772 69.9991 55.9772Z" fill="#F54B5E"/>
<path d="M70.7254 55.6695L72.9764 53.3617C74.1836 52.1243 74.5415 50.2796 73.8884 48.662C73.2352 47.0449 71.7097 46 69.9998 46V55.9771C70.0002 55.9771 70.0005 55.9772 70.0009 55.9772C70.2632 55.9772 70.5254 55.8746 70.7254 55.6695Z" fill="#F3263D"/>
<path d="M69.9756 74.53C69.9747 74.53 69.9738 74.53 69.9729 74.53C69.7538 74.5292 69.5442 74.4393 69.3898 74.28L65.8754 70.6527C65.5548 70.3218 65.5556 69.7873 65.8774 69.4575L67.5388 67.754C68.1968 67.08 69.0704 66.709 69.9991 66.709C70.9277 66.709 71.8014 67.08 72.4591 67.7538L74.1208 69.4575C74.276 69.6166 74.363 69.8326 74.3627 70.0575C74.3623 70.2825 74.2746 70.4982 74.1189 70.6568L70.5577 74.284C70.4029 74.4415 70.1936 74.53 69.9756 74.53Z" fill="#FEE048"/>
<path d="M74.1179 70.6568C74.2736 70.4982 74.3613 70.2826 74.3617 70.0575C74.3621 69.8325 74.275 69.6166 74.1198 69.4575L72.4581 67.7538C71.8004 67.08 70.9268 66.709 69.9981 66.709C69.9978 66.709 69.9975 66.709 69.9972 66.709V74.5288C70.207 74.5229 70.4072 74.436 70.5566 74.2839L74.1179 70.6568Z" fill="#FED601"/>
<path d="M70.603 156.556H56.4636V150.419C56.4636 149.513 55.7295 148.779 54.824 148.779C53.9184 148.779 53.1843 149.513 53.1843 150.419V156.556H39.3623C38.4568 156.556 37.7227 157.29 37.7227 158.195V165.258C37.7227 166.164 38.4568 166.898 39.3623 166.898C40.2678 166.898 41.0019 166.164 41.0019 165.258V159.835H68.9632V165.258C68.9632 166.164 69.6973 166.898 70.6028 166.898C71.5084 166.898 72.2425 166.164 72.2425 165.258V158.195C72.2426 157.29 71.5085 156.556 70.603 156.556Z" fill="#40D98D"/>
<path d="M70.6033 156.556H56.4639V150.419C56.4639 149.513 55.7298 148.779 54.8243 148.779C54.8104 148.779 54.797 148.781 54.7832 148.781V159.835H68.9637V165.258C68.9637 166.164 69.6978 166.898 70.6033 166.898C71.5088 166.898 72.2429 166.164 72.2429 165.258V158.195C72.2429 157.29 71.5088 156.556 70.6033 156.556Z" fill="#25BB71"/>
<path d="M73.8103 135.962C73.4732 135.859 73.2352 135.553 73.226 135.201C73.0643 129.042 68.3612 123.885 62.3145 123.103C61.7778 123.033 61.2305 126.068 60.6749 126.07C60.1191 126.07 59.5718 123.036 59.0351 123.106C55.1198 123.617 51.7717 125.932 49.8517 129.19C49.6125 129.596 49.0781 129.718 48.6826 129.461C47.5058 128.698 46.1026 128.255 44.5957 128.255C40.6686 128.255 36.225 131.263 35.7664 135.101C35.7259 135.44 35.4724 135.716 35.1406 135.795C31.3007 136.712 28.4456 140.165 28.4456 144.286C28.4456 149.107 32.354 153.015 37.1754 153.015H38.931L40.7114 150.562L42.1982 153.015H72.5427C76.8035 153.015 80.3514 149.963 81.1188 145.926C81.2198 145.394 78.0449 144.846 78.0449 144.285C78.0449 143.725 81.194 143.176 81.0486 142.645C80.1822 139.48 76.9424 136.92 73.8103 135.962Z" fill="#157DF5"/>
<path d="M78.045 144.286C78.045 143.725 81.1941 143.177 81.0487 142.645C80.1822 139.48 76.9424 136.92 73.8103 135.962C73.4732 135.859 73.2353 135.553 73.2261 135.201C73.0643 129.042 68.3612 123.885 62.3146 123.103C61.7779 123.033 61.2306 126.068 60.675 126.07C60.1191 126.07 59.5718 123.036 59.0351 123.106C57.5154 123.305 56.0818 123.776 54.7834 124.467V153.015H72.5428C76.8035 153.015 80.3514 149.963 81.1188 145.926C81.2198 145.395 78.045 144.846 78.045 144.286Z" fill="#0965CD"/>
<path d="M48.2161 178.998H30.5068C29.6013 178.998 28.8672 178.263 28.8672 177.358V165.245C28.8672 164.34 29.6013 163.605 30.5068 163.605H48.2161C49.1216 163.605 49.8557 164.34 49.8557 165.245V177.358C49.8557 178.264 49.1216 178.998 48.2161 178.998ZM32.1464 175.718H46.5765V166.885H32.1464V175.718Z" fill="#282A52"/>
<path d="M50.0857 179H28.6396C27.7341 179 27 178.266 27 177.36C27 176.455 27.7341 175.721 28.6396 175.721H50.0857C50.9912 175.721 51.7253 176.455 51.7253 177.36C51.7253 178.266 50.9912 179 50.0857 179Z" fill="#1E203E"/>
<path d="M79.5675 178.998H61.6396C60.7341 178.998 60 178.263 60 177.358V165.245C60 164.34 60.7341 163.605 61.6396 163.605H79.5676C80.4731 163.605 81.2072 164.34 81.2072 165.245V177.358C81.2071 178.264 80.4731 178.998 79.5675 178.998ZM63.2793 175.718H77.928V166.885H63.2793V175.718Z" fill="#282A52"/>
<path d="M81.3259 179H59.8799C58.9743 179 58.2402 178.266 58.2402 177.36C58.2402 176.455 58.9743 175.721 59.8799 175.721H81.3259C82.2315 175.721 82.9656 176.455 82.9656 177.36C82.9656 178.266 82.2315 179 81.3259 179Z" fill="#1E203E"/>
<path d="M42.2032 148.34L45.3459 145.197C45.9862 144.557 45.9862 143.519 45.3459 142.879C44.7057 142.238 43.6675 142.238 43.0272 142.879L39.4041 146.502C39.0966 146.809 38.9238 147.226 38.9238 147.661V152.897C38.9238 152.937 38.927 152.976 38.9298 153.016H42.1971C42.1999 152.976 42.2031 152.937 42.2031 152.897V148.34H42.2032Z" fill="#E2EFFE"/>
<path d="M60.6748 134.54C61.5803 134.54 62.3144 133.806 62.3144 132.9V123.103C61.7777 123.033 61.2304 122.998 60.6748 123C60.1188 123 59.572 123.038 59.0352 123.108V132.901C59.0352 133.806 59.7693 134.54 60.6748 134.54Z" fill="#B6D7FC"/>
<path d="M81.2727 144.285C81.2727 143.725 81.1917 143.177 81.0463 142.646H69.4334L67.6937 140.906C67.0535 140.266 66.0153 140.266 65.375 140.906C64.7347 141.546 64.7348 142.584 65.375 143.225L67.5949 145.445C67.9024 145.752 68.3194 145.925 68.7542 145.925H81.1167C81.2177 145.393 81.2727 144.846 81.2727 144.285Z" fill="#B6D7FC"/>
<path d="M46.4963 145.627C48.6075 145.627 50.3189 143.916 50.3189 141.805C50.3189 139.694 48.6075 137.982 46.4963 137.982C44.3852 137.982 42.6738 139.694 42.6738 141.805C42.6738 143.916 44.3852 145.627 46.4963 145.627Z" fill="#40D98D"/>
<path d="M70.0011 151.977H64.53C62.7389 151.977 61.2938 150.491 61.2938 148.659C61.2938 147.288 62.0909 146.065 63.3245 145.541C64.5586 145.017 65.9659 145.304 66.9102 146.272L70.7256 150.184C71.0187 150.484 71.1063 150.936 70.9478 151.329C70.7892 151.721 70.4156 151.977 70.0011 151.977Z" fill="#F3263D"/>
<path d="M75.4693 151.977H69.9982C69.5837 151.977 69.2101 151.721 69.0515 151.329C68.893 150.936 68.9806 150.484 69.2737 150.184L73.0891 146.272C74.0334 145.304 75.4408 145.017 76.6746 145.541C77.9084 146.065 78.7054 147.288 78.7054 148.657C78.7055 150.495 77.2576 151.977 75.4693 151.977Z" fill="#F54B5E"/>
<path d="M80.9751 176.729H59.0247C58.4588 176.729 58 176.259 58 175.679V162.177C58 155.393 63.3831 149.875 69.9999 149.875C76.6166 149.875 81.9997 155.393 81.9997 162.177V175.679C81.9997 176.259 81.5409 176.729 80.9751 176.729Z" fill="#F0F7FE"/>
<path d="M82.0008 175.679V162.177C82.0008 155.393 76.6177 149.875 70.0009 149.875C70.0005 149.875 70.0002 149.875 69.9998 149.875V176.729H80.9761C81.542 176.729 82.0008 176.259 82.0008 175.679Z" fill="#E2EFFE"/>
<path d="M74.8255 172.25L71.3837 168.714C71.234 168.56 71.0307 168.474 70.8186 168.474C70.8184 168.474 70.8175 168.474 70.8178 168.474H69.1205C69.1208 168.474 69.12 168.474 69.1197 168.474C68.9076 168.474 68.7043 168.56 68.5546 168.714L65.1127 172.25C64.1709 173.218 63.8925 174.659 64.4036 175.921C64.9145 177.183 66.106 177.998 67.44 177.998C68.4538 177.998 69.3595 177.535 69.9692 176.804C70.5828 177.538 71.4933 177.998 72.4991 177.998C73.8323 177.998 75.0237 177.183 75.5346 175.921C76.0457 174.659 75.7673 173.218 74.8255 172.25Z" fill="#F54B5E"/>
<path d="M72.502 177.998C73.8351 177.998 75.0266 177.183 75.5375 175.921C76.0486 174.659 75.7702 173.218 74.8284 172.25L71.3866 168.714C71.2369 168.56 71.0335 168.474 70.8215 168.474C70.8212 168.474 70.8204 168.474 70.8207 168.474C70.8211 168.474 70.4109 168.474 69.9938 168.474V176.829C70.6071 177.548 71.5077 177.998 72.502 177.998Z" fill="#F3263D"/>
<path d="M65.6643 161.502C66.9069 161.502 67.9143 160.495 67.9143 159.252C67.9143 158.009 66.9069 157.002 65.6643 157.002C64.4217 157.002 63.4143 158.009 63.4143 159.252C63.4143 160.495 64.4217 161.502 65.6643 161.502Z" fill="#282A52"/>
<path d="M74.4646 161.502C75.7072 161.502 76.7145 160.495 76.7145 159.252C76.7145 158.009 75.7072 157.002 74.4646 157.002C73.2219 157.002 72.2146 158.009 72.2146 159.252C72.2146 160.495 73.2219 161.502 74.4646 161.502Z" fill="#1E203E"/>
<path d="M69.9991 151.977C69.7369 151.977 69.4747 151.875 69.2746 151.669L67.0236 149.362C65.8165 148.124 65.4586 146.28 66.1116 144.662C66.7649 143.045 68.2904 142 69.998 142C71.7079 142 73.2334 143.045 73.8866 144.662C74.5398 146.28 74.1818 148.124 72.9747 149.362L70.7236 151.669C70.5236 151.875 70.2614 151.977 69.9991 151.977Z" fill="#F54B5E"/>
<path d="M70.7254 151.669L72.9764 149.362C74.1836 148.124 74.5415 146.28 73.8884 144.662C73.2352 143.045 71.7097 142 69.9998 142V151.977C70.0002 151.977 70.0005 151.977 70.0009 151.977C70.2632 151.977 70.5254 151.875 70.7254 151.669Z" fill="#F3263D"/>
<path d="M69.9756 170.53C69.9747 170.53 69.9738 170.53 69.9729 170.53C69.7538 170.529 69.5442 170.439 69.3898 170.28L65.8754 166.653C65.5548 166.322 65.5556 165.787 65.8774 165.457L67.5388 163.754C68.1968 163.08 69.0704 162.709 69.9991 162.709C70.9277 162.709 71.8014 163.08 72.4591 163.754L74.1208 165.458C74.276 165.617 74.363 165.833 74.3627 166.058C74.3623 166.282 74.2746 166.498 74.1189 166.657L70.5577 170.284C70.4029 170.442 70.1936 170.53 69.9756 170.53Z" fill="#FEE048"/>
<path d="M74.1179 166.657C74.2736 166.498 74.3613 166.283 74.3617 166.058C74.3621 165.832 74.275 165.617 74.1198 165.458L72.4581 163.754C71.8004 163.08 70.9268 162.709 69.9981 162.709C69.9978 162.709 69.9975 162.709 69.9972 162.709V170.529C70.207 170.523 70.4072 170.436 70.5566 170.284L74.1179 166.657Z" fill="#FED601"/>
<path d="M63.5351 151.817C62.2324 151.387 61.293 150.135 61.293 148.658C61.293 147.287 62.09 146.064 63.3236 145.54C64.1544 145.187 65.0636 145.202 65.8573 145.544C65.9103 145.246 65.9947 144.951 66.1111 144.662C66.7644 143.045 68.2899 142 69.9975 142H70C71.7099 142 73.2354 143.045 73.8886 144.662C74.005 144.95 74.0893 145.246 74.1424 145.544C74.9355 145.202 75.8439 145.187 76.6737 145.54C77.9076 146.064 78.7045 147.287 78.7045 148.656C78.7046 150.137 77.7646 151.387 76.4638 151.816C79.7908 154.006 81.9997 157.832 81.9997 162.177V175.679C81.9997 176.26 81.5409 176.73 80.9751 176.73H75.0756C74.463 177.522 73.5243 178.001 72.5023 178.001H72.5005C71.4947 178.001 70.5841 177.541 69.9705 176.807C69.3608 177.538 68.4552 178.001 67.4413 178.001C66.4187 178.001 65.4799 177.522 64.8672 176.73H59.0247C58.4588 176.73 58 176.26 58 175.679V162.177C58 157.832 60.2085 154.006 63.5351 151.817Z" fill="#F3263D"/>
<path fill-rule="evenodd" clip-rule="evenodd" d="M66.6603 143.685C67.4431 142.636 68.6648 142 69.9975 142H70C71.3369 142 72.5611 142.639 73.3438 143.69C73.5621 143.984 73.7461 144.309 73.8886 144.662C74.005 144.95 74.0893 145.246 74.1424 145.544C74.5982 145.347 75.0921 145.259 75.5873 145.286C75.9537 145.306 76.3208 145.39 76.6737 145.54C77.9076 146.064 78.7045 147.287 78.7045 148.656C78.7045 148.992 78.6562 149.316 78.5663 149.621C78.2597 150.661 77.4696 151.484 76.4638 151.816C77.3655 152.41 78.185 153.123 78.9007 153.935C80.8259 156.118 81.9997 159.01 81.9997 162.177V175.679C81.9997 176.26 81.5409 176.73 80.9751 176.73H75.0756C74.463 177.522 73.5243 178.001 72.5023 178.001H72.5005C71.9209 178.001 71.3729 177.848 70.8952 177.578C70.5439 177.38 70.2305 177.118 69.9705 176.807C69.7116 177.117 69.3993 177.379 69.048 177.578C68.5721 177.848 68.0246 178.001 67.4413 178.001C66.4187 178.001 65.4799 177.522 64.8672 176.73H59.0247C58.4588 176.73 58 176.26 58 175.679V162.177C58 159.01 59.1735 156.119 61.0981 153.936C61.8138 153.124 62.6334 152.41 63.5351 151.817C62.5281 151.485 61.7381 150.661 61.4314 149.622C61.3414 149.317 61.293 148.993 61.293 148.658C61.293 147.287 62.09 146.064 63.3236 145.54C63.6755 145.39 64.0415 145.307 64.4068 145.286C64.904 145.258 65.3998 145.347 65.8573 145.544C65.9103 145.246 65.9946 144.951 66.1111 144.662C66.2546 144.307 66.4401 143.98 66.6603 143.685ZM63.9636 142.313C65.2659 140.286 67.5045 139 69.9975 139H70C72.4944 139 74.7337 140.286 76.0364 142.313C76.6491 142.375 77.2588 142.529 77.8461 142.778L77.8467 142.778C80.2191 143.786 81.7045 146.117 81.7045 148.656M63.9636 142.313C63.35 142.374 62.7393 142.529 62.1512 142.778L62.1507 142.778C59.7774 143.787 58.293 146.118 58.293 148.658C58.293 149.757 58.5717 150.8 59.0668 151.709C56.5422 154.452 55 158.14 55 162.177V175.679C55 177.846 56.732 179.73 59.0247 179.73H63.6685C64.729 180.535 66.0418 181.001 67.4413 181.001C68.3446 181.001 69.2 180.809 69.9719 180.468C70.7453 180.81 71.6007 181.001 72.5005 181.001H72.5023C73.9017 181.001 75.2141 180.535 76.2744 179.73H80.9751C83.2677 179.73 84.9997 177.846 84.9997 175.679V162.177C84.9997 158.139 83.4569 154.451 80.9315 151.707C81.4261 150.798 81.7046 149.756 81.7045 148.656" fill="white"/>
<path d="M70.0011 151.977H64.53C62.7389 151.977 61.2938 150.491 61.2938 148.659C61.2938 147.288 62.0909 146.065 63.3245 145.541C64.5586 145.017 65.9659 145.304 66.9102 146.272L70.7256 150.184C71.0187 150.484 71.1063 150.936 70.9478 151.329C70.7892 151.721 70.4156 151.977 70.0011 151.977Z" fill="#F3263D"/>
<path d="M75.4693 151.977H69.9982C69.5837 151.977 69.2101 151.721 69.0515 151.329C68.893 150.936 68.9806 150.484 69.2737 150.184L73.0891 146.272C74.0334 145.304 75.4408 145.017 76.6746 145.541C77.9084 146.065 78.7054 147.288 78.7054 148.657C78.7055 150.495 77.2576 151.977 75.4693 151.977Z" fill="#F54B5E"/>
<path d="M80.9751 176.729H59.0247C58.4588 176.729 58 176.259 58 175.679V162.177C58 155.393 63.3831 149.875 69.9999 149.875C76.6166 149.875 81.9997 155.393 81.9997 162.177V175.679C81.9997 176.259 81.5409 176.729 80.9751 176.729Z" fill="#F0F7FE"/>
<path d="M82.0008 175.679V162.177C82.0008 155.393 76.6177 149.875 70.0009 149.875C70.0005 149.875 70.0002 149.875 69.9998 149.875V176.729H80.9761C81.542 176.729 82.0008 176.259 82.0008 175.679Z" fill="#E2EFFE"/>
<path d="M74.8255 172.25L71.3837 168.714C71.234 168.56 71.0307 168.474 70.8186 168.474C70.8184 168.474 70.8175 168.474 70.8178 168.474H69.1205C69.1208 168.474 69.12 168.474 69.1197 168.474C68.9076 168.474 68.7043 168.56 68.5546 168.714L65.1127 172.25C64.1709 173.218 63.8925 174.659 64.4036 175.921C64.9145 177.183 66.106 177.998 67.44 177.998C68.4538 177.998 69.3595 177.535 69.9692 176.804C70.5828 177.538 71.4933 177.998 72.4991 177.998C73.8323 177.998 75.0237 177.183 75.5346 175.921C76.0457 174.659 75.7673 173.218 74.8255 172.25Z" fill="#F54B5E"/>
<path d="M72.502 177.998C73.8351 177.998 75.0266 177.183 75.5375 175.921C76.0486 174.659 75.7702 173.218 74.8284 172.25L71.3866 168.714C71.2369 168.56 71.0335 168.474 70.8215 168.474C70.8212 168.474 70.8204 168.474 70.8207 168.474C70.8211 168.474 70.4109 168.474 69.9938 168.474V176.829C70.6071 177.548 71.5077 177.998 72.502 177.998Z" fill="#F3263D"/>
<path d="M65.6643 161.502C66.9069 161.502 67.9143 160.495 67.9143 159.252C67.9143 158.009 66.9069 157.002 65.6643 157.002C64.4217 157.002 63.4143 158.009 63.4143 159.252C63.4143 160.495 64.4217 161.502 65.6643 161.502Z" fill="#282A52"/>
<path d="M74.4646 161.502C75.7072 161.502 76.7145 160.495 76.7145 159.252C76.7145 158.009 75.7072 157.002 74.4646 157.002C73.2219 157.002 72.2146 158.009 72.2146 159.252C72.2146 160.495 73.2219 161.502 74.4646 161.502Z" fill="#1E203E"/>
<path d="M69.9991 151.977C69.7369 151.977 69.4747 151.875 69.2746 151.669L67.0236 149.362C65.8165 148.124 65.4586 146.28 66.1116 144.662C66.7649 143.045 68.2904 142 69.998 142C71.7079 142 73.2334 143.045 73.8866 144.662C74.5398 146.28 74.1818 148.124 72.9747 149.362L70.7236 151.669C70.5236 151.875 70.2614 151.977 69.9991 151.977Z" fill="#F54B5E"/>
<path d="M70.7254 151.669L72.9764 149.362C74.1836 148.124 74.5415 146.28 73.8884 144.662C73.2352 143.045 71.7097 142 69.9998 142V151.977C70.0002 151.977 70.0005 151.977 70.0009 151.977C70.2632 151.977 70.5254 151.875 70.7254 151.669Z" fill="#F3263D"/>
<path d="M69.9756 170.53C69.9747 170.53 69.9738 170.53 69.9729 170.53C69.7538 170.529 69.5442 170.439 69.3898 170.28L65.8754 166.653C65.5548 166.322 65.5556 165.787 65.8774 165.457L67.5388 163.754C68.1968 163.08 69.0704 162.709 69.9991 162.709C70.9277 162.709 71.8014 163.08 72.4591 163.754L74.1208 165.458C74.276 165.617 74.363 165.833 74.3627 166.058C74.3623 166.282 74.2746 166.498 74.1189 166.657L70.5577 170.284C70.4029 170.442 70.1936 170.53 69.9756 170.53Z" fill="#FEE048"/>
<path d="M74.1179 166.657C74.2736 166.498 74.3613 166.283 74.3617 166.058C74.3621 165.832 74.275 165.617 74.1198 165.458L72.4581 163.754C71.8004 163.08 70.9268 162.709 69.9981 162.709C69.9978 162.709 69.9975 162.709 69.9972 162.709V170.529C70.207 170.523 70.4072 170.436 70.5566 170.284L74.1179 166.657Z" fill="#FED601"/>
<defs>
<filter id="filter0_d_16529_76345" x="10" y="9" width="96" height="96" filterUnits="userSpaceOnUse" color-interpolation-filters="sRGB">
<feFlood flood-opacity="0" result="BackgroundImageFix"/>
<feColorMatrix in="SourceAlpha" type="matrix" values="0 0 0 0 0 0 0 0 0 0 0 0 0 0 0 0 0 0 127 0" result="hardAlpha"/>
<feOffset dx="2" dy="1"/>
<feGaussianBlur stdDeviation="4"/>
<feColorMatrix type="matrix" values="0 0 0 0 0.0392157 0 0 0 0 0.0392157 0 0 0 0 0.0627451 0 0 0 0.08 0"/>
<feBlend mode="normal" in2="BackgroundImageFix" result="effect1_dropShadow_16529_76345"/>
<feBlend mode="normal" in="SourceGraphic" in2="effect1_dropShadow_16529_76345" result="shape"/>
</filter>
</defs>
</svg>
