<svg width="112" height="208" viewBox="0 0 112 208" fill="none" xmlns="http://www.w3.org/2000/svg">
<rect x="0.5" y="0.5" width="111" height="207" rx="4.5" stroke="#9747FF" stroke-dasharray="10 5"/>
<g filter="url(#filter0_d_16529_76994)">
<rect x="16" y="16" width="80" height="80" rx="16" fill="white"/>
</g>
<path d="M70.603 60.5558H56.4636V54.4189C56.4636 53.5134 55.7295 52.7793 54.824 52.7793C53.9184 52.7793 53.1843 53.5134 53.1843 54.4189V60.5558H39.3623C38.4568 60.5558 37.7227 61.2899 37.7227 62.1954V69.2584C37.7227 70.1639 38.4568 70.898 39.3623 70.898C40.2678 70.898 41.0019 70.1639 41.0019 69.2584V63.8351H68.9632V69.2584C68.9632 70.1639 69.6973 70.898 70.6028 70.898C71.5084 70.898 72.2425 70.1639 72.2425 69.2584V62.1954C72.2426 61.2899 71.5085 60.5558 70.603 60.5558Z" fill="#40D98D"/>
<path d="M70.6033 60.5558H56.4639V54.4189C56.4639 53.5134 55.7298 52.7793 54.8243 52.7793C54.8104 52.7793 54.797 52.781 54.7832 52.7814V63.8351H68.9637V69.2584C68.9637 70.1639 69.6978 70.898 70.6033 70.898C71.5088 70.898 72.2429 70.1639 72.2429 69.2584V62.1954C72.2429 61.2899 71.5088 60.5558 70.6033 60.5558Z" fill="#25BB71"/>
<path d="M73.8103 39.9622C73.4732 39.8591 73.2352 39.5533 73.226 39.2009C73.0643 33.042 68.3612 27.8848 62.3145 27.1027C61.7778 27.0333 61.2305 30.0677 60.6749 30.0696C60.1191 30.0696 59.5718 27.0363 59.0351 27.1063C55.1198 27.6171 51.7717 29.9322 49.8517 33.1896C49.6125 33.5955 49.0781 33.7176 48.6826 33.4613C47.5058 32.6983 46.1026 32.255 44.5957 32.255C40.6686 32.255 36.225 35.2633 35.7664 39.1009C35.7259 39.4396 35.4724 39.7156 35.1406 39.7949C31.3007 40.7116 28.4456 44.1649 28.4456 48.2856C28.4456 53.107 32.354 57.0154 37.1754 57.0154H38.931L40.7114 54.5616L42.1982 57.0154H72.5427C76.8035 57.0154 80.3514 53.963 81.1188 49.9256C81.2198 49.3943 78.0449 48.8461 78.0449 48.2855C78.0449 47.7249 81.194 47.1765 81.0486 46.6452C80.1822 43.4796 76.9424 40.9199 73.8103 39.9622Z" fill="#157DF5"/>
<path d="M78.045 48.2857C78.045 47.725 81.1941 47.1767 81.0487 46.6454C80.1822 43.4796 76.9424 40.9199 73.8103 39.9622C73.4732 39.8591 73.2353 39.5533 73.2261 39.2009C73.0643 33.042 68.3612 27.8848 62.3146 27.1027C61.7779 27.0333 61.2306 30.0677 60.675 30.0696C60.1191 30.0696 59.5718 27.0363 59.0351 27.1063C57.5154 27.3046 56.0818 27.7757 54.7834 28.4672V57.0154H72.5428C76.8035 57.0154 80.3514 53.963 81.1188 49.9256C81.2198 49.3945 78.045 48.8463 78.045 48.2857Z" fill="#0965CD"/>
<path d="M48.2161 82.9975H30.5068C29.6013 82.9975 28.8672 82.2634 28.8672 81.3579V69.2451C28.8672 68.3396 29.6013 67.6055 30.5068 67.6055H48.2161C49.1216 67.6055 49.8557 68.3396 49.8557 69.2451V81.3579C49.8557 82.2635 49.1216 82.9975 48.2161 82.9975ZM32.1464 79.7183H46.5765V70.8847H32.1464V79.7183Z" fill="#282A52"/>
<path d="M50.0857 83H28.6396C27.7341 83 27 82.2658 27 81.3603C27 80.4548 27.7341 79.7207 28.6396 79.7207H50.0857C50.9912 79.7207 51.7253 80.4548 51.7253 81.3603C51.7253 82.2658 50.9912 83 50.0857 83Z" fill="#1E203E"/>
<path d="M79.5675 82.9975H61.6396C60.7341 82.9975 60 82.2634 60 81.3579V69.2451C60 68.3396 60.7341 67.6055 61.6396 67.6055H79.5676C80.4731 67.6055 81.2072 68.3396 81.2072 69.2451V81.3579C81.2071 82.2635 80.4731 82.9975 79.5675 82.9975ZM63.2793 79.7183H77.928V70.8847H63.2793V79.7183Z" fill="#282A52"/>
<path d="M81.3259 83H59.8799C58.9743 83 58.2402 82.2658 58.2402 81.3603C58.2402 80.4548 58.9743 79.7207 59.8799 79.7207H81.3259C82.2315 79.7207 82.9656 80.4548 82.9656 81.3603C82.9656 82.2658 82.2315 83 81.3259 83Z" fill="#1E203E"/>
<path d="M42.2032 52.3402L45.3459 49.1974C45.9862 48.5571 45.9862 47.519 45.3459 46.8787C44.7057 46.2384 43.6675 46.2384 43.0272 46.8787L39.4041 50.5017C39.0966 50.8092 38.9238 51.2262 38.9238 51.661V56.8967C38.9238 56.937 38.927 56.9765 38.9298 57.0161H42.1971C42.1999 56.9765 42.2031 56.937 42.2031 56.8967V52.3402H42.2032Z" fill="#E2EFFE"/>
<path d="M60.6748 38.5401C61.5803 38.5401 62.3144 37.806 62.3144 36.9005V27.1028C61.7777 27.0334 61.2304 26.9982 60.6748 27.0001C60.1188 27.0001 59.572 27.0381 59.0352 27.1082V36.9006C59.0352 37.806 59.7693 38.5401 60.6748 38.5401Z" fill="#B6D7FC"/>
<path d="M81.2727 48.2852C81.2727 47.7246 81.1917 47.1768 81.0463 46.6456H69.4334L67.6937 44.9059C67.0535 44.2657 66.0153 44.2657 65.375 44.9059C64.7347 45.5463 64.7348 46.5844 65.375 47.2247L67.5949 49.4445C67.9024 49.752 68.3194 49.9247 68.7542 49.9247H81.1167C81.2177 49.3935 81.2727 48.8459 81.2727 48.2852Z" fill="#B6D7FC"/>
<path d="M46.4963 49.6275C48.6075 49.6275 50.3189 47.9161 50.3189 45.8049C50.3189 43.6938 48.6075 41.9824 46.4963 41.9824C44.3852 41.9824 42.6738 43.6938 42.6738 45.8049C42.6738 47.9161 44.3852 49.6275 46.4963 49.6275Z" fill="#40D98D"/>
<path fill-rule="evenodd" clip-rule="evenodd" d="M65.0724 49.7031H62.955C62.6732 49.5755 62.399 49.4147 62.1558 49.1863C61.846 48.8952 61.4083 48.3348 61.3971 47.0184L61.3799 44.9831C61.3707 43.8852 60.478 43 59.38 43H55.509C54.7285 43 53.9787 43.3042 53.4188 43.8479L53.1103 44.1476C52.9466 44.3067 51.6419 45.601 50.7022 47.647C50.044 49.08 49.7042 50.5686 49.6974 52.0526H45C43.8954 52.0526 43 52.948 43 54.0526V57.722C43 61.6776 45.7894 64.9824 49.5001 65.7941L51.1065 71.5013C50.6298 72.6155 50.3635 73.8194 50.3329 75.0585C50.2682 77.6905 51.2531 80.1952 53.094 82.0773C54.9335 83.9584 57.4138 85.0018 60.045 85.0018C61.1455 85.0018 62.2346 84.818 63.2745 84.451C63.5037 84.3706 63.7489 84.3286 63.9973 84.3281H64.0027C64.2511 84.3286 64.4963 84.3706 64.7255 84.451C65.7654 84.818 66.8545 85.0018 67.955 85.0018C70.5862 85.0018 73.0665 83.9584 74.906 82.0773C76.7469 80.1952 77.7318 77.6905 77.6671 75.0585C77.6365 73.8194 77.3702 72.6155 76.8935 71.5013L78.4999 65.794C82.2104 64.9824 85 61.6777 85 57.722V54.0526C85 52.948 84.1046 52.0526 83 52.0526H78.33C78.3231 50.5686 77.9834 49.08 77.3251 47.647C76.3855 45.601 75.0807 44.3067 74.9171 44.1476L74.6085 43.8479C74.0486 43.3042 73.2989 43 72.5184 43H68.6474C67.5494 43 66.6567 43.8852 66.6474 44.9831L66.6303 47.0184C66.619 48.3348 66.1813 48.8952 65.8715 49.1863C65.6284 49.4147 65.3542 49.5755 65.0724 49.7031ZM52.7153 51.595C54.4486 50.3715 56.5291 49.7031 58.7126 49.7031H58.9221C58.6084 48.9924 58.4063 48.119 58.3972 47.0437C58.3923 46.4659 57.9225 46 57.3447 46H55.9375C55.6627 46 55.3987 46.1071 55.2016 46.2986C55.1589 46.34 54.1476 47.3332 53.4285 48.899C53.0176 49.7935 52.7799 50.6979 52.7153 51.595ZM66.9902 81.9331C67.3082 81.9788 67.6304 82.0018 67.955 82.0018C69.7796 82.0018 71.4861 81.2838 72.7608 79.98C73.6903 79.03 74.3021 77.8575 74.5479 76.5853L71.8917 75.8402H66.9902V81.9331ZM66.9902 72.8402H72.3044L73.3197 73.125L73.6879 71.8167C73.4116 71.3666 73.08 70.946 72.697 70.5639C71.468 69.3381 69.8415 68.6405 68.1182 68.5999C68.064 68.5985 68.0101 68.5977 67.955 68.5977C67.6304 68.5977 67.3083 68.6207 66.9902 68.6666V72.8402ZM64.0028 66.2596C64.2642 66.259 64.5292 66.2158 64.7947 66.1244L64.7963 66.1239C65.8145 65.7743 66.8777 65.5977 67.955 65.5977C68.0392 65.5977 68.118 65.5989 68.1916 65.6007C70.6245 65.6588 72.924 66.6234 74.6767 68.3041L76.174 62.985H76.7266C79.5226 62.985 81.8182 60.8014 81.9897 58.0526C81.9965 57.9432 82 57.833 82 57.722V57.0526C82 55.948 81.1046 55.0526 80 55.0526H77.8783C77.7185 55.5649 77.516 56.0715 77.27 56.5698L75.9441 59.256L72.7533 57.6869L68.3563 57.1096C67.9092 57.3108 67.5051 57.4624 67.1745 57.5779L64.3471 58.5662L64.0137 57.617L63.6802 58.5662L60.8529 57.5779C60.5223 57.4624 60.1182 57.3108 59.6711 57.1096L55.274 57.6869L52.0832 59.256L50.7573 56.5698C50.5114 56.0715 50.3088 55.5649 50.149 55.0526H48C46.8954 55.0526 46 55.948 46 57.0526V57.722C46 57.833 46.0035 57.9432 46.0103 58.0526C46.1818 60.8014 48.4771 62.985 51.2734 62.985H51.826L53.3232 68.3042C55.0759 66.6234 57.3754 65.6588 59.8084 65.6007C59.882 65.5989 59.9608 65.5977 60.045 65.5977C61.1223 65.5977 62.1855 65.7743 63.2037 66.1239L63.2053 66.1244C63.4708 66.2158 63.7358 66.259 63.9972 66.2596H64.0028ZM61.0098 68.6666C60.6917 68.6207 60.3696 68.5977 60.045 68.5977C59.9899 68.5977 59.936 68.5985 59.8818 68.5999C58.1585 68.6405 56.532 69.3381 55.303 70.5639C54.9199 70.9461 54.5882 71.3668 54.3119 71.8169L54.6801 73.1251L55.6953 72.8402H61.0098V68.6666ZM53.4521 76.5854C53.698 77.8576 54.3098 79.0301 55.2392 79.98C56.5139 81.2838 58.2204 82.0018 60.045 82.0018C60.3696 82.0018 60.6918 81.9788 61.0098 81.9331V75.8402H56.1082L53.4521 76.5854ZM62.2874 52.7031H58.7126C56.6481 52.7031 54.7303 53.5338 53.3365 55.0074C53.3688 55.0789 53.4024 55.1501 53.4372 55.2211L53.4476 55.2419L54.0302 54.9554L54.3936 54.7767L60.1885 54.0159C60.7801 54.3458 61.3415 54.569 61.7955 54.7294L61.8427 54.7459L62.4238 53.0915L62.2874 52.7031ZM74.6819 55.027C74.6524 55.0919 74.6218 55.1566 74.5902 55.2211L74.5797 55.2419L73.9971 54.9554L73.6338 54.7767L67.8389 54.0159C67.2472 54.3458 66.6859 54.569 66.2318 54.7294L66.1846 54.7459L65.6035 53.0915L65.74 52.7031H69.2874C71.361 52.7031 73.2866 53.5411 74.6819 55.027ZM75.3135 51.6154C73.5745 50.379 71.483 49.7031 69.2874 49.7031H69.1052C69.4189 48.9924 69.621 48.119 69.6301 47.0437C69.635 46.4659 70.1048 46 70.6827 46H72.0899C72.3647 46 72.6286 46.1071 72.8258 46.2986C72.8684 46.34 73.8798 47.3332 74.5989 48.899C75.0129 49.8002 75.2511 50.7116 75.3135 51.6154Z" fill="white"/>
<path d="M74.606 48.8883C73.8828 47.3135 72.8654 46.3146 72.8225 46.2729C72.6244 46.0804 72.3591 45.9727 72.0828 45.9727H70.6674C70.0862 45.9727 69.6137 46.4412 69.6088 47.0223C69.5723 51.3252 66.463 52.4133 65.4414 52.7708L65.7924 53.7699C65.9863 54.3218 66.5942 54.6199 67.1267 54.3776C67.2183 54.3359 67.3115 54.2919 67.406 54.2452C67.6699 54.1148 67.9649 54.0552 68.2567 54.0936L73.3066 54.7566C73.5242 54.7851 73.7355 54.8491 73.9324 54.9459L74.5867 55.2677C75.5864 53.2429 75.593 51.0369 74.606 48.8883Z" fill="#FF7E75"/>
<path d="M58.4 47.0437C58.3951 46.4658 57.9252 46 57.3473 46H55.8979C55.6206 46 55.354 46.1069 55.1535 46.2986C55.1102 46.34 54.0828 47.3332 53.3522 48.899C52.3552 51.0353 52.3619 53.2287 53.3715 55.242L54.3327 54.7767L60.2198 54.0159C60.8419 54.3573 61.4309 54.5844 61.9004 54.7459L62.6094 52.7593C61.5774 52.4039 58.4369 51.3221 58.4 47.0437Z" fill="#FFA099"/>
<path d="M80.0098 55.0516C81.1143 55.0516 82.0098 55.947 82.0098 57.0516V57.721C82.0098 60.6233 79.6436 62.984 76.7364 62.984H76.1838L73.3297 73.1241L72.3142 72.8393H55.7051L54.6898 73.1241L51.9855 63.5159C51.8969 63.2013 51.61 62.984 51.2831 62.984C48.3757 62.984 46.0098 60.6233 46.0098 57.721V57.0516C46.0098 55.947 46.9052 55.0516 48.0098 55.0516H53.3039C54.7011 53.5497 56.6369 52.7021 58.7224 52.7021H69.2972C71.3826 52.7021 73.3184 53.5497 74.7156 55.0516H80.0098Z" fill="#FFDECC"/>
<path d="M80.0091 55.0516C81.1136 55.0516 82.0091 55.947 82.0091 57.0516V57.721C82.0091 60.6233 79.6429 62.984 76.7357 62.984C76.4089 62.984 76.1219 63.2013 76.0334 63.5159L73.329 73.1241L72.3135 72.8393H64.0195V52.7021H69.2965C71.382 52.7021 73.3177 53.5497 74.7149 55.0516H80.0091Z" fill="#FFCFB5"/>
<path d="M72.7699 79.9789C71.4952 81.2827 69.7887 82.0006 67.9641 82.0006C67.1985 82.0006 66.4467 81.8729 65.7311 81.6202C65.1791 81.4261 64.599 81.3283 64.0188 81.3269C63.4318 81.3264 62.8448 81.4239 62.2859 81.6202C61.5701 81.8729 60.8183 82.0006 60.0527 82.0006C58.2281 82.0006 56.5216 81.2827 55.2468 79.9789C53.9721 78.6759 53.2951 76.9543 53.34 75.1314C53.3821 73.4113 54.0816 71.7889 55.3107 70.5631C56.54 69.337 58.1662 68.6396 59.8895 68.5987C60.6939 68.5792 61.4834 68.7011 62.2372 68.9601C62.8203 69.1601 63.4192 69.2598 64.0191 69.2584C64.6116 69.2571 65.2039 69.1582 65.7796 68.9601C66.4827 68.7187 67.2169 68.5968 67.9644 68.5968C68.0191 68.5968 68.0734 68.5973 68.1273 68.5987C69.8509 68.6396 71.477 69.337 72.7061 70.5631C73.9351 71.7889 74.6347 73.4113 74.6771 75.1314C74.7219 76.9543 74.0446 78.6759 72.7699 79.9789Z" fill="#FFA099"/>
<path d="M72.7706 79.9791C71.4959 81.2829 69.7894 82.0008 67.9648 82.0008C67.1992 82.0008 66.4473 81.8731 65.7318 81.6204C65.1798 81.4262 64.5997 81.3285 64.0195 81.3271V69.2586C64.6123 69.2572 65.2045 69.1584 65.7803 68.9603C66.4834 68.7189 67.2174 68.5967 67.9648 68.5967C68.0198 68.5967 68.0738 68.5975 68.128 68.5989C69.8513 68.6395 71.4777 69.3372 72.7068 70.563C73.9358 71.789 74.6354 73.4114 74.6777 75.1313C74.7226 76.9545 74.0453 78.6761 72.7706 79.9791Z" fill="#FF7E75"/>
<path d="M67.0977 62.0296C67.0977 61.215 67.7692 60.5547 68.5977 60.5547C69.4261 60.5547 70.0977 61.215 70.0977 62.0296V62.0797C70.0977 62.8943 69.4261 63.5547 68.5977 63.5547C67.7692 63.5547 67.0977 62.8943 67.0977 62.0797V62.0296Z" fill="#1E203E"/>
<path d="M57.9727 62.0547C57.9727 61.2263 58.6442 60.5547 59.4727 60.5547C60.3011 60.5547 60.9727 61.2263 60.9727 62.0547C60.9727 62.8831 60.3011 63.5547 59.4727 63.5547C58.6442 63.5547 57.9727 62.8831 57.9727 62.0547Z" fill="#282A52"/>
<path d="M65.9102 76.8633C65.9102 76.0349 66.5817 75.3633 67.4102 75.3633C68.2386 75.3633 68.9102 76.0349 68.9102 76.8633V77.7522C68.9102 78.5806 68.2386 79.2522 67.4102 79.2522C66.5817 79.2522 65.9102 78.5806 65.9102 77.7522V76.8633Z" fill="#1E203E"/>
<path d="M59.1094 76.8633C59.1094 76.0349 59.7809 75.3633 60.6094 75.3633C61.4378 75.3633 62.1094 76.0349 62.1094 76.8633V77.7522C62.1094 78.5806 61.4378 79.2522 60.6094 79.2522C59.7809 79.2522 59.1094 78.5806 59.1094 77.7522V76.8633Z" fill="#282A52"/>
<path d="M70.603 156.556H56.4636V150.419C56.4636 149.513 55.7295 148.779 54.824 148.779C53.9184 148.779 53.1843 149.513 53.1843 150.419V156.556H39.3623C38.4568 156.556 37.7227 157.29 37.7227 158.195V165.258C37.7227 166.164 38.4568 166.898 39.3623 166.898C40.2678 166.898 41.0019 166.164 41.0019 165.258V159.835H68.9632V165.258C68.9632 166.164 69.6973 166.898 70.6028 166.898C71.5084 166.898 72.2425 166.164 72.2425 165.258V158.195C72.2426 157.29 71.5085 156.556 70.603 156.556Z" fill="#40D98D"/>
<path d="M70.6033 156.556H56.4639V150.419C56.4639 149.513 55.7298 148.779 54.8243 148.779C54.8104 148.779 54.797 148.781 54.7832 148.781V159.835H68.9637V165.258C68.9637 166.164 69.6978 166.898 70.6033 166.898C71.5088 166.898 72.2429 166.164 72.2429 165.258V158.195C72.2429 157.29 71.5088 156.556 70.6033 156.556Z" fill="#25BB71"/>
<path d="M73.8103 135.962C73.4732 135.859 73.2352 135.553 73.226 135.201C73.0643 129.042 68.3612 123.885 62.3145 123.103C61.7778 123.033 61.2305 126.068 60.6749 126.07C60.1191 126.07 59.5718 123.036 59.0351 123.106C55.1198 123.617 51.7717 125.932 49.8517 129.19C49.6125 129.596 49.0781 129.718 48.6826 129.461C47.5058 128.698 46.1026 128.255 44.5957 128.255C40.6686 128.255 36.225 131.263 35.7664 135.101C35.7259 135.44 35.4724 135.716 35.1406 135.795C31.3007 136.712 28.4456 140.165 28.4456 144.286C28.4456 149.107 32.354 153.015 37.1754 153.015H38.931L40.7114 150.562L42.1982 153.015H72.5427C76.8035 153.015 80.3514 149.963 81.1188 145.926C81.2198 145.394 78.0449 144.846 78.0449 144.285C78.0449 143.725 81.194 143.176 81.0486 142.645C80.1822 139.48 76.9424 136.92 73.8103 135.962Z" fill="#157DF5"/>
<path d="M78.045 144.286C78.045 143.725 81.1941 143.177 81.0487 142.645C80.1822 139.48 76.9424 136.92 73.8103 135.962C73.4732 135.859 73.2353 135.553 73.2261 135.201C73.0643 129.042 68.3612 123.885 62.3146 123.103C61.7779 123.033 61.2306 126.068 60.675 126.07C60.1191 126.07 59.5718 123.036 59.0351 123.106C57.5154 123.305 56.0818 123.776 54.7834 124.467V153.015H72.5428C76.8035 153.015 80.3514 149.963 81.1188 145.926C81.2198 145.395 78.045 144.846 78.045 144.286Z" fill="#0965CD"/>
<path d="M48.2161 178.998H30.5068C29.6013 178.998 28.8672 178.263 28.8672 177.358V165.245C28.8672 164.34 29.6013 163.605 30.5068 163.605H48.2161C49.1216 163.605 49.8557 164.34 49.8557 165.245V177.358C49.8557 178.264 49.1216 178.998 48.2161 178.998ZM32.1464 175.718H46.5765V166.885H32.1464V175.718Z" fill="#282A52"/>
<path d="M50.0857 179H28.6396C27.7341 179 27 178.266 27 177.36C27 176.455 27.7341 175.721 28.6396 175.721H50.0857C50.9912 175.721 51.7253 176.455 51.7253 177.36C51.7253 178.266 50.9912 179 50.0857 179Z" fill="#1E203E"/>
<path d="M79.5675 178.998H61.6396C60.7341 178.998 60 178.263 60 177.358V165.245C60 164.34 60.7341 163.605 61.6396 163.605H79.5676C80.4731 163.605 81.2072 164.34 81.2072 165.245V177.358C81.2071 178.264 80.4731 178.998 79.5675 178.998ZM63.2793 175.718H77.928V166.885H63.2793V175.718Z" fill="#282A52"/>
<path d="M81.3259 179H59.8799C58.9743 179 58.2402 178.266 58.2402 177.36C58.2402 176.455 58.9743 175.721 59.8799 175.721H81.3259C82.2315 175.721 82.9656 176.455 82.9656 177.36C82.9656 178.266 82.2315 179 81.3259 179Z" fill="#1E203E"/>
<path d="M42.2032 148.34L45.3459 145.197C45.9862 144.557 45.9862 143.519 45.3459 142.879C44.7057 142.238 43.6675 142.238 43.0272 142.879L39.4041 146.502C39.0966 146.809 38.9238 147.226 38.9238 147.661V152.897C38.9238 152.937 38.927 152.976 38.9298 153.016H42.1971C42.1999 152.976 42.2031 152.937 42.2031 152.897V148.34H42.2032Z" fill="#E2EFFE"/>
<path d="M60.6748 134.54C61.5803 134.54 62.3144 133.806 62.3144 132.9V123.103C61.7777 123.033 61.2304 122.998 60.6748 123C60.1188 123 59.572 123.038 59.0352 123.108V132.901C59.0352 133.806 59.7693 134.54 60.6748 134.54Z" fill="#B6D7FC"/>
<path d="M81.2727 144.285C81.2727 143.725 81.1917 143.177 81.0463 142.646H69.4334L67.6937 140.906C67.0535 140.266 66.0153 140.266 65.375 140.906C64.7347 141.546 64.7348 142.584 65.375 143.225L67.5949 145.445C67.9024 145.752 68.3194 145.925 68.7542 145.925H81.1167C81.2177 145.393 81.2727 144.846 81.2727 144.285Z" fill="#B6D7FC"/>
<path d="M46.4963 145.627C48.6075 145.627 50.3189 143.916 50.3189 141.805C50.3189 139.694 48.6075 137.982 46.4963 137.982C44.3852 137.982 42.6738 139.694 42.6738 141.805C42.6738 143.916 44.3852 145.627 46.4963 145.627Z" fill="#40D98D"/>
<path fill-rule="evenodd" clip-rule="evenodd" d="M65.0724 145.703H62.955C62.6732 145.576 62.399 145.415 62.1558 145.186C61.846 144.895 61.4083 144.335 61.3971 143.018L61.3799 140.983C61.3707 139.885 60.478 139 59.38 139H55.509C54.7285 139 53.9787 139.304 53.4188 139.848L53.1103 140.148C52.9466 140.307 51.6419 141.601 50.7022 143.647C50.044 145.08 49.7042 146.569 49.6974 148.053H45C43.8954 148.053 43 148.948 43 150.053V153.722C43 157.678 45.7894 160.982 49.5001 161.794L51.1065 167.501C50.6298 168.615 50.3635 169.819 50.3329 171.059C50.2682 173.691 51.2531 176.195 53.094 178.077C54.9335 179.958 57.4138 181.002 60.045 181.002C61.1455 181.002 62.2346 180.818 63.2745 180.451C63.5037 180.371 63.7489 180.329 63.9973 180.328H64.0027C64.2511 180.329 64.4963 180.371 64.7255 180.451C65.7654 180.818 66.8545 181.002 67.955 181.002C70.5862 181.002 73.0665 179.958 74.906 178.077C76.7469 176.195 77.7318 173.691 77.6671 171.059C77.6365 169.819 77.3702 168.615 76.8935 167.501L78.4999 161.794C82.2104 160.982 85 157.678 85 153.722V150.053C85 148.948 84.1046 148.053 83 148.053H78.33C78.3231 146.569 77.9834 145.08 77.3251 143.647C76.3855 141.601 75.0807 140.307 74.9171 140.148L74.6085 139.848C74.0486 139.304 73.2989 139 72.5184 139H68.6474C67.5494 139 66.6567 139.885 66.6474 140.983L66.6303 143.018C66.619 144.335 66.1813 144.895 65.8715 145.186C65.6284 145.415 65.3542 145.576 65.0724 145.703ZM52.7153 147.595C54.4486 146.372 56.5291 145.703 58.7126 145.703H58.9221C58.6084 144.992 58.4063 144.119 58.3972 143.044C58.3923 142.466 57.9225 142 57.3447 142H55.9375C55.6627 142 55.3987 142.107 55.2016 142.299C55.1589 142.34 54.1476 143.333 53.4285 144.899C53.0176 145.793 52.7799 146.698 52.7153 147.595ZM66.9902 177.933C67.3082 177.979 67.6304 178.002 67.955 178.002C69.7796 178.002 71.4861 177.284 72.7608 175.98C73.6903 175.03 74.3021 173.857 74.5479 172.585L71.8917 171.84H66.9902V177.933ZM66.9902 168.84H72.3044L73.3197 169.125L73.6879 167.817C73.4116 167.367 73.08 166.946 72.697 166.564C71.468 165.338 69.8415 164.641 68.1182 164.6C68.064 164.598 68.0101 164.598 67.955 164.598C67.6304 164.598 67.3083 164.621 66.9902 164.667V168.84ZM64.0028 162.26C64.2642 162.259 64.5292 162.216 64.7947 162.124L64.7963 162.124C65.8145 161.774 66.8777 161.598 67.955 161.598C68.0392 161.598 68.118 161.599 68.1916 161.601C70.6245 161.659 72.924 162.623 74.6767 164.304L76.174 158.985H76.7266C79.5226 158.985 81.8182 156.801 81.9897 154.053C81.9965 153.943 82 153.833 82 153.722V153.053C82 151.948 81.1046 151.053 80 151.053H77.8783C77.7185 151.565 77.516 152.072 77.27 152.57L75.9441 155.256L72.7533 153.687L68.3563 153.11C67.9092 153.311 67.5051 153.462 67.1745 153.578L64.3471 154.566L64.0137 153.617L63.6802 154.566L60.8529 153.578C60.5223 153.462 60.1182 153.311 59.6711 153.11L55.274 153.687L52.0832 155.256L50.7573 152.57C50.5114 152.072 50.3088 151.565 50.149 151.053H48C46.8954 151.053 46 151.948 46 153.053V153.722C46 153.833 46.0035 153.943 46.0103 154.053C46.1818 156.801 48.4771 158.985 51.2734 158.985H51.826L53.3232 164.304C55.0759 162.623 57.3754 161.659 59.8084 161.601C59.882 161.599 59.9608 161.598 60.045 161.598C61.1223 161.598 62.1855 161.774 63.2037 162.124L63.2053 162.124C63.4708 162.216 63.7358 162.259 63.9972 162.26H64.0028ZM61.0098 164.667C60.6917 164.621 60.3696 164.598 60.045 164.598C59.9899 164.598 59.936 164.598 59.8818 164.6C58.1585 164.641 56.532 165.338 55.303 166.564C54.9199 166.946 54.5882 167.367 54.3119 167.817L54.6801 169.125L55.6953 168.84H61.0098V164.667ZM53.4521 172.585C53.698 173.858 54.3098 175.03 55.2392 175.98C56.5139 177.284 58.2204 178.002 60.045 178.002C60.3696 178.002 60.6918 177.979 61.0098 177.933V171.84H56.1082L53.4521 172.585ZM62.2874 148.703H58.7126C56.6481 148.703 54.7303 149.534 53.3365 151.007C53.3688 151.079 53.4024 151.15 53.4372 151.221L53.4476 151.242L54.0302 150.955L54.3936 150.777L60.1885 150.016C60.7801 150.346 61.3415 150.569 61.7955 150.729L61.8427 150.746L62.4238 149.091L62.2874 148.703ZM74.6819 151.027C74.6524 151.092 74.6218 151.157 74.5902 151.221L74.5797 151.242L73.9971 150.955L73.6338 150.777L67.8389 150.016C67.2472 150.346 66.6859 150.569 66.2318 150.729L66.1846 150.746L65.6035 149.091L65.74 148.703H69.2874C71.361 148.703 73.2866 149.541 74.6819 151.027ZM75.3135 147.615C73.5745 146.379 71.483 145.703 69.2874 145.703H69.1052C69.4189 144.992 69.621 144.119 69.6301 143.044C69.635 142.466 70.1048 142 70.6827 142H72.0899C72.3647 142 72.6286 142.107 72.8258 142.299C72.8684 142.34 73.8798 143.333 74.5989 144.899C75.0129 145.8 75.2511 146.712 75.3135 147.615Z" fill="white"/>
<path d="M74.606 144.888C73.8828 143.313 72.8654 142.315 72.8225 142.273C72.6244 142.08 72.3591 141.973 72.0828 141.973H70.6674C70.0862 141.973 69.6137 142.441 69.6088 143.022C69.5723 147.325 66.463 148.413 65.4414 148.771L65.7924 149.77C65.9863 150.322 66.5942 150.62 67.1267 150.378C67.2183 150.336 67.3115 150.292 67.406 150.245C67.6699 150.115 67.9649 150.055 68.2567 150.094L73.3066 150.757C73.5242 150.785 73.7355 150.849 73.9324 150.946L74.5867 151.268C75.5864 149.243 75.593 147.037 74.606 144.888Z" fill="#FF7E75"/>
<path d="M58.4 143.044C58.3951 142.466 57.9252 142 57.3473 142H55.8979C55.6206 142 55.354 142.107 55.1535 142.299C55.1102 142.34 54.0828 143.333 53.3522 144.899C52.3552 147.035 52.3619 149.229 53.3715 151.242L54.3327 150.777L60.2198 150.016C60.8419 150.357 61.4309 150.584 61.9004 150.746L62.6094 148.759C61.5774 148.404 58.4369 147.322 58.4 143.044Z" fill="#FFA099"/>
<path d="M80.0098 151.052C81.1143 151.052 82.0098 151.947 82.0098 153.052V153.721C82.0098 156.623 79.6436 158.984 76.7364 158.984H76.1838L73.3297 169.124L72.3142 168.839H55.7051L54.6898 169.124L51.9855 159.516C51.8969 159.201 51.61 158.984 51.2831 158.984C48.3757 158.984 46.0098 156.623 46.0098 153.721V153.052C46.0098 151.947 46.9052 151.052 48.0098 151.052H53.3039C54.7011 149.55 56.6369 148.702 58.7224 148.702H69.2972C71.3826 148.702 73.3184 149.55 74.7156 151.052H80.0098Z" fill="#FFDECC"/>
<path d="M80.0091 151.052C81.1136 151.052 82.0091 151.947 82.0091 153.052V153.721C82.0091 156.623 79.6429 158.984 76.7357 158.984C76.4089 158.984 76.1219 159.201 76.0334 159.516L73.329 169.124L72.3135 168.839H64.0195V148.702H69.2965C71.382 148.702 73.3177 149.55 74.7149 151.052H80.0091Z" fill="#FFCFB5"/>
<path d="M72.7699 175.979C71.4952 177.283 69.7887 178.001 67.9641 178.001C67.1985 178.001 66.4467 177.873 65.7311 177.62C65.1791 177.426 64.599 177.328 64.0188 177.327C63.4318 177.326 62.8448 177.424 62.2859 177.62C61.5701 177.873 60.8183 178.001 60.0527 178.001C58.2281 178.001 56.5216 177.283 55.2468 175.979C53.9721 174.676 53.2951 172.954 53.34 171.131C53.3821 169.411 54.0816 167.789 55.3107 166.563C56.54 165.337 58.1662 164.64 59.8895 164.599C60.6939 164.579 61.4834 164.701 62.2372 164.96C62.8203 165.16 63.4192 165.26 64.0191 165.258C64.6116 165.257 65.2039 165.158 65.7796 164.96C66.4827 164.719 67.2169 164.597 67.9644 164.597C68.0191 164.597 68.0734 164.597 68.1273 164.599C69.8509 164.64 71.477 165.337 72.7061 166.563C73.9351 167.789 74.6347 169.411 74.6771 171.131C74.7219 172.954 74.0446 174.676 72.7699 175.979Z" fill="#FFA099"/>
<path d="M72.7706 175.979C71.4959 177.283 69.7894 178.001 67.9648 178.001C67.1992 178.001 66.4473 177.873 65.7318 177.62C65.1798 177.426 64.5997 177.328 64.0195 177.327V165.259C64.6123 165.257 65.2045 165.158 65.7803 164.96C66.4834 164.719 67.2174 164.597 67.9648 164.597C68.0198 164.597 68.0738 164.598 68.128 164.599C69.8513 164.64 71.4777 165.337 72.7068 166.563C73.9358 167.789 74.6354 169.411 74.6777 171.131C74.7226 172.955 74.0453 174.676 72.7706 175.979Z" fill="#FF7E75"/>
<path d="M67.0977 158.03C67.0977 157.215 67.7692 156.555 68.5977 156.555C69.4261 156.555 70.0977 157.215 70.0977 158.03V158.08C70.0977 158.894 69.4261 159.555 68.5977 159.555C67.7692 159.555 67.0977 158.894 67.0977 158.08V158.03Z" fill="#1E203E"/>
<path d="M57.9727 158.055C57.9727 157.226 58.6442 156.555 59.4727 156.555C60.3011 156.555 60.9727 157.226 60.9727 158.055C60.9727 158.883 60.3011 159.555 59.4727 159.555C58.6442 159.555 57.9727 158.883 57.9727 158.055Z" fill="#282A52"/>
<path d="M65.9102 172.863C65.9102 172.035 66.5817 171.363 67.4102 171.363C68.2386 171.363 68.9102 172.035 68.9102 172.863V173.752C68.9102 174.581 68.2386 175.252 67.4102 175.252C66.5817 175.252 65.9102 174.581 65.9102 173.752V172.863Z" fill="#1E203E"/>
<path d="M59.1094 172.863C59.1094 172.035 59.7809 171.363 60.6094 171.363C61.4378 171.363 62.1094 172.035 62.1094 172.863V173.752C62.1094 174.581 61.4378 175.252 60.6094 175.252C59.7809 175.252 59.1094 174.581 59.1094 173.752V172.863Z" fill="#282A52"/>
<defs>
<filter id="filter0_d_16529_76994" x="10" y="9" width="96" height="96" filterUnits="userSpaceOnUse" color-interpolation-filters="sRGB">
<feFlood flood-opacity="0" result="BackgroundImageFix"/>
<feColorMatrix in="SourceAlpha" type="matrix" values="0 0 0 0 0 0 0 0 0 0 0 0 0 0 0 0 0 0 127 0" result="hardAlpha"/>
<feOffset dx="2" dy="1"/>
<feGaussianBlur stdDeviation="4"/>
<feColorMatrix type="matrix" values="0 0 0 0 0.0392157 0 0 0 0 0.0392157 0 0 0 0 0.0627451 0 0 0 0.08 0"/>
<feBlend mode="normal" in2="BackgroundImageFix" result="effect1_dropShadow_16529_76994"/>
<feBlend mode="normal" in="SourceGraphic" in2="effect1_dropShadow_16529_76994" result="shape"/>
</filter>
</defs>
</svg>
