<svg width="112" height="208" viewBox="0 0 112 208" fill="none" xmlns="http://www.w3.org/2000/svg">
<rect x="0.5" y="0.5" width="111" height="207" rx="4.5" stroke="#9747FF" stroke-dasharray="10 5"/>
<g filter="url(#filter0_d_16529_76646)">
<rect x="16" y="16" width="80" height="80" rx="16" fill="white"/>
</g>
<path d="M70.603 60.5558H56.4636V54.4189C56.4636 53.5134 55.7295 52.7793 54.824 52.7793C53.9184 52.7793 53.1843 53.5134 53.1843 54.4189V60.5558H39.3623C38.4568 60.5558 37.7227 61.2899 37.7227 62.1954V69.2584C37.7227 70.1639 38.4568 70.898 39.3623 70.898C40.2678 70.898 41.0019 70.1639 41.0019 69.2584V63.8351H68.9632V69.2584C68.9632 70.1639 69.6973 70.898 70.6028 70.898C71.5084 70.898 72.2425 70.1639 72.2425 69.2584V62.1954C72.2426 61.2899 71.5085 60.5558 70.603 60.5558Z" fill="#40D98D"/>
<path d="M70.6033 60.5558H56.4639V54.4189C56.4639 53.5134 55.7298 52.7793 54.8243 52.7793C54.8104 52.7793 54.797 52.781 54.7832 52.7814V63.8351H68.9637V69.2584C68.9637 70.1639 69.6978 70.898 70.6033 70.898C71.5088 70.898 72.2429 70.1639 72.2429 69.2584V62.1954C72.2429 61.2899 71.5088 60.5558 70.6033 60.5558Z" fill="#25BB71"/>
<path d="M73.8103 39.9622C73.4732 39.8591 73.2352 39.5533 73.226 39.2009C73.0643 33.042 68.3612 27.8848 62.3145 27.1027C61.7778 27.0333 61.2305 30.0677 60.6749 30.0696C60.1191 30.0696 59.5718 27.0363 59.0351 27.1063C55.1198 27.6171 51.7717 29.9322 49.8517 33.1896C49.6125 33.5955 49.0781 33.7176 48.6826 33.4613C47.5058 32.6983 46.1026 32.255 44.5957 32.255C40.6686 32.255 36.225 35.2633 35.7664 39.1009C35.7259 39.4396 35.4724 39.7156 35.1406 39.7949C31.3007 40.7116 28.4456 44.1649 28.4456 48.2856C28.4456 53.107 32.354 57.0154 37.1754 57.0154H38.931L40.7114 54.5616L42.1982 57.0154H72.5427C76.8035 57.0154 80.3514 53.963 81.1188 49.9256C81.2198 49.3943 78.0449 48.8461 78.0449 48.2855C78.0449 47.7249 81.194 47.1765 81.0486 46.6452C80.1822 43.4796 76.9424 40.9199 73.8103 39.9622Z" fill="#157DF5"/>
<path d="M78.045 48.2857C78.045 47.725 81.1941 47.1767 81.0487 46.6454C80.1822 43.4796 76.9424 40.9199 73.8103 39.9622C73.4732 39.8591 73.2353 39.5533 73.2261 39.2009C73.0643 33.042 68.3612 27.8848 62.3146 27.1027C61.7779 27.0333 61.2306 30.0677 60.675 30.0696C60.1191 30.0696 59.5718 27.0363 59.0351 27.1063C57.5154 27.3046 56.0818 27.7757 54.7834 28.4672V57.0154H72.5428C76.8035 57.0154 80.3514 53.963 81.1188 49.9256C81.2198 49.3945 78.045 48.8463 78.045 48.2857Z" fill="#0965CD"/>
<path d="M48.2161 82.9975H30.5068C29.6013 82.9975 28.8672 82.2634 28.8672 81.3579V69.2451C28.8672 68.3396 29.6013 67.6055 30.5068 67.6055H48.2161C49.1216 67.6055 49.8557 68.3396 49.8557 69.2451V81.3579C49.8557 82.2635 49.1216 82.9975 48.2161 82.9975ZM32.1464 79.7183H46.5765V70.8847H32.1464V79.7183Z" fill="#282A52"/>
<path d="M50.0857 83H28.6396C27.7341 83 27 82.2658 27 81.3603C27 80.4548 27.7341 79.7207 28.6396 79.7207H50.0857C50.9912 79.7207 51.7253 80.4548 51.7253 81.3603C51.7253 82.2658 50.9912 83 50.0857 83Z" fill="#1E203E"/>
<path d="M79.5675 82.9975H61.6396C60.7341 82.9975 60 82.2634 60 81.3579V69.2451C60 68.3396 60.7341 67.6055 61.6396 67.6055H79.5676C80.4731 67.6055 81.2072 68.3396 81.2072 69.2451V81.3579C81.2071 82.2635 80.4731 82.9975 79.5675 82.9975ZM63.2793 79.7183H77.928V70.8847H63.2793V79.7183Z" fill="#282A52"/>
<path d="M81.3259 83H59.8799C58.9743 83 58.2402 82.2658 58.2402 81.3603C58.2402 80.4548 58.9743 79.7207 59.8799 79.7207H81.3259C82.2315 79.7207 82.9656 80.4548 82.9656 81.3603C82.9656 82.2658 82.2315 83 81.3259 83Z" fill="#1E203E"/>
<path d="M42.2032 52.3402L45.3459 49.1974C45.9862 48.5571 45.9862 47.519 45.3459 46.8787C44.7057 46.2384 43.6675 46.2384 43.0272 46.8787L39.4041 50.5017C39.0966 50.8092 38.9238 51.2262 38.9238 51.661V56.8967C38.9238 56.937 38.927 56.9765 38.9298 57.0161H42.1971C42.1999 56.9765 42.2031 56.937 42.2031 56.8967V52.3402H42.2032Z" fill="#E2EFFE"/>
<path d="M60.6748 38.5401C61.5803 38.5401 62.3144 37.806 62.3144 36.9005V27.1028C61.7777 27.0334 61.2304 26.9982 60.6748 27.0001C60.1188 27.0001 59.572 27.0381 59.0352 27.1082V36.9006C59.0352 37.806 59.7693 38.5401 60.6748 38.5401Z" fill="#B6D7FC"/>
<path d="M81.2727 48.2852C81.2727 47.7246 81.1917 47.1768 81.0463 46.6456H69.4334L67.6937 44.9059C67.0535 44.2657 66.0153 44.2657 65.375 44.9059C64.7347 45.5463 64.7348 46.5844 65.375 47.2247L67.5949 49.4445C67.9024 49.752 68.3194 49.9247 68.7542 49.9247H81.1167C81.2177 49.3935 81.2727 48.8459 81.2727 48.2852Z" fill="#B6D7FC"/>
<path d="M46.4963 49.6275C48.6075 49.6275 50.3189 47.9161 50.3189 45.8049C50.3189 43.6938 48.6075 41.9824 46.4963 41.9824C44.3852 41.9824 42.6738 43.6938 42.6738 45.8049C42.6738 47.9161 44.3852 49.6275 46.4963 49.6275Z" fill="#40D98D"/>
<path d="M49.1641 62.7132C47.4193 62.7132 46 61.2715 46 59.4993C46 59.0055 46.1154 58.52 46.3419 58.0566L48.4524 53.7703C49.336 51.9785 51.6007 51.4871 53.0564 52.5713L57.9549 55.8867C58.6277 56.3431 58.5661 57.373 57.8375 57.7385C56.0381 58.6424 54.4334 59.9617 53.1985 61.5551C53.0542 61.7412 52.8524 61.8731 52.6258 61.9307L49.9262 62.6159C49.6502 62.6996 49.3278 62.7132 49.1641 62.7132Z" fill="#FFA099"/>
<path d="M78.838 62.7097C78.5795 62.7097 78.3209 62.6762 78.0696 62.6113L75.3567 61.9282C75.126 61.8696 74.922 61.7346 74.7768 61.5442C73.5687 59.9613 71.9743 58.6442 70.1646 57.735C69.4412 57.3721 69.3695 56.3429 70.0472 55.8832L74.9838 52.5406C76.432 51.5289 78.6938 52.0897 79.5579 53.7437L81.6797 58.052C81.8939 58.4882 82.0021 58.9736 82.0021 59.4957C82.0021 61.268 80.5828 62.7097 78.838 62.7097Z" fill="#FF7E75"/>
<path d="M64 82.0014C53.5026 82.0014 48.1094 78.0362 48.1094 70.2169C48.1094 63.7381 51.847 58.3605 56.9022 55.8222C61.1622 53.6335 66.8296 53.6294 71.1061 55.8264C75.9794 58.2734 79.8906 63.5692 79.8906 70.2169C79.8906 78.0362 74.4974 82.0014 64 82.0014Z" fill="#FFDECC"/>
<path d="M64.0002 81.9974C74.4976 81.9974 79.8908 78.0323 79.8908 70.213C79.8908 63.5653 75.9796 58.2695 71.1061 55.8225C68.9679 54.724 66.4468 54.1758 63.998 54.1758V81.9974H64.0002Z" fill="#FFCFB5"/>
<path d="M64 77.7131C59.8606 77.7131 56.6172 75.3602 56.6172 72.3566C56.6172 69.3529 59.8606 67 64 67C68.1394 67 71.3828 69.3529 71.3828 72.3566C71.3828 75.3602 68.1394 77.7131 64 77.7131Z" fill="#FFA099"/>
<path d="M63.998 67.0001V77.713C63.9987 77.713 63.9995 77.7131 64.0001 77.7131C68.1395 77.7131 71.3829 75.3602 71.3829 72.3566C71.3829 69.3529 68.1395 67 64.0001 67C63.9995 67 63.9987 67.0001 63.998 67.0001Z" fill="#FF7E75"/>
<path d="M61.1875 74.5199C62.0159 74.5199 62.6875 73.8378 62.6875 72.9963C62.6875 72.1548 62.0159 71.4727 61.1875 71.4727C60.3591 71.4727 59.6875 72.1548 59.6875 72.9963C59.6875 73.8378 60.3591 74.5199 61.1875 74.5199Z" fill="#282A52"/>
<path d="M66.8125 74.5199C67.6409 74.5199 68.3125 73.8378 68.3125 72.9963C68.3125 72.1548 67.6409 71.4727 66.8125 71.4727C65.9841 71.4727 65.3125 72.1548 65.3125 72.9963C65.3125 73.8378 65.9841 74.5199 66.8125 74.5199Z" fill="#1E203E"/>
<path d="M68.5 64.7113C69.3284 64.7113 70 64.0292 70 63.1877C70 62.3462 69.3284 61.6641 68.5 61.6641C67.6716 61.6641 67 62.3462 67 63.1877C67 64.0292 67.6716 64.7113 68.5 64.7113Z" fill="#1E203E"/>
<path d="M59.5 64.7113C60.3284 64.7113 61 64.0292 61 63.1877C61 62.3462 60.3284 61.6641 59.5 61.6641C58.6716 61.6641 58 62.3462 58 63.1877C58 64.0292 58.6716 64.7113 59.5 64.7113Z" fill="#282A52"/>
<path fill-rule="evenodd" clip-rule="evenodd" d="M43.6505 56.7334L45.7618 52.4453C47.4483 49.0257 51.8015 47.9597 54.7843 50.1203L57.8315 52.1827C61.7507 50.8491 66.2372 50.847 70.1651 52.1823L73.2869 50.0685C76.2803 47.997 80.5549 49.1752 82.2169 52.3565L82.2335 52.3882L84.3725 56.7315C84.8043 57.6107 85.0021 58.5535 85.0021 59.4977C85.0021 61.6944 83.8571 63.6571 82.1114 64.7643C82.6144 66.4739 82.8906 68.3018 82.8906 70.2189C82.8906 74.8946 81.2288 78.8188 77.6664 81.4549C74.2664 83.9708 69.5434 85.0034 64 85.0034C58.4566 85.0034 53.7336 83.9708 50.3337 81.4549C46.7712 78.8188 45.1094 74.8946 45.1094 70.2189C45.1094 68.3145 45.3834 66.4856 45.8885 64.7665C44.1441 63.659 43 61.697 43 59.5013C43 58.5284 43.2297 57.5941 43.6467 56.7411L43.6505 56.7334ZM47.0108 61.8542C47.5759 62.3882 48.3331 62.7152 49.1641 62.7152C49.3278 62.7152 49.6502 62.7016 49.9262 62.6179L49.9955 62.6003C49.9796 62.6302 49.9638 62.6602 49.9481 62.6902C49.9473 62.6917 49.9465 62.6932 49.9457 62.6947C49.6532 63.2534 49.3917 63.8331 49.1641 64.4317C49.0065 64.846 48.8652 65.2693 48.7411 65.7009C48.3316 67.1246 48.1094 68.639 48.1094 70.2189C48.1094 78.0382 53.5026 82.0034 64 82.0034C74.4974 82.0034 79.8906 78.0382 79.8906 70.2189C79.8906 68.6275 79.6665 67.1135 79.2586 65.6975C79.1349 65.2681 78.9944 64.8478 78.838 64.437C78.6083 63.8334 78.3445 63.2505 78.0503 62.6901C78.0502 62.6899 78.0504 62.6903 78.0503 62.6901C78.0339 62.6588 78.0171 62.627 78.0005 62.5959L78.0696 62.6133C78.3209 62.6782 78.5795 62.7117 78.838 62.7117C79.6674 62.7117 80.4232 62.3859 80.988 61.8538C81.6114 61.2664 82.0021 60.4276 82.0021 59.4977C82.0021 58.9756 81.8939 58.4902 81.6797 58.054L79.5579 53.7457C78.6938 52.0917 76.432 51.5309 74.9838 52.5426L70.5377 55.553C66.5261 53.7222 61.4563 53.7267 57.4599 55.5537L53.0564 52.5733C51.6007 51.4891 49.336 51.9805 48.4524 53.7723L46.3419 58.0586C46.1154 58.522 46 59.0075 46 59.5013C46 60.4294 46.3893 61.267 47.0108 61.8542Z" fill="white"/>
<path d="M70.603 156.556H56.4636V150.419C56.4636 149.513 55.7295 148.779 54.824 148.779C53.9184 148.779 53.1843 149.513 53.1843 150.419V156.556H39.3623C38.4568 156.556 37.7227 157.29 37.7227 158.195V165.258C37.7227 166.164 38.4568 166.898 39.3623 166.898C40.2678 166.898 41.0019 166.164 41.0019 165.258V159.835H68.9632V165.258C68.9632 166.164 69.6973 166.898 70.6028 166.898C71.5084 166.898 72.2425 166.164 72.2425 165.258V158.195C72.2426 157.29 71.5085 156.556 70.603 156.556Z" fill="#40D98D"/>
<path d="M70.6033 156.556H56.4639V150.419C56.4639 149.513 55.7298 148.779 54.8243 148.779C54.8104 148.779 54.797 148.781 54.7832 148.781V159.835H68.9637V165.258C68.9637 166.164 69.6978 166.898 70.6033 166.898C71.5088 166.898 72.2429 166.164 72.2429 165.258V158.195C72.2429 157.29 71.5088 156.556 70.6033 156.556Z" fill="#25BB71"/>
<path d="M73.8103 135.962C73.4732 135.859 73.2352 135.553 73.226 135.201C73.0643 129.042 68.3612 123.885 62.3145 123.103C61.7778 123.033 61.2305 126.068 60.6749 126.07C60.1191 126.07 59.5718 123.036 59.0351 123.106C55.1198 123.617 51.7717 125.932 49.8517 129.19C49.6125 129.596 49.0781 129.718 48.6826 129.461C47.5058 128.698 46.1026 128.255 44.5957 128.255C40.6686 128.255 36.225 131.263 35.7664 135.101C35.7259 135.44 35.4724 135.716 35.1406 135.795C31.3007 136.712 28.4456 140.165 28.4456 144.286C28.4456 149.107 32.354 153.015 37.1754 153.015H38.931L40.7114 150.562L42.1982 153.015H72.5427C76.8035 153.015 80.3514 149.963 81.1188 145.926C81.2198 145.394 78.0449 144.846 78.0449 144.285C78.0449 143.725 81.194 143.176 81.0486 142.645C80.1822 139.48 76.9424 136.92 73.8103 135.962Z" fill="#157DF5"/>
<path d="M78.045 144.286C78.045 143.725 81.1941 143.177 81.0487 142.645C80.1822 139.48 76.9424 136.92 73.8103 135.962C73.4732 135.859 73.2353 135.553 73.2261 135.201C73.0643 129.042 68.3612 123.885 62.3146 123.103C61.7779 123.033 61.2306 126.068 60.675 126.07C60.1191 126.07 59.5718 123.036 59.0351 123.106C57.5154 123.305 56.0818 123.776 54.7834 124.467V153.015H72.5428C76.8035 153.015 80.3514 149.963 81.1188 145.926C81.2198 145.395 78.045 144.846 78.045 144.286Z" fill="#0965CD"/>
<path d="M48.2161 178.998H30.5068C29.6013 178.998 28.8672 178.263 28.8672 177.358V165.245C28.8672 164.34 29.6013 163.605 30.5068 163.605H48.2161C49.1216 163.605 49.8557 164.34 49.8557 165.245V177.358C49.8557 178.264 49.1216 178.998 48.2161 178.998ZM32.1464 175.718H46.5765V166.885H32.1464V175.718Z" fill="#282A52"/>
<path d="M50.0857 179H28.6396C27.7341 179 27 178.266 27 177.36C27 176.455 27.7341 175.721 28.6396 175.721H50.0857C50.9912 175.721 51.7253 176.455 51.7253 177.36C51.7253 178.266 50.9912 179 50.0857 179Z" fill="#1E203E"/>
<path d="M79.5675 178.998H61.6396C60.7341 178.998 60 178.263 60 177.358V165.245C60 164.34 60.7341 163.605 61.6396 163.605H79.5676C80.4731 163.605 81.2072 164.34 81.2072 165.245V177.358C81.2071 178.264 80.4731 178.998 79.5675 178.998ZM63.2793 175.718H77.928V166.885H63.2793V175.718Z" fill="#282A52"/>
<path d="M81.3259 179H59.8799C58.9743 179 58.2402 178.266 58.2402 177.36C58.2402 176.455 58.9743 175.721 59.8799 175.721H81.3259C82.2315 175.721 82.9656 176.455 82.9656 177.36C82.9656 178.266 82.2315 179 81.3259 179Z" fill="#1E203E"/>
<path d="M42.2032 148.34L45.3459 145.197C45.9862 144.557 45.9862 143.519 45.3459 142.879C44.7057 142.238 43.6675 142.238 43.0272 142.879L39.4041 146.502C39.0966 146.809 38.9238 147.226 38.9238 147.661V152.897C38.9238 152.937 38.927 152.976 38.9298 153.016H42.1971C42.1999 152.976 42.2031 152.937 42.2031 152.897V148.34H42.2032Z" fill="#E2EFFE"/>
<path d="M60.6748 134.54C61.5803 134.54 62.3144 133.806 62.3144 132.9V123.103C61.7777 123.033 61.2304 122.998 60.6748 123C60.1188 123 59.572 123.038 59.0352 123.108V132.901C59.0352 133.806 59.7693 134.54 60.6748 134.54Z" fill="#B6D7FC"/>
<path d="M81.2727 144.285C81.2727 143.725 81.1917 143.177 81.0463 142.646H69.4334L67.6937 140.906C67.0535 140.266 66.0153 140.266 65.375 140.906C64.7347 141.546 64.7348 142.584 65.375 143.225L67.5949 145.445C67.9024 145.752 68.3194 145.925 68.7542 145.925H81.1167C81.2177 145.393 81.2727 144.846 81.2727 144.285Z" fill="#B6D7FC"/>
<path d="M46.4963 145.627C48.6075 145.627 50.3189 143.916 50.3189 141.805C50.3189 139.694 48.6075 137.982 46.4963 137.982C44.3852 137.982 42.6738 139.694 42.6738 141.805C42.6738 143.916 44.3852 145.627 46.4963 145.627Z" fill="#40D98D"/>
<path d="M49.1641 158.713C47.4193 158.713 46 157.272 46 155.499C46 155.005 46.1154 154.52 46.3419 154.057L48.4524 149.77C49.336 147.978 51.6007 147.487 53.0564 148.571L57.9549 151.887C58.6277 152.343 58.5661 153.373 57.8375 153.739C56.0381 154.642 54.4334 155.962 53.1985 157.555C53.0542 157.741 52.8524 157.873 52.6258 157.931L49.9262 158.616C49.6502 158.7 49.3278 158.713 49.1641 158.713Z" fill="#FFA099"/>
<path d="M78.838 158.71C78.5795 158.71 78.3209 158.676 78.0696 158.611L75.3567 157.928C75.126 157.87 74.922 157.735 74.7768 157.544C73.5687 155.961 71.9743 154.644 70.1646 153.735C69.4412 153.372 69.3695 152.343 70.0472 151.883L74.9838 148.541C76.432 147.529 78.6938 148.09 79.5579 149.744L81.6797 154.052C81.8939 154.488 82.0021 154.974 82.0021 155.496C82.0021 157.268 80.5828 158.71 78.838 158.71Z" fill="#FF7E75"/>
<path d="M64 178.001C53.5026 178.001 48.1094 174.036 48.1094 166.217C48.1094 159.738 51.847 154.36 56.9022 151.822C61.1622 149.634 66.8296 149.629 71.1061 151.826C75.9794 154.273 79.8906 159.569 79.8906 166.217C79.8906 174.036 74.4974 178.001 64 178.001Z" fill="#FFDECC"/>
<path d="M64.0002 177.997C74.4976 177.997 79.8908 174.032 79.8908 166.213C79.8908 159.565 75.9796 154.269 71.1061 151.823C68.9679 150.724 66.4468 150.176 63.998 150.176V177.997H64.0002Z" fill="#FFCFB5"/>
<path d="M64 173.713C59.8606 173.713 56.6172 171.36 56.6172 168.357C56.6172 165.353 59.8606 163 64 163C68.1394 163 71.3828 165.353 71.3828 168.357C71.3828 171.36 68.1394 173.713 64 173.713Z" fill="#FFA099"/>
<path d="M63.998 163V173.713C63.9987 173.713 63.9995 173.713 64.0001 173.713C68.1395 173.713 71.3829 171.36 71.3829 168.357C71.3829 165.353 68.1395 163 64.0001 163C63.9995 163 63.9987 163 63.998 163Z" fill="#FF7E75"/>
<path d="M61.1875 170.52C62.0159 170.52 62.6875 169.838 62.6875 168.996C62.6875 168.155 62.0159 167.473 61.1875 167.473C60.3591 167.473 59.6875 168.155 59.6875 168.996C59.6875 169.838 60.3591 170.52 61.1875 170.52Z" fill="#282A52"/>
<path d="M66.8125 170.52C67.6409 170.52 68.3125 169.838 68.3125 168.996C68.3125 168.155 67.6409 167.473 66.8125 167.473C65.9841 167.473 65.3125 168.155 65.3125 168.996C65.3125 169.838 65.9841 170.52 66.8125 170.52Z" fill="#1E203E"/>
<path d="M68.5 160.711C69.3284 160.711 70 160.029 70 159.188C70 158.346 69.3284 157.664 68.5 157.664C67.6716 157.664 67 158.346 67 159.188C67 160.029 67.6716 160.711 68.5 160.711Z" fill="#1E203E"/>
<path d="M59.5 160.711C60.3284 160.711 61 160.029 61 159.188C61 158.346 60.3284 157.664 59.5 157.664C58.6716 157.664 58 158.346 58 159.188C58 160.029 58.6716 160.711 59.5 160.711Z" fill="#282A52"/>
<path fill-rule="evenodd" clip-rule="evenodd" d="M43.6505 152.733L45.7618 148.445C47.4483 145.026 51.8015 143.96 54.7843 146.12L57.8315 148.183C61.7507 146.849 66.2372 146.847 70.1651 148.182L73.2869 146.069C76.2803 143.997 80.5549 145.175 82.2169 148.357L82.2335 148.388L84.3725 152.732C84.8043 153.611 85.0021 154.554 85.0021 155.498C85.0021 157.694 83.8571 159.657 82.1114 160.764C82.6144 162.474 82.8906 164.302 82.8906 166.219C82.8906 170.895 81.2288 174.819 77.6664 177.455C74.2664 179.971 69.5434 181.003 64 181.003C58.4566 181.003 53.7336 179.971 50.3337 177.455C46.7712 174.819 45.1094 170.895 45.1094 166.219C45.1094 164.315 45.3834 162.486 45.8885 160.766C44.1441 159.659 43 157.697 43 155.501C43 154.528 43.2297 153.594 43.6467 152.741L43.6505 152.733ZM47.0108 157.854C47.5759 158.388 48.3331 158.715 49.1641 158.715C49.3278 158.715 49.6502 158.702 49.9262 158.618L49.9955 158.6C49.9796 158.63 49.9638 158.66 49.9481 158.69C49.9473 158.692 49.9465 158.693 49.9457 158.695C49.6532 159.253 49.3917 159.833 49.1641 160.432C49.0065 160.846 48.8652 161.269 48.7411 161.701C48.3316 163.125 48.1094 164.639 48.1094 166.219C48.1094 174.038 53.5026 178.003 64 178.003C74.4974 178.003 79.8906 174.038 79.8906 166.219C79.8906 164.627 79.6665 163.113 79.2586 161.698C79.1349 161.268 78.9944 160.848 78.838 160.437C78.6083 159.833 78.3445 159.25 78.0503 158.69C78.0502 158.69 78.0504 158.69 78.0503 158.69C78.0339 158.659 78.0171 158.627 78.0005 158.596L78.0696 158.613C78.3209 158.678 78.5795 158.712 78.838 158.712C79.6674 158.712 80.4232 158.386 80.988 157.854C81.6114 157.266 82.0021 156.428 82.0021 155.498C82.0021 154.976 81.8939 154.49 81.6797 154.054L79.5579 149.746C78.6938 148.092 76.432 147.531 74.9838 148.543L70.5377 151.553C66.5261 149.722 61.4563 149.727 57.4599 151.554L53.0564 148.573C51.6007 147.489 49.336 147.98 48.4524 149.772L46.3419 154.059C46.1154 154.522 46 155.007 46 155.501C46 156.429 46.3893 157.267 47.0108 157.854Z" fill="white"/>
<defs>
<filter id="filter0_d_16529_76646" x="10" y="9" width="96" height="96" filterUnits="userSpaceOnUse" color-interpolation-filters="sRGB">
<feFlood flood-opacity="0" result="BackgroundImageFix"/>
<feColorMatrix in="SourceAlpha" type="matrix" values="0 0 0 0 0 0 0 0 0 0 0 0 0 0 0 0 0 0 127 0" result="hardAlpha"/>
<feOffset dx="2" dy="1"/>
<feGaussianBlur stdDeviation="4"/>
<feColorMatrix type="matrix" values="0 0 0 0 0.0392157 0 0 0 0 0.0392157 0 0 0 0 0.0627451 0 0 0 0.08 0"/>
<feBlend mode="normal" in2="BackgroundImageFix" result="effect1_dropShadow_16529_76646"/>
<feBlend mode="normal" in="SourceGraphic" in2="effect1_dropShadow_16529_76646" result="shape"/>
</filter>
</defs>
</svg>
