<svg width="112" height="200" viewBox="0 0 112 200" fill="none" xmlns="http://www.w3.org/2000/svg">
<rect x="0.5" y="0.5" width="111" height="199" rx="4.5" stroke="#9747FF" stroke-dasharray="10 5"/>
<g filter="url(#filter0_d_36706_73291)">
<rect x="16" y="16" width="80" height="80" rx="8" fill="white"/>
</g>
<path fill-rule="evenodd" clip-rule="evenodd" d="M35.3594 37.9994C35.3594 37.0936 36.0936 36.3594 36.9994 36.3594H67.9994C73.3234 36.3594 77.6394 40.6754 77.6394 45.9994C77.6394 51.3234 73.3234 55.6394 67.9994 55.6394H45.4994C41.7107 55.6394 38.6394 58.7107 38.6394 62.4994C38.6394 66.288 41.7107 69.3594 45.4994 69.3594H75.9994C76.9051 69.3594 77.6394 70.0936 77.6394 70.9994C77.6394 71.9051 76.9051 72.6394 75.9994 72.6394H45.4994C39.8992 72.6394 35.3594 68.0995 35.3594 62.4994C35.3594 56.8992 39.8992 52.3594 45.4994 52.3594H67.9994C71.5119 52.3594 74.3594 49.5119 74.3594 45.9994C74.3594 42.4868 71.5119 39.6394 67.9994 39.6394H36.9994C36.0936 39.6394 35.3594 38.9051 35.3594 37.9994Z" fill="#1E203E"/>
<path d="M35.566 28.4044V28H28.919C28.4114 28 28 28.4116 28 28.9191V45.1236C28 45.6313 28.4115 46.0427 28.919 46.0427H37.2498V28.4044H35.566Z" fill="#157DF5"/>
<path d="M45.9336 28.0722C45.8237 28.0257 45.7027 28 45.5758 28H38.9247V28.4044H37.25V46.0428H45.5757C46.2306 46.0428 46.4949 45.513 46.4949 45.1236V28.9191C46.4949 28.5383 46.2635 28.2117 45.9336 28.0722Z" fill="#0965CD"/>
<path d="M37.3085 35.3276H37.1916C36.294 35.3276 35.5664 34.6 35.5664 33.7025V28H38.934V33.7026C38.9337 34.6 38.2061 35.3276 37.3085 35.3276Z" fill="#E2EFFE"/>
<path d="M38.9338 33.6439V28H37.25V35.3276C38.18 35.3276 38.9338 34.5738 38.9338 33.6439Z" fill="#B6D7FC"/>
<path d="M56.6665 47C53.9053 47 51.667 49.2999 51.667 52.137C51.667 52.137 51.4802 56.4021 56.2638 58.9071C56.499 59.0303 56.7772 59.0312 57.0126 58.9083C58.1835 58.2967 61.666 56.1409 61.666 52.137C61.666 49.2999 59.4276 47 56.6665 47Z" fill="#40D98D"/>
<path d="M56.6662 54C57.7708 54 58.6663 53.1046 58.6663 52C58.6663 50.8954 57.7708 50 56.6662 50C55.5615 50 54.666 50.8954 54.666 52C54.666 53.1046 55.5615 54 56.6662 54Z" fill="white"/>
<path d="M78.0008 28C73.583 28 70.0016 31.6798 70.0016 36.2192C70.0016 36.2192 69.7027 43.0433 77.3564 47.0514C77.7329 47.2485 78.178 47.25 78.5546 47.0533C80.428 46.0747 86 42.6254 86 36.2192C86 31.6798 82.4186 28 78.0008 28Z" fill="#F3263D"/>
<path d="M77.9999 28H78.0009C82.4186 28 86 31.6798 86 36.2192C86 42.6254 80.4281 46.0747 78.5546 47.0533C78.3799 47.1445 78.1904 47.1931 77.9999 47.1993V28Z" fill="#F54B5E"/>
<ellipse cx="78.0007" cy="36.0008" rx="3.19994" ry="3.2" fill="#F0F7FE"/>
<path d="M78.0007 39.2008V32.8008C76.2334 32.8008 74.8008 34.2335 74.8008 36.0008C74.8008 37.7681 76.2334 39.2008 78.0007 39.2008Z" fill="white"/>
<path d="M36.0014 60C30.4789 60 26.002 64.5998 26.002 70.2739C26.002 70.2739 25.6284 78.8041 35.1959 83.8142C35.6665 84.0606 36.2229 84.0625 36.6937 83.8166C39.0356 82.5933 46.0008 78.2817 46.0008 70.2739C46.0008 64.5998 41.5239 60 36.0014 60Z" fill="#157DF5"/>
<path d="M36.0002 60H36.0015C41.5239 60 46.0008 64.5998 46.0008 70.2739C46.0008 78.2817 39.0356 82.5933 36.6937 83.8166C36.4753 83.9307 36.2384 83.9914 36.0002 83.9992V60Z" fill="#0965CD"/>
<ellipse cx="36.0001" cy="70.002" rx="4.00008" ry="4" fill="#F0F7FE"/>
<path d="M36.0001 74.002V66.002C33.7909 66.002 32 67.7928 32 70.002C32 72.2111 33.7909 74.002 36.0001 74.002Z" fill="white"/>
<path d="M85.7799 70.303H85.6284L83.9947 66.8392H84.1813L83.5221 65.4287C83.3883 65.1388 83.0981 64.9531 82.777 64.9531H79.2095L77.3726 70.1172L79.3907 76.6692H85.3119C85.689 76.6692 85.9948 76.3638 85.9952 75.9868C85.9952 75.9868 86.0006 72.16 86.0007 70.8317C86.0007 70.8099 85.9959 70.7887 85.9868 70.7689L85.7799 70.303Z" fill="#25BB71"/>
<path d="M84.1811 66.8438H81.229C80.9901 66.8438 80.7964 67.0374 80.7964 67.2763V69.779C80.7964 70.0709 81.033 70.3076 81.325 70.3076H85.7797L84.1811 66.8438Z" fill="#F0F7FE"/>
<path d="M67.1831 72.2969V75.9933C67.1831 76.3305 67.5193 76.6728 67.934 76.6728H78.3919V72.2969L67.1831 72.2969Z" fill="#40D98D"/>
<path d="M75.062 72.2969H79.3902V76.6728H75.062V72.2969Z" fill="#25BB71"/>
<path d="M78.3909 73.049H67.366C67.059 73.049 66.8101 72.8001 66.8101 72.4931V64.5559C66.8101 64.2489 67.059 64 67.366 64H77.835C78.142 64 78.3909 64.2489 78.3909 64.5559V66.8249V73.049Z" fill="#157DF5"/>
<path d="M71.2108 79.0004C69.957 79.0004 68.937 77.9804 68.937 76.7267C68.937 75.4731 69.957 74.4531 71.2108 74.4531C72.4646 74.4531 73.4846 75.4731 73.4846 76.7267C73.4846 77.9804 72.4646 79.0004 71.2108 79.0004Z" fill="#1E203E"/>
<path d="M82.3358 79.0004C81.082 79.0004 80.062 77.9804 80.062 76.7267C80.062 75.4731 81.082 74.4531 82.3358 74.4531C83.5896 74.4531 84.6096 75.4731 84.6096 76.7267C84.6096 77.9804 83.5896 79.0004 82.3358 79.0004Z" fill="#1E203E"/>
<path d="M78.8342 64H75.062V73.049H79.3902V64.5559C79.3902 64.2489 79.1413 64 78.8342 64Z" fill="#0965CD"/>
<path fill-rule="evenodd" clip-rule="evenodd" d="M35.3594 133.999C35.3594 133.094 36.0936 132.359 36.9994 132.359H67.9994C73.3234 132.359 77.6394 136.675 77.6394 141.999C77.6394 147.323 73.3234 151.639 67.9994 151.639H45.4994C41.7107 151.639 38.6394 154.711 38.6394 158.499C38.6394 162.288 41.7107 165.359 45.4994 165.359H75.9994C76.9051 165.359 77.6394 166.094 77.6394 166.999C77.6394 167.905 76.9051 168.639 75.9994 168.639H45.4994C39.8992 168.639 35.3594 164.1 35.3594 158.499C35.3594 152.899 39.8992 148.359 45.4994 148.359H67.9994C71.5119 148.359 74.3594 145.512 74.3594 141.999C74.3594 138.487 71.5119 135.639 67.9994 135.639H36.9994C36.0936 135.639 35.3594 134.905 35.3594 133.999Z" fill="#1E203E"/>
<path d="M35.566 124.404V124H28.919C28.4114 124 28 124.412 28 124.919V141.124C28 141.631 28.4115 142.043 28.919 142.043H37.2498V124.404H35.566Z" fill="#157DF5"/>
<path d="M45.9336 124.072C45.8237 124.026 45.7027 124 45.5758 124H38.9247V124.404H37.25V142.043H45.5757C46.2306 142.043 46.4949 141.513 46.4949 141.124V124.919C46.4949 124.538 46.2635 124.212 45.9336 124.072Z" fill="#0965CD"/>
<path d="M37.3085 131.328H37.1916C36.294 131.328 35.5664 130.6 35.5664 129.702V124H38.934V129.703C38.9337 130.6 38.2061 131.328 37.3085 131.328Z" fill="#E2EFFE"/>
<path d="M38.9338 129.644V124H37.25V131.328C38.18 131.328 38.9338 130.574 38.9338 129.644Z" fill="#B6D7FC"/>
<path d="M56.6665 143C53.9053 143 51.667 145.3 51.667 148.137C51.667 148.137 51.4802 152.402 56.2638 154.907C56.499 155.03 56.7772 155.031 57.0126 154.908C58.1835 154.297 61.666 152.141 61.666 148.137C61.666 145.3 59.4276 143 56.6665 143Z" fill="#40D98D"/>
<path d="M56.6662 150C57.7708 150 58.6663 149.105 58.6663 148C58.6663 146.895 57.7708 146 56.6662 146C55.5615 146 54.666 146.895 54.666 148C54.666 149.105 55.5615 150 56.6662 150Z" fill="white"/>
<path d="M78.0008 124C73.583 124 70.0016 127.68 70.0016 132.219C70.0016 132.219 69.7027 139.043 77.3564 143.051C77.7329 143.248 78.178 143.25 78.5546 143.053C80.428 142.075 86 138.625 86 132.219C86 127.68 82.4186 124 78.0008 124Z" fill="#F3263D"/>
<path d="M77.9999 124H78.0009C82.4186 124 86 127.68 86 132.219C86 138.625 80.4281 142.075 78.5546 143.053C78.3799 143.145 78.1904 143.193 77.9999 143.199V124Z" fill="#F54B5E"/>
<ellipse cx="78.0007" cy="132.001" rx="3.19994" ry="3.2" fill="#F0F7FE"/>
<path d="M78.0007 135.201V128.801C76.2334 128.801 74.8008 130.233 74.8008 132.001C74.8008 133.768 76.2334 135.201 78.0007 135.201Z" fill="white"/>
<path d="M36.0014 156C30.4789 156 26.002 160.6 26.002 166.274C26.002 166.274 25.6284 174.804 35.1959 179.814C35.6665 180.061 36.2229 180.062 36.6937 179.817C39.0356 178.593 46.0008 174.282 46.0008 166.274C46.0008 160.6 41.5239 156 36.0014 156Z" fill="#157DF5"/>
<path d="M36.0002 156H36.0015C41.5239 156 46.0008 160.6 46.0008 166.274C46.0008 174.282 39.0356 178.593 36.6937 179.817C36.4753 179.931 36.2384 179.991 36.0002 179.999V156Z" fill="#0965CD"/>
<ellipse cx="36.0001" cy="166.002" rx="4.00008" ry="4" fill="#F0F7FE"/>
<path d="M36.0001 170.002V162.002C33.7909 162.002 32 163.793 32 166.002C32 168.211 33.7909 170.002 36.0001 170.002Z" fill="white"/>
<path d="M85.7799 166.303H85.6284L83.9947 162.839H84.1813L83.5221 161.429C83.3883 161.139 83.0981 160.953 82.777 160.953H79.2095L77.3726 166.117L79.3907 172.669H85.3119C85.689 172.669 85.9948 172.364 85.9952 171.987C85.9952 171.987 86.0006 168.16 86.0007 166.832C86.0007 166.81 85.9959 166.789 85.9868 166.769L85.7799 166.303Z" fill="#25BB71"/>
<path d="M84.1811 162.844H81.229C80.9901 162.844 80.7964 163.037 80.7964 163.276V165.779C80.7964 166.071 81.033 166.308 81.325 166.308H85.7797L84.1811 162.844Z" fill="#F0F7FE"/>
<path d="M67.1831 168.297V171.993C67.1831 172.33 67.5193 172.673 67.934 172.673H78.3919V168.297L67.1831 168.297Z" fill="#40D98D"/>
<path d="M75.062 168.297H79.3902V172.673H75.062V168.297Z" fill="#25BB71"/>
<path d="M78.3909 169.049H67.366C67.059 169.049 66.8101 168.8 66.8101 168.493V160.556C66.8101 160.249 67.059 160 67.366 160H77.835C78.142 160 78.3909 160.249 78.3909 160.556V162.825V169.049Z" fill="#157DF5"/>
<path d="M71.2108 175C69.957 175 68.937 173.98 68.937 172.727C68.937 171.473 69.957 170.453 71.2108 170.453C72.4646 170.453 73.4846 171.473 73.4846 172.727C73.4846 173.98 72.4646 175 71.2108 175Z" fill="#1E203E"/>
<path d="M82.3358 175C81.082 175 80.062 173.98 80.062 172.727C80.062 171.473 81.082 170.453 82.3358 170.453C83.5896 170.453 84.6096 171.473 84.6096 172.727C84.6096 173.98 83.5896 175 82.3358 175Z" fill="#1E203E"/>
<path d="M78.8342 160H75.062V169.049H79.3902V160.556C79.3902 160.249 79.1413 160 78.8342 160Z" fill="#0965CD"/>
<defs>
<filter id="filter0_d_36706_73291" x="10" y="9" width="96" height="96" filterUnits="userSpaceOnUse" color-interpolation-filters="sRGB">
<feFlood flood-opacity="0" result="BackgroundImageFix"/>
<feColorMatrix in="SourceAlpha" type="matrix" values="0 0 0 0 0 0 0 0 0 0 0 0 0 0 0 0 0 0 127 0" result="hardAlpha"/>
<feOffset dx="2" dy="1"/>
<feGaussianBlur stdDeviation="4"/>
<feColorMatrix type="matrix" values="0 0 0 0 0.0392157 0 0 0 0 0.0392157 0 0 0 0 0.0627451 0 0 0 0.08 0"/>
<feBlend mode="normal" in2="BackgroundImageFix" result="effect1_dropShadow_36706_73291"/>
<feBlend mode="normal" in="SourceGraphic" in2="effect1_dropShadow_36706_73291" result="shape"/>
</filter>
</defs>
</svg>
