<svg width="112" height="208" viewBox="0 0 112 208" fill="none" xmlns="http://www.w3.org/2000/svg">
<rect x="0.5" y="0.5" width="111" height="207" rx="4.5" stroke="#9747FF" stroke-dasharray="10 5"/>
<g filter="url(#filter0_d_16529_77162)">
<rect x="16" y="16" width="80" height="80" rx="16" fill="white"/>
</g>
<path d="M49.4375 54.3594H42.875H36.3125C31.7895 54.3594 28 58.0395 28 62.5625V65.8438L31.2885 72.3704L31.2812 82.3594C31.2812 83.2662 32.015 84 32.9219 84H39.5938L42.875 80.1221L57.6406 62.5625C57.6406 58.0395 53.9605 54.3594 49.4375 54.3594Z" fill="#157DF5"/>
<path d="M34.5625 69.125V65.8438C34.5625 64.9377 33.8279 64.2031 32.9219 64.2031H29.6406C28.7346 64.2031 28 64.9377 28 65.8438V69.125C28 73.6554 31.7821 77.3281 36.3125 77.3281H47.7969V70.7656H36.3125C35.4064 70.7656 34.5625 70.0311 34.5625 69.125Z" fill="#FFCFB5"/>
<path d="M49.4375 54.3594H42.875V80.1221L57.6406 62.5625C57.6406 58.0395 53.9605 54.3594 49.4375 54.3594Z" fill="#0965CD"/>
<path d="M60.6127 61.6028C60.3035 61.175 59.8083 60.9219 59.2813 60.9219H46.1563C45.4497 60.9219 44.8232 61.3737 44.6005 62.0434L38.038 81.8403C37.8698 82.3401 37.9547 82.8913 38.2623 83.3191C38.5715 83.7469 39.0667 84 39.5938 84H52.7188C53.4253 84 54.0518 83.5482 54.2745 82.8785L60.837 63.0816C61.0052 62.5801 60.9202 62.0306 60.6127 61.6028Z" fill="#E2EFFE"/>
<path d="M53.3495 60.9219L45.6992 84H52.7185C53.425 84 54.0515 83.5482 54.2742 82.8785L60.8367 63.0816C61.0049 62.5801 60.9201 62.0306 60.6124 61.6027C60.3032 61.175 59.808 60.9219 59.281 60.9219H53.3495Z" fill="#B6D7FC"/>
<path d="M57.6406 75.6875H56C55.0939 75.6875 54.3594 74.9529 54.3594 74.0469V70.7656C54.3594 69.8596 55.0939 69.125 56 69.125H57.6406C59.4529 69.125 60.9219 70.594 60.9219 72.4062C60.9219 74.2185 59.4529 75.6875 57.6406 75.6875Z" fill="#FFCFB5"/>
<path d="M79.0781 28H69.125H59.2812C56.5672 28 54.3594 30.2078 54.3594 32.9219V46.1562C54.3594 48.8703 56.5672 51.0781 59.2812 51.0781H60.9219V56C60.9219 56.6632 61.3208 57.2625 61.9345 57.5156C62.5396 57.7682 63.2495 57.6328 63.7225 57.1599L69.125 51.7575L69.8043 51.0781H79.0781C81.7922 51.0781 84 48.8703 84 46.1562V32.9219C84 30.2078 81.7922 28 79.0781 28Z" fill="#157DF5"/>
<path d="M79.0781 51.0781C81.7922 51.0781 84 48.8703 84 46.1563V32.9219C84 30.2078 81.7922 28 79.0781 28H69.125V51.7575L69.8043 51.0781H79.0781Z" fill="#0965CD"/>
<path d="M73.5662 36.7931C72.9254 36.1523 71.8871 36.1523 71.2462 36.7931L69.125 38.9143L67.4844 40.555L66.1834 39.2539C65.5426 38.6131 64.5043 38.6131 63.8634 39.2539C63.2226 39.8948 63.2226 40.9331 63.8634 41.5739L66.3244 44.0348C66.6448 44.3553 67.0646 44.5155 67.4843 44.5155C67.904 44.5155 68.3239 44.3553 68.6442 44.0348L69.1249 43.5541L73.5661 39.113C74.2071 38.4721 74.2071 37.4339 73.5662 36.7931Z" fill="white"/>
<path d="M73.5662 36.7931C72.9253 36.1523 71.887 36.1523 71.2462 36.7931L69.125 38.9143V43.5542L73.5662 39.1131C74.2071 38.4721 74.2071 37.4339 73.5662 36.7931Z" fill="#F0F7FE"/>
<path d="M42.8803 58.4968C41.1407 58.4968 39.7305 57.0312 39.7305 55.2234V51.0195H46.0302V55.2234C46.0302 57.0312 44.6199 58.4968 42.8803 58.4968Z" fill="#FFCFB5"/>
<path d="M42.8809 51.0195V58.4968C44.6205 58.4968 46.0307 57.0312 46.0307 55.2234V51.0195H42.8809Z" fill="#FFCFB5"/>
<path d="M36.2305 42.5281V46.7426C36.2305 50.4229 39.2141 53.4065 42.8947 53.4065C46.5752 53.4065 49.559 50.4229 49.559 46.7426V44.8953L42.8947 40.9453L36.2305 42.5281Z" fill="#FFDECC"/>
<path d="M42.8945 53.4065C46.575 53.4065 49.5588 50.4229 49.5588 46.7426V44.8953L42.8945 40.9453V53.4065Z" fill="#FFCFB5"/>
<path d="M49.559 42.0375C49.559 39.2553 47.3034 37 44.5212 37H41.2683C38.486 37 36.2305 39.2554 36.2305 42.0375V42.5326L49.559 44.8996V42.0375Z" fill="#282A52"/>
<path d="M44.521 37H42.8945V43.7162L49.5588 44.8998V42.0375C49.5588 39.2553 47.3032 37 44.521 37Z" fill="#1E203E"/>
<path d="M75.6664 64C71.0643 64 67.3337 67.8332 67.3337 72.5616C67.3337 72.5616 67.0223 79.6701 74.9951 83.8452C75.3872 84.0505 75.8509 84.0521 76.2432 83.8472C78.1948 82.8278 83.999 79.2348 83.999 72.5616C83.999 67.8332 80.2683 64 75.6664 64Z" fill="#F54B5E"/>
<path d="M75.666 64H75.667C80.269 64 83.9997 67.8332 83.9997 72.5616C83.9997 79.2348 78.1954 82.8278 76.2439 83.8472C76.0619 83.9422 75.8645 83.9929 75.666 83.9993V64Z" fill="#F3263D"/>
<circle cx="75.6654" cy="72.3333" r="3.33333" fill="#F0F7FE"/>
<path d="M75.6654 75.6667V69C73.8244 69 72.332 70.4924 72.332 72.3333C72.332 74.1743 73.8244 75.6667 75.6654 75.6667Z" fill="white"/>
<path d="M63.9699 75.3069H63.8183L62.1846 71.8432H62.3712L61.712 70.4326C61.5782 70.1427 61.288 69.957 60.967 69.957H56.3994L54.5625 75.1211L56.5807 81.6731H63.5019C63.8789 81.6731 64.1847 81.3677 64.1851 80.9907C64.1851 80.9907 64.1905 77.164 64.1906 75.8356C64.1906 75.8138 64.1859 75.7926 64.1767 75.7728L63.9699 75.3069Z" fill="#0965CD"/>
<path d="M62.371 71.8398H59.4189C59.18 71.8398 58.9863 72.0335 58.9863 72.2724V74.7751C58.9863 75.067 59.223 75.3037 59.515 75.3037H63.9697L62.371 71.8398Z" fill="#F0F7FE"/>
<path d="M41.373 77.2969V80.9933C41.373 81.3305 41.7092 81.6728 42.124 81.6728H56.5818V77.2969L41.373 77.2969Z" fill="#157DF5"/>
<path d="M48.252 77.2969H56.5801V81.6728H48.252V77.2969Z" fill="#0965CD"/>
<path d="M56.5808 78.049H40.5559C40.2489 78.049 40 77.8001 40 77.4931V68.5559C40 68.2489 40.2489 68 40.5559 68H56.0249C56.3319 68 56.5808 68.2489 56.5808 68.5559V70.8249V78.049Z" fill="#40D98D"/>
<path d="M45.4007 84.0004C44.147 84.0004 43.127 82.9804 43.127 81.7267C43.127 80.4731 44.147 79.4531 45.4007 79.4531C46.6545 79.4531 47.6745 80.4731 47.6745 81.7267C47.6745 82.9804 46.6545 84.0004 45.4007 84.0004Z" fill="#1E203E"/>
<path d="M60.5257 83.9964C59.272 83.9964 58.252 82.9765 58.252 81.7228C58.252 80.4692 59.272 79.4492 60.5257 79.4492C61.7795 79.4492 62.7995 80.4692 62.7995 81.7228C62.7995 82.9765 61.7795 83.9964 60.5257 83.9964Z" fill="#1E203E"/>
<path d="M56.0242 68H48.252V78.049H56.5801V68.5559C56.5801 68.2489 56.3312 68 56.0242 68Z" fill="#25BB71"/>
<path d="M49.4375 150.359H42.875H36.3125C31.7895 150.359 28 154.04 28 158.562V161.844L31.2885 168.37L31.2812 178.359C31.2812 179.266 32.015 180 32.9219 180H39.5938L42.875 176.122L57.6406 158.562C57.6406 154.04 53.9605 150.359 49.4375 150.359Z" fill="#157DF5"/>
<path d="M34.5625 165.125V161.844C34.5625 160.938 33.8279 160.203 32.9219 160.203H29.6406C28.7346 160.203 28 160.938 28 161.844V165.125C28 169.655 31.7821 173.328 36.3125 173.328H47.7969V166.766H36.3125C35.4064 166.766 34.5625 166.031 34.5625 165.125Z" fill="#FFCFB5"/>
<path d="M49.4375 150.359H42.875V176.122L57.6406 158.562C57.6406 154.04 53.9605 150.359 49.4375 150.359Z" fill="#0965CD"/>
<path d="M60.6127 157.603C60.3035 157.175 59.8083 156.922 59.2813 156.922H46.1563C45.4497 156.922 44.8232 157.374 44.6005 158.043L38.038 177.84C37.8698 178.34 37.9547 178.891 38.2623 179.319C38.5715 179.747 39.0667 180 39.5938 180H52.7188C53.4253 180 54.0518 179.548 54.2745 178.878L60.837 159.082C61.0052 158.58 60.9202 158.031 60.6127 157.603Z" fill="#E2EFFE"/>
<path d="M53.3495 156.922L45.6992 180H52.7185C53.425 180 54.0515 179.548 54.2742 178.878L60.8367 159.082C61.0049 158.58 60.9201 158.031 60.6124 157.603C60.3032 157.175 59.808 156.922 59.281 156.922H53.3495Z" fill="#B6D7FC"/>
<path d="M57.6406 171.688H56C55.0939 171.688 54.3594 170.953 54.3594 170.047V166.766C54.3594 165.86 55.0939 165.125 56 165.125H57.6406C59.4529 165.125 60.9219 166.594 60.9219 168.406C60.9219 170.218 59.4529 171.688 57.6406 171.688Z" fill="#FFCFB5"/>
<path d="M79.0781 124H69.125H59.2812C56.5672 124 54.3594 126.208 54.3594 128.922V142.156C54.3594 144.87 56.5672 147.078 59.2812 147.078H60.9219V152C60.9219 152.663 61.3208 153.263 61.9345 153.516C62.5396 153.768 63.2495 153.633 63.7225 153.16L69.125 147.757L69.8043 147.078H79.0781C81.7922 147.078 84 144.87 84 142.156V128.922C84 126.208 81.7922 124 79.0781 124Z" fill="#157DF5"/>
<path d="M79.0781 147.078C81.7922 147.078 84 144.87 84 142.156V128.922C84 126.208 81.7922 124 79.0781 124H69.125V147.757L69.8043 147.078H79.0781Z" fill="#0965CD"/>
<path d="M73.5662 132.793C72.9254 132.152 71.8871 132.152 71.2462 132.793L69.125 134.914L67.4844 136.555L66.1834 135.254C65.5426 134.613 64.5043 134.613 63.8634 135.254C63.2226 135.895 63.2226 136.933 63.8634 137.574L66.3244 140.035C66.6448 140.355 67.0646 140.516 67.4843 140.516C67.904 140.516 68.3239 140.355 68.6442 140.035L69.1249 139.554L73.5661 135.113C74.2071 134.472 74.2071 133.434 73.5662 132.793Z" fill="white"/>
<path d="M73.5662 132.793C72.9253 132.152 71.887 132.152 71.2462 132.793L69.125 134.914V139.554L73.5662 135.113C74.2071 134.472 74.2071 133.434 73.5662 132.793Z" fill="#F0F7FE"/>
<path d="M42.8803 154.497C41.1407 154.497 39.7305 153.031 39.7305 151.223V147.02H46.0302V151.223C46.0302 153.031 44.6199 154.497 42.8803 154.497Z" fill="#FFCFB5"/>
<path d="M42.8809 147.02V154.497C44.6205 154.497 46.0307 153.031 46.0307 151.223V147.02H42.8809Z" fill="#FFCFB5"/>
<path d="M36.2305 138.528V142.743C36.2305 146.423 39.2141 149.407 42.8947 149.407C46.5752 149.407 49.559 146.423 49.559 142.743V140.895L42.8947 136.945L36.2305 138.528Z" fill="#FFDECC"/>
<path d="M42.8945 149.407C46.575 149.407 49.5588 146.423 49.5588 142.743V140.895L42.8945 136.945V149.407Z" fill="#FFCFB5"/>
<path d="M49.559 138.038C49.559 135.255 47.3034 133 44.5212 133H41.2683C38.486 133 36.2305 135.255 36.2305 138.038V138.533L49.559 140.9V138.038Z" fill="#282A52"/>
<path d="M44.521 133H42.8945V139.716L49.5588 140.9V138.038C49.5588 135.255 47.3032 133 44.521 133Z" fill="#1E203E"/>
<path d="M75.6664 160C71.0643 160 67.3337 163.833 67.3337 168.562C67.3337 168.562 67.0223 175.67 74.9951 179.845C75.3872 180.05 75.8509 180.052 76.2432 179.847C78.1948 178.828 83.999 175.235 83.999 168.562C83.999 163.833 80.2683 160 75.6664 160Z" fill="#F54B5E"/>
<path d="M75.666 160H75.667C80.269 160 83.9997 163.833 83.9997 168.562C83.9997 175.235 78.1954 178.828 76.2439 179.847C76.0619 179.942 75.8645 179.993 75.666 179.999V160Z" fill="#F3263D"/>
<circle cx="75.6654" cy="168.333" r="3.33333" fill="#F0F7FE"/>
<path d="M75.6654 171.667V165C73.8244 165 72.332 166.492 72.332 168.333C72.332 170.174 73.8244 171.667 75.6654 171.667Z" fill="white"/>
<path d="M63.9699 171.307H63.8183L62.1846 167.843H62.3712L61.712 166.433C61.5782 166.143 61.288 165.957 60.967 165.957H56.3994L54.5625 171.121L56.5807 177.673H63.5019C63.8789 177.673 64.1847 177.368 64.1851 176.991C64.1851 176.991 64.1905 173.164 64.1906 171.836C64.1906 171.814 64.1859 171.793 64.1767 171.773L63.9699 171.307Z" fill="#0965CD"/>
<path d="M62.371 167.84H59.4189C59.18 167.84 58.9863 168.033 58.9863 168.272V170.775C58.9863 171.067 59.223 171.304 59.515 171.304H63.9697L62.371 167.84Z" fill="#F0F7FE"/>
<path d="M41.373 173.297V176.993C41.373 177.33 41.7092 177.673 42.124 177.673H56.5818V173.297L41.373 173.297Z" fill="#157DF5"/>
<path d="M48.252 173.297H56.5801V177.673H48.252V173.297Z" fill="#0965CD"/>
<path d="M56.5808 174.049H40.5559C40.2489 174.049 40 173.8 40 173.493V164.556C40 164.249 40.2489 164 40.5559 164H56.0249C56.3319 164 56.5808 164.249 56.5808 164.556V166.825V174.049Z" fill="#40D98D"/>
<path d="M45.4007 180C44.147 180 43.127 178.98 43.127 177.727C43.127 176.473 44.147 175.453 45.4007 175.453C46.6545 175.453 47.6745 176.473 47.6745 177.727C47.6745 178.98 46.6545 180 45.4007 180Z" fill="#1E203E"/>
<path d="M60.5257 179.996C59.272 179.996 58.252 178.976 58.252 177.723C58.252 176.469 59.272 175.449 60.5257 175.449C61.7795 175.449 62.7995 176.469 62.7995 177.723C62.7995 178.976 61.7795 179.996 60.5257 179.996Z" fill="#1E203E"/>
<path d="M56.0242 164H48.252V174.049H56.5801V164.556C56.5801 164.249 56.3312 164 56.0242 164Z" fill="#25BB71"/>
<defs>
<filter id="filter0_d_16529_77162" x="10" y="9" width="96" height="96" filterUnits="userSpaceOnUse" color-interpolation-filters="sRGB">
<feFlood flood-opacity="0" result="BackgroundImageFix"/>
<feColorMatrix in="SourceAlpha" type="matrix" values="0 0 0 0 0 0 0 0 0 0 0 0 0 0 0 0 0 0 127 0" result="hardAlpha"/>
<feOffset dx="2" dy="1"/>
<feGaussianBlur stdDeviation="4"/>
<feColorMatrix type="matrix" values="0 0 0 0 0.0392157 0 0 0 0 0.0392157 0 0 0 0 0.0627451 0 0 0 0.08 0"/>
<feBlend mode="normal" in2="BackgroundImageFix" result="effect1_dropShadow_16529_77162"/>
<feBlend mode="normal" in="SourceGraphic" in2="effect1_dropShadow_16529_77162" result="shape"/>
</filter>
</defs>
</svg>
