<svg width="112" height="208" viewBox="0 0 112 208" fill="none" xmlns="http://www.w3.org/2000/svg">
<rect x="0.5" y="0.5" width="111" height="207" rx="4.5" stroke="#9747FF" stroke-dasharray="10 5"/>
<g filter="url(#filter0_d_6367_22081)">
<rect x="16" y="16" width="80" height="80" rx="8" fill="white"/>
</g>
<path d="M80.0004 80.7059V34.0392C80.0004 30.7089 77.2465 28 73.8608 28H36.4655C35.5412 28 36.4655 28.7379 36.4655 29.6471C36.4655 30.5562 37.2156 31.2941 38.1399 31.2941C39.6792 31.2941 40.9306 32.525 40.9306 34.0392V80.7059C40.9306 82.522 42.4331 84 44.2794 84H76.6515C78.4978 84 80.0004 82.522 80.0004 80.7059Z" fill="#F0F7FE"/>
<path d="M79.9997 80.7059V34.0392C79.9997 30.7089 77.2459 28 73.8602 28H60.4648V84H76.6509C78.4972 84 79.9997 82.522 79.9997 80.7059Z" fill="#E2EFFE"/>
<path d="M69.806 66.5404C69.806 65.6313 69.0559 64.8934 68.1316 64.8934H52.7987C51.8744 64.8934 51.1243 65.6313 51.1243 66.5404C51.1243 67.4496 51.8744 68.1875 52.7987 68.1875H68.1316C69.0559 68.1875 69.806 67.4496 69.806 66.5404Z" fill="#157DF5"/>
<path d="M69.8057 66.5404C69.8057 65.6313 69.0556 64.8934 68.1313 64.8934H60.4648V68.1875H68.1313C69.0556 68.1875 69.8057 67.4496 69.8057 66.5404Z" fill="#0965CD"/>
<path d="M63.9256 39.31C63.9256 38.4008 63.1755 37.6629 62.2512 37.6629H52.7987C51.8744 37.6629 51.1243 38.4008 51.1243 39.31C51.1243 40.2191 51.8744 40.957 52.7987 40.957H62.2512C63.1755 40.957 63.9256 40.2191 63.9256 39.31Z" fill="#157DF5"/>
<path d="M69.0084 39.31C69.0084 38.4008 68.2582 37.6629 67.3339 37.6629H60.4648V40.957H67.3339C68.2582 40.957 69.0084 40.2191 69.0084 39.31Z" fill="#0965CD"/>
<path d="M69.806 73.5678C69.806 72.6586 69.0559 71.9207 68.1316 71.9207H52.7987C51.8744 71.9207 51.1243 72.6586 51.1243 73.5678C51.1243 74.477 51.8744 75.2148 52.7987 75.2148H68.1316C69.0559 75.2148 69.806 74.477 69.806 73.5678Z" fill="#157DF5"/>
<path d="M68.1313 71.9207H60.4648V75.2148H68.1313C69.0556 75.2148 69.8057 74.477 69.8057 73.5678C69.8057 72.6586 69.0556 71.9207 68.1313 71.9207Z" fill="#0965CD"/>
<path d="M69.5744 48.4825L64.2162 52.8747C63.7708 53.2403 63.1658 53.3523 62.6155 53.1722C59.7842 52.244 60.7073 52.5466 57.8735 51.6174C56.3044 52.3035 55.0978 53 53.4789 53.872C52.6447 54.2367 52.4932 53.4103 52.1127 52.5698C51.7411 51.7475 52.1193 50.8612 52.1193 50.8612C55.0978 49.5 55.0978 49.5 57.1067 48.3475C57.4884 48.1806 57.9193 48.1608 58.3156 48.2904C59.8731 48.8011 61.2046 49.2376 62.7896 49.7573L67.4311 45.9526C68.1411 45.3696 69.1971 45.464 69.7887 46.1635C70.3814 46.8618 70.2854 47.9006 69.5744 48.4825Z" fill="#40D98D"/>
<path d="M62.6148 53.1722L60.4648 52.4673V48.9953L62.7889 49.7573L67.4304 45.9526C68.1404 45.3696 69.1964 45.464 69.788 46.1635C70.3807 46.8618 70.2848 47.9006 69.5737 48.4825L64.2155 52.8747C63.7701 53.2403 63.1651 53.3523 62.6148 53.1722Z" fill="#25BB71"/>
<path d="M69.806 59.5149C69.806 60.4241 69.0559 61.162 68.1316 61.162H52.7987C51.8744 61.162 51.1243 60.4241 51.1243 59.5149V46.3385C51.1243 45.4293 51.8744 44.6914 52.7987 44.6914C53.723 44.6914 54.4731 45.4293 54.4731 46.3385V57.8679H68.1316C69.0559 57.8679 69.806 58.6058 69.806 59.5149Z" fill="#282A52"/>
<path d="M69.8057 59.5142C69.8057 60.4234 69.0556 61.1613 68.1313 61.1613H60.4648V57.8672H68.1313C69.0556 57.8672 69.8057 58.6051 69.8057 59.5142Z" fill="#1E203E"/>
<path d="M40.9302 42.7148V32.3933C40.9302 29.9676 38.9311 28.0011 36.4651 28.0011C34.006 28.0011 32 29.9609 32 32.3933V39.4207C32 41.2401 33.4993 42.7148 35.3488 42.7148H40.9302Z" fill="#B6D7FC"/>
<path d="M80.0004 176.706V130.039C80.0004 126.709 77.2465 124 73.8608 124H36.4655C35.5412 124 36.4655 124.738 36.4655 125.647C36.4655 126.556 37.2156 127.294 38.1399 127.294C39.6792 127.294 40.9306 128.525 40.9306 130.039V176.706C40.9306 178.522 42.4331 180 44.2794 180H76.6515C78.4978 180 80.0004 178.522 80.0004 176.706Z" fill="#F0F7FE"/>
<path d="M79.9997 176.706V130.039C79.9997 126.709 77.2459 124 73.8602 124H60.4648V180H76.6509C78.4972 180 79.9997 178.522 79.9997 176.706Z" fill="#E2EFFE"/>
<path d="M69.806 162.54C69.806 161.631 69.0559 160.893 68.1316 160.893H52.7987C51.8744 160.893 51.1243 161.631 51.1243 162.54C51.1243 163.45 51.8744 164.188 52.7987 164.188H68.1316C69.0559 164.188 69.806 163.45 69.806 162.54Z" fill="#157DF5"/>
<path d="M69.8057 162.54C69.8057 161.631 69.0556 160.893 68.1313 160.893H60.4648V164.188H68.1313C69.0556 164.188 69.8057 163.45 69.8057 162.54Z" fill="#0965CD"/>
<path d="M63.9256 135.31C63.9256 134.401 63.1755 133.663 62.2512 133.663H52.7987C51.8744 133.663 51.1243 134.401 51.1243 135.31C51.1243 136.219 51.8744 136.957 52.7987 136.957H62.2512C63.1755 136.957 63.9256 136.219 63.9256 135.31Z" fill="#157DF5"/>
<path d="M69.0084 135.31C69.0084 134.401 68.2582 133.663 67.3339 133.663H60.4648V136.957H67.3339C68.2582 136.957 69.0084 136.219 69.0084 135.31Z" fill="#0965CD"/>
<path d="M69.806 169.568C69.806 168.659 69.0559 167.921 68.1316 167.921H52.7987C51.8744 167.921 51.1243 168.659 51.1243 169.568C51.1243 170.477 51.8744 171.215 52.7987 171.215H68.1316C69.0559 171.215 69.806 170.477 69.806 169.568Z" fill="#157DF5"/>
<path d="M68.1313 167.921H60.4648V171.215H68.1313C69.0556 171.215 69.8057 170.477 69.8057 169.568C69.8057 168.659 69.0556 167.921 68.1313 167.921Z" fill="#0965CD"/>
<path d="M69.5744 144.483L64.2162 148.875C63.7708 149.24 63.1658 149.352 62.6155 149.172C59.7842 148.244 60.7073 148.547 57.8735 147.617C56.3044 148.303 55.0978 149 53.4789 149.872C52.6447 150.237 52.4932 149.41 52.1127 148.57C51.7411 147.748 52.1193 146.861 52.1193 146.861C55.0978 145.5 55.0978 145.5 57.1067 144.347C57.4884 144.181 57.9193 144.161 58.3156 144.29C59.8731 144.801 61.2046 145.238 62.7896 145.757L67.4311 141.953C68.1411 141.37 69.1971 141.464 69.7887 142.163C70.3814 142.862 70.2854 143.901 69.5744 144.483Z" fill="#40D98D"/>
<path d="M62.6148 149.172L60.4648 148.467V144.995L62.7889 145.757L67.4304 141.953C68.1404 141.37 69.1964 141.464 69.788 142.163C70.3807 142.862 70.2848 143.901 69.5737 144.483L64.2155 148.875C63.7701 149.24 63.1651 149.352 62.6148 149.172Z" fill="#25BB71"/>
<path d="M69.806 155.515C69.806 156.424 69.0559 157.162 68.1316 157.162H52.7987C51.8744 157.162 51.1243 156.424 51.1243 155.515V142.338C51.1243 141.429 51.8744 140.691 52.7987 140.691C53.723 140.691 54.4731 141.429 54.4731 142.338V153.868H68.1316C69.0559 153.868 69.806 154.606 69.806 155.515Z" fill="#282A52"/>
<path d="M69.8057 155.514C69.8057 156.423 69.0556 157.161 68.1313 157.161H60.4648V153.867H68.1313C69.0556 153.867 69.8057 154.605 69.8057 155.514Z" fill="#1E203E"/>
<path d="M40.9302 138.715V128.393C40.9302 125.968 38.9311 124.001 36.4651 124.001C34.006 124.001 32 125.961 32 128.393V135.421C32 137.24 33.4993 138.715 35.3488 138.715H40.9302Z" fill="#B6D7FC"/>
<defs>
<filter id="filter0_d_6367_22081" x="10" y="9" width="96" height="96" filterUnits="userSpaceOnUse" color-interpolation-filters="sRGB">
<feFlood flood-opacity="0" result="BackgroundImageFix"/>
<feColorMatrix in="SourceAlpha" type="matrix" values="0 0 0 0 0 0 0 0 0 0 0 0 0 0 0 0 0 0 127 0" result="hardAlpha"/>
<feOffset dx="2" dy="1"/>
<feGaussianBlur stdDeviation="4"/>
<feColorMatrix type="matrix" values="0 0 0 0 0.0392157 0 0 0 0 0.0392157 0 0 0 0 0.0627451 0 0 0 0.08 0"/>
<feBlend mode="normal" in2="BackgroundImageFix" result="effect1_dropShadow_6367_22081"/>
<feBlend mode="normal" in="SourceGraphic" in2="effect1_dropShadow_6367_22081" result="shape"/>
</filter>
</defs>
</svg>
