<svg width="112" height="208" viewBox="0 0 112 208" fill="none" xmlns="http://www.w3.org/2000/svg">
<rect x="0.5" y="0.5" width="111" height="207" rx="4.5" stroke="#9747FF" stroke-dasharray="10 5"/>
<g filter="url(#filter0_d_58767_11655)">
<rect x="16" y="16" width="80" height="80" rx="8" fill="white"/>
</g>
<path d="M80.5 50.4297V78.8613C80.5 79.8411 79.7303 80.6113 78.75 80.6113H52.5H38.5H33.25C32.2697 80.6113 31.5 79.8411 31.5 78.8613V50.4297C31.5 49.4845 32.2697 48.6797 33.25 48.6797H78.75C79.7303 48.6797 80.5 49.4845 80.5 50.4297Z" fill="#E2EFFE"/>
<path d="M80.5 50.4297V78.8613C80.5 79.8411 79.7303 80.6113 78.75 80.6113H56V48.6797H78.75C79.7303 48.6797 80.5 49.4845 80.5 50.4297Z" fill="#B6D7FC"/>
<path d="M45.5 28L45.5633 35.8549L39.375 42L33.6875 45.5L28 42L37.22 29.7067C38.0258 28.6323 39.2904 28 40.6333 28H45.5Z" fill="#157DF5"/>
<path d="M84 42L78.3125 45.5L72.625 42L66.0625 35L66.5 28H71.3667C72.7096 28 73.9742 28.6323 74.78 29.7067L84 42Z" fill="#0965CD"/>
<path d="M72.625 42L66.9375 45.5L61.25 42L56.875 35L59.5 28H66.5L72.625 42Z" fill="#25BB71"/>
<path d="M55.125 35L50.75 42L45.5 45.5L39.375 42L45.5 28H52.5L55.125 35Z" fill="#40D98D"/>
<path d="M61.25 42L56 45.5L50.75 42L52.5 28H59.5L61.25 42Z" fill="#157DF5"/>
<path d="M61.25 42L56 45.5V28H59.5L61.25 42Z" fill="#0965CD"/>
<path d="M48.2997 62H39.0428C38.1903 62 37.5 62.6903 37.5 63.5428V80.6167H49.8425V63.5428C49.8425 62.6903 49.1523 62 48.2997 62Z" fill="#157DF5"/>
<path d="M28 42H39.375V48.3125C39.375 51.4538 36.8288 54 33.6875 54C30.5462 54 28 51.4538 28 48.3125L28 42Z" fill="#157DF5"/>
<path d="M39.375 42H50.75V48.3125C50.75 51.4538 48.2038 54 45.0625 54C41.9212 54 39.375 51.4538 39.375 48.3125L39.375 42Z" fill="#40D98D"/>
<path d="M61.25 42H72.625V48.3125C72.625 51.4538 70.0788 54 66.9375 54C63.7962 54 61.25 51.4538 61.25 48.3125L61.25 42Z" fill="#25BB71"/>
<path d="M72.625 42H84V48.3125C84 51.4538 81.4538 54 78.3125 54C75.1712 54 72.625 51.4538 72.625 48.3125L72.625 42Z" fill="#0965CD"/>
<path d="M61.25 42V48.75C61.25 51.6548 58.9053 54 56 54C53.0947 54 50.75 51.6548 50.75 48.75V42H61.25Z" fill="#157DF5"/>
<path d="M61.25 42V48.75C61.25 51.6548 58.9053 54 56 54V42H61.25Z" fill="#0965CD"/>
<g clip-path="url(#clip0_58767_11655)">
<path d="M81 69C81 75.6274 75.6274 81 69 81C62.3726 81 57 75.6274 57 69C57 62.3726 62.3726 57 69 57C75.6274 57 81 62.3726 81 69Z" fill="#40D98D"/>
<path fill-rule="evenodd" clip-rule="evenodd" d="M84 69C84 77.2843 77.2843 84 69 84C60.7157 84 54 77.2843 54 69C54 60.7157 60.7157 54 69 54C77.2843 54 84 60.7157 84 69ZM69 81C75.6274 81 81 75.6274 81 69C81 62.3726 75.6274 57 69 57C62.3726 57 57 62.3726 57 69C57 75.6274 62.3726 81 69 81Z" fill="white"/>
<path d="M69 81C75.6274 81 81 75.6274 81 69C81 62.3726 75.6274 57 69 57V81Z" fill="#25BB71"/>
<path d="M74.0233 65.4393C73.4533 64.8692 72.529 64.8692 71.9589 65.4393L67.9388 69.4594L66.0428 67.5632C65.4727 66.9929 64.5484 66.9931 63.9783 67.5632C63.4083 68.1333 63.4083 69.0576 63.9783 69.6276L66.9066 72.556C67.1804 72.8298 67.5517 72.9836 67.9389 72.9836C68.3261 72.9836 68.6974 72.8298 68.9711 72.556L74.0234 67.5037C74.5935 66.9336 74.5935 66.0093 74.0233 65.4393Z" fill="white"/>
<path d="M71.959 65.4432L68.9961 68.4061V72.535L74.0234 67.5076C74.5935 66.9375 74.5935 66.0132 74.0234 65.4432C73.4534 64.8731 72.5291 64.8731 71.959 65.4432Z" fill="#F0F7FE"/>
</g>
<path d="M80.5 146.43V174.861C80.5 175.841 79.7303 176.611 78.75 176.611H52.5H38.5H33.25C32.2697 176.611 31.5 175.841 31.5 174.861V146.43C31.5 145.485 32.2697 144.68 33.25 144.68H78.75C79.7303 144.68 80.5 145.485 80.5 146.43Z" fill="#E2EFFE"/>
<path d="M80.5 146.43V174.861C80.5 175.841 79.7303 176.611 78.75 176.611H56V144.68H78.75C79.7303 144.68 80.5 145.485 80.5 146.43Z" fill="#B6D7FC"/>
<path d="M45.5 124L45.5633 131.855L39.375 138L33.6875 141.5L28 138L37.22 125.707C38.0258 124.632 39.2904 124 40.6333 124H45.5Z" fill="#157DF5"/>
<path d="M84 138L78.3125 141.5L72.625 138L66.0625 131L66.5 124H71.3667C72.7096 124 73.9742 124.632 74.78 125.707L84 138Z" fill="#0965CD"/>
<path d="M72.625 138L66.9375 141.5L61.25 138L56.875 131L59.5 124H66.5L72.625 138Z" fill="#25BB71"/>
<path d="M55.125 131L50.75 138L45.5 141.5L39.375 138L45.5 124H52.5L55.125 131Z" fill="#40D98D"/>
<path d="M61.25 138L56 141.5L50.75 138L52.5 124H59.5L61.25 138Z" fill="#157DF5"/>
<path d="M61.25 138L56 141.5V124H59.5L61.25 138Z" fill="#0965CD"/>
<path d="M48.2997 158H39.0428C38.1903 158 37.5 158.69 37.5 159.543V176.617H49.8425V159.543C49.8425 158.69 49.1523 158 48.2997 158Z" fill="#157DF5"/>
<path d="M28 138H39.375V144.312C39.375 147.454 36.8288 150 33.6875 150C30.5462 150 28 147.454 28 144.312L28 138Z" fill="#157DF5"/>
<path d="M39.375 138H50.75V144.312C50.75 147.454 48.2038 150 45.0625 150C41.9212 150 39.375 147.454 39.375 144.312L39.375 138Z" fill="#40D98D"/>
<path d="M61.25 138H72.625V144.312C72.625 147.454 70.0788 150 66.9375 150C63.7962 150 61.25 147.454 61.25 144.312L61.25 138Z" fill="#25BB71"/>
<path d="M72.625 138H84V144.312C84 147.454 81.4538 150 78.3125 150C75.1712 150 72.625 147.454 72.625 144.312L72.625 138Z" fill="#0965CD"/>
<path d="M61.25 138V144.75C61.25 147.655 58.9053 150 56 150C53.0947 150 50.75 147.655 50.75 144.75V138H61.25Z" fill="#157DF5"/>
<path d="M61.25 138V144.75C61.25 147.655 58.9053 150 56 150V138H61.25Z" fill="#0965CD"/>
<g clip-path="url(#clip1_58767_11655)">
<path d="M81 165C81 171.627 75.6274 177 69 177C62.3726 177 57 171.627 57 165C57 158.373 62.3726 153 69 153C75.6274 153 81 158.373 81 165Z" fill="#40D98D"/>
<path fill-rule="evenodd" clip-rule="evenodd" d="M84 165C84 173.284 77.2843 180 69 180C60.7157 180 54 173.284 54 165C54 156.716 60.7157 150 69 150C77.2843 150 84 156.716 84 165ZM69 177C75.6274 177 81 171.627 81 165C81 158.373 75.6274 153 69 153C62.3726 153 57 158.373 57 165C57 171.627 62.3726 177 69 177Z" fill="white"/>
<path d="M69 177C75.6274 177 81 171.627 81 165C81 158.373 75.6274 153 69 153V177Z" fill="#25BB71"/>
<path d="M74.0233 161.439C73.4533 160.869 72.529 160.869 71.9589 161.439L67.9388 165.459L66.0428 163.563C65.4727 162.993 64.5484 162.993 63.9783 163.563C63.4083 164.133 63.4083 165.058 63.9783 165.628L66.9066 168.556C67.1804 168.83 67.5517 168.984 67.9389 168.984C68.3261 168.984 68.6974 168.83 68.9711 168.556L74.0234 163.504C74.5935 162.934 74.5935 162.009 74.0233 161.439Z" fill="white"/>
<path d="M71.959 161.443L68.9961 164.406V168.535L74.0234 163.508C74.5935 162.938 74.5935 162.013 74.0234 161.443C73.4534 160.873 72.5291 160.873 71.959 161.443Z" fill="#F0F7FE"/>
</g>
<defs>
<filter id="filter0_d_58767_11655" x="10" y="9" width="96" height="96" filterUnits="userSpaceOnUse" color-interpolation-filters="sRGB">
<feFlood flood-opacity="0" result="BackgroundImageFix"/>
<feColorMatrix in="SourceAlpha" type="matrix" values="0 0 0 0 0 0 0 0 0 0 0 0 0 0 0 0 0 0 127 0" result="hardAlpha"/>
<feOffset dx="2" dy="1"/>
<feGaussianBlur stdDeviation="4"/>
<feColorMatrix type="matrix" values="0 0 0 0 0.0392157 0 0 0 0 0.0392157 0 0 0 0 0.0627451 0 0 0 0.08 0"/>
<feBlend mode="normal" in2="BackgroundImageFix" result="effect1_dropShadow_58767_11655"/>
<feBlend mode="normal" in="SourceGraphic" in2="effect1_dropShadow_58767_11655" result="shape"/>
</filter>
<clipPath id="clip0_58767_11655">
<rect width="30" height="30" fill="white" transform="translate(54 54)"/>
</clipPath>
<clipPath id="clip1_58767_11655">
<rect width="30" height="30" fill="white" transform="translate(54 150)"/>
</clipPath>
</defs>
</svg>
