<svg width="112" height="208" viewBox="0 0 112 208" fill="none" xmlns="http://www.w3.org/2000/svg">
<rect x="0.5" y="0.5" width="111" height="207" rx="4.5" stroke="#9747FF" stroke-dasharray="10 5"/>
<g filter="url(#filter0_dd_11513_76198)">
<rect x="16" y="16" width="80" height="80" rx="8" fill="white"/>
</g>
<rect x="28" y="37.4297" width="23.9982" height="38.5715" fill="#157DF5"/>
<rect x="51.998" y="37.4297" width="23.9982" height="38.5715" fill="#0965CD"/>
<path d="M33.1523 43.1562H70.533V55.2059H33.1523V43.1562Z" fill="#E2EFFE"/>
<path d="M51.9609 43.1562H70.5348V55.2059H51.9609V43.1562Z" fill="#B6D7FC"/>
<path d="M71.5621 41.3281H32.6419C32.0252 41.3281 31.5254 41.8281 31.5254 42.4447V75.9936H72.6652V42.4312C72.6651 41.8221 72.1713 41.3281 71.5621 41.3281ZM34.6758 50.7819H69.5146V53.9355H34.6758V50.7819ZM69.5146 44.4788V47.6311H34.6758V44.4788H69.5146Z" fill="#F0F7FE"/>
<path d="M71.5629 41.3281H51.9609V44.4788H69.5154V47.6311H51.9609V50.7819H69.5154V53.9355H51.9609V75.9937H72.666V42.4312C72.666 41.822 72.1722 41.3281 71.5629 41.3281Z" fill="#E2EFFE"/>
<path d="M34.6758 57.0859H69.5145V75.9914H34.6758V57.0859Z" fill="#282A52"/>
<path d="M51.9609 57.0859H69.5154V75.9914H51.9609V57.0859Z" fill="#1E203E"/>
<path d="M43.5769 62.8654V62.1406H38.4784C38.0891 62.1406 37.7734 62.4563 37.7734 62.8456V75.9809H44.8685V62.8654H43.5769Z" fill="#157DF5"/>
<path d="M51.9604 75.9812V62.8456C51.9604 62.4563 51.6448 62.1406 51.2554 62.1406H46.1607V62.8654H44.8691V75.981H51.9604" fill="#0965CD"/>
<path d="M44.8707 69.2808H44.8645C43.961 69.2808 43.2285 68.5484 43.2285 67.6449V62.1484H46.5067V67.6449C46.5067 68.5484 45.7742 69.2808 44.8707 69.2808Z" fill="#40D98D"/>
<path d="M46.5082 67.6498V62.1562H44.8691V69.2887C45.7744 69.2887 46.5082 68.555 46.5082 67.6498Z" fill="#25BB71"/>
<path d="M57.7626 62.8654V62.1406H52.7263C52.3025 62.1406 51.959 62.4842 51.959 62.9079V75.9809H59.0541V62.8654H57.7626Z" fill="#157DF5"/>
<path d="M66.1458 75.9812V62.8456C66.1458 62.4563 65.8302 62.1406 65.4409 62.1406H60.3462V62.8654H59.0547V75.981L66.1458 75.9812Z" fill="#0965CD"/>
<path d="M59.0541 69.2301H59.0481C58.1499 69.2301 57.4219 68.5021 57.4219 67.6041V62.1406H60.6803V67.6041C60.6803 68.5021 59.9523 69.2301 59.0541 69.2301Z" fill="#40D98D"/>
<path d="M60.7015 67.6012V62.1406H59.0723V69.2303C59.9721 69.2303 60.7015 68.5008 60.7015 67.6012Z" fill="#25BB71"/>
<path d="M28 35.3384C28 34.5518 28.5353 33.8662 29.2984 33.6754L51.9982 28V37.4286H28V35.3384Z" fill="#157DF5"/>
<path d="M75.9961 35.3384C75.9961 34.5518 75.4608 33.8662 74.6977 33.6754L51.9979 28V37.4286H75.9961V35.3384Z" fill="#0965CD"/>
<rect x="64" y="63" width="20" height="21" rx="3" fill="white"/>
<rect x="67" y="78" width="14" height="3" rx="1.5" fill="#25BB71"/>
<rect x="67" y="72" width="14" height="3" rx="1.5" fill="#40D98D"/>
<rect x="67" y="66" width="14" height="3" rx="1.5" fill="#BFF2D9"/>
<rect x="28" y="133.431" width="23.9982" height="38.5715" fill="#157DF5"/>
<rect x="51.998" y="133.431" width="23.9982" height="38.5715" fill="#0965CD"/>
<path d="M33.1523 139.158H70.533V151.207H33.1523V139.158Z" fill="#E2EFFE"/>
<path d="M51.9609 139.158H70.5348V151.207H51.9609V139.158Z" fill="#B6D7FC"/>
<path d="M71.5621 137.33H32.6419C32.0252 137.33 31.5254 137.829 31.5254 138.446V171.995H72.6652V138.433C72.6651 137.823 72.1713 137.33 71.5621 137.33ZM34.6758 146.783H69.5146V149.937H34.6758V146.783ZM69.5146 140.48V143.633H34.6758V140.48H69.5146Z" fill="#F0F7FE"/>
<path d="M71.5629 137.33H51.9609V140.48H69.5154V143.633H51.9609V146.783H69.5154V149.937H51.9609V171.995H72.666V138.433C72.666 137.823 72.1722 137.33 71.5629 137.33Z" fill="#E2EFFE"/>
<path d="M34.6758 153.087H69.5145V171.993H34.6758V153.087Z" fill="#282A52"/>
<path d="M51.9609 153.087H69.5154V171.993H51.9609V153.087Z" fill="#1E203E"/>
<path d="M43.5769 158.867V158.142H38.4784C38.0891 158.142 37.7734 158.458 37.7734 158.847V171.982H44.8685V158.867H43.5769Z" fill="#157DF5"/>
<path d="M51.9604 171.983V158.847C51.9604 158.458 51.6448 158.142 51.2554 158.142H46.1607V158.867H44.8691V171.982H51.9604" fill="#0965CD"/>
<path d="M44.8707 165.282H44.8645C43.961 165.282 43.2285 164.55 43.2285 163.646V158.15H46.5067V163.646C46.5067 164.55 45.7742 165.282 44.8707 165.282Z" fill="#40D98D"/>
<path d="M46.5082 163.651V158.158H44.8691V165.29C45.7744 165.29 46.5082 164.556 46.5082 163.651Z" fill="#25BB71"/>
<path d="M57.7626 158.867V158.142H52.7263C52.3025 158.142 51.959 158.486 51.959 158.909V171.982H59.0541V158.867H57.7626Z" fill="#157DF5"/>
<path d="M66.1458 171.983V158.847C66.1458 158.458 65.8302 158.142 65.4409 158.142H60.3462V158.867H59.0547V171.982L66.1458 171.983Z" fill="#0965CD"/>
<path d="M59.0541 165.232H59.0481C58.1499 165.232 57.4219 164.504 57.4219 163.606V158.142H60.6803V163.606C60.6803 164.504 59.9523 165.232 59.0541 165.232Z" fill="#40D98D"/>
<path d="M60.7015 163.603V158.142H59.0723V165.232C59.9721 165.232 60.7015 164.502 60.7015 163.603Z" fill="#25BB71"/>
<path d="M28 131.34C28 130.553 28.5353 129.868 29.2984 129.677L51.9982 124.001V133.43H28V131.34Z" fill="#157DF5"/>
<path d="M75.9961 131.34C75.9961 130.553 75.4608 129.868 74.6977 129.677L51.9979 124.001V133.43H75.9961V131.34Z" fill="#0965CD"/>
<rect x="64" y="159.001" width="20" height="21" rx="3" fill="white"/>
<rect x="67" y="174.001" width="14" height="3" rx="1.5" fill="#25BB71"/>
<rect x="67" y="168.001" width="14" height="3" rx="1.5" fill="#40D98D"/>
<rect x="67" y="162.001" width="14" height="3" rx="1.5" fill="#BFF2D9"/>
<defs>
<filter id="filter0_dd_11513_76198" x="6" y="9" width="100" height="100" filterUnits="userSpaceOnUse" color-interpolation-filters="sRGB">
<feFlood flood-opacity="0" result="BackgroundImageFix"/>
<feColorMatrix in="SourceAlpha" type="matrix" values="0 0 0 0 0 0 0 0 0 0 0 0 0 0 0 0 0 0 127 0" result="hardAlpha"/>
<feOffset dy="3"/>
<feGaussianBlur stdDeviation="5"/>
<feColorMatrix type="matrix" values="0 0 0 0 0.516667 0 0 0 0 0.578358 0 0 0 0 0.775 0 0 0 0.12 0"/>
<feBlend mode="normal" in2="BackgroundImageFix" result="effect1_dropShadow_11513_76198"/>
<feColorMatrix in="SourceAlpha" type="matrix" values="0 0 0 0 0 0 0 0 0 0 0 0 0 0 0 0 0 0 127 0" result="hardAlpha"/>
<feOffset dy="1"/>
<feGaussianBlur stdDeviation="3"/>
<feColorMatrix type="matrix" values="0 0 0 0 0.709809 0 0 0 0 0.788943 0 0 0 0 0.920833 0 0 0 0.15 0"/>
<feBlend mode="normal" in2="effect1_dropShadow_11513_76198" result="effect2_dropShadow_11513_76198"/>
<feBlend mode="normal" in="SourceGraphic" in2="effect2_dropShadow_11513_76198" result="shape"/>
</filter>
</defs>
</svg>
