<svg width="112" height="208" viewBox="0 0 112 208" fill="none" xmlns="http://www.w3.org/2000/svg">
<rect x="0.5" y="0.5" width="111" height="207" rx="4.5" stroke="#9747FF" stroke-dasharray="10 5"/>
<g filter="url(#filter0_dd_6822_30017)">
<rect x="16" y="16" width="80" height="80" rx="8" fill="white"/>
</g>
<rect x="28" y="37.4297" width="23.9982" height="38.5715" fill="#157DF5"/>
<rect x="51.998" y="37.4297" width="23.9982" height="38.5715" fill="#0965CD"/>
<path d="M33.1533 43.1602H70.534V55.2098H33.1533V43.1602Z" fill="#E2EFFE"/>
<path d="M51.9609 43.1602H70.5348V55.2098H51.9609V43.1602Z" fill="#B6D7FC"/>
<path d="M71.5621 41.332H32.6419C32.0252 41.332 31.5254 41.832 31.5254 42.4486V75.9975H72.6652V42.4351C72.6651 41.826 72.1713 41.332 71.5621 41.332ZM34.6758 50.7858H69.5146V53.9394H34.6758V50.7858ZM69.5146 44.4828V47.635H34.6758V44.4828H69.5146Z" fill="#F0F7FE"/>
<path d="M71.5629 41.332H51.9609V44.4828H69.5154V47.635H51.9609V50.7858H69.5154V53.9394H51.9609V75.9976H72.666V42.4351C72.666 41.8259 72.1722 41.332 71.5629 41.332Z" fill="#E2EFFE"/>
<path d="M34.6768 57.0898H69.5155V75.9953H34.6768V57.0898Z" fill="#282A52"/>
<path d="M51.9609 57.0898H69.5154V75.9953H51.9609V57.0898Z" fill="#1E203E"/>
<path d="M43.5769 62.8732V62.1484H38.4784C38.0891 62.1484 37.7734 62.4641 37.7734 62.8534V75.9887H44.8685V62.8732H43.5769Z" fill="#157DF5"/>
<path d="M51.9604 75.989V62.8534C51.9604 62.4641 51.6448 62.1484 51.2554 62.1484H46.1607V62.8732H44.8691V75.9888H51.9604" fill="#0965CD"/>
<path d="M44.8707 69.2847H44.8645C43.961 69.2847 43.2285 68.5523 43.2285 67.6489V62.1523H46.5067V67.6489C46.5067 68.5523 45.7742 69.2847 44.8707 69.2847Z" fill="#40D98D"/>
<path d="M46.5082 67.6576V62.1641H44.8691V69.2965C45.7744 69.2965 46.5082 68.5628 46.5082 67.6576Z" fill="#25BB71"/>
<path d="M57.7626 62.8732V62.1484H52.7263C52.3025 62.1484 51.959 62.492 51.959 62.9157V75.9887H59.0541V62.8732H57.7626Z" fill="#157DF5"/>
<path d="M66.1458 75.989V62.8534C66.1458 62.4641 65.8302 62.1484 65.4409 62.1484H60.3462V62.8732H59.0547V75.9888L66.1458 75.989Z" fill="#0965CD"/>
<path d="M59.0541 69.2418H59.0481C58.1499 69.2418 57.4219 68.5138 57.4219 67.6158V62.1523H60.6803V67.6158C60.6803 68.5138 59.9523 69.2418 59.0541 69.2418Z" fill="#40D98D"/>
<path d="M60.7015 67.6168V62.1562H59.0723V69.2459C59.9721 69.2459 60.7015 68.5164 60.7015 67.6168Z" fill="#25BB71"/>
<path d="M28 35.3384C28 34.5518 28.5353 33.8662 29.2984 33.6754L51.9982 28V37.4286H28V35.3384Z" fill="#157DF5"/>
<path d="M75.9961 35.3384C75.9961 34.5518 75.4608 33.8662 74.6977 33.6754L51.9979 28V37.4286H75.9961V35.3384Z" fill="#0965CD"/>
<path d="M70.4997 59.9998C68.8122 59.9998 67.2168 60.3995 65.8032 61.1102C62.3652 62.8365 59.9998 66.3969 59.9998 70.5C59.9998 72.7725 60.7259 74.8796 61.9586 76.5999C62.4617 77.3037 63.0509 77.9438 63.7099 78.5029C65.5413 80.0604 67.9128 81.0002 70.4997 81.0002C76.2893 81.0002 80.9999 76.2898 80.9999 70.5C80.9999 66.3969 78.6344 62.8365 75.1965 61.1102C73.7829 60.3995 72.1872 59.9998 70.4997 59.9998Z" fill="#40D98D"/>
<path d="M80.9999 70.5C80.9999 76.2898 76.2897 81.0002 70.5 81.0002V59.9998C72.1875 59.9998 73.7829 60.3995 75.1965 61.1102C78.6345 62.8365 80.9999 66.3969 80.9999 70.5Z" fill="#25BB71"/>
<path d="M70.5016 64.1978L71.6086 68.4393L70.5016 72.6808L69.4136 71.5927C69.1254 71.3046 68.9634 70.9128 68.9634 70.5047V65.736C68.9634 64.8869 69.6525 64.1978 70.5016 64.1978Z" fill="white"/>
<path d="M73.943 73.9453C73.6425 74.2458 73.2487 74.3965 72.8559 74.3965C72.4621 74.3965 72.0684 74.2458 71.7679 73.9453L70.5024 72.6808V64.1978C71.3515 64.1978 72.0407 64.8869 72.0407 65.736V69.8678L73.943 71.7702C74.5439 72.3711 74.5439 73.3453 73.943 73.9453Z" fill="#F0F7FE"/>
<path fill-rule="evenodd" clip-rule="evenodd" d="M84 70.5C84 77.9558 77.9558 84 70.5 84C63.0442 84 57 77.9558 57 70.5C57 63.0442 63.0442 57 70.5 57C77.9558 57 84 63.0442 84 70.5ZM70.5 81C76.299 81 81 76.299 81 70.5C81 64.701 76.299 60 70.5 60C64.701 60 60 64.701 60 70.5C60 76.299 64.701 81 70.5 81Z" fill="white"/>
<rect x="28" y="133.43" width="23.9982" height="38.5715" fill="#157DF5"/>
<rect x="51.998" y="133.43" width="23.9982" height="38.5715" fill="#0965CD"/>
<path d="M33.1533 139.16H70.534V151.21H33.1533V139.16Z" fill="#E2EFFE"/>
<path d="M51.9609 139.16H70.5348V151.21H51.9609V139.16Z" fill="#B6D7FC"/>
<path d="M71.5621 137.332H32.6419C32.0252 137.332 31.5254 137.832 31.5254 138.449V171.998H72.6652V138.435C72.6651 137.826 72.1713 137.332 71.5621 137.332ZM34.6758 146.786H69.5146V149.939H34.6758V146.786ZM69.5146 140.483V143.635H34.6758V140.483H69.5146Z" fill="#F0F7FE"/>
<path d="M71.5629 137.332H51.9609V140.483H69.5154V143.635H51.9609V146.786H69.5154V149.939H51.9609V171.998H72.666V138.435C72.666 137.826 72.1722 137.332 71.5629 137.332Z" fill="#E2EFFE"/>
<path d="M34.6768 153.09H69.5155V171.995H34.6768V153.09Z" fill="#282A52"/>
<path d="M51.9609 153.09H69.5154V171.995H51.9609V153.09Z" fill="#1E203E"/>
<path d="M43.5769 158.873V158.148H38.4784C38.0891 158.148 37.7734 158.464 37.7734 158.853V171.989H44.8685V158.873H43.5769Z" fill="#157DF5"/>
<path d="M51.9604 171.989V158.853C51.9604 158.464 51.6448 158.148 51.2554 158.148H46.1607V158.873H44.8691V171.989H51.9604" fill="#0965CD"/>
<path d="M44.8707 165.285H44.8645C43.961 165.285 43.2285 164.552 43.2285 163.649V158.152H46.5067V163.649C46.5067 164.552 45.7742 165.285 44.8707 165.285Z" fill="#40D98D"/>
<path d="M46.5082 163.658V158.164H44.8691V165.297C45.7744 165.297 46.5082 164.563 46.5082 163.658Z" fill="#25BB71"/>
<path d="M57.7626 158.873V158.148H52.7263C52.3025 158.148 51.959 158.492 51.959 158.916V171.989H59.0541V158.873H57.7626Z" fill="#157DF5"/>
<path d="M66.1458 171.989V158.853C66.1458 158.464 65.8302 158.148 65.4409 158.148H60.3462V158.873H59.0547V171.989L66.1458 171.989Z" fill="#0965CD"/>
<path d="M59.0541 165.242H59.0481C58.1499 165.242 57.4219 164.514 57.4219 163.616V158.152H60.6803V163.616C60.6803 164.514 59.9523 165.242 59.0541 165.242Z" fill="#40D98D"/>
<path d="M60.7015 163.617V158.156H59.0723V165.246C59.9721 165.246 60.7015 164.516 60.7015 163.617Z" fill="#25BB71"/>
<path d="M28 131.338C28 130.552 28.5353 129.866 29.2984 129.675L51.9982 124V133.429H28V131.338Z" fill="#157DF5"/>
<path d="M75.9961 131.338C75.9961 130.552 75.4608 129.866 74.6977 129.675L51.9979 124V133.429H75.9961V131.338Z" fill="#0965CD"/>
<path d="M70.4997 156C68.8122 156 67.2168 156.399 65.8032 157.11C62.3652 158.837 59.9998 162.397 59.9998 166.5C59.9998 168.772 60.7259 170.88 61.9586 172.6C62.4617 173.304 63.0509 173.944 63.7099 174.503C65.5413 176.06 67.9128 177 70.4997 177C76.2893 177 80.9999 172.29 80.9999 166.5C80.9999 162.397 78.6344 158.837 75.1965 157.11C73.7829 156.399 72.1872 156 70.4997 156Z" fill="#40D98D"/>
<path d="M80.9999 166.5C80.9999 172.29 76.2897 177 70.5 177V156C72.1875 156 73.7829 156.399 75.1965 157.11C78.6345 158.837 80.9999 162.397 80.9999 166.5Z" fill="#25BB71"/>
<path d="M70.5016 160.198L71.6086 164.439L70.5016 168.681L69.4136 167.593C69.1254 167.305 68.9634 166.913 68.9634 166.505V161.736C68.9634 160.887 69.6525 160.198 70.5016 160.198Z" fill="white"/>
<path d="M73.943 169.945C73.6425 170.246 73.2487 170.397 72.8559 170.397C72.4621 170.397 72.0684 170.246 71.7679 169.945L70.5024 168.681V160.198C71.3515 160.198 72.0407 160.887 72.0407 161.736V165.868L73.943 167.77C74.5439 168.371 74.5439 169.345 73.943 169.945Z" fill="#F0F7FE"/>
<path fill-rule="evenodd" clip-rule="evenodd" d="M84 166.5C84 173.956 77.9558 180 70.5 180C63.0442 180 57 173.956 57 166.5C57 159.044 63.0442 153 70.5 153C77.9558 153 84 159.044 84 166.5ZM70.5 177C76.299 177 81 172.299 81 166.5C81 160.701 76.299 156 70.5 156C64.701 156 60 160.701 60 166.5C60 172.299 64.701 177 70.5 177Z" fill="white"/>
<defs>
<filter id="filter0_dd_6822_30017" x="6" y="9" width="100" height="100" filterUnits="userSpaceOnUse" color-interpolation-filters="sRGB">
<feFlood flood-opacity="0" result="BackgroundImageFix"/>
<feColorMatrix in="SourceAlpha" type="matrix" values="0 0 0 0 0 0 0 0 0 0 0 0 0 0 0 0 0 0 127 0" result="hardAlpha"/>
<feOffset dy="3"/>
<feGaussianBlur stdDeviation="5"/>
<feColorMatrix type="matrix" values="0 0 0 0 0.516667 0 0 0 0 0.578358 0 0 0 0 0.775 0 0 0 0.12 0"/>
<feBlend mode="normal" in2="BackgroundImageFix" result="effect1_dropShadow_6822_30017"/>
<feColorMatrix in="SourceAlpha" type="matrix" values="0 0 0 0 0 0 0 0 0 0 0 0 0 0 0 0 0 0 127 0" result="hardAlpha"/>
<feOffset dy="1"/>
<feGaussianBlur stdDeviation="3"/>
<feColorMatrix type="matrix" values="0 0 0 0 0.709809 0 0 0 0 0.788943 0 0 0 0 0.920833 0 0 0 0.15 0"/>
<feBlend mode="normal" in2="effect1_dropShadow_6822_30017" result="effect2_dropShadow_6822_30017"/>
<feBlend mode="normal" in="SourceGraphic" in2="effect2_dropShadow_6822_30017" result="shape"/>
</filter>
</defs>
</svg>
