<svg width="112" height="208" viewBox="0 0 112 208" fill="none" xmlns="http://www.w3.org/2000/svg">
<rect x="0.5" y="0.5" width="111" height="207" rx="4.5" stroke="#9747FF" stroke-dasharray="10 5"/>
<g filter="url(#filter0_d_17669_11174)">
<rect x="16" y="16" width="80" height="80" rx="8" fill="white"/>
</g>
<path d="M56 84H74.1739C76.287 84 78 82.3285 78 80.2667V31.7333C78 29.6715 76.287 28 74.1739 28H56V84Z" fill="#B6D7FC"/>
<path d="M37.8261 28H74.1739C76.287 28 78 29.6715 78 31.7333V80.2667C78 82.3285 76.287 84 74.1739 84H37.8261C35.713 84 34 82.3285 34 80.2667V31.7333C34 29.6715 35.713 28 37.8261 28Z" fill="#157DF5"/>
<path d="M38 33C38 32.4477 38.4477 32 39 32H73C73.5523 32 74 32.4477 74 33V73C74 73.5523 73.5523 74 73 74H39C38.4477 74 38 73.5523 38 73V33Z" fill="#E2EFFE"/>
<path d="M41 37C41 35.8954 41.8954 35 43 35H51C52.1046 35 53 35.8954 53 37V41C53 42.1046 52.1046 43 51 43H43C41.8954 43 41 42.1046 41 41V37Z" fill="#B6D7FC"/>
<path d="M41 47.5C41 46.6716 41.6716 46 42.5 46H47.5C48.3284 46 49 46.6716 49 47.5C49 48.3284 48.3284 49 47.5 49H42.5C41.6716 49 41 48.3284 41 47.5Z" fill="#40D98D"/>
<path d="M41 53.5C41 52.6716 41.6716 52 42.5 52H47.5C48.3284 52 49 52.6716 49 53.5C49 54.3284 48.3284 55 47.5 55H42.5C41.6716 55 41 54.3284 41 53.5Z" fill="#B6D7FC"/>
<path d="M56 74H73C73.5523 74 74 73.5523 74 73V33C74 32.4477 73.5523 32 73 32H56V74Z" fill="#B6D7FC"/>
<path d="M68 36C68 35.4477 68.4477 35 69 35H70C70.5523 35 71 35.4477 71 36V37C71 37.5523 70.5523 38 70 38H69C68.4477 38 68 37.5523 68 37V36Z" fill="#40D98D"/>
<path d="M63 36C63 35.4477 63.4477 35 64 35H65C65.5523 35 66 35.4477 66 36V37C66 37.5523 65.5523 38 65 38H64C63.4477 38 63 37.5523 63 37V36Z" fill="#282A52"/>
<path d="M53 79C53 77.8954 53.8954 77 55 77H56V81H55C53.8954 81 53 80.1046 53 79Z" fill="#40D98D"/>
<path d="M56 77H57C58.1046 77 59 77.8954 59 79C59 80.1046 58.1046 81 57 81H56V77Z" fill="#25BB71"/>
<path d="M56 180H74.1739C76.287 180 78 178.329 78 176.267V127.733C78 125.671 76.287 124 74.1739 124H56V180Z" fill="#B6D7FC"/>
<path d="M37.8261 124H74.1739C76.287 124 78 125.671 78 127.733V176.267C78 178.329 76.287 180 74.1739 180H37.8261C35.713 180 34 178.329 34 176.267V127.733C34 125.671 35.713 124 37.8261 124Z" fill="#157DF5"/>
<path d="M38 129C38 128.448 38.4477 128 39 128H73C73.5523 128 74 128.448 74 129V169C74 169.552 73.5523 170 73 170H39C38.4477 170 38 169.552 38 169V129Z" fill="#E2EFFE"/>
<path d="M41 133C41 131.895 41.8954 131 43 131H51C52.1046 131 53 131.895 53 133V137C53 138.105 52.1046 139 51 139H43C41.8954 139 41 138.105 41 137V133Z" fill="#B6D7FC"/>
<path d="M41 143.5C41 142.672 41.6716 142 42.5 142H47.5C48.3284 142 49 142.672 49 143.5C49 144.328 48.3284 145 47.5 145H42.5C41.6716 145 41 144.328 41 143.5Z" fill="#40D98D"/>
<path d="M41 149.5C41 148.672 41.6716 148 42.5 148H47.5C48.3284 148 49 148.672 49 149.5C49 150.328 48.3284 151 47.5 151H42.5C41.6716 151 41 150.328 41 149.5Z" fill="#B6D7FC"/>
<path d="M56 170H73C73.5523 170 74 169.552 74 169V129C74 128.448 73.5523 128 73 128H56V170Z" fill="#B6D7FC"/>
<path d="M68 132C68 131.448 68.4477 131 69 131H70C70.5523 131 71 131.448 71 132V133C71 133.552 70.5523 134 70 134H69C68.4477 134 68 133.552 68 133V132Z" fill="#40D98D"/>
<path d="M63 132C63 131.448 63.4477 131 64 131H65C65.5523 131 66 131.448 66 132V133C66 133.552 65.5523 134 65 134H64C63.4477 134 63 133.552 63 133V132Z" fill="#282A52"/>
<path d="M53 175C53 173.895 53.8954 173 55 173H56V177H55C53.8954 177 53 176.105 53 175Z" fill="#40D98D"/>
<path d="M56 173H57C58.1046 173 59 173.895 59 175C59 176.105 58.1046 177 57 177H56V173Z" fill="#25BB71"/>
<defs>
<filter id="filter0_d_17669_11174" x="10" y="9" width="96" height="96" filterUnits="userSpaceOnUse" color-interpolation-filters="sRGB">
<feFlood flood-opacity="0" result="BackgroundImageFix"/>
<feColorMatrix in="SourceAlpha" type="matrix" values="0 0 0 0 0 0 0 0 0 0 0 0 0 0 0 0 0 0 127 0" result="hardAlpha"/>
<feOffset dx="2" dy="1"/>
<feGaussianBlur stdDeviation="4"/>
<feColorMatrix type="matrix" values="0 0 0 0 0.0392157 0 0 0 0 0.0392157 0 0 0 0 0.0627451 0 0 0 0.08 0"/>
<feBlend mode="normal" in2="BackgroundImageFix" result="effect1_dropShadow_17669_11174"/>
<feBlend mode="normal" in="SourceGraphic" in2="effect1_dropShadow_17669_11174" result="shape"/>
</filter>
</defs>
</svg>
