<svg width="112" height="208" viewBox="0 0 112 208" fill="none" xmlns="http://www.w3.org/2000/svg">
<rect x="0.5" y="0.5" width="111" height="207" rx="4.5" stroke="#9747FF" stroke-dasharray="10 5"/>
<g filter="url(#filter0_dd_29753_11856)">
<rect x="16" y="16" width="80" height="80" rx="8" fill="white"/>
</g>
<path d="M36 34.0496C36 32.3653 37.3431 31 39 31H81C82.6569 31 84 32.3653 84 34.0496V70.6442C84 72.3284 82.6569 73.6938 81 73.6938H39C37.3431 73.6938 36 72.3284 36 70.6442V34.0496Z" fill="#B6D7FC"/>
<path d="M73.0938 43.8335H52H30.8125L28 46.6925V79.5705C28 80.3599 28.6296 81 29.4062 81H52H74.5938C75.3704 81 76 80.3599 76 79.5705V46.6925L73.0938 43.8335Z" fill="#F0F7FE"/>
<path d="M76 79.5705V46.6925L73.0938 43.8335H52V81H74.5938C75.3704 81 76 80.3599 76 79.5705Z" fill="#E2EFFE"/>
<path d="M74.5938 38.1157H52H44.9688L42.1562 39.9076V45.2631L44.9688 46.6926H52H76V39.5452C76 38.7556 75.3704 38.1157 74.5938 38.1157Z" fill="#157DF5"/>
<path d="M76 39.5452C76 38.7556 75.3704 38.1157 74.5938 38.1157H52V46.6926H76V39.5452Z" fill="#0965CD"/>
<path d="M39.3438 38.1157L36.5312 39.817V44.7598L39.3438 46.6926H44.9688V38.1157H39.3438Z" fill="#B6D7FC"/>
<path d="M33.7188 46.6926H39.3438V38.1157H33.7188L30.8125 39.7264V45.2631L33.7188 46.6926Z" fill="#E2EFFE"/>
<path d="M29.4062 38.1157C28.6296 38.1157 28 38.7556 28 39.5452V46.6926H33.7188V38.1157H29.4062Z" fill="#157DF5"/>
<path d="M68.875 50.981H35.125C34.3374 50.981 33.7188 51.6098 33.7188 52.4104V63.8463C33.7188 64.6467 34.3374 65.2757 35.125 65.2757H68.875C69.6626 65.2757 70.2812 64.6467 70.2812 63.8463V52.4104C70.2812 51.6098 69.6626 50.981 68.875 50.981Z" fill="#E2EFFE"/>
<path d="M70.2812 52.4104V63.8463C70.2812 64.6467 69.6626 65.2757 68.875 65.2757H52V50.981H68.875C69.6626 50.981 70.2812 51.6098 70.2812 52.4104Z" fill="#B6D7FC"/>
<path d="M46.375 59.6531C47.2034 59.6531 47.875 58.9704 47.875 58.1283C47.875 57.2862 47.2034 56.6035 46.375 56.6035C45.5466 56.6035 44.875 57.2862 44.875 58.1283C44.875 58.9704 45.5466 59.6531 46.375 59.6531Z" fill="#40D98D"/>
<path d="M52 59.6531C52.8284 59.6531 53.5 58.9704 53.5 58.1283C53.5 57.2862 52.8284 56.6035 52 56.6035C51.1716 56.6035 50.5 57.2862 50.5 58.1283C50.5 58.9704 51.1716 59.6531 52 59.6531Z" fill="#40D98D"/>
<path d="M57.625 59.6531C58.4534 59.6531 59.125 58.9704 59.125 58.1283C59.125 57.2862 58.4534 56.6035 57.625 56.6035C56.7966 56.6035 56.125 57.2862 56.125 58.1283C56.125 58.9704 56.7966 59.6531 57.625 59.6531Z" fill="#25BB71"/>
<path d="M46.375 76.7116H35.125C34.3477 76.7116 33.7188 76.0723 33.7188 75.2822V69.5642C33.7188 68.7741 34.3477 68.1348 35.125 68.1348H46.375C47.1523 68.1348 47.7812 68.7741 47.7812 69.5642V75.2822C47.7812 76.0723 47.1523 76.7116 46.375 76.7116Z" fill="#157DF5"/>
<path d="M68.875 76.7116H63.25C62.4727 76.7116 61.8438 76.0723 61.8438 75.2822V69.5642C61.8438 68.7741 62.4727 68.1348 63.25 68.1348H68.875C69.6523 68.1348 70.2812 68.7741 70.2812 69.5642V75.2822C70.2812 76.0723 69.6523 76.7116 68.875 76.7116Z" fill="#25BB71"/>
<path d="M57.625 68.1348H52C51.2124 68.1348 50.5938 68.7636 50.5938 69.5642V75.2822C50.5938 76.0826 51.2124 76.7116 52 76.7116H57.625C58.4126 76.7116 59.0312 76.0826 59.0312 75.2822V69.5642C59.0312 68.7636 58.4126 68.1348 57.625 68.1348Z" fill="#40D98D"/>
<path d="M59.0312 69.5642V75.2822C59.0312 76.0826 58.4126 76.7116 57.625 76.7116H52V68.1348H57.625C58.4126 68.1348 59.0312 68.7636 59.0312 69.5642Z" fill="#25BB71"/>
<path d="M53.5 58.1283C53.5 58.9821 52.8401 59.6531 52 59.6531V56.6035C52.8401 56.6035 53.5 57.2743 53.5 58.1283Z" fill="#25BB71"/>
<path d="M36 130.05C36 128.365 37.3431 127 39 127H81C82.6569 127 84 128.365 84 130.05V166.644C84 168.328 82.6569 169.694 81 169.694H39C37.3431 169.694 36 168.328 36 166.644V130.05Z" fill="#B6D7FC"/>
<path d="M73.0938 139.833H52H30.8125L28 142.692V175.57C28 176.36 28.6296 177 29.4062 177H52H74.5938C75.3704 177 76 176.36 76 175.57V142.692L73.0938 139.833Z" fill="#F0F7FE"/>
<path d="M76 175.57V142.692L73.0938 139.833H52V177H74.5938C75.3704 177 76 176.36 76 175.57Z" fill="#E2EFFE"/>
<path d="M74.5938 134.116H52H44.9688L42.1562 135.908V141.263L44.9688 142.693H52H76V135.545C76 134.756 75.3704 134.116 74.5938 134.116Z" fill="#157DF5"/>
<path d="M76 135.545C76 134.756 75.3704 134.116 74.5938 134.116H52V142.693H76V135.545Z" fill="#0965CD"/>
<path d="M39.3438 134.116L36.5312 135.817V140.76L39.3438 142.693H44.9688V134.116H39.3438Z" fill="#B6D7FC"/>
<path d="M33.7188 142.693H39.3438V134.116H33.7188L30.8125 135.726V141.263L33.7188 142.693Z" fill="#E2EFFE"/>
<path d="M29.4062 134.116C28.6296 134.116 28 134.756 28 135.545V142.693H33.7188V134.116H29.4062Z" fill="#157DF5"/>
<path d="M68.875 146.981H35.125C34.3374 146.981 33.7188 147.61 33.7188 148.41V159.846C33.7188 160.647 34.3374 161.276 35.125 161.276H68.875C69.6626 161.276 70.2812 160.647 70.2812 159.846V148.41C70.2812 147.61 69.6626 146.981 68.875 146.981Z" fill="#E2EFFE"/>
<path d="M70.2812 148.41V159.846C70.2812 160.647 69.6626 161.276 68.875 161.276H52V146.981H68.875C69.6626 146.981 70.2812 147.61 70.2812 148.41Z" fill="#B6D7FC"/>
<path d="M46.375 155.653C47.2034 155.653 47.875 154.97 47.875 154.128C47.875 153.286 47.2034 152.604 46.375 152.604C45.5466 152.604 44.875 153.286 44.875 154.128C44.875 154.97 45.5466 155.653 46.375 155.653Z" fill="#40D98D"/>
<path d="M52 155.653C52.8284 155.653 53.5 154.97 53.5 154.128C53.5 153.286 52.8284 152.604 52 152.604C51.1716 152.604 50.5 153.286 50.5 154.128C50.5 154.97 51.1716 155.653 52 155.653Z" fill="#40D98D"/>
<path d="M57.625 155.653C58.4534 155.653 59.125 154.97 59.125 154.128C59.125 153.286 58.4534 152.604 57.625 152.604C56.7966 152.604 56.125 153.286 56.125 154.128C56.125 154.97 56.7966 155.653 57.625 155.653Z" fill="#25BB71"/>
<path d="M46.375 172.712H35.125C34.3477 172.712 33.7188 172.072 33.7188 171.282V165.564C33.7188 164.774 34.3477 164.135 35.125 164.135H46.375C47.1523 164.135 47.7812 164.774 47.7812 165.564V171.282C47.7812 172.072 47.1523 172.712 46.375 172.712Z" fill="#157DF5"/>
<path d="M68.875 172.712H63.25C62.4727 172.712 61.8438 172.072 61.8438 171.282V165.564C61.8438 164.774 62.4727 164.135 63.25 164.135H68.875C69.6523 164.135 70.2812 164.774 70.2812 165.564V171.282C70.2812 172.072 69.6523 172.712 68.875 172.712Z" fill="#25BB71"/>
<path d="M57.625 164.135H52C51.2124 164.135 50.5938 164.764 50.5938 165.564V171.282C50.5938 172.083 51.2124 172.712 52 172.712H57.625C58.4126 172.712 59.0312 172.083 59.0312 171.282V165.564C59.0312 164.764 58.4126 164.135 57.625 164.135Z" fill="#40D98D"/>
<path d="M59.0312 165.564V171.282C59.0312 172.083 58.4126 172.712 57.625 172.712H52V164.135H57.625C58.4126 164.135 59.0312 164.764 59.0312 165.564Z" fill="#25BB71"/>
<path d="M53.5 154.128C53.5 154.982 52.8401 155.653 52 155.653V152.604C52.8401 152.604 53.5 153.274 53.5 154.128Z" fill="#25BB71"/>
<defs>
<filter id="filter0_dd_29753_11856" x="6" y="9" width="100" height="100" filterUnits="userSpaceOnUse" color-interpolation-filters="sRGB">
<feFlood flood-opacity="0" result="BackgroundImageFix"/>
<feColorMatrix in="SourceAlpha" type="matrix" values="0 0 0 0 0 0 0 0 0 0 0 0 0 0 0 0 0 0 127 0" result="hardAlpha"/>
<feOffset dy="3"/>
<feGaussianBlur stdDeviation="5"/>
<feColorMatrix type="matrix" values="0 0 0 0 0.516667 0 0 0 0 0.578358 0 0 0 0 0.775 0 0 0 0.12 0"/>
<feBlend mode="normal" in2="BackgroundImageFix" result="effect1_dropShadow_29753_11856"/>
<feColorMatrix in="SourceAlpha" type="matrix" values="0 0 0 0 0 0 0 0 0 0 0 0 0 0 0 0 0 0 127 0" result="hardAlpha"/>
<feOffset dy="1"/>
<feGaussianBlur stdDeviation="3"/>
<feColorMatrix type="matrix" values="0 0 0 0 0.709809 0 0 0 0 0.788943 0 0 0 0 0.920833 0 0 0 0.15 0"/>
<feBlend mode="normal" in2="effect1_dropShadow_29753_11856" result="effect2_dropShadow_29753_11856"/>
<feBlend mode="normal" in="SourceGraphic" in2="effect2_dropShadow_29753_11856" result="shape"/>
</filter>
</defs>
</svg>
