<svg width="112" height="208" viewBox="0 0 112 208" fill="none" xmlns="http://www.w3.org/2000/svg">
<rect x="0.5" y="0.5" width="111" height="207" rx="4.5" stroke="#9747FF" stroke-dasharray="10 5"/>
<g filter="url(#filter0_d_58767_11532)">
<rect x="16" y="16" width="80" height="80" rx="8" fill="white"/>
</g>
<path d="M82.0805 82.0662C80.8336 83.3129 79.193 84.0021 77.4211 84.0021C75.682 84.0021 74.0414 83.3129 72.7945 82.0662L53.2603 62.5318L62.5462 53.2461L82.0805 72.7803C84.6398 75.3396 84.6398 79.5068 82.0805 82.0662Z" fill="#0965CD"/>
<path d="M82.0805 82.0641C80.8336 83.3108 79.193 83.9999 77.4211 83.9999C75.6819 83.9999 74.0413 83.3108 72.7944 82.0641L53.2602 62.5297L57.8211 57.9688L82.0805 82.0641Z" fill="#157DF5"/>
<path d="M76.9618 76.9476H76.929C76.6008 77.2759 76.207 77.4399 75.7805 77.4399C75.354 77.4399 74.9602 77.2759 74.632 76.9476L61.9227 64.2712C61.3319 63.6478 61.2993 62.6306 61.857 62.0071C61.8898 61.9743 61.8898 61.9743 61.9227 61.9414C62.5789 61.2852 63.6289 61.2852 64.2523 61.9414L76.9618 74.6181C77.5852 75.2744 77.5852 76.3244 76.9618 76.9476Z" fill="#25BB71"/>
<path d="M76.9288 76.9483C76.6008 77.2765 76.207 77.4406 75.7805 77.4406C75.354 77.4406 74.9602 77.2765 74.632 76.9483L61.9227 64.2719C61.3319 63.6484 61.2993 62.6312 61.857 62.0078L76.9288 76.9483Z" fill="#40D98D"/>
<path d="M58.2149 53.474L55.754 55.935L53.5882 58.1336L36.179 40.3142L40.8056 35.6875L58.2149 53.474Z" fill="#B6D7FC"/>
<path d="M53.5882 58.1344L36.179 40.3149L38.2791 38.2148L55.754 55.9357L53.5882 58.1344Z" fill="#9DC9FB"/>
<path d="M42.3477 36.0151L39.2305 39.1649L36.0478 42.3479C35.293 43.1024 34.0135 42.9385 33.4555 42.0196C31.5855 38.8697 30.1417 36.4743 28.2385 33.3244C27.8447 32.6682 27.9431 31.8479 28.5011 31.3229L31.323 28.5008C31.8478 27.9431 32.6682 27.8447 33.3245 28.2384C36.4746 30.1414 38.8698 31.5852 42.0199 33.4555C42.9383 34.0133 43.1024 35.2602 42.3477 36.0151Z" fill="#B6D7FC"/>
<path d="M29.9119 29.9141L39.2305 39.1672L36.0478 42.3501C35.293 43.1047 34.0134 42.9407 33.4555 42.0219C31.5854 38.872 30.1416 36.4766 28.2384 33.3267C27.8447 32.6704 27.943 31.8501 28.501 31.3251L29.9119 29.9141Z" fill="#9DC9FB"/>
<path d="M80.6279 47.606C77.7404 50.4935 73.7702 51.7076 68.6186 50.3295L50.302 68.6437C51.6802 73.7624 50.4989 77.7326 47.5787 80.6529C44.6254 83.6062 40.4583 84.6562 36.5209 83.5732C35.93 83.4419 35.5037 82.9826 35.3723 82.4247C35.2083 81.867 35.3723 81.2435 35.7989 80.8498L40.196 76.4531C41.4755 75.1404 41.4755 73.0733 40.196 71.7936C38.9163 70.514 36.7834 70.5467 35.5365 71.7936L31.1397 76.2234C30.746 76.6171 30.1226 76.7811 29.5646 76.6499C29.0069 76.4858 28.5474 76.0591 28.4163 75.4686C27.3334 71.5639 28.3835 67.364 31.3366 64.4108C34.2241 61.5233 38.2271 60.3092 43.3459 61.6875L61.6624 43.3733L61.4327 42.4547C60.3498 38.5172 61.4985 34.2516 64.386 31.3641C67.3389 28.4108 71.5061 27.3279 75.4763 28.4108C76.0343 28.5749 76.4608 29.0343 76.6249 29.5921C76.756 30.15 76.5921 30.7406 76.1983 31.1672L71.7688 35.5639C70.4891 36.8766 70.4891 38.9437 71.7688 40.2232C73.0483 41.4701 75.1483 41.4701 76.428 40.2232L80.8248 35.7936C81.2513 35.3999 81.842 35.2359 82.3999 35.3671C82.9576 35.5311 83.4171 35.9577 83.5811 36.5483C84.6311 40.4529 83.581 44.653 80.6279 47.606Z" fill="#B6D7FC"/>
<path d="M80.6278 47.6076C77.7404 50.4951 73.7702 51.7092 68.6186 50.3311L50.3019 68.6453C51.6802 73.764 50.4988 77.7342 47.5786 80.6545C44.6254 83.6078 40.4582 84.6578 36.5208 83.5748C35.93 83.4435 35.5036 82.9842 35.3723 82.4263C35.2082 81.8686 35.3723 81.2451 35.7988 80.8514L40.1959 76.4547C41.4755 75.1421 41.4755 73.0749 40.1959 71.7952L71.7686 40.2248C73.0482 41.4717 75.1482 41.4717 76.4279 40.2248L80.8247 35.7952C81.2513 35.4015 81.8419 35.2375 82.3998 35.3687C82.9575 35.5327 83.417 35.9593 83.5811 36.5499C84.6311 40.4545 83.581 44.6546 80.6278 47.6076Z" fill="#9DC9FB"/>
<path d="M82.0805 178.066C80.8336 179.313 79.193 180.002 77.4211 180.002C75.682 180.002 74.0414 179.313 72.7945 178.066L53.2603 158.532L62.5462 149.246L82.0805 168.78C84.6398 171.34 84.6398 175.507 82.0805 178.066Z" fill="#0965CD"/>
<path d="M82.0805 178.064C80.8336 179.311 79.193 180 77.4211 180C75.6819 180 74.0413 179.311 72.7944 178.064L53.2602 158.53L57.8211 153.969L82.0805 178.064Z" fill="#157DF5"/>
<path d="M76.9618 172.948H76.929C76.6008 173.276 76.207 173.44 75.7805 173.44C75.354 173.44 74.9602 173.276 74.632 172.948L61.9227 160.271C61.3319 159.648 61.2993 158.631 61.857 158.007C61.8898 157.974 61.8898 157.974 61.9227 157.941C62.5789 157.285 63.6289 157.285 64.2523 157.941L76.9618 170.618C77.5852 171.274 77.5852 172.324 76.9618 172.948Z" fill="#25BB71"/>
<path d="M76.9288 172.948C76.6008 173.277 76.207 173.441 75.7805 173.441C75.354 173.441 74.9602 173.277 74.632 172.948L61.9227 160.272C61.3319 159.648 61.2993 158.631 61.857 158.008L76.9288 172.948Z" fill="#40D98D"/>
<path d="M58.2149 149.474L55.754 151.935L53.5882 154.134L36.179 136.314L40.8056 131.688L58.2149 149.474Z" fill="#B6D7FC"/>
<path d="M53.5882 154.134L36.179 136.315L38.2791 134.215L55.754 151.936L53.5882 154.134Z" fill="#9DC9FB"/>
<path d="M42.3477 132.015L39.2305 135.165L36.0478 138.348C35.293 139.102 34.0135 138.938 33.4555 138.02C31.5855 134.87 30.1417 132.474 28.2385 129.324C27.8447 128.668 27.9431 127.848 28.5011 127.323L31.323 124.501C31.8478 123.943 32.6682 123.845 33.3245 124.238C36.4746 126.141 38.8698 127.585 42.0199 129.455C42.9383 130.013 43.1024 131.26 42.3477 132.015Z" fill="#B6D7FC"/>
<path d="M29.9119 125.914L39.2305 135.167L36.0478 138.35C35.293 139.105 34.0134 138.941 33.4555 138.022C31.5854 134.872 30.1416 132.477 28.2384 129.327C27.8447 128.67 27.943 127.85 28.501 127.325L29.9119 125.914Z" fill="#9DC9FB"/>
<path d="M80.6279 143.606C77.7404 146.493 73.7702 147.708 68.6186 146.33L50.302 164.644C51.6802 169.762 50.4989 173.733 47.5787 176.653C44.6254 179.606 40.4583 180.656 36.5209 179.573C35.93 179.442 35.5037 178.983 35.3723 178.425C35.2083 177.867 35.3723 177.243 35.7989 176.85L40.196 172.453C41.4755 171.14 41.4755 169.073 40.196 167.794C38.9163 166.514 36.7834 166.547 35.5365 167.794L31.1397 172.223C30.746 172.617 30.1226 172.781 29.5646 172.65C29.0069 172.486 28.5474 172.059 28.4163 171.469C27.3334 167.564 28.3835 163.364 31.3366 160.411C34.2241 157.523 38.2271 156.309 43.3459 157.687L61.6624 139.373L61.4327 138.455C60.3498 134.517 61.4985 130.252 64.386 127.364C67.3389 124.411 71.5061 123.328 75.4763 124.411C76.0343 124.575 76.4608 125.034 76.6249 125.592C76.756 126.15 76.5921 126.741 76.1983 127.167L71.7688 131.564C70.4891 132.877 70.4891 134.944 71.7688 136.223C73.0483 137.47 75.1483 137.47 76.428 136.223L80.8248 131.794C81.2513 131.4 81.842 131.236 82.3999 131.367C82.9576 131.531 83.4171 131.958 83.5811 132.548C84.6311 136.453 83.581 140.653 80.6279 143.606Z" fill="#B6D7FC"/>
<path d="M80.6278 143.608C77.7404 146.495 73.7702 147.709 68.6186 146.331L50.3019 164.645C51.6802 169.764 50.4988 173.734 47.5786 176.655C44.6254 179.608 40.4582 180.658 36.5208 179.575C35.93 179.443 35.5036 178.984 35.3723 178.426C35.2082 177.869 35.3723 177.245 35.7988 176.851L40.1959 172.455C41.4755 171.142 41.4755 169.075 40.1959 167.795L71.7686 136.225C73.0482 137.472 75.1482 137.472 76.4279 136.225L80.8247 131.795C81.2513 131.401 81.8419 131.238 82.3998 131.369C82.9575 131.533 83.417 131.959 83.5811 132.55C84.6311 136.454 83.581 140.655 80.6278 143.608Z" fill="#9DC9FB"/>
<defs>
<filter id="filter0_d_58767_11532" x="10" y="9" width="96" height="96" filterUnits="userSpaceOnUse" color-interpolation-filters="sRGB">
<feFlood flood-opacity="0" result="BackgroundImageFix"/>
<feColorMatrix in="SourceAlpha" type="matrix" values="0 0 0 0 0 0 0 0 0 0 0 0 0 0 0 0 0 0 127 0" result="hardAlpha"/>
<feOffset dx="2" dy="1"/>
<feGaussianBlur stdDeviation="4"/>
<feColorMatrix type="matrix" values="0 0 0 0 0.0392157 0 0 0 0 0.0392157 0 0 0 0 0.0627451 0 0 0 0.08 0"/>
<feBlend mode="normal" in2="BackgroundImageFix" result="effect1_dropShadow_58767_11532"/>
<feBlend mode="normal" in="SourceGraphic" in2="effect1_dropShadow_58767_11532" result="shape"/>
</filter>
</defs>
</svg>
