<svg width="112" height="208" viewBox="0 0 112 208" fill="none" xmlns="http://www.w3.org/2000/svg">
<rect x="0.5" y="0.5" width="111" height="207" rx="4.5" stroke="#9747FF" stroke-dasharray="10 5"/>
<g filter="url(#filter0_d_55984_11921)">
<rect x="16" y="16" width="80" height="80" rx="8" fill="white"/>
</g>
<path fill-rule="evenodd" clip-rule="evenodd" d="M75.4227 40V56.8522C80.3883 58.1484 84 62.0932 84 66.7599C84 67.1737 83.9684 67.5821 83.9122 67.9852H75.4227V68H34V58.852C34.0001 56.5038 36.1217 54.5976 38.7421 54.5974H53.8508L57.9978 40H75.4227ZM59.8976 43.0876L57.1086 54.5974H72.6248V43.0876H59.8976Z" fill="#157DF5"/>
<path d="M76 38V40H57V38H76Z" fill="#40D98D"/>
<path d="M76 38V40H67V38H76Z" fill="#25BB71"/>
<path d="M75.4229 56.8526C80.3883 58.1488 84 62.0932 84 66.7598C84 67.1735 83.9683 67.582 83.9121 67.985H75.4229V68H67V54.5972H72.625V43.0872H67V40H75.4229V56.8526Z" fill="#0965CD"/>
<path d="M62 67C62 61.4762 66.4762 57 72 57C77.5238 57 82 61.4762 82 67C82 72.5238 77.5238 77 72 77C66.4762 77 62 72.5238 62 67Z" fill="#323567"/>
<path d="M67 66.9991C67 64.237 69.2389 62 71.9991 62C74.7592 62 77 64.2389 77 66.9991C77 69.7611 74.7611 72 71.9991 72C69.237 72 67 69.7611 67 66.9991Z" fill="#E2EFFE"/>
<path d="M68 66.9992C68 64.7896 69.7911 63 71.9993 63C74.2074 63 76 64.7911 76 66.9992C76 69.2089 74.2089 71 71.9993 71C69.7896 71 68 69.2089 68 66.9992Z" fill="#323567"/>
<path d="M69 66.9994C69 65.3422 70.3433 64 71.9994 64C73.6555 64 75 65.3433 75 66.9994C75 68.6567 73.6567 70 71.9994 70C70.3422 70 69 68.6567 69 66.9994Z" fill="#E2EFFE"/>
<path d="M52 58H34V59H52V58Z" fill="#9DC9FB"/>
<path d="M52 60H34V61H52V60Z" fill="#9DC9FB"/>
<path d="M52 62H34V63H52V62Z" fill="#9DC9FB"/>
<path d="M28 68.9985C28 64.5792 31.5822 61 35.9985 61C40.4148 61 44 64.5822 44 68.9985C44 73.4178 40.4178 77 35.9985 77C31.5792 77 28 73.4178 28 68.9985Z" fill="#323567"/>
<path d="M31 68.9991C31 66.237 33.2389 64 35.9991 64C38.7592 64 41 66.2389 41 68.9991C41 71.7611 38.7611 74 35.9991 74C33.237 74 31 71.7611 31 68.9991Z" fill="#E2EFFE"/>
<path d="M32 68.9992C32 66.7896 33.7911 65 35.9992 65C38.2074 65 40 66.7911 40 68.9992C40 71.2089 38.2089 73 35.9992 73C33.7896 73 32 71.2089 32 68.9992Z" fill="#323567"/>
<path d="M33 68.9994C33 67.3422 34.3433 66 35.9994 66C37.6555 66 39 67.3433 39 68.9994C39 70.6567 37.6567 72 35.9994 72C34.3422 72 33 70.6567 33 68.9994Z" fill="#E2EFFE"/>
<path d="M46 50H44V56H46V50Z" fill="#323567"/>
<path d="M36 61C40.4154 61.0008 43.9998 64.5825 44 68.998C44 73.4168 40.4186 76.9982 36 76.999V61Z" fill="#1E203E"/>
<path d="M36 64C38.7597 64.0005 41 66.2392 41 68.999C41 71.7608 38.7616 73.9985 36 73.999V64Z" fill="#B6D7FC"/>
<path d="M36 65C38.2077 65.0004 39.9999 66.7912 40 68.999C40 71.2084 38.2093 72.9986 36 72.999V65Z" fill="#1E203E"/>
<path d="M36 66C37.6557 66.0003 38.9998 67.3433 39 68.999C39 70.6561 37.657 71.9987 36 71.999V66Z" fill="#B6D7FC"/>
<path d="M72 57C77.5238 57 82 61.4762 82 67C82 72.5238 77.5238 77 72 77V57Z" fill="#1E203E"/>
<path d="M72 62C74.7597 62.0005 77 64.2392 77 66.999C77 69.7608 74.7616 71.9985 72 71.999V62Z" fill="#B6D7FC"/>
<path d="M72 63C74.2077 63.0004 75.9999 64.7912 76 66.999C76 69.2084 74.2093 70.9986 72 70.999V63Z" fill="#1E203E"/>
<path d="M72 64C73.6557 64.0003 74.9998 65.3433 75 66.999C75 68.6561 73.657 69.9987 72 69.999V64Z" fill="#B6D7FC"/>
<path fill-rule="evenodd" clip-rule="evenodd" d="M75.4227 136V152.852C80.3883 154.148 84 158.093 84 162.76C84 163.174 83.9684 163.582 83.9122 163.985H75.4227V164H34V154.852C34.0001 152.504 36.1217 150.598 38.7421 150.597H53.8508L57.9978 136H75.4227ZM59.8976 139.088L57.1086 150.597H72.6248V139.088H59.8976Z" fill="#157DF5"/>
<path d="M76 134V136H57V134H76Z" fill="#40D98D"/>
<path d="M76 134V136H67V134H76Z" fill="#25BB71"/>
<path d="M75.4229 152.853C80.3883 154.149 84 158.093 84 162.76C84 163.174 83.9683 163.582 83.9121 163.985H75.4229V164H67V150.597H72.625V139.087H67V136H75.4229V152.853Z" fill="#0965CD"/>
<path d="M62 163C62 157.476 66.4762 153 72 153C77.5238 153 82 157.476 82 163C82 168.524 77.5238 173 72 173C66.4762 173 62 168.524 62 163Z" fill="#323567"/>
<path d="M67 162.999C67 160.237 69.2389 158 71.9991 158C74.7592 158 77 160.239 77 162.999C77 165.761 74.7611 168 71.9991 168C69.237 168 67 165.761 67 162.999Z" fill="#E2EFFE"/>
<path d="M68 162.999C68 160.79 69.7911 159 71.9993 159C74.2074 159 76 160.791 76 162.999C76 165.209 74.2089 167 71.9993 167C69.7896 167 68 165.209 68 162.999Z" fill="#323567"/>
<path d="M69 162.999C69 161.342 70.3433 160 71.9994 160C73.6555 160 75 161.343 75 162.999C75 164.657 73.6567 166 71.9994 166C70.3422 166 69 164.657 69 162.999Z" fill="#E2EFFE"/>
<path d="M52 154H34V155H52V154Z" fill="#9DC9FB"/>
<path d="M52 156H34V157H52V156Z" fill="#9DC9FB"/>
<path d="M52 158H34V159H52V158Z" fill="#9DC9FB"/>
<path d="M28 164.998C28 160.579 31.5822 157 35.9985 157C40.4148 157 44 160.582 44 164.998C44 169.418 40.4178 173 35.9985 173C31.5792 173 28 169.418 28 164.998Z" fill="#323567"/>
<path d="M31 164.999C31 162.237 33.2389 160 35.9991 160C38.7592 160 41 162.239 41 164.999C41 167.761 38.7611 170 35.9991 170C33.237 170 31 167.761 31 164.999Z" fill="#E2EFFE"/>
<path d="M32 164.999C32 162.79 33.7911 161 35.9992 161C38.2074 161 40 162.791 40 164.999C40 167.209 38.2089 169 35.9992 169C33.7896 169 32 167.209 32 164.999Z" fill="#323567"/>
<path d="M33 164.999C33 163.342 34.3433 162 35.9994 162C37.6555 162 39 163.343 39 164.999C39 166.657 37.6567 168 35.9994 168C34.3422 168 33 166.657 33 164.999Z" fill="#E2EFFE"/>
<path d="M46 146H44V152H46V146Z" fill="#323567"/>
<path d="M36 157C40.4154 157.001 43.9998 160.582 44 164.998C44 169.417 40.4186 172.998 36 172.999V157Z" fill="#1E203E"/>
<path d="M36 160C38.7597 160.001 41 162.239 41 164.999C41 167.761 38.7616 169.999 36 169.999V160Z" fill="#B6D7FC"/>
<path d="M36 161C38.2077 161 39.9999 162.791 40 164.999C40 167.208 38.2093 168.999 36 168.999V161Z" fill="#1E203E"/>
<path d="M36 162C37.6557 162 38.9998 163.343 39 164.999C39 166.656 37.657 167.999 36 167.999V162Z" fill="#B6D7FC"/>
<path d="M72 153C77.5238 153 82 157.476 82 163C82 168.524 77.5238 173 72 173V153Z" fill="#1E203E"/>
<path d="M72 158C74.7597 158.001 77 160.239 77 162.999C77 165.761 74.7616 167.999 72 167.999V158Z" fill="#B6D7FC"/>
<path d="M72 159C74.2077 159 75.9999 160.791 76 162.999C76 165.208 74.2093 166.999 72 166.999V159Z" fill="#1E203E"/>
<path d="M72 160C73.6557 160 74.9998 161.343 75 162.999C75 164.656 73.657 165.999 72 165.999V160Z" fill="#B6D7FC"/>
<defs>
<filter id="filter0_d_55984_11921" x="10" y="9" width="96" height="96" filterUnits="userSpaceOnUse" color-interpolation-filters="sRGB">
<feFlood flood-opacity="0" result="BackgroundImageFix"/>
<feColorMatrix in="SourceAlpha" type="matrix" values="0 0 0 0 0 0 0 0 0 0 0 0 0 0 0 0 0 0 127 0" result="hardAlpha"/>
<feOffset dx="2" dy="1"/>
<feGaussianBlur stdDeviation="4"/>
<feColorMatrix type="matrix" values="0 0 0 0 0.0392157 0 0 0 0 0.0392157 0 0 0 0 0.0627451 0 0 0 0.08 0"/>
<feBlend mode="normal" in2="BackgroundImageFix" result="effect1_dropShadow_55984_11921"/>
<feBlend mode="normal" in="SourceGraphic" in2="effect1_dropShadow_55984_11921" result="shape"/>
</filter>
</defs>
</svg>
