<svg width="112" height="208" viewBox="0 0 112 208" fill="none" xmlns="http://www.w3.org/2000/svg">
<rect x="0.5" y="0.5" width="111" height="207" rx="4.5" stroke="#9747FF" stroke-dasharray="10 5"/>
<g filter="url(#filter0_d_11790_60930)">
<rect x="16" y="16" width="80" height="80" rx="8" fill="white"/>
</g>
<path d="M66.2038 47.1789C64.9 47.1789 63.8392 46.1653 63.8392 44.9194V39.8437C63.8392 38.9377 63.0714 38.2031 62.1242 38.2031H45.8724C44.9252 38.2031 44.1574 38.9377 44.1574 39.8437V44.9194C44.1574 46.1653 43.0967 47.1789 41.7928 47.1789C38.5976 47.1789 35.998 49.6644 35.998 52.7195V77.1731C35.998 80.9366 39.2004 83.9984 43.1366 83.9984H64.86C68.7962 83.9984 71.9986 80.9366 71.9986 77.1731V52.7196C71.9986 49.6644 69.399 47.1789 66.2038 47.1789Z" fill="#157DF5"/>
<path d="M66.2036 47.1789C64.8997 47.1789 63.839 46.1653 63.839 44.9194V39.8437C63.839 38.9377 63.0711 38.2031 62.124 38.2031H53.998V83.9984H64.8597C68.796 83.9984 71.9983 80.9366 71.9983 77.1731V52.7196C71.9983 49.6644 69.3987 47.1789 66.2036 47.1789Z" fill="#0965CD"/>
<path d="M64.2681 54.8086H43.7306C42.7835 54.8086 42.0156 55.5431 42.0156 56.4492V75.2724C42.0156 76.1785 42.7835 76.913 43.7306 76.913H64.2682C65.2154 76.913 65.9832 76.1785 65.9832 75.2724V56.4492C65.9831 55.5431 65.2154 54.8086 64.2681 54.8086Z" fill="#F0F7FE"/>
<path d="M64.2668 54.8125H53.998V76.9169H64.2668C65.2139 76.9169 65.9818 76.1824 65.9818 75.2763V56.4531C65.9818 55.5471 65.214 54.8125 64.2668 54.8125Z" fill="#E2EFFE"/>
<path d="M65.6396 38.204H65.6356V31.5291C65.6356 29.5831 63.9807 28 61.9466 28H46.0487C44.0146 28 42.3596 29.5831 42.3596 31.5291V38.204H42.3556C41.4085 38.204 40.6406 38.9386 40.6406 39.8446C40.6406 40.7507 41.4085 41.4852 42.3556 41.4852H44.0746H63.9206H65.6396C66.5867 41.4852 67.3546 40.7507 67.3546 39.8446C67.3546 38.9386 66.5867 38.204 65.6396 38.204Z" fill="#40D98D"/>
<path d="M65.64 38.204H65.636V31.5291C65.636 29.5831 63.9811 28 61.947 28H53.998V41.4852H63.9211H65.64C66.5872 41.4852 67.355 40.7507 67.355 39.8446C67.355 38.9386 66.5872 38.204 65.64 38.204Z" fill="#25BB71"/>
<path d="M58.4829 63.3723H55.967V60.8594C55.967 59.7721 55.0855 58.8906 53.9982 58.8906C52.9109 58.8906 52.0294 59.7721 52.0294 60.8594V63.3723H49.5135C48.4262 63.3723 47.5447 64.2538 47.5447 65.341C47.5447 66.4283 48.4262 67.3098 49.5135 67.3098H52.0294V69.8227C52.0294 70.91 52.9109 71.7914 53.9982 71.7914C55.0855 71.7914 55.967 70.91 55.967 69.8227V67.3098H58.4829C59.5702 67.3098 60.4517 66.4283 60.4517 65.341C60.4517 64.2538 59.5702 63.3723 58.4829 63.3723Z" fill="#F54B5E"/>
<path d="M58.4828 63.3723H55.9668V60.8594C55.9668 59.7721 55.0853 58.8906 53.998 58.8906V71.7914C55.0853 71.7914 55.9668 70.91 55.9668 69.8227V67.3098H58.4828C59.5701 67.3098 60.4516 66.4283 60.4516 65.341C60.4516 64.2538 59.5701 63.3723 58.4828 63.3723Z" fill="#F3263D"/>
<path d="M49.8119 80.9993H32.1879C31.5319 80.9993 31 80.4656 31 79.8073V78.9645C31 75.8797 33.4925 73.3789 36.567 73.3789H45.4329C48.5074 73.3789 50.9999 75.8797 50.9999 78.9645V79.8073C50.9999 80.4655 50.468 80.9993 49.8119 80.9993Z" fill="#157DF5"/>
<path d="M45.4329 73.3789H41V80.9993H49.812C50.4681 80.9993 50.9999 80.4656 50.9999 79.8073V78.9645C50.9999 75.8797 48.5075 73.3789 45.4329 73.3789Z" fill="#0965CD"/>
<path d="M35 63.9925V67.8001C35 71.1251 37.6862 73.8206 41 73.8206C44.3137 73.8206 47 71.1251 47 67.8001V66.1311L41 62.5625L35 63.9925Z" fill="#FFDECC"/>
<path d="M41 73.8206C44.3137 73.8206 47 71.1251 47 67.8001V66.1311L41 62.5625V73.8206Z" fill="#FFCFB5"/>
<path d="M47 63.5512C47 61.0376 44.9693 59 42.4643 59H39.5357C37.0307 59 35 61.0377 35 63.5512V63.9985L47 66.137V63.5512Z" fill="#282A52"/>
<path d="M42.4643 59H41V65.0678L47 66.1371V63.5512C47 61.0376 44.9693 59 42.4643 59Z" fill="#1E203E"/>
<path d="M49.8119 80.9993H32.1879C31.5319 80.9993 31 80.4656 31 79.8073V78.9645C31 75.8797 33.4925 73.3789 36.567 73.3789H45.4329C48.5074 73.3789 50.9999 75.8797 50.9999 78.9645V79.8073C50.9999 80.4655 50.468 80.9993 49.8119 80.9993Z" fill="#40D98D"/>
<path d="M45.4329 73.3789H41V80.9993H49.812C50.4681 80.9993 50.9999 80.4656 50.9999 79.8073V78.9645C50.9999 75.8797 48.5075 73.3789 45.4329 73.3789Z" fill="#25BB71"/>
<path d="M35 63.9925V67.8001C35 71.1251 37.6862 73.8206 41 73.8206C44.3137 73.8206 47 71.1251 47 67.8001V66.1311L41 62.5625L35 63.9925Z" fill="#FFDECC"/>
<path d="M41 73.8206C44.3137 73.8206 47 71.1251 47 67.8001V66.1311L41 62.5625V73.8206Z" fill="#FFCFB5"/>
<path d="M47 63.5512C47 61.0376 44.9693 59 42.4643 59H39.5357C37.0307 59 35 61.0377 35 63.5512V63.9985L47 66.137V63.5512Z" fill="#282A52"/>
<path d="M42.4643 59H41V65.0678L47 66.1371V63.5512C47 61.0376 44.9693 59 42.4643 59Z" fill="#1E203E"/>
<path fill-rule="evenodd" clip-rule="evenodd" d="M43.9818 56.1538C47.4227 56.8603 50 59.9061 50 63.5512V67.8021C50 69.0425 49.7501 70.2244 49.2982 71.3C52.0905 72.7172 53.9999 75.6216 53.9999 78.9645V79.8074C53.9999 82.1128 52.1345 83.9993 49.8119 83.9993H32.1879C29.8656 83.9993 28 82.1131 28 79.8074V78.9645C28 75.6215 29.9094 72.7171 32.7018 71.3C32.2499 70.2244 32 69.0425 32 67.8021V63.5512C32 59.3905 35.3642 56 39.5357 56H42.4643C42.9813 56 43.4892 56.0526 43.9818 56.1538ZM35.6016 70.4328C35.8548 70.955 36.1811 71.435 36.567 71.8593C37.1635 72.5152 37.9026 73.0381 38.7351 73.3789H36.567C35.7689 73.3789 35.01 73.5474 34.3238 73.8509C32.3664 74.7166 31 76.6805 31 78.9645V79.8074C31 80.4656 31.5319 80.9993 32.1879 80.9993H49.8119C50.468 80.9993 50.9999 80.4655 50.9999 79.8074V78.9645C50.9999 76.6805 49.6335 74.7166 47.6762 73.8509C46.9899 73.5474 46.231 73.3789 45.4329 73.3789H43.2648C44.0973 73.0382 44.8364 72.5152 45.4329 71.8594C45.8189 71.435 46.1452 70.955 46.3984 70.4328C46.7838 69.638 47 68.7454 47 67.8021V63.5512C47 61.3518 45.4452 59.5168 43.3784 59.0925C43.0832 59.0318 42.7774 59 42.4643 59H39.5357C37.0307 59 35 61.0377 35 63.5512V67.8021C35 68.7454 35.2162 69.638 35.6016 70.4328Z" fill="white"/>
<path fill-rule="evenodd" clip-rule="evenodd" d="M61.1633 71.1507C60.4198 71.8909 59.9992 72.8981 59.9992 73.9516C59.9992 75.005 60.4198 76.0122 61.1633 76.7524L67.3493 82.9088L67.396 82.9518C67.9536 83.4653 68.6457 83.8075 69.3896 83.9399C70.1334 84.0724 70.9 83.9899 71.5991 83.7017C72.2983 83.4135 72.9023 82.9309 73.3377 82.3088C73.7733 81.6865 74.0215 80.9514 74.0511 80.1905L74.0536 80.1267V79.7993C77.2265 78.7847 79.9427 76.9594 81.6769 74.2822C83.9481 70.7761 84.1467 66.4116 82.3626 61.9238L82.3489 61.8894L82.3345 61.8553C81.9913 61.0458 81.3893 60.3759 80.6261 59.9478C79.8631 59.52 78.9807 59.357 78.1165 59.4828C77.2523 59.6086 76.4518 60.0167 75.8418 60.6464C75.2315 61.2763 74.8465 62.0925 74.7505 62.9676L74.7465 63.0044L74.7433 63.0413C74.702 63.5161 74.2782 64.5849 73.3922 65.6645C73.3809 65.6475 73.3695 65.6306 73.3579 65.6138C72.9218 64.9791 72.3111 64.4867 71.602 64.1944C70.8931 63.9022 70.1149 63.8219 69.3618 63.9627C68.6087 64.1035 67.911 64.4598 67.3546 64.9904L67.3292 65.0145L61.1633 71.1507ZM71.2435 70.6954C72.1891 70.6321 73.1565 70.197 74.0536 69.5419C75.157 68.7362 76.1539 67.5977 76.873 66.4088C77.0338 66.143 77.1807 65.8747 77.3118 65.607C77.6308 64.9555 77.8562 64.3079 77.9604 63.7095C77.9626 63.6967 77.9648 63.684 77.9669 63.6712C77.9864 63.5538 78.0011 63.4384 78.011 63.3252C78.0273 63.1761 78.093 63.0366 78.1976 62.9286C78.3022 62.8206 78.4399 62.7503 78.589 62.7285C78.7382 62.7068 78.8903 62.735 79.0217 62.8087C79.153 62.8823 79.256 62.9972 79.3146 63.1355C79.3563 63.2404 79.3966 63.3449 79.4355 63.449C79.4397 63.4603 79.444 63.4716 79.4481 63.4829C79.5697 63.8105 79.6775 64.1342 79.7717 64.4536C79.8873 64.8456 79.9826 65.2313 80.0582 65.6102C80.1566 66.104 80.2215 66.5864 80.2542 67.0566C80.6251 72.3918 76.8517 76.156 70.912 77.1993C70.866 77.2073 70.8199 77.2153 70.7736 77.223V80.0628C70.7685 80.1937 70.7258 80.3204 70.6506 80.4279C70.5753 80.5354 70.4707 80.6191 70.3491 80.6693C70.2275 80.7194 70.094 80.7338 69.9645 80.7107C69.8349 80.6876 69.7147 80.6281 69.6181 80.5391L63.4774 74.4279C63.3505 74.3015 63.2792 74.1302 63.2792 73.9516C63.2792 73.7729 63.3505 73.6016 63.4774 73.4753L69.6181 67.3641C69.7138 67.2728 69.8342 67.2112 69.9646 67.1869C70.0949 67.1625 70.2295 67.1764 70.3521 67.2269C70.4746 67.2774 70.5797 67.3623 70.6545 67.4713C70.7294 67.5802 70.7708 67.7085 70.7736 67.8404V70.6954C70.8203 70.6986 70.867 70.7009 70.9138 70.7021C71.0233 70.7051 71.1333 70.7028 71.2435 70.6954Z" fill="white"/>
<path d="M63.4794 73.4726L69.6201 67.3615C69.7159 67.2702 69.8363 67.2086 69.9666 67.1842C70.0969 67.1599 70.2316 67.1738 70.3541 67.2243C70.4766 67.2748 70.5817 67.3597 70.6566 67.4686C70.7314 67.5776 70.7728 67.7058 70.7756 67.8378V70.6928C74.0384 70.9183 77.7528 66.3165 78.013 63.3226C78.0293 63.1735 78.095 63.034 78.1996 62.926C78.3042 62.818 78.4419 62.7476 78.591 62.7259C78.7402 62.7042 78.8924 62.7323 79.0237 62.806C79.155 62.8796 79.258 62.9946 79.3166 63.1328C82.2684 70.5578 78.1704 75.9811 70.7756 77.2204V80.0602C70.7705 80.1911 70.7278 80.3177 70.6526 80.4252C70.5774 80.5327 70.4727 80.6165 70.3511 80.6666C70.2295 80.7167 70.096 80.7311 69.9665 80.708C69.8369 80.685 69.7167 80.6254 69.6201 80.5365L63.4794 74.4252C63.3525 74.2989 63.2812 74.1275 63.2812 73.9489C63.2812 73.7703 63.3525 73.5989 63.4794 73.4726Z" fill="#157DF5"/>
<path d="M66.2038 143.179C64.9 143.179 63.8392 142.165 63.8392 140.919V135.844C63.8392 134.938 63.0714 134.203 62.1242 134.203H45.8724C44.9252 134.203 44.1574 134.938 44.1574 135.844V140.919C44.1574 142.165 43.0967 143.179 41.7928 143.179C38.5976 143.179 35.998 145.664 35.998 148.72V173.173C35.998 176.937 39.2004 179.998 43.1366 179.998H64.86C68.7962 179.998 71.9986 176.937 71.9986 173.173V148.72C71.9986 145.664 69.399 143.179 66.2038 143.179Z" fill="#157DF5"/>
<path d="M66.2036 143.179C64.8997 143.179 63.839 142.165 63.839 140.919V135.844C63.839 134.938 63.0711 134.203 62.124 134.203H53.998V179.998H64.8597C68.796 179.998 71.9983 176.937 71.9983 173.173V148.72C71.9983 145.664 69.3987 143.179 66.2036 143.179Z" fill="#0965CD"/>
<path d="M64.2681 150.809H43.7306C42.7835 150.809 42.0156 151.543 42.0156 152.449V171.272C42.0156 172.178 42.7835 172.913 43.7306 172.913H64.2682C65.2154 172.913 65.9832 172.178 65.9832 171.272V152.449C65.9831 151.543 65.2154 150.809 64.2681 150.809Z" fill="#F0F7FE"/>
<path d="M64.2668 150.812H53.998V172.917H64.2668C65.2139 172.917 65.9818 172.182 65.9818 171.276V152.453C65.9818 151.547 65.214 150.812 64.2668 150.812Z" fill="#E2EFFE"/>
<path d="M65.6396 134.204H65.6356V127.529C65.6356 125.583 63.9807 124 61.9466 124H46.0487C44.0146 124 42.3596 125.583 42.3596 127.529V134.204H42.3556C41.4085 134.204 40.6406 134.939 40.6406 135.845C40.6406 136.751 41.4085 137.485 42.3556 137.485H44.0746H63.9206H65.6396C66.5867 137.485 67.3546 136.751 67.3546 135.845C67.3546 134.939 66.5867 134.204 65.6396 134.204Z" fill="#40D98D"/>
<path d="M65.64 134.204H65.636V127.529C65.636 125.583 63.9811 124 61.947 124H53.998V137.485H63.9211H65.64C66.5872 137.485 67.355 136.751 67.355 135.845C67.355 134.939 66.5872 134.204 65.64 134.204Z" fill="#25BB71"/>
<path d="M58.4829 159.372H55.967V156.859C55.967 155.772 55.0855 154.891 53.9982 154.891C52.9109 154.891 52.0294 155.772 52.0294 156.859V159.372H49.5135C48.4262 159.372 47.5447 160.254 47.5447 161.341C47.5447 162.428 48.4262 163.31 49.5135 163.31H52.0294V165.823C52.0294 166.91 52.9109 167.791 53.9982 167.791C55.0855 167.791 55.967 166.91 55.967 165.823V163.31H58.4829C59.5702 163.31 60.4517 162.428 60.4517 161.341C60.4517 160.254 59.5702 159.372 58.4829 159.372Z" fill="#F54B5E"/>
<path d="M58.4828 159.372H55.9668V156.859C55.9668 155.772 55.0853 154.891 53.998 154.891V167.791C55.0853 167.791 55.9668 166.91 55.9668 165.823V163.31H58.4828C59.5701 163.31 60.4516 162.428 60.4516 161.341C60.4516 160.254 59.5701 159.372 58.4828 159.372Z" fill="#F3263D"/>
<path d="M49.8119 176.999H32.1879C31.5319 176.999 31 176.466 31 175.807V174.965C31 171.88 33.4925 169.379 36.567 169.379H45.4329C48.5074 169.379 50.9999 171.88 50.9999 174.965V175.807C50.9999 176.466 50.468 176.999 49.8119 176.999Z" fill="#157DF5"/>
<path d="M45.4329 169.379H41V176.999H49.812C50.4681 176.999 50.9999 176.466 50.9999 175.807V174.965C50.9999 171.88 48.5075 169.379 45.4329 169.379Z" fill="#0965CD"/>
<path d="M35 159.993V163.8C35 167.125 37.6862 169.821 41 169.821C44.3137 169.821 47 167.125 47 163.8V162.131L41 158.562L35 159.993Z" fill="#FFDECC"/>
<path d="M41 169.821C44.3137 169.821 47 167.125 47 163.8V162.131L41 158.562V169.821Z" fill="#FFCFB5"/>
<path d="M47 159.551C47 157.038 44.9693 155 42.4643 155H39.5357C37.0307 155 35 157.038 35 159.551V159.998L47 162.137V159.551Z" fill="#282A52"/>
<path d="M42.4643 155H41V161.068L47 162.137V159.551C47 157.038 44.9693 155 42.4643 155Z" fill="#1E203E"/>
<path d="M49.8119 176.999H32.1879C31.5319 176.999 31 176.466 31 175.807V174.965C31 171.88 33.4925 169.379 36.567 169.379H45.4329C48.5074 169.379 50.9999 171.88 50.9999 174.965V175.807C50.9999 176.466 50.468 176.999 49.8119 176.999Z" fill="#40D98D"/>
<path d="M45.4329 169.379H41V176.999H49.812C50.4681 176.999 50.9999 176.466 50.9999 175.807V174.965C50.9999 171.88 48.5075 169.379 45.4329 169.379Z" fill="#25BB71"/>
<path d="M35 159.993V163.8C35 167.125 37.6862 169.821 41 169.821C44.3137 169.821 47 167.125 47 163.8V162.131L41 158.562L35 159.993Z" fill="#FFDECC"/>
<path d="M41 169.821C44.3137 169.821 47 167.125 47 163.8V162.131L41 158.562V169.821Z" fill="#FFCFB5"/>
<path d="M47 159.551C47 157.038 44.9693 155 42.4643 155H39.5357C37.0307 155 35 157.038 35 159.551V159.998L47 162.137V159.551Z" fill="#282A52"/>
<path d="M42.4643 155H41V161.068L47 162.137V159.551C47 157.038 44.9693 155 42.4643 155Z" fill="#1E203E"/>
<path fill-rule="evenodd" clip-rule="evenodd" d="M43.9818 152.154C47.4227 152.86 50 155.906 50 159.551V163.802C50 165.043 49.7501 166.224 49.2982 167.3C52.0905 168.717 53.9999 171.622 53.9999 174.965V175.807C53.9999 178.113 52.1345 179.999 49.8119 179.999H32.1879C29.8656 179.999 28 178.113 28 175.807V174.965C28 171.622 29.9094 168.717 32.7018 167.3C32.2499 166.224 32 165.042 32 163.802V159.551C32 155.39 35.3642 152 39.5357 152H42.4643C42.9813 152 43.4892 152.053 43.9818 152.154ZM35.6016 166.433C35.8548 166.955 36.1811 167.435 36.567 167.859C37.1635 168.515 37.9026 169.038 38.7351 169.379H36.567C35.7689 169.379 35.01 169.547 34.3238 169.851C32.3664 170.717 31 172.68 31 174.965V175.807C31 176.466 31.5319 176.999 32.1879 176.999H49.8119C50.468 176.999 50.9999 176.466 50.9999 175.807V174.965C50.9999 172.68 49.6335 170.717 47.6762 169.851C46.9899 169.547 46.231 169.379 45.4329 169.379H43.2648C44.0973 169.038 44.8364 168.515 45.4329 167.859C45.8189 167.435 46.1452 166.955 46.3984 166.433C46.7838 165.638 47 164.745 47 163.802V159.551C47 157.352 45.4452 155.517 43.3784 155.092C43.0832 155.032 42.7774 155 42.4643 155H39.5357C37.0307 155 35 157.038 35 159.551V163.802C35 164.745 35.2162 165.638 35.6016 166.433Z" fill="white"/>
<path fill-rule="evenodd" clip-rule="evenodd" d="M61.1633 167.151C60.4198 167.891 59.9992 168.898 59.9992 169.952C59.9992 171.005 60.4198 172.012 61.1633 172.752L67.3493 178.909L67.396 178.952C67.9536 179.465 68.6457 179.807 69.3896 179.94C70.1334 180.072 70.9 179.99 71.5991 179.702C72.2983 179.414 72.9023 178.931 73.3377 178.309C73.7733 177.687 74.0215 176.951 74.0511 176.191L74.0536 176.127V175.799C77.2265 174.785 79.9427 172.959 81.6769 170.282C83.9481 166.776 84.1467 162.412 82.3626 157.924L82.3489 157.889L82.3345 157.855C81.9913 157.046 81.3893 156.376 80.6261 155.948C79.8631 155.52 78.9807 155.357 78.1165 155.483C77.2523 155.609 76.4518 156.017 75.8418 156.646C75.2315 157.276 74.8465 158.092 74.7505 158.968L74.7465 159.004L74.7433 159.041C74.702 159.516 74.2782 160.585 73.3922 161.664C73.3809 161.648 73.3695 161.631 73.3579 161.614C72.9218 160.979 72.3111 160.487 71.602 160.194C70.8931 159.902 70.1149 159.822 69.3618 159.963C68.6087 160.104 67.911 160.46 67.3546 160.99L67.3292 161.015L61.1633 167.151ZM71.2435 166.695C72.1891 166.632 73.1565 166.197 74.0536 165.542C75.157 164.736 76.1539 163.598 76.873 162.409C77.0338 162.143 77.1807 161.875 77.3118 161.607C77.6308 160.956 77.8562 160.308 77.9604 159.71C77.9626 159.697 77.9648 159.684 77.9669 159.671C77.9864 159.554 78.0011 159.438 78.011 159.325C78.0273 159.176 78.093 159.037 78.1976 158.929C78.3022 158.821 78.4399 158.75 78.589 158.729C78.7382 158.707 78.8903 158.735 79.0217 158.809C79.153 158.882 79.256 158.997 79.3146 159.135C79.3563 159.24 79.3966 159.345 79.4355 159.449C79.4397 159.46 79.444 159.472 79.4481 159.483C79.5697 159.811 79.6775 160.134 79.7717 160.454C79.8873 160.846 79.9826 161.231 80.0582 161.61C80.1566 162.104 80.2215 162.586 80.2542 163.057C80.6251 168.392 76.8517 172.156 70.912 173.199C70.866 173.207 70.8199 173.215 70.7736 173.223V176.063C70.7685 176.194 70.7258 176.32 70.6506 176.428C70.5753 176.535 70.4707 176.619 70.3491 176.669C70.2275 176.719 70.094 176.734 69.9645 176.711C69.8349 176.688 69.7147 176.628 69.6181 176.539L63.4774 170.428C63.3505 170.302 63.2792 170.13 63.2792 169.952C63.2792 169.773 63.3505 169.602 63.4774 169.475L69.6181 163.364C69.7138 163.273 69.8342 163.211 69.9646 163.187C70.0949 163.163 70.2295 163.176 70.3521 163.227C70.4746 163.277 70.5797 163.362 70.6545 163.471C70.7294 163.58 70.7708 163.708 70.7736 163.84V166.695C70.8203 166.699 70.867 166.701 70.9138 166.702C71.0233 166.705 71.1333 166.703 71.2435 166.695Z" fill="white"/>
<path d="M63.4794 169.473L69.6201 163.361C69.7159 163.27 69.8363 163.209 69.9666 163.184C70.0969 163.16 70.2316 163.174 70.3541 163.224C70.4766 163.275 70.5817 163.36 70.6566 163.469C70.7314 163.578 70.7728 163.706 70.7756 163.838V166.693C74.0384 166.918 77.7528 162.316 78.013 159.323C78.0293 159.173 78.095 159.034 78.1996 158.926C78.3042 158.818 78.4419 158.748 78.591 158.726C78.7402 158.704 78.8924 158.732 79.0237 158.806C79.155 158.88 79.258 158.995 79.3166 159.133C82.2684 166.558 78.1704 171.981 70.7756 173.22V176.06C70.7705 176.191 70.7278 176.318 70.6526 176.425C70.5774 176.533 70.4727 176.616 70.3511 176.667C70.2295 176.717 70.096 176.731 69.9665 176.708C69.8369 176.685 69.7167 176.625 69.6201 176.536L63.4794 170.425C63.3525 170.299 63.2812 170.128 63.2812 169.949C63.2812 169.77 63.3525 169.599 63.4794 169.473Z" fill="#157DF5"/>
<defs>
<filter id="filter0_d_11790_60930" x="10" y="9" width="96" height="96" filterUnits="userSpaceOnUse" color-interpolation-filters="sRGB">
<feFlood flood-opacity="0" result="BackgroundImageFix"/>
<feColorMatrix in="SourceAlpha" type="matrix" values="0 0 0 0 0 0 0 0 0 0 0 0 0 0 0 0 0 0 127 0" result="hardAlpha"/>
<feOffset dx="2" dy="1"/>
<feGaussianBlur stdDeviation="4"/>
<feColorMatrix type="matrix" values="0 0 0 0 0.0392157 0 0 0 0 0.0392157 0 0 0 0 0.0627451 0 0 0 0.08 0"/>
<feBlend mode="normal" in2="BackgroundImageFix" result="effect1_dropShadow_11790_60930"/>
<feBlend mode="normal" in="SourceGraphic" in2="effect1_dropShadow_11790_60930" result="shape"/>
</filter>
</defs>
</svg>
