<svg width="112" height="200" viewBox="0 0 112 200" fill="none" xmlns="http://www.w3.org/2000/svg">
<rect x="0.5" y="0.5" width="111" height="199" rx="4.5" stroke="#9747FF" stroke-dasharray="10 5"/>
<g filter="url(#filter0_d_17500_11148)">
<rect x="16" y="16" width="80" height="80" rx="8" fill="white"/>
</g>
<path d="M28.254 33.176L33.5589 28.2228C33.7123 28.0797 33.9145 28.0001 34.1245 28H41.3172C41.3115 28.0074 41.3103 28.0165 41.3043 28.0237L35.835 34.6037H28.8196C28.6548 34.6011 28.4945 34.5498 28.359 34.4563C28.2235 34.3628 28.1188 34.2313 28.0583 34.0785C27.9977 33.9256 27.984 33.7583 28.0188 33.5976C28.0537 33.437 28.1355 33.2902 28.254 33.176Z" fill="#40D98D"/>
<path d="M39.4063 28H45.8789C45.8727 28.015 45.874 28.0311 45.8669 28.0458L42.6574 34.6038H34.1094L39.4063 28Z" fill="#E2EFFE"/>
<path d="M44.4175 28H50.469L49.4381 34.6038H41.2676L44.4175 28Z" fill="#40D98D"/>
<path d="M30.4922 33.7812H73.5166V65.9665H30.4922V33.7812Z" fill="#0965CD"/>
<path d="M30.4922 33.7734H52.0073V65.9587H30.4922V33.7734Z" fill="#157DF5"/>
<path d="M65.4156 46.7344H59.4528C58.8598 46.7344 58.2911 46.9621 57.8717 47.3675C57.4524 47.7729 57.2168 48.3227 57.2168 48.896V65.4686H67.6516V48.896C67.6516 48.3227 67.416 47.7729 66.9967 47.3675C66.5773 46.9621 66.0086 46.7344 65.4156 46.7344Z" fill="#B6D7FC"/>
<path d="M44.5521 50.8984H37.687C37.4974 50.8984 37.3438 51.1393 37.3438 51.4364V57.8926C37.3438 58.1897 37.4974 58.4306 37.687 58.4306H44.5521C44.7416 58.4306 44.8953 58.1897 44.8953 57.8926V51.4364C44.8953 51.1393 44.7416 50.8984 44.5521 50.8984Z" fill="#E2EFFE"/>
<path d="M75.739 33.176L70.4341 28.2228C70.2807 28.0797 70.0786 28.0001 69.8685 28H62.6758C62.6815 28.0074 62.6826 28.0165 62.6887 28.0237L68.158 34.6037H75.1734C75.3382 34.6011 75.4985 34.5498 75.634 34.4563C75.7695 34.3628 75.8742 34.2313 75.9347 34.0784C75.9953 33.9256 76.009 33.7582 75.9742 33.5976C75.9393 33.4369 75.8575 33.2902 75.739 33.176Z" fill="#25BB71"/>
<path d="M64.5839 28H58.1113C58.1175 28.015 58.1162 28.0311 58.1233 28.0458L61.3328 34.6038H69.8808L64.5839 28Z" fill="#B6D7FC"/>
<path d="M59.5711 28H53.5195L54.5505 34.6038H62.721L59.5711 28Z" fill="#25BB71"/>
<path d="M54.6387 28H49.3781L48.4746 34.6038H55.5422L54.6387 28Z" fill="#B6D7FC"/>
<path d="M42.0762 32.9531H35.457V38.73C35.4648 39.6003 35.817 40.4324 36.4368 41.0451C37.0566 41.6579 37.8939 42.0016 38.7666 42.0016C39.6393 42.0016 40.4766 41.6579 41.0964 41.0451C41.7162 40.4324 42.0684 39.6003 42.0762 38.73V32.9531Z" fill="#E2EFFE"/>
<path d="M55.3145 32.9531H48.6953V38.73C48.7031 39.6003 49.0552 40.4324 49.6751 41.0451C50.2949 41.6579 51.1322 42.0016 52.0049 42.0016C52.8775 42.0016 53.7149 41.6579 54.3347 41.0451C54.9545 40.4324 55.3066 39.6003 55.3145 38.73V32.9531Z" fill="#B6D7FC"/>
<path d="M61.9355 32.9531H55.3164V38.73C55.3242 39.6003 55.6763 40.4324 56.2962 41.0451C56.916 41.6579 57.7533 42.0016 58.626 42.0016C59.4986 42.0016 60.336 41.6579 60.9558 41.0451C61.5756 40.4324 61.9277 39.6003 61.9355 38.73V32.9531Z" fill="#25BB71"/>
<path d="M68.5527 32.9531H61.9336V38.73C61.9414 39.6003 62.2935 40.4324 62.9133 41.0451C63.5332 41.6579 64.3705 42.0016 65.2432 42.0016C66.1158 42.0016 66.9532 41.6579 67.573 41.0451C68.1928 40.4324 68.5449 39.6003 68.5527 38.73V32.9531Z" fill="#B6D7FC"/>
<path d="M35.4583 32.9531H28.8391C28.6197 32.9531 28.4092 33.0401 28.2541 33.1948C28.0989 33.3496 28.0117 33.5595 28.0117 33.7784V38.3173C28.0205 39.2965 28.4166 40.2326 29.1139 40.9219C29.8112 41.6112 30.7532 41.998 31.735 41.998C32.7167 41.998 33.6587 41.6112 34.356 40.9219C35.0533 40.2326 35.4495 39.2965 35.4583 38.3173V32.9531Z" fill="#40D98D"/>
<path d="M68.5527 32.9531H75.1719C75.3913 32.9531 75.6018 33.0401 75.7569 33.1948C75.9121 33.3496 75.9993 33.5595 75.9993 33.7784V38.3173C75.9905 39.2965 75.5943 40.2326 74.8971 40.9219C74.1998 41.6112 73.2577 41.998 72.276 41.998C71.2943 41.998 70.3522 41.6112 69.6549 40.9219C68.9577 40.2326 68.5615 39.2965 68.5527 38.3173V32.9531Z" fill="#25BB71"/>
<path d="M52.0071 32.9531H48.6953V38.73C48.7031 39.6003 49.0552 40.4324 49.6751 41.0451C50.2949 41.6579 51.1322 42.0016 52.0049 42.0016C52.0041 42.0016 52.0056 42.0016 52.0049 42.0016L52.0071 32.9531Z" fill="#E2EFFE"/>
<path d="M49.3781 28H52.009V34.6038H48.4746L49.3781 28Z" fill="#E2EFFE"/>
<path d="M48.6953 32.9531H42.0762V38.73C42.084 39.6003 42.4361 40.4324 43.0559 41.0451C43.6757 41.6579 44.5131 42.0016 45.3857 42.0016C46.2584 42.0016 47.0957 41.6579 47.7156 41.0451C48.3354 40.4324 48.6875 39.6003 48.6953 38.73V32.9531Z" fill="#40D98D"/>
<rect x="28" y="65.4688" width="48" height="6.24476" rx="3.12238" fill="#1E203E"/>
<path d="M28 68.5911C28 66.8667 29.3979 65.4688 31.1224 65.4688H52V71.7135H31.1224C29.3979 71.7135 28 70.3156 28 68.5911Z" fill="#282A52"/>
<path d="M80.7325 66.6615L72.5449 74.8097C72.4173 74.9314 72.2567 75.0136 72.083 75.046C71.9092 75.0785 71.7297 75.06 71.5663 74.9926C71.4029 74.9253 71.2628 74.8121 71.163 74.6668C71.0632 74.5216 71.008 74.3505 71.0042 74.1746V70.368C66.6538 70.0673 61.7013 76.2031 61.3544 80.1949C61.3326 80.3937 61.2451 80.5797 61.1056 80.7237C60.9661 80.8677 60.7825 80.9615 60.5837 80.9905C60.3848 81.0194 60.1819 80.9819 60.0068 80.8837C59.8317 80.7855 59.6944 80.6322 59.6162 80.4479C55.6806 70.5479 61.1445 63.3169 71.0042 61.6645V57.8781C71.011 57.7036 71.068 57.5347 71.1683 57.3914C71.2686 57.2481 71.4081 57.1364 71.5702 57.0695C71.7324 57.0027 71.9104 56.9835 72.0831 57.0143C72.2559 57.045 72.4161 57.1244 72.5449 57.2431L80.7325 65.3914C80.9017 65.5598 80.9967 65.7883 80.9967 66.0265C80.9967 66.2646 80.9017 66.4931 80.7325 66.6615Z" fill="#157DF5"/>
<path fill-rule="evenodd" clip-rule="evenodd" d="M82.8484 68.7876C83.5816 68.0577 83.9962 67.0648 83.9962 66.0265C83.9962 64.9881 83.5816 63.9952 82.8484 63.2653L74.6194 55.0757L74.5767 55.0364C74.0263 54.5294 73.343 54.1915 72.6083 54.0607C71.8737 53.9299 71.1167 54.0114 70.4264 54.2959C69.7359 54.5805 69.1397 55.057 68.71 55.671C68.2801 56.2852 68.0352 57.0106 68.0059 57.7613L68.0037 57.8197V59.2542C63.5912 60.461 59.8888 62.8276 57.6185 66.3323C54.8797 70.5602 54.5781 75.897 56.8279 81.5562L56.8404 81.5876L56.8536 81.6188C57.192 82.4171 57.7858 83.078 58.5388 83.5003C59.2916 83.9225 60.1624 84.0833 61.0153 83.9592C61.8682 83.835 62.6579 83.4323 63.2597 82.8111C63.8617 82.1897 64.2413 81.3848 64.336 80.522L64.3396 80.4883L64.3426 80.4546C64.4387 79.348 65.3236 77.41 66.891 75.6966C67.2808 75.2705 67.6632 74.9111 68.0302 74.6118C68.1043 75.24 68.3301 75.8422 68.6898 76.3658C69.12 76.9919 69.7226 77.4778 70.4224 77.7662C71.1222 78.0547 71.8903 78.1339 72.6337 77.995C73.3771 77.856 74.0657 77.5043 74.6147 76.9808L74.6378 76.9587L82.8484 68.7876ZM70.3771 70.368C70.5869 70.3539 70.796 70.3536 71.0037 70.368V74.1746C71.0074 74.3505 71.0626 74.5216 71.1624 74.6668C71.2622 74.8121 71.4024 74.9253 71.5657 74.9926C71.7291 75.06 71.9086 75.0785 72.0824 75.046C72.2562 75.0136 72.4167 74.9314 72.5443 74.8097L80.7319 66.6615C80.9011 66.4931 80.9962 66.2646 80.9962 66.0265C80.9962 65.7883 80.9011 65.5598 80.7319 65.3914L72.5443 57.2431C72.4155 57.1244 72.2553 57.045 72.0825 57.0143C71.9098 56.9835 71.7318 57.0027 71.5696 57.0695C71.4075 57.1364 71.268 57.248 71.1677 57.3914C71.0674 57.5347 71.0105 57.7036 71.0037 57.8781V61.6645C62.0251 63.1692 56.6918 69.2999 58.7821 77.8594C58.8423 78.106 58.9086 78.3545 58.9812 78.6051C58.9895 78.6335 58.9978 78.662 59.0062 78.6904C59.1318 79.1163 59.2755 79.5478 59.4376 79.9847C59.4432 79.9998 59.4488 80.0148 59.4544 80.0299C59.5063 80.1687 59.56 80.308 59.6157 80.4479C59.6938 80.6322 59.8312 80.7855 60.0063 80.8837C60.1813 80.9819 60.3842 81.0194 60.5831 80.9905C60.782 80.9615 60.9655 80.8677 61.105 80.7237C61.2445 80.5797 61.332 80.3937 61.3538 80.1949C61.367 80.044 61.3866 79.8901 61.4126 79.7336C61.4154 79.7166 61.4183 79.6996 61.4213 79.6825C61.4905 79.2849 61.5999 78.871 61.7448 78.4483C61.799 78.2904 61.8581 78.1313 61.9219 77.9714C62.9926 75.2881 65.3936 72.3687 68.0037 71.0604C68.7861 70.6683 69.5873 70.4209 70.3771 70.368Z" fill="white"/>
<path d="M28.254 129.176L33.5589 124.223C33.7123 124.08 33.9145 124 34.1245 124H41.3172C41.3115 124.007 41.3103 124.017 41.3043 124.024L35.835 130.604H28.8196C28.6548 130.601 28.4945 130.55 28.359 130.456C28.2235 130.363 28.1188 130.231 28.0583 130.078C27.9977 129.926 27.984 129.758 28.0188 129.598C28.0537 129.437 28.1355 129.29 28.254 129.176Z" fill="#40D98D"/>
<path d="M39.4063 124H45.8789C45.8727 124.015 45.874 124.031 45.8669 124.046L42.6574 130.604H34.1094L39.4063 124Z" fill="#E2EFFE"/>
<path d="M44.4175 124H50.469L49.4381 130.604H41.2676L44.4175 124Z" fill="#40D98D"/>
<path d="M30.4922 129.781H73.5166V161.967H30.4922V129.781Z" fill="#0965CD"/>
<path d="M30.4922 129.773H52.0073V161.959H30.4922V129.773Z" fill="#157DF5"/>
<path d="M65.4156 142.734H59.4528C58.8598 142.734 58.2911 142.962 57.8717 143.368C57.4524 143.773 57.2168 144.323 57.2168 144.896V161.469H67.6516V144.896C67.6516 144.323 67.416 143.773 66.9967 143.368C66.5773 142.962 66.0086 142.734 65.4156 142.734Z" fill="#B6D7FC"/>
<path d="M44.5521 146.898H37.687C37.4974 146.898 37.3438 147.139 37.3438 147.436V153.893C37.3438 154.19 37.4974 154.431 37.687 154.431H44.5521C44.7416 154.431 44.8953 154.19 44.8953 153.893V147.436C44.8953 147.139 44.7416 146.898 44.5521 146.898Z" fill="#E2EFFE"/>
<path d="M75.739 129.176L70.4341 124.223C70.2807 124.08 70.0786 124 69.8685 124H62.6758C62.6815 124.007 62.6826 124.017 62.6887 124.024L68.158 130.604H75.1734C75.3382 130.601 75.4985 130.55 75.634 130.456C75.7695 130.363 75.8742 130.231 75.9347 130.078C75.9953 129.926 76.009 129.758 75.9742 129.598C75.9393 129.437 75.8575 129.29 75.739 129.176Z" fill="#25BB71"/>
<path d="M64.5839 124H58.1113C58.1175 124.015 58.1162 124.031 58.1233 124.046L61.3328 130.604H69.8808L64.5839 124Z" fill="#B6D7FC"/>
<path d="M59.5711 124H53.5195L54.5505 130.604H62.721L59.5711 124Z" fill="#25BB71"/>
<path d="M54.6387 124H49.3781L48.4746 130.604H55.5422L54.6387 124Z" fill="#B6D7FC"/>
<path d="M42.0762 128.953H35.457V134.73C35.4648 135.6 35.817 136.432 36.4368 137.045C37.0566 137.658 37.8939 138.002 38.7666 138.002C39.6393 138.002 40.4766 137.658 41.0964 137.045C41.7162 136.432 42.0684 135.6 42.0762 134.73V128.953Z" fill="#E2EFFE"/>
<path d="M55.3145 128.953H48.6953V134.73C48.7031 135.6 49.0552 136.432 49.6751 137.045C50.2949 137.658 51.1322 138.002 52.0049 138.002C52.8775 138.002 53.7149 137.658 54.3347 137.045C54.9545 136.432 55.3066 135.6 55.3145 134.73V128.953Z" fill="#B6D7FC"/>
<path d="M61.9355 128.953H55.3164V134.73C55.3242 135.6 55.6763 136.432 56.2962 137.045C56.916 137.658 57.7533 138.002 58.626 138.002C59.4986 138.002 60.336 137.658 60.9558 137.045C61.5756 136.432 61.9277 135.6 61.9355 134.73V128.953Z" fill="#25BB71"/>
<path d="M68.5527 128.953H61.9336V134.73C61.9414 135.6 62.2935 136.432 62.9133 137.045C63.5332 137.658 64.3705 138.002 65.2432 138.002C66.1158 138.002 66.9532 137.658 67.573 137.045C68.1928 136.432 68.5449 135.6 68.5527 134.73V128.953Z" fill="#B6D7FC"/>
<path d="M35.4583 128.953H28.8391C28.6197 128.953 28.4092 129.04 28.2541 129.195C28.0989 129.35 28.0117 129.56 28.0117 129.778V134.317C28.0205 135.297 28.4166 136.233 29.1139 136.922C29.8112 137.611 30.7532 137.998 31.735 137.998C32.7167 137.998 33.6587 137.611 34.356 136.922C35.0533 136.233 35.4495 135.297 35.4583 134.317V128.953Z" fill="#40D98D"/>
<path d="M68.5527 128.953H75.1719C75.3913 128.953 75.6018 129.04 75.7569 129.195C75.9121 129.35 75.9993 129.56 75.9993 129.778V134.317C75.9905 135.297 75.5943 136.233 74.8971 136.922C74.1998 137.611 73.2577 137.998 72.276 137.998C71.2943 137.998 70.3522 137.611 69.6549 136.922C68.9577 136.233 68.5615 135.297 68.5527 134.317V128.953Z" fill="#25BB71"/>
<path d="M52.0071 128.953H48.6953V134.73C48.7031 135.6 49.0552 136.432 49.6751 137.045C50.2949 137.658 51.1322 138.002 52.0049 138.002C52.0041 138.002 52.0056 138.002 52.0049 138.002L52.0071 128.953Z" fill="#E2EFFE"/>
<path d="M49.3781 124H52.009V130.604H48.4746L49.3781 124Z" fill="#E2EFFE"/>
<path d="M48.6953 128.953H42.0762V134.73C42.084 135.6 42.4361 136.432 43.0559 137.045C43.6757 137.658 44.5131 138.002 45.3857 138.002C46.2584 138.002 47.0957 137.658 47.7156 137.045C48.3354 136.432 48.6875 135.6 48.6953 134.73V128.953Z" fill="#40D98D"/>
<rect x="28" y="161.469" width="48" height="6.24476" rx="3.12238" fill="#1E203E"/>
<path d="M28 164.591C28 162.867 29.3979 161.469 31.1224 161.469H52V167.714H31.1224C29.3979 167.714 28 166.316 28 164.591Z" fill="#282A52"/>
<path d="M80.7325 162.662L72.5449 170.81C72.4173 170.931 72.2567 171.014 72.083 171.046C71.9092 171.079 71.7297 171.06 71.5663 170.993C71.4029 170.925 71.2628 170.812 71.163 170.667C71.0632 170.522 71.008 170.351 71.0042 170.175V166.368C66.6538 166.067 61.7013 172.203 61.3544 176.195C61.3326 176.394 61.2451 176.58 61.1056 176.724C60.9661 176.868 60.7825 176.962 60.5837 176.99C60.3848 177.019 60.1819 176.982 60.0068 176.884C59.8317 176.785 59.6944 176.632 59.6162 176.448C55.6806 166.548 61.1445 159.317 71.0042 157.665V153.878C71.011 153.704 71.068 153.535 71.1683 153.391C71.2686 153.248 71.4081 153.136 71.5702 153.07C71.7324 153.003 71.9104 152.984 72.0831 153.014C72.2559 153.045 72.4161 153.124 72.5449 153.243L80.7325 161.391C80.9017 161.56 80.9967 161.788 80.9967 162.026C80.9967 162.265 80.9017 162.493 80.7325 162.662Z" fill="#157DF5"/>
<path fill-rule="evenodd" clip-rule="evenodd" d="M82.8484 164.788C83.5816 164.058 83.9962 163.065 83.9962 162.026C83.9962 160.988 83.5816 159.995 82.8484 159.265L74.6194 151.076L74.5767 151.036C74.0263 150.529 73.343 150.192 72.6083 150.061C71.8737 149.93 71.1167 150.011 70.4264 150.296C69.7359 150.581 69.1397 151.057 68.71 151.671C68.2801 152.285 68.0352 153.011 68.0059 153.761L68.0037 153.82V155.254C63.5912 156.461 59.8888 158.828 57.6185 162.332C54.8797 166.56 54.5781 171.897 56.8279 177.556L56.8404 177.588L56.8536 177.619C57.192 178.417 57.7858 179.078 58.5388 179.5C59.2916 179.922 60.1624 180.083 61.0153 179.959C61.8682 179.835 62.6579 179.432 63.2597 178.811C63.8617 178.19 64.2413 177.385 64.336 176.522L64.3396 176.488L64.3426 176.455C64.4387 175.348 65.3236 173.41 66.891 171.697C67.2808 171.27 67.6632 170.911 68.0302 170.612C68.1043 171.24 68.3301 171.842 68.6898 172.366C69.12 172.992 69.7226 173.478 70.4224 173.766C71.1222 174.055 71.8903 174.134 72.6337 173.995C73.3771 173.856 74.0657 173.504 74.6147 172.981L74.6378 172.959L82.8484 164.788ZM70.3771 166.368C70.5869 166.354 70.796 166.354 71.0037 166.368V170.175C71.0074 170.351 71.0626 170.522 71.1624 170.667C71.2622 170.812 71.4024 170.925 71.5657 170.993C71.7291 171.06 71.9086 171.079 72.0824 171.046C72.2562 171.014 72.4167 170.931 72.5443 170.81L80.7319 162.662C80.9011 162.493 80.9962 162.265 80.9962 162.026C80.9962 161.788 80.9011 161.56 80.7319 161.391L72.5443 153.243C72.4155 153.124 72.2553 153.045 72.0825 153.014C71.9098 152.984 71.7318 153.003 71.5696 153.07C71.4075 153.136 71.268 153.248 71.1677 153.391C71.0674 153.535 71.0105 153.704 71.0037 153.878V157.665C62.0251 159.169 56.6918 165.3 58.7821 173.859C58.8423 174.106 58.9086 174.355 58.9812 174.605C58.9895 174.633 58.9978 174.662 59.0062 174.69C59.1318 175.116 59.2755 175.548 59.4376 175.985C59.4432 176 59.4488 176.015 59.4544 176.03C59.5063 176.169 59.56 176.308 59.6157 176.448C59.6938 176.632 59.8312 176.785 60.0063 176.884C60.1813 176.982 60.3842 177.019 60.5831 176.99C60.782 176.962 60.9655 176.868 61.105 176.724C61.2445 176.58 61.332 176.394 61.3538 176.195C61.367 176.044 61.3866 175.89 61.4126 175.734C61.4154 175.717 61.4183 175.7 61.4213 175.682C61.4905 175.285 61.5999 174.871 61.7448 174.448C61.799 174.29 61.8581 174.131 61.9219 173.971C62.9926 171.288 65.3936 168.369 68.0037 167.06C68.7861 166.668 69.5873 166.421 70.3771 166.368Z" fill="white"/>
<defs>
<filter id="filter0_d_17500_11148" x="10" y="9" width="96" height="96" filterUnits="userSpaceOnUse" color-interpolation-filters="sRGB">
<feFlood flood-opacity="0" result="BackgroundImageFix"/>
<feColorMatrix in="SourceAlpha" type="matrix" values="0 0 0 0 0 0 0 0 0 0 0 0 0 0 0 0 0 0 127 0" result="hardAlpha"/>
<feOffset dx="2" dy="1"/>
<feGaussianBlur stdDeviation="4"/>
<feColorMatrix type="matrix" values="0 0 0 0 0.0392157 0 0 0 0 0.0392157 0 0 0 0 0.0627451 0 0 0 0.08 0"/>
<feBlend mode="normal" in2="BackgroundImageFix" result="effect1_dropShadow_17500_11148"/>
<feBlend mode="normal" in="SourceGraphic" in2="effect1_dropShadow_17500_11148" result="shape"/>
</filter>
</defs>
</svg>
