<svg width="112" height="208" viewBox="0 0 112 208" fill="none" xmlns="http://www.w3.org/2000/svg">
<rect x="0.5" y="0.5" width="111" height="207" rx="4.5" stroke="#9747FF" stroke-dasharray="10 5"/>
<g filter="url(#filter0_d_10792_60800)">
<rect x="16" y="16" width="80" height="80" rx="8" fill="white"/>
</g>
<g filter="url(#filter1_dd_10792_60800)">
<rect width="80" height="80" rx="8" transform="matrix(-1 0 0 1 96 16)" fill="white"/>
</g>
<path d="M55.9983 42.5806H47.3357C44.4998 42.5806 42.2117 40.2601 42.2117 37.399C42.2117 35.2574 43.4737 33.3471 45.4269 32.5286C47.381 31.7103 49.6092 32.1587 51.1043 33.6706L57.1455 39.7799C57.6095 40.2491 57.7482 40.9548 57.4972 41.5678C57.246 42.1809 56.6545 42.5806 55.9983 42.5806Z" fill="#F54B5E"/>
<path d="M64.6627 42.5806H56C55.3438 42.5806 54.7523 42.1808 54.5012 41.5677C54.2501 40.9547 54.3889 40.249 54.8529 39.7798L60.8941 33.6705C62.3892 32.1587 64.6177 31.7104 66.5711 32.5284C68.5247 33.347 69.7866 35.2575 69.7866 37.3954C69.7867 40.2655 67.4943 42.5806 64.6627 42.5806Z" fill="#F54B5E"/>
<path d="M73.3762 81.2425H38.6212C37.7252 81.2425 36.9988 80.5079 36.9988 79.6019V58.5144C36.9988 47.92 45.5221 39.3008 55.9987 39.3008C66.4753 39.3008 74.9986 47.92 74.9986 58.5144V79.6019C74.9986 80.5079 74.2722 81.2425 73.3762 81.2425Z" fill="#F0F7FE"/>
<path d="M74.9988 79.6019V58.5144C74.9988 47.92 66.4755 39.3008 55.9989 39.3008C55.9983 39.3008 55.9977 39.3008 55.9971 39.3008V81.2424H73.3764C74.2724 81.2425 74.9988 80.5079 74.9988 79.6019Z" fill="#E2EFFE"/>
<path d="M65.8229 71.4739L58.8277 64.3843C58.5234 64.0757 58.1101 63.9023 57.6792 63.9023C57.6787 63.9023 57.6769 63.9023 57.6775 63.9023H54.2279C54.2284 63.9023 54.2268 63.9023 54.2261 63.9023C53.7952 63.9023 53.382 64.0757 53.0776 64.3843L46.0822 71.474C44.1681 73.4144 43.6024 76.303 44.641 78.833C45.6794 81.364 48.101 82.9992 50.8123 82.9992C52.8729 82.9992 54.7135 82.0693 55.9527 80.6041C57.1999 82.0752 59.0504 82.9992 61.0946 82.9992C63.8042 82.9992 66.2258 81.3638 67.2641 78.8332C68.3029 76.303 67.7371 73.4144 65.8229 71.4739Z" fill="#F54B5E"/>
<path d="M61.0948 82.9992C63.8044 82.9992 66.226 81.3638 67.2643 78.8332C68.303 76.303 67.7373 73.4144 65.8231 71.4739L58.8279 64.3843C58.5235 64.0757 58.1103 63.9023 57.6794 63.9023C57.6788 63.9023 57.6771 63.9023 57.6776 63.9023C57.6785 63.9023 56.8449 63.9023 55.9971 63.9023V80.6536C57.2436 82.0953 59.0741 82.9992 61.0948 82.9992Z" fill="#F3263D"/>
<path d="M49.0646 53.125C49.9703 53.125 50.7046 52.3905 50.7046 51.4844C50.7046 50.5783 49.9703 49.8438 49.0646 49.8438C48.1588 49.8438 47.4246 50.5783 47.4246 51.4844C47.4246 52.3905 48.1588 53.125 49.0646 53.125Z" fill="#282A52"/>
<path d="M62.9669 53.125C63.8727 53.125 64.6069 52.3905 64.6069 51.4844C64.6069 50.5783 63.8727 49.8438 62.9669 49.8438C62.0612 49.8438 61.3269 50.5783 61.3269 51.4844C61.3269 52.3905 62.0612 53.125 62.9669 53.125Z" fill="#1E203E"/>
<path d="M55.952 68.9414C55.9501 68.9414 55.9484 68.9414 55.9466 68.9414C55.5162 68.9399 55.1042 68.7657 54.801 68.4569L47.896 61.4277C47.266 60.7865 47.2676 59.7507 47.8998 59.1114L51.1642 55.8102C52.4569 54.5042 54.1734 53.7852 55.9981 53.7852C57.8227 53.7852 59.5392 54.5042 60.8314 55.8099L64.0963 59.1115C64.4012 59.4198 64.5722 59.8383 64.5716 60.2743C64.5709 60.7102 64.3985 61.1282 64.0925 61.4355L57.0955 68.4647C56.7914 68.77 56.3803 68.9414 55.952 68.9414Z" fill="#FEE048"/>
<path d="M64.0933 61.4355C64.3993 61.1282 64.5716 60.7103 64.5723 60.2743C64.5731 59.8382 64.4021 59.4198 64.0971 59.1115L60.8322 55.8099C59.54 54.5042 57.8235 53.7852 55.9989 53.7852C55.9983 53.7852 55.9977 53.7852 55.9971 53.7852V68.9391C56.4093 68.9277 56.8027 68.7594 57.0962 68.4646L64.0933 61.4355Z" fill="#FED601"/>
<path d="M55.998 42.5823C55.5828 42.5823 55.1675 42.4222 54.8509 42.1017L51.2867 38.4976C49.3754 36.565 48.8087 33.6838 49.8427 31.1578C50.877 28.6319 53.2924 27 55.9961 27C58.7035 27 61.1189 28.6319 62.1532 31.1576C63.1874 33.6838 62.6205 36.5648 60.7093 38.4975L57.1451 42.1017C56.8284 42.4221 56.4132 42.5823 55.998 42.5823Z" fill="#F54B5E"/>
<path d="M57.146 42.1017L60.7102 38.4975C62.6215 36.5648 63.1882 33.6838 62.1541 31.1576C61.1199 28.6319 58.7045 27 55.9971 27V42.5822C55.9977 42.5822 55.9983 42.5823 55.9989 42.5823C56.4141 42.5823 56.8293 42.4221 57.146 42.1017Z" fill="#F3263D"/>
<path fill-rule="evenodd" clip-rule="evenodd" d="M61.6023 71.1507C60.8588 71.8909 60.4382 72.8981 60.4382 73.9516C60.4382 75.005 60.8588 76.0122 61.6023 76.7524L67.7883 82.9088L67.835 82.9518C68.3926 83.4653 69.0846 83.8075 69.8285 83.9399C70.5724 84.0724 71.339 83.9899 72.0381 83.7017C72.7373 83.4135 73.3412 82.9309 73.7767 82.3088C74.2122 81.6865 74.4604 80.9514 74.4901 80.1905L74.4926 80.1267V79.7993C77.6655 78.7847 80.3816 76.9594 82.1159 74.2822C84.3871 70.7761 84.5857 66.4116 82.8016 61.9238L82.7879 61.8894L82.7734 61.8553C82.4303 61.0458 81.8283 60.3759 81.065 59.9478C80.3021 59.52 79.4196 59.357 78.5555 59.4828C77.6912 59.6086 76.8908 60.0167 76.2808 60.6464C75.6705 61.2763 75.2855 62.0925 75.1895 62.9676L75.1855 63.0044L75.1822 63.0413C75.141 63.5161 74.7172 64.5849 73.8311 65.6645C73.8198 65.6475 73.8084 65.6306 73.7969 65.6138C73.3608 64.9791 72.7501 64.4867 72.041 64.1944C71.3321 63.9022 70.5539 63.8219 69.8008 63.9627C69.0476 64.1035 68.3499 64.4598 67.7935 64.9904L67.7682 65.0145L61.6023 71.1507ZM71.6825 70.6954C72.6281 70.6321 73.5955 70.197 74.4926 69.5419C75.5959 68.7362 76.5929 67.5977 77.312 66.4088C77.4727 66.143 77.6196 65.8747 77.7507 65.607C78.0698 64.9555 78.2952 64.3079 78.3993 63.7095C78.4016 63.6967 78.4037 63.684 78.4058 63.6712C78.4253 63.5538 78.4401 63.4384 78.4499 63.3252C78.4663 63.1761 78.5319 63.0366 78.6366 62.9286C78.7412 62.8206 78.8789 62.7503 79.028 62.7285C79.1771 62.7068 79.3293 62.735 79.4606 62.8087C79.5919 62.8823 79.695 62.9972 79.7536 63.1355C79.7953 63.2404 79.8356 63.3449 79.8745 63.449C79.8787 63.4603 79.8829 63.4716 79.8871 63.4829C80.0087 63.8105 80.1164 64.1342 80.2107 64.4536C80.3263 64.8456 80.4216 65.2313 80.4971 65.6102C80.5955 66.104 80.6604 66.5864 80.6931 67.0566C81.0641 72.3918 77.2907 76.156 71.3509 77.1993C71.3049 77.2073 71.2588 77.2153 71.2126 77.223V80.0628C71.2075 80.1937 71.1648 80.3204 71.0895 80.4279C71.0143 80.5354 70.9097 80.6191 70.7881 80.6693C70.6665 80.7194 70.533 80.7338 70.4034 80.7107C70.2739 80.6876 70.1537 80.6281 70.0571 80.5391L63.9164 74.4279C63.7895 74.3015 63.7182 74.1302 63.7182 73.9516C63.7182 73.7729 63.7895 73.6016 63.9164 73.4753L70.0571 67.3641C70.1528 67.2728 70.2732 67.2112 70.4035 67.1869C70.5339 67.1625 70.6685 67.1764 70.791 67.2269C70.9136 67.2774 71.0187 67.3623 71.0935 67.4713C71.1684 67.5802 71.2097 67.7085 71.2126 67.8404V70.6954C71.2592 70.6986 71.306 70.7009 71.3528 70.7021C71.4623 70.7051 71.5722 70.7028 71.6825 70.6954Z" fill="white"/>
<path d="M63.9204 73.4726L70.061 67.3615C70.1568 67.2702 70.2772 67.2086 70.4075 67.1842C70.5378 67.1599 70.6725 67.1738 70.795 67.2243C70.9175 67.2748 71.0226 67.3597 71.0975 67.4686C71.1723 67.5776 71.2137 67.7058 71.2165 67.8378V70.6928C74.4794 70.9183 78.1938 66.3165 78.4539 63.3226C78.4703 63.1735 78.5359 63.034 78.6405 62.926C78.7451 62.818 78.8828 62.7476 79.032 62.7259C79.1811 62.7042 79.3333 62.7323 79.4646 62.806C79.5959 62.8796 79.699 62.9946 79.7575 63.1328C82.7093 70.5578 78.6114 75.9811 71.2165 77.2204V80.0602C71.2114 80.1911 71.1687 80.3177 71.0935 80.4252C71.0183 80.5327 70.9137 80.6165 70.7921 80.6666C70.6705 80.7167 70.537 80.7311 70.4074 80.708C70.2778 80.685 70.1576 80.6254 70.061 80.5365L63.9204 74.4252C63.7935 74.2989 63.7222 74.1275 63.7222 73.9489C63.7222 73.7703 63.7935 73.5989 63.9204 73.4726Z" fill="#40D98D"/>
<path fill-rule="evenodd" clip-rule="evenodd" d="M50.3952 40.8532C51.1388 40.113 51.5594 39.1058 51.5594 38.0523C51.5594 36.9989 51.1388 35.9917 50.3952 35.2515L44.2093 29.0951L44.1626 29.0522C43.605 28.5386 42.9129 28.1964 42.169 28.064C41.4252 27.9316 40.6586 28.014 39.9595 28.3022C39.2603 28.5904 38.6563 29.073 38.2209 29.6951C37.7853 30.3174 37.5371 31.0525 37.5075 31.8134L37.505 31.8772V32.2046C34.3321 33.2192 31.6159 35.0445 29.8816 37.7217C27.6105 41.2278 27.4119 45.5923 29.196 50.0802L29.2097 50.1145L29.2241 50.1486C29.5673 50.9581 30.1693 51.628 30.9325 52.0561C31.6955 52.484 32.5779 52.6469 33.4421 52.5212C34.3063 52.3953 35.1068 51.9872 35.7168 51.3575C36.3271 50.7276 36.7121 49.9114 36.8081 49.0363L36.8121 48.9995L36.8153 48.9626C36.8566 48.4878 37.2804 47.419 38.1664 46.3394C38.1777 46.3564 38.1891 46.3733 38.2007 46.3901C38.6368 47.0248 39.2475 47.5172 39.9566 47.8095C40.6655 48.1017 41.4437 48.182 42.1968 48.0412C42.9499 47.9004 43.6476 47.5441 44.204 47.0135L44.2294 46.9894L50.3952 40.8532ZM40.3151 41.3085C39.3695 41.3718 38.4021 41.8069 37.505 42.462C36.4016 43.2677 35.4047 44.4062 34.6856 45.5951C34.5248 45.8609 34.3779 46.1292 34.2468 46.3969C33.9278 47.0484 33.7024 47.696 33.5982 48.2944C33.596 48.3072 33.5938 48.3199 33.5917 48.3327C33.5722 48.4501 33.5575 48.5655 33.5476 48.6787C33.5313 48.8278 33.4656 48.9673 33.361 49.0753C33.2564 49.1833 33.1187 49.2537 32.9696 49.2754C32.8204 49.2971 32.6682 49.2689 32.5369 49.1953C32.4056 49.1216 32.3026 49.0067 32.244 48.8684C32.2023 48.7635 32.162 48.659 32.1231 48.5549C32.1188 48.5436 32.1146 48.5323 32.1105 48.521C31.9889 48.1934 31.8811 47.8697 31.7869 47.5503C31.6713 47.1583 31.576 46.7726 31.5004 46.3937C31.402 45.8999 31.3371 45.4175 31.3044 44.9473C30.9335 39.6121 34.7068 35.8479 40.6466 34.8046C40.6926 34.7966 40.7387 34.7886 40.785 34.7809V31.9411C40.7901 31.8102 40.8328 31.6835 40.908 31.576C40.9832 31.4685 41.0879 31.3848 41.2095 31.3346C41.3311 31.2845 41.4646 31.2701 41.5941 31.2932C41.7237 31.3163 41.8439 31.3758 41.9405 31.4648L48.0812 37.576C48.2081 37.7024 48.2794 37.8737 48.2794 38.0523C48.2794 38.231 48.2081 38.4023 48.0812 38.5286L41.9405 44.6398C41.8447 44.7311 41.7244 44.7927 41.594 44.817C41.4637 44.8414 41.329 44.8275 41.2065 44.777C41.084 44.7265 40.9789 44.6416 40.904 44.5326C40.8292 44.4237 40.7878 44.2954 40.785 44.1635V41.3085C40.7383 41.3053 40.6916 41.303 40.6448 41.3018C40.5353 41.2988 40.4253 41.3011 40.3151 41.3085Z" fill="white"/>
<path d="M48.0772 38.5274L41.9365 44.6385C41.8408 44.7298 41.7204 44.7914 41.5901 44.8158C41.4597 44.8401 41.3251 44.8262 41.2026 44.7757C41.08 44.7252 40.9749 44.6403 40.9001 44.5314C40.8252 44.4224 40.7839 44.2942 40.781 44.1622V41.3072C37.5182 41.0817 33.8038 45.6835 33.5437 48.6774C33.5273 48.8265 33.4617 48.966 33.357 49.074C33.2524 49.182 33.1147 49.2524 32.9656 49.2741C32.8164 49.2958 32.6643 49.2677 32.533 49.194C32.4016 49.1204 32.2986 49.0054 32.24 48.8672C29.2883 41.4422 33.3862 36.0189 40.781 34.7796V31.9398C40.7861 31.8089 40.8288 31.6823 40.904 31.5748C40.9793 31.4673 41.0839 31.3835 41.2055 31.3334C41.3271 31.2833 41.4606 31.2689 41.5902 31.292C41.7197 31.315 41.8399 31.3746 41.9365 31.4635L48.0772 37.5748C48.2041 37.7011 48.2754 37.8725 48.2754 38.0511C48.2754 38.2297 48.2041 38.4011 48.0772 38.5274Z" fill="#40D98D"/>
<path d="M55.9983 138.581H47.3357C44.4998 138.581 42.2117 136.26 42.2117 133.399C42.2117 131.257 43.4737 129.347 45.4269 128.529C47.381 127.71 49.6092 128.159 51.1043 129.671L57.1455 135.78C57.6095 136.249 57.7482 136.955 57.4972 137.568C57.246 138.181 56.6545 138.581 55.9983 138.581Z" fill="#F54B5E"/>
<path d="M64.6627 138.581H56C55.3438 138.581 54.7523 138.181 54.5012 137.568C54.2501 136.955 54.3889 136.249 54.8529 135.78L60.8941 129.671C62.3892 128.159 64.6177 127.71 66.5711 128.528C68.5247 129.347 69.7866 131.257 69.7866 133.395C69.7867 136.266 67.4943 138.581 64.6627 138.581Z" fill="#F54B5E"/>
<path d="M73.3762 177.242H38.6212C37.7252 177.242 36.9988 176.508 36.9988 175.602V154.514C36.9988 143.92 45.5221 135.301 55.9987 135.301C66.4753 135.301 74.9986 143.92 74.9986 154.514V175.602C74.9986 176.508 74.2722 177.242 73.3762 177.242Z" fill="#F0F7FE"/>
<path d="M74.9988 175.602V154.514C74.9988 143.92 66.4755 135.301 55.9989 135.301C55.9983 135.301 55.9977 135.301 55.9971 135.301V177.242H73.3764C74.2724 177.242 74.9988 176.508 74.9988 175.602Z" fill="#E2EFFE"/>
<path d="M65.8229 167.474L58.8277 160.384C58.5234 160.076 58.1101 159.902 57.6792 159.902C57.6787 159.902 57.6769 159.902 57.6775 159.902H54.2279C54.2284 159.902 54.2268 159.902 54.2261 159.902C53.7952 159.902 53.382 160.076 53.0776 160.384L46.0822 167.474C44.1681 169.414 43.6024 172.303 44.641 174.833C45.6794 177.364 48.101 178.999 50.8123 178.999C52.8729 178.999 54.7135 178.069 55.9527 176.604C57.1999 178.075 59.0504 178.999 61.0946 178.999C63.8042 178.999 66.2258 177.364 67.2641 174.833C68.3029 172.303 67.7371 169.414 65.8229 167.474Z" fill="#F54B5E"/>
<path d="M61.0948 178.999C63.8044 178.999 66.226 177.364 67.2643 174.833C68.303 172.303 67.7373 169.414 65.8231 167.474L58.8279 160.384C58.5235 160.076 58.1103 159.902 57.6794 159.902C57.6788 159.902 57.6771 159.902 57.6776 159.902C57.6785 159.902 56.8449 159.902 55.9971 159.902V176.654C57.2436 178.095 59.0741 178.999 61.0948 178.999Z" fill="#F3263D"/>
<path d="M49.0646 149.125C49.9703 149.125 50.7046 148.39 50.7046 147.484C50.7046 146.578 49.9703 145.844 49.0646 145.844C48.1588 145.844 47.4246 146.578 47.4246 147.484C47.4246 148.39 48.1588 149.125 49.0646 149.125Z" fill="#282A52"/>
<path d="M62.9669 149.125C63.8727 149.125 64.6069 148.39 64.6069 147.484C64.6069 146.578 63.8727 145.844 62.9669 145.844C62.0612 145.844 61.3269 146.578 61.3269 147.484C61.3269 148.39 62.0612 149.125 62.9669 149.125Z" fill="#1E203E"/>
<path d="M55.952 164.941C55.9501 164.941 55.9484 164.941 55.9466 164.941C55.5162 164.94 55.1042 164.766 54.801 164.457L47.896 157.428C47.266 156.786 47.2676 155.751 47.8998 155.111L51.1642 151.81C52.4569 150.504 54.1734 149.785 55.9981 149.785C57.8227 149.785 59.5392 150.504 60.8314 151.81L64.0963 155.111C64.4012 155.42 64.5722 155.838 64.5716 156.274C64.5709 156.71 64.3985 157.128 64.0925 157.436L57.0955 164.465C56.7914 164.77 56.3803 164.941 55.952 164.941Z" fill="#FEE048"/>
<path d="M64.0933 157.436C64.3993 157.128 64.5716 156.71 64.5723 156.274C64.5731 155.838 64.4021 155.42 64.0971 155.111L60.8322 151.81C59.54 150.504 57.8235 149.785 55.9989 149.785C55.9983 149.785 55.9977 149.785 55.9971 149.785V164.939C56.4093 164.928 56.8027 164.759 57.0962 164.465L64.0933 157.436Z" fill="#FED601"/>
<path d="M55.998 138.582C55.5828 138.582 55.1675 138.422 54.8509 138.102L51.2867 134.498C49.3754 132.565 48.8087 129.684 49.8427 127.158C50.877 124.632 53.2924 123 55.9961 123C58.7035 123 61.1189 124.632 62.1532 127.158C63.1874 129.684 62.6205 132.565 60.7093 134.498L57.1451 138.102C56.8284 138.422 56.4132 138.582 55.998 138.582Z" fill="#F54B5E"/>
<path d="M57.146 138.102L60.7102 134.498C62.6215 132.565 63.1882 129.684 62.1541 127.158C61.1199 124.632 58.7045 123 55.9971 123V138.582C55.9977 138.582 55.9983 138.582 55.9989 138.582C56.4141 138.582 56.8293 138.422 57.146 138.102Z" fill="#F3263D"/>
<path fill-rule="evenodd" clip-rule="evenodd" d="M61.6023 167.151C60.8588 167.891 60.4382 168.898 60.4382 169.952C60.4382 171.005 60.8588 172.012 61.6023 172.752L67.7883 178.909L67.835 178.952C68.3926 179.465 69.0846 179.807 69.8285 179.94C70.5724 180.072 71.339 179.99 72.0381 179.702C72.7373 179.414 73.3412 178.931 73.7767 178.309C74.2122 177.687 74.4604 176.951 74.4901 176.191L74.4926 176.127V175.799C77.6655 174.785 80.3816 172.959 82.1159 170.282C84.3871 166.776 84.5857 162.412 82.8016 157.924L82.7879 157.889L82.7734 157.855C82.4303 157.046 81.8283 156.376 81.065 155.948C80.3021 155.52 79.4196 155.357 78.5555 155.483C77.6912 155.609 76.8908 156.017 76.2808 156.646C75.6705 157.276 75.2855 158.092 75.1895 158.968L75.1855 159.004L75.1822 159.041C75.141 159.516 74.7172 160.585 73.8311 161.664C73.8198 161.648 73.8084 161.631 73.7969 161.614C73.3608 160.979 72.7501 160.487 72.041 160.194C71.3321 159.902 70.5539 159.822 69.8008 159.963C69.0476 160.104 68.3499 160.46 67.7935 160.99L67.7682 161.015L61.6023 167.151ZM71.6825 166.695C72.6281 166.632 73.5955 166.197 74.4926 165.542C75.5959 164.736 76.5929 163.598 77.312 162.409C77.4727 162.143 77.6196 161.875 77.7507 161.607C78.0698 160.956 78.2952 160.308 78.3993 159.71C78.4016 159.697 78.4037 159.684 78.4058 159.671C78.4253 159.554 78.4401 159.438 78.4499 159.325C78.4663 159.176 78.5319 159.037 78.6366 158.929C78.7412 158.821 78.8789 158.75 79.028 158.729C79.1771 158.707 79.3293 158.735 79.4606 158.809C79.5919 158.882 79.695 158.997 79.7536 159.135C79.7953 159.24 79.8356 159.345 79.8745 159.449C79.8787 159.46 79.8829 159.472 79.8871 159.483C80.0087 159.811 80.1164 160.134 80.2107 160.454C80.3263 160.846 80.4216 161.231 80.4971 161.61C80.5955 162.104 80.6604 162.586 80.6931 163.057C81.0641 168.392 77.2907 172.156 71.3509 173.199C71.3049 173.207 71.2588 173.215 71.2126 173.223V176.063C71.2075 176.194 71.1648 176.32 71.0895 176.428C71.0143 176.535 70.9097 176.619 70.7881 176.669C70.6665 176.719 70.533 176.734 70.4034 176.711C70.2739 176.688 70.1537 176.628 70.0571 176.539L63.9164 170.428C63.7895 170.302 63.7182 170.13 63.7182 169.952C63.7182 169.773 63.7895 169.602 63.9164 169.475L70.0571 163.364C70.1528 163.273 70.2732 163.211 70.4035 163.187C70.5339 163.163 70.6685 163.176 70.791 163.227C70.9136 163.277 71.0187 163.362 71.0935 163.471C71.1684 163.58 71.2097 163.708 71.2126 163.84V166.695C71.2592 166.699 71.306 166.701 71.3528 166.702C71.4623 166.705 71.5722 166.703 71.6825 166.695Z" fill="white"/>
<path d="M63.9204 169.473L70.061 163.361C70.1568 163.27 70.2772 163.209 70.4075 163.184C70.5378 163.16 70.6725 163.174 70.795 163.224C70.9175 163.275 71.0226 163.36 71.0975 163.469C71.1723 163.578 71.2137 163.706 71.2165 163.838V166.693C74.4794 166.918 78.1938 162.316 78.4539 159.323C78.4703 159.173 78.5359 159.034 78.6405 158.926C78.7451 158.818 78.8828 158.748 79.032 158.726C79.1811 158.704 79.3333 158.732 79.4646 158.806C79.5959 158.88 79.699 158.995 79.7575 159.133C82.7093 166.558 78.6114 171.981 71.2165 173.22V176.06C71.2114 176.191 71.1687 176.318 71.0935 176.425C71.0183 176.533 70.9137 176.616 70.7921 176.667C70.6705 176.717 70.537 176.731 70.4074 176.708C70.2778 176.685 70.1576 176.625 70.061 176.536L63.9204 170.425C63.7935 170.299 63.7222 170.128 63.7222 169.949C63.7222 169.77 63.7935 169.599 63.9204 169.473Z" fill="#40D98D"/>
<path fill-rule="evenodd" clip-rule="evenodd" d="M50.3952 136.853C51.1388 136.113 51.5594 135.106 51.5594 134.052C51.5594 132.999 51.1388 131.992 50.3952 131.252L44.2093 125.095L44.1626 125.052C43.605 124.539 42.9129 124.196 42.169 124.064C41.4252 123.932 40.6586 124.014 39.9595 124.302C39.2603 124.59 38.6563 125.073 38.2209 125.695C37.7853 126.317 37.5371 127.052 37.5075 127.813L37.505 127.877V128.205C34.3321 129.219 31.6159 131.045 29.8816 133.722C27.6105 137.228 27.4119 141.592 29.196 146.08L29.2097 146.115L29.2241 146.149C29.5673 146.958 30.1693 147.628 30.9325 148.056C31.6955 148.484 32.5779 148.647 33.4421 148.521C34.3063 148.395 35.1068 147.987 35.7168 147.358C36.3271 146.728 36.7121 145.911 36.8081 145.036L36.8121 144.999L36.8153 144.963C36.8566 144.488 37.2804 143.419 38.1664 142.339C38.1777 142.356 38.1891 142.373 38.2007 142.39C38.6368 143.025 39.2475 143.517 39.9566 143.809C40.6655 144.102 41.4437 144.182 42.1968 144.041C42.9499 143.9 43.6476 143.544 44.204 143.014L44.2294 142.989L50.3952 136.853ZM40.3151 137.308C39.3695 137.372 38.4021 137.807 37.505 138.462C36.4016 139.268 35.4047 140.406 34.6856 141.595C34.5248 141.861 34.3779 142.129 34.2468 142.397C33.9278 143.048 33.7024 143.696 33.5982 144.294C33.596 144.307 33.5938 144.32 33.5917 144.333C33.5722 144.45 33.5575 144.566 33.5476 144.679C33.5313 144.828 33.4656 144.967 33.361 145.075C33.2564 145.183 33.1187 145.254 32.9696 145.275C32.8204 145.297 32.6682 145.269 32.5369 145.195C32.4056 145.122 32.3026 145.007 32.244 144.868C32.2023 144.764 32.162 144.659 32.1231 144.555C32.1188 144.544 32.1146 144.532 32.1105 144.521C31.9889 144.193 31.8811 143.87 31.7869 143.55C31.6713 143.158 31.576 142.773 31.5004 142.394C31.402 141.9 31.3371 141.417 31.3044 140.947C30.9335 135.612 34.7068 131.848 40.6466 130.805C40.6926 130.797 40.7387 130.789 40.785 130.781V127.941C40.7901 127.81 40.8328 127.684 40.908 127.576C40.9832 127.469 41.0879 127.385 41.2095 127.335C41.3311 127.285 41.4646 127.27 41.5941 127.293C41.7237 127.316 41.8439 127.376 41.9405 127.465L48.0812 133.576C48.2081 133.702 48.2794 133.874 48.2794 134.052C48.2794 134.231 48.2081 134.402 48.0812 134.529L41.9405 140.64C41.8447 140.731 41.7244 140.793 41.594 140.817C41.4637 140.841 41.329 140.827 41.2065 140.777C41.084 140.726 40.9789 140.642 40.904 140.533C40.8292 140.424 40.7878 140.295 40.785 140.163V137.308C40.7383 137.305 40.6916 137.303 40.6448 137.302C40.5353 137.299 40.4253 137.301 40.3151 137.308Z" fill="white"/>
<path d="M48.0772 134.527L41.9365 140.639C41.8408 140.73 41.7204 140.791 41.5901 140.816C41.4597 140.84 41.3251 140.826 41.2026 140.776C41.08 140.725 40.9749 140.64 40.9001 140.531C40.8252 140.422 40.7839 140.294 40.781 140.162V137.307C37.5182 137.082 33.8038 141.684 33.5437 144.677C33.5273 144.827 33.4617 144.966 33.357 145.074C33.2524 145.182 33.1147 145.252 32.9656 145.274C32.8164 145.296 32.6643 145.268 32.533 145.194C32.4016 145.12 32.2986 145.005 32.24 144.867C29.2883 137.442 33.3862 132.019 40.781 130.78V127.94C40.7861 127.809 40.8288 127.682 40.904 127.575C40.9793 127.467 41.0839 127.384 41.2055 127.333C41.3271 127.283 41.4606 127.269 41.5902 127.292C41.7197 127.315 41.8399 127.375 41.9365 127.464L48.0772 133.575C48.2041 133.701 48.2754 133.872 48.2754 134.051C48.2754 134.23 48.2041 134.401 48.0772 134.527Z" fill="#40D98D"/>
<defs>
<filter id="filter0_d_10792_60800" x="10" y="9" width="96" height="96" filterUnits="userSpaceOnUse" color-interpolation-filters="sRGB">
<feFlood flood-opacity="0" result="BackgroundImageFix"/>
<feColorMatrix in="SourceAlpha" type="matrix" values="0 0 0 0 0 0 0 0 0 0 0 0 0 0 0 0 0 0 127 0" result="hardAlpha"/>
<feOffset dx="2" dy="1"/>
<feGaussianBlur stdDeviation="4"/>
<feColorMatrix type="matrix" values="0 0 0 0 0.0392157 0 0 0 0 0.0392157 0 0 0 0 0.0627451 0 0 0 0.08 0"/>
<feBlend mode="normal" in2="BackgroundImageFix" result="effect1_dropShadow_10792_60800"/>
<feBlend mode="normal" in="SourceGraphic" in2="effect1_dropShadow_10792_60800" result="shape"/>
</filter>
<filter id="filter1_dd_10792_60800" x="6" y="9" width="100" height="100" filterUnits="userSpaceOnUse" color-interpolation-filters="sRGB">
<feFlood flood-opacity="0" result="BackgroundImageFix"/>
<feColorMatrix in="SourceAlpha" type="matrix" values="0 0 0 0 0 0 0 0 0 0 0 0 0 0 0 0 0 0 127 0" result="hardAlpha"/>
<feOffset dy="3"/>
<feGaussianBlur stdDeviation="5"/>
<feColorMatrix type="matrix" values="0 0 0 0 0.516667 0 0 0 0 0.578358 0 0 0 0 0.775 0 0 0 0.12 0"/>
<feBlend mode="normal" in2="BackgroundImageFix" result="effect1_dropShadow_10792_60800"/>
<feColorMatrix in="SourceAlpha" type="matrix" values="0 0 0 0 0 0 0 0 0 0 0 0 0 0 0 0 0 0 127 0" result="hardAlpha"/>
<feOffset dy="1"/>
<feGaussianBlur stdDeviation="3"/>
<feColorMatrix type="matrix" values="0 0 0 0 0.709809 0 0 0 0 0.788943 0 0 0 0 0.920833 0 0 0 0.15 0"/>
<feBlend mode="normal" in2="effect1_dropShadow_10792_60800" result="effect2_dropShadow_10792_60800"/>
<feBlend mode="normal" in="SourceGraphic" in2="effect2_dropShadow_10792_60800" result="shape"/>
</filter>
</defs>
</svg>
