<svg width="112" height="208" viewBox="0 0 112 208" fill="none" xmlns="http://www.w3.org/2000/svg">
<rect x="0.5" y="0.5" width="111" height="207" rx="4.5" stroke="#9747FF" stroke-dasharray="10 5"/>
<g filter="url(#filter0_d_49987_12473)">
<rect x="16" y="16" width="80" height="80" rx="8" fill="white"/>
</g>
<path d="M30.0124 43.3918C29.9987 42.603 30.6397 41.9552 31.4265 42.0016C35.0254 42.2142 37.7643 43.3892 39.5203 45.6743C39.6714 45.8709 39.633 46.1499 39.4433 46.3092L32.7265 51.9506C32.5028 52.1385 32.1636 52.0839 32.0165 51.8312C30.5036 49.232 30.0759 47.0411 30.0124 43.3918Z" fill="#FFA099"/>
<path d="M54.0031 43.4016C54.0168 42.6127 53.376 41.9649 52.589 42.0114C48.9902 42.2239 46.2512 43.399 44.4952 45.6841C44.3442 45.8806 44.3826 46.1596 44.5723 46.319L51.289 51.9603C51.5128 52.1483 51.852 52.0937 51.9991 51.841C53.5121 49.2418 53.9395 47.0509 54.0031 43.4016Z" fill="#FF7E75"/>
<path d="M53.9915 54.7271C53.9915 48.218 48.1337 42.9414 41.9969 42.9414C35.8602 42.9414 30.0024 48.218 30.0024 54.7271C30.0024 69.748 53.9915 69.748 53.9915 54.7271Z" fill="#FFDECC"/>
<path d="M42.0029 65.9927C47.9984 65.9905 53.992 62.2352 53.992 54.7271C53.992 48.22 48.1377 42.9446 42.0029 42.9414V65.9927Z" fill="#FFCFB5"/>
<path d="M47.9456 56.9452C47.9456 54.3687 45.1339 52.28 42.1883 52.28C39.2426 52.28 36.4309 54.3687 36.4309 56.9452C36.4309 62.891 47.9456 62.891 47.9456 56.9452Z" fill="#FFA099"/>
<path d="M47.2742 50.1473C47.2742 49.3516 46.6298 48.7065 45.8349 48.7065C45.0399 48.7065 44.3955 49.3516 44.3955 50.1473C44.3955 50.9429 45.0399 51.588 45.8349 51.588C46.6298 51.588 47.2742 50.9429 47.2742 50.1473Z" fill="#1E203E"/>
<path d="M39.5984 50.1473C39.5984 49.3516 38.954 48.7065 38.1591 48.7065C37.3641 48.7065 36.7197 49.3516 36.7197 50.1473C36.7197 50.9429 37.3641 51.588 38.1591 51.588C38.954 51.588 39.5984 50.9429 39.5984 50.1473Z" fill="#282A52"/>
<path fill-rule="evenodd" clip-rule="evenodd" d="M40.3189 58.6177C39.789 58.6177 39.3594 58.1877 39.3594 57.6573V56.6968C39.3594 56.1664 39.789 55.7363 40.3189 55.7363C40.8489 55.7363 41.2785 56.1664 41.2785 56.6968V57.6573C41.2785 58.1877 40.8489 58.6177 40.3189 58.6177Z" fill="#282A52"/>
<path d="M42.0029 61.4025C44.9422 61.4679 47.9462 59.9821 47.9462 56.9452C47.9462 54.3687 45.1345 52.28 42.1889 52.28C42.1268 52.28 42.0648 52.281 42.0029 52.2828V61.4025Z" fill="#FF7E75"/>
<path fill-rule="evenodd" clip-rule="evenodd" d="M43.6783 58.6177C43.1484 58.6177 42.7188 58.1877 42.7188 57.6573V56.6968C42.7188 56.1664 43.1484 55.7363 43.6783 55.7363C44.2083 55.7363 44.6379 56.1664 44.6379 56.6968V57.6573C44.6379 58.1877 44.2083 58.6177 43.6783 58.6177Z" fill="#1E203E"/>
<path fill-rule="evenodd" clip-rule="evenodd" d="M56.0978 78.7968H45.2C44.8061 78.7968 44.5436 78.5014 44.5436 78.1404C44.5436 75.3182 43.2464 73.021 40.3907 73.021C37.5678 73.021 35.27 75.3182 35.27 78.1404C35.27 78.5014 35.0074 78.7968 34.6136 78.7968H31.2825C29.4771 78.7968 28 77.32 28 75.5151V62.651C28 62.29 28.2954 61.9946 28.6565 61.9946H56.0978C56.4589 61.9946 56.7543 62.29 56.7543 62.651V78.1404C56.7871 78.5014 56.4589 78.7968 56.0978 78.7968Z" fill="#157DF5"/>
<path fill-rule="evenodd" clip-rule="evenodd" d="M81.9964 78.7947H77.3354C76.9743 78.7947 76.6789 78.4993 76.6789 78.1383C76.6789 75.3161 74.3811 73.0189 71.5582 73.0189C68.7353 73.0189 66.4376 75.3161 66.4376 78.1383C66.4376 78.4993 66.1422 78.7947 65.7811 78.7947H56.0979C55.7368 78.7947 55.4414 78.4993 55.4414 78.1383L55.4742 53.2633C55.704 51.4255 57.3781 51.0646 58.2315 51.1302H68.4727C68.7682 51.1302 68.9979 51.2943 69.0964 51.524L73.3964 62.2879L81.2743 63.338C83.4735 63.699 84.0316 65.307 83.9987 66.0946V77.0226C83.9331 77.5805 83.4735 78.7947 81.9964 78.7947Z" fill="#0965CD"/>
<path fill-rule="evenodd" clip-rule="evenodd" d="M83.9992 68.0332V73.8746H81.603C77.7625 73.8746 77.7625 68.0332 81.603 68.0332H83.9992Z" fill="#40D98D"/>
<path fill-rule="evenodd" clip-rule="evenodd" d="M70.0152 53.7886L73.3961 62.2881H62.4656C60.6602 62.2881 59.1831 60.8113 59.1831 59.0064V57.0702C59.1831 55.2653 60.6602 53.7886 62.4656 53.7886H70.0152Z" fill="#B6D7FC"/>
<path fill-rule="evenodd" clip-rule="evenodd" d="M28 75.4808V69.6394H29.9366C33.7771 69.6394 33.7771 75.4808 29.9366 75.4808C29.6084 75.4808 28.6565 75.5136 28 75.4808Z" fill="#40D98D"/>
<path fill-rule="evenodd" clip-rule="evenodd" d="M71.5048 84.0062C68.4673 84.0062 66.0215 81.561 66.0215 78.5242C66.0215 75.4874 68.4673 73.0027 71.5048 73.0027C74.5424 73.0027 77.0277 75.4874 77.0277 78.5242C77.0277 81.561 74.5424 84.0062 71.5048 84.0062Z" fill="#1E203E"/>
<path fill-rule="evenodd" clip-rule="evenodd" d="M71.5246 80.4993C68.8564 80.4993 68.8564 76.498 71.5246 76.498C74.1927 76.498 74.1927 80.4993 71.5246 80.4993Z" fill="#B6D7FC"/>
<path fill-rule="evenodd" clip-rule="evenodd" d="M40.4868 84.0062C37.4492 84.0062 35.0034 81.561 35.0034 78.5242C35.0034 75.4874 37.4492 73.0027 40.4868 73.0027C43.5243 73.0027 46.0096 75.4874 46.0096 78.5242C46.0096 81.561 43.5243 84.0062 40.4868 84.0062Z" fill="#1E203E"/>
<path fill-rule="evenodd" clip-rule="evenodd" d="M40.5022 80.4993C37.8411 80.4993 37.8411 76.498 40.5022 76.498C43.1634 76.498 43.1914 80.4993 40.5022 80.4993Z" fill="#B6D7FC"/>
<path d="M75.8047 35.2498L69.664 41.3596C69.5683 41.4508 69.4479 41.5124 69.3176 41.5368C69.1872 41.5611 69.0526 41.5472 68.9301 41.4967C68.8075 41.4462 68.7024 41.3614 68.6276 41.2524C68.5527 41.1435 68.5114 41.0153 68.5085 40.8834V38.0291C65.2457 37.8036 61.5313 42.4043 61.2712 45.3975C61.2548 45.5466 61.1892 45.6861 61.0846 45.7941C60.98 45.902 60.8423 45.9724 60.6931 45.9941C60.544 46.0158 60.3918 45.9876 60.2605 45.914C60.1292 45.8404 60.0261 45.7254 59.9676 45.5873C57.0158 38.164 61.1137 32.7419 68.5085 31.503V28.6638C68.5136 28.533 68.5563 28.4063 68.6316 28.2988C68.7068 28.1914 68.8114 28.1076 68.933 28.0575C69.0546 28.0074 69.1881 27.993 69.3177 28.0161C69.4472 28.0391 69.5674 28.0987 69.664 28.1876L75.8047 34.2975C75.9316 34.4238 76.0029 34.5951 76.0029 34.7737C76.0029 34.9523 75.9316 35.1235 75.8047 35.2498Z" fill="#40D98D"/>
<path d="M30.0124 139.392C29.9987 138.603 30.6397 137.955 31.4265 138.002C35.0254 138.214 37.7643 139.389 39.5203 141.674C39.6714 141.871 39.633 142.15 39.4433 142.309L32.7265 147.951C32.5028 148.139 32.1636 148.084 32.0165 147.831C30.5036 145.232 30.0759 143.041 30.0124 139.392Z" fill="#FFA099"/>
<path d="M54.0031 139.402C54.0168 138.613 53.376 137.965 52.589 138.011C48.9902 138.224 46.2512 139.399 44.4952 141.684C44.3442 141.881 44.3826 142.16 44.5723 142.319L51.289 147.96C51.5128 148.148 51.852 148.094 51.9991 147.841C53.5121 145.242 53.9395 143.051 54.0031 139.402Z" fill="#FF7E75"/>
<path d="M53.9915 150.727C53.9915 144.218 48.1337 138.941 41.9969 138.941C35.8602 138.941 30.0024 144.218 30.0024 150.727C30.0024 165.748 53.9915 165.748 53.9915 150.727Z" fill="#FFDECC"/>
<path d="M42.0029 161.993C47.9984 161.99 53.992 158.235 53.992 150.727C53.992 144.22 48.1377 138.945 42.0029 138.941V161.993Z" fill="#FFCFB5"/>
<path d="M47.9456 152.945C47.9456 150.369 45.1339 148.28 42.1883 148.28C39.2426 148.28 36.4309 150.369 36.4309 152.945C36.4309 158.891 47.9456 158.891 47.9456 152.945Z" fill="#FFA099"/>
<path d="M47.2742 146.147C47.2742 145.352 46.6298 144.707 45.8349 144.707C45.0399 144.707 44.3955 145.352 44.3955 146.147C44.3955 146.943 45.0399 147.588 45.8349 147.588C46.6298 147.588 47.2742 146.943 47.2742 146.147Z" fill="#1E203E"/>
<path d="M39.5984 146.147C39.5984 145.352 38.954 144.707 38.1591 144.707C37.3641 144.707 36.7197 145.352 36.7197 146.147C36.7197 146.943 37.3641 147.588 38.1591 147.588C38.954 147.588 39.5984 146.943 39.5984 146.147Z" fill="#282A52"/>
<path fill-rule="evenodd" clip-rule="evenodd" d="M40.3189 154.618C39.789 154.618 39.3594 154.188 39.3594 153.657V152.697C39.3594 152.166 39.789 151.736 40.3189 151.736C40.8489 151.736 41.2785 152.166 41.2785 152.697V153.657C41.2785 154.188 40.8489 154.618 40.3189 154.618Z" fill="#282A52"/>
<path d="M42.0029 157.402C44.9422 157.468 47.9462 155.982 47.9462 152.945C47.9462 150.369 45.1345 148.28 42.1889 148.28C42.1268 148.28 42.0648 148.281 42.0029 148.283V157.402Z" fill="#FF7E75"/>
<path fill-rule="evenodd" clip-rule="evenodd" d="M43.6783 154.618C43.1484 154.618 42.7188 154.188 42.7188 153.657V152.697C42.7188 152.166 43.1484 151.736 43.6783 151.736C44.2083 151.736 44.6379 152.166 44.6379 152.697V153.657C44.6379 154.188 44.2083 154.618 43.6783 154.618Z" fill="#1E203E"/>
<path fill-rule="evenodd" clip-rule="evenodd" d="M56.0978 174.797H45.2C44.8061 174.797 44.5436 174.501 44.5436 174.14C44.5436 171.318 43.2464 169.021 40.3907 169.021C37.5678 169.021 35.27 171.318 35.27 174.14C35.27 174.501 35.0074 174.797 34.6136 174.797H31.2825C29.4771 174.797 28 173.32 28 171.515V158.651C28 158.29 28.2954 157.995 28.6565 157.995H56.0978C56.4589 157.995 56.7543 158.29 56.7543 158.651V174.14C56.7871 174.501 56.4589 174.797 56.0978 174.797Z" fill="#157DF5"/>
<path fill-rule="evenodd" clip-rule="evenodd" d="M81.9964 174.795H77.3354C76.9743 174.795 76.6789 174.499 76.6789 174.138C76.6789 171.316 74.3811 169.019 71.5582 169.019C68.7353 169.019 66.4376 171.316 66.4376 174.138C66.4376 174.499 66.1422 174.795 65.7811 174.795H56.0979C55.7368 174.795 55.4414 174.499 55.4414 174.138L55.4742 149.263C55.704 147.426 57.3781 147.065 58.2315 147.13H68.4727C68.7682 147.13 68.9979 147.294 69.0964 147.524L73.3964 158.288L81.2743 159.338C83.4735 159.699 84.0316 161.307 83.9987 162.095V173.023C83.9331 173.58 83.4735 174.795 81.9964 174.795Z" fill="#0965CD"/>
<path fill-rule="evenodd" clip-rule="evenodd" d="M83.9992 164.033V169.875H81.603C77.7625 169.875 77.7625 164.033 81.603 164.033H83.9992Z" fill="#40D98D"/>
<path fill-rule="evenodd" clip-rule="evenodd" d="M70.0152 149.789L73.3961 158.288H62.4656C60.6602 158.288 59.1831 156.811 59.1831 155.006V153.07C59.1831 151.265 60.6602 149.789 62.4656 149.789H70.0152Z" fill="#B6D7FC"/>
<path fill-rule="evenodd" clip-rule="evenodd" d="M28 171.481V165.639H29.9366C33.7771 165.639 33.7771 171.481 29.9366 171.481C29.6084 171.481 28.6565 171.514 28 171.481Z" fill="#40D98D"/>
<path fill-rule="evenodd" clip-rule="evenodd" d="M71.5048 180.006C68.4673 180.006 66.0215 177.561 66.0215 174.524C66.0215 171.487 68.4673 169.003 71.5048 169.003C74.5424 169.003 77.0277 171.487 77.0277 174.524C77.0277 177.561 74.5424 180.006 71.5048 180.006Z" fill="#1E203E"/>
<path fill-rule="evenodd" clip-rule="evenodd" d="M71.5246 176.499C68.8564 176.499 68.8564 172.498 71.5246 172.498C74.1927 172.498 74.1927 176.499 71.5246 176.499Z" fill="#B6D7FC"/>
<path fill-rule="evenodd" clip-rule="evenodd" d="M40.4868 180.006C37.4492 180.006 35.0034 177.561 35.0034 174.524C35.0034 171.487 37.4492 169.003 40.4868 169.003C43.5243 169.003 46.0096 171.487 46.0096 174.524C46.0096 177.561 43.5243 180.006 40.4868 180.006Z" fill="#1E203E"/>
<path fill-rule="evenodd" clip-rule="evenodd" d="M40.5022 176.499C37.8411 176.499 37.8411 172.498 40.5022 172.498C43.1634 172.498 43.1914 176.499 40.5022 176.499Z" fill="#B6D7FC"/>
<path d="M75.8047 131.25L69.664 137.36C69.5683 137.451 69.4479 137.512 69.3176 137.537C69.1872 137.561 69.0526 137.547 68.9301 137.497C68.8075 137.446 68.7024 137.361 68.6276 137.252C68.5527 137.144 68.5114 137.015 68.5085 136.883V134.029C65.2457 133.804 61.5313 138.404 61.2712 141.398C61.2548 141.547 61.1892 141.686 61.0846 141.794C60.98 141.902 60.8423 141.972 60.6931 141.994C60.544 142.016 60.3918 141.988 60.2605 141.914C60.1292 141.84 60.0261 141.725 59.9676 141.587C57.0158 134.164 61.1137 128.742 68.5085 127.503V124.664C68.5136 124.533 68.5563 124.406 68.6316 124.299C68.7068 124.191 68.8114 124.108 68.933 124.058C69.0546 124.007 69.1881 123.993 69.3177 124.016C69.4472 124.039 69.5674 124.099 69.664 124.188L75.8047 130.297C75.9316 130.424 76.0029 130.595 76.0029 130.774C76.0029 130.952 75.9316 131.124 75.8047 131.25Z" fill="#40D98D"/>
<defs>
<filter id="filter0_d_49987_12473" x="10" y="9" width="96" height="96" filterUnits="userSpaceOnUse" color-interpolation-filters="sRGB">
<feFlood flood-opacity="0" result="BackgroundImageFix"/>
<feColorMatrix in="SourceAlpha" type="matrix" values="0 0 0 0 0 0 0 0 0 0 0 0 0 0 0 0 0 0 127 0" result="hardAlpha"/>
<feOffset dx="2" dy="1"/>
<feGaussianBlur stdDeviation="4"/>
<feColorMatrix type="matrix" values="0 0 0 0 0.0392157 0 0 0 0 0.0392157 0 0 0 0 0.0627451 0 0 0 0.08 0"/>
<feBlend mode="normal" in2="BackgroundImageFix" result="effect1_dropShadow_49987_12473"/>
<feBlend mode="normal" in="SourceGraphic" in2="effect1_dropShadow_49987_12473" result="shape"/>
</filter>
</defs>
</svg>
