<svg width="112" height="208" viewBox="0 0 112 208" fill="none" xmlns="http://www.w3.org/2000/svg">
<rect x="0.5" y="0.5" width="111" height="207" rx="4.5" stroke="#9747FF" stroke-dasharray="10 5"/>
<g filter="url(#filter0_d_6367_23851)">
<rect x="16" y="16" width="80" height="80" rx="8" fill="white"/>
</g>
<path d="M83.4884 63.8868H83.1376L79.3556 55.8733H79.7876L78.2617 52.6101C77.9519 51.9393 77.28 51.5098 76.5368 51.5098H65.9633L61.7109 63.4568L66.3829 78.6149H82.405C83.2778 78.6149 83.9857 77.9083 83.9867 77.0361C83.9867 77.0361 83.9992 68.183 83.9994 65.1099C83.9994 65.0593 83.9884 65.0105 83.9672 64.9646L83.4884 63.8868Z" fill="#157DF5"/>
<path d="M79.7885 55.875H72.9546C72.4015 55.875 71.9531 56.323 71.9531 56.8757V62.6656C71.9531 63.341 72.501 63.8886 73.1769 63.8886H83.4892L79.7885 55.875Z" fill="#F0F7FE"/>
<path d="M32.7188 68.4943V77.0459C32.7188 77.8259 33.497 78.6179 34.457 78.6179H66.3827V68.4941H32.7188V68.4943Z" fill="#40D98D"/>
<path d="M47.1055 68.4941H66.3846V78.6179H47.1055V68.4941Z" fill="#25BB71"/>
<path d="M66.3835 70.2347H29.2869C28.5762 70.2347 28 69.6589 28 68.9487V48.2723C28 47.5621 28.5762 46.9863 29.2869 46.9863H65.0966C65.8073 46.9863 66.3835 47.5621 66.3835 48.2723V53.5217V70.2347Z" fill="#E2EFFE"/>
<path d="M43.588 82.255C45.5308 82.255 47.1058 80.6812 47.1058 78.7398C47.1058 76.7983 45.5308 75.2245 43.588 75.2245C41.6452 75.2245 40.0703 76.7983 40.0703 78.7398C40.0703 80.6812 41.6452 82.255 43.588 82.255Z" fill="#157DF5"/>
<path d="M43.5879 84.0005C40.6855 84.0005 38.3242 81.6408 38.3242 78.7405C38.3242 75.8401 40.6855 73.4805 43.5879 73.4805C46.4903 73.4805 48.8516 75.8401 48.8516 78.7405C48.8516 81.6408 46.4903 84.0005 43.5879 84.0005ZM43.5879 76.9699C42.611 76.9699 41.8161 77.7642 41.8161 78.7405C41.8161 79.7167 42.611 80.511 43.5879 80.511C44.5648 80.511 45.3597 79.7167 45.3597 78.7405C45.3597 77.7642 44.5648 76.9699 43.5879 76.9699Z" fill="#1E203E"/>
<path d="M75.5177 82.2532C77.4605 82.2532 79.0354 80.6793 79.0354 78.7379C79.0354 76.7965 77.4605 75.2227 75.5177 75.2227C73.5749 75.2227 72 76.7965 72 78.7379C72 80.6793 73.5749 82.2532 75.5177 82.2532Z" fill="#0965CD"/>
<path d="M75.5176 83.9985C72.6152 83.9985 70.2539 81.6389 70.2539 78.7385C70.2539 75.8382 72.6152 73.4785 75.5176 73.4785C78.42 73.4785 80.7812 75.8382 80.7812 78.7385C80.7812 81.6389 78.42 83.9985 75.5176 83.9985ZM75.5176 76.968C74.5406 76.968 73.7458 77.7623 73.7458 78.7385C73.7458 79.7148 74.5406 80.509 75.5176 80.509C76.4945 80.509 77.2893 79.7148 77.2893 78.7385C77.2893 77.7623 76.4945 76.968 75.5176 76.968Z" fill="#1E203E"/>
<path d="M33.5155 65.1209C32.5512 65.1209 31.7695 64.3398 31.7695 63.3762V53.8424C31.7695 52.8788 32.5512 52.0977 33.5155 52.0977C34.4797 52.0977 35.2614 52.8788 35.2614 53.8424V63.3762C35.2614 64.3398 34.4797 65.1209 33.5155 65.1209Z" fill="#F0F7FE"/>
<path d="M41.5096 65.1208C40.5454 65.1208 39.7637 64.3397 39.7637 63.3761V53.8424C39.7637 52.8788 40.5454 52.0977 41.5096 52.0977C42.4739 52.0977 43.2556 52.8788 43.2556 53.8424V63.3761C43.2556 64.3397 42.4739 65.1208 41.5096 65.1208Z" fill="#F0F7FE"/>
<path d="M65.0957 46.9863H47.1035V70.2347H66.3826V48.2723C66.3826 47.5621 65.8064 46.9863 65.0957 46.9863Z" fill="#B6D7FC"/>
<path d="M52.746 65.1209C51.7817 65.1209 51 64.3398 51 63.3762V53.8424C51 52.8788 51.7817 52.0977 52.746 52.0977C53.7102 52.0977 54.4919 52.8788 54.4919 53.8424V63.3762C54.492 64.3398 53.7103 65.1209 52.746 65.1209Z" fill="#E2EFFE"/>
<path d="M60.742 65.1208C59.7778 65.1208 58.9961 64.3397 58.9961 63.3761V53.8424C58.9961 52.8788 59.7778 52.0977 60.742 52.0977C61.7063 52.0977 62.488 52.8788 62.488 53.8424V63.3761C62.4881 64.3397 61.7064 65.1208 60.742 65.1208Z" fill="#E2EFFE"/>
<path d="M56.0012 28C50.4788 28 46.002 32.5966 46.002 38.2668C46.002 38.2668 45.6284 46.791 55.1957 51.7976C55.6663 52.0438 56.2227 52.0457 56.6935 51.8C59.0353 50.5776 66.0004 46.269 66.0004 38.2668C66.0004 32.5966 61.5236 28 56.0012 28Z" fill="#F54B5E"/>
<path d="M56 28H56.0012C61.5236 28 66.0004 32.5966 66.0004 38.2668C66.0004 46.269 59.0353 50.5776 56.6935 51.8C56.475 51.914 56.2382 51.9747 56 51.9824V28Z" fill="#F3263D"/>
<ellipse cx="56" cy="37.9933" rx="4" ry="3.99721" fill="#F0F7FE"/>
<path d="M56 41.9905V33.9961C53.7909 33.9961 52 35.7857 52 37.9933C52 40.2009 53.7909 41.9905 56 41.9905Z" fill="white"/>
<path d="M83.4884 159.887H83.1376L79.3556 151.873H79.7876L78.2617 148.61C77.9519 147.939 77.28 147.51 76.5368 147.51H65.9633L61.7109 159.457L66.3829 174.615H82.405C83.2778 174.615 83.9857 173.908 83.9867 173.036C83.9867 173.036 83.9992 164.183 83.9994 161.11C83.9994 161.059 83.9884 161.01 83.9672 160.965L83.4884 159.887Z" fill="#157DF5"/>
<path d="M79.7885 151.875H72.9546C72.4015 151.875 71.9531 152.323 71.9531 152.876V158.666C71.9531 159.341 72.501 159.889 73.1769 159.889H83.4892L79.7885 151.875Z" fill="#F0F7FE"/>
<path d="M32.7188 164.494V173.046C32.7188 173.826 33.497 174.618 34.457 174.618H66.3827V164.494H32.7188V164.494Z" fill="#40D98D"/>
<path d="M47.1055 164.494H66.3846V174.618H47.1055V164.494Z" fill="#25BB71"/>
<path d="M66.3835 166.235H29.2869C28.5762 166.235 28 165.659 28 164.949V144.272C28 143.562 28.5762 142.986 29.2869 142.986H65.0966C65.8073 142.986 66.3835 143.562 66.3835 144.272V149.522V166.235Z" fill="#E2EFFE"/>
<path d="M43.588 178.255C45.5308 178.255 47.1058 176.681 47.1058 174.74C47.1058 172.798 45.5308 171.224 43.588 171.224C41.6452 171.224 40.0703 172.798 40.0703 174.74C40.0703 176.681 41.6452 178.255 43.588 178.255Z" fill="#157DF5"/>
<path d="M43.5879 180C40.6855 180 38.3242 177.641 38.3242 174.74C38.3242 171.84 40.6855 169.48 43.5879 169.48C46.4903 169.48 48.8516 171.84 48.8516 174.74C48.8516 177.641 46.4903 180 43.5879 180ZM43.5879 172.97C42.611 172.97 41.8161 173.764 41.8161 174.74C41.8161 175.717 42.611 176.511 43.5879 176.511C44.5648 176.511 45.3597 175.717 45.3597 174.74C45.3597 173.764 44.5648 172.97 43.5879 172.97Z" fill="#1E203E"/>
<path d="M75.5177 178.253C77.4605 178.253 79.0354 176.679 79.0354 174.738C79.0354 172.796 77.4605 171.223 75.5177 171.223C73.5749 171.223 72 172.796 72 174.738C72 176.679 73.5749 178.253 75.5177 178.253Z" fill="#0965CD"/>
<path d="M75.5176 179.999C72.6152 179.999 70.2539 177.639 70.2539 174.739C70.2539 171.838 72.6152 169.479 75.5176 169.479C78.42 169.479 80.7812 171.838 80.7812 174.739C80.7812 177.639 78.42 179.999 75.5176 179.999ZM75.5176 172.968C74.5406 172.968 73.7458 173.762 73.7458 174.739C73.7458 175.715 74.5406 176.509 75.5176 176.509C76.4945 176.509 77.2893 175.715 77.2893 174.739C77.2893 173.762 76.4945 172.968 75.5176 172.968Z" fill="#1E203E"/>
<path d="M33.5155 161.121C32.5512 161.121 31.7695 160.34 31.7695 159.376V149.842C31.7695 148.879 32.5512 148.098 33.5155 148.098C34.4797 148.098 35.2614 148.879 35.2614 149.842V159.376C35.2614 160.34 34.4797 161.121 33.5155 161.121Z" fill="#F0F7FE"/>
<path d="M41.5096 161.121C40.5454 161.121 39.7637 160.34 39.7637 159.376V149.842C39.7637 148.879 40.5454 148.098 41.5096 148.098C42.4739 148.098 43.2556 148.879 43.2556 149.842V159.376C43.2556 160.34 42.4739 161.121 41.5096 161.121Z" fill="#F0F7FE"/>
<path d="M65.0957 142.986H47.1035V166.235H66.3826V144.272C66.3826 143.562 65.8064 142.986 65.0957 142.986Z" fill="#B6D7FC"/>
<path d="M52.746 161.121C51.7817 161.121 51 160.34 51 159.376V149.842C51 148.879 51.7817 148.098 52.746 148.098C53.7102 148.098 54.4919 148.879 54.4919 149.842V159.376C54.492 160.34 53.7103 161.121 52.746 161.121Z" fill="#E2EFFE"/>
<path d="M60.742 161.121C59.7778 161.121 58.9961 160.34 58.9961 159.376V149.842C58.9961 148.879 59.7778 148.098 60.742 148.098C61.7063 148.098 62.488 148.879 62.488 149.842V159.376C62.4881 160.34 61.7064 161.121 60.742 161.121Z" fill="#E2EFFE"/>
<path d="M56.0012 124C50.4788 124 46.002 128.597 46.002 134.267C46.002 134.267 45.6284 142.791 55.1957 147.798C55.6663 148.044 56.2227 148.046 56.6935 147.8C59.0353 146.578 66.0004 142.269 66.0004 134.267C66.0004 128.597 61.5236 124 56.0012 124Z" fill="#F54B5E"/>
<path d="M56 124H56.0012C61.5236 124 66.0004 128.597 66.0004 134.267C66.0004 142.269 59.0353 146.578 56.6935 147.8C56.475 147.914 56.2382 147.975 56 147.982V124Z" fill="#F3263D"/>
<ellipse cx="56" cy="133.993" rx="4" ry="3.99721" fill="#F0F7FE"/>
<path d="M56 137.991V129.996C53.7909 129.996 52 131.786 52 133.993C52 136.201 53.7909 137.991 56 137.991Z" fill="white"/>
<defs>
<filter id="filter0_d_6367_23851" x="10" y="9" width="96" height="96" filterUnits="userSpaceOnUse" color-interpolation-filters="sRGB">
<feFlood flood-opacity="0" result="BackgroundImageFix"/>
<feColorMatrix in="SourceAlpha" type="matrix" values="0 0 0 0 0 0 0 0 0 0 0 0 0 0 0 0 0 0 127 0" result="hardAlpha"/>
<feOffset dx="2" dy="1"/>
<feGaussianBlur stdDeviation="4"/>
<feColorMatrix type="matrix" values="0 0 0 0 0.0392157 0 0 0 0 0.0392157 0 0 0 0 0.0627451 0 0 0 0.08 0"/>
<feBlend mode="normal" in2="BackgroundImageFix" result="effect1_dropShadow_6367_23851"/>
<feBlend mode="normal" in="SourceGraphic" in2="effect1_dropShadow_6367_23851" result="shape"/>
</filter>
</defs>
</svg>
