<svg width="112" height="208" viewBox="0 0 112 208" fill="none" xmlns="http://www.w3.org/2000/svg">
<rect x="0.5" y="0.5" width="111" height="207" rx="4.5" stroke="#9747FF" stroke-dasharray="10 5"/>
<g filter="url(#filter0_d_6367_23787)">
<rect x="16" y="16" width="80" height="80" rx="8" fill="white"/>
</g>
<path d="M83.4884 63.8868H83.1376L79.3556 55.8733H79.7876L78.2617 52.6101C77.9519 51.9393 77.28 51.5098 76.5368 51.5098H65.9633L61.7109 63.4568L66.3829 78.6149H82.405C83.2778 78.6149 83.9857 77.9083 83.9867 77.0361C83.9867 77.0361 83.9992 68.183 83.9994 65.1099C83.9994 65.0593 83.9884 65.0105 83.9672 64.9646L83.4884 63.8868Z" fill="#157DF5"/>
<path d="M79.7885 55.875H72.9546C72.4015 55.875 71.9531 56.323 71.9531 56.8757V62.6656C71.9531 63.341 72.501 63.8886 73.1769 63.8886H83.4892L79.7885 55.875Z" fill="#F0F7FE"/>
<path d="M32.7188 68.4943V77.0459C32.7188 77.8259 33.497 78.6179 34.457 78.6179H66.3827V68.4941H32.7188V68.4943Z" fill="#40D98D"/>
<path d="M47.1055 68.4941H66.3846V78.6179H47.1055V68.4941Z" fill="#25BB71"/>
<path d="M66.3835 70.2347H29.2869C28.5762 70.2347 28 69.6589 28 68.9487V48.2723C28 47.5621 28.5762 46.9863 29.2869 46.9863H65.0966C65.8073 46.9863 66.3835 47.5621 66.3835 48.2723V53.5217V70.2347Z" fill="#E2EFFE"/>
<path d="M43.588 82.255C45.5308 82.255 47.1058 80.6812 47.1058 78.7398C47.1058 76.7983 45.5308 75.2245 43.588 75.2245C41.6452 75.2245 40.0703 76.7983 40.0703 78.7398C40.0703 80.6812 41.6452 82.255 43.588 82.255Z" fill="#157DF5"/>
<path d="M43.5879 84.0005C40.6855 84.0005 38.3242 81.6408 38.3242 78.7405C38.3242 75.8401 40.6855 73.4805 43.5879 73.4805C46.4903 73.4805 48.8516 75.8401 48.8516 78.7405C48.8516 81.6408 46.4903 84.0005 43.5879 84.0005ZM43.5879 76.9699C42.611 76.9699 41.8161 77.7642 41.8161 78.7405C41.8161 79.7167 42.611 80.511 43.5879 80.511C44.5648 80.511 45.3597 79.7167 45.3597 78.7405C45.3597 77.7642 44.5648 76.9699 43.5879 76.9699Z" fill="#1E203E"/>
<path d="M75.5177 82.2532C77.4605 82.2532 79.0354 80.6793 79.0354 78.7379C79.0354 76.7965 77.4605 75.2227 75.5177 75.2227C73.5749 75.2227 72 76.7965 72 78.7379C72 80.6793 73.5749 82.2532 75.5177 82.2532Z" fill="#0965CD"/>
<path d="M75.5176 83.9985C72.6152 83.9985 70.2539 81.6389 70.2539 78.7385C70.2539 75.8382 72.6152 73.4785 75.5176 73.4785C78.42 73.4785 80.7812 75.8382 80.7812 78.7385C80.7812 81.6389 78.42 83.9985 75.5176 83.9985ZM75.5176 76.968C74.5406 76.968 73.7458 77.7623 73.7458 78.7385C73.7458 79.7148 74.5406 80.509 75.5176 80.509C76.4945 80.509 77.2893 79.7148 77.2893 78.7385C77.2893 77.7623 76.4945 76.968 75.5176 76.968Z" fill="#1E203E"/>
<path d="M33.5155 65.1209C32.5512 65.1209 31.7695 64.3398 31.7695 63.3762V53.8424C31.7695 52.8788 32.5512 52.0977 33.5155 52.0977C34.4797 52.0977 35.2614 52.8788 35.2614 53.8424V63.3762C35.2614 64.3398 34.4797 65.1209 33.5155 65.1209Z" fill="#F0F7FE"/>
<path d="M41.5096 65.1208C40.5454 65.1208 39.7637 64.3397 39.7637 63.3761V53.8424C39.7637 52.8788 40.5454 52.0977 41.5096 52.0977C42.4739 52.0977 43.2556 52.8788 43.2556 53.8424V63.3761C43.2556 64.3397 42.4739 65.1208 41.5096 65.1208Z" fill="#F0F7FE"/>
<path d="M65.0957 46.9863H47.1035V70.2347H66.3826V48.2723C66.3826 47.5621 65.8064 46.9863 65.0957 46.9863Z" fill="#B6D7FC"/>
<path d="M52.746 65.1209C51.7817 65.1209 51 64.3398 51 63.3762V53.8424C51 52.8788 51.7817 52.0977 52.746 52.0977C53.7102 52.0977 54.4919 52.8788 54.4919 53.8424V63.3762C54.492 64.3398 53.7103 65.1209 52.746 65.1209Z" fill="#E2EFFE"/>
<path d="M60.742 65.1208C59.7778 65.1208 58.9961 64.3397 58.9961 63.3761V53.8424C58.9961 52.8788 59.7778 52.0977 60.742 52.0977C61.7063 52.0977 62.488 52.8788 62.488 53.8424V63.3761C62.4881 64.3397 61.7064 65.1208 60.742 65.1208Z" fill="#E2EFFE"/>
<path d="M56.0012 28C50.4788 28 46.002 32.5966 46.002 38.2668C46.002 38.2668 45.6284 46.791 55.1957 51.7976C55.6663 52.0438 56.2227 52.0457 56.6935 51.8C59.0353 50.5776 66.0004 46.269 66.0004 38.2668C66.0004 32.5966 61.5236 28 56.0012 28Z" fill="#157DF5"/>
<path d="M56 28H56.0012C61.5236 28 66.0004 32.5966 66.0004 38.2668C66.0004 46.269 59.0353 50.5776 56.6935 51.8C56.475 51.914 56.2382 51.9747 56 51.9824V28Z" fill="#0965CD"/>
<ellipse cx="56" cy="37.9933" rx="4" ry="3.99721" fill="#F0F7FE"/>
<path d="M56 41.9905V33.9961C53.7909 33.9961 52 35.7857 52 37.9933C52 40.2009 53.7909 41.9905 56 41.9905Z" fill="white"/>
<path d="M83.4884 159.913H83.1376L79.3556 151.894H79.7876L78.2617 148.628C77.9519 147.957 77.28 147.527 76.5368 147.527H65.9633L61.7109 159.483L66.3829 174.651H82.405C83.2778 174.651 83.9857 173.944 83.9867 173.071C83.9867 173.071 83.9992 164.212 83.9994 161.137C83.9994 161.086 83.9884 161.037 83.9672 160.992L83.4884 159.913Z" fill="#157DF5"/>
<path d="M79.7885 151.895H72.9546C72.4015 151.895 71.9531 152.343 71.9531 152.896V158.69C71.9531 159.366 72.501 159.914 73.1769 159.914H83.4892L79.7885 151.895Z" fill="#F0F7FE"/>
<path d="M32.7188 164.524V173.081C32.7188 173.862 33.497 174.654 34.457 174.654H66.3827V164.523H32.7188V164.524Z" fill="#40D98D"/>
<path d="M47.1055 164.523H66.3846V174.654H47.1055V164.523Z" fill="#25BB71"/>
<path d="M66.3835 166.265H29.2869C28.5762 166.265 28 165.688 28 164.978V144.287C28 143.576 28.5762 143 29.2869 143H65.0966C65.8073 143 66.3835 143.576 66.3835 144.287V149.54V166.265Z" fill="#E2EFFE"/>
<path d="M43.588 178.293C45.5308 178.293 47.1058 176.718 47.1058 174.776C47.1058 172.833 45.5308 171.258 43.588 171.258C41.6452 171.258 40.0703 172.833 40.0703 174.776C40.0703 176.718 41.6452 178.293 43.588 178.293Z" fill="#157DF5"/>
<path d="M43.5879 180.039C40.6855 180.039 38.3242 177.678 38.3242 174.775C38.3242 171.873 40.6855 169.512 43.5879 169.512C46.4903 169.512 48.8516 171.873 48.8516 174.775C48.8516 177.678 46.4903 180.039 43.5879 180.039ZM43.5879 173.004C42.611 173.004 41.8161 173.798 41.8161 174.775C41.8161 175.752 42.611 176.547 43.5879 176.547C44.5648 176.547 45.3597 175.752 45.3597 174.775C45.3597 173.798 44.5648 173.004 43.5879 173.004Z" fill="#1E203E"/>
<path d="M75.5175 178.293C77.4603 178.293 79.0352 176.718 79.0352 174.776C79.0352 172.833 77.4603 171.258 75.5175 171.258C73.5747 171.258 71.9998 172.833 71.9998 174.776C71.9998 176.718 73.5747 178.293 75.5175 178.293Z" fill="#0965CD"/>
<path d="M75.5176 180.039C72.6152 180.039 70.2539 177.678 70.2539 174.775C70.2539 171.873 72.6152 169.512 75.5176 169.512C78.42 169.512 80.7812 171.873 80.7812 174.775C80.7812 177.678 78.42 180.039 75.5176 180.039ZM75.5176 173.004C74.5406 173.004 73.7458 173.798 73.7458 174.775C73.7458 175.752 74.5406 176.547 75.5176 176.547C76.4945 176.547 77.2893 175.752 77.2893 174.775C77.2893 173.798 76.4945 173.004 75.5176 173.004Z" fill="#1E203E"/>
<path d="M33.5155 161.146C32.5512 161.146 31.7695 160.364 31.7695 159.4V149.859C31.7695 148.895 32.5512 148.113 33.5155 148.113C34.4797 148.113 35.2614 148.895 35.2614 149.859V159.4C35.2614 160.364 34.4797 161.146 33.5155 161.146Z" fill="#F0F7FE"/>
<path d="M41.5096 161.146C40.5454 161.146 39.7637 160.364 39.7637 159.4V149.859C39.7637 148.895 40.5454 148.113 41.5096 148.113C42.4739 148.113 43.2556 148.895 43.2556 149.859V159.4C43.2556 160.364 42.4739 161.146 41.5096 161.146Z" fill="#F0F7FE"/>
<path d="M65.0957 143H47.1035V166.265H66.3826V144.287C66.3826 143.576 65.8064 143 65.0957 143Z" fill="#B6D7FC"/>
<path d="M52.746 161.146C51.7817 161.146 51 160.364 51 159.4V149.859C51 148.895 51.7817 148.113 52.746 148.113C53.7102 148.113 54.4919 148.895 54.4919 149.859V159.4C54.492 160.364 53.7103 161.146 52.746 161.146Z" fill="#E2EFFE"/>
<path d="M60.742 161.146C59.7778 161.146 58.9961 160.364 58.9961 159.4V149.859C58.9961 148.895 59.7778 148.113 60.742 148.113C61.7063 148.113 62.488 148.895 62.488 149.859V159.4C62.4881 160.364 61.7064 161.146 60.742 161.146Z" fill="#E2EFFE"/>
<path d="M56.0012 124C50.4788 124 46.002 128.6 46.002 134.274C46.002 134.274 45.6284 142.804 55.1957 147.814C55.6663 148.061 56.2227 148.062 56.6935 147.817C59.0353 146.593 66.0004 142.282 66.0004 134.274C66.0004 128.6 61.5236 124 56.0012 124Z" fill="#157DF5"/>
<path d="M56 124H56.0012C61.5236 124 66.0004 128.6 66.0004 134.274C66.0004 142.282 59.0353 146.593 56.6935 147.817C56.475 147.931 56.2382 147.991 56 147.999V124Z" fill="#0965CD"/>
<circle cx="56" cy="134" r="4" fill="#F0F7FE"/>
<path d="M56 138V130C53.7909 130 52 131.791 52 134C52 136.209 53.7909 138 56 138Z" fill="white"/>
<defs>
<filter id="filter0_d_6367_23787" x="10" y="9" width="96" height="96" filterUnits="userSpaceOnUse" color-interpolation-filters="sRGB">
<feFlood flood-opacity="0" result="BackgroundImageFix"/>
<feColorMatrix in="SourceAlpha" type="matrix" values="0 0 0 0 0 0 0 0 0 0 0 0 0 0 0 0 0 0 127 0" result="hardAlpha"/>
<feOffset dx="2" dy="1"/>
<feGaussianBlur stdDeviation="4"/>
<feColorMatrix type="matrix" values="0 0 0 0 0.0392157 0 0 0 0 0.0392157 0 0 0 0 0.0627451 0 0 0 0.08 0"/>
<feBlend mode="normal" in2="BackgroundImageFix" result="effect1_dropShadow_6367_23787"/>
<feBlend mode="normal" in="SourceGraphic" in2="effect1_dropShadow_6367_23787" result="shape"/>
</filter>
</defs>
</svg>
