<svg width="112" height="208" viewBox="0 0 112 208" fill="none" xmlns="http://www.w3.org/2000/svg">
<rect x="0.5" y="0.5" width="111" height="207" rx="4.5" stroke="#9747FF" stroke-dasharray="10 5"/>
<g filter="url(#filter0_d_57713_11171)">
<rect x="16" y="16" width="80" height="80" rx="8" fill="white"/>
</g>
<path d="M72.9991 34.5455V62.2234C72.9991 62.5818 72.8745 62.9299 72.6453 63.2083L62.6066 75.4265C62.3094 75.7891 61.8625 76 61.3905 76H41.1832C39.4522 76 38.0435 74.6016 38.0435 72.8831V34.5455C38.0435 32.6514 36.5 31.1169 34.5898 31.1169C33.7232 31.1169 33.0199 30.4187 33.0199 29.5584C33.0199 28.6982 32.1533 28 33.0199 28H66.4057C70.0415 28 72.9991 30.9361 72.9991 34.5455Z" fill="#E2EFFE"/>
<path d="M72.9995 73.1613V34.5455C72.9995 30.9361 70.0419 28 66.406 28H54.7891V76H70.1607C71.7285 76 72.9995 74.7291 72.9995 73.1613Z" fill="#B6D7FC"/>
<path d="M38.0471 44.4156H31.1397C29.4057 44.4156 28 43.0202 28 41.2987V32.987C28 30.2327 30.2491 28 33.0236 28C35.7903 28 38.0471 30.2251 38.0471 32.987V44.4156Z" fill="#B6D7FC"/>
<path d="M50.8182 56.8359H44.5104C43.6762 56.8359 43 56.1643 43 55.3359C43 54.5075 43.6762 53.8359 44.5104 53.8359H50.8182C51.6523 53.8359 52.3286 54.5075 52.3286 55.3359C52.3286 56.1643 51.6523 56.8359 50.8182 56.8359Z" fill="#282A52"/>
<path d="M61.6159 62.5C61.6159 63.328 60.9393 64 60.1056 64H44.3072C43.4735 64 42.7969 63.328 42.7969 62.5C42.7969 61.672 43.4735 61 44.3072 61H60.1056C60.9393 61 61.6159 61.672 61.6159 62.5Z" fill="#157DF5"/>
<path d="M61.6159 69.5C61.6159 70.328 60.9393 71 60.1056 71H44.3072C43.4735 71 42.7969 70.328 42.7969 69.5C42.7969 68.672 43.4735 68 44.3072 68H60.1056C60.9393 68 61.6159 68.672 61.6159 69.5Z" fill="#282A52"/>
<path d="M63.1049 64H54.8047V61H63.1049C63.9385 61 64.6152 61.672 64.6152 62.5C64.6152 63.328 63.9385 64 63.1049 64Z" fill="#0965CD"/>
<path d="M63.1049 71H54.8047V68H63.1049C63.9385 68 64.6152 68.672 64.6152 69.5C64.6152 70.328 63.9385 71 63.1049 71Z" fill="#1E203E"/>
<path fill-rule="evenodd" clip-rule="evenodd" d="M83.9971 71C83.9971 78.1797 78.1775 84 70.9986 84C63.8197 84 58 78.1797 58 71C58 63.8203 63.8197 58 70.9986 58C78.1775 58 83.9971 63.8203 83.9971 71ZM80.7866 71C80.7866 76.4064 76.4044 80.7892 70.9986 80.7892C65.5928 80.7892 61.2105 76.4064 61.2105 71C61.2105 65.5936 65.5928 61.2108 70.9986 61.2108C76.4044 61.2108 80.7866 65.5936 80.7866 71Z" fill="white"/>
<path d="M70.999 80.7892C76.4048 80.7892 80.7871 76.4065 80.7871 71.0001C80.7871 65.5937 76.4048 61.2109 70.999 61.2109C65.5932 61.2109 61.2109 65.5937 61.2109 71.0001C61.2109 76.4065 65.5932 80.7892 70.999 80.7892Z" fill="#157DF5"/>
<path d="M70.997 61.2109C70.9954 61.2109 70.9938 61.2109 70.9922 61.2109V80.7892C70.9938 80.7892 70.9954 80.7892 70.997 80.7892C76.4028 80.7892 80.7851 76.4065 80.7851 71.0001C80.7851 65.5937 76.4028 61.2109 70.997 61.2109Z" fill="#25BB71"/>
<path d="M76.0222 67.4354C75.4522 66.8653 74.528 66.8653 73.958 67.4354L69.9383 71.4554L68.0425 69.5593C67.4725 68.989 66.5483 68.9892 65.9783 69.5593C65.4083 70.1294 65.4083 71.0537 65.9783 71.6237L68.9062 74.5521C69.18 74.8259 69.5512 74.9797 69.9384 74.9797C70.3255 74.9797 70.6968 74.8259 70.9705 74.5521L76.0223 69.4998C76.5923 68.9297 76.5923 68.0054 76.0222 67.4354Z" fill="white"/>
<path d="M70.997 61.2109C70.9954 61.2109 70.9938 61.2109 70.9922 61.2109V80.7892C70.9938 80.7892 70.9954 80.7892 70.997 80.7892C76.4028 80.7892 80.7851 76.4065 80.7851 71.0001C80.7851 65.5937 76.4028 61.2109 70.997 61.2109Z" fill="#0965CD"/>
<path d="M73.9567 67.4432L70.9941 70.4061V74.535L76.0209 69.5076C76.5909 68.9375 76.5909 68.0132 76.0209 67.4432C75.451 66.8731 74.5267 66.8731 73.9567 67.4432Z" fill="#F0F7FE"/>
<path d="M69.1459 40.2191H68.975L67.1319 36.3225H67.3424L66.5987 34.7357C66.4478 34.4096 66.1203 34.2007 65.7581 34.2007H60.6052L58.5328 40.01L60.8097 47.3808H68.618C69.0433 47.3808 69.3883 47.0372 69.3888 46.613C69.3888 46.613 69.3949 42.3082 69.395 40.8139C69.395 40.7893 69.3896 40.7655 69.3793 40.7432L69.1459 40.2191Z" fill="#0965CD"/>
<path d="M67.3419 36.3206H64.0114C63.7418 36.3206 63.5233 36.5384 63.5233 36.8072V39.6226C63.5233 39.9509 63.7903 40.2172 64.1197 40.2172H69.1454L67.3419 36.3206Z" fill="#F0F7FE"/>
<path d="M43.6547 42.4588V46.6171C43.6547 46.9964 44.0339 47.3815 44.5018 47.3815H60.8127V42.4587L43.6547 42.4588Z" fill="#157DF5"/>
<path d="M54.79 42.4587H60.8106V47.3815H54.79V42.4587Z" fill="#0965CD"/>
<path d="M60.8109 43.3047H43.2321C42.8858 43.3047 42.605 43.0247 42.605 42.6794V32.6253C42.605 32.28 42.8858 32 43.2321 32L60.1837 32C60.5301 32 60.8109 32.28 60.8109 32.6253V35.1779V43.3047Z" fill="#40D98D"/>
<path d="M48.1984 50C46.7839 50 45.6332 48.8526 45.6332 47.4422C45.6332 46.0319 46.7839 44.8845 48.1984 44.8845C49.6129 44.8845 50.7636 46.0319 50.7636 47.4422C50.7636 48.8526 49.6129 50 48.1984 50Z" fill="#1E203E"/>
<path d="M65.2627 49.9964C63.8483 49.9964 62.6975 48.849 62.6975 47.4387C62.6975 46.0284 63.8483 44.881 65.2627 44.881C66.6772 44.881 67.8279 46.0284 67.8279 47.4387C67.8279 48.849 66.6772 49.9964 65.2627 49.9964Z" fill="#1E203E"/>
<path d="M60.1835 31.9999H54.79V43.3046H60.8106V32.6252C60.8106 32.2799 60.5298 31.9999 60.1835 31.9999Z" fill="#25BB71"/>
<path d="M72.9991 130.545V158.223C72.9991 158.582 72.8745 158.93 72.6453 159.208L62.6066 171.426C62.3094 171.789 61.8625 172 61.3905 172H41.1832C39.4522 172 38.0435 170.602 38.0435 168.883V130.545C38.0435 128.651 36.5 127.117 34.5898 127.117C33.7232 127.117 33.0199 126.419 33.0199 125.558C33.0199 124.698 32.1533 124 33.0199 124H66.4057C70.0415 124 72.9991 126.936 72.9991 130.545Z" fill="#E2EFFE"/>
<path d="M72.9995 169.161V130.545C72.9995 126.936 70.0419 124 66.406 124H54.7891V172H70.1607C71.7285 172 72.9995 170.729 72.9995 169.161Z" fill="#B6D7FC"/>
<path d="M38.0471 140.416H31.1397C29.4057 140.416 28 139.02 28 137.299V128.987C28 126.233 30.2491 124 33.0236 124C35.7903 124 38.0471 126.225 38.0471 128.987V140.416Z" fill="#B6D7FC"/>
<path d="M50.8182 152.836H44.5104C43.6762 152.836 43 152.164 43 151.336C43 150.508 43.6762 149.836 44.5104 149.836H50.8182C51.6523 149.836 52.3286 150.508 52.3286 151.336C52.3286 152.164 51.6523 152.836 50.8182 152.836Z" fill="#282A52"/>
<path d="M61.6159 158.5C61.6159 159.328 60.9393 160 60.1056 160H44.3072C43.4735 160 42.7969 159.328 42.7969 158.5C42.7969 157.672 43.4735 157 44.3072 157H60.1056C60.9393 157 61.6159 157.672 61.6159 158.5Z" fill="#157DF5"/>
<path d="M61.6159 165.5C61.6159 166.328 60.9393 167 60.1056 167H44.3072C43.4735 167 42.7969 166.328 42.7969 165.5C42.7969 164.672 43.4735 164 44.3072 164H60.1056C60.9393 164 61.6159 164.672 61.6159 165.5Z" fill="#282A52"/>
<path d="M63.1049 160H54.8047V157H63.1049C63.9385 157 64.6152 157.672 64.6152 158.5C64.6152 159.328 63.9385 160 63.1049 160Z" fill="#0965CD"/>
<path d="M63.1049 167H54.8047V164H63.1049C63.9385 164 64.6152 164.672 64.6152 165.5C64.6152 166.328 63.9385 167 63.1049 167Z" fill="#1E203E"/>
<path fill-rule="evenodd" clip-rule="evenodd" d="M83.9971 167C83.9971 174.18 78.1775 180 70.9986 180C63.8197 180 58 174.18 58 167C58 159.82 63.8197 154 70.9986 154C78.1775 154 83.9971 159.82 83.9971 167ZM80.7866 167C80.7866 172.406 76.4044 176.789 70.9986 176.789C65.5928 176.789 61.2105 172.406 61.2105 167C61.2105 161.594 65.5928 157.211 70.9986 157.211C76.4044 157.211 80.7866 161.594 80.7866 167Z" fill="white"/>
<path d="M70.999 176.789C76.4048 176.789 80.7871 172.406 80.7871 167C80.7871 161.594 76.4048 157.211 70.999 157.211C65.5932 157.211 61.2109 161.594 61.2109 167C61.2109 172.406 65.5932 176.789 70.999 176.789Z" fill="#157DF5"/>
<path d="M70.997 157.211C70.9954 157.211 70.9938 157.211 70.9922 157.211V176.789C70.9938 176.789 70.9954 176.789 70.997 176.789C76.4028 176.789 80.7851 172.407 80.7851 167C80.7851 161.594 76.4028 157.211 70.997 157.211Z" fill="#25BB71"/>
<path d="M76.0222 163.435C75.4522 162.865 74.528 162.865 73.958 163.435L69.9383 167.455L68.0425 165.559C67.4725 164.989 66.5483 164.989 65.9783 165.559C65.4083 166.129 65.4083 167.054 65.9783 167.624L68.9062 170.552C69.18 170.826 69.5512 170.98 69.9384 170.98C70.3255 170.98 70.6968 170.826 70.9705 170.552L76.0223 165.5C76.5923 164.93 76.5923 164.005 76.0222 163.435Z" fill="white"/>
<path d="M70.997 157.211C70.9954 157.211 70.9938 157.211 70.9922 157.211V176.789C70.9938 176.789 70.9954 176.789 70.997 176.789C76.4028 176.789 80.7851 172.407 80.7851 167C80.7851 161.594 76.4028 157.211 70.997 157.211Z" fill="#0965CD"/>
<path d="M73.9567 163.443L70.9941 166.406V170.535L76.0209 165.508C76.5909 164.938 76.5909 164.013 76.0209 163.443C75.451 162.873 74.5267 162.873 73.9567 163.443Z" fill="#F0F7FE"/>
<path d="M69.1459 136.219H68.975L67.1319 132.322H67.3424L66.5987 130.736C66.4478 130.41 66.1203 130.201 65.7581 130.201H60.6052L58.5328 136.01L60.8097 143.381H68.618C69.0433 143.381 69.3883 143.037 69.3888 142.613C69.3888 142.613 69.3949 138.308 69.395 136.814C69.395 136.789 69.3896 136.766 69.3793 136.743L69.1459 136.219Z" fill="#0965CD"/>
<path d="M67.3419 132.321H64.0114C63.7418 132.321 63.5233 132.538 63.5233 132.807V135.623C63.5233 135.951 63.7903 136.217 64.1197 136.217H69.1454L67.3419 132.321Z" fill="#F0F7FE"/>
<path d="M43.6547 138.459V142.617C43.6547 142.996 44.0339 143.382 44.5018 143.382H60.8127V138.459L43.6547 138.459Z" fill="#157DF5"/>
<path d="M54.79 138.459H60.8106V143.382H54.79V138.459Z" fill="#0965CD"/>
<path d="M60.8109 139.305H43.2321C42.8858 139.305 42.605 139.025 42.605 138.679V128.625C42.605 128.28 42.8858 128 43.2321 128L60.1837 128C60.5301 128 60.8109 128.28 60.8109 128.625V131.178V139.305Z" fill="#40D98D"/>
<path d="M48.1984 146C46.7839 146 45.6332 144.853 45.6332 143.442C45.6332 142.032 46.7839 140.885 48.1984 140.885C49.6129 140.885 50.7636 142.032 50.7636 143.442C50.7636 144.853 49.6129 146 48.1984 146Z" fill="#1E203E"/>
<path d="M65.2627 145.996C63.8483 145.996 62.6975 144.849 62.6975 143.439C62.6975 142.028 63.8483 140.881 65.2627 140.881C66.6772 140.881 67.8279 142.028 67.8279 143.439C67.8279 144.849 66.6772 145.996 65.2627 145.996Z" fill="#1E203E"/>
<path d="M60.1835 128H54.79V139.305H60.8106V128.625C60.8106 128.28 60.5298 128 60.1835 128Z" fill="#25BB71"/>
<defs>
<filter id="filter0_d_57713_11171" x="10" y="9" width="96" height="96" filterUnits="userSpaceOnUse" color-interpolation-filters="sRGB">
<feFlood flood-opacity="0" result="BackgroundImageFix"/>
<feColorMatrix in="SourceAlpha" type="matrix" values="0 0 0 0 0 0 0 0 0 0 0 0 0 0 0 0 0 0 127 0" result="hardAlpha"/>
<feOffset dx="2" dy="1"/>
<feGaussianBlur stdDeviation="4"/>
<feColorMatrix type="matrix" values="0 0 0 0 0.0392157 0 0 0 0 0.0392157 0 0 0 0 0.0627451 0 0 0 0.08 0"/>
<feBlend mode="normal" in2="BackgroundImageFix" result="effect1_dropShadow_57713_11171"/>
<feBlend mode="normal" in="SourceGraphic" in2="effect1_dropShadow_57713_11171" result="shape"/>
</filter>
</defs>
</svg>
