<svg width="112" height="208" viewBox="0 0 112 208" fill="none" xmlns="http://www.w3.org/2000/svg">
<rect x="0.5" y="0.5" width="111" height="207" rx="4.5" stroke="#9747FF" stroke-dasharray="10 5"/>
<g filter="url(#filter0_d_15400_40935)">
<rect x="16" y="16" width="80" height="80" rx="8" fill="white"/>
</g>
<path d="M38 32C38 29.7909 39.7162 28 41.8333 28H80.1667C82.2838 28 84 29.7909 84 32V70C84 72.2091 82.2838 74 80.1667 74H41.8333C39.7162 74 38 72.2091 38 70V32Z" fill="#40D98D"/>
<path d="M61 74H80.1667C82.2838 74 84 72.2091 84 70V32C84 29.7909 82.2838 28 80.1667 28H61V74Z" fill="#25BB71"/>
<path d="M42.1172 73.8783V70.7478L43.1751 68.804L42.1172 66.5739V58.9564L43.1751 51.652L42.1172 44.3476V43.1998C42.1172 41.4708 43.5381 40.0693 45.291 40.0693H76.7117C78.4645 40.0693 79.8855 41.4708 79.8855 43.1998V44.3476L78.8275 51.652L79.8855 58.9564V66.5739L78.8275 68.5909L79.8855 70.7478V73.8783" fill="#157DF5"/>
<path d="M61 73.8783H79.8855V70.7478L78.8275 68.5909L79.8855 66.5739V58.9564L78.8275 51.652L79.8855 44.3476V43.1998C79.8855 41.4708 78.4645 40.0693 76.7116 40.0693H61V73.8783Z" fill="#0965CD"/>
<path d="M67.8235 66.5743V73.8787L60.8903 74.9222L54.0703 73.8787V66.5743C54.0703 65.4212 55.0172 64.4873 56.1862 64.4873H65.7076C66.8766 64.4873 67.8235 65.4212 67.8235 66.5743Z" fill="#F0F7FE"/>
<path d="M54.0703 67.9658H67.8235V71.531H54.0703V67.9658Z" fill="#E2EFFE"/>
<path d="M50.3681 67.096V70.2264C50.3681 70.5144 50.1312 70.7482 49.8392 70.7482H46.2422V66.5742H49.8392C50.1312 66.5742 50.3681 66.808 50.3681 67.096Z" fill="#FEE048"/>
<path d="M42.1172 66.5742H46.2431V70.7482H42.1172V66.5742Z" fill="#FED601"/>
<path d="M75.7588 66.5742V70.7482H72.1618C71.8698 70.7482 71.6328 70.5144 71.6328 70.2264V67.096C71.6328 66.808 71.8698 66.5742 72.1618 66.5742H75.7588Z" fill="#FEE048"/>
<path d="M75.7578 66.5742H79.8838V70.7482H75.7578V66.5742Z" fill="#FED601"/>
<path d="M79.8855 44.3477H42.1172V58.9564H79.8855V44.3477Z" fill="#F0F7FE"/>
<path d="M48.8867 84H44.7607C43.8843 84 43.1738 83.2992 43.1738 82.4348V78.6783L46.8237 77.6348L50.4736 78.6783V82.4348C50.4736 83.2992 49.7631 84 48.8867 84Z" fill="#282A52"/>
<path d="M77.2382 84H73.1123C72.2359 84 71.5254 83.2992 71.5254 82.4348V78.6783L75.1753 77.6348L78.8251 78.6783V82.4348C78.8251 83.2992 78.1146 84 77.2382 84Z" fill="#1E203E"/>
<path d="M61 74.9056L67.8235 73.8787V66.5743C67.8235 65.4212 66.8766 64.4873 65.7076 64.4873H61V74.9056Z" fill="#E2EFFE"/>
<path d="M61 58.9564H79.8855V44.3477H61V58.9564Z" fill="#E2EFFE"/>
<path d="M61 71.531H67.8235V67.9658H61V71.531Z" fill="#B6D7FC"/>
<path d="M41.0579 78.678C40.4736 78.678 40 78.2108 40 77.6345V74.9214C40 74.3451 40.4736 73.8779 41.0579 73.8779H80.9421C81.5264 73.8779 82 74.3451 82 74.9214V77.6345C82 78.2108 81.5264 78.678 80.9421 78.678H41.0579Z" fill="#E2EFFE"/>
<path d="M61 78.678H80.9421C81.5264 78.678 82 78.2108 82 77.6345V74.9214C82 74.3451 81.5264 73.8779 80.9421 73.8779H61V78.678Z" fill="#B6D7FC"/>
<path d="M60.6465 31.9187C59.7898 31.0606 58.5146 30.7744 57.3734 31.1844C56.9311 31.337 56.5293 31.588 56.1985 31.9187L51.0791 37.038L44.7847 43.3323L38.4904 49.6266L29.7832 58.3337C30.1923 58.1344 34.2941 62.7186 34.2941 62.7186L38.4903 58.5225L44.7846 52.2282L51.0789 45.934L57.3733 39.6397L60.6463 36.3667C61.2373 35.7775 61.5695 34.9773 61.5695 34.1427C61.5697 33.3081 61.2375 32.5079 60.6465 31.9187Z" fill="#F54B5E"/>
<path d="M44.7847 43.3322V52.2281L38.4904 58.5223V49.6264L44.7847 43.3322Z" fill="#F0F7FE"/>
<path d="M57.3745 31.1837V39.639L51.0802 45.9333V37.0374L56.1996 31.918C56.5306 31.5874 56.9323 31.3363 57.3745 31.1837Z" fill="#F0F7FE"/>
<path d="M34.2943 61.1667V82C34.2943 83.1046 33.3989 84 32.2943 84H30C28.8954 84 28 83.1046 28 82L28 61.1667C28 59.4286 29.4091 58.0195 31.1472 58.0195C32.8854 58.0195 34.2943 59.4286 34.2943 61.1667Z" fill="#157DF5"/>
<path d="M31.1471 62.7148C30.9509 62.7126 30.7569 62.6717 30.5763 62.5947C30.3949 62.5183 30.2276 62.4117 30.0817 62.2795C29.9459 62.1359 29.8387 61.9677 29.7659 61.7839C29.6892 61.6034 29.6486 61.4097 29.6465 61.2138C29.6488 61.113 29.6588 61.0125 29.6766 60.9133C29.6926 60.8192 29.7228 60.7281 29.7659 60.6429C29.7989 60.5474 29.8447 60.4568 29.9015 60.3733C29.9614 60.2978 30.0215 60.2231 30.0817 60.1483C30.2248 60.0123 30.3927 59.905 30.5763 59.8323C31.1353 59.597 31.781 59.7217 32.2125 60.1483C32.2725 60.2231 32.3326 60.2978 32.392 60.3733C32.4488 60.4568 32.4944 60.5476 32.5276 60.6429C32.5707 60.7283 32.6011 60.8194 32.6178 60.9133C32.635 61.0127 32.6451 61.1132 32.6479 61.214C32.6454 61.4101 32.6046 61.6038 32.5278 61.7843C32.455 61.9679 32.3481 62.1359 32.2127 62.2798C32.1372 62.3398 32.0625 62.4 31.9878 62.4594C31.9041 62.5164 31.8132 62.562 31.7173 62.595C31.6321 62.6381 31.541 62.6686 31.4471 62.6853C31.3477 62.702 31.2475 62.712 31.1471 62.7148Z" fill="#ECF0F1"/>
<path d="M38 128C38 125.791 39.7162 124 41.8333 124H80.1667C82.2838 124 84 125.791 84 128V166C84 168.209 82.2838 170 80.1667 170H41.8333C39.7162 170 38 168.209 38 166V128Z" fill="#40D98D"/>
<path d="M61 170H80.1667C82.2838 170 84 168.209 84 166V128C84 125.791 82.2838 124 80.1667 124H61V170Z" fill="#25BB71"/>
<path d="M42.1172 169.878V166.748L43.1751 164.804L42.1172 162.574V154.956L43.1751 147.652L42.1172 140.348V139.2C42.1172 137.471 43.5381 136.069 45.291 136.069H76.7117C78.4645 136.069 79.8855 137.471 79.8855 139.2V140.348L78.8275 147.652L79.8855 154.956V162.574L78.8275 164.591L79.8855 166.748V169.878" fill="#157DF5"/>
<path d="M61 169.878H79.8855V166.748L78.8275 164.591L79.8855 162.574V154.956L78.8275 147.652L79.8855 140.348V139.2C79.8855 137.471 78.4645 136.069 76.7116 136.069H61V169.878Z" fill="#0965CD"/>
<path d="M67.8235 162.574V169.879L60.8903 170.922L54.0703 169.879V162.574C54.0703 161.421 55.0172 160.487 56.1862 160.487H65.7076C66.8766 160.487 67.8235 161.421 67.8235 162.574Z" fill="#F0F7FE"/>
<path d="M54.0703 163.966H67.8235V167.531H54.0703V163.966Z" fill="#E2EFFE"/>
<path d="M50.3681 163.096V166.226C50.3681 166.514 50.1312 166.748 49.8392 166.748H46.2422V162.574H49.8392C50.1312 162.574 50.3681 162.808 50.3681 163.096Z" fill="#FEE048"/>
<path d="M42.1172 162.574H46.2431V166.748H42.1172V162.574Z" fill="#FED601"/>
<path d="M75.7588 162.574V166.748H72.1618C71.8698 166.748 71.6328 166.514 71.6328 166.226V163.096C71.6328 162.808 71.8698 162.574 72.1618 162.574H75.7588Z" fill="#FEE048"/>
<path d="M75.7578 162.574H79.8838V166.748H75.7578V162.574Z" fill="#FED601"/>
<path d="M79.8855 140.348H42.1172V154.956H79.8855V140.348Z" fill="#F0F7FE"/>
<path d="M48.8867 180H44.7607C43.8843 180 43.1738 179.299 43.1738 178.435V174.678L46.8237 173.635L50.4736 174.678V178.435C50.4736 179.299 49.7631 180 48.8867 180Z" fill="#282A52"/>
<path d="M77.2382 180H73.1123C72.2359 180 71.5254 179.299 71.5254 178.435V174.678L75.1753 173.635L78.8251 174.678V178.435C78.8251 179.299 78.1146 180 77.2382 180Z" fill="#1E203E"/>
<path d="M61 170.906L67.8235 169.879V162.574C67.8235 161.421 66.8766 160.487 65.7076 160.487H61V170.906Z" fill="#E2EFFE"/>
<path d="M61 154.956H79.8855V140.348H61V154.956Z" fill="#E2EFFE"/>
<path d="M61 167.531H67.8235V163.966H61V167.531Z" fill="#B6D7FC"/>
<path d="M41.0579 174.678C40.4736 174.678 40 174.211 40 173.634V170.921C40 170.345 40.4736 169.878 41.0579 169.878H80.9421C81.5264 169.878 82 170.345 82 170.921V173.634C82 174.211 81.5264 174.678 80.9421 174.678H41.0579Z" fill="#E2EFFE"/>
<path d="M61 174.678H80.9421C81.5264 174.678 82 174.211 82 173.634V170.921C82 170.345 81.5264 169.878 80.9421 169.878H61V174.678Z" fill="#B6D7FC"/>
<path d="M60.6465 127.919C59.7898 127.061 58.5146 126.774 57.3734 127.184C56.9311 127.337 56.5293 127.588 56.1985 127.919L51.0791 133.038L44.7847 139.332L38.4904 145.627L29.7832 154.334C30.1923 154.134 34.2941 158.719 34.2941 158.719L38.4903 154.522L44.7846 148.228L51.0789 141.934L57.3733 135.64L60.6463 132.367C61.2373 131.777 61.5695 130.977 61.5695 130.143C61.5697 129.308 61.2375 128.508 60.6465 127.919Z" fill="#F54B5E"/>
<path d="M44.7847 139.332V148.228L38.4904 154.522V145.626L44.7847 139.332Z" fill="#F0F7FE"/>
<path d="M57.3745 127.184V135.639L51.0802 141.933V133.037L56.1996 127.918C56.5306 127.587 56.9323 127.336 57.3745 127.184Z" fill="#F0F7FE"/>
<path d="M34.2943 157.167V178C34.2943 179.105 33.3989 180 32.2943 180H30C28.8954 180 28 179.105 28 178L28 157.167C28 155.429 29.4091 154.02 31.1472 154.02C32.8854 154.02 34.2943 155.429 34.2943 157.167Z" fill="#157DF5"/>
<path d="M31.1471 158.715C30.9509 158.713 30.7569 158.672 30.5763 158.595C30.3949 158.518 30.2276 158.412 30.0817 158.279C29.9459 158.136 29.8387 157.968 29.7659 157.784C29.6892 157.603 29.6486 157.41 29.6465 157.214C29.6488 157.113 29.6588 157.013 29.6766 156.913C29.6926 156.819 29.7228 156.728 29.7659 156.643C29.7989 156.547 29.8447 156.457 29.9015 156.373C29.9614 156.298 30.0215 156.223 30.0817 156.148C30.2248 156.012 30.3927 155.905 30.5763 155.832C31.1353 155.597 31.781 155.722 32.2125 156.148C32.2725 156.223 32.3326 156.298 32.392 156.373C32.4488 156.457 32.4944 156.548 32.5276 156.643C32.5707 156.728 32.6011 156.819 32.6178 156.913C32.635 157.013 32.6451 157.113 32.6479 157.214C32.6454 157.41 32.6046 157.604 32.5278 157.784C32.455 157.968 32.3481 158.136 32.2127 158.28C32.1372 158.34 32.0625 158.4 31.9878 158.459C31.9041 158.516 31.8132 158.562 31.7173 158.595C31.6321 158.638 31.541 158.669 31.4471 158.685C31.3477 158.702 31.2475 158.712 31.1471 158.715Z" fill="#ECF0F1"/>
<defs>
<filter id="filter0_d_15400_40935" x="10" y="9" width="96" height="96" filterUnits="userSpaceOnUse" color-interpolation-filters="sRGB">
<feFlood flood-opacity="0" result="BackgroundImageFix"/>
<feColorMatrix in="SourceAlpha" type="matrix" values="0 0 0 0 0 0 0 0 0 0 0 0 0 0 0 0 0 0 127 0" result="hardAlpha"/>
<feOffset dx="2" dy="1"/>
<feGaussianBlur stdDeviation="4"/>
<feColorMatrix type="matrix" values="0 0 0 0 0.0392157 0 0 0 0 0.0392157 0 0 0 0 0.0627451 0 0 0 0.08 0"/>
<feBlend mode="normal" in2="BackgroundImageFix" result="effect1_dropShadow_15400_40935"/>
<feBlend mode="normal" in="SourceGraphic" in2="effect1_dropShadow_15400_40935" result="shape"/>
</filter>
</defs>
</svg>
