<svg width="112" height="208" viewBox="0 0 112 208" fill="none" xmlns="http://www.w3.org/2000/svg">
<rect x="0.5" y="0.5" width="111" height="207" rx="4.5" stroke="#9747FF" stroke-dasharray="10 5"/>
<g filter="url(#filter0_d_14896_16620)">
<rect x="16" y="16" width="80" height="80" rx="8" fill="white"/>
</g>
<path d="M46.8047 69.9631H63.1974V82.0473H46.8047V69.9631Z" fill="#E2EFFE"/>
<path d="M54.9961 69.9631H63.1956V82.0473H54.9961V69.9631Z" fill="#B6D7FC"/>
<path d="M77.6411 70.6493H32.3601C30.3059 70.6493 28.6406 68.9837 28.6406 66.9289V32.361C28.6406 30.3063 30.3059 28.6406 32.3601 28.6406H77.6411C79.6954 28.6406 81.3606 30.3063 81.3606 32.361V66.9289C81.3606 68.9836 79.6953 70.6493 77.6411 70.6493Z" fill="white"/>
<path d="M34.123 47.7557C34.123 52.4815 37.9544 56.3125 42.6806 56.3125L44.7689 48.2722L42.6806 39.199C37.9544 39.199 34.123 43.0299 34.123 47.7557Z" fill="#FFA099"/>
<path d="M42.6807 39.199V56.3125C47.4069 56.3125 51.2382 52.4815 51.2382 47.7557C51.2382 43.0299 47.4069 39.199 42.6807 39.199Z" fill="#FF7E75"/>
<path d="M40.1628 37.7018C39.7746 37.0013 39.1551 36.3125 38.3541 36.3125C37.5532 36.3125 36.8852 36.9719 37.0843 37.7477C37.7241 40.2409 39.9906 42.089 42.6809 42.089L43.6647 40.5869L42.6809 39.1887C41.5984 39.1886 40.6536 38.5876 40.1628 37.7018Z" fill="#09C369"/>
<path d="M47.0074 36.3125C46.2064 36.3125 45.5869 37.0013 45.1987 37.7018C44.7079 38.5877 43.7631 39.1887 42.6807 39.1887V42.089C45.3708 42.089 47.6374 40.2409 48.2772 37.7477C48.4763 36.9719 47.8084 36.3125 47.0074 36.3125Z" fill="#08A559"/>
<path d="M77.6398 28.6406H54.9961V70.6493H77.6397C79.694 70.6493 81.3592 68.9837 81.3592 66.9289V32.361C81.3593 30.3063 79.694 28.6406 77.6398 28.6406Z" fill="#F0F7FE"/>
<path d="M67.9713 79.7188H42.0267C41.121 79.7188 40.3867 80.453 40.3867 81.3587C40.3867 82.2645 41.121 82.9987 42.0267 82.9987H67.9712C68.8769 82.9987 69.6112 82.2645 69.6112 81.3587C69.6112 80.453 68.877 79.7188 67.9713 79.7188Z" fill="#157DF5"/>
<path d="M28.6602 68.4156C28.6602 69.3527 29.6484 70.1152 30.8632 70.1152H78.834C80.0488 70.1152 81.0371 69.3527 81.0371 68.4156V62.2891H28.6602V68.4156Z" fill="#F0F7FE"/>
<path d="M67.9716 79.7188H54.9961V82.9987H67.9715C68.8772 82.9987 69.6115 82.2645 69.6115 81.3587C69.6115 80.453 68.8773 79.7188 67.9716 79.7188Z" fill="#0965CD"/>
<path d="M54.9434 70.1152H78.8327C80.0475 70.1152 81.0358 69.3527 81.0358 68.4156V62.2891H54.9434V70.1152Z" fill="#E2EFFE"/>
<path d="M77.6405 72.2893H32.3595C29.4042 72.2893 27 69.8845 27 66.9286V32.3607C27 29.4049 29.4042 27 32.3595 27H77.6405C80.5958 27 83 29.4048 83 32.3607V66.9287C83 69.8845 80.5958 72.2893 77.6405 72.2893ZM32.3595 30.2807C31.2128 30.2807 30.28 31.2138 30.28 32.3607V66.9287C30.28 68.0755 31.2128 69.0087 32.3595 69.0087H77.6405C78.7872 69.0087 79.72 68.0756 79.72 66.9287V32.3607C79.72 31.2139 78.7872 30.2807 77.6405 30.2807H32.3595Z" fill="#157DF5"/>
<path d="M77.6398 27H54.9961V30.2807H77.6397C78.7864 30.2807 79.7192 31.2138 79.7192 32.3607V66.9287C79.7192 68.0755 78.7864 69.0087 77.6397 69.0087H54.9961V72.2894H77.6397C80.595 72.2894 82.9992 69.8846 82.9992 66.9287V32.3607C82.9993 29.4049 80.5951 27 77.6398 27Z" fill="#0965CD"/>
<circle cx="70.5" cy="71.5" r="4.5" fill="white"/>
<path d="M80.6575 68.2261C80.2199 68.1625 79.8022 68.001 79.4356 67.7537C79.0691 67.5063 78.763 67.1794 78.5403 66.7974C78.3175 66.4153 78.1839 65.988 78.1492 65.5471C78.1145 65.1062 78.1797 64.6632 78.34 64.2511C78.4419 63.9816 78.4569 63.687 78.3829 63.4086C78.309 63.1302 78.1497 62.8819 77.9275 62.6986C76.9465 61.8748 75.8299 61.2277 74.6275 60.7861C74.3537 60.6843 74.0548 60.6716 73.7733 60.7497C73.4919 60.8279 73.2423 60.9928 73.06 61.2211C72.7857 61.5718 72.4352 61.8555 72.0349 62.0506C71.6347 62.2457 71.1953 62.3471 70.75 62.3471C70.3048 62.3471 69.8653 62.2457 69.4651 62.0506C69.0649 61.8555 68.7143 61.5718 68.44 61.2211C68.2578 60.9928 68.0082 60.8279 67.7267 60.7497C67.4452 60.6716 67.1463 60.6843 66.8725 60.7861C65.7623 61.1938 64.7242 61.7761 63.7975 62.5111C63.5639 62.696 63.3957 62.9508 63.3174 63.2383C63.2391 63.5258 63.2549 63.8307 63.3625 64.1086C63.5356 64.5316 63.6071 64.9894 63.5713 65.4451C63.5355 65.9008 63.3934 66.3417 63.1564 66.7326C62.9194 67.1234 62.5941 67.4533 62.2066 67.6957C61.8191 67.9382 61.3802 68.0864 60.925 68.1286C60.6295 68.1602 60.352 68.2858 60.1332 68.487C59.9145 68.6881 59.7662 68.9542 59.71 69.2461C59.5704 69.9373 59.5 70.6408 59.5 71.3461C59.499 71.9365 59.5467 72.526 59.6425 73.1086C59.6902 73.4097 59.8358 73.6868 60.0568 73.8969C60.2778 74.1071 60.5618 74.2386 60.865 74.2711C61.3302 74.3147 61.7781 74.4691 62.1713 74.7214C62.5645 74.9737 62.8916 75.3165 63.1251 75.7212C63.3586 76.1258 63.4918 76.5805 63.5136 77.0472C63.5353 77.5139 63.4449 77.979 63.25 78.4036C63.1225 78.6797 63.0908 78.9906 63.1601 79.2868C63.2294 79.583 63.3957 79.8476 63.6325 80.0386C64.6076 80.8474 65.7134 81.484 66.9025 81.9211C67.0546 81.9737 67.2141 82.0016 67.375 82.0036C67.5956 82.0031 67.8129 81.9497 68.0087 81.8479C68.2044 81.7461 68.3729 81.5989 68.5 81.4186C68.7673 81.0291 69.1257 80.7108 69.5439 80.4912C69.9621 80.2716 70.4276 80.1574 70.9 80.1586C71.3577 80.1591 71.8089 80.2666 72.2178 80.4723C72.6266 80.678 72.9818 80.9764 73.255 81.3436C73.4367 81.5878 73.6942 81.7652 73.9872 81.8479C74.2802 81.9307 74.5923 81.9142 74.875 81.8011C75.9623 81.3635 76.9745 80.7587 77.875 80.0086C78.1012 79.8215 78.2623 79.5676 78.3351 79.2832C78.4078 78.9989 78.3886 78.6988 78.28 78.4261C78.1036 78.0084 78.0267 77.5555 78.0553 77.1031C78.084 76.6507 78.2174 76.2111 78.4451 75.819C78.6727 75.427 78.9884 75.0933 79.3671 74.8441C79.7459 74.595 80.1774 74.4373 80.6275 74.3836C80.9194 74.3432 81.1909 74.211 81.4026 74.006C81.6143 73.801 81.7552 73.534 81.805 73.2436C81.9255 72.618 81.9907 71.9831 82 71.3461C82.0002 70.6742 81.9374 70.0037 81.8125 69.3436C81.7619 69.0595 81.623 68.7987 81.4157 68.5981C81.2083 68.3975 80.9431 68.2673 80.6575 68.2261ZM74.5 71.3461C74.5 72.0877 74.2801 72.8128 73.868 73.4294C73.456 74.0461 72.8703 74.5268 72.1851 74.8106C71.4999 75.0944 70.7459 75.1687 70.0184 75.024C69.291 74.8793 68.6228 74.5222 68.0984 73.9977C67.5739 73.4733 67.2168 72.8051 67.0721 72.0776C66.9274 71.3502 67.0016 70.5962 67.2855 69.911C67.5693 69.2258 68.0499 68.6401 68.6666 68.228C69.2833 67.816 70.0083 67.5961 70.75 67.5961C71.7446 67.5961 72.6984 67.9911 73.4017 68.6944C74.1049 69.3977 74.5 70.3515 74.5 71.3461Z" fill="#40D98D"/>
<path fill-rule="evenodd" clip-rule="evenodd" d="M70.75 80.1621C70.7999 80.1596 70.8499 80.1584 70.9 80.1586C71.3577 80.1591 71.8089 80.2666 72.2178 80.4723C72.6266 80.678 72.9818 80.9764 73.255 81.3436C73.4367 81.5878 73.6942 81.7652 73.9872 81.8479C74.2802 81.9307 74.5923 81.9142 74.875 81.8011C75.9623 81.3635 76.9745 80.7587 77.875 80.0086C78.1012 79.8215 78.2623 79.5676 78.3351 79.2832C78.4078 78.9989 78.3886 78.6988 78.28 78.4261C78.1036 78.0084 78.0267 77.5555 78.0553 77.1031C78.084 76.6507 78.2174 76.2111 78.4451 75.819C78.6727 75.427 78.9884 75.0933 79.3671 74.8441C79.7459 74.595 80.1774 74.4373 80.6275 74.3836C80.9194 74.3432 81.1909 74.211 81.4026 74.006C81.6143 73.801 81.7552 73.534 81.805 73.2436C81.9255 72.618 81.9907 71.9831 82 71.3461C82.0002 70.6742 81.9374 70.0037 81.8125 69.3436C81.7619 69.0595 81.623 68.7987 81.4157 68.5981C81.2083 68.3975 80.9431 68.2673 80.6575 68.2261C80.2199 68.1625 79.8022 68.001 79.4356 67.7537C79.0691 67.5063 78.763 67.1794 78.5403 66.7974C78.3175 66.4153 78.1839 65.988 78.1492 65.5471C78.1145 65.1062 78.1797 64.6632 78.34 64.2511C78.4419 63.9816 78.4569 63.687 78.3829 63.4086C78.309 63.1302 78.1497 62.8819 77.9275 62.6986C76.9465 61.8748 75.8299 61.2277 74.6275 60.7861C74.3537 60.6843 74.0548 60.6716 73.7733 60.7497C73.4919 60.8279 73.2423 60.9928 73.06 61.2211C72.7857 61.5718 72.4352 61.8555 72.0349 62.0506C71.6347 62.2457 71.1953 62.3471 70.75 62.3471C70.75 62.3471 70.75 62.3471 70.75 62.3471V67.5961C70.75 67.5961 70.75 67.5961 70.75 67.5961C71.7446 67.5961 72.6984 67.9911 73.4017 68.6944C74.1049 69.3977 74.5 70.3515 74.5 71.3461C74.5 72.0877 74.2801 72.8128 73.868 73.4294C73.456 74.0461 72.8703 74.5268 72.1851 74.8106C71.7279 75 71.2401 75.0961 70.75 75.0961V80.1621Z" fill="#25BB71"/>
<path fill-rule="evenodd" clip-rule="evenodd" d="M56.5 71.3345L56.5003 71.313C56.5121 70.5083 56.5938 69.7061 56.7446 68.9156C56.9075 68.0115 57.3502 67.1809 58.0107 66.5415C58.6701 65.9031 59.5127 65.4878 60.4198 65.3535C60.0879 64.4999 60.0314 63.5636 60.2586 62.6758C60.4883 61.7784 60.9961 60.9767 61.7092 60.3856C62.8488 59.4371 64.1294 58.6723 65.5049 58.1187L65.5102 58.1166C66.4074 57.7575 67.3982 57.7052 68.3282 57.9678C69.2273 58.2217 70.0208 58.7562 70.5937 59.4921C70.9914 58.9488 71.5093 58.5042 72.1073 58.1932C72.7285 57.8702 73.4182 57.7008 74.1185 57.6993L74.1402 57.6992L74.1619 57.6995C74.6446 57.7054 75.1232 57.789 75.5794 57.947L75.606 57.9562L75.6325 57.966C77.1367 58.5189 78.5358 59.3233 79.7704 60.3449C80.5171 60.9542 81.0414 61.7937 81.261 62.7326C81.4742 63.6439 81.3887 64.5986 81.0186 65.4562C81.9534 65.5702 82.8273 65.9822 83.5105 66.6319C84.2066 67.2938 84.6662 68.1658 84.8188 69.114C84.9399 69.852 85.0005 70.5986 85 71.3463L85 71.3679L84.9997 71.3895C84.988 72.1942 84.9062 72.9964 84.7554 73.7869C84.5925 74.691 84.1498 75.5215 83.4893 76.161C82.83 76.7993 81.9873 77.2146 81.0802 77.3489C81.4121 78.2025 81.4686 79.1389 81.2414 80.0267C81.0118 80.9241 80.504 81.7257 79.7908 82.3168C78.6512 83.2653 77.3706 84.0302 75.9951 84.5838L75.9898 84.5859C75.0926 84.945 74.1019 84.9973 73.1719 84.7347C72.2728 84.4807 71.4792 83.9462 70.9063 83.2104C70.5086 83.7537 69.9907 84.1983 69.3928 84.5092C68.7715 84.8323 68.0818 85.0017 67.3815 85.0032L67.3599 85.0032L67.3382 85.003C66.8554 84.997 66.3768 84.9135 65.9207 84.7555L65.894 84.7462L65.8675 84.7365C64.3634 84.1836 62.9642 83.3792 61.7297 82.3575C60.9829 81.7482 60.4587 80.9088 60.239 79.9699C60.0258 79.0585 60.1114 78.1038 60.4814 77.2463C59.5466 77.1322 58.6727 76.7203 57.9895 76.0706C57.2934 75.4086 56.8338 74.5366 56.6812 73.5884C56.5602 72.8505 56.4996 72.1039 56.5 71.3561L56.5 71.3345ZM79.4356 67.7537C79.8022 68.001 80.2199 68.1625 80.6575 68.2261C80.9431 68.2673 81.2083 68.3975 81.4157 68.5981C81.623 68.7987 81.7619 69.0595 81.8125 69.3436C81.9374 70.0037 82.0002 70.6742 82 71.3461C81.9907 71.9831 81.9255 72.618 81.805 73.2436C81.7552 73.534 81.6143 73.801 81.4026 74.006C81.1909 74.211 80.9194 74.3432 80.6275 74.3836C80.1774 74.4373 79.7459 74.595 79.3671 74.8441C78.9884 75.0933 78.6727 75.427 78.4451 75.819C78.2174 76.2111 78.084 76.6507 78.0553 77.1031C78.0267 77.5555 78.1036 78.0084 78.28 78.4261C78.3886 78.6988 78.4078 78.9989 78.3351 79.2832C78.2623 79.5676 78.1012 79.8215 77.875 80.0086C76.9745 80.7587 75.9623 81.3635 74.875 81.8011C74.5923 81.9142 74.2802 81.9307 73.9872 81.8479C73.6942 81.7652 73.4367 81.5878 73.255 81.3436C72.9818 80.9764 72.6266 80.678 72.2178 80.4723C71.8089 80.2666 71.3577 80.1591 70.9 80.1586C70.4276 80.1574 69.9621 80.2716 69.5439 80.4912C69.1257 80.7108 68.7673 81.0291 68.5 81.4186C68.3729 81.5989 68.2044 81.7461 68.0087 81.8479C67.8129 81.9497 67.5956 82.0031 67.375 82.0036C67.2141 82.0016 67.0546 81.9737 66.9025 81.9211C65.7134 81.484 64.6076 80.8474 63.6325 80.0386C63.3957 79.8476 63.2294 79.583 63.1601 79.2868C63.0908 78.9906 63.1225 78.6797 63.25 78.4036C63.4449 77.979 63.5353 77.5139 63.5136 77.0472C63.4918 76.5805 63.3586 76.1258 63.1251 75.7212C62.8916 75.3165 62.5645 74.9737 62.1713 74.7214C61.7781 74.4691 61.3302 74.3147 60.865 74.2711C60.5618 74.2386 60.2778 74.1071 60.0568 73.8969C59.8358 73.6868 59.6902 73.4097 59.6425 73.1086C59.5466 72.526 59.499 71.9365 59.5 71.3461C59.5 70.6408 59.5704 69.9373 59.71 69.2461C59.7662 68.9542 59.9145 68.6881 60.1332 68.487C60.352 68.2858 60.6295 68.1602 60.925 68.1286C61.3802 68.0864 61.8191 67.9382 62.2066 67.6957C62.5941 67.4533 62.9194 67.1234 63.1564 66.7326C63.3934 66.3417 63.5355 65.9008 63.5713 65.4451C63.6071 64.9894 63.5356 64.5316 63.3625 64.1086C63.2549 63.8307 63.2391 63.5258 63.3174 63.2383C63.3957 62.9508 63.5639 62.696 63.7975 62.5111C64.7242 61.7761 65.7623 61.1938 66.8725 60.7861C67.1463 60.6843 67.4452 60.6716 67.7267 60.7497C68.0082 60.8279 68.2578 60.9928 68.44 61.2211C68.7143 61.5718 69.0649 61.8555 69.4651 62.0506C69.8653 62.2457 70.3048 62.3471 70.75 62.3471C71.1953 62.3471 71.6347 62.2457 72.0349 62.0506C72.4352 61.8555 72.7857 61.5718 73.06 61.2211C73.2422 60.9928 73.4919 60.8279 73.7733 60.7497C74.0548 60.6716 74.3537 60.6843 74.6275 60.7861C75.8299 61.2277 76.9465 61.8748 77.9275 62.6986C78.1497 62.8819 78.309 63.1302 78.3829 63.4086C78.4569 63.687 78.4419 63.9816 78.34 64.2511C78.1797 64.6632 78.1145 65.1062 78.1492 65.5471C78.1839 65.988 78.3175 66.4153 78.5403 66.7974C78.763 67.1794 79.0691 67.5063 79.4356 67.7537Z" fill="white"/>
<rect x="68.5713" y="47.5703" width="6.42899" height="6.42899" rx="1.6001" fill="#22AB68"/>
<rect x="60" y="39" width="6.42899" height="6.42899" rx="1.60725" fill="#157DF5"/>
<rect x="60" y="47.5703" width="6.42899" height="6.42899" rx="1.60725" fill="#157DF5"/>
<rect x="68.5713" y="39" width="6.42899" height="6.42899" rx="1.60725" fill="#0965CD"/>
<path d="M46.8047 165.963H63.1974V178.047H46.8047V165.963Z" fill="#E2EFFE"/>
<path d="M54.9961 165.963H63.1956V178.047H54.9961V165.963Z" fill="#B6D7FC"/>
<path d="M77.6411 166.649H32.3601C30.3059 166.649 28.6406 164.984 28.6406 162.929V128.361C28.6406 126.306 30.3059 124.641 32.3601 124.641H77.6411C79.6954 124.641 81.3606 126.306 81.3606 128.361V162.929C81.3606 164.984 79.6953 166.649 77.6411 166.649Z" fill="white"/>
<path d="M34.123 143.756C34.123 148.482 37.9544 152.313 42.6806 152.313L44.7689 144.272L42.6806 135.199C37.9544 135.199 34.123 139.03 34.123 143.756Z" fill="#FFA099"/>
<path d="M42.6807 135.199V152.313C47.4069 152.313 51.2382 148.482 51.2382 143.756C51.2382 139.03 47.4069 135.199 42.6807 135.199Z" fill="#FF7E75"/>
<path d="M40.1628 133.702C39.7746 133.001 39.1551 132.312 38.3541 132.312C37.5532 132.312 36.8852 132.972 37.0843 133.748C37.7241 136.241 39.9906 138.089 42.6809 138.089L43.6647 136.587L42.6809 135.189C41.5984 135.189 40.6536 134.588 40.1628 133.702Z" fill="#09C369"/>
<path d="M47.0074 132.312C46.2064 132.312 45.5869 133.001 45.1987 133.702C44.7079 134.588 43.7631 135.189 42.6807 135.189V138.089C45.3708 138.089 47.6374 136.241 48.2772 133.748C48.4763 132.972 47.8084 132.312 47.0074 132.312Z" fill="#08A559"/>
<path d="M77.6398 124.641H54.9961V166.649H77.6397C79.694 166.649 81.3592 164.984 81.3592 162.929V128.361C81.3593 126.306 79.694 124.641 77.6398 124.641Z" fill="#F0F7FE"/>
<path d="M67.9713 175.719H42.0267C41.121 175.719 40.3867 176.453 40.3867 177.359C40.3867 178.264 41.121 178.999 42.0267 178.999H67.9712C68.8769 178.999 69.6112 178.264 69.6112 177.359C69.6112 176.453 68.877 175.719 67.9713 175.719Z" fill="#157DF5"/>
<path d="M28.6602 164.416C28.6602 165.353 29.6484 166.115 30.8632 166.115H78.834C80.0488 166.115 81.0371 165.353 81.0371 164.416V158.289H28.6602V164.416Z" fill="#F0F7FE"/>
<path d="M67.9716 175.719H54.9961V178.999H67.9715C68.8772 178.999 69.6115 178.264 69.6115 177.359C69.6115 176.453 68.8773 175.719 67.9716 175.719Z" fill="#0965CD"/>
<path d="M54.9434 166.115H78.8327C80.0475 166.115 81.0358 165.353 81.0358 164.416V158.289H54.9434V166.115Z" fill="#E2EFFE"/>
<path d="M77.6405 168.289H32.3595C29.4042 168.289 27 165.885 27 162.929V128.361C27 125.405 29.4042 123 32.3595 123H77.6405C80.5958 123 83 125.405 83 128.361V162.929C83 165.885 80.5958 168.289 77.6405 168.289ZM32.3595 126.281C31.2128 126.281 30.28 127.214 30.28 128.361V162.929C30.28 164.076 31.2128 165.009 32.3595 165.009H77.6405C78.7872 165.009 79.72 164.076 79.72 162.929V128.361C79.72 127.214 78.7872 126.281 77.6405 126.281H32.3595Z" fill="#157DF5"/>
<path d="M77.6398 123H54.9961V126.281H77.6397C78.7864 126.281 79.7192 127.214 79.7192 128.361V162.929C79.7192 164.076 78.7864 165.009 77.6397 165.009H54.9961V168.289H77.6397C80.595 168.289 82.9992 165.885 82.9992 162.929V128.361C82.9993 125.405 80.5951 123 77.6398 123Z" fill="#0965CD"/>
<circle cx="70.5" cy="167.5" r="4.5" fill="white"/>
<path d="M80.6575 164.226C80.2199 164.162 79.8022 164.001 79.4356 163.754C79.0691 163.506 78.763 163.179 78.5403 162.797C78.3175 162.415 78.1839 161.988 78.1492 161.547C78.1145 161.106 78.1797 160.663 78.34 160.251C78.4419 159.982 78.4569 159.687 78.3829 159.409C78.309 159.13 78.1497 158.882 77.9275 158.699C76.9465 157.875 75.8299 157.228 74.6275 156.786C74.3537 156.684 74.0548 156.672 73.7733 156.75C73.4919 156.828 73.2423 156.993 73.06 157.221C72.7857 157.572 72.4352 157.855 72.0349 158.051C71.6347 158.246 71.1953 158.347 70.75 158.347C70.3048 158.347 69.8653 158.246 69.4651 158.051C69.0649 157.855 68.7143 157.572 68.44 157.221C68.2578 156.993 68.0082 156.828 67.7267 156.75C67.4452 156.672 67.1463 156.684 66.8725 156.786C65.7623 157.194 64.7242 157.776 63.7975 158.511C63.5639 158.696 63.3957 158.951 63.3174 159.238C63.2391 159.526 63.2549 159.831 63.3625 160.109C63.5356 160.532 63.6071 160.989 63.5713 161.445C63.5355 161.901 63.3934 162.342 63.1564 162.733C62.9194 163.123 62.5941 163.453 62.2066 163.696C61.8191 163.938 61.3802 164.086 60.925 164.129C60.6295 164.16 60.352 164.286 60.1332 164.487C59.9145 164.688 59.7662 164.954 59.71 165.246C59.5704 165.937 59.5 166.641 59.5 167.346C59.499 167.936 59.5467 168.526 59.6425 169.109C59.6902 169.41 59.8358 169.687 60.0568 169.897C60.2778 170.107 60.5618 170.239 60.865 170.271C61.3302 170.315 61.7781 170.469 62.1713 170.721C62.5645 170.974 62.8916 171.317 63.1251 171.721C63.3586 172.126 63.4918 172.581 63.5136 173.047C63.5353 173.514 63.4449 173.979 63.25 174.404C63.1225 174.68 63.0908 174.991 63.1601 175.287C63.2294 175.583 63.3957 175.848 63.6325 176.039C64.6076 176.847 65.7134 177.484 66.9025 177.921C67.0546 177.974 67.2141 178.002 67.375 178.004C67.5956 178.003 67.8129 177.95 68.0087 177.848C68.2044 177.746 68.3729 177.599 68.5 177.419C68.7673 177.029 69.1257 176.711 69.5439 176.491C69.9621 176.272 70.4276 176.157 70.9 176.159C71.3577 176.159 71.8089 176.267 72.2178 176.472C72.6266 176.678 72.9818 176.976 73.255 177.344C73.4367 177.588 73.6942 177.765 73.9872 177.848C74.2802 177.931 74.5923 177.914 74.875 177.801C75.9623 177.363 76.9745 176.759 77.875 176.009C78.1012 175.822 78.2623 175.568 78.3351 175.283C78.4078 174.999 78.3886 174.699 78.28 174.426C78.1036 174.008 78.0267 173.556 78.0553 173.103C78.084 172.651 78.2174 172.211 78.4451 171.819C78.6727 171.427 78.9884 171.093 79.3671 170.844C79.7459 170.595 80.1774 170.437 80.6275 170.384C80.9194 170.343 81.1909 170.211 81.4026 170.006C81.6143 169.801 81.7552 169.534 81.805 169.244C81.9255 168.618 81.9907 167.983 82 167.346C82.0002 166.674 81.9374 166.004 81.8125 165.344C81.7619 165.06 81.623 164.799 81.4157 164.598C81.2083 164.397 80.9431 164.267 80.6575 164.226ZM74.5 167.346C74.5 168.088 74.2801 168.813 73.868 169.429C73.456 170.046 72.8703 170.527 72.1851 170.811C71.4999 171.094 70.7459 171.169 70.0184 171.024C69.291 170.879 68.6228 170.522 68.0984 169.998C67.5739 169.473 67.2168 168.805 67.0721 168.078C66.9274 167.35 67.0016 166.596 67.2855 165.911C67.5693 165.226 68.0499 164.64 68.6666 164.228C69.2833 163.816 70.0083 163.596 70.75 163.596C71.7446 163.596 72.6984 163.991 73.4017 164.694C74.1049 165.398 74.5 166.351 74.5 167.346Z" fill="#40D98D"/>
<path fill-rule="evenodd" clip-rule="evenodd" d="M70.75 176.162C70.7999 176.16 70.8499 176.158 70.9 176.159C71.3577 176.159 71.8089 176.267 72.2178 176.472C72.6266 176.678 72.9818 176.976 73.255 177.344C73.4367 177.588 73.6942 177.765 73.9872 177.848C74.2802 177.931 74.5923 177.914 74.875 177.801C75.9623 177.363 76.9745 176.759 77.875 176.009C78.1012 175.822 78.2623 175.568 78.3351 175.283C78.4078 174.999 78.3886 174.699 78.28 174.426C78.1036 174.008 78.0267 173.556 78.0553 173.103C78.084 172.651 78.2174 172.211 78.4451 171.819C78.6727 171.427 78.9884 171.093 79.3671 170.844C79.7459 170.595 80.1774 170.437 80.6275 170.384C80.9194 170.343 81.1909 170.211 81.4026 170.006C81.6143 169.801 81.7552 169.534 81.805 169.244C81.9255 168.618 81.9907 167.983 82 167.346C82.0002 166.674 81.9374 166.004 81.8125 165.344C81.7619 165.06 81.623 164.799 81.4157 164.598C81.2083 164.397 80.9431 164.267 80.6575 164.226C80.2199 164.162 79.8022 164.001 79.4356 163.754C79.0691 163.506 78.763 163.179 78.5403 162.797C78.3175 162.415 78.1839 161.988 78.1492 161.547C78.1145 161.106 78.1797 160.663 78.34 160.251C78.4419 159.982 78.4569 159.687 78.3829 159.409C78.309 159.13 78.1497 158.882 77.9275 158.699C76.9465 157.875 75.8299 157.228 74.6275 156.786C74.3537 156.684 74.0548 156.672 73.7733 156.75C73.4919 156.828 73.2423 156.993 73.06 157.221C72.7857 157.572 72.4352 157.855 72.0349 158.051C71.6347 158.246 71.1953 158.347 70.75 158.347C70.75 158.347 70.75 158.347 70.75 158.347V163.596C70.75 163.596 70.75 163.596 70.75 163.596C71.7446 163.596 72.6984 163.991 73.4017 164.694C74.1049 165.398 74.5 166.351 74.5 167.346C74.5 168.088 74.2801 168.813 73.868 169.429C73.456 170.046 72.8703 170.527 72.1851 170.811C71.7279 171 71.2401 171.096 70.75 171.096V176.162Z" fill="#25BB71"/>
<path fill-rule="evenodd" clip-rule="evenodd" d="M56.5 167.335L56.5003 167.313C56.5121 166.508 56.5938 165.706 56.7446 164.916C56.9075 164.011 57.3502 163.181 58.0107 162.541C58.6701 161.903 59.5127 161.488 60.4198 161.354C60.0879 160.5 60.0314 159.564 60.2586 158.676C60.4883 157.778 60.9961 156.977 61.7092 156.386C62.8488 155.437 64.1294 154.672 65.5049 154.119L65.5102 154.117C66.4074 153.757 67.3982 153.705 68.3282 153.968C69.2273 154.222 70.0208 154.756 70.5937 155.492C70.9914 154.949 71.5093 154.504 72.1073 154.193C72.7285 153.87 73.4182 153.701 74.1185 153.699L74.1402 153.699L74.1619 153.699C74.6446 153.705 75.1232 153.789 75.5794 153.947L75.606 153.956L75.6325 153.966C77.1367 154.519 78.5358 155.323 79.7704 156.345C80.5171 156.954 81.0414 157.794 81.261 158.733C81.4742 159.644 81.3887 160.599 81.0186 161.456C81.9534 161.57 82.8273 161.982 83.5105 162.632C84.2066 163.294 84.6662 164.166 84.8188 165.114C84.9399 165.852 85.0005 166.599 85 167.346L85 167.368L84.9997 167.389C84.988 168.194 84.9062 168.996 84.7554 169.787C84.5925 170.691 84.1498 171.522 83.4893 172.161C82.83 172.799 81.9873 173.215 81.0802 173.349C81.4121 174.203 81.4686 175.139 81.2414 176.027C81.0118 176.924 80.504 177.726 79.7908 178.317C78.6512 179.265 77.3706 180.03 75.9951 180.584L75.9898 180.586C75.0926 180.945 74.1019 180.997 73.1719 180.735C72.2728 180.481 71.4792 179.946 70.9063 179.21C70.5086 179.754 69.9907 180.198 69.3928 180.509C68.7715 180.832 68.0818 181.002 67.3815 181.003L67.3599 181.003L67.3382 181.003C66.8554 180.997 66.3768 180.913 65.9207 180.755L65.894 180.746L65.8675 180.736C64.3634 180.184 62.9642 179.379 61.7297 178.358C60.9829 177.748 60.4587 176.909 60.239 175.97C60.0258 175.059 60.1114 174.104 60.4814 173.246C59.5466 173.132 58.6727 172.72 57.9895 172.071C57.2934 171.409 56.8338 170.537 56.6812 169.588C56.5602 168.85 56.4996 168.104 56.5 167.356L56.5 167.335ZM79.4356 163.754C79.8022 164.001 80.2199 164.162 80.6575 164.226C80.9431 164.267 81.2083 164.397 81.4157 164.598C81.623 164.799 81.7619 165.06 81.8125 165.344C81.9374 166.004 82.0002 166.674 82 167.346C81.9907 167.983 81.9255 168.618 81.805 169.244C81.7552 169.534 81.6143 169.801 81.4026 170.006C81.1909 170.211 80.9194 170.343 80.6275 170.384C80.1774 170.437 79.7459 170.595 79.3671 170.844C78.9884 171.093 78.6727 171.427 78.4451 171.819C78.2174 172.211 78.084 172.651 78.0553 173.103C78.0267 173.556 78.1036 174.008 78.28 174.426C78.3886 174.699 78.4078 174.999 78.3351 175.283C78.2623 175.568 78.1012 175.822 77.875 176.009C76.9745 176.759 75.9623 177.363 74.875 177.801C74.5923 177.914 74.2802 177.931 73.9872 177.848C73.6942 177.765 73.4367 177.588 73.255 177.344C72.9818 176.976 72.6266 176.678 72.2178 176.472C71.8089 176.267 71.3577 176.159 70.9 176.159C70.4276 176.157 69.9621 176.272 69.5439 176.491C69.1257 176.711 68.7673 177.029 68.5 177.419C68.3729 177.599 68.2044 177.746 68.0087 177.848C67.8129 177.95 67.5956 178.003 67.375 178.004C67.2141 178.002 67.0546 177.974 66.9025 177.921C65.7134 177.484 64.6076 176.847 63.6325 176.039C63.3957 175.848 63.2294 175.583 63.1601 175.287C63.0908 174.991 63.1225 174.68 63.25 174.404C63.4449 173.979 63.5353 173.514 63.5136 173.047C63.4918 172.581 63.3586 172.126 63.1251 171.721C62.8916 171.317 62.5645 170.974 62.1713 170.721C61.7781 170.469 61.3302 170.315 60.865 170.271C60.5618 170.239 60.2778 170.107 60.0568 169.897C59.8358 169.687 59.6902 169.41 59.6425 169.109C59.5466 168.526 59.499 167.936 59.5 167.346C59.5 166.641 59.5704 165.937 59.71 165.246C59.7662 164.954 59.9145 164.688 60.1332 164.487C60.352 164.286 60.6295 164.16 60.925 164.129C61.3802 164.086 61.8191 163.938 62.2066 163.696C62.5941 163.453 62.9194 163.123 63.1564 162.733C63.3934 162.342 63.5355 161.901 63.5713 161.445C63.6071 160.989 63.5356 160.532 63.3625 160.109C63.2549 159.831 63.2391 159.526 63.3174 159.238C63.3957 158.951 63.5639 158.696 63.7975 158.511C64.7242 157.776 65.7623 157.194 66.8725 156.786C67.1463 156.684 67.4452 156.672 67.7267 156.75C68.0082 156.828 68.2578 156.993 68.44 157.221C68.7143 157.572 69.0649 157.855 69.4651 158.051C69.8653 158.246 70.3048 158.347 70.75 158.347C71.1953 158.347 71.6347 158.246 72.0349 158.051C72.4352 157.855 72.7857 157.572 73.06 157.221C73.2422 156.993 73.4919 156.828 73.7733 156.75C74.0548 156.672 74.3537 156.684 74.6275 156.786C75.8299 157.228 76.9465 157.875 77.9275 158.699C78.1497 158.882 78.309 159.13 78.3829 159.409C78.4569 159.687 78.4419 159.982 78.34 160.251C78.1797 160.663 78.1145 161.106 78.1492 161.547C78.1839 161.988 78.3175 162.415 78.5403 162.797C78.763 163.179 79.0691 163.506 79.4356 163.754Z" fill="white"/>
<rect x="68.5713" y="143.57" width="6.42899" height="6.42899" rx="1.6001" fill="#22AB68"/>
<rect x="60" y="135" width="6.42899" height="6.42899" rx="1.60725" fill="#157DF5"/>
<rect x="60" y="143.57" width="6.42899" height="6.42899" rx="1.60725" fill="#157DF5"/>
<rect x="68.5713" y="135" width="6.42899" height="6.42899" rx="1.60725" fill="#0965CD"/>
<defs>
<filter id="filter0_d_14896_16620" x="10" y="9" width="96" height="96" filterUnits="userSpaceOnUse" color-interpolation-filters="sRGB">
<feFlood flood-opacity="0" result="BackgroundImageFix"/>
<feColorMatrix in="SourceAlpha" type="matrix" values="0 0 0 0 0 0 0 0 0 0 0 0 0 0 0 0 0 0 127 0" result="hardAlpha"/>
<feOffset dx="2" dy="1"/>
<feGaussianBlur stdDeviation="4"/>
<feColorMatrix type="matrix" values="0 0 0 0 0.0392157 0 0 0 0 0.0392157 0 0 0 0 0.0627451 0 0 0 0.08 0"/>
<feBlend mode="normal" in2="BackgroundImageFix" result="effect1_dropShadow_14896_16620"/>
<feBlend mode="normal" in="SourceGraphic" in2="effect1_dropShadow_14896_16620" result="shape"/>
</filter>
</defs>
</svg>
