<svg width="112" height="208" viewBox="0 0 112 208" fill="none" xmlns="http://www.w3.org/2000/svg">
<rect x="0.5" y="0.5" width="111" height="207" rx="4.5" stroke="#9747FF" stroke-dasharray="10 5"/>
<g filter="url(#filter0_d_58767_11788)">
<rect x="16" y="16" width="80" height="80" rx="8" fill="white"/>
</g>
<path d="M48 82H64.1739C66.287 82 68 80.3285 68 78.2667V31.7333C68 29.6715 66.287 28 64.1739 28H48L48 82Z" fill="#B6D7FC"/>
<path d="M31.8261 33H64.1739C66.287 33 68 34.6715 68 36.7333V73.2667C68 75.3285 66.287 77 64.1739 77H31.8261C29.713 77 28 75.3285 28 73.2667L28 36.7333C28 34.6715 29.713 33 31.8261 33Z" fill="#B6D7FC"/>
<path d="M64.1738 28C66.2869 28 68 29.6715 68 31.7334V78.2666C68 80.3285 66.2869 82 64.1738 82H48V28L64.1738 28Z" fill="#0965CD"/>
<path d="M31 37C31 36.4477 31.4477 36 32 36H62C62.5523 36 63 36.4477 63 37V68C63 68.5523 62.5523 69 62 69H32C31.4477 69 31 68.5523 31 68V37Z" fill="#F0F7FE"/>
<path d="M48 73H63C63.5523 73 64 72.5523 64 72V33C64 32.4477 63.5523 32 63 32L48 32V73Z" fill="#B6D7FC"/>
<path d="M54 82H70.1739C72.287 82 74 80.3285 74 78.2667V31.7333C74 29.6715 72.287 28 70.1739 28H54L54 82Z" fill="#B6D7FC"/>
<path d="M37.8261 28H70.1739C72.287 28 74 29.6715 74 31.7333V78.2667C74 80.3285 72.287 82 70.1739 82H37.8261C35.713 82 34 80.3285 34 78.2667L34 31.7333C34 29.6715 35.713 28 37.8261 28Z" fill="#157DF5"/>
<path d="M37.8261 28H70.1739C72.287 28 74 29.6715 74 31.7333V78.2667C74 80.3285 72.287 82 70.1739 82H37.8261C35.713 82 34 80.3285 34 78.2667V31.7333C34 29.6715 35.713 28 37.8261 28Z" fill="#157DF5"/>
<path d="M70.1738 28C72.2869 28 74 29.6715 74 31.7334V78.2666C74 80.3285 72.2869 82 70.1738 82H54V28L70.1738 28Z" fill="#0965CD"/>
<path d="M38 33C38 32.4477 38.4477 32 39 32L69 32C69.5523 32 70 32.4477 70 33V72C70 72.5523 69.5523 73 69 73H39C38.4477 73 38 72.5523 38 72V33Z" fill="#F0F7FE"/>
<path d="M41 68.5C41 67.6716 41.6716 67 42.5 67H45.5C46.3284 67 47 67.6716 47 68.5C47 69.3284 46.3284 70 45.5 70H42.5C41.6716 70 41 69.3284 41 68.5Z" fill="#B6D7FC"/>
<path d="M54 73H69C69.5523 73 70 72.5523 70 72V33C70 32.4477 69.5523 32 69 32L54 32V73Z" fill="#E2EFFE"/>
<path d="M64 36C64 35.4477 64.4477 35 65 35H66C66.5523 35 67 35.4477 67 36V37C67 37.5523 66.5523 38 66 38H65C64.4477 38 64 37.5523 64 37V36Z" fill="#40D98D"/>
<path d="M59 36C59 35.4477 59.4477 35 60 35H61C61.5523 35 62 35.4477 62 36V37C62 37.5523 61.5523 38 61 38H60C59.4477 38 59 37.5523 59 37V36Z" fill="#157DF5"/>
<path d="M51 77C51 75.8954 51.8954 75 53 75H54V79H53C51.8954 79 51 78.1046 51 77Z" fill="#40D98D"/>
<path d="M54 75H55C56.1046 75 57 75.8954 57 77C57 78.1046 56.1046 79 55 79H54V75Z" fill="#25BB71"/>
<path d="M61.7382 61.9745H45.916C45.3146 61.9745 44.8271 61.4871 44.8271 60.8858V60.4995C44.8271 57.6817 47.1117 55.3975 49.9299 55.3975H57.7244C60.5425 55.3975 62.8271 57.6817 62.8271 60.4995V60.8858C62.8271 61.487 62.3396 61.9745 61.7382 61.9745Z" fill="#157DF5"/>
<path d="M57.7247 55.4502C60.5135 55.4503 62.7745 57.7115 62.7745 60.5V60.8857C62.7745 61.4577 62.3105 61.9219 61.7384 61.9219H53.88V55.4502H57.7247Z" fill="#0965CD" stroke="#0965CD" stroke-width="0.106109"/>
<path d="M48.214 47.7344V50.2449C48.214 53.3449 50.7274 55.8578 53.8277 55.8578C56.9281 55.8578 59.4413 53.3448 59.4413 50.2449V47.7344L54.0206 44.8848L48.214 47.7344Z" fill="#FFDECC"/>
<path d="M59.4414 46.2739C59.4414 43.9305 57.5415 42.0308 55.1977 42.0308H52.4576C50.1139 42.0308 48.2139 43.9304 48.2139 46.2739V47.7302H59.4413L59.4414 46.2739Z" fill="#282A52"/>
<path d="M53.8273 44.9721V55.8506C56.9277 55.8506 59.441 53.3376 59.441 50.2377V47.7272L54.0202 44.8774L53.8273 44.9721Z" fill="#FFCFB5"/>
<path d="M55.1973 42.0264H53.8273V47.7258H59.441V46.2695C59.441 43.9261 57.541 42.0264 55.1973 42.0264Z" fill="#1E203E"/>
<g clip-path="url(#clip0_58767_11788)">
<circle cx="69" cy="69" r="12" fill="#40D98D"/>
<path d="M69 57C75.6274 57 81 62.3726 81 69C81 75.6274 75.6274 81 69 81V57Z" fill="#25BB71"/>
<path fill-rule="evenodd" clip-rule="evenodd" d="M84 69C84 77.2843 77.2843 84 69 84C60.7157 84 54 77.2843 54 69C54 60.7157 60.7157 54 69 54C77.2843 54 84 60.7157 84 69ZM69 81C75.6274 81 81 75.6274 81 69C81 62.3726 75.6274 57 69 57C62.3726 57 57 62.3726 57 69C57 75.6274 62.3726 81 69 81Z" fill="white"/>
<path fill-rule="evenodd" clip-rule="evenodd" d="M84 69C84 77.2843 77.2843 84 69 84C60.7157 84 54 77.2843 54 69C54 60.7157 60.7157 54 69 54C77.2843 54 84 60.7157 84 69ZM69 81C75.6274 81 81 75.6274 81 69C81 62.3726 75.6274 57 69 57C62.3726 57 57 62.3726 57 69C57 75.6274 62.3726 81 69 81Z" fill="white"/>
<path d="M66.6895 61.9393C67.2752 61.3536 68.2248 61.3536 68.8105 61.9393L74.8105 67.9393L74.9131 68.0526C75.394 68.6418 75.3599 69.5111 74.8105 70.0604L68.8105 76.0604C68.2248 76.6461 67.2752 76.6461 66.6895 76.0604C66.1037 75.4747 66.1038 74.5251 66.6895 73.9393L70.1289 70.4999H55.75C54.9216 70.4999 54.2501 69.8283 54.25 68.9999C54.25 68.1715 54.9216 67.4999 55.75 67.4999H70.1289L66.6895 64.0604C66.1037 63.4747 66.1038 62.5251 66.6895 61.9393Z" fill="white"/>
<path d="M74.8105 67.9395L74.9131 68.0527C75.3939 68.6419 75.3598 69.5113 74.8105 70.0605L69 75.8711V71.6289L70.1289 70.5H69V67.5H70.1289L69 66.3711V62.1289L74.8105 67.9395Z" fill="#E2EFFE"/>
</g>
<path d="M48 178H64.1739C66.287 178 68 176.329 68 174.267V127.733C68 125.671 66.287 124 64.1739 124H48L48 178Z" fill="#B6D7FC"/>
<path d="M31.8261 129H64.1739C66.287 129 68 130.671 68 132.733V169.267C68 171.329 66.287 173 64.1739 173H31.8261C29.713 173 28 171.329 28 169.267L28 132.733C28 130.671 29.713 129 31.8261 129Z" fill="#B6D7FC"/>
<path d="M64.1738 124C66.2869 124 68 125.672 68 127.733V174.267C68 176.328 66.2869 178 64.1738 178H48V124L64.1738 124Z" fill="#0965CD"/>
<path d="M31 133C31 132.448 31.4477 132 32 132H62C62.5523 132 63 132.448 63 133V164C63 164.552 62.5523 165 62 165H32C31.4477 165 31 164.552 31 164V133Z" fill="#F0F7FE"/>
<path d="M48 169H63C63.5523 169 64 168.552 64 168V129C64 128.448 63.5523 128 63 128L48 128V169Z" fill="#B6D7FC"/>
<path d="M54 178H70.1739C72.287 178 74 176.329 74 174.267V127.733C74 125.671 72.287 124 70.1739 124H54L54 178Z" fill="#B6D7FC"/>
<path d="M37.8261 124H70.1739C72.287 124 74 125.671 74 127.733V174.267C74 176.329 72.287 178 70.1739 178H37.8261C35.713 178 34 176.329 34 174.267L34 127.733C34 125.671 35.713 124 37.8261 124Z" fill="#157DF5"/>
<path d="M37.8261 124H70.1739C72.287 124 74 125.671 74 127.733V174.267C74 176.329 72.287 178 70.1739 178H37.8261C35.713 178 34 176.329 34 174.267V127.733C34 125.671 35.713 124 37.8261 124Z" fill="#157DF5"/>
<path d="M70.1738 124C72.2869 124 74 125.672 74 127.733V174.267C74 176.328 72.2869 178 70.1738 178H54V124L70.1738 124Z" fill="#0965CD"/>
<path d="M38 129C38 128.448 38.4477 128 39 128L69 128C69.5523 128 70 128.448 70 129V168C70 168.552 69.5523 169 69 169H39C38.4477 169 38 168.552 38 168V129Z" fill="#F0F7FE"/>
<path d="M41 164.5C41 163.672 41.6716 163 42.5 163H45.5C46.3284 163 47 163.672 47 164.5C47 165.328 46.3284 166 45.5 166H42.5C41.6716 166 41 165.328 41 164.5Z" fill="#B6D7FC"/>
<path d="M54 169H69C69.5523 169 70 168.552 70 168V129C70 128.448 69.5523 128 69 128L54 128V169Z" fill="#E2EFFE"/>
<path d="M64 132C64 131.448 64.4477 131 65 131H66C66.5523 131 67 131.448 67 132V133C67 133.552 66.5523 134 66 134H65C64.4477 134 64 133.552 64 133V132Z" fill="#40D98D"/>
<path d="M59 132C59 131.448 59.4477 131 60 131H61C61.5523 131 62 131.448 62 132V133C62 133.552 61.5523 134 61 134H60C59.4477 134 59 133.552 59 133V132Z" fill="#157DF5"/>
<path d="M51 173C51 171.895 51.8954 171 53 171H54V175H53C51.8954 175 51 174.105 51 173Z" fill="#40D98D"/>
<path d="M54 171H55C56.1046 171 57 171.895 57 173C57 174.105 56.1046 175 55 175H54V171Z" fill="#25BB71"/>
<path d="M61.7382 157.974H45.916C45.3146 157.974 44.8271 157.487 44.8271 156.886V156.499C44.8271 153.682 47.1117 151.397 49.9299 151.397H57.7244C60.5425 151.397 62.8271 153.682 62.8271 156.499V156.886C62.8271 157.487 62.3396 157.974 61.7382 157.974Z" fill="#157DF5"/>
<path d="M57.7247 151.45C60.5135 151.45 62.7745 153.712 62.7745 156.5V156.886C62.7745 157.458 62.3105 157.922 61.7384 157.922H53.88V151.45H57.7247Z" fill="#0965CD" stroke="#0965CD" stroke-width="0.106109"/>
<path d="M48.214 143.734V146.245C48.214 149.345 50.7274 151.858 53.8277 151.858C56.9281 151.858 59.4413 149.345 59.4413 146.245V143.734L54.0206 140.885L48.214 143.734Z" fill="#FFDECC"/>
<path d="M59.4414 142.274C59.4414 139.931 57.5415 138.031 55.1977 138.031H52.4576C50.1139 138.031 48.2139 139.93 48.2139 142.274V143.73H59.4413L59.4414 142.274Z" fill="#282A52"/>
<path d="M53.8273 140.972V151.851C56.9277 151.851 59.441 149.338 59.441 146.238V143.727L54.0202 140.877L53.8273 140.972Z" fill="#FFCFB5"/>
<path d="M55.1973 138.026H53.8273V143.726H59.441V142.269C59.441 139.926 57.541 138.026 55.1973 138.026Z" fill="#1E203E"/>
<g clip-path="url(#clip1_58767_11788)">
<circle cx="69" cy="165" r="12" fill="#40D98D"/>
<path d="M69 153C75.6274 153 81 158.373 81 165C81 171.627 75.6274 177 69 177V153Z" fill="#25BB71"/>
<path fill-rule="evenodd" clip-rule="evenodd" d="M84 165C84 173.284 77.2843 180 69 180C60.7157 180 54 173.284 54 165C54 156.716 60.7157 150 69 150C77.2843 150 84 156.716 84 165ZM69 177C75.6274 177 81 171.627 81 165C81 158.373 75.6274 153 69 153C62.3726 153 57 158.373 57 165C57 171.627 62.3726 177 69 177Z" fill="white"/>
<path fill-rule="evenodd" clip-rule="evenodd" d="M84 165C84 173.284 77.2843 180 69 180C60.7157 180 54 173.284 54 165C54 156.716 60.7157 150 69 150C77.2843 150 84 156.716 84 165ZM69 177C75.6274 177 81 171.627 81 165C81 158.373 75.6274 153 69 153C62.3726 153 57 158.373 57 165C57 171.627 62.3726 177 69 177Z" fill="white"/>
<path d="M66.6895 157.939C67.2752 157.354 68.2248 157.354 68.8105 157.939L74.8105 163.939L74.9131 164.053C75.394 164.642 75.3599 165.511 74.8105 166.06L68.8105 172.06C68.2248 172.646 67.2752 172.646 66.6895 172.06C66.1037 171.475 66.1038 170.525 66.6895 169.939L70.1289 166.5H55.75C54.9216 166.5 54.2501 165.828 54.25 165C54.25 164.171 54.9216 163.5 55.75 163.5H70.1289L66.6895 160.06C66.1037 159.475 66.1038 158.525 66.6895 157.939Z" fill="white"/>
<path d="M74.8105 163.939L74.9131 164.053C75.3939 164.642 75.3598 165.511 74.8105 166.061L69 171.871V167.629L70.1289 166.5H69V163.5H70.1289L69 162.371V158.129L74.8105 163.939Z" fill="#E2EFFE"/>
</g>
<defs>
<filter id="filter0_d_58767_11788" x="10" y="9" width="96" height="96" filterUnits="userSpaceOnUse" color-interpolation-filters="sRGB">
<feFlood flood-opacity="0" result="BackgroundImageFix"/>
<feColorMatrix in="SourceAlpha" type="matrix" values="0 0 0 0 0 0 0 0 0 0 0 0 0 0 0 0 0 0 127 0" result="hardAlpha"/>
<feOffset dx="2" dy="1"/>
<feGaussianBlur stdDeviation="4"/>
<feColorMatrix type="matrix" values="0 0 0 0 0.0392157 0 0 0 0 0.0392157 0 0 0 0 0.0627451 0 0 0 0.08 0"/>
<feBlend mode="normal" in2="BackgroundImageFix" result="effect1_dropShadow_58767_11788"/>
<feBlend mode="normal" in="SourceGraphic" in2="effect1_dropShadow_58767_11788" result="shape"/>
</filter>
<clipPath id="clip0_58767_11788">
<rect width="30" height="30" fill="white" transform="translate(54 54)"/>
</clipPath>
<clipPath id="clip1_58767_11788">
<rect width="30" height="30" fill="white" transform="translate(54 150)"/>
</clipPath>
</defs>
</svg>
