<svg width="112" height="208" viewBox="0 0 112 208" fill="none" xmlns="http://www.w3.org/2000/svg">
<rect x="0.5" y="0.5" width="111" height="207" rx="4.5" stroke="#9747FF" stroke-dasharray="10 5"/>
<g filter="url(#filter0_d_7407_32625)">
<rect x="16" y="16" width="80" height="80" rx="8" fill="white"/>
</g>
<path d="M28 66.6C28 61.2981 32.2981 57 37.6 57H50.4C55.7019 57 60 61.2981 60 66.6C60 70.1346 57.1346 73 53.6 73H34.4C30.8654 73 28 70.1346 28 66.6Z" fill="#40D98D"/>
<path d="M44 57H50.4C55.7019 57 60 61.2981 60 66.6C60 70.1346 57.1346 73 53.6 73H44V57Z" fill="#25BB71"/>
<path d="M31 41.0364V48.6848C31 52.6564 33.4699 55.8877 37.7354 55.8877H40.182L44.0002 35.3083V33.9257L45.0608 30.548L44.0002 28C36.2807 28 31 33.8479 31 41.0364Z" fill="#1E203E"/>
<path d="M57.0002 48.6848C57.0002 48.1225 57.0002 41.6024 57.0002 41.0364C57.0002 33.8483 51.72 28 44 28V35.3083L47.8182 55.8877H50.2647C54.5299 55.8877 57.0002 52.6566 57.0002 48.6848Z" fill="#1E203E"/>
<path d="M40.1826 51.9375V56.4442C40.1826 58.4078 41.892 59.9996 44.0009 59.9996L44.6372 55.9685L44.0009 52.8888L42.0917 51.9375H40.1826Z" fill="#FFCFB5"/>
<path d="M47.8182 56.4442C47.8182 54.9439 47.8182 53.4379 47.8182 51.9375H45.9091L44 52.8888V59.9996C46.1087 59.9996 47.8182 58.4078 47.8182 56.4442Z" fill="#FFDECC"/>
<path d="M51.6377 45.7771C51.6377 44.1816 51.6377 40.7809 51.6377 39.8514C51.1926 39.8514 50.8101 39.8514 50.365 39.8514C46.8505 39.8514 44.0013 37.1986 44.0013 33.9258V46.9621L42.7285 48.1474L44.0013 49.3325V52.8879C48.2186 52.8879 51.6377 49.7044 51.6377 45.7771Z" fill="#FFDECC"/>
<path d="M36.3633 39.8514H37.636C41.1507 39.8514 43.9997 37.1983 43.9997 33.9258V44.3154V52.8879C41.2152 52.8879 38.7268 51.4926 37.385 49.3327C36.9295 48.5993 36.6203 47.7977 36.4697 46.9629L36.4688 46.9623C36.3562 46.337 36.3563 46.3245 36.3607 43.0099C36.3619 42.1829 36.3633 41.1504 36.3633 39.8514Z" fill="#FFCFB5"/>
<path d="M52 77.6C52 72.2981 56.2981 68 61.6 68H74.4C79.7019 68 84 72.2981 84 77.6C84 81.1346 81.1346 84 77.6 84H58.4C54.8654 84 52 81.1346 52 77.6Z" fill="#157DF5"/>
<path d="M68 68H74.4C79.7019 68 84 72.2981 84 77.6C84 81.1346 81.1346 84 77.6 84H68V68Z" fill="#0965CD"/>
<path d="M68.0005 73.0007C65.9437 73.0007 64.2764 71.2679 64.2764 69.1304V64.1602H71.7246V69.1304C71.7246 71.2679 70.0573 73.0007 68.0005 73.0007Z" fill="#FFCFB5"/>
<path d="M68.001 64.1602V73.0007C70.0578 73.0007 71.7251 71.2679 71.7251 69.1304V64.1602H68.001Z" fill="#FFDECC"/>
<path d="M79.1719 55.7788H56.8271V50.1071C56.8271 45.1102 60.7612 40.9759 65.5694 41.0001C67.9532 41.012 70.313 41.8356 72.2202 43.3221L72.5512 43.5801H73.7926C76.7634 43.5801 79.1719 46.0829 79.1719 49.1704V55.7788Z" fill="#1E203E"/>
<path d="M73.7941 43.5813H72.5527L72.2216 43.3233C70.9696 42.3474 69.5219 41.6595 68.001 41.2971V55.7801H79.1733V49.1717C79.1733 46.0842 76.7649 43.5813 73.7941 43.5813Z" fill="#1E203E"/>
<path d="M74.207 54.332V59.4924H77.5174C78.8886 59.4924 80.0001 58.3372 80.0001 56.9122C80.0001 55.4872 78.8886 54.332 77.5174 54.332H74.207Z" fill="#FFDECC"/>
<path d="M58.4827 59.4924H61.7931V54.332H58.4827C57.1115 54.332 56 55.4872 56 56.9122C56 58.3371 57.1115 59.4924 58.4827 59.4924Z" fill="#FFCFB5"/>
<path d="M72.1367 50.4609H63.8608C61.8074 50.4609 60.1367 52.1971 60.1367 54.3312V59.4915C60.1367 63.9967 63.6636 67.662 67.9987 67.662C72.3339 67.662 75.8608 63.9967 75.8608 59.4915V54.3312C75.8608 52.197 74.1901 50.4609 72.1367 50.4609Z" fill="#FFCFB5"/>
<path d="M72.1389 50.4609H68.001V67.662C72.3361 67.662 75.863 63.9967 75.863 59.4915V54.3312C75.863 52.197 74.1924 50.4609 72.1389 50.4609Z" fill="#FFDECC"/>
<path d="M28 162.6C28 157.298 32.2981 153 37.6 153H50.4C55.7019 153 60 157.298 60 162.6C60 166.135 57.1346 169 53.6 169H34.4C30.8654 169 28 166.135 28 162.6Z" fill="#40D98D"/>
<path d="M44 153H50.4C55.7019 153 60 157.298 60 162.6C60 166.135 57.1346 169 53.6 169H44V153Z" fill="#25BB71"/>
<path d="M31 137.036V144.685C31 148.656 33.4699 151.888 37.7354 151.888H40.182L44.0002 131.308V129.926L45.0608 126.548L44.0002 124C36.2807 124 31 129.848 31 137.036Z" fill="#1E203E"/>
<path d="M57.0002 144.685C57.0002 144.123 57.0002 137.602 57.0002 137.036C57.0002 129.848 51.72 124 44 124V131.308L47.8182 151.888H50.2647C54.5299 151.888 57.0002 148.657 57.0002 144.685Z" fill="#1E203E"/>
<path d="M40.1826 147.938V152.444C40.1826 154.408 41.892 156 44.0009 156L44.6372 151.969L44.0009 148.889L42.0917 147.938H40.1826Z" fill="#FFCFB5"/>
<path d="M47.8182 152.444C47.8182 150.944 47.8182 149.438 47.8182 147.938H45.9091L44 148.889V156C46.1087 156 47.8182 154.408 47.8182 152.444Z" fill="#FFDECC"/>
<path d="M51.6377 141.777C51.6377 140.182 51.6377 136.781 51.6377 135.851C51.1926 135.851 50.8101 135.851 50.365 135.851C46.8505 135.851 44.0013 133.199 44.0013 129.926V142.962L42.7285 144.147L44.0013 145.332V148.888C48.2186 148.888 51.6377 145.704 51.6377 141.777Z" fill="#FFDECC"/>
<path d="M36.3633 135.851H37.636C41.1507 135.851 43.9997 133.198 43.9997 129.926V140.315V148.888C41.2152 148.888 38.7268 147.493 37.385 145.333C36.9295 144.599 36.6203 143.798 36.4697 142.963L36.4688 142.962C36.3562 142.337 36.3563 142.324 36.3607 139.01C36.3619 138.183 36.3633 137.15 36.3633 135.851Z" fill="#FFCFB5"/>
<path d="M52 173.6C52 168.298 56.2981 164 61.6 164H74.4C79.7019 164 84 168.298 84 173.6C84 177.135 81.1346 180 77.6 180H58.4C54.8654 180 52 177.135 52 173.6Z" fill="#157DF5"/>
<path d="M68 164H74.4C79.7019 164 84 168.298 84 173.6C84 177.135 81.1346 180 77.6 180H68V164Z" fill="#0965CD"/>
<path d="M68.0005 169.001C65.9437 169.001 64.2764 167.268 64.2764 165.13V160.16H71.7246V165.13C71.7246 167.268 70.0573 169.001 68.0005 169.001Z" fill="#FFCFB5"/>
<path d="M68.001 160.16V169.001C70.0578 169.001 71.7251 167.268 71.7251 165.13V160.16H68.001Z" fill="#FFDECC"/>
<path d="M79.1719 151.779H56.8271V146.107C56.8271 141.11 60.7612 136.976 65.5694 137C67.9532 137.012 70.313 137.836 72.2202 139.322L72.5512 139.58H73.7926C76.7634 139.58 79.1719 142.083 79.1719 145.17V151.779Z" fill="#1E203E"/>
<path d="M73.7941 139.581H72.5527L72.2216 139.323C70.9696 138.347 69.5219 137.659 68.001 137.297V151.78H79.1733V145.172C79.1733 142.084 76.7649 139.581 73.7941 139.581Z" fill="#1E203E"/>
<path d="M74.207 150.332V155.492H77.5174C78.8886 155.492 80.0001 154.337 80.0001 152.912C80.0001 151.487 78.8886 150.332 77.5174 150.332H74.207Z" fill="#FFDECC"/>
<path d="M58.4827 155.492H61.7931V150.332H58.4827C57.1115 150.332 56 151.487 56 152.912C56 154.337 57.1115 155.492 58.4827 155.492Z" fill="#FFCFB5"/>
<path d="M72.1367 146.461H63.8608C61.8074 146.461 60.1367 148.197 60.1367 150.331V155.492C60.1367 159.997 63.6636 163.662 67.9987 163.662C72.3339 163.662 75.8608 159.997 75.8608 155.492V150.331C75.8608 148.197 74.1901 146.461 72.1367 146.461Z" fill="#FFCFB5"/>
<path d="M72.1389 146.461H68.001V163.662C72.3361 163.662 75.863 159.997 75.863 155.492V150.331C75.863 148.197 74.1924 146.461 72.1389 146.461Z" fill="#FFDECC"/>
<defs>
<filter id="filter0_d_7407_32625" x="10" y="9" width="96" height="96" filterUnits="userSpaceOnUse" color-interpolation-filters="sRGB">
<feFlood flood-opacity="0" result="BackgroundImageFix"/>
<feColorMatrix in="SourceAlpha" type="matrix" values="0 0 0 0 0 0 0 0 0 0 0 0 0 0 0 0 0 0 127 0" result="hardAlpha"/>
<feOffset dx="2" dy="1"/>
<feGaussianBlur stdDeviation="4"/>
<feColorMatrix type="matrix" values="0 0 0 0 0.0392157 0 0 0 0 0.0392157 0 0 0 0 0.0627451 0 0 0 0.08 0"/>
<feBlend mode="normal" in2="BackgroundImageFix" result="effect1_dropShadow_7407_32625"/>
<feBlend mode="normal" in="SourceGraphic" in2="effect1_dropShadow_7407_32625" result="shape"/>
</filter>
</defs>
</svg>
