<svg width="112" height="208" viewBox="0 0 112 208" fill="none" xmlns="http://www.w3.org/2000/svg">
<rect x="0.5" y="0.5" width="111" height="207" rx="4.5" stroke="#9747FF" stroke-dasharray="10 5"/>
<g filter="url(#filter0_d_16076_13649)">
<rect x="16" y="16" width="80" height="80" rx="8" fill="white"/>
</g>
<path d="M78.8395 84H30.0659C28.9249 84 28 83.0449 28 81.8667V30.1338C28 28.9556 28.9249 28.0005 30.0659 28.0005H55.1144C56.9863 28.0005 58.5037 29.5674 58.5037 31.5005V33.2504C58.5037 34.2169 59.2624 35.0004 60.1983 35.0004H75.4502C77.3221 35.0004 78.8395 36.5674 78.8395 38.5004V84Z" fill="#E2EFFE"/>
<path d="M75.4503 35.0002H60.1984C59.2625 35.0002 58.5038 34.2167 58.5038 33.2502V31.5002C58.5038 29.5672 56.9864 28.0002 55.1145 28.0002H53.3068V83.9998H76.7737C77.9146 83.9998 78.8396 83.0447 78.8396 81.8665V38.5002C78.8396 36.5671 77.3219 35.0002 75.4503 35.0002Z" fill="#B6D7FC"/>
<path d="M78.8395 38.4999H60.1983C57.3949 38.4999 55.1144 36.1449 55.1144 33.25V28H76.7736C77.9146 28 78.8395 28.9551 78.8395 30.1333V38.4999Z" fill="#25BB71"/>
<path d="M51.7251 60.8661C51.7251 62.0443 50.8001 62.9994 49.6592 62.9994H36.8444C35.7035 62.9994 34.7786 62.0443 34.7786 60.8661V57.7495C34.7786 54.8545 37.0591 52.4995 39.8625 52.4995H46.6411C49.4445 52.4995 51.7251 54.8545 51.7251 57.7495V60.8661Z" fill="#157DF5"/>
<path d="M43.2521 52.5002C40.4487 52.5002 38.1681 50.1451 38.1681 47.2502C38.1681 44.3553 40.4487 42.0002 43.2521 42.0002C46.0555 42.0002 48.336 44.3553 48.336 47.2502C48.336 50.1451 46.0555 52.5002 43.2521 52.5002Z" fill="#FFCFB5"/>
<path d="M34.7788 68.2497C34.7788 67.2833 35.5375 66.4998 36.4735 66.4998H46.9641C47.9001 66.4998 48.6588 67.2833 48.6588 68.2497C48.6588 69.2162 47.9001 69.9997 46.9641 69.9997H36.4735C35.5375 69.9997 34.7788 69.2162 34.7788 68.2497Z" fill="#282A52"/>
<path d="M34.7787 36.0669C34.7787 35.4778 35.2411 35.0002 35.8116 35.0002H37.1351C37.7055 35.0002 38.168 35.4778 38.168 36.0669V37.4336C38.168 38.0227 37.7055 38.5002 37.1351 38.5002H35.8116C35.2411 38.5002 34.7787 38.0227 34.7787 37.4336V36.0669Z" fill="#25BB71"/>
<path d="M41.5573 36.0669C41.5573 35.4778 42.0197 35.0002 42.5902 35.0002H43.9136C44.4841 35.0002 44.9466 35.4778 44.9466 36.0669V37.4336C44.9466 38.0227 44.4841 38.5002 43.9136 38.5002H42.5902C42.0197 38.5002 41.5573 38.0227 41.5573 37.4336V36.0669Z" fill="#157DF5"/>
<path d="M48.3358 36.0669C48.3358 35.4778 48.7983 35.0002 49.3687 35.0002H50.6922C51.2627 35.0002 51.7251 35.4778 51.7251 36.0669V37.4336C51.7251 38.0227 51.2627 38.5002 50.6922 38.5002H49.3687C48.7983 38.5002 48.3358 38.0227 48.3358 37.4336V36.0669Z" fill="#157DF5"/>
<path d="M36.4735 73.0667C35.5375 73.0667 34.7788 73.8501 34.7788 74.8166C34.7788 75.7831 35.5375 76.5666 36.4735 76.5666H46.9088C47.8753 76.5666 48.6588 75.7831 48.6588 74.8166C48.6588 73.8501 47.8753 73.0667 46.9088 73.0667H36.4735Z" fill="#282A52"/>
<path d="M53.9482 65.2252C53.8503 65.3264 53.7646 65.4396 53.6934 65.5623L48.9002 73.8118C48.5002 74.5004 48.6052 75.3818 49.1551 75.9496C49.7048 76.5173 50.5585 76.6259 51.2251 76.2127L59.2138 71.263C59.3327 71.1894 59.4423 71.101 59.5403 70.9998L58.9273 65.8582L53.9482 65.2252Z" fill="#282A52"/>
<path d="M49.1731 75.9685C49.7234 76.5193 50.5646 76.6214 51.2237 76.2131L59.2122 71.2633C59.3311 71.1897 59.4408 71.1014 59.5387 71.0002L58.9299 65.8932L49.1731 75.9685Z" fill="#1E203E"/>
<path d="M59.5385 71.0374L73.918 56.1883C74.5798 55.5047 74.5798 54.3967 73.918 53.7133L70.7226 50.4135C70.0608 49.7301 68.9879 49.7301 68.3259 50.4135L53.9464 65.2626L59.5385 71.0374Z" fill="#157DF5"/>
<path d="M72.3204 52.0634L56.7426 68.15L59.5386 71.0374L73.9182 56.1881C74.5799 55.5047 74.5799 54.3967 73.9182 53.7133L72.3204 52.0634Z" fill="#0965CD"/>
<path d="M68.3267 50.4129L73.1199 45.4631C73.7817 44.7798 74.8547 44.7798 75.5165 45.4631L78.712 48.7629C79.3737 49.4464 79.3737 50.5544 78.712 51.2378L73.9188 56.1875L68.3267 50.4129Z" fill="#40D98D"/>
<path d="M77.1123 47.113L71.1208 53.3001L73.9169 56.1875L78.71 51.2377C79.3718 50.5544 79.3718 49.4463 78.71 48.763L77.1123 47.113Z" fill="#25BB71"/>
<path d="M73.1182 45.4629L77.9114 40.5132C78.5731 39.8299 79.6462 39.8299 80.308 40.5132L83.5034 43.8129C84.1652 44.4965 84.1652 45.6045 83.5034 46.2879L78.7103 51.2375L73.1182 45.4629Z" fill="#157DF5"/>
<path d="M81.9058 42.1632L75.9143 48.3503L78.7102 51.2375L83.5035 46.2879C84.1653 45.6045 84.1653 44.4965 83.5035 43.8131L81.9058 42.1632Z" fill="#0965CD"/>
<path d="M78.8395 180H30.0659C28.9249 180 28 179.045 28 177.867V126.134C28 124.956 28.9249 124 30.0659 124H55.1144C56.9863 124 58.5037 125.567 58.5037 127.5V129.25C58.5037 130.217 59.2624 131 60.1983 131H75.4502C77.3221 131 78.8395 132.567 78.8395 134.5V180Z" fill="#E2EFFE"/>
<path d="M75.4503 131H60.1984C59.2625 131 58.5038 130.217 58.5038 129.25V127.5C58.5038 125.567 56.9864 124 55.1145 124H53.3068V180H76.7737C77.9146 180 78.8396 179.045 78.8396 177.866V134.5C78.8396 132.567 77.3219 131 75.4503 131Z" fill="#B6D7FC"/>
<path d="M78.8395 134.5H60.1983C57.3949 134.5 55.1144 132.145 55.1144 129.25V124H76.7736C77.9146 124 78.8395 124.955 78.8395 126.133V134.5Z" fill="#25BB71"/>
<path d="M51.7251 156.866C51.7251 158.044 50.8001 158.999 49.6592 158.999H36.8444C35.7035 158.999 34.7786 158.044 34.7786 156.866V153.749C34.7786 150.855 37.0591 148.5 39.8625 148.5H46.6411C49.4445 148.5 51.7251 150.855 51.7251 153.749V156.866Z" fill="#157DF5"/>
<path d="M43.2521 148.5C40.4487 148.5 38.1681 146.145 38.1681 143.25C38.1681 140.355 40.4487 138 43.2521 138C46.0555 138 48.336 140.355 48.336 143.25C48.336 146.145 46.0555 148.5 43.2521 148.5Z" fill="#FFCFB5"/>
<path d="M34.7788 164.25C34.7788 163.283 35.5375 162.5 36.4735 162.5H46.9641C47.9001 162.5 48.6588 163.283 48.6588 164.25C48.6588 165.216 47.9001 166 46.9641 166H36.4735C35.5375 166 34.7788 165.216 34.7788 164.25Z" fill="#282A52"/>
<path d="M34.7787 132.067C34.7787 131.478 35.2411 131 35.8116 131H37.1351C37.7055 131 38.168 131.478 38.168 132.067V133.434C38.168 134.023 37.7055 134.5 37.1351 134.5H35.8116C35.2411 134.5 34.7787 134.023 34.7787 133.434V132.067Z" fill="#25BB71"/>
<path d="M41.5573 132.067C41.5573 131.478 42.0197 131 42.5902 131H43.9136C44.4841 131 44.9466 131.478 44.9466 132.067V133.434C44.9466 134.023 44.4841 134.5 43.9136 134.5H42.5902C42.0197 134.5 41.5573 134.023 41.5573 133.434V132.067Z" fill="#157DF5"/>
<path d="M48.3358 132.067C48.3358 131.478 48.7983 131 49.3687 131H50.6922C51.2627 131 51.7251 131.478 51.7251 132.067V133.434C51.7251 134.023 51.2627 134.5 50.6922 134.5H49.3687C48.7983 134.5 48.3358 134.023 48.3358 133.434V132.067Z" fill="#157DF5"/>
<path d="M36.4735 169.067C35.5375 169.067 34.7788 169.85 34.7788 170.817C34.7788 171.783 35.5375 172.567 36.4735 172.567H46.9088C47.8753 172.567 48.6588 171.783 48.6588 170.817C48.6588 169.85 47.8753 169.067 46.9088 169.067H36.4735Z" fill="#282A52"/>
<path d="M53.9482 161.225C53.8503 161.326 53.7646 161.44 53.6934 161.562L48.9002 169.812C48.5002 170.5 48.6052 171.382 49.1551 171.95C49.7048 172.517 50.5585 172.626 51.2251 172.213L59.2138 167.263C59.3327 167.189 59.4423 167.101 59.5403 167L58.9273 161.858L53.9482 161.225Z" fill="#282A52"/>
<path d="M49.1731 171.969C49.7234 172.519 50.5646 172.621 51.2237 172.213L59.2122 167.263C59.3311 167.19 59.4408 167.101 59.5387 167L58.9299 161.893L49.1731 171.969Z" fill="#1E203E"/>
<path d="M59.5385 167.037L73.918 152.188C74.5798 151.505 74.5798 150.397 73.918 149.713L70.7226 146.414C70.0608 145.73 68.9879 145.73 68.3259 146.414L53.9464 161.263L59.5385 167.037Z" fill="#157DF5"/>
<path d="M72.3204 148.063L56.7426 164.15L59.5386 167.037L73.9182 152.188C74.5799 151.505 74.5799 150.397 73.9182 149.713L72.3204 148.063Z" fill="#0965CD"/>
<path d="M68.3267 146.413L73.1199 141.463C73.7817 140.78 74.8547 140.78 75.5165 141.463L78.712 144.763C79.3737 145.446 79.3737 146.554 78.712 147.238L73.9188 152.188L68.3267 146.413Z" fill="#40D98D"/>
<path d="M77.1123 143.113L71.1208 149.3L73.9169 152.188L78.71 147.238C79.3718 146.554 79.3718 145.446 78.71 144.763L77.1123 143.113Z" fill="#25BB71"/>
<path d="M73.1182 141.463L77.9114 136.513C78.5731 135.83 79.6462 135.83 80.308 136.513L83.5034 139.813C84.1652 140.496 84.1652 141.604 83.5034 142.288L78.7103 147.238L73.1182 141.463Z" fill="#157DF5"/>
<path d="M81.9058 138.163L75.9143 144.35L78.7102 147.238L83.5035 142.288C84.1653 141.604 84.1653 140.496 83.5035 139.813L81.9058 138.163Z" fill="#0965CD"/>
<defs>
<filter id="filter0_d_16076_13649" x="10" y="9" width="96" height="96" filterUnits="userSpaceOnUse" color-interpolation-filters="sRGB">
<feFlood flood-opacity="0" result="BackgroundImageFix"/>
<feColorMatrix in="SourceAlpha" type="matrix" values="0 0 0 0 0 0 0 0 0 0 0 0 0 0 0 0 0 0 127 0" result="hardAlpha"/>
<feOffset dx="2" dy="1"/>
<feGaussianBlur stdDeviation="4"/>
<feColorMatrix type="matrix" values="0 0 0 0 0.0392157 0 0 0 0 0.0392157 0 0 0 0 0.0627451 0 0 0 0.08 0"/>
<feBlend mode="normal" in2="BackgroundImageFix" result="effect1_dropShadow_16076_13649"/>
<feBlend mode="normal" in="SourceGraphic" in2="effect1_dropShadow_16076_13649" result="shape"/>
</filter>
</defs>
</svg>
