<svg width="112" height="208" viewBox="0 0 112 208" fill="none" xmlns="http://www.w3.org/2000/svg">
<rect x="0.5" y="0.5" width="111" height="207" rx="4.5" stroke="#9747FF" stroke-dasharray="10 5"/>
<g filter="url(#filter0_d_6367_21825)">
<rect x="16" y="16" width="80" height="80" rx="8" fill="white"/>
</g>
<path d="M71.6952 28C72.4634 32.0114 73.2318 36.0227 74 40.034C73.2318 44.356 72.4634 48.678 71.6952 53C64.7308 53 59 47.3573 59 40.5C59 33.6427 64.7308 28 71.6952 28Z" fill="#40D98D"/>
<path d="M84 40.5C84 47.3573 78.1316 53 71 53V28C78.1316 28 84 33.6427 84 40.5Z" fill="#25BB71"/>
<path d="M71.0024 44.177C71.3367 44.7316 71.6711 45.2862 72.0053 45.8408C71.671 46.3799 71.3366 46.9191 71.0024 47.4582C69.1878 47.4582 67.4663 46.7243 66.1527 45.391C65.5161 44.7457 65.5249 43.7078 66.1702 43.0712C66.8155 42.4357 67.8534 42.4434 68.49 43.0887C69.1813 43.7909 70.0738 44.177 71.0024 44.177Z" fill="white"/>
<path d="M66.0801 38.9199C66.9862 38.9199 67.7207 38.1854 67.7207 37.2793C67.7207 36.3732 66.9862 35.6387 66.0801 35.6387C65.174 35.6387 64.4395 36.3732 64.4395 37.2793C64.4395 38.1854 65.174 38.9199 66.0801 38.9199Z" fill="white"/>
<path d="M75.9238 38.9199C76.8299 38.9199 77.5645 38.1854 77.5645 37.2793C77.5645 36.3732 76.8299 35.6387 75.9238 35.6387C75.0177 35.6387 74.2832 36.3732 74.2832 37.2793C74.2832 38.1854 75.0177 38.9199 75.9238 38.9199Z" fill="#F0F7FE"/>
<path d="M75.8516 45.391C74.538 46.7243 72.8165 47.4582 71.002 47.4582V44.177C71.9305 44.177 72.823 43.7909 73.5143 43.0887C74.1498 42.4434 75.1888 42.4357 75.8341 43.0712C76.4795 43.7078 76.4882 44.7457 75.8516 45.391Z" fill="#F0F7FE"/>
<path d="M46.2278 40.1881C46.2278 83.6277 46.2285 82.379 46.2267 82.4066C46.1795 83.219 45.0386 82.2013 44.1481 82.2013C40.269 82.5247 41.716 82.4043 37.8684 82.7239C36.9593 82.7239 35.9062 83.262 35.9062 82.3528V40.1881C35.9062 39.2789 36.6441 38.541 37.5533 38.541H44.5808C45.4899 38.541 46.2278 39.2789 46.2278 40.1881Z" fill="#157DF5"/>
<path d="M46.2272 40.1881C46.2272 83.6277 46.2279 82.379 46.2261 82.4066C46.1789 83.219 45.038 82.2013 44.1475 82.2013L41.0664 82.4582V38.541H44.5801C45.4893 38.541 46.2272 39.2789 46.2272 40.1881Z" fill="#0965CD"/>
<path d="M60.2824 58.6353V82.353C60.2824 83.2622 59.0745 82.7219 58.1654 82.7219C54.4917 82.8146 55.9694 82.7771 51.8483 82.8822C50.9392 82.8822 49.9608 83.2622 49.9608 82.353V58.6353C49.9608 57.7262 50.6987 56.9883 51.6079 56.9883H58.6353C59.5445 56.9883 60.2824 57.7262 60.2824 58.6353Z" fill="#282A52"/>
<path d="M60.2819 58.6353V82.353C60.2819 83.2622 59.074 82.7219 58.1649 82.7219L55.1211 82.7988V56.9883H58.6348C59.544 56.9883 60.2819 57.7262 60.2819 58.6353Z" fill="#1E203E"/>
<path d="M74.3372 71.811C74.3372 82.6907 74.3379 82.3723 74.3361 82.395C74.2823 83.2198 72.6506 81.9757 71.7568 81.9757C64.9673 83.0444 64.0156 83.3382 64.0156 82.3523V71.8111C64.0156 70.9019 64.7535 70.1641 65.6627 70.1641H72.6901C73.5993 70.164 74.3372 70.9018 74.3372 71.811Z" fill="#157DF5"/>
<path d="M74.3375 71.8111C74.3375 82.6908 74.3382 82.3724 74.3364 82.3951C74.2826 83.2199 72.651 81.9758 71.7572 81.9758L69.1768 82.3819V70.1641H72.6905C73.5997 70.1641 74.3375 70.9019 74.3375 71.8111Z" fill="#0965CD"/>
<path d="M82.3529 84H29.6471C28.7374 84 28 83.2626 28 82.3529V29.6471C28 28.7374 28.7374 28 29.6471 28C30.5567 28 31.2941 28.7374 31.2941 29.6471V80.7059H82.3529C83.2626 80.7059 84 81.4433 84 82.3529C84 83.2626 83.2626 84 82.3529 84Z" fill="#B6D7FC"/>
<path d="M71.6952 124C72.4634 128.011 73.2318 132.023 74 136.034C73.2318 140.356 72.4634 144.678 71.6952 149C64.7308 149 59 143.357 59 136.5C59 129.643 64.7308 124 71.6952 124Z" fill="#40D98D"/>
<path d="M84 136.5C84 143.357 78.1316 149 71 149V124C78.1316 124 84 129.643 84 136.5Z" fill="#25BB71"/>
<path d="M71.0024 140.177C71.3367 140.732 71.6711 141.286 72.0053 141.841C71.671 142.38 71.3366 142.919 71.0024 143.458C69.1878 143.458 67.4663 142.724 66.1527 141.391C65.5161 140.746 65.5249 139.708 66.1702 139.071C66.8155 138.436 67.8534 138.443 68.49 139.089C69.1813 139.791 70.0738 140.177 71.0024 140.177Z" fill="white"/>
<path d="M66.0801 134.92C66.9862 134.92 67.7207 134.185 67.7207 133.279C67.7207 132.373 66.9862 131.639 66.0801 131.639C65.174 131.639 64.4395 132.373 64.4395 133.279C64.4395 134.185 65.174 134.92 66.0801 134.92Z" fill="white"/>
<path d="M75.9238 134.92C76.8299 134.92 77.5645 134.185 77.5645 133.279C77.5645 132.373 76.8299 131.639 75.9238 131.639C75.0177 131.639 74.2832 132.373 74.2832 133.279C74.2832 134.185 75.0177 134.92 75.9238 134.92Z" fill="#F0F7FE"/>
<path d="M75.8516 141.391C74.538 142.724 72.8165 143.458 71.002 143.458V140.177C71.9305 140.177 72.823 139.791 73.5143 139.089C74.1498 138.443 75.1888 138.436 75.8341 139.071C76.4795 139.708 76.4882 140.746 75.8516 141.391Z" fill="#F0F7FE"/>
<path d="M46.2278 136.188C46.2278 179.628 46.2285 178.379 46.2267 178.407C46.1795 179.219 45.0386 178.201 44.1481 178.201C40.269 178.525 41.716 178.404 37.8684 178.724C36.9593 178.724 35.9062 179.262 35.9062 178.353V136.188C35.9062 135.279 36.6441 134.541 37.5533 134.541H44.5808C45.4899 134.541 46.2278 135.279 46.2278 136.188Z" fill="#157DF5"/>
<path d="M46.2272 136.188C46.2272 179.628 46.2279 178.379 46.2261 178.407C46.1789 179.219 45.038 178.201 44.1475 178.201L41.0664 178.458V134.541H44.5801C45.4893 134.541 46.2272 135.279 46.2272 136.188Z" fill="#0965CD"/>
<path d="M60.2824 154.635V178.353C60.2824 179.262 59.0745 178.722 58.1654 178.722C54.4917 178.815 55.9694 178.777 51.8483 178.882C50.9392 178.882 49.9608 179.262 49.9608 178.353V154.635C49.9608 153.726 50.6987 152.988 51.6079 152.988H58.6353C59.5445 152.988 60.2824 153.726 60.2824 154.635Z" fill="#282A52"/>
<path d="M60.2819 154.635V178.353C60.2819 179.262 59.074 178.722 58.1649 178.722L55.1211 178.799V152.988H58.6348C59.544 152.988 60.2819 153.726 60.2819 154.635Z" fill="#1E203E"/>
<path d="M74.3372 167.811C74.3372 178.691 74.3379 178.372 74.3361 178.395C74.2823 179.22 72.6506 177.976 71.7568 177.976C64.9673 179.044 64.0156 179.338 64.0156 178.352V167.811C64.0156 166.902 64.7535 166.164 65.6627 166.164H72.6901C73.5993 166.164 74.3372 166.902 74.3372 167.811Z" fill="#157DF5"/>
<path d="M74.3375 167.811C74.3375 178.691 74.3382 178.372 74.3364 178.395C74.2826 179.22 72.651 177.976 71.7572 177.976L69.1768 178.382V166.164H72.6905C73.5997 166.164 74.3375 166.902 74.3375 167.811Z" fill="#0965CD"/>
<path d="M82.3529 180H29.6471C28.7374 180 28 179.263 28 178.353V125.647C28 124.737 28.7374 124 29.6471 124C30.5567 124 31.2941 124.737 31.2941 125.647V176.706H82.3529C83.2626 176.706 84 177.443 84 178.353C84 179.263 83.2626 180 82.3529 180Z" fill="#B6D7FC"/>
<defs>
<filter id="filter0_d_6367_21825" x="10" y="9" width="96" height="96" filterUnits="userSpaceOnUse" color-interpolation-filters="sRGB">
<feFlood flood-opacity="0" result="BackgroundImageFix"/>
<feColorMatrix in="SourceAlpha" type="matrix" values="0 0 0 0 0 0 0 0 0 0 0 0 0 0 0 0 0 0 127 0" result="hardAlpha"/>
<feOffset dx="2" dy="1"/>
<feGaussianBlur stdDeviation="4"/>
<feColorMatrix type="matrix" values="0 0 0 0 0.0392157 0 0 0 0 0.0392157 0 0 0 0 0.0627451 0 0 0 0.08 0"/>
<feBlend mode="normal" in2="BackgroundImageFix" result="effect1_dropShadow_6367_21825"/>
<feBlend mode="normal" in="SourceGraphic" in2="effect1_dropShadow_6367_21825" result="shape"/>
</filter>
</defs>
</svg>
