<svg width="112" height="200" viewBox="0 0 112 200" fill="none" xmlns="http://www.w3.org/2000/svg">
<rect x="0.5" y="0.5" width="111" height="199" rx="4.5" stroke="#9747FF" stroke-dasharray="10 5"/>
<g filter="url(#filter0_d_16631_57187)">
<rect x="16" y="16" width="80" height="80" rx="8" fill="white"/>
</g>
<path d="M41.1983 65.377L44.6082 76.5074L41.1983 84.0002H29.6406C28.735 84.0002 28 83.2652 28 82.3596V78.5763C28 71.8541 33.0509 66.2891 39.5577 65.4787C40.0958 65.412 40.6427 65.377 41.1983 65.377Z" fill="#FEE048"/>
<path d="M54.3976 78.5763V82.3596C54.3976 83.2652 53.6626 84.0002 52.757 84.0002H41.1983V65.377C41.7539 65.377 42.3008 65.412 42.8389 65.4787C49.3456 66.2891 54.3976 71.8541 54.3976 78.5763Z" fill="#FED601"/>
<path d="M41.1994 65.377L42.1979 68.8761L41.1994 74.4846H41.1983C40.2926 74.4846 39.5576 73.7496 39.5576 72.844V65.4787C40.0958 65.412 40.6426 65.377 41.1983 65.377H41.1994Z" fill="#157DF5"/>
<path d="M42.8389 65.4787V72.844C42.8389 73.7496 42.1061 74.4835 41.1994 74.4846V65.377C41.755 65.377 42.3008 65.412 42.8389 65.4787Z" fill="#0965CD"/>
<path d="M41.1994 54.6523L44.9065 60.1211L41.1994 66.9362H41.1983C36.8342 66.9362 33.2959 63.398 33.2959 59.0317L33.3134 54.9006L41.1994 54.6523Z" fill="#FFDECC"/>
<path d="M49.1017 54.4043V59.032C49.1017 61.2151 48.2169 63.1915 46.7884 64.6221C45.3578 66.0516 43.3825 66.9365 41.1994 66.9365V54.6526L49.1017 54.4043Z" fill="#FFCFB5"/>
<path d="M41.1994 45.7207L44.2642 50.0814L41.1994 55.0132C41.1939 55.0088 41.1895 55.0045 41.1841 55.0001C40.8548 55.2943 40.4655 55.5666 40.0061 55.7985C39.1803 56.2174 38.2266 56.4395 37.2477 56.4395H33.3681C32.4625 56.4395 31.7275 55.7045 31.7275 54.7988V54.0791C31.7275 49.4701 35.4769 45.7207 40.0859 45.7207H41.1994Z" fill="#282A52"/>
<path d="M50.6701 54.0791V54.7988C50.6701 55.7045 49.9351 56.4395 49.0295 56.4395H45.1204C44.1415 56.4395 43.1878 56.2174 42.362 55.7985C41.9092 55.5699 41.5253 55.303 41.1993 55.0132V45.7207H42.3117C46.9207 45.7207 50.6701 49.4701 50.6701 54.0791Z" fill="#1E203E"/>
<path d="M69.2344 28L77.2752 41.4665L69.2344 56.6562H63.9319L57.0631 62.4991C56.7602 62.7572 56.3817 62.8906 56 62.8906C55.7659 62.8906 55.5319 62.8414 55.312 62.7397C54.7313 62.4706 54.3594 61.8898 54.3594 61.25V33.8614C54.3594 30.6294 56.9887 28 60.2208 28H69.2344Z" fill="#FEE048"/>
<path d="M84 33.8614V50.7948C84 54.0269 81.3706 56.6562 78.1386 56.6562H69.2344V28H78.1386C81.3706 28 84 30.6294 84 33.8614Z" fill="#FED601"/>
<path d="M69.2344 41.1261L70.4067 45.8788L69.2344 50.038C69.2169 50.0391 69.1983 50.0391 69.1797 50.0391C68.2741 50.0391 67.5391 49.3041 67.5391 48.3984V42.7656C67.5391 41.86 68.2741 41.125 69.1797 41.125C69.1983 41.125 69.2169 41.125 69.2344 41.1261Z" fill="white"/>
<path d="M70.8203 42.7665V48.3993C70.8203 49.2863 70.1148 50.0104 69.2344 50.0388V41.127C70.1148 41.1554 70.8203 41.8795 70.8203 42.7665Z" fill="#F0F7FE"/>
<path d="M69.23 34.5625C68.3259 34.5649 67.5938 35.2985 67.5938 36.2031C67.5938 37.1077 68.3259 37.8414 69.23 37.8437V34.5625Z" fill="white"/>
<path d="M69.2334 34.5625C70.1375 34.5649 70.8696 35.2985 70.8696 36.2031C70.8696 37.1077 70.1375 37.8414 69.2334 37.8437V34.5625Z" fill="#F0F7FE"/>
<path d="M82.4136 83.8907H66.1212C65.502 83.8907 65 83.3886 65 82.7694V82.3716C65 79.4697 67.3525 77.1172 70.2544 77.1172H78.2805C81.1824 77.1172 83.5348 79.4697 83.5348 82.3716V82.7694C83.5348 83.3886 83.0329 83.8907 82.4136 83.8907Z" fill="#40D98D"/>
<path d="M78.2805 77.1172H74.2675V83.8907H82.4137C83.0329 83.8907 83.5349 83.3888 83.5349 82.7695V82.3717C83.5349 79.4697 81.1824 77.1172 78.2805 77.1172Z" fill="#25BB71"/>
<path d="M78.6246 63.4656C78.6246 61.0143 76.6493 59.0241 74.2035 59.0002C71.7172 58.9758 69.6892 61.0821 69.6934 63.5685C69.6942 64.1131 69.7083 64.3741 69.9213 64.8776L78.4413 64.7407C78.6398 64.2355 78.6246 64.0414 78.6246 63.4656Z" fill="#282A52"/>
<path d="M74.2675 59V64.8054L78.4417 64.7383C78.6401 64.233 78.6249 64.0389 78.6249 63.4631C78.6249 61.0332 76.6836 59.0576 74.2675 59Z" fill="#1E203E"/>
<path d="M68.4863 69.2169V71.8024C68.4863 74.9949 71.0744 77.5829 74.2669 77.5829C77.4595 77.5829 80.0476 74.9948 80.0476 71.8024V69.2169L74.3139 67.3516L68.4863 69.2169Z" fill="#FFDECC"/>
<path d="M74.2675 67.3665V77.5829C77.46 77.5829 80.0481 74.9948 80.0481 71.8024V69.2169L74.3144 67.3516L74.2675 67.3665Z" fill="#FFCFB5"/>
<path d="M80.0476 67.7155C80.0476 65.3022 78.0912 63.3457 75.6777 63.3457H72.8562C70.4428 63.3457 68.4863 65.3021 68.4863 67.7155V69.2154H80.0474V67.7155H80.0476Z" fill="#282A52"/>
<path d="M75.6782 63.3613H74.2675V69.231H80.0481V67.7312C80.0481 65.3177 78.0916 63.3613 75.6782 63.3613Z" fill="#1E203E"/>
<path d="M41.1983 161.377L44.6081 172.507L41.1983 180H29.6406C28.735 180 28 179.265 28 178.36V174.576C28 167.854 33.051 162.289 39.5576 161.479C40.0958 161.412 40.6426 161.377 41.1983 161.377Z" fill="#FEE048"/>
<path d="M54.3976 174.576V178.36C54.3976 179.265 53.6626 180 52.757 180H41.1983V161.377C41.7539 161.377 42.3008 161.412 42.8389 161.479C49.3456 162.289 54.3976 167.854 54.3976 174.576Z" fill="#FED601"/>
<path d="M41.1994 161.377L42.1978 164.876L41.1994 170.485H41.1983C40.2926 170.485 39.5576 169.75 39.5576 168.844V161.479C40.0958 161.412 40.6426 161.377 41.1983 161.377H41.1994Z" fill="#157DF5"/>
<path d="M42.8389 161.479V168.844C42.8389 169.75 42.1061 170.483 41.1994 170.485V161.377C41.755 161.377 42.3008 161.412 42.8389 161.479Z" fill="#0965CD"/>
<path d="M41.1994 150.652L44.9065 156.121L41.1994 162.936H41.1983C36.8342 162.936 33.296 159.398 33.296 155.032L33.3135 150.901L41.1994 150.652Z" fill="#FFDECC"/>
<path d="M49.1017 150.404V155.032C49.1017 157.215 48.2168 159.191 46.7884 160.622C45.3578 162.052 43.3825 162.936 41.1994 162.936V150.653L49.1017 150.404Z" fill="#FFCFB5"/>
<path d="M41.1994 141.721L44.2641 146.081L41.1994 151.013C41.1939 151.009 41.1895 151.004 41.184 151C40.8548 151.294 40.4654 151.567 40.0061 151.798C39.1803 152.217 38.2265 152.439 37.2476 152.439H33.3681C32.4625 152.439 31.7275 151.704 31.7275 150.799V150.079C31.7275 145.47 35.4769 141.721 40.0859 141.721H41.1994Z" fill="#282A52"/>
<path d="M50.6701 150.079V150.799C50.6701 151.704 49.9351 152.439 49.0295 152.439H45.1204C44.1415 152.439 43.1878 152.217 42.362 151.798C41.9092 151.57 41.5253 151.303 41.1993 151.013V141.721H42.3117C46.9207 141.721 50.6701 145.47 50.6701 150.079Z" fill="#1E203E"/>
<path d="M69.2343 124L77.275 137.466L69.2343 152.656H63.9318L57.0631 158.499C56.7601 158.757 56.3817 158.89 55.9999 158.89C55.7659 158.89 55.5318 158.841 55.312 158.74C54.7312 158.47 54.3593 157.89 54.3593 157.25V129.861C54.3593 126.629 56.9887 124 60.2207 124H69.2343Z" fill="#FEE048"/>
<path d="M83.9998 129.861V146.795C83.9998 150.027 81.3705 152.656 78.1385 152.656H69.2343V124H78.1385C81.3705 124 83.9998 126.629 83.9998 129.861Z" fill="#FED601"/>
<path d="M69.2343 137.126L70.4065 141.879L69.2343 146.038C69.2168 146.039 69.1982 146.039 69.1796 146.039C68.274 146.039 67.539 145.304 67.539 144.398V138.766C67.539 137.86 68.274 137.125 69.1796 137.125C69.1982 137.125 69.2168 137.125 69.2343 137.126Z" fill="white"/>
<path d="M70.8202 138.766V144.399C70.8202 145.286 70.1147 146.01 69.2343 146.039V137.127C70.1147 137.155 70.8202 137.879 70.8202 138.766Z" fill="#F0F7FE"/>
<path d="M69.2299 130.562C68.3258 130.565 67.5936 131.298 67.5936 132.203C67.5936 133.108 68.3258 133.841 69.2299 133.844V130.562Z" fill="white"/>
<path d="M69.2333 130.562C70.1374 130.565 70.8695 131.298 70.8695 132.203C70.8695 133.108 70.1374 133.841 69.2333 133.844V130.562Z" fill="#F0F7FE"/>
<path d="M82.4135 179.891H66.1211C65.5019 179.891 64.9999 179.389 64.9999 178.769V178.372C64.9999 175.47 67.3524 173.117 70.2543 173.117H78.2803C81.1822 173.117 83.5347 175.47 83.5347 178.372V178.769C83.5347 179.389 83.0327 179.891 82.4135 179.891Z" fill="#40D98D"/>
<path d="M78.2804 173.117H74.2673V179.891H82.4135C83.0327 179.891 83.5347 179.389 83.5347 178.769V178.372C83.5347 175.47 81.1823 173.117 78.2804 173.117Z" fill="#25BB71"/>
<path d="M78.6244 159.466C78.6244 157.014 76.6492 155.024 74.2034 155C71.717 154.976 69.6891 157.082 69.6933 159.568C69.6941 160.113 69.7082 160.374 69.9212 160.878L78.4412 160.741C78.6396 160.235 78.6244 160.041 78.6244 159.466Z" fill="#282A52"/>
<path d="M74.2673 155V160.805L78.4416 160.738C78.64 160.233 78.6248 160.039 78.6248 159.463C78.6248 157.033 76.6835 155.058 74.2673 155Z" fill="#1E203E"/>
<path d="M68.4862 165.217V167.802C68.4862 170.995 71.0743 173.583 74.2668 173.583C77.4593 173.583 80.0474 170.995 80.0474 167.802V165.217L74.3138 163.352L68.4862 165.217Z" fill="#FFDECC"/>
<path d="M74.2673 163.367V173.583C77.4599 173.583 80.0479 170.995 80.0479 167.802V165.217L74.3143 163.352L74.2673 163.367Z" fill="#FFCFB5"/>
<path d="M80.0474 163.716C80.0474 161.302 78.091 159.346 75.6776 159.346H72.856C70.4427 159.346 68.4862 161.302 68.4862 163.716V165.215H80.0473V163.716H80.0474Z" fill="#282A52"/>
<path d="M75.6781 159.361H74.2673V165.231H80.0479V163.731C80.0479 161.318 78.0915 159.361 75.6781 159.361Z" fill="#1E203E"/>
<defs>
<filter id="filter0_d_16631_57187" x="10" y="9" width="96" height="96" filterUnits="userSpaceOnUse" color-interpolation-filters="sRGB">
<feFlood flood-opacity="0" result="BackgroundImageFix"/>
<feColorMatrix in="SourceAlpha" type="matrix" values="0 0 0 0 0 0 0 0 0 0 0 0 0 0 0 0 0 0 127 0" result="hardAlpha"/>
<feOffset dx="2" dy="1"/>
<feGaussianBlur stdDeviation="4"/>
<feColorMatrix type="matrix" values="0 0 0 0 0.0392157 0 0 0 0 0.0392157 0 0 0 0 0.0627451 0 0 0 0.08 0"/>
<feBlend mode="normal" in2="BackgroundImageFix" result="effect1_dropShadow_16631_57187"/>
<feBlend mode="normal" in="SourceGraphic" in2="effect1_dropShadow_16631_57187" result="shape"/>
</filter>
</defs>
</svg>
