<svg width="112" height="208" viewBox="0 0 112 208" fill="none" xmlns="http://www.w3.org/2000/svg">
<rect x="0.5" y="0.5" width="111" height="207" rx="4.5" stroke="#9747FF" stroke-dasharray="10 5"/>
<g filter="url(#filter0_dd_34088_74224)">
<rect x="16" y="16" width="80" height="80" rx="8" fill="white"/>
</g>
<path d="M42.672 57.3696V54.5078H33.3459V57.3696C33.3459 58.6541 33.3734 58.8134 33.0765 59.9143C32.723 61.2252 31.5306 62.13 30.1782 62.13C28.9752 62.13 28 63.1094 28 64.3175V67.5988L29.0891 71.6551L28 76.4402V79.7215C28 81.5337 29.4628 83.0027 31.2673 83.0027H44.7506C46.5552 83.0027 48.0179 81.5337 48.0179 79.7215V76.4402L46.9288 72.0195L48.0179 67.5988V64.3175C48.0179 63.1094 47.0427 62.13 45.8397 62.13C44.4875 62.13 43.295 61.2251 42.9415 59.9143C42.6446 58.8134 42.672 58.6542 42.672 57.3696Z" fill="#157DF5"/>
<path d="M45.84 62.13C44.4878 62.13 43.2953 61.2251 42.9418 59.9143C42.6449 58.8134 42.6723 58.6542 42.6723 57.3696V54.5078H38.0093V83.0027H44.7509C46.5555 83.0027 48.0183 81.5337 48.0183 79.7215V76.4402L46.9291 72.0195L48.0183 67.5988V64.3175C48.0183 63.1094 47.043 62.13 45.84 62.13Z" fill="#0965CD"/>
<path d="M29.3213 50.3281C29.3213 49.2236 30.2129 48.3281 31.3128 48.3281H44.7048C45.8046 48.3281 46.6963 49.2236 46.6963 50.3281V53.5989C46.6963 54.7035 45.8046 55.5989 44.7048 55.5989H31.3128C30.2129 55.5989 29.3213 54.7035 29.3213 53.5989V50.3281Z" fill="#E2EFFE"/>
<path d="M38.0088 48.3281H44.7048C45.8047 48.3281 46.6963 49.2236 46.6963 50.3281V53.5989C46.6963 54.7035 45.8047 55.5989 44.7048 55.5989H38.0088V48.3281Z" fill="#B6D7FC"/>
<path d="M28 67.5938H48.0179V76.4352H28V67.5938Z" fill="#43BC80"/>
<path d="M38.0093 67.5938H48.0183V76.4352H38.0093V67.5938Z" fill="#25BB71"/>
<path d="M64.5635 37.8566L61.4557 38.6906L59.2351 30.3903C59.0052 29.5308 59.5144 28.6473 60.3726 28.417C61.2308 28.1867 62.1129 28.6968 62.3429 29.5563L64.5635 37.8566Z" fill="#F0F7FE"/>
<path d="M63.0098 38.2709L61.4559 38.6879L59.2353 30.3876C59.0053 29.5281 59.5146 28.6446 60.3728 28.4143L63.0098 38.2709Z" fill="#E2EFFE"/>
<path d="M65.5642 36.683C66.6103 36.4022 67.6857 37.024 67.966 38.0718L78.6621 78.0524L69.3143 80.561L58.6182 40.5804C58.3379 39.5326 58.9588 38.4556 60.0049 38.1749L65.5642 36.683Z" fill="#E2EFFE"/>
<path d="M62.7852 37.4332L74.0791 79.6482L69.4052 80.9025L58.6189 40.5848C58.3386 39.537 58.9594 38.4599 60.0056 38.1792L62.7852 37.4332Z" fill="#B6D7FC"/>
<path d="M67.5068 55.0812L62.833 56.3355L62.0002 53.2229L66.6741 51.9686L67.5068 55.0812Z" fill="#0965CD"/>
<path d="M69.1719 61.3035L64.498 62.5578L63.6653 59.4452L68.3391 58.1909L69.1719 61.3035Z" fill="#40D98D"/>
<path d="M70.8379 67.5334L66.164 68.7878L65.3313 65.6752L70.0052 64.4208L70.8379 67.5334Z" fill="#0965CD"/>
<path d="M69.9595 45.5214L60.6117 48.03L59.779 44.9174L69.1267 42.4088L69.9595 45.5214Z" fill="#157DF5"/>
<path d="M65.2861 46.7796L60.6123 48.0339L59.7795 44.9213L64.4534 43.667L65.2861 46.7796Z" fill="#0965CD"/>
<path d="M83.5836 70.7801C83.8136 71.6396 83.3043 72.5231 82.4461 72.7534L63.3916 77.867C62.5335 78.0973 61.6513 77.5872 61.4214 76.7277C61.1914 75.8682 61.7007 74.9847 62.5589 74.7544L81.6134 69.6408C82.4716 69.4105 83.3537 69.9206 83.5836 70.7801Z" fill="#B6D7FC"/>
<path d="M72.9194 75.3133L63.3923 77.8701C62.5341 78.1004 61.652 77.5903 61.422 76.7308C61.1921 75.8713 61.7013 74.9878 62.5595 74.7575L72.0867 72.2007L72.9194 75.3133Z" fill="#9DC9FB"/>
<path d="M83.3341 77.5241C83.5641 78.3836 83.0548 79.2671 82.1966 79.4974L66.9728 83.583C66.1146 83.8133 65.2325 83.3032 65.0025 82.4437C64.7726 81.5841 65.2819 80.7007 66.14 80.4703L81.3639 76.3848C82.2221 76.1545 83.1042 76.6646 83.3341 77.5241Z" fill="#B6D7FC"/>
<path d="M74.5845 81.5356L66.9726 83.5784C66.1144 83.8087 65.2323 83.2986 65.0024 82.4391C64.7724 81.5795 65.2817 80.6961 66.1399 80.4657L73.7517 78.423L74.5845 81.5356Z" fill="#9DC9FB"/>
<path d="M42.672 153.37V150.508H33.3459V153.37C33.3459 154.654 33.3734 154.813 33.0765 155.914C32.723 157.225 31.5306 158.13 30.1782 158.13C28.9752 158.13 28 159.109 28 160.318V163.599L29.0891 167.655L28 172.44V175.721C28 177.534 29.4628 179.003 31.2673 179.003H44.7506C46.5552 179.003 48.0179 177.534 48.0179 175.721V172.44L46.9288 168.02L48.0179 163.599V160.318C48.0179 159.109 47.0427 158.13 45.8397 158.13C44.4875 158.13 43.295 157.225 42.9415 155.914C42.6446 154.813 42.672 154.654 42.672 153.37Z" fill="#157DF5"/>
<path d="M45.84 158.13C44.4878 158.13 43.2953 157.225 42.9418 155.914C42.6449 154.813 42.6723 154.654 42.6723 153.37V150.508H38.0093V179.003H44.7509C46.5555 179.003 48.0183 177.534 48.0183 175.721V172.44L46.9291 168.02L48.0183 163.599V160.318C48.0183 159.109 47.043 158.13 45.84 158.13Z" fill="#0965CD"/>
<path d="M29.3213 146.328C29.3213 145.224 30.2129 144.328 31.3128 144.328H44.7048C45.8046 144.328 46.6963 145.224 46.6963 146.328V149.599C46.6963 150.704 45.8046 151.599 44.7048 151.599H31.3128C30.2129 151.599 29.3213 150.704 29.3213 149.599V146.328Z" fill="#E2EFFE"/>
<path d="M38.0088 144.328H44.7048C45.8047 144.328 46.6963 145.224 46.6963 146.328V149.599C46.6963 150.704 45.8047 151.599 44.7048 151.599H38.0088V144.328Z" fill="#B6D7FC"/>
<path d="M28 163.594H48.0179V172.435H28V163.594Z" fill="#43BC80"/>
<path d="M38.0093 163.594H48.0183V172.435H38.0093V163.594Z" fill="#25BB71"/>
<path d="M64.5635 133.857L61.4557 134.691L59.2351 126.39C59.0052 125.531 59.5144 124.647 60.3726 124.417C61.2308 124.187 62.1129 124.697 62.3429 125.556L64.5635 133.857Z" fill="#F0F7FE"/>
<path d="M63.0098 134.271L61.4559 134.688L59.2353 126.388C59.0053 125.528 59.5146 124.645 60.3728 124.414L63.0098 134.271Z" fill="#E2EFFE"/>
<path d="M65.5642 132.683C66.6103 132.402 67.6857 133.024 67.966 134.072L78.6621 174.052L69.3143 176.561L58.6182 136.58C58.3379 135.533 58.9588 134.456 60.0049 134.175L65.5642 132.683Z" fill="#E2EFFE"/>
<path d="M62.7852 133.433L74.0791 175.648L69.4052 176.903L58.6189 136.585C58.3386 135.537 58.9594 134.46 60.0056 134.179L62.7852 133.433Z" fill="#B6D7FC"/>
<path d="M67.5068 151.081L62.833 152.335L62.0002 149.223L66.6741 147.969L67.5068 151.081Z" fill="#0965CD"/>
<path d="M69.1719 157.303L64.498 158.558L63.6653 155.445L68.3391 154.191L69.1719 157.303Z" fill="#40D98D"/>
<path d="M70.8379 163.533L66.164 164.788L65.3313 161.675L70.0052 160.421L70.8379 163.533Z" fill="#0965CD"/>
<path d="M69.9595 141.521L60.6117 144.03L59.779 140.917L69.1267 138.409L69.9595 141.521Z" fill="#157DF5"/>
<path d="M65.2861 142.78L60.6123 144.034L59.7795 140.921L64.4534 139.667L65.2861 142.78Z" fill="#0965CD"/>
<path d="M83.5836 166.78C83.8136 167.64 83.3043 168.523 82.4461 168.753L63.3916 173.867C62.5335 174.097 61.6513 173.587 61.4214 172.728C61.1914 171.868 61.7007 170.985 62.5589 170.754L81.6134 165.641C82.4716 165.411 83.3537 165.921 83.5836 166.78Z" fill="#B6D7FC"/>
<path d="M72.9194 171.313L63.3923 173.87C62.5341 174.1 61.652 173.59 61.422 172.731C61.1921 171.871 61.7013 170.988 62.5595 170.757L72.0867 168.201L72.9194 171.313Z" fill="#9DC9FB"/>
<path d="M83.3341 173.524C83.5641 174.384 83.0548 175.267 82.1966 175.497L66.9728 179.583C66.1146 179.813 65.2325 179.303 65.0025 178.444C64.7726 177.584 65.2819 176.701 66.14 176.47L81.3639 172.385C82.2221 172.154 83.1042 172.665 83.3341 173.524Z" fill="#B6D7FC"/>
<path d="M74.5845 177.536L66.9726 179.578C66.1144 179.809 65.2323 179.299 65.0024 178.439C64.7724 177.58 65.2817 176.696 66.1399 176.466L73.7517 174.423L74.5845 177.536Z" fill="#9DC9FB"/>
<defs>
<filter id="filter0_dd_34088_74224" x="6" y="9" width="100" height="100" filterUnits="userSpaceOnUse" color-interpolation-filters="sRGB">
<feFlood flood-opacity="0" result="BackgroundImageFix"/>
<feColorMatrix in="SourceAlpha" type="matrix" values="0 0 0 0 0 0 0 0 0 0 0 0 0 0 0 0 0 0 127 0" result="hardAlpha"/>
<feOffset dy="3"/>
<feGaussianBlur stdDeviation="5"/>
<feColorMatrix type="matrix" values="0 0 0 0 0.516667 0 0 0 0 0.578358 0 0 0 0 0.775 0 0 0 0.12 0"/>
<feBlend mode="normal" in2="BackgroundImageFix" result="effect1_dropShadow_34088_74224"/>
<feColorMatrix in="SourceAlpha" type="matrix" values="0 0 0 0 0 0 0 0 0 0 0 0 0 0 0 0 0 0 127 0" result="hardAlpha"/>
<feOffset dy="1"/>
<feGaussianBlur stdDeviation="3"/>
<feColorMatrix type="matrix" values="0 0 0 0 0.709809 0 0 0 0 0.788943 0 0 0 0 0.920833 0 0 0 0.15 0"/>
<feBlend mode="normal" in2="effect1_dropShadow_34088_74224" result="effect2_dropShadow_34088_74224"/>
<feBlend mode="normal" in="SourceGraphic" in2="effect2_dropShadow_34088_74224" result="shape"/>
</filter>
</defs>
</svg>
