<svg width="112" height="208" viewBox="0 0 112 208" fill="none" xmlns="http://www.w3.org/2000/svg">
<rect x="0.5" y="0.5" width="111" height="207" rx="4.5" stroke="#9747FF" stroke-dasharray="10 5"/>
<g filter="url(#filter0_dd_8156_36014)">
<rect x="16" y="16" width="80" height="80" rx="8" fill="white"/>
</g>
<path d="M36 38.4297H59.9982V77.0012H38C36.8954 77.0012 36 76.1057 36 75.0012V38.4297Z" fill="#157DF5"/>
<path d="M59.998 38.4297H83.9963V75.0011C83.9963 76.1057 83.1009 77.0012 81.9963 77.0012H59.998V38.4297Z" fill="#0965CD"/>
<path d="M41.1523 44.1562H78.533V56.2059H41.1523V44.1562Z" fill="#E2EFFE"/>
<path d="M59.9609 44.1562H78.5348V56.2059H59.9609V44.1562Z" fill="#B6D7FC"/>
<path d="M79.5621 42.3281H40.6419C40.0252 42.3281 39.5254 42.8281 39.5254 43.4447V76.9936H80.6652V43.4312C80.6651 42.8221 80.1713 42.3281 79.5621 42.3281ZM42.6758 53.3587C42.6758 52.4878 43.3818 51.7819 44.2527 51.7819H77.5146V54.9355H44.2527C43.3818 54.9355 42.6758 54.2295 42.6758 53.3587ZM77.5146 45.4788V48.6311H44.252C43.3815 48.6311 42.6758 47.9255 42.6758 47.055C42.6758 46.1845 43.3815 45.4788 44.252 45.4788H77.5146Z" fill="#F0F7FE"/>
<path d="M79.5629 42.3281H59.9609V45.4788H75.9393C76.8098 45.4788 77.5154 46.1845 77.5154 47.055C77.5154 47.9255 76.8098 48.6311 75.9393 48.6311H59.9609V51.7819H75.9386C76.8095 51.7819 77.5154 52.4878 77.5154 53.3587C77.5154 54.2295 76.8095 54.9355 75.9386 54.9355H59.9609V76.9937H80.666V43.4312C80.666 42.822 80.1722 42.3281 79.5629 42.3281Z" fill="#E2EFFE"/>
<path d="M42.6758 60.0859C42.6758 58.9814 43.5712 58.0859 44.6758 58.0859H75.5145C76.6191 58.0859 77.5145 58.9814 77.5145 60.0859V76.9914H42.6758V60.0859Z" fill="#282A52"/>
<path d="M59.9609 60.0859C59.9609 58.9814 60.8564 58.0859 61.9609 58.0859H75.5154C76.62 58.0859 77.5154 58.9814 77.5154 60.0859V74.9914C77.5154 76.096 76.62 76.9914 75.5154 76.9914H61.9609C60.8564 76.9914 59.9609 76.096 59.9609 74.9914V60.0859Z" fill="#1E203E"/>
<path d="M36 36.3384C36 35.5518 36.5353 34.8662 37.2984 34.6754L59.9982 29V38.4286H36V36.3384Z" fill="#157DF5"/>
<path d="M83.9961 36.3384C83.9961 35.5518 83.4608 34.8662 82.6977 34.6754L59.9979 29V38.4286H83.9961V36.3384Z" fill="#0965CD"/>
<path d="M58.2461 56.8019L64.3573 50.6613C64.4486 50.5655 64.5102 50.4451 64.5345 50.3148C64.5589 50.1845 64.545 50.0498 64.4945 49.9273C64.444 49.8048 64.3591 49.6997 64.2501 49.6248C64.1412 49.55 64.0129 49.5086 63.881 49.5057L61.026 49.5057C60.8004 46.2429 65.4023 42.5285 68.3962 42.2684C68.5453 42.252 68.6848 42.1864 68.7928 42.0818C68.9008 41.9772 68.9712 41.8395 68.9929 41.6903C69.0146 41.5412 68.9864 41.389 68.9128 41.2577C68.8391 41.1264 68.7242 41.0233 68.586 40.9647C61.1609 38.013 55.7377 42.1109 54.4984 49.5057L51.6586 49.5057C51.5277 49.5108 51.401 49.5535 51.2935 49.6288C51.186 49.704 51.1023 49.8086 51.0521 49.9302C51.002 50.0518 50.9876 50.1853 51.0107 50.3149C51.0338 50.4445 51.0933 50.5647 51.1823 50.6613L57.2935 56.8019C57.4199 56.9288 57.5912 57.0001 57.7698 57.0001C57.9485 57.0001 58.1198 56.9288 58.2461 56.8019Z" fill="#40D98D"/>
<path fill-rule="evenodd" clip-rule="evenodd" d="M60.5707 59.116C59.8305 59.8595 58.8233 60.2801 57.7699 60.2801C56.7164 60.2801 55.7092 59.8595 54.969 59.116L48.8127 52.93L48.7697 52.8833C48.2561 52.3257 47.9139 51.6336 47.7815 50.8897C47.6491 50.1459 47.7315 49.3793 48.0197 48.6802C48.3079 47.981 48.7905 47.377 49.4127 46.9416C50.0349 46.506 50.77 46.2578 51.5309 46.2282L51.5947 46.2257L51.9221 46.2257C52.9367 43.0528 54.7621 40.3366 57.4393 38.6023C60.9453 36.3312 65.3098 36.1326 69.7977 37.9167L69.8321 37.9304L69.8661 37.9448C70.6756 38.288 71.3456 38.89 71.7736 39.6532C72.2015 40.4162 72.3645 41.2986 72.2387 42.1628C72.1129 43.027 71.7048 43.8275 71.0751 44.4375C70.4451 45.0478 69.6289 45.4328 68.7538 45.5288L68.717 45.5328L68.6801 45.536C68.2053 45.5773 67.1366 46.0011 66.057 46.8871C66.0739 46.8984 66.0908 46.9098 66.1076 46.9214C66.7423 47.3575 67.2347 47.9682 67.527 48.6773C67.8192 49.3862 67.8995 50.1644 67.7587 50.9175C67.6179 51.6706 67.2616 52.3683 66.7311 52.9247L66.7069 52.9501L60.5707 59.116ZM61.026 49.0358C61.0893 48.0902 61.5244 47.1228 62.1795 46.2257C62.9852 45.1223 64.1237 44.1254 65.3126 43.4063C65.5784 43.2455 65.8467 43.0986 66.1144 42.9675C66.7659 42.6485 67.4136 42.4231 68.0119 42.3189C68.0247 42.3167 68.0375 42.3145 68.0502 42.3124C68.1676 42.2929 68.283 42.2782 68.3962 42.2683C68.5453 42.252 68.6848 42.1863 68.7928 42.0817C68.9008 41.9771 68.9712 41.8394 68.9929 41.6903C69.0146 41.5411 68.9864 41.3889 68.9128 41.2576C68.8391 41.1263 68.7242 41.0233 68.586 40.9647C68.4811 40.923 68.3765 40.8827 68.2724 40.8438C68.2611 40.8395 68.2498 40.8353 68.2386 40.8312C67.9109 40.7096 67.5873 40.6018 67.2679 40.5076C66.8758 40.392 66.4902 40.2967 66.1112 40.2211C65.6174 40.1227 65.135 40.0578 64.6648 40.0251C59.3297 39.6542 55.5654 43.4276 54.5222 49.3673C54.5141 49.4133 54.5062 49.4594 54.4984 49.5057L51.6586 49.5057C51.5277 49.5108 51.401 49.5535 51.2935 49.6287C51.1861 49.7039 51.1023 49.8086 51.0522 49.9302C51.002 50.0518 50.9877 50.1853 51.0107 50.3148C51.0338 50.4444 51.0933 50.5646 51.1823 50.6612L57.2936 56.8019C57.4199 56.9288 57.5912 57.0001 57.7699 57.0001C57.9485 57.0001 58.1198 56.9288 58.2462 56.8019L64.3573 50.6612C64.4486 50.5655 64.5102 50.4451 64.5346 50.3147C64.5589 50.1844 64.545 50.0497 64.4945 49.9272C64.444 49.8047 64.3591 49.6996 64.2502 49.6248C64.1412 49.5499 64.0129 49.5085 63.881 49.5057L61.026 49.5057C61.0228 49.459 61.0206 49.4123 61.0193 49.3655C61.0163 49.256 61.0186 49.146 61.026 49.0358Z" fill="white"/>
<path d="M53.7898 82.7307C55.8191 83.2196 57.9498 83.0398 59.871 82.2177L73.6711 76.3128C73.9085 76.2155 74.1307 76.0961 74.3362 75.9579C74.9541 75.5425 75.4217 74.957 75.7014 74.2908C76.0741 73.403 76.113 72.3718 75.7293 71.4087C74.9609 69.4805 72.7844 68.5441 70.8739 69.3229L57.8316 74.7372L54.2867 72.0286L56.7105 71.4193C57.6743 71.1662 58.483 70.5488 58.9874 69.6805C59.492 68.8123 59.6321 67.7973 59.3819 66.8226C58.9467 65.1273 57.4314 64 55.7717 64.0001C55.4613 64.0002 55.1455 64.0397 54.8313 64.1222L42.6089 67.4384H34.7334C34.7139 66.405 33.8767 65.5704 32.8503 65.5704H29.8834C28.8449 65.5704 28 66.425 28 67.4753V79.1813C28 80.2315 28.8449 81.086 29.8834 81.086H32.8503C33.6844 81.086 34.3937 80.5348 34.6405 79.7735H41.5145L53.7898 82.7307Z" fill="#40D98D"/>
<path d="M30.6013 79.7735H41.5145L53.7898 82.7306C55.8192 83.2195 57.9498 83.0398 59.871 82.2177L73.6711 76.3127C75.5735 75.5334 76.4968 73.3349 75.7293 71.4087C74.9609 69.4805 72.7844 68.5441 70.8739 69.3229L57.8316 74.7372L54.2867 72.0286L56.7105 71.4193C57.6743 71.1662 58.483 70.5488 58.9874 69.6805C59.492 68.8123 59.6321 67.7973 59.3819 66.8226C58.9467 65.1273 57.4314 64 55.7717 64.0001C55.4613 64.0002 55.1456 64.0397 54.8313 64.1222L42.6089 67.4384H30.6013C30.2012 67.4384 29.877 67.7664 29.877 68.171V79.0409C29.877 79.4455 30.2012 79.7735 30.6013 79.7735Z" fill="#FFDECC"/>
<path d="M52.0488 82.3113L53.7898 82.7307C55.8191 83.2196 57.9498 83.0398 59.871 82.2177L73.6711 76.3128C75.5735 75.5334 76.4968 73.335 75.7292 71.4088C74.9608 69.4806 72.7844 68.5441 70.8739 69.323L57.8315 74.7372L54.2866 72.0286L56.7104 71.4193C57.6741 71.1662 58.4828 70.5488 58.9873 69.6805C59.4919 68.8123 59.6319 67.7973 59.3817 66.8226C58.9465 65.1273 57.4313 64 55.7716 64.0001C55.4613 64.0002 55.1455 64.0397 54.8313 64.1222L52.0488 64.8771V82.3113Z" fill="#FFCFB5"/>
<path d="M29.8834 81.086H32.8503C33.8888 81.086 34.7337 80.2315 34.7337 79.1812V67.4753C34.7337 66.425 33.8888 65.5704 32.8503 65.5704H29.8834C28.8449 65.5704 28 66.425 28 67.4753V79.1813C28 80.2315 28.8449 81.086 29.8834 81.086Z" fill="#157DF5"/>
<path d="M36 134.43H59.9982V173.001H38C36.8954 173.001 36 172.106 36 171.001V134.43Z" fill="#157DF5"/>
<path d="M59.998 134.43H83.9963V171.001C83.9963 172.106 83.1009 173.001 81.9963 173.001H59.998V134.43Z" fill="#0965CD"/>
<path d="M41.1523 140.156H78.533V152.206H41.1523V140.156Z" fill="#E2EFFE"/>
<path d="M59.9609 140.156H78.5348V152.206H59.9609V140.156Z" fill="#B6D7FC"/>
<path d="M79.5621 138.328H40.6419C40.0252 138.328 39.5254 138.828 39.5254 139.445V172.994H80.6652V139.431C80.6651 138.822 80.1713 138.328 79.5621 138.328ZM42.6758 149.359C42.6758 148.488 43.3818 147.782 44.2527 147.782H77.5146V150.936H44.2527C43.3818 150.936 42.6758 150.23 42.6758 149.359ZM77.5146 141.479V144.631H44.252C43.3815 144.631 42.6758 143.925 42.6758 143.055C42.6758 142.185 43.3815 141.479 44.252 141.479H77.5146Z" fill="#F0F7FE"/>
<path d="M79.5629 138.328H59.9609V141.479H75.9393C76.8098 141.479 77.5154 142.185 77.5154 143.055C77.5154 143.925 76.8098 144.631 75.9393 144.631H59.9609V147.782H75.9386C76.8095 147.782 77.5154 148.488 77.5154 149.359C77.5154 150.23 76.8095 150.936 75.9386 150.936H59.9609V172.994H80.666V139.431C80.666 138.822 80.1722 138.328 79.5629 138.328Z" fill="#E2EFFE"/>
<path d="M42.6758 156.086C42.6758 154.981 43.5712 154.086 44.6758 154.086H75.5145C76.6191 154.086 77.5145 154.981 77.5145 156.086V172.991H42.6758V156.086Z" fill="#282A52"/>
<path d="M59.9609 156.086C59.9609 154.981 60.8564 154.086 61.9609 154.086H75.5154C76.62 154.086 77.5154 154.981 77.5154 156.086V170.991C77.5154 172.096 76.62 172.991 75.5154 172.991H61.9609C60.8564 172.991 59.9609 172.096 59.9609 170.991V156.086Z" fill="#1E203E"/>
<path d="M36 132.338C36 131.552 36.5353 130.866 37.2984 130.675L59.9982 125V134.429H36V132.338Z" fill="#157DF5"/>
<path d="M83.9961 132.338C83.9961 131.552 83.4608 130.866 82.6977 130.675L59.9979 125V134.429H83.9961V132.338Z" fill="#0965CD"/>
<path d="M58.2461 152.802L64.3573 146.661C64.4486 146.566 64.5102 146.445 64.5345 146.315C64.5589 146.184 64.545 146.05 64.4945 145.927C64.444 145.805 64.3591 145.7 64.2501 145.625C64.1412 145.55 64.0129 145.509 63.881 145.506L61.026 145.506C60.8004 142.243 65.4023 138.529 68.3962 138.268C68.5453 138.252 68.6848 138.186 68.7928 138.082C68.9008 137.977 68.9712 137.839 68.9929 137.69C69.0146 137.541 68.9864 137.389 68.9128 137.258C68.8391 137.126 68.7242 137.023 68.586 136.965C61.1609 134.013 55.7377 138.111 54.4984 145.506L51.6586 145.506C51.5277 145.511 51.401 145.554 51.2935 145.629C51.186 145.704 51.1023 145.809 51.0521 145.93C51.002 146.052 50.9876 146.185 51.0107 146.315C51.0338 146.444 51.0933 146.565 51.1823 146.661L57.2935 152.802C57.4199 152.929 57.5912 153 57.7698 153C57.9485 153 58.1198 152.929 58.2461 152.802Z" fill="#40D98D"/>
<path fill-rule="evenodd" clip-rule="evenodd" d="M60.5707 155.116C59.8305 155.859 58.8233 156.28 57.7699 156.28C56.7164 156.28 55.7092 155.859 54.969 155.116L48.8127 148.93L48.7697 148.883C48.2561 148.326 47.9139 147.634 47.7815 146.89C47.6491 146.146 47.7315 145.379 48.0197 144.68C48.3079 143.981 48.7905 143.377 49.4127 142.942C50.0349 142.506 50.77 142.258 51.5309 142.228L51.5947 142.226L51.9221 142.226C52.9367 139.053 54.7621 136.337 57.4393 134.602C60.9453 132.331 65.3098 132.133 69.7977 133.917L69.8321 133.93L69.8661 133.945C70.6756 134.288 71.3456 134.89 71.7736 135.653C72.2015 136.416 72.3645 137.299 72.2387 138.163C72.1129 139.027 71.7048 139.827 71.0751 140.438C70.4451 141.048 69.6289 141.433 68.7538 141.529L68.717 141.533L68.6801 141.536C68.2053 141.577 67.1366 142.001 66.057 142.887C66.0739 142.898 66.0908 142.91 66.1076 142.921C66.7423 143.357 67.2347 143.968 67.527 144.677C67.8192 145.386 67.8995 146.164 67.7587 146.917C67.6179 147.671 67.2616 148.368 66.7311 148.925L66.7069 148.95L60.5707 155.116ZM61.026 145.036C61.0893 144.09 61.5244 143.123 62.1795 142.226C62.9852 141.122 64.1237 140.125 65.3126 139.406C65.5784 139.246 65.8467 139.099 66.1144 138.968C66.7659 138.649 67.4136 138.423 68.0119 138.319C68.0247 138.317 68.0375 138.315 68.0502 138.312C68.1676 138.293 68.283 138.278 68.3962 138.268C68.5453 138.252 68.6848 138.186 68.7928 138.082C68.9008 137.977 68.9712 137.839 68.9929 137.69C69.0146 137.541 68.9864 137.389 68.9128 137.258C68.8391 137.126 68.7242 137.023 68.586 136.965C68.4811 136.923 68.3765 136.883 68.2724 136.844C68.2611 136.84 68.2498 136.835 68.2386 136.831C67.9109 136.71 67.5873 136.602 67.2679 136.508C66.8758 136.392 66.4902 136.297 66.1112 136.221C65.6174 136.123 65.135 136.058 64.6648 136.025C59.3297 135.654 55.5654 139.428 54.5222 145.367C54.5141 145.413 54.5062 145.459 54.4984 145.506L51.6586 145.506C51.5277 145.511 51.401 145.553 51.2935 145.629C51.1861 145.704 51.1023 145.809 51.0522 145.93C51.002 146.052 50.9877 146.185 51.0107 146.315C51.0338 146.444 51.0933 146.565 51.1823 146.661L57.2936 152.802C57.4199 152.929 57.5912 153 57.7699 153C57.9485 153 58.1198 152.929 58.2462 152.802L64.3573 146.661C64.4486 146.565 64.5102 146.445 64.5346 146.315C64.5589 146.184 64.545 146.05 64.4945 145.927C64.444 145.805 64.3591 145.7 64.2502 145.625C64.1412 145.55 64.0129 145.509 63.881 145.506L61.026 145.506C61.0228 145.459 61.0206 145.412 61.0193 145.365C61.0163 145.256 61.0186 145.146 61.026 145.036Z" fill="white"/>
<path d="M53.7898 178.731C55.8191 179.22 57.9498 179.04 59.871 178.218L73.6711 172.313C73.9085 172.215 74.1307 172.096 74.3362 171.958C74.9541 171.543 75.4217 170.957 75.7014 170.291C76.0741 169.403 76.113 168.372 75.7293 167.409C74.9609 165.481 72.7844 164.544 70.8739 165.323L57.8316 170.737L54.2867 168.029L56.7105 167.419C57.6743 167.166 58.483 166.549 58.9874 165.68C59.492 164.812 59.6321 163.797 59.3819 162.823C58.9467 161.127 57.4314 160 55.7717 160C55.4613 160 55.1455 160.04 54.8313 160.122L42.6089 163.438H34.7334C34.7139 162.405 33.8767 161.57 32.8503 161.57H29.8834C28.8449 161.57 28 162.425 28 163.475V175.181C28 176.232 28.8449 177.086 29.8834 177.086H32.8503C33.6844 177.086 34.3937 176.535 34.6405 175.774H41.5145L53.7898 178.731Z" fill="#40D98D"/>
<path d="M30.6013 175.774H41.5145L53.7898 178.731C55.8192 179.22 57.9498 179.04 59.871 178.218L73.6711 172.313C75.5735 171.533 76.4968 169.335 75.7293 167.409C74.9609 165.481 72.7844 164.544 70.8739 165.323L57.8316 170.737L54.2867 168.029L56.7105 167.419C57.6743 167.166 58.483 166.549 58.9874 165.68C59.492 164.812 59.6321 163.797 59.3819 162.823C58.9467 161.127 57.4314 160 55.7717 160C55.4613 160 55.1456 160.04 54.8313 160.122L42.6089 163.438H30.6013C30.2012 163.438 29.877 163.766 29.877 164.171V175.041C29.877 175.445 30.2012 175.774 30.6013 175.774Z" fill="#FFDECC"/>
<path d="M52.0488 178.311L53.7898 178.731C55.8191 179.22 57.9498 179.04 59.871 178.218L73.6711 172.313C75.5735 171.533 76.4968 169.335 75.7292 167.409C74.9608 165.481 72.7844 164.544 70.8739 165.323L57.8315 170.737L54.2866 168.029L56.7104 167.419C57.6741 167.166 58.4828 166.549 58.9873 165.68C59.4919 164.812 59.6319 163.797 59.3817 162.823C58.9465 161.127 57.4313 160 55.7716 160C55.4613 160 55.1455 160.04 54.8313 160.122L52.0488 160.877V178.311Z" fill="#FFCFB5"/>
<path d="M29.8834 177.086H32.8503C33.8888 177.086 34.7337 176.232 34.7337 175.181V163.475C34.7337 162.425 33.8888 161.57 32.8503 161.57H29.8834C28.8449 161.57 28 162.425 28 163.475V175.181C28 176.232 28.8449 177.086 29.8834 177.086Z" fill="#157DF5"/>
<defs>
<filter id="filter0_dd_8156_36014" x="6" y="9" width="100" height="100" filterUnits="userSpaceOnUse" color-interpolation-filters="sRGB">
<feFlood flood-opacity="0" result="BackgroundImageFix"/>
<feColorMatrix in="SourceAlpha" type="matrix" values="0 0 0 0 0 0 0 0 0 0 0 0 0 0 0 0 0 0 127 0" result="hardAlpha"/>
<feOffset dy="3"/>
<feGaussianBlur stdDeviation="5"/>
<feColorMatrix type="matrix" values="0 0 0 0 0.516667 0 0 0 0 0.578358 0 0 0 0 0.775 0 0 0 0.12 0"/>
<feBlend mode="normal" in2="BackgroundImageFix" result="effect1_dropShadow_8156_36014"/>
<feColorMatrix in="SourceAlpha" type="matrix" values="0 0 0 0 0 0 0 0 0 0 0 0 0 0 0 0 0 0 127 0" result="hardAlpha"/>
<feOffset dy="1"/>
<feGaussianBlur stdDeviation="3"/>
<feColorMatrix type="matrix" values="0 0 0 0 0.709809 0 0 0 0 0.788943 0 0 0 0 0.920833 0 0 0 0.15 0"/>
<feBlend mode="normal" in2="effect1_dropShadow_8156_36014" result="effect2_dropShadow_8156_36014"/>
<feBlend mode="normal" in="SourceGraphic" in2="effect2_dropShadow_8156_36014" result="shape"/>
</filter>
</defs>
</svg>
