<svg width="112" height="208" viewBox="0 0 112 208" fill="none" xmlns="http://www.w3.org/2000/svg">
<rect x="0.5" y="0.5" width="111" height="207" rx="4.5" stroke="#9747FF" stroke-dasharray="10 5"/>
<g filter="url(#filter0_dd_8156_35851)">
<rect x="16" y="16" width="80" height="80" rx="8" fill="white"/>
</g>
<path d="M32 41.4297H55.9982V80.0012H34C32.8954 80.0012 32 79.1057 32 78.0012V41.4297Z" fill="#157DF5"/>
<path d="M55.998 41.4297H79.9963V78.0011C79.9963 79.1057 79.1009 80.0012 77.9963 80.0012H55.998V41.4297Z" fill="#0965CD"/>
<path d="M37.1523 47.1562H74.533V59.2059H37.1523V47.1562Z" fill="#E2EFFE"/>
<path d="M55.9609 47.1562H74.5348V59.2059H55.9609V47.1562Z" fill="#B6D7FC"/>
<path d="M75.5621 45.3281H36.6419C36.0252 45.3281 35.5254 45.8281 35.5254 46.4447V80H76.6652V46.4312C76.6651 45.8221 76.1713 45.3281 75.5621 45.3281ZM38.6758 54.7819H73.5146V57.9355H38.6758V54.7819ZM73.5146 48.4788V51.6311H38.6758V48.4788H73.5146Z" fill="#F0F7FE"/>
<path d="M75.5629 45.3281H55.9609V48.4788H73.5154V51.6311H55.9609V54.7819H73.5154V57.9355H55.9609V79.9937H76.666V46.4312C76.666 45.822 76.1722 45.3281 75.5629 45.3281Z" fill="#E2EFFE"/>
<path d="M38.6758 61.0859H73.5145V79.9914H38.6758V61.0859Z" fill="#282A52"/>
<path d="M55.9609 61.0859H73.5154V79.9914H55.9609V61.0859Z" fill="#1E203E"/>
<path d="M47.5769 66.8654V66.1406H42.4784C42.0891 66.1406 41.7734 66.4563 41.7734 66.8456V79.9809H48.8685V66.8654H47.5769Z" fill="#157DF5"/>
<path d="M55.9604 79.9812V66.8456C55.9604 66.4563 55.6448 66.1406 55.2554 66.1406H50.1607V66.8654H48.8691V79.981H55.9604" fill="#0965CD"/>
<path d="M48.8707 73.2808H48.8645C47.961 73.2808 47.2285 72.5484 47.2285 71.6449V66.1484H50.5067V71.6449C50.5067 72.5484 49.7742 73.2808 48.8707 73.2808Z" fill="#40D98D"/>
<path d="M50.5082 71.6498V66.1562H48.8691V73.2887C49.7744 73.2887 50.5082 72.555 50.5082 71.6498Z" fill="#25BB71"/>
<path d="M61.7626 66.8654V66.1406H56.7263C56.3025 66.1406 55.959 66.4842 55.959 66.9079V79.9809H63.0541V66.8654H61.7626Z" fill="#157DF5"/>
<path d="M70.1458 79.9812V66.8456C70.1458 66.4563 69.8302 66.1406 69.4409 66.1406H64.3462V66.8654H63.0547V79.981L70.1458 79.9812Z" fill="#0965CD"/>
<path d="M63.0541 73.2301H63.0481C62.1499 73.2301 61.4219 72.5021 61.4219 71.6041V66.1406H64.6803V71.6041C64.6803 72.5021 63.9523 73.2301 63.0541 73.2301Z" fill="#40D98D"/>
<path d="M64.7015 71.6012V66.1406H63.0723V73.2303C63.9721 73.2303 64.7015 72.5008 64.7015 71.6012Z" fill="#25BB71"/>
<path d="M32 39.3384C32 38.5518 32.5353 37.8662 33.2984 37.6754L55.9982 32V41.4286H32V39.3384Z" fill="#157DF5"/>
<path d="M79.9961 39.3384C79.9961 38.5518 79.4608 37.8662 78.6977 37.6754L55.9979 32V41.4286H79.9961V39.3384Z" fill="#0965CD"/>
<path d="M48.0812 38.5262L41.9406 44.6373C41.8448 44.7286 41.7244 44.7902 41.5941 44.8146C41.4637 44.8389 41.3291 44.825 41.2066 44.7745C41.0841 44.724 40.979 44.6391 40.9041 44.5302C40.8293 44.4212 40.7879 44.2929 40.785 44.161V41.306C37.5222 41.0805 33.8078 45.6823 33.5477 48.6762C33.5313 48.8253 33.4657 48.9648 33.3611 49.0728C33.2564 49.1808 33.1188 49.2512 32.9696 49.2729C32.8205 49.2946 32.6683 49.2664 32.537 49.1928C32.4057 49.1191 32.3026 49.0042 32.244 48.866C29.2923 41.441 33.3902 36.0177 40.785 34.7784V31.9386C40.7901 31.8077 40.8328 31.681 40.9081 31.5735C40.9833 31.4661 41.0879 31.3823 41.2095 31.3322C41.3311 31.282 41.4646 31.2677 41.5942 31.2907C41.7238 31.3138 41.844 31.3734 41.9406 31.4623L48.0812 37.5736C48.2081 37.6999 48.2794 37.8712 48.2794 38.0499C48.2794 38.2285 48.2081 38.3998 48.0812 38.5262Z" fill="#40D98D"/>
<path fill-rule="evenodd" clip-rule="evenodd" d="M50.3952 40.8507C51.1388 40.1105 51.5594 39.1034 51.5594 38.0499C51.5594 36.9964 51.1388 35.9893 50.3952 35.2491L44.2093 29.0927L44.1626 29.0497C43.605 28.5362 42.9129 28.194 42.169 28.0615C41.4252 27.9291 40.6586 28.0116 39.9595 28.2997C39.2603 28.5879 38.6563 29.0706 38.2209 29.6927C37.7853 30.315 37.5371 31.0501 37.5075 31.8109L37.505 31.8748V32.2022C34.3321 33.2167 31.6159 35.0421 29.8816 37.7193C27.6105 41.2253 27.4119 45.5899 29.196 50.0777L29.2097 50.1121L29.2241 50.1462C29.5673 50.9557 30.1693 51.6256 30.9325 52.0536C31.6955 52.4815 32.5779 52.6445 33.4421 52.5187C34.3063 52.3929 35.1068 51.9848 35.7168 51.3551C36.3271 50.7251 36.7121 49.909 36.8081 49.0339L36.8121 48.9971L36.8153 48.9602C36.8566 48.4853 37.2804 47.4166 38.1664 46.337C38.1777 46.354 38.1891 46.3709 38.2007 46.3877C38.6368 47.0224 39.2475 47.5147 39.9566 47.807C40.6655 48.0992 41.4437 48.1795 42.1968 48.0387C42.9499 47.8979 43.6476 47.5417 44.204 47.0111L44.2294 46.9869L50.3952 40.8507ZM40.3151 41.3061C39.3695 41.3693 38.4021 41.8044 37.505 42.4595C36.4016 43.2653 35.4047 44.4038 34.6856 45.5926C34.5248 45.8584 34.3779 46.1268 34.2468 46.3945C33.9278 47.0459 33.7024 47.6936 33.5982 48.2919C33.596 48.3047 33.5938 48.3175 33.5917 48.3302C33.5722 48.4476 33.5575 48.5631 33.5476 48.6762C33.5313 48.8254 33.4656 48.9649 33.361 49.0728C33.2564 49.1808 33.1187 49.2512 32.9696 49.2729C32.8204 49.2946 32.6682 49.2665 32.5369 49.1928C32.4056 49.1192 32.3026 49.0042 32.244 48.866C32.2023 48.7611 32.162 48.6566 32.1231 48.5524C32.1188 48.5412 32.1146 48.5299 32.1105 48.5186C31.9889 48.1909 31.8811 47.8673 31.7869 47.5479C31.6713 47.1559 31.576 46.7702 31.5004 46.3913C31.402 45.8974 31.3371 45.415 31.3044 44.9449C30.9335 39.6097 34.7068 35.8454 40.6466 34.8022C40.6926 34.7941 40.7387 34.7862 40.785 34.7785V31.9386C40.7901 31.8078 40.8328 31.6811 40.908 31.5736C40.9832 31.4661 41.0879 31.3823 41.2095 31.3322C41.3311 31.2821 41.4646 31.2677 41.5941 31.2908C41.7237 31.3138 41.8439 31.3734 41.9405 31.4623L48.0812 37.5736C48.2081 37.6999 48.2794 37.8713 48.2794 38.0499C48.2794 38.2285 48.2081 38.3999 48.0812 38.5262L41.9405 44.6373C41.8447 44.7286 41.7244 44.7902 41.594 44.8146C41.4637 44.839 41.329 44.825 41.2065 44.7745C41.084 44.724 40.9789 44.6391 40.904 44.5302C40.8292 44.4212 40.7878 44.293 40.785 44.161V41.3061C40.7383 41.3028 40.6916 41.3006 40.6448 41.2993C40.5353 41.2963 40.4253 41.2987 40.3151 41.3061Z" fill="white"/>
<path d="M63.9182 73.4738L70.0588 67.3627C70.1546 67.2714 70.275 67.2098 70.4053 67.1854C70.5356 67.1611 70.6703 67.175 70.7928 67.2255C70.9153 67.276 71.0204 67.3609 71.0953 67.4698C71.1701 67.5788 71.2115 67.7071 71.2144 67.839V70.694C74.4772 70.9195 78.1916 66.3177 78.4517 63.3238C78.4681 63.1747 78.5337 63.0352 78.6383 62.9272C78.7429 62.8192 78.8806 62.7488 79.0298 62.7271C79.1789 62.7054 79.3311 62.7336 79.4624 62.8072C79.5937 62.8809 79.6968 62.9958 79.7553 63.134C82.7071 70.559 78.6092 75.9823 71.2144 77.2216V80.0614C71.2092 80.1923 71.1666 80.319 71.0913 80.4265C71.0161 80.5339 70.9115 80.6177 70.7899 80.6678C70.6683 80.7179 70.5348 80.7323 70.4052 80.7093C70.2756 80.6862 70.1554 80.6266 70.0588 80.5377L63.9182 74.4264C63.7913 74.3001 63.72 74.1288 63.72 73.9501C63.72 73.7715 63.7913 73.6002 63.9182 73.4738Z" fill="#40D98D"/>
<path fill-rule="evenodd" clip-rule="evenodd" d="M61.604 71.1493C60.8605 71.8895 60.4399 72.8966 60.4399 73.9501C60.4399 75.0036 60.8605 76.0107 61.604 76.7509L67.79 82.9073L67.8367 82.9503C68.3943 83.4638 69.0863 83.806 69.8302 83.9385C70.5741 84.0709 71.3407 83.9884 72.0398 83.7003C72.739 83.4121 73.3429 82.9294 73.7784 82.3073C74.2139 81.685 74.4621 80.9499 74.4918 80.1891L74.4943 80.1252V79.7978C77.6672 78.7833 80.3834 76.9579 82.1176 74.2807C84.3888 70.7747 84.5874 66.4101 82.8033 61.9223L82.7896 61.8879L82.7751 61.8538C82.432 61.0443 81.83 60.3744 81.0667 59.9464C80.3038 59.5185 79.4213 59.3555 78.5572 59.4813C77.693 59.6071 76.8925 60.0152 76.2825 60.6449C75.6722 61.2749 75.2872 62.091 75.1912 62.9661L75.1872 63.0029L75.184 63.0398C75.1427 63.5147 74.7189 64.5834 73.8328 65.663C73.8215 65.646 73.8101 65.6291 73.7986 65.6123C73.3625 64.9776 72.7518 64.4853 72.0427 64.193C71.3338 63.9008 70.5556 63.8205 69.8025 63.9613C69.0493 64.1021 68.3516 64.4583 67.7952 64.9889L67.7699 65.0131L61.604 71.1493ZM71.6842 70.6939C72.6298 70.6307 73.5972 70.1956 74.4943 69.5405C75.5976 68.7347 76.5946 67.5962 77.3137 66.4074C77.4745 66.1416 77.6214 65.8732 77.7524 65.6055C78.0715 64.9541 78.2969 64.3064 78.401 63.7081C78.4033 63.6953 78.4054 63.6825 78.4076 63.6698C78.427 63.5524 78.4418 63.4369 78.4516 63.3238C78.468 63.1746 78.5336 63.0351 78.6383 62.9272C78.7429 62.8192 78.8806 62.7488 79.0297 62.7271C79.1789 62.7054 79.331 62.7335 79.4623 62.8072C79.5937 62.8808 79.6967 62.9958 79.7553 63.134C79.797 63.2389 79.8373 63.3434 79.8762 63.4476C79.8804 63.4588 79.8846 63.4701 79.8888 63.4814C80.0104 63.8091 80.1181 64.1327 80.2124 64.4521C80.328 64.8441 80.4233 65.2298 80.4988 65.6087C80.5973 66.1026 80.6621 66.585 80.6948 67.0551C81.0658 72.3903 77.2924 76.1546 71.3526 77.1978C71.3067 77.2059 71.2605 77.2138 71.2143 77.2215V80.0614C71.2092 80.1922 71.1665 80.3189 71.0913 80.4264C71.016 80.5339 70.9114 80.6177 70.7898 80.6678C70.6682 80.7179 70.5347 80.7323 70.4051 80.7092C70.2756 80.6862 70.1554 80.6266 70.0588 80.5377L63.9181 74.4264C63.7912 74.3001 63.7199 74.1287 63.7199 73.9501C63.7199 73.7715 63.7912 73.6001 63.9181 73.4738L70.0588 67.3627C70.1545 67.2714 70.2749 67.2098 70.4052 67.1854C70.5356 67.161 70.6702 67.175 70.7927 67.2255C70.9153 67.276 71.0204 67.3609 71.0952 67.4698C71.1701 67.5788 71.2114 67.707 71.2143 67.839V70.6939C71.2609 70.6972 71.3077 70.6994 71.3545 70.7007C71.464 70.7037 71.574 70.7013 71.6842 70.6939Z" fill="white"/>
<path d="M32 137.43H55.9982V176.001H34C32.8954 176.001 32 175.106 32 174.001V137.43Z" fill="#157DF5"/>
<path d="M55.998 137.43H79.9963V174.001C79.9963 175.106 79.1009 176.001 77.9963 176.001H55.998V137.43Z" fill="#0965CD"/>
<path d="M37.1523 143.156H74.533V155.206H37.1523V143.156Z" fill="#E2EFFE"/>
<path d="M55.9609 143.156H74.5348V155.206H55.9609V143.156Z" fill="#B6D7FC"/>
<path d="M75.5621 141.328H36.6419C36.0252 141.328 35.5254 141.828 35.5254 142.445V176H76.6652V142.431C76.6651 141.822 76.1713 141.328 75.5621 141.328ZM38.6758 150.782H73.5146V153.936H38.6758V150.782ZM73.5146 144.479V147.631H38.6758V144.479H73.5146Z" fill="#F0F7FE"/>
<path d="M75.5629 141.328H55.9609V144.479H73.5154V147.631H55.9609V150.782H73.5154V153.936H55.9609V175.994H76.666V142.431C76.666 141.822 76.1722 141.328 75.5629 141.328Z" fill="#E2EFFE"/>
<path d="M38.6758 157.086H73.5145V175.991H38.6758V157.086Z" fill="#282A52"/>
<path d="M55.9609 157.086H73.5154V175.991H55.9609V157.086Z" fill="#1E203E"/>
<path d="M47.5769 162.865V162.141H42.4784C42.0891 162.141 41.7734 162.456 41.7734 162.846V175.981H48.8685V162.865H47.5769Z" fill="#157DF5"/>
<path d="M55.9604 175.981V162.846C55.9604 162.456 55.6448 162.141 55.2554 162.141H50.1607V162.865H48.8691V175.981H55.9604" fill="#0965CD"/>
<path d="M48.8707 169.281H48.8645C47.961 169.281 47.2285 168.548 47.2285 167.645V162.148H50.5067V167.645C50.5067 168.548 49.7742 169.281 48.8707 169.281Z" fill="#40D98D"/>
<path d="M50.5082 167.65V162.156H48.8691V169.289C49.7744 169.289 50.5082 168.555 50.5082 167.65Z" fill="#25BB71"/>
<path d="M61.7626 162.865V162.141H56.7263C56.3025 162.141 55.959 162.484 55.959 162.908V175.981H63.0541V162.865H61.7626Z" fill="#157DF5"/>
<path d="M70.1458 175.981V162.846C70.1458 162.456 69.8302 162.141 69.4409 162.141H64.3462V162.865H63.0547V175.981L70.1458 175.981Z" fill="#0965CD"/>
<path d="M63.0541 169.23H63.0481C62.1499 169.23 61.4219 168.502 61.4219 167.604V162.141H64.6803V167.604C64.6803 168.502 63.9523 169.23 63.0541 169.23Z" fill="#40D98D"/>
<path d="M64.7015 167.601V162.141H63.0723V169.23C63.9721 169.23 64.7015 168.501 64.7015 167.601Z" fill="#25BB71"/>
<path d="M32 135.338C32 134.552 32.5353 133.866 33.2984 133.675L55.9982 128V137.429H32V135.338Z" fill="#157DF5"/>
<path d="M79.9961 135.338C79.9961 134.552 79.4608 133.866 78.6977 133.675L55.9979 128V137.429H79.9961V135.338Z" fill="#0965CD"/>
<path d="M48.0812 134.526L41.9406 140.637C41.8448 140.729 41.7244 140.79 41.5941 140.815C41.4637 140.839 41.3291 140.825 41.2066 140.775C41.0841 140.724 40.979 140.639 40.9041 140.53C40.8293 140.421 40.7879 140.293 40.785 140.161V137.306C37.5222 137.08 33.8078 141.682 33.5477 144.676C33.5313 144.825 33.4657 144.965 33.3611 145.073C33.2564 145.181 33.1188 145.251 32.9696 145.273C32.8205 145.295 32.6683 145.266 32.537 145.193C32.4057 145.119 32.3026 145.004 32.244 144.866C29.2923 137.441 33.3902 132.018 40.785 130.778V127.939C40.7901 127.808 40.8328 127.681 40.9081 127.574C40.9833 127.466 41.0879 127.382 41.2095 127.332C41.3311 127.282 41.4646 127.268 41.5942 127.291C41.7238 127.314 41.844 127.373 41.9406 127.462L48.0812 133.574C48.2081 133.7 48.2794 133.871 48.2794 134.05C48.2794 134.229 48.2081 134.4 48.0812 134.526Z" fill="#40D98D"/>
<path fill-rule="evenodd" clip-rule="evenodd" d="M50.3952 136.851C51.1388 136.111 51.5594 135.103 51.5594 134.05C51.5594 132.996 51.1388 131.989 50.3952 131.249L44.2093 125.093L44.1626 125.05C43.605 124.536 42.9129 124.194 42.169 124.062C41.4252 123.929 40.6586 124.012 39.9595 124.3C39.2603 124.588 38.6563 125.071 38.2209 125.693C37.7853 126.315 37.5371 127.05 37.5075 127.811L37.505 127.875V128.202C34.3321 129.217 31.6159 131.042 29.8816 133.719C27.6105 137.225 27.4119 141.59 29.196 146.078L29.2097 146.112L29.2241 146.146C29.5673 146.956 30.1693 147.626 30.9325 148.054C31.6955 148.482 32.5779 148.645 33.4421 148.519C34.3063 148.393 35.1068 147.985 35.7168 147.355C36.3271 146.725 36.7121 145.909 36.8081 145.034L36.8121 144.997L36.8153 144.96C36.8566 144.485 37.2804 143.417 38.1664 142.337C38.1777 142.354 38.1891 142.371 38.2007 142.388C38.6368 143.022 39.2475 143.515 39.9566 143.807C40.6655 144.099 41.4437 144.18 42.1968 144.039C42.9499 143.898 43.6476 143.542 44.204 143.011L44.2294 142.987L50.3952 136.851ZM40.3151 137.306C39.3695 137.369 38.4021 137.804 37.505 138.46C36.4016 139.265 35.4047 140.404 34.6856 141.593C34.5248 141.858 34.3779 142.127 34.2468 142.394C33.9278 143.046 33.7024 143.694 33.5982 144.292C33.596 144.305 33.5938 144.317 33.5917 144.33C33.5722 144.448 33.5575 144.563 33.5476 144.676C33.5313 144.825 33.4656 144.965 33.361 145.073C33.2564 145.181 33.1187 145.251 32.9696 145.273C32.8204 145.295 32.6682 145.266 32.5369 145.193C32.4056 145.119 32.3026 145.004 32.244 144.866C32.2023 144.761 32.162 144.657 32.1231 144.552C32.1188 144.541 32.1146 144.53 32.1105 144.519C31.9889 144.191 31.8811 143.867 31.7869 143.548C31.6713 143.156 31.576 142.77 31.5004 142.391C31.402 141.897 31.3371 141.415 31.3044 140.945C30.9335 135.61 34.7068 131.845 40.6466 130.802C40.6926 130.794 40.7387 130.786 40.785 130.778V127.939C40.7901 127.808 40.8328 127.681 40.908 127.574C40.9832 127.466 41.0879 127.382 41.2095 127.332C41.3311 127.282 41.4646 127.268 41.5941 127.291C41.7237 127.314 41.8439 127.373 41.9405 127.462L48.0812 133.574C48.2081 133.7 48.2794 133.871 48.2794 134.05C48.2794 134.229 48.2081 134.4 48.0812 134.526L41.9405 140.637C41.8447 140.729 41.7244 140.79 41.594 140.815C41.4637 140.839 41.329 140.825 41.2065 140.775C41.084 140.724 40.9789 140.639 40.904 140.53C40.8292 140.421 40.7878 140.293 40.785 140.161V137.306C40.7383 137.303 40.6916 137.301 40.6448 137.299C40.5353 137.296 40.4253 137.299 40.3151 137.306Z" fill="white"/>
<path d="M63.9182 169.474L70.0588 163.363C70.1546 163.271 70.275 163.21 70.4053 163.185C70.5356 163.161 70.6703 163.175 70.7928 163.225C70.9153 163.276 71.0204 163.361 71.0953 163.47C71.1701 163.579 71.2115 163.707 71.2144 163.839V166.694C74.4772 166.92 78.1916 162.318 78.4517 159.324C78.4681 159.175 78.5337 159.035 78.6383 158.927C78.7429 158.819 78.8806 158.749 79.0298 158.727C79.1789 158.705 79.3311 158.734 79.4624 158.807C79.5937 158.881 79.6968 158.996 79.7553 159.134C82.7071 166.559 78.6092 171.982 71.2144 173.222V176.061C71.2092 176.192 71.1666 176.319 71.0913 176.426C71.0161 176.534 70.9115 176.618 70.7899 176.668C70.6683 176.718 70.5348 176.732 70.4052 176.709C70.2756 176.686 70.1554 176.627 70.0588 176.538L63.9182 170.426C63.7913 170.3 63.72 170.129 63.72 169.95C63.72 169.771 63.7913 169.6 63.9182 169.474Z" fill="#40D98D"/>
<path fill-rule="evenodd" clip-rule="evenodd" d="M61.604 167.149C60.8605 167.889 60.4399 168.897 60.4399 169.95C60.4399 171.004 60.8605 172.011 61.604 172.751L67.79 178.907L67.8367 178.95C68.3943 179.464 69.0863 179.806 69.8302 179.938C70.5741 180.071 71.3407 179.988 72.0398 179.7C72.739 179.412 73.3429 178.929 73.7784 178.307C74.2139 177.685 74.4621 176.95 74.4918 176.189L74.4943 176.125V175.798C77.6672 174.783 80.3834 172.958 82.1176 170.281C84.3888 166.775 84.5874 162.41 82.8033 157.922L82.7896 157.888L82.7751 157.854C82.432 157.044 81.83 156.374 81.0667 155.946C80.3038 155.518 79.4213 155.355 78.5572 155.481C77.693 155.607 76.8925 156.015 76.2825 156.645C75.6722 157.275 75.2872 158.091 75.1912 158.966L75.1872 159.003L75.184 159.04C75.1427 159.515 74.7189 160.583 73.8328 161.663C73.8215 161.646 73.8101 161.629 73.7986 161.612C73.3625 160.978 72.7518 160.485 72.0427 160.193C71.3338 159.901 70.5556 159.82 69.8025 159.961C69.0493 160.102 68.3516 160.458 67.7952 160.989L67.7699 161.013L61.604 167.149ZM71.6842 166.694C72.6298 166.631 73.5972 166.196 74.4943 165.54C75.5976 164.735 76.5946 163.596 77.3137 162.407C77.4745 162.142 77.6214 161.873 77.7524 161.606C78.0715 160.954 78.2969 160.306 78.401 159.708C78.4033 159.695 78.4054 159.683 78.4076 159.67C78.427 159.552 78.4418 159.437 78.4516 159.324C78.468 159.175 78.5336 159.035 78.6383 158.927C78.7429 158.819 78.8806 158.749 79.0297 158.727C79.1789 158.705 79.331 158.734 79.4623 158.807C79.5937 158.881 79.6967 158.996 79.7553 159.134C79.797 159.239 79.8373 159.343 79.8762 159.448C79.8804 159.459 79.8846 159.47 79.8888 159.481C80.0104 159.809 80.1181 160.133 80.2124 160.452C80.328 160.844 80.4233 161.23 80.4988 161.609C80.5973 162.103 80.6621 162.585 80.6948 163.055C81.0658 168.39 77.2924 172.155 71.3526 173.198C71.3067 173.206 71.2605 173.214 71.2143 173.222V176.061C71.2092 176.192 71.1665 176.319 71.0913 176.426C71.016 176.534 70.9114 176.618 70.7898 176.668C70.6682 176.718 70.5347 176.732 70.4051 176.709C70.2756 176.686 70.1554 176.627 70.0588 176.538L63.9181 170.426C63.7912 170.3 63.7199 170.129 63.7199 169.95C63.7199 169.771 63.7912 169.6 63.9181 169.474L70.0588 163.363C70.1545 163.271 70.2749 163.21 70.4052 163.185C70.5356 163.161 70.6702 163.175 70.7927 163.225C70.9153 163.276 71.0204 163.361 71.0952 163.47C71.1701 163.579 71.2114 163.707 71.2143 163.839V166.694C71.2609 166.697 71.3077 166.699 71.3545 166.701C71.464 166.704 71.574 166.701 71.6842 166.694Z" fill="white"/>
<defs>
<filter id="filter0_dd_8156_35851" x="6" y="9" width="100" height="100" filterUnits="userSpaceOnUse" color-interpolation-filters="sRGB">
<feFlood flood-opacity="0" result="BackgroundImageFix"/>
<feColorMatrix in="SourceAlpha" type="matrix" values="0 0 0 0 0 0 0 0 0 0 0 0 0 0 0 0 0 0 127 0" result="hardAlpha"/>
<feOffset dy="3"/>
<feGaussianBlur stdDeviation="5"/>
<feColorMatrix type="matrix" values="0 0 0 0 0.516667 0 0 0 0 0.578358 0 0 0 0 0.775 0 0 0 0.12 0"/>
<feBlend mode="normal" in2="BackgroundImageFix" result="effect1_dropShadow_8156_35851"/>
<feColorMatrix in="SourceAlpha" type="matrix" values="0 0 0 0 0 0 0 0 0 0 0 0 0 0 0 0 0 0 127 0" result="hardAlpha"/>
<feOffset dy="1"/>
<feGaussianBlur stdDeviation="3"/>
<feColorMatrix type="matrix" values="0 0 0 0 0.709809 0 0 0 0 0.788943 0 0 0 0 0.920833 0 0 0 0.15 0"/>
<feBlend mode="normal" in2="effect1_dropShadow_8156_35851" result="effect2_dropShadow_8156_35851"/>
<feBlend mode="normal" in="SourceGraphic" in2="effect2_dropShadow_8156_35851" result="shape"/>
</filter>
</defs>
</svg>
