<svg width="112" height="208" viewBox="0 0 112 208" fill="none" xmlns="http://www.w3.org/2000/svg">
<rect x="0.5" y="0.5" width="111" height="207" rx="4.5" stroke="#9747FF" stroke-dasharray="10 5"/>
<g filter="url(#filter0_dd_37796_11058)">
<rect x="16" y="16" width="80" height="80" rx="8" fill="white"/>
</g>
<path d="M30.6406 34.8281C29.7346 34.8281 29 35.5627 29 36.4687V82.3587C29 83.2647 29.7346 83.9993 30.6406 83.9993H48.4248L49.5186 59.2089L48.4248 34.8281H30.6406Z" fill="#F0F7FE"/>
<path d="M66.2091 34.8281H48.4248V83.9993H67.8496V36.4687C67.8497 35.5627 67.1151 34.8281 66.2091 34.8281Z" fill="#E2EFFE"/>
<path d="M62.4358 48.259L62.4399 52.5079C61.5578 51.0042 59.2561 50.9086 58.374 52.4123L58.3492 52.4547C57.4641 53.9635 55.2655 53.9638 54.38 52.4552L54.3618 52.4242C53.4745 50.9124 51.2698 50.9167 50.3885 52.432C49.5071 53.9474 47.302 53.9515 46.4149 52.4393L46.3991 52.4123C45.5139 50.9033 43.3149 50.9033 42.4297 52.4123L42.4049 52.4547C41.5198 53.9635 39.3212 53.9638 38.4357 52.4552L38.4091 52.4097C37.5267 50.9065 35.3219 50.9068 34.4399 52.4103V48.2913C34.4399 46.3243 36.9396 45.4045 38.1965 46.9265C38.2737 47.0199 38.3449 47.1214 38.4091 47.2307L38.4357 47.2762C39.3212 48.7847 41.5198 48.7845 42.4049 47.2757L42.4297 47.2333C43.3149 45.7243 45.5139 45.7243 46.3991 47.2333L46.4149 47.2603C47.302 48.7725 49.5071 48.7685 50.3885 47.2529C51.2698 45.7377 53.4745 45.7334 54.3618 47.2451L54.38 47.2762C55.2655 48.7847 57.4641 48.7845 58.3492 47.2757L58.374 47.2333C59.2561 45.7296 61.5563 46.7551 62.4384 48.2588" fill="#E2EFFE"/>
<path d="M58.3742 47.2325L58.3494 47.2749C57.4641 48.7838 55.2652 48.7838 54.3799 47.2749L54.3621 47.2445C53.4779 45.738 51.2669 45.7423 50.3888 47.2522C49.9543 47.9992 49.1936 48.3771 48.4287 48.3864V53.5655C49.1935 53.5562 49.9543 53.1783 50.3888 52.4313C51.2669 50.9214 53.4779 50.9171 54.3621 52.4235L54.3803 52.4545C55.2654 53.9632 57.464 53.9632 58.3491 52.4545L58.3743 52.4117C59.2564 50.908 61.5581 51.0036 62.4402 52.5073L62.4386 48.2581C62.4383 47.1314 61.5464 46.1828 60.4103 46.1493C59.6134 46.1258 58.816 46.4794 58.3742 47.2325Z" fill="#B6D7FC"/>
<path d="M61.7526 61.6003H35.1273C34.7477 61.6003 34.4399 61.2952 34.4399 60.919V55.8438H62.4399V60.919C62.4399 61.2952 62.1322 61.6003 61.7526 61.6003Z" fill="#157DF5"/>
<path d="M62.438 52.4453L62.4399 57.6311C61.5578 56.1274 59.2561 56.0318 58.374 57.5355L58.3492 57.5779C57.4673 59.0814 55.2624 59.0816 54.38 57.5784L54.3619 57.5475C53.4776 56.041 51.2667 56.0453 50.3885 57.5552C49.5102 59.0652 47.2989 59.0693 46.4149 57.5624L46.3991 57.5355C45.517 56.0318 43.3118 56.0318 42.4297 57.5355L42.4049 57.5779C41.5229 59.0814 39.3181 59.0816 38.4357 57.5784L38.4091 57.533C37.5267 56.0297 35.3219 56.03 34.4399 57.5334V52.3543C35.3219 50.8509 37.5267 50.8506 38.4091 52.3538L38.4357 52.3993C39.3181 53.9025 41.5229 53.9023 42.4049 52.3988L42.4297 52.3564C43.3118 50.8528 45.517 50.8528 46.3991 52.3564L46.4149 52.3833C47.2989 53.8902 49.5102 53.8862 50.3885 52.3761C51.2667 50.8662 53.4776 50.8619 54.3619 52.3684L54.38 52.3993C55.2624 53.9026 57.4672 53.9023 58.3492 52.3988L58.374 52.3565C59.2561 50.8528 61.5559 50.9416 62.438 52.4453Z" fill="#B6D7FC"/>
<path d="M48.4287 61.6003H61.7527C62.1324 61.6003 62.4401 61.2953 62.4401 60.919V55.8438H48.4287V61.6003Z" fill="#0965CD"/>
<path d="M58.3743 52.3576L58.3494 52.3999C57.4674 53.9034 55.2627 53.9037 54.3803 52.4004L54.3621 52.3695C53.4779 50.863 51.2669 50.8673 50.3888 52.3772C49.9543 53.1242 49.1936 53.5021 48.4287 53.5114V58.6905C49.1935 58.6812 49.9543 58.3033 50.3888 57.5563C51.2669 56.0464 53.4779 56.0421 54.3621 57.5485L54.3803 57.5795C55.2627 59.0828 57.4675 59.0825 58.3494 57.579L58.3743 57.5367C59.2564 56.033 61.558 56.1286 62.4401 57.6323L62.4383 52.4464C61.5562 50.9427 59.2564 50.8539 58.3743 52.3576Z" fill="#9DC9FB"/>
<path d="M35.3408 68.0352C35.3408 68.9412 36.0754 69.6758 36.9814 69.6758H48.4248L49.5187 67.9958L48.4248 66.3945H36.9814C36.0754 66.3945 35.3408 67.1291 35.3408 68.0352Z" fill="#E2EFFE"/>
<path d="M59.8683 69.6758C60.7743 69.6758 61.5089 68.9412 61.5089 68.0352C61.5089 67.1291 60.7743 66.3945 59.8683 66.3945H48.4248V69.6758H59.8683Z" fill="#B6D7FC"/>
<path d="M36.9814 73.0781C36.0754 73.0781 35.3408 73.8127 35.3408 74.7188C35.3408 75.6248 36.0754 76.3594 36.9814 76.3594H48.4248L49.5187 74.7188L48.4248 73.0781H36.9814Z" fill="#E2EFFE"/>
<path d="M59.8683 73.0781H48.4248V76.3594H59.8682C60.7742 76.3594 61.5088 75.6248 61.5088 74.7188C61.5088 73.8127 60.7743 73.0781 59.8683 73.0781Z" fill="#B6D7FC"/>
<path d="M48.4251 28C45.9601 28 43.7559 29.3473 42.6186 31.4529H39.4072C38.5012 31.4529 37.7666 32.1874 37.7666 33.0935V37.7338C37.7666 38.6399 38.5012 39.3745 39.4072 39.3745H48.4252L49.5191 35.4878L48.4251 28Z" fill="#323567"/>
<path d="M57.4428 31.4529H54.2314C53.0941 29.3473 50.8899 28 48.4248 28V39.3745H57.4428C58.3488 39.3745 59.0834 38.6399 59.0834 37.7338V33.0935C59.0834 32.1874 58.3488 31.4529 57.4428 31.4529Z" fill="#282A52"/>
<path d="M79.4541 69C79.4541 75.6274 74.0815 81 67.4541 81C60.8267 81 55.4541 75.6274 55.4541 69C55.4541 62.3726 60.8267 57 67.4541 57C74.0815 57 79.4541 62.3726 79.4541 69Z" fill="#40D98D"/>
<path fill-rule="evenodd" clip-rule="evenodd" d="M82.4541 69C82.4541 77.2843 75.7384 84 67.4541 84C59.1698 84 52.4541 77.2843 52.4541 69C52.4541 60.7157 59.1698 54 67.4541 54C75.7384 54 82.4541 60.7157 82.4541 69ZM67.4541 81C74.0815 81 79.4541 75.6274 79.4541 69C79.4541 62.3726 74.0815 57 67.4541 57C60.8267 57 55.4541 62.3726 55.4541 69C55.4541 75.6274 60.8267 81 67.4541 81Z" fill="white"/>
<path d="M67.4541 81C74.0815 81 79.4541 75.6274 79.4541 69C79.4541 62.3726 74.0815 57 67.4541 57V81Z" fill="#25BB71"/>
<path d="M72.4774 65.4393C71.9074 64.8692 70.9831 64.8692 70.413 65.4393L66.3929 69.4594L64.4969 67.5632C63.9268 66.9929 63.0025 66.9931 62.4324 67.5632C61.8624 68.1333 61.8624 69.0576 62.4324 69.6276L65.3607 72.556C65.6345 72.8298 66.0058 72.9836 66.393 72.9836C66.7802 72.9836 67.1515 72.8298 67.4252 72.556L72.4775 67.5037C73.0476 66.9336 73.0476 66.0093 72.4774 65.4393Z" fill="white"/>
<path d="M70.4131 65.4432L67.4502 68.4061V72.535L72.4775 67.5076C73.0476 66.9375 73.0476 66.0132 72.4775 65.4432C71.9076 64.8731 70.9832 64.8731 70.4131 65.4432Z" fill="#F0F7FE"/>
<path d="M30.6406 130.828C29.7346 130.828 29 131.563 29 132.469V178.359C29 179.265 29.7346 179.999 30.6406 179.999H48.4248L49.5186 155.209L48.4248 130.828H30.6406Z" fill="#F0F7FE"/>
<path d="M66.2091 130.828H48.4248V179.999H67.8496V132.469C67.8497 131.563 67.1151 130.828 66.2091 130.828Z" fill="#E2EFFE"/>
<path d="M62.4358 144.259L62.4399 148.508C61.5578 147.004 59.2561 146.909 58.374 148.412L58.3492 148.455C57.4641 149.963 55.2655 149.964 54.38 148.455L54.3618 148.424C53.4745 146.912 51.2698 146.917 50.3885 148.432C49.5071 149.947 47.302 149.951 46.4149 148.439L46.3991 148.412C45.5139 146.903 43.3149 146.903 42.4297 148.412L42.4049 148.455C41.5198 149.963 39.3212 149.964 38.4357 148.455L38.4091 148.41C37.5267 146.907 35.3219 146.907 34.4399 148.41V144.291C34.4399 142.324 36.9396 141.404 38.1965 142.926C38.2737 143.02 38.3449 143.121 38.4091 143.231L38.4357 143.276C39.3212 144.785 41.5198 144.784 42.4049 143.276L42.4297 143.233C43.3149 141.724 45.5139 141.724 46.3991 143.233L46.4149 143.26C47.302 144.772 49.5071 144.768 50.3885 143.253C51.2698 141.738 53.4745 141.733 54.3618 143.245L54.38 143.276C55.2655 144.785 57.4641 144.784 58.3492 143.276L58.374 143.233C59.2561 141.73 61.5563 142.755 62.4384 144.259" fill="#E2EFFE"/>
<path d="M58.3742 143.233L58.3494 143.275C57.4641 144.784 55.2652 144.784 54.3799 143.275L54.3621 143.244C53.4779 141.738 51.2669 141.742 50.3888 143.252C49.9543 143.999 49.1936 144.377 48.4287 144.386V149.565C49.1935 149.556 49.9543 149.178 50.3888 148.431C51.2669 146.921 53.4779 146.917 54.3621 148.424L54.3803 148.455C55.2654 149.963 57.464 149.963 58.3491 148.455L58.3743 148.412C59.2564 146.908 61.5581 147.004 62.4402 148.507L62.4386 144.258C62.4383 143.131 61.5464 142.183 60.4103 142.149C59.6134 142.126 58.816 142.479 58.3742 143.233Z" fill="#B6D7FC"/>
<path d="M61.7526 157.6H35.1273C34.7477 157.6 34.4399 157.295 34.4399 156.919V151.844H62.4399V156.919C62.4399 157.295 62.1322 157.6 61.7526 157.6Z" fill="#157DF5"/>
<path d="M62.438 148.445L62.4399 153.631C61.5578 152.127 59.2561 152.032 58.374 153.536L58.3492 153.578C57.4673 155.081 55.2624 155.082 54.38 153.578L54.3619 153.547C53.4776 152.041 51.2667 152.045 50.3885 153.555C49.5102 155.065 47.2989 155.069 46.4149 153.562L46.3991 153.536C45.517 152.032 43.3118 152.032 42.4297 153.536L42.4049 153.578C41.5229 155.081 39.3181 155.082 38.4357 153.578L38.4091 153.533C37.5267 152.03 35.3219 152.03 34.4399 153.533V148.354C35.3219 146.851 37.5267 146.851 38.4091 148.354L38.4357 148.399C39.3181 149.903 41.5229 149.902 42.4049 148.399L42.4297 148.356C43.3118 146.853 45.517 146.853 46.3991 148.356L46.4149 148.383C47.2989 149.89 49.5102 149.886 50.3885 148.376C51.2667 146.866 53.4776 146.862 54.3619 148.368L54.38 148.399C55.2624 149.903 57.4672 149.902 58.3492 148.399L58.374 148.357C59.2561 146.853 61.5559 146.942 62.438 148.445Z" fill="#B6D7FC"/>
<path d="M48.4287 157.6H61.7527C62.1324 157.6 62.4401 157.295 62.4401 156.919V151.844H48.4287V157.6Z" fill="#0965CD"/>
<path d="M58.3743 148.358L58.3494 148.4C57.4674 149.903 55.2627 149.904 54.3803 148.4L54.3621 148.369C53.4779 146.863 51.2669 146.867 50.3888 148.377C49.9543 149.124 49.1936 149.502 48.4287 149.511V154.69C49.1935 154.681 49.9543 154.303 50.3888 153.556C51.2669 152.046 53.4779 152.042 54.3621 153.549L54.3803 153.58C55.2627 155.083 57.4675 155.082 58.3494 153.579L58.3743 153.537C59.2564 152.033 61.558 152.129 62.4401 153.632L62.4383 148.446C61.5562 146.943 59.2564 146.854 58.3743 148.358Z" fill="#9DC9FB"/>
<path d="M35.3408 164.035C35.3408 164.941 36.0754 165.676 36.9814 165.676H48.4248L49.5187 163.996L48.4248 162.395H36.9814C36.0754 162.395 35.3408 163.129 35.3408 164.035Z" fill="#E2EFFE"/>
<path d="M59.8683 165.676C60.7743 165.676 61.5089 164.941 61.5089 164.035C61.5089 163.129 60.7743 162.395 59.8683 162.395H48.4248V165.676H59.8683Z" fill="#B6D7FC"/>
<path d="M36.9814 169.078C36.0754 169.078 35.3408 169.813 35.3408 170.719C35.3408 171.625 36.0754 172.359 36.9814 172.359H48.4248L49.5187 170.719L48.4248 169.078H36.9814Z" fill="#E2EFFE"/>
<path d="M59.8683 169.078H48.4248V172.359H59.8682C60.7742 172.359 61.5088 171.625 61.5088 170.719C61.5088 169.813 60.7743 169.078 59.8683 169.078Z" fill="#B6D7FC"/>
<path d="M48.4251 124C45.9601 124 43.7559 125.347 42.6186 127.453H39.4072C38.5012 127.453 37.7666 128.187 37.7666 129.093V133.734C37.7666 134.64 38.5012 135.374 39.4072 135.374H48.4252L49.5191 131.488L48.4251 124Z" fill="#323567"/>
<path d="M57.4428 127.453H54.2314C53.0941 125.347 50.8899 124 48.4248 124V135.374H57.4428C58.3488 135.374 59.0834 134.64 59.0834 133.734V129.093C59.0834 128.187 58.3488 127.453 57.4428 127.453Z" fill="#282A52"/>
<path d="M79.4541 165C79.4541 171.627 74.0815 177 67.4541 177C60.8267 177 55.4541 171.627 55.4541 165C55.4541 158.373 60.8267 153 67.4541 153C74.0815 153 79.4541 158.373 79.4541 165Z" fill="#40D98D"/>
<path fill-rule="evenodd" clip-rule="evenodd" d="M82.4541 165C82.4541 173.284 75.7384 180 67.4541 180C59.1698 180 52.4541 173.284 52.4541 165C52.4541 156.716 59.1698 150 67.4541 150C75.7384 150 82.4541 156.716 82.4541 165ZM67.4541 177C74.0815 177 79.4541 171.627 79.4541 165C79.4541 158.373 74.0815 153 67.4541 153C60.8267 153 55.4541 158.373 55.4541 165C55.4541 171.627 60.8267 177 67.4541 177Z" fill="white"/>
<path d="M67.4541 177C74.0815 177 79.4541 171.627 79.4541 165C79.4541 158.373 74.0815 153 67.4541 153V177Z" fill="#25BB71"/>
<path d="M72.4774 161.439C71.9074 160.869 70.9831 160.869 70.413 161.439L66.3929 165.459L64.4969 163.563C63.9268 162.993 63.0025 162.993 62.4324 163.563C61.8624 164.133 61.8624 165.058 62.4324 165.628L65.3607 168.556C65.6345 168.83 66.0058 168.984 66.393 168.984C66.7802 168.984 67.1515 168.83 67.4252 168.556L72.4775 163.504C73.0476 162.934 73.0476 162.009 72.4774 161.439Z" fill="white"/>
<path d="M70.4131 161.443L67.4502 164.406V168.535L72.4775 163.508C73.0476 162.938 73.0476 162.013 72.4775 161.443C71.9076 160.873 70.9832 160.873 70.4131 161.443Z" fill="#F0F7FE"/>
<defs>
<filter id="filter0_dd_37796_11058" x="6" y="9" width="100" height="100" filterUnits="userSpaceOnUse" color-interpolation-filters="sRGB">
<feFlood flood-opacity="0" result="BackgroundImageFix"/>
<feColorMatrix in="SourceAlpha" type="matrix" values="0 0 0 0 0 0 0 0 0 0 0 0 0 0 0 0 0 0 127 0" result="hardAlpha"/>
<feOffset dy="3"/>
<feGaussianBlur stdDeviation="5"/>
<feColorMatrix type="matrix" values="0 0 0 0 0.516667 0 0 0 0 0.578358 0 0 0 0 0.775 0 0 0 0.12 0"/>
<feBlend mode="normal" in2="BackgroundImageFix" result="effect1_dropShadow_37796_11058"/>
<feColorMatrix in="SourceAlpha" type="matrix" values="0 0 0 0 0 0 0 0 0 0 0 0 0 0 0 0 0 0 127 0" result="hardAlpha"/>
<feOffset dy="1"/>
<feGaussianBlur stdDeviation="3"/>
<feColorMatrix type="matrix" values="0 0 0 0 0.709809 0 0 0 0 0.788943 0 0 0 0 0.920833 0 0 0 0.15 0"/>
<feBlend mode="normal" in2="effect1_dropShadow_37796_11058" result="effect2_dropShadow_37796_11058"/>
<feBlend mode="normal" in="SourceGraphic" in2="effect2_dropShadow_37796_11058" result="shape"/>
</filter>
</defs>
</svg>
