<svg width="112" height="208" viewBox="0 0 112 208" fill="none" xmlns="http://www.w3.org/2000/svg">
<rect x="0.5" y="0.5" width="111" height="207" rx="4.5" stroke="#9747FF" stroke-dasharray="10 5"/>
<g filter="url(#filter0_d_33035_65797)">
<rect x="16" y="16" width="80" height="80" rx="8" fill="white"/>
</g>
<path d="M41 40C41 36.6863 43.6863 34 47 34H57V77H47C43.6863 77 41 74.3137 41 71V40Z" fill="#B6D7FC"/>
<path d="M57 34H79C82.3137 34 85 36.6863 85 40V71C85 74.3137 82.3137 77 79 77H57V34Z" fill="#9DC9FB"/>
<path d="M83 74C84.1046 74 85 74.8954 85 76V80C85 81.1046 84.1046 82 83 82L43 82C41.8954 82 41 81.1046 41 80L41 76C41 74.8954 41.8954 74 43 74L83 74Z" fill="#0965CD"/>
<path d="M43 66C43 68.2091 41.2091 70 39 70C36.7909 70 35 68.2091 35 66L35 42C35 39.7909 36.7909 38 39 38C41.2091 38 43 39.7909 43 42L43 66Z" fill="#157DF5"/>
<path d="M31 52H35V56H31V52Z" fill="#9DC9FB"/>
<path d="M27 48C27 46.8954 27.8954 46 29 46C30.1046 46 31 46.8954 31 48V60C31 61.1046 30.1046 62 29 62C27.8954 62 27 61.1046 27 60V48Z" fill="#B6D7FC"/>
<path d="M52 34C52 31.7909 53.7909 30 56 30H65C67.2091 30 69 31.7909 69 34V36C69 37.1046 68.1046 38 67 38H54C52.8954 38 52 37.1046 52 36V34Z" fill="#0965CD"/>
<path d="M57 74H43C41.8954 74 41 74.8954 41 76V80C41 81.1046 41.8954 82 43 82H57V74Z" fill="#157DF5"/>
<path d="M57 30H56C53.7909 30 52 31.7909 52 34V36C52 37.1046 52.8954 38 54 38H57V30Z" fill="#157DF5"/>
<rect x="75" y="34" width="3" height="40" fill="#E2EFFE"/>
<rect x="85" y="40" width="3" height="10" rx="1.5" transform="rotate(90 85 40)" fill="#157DF5"/>
<rect x="85" y="47" width="3" height="10" rx="1.5" transform="rotate(90 85 47)" fill="#157DF5"/>
<rect x="85" y="54" width="3" height="10" rx="1.5" transform="rotate(90 85 54)" fill="#157DF5"/>
<rect x="85" y="61" width="3" height="10" rx="1.5" transform="rotate(90 85 61)" fill="#157DF5"/>
<rect x="85" y="68" width="3" height="10" rx="1.5" transform="rotate(90 85 68)" fill="#157DF5"/>
<path d="M68 62C69.1046 62 70 62.8954 70 64C70 65.1046 69.1046 66 68 66L50 66C48.8954 66 48 65.1046 48 64C48 62.8954 48.8954 62 50 62L68 62Z" fill="#E2EFFE"/>
<path d="M68 54C69.1046 54 70 54.8954 70 56C70 57.1046 69.1046 58 68 58L50 58C48.8954 58 48 57.1046 48 56C48 54.8954 48.8954 54 50 54L68 54Z" fill="#E2EFFE"/>
<path d="M68 46C69.1046 46 70 46.8954 70 48C70 49.1046 69.1046 50 68 50L50 50C48.8954 50 48 49.1046 48 48C48 46.8954 48.8954 46 50 46L68 46Z" fill="#E2EFFE"/>
<path d="M68 54C69.1046 54 70 54.8954 70 56C70 57.1046 69.1046 58 68 58L57 58L57 54L68 54Z" fill="#B6D7FC"/>
<path d="M68 62C69.1046 62 70 62.8954 70 64C70 65.1046 69.1046 66 68 66L57 66L57 62L68 62Z" fill="#B6D7FC"/>
<path d="M68 46C69.1046 46 70 46.8954 70 48C70 49.1046 69.1046 50 68 50L57 50L57 46L68 46Z" fill="#B6D7FC"/>
<path d="M41 136C41 132.686 43.6863 130 47 130H57V173H47C43.6863 173 41 170.314 41 167V136Z" fill="#B6D7FC"/>
<path d="M57 130H79C82.3137 130 85 132.686 85 136V167C85 170.314 82.3137 173 79 173H57V130Z" fill="#9DC9FB"/>
<path d="M83 170C84.1046 170 85 170.895 85 172V176C85 177.105 84.1046 178 83 178L43 178C41.8954 178 41 177.105 41 176L41 172C41 170.895 41.8954 170 43 170L83 170Z" fill="#0965CD"/>
<path d="M43 162C43 164.209 41.2091 166 39 166C36.7909 166 35 164.209 35 162L35 138C35 135.791 36.7909 134 39 134C41.2091 134 43 135.791 43 138L43 162Z" fill="#157DF5"/>
<path d="M31 148H35V152H31V148Z" fill="#9DC9FB"/>
<path d="M27 144C27 142.895 27.8954 142 29 142C30.1046 142 31 142.895 31 144V156C31 157.105 30.1046 158 29 158C27.8954 158 27 157.105 27 156V144Z" fill="#B6D7FC"/>
<path d="M52 130C52 127.791 53.7909 126 56 126H65C67.2091 126 69 127.791 69 130V132C69 133.105 68.1046 134 67 134H54C52.8954 134 52 133.105 52 132V130Z" fill="#0965CD"/>
<path d="M57 170H43C41.8954 170 41 170.895 41 172V176C41 177.105 41.8954 178 43 178H57V170Z" fill="#157DF5"/>
<path d="M57 126H56C53.7909 126 52 127.791 52 130V132C52 133.105 52.8954 134 54 134H57V126Z" fill="#157DF5"/>
<rect x="75" y="130" width="3" height="40" fill="#E2EFFE"/>
<rect x="85" y="136" width="3" height="10" rx="1.5" transform="rotate(90 85 136)" fill="#157DF5"/>
<rect x="85" y="143" width="3" height="10" rx="1.5" transform="rotate(90 85 143)" fill="#157DF5"/>
<rect x="85" y="150" width="3" height="10" rx="1.5" transform="rotate(90 85 150)" fill="#157DF5"/>
<rect x="85" y="157" width="3" height="10" rx="1.5" transform="rotate(90 85 157)" fill="#157DF5"/>
<rect x="85" y="164" width="3" height="10" rx="1.5" transform="rotate(90 85 164)" fill="#157DF5"/>
<path d="M68 158C69.1046 158 70 158.895 70 160C70 161.105 69.1046 162 68 162L50 162C48.8954 162 48 161.105 48 160C48 158.895 48.8954 158 50 158L68 158Z" fill="#E2EFFE"/>
<path d="M68 150C69.1046 150 70 150.895 70 152C70 153.105 69.1046 154 68 154L50 154C48.8954 154 48 153.105 48 152C48 150.895 48.8954 150 50 150L68 150Z" fill="#E2EFFE"/>
<path d="M68 142C69.1046 142 70 142.895 70 144C70 145.105 69.1046 146 68 146L50 146C48.8954 146 48 145.105 48 144C48 142.895 48.8954 142 50 142L68 142Z" fill="#E2EFFE"/>
<path d="M68 150C69.1046 150 70 150.895 70 152C70 153.105 69.1046 154 68 154L57 154L57 150L68 150Z" fill="#B6D7FC"/>
<path d="M68 158C69.1046 158 70 158.895 70 160C70 161.105 69.1046 162 68 162L57 162L57 158L68 158Z" fill="#B6D7FC"/>
<path d="M68 142C69.1046 142 70 142.895 70 144C70 145.105 69.1046 146 68 146L57 146L57 142L68 142Z" fill="#B6D7FC"/>
<defs>
<filter id="filter0_d_33035_65797" x="10" y="9" width="96" height="96" filterUnits="userSpaceOnUse" color-interpolation-filters="sRGB">
<feFlood flood-opacity="0" result="BackgroundImageFix"/>
<feColorMatrix in="SourceAlpha" type="matrix" values="0 0 0 0 0 0 0 0 0 0 0 0 0 0 0 0 0 0 127 0" result="hardAlpha"/>
<feOffset dx="2" dy="1"/>
<feGaussianBlur stdDeviation="4"/>
<feColorMatrix type="matrix" values="0 0 0 0 0.0392157 0 0 0 0 0.0392157 0 0 0 0 0.0627451 0 0 0 0.08 0"/>
<feBlend mode="normal" in2="BackgroundImageFix" result="effect1_dropShadow_33035_65797"/>
<feBlend mode="normal" in="SourceGraphic" in2="effect1_dropShadow_33035_65797" result="shape"/>
</filter>
</defs>
</svg>
