<svg width="112" height="208" viewBox="0 0 112 208" fill="none" xmlns="http://www.w3.org/2000/svg">
<rect x="0.5" y="0.5" width="111" height="207" rx="4.5" stroke="#9747FF" stroke-dasharray="10 5"/>
<g filter="url(#filter0_d_33035_65841)">
<rect x="16" y="16" width="80" height="80" rx="8" fill="white"/>
</g>
<path d="M41 40C41 36.6863 43.6863 34 47 34H57V77H47C43.6863 77 41 74.3137 41 71V40Z" fill="#EEF1F7"/>
<path d="M57 34H79C82.3137 34 85 36.6863 85 40V71C85 74.3137 82.3137 77 79 77H57V34Z" fill="#DEE5ED"/>
<path d="M83 74C84.1046 74 85 74.8954 85 76V80C85 81.1046 84.1046 82 83 82L43 82C41.8954 82 41 81.1046 41 80L41 76C41 74.8954 41.8954 74 43 74L83 74Z" fill="#BDCBDB"/>
<path d="M43 66C43 68.2091 41.2091 70 39 70C36.7909 70 35 68.2091 35 66L35 42C35 39.7909 36.7909 38 39 38C41.2091 38 43 39.7909 43 42L43 66Z" fill="#CDD8E4"/>
<path d="M31 52H35V56H31V52Z" fill="#BDCBDB"/>
<path d="M27 48C27 46.8954 27.8954 46 29 46C30.1046 46 31 46.8954 31 48V60C31 61.1046 30.1046 62 29 62C27.8954 62 27 61.1046 27 60V48Z" fill="#CDD8E4"/>
<path d="M52 34C52 31.7909 53.7909 30 56 30H65C67.2091 30 69 31.7909 69 34V36C69 37.1046 68.1046 38 67 38H54C52.8954 38 52 37.1046 52 36V34Z" fill="#BDCBDB"/>
<path d="M57 74H43C41.8954 74 41 74.8954 41 76V80C41 81.1046 41.8954 82 43 82H57V74Z" fill="#CDD8E4"/>
<path d="M57 30H56C53.7909 30 52 31.7909 52 34V36C52 37.1046 52.8954 38 54 38H57V30Z" fill="#CDD8E4"/>
<rect x="75" y="34" width="3" height="40" fill="#EEF1F7"/>
<path d="M83.5 40C84.3284 40 85 40.6716 85 41.5C85 42.3284 84.3284 43 83.5 43L76.5 43C75.6716 43 75 42.3284 75 41.5C75 40.6716 75.6716 40 76.5 40L83.5 40Z" fill="#BDCBDB"/>
<path d="M83.5 47C84.3284 47 85 47.6716 85 48.5C85 49.3284 84.3284 50 83.5 50H76.5C75.6716 50 75 49.3284 75 48.5C75 47.6716 75.6716 47 76.5 47L83.5 47Z" fill="#BDCBDB"/>
<path d="M83.5 54C84.3284 54 85 54.6716 85 55.5C85 56.3284 84.3284 57 83.5 57H76.5C75.6716 57 75 56.3284 75 55.5C75 54.6716 75.6716 54 76.5 54H83.5Z" fill="#BDCBDB"/>
<path d="M83.5 61C84.3284 61 85 61.6716 85 62.5C85 63.3284 84.3284 64 83.5 64H76.5C75.6716 64 75 63.3284 75 62.5C75 61.6716 75.6716 61 76.5 61H83.5Z" fill="#BDCBDB"/>
<path d="M83.5 68C84.3284 68 85 68.6716 85 69.5C85 70.3284 84.3284 71 83.5 71H76.5C75.6716 71 75 70.3284 75 69.5C75 68.6716 75.6716 68 76.5 68H83.5Z" fill="#BDCBDB"/>
<path d="M68 62C69.1046 62 70 62.8954 70 64C70 65.1046 69.1046 66 68 66L50 66C48.8954 66 48 65.1046 48 64C48 62.8954 48.8954 62 50 62L68 62Z" fill="#CDD8E4"/>
<path d="M68 54C69.1046 54 70 54.8954 70 56C70 57.1046 69.1046 58 68 58L50 58C48.8954 58 48 57.1046 48 56C48 54.8954 48.8954 54 50 54L68 54Z" fill="#CDD8E4"/>
<path d="M68 46C69.1046 46 70 46.8954 70 48C70 49.1046 69.1046 50 68 50L50 50C48.8954 50 48 49.1046 48 48C48 46.8954 48.8954 46 50 46L68 46Z" fill="#CDD8E4"/>
<path d="M68 54C69.1046 54 70 54.8954 70 56C70 57.1046 69.1046 58 68 58L57 58L57 54L68 54Z" fill="#BDCBDB"/>
<path d="M68 62C69.1046 62 70 62.8954 70 64C70 65.1046 69.1046 66 68 66L57 66L57 62L68 62Z" fill="#BDCBDB"/>
<path d="M68 46C69.1046 46 70 46.8954 70 48C70 49.1046 69.1046 50 68 50L57 50L57 46L68 46Z" fill="#BDCBDB"/>
<path d="M41 136C41 132.686 43.6863 130 47 130H57V173H47C43.6863 173 41 170.314 41 167V136Z" fill="#EEF1F7"/>
<path d="M57 130H79C82.3137 130 85 132.686 85 136V167C85 170.314 82.3137 173 79 173H57V130Z" fill="#DEE5ED"/>
<path d="M83 170C84.1046 170 85 170.895 85 172V176C85 177.105 84.1046 178 83 178L43 178C41.8954 178 41 177.105 41 176L41 172C41 170.895 41.8954 170 43 170L83 170Z" fill="#BDCBDB"/>
<path d="M43 162C43 164.209 41.2091 166 39 166C36.7909 166 35 164.209 35 162L35 138C35 135.791 36.7909 134 39 134C41.2091 134 43 135.791 43 138L43 162Z" fill="#CDD8E4"/>
<path d="M31 148H35V152H31V148Z" fill="#BDCBDB"/>
<path d="M27 144C27 142.895 27.8954 142 29 142C30.1046 142 31 142.895 31 144V156C31 157.105 30.1046 158 29 158C27.8954 158 27 157.105 27 156V144Z" fill="#CDD8E4"/>
<path d="M52 130C52 127.791 53.7909 126 56 126H65C67.2091 126 69 127.791 69 130V132C69 133.105 68.1046 134 67 134H54C52.8954 134 52 133.105 52 132V130Z" fill="#BDCBDB"/>
<path d="M57 170H43C41.8954 170 41 170.895 41 172V176C41 177.105 41.8954 178 43 178H57V170Z" fill="#CDD8E4"/>
<path d="M57 126H56C53.7909 126 52 127.791 52 130V132C52 133.105 52.8954 134 54 134H57V126Z" fill="#CDD8E4"/>
<rect x="75" y="130" width="3" height="40" fill="#EEF1F7"/>
<path d="M83.5 136C84.3284 136 85 136.672 85 137.5C85 138.328 84.3284 139 83.5 139L76.5 139C75.6716 139 75 138.328 75 137.5C75 136.672 75.6716 136 76.5 136L83.5 136Z" fill="#BDCBDB"/>
<path d="M83.5 143C84.3284 143 85 143.672 85 144.5C85 145.328 84.3284 146 83.5 146H76.5C75.6716 146 75 145.328 75 144.5C75 143.672 75.6716 143 76.5 143L83.5 143Z" fill="#BDCBDB"/>
<path d="M83.5 150C84.3284 150 85 150.672 85 151.5C85 152.328 84.3284 153 83.5 153H76.5C75.6716 153 75 152.328 75 151.5C75 150.672 75.6716 150 76.5 150H83.5Z" fill="#BDCBDB"/>
<path d="M83.5 157C84.3284 157 85 157.672 85 158.5C85 159.328 84.3284 160 83.5 160H76.5C75.6716 160 75 159.328 75 158.5C75 157.672 75.6716 157 76.5 157H83.5Z" fill="#BDCBDB"/>
<path d="M83.5 164C84.3284 164 85 164.672 85 165.5C85 166.328 84.3284 167 83.5 167H76.5C75.6716 167 75 166.328 75 165.5C75 164.672 75.6716 164 76.5 164H83.5Z" fill="#BDCBDB"/>
<path d="M68 158C69.1046 158 70 158.895 70 160C70 161.105 69.1046 162 68 162L50 162C48.8954 162 48 161.105 48 160C48 158.895 48.8954 158 50 158L68 158Z" fill="#CDD8E4"/>
<path d="M68 150C69.1046 150 70 150.895 70 152C70 153.105 69.1046 154 68 154L50 154C48.8954 154 48 153.105 48 152C48 150.895 48.8954 150 50 150L68 150Z" fill="#CDD8E4"/>
<path d="M68 142C69.1046 142 70 142.895 70 144C70 145.105 69.1046 146 68 146L50 146C48.8954 146 48 145.105 48 144C48 142.895 48.8954 142 50 142L68 142Z" fill="#CDD8E4"/>
<path d="M68 150C69.1046 150 70 150.895 70 152C70 153.105 69.1046 154 68 154L57 154L57 150L68 150Z" fill="#BDCBDB"/>
<path d="M68 158C69.1046 158 70 158.895 70 160C70 161.105 69.1046 162 68 162L57 162L57 158L68 158Z" fill="#BDCBDB"/>
<path d="M68 142C69.1046 142 70 142.895 70 144C70 145.105 69.1046 146 68 146L57 146L57 142L68 142Z" fill="#BDCBDB"/>
<defs>
<filter id="filter0_d_33035_65841" x="10" y="9" width="96" height="96" filterUnits="userSpaceOnUse" color-interpolation-filters="sRGB">
<feFlood flood-opacity="0" result="BackgroundImageFix"/>
<feColorMatrix in="SourceAlpha" type="matrix" values="0 0 0 0 0 0 0 0 0 0 0 0 0 0 0 0 0 0 127 0" result="hardAlpha"/>
<feOffset dx="2" dy="1"/>
<feGaussianBlur stdDeviation="4"/>
<feColorMatrix type="matrix" values="0 0 0 0 0.0392157 0 0 0 0 0.0392157 0 0 0 0 0.0627451 0 0 0 0.08 0"/>
<feBlend mode="normal" in2="BackgroundImageFix" result="effect1_dropShadow_33035_65841"/>
<feBlend mode="normal" in="SourceGraphic" in2="effect1_dropShadow_33035_65841" result="shape"/>
</filter>
</defs>
</svg>
