<svg width="112" height="208" viewBox="0 0 112 208" fill="none" xmlns="http://www.w3.org/2000/svg">
<rect x="0.5" y="0.5" width="111" height="207" rx="4.5" stroke="#9747FF" stroke-dasharray="10 5"/>
<g filter="url(#filter0_dd_11513_74269)">
<rect x="16" y="16" width="80" height="80" rx="8" fill="white"/>
</g>
<path d="M54.8936 28C55.8101 28 56.5531 28.743 56.5531 29.6596V37.8824H54.8936V28Z" fill="#25BB71"/>
<path d="M53.2344 29.6596C53.2344 28.743 53.9774 28 54.8939 28V37.8824H53.2344V29.6596Z" fill="#40D98D"/>
<path d="M54.8936 29.6484H63.2039C64.1136 29.6484 64.851 30.3858 64.851 31.2955C64.851 32.2051 64.1136 32.9426 63.2039 32.9426H54.8936V29.6484Z" fill="#0965CD"/>
<path d="M44.9365 31.2955C44.9365 30.3859 45.6739 29.6484 46.5836 29.6484H54.894V32.9426H46.5836C45.6739 32.9426 44.9365 32.2051 44.9365 31.2955Z" fill="#157DF5"/>
<path d="M79.7872 59.2932V59.9403C79.7872 60.4925 79.3395 60.9403 78.7872 60.9403H69.1701C68.6179 60.9403 68.1702 60.4925 68.1702 59.9403V59.2932C68.1702 57.477 66.681 55.9991 64.851 55.9991H54.8936V36.2344H59.5319C60.6364 36.2344 61.5319 37.1298 61.5319 38.2344V41.7652C61.5319 42.4811 61.814 43.152 62.3262 43.6549C62.8385 44.1578 63.5167 44.4312 64.2381 44.4236L64.7979 44.417C73.0637 44.417 79.7872 51.0908 79.7872 59.2932Z" fill="#B6D7FC"/>
<path d="M54.894 36.2344V55.9991H36.6387V44.4697H45.1202C46.8495 44.4697 48.2557 43.0741 48.2557 41.3578V38.2344C48.2557 37.1298 49.1511 36.2344 50.2557 36.2344H54.894Z" fill="#E2EFFE"/>
<path d="M82.0002 76.3123C82.0002 80.5508 78.5261 83.9986 74.2555 83.9986L72.3193 74.1163L74.2555 64.0352L75.4725 65.3396C75.5378 65.4088 77.0746 67.0603 78.6335 69.1575C80.8993 72.2046 82.0002 74.5445 82.0002 76.3123Z" fill="#0965CD"/>
<path d="M74.2554 64.0352V83.9986C69.9848 83.9986 66.5107 80.5508 66.5107 76.3123C66.5107 74.5445 67.6116 72.2046 69.8775 69.1575C71.4364 67.0603 72.9731 65.4088 73.0384 65.3396L74.2554 64.0352Z" fill="#157DF5"/>
<path d="M34.4857 39.5273H32C30.8954 39.5273 30 40.4228 30 41.5273V58.9391C30 60.0437 30.8954 60.9391 32 60.9391H34.4857C37.5028 60.9391 39.9574 58.503 39.9574 55.5086V44.9577C39.9574 41.9635 37.5028 39.5273 34.4857 39.5273Z" fill="#157DF5"/>
<path d="M54.8936 124C55.8101 124 56.5531 124.743 56.5531 125.66V133.882H54.8936V124Z" fill="#25BB71"/>
<path d="M53.2344 125.66C53.2344 124.743 53.9774 124 54.8939 124V133.882H53.2344V125.66Z" fill="#40D98D"/>
<path d="M54.8936 125.648H63.2039C64.1136 125.648 64.851 126.386 64.851 127.295C64.851 128.205 64.1136 128.943 63.2039 128.943H54.8936V125.648Z" fill="#0965CD"/>
<path d="M44.9365 127.295C44.9365 126.386 45.6739 125.648 46.5836 125.648H54.894V128.943H46.5836C45.6739 128.943 44.9365 128.205 44.9365 127.295Z" fill="#157DF5"/>
<path d="M79.7872 155.293V155.94C79.7872 156.493 79.3395 156.94 78.7872 156.94H69.1701C68.6179 156.94 68.1702 156.493 68.1702 155.94V155.293C68.1702 153.477 66.681 151.999 64.851 151.999H54.8936V132.234H59.5319C60.6364 132.234 61.5319 133.13 61.5319 134.234V137.765C61.5319 138.481 61.814 139.152 62.3262 139.655C62.8385 140.158 63.5167 140.431 64.2381 140.424L64.7979 140.417C73.0637 140.417 79.7872 147.091 79.7872 155.293Z" fill="#B6D7FC"/>
<path d="M54.894 132.234V151.999H36.6387V140.47H45.1202C46.8495 140.47 48.2557 139.074 48.2557 137.358V134.234C48.2557 133.13 49.1511 132.234 50.2557 132.234H54.894Z" fill="#E2EFFE"/>
<path d="M82.0002 172.312C82.0002 176.551 78.5261 179.999 74.2555 179.999L72.3193 170.116L74.2555 160.035L75.4725 161.34C75.5378 161.409 77.0746 163.06 78.6335 165.158C80.8993 168.205 82.0002 170.544 82.0002 172.312Z" fill="#0965CD"/>
<path d="M74.2554 160.035V179.999C69.9848 179.999 66.5107 176.551 66.5107 172.312C66.5107 170.544 67.6116 168.205 69.8775 165.158C71.4364 163.06 72.9731 161.409 73.0384 161.34L74.2554 160.035Z" fill="#157DF5"/>
<path d="M34.4857 135.527H32C30.8954 135.527 30 136.423 30 137.527V154.939C30 156.044 30.8954 156.939 32 156.939H34.4857C37.5028 156.939 39.9574 154.503 39.9574 151.509V140.958C39.9574 137.963 37.5028 135.527 34.4857 135.527Z" fill="#157DF5"/>
<defs>
<filter id="filter0_dd_11513_74269" x="6" y="9" width="100" height="100" filterUnits="userSpaceOnUse" color-interpolation-filters="sRGB">
<feFlood flood-opacity="0" result="BackgroundImageFix"/>
<feColorMatrix in="SourceAlpha" type="matrix" values="0 0 0 0 0 0 0 0 0 0 0 0 0 0 0 0 0 0 127 0" result="hardAlpha"/>
<feOffset dy="3"/>
<feGaussianBlur stdDeviation="5"/>
<feColorMatrix type="matrix" values="0 0 0 0 0.516667 0 0 0 0 0.578358 0 0 0 0 0.775 0 0 0 0.12 0"/>
<feBlend mode="normal" in2="BackgroundImageFix" result="effect1_dropShadow_11513_74269"/>
<feColorMatrix in="SourceAlpha" type="matrix" values="0 0 0 0 0 0 0 0 0 0 0 0 0 0 0 0 0 0 127 0" result="hardAlpha"/>
<feOffset dy="1"/>
<feGaussianBlur stdDeviation="3"/>
<feColorMatrix type="matrix" values="0 0 0 0 0.709809 0 0 0 0 0.788943 0 0 0 0 0.920833 0 0 0 0.15 0"/>
<feBlend mode="normal" in2="effect1_dropShadow_11513_74269" result="effect2_dropShadow_11513_74269"/>
<feBlend mode="normal" in="SourceGraphic" in2="effect2_dropShadow_11513_74269" result="shape"/>
</filter>
</defs>
</svg>
