<svg width="112" height="208" viewBox="0 0 112 208" fill="none" xmlns="http://www.w3.org/2000/svg">
<rect x="0.5" y="0.5" width="111" height="207" rx="4.5" stroke="#9747FF" stroke-dasharray="10 5"/>
<g filter="url(#filter0_d_49987_11963)">
<rect x="16" y="16" width="80" height="80" rx="8" fill="white"/>
</g>
<g clip-path="url(#clip0_49987_11963)">
<path d="M47.5466 45.2752L30.9233 61.8988C29.2105 63.6117 29.2105 66.3887 30.9233 68.1015L43.9011 81.0795C45.6139 82.7924 48.3908 82.7924 50.1037 81.0795L66.727 64.4559C69.698 61.4848 69.698 56.6677 66.727 53.6967L58.3056 45.2752C55.3346 42.3041 50.5176 42.3041 47.5466 45.2752Z" fill="#F0F7FE"/>
<path d="M82.8917 29.5672C81.1443 27.5597 78.0966 27.4808 76.2469 29.3305C76.015 29.5625 75.8134 29.8132 75.6422 30.0778C74.4332 31.9463 72.3025 32.9748 70.077 32.9714C67.7209 32.9678 65.3638 33.8875 63.5947 35.7314L67.1222 44.8035L76.2714 48.4083C78.0179 46.6618 79.0268 44.2399 79.0301 41.9511C79.0332 39.7087 80.079 37.5731 81.9524 36.3405C82.317 36.1006 82.6547 35.8026 82.9524 35.4467C84.3698 33.7517 84.3422 31.2337 82.8917 29.5672Z" fill="#40D98D"/>
<path d="M76.2729 48.408C78.0194 46.6615 79.0283 44.2396 79.0316 41.9508C79.0347 39.7084 80.0805 37.5728 81.9539 36.3402C82.3185 36.1003 82.6562 35.8023 82.9539 35.4464C84.3713 33.7515 84.3438 31.2335 82.8932 29.567C82.8257 29.4894 82.7555 29.4156 82.6842 29.3438L67.1963 44.8317L76.2729 48.408Z" fill="#25BB71"/>
<path d="M72.7218 57.364L54.75 39.392C54.1191 38.7611 54.1191 37.7384 54.75 37.1076L58.7281 33.1294C59.3589 32.4985 60.3816 32.4985 61.0125 33.1294L78.9842 51.1015C79.6151 51.7323 79.6151 52.755 78.9842 53.3859L75.0061 57.364C74.3753 57.9948 73.3526 57.9948 72.7218 57.364Z" fill="#157DF5"/>
<path d="M54.2476 53.7744C53.8282 53.7744 53.4088 53.6144 53.0888 53.2943L50.897 51.1025C50.257 50.4624 50.257 49.4248 50.897 48.7847C51.5369 48.1447 52.5747 48.1447 53.2147 48.7847L55.4065 50.9766C56.0466 51.6166 56.0466 52.6543 55.4065 53.2943C55.0865 53.6144 54.6671 53.7744 54.2476 53.7744Z" fill="#157DF5"/>
<path d="M49.3848 58.6338C48.9654 58.6338 48.546 58.4738 48.2261 58.1537L46.0342 55.9618C45.3942 55.3218 45.3942 54.2841 46.0342 53.6441C46.6741 53.0041 47.7119 53.0041 48.3519 53.6441L50.5437 55.836C51.1838 56.476 51.1838 57.5136 50.5437 58.1537C50.2237 58.4738 49.8043 58.6338 49.3848 58.6338Z" fill="#40D98D"/>
<path d="M44.5255 63.501C44.106 63.501 43.6866 63.341 43.3667 63.0209L41.1748 60.829C40.5348 60.189 40.5348 59.1513 41.1748 58.5113C41.8148 57.8712 42.8525 57.8712 43.4925 58.5113L45.6844 60.7031C46.3244 61.3432 46.3244 62.3808 45.6844 63.0209C45.3642 63.3409 44.9448 63.501 44.5255 63.501Z" fill="#157DF5"/>
<path d="M39.6641 68.3524C39.2447 68.3524 38.8253 68.1925 38.5053 67.8724L36.3135 65.6805C35.6735 65.0405 35.6735 64.0028 36.3135 63.3628C36.9536 62.7228 37.9913 62.7228 38.6312 63.3628L40.823 65.5546C41.4631 66.1947 41.4631 67.2323 40.823 67.8724C40.503 68.1924 40.0835 68.3524 39.6641 68.3524Z" fill="#40D98D"/>
<path d="M72.7213 57.3619C73.352 57.9928 74.3748 57.9928 75.0056 57.3619L78.9837 53.3837C79.6145 52.753 79.6145 51.7302 78.9837 51.0993L69.9548 42.0703L63.6924 48.3329L72.7213 57.3619Z" fill="#0965CD"/>
<path d="M43.8999 81.0792C45.6128 82.7921 48.3897 82.7921 50.1025 81.0792L66.7258 64.4556C69.6968 61.4845 69.6968 56.6675 66.7258 53.6965L62.5294 49.5L37.4253 74.6046L43.8999 81.0792Z" fill="#E2EFFE"/>
<path d="M47.0026 84.0014C45.3933 84.0014 43.8804 83.3746 42.7425 82.2367L29.7646 69.2587C28.6267 68.1208 28 66.6077 28 64.9984C28 63.3891 28.6267 61.8761 29.7646 60.7382L46.3879 44.1146C48.1343 42.3681 50.4564 41.4062 52.9263 41.4062C55.3961 41.4062 57.7181 42.3681 59.4646 44.1146L67.886 52.5361C71.4912 56.1415 71.4912 62.0078 67.886 65.6131L51.2627 82.2367C50.1248 83.3746 48.6118 84.0014 47.0026 84.0014ZM52.9264 44.684C51.332 44.684 49.833 45.305 48.7057 46.4323L32.0823 63.0559C31.5635 63.5748 31.2777 64.2646 31.2777 64.9984C31.2777 65.7322 31.5635 66.4221 32.0823 66.941L45.0601 79.919C45.579 80.4379 46.2687 80.7236 47.0025 80.7236C47.7363 80.7236 48.426 80.4377 48.9449 79.919L65.5684 63.2954C67.8956 60.9681 67.8956 57.1812 65.5684 54.8539L57.147 46.4323C56.0196 45.305 54.5207 44.684 52.9264 44.684Z" fill="#E2EFFE"/>
<path d="M47.0018 83.9976C48.6111 83.9976 50.124 83.3709 51.2619 82.233L67.8852 65.6094C71.4904 62.004 71.4904 56.1378 67.8852 52.5324L63.6888 48.3359L61.3711 50.6537L65.5675 54.8501C67.8947 57.1775 67.8947 60.9643 65.5675 63.2917L48.9442 79.9152C48.4253 80.4341 47.7356 80.7198 47.0018 80.7198C46.268 80.7198 45.5783 80.434 45.0594 79.9152L38.5848 73.4405L36.2671 75.7582L42.7417 82.233C43.8796 83.3709 45.3925 83.9976 47.0018 83.9976Z" fill="#B6D7FC"/>
</g>
<g clip-path="url(#clip1_49987_11963)">
<path d="M81.0001 68.998C81.0001 75.6255 75.6276 80.998 69.0003 80.998C62.373 80.998 57.0005 75.6255 57.0005 68.998C57.0005 62.3706 62.373 56.998 69.0003 56.998C75.6276 56.998 81.0001 62.3706 81.0001 68.998Z" fill="white"/>
<path d="M69 80.998C75.6273 80.998 80.9998 75.6255 80.9998 68.998C80.9998 62.3706 75.6273 56.998 69 56.998V80.998Z" fill="#F0F7FE"/>
<path fill-rule="evenodd" clip-rule="evenodd" d="M81.0001 68.9961C81.0001 75.6235 75.6276 80.9961 69.0003 80.9961C62.373 80.9961 57.0005 75.6235 57.0005 68.9961C57.0005 62.3687 62.373 56.9961 69.0003 56.9961C75.6276 56.9961 81.0001 62.3687 81.0001 68.9961ZM78.0001 68.9961C78.0001 73.9667 73.9708 77.9961 69.0003 77.9961C67.347 77.9961 65.7979 77.5503 64.4665 76.7724L76.7764 64.4622C77.5543 65.7936 78.0001 67.3428 78.0001 68.9961ZM62.1559 74.8404L74.8445 62.1516C73.272 60.8076 71.2309 59.9961 69.0003 59.9961C64.0298 59.9961 60.0004 64.0255 60.0004 68.9961C60.0004 71.2268 60.812 73.2679 62.1559 74.8404Z" fill="#F54B5E"/>
<path fill-rule="evenodd" clip-rule="evenodd" d="M84 68.9961C84 77.2804 77.2844 83.9961 69.0002 83.9961C60.7161 83.9961 54.0005 77.2804 54.0005 68.9961C54.0005 60.7118 60.7161 53.9961 69.0002 53.9961C77.2844 53.9961 84 60.7118 84 68.9961ZM69.0002 80.9961C75.6275 80.9961 81 75.6235 81 68.9961C81 62.3687 75.6275 56.9961 69.0002 56.9961C62.3729 56.9961 57.0004 62.3687 57.0004 68.9961C57.0004 75.6235 62.3729 80.9961 69.0002 80.9961Z" fill="white"/>
<path d="M69 80.9961C75.6273 80.9961 80.9998 75.6235 80.9998 68.9961C80.9998 62.3687 75.6273 56.9961 69 56.9961V59.9961C71.2307 59.9961 73.2718 60.8076 74.8442 62.1516L69 67.9959V72.2385L76.7761 64.4622C77.5541 65.7936 77.9998 67.3428 77.9998 68.9961C77.9998 73.9667 73.9705 77.9961 69 77.9961V80.9961Z" fill="#F3263D"/>
</g>
<g clip-path="url(#clip2_49987_11963)">
<path d="M47.5466 141.275L30.9233 157.899C29.2105 159.612 29.2105 162.389 30.9233 164.101L43.9011 177.079C45.6139 178.792 48.3908 178.792 50.1037 177.079L66.727 160.456C69.698 157.485 69.698 152.668 66.727 149.697L58.3056 141.275C55.3346 138.304 50.5176 138.304 47.5466 141.275Z" fill="#F0F7FE"/>
<path d="M82.8917 125.567C81.1443 123.56 78.0966 123.481 76.2469 125.331C76.015 125.562 75.8134 125.813 75.6422 126.078C74.4332 127.946 72.3025 128.975 70.077 128.971C67.7209 128.968 65.3638 129.888 63.5947 131.731L67.1222 140.803L76.2714 144.408C78.0179 142.662 79.0268 140.24 79.0301 137.951C79.0332 135.709 80.079 133.573 81.9524 132.341C82.317 132.101 82.6547 131.803 82.9524 131.447C84.3698 129.752 84.3422 127.234 82.8917 125.567Z" fill="#40D98D"/>
<path d="M76.2729 144.408C78.0194 142.661 79.0283 140.24 79.0316 137.951C79.0347 135.708 80.0805 133.573 81.9539 132.34C82.3185 132.1 82.6562 131.802 82.9539 131.446C84.3713 129.752 84.3438 127.234 82.8932 125.567C82.8257 125.489 82.7555 125.416 82.6842 125.344L67.1963 140.832L76.2729 144.408Z" fill="#25BB71"/>
<path d="M72.7218 153.364L54.75 135.392C54.1191 134.761 54.1191 133.738 54.75 133.108L58.7281 129.129C59.3589 128.499 60.3816 128.499 61.0125 129.129L78.9842 147.101C79.6151 147.732 79.6151 148.755 78.9842 149.386L75.0061 153.364C74.3753 153.995 73.3526 153.995 72.7218 153.364Z" fill="#157DF5"/>
<path d="M54.2476 149.774C53.8282 149.774 53.4088 149.614 53.0888 149.294L50.897 147.102C50.257 146.462 50.257 145.425 50.897 144.785C51.5369 144.145 52.5747 144.145 53.2147 144.785L55.4065 146.977C56.0466 147.617 56.0466 148.654 55.4065 149.294C55.0865 149.614 54.6671 149.774 54.2476 149.774Z" fill="#157DF5"/>
<path d="M49.3848 154.634C48.9654 154.634 48.546 154.474 48.2261 154.154L46.0342 151.962C45.3942 151.322 45.3942 150.284 46.0342 149.644C46.6741 149.004 47.7119 149.004 48.3519 149.644L50.5437 151.836C51.1838 152.476 51.1838 153.514 50.5437 154.154C50.2237 154.474 49.8043 154.634 49.3848 154.634Z" fill="#40D98D"/>
<path d="M44.5255 159.501C44.106 159.501 43.6866 159.341 43.3667 159.021L41.1748 156.829C40.5348 156.189 40.5348 155.151 41.1748 154.511C41.8148 153.871 42.8525 153.871 43.4925 154.511L45.6844 156.703C46.3244 157.343 46.3244 158.381 45.6844 159.021C45.3642 159.341 44.9448 159.501 44.5255 159.501Z" fill="#157DF5"/>
<path d="M39.6641 164.352C39.2447 164.352 38.8253 164.192 38.5053 163.872L36.3135 161.68C35.6735 161.04 35.6735 160.003 36.3135 159.363C36.9536 158.723 37.9913 158.723 38.6312 159.363L40.823 161.555C41.4631 162.195 41.4631 163.232 40.823 163.872C40.503 164.192 40.0835 164.352 39.6641 164.352Z" fill="#40D98D"/>
<path d="M72.7213 153.362C73.352 153.993 74.3748 153.993 75.0056 153.362L78.9837 149.384C79.6145 148.753 79.6145 147.73 78.9837 147.099L69.9548 138.07L63.6924 144.333L72.7213 153.362Z" fill="#0965CD"/>
<path d="M43.8999 177.079C45.6128 178.792 48.3897 178.792 50.1025 177.079L66.7258 160.456C69.6968 157.485 69.6968 152.667 66.7258 149.696L62.5294 145.5L37.4253 170.605L43.8999 177.079Z" fill="#E2EFFE"/>
<path d="M47.0026 180.001C45.3933 180.001 43.8804 179.375 42.7425 178.237L29.7646 165.259C28.6267 164.121 28 162.608 28 160.998C28 159.389 28.6267 157.876 29.7646 156.738L46.3879 140.115C48.1343 138.368 50.4564 137.406 52.9263 137.406C55.3961 137.406 57.7181 138.368 59.4646 140.115L67.886 148.536C71.4912 152.141 71.4912 158.008 67.886 161.613L51.2627 178.237C50.1248 179.375 48.6118 180.001 47.0026 180.001ZM52.9264 140.684C51.332 140.684 49.833 141.305 48.7057 142.432L32.0823 159.056C31.5635 159.575 31.2777 160.265 31.2777 160.998C31.2777 161.732 31.5635 162.422 32.0823 162.941L45.0601 175.919C45.579 176.438 46.2687 176.724 47.0025 176.724C47.7363 176.724 48.426 176.438 48.9449 175.919L65.5684 159.295C67.8956 156.968 67.8956 153.181 65.5684 150.854L57.147 142.432C56.0196 141.305 54.5207 140.684 52.9264 140.684Z" fill="#E2EFFE"/>
<path d="M47.0018 179.998C48.6111 179.998 50.124 179.371 51.2619 178.233L67.8852 161.609C71.4904 158.004 71.4904 152.138 67.8852 148.532L63.6888 144.336L61.3711 146.654L65.5675 150.85C67.8947 153.177 67.8947 156.964 65.5675 159.292L48.9442 175.915C48.4253 176.434 47.7356 176.72 47.0018 176.72C46.268 176.72 45.5783 176.434 45.0594 175.915L38.5848 169.44L36.2671 171.758L42.7417 178.233C43.8796 179.371 45.3925 179.998 47.0018 179.998Z" fill="#B6D7FC"/>
</g>
<g clip-path="url(#clip3_49987_11963)">
<path d="M81.0001 164.998C81.0001 171.625 75.6276 176.998 69.0003 176.998C62.373 176.998 57.0005 171.625 57.0005 164.998C57.0005 158.371 62.373 152.998 69.0003 152.998C75.6276 152.998 81.0001 158.371 81.0001 164.998Z" fill="white"/>
<path d="M69 176.998C75.6273 176.998 80.9998 171.625 80.9998 164.998C80.9998 158.371 75.6273 152.998 69 152.998V176.998Z" fill="#F0F7FE"/>
<path fill-rule="evenodd" clip-rule="evenodd" d="M81.0001 164.996C81.0001 171.624 75.6276 176.996 69.0003 176.996C62.373 176.996 57.0005 171.624 57.0005 164.996C57.0005 158.369 62.373 152.996 69.0003 152.996C75.6276 152.996 81.0001 158.369 81.0001 164.996ZM78.0001 164.996C78.0001 169.967 73.9708 173.996 69.0003 173.996C67.347 173.996 65.7979 173.55 64.4665 172.772L76.7764 160.462C77.5543 161.794 78.0001 163.343 78.0001 164.996ZM62.1559 170.84L74.8445 158.152C73.272 156.808 71.2309 155.996 69.0003 155.996C64.0298 155.996 60.0004 160.026 60.0004 164.996C60.0004 167.227 60.812 169.268 62.1559 170.84Z" fill="#F54B5E"/>
<path fill-rule="evenodd" clip-rule="evenodd" d="M84 164.996C84 173.28 77.2844 179.996 69.0002 179.996C60.7161 179.996 54.0005 173.28 54.0005 164.996C54.0005 156.712 60.7161 149.996 69.0002 149.996C77.2844 149.996 84 156.712 84 164.996ZM69.0002 176.996C75.6275 176.996 81 171.624 81 164.996C81 158.369 75.6275 152.996 69.0002 152.996C62.3729 152.996 57.0004 158.369 57.0004 164.996C57.0004 171.624 62.3729 176.996 69.0002 176.996Z" fill="white"/>
<path d="M69 176.996C75.6273 176.996 80.9998 171.624 80.9998 164.996C80.9998 158.369 75.6273 152.996 69 152.996V155.996C71.2307 155.996 73.2718 156.808 74.8442 158.152L69 163.996V168.239L76.7761 160.462C77.5541 161.794 77.9998 163.343 77.9998 164.996C77.9998 169.967 73.9705 173.996 69 173.996V176.996Z" fill="#F3263D"/>
</g>
<defs>
<filter id="filter0_d_49987_11963" x="10" y="9" width="96" height="96" filterUnits="userSpaceOnUse" color-interpolation-filters="sRGB">
<feFlood flood-opacity="0" result="BackgroundImageFix"/>
<feColorMatrix in="SourceAlpha" type="matrix" values="0 0 0 0 0 0 0 0 0 0 0 0 0 0 0 0 0 0 127 0" result="hardAlpha"/>
<feOffset dx="2" dy="1"/>
<feGaussianBlur stdDeviation="4"/>
<feColorMatrix type="matrix" values="0 0 0 0 0.0392157 0 0 0 0 0.0392157 0 0 0 0 0.0627451 0 0 0 0.08 0"/>
<feBlend mode="normal" in2="BackgroundImageFix" result="effect1_dropShadow_49987_11963"/>
<feBlend mode="normal" in="SourceGraphic" in2="effect1_dropShadow_49987_11963" result="shape"/>
</filter>
<clipPath id="clip0_49987_11963">
<rect width="55.999" height="56" fill="white" transform="translate(28 28)"/>
</clipPath>
<clipPath id="clip1_49987_11963">
<rect width="29.9995" height="30" fill="white" transform="translate(54.0005 53.9961)"/>
</clipPath>
<clipPath id="clip2_49987_11963">
<rect width="55.999" height="56" fill="white" transform="translate(28 124)"/>
</clipPath>
<clipPath id="clip3_49987_11963">
<rect width="29.9995" height="30" fill="white" transform="translate(54.0005 149.996)"/>
</clipPath>
</defs>
</svg>
