<svg width="112" height="208" viewBox="0 0 112 208" fill="none" xmlns="http://www.w3.org/2000/svg">
<rect x="0.5" y="0.5" width="111" height="207" rx="4.5" stroke="#9747FF" stroke-dasharray="10 5"/>
<g filter="url(#filter0_d_6367_25899)">
<rect x="16" y="16" width="80" height="80" rx="8" fill="white"/>
</g>
<path d="M74.6547 55.5518C74.6556 59.9808 71.066 63.5717 66.6371 63.5727C62.2086 63.5731 58.6176 59.9831 58.6172 55.5546C58.6172 51.1257 62.2072 47.5352 66.6362 47.5352C71.0642 47.5342 74.6547 51.1238 74.6547 55.5518Z" fill="#FEE048"/>
<path d="M69.2278 60.4832C67.7092 60.4906 66.2379 61.0179 65.0558 61.9782C65.9318 56.7151 63.8618 51.3932 59.6694 48.1281C55.4766 44.8635 49.8406 44.1847 45.0014 46.3613C40.1623 48.5383 36.9042 53.2183 36.5223 58.5411C36.2685 58.5164 36.0255 58.4669 35.7639 58.4669C31.4761 58.4669 28 61.9665 28 66.2843C28 70.6015 31.4761 74.1016 35.7639 74.1016H69.2353C72.9716 74.1016 76 71.0518 76 67.2903C76 63.5287 72.9716 60.4794 69.2353 60.4794L69.2278 60.4832Z" fill="#E2EFFE"/>
<path d="M62.9375 39.1891C62.5966 38.2517 61.5603 37.7684 60.6229 38.1093C59.6855 38.4501 59.2017 39.4864 59.543 40.4238L60.6595 43.4902C61.0004 44.4271 62.0363 44.9105 62.9732 44.5691C63.9101 44.2283 64.3934 43.1924 64.0521 42.2555L62.9375 39.1891Z" fill="#FEE048"/>
<path d="M82.5036 55.6142L79.2911 55.0512C78.3088 54.878 77.3728 55.5336 77.1996 56.5159C77.0264 57.4977 77.682 58.4341 78.6643 58.6073L81.8769 59.1699C82.8614 59.3431 83.8002 58.6852 83.9729 57.7007C84.1461 56.7161 83.4882 55.7778 82.5036 55.6046V55.6142Z" fill="#FEE048"/>
<path d="M78.3937 49.9529L81.2086 48.3219C82.0718 47.823 82.3673 46.7189 81.8683 45.8553C81.369 44.9921 80.2648 44.6966 79.4017 45.196L76.5772 46.8284C75.8593 47.2329 75.5065 48.0727 75.72 48.869C75.9335 49.6652 76.6592 50.2155 77.4834 50.2063C77.8041 50.2054 78.1189 50.1179 78.3937 49.9529Z" fill="#FEE048"/>
<path d="M72.6585 38.1191C71.7211 37.7823 70.6875 38.2639 70.3425 39.198L69.2297 42.2644C68.8902 43.2004 69.3731 44.2354 70.3086 44.5762C70.507 44.6477 70.7155 44.6844 70.9262 44.6848C71.6822 44.6811 72.3561 44.2074 72.615 43.4973L73.7278 40.4327C74.07 39.4986 73.5913 38.4636 72.6585 38.1191Z" fill="#FEE048"/>
<path d="M52 74.1015H69.2353C72.9716 74.1015 76 71.0518 76 67.2902C76 63.5287 72.9716 60.4794 69.2353 60.4794L69.2278 60.4831C67.7092 60.4906 66.2379 61.0178 65.0558 61.9782C65.9318 56.715 63.8618 51.3932 59.6694 48.1281C57.4143 46.3722 54.7416 45.3643 52 45.1465V74.1015Z" fill="#B6D7FC"/>
<path d="M74.6547 151.552C74.6556 155.981 71.066 159.572 66.6371 159.573C62.2086 159.573 58.6176 155.983 58.6172 151.555C58.6172 147.126 62.2072 143.535 66.6362 143.535C71.0642 143.534 74.6547 147.124 74.6547 151.552Z" fill="#FEE048"/>
<path d="M69.2278 156.483C67.7092 156.491 66.2379 157.018 65.0558 157.978C65.9318 152.715 63.8618 147.393 59.6694 144.128C55.4766 140.863 49.8406 140.185 45.0014 142.361C40.1623 144.538 36.9042 149.218 36.5223 154.541C36.2685 154.516 36.0255 154.467 35.7639 154.467C31.4761 154.467 28 157.967 28 162.284C28 166.602 31.4761 170.102 35.7639 170.102H69.2353C72.9716 170.102 76 167.052 76 163.29C76 159.529 72.9716 156.479 69.2353 156.479L69.2278 156.483Z" fill="#E2EFFE"/>
<path d="M62.9375 135.189C62.5966 134.252 61.5603 133.768 60.6229 134.109C59.6855 134.45 59.2017 135.486 59.543 136.424L60.6595 139.49C61.0004 140.427 62.0363 140.91 62.9732 140.569C63.9101 140.228 64.3934 139.192 64.0521 138.255L62.9375 135.189Z" fill="#FEE048"/>
<path d="M82.5036 151.614L79.2911 151.051C78.3088 150.878 77.3728 151.534 77.1996 152.516C77.0264 153.498 77.682 154.434 78.6643 154.607L81.8769 155.17C82.8614 155.343 83.8002 154.685 83.9729 153.701C84.1461 152.716 83.4882 151.778 82.5036 151.605V151.614Z" fill="#FEE048"/>
<path d="M78.3937 145.953L81.2086 144.322C82.0718 143.823 82.3673 142.719 81.8683 141.855C81.369 140.992 80.2648 140.697 79.4017 141.196L76.5772 142.828C75.8593 143.233 75.5065 144.073 75.72 144.869C75.9335 145.665 76.6592 146.215 77.4834 146.206C77.8041 146.205 78.1189 146.118 78.3937 145.953Z" fill="#FEE048"/>
<path d="M72.6585 134.119C71.7211 133.782 70.6875 134.264 70.3425 135.198L69.2297 138.264C68.8902 139.2 69.3731 140.235 70.3086 140.576C70.507 140.648 70.7155 140.684 70.9262 140.685C71.6822 140.681 72.3561 140.207 72.615 139.497L73.7278 136.433C74.07 135.499 73.5913 134.464 72.6585 134.119Z" fill="#FEE048"/>
<path d="M52 170.102H69.2353C72.9716 170.102 76 167.052 76 163.29C76 159.529 72.9716 156.479 69.2353 156.479L69.2278 156.483C67.7092 156.491 66.2379 157.018 65.0558 157.978C65.9318 152.715 63.8618 147.393 59.6694 144.128C57.4143 142.372 54.7416 141.364 52 141.146V170.102Z" fill="#B6D7FC"/>
<defs>
<filter id="filter0_d_6367_25899" x="10" y="9" width="96" height="96" filterUnits="userSpaceOnUse" color-interpolation-filters="sRGB">
<feFlood flood-opacity="0" result="BackgroundImageFix"/>
<feColorMatrix in="SourceAlpha" type="matrix" values="0 0 0 0 0 0 0 0 0 0 0 0 0 0 0 0 0 0 127 0" result="hardAlpha"/>
<feOffset dx="2" dy="1"/>
<feGaussianBlur stdDeviation="4"/>
<feColorMatrix type="matrix" values="0 0 0 0 0.0392157 0 0 0 0 0.0392157 0 0 0 0 0.0627451 0 0 0 0.08 0"/>
<feBlend mode="normal" in2="BackgroundImageFix" result="effect1_dropShadow_6367_25899"/>
<feBlend mode="normal" in="SourceGraphic" in2="effect1_dropShadow_6367_25899" result="shape"/>
</filter>
</defs>
</svg>
