<svg width="112" height="208" viewBox="0 0 112 208" fill="none" xmlns="http://www.w3.org/2000/svg">
<rect x="0.5" y="0.5" width="111" height="207" rx="4.5" stroke="#9747FF" stroke-dasharray="10 5"/>
<g filter="url(#filter0_d_22783_11808)">
<rect x="16" y="16" width="80" height="80" rx="8" fill="white"/>
</g>
<path d="M57.9751 41.8598C56.4823 39.7761 53.1822 38.7012 52.7811 38.5764C42.6972 35.4519 33.6468 46.7052 40.076 56.2862C40.4119 56.7873 40.787 57.2564 41.1971 57.6602C43.0817 55.7607 45.6367 54.8382 47.9062 54.907L48.5449 54.9147C48.4419 54.1986 48.3437 53.6244 48.3437 52.7187C48.3437 47.1294 52.5576 42.5062 57.9751 41.8598Z" fill="#FEE048"/>
<path d="M72.4058 74.0464H47.7969C42.3691 74.0464 37.9531 69.6308 37.9531 64.2031C37.9531 58.7139 42.4597 54.2923 47.9131 54.3598C46.9193 47.4153 52.3201 41.2344 59.2812 41.2344C65.102 41.2344 69.9252 45.5876 70.6665 51.2093C77.6592 50.1437 83.8902 55.5817 83.8902 62.5625C83.8902 68.8947 78.7384 74.0464 72.4058 74.0464Z" fill="#E2EFFE"/>
<path d="M70.6669 51.2093C69.9252 45.5876 65.102 41.2344 59.2812 41.2344V74.0464H72.4058C78.7389 74.0464 83.8902 68.8951 83.8902 62.5625C83.8902 55.5821 77.6592 50.1437 70.6669 51.2093Z" fill="#B6D7FC"/>
<path d="M45.3322 83.8356C44.5166 83.4409 44.1752 82.4599 44.57 81.6443L46.2106 78.2537C46.6054 77.4376 47.5863 77.0967 48.402 77.4915C49.2176 77.8858 49.5589 78.8672 49.1642 79.6828L47.5235 83.0734C47.1292 83.8886 46.1482 84.2304 45.3322 83.8356Z" fill="#157DF5"/>
<path d="M53.6447 83.8356C52.8291 83.4409 52.4877 82.4599 52.8825 81.6443L54.5231 78.2537C54.9175 77.4376 55.8988 77.0967 56.7145 77.4915C57.5301 77.8858 57.8714 78.8672 57.4767 79.6828L55.836 83.0734C55.4417 83.8886 54.4607 84.2304 53.6447 83.8356Z" fill="#157DF5"/>
<path d="M61.9572 83.8356C61.1416 83.4409 60.8002 82.4599 61.195 81.6443L62.8356 78.2537C63.23 77.4376 64.2113 77.0967 65.027 77.4915C65.8426 77.8858 66.1835 78.8672 65.7892 79.6828L64.1485 83.0734C63.7542 83.8886 62.7732 84.2304 61.9572 83.8356Z" fill="#0965CD"/>
<path d="M70.2697 83.8356C69.4541 83.4409 69.1127 82.4599 69.5075 81.6443L71.1481 78.2537C71.5425 77.4376 72.5238 77.0967 73.3395 77.4915C74.1551 77.8858 74.496 78.8672 74.1017 79.6828L72.461 83.0734C72.0667 83.8886 71.0857 84.2304 70.2697 83.8356Z" fill="#0965CD"/>
<path d="M32.9219 51.0781H29.6406C28.7344 51.0781 28 50.3433 28 49.4375C28 48.5313 28.7344 47.7969 29.6406 47.7969H32.9219C33.8281 47.7969 34.5625 48.5313 34.5625 49.4375C34.5625 50.3433 33.8281 51.0781 32.9219 51.0781Z" fill="#FEE048"/>
<path d="M49.3281 34.6719C48.4219 34.6719 47.6875 33.9374 47.6875 33.0312V29.6406C47.6875 28.7344 48.4219 28 49.3281 28C50.2339 28 50.9687 28.7344 50.9687 29.6406V33.0312C50.9687 33.9374 50.2339 34.6719 49.3281 34.6719Z" fill="#FEE048"/>
<path d="M39.6839 36.0843L37.9885 33.1478C37.5357 32.363 37.8044 31.3598 38.5892 30.9065C39.3741 30.4536 40.3773 30.7224 40.8302 31.5072L42.5255 34.4437C42.9788 35.2281 42.7096 36.2317 41.9252 36.6846C41.1408 37.1375 40.1372 36.8692 39.6839 36.0843Z" fill="#FEE048"/>
<path d="M34.2796 42.7298L31.3432 41.0344C30.5583 40.5816 30.2896 39.578 30.7424 38.7935C31.1958 38.0087 32.1989 37.7395 32.9838 38.1928L35.9202 39.8881C36.7047 40.3415 36.9734 41.3446 36.5205 42.1295C36.0672 42.9143 35.0636 43.1826 34.2796 42.7298Z" fill="#FEE048"/>
<path d="M30.7971 60.2853C30.3443 59.5009 30.613 58.4973 31.3978 58.0444L34.3343 56.3491C35.1187 55.8958 36.1223 56.165 36.5752 56.9494C37.0281 57.7342 36.7594 58.7378 35.9749 59.1907L33.0385 60.886C32.254 61.3389 31.2504 61.0706 30.7971 60.2853Z" fill="#FEE048"/>
<path d="M56.7455 36.6299C55.9606 36.177 55.6919 35.1734 56.1448 34.389L57.8401 31.4525C58.2934 30.6677 59.2966 30.3989 60.0814 30.8518C60.8663 31.3051 61.135 32.3083 60.6817 33.0932L58.9864 36.0296C58.5331 36.8145 57.5295 37.0828 56.7455 36.6299Z" fill="#FEE048"/>
<path d="M60.6822 33.0937L59.2812 35.5197V30.6328C59.5534 30.6349 59.8281 30.7059 60.0819 30.8524C60.8659 31.3053 61.1351 32.3085 60.6822 33.0937Z" fill="#FED601"/>
<path d="M57.9751 137.86C56.4823 135.776 53.1822 134.701 52.7811 134.576C42.6972 131.452 33.6468 142.705 40.076 152.286C40.4119 152.787 40.787 153.256 41.1971 153.66C43.0817 151.761 45.6367 150.838 47.9062 150.907L48.5449 150.915C48.4419 150.199 48.3437 149.624 48.3437 148.719C48.3437 143.129 52.5576 138.506 57.9751 137.86Z" fill="#FEE048"/>
<path d="M72.4058 170.046H47.7969C42.3691 170.046 37.9531 165.631 37.9531 160.203C37.9531 154.714 42.4597 150.292 47.9131 150.36C46.9193 143.415 52.3201 137.234 59.2812 137.234C65.102 137.234 69.9252 141.588 70.6665 147.209C77.6592 146.144 83.8902 151.582 83.8902 158.562C83.8902 164.895 78.7384 170.046 72.4058 170.046Z" fill="#E2EFFE"/>
<path d="M70.6669 147.209C69.9252 141.588 65.102 137.234 59.2812 137.234V170.046H72.4058C78.7389 170.046 83.8902 164.895 83.8902 158.562C83.8902 151.582 77.6592 146.144 70.6669 147.209Z" fill="#B6D7FC"/>
<path d="M45.3322 179.836C44.5166 179.441 44.1752 178.46 44.57 177.644L46.2106 174.254C46.6054 173.438 47.5863 173.097 48.402 173.491C49.2176 173.886 49.5589 174.867 49.1642 175.683L47.5235 179.073C47.1292 179.889 46.1482 180.23 45.3322 179.836Z" fill="#157DF5"/>
<path d="M53.6447 179.836C52.8291 179.441 52.4877 178.46 52.8825 177.644L54.5231 174.254C54.9175 173.438 55.8988 173.097 56.7145 173.491C57.5301 173.886 57.8714 174.867 57.4767 175.683L55.836 179.073C55.4417 179.889 54.4607 180.23 53.6447 179.836Z" fill="#157DF5"/>
<path d="M61.9572 179.836C61.1416 179.441 60.8002 178.46 61.195 177.644L62.8356 174.254C63.23 173.438 64.2113 173.097 65.027 173.491C65.8426 173.886 66.1835 174.867 65.7892 175.683L64.1485 179.073C63.7542 179.889 62.7732 180.23 61.9572 179.836Z" fill="#0965CD"/>
<path d="M70.2697 179.836C69.4541 179.441 69.1127 178.46 69.5075 177.644L71.1481 174.254C71.5425 173.438 72.5238 173.097 73.3395 173.491C74.1551 173.886 74.496 174.867 74.1017 175.683L72.461 179.073C72.0667 179.889 71.0857 180.23 70.2697 179.836Z" fill="#0965CD"/>
<path d="M32.9219 147.078H29.6406C28.7344 147.078 28 146.343 28 145.437C28 144.531 28.7344 143.797 29.6406 143.797H32.9219C33.8281 143.797 34.5625 144.531 34.5625 145.437C34.5625 146.343 33.8281 147.078 32.9219 147.078Z" fill="#FEE048"/>
<path d="M49.3281 130.672C48.4219 130.672 47.6875 129.937 47.6875 129.031V125.641C47.6875 124.734 48.4219 124 49.3281 124C50.2339 124 50.9687 124.734 50.9687 125.641V129.031C50.9687 129.937 50.2339 130.672 49.3281 130.672Z" fill="#FEE048"/>
<path d="M39.6839 132.084L37.9885 129.148C37.5357 128.363 37.8044 127.36 38.5892 126.907C39.3741 126.454 40.3773 126.722 40.8302 127.507L42.5255 130.444C42.9788 131.228 42.7096 132.232 41.9252 132.685C41.1408 133.137 40.1372 132.869 39.6839 132.084Z" fill="#FEE048"/>
<path d="M34.2796 138.73L31.3432 137.034C30.5583 136.582 30.2896 135.578 30.7424 134.794C31.1958 134.009 32.1989 133.74 32.9838 134.193L35.9202 135.888C36.7047 136.341 36.9734 137.345 36.5205 138.129C36.0672 138.914 35.0636 139.183 34.2796 138.73Z" fill="#FEE048"/>
<path d="M30.7971 156.285C30.3443 155.501 30.613 154.497 31.3978 154.044L34.3343 152.349C35.1187 151.896 36.1223 152.165 36.5752 152.949C37.0281 153.734 36.7594 154.738 35.9749 155.191L33.0385 156.886C32.254 157.339 31.2504 157.071 30.7971 156.285Z" fill="#FEE048"/>
<path d="M56.7455 132.63C55.9606 132.177 55.6919 131.173 56.1448 130.389L57.8401 127.453C58.2934 126.668 59.2966 126.399 60.0814 126.852C60.8663 127.305 61.135 128.308 60.6817 129.093L58.9864 132.03C58.5331 132.814 57.5295 133.083 56.7455 132.63Z" fill="#FEE048"/>
<path d="M60.6822 129.094L59.2812 131.52V126.633C59.5534 126.635 59.8281 126.706 60.0819 126.852C60.8659 127.305 61.1351 128.308 60.6822 129.094Z" fill="#FED601"/>
<defs>
<filter id="filter0_d_22783_11808" x="10" y="9" width="96" height="96" filterUnits="userSpaceOnUse" color-interpolation-filters="sRGB">
<feFlood flood-opacity="0" result="BackgroundImageFix"/>
<feColorMatrix in="SourceAlpha" type="matrix" values="0 0 0 0 0 0 0 0 0 0 0 0 0 0 0 0 0 0 127 0" result="hardAlpha"/>
<feOffset dx="2" dy="1"/>
<feGaussianBlur stdDeviation="4"/>
<feColorMatrix type="matrix" values="0 0 0 0 0.0392157 0 0 0 0 0.0392157 0 0 0 0 0.0627451 0 0 0 0.08 0"/>
<feBlend mode="normal" in2="BackgroundImageFix" result="effect1_dropShadow_22783_11808"/>
<feBlend mode="normal" in="SourceGraphic" in2="effect1_dropShadow_22783_11808" result="shape"/>
</filter>
</defs>
</svg>
