<svg width="112" height="208" viewBox="0 0 112 208" fill="none" xmlns="http://www.w3.org/2000/svg">
<rect x="0.5" y="0.5" width="111" height="207" rx="4.5" stroke="#9747FF" stroke-dasharray="10 5"/>
<g filter="url(#filter0_dd_11513_74289)">
<rect x="16" y="16" width="80" height="80" rx="8" fill="white"/>
</g>
<path d="M34.2722 74.9177C33.0879 74.9177 32.1917 73.8468 32.4004 72.681L35.926 52.9843C36.1327 51.7399 36.7743 50.6092 37.7365 49.7936C38.6988 48.9779 39.9193 48.5301 41.1807 48.53H70.8187C72.0801 48.5301 73.3006 48.9779 74.2629 49.7936C75.2252 50.6092 75.8667 51.7399 76.0734 52.9843L79.5991 72.681C79.8077 73.8468 78.9115 74.9177 77.7272 74.9177H34.2722Z" fill="#E2EFFE"/>
<path d="M35.2017 74.9203H76.7983V79.1429C76.7983 79.6163 76.4145 80 75.9411 80H36.0588C35.5854 80 35.2017 79.6163 35.2017 79.1429V74.9203Z" fill="#157DF5"/>
<path d="M33.9016 32C32.8514 32 32 32.8514 32 33.9016V33.9655C32 35.9662 32.7948 37.0279 34.2095 38.4426C35.6243 39.8574 37.5431 40.6522 39.5438 40.6522H72.4556C74.4563 40.6522 76.3751 39.8574 77.7899 38.4426C79.2046 37.0279 79.9994 35.9662 79.9994 33.9655V33.9016C79.9994 32.8514 79.148 32 78.0978 32H33.9016Z" fill="#157DF5"/>
<path d="M52.5659 40.6517H59.4334V48.5308H52.5659V40.6517Z" fill="#40D98D"/>
<path d="M55.9995 48.5308H59.4334V40.6517H55.9995V48.5308Z" fill="#25BB71"/>
<path d="M55.9995 40.6522H72.4554C74.4561 40.6522 76.3749 39.8574 77.7897 38.4426C79.2044 37.0279 79.9992 35.9662 79.9992 33.9655V33.9016C79.9992 32.8514 79.1478 32 78.0976 32H55.9995V40.6522Z" fill="#0965CD"/>
<path d="M55.9995 80H75.8473C76.3724 80 76.7981 79.5743 76.7981 79.0492V74.9203H55.9995V80Z" fill="#0965CD"/>
<path d="M55.9995 74.9177H77.7558C78.9305 74.9177 79.8242 73.8634 79.6318 72.7046L76.0732 52.9843C75.8665 51.7399 75.2249 50.6092 74.2627 49.7936C73.3004 48.9779 72.0799 48.5301 70.8185 48.53H55.9995V74.9177Z" fill="#B6D7FC"/>
<path d="M49.2766 68.4275C52.9898 72.1407 59.01 72.1407 62.7232 68.4275C66.4363 64.7144 66.4363 58.6942 62.7232 54.981C59.01 51.2679 52.9898 51.2679 49.2766 54.981C45.5634 58.6942 45.5634 64.7144 49.2766 68.4275Z" fill="#157DF5"/>
<path d="M55.9995 71.2124C58.4329 71.2124 60.8664 70.2841 62.723 68.4275C66.4362 64.7144 66.4362 58.6942 62.723 54.981C60.8664 53.1244 58.4329 52.1961 55.9995 52.1962V71.2124Z" fill="#0965CD"/>
<path d="M61.3769 58.3474C61.9338 57.7905 61.9338 56.8874 61.3769 56.3304C60.8199 55.7735 59.9168 55.7735 59.3599 56.3304L56.7376 58.9527C55.7858 58.6984 54.7282 58.9445 53.9815 59.6912C52.8675 60.8052 52.8675 62.6112 53.9815 63.7252C55.0954 64.8391 56.9015 64.8391 58.0154 63.7252C58.7619 62.9787 59.0081 61.9215 58.7542 60.97L61.3769 58.3474Z" fill="#40D98D"/>
<path d="M55.9995 64.5606C56.7292 64.5604 57.4588 64.2819 58.0155 63.7252C58.7619 62.9787 59.0082 61.9215 58.7543 60.97L61.3769 58.3474C61.9339 57.7905 61.9339 56.8874 61.3769 56.3304C60.8199 55.7735 59.9169 55.7735 59.3599 56.3304L56.7376 58.9527C56.4961 58.8882 56.2478 58.8559 55.9995 58.8558V64.5606Z" fill="#25BB71"/>
<path d="M34.2722 170.918C33.0879 170.918 32.1917 169.847 32.4004 168.681L35.926 148.984C36.1327 147.74 36.7743 146.609 37.7365 145.794C38.6988 144.978 39.9193 144.53 41.1807 144.53H70.8187C72.0801 144.53 73.3006 144.978 74.2629 145.794C75.2252 146.609 75.8667 147.74 76.0734 148.984L79.5991 168.681C79.8077 169.847 78.9115 170.918 77.7272 170.918H34.2722Z" fill="#E2EFFE"/>
<path d="M35.2017 170.92H76.7983V175.143C76.7983 175.616 76.4145 176 75.9411 176H36.0588C35.5854 176 35.2017 175.616 35.2017 175.143V170.92Z" fill="#157DF5"/>
<path d="M33.9016 128C32.8514 128 32 128.851 32 129.902V129.966C32 131.966 32.7948 133.028 34.2095 134.443C35.6243 135.857 37.5431 136.652 39.5438 136.652H72.4556C74.4563 136.652 76.3751 135.857 77.7899 134.443C79.2046 133.028 79.9994 131.966 79.9994 129.966V129.902C79.9994 128.851 79.148 128 78.0978 128H33.9016Z" fill="#157DF5"/>
<path d="M52.5659 136.652H59.4334V144.531H52.5659V136.652Z" fill="#40D98D"/>
<path d="M55.9995 144.531H59.4334V136.652H55.9995V144.531Z" fill="#25BB71"/>
<path d="M55.9995 136.652H72.4554C74.4561 136.652 76.3749 135.857 77.7897 134.443C79.2044 133.028 79.9992 131.966 79.9992 129.966V129.902C79.9992 128.851 79.1478 128 78.0976 128H55.9995V136.652Z" fill="#0965CD"/>
<path d="M55.9995 176H75.8473C76.3724 176 76.7981 175.574 76.7981 175.049V170.92H55.9995V176Z" fill="#0965CD"/>
<path d="M55.9995 170.918H77.7558C78.9305 170.918 79.8242 169.863 79.6318 168.705L76.0732 148.984C75.8665 147.74 75.2249 146.609 74.2627 145.794C73.3004 144.978 72.0799 144.53 70.8185 144.53H55.9995V170.918Z" fill="#B6D7FC"/>
<path d="M49.2766 164.428C52.9898 168.141 59.01 168.141 62.7232 164.428C66.4363 160.714 66.4363 154.694 62.7232 150.981C59.01 147.268 52.9898 147.268 49.2766 150.981C45.5634 154.694 45.5634 160.714 49.2766 164.428Z" fill="#157DF5"/>
<path d="M55.9995 167.212C58.4329 167.212 60.8664 166.284 62.723 164.428C66.4362 160.714 66.4362 154.694 62.723 150.981C60.8664 149.124 58.4329 148.196 55.9995 148.196V167.212Z" fill="#0965CD"/>
<path d="M61.3769 154.347C61.9338 153.79 61.9338 152.887 61.3769 152.33C60.8199 151.773 59.9168 151.773 59.3599 152.33L56.7376 154.953C55.7858 154.698 54.7282 154.945 53.9815 155.691C52.8675 156.805 52.8675 158.611 53.9815 159.725C55.0954 160.839 56.9015 160.839 58.0154 159.725C58.7619 158.979 59.0081 157.922 58.7542 156.97L61.3769 154.347Z" fill="#40D98D"/>
<path d="M55.9995 160.561C56.7292 160.56 57.4588 160.282 58.0155 159.725C58.7619 158.979 59.0082 157.922 58.7543 156.97L61.3769 154.347C61.9339 153.79 61.9339 152.887 61.3769 152.33C60.8199 151.773 59.9169 151.773 59.3599 152.33L56.7376 154.953C56.4961 154.888 56.2478 154.856 55.9995 154.856V160.561Z" fill="#25BB71"/>
<defs>
<filter id="filter0_dd_11513_74289" x="6" y="9" width="100" height="100" filterUnits="userSpaceOnUse" color-interpolation-filters="sRGB">
<feFlood flood-opacity="0" result="BackgroundImageFix"/>
<feColorMatrix in="SourceAlpha" type="matrix" values="0 0 0 0 0 0 0 0 0 0 0 0 0 0 0 0 0 0 127 0" result="hardAlpha"/>
<feOffset dy="3"/>
<feGaussianBlur stdDeviation="5"/>
<feColorMatrix type="matrix" values="0 0 0 0 0.516667 0 0 0 0 0.578358 0 0 0 0 0.775 0 0 0 0.12 0"/>
<feBlend mode="normal" in2="BackgroundImageFix" result="effect1_dropShadow_11513_74289"/>
<feColorMatrix in="SourceAlpha" type="matrix" values="0 0 0 0 0 0 0 0 0 0 0 0 0 0 0 0 0 0 127 0" result="hardAlpha"/>
<feOffset dy="1"/>
<feGaussianBlur stdDeviation="3"/>
<feColorMatrix type="matrix" values="0 0 0 0 0.709809 0 0 0 0 0.788943 0 0 0 0 0.920833 0 0 0 0.15 0"/>
<feBlend mode="normal" in2="effect1_dropShadow_11513_74289" result="effect2_dropShadow_11513_74289"/>
<feBlend mode="normal" in="SourceGraphic" in2="effect2_dropShadow_11513_74289" result="shape"/>
</filter>
</defs>
</svg>
