<svg width="112" height="208" viewBox="0 0 112 208" fill="none" xmlns="http://www.w3.org/2000/svg">
<rect x="0.5" y="0.5" width="111" height="207" rx="4.5" stroke="#9747FF" stroke-dasharray="10 5"/>
<g filter="url(#filter0_d_11148_58525)">
<rect x="16" y="16" width="80" height="80" rx="8" fill="white"/>
</g>
<rect x="52" y="45.1836" width="4" height="7.12759" fill="#40D98D"/>
<rect x="56" y="45.1836" width="4" height="7.12759" fill="#25BB71"/>
<path fill-rule="evenodd" clip-rule="evenodd" d="M43.75 35H68.2335C69.1974 35 69.9835 35.7888 69.9835 36.756V44.9762C69.9835 45.9434 69.1974 46.7321 68.2335 46.7321H43.75C42.7861 46.7321 42 45.9434 42 44.9762V36.756C42 35.7888 42.7861 35 43.75 35Z" fill="#157DF5"/>
<path d="M56 46.7321H68.2335C69.1974 46.7321 69.9835 45.9434 69.9835 44.9762V36.756C69.9835 35.7888 69.1974 35 68.2335 35H56V46.7321Z" fill="#0965CD"/>
<path fill-rule="evenodd" clip-rule="evenodd" d="M34.8184 72.1641H40.0684V75.3283C40.0684 76.2484 39.3314 76.9988 38.4277 76.9988H36.459C35.5553 76.9988 34.8184 76.2484 34.8184 75.3283V72.1641Z" fill="#40D98D"/>
<path fill-rule="evenodd" clip-rule="evenodd" d="M40.9945 52.0122C41.1844 51.7795 41.4689 51.6445 41.7692 51.6445H70.2308C70.5311 51.6445 70.8156 51.7795 71.0055 52.0122L82.8454 66.5185C83.3449 67.1305 82.971 68.0528 82.1863 68.1441L56.7055 71.1087C56.6303 71.1174 56.5543 71.1176 56.4791 71.1092L28 67.9331L40.9945 52.0122Z" fill="#E2EFFE"/>
<path fill-rule="evenodd" clip-rule="evenodd" d="M72.9961 71.6641H78.5961V74.9901C78.5961 75.9573 77.81 76.7461 76.8461 76.7461H74.7461C73.7822 76.7461 72.9961 75.9573 72.9961 74.9901V71.6641Z" fill="#25BB71"/>
<path fill-rule="evenodd" clip-rule="evenodd" d="M45.2656 39.2773C45.2656 38.7251 45.7133 38.2773 46.2656 38.2773H65.716C66.2682 38.2773 66.716 38.7251 66.716 39.2773V42.4538C66.716 43.0061 66.2682 43.4538 65.716 43.4538H46.2656C45.7133 43.4538 45.2656 43.0061 45.2656 42.4538V39.2773Z" fill="#E2EFFE"/>
<path fill-rule="evenodd" clip-rule="evenodd" d="M28 67.9336H84V71.5527C84 72.6573 83.1046 73.5527 82 73.5527H30C28.8954 73.5527 28 72.6573 28 71.5527V67.9336Z" fill="#157DF5"/>
<path d="M56 43.454H65.7169C66.2692 43.454 66.7169 43.0063 66.7169 42.454V39.2775C66.7169 38.7252 66.2692 38.2775 65.7169 38.2775H56V43.454Z" fill="#B6D7FC"/>
<path d="M56 51.6445V71.0558L56.5923 71.1218L84 67.9331L71.3051 52.3794C70.9252 51.9138 70.3615 51.6445 69.767 51.6445H56Z" fill="#B6D7FC"/>
<path d="M56 73.5527H82C83.1046 73.5527 84 72.641 84 71.5163V67.9336H56V73.5527Z" fill="#0965CD"/>
<rect x="52" y="141.184" width="4" height="7.12759" fill="#40D98D"/>
<rect x="56" y="141.184" width="4" height="7.12759" fill="#25BB71"/>
<path fill-rule="evenodd" clip-rule="evenodd" d="M43.75 131H68.2335C69.1974 131 69.9835 131.789 69.9835 132.756V140.976C69.9835 141.943 69.1974 142.732 68.2335 142.732H43.75C42.7861 142.732 42 141.943 42 140.976V132.756C42 131.789 42.7861 131 43.75 131Z" fill="#157DF5"/>
<path d="M56 142.732H68.2335C69.1974 142.732 69.9835 141.943 69.9835 140.976V132.756C69.9835 131.789 69.1974 131 68.2335 131H56V142.732Z" fill="#0965CD"/>
<path fill-rule="evenodd" clip-rule="evenodd" d="M34.8184 168.164H40.0684V171.328C40.0684 172.248 39.3314 172.999 38.4277 172.999H36.459C35.5553 172.999 34.8184 172.248 34.8184 171.328V168.164Z" fill="#40D98D"/>
<path fill-rule="evenodd" clip-rule="evenodd" d="M40.9945 148.012C41.1844 147.78 41.4689 147.645 41.7692 147.645H70.2308C70.5311 147.645 70.8156 147.78 71.0055 148.012L82.8454 162.518C83.3449 163.13 82.971 164.053 82.1863 164.144L56.7055 167.109C56.6303 167.117 56.5543 167.118 56.4791 167.109L28 163.933L40.9945 148.012Z" fill="#E2EFFE"/>
<path fill-rule="evenodd" clip-rule="evenodd" d="M72.9961 167.664H78.5961V170.99C78.5961 171.957 77.81 172.746 76.8461 172.746H74.7461C73.7822 172.746 72.9961 171.957 72.9961 170.99V167.664Z" fill="#25BB71"/>
<path fill-rule="evenodd" clip-rule="evenodd" d="M45.2656 135.277C45.2656 134.725 45.7133 134.277 46.2656 134.277H65.716C66.2682 134.277 66.716 134.725 66.716 135.277V138.454C66.716 139.006 66.2682 139.454 65.716 139.454H46.2656C45.7133 139.454 45.2656 139.006 45.2656 138.454V135.277Z" fill="#E2EFFE"/>
<path fill-rule="evenodd" clip-rule="evenodd" d="M28 163.934H84V167.553C84 168.657 83.1046 169.553 82 169.553H30C28.8954 169.553 28 168.657 28 167.553V163.934Z" fill="#157DF5"/>
<path d="M56 139.454H65.7169C66.2692 139.454 66.7169 139.006 66.7169 138.454V135.277C66.7169 134.725 66.2692 134.277 65.7169 134.277H56V139.454Z" fill="#B6D7FC"/>
<path d="M56 147.645V167.056L56.5923 167.122L84 163.933L71.3051 148.379C70.9252 147.914 70.3615 147.645 69.767 147.645H56Z" fill="#B6D7FC"/>
<path d="M56 169.553H82C83.1046 169.553 84 168.641 84 167.516V163.934H56V169.553Z" fill="#0965CD"/>
<defs>
<filter id="filter0_d_11148_58525" x="10" y="9" width="96" height="96" filterUnits="userSpaceOnUse" color-interpolation-filters="sRGB">
<feFlood flood-opacity="0" result="BackgroundImageFix"/>
<feColorMatrix in="SourceAlpha" type="matrix" values="0 0 0 0 0 0 0 0 0 0 0 0 0 0 0 0 0 0 127 0" result="hardAlpha"/>
<feOffset dx="2" dy="1"/>
<feGaussianBlur stdDeviation="4"/>
<feColorMatrix type="matrix" values="0 0 0 0 0.0392157 0 0 0 0 0.0392157 0 0 0 0 0.0627451 0 0 0 0.08 0"/>
<feBlend mode="normal" in2="BackgroundImageFix" result="effect1_dropShadow_11148_58525"/>
<feBlend mode="normal" in="SourceGraphic" in2="effect1_dropShadow_11148_58525" result="shape"/>
</filter>
</defs>
</svg>
