<svg width="64" height="48" viewBox="0 0 64 48" fill="none" xmlns="http://www.w3.org/2000/svg">
<path d="M56.9911 29.7657V29.1479H56.8366L56.6565 29.5598L56.4763 29.1479H56.3218V29.7657H56.4248V29.3024L56.605 29.7142H56.7337L56.9139 29.3024V29.7657H56.9911ZM55.9615 29.7657V29.2509H56.1674V29.1479H55.6526V29.2509H55.8585V29.7657H55.9615Z" fill="#00A2E5"/>
<path d="M38.6897 32.4168H24.7644V7.39746H38.6897V32.4168Z" fill="#7375CF"/>
<path d="M25.6654 19.9073C25.6654 14.8366 28.0334 10.3063 31.74 7.39768C29.0373 5.26126 25.6139 4 21.9073 4C13.13 4 6 11.13 6 19.9073C6 28.6847 13.13 35.8147 21.9073 35.8147C25.6139 35.8147 29.0373 34.5534 31.74 32.417C28.0334 29.5084 25.6654 24.9781 25.6654 19.9073Z" fill="#EB001B"/>
<path d="M57.48 19.9073C57.48 28.6847 50.35 35.8147 41.5727 35.8147C37.8661 35.8147 34.4427 34.5534 31.74 32.417C35.4466 29.5084 37.8146 24.9781 37.8146 19.9073C37.8146 14.8366 35.4466 10.3063 31.74 7.39768C34.4427 5.26126 37.8661 4 41.5727 4C50.35 4 57.48 11.13 57.48 19.9073Z" fill="#00A2E5"/>
<path d="M43.3746 39.4954C43.5548 39.4954 43.8379 39.5212 44.0181 39.5984L43.735 40.4735C43.5291 40.3963 43.3489 40.3706 43.1687 40.3706C42.5767 40.3706 42.2678 40.7567 42.2678 41.4517V43.8198H41.3412V39.5984H42.2421V40.1132C42.4995 39.7271 42.8598 39.4954 43.3746 39.4954ZM39.9769 40.4221H38.484V42.3268C38.484 42.7387 38.6385 43.0218 39.1018 43.0218C39.3334 43.0218 39.6423 42.9446 39.9255 42.7901L40.1829 43.5881C39.8997 43.794 39.4364 43.9227 39.0246 43.9227C37.9435 43.9227 37.5574 43.3307 37.5574 42.3526V40.4221H36.7079V39.5726H37.5574V38.2856H38.484V39.5726H39.9769V40.4221ZM28.2137 41.323C28.3167 40.7052 28.6771 40.2934 29.3463 40.2934C29.9383 40.2934 30.3244 40.6537 30.4274 41.323H28.2137ZM31.3798 41.7091C31.3798 40.3963 30.5561 39.4954 29.372 39.4954C28.1365 39.4954 27.2614 40.3963 27.2614 41.7091C27.2614 43.0476 28.1623 43.9227 29.4235 43.9227C30.067 43.9227 30.6333 43.7683 31.1481 43.3307L30.6848 42.6614C30.3244 42.9446 29.8868 43.099 29.4493 43.099C28.8572 43.099 28.3167 42.8159 28.188 42.0694H31.3283C31.354 41.9407 31.3798 41.8378 31.3798 41.7091ZM35.4209 40.6795C35.1635 40.525 34.6487 40.3191 34.1082 40.3191C33.5934 40.3191 33.3103 40.4993 33.3103 40.8082C33.3103 41.0913 33.6191 41.1685 34.031 41.22L34.4686 41.2715C35.3952 41.4002 35.9357 41.7863 35.9357 42.5327C35.9357 43.3307 35.2408 43.9227 34.0052 43.9227C33.3103 43.9227 32.6668 43.7425 32.1777 43.3822L32.6153 42.6614C32.9242 42.8931 33.3875 43.099 34.031 43.099C34.6487 43.099 34.9834 42.9188 34.9834 42.5842C34.9834 42.3526 34.7517 42.2239 34.2369 42.1466L33.7993 42.0952C32.8469 41.9665 32.3321 41.5289 32.3321 40.8596C32.3321 40.0102 33.0271 39.4954 34.0825 39.4954C34.7517 39.4954 35.3695 39.6499 35.807 39.933L35.4209 40.6795ZM46.7466 40.3448C46.5664 40.3448 46.3862 40.3706 46.2318 40.4478C46.0773 40.525 45.9229 40.6022 45.8199 40.7309C45.717 40.8596 45.614 40.9883 45.5368 41.1685C45.4596 41.323 45.4338 41.5289 45.4338 41.7091C45.4338 41.915 45.4596 42.0952 45.5368 42.2496C45.614 42.4041 45.6912 42.5585 45.8199 42.6872C45.9486 42.8159 46.0773 42.8931 46.2318 42.9703C46.3862 43.0475 46.5664 43.0733 46.7466 43.0733C46.9267 43.0733 47.1069 43.0475 47.2614 42.9703C47.4158 42.8931 47.5702 42.8159 47.6732 42.6872C47.8019 42.5585 47.8791 42.4298 47.9563 42.2496C48.0336 42.0952 48.0593 41.8892 48.0593 41.7091C48.0593 41.5031 48.0336 41.323 47.9563 41.1685C47.8791 41.0141 47.8019 40.8596 47.6732 40.7309C47.5445 40.6022 47.4158 40.525 47.2614 40.4478C47.1069 40.3963 46.9267 40.3448 46.7466 40.3448ZM46.7466 39.4954C47.0812 39.4954 47.3901 39.5469 47.6475 39.6756C47.9306 39.7786 48.1623 39.933 48.3682 40.1389C48.5741 40.3448 48.7285 40.5765 48.8572 40.8339C48.9602 41.117 49.0374 41.4002 49.0374 41.7091C49.0374 42.0179 48.9859 42.3268 48.8572 42.5842C48.7543 42.8674 48.5741 43.099 48.3682 43.2792C48.1623 43.4851 47.9306 43.6396 47.6475 43.7425C47.3643 43.8455 47.0554 43.9227 46.7466 43.9227C46.4119 43.9227 46.1031 43.8712 45.8457 43.7425C45.5625 43.6396 45.3309 43.4851 45.1249 43.2792C44.919 43.0733 44.7646 42.8416 44.6359 42.5842C44.5329 42.3011 44.4557 42.0179 44.4557 41.7091C44.4557 41.4002 44.5072 41.0913 44.6359 40.8339C44.7388 40.5508 44.919 40.3191 45.1249 40.1389C45.3309 39.933 45.5625 39.7786 45.8457 39.6756C46.1031 39.5469 46.4119 39.4954 46.7466 39.4954ZM22.8598 41.7091C22.8598 40.9626 23.3489 40.3448 24.1468 40.3448C24.919 40.3448 25.4081 40.9369 25.4081 41.7091C25.4081 42.4813 24.8933 43.0475 24.1468 43.0475C23.3489 43.0475 22.8598 42.4555 22.8598 41.7091ZM26.2832 41.7091V39.5984H25.3566V40.1132C25.0735 39.7271 24.6359 39.4954 24.0181 39.4954C22.8341 39.4954 21.9074 40.4221 21.9074 41.7091C21.9074 42.9961 22.8341 43.9227 24.0181 43.9227C24.6101 43.9227 25.0477 43.6911 25.3566 43.3049V43.8198H26.2832V41.7091ZM21.1095 43.8198V41.1685C21.1095 40.1647 20.466 39.4954 19.4364 39.4954C18.8959 39.4954 18.3296 39.6499 17.9435 40.2419C17.6603 39.7786 17.197 39.4954 16.5535 39.4954C16.1159 39.4954 15.6526 39.6241 15.318 40.1132V39.5984H14.3914V43.8198H15.318V41.4774C15.318 40.7567 15.7298 40.3448 16.3476 40.3448C16.9654 40.3448 17.2742 40.7309 17.2742 41.4517V43.794H18.2009V41.4517C18.2009 40.7309 18.6385 40.3191 19.2305 40.3191C19.8482 40.3191 20.1571 40.7052 20.1571 41.4259V43.7683H21.1095V43.8198Z" fill="black"/>
<path d="M50.0156 43.4853V43.5882H50.1186C50.1443 43.5882 50.1701 43.5882 50.1701 43.5625C50.1958 43.5625 50.1958 43.5368 50.1958 43.511C50.1958 43.4853 50.1958 43.4853 50.1701 43.4853C50.1701 43.4853 50.1443 43.4595 50.1186 43.4595H50.0156V43.4853ZM50.1186 43.4338C50.1701 43.4338 50.1958 43.4338 50.2216 43.4595C50.2473 43.4853 50.273 43.511 50.273 43.5625C50.273 43.5882 50.273 43.614 50.2473 43.6397C50.2216 43.6655 50.1958 43.6655 50.1443 43.6655L50.273 43.8199H50.1701L50.0414 43.6655H50.0156V43.8199H49.9384V43.4338H50.1186ZM50.0929 43.9486C50.1443 43.9486 50.1701 43.9486 50.2216 43.9229C50.273 43.8971 50.2988 43.8714 50.3245 43.8456C50.3503 43.8199 50.376 43.7942 50.4017 43.7427C50.4275 43.6912 50.4275 43.6655 50.4275 43.614C50.4275 43.5625 50.4275 43.5368 50.4017 43.4853C50.376 43.4338 50.3503 43.4081 50.3245 43.3823C50.2988 43.3566 50.273 43.3308 50.2216 43.3051C50.1958 43.2794 50.1443 43.2794 50.0929 43.2794C50.0414 43.2794 50.0156 43.2794 49.9642 43.3051C49.9127 43.3308 49.8869 43.3566 49.8612 43.3823C49.8355 43.4081 49.8097 43.4595 49.784 43.4853C49.7582 43.5368 49.7582 43.5625 49.7582 43.614C49.7582 43.6655 49.7582 43.6912 49.784 43.7427C49.8097 43.7942 49.8355 43.8199 49.8612 43.8456C49.8869 43.8714 49.9384 43.8971 49.9642 43.9229C50.0156 43.9486 50.0414 43.9486 50.0929 43.9486ZM50.0929 43.2021C50.1443 43.2021 50.1958 43.2021 50.2473 43.2279C50.2988 43.2536 50.3503 43.2794 50.376 43.3051C50.4017 43.3308 50.4532 43.3823 50.479 43.4338C50.5047 43.4853 50.5047 43.5368 50.5047 43.5882C50.5047 43.6397 50.5047 43.6912 50.479 43.7427C50.4532 43.7942 50.4275 43.8456 50.376 43.8714C50.3245 43.8971 50.2988 43.9486 50.2473 43.9743C50.1958 44.0001 50.1443 44.0001 50.0929 44.0001C50.0414 44.0001 49.9642 44.0001 49.9127 43.9743C49.8612 43.9486 49.8097 43.9229 49.784 43.8714C49.7582 43.8456 49.7068 43.7942 49.681 43.7427C49.6553 43.6912 49.6553 43.6397 49.6553 43.5882C49.6553 43.5368 49.6553 43.4853 49.681 43.4338C49.7068 43.3823 49.7325 43.3308 49.784 43.3051C49.8097 43.2794 49.8612 43.2279 49.9127 43.2279C49.9642 43.2021 50.0414 43.2021 50.0929 43.2021Z" fill="black"/>
</svg>
