<svg width="64" height="48" viewBox="0 0 64 48" fill="none" xmlns="http://www.w3.org/2000/svg">
<path d="M12.523 4H28.4837C30.7117 4 32.0974 5.81599 31.5776 8.05135L24.1468 39.9549C23.6224 42.1825 21.3917 44 19.1621 44H3.20298C0.978121 44 -0.410715 42.1825 0.109028 39.9549L7.543 8.05135C8.06274 5.81599 10.2923 4 12.523 4Z" fill="#E21836"/>
<path d="M27.1555 4H45.5099C47.7375 4 46.733 5.81599 46.209 8.05135L38.7793 39.9549C38.258 42.1825 38.4206 44 36.1884 44H17.834C15.6017 44 14.2203 42.1825 14.7447 39.9549L22.174 8.05135C22.7015 5.81599 24.9264 4 27.1555 4Z" fill="#00447C"/>
<path d="M44.782 4H60.7427C62.9738 4 64.3595 5.81599 63.8355 8.05135L56.4058 39.9549C55.8814 42.1825 53.6491 44 51.4184 44H35.4651C33.2328 44 31.8483 42.1825 32.3711 39.9549L39.802 8.05135C40.3217 5.81599 42.5497 4 44.782 4Z" fill="#007B84"/>
<path d="M16.6913 14.2243C15.05 14.241 14.5652 14.2243 14.4104 14.1877C14.3509 14.4706 13.2433 19.5797 13.2402 19.584C13.0017 20.6176 12.8282 21.3544 12.2388 21.8302C11.9043 22.1068 11.5137 22.2402 11.0609 22.2402C10.333 22.2402 9.90894 21.8788 9.83775 21.1934L9.82414 20.958C9.82414 20.958 10.0459 19.5735 10.0459 19.5657C10.0459 19.5657 11.2083 14.9098 11.4164 14.2943C11.4273 14.2593 11.4304 14.241 11.4332 14.2243C9.17057 14.2441 8.76948 14.2243 8.74186 14.1877C8.72668 14.2379 8.67066 14.5266 8.67066 14.5266L7.48373 19.7742L7.38181 20.2192L7.18457 21.675C7.18457 22.1068 7.26938 22.4593 7.43822 22.7573C7.97897 23.7022 9.52147 23.8438 10.3941 23.8438C11.5184 23.8438 12.573 23.605 13.2857 23.1689C14.5228 22.4379 14.8465 21.2953 15.1352 20.2799L15.269 19.759C15.269 19.759 16.4664 14.9234 16.6699 14.2943C16.6777 14.2593 16.6808 14.241 16.6913 14.2243ZM20.7655 18.1253C20.4768 18.1253 19.9493 18.1953 19.4755 18.4275C19.3035 18.5158 19.1409 18.6178 18.9693 18.7193L19.1242 18.1603L19.0394 18.0661C18.0345 18.2696 17.8096 18.2968 16.8814 18.4275L16.8036 18.4793C16.6958 19.3729 16.6001 20.0447 16.2006 21.8012C16.0485 22.4485 15.8905 23.1021 15.7322 23.7479L15.775 23.83C16.7262 23.7798 17.0148 23.7798 17.8415 23.7934L17.9084 23.7207C18.0135 23.1826 18.0271 23.0566 18.2597 21.9669C18.3691 21.4503 18.597 20.3151 18.7095 19.9109C18.916 19.8152 19.1199 19.7211 19.3144 19.7211C19.7777 19.7211 19.7213 20.1253 19.7034 20.2863C19.6836 20.5567 19.5147 21.4398 19.3416 22.198L19.2261 22.6874C19.1456 23.0488 19.0573 23.4001 18.9767 23.7584L19.0117 23.83C19.9493 23.7798 20.2352 23.7798 21.0359 23.7934L21.13 23.7207C21.2747 22.8804 21.3171 22.6555 21.5739 21.432L21.703 20.8699C21.954 19.7697 22.08 19.2118 21.8902 18.7574C21.6894 18.2482 21.2078 18.1253 20.7655 18.1253ZM25.3168 19.2771C24.8185 19.3728 24.5006 19.4366 24.1847 19.4779C23.8716 19.5281 23.5662 19.5736 23.0846 19.6405L23.0464 19.6751L23.0114 19.7027C22.9612 20.0614 22.9262 20.3715 22.8597 20.736C22.8033 21.113 22.7165 21.5413 22.5753 22.1567C22.466 22.6278 22.4096 22.792 22.3474 22.9577C22.2867 23.1235 22.2197 23.2845 22.0968 23.7479L22.1256 23.7906L22.1497 23.8299C22.5998 23.8085 22.8943 23.7934 23.197 23.7906C23.4993 23.7798 23.8124 23.7906 24.2972 23.7934L24.3396 23.7587L24.3851 23.7206C24.4551 23.3028 24.4656 23.1904 24.5084 22.9865C24.5508 22.7679 24.624 22.4652 24.8033 21.6568C24.8881 21.2771 24.9826 20.8986 25.0706 20.5111C25.162 20.1252 25.2577 19.7451 25.3487 19.3654L25.3351 19.3195L25.3168 19.2771ZM25.3274 17.724C24.8746 17.4568 24.0798 17.5416 23.5449 17.9108C23.0115 18.2726 22.9509 18.7861 23.4021 19.0569C23.8472 19.3167 24.6451 19.2393 25.1753 18.867C25.7075 18.4974 25.774 17.9886 25.3274 17.724ZM28.066 23.9137C28.9822 23.9137 29.9213 23.6612 30.6282 22.9119C31.172 22.3043 31.4214 21.4002 31.5078 21.0279C31.789 19.7939 31.57 19.2177 31.295 18.8668C30.8771 18.3319 30.1388 18.1603 29.3728 18.1603C28.9121 18.1603 27.8151 18.2059 26.9581 18.996C26.3426 19.5659 26.0582 20.3393 25.8867 21.0808C25.7135 21.8363 25.5144 23.1963 26.7651 23.7025C27.151 23.8682 27.7073 23.9137 28.066 23.9137ZM27.9944 21.1372C28.2057 20.2027 28.455 19.4185 29.0915 19.4185C29.5902 19.4185 29.6264 20.002 29.4047 20.9396C29.365 21.1477 29.1829 21.9215 28.9367 22.251C28.7647 22.4941 28.5612 22.6416 28.3364 22.6416C28.2695 22.6416 27.8715 22.6416 27.8653 22.0506C27.8622 21.7589 27.9217 21.4609 27.9944 21.1372ZM33.798 23.7935L33.8696 23.7208C33.9711 23.1828 33.9878 23.0563 34.2127 21.967C34.3251 21.4504 34.5577 20.3152 34.6671 19.911C34.874 19.8149 35.0744 19.7208 35.2751 19.7208C35.7353 19.7208 35.6793 20.125 35.661 20.286C35.6443 20.5568 35.4755 21.4395 35.2992 22.1977L35.1899 22.6871C35.1063 23.0489 35.0152 23.3998 34.9347 23.7585L34.9697 23.8301C35.9104 23.7799 36.1854 23.7799 36.9907 23.7935L37.088 23.7208C37.2292 22.8801 37.2673 22.6552 37.5319 21.4321L37.6579 20.8696C37.91 19.7694 38.0376 19.2119 37.8509 18.7575C37.6443 18.2483 37.1596 18.1254 36.7235 18.1254C36.4344 18.1254 35.9042 18.195 35.4331 18.4276C35.2646 18.516 35.0958 18.6175 34.93 18.7194L35.0744 18.1604L34.997 18.0658C33.9925 18.2697 33.763 18.2969 32.8359 18.4276L32.7647 18.4794C32.6523 19.373 32.5609 20.0445 32.1613 21.8013C32.0092 22.4487 31.8513 23.1022 31.6933 23.748L31.7357 23.8301C32.6885 23.7799 32.9728 23.7799 33.798 23.7935ZM40.7093 23.8299C40.7684 23.5412 41.1197 21.8303 41.1228 21.8303C41.1228 21.8303 41.422 20.5749 41.4403 20.5294C41.4403 20.5294 41.5344 20.3987 41.6286 20.3469H41.767C43.0738 20.3469 44.5494 20.3469 45.706 19.4961C46.493 18.9126 47.031 18.0509 47.271 17.0036C47.3333 16.7468 47.3792 16.4415 47.3792 16.1361C47.3792 15.735 47.2987 15.3382 47.066 15.0281C46.4763 14.203 45.3018 14.1878 43.946 14.1816C43.9417 14.1816 43.2777 14.1878 43.2777 14.1878C41.5422 14.2092 40.8462 14.203 40.5603 14.168C40.5362 14.2944 40.4906 14.5193 40.4906 14.5193C40.4906 14.5193 39.869 17.4004 39.869 17.4051C39.869 17.4051 38.3813 23.5307 38.3113 23.8194C39.8266 23.8011 40.4478 23.8011 40.7093 23.8299ZM41.8612 18.7118C41.8612 18.7118 42.5222 15.8365 42.519 15.8474L42.5404 15.7L42.5498 15.5875L42.8139 15.6148C42.8139 15.6148 44.1771 15.7319 44.209 15.735C44.747 15.9431 44.9688 16.4796 44.8139 17.1798C44.6727 17.8198 44.2576 18.3578 43.7243 18.6177C43.285 18.8379 42.747 18.8562 42.1926 18.8562H41.834L41.8612 18.7118ZM45.9765 21.1905C45.8018 21.9351 45.6011 23.2951 46.8456 23.7798C47.2424 23.9487 47.598 23.9989 47.9594 23.9806C48.341 23.96 48.6947 23.7686 49.0222 23.4931C48.9927 23.6063 48.9631 23.7195 48.9335 23.8331L48.9899 23.9059C49.8851 23.8681 50.1629 23.8681 51.1327 23.8755L51.2206 23.8086C51.3622 22.9761 51.4957 22.1677 51.8637 20.575C52.043 19.8121 52.222 19.0566 52.406 18.2969L52.3772 18.2132C51.3758 18.3988 51.1082 18.4385 50.145 18.575L50.0718 18.6345C50.0621 18.7119 50.052 18.7863 50.0426 18.8606C49.8929 18.6186 49.6758 18.412 49.3408 18.2832C48.9125 18.1148 47.9065 18.3319 47.0417 19.1193C46.434 19.6814 46.1422 20.4517 45.9765 21.1905ZM48.0796 21.236C48.294 20.3183 48.5402 19.5417 49.1782 19.5417C49.5816 19.5417 49.7941 19.914 49.7509 20.5489C49.7166 20.7073 49.6797 20.8742 49.6357 21.0629C49.5719 21.3356 49.5027 21.6059 49.4354 21.8767C49.3669 22.0619 49.2872 22.2366 49.1996 22.3529C49.0354 22.5855 48.6449 22.7298 48.42 22.7298C48.3562 22.7298 47.9625 22.7298 47.9489 22.1494C47.9458 21.8604 48.0053 21.5628 48.0796 21.236ZM59.0621 18.2058L58.9847 18.1175C57.9938 18.3182 57.8145 18.3501 56.9042 18.473L56.8372 18.54C56.8341 18.5509 56.8314 18.5676 56.8267 18.5828L56.8236 18.5676C56.1459 20.1311 56.1658 19.7938 55.6141 21.0247C55.611 20.9687 55.611 20.9337 55.6079 20.8741L55.4698 18.2058L55.383 18.1175C54.3451 18.3182 54.3206 18.3501 53.362 18.473L53.2873 18.54C53.2768 18.5719 53.2768 18.6069 53.2706 18.645L53.2768 18.6586C53.3967 19.2709 53.3679 19.1344 53.4881 20.1007C53.5441 20.575 53.6188 21.0519 53.6748 21.5203C53.7694 22.3042 53.8223 22.6901 53.9378 23.8864C53.2905 24.9547 53.1372 25.3589 52.514 26.2964L52.5182 26.3058L52.0794 26.9998C52.0292 27.0729 51.9837 27.1231 51.9199 27.1445C51.8499 27.1791 51.7589 27.1854 51.6324 27.1854H51.3893L51.0279 28.3875L52.2677 28.4089C52.9956 28.4057 53.4531 28.0653 53.6993 27.6078L54.4789 26.2719H54.4665L54.5486 26.1778C55.073 25.0488 59.0621 18.2058 59.0621 18.2058ZM45.9765 33.9936H45.4505L47.3972 27.5547H48.043L48.248 26.8914L48.2679 27.629C48.2437 28.085 48.6024 28.4892 49.5447 28.4223H50.6343L51.0093 27.1824H50.5993C50.3636 27.1824 50.2542 27.1229 50.2679 26.9953L50.248 26.2449H48.2301V26.2488C47.5777 26.2624 45.6295 26.3114 45.235 26.4164C44.7576 26.5394 44.2546 26.9012 44.2546 26.9012L44.4522 26.2371H42.5647L42.1714 27.5547L40.1986 34.092H39.8158L39.4404 35.3229H43.2L43.0739 35.7333H44.9265L45.0494 35.3229H45.5692L45.9765 33.9936ZM44.434 28.863C44.1317 28.9467 43.5692 29.2003 43.5692 29.2003L44.0694 27.5547H45.5692L45.2074 28.7537C45.2074 28.7537 44.744 28.781 44.434 28.863ZM44.4628 31.214C44.4628 31.214 43.9916 31.2731 43.6816 31.3431C43.3762 31.4357 42.8035 31.7275 42.8035 31.7275L43.3202 30.015H44.8277L44.4628 31.214ZM43.6224 34.0087H42.1181L42.5542 32.5635H44.0539L43.6224 34.0087ZM47.2453 30.015H49.4138L49.1022 31.0241H46.9049L46.575 32.1274H48.4976L47.0419 34.1772C46.9399 34.3277 46.8485 34.381 46.747 34.4234C46.6451 34.4752 46.5112 34.5359 46.3564 34.5359H45.823L45.4566 35.7442H46.8516C47.5768 35.7442 48.0051 35.4143 48.3214 34.9813L49.3196 33.615L49.534 35.0023C49.5795 35.2622 49.7662 35.4143 49.8927 35.4734C50.0323 35.5435 50.1767 35.6637 50.3805 35.6816C50.5992 35.6909 50.7571 35.6983 50.8621 35.6983H51.5476L51.9592 34.346H51.6888C51.5336 34.346 51.2663 34.32 51.2208 34.2713C51.1753 34.2122 51.1753 34.1212 51.1508 33.9827L50.9333 32.5923H50.0428L50.4334 32.1274H52.6264L52.9637 31.0241H50.9333L51.2496 30.015H53.2737L53.6491 28.7705H47.6145L47.2453 30.015ZM28.9305 34.2897L29.4366 32.606H31.5168L31.8969 31.3537H29.8148L30.1326 30.3174H32.1672L32.5442 29.1048H27.4534L27.0842 30.3174H28.2408L27.9323 31.3537H26.7726L26.3882 32.6274H27.5444L26.8698 34.855C26.7788 35.1499 26.9126 35.2623 26.9974 35.3992C27.0842 35.5327 27.1721 35.621 27.3697 35.6712C27.5736 35.7167 27.7132 35.7439 27.9031 35.7439H30.2482L30.666 34.3566L29.6265 34.4994C29.4257 34.4994 28.8698 34.4753 28.9305 34.2897ZM29.1691 26.2295L28.642 27.1822C28.5292 27.3904 28.4276 27.5195 28.3362 27.5791C28.2557 27.6292 28.0962 27.6502 27.8651 27.6502H27.59L27.2224 28.8691H28.1358C28.5751 28.8691 28.9123 28.708 29.0734 28.6275C29.2465 28.5349 29.292 28.5878 29.4259 28.4587L29.7344 28.1914H32.5867L32.9653 26.9224H30.8773L31.2419 26.2295H29.1691ZM33.3801 34.3142C33.3315 34.2442 33.3665 34.1209 33.4408 33.8641L34.2204 31.2837H36.9938C37.398 31.2778 37.6898 31.2732 37.8796 31.2595C38.0835 31.2381 38.3052 31.1654 38.5468 31.0347C38.7962 30.8977 38.9238 30.7534 39.0316 30.5877C39.1518 30.4224 39.3447 30.0606 39.5104 29.5027L40.4904 26.2372L37.6124 26.2539C37.6124 26.2539 36.7262 26.3846 36.336 26.5289C35.9423 26.69 35.3797 27.1397 35.3797 27.1397L35.6396 26.2446H33.8617L31.3727 34.4994C31.2844 34.8199 31.2253 35.0526 31.2117 35.1922C31.207 35.3428 31.4015 35.4918 31.5276 35.6042C31.6766 35.7167 31.8967 35.6984 32.108 35.7167C32.3301 35.7334 32.646 35.7439 33.0821 35.7439H34.4484L34.8678 34.3278L33.6447 34.4434C33.5139 34.4434 33.4194 34.3733 33.3801 34.3142ZM34.7234 29.5408H37.6365L37.4513 30.1212C37.4252 30.1349 37.363 30.0925 37.0666 30.1275H34.5441L34.7234 29.5408ZM35.307 27.5941H38.2445L38.0333 28.2932C38.0333 28.2932 36.6487 28.2796 36.427 28.3204C35.4513 28.4893 34.8814 29.0106 34.8814 29.0106L35.307 27.5941ZM37.5165 32.065C37.4924 32.1517 37.4543 32.2046 37.401 32.2443C37.3418 32.2824 37.2461 32.296 37.1034 32.296H36.6883L36.7128 31.5892H34.9863L34.9162 35.0449C34.9135 35.2943 34.9376 35.4386 35.1201 35.5542C35.3025 35.6985 35.8647 35.7168 36.6214 35.7168H37.7032L38.0938 34.4232L37.152 34.475L36.8388 34.4933C36.796 34.475 36.7552 34.4583 36.7097 34.4127C36.67 34.3735 36.6031 34.3976 36.614 34.1482L36.6214 33.2624L37.6091 33.2215C38.1425 33.2215 38.3704 33.048 38.5649 32.8827C38.7505 32.7244 38.8112 32.5423 38.8812 32.296L39.047 31.5118H37.6896L37.5165 32.065Z" fill="#FEFEFE"/>
</svg>
