<svg preserveAspectRatio="none" width="100%" height="100%" overflow="visible" style="display: block;" viewBox="0 0 24 24" fill="none" xmlns="http://www.w3.org/2000/svg">
<g id="BarcodeSolid">
<g id="Vector">
<path fill-rule="evenodd" clip-rule="evenodd" d="M2.2875 6.7125C2.47917 6.90417 2.71667 7 3 7C3.28333 7 3.52083 6.90417 3.7125 6.7125C3.90417 6.52083 4 6.28333 4 6V4H6C6.28333 4 6.52083 3.90417 6.7125 3.7125C6.90417 3.52083 7 3.28333 7 3C7 2.71667 6.90417 2.47917 6.7125 2.2875C6.52083 2.09583 6.28333 2 6 2H3C2.71667 2 2.47917 2.09583 2.2875 2.2875C2.09583 2.47917 2 2.71667 2 3V6C2 6.28333 2.09583 6.52083 2.2875 6.7125ZM2.2875 21.7125C2.47917 21.9042 2.71667 22 3 22H6C6.28333 22 6.52083 21.9042 6.7125 21.7125C6.90417 21.5208 7 21.2833 7 21C7 20.7167 6.90417 20.4792 6.7125 20.2875C6.52083 20.0958 6.28333 20 6 20H4V18C4 17.7167 3.90417 17.4792 3.7125 17.2875C3.52083 17.0958 3.28333 17 3 17C2.71667 17 2.47917 17.0958 2.2875 17.2875C2.09583 17.4792 2 17.7167 2 18V21C2 21.2833 2.09583 21.5208 2.2875 21.7125ZM17.2875 21.7125C17.4792 21.9042 17.7167 22 18 22H21C21.2833 22 21.5208 21.9042 21.7125 21.7125C21.9042 21.5208 22 21.2833 22 21V18C22 17.7167 21.9042 17.4792 21.7125 17.2875C21.5208 17.0958 21.2833 17 21 17C20.7167 17 20.4792 17.0958 20.2875 17.2875C20.0958 17.4792 20 17.7167 20 18V20H18C17.7167 20 17.4792 20.0958 17.2875 20.2875C17.0958 20.4792 17 20.7167 17 21C17 21.2833 17.0958 21.5208 17.2875 21.7125ZM20.2875 6.7125C20.4792 6.90417 20.7167 7 21 7C21.2833 7 21.5208 6.90417 21.7125 6.7125C21.9042 6.52083 22 6.28333 22 6V3C22 2.71667 21.9042 2.47917 21.7125 2.2875C21.5208 2.09583 21.2833 2 21 2H18C17.7167 2 17.4792 2.09583 17.2875 2.2875C17.0958 2.47917 17 2.71667 17 3C17 3.28333 17.0958 3.52083 17.2875 3.7125C17.4792 3.90417 17.7167 4 18 4H20V6C20 6.28333 20.0958 6.52083 20.2875 6.7125Z" fill="var(--fill-0, black)"/>
<path d="M5.24995 8C4.83576 8 4.5 8.33576 4.5 8.74995V15.25C4.5 15.4487 4.57986 15.6394 4.7203 15.78C4.86074 15.9206 5.05126 15.9997 5.25 16C5.44874 15.9997 5.63926 15.9206 5.7797 15.78C5.92014 15.6394 5.99902 15.4487 5.99902 15.25L5.9999 8.75005C5.99995 8.33583 5.66417 8 5.24995 8ZM7.5 8C7.22386 8 7 8.22386 7 8.5V15.5C7 15.6326 7.05268 15.7598 7.14645 15.8536C7.24021 15.9473 7.36739 16 7.5 16C7.56691 16 7.63315 15.9866 7.69479 15.9606C7.75642 15.9346 7.81221 15.8964 7.85883 15.8484C7.90546 15.8004 7.94198 15.7436 7.96623 15.6812C7.99048 15.6188 8.00196 15.5522 8 15.4854V8.5C8 8.22386 7.77614 8 7.5 8ZM10 8C9.72386 8 9.5 8.22386 9.5 8.5V15.5C9.5 15.776 9.724 16 10 16H13C13.276 16 13.5 15.776 13.5 15.5V8.5C13.5 8.22386 13.2761 8 13 8H10ZM15.7499 8C15.3358 8 15 8.33576 15 8.74995V15.25C15 15.4487 15.0799 15.6394 15.2203 15.78C15.3607 15.9206 15.5513 15.9997 15.75 16C15.9487 15.9997 16.1393 15.9206 16.2797 15.78C16.4201 15.6394 16.499 15.4487 16.499 15.25L16.4999 8.75005C16.5 8.33583 16.1642 8 15.7499 8ZM18.75 8C18.3358 8 18 8.33576 18 8.74995V15.25C18 15.4487 18.0799 15.6394 18.2203 15.78C18.3607 15.9206 18.5513 15.9997 18.75 16C18.9487 15.9997 19.1393 15.9206 19.2797 15.78C19.4201 15.6394 19.499 15.4487 19.499 15.25L19.4999 8.75005C19.5 8.33583 19.1642 8 18.75 8Z" fill="var(--fill-0, black)"/>
</g>
</g>
</svg>
