<svg preserveAspectRatio="none" width="100%" height="100%" overflow="visible" style="display: block;" viewBox="0 0 24 24" fill="none" xmlns="http://www.w3.org/2000/svg">
<g id="CashRegisterOutline">
<path id="Vector" d="M7.446 8.15375C6.94483 8.15375 6.51767 7.97675 6.1645 7.62275C5.81133 7.26875 5.63475 6.84325 5.63475 6.34625V4.69225C5.63475 4.19525 5.81175 3.76975 6.16575 3.41575C6.51975 3.06175 6.94525 2.88475 7.44225 2.88475H16.554C17.0552 2.88475 17.4823 3.06175 17.8355 3.41575C18.1887 3.76975 18.3652 4.19525 18.3652 4.69225V6.34625C18.3652 6.84325 18.1882 7.26875 17.8342 7.62275C17.4802 7.97675 17.0547 8.15375 16.5577 8.15375H7.446ZM7.44225 6.654H16.5577C16.6539 6.654 16.7292 6.62675 16.7837 6.57225C16.8381 6.51775 16.8652 6.44242 16.8652 6.34625V4.69225C16.8652 4.59608 16.8381 4.52083 16.7837 4.4665C16.7292 4.412 16.6539 4.38475 16.5577 4.38475H7.44225C7.34608 4.38475 7.27075 4.412 7.21625 4.4665C7.16192 4.52083 7.13475 4.59608 7.13475 4.69225V6.34625C7.13475 6.44242 7.16192 6.51775 7.21625 6.57225C7.27075 6.62675 7.34608 6.654 7.44225 6.654ZM4.69225 21.1152C4.19525 21.1152 3.76975 20.9382 3.41575 20.5842C3.06175 20.2302 2.88475 19.8048 2.88475 19.3078V18.3077H21.1152V19.3078C21.1152 19.8064 20.9382 20.2323 20.5842 20.5855C20.2302 20.9387 19.8048 21.1152 19.3078 21.1152H4.69225ZM2.88475 17.423L5.983 10.227C6.1315 9.88983 6.35717 9.62667 6.66 9.4375C6.96283 9.24833 7.28833 9.15375 7.6365 9.15375H16.3635C16.7117 9.15375 17.0372 9.24833 17.34 9.4375C17.6428 9.62667 17.8685 9.88983 18.017 10.227L21.1152 17.423H2.88475ZM8.6155 15.6152H9.6155C9.73333 15.6152 9.8365 15.5711 9.925 15.4827C10.0135 15.3942 10.0577 15.291 10.0577 15.173C10.0577 15.0552 10.0135 14.952 9.925 14.8635C9.8365 14.775 9.73333 14.7307 9.6155 14.7307H8.6155C8.4975 14.7307 8.39425 14.775 8.30575 14.8635C8.21725 14.952 8.173 15.0552 8.173 15.173C8.173 15.291 8.21725 15.3942 8.30575 15.4827C8.39425 15.5711 8.4975 15.6152 8.6155 15.6152ZM8.6155 13.7307H9.6155C9.73333 13.7307 9.8365 13.6865 9.925 13.598C10.0135 13.5095 10.0577 13.4063 10.0577 13.2885C10.0577 13.1705 10.0135 13.0672 9.925 12.9787C9.8365 12.8904 9.73333 12.8463 9.6155 12.8463H8.6155C8.4975 12.8463 8.39425 12.8904 8.30575 12.9787C8.21725 13.0672 8.173 13.1705 8.173 13.2885C8.173 13.4063 8.21725 13.5095 8.30575 13.598C8.39425 13.6865 8.4975 13.7307 8.6155 13.7307ZM8.6155 11.8463H9.6155C9.73333 11.8463 9.8365 11.802 9.925 11.7135C10.0135 11.625 10.0577 11.5218 10.0577 11.4038C10.0577 11.2859 10.0135 11.1828 9.925 11.0943C9.8365 11.0058 9.73333 10.9615 9.6155 10.9615H8.6155C8.4975 10.9615 8.39425 11.0058 8.30575 11.0943C8.21725 11.1828 8.173 11.2859 8.173 11.4038C8.173 11.5218 8.21725 11.625 8.30575 11.7135C8.39425 11.802 8.4975 11.8463 8.6155 11.8463ZM11.5 15.6152H12.5C12.618 15.6152 12.7212 15.5711 12.8095 15.4827C12.898 15.3942 12.9422 15.291 12.9422 15.173C12.9422 15.0552 12.898 14.952 12.8095 14.8635C12.7212 14.775 12.618 14.7307 12.5 14.7307H11.5C11.382 14.7307 11.2788 14.775 11.1905 14.8635C11.102 14.952 11.0577 15.0552 11.0577 15.173C11.0577 15.291 11.102 15.3942 11.1905 15.4827C11.2788 15.5711 11.382 15.6152 11.5 15.6152ZM11.5 13.7307H12.5C12.618 13.7307 12.7212 13.6865 12.8095 13.598C12.898 13.5095 12.9422 13.4063 12.9422 13.2885C12.9422 13.1705 12.898 13.0672 12.8095 12.9787C12.7212 12.8904 12.618 12.8463 12.5 12.8463H11.5C11.382 12.8463 11.2788 12.8904 11.1905 12.9787C11.102 13.0672 11.0577 13.1705 11.0577 13.2885C11.0577 13.4063 11.102 13.5095 11.1905 13.598C11.2788 13.6865 11.382 13.7307 11.5 13.7307ZM11.5 11.8463H12.5C12.618 11.8463 12.7212 11.802 12.8095 11.7135C12.898 11.625 12.9422 11.5218 12.9422 11.4038C12.9422 11.2859 12.898 11.1828 12.8095 11.0943C12.7212 11.0058 12.618 10.9615 12.5 10.9615H11.5C11.382 10.9615 11.2788 11.0058 11.1905 11.0943C11.102 11.1828 11.0577 11.2859 11.0577 11.4038C11.0577 11.5218 11.102 11.625 11.1905 11.7135C11.2788 11.802 11.382 11.8463 11.5 11.8463ZM14.3845 15.6152H15.3845C15.5025 15.6152 15.6058 15.5711 15.6943 15.4827C15.7828 15.3942 15.827 15.291 15.827 15.173C15.827 15.0552 15.7828 14.952 15.6943 14.8635C15.6058 14.775 15.5025 14.7307 15.3845 14.7307H14.3845C14.2667 14.7307 14.1635 14.775 14.075 14.8635C13.9865 14.952 13.9422 15.0552 13.9422 15.173C13.9422 15.291 13.9865 15.3942 14.075 15.4827C14.1635 15.5711 14.2667 15.6152 14.3845 15.6152ZM14.3845 13.7307H15.3845C15.5025 13.7307 15.6058 13.6865 15.6943 13.598C15.7828 13.5095 15.827 13.4063 15.827 13.2885C15.827 13.1705 15.7828 13.0672 15.6943 12.9787C15.6058 12.8904 15.5025 12.8463 15.3845 12.8463H14.3845C14.2667 12.8463 14.1635 12.8904 14.075 12.9787C13.9865 13.0672 13.9422 13.1705 13.9422 13.2885C13.9422 13.4063 13.9865 13.5095 14.075 13.598C14.1635 13.6865 14.2667 13.7307 14.3845 13.7307ZM14.3845 11.8463H15.3845C15.5025 11.8463 15.6058 11.802 15.6943 11.7135C15.7828 11.625 15.827 11.5218 15.827 11.4038C15.827 11.2859 15.7828 11.1828 15.6943 11.0943C15.6058 11.0058 15.5025 10.9615 15.3845 10.9615H14.3845C14.2667 10.9615 14.1635 11.0058 14.075 11.0943C13.9865 11.1828 13.9422 11.2859 13.9422 11.4038C13.9422 11.5218 13.9865 11.625 14.075 11.7135C14.1635 11.802 14.2667 11.8463 14.3845 11.8463Z" fill="var(--fill-0, black)"/>
</g>
</svg>
