<svg preserveAspectRatio="none" width="100%" height="100%" overflow="visible" style="display: block;" viewBox="0 0 24 24" fill="none" xmlns="http://www.w3.org/2000/svg">
<g id="CreditCheckASolid">
<g id="Vector">
<path fill-rule="evenodd" clip-rule="evenodd" d="M2.25 8C2.25 7.00544 2.64509 6.05161 3.34835 5.34835C4.05161 4.64509 5.00544 4.25 6 4.25H18C18.9946 4.25 19.9484 4.64509 20.6517 5.34835C21.3549 6.05161 21.75 7.00544 21.75 8V13C21.75 13.4142 21.4142 13.75 21 13.75C20.5858 13.75 20.25 13.4142 20.25 13V10.75H3.75V16C3.75 16.5967 3.98705 17.169 4.40901 17.591C4.83097 18.0129 5.40326 18.25 6 18.25H12C12.4142 18.25 12.75 18.5858 12.75 19C12.75 19.4142 12.4142 19.75 12 19.75H6C5.00544 19.75 4.05161 19.3549 3.34835 18.6517C2.64509 17.9484 2.25 16.9946 2.25 16V8ZM4.40901 6.40901C4.83097 5.98705 5.40326 5.75 6 5.75H18C18.5967 5.75 19.169 5.98705 19.591 6.40901C20.0129 6.83097 20.25 7.40326 20.25 8V9.25H3.75V8C3.75 7.40326 3.98705 6.83097 4.40901 6.40901Z" fill="var(--fill-0, black)"/>
<path d="M6.25 15C6.25 14.5858 6.58579 14.25 7 14.25H7.01C7.42421 14.25 7.76 14.5858 7.76 15C7.76 15.4142 7.42421 15.75 7.01 15.75H7C6.58579 15.75 6.25 15.4142 6.25 15Z" fill="var(--fill-0, black)"/>
<path d="M11 14.25C10.5858 14.25 10.25 14.5858 10.25 15C10.25 15.4142 10.5858 15.75 11 15.75H13C13.4142 15.75 13.75 15.4142 13.75 15C13.75 14.5858 13.4142 14.25 13 14.25H11Z" fill="var(--fill-0, black)"/>
<path fill-rule="evenodd" clip-rule="evenodd" d="M15.3483 15.3483C16.0516 14.6451 17.0054 14.25 18 14.25C18.9946 14.25 19.9484 14.6451 20.6517 15.3483C21.3549 16.0516 21.75 17.0054 21.75 18C21.75 18.7407 21.5308 19.4589 21.1284 20.0678L22.5303 21.4697C22.8232 21.7626 22.8232 22.2374 22.5303 22.5303C22.2374 22.8232 21.7626 22.8232 21.4697 22.5303L20.0678 21.1284C19.4589 21.5308 18.7407 21.75 18 21.75C17.0054 21.75 16.0516 21.3549 15.3483 20.6517C14.6451 19.9484 14.25 18.9946 14.25 18C14.25 17.0054 14.6451 16.0516 15.3483 15.3483ZM18 15.75C17.4033 15.75 16.831 15.9871 16.409 16.409C15.9871 16.831 15.75 17.4033 15.75 18C15.75 18.5967 15.9871 19.169 16.409 19.591C16.831 20.0129 17.4033 20.25 18 20.25C18.5967 20.25 19.169 20.0129 19.591 19.591C20.0129 19.169 20.25 18.5967 20.25 18C20.25 17.4033 20.0129 16.831 19.591 16.409C19.169 15.9871 18.5967 15.75 18 15.75Z" fill="var(--fill-0, black)"/>
</g>
</g>
</svg>
