<svg preserveAspectRatio="none" width="100%" height="100%" overflow="visible" style="display: block;" viewBox="0 0 24 24" fill="none" xmlns="http://www.w3.org/2000/svg">
<g id="DataVisualizationSolid">
<g id="Vector">
<path d="M17 6.43934L19.1893 4.25H18C17.5858 4.25 17.25 3.91421 17.25 3.5C17.25 3.08579 17.5858 2.75 18 2.75H21C21.1017 2.75 21.1987 2.77024 21.2871 2.80691C21.3755 2.84351 21.4584 2.89776 21.5303 2.96967C21.6768 3.11612 21.75 3.30806 21.75 3.5V6.5C21.75 6.91421 21.4142 7.25 21 7.25C20.5858 7.25 20.25 6.91421 20.25 6.5V5.31066L17.5303 8.03033C17.2374 8.32322 16.7626 8.32322 16.4697 8.03033L15 6.56066L14.0303 7.53033C13.7374 7.82322 13.2626 7.82322 12.9697 7.53033C12.6768 7.23744 12.6768 6.76256 12.9697 6.46967L14.4697 4.96967C14.7626 4.67678 15.2374 4.67678 15.5303 4.96967L17 6.43934Z" fill="var(--fill-0, black)"/>
<path d="M6.25 4.8125C5.26812 4.9695 4.35329 5.43213 3.64124 6.14418C2.75044 7.03498 2.25 8.24316 2.25 9.50294C2.25 10.7627 2.75044 11.9709 3.64124 12.8617C4.53204 13.7525 5.74022 14.2529 7 14.2529C8.25978 14.2529 9.46796 13.7525 10.3588 12.8617C11.0708 12.1496 11.5334 11.2348 11.6904 10.2529H7C6.58579 10.2529 6.25 9.91715 6.25 9.50294V4.8125Z" fill="var(--fill-0, black)"/>
<path d="M10.3588 6.14418C11.0708 6.85622 11.5334 7.77106 11.6904 8.75294H7.75V4.8125C8.73188 4.9695 9.64671 5.43213 10.3588 6.14418Z" fill="var(--fill-0, black)"/>
<path d="M9 15.75C9.41421 15.75 9.75 16.0858 9.75 16.5V20.5C9.75 20.9142 9.41421 21.25 9 21.25C8.58579 21.25 8.25 20.9142 8.25 20.5V16.5C8.25 16.0858 8.58579 15.75 9 15.75Z" fill="var(--fill-0, black)"/>
<path d="M17 12.75C17.4142 12.75 17.75 13.0858 17.75 13.5V20.5C17.75 20.9142 17.4142 21.25 17 21.25C16.5858 21.25 16.25 20.9142 16.25 20.5V13.5C16.25 13.0858 16.5858 12.75 17 12.75Z" fill="var(--fill-0, black)"/>
<path d="M20.25 20.5V11.5C20.25 11.0858 20.5858 10.75 21 10.75C21.4142 10.75 21.75 11.0858 21.75 11.5V20.5C21.75 20.9142 21.4142 21.25 21 21.25C20.5858 21.25 20.25 20.9142 20.25 20.5Z" fill="var(--fill-0, black)"/>
<path d="M13.75 12.5C13.75 12.0858 13.4142 11.75 13 11.75C12.5858 11.75 12.25 12.0858 12.25 12.5V20.5C12.25 20.9142 12.5858 21.25 13 21.25C13.4142 21.25 13.75 20.9142 13.75 20.5V12.5Z" fill="var(--fill-0, black)"/>
</g>
</g>
</svg>
