<svg preserveAspectRatio="none" width="100%" height="100%" overflow="visible" style="display: block;" viewBox="0 0 24 24" fill="none" xmlns="http://www.w3.org/2000/svg">
<g id="MoneyExchangeOutline">
<g id="Vector">
<path fill-rule="evenodd" clip-rule="evenodd" d="M14 10.75C13.2707 10.75 12.5712 10.4603 12.0555 9.94454C11.5397 9.42882 11.25 8.72935 11.25 8C11.25 7.27065 11.5397 6.57118 12.0555 6.05546C12.5712 5.53973 13.2707 5.25 14 5.25C14.7293 5.25 15.4288 5.53973 15.9445 6.05546C16.4603 6.57118 16.75 7.27065 16.75 8C16.75 8.72935 16.4603 9.42882 15.9445 9.94454C15.4288 10.4603 14.7293 10.75 14 10.75ZM13.1161 8.88388C13.3505 9.1183 13.6685 9.25 14 9.25C14.3315 9.25 14.6495 9.1183 14.8839 8.88388C15.1183 8.64946 15.25 8.33152 15.25 8C15.25 7.66848 15.1183 7.35054 14.8839 7.11612C14.6495 6.8817 14.3315 6.75 14 6.75C13.6685 6.75 13.3505 6.8817 13.1161 7.11612C12.8817 7.35054 12.75 7.66848 12.75 8C12.75 8.33152 12.8817 8.64946 13.1161 8.88388Z" fill="var(--fill-0, black)"/>
<path fill-rule="evenodd" clip-rule="evenodd" d="M5 7.25H6.25V5C6.25 4.27065 6.53973 3.57118 7.05546 3.05546C7.57118 2.53973 8.27065 2.25 9 2.25H19C19.7293 2.25 20.4288 2.53973 20.9445 3.05546C21.4603 3.57118 21.75 4.27065 21.75 5V11C21.75 11.7293 21.4603 12.4288 20.9445 12.9445C20.4288 13.4603 19.7293 13.75 19 13.75H17.75V15C17.75 15.4142 17.4142 15.75 17 15.75C16.5858 15.75 16.25 15.4142 16.25 15V13.75H9C8.27065 13.75 7.57118 13.4603 7.05546 12.9445C6.53973 12.4288 6.25 11.7293 6.25 11V8.75H5C4.66848 8.75 4.35054 8.8817 4.11612 9.11612C3.8817 9.35054 3.75 9.66848 3.75 10V16C3.75 16.3315 3.8817 16.6495 4.11612 16.8839C4.35054 17.1183 4.66848 17.25 5 17.25H10C10.4142 17.25 10.75 17.5858 10.75 18C10.75 18.4142 10.4142 18.75 10 18.75H5C4.27065 18.75 3.57118 18.4603 3.05546 17.9445C2.53973 17.4288 2.25 16.7293 2.25 16V10C2.25 9.27065 2.53973 8.57118 3.05546 8.05546C3.57118 7.53973 4.27065 7.25 5 7.25ZM8.11612 11.8839C8.35054 12.1183 8.66848 12.25 9 12.25H19C19.3315 12.25 19.6495 12.1183 19.8839 11.8839C20.1183 11.6495 20.25 11.3315 20.25 11V5C20.25 4.66848 20.1183 4.35054 19.8839 4.11612C19.6495 3.8817 19.3315 3.75 19 3.75H9C8.66848 3.75 8.35054 3.8817 8.11612 4.11612C7.8817 4.35054 7.75 4.66848 7.75 5V11C7.75 11.3315 7.8817 11.6495 8.11612 11.8839Z" fill="var(--fill-0, black)"/>
<path d="M18.5303 18.9697L18.75 19.1893V17C18.75 16.5858 19.0858 16.25 19.5 16.25C19.9142 16.25 20.25 16.5858 20.25 17V19.1893L20.4697 18.9697C20.7626 18.6768 21.2374 18.6768 21.5303 18.9697C21.8232 19.2626 21.8232 19.7374 21.5303 20.0303L20.0303 21.5303C19.9584 21.6022 19.8755 21.6565 19.7871 21.6931C19.7099 21.7251 19.6262 21.7446 19.5386 21.749C19.5258 21.7497 19.5129 21.75 19.5 21.75C19.3983 21.75 19.3013 21.7298 19.2129 21.6931C19.1245 21.6565 19.0416 21.6022 18.9697 21.5303L17.4697 20.0303C17.1768 19.7374 17.1768 19.2626 17.4697 18.9697C17.7626 18.6768 18.2374 18.6768 18.5303 18.9697Z" fill="var(--fill-0, black)"/>
<path d="M13.25 18.8107L13.0303 19.0303C12.7374 19.3232 12.2626 19.3232 11.9697 19.0303C11.6768 18.7374 11.6768 18.2626 11.9697 17.9697L13.4697 16.4697C13.5416 16.3978 13.6245 16.3435 13.7129 16.3069C13.8013 16.2702 13.8983 16.25 14 16.25C14.0072 16.25 14.0144 16.2501 14.0216 16.2503L14.0386 16.251C14.1262 16.2554 14.2099 16.2749 14.2871 16.3069C14.3755 16.3435 14.4584 16.3978 14.5303 16.4697L16.0303 17.9697C16.3232 18.2626 16.3232 18.7374 16.0303 19.0303C15.7374 19.3232 15.2626 19.3232 14.9697 19.0303L14.75 18.8107V21C14.75 21.4142 14.4142 21.75 14 21.75C13.5858 21.75 13.25 21.4142 13.25 21V18.8107Z" fill="var(--fill-0, black)"/>
</g>
</g>
</svg>
