<svg preserveAspectRatio="none" width="100%" height="100%" overflow="visible" style="display: block;" viewBox="0 0 24 24" fill="none" xmlns="http://www.w3.org/2000/svg">
<g id="QRCodeScannerSolid">
<path id="Vector" d="M3 7C2.71667 7 2.47917 6.90417 2.2875 6.7125C2.09583 6.52083 2 6.28333 2 6V3C2 2.71667 2.09583 2.47917 2.2875 2.2875C2.47917 2.09583 2.71667 2 3 2H6C6.28333 2 6.52083 2.09583 6.7125 2.2875C6.90417 2.47917 7 2.71667 7 3C7 3.28333 6.90417 3.52083 6.7125 3.7125C6.52083 3.90417 6.28333 4 6 4H4V6C4 6.28333 3.90417 6.52083 3.7125 6.7125C3.52083 6.90417 3.28333 7 3 7ZM3 22C2.71667 22 2.47917 21.9042 2.2875 21.7125C2.09583 21.5208 2 21.2833 2 21V18C2 17.7167 2.09583 17.4792 2.2875 17.2875C2.47917 17.0958 2.71667 17 3 17C3.28333 17 3.52083 17.0958 3.7125 17.2875C3.90417 17.4792 4 17.7167 4 18V20H6C6.28333 20 6.52083 20.0958 6.7125 20.2875C6.90417 20.4792 7 20.7167 7 21C7 21.2833 6.90417 21.5208 6.7125 21.7125C6.52083 21.9042 6.28333 22 6 22H3ZM18 22C17.7167 22 17.4792 21.9042 17.2875 21.7125C17.0958 21.5208 17 21.2833 17 21C17 20.7167 17.0958 20.4792 17.2875 20.2875C17.4792 20.0958 17.7167 20 18 20H20V18C20 17.7167 20.0958 17.4792 20.2875 17.2875C20.4792 17.0958 20.7167 17 21 17C21.2833 17 21.5208 17.0958 21.7125 17.2875C21.9042 17.4792 22 17.7167 22 18V21C22 21.2833 21.9042 21.5208 21.7125 21.7125C21.5208 21.9042 21.2833 22 21 22H18ZM21 7C20.7167 7 20.4792 6.90417 20.2875 6.7125C20.0958 6.52083 20 6.28333 20 6V4H18C17.7167 4 17.4792 3.90417 17.2875 3.7125C17.0958 3.52083 17 3.28333 17 3C17 2.71667 17.0958 2.47917 17.2875 2.2875C17.4792 2.09583 17.7167 2 18 2H21C21.2833 2 21.5208 2.09583 21.7125 2.2875C21.9042 2.47917 22 2.71667 22 3V6C22 6.28333 21.9042 6.52083 21.7125 6.7125C21.5208 6.90417 21.2833 7 21 7ZM17.5 17.5H19V19H17.5V17.5ZM17.5 14.5H19V16H17.5V14.5ZM16 16H17.5V17.5H16V16ZM14.5 17.5H16V19H14.5V17.5ZM13 16H14.5V17.5H13V16ZM16 13H17.5V14.5H16V13ZM14.5 14.5H16V16H14.5V14.5ZM13 13H14.5V14.5H13V13ZM19 5V11H13V5H19ZM11 13V19H5V13H11ZM11 5V11H5V5H11ZM9.5 17.5V14.5H6.5V17.5H9.5ZM9.5 9.5V6.5H6.5V9.5H9.5ZM17.5 9.5V6.5H14.5V9.5H17.5Z" fill="var(--fill-0, black)"/>
</g>
</svg>
