<svg preserveAspectRatio="none" width="100%" height="100%" overflow="visible" style="display: block;" viewBox="0 0 24 24" fill="none" xmlns="http://www.w3.org/2000/svg">
<g id="SendCashChequeBOutline">
<g id="Vector">
<path d="M4.5 3.25C2.98122 3.25 1.75 4.48122 1.75 6V15.5C1.75 15.6887 1.81968 15.8611 1.93472 15.9929C2.33292 17.021 3.33132 17.75 4.5 17.75H9.5C9.91421 17.75 10.25 17.4142 10.25 17C10.25 16.5858 9.91421 16.25 9.5 16.25H4.5C3.80964 16.25 3.25 15.6904 3.25 15C3.25 14.3096 3.80964 13.75 4.5 13.75H10.5C10.9142 13.75 11.25 13.4142 11.25 13C11.25 12.5858 10.9142 12.25 10.5 12.25H4.5C4.04989 12.25 3.62503 12.3581 3.25 12.5499V6C3.25 5.30964 3.80964 4.75 4.5 4.75H20C20.6904 4.75 21.25 5.30964 21.25 6V9.5C21.25 9.91421 21.5858 10.25 22 10.25C22.4142 10.25 22.75 9.91421 22.75 9.5V6C22.75 4.48122 21.5188 3.25 20 3.25H4.5Z" fill="black"/>
<path d="M5.25 7C5.25 6.58579 5.58579 6.25 6 6.25H7.5C7.91421 6.25 8.25 6.58579 8.25 7C8.25 7.41421 7.91421 7.75 7.5 7.75H6C5.58579 7.75 5.25 7.41421 5.25 7Z" fill="black"/>
<path d="M6 9.25C5.58579 9.25 5.25 9.58579 5.25 10C5.25 10.4142 5.58579 10.75 6 10.75H9.5C9.91421 10.75 10.25 10.4142 10.25 10C10.25 9.58579 9.91421 9.25 9.5 9.25H6Z" fill="black"/>
<path fill-rule="evenodd" clip-rule="evenodd" d="M22.5303 11.4697C22.7359 11.6753 22.8042 11.9813 22.7054 12.2548L19.1575 22.0796C19.1505 22.0992 19.1426 22.1184 19.134 22.1373C19.0502 22.3201 18.9157 22.4751 18.7464 22.5837C18.5772 22.6923 18.3803 22.75 18.1792 22.75C17.9781 22.75 17.7813 22.6923 17.612 22.5837C17.4474 22.4781 17.3157 22.3286 17.2315 22.1524L15.4369 18.5631L11.8477 16.7685C11.6714 16.6843 11.522 16.5526 11.4163 16.388C11.3077 16.2188 11.25 16.0219 11.25 15.8208C11.25 15.6197 11.3077 15.4228 11.4163 15.2536C11.525 15.0843 11.6799 14.9498 11.8627 14.8661C11.8816 14.8574 11.9008 14.8495 11.9204 14.8425L21.7453 11.2946C22.0188 11.1958 22.3247 11.2641 22.5303 11.4697ZM13.4411 15.8882L16.3313 17.3333C16.4765 17.4059 16.5942 17.5235 16.6667 17.6687L18.1119 20.559L20.7519 13.2481L13.4411 15.8882Z" fill="black"/>
<path d="M14.8 9.51675C14.9 9.38341 15.1 9.38341 15.2 9.51675L15.6 10.0501C15.9305 10.4907 16.4492 10.7501 17 10.7501H18C18.4142 10.7501 18.75 10.4143 18.75 10.0001C18.75 9.58587 18.4142 9.25008 18 9.25008H17C16.9213 9.25008 16.8472 9.21303 16.8 9.15008L16.4 8.61675C15.7 7.68341 14.3 7.68341 13.6 8.61675L13.2 9.15008C13.1528 9.21303 13.0787 9.25008 13 9.25008C12.5858 9.25008 12.25 9.58587 12.25 10.0001C12.25 10.4143 12.5858 10.7501 13 10.7501C13.5508 10.7501 14.0695 10.4907 14.4 10.0501L14.8 9.51675Z" fill="black"/>
</g>
</g>
</svg>
