<svg preserveAspectRatio="none" width="100%" height="100%" overflow="visible" style="display: block;" viewBox="0 0 24 24" fill="none" xmlns="http://www.w3.org/2000/svg">
<g id="SendCashChequeBSolid">
<g id="Vector">
<path fill-rule="evenodd" clip-rule="evenodd" d="M1 5C1 3.48123 2.23122 2.25 3.75 2.25H19.25C20.7688 2.25 22 3.48123 22 5V8.29957C22 8.3417 21.9736 8.37932 21.934 8.39363L9.89396 12.7414C9.88307 12.7453 9.87158 12.7473 9.86 12.7473H3.75C3.05965 12.7473 2.5 13.3069 2.5 13.9973C2.5 14.6877 3.05965 15.2473 3.75 15.2473H8.51289C8.5373 15.2473 8.56086 15.2562 8.57914 15.2724L10.0522 16.5751C10.1212 16.6361 10.078 16.75 9.98597 16.75H3.5C2.11929 16.75 1 15.6307 1 14.25V5ZM2.5 6C2.5 5.58578 2.83578 5.25 3.25 5.25H4.75C5.16422 5.25 5.5 5.58578 5.5 6C5.5 6.41422 5.16422 6.75 4.75 6.75H3.25C2.83578 6.75 2.5 6.41422 2.5 6ZM11.05 8.51407C11.15 8.38074 11.35 8.38074 11.45 8.51407L11.85 9.04739C12.1805 9.48807 12.6992 9.74741 13.25 9.74741H14.25C14.6642 9.74741 15 9.41162 15 8.99741C15 8.58319 14.6642 8.24741 14.25 8.24741H13.25C13.1713 8.24741 13.0972 8.21036 13.05 8.1474L12.65 7.61407C11.95 6.68073 10.55 6.68073 9.85001 7.61407L9.45 8.1474C9.40279 8.21036 9.32869 8.24741 9.25 8.24741C8.83578 8.24741 8.5 8.58319 8.5 8.99741C8.5 9.41162 8.83578 9.74741 9.25 9.74741C9.80083 9.74741 10.3195 9.48807 10.65 9.04739L11.05 8.51407ZM2.5 8.99731C2.5 8.5831 2.83578 8.24731 3.25 8.24731H6.75C7.16422 8.24731 7.5 8.5831 7.5 8.99731C7.5 9.41153 7.16422 9.74731 6.75 9.74731H3.25C2.83578 9.74731 2.5 9.41153 2.5 8.99731Z" fill="var(--fill-0, black)"/>
<path d="M21.9554 11.2548C22.0542 10.9813 21.9859 10.6753 21.7803 10.4697C21.5747 10.2641 21.2688 10.1958 20.9953 10.2946L11.1704 13.8425C11.1508 13.8495 11.1316 13.8574 11.1127 13.8661C10.9299 13.9499 10.775 14.0844 10.6664 14.2536C10.5577 14.4228 10.5 14.6197 10.5 14.8208C10.5 15.0219 10.5577 15.2188 10.6664 15.388C10.772 15.5526 10.9214 15.6843 11.0977 15.7685L14.6571 17.5482C14.6764 17.5579 14.6921 17.5736 14.7018 17.5929L16.4815 21.1523C16.5657 21.3286 16.6974 21.4781 16.862 21.5837C17.0312 21.6923 17.2281 21.75 17.4292 21.75C17.6303 21.75 17.8272 21.6923 17.9964 21.5837C18.1657 21.4751 18.3002 21.3202 18.384 21.1373C18.3926 21.1184 18.4005 21.0992 18.4075 21.0796L21.9554 11.2548Z" fill="var(--fill-0, black)"/>
</g>
</g>
</svg>
