<svg width="24" height="24" viewBox="0 0 24 24" fill="none" xmlns="http://www.w3.org/2000/svg">
<path d="M11.9999 1C7.33817 1 5.09857 4.87793 5.09857 4.87793C5.03934 4.98175 5.00578 5.09822 5.00068 5.21764C4.99559 5.33706 5.0191 5.45597 5.06927 5.56445L8.01263 11.9414C7.68819 12.708 7.49994 13.5696 7.49994 14.4844C7.49994 15.7723 8.15871 16.8794 8.82318 17.7441C9.06762 18.0622 9.0733 18.478 8.83978 18.7822C8.42803 19.3187 7.96065 19.9783 7.65521 20.6475C7.16575 21.7195 7.9811 23.001 9.16302 23.001H14.8369C16.0155 23.001 16.8365 21.7263 16.3486 20.6533C16.329 20.6105 16.3055 20.5696 16.2783 20.5312L15.1952 18.998C14.913 18.5982 14.9305 18.0726 15.2372 17.665C15.8785 16.8127 16.4999 15.7341 16.4999 14.4854C16.4999 13.58 16.3233 12.7219 16.0048 11.9609C16.0005 11.9514 15.9959 11.942 15.9911 11.9326L18.9306 5.56445C18.9808 5.45597 19.0043 5.33706 18.9992 5.21764C18.9941 5.09822 18.9605 4.98175 18.9013 4.87793C18.9013 4.87793 16.6617 1 11.9999 1ZM11.9999 2.5C15.2451 2.5 16.9252 4.63064 17.3915 5.32031L14.7704 11H14.0576L14.9882 5.88379C15.0058 5.78683 15.0041 5.68736 14.9833 5.59105C14.9624 5.49474 14.9228 5.40349 14.8666 5.3225C14.8105 5.24151 14.739 5.17237 14.6561 5.11902C14.5733 5.06568 14.4807 5.02918 14.3837 5.01161C14.2868 4.99404 14.1873 4.99574 14.091 5.01662C13.9947 5.03749 13.9035 5.07713 13.8225 5.13328C13.7415 5.18942 13.6724 5.26097 13.619 5.34383C13.5657 5.42669 13.5292 5.51925 13.5117 5.61621L12.5331 11H11.4667L10.4882 5.61621C10.4707 5.51925 10.4342 5.42669 10.3808 5.34383C10.3275 5.26097 10.2584 5.18942 10.1774 5.13328C10.0964 5.07713 10.0052 5.03749 9.90887 5.01662C9.81256 4.99574 9.71309 4.99404 9.61613 5.01161C9.51917 5.02918 9.42662 5.06568 9.34376 5.11902C9.26091 5.17237 9.18937 5.24151 9.13324 5.3225C9.07711 5.40349 9.03748 5.49474 9.01662 5.59105C8.99576 5.68736 8.99407 5.78683 9.01166 5.88379L9.94232 11H9.22943L6.60833 5.32031C7.07472 4.63064 8.75473 2.5 11.9999 2.5ZM9.40423 12.5H14.6044C14.6096 12.5138 14.6151 12.5275 14.621 12.541C14.8605 13.1131 14.9999 13.7757 14.9999 14.4854C14.9999 15.2066 14.5827 16.041 14.039 16.7637C13.3597 17.6661 13.3069 18.9231 13.9706 19.8633L14.9745 21.2861C15.0196 21.4074 14.9746 21.501 14.8369 21.501H9.16302C9.01494 21.501 8.95693 21.4065 9.01947 21.2695C9.23303 20.8017 9.65199 20.1868 10.0292 19.6953C10.6807 18.8465 10.6542 17.665 10.0126 16.8301C9.4461 16.0928 8.99994 15.2285 8.99994 14.4844C8.99994 13.7566 9.15355 13.0823 9.40423 12.5Z" fill="black"/>
</svg>
