<svg width="24" height="24" viewBox="0 0 24 24" fill="none" xmlns="http://www.w3.org/2000/svg">
<path d="M12 0.5C11.2292 0.5 10.5561 0.816067 10.127 1.29883C9.69783 1.78159 9.5 2.39583 9.5 3C9.5 3.34102 9.58179 3.67795 9.71387 4H8.25C7.01625 4 6 5.01625 6 6.25C6 7.01244 6.41229 7.65861 7 8.06641V19.4336C6.41229 19.8414 6 20.4876 6 21.25C6 22.4838 7.01625 23.5 8.25 23.5H15.75C16.9838 23.5 18 22.4838 18 21.25C18 20.4876 17.5877 19.8414 17 19.4336V8.06641C17.5877 7.65861 18 7.01244 18 6.25C18 5.01625 16.9838 4 15.75 4H14.2861C14.4182 3.67795 14.5 3.34102 14.5 3C14.5 2.39583 14.3022 1.78159 13.873 1.29883C13.4439 0.816067 12.7708 0.5 12 0.5ZM12 2C12.3958 2 12.5977 2.12143 12.752 2.29492C12.9062 2.46841 13 2.72917 13 3C13 3.27083 12.9062 3.53159 12.752 3.70508C12.5977 3.87857 12.3958 4 12 4C11.6042 4 11.4023 3.87857 11.248 3.70508C11.0938 3.53159 11 3.27083 11 3C11 2.72917 11.0938 2.46841 11.248 2.29492C11.4023 2.12143 11.6042 2 12 2ZM8.25 5.5H12H15.75C16.1732 5.5 16.5 5.82675 16.5 6.25C16.5 6.67325 16.1732 7 15.75 7H8.25C7.82675 7 7.5 6.67325 7.5 6.25C7.5 5.82675 7.82675 5.5 8.25 5.5ZM8.5 8.5H11.0898L8.5 11.7373V8.5ZM13.0107 8.5H15.0967L8.5 16.8564V14.1377L13.0107 8.5ZM15.5 10.4111V13.0225L10.7822 19H8.71875L15.5 10.4111ZM15.5 15.4443V19H12.6924L15.5 15.4443ZM8.25 20.5H15.75C16.1732 20.5 16.5 20.8267 16.5 21.25C16.5 21.6733 16.1732 22 15.75 22H8.25C7.82675 22 7.5 21.6733 7.5 21.25C7.5 20.8267 7.82675 20.5 8.25 20.5Z" fill="black"/>
</svg>
