<svg width="24" height="24" viewBox="0 0 24 24" fill="none" xmlns="http://www.w3.org/2000/svg">
<path d="M8.5 8.5C6.58308 8.5 5.55077 9.67495 4.69531 10.3271C4.26758 10.6532 3.88507 10.8737 3.35449 10.9531C2.82391 11.0325 2.10117 10.968 1.02051 10.5508C0.906897 10.5069 0.784301 10.4913 0.663316 10.5054C0.54233 10.5195 0.426596 10.5628 0.326116 10.6316C0.225636 10.7005 0.143434 10.7928 0.0866141 10.9005C0.0297942 11.0082 6.63245e-05 11.1282 0 11.25C0 13.3828 1.39411 14.7998 2.92188 15.543C4.44964 16.2862 6.14363 16.5 7.25 16.5C8.87125 16.5 10.1695 16.1089 11.0879 15.3887C11.4864 15.0762 11.767 14.6776 12 14.2607C12.233 14.6776 12.5136 15.0762 12.9121 15.3887C13.8305 16.1089 15.1287 16.5 16.75 16.5C17.8564 16.5 19.5504 16.2862 21.0781 15.543C22.6059 14.7998 24 13.3828 24 11.25C23.9999 11.1282 23.9702 11.0082 23.9134 10.9005C23.8566 10.7928 23.7744 10.7005 23.6739 10.6316C23.5734 10.5628 23.4577 10.5195 23.3367 10.5054C23.2157 10.4913 23.0931 10.5069 22.9795 10.5508C21.8988 10.968 21.1761 11.0325 20.6455 10.9531C20.1149 10.8737 19.7324 10.6532 19.3047 10.3271C18.4492 9.67495 17.4169 8.5 15.5 8.5C13.968 8.5 12.6713 9.40019 12 10.6729C11.3287 9.40019 10.032 8.5 8.5 8.5Z" fill="black"/>
</svg>
