<svg width="24" height="24" viewBox="0 0 24 24" fill="none" xmlns="http://www.w3.org/2000/svg">
<path d="M12 1C9.84422 1 7.87826 1.65735 6.41992 2.76367C4.96159 3.87 4 5.46407 4 7.25C4 9.03593 4.96159 10.63 6.41992 11.7363C6.82618 12.0445 7.27476 12.3138 7.75293 12.5479C5.66481 13.1308 4.09925 14.1727 4.0127 15.626C4.00503 15.6669 4.00078 15.7084 4 15.75V18.75C4 19.8024 4.70615 20.8621 6.0166 21.6582C7.32706 22.4543 9.27407 23 12 23C14.7259 23 16.6729 22.4543 17.9834 21.6582C19.2939 20.8621 20 19.8024 20 18.75V15.75C20 14.2304 18.3954 13.1476 16.2471 12.5479C16.7252 12.3138 17.1738 12.0445 17.5801 11.7363C19.0384 10.63 20 9.03593 20 7.25C20 5.46407 19.0384 3.87 17.5801 2.76367C16.1217 1.65735 14.1558 1 12 1ZM12 2.5C13.8483 2.5 15.5072 3.07372 16.6729 3.95801C17.8385 4.84229 18.5 5.99837 18.5 7.25C18.5 8.50164 17.8385 9.65771 16.6729 10.542C15.5072 11.4263 13.8483 12 12 12C10.1517 12 8.4928 11.4263 7.32715 10.542C6.1615 9.65771 5.5 8.50164 5.5 7.25C5.5 5.99837 6.1615 4.84229 7.32715 3.95801C8.4928 3.07372 10.1517 2.5 12 2.5ZM12.2676 3.99316C12.0984 3.99131 11.9335 4.04672 11.7998 4.15039L7.79981 7.15039C7.7181 7.20838 7.64883 7.28215 7.5961 7.36735C7.54337 7.45255 7.50825 7.54744 7.4928 7.64644C7.47735 7.74544 7.4819 7.84653 7.50616 7.94374C7.53043 8.04095 7.57392 8.13232 7.63408 8.21244C7.69424 8.29257 7.76984 8.35983 7.85643 8.41025C7.94301 8.46067 8.03881 8.49324 8.13819 8.50603C8.23757 8.51881 8.3385 8.51156 8.43502 8.48469C8.53155 8.45783 8.62171 8.4119 8.7002 8.34961L12.7002 5.34961C12.8276 5.25687 12.9226 5.12635 12.9716 4.97658C13.0206 4.82682 13.0213 4.66541 12.9734 4.51527C12.9255 4.36514 12.8315 4.23389 12.7048 4.14017C12.5781 4.04645 12.4252 3.99502 12.2676 3.99316ZM15.7676 5.49316C15.5984 5.49131 15.4335 5.54672 15.2998 5.65039L11.2998 8.65039C11.2181 8.70838 11.1488 8.78215 11.0961 8.86735C11.0434 8.95254 11.0082 9.04744 10.9928 9.14644C10.9774 9.24544 10.9819 9.34653 11.0062 9.44374C11.0304 9.54095 11.0739 9.63232 11.1341 9.71244C11.1942 9.79257 11.2698 9.85983 11.3564 9.91025C11.443 9.96067 11.5388 9.99324 11.6382 10.006C11.7376 10.0188 11.8385 10.0116 11.935 9.98469C12.0315 9.95783 12.1217 9.9119 12.2002 9.84961L16.2002 6.84961C16.3276 6.75687 16.4226 6.62635 16.4716 6.47658C16.5206 6.32682 16.5213 6.16541 16.4734 6.01527C16.4255 5.86514 16.3315 5.73389 16.2048 5.64017C16.0781 5.54645 15.9252 5.49502 15.7676 5.49316ZM12 13.5C15.968 13.5 18.5 14.8325 18.5 15.75C18.5 15.8029 18.4893 15.8577 18.4727 15.9131C18.4685 15.9273 18.4615 15.9424 18.4561 15.957C18.4417 15.9953 18.4233 16.0342 18.4014 16.0732C18.3858 16.1004 18.368 16.1285 18.3477 16.1572C18.3307 16.1818 18.3109 16.2066 18.291 16.2314C18.2566 16.2735 18.2194 16.3166 18.1738 16.3623C18.1595 16.3767 18.1441 16.3909 18.1289 16.4053C18.0749 16.4564 18.0146 16.5083 17.9473 16.5605C17.9288 16.5749 17.91 16.5892 17.8906 16.6035C17.8203 16.6556 17.7428 16.7077 17.6602 16.7598C17.6341 16.7761 17.6082 16.7924 17.5811 16.8086C17.5057 16.8538 17.4231 16.8981 17.3389 16.9424C17.2937 16.9659 17.2498 16.9895 17.2022 17.0127C17.1364 17.045 17.0654 17.0761 16.9951 17.1074C16.9218 17.14 16.8498 17.1726 16.7715 17.2041C16.7113 17.2283 16.6468 17.252 16.584 17.2754C16.4979 17.3076 16.4127 17.3394 16.3213 17.3701C16.1801 17.4173 16.0348 17.4631 15.8828 17.5059C15.8718 17.509 15.8617 17.5125 15.8506 17.5156C14.9521 17.7654 13.8757 17.9345 12.71 17.9844C12.4786 17.9939 12.2423 18 12 18C11.7577 18 11.5214 17.9939 11.29 17.9844C9.91176 17.9254 8.66085 17.6981 7.67871 17.3701C7.58733 17.3394 7.50215 17.3076 7.41602 17.2754C7.35317 17.252 7.28872 17.2283 7.22852 17.2041C7.15024 17.1726 7.07824 17.14 7.00488 17.1074C6.93465 17.0761 6.86358 17.045 6.79785 17.0127C6.75024 16.9895 6.70629 16.9659 6.66113 16.9424C6.57695 16.8981 6.49434 16.8538 6.41895 16.8086C6.39176 16.7924 6.36589 16.7761 6.33984 16.7598C6.25719 16.7077 6.17971 16.6556 6.10938 16.6035C6.09005 16.5892 6.07117 16.5749 6.05273 16.5605C5.98542 16.5083 5.9251 16.4564 5.87109 16.4053C5.85589 16.3909 5.84045 16.3767 5.82617 16.3623C5.7806 16.3166 5.74336 16.2735 5.70898 16.2314C5.68911 16.2066 5.66935 16.1818 5.65234 16.1572C5.632 16.1285 5.61416 16.1004 5.59863 16.0732C5.57669 16.0342 5.55829 15.9953 5.54395 15.957C5.5385 15.9424 5.53151 15.9273 5.52734 15.9131C5.5107 15.8577 5.5 15.8029 5.5 15.75C5.5 14.8325 8.032 13.5 12 13.5ZM12 14.5C10.098 14.5 8.62891 14.9158 7.71191 15.3643C7.42791 15.5028 7.42791 15.9972 7.71191 16.1357C8.62891 16.5842 10.098 17 12 17C13.902 17 15.3711 16.5842 16.2881 16.1357C16.5721 15.9972 16.5721 15.5028 16.2881 15.3643C15.3711 14.9158 13.902 14.5 12 14.5ZM5.5 18.001C5.74392 18.156 6.01743 18.2962 6.30566 18.4277C6.39429 18.4765 6.48641 18.5229 6.58691 18.5645C8.02346 19.1589 9.91415 19.5 12 19.5C14.0859 19.5 15.9765 19.1589 17.4131 18.5645C17.522 18.5194 17.6226 18.4694 17.7178 18.416C17.997 18.2875 18.2628 18.1517 18.5 18.001V18.75C18.5 19.0781 18.2061 19.7682 17.2041 20.377C16.2021 20.9857 14.5241 21.5 12 21.5C9.47593 21.5 7.79794 20.9857 6.7959 20.377C5.79385 19.7682 5.5 19.0781 5.5 18.75V18.001Z" fill="black"/>
</svg>
