<svg width="24" height="24" viewBox="0 0 24 24" fill="none" xmlns="http://www.w3.org/2000/svg">
<path d="M18.6475 1.50391C18.2195 1.47741 17.9908 1.99694 18.2998 2.29394C18.8713 2.84244 19.5863 3.53068 19.7773 3.72168C21.0023 4.94668 20.0087 8.68073 16.8447 11.8447C14.7592 13.9302 12.1691 15.2783 10.2461 15.2783C9.5661 15.2783 8.99911 14.8745 8.64161 14.6045C8.51661 14.5105 7.89835 13.8877 7.46485 13.4482C7.12135 13.0992 6.49803 13.3235 6.49903 13.8135V13.832C6.5045 14.1095 6.55723 14.3732 6.63868 14.624C5.56563 15.3848 4.38495 16.2768 3.58692 17.083C3.5866 17.083 3.58627 17.083 3.58594 17.083C2.82049 17.8567 2.29697 18.6739 2.08692 19.5127C1.87687 20.3514 2.04015 21.2703 2.65723 21.8936C3.32228 22.5657 4.30305 22.62 5.13966 22.3789C5.97626 22.1378 6.77649 21.6242 7.43946 20.9541C8.57742 19.8038 9.70768 18.1901 10.4981 16.9902C12.7754 16.8934 15.6322 15.4938 18.0635 13.0625C21.789 9.337 23.0506 4.65891 20.9951 2.50391C20.2936 1.76841 19.3655 1.54791 18.6475 1.50391ZM16.25 2C16.0581 2 15.8662 2.07323 15.7197 2.21973C15.4267 2.51223 15.4267 2.98777 15.7197 3.28027L17.2197 4.78027C17.3662 4.92677 17.558 5 17.75 5C17.942 5 18.1343 4.92677 18.2803 4.78027C18.5733 4.48777 18.5733 4.01223 18.2803 3.71973L16.7803 2.21973C16.6338 2.07323 16.4419 2 16.25 2ZM13.2422 2.99219C13.0929 2.99222 12.9471 3.03679 12.8233 3.12019C12.6995 3.20358 12.6034 3.32202 12.5473 3.46033C12.4912 3.59865 12.4776 3.75056 12.5084 3.89662C12.5391 4.04269 12.6127 4.17627 12.7197 4.28027L13.7197 5.28027C13.7888 5.35225 13.8716 5.40972 13.9632 5.4493C14.0548 5.48889 14.1534 5.5098 14.2532 5.51082C14.3529 5.51183 14.4519 5.49293 14.5443 5.45521C14.6367 5.4175 14.7206 5.36172 14.7912 5.29117C14.8617 5.22061 14.9175 5.13668 14.9552 5.0443C14.9929 4.95192 15.0118 4.85294 15.0108 4.75316C15.0098 4.65338 14.9889 4.5548 14.9493 4.46321C14.9097 4.37161 14.8523 4.28884 14.7803 4.21973L13.7803 3.21973C13.7104 3.14773 13.6267 3.0905 13.5343 3.05142C13.4419 3.01233 13.3425 2.99219 13.2422 2.99219ZM10.7871 5.03711C10.6379 5.03715 10.492 5.08171 10.3682 5.16511C10.2444 5.24851 10.1483 5.36694 10.0922 5.50525C10.0361 5.64357 10.0226 5.79548 10.0533 5.94155C10.084 6.08761 10.1576 6.22119 10.2647 6.32519L11.2197 7.28027C11.2888 7.35225 11.3716 7.40972 11.4632 7.4493C11.5548 7.48889 11.6534 7.5098 11.7532 7.51082C11.8529 7.51183 11.9519 7.49293 12.0443 7.45521C12.1367 7.41749 12.2206 7.36172 12.2912 7.29116C12.3617 7.22061 12.4175 7.13668 12.4552 7.0443C12.4929 6.95192 12.5118 6.85294 12.5108 6.75316C12.5098 6.65338 12.4889 6.5548 12.4493 6.46321C12.4097 6.37161 12.3523 6.28884 12.2803 6.21973L11.3252 5.26465C11.2553 5.19265 11.1716 5.13542 11.0792 5.09634C10.9868 5.05725 10.8875 5.03711 10.7871 5.03711ZM15.7422 5.49219C15.5929 5.49222 15.4471 5.53679 15.3233 5.62019C15.1995 5.70358 15.1034 5.82202 15.0473 5.96033C14.9912 6.09865 14.9776 6.25056 15.0084 6.39662C15.0391 6.54269 15.1127 6.67627 15.2197 6.78027L16.7197 8.28027C16.7888 8.35225 16.8716 8.40972 16.9632 8.4493C17.0548 8.48889 17.1534 8.5098 17.2532 8.51082C17.3529 8.51183 17.4519 8.49293 17.5443 8.45521C17.6367 8.41749 17.7206 8.36172 17.7912 8.29117C17.8617 8.22061 17.9175 8.13668 17.9552 8.0443C17.9929 7.95192 18.0118 7.85294 18.0108 7.75316C18.0098 7.65338 17.9889 7.5548 17.9493 7.46321C17.9097 7.37161 17.8523 7.28884 17.7803 7.21973L16.2803 5.71973C16.2104 5.64773 16.1267 5.5905 16.0343 5.55141C15.9419 5.51233 15.8425 5.49219 15.7422 5.49219ZM8.74219 7.49219C8.59293 7.49222 8.44708 7.53679 8.32329 7.62019C8.1995 7.70358 8.10341 7.82202 8.0473 7.96033C7.9912 8.09865 7.97764 8.25056 8.00836 8.39662C8.03907 8.54269 8.11267 8.67627 8.21973 8.78027L9.21973 9.78027C9.28884 9.85225 9.37162 9.90972 9.46321 9.9493C9.55481 9.98889 9.65338 10.0098 9.75316 10.0108C9.85294 10.0118 9.95192 9.99293 10.0443 9.95521C10.1367 9.91749 10.2206 9.86172 10.2912 9.79117C10.3617 9.72061 10.4175 9.63668 10.4552 9.5443C10.4929 9.45192 10.5118 9.35294 10.5108 9.25316C10.5098 9.15338 10.4889 9.0548 10.4493 8.96321C10.4097 8.87161 10.3523 8.78884 10.2803 8.71973L9.28028 7.71973C9.21037 7.64773 9.12673 7.5905 9.0343 7.55141C8.94187 7.51233 8.84255 7.49219 8.74219 7.49219ZM13.7422 7.99219C13.5929 7.99222 13.4471 8.03679 13.3233 8.12019C13.1995 8.20358 13.1034 8.32202 13.0473 8.46033C12.9912 8.59865 12.9776 8.75056 13.0084 8.89662C13.0391 9.04269 13.1127 9.17627 13.2197 9.28027L14.7197 10.7803C14.7888 10.8523 14.8716 10.9097 14.9632 10.9493C15.0548 10.9889 15.1534 11.0098 15.2532 11.0108C15.3529 11.0118 15.4519 10.9929 15.5443 10.9552C15.6367 10.9175 15.7206 10.8617 15.7912 10.7912C15.8617 10.7206 15.9175 10.6367 15.9552 10.5443C15.9929 10.4519 16.0118 10.3529 16.0108 10.2532C16.0098 10.1534 15.9889 10.0548 15.9493 9.96321C15.9097 9.87161 15.8523 9.78883 15.7803 9.71973L14.2803 8.21973C14.2104 8.14773 14.1267 8.0905 14.0343 8.05142C13.9419 8.01233 13.8425 7.99219 13.7422 7.99219ZM11.2422 9.99219C11.0929 9.99222 10.9471 10.0368 10.8233 10.1202C10.6995 10.2036 10.6034 10.322 10.5473 10.4603C10.4912 10.5986 10.4776 10.7506 10.5084 10.8966C10.5391 11.0427 10.6127 11.1763 10.7197 11.2803L12.2197 12.7803C12.2888 12.8523 12.3716 12.9097 12.4632 12.9493C12.5548 12.9889 12.6534 13.0098 12.7532 13.0108C12.8529 13.0118 12.9519 12.9929 13.0443 12.9552C13.1367 12.9175 13.2206 12.8617 13.2912 12.7912C13.3617 12.7206 13.4175 12.6367 13.4552 12.5443C13.4929 12.4519 13.5118 12.3529 13.5108 12.2532C13.5098 12.1534 13.4889 12.0548 13.4493 11.9632C13.4097 11.8716 13.3523 11.7888 13.2803 11.7197L11.7803 10.2197C11.7104 10.1477 11.6267 10.0905 11.5343 10.0514C11.4419 10.0123 11.3425 9.99219 11.2422 9.99219ZM8.25001 11C8.05813 11 7.86623 11.0732 7.71973 11.2197C7.42673 11.5122 7.42673 11.9878 7.71973 12.2803L9.21973 13.7803C9.36623 13.9268 9.55801 14 9.75001 14C9.94201 14 10.1343 13.9268 10.2803 13.7803C10.5733 13.4878 10.5733 13.0122 10.2803 12.7197L8.78028 11.2197C8.63378 11.0732 8.44188 11 8.25001 11ZM7.42676 15.9062C7.45373 15.9348 7.47629 15.9685 7.50391 15.9961C7.8715 16.3631 8.3206 16.6225 8.82813 16.7871C8.10054 17.8473 7.18975 19.0738 6.37305 19.8994C5.87502 20.4028 5.24254 20.788 4.72364 20.9375C4.20474 21.087 3.90759 21.0248 3.72364 20.8389C3.72364 20.8385 3.72364 20.8382 3.72364 20.8379C3.49173 20.6037 3.42367 20.3495 3.542 19.877C3.66033 19.4045 4.02431 18.7725 4.65235 18.1377C5.29421 17.4893 6.40043 16.641 7.42676 15.9062Z" fill="black"/>
</svg>
