<svg width="24" height="24" viewBox="0 0 24 24" fill="none" xmlns="http://www.w3.org/2000/svg">
<path d="M11.998 2.49512C11.9402 2.49512 11.8835 2.50158 11.8262 2.50391C11.8009 2.50131 11.7754 2.50001 11.75 2.5H9.75C6.58319 2.5 4 5.08319 4 8.25V13.335L2.39746 13.0146C2.34827 13.0048 2.29822 12.9999 2.24805 13C2.04948 13.0005 1.85923 13.0798 1.719 13.2204C1.57877 13.361 1.50002 13.5514 1.5 13.75C1.5 17.7649 3.55878 19.9263 4.88086 20.8408C5.50771 21.2738 6.25078 21.5 7.00684 21.5H16.9932C17.7492 21.5 18.4915 21.2746 19.1182 20.8418C20.4409 19.9272 22.5 17.7649 22.5 13.75C22.5 13.639 22.4753 13.5294 22.4278 13.4291C22.3803 13.3288 22.3112 13.2403 22.2253 13.1699C22.1395 13.0996 22.0391 13.0492 21.9314 13.0223C21.8237 12.9955 21.7114 12.9928 21.6025 13.0146L17.4941 13.8369C16.7678 13.9819 16.1015 14.3389 15.5781 14.8623L14.5986 15.8408C14.176 16.2631 13.6047 16.5 13.0078 16.5H10.9932C10.3957 16.5 9.82339 16.2628 9.40137 15.8408L8.42285 14.8623C7.89965 14.3391 7.23282 13.982 6.50684 13.8369L5.5 13.6357V8.25C5.5 6.26093 6.85136 4.60656 8.68945 4.1377C8.25102 4.73721 7.99121 5.46317 7.99121 6.25195C7.99123 6.45086 8.07026 6.64161 8.2109 6.78226C8.35155 6.92291 8.5423 7.00193 8.74121 7.00195H15.2549C15.4538 7.00193 15.6445 6.92291 15.7852 6.78226C15.9258 6.64161 16.0049 6.45086 16.0049 6.25195C16.0049 4.15206 14.1707 2.49512 11.998 2.49512ZM11.998 3.99512C13.1148 3.99512 14.0004 4.63816 14.3398 5.50195H9.65625C9.99569 4.63829 10.8814 3.99512 11.998 3.99512ZM9.5 8C9.36739 8 9.24021 8.05268 9.14645 8.14645C9.05268 8.24021 9 8.36739 9 8.5C9 8.63261 9.05268 8.75979 9.14645 8.85355C9.24021 8.94732 9.36739 9 9.5 9C9.63261 9 9.75979 8.94732 9.85355 8.85355C9.94732 8.75979 10 8.63261 10 8.5C10 8.36739 9.94732 8.24021 9.85355 8.14645C9.75979 8.05268 9.63261 8 9.5 8ZM12 8C11.8674 8 11.7402 8.05268 11.6464 8.14645C11.5527 8.24021 11.5 8.36739 11.5 8.5C11.5 8.63261 11.5527 8.75979 11.6464 8.85355C11.7402 8.94732 11.8674 9 12 9C12.1326 9 12.2598 8.94732 12.3536 8.85355C12.4473 8.75979 12.5 8.63261 12.5 8.5C12.5 8.36739 12.4473 8.24021 12.3536 8.14645C12.2598 8.05268 12.1326 8 12 8ZM14.5 8C14.3674 8 14.2402 8.05268 14.1464 8.14645C14.0527 8.24021 14 8.36739 14 8.5C14 8.63261 14.0527 8.75979 14.1464 8.85355C14.2402 8.94732 14.3674 9 14.5 9C14.6326 9 14.7598 8.94732 14.8536 8.85355C14.9473 8.75979 15 8.63261 15 8.5C15 8.36739 14.9473 8.24021 14.8536 8.14645C14.7598 8.05268 14.6326 8 14.5 8ZM9.5 10C9.36739 10 9.24021 10.0527 9.14645 10.1464C9.05268 10.2402 9 10.3674 9 10.5C9 10.6326 9.05268 10.7598 9.14645 10.8536C9.24021 10.9473 9.36739 11 9.5 11C9.63261 11 9.75979 10.9473 9.85355 10.8536C9.94732 10.7598 10 10.6326 10 10.5C10 10.3674 9.94732 10.2402 9.85355 10.1464C9.75979 10.0527 9.63261 10 9.5 10ZM12 10C11.8674 10 11.7402 10.0527 11.6464 10.1464C11.5527 10.2402 11.5 10.3674 11.5 10.5C11.5 10.6326 11.5527 10.7598 11.6464 10.8536C11.7402 10.9473 11.8674 11 12 11C12.1326 11 12.2598 10.9473 12.3536 10.8536C12.4473 10.7598 12.5 10.6326 12.5 10.5C12.5 10.3674 12.4473 10.2402 12.3536 10.1464C12.2598 10.0527 12.1326 10 12 10ZM14.5 10C14.3674 10 14.2402 10.0527 14.1464 10.1464C14.0527 10.2402 14 10.3674 14 10.5C14 10.6326 14.0527 10.7598 14.1464 10.8536C14.2402 10.9473 14.3674 11 14.5 11C14.6326 11 14.7598 10.9473 14.8536 10.8536C14.9473 10.7598 15 10.6326 15 10.5C15 10.3674 14.9473 10.2402 14.8536 10.1464C14.7598 10.0527 14.6326 10 14.5 10ZM9.5 12C9.36739 12 9.24021 12.0527 9.14645 12.1464C9.05268 12.2402 9 12.3674 9 12.5C9 12.6326 9.05268 12.7598 9.14645 12.8536C9.24021 12.9473 9.36739 13 9.5 13C9.63261 13 9.75979 12.9473 9.85355 12.8536C9.94732 12.7598 10 12.6326 10 12.5C10 12.3674 9.94732 12.2402 9.85355 12.1464C9.75979 12.0527 9.63261 12 9.5 12ZM12 12C11.8674 12 11.7402 12.0527 11.6464 12.1464C11.5527 12.2402 11.5 12.3674 11.5 12.5C11.5 12.6326 11.5527 12.7598 11.6464 12.8536C11.7402 12.9473 11.8674 13 12 13C12.1326 13 12.2598 12.9473 12.3536 12.8536C12.4473 12.7598 12.5 12.6326 12.5 12.5C12.5 12.3674 12.4473 12.2402 12.3536 12.1464C12.2598 12.0527 12.1326 12 12 12ZM14.5 12C14.3674 12 14.2402 12.0527 14.1464 12.1464C14.0527 12.2402 14 12.3674 14 12.5C14 12.6326 14.0527 12.7598 14.1464 12.8536C14.2402 12.9473 14.3674 13 14.5 13C14.6326 13 14.7598 12.9473 14.8536 12.8536C14.9473 12.7598 15 12.6326 15 12.5C15 12.3674 14.9473 12.2402 14.8536 12.1464C14.7598 12.0527 14.6326 12 14.5 12Z" fill="black"/>
</svg>
