<svg width="24" height="24" viewBox="0 0 24 24" fill="none" xmlns="http://www.w3.org/2000/svg">
<g clip-path="url(#clip0_569_21)">
<path d="M15.8379 1.97754C15.4141 1.9651 15.0019 2.00658 14.6162 2.07617C13.4394 2.28848 12.64 2.69358 12.2383 2.91406C11.8232 2.69871 10.9679 2.2885 9.70605 2.09277C8.88815 1.9659 7.96034 1.95917 7.04492 2.26953C6.12951 2.57988 5.24544 3.22727 4.5957 4.28125C4.22801 4.87804 3.99275 5.64853 3.80469 6.31543C3.65917 6.83146 3.60821 7.08216 3.56934 7.25781C3.37574 7.37972 3.08285 7.54215 2.5752 8.01269C1.92186 8.61826 1.17237 9.48484 1.00684 10.6436C1.00684 10.6439 1.00684 10.6442 1.00684 10.6445C0.888718 11.4727 1.07876 12.111 1.29297 12.5644C0.768057 13.0162 -0.000976562 13.8194 -0.000976562 15.25C-0.000976562 16.6929 0.711298 17.5123 1.12207 17.9189C0.967413 18.4003 0.814249 19.1462 1.28125 20.084C1.88329 21.2932 3.01413 21.4178 3.41016 21.4424C3.52238 21.547 3.62593 21.6598 3.94141 21.8711C4.38043 22.1651 4.98325 22.5 5.73438 22.5C6.35988 22.5 6.85573 22.3394 7.19531 22.1689C7.32077 22.106 7.42407 22.0387 7.51367 21.9756C8.92689 22.6139 10.5423 23 12 23C13.5039 23 15.1743 22.588 16.6182 21.9131C16.6723 21.9461 16.7259 21.9795 16.7881 22.0107C17.1277 22.1812 17.6235 22.3408 18.249 22.3408C19.0001 22.3408 19.603 22.0059 20.042 21.7119C20.3575 21.5006 20.461 21.3878 20.5732 21.2832C20.9694 21.2587 22.1 21.1341 22.7021 19.9248C23.1686 18.9876 23.0159 18.2423 22.8613 17.7607C23.2715 17.3548 23.9844 16.5347 23.9844 15.0908C23.9844 13.6608 23.2154 12.8583 22.6904 12.4062C22.9047 11.9529 23.0947 11.3132 22.9766 10.4853C22.811 9.32664 22.0615 8.45908 21.4082 7.85351C20.8989 7.38142 20.6034 7.21666 20.4111 7.0957C20.3707 6.92472 20.3148 6.67275 20.166 6.1582C19.9749 5.49737 19.7355 4.73171 19.4014 4.14453C18.8208 3.12406 17.9934 2.49298 17.1289 2.20214C16.6967 2.05673 16.2616 1.98997 15.8379 1.97754ZM15.79 3.47949C16.089 3.48814 16.3805 3.53288 16.6514 3.62402C17.1931 3.80629 17.6782 4.14944 18.0977 4.88672C18.2865 5.21853 18.5474 5.95902 18.7256 6.57519C18.9038 7.19137 19.0186 7.69531 19.0186 7.69531C19.0413 7.79515 19.0842 7.88929 19.1446 7.97192C19.2051 8.05455 19.2818 8.12393 19.3701 8.17578C19.3701 8.17578 19.8613 8.46617 20.3877 8.9541C20.9141 9.44203 21.4067 10.106 21.4912 10.6973C21.6297 11.6653 21.2061 12.0332 21.2061 12.0332C21.1316 12.1114 21.0749 12.2048 21.0398 12.307C21.0048 12.4091 20.9922 12.5176 21.0029 12.6251C21.0137 12.7326 21.0475 12.8365 21.1021 12.9296C21.1567 13.0228 21.2308 13.1031 21.3193 13.165C21.3193 13.165 22.4844 14.0856 22.4844 15.0908C22.4844 16.1898 21.5566 16.9922 21.5566 16.9922C21.4252 17.0995 21.334 17.2482 21.298 17.4141C21.262 17.5799 21.2833 17.7531 21.3584 17.9053C21.3584 17.9053 21.6808 18.611 21.3594 19.2568C21.1304 19.7168 20.2217 19.8369 20.2217 19.8369C20.0318 19.844 19.8517 19.9229 19.7178 20.0576C19.7178 20.0576 19.518 20.2576 19.207 20.4658C18.958 20.6326 18.6564 20.7682 18.417 20.8174C18.6646 20.619 18.8987 20.412 19.1016 20.1865C19.6254 19.6044 19.999 18.8996 19.999 18.1103V13.7275V13.7266C19.9993 11.6667 19.0645 9.58574 17.21 8.64453C17.0681 8.53599 16.8922 8.48162 16.7139 8.49121C16.66 8.49425 16.6066 8.50309 16.5547 8.51757C16.5537 8.5179 16.5527 8.51822 16.5518 8.51855C16.5323 8.52396 16.5131 8.53015 16.4941 8.53711C16.374 8.57853 16.2663 8.64983 16.1812 8.74429C16.0961 8.83876 16.0365 8.95329 16.0078 9.07714C15.6446 9.91058 15.6723 10.7247 15.8242 11.5H15.6006L13.3252 8.76953C13.2309 8.65662 13.1054 8.57395 12.9645 8.53179C12.8236 8.48963 12.6733 8.48984 12.5325 8.53241C12.3917 8.57498 12.2665 8.65802 12.1725 8.7712C12.0785 8.88438 12.0199 9.0227 12.0039 9.16894C11.9027 10.1033 11.9834 11.0507 12.1299 12H11.9092L9.88086 8.84472C9.79339 8.70806 9.66396 8.60344 9.51199 8.54657C9.36002 8.4897 9.19371 8.48364 9.038 8.5293C8.8823 8.57497 8.7456 8.6699 8.64842 8.79984C8.55124 8.92978 8.49882 9.08773 8.49902 9.25V12H8.25488L7.25879 9.54492C7.26588 9.39261 7.22638 9.24177 7.14557 9.11248C7.06475 8.98319 6.94646 8.8816 6.80644 8.82125C6.66643 8.76089 6.51135 8.74464 6.36186 8.77466C6.21238 8.80467 6.07559 8.87953 5.96973 8.98925C4.75409 10.2032 3.99902 11.8823 3.99902 13.7266V18.1103C3.99902 18.8997 4.37347 19.6044 4.89746 20.1865C5.1612 20.4795 5.46694 20.7484 5.80371 20.9961C5.77971 20.9969 5.75945 21 5.73438 21C5.4855 21 5.08734 20.8332 4.77637 20.625C4.46539 20.4167 4.26562 20.2168 4.26562 20.2168C4.13167 20.0821 3.95158 20.0032 3.76172 19.9961C3.76172 19.9961 2.85314 19.8762 2.62402 19.416C2.30275 18.7709 2.62598 18.0644 2.62598 18.0644C2.7011 17.9123 2.7224 17.7391 2.6864 17.5733C2.65039 17.4074 2.5592 17.2587 2.42773 17.1514C2.42773 17.1514 1.49902 16.3488 1.49902 15.25C1.49902 14.2448 2.66406 13.3242 2.66406 13.3242C2.75256 13.2623 2.82665 13.182 2.88126 13.0888C2.93586 12.9956 2.9697 12.8918 2.98046 12.7843C2.99122 12.6768 2.97864 12.5683 2.94358 12.4661C2.90852 12.364 2.85182 12.2706 2.77734 12.1924C2.77734 12.1924 2.35408 11.8238 2.49219 10.8555C2.57699 10.2644 3.06953 9.60099 3.5957 9.11328C4.12212 8.62535 4.61328 8.33496 4.61328 8.33496C4.70338 8.28212 4.78145 8.21105 4.8425 8.1263C4.90354 8.04154 4.94621 7.94497 4.96777 7.84277C4.96777 7.84277 5.07473 7.33725 5.24805 6.72265C5.42136 6.10805 5.68526 5.37156 5.87207 5.06836C6.35508 4.28483 6.91399 3.89804 7.52637 3.69043C8.13875 3.48281 8.82378 3.47394 9.47656 3.57519C10.7229 3.76851 11.7167 4.31737 11.8096 4.36914C11.9417 4.46187 12.1003 4.50948 12.2617 4.50488C12.4219 4.50411 12.5776 4.45209 12.7061 4.35644C12.8006 4.30098 13.7349 3.75982 14.8828 3.55273C15.1846 3.49829 15.4911 3.47084 15.79 3.47949ZM17.1641 10.4277C18.0069 11.1857 18.4994 12.4225 18.499 13.7266V18.1103C18.499 18.4214 18.3477 18.7832 17.9873 19.1836C17.627 19.584 17.0719 19.9932 16.4131 20.3428C15.0955 21.0418 13.3608 21.5 12 21.5C10.6395 21.5 8.90388 21.0419 7.58594 20.3428C6.92697 19.9932 6.37317 19.584 6.0127 19.1836C5.65222 18.7831 5.49902 18.4213 5.49902 18.1103V13.7266C5.49902 12.7448 5.77628 11.8335 6.25098 11.0508L7.05469 13.0322C7.11081 13.1704 7.20685 13.2887 7.33052 13.372C7.4542 13.4553 7.5999 13.4999 7.74902 13.5H9.24902C9.44793 13.5 9.63868 13.421 9.77933 13.2803C9.91998 13.1397 9.999 12.9489 9.99902 12.75V11.8037L10.8682 13.1553C10.936 13.261 11.0294 13.3479 11.1396 13.4081C11.2498 13.4684 11.3734 13.5 11.499 13.5H12.999C13.1108 13.5001 13.2213 13.4752 13.3222 13.4271C13.4232 13.3791 13.5121 13.309 13.5825 13.2222C13.6529 13.1353 13.703 13.0338 13.7291 12.925C13.7552 12.8163 13.7567 12.7031 13.7334 12.5937C13.6451 12.1807 13.5999 11.783 13.5518 11.3848L14.6729 12.7305C14.7433 12.8149 14.8314 12.8828 14.931 12.9293C15.0305 12.9759 15.1391 13 15.249 13H16.749C16.8718 13.0001 16.9927 12.97 17.1012 12.9125C17.2096 12.8549 17.3023 12.7716 17.371 12.6699C17.4397 12.5682 17.4825 12.4512 17.4954 12.3291C17.5084 12.207 17.4912 12.0836 17.4453 11.9697C17.2225 11.4172 17.1068 10.9301 17.1641 10.4277ZM7.99902 14C7.73381 14 7.47945 14.1054 7.29192 14.2929C7.10438 14.4804 6.99902 14.7348 6.99902 15C6.99902 15.2652 7.10438 15.5196 7.29192 15.7071C7.47945 15.8946 7.73381 16 7.99902 16C8.26424 16 8.51859 15.8946 8.70613 15.7071C8.89367 15.5196 8.99902 15.2652 8.99902 15C8.99902 14.7348 8.89367 14.4804 8.70613 14.2929C8.51859 14.1054 8.26424 14 7.99902 14ZM15.998 14C15.7328 14 15.4785 14.1054 15.2909 14.2929C15.1034 14.4804 14.998 14.7348 14.998 15C14.998 15.2652 15.1034 15.5196 15.2909 15.7071C15.4785 15.8946 15.7328 16 15.998 16C16.2633 16 16.5176 15.8946 16.7052 15.7071C16.8927 15.5196 16.998 15.2652 16.998 15C16.998 14.7348 16.8927 14.4804 16.7052 14.2929C16.5176 14.1054 16.2633 14 15.998 14ZM10.5166 17.7471C10.3352 17.7403 10.1574 17.7995 10.0163 17.9138C9.87524 18.028 9.7804 18.1896 9.74939 18.3685C9.71838 18.5474 9.75331 18.7315 9.84771 18.8866C9.9421 19.0417 10.0896 19.1573 10.2627 19.2119L11.7627 19.7119C11.9164 19.7631 12.0826 19.7631 12.2363 19.7119L13.7363 19.2119C13.8298 19.1808 13.9163 19.1316 13.9908 19.0671C14.0653 19.0026 14.1263 18.9241 14.1705 18.836C14.2146 18.7479 14.2409 18.6519 14.248 18.5536C14.255 18.4553 14.2427 18.3566 14.2116 18.2631C14.1804 18.1696 14.1312 18.0832 14.0667 18.0087C14.0022 17.9342 13.9236 17.8732 13.8355 17.8291C13.7474 17.785 13.6515 17.7586 13.5532 17.7516C13.4549 17.7446 13.3562 17.757 13.2627 17.7881L11.999 18.209L10.7363 17.7881C10.6655 17.7635 10.5915 17.7497 10.5166 17.7471Z" fill="black"/>
</g>
<defs>
<clipPath id="clip0_569_21">
<rect width="24" height="24" fill="white"/>
</clipPath>
</defs>
</svg>
