<svg width="24" height="24" viewBox="0 0 24 24" fill="none" xmlns="http://www.w3.org/2000/svg">
<path d="M12.0001 0.5C8.36957 0.5 3.50008 3.94281 3.50008 12.25V22.25C3.49867 22.3494 3.51703 22.4481 3.55409 22.5403C3.59115 22.6325 3.64617 22.7164 3.71595 22.7872C3.78574 22.858 3.86889 22.9142 3.96059 22.9526C4.05228 22.9909 4.15068 23.0107 4.25007 23.0107C4.34947 23.0107 4.44787 22.9909 4.53956 22.9526C4.63126 22.9142 4.71441 22.858 4.7842 22.7872C4.85398 22.7164 4.909 22.6325 4.94606 22.5403C4.98312 22.4481 5.00148 22.3494 5.00007 22.25V12.25C5.00007 4.51519 9.31259 2 12.0001 2H12.1378L12.6446 2.69336C12.7143 2.78847 12.8055 2.8658 12.9107 2.91908C13.0159 2.97236 13.1322 3.00008 13.2501 3C15.7988 3 17.2555 4.30591 18.2198 6.16211C19.1841 8.01831 19.5231 10.4254 19.5001 12.2402C19.5001 12.2435 19.5001 12.2467 19.5001 12.25V17.751C18.7707 17.3829 17.9186 17.1822 17.0001 17.1006V15.6191C17.0156 15.5319 17.0156 15.4427 17.0001 15.3555V11.75C17.0001 9.69973 15.808 7.94695 14.6846 6.69043C13.5613 5.43391 12.4337 4.6377 12.4337 4.6377C12.3102 4.5503 12.1631 4.5023 12.0118 4.5C11.8618 4.49749 11.7145 4.54001 11.5889 4.62207C11.5889 4.62207 7.00008 7.47898 7.00008 11.8779V15.3848C6.98919 15.4579 6.98919 15.5323 7.00008 15.6055V22.25C6.99867 22.3494 7.01703 22.4481 7.05409 22.5403C7.09115 22.6325 7.14617 22.7164 7.21596 22.7872C7.28574 22.858 7.36889 22.9142 7.46059 22.9526C7.55228 22.9909 7.65068 23.0107 7.75007 23.0107C7.84947 23.0107 7.94787 22.9909 8.03956 22.9526C8.13126 22.9142 8.21441 22.858 8.28419 22.7872C8.35398 22.7164 8.409 22.6325 8.44606 22.5403C8.48312 22.4481 8.50148 22.3494 8.50007 22.25V20.9434C8.70489 20.9327 8.98338 20.9389 9.27937 21.0059C9.86582 21.1385 10.4392 21.4172 10.7725 22.4531C10.8093 22.5909 10.8846 22.7154 10.9896 22.8119C11.0946 22.9084 11.2249 22.973 11.3653 22.998C11.366 22.998 11.3666 22.998 11.3673 22.998C11.3912 23.0025 11.4153 23.0057 11.4395 23.0078C11.4652 23.0098 11.4909 23.0104 11.5167 23.0098C11.6684 23.007 11.8157 22.9583 11.9391 22.8701C12.0626 22.7818 12.1563 22.6583 12.2081 22.5156C12.2167 22.4955 12.4211 22.0078 12.9171 21.5537C13.4232 21.0904 14.1136 20.7022 15.3331 20.9814C15.3878 20.9945 15.4438 21.0014 15.5001 21.002V22.25C15.4987 22.3494 15.517 22.4481 15.5541 22.5403C15.5912 22.6325 15.6462 22.7164 15.716 22.7872C15.7857 22.858 15.8689 22.9142 15.9606 22.9526C16.0523 22.9909 16.1507 23.0107 16.2501 23.0107C16.3495 23.0107 16.4479 22.9909 16.5396 22.9526C16.6313 22.9142 16.7144 22.858 16.7842 22.7872C16.854 22.7164 16.909 22.6325 16.9461 22.5403C16.9831 22.4481 17.0015 22.3494 17.0001 22.25V18.6074C18.0015 18.7247 18.852 18.9891 19.4083 19.4697C20.108 20.0743 20.5096 20.9393 20.5001 22.2441C20.4981 22.3434 20.5159 22.442 20.5523 22.5343C20.5888 22.6266 20.6432 22.7108 20.7124 22.7819C20.7816 22.853 20.8642 22.9097 20.9555 22.9487C21.0468 22.9877 21.1449 23.0081 21.2441 23.0089C21.3434 23.0097 21.4418 22.9907 21.5337 22.9532C21.6255 22.9157 21.7091 22.8603 21.7794 22.7902C21.8497 22.7202 21.9054 22.6369 21.9433 22.5452C21.9812 22.4534 22.0005 22.3551 22.0001 22.2559C22.0094 20.9714 21.6535 19.8547 21.0001 18.9951V12.2598C21.0256 10.2511 20.6875 7.65863 19.5509 5.4707C18.4711 3.39232 16.5201 1.72877 13.6768 1.5625L13.1231 0.806641C13.0534 0.711533 12.9623 0.634202 12.8571 0.580923C12.7519 0.527645 12.6356 0.49992 12.5177 0.5H12.0001ZM11.9942 6.25391C12.2941 6.48143 12.7783 6.80982 13.5655 7.69043C14.1171 8.30743 14.6413 9.04013 15.0069 9.81348C14.8758 9.81191 14.7469 9.81533 14.6231 9.82812C13.4879 9.94549 12.6876 10.6016 12.6876 10.6016C12.6343 10.6419 12.5897 10.6925 12.5563 10.7504C12.5229 10.8082 12.5014 10.8722 12.4932 10.9385C12.4849 11.0048 12.4901 11.0721 12.5083 11.1364C12.5264 11.2007 12.5573 11.2607 12.5991 11.3129C12.6409 11.365 12.6927 11.4083 12.7515 11.4401C12.8102 11.4719 12.8748 11.4916 12.9413 11.498C13.0078 11.5044 13.0749 11.4974 13.1387 11.4775C13.2025 11.4575 13.2616 11.425 13.3126 11.3818C13.3126 11.3818 13.5815 11.1734 14.0001 11.0088C14.0049 11.1407 14.0608 11.2656 14.1559 11.3572C14.2509 11.4489 14.3778 11.5 14.5098 11.5C14.5913 11.5 14.6716 11.4805 14.744 11.4431C14.8164 11.4057 14.8788 11.3515 14.926 11.2851C14.9731 11.2186 15.0037 11.1418 15.015 11.0611C15.0264 10.9804 15.0182 10.8982 14.9913 10.8213C15.1187 10.8218 15.2485 10.8366 15.3819 10.8613C15.4528 11.1576 15.5001 11.4547 15.5001 11.75V15.127C15.2404 15.3238 14.833 15.6243 14.254 15.9922C13.4067 16.5304 12.3112 17 12.0001 17C11.6889 17 10.5934 16.5304 9.74617 15.9922C9.16712 15.6243 8.7598 15.3238 8.50007 15.127V11.8779C8.50007 11.5279 8.5427 11.1894 8.61433 10.8623C8.74942 10.837 8.88087 10.8218 9.00984 10.8213C8.98291 10.8981 8.97476 10.9803 8.98608 11.0609C8.99739 11.1415 9.02784 11.2182 9.07487 11.2847C9.12191 11.3511 9.18416 11.4053 9.25644 11.4428C9.32871 11.4803 9.4089 11.4999 9.49031 11.5C9.62233 11.4998 9.74912 11.4483 9.844 11.3566C9.93889 11.2648 9.99449 11.1398 9.9991 11.0078C10.4183 11.1725 10.6876 11.3818 10.6876 11.3818C10.7386 11.425 10.7977 11.4575 10.8615 11.4775C10.9252 11.4974 10.9924 11.5044 11.0589 11.498C11.1254 11.4916 11.1899 11.4719 11.2487 11.4401C11.3075 11.4083 11.3593 11.365 11.401 11.3129C11.4428 11.2607 11.4737 11.2007 11.4919 11.1364C11.5101 11.0721 11.5152 11.0048 11.507 10.9385C11.4987 10.8722 11.4773 10.8082 11.4439 10.7504C11.4105 10.6925 11.3658 10.6419 11.3126 10.6016C11.3126 10.6016 10.5123 9.94549 9.37703 9.82812C9.24227 9.81419 9.10147 9.8112 8.95808 9.81445C9.78703 7.94141 11.4964 6.62344 11.9942 6.25391ZM11.5001 14C11.2161 14 10.7414 14.1758 10.4024 14.3193C10.3114 14.3533 10.2465 14.4347 10.2335 14.5312C10.2205 14.6278 10.2619 14.7238 10.3409 14.7803C10.7389 15.0738 11.4121 15.5 12.0001 15.5C12.6156 15.5 13.3255 15.0318 13.712 14.7363C13.7765 14.6883 13.8085 14.6098 13.797 14.5303C13.7854 14.4508 13.7313 14.3844 13.6563 14.3574C13.2938 14.2074 12.7416 14 12.5001 14C12.3141 14 12.1899 14.1231 12.1114 14.2471C12.0874 14.2781 12.0498 14.2955 12.0108 14.293C11.9718 14.2905 11.9371 14.2689 11.9171 14.2354C11.8536 14.1144 11.7291 14 11.5001 14ZM8.50007 16.9648C8.64359 17.0617 8.78433 17.158 8.94148 17.2578C9.86512 17.8446 10.8947 18.5 12.0001 18.5C13.1054 18.5 14.135 17.8446 15.0587 17.2578C15.2158 17.158 15.3566 17.0617 15.5001 16.9648V17.5C15.5003 17.5068 15.5006 17.5137 15.5011 17.5205C15.5003 17.5348 15.5 17.5491 15.5001 17.5635V17.627C15.4871 17.7068 15.4871 17.7883 15.5001 17.8682V19.502C13.9002 19.1962 12.6453 19.769 11.9044 20.4473C11.7564 20.5828 11.6984 20.7046 11.5821 20.8418C11.0155 20.108 10.2686 19.6918 9.61043 19.543C9.19004 19.4479 8.80969 19.4384 8.50007 19.4502V16.9648Z" fill="black"/>
</svg>
