<svg width="24" height="24" viewBox="0 0 24 24" fill="none" xmlns="http://www.w3.org/2000/svg">
<path d="M12.249 1.5C7.85962 1.5 3.49903 4.89966 3.49903 9.75C3.49903 11.4852 2.47493 14.3496 1.86427 16.8418C1.55894 18.0879 1.34429 19.2514 1.50392 20.293C1.58373 20.8137 1.77212 21.3212 2.13771 21.7256C2.50329 22.13 3.02974 22.3924 3.62794 22.4902C3.72523 22.5063 3.82474 22.5031 3.92077 22.4807C4.0168 22.4583 4.10747 22.4171 4.18759 22.3596C4.26771 22.3022 4.33571 22.2294 4.38769 22.1456C4.43968 22.0618 4.47463 21.9686 4.49055 21.8713C4.50647 21.774 4.50305 21.6745 4.48047 21.5785C4.4579 21.4825 4.41662 21.3919 4.35899 21.3119C4.30136 21.2319 4.22852 21.164 4.14464 21.1121C4.06076 21.0603 3.96747 21.0255 3.87013 21.0098C3.53082 20.9543 3.36978 20.8522 3.25001 20.7197C3.13024 20.5872 3.03543 20.3858 2.98634 20.0654C2.88815 19.4248 3.03288 18.3763 3.3213 17.1992C3.89814 14.845 4.99903 12.0163 4.99903 9.75C4.99903 5.80934 8.63545 3 12.249 3C15.8757 3 19.499 5.69428 19.499 9.75C19.499 11.8786 20.7748 14.4598 21.4863 16.751C21.8421 17.8966 22.0522 18.9472 21.9824 19.6729C21.9127 20.3985 21.7175 20.7649 20.9785 21.0508C20.8838 21.0841 20.7967 21.1362 20.7224 21.2038C20.6482 21.2714 20.5883 21.3533 20.5463 21.4445C20.5042 21.5358 20.481 21.6345 20.4778 21.7349C20.4747 21.8353 20.4918 21.9353 20.528 22.0289C20.5642 22.1226 20.6189 22.2081 20.6888 22.2802C20.7587 22.3523 20.8424 22.4097 20.9348 22.4489C21.0273 22.4881 21.1267 22.5083 21.2272 22.5084C21.3276 22.5084 21.427 22.4883 21.5195 22.4492C22.7194 21.9851 23.3693 20.9228 23.4756 19.8164C23.5819 18.71 23.2979 17.5257 22.919 16.3057C22.1612 13.8656 20.999 11.1964 20.999 9.75C20.999 4.80572 16.6254 1.5 12.249 1.5ZM11.835 5.93457C11.4431 5.93589 11.0485 5.96873 10.6533 6.02832C10.6416 6.02999 10.6298 6.03195 10.6182 6.03418C10.6182 6.03418 9.34315 6.2863 8.14454 7.26855C6.94594 8.25081 5.80534 10.0481 6.01271 12.8232C6.26711 16.2298 6.72329 17.5401 7.12989 18.1729C7.26507 18.3835 7.4325 18.5757 7.73243 18.8945C8.03236 19.2134 8.43066 19.5998 8.90333 19.9805C8.93296 20.0043 8.96883 20.0269 8.99903 20.0508V22.25C8.99763 22.3494 9.01599 22.4481 9.05305 22.5403C9.09011 22.6325 9.14513 22.7164 9.21491 22.7872C9.2847 22.858 9.36785 22.9142 9.45954 22.9526C9.55124 22.9909 9.64964 23.0107 9.74903 23.0107C9.84843 23.0107 9.94683 22.9909 10.0385 22.9526C10.1302 22.9142 10.2134 22.858 10.2832 22.7872C10.3529 22.7164 10.408 22.6325 10.445 22.5403C10.4821 22.4481 10.5004 22.3494 10.499 22.25V21.0195C11.1112 21.3158 11.7845 21.5172 12.5039 21.5186C13.2184 21.5303 13.8873 21.3246 14.499 21.0195V22.25C14.4976 22.3494 14.516 22.4481 14.5531 22.5403C14.5901 22.6325 14.6451 22.7164 14.7149 22.7872C14.7847 22.858 14.8679 22.9142 14.9595 22.9526C15.0512 22.9909 15.1496 23.0107 15.249 23.0107C15.3484 23.0107 15.4468 22.9909 15.5385 22.9526C15.6302 22.9142 15.7134 22.858 15.7832 22.7872C15.8529 22.7164 15.908 22.6325 15.945 22.5403C15.9821 22.4481 16.0004 22.3494 15.999 22.25V20.0322C16.0225 20.0135 16.0501 19.9953 16.0733 19.9766C17.0264 19.2077 17.6643 18.4684 17.8506 18.2314C18.0208 18.0151 18.0307 17.9144 18.0859 17.7559C18.1412 17.5973 18.1955 17.4121 18.252 17.1943C18.3649 16.7587 18.4848 16.1966 18.5967 15.5479C18.8204 14.2504 19.0108 12.6128 19.0108 11.0176C19.0107 10.8677 18.9658 10.7212 18.8817 10.5971C18.7976 10.473 18.6783 10.3769 18.5391 10.3213C15.0123 8.91056 13.5147 6.38574 13.5147 6.38574C13.4595 6.29324 13.3851 6.2137 13.2964 6.15253C13.2078 6.09136 13.107 6.05 13.001 6.03125C12.616 5.96344 12.2269 5.93325 11.835 5.93457ZM11.7295 7.45312C11.9992 7.45469 12.2612 7.47529 12.5186 7.50879C12.8395 7.99645 14.2965 9.98956 17.4717 11.4395C17.4409 12.782 17.31 14.186 17.1192 15.293C17.0133 15.9071 16.8986 16.4372 16.7998 16.8184C16.7504 17.0089 16.7046 17.1632 16.6699 17.2627C16.6554 17.3043 16.6382 17.3338 16.627 17.3535C16.53 17.4703 15.9218 18.1724 15.1318 18.8096C14.3025 19.4785 13.2683 20.0333 12.5244 20.0195C12.5199 20.0195 12.5153 20.0195 12.5108 20.0195C11.6815 20.0195 10.6573 19.467 9.84474 18.8125C9.43847 18.4853 9.08482 18.1422 8.82521 17.8662C8.56559 17.5902 8.36666 17.3219 8.39259 17.3623C8.39226 17.3623 8.39194 17.3623 8.39161 17.3623C8.28222 17.1921 7.75439 16.0004 7.5088 12.7119C7.33366 10.368 8.19572 9.16643 9.09474 8.42969C9.97989 7.70431 10.8669 7.51749 10.8945 7.51172C11.1825 7.46901 11.4598 7.45156 11.7295 7.45312ZM9.99903 12.5C9.44653 12.5 8.99903 12.9475 8.99903 13.5C8.99903 14.0525 9.44653 14.5 9.99903 14.5C10.5515 14.5 10.999 14.0525 10.999 13.5C10.999 12.9475 10.5515 12.5 9.99903 12.5ZM15.249 12.5C14.6965 12.5 14.249 12.9475 14.249 13.5C14.249 14.0525 14.6965 14.5 15.249 14.5C15.8015 14.5 16.249 14.0525 16.249 13.5C16.249 12.9475 15.8015 12.5 15.249 12.5ZM11.5977 16.5C11.4547 16.5 11.3212 16.5705 11.2402 16.6885C11.1592 16.8065 11.1419 16.9563 11.1934 17.0898C11.4239 17.6798 11.8585 18.5 12.499 18.5C13.1345 18.5 13.5682 17.6927 13.8262 17.1172C13.8922 16.9847 13.8851 16.8281 13.8076 16.7021C13.7296 16.5766 13.5923 16.5 13.4443 16.5H11.5977Z" fill="black"/>
</svg>
