<svg width="24" height="24" viewBox="0 0 24 24" fill="none" xmlns="http://www.w3.org/2000/svg">
<path d="M9.75007 2C8.24019 2 7.00007 3.24011 7.00007 4.75V7.30273C5.18584 8.7695 4.00008 10.99 4.00008 13.5V22.25C3.99867 22.3494 4.01703 22.4481 4.05409 22.5403C4.09115 22.6325 4.14617 22.7164 4.21595 22.7872C4.28574 22.858 4.36889 22.9142 4.46059 22.9526C4.55228 22.9909 4.65068 23.0107 4.75007 23.0107C4.84947 23.0107 4.94787 22.9909 5.03956 22.9526C5.13126 22.9142 5.21441 22.858 5.28419 22.7872C5.35398 22.7164 5.409 22.6325 5.44606 22.5403C5.48312 22.4481 5.50148 22.3494 5.50007 22.25V13.5C5.50007 11.9234 6.07053 10.4922 7.00007 9.36914V13.75C7.00007 15.8123 8.68782 17.5 10.7501 17.5H13.2501C15.3123 17.5 17.0001 15.8123 17.0001 13.75V9.37012C17.9295 10.4932 18.5001 11.9238 18.5001 13.5V22.25C18.4987 22.3494 18.517 22.4481 18.5541 22.5403C18.5912 22.6325 18.6462 22.7164 18.716 22.7872C18.7857 22.858 18.8689 22.9142 18.9606 22.9526C19.0523 22.9909 19.1507 23.0107 19.2501 23.0107C19.3495 23.0107 19.4479 22.9909 19.5396 22.9526C19.6313 22.9142 19.7144 22.858 19.7842 22.7872C19.854 22.7164 19.909 22.6325 19.9461 22.5403C19.9831 22.4481 20.0015 22.3494 20.0001 22.25V13.5C20.0001 10.99 18.8143 8.76948 17.0001 7.30273V4.75C17.0001 3.24011 15.76 2 14.2501 2H9.75007ZM9.75007 3.5H14.2501C14.9492 3.5 15.5001 4.05089 15.5001 4.75V7.51758C15.491 7.58465 15.491 7.65265 15.5001 7.71973V13.75C15.5001 15.0017 14.5018 16 13.2501 16H10.7501C9.49832 16 8.50007 15.0017 8.50007 13.75V7.72852C8.51086 7.65567 8.51086 7.58163 8.50007 7.50879V4.75C8.50007 4.05089 9.05096 3.5 9.75007 3.5ZM13.7384 4.48633C13.5396 4.48943 13.3502 4.5713 13.2118 4.71393C13.0734 4.85657 12.9972 5.04832 13.0001 5.24707V13.25C13.0001 13.3975 12.8976 13.5 12.7501 13.5H10.7501C10.6507 13.4986 10.552 13.517 10.4598 13.554C10.3676 13.5911 10.2836 13.6461 10.2128 13.7159C10.1421 13.7857 10.0859 13.8688 10.0475 13.9605C10.0091 14.0522 9.98939 14.1506 9.98939 14.25C9.98939 14.3494 10.0091 14.4478 10.0475 14.5395C10.0859 14.6312 10.1421 14.7143 10.2128 14.7841C10.2836 14.8539 10.3676 14.9089 10.4598 14.946C10.552 14.983 10.6507 15.0014 10.7501 15H12.7501C13.7076 15 14.5001 14.2075 14.5001 13.25V5.24707C14.5015 5.14669 14.4828 5.04704 14.445 4.95402C14.4072 4.86101 14.3512 4.77653 14.2801 4.70559C14.2091 4.63465 14.1245 4.57868 14.0315 4.54102C13.9384 4.50336 13.8387 4.48476 13.7384 4.48633Z" fill="black"/>
</svg>
