<svg width="24" height="24" viewBox="0 0 24 24" fill="none" xmlns="http://www.w3.org/2000/svg">
<path d="M12.0001 2.49707C9.78611 2.49707 7.94359 3.1993 6.58409 4.3418C4.32509 4.7373 2.64225 6.33595 1.86925 8.18945C1.09225 10.053 1.22233 12.2828 2.71983 13.7803C2.79083 13.8543 2.87631 13.9126 2.97081 13.9521C3.16981 14.9541 4.01896 15.7018 5.04796 15.9033C6.08996 19.5768 8.85111 21.5029 12.0001 21.5029C15.1491 21.5029 17.9108 19.5763 18.9523 15.9033C20.0023 15.6978 20.8607 14.9226 21.0372 13.8906C21.0862 13.8591 21.1315 13.8223 21.172 13.7803C22.6705 12.2818 22.8086 10.0421 22.0421 8.16406C21.2806 6.29856 19.6087 4.6827 17.3507 4.2832C15.9977 3.1737 14.1771 2.49707 12.0001 2.49707ZM12.0001 3.99707C16.2341 3.99707 18.5001 6.63002 18.5001 9.99902V11.9395C18.5001 12.236 18.6749 12.505 18.9464 12.625C19.3419 12.8 19.5743 13.1235 19.5743 13.501C19.5743 14.033 19.1049 14.501 18.4444 14.501C18.5634 14.501 18.5527 14.498 18.4112 14.498C18.0607 14.498 17.7568 14.741 17.6798 15.083C16.8908 18.585 14.7261 20.0029 12.0011 20.0029C9.27608 20.0029 7.1104 18.5855 6.3214 15.083C6.2444 14.741 5.94045 14.498 5.58995 14.498C5.44795 14.498 5.43775 14.501 5.55675 14.501C4.89625 14.501 4.42687 14.033 4.42687 13.501C4.42687 13.121 4.66182 12.7907 5.05382 12.6172C5.32532 12.4972 5.50058 12.2286 5.50108 11.9316V9.99902C5.50008 6.63002 7.76611 3.99707 12.0001 3.99707ZM9.00011 9.5C8.22911 9.5 7.55606 9.81583 7.12706 10.2988C6.69806 10.7818 6.50011 11.396 6.50011 12C6.50011 12.604 6.69806 13.2187 7.12706 13.7012C7.55606 14.1837 8.22911 14.5 9.00011 14.5C9.77111 14.5 10.4442 14.1842 10.8732 13.7012C11.3022 13.2182 11.5001 12.604 11.5001 12H12.5001C12.5001 12.604 12.6981 13.2187 13.1271 13.7012C13.5561 14.1837 14.2291 14.5 15.0001 14.5C15.7711 14.5 16.4442 14.1842 16.8732 13.7012C17.3022 13.2182 17.5001 12.604 17.5001 12C17.5001 11.396 17.3022 10.7813 16.8732 10.2988C16.4442 9.81633 15.7711 9.5 15.0001 9.5C14.2291 9.5 13.5561 9.81583 13.1271 10.2988C13.0736 10.3593 13.0544 10.436 13.0079 10.5H10.9923C10.9458 10.4355 10.9267 10.3588 10.8732 10.2988C10.4437 9.81583 9.77111 9.5 9.00011 9.5ZM9.00011 11C9.39611 11 9.59756 11.1214 9.75206 11.2949C9.90656 11.4684 10.0001 11.729 10.0001 12C10.0001 12.271 9.90606 12.5316 9.75206 12.7051C9.59806 12.8786 9.39611 13 9.00011 13C8.60411 13 8.40265 12.8786 8.24815 12.7051C8.09365 12.5316 8.00011 12.271 8.00011 12C8.00011 11.729 8.09415 11.4684 8.24815 11.2949C8.40215 11.1214 8.60411 11 9.00011 11ZM15.0001 11C15.3961 11 15.5976 11.1214 15.7521 11.2949C15.9066 11.4684 16.0001 11.729 16.0001 12C16.0001 12.271 15.9061 12.5316 15.7521 12.7051C15.5981 12.8786 15.3961 13 15.0001 13C14.6041 13 14.4027 12.8786 14.2482 12.7051C14.0937 12.5316 14.0001 12.271 14.0001 12C14.0001 11.729 14.0942 11.4684 14.2482 11.2949C14.4022 11.1214 14.6041 11 15.0001 11ZM9.99425 15.6807C9.80231 15.6807 9.61047 15.7539 9.46397 15.9004C9.17097 16.1934 9.17097 16.6679 9.46397 16.9609C10.151 17.6479 11.0647 18.0264 12.0362 18.0264C13.0082 18.0264 13.9215 17.6479 14.6085 16.9609C14.9015 16.6679 14.9015 16.1929 14.6085 15.9004C14.3155 15.6074 13.841 15.6074 13.548 15.9004C13.144 16.3044 12.6072 16.5264 12.0362 16.5264C11.4652 16.5264 10.9285 16.3044 10.5245 15.9004C10.3783 15.7539 10.1862 15.6807 9.99425 15.6807Z" fill="black"/>
</svg>
