<svg width="24" height="24" viewBox="0 0 24 24" fill="none" xmlns="http://www.w3.org/2000/svg">
<path fill-rule="evenodd" clip-rule="evenodd" d="M9.5 3.75C9.4337 3.75 9.37011 3.77634 9.32322 3.82322C9.27634 3.87011 9.25 3.9337 9.25 4V9.68934L13.0303 13.4697C13.171 13.6103 13.25 13.8011 13.25 14V20.25H20.5C20.9142 20.25 21.25 20.5858 21.25 21C21.25 21.4142 20.9142 21.75 20.5 21.75H2.5C2.08579 21.75 1.75 21.4142 1.75 21V14C1.75 13.8011 1.82902 13.6103 1.96967 13.4697L6.96967 8.46967C7.18069 8.25865 7.48617 8.19966 7.75 8.29271V4C7.75 3.53587 7.93437 3.09075 8.26256 2.76256C8.59075 2.43437 9.03587 2.25 9.5 2.25H19.5C19.9641 2.25 20.4092 2.43437 20.7374 2.76256C21.0656 3.09075 21.25 3.53587 21.25 4V11C21.25 11.4142 20.9142 11.75 20.5 11.75C20.0858 11.75 19.75 11.4142 19.75 11V4C19.75 3.93369 19.7237 3.87011 19.6768 3.82322C19.6299 3.77634 19.5663 3.75 19.5 3.75H9.5ZM7.5 10.0607L3.25 14.3107V20.25H6.75V17C6.75 16.5858 7.08579 16.25 7.5 16.25C7.91421 16.25 8.25 16.5858 8.25 17V20.25H11.75V14.3107L7.5 10.0607Z" fill="black"/>
<path d="M20.0303 13.4697L22.0303 15.4697C22.3232 15.7626 22.3232 16.2374 22.0303 16.5303L20.0303 18.5303C19.7374 18.8232 19.2626 18.8232 18.9697 18.5303C18.6768 18.2374 18.6768 17.7626 18.9697 17.4697L19.6893 16.75H16.083C15.6688 16.75 15.333 16.4142 15.333 16C15.333 15.5858 15.6688 15.25 16.083 15.25H19.6893L18.9697 14.5303C18.6768 14.2374 18.6768 13.7626 18.9697 13.4697C19.2626 13.1768 19.7374 13.1768 20.0303 13.4697Z" fill="black"/>
<path d="M13.25 7C13.25 6.58579 12.9142 6.25 12.5 6.25C12.0858 6.25 11.75 6.58579 11.75 7V7.01C11.75 7.42421 12.0858 7.76 12.5 7.76C12.9142 7.76 13.25 7.42421 13.25 7.01V7Z" fill="black"/>
<path d="M16.5 6.25C16.9142 6.25 17.25 6.58579 17.25 7V7.01C17.25 7.42421 16.9142 7.76 16.5 7.76C16.0858 7.76 15.75 7.42421 15.75 7.01V7C15.75 6.58579 16.0858 6.25 16.5 6.25Z" fill="black"/>
<path d="M17.25 11C17.25 10.5858 16.9142 10.25 16.5 10.25C16.0858 10.25 15.75 10.5858 15.75 11V11.01C15.75 11.4242 16.0858 11.76 16.5 11.76C16.9142 11.76 17.25 11.4242 17.25 11.01V11Z" fill="black"/>
</svg>
