<svg width="24" height="24" viewBox="0 0 24 24" fill="none" xmlns="http://www.w3.org/2000/svg">
<path fill-rule="evenodd" clip-rule="evenodd" d="M9.15079 2.05546C9.66652 1.53973 10.366 1.25 11.0953 1.25C11.8247 1.25 12.5242 1.53973 13.0399 2.05546C13.5556 2.57118 13.8453 3.27065 13.8453 4C13.8453 4.72935 13.5556 5.42882 13.0399 5.94454C12.5242 6.46027 11.8247 6.75 11.0953 6.75C10.366 6.75 9.66652 6.46027 9.15079 5.94454C8.63507 5.42882 8.34534 4.72935 8.34534 4C8.34534 3.27065 8.63507 2.57118 9.15079 2.05546Z" fill="black"/>
<path fill-rule="evenodd" clip-rule="evenodd" d="M9.34534 19.7275C8.21683 19.5672 7.36409 18.5708 7.41741 17.3978L7.7835 9.34371C7.83675 8.17232 8.80194 7.25 9.97454 7.25H11.1425C12.6316 7.25 13.9535 8.20282 14.4244 9.61544L14.5419 9.96797C14.6967 10.4323 14.9127 10.8739 15.1842 11.2811L15.8976 12.3513C16.5382 13.3122 16.7437 14.4988 16.4637 15.6191C16.3497 16.0749 16.1582 16.5078 15.8976 16.8987L15.6418 17.2824C15.3984 17.6475 15.2048 18.0434 15.0661 18.4596C14.8166 19.2081 14.129 19.72 13.3453 19.7487V22C13.3453 22.4142 13.0096 22.75 12.5953 22.75C12.1811 22.75 11.8453 22.4142 11.8453 22V19.75H10.8453V22C10.8453 22.4142 10.5096 22.75 10.0953 22.75C9.68112 22.75 9.34534 22.4142 9.34534 22V19.7275ZM11.0957 9.75C11.5099 9.75 11.8457 10.0858 11.8457 10.5C11.8457 11.3114 12.1089 12.1009 12.5957 12.75L13.1957 13.55C13.4442 13.8814 13.3771 14.3515 13.0457 14.6C12.7143 14.8485 12.2442 14.7814 11.9957 14.45L11.3957 13.65C10.7141 12.7412 10.3457 11.6359 10.3457 10.5C10.3457 10.0858 10.6815 9.75 11.0957 9.75Z" fill="black"/>
</svg>
