<svg width="24" height="24" viewBox="0 0 24 24" fill="none" xmlns="http://www.w3.org/2000/svg">
<path d="M9 3.50001C8.25871 3.50001 7.54387 3.60493 6.8584 3.78322C6.84556 3.77859 6.83418 3.77113 6.82129 3.76662L6.81152 3.79494C3.17972 4.7618 0.5 8.06366 0.5 12C0.5 15.955 3.20516 19.2697 6.86328 20.2188C6.86359 20.2188 6.86395 20.2187 6.86426 20.2188C7.54793 20.3961 8.26086 20.5 9 20.5C11.7419 20.5 14.1714 19.1951 15.7246 17.1787C16.3341 19.0995 18.137 20.5 20.2539 20.5H22.75C22.8494 20.5014 22.9481 20.4831 23.0403 20.446C23.1325 20.4089 23.2164 20.3539 23.2872 20.2841C23.358 20.2143 23.4142 20.1312 23.4526 20.0395C23.4909 19.9478 23.5107 19.8494 23.5107 19.75C23.5107 19.6506 23.4909 19.5522 23.4526 19.4605C23.4142 19.3688 23.358 19.2857 23.2872 19.2159C23.2164 19.1461 23.1325 19.0911 23.0403 19.054C22.9481 19.017 22.8494 18.9986 22.75 19H20.2539C18.7092 19 17.4292 17.9377 17.0928 16.5H18.5029C18.6023 16.5014 18.701 16.4831 18.7932 16.446C18.8854 16.4089 18.9694 16.3539 19.0402 16.2841C19.1109 16.2144 19.1671 16.1312 19.2055 16.0395C19.2439 15.9478 19.2636 15.8494 19.2636 15.75C19.2636 15.6506 19.2439 15.5522 19.2055 15.4605C19.1671 15.3688 19.1109 15.2857 19.0402 15.2159C18.9694 15.1461 18.8854 15.0911 18.7932 15.054C18.701 15.017 18.6023 14.9986 18.5029 15H17.0039V13.75C17.0039 13.0682 16.4357 12.5 15.7539 12.5H15.5566C15.088 12.5 14.841 12.062 15.082 11.6602L16.709 8.94826C16.9064 8.61931 16.9879 8.27085 17.0166 7.95314C17.1663 6.29478 18.5502 5.00001 20.2539 5.00001H22.75C22.8494 5.00142 22.9481 4.98306 23.0403 4.946C23.1325 4.90894 23.2164 4.85392 23.2872 4.78413C23.358 4.71435 23.4142 4.6312 23.4526 4.5395C23.4909 4.44781 23.5107 4.34941 23.5107 4.25001C23.5107 4.15062 23.4909 4.05222 23.4526 3.96052C23.4142 3.86883 23.358 3.78568 23.2872 3.71589C23.2164 3.64611 23.1325 3.59109 23.0403 3.55403C22.9481 3.51697 22.8494 3.49861 22.75 3.50001H20.2539C18.1406 3.50001 16.3436 4.89322 15.7314 6.81056C14.1767 4.79727 11.7402 3.50001 9 3.50001ZM9 5.00001C11.6464 5.00001 13.9487 6.47904 15.1377 8.65138L13.7949 10.8887C13.003 12.209 13.9781 13.9416 15.5039 13.9854V14.5498C14.4822 17.1501 11.9583 19 9 19C8.90641 19 8.81537 18.99 8.72266 18.9863C9.48169 18.1718 9.95586 17.0918 9.99414 15.9043C10.013 15.814 10.0149 15.721 10 15.6299V13.9844C11.525 13.9397 12.4997 12.2086 11.708 10.8887L10.0811 8.17677C10.0324 8.09572 9.99477 7.97666 9.98047 7.81837C9.88283 6.73615 9.41389 5.76541 8.71191 5.01466C8.80819 5.01072 8.90277 5.00001 9 5.00001ZM6.76172 5.37404C7.7111 5.87401 8.38495 6.82952 8.48633 7.95314C8.51503 8.27085 8.59658 8.61931 8.79395 8.94826L10.4219 11.6602C10.6629 12.062 10.4149 12.5 9.94629 12.5H9.75C9.0682 12.5 8.5 13.0682 8.5 13.75V15H6.75C6.65062 14.9986 6.55194 15.017 6.45972 15.054C6.36749 15.0911 6.28355 15.1461 6.21277 15.2159C6.142 15.2857 6.08579 15.3688 6.04743 15.4605C6.00907 15.5522 5.98932 15.6506 5.98932 15.75C5.98932 15.8494 6.00907 15.9478 6.04743 16.0395C6.08579 16.1312 6.142 16.2144 6.21277 16.2841C6.28355 16.3539 6.36749 16.4089 6.45972 16.446C6.55194 16.4831 6.65062 16.5014 6.75 16.5H8.40332C8.18429 17.4262 7.57791 18.1949 6.75879 18.625C3.99619 17.6877 2 15.0755 2 12C2 8.92348 3.9976 6.31051 6.76172 5.37404ZM6 9.00001C5.73478 9.00001 5.48043 9.10537 5.29289 9.29291C5.10536 9.48044 5 9.7348 5 10C5 10.2652 5.10536 10.5196 5.29289 10.7071C5.48043 10.8947 5.73478 11 6 11C6.26522 11 6.51957 10.8947 6.70711 10.7071C6.89464 10.5196 7 10.2652 7 10C7 9.7348 6.89464 9.48044 6.70711 9.29291C6.51957 9.10537 6.26522 9.00001 6 9.00001ZM19.5 9.00001C19.2348 9.00001 18.9804 9.10537 18.7929 9.29291C18.6054 9.48044 18.5 9.7348 18.5 10C18.5 10.2652 18.6054 10.5196 18.7929 10.7071C18.9804 10.8947 19.2348 11 19.5 11C19.7652 11 20.0196 10.8947 20.2071 10.7071C20.3946 10.5196 20.5 10.2652 20.5 10C20.5 9.7348 20.3946 9.48044 20.2071 9.29291C20.0196 9.10537 19.7652 9.00001 19.5 9.00001Z" fill="black"/>
</svg>
