<svg width="24" height="24" viewBox="0 0 24 24" fill="none" xmlns="http://www.w3.org/2000/svg">
<path d="M12.75 3.50002C12.75 3.0858 12.4142 2.75002 12 2.75002C11.5858 2.75002 11.25 3.0858 11.25 3.50002V7.50002C11.25 7.91423 11.5858 8.25002 12 8.25002C12.4142 8.25002 12.75 7.91423 12.75 7.50002V3.50002Z" fill="black"/>
<path d="M12.75 16.5C12.75 16.0858 12.4142 15.75 12 15.75C11.5858 15.75 11.25 16.0858 11.25 16.5V20.5C11.25 20.9142 11.5858 21.25 12 21.25C12.4142 21.25 12.75 20.9142 12.75 20.5V16.5Z" fill="black"/>
<path d="M14.6055 11.5C14.6055 11.0858 14.9413 10.75 15.3555 10.75H20.0006C20.4148 10.75 20.7506 11.0858 20.7506 11.5C20.7506 11.9142 20.4148 12.25 20.0006 12.25H15.3555C14.9413 12.25 14.6055 11.9142 14.6055 11.5Z" fill="black"/>
<path d="M4 10.75C3.58579 10.75 3.25 11.0858 3.25 11.5C3.25 11.9142 3.58579 12.25 4 12.25H8.64516C9.05938 12.25 9.39516 11.9142 9.39516 11.5C9.39516 11.0858 9.05938 10.75 8.64516 10.75H4Z" fill="black"/>
<path d="M16.5401 15.9625C16.3251 16.3124 15.8828 16.3889 15.5523 16.1335L14.2581 15.1334C13.9276 14.878 13.8339 14.3873 14.0489 14.0374C14.264 13.6876 14.7062 13.611 15.0368 13.8665L16.3309 14.8665C16.6615 15.122 16.7551 15.6127 16.5401 15.9625Z" fill="black"/>
<path d="M8.96329 13.8665C9.29385 13.6111 9.73611 13.6876 9.95113 14.0375C10.1661 14.3873 10.0725 14.878 9.74193 15.1335L8.44779 16.1335C8.11724 16.389 7.67497 16.3124 7.45996 15.9626C7.24495 15.6127 7.33861 15.122 7.66916 14.8666L8.96329 13.8665Z" fill="black"/>
<path d="M16.5401 7.03749C16.3251 6.68763 15.8828 6.61108 15.5523 6.86652L14.2581 7.86658C13.9276 8.12202 13.8339 8.61271 14.0489 8.96257C14.264 9.31243 14.7062 9.38898 15.0368 9.13354L16.3309 8.13348C16.6615 7.87804 16.7551 7.38735 16.5401 7.03749Z" fill="black"/>
<path d="M8.96329 9.13348C9.29385 9.38892 9.73611 9.31237 9.95113 8.96251C10.1661 8.61265 10.0725 8.12196 9.74193 7.86652L8.44779 6.86646C8.11724 6.61102 7.67497 6.68757 7.45996 7.03743C7.24495 7.38729 7.33861 7.87798 7.66916 8.13342L8.96329 9.13348Z" fill="black"/>
</svg>
