<svg width="24" height="24" viewBox="0 0 24 24" fill="none" xmlns="http://www.w3.org/2000/svg">
<path d="M10.2502 1C9.29268 1 8.50015 1.79252 8.50015 2.75V4.62695C8.48693 4.70747 8.48693 4.7896 8.50015 4.87012V7.49414C7.38129 8.10197 6.58369 9.22671 6.51383 10.5635C6.48818 10.6637 6.48352 10.7681 6.50015 10.8701V19.127C6.48693 19.2075 6.48693 19.2896 6.50015 19.3701V20.75C6.50015 21.9838 7.5164 23 8.75015 23H15.2502C16.4839 23 17.5002 21.9838 17.5002 20.75V19.373C17.5134 19.2925 17.5134 19.2104 17.5002 19.1299V10.873C17.5169 10.7707 17.5123 10.6659 17.4865 10.5654C17.4173 9.22781 16.6196 8.10227 15.5002 7.49414V4.87305C15.5134 4.79253 15.5134 4.7104 15.5002 4.62988V2.75C15.5002 1.79252 14.7076 1 13.7502 1H10.2502ZM10.2502 2.5H13.7502C13.8977 2.5 14.0002 2.60248 14.0002 2.75V4H13.1984C13.0589 3.84495 12.878 3.71907 12.67 3.63229C12.462 3.54552 12.2327 3.50023 12.0002 3.5C11.7676 3.50023 11.5383 3.54552 11.3303 3.63229C11.1223 3.71907 10.9415 3.84495 10.8019 4H10.0002V2.75C10.0002 2.60248 10.1026 2.5 10.2502 2.5ZM10.0002 5.5H10.8019C10.9415 5.65505 11.1223 5.78093 11.3303 5.86771C11.5383 5.95448 11.7676 5.99977 12.0002 6C12.2327 5.99977 12.462 5.95448 12.67 5.86771C12.878 5.78093 13.0589 5.65505 13.1984 5.5H14.0002V7H13.7502H10.2502H10.0002V5.5ZM10.2502 8.5H13.7502C14.7369 8.5 15.5575 9.12417 15.8644 10H8.1359C8.44277 9.12417 9.2634 8.5 10.2502 8.5ZM8.00015 11.5H16.0002V18.5H8.00015V11.5ZM8.00015 20H16.0002V20.75C16.0002 21.1733 15.6734 21.5 15.2502 21.5H8.75015C8.3269 21.5 8.00015 21.1733 8.00015 20.75V20Z" fill="black"/>
</svg>
