<svg width="24" height="24" viewBox="0 0 24 24" fill="none" xmlns="http://www.w3.org/2000/svg">
<path d="M12 1.00293C11.6675 1.00293 11.3347 1.13587 11.0947 1.40137C9.91473 2.70537 8 5.50029 8 7.63379C8 9.52107 9.40003 11.0899 11.25 11.4297V13H8.77051C8.35151 13 7.93671 13.0878 7.55371 13.2578L4.18945 14.9727C3.46645 15.2932 3 16.0103 3 16.8008V20C3 21.1045 3.8955 22 5 22H19C20.1045 22 21 21.1045 21 20V16.792C21 16.0055 20.5393 15.2922 19.8223 14.9687L16.543 13.2646C16.1555 13.0906 15.7346 13 15.3096 13H12.75V11.4297C14.6 11.0899 16 9.52107 16 7.63379C16 5.50029 14.0853 2.70537 12.9053 1.40137C12.6653 1.13637 12.3325 1.00293 12 1.00293ZM12 2.64355C13.1015 3.93955 14.5 6.18529 14.5 7.63379C14.5 8.93879 13.3785 10 12 10C10.6215 10 9.5 8.93879 9.5 7.63379C9.5 6.18529 10.8985 3.94005 12 2.64355ZM12 10C12.8285 10 13.5 9.3285 13.5 8.5C13.5 7.6715 12 5.5 12 5.5C12 5.5 10.5 7.6715 10.5 8.5C10.5 9.3285 11.1715 10 12 10ZM8.77051 14.5H15.3096C15.5121 14.5 15.7085 14.5397 15.8945 14.6182L19.1309 16.2998L19.168 16.3193L19.2051 16.3359C19.3841 16.4169 19.5 16.596 19.5 16.792V20C19.5 20.2755 19.2755 20.5 19 20.5H5C4.7245 20.5 4.5 20.2755 4.5 20V16.8008C4.5 16.6033 4.61637 16.4237 4.79688 16.3437L4.83398 16.3271L4.87012 16.3086L8.19336 14.6152C8.37686 14.5392 8.57051 14.5 8.77051 14.5Z" fill="black"/>
</svg>
