<svg width="24" height="24" viewBox="0 0 24 24" fill="none" xmlns="http://www.w3.org/2000/svg">
<path d="M16.2372 2.32518C16.1387 2.32659 16.0415 2.34739 15.951 2.38638C15.8606 2.42538 15.7787 2.4818 15.71 2.55245C15.6414 2.62309 15.5873 2.70656 15.5509 2.79809C15.5145 2.88963 15.4965 2.98743 15.498 3.08592V4.22459L14.7401 4.39256C14.7244 4.28403 14.6851 4.18027 14.625 4.08858C14.5648 3.99689 14.4853 3.9195 14.392 3.86187C14.2987 3.80423 14.1939 3.76776 14.085 3.75501C13.9761 3.74226 13.8657 3.75354 13.7616 3.78807L12.2616 4.28807C12.1123 4.3379 11.9824 4.43348 11.8903 4.56125C11.7983 4.68903 11.7489 4.84252 11.7489 4.99999C11.7489 5.01783 11.7528 5.03583 11.7528 5.0537L10.8368 5.25682C10.7406 5.2781 10.6496 5.31812 10.5688 5.37459C10.4881 5.43106 10.4193 5.50288 10.3663 5.58595C10.3134 5.66902 10.2773 5.76171 10.2601 5.85872C10.243 5.95574 10.2451 6.05518 10.2664 6.15138C10.2877 6.24757 10.3277 6.33862 10.3842 6.41934C10.4407 6.50006 10.5125 6.56887 10.5956 6.62182C10.6787 6.67478 10.7714 6.71086 10.8684 6.72799C10.9654 6.74512 11.0649 6.74297 11.161 6.72166L11.8554 6.56834C12.0784 9.07895 12.6579 11.248 12.7304 11.5029C12.6746 11.7253 11.347 17.0077 10.7597 20.3711C10.7307 20.5376 10.7588 20.709 10.8395 20.8576C10.9201 21.0061 11.0486 21.123 11.204 21.1894C11.204 21.1894 13.1244 22 16.2489 22C19.3735 22 21.2939 21.1894 21.2939 21.1894C21.4493 21.123 21.5777 21.0061 21.6584 20.8576C21.739 20.709 21.7672 20.5376 21.7382 20.3711C21.1509 17.0077 19.8232 11.7253 19.7675 11.5029C19.84 11.248 20.4195 9.07895 20.6425 6.56834L21.3368 6.72166C21.433 6.74297 21.5325 6.74512 21.6295 6.72799C21.7265 6.71086 21.8192 6.67478 21.9023 6.62182C21.9853 6.56887 22.0572 6.50006 22.1137 6.41934C22.1701 6.33862 22.2102 6.24757 22.2315 6.15138C22.2528 6.05518 22.2549 5.95574 22.2377 5.85872C22.2206 5.76171 22.1845 5.66902 22.1315 5.58595C22.0786 5.50288 22.0098 5.43106 21.929 5.37459C21.8483 5.31812 21.7572 5.2781 21.661 5.25682L20.745 5.0537C20.7451 5.03583 20.7489 5.01783 20.7489 4.99999C20.749 4.84252 20.6995 4.68903 20.6075 4.56125C20.5155 4.43348 20.3856 4.3379 20.2362 4.28807L18.7362 3.78807C18.6322 3.75354 18.5218 3.74226 18.4129 3.75501C18.3039 3.76776 18.1991 3.80423 18.1059 3.86187C18.0126 3.9195 17.933 3.99689 17.8729 4.08858C17.8127 4.18027 17.7734 4.28403 17.7577 4.39256L16.998 4.22459V3.08592C16.9994 2.98562 16.9807 2.88605 16.943 2.79311C16.9053 2.70016 16.8493 2.61573 16.7783 2.5448C16.7074 2.47387 16.623 2.41788 16.53 2.38016C16.4371 2.34244 16.3375 2.32374 16.2372 2.32518ZM6.46573 2.49999C5.33773 2.49999 4.0212 3.55284 3.3837 4.13084C3.1637 4.32984 3.1637 4.66963 3.3837 4.86913C4.0212 5.44713 5.33773 6.49999 6.46573 6.49999C7.58823 6.49999 8.49796 5.60449 8.49796 4.49999C8.49796 3.39549 7.58823 2.49999 6.46573 2.49999ZM16.2489 5.59569L17.5771 5.88963C17.4497 6.41136 17.2757 6.82222 17.0497 7.13182C16.8336 7.42787 16.5319 7.78677 16.2489 8.09276C15.966 7.78677 15.6643 7.42787 15.4482 7.13182C15.2221 6.82221 15.0472 6.41137 14.9198 5.88963L16.2489 5.59569ZM13.4823 6.20799C13.6621 6.94557 13.9116 7.56963 14.2372 8.01561C14.785 8.76591 15.3263 9.17064 15.6054 9.63573C15.672 9.74696 15.7663 9.83904 15.8791 9.90297C15.9918 9.9669 16.1193 10.0005 16.2489 10.0005C16.3786 10.0005 16.506 9.9669 16.6188 9.90297C16.7316 9.83904 16.8259 9.74696 16.8925 9.63573C17.1715 9.17064 17.7129 8.76591 18.2607 8.01561C18.5862 7.56964 18.8348 6.94556 19.0146 6.20799L19.1073 6.2285C18.9006 8.73045 18.2782 11.2939 18.2782 11.2939C18.2418 11.4206 18.2395 11.5547 18.2714 11.6826C18.2714 11.6826 19.4801 16.6404 20.1171 19.9863C19.5302 20.1815 18.3896 20.5 16.2489 20.5C14.1083 20.5 12.9677 20.1815 12.3808 19.9863C13.0178 16.6404 14.2265 11.6826 14.2265 11.6826C14.2584 11.5547 14.256 11.4206 14.2196 11.2939C14.2196 11.2939 13.5973 8.73045 13.3905 6.2285L13.4823 6.20799ZM6.50479 7.50975C6.20636 7.51206 5.90593 7.56346 5.60343 7.65721C4.64643 7.99071 3.91568 8.83763 3.78018 9.88963L3.00479 15.9033C2.95179 16.3143 3.24125 16.6901 3.65225 16.7431C3.77323 16.7595 3.89011 16.7425 3.99796 16.7041V21.75C3.99655 21.8494 4.01491 21.948 4.05197 22.0403C4.08903 22.1325 4.14406 22.2164 4.21384 22.2872C4.28362 22.358 4.36678 22.4142 4.45847 22.4525C4.55016 22.4909 4.64856 22.5107 4.74796 22.5107C4.84735 22.5107 4.94575 22.4909 5.03745 22.4525C5.12914 22.4142 5.21229 22.358 5.28208 22.2872C5.35186 22.2164 5.40688 22.1325 5.44394 22.0403C5.481 21.948 5.49936 21.8494 5.49796 21.75V16.5H7.49796V21.75C7.49655 21.8494 7.51491 21.948 7.55197 22.0403C7.58903 22.1325 7.64405 22.2164 7.71384 22.2872C7.78362 22.358 7.86678 22.4142 7.95847 22.4526C8.05016 22.4909 8.14856 22.5107 8.24796 22.5107C8.34735 22.5107 8.44575 22.4909 8.53745 22.4526C8.62914 22.4142 8.71229 22.358 8.78208 22.2872C8.85186 22.2164 8.90688 22.1325 8.94394 22.0403C8.981 21.948 8.99936 21.8494 8.99796 21.75V16.7051C9.07692 16.7333 9.16067 16.75 9.24796 16.75C9.27996 16.75 9.31214 16.7477 9.34464 16.7431C9.75514 16.6906 10.0451 16.3153 9.9921 15.9043L9.21671 9.88963C9.08121 8.83713 8.35046 7.99121 7.39347 7.65721C7.09972 7.55421 6.80323 7.50744 6.50479 7.50975Z" fill="black"/>
</svg>
