<svg width="24" height="24" viewBox="0 0 24 24" fill="none" xmlns="http://www.w3.org/2000/svg">
<path d="M11.9885 1.98924C11.89 1.99065 11.7928 2.01145 11.7023 2.05044C11.6119 2.08944 11.53 2.14587 11.4613 2.21651C11.3927 2.28715 11.3386 2.37062 11.3022 2.46215C11.2658 2.55369 11.2478 2.65149 11.2493 2.74999V11.75C11.2478 11.8494 11.2662 11.948 11.3033 12.0403C11.3403 12.1325 11.3954 12.2164 11.4651 12.2872C11.5349 12.358 11.6181 12.4142 11.7098 12.4526C11.8015 12.4909 11.8999 12.5107 11.9993 12.5107C12.0986 12.5107 12.1971 12.4909 12.2887 12.4526C12.3804 12.4142 12.4636 12.358 12.5334 12.2872C12.6032 12.2164 12.6582 12.1325 12.6952 12.0403C12.7323 11.948 12.7507 11.8494 12.7493 11.75V2.74999C12.7507 2.64969 12.732 2.55012 12.6943 2.45717C12.6565 2.36422 12.6006 2.27979 12.5296 2.20886C12.4587 2.13793 12.3743 2.08195 12.2813 2.04422C12.1884 2.0065 12.0888 1.98781 11.9885 1.98924ZM3.75316 1.99022C3.62949 1.98907 3.50745 2.01851 3.39791 2.07593C3.28837 2.13335 3.19473 2.21697 3.12533 2.31934C3.05592 2.4217 3.01291 2.53964 3.00011 2.66266C2.98732 2.78567 3.00514 2.90994 3.05199 3.0244C4.3931 6.4321 4.96146 9.24647 5.21605 11.8398C2.8127 15.4039 1.47883 18.4613 1.49925 22.2539C1.49847 22.3532 1.51741 22.4517 1.555 22.5437C1.59258 22.6356 1.64806 22.7192 1.7182 22.7895C1.78834 22.8598 1.87175 22.9155 1.9636 22.9534C2.05544 22.9912 2.15388 23.0104 2.25321 23.0099C2.35254 23.0094 2.45078 22.9891 2.54222 22.9504C2.63367 22.9116 2.7165 22.855 2.7859 22.7839C2.85531 22.7129 2.90991 22.6287 2.94653 22.5364C2.98316 22.4441 3.00108 22.3454 2.99925 22.2461C2.99136 20.78 3.19448 19.4558 3.6057 18.1533C3.68703 18.1814 3.77259 18.1953 3.85863 18.1943C7.17213 18.1943 9.93351 19.3323 11.3108 22.5459C11.3687 22.6805 11.4649 22.7952 11.5873 22.8759C11.7098 22.9565 11.8531 22.9994 11.9997 22.9994C12.1463 22.9994 12.2897 22.9565 12.4122 22.8759C12.5346 22.7952 12.6307 22.6805 12.6887 22.5459C13.388 20.9142 14.3061 19.8852 15.51 19.2187C16.7139 18.5523 18.2473 18.25 20.1692 18.25C20.2511 18.2509 20.3325 18.2383 20.4104 18.2129C20.8089 19.4963 21.007 20.8023 20.9993 22.2461C20.9974 22.3454 21.0154 22.4441 21.052 22.5364C21.0886 22.6287 21.1432 22.7129 21.2126 22.7839C21.282 22.855 21.3648 22.9116 21.4563 22.9504C21.5477 22.9891 21.646 23.0094 21.7453 23.0099C21.8446 23.0104 21.9431 22.9912 22.0349 22.9534C22.1268 22.9155 22.2102 22.8598 22.2803 22.7895C22.3504 22.7192 22.4059 22.6356 22.4435 22.5437C22.4811 22.4517 22.5 22.3532 22.4993 22.2539C22.5197 18.4613 21.1863 15.4038 18.7834 11.8398C19.0376 9.24657 19.6059 6.43207 20.9475 3.0244C20.9952 2.90815 21.0129 2.78179 20.999 2.65691C20.9852 2.53203 20.9401 2.41263 20.8681 2.30968C20.7961 2.20674 20.6993 2.12353 20.5868 2.06771C20.4742 2.01189 20.3494 1.98525 20.2239 1.99022C20.0766 1.99615 19.9343 2.04534 19.8148 2.13166C19.6953 2.21798 19.6039 2.3376 19.552 2.47557C18.1221 6.10765 17.5066 9.16029 17.2532 11.9316C17.2372 12.1056 17.2824 12.2797 17.3811 12.4238C17.754 12.9687 18.0878 13.4891 18.4026 14H5.59691C5.91178 13.4891 6.24537 12.9687 6.61839 12.4238C6.71705 12.2797 6.7623 12.1056 6.74633 11.9316C6.4924 9.1604 5.8769 6.10761 4.4475 2.47557C4.39415 2.33412 4.29931 2.2121 4.17541 2.12549C4.05151 2.03888 3.90433 1.99173 3.75316 1.99022ZM4.74144 15.5H19.258C19.4797 15.9219 19.6935 16.342 19.8723 16.7558C17.9203 16.786 16.2162 17.1131 14.7834 17.9062C13.6554 18.5307 12.7852 19.5401 12.0491 20.7441C10.3005 17.9424 7.30567 16.7691 4.15062 16.7012C4.32342 16.3053 4.52939 15.9034 4.74144 15.5Z" fill="black"/>
</svg>
