<svg width="24" height="24" viewBox="0 0 24 24" fill="none" xmlns="http://www.w3.org/2000/svg">
<path d="M12 1C7.33587 1 3.76872 4.67506 3.52344 9.25H3.5V9.75V15.75C3.5 16.3923 3.35835 16.8753 3.18066 17.1397C3.00298 17.404 2.84842 17.5 2.49805 17.5C2.13106 17.5 1.88292 17.4112 1.72559 17.332C1.56825 17.2528 1.5498 17.2236 1.5498 17.2236C1.47874 17.1523 1.39403 17.0959 1.30073 17.058C1.20742 17.0201 1.10744 17.0013 1.00673 17.0029C0.906024 17.0044 0.806661 17.0262 0.714567 17.067C0.622474 17.1078 0.539537 17.1667 0.470703 17.2402C0.470703 17.2402 0.37144 17.3594 0.318359 17.4561C0.265278 17.5528 0.212977 17.6758 0.166016 17.832C0.0720932 18.1446 0 18.5894 0 19.25C0 20.2645 0.393029 21.236 1.14258 21.9238C1.89213 22.6116 2.9684 23 4.25 23C5.22937 23 6.2735 22.7106 7.10449 22.0107C7.93549 21.3109 8.5 20.1843 8.5 18.75V10.9561C8.85413 10.9257 9.25718 10.8847 9.77051 10.7383C10.7833 10.4494 12.0983 9.72643 13.4697 8.57422C14.1237 9.92631 14.9528 10.4453 15.5 10.6768V18.75C15.5 20.1843 16.0645 21.3109 16.8955 22.0107C17.7265 22.7106 18.7706 23 19.75 23C21.0316 23 22.1079 22.6116 22.8574 21.9238C23.607 21.236 24 20.2645 24 19.25C24 18.5894 23.9279 18.1446 23.834 17.832C23.787 17.6758 23.7347 17.5528 23.6816 17.4561C23.6286 17.3594 23.5293 17.2402 23.5293 17.2402C23.4605 17.1667 23.3775 17.1078 23.2854 17.067C23.1933 17.0262 23.094 17.0044 22.9933 17.0029C22.8926 17.0013 22.7926 17.0201 22.6993 17.058C22.606 17.0959 22.5213 17.1523 22.4502 17.2236C22.4502 17.2236 22.4318 17.2528 22.2744 17.332C22.1171 17.4112 21.8689 17.5 21.502 17.5C21.1516 17.5 21.0301 17.432 20.8438 17.1152C20.6574 16.7985 20.5 16.168 20.5 15.25V10.5V10H20.4932C20.4784 8.70953 20.3891 7.37428 19.8779 6.16992C19.3352 4.89121 18.2131 3.83499 16.4697 3.37012C16.0834 2.61286 15.4788 2.01335 14.751 1.64355C13.8895 1.20585 12.9153 1 12 1Z" fill="black"/>
</svg>
