<svg width="24" height="24" viewBox="0 0 24 24" fill="none" xmlns="http://www.w3.org/2000/svg">
<path d="M10.7236 1.49511C10.5552 1.49885 10.3929 1.55921 10.2629 1.66647C10.1329 1.77372 10.0428 1.92162 10.0072 2.08633C9.97154 2.25103 9.99239 2.42294 10.0664 2.57434C10.1404 2.72574 10.2632 2.84782 10.415 2.92089C10.415 2.92089 11.8498 3.70449 11.9619 5.09765C11.0856 4.60764 10.0831 4.49999 9.25 4.49999C7.55511 4.49999 6.08301 5.56474 5.08398 7.11327C4.08496 8.6618 3.5 10.7292 3.5 13C3.5 15.2707 4.08496 17.3382 5.08398 18.8867C6.08301 20.4352 7.55511 21.5 9.25 21.5C10.1926 21.5 11.3382 21.3288 12.2861 20.6553C13.0462 21.2072 13.8596 21.5 14.75 21.5C16.4449 21.5 17.917 20.4352 18.916 18.8867C19.915 17.3382 20.5 15.2707 20.5 13C20.5 10.7292 19.915 8.6618 18.916 7.11327C17.917 5.56474 16.4449 4.49999 14.75 4.49999C14.2729 4.49999 13.821 4.59165 13.3789 4.72851C13.0516 2.62368 11.085 1.57909 11.085 1.57909C10.9735 1.52129 10.8492 1.49241 10.7236 1.49511ZM9.25 5.99999C9.91654 5.99999 10.5578 6.164 11.1055 6.43944C10.5662 7.06148 9.92943 7.94085 9.52246 9.56835C9.49599 9.66475 9.48905 9.76548 9.50207 9.8646C9.51508 9.96373 9.54778 10.0592 9.59824 10.1456C9.6487 10.2319 9.7159 10.3072 9.7959 10.3672C9.8759 10.4271 9.96707 10.4705 10.0641 10.4947C10.1611 10.5189 10.2619 10.5235 10.3607 10.5082C10.4595 10.4929 10.5542 10.4579 10.6394 10.4055C10.7245 10.353 10.7982 10.2841 10.8563 10.2027C10.9144 10.1213 10.9556 10.0292 10.9775 9.93163C11.4709 7.95858 12.2449 7.31562 12.7803 6.78026C12.7822 6.77832 12.7842 6.77637 12.7861 6.7744C13.463 6.08164 13.8282 5.99999 14.75 5.99999C15.8166 5.99999 16.8447 6.67028 17.6553 7.92675C18.4659 9.18322 19 10.9907 19 13C19 15.0092 18.4659 16.8168 17.6553 18.0732C16.8447 19.3297 15.8166 20 14.75 20C13.8282 20 13.463 19.9183 12.7861 19.2256C12.7852 19.2249 12.7842 19.2243 12.7832 19.2236C12.7822 19.2223 12.7813 19.221 12.7803 19.2197C11.516 17.9554 10.9854 15.6025 10.9854 15.6025C10.9673 15.5047 10.9299 15.4115 10.8755 15.3283C10.821 15.2451 10.7506 15.1735 10.6682 15.1178C10.5858 15.0621 10.4932 15.0233 10.3957 15.0036C10.2982 14.984 10.1978 14.984 10.1003 15.0036C10.0028 15.0231 9.91017 15.0619 9.82778 15.1175C9.74538 15.1732 9.67489 15.2447 9.62039 15.3279C9.56589 15.4111 9.52847 15.5043 9.51032 15.6021C9.49217 15.6998 9.49364 15.8003 9.51465 15.8975C9.51465 15.8975 9.92269 17.8721 11.1523 19.5342C10.5976 19.8284 9.9363 20 9.25 20C8.18339 20 7.15533 19.3297 6.34473 18.0732C5.53412 16.8168 5 15.0092 5 13C5 10.9907 5.53412 9.18322 6.34473 7.92675C7.15533 6.67028 8.18339 5.99999 9.25 5.99999ZM14.25 14.5C14.0511 14.5 13.8603 14.579 13.7197 14.7197C13.579 14.8603 13.5 15.0511 13.5 15.25C13.5 15.4489 13.579 15.6397 13.7197 15.7803C13.8603 15.921 14.0511 16 14.25 16C14.4489 16 14.6397 15.921 14.7803 15.7803C14.921 15.6397 15 15.4489 15 15.25C15 15.0511 14.921 14.8603 14.7803 14.7197C14.6397 14.579 14.4489 14.5 14.25 14.5ZM16.75 15.5C16.5511 15.5 16.3603 15.579 16.2197 15.7197C16.079 15.8603 16 16.0511 16 16.25C16 16.4489 16.079 16.6397 16.2197 16.7803C16.3603 16.921 16.5511 17 16.75 17C16.9489 17 17.1397 16.921 17.2803 16.7803C17.421 16.6397 17.5 16.4489 17.5 16.25C17.5 16.0511 17.421 15.8603 17.2803 15.7197C17.1397 15.579 16.9489 15.5 16.75 15.5ZM14.75 17C14.5511 17 14.3603 17.079 14.2197 17.2197C14.079 17.3603 14 17.5511 14 17.75C14 17.9489 14.079 18.1397 14.2197 18.2803C14.3603 18.421 14.5511 18.5 14.75 18.5C14.9489 18.5 15.1397 18.421 15.2803 18.2803C15.421 18.1397 15.5 17.9489 15.5 17.75C15.5 17.5511 15.421 17.3603 15.2803 17.2197C15.1397 17.079 14.9489 17 14.75 17Z" fill="black"/>
</svg>
