<svg width="24" height="24" viewBox="0 0 24 24" fill="none" xmlns="http://www.w3.org/2000/svg">
<path d="M12.2129 2.00097C12.0617 2.00851 11.9163 2.06162 11.7959 2.15331C11.7959 2.15331 9 4.1204 9 6.99999C9 7.53404 9.09627 8.03643 9.25293 8.50097C9.23959 8.50061 9.22623 8.50061 9.21289 8.50097C9.06171 8.50851 8.91634 8.56162 8.7959 8.65331C8.7959 8.65331 6 10.6204 6 13.5C6 14.6419 6.46942 15.58 7 16.3691V21.25C6.99859 21.3494 7.01696 21.4481 7.05402 21.5403C7.09108 21.6325 7.1461 21.7164 7.21588 21.7872C7.28566 21.858 7.36882 21.9142 7.46051 21.9526C7.5522 21.9909 7.65061 22.0107 7.75 22.0107C7.84939 22.0107 7.9478 21.9909 8.03949 21.9526C8.13118 21.9142 8.21434 21.858 8.28412 21.7872C8.3539 21.7164 8.40892 21.6325 8.44598 21.5403C8.48304 21.4481 8.50141 21.3494 8.5 21.25V18.0625C8.55594 18.1053 8.7959 18.3467 8.7959 18.3467C8.92646 18.446 9.08597 18.4998 9.25 18.4998C9.41403 18.4998 9.57354 18.446 9.7041 18.3467C9.7041 18.3467 9.94406 18.1053 10 18.0625V21.25C9.99972 21.2751 10.0007 21.3002 10.0029 21.3252C10.0049 21.3501 10.0082 21.3748 10.0127 21.3994C10.0219 21.4485 10.0359 21.4966 10.0547 21.543C10.0643 21.5663 10.075 21.5891 10.0869 21.6113C10.1337 21.7 10.1978 21.7783 10.2754 21.8418C10.2948 21.8574 10.315 21.8721 10.3359 21.8857C10.3568 21.8995 10.3783 21.9122 10.4004 21.9238C10.4226 21.9357 10.4454 21.9465 10.4687 21.9561C10.4918 21.9653 10.5152 21.9735 10.5391 21.9805C10.5872 21.9945 10.6366 22.0036 10.6865 22.0078C10.7864 22.0163 10.8871 22.0047 10.9824 21.9736C11.0299 21.958 11.0757 21.9378 11.1191 21.9131C11.141 21.9008 11.1621 21.8874 11.1826 21.873C11.2235 21.8443 11.2615 21.8116 11.2959 21.7754C11.3476 21.7206 11.3907 21.6584 11.4238 21.5908C11.4457 21.5458 11.4631 21.4987 11.4756 21.4502C11.4927 21.3849 11.5009 21.3175 11.5 21.25V16.75V16.3691C11.6739 16.1105 11.8579 15.8746 12 15.5732C12.1421 15.8746 12.3261 16.1105 12.5 16.3691V21.25C12.4997 21.2751 12.5007 21.3002 12.5029 21.3252C12.5049 21.3501 12.5082 21.3748 12.5127 21.3994C12.5174 21.4238 12.5232 21.4479 12.5303 21.4717C12.5444 21.52 12.5634 21.5668 12.5869 21.6113C12.622 21.6775 12.6667 21.7381 12.7197 21.791C12.7374 21.8089 12.756 21.8258 12.7754 21.8418C12.7948 21.8574 12.815 21.8721 12.8359 21.8857C12.9196 21.9413 13.0136 21.9795 13.1123 21.998C13.1369 22.0025 13.1616 22.0058 13.1865 22.0078C13.2363 22.0121 13.2863 22.0115 13.3359 22.0059C13.3609 22.0029 13.3856 21.9986 13.4102 21.9932C13.4834 21.9771 13.5539 21.9501 13.6191 21.9131C13.7067 21.8637 13.7834 21.7973 13.8447 21.7178C13.8753 21.6782 13.9018 21.6357 13.9238 21.5908C13.9347 21.5682 13.9445 21.5451 13.9531 21.5215C13.9618 21.4981 13.9693 21.4743 13.9756 21.4502C13.982 21.4261 13.9872 21.4016 13.9912 21.3769C13.995 21.3524 13.9977 21.3276 13.999 21.3027C14 21.2852 14.0003 21.2676 14 21.25V18.0625C14.0559 18.1053 14.2959 18.3467 14.2959 18.3467C14.4265 18.446 14.586 18.4998 14.75 18.4998C14.914 18.4998 15.0735 18.446 15.2041 18.3467C15.2041 18.3467 15.4441 18.1053 15.5 18.0625V21.25C15.4986 21.3494 15.517 21.4481 15.554 21.5403C15.5911 21.6325 15.6461 21.7164 15.7159 21.7872C15.7857 21.858 15.8688 21.9142 15.9605 21.9526C16.0522 21.9909 16.1506 22.0107 16.25 22.0107C16.3494 22.0107 16.4478 21.9909 16.5395 21.9526C16.6312 21.9142 16.7143 21.858 16.7841 21.7872C16.8539 21.7164 16.9089 21.6325 16.946 21.5403C16.983 21.4481 17.0014 21.3494 17 21.25V16.3691C17.5306 15.58 18 14.6419 18 13.5C18 10.6204 15.2041 8.65331 15.2041 8.65331C15.1999 8.65034 15.1957 8.64741 15.1914 8.64452C15.3784 8.1398 15.5 7.59058 15.5 6.99999C15.5 4.1204 12.7041 2.15331 12.7041 2.15331C12.5634 2.04623 12.3895 1.99228 12.2129 2.00097ZM12.25 3.81933C12.8227 4.35828 14 5.55958 14 6.99999C14 7.26795 13.8779 7.52604 13.7959 7.78906C12.7948 6.13434 11.7171 5.55584 11.0645 5.32421C11.5185 4.55296 11.91 4.13931 12.25 3.81933ZM10.5791 6.69531C11.1341 6.8718 12.2632 7.37753 12.9805 9.37792C12.6274 9.83472 12.4818 9.96249 12.25 10.1807C11.6773 9.6417 10.5 8.4404 10.5 6.99999C10.5 6.8965 10.5656 6.79861 10.5791 6.69531ZM9.25 10.3193C9.51451 10.5682 9.72262 10.7858 10.1182 11.334C9.43289 12.2688 8.41819 12.5195 7.72559 12.626C8.10575 11.5087 8.79529 10.7472 9.25 10.3193ZM14.75 10.3193C15.0624 10.6133 15.3791 10.9564 15.8193 11.6445C14.4 12.3787 13.5922 13.2381 13.1279 13.9971C13.0933 13.8294 13 13.6687 13 13.5C13 12.0596 14.1773 10.8583 14.75 10.3193ZM10.7959 12.707C10.8785 12.9712 11 13.2308 11 13.5C11 14.9404 9.8227 16.1417 9.25 16.6807C8.76551 16.2247 7.98671 15.3572 7.66895 14.1533C8.35445 14.106 9.59144 13.8659 10.7959 12.707ZM16.3857 13.0557C16.4137 13.2058 16.5 13.3492 16.5 13.5C16.5 14.9404 15.3227 16.1417 14.75 16.6807C14.5124 16.4571 14.3562 16.3134 13.9951 15.8408C13.9986 15.8107 14.0002 15.7803 14 15.75C14 15.75 13.9814 15.4752 14.2832 14.9219C14.5657 14.404 15.1831 13.7088 16.3857 13.0557Z" fill="black"/>
</svg>
