<svg width="24" height="24" viewBox="0 0 24 24" fill="none" xmlns="http://www.w3.org/2000/svg">
<path d="M4.5755 4.6745C6.087 4.6745 7.5915 4.885 9.046 5.3005C10.9785 5.853 13.0205 5.853 14.9525 5.3005C16.408 4.885 17.912 4.6745 19.4235 4.6745H22V4.5755C22 3.1555 20.8445 2 19.4245 2C17.913 2 16.4085 2.2105 14.9535 2.626C13.0215 3.178 10.979 3.178 9.047 2.626C7.5915 2.2105 6.0875 2 4.5755 2C3.1555 2 2 3.1555 2 4.5755V4.674H4.5755V4.6745ZM19.4245 6.1745C18.052 6.1745 16.6865 6.366 15.365 6.743C14.2645 7.0575 13.132 7.215 12 7.215C10.8675 7.215 9.7355 7.0575 8.635 6.743C7.314 6.366 5.948 6.1745 4.576 6.1745H2V6.9245C2 8.3445 3.1555 9.5 4.5755 9.5C5.948 9.5 7.3135 9.6915 8.6345 10.0685C9.7355 10.383 10.8675 10.5405 11.9995 10.5405C13.1315 10.5405 14.264 10.383 15.3645 10.0685C16.6865 9.6915 18.052 9.5 19.4245 9.5C20.8445 9.5 22 8.3445 22 6.9245V6.1745H19.4245ZM21.9245 17.6745H19.4245C18.052 17.6745 16.6865 17.866 15.365 18.243C14.2645 18.5575 13.132 18.715 12 18.715C10.8675 18.715 9.7355 18.5575 8.635 18.243C7.314 17.866 5.948 17.6745 4.576 17.6745H2.076C2.05 17.6745 2.0255 17.6695 2.0005 17.667V17.9245C2 19.3445 3.1555 20.5 4.5755 20.5C5.948 20.5 7.3135 20.6915 8.6345 21.0685C9.7355 21.383 10.8675 21.5405 11.9995 21.5405C13.1315 21.5405 14.264 21.383 15.3645 21.0685C16.6865 20.6915 18.052 20.5 19.4245 20.5C20.8445 20.5 22 19.3445 22 17.9245V17.667C21.975 17.6695 21.9505 17.6745 21.9245 17.6745ZM2.0755 16.1745H4.5755C6.087 16.1745 7.5915 16.385 9.046 16.8005C10.9785 17.353 13.0205 17.353 14.9525 16.8005C16.408 16.385 17.912 16.1745 19.4235 16.1745H21.9235C21.9495 16.1745 21.974 16.1795 21.999 16.182V15.5755C22 14.1555 20.8445 13 19.4245 13C17.913 13 16.4085 13.2105 14.9535 13.626C13.0215 14.178 10.979 14.178 9.047 13.626C7.5915 13.2105 6.0875 13 4.5755 13C3.1555 13 2 14.1555 2 15.5755V16.182C2.025 16.1795 2.0495 16.1745 2.0755 16.1745Z" fill="black"/>
</svg>
