<svg width="24" height="24" viewBox="0 0 24 24" fill="none" xmlns="http://www.w3.org/2000/svg">
<path d="M22.025 3.65C21.025 2.45 19.725 1.75 18.225 1.75C17.8291 1.75 17.5312 2.04384 17.5251 2.34071C17.525 2.34689 17.5244 2.35306 17.5233 2.35914L16.9351 5.49599C16.9288 5.52962 16.9058 5.55755 16.8743 5.57092C15.4024 6.19523 14.4182 8.16698 13.825 9.65C12.225 13.25 9.12501 15.75 5.42501 16.55C4.92501 16.65 4.52501 16.75 4.02501 16.75C2.82501 16.85 1.82501 17.85 1.82501 19.15C1.82501 19.15 1.82501 19.15 1.82501 19.25C1.82501 20.15 2.32501 20.95 3.12501 21.35C4.42501 21.95 5.72501 22.25 7.12501 22.25C11.525 22.25 15.925 19.35 17.725 17.15C20.3087 14.1688 21.5099 9.80503 20.5435 7.39531C20.5319 7.36639 20.5341 7.33417 20.5497 7.30719L22.0214 4.75619C22.0238 4.75207 22.0259 4.74773 22.0277 4.7433C22.225 4.24643 22.2241 3.84911 22.025 3.65ZM20.4682 4.09448C20.5019 4.12663 20.5075 4.17797 20.4829 4.21746L19.5916 5.6434C19.5576 5.69794 19.4814 5.70651 19.4302 5.66762C19.2403 5.52342 18.991 5.43868 18.7404 5.35513C18.7302 5.35173 18.7196 5.35 18.7088 5.35C18.6766 5.35 18.6008 5.35 18.525 5.35C18.4886 5.35 18.4654 5.35 18.4458 5.35C18.3831 5.35 18.3359 5.29291 18.3476 5.23129L18.7075 3.34215C18.7173 3.29033 18.7659 3.25492 18.818 3.2631C19.5353 3.3756 20.0854 3.72923 20.4682 4.09448ZM4.1039 18.0606C4.11778 18.0536 4.13309 18.05 4.14862 18.0499C4.64077 18.0469 5.13445 17.9484 5.72501 17.85C9.92501 17.05 13.425 14.15 15.225 10.15C15.8975 8.61298 16.6622 7.07596 17.6079 6.86869C17.6684 6.85541 17.7211 6.90581 17.716 6.96764C17.5961 8.44308 17.0363 11.928 13.825 14.75C9.20822 18.7897 5.33152 18.7589 3.7076 18.4837C3.62885 18.4703 3.60181 18.3753 3.66434 18.3256C3.81086 18.2092 3.95738 18.1339 4.1039 18.0606ZM16.625 15.95C14.6947 18.1699 9.41086 21.5076 4.99917 20.209C4.90178 20.1804 4.9235 20.05 5.02501 20.05C7.32501 20.05 10.925 19.35 14.925 15.85C17.9241 13.2258 18.9029 10.0745 19.1787 8.12507C19.193 8.02344 19.3203 8.00767 19.3456 8.10714C19.7957 9.87477 18.8618 13.4336 16.625 15.95Z" fill="black"/>
</svg>
