<svg width="24" height="24" viewBox="0 0 24 24" fill="none" xmlns="http://www.w3.org/2000/svg">
<path fill-rule="evenodd" clip-rule="evenodd" d="M3.78077 5.25C2.64227 5.25 1.80689 6.31993 2.08302 7.42444L2.13061 7.61482C1.29498 7.72497 0.650024 8.44005 0.650024 9.30577C0.650024 9.52189 0.691098 9.73604 0.771058 9.93683L1.29627 11.2557C1.64498 12.1313 2.47752 12.7148 3.41405 12.7486L4.39365 16.667C4.69971 17.8912 5.79966 18.75 7.06155 18.75H16.9384C18.2003 18.75 19.3003 17.8912 19.6063 16.667L20.5859 12.7486C21.5225 12.7148 22.355 12.1313 22.7037 11.2557L23.2289 9.93683C23.3089 9.73604 23.35 9.52189 23.35 9.30577C23.35 8.44005 22.705 7.72497 21.8694 7.61481L21.917 7.42444C22.1931 6.31993 21.3577 5.25 20.2192 5.25H3.78077ZM21.4981 9.1001L20.9999 11.0926C21.1364 10.9971 21.2458 10.8624 21.3102 10.7007L21.8354 9.38186C21.845 9.35765 21.85 9.33183 21.85 9.30577C21.85 9.19218 21.7579 9.1001 21.6443 9.1001H21.5L21.4981 9.1001ZM3.00005 11.0926L2.50193 9.1001L2.50003 9.1001H2.35569C2.24211 9.1001 2.15002 9.19218 2.15002 9.30577C2.15002 9.33183 2.15498 9.35765 2.16462 9.38186L2.68983 10.7007C2.75424 10.8624 2.86355 10.9971 3.00005 11.0926ZM3.53823 7.06063C3.49879 6.90285 3.61813 6.75 3.78077 6.75H6.3647L6.82304 9.5H4.14808L3.53823 7.06063ZM7.07304 11H4.52308L5.14808 13.5H7.4897L7.07304 11ZM9.01039 13.5L8.59373 11H15.1563L14.7396 13.5H9.01039ZM7.7397 15H5.52308L5.84887 16.3032C5.98798 16.8596 6.48796 17.25 7.06155 17.25H8.1147L7.7397 15ZM9.63539 17.25L9.26039 15H14.4896L14.1146 17.25H9.63539ZM8.34373 9.5H15.4063L15.8646 6.75H7.88539L8.34373 9.5ZM16.927 9.5L17.3853 6.75H20.2192C20.3819 6.75 20.5012 6.90285 20.4618 7.06063L19.8519 9.5H16.927ZM18.4769 15L18.1511 16.3032C18.012 16.8596 17.512 17.25 16.9384 17.25H15.6353L16.0103 15H18.4769ZM18.8519 13.5H16.2603L16.677 11H19.4769L18.8519 13.5Z" fill="black"/>
</svg>
