<svg width="24" height="24" viewBox="0 0 24 24" fill="none" xmlns="http://www.w3.org/2000/svg">
<path d="M6.001 2.56836C5.45424 2.58092 4.89871 2.71179 4.3594 2.98144C2.49256 3.91486 1.61897 6.11381 2.32913 8.07519C2.34361 8.12312 3.09319 10.5684 5.52932 14.0234C5.19426 14.6078 5.00003 15.2815 5.00003 16C5.00003 17.8138 5.73171 19.1456 6.73928 19.9346C7.74686 20.7235 8.96325 21 10 21H10.25C14.4352 21 17.4549 19.4049 19.3408 16.9902C21.2268 14.5756 22 11.411 22 8.25C22 5.91167 20.0884 4 17.75 4C16.0005 4 14.4897 5.0705 13.8399 6.58886C12.5948 6.96772 11.8286 6.81233 11.2676 6.49902C10.6803 6.17103 10.2805 5.60629 10.0098 5.09179C9.20243 3.55746 7.6413 2.53066 6.001 2.56836ZM6.08011 4.05273C7.12236 4.02369 8.104 4.69037 8.68264 5.79004C9.02044 6.43204 9.57388 7.27121 10.5362 7.80859C11.2982 8.23413 12.3006 8.41924 13.502 8.208C13.5018 8.22215 13.5 8.23582 13.5 8.25C13.5 10.3332 11.9143 12 9.25003 12H9.00003C8.07575 12 7.22414 12.3201 6.54495 12.8516C4.3736 9.6962 3.75393 7.61718 3.75393 7.61718C3.74952 7.60206 3.74464 7.58708 3.73929 7.57226C3.2787 6.31279 3.8311 4.92284 5.0303 4.32324C5.3785 4.14914 5.73269 4.06241 6.08011 4.05273ZM17.75 5.5C19.2777 5.5 20.5 6.72233 20.5 8.25C20.5 11.164 19.7733 13.9998 18.1592 16.0664C16.5451 18.133 14.0649 19.5 10.25 19.5H10C9.2418 19.5 8.33276 19.2765 7.66409 18.7529C6.99542 18.2294 6.50003 17.4361 6.50003 16C6.50003 14.6103 7.61032 13.5 9.00003 13.5H9.25003C9.39687 13.5 9.53951 13.4895 9.68264 13.4805C10.4177 14.1201 11.4122 14.5 12.5 14.5C14.6379 14.5 16.5 12.9979 16.5 11C16.5 9.87879 15.8878 8.89724 14.9991 8.27246C14.9991 8.26489 15 8.25757 15 8.25C15 6.72233 16.2224 5.5 17.75 5.5ZM14.6739 10.0176C14.8844 10.3129 15 10.6472 15 11C15 12.0401 13.9521 13 12.5 13C12.2896 13 12.0873 12.9768 11.8936 12.9375C13.2114 12.3345 14.196 11.2891 14.6739 10.0176Z" fill="black"/>
</svg>
