<svg width="24" height="24" viewBox="0 0 24 24" fill="none" xmlns="http://www.w3.org/2000/svg">
<path d="M19.844 11.563C19.948 11.0505 20 10.5245 20 10C20 7.78901 19.118 5.73151 17.5165 4.20601C15.916 2.68201 13.8145 1.90151 11.5995 2.00951C7.50902 2.20951 4.17402 5.57301 4.00702 9.66601C3.87452 12.9055 5.67652 15.8645 8.60652 17.239C9.11952 18.956 11.5365 21.978 14.6145 21.988C14.624 21.988 14.632 21.988 14.641 21.988C17.854 21.988 19.752 20.0915 19.9865 16.6455C20.018 16.1935 19.9955 15.738 19.9195 15.292C19.7425 14.257 19.5745 12.8965 19.844 11.563ZM8.25002 6.00001H15.75C16.164 6.00001 16.5 6.33601 16.5 6.75001C16.5 7.16401 16.164 7.50001 15.75 7.50001H8.25002C7.83602 7.50001 7.50002 7.16401 7.50002 6.75001C7.50002 6.33601 7.83602 6.00001 8.25002 6.00001ZM16.25 18.5H12.75C12.336 18.5 12 18.164 12 17.75C12 17.336 12.336 17 12.75 17H16.25C16.664 17 17 17.336 17 17.75C17 18.164 16.664 18.5 16.25 18.5ZM16.25 15H9.75002C9.33602 15 9.00002 14.664 9.00002 14.25C9.00002 13.836 9.33602 13.5 9.75002 13.5H16.25C16.664 13.5 17 13.836 17 14.25C17 14.664 16.664 15 16.25 15ZM16.75 11.5H7.25002C6.83602 11.5 6.50002 11.164 6.50002 10.75C6.50002 10.336 6.83602 10 7.25002 10H16.75C17.164 10 17.5 10.336 17.5 10.75C17.5 11.164 17.164 11.5 16.75 11.5Z" fill="black"/>
</svg>
