<svg width="24" height="24" viewBox="0 0 24 24" fill="none" xmlns="http://www.w3.org/2000/svg">
<path d="M5.25 2C3.458 2 2 3.458 2 5.25V15.25C2 17.042 3.458 18.5 5.25 18.5H9.25H12.5283H13.5781L14.5361 21.4795C14.6381 21.7975 14.9325 22 15.25 22C15.3255 22 15.4035 21.9889 15.4795 21.9639C15.874 21.8374 16.0909 21.415 15.9639 21.0205L11.4639 7.02051C11.3619 6.70351 11.0695 6.49902 10.752 6.49902C10.6755 6.49902 10.5975 6.51163 10.5205 6.53613C10.126 6.66263 9.90913 7.08499 10.0361 7.47949L13.0967 17H8.5V3.5H13.75C14.715 3.5 15.5 4.285 15.5 5.25V6.04785L17 8.44824V5.25C17 3.458 15.542 2 13.75 2H5.25ZM5.25 3.5H7V7H3.5V5.25C3.5 4.285 4.285 3.5 5.25 3.5ZM13.249 5C13.1135 5 12.976 5.03676 12.8525 5.11426C12.5015 5.33376 12.3943 5.79646 12.6133 6.14746L15.5 10.7656V12.6523V15.25C15.5 15.4825 15.4531 15.7037 15.3701 15.9062L15.9307 17.6484C16.5847 17.0539 17 16.2015 17 15.25V15.0518V13.165L20.1143 18.1475C20.2568 18.3755 20.501 18.5 20.751 18.5C20.8865 18.5 21.024 18.4632 21.1475 18.3857C21.4985 18.1662 21.6052 17.7035 21.3857 17.3525L13.8857 5.35254C13.7432 5.12504 13.499 5 13.249 5ZM3.5 8.5H7V12H3.5V8.5ZM3.5 13.5H7V17H5.25C4.285 17 3.5 16.215 3.5 15.25V13.5Z" fill="black"/>
</svg>
