<svg width="24" height="24" viewBox="0 0 24 24" fill="none" xmlns="http://www.w3.org/2000/svg">
<path d="M12 1.98828C11.2842 1.98828 10.6429 2.25157 10.0762 2.62109C9.73964 2.4654 9.37976 2.35254 8.99023 2.35254C7.81835 2.35254 6.87188 3.14307 6.4668 4.2041C6.41379 4.20072 6.36934 4.1748 6.31543 4.1748C5.22158 4.1748 4.32531 4.87609 3.88184 5.82227C2.78818 6.30646 2 7.36604 2 8.63672C2 10.3537 3.40805 11.7617 5.125 11.7617C5.62431 11.7617 6.08659 11.6324 6.49902 11.4189C7.2255 11.8774 7.97025 12.8375 8.51953 14.1914C9.12437 15.6823 9.5 17.6139 9.5 19.7197V20.0967C9.5 21.1454 10.3663 22.0117 11.415 22.0117H11.417H12.584H12.5859C13.6346 22.0117 14.501 21.1454 14.501 20.0967V19.708C14.5024 17.6444 14.8631 15.7474 15.4482 14.2705C16.0013 12.8746 16.7619 11.8834 17.5029 11.4189C17.9152 11.6322 18.3769 11.7617 18.876 11.7617C20.5929 11.7617 22.001 10.3537 22.001 8.63672C22.0004 7.36684 21.2123 6.3071 20.1191 5.82227C19.7011 4.92967 18.8748 4.27755 17.8623 4.20508C17.4577 3.14571 16.5158 2.35254 15.3447 2.35254C14.874 2.35254 14.4515 2.5149 14.0654 2.73535C13.4685 2.30242 12.7811 1.98828 12 1.98828ZM12 3.48828C12.5802 3.48828 13.104 3.72871 13.5156 4.14648C13.6522 4.28524 13.8373 4.36547 14.032 4.37021C14.2266 4.37494 14.4154 4.30382 14.5586 4.17188C14.7825 3.96524 15.0486 3.85254 15.3447 3.85254C15.9482 3.85254 16.4834 4.34455 16.583 5.06445C16.597 5.16553 16.6316 5.26269 16.6844 5.34997C16.7373 5.43725 16.8075 5.51282 16.8906 5.57206C16.9737 5.6313 17.068 5.67296 17.1677 5.69448C17.2675 5.71601 17.3706 5.71696 17.4707 5.69727C17.5483 5.68194 17.6185 5.6748 17.6846 5.6748C18.2054 5.6748 18.6647 6.03711 18.8535 6.61035C18.8911 6.72436 18.9555 6.82768 19.0413 6.91163C19.1272 6.99557 19.2319 7.05769 19.3467 7.09277C20.0146 7.29721 20.5006 7.90087 20.501 8.6377C20.5004 9.54327 19.7817 10.2617 18.876 10.2617C18.0308 10.2617 17.3601 9.6314 17.2715 8.81055C17.2607 8.71048 17.2299 8.61361 17.1809 8.5257C17.1319 8.43779 17.0658 8.36063 16.9863 8.29883C16.874 8.21144 16.7766 8.10935 16.6963 7.99219C16.5982 7.84899 16.4535 7.74424 16.2868 7.6958C16.1201 7.64737 15.9418 7.65824 15.7822 7.72656C15.6407 7.78723 15.4956 7.81934 15.3437 7.81934C15.0985 7.81934 14.8761 7.74168 14.6768 7.59766C14.5222 7.48584 14.3308 7.43714 14.1416 7.46145C13.9523 7.48576 13.7795 7.58126 13.6582 7.72852C13.2342 8.24331 12.6517 8.54785 12 8.54785C11.3483 8.54785 10.7659 8.24349 10.3418 7.72852C10.2205 7.58126 10.0476 7.48576 9.85843 7.46145C9.6692 7.43714 9.47782 7.48584 9.32324 7.59766C9.12367 7.74191 8.90144 7.81934 8.65625 7.81934C8.50439 7.81934 8.36031 7.78723 8.21875 7.72656C8.05919 7.65824 7.88087 7.64737 7.71419 7.6958C7.5475 7.74424 7.40278 7.84899 7.30469 7.99219C7.22486 8.10859 7.12661 8.21171 7.01367 8.2998C6.93435 8.3615 6.86824 8.4385 6.81925 8.52623C6.77027 8.61397 6.73941 8.71065 6.72852 8.81055C6.63994 9.63119 5.96955 10.2617 5.125 10.2617C4.21895 10.2617 3.5 9.54277 3.5 8.63672C3.5 7.89943 3.98546 7.29782 4.65332 7.09375C4.76813 7.05867 4.87284 6.99655 4.95866 6.9126C5.04447 6.82865 5.10889 6.72534 5.14648 6.61133C5.3353 6.03809 5.79457 5.6748 6.31543 5.6748C6.45472 5.6748 6.58804 5.70211 6.72266 5.75488C6.83062 5.79707 6.9469 5.81366 7.06236 5.80335C7.17782 5.79304 7.28932 5.75611 7.3881 5.69545C7.48689 5.6348 7.57027 5.55208 7.63171 5.45378C7.69314 5.35548 7.73096 5.24428 7.74219 5.12891C7.81522 4.37558 8.36712 3.85254 8.99023 3.85254C9.23849 3.85254 9.46314 3.93013 9.66309 4.07617C9.80102 4.17695 9.96923 4.22762 10.1399 4.21981C10.3105 4.212 10.4734 4.14616 10.6016 4.0332C10.9943 3.68601 11.4732 3.48828 12 3.48828ZM9.5 9.14355V12.8965C8.99197 11.8772 8.38931 10.9937 7.6416 10.3965C7.86743 10.0619 8.03973 9.68728 8.12793 9.2793C8.14725 9.26106 8.16373 9.23953 8.18262 9.2207C8.34227 9.25198 8.4876 9.31934 8.65625 9.31934C8.95535 9.31934 9.23274 9.24341 9.5 9.14355ZM14.501 9.14453C14.7677 9.24407 15.0449 9.31934 15.3437 9.31934C15.5126 9.31934 15.6585 9.25205 15.8184 9.2207C15.8373 9.23956 15.8537 9.26102 15.873 9.2793C15.9612 9.68721 16.1336 10.0619 16.3594 10.3965C15.6102 10.9932 15.0091 11.8772 14.501 12.8965V9.14453ZM11 9.87402C11.3141 9.98381 11.647 10.0479 12 10.0479C12.3533 10.0479 12.6866 9.98403 13.001 9.87402V19.708C13.001 19.7121 13 19.7156 13 19.7197C13.0002 19.7279 13.0005 19.736 13.001 19.7441V20.0967C13.001 20.335 12.8242 20.5117 12.5859 20.5117H12.584H11.417H11.415C11.1767 20.5117 11 20.335 11 20.0967V19.7197V9.87402Z" fill="black"/>
</svg>
