<svg width="24" height="24" viewBox="0 0 24 24" fill="none" xmlns="http://www.w3.org/2000/svg">
<path d="M9 2C6.71017 2 4.79151 3.65167 4.16113 5.73633C2.57073 6.53855 1.5 8.08723 1.5 10C1.5 12.678 3.63982 14.84 6.29004 14.957L9.48926 20.5547C9.48926 20.555 9.48926 20.5553 9.48926 20.5557C9.99927 21.4478 10.9504 22 11.9785 22C13.0367 22 14.0121 21.4146 14.5098 20.4814L17.707 14.958C20.3587 14.8426 22.5 12.6791 22.5 10C22.5 8.05704 21.3652 6.39744 19.7373 5.57129C19.1141 3.5172 17.2493 2 15 2C13.8554 2 12.8445 2.45315 12 3.10352C11.1555 2.45315 10.1446 2 9 2ZM9 3.5C9.96861 3.5 10.837 3.88982 11.4707 4.52148C11.6113 4.66149 11.8016 4.74009 12 4.74009C12.1984 4.74009 12.3887 4.66149 12.5293 4.52148C13.163 3.88982 14.0314 3.5 15 3.5C16.6804 3.5 18.07 4.6757 18.416 6.24316C18.4418 6.36015 18.4953 6.46925 18.5719 6.56134C18.6485 6.65343 18.7461 6.72582 18.8564 6.77246C20.1138 7.30221 21 8.54145 21 10C21 11.9416 19.4416 13.5 17.5 13.5C16.3925 13.5 15.4176 12.9888 14.7754 12.1885C14.7041 12.0995 14.6134 12.028 14.5103 11.9793C14.4071 11.9307 14.2943 11.9061 14.1803 11.9077C14.0662 11.9092 13.9541 11.9366 13.8523 11.988C13.7505 12.0394 13.6617 12.1133 13.5928 12.2041C13.226 12.6881 12.6554 13 12 13C11.3446 13 10.774 12.6881 10.4072 12.2041C10.3383 12.1133 10.2495 12.0394 10.1477 11.988C10.0459 11.9366 9.93375 11.9092 9.81973 11.9077C9.70571 11.9061 9.59285 11.9307 9.48973 11.9793C9.38661 12.028 9.29594 12.0995 9.22461 12.1885C8.58239 12.9888 7.60754 13.5 6.5 13.5C4.55841 13.5 3 11.9416 3 10C3 8.51238 3.75138 7.48417 5.04102 6.94141C5.15166 6.8948 5.2495 6.82231 5.32631 6.73003C5.40312 6.63776 5.45666 6.5284 5.48242 6.41113C5.82445 4.85979 7.36107 3.5 9 3.5ZM6.75 7.5C6.65062 7.49859 6.55194 7.51696 6.45972 7.55402C6.36749 7.59108 6.28355 7.6461 6.21277 7.71588C6.142 7.78566 6.08579 7.86882 6.04743 7.96051C6.00907 8.0522 5.98932 8.15061 5.98932 8.25C5.98932 8.34939 6.00907 8.4478 6.04743 8.53949C6.08579 8.63118 6.142 8.71434 6.21277 8.78412C6.28355 8.8539 6.36749 8.90892 6.45972 8.94598C6.55194 8.98304 6.65062 9.00141 6.75 9C6.75 9 7.09392 9.01034 7.41504 9.1709C7.73615 9.33146 8 9.5 8 10.25C7.99859 10.3494 8.01696 10.4481 8.05402 10.5403C8.09108 10.6325 8.1461 10.7164 8.21588 10.7872C8.28566 10.858 8.36882 10.9142 8.46051 10.9526C8.5522 10.9909 8.65061 11.0107 8.75 11.0107C8.84939 11.0107 8.9478 10.9909 9.03949 10.9526C9.13118 10.9142 9.21434 10.858 9.28412 10.7872C9.3539 10.7164 9.40892 10.6325 9.44598 10.5403C9.48304 10.4481 9.5014 10.3494 9.5 10.25C9.5 9 8.76385 8.16854 8.08496 7.8291C7.40608 7.48966 6.75 7.5 6.75 7.5ZM17.25 7.5C16 7.5 15.1685 8.23615 14.8291 8.91504C14.4897 9.59392 14.5 10.25 14.5 10.25C14.4986 10.3494 14.517 10.4481 14.554 10.5403C14.5911 10.6325 14.6461 10.7164 14.7159 10.7872C14.7857 10.858 14.8688 10.9142 14.9605 10.9526C15.0522 10.9909 15.1506 11.0107 15.25 11.0107C15.3494 11.0107 15.4478 10.9909 15.5395 10.9526C15.6312 10.9142 15.7143 10.858 15.7841 10.7872C15.8539 10.7164 15.9089 10.6325 15.946 10.5403C15.983 10.4481 16.0014 10.3494 16 10.25C16 10.25 16.0103 9.90608 16.1709 9.58496C16.3315 9.26385 16.5 9 17.25 9C17.3494 9.00141 17.4481 8.98304 17.5403 8.94598C17.6325 8.90892 17.7164 8.8539 17.7872 8.78412C17.858 8.71434 17.9142 8.63118 17.9526 8.53949C17.9909 8.4478 18.0107 8.34939 18.0107 8.25C18.0107 8.15061 17.9909 8.0522 17.9526 7.96051C17.9142 7.86882 17.858 7.78566 17.7872 7.71588C17.7164 7.6461 17.6325 7.59108 17.5403 7.55402C17.4481 7.51696 17.3494 7.49859 17.25 7.5ZM9.80078 13.6035C10.273 14.0035 10.8243 14.2659 11.4609 14.3711L11.0146 16.6025C10.9936 16.6997 10.9922 16.8001 11.0103 16.8979C11.0285 16.9957 11.0659 17.0889 11.1204 17.1721C11.1749 17.2553 11.2454 17.3268 11.3278 17.3825C11.4102 17.4381 11.5028 17.4769 11.6003 17.4964C11.6978 17.516 11.7982 17.516 11.8957 17.4963C11.9932 17.4767 12.0858 17.4379 12.1682 17.3822C12.2506 17.3265 12.321 17.2549 12.3755 17.1717C12.4299 17.0885 12.4673 16.9952 12.4854 16.8975L12.9854 14.3975C12.9948 14.3521 13 14.306 13.001 14.2598C13.4552 14.1184 13.8448 13.9037 14.1992 13.6035C14.7484 14.1073 15.3502 14.5491 16.083 14.7686L13.1992 19.7529C13.1949 19.7603 13.1906 19.7678 13.1865 19.7754C12.9482 20.2223 12.4853 20.5 11.9785 20.5C11.4866 20.5 11.035 20.2374 10.791 19.8105L7.91211 14.7715C8.64701 14.5523 9.25021 14.1085 9.80078 13.6035Z" fill="black"/>
</svg>
