<svg width="24" height="24" viewBox="0 0 24 24" fill="none" xmlns="http://www.w3.org/2000/svg">
<path d="M16.0947 3.5049C15.1958 3.54337 14.3677 3.89968 13.7412 4.46583C13.5751 4.61596 13.3262 4.67346 13.0723 4.60646C13.0719 4.60646 13.0716 4.60646 13.0713 4.60646C12.809 4.53729 12.5334 4.50001 12.25 4.50001C11.3279 4.50001 10.4937 4.89226 9.90039 5.51564C9.37701 5.1135 8.71067 4.87501 8 4.87501C6.38587 4.87501 5 6.10624 5 7.68751C5 7.69487 5.00283 7.69972 5.00293 7.70704C3.29407 8.16138 2 9.6535 2 11.5C2 12.7934 2.61953 13.9524 3.57812 14.6817C3.8735 14.9066 4.02356 15.2106 4.00488 15.5361V15.5371C4.00144 15.5898 4 15.6407 4 15.6875C4 17.2175 4.94101 17.8481 5.50781 18.1504C5.52345 18.5456 5.60933 19.0662 6.01855 19.6289C6.67883 20.5368 8.07495 21.1962 10.5264 21.0137C11.3592 21.6318 12.3874 22 13.5 22C15.1179 22 16.562 21.2238 17.4736 20.0274C17.474 20.027 17.4743 20.0267 17.4746 20.0264C17.5052 19.9861 17.557 19.9557 17.6172 19.9492C18.2249 19.8868 19.0953 19.6194 19.9268 18.9736C20.7582 18.3279 21.5 17.2352 21.5 15.75C21.5 14.5275 20.941 13.2678 19.9619 12.5361C20.3011 12.0222 20.5 11.4081 20.5 10.75C20.5 10.0679 20.2828 9.43092 19.9209 8.91212C19.8186 8.7656 19.7862 8.52649 19.8623 8.25587C19.8623 8.25555 19.8623 8.25522 19.8623 8.2549C20.0319 7.64977 20.0515 6.97868 19.8809 6.30177C19.5332 4.92126 18.4078 3.85408 17.0127 3.57619C16.7023 3.51429 16.3944 3.49207 16.0947 3.5049ZM16.1533 5.00001C16.3354 4.99296 16.5249 5.00804 16.7197 5.04689C17.5336 5.20899 18.2244 5.86452 18.4268 6.66798C18.5341 7.09407 18.5194 7.48872 18.418 7.8506C18.2483 8.45479 18.2739 9.17234 18.6914 9.77052H18.6904C18.8866 10.0517 19 10.3822 19 10.75C19 11.0277 18.9357 11.2881 18.8223 11.5195C18.1486 8.64932 15.5711 6.50001 12.5 6.50001C11.9224 6.50001 11.3647 6.58318 10.8311 6.7256C11.1472 6.28589 11.6603 6.00001 12.25 6.00001C12.4026 6.00001 12.5498 6.01982 12.6895 6.05665C13.3945 6.24265 14.1772 6.09399 14.7471 5.57911C15.1248 5.23777 15.607 5.02118 16.1533 5.00001ZM8 6.37501C8.47116 6.37501 8.86647 6.55822 9.13477 6.834C9.06884 7.05615 9.02726 7.28769 9.01074 7.52638C7.20441 8.68297 6 10.7031 6 13C6 15.1408 7.04809 17.0392 8.65234 18.2246C8.77107 18.6955 8.95839 19.138 9.20019 19.5449C7.96579 19.4672 7.46644 19.0692 7.23144 18.7461C6.91902 18.3165 6.99023 17.8731 6.99023 17.8731C7.01961 17.6968 6.98508 17.5158 6.89288 17.3627C6.80068 17.2097 6.65685 17.0945 6.4873 17.0381C6.4873 17.0381 5.5 16.77 5.5 15.6875C5.5 15.6654 5.50095 15.6474 5.50195 15.6328C5.50197 15.6299 5.50197 15.627 5.50195 15.624C5.55194 14.7669 5.13466 13.9802 4.4873 13.4873C4.48698 13.4873 4.48665 13.4873 4.48633 13.4873C3.88592 13.0306 3.5 12.3166 3.5 11.5C3.5 10.1505 4.5506 9.06867 5.88281 9.00685C5.99766 9.00157 6.10976 8.96995 6.21045 8.91445C6.31114 8.85895 6.39772 8.78104 6.4635 8.68675C6.52929 8.59246 6.57252 8.48431 6.58985 8.37066C6.60719 8.257 6.59816 8.14088 6.56348 8.03126C6.52043 7.89502 6.5 7.78475 6.5 7.68751C6.5 6.99079 7.12913 6.37501 8 6.37501ZM12.5 8.00001C15.2294 8.00001 17.4296 10.1656 17.4941 12.8789C17.4679 12.9875 17.4662 13.1006 17.4893 13.21C17.4712 13.6479 17.403 14.0724 17.2803 14.4736C16.6754 14.4019 16.5895 14.1861 16.5146 13.9863C16.4233 13.7429 16.4775 13.4317 16.4775 13.4317C16.5051 13.3211 16.5072 13.2057 16.4835 13.0943C16.4598 12.9828 16.4111 12.8782 16.3409 12.7884C16.2708 12.6986 16.1812 12.626 16.0788 12.576C15.9764 12.526 15.8639 12.5 15.75 12.5C15.25 12.5 14.9972 12.3857 14.8398 12.2647C14.6825 12.1436 14.592 11.9868 14.5312 11.7842C14.4097 11.3789 14.4854 10.8975 14.4854 10.8975C14.5072 10.7886 14.5045 10.6763 14.4777 10.5686C14.4508 10.4609 14.4004 10.3606 14.3301 10.2747C14.2597 10.1888 14.1712 10.1197 14.0709 10.0722C13.9706 10.0247 13.861 10 13.75 10C12.8 10 12.3191 9.48782 11.96 8.87208C11.7949 8.58907 11.6877 8.30936 11.6143 8.08302C11.9022 8.03185 12.1969 8.00001 12.5 8.00001ZM10.1953 8.56154C10.2968 8.87102 10.4399 9.24203 10.665 9.62794C11.0458 10.2807 11.7192 10.9618 12.6631 11.2832C12.6588 11.2887 12.6545 11.2942 12.6504 11.2998C12.0504 12.0998 11.562 12.101 11.0713 12.0117C10.5806 11.9225 10.2002 11.6504 10.2002 11.6504C10.0989 11.5744 9.97991 11.5252 9.85445 11.5076C9.72899 11.49 9.6011 11.5044 9.48273 11.5495C9.36435 11.5947 9.25934 11.6691 9.17749 11.7658C9.09564 11.8625 9.03961 11.9783 9.01465 12.1026C8.80236 13.164 8.34581 13.5614 7.94824 13.7822C7.81212 13.8579 7.69507 13.9004 7.58984 13.9326C7.53315 13.6302 7.5 13.3194 7.5 13C7.5 11.0625 8.59194 9.39237 10.1953 8.56154ZM13.3281 12.751C13.4711 13.0042 13.6607 13.2502 13.9258 13.4541C14.2164 13.6777 14.5984 13.8114 15.0186 13.8984C15.035 14.0992 15.0237 14.2825 15.1104 14.5137C15.3114 15.0498 15.8308 15.5671 16.6289 15.8262C15.7299 17.1404 14.2196 18 12.5 18C10.5784 18 8.91874 16.9266 8.08105 15.3447C8.26874 15.2855 8.46879 15.2083 8.67676 15.0928C9.22567 14.7878 9.74361 14.124 10.1221 13.249C10.3367 13.3375 10.5256 13.4377 10.8037 13.4883C11.5282 13.62 12.5035 13.4669 13.3281 12.751ZM18.96 13.709C19.5093 14.1423 20 15.0255 20 15.75C20 16.7648 19.5656 17.3551 19.0068 17.7891C18.448 18.2231 17.7142 18.4314 17.4648 18.457C17.4645 18.457 17.4642 18.457 17.4639 18.457C16.9995 18.5048 16.5695 18.7396 16.2812 19.1182C15.6409 19.9587 14.6401 20.5 13.5 20.5C12.6744 20.5 11.9188 20.2159 11.3223 19.7412C11.2935 19.7096 11.2622 19.6806 11.2285 19.6543C11.0932 19.5383 10.9658 19.4144 10.8496 19.2793C11.3777 19.4186 11.9291 19.5 12.5 19.5C15.8412 19.5 18.6047 16.9581 18.96 13.709Z" fill="black"/>
</svg>
