<svg width="24" height="24" viewBox="0 0 24 24" fill="none" xmlns="http://www.w3.org/2000/svg">
<path d="M17.75 1.49995C16.6719 1.49995 15.8706 1.66375 15.2588 1.96968C14.6469 2.27561 14.2427 2.74905 14.0537 3.22163C14.0449 3.24366 14.0549 3.2583 14.0469 3.28023C13.648 3.10434 13.2116 2.99995 12.75 2.99995C11.7292 2.99995 10.8686 3.40977 10.3145 4.03316C9.76033 4.65654 9.5 5.45829 9.5 6.24995C9.5 6.86486 9.71025 7.46113 10.04 7.99995H8H5.75H5.5C4.12817 7.99995 3 9.12812 3 10.5C3 10.5432 3.00463 10.5852 3.00684 10.6279C3.005 10.6687 3 10.7087 3 10.75V19.75C3 21.2598 4.24011 22.5 5.75 22.5H18.75C20.2599 22.5 21.5 21.2598 21.5 19.75V10.75C21.5 10.7087 21.495 10.6687 21.4932 10.6279C21.4954 10.5852 21.5 10.5432 21.5 10.5C21.5 9.12812 20.3718 7.99995 19 7.99995H18.75H16.5H15.4131C15.753 7.4867 16 6.9075 16 6.24995C16 5.64051 15.7838 5.10035 15.4883 4.61128C15.4789 4.56348 15.4648 4.51671 15.4463 4.47163C15.4463 4.47163 15.3244 4.08311 15.4463 3.77827C15.5073 3.62586 15.6031 3.4743 15.9287 3.31148C16.2544 3.14866 16.8281 2.99995 17.75 2.99995C17.8494 3.00136 17.9481 2.983 18.0403 2.94594C18.1325 2.90888 18.2164 2.85386 18.2872 2.78407C18.358 2.71429 18.4142 2.63114 18.4526 2.53944C18.4909 2.44775 18.5107 2.34935 18.5107 2.24995C18.5107 2.15056 18.4909 2.05216 18.4526 1.96046C18.4142 1.86877 18.358 1.78562 18.2872 1.71583C18.2164 1.64605 18.1325 1.59103 18.0403 1.55397C17.9481 1.51691 17.8494 1.49855 17.75 1.49995ZM12.75 4.49995C13.7254 4.49995 14.5 5.27457 14.5 6.24995C14.5 7.22534 13.7254 7.99995 12.75 7.99995C12.1042 7.99995 11.7148 7.78477 11.4355 7.47066C11.1563 7.15654 11 6.70829 11 6.24995C11 5.79162 11.1563 5.34336 11.4355 5.02925C11.7148 4.71514 12.1042 4.49995 12.75 4.49995ZM5.75 9.49995H8H12.75H16.5H18.75C19.4073 9.49995 19.9276 9.98864 19.9883 10.6279C19.9267 11.1257 19.5172 11.5 19 11.5C18.7257 11.5 18.4917 11.3864 18.2988 11.1875C18.2287 11.1151 18.1446 11.0575 18.0517 11.0184C17.9588 10.9792 17.859 10.9591 17.7582 10.9594C17.6573 10.9597 17.5576 10.9803 17.4649 11.0199C17.3722 11.0596 17.2885 11.1176 17.2188 11.1904C17.0335 11.3832 16.7858 11.5 16.5 11.5H16.25C15.9725 11.5 15.7364 11.3845 15.543 11.1816C15.4729 11.1082 15.3887 11.0499 15.2955 11.01C15.2023 10.9701 15.1019 10.9495 15.0005 10.9495C14.8991 10.9495 14.7987 10.9701 14.7055 11.01C14.6122 11.0499 14.528 11.1082 14.458 11.1816C14.2643 11.3845 14.027 11.5 13.75 11.5H13.5C13.2225 11.5 12.9864 11.3845 12.793 11.1816C12.7229 11.1082 12.6387 11.0499 12.5455 11.01C12.4523 10.9701 12.3519 10.9495 12.2505 10.9495C12.1491 10.9495 12.0487 10.9701 11.9555 11.01C11.8622 11.0499 11.778 11.1082 11.708 11.1816C11.5143 11.3845 11.277 11.5 11 11.5H10.75C10.4725 11.5 10.2364 11.3845 10.043 11.1816C9.97293 11.1082 9.88875 11.0499 9.79551 11.01C9.70227 10.9701 9.6019 10.9495 9.50049 10.9495C9.39907 10.9495 9.29871 10.9701 9.20547 11.01C9.11223 11.0499 9.02805 11.1082 8.95801 11.1816C8.76427 11.3845 8.52696 11.5 8.25 11.5H8C7.71418 11.5 7.46652 11.3832 7.28125 11.1904C7.21149 11.1178 7.12782 11.0599 7.03523 11.0203C6.94264 10.9807 6.84302 10.9602 6.74232 10.9599C6.64162 10.9596 6.54189 10.9796 6.44909 11.0187C6.35628 11.0578 6.2723 11.1152 6.20215 11.1875C6.00854 11.3869 5.77359 11.5 5.5 11.5C4.98278 11.5 4.57328 11.1257 4.51172 10.6279C4.57235 9.98864 5.09273 9.49995 5.75 9.49995ZM9.5 12.6035C9.86915 12.8302 10.2791 13 10.75 13H11C11.4713 13 11.881 12.8302 12.25 12.6035C12.6191 12.8302 13.0291 13 13.5 13H13.75C14.2213 13 14.631 12.8302 15 12.6035C15.3691 12.8302 15.7791 13 16.25 13H16.5C16.9676 13 17.3818 12.8338 17.7568 12.6084C18.1241 12.8322 18.5319 13 19 13C19.3552 13 19.6928 12.922 20 12.7861V14.5H4.5V12.7861C4.80718 12.922 5.14479 13 5.5 13C5.9678 13 6.375 12.832 6.74219 12.6084C7.11734 12.8341 7.53207 13 8 13H8.25C8.72134 13 9.13099 12.8302 9.5 12.6035ZM4.5 19.5H20V19.75C20 20.4491 19.4491 21 18.75 21H5.75C5.05089 21 4.5 20.4491 4.5 19.75V19.5Z" fill="black"/>
</svg>
