<svg width="24" height="24" viewBox="0 0 24 24" fill="none" xmlns="http://www.w3.org/2000/svg">
<path d="M10.3447 1.76952C10.175 1.77802 10.0062 1.79701 9.8408 1.82616C8.61275 2.04263 7.48569 2.91077 7.16697 4.23534C6.53566 4.71553 6.06438 5.4083 5.81346 6.22069C5.56917 7.0116 5.55221 7.94836 6.02244 8.70409C5.73393 9.48988 5.5023 10.2883 5.51756 11.082C5.5321 11.8387 5.92705 12.5651 6.56736 13.0908C6.52897 14.0286 6.73982 14.923 7.30174 15.6025C7.81367 16.2216 8.58624 16.597 9.45994 16.8232C9.43024 17.1712 9.33949 17.5476 9.42088 17.8506C9.56084 18.3715 9.89403 18.7899 10.2695 19.0683C10.8067 19.4666 11.4089 19.6747 12.0127 19.8838C12.0106 20.8218 12.001 21.7563 12.001 22.5215C11.9996 22.6209 12.0179 22.7195 12.055 22.8118C12.092 22.904 12.1471 22.9879 12.2168 23.0587C12.2866 23.1295 12.3698 23.1857 12.4615 23.224C12.5532 23.2624 12.6516 23.2822 12.751 23.2822C12.8504 23.2822 12.9488 23.2624 13.0404 23.224C13.1321 23.1857 13.2153 23.1295 13.2851 23.0587C13.3549 22.9879 13.4099 22.904 13.4469 22.8118C13.484 22.7195 13.5024 22.6209 13.501 22.5215C13.501 21.8275 13.5163 20.9387 13.5263 20.0644C14.3521 19.8589 15.166 19.4933 15.665 18.7295C16.1164 18.0385 16.0674 17.0848 15.7158 16.0674C17.5967 15.4661 18.5146 13.6145 18.0068 11.9385C18.6585 10.9466 18.5428 9.67036 18.1387 8.59862C17.7543 7.57947 17.1626 6.66777 16.3115 6.18261C16.201 4.89008 15.2557 3.55725 13.4394 3.04101C12.7413 2.2669 11.8072 1.84414 10.8564 1.77538C10.6852 1.763 10.5145 1.76102 10.3447 1.76952ZM10.4179 3.26854C11.1632 3.23072 11.9477 3.51069 12.4394 4.13671C12.5461 4.27205 12.6961 4.36654 12.8642 4.40429C14.5227 4.7796 14.9456 5.89659 14.8721 6.57323C14.8537 6.74402 14.8944 6.91595 14.9876 7.06028C15.0807 7.20461 15.2206 7.3126 15.3838 7.3662C15.6441 7.45164 16.3951 8.22571 16.7353 9.12792C17.0756 10.0301 17.0447 10.8917 16.6894 11.2715C16.5854 11.3828 16.5177 11.5231 16.4953 11.6739C16.473 11.8246 16.4971 11.9785 16.5644 12.1152C17.0897 13.1842 16.5359 14.7314 14.748 14.8457C14.6213 14.8538 14.4987 14.8939 14.3917 14.9623C14.2847 15.0307 14.1969 15.1252 14.1363 15.2368C14.0758 15.3485 14.0447 15.4737 14.0457 15.6007C14.0468 15.7277 14.0801 15.8523 14.1426 15.9629C14.7421 17.0248 14.6491 17.5418 14.4092 17.9092C14.2494 18.1537 13.9072 18.3485 13.5097 18.5049C13.4787 14.8275 13.1282 10.3629 10.9248 6.92479C10.8725 6.84007 10.8038 6.76661 10.7228 6.7087C10.6418 6.65079 10.5501 6.60959 10.453 6.5875C10.3559 6.5654 10.2554 6.56286 10.1573 6.58002C10.0592 6.59718 9.96555 6.63369 9.88173 6.68743C9.79791 6.74118 9.72562 6.81107 9.6691 6.89304C9.61257 6.97501 9.57292 7.06741 9.55248 7.16486C9.53203 7.26231 9.5312 7.36286 9.55002 7.46064C9.56884 7.55841 9.60693 7.65147 9.66209 7.73436C11.5236 10.6389 11.9007 14.6761 11.9736 18.2031C11.7223 18.1009 11.2969 17.9635 11.1631 17.8642C10.9866 17.7334 10.9176 17.6415 10.8691 17.4609C10.8206 17.2803 10.8104 16.9663 10.9414 16.458C10.968 16.3547 10.9723 16.247 10.954 16.142C10.9357 16.0369 10.8952 15.937 10.8352 15.8488C10.7753 15.7606 10.6972 15.6863 10.6062 15.6307C10.5152 15.5751 10.4134 15.5395 10.3076 15.5264C9.41455 15.4153 8.81891 15.0829 8.45799 14.6465C8.09707 14.21 7.93175 13.6427 8.03318 12.8906C8.05401 12.7358 8.02596 12.5783 7.95295 12.4402C7.87995 12.302 7.76563 12.1901 7.62596 12.1201C7.13209 11.8723 7.02734 11.6131 7.01658 11.0537C7.00583 10.4943 7.21985 9.69422 7.54588 8.87011C7.60032 8.73271 7.61295 8.5823 7.5822 8.43774C7.55145 8.29319 7.47868 8.16095 7.37303 8.05761C7.11555 7.80601 7.05311 7.29097 7.24705 6.66308C7.44099 6.03518 7.92612 5.42586 8.1826 5.28222C8.2844 5.22515 8.37149 5.14512 8.43693 5.04849C8.50237 4.95186 8.54435 4.84129 8.55955 4.72558C8.66477 3.92223 9.27043 3.4502 10.1015 3.3037C10.2054 3.28539 10.3115 3.27395 10.4179 3.26854Z" fill="black"/>
</svg>
