<svg width="24" height="24" viewBox="0 0 24 24" fill="none" xmlns="http://www.w3.org/2000/svg">
<path d="M11.9545 2.25C10.87 2.25023 9.81828 2.62155 8.97405 3.30225C8.32099 3.82881 7.82253 4.51597 7.52371 5.29072C7.14876 5.24918 6.76932 5.25236 6.39345 5.3008C5.7747 5.38055 5.17771 5.58138 4.63658 5.89183C4.09545 6.20229 3.62076 6.61629 3.23962 7.1102C2.85849 7.6041 2.57836 8.16824 2.41525 8.77041C2.25214 9.37257 2.20923 10.001 2.28897 10.6197C2.36871 11.2385 2.56954 11.8354 2.87999 12.3766C3.19045 12.9177 3.60445 13.3924 4.09836 13.7735C4.43749 14.0352 4.80973 14.2493 5.20466 14.4106V16.2583C7.81497 16.2567 11.1955 16.2548 14.0615 16.2532L18.7047 16.2507V14.4107C19.6793 14.013 20.5 13.3 21.0295 12.3774C21.6568 11.2848 21.8242 9.98772 21.4951 8.77158C21.166 7.55544 20.3673 6.51985 19.2746 5.89263C18.3951 5.38778 17.3832 5.18078 16.3877 5.29084C15.7011 3.51251 13.9763 2.25 11.9545 2.25Z" fill="black"/>
<path d="M18.7047 17.7507L14.0623 17.7532C11.196 17.7548 7.81503 17.7567 5.20466 17.7583V21C5.20466 21.4142 5.54045 21.75 5.95466 21.75H17.9547C18.3689 21.75 18.7047 21.4142 18.7047 21V17.7507Z" fill="black"/>
</svg>
