<svg width="24" height="24" viewBox="0 0 24 24" fill="none" xmlns="http://www.w3.org/2000/svg">
<path d="M13.25 0.999995C13.1506 0.998589 13.0519 1.01695 12.9597 1.05401C12.8675 1.09107 12.7836 1.14609 12.7128 1.21587C12.642 1.28566 12.5858 1.36881 12.5474 1.46051C12.5091 1.5522 12.4893 1.6506 12.4893 1.74999C12.4893 1.84939 12.5091 1.94779 12.5474 2.03948C12.5858 2.13118 12.642 2.21433 12.7128 2.28411C12.7836 2.3539 12.8675 2.40892 12.9597 2.44598C13.0519 2.48304 13.1506 2.5014 13.25 2.49999C13.25 2.49999 13.8419 2.518 14.3281 2.7832C14.7465 3.01139 15.1024 3.28324 15.0605 4.15624C13.014 4.68632 11.4912 6.54742 11.4912 8.75488V9.40917C10.9497 8.93968 10.3334 8.57955 9.65039 8.46582C9.47736 8.43685 9.29965 8.46945 9.14817 8.55794C8.99669 8.64644 8.88103 8.78524 8.82129 8.95019C8.82129 8.95019 8.6035 9.53258 8.41504 10.0312C7.98241 9.06211 7.395 8.3432 6.80078 7.89453C5.83296 7.16375 4.86523 7.00878 4.86523 7.00878C4.81581 7.00121 4.76576 6.99859 4.71582 7.00097C4.59109 7.00672 4.46977 7.04352 4.36286 7.10802C4.25596 7.17252 4.16684 7.26269 4.1036 7.37036C4.04036 7.47802 4.005 7.59976 4.00072 7.72455C3.99644 7.84934 4.02339 7.97322 4.0791 8.08496C4.62182 9.17075 4.02719 10.948 3.56934 11.9336C3.08309 12.9039 2.5 13.9045 2.5 15.25C2.5 16.8506 3.21153 18.1525 4.22656 19.1435C3.78426 19.543 3.5 20.1078 3.5 20.75C3.5 21.9837 4.51625 23 5.75 23H8C15.1708 23 21 17.1708 21 9.99999V8.75488C21 6.23527 19.0163 4.16548 16.5332 4.01464C16.4713 2.74585 15.7795 1.86638 15.0469 1.46679C14.1581 0.981991 13.25 0.999995 13.25 0.999995ZM16.2451 5.49999C18.0512 5.49999 19.5 6.94876 19.5 8.75488V9.99999C19.5 16.3602 14.3602 21.5 8 21.5H5.75C5.32675 21.5 5 21.1732 5 20.75C5 20.3267 5.32675 20 5.75 20V19.959C5.75852 19.9562 5.76698 19.9533 5.77539 19.9502C7.83108 19.8267 9.58093 18.9893 10.8096 17.6279C12.1385 16.1555 12.8854 14.1403 12.9902 11.9102L12.9912 11.8926V11.8623C13.0024 11.7882 13.0024 11.7128 12.9912 11.6387V8.75488C12.9912 6.94876 14.439 5.49999 16.2451 5.49999ZM5.80957 9.04296C5.84279 9.0664 5.86369 9.06629 5.89746 9.09179C6.57914 9.60651 7.32161 10.5022 7.50391 12.3242C7.51367 12.4226 7.5428 12.5181 7.58962 12.6053C7.63645 12.6924 7.70003 12.7694 7.77673 12.8318C7.85342 12.8943 7.94171 12.9409 8.03651 12.9691C8.13131 12.9973 8.23075 13.0065 8.3291 12.9961C8.82766 12.9431 8.82803 12.7492 8.88672 12.6738C8.94541 12.5985 8.97761 12.5413 9.01172 12.4805C9.07994 12.3589 9.14191 12.2273 9.21094 12.0732C9.349 11.7652 9.50581 11.3784 9.65625 10.9932C9.80258 10.6185 9.83097 10.5322 9.93652 10.248C10.1744 10.3699 10.3945 10.4219 10.6289 10.6406C11.0091 10.9954 11.3227 11.4512 11.4893 11.8721C11.3922 13.796 10.748 15.4567 9.69531 16.623C8.72407 17.6992 7.41029 18.3732 5.73828 18.4785C4.66951 17.6512 4 16.6414 4 15.25C4 14.3371 4.40896 13.6088 4.9209 12.585C4.92424 12.5788 4.9275 12.5726 4.93066 12.5664C5.29475 11.7827 5.86622 10.4449 5.80957 9.04296Z" fill="black"/>
</svg>
