<svg width="24" height="24" viewBox="0 0 24 24" fill="none" xmlns="http://www.w3.org/2000/svg">
<path d="M17.9785 1.5C17.7837 1.5031 17.5977 1.58191 17.4599 1.71972L1.7197 17.46C1.57911 17.6006 1.50012 17.7913 1.50012 17.9902C1.50012 18.1891 1.57911 18.3798 1.7197 18.5205C6.35281 23.1536 13.8874 23.1536 18.5205 18.5205C23.1536 13.8874 23.1536 6.35283 18.5205 1.71972C18.4495 1.64867 18.3649 1.5926 18.2718 1.55486C18.1787 1.51711 18.0789 1.49846 17.9785 1.5ZM17.9365 3.36425C21.4675 7.44661 21.3381 13.5818 17.4599 17.46C13.5818 21.3381 7.44659 21.4675 3.36424 17.9365L4.39842 16.9023C7.88011 19.841 13.1205 19.6768 16.3994 16.3984C19.6781 13.1203 19.8414 7.8805 16.9023 4.39843L17.9365 3.36425ZM15.8427 5.458C16.3529 6.08262 16.7389 6.77298 17.0136 7.49609L12.6299 8.67089L15.8427 5.458ZM17.3994 8.94628C17.5241 9.72427 17.5243 10.517 17.3994 11.2949L13.0185 10.1201L17.3994 8.94628ZM12.6299 11.5693L17.0136 12.7432C16.7389 13.4664 16.3521 14.1566 15.8418 14.7812L12.6299 11.5693ZM8.67088 12.6299L7.49705 17.0127C6.77403 16.738 6.08348 16.3519 5.45896 15.8418L8.67088 12.6299ZM11.5693 12.6299L14.7812 15.8418C14.1564 16.3519 13.4664 16.738 12.7431 17.0127L11.5693 12.6299ZM10.1201 13.0185L11.2939 17.3984C10.5163 17.5232 9.72485 17.5231 8.94724 17.3984L10.1201 13.0185Z" fill="black"/>
</svg>
