<svg width="24" height="24" viewBox="0 0 24 24" fill="none" xmlns="http://www.w3.org/2000/svg">
<path d="M12 2.55078C7.5 2.55078 3 7.02876 3 12.5518C3 18.0748 6.477 21.5518 12 21.5518C17.523 21.5518 21 18.0748 21 12.5518C21 7.02876 16.5 2.55078 12 2.55078ZM12 4.05078C15.5405 4.05078 19.5 7.68676 19.5 12.5518C19.5 17.2483 16.6965 20.0518 12 20.0518C7.3035 20.0518 4.5 17.2483 4.5 12.5518C4.5 7.68626 8.4595 4.05078 12 4.05078ZM10.25 7C10.0511 7 9.86032 7.07902 9.71967 7.21967C9.57902 7.36032 9.5 7.55109 9.5 7.75C9.5 7.94891 9.57902 8.13968 9.71967 8.28033C9.86032 8.42098 10.0511 8.5 10.25 8.5C10.4489 8.5 10.6397 8.42098 10.7803 8.28033C10.921 8.13968 11 7.94891 11 7.75C11 7.55109 10.921 7.36032 10.7803 7.21967C10.6397 7.07902 10.4489 7 10.25 7ZM8.25 8.5C8.05109 8.5 7.86032 8.57902 7.71967 8.71967C7.57902 8.86032 7.5 9.05109 7.5 9.25C7.5 9.44891 7.57902 9.63968 7.71967 9.78033C7.86032 9.92098 8.05109 10 8.25 10C8.44891 10 8.63968 9.92098 8.78033 9.78033C8.92098 9.63968 9 9.44891 9 9.25C9 9.05109 8.92098 8.86032 8.78033 8.71967C8.63968 8.57902 8.44891 8.5 8.25 8.5ZM11.75 9C11.5511 9 11.3603 9.07902 11.2197 9.21967C11.079 9.36032 11 9.55109 11 9.75C11 9.94891 11.079 10.1397 11.2197 10.2803C11.3603 10.421 11.5511 10.5 11.75 10.5C11.9489 10.5 12.1397 10.421 12.2803 10.2803C12.421 10.1397 12.5 9.94891 12.5 9.75C12.5 9.55109 12.421 9.36032 12.2803 9.21967C12.1397 9.07902 11.9489 9 11.75 9ZM17.2383 12.4893C17.0395 12.4924 16.8502 12.5742 16.7117 12.7169C16.5733 12.8595 16.4971 13.0513 16.5 13.25C16.5 15.2222 15.4873 16.176 14.3887 16.7803C13.29 17.3845 12.1758 17.5039 12.1758 17.5039C12.0758 17.511 11.9782 17.5381 11.8888 17.5836C11.7994 17.6291 11.7201 17.692 11.6554 17.7687C11.5908 17.8454 11.5422 17.9342 11.5125 18.03C11.4828 18.1258 11.4726 18.2266 11.4826 18.3263C11.4925 18.4261 11.5223 18.5229 11.5703 18.611C11.6183 18.699 11.6834 18.7766 11.7619 18.839C11.8404 18.9015 11.9306 18.9475 12.0271 18.9745C12.1237 19.0015 12.2247 19.0088 12.3242 18.9961C12.3242 18.9961 13.71 18.8655 15.1113 18.0947C16.5127 17.324 18 15.7778 18 13.25C18.0014 13.1496 17.9827 13.05 17.9449 12.957C17.9071 12.8639 17.8511 12.7795 17.78 12.7085C17.709 12.6376 17.6245 12.5816 17.5314 12.544C17.4383 12.5063 17.3387 12.4877 17.2383 12.4893Z" fill="black"/>
</svg>
