<svg width="24" height="24" viewBox="0 0 24 24" fill="none" xmlns="http://www.w3.org/2000/svg">
<path d="M11.2412 2C11.2148 1.99991 11.1884 2.00122 11.1621 2.00391C10.6342 2.02512 10.0791 2.14295 9.52736 2.33497C8.11671 2.82587 6.60299 3.80988 5.22169 5.18262C3.8404 6.55536 2.84635 8.06412 2.34669 9.47168C2.14233 10.0474 2.02071 10.6258 2.0049 11.1748C2.00147 11.2046 1.99984 11.2346 2.00001 11.2647V12C2.00001 14.5582 2.97985 17.122 4.9297 19.0713C8.82883 22.9698 15.1724 22.9702 19.0713 19.0713C22.9704 15.1722 22.9704 8.8278 19.0713 4.92872C17.1059 2.96388 14.5443 1.99946 12.002 2.00196H11.999L11.2412 2ZM11.4297 3.50489C11.8014 3.52501 12.0723 3.63571 12.2363 3.80079C12.5644 4.13093 12.6726 4.89046 12.2725 6.01758C11.8724 7.1447 10.9973 8.50851 9.75392 9.74414C8.51058 10.9798 7.14131 11.8462 6.01173 12.2393C4.88215 12.6324 4.12401 12.5196 3.79591 12.1895C3.46781 11.8593 3.36065 11.0998 3.76075 9.97266C4.16086 8.84554 5.035 7.48173 6.27833 6.2461C7.52167 5.01046 8.89094 4.14505 10.0205 3.75196C10.5853 3.55541 11.058 3.48477 11.4297 3.50489ZM13.8789 3.7168C15.3842 4.05397 16.8201 4.79892 18.0108 5.98926C21.3367 9.31518 21.3367 14.6839 18.0108 18.0098C14.6848 21.3357 9.31616 21.3357 5.99025 18.0098C4.79744 16.8173 4.0421 15.3628 3.70607 13.833C4.53198 14.1062 5.52313 13.9979 6.50489 13.6563C7.91554 13.1653 9.43024 12.1804 10.8115 10.8076C12.1928 9.43488 13.1859 7.9271 13.6856 6.51954C14.0339 5.53818 14.1486 4.54547 13.8789 3.7168ZM10.8047 5.00586C10.7598 4.99555 10.713 4.99815 10.668 5.01465C9.90748 5.27915 8.70536 5.8895 7.29786 7.292C6.20286 8.3825 5.36597 9.61624 5.00197 10.6777C4.97097 10.7677 4.99306 10.8671 5.06056 10.9346C5.10806 10.9826 5.17329 11.0088 5.23829 11.0088C5.26479 11.0088 5.29187 11.0036 5.31837 10.9951C6.38887 10.6346 7.63482 9.7987 8.73732 8.7002C9.79182 7.6502 10.6118 6.42254 10.9863 5.33204C11.0178 5.24054 10.9938 5.14025 10.9258 5.07325C10.8918 5.0395 10.8496 5.01618 10.8047 5.00586Z" fill="black"/>
</svg>
