<svg width="24" height="24" viewBox="0 0 24 24" fill="none" xmlns="http://www.w3.org/2000/svg">
<path d="M9.21674 3C9.06714 2.99981 8.9209 3.04437 8.79681 3.12793L4.46478 6.05176C4.36344 6.09213 4.27213 6.15412 4.19721 6.2334L4.15717 6.25977C4.06601 6.32141 3.98954 6.40236 3.93317 6.49687C3.8768 6.59138 3.84192 6.69714 3.83099 6.80664L2.5058 20H1.24994C1.15056 19.9986 1.05188 20.017 0.959657 20.054C0.867431 20.0911 0.78349 20.1461 0.712713 20.2159C0.641936 20.2857 0.585734 20.3688 0.547373 20.4605C0.509012 20.5522 0.489258 20.6506 0.489258 20.75C0.489258 20.8494 0.509012 20.9478 0.547373 21.0395C0.585734 21.1312 0.641936 21.2143 0.712713 21.2841C0.78349 21.3539 0.867431 21.4089 0.959657 21.446C1.05188 21.483 1.15056 21.5014 1.24994 21.5H3.18451H20.8154H22.7499C22.8493 21.5014 22.948 21.483 23.0402 21.446C23.1324 21.4089 23.2164 21.3539 23.2872 21.2841C23.3579 21.2143 23.4141 21.1312 23.4525 21.0395C23.4909 20.9478 23.5106 20.8494 23.5106 20.75C23.5106 20.6506 23.4909 20.5522 23.4525 20.4605C23.4141 20.3688 23.3579 20.2857 23.2872 20.2159C23.2164 20.1461 23.1324 20.0911 23.0402 20.054C22.948 20.017 22.8493 19.9986 22.7499 20H21.4941L20.1689 6.80664C20.158 6.69714 20.1231 6.59138 20.0667 6.49687C20.0103 6.40236 19.9339 6.32141 19.8427 6.25977L19.8036 6.2334C19.7288 6.15494 19.6379 6.09363 19.537 6.05371L15.2031 3.12793C15.079 3.04437 14.9327 2.99981 14.7831 3H9.21674ZM9.44623 4.5H14.5537L16.7763 6H7.22357L9.44623 4.5ZM5.26849 7.5H18.7314L19.9853 20H4.01459L5.26849 7.5Z" fill="black"/>
</svg>
