<svg width="24" height="24" viewBox="0 0 24 24" fill="none" xmlns="http://www.w3.org/2000/svg">
<path d="M14.75 1.5C11.1626 1.5 8.13422 3.94736 7.25781 7.26953C3.94928 8.15264 1.5 11.1682 1.5 14.75C1.5 19.0213 4.97867 22.5 9.25 22.5C12.8322 22.5 15.8477 20.0502 16.7305 16.7412C20.0513 15.8646 22.5 12.8376 22.5 9.25C22.5 4.97867 19.0213 1.5 14.75 1.5ZM14.75 3C18.2107 3 21 5.78933 21 9.25C21 11.9218 19.3311 14.1897 16.9834 15.0869C16.9883 14.9744 17 14.8637 17 14.75C17 10.4787 13.5213 7 9.25 7C9.13729 7 9.02757 7.01181 8.91602 7.0166C9.81398 4.67064 12.0793 3 14.75 3ZM15.25 4C15.0511 4 14.8603 4.07902 14.7197 4.21967C14.579 4.36032 14.5 4.55109 14.5 4.75C14.5 4.94891 14.579 5.13968 14.7197 5.28033C14.8603 5.42098 15.0511 5.5 15.25 5.5C15.4489 5.5 15.6397 5.42098 15.7803 5.28033C15.921 5.13968 16 4.94891 16 4.75C16 4.55109 15.921 4.36032 15.7803 4.21967C15.6397 4.07902 15.4489 4 15.25 4ZM12.25 5C12.0511 5 11.8603 5.07902 11.7197 5.21967C11.579 5.36032 11.5 5.55109 11.5 5.75C11.5 5.94891 11.579 6.13968 11.7197 6.28033C11.8603 6.42098 12.0511 6.5 12.25 6.5C12.4489 6.5 12.6397 6.42098 12.7803 6.28033C12.921 6.13968 13 5.94891 13 5.75C13 5.55109 12.921 5.36032 12.7803 5.21967C12.6397 5.07902 12.4489 5 12.25 5ZM18.75 6.5C18.5511 6.5 18.3603 6.57902 18.2197 6.71967C18.079 6.86032 18 7.05109 18 7.25C18 7.44891 18.079 7.63968 18.2197 7.78033C18.3603 7.92098 18.5511 8 18.75 8C18.9489 8 19.1397 7.92098 19.2803 7.78033C19.421 7.63968 19.5 7.44891 19.5 7.25C19.5 7.05109 19.421 6.86032 19.2803 6.71967C19.1397 6.57902 18.9489 6.5 18.75 6.5ZM15.75 7C15.5511 7 15.3603 7.07902 15.2197 7.21967C15.079 7.36032 15 7.55109 15 7.75C15 7.94891 15.079 8.13968 15.2197 8.28033C15.3603 8.42098 15.5511 8.5 15.75 8.5C15.9489 8.5 16.1397 8.42098 16.2803 8.28033C16.421 8.13968 16.5 7.94891 16.5 7.75C16.5 7.55109 16.421 7.36032 16.2803 7.21967C16.1397 7.07902 15.9489 7 15.75 7ZM9.25 8.5C12.7107 8.5 15.5 11.2893 15.5 14.75C15.5 18.2107 12.7107 21 9.25 21C5.78933 21 3 18.2107 3 14.75C3 11.2893 5.78933 8.5 9.25 8.5ZM8.25 10.5C8.05109 10.5 7.86032 10.579 7.71967 10.7197C7.57902 10.8603 7.5 11.0511 7.5 11.25C7.5 11.4489 7.57902 11.6397 7.71967 11.7803C7.86032 11.921 8.05109 12 8.25 12C8.44891 12 8.63968 11.921 8.78033 11.7803C8.92098 11.6397 9 11.4489 9 11.25C9 11.0511 8.92098 10.8603 8.78033 10.7197C8.63968 10.579 8.44891 10.5 8.25 10.5ZM18.25 10.5C18.0511 10.5 17.8603 10.579 17.7197 10.7197C17.579 10.8603 17.5 11.0511 17.5 11.25C17.5 11.4489 17.579 11.6397 17.7197 11.7803C17.8603 11.921 18.0511 12 18.25 12C18.4489 12 18.6397 11.921 18.7803 11.7803C18.921 11.6397 19 11.4489 19 11.25C19 11.0511 18.921 10.8603 18.7803 10.7197C18.6397 10.579 18.4489 10.5 18.25 10.5ZM12.25 11C12.0511 11 11.8603 11.079 11.7197 11.2197C11.579 11.3603 11.5 11.5511 11.5 11.75C11.5 11.9489 11.579 12.1397 11.7197 12.2803C11.8603 12.421 12.0511 12.5 12.25 12.5C12.4489 12.5 12.6397 12.421 12.7803 12.2803C12.921 12.1397 13 11.9489 13 11.75C13 11.5511 12.921 11.3603 12.7803 11.2197C12.6397 11.079 12.4489 11 12.25 11ZM5.25 12.5C5.05109 12.5 4.86032 12.579 4.71967 12.7197C4.57902 12.8603 4.5 13.0511 4.5 13.25C4.5 13.4489 4.57902 13.6397 4.71967 13.7803C4.86032 13.921 5.05109 14 5.25 14C5.44891 14 5.63968 13.921 5.78033 13.7803C5.92098 13.6397 6 13.4489 6 13.25C6 13.0511 5.92098 12.8603 5.78033 12.7197C5.63968 12.579 5.44891 12.5 5.25 12.5ZM8.75 14C8.55109 14 8.36032 14.079 8.21967 14.2197C8.07902 14.3603 8 14.5511 8 14.75C8 14.9489 8.07902 15.1397 8.21967 15.2803C8.36032 15.421 8.55109 15.5 8.75 15.5C8.94891 15.5 9.13968 15.421 9.28033 15.2803C9.42098 15.1397 9.5 14.9489 9.5 14.75C9.5 14.5511 9.42098 14.3603 9.28033 14.2197C9.13968 14.079 8.94891 14 8.75 14ZM12.75 15C12.5511 15 12.3603 15.079 12.2197 15.2197C12.079 15.3603 12 15.5511 12 15.75C12 15.9489 12.079 16.1397 12.2197 16.2803C12.3603 16.421 12.5511 16.5 12.75 16.5C12.9489 16.5 13.1397 16.421 13.2803 16.2803C13.421 16.1397 13.5 15.9489 13.5 15.75C13.5 15.5511 13.421 15.3603 13.2803 15.2197C13.1397 15.079 12.9489 15 12.75 15ZM6.25 17C6.05109 17 5.86032 17.079 5.71967 17.2197C5.57902 17.3603 5.5 17.5511 5.5 17.75C5.5 17.9489 5.57902 18.1397 5.71967 18.2803C5.86032 18.421 6.05109 18.5 6.25 18.5C6.44891 18.5 6.63968 18.421 6.78033 18.2803C6.92098 18.1397 7 17.9489 7 17.75C7 17.5511 6.92098 17.3603 6.78033 17.2197C6.63968 17.079 6.44891 17 6.25 17ZM10.25 18C10.0511 18 9.86032 18.079 9.71967 18.2197C9.57902 18.3603 9.5 18.5511 9.5 18.75C9.5 18.9489 9.57902 19.1397 9.71967 19.2803C9.86032 19.421 10.0511 19.5 10.25 19.5C10.4489 19.5 10.6397 19.421 10.7803 19.2803C10.921 19.1397 11 18.9489 11 18.75C11 18.5511 10.921 18.3603 10.7803 18.2197C10.6397 18.079 10.4489 18 10.25 18Z" fill="black"/>
</svg>
