<svg width="24" height="24" viewBox="0 0 24 24" fill="none" xmlns="http://www.w3.org/2000/svg">
<path fill-rule="evenodd" clip-rule="evenodd" d="M1.5 12C1.5 6.23759 6.16505 1.54909 11.917 1.50393C12.0373 1.50307 12.1561 1.53118 12.2633 1.5859C12.3705 1.64062 12.463 1.72032 12.5329 1.81829C12.6028 1.91626 12.6481 2.02961 12.665 2.14878C12.6819 2.26794 12.6698 2.38942 12.6299 2.50295C12.5459 2.7411 12.5 2.99065 12.5 3.25002C12.5 3.80764 12.7005 4.30846 13.0342 4.70119C13.1356 4.82073 13.197 4.96904 13.2098 5.12528C13.2226 5.28152 13.1861 5.43785 13.1055 5.57228C12.7219 6.2123 12.5 6.95221 12.5 7.75002C12.5 10.1062 14.3938 12 16.75 12C17.4345 12 18.0758 11.835 18.6514 11.5459C18.8003 11.4713 18.9698 11.4484 19.1332 11.4807C19.2965 11.5131 19.4445 11.5989 19.5537 11.7246C19.968 12.2007 20.5687 12.5 21.25 12.5C21.3456 12.5 21.4481 12.4915 21.5625 12.4756C21.6764 12.4598 21.7924 12.4703 21.9016 12.5065C22.0108 12.5427 22.1102 12.6035 22.1921 12.6842C22.274 12.7649 22.3363 12.8633 22.3741 12.972C22.4119 13.0806 22.4243 13.1964 22.4102 13.3106C21.7636 18.4878 17.346 22.5 12 22.5C6.20971 22.5 1.5 17.7903 1.5 12ZM8.25 7C8.05109 7 7.86032 7.07902 7.71967 7.21967C7.57902 7.36032 7.5 7.55109 7.5 7.75C7.5 7.94891 7.57902 8.13968 7.71967 8.28033C7.86032 8.42098 8.05109 8.5 8.25 8.5C8.44891 8.5 8.63968 8.42098 8.78033 8.28033C8.92098 8.13968 9 7.94891 9 7.75C9 7.55109 8.92098 7.36032 8.78033 7.21967C8.63968 7.07902 8.44891 7 8.25 7ZM9.75 12C9.55109 12 9.36032 12.079 9.21967 12.2197C9.07902 12.3603 9 12.5511 9 12.75C9 12.9489 9.07902 13.1397 9.21967 13.2803C9.36032 13.421 9.55109 13.5 9.75 13.5C9.94891 13.5 10.1397 13.421 10.2803 13.2803C10.421 13.1397 10.5 12.9489 10.5 12.75C10.5 12.5511 10.421 12.3603 10.2803 12.2197C10.1397 12.079 9.94891 12 9.75 12ZM5.21967 13.2197C5.36032 13.079 5.55109 13 5.75 13C5.94891 13 6.13968 13.079 6.28033 13.2197C6.42098 13.3603 6.5 13.5511 6.5 13.75C6.5 13.9489 6.42098 14.1397 6.28033 14.2803C6.13968 14.421 5.94891 14.5 5.75 14.5C5.55109 14.5 5.36032 14.421 5.21967 14.2803C5.07902 14.1397 5 13.9489 5 13.75C5 13.5511 5.07902 13.3603 5.21967 13.2197ZM16.25 15C16.0511 15 15.8603 15.079 15.7197 15.2197C15.579 15.3603 15.5 15.5511 15.5 15.75C15.5 15.9489 15.579 16.1397 15.7197 16.2803C15.8603 16.421 16.0511 16.5 16.25 16.5C16.4489 16.5 16.6397 16.421 16.7803 16.2803C16.921 16.1397 17 15.9489 17 15.75C17 15.5511 16.921 15.3603 16.7803 15.2197C16.6397 15.079 16.4489 15 16.25 15ZM9.71967 17.2197C9.86032 17.079 10.0511 17 10.25 17C10.4489 17 10.6397 17.079 10.7803 17.2197C10.921 17.3603 11 17.5511 11 17.75C11 17.9489 10.921 18.1397 10.7803 18.2803C10.6397 18.421 10.4489 18.5 10.25 18.5C10.0511 18.5 9.86032 18.421 9.71967 18.2803C9.57902 18.1397 9.5 17.9489 9.5 17.75C9.5 17.5511 9.57902 17.3603 9.71967 17.2197ZM14.25 18C14.0511 18 13.8603 18.079 13.7197 18.2197C13.579 18.3603 13.5 18.5511 13.5 18.75C13.5 18.9489 13.579 19.1397 13.7197 19.2803C13.8603 19.421 14.0511 19.5 14.25 19.5C14.4489 19.5 14.6397 19.421 14.7803 19.2803C14.921 19.1397 15 18.9489 15 18.75C15 18.5511 14.921 18.3603 14.7803 18.2197C14.6397 18.079 14.4489 18 14.25 18Z" fill="black"/>
<path fill-rule="evenodd" clip-rule="evenodd" d="M14.6895 2.87697C15.1602 2.34734 15.8958 2.00002 16.75 2.00002C17.6042 2.00002 18.3398 2.34734 18.8105 2.87697C19.2813 3.40661 19.5 4.08335 19.5 4.75002C19.5 5.41669 19.2813 6.09343 18.8105 6.62307C18.3398 7.1527 17.6042 7.50002 16.75 7.50002C15.8958 7.50002 15.1602 7.1527 14.6895 6.62307C14.2187 6.09343 14 5.41669 14 4.75002C14 4.08335 14.2187 3.40661 14.6895 2.87697Z" fill="black"/>
<path d="M18.7197 8.71969C18.8603 8.57904 19.0511 8.50002 19.25 8.50002C19.4489 8.50002 19.6397 8.57904 19.7803 8.71969C19.921 8.86034 20 9.05111 20 9.25002C20 9.44893 19.921 9.6397 19.7803 9.78035C19.6397 9.921 19.4489 10 19.25 10C19.0511 10 18.8603 9.921 18.7197 9.78035C18.579 9.6397 18.5 9.44893 18.5 9.25002C18.5 9.05111 18.579 8.86034 18.7197 8.71969Z" fill="black"/>
</svg>
