<svg width="24" height="24" viewBox="0 0 24 24" fill="none" xmlns="http://www.w3.org/2000/svg">
<path d="M6.60643 1.86332C5.91536 1.84168 5.19429 1.99225 4.65721 2.52933C4.65721 2.52966 4.65721 2.52998 4.65721 2.53031C4.1437 3.04449 3.83217 3.72802 3.78417 4.45414C3.78339 4.4691 3.78307 4.48408 3.78319 4.49906L3.74999 9.98636C2.39609 10.969 2.22665 12.964 3.41405 14.1514L4.30467 15.042C3.90114 16.0339 4.06978 17.2212 4.87694 18.0284L5.71971 18.8721C6.52692 19.6793 7.71423 19.8468 8.70604 19.4434L9.73631 20.4737C10.8686 21.6053 12.7562 21.5237 13.7861 20.2979C13.8039 20.2767 13.8206 20.2545 13.8359 20.2315L13.9912 20C13.9951 20.0001 13.999 20.0001 14.0029 20L19.749 19.9649C19.764 19.9647 19.779 19.964 19.7939 19.9629C20.5196 19.9149 21.2033 19.6053 21.7178 19.0909C22.2558 18.5528 22.4094 17.8311 22.3906 17.1358C22.3718 16.4404 22.1718 15.6899 21.5098 15.2266C20.6778 14.6439 19.0267 13.7376 18.4062 13.3926L18.5068 13.2412C18.5095 13.2377 18.5121 13.2341 18.5146 13.2305C18.9575 12.5414 18.8592 11.6249 18.2803 11.0459L17.0986 9.86527C17.2845 9.26121 17.2527 8.60524 16.7832 8.13578L15.6123 6.96488C15.6123 6.96455 15.6123 6.96423 15.6123 6.9639C15.1426 6.49492 14.486 6.4632 13.8818 6.64945L12.7139 5.48148C12.1252 4.89197 11.1894 4.80229 10.499 5.26664C10.4957 5.26889 10.4925 5.27117 10.4892 5.27347L10.333 5.38187C9.98091 4.85239 9.03078 3.41504 8.50682 2.71781C8.03181 2.0858 7.2975 1.88495 6.60643 1.86332ZM6.55858 3.36332C6.93751 3.37518 7.25011 3.54171 7.3076 3.6182C7.74581 4.20132 8.75076 5.7123 9.1035 6.24027L5.25584 8.92484L5.28319 4.54886C5.30816 4.18765 5.46133 3.84664 5.71776 3.58988C5.80718 3.50046 6.17965 3.35145 6.55858 3.36332ZM11.501 6.46781C11.556 6.4729 11.6086 6.49731 11.6523 6.54105C11.6527 6.54138 11.653 6.5417 11.6533 6.54203L12.5664 7.45511L5.21776 13.834L4.47459 13.0909C3.91542 12.5317 3.99234 11.6396 4.63866 11.1846L11.3467 6.50394L11.3369 6.51175C11.3887 6.47693 11.446 6.46271 11.501 6.46781ZM14.3848 7.94925C14.4442 7.95162 14.5031 7.97685 14.5517 8.02543L15.7226 9.19632C15.8199 9.29354 15.8253 9.43032 15.7363 9.53519L8.61327 17.7412C8.61261 17.7419 8.61196 17.7425 8.61131 17.7432C8.12988 18.3017 7.30259 18.3329 6.78124 17.8116L5.93749 16.9678C5.41603 16.4463 5.44603 15.6192 6.00487 15.1377C6.00552 15.1371 6.00617 15.1364 6.00682 15.1358L14.2129 8.01175C14.2652 7.96736 14.3253 7.94688 14.3848 7.94925ZM16.293 11.1807L17.2187 12.1065C17.3048 12.1926 17.3191 12.316 17.2529 12.419L12.6299 19.3369C12.1498 19.9 11.3213 19.9362 10.7969 19.4121L9.91405 18.5303L16.293 11.1807ZM17.5723 14.6407C18.1463 14.9643 20.0143 16.0103 20.6494 16.4551C20.7133 16.4998 20.8803 16.796 20.8906 17.1768C20.9009 17.5576 20.7456 17.9419 20.6572 18.0303C20.4007 18.2868 20.0599 18.4399 19.6982 18.4649L14.9971 18.4942L17.5723 14.6407Z" fill="black"/>
</svg>
