<svg width="24" height="24" viewBox="0 0 24 24" fill="none" xmlns="http://www.w3.org/2000/svg">
<path d="M7.95996 11.4995H12.282C12.0755 10.6585 11.9675 9.78747 11.9675 8.90247C11.9675 7.10247 12.417 5.35697 13.2455 3.79647C12.421 3.60347 11.574 3.49947 10.71 3.49947C9.73896 3.49947 8.81796 3.62647 7.95996 3.85547V11.4995ZM13.4675 8.90247C13.4675 11.6425 14.6635 14.227 16.7085 16.005L20.946 14.0945C21.866 13.6785 22.46 12.759 22.46 11.7495C22.46 10.7845 21.675 9.99947 20.71 9.99947H19.878C19.6975 8.90647 19.21 7.84497 18.46 6.91147V2.15997C18.46 2.02197 18.348 1.90997 18.21 1.90997C17.262 1.90997 16.453 2.25897 15.8055 2.70447C14.3 4.42047 13.4675 6.61297 13.4675 8.90247ZM3.03596 7.29147C2.34846 8.37297 1.95996 9.63147 1.95996 10.9995C1.95996 11.808 2.12696 12.5995 2.45546 13.3525C2.44046 13.556 2.40046 14.1845 2.40296 14.9995H6.45996V4.39847C5.56196 4.81047 4.76196 5.34447 4.09996 5.99097C2.52746 5.90147 2.46196 3.97147 2.45996 3.74647C2.45846 3.33397 2.12296 2.99947 1.70996 2.99947C1.29596 2.99947 0.959961 3.33547 0.959961 3.74947C0.959961 4.82047 1.42646 6.67647 3.03596 7.29147ZM13.891 19.4995L14.61 20.3995C14.915 20.781 15.3705 20.9995 15.8585 20.9995C16.3755 20.9995 16.847 20.76 17.151 20.342C17.3345 20.0895 17.427 19.7985 17.445 19.4995H13.891ZM6.45996 17.233V16.4995H2.46096C2.56696 17.8955 2.84646 19.425 3.51646 20.3775C3.79096 20.767 4.24496 20.9995 4.73246 20.9995C5.15046 20.9995 5.55196 20.8215 5.83246 20.5105C6.11546 20.1975 6.25446 19.776 6.21196 19.3545C6.11296 18.358 6.25246 17.6855 6.45996 17.233ZM11.784 17.917H16.7445C16.7255 17.907 16.7055 17.9 16.6875 17.8875C14.906 16.6585 13.562 14.948 12.7715 12.9995H7.95996V17.0215C9.16596 17.7285 10.703 17.913 11.784 17.918V17.917Z" fill="black"/>
</svg>
