<svg width="24" height="24" viewBox="0 0 24 24" fill="none" xmlns="http://www.w3.org/2000/svg">
<path d="M20.5 2.99999C20.0139 2.99999 19.5942 3.17766 19.3008 3.43847C19.0074 3.69927 18.8327 4.0229 18.7197 4.32421C18.7085 4.3541 18.7044 4.38144 18.6943 4.41112L18.1875 4.08983C17.9045 3.91067 17.595 3.82976 17.29 3.83007C16.3751 3.83099 15.5 4.56345 15.5 5.56835V5.78514C14.7729 6.193 13.8797 6.49999 13.124 6.49999C13.0732 6.49999 13.0253 6.52314 12.9746 6.5244C12.863 6.48935 12.7447 6.4809 12.6292 6.49972C12.5138 6.51854 12.4043 6.56412 12.3096 6.6328C11.9311 6.68436 11.5461 6.69458 11.1826 6.81639C11.1718 6.82005 11.161 6.82396 11.1504 6.82811L8.12597 7.99999H6.1162C5.25839 7.99999 4.48337 8.33635 3.90527 8.87792C2.36168 9.65663 1.59925 11.1654 1.26464 12.5039C0.865863 14.099 1.00195 15.5449 1.00195 15.5449C1.00784 15.6103 1.02656 15.6739 1.05703 15.7321C1.08751 15.7903 1.12915 15.8419 1.17957 15.884C1.22999 15.9261 1.2882 15.9578 1.35089 15.9774C1.41358 15.997 1.47951 16.004 1.54492 15.9981C1.61033 15.9922 1.67394 15.9735 1.73211 15.943C1.79028 15.9125 1.84188 15.8709 1.88396 15.8204C1.92603 15.77 1.95776 15.7118 1.97734 15.6491C1.99691 15.5864 2.00395 15.5205 1.99804 15.4551C1.99804 15.4551 1.88412 14.151 2.23534 12.7461C2.37281 12.1962 2.57447 11.6475 2.87206 11.1543C2.86661 11.3314 2.87157 11.5107 2.89648 11.6924L2.99999 12.4453V15.708L2.5664 19.6123C2.48517 20.3409 3.07602 21 3.80859 21H5.58886C6.39815 21 7.01231 20.1893 6.79198 19.4101V19.4092C6.64539 18.8882 6.72343 18.331 7.0078 17.8711V17.8701L8.10839 16.0967C8.32313 16.1459 8.39246 16.1657 8.74316 16.2353C9.39068 16.3639 10.138 16.5 10.748 16.5H12V19.75C12 20.4318 12.5682 21 13.25 21H15.0898C15.8995 21 16.5131 20.1886 16.292 19.4092L16.2256 19.1748C16.2256 19.1745 16.2256 19.1741 16.2256 19.1738C16.1071 18.7548 16.1345 18.3087 16.3027 17.9062L16.9932 16.2529C17.0069 16.2206 17.0183 16.1873 17.0273 16.1533C17.3256 15.0132 17.5188 14.2453 17.5625 13.0058C17.5629 12.9922 17.5629 12.9785 17.5625 12.9648C17.5625 12.9648 17.5542 12.2237 17.7109 11.5303C17.7893 11.1835 17.9155 10.8624 18.0381 10.6914C18.1607 10.5204 18.1942 10.5 18.3359 10.5H20.9941C22.0928 10.5 23 9.59282 23 8.49413C23 7.76003 22.5847 7.1214 22.0029 6.76268C21.4867 6.44415 21.1389 5.82057 20.583 5.30565C20.3089 5.05145 19.9848 4.86364 19.6357 4.74218C19.6432 4.71984 19.6469 4.698 19.6553 4.67577C19.7298 4.47708 19.8364 4.3007 19.9648 4.18651C20.0933 4.07232 20.2361 3.99999 20.5 3.99999C20.5662 4.00093 20.632 3.98869 20.6935 3.96398C20.755 3.93927 20.811 3.90259 20.8581 3.85607C20.9053 3.80955 20.9428 3.75411 20.9684 3.69298C20.9939 3.63185 21.0071 3.56625 21.0071 3.49999C21.0071 3.43373 20.9939 3.36812 20.9684 3.307C20.9428 3.24587 20.9053 3.19043 20.8581 3.14391C20.811 3.09739 20.755 3.06071 20.6935 3.036C20.632 3.01129 20.5662 2.99905 20.5 2.99999ZM17.2402 5.3037C17.2857 5.30843 17.3345 5.32557 17.3848 5.35741L18.2012 5.87401C18.2689 5.91714 18.3431 5.94912 18.4209 5.96874L19.0391 6.12304C19.2363 6.17234 19.4169 6.2694 19.5635 6.40526C19.7536 6.58135 20.288 7.46658 21.2158 8.03905C21.406 8.15633 21.5 8.32123 21.5 8.49413C21.5 8.78244 21.2824 8.99999 20.9941 8.99999H18.3926C16.8689 8.54651 16.5073 7.99609 16.4062 7.65917C16.3031 7.31537 16.4209 7.08495 16.4209 7.08495C16.4396 7.04822 16.4553 7.01 16.4678 6.97069C16.5291 6.93262 16.6066 6.91364 16.666 6.87401C16.7687 6.80552 16.853 6.71273 16.9112 6.60387C16.9695 6.49501 17 6.37346 17 6.24999V5.56835C17 5.44978 17.0461 5.36515 17.1172 5.32616C17.1527 5.30667 17.1948 5.29897 17.2402 5.3037ZM14.9531 7.69432C14.9668 7.8361 14.923 7.93828 14.9687 8.09081C15.1692 8.75915 15.7235 9.43907 16.7568 9.96874C16.5489 10.3009 16.4204 10.6518 16.3301 11H13.5V7.93749C13.9898 7.90262 14.4822 7.84598 14.9531 7.69432ZM12 8.18261V11H8.99999V9.26952L11.6641 8.23729C11.7723 8.20114 11.8896 8.21055 12 8.18261ZM6.1162 9.49999H7.49999V14.5H4.49999V12.3935C4.50006 12.3592 4.49778 12.325 4.49316 12.291L4.3828 11.4883C4.23676 10.4234 5.0415 9.49999 6.1162 9.49999ZM8.99999 12.5H12V15H10.748C10.3986 15 9.647 14.8861 9.03515 14.7646C9.0157 14.7608 9.01919 14.7607 8.99999 14.7568C9 14.7545 9 14.7523 8.99999 14.75V12.5ZM13.5 12.5H16.1143C16.1124 12.6152 16.0635 12.9941 16.0635 12.9941V12.9531C16.035 13.7613 15.8694 14.3398 15.71 15H13.5V12.5ZM4.47655 16H6.40234L5.73339 17.0801C5.73307 17.0804 5.73274 17.0807 5.73241 17.081C5.28341 17.8065 5.1753 18.6679 5.32714 19.5H4.08788L4.47655 16ZM13.5 16.5H15.2646L14.9189 17.3271C14.6308 18.0162 14.5881 18.7783 14.7734 19.5H13.5V16.5Z" fill="black"/>
</svg>
