<svg width="24" height="24" viewBox="0 0 24 24" fill="none" xmlns="http://www.w3.org/2000/svg">
<path d="M12 1.5C6.20989 1.5 1.5 6.20989 1.5 12C1.5 17.7901 6.20989 22.5 12 22.5C17.7901 22.5 22.5 17.7901 22.5 12C22.5 6.20989 17.7901 1.5 12 1.5ZM12 3C16.9794 3 21 7.02055 21 12C21 16.9794 16.9794 21 12 21C7.02055 21 3 16.9794 3 12C3 7.02055 7.02055 3 12 3ZM13.25 4C13.0511 4 12.8603 4.07902 12.7197 4.21967C12.579 4.36032 12.5 4.55109 12.5 4.75C12.5 4.94891 12.579 5.13968 12.7197 5.28033C12.8603 5.42098 13.0511 5.5 13.25 5.5C13.4489 5.5 13.6397 5.42098 13.7803 5.28033C13.921 5.13968 14 4.94891 14 4.75C14 4.55109 13.921 4.36032 13.7803 4.21967C13.6397 4.07902 13.4489 4 13.25 4ZM15.75 6C15.5511 6 15.3603 6.07902 15.2197 6.21967C15.079 6.36032 15 6.55109 15 6.75C15 6.94891 15.079 7.13968 15.2197 7.28033C15.3603 7.42098 15.5511 7.5 15.75 7.5C15.9489 7.5 16.1397 7.42098 16.2803 7.28033C16.421 7.13968 16.5 6.94891 16.5 6.75C16.5 6.55109 16.421 6.36032 16.2803 6.21967C16.1397 6.07902 15.9489 6 15.75 6ZM12 7.5C9.5236 7.5 7.5 9.5236 7.5 12C7.5 14.4764 9.5236 16.5 12 16.5C14.4764 16.5 16.5 14.4764 16.5 12C16.5 9.5236 14.4764 7.5 12 7.5ZM5.75 8.5C5.55109 8.5 5.36032 8.57902 5.21967 8.71967C5.07902 8.86032 5 9.05109 5 9.25C5 9.44891 5.07902 9.63968 5.21967 9.78033C5.36032 9.92098 5.55109 10 5.75 10C5.94891 10 6.13968 9.92098 6.28033 9.78033C6.42098 9.63968 6.5 9.44891 6.5 9.25C6.5 9.05109 6.42098 8.86032 6.28033 8.71967C6.13968 8.57902 5.94891 8.5 5.75 8.5ZM12 9C13.6657 9 15 10.3343 15 12C15 13.6657 13.6657 15 12 15C10.3343 15 9 13.6657 9 12C9 10.3343 10.3343 9 12 9ZM4.75 11C4.55109 11 4.36032 11.079 4.21967 11.2197C4.07902 11.3603 4 11.5511 4 11.75C4 11.9489 4.07902 12.1397 4.21967 12.2803C4.36032 12.421 4.55109 12.5 4.75 12.5C4.94891 12.5 5.13968 12.421 5.28033 12.2803C5.42098 12.1397 5.5 11.9489 5.5 11.75C5.5 11.5511 5.42098 11.3603 5.28033 11.2197C5.13968 11.079 4.94891 11 4.75 11ZM19.25 12.5C19.0511 12.5 18.8603 12.579 18.7197 12.7197C18.579 12.8603 18.5 13.0511 18.5 13.25C18.5 13.4489 18.579 13.6397 18.7197 13.7803C18.8603 13.921 19.0511 14 19.25 14C19.4489 14 19.6397 13.921 19.7803 13.7803C19.921 13.6397 20 13.4489 20 13.25C20 13.0511 19.921 12.8603 19.7803 12.7197C19.6397 12.579 19.4489 12.5 19.25 12.5ZM18.25 15C18.0511 15 17.8603 15.079 17.7197 15.2197C17.579 15.3603 17.5 15.5511 17.5 15.75C17.5 15.9489 17.579 16.1397 17.7197 16.2803C17.8603 16.421 18.0511 16.5 18.25 16.5C18.4489 16.5 18.6397 16.421 18.7803 16.2803C18.921 16.1397 19 15.9489 19 15.75C19 15.5511 18.921 15.3603 18.7803 15.2197C18.6397 15.079 18.4489 15 18.25 15ZM8.25 17C8.05109 17 7.86032 17.079 7.71967 17.2197C7.57902 17.3603 7.5 17.5511 7.5 17.75C7.5 17.9489 7.57902 18.1397 7.71967 18.2803C7.86032 18.421 8.05109 18.5 8.25 18.5C8.44891 18.5 8.63968 18.421 8.78033 18.2803C8.92098 18.1397 9 17.9489 9 17.75C9 17.5511 8.92098 17.3603 8.78033 17.2197C8.63968 17.079 8.44891 17 8.25 17ZM10.75 18C10.5511 18 10.3603 18.079 10.2197 18.2197C10.079 18.3603 10 18.5511 10 18.75C10 18.9489 10.079 19.1397 10.2197 19.2803C10.3603 19.421 10.5511 19.5 10.75 19.5C10.9489 19.5 11.1397 19.421 11.2803 19.2803C11.421 19.1397 11.5 18.9489 11.5 18.75C11.5 18.5511 11.421 18.3603 11.2803 18.2197C11.1397 18.079 10.9489 18 10.75 18Z" fill="black"/>
</svg>
