<svg width="24" height="24" viewBox="0 0 24 24" fill="none" xmlns="http://www.w3.org/2000/svg">
<path d="M8.625 1.5C4.8645 1.5 2 8.498 2 12C2 14.054 2.97459 15.9395 4.62109 17.166C4.54509 16.7465 4.5 16.3165 4.5 15.875C4.5 11.9465 7.64 8.75 11.5 8.75C12.4665 8.75 13.6613 8.94948 14.9033 9.31348C14.0328 5.45148 11.7695 1.5 8.625 1.5ZM11.5 9.75C8.1915 9.75 5.5 12.4975 5.5 15.875C5.5 19.2525 8.1915 22 11.5 22C14.4025 22 21.5 19.8535 21.5 15.875C21.5 12.523 14.8795 9.75 11.5 9.75Z" fill="black"/>
</svg>
