<svg width="24" height="24" viewBox="0 0 24 24" fill="none" xmlns="http://www.w3.org/2000/svg">
<path d="M8.625 1.5C7.56058 1.5 6.61255 2.03342 5.82227 2.78223C5.03198 3.53104 4.36452 4.51528 3.80566 5.58789C2.68795 7.73311 2 10.2052 2 12C2 14.3191 3.24431 16.3619 5.10645 17.5088C5.14345 17.5313 5.18233 17.5506 5.22266 17.5664C5.95912 20.4 8.49245 22.5072 11.5098 22.5029C13.2738 22.5004 15.7535 21.9162 17.9072 20.8418C18.9841 20.3046 19.9754 19.6432 20.7285 18.8252C21.4816 18.0071 22.0017 16.9975 22 15.8623C21.9984 14.7979 21.4638 13.8507 20.7139 13.0615C19.9639 12.2724 18.9786 11.6061 17.9053 11.0488C16.9785 10.5677 15.992 10.1731 15.0244 9.87305C15.0235 9.86815 15.0225 9.86327 15.0215 9.8584C14.6845 8.10332 13.9973 6.10099 12.9648 4.4707C11.9324 2.84041 10.4843 1.5 8.625 1.5ZM8.625 3C9.74418 3 10.8047 3.86398 11.6973 5.27344C12.465 6.48577 13.0542 8.04043 13.3984 9.46094C12.7162 9.32892 12.066 9.25211 11.4902 9.25293C8.01501 9.25785 5.1899 12.0602 5.0166 15.542C4.08115 14.6362 3.5 13.3884 3.5 12C3.5 10.6193 4.12709 8.21618 5.13574 6.28027C5.64007 5.31232 6.23905 4.45424 6.85449 3.87109C7.46994 3.28795 8.06717 3 8.625 3ZM11.4922 10.7529C12.8732 10.751 15.2766 11.3751 17.2139 12.3809C18.1825 12.8837 19.042 13.4802 19.626 14.0947C20.21 14.7093 20.4991 15.3064 20.5 15.8643C20.5011 16.5475 20.2017 17.1831 19.625 17.8096C19.0483 18.4361 18.1996 19.019 17.2373 19.499C15.3128 20.459 12.9193 21.0009 11.5078 21.0029C8.74645 21.0068 6.50395 18.7334 6.5 15.8857C6.49605 13.0379 8.73036 10.7568 11.4922 10.7529Z" fill="black"/>
</svg>
