<svg width="24" height="24" viewBox="0 0 24 24" fill="none" xmlns="http://www.w3.org/2000/svg">
<path d="M17.8144 1.95898C17.6414 1.95202 17.4714 2.0051 17.3331 2.10922C17.1948 2.21335 17.0967 2.36211 17.0556 2.53027L15.6757 7.83886C14.6463 8.28122 13.7089 8.83238 12.8593 9.458C11.5915 8.28622 9.981 7.60549 8.15522 7.17578L7.15229 3.9541C7.10578 3.79696 7.00909 3.65938 6.87701 3.56238C6.74492 3.46539 6.5847 3.41432 6.42084 3.41699C6.30341 3.41897 6.18809 3.44849 6.08415 3.50319C5.98022 3.55789 5.89058 3.63623 5.82246 3.7319C5.75434 3.82758 5.70964 3.93791 5.69195 4.05402C5.67427 4.17013 5.6841 4.28877 5.72065 4.40039L6.81733 7.92187V9.47851C6.69698 9.42523 6.57327 9.36883 6.45698 9.31738C6.05772 9.14076 5.69278 8.97921 5.43647 8.85937C5.33667 8.81271 5.27321 8.78034 5.21577 8.75097L2.2226 3.91308C2.17199 3.82688 2.10466 3.75166 2.02457 3.69184C1.94447 3.63203 1.85323 3.58883 1.7562 3.56478C1.65917 3.54073 1.55831 3.53632 1.45955 3.55181C1.3608 3.5673 1.26613 3.60237 1.18112 3.65496C1.09611 3.70756 1.02247 3.77661 0.964531 3.85807C0.906589 3.93953 0.865516 4.03175 0.843724 4.12931C0.821932 4.22687 0.81986 4.32781 0.837632 4.42618C0.855404 4.52455 0.89266 4.61838 0.947211 4.70215L3.97162 9.58984C4.37186 10.937 4.66066 12.2347 4.7519 13.5986C4.84361 14.9699 4.7558 16.3738 4.7558 17.8389C4.7558 19.2103 5.5375 20.4176 6.67963 21.2363C7.82177 22.055 9.34179 22.5312 11.0058 22.5312C11.4211 22.5312 11.8277 22.5012 12.2216 22.4434C12.2513 22.4389 12.2806 22.4327 12.3095 22.4248C12.6864 22.4932 13.0749 22.5312 13.4716 22.5312C16.4045 22.5312 18.9394 20.574 18.9394 17.9658C18.9394 17.4703 18.8657 17.046 18.8486 16.6943C18.7537 14.731 18.9221 12.706 19.4453 10.8359L23.0615 4.6875C23.1298 4.57465 23.1672 4.44577 23.1699 4.31385C23.1725 4.18193 23.1403 4.05165 23.0766 3.93615C23.0128 3.82065 22.9196 3.72403 22.8066 3.65602C22.6935 3.58802 22.5645 3.55104 22.4326 3.54883C22.2981 3.54664 22.1655 3.58066 22.0486 3.64732C21.9318 3.71398 21.835 3.81083 21.7685 3.92773L18.205 9.9873C18.165 10.0089 17.5609 10.3346 17.3632 10.4414L17.0263 8.60254C17.0291 8.59282 17.0317 8.58306 17.0341 8.57324L18.5078 2.9082C18.5379 2.79924 18.5429 2.68489 18.5226 2.57369C18.5023 2.46249 18.4571 2.35732 18.3905 2.26604C18.3238 2.17476 18.2373 2.09973 18.1376 2.04656C18.0378 1.99339 17.9273 1.96345 17.8144 1.95898ZM8.31733 8.833C9.64018 9.19867 10.7841 9.67835 11.6787 10.4228C11.3047 10.7607 10.9514 11.1122 10.6191 11.4736C9.86027 11.0291 9.26846 10.658 8.78315 10.3984C8.65477 10.3298 8.47114 10.248 8.31733 10.1728V8.833ZM15.6748 9.5459L15.9755 11.1914C15.3841 11.5109 15.2958 11.5587 14.6162 11.9258C14.0055 12.2556 13.4839 12.5378 12.9374 12.833C12.7006 12.6929 12.2802 12.4531 11.9658 12.2637C13.0006 11.1853 14.2444 10.2597 15.6748 9.5459ZM5.79194 10.6621C5.81406 10.6719 5.8282 10.6786 5.85053 10.6885C6.64964 11.042 7.58452 11.4578 8.07612 11.7207C8.85407 12.1369 10.4233 13.0689 11.4062 13.6592C11.3359 13.6971 11.2262 13.7562 11.1689 13.7871C11.0657 13.8428 10.9839 13.8871 10.9287 13.917C10.901 13.9319 10.8805 13.9434 10.8662 13.9512C10.8518 13.9589 10.8447 13.9629 10.8447 13.9629L10.8144 13.9805C10.011 14.4645 9.3242 14.985 8.81733 15.6357C8.31046 16.2865 8.00483 17.0843 8.00483 17.9658C8.00483 19.0442 8.44274 20.008 9.15815 20.7715C8.54284 20.5931 7.99557 20.3334 7.55366 20.0166C6.70516 19.4084 6.25581 18.6449 6.25581 17.8389C6.25581 16.4369 6.34829 14.9987 6.24799 13.499C6.18258 12.5212 6.00724 11.5865 5.79194 10.6621ZM17.7226 11.9531C17.4269 13.551 17.2737 15.1754 17.3505 16.7666C17.3734 17.2379 17.4394 17.6394 17.4394 17.9658C17.4394 19.5716 15.7488 21.0312 13.4716 21.0312C11.1945 21.0312 9.50483 19.5716 9.50483 17.9658C9.50483 17.4063 9.66332 16.9898 9.99994 16.5576C10.3358 16.1265 10.8719 15.6971 11.5839 15.2676C11.598 15.26 11.6171 15.2501 11.6425 15.2363C11.6977 15.2065 11.7787 15.1631 11.8818 15.1074C12.088 14.996 12.3826 14.8365 12.7363 14.6455C13.4435 14.2635 14.386 13.7544 15.329 13.2451C16.5257 12.5989 17.0076 12.3393 17.7226 11.9531Z" fill="black"/>
</svg>
