<svg width="24" height="24" viewBox="0 0 24 24" fill="none" xmlns="http://www.w3.org/2000/svg">
<path d="M6.21387 2.5C5.28037 2.5 4.52148 3.285 4.52148 4.25V6H14.9795V4.25H14.9785C14.9785 3.285 14.2196 2.5 13.2861 2.5H6.21387ZM3.89648 6.97852L3.29102 7.90137C3.27502 7.92587 3.26105 7.95056 3.24805 7.97656C3.08555 8.30156 3 8.66532 3 9.02832V18.9502C3 19.8047 3.6953 20.5 4.5498 20.5H12.3066C11.6301 19.686 11.249 18.761 11.249 18C11.2495 17.1425 11.7094 16.4247 12.3809 16.1377L13.3262 14.7676C14.0462 13.7246 15.2325 13.1016 16.5 13.1016V9.02832C16.5 8.66532 16.4145 8.30106 16.252 7.97656C16.239 7.95056 16.225 7.92537 16.209 7.90137L15.6172 7H4C3.963 7 3.93098 6.98602 3.89648 6.97852ZM9.73633 8.81348C9.73633 8.81348 10.6122 9.63171 10.6377 10.3662C10.6332 11.3052 9.92777 11.6604 9.78027 11.6904C9.60427 11.6914 8.93075 11.3128 8.90625 10.4033C8.90975 9.63982 9.73633 8.81348 9.73633 8.81348ZM8.18359 11.2979C8.32709 11.3227 8.91658 11.6328 9.2832 12.4365C9.5907 13.1175 9.45746 13.7592 9.33496 13.8242C9.21296 13.8877 8.43154 13.8549 7.97754 13.0889C7.60754 12.4699 7.80637 11.7077 8.15137 11.3047C8.15168 11.2972 8.16309 11.2943 8.18359 11.2979ZM11.2891 11.2979C11.3096 11.2943 11.321 11.2972 11.3213 11.3047C11.6663 11.7077 11.9213 12.4694 11.5518 13.0889C11.0978 13.8549 10.3168 13.8877 10.1943 13.8232C10.0718 13.7587 9.88195 13.1175 10.1895 12.4365C10.5556 11.6333 11.1456 11.3227 11.2891 11.2979ZM11.666 14.0088C11.7355 14.012 11.7744 14.0225 11.7744 14.0225C11.7744 14.0225 12.1643 14.8645 11.4258 15.6035C10.6873 16.3425 10.2372 16.2148 10.0527 16.0303C9.86823 15.8458 9.86903 15.152 10.3945 14.626C10.9687 14.0519 11.4576 13.9993 11.666 14.0088ZM7.81445 14.0098C8.03877 14.0003 8.55966 14.0532 9.13379 14.627C9.65929 15.1525 9.66009 15.8468 9.47559 16.0312C9.29109 16.2157 8.84054 16.342 8.10254 15.6035C7.36404 14.8645 7.69824 14.0225 7.69824 14.0225C7.69824 14.0225 7.73968 14.0129 7.81445 14.0098ZM16.499 14.1016C15.56 14.1016 14.6819 14.5634 14.1484 15.3359L12.9961 17.0049C12.5686 17.0309 12.25 17.448 12.25 18C12.25 19.234 13.8635 21.5 16.5 21.5C19.1365 21.5 20.75 19.234 20.75 18C20.75 17.448 20.4314 17.0309 20.0029 17.0049L18.8506 15.3359C18.3176 14.5634 17.438 14.1016 16.499 14.1016ZM16.5 15.6016C16.9525 15.6016 17.3592 15.816 17.6162 16.1885L18.1768 17H14.8232L15.3838 16.1885C15.6403 15.816 16.0475 15.6016 16.5 15.6016Z" fill="black"/>
</svg>
