<svg width="24" height="24" viewBox="0 0 24 24" fill="none" xmlns="http://www.w3.org/2000/svg">
<path d="M11.25 6C10.7059 6 10.2412 6.34805 10.07 6.83591C9.99318 7.05484 9.81935 7.22589 9.5992 7.29919C9.37906 7.37247 9.13739 7.33975 8.94466 7.21054C8.74631 7.07758 8.50835 7 8.25 7C7.55965 7 7 7.55963 7 8.25C7 8.94037 7.55965 9.5 8.25 9.5H14.25C14.9404 9.5 15.5 8.94037 15.5 8.25C15.5 7.55963 14.9404 7 14.25 7C13.9917 7 13.7537 7.07758 13.5553 7.21054C13.3626 7.33975 13.1209 7.3725 12.9008 7.29919C12.6806 7.22592 12.5068 7.05484 12.43 6.83591C12.2588 6.34805 11.7941 6 11.25 6Z" fill="black"/>
<path d="M9 12.5V11H13.5V12.5H9Z" fill="black"/>
<path fill-rule="evenodd" clip-rule="evenodd" d="M18 3H5.53572C5.12463 3 4.73274 3.16086 4.4456 3.44351C4.15887 3.72574 4 4.10602 4 4.5V16.4122C4.46245 16.1442 4.99207 16 5.53572 16H18C18.2761 16 18.5 15.7762 18.5 15.5V13.25H19.25C19.5261 13.25 19.75 13.0262 19.75 12.75V11.75C19.75 11.4738 19.5261 11.25 19.25 11.25H18.5V7.21054H19.25C19.5261 7.21054 19.75 6.98669 19.75 6.71054V5.75C19.75 5.47385 19.5261 5.25 19.25 5.25H18.5V3.5C18.5 3.22385 18.2761 3 18 3ZM9.03882 5.61502C9.53944 4.93893 10.3429 4.5 11.25 4.5C12.1571 4.5 12.9606 4.93893 13.4612 5.61502C13.7113 5.54019 13.9762 5.5 14.25 5.5C15.7688 5.5 17 6.73123 17 8.25C17 9.50879 16.1543 10.57 15 10.8965V13.25C15 13.6642 14.6642 14 14.25 14H8.25C7.83578 14 7.5 13.6642 7.5 13.25V10.8965C6.34575 10.57 5.5 9.50879 5.5 8.25C5.5 6.73123 6.73122 5.5 8.25 5.5C8.52376 5.5 8.78867 5.54019 9.03882 5.61502Z" fill="black"/>
<path d="M4.4456 20.0565C4.73274 20.3391 5.12463 20.5 5.53572 20.5H18C18.2761 20.5 18.5 20.2762 18.5 20V18C18.5 17.7238 18.2761 17.5 18 17.5H5.53572C5.12463 17.5 4.73274 17.6609 4.4456 17.9435C4.15887 18.2257 4 18.606 4 19C4 19.394 4.15887 19.7743 4.4456 20.0565Z" fill="black"/>
</svg>
