<svg width="24" height="24" viewBox="0 0 24 24" fill="none" xmlns="http://www.w3.org/2000/svg">
<path d="M20.475 12.0585C20.2249 11.7643 19.903 11.5398 19.5405 11.4068L20.124 9.72752C20.242 9.37056 20.2692 8.98983 20.2032 8.61971C20.1372 8.2496 19.98 7.90177 19.7458 7.60766C19.5116 7.31355 19.2078 7.08242 18.8619 6.93517C18.516 6.78792 18.1388 6.72918 17.7645 6.76427L17.9677 5.62502C18.0713 5.03693 17.9369 4.4318 17.5943 3.94276C17.2517 3.45371 16.7288 3.1208 16.1407 3.01726C15.5526 2.91373 14.9475 3.04805 14.4585 3.39068C13.9694 3.73331 13.6365 4.25618 13.533 4.84427L13.4872 5.07452C13.0773 4.71024 12.548 4.50903 11.9996 4.50903C11.4512 4.50903 10.9219 4.71024 10.512 5.07452L10.47 4.86527C10.3687 4.27688 10.0379 3.75282 9.55026 3.40836C9.06262 3.0639 8.45811 2.92727 7.86973 3.02851C7.28135 3.12976 6.75728 3.4606 6.41283 3.94824C6.06837 4.43588 5.93174 5.04038 6.03298 5.62877L6.23323 6.76427C5.85851 6.72915 5.48095 6.78805 5.13474 6.93564C4.78853 7.08323 4.4846 7.31485 4.25047 7.60952C4.01634 7.90419 3.85941 8.25261 3.79389 8.62322C3.72837 8.99383 3.75633 9.37493 3.87523 9.73202L4.45723 11.4068C3.9651 11.5896 3.55303 11.9399 3.2933 12.3961C3.03356 12.8524 2.94273 13.3855 3.03673 13.902L3.76723 17.9198C3.9241 18.784 4.37933 19.5657 5.05354 20.1286C5.72775 20.6915 6.57817 20.9999 7.45648 21H16.5435C17.4216 21 18.2718 20.6918 18.946 20.1292C19.6202 19.5665 20.0756 18.7852 20.2327 17.9213L20.9632 13.9043C21.0228 13.5796 21.01 13.2459 20.9256 12.9268C20.8412 12.6077 20.6873 12.3112 20.475 12.0585ZM18.237 8.29127C18.425 8.355 18.58 8.49064 18.6681 8.66848C18.7563 8.84631 18.7703 9.05183 18.7072 9.24002L18.0097 11.25H16.9725L17.463 8.47502C17.5618 8.37489 17.6867 8.30456 17.8236 8.27207C17.9605 8.23957 18.1037 8.24623 18.237 8.29127ZM15.8752 4.50751C16.0709 4.54075 16.2454 4.65019 16.3606 4.81185C16.4757 4.97352 16.5221 5.17423 16.4895 5.37002L15.45 11.25H14.25V8.93102L15.0082 5.12027C15.0248 5.02306 15.0604 4.93009 15.113 4.84666C15.1656 4.76324 15.2341 4.691 15.3147 4.63409C15.3952 4.57717 15.4861 4.5367 15.5823 4.51498C15.6785 4.49326 15.7781 4.49072 15.8752 4.50751ZM11.25 6.75002C11.25 6.5511 11.329 6.36034 11.4697 6.21969C11.6103 6.07903 11.8011 6.00002 12 6.00002C12.1989 6.00002 12.3897 6.07903 12.5303 6.21969C12.671 6.36034 12.75 6.5511 12.75 6.75002V11.25H11.25V6.75002ZM8.12473 4.50751C8.22343 4.49128 8.32437 4.49477 8.42171 4.51779C8.51905 4.54081 8.61086 4.5829 8.69184 4.64163C8.77281 4.70035 8.84134 4.77455 8.89346 4.85992C8.94558 4.9453 8.98025 5.04016 8.99548 5.13901L9.74998 8.93102V11.25H8.54998L7.51123 5.37376C7.49455 5.27659 7.4972 5.17709 7.51902 5.08094C7.54083 4.9848 7.58139 4.8939 7.63838 4.81344C7.69536 4.73298 7.76764 4.66455 7.8511 4.61206C7.93455 4.55956 8.02753 4.52404 8.12473 4.50751ZM5.76298 8.29127C5.89624 8.24623 6.03949 8.23957 6.17635 8.27207C6.31321 8.30456 6.43818 8.37489 6.53698 8.47502L7.02748 11.25H5.99023L5.29423 9.24452C5.26226 9.15115 5.24903 9.0524 5.2553 8.95392C5.26157 8.85543 5.28721 8.75916 5.33076 8.6706C5.3743 8.58205 5.4349 8.50295 5.50907 8.43786C5.58324 8.37277 5.66952 8.32295 5.76298 8.29127ZM19.488 13.6343L18.7575 17.6505C18.6636 18.1694 18.3905 18.6388 17.9859 18.9768C17.5813 19.3148 17.0707 19.5 16.5435 19.5H7.45648C6.92978 19.5 6.41979 19.3151 6.01536 18.9777C5.61093 18.6403 5.33769 18.1717 5.24323 17.6535L4.51273 13.6365C4.49271 13.5283 4.49673 13.417 4.52453 13.3106C4.55232 13.2041 4.6032 13.1051 4.67356 13.0205C4.74392 12.9359 4.83203 12.8678 4.93165 12.821C5.03127 12.7743 5.13995 12.75 5.24998 12.75H18.75C18.8598 12.7501 18.9682 12.7743 19.0677 12.8209C19.1671 12.8675 19.2551 12.9354 19.3254 13.0197C19.3957 13.1041 19.4466 13.2028 19.4746 13.309C19.5026 13.4152 19.5076 13.5262 19.488 13.6343Z" fill="black"/>
</svg>
