<svg width="24" height="24" viewBox="0 0 24 24" fill="none" xmlns="http://www.w3.org/2000/svg">
<path d="M7.25 2C5.74011 2 4.5 3.24011 4.5 4.75V19.25C4.5 20.7599 5.74011 22 7.25 22H16.75C18.2599 22 19.5 20.7599 19.5 19.25V4.75C19.5 3.24011 18.2599 2 16.75 2H7.25ZM7.25 3.5H16.75C17.4491 3.5 18 4.05089 18 4.75V9.5H6V4.75C6 4.05089 6.55089 3.5 7.25 3.5ZM8.23828 4.98926C8.03954 4.99236 7.85016 5.07423 7.71173 5.21686C7.5733 5.3595 7.49715 5.55125 7.5 5.75V7.25C7.49859 7.34938 7.51696 7.44806 7.55402 7.54028C7.59108 7.63251 7.6461 7.71645 7.71588 7.78723C7.78566 7.858 7.86882 7.91421 7.96051 7.95257C8.0522 7.99093 8.15061 8.01068 8.25 8.01068C8.34939 8.01068 8.4478 7.99093 8.53949 7.95257C8.63118 7.91421 8.71434 7.858 8.78412 7.78723C8.8539 7.71645 8.90892 7.63251 8.94598 7.54028C8.98304 7.44806 9.00141 7.34938 9 7.25V5.75C9.00144 5.64962 8.98271 5.54997 8.94493 5.45695C8.90715 5.36394 8.85108 5.27946 8.78004 5.20852C8.70901 5.13757 8.62446 5.08161 8.5314 5.04395C8.43834 5.00629 8.33866 4.98769 8.23828 4.98926ZM6 11H18V19.25C18 19.9491 17.4491 20.5 16.75 20.5H7.25C6.55089 20.5 6 19.9491 6 19.25V11ZM8.23828 12.4893C8.03954 12.4924 7.85016 12.5742 7.71173 12.7169C7.5733 12.8595 7.49715 13.0513 7.5 13.25V15.75C7.49859 15.8494 7.51696 15.9481 7.55402 16.0403C7.59108 16.1325 7.6461 16.2164 7.71588 16.2872C7.78566 16.358 7.86882 16.4142 7.96051 16.4526C8.0522 16.4909 8.15061 16.5107 8.25 16.5107C8.34939 16.5107 8.4478 16.4909 8.53949 16.4526C8.63118 16.4142 8.71434 16.358 8.78412 16.2872C8.8539 16.2164 8.90892 16.1325 8.94598 16.0403C8.98304 15.9481 9.00141 15.8494 9 15.75V13.25C9.00144 13.1496 8.98271 13.05 8.94493 12.957C8.90715 12.8639 8.85108 12.7795 8.78004 12.7085C8.70901 12.6376 8.62446 12.5816 8.5314 12.544C8.43834 12.5063 8.33866 12.4877 8.23828 12.4893Z" fill="black"/>
</svg>
