<svg width="24" height="24" viewBox="0 0 24 24" fill="none" xmlns="http://www.w3.org/2000/svg">
<path fill-rule="evenodd" clip-rule="evenodd" d="M19.9585 20H19.998C20.412 20 20.748 20.336 20.748 20.75C20.748 21.164 20.412 21.5 19.998 21.5H4.00195C3.58795 21.5 3.25195 21.164 3.25195 20.75C3.25195 20.336 3.58795 20 4.00195 20H4.04145V4H4.00195C3.58795 4 3.25195 3.664 3.25195 3.25C3.25195 2.836 3.58795 2.5 4.00195 2.5H19.998C20.412 2.5 20.748 2.836 20.748 3.25C20.748 3.664 20.412 4 19.998 4H19.9585V20ZM14.5 5.5H9.49995C9.08595 5.5 8.74995 5.836 8.74995 6.25C8.74995 6.664 9.08595 7 9.49995 7H14.5C14.914 7 15.25 6.664 15.25 6.25C15.25 5.836 14.914 5.5 14.5 5.5ZM11.7136 9.12103C11.7874 9.04511 11.8883 9.00159 11.9941 9.00004C12.0476 8.99926 12.1006 9.0092 12.1501 9.02926C12.1996 9.04933 12.2445 9.07912 12.2823 9.11687C12.3201 9.15462 12.3499 9.19956 12.3701 9.24904C12.3902 9.29852 12.4002 9.35154 12.3994 9.40494V10.4375L12.9155 9.92141C12.9526 9.88429 12.9967 9.85486 13.0452 9.83477C13.0936 9.81468 13.1456 9.80435 13.1981 9.80435C13.2506 9.80435 13.3026 9.81468 13.351 9.83477C13.3995 9.85486 13.4436 9.88429 13.4807 9.92141C13.5178 9.95852 13.5473 10.0026 13.5673 10.0511C13.5874 10.0996 13.5978 10.1515 13.5978 10.204C13.5978 10.2565 13.5874 10.3085 13.5673 10.357C13.5473 10.4055 13.5178 10.4495 13.4807 10.4866L12.3994 11.5675V12.6005H13.4323L14.5136 11.5188C14.5507 11.4817 14.5948 11.4522 14.6433 11.4321C14.6918 11.4121 14.7437 11.4017 14.7962 11.4017C14.8487 11.4017 14.9007 11.4121 14.9492 11.4321C14.9976 11.4522 15.0417 11.4817 15.0788 11.5188C15.1159 11.5559 15.1454 11.6 15.1655 11.6484C15.1855 11.6969 15.1959 11.7489 15.1959 11.8014C15.1959 11.8539 15.1855 11.9058 15.1655 11.9543C15.1454 12.0028 15.1159 12.0469 15.0788 12.084L14.5624 12.6005H15.5949C15.6478 12.5997 15.7004 12.6095 15.7495 12.6292C15.7986 12.649 15.8433 12.6783 15.881 12.7154C15.9187 12.7526 15.9486 12.7969 15.9691 12.8457C15.9895 12.8946 16 12.947 16 12.9999C16 13.0528 15.9895 13.1053 15.9691 13.1541C15.9486 13.2029 15.9187 13.2472 15.881 13.2844C15.8433 13.3215 15.7986 13.3508 15.7495 13.3706C15.7004 13.3903 15.6478 13.4001 15.5949 13.3993H14.5624L15.0784 13.9154C15.1155 13.9525 15.145 13.9966 15.1651 14.0451C15.1852 14.0936 15.1955 14.1455 15.1955 14.198C15.1955 14.2505 15.1852 14.3025 15.1651 14.351C15.145 14.3995 15.1155 14.4435 15.0784 14.4806C15.0413 14.5178 14.9973 14.5472 14.9488 14.5673C14.9003 14.5874 14.8483 14.5977 14.7958 14.5977C14.7433 14.5977 14.6914 14.5874 14.6429 14.5673C14.5944 14.5472 14.5503 14.5178 14.5132 14.4806L13.4323 13.3993H12.3994V14.4323L13.4811 15.5136C13.5182 15.5507 13.5476 15.5947 13.5677 15.6432C13.5878 15.6917 13.5982 15.7437 13.5982 15.7962C13.5982 15.8487 13.5878 15.9006 13.5677 15.9491C13.5476 15.9976 13.5182 16.0417 13.4811 16.0788C13.444 16.1159 13.3999 16.1454 13.3514 16.1654C13.3029 16.1855 13.251 16.1959 13.1985 16.1959C13.146 16.1959 13.094 16.1855 13.0455 16.1654C12.9971 16.1454 12.953 16.1159 12.9159 16.0788L12.3994 15.5623V16.5949C12.4002 16.6478 12.3904 16.7004 12.3707 16.7495C12.3509 16.7986 12.3216 16.8433 12.2845 16.881C12.2473 16.9187 12.203 16.9486 12.1542 16.969C12.1053 16.9895 12.0529 17 12 17C11.9471 17 11.8947 16.9895 11.8458 16.969C11.797 16.9486 11.7527 16.9187 11.7155 16.881C11.6784 16.8433 11.6491 16.7986 11.6293 16.7495C11.6096 16.7004 11.5998 16.6478 11.6006 16.5949V15.5623L11.0845 16.0784C11.0096 16.1534 10.9079 16.1955 10.8019 16.1955C10.6959 16.1955 10.5942 16.1534 10.5193 16.0784C10.4443 16.0035 10.4022 15.9018 10.4022 15.7958C10.4022 15.6898 10.4443 15.5881 10.5193 15.5132L11.6006 14.4323V13.3993H10.5677L9.48639 14.481C9.41144 14.556 9.30978 14.5981 9.20379 14.5981C9.09779 14.5981 8.99613 14.556 8.92118 14.481C8.84623 14.4061 8.80412 14.3044 8.80412 14.1984C8.80412 14.0924 8.84623 13.9908 8.92118 13.9158L9.43763 13.3993H8.40512C8.35219 13.4001 8.29964 13.3903 8.25052 13.3706C8.20141 13.3508 8.1567 13.3215 8.11901 13.2844C8.08131 13.2472 8.05138 13.2029 8.03095 13.1541C8.01052 13.1053 8 13.0528 8 12.9999C8 12.947 8.01052 12.8946 8.03095 12.8457C8.05138 12.7969 8.08131 12.7526 8.11901 12.7154C8.1567 12.6783 8.20141 12.649 8.25052 12.6292C8.29964 12.6095 8.35219 12.5997 8.40512 12.6005H9.43763L8.92157 12.0844C8.88446 12.0473 8.85502 12.0032 8.83494 11.9547C8.81485 11.9062 8.80451 11.8543 8.80451 11.8018C8.80451 11.7493 8.81485 11.6973 8.83494 11.6488C8.85502 11.6003 8.88446 11.5563 8.92157 11.5192C8.95868 11.4821 9.00274 11.4526 9.05123 11.4325C9.09972 11.4124 9.15169 11.4021 9.20418 11.4021C9.25666 11.4021 9.30863 11.4124 9.35712 11.4325C9.40561 11.4526 9.44967 11.4821 9.48678 11.5192L10.5677 12.6005H11.6006V11.5675L10.5189 10.4862C10.444 10.4113 10.4018 10.3096 10.4018 10.2036C10.4018 10.0976 10.444 9.99597 10.5189 9.92102C10.5939 9.84607 10.6955 9.80396 10.8015 9.80396C10.9075 9.80396 11.0092 9.84607 11.0841 9.92102L11.6006 10.4375V9.40494C11.5991 9.29907 11.6398 9.19696 11.7136 9.12103Z" fill="black"/>
</svg>
