<svg width="24" height="24" viewBox="0 0 24 24" fill="none" xmlns="http://www.w3.org/2000/svg">
<path fill-rule="evenodd" clip-rule="evenodd" d="M3.71161 2.55409C3.80384 2.51703 3.90251 2.49867 4.00189 2.50008H4.79096H19.2079H19.998C20.0974 2.49867 20.196 2.51703 20.2883 2.55409C20.3805 2.59115 20.4644 2.64617 20.5352 2.71595C20.606 2.78574 20.6622 2.86889 20.7006 2.96059C20.7389 3.05228 20.7587 3.15068 20.7587 3.25008C20.7587 3.34947 20.7389 3.44787 20.7006 3.53956C20.6622 3.63126 20.606 3.71441 20.5352 3.7842C20.4644 3.85398 20.3805 3.909 20.2883 3.94606C20.196 3.98312 20.0974 4.00148 19.998 4.00008H19.9579V20.0001H19.998C20.0974 19.9987 20.196 20.017 20.2883 20.0541C20.3805 20.0912 20.4644 20.1462 20.5352 20.216C20.606 20.2857 20.6622 20.3689 20.7006 20.4606C20.7389 20.5523 20.7587 20.6507 20.7587 20.7501C20.7587 20.8495 20.7389 20.9479 20.7006 21.0396C20.6622 21.1313 20.606 21.2144 20.5352 21.2842C20.4644 21.354 20.3805 21.409 20.2883 21.4461C20.196 21.4831 20.0974 21.5015 19.998 21.5001H19.2079H4.79096H4.00189C3.90251 21.5015 3.80384 21.4831 3.71161 21.4461C3.61938 21.409 3.53544 21.354 3.46467 21.2842C3.39389 21.2144 3.33769 21.1313 3.29933 21.0396C3.26097 20.9479 3.24121 20.8495 3.24121 20.7501C3.24121 20.6507 3.26097 20.5523 3.29933 20.4606C3.33769 20.3689 3.39389 20.2857 3.46467 20.216C3.53544 20.1462 3.61938 20.0912 3.71161 20.0541C3.80384 20.017 3.90251 19.9987 4.00189 20.0001H4.04096V4.00008H4.00189C3.90251 4.00148 3.80384 3.98312 3.71161 3.94606C3.61938 3.909 3.53544 3.85398 3.46467 3.7842C3.39389 3.71441 3.33769 3.63126 3.29933 3.53956C3.26097 3.44787 3.24121 3.34947 3.24121 3.25008C3.24121 3.15068 3.26097 3.05228 3.29933 2.96059C3.33769 2.86889 3.39389 2.78574 3.46467 2.71595C3.53544 2.64617 3.61938 2.59115 3.71161 2.55409ZM18.4579 4.00008H5.54096V20.0001H18.4579V4.00008ZM9.20966 5.55409C9.30188 5.51703 9.40056 5.49867 9.49994 5.50008H14.4999C14.5993 5.49867 14.698 5.51703 14.7902 5.55409C14.8824 5.59115 14.9664 5.64617 15.0372 5.71596C15.1079 5.78574 15.1641 5.86889 15.2025 5.96059C15.2409 6.05228 15.2606 6.15068 15.2606 6.25008C15.2606 6.34947 15.2409 6.44787 15.2025 6.53956C15.1641 6.63126 15.1079 6.71441 15.0372 6.7842C14.9664 6.85398 14.8824 6.909 14.7902 6.94606C14.698 6.98312 14.5993 7.00148 14.4999 7.00008H9.49994C9.40056 7.00148 9.30188 6.98312 9.20966 6.94606C9.11743 6.909 9.03349 6.85398 8.96271 6.7842C8.89194 6.71441 8.83573 6.63126 8.79737 6.53956C8.75901 6.44787 8.73926 6.34947 8.73926 6.25008C8.73926 6.15068 8.75901 6.05228 8.79737 5.96059C8.83573 5.86889 8.89194 5.78574 8.96271 5.71596C9.03349 5.64617 9.11743 5.59115 9.20966 5.55409ZM11.7136 9.1211C11.7874 9.04517 11.8883 9.00166 11.9941 9.0001C12.0476 8.99932 12.1006 9.00926 12.1501 9.02932C12.1996 9.04939 12.2445 9.07918 12.2823 9.11693C12.3201 9.15468 12.3499 9.19963 12.3701 9.24911C12.3902 9.29859 12.4002 9.3516 12.3994 9.40501V10.4375L12.9155 9.92147C12.9526 9.88436 12.9967 9.85492 13.0452 9.83483C13.0936 9.81475 13.1456 9.80441 13.1981 9.80441C13.2506 9.80441 13.3026 9.81475 13.351 9.83483C13.3995 9.85492 13.4436 9.88436 13.4807 9.92147C13.5178 9.95858 13.5473 10.0026 13.5673 10.0511C13.5874 10.0996 13.5978 10.1516 13.5978 10.2041C13.5978 10.2566 13.5874 10.3085 13.5673 10.357C13.5473 10.4055 13.5178 10.4496 13.4807 10.4867L12.3994 11.5676V12.6005H13.4323L14.5136 11.5188C14.5507 11.4817 14.5948 11.4523 14.6433 11.4322C14.6918 11.4121 14.7437 11.4018 14.7962 11.4018C14.8487 11.4018 14.9007 11.4121 14.9492 11.4322C14.9976 11.4523 15.0417 11.4817 15.0788 11.5188C15.1159 11.556 15.1454 11.6 15.1655 11.6485C15.1855 11.697 15.1959 11.749 15.1959 11.8015C15.1959 11.8539 15.1855 11.9059 15.1655 11.9544C15.1454 12.0029 15.1159 12.047 15.0788 12.0841L14.5624 12.6005H15.5949C15.6478 12.5998 15.7004 12.6096 15.7495 12.6293C15.7986 12.649 15.8433 12.6783 15.881 12.7155C15.9187 12.7527 15.9486 12.797 15.969 12.8458C15.9895 12.8946 16 12.947 16 13C16 13.0529 15.9895 13.1053 15.969 13.1541C15.9486 13.203 15.9187 13.2473 15.881 13.2844C15.8433 13.3216 15.7986 13.3509 15.7495 13.3706C15.7004 13.3904 15.6478 13.4002 15.5949 13.3994H14.5624L15.0784 13.9155C15.1155 13.9526 15.145 13.9967 15.1651 14.0451C15.1851 14.0936 15.1955 14.1456 15.1955 14.1981C15.1955 14.2506 15.1851 14.3026 15.1651 14.351C15.145 14.3995 15.1155 14.4436 15.0784 14.4807C15.0413 14.5178 14.9973 14.5473 14.9488 14.5673C14.9003 14.5874 14.8483 14.5978 14.7958 14.5978C14.7433 14.5978 14.6914 14.5874 14.6429 14.5673C14.5944 14.5473 14.5503 14.5178 14.5132 14.4807L13.4323 13.3994H12.3994V14.4323L13.4811 15.5136C13.5182 15.5507 13.5476 15.5948 13.5677 15.6433C13.5878 15.6918 13.5982 15.7438 13.5982 15.7962C13.5982 15.8487 13.5878 15.9007 13.5677 15.9492C13.5476 15.9977 13.5182 16.0417 13.4811 16.0789C13.444 16.116 13.3999 16.1454 13.3514 16.1655C13.3029 16.1856 13.251 16.1959 13.1985 16.1959C13.146 16.1959 13.094 16.1856 13.0455 16.1655C12.9971 16.1454 12.953 16.116 12.9159 16.0789L12.3994 15.5624V16.5949C12.4002 16.6479 12.3904 16.7004 12.3707 16.7495C12.3509 16.7987 12.3216 16.8434 12.2845 16.8811C12.2473 16.9187 12.203 16.9487 12.1542 16.9691C12.1053 16.9895 12.0529 17.0001 12 17.0001C11.9471 17.0001 11.8947 16.9895 11.8458 16.9691C11.797 16.9487 11.7527 16.9187 11.7155 16.8811C11.6784 16.8434 11.6491 16.7987 11.6293 16.7495C11.6096 16.7004 11.5998 16.6479 11.6006 16.5949V15.5624L11.0845 16.0785C11.0096 16.1534 10.9079 16.1955 10.8019 16.1955C10.6959 16.1955 10.5942 16.1534 10.5193 16.0785C10.4443 16.0035 10.4022 15.9019 10.4022 15.7959C10.4022 15.6899 10.4443 15.5882 10.5193 15.5132L11.6006 14.4323V13.3994H10.5677L9.48639 14.4811C9.41144 14.5561 9.30978 14.5982 9.20379 14.5982C9.09779 14.5982 8.99613 14.5561 8.92118 14.4811C8.84623 14.4061 8.80412 14.3045 8.80412 14.1985C8.80412 14.0925 8.84623 13.9908 8.92118 13.9159L9.43763 13.3994H8.40512C8.35219 13.4002 8.29964 13.3904 8.25052 13.3706C8.20141 13.3509 8.1567 13.3216 8.11901 13.2844C8.08131 13.2473 8.05138 13.203 8.03095 13.1541C8.01052 13.1053 8 13.0529 8 13C8 12.947 8.01052 12.8946 8.03095 12.8458C8.05138 12.797 8.08131 12.7527 8.11901 12.7155C8.1567 12.6783 8.20141 12.649 8.25052 12.6293C8.29964 12.6096 8.35219 12.5998 8.40512 12.6005H9.43763L8.92157 12.0845C8.88446 12.0473 8.85502 12.0033 8.83494 11.9548C8.81485 11.9063 8.80451 11.8543 8.80451 11.8018C8.80451 11.7494 8.81485 11.6974 8.83494 11.6489C8.85502 11.6004 8.88446 11.5563 8.92157 11.5192C8.95868 11.4821 9.00274 11.4527 9.05123 11.4326C9.09972 11.4125 9.15169 11.4022 9.20418 11.4022C9.25666 11.4022 9.30863 11.4125 9.35712 11.4326C9.40561 11.4527 9.44967 11.4821 9.48678 11.5192L10.5677 12.6005H11.6006V11.5676L10.5189 10.4863C10.444 10.4113 10.4018 10.3097 10.4018 10.2037C10.4018 10.0977 10.444 9.99603 10.5189 9.92108C10.5939 9.84613 10.6955 9.80402 10.8015 9.80402C10.9075 9.80402 11.0092 9.84613 11.0841 9.92108L11.6006 10.4375V9.40501C11.5991 9.29913 11.6398 9.19702 11.7136 9.1211Z" fill="black"/>
</svg>
