<svg width="24" height="24" viewBox="0 0 24 24" fill="none" xmlns="http://www.w3.org/2000/svg">
<path d="M11.8222 1.49121C10.9886 1.49121 10.1027 1.68073 9.30662 2.10937C8.124 2.74585 7.1533 4.00136 7.1533 5.71973C7.1533 7.32391 7.58546 8.6504 8.18943 9.69141C9.12761 11.3071 10.4648 12.2437 11.25 12.6924V17.6602C11.0334 17.3514 10.8044 17.0515 10.5683 16.7568C10.5858 16.6433 10.6653 16.0993 10.624 15.3516C10.5782 14.5218 10.3985 13.4589 9.66697 12.6172C9.0304 11.8848 8.243 11.3852 7.28807 11.0996C6.33313 10.814 5.21792 10.7125 3.77732 10.668C2.97089 10.6431 2.3321 10.7419 1.8867 11.2324C1.664 11.4777 1.55446 11.8082 1.54295 12.0937C1.53144 12.3793 1.59304 12.6296 1.67674 12.8623C2.01153 13.7933 2.75341 14.6327 3.08885 15.1318C3.60629 15.9018 4.05795 16.7249 4.67967 17.4189C5.30138 18.113 6.18223 18.6719 7.30369 18.6719C8.26733 18.6719 9.02041 18.3505 9.60154 17.9297C10.2146 18.7276 10.7569 19.5942 11.25 20.5176V21.7588C11.2486 21.8582 11.2669 21.9568 11.304 22.0491C11.3411 22.1413 11.3961 22.2252 11.4659 22.296C11.5356 22.3668 11.6188 22.423 11.7105 22.4614C11.8022 22.4997 11.9006 22.5195 12 22.5195C12.0994 22.5195 12.1978 22.4997 12.2895 22.4614C12.3812 22.423 12.4643 22.3668 12.5341 22.296C12.6039 22.2252 12.6589 22.1413 12.696 22.0491C12.733 21.9568 12.7514 21.8582 12.75 21.7588V20.4863C13.4067 19.2613 14.1489 18.1347 15.0342 17.1416C15.5695 17.4842 16.2582 17.7435 17.1279 17.7432C18.1475 17.7432 18.963 17.2863 19.5439 16.708C20.1248 16.1297 20.5406 15.4526 21.0088 14.8311C21.3058 14.4367 21.9887 13.7653 22.3193 12.9453C22.402 12.7403 22.4675 12.5102 22.4551 12.2353C22.4426 11.9605 22.3171 11.6374 22.0947 11.4189C21.6498 10.982 21.0843 10.9241 20.3496 10.9443C19.034 10.9804 18.0171 11.0623 17.1445 11.2949C16.2719 11.5276 15.5441 11.9381 14.9492 12.5488C13.7097 13.8213 13.9867 15.5967 14.0654 15.9922C13.5908 16.5124 13.1535 17.061 12.75 17.6338V12.8398C13.4074 12.357 16.8467 9.64688 16.8467 5.71973C16.8467 3.95535 16.0437 2.74563 14.9961 2.15332C13.9484 1.56101 12.7616 1.49121 11.8222 1.49121ZM11.8222 2.99121C12.6639 2.99121 13.6134 3.09467 14.2578 3.45898C14.9022 3.8233 15.3467 4.35361 15.3467 5.71973C15.3467 8.02926 13.7443 9.87734 12.75 10.8105V5.86426C12.7514 5.76387 12.7327 5.66422 12.6949 5.57121C12.6571 5.4782 12.6011 5.39372 12.53 5.32278C12.459 5.25183 12.3744 5.19587 12.2814 5.15821C12.1883 5.12054 12.0886 5.10195 11.9883 5.10351C11.7895 5.10662 11.6001 5.18848 11.4617 5.33112C11.3233 5.47376 11.2471 5.66551 11.25 5.86426V10.9102C10.7101 10.5211 10.0488 9.90554 9.48728 8.93848C9.00225 8.10248 8.6533 7.05854 8.6533 5.71973C8.6533 4.52609 9.21018 3.86519 10.0176 3.43066H10.0185C10.5615 3.13831 11.2239 2.99121 11.8222 2.99121ZM3.73143 12.168C5.12183 12.2109 6.12531 12.3169 6.85838 12.5361C7.59144 12.7554 8.06173 13.058 8.53416 13.6016C8.86167 13.9784 9.03257 14.5852 9.09764 15.168C8.42948 14.5473 7.6918 13.9816 6.85838 13.4951C6.68653 13.3948 6.48185 13.3668 6.28937 13.4173C6.09689 13.4679 5.93237 13.5928 5.83201 13.7646C5.73165 13.9365 5.70366 14.1412 5.75421 14.3337C5.80476 14.5261 5.9297 14.6907 6.10154 14.791C7.064 15.3529 7.88897 16.0313 8.62205 16.7939C8.29856 17.0258 7.90494 17.1719 7.30369 17.1719C6.62865 17.1719 6.25276 16.9279 5.79685 16.4189C5.34095 15.91 4.89452 15.129 4.33396 14.2949C3.9094 13.6631 3.25183 12.8114 3.08787 12.3555C3.06338 12.2874 3.06527 12.2706 3.05955 12.2353C3.04754 12.2586 3.16885 12.1506 3.73143 12.168ZM20.3906 12.4443C20.796 12.4332 20.8097 12.4668 20.8603 12.4766C20.6919 12.8109 20.1836 13.4333 19.8105 13.9287C19.2942 14.6142 18.8891 15.2436 18.4853 15.6455C18.0816 16.0474 17.7493 16.2432 17.1279 16.2432H17.1269C16.697 16.2434 16.3904 16.1684 16.1377 16.0488C16.6683 15.5865 17.2419 15.1623 17.8779 14.791C18.0498 14.6908 18.1747 14.5264 18.2254 14.334C18.276 14.1416 18.2482 13.937 18.1479 13.7651C18.0477 13.5933 17.8833 13.4683 17.6909 13.4177C17.4985 13.367 17.2939 13.3949 17.1221 13.4951C16.5778 13.8128 16.0764 14.1663 15.6054 14.5439C15.6661 14.194 15.7852 13.8402 16.0234 13.5957C16.442 13.1659 16.8618 12.9226 17.5312 12.7441C18.2007 12.5657 19.1197 12.4792 20.3906 12.4443Z" fill="black"/>
</svg>
