<svg width="24" height="24" viewBox="0 0 24 24" fill="none" xmlns="http://www.w3.org/2000/svg">
<path d="M8 6.75C7.58579 6.75 7.25 7.08579 7.25 7.5C7.25 7.91421 7.58579 8.25 8 8.25H10C10.4142 8.25 10.75 7.91421 10.75 7.5C10.75 7.08579 10.4142 6.75 10 6.75H8Z" fill="black"/>
<path d="M16 15.5C16 15.7761 15.7761 16 15.5 16C15.2239 16 15 15.7761 15 15.5C15 15.2239 15.2239 15 15.5 15C15.7761 15 16 15.2239 16 15.5Z" fill="black"/>
<path d="M17.5 17C17.7761 17 18 16.7761 18 16.5C18 16.2239 17.7761 16 17.5 16C17.2239 16 17 16.2239 17 16.5C17 16.7761 17.2239 17 17.5 17Z" fill="black"/>
<path d="M13 16.5C13 16.7761 12.7761 17 12.5 17C12.2239 17 12 16.7761 12 16.5C12 16.2239 12.2239 16 12.5 16C12.7761 16 13 16.2239 13 16.5Z" fill="black"/>
<path fill-rule="evenodd" clip-rule="evenodd" d="M3.72135 3.25C2.95945 3.25 2.28985 3.75508 2.08054 4.48767C1.86038 5.25822 1.68008 6.06992 1.53963 6.90787C1.36338 7.04511 1.25 7.25931 1.25 7.5C1.25 7.66217 1.30147 7.81232 1.38897 7.93501C1.09495 10.2619 1.09495 12.7381 1.38897 15.065C1.30147 15.1877 1.25 15.3378 1.25 15.5C1.25 15.7407 1.36338 15.9549 1.53963 16.0921C1.68008 16.9301 1.86038 17.7418 2.08054 18.5123C2.28985 19.2449 2.95945 19.75 3.72135 19.75L20.9649 19.7497C21.6592 19.7497 22.2685 19.4024 22.5674 18.8484C22.8808 18.2678 22.8007 17.5372 22.2497 17.0213L18.6015 13.6064C18.0857 13.1235 17.4745 12.7738 16.8249 12.5506C16.8269 12.4643 16.8285 12.378 16.8295 12.2917C16.8448 11.0501 16.7623 9.49688 16.5787 7.97709C16.6857 7.84744 16.75 7.68123 16.75 7.5C16.75 7.24469 16.6224 7.01918 16.4276 6.88372C16.2926 6.02322 16.1234 5.20208 15.9192 4.48767C15.7099 3.75508 15.0403 3.25 14.2784 3.25H3.72135ZM3.09067 16.25C3.2096 16.8887 3.35365 17.5081 3.52283 18.1003C3.54815 18.1889 3.62917 18.25 3.72135 18.25H7.25482C7.22058 17.8174 7.37783 17.3703 7.75057 17.0213L8.57458 16.25H8C7.58579 16.25 7.25 15.9142 7.25 15.5C7.25 15.0858 7.58579 14.75 8 14.75H10C10.0545 14.75 10.1077 14.7558 10.159 14.7669L11.3987 13.6064C12.4589 12.614 13.9228 12.179 15.3298 12.2594C15.3434 11.095 15.266 9.65355 15.1007 8.25H13C12.5858 8.25 12.25 7.91421 12.25 7.5C12.25 7.08579 12.5858 6.75 13 6.75H14.8857C14.7711 6.08189 14.6347 5.45196 14.4769 4.89975C14.4516 4.81111 14.3706 4.75 14.2784 4.75H3.72135C3.62917 4.75 3.54815 4.81111 3.52283 4.89975C3.35365 5.49187 3.2096 6.11133 3.09067 6.75H5C5.41421 6.75 5.75 7.08579 5.75 7.5C5.75 7.91421 5.41421 8.25 5 8.25H2.86134C2.60416 10.3724 2.60416 12.6276 2.86134 14.75H5C5.41421 14.75 5.75 15.0858 5.75 15.5C5.75 15.9142 5.41421 16.25 5 16.25H3.09067ZM12.4238 14.7014C13.286 13.8943 14.6167 13.5816 15.8486 13.8357C16.5085 13.9718 17.111 14.2657 17.5764 14.7014L21.2246 18.1164C21.2346 18.1258 21.2413 18.1334 21.2457 18.139C21.2291 18.1659 21.1543 18.2497 20.9649 18.2497H9.03533C8.84592 18.2497 8.77113 18.1659 8.75458 18.139C8.75894 18.1334 8.76562 18.1258 8.77566 18.1164L12.4238 14.7014Z" fill="black"/>
</svg>
