<svg width="24" height="24" viewBox="0 0 24 24" fill="none" xmlns="http://www.w3.org/2000/svg">
<path d="M12.25 1C10.3262 1 9.1494 2.80176 9.1494 2.80176C9.14542 2.80724 9.14151 2.81277 9.13768 2.81836C8.44739 2.32698 7.57858 2 6.49998 2C6.4006 1.99859 6.30193 2.01696 6.2097 2.05402C6.11748 2.09108 6.03354 2.1461 5.96276 2.21588C5.89198 2.28566 5.83578 2.36882 5.79742 2.46051C5.75906 2.5522 5.7393 2.65061 5.7393 2.75C5.7393 2.84939 5.75906 2.9478 5.79742 3.03949C5.83578 3.13118 5.89198 3.21434 5.96276 3.28412C6.03354 3.3539 6.11748 3.40892 6.2097 3.44598C6.30193 3.48304 6.4006 3.50141 6.49998 3.5C8.01131 3.5 8.67571 4.10917 9.14452 5.03027C9.46706 5.664 9.62549 6.46476 9.69725 7.23633C9.54951 7.17431 9.42241 7.12011 9.2119 7.03613C8.55207 6.77291 7.60369 6.5 6.12498 6.5C3.30746 6.5 1.08477 8.90634 0.999985 11.4834C0.999842 11.4919 0.999842 11.5003 0.999985 11.5088C0.999985 11.5486 1.00119 11.647 1.00194 11.7637C1.00269 11.8803 1.00292 12.0287 1.00292 12C1.00289 12.0033 1.00289 12.0065 1.00292 12.0098C1.03857 14.6556 1.81131 17.1049 3.10252 18.9355C4.31623 20.6563 6.03455 21.8493 7.99998 21.9863V22.25C8 22.4489 8.07903 22.6397 8.21968 22.7803C8.36032 22.921 8.55108 23 8.74999 23H18.25C20.8644 23 23 20.8644 23 18.25V12.25C22.9985 12.1497 22.9769 12.0508 22.9365 11.959C22.8961 11.8672 22.8378 11.7844 22.7648 11.7156C22.6919 11.6468 22.6059 11.5933 22.5119 11.5583C22.418 11.5232 22.3179 11.5074 22.2178 11.5117C22.0265 11.5199 21.8456 11.601 21.7122 11.7382C21.5787 11.8755 21.5028 12.0586 21.5 12.25C21.5 13.5429 20.7001 14.6531 19.5732 15.1689C19.8283 14.1693 19.9815 13.1096 19.9961 12.0098C19.9967 11.9841 19.9969 11.9775 19.9971 11.9551C19.9973 11.9262 19.9977 11.8884 19.998 11.8467C19.9986 11.7632 19.9985 11.6644 19.999 11.5947C19.9992 11.5843 19.9992 11.5739 19.999 11.5635C19.9106 8.98979 17.7084 6.5 14.875 6.5C13.3963 6.5 12.4479 6.77291 11.7881 7.03613C11.5296 7.13923 11.3612 7.21301 11.1924 7.28223C11.1192 6.57195 10.9697 5.80634 10.7031 5.05957C11.1469 5.30362 11.6453 5.5 12.25 5.5C14.1738 5.5 15.3506 3.69824 15.3506 3.69824C15.4471 3.56873 15.4992 3.41152 15.4992 3.25C15.4992 3.08848 15.4471 2.93127 15.3506 2.80176C15.3506 2.80176 14.1738 1 12.25 1ZM12.25 2.5C12.7739 2.5 13.2893 2.8987 13.6738 3.25C13.2893 3.6013 12.7739 4 12.25 4C11.7261 4 11.2107 3.6013 10.8262 3.25C11.2107 2.8987 11.7261 2.5 12.25 2.5ZM6.12498 8C7.43028 8 8.10593 8.21016 8.65623 8.42969C9.13412 8.62033 9.58632 8.88405 10.206 8.9502C10.2993 8.99006 10.3996 9.01061 10.501 9.01061C10.6023 9.01061 10.7027 8.99006 10.7959 8.9502C11.4146 8.88371 11.8664 8.62013 12.3437 8.42969C12.894 8.21016 13.5697 8 14.875 8C16.7802 8 18.4408 9.90618 18.5 11.6143V11.6152C18.4995 11.6828 18.4985 11.7642 18.498 11.8369C18.4977 11.8784 18.4973 11.9158 18.4971 11.9434C18.4968 11.9709 18.495 12.0339 18.4971 11.9746C18.4967 11.9798 18.4963 11.985 18.4961 11.9902C18.4796 13.2284 18.2683 14.4072 17.9219 15.4795L8.74803 15.5C8.54946 15.5005 8.35921 15.5798 8.21899 15.7204C8.07876 15.861 8 16.0514 7.99998 16.25V20.4727C6.60282 20.3397 5.3259 19.486 4.32811 18.0713C3.24045 16.5292 2.53476 14.3534 2.50291 11.9902C2.50286 11.9414 2.50266 11.8659 2.50194 11.7539C2.50126 11.6489 2.50011 11.5497 2.49999 11.5332V11.5322C2.55677 9.82358 4.19986 8 6.12498 8ZM21.5 15.6436V18.25C21.5 20.0536 20.0536 21.5 18.25 21.5H9.49998V21.3799C9.52291 21.2747 9.52291 21.1658 9.49998 21.0605V16.998L11 16.9951V18.75C10.9986 18.8494 11.0169 18.9481 11.054 19.0403C11.0911 19.1325 11.1461 19.2164 11.2159 19.2872C11.2856 19.358 11.3688 19.4142 11.4605 19.4526C11.5522 19.4909 11.6506 19.5107 11.75 19.5107C11.8494 19.5107 11.9478 19.4909 12.0395 19.4526C12.1312 19.4142 12.2143 19.358 12.2841 19.2872C12.3539 19.2164 12.4089 19.1325 12.446 19.0403C12.483 18.9481 12.5014 18.8494 12.5 18.75V16.9912L14 16.9883V18.25C13.9986 18.3494 14.0169 18.4481 14.054 18.5403C14.0911 18.6325 14.1461 18.7164 14.2159 18.7872C14.2856 18.858 14.3688 18.9142 14.4605 18.9526C14.5522 18.9909 14.6506 19.0107 14.75 19.0107C14.8494 19.0107 14.9478 18.9909 15.0395 18.9526C15.1312 18.9142 15.2143 18.858 15.2841 18.7872C15.3539 18.7164 15.4089 18.6325 15.446 18.5403C15.483 18.4481 15.5014 18.3494 15.5 18.25V16.9844L17 16.9814V18.75C16.9986 18.8494 17.0169 18.9481 17.054 19.0403C17.0911 19.1325 17.1461 19.2164 17.2159 19.2872C17.2856 19.358 17.3688 19.4142 17.4605 19.4526C17.5522 19.4909 17.6506 19.5107 17.75 19.5107C17.8494 19.5107 17.9478 19.4909 18.0395 19.4526C18.1312 19.4142 18.2143 19.358 18.2841 19.2872C18.3539 19.2164 18.4089 19.1325 18.446 19.0403C18.483 18.9481 18.5014 18.8494 18.5 18.75V16.9727C18.5417 16.9706 18.5832 16.965 18.624 16.9561C19.7247 16.8504 20.7288 16.3672 21.5 15.6436Z" fill="black"/>
</svg>
