<svg width="24" height="24" viewBox="0 0 24 24" fill="none" xmlns="http://www.w3.org/2000/svg">
<path d="M6.83984 1.23535C6.64045 1.23522 6.43964 1.24736 6.23926 1.27246C5.70491 1.33939 5.1721 1.49476 4.66895 1.73633C2.65634 2.7026 1 5 1 8.25C1.00001 8.38665 1.03735 8.52069 1.10799 8.63766C1.17863 8.75463 1.27987 8.85009 1.4008 8.91372C1.52172 8.97735 1.65774 9.00673 1.79414 8.99871C1.93055 8.99068 2.06218 8.94554 2.1748 8.86816C2.75214 8.47157 3.41553 8.49939 4.24609 8.68555C5.07666 8.8717 5.94713 9.25 6.89356 9.25C8.24553 9.25 9.60559 8.5986 10.3896 7.41406C10.444 7.33192 10.4817 7.23987 10.5005 7.14317C10.5193 7.04647 10.5189 6.94701 10.4993 6.85047C10.4797 6.75392 10.4412 6.6622 10.3861 6.58052C10.3311 6.49884 10.2604 6.42881 10.1783 6.37443C10.0961 6.32005 10.0041 6.28238 9.90737 6.26358C9.81067 6.24478 9.71121 6.24521 9.61467 6.26485C9.51813 6.28449 9.4264 6.32296 9.34473 6.37805C9.26306 6.43314 9.19304 6.50378 9.13867 6.58594C8.66973 7.2944 7.74258 7.75 6.89356 7.75C6.43698 7.75 5.55566 7.44165 4.57422 7.22168C3.98413 7.08942 3.31186 7.0267 2.63965 7.13574C2.95776 5.06086 4.06351 3.69133 5.31836 3.08887C6.45319 2.54403 7.5891 2.57985 8.40723 3.21289C6.47418 3.44004 5.26172 4.43066 5.26172 4.43066C5.18589 4.49446 5.12345 4.57266 5.07801 4.66073C5.03257 4.7488 5.00503 4.845 4.99699 4.94377C4.98895 5.04254 5.00056 5.14193 5.03116 5.23619C5.06175 5.33045 5.11072 5.41772 5.17523 5.49294C5.23975 5.56816 5.31853 5.62986 5.40703 5.67446C5.49552 5.71906 5.59198 5.74568 5.69083 5.75278C5.78967 5.75989 5.88895 5.74733 5.98291 5.71584C6.07688 5.68436 6.16367 5.63456 6.23828 5.56934C6.23828 5.56934 7.68105 4.29553 10.1162 4.73828C10.1298 4.74061 10.1435 4.74257 10.1572 4.74414C10.1572 4.74414 10.395 4.75725 10.7373 5.07813C11.0796 5.399 11.5 6.02885 11.5 7.5V11V13H3.75C2.79252 13 2 13.7925 2 14.75C2 19.2841 5.71591 23 10.25 23H13.75C18.2974 23 22 19.2974 22 14.75C22 13.7925 21.2075 13 20.25 13H13V11C13 10.7083 13.0595 10.032 13.3174 9.41309C13.5605 8.82962 13.9633 8.32409 14.6582 8.02148C15.7114 8.04192 16.498 8.18617 16.9502 8.33691C17.4336 8.49806 17.5498 8.59961 17.5498 8.59961C17.6283 8.6619 17.7185 8.70783 17.815 8.73469C17.9115 8.76156 18.0124 8.76881 18.1118 8.75603C18.2112 8.74324 18.307 8.71067 18.3936 8.66025C18.4802 8.60983 18.5558 8.54257 18.6159 8.46244C18.6761 8.38232 18.7196 8.29095 18.7438 8.19374C18.7681 8.09653 18.7726 7.99544 18.7572 7.89644C18.7418 7.79744 18.7066 7.70255 18.6539 7.61735C18.6012 7.53215 18.5319 7.45838 18.4502 7.40039C18.4502 7.40039 18.0664 7.12694 17.4248 6.91309C17.0503 6.78824 16.531 6.68373 15.9307 6.60547C16.7359 5.97744 17.842 5.92596 18.9355 6.43066C20.0705 6.9545 21.0449 8.08229 21.3584 9.71094C20.7701 9.66878 20.1938 9.77441 19.7012 9.92676C18.8421 10.1924 18.0781 10.5 17.75 10.5C17.563 10.5 17.0576 10.2875 16.6406 9.98535C16.2236 9.6832 15.8256 9.26964 15.8311 9.27637C15.7702 9.19621 15.6938 9.12913 15.6064 9.07912C15.519 9.02911 15.4225 8.9972 15.3225 8.98528C15.2226 8.97337 15.1213 8.9817 15.0246 9.00977C14.9279 9.03785 14.8379 9.08509 14.7599 9.14869C14.6818 9.21229 14.6174 9.29095 14.5704 9.37998C14.5234 9.469 14.4948 9.56657 14.4864 9.66688C14.4779 9.76718 14.4897 9.86817 14.521 9.96382C14.5524 10.0595 14.6027 10.1478 14.6689 10.2236C14.8764 10.4784 15.2282 10.8143 15.7607 11.2002C16.2932 11.586 16.937 12 17.75 12C18.6629 12 19.4248 11.5816 20.1436 11.3594C20.8623 11.1371 21.3801 11.0761 21.8379 11.377C21.951 11.4513 22.0821 11.4937 22.2174 11.4996C22.3526 11.5054 22.4869 11.4746 22.6061 11.4103C22.7252 11.346 22.8247 11.2507 22.8941 11.1345C22.9634 11.0182 23 10.8854 23 10.75C23 7.975 21.4463 5.9379 19.5645 5.06934C17.6826 4.20077 15.3447 4.50597 14.126 6.33398C14.0545 6.4382 14.0105 6.5588 13.998 6.68457C13.9727 6.70639 13.9489 6.72988 13.9268 6.75488C13.568 6.93326 13.2445 7.13951 12.9814 7.38867C12.9531 5.68741 12.4037 4.58536 11.7627 3.98438C11.2733 3.52555 10.8281 3.38591 10.5801 3.32422C10.5205 3.29588 10.4575 3.27552 10.3926 3.26367C10.3791 3.2317 10.3635 3.2007 10.3457 3.1709C9.57137 1.85949 8.23564 1.23626 6.83984 1.23535ZM3.75 14.5H12.127C12.2075 14.5132 12.2896 14.5132 12.3701 14.5H20.25C20.3975 14.5 20.5 14.6025 20.5 14.75C20.5 18.4866 17.4866 21.5 13.75 21.5H10.25C6.53409 21.5 3.5 18.4659 3.5 14.75C3.5 14.6025 3.60248 14.5 3.75 14.5Z" fill="black"/>
</svg>
