<svg width="24" height="24" viewBox="0 0 24 24" fill="none" xmlns="http://www.w3.org/2000/svg">
<path d="M13.75 1.5C11.8262 1.5 10.6494 3.30176 10.6494 3.30176C10.6451 3.30788 10.6409 3.31406 10.6367 3.32031C9.94486 2.83089 9.07709 2.5 8 2.5C7.90062 2.49859 7.80195 2.51696 7.70972 2.55402C7.61749 2.59108 7.53355 2.6461 7.46278 2.71588C7.392 2.78566 7.3358 2.86882 7.29744 2.96051C7.25908 3.0522 7.23932 3.15061 7.23932 3.25C7.23932 3.34939 7.25908 3.4478 7.29744 3.53949C7.3358 3.63118 7.392 3.71434 7.46278 3.78412C7.53355 3.8539 7.61749 3.90892 7.70972 3.94598C7.80195 3.98304 7.90062 4.00141 8 4C9.33319 4 9.98796 4.48237 10.4658 5.21973C10.8185 5.76393 11.0293 6.48338 11.1416 7.21582C11.1291 7.21046 11.1222 7.20867 11.1094 7.20312C10.4224 6.90662 9.482 6.5 7.625 6.5C6.2405 6.5 4.87496 7.12766 3.87696 8.22266C2.94696 9.24316 2.49746 10.4949 2.50196 12.0479L2.50293 12.5098C2.57743 18.0183 5.88591 22.5 9.87891 22.5H10.0107C10.3312 22.5 10.6365 22.4359 10.918 22.3389C10.675 21.9079 10.5298 21.4156 10.5068 20.8916C10.3438 20.9561 10.1747 21 10.0107 21H9.87891C6.70191 21 4.06593 17.1825 4.00293 12.5L4.00196 12.043C3.99846 10.8665 4.31085 9.9739 4.98535 9.2334C5.68885 8.4614 6.676 8 7.625 8C9.172 8 9.88515 8.30808 10.5147 8.58008C10.9537 8.76958 11.4075 8.96582 12 8.96582C12.5925 8.96582 13.0464 8.76958 13.4854 8.58008C14.1149 8.30808 14.828 8 16.375 8C17.293 8 18.1156 8.4025 18.7461 9H20.6641C19.7736 7.59 18.239 6.5 16.375 6.5C14.518 6.5 13.5771 6.90662 12.8906 7.20312C12.7979 7.24313 12.7353 7.26224 12.6572 7.29297C12.5726 6.72925 12.4228 6.14498 12.2188 5.56934C12.6591 5.80861 13.153 6 13.75 6C15.6738 6 16.8506 4.19824 16.8506 4.19824C16.9471 4.06873 16.9993 3.91152 16.9993 3.75C16.9993 3.58848 16.9471 3.43127 16.8506 3.30176C16.8506 3.30176 15.6738 1.5 13.75 1.5ZM13.75 3C14.2739 3 14.7893 3.3987 15.1738 3.75C14.7893 4.1013 14.2739 4.5 13.75 4.5C13.2261 4.5 12.7107 4.1013 12.3262 3.75C12.7107 3.3987 13.2261 3 13.75 3ZM13.75 10C12.5163 10 11.5 11.0162 11.5 12.25V20.75C11.5 21.9837 12.5163 23 13.75 23H20.75C21.9838 23 23 21.9837 23 20.75V12.25C23 11.0162 21.9838 10 20.75 10H13.75ZM13.75 11.5H20.75C21.1733 11.5 21.5 11.8268 21.5 12.25V20.75C21.5 21.1733 21.1733 21.5 20.75 21.5H13.75C13.3268 21.5 13 21.1733 13 20.75V12.25C13 11.8268 13.3268 11.5 13.75 11.5ZM15 13C14.724 13 14.5 13.224 14.5 13.5V14.5C14.5 14.776 14.724 15 15 15H19.5C19.776 15 20 14.776 20 14.5V13.5C20 13.224 19.776 13 19.5 13H15ZM14.75 16C14.5511 16 14.3603 16.079 14.2197 16.2197C14.079 16.3603 14 16.5511 14 16.75C14 16.9489 14.079 17.1397 14.2197 17.2803C14.3603 17.421 14.5511 17.5 14.75 17.5C14.9489 17.5 15.1397 17.421 15.2803 17.2803C15.421 17.1397 15.5 16.9489 15.5 16.75C15.5 16.5511 15.421 16.3603 15.2803 16.2197C15.1397 16.079 14.9489 16 14.75 16ZM17.25 16C17.0511 16 16.8603 16.079 16.7197 16.2197C16.579 16.3603 16.5 16.5511 16.5 16.75C16.5 16.9489 16.579 17.1397 16.7197 17.2803C16.8603 17.421 17.0511 17.5 17.25 17.5C17.4489 17.5 17.6397 17.421 17.7803 17.2803C17.921 17.1397 18 16.9489 18 16.75C18 16.5511 17.921 16.3603 17.7803 16.2197C17.6397 16.079 17.4489 16 17.25 16ZM19.75 16C19.336 16 19 16.336 19 16.75V19.25C19 19.664 19.336 20 19.75 20C20.164 20 20.5 19.664 20.5 19.25V16.75C20.5 16.336 20.164 16 19.75 16ZM14.75 18.5C14.5511 18.5 14.3603 18.579 14.2197 18.7197C14.079 18.8603 14 19.0511 14 19.25C14 19.4489 14.079 19.6397 14.2197 19.7803C14.3603 19.921 14.5511 20 14.75 20C14.9489 20 15.1397 19.921 15.2803 19.7803C15.421 19.6397 15.5 19.4489 15.5 19.25C15.5 19.0511 15.421 18.8603 15.2803 18.7197C15.1397 18.579 14.9489 18.5 14.75 18.5ZM17.25 18.5C17.0511 18.5 16.8603 18.579 16.7197 18.7197C16.579 18.8603 16.5 19.0511 16.5 19.25C16.5 19.4489 16.579 19.6397 16.7197 19.7803C16.8603 19.921 17.0511 20 17.25 20C17.4489 20 17.6397 19.921 17.7803 19.7803C17.921 19.6397 18 19.4489 18 19.25C18 19.0511 17.921 18.8603 17.7803 18.7197C17.6397 18.579 17.4489 18.5 17.25 18.5Z" fill="black"/>
</svg>
