<svg width="24" height="24" viewBox="0 0 24 24" fill="none" xmlns="http://www.w3.org/2000/svg">
<path d="M14.25 0.999953C14.1506 0.998547 14.0519 1.01691 13.9597 1.05397C13.8675 1.09103 13.7836 1.14605 13.7128 1.21583C13.642 1.28562 13.5858 1.36877 13.5474 1.46046C13.5091 1.55216 13.4893 1.65056 13.4893 1.74995C13.4893 1.84935 13.5091 1.94775 13.5474 2.03944C13.5858 2.13114 13.642 2.21429 13.7128 2.28407C13.7836 2.35386 13.8675 2.40888 13.9597 2.44594C14.0519 2.483 14.1506 2.50136 14.25 2.49995H14.54C14.5126 2.58042 14.4991 2.66495 14.5 2.74995C14.5 3.66293 14.3282 5.14523 14.0645 5.9355C14.0638 5.9368 14.0631 5.9381 14.0625 5.93941L14.0527 5.97066C14.0043 6.11452 13.9217 6.27242 13.8096 6.45015C13.8092 6.45015 13.8089 6.45015 13.8086 6.45015C13.5345 6.88508 13.3542 7.36336 13.2178 7.85542L11.1357 6.6064C10.9781 6.51197 10.7913 6.4787 10.6107 6.5129C10.4302 6.54711 10.2684 6.6464 10.1562 6.79194L9.21387 8.01265C8.56966 7.57107 7.83579 7.24995 7 7.24995C4.88413 7.24995 3.14353 8.91563 3.0127 11H2.75C2.0682 11 1.5 11.5682 1.5 12.25V15.25C1.5 15.835 1.95042 16.265 2.5 16.3955V19.75C2.5 21.5359 3.96403 23 5.75 23H18.25C20.036 23 21.5 21.5359 21.5 19.75V16.3955C22.0496 16.265 22.5 15.835 22.5 15.25V12.25C22.5 11.5682 21.9318 11 21.25 11H21V9.25093C21 8.2572 20.7179 7.28628 20.1904 6.45015C20.0783 6.27242 19.9957 6.11452 19.9473 5.97066L19.9463 5.96773L19.9375 5.93941C19.9369 5.9381 19.9362 5.9368 19.9355 5.9355C19.6719 5.14524 19.5 3.66293 19.5 2.74995C19.5009 2.66495 19.4874 2.58042 19.46 2.49995H19.75C19.8494 2.50136 19.9481 2.483 20.0403 2.44594C20.1325 2.40888 20.2164 2.35386 20.2872 2.28407C20.358 2.21429 20.4142 2.13114 20.4526 2.03944C20.4909 1.94775 20.5107 1.84935 20.5107 1.74995C20.5107 1.65056 20.4909 1.55216 20.4526 1.46046C20.4142 1.36877 20.358 1.28562 20.2872 1.21583C20.2164 1.14605 20.1325 1.09103 20.0403 1.05397C19.9481 1.01691 19.8494 0.998547 19.75 0.999953H14.25ZM15.96 2.49995H18.04C18.0126 2.58042 17.9991 2.66495 18 2.74995C18 3.8231 18.1471 5.3127 18.5117 6.40718L18.5225 6.43843C18.5228 6.43973 18.5231 6.44103 18.5234 6.44234C18.6281 6.75582 18.7766 7.01969 18.9219 7.24995C19.2984 7.84682 19.5 8.54066 19.5 9.25093V11H18.458L14.5791 8.6728C14.6587 8.17153 14.8065 7.68097 15.0781 7.24995C15.2234 7.01969 15.3718 6.75582 15.4766 6.44234C15.4769 6.44103 15.4772 6.43973 15.4775 6.43843L15.4873 6.41011C15.8526 5.31537 16 3.82398 16 2.74995C16.0009 2.66495 15.9874 2.58042 15.96 2.49995ZM10.9365 8.23628L15.542 11H8.80371L10.9365 8.23628ZM7 8.74995C7.49721 8.74995 7.92883 8.9305 8.31543 9.17769L6.90918 11H4.5127C4.63669 9.72962 5.69484 8.74995 7 8.74995ZM3 12.5H18.2197H20.1201C20.2048 12.5146 20.2913 12.5146 20.376 12.5H21V15H3V12.5ZM4 16.5H20V19.75C20 20.725 19.225 21.5 18.25 21.5H5.75C4.77497 21.5 4 20.725 4 19.75V16.5Z" fill="black"/>
</svg>
