<svg width="24" height="24" viewBox="0 0 24 24" fill="none" xmlns="http://www.w3.org/2000/svg">
<path d="M11.25 1.5C10.8355 1.5 10.5 1.836 10.5 2.25V3H19V2.25C19 1.836 18.6645 1.5 18.25 1.5H11.25ZM10.4258 4L8.29004 8.26953C8.25254 8.34403 8.22239 8.422 8.19239 8.5H15.7012C15.7217 8.451 15.7402 8.40102 15.7637 8.35352L17.9414 4H10.4258ZM19.0586 4L16.6582 8.80176C16.5542 9.00876 16.5 9.24018 16.5 9.47168V22H19.75C20.715 22 21.5 21.215 21.5 20.25V9.5C21.5 9.075 21.4 8.64953 21.21 8.26953L19.0742 4H19.0586ZM3.75 9.5C3.3355 9.5 3 9.836 3 10.25V15.8916C3.068 15.8111 3.13547 15.7303 3.20997 15.6543C4.01247 14.8333 5.0803 14.3804 6.2168 14.3789C6.4553 14.3789 6.7225 14.4063 7 14.4463V9.5H3.75ZM8 9.5V14.6504C10.119 15.2219 12.5517 16.6711 12.5547 18.6816C12.5567 19.9881 11.6588 21.163 10.0303 22.001H15.5V9.5H8ZM6.21875 15.3799C4.42875 15.3824 2.97357 16.8698 2.97657 18.6963C2.97757 19.5798 3.31669 20.4107 3.92969 21.0352C4.54319 21.6597 5.35714 22.0039 6.22364 22.0039H6.22852C7.16702 22.0024 8.4825 21.6598 9.5 21.1523C10.8265 20.4908 11.5562 19.6141 11.5547 18.6836C11.5517 16.8051 8.00314 15.3799 6.22364 15.3799H6.21875Z" fill="black"/>
</svg>
