<svg width="24" height="24" viewBox="0 0 24 24" fill="none" xmlns="http://www.w3.org/2000/svg">
<path d="M19.8271 2.77443C18.5676 2.80195 17.4566 3.16129 16.4727 3.72463C14.9733 4.58305 13.7375 5.85676 12.4004 7.12502C10.8836 8.56356 9.67474 8.62943 8.53223 8.74025C4.38353 9.14324 2.18775 11.3317 1.56836 13.7158C0.948976 16.0999 1.717 18.5846 3.28125 19.836C6.05668 22.0564 9.2366 21.6721 11.5938 20.0361C13.9509 18.4002 15.6471 15.619 15.9941 12.8428C16.2331 10.9315 16.7338 9.71716 17.291 8.96095C17.8482 8.20475 18.4541 7.8782 19.0566 7.72755C20.2618 7.42627 21.4395 7.93263 21.4395 7.93263C21.5911 8.00142 21.7613 8.01779 21.9233 7.97918C22.0852 7.94056 22.2298 7.84915 22.334 7.71935C22.4383 7.58955 22.4965 7.42873 22.4993 7.26225C22.5021 7.09577 22.4494 6.93308 22.3496 6.79982L21.2402 5.32033L22.2803 4.28029C22.3741 4.18641 22.4413 4.06934 22.475 3.941C22.5088 3.81267 22.5079 3.67767 22.4725 3.54979C22.437 3.42191 22.3683 3.30572 22.2733 3.21309C22.1783 3.12045 22.0604 3.05467 21.9316 3.02248C21.3903 2.88715 20.8722 2.80986 20.376 2.78322C20.1899 2.77323 20.0071 2.7705 19.8271 2.77443ZM19.3809 4.3047C19.6022 4.31564 19.8507 4.37136 20.0654 4.37404L19.7197 4.71974C19.5921 4.84746 19.5148 5.01693 19.5021 5.19704C19.4893 5.37715 19.542 5.5558 19.6504 5.70021L19.9727 6.12892C19.6308 6.1235 19.2557 6.1737 18.876 6.25197L17.7979 4.81447C18.242 4.6104 18.6767 4.38668 19.1709 4.31252C19.2365 4.30268 19.3071 4.30106 19.3809 4.3047ZM16.4893 5.56838L17.4336 6.82814C16.953 7.12736 16.489 7.52066 16.084 8.07033C15.3287 9.09537 14.767 10.5685 14.5059 12.6572C14.2204 14.9406 12.7041 17.4394 10.7383 18.8037C8.79978 20.1491 6.58121 20.4904 4.31446 18.7354C5.79817 18.2505 7.34676 17.0282 8.72168 15.3574C10.3141 13.4223 11.2495 11.3698 11.2148 9.66408C11.9215 9.37393 12.6753 8.93209 13.4326 8.21388C14.5254 7.17742 15.5032 6.27818 16.4893 5.56838ZM9.69141 10.1035C9.5442 11.2093 8.82318 12.8735 7.56348 14.4043C6.12312 16.1546 4.37317 17.227 3.33301 17.4219C2.91287 16.482 2.72082 15.2463 3.02051 14.0928C3.48987 12.2861 4.97143 10.5934 8.67774 10.2334C8.97216 10.2049 9.31512 10.1689 9.69141 10.1035ZM6.23535 11.9932C6.04057 11.9989 5.85565 12.0801 5.71973 12.2197L4.21973 13.7197C4.14775 13.7889 4.09029 13.8716 4.0507 13.9632C4.01111 14.0548 3.9902 14.1534 3.98918 14.2532C3.98817 14.353 4.00707 14.4519 4.04479 14.5443C4.08251 14.6367 4.13828 14.7206 4.20884 14.7912C4.27939 14.8617 4.36332 14.9175 4.4557 14.9552C4.54809 14.9929 4.64706 15.0118 4.74684 15.0108C4.84662 15.0098 4.9452 14.9889 5.03679 14.9493C5.12839 14.9097 5.21117 14.8523 5.28028 14.7803L6.78028 13.2803C6.88848 13.1749 6.96234 13.0393 6.99221 12.8913C7.02208 12.7432 7.00655 12.5896 6.94767 12.4505C6.88879 12.3114 6.78929 12.1934 6.66219 12.1118C6.5351 12.0302 6.38633 11.9888 6.23535 11.9932Z" fill="black"/>
</svg>
