<svg width="24" height="24" viewBox="0 0 24 24" fill="none" xmlns="http://www.w3.org/2000/svg">
<path d="M13.8486 2.70215C13.5565 2.71046 13.2621 2.7337 12.9678 2.77051C10.6128 3.06495 8.19512 4.24426 6.21973 6.21973C4.24433 8.19519 3.06487 10.6137 2.77051 12.9687C2.47615 15.3238 3.08572 17.6463 4.71973 19.2803C6.35373 20.9142 8.67722 21.5239 11.0322 21.2295C13.3872 20.935 15.8049 19.7557 17.7803 17.7803C19.7557 15.8048 20.9351 13.3863 21.2295 11.0312C21.5239 8.67623 20.9143 6.35368 19.2803 4.71973C17.8505 3.29002 15.8933 2.64395 13.8486 2.70215ZM13.8906 4.2002C15.5867 4.14763 17.1124 4.67301 18.2197 5.78027C19.4852 7.04572 19.9897 8.85758 19.7412 10.8457C19.4927 12.8338 18.4722 14.9672 16.7197 16.7197C14.9672 18.4723 12.8348 19.4926 10.8467 19.7412C8.85857 19.9898 7.04577 19.4852 5.78027 18.2197C4.51478 16.9543 4.01029 15.1424 4.25879 13.1543C4.50729 11.1662 5.52779 9.03282 7.28027 7.28027C9.03276 5.52773 11.1652 4.50736 13.1533 4.25879C13.4018 4.22772 13.6483 4.20771 13.8906 4.2002ZM11.75 7C11.336 7 11 7.336 11 7.75C11 8.164 11.5 9.5 11.75 9.5C12 9.5 12.5 8.164 12.5 7.75C12.5 7.336 12.164 7 11.75 7ZM15.0527 7.06152C14.7617 7.03541 14.4695 7.18193 14.3232 7.45605C14.1282 7.82155 13.9406 9.23504 14.1611 9.35254C14.3821 9.47054 15.4525 8.52761 15.6475 8.16211C15.8425 7.79661 15.7034 7.34246 15.3379 7.14746C15.2465 7.09884 15.1497 7.07023 15.0527 7.06152ZM8.89649 8.64648C8.70448 8.64667 8.51271 8.71996 8.36621 8.86621C8.07321 9.15871 8.07321 9.63376 8.36621 9.92676C8.65921 10.2198 9.95679 10.8108 10.1338 10.6338C10.3108 10.4568 9.71976 9.15921 9.42676 8.86621C9.28026 8.71971 9.08849 8.6463 8.89649 8.64648ZM16.7275 9.8916C16.6777 9.89239 16.6267 9.89799 16.5762 9.90918C16.1717 9.99868 14.9763 10.7755 15.0303 11.0195C15.0843 11.2635 16.4959 11.4635 16.9004 11.374C17.3044 11.2845 17.5597 10.8845 17.4707 10.4795C17.3924 10.126 17.0764 9.88607 16.7275 9.8916ZM7.26953 11.4873C6.85553 11.4763 6.51198 11.8028 6.50098 12.2168C6.48998 12.6308 6.81647 12.9753 7.23047 12.9863C7.64447 12.9973 8.99252 12.5332 8.99902 12.2832C9.00552 12.0332 7.68353 11.4983 7.26953 11.4873ZM16.2061 12.6387C15.7926 12.6627 14.4884 13.2388 14.5029 13.4883C14.5174 13.7378 15.8795 14.1597 16.293 14.1357C16.7065 14.1117 17.022 13.7572 16.998 13.3437C16.974 12.9302 16.6196 12.6147 16.2061 12.6387ZM9.01953 14C8.64851 13.9986 7.62259 14.4829 7.36621 14.7393C7.07321 15.0323 7.07321 15.5073 7.36621 15.7998C7.65921 16.0933 8.13376 16.0928 8.42676 15.7998C8.71976 15.5068 9.31079 14.2092 9.13379 14.0322C9.11166 14.0101 9.07254 14.0002 9.01953 14ZM13.1611 14.3135C12.9406 14.431 13.1282 15.8454 13.3232 16.2109C13.5182 16.5764 13.9724 16.714 14.3379 16.5195C14.7034 16.3245 14.8425 15.8704 14.6475 15.5049C14.4525 15.1394 13.3821 14.1955 13.1611 14.3135ZM10.75 14.666C10.5 14.666 10 16.002 10 16.416C10 16.83 10.336 17.166 10.75 17.166C11.164 17.166 11.5 16.83 11.5 16.416C11.5 16.002 11 14.666 10.75 14.666Z" fill="black"/>
</svg>
