<svg width="24" height="24" viewBox="0 0 24 24" fill="none" xmlns="http://www.w3.org/2000/svg">
<path d="M16.7422 2.49121C16.6057 2.49158 16.4719 2.52918 16.3552 2.59996C16.2385 2.67074 16.1434 2.77201 16.08 2.89287C16.0166 3.01374 15.9874 3.14961 15.9955 3.28584C16.0036 3.42208 16.0487 3.55353 16.126 3.66602C16.126 3.66602 16.5135 4.25737 16.5635 5.10645C16.6134 5.95552 16.394 7.0114 14.8145 8.13965C14.7942 8.15397 14.7746 8.16929 14.7559 8.18555C14.7368 8.20187 14.7185 8.21915 14.7012 8.23731C14.5805 8.36289 14.5073 8.52654 14.4941 8.7002C14.4938 8.70247 14.4935 8.70475 14.4932 8.70703C14.4932 8.70736 14.4932 8.70768 14.4932 8.70801C14.4916 8.73272 14.4913 8.75749 14.4922 8.78223C14.4947 8.85744 14.5085 8.93184 14.5332 9.00293C14.5415 9.0265 14.5509 9.04964 14.5615 9.07227C14.5721 9.09498 14.5839 9.11714 14.5967 9.13867C14.6093 9.16018 14.623 9.18103 14.6377 9.20117C14.6527 9.2215 14.6686 9.24105 14.6856 9.25977C14.7022 9.27821 14.7198 9.29581 14.7383 9.3125C14.7753 9.34605 14.8155 9.37582 14.8584 9.40137C14.8799 9.41419 14.9021 9.42592 14.9248 9.43652C14.9474 9.44711 14.9706 9.45657 14.9941 9.46485C15.1092 9.50489 15.2323 9.5163 15.3528 9.4981C15.4732 9.47989 15.5875 9.43261 15.6856 9.36035C15.7058 9.34603 15.7254 9.33071 15.7441 9.31446C17.6176 7.67518 18.7845 7.67149 19.5264 7.90332C20.2682 8.13515 20.626 8.66602 20.626 8.66602C20.6799 8.74965 20.7498 8.82173 20.8319 8.87806C20.9139 8.93439 21.0063 8.97384 21.1037 8.99412C21.2011 9.0144 21.3015 9.01509 21.3992 8.99617C21.4969 8.97724 21.5898 8.93907 21.6726 8.88389C21.7554 8.8287 21.8264 8.75759 21.8814 8.67471C21.9364 8.59183 21.9744 8.49883 21.9932 8.40112C22.0119 8.30341 22.011 8.20295 21.9906 8.10558C21.9701 8.00822 21.9305 7.91589 21.874 7.83399C21.874 7.83399 21.2318 6.86485 19.9736 6.47168C19.743 6.39962 19.4736 6.37758 19.2061 6.35449L20.2803 5.28028C20.3523 5.21117 20.4097 5.12839 20.4493 5.03679C20.4889 4.9452 20.5098 4.84662 20.5108 4.74684C20.5118 4.64706 20.4929 4.54809 20.4552 4.4557C20.4175 4.36332 20.3617 4.27939 20.2912 4.20884C20.2206 4.13828 20.1367 4.08251 20.0443 4.04479C19.9519 4.00707 19.8529 3.98817 19.7532 3.98918C19.6534 3.9902 19.5548 4.01111 19.4632 4.0507C19.3716 4.09029 19.2888 4.14775 19.2197 4.21973L18.0352 5.4043C18.0395 5.27726 18.0686 5.13879 18.0615 5.01856C17.9865 3.74263 17.374 2.83399 17.374 2.83399C17.3058 2.72852 17.2122 2.64187 17.1018 2.58198C16.9915 2.52209 16.8678 2.49088 16.7422 2.49121ZM6.23829 4.98926C6.03955 4.99237 5.85016 5.07423 5.71174 5.21687C5.57331 5.35951 5.49716 5.55126 5.50001 5.75C5.50001 5.75 5.50857 5.86652 5.40431 6.23145C5.30004 6.59638 5.08332 7.14799 4.62599 7.83399C4.53815 7.9624 4.49242 8.11495 4.49513 8.27051C3.38172 9.55348 2.63148 11.1645 2.51661 12.9814C2.20158 17.9642 6.50467 22.0684 11.5361 21.4346C12.0802 21.366 12.5636 21.1529 13.0664 20.9834C13.2412 21.0254 13.4252 21.0032 13.585 20.9209C13.585 20.9209 14.375 20.5 16.25 20.5C16.4449 20.4983 16.6314 20.4209 16.7702 20.2841C16.909 20.1473 16.989 19.9619 16.9935 19.767C16.9979 19.5722 16.9264 19.3833 16.794 19.2404C16.6616 19.0974 16.4788 19.0115 16.2842 19.001C17.3722 17.8561 18.1522 16.41 18.4043 14.751C18.5304 13.922 18.5292 13.1085 18.415 12.3301C18.4147 12.3298 18.4144 12.3294 18.4141 12.3291C18.3926 12.1833 18.3682 12.0383 18.3389 11.8945C18.3385 11.8945 18.3382 11.8945 18.3379 11.8945C18.233 11.3801 18.3905 10.8339 18.7549 10.4268C18.8215 10.3535 18.873 10.2678 18.9063 10.1745C18.9397 10.0813 18.9542 9.98233 18.9491 9.88343C18.944 9.78453 18.9194 9.68762 18.8766 9.59828C18.8339 9.50895 18.7739 9.42897 18.7 9.36295C18.6262 9.29694 18.5401 9.24619 18.4465 9.21364C18.353 9.1811 18.2539 9.1674 18.1551 9.17333C18.0562 9.17926 17.9595 9.20471 17.8706 9.24821C17.7816 9.2917 17.7021 9.35239 17.6367 9.42676C16.9701 10.1716 16.6641 11.1938 16.8682 12.1943C16.8919 12.3106 16.9131 12.4287 16.9307 12.5479C17.0233 13.1801 17.0257 13.8428 16.9219 14.5254C16.4822 17.4194 14.255 19.5801 11.3486 19.9463C7.21111 20.4675 3.75571 17.1565 4.01368 13.0762C4.21658 9.86679 6.59944 7.37145 9.79591 7.03711C10.6697 6.94599 11.5065 7.02642 12.2842 7.24805C13.4257 7.57343 14.6241 7.20017 15.4356 6.38867C15.5075 6.31956 15.565 6.23679 15.6046 6.14519C15.6442 6.0536 15.6651 5.95502 15.6661 5.85524C15.6671 5.75546 15.6482 5.65648 15.6105 5.5641C15.5728 5.47172 15.517 5.38779 15.4464 5.31723C15.3759 5.24668 15.292 5.19091 15.1996 5.15319C15.1072 5.11547 15.0082 5.09657 14.9084 5.09758C14.8087 5.0986 14.7101 5.11951 14.6185 5.1591C14.5269 5.19868 14.4441 5.25615 14.375 5.32813C13.9235 5.77963 13.2728 5.97028 12.6953 5.80567C11.736 5.53229 10.7038 5.43405 9.64063 5.54492C9.64031 5.54492 9.63998 5.54492 9.63966 5.54492C8.65661 5.64775 7.73455 5.92665 6.89747 6.34375C6.94263 6.08048 7.00001 5.75 7.00001 5.75C7.00145 5.64962 6.98272 5.54997 6.94494 5.45696C6.90716 5.36394 6.85109 5.27946 6.78005 5.20852C6.70902 5.13758 6.62447 5.08162 6.53141 5.04395C6.43834 5.00629 6.33867 4.98769 6.23829 4.98926ZM7.76661 8.49707C7.58517 8.49026 7.40742 8.54948 7.26634 8.66376C7.12525 8.77804 7.03041 8.93962 6.9994 9.11852C6.96839 9.29741 7.00332 9.48148 7.09772 9.63658C7.19211 9.79168 7.33956 9.90727 7.5127 9.96192L8.32911 10.2334C8.43362 10.2682 8.50001 10.3611 8.50001 10.4707V11.25C8.4986 11.3494 8.51696 11.4481 8.55402 11.5403C8.59108 11.6325 8.64611 11.7165 8.71589 11.7872C8.78567 11.858 8.86883 11.9142 8.96052 11.9526C9.05221 11.9909 9.15061 12.0107 9.25001 12.0107C9.3494 12.0107 9.44781 11.9909 9.5395 11.9526C9.63119 11.9142 9.71434 11.858 9.78413 11.7872C9.85391 11.7165 9.90893 11.6325 9.94599 11.5403C9.98305 11.4481 10.0014 11.3494 10 11.25V10.4707C10 9.72036 9.51524 9.04776 8.80274 8.81055L7.98731 8.53809C7.91622 8.51342 7.84182 8.4996 7.76661 8.49707ZM13.8057 12.2266C13.5305 12.2385 13.2579 12.315 13.0127 12.4551L12.3535 12.832C12.2648 12.8792 12.1865 12.9436 12.1232 13.0216C12.0599 13.0996 12.0129 13.1895 11.985 13.286C11.9571 13.3825 11.9489 13.4836 11.9608 13.5834C11.9727 13.6831 12.0045 13.7794 12.0544 13.8666C12.1042 13.9538 12.1711 14.0301 12.251 14.091C12.3309 14.1519 12.4222 14.1961 12.5195 14.221C12.6168 14.2459 12.7181 14.251 12.8174 14.2361C12.9167 14.2211 13.012 14.1863 13.0977 14.1338L13.7568 13.7578C13.8284 13.7169 13.911 13.7131 13.9844 13.7471C13.9847 13.7474 13.985 13.7477 13.9854 13.748L14.96 14.1982C15.0498 14.2428 15.1476 14.2689 15.2477 14.275C15.3477 14.281 15.448 14.267 15.5425 14.2337C15.6371 14.2004 15.724 14.1484 15.7981 14.081C15.8722 14.0135 15.9321 13.9318 15.9741 13.8408C16.0162 13.7498 16.0395 13.6513 16.0429 13.5511C16.0462 13.4509 16.0294 13.3511 15.9935 13.2575C15.9576 13.1639 15.9033 13.0785 15.8338 13.0063C15.7643 12.934 15.681 12.8764 15.5889 12.8369L14.6152 12.3867C14.3584 12.2677 14.0809 12.2146 13.8057 12.2266ZM5.76661 12.9971C5.58517 12.9903 5.40743 13.0495 5.26634 13.1638C5.12525 13.278 5.03041 13.4396 4.9994 13.6185C4.96839 13.7974 5.00332 13.9815 5.09772 14.1366C5.19211 14.2917 5.33956 14.4073 5.5127 14.4619L5.98731 14.6191C6.29589 14.7219 6.50001 15.0055 6.50001 15.3311V15.75C6.4986 15.8494 6.51696 15.9481 6.55402 16.0403C6.59108 16.1325 6.6461 16.2164 6.71589 16.2872C6.78567 16.358 6.86883 16.4142 6.96052 16.4526C7.05221 16.4909 7.15061 16.5107 7.25001 16.5107C7.3494 16.5107 7.4478 16.4909 7.5395 16.4526C7.63119 16.4142 7.71434 16.358 7.78413 16.2872C7.85391 16.2164 7.90893 16.1325 7.94599 16.0403C7.98305 15.9481 8.00141 15.8494 8.00001 15.75V15.3311C8.00001 14.3656 7.37835 13.5015 6.46192 13.1963L5.98731 13.0381C5.91622 13.0134 5.84182 12.9996 5.76661 12.9971ZM12.084 16.2842C11.5497 16.2939 11.0291 16.494 10.6231 16.8574L10.25 17.1914C10.173 17.256 10.1097 17.3354 10.064 17.425C10.0183 17.5145 9.99099 17.6123 9.98382 17.7126C9.97664 17.8129 9.9897 17.9136 10.0222 18.0087C10.0547 18.1039 10.106 18.1915 10.1731 18.2664C10.2402 18.3413 10.3216 18.402 10.4125 18.4448C10.5035 18.4876 10.6022 18.5117 10.7026 18.5156C10.8031 18.5196 10.9033 18.5033 10.9973 18.4677C11.0914 18.4321 11.1773 18.378 11.25 18.3086L11.6231 17.9746C11.6234 17.9746 11.6237 17.9746 11.624 17.9746C11.8056 17.8121 12.0517 17.7481 12.2891 17.8018L13.085 17.9814C13.182 18.0059 13.283 18.0108 13.382 17.9956C13.4809 17.9805 13.5758 17.9457 13.6611 17.8933C13.7464 17.8409 13.8204 17.772 13.8786 17.6906C13.9369 17.6092 13.9782 17.5169 14.0003 17.4193C14.0223 17.3216 14.0245 17.2206 14.0069 17.122C13.9893 17.0235 13.9521 16.9295 13.8976 16.8455C13.843 16.7616 13.7722 16.6894 13.6894 16.6333C13.6065 16.5771 13.5132 16.5381 13.415 16.5186L12.6191 16.3389C12.4417 16.2988 12.2621 16.2809 12.084 16.2842Z" fill="black"/>
</svg>
