<svg width="24" height="24" viewBox="0 0 24 24" fill="none" xmlns="http://www.w3.org/2000/svg">
<path d="M6.25 0C4.18775 0 2.5 1.68775 2.5 3.75C2.5 5.64229 3.92253 7.21484 5.75 7.46191L6.77637 19.4424C6.87552 20.5994 7.85701 21.5 9.01855 21.5H14.9814C16.143 21.5 17.1245 20.5994 17.2236 19.4424L18.5127 4.39941C18.5992 3.38909 17.7825 2.5 16.7686 2.5H9.78516C9.26856 1.04331 7.87531 0 6.25 0ZM6.25 1.5C7.03379 1.5 7.71115 1.89982 8.11328 2.5H7.23144C6.21754 2.5 5.4008 3.38909 5.4873 4.39941L5.61621 5.90039C4.67979 5.62832 4 4.77968 4 3.75C4 2.49825 4.99825 1.5 6.25 1.5ZM7.23144 4H9.1582C9.19169 4.00225 9.2253 4.00225 9.25879 4H16.7686C16.9267 4 17.0321 4.11381 17.0186 4.27148L16.7842 7H7.21582L6.98144 4.27148C6.96795 4.11381 7.07335 4 7.23144 4ZM7.34375 8.5H16.6562L15.7285 19.3135C15.6947 19.7084 15.3779 20 14.9814 20H9.01855C8.6221 20 8.30533 19.7084 8.27148 19.3135L7.34375 8.5Z" fill="black"/>
</svg>
