<svg width="24" height="24" viewBox="0 0 24 24" fill="none" xmlns="http://www.w3.org/2000/svg">
<path d="M10.6318 1.86135C8.21338 1.87435 5.76382 2.83576 3.88472 4.71486C0.814899 7.78468 0.224161 12.3656 2.18745 15.8565C1.5438 16.7851 1.60173 18.0657 2.42769 18.8916C3.26228 19.7262 4.56086 19.7782 5.49117 19.1133C6.80679 19.8488 8.25721 20.2774 9.74312 20.2881C9.84233 20.2899 9.94092 20.272 10.0332 20.2354C11.3945 21.3074 13.1065 21.9531 14.9687 21.9531C19.378 21.9531 22.9687 18.3625 22.9687 13.9531C22.9687 13.8095 22.9572 13.7191 22.956 13.6807C22.9501 13.4857 22.8686 13.3007 22.7285 13.1648C22.5885 13.029 22.4011 12.9531 22.206 12.9531H19.1542C19.7227 10.705 19.429 8.32689 18.2939 6.30373C18.9465 5.37437 18.8909 4.08627 18.0615 3.25686C17.2351 2.43109 15.9547 2.3732 15.0263 3.01662C13.8149 2.33522 12.4825 1.93554 11.1152 1.87111C10.9544 1.86354 10.793 1.86048 10.6318 1.86135ZM10.3925 3.36525C11.9057 3.3096 13.407 3.69657 14.6845 4.52443C14.8285 4.61767 15.0001 4.65874 15.1707 4.64079C15.3413 4.62285 15.5006 4.54697 15.622 4.4258L15.7451 4.30275C16.0894 3.95839 16.64 3.95778 17.0009 4.31838C17.3615 4.67966 17.3608 5.22828 17.0156 5.57326L16.8935 5.69631C16.772 5.81768 16.6957 5.9771 16.6776 6.14792C16.6595 6.31874 16.7005 6.4906 16.7939 6.63479C17.9871 8.47641 18.264 10.7804 17.6201 12.919C17.6165 12.9303 17.6133 12.9417 17.6103 12.9531H7.7314C7.53715 12.9533 7.35053 13.0288 7.21082 13.1638C7.07112 13.2987 6.98922 13.4826 6.98238 13.6768C6.98078 13.7211 6.9687 13.8124 6.9687 13.9531C6.9687 15.7205 7.55207 17.351 8.5273 18.6768C7.56413 18.5125 6.63807 18.1644 5.80562 17.625C5.66154 17.5315 5.48974 17.4903 5.31893 17.5083C5.14811 17.5262 4.98863 17.6022 4.86714 17.7237L4.74507 17.8457C4.39996 18.1906 3.85034 18.1922 3.48921 17.8311C3.12794 17.4698 3.12811 16.9204 3.47359 16.5752L3.59663 16.4522C3.7178 16.3307 3.79368 16.1714 3.81163 16.0008C3.82957 15.8303 3.78851 15.6587 3.69527 15.5147C1.80292 12.5941 2.21627 8.50538 4.94624 5.77541C6.48187 4.23979 8.44704 3.43681 10.3925 3.36525ZM8.51851 14.4531H13.2343L9.52632 17.4639C8.9643 16.5826 8.60353 15.5585 8.51851 14.4531ZM16.6855 14.4531H21.4189C21.3327 15.5742 20.9625 16.6115 20.3867 17.501L16.6855 14.4531ZM14.2187 15.586V20.4063C12.7639 20.2392 11.4649 19.5932 10.4726 18.6279L14.2187 15.586ZM15.7187 15.5996L19.4345 18.6592C18.4462 19.6077 17.1583 20.2409 15.7187 20.4063V15.5996Z" fill="black"/>
</svg>
