<svg width="24" height="24" viewBox="0 0 24 24" fill="none" xmlns="http://www.w3.org/2000/svg">
<path d="M13.9463 0.0537162C13.803 0.0480497 13.6609 0.0836369 13.5372 0.156255C12.7112 0.624877 12.0341 1.32128 11.588 2.16114C11.5382 2.25484 11.5089 2.35802 11.502 2.46387C11.3086 2.47102 11.1135 2.48475 10.9171 2.50879C7.83673 2.88642 5.39189 5.41121 5.09479 8.49805C4.96585 9.84182 5.24116 11.1212 5.80963 12.2188C6.15984 12.8946 6.45235 13.56 6.60358 14.2344C6.76699 14.9631 6.86694 15.709 6.90631 16.458C6.92201 16.7644 6.92859 17.07 6.92389 17.3731V17.374C6.89256 19.6088 8.72758 21.5238 11.0557 21.542H11.0587H11.1006C13.2956 21.542 15.2525 20.3126 16.6153 18.4404C17.9781 16.5683 18.7911 14.0383 18.7911 11.2578C18.7911 9.87488 18.5736 8.56736 18.2071 7.36915C18.1713 7.23871 18.1281 7.08737 18.0655 6.92286C17.2893 4.72841 15.3959 3.06477 13.0811 2.59571C13.3858 2.12989 13.7924 1.73612 14.2774 1.46094C14.4212 1.3821 14.5352 1.25829 14.602 1.10848C14.6687 0.958663 14.6845 0.791097 14.647 0.631442C14.6094 0.471787 14.5206 0.328843 14.394 0.2245C14.2675 0.120157 14.1102 0.0601672 13.9463 0.0537162ZM11.5753 3.95997C13.9318 3.87788 15.9217 5.35272 16.6534 7.42481L16.6573 7.43653L16.6612 7.44727C16.6944 7.53245 16.7276 7.64454 16.7637 7.77637L16.7667 7.78809L16.7696 7.79883C17.0972 8.86679 17.2911 10.0288 17.2911 11.2578C17.2911 13.7433 16.5516 15.979 15.4024 17.5576C14.2532 19.1362 12.7387 20.042 11.1006 20.042H11.0674C9.55194 20.0302 8.40477 18.7993 8.42389 17.3965V17.3955C8.42915 17.0552 8.42159 16.7159 8.40436 16.3799V16.3789C8.3607 15.549 8.25003 14.7205 8.06744 13.9063C7.87267 13.0377 7.51845 12.2564 7.14166 11.5293C6.70013 10.6768 6.48689 9.69484 6.58795 8.64161C6.81685 6.26345 8.73099 4.28746 11.0997 3.99708C11.2598 3.97748 11.4182 3.96544 11.5753 3.95997Z" fill="black"/>
</svg>
