<svg width="24" height="24" viewBox="0 0 24 24" fill="none" xmlns="http://www.w3.org/2000/svg">
<path d="M13.9463 0.0537162C13.8029 0.0480497 13.6609 0.0836369 13.5371 0.156255C12.7111 0.624877 12.034 1.32128 11.5879 2.16114C11.5382 2.25484 11.5089 2.35802 11.502 2.46387C11.3085 2.47102 11.1134 2.48475 10.917 2.50879C7.83667 2.88642 5.39183 5.41121 5.09473 8.49805C4.96579 9.84182 5.2411 11.1212 5.80957 12.2188C6.15978 12.8946 6.45229 13.56 6.60352 14.2344C6.76693 14.9631 6.86688 15.709 6.90625 16.458C6.92195 16.7644 6.92853 17.07 6.92383 17.3731V17.374C6.8925 19.6088 8.72752 21.5238 11.0557 21.542H11.0586H11.1006C13.2955 21.542 15.2524 20.3126 16.6152 18.4404C17.9781 16.5683 18.791 14.0383 18.791 11.2578C18.791 9.87488 18.5735 8.56736 18.207 7.36915C18.1713 7.23871 18.1281 7.08737 18.0654 6.92286C17.2892 4.72841 15.3959 3.06477 13.0811 2.59571C13.3857 2.12989 13.7923 1.73612 14.2773 1.46094C14.4212 1.3821 14.5352 1.25829 14.6019 1.10848C14.6687 0.958663 14.6845 0.791097 14.6469 0.631442C14.6094 0.471787 14.5205 0.328843 14.394 0.2245C14.2674 0.120157 14.1102 0.0601672 13.9463 0.0537162ZM11.5752 3.95997C13.9317 3.87788 15.9217 5.35272 16.6533 7.42481L16.6572 7.43653L16.6611 7.44727C16.6943 7.53245 16.7275 7.64454 16.7637 7.77637L16.7666 7.78809L16.7695 7.79883C17.0971 8.86679 17.291 10.0288 17.291 11.2578C17.291 13.7433 16.5515 15.979 15.4023 17.5576C14.2532 19.1362 12.7387 20.042 11.1006 20.042H11.0674C9.55188 20.0302 8.40471 18.7993 8.42383 17.3965V17.3955C8.42909 17.0552 8.42153 16.7159 8.4043 16.3799V16.3789C8.36064 15.549 8.24996 14.7205 8.06738 13.9063C7.87261 13.0377 7.51839 12.2564 7.1416 11.5293C6.70007 10.6768 6.48683 9.69484 6.58789 8.64161C6.81679 6.26345 8.73093 4.28746 11.0996 3.99708C11.2597 3.97748 11.4181 3.96544 11.5752 3.95997Z" fill="black"/>
</svg>
