<svg width="24" height="24" viewBox="0 0 24 24" fill="none" xmlns="http://www.w3.org/2000/svg">
<path fill-rule="evenodd" clip-rule="evenodd" d="M16.7561 1.86307L11.7563 0.43411C11.2621 0.292797 10.7379 0.292797 10.2437 0.43411L5.24375 1.86311C4.66952 2.02736 4.16437 2.37408 3.80467 2.85087C3.44497 3.32767 3.25027 3.90893 3.25 4.50619V4.78687C1.60465 5.01792 0.25 6.31136 0.25 8C0.25 9.68864 1.60465 10.9821 3.25 11.2131V11.4882C3.24998 12.0857 3.44454 12.6669 3.80425 13.144C4.16398 13.621 4.66945 13.968 5.2439 14.1323L8.9939 15.2041C9.39217 15.3179 9.8073 15.0873 9.92113 14.689C10.035 14.2908 9.80437 13.8756 9.4061 13.7618L5.65625 12.6901C5.39513 12.6154 5.16544 12.4577 5.00193 12.2409C4.83842 12.024 4.74998 11.7598 4.75 11.4882V4.50619C4.75019 4.23483 4.83869 3.9709 5.00212 3.75426C5.16559 3.53758 5.3953 3.37995 5.65625 3.30528L10.6562 1.87628C10.8809 1.81202 11.1192 1.81206 11.3439 1.87632L16.3438 3.30528C16.6049 3.37996 16.8346 3.53766 16.9981 3.75451C17.1616 3.97136 17.25 4.23561 17.25 4.50719V11.4882C17.25 11.9024 17.5858 12.2382 18 12.2382C18.4142 12.2382 18.75 11.9024 18.75 11.4882V11.2131C20.3945 10.982 21.75 9.68869 21.75 8C21.75 6.31131 20.3945 5.01804 18.75 4.78691V4.50719C18.75 3.90971 18.5555 3.32848 18.1957 2.85142C17.836 2.37435 17.3306 2.02738 16.7561 1.86307ZM18.75 9.69136C19.6559 9.48368 20.25 8.75501 20.25 8C20.25 7.24499 19.6559 6.51633 18.75 6.30864V9.69136ZM3.25 6.30857C2.34366 6.51614 1.75 7.24477 1.75 8C1.75 8.75523 2.34366 9.48386 3.25 9.69143V6.30857Z" fill="black"/>
<path d="M8 5.25C7.58579 5.25 7.25 5.58579 7.25 6C7.25 6.41421 7.58579 6.75 8 6.75H14C14.4142 6.75 14.75 6.41421 14.75 6C14.75 5.58579 14.4142 5.25 14 5.25H8Z" fill="black"/>
<path d="M7.25 10C7.25 9.58579 7.58579 9.25 8 9.25H14C14.4142 9.25 14.75 9.58579 14.75 10C14.75 10.4142 14.4142 10.75 14 10.75H8C7.58579 10.75 7.25 10.4142 7.25 10Z" fill="black"/>
<path fill-rule="evenodd" clip-rule="evenodd" d="M12.3483 14.3483C13.0516 13.6451 14.0054 13.25 15 13.25C15.9946 13.25 16.9484 13.6451 17.6517 14.3483C18.3549 15.0516 18.75 16.0054 18.75 17C18.75 17.9946 18.3549 18.9484 17.6517 19.6517C16.9484 20.3549 15.9946 20.75 15 20.75C14.0054 20.75 13.0516 20.3549 12.3483 19.6517C11.6451 18.9484 11.25 17.9946 11.25 17C11.25 16.0054 11.6451 15.0516 12.3483 14.3483ZM15 14.75C14.4033 14.75 13.831 14.9871 13.409 15.409C12.9871 15.831 12.75 16.4033 12.75 17C12.75 17.3388 12.8264 17.6697 12.9697 17.9697L15.9697 14.9697C15.6697 14.8264 15.3388 14.75 15 14.75ZM17.0303 16.0303L14.0303 19.0303C14.3303 19.1736 14.6612 19.25 15 19.25C15.5967 19.25 16.169 19.0129 16.591 18.591C17.0129 18.169 17.25 17.5967 17.25 17C17.25 16.6612 17.1736 16.3303 17.0303 16.0303Z" fill="black"/>
</svg>
