<svg width="24" height="24" viewBox="0 0 24 24" fill="none" xmlns="http://www.w3.org/2000/svg">
<path fill-rule="evenodd" clip-rule="evenodd" d="M12.7563 2.43413L17.7561 3.86309C18.3306 4.0274 18.836 4.37438 19.1957 4.85145C19.5555 5.3285 19.75 5.90974 19.75 6.50722V6.78691C21.3945 7.01804 22.75 8.31131 22.75 10C22.75 11.6887 21.3945 12.982 19.75 13.2131V13.4882C19.75 14.0045 19.6048 14.5086 19.3332 14.9439C18.398 14.1753 17.2209 13.75 16 13.75C14.6076 13.75 13.2723 14.3031 12.2877 15.2877C11.6696 15.9058 11.2215 16.6622 10.9736 17.4841L6.24375 16.1323C5.66929 15.968 5.16398 15.6211 4.80425 15.144C4.44454 14.6669 4.24998 14.0857 4.25 13.4882V13.2131C2.60465 12.9821 1.25 11.6886 1.25 10C1.25 8.31136 2.60465 7.01792 4.25 6.78687V6.50588C4.25027 5.90862 4.44497 5.32769 4.80467 4.8509C5.16437 4.3741 5.66967 4.02733 6.2439 3.86309L11.2439 2.43409C11.7381 2.29277 12.2621 2.29282 12.7563 2.43413ZM21.25 10C21.25 9.24499 20.6559 8.51633 19.75 8.30864V11.6914C20.6559 11.4837 21.25 10.755 21.25 10ZM4.25 8.30857V11.6914C3.34366 11.4839 2.75 10.7552 2.75 10C2.75 9.24477 3.34366 8.51614 4.25 8.30857ZM8.25 8C8.25 7.58579 8.58579 7.25 9 7.25H15C15.4142 7.25 15.75 7.58579 15.75 8C15.75 8.41421 15.4142 8.75 15 8.75H9C8.58579 8.75 8.25 8.41421 8.25 8ZM9 11.25C8.58579 11.25 8.25 11.5858 8.25 12C8.25 12.4142 8.58579 12.75 9 12.75H15C15.4142 12.75 15.75 12.4142 15.75 12C15.75 11.5858 15.4142 11.25 15 11.25H9Z" fill="black"/>
<path fill-rule="evenodd" clip-rule="evenodd" d="M13.3483 16.3483C14.0516 15.6451 15.0054 15.25 16 15.25C16.9946 15.25 17.9484 15.6451 18.6517 16.3483C19.3549 17.0516 19.75 18.0054 19.75 19C19.75 19.9946 19.3549 20.9484 18.6517 21.6517C17.9484 22.3549 16.9946 22.75 16 22.75C15.0054 22.75 14.0516 22.3549 13.3483 21.6517C12.6451 20.9484 12.25 19.9946 12.25 19C12.25 18.0054 12.6451 17.0516 13.3483 16.3483ZM16 16.75C15.4033 16.75 14.831 16.9871 14.409 17.409C13.9871 17.831 13.75 18.4033 13.75 19C13.75 19.3388 13.8264 19.6697 13.9697 19.9697L16.9697 16.9697C16.6697 16.8264 16.3388 16.75 16 16.75ZM16 21.25C15.6612 21.25 15.3303 21.1736 15.0303 21.0303L18.0303 18.0303C18.1736 18.3303 18.25 18.6612 18.25 19C18.25 19.5967 18.0129 20.169 17.591 20.591C17.169 21.0129 16.5967 21.25 16 21.25Z" fill="black"/>
</svg>
