<svg width="24" height="24" viewBox="0 0 24 24" fill="none" xmlns="http://www.w3.org/2000/svg">
<path d="M5.29785 16.5957C5.29806 16.9852 5.61438 17.3015 6.00391 17.3018C6.05069 17.3018 6.0964 17.2958 6.14062 17.2871C6.41919 17.2325 6.63847 17.0151 6.69531 16.7373L6.70996 16.5957V14.1641H9.1416C9.18129 14.1641 9.22052 14.1677 9.25879 14.1729C9.27681 14.1753 9.29485 14.1771 9.3125 14.1807C9.32875 14.1839 9.34444 14.1892 9.36035 14.1934C9.36977 14.1958 9.37939 14.1974 9.38867 14.2002C9.43693 14.2146 9.48304 14.2337 9.52734 14.2559C9.53086 14.2576 9.5346 14.2589 9.53809 14.2607C9.5794 14.2821 9.61821 14.3074 9.65527 14.335C9.66014 14.3386 9.66514 14.342 9.66992 14.3457C9.70607 14.3738 9.74025 14.4041 9.77148 14.4375C9.77653 14.4429 9.78123 14.4486 9.78613 14.4541C9.81703 14.4888 9.8451 14.526 9.87012 14.5654C9.87254 14.5692 9.87459 14.5733 9.87695 14.5771C9.90183 14.6178 9.92343 14.6604 9.94141 14.7051C9.9431 14.7093 9.94466 14.7135 9.94629 14.7178C9.98311 14.8137 10.0039 14.9175 10.0039 15.0264V21.3018C10.0039 21.433 9.97334 21.5566 9.9209 21.668C9.91879 21.6725 9.91723 21.6772 9.91504 21.6816C9.85281 21.808 9.76047 21.9159 9.64746 21.998C9.64351 22.0009 9.63975 22.004 9.63574 22.0068C9.60134 22.031 9.56519 22.0523 9.52734 22.0713C9.51992 22.075 9.51243 22.0785 9.50488 22.082C9.46525 22.1005 9.42447 22.1166 9.38184 22.1289C9.37767 22.1301 9.37334 22.1307 9.36914 22.1318C9.32412 22.1441 9.27811 22.1543 9.23047 22.1592L9.1416 22.1641H2.86719C2.39074 22.1641 2.00401 21.7782 2.00391 21.3018V15.0264C2.00401 14.5499 2.39074 14.1641 2.86719 14.1641H5.29785V16.5957ZM16.2002 1.83594C15.3865 2.15085 14.6748 2.67192 14.1309 3.33594H6.46094C6.32331 3.33645 6.21094 3.44819 6.21094 3.58594V4.50195H13.418C13.1501 5.11429 13 5.78977 13 6.5C13 9.25779 15.2422 11.4999 18 11.5C18.7532 11.5 19.4673 11.3306 20.1084 11.0312C20.197 13.6196 19.9318 16.2174 19.3096 18.751L19.291 18.8252V20.4141C19.291 21.3806 18.5075 22.1641 17.541 22.1641H10.791C10.9262 21.9061 11.0039 21.6133 11.0039 21.3018V20.6641H17.541C17.6791 20.6641 17.791 20.5521 17.791 20.4141V19.498H11.0039V15.0264C11.0039 14.9969 11.0004 14.9677 10.999 14.9385C11.111 15.0335 11.2546 15.0858 11.415 15.0859C11.707 15.0859 12.0623 14.9258 12.3643 14.625C12.843 14.1461 12.967 13.5434 12.6562 13.2324C12.3372 12.9138 11.7425 13.0375 11.2637 13.5254L11.2549 13.5166C11.0298 13.7419 10.8832 13.9948 10.8232 14.2314C10.5248 13.6013 9.88532 13.1641 9.1416 13.1641H3.89941C3.78876 10.4795 4.05737 7.78331 4.71094 5.1582V3.58594C4.71094 2.61976 5.49488 1.83646 6.46094 1.83594H16.2002ZM14.4414 12.5674C13.9758 12.0211 13.3692 11.8147 13.0449 12.0908C12.7211 12.3671 12.8279 12.9987 13.293 13.5449C13.7584 14.0912 14.3651 14.2972 14.6895 14.0215C15.0198 13.7401 14.9069 13.1139 14.4414 12.5674ZM10.0039 11.5029C9.28642 11.5031 8.73662 11.8311 8.73633 12.2568C8.73633 12.6827 9.28623 13.0105 10.0039 13.0107C10.7219 13.0107 11.2725 12.6828 11.2725 12.2568C11.2722 11.823 10.7217 11.5029 10.0039 11.5029ZM13.9688 9.57617C13.6137 9.2216 12.9304 9.54025 12.4346 10.0371C11.9378 10.534 11.6271 11.2173 11.9727 11.5713H11.9814C12.0882 11.6781 12.2216 11.7225 12.3633 11.7227C12.7172 11.7227 13.1618 11.4652 13.5078 11.1104C14.0038 10.6134 14.3147 9.93117 13.9688 9.57617ZM11.4404 8.99219C11.0148 8.82353 10.7845 8.96552 10.6865 9.06348C10.3325 9.4175 10.652 10.1 11.1475 10.5967C11.2803 10.7296 11.414 10.8359 11.5469 10.9248C11.5829 10.774 11.6447 10.6225 11.7246 10.4727C11.7599 10.4102 11.9196 10.1535 12.0254 10.0205C12.0873 9.94962 12.151 9.87834 12.2129 9.81641C12.2568 9.77251 12.3094 9.71862 12.3623 9.68262C12.3185 9.62993 12.2655 9.57711 12.2207 9.52441C11.9728 9.27555 11.6971 9.08915 11.4492 8.99219H11.4404ZM18 2.5C18.0783 2.5 18.1562 2.50237 18.2334 2.50684C18.2612 2.50842 18.2888 2.51055 18.3164 2.5127C18.3662 2.51661 18.4156 2.52162 18.4648 2.52734C18.4942 2.53073 18.5235 2.53406 18.5527 2.53809C18.5713 2.54067 18.5899 2.54306 18.6084 2.5459L18.7607 2.57227L18.8047 2.58105C20.626 2.95448 22 4.56993 22 6.5C22 8.325 20.7711 9.86736 19.0977 10.3457C19.086 10.3491 19.0742 10.3522 19.0625 10.3555C18.9003 10.4002 18.7341 10.4349 18.5645 10.459C18.5511 10.4609 18.5378 10.4621 18.5244 10.4639C18.452 10.4734 18.3792 10.4817 18.3057 10.4873C18.2904 10.4885 18.2751 10.4892 18.2598 10.4902C18.1738 10.4958 18.0873 10.5 18 10.5C15.7944 10.5 14 8.7056 14 6.5C14 6.32191 14.0125 6.14661 14.0352 5.97461C14.0363 5.96616 14.0369 5.95765 14.0381 5.94922C14.2455 4.44944 15.2875 3.21291 16.6787 2.72461C16.6852 2.72232 16.6917 2.72003 16.6982 2.71777C16.8925 2.65073 17.0934 2.59812 17.2998 2.56152C17.3144 2.55892 17.3291 2.55615 17.3438 2.55371C17.4428 2.53729 17.5432 2.52459 17.6445 2.51562C17.6559 2.51462 17.6673 2.51458 17.6787 2.51367C17.7847 2.5052 17.8918 2.5 18 2.5ZM18 4.5C17.9381 4.5 17.8807 4.51875 17.833 4.55078C17.801 4.57229 17.7736 4.59993 17.752 4.63184C17.7194 4.67978 17.7002 4.73744 17.7002 4.7998V6.2002H16.2998C16.1651 6.20028 16.0515 6.28888 16.0137 6.41113C16.005 6.43922 16 6.46905 16 6.5C16 6.56234 16.0193 6.62002 16.0518 6.66797C16.0948 6.73148 16.1614 6.77793 16.2393 6.79395C16.2588 6.79796 16.2791 6.79979 16.2998 6.7998H17.7002V8.2002C17.7002 8.241 17.7079 8.27999 17.7227 8.31543C17.7332 8.34068 17.748 8.36357 17.7646 8.38477C17.8196 8.45463 17.9042 8.5 18 8.5C18.1657 8.5 18.2997 8.36591 18.2998 8.2002V6.7998H19.7002C19.8659 6.7997 20 6.66573 20 6.5C20 6.33427 19.8659 6.2003 19.7002 6.2002H18.2998V4.7998C18.2997 4.63409 18.1657 4.5 18 4.5Z" fill="black"/>
</svg>
