<svg width="24" height="24" viewBox="0 0 24 24" fill="none" xmlns="http://www.w3.org/2000/svg">
<path d="M5.29785 16.5957C5.29806 16.9852 5.61438 17.3015 6.00391 17.3018C6.39365 17.3018 6.71073 16.9854 6.71094 16.5957V14.1641H9.1416C9.61805 14.1641 10.0038 14.5499 10.0039 15.0264V21.3018C10.0039 21.433 9.97334 21.5566 9.9209 21.668C9.91879 21.6725 9.91723 21.6772 9.91504 21.6816C9.85281 21.808 9.76047 21.9159 9.64746 21.998C9.64351 22.0009 9.63975 22.004 9.63574 22.0068C9.60134 22.031 9.56519 22.0523 9.52734 22.0713C9.51992 22.075 9.51243 22.0785 9.50488 22.082C9.46525 22.1005 9.42447 22.1166 9.38184 22.1289C9.37767 22.1301 9.37334 22.1307 9.36914 22.1318C9.32412 22.1441 9.27811 22.1543 9.23047 22.1592L9.1416 22.1641H2.86719C2.39074 22.1641 2.00401 21.7782 2.00391 21.3018V15.0264C2.00401 14.5499 2.39074 14.1641 2.86719 14.1641H5.29785V16.5957ZM20.1084 11.0312C20.197 13.6196 19.9318 16.2174 19.3096 18.751L19.291 18.8252V20.4141C19.291 21.3806 18.5075 22.1641 17.541 22.1641H10.791C10.9262 21.9061 11.0039 21.6133 11.0039 21.3018V20.6641H17.541C17.6791 20.6641 17.791 20.5521 17.791 20.4141V19.498H11.0039V17.998H17.9463C18.44 15.8476 18.6631 13.6516 18.6191 11.46C19.1453 11.3947 19.6458 11.2473 20.1084 11.0312ZM11.2637 13.5254C11.7425 13.0375 12.3372 12.9138 12.6562 13.2324C12.967 13.5434 12.843 14.1461 12.3643 14.625C12.0623 14.9258 11.707 15.0859 11.415 15.0859C11.2546 15.0858 11.111 15.0335 10.999 14.9385C10.9873 14.686 10.9257 14.4478 10.8232 14.2314C10.8832 13.9948 11.0298 13.7419 11.2549 13.5166L11.2637 13.5254ZM13.0449 12.0908C13.3692 11.8147 13.9758 12.0211 14.4414 12.5674C14.9069 13.1139 15.0198 13.7401 14.6895 14.0215C14.3651 14.2972 13.7584 14.0912 13.293 13.5449C12.8279 12.9987 12.7211 12.3671 13.0449 12.0908ZM16.2002 1.83594C15.3865 2.15085 14.6748 2.67192 14.1309 3.33594H6.46094C6.32331 3.33645 6.21094 3.44819 6.21094 3.58594V4.50195H13.418C13.2135 4.96939 13.0769 5.4734 13.0244 6.00195H6.05176C5.51162 8.35588 5.2969 10.7651 5.40137 13.1641H3.89941C3.78876 10.4795 4.05737 7.78331 4.71094 5.1582V3.58594C4.71094 2.61976 5.49488 1.83646 6.46094 1.83594H16.2002ZM10.0039 11.5029C10.7217 11.5029 11.2722 11.823 11.2725 12.2568C11.2725 12.6828 10.7219 13.0107 10.0039 13.0107C9.28623 13.0105 8.73633 12.6827 8.73633 12.2568C8.73662 11.8311 9.28642 11.5031 10.0039 11.5029ZM12.4346 10.0371C12.9304 9.54025 13.6137 9.2216 13.9688 9.57617C14.3147 9.93117 14.0038 10.6134 13.5078 11.1104C13.1618 11.4652 12.7172 11.7227 12.3633 11.7227C12.2216 11.7225 12.0882 11.6781 11.9814 11.5713H11.9727C11.6271 11.2173 11.9378 10.534 12.4346 10.0371ZM10.6865 9.06348C10.7845 8.96552 11.0148 8.82353 11.4404 8.99219H11.4492C11.6971 9.08915 11.9728 9.27555 12.2207 9.52441C12.2655 9.57711 12.3185 9.62993 12.3623 9.68262C12.3094 9.71862 12.2568 9.77251 12.2129 9.81641C12.151 9.87834 12.0873 9.94962 12.0254 10.0205C11.9196 10.1535 11.7599 10.4102 11.7246 10.4727C11.6447 10.6225 11.5829 10.774 11.5469 10.9248C11.414 10.8359 11.2803 10.7296 11.1475 10.5967C10.652 10.1 10.3325 9.4175 10.6865 9.06348ZM18 2.5C18.0783 2.5 18.1562 2.50237 18.2334 2.50684C18.2612 2.50842 18.2888 2.51055 18.3164 2.5127C18.3662 2.51661 18.4156 2.52162 18.4648 2.52734C18.4942 2.53073 18.5235 2.53406 18.5527 2.53809C18.5713 2.54067 18.5899 2.54306 18.6084 2.5459L18.7607 2.57227L18.8047 2.58105C20.626 2.95448 22 4.56993 22 6.5C22 8.7056 20.2056 10.5 18 10.5C15.7944 10.5 14 8.7056 14 6.5C14 4.75724 15.1204 3.27154 16.6787 2.72461C16.6852 2.72232 16.6917 2.72003 16.6982 2.71777C16.8925 2.65073 17.0934 2.59812 17.2998 2.56152C17.3144 2.55892 17.3291 2.55615 17.3438 2.55371C17.4428 2.53729 17.5432 2.52459 17.6445 2.51562C17.6559 2.51462 17.6673 2.51458 17.6787 2.51367C17.7847 2.5052 17.8918 2.5 18 2.5ZM19.7119 5.3877C19.5948 5.27072 19.4053 5.27092 19.2881 5.3877L17.5 7.17578L16.7119 6.3877C16.5948 6.27079 16.4052 6.27086 16.2881 6.3877C16.1709 6.5049 16.1709 6.6953 16.2881 6.8125L17.2881 7.8125C17.3466 7.8709 17.4233 7.90039 17.5 7.90039C17.5767 7.90039 17.6534 7.8709 17.7119 7.8125L18.2119 7.31152L19.4902 6.0332L19.7119 5.8125C19.8289 5.6953 19.8291 5.5049 19.7119 5.3877Z" fill="black"/>
</svg>
