<svg width="24" height="24" viewBox="0 0 24 24" fill="none" xmlns="http://www.w3.org/2000/svg">
<path d="M18.2606 16.8838C18.2687 16.4697 18.611 16.1405 19.0251 16.1486C19.4393 16.1567 19.7684 16.499 19.7603 16.9131L19.7564 17.1131C19.7484 17.5272 19.4061 17.8564 18.9919 17.8483C18.5778 17.8402 18.2486 17.4979 18.2567 17.0838L18.2606 16.8838Z" fill="black"/>
<path d="M5.75 11C5.33579 11 5 11.3358 5 11.75C5 12.1642 5.33579 12.5 5.75 12.5H8.75C9.16421 12.5 9.5 12.1642 9.5 11.75C9.5 11.3358 9.16421 11 8.75 11H5.75Z" fill="black"/>
<path fill-rule="evenodd" clip-rule="evenodd" d="M6.75 2C6.28587 2 5.84076 2.18437 5.51256 2.51256C5.18437 2.84074 5 3.28587 5 3.75V4.25C5 5.72037 4.54176 7.15419 3.68901 8.35204L3.63901 8.42204C2.57259 9.92004 2 11.7121 2 13.55V19.75C2 20.4793 2.28973 21.1788 2.80545 21.6945C3.32118 22.2103 4.02066 22.5 4.75 22.5H9.75C10.4793 22.5 11.1788 22.2103 11.6945 21.6945C12.0846 21.3045 12.3454 20.8093 12.4493 20.2756C12.7626 20.5349 13.1158 20.761 13.4982 20.9547C14.9374 21.6835 16.8557 22 18.8894 22C18.9317 22 18.9732 21.9965 19.0136 21.9898C19.0911 21.9965 19.1698 22 19.2498 22C20.4022 22 21.3026 21.2776 21.8655 20.3995C22.432 19.5158 22.7498 18.3556 22.7498 17.125C22.7498 15.8944 22.432 14.7342 21.8655 13.8505C21.3026 12.9724 20.4022 12.25 19.2498 12.25C19.1709 12.25 19.0933 12.2534 19.0168 12.26C18.9769 12.2534 18.936 12.25 18.8943 12.25C16.8605 12.25 14.9423 12.5665 13.5031 13.2953C13.1392 13.4796 12.8017 13.6933 12.5 13.937V13.551C12.5001 11.7125 11.9272 9.91975 10.861 8.42204L10.8107 8.35168C9.95827 7.1537 9.5 5.71985 9.5 4.25V3.75C9.5 3.28587 9.31563 2.84074 8.98744 2.51256C8.65924 2.18437 8.21413 2 7.75 2H6.75ZM19.0779 20.5239C19.0499 20.5166 19.0212 20.511 18.992 20.507C18.6157 20.418 18.2318 20.1326 17.906 19.6243C17.5106 19.0076 17.2498 18.1252 17.2498 17.125C17.2498 16.1248 17.5106 15.2424 17.906 14.6257C18.2301 14.12 18.6117 13.8349 18.9863 13.7444C19.0215 13.7401 19.056 13.7334 19.0895 13.7243C19.1433 13.7164 19.1967 13.7125 19.2498 13.7125C19.7042 13.7125 20.1928 14.0005 20.5935 14.6257C20.9889 15.2424 21.2498 16.1248 21.2498 17.125C21.2498 18.1252 20.9889 19.0076 20.5935 19.6243C20.1928 20.2495 19.7042 20.5375 19.2498 20.5375C19.1929 20.5375 19.1356 20.533 19.0779 20.5239ZM16.5936 20.3353C15.6529 20.1896 14.8315 19.9485 14.1759 19.6165C13.0567 19.0497 12.4944 18.2699 12.4946 17.2504C12.4946 17.2127 12.4919 17.1757 12.4865 17.1395C12.4951 17.0942 12.4995 17.0474 12.4995 16.9996C12.4993 15.9801 13.0615 15.2003 14.1808 14.6335C14.8351 14.3022 15.6547 14.0613 16.5931 13.9155C16.0523 14.7907 15.7498 15.9243 15.7498 17.125C15.7498 18.3261 16.0525 19.46 16.5936 20.3353ZM11.0076 17.1105C11.0044 17.0884 11.0021 17.066 11.0008 17.0434L9.4281 17.043C9.01392 17.0429 8.67822 16.7071 8.67828 16.2929C8.67831 16.1458 8.64206 16.001 8.57275 15.8713C8.50345 15.7416 8.40323 15.631 8.28094 15.5493C8.15868 15.4675 8.01813 15.4172 7.87175 15.4028C7.72539 15.3883 7.57771 15.4102 7.44182 15.4664C7.30592 15.5227 7.18599 15.6116 7.09267 15.7253C6.99934 15.8389 6.93549 15.9738 6.90675 16.1181C6.87802 16.2623 6.88531 16.4114 6.92796 16.5521C6.97061 16.6929 7.04733 16.8209 7.15129 16.9249C7.29195 17.0657 7.37093 17.2565 7.37082 17.4555C7.37073 17.6545 7.29156 17.8453 7.15076 17.9859C7.04666 18.0898 6.96982 18.2178 6.92703 18.3586C6.88425 18.4993 6.87683 18.6484 6.90546 18.7927C6.93408 18.937 6.99786 19.072 7.09114 19.1857C7.18443 19.2995 7.30434 19.3885 7.44023 19.4448C7.57614 19.5011 7.72385 19.5231 7.87025 19.5087C8.01668 19.4943 8.15727 19.444 8.2796 19.3623C8.40193 19.2806 8.5022 19.1699 8.57155 19.0402C8.64088 18.9105 8.67715 18.7656 8.67712 18.6185C8.67709 18.4196 8.75613 18.2287 8.89684 18.0881C9.03752 17.9474 9.22836 17.8684 9.42734 17.8684L11.0404 17.8689C11.0102 17.6704 10.9946 17.4642 10.9946 17.2501C10.9946 17.2024 10.9991 17.1557 11.0076 17.1105ZM4.91098 9.22197C5.50119 8.39291 5.93549 7.47058 6.19948 6.5H8.30061C8.56464 7.47052 8.99892 8.39284 9.58896 9.22188L9.63922 9.29227C10.5244 10.5359 11.0001 12.0245 11 13.551V15.5434L10.0579 15.5432C10.015 15.4129 9.96082 15.2862 9.89575 15.1644C9.71019 14.8172 9.44185 14.521 9.11452 14.3022C8.78717 14.0834 8.41092 13.9487 8.01907 13.91C7.62724 13.8713 7.23192 13.9299 6.8681 14.0805C6.5043 14.2311 6.18326 14.4691 5.9334 14.7734C5.68353 15.0777 5.51257 15.4389 5.43565 15.825C5.35873 16.2112 5.37823 16.6104 5.49245 16.9872C5.54184 17.1502 5.60831 17.3068 5.69035 17.4547C5.60811 17.6025 5.54146 17.7592 5.49188 17.9222C5.37733 18.2991 5.3575 18.6983 5.43414 19.0846C5.51079 19.4709 5.68153 19.8324 5.93127 20.1369C6.18102 20.4414 6.50201 20.6797 6.86584 20.8305C7.0799 20.9192 7.30487 20.9761 7.53366 21H4.75C4.41847 21 4.10054 20.8683 3.86612 20.6339C3.6317 20.3995 3.5 20.0815 3.5 19.75V13.55C3.5 12.0239 3.9754 10.5359 4.86099 9.29196L4.91098 9.22197ZM9.75 21H8.03175C8.4184 20.9596 8.78947 20.8256 9.11285 20.6096C9.44034 20.3908 9.7088 20.0946 9.89444 19.7473C9.95952 19.6255 10.0137 19.4988 10.0567 19.3686L11 19.3689V19.75C11 20.0815 10.8683 20.3995 10.6339 20.6339C10.3995 20.8683 10.0815 21 9.75 21ZM6.5 5H8V3.75C8 3.6837 7.97366 3.6201 7.92677 3.57323C7.8799 3.52634 7.8163 3.5 7.75 3.5H6.75C6.6837 3.5 6.6201 3.52634 6.57323 3.57323C6.52634 3.6201 6.5 3.6837 6.5 3.75V5Z" fill="black"/>
<path fill-rule="evenodd" clip-rule="evenodd" d="M15.8929 4C14.8352 4 14.0704 4.47379 13.5993 5.16364C13.1538 5.81622 13 6.61368 13 7.28847C13 8.14175 13.3189 9.136 13.771 9.91492C14 10.3096 14.284 10.6856 14.6165 10.972C14.9435 11.2538 15.3792 11.5 15.8929 11.5C15.902 11.5 15.9111 11.4998 15.9202 11.4995C16.2605 11.4871 16.5371 11.4228 16.7512 11.373L16.817 11.3577C17.037 11.3074 17.2293 11.2692 17.5 11.2692C17.7707 11.2692 17.963 11.3074 18.183 11.3577L18.2488 11.373C18.4629 11.4228 18.7395 11.4871 19.0798 11.4995C19.0889 11.4998 19.098 11.5 19.1071 11.5C19.6208 11.5 20.0565 11.2538 20.3835 10.972C20.716 10.6856 21 10.3096 21.229 9.91492C21.6811 9.136 22 8.14175 22 7.28847C22 6.61368 21.8462 5.81622 21.4007 5.16364C21.086 4.70274 20.6401 4.33829 20.0634 4.14714C20.1853 3.86673 20.25 3.56169 20.25 3.25C20.25 3.05109 20.171 2.86032 20.0303 2.71967C19.8897 2.57901 19.6989 2.5 19.5 2.5C18.9153 2.5 18.354 2.72762 17.9347 3.13377C17.4454 2.43889 16.6391 2 15.75 2C15.3358 2 15 2.33578 15 2.75C15 3.16422 15.3358 3.5 15.75 3.5C16.2167 3.5 16.6313 3.7758 16.8178 4.1898C16.5601 4.09525 16.2326 4 15.8929 4ZM18.5177 9.89555C18.2569 9.83585 17.937 9.76923 17.5 9.76923C17.063 9.76923 16.7431 9.83585 16.4823 9.89555L16.4237 9.909C16.2076 9.95872 16.0664 9.99118 15.8858 9.99965C15.8537 9.99684 15.7563 9.97412 15.5956 9.83563C15.4258 9.68936 15.2411 9.45964 15.0683 9.162C14.7168 8.5563 14.5 7.81978 14.5 7.28847C14.5 6.8094 14.6141 6.33762 14.8382 6.00945C15.0368 5.71852 15.3434 5.5 15.8929 5.5C16.0212 5.5 16.2041 5.55542 16.4973 5.67513L16.5819 5.70996C16.6894 5.75444 16.8145 5.80615 16.9268 5.8461C17.0628 5.89444 17.2735 5.96153 17.5 5.96153C17.7265 5.96153 17.9372 5.89444 18.0732 5.8461C18.1855 5.80615 18.3106 5.75444 18.4181 5.70996L18.5027 5.67513C18.7959 5.55542 18.9788 5.5 19.1071 5.5C19.6566 5.5 19.9632 5.71852 20.1618 6.00945C20.3859 6.33762 20.5 6.8094 20.5 7.28847C20.5 7.81978 20.2832 8.5563 19.9317 9.162C19.7589 9.45964 19.5742 9.68936 19.4044 9.83563C19.2437 9.97412 19.1463 9.99684 19.1142 9.99965C18.9336 9.99118 18.7924 9.95872 18.5763 9.909L18.5177 9.89555Z" fill="black"/>
</svg>
