<svg width="24" height="24" viewBox="0 0 24 24" fill="none" xmlns="http://www.w3.org/2000/svg">
<path d="M15.502 2C15.0877 2 14.752 2.33579 14.752 2.75C14.752 3.16421 15.0877 3.5 15.502 3.5C15.9686 3.5 16.3833 3.7758 16.5697 4.18981C16.312 4.09525 15.9845 4 15.6448 4C14.5872 4 13.8223 4.47378 13.3513 5.16363C12.9057 5.81623 12.752 6.61368 12.752 7.28846C12.752 8.14176 13.0709 9.136 13.5229 9.91492C13.752 10.3096 14.036 10.6856 14.3684 10.9721C14.6954 11.2538 15.1311 11.5 15.6448 11.5C15.6539 11.5 15.663 11.4998 15.6721 11.4995C16.0124 11.4871 16.2891 11.4228 16.5031 11.373L16.5689 11.3577C16.789 11.3074 16.9813 11.2692 17.252 11.2692C17.5226 11.2692 17.7149 11.3074 17.935 11.3577L18.0008 11.373C18.2148 11.4228 18.4915 11.4871 18.8318 11.4995C18.8409 11.4998 18.85 11.5 18.8591 11.5C19.3728 11.5 19.8085 11.2538 20.1355 10.9721C20.4679 10.6856 20.7519 10.3096 20.981 9.91492C21.433 9.136 21.752 8.14176 21.752 7.28846C21.752 6.61368 21.5982 5.81623 21.1526 5.16363C20.8379 4.70274 20.3921 4.33829 19.8154 4.14714C19.9373 3.86672 20.002 3.5617 20.002 3.25C20.002 3.05109 19.9229 2.86032 19.7823 2.71967C19.6416 2.57902 19.4509 2.5 19.252 2.5C18.6672 2.5 18.106 2.72761 17.6866 3.13377C17.1973 2.43889 16.391 2 15.502 2Z" fill="black"/>
<path d="M17.0124 14.0972C17.0124 14.0059 16.933 13.9351 16.8425 13.9465C15.706 14.0906 14.1567 14.371 13.3549 14.8023C12.4258 15.2726 11.845 15.876 11.615 16.625L9.32462 16.6248C9.32465 16.4321 9.27719 16.2425 9.18645 16.0725C9.09571 15.9026 8.96449 15.7577 8.80441 15.6507C8.64433 15.5436 8.46033 15.4777 8.26871 15.4588C8.07709 15.4399 7.88376 15.4685 7.70585 15.5422C7.52794 15.6159 7.37094 15.7323 7.24875 15.8812C7.12656 16.0301 7.04296 16.2068 7.00535 16.3958C6.96773 16.5847 6.97727 16.78 7.03312 16.9644C7.08896 17.1487 7.18939 17.3165 7.3255 17.4527C7.18922 17.5889 7.08861 17.7566 7.03259 17.9409C6.97657 18.1253 6.96686 18.3206 7.00435 18.5096C7.04183 18.6986 7.12533 18.8755 7.24746 19.0245C7.36958 19.1735 7.52656 19.29 7.70448 19.3638C7.8824 19.4376 8.07577 19.4664 8.26744 19.4475C8.45912 19.4286 8.64319 19.3628 8.80334 19.2557C8.96349 19.1487 9.09477 19.0038 9.18556 18.8338C9.27634 18.6639 9.32382 18.4742 9.32379 18.2815H11.6442C11.8919 18.9896 12.4629 19.5639 13.355 20.0155C14.2583 20.4727 15.4475 20.7736 16.822 20.9082C16.9243 20.9182 17.0124 20.8373 17.0124 20.7345C17.0124 20.6815 16.9881 20.6316 16.9483 20.5966C16.7817 20.4496 16.6208 20.2584 16.4719 20.0202C16.0692 19.3762 15.8035 18.4548 15.8035 17.4103C15.8035 16.3658 16.0692 15.4444 16.4719 14.8003C16.6233 14.5583 16.787 14.3646 16.9567 14.2167C16.9914 14.1865 17.0124 14.1432 17.0124 14.0972Z" fill="black"/>
<path fill-rule="evenodd" clip-rule="evenodd" d="M17.9082 14.9366C18.3089 14.2954 18.7975 14 19.252 14C19.7064 14 20.195 14.2954 20.5957 14.9366C20.9911 15.5691 21.252 16.4741 21.252 17.5C21.252 18.5259 20.9911 19.4309 20.5957 20.0634C20.195 20.7046 19.7064 21 19.252 21C18.7975 21 18.3089 20.7046 17.9082 20.0634C17.5129 19.4309 17.252 18.5259 17.252 17.5C17.252 16.4741 17.5129 15.5691 17.9082 14.9366ZM19.2666 16.6017C18.8525 16.5936 18.5102 16.9228 18.5021 17.3369L18.4982 17.5369C18.4901 17.951 18.8193 18.2933 19.2334 18.3014C19.6475 18.3095 19.9898 17.9803 19.9979 17.5662L20.0018 17.3662C20.0099 16.9521 19.6807 16.6098 19.2666 16.6017Z" fill="black"/>
<path d="M6.5 3.25C6.36739 3.25 6.24022 3.30268 6.14645 3.39645C6.05268 3.49021 6 3.61739 6 3.75V5C6 5.13807 6.11193 5.25 6.25 5.25H7.75C7.88807 5.25 8 5.13807 8 5V3.75C8 3.61739 7.94732 3.49021 7.85355 3.39645C7.75979 3.30268 7.63261 3.25 7.5 3.25H6.5Z" fill="black"/>
<path fill-rule="evenodd" clip-rule="evenodd" d="M5.94948 6.25C5.83668 6.25 5.73785 6.32554 5.70824 6.43439C5.45195 7.37667 5.03032 8.2721 4.45732 9.07698L4.40733 9.14697C3.49161 10.4333 3 11.9719 3 13.55V19.75C3 20.1478 3.15804 20.5294 3.43934 20.8107C3.72064 21.092 4.10218 21.25 4.5 21.25H7.62047C7.7492 21.25 7.85689 21.1522 7.86931 21.0241C7.88173 20.896 7.79482 20.7794 7.66848 20.7547C7.50411 20.7225 7.34275 20.6739 7.18691 20.6093C6.8038 20.4504 6.46585 20.1994 6.20297 19.8787C5.94009 19.558 5.76039 19.1774 5.67974 18.7707C5.59909 18.3639 5.61996 17.9436 5.74051 17.5469L5.74757 17.524C5.76239 17.476 5.76241 17.4247 5.74764 17.3767L5.74054 17.3536C5.6205 16.957 5.60004 16.537 5.68094 16.1306C5.76187 15.7241 5.94179 15.3437 6.2048 15.0232C6.46781 14.7027 6.80581 14.452 7.1889 14.2934C7.57199 14.1347 7.98831 14.073 8.40098 14.1138C8.81363 14.1545 9.20984 14.2964 9.55449 14.5269C9.81174 14.699 10.0343 14.9164 10.2119 15.1676C10.2587 15.2339 10.3349 15.2733 10.416 15.2734L10.75 15.2734C10.8163 15.2734 10.8799 15.2471 10.9268 15.2002C10.9737 15.1533 11 15.0897 11 15.0234V13.551C11.0001 11.9725 10.508 10.4329 9.59266 9.14696L9.54251 9.07674C8.96974 8.2719 8.54816 7.37653 8.29185 6.43437C8.26224 6.32553 8.16342 6.25 8.05062 6.25H5.94948ZM5.50195 11C5.08774 11 4.75195 11.3358 4.75195 11.75C4.75195 12.1642 5.08774 12.5 5.50195 12.5H8.50195C8.91617 12.5 9.25195 12.1642 9.25195 11.75C9.25195 11.3358 8.91617 11 8.50195 11H5.50195Z" fill="black"/>
<path d="M10.211 19.7356C10.2578 19.6693 10.334 19.6299 10.4151 19.6299H10.7432C10.8141 19.6299 10.8816 19.66 10.929 19.7126C10.9764 19.7652 10.9992 19.8355 10.9919 19.9059C10.9563 20.2464 10.805 20.5663 10.5607 20.8107C10.2794 21.092 9.89782 21.25 9.5 21.25H8.6845C8.55577 21.25 8.44809 21.1522 8.43567 21.0241C8.42325 20.896 8.51016 20.7794 8.63649 20.7547C8.96329 20.6907 9.27499 20.5625 9.55314 20.3765C9.81056 20.2045 10.0333 19.987 10.211 19.7356Z" fill="black"/>
</svg>
