<svg width="24" height="24" viewBox="0 0 24 24" fill="none" xmlns="http://www.w3.org/2000/svg">
<path d="M12 2C6.477 2 2 6.477 2 12C2 16.4775 4.943 20.2665 9 21.541V13.893C7.848 13.565 7 12.5045 7 11.25V7C7 6.724 7.224 6.5 7.5 6.5C7.776 6.5 8 6.724 8 7V10.25C8 10.388 8.112 10.5 8.25 10.5H9C9.138 10.5 9.25 10.388 9.25 10.25V7C9.25 6.724 9.474 6.5 9.75 6.5C10.026 6.5 10.25 6.724 10.25 7V10.25C10.25 10.388 10.362 10.5 10.5 10.5H11.25C11.388 10.5 11.5 10.388 11.5 10.25V7C11.5 6.724 11.724 6.5 12 6.5C12.276 6.5 12.5 6.724 12.5 7V11.25C12.5 12.5045 11.652 13.565 10.5 13.893V21.8755C10.9905 21.9495 11.489 22 12 22C12.511 22 13.0095 21.9495 13.5 21.8755V7C13.5 6.808 13.61 6.6325 13.7835 6.5495C13.956 6.4665 14.1615 6.4895 14.3125 6.61C14.4015 6.681 16.5 8.417 16.5 13.4V13.869C16.5 14.216 16.3645 14.5425 16.119 14.788L15 15.907V21.541C19.057 20.2665 22 16.4775 22 12C22 6.477 17.523 2 12 2Z" fill="black"/>
</svg>
