<svg width="24" height="24" viewBox="0 0 24 24" fill="none" xmlns="http://www.w3.org/2000/svg">
<path d="M12 2C6.486 2 2 6.486 2 12C2 16.0915 4.4725 19.6127 8 21.1592V19.4951C5.325 18.0621 3.5 15.2415 3.5 12C3.5 7.313 7.313 3.5 12 3.5C16.687 3.5 20.5 7.313 20.5 12C20.5 15.2415 18.675 18.0626 16 19.4961V21.1592C19.5275 19.6122 22 16.0915 22 12C22 6.486 17.514 2 12 2ZM7.49219 6.49316C7.35975 6.49523 7.23354 6.54976 7.14127 6.64479C7.04899 6.73981 6.99819 6.86756 7 7V10.25V11.25C7 12.5048 7.84817 13.5655 9 13.8936V21.25C8.99859 21.3494 9.01696 21.4481 9.05402 21.5403C9.09108 21.6325 9.1461 21.7164 9.21588 21.7872C9.28566 21.858 9.36882 21.9142 9.46051 21.9526C9.5522 21.9909 9.65061 22.0107 9.75 22.0107C9.84939 22.0107 9.9478 21.9909 10.0395 21.9526C10.1312 21.9142 10.2143 21.858 10.2841 21.7872C10.3539 21.7164 10.4089 21.6325 10.446 21.5403C10.483 21.4481 10.5014 21.3494 10.5 21.25V13.8936C11.6518 13.5655 12.5 12.5048 12.5 11.25V10V7C12.5009 6.93374 12.4887 6.86796 12.464 6.80648C12.4393 6.74499 12.4026 6.68903 12.3561 6.64185C12.3096 6.59466 12.2541 6.5572 12.193 6.53162C12.1319 6.50605 12.0663 6.49288 12 6.49288C11.9337 6.49288 11.8681 6.50605 11.807 6.53162C11.7459 6.5572 11.6904 6.59466 11.6439 6.64185C11.5974 6.68903 11.5607 6.74499 11.536 6.80648C11.5113 6.86796 11.4991 6.93374 11.5 7V10V10.25C11.5 10.3935 11.3935 10.5 11.25 10.5H10.5C10.3565 10.5 10.25 10.3935 10.25 10.25V7C10.2509 6.93374 10.2387 6.86796 10.214 6.80648C10.1893 6.74499 10.1526 6.68903 10.1061 6.64185C10.0596 6.59466 10.0041 6.5572 9.94299 6.53162C9.88186 6.50605 9.81626 6.49288 9.75 6.49288C9.68374 6.49288 9.61814 6.50605 9.55701 6.53162C9.49588 6.5572 9.44044 6.59466 9.39392 6.64185C9.3474 6.68903 9.31072 6.74499 9.28601 6.80648C9.2613 6.86796 9.24906 6.93374 9.25 7V10.25C9.25 10.3935 9.14347 10.5 9 10.5H8.25C8.10653 10.5 8 10.3935 8 10.25V10V7C8.00092 6.93311 7.9884 6.86671 7.96319 6.80474C7.93798 6.74277 7.9006 6.68648 7.85325 6.63922C7.80589 6.59196 7.74954 6.55469 7.68752 6.5296C7.6255 6.50451 7.55908 6.49212 7.49219 6.49316ZM14.0566 6.50391C13.9648 6.49347 13.8695 6.5083 13.7832 6.5498C13.6097 6.6328 13.5 6.808 13.5 7V16.2002V21.25C13.4986 21.3494 13.517 21.4481 13.554 21.5403C13.5911 21.6325 13.6461 21.7164 13.7159 21.7872C13.7857 21.858 13.8688 21.9142 13.9605 21.9526C14.0522 21.9909 14.1506 22.0107 14.25 22.0107C14.3494 22.0107 14.4478 21.9909 14.5395 21.9526C14.6312 21.9142 14.7143 21.858 14.7841 21.7872C14.8539 21.7164 14.9089 21.6325 14.946 21.5403C14.983 21.4481 15.0014 21.3494 15 21.25V15.9072L16.1191 14.7881C16.3646 14.5426 16.5 14.2161 16.5 13.8691V13.4004C16.5 8.41739 14.4015 6.68135 14.3125 6.61035C14.2373 6.5501 14.1485 6.51434 14.0566 6.50391Z" fill="black"/>
</svg>
