<svg width="24" height="24" viewBox="0 0 24 24" fill="none" xmlns="http://www.w3.org/2000/svg">
<path fill-rule="evenodd" clip-rule="evenodd" d="M12 17C13.3807 17 14.5 15.8807 14.5 14.5C14.5 13.1193 13.3807 12 12 12C10.6193 12 9.5 13.1193 9.5 14.5C9.5 15.8807 10.6193 17 12 17ZM13 14.5C13 15.0523 12.5523 15.5 12 15.5C11.4477 15.5 11 15.0523 11 14.5C11 13.9477 11.4477 13.5 12 13.5C12.1067 13.5 12.2094 13.5167 12.3058 13.5476L12.8535 13C13.0487 12.8047 13.3653 12.8047 13.5606 13C13.7558 13.1952 13.7558 13.5118 13.5606 13.7071L12.9779 14.2898C12.9924 14.3576 13 14.4279 13 14.5Z" fill="black"/>
<path fill-rule="evenodd" clip-rule="evenodd" d="M4 3C3.44772 3 3 3.44772 3 4V5C3 6.10457 3.89543 7 5 7H10.5V8.25H8.59597C7.312 8.25 6.19891 9.1385 5.91436 10.3905L4.32345 17.3905C3.93235 19.1114 5.24034 20.75 7.00507 20.75H16.994C18.7587 20.75 20.0667 19.1114 19.6756 17.3905L18.0847 10.3905C17.8001 9.1385 16.687 8.25 15.4031 8.25H13.5V7H19C20.1046 7 21 6.10457 21 5V4C21 3.44772 20.5523 3 20 3H4ZM12 18.5C14.2091 18.5 16 16.7091 16 14.5C16 12.2909 14.2091 10.5 12 10.5C9.79086 10.5 8 12.2909 8 14.5C8 16.7091 9.79086 18.5 12 18.5Z" fill="black"/>
</svg>
