<svg width="24" height="24" viewBox="0 0 24 24" fill="none" xmlns="http://www.w3.org/2000/svg">
<path fill-rule="evenodd" clip-rule="evenodd" d="M7.75 4C7.75 2.48122 6.51878 1.25 5 1.25C3.48122 1.25 2.25 2.48122 2.25 4V9.33215C2.25 9.59633 2.14873 9.871 1.9772 10.3044C1.83034 10.6754 1.75 11.0792 1.75 11.5C1.75 13.2949 3.20507 14.75 5 14.75C6.79493 14.75 8.25 13.2949 8.25 11.5C8.25 11.0792 8.16966 10.6754 8.0228 10.3044C7.85127 9.871 7.75 9.59633 7.75 9.33215V4ZM3.75 4C3.75 3.30964 4.30964 2.75 5 2.75C5.60474 2.75 6.10918 3.17944 6.225 3.75H5.5C5.08579 3.75 4.75 4.08579 4.75 4.5C4.75 4.91421 5.08579 5.25 5.5 5.25H6.25V6.25H6C5.58579 6.25 5.25 6.58579 5.25 7C5.25 7.41421 5.58579 7.75 6 7.75H6.25V8.75H5.5C5.08579 8.75 4.75 9.08579 4.75 9.5C4.75 9.91421 5.08579 10.25 5.5 10.25H6.40478C6.46901 10.4562 6.54305 10.6424 6.60589 10.8005L6.62807 10.8564C6.70652 11.0546 6.75 11.2713 6.75 11.5C6.75 12.4665 5.9665 13.25 5 13.25C4.0335 13.25 3.25 12.4665 3.25 11.5C3.25 11.2713 3.29348 11.0546 3.37193 10.8564L3.3941 10.8005C3.54133 10.4301 3.75 9.90516 3.75 9.33215V4Z" fill="black"/>
<path fill-rule="evenodd" clip-rule="evenodd" d="M9.72725 5.5534C9.34953 4.42022 10.193 3.25 11.3875 3.25H20.6126C21.8071 3.25 22.6505 4.42022 22.2728 5.5534L22.1674 5.86963C21.7931 6.99257 20.7422 7.75 19.5585 7.75H18.5V8.25H19.1436C20.5305 8.25 21.7003 9.28272 21.8723 10.6589L22.4633 15.3862C22.6684 17.0275 21.3886 18.4773 19.7345 18.4773C19.3203 18.4773 18.9845 18.1415 18.9845 17.7273C18.9845 17.3131 19.3203 16.9773 19.7345 16.9773C20.4864 16.9773 21.0681 16.3183 20.9748 15.5722L20.3839 10.845C20.3057 10.2194 19.774 9.75 19.1436 9.75H12.8565C12.2289 9.75 11.6991 10.2152 11.6173 10.8366L11.2464 14.5741C11.2055 14.9862 10.8382 15.2872 10.426 15.2463C10.0138 15.2054 9.71282 14.8381 9.75372 14.4259L10.1256 10.6779L10.1278 10.6589C10.2998 9.28272 11.4696 8.25 12.8565 8.25H13V7.75H12.4415C11.2579 7.75 10.207 6.99257 9.83266 5.86963L9.72725 5.5534ZM14.5 7.75H17V8.25H14.5V7.75ZM11.3875 4.75C11.2168 4.75 11.0963 4.91717 11.1503 5.07906L11.2557 5.39528C11.4258 5.90571 11.9035 6.25 12.4415 6.25H19.5585C20.0965 6.25 20.5742 5.90571 20.7444 5.39528L20.8498 5.07906C20.9037 4.91717 20.7832 4.75 20.6126 4.75H11.3875Z" fill="black"/>
<path fill-rule="evenodd" clip-rule="evenodd" d="M16.125 16.25H3.875C3.12718 16.25 2.25 16.7707 2.25 17.7144V21.375C2.25 21.7992 2.46082 22.1628 2.75801 22.4016C3.05088 22.6369 3.41925 22.75 3.77778 22.75H16.125C16.8728 22.75 17.75 22.2293 17.75 21.2856V17.7144C17.75 16.7707 16.8728 16.25 16.125 16.25ZM3.75 21.2482V17.7778C3.77452 17.7647 3.8164 17.75 3.875 17.75H4.75V19.5C4.75 19.9142 5.08579 20.25 5.5 20.25C5.91421 20.25 6.25 19.9142 6.25 19.5V17.75H7.75V18.5C7.75 18.9142 8.08579 19.25 8.5 19.25C8.91421 19.25 9.25 18.9142 9.25 18.5V17.75H10.75V19.5C10.75 19.9142 11.0858 20.25 11.5 20.25C11.9142 20.25 12.25 19.9142 12.25 19.5V17.75H13.75V18.5C13.75 18.9142 14.0858 19.25 14.5 19.25C14.9142 19.25 15.25 18.9142 15.25 18.5V17.75H16.125C16.1836 17.75 16.2255 17.7647 16.25 17.7778V21.2222C16.2255 21.2353 16.1836 21.25 16.125 21.25H3.77778C3.76796 21.25 3.75865 21.2493 3.75 21.2482Z" fill="black"/>
<path fill-rule="evenodd" clip-rule="evenodd" d="M13.75 13C13.75 11.7574 14.7574 10.75 16 10.75C17.2426 10.75 18.25 11.7574 18.25 13C18.25 14.2426 17.2426 15.25 16 15.25C14.7574 15.25 13.75 14.2426 13.75 13ZM16 12.25C15.5858 12.25 15.25 12.5858 15.25 13C15.25 13.4142 15.5858 13.75 16 13.75C16.4142 13.75 16.75 13.4142 16.75 13C16.75 12.5858 16.4142 12.25 16 12.25Z" fill="black"/>
</svg>
