<svg width="24" height="24" viewBox="0 0 24 24" fill="none" xmlns="http://www.w3.org/2000/svg">
<path d="M11.5752 1.51075C7.22694 1.72283 3.68425 5.29595 3.50679 9.64552C3.36491 13.1202 5.34541 16.1303 8.23922 17.5723C8.57424 18.561 9.25294 19.6339 10.2685 20.5781C11.3933 21.6239 12.8938 22.4827 14.6123 22.4883C15.7398 22.492 16.7048 22.2649 17.5058 21.8682C17.5939 21.8415 17.6763 21.7988 17.749 21.7422C18.2114 21.4814 18.6154 21.1619 18.9511 20.7891C19.8563 19.784 20.2656 18.4743 20.4189 17.1328C20.4503 17.0491 20.4665 16.9605 20.4668 16.8711V16.8408V16.8389C20.4661 16.8415 20.4677 16.8227 20.4677 16.8184C20.4679 16.7994 20.4676 16.7763 20.4677 16.7461C20.468 16.6857 20.4685 16.6007 20.4687 16.4942C20.4692 16.2811 20.4695 15.9816 20.4697 15.624C20.47 14.909 20.4701 13.9618 20.4697 13.0176C20.4688 11.1291 20.4668 9.25001 20.4668 9.25001C20.4664 9.16479 20.4516 9.08024 20.4228 9.00001C19.9085 4.6455 16.1051 1.28967 11.5752 1.51075ZM11.6484 3.0088C13.6773 2.90978 15.5161 3.67396 16.8496 4.95899C16.3782 5.45456 15.9019 5.94632 15.4218 6.45314C14.965 6.9353 14.4962 7.51254 14.2197 8.2461C13.7525 9.48642 14.0157 10.6749 14.2099 11.6817C14.3571 12.4448 14.4 13.0738 14.3085 13.6553C13.9961 13.0737 13.6 12.3384 13.5585 12.25C12.9918 11.0399 11.995 10.2744 10.9355 9.73243C9.77485 9.13866 9.00474 8.40579 8.53804 7.23536C8.20355 6.39711 8.03295 5.45402 7.83687 4.45997C7.83349 4.4439 7.82958 4.42794 7.82515 4.41212C8.90893 3.59529 10.2263 3.07816 11.6484 3.0088ZM6.54879 5.64649C6.69264 6.35154 6.85659 7.06955 7.14449 7.79103C7.38805 8.40185 7.76583 8.88486 8.15816 9.35157C7.24485 9.81832 6.05364 10.4187 5.06343 10.9229C5.01134 10.527 4.98889 10.1216 5.00582 9.70704C5.0679 8.18532 5.63993 6.77743 6.54879 5.64649ZM17.8193 6.11427C18.4433 7.04956 18.8514 8.14167 18.9648 9.32228C18.9654 9.32684 18.9661 9.3314 18.9668 9.33595C18.9668 9.41787 18.9689 11.1731 18.9697 13.0186C18.9701 13.9626 18.97 14.9088 18.9697 15.6231C18.9695 15.9802 18.9692 16.2798 18.9687 16.4912C18.9685 16.5969 18.968 16.6809 18.9677 16.7383C18.9676 16.7652 18.9679 16.7851 18.9677 16.7988C18.9677 16.7995 18.9677 16.8001 18.9677 16.8008C18.8547 18.0003 18.4942 19.0553 17.8369 19.7852C17.7719 19.8573 17.7011 19.9252 17.6298 19.9922C17.5852 19.897 17.5561 19.8246 17.5048 19.7188C17.2632 19.2202 16.9271 18.5733 16.582 17.9141C16.8617 17.4855 17 16.9914 17 16.5C17 15.8958 16.8021 15.2816 16.373 14.7988C16.2057 14.6106 16.0003 14.449 15.7675 14.3203C16.0541 13.2821 15.8517 12.2743 15.6826 11.3975C15.4869 10.3829 15.3396 9.53136 15.624 8.7754V8.77442C15.7916 8.33023 16.1188 7.89801 16.5107 7.48439C16.9404 7.03076 17.3808 6.57348 17.8193 6.11427ZM9.36129 10.4238C9.66082 10.6361 9.91745 10.8963 10.2519 11.0674C10.2522 11.0674 10.2526 11.0674 10.2529 11.0674C11.1504 11.5264 11.8129 12.0589 12.2002 12.8858C12.2002 12.8861 12.2002 12.8864 12.2002 12.8867C12.3197 13.1418 12.6377 13.7311 13.0263 14.4483C12.8776 14.5514 12.7429 14.6684 12.6269 14.7988C12.1978 15.2816 12 15.8958 12 16.5C12 17.1042 12.1978 17.7184 12.6269 18.2012C13.056 18.6839 13.7291 19 14.5 19C14.8123 19 15.1074 18.9464 15.3779 18.8526C15.6627 19.4005 15.9575 19.965 16.1552 20.3731C16.2297 20.5268 16.271 20.625 16.3271 20.7481C15.853 20.9017 15.2955 20.9905 14.6171 20.9883C13.4056 20.9843 12.2239 20.3478 11.29 19.4795C10.3561 18.6112 9.70103 17.494 9.54195 16.874C9.51409 16.7652 9.46215 16.6641 9.38998 16.5781C9.31781 16.492 9.22724 16.4233 9.12496 16.377C7.42191 15.6076 6.08215 14.1818 5.4316 12.418C6.61225 11.815 8.3739 10.9349 9.36129 10.4238ZM14.5 15.5C14.8958 15.5 15.0977 15.6214 15.2519 15.7949C15.4061 15.9684 15.5 16.2292 15.5 16.5C15.5 16.7708 15.4061 17.0316 15.2519 17.2051C15.0977 17.3786 14.8958 17.5 14.5 17.5C14.1041 17.5 13.9022 17.3786 13.748 17.2051C13.5938 17.0316 13.5 16.7708 13.5 16.5C13.5 16.2292 13.5938 15.9684 13.748 15.7949C13.8391 15.6924 13.9528 15.6124 14.1074 15.5606C14.1866 15.5569 14.2647 15.5408 14.3388 15.5127C14.3909 15.5072 14.4393 15.5 14.5 15.5Z" fill="black"/>
</svg>
