<svg width="24" height="24" viewBox="0 0 24 24" fill="none" xmlns="http://www.w3.org/2000/svg">
<path d="M8.25 1.5C7.8355 1.5 7.5 1.836 7.5 2.25V3.07324L5.29004 7.49219C5.09873 7.87445 5 8.29556 5 8.72168V20.25C5 21.2075 5.79252 22 6.75 22H17.25C18.2075 22 19 21.2075 19 20.25V16.8584C19.0191 16.762 19.0191 16.6628 19 16.5664V8.72168C19 8.29443 18.8998 7.87428 18.71 7.49316C18.71 7.49284 18.71 7.49251 18.71 7.49219L16.5 3.07324V2.25C16.5 1.836 16.1645 1.5 15.75 1.5H8.25ZM8.71289 4H14.5361L12.79 7.49219C12.7888 7.49468 12.7884 7.4975 12.7871 7.5H6.96289L8.71289 4ZM15.75 4.92676L17.3682 8.16308C17.455 8.33774 17.5 8.52825 17.5 8.72168V15.7139C16.6508 15.5685 15.6341 15.6145 14.4228 15.9238C14.2634 15.9645 14.1401 15.9817 14 16.0098V8.72168C14 8.52712 14.0454 8.33559 14.1318 8.16308L15.75 4.92676ZM6.5 9H12.5V16.042C12.3111 15.9887 12.1357 15.9127 11.9639 15.8105C11.3651 15.4546 10.7197 14.6756 9.82227 13.4531C8.86192 12.1452 7.73986 11.591 6.74805 11.5195C6.66322 11.5134 6.58272 11.5207 6.5 11.5215V9ZM6.68457 12.9863C7.21728 12.9945 7.83513 13.281 8.61328 14.3408C9.52389 15.5813 10.2264 16.5225 11.1973 17.0996C11.5948 17.3359 12.029 17.4828 12.5 17.5537V20.5H6.75C6.60248 20.5 6.5 20.3975 6.5 20.25V12.998C6.56105 12.992 6.62125 12.9854 6.68457 12.9863ZM16.7051 17.1318C17.0087 17.1419 17.2695 17.1833 17.5 17.2422V20.25C17.5 20.3975 17.3975 20.5 17.25 20.5H14V17.5352C14.2561 17.4971 14.5187 17.4472 14.7939 17.377C15.5597 17.1814 16.1886 17.1148 16.7051 17.1318Z" fill="black"/>
</svg>
