<svg width="24" height="24" viewBox="0 0 24 24" fill="none" xmlns="http://www.w3.org/2000/svg">
<path d="M11.75 2C6.09813 2 1.5 6.59813 1.5 12.25C1.5 13.2075 2.29252 14 3.25 14H9.27246L8.20019 18.0029C7.99662 18.7614 7.98319 19.6012 8.29004 20.3887C8.85864 21.8481 10.2281 22.9553 11.8945 22.998C12.6437 23.0176 13.3539 22.8281 13.9619 22.4854C15.5382 21.5966 16.2127 19.7176 15.7676 18.0117L14.7207 14H20.75C21.7075 14 22.5 13.2075 22.5 12.25C22.5 6.59813 17.9019 2 12.25 2H11.75ZM11.75 3.5H12.25C17.0911 3.5 21 7.40887 21 12.25C21 12.3975 20.8975 12.5 20.75 12.5H13.7617H10.25H3.25C3.10248 12.5 3 12.3975 3 12.25C3 7.40887 6.90886 3.5 11.75 3.5ZM10.8252 14H13.1709L14.3154 18.3906C14.5993 19.4788 14.1643 20.6494 13.2256 21.1787C12.8456 21.3929 12.4074 21.5114 11.9336 21.499C10.911 21.4728 10.0559 20.7893 9.6875 19.8438C9.51935 19.4122 9.51301 18.8961 9.64844 18.3916C9.64876 18.3916 9.64909 18.3916 9.64941 18.3916L10.8252 14Z" fill="black"/>
</svg>
