<svg width="24" height="24" viewBox="0 0 24 24" fill="none" xmlns="http://www.w3.org/2000/svg">
<path d="M21.7805 20.7195L3.28049 2.2195C2.98749 1.9265 2.51299 1.9265 2.21999 2.2195C1.92699 2.512 1.92699 2.9875 2.21999 3.28L6.17399 7.234C4.16299 7.889 2.57099 9.833 2.49999 12.0085L2.50299 12.51C2.57649 18.0185 5.88549 22.5 9.87849 22.5H10.0115C10.8195 22.5 11.5365 22.1015 12.0005 21.7615C12.464 22.1015 13.18 22.5 13.9885 22.5H14.1215C15.9545 22.5 17.6405 21.5525 18.9375 19.998L20.72 21.7805C20.866 21.927 21.058 22 21.25 22C21.442 22 21.634 21.927 21.7805 21.7805C22.073 21.4875 22.073 21.0125 21.7805 20.7195ZM14.121 21H13.988C13.398 21 12.7405 20.4625 12.539 20.2575C12.3975 20.1115 12.203 20.029 12 20.029C11.797 20.029 11.6025 20.1115 11.461 20.2575C11.2745 20.45 10.608 21 10.011 21H9.87799C6.70099 21 4.06499 17.1825 4.00249 12.5L3.99899 12.033C4.05199 10.4145 5.52599 8.615 7.44899 8.51L17.8865 18.9475C16.8635 20.2235 15.549 21 14.121 21ZM7.99999 4C8.74149 4 10.878 4.009 11.204 7.742C11.1715 7.7285 12.567 9.395 12.567 9.395C12.9015 9.324 13.199 9.2035 13.4855 9.08C14.1145 8.808 14.828 8.5 16.375 8.5C18.3725 8.5 19.929 10.3925 19.9995 12.095C19.9985 12.229 19.997 12.458 19.9965 12.49C19.979 13.8185 19.749 15.072 19.365 16.193L20.5215 17.3495C21.119 15.9165 21.473 14.27 21.4965 12.5185C21.4965 12.5045 21.4985 12.278 21.499 12.128C21.4995 12.1175 21.5 12.106 21.5 12.095V11.9845C21.5 11.9845 21.5 11.9845 21.5 11.984C21.499 11.9435 21.495 11.904 21.488 11.8655C21.3 9.5225 19.214 7 16.375 7C14.518 7 13.5775 7.4065 12.8905 7.703C12.8265 7.7305 12.772 7.7525 12.715 7.7755C12.6525 6.928 12.5045 6.22 12.2995 5.618C12.7255 5.8415 13.2155 6 13.75 6C15.457 6 16.7135 4.383 16.851 4.1985C17.0495 3.9325 17.0495 3.567 16.851 3.301C16.7135 3.117 15.457 1.5 13.75 1.5C12.083 1.5 10.8485 3.0385 10.6635 3.2825C9.77849 2.655 8.77449 2.5 7.99999 2.5C7.58599 2.5 7.24999 2.8355 7.24999 3.25C7.24999 3.6645 7.58599 4 7.99999 4ZM13.75 3C14.2975 3 14.854 3.392 15.2365 3.75C14.854 4.108 14.2975 4.5 13.75 4.5C13.202 4.5 12.6455 4.108 12.2635 3.75C12.646 3.392 13.2025 3 13.75 3Z" fill="black"/>
</svg>
