<svg width="24" height="24" viewBox="0 0 24 24" fill="none" xmlns="http://www.w3.org/2000/svg">
<path d="M21.7805 20.7195L3.28049 2.2195C2.98749 1.9265 2.51299 1.9265 2.21999 2.2195C1.92699 2.5125 1.92699 2.987 2.21999 3.28L5.67099 6.731L5.29049 7.4915C5.10049 7.871 4.99999 8.2965 4.99999 8.722V20.25C4.99999 21.215 5.78499 22 6.74999 22H17.25C18.215 22 19 21.215 19 20.25V20.0605L20.7195 21.78C20.866 21.927 21.058 22 21.25 22C21.442 22 21.634 21.927 21.7805 21.7805C22.073 21.4875 22.073 21.0125 21.7805 20.7195ZM6.74999 20.5C6.61199 20.5 6.49999 20.3875 6.49999 20.25V9H7.93949L12.5 13.5605V20.5H6.74999ZM17.5 20.25C17.5 20.3875 17.388 20.5 17.25 20.5H14V15.0605L17.5 18.5605V20.25ZM8.71349 4H14.536L12.79 7.4915C12.7885 7.494 12.788 7.497 12.7865 7.5H10.701L14 10.7985V8.722C14 8.528 14.0455 8.3355 14.132 8.163L15.75 4.927L17.3675 8.162C17.4545 8.336 17.5 8.5295 17.5 8.722V14.2985L19 15.7985V8.722C19 8.298 18.9 7.8735 18.71 7.492L16.5 3.0725V2.25C16.5 1.836 16.1645 1.5 15.75 1.5H8.24999C7.83549 1.5 7.49999 1.836 7.49999 2.25V3.0725L7.09149 3.89L8.20949 5.008L8.71349 4Z" fill="black"/>
</svg>
