<svg width="24" height="24" viewBox="0 0 24 24" fill="none" xmlns="http://www.w3.org/2000/svg">
<path d="M21.7805 20.7195L3.28049 2.21951C2.98749 1.92651 2.51299 1.92651 2.21999 2.21951C1.92699 2.51251 1.92699 2.98701 2.21999 3.28001L6.27849 7.33851C4.53299 9.912 3.73599 13.818 3.63349 16.2265C3.53299 18.593 4.04999 19.1105 4.21999 19.28C4.82399 19.884 6.67399 20.247 8.87899 20.247C11.6825 20.247 15.0555 19.658 17.1755 18.236L20.7195 21.78C20.866 21.927 21.058 22 21.25 22C21.442 22 21.634 21.927 21.7805 21.7805C22.073 21.4875 22.073 21.0125 21.7805 20.7195ZM5.30449 18.2475C4.76949 17.4145 5.28149 11.674 7.34899 8.4095L16.095 17.1555C12.692 19.2325 6.03699 18.8275 5.30449 18.2475ZM10.521 5.71451C10.5085 5.80851 10.5 5.90351 10.5 6.00001C10.5 6.62851 10.7325 7.21801 11.1435 7.67001C11.1185 7.74001 11.1055 7.81351 11.087 7.8855L19.3135 16.112C21.2735 13.3195 20.9635 9.8985 18.3235 6.76651C16.536 4.64551 14.4895 3.63201 12.3725 3.73251C12.276 3.72201 12.1775 3.73001 12.0815 3.75801C10.866 3.87401 9.63049 4.35751 8.40949 5.20851L9.48699 6.28601C9.83349 6.06 10.178 5.86851 10.521 5.71451ZM12.5005 5.23451C12.5505 5.23301 12.601 5.22651 12.651 5.22651C13.6745 5.22651 14.67 5.57751 15.625 6.26801C15.56 6.28601 15.4995 6.31301 15.4465 6.353C15.0055 6.68551 15.1935 7.679 15.8665 8.572C16.5395 9.465 17.4425 9.92 17.884 9.5875C18.035 9.474 18.1065 9.27901 18.116 9.0415C18.867 10.297 19.1805 11.5445 19.061 12.7345C18.759 12.8955 18.363 13 18 13C17.465 13 17.0285 12.578 17.0065 12.04C16.996 11.787 16.859 11.5565 16.642 11.4265C16.4245 11.297 16.156 11.285 15.9295 11.396C15.243 11.7305 14.5 11.195 14.5 10.5C14.5 10.446 14.5105 10.3935 14.5185 10.342C14.5565 10.1045 14.479 9.864 14.31 9.6935C14.141 9.523 13.8995 9.4455 13.663 9.481C13.6095 9.4895 13.5555 9.5 13.5 9.5C12.9485 9.5 12.5 9.0515 12.5 8.5C12.5 8.294 12.5655 8.0935 12.69 7.92001C12.811 7.75101 12.8565 7.54001 12.816 7.33651C12.7755 7.13301 12.652 6.95501 12.476 6.846C12.178 6.66051 12 6.34401 12 6.00001C12 5.66501 12.2655 5.40251 12.5005 5.23451Z" fill="black"/>
</svg>
