<svg width="24" height="24" viewBox="0 0 24 24" fill="none" xmlns="http://www.w3.org/2000/svg">
<path d="M18.25 1.91113C16.333 1.91113 14.9433 3.16687 14.2168 4.02637C13.1038 3.67687 11.94 3.5 10.75 3.5C9.49051 3.5 8.30841 3.70052 7.23341 4.06152L8.44435 5.27246C9.16735 5.09646 9.94001 5 10.75 5C11.95 5 13.1172 5.2063 14.2197 5.6123C14.5372 5.7288 14.8904 5.61968 15.0869 5.34668C15.4374 4.86018 16.2955 3.83622 17.499 3.51172V7.50195C17.499 7.67595 17.5604 7.84354 17.6709 7.97754C18.3839 8.84404 18.828 9.8362 18.957 10.8457C19.005 11.2197 19.3237 11.501 19.7012 11.501H20.75C21.1635 11.501 21.5 11.8375 21.5 12.251C21.5 12.868 21.1367 13.4301 20.5742 13.6836L18.0108 14.8398L19.1445 15.9736L21.1904 15.0508C22.2899 14.5553 23 13.456 23 12.25C23 11.0095 21.9905 10 20.75 10H20.3281C20.1006 9.026 19.649 8.08526 19 7.23926V2.66113C19 2.24713 18.6645 1.91113 18.25 1.91113ZM2.7422 1.99219C2.59294 1.99222 2.44708 2.03679 2.32329 2.12019C2.1995 2.20358 2.10341 2.32202 2.04731 2.46033C1.9912 2.59865 1.97764 2.75056 2.00836 2.89662C2.03908 3.04269 2.11268 3.17627 2.21974 3.28027L4.47462 5.53516C4.03464 5.87865 3.63403 6.25873 3.28126 6.67285C2.86913 6.63747 2.59478 6.35752 2.3506 5.95996C2.08525 5.52795 1.97071 5.07617 1.97071 5.07617C1.9318 4.90377 1.83327 4.75065 1.69248 4.6438C1.55169 4.53696 1.3777 4.48327 1.20118 4.49219C1.09016 4.49783 0.981777 4.52808 0.883877 4.58074C0.785978 4.63341 0.70101 4.70718 0.63512 4.79672C0.56923 4.88625 0.524065 4.98932 0.502894 5.09845C0.481723 5.20758 0.485074 5.32006 0.512706 5.42773C0.512706 5.42773 0.663994 6.08038 1.07228 6.74512C1.34462 7.18853 1.78747 7.6837 2.39259 7.96094C1.8178 9.01609 1.50001 10.2127 1.50001 11.5C1.50001 12.337 1.66379 13.1555 1.98829 13.9365C1.91629 14.9775 1.72847 19.149 3.14747 21.165C3.51497 21.6875 4.12297 22 4.77247 22C5.33147 22 5.8667 21.7622 6.2422 21.3477C6.6202 20.9302 6.80453 20.3677 6.74903 19.8057C6.62053 18.5142 6.92863 17.8752 7.18263 17.5742C8.72013 18.7967 11.034 18.9947 12.416 18.9072L14.2598 21.2119C14.6608 21.7129 15.2574 22 15.8984 22C16.577 22 17.1952 21.6852 17.5947 21.1367C17.9942 20.5882 18.1045 19.9033 17.8965 19.2568L17.7539 18.8145L20.7197 21.7803C20.7888 21.8523 20.8716 21.9097 20.9632 21.9493C21.0548 21.9889 21.1534 22.0098 21.2532 22.0108C21.353 22.0118 21.4519 21.9929 21.5443 21.9552C21.6367 21.9175 21.7206 21.8617 21.7912 21.7912C21.8617 21.7206 21.9175 21.6367 21.9552 21.5443C21.9929 21.4519 22.0118 21.3529 22.0108 21.2532C22.0098 21.1534 21.9889 21.0548 21.9493 20.9632C21.9097 20.8716 21.8523 20.7888 21.7803 20.7197L3.28028 2.21973C3.21038 2.14773 3.12673 2.0905 3.03431 2.05142C2.94188 2.01233 2.84255 1.99219 2.7422 1.99219ZM5.54884 6.60938L15.4658 16.5264C15.47 16.5855 15.4782 16.6445 15.4971 16.7031L16.4688 19.7168C16.5283 19.9013 16.4968 20.0979 16.3828 20.2539C16.1618 20.5579 15.6667 20.5689 15.4317 20.2754L13.3369 17.6543C13.1934 17.4753 12.9775 17.3721 12.751 17.3721C12.7195 17.3721 12.6878 17.3749 12.6563 17.3789C11.7998 17.4899 9.06975 17.4884 7.80275 16.1094C7.60475 15.8944 7.30093 15.8123 7.02443 15.9023C6.93843 15.9293 4.92432 16.6061 5.25782 19.9541C5.27682 20.1471 5.18637 20.2793 5.13087 20.3408C5.07637 20.4008 4.95897 20.5 4.77247 20.5C4.61047 20.5 4.46103 20.4263 4.37403 20.3018C3.33703 18.8288 3.38958 15.1611 3.49708 13.8721C3.50758 13.7456 3.48658 13.618 3.43458 13.502C3.14608 12.8615 3.00001 12.188 3.00001 11.5C3.00001 9.50648 3.96909 7.7812 5.54884 6.60938ZM17.25 10C17.0511 10 16.8603 10.079 16.7197 10.2197C16.579 10.3603 16.5 10.5511 16.5 10.75C16.5 10.9489 16.579 11.1397 16.7197 11.2803C16.8603 11.421 17.0511 11.5 17.25 11.5C17.4489 11.5 17.6397 11.421 17.7803 11.2803C17.921 11.1397 18 10.9489 18 10.75C18 10.5511 17.921 10.3603 17.7803 10.2197C17.6397 10.079 17.4489 10 17.25 10Z" fill="black"/>
</svg>
