<svg width="24" height="24" viewBox="0 0 24 24" fill="none" xmlns="http://www.w3.org/2000/svg">
<path d="M2.74999 2C2.55812 2 2.36622 2.07323 2.21972 2.21973C1.92672 2.51223 1.92672 2.98777 2.21972 3.28027L7.2207 8.28125L4.57812 10.9238C2.89462 12.6068 2.60868 15.1936 3.80468 17.1836L2.46972 18.5186C2.32922 18.6591 2.24999 18.8508 2.24999 19.0498C2.24999 19.2488 2.32922 19.4391 2.46972 19.5801L4.41991 21.5303C4.56091 21.6708 4.75119 21.75 4.95019 21.75C5.14919 21.75 5.34044 21.6708 5.48144 21.5303L6.8164 20.1953C8.8064 21.3918 11.3932 21.1054 13.0762 19.4219L15.7187 16.7793L20.7197 21.7803C20.8657 21.9273 21.058 22 21.25 22C21.442 22 21.6338 21.9268 21.7803 21.7803C22.0728 21.4873 22.0728 21.0127 21.7803 20.7197L3.28027 2.21973C3.13377 2.07323 2.94187 2 2.74999 2ZM15.3643 2.24902C14.0687 2.21162 12.7963 2.70329 11.8506 3.64941L9.33691 6.16406L10.3975 7.22461L12.9121 4.71191C13.7781 3.84641 15.0425 3.53491 16.21 3.89941L17.9717 4.44824C18.4477 4.59624 18.938 4.64048 19.416 4.58398C19.3605 5.06098 19.4037 5.55182 19.5517 6.02832L20.1006 7.78906C20.4651 8.95756 20.1536 10.2224 19.2881 11.0879L16.7744 13.6016L17.835 14.6621L20.3486 12.1484C21.6096 10.8874 22.0642 9.04577 21.5332 7.34277L20.9834 5.58105C20.7629 4.87305 20.9511 4.10896 21.4746 3.58496C21.6211 3.43846 21.6943 3.24571 21.6943 3.05371C21.6943 2.86171 21.6211 2.66994 21.4746 2.52344C21.1816 2.23044 20.7071 2.23044 20.4141 2.52344C19.8901 3.04794 19.125 3.23565 18.418 3.01465L16.6562 2.46582C16.2304 2.33295 15.7961 2.26149 15.3643 2.24902ZM15.6484 5.04102C15.2839 5.00052 14.8794 5.56694 14.8389 6.33594C14.7984 7.30594 15.2847 7.70966 15.4062 7.99316C15.6487 7.66966 16.1348 7.22505 16.2158 6.45605C16.2968 5.72855 16.0134 5.08152 15.6484 5.04102ZM12.8965 6.47852C12.7874 6.47766 12.6927 6.50415 12.6211 6.56152C12.3346 6.79102 12.4489 7.4778 12.9639 8.0498C13.6214 8.76431 14.2506 8.70629 14.5371 8.82129C14.4801 8.42129 14.5099 7.76311 14.0234 7.16211C13.6803 6.73311 13.2239 6.48107 12.8965 6.47852ZM17.6982 7.65723C17.6108 7.65648 17.5216 7.66084 17.4307 7.6709C16.6617 7.7519 16.217 8.23797 15.8935 8.48047C16.177 8.60197 16.5813 9.08835 17.5518 9.04785C18.3208 9.00735 18.8862 8.60328 18.8457 8.23828C18.8103 7.91934 18.3101 7.66245 17.6982 7.65723ZM8.28124 9.3418L14.6572 15.7178L12.0146 18.3613C10.7091 19.6663 8.63733 19.7847 7.19433 18.6357C6.89583 18.3987 6.46726 18.4234 6.19726 18.6924L4.95019 19.9395L4.06054 19.0488L5.30663 17.8027C5.57663 17.5332 5.60077 17.1032 5.36327 16.8047C4.21477 15.3617 4.33269 13.2894 5.63769 11.9844L8.28124 9.3418ZM15.1787 9.46289C15.2937 9.74939 15.2352 10.3786 15.9502 11.0361C16.5227 11.5511 17.2095 11.6654 17.4385 11.3789C17.668 11.0924 17.4099 10.4341 16.8379 9.97656C16.2369 9.49006 15.5787 9.51989 15.1787 9.46289ZM8.21484 11.1602C8.10571 11.1593 8.01107 11.1859 7.93945 11.2432C7.65295 11.4727 7.76722 12.1585 8.28222 12.7305C8.93972 13.445 9.56994 13.3879 9.85644 13.5029C9.79944 13.1029 9.82829 12.4447 9.34179 11.8438C8.99866 11.4148 8.54221 11.1628 8.21484 11.1602ZM6.65429 12.7207C6.54516 12.7198 6.45052 12.7465 6.3789 12.8037C6.0924 13.0332 6.20667 13.719 6.72167 14.291C7.37917 15.0055 8.00939 14.9485 8.29589 15.0635C8.23889 14.6635 8.26774 14.0053 7.78124 13.4043C7.43812 12.9753 6.98166 12.7233 6.65429 12.7207ZM10.4971 14.1436C10.6121 14.4301 10.5545 15.0603 11.2695 15.7178C11.8415 16.2328 12.5273 16.347 12.7568 16.0605C12.9863 15.774 12.7282 15.1157 12.1562 14.6582C11.5552 14.1717 10.8971 14.2006 10.4971 14.1436ZM8.93652 15.7041C9.05152 15.9906 8.99398 16.6208 9.70898 17.2783C10.2815 17.7933 10.9673 17.9076 11.1963 17.6211C11.4253 17.3346 11.1677 16.6762 10.5957 16.2188C9.9947 15.7322 9.33652 15.7611 8.93652 15.7041Z" fill="black"/>
</svg>
