<svg width="24" height="24" viewBox="0 0 24 24" fill="none" xmlns="http://www.w3.org/2000/svg">
<path d="M19.25 1.5C15.5357 1.5 13.3147 3.15343 12.2285 4.84473C12.1976 4.8929 12.1757 4.94018 12.1465 4.98828C11.8704 4.54798 11.5535 4.19299 11.2305 3.92383C10.3293 3.17289 9.37305 3.00977 9.37305 3.00977C9.32376 3.00088 9.2737 2.99696 9.22363 2.99805C9.03514 3.00099 8.85466 3.0748 8.71813 3.20479C8.5816 3.33478 8.49902 3.51141 8.48683 3.69953C8.47464 3.88766 8.53374 4.07347 8.65235 4.21999C8.77097 4.36651 8.94041 4.463 9.12695 4.49023C9.12695 4.49023 9.67066 4.57711 10.2695 5.07617C10.5444 5.30525 10.8234 5.61773 11.0479 6.05664C6.80936 6.53243 3.5 10.137 3.5 14.5C3.5 19.1854 7.31463 23 12 23C16.6854 23 20.5 19.1854 20.5 14.5C20.5 11.8014 19.2382 9.3889 17.2705 7.83105C18.3204 7.20819 19.0111 6.40451 19.4209 5.58496C20.2902 3.84645 19.9902 2.12695 19.9902 2.12695C19.9611 1.95172 19.8707 1.79252 19.7351 1.67771C19.5996 1.56289 19.4276 1.49992 19.25 1.5ZM18.5283 3.07715C18.5147 3.56699 18.4315 4.21017 18.0791 4.91504C17.4937 6.08579 16.1817 7.2696 12.957 7.43848C12.9409 7.28781 12.9141 7.14858 12.8896 7.00684C12.9949 6.61022 13.1851 6.1319 13.4912 5.65527C14.2618 4.45548 15.7628 3.27384 18.5283 3.07715ZM11.2939 7.53516C11.2826 7.74629 11.2854 7.94975 11.3271 8.14746C11.3585 8.29582 11.4017 8.44989 11.5283 8.62402C11.593 8.71297 11.6995 8.80805 11.8291 8.88086C11.9107 8.93607 12.0024 8.97466 12.0989 8.99443C12.1954 9.0142 12.2949 9.01477 12.3916 8.99609C13.6699 8.98411 14.753 8.81578 15.6621 8.53516C17.6639 9.76701 19 11.9715 19 14.5C19 18.3746 15.8746 21.5 12 21.5C8.12537 21.5 5 18.3746 5 14.5C5 10.8639 7.75287 7.88782 11.2939 7.53516ZM16.25 12.5C16.0511 12.5 15.8603 12.579 15.7197 12.7197C15.579 12.8603 15.5 13.0511 15.5 13.25C15.5 13.4489 15.579 13.6397 15.7197 13.7803C15.8603 13.921 16.0511 14 16.25 14C16.4489 14 16.6397 13.921 16.7803 13.7803C16.921 13.6397 17 13.4489 17 13.25C17 13.0511 16.921 12.8603 16.7803 12.7197C16.6397 12.579 16.4489 12.5 16.25 12.5ZM14.25 15C14.0511 15 13.8603 15.079 13.7197 15.2197C13.579 15.3603 13.5 15.5511 13.5 15.75C13.5 15.9489 13.579 16.1397 13.7197 16.2803C13.8603 16.421 14.0511 16.5 14.25 16.5C14.4489 16.5 14.6397 16.421 14.7803 16.2803C14.921 16.1397 15 15.9489 15 15.75C15 15.5511 14.921 15.3603 14.7803 15.2197C14.6397 15.079 14.4489 15 14.25 15ZM17.25 15C17.0511 15 16.8603 15.079 16.7197 15.2197C16.579 15.3603 16.5 15.5511 16.5 15.75C16.5 15.9489 16.579 16.1397 16.7197 16.2803C16.8603 16.421 17.0511 16.5 17.25 16.5C17.4489 16.5 17.6397 16.421 17.7803 16.2803C17.921 16.1397 18 15.9489 18 15.75C18 15.5511 17.921 15.3603 17.7803 15.2197C17.6397 15.079 17.4489 15 17.25 15ZM15.75 17.5C15.5511 17.5 15.3603 17.579 15.2197 17.7197C15.079 17.8603 15 18.0511 15 18.25C15 18.4489 15.079 18.6397 15.2197 18.7803C15.3603 18.921 15.5511 19 15.75 19C15.9489 19 16.1397 18.921 16.2803 18.7803C16.421 18.6397 16.5 18.4489 16.5 18.25C16.5 18.0511 16.421 17.8603 16.2803 17.7197C16.1397 17.579 15.9489 17.5 15.75 17.5Z" fill="black"/>
</svg>
