<svg width="24" height="24" viewBox="0 0 24 24" fill="none" xmlns="http://www.w3.org/2000/svg">
<path d="M17.1489 2C17.1489 1.58579 16.8131 1.25 16.3989 1.25C15.9847 1.25 15.6489 1.58579 15.6489 2V4.31325C15.6436 4.34469 15.6396 4.37639 15.637 4.40825C15.5457 5.51503 14.9364 6.47713 14.0487 7.04932C13.7455 7.2447 13.5312 7.58899 13.5312 7.98945V12.6466C13.5312 13.2557 14.0251 13.7495 14.6342 13.7495H22.1048C22.7139 13.7495 23.2077 13.2557 23.2077 12.6466V7.98945C23.2077 7.58899 22.9935 7.2447 22.6903 7.04932C21.8025 6.47713 21.1933 5.51503 21.102 4.40825C21.0994 4.37599 21.0953 4.3439 21.0898 4.31207V2C21.0898 1.58579 20.7541 1.25 20.3398 1.25C19.9256 1.25 19.5898 1.58579 19.5898 2V3.36719H17.1489V2Z" fill="black"/>
<path d="M4.00828 6.08198C4.18965 5.02367 5.10719 4.25 6.18093 4.25H8.38148C9.45522 4.25 10.3728 5.02367 10.5541 6.08198L10.7385 7.15777L10.6838 7.26719C10.0841 7.73547 9.39782 8.08163 8.66392 8.28555L8.52693 8.32362C8.37872 8.3648 8.22732 8.39351 8.07431 8.40945L7.70585 8.44785C7.4235 8.47727 7.13885 8.47727 6.85649 8.44785L6.48803 8.40945C6.33503 8.39351 6.18363 8.3648 6.03542 8.32361L5.89843 8.28555C5.16453 8.08163 4.47829 7.73547 3.87856 7.26719L3.8239 7.15788L4.00828 6.08198Z" fill="black"/>
<path d="M2.53959 7.94335C2.47382 7.98864 2.41069 8.03548 2.35037 8.08388C1.88876 8.45429 1.53125 8.97173 1.53125 9.61564C1.53125 10.1645 1.81232 10.6115 2.15876 10.9392C2.50361 11.2654 2.96238 11.5247 3.4671 11.7266C4.48069 12.1322 5.82952 12.3663 7.28125 12.3663C8.73297 12.3663 10.0818 12.1322 11.0954 11.7266C11.6001 11.5247 12.0589 11.2654 12.4037 10.9392C12.7502 10.6115 13.0312 10.1645 13.0312 9.61564C13.0312 8.95427 12.6423 8.43646 12.1771 8.07598C12.1251 8.03569 12.0711 7.99648 12.0153 7.95832L11.9673 8.05436C11.9097 8.16939 11.8285 8.27091 11.7288 8.35221C10.9459 8.99088 10.039 9.46029 9.0655 9.7308L8.92851 9.76886C8.6997 9.83244 8.46597 9.87676 8.22977 9.90138L7.86131 9.93977C7.4756 9.97996 7.08675 9.97996 6.70104 9.93977L6.33258 9.90138C6.09638 9.87676 5.86265 9.83244 5.63384 9.76886L5.49685 9.7308C4.52333 9.46029 3.61648 8.99088 2.83354 8.35221C2.73388 8.27091 2.65261 8.16939 2.59509 8.05436L2.53959 7.94335Z" fill="black"/>
<path fill-rule="evenodd" clip-rule="evenodd" d="M3.10587 21.195H3.89136C4.13903 21.5104 4.48014 21.74 4.86632 21.8504L6.75666 22.6765C7.09915 22.7744 7.46239 22.7745 7.80488 22.6765L9.69522 21.8505C10.0814 21.74 10.4226 21.5104 10.6703 21.195H11.4565C12.6812 21.195 13.8123 20.2841 13.8123 18.9999C13.8123 17.7156 12.6812 16.8047 11.4565 16.8047H10.6701C10.4225 16.4894 10.0813 16.2599 9.69522 16.1495L7.80503 15.3235C7.46254 15.2255 7.0993 15.2255 6.75681 15.3234L4.86647 16.1495C4.48039 16.2599 4.13922 16.4894 3.89155 16.8047H3.10587C1.88038 16.8047 0.75 17.7157 0.75 18.9999C0.75 20.284 1.88038 21.195 3.10587 21.195ZM3.10587 18.3047C2.55669 18.3047 2.25 18.6885 2.25 18.9999C2.25 19.3112 2.55669 19.695 3.10587 19.695H3.48438L3.48438 18.3047H3.10587ZM11.4565 19.695H11.0773V18.3047H11.4565C12.0052 18.3047 12.3123 18.6887 12.3123 18.9999C12.3123 19.311 12.0052 19.695 11.4565 19.695Z" fill="black"/>
<path fill-rule="evenodd" clip-rule="evenodd" d="M19.2812 15.25C18.2867 15.25 17.3329 15.6451 16.6296 16.3483C15.9263 17.0516 15.5312 18.0054 15.5312 19C15.5312 19.9946 15.9263 20.9484 16.6296 21.6517C17.3329 22.3549 18.2867 22.75 19.2812 22.75C20.2758 22.75 21.2296 22.3549 21.9329 21.6517C22.6362 20.9484 23.0312 19.9946 23.0312 19C23.0312 18.0054 22.6362 17.0516 21.9329 16.3483C21.2296 15.6451 20.2758 15.25 19.2812 15.25ZM17.6903 17.409C18.1122 16.9871 18.6845 16.75 19.2812 16.75C19.62 16.75 19.9509 16.8264 20.2509 16.9697L17.2509 19.9697C17.1077 19.6697 17.0312 19.3388 17.0312 19C17.0312 18.4033 17.2683 17.831 17.6903 17.409ZM18.3116 21.0303L21.3116 18.0303C21.4548 18.3303 21.5312 18.6612 21.5312 19C21.5312 19.5967 21.2942 20.169 20.8722 20.591C20.4503 21.0129 19.878 21.25 19.2812 21.25C18.9425 21.25 18.6116 21.1736 18.3116 21.0303Z" fill="black"/>
</svg>
