<svg width="24" height="24" viewBox="0 0 24 24" fill="none" xmlns="http://www.w3.org/2000/svg">
<path d="M13.75 0.500014C12.875 0.500014 12.1778 0.730464 11.7197 1.18849C11.2617 1.64652 11.125 2.25001 11.125 2.75001C11.125 3.10766 11.2135 3.38996 11.2881 3.67482C10.2494 3.87099 9.28607 4.36354 8.5498 5.19728C7.64212 6.22513 6.99969 7.61692 6.69629 9.20021C6.51452 10.149 6.00681 11.0252 5.30859 11.7832C4.1889 12.9989 3.5 14.5564 3.5 16.25C3.5 20.3233 7.38005 23.5 12 23.5C16.62 23.5 20.5 20.3233 20.5 16.25C20.5 14.5564 19.811 12.9983 18.6914 11.7822C17.9935 11.0246 17.4861 10.1491 17.3037 9.20021V9.19923C17.0002 7.6166 16.3577 6.22485 15.4502 5.19728C14.752 4.40675 13.8445 3.93892 12.8701 3.71388C12.8002 3.54449 12.625 3.16371 12.625 2.75001C12.625 2.50001 12.6758 2.35351 12.7803 2.24904C12.8847 2.14456 13.125 2.00001 13.75 2.00001C13.8494 2.00142 13.9481 1.98306 14.0403 1.946C14.1325 1.90894 14.2164 1.85392 14.2872 1.78413C14.358 1.71435 14.4142 1.6312 14.4526 1.5395C14.4909 1.44781 14.5107 1.34941 14.5107 1.25001C14.5107 1.15062 14.4909 1.05222 14.4526 0.960525C14.4142 0.868832 14.358 0.785677 14.2872 0.715894C14.2164 0.646111 14.1325 0.59109 14.0403 0.55403C13.9481 0.516969 13.8494 0.498608 13.75 0.500014ZM12 5.00001C12.8394 5.00001 13.6344 5.4071 14.3262 6.19044C15.018 6.97379 15.5715 8.12799 15.8311 9.48244C16.0778 10.7672 16.745 11.8838 17.5879 12.7988C18.4863 13.7747 19 14.9596 19 16.25C19 19.3567 15.94 22 12 22C8.05995 22 5 19.3567 5 16.25C5 14.9596 5.51381 13.7742 6.41211 12.7988C7.25489 11.8839 7.92272 10.7677 8.16895 9.48244C8.42854 8.12773 8.98202 6.97384 9.67383 6.19044C10.3656 5.40705 11.1606 5.00001 12 5.00001Z" fill="black"/>
</svg>
