<svg width="24" height="24" viewBox="0 0 24 24" fill="none" xmlns="http://www.w3.org/2000/svg">
<path d="M20.1386 2.48926C20.0084 2.48261 19.8219 2.47927 19.5957 2.49219C19.1432 2.51802 18.5334 2.60928 17.9023 2.86914C16.6401 3.38888 15.2794 4.69579 15.0048 7.16699C14.7841 9.15337 13.6254 10.4195 11.9501 11.3438C10.2749 12.268 8.10375 12.7625 6.15718 13.0059C3.94727 13.2821 2.5948 14.4432 1.87593 15.5215C1.15706 16.5998 1.00777 17.6436 1.00777 17.6436C0.980858 17.8306 1.02556 18.0209 1.13292 18.1765C1.24029 18.332 1.40241 18.4413 1.58687 18.4824C1.58687 18.4824 7.296 19.7856 12.3496 18.6699C14.8763 18.1121 17.3132 16.9092 18.6464 14.5303C19.9552 12.195 20.0961 8.85179 18.5253 4.24414C19.3664 3.91645 20.1572 3.99414 20.1572 3.99414C20.256 4.00862 20.3567 4.00323 20.4534 3.97828C20.5501 3.95333 20.6408 3.90933 20.7203 3.84884C20.7997 3.78836 20.8663 3.71262 20.9161 3.62607C20.9659 3.53951 20.9979 3.44388 21.0103 3.34479C21.0226 3.2457 21.0151 3.14514 20.988 3.04901C20.961 2.95287 20.9151 2.8631 20.8529 2.78496C20.7907 2.70682 20.7136 2.64189 20.626 2.59396C20.5384 2.54603 20.4421 2.51608 20.3427 2.50586C20.3427 2.50586 20.2688 2.49591 20.1386 2.48926ZM17.2343 5.1875C17.3816 5.64805 17.5033 6.08583 17.6132 6.5127C17.4295 6.54694 17.2652 6.64856 17.1524 6.79764C17.0397 6.94673 16.9867 7.13253 17.0038 7.31866C17.0209 7.50478 17.1069 7.67781 17.2449 7.80384C17.3829 7.92987 17.563 7.99983 17.75 8C17.8129 7.99972 17.8756 7.99152 17.9365 7.97559C18.3914 10.571 18.0897 12.4562 17.3378 13.7979C16.2805 15.6846 14.3111 16.7004 12.0253 17.2051C9.59348 17.742 7.1131 17.6776 5.28218 17.498C5.47464 17.485 5.65467 17.3983 5.78485 17.2559C5.91503 17.1135 5.98535 16.9265 5.9812 16.7336C5.97705 16.5408 5.89875 16.3569 5.76257 16.2203C5.62639 16.0837 5.4428 16.0048 5.24995 16C5.06587 16 4.88823 16.0678 4.75085 16.1903C4.61347 16.3128 4.52596 16.4816 4.50497 16.6645C4.48398 16.8474 4.53098 17.0316 4.63702 17.182C4.74306 17.3325 4.90074 17.4387 5.08003 17.4805C3.99123 17.366 3.15493 17.2141 2.74116 17.1348C2.83655 16.8952 2.92637 16.6499 3.12398 16.3535C3.6551 15.5568 4.55263 14.7179 6.34273 14.4941C8.39616 14.2375 10.725 13.732 12.6748 12.6563C14.6245 11.5805 16.2158 9.84663 16.4951 7.33301C16.6065 6.33041 16.882 5.65804 17.2343 5.1875ZM17.25 9C17.051 9 16.8603 9.07902 16.7196 9.21967C16.579 9.36032 16.5 9.55109 16.5 9.75C16.5 9.94891 16.579 10.1397 16.7196 10.2803C16.8603 10.421 17.051 10.5 17.25 10.5C17.4489 10.5 17.6396 10.421 17.7803 10.2803C17.9209 10.1397 18 9.94891 18 9.75C18 9.55109 17.9209 9.36032 17.7803 9.21967C17.6396 9.07902 17.4489 9 17.25 9ZM16 11.5C15.7347 11.5 15.4804 11.6054 15.2928 11.7929C15.1053 11.9804 15 12.2348 15 12.5C15 12.7652 15.1053 13.0196 15.2928 13.2071C15.4804 13.3946 15.7347 13.5 16 13.5C16.2652 13.5 16.5195 13.3946 16.7071 13.2071C16.8946 13.0196 17 12.7652 17 12.5C17 12.2348 16.8946 11.9804 16.7071 11.7929C16.5195 11.6054 16.2652 11.5 16 11.5ZM13.75 13.5C13.4184 13.5 13.1005 13.6317 12.8661 13.8661C12.6316 14.1005 12.5 14.4185 12.5 14.75C12.5 15.0815 12.6316 15.3995 12.8661 15.6339C13.1005 15.8683 13.4184 16 13.75 16C14.0815 16 14.3994 15.8683 14.6338 15.6339C14.8683 15.3995 15 15.0815 15 14.75C15 14.4185 14.8683 14.1005 14.6338 13.8661C14.3994 13.6317 14.0815 13.5 13.75 13.5ZM10.5 14.5C10.2347 14.5 9.98038 14.6054 9.79285 14.7929C9.60531 14.9804 9.49995 15.2348 9.49995 15.5C9.49995 15.7652 9.60531 16.0196 9.79285 16.2071C9.98038 16.3946 10.2347 16.5 10.5 16.5C10.7652 16.5 11.0195 16.3946 11.2071 16.2071C11.3946 16.0196 11.5 15.7652 11.5 15.5C11.5 15.2348 11.3946 14.9804 11.2071 14.7929C11.0195 14.6054 10.7652 14.5 10.5 14.5ZM7.74995 15.5C7.55104 15.5 7.36027 15.579 7.21962 15.7197C7.07897 15.8603 6.99995 16.0511 6.99995 16.25C6.99995 16.4489 7.07897 16.6397 7.21962 16.7803C7.36027 16.921 7.55104 17 7.74995 17C7.94886 17 8.13963 16.921 8.28028 16.7803C8.42093 16.6397 8.49995 16.4489 8.49995 16.25C8.49995 16.0511 8.42093 15.8603 8.28028 15.7197C8.13963 15.579 7.94886 15.5 7.74995 15.5Z" fill="black"/>
</svg>
