<svg width="24" height="24" viewBox="0 0 24 24" fill="none" xmlns="http://www.w3.org/2000/svg">
<path d="M10.25 1.50001C10.1506 1.49861 10.0519 1.51697 9.95972 1.55403C9.86749 1.59109 9.78355 1.64611 9.71277 1.71589C9.642 1.78568 9.58579 1.86883 9.54743 1.96052C9.50907 2.05222 9.48932 2.15062 9.48932 2.25001C9.48932 2.34941 9.50907 2.44781 9.54743 2.5395C9.58579 2.6312 9.642 2.71435 9.71277 2.78413C9.78355 2.85392 9.86749 2.90894 9.95972 2.946C10.0519 2.98306 10.1506 3.00142 10.25 3.00001C10.25 3.00001 10.6377 2.99898 11.0703 3.30177C11.4116 3.54065 11.7261 4.09925 11.8721 5.03224C11.6964 4.88442 11.5446 4.71217 11.3271 4.60939C10.5753 4.25403 9.6637 4.24864 8.56836 4.52248C6.9894 4.91721 5.83564 6.1788 5.09863 7.7549C4.36162 9.33099 4 11.2636 4 13.25C4 15.8816 4.76842 18.1706 6.06348 19.8262C7.35854 21.4818 9.20921 22.5 11.25 22.5C15.3275 22.5 19 18.6289 19 13.75C19 9.32354 17.3634 6.99925 15.6475 5.92677C14.8519 5.42952 14.0665 5.21036 13.4355 5.10158C13.2814 3.57353 12.6458 2.57452 11.9297 2.07326C11.1123 1.50105 10.25 1.50001 10.25 1.50001ZM10.0225 5.82716C10.3061 5.83259 10.5192 5.88579 10.6865 5.96486C11.0211 6.123 11.2853 6.43204 11.5674 7.01076C12.5369 8.99978 13.9639 12.6671 11.5674 17.9395C11.5244 18.0294 11.4997 18.127 11.4949 18.2266C11.49 18.3262 11.5051 18.4258 11.5391 18.5195C11.5732 18.6132 11.6257 18.6992 11.6934 18.7724C11.7611 18.8456 11.8427 18.9046 11.9334 18.9459C12.0242 18.9871 12.1223 19.0099 12.222 19.0129C12.3216 19.0158 12.4209 18.9988 12.5139 18.963C12.6069 18.9271 12.6919 18.873 12.7638 18.8039C12.8357 18.7348 12.8931 18.6521 12.9326 18.5606C15.4756 12.966 14.0348 8.73589 12.9912 6.54005C13.4775 6.59646 14.1214 6.74131 14.8525 7.19826C16.1366 8.00078 17.5 9.67649 17.5 13.75C17.5 17.8711 14.3525 21 11.25 21C9.70079 21 8.30158 20.2532 7.24414 18.9014C6.1867 17.5496 5.5 15.5889 5.5 13.25C5.5 11.4495 5.84204 9.70579 6.45703 8.39064C7.07202 7.07548 7.9186 6.23081 8.93164 5.97755C9.38397 5.86447 9.73882 5.82173 10.0225 5.82716Z" fill="black"/>
</svg>
