<svg width="24" height="24" viewBox="0 0 24 24" fill="none" xmlns="http://www.w3.org/2000/svg">
<path d="M12.2373 1.49998C12.116 1.50206 11.997 1.53353 11.8905 1.5917C11.784 1.64987 11.6933 1.73301 11.626 1.83397L10.9189 2.89451L9.43164 2.52244C9.27392 2.48313 9.1077 2.49611 8.95799 2.55944C8.80829 2.62276 8.68321 2.73301 8.60158 2.87357C8.51995 3.01414 8.48619 3.17741 8.50539 3.33882C8.52458 3.50023 8.59569 3.65104 8.70801 3.76854L9.67187 4.7744C5.68134 5.64995 2.5 8.64229 2.5 13C2.5 15.8579 3.77604 18.3278 5.79297 19.9717C7.47541 21.343 9.60205 22 11.7344 22H12.7666C14.8986 22 17.0246 21.3424 18.707 19.9717C20.7234 18.3278 22 15.8579 22 13C22 8.62962 18.7998 5.6333 14.793 4.76756L15.7803 3.78026C15.8961 3.66426 15.9707 3.51352 15.9927 3.3511C16.0147 3.18868 15.9829 3.02352 15.9022 2.88087C15.8215 2.73823 15.6962 2.62596 15.5456 2.56123C15.3951 2.4965 15.2274 2.48288 15.0684 2.52244L13.5811 2.89451L12.874 1.83397C12.8044 1.72943 12.7095 1.64407 12.5983 1.58571C12.487 1.52736 12.3629 1.49788 12.2373 1.49998ZM10.8311 6.10838C11.2023 6.13808 11.5 6.45701 11.5 6.86229V7.24998C11.4997 7.27508 11.5007 7.30018 11.5029 7.32518C11.5049 7.35007 11.5082 7.37484 11.5127 7.3994C11.5174 7.42376 11.5232 7.44788 11.5303 7.47166C11.5372 7.49582 11.5454 7.51961 11.5547 7.54295C11.5643 7.56627 11.575 7.58908 11.5869 7.61131C11.5985 7.63342 11.6112 7.65493 11.625 7.67576C11.6665 7.73832 11.7172 7.79428 11.7754 7.84178C11.8142 7.87322 11.8561 7.9007 11.9004 7.92381C11.9446 7.94727 11.9911 7.96625 12.0391 7.98045C12.0632 7.98753 12.0876 7.9934 12.1123 7.99803C12.1369 8.00252 12.1616 8.00578 12.1865 8.0078C12.2363 8.01212 12.2863 8.01147 12.3359 8.00584C12.3609 8.00286 12.3856 7.99862 12.4102 7.99315C12.4346 7.98784 12.4587 7.98133 12.4824 7.97362C12.5063 7.96601 12.5298 7.95721 12.5527 7.94725C12.5754 7.93697 12.5976 7.92556 12.6191 7.91307C12.6846 7.87628 12.7442 7.82986 12.7959 7.77537C12.8476 7.72062 12.8907 7.6584 12.9238 7.5908C12.9457 7.54577 12.9631 7.49866 12.9756 7.45018C12.9927 7.38485 13.0009 7.31751 13 7.24998V6.86229C13 6.39911 13.3891 6.04912 13.832 6.11424C17.6332 6.67313 20.5 9.12234 20.5 13C20.5 15.4171 19.4514 17.4295 17.7598 18.8086C16.7669 19.6175 15.5653 20.1317 14.293 20.3603C13.6785 19.8267 12.8743 19.5 12 19.5C11.1716 19.5 10.4053 19.7943 9.80469 20.2793C8.68235 20.02 7.62868 19.5319 6.74121 18.8086C5.04914 17.4295 4 15.4171 4 13C4 9.12234 6.86679 6.67313 10.668 6.11424C10.7233 6.1061 10.778 6.10414 10.8311 6.10838ZM9.25 8.49998C9.05109 8.49998 8.86032 8.579 8.71967 8.71965C8.57902 8.86031 8.5 9.05107 8.5 9.24998C8.5 9.4489 8.57902 9.63966 8.71967 9.78031C8.86032 9.92096 9.05109 9.99998 9.25 9.99998C9.44891 9.99998 9.63968 9.92096 9.78033 9.78031C9.92098 9.63966 10 9.4489 10 9.24998C10 9.05107 9.92098 8.86031 9.78033 8.71965C9.63968 8.579 9.44891 8.49998 9.25 8.49998ZM15.25 8.49998C15.0511 8.49998 14.8603 8.579 14.7197 8.71965C14.579 8.86031 14.5 9.05107 14.5 9.24998C14.5 9.4489 14.579 9.63966 14.7197 9.78031C14.8603 9.92096 15.0511 9.99998 15.25 9.99998C15.4489 9.99998 15.6397 9.92096 15.7803 9.78031C15.921 9.63966 16 9.4489 16 9.24998C16 9.05107 15.921 8.86031 15.7803 8.71965C15.6397 8.579 15.4489 8.49998 15.25 8.49998ZM6.75 10.5C6.55109 10.5 6.36032 10.579 6.21967 10.7197C6.07902 10.8603 6 11.0511 6 11.25C6 11.4489 6.07902 11.6397 6.21967 11.7803C6.36032 11.921 6.55109 12 6.75 12C6.94891 12 7.13968 11.921 7.28033 11.7803C7.42098 11.6397 7.5 11.4489 7.5 11.25C7.5 11.0511 7.42098 10.8603 7.28033 10.7197C7.13968 10.579 6.94891 10.5 6.75 10.5ZM12.25 10.5C12.0511 10.5 11.8603 10.579 11.7197 10.7197C11.579 10.8603 11.5 11.0511 11.5 11.25C11.5 11.4489 11.579 11.6397 11.7197 11.7803C11.8603 11.921 12.0511 12 12.25 12C12.4489 12 12.6397 11.921 12.7803 11.7803C12.921 11.6397 13 11.4489 13 11.25C13 11.0511 12.921 10.8603 12.7803 10.7197C12.6397 10.579 12.4489 10.5 12.25 10.5ZM17.75 10.5C17.5511 10.5 17.3603 10.579 17.2197 10.7197C17.079 10.8603 17 11.0511 17 11.25C17 11.4489 17.079 11.6397 17.2197 11.7803C17.3603 11.921 17.5511 12 17.75 12C17.9489 12 18.1397 11.921 18.2803 11.7803C18.421 11.6397 18.5 11.4489 18.5 11.25C18.5 11.0511 18.421 10.8603 18.2803 10.7197C18.1397 10.579 17.9489 10.5 17.75 10.5ZM9.75 12.5C9.55109 12.5 9.36032 12.579 9.21967 12.7197C9.07902 12.8603 9 13.0511 9 13.25C9 13.4489 9.07902 13.6397 9.21967 13.7803C9.36032 13.921 9.55109 14 9.75 14C9.94891 14 10.1397 13.921 10.2803 13.7803C10.421 13.6397 10.5 13.4489 10.5 13.25C10.5 13.0511 10.421 12.8603 10.2803 12.7197C10.1397 12.579 9.94891 12.5 9.75 12.5ZM14.75 12.5C14.5511 12.5 14.3603 12.579 14.2197 12.7197C14.079 12.8603 14 13.0511 14 13.25C14 13.4489 14.079 13.6397 14.2197 13.7803C14.3603 13.921 14.5511 14 14.75 14C14.9489 14 15.1397 13.921 15.2803 13.7803C15.421 13.6397 15.5 13.4489 15.5 13.25C15.5 13.0511 15.421 12.8603 15.2803 12.7197C15.1397 12.579 14.9489 12.5 14.75 12.5ZM7.25 14.5C7.05109 14.5 6.86032 14.579 6.71967 14.7197C6.57902 14.8603 6.5 15.0511 6.5 15.25C6.5 15.4489 6.57902 15.6397 6.71967 15.7803C6.86032 15.921 7.05109 16 7.25 16C7.44891 16 7.63968 15.921 7.78033 15.7803C7.92098 15.6397 8 15.4489 8 15.25C8 15.0511 7.92098 14.8603 7.78033 14.7197C7.63968 14.579 7.44891 14.5 7.25 14.5ZM12.25 14.5C12.0511 14.5 11.8603 14.579 11.7197 14.7197C11.579 14.8603 11.5 15.0511 11.5 15.25C11.5 15.4489 11.579 15.6397 11.7197 15.7803C11.8603 15.921 12.0511 16 12.25 16C12.4489 16 12.6397 15.921 12.7803 15.7803C12.921 15.6397 13 15.4489 13 15.25C13 15.0511 12.921 14.8603 12.7803 14.7197C12.6397 14.579 12.4489 14.5 12.25 14.5ZM17.25 14.5C17.0511 14.5 16.8603 14.579 16.7197 14.7197C16.579 14.8603 16.5 15.0511 16.5 15.25C16.5 15.4489 16.579 15.6397 16.7197 15.7803C16.8603 15.921 17.0511 16 17.25 16C17.4489 16 17.6397 15.921 17.7803 15.7803C17.921 15.6397 18 15.4489 18 15.25C18 15.0511 17.921 14.8603 17.7803 14.7197C17.6397 14.579 17.4489 14.5 17.25 14.5ZM9.75 17C9.55109 17 9.36032 17.079 9.21967 17.2197C9.07902 17.3603 9 17.5511 9 17.75C9 17.9489 9.07902 18.1397 9.21967 18.2803C9.36032 18.421 9.55109 18.5 9.75 18.5C9.94891 18.5 10.1397 18.421 10.2803 18.2803C10.421 18.1397 10.5 17.9489 10.5 17.75C10.5 17.5511 10.421 17.3603 10.2803 17.2197C10.1397 17.079 9.94891 17 9.75 17ZM14.75 17C14.5511 17 14.3603 17.079 14.2197 17.2197C14.079 17.3603 14 17.5511 14 17.75C14 17.9489 14.079 18.1397 14.2197 18.2803C14.3603 18.421 14.5511 18.5 14.75 18.5C14.9489 18.5 15.1397 18.421 15.2803 18.2803C15.421 18.1397 15.5 17.9489 15.5 17.75C15.5 17.5511 15.421 17.3603 15.2803 17.2197C15.1397 17.079 14.9489 17 14.75 17Z" fill="black"/>
</svg>
