<svg width="24" height="24" viewBox="0 0 24 24" fill="none" xmlns="http://www.w3.org/2000/svg">
<path d="M15.5 2C13.7585 2 12.5508 2.58342 11.5488 3.40918C11.5415 3.41508 11.5267 3.42645 11.501 3.44824C10.0867 4.62884 8.93546 6.18788 6.12402 7.81934C3.55325 9.07657 1.77832 11.7145 1.77832 14.7637C1.77832 19.027 5.24983 22.5 9.51367 22.5C13.6945 22.5 16.8384 20.8828 18.8467 18.2695C20.855 15.6563 21.75 12.1167 21.75 8.25C21.75 4.80715 18.9429 2 15.5 2ZM15.5 3.5C18.1321 3.5 20.25 5.61785 20.25 8.25C20.25 11.8833 19.3954 15.0937 17.6572 17.3555C15.919 19.6172 13.3188 21 9.51367 21C6.06051 21 3.27832 18.2163 3.27832 14.7637C3.27832 12.2787 4.72945 10.1498 6.82519 9.14453C6.8428 9.13609 6.86006 9.12697 6.87695 9.11719C9.89789 7.36416 11.2619 5.60069 12.4658 4.59668C12.4671 4.59538 12.4684 4.59408 12.4697 4.59277C12.4682 4.59402 12.4795 4.58606 12.5 4.56934C12.501 4.56836 12.502 4.56739 12.5029 4.56641C13.3489 3.86916 14.0575 3.5 15.5 3.5ZM16.5 7.75C16.2348 7.75 15.9804 7.85536 15.7929 8.04289C15.6054 8.23043 15.5 8.48478 15.5 8.75C15.5 9.01522 15.6054 9.26957 15.7929 9.45711C15.9804 9.64464 16.2348 9.75 16.5 9.75C16.7652 9.75 17.0196 9.64464 17.2071 9.45711C17.3946 9.26957 17.5 9.01522 17.5 8.75C17.5 8.48478 17.3946 8.23043 17.2071 8.04289C17.0196 7.85536 16.7652 7.75 16.5 7.75ZM10 10.75C9.73478 10.75 9.48043 10.8554 9.29289 11.0429C9.10536 11.2304 9 11.4848 9 11.75C9 12.0152 9.10536 12.2696 9.29289 12.4571C9.48043 12.6446 9.73478 12.75 10 12.75C10.2652 12.75 10.5196 12.6446 10.7071 12.4571C10.8946 12.2696 11 12.0152 11 11.75C11 11.4848 10.8946 11.2304 10.7071 11.0429C10.5196 10.8554 10.2652 10.75 10 10.75ZM13 16.25C12.7348 16.25 12.4804 16.3554 12.2929 16.5429C12.1054 16.7304 12 16.9848 12 17.25C12 17.5152 12.1054 17.7696 12.2929 17.9571C12.4804 18.1446 12.7348 18.25 13 18.25C13.2652 18.25 13.5196 18.1446 13.7071 17.9571C13.8946 17.7696 14 17.5152 14 17.25C14 16.9848 13.8946 16.7304 13.7071 16.5429C13.5196 16.3554 13.2652 16.25 13 16.25Z" fill="black"/>
</svg>
