<svg width="24" height="24" viewBox="0 0 24 24" fill="none" xmlns="http://www.w3.org/2000/svg">
<path d="M21.9995 8.22148C21.8765 4.97248 19.0275 2.12348 15.7785 2.00048C12.916 1.89398 10.746 3.51798 9.946 6.34848C9.4525 8.09698 8.9835 9.39498 8.426 10.556L7.956 11.535C7.6455 12.1825 7.5575 12.894 7.674 13.571C7.1495 14.022 6.3675 14.6955 5.7585 15.223C5.3945 15.076 5.0055 15 4.604 15C4.3705 15 4.135 15.0265 3.9035 15.079C2.735 15.343 1.819 16.27 1.57 17.44C1.3915 18.2795 1.5535 19.129 2.026 19.8315C2.313 20.258 2.703 20.605 3.1515 20.843C3.676 21.8405 4.7185 22.5 5.896 22.5C6.117 22.5 6.3405 22.4765 6.56 22.4295C7.73 22.181 8.657 21.265 8.9215 20.0965C9.0475 19.539 9.019 18.969 8.8485 18.4425C9.8545 17.5995 11.247 16.427 11.247 16.427C11.273 16.405 11.2975 16.382 11.322 16.358C11.7115 16.3215 12.099 16.219 12.4655 16.0435L13.4445 15.5735C14.6055 15.016 15.9035 14.547 17.652 14.0535H17.6525C20.482 13.2545 22.1075 11.074 21.9995 8.22148ZM7.2575 17.818C7.074 17.971 7.028 18.244 7.173 18.4335C7.445 18.7895 7.5725 19.2605 7.458 19.7655C7.324 20.3565 6.8405 20.836 6.248 20.962C6.1285 20.988 6.0105 21 5.896 21C5.1075 21 4.455 20.4295 4.3205 19.6795C3.461 19.5255 2.838 18.6915 3.0375 17.752C3.1635 17.159 3.643 16.6755 4.2345 16.542C4.36 16.5135 4.484 16.5 4.604 16.5C4.971 16.5 5.307 16.6255 5.576 16.8345C5.6705 16.908 5.783 16.947 5.8935 16.947C5.9985 16.947 6.102 16.9115 6.1875 16.837C6.6685 16.4155 7.5925 15.619 8.2945 15.0145C8.391 15.1445 8.4955 15.27 8.6125 15.387C8.859 15.6335 9.137 15.835 9.4355 15.9905C8.7385 16.577 7.783 17.38 7.2575 17.818ZM17.2435 12.611C15.409 13.129 14.0365 13.6255 12.7945 14.222L11.8155 14.692C11.0975 15.0375 10.237 14.89 9.6735 14.327C9.1105 13.7635 8.9635 12.9025 9.3085 12.185L9.7785 11.206C10.3745 9.96398 10.8715 8.59148 11.3895 6.75698C11.978 4.67498 13.476 3.49648 15.517 3.49648C15.5845 3.49648 15.653 3.49798 15.722 3.50048C18.1745 3.59348 20.408 5.82648 20.501 8.27948C20.582 10.424 19.3945 12.003 17.2435 12.611Z" fill="black"/>
</svg>
