<svg width="24" height="24" viewBox="0 0 24 24" fill="none" xmlns="http://www.w3.org/2000/svg">
<path d="M16.7775 9.7465L15.2935 8.237L14.754 5.7665C14.4655 5.912 14.1455 6 13.8 6H10.2C9.8545 6 9.534 5.912 9.246 5.7665L8.7065 8.237L7.2225 9.7465C6.757 10.22 6.5 10.847 6.5 11.512V19.4815C6.5 20.8705 7.6295 22 9.018 22H14.982C16.3705 22 17.5 20.8705 17.5 19.482V11.512C17.5 10.847 17.243 10.22 16.7775 9.7465ZM14.737 16.625C14.737 17.253 14.226 17.764 13.598 17.764H10.4025C9.7745 17.764 9.2635 17.253 9.2635 16.625V13.605C9.2635 13.0135 9.716 12.5265 10.2935 12.471C10.479 11.8395 10.9905 11.362 11.632 11.2265C12.096 11.1285 12.5715 11.216 12.97 11.475C13.332 11.7105 13.5905 12.0605 13.709 12.471C14.2855 12.5265 14.738 13.014 14.738 13.605V16.625H14.737ZM13.8 1.5H10.2C9.5275 1.5 9 2.094 9 2.852V3.648C9 4.4065 9.5275 5 10.2 5H13.8C14.473 5 15 4.406 15 3.648V2.852C15 2.094 14.4725 1.5 13.8 1.5Z" fill="black"/>
</svg>
