<svg width="24" height="24" viewBox="0 0 24 24" fill="none" xmlns="http://www.w3.org/2000/svg">
<path d="M9.74316 2.99802C9.71767 2.999 9.69225 3.00128 9.66699 3.00485C9.66699 3.00485 9.02843 3.07127 8.33398 3.32712C7.9892 3.45415 7.59061 3.63842 7.25 3.91696C6.90939 3.63842 6.5108 3.45415 6.16602 3.32712C5.47157 3.07127 4.83301 3.00485 4.83301 3.00485C4.80806 3.00164 4.78296 2.99969 4.75781 2.99899C4.56432 2.99533 4.37691 3.06658 4.23473 3.19787C4.09255 3.32916 4.00662 3.51032 3.99489 3.70349C3.98317 3.89665 4.04655 4.08688 4.17181 4.2344C4.29706 4.38192 4.47448 4.47533 4.66699 4.49509C4.66699 4.49509 5.15343 4.55367 5.64648 4.73532C5.72957 4.76593 5.71962 4.81172 5.79297 4.84665C4.23346 5.33193 3 6.62491 3 8.37595C3 13.2575 4.3188 16.3841 6.59277 18.2099C8.86674 20.0357 11.9279 20.5 15.25 20.5C15.2689 20.5 15.2878 20.4994 15.3066 20.498C16.3517 20.4183 17.3556 19.9294 18.1377 19.208C18.481 18.8913 18.7596 18.505 18.9932 18.0967C19.2204 18.2427 19.4604 18.3825 19.6455 18.6787C19.9059 19.0953 20.0381 19.4873 20.0381 19.4873C20.0692 19.5808 20.1185 19.6672 20.1831 19.7417C20.2476 19.8161 20.3262 19.8772 20.4144 19.9212C20.5025 19.9653 20.5985 19.9916 20.6968 19.9986C20.7951 20.0056 20.8938 19.9931 20.9873 19.962C21.0808 19.9308 21.1673 19.8815 21.2417 19.817C21.3162 19.7524 21.3772 19.6738 21.4213 19.5856C21.4653 19.4975 21.4916 19.4015 21.4986 19.3032C21.5055 19.2049 21.4931 19.1062 21.4619 19.0127C21.4619 19.0127 21.2816 18.4671 20.917 17.8838C20.7369 17.5956 20.5036 17.2745 20.2002 17C20.5036 16.7254 20.7369 16.4044 20.917 16.1162C21.2816 15.5328 21.4619 14.9873 21.4619 14.9873C21.4931 14.8938 21.5055 14.7951 21.4986 14.6968C21.4916 14.5984 21.4653 14.5025 21.4213 14.4143C21.3772 14.3262 21.3162 14.2476 21.2417 14.183C21.1673 14.1184 21.0808 14.0691 20.9873 14.038C20.8938 14.0068 20.7951 13.9944 20.6968 14.0013C20.5985 14.0083 20.5025 14.0346 20.4144 14.0787C20.3262 14.1228 20.2476 14.1838 20.1831 14.2583C20.1185 14.3327 20.0692 14.4192 20.0381 14.5127C20.0381 14.5127 19.9059 14.9046 19.6455 15.3213C19.561 15.4565 19.4478 15.4744 19.3477 15.5869C19.0127 13.9792 17.7567 12.7411 16.123 12.4765C16.0096 12.411 15.881 12.3763 15.75 12.3759C14.2108 12.3759 12.9233 12.4286 12.2119 12.0703C11.8562 11.8911 11.5993 11.6477 11.377 11.1299C11.1546 10.612 11 9.8057 11 8.62595V8.51267C11 6.86579 10.0282 5.499 8.60156 4.92771C8.71447 4.86366 8.71036 4.78806 8.85352 4.73532C9.34657 4.55367 9.83301 4.49509 9.83301 4.49509C10.0283 4.47891 10.2096 4.38693 10.3379 4.23883C10.4663 4.09073 10.5316 3.89827 10.5198 3.70264C10.5081 3.50701 10.4202 3.32374 10.2751 3.19205C10.1299 3.06037 9.93901 2.99072 9.74316 2.99802ZM7.22754 6.12595C8.65039 6.16875 9.5 7.07638 9.5 8.51267V8.62595C9.5 9.93144 9.65794 10.9297 9.99805 11.7217C10.3382 12.5136 10.8938 13.0856 11.5381 13.4101C12.7873 14.0393 14.2011 13.8868 15.6172 13.8769C15.6424 13.8815 15.6678 13.8847 15.6934 13.8867C16.9873 13.9854 18 15.052 18 16.3759C18 16.9648 17.6687 17.5995 17.1201 18.1054C16.5753 18.6079 15.8367 18.9461 15.207 18.998C12.0486 18.9936 9.37456 18.5202 7.53223 17.041C5.6812 15.5548 4.5 12.9944 4.5 8.37595C4.5 7.00186 5.73338 6.0813 7.22754 6.12595Z" fill="black"/>
</svg>
