<svg width="24" height="24" viewBox="0 0 24 24" fill="none" xmlns="http://www.w3.org/2000/svg">
<path fill-rule="evenodd" clip-rule="evenodd" d="M3.50016 1.75C3.27547 1.75 3.06261 1.85074 2.92016 2.02451C2.7777 2.19827 2.72066 2.42676 2.76473 2.64709L3.25016 5.07423V9.92571L2.76471 12.3529C2.72065 12.5732 2.77769 12.8017 2.92014 12.9755C3.0626 13.1493 3.27545 13.25 3.50015 13.25H9.50015C9.72484 13.25 9.9377 13.1493 10.0802 12.9755C10.2226 12.8017 10.2797 12.5732 10.2356 12.3529L9.75016 9.92577V5.07429L10.2356 2.64709C10.2797 2.42676 10.2226 2.19827 10.0802 2.02451C9.93771 1.85074 9.72486 1.75 9.50016 1.75H3.50016ZM8.25016 9.25H4.75016V5.75H8.25016V9.25ZM4.415 11.75L4.615 10.75H8.3853L8.5853 11.75H4.415ZM8.38531 4.25L8.58531 3.25H4.41501L4.61501 4.25H8.38531Z" fill="black"/>
<path fill-rule="evenodd" clip-rule="evenodd" d="M3.25016 20.5V16.6077L1.77874 17.1963C1.39415 17.3501 0.957677 17.1631 0.803842 16.7785C0.650007 16.3939 0.837069 15.9574 1.22166 15.8036L3.70686 14.8095C3.75029 14.791 3.79582 14.7766 3.84299 14.7665C3.90166 14.7538 3.96072 14.7485 4.01904 14.75H11.2502V14.3C11.2502 12.4621 11.8227 10.67 12.8892 9.17204L12.9392 9.10203C13.6974 8.03695 14.1437 6.78529 14.2334 5.48725C13.9393 5.25854 13.7502 4.90136 13.7502 4.5V3C13.7502 2.30964 14.3098 1.75 15.0002 1.75H17.0002C17.6905 1.75 18.2502 2.30964 18.2502 3V4.5C18.2502 4.90136 18.061 5.25853 17.767 5.48724C17.8566 6.78494 18.303 8.03664 19.061 9.10186L19.1111 9.17204C20.1774 10.6698 20.7503 12.4625 20.7502 14.301V14.9922L22.7787 15.8036C23.1632 15.9574 23.3503 16.3939 23.1965 16.7785C23.0426 17.1631 22.6062 17.3501 22.2216 17.1963L20.7502 16.6077V20.5C20.7502 21.4665 19.9667 22.25 19.0002 22.25H5.00016C4.03366 22.25 3.25016 21.4665 3.25016 20.5ZM16.283 5.75H15.7173C15.5842 7.26625 15.0491 8.72466 14.1611 9.97197L14.1111 10.042C13.2256 11.286 12.7502 12.7739 12.7502 14.3V14.75H13.7502V13.5C13.7502 12.5335 14.5337 11.75 15.5002 11.75H16.5002C17.4667 11.75 18.2502 12.5335 18.2502 13.5V14.75H19.2502V14.301C19.2502 12.7745 18.7746 11.2859 17.8894 10.0423L17.8391 9.97188C16.9514 8.72455 16.4162 7.26609 16.283 5.75ZM15.2502 13.5V14.75H16.7502V13.5C16.7502 13.3619 16.6382 13.25 16.5002 13.25H15.5002C15.3621 13.25 15.2502 13.3619 15.2502 13.5ZM19.2502 16.25V20.5C19.2502 20.6381 19.1382 20.75 19.0002 20.75H12.7502V18.5C12.7502 18.0858 12.4144 17.75 12.0002 17.75H8.00015C7.58594 17.75 7.25015 18.0858 7.25015 18.5V20.75H5.00016C4.86208 20.75 4.75016 20.6381 4.75016 20.5V16.25H19.2502ZM8.75015 20.75H11.2502V19.25H8.75015V20.75ZM15.2502 4.25V3.25H16.7502V4.25H15.2502Z" fill="black"/>
</svg>
