<svg width="24" height="24" viewBox="0 0 24 24" fill="none" xmlns="http://www.w3.org/2000/svg">
<path d="M15.5 2.21997C15.2239 2.21997 15 2.44383 15 2.71997V4.21997C15 4.49611 15.2239 4.71997 15.5 4.71997H16.5C16.7761 4.71997 17 4.49611 17 4.21997V2.71997C17 2.44383 16.7761 2.21997 16.5 2.21997H15.5Z" fill="black"/>
<path d="M3.71937 3.87808C3.61145 3.55432 3.85243 3.21997 4.19371 3.21997H8.80629C9.14757 3.21997 9.38855 3.55432 9.28063 3.87808L9.11396 4.37808C9.04591 4.58226 8.85484 4.71997 8.63962 4.71997H4.36038C4.14516 4.71997 3.95409 4.58226 3.88604 4.37808L3.71937 3.87808Z" fill="black"/>
<path d="M4 6.21997C4 5.94383 4.22386 5.71997 4.5 5.71997H8.5C8.77614 5.71997 9 5.94383 9 6.21997V10.22C9 10.4961 8.77614 10.72 8.5 10.72H4.5C4.22386 10.72 4 10.4961 4 10.22V6.21997Z" fill="black"/>
<path d="M8.80629 13.22C9.14757 13.22 9.38855 12.8856 9.28063 12.5619L9.11396 12.0619C9.04591 11.8577 8.85484 11.72 8.63962 11.72H4.36038C4.14516 11.72 3.95409 11.8577 3.88604 12.0619L3.71937 12.5619C3.61145 12.8856 3.85243 13.22 4.19371 13.22H8.80629Z" fill="black"/>
<path d="M14.8255 6.32616C14.8943 5.97405 15.2028 5.71997 15.5616 5.71997H16.4398C16.7986 5.71997 17.1071 5.97403 17.1759 6.32611C17.3681 7.30969 17.7681 8.49664 18.3552 9.3217L18.4054 9.39201C19.3015 10.6509 19.8492 12.1181 20.001 13.6458C20.022 13.8566 19.9528 14.0664 19.8106 14.2234C19.6685 14.3804 19.4665 14.47 19.2547 14.47H17.5V12.22C17.5 11.9438 17.2761 11.72 17 11.72H15C14.7239 11.72 14.5 11.9438 14.5 12.22V14.47H12.7461C12.5343 14.47 12.3324 14.3804 12.1902 14.2234C12.048 14.0664 11.9788 13.8566 11.9998 13.6458C12.1515 12.1184 12.699 10.6513 13.5955 9.39201L13.6455 9.322C14.2328 8.49696 14.6333 7.30997 14.8255 6.32616Z" fill="black"/>
<path d="M4.9832 15.9153C4.96097 15.9153 4.93916 15.9171 4.91789 15.9205C4.79503 15.9061 4.66694 15.9213 4.54402 15.9704L1.98314 16.9948C1.58919 17.1524 1.39757 17.5995 1.55515 17.9934C1.71273 18.3874 2.15984 18.579 2.55379 18.4214L4.57346 17.6135V21.5249C4.57346 21.6663 4.68811 21.7809 4.82955 21.7809H19.1705C19.3119 21.7809 19.4265 21.6663 19.4265 21.5249V17.6135L21.4462 18.4214C21.8402 18.579 22.2873 18.3874 22.4448 17.9934C22.6024 17.5995 22.4108 17.1524 22.0169 16.9948L19.456 15.9704C19.3331 15.9213 19.205 15.9061 19.0821 15.9205C19.0608 15.9171 19.039 15.9153 19.0168 15.9153H4.9832Z" fill="black"/>
</svg>
