<svg width="24" height="24" viewBox="0 0 24 24" fill="none" xmlns="http://www.w3.org/2000/svg">
<path d="M6.7334 1.99217C6.6243 1.99561 6.51727 2.02283 6.41978 2.07191C6.32229 2.12099 6.23669 2.19076 6.16895 2.27634L5.56348 3.01756C5.56348 3.01788 5.56348 3.01821 5.56348 3.01853C4.82466 3.92533 4.77393 5.22021 5.44043 6.18162C5.69546 6.54966 5.71125 7.02795 5.48047 7.41209L4.60742 8.86326C4.55469 8.94769 4.51928 9.04177 4.50328 9.14002C4.48727 9.23828 4.49098 9.33873 4.5142 9.43553C4.53741 9.53234 4.57966 9.62355 4.63848 9.70386C4.69731 9.78416 4.77153 9.85196 4.85682 9.90329C4.94211 9.95462 5.03677 9.98846 5.13527 10.0028C5.23378 10.0172 5.33416 10.0118 5.43056 9.98702C5.52697 9.96221 5.61747 9.91845 5.69679 9.85831C5.77611 9.79816 5.84267 9.72283 5.89258 9.6367L6.76562 8.18455C7.29784 7.29868 7.2628 6.17708 6.67383 5.32713C6.38433 4.90954 6.40538 4.36 6.72656 3.9658L7.33105 3.22361C7.42396 3.11272 7.48282 2.97733 7.50054 2.83376C7.51825 2.69018 7.49407 2.54454 7.43091 2.4144C7.36774 2.28425 7.26829 2.17514 7.14453 2.10023C7.02078 2.02531 6.878 1.98779 6.7334 1.99217ZM9.7334 1.99217C9.6243 1.99561 9.51727 2.02283 9.41978 2.07191C9.32229 2.12099 9.23669 2.19076 9.16895 2.27634L8.56348 3.01756C8.56348 3.01788 8.56348 3.01821 8.56348 3.01853C7.82466 3.92533 7.77393 5.22021 8.44043 6.18162C8.69546 6.54966 8.71125 7.02795 8.48047 7.41209L7.60742 8.86326C7.55469 8.94769 7.51928 9.04177 7.50328 9.14002C7.48727 9.23828 7.49098 9.33873 7.51419 9.43553C7.53741 9.53234 7.57966 9.62355 7.63848 9.70386C7.69731 9.78417 7.77153 9.85196 7.85682 9.90329C7.94211 9.95462 8.03677 9.98846 8.13527 10.0028C8.23378 10.0172 8.33416 10.0118 8.43056 9.98702C8.52696 9.96221 8.61747 9.91846 8.69679 9.85831C8.77611 9.79816 8.84267 9.72283 8.89258 9.6367L9.76562 8.18455C10.2978 7.29868 10.2628 6.17708 9.67383 5.32713C9.38433 4.90954 9.40538 4.36 9.72656 3.9658L10.3311 3.22361C10.424 3.11272 10.4828 2.97733 10.5005 2.83376C10.5183 2.69018 10.4941 2.54454 10.4309 2.4144C10.3677 2.28425 10.2683 2.17514 10.1445 2.10023C10.0208 2.02531 9.878 1.98779 9.7334 1.99217ZM12.7334 1.99217C12.6243 1.99561 12.5173 2.02283 12.4198 2.07191C12.3223 2.12099 12.2367 2.19076 12.1689 2.27634L11.5635 3.01756C11.5635 3.01788 11.5635 3.01821 11.5635 3.01853C10.8247 3.92533 10.7739 5.22021 11.4404 6.18162C11.6955 6.54966 11.7113 7.02795 11.4805 7.41209L10.6074 8.86326C10.5547 8.94769 10.5193 9.04177 10.5033 9.14002C10.4873 9.23828 10.491 9.33873 10.5142 9.43553C10.5374 9.53234 10.5797 9.62355 10.6385 9.70386C10.6973 9.78417 10.7715 9.85196 10.8568 9.90329C10.9421 9.95462 11.0368 9.98846 11.1353 10.0028C11.2338 10.0172 11.3342 10.0118 11.4306 9.98702C11.527 9.96221 11.6175 9.91846 11.6968 9.85831C11.7761 9.79816 11.8427 9.72283 11.8926 9.6367L12.7656 8.18455C13.2978 7.29868 13.2628 6.17708 12.6738 5.32713C12.3843 4.90954 12.4054 4.36 12.7266 3.9658L13.3311 3.22361C13.424 3.11272 13.4828 2.97733 13.5005 2.83376C13.5183 2.69018 13.4941 2.54454 13.4309 2.4144C13.3677 2.28425 13.2683 2.17514 13.1445 2.10023C13.0208 2.02531 12.878 1.98779 12.7334 1.99217ZM20.9854 5.74314C20.7906 5.74882 20.6056 5.83007 20.4697 5.9697L14.4395 12H3.75C2.79252 12 2 12.7925 2 13.75C2 18.2841 5.71591 22 10.25 22H14.75C17.0237 22 18.8961 21.0457 20.1348 19.5273C21.3735 18.0089 22 15.9633 22 13.75C22 12.7925 21.2075 12 20.25 12H16.5605L21.5303 7.03025C21.6385 6.92487 21.7123 6.78929 21.7422 6.64123C21.7721 6.49318 21.7566 6.33956 21.6977 6.20048C21.6388 6.06139 21.5393 5.94332 21.4122 5.86172C21.2851 5.78012 21.1363 5.73879 20.9854 5.74314ZM3.75 13.5H14.6396C14.708 13.5095 14.7773 13.5095 14.8457 13.5H20.25C20.3975 13.5 20.5 13.6025 20.5 13.75C20.5 15.6787 19.9475 17.383 18.9717 18.5791C17.9959 19.7752 16.6183 20.5 14.75 20.5H10.25C6.53409 20.5 3.5 17.4659 3.5 13.75C3.5 13.6025 3.60248 13.5 3.75 13.5Z" fill="black"/>
</svg>
