<svg width="24" height="24" viewBox="0 0 24 24" fill="none" xmlns="http://www.w3.org/2000/svg">
<path d="M11.3018 2.06252C11.2503 2.05977 11.1971 2.0849 11.1719 2.14065L10.6504 3.29885C10.5463 3.29523 10.4432 3.28811 10.3379 3.28811C10.0263 3.28811 9.7412 3.32981 9.46777 3.38869L8.63086 2.59182C8.54236 2.50682 8.3953 2.57576 8.4043 2.69826L8.47656 3.74318C8.13484 3.92376 7.83734 4.14627 7.58106 4.39064L6.7461 4.06057C6.63259 4.01507 6.52217 4.13366 6.57617 4.24416L6.98731 5.08596C6.9257 5.17613 6.86361 5.26683 6.81152 5.35647C6.67816 5.58598 6.58146 5.79394 6.49805 5.99123C5.1325 4.18801 4.53125 2.98342 4.53125 2.98342C4.47105 2.85872 4.37752 2.75313 4.261 2.67832C4.14448 2.60351 4.00953 2.56242 3.87109 2.55959C3.74106 2.5569 3.61256 2.58807 3.49821 2.65003C3.38386 2.712 3.28759 2.80263 3.21884 2.91304C3.1501 3.02345 3.11124 3.14983 3.10609 3.27979C3.10094 3.40975 3.12966 3.53881 3.18945 3.65432C3.18945 3.65432 3.93765 5.1242 5.59961 7.251C5.20491 7.49667 4.84278 7.79068 4.52344 8.12795L3.2959 7.72658C3.1794 7.68858 3.07622 7.81439 3.13672 7.92189L3.80078 9.09572C3.65806 9.34357 3.53203 9.60276 3.43262 9.87697C3.38477 10.009 3.34305 10.1424 3.30566 10.2764L2.03809 10.6963C1.92159 10.7353 1.91387 10.8968 2.02637 10.9473L3.10938 11.4307C3.06342 12.0552 3.10981 12.6843 3.23047 13.2998L2.20801 14.0117C2.10701 14.0817 2.1451 14.2394 2.2666 14.2559L3.53711 14.4238C3.72675 14.9732 3.96607 15.4991 4.24414 15.9854L3.60156 17.1504C3.54256 17.2574 3.6462 17.3823 3.7627 17.3428L4.89453 16.959C5.24816 17.4188 5.63873 17.8314 6.06641 18.1914L5.81055 19.4024C5.78555 19.5224 5.92051 19.6101 6.02051 19.5381L6.97559 18.8535C7.45496 19.1591 7.96191 19.4173 8.48731 19.6348L8.56445 20.8203C8.57245 20.9428 8.72624 20.9915 8.80274 20.8955L9.51465 20.0059C10.0608 20.1728 10.6191 20.2993 11.1797 20.3945L11.4463 21.5205C11.4743 21.64 11.6343 21.6622 11.6943 21.5547L12.2598 20.5391C12.8258 20.5944 13.3887 20.6217 13.9365 20.6211C14.0181 20.621 14.1015 20.6158 14.1836 20.6143L14.8115 21.7578C14.8705 21.8658 15.0306 21.8441 15.0596 21.7246L15.3457 20.5449C15.9033 20.4856 16.4632 20.3873 17.0137 20.2432L17.834 21.124C17.9175 21.214 18.0684 21.1538 18.0674 21.0313L18.0557 19.9004C18.546 19.7092 19.0182 19.4728 19.4668 19.1865L20.4297 19.7637C20.5347 19.8272 20.6629 19.7284 20.6279 19.6104L20.3193 18.5781C20.6308 18.3152 20.943 17.9691 21.0889 17.4414C21.1257 17.3086 21.1537 17.1767 21.1787 17.0449L22.2041 16.624C22.3176 16.577 22.3142 16.4151 22.1992 16.3731L21.2666 16.0322C21.257 15.416 21.137 14.8176 20.9502 14.2442L21.8213 13.4981C21.9148 13.4181 21.8613 13.2653 21.7383 13.2608L20.5391 13.2237C20.3046 12.7271 20.0362 12.2587 19.7607 11.8194L20.4268 10.8789C20.4978 10.7789 20.4086 10.6439 20.2891 10.6699L19.1768 10.9112C18.9212 10.5195 18.6954 10.099 18.4805 9.65822L19.3174 8.77541C19.4014 8.68641 19.332 8.53985 19.21 8.54885L17.9912 8.63771C17.8635 8.36433 17.7438 8.1003 17.6035 7.82033C17.5352 7.68395 17.4615 7.55293 17.3877 7.42189L18.1289 6.34377C18.1989 6.24227 18.1068 6.10974 17.9873 6.13674L16.7383 6.42775C16.4657 6.06764 16.1689 5.73579 15.8496 5.43264L16.3438 4.3633C16.3958 4.2518 16.2829 4.13514 16.1699 4.18264L14.9463 4.69631C14.629 4.47477 14.2953 4.27882 13.9473 4.10744L13.9678 2.82814C13.9698 2.70514 13.8194 2.64442 13.7354 2.73342L12.8525 3.66897C12.5239 3.56562 12.1858 3.48319 11.8379 3.42189L11.4229 2.15432C11.4034 2.09607 11.3532 2.06527 11.3018 2.06252ZM10.3379 4.78811C13.0468 4.78811 15.0554 6.08181 16.2627 8.49221C16.7943 9.55352 17.2385 10.736 17.998 11.8584C19.0321 13.3867 20.0196 15.1893 19.6914 16.8233C13.8779 13.8424 10.0072 10.1979 7.62891 7.39162C7.65936 7.22118 7.76224 6.70512 8.1084 6.10939C8.5168 5.40655 9.1034 4.78811 10.3379 4.78811ZM6.55957 8.42287C9.00654 11.291 12.8934 14.9473 18.6113 17.9541C17.2894 18.775 15.5676 19.1194 13.9346 19.1211C10.9029 19.1245 7.60404 18.2523 5.90332 15.8115C4.85918 14.3132 4.24816 12.029 4.84277 10.3887C5.14455 9.55631 5.7665 8.86549 6.55957 8.42287ZM6.35156 10.3272C6.07917 10.3379 5.82699 10.5082 5.72461 10.7793C5.58761 11.1403 5.77034 11.5442 6.13184 11.6807C6.49334 11.8172 7.65625 11.502 7.65625 11.502C7.65625 11.502 6.98748 10.5081 6.62598 10.3711C6.5356 10.337 6.44236 10.3236 6.35156 10.3272ZM8.04199 13.1914C8.04199 13.1914 6.8447 13.21 6.5332 13.4385C6.2217 13.6665 6.15381 14.1041 6.38281 14.4151C6.61231 14.7261 7.04885 14.7944 7.36035 14.5664C7.67185 14.3384 8.04199 13.1914 8.04199 13.1914ZM9.82422 14.9092C9.82422 14.9092 8.64963 15.2821 8.41113 15.5996C8.17213 15.9171 8.23621 16.3684 8.55371 16.6074C8.87071 16.8469 9.32205 16.7843 9.56055 16.4668C9.79955 16.1493 9.82422 14.9092 9.82422 14.9092ZM12.1152 16.0342C12.1152 16.0342 11.2416 16.7418 11.1436 17.0908C11.0456 17.4398 11.2496 17.8029 11.5986 17.9004C11.9471 17.9974 12.3102 17.7934 12.4082 17.4444C12.5062 17.0954 12.1152 16.0342 12.1152 16.0342ZM14.4756 16.4795C14.4756 16.4795 13.9887 17.3038 14.0137 17.6123C14.0387 17.9203 14.3102 18.1491 14.6182 18.1231C14.9262 18.0976 15.1559 17.8275 15.1299 17.5196C15.1039 17.2115 14.4756 16.4795 14.4756 16.4795Z" fill="black"/>
</svg>
