<svg width="24" height="24" viewBox="0 0 24 24" fill="none" xmlns="http://www.w3.org/2000/svg">
<path d="M16.6055 2.875C15.3771 2.82992 14.0621 3.18882 13.1025 4.14844C12.6767 4.57432 12.3476 5.06356 12.1182 5.58496C12.1182 5.58529 12.1182 5.58561 12.1182 5.58594C11.8739 6.1414 11.4321 6.53028 10.8633 6.68066C10.0002 6.90882 9.1813 7.36224 8.50585 8.03711C8.50585 8.03743 8.50585 8.03776 8.50585 8.03809C7.83061 8.71333 7.37657 9.53254 7.14843 10.3955C6.99807 10.9643 6.60975 11.4055 6.0537 11.6504C5.5323 11.8799 5.04209 12.2079 4.6162 12.6338C2.81009 14.4399 2.61033 17.3457 4.6162 19.3516C6.41472 21.1501 9.47128 21.2143 11.334 19.3516C11.7599 18.9257 12.0889 18.4364 12.3184 17.915C12.5626 17.3596 13.0044 16.9707 13.5732 16.8203C14.4363 16.5921 15.2552 16.1378 15.9307 15.4629C16.6067 14.7874 17.06 13.9681 17.2881 13.1055C17.4384 12.5367 17.8268 12.0955 18.3828 11.8506C18.9042 11.6211 19.3944 11.2921 19.8203 10.8662C21.6826 9.0039 21.6198 5.94855 19.8203 4.14844C19.82 4.14844 19.8197 4.14844 19.8193 4.14844C19.0151 3.34443 17.8339 2.92008 16.6055 2.875ZM16.5508 4.37402C17.4477 4.40694 18.3126 4.76294 18.7588 5.20898C19.9623 6.41288 20.0205 8.54397 18.7588 9.80566C18.4657 10.0988 18.1349 10.321 17.7793 10.4775C17.779 10.4775 17.7786 10.4775 17.7783 10.4775C16.8334 10.8937 16.1065 11.7055 15.8379 12.7217C15.6749 13.338 15.3551 13.9178 14.8701 14.4023C14.3846 14.8875 13.8054 15.2073 13.1894 15.3701C12.1733 15.6387 11.3611 16.366 10.9453 17.3115C10.7888 17.6668 10.5663 17.9981 10.2734 18.291C9.01213 19.5523 6.87921 19.4925 5.67773 18.291C4.1836 16.7969 4.35984 15.0132 5.67773 13.6953C5.97084 13.4022 6.30162 13.1799 6.65722 13.0234C6.65755 13.0231 6.65787 13.0228 6.6582 13.0225C7.60315 12.6063 8.32999 11.7945 8.59863 10.7783C8.76149 10.1623 9.08165 9.58339 9.5664 9.09863C10.0519 8.6135 10.6311 8.2937 11.2471 8.13086C12.2632 7.86224 13.0754 7.135 13.4912 6.18945C13.6477 5.83386 13.87 5.5021 14.1631 5.20898C14.7655 4.6066 15.6538 4.34111 16.5508 4.37402ZM16.4678 5.5C15.8636 5.5 15.3155 5.75357 14.9697 6.14258C14.6239 6.53159 14.4678 7.02083 14.4678 7.5C14.4678 7.97917 14.6239 8.46841 14.9697 8.85742C15.3155 9.24643 15.8636 9.5 16.4678 9.5C17.0719 9.5 17.62 9.24643 17.9658 8.85742C18.3116 8.46841 18.4678 7.97917 18.4678 7.5C18.4678 7.02083 18.3116 6.53159 17.9658 6.14258C17.62 5.75357 17.0719 5.5 16.4678 5.5ZM16.4678 7C16.6969 7 16.7738 7.05893 16.8447 7.13867C16.9156 7.21841 16.9678 7.35417 16.9678 7.5C16.9678 7.64583 16.9156 7.78159 16.8447 7.86133C16.7738 7.94107 16.6969 8 16.4678 8C16.2386 8 16.1617 7.94107 16.0908 7.86133C16.0199 7.78159 15.9678 7.64583 15.9678 7.5C15.9678 7.35417 16.0199 7.21841 16.0908 7.13867C16.1617 7.05893 16.2386 7 16.4678 7ZM12.2178 9C11.3636 9 10.628 9.34732 10.1572 9.87695C9.68643 10.4066 9.46777 11.0833 9.46777 11.75C9.46777 12.4167 9.68643 13.0934 10.1572 13.623C10.628 14.1527 11.3636 14.5 12.2178 14.5C13.0719 14.5 13.8075 14.1527 14.2783 13.623C14.7491 13.0934 14.9678 12.4167 14.9678 11.75C14.9678 11.0833 14.7491 10.4066 14.2783 9.87695C13.8075 9.34732 13.0719 9 12.2178 9ZM12.2178 10.5C12.6969 10.5 12.9613 10.6527 13.1572 10.873C13.3531 11.0934 13.4678 11.4167 13.4678 11.75C13.4678 12.0833 13.3531 12.4066 13.1572 12.627C12.9613 12.8473 12.6969 13 12.2178 13C11.7386 13 11.4742 12.8473 11.2783 12.627C11.0824 12.4066 10.9678 12.0833 10.9678 11.75C10.9678 11.4167 11.0824 11.0934 11.2783 10.873C11.4742 10.6527 11.7386 10.5 12.2178 10.5ZM7.96777 14C7.3636 14 6.81551 14.2536 6.46972 14.6426C6.12393 15.0316 5.96777 15.5208 5.96777 16C5.96777 16.4792 6.12393 16.9684 6.46972 17.3574C6.81551 17.7464 7.3636 18 7.96777 18C8.57193 18 9.12003 17.7464 9.46581 17.3574C9.8116 16.9684 9.96777 16.4792 9.96777 16C9.96777 15.5208 9.8116 15.0316 9.46581 14.6426C9.12003 14.2536 8.57193 14 7.96777 14ZM7.96777 15.5C8.19693 15.5 8.27384 15.5589 8.34472 15.6387C8.4156 15.7184 8.46777 15.8542 8.46777 16C8.46777 16.1458 8.4156 16.2816 8.34472 16.3613C8.27384 16.4411 8.19693 16.5 7.96777 16.5C7.7386 16.5 7.66169 16.4411 7.59081 16.3613C7.51994 16.2816 7.46777 16.1458 7.46777 16C7.46777 15.8542 7.51994 15.7184 7.59081 15.6387C7.66169 15.5589 7.7386 15.5 7.96777 15.5Z" fill="black"/>
</svg>
