<svg width="24" height="24" viewBox="0 0 24 24" fill="none" xmlns="http://www.w3.org/2000/svg">
<path d="M12.25 1.5C11.3993 1.5 10.6382 1.9364 10.0264 2.56152C9.54424 3.05413 9.15699 3.70317 8.82422 4.41504C6.47498 3.89295 4.05859 4.52441 4.05859 4.52441C3.89843 4.5667 3.75678 4.66082 3.65573 4.79208C3.55468 4.92333 3.49992 5.08435 3.5 5.25C3.5 6.82675 4.08868 7.89032 4.63086 8.58496C3.92922 9.39129 3.5 10.4406 3.5 11.5879V12.0322C3.5 12.9796 3.79366 13.9039 4.33984 14.6777L8.64453 20.7764C9.40718 21.8569 10.6492 22.5 11.9717 22.5C13.3325 22.5 14.6052 21.8189 15.3604 20.6865L19.7295 14.1328C20.2314 13.3793 20.5 12.4936 20.5 11.5879C20.5 10.5827 20.1691 9.65325 19.6162 8.89551C20.2003 8.21475 21 7.07948 21 5.25C21.0001 5.07781 20.9409 4.91084 20.8324 4.77712C20.724 4.64339 20.5728 4.55106 20.4043 4.51562C20.4043 4.51562 17.9103 3.98647 15.6113 4.44043C15.2387 3.75717 14.8665 3.08296 14.4062 2.58887C13.8283 1.96834 13.1018 1.5 12.25 1.5ZM12.25 3C12.5547 3 12.8933 3.1645 13.3086 3.61035C13.7239 4.0562 14.1623 4.75346 14.5801 5.58594C14.6582 5.74159 14.788 5.86521 14.9473 5.93559C15.1066 6.00597 15.2854 6.01873 15.4531 5.97168C16.8906 5.56669 18.5559 5.77268 19.376 5.89551C19.2403 6.76801 18.9284 7.36066 18.541 7.83594C17.7952 7.31114 16.8889 7 15.9121 7H8.08789C7.25053 7 6.46642 7.23058 5.78906 7.62598C5.4663 7.19373 5.22031 6.63918 5.10742 5.87305C5.87872 5.72653 7.52156 5.46657 9.01367 5.96191C9.19684 6.02268 9.39637 6.01051 9.57079 5.92793C9.74521 5.84536 9.8811 5.69874 9.9502 5.51855C10.2605 4.71058 10.6753 4.04383 11.0986 3.61133C11.5219 3.17882 11.9207 3 12.25 3ZM8.08789 8.5H15.9121C17.6262 8.5 19 9.87379 19 11.5879C19 12.1972 18.8195 12.7933 18.4814 13.3008L14.1123 19.8545C13.6344 20.5711 12.8329 21 11.9717 21C11.1351 21 10.3525 20.5946 9.87012 19.9111L5.56543 13.8125C5.19762 13.2914 5 12.6698 5 12.0322V11.5879C5 9.87379 6.37379 8.5 8.08789 8.5ZM7.75 9.5C7.55109 9.5 7.36032 9.57902 7.21967 9.71967C7.07902 9.86032 7 10.0511 7 10.25C7 10.4489 7.07902 10.6397 7.21967 10.7803C7.36032 10.921 7.55109 11 7.75 11C7.94891 11 8.13968 10.921 8.28033 10.7803C8.42098 10.6397 8.5 10.4489 8.5 10.25C8.5 10.0511 8.42098 9.86032 8.28033 9.71967C8.13968 9.57902 7.94891 9.5 7.75 9.5ZM16.25 9.5C16.0511 9.5 15.8603 9.57902 15.7197 9.71967C15.579 9.86032 15.5 10.0511 15.5 10.25C15.5 10.4489 15.579 10.6397 15.7197 10.7803C15.8603 10.921 16.0511 11 16.25 11C16.4489 11 16.6397 10.921 16.7803 10.7803C16.921 10.6397 17 10.4489 17 10.25C17 10.0511 16.921 9.86032 16.7803 9.71967C16.6397 9.57902 16.4489 9.5 16.25 9.5ZM10.25 10.5C10.0511 10.5 9.86032 10.579 9.71967 10.7197C9.57902 10.8603 9.5 11.0511 9.5 11.25C9.5 11.4489 9.57902 11.6397 9.71967 11.7803C9.86032 11.921 10.0511 12 10.25 12C10.4489 12 10.6397 11.921 10.7803 11.7803C10.921 11.6397 11 11.4489 11 11.25C11 11.0511 10.921 10.8603 10.7803 10.7197C10.6397 10.579 10.4489 10.5 10.25 10.5ZM13.25 10.5C13.0511 10.5 12.8603 10.579 12.7197 10.7197C12.579 10.8603 12.5 11.0511 12.5 11.25C12.5 11.4489 12.579 11.6397 12.7197 11.7803C12.8603 11.921 13.0511 12 13.25 12C13.4489 12 13.6397 11.921 13.7803 11.7803C13.921 11.6397 14 11.4489 14 11.25C14 11.0511 13.921 10.8603 13.7803 10.7197C13.6397 10.579 13.4489 10.5 13.25 10.5ZM8.75 13C8.55109 13 8.36032 13.079 8.21967 13.2197C8.07902 13.3603 8 13.5511 8 13.75C8 13.9489 8.07902 14.1397 8.21967 14.2803C8.36032 14.421 8.55109 14.5 8.75 14.5C8.94891 14.5 9.13968 14.421 9.28033 14.2803C9.42098 14.1397 9.5 13.9489 9.5 13.75C9.5 13.5511 9.42098 13.3603 9.28033 13.2197C9.13968 13.079 8.94891 13 8.75 13ZM11.75 13C11.5511 13 11.3603 13.079 11.2197 13.2197C11.079 13.3603 11 13.5511 11 13.75C11 13.9489 11.079 14.1397 11.2197 14.2803C11.3603 14.421 11.5511 14.5 11.75 14.5C11.9489 14.5 12.1397 14.421 12.2803 14.2803C12.421 14.1397 12.5 13.9489 12.5 13.75C12.5 13.5511 12.421 13.3603 12.2803 13.2197C12.1397 13.079 11.9489 13 11.75 13ZM15.25 13C15.0511 13 14.8603 13.079 14.7197 13.2197C14.579 13.3603 14.5 13.5511 14.5 13.75C14.5 13.9489 14.579 14.1397 14.7197 14.2803C14.8603 14.421 15.0511 14.5 15.25 14.5C15.4489 14.5 15.6397 14.421 15.7803 14.2803C15.921 14.1397 16 13.9489 16 13.75C16 13.5511 15.921 13.3603 15.7803 13.2197C15.6397 13.079 15.4489 13 15.25 13ZM10.25 15.5C10.0511 15.5 9.86032 15.579 9.71967 15.7197C9.57902 15.8603 9.5 16.0511 9.5 16.25C9.5 16.4489 9.57902 16.6397 9.71967 16.7803C9.86032 16.921 10.0511 17 10.25 17C10.4489 17 10.6397 16.921 10.7803 16.7803C10.921 16.6397 11 16.4489 11 16.25C11 16.0511 10.921 15.8603 10.7803 15.7197C10.6397 15.579 10.4489 15.5 10.25 15.5ZM13.75 15.5C13.5511 15.5 13.3603 15.579 13.2197 15.7197C13.079 15.8603 13 16.0511 13 16.25C13 16.4489 13.079 16.6397 13.2197 16.7803C13.3603 16.921 13.5511 17 13.75 17C13.9489 17 14.1397 16.921 14.2803 16.7803C14.421 16.6397 14.5 16.4489 14.5 16.25C14.5 16.0511 14.421 15.8603 14.2803 15.7197C14.1397 15.579 13.9489 15.5 13.75 15.5ZM11.75 18C11.5511 18 11.3603 18.079 11.2197 18.2197C11.079 18.3603 11 18.5511 11 18.75C11 18.9489 11.079 19.1397 11.2197 19.2803C11.3603 19.421 11.5511 19.5 11.75 19.5C11.9489 19.5 12.1397 19.421 12.2803 19.2803C12.421 19.1397 12.5 18.9489 12.5 18.75C12.5 18.5511 12.421 18.3603 12.2803 18.2197C12.1397 18.079 11.9489 18 11.75 18Z" fill="black"/>
</svg>
