<svg width="24" height="24" viewBox="0 0 24 24" fill="none" xmlns="http://www.w3.org/2000/svg">
<path d="M11.75 2C10.8993 2 10.1382 2.4364 9.52637 3.06152C9.04424 3.55413 8.657 4.20317 8.32422 4.91504C5.97499 4.39295 3.5586 5.02441 3.5586 5.02441C3.39844 5.0667 3.25678 5.16082 3.15573 5.29208C3.05468 5.42333 2.99993 5.58435 3.00001 5.75C3.00001 7.09161 3.4266 8.05979 3.8877 8.74805C3.59528 8.99586 3.33964 9.26414 3.12989 9.54785C1.73515 11.4344 1.99728 13.722 2.00489 13.7871C2.01098 15.8126 2.5012 17.8238 3.66212 19.377C4.83027 20.9398 6.71071 21.9824 9.18458 21.9824C10.2755 21.9824 11.0321 21.6834 11.5088 21.3652C11.6226 21.2893 11.6669 21.2401 11.749 21.1719C11.8306 21.2399 11.8744 21.2886 11.9873 21.3643C12.4631 21.6831 13.2184 21.9824 14.3096 21.9824C16.7837 21.9824 18.5729 20.9167 19.6113 19.3398C20.645 17.7703 20.9938 15.7738 20.9971 13.7773C21 13.741 21.1601 11.7252 20.0811 9.92676C19.8957 9.61775 19.6655 9.31698 19.3945 9.03613C19.9264 8.33675 20.5 7.30449 20.5 5.75C20.5001 5.57781 20.4409 5.41084 20.3325 5.27712C20.224 5.14339 20.0728 5.05106 19.9043 5.01562C19.9043 5.01562 17.4103 4.48647 15.1113 4.94043C14.7388 4.25717 14.3665 3.58296 13.9063 3.08887C13.3283 2.46834 12.6018 2 11.75 2ZM11.75 3.5C12.0547 3.5 12.3933 3.6645 12.8086 4.11035C13.2239 4.5562 13.6623 5.25346 14.0801 6.08594C14.1582 6.24159 14.288 6.36521 14.4473 6.43559C14.6066 6.50597 14.7855 6.51873 14.9531 6.47168C16.3906 6.06669 18.0559 6.27268 18.876 6.39551C18.7592 7.14688 18.5105 7.68884 18.1973 8.12988C17.9242 7.98434 17.6283 7.85853 17.3057 7.75977C16.6404 7.55612 15.8788 7.46003 15.0059 7.49707C14.133 7.53411 13.1483 7.70373 12.0381 8.03027C11.9699 8.04964 11.9048 8.07857 11.8447 8.11621C9.78633 7.55816 8.02311 7.31316 6.69532 7.51758C6.12789 7.60493 5.62402 7.75943 5.17188 7.95605C4.90803 7.54906 4.7061 7.04276 4.60743 6.37305C5.37873 6.22653 7.02157 5.96657 8.51368 6.46191C8.69684 6.52268 8.89638 6.51051 9.0708 6.42793C9.24522 6.34536 9.38111 6.19874 9.4502 6.01855C9.76047 5.21058 10.1753 4.54383 10.5986 4.11133C11.0219 3.67882 11.4207 3.5 11.75 3.5Z" fill="black"/>
</svg>
