<svg width="24" height="24" viewBox="0 0 24 24" fill="none" xmlns="http://www.w3.org/2000/svg">
<path d="M17.5615 3.71484C17.1545 3.71484 16.7613 4.22782 16.5273 4.96582C15.7648 4.65982 14.8037 4.96582 14.8037 4.96582C14.8037 5.23142 14.8424 5.44284 14.8955 5.62598C14.1242 5.71522 13.4649 5.96744 12.9336 6.39746C12.8836 6.43796 12.836 6.47851 12.79 6.52051C13.1735 6.73451 13.4506 7.11197 13.5371 7.54297C13.6261 7.56997 13.7138 7.59841 13.8008 7.62891C13.8253 7.60641 13.8514 7.58498 13.8779 7.56348C14.6339 6.95098 15.9865 6.92483 17.79 7.48633C17.9325 7.53083 18.0855 7.53178 18.2285 7.48828C19.604 7.07478 20.6177 7.1149 21.2432 7.6084C22.1272 8.3054 22.0547 9.76762 22.0527 9.82812C22.0527 12.3676 21.1081 13.6553 19.2461 13.6553C18.6966 13.6553 18.5219 13.4918 18.3809 13.3613C18.2869 13.2738 18.1266 13.1257 17.8896 13.0732C17.9251 13.3932 17.9443 13.724 17.9443 14.0635C17.9443 14.3305 17.9299 14.5944 17.9014 14.8564C18.2069 15.0169 18.6386 15.1553 19.2461 15.1553C21.9831 15.1553 23.5533 13.2144 23.5518 9.87793C23.5573 9.78693 23.6796 7.63045 22.1826 6.43945C21.6425 6.00973 20.9758 5.77524 20.1982 5.72461C20.2685 5.52247 20.3193 5.28007 20.3193 4.96582C20.3193 4.96582 19.3327 4.71482 18.5957 4.96582C18.2957 4.24282 17.96 3.71484 17.5615 3.71484ZM8.69434 5.6582C8.11984 5.6582 7.5644 6.3823 7.2334 7.4248C6.5319 7.1433 5.71063 7.22877 5.22363 7.32227C4.96963 7.37127 4.79277 7.60921 4.82227 7.86621C4.84162 8.03378 4.87362 8.18257 4.91113 8.32031C3.84003 8.49507 2.85458 8.93628 2.08105 9.67871C1.04748 10.6707 0.444336 12.1716 0.444336 14.0635C0.444336 18.2302 4.32526 21.4971 8.69434 21.4971C13.0634 21.4971 16.9443 18.2302 16.9443 14.0635C16.9443 12.1716 16.3402 10.6707 15.3066 9.67871C14.5332 8.93632 13.5476 8.49606 12.4766 8.32129C12.5126 8.18905 12.544 8.04631 12.5635 7.88672C12.5955 7.62272 12.4066 7.37937 12.1436 7.33887C11.6476 7.26287 10.8278 7.1958 10.1553 7.4248C9.73127 6.4033 9.25784 5.6582 8.69434 5.6582ZM9.16699 9.46777L9.20019 9.49902L9.2666 9.57227C9.23635 9.53421 9.1994 9.50344 9.16699 9.46777ZM8.21582 9.47168C8.18488 9.50595 8.15006 9.53582 8.12109 9.57227L8.1875 9.49902L8.21582 9.47168ZM6.01562 9.7334C6.83537 9.7334 7.80696 10.1453 8.09277 10.5049C8.11296 10.5307 8.13482 10.5552 8.1582 10.5781L8.17285 10.5918C8.31269 10.7268 8.49947 10.8023 8.69385 10.8023C8.88822 10.8023 9.07501 10.7268 9.21484 10.5918L9.22949 10.5781C9.25321 10.5552 9.2754 10.5307 9.2959 10.5049C9.58186 10.1451 10.5517 9.7334 11.3721 9.7334C12.5616 9.7334 13.561 10.0816 14.2686 10.7607C14.9761 11.4399 15.4443 12.4799 15.4443 14.0635C15.4443 17.2807 12.3143 19.9971 8.69434 19.9971C5.07441 19.9971 1.94434 17.2807 1.94434 14.0635C1.94434 12.4799 2.41256 11.4399 3.12012 10.7607C3.82767 10.0816 4.82613 9.7334 6.01562 9.7334ZM6.36914 11.0576C5.64435 11.0576 4.81859 11.2172 4.11914 11.7373C3.41969 12.2574 2.92383 13.1718 2.92383 14.3418C2.92383 15.4344 3.49641 16.3922 4.26465 17.0938C5.03289 17.7953 6.01624 18.2746 7.04004 18.3838C7.15269 18.3959 7.26663 18.3823 7.37329 18.3441C7.47995 18.3059 7.57656 18.244 7.65587 18.1631C7.73519 18.0822 7.79514 17.9843 7.83123 17.8769C7.86732 17.7695 7.87861 17.6554 7.86426 17.543L7.11328 11.7119C7.08999 11.531 7.0016 11.3648 6.86463 11.2444C6.72767 11.124 6.55152 11.0576 6.36914 11.0576ZM11.1299 11.0576C10.9468 11.0577 10.77 11.1248 10.6329 11.2462C10.4959 11.3677 10.4079 11.535 10.3857 11.7168L9.67187 17.5469C9.65805 17.6593 9.66988 17.7734 9.70648 17.8807C9.74307 17.9879 9.80348 18.0854 9.88317 18.166C9.96286 18.2465 10.0598 18.3079 10.1666 18.3457C10.2734 18.3834 10.3874 18.3964 10.5 18.3838C11.4922 18.2725 12.4359 17.7858 13.1699 17.0811C13.904 16.3763 14.4443 15.4212 14.4443 14.3418C14.4443 13.1809 13.9796 12.2741 13.3066 11.748C12.6336 11.222 11.8308 11.0576 11.1299 11.0576ZM5.7334 12.7373L6.23144 16.6074C5.88636 16.4493 5.55433 16.2402 5.27637 15.9863C4.73873 15.4954 4.42383 14.8942 4.42383 14.3418C4.42383 13.5493 4.66862 13.197 5.01367 12.9404C5.19688 12.8042 5.48196 12.8008 5.7334 12.7373ZM11.7705 12.748C11.9814 12.8098 12.2262 12.8073 12.3828 12.9297C12.7033 13.1802 12.9443 13.5402 12.9443 14.3418C12.9443 14.9074 12.6389 15.5113 12.1309 15.999C11.8874 16.2327 11.5985 16.4272 11.3008 16.5791L11.7705 12.748Z" fill="black"/>
</svg>
