<svg width="24" height="24" viewBox="0 0 24 24" fill="none" xmlns="http://www.w3.org/2000/svg">
<path d="M14.25 2C13.184 2 12.2226 2.44952 11.5391 3.16602C13.0281 4.25902 14 6.016 14 8C14 8.341 13.9696 8.6745 13.9141 9H20.7812C20.9207 8.6085 21 8.189 21 7.75C21 5.7905 19.4893 4.17717 17.5713 4.01367C16.9318 2.79067 15.6565 2 14.25 2ZM8 3C5.243 3 3 5.243 3 8C3 8.339 3.03702 8.673 3.10352 9H12.8965C12.963 8.673 13 8.339 13 8C13 5.243 10.757 3 8 3ZM2.75 10C2.3355 10 2 10.3355 2 10.75V13H22V10.75C22 10.3355 21.6645 10 21.25 10H2.75ZM2 14.5V17.5H22V14.5H2ZM2 19V20.25C2 21.215 2.785 22 3.75 22H20.25C21.215 22 22 21.215 22 20.25V19H2Z" fill="black"/>
</svg>
