<svg width="24" height="24" viewBox="0 0 24 24" fill="none" xmlns="http://www.w3.org/2000/svg">
<path d="M14.25 2C12.9527 2 11.8126 2.66988 11.1396 3.67871C10.3553 3.24699 9.4554 3 8.5 3C5.47122 3 3 5.47122 3 8.5C3 8.66963 3.01167 8.83545 3.02734 9H2.75C2.55109 9.00002 2.36034 9.07904 2.21969 9.21969C2.07904 9.36034 2.00002 9.55109 2 9.75V19.75C2 20.9838 3.01625 22 4.25 22H19.75C20.9838 22 22 20.9838 22 19.75V9.75C22 9.55109 21.921 9.36034 21.7803 9.21969C21.6397 9.07904 21.4489 9.00002 21.25 9H20.7803C20.9199 8.60814 21 8.1881 21 7.75C21 5.79255 19.464 4.22015 17.5459 4.06055C16.9228 2.85049 15.6979 2 14.25 2ZM14.25 3.5C15.2383 3.5 16.0639 4.13095 16.3711 5.00684C16.4247 5.15988 16.5265 5.29141 16.6612 5.38173C16.7959 5.47205 16.9562 5.51629 17.1182 5.50781C17.1975 5.50364 17.2394 5.5 17.25 5.5C18.5017 5.5 19.5 6.49825 19.5 7.75C19.5 8.21747 19.3536 8.64182 19.1104 9H13.9727C13.9884 8.83564 14 8.66949 14 8.5C14 6.9643 13.363 5.57379 12.3418 4.57422C12.736 3.93262 13.4354 3.5 14.25 3.5ZM8.5 4.5C10.7182 4.5 12.5 6.28178 12.5 8.5C12.5 8.66892 12.4857 8.83533 12.4639 9H4.53613C4.51432 8.83525 4.5 8.66919 4.5 8.5C4.5 6.28178 6.28178 4.5 8.5 4.5ZM3.5 10.5H20.5V13H3.5V10.5ZM3.5 14.5H20.5V17H3.5V14.5ZM3.5 18.5H20.5V19.75C20.5 20.1733 20.1733 20.5 19.75 20.5H4.25C3.82675 20.5 3.5 20.1733 3.5 19.75V18.5Z" fill="black"/>
</svg>
