<svg width="24" height="24" viewBox="0 0 24 24" fill="none" xmlns="http://www.w3.org/2000/svg">
<path d="M18.8262 3.31057C18.4856 3.30272 18.1527 3.31831 17.8301 3.35647C16.5397 3.5091 15.4089 4.01725 14.5645 4.78225C12.8755 6.31225 12.4623 8.94938 14.1504 11.2002C14.1885 11.2519 14.2332 11.2985 14.2832 11.3389C14.1612 11.5455 14.1702 11.4991 14.0459 11.7149C12.9445 13.6265 11.7938 15.8658 10.9561 18.0635C10.47 15.2639 9.75093 11.3801 8.96192 9.01272C8.15131 6.58089 6.67274 5.4673 5.39942 5.0928C4.1261 4.71829 3.04395 5.02932 3.04395 5.02932C2.9461 5.05349 2.85412 5.09714 2.77352 5.15765C2.69291 5.21816 2.62532 5.2943 2.5748 5.38151C2.52427 5.46873 2.49184 5.56523 2.47945 5.66526C2.46705 5.76529 2.47494 5.86679 2.50265 5.9637C2.53036 6.06061 2.57731 6.15094 2.64071 6.2293C2.70411 6.30765 2.78265 6.37243 2.87164 6.41976C2.96063 6.46708 3.05825 6.49599 3.15866 6.50475C3.25907 6.5135 3.36022 6.50193 3.45606 6.47073C3.45606 6.47073 4.12391 6.28175 4.97559 6.53225C5.82728 6.78275 6.8487 7.41916 7.53809 9.48733C8.56837 12.5786 9.98317 21.2097 10 21.3125C10.0114 21.4734 10.0744 21.6263 10.1796 21.7486C10.2848 21.8708 10.4266 21.9559 10.584 21.9912C10.6046 21.996 10.6255 21.9999 10.6465 22.003C10.6527 22.004 10.6588 22.005 10.665 22.0059C10.6797 22.0073 10.6943 22.0083 10.709 22.0088C10.7217 22.0098 10.7344 22.0104 10.7471 22.0108C10.7559 22.0106 10.7647 22.0103 10.7734 22.0098C10.7917 22.0092 10.81 22.0079 10.8281 22.0059C10.8327 22.0053 10.8373 22.0046 10.8418 22.0039C10.8608 22.0017 10.8797 21.9988 10.8984 21.9951C10.9007 21.9948 10.903 21.9945 10.9053 21.9942C10.9085 21.9932 10.9118 21.9922 10.915 21.9912C10.9361 21.9866 10.957 21.9811 10.9775 21.9746C11.1106 21.9325 11.2293 21.854 11.3202 21.7481C11.4111 21.6422 11.4707 21.513 11.4922 21.375C12.0567 18.6649 13.766 15.2029 15.3447 12.4629C16.9283 9.71449 18.3623 7.68264 18.3623 7.68264C18.4228 7.60243 18.4665 7.51089 18.491 7.41345C18.5154 7.31601 18.52 7.21466 18.5045 7.1154C18.489 7.01615 18.4537 6.92102 18.4008 6.83566C18.3478 6.7503 18.2783 6.67644 18.1962 6.61848C18.1142 6.56051 18.0213 6.51962 17.9232 6.49822C17.825 6.47682 17.7236 6.47535 17.6249 6.49391C17.5261 6.51246 17.4321 6.55065 17.3485 6.60623C17.2648 6.6618 17.1931 6.73361 17.1377 6.81741C17.1377 6.81741 16.0186 8.5993 15.1611 9.94924C14.1479 8.34362 14.4633 6.89734 15.5713 5.89358C16.5883 4.97228 18.3387 4.54304 20.3926 5.11526C20.0158 5.72117 19.8184 6.40993 19.7178 7.04397C19.5537 8.07762 19.4957 9.06447 19.3242 9.4512C18.9356 10.3279 18.452 10.8707 17.625 11.0108C17.5256 11.0246 17.43 11.0582 17.3438 11.1096C17.2577 11.1611 17.1827 11.2293 17.1233 11.3102C17.064 11.3912 17.0215 11.4832 16.9984 11.5808C16.9753 11.6785 16.972 11.7798 16.9887 11.8787C17.0054 11.9777 17.0419 12.0723 17.0958 12.1569C17.1498 12.2415 17.2201 12.3145 17.3028 12.3714C17.3854 12.4283 17.4787 12.4681 17.5769 12.4883C17.6752 12.5086 17.7766 12.5089 17.875 12.4893C19.286 12.2503 20.192 11.1939 20.6953 10.0586C21.0924 9.16284 21.0583 8.16742 21.1992 7.27932C21.3402 6.39122 21.571 5.7403 22.1426 5.3887C22.2589 5.31708 22.3534 5.21506 22.416 5.09365C22.4786 4.97225 22.5068 4.83605 22.4977 4.69977C22.4885 4.56349 22.4424 4.4323 22.3641 4.32034C22.2859 4.20838 22.1785 4.11991 22.0537 4.06448C20.9413 3.57133 19.8479 3.33412 18.8262 3.31057Z" fill="black"/>
</svg>
