<svg width="24" height="24" viewBox="0 0 24 24" fill="none" xmlns="http://www.w3.org/2000/svg">
<path d="M11.9912 3.52246C11.1132 3.52285 10.2356 3.8726 9.59565 4.57129L1.19722 13.7432C1.08878 13.8615 1.02116 14.0115 1.00428 14.1711C0.987406 14.3307 1.02217 14.4915 1.10347 14.6299C3.23613 18.2555 7.47383 21 12 21C16.589 21 20.8019 18.3603 22.9042 14.6172C22.9815 14.4794 23.0133 14.3207 22.9951 14.1637C22.9769 14.0068 22.9095 13.8596 22.8027 13.7432L14.3876 4.56934C13.7473 3.87087 12.8691 3.52207 11.9912 3.52246ZM11.9921 5.00977C12.4618 5.00953 12.9315 5.20048 13.2822 5.58301L19.4765 12.3359C17.441 14.6408 14.7107 16.5 12 16.5C9.36598 16.5 6.61704 14.5946 4.55659 12.2949L10.7021 5.58398C11.0527 5.20117 11.5224 5.01 11.9921 5.00977ZM12.75 8C12.551 8 12.3603 8.07902 12.2196 8.21967C12.079 8.36032 12 8.55109 12 8.75C12 8.94891 12.079 9.13968 12.2196 9.28033C12.3603 9.42098 12.551 9.5 12.75 9.5C12.9489 9.5 13.1396 9.42098 13.2803 9.28033C13.4209 9.13968 13.5 8.94891 13.5 8.75C13.5 8.55109 13.4209 8.36032 13.2803 8.21967C13.1396 8.07902 12.9489 8 12.75 8ZM9.74995 10.5C9.55104 10.5 9.36027 10.579 9.21962 10.7197C9.07897 10.8603 8.99995 11.0511 8.99995 11.25C8.99995 11.4489 9.07897 11.6397 9.21962 11.7803C9.36027 11.921 9.55104 12 9.74995 12C9.94886 12 10.1396 11.921 10.2803 11.7803C10.4209 11.6397 10.5 11.4489 10.5 11.25C10.5 11.0511 10.4209 10.8603 10.2803 10.7197C10.1396 10.579 9.94886 10.5 9.74995 10.5ZM13.75 11.5C13.551 11.5 13.3603 11.579 13.2196 11.7197C13.079 11.8603 13 12.0511 13 12.25C13 12.4489 13.079 12.6397 13.2196 12.7803C13.3603 12.921 13.551 13 13.75 13C13.9489 13 14.1396 12.921 14.2803 12.7803C14.4209 12.6397 14.5 12.4489 14.5 12.25C14.5 12.0511 14.4209 11.8603 14.2803 11.7197C14.1396 11.579 13.9489 11.5 13.75 11.5ZM3.53804 13.4082C5.75362 15.8605 8.72649 18 12 18C15.3166 18 18.294 15.9114 20.496 13.4473L21.2783 14.3008C19.3677 17.3216 15.8208 19.5 12 19.5C8.27987 19.5 4.66999 17.2293 2.72749 14.293L3.53804 13.4082Z" fill="black"/>
</svg>
