<svg width="24" height="24" viewBox="0 0 24 24" fill="none" xmlns="http://www.w3.org/2000/svg">
<path d="M0.75 5.5C0.551094 5.50002 0.36034 5.57904 0.219692 5.71969C0.0790439 5.86034 1.98876e-05 6.05109 0 6.25L0 7.5C0 14.1184 5.38164 19.5 12 19.5C18.6184 19.5 24 14.1184 24 7.5V6.25C24 6.05109 23.921 5.86034 23.7803 5.71969C23.6397 5.57904 23.4489 5.50002 23.25 5.5H0.75ZM1.5 7H3V7.5C3 12.4618 7.0382 16.5 12 16.5C16.9618 16.5 21 12.4618 21 7.5V7H22.5V7.5C22.5 13.3076 17.8076 18 12 18C6.19236 18 1.5 13.3076 1.5 7.5V7ZM4.5 7H7.50098C7.50098 7.26505 7.6062 7.51925 7.79352 7.70676C7.98085 7.89427 8.23495 7.99974 8.5 8C8.76505 7.99974 9.01915 7.89427 9.20648 7.70676C9.3938 7.51925 9.49902 7.26505 9.49902 7H19.5V7.5C19.5 11.6512 16.1512 15 12 15C7.8488 15 4.5 11.6512 4.5 7.5V7ZM17 8C16.7348 8 16.4804 8.10536 16.2929 8.29289C16.1054 8.48043 16 8.73478 16 9C16 9.26522 16.1054 9.51957 16.2929 9.70711C16.4804 9.89464 16.7348 10 17 10C17.2652 10 17.5196 9.89464 17.7071 9.70711C17.8946 9.51957 18 9.26522 18 9C18 8.73478 17.8946 8.48043 17.7071 8.29289C17.5196 8.10536 17.2652 8 17 8ZM12 9C11.7348 9 11.4804 9.10536 11.2929 9.29289C11.1054 9.48043 11 9.73478 11 10C11 10.2652 11.1054 10.5196 11.2929 10.7071C11.4804 10.8946 11.7348 11 12 11C12.2652 11 12.5196 10.8946 12.7071 10.7071C12.8946 10.5196 13 10.2652 13 10C13 9.73478 12.8946 9.48043 12.7071 9.29289C12.5196 9.10536 12.2652 9 12 9ZM7.75 10C7.55109 10 7.36032 10.079 7.21967 10.2197C7.07902 10.3603 7 10.5511 7 10.75C7 10.9489 7.07902 11.1397 7.21967 11.2803C7.36032 11.421 7.55109 11.5 7.75 11.5C7.94891 11.5 8.13968 11.421 8.28033 11.2803C8.42098 11.1397 8.5 10.9489 8.5 10.75C8.5 10.5511 8.42098 10.3603 8.28033 10.2197C8.13968 10.079 7.94891 10 7.75 10ZM15.25 11.5C15.0511 11.5 14.8603 11.579 14.7197 11.7197C14.579 11.8603 14.5 12.0511 14.5 12.25C14.5 12.4489 14.579 12.6397 14.7197 12.7803C14.8603 12.921 15.0511 13 15.25 13C15.4489 13 15.6397 12.921 15.7803 12.7803C15.921 12.6397 16 12.4489 16 12.25C16 12.0511 15.921 11.8603 15.7803 11.7197C15.6397 11.579 15.4489 11.5 15.25 11.5ZM10.25 12.5C10.0511 12.5 9.86032 12.579 9.71967 12.7197C9.57902 12.8603 9.5 13.0511 9.5 13.25C9.5 13.4489 9.57902 13.6397 9.71967 13.7803C9.86032 13.921 10.0511 14 10.25 14C10.4489 14 10.6397 13.921 10.7803 13.7803C10.921 13.6397 11 13.4489 11 13.25C11 13.0511 10.921 12.8603 10.7803 12.7197C10.6397 12.579 10.4489 12.5 10.25 12.5Z" fill="black"/>
</svg>
