<svg width="20" height="20" viewBox="0 0 20 20" fill="none" xmlns="http://www.w3.org/2000/svg">
<path d="M10.1602 2.5H10.1595C10.1451 2.5 10.1316 2.5 10.1187 2.50017C10.0161 2.50121 9.8474 2.50284 9.83224 2.50301C9.46225 2.50301 8.72197 2.55513 7.9268 2.90509C7.47216 3.10505 7.06321 3.37542 6.71136 3.70872C6.29188 4.10584 5.95014 4.59547 5.69582 5.16421C5.32337 5.99695 5.41179 7.3996 5.4828 8.52679L5.48305 8.52856C5.49066 8.64928 5.49865 8.77533 5.50595 8.89816C5.45131 8.92318 5.36272 8.94958 5.23215 8.94958C5.02206 8.94958 4.77224 8.88261 4.4898 8.75065C4.4067 8.71207 4.31185 8.69256 4.20719 8.69256C4.03904 8.69256 3.86178 8.74191 3.70802 8.83205C3.51456 8.94532 3.38956 9.1054 3.35561 9.28288C3.33323 9.40028 3.33431 9.63232 3.59282 9.86764C3.73501 9.99719 3.94389 10.1167 4.2135 10.2229C4.28425 10.2507 4.36821 10.2772 4.45715 10.3053C4.76576 10.4031 5.23284 10.5509 5.35464 10.8367C5.41636 10.9817 5.3898 11.1724 5.2759 11.4028C5.27292 11.4091 5.26994 11.4153 5.26722 11.4218C5.23876 11.488 4.97321 12.0878 4.42851 12.7203C4.11899 13.08 3.77807 13.3806 3.41578 13.614C2.97357 13.899 2.49508 14.0853 1.99375 14.1677C1.79688 14.1999 1.65629 14.3748 1.66726 14.5735C1.67063 14.6308 1.6841 14.6879 1.70747 14.7432C1.70764 14.7435 1.70786 14.7439 1.70803 14.7442C1.78763 14.9298 1.9722 15.0875 2.27225 15.2266C2.63891 15.3964 3.18729 15.5393 3.90199 15.6511C3.9381 15.7195 3.97559 15.8916 4.00155 16.0095C4.02872 16.1347 4.05705 16.2635 4.09744 16.4003C4.14102 16.5484 4.25406 16.7255 4.54444 16.7255C4.65449 16.7255 4.78105 16.7008 4.9276 16.6725C5.14222 16.6305 5.43571 16.5732 5.80203 16.5732C6.00512 16.5732 6.2156 16.591 6.42746 16.6261C6.83584 16.6939 7.1879 16.9419 7.59525 17.2291C8.19148 17.6493 8.86636 18.125 9.8975 18.125C9.92562 18.125 9.95382 18.1241 9.98168 18.1222C10.0158 18.1238 10.058 18.125 10.1026 18.125C11.134 18.125 11.8087 17.6492 12.4043 17.2293L12.4053 17.2284C12.8127 16.9416 13.1644 16.6939 13.5726 16.6261C13.7844 16.5911 13.9948 16.5732 14.198 16.5732C14.5479 16.5732 14.825 16.6177 15.0724 16.6658C15.2339 16.6975 15.3594 16.7127 15.4556 16.7127L15.4651 16.7129H15.4748C15.6872 16.7129 15.8432 16.5967 15.9028 16.3933C15.9424 16.2594 15.9706 16.1336 15.9985 16.0063C16.0228 15.8959 16.0615 15.7188 16.0977 15.6496C16.8128 15.5377 17.361 15.3951 17.7277 15.2253C18.0271 15.0869 18.2114 14.9293 18.2915 14.7445C18.3155 14.689 18.3295 14.6316 18.3327 14.5731C18.344 14.3747 18.2032 14.1994 18.0062 14.1672C15.7781 13.8011 14.7743 11.5184 14.7328 11.4214C14.7301 11.415 14.7271 11.4087 14.724 11.4025C14.6101 11.1719 14.5838 10.9814 14.6455 10.8363C14.7671 10.5507 15.2338 10.4029 15.5427 10.3052C15.6321 10.2771 15.7163 10.2504 15.7865 10.2227C16.0906 10.103 16.3079 9.97311 16.4512 9.82561C16.6224 9.64976 16.6558 9.48129 16.6537 9.37103C16.6485 9.10428 16.444 8.86724 16.1186 8.75117C16.0088 8.70586 15.8835 8.68196 15.7559 8.68196C15.669 8.68196 15.5404 8.69385 15.4186 8.75053C15.158 8.87215 14.9245 8.93864 14.724 8.94812C14.6174 8.94273 14.5426 8.91969 14.4942 8.89769C14.5003 8.79364 14.507 8.68674 14.514 8.57529L14.5169 8.52757C14.5883 7.39964 14.677 5.99592 14.3044 5.16257C14.049 4.59181 13.706 4.10093 13.2849 3.70295C12.9316 3.36944 12.5213 3.0991 12.065 2.89927C11.271 2.5519 10.5307 2.5 10.1602 2.5Z" fill="#FFE400"/>
</svg>
