<svg width="20" height="20" viewBox="0 0 20 20" fill="none" xmlns="http://www.w3.org/2000/svg">
<path fill-rule="evenodd" clip-rule="evenodd" d="M6.73393 8.38829C9.91573 7.29159 10.4573 4.43474 10.0511 1.80807C10.0511 1.71329 10.1324 1.64559 10.2136 1.67267C13.26 3.16202 16.6855 6.41152 16.6855 11.2858C16.6855 15.0227 13.788 18.3263 9.57724 18.3263C8.0747 18.3947 6.5922 17.9607 5.36372 17.0928C4.13524 16.225 3.23074 14.9728 2.79299 13.5338C2.35525 12.0948 2.40918 10.551 2.94627 9.14612C3.48337 7.7412 4.47304 6.55514 5.75908 5.77516C5.84032 5.721 5.94864 5.77516 5.94864 5.86994C5.98925 6.3709 6.12465 7.63008 6.67977 8.38829H6.73393Z" fill="url(#paint0_linear_8098_68019)"/>
<defs>
<linearGradient id="paint0_linear_8098_68019" x1="9.59272" y1="1.66666" x2="9.59272" y2="18.3333" gradientUnits="userSpaceOnUse">
<stop stop-color="#FB5971"/>
<stop offset="1" stop-color="#FA253D"/>
</linearGradient>
</defs>
</svg>
