<svg width="20" height="20" viewBox="0 0 20 20" fill="none" xmlns="http://www.w3.org/2000/svg">
<path fill-rule="evenodd" clip-rule="evenodd" d="M16.5118 4.51491C17.2303 4.70895 17.7951 5.27514 17.986 5.99284C18.3333 7.29534 18.3333 10.0146 18.3333 10.0146C18.3333 10.0146 18.3333 12.7339 17.986 14.0364C17.7924 14.7568 17.2277 15.323 16.5118 15.5144C15.2126 15.8626 9.99998 15.8626 9.99998 15.8626C9.99998 15.8626 4.78998 15.8626 3.48815 15.5144C2.76962 15.3203 2.20487 14.7541 2.01397 14.0364C1.66664 12.7339 1.66664 10.0146 1.66664 10.0146C1.66664 10.0146 1.66664 7.29534 2.01397 5.99284C2.20753 5.27248 2.77227 4.70629 3.48815 4.51491C4.78998 4.16669 9.99998 4.16669 9.99998 4.16669C9.99998 4.16669 15.2126 4.16669 16.5118 4.51491ZM12.6646 10.0146L8.3349 12.5213V7.508L12.6646 10.0146Z" fill="#FF3000"/>
</svg>
