<svg width="20" height="20" viewBox="0 0 20 20" fill="none" xmlns="http://www.w3.org/2000/svg">
<path d="M6.17601 2.27682L5.40211 3.05072L4.0478 11.757L8.11074 13.8852L8.69116 14.6591L12.5606 13.3048L16.817 10.0157L17.0105 6.92018L16.817 2.4703L16.2366 2.27682H6.17601Z" fill="white"/>
<path d="M5.70788 1.66666L2.50003 4.64285V15.3571H6.34945V18.3333L9.55729 15.3571H12.1236L17.8977 9.99999V1.66666H5.70788ZM16.6146 9.40475L14.0483 11.7857H11.482L9.23651 13.869V11.7857H6.34945V2.85713H16.6146V9.40475Z" fill="black"/>
<path d="M14.6902 4.94047H13.4071V8.5119H14.6902V4.94047Z" fill="black"/>
<path d="M11.1624 4.94047H9.87922V8.5119H11.1624V4.94047Z" fill="black"/>
</svg>
