<svg width="20" height="20" viewBox="0 0 20 20" fill="none" xmlns="http://www.w3.org/2000/svg">
<path d="M5.18394 12.2028C5.18394 13.1715 4.40103 13.9544 3.43236 13.9544C2.46368 13.9544 1.68077 13.1715 1.68077 12.2028C1.68077 11.2341 2.46368 10.4512 3.43236 10.4512H5.18394V12.2028ZM6.05973 12.2028C6.05973 11.2341 6.84263 10.4512 7.81131 10.4512C8.77999 10.4512 9.56289 11.2341 9.56289 12.2028V16.5818C9.56289 17.5505 8.77999 18.3334 7.81131 18.3334C6.84263 18.3334 6.05973 17.5505 6.05973 16.5818V12.2028Z" fill="#E01E5A"/>
<path d="M7.81046 5.16985C6.84178 5.16985 6.05888 4.38695 6.05888 3.41827C6.05888 2.44959 6.84178 1.66669 7.81046 1.66669C8.77914 1.66669 9.56205 2.44959 9.56205 3.41827V5.16985H7.81046ZM7.81046 6.05891C8.77914 6.05891 9.56205 6.84181 9.56205 7.81049C9.56205 8.77917 8.77914 9.56207 7.81046 9.56207H3.41824C2.44956 9.56207 1.66666 8.77917 1.66666 7.81049C1.66666 6.84181 2.44956 6.05891 3.41824 6.05891H7.81046Z" fill="#36C5F0"/>
<path d="M14.8307 7.81049C14.8307 6.84181 15.6136 6.05891 16.5823 6.05891C17.551 6.05891 18.3339 6.84181 18.3339 7.81049C18.3339 8.77917 17.551 9.56207 16.5823 9.56207H14.8307V7.81049ZM13.9549 7.81049C13.9549 8.77917 13.172 9.56207 12.2033 9.56207C11.2347 9.56207 10.4518 8.77917 10.4518 7.81049V3.41827C10.4518 2.44959 11.2347 1.66669 12.2033 1.66669C13.172 1.66669 13.9549 2.44959 13.9549 3.41827V7.81049Z" fill="#2EB67D"/>
<path d="M12.2033 14.8302C13.172 14.8302 13.9549 15.6131 13.9549 16.5818C13.9549 17.5505 13.172 18.3334 12.2033 18.3334C11.2347 18.3334 10.4518 17.5505 10.4518 16.5818V14.8302H12.2033ZM12.2033 13.9544C11.2347 13.9544 10.4518 13.1715 10.4518 12.2028C10.4518 11.2341 11.2347 10.4512 12.2033 10.4512H16.5956C17.5642 10.4512 18.3471 11.2341 18.3471 12.2028C18.3471 13.1715 17.5642 13.9544 16.5956 13.9544H12.2033Z" fill="#ECB22E"/>
</svg>
