<svg width="20" height="20" viewBox="0 0 20 20" fill="none" xmlns="http://www.w3.org/2000/svg">
<path d="M15.7972 4.41252C17.6795 7.19714 18.6091 10.3381 18.2616 13.9541C18.2601 13.9694 18.2522 13.9834 18.2397 13.9927C16.8143 15.0458 15.4332 15.6849 14.0716 16.1088C14.061 16.112 14.0496 16.1118 14.0391 16.1083C14.0286 16.1047 14.0195 16.0979 14.013 16.0889C13.6985 15.6485 13.4126 15.1841 13.1622 14.6966C13.1478 14.6678 13.161 14.6333 13.1905 14.6219C13.6445 14.4498 14.0762 14.2436 14.4914 13.9994C14.5241 13.9801 14.5262 13.9329 14.4959 13.9103C14.4078 13.8445 14.3205 13.7753 14.237 13.7061C14.2214 13.6933 14.2003 13.6908 14.1826 13.6994C11.487 14.9519 8.53408 14.9519 5.80659 13.6994C5.78888 13.6914 5.76784 13.6942 5.75263 13.7067C5.6693 13.7759 5.5818 13.8445 5.49451 13.9103C5.4643 13.9329 5.4668 13.9801 5.49971 13.9994C5.91492 14.239 6.34659 14.4498 6.79992 14.6228C6.82929 14.6341 6.84325 14.6678 6.82867 14.6966C6.58367 15.1848 6.29784 15.6491 5.97742 16.0895C5.96346 16.1073 5.94055 16.1155 5.91888 16.1088C4.56367 15.6849 3.18263 15.0458 1.75722 13.9927C1.74534 13.9834 1.7368 13.9688 1.73555 13.9535C1.44514 10.8257 2.03701 7.65872 4.19763 4.41189C4.20284 4.4033 4.21076 4.39659 4.21992 4.39261C5.28305 3.90167 6.422 3.5405 7.61242 3.33423C7.63409 3.33087 7.65575 3.34094 7.667 3.36022C7.81409 3.62225 7.98221 3.95827 8.09596 4.23288C9.35075 4.04002 10.6251 4.04002 11.9062 4.23288C12.0199 3.96414 12.1822 3.62225 12.3287 3.36022C12.3339 3.35065 12.342 3.34299 12.3518 3.33832C12.3616 3.33365 12.3726 3.33222 12.3832 3.33423C13.5743 3.54112 14.7132 3.9023 15.7755 4.39261C15.7849 4.39659 15.7926 4.4033 15.7972 4.41252ZM8.73388 10.3595C8.747 9.43485 8.077 8.66973 7.23596 8.66973C6.4018 8.66973 5.73826 9.42814 5.73826 10.3595C5.73826 11.2906 6.41492 12.049 7.23596 12.049C8.07033 12.049 8.73388 11.2906 8.73388 10.3595ZM14.2718 10.3595C14.2849 9.43485 13.6149 8.66973 12.7741 8.66973C11.9397 8.66973 11.2762 9.42814 11.2762 10.3595C11.2762 11.2906 11.9528 12.049 12.7741 12.049C13.6149 12.049 14.2718 11.2906 14.2718 10.3595Z" fill="#5865F2"/>
</svg>
