<svg width="60" height="60" viewBox="0 0 60 60" fill="none" xmlns="http://www.w3.org/2000/svg">
<rect x="4" y="4" width="52" height="52" rx="8" fill="#00BCB4"/>
<mask id="mask0_43040_17" style="mask-type:luminance" maskUnits="userSpaceOnUse" x="9" y="25" width="42" height="10">
<path d="M50.85 25.5H9.14999V34.5H50.85V25.5Z" fill="white"/>
</mask>
<g mask="url(#mask0_43040_17)">
<path d="M18.6688 27.0883C16.4577 27.0883 15.2981 28.3284 15.2981 30.683C15.2981 32.9684 16.3406 34.2353 18.5966 34.2353C20.8073 34.2353 21.9808 32.9976 21.9808 30.6406C21.9808 28.3419 20.9383 27.0883 18.6688 27.0883ZM18.6688 32.587C17.9605 32.587 17.4865 32.2471 17.4865 30.6276C17.4865 29.1162 17.9377 28.7366 18.6012 28.7366C19.4494 28.7366 19.7969 29.2395 19.7969 30.6959C19.7969 32.1524 19.4764 32.587 18.6688 32.587ZM14.3695 32.2977H11.7365C11.5194 32.2916 11.3449 32.1203 11.34 31.9078V25.6104C11.34 25.5808 11.3278 25.5522 11.3061 25.5315C11.2847 25.5109 11.2553 25.4995 11.2248 25.5H9.2767C9.21147 25.4987 9.15614 25.5469 9.14999 25.6104V32.5949C9.15133 33.5002 9.90193 34.234 10.8284 34.2353H14.3695C14.4347 34.2366 14.49 34.1885 14.4961 34.1249V32.4216C14.4967 32.3885 14.4836 32.3567 14.4598 32.3331C14.4357 32.3099 14.4031 32.2971 14.3695 32.2977ZM34.4173 27.3535H32.5303C32.4616 27.3535 32.4058 27.4088 32.4058 27.4769V31.8821C32.4058 32.367 31.8893 32.8385 31.2029 32.8385C30.5619 32.8385 30.2807 32.4771 30.2807 31.7857V27.4769C30.2807 27.4088 30.2251 27.3535 30.1564 27.3535H28.2558C28.1863 27.3535 28.1302 27.4083 28.1288 27.4769V31.9514C28.1288 33.586 29.0938 34.5 30.6207 34.5C31.2708 34.5093 31.9064 34.31 32.433 33.932C32.4632 33.9026 32.5071 33.8915 32.548 33.9029C32.5889 33.9148 32.6201 33.9471 32.63 33.9881L32.7273 34.2642C32.7546 34.3338 32.784 34.3608 32.8519 34.3608H34.4039C34.4392 34.364 34.4742 34.3523 34.5009 34.329C34.5277 34.3057 34.5432 34.2724 34.5442 34.2372V27.4769C34.5432 27.4416 34.5274 27.4086 34.5009 27.3853C34.4742 27.362 34.4392 27.3503 34.4039 27.3535H34.4173ZM26.857 32.5253C26.8391 32.483 26.803 32.4523 26.7594 32.4419C26.7161 32.4314 26.6704 32.443 26.6365 32.4729C26.3865 32.6524 26.0901 32.7503 25.7859 32.754C25.3871 32.754 25.1863 32.5687 25.1863 32.1002V29.0291C25.1853 28.9912 25.1992 28.9544 25.2251 28.9274C25.251 28.9007 25.2866 28.8861 25.3232 28.8875H26.7733C26.8086 28.8914 26.8439 28.8795 26.8701 28.8544C26.8963 28.8295 26.9107 28.794 26.9099 28.7572V27.3628C26.9107 27.3257 26.8963 27.2905 26.8698 27.2656C26.8439 27.2405 26.8084 27.2286 26.7733 27.2325H25.3342C25.2994 27.2344 25.2652 27.2217 25.2395 27.1971C25.2136 27.1727 25.1986 27.1386 25.1975 27.1023V25.6305C25.1986 25.5956 25.1858 25.5617 25.162 25.5368C25.1379 25.5122 25.1056 25.499 25.0719 25.5003H23.9695C23.9348 25.4984 23.9006 25.5109 23.8749 25.5355C23.8492 25.5601 23.834 25.5943 23.833 25.6305C23.7602 26.6451 23.035 27.2119 22.374 27.2301C22.3395 27.2275 22.3055 27.2407 22.2812 27.2661C22.2572 27.2916 22.2449 27.327 22.2484 27.3628V28.7546C22.2465 28.7898 22.259 28.8239 22.2831 28.8488C22.3072 28.8737 22.34 28.8869 22.374 28.8848H22.9824C23.0572 28.8861 23.1176 28.9489 23.1187 29.0264V32.1026C23.1187 33.6704 23.8022 34.5 25.3668 34.5C26.3873 34.5 27.0374 34.2051 27.2799 34.0429C27.3194 34.0085 27.3358 33.9529 27.3218 33.9013L26.8567 32.5256L26.857 32.5253ZM35.1165 33.1739C35.0663 33.1236 35.0663 33.0452 35.1165 32.9949L35.9551 31.7635C35.9995 31.6883 36.0887 31.7106 36.1449 31.7413C36.8262 32.2159 37.5172 32.5624 38.3111 32.5624C38.5664 32.5624 39.0136 32.4896 39.0136 32.1209C39.0136 31.8363 38.4774 31.6266 37.8965 31.4591C36.9035 31.1631 35.5544 30.7108 35.5544 29.2806C35.5544 28.208 36.5263 27.0912 38.4119 27.0912C39.4116 27.0541 40.3884 27.3824 41.1378 28.0071C41.187 28.0574 41.187 28.1352 41.1378 28.1857L40.1424 29.3425C40.098 29.3954 40.0092 29.3645 39.9528 29.3425C39.7188 29.1943 39.0933 28.784 38.3675 28.784C38.0112 28.784 37.777 28.9317 37.777 29.1834C37.777 29.4791 38.3018 29.6578 38.9038 29.8566C39.8964 30.1943 41.2269 30.5938 41.2269 32.015C41.2269 33.0876 40.29 34.2353 38.201 34.2353C37.016 34.2353 35.7888 33.7938 35.1072 33.1937" fill="white"/>
<path d="M44.7392 33.1693C44.6894 33.119 44.6894 33.0407 44.7392 32.9904L45.5762 31.759C45.6209 31.684 45.7097 31.706 45.7658 31.737C46.4366 32.2114 47.1377 32.5624 47.9279 32.5624C48.1826 32.5624 48.641 32.4895 48.641 32.1208C48.641 31.8363 48.1055 31.6266 47.5259 31.459C46.5347 31.1631 45.1883 30.7107 45.1883 29.2805C45.1883 28.2079 46.1585 27.0911 48.0401 27.0911C49.0382 27.0541 50.0129 27.3823 50.7611 28.007C50.81 28.0573 50.81 28.1351 50.7611 28.1857L49.7675 29.3425C49.7231 29.3954 49.6343 29.3644 49.5782 29.3425C49.3328 29.1942 48.7202 28.7839 47.996 28.7839C47.6402 28.7839 47.4068 28.9316 47.4068 29.1834C47.4068 29.479 47.9303 29.6577 48.5309 29.8565C49.5221 30.1943 50.8499 30.5937 50.8499 32.0149C50.8499 33.0875 49.9148 34.2353 47.8298 34.2353C46.6469 34.2353 45.422 33.7938 44.7419 33.1937L44.7392 33.1693ZM43.3664 25.5069C42.7919 25.5071 42.2612 25.8198 41.975 26.3269C41.6891 26.8341 41.6903 27.4583 41.9792 27.9639L43.1549 29.8814C43.2008 29.9553 43.2806 30 43.3664 30C43.4522 30 43.532 29.955 43.5779 29.8814L44.7512 27.957C45.0401 27.4517 45.0419 26.828 44.756 26.3211C44.4701 25.8139 43.9406 25.5011 43.3664 25.5" fill="#F9BE00"/>
</g>
</svg>
