<svg width="20" height="20" viewBox="0 0 20 20" fill="none" xmlns="http://www.w3.org/2000/svg">
<g clip-path="url(#clip0_8098_68010)">
<path d="M20.3748 5.52247C20.2841 7.39806 18.8981 9.96634 16.2175 13.226C13.446 16.631 11.1011 18.3333 9.18292 18.3333C7.9951 18.3333 6.98912 17.2968 6.16802 15.2229C5.61926 13.3219 5.07112 11.4212 4.52256 9.52019C3.91245 7.44748 3.2583 6.40978 2.5589 6.40978C2.40642 6.40978 1.87275 6.71305 0.959103 7.31729L0 6.1494C1.00599 5.31381 1.99852 4.47842 2.97495 3.64188C4.31668 2.54591 5.32389 1.96956 5.99516 1.91129C7.5817 1.76725 8.55813 2.79226 8.92465 4.9865C9.32073 7.35383 9.5947 8.82634 9.74881 9.40269C10.206 11.3667 10.7091 12.3475 11.2589 12.3475C11.6856 12.3475 12.3265 11.7106 13.181 10.4367C14.0347 9.16249 14.4919 8.19306 14.5537 7.5271C14.6752 6.42748 14.2178 5.87632 13.181 5.87632C12.693 5.87632 12.1899 5.98247 11.6723 6.19228C12.674 3.09053 14.5881 1.58417 17.4135 1.67014C19.508 1.72821 20.4954 3.01226 20.3748 5.52247Z" fill="#32B8E8"/>
</g>
<defs>
<clipPath id="clip0_8098_68010">
<rect width="20" height="20" fill="white"/>
</clipPath>
</defs>
</svg>
