<svg width="20" height="20" viewBox="0 0 20 20" fill="none" xmlns="http://www.w3.org/2000/svg">
<path fill-rule="evenodd" clip-rule="evenodd" d="M1.81779 4.86213C2.23879 3.24716 3.57425 2.01867 5.23409 1.7219C5.45149 1.68394 5.94495 1.67359 7.58753 1.67014C9.6097 1.66669 9.66837 1.67014 9.70288 1.73225C9.72703 1.78056 9.73739 4.41698 9.73739 10.0142C9.73739 17.5645 9.73394 18.2305 9.68217 18.2823C9.63041 18.3341 9.43026 18.3375 7.49781 18.3237C5.63093 18.3134 5.34106 18.303 5.11331 18.2513C3.3672 17.8441 2.13871 16.6121 1.75568 14.8833C1.68666 14.5623 1.68321 14.4657 1.67286 10.311C1.6556 5.78695 1.66595 5.44532 1.81779 4.86213ZM8.35706 16.9952V3.0125L7.0216 3.01595C5.54466 3.0194 5.33416 3.04011 4.87865 3.223C3.97109 3.58533 3.29818 4.38937 3.09114 5.35905C3.01867 5.70068 3.01867 14.2863 3.09459 14.6348C3.32579 15.7494 4.15053 16.6052 5.26169 16.8916C5.5205 16.9572 5.65853 16.9641 6.95259 16.9779L8.35706 16.9952Z" fill="#E8442E"/>
<path d="M5.53086 5.12094C5.31345 5.16235 4.98218 5.32799 4.80619 5.48328C4.44385 5.7973 4.26441 6.24245 4.29202 6.76697C4.30582 7.03959 4.32307 7.11205 4.4335 7.33291C4.59569 7.66763 4.84069 7.91264 5.17542 8.07828C5.40663 8.19216 5.46529 8.20596 5.76551 8.21631C6.03812 8.22667 6.13475 8.21631 6.31764 8.1542C7.06646 7.90229 7.51852 7.17417 7.39084 6.4288C7.24245 5.54194 6.40046 4.9484 5.53086 5.12094Z" fill="#E8442E"/>
<path fill-rule="evenodd" clip-rule="evenodd" d="M11.3938 10.0038C11.3938 5.44187 11.4041 1.7012 11.4179 1.69084C11.4283 1.67704 12.1184 1.66669 12.9466 1.66669C14.1475 1.66669 14.5202 1.67704 14.7618 1.71845C16.5631 2.02902 17.933 3.38519 18.2747 5.18306C18.323 5.43497 18.3299 6.02505 18.3299 9.98312C18.3299 14.2115 18.3349 14.7089 18.2016 15.1659C18.1786 15.2448 18.1514 15.3226 18.1194 15.4181C18.0607 15.5872 17.9468 15.8598 17.8606 16.022C17.1877 17.2885 15.9523 18.1408 14.5513 18.2996C14.22 18.3341 11.5422 18.3479 11.449 18.3134C11.3972 18.2927 11.3938 17.53 11.3938 10.0038ZM16.2627 10.2833C16.0832 9.75877 15.6415 9.34813 15.1032 9.20665C14.2405 8.98234 13.3433 9.47926 13.0845 10.3247C12.9982 10.5939 12.9948 11.0356 13.0707 11.2978C13.3226 12.1536 14.2405 12.6747 15.1032 12.4504C15.6346 12.3089 16.0487 11.9259 16.2592 11.3807C16.3731 11.0839 16.3766 10.6077 16.2627 10.2833Z" fill="#E8442E"/>
</svg>
