<svg width="20" height="20" viewBox="0 0 20 20" fill="none" xmlns="http://www.w3.org/2000/svg">
<path d="M1.85527 10.9965C1.82062 10.9965 1.79299 11.0233 1.78861 11.0619L1.66669 11.9877L1.78861 12.8973C1.78905 12.9354 1.82062 12.9622 1.85527 12.9622C1.88904 12.9622 1.91623 12.9359 1.92193 12.8973L2.06622 11.9872L1.92193 11.0614C1.91667 11.0233 1.88904 10.9965 1.85527 10.9965ZM2.54074 10.4909C2.53504 10.451 2.50653 10.4238 2.47145 10.4238C2.43636 10.4238 2.40698 10.4523 2.40216 10.4909C2.40216 10.4909 2.23813 11.9877 2.23813 11.9877L2.40216 13.4512C2.40698 13.4906 2.43592 13.5187 2.47145 13.5187C2.50653 13.5187 2.53504 13.4911 2.54074 13.4516L2.72713 11.9877L2.54074 10.4909ZM5.12212 9.11028C5.05502 9.11028 4.99932 9.1651 4.99625 9.23527L4.86556 11.989L4.99625 13.7687C4.99976 13.8384 5.05502 13.8932 5.12212 13.8932C5.18878 13.8932 5.24447 13.8384 5.24842 13.7687V13.7687L5.39578 11.989L5.24842 9.23531C5.24447 9.16558 5.18922 9.11032 5.12212 9.11032V9.11028ZM3.78582 10.0673C3.73407 10.0673 3.69197 10.1085 3.68802 10.1633L3.5411 11.9877L3.68802 13.7507C3.69197 13.8056 3.73407 13.8468 3.78582 13.8468C3.83669 13.8468 3.87923 13.8056 3.88362 13.7507L4.05071 11.9877L3.88362 10.1629C3.88318 10.1081 3.83713 10.0668 3.78582 10.0668V10.0673ZM6.4799 13.892C6.56323 13.892 6.63121 13.8249 6.63428 13.7389L6.76234 11.9895L6.63472 8.32354C6.63121 8.23758 6.56367 8.17049 6.48034 8.17049C6.39614 8.17049 6.32816 8.23802 6.32553 8.32398L6.21194 11.9895L6.32553 13.7398C6.32816 13.8253 6.39614 13.8924 6.4799 13.8924V13.892ZM9.25951 13.9003C9.37441 13.9003 9.4687 13.806 9.4709 13.6898V13.6911V13.6898L9.56036 11.9904L9.4709 7.75648C9.4687 7.6407 9.37397 7.54597 9.25951 7.54597C9.14461 7.54597 9.04988 7.64026 9.04812 7.75692L8.9683 11.9895C8.9683 11.9921 9.04812 13.6915 9.04812 13.6915C9.04988 13.8064 9.14504 13.9012 9.25951 13.9012V13.9003ZM7.85918 13.8946C7.95917 13.8946 8.03943 13.8143 8.04206 13.7122V13.7135L8.15082 11.9904L8.04206 8.29767C8.03943 8.19548 7.95873 8.11566 7.85918 8.11566C7.75875 8.11566 7.67805 8.19548 7.67586 8.29767L7.57938 11.9904L7.6763 13.713C7.67849 13.8139 7.75875 13.8942 7.85962 13.8942L7.85918 13.8946ZM4.45199 13.8779C4.5112 13.8779 4.55944 13.8306 4.56383 13.7679L4.72127 11.9882L4.56383 10.2949C4.56339 10.2322 4.51164 10.1852 4.45199 10.1852C4.39191 10.1852 4.34367 10.2326 4.34016 10.2958L4.20157 11.9882L4.34016 13.7679C4.34411 13.8306 4.39191 13.8779 4.45199 13.8779ZM3.12754 13.7806C3.17095 13.7806 3.20604 13.7464 3.21086 13.699L3.3876 11.9877L3.21086 10.212C3.2056 10.1646 3.17052 10.1304 3.1271 10.1304C3.08324 10.1304 3.04816 10.1646 3.04377 10.212L2.88808 11.9877L3.04377 13.6986C3.04421 13.7459 3.08324 13.7806 3.1271 13.7806H3.12754ZM8.55781 8.23583C8.44948 8.23583 8.36265 8.32223 8.36046 8.43231L8.27231 11.9899L8.36046 13.7021C8.36265 13.8108 8.44948 13.8972 8.55781 13.8972C8.66613 13.8972 8.75253 13.8113 8.75516 13.7008V13.7021L8.85428 11.9899L8.75516 8.43143C8.75253 8.32135 8.66613 8.23539 8.55781 8.23539V8.23583ZM5.79969 13.8955C5.87469 13.8955 5.93653 13.8345 5.94003 13.7564L6.07774 11.989L5.94003 8.60554C5.93609 8.52747 5.87469 8.46651 5.79969 8.46651C5.72426 8.46651 5.66242 8.52747 5.65935 8.60554L5.53743 11.989L5.65935 13.7564C5.66242 13.8336 5.72426 13.8946 5.79969 13.8946V13.8955ZM7.33685 13.7279V13.7271L7.45526 11.9886L7.33685 8.19899C7.33422 8.1047 7.25967 8.03102 7.16801 8.03102C7.07591 8.03102 7.00179 8.1047 6.99916 8.19899L6.89434 11.9882L6.9996 13.7275C7.00223 13.8209 7.07635 13.8942 7.16845 13.8942C7.26011 13.8942 7.33422 13.8205 7.33729 13.7266L7.33685 13.7279ZM16.2835 9.80413C16.0028 9.80413 15.7349 9.86114 15.4906 9.96333C15.3274 8.11566 13.7785 6.66666 11.8887 6.66666C11.4264 6.66666 10.9756 6.75788 10.5774 6.91181C10.4226 6.97146 10.3813 7.03329 10.38 7.15302V13.6591C10.3818 13.7845 10.4791 13.8889 10.6015 13.9016C10.6068 13.9017 16.2471 13.9051 16.2835 13.9051C17.4154 13.9051 18.3334 12.9872 18.3334 11.8553C18.3334 10.7229 17.4159 9.80501 16.2835 9.80501V9.80413ZM9.96077 7.14732C9.83753 7.14732 9.73666 7.24819 9.73491 7.37274L9.64237 11.9904L9.73491 13.6661C9.73666 13.7885 9.83753 13.8893 9.96077 13.8893C10.0836 13.8893 10.1844 13.7885 10.1866 13.6644V13.6665L10.2871 11.9904L10.1866 7.3723C10.1849 7.24863 10.0836 7.14732 9.96077 7.14732Z" fill="url(#paint0_linear_8098_68016)"/>
<defs>
<linearGradient id="paint0_linear_8098_68016" x1="10.2118" y1="13.8437" x2="10.1452" y2="6.6334" gradientUnits="userSpaceOnUse">
<stop stop-color="#FF433A"/>
<stop offset="1" stop-color="#FF9436"/>
</linearGradient>
</defs>
</svg>
