<svg width="20" height="20" viewBox="0 0 20 20" fill="none" xmlns="http://www.w3.org/2000/svg">
<path d="M2.803 15.8365H5.45452V9.39706L1.66664 6.55615V14.7001C1.66664 15.3289 2.17611 15.8365 2.803 15.8365Z" fill="#4285F4"/>
<path d="M14.5454 15.8365H17.1969C17.8257 15.8365 18.3333 15.327 18.3333 14.7001V6.55615L14.5454 9.39706" fill="#34A853"/>
<path d="M14.5454 4.4729V9.39706L18.3333 6.55615V5.04108C18.3333 3.63578 16.7291 2.83464 15.606 3.67745" fill="#FBBC04"/>
<path d="M5.45452 9.39706L5.45452 4.47282L9.99997 7.88191L14.5454 4.4729V9.39706L9.99997 12.8062" fill="#EA4335"/>
<path d="M1.66664 5.04108V6.55615L5.45452 9.39706L5.45452 4.47282L4.39391 3.67745C3.26891 2.83464 1.66664 3.63578 1.66664 5.04108Z" fill="#C5221F"/>
</svg>
