<svg width="20" height="20" viewBox="0 0 20 20" fill="none" xmlns="http://www.w3.org/2000/svg">
<path fill-rule="evenodd" clip-rule="evenodd" d="M18.3241 7.35123C18.3252 7.35659 18.3263 7.36202 18.3271 7.36773C18.3313 7.39794 18.3334 7.42919 18.3334 7.46096V12.5391C18.3334 12.5703 18.3313 12.6016 18.3271 12.6328C18.3264 12.6375 18.3254 12.6423 18.3244 12.6472L18.3235 12.6515C18.3227 12.6555 18.322 12.6595 18.3214 12.6636C18.3177 12.6839 18.3141 12.7037 18.3089 12.7235C18.308 12.7269 18.3069 12.7303 18.3058 12.7337L18.3037 12.7402L18.3018 12.7455C18.3003 12.7498 18.2988 12.7541 18.2974 12.7584L18.295 12.7657C18.29 12.7806 18.285 12.7958 18.2792 12.811C18.2745 12.8224 18.2688 12.8339 18.263 12.8453C18.2557 12.8615 18.2479 12.8771 18.2386 12.8932C18.2373 12.8954 18.236 12.8976 18.2347 12.8998C18.2327 12.9032 18.2306 12.9065 18.2284 12.9099L18.2252 12.9151C18.2228 12.9187 18.2205 12.9224 18.2182 12.9261C18.2089 12.9412 18.199 12.9552 18.188 12.9693C18.1802 12.9802 18.1719 12.9906 18.1636 13.0005C18.1521 13.0136 18.1401 13.0271 18.1276 13.0391L18.1271 13.0396C18.1179 13.0493 18.1092 13.0585 18.0995 13.0672C18.086 13.0792 18.0724 13.0906 18.0589 13.1016L18.049 13.1092C18.0446 13.1126 18.0402 13.1159 18.0358 13.1193L18.0327 13.1216L18.0266 13.1261C18.0245 13.1274 18.0225 13.1289 18.0206 13.1305C18.0186 13.1321 18.0167 13.1336 18.0146 13.1349L10.3974 18.213C10.2771 18.2932 10.1386 18.3334 10 18.3334C9.86148 18.3334 9.72294 18.2932 9.60262 18.213L1.98596 13.1349C1.98389 13.1336 1.98194 13.1321 1.98 13.1305C1.97805 13.129 1.97606 13.1274 1.97398 13.1261C1.96252 13.1182 1.9521 13.1099 1.94169 13.1016C1.92762 13.0906 1.91408 13.0792 1.90106 13.0672C1.89117 13.0584 1.88179 13.049 1.87242 13.0391C1.85992 13.0271 1.84794 13.0136 1.837 13.0005C1.82815 12.9906 1.81981 12.9802 1.812 12.9693C1.80158 12.9552 1.79169 12.9412 1.78231 12.9261C1.77502 12.9151 1.76825 12.9042 1.76148 12.8932C1.75262 12.8771 1.74481 12.8615 1.737 12.8453C1.73526 12.8415 1.73347 12.8377 1.73168 12.8339C1.72809 12.8262 1.7245 12.8186 1.72137 12.811C1.71481 12.795 1.70951 12.7791 1.70434 12.7635L1.70262 12.7584L1.69924 12.748C1.69657 12.74 1.69387 12.7318 1.69169 12.7235C1.68648 12.7037 1.68283 12.6839 1.67919 12.6636L1.67747 12.6553C1.67584 12.6477 1.67422 12.6401 1.67346 12.6328C1.66929 12.6016 1.66669 12.5703 1.66669 12.5391V7.46096C1.66669 7.42919 1.66929 7.39794 1.67346 7.36773C1.67423 7.35965 1.67585 7.35215 1.67748 7.34458L1.67919 7.33648C1.68283 7.31617 1.68648 7.29585 1.69169 7.27658C1.69387 7.2682 1.69657 7.26007 1.69924 7.25202L1.70262 7.24169C1.70835 7.22398 1.71408 7.20679 1.72137 7.1896C1.72595 7.17791 1.73152 7.16621 1.73663 7.15549L1.737 7.15471C1.74481 7.13804 1.75262 7.12242 1.76148 7.10731C1.76825 7.09585 1.77502 7.08492 1.78231 7.07398C1.79169 7.05887 1.80158 7.04429 1.812 7.03023C1.81981 7.01981 1.82815 7.0094 1.837 6.9995C1.84794 6.98596 1.85992 6.97294 1.87242 6.96044L1.87803 6.95478C1.88555 6.94717 1.89314 6.9395 1.90106 6.93283C1.91408 6.92085 1.92762 6.90939 1.94169 6.89846C1.9521 6.89013 1.96253 6.88179 1.97398 6.87398C1.97606 6.87268 1.97802 6.87111 1.97997 6.86955C1.98192 6.86799 1.98387 6.86643 1.98596 6.86512L9.60262 1.787C9.84377 1.62658 10.1568 1.62658 10.3974 1.787L18.0146 6.86512C18.0167 6.86642 18.0186 6.86797 18.0206 6.86953C18.0225 6.87109 18.0245 6.87268 18.0266 6.87398C18.0342 6.87942 18.0416 6.88511 18.049 6.89087L18.0589 6.89846C18.0724 6.90939 18.086 6.92085 18.0995 6.93283C18.1066 6.93877 18.1131 6.94551 18.1196 6.95228C18.1223 6.955 18.1249 6.95775 18.1276 6.96044C18.1401 6.97294 18.1521 6.98596 18.1636 6.9995C18.1719 7.0094 18.1802 7.01981 18.188 7.03023C18.199 7.04429 18.2089 7.05887 18.2182 7.07398L18.2239 7.08305C18.2289 7.09096 18.2341 7.09905 18.2386 7.10731C18.2479 7.12242 18.2557 7.13804 18.263 7.15471C18.2688 7.16565 18.2745 7.17762 18.2792 7.1896C18.286 7.20679 18.2917 7.22398 18.2974 7.24169L18.2985 7.2451C18.2996 7.24825 18.3007 7.2514 18.3018 7.25456C18.3043 7.26178 18.3069 7.26908 18.3089 7.27658C18.3141 7.29585 18.3177 7.31617 18.3214 7.33648C18.3221 7.34146 18.3231 7.34632 18.3241 7.35123ZM16.3276 7.46199L10.7162 3.72137V7.06147L13.8214 9.13855L16.3276 7.46199ZM9.28388 3.72137V7.06147L6.1792 9.13855L3.67243 7.46199L9.28388 3.72137ZM4.89118 10L3.09899 8.80158V11.1985L4.89118 10ZM9.28388 16.2787L3.67243 12.538L6.1792 10.862L9.28388 12.9385V16.2787ZM7.46721 10L10 11.6943L12.5334 10L10 8.30575L7.46721 10ZM10.7162 16.2787V12.9385L13.8214 10.862L16.3276 12.538L10.7162 16.2787ZM15.1094 10L16.9011 11.1985V8.80158L15.1094 10Z" fill="#0C0C0C"/>
</svg>
