<svg width="20" height="20" viewBox="0 0 20 20" fill="none" xmlns="http://www.w3.org/2000/svg">
<path d="M11.9175 12.2917C11.8888 12.0331 11.8027 11.8463 11.6304 11.6739C11.3074 11.3363 10.7404 11.1136 10.0729 11.1136C9.40542 11.1136 8.8384 11.3291 8.51542 11.6739C8.35034 11.8535 8.25703 12.0331 8.22832 12.2917C8.1709 12.7946 8.20679 13.2256 8.26421 13.9225C8.32163 14.5834 8.42929 15.467 8.56566 16.3578C8.66614 16.9971 8.7451 17.342 8.81687 17.5862C8.93889 17.9885 9.37671 18.3333 10.0729 18.3333C10.7691 18.3333 11.2141 17.9813 11.329 17.5862C11.4008 17.342 11.4797 16.9971 11.5802 16.3578C11.7166 15.4598 11.8242 14.5834 11.8816 13.9225C11.9462 13.2256 11.9749 12.7946 11.9175 12.2917Z" fill="url(#paint0_linear_8098_68060)"/>
<path d="M11.8375 8.62776C11.8375 9.60476 11.048 10.395 10.0718 10.395C9.09572 10.395 8.3062 9.60476 8.3062 8.62776C8.3062 7.65076 9.09572 6.86054 10.0718 6.86054C11.048 6.86054 11.8375 7.65795 11.8375 8.62776Z" fill="url(#paint1_linear_8098_68060)"/>
<path d="M10.0513 1.66667C5.93146 1.68104 2.55806 5.0287 2.50064 9.15221C2.45758 12.4927 4.58928 15.3519 7.56792 16.4007C7.63969 16.4294 7.71147 16.3648 7.70429 16.2929C7.6684 16.0343 7.62534 15.7757 7.59663 15.5171C7.58227 15.4237 7.52485 15.3519 7.4459 15.3088C5.0917 14.2815 3.44806 11.918 3.47677 9.18095C3.51266 5.58904 6.44106 2.66522 10.0226 2.63648C13.6903 2.60775 16.6833 5.58185 16.6833 9.2456C16.6833 11.9539 15.0468 14.2815 12.7141 15.3088C12.628 15.3447 12.5706 15.4237 12.5634 15.5171C12.5275 15.7757 12.4916 16.0343 12.4558 16.2929C12.4414 16.372 12.5204 16.4294 12.5921 16.4007C15.5421 15.3662 17.6594 12.5502 17.6594 9.2456C17.6451 5.06462 14.2358 1.65948 10.0513 1.66667Z" fill="url(#paint2_linear_8098_68060)"/>
<path d="M9.87806 4.18094C7.1937 4.28152 5.04046 6.50132 5.00457 9.18807C4.98304 10.9553 5.86587 12.5214 7.22241 13.4481C7.287 13.4912 7.38031 13.4409 7.38031 13.3619C7.35878 13.053 7.35878 12.78 7.37313 12.4926C7.38031 12.3992 7.34442 12.313 7.27265 12.2484C6.44724 11.4725 5.94482 10.3662 5.97353 9.14497C6.03095 6.98982 7.76072 5.23697 9.91395 5.15076C12.2538 5.05737 14.1774 6.93953 14.1774 9.25273C14.1774 10.4309 13.6749 11.4941 12.8782 12.2484C12.8136 12.313 12.7778 12.3992 12.7778 12.4926C12.7921 12.7728 12.7849 13.0458 12.7706 13.3547C12.7634 13.4337 12.8567 13.4912 12.9285 13.4409C14.2635 12.5286 15.1463 10.984 15.1463 9.24554C15.1535 6.38638 12.7634 4.066 9.87806 4.18094Z" fill="url(#paint3_linear_8098_68060)"/>
<defs>
<linearGradient id="paint0_linear_8098_68060" x1="10.0797" y1="1.66666" x2="10.0797" y2="18.3333" gradientUnits="userSpaceOnUse">
<stop stop-color="#F452FF"/>
<stop offset="1" stop-color="#832BC1"/>
</linearGradient>
<linearGradient id="paint1_linear_8098_68060" x1="10.0797" y1="1.66666" x2="10.0797" y2="18.3333" gradientUnits="userSpaceOnUse">
<stop stop-color="#F452FF"/>
<stop offset="1" stop-color="#832BC1"/>
</linearGradient>
<linearGradient id="paint2_linear_8098_68060" x1="10.0797" y1="1.66666" x2="10.0797" y2="18.3333" gradientUnits="userSpaceOnUse">
<stop stop-color="#F452FF"/>
<stop offset="1" stop-color="#832BC1"/>
</linearGradient>
<linearGradient id="paint3_linear_8098_68060" x1="10.0797" y1="1.66666" x2="10.0797" y2="18.3333" gradientUnits="userSpaceOnUse">
<stop stop-color="#F452FF"/>
<stop offset="1" stop-color="#832BC1"/>
</linearGradient>
</defs>
</svg>
