<svg width="60" height="60" viewBox="0 0 60 60" fill="none" xmlns="http://www.w3.org/2000/svg">
<path fill-rule="evenodd" clip-rule="evenodd" d="M23.6816 24.5172H23.1067C19.846 24.5172 17.2077 27.1519 17.2077 30.4207V38.8343H21.4572V30.6263C21.4572 29.3936 22.4471 28.4119 23.6816 28.4119H26.1662V24.5172H23.6816ZM45.0713 30.1214C45.1168 28.7977 46.3405 27.7232 47.8552 27.7232C49.3964 27.7232 50.6282 28.7858 50.6501 30.1214H45.0713ZM54.7759 32.1038C54.7441 27.6714 52.3331 24.1824 47.8552 24.1824C44.0142 24.1824 40.9046 27.2902 40.9046 31.5688C40.9046 36.185 43.7285 38.918 47.8862 38.9999C50.5864 38.9999 52.9491 37.4842 54.1545 35.258L50.2661 34.2408C49.7931 34.9487 48.8878 35.4399 47.8552 35.4399C46.3405 35.4399 45.1168 34.3528 45.0713 33.0345H54.7759C54.7841 32.8271 54.7759 32.323 54.7759 32.1038ZM35.8617 33.0545C35.8617 34.2691 34.8709 35.2744 33.6336 35.2744C32.4091 35.2744 31.4284 34.2691 31.4284 33.0545V26.5678C31.4284 25.4388 30.5149 24.5172 29.3732 24.5172H27.1588V32.4986C27.1588 36.0922 29.103 38.9999 33.6336 38.9999C38.1762 38.9999 40.114 36.0922 40.114 32.4986V24.5172H35.8617V33.0545ZM11.4752 21H7.22654V24.5172H5.22049V28.4119H7.22654V32.9772C7.22654 36.5553 10.1224 38.8343 13.6987 38.8343H16.2069V35.1079H13.6923C12.4696 35.1079 11.4752 34.1126 11.4752 32.8898V28.4119L14.26 28.4019C15.3435 28.3555 16.2069 27.4667 16.2069 26.3604V24.5172H11.4752V21Z" fill="#EC2127"/>
</svg>
