<svg width="20" height="20" viewBox="0 0 20 20" fill="none" xmlns="http://www.w3.org/2000/svg">
<path d="M9.99916 1.66669C5.39671 1.66669 1.66666 5.3984 1.66666 10.0008C1.66666 14.4706 5.18608 18.1177 9.60443 18.3251C9.73711 18.3317 9.86813 18.335 10.0008 18.335C12.1354 18.335 14.0808 17.5323 15.5553 16.2137C14.5784 16.8622 13.4357 17.2337 12.215 17.2337C10.2297 17.2337 8.4534 16.2486 7.25759 14.6962C6.33545 13.6098 5.73837 12.001 5.69857 10.1966C5.69857 10.1916 5.69857 9.80846 5.69857 9.80348C5.73837 8.00065 6.33545 6.39187 7.25593 5.30386C8.45174 3.75147 10.2297 2.76796 12.215 2.76796C13.4357 2.76796 14.5784 3.14113 15.5553 3.78962C14.0875 2.47605 12.1536 1.67498 10.0307 1.66669C10.0207 1.66669 10.0091 1.66669 9.99916 1.66669Z" fill="url(#paint0_linear_8098_68104)"/>
<path d="M7.25593 5.30386C8.02218 4.40162 9.00901 3.85762 10.0887 3.85762C12.5152 3.85762 14.4822 6.60913 14.4822 10.0008C14.4822 13.3942 12.5152 16.1441 10.0887 16.1441C9.00901 16.1441 8.02218 15.6001 7.25759 14.6978C8.4534 16.2502 10.2297 17.2354 12.215 17.2354C13.4357 17.2354 14.5784 16.8622 15.5553 16.2154C17.2602 14.6879 18.3333 12.4704 18.3333 10.0008C18.3333 7.53294 17.2602 5.31382 15.5536 3.78796C14.5767 3.13947 13.4357 2.76796 12.215 2.76796C10.2297 2.76796 8.4534 3.75313 7.25759 5.30552" fill="url(#paint1_linear_8098_68104)"/>
<defs>
<linearGradient id="paint0_linear_8098_68104" x1="1.92296" y1="1.93861" x2="1.92296" y2="18.0922" gradientUnits="userSpaceOnUse">
<stop stop-color="#FF1B2D"/>
<stop offset="0.3" stop-color="#FF1B2D"/>
<stop offset="0.61" stop-color="#FF1B2D"/>
<stop offset="1" stop-color="#A70014"/>
</linearGradient>
<linearGradient id="paint1_linear_8098_68104" x1="7.32555" y1="2.89071" x2="7.32555" y2="17.1778" gradientUnits="userSpaceOnUse">
<stop stop-color="#9C0000"/>
<stop offset="0.7" stop-color="#FF4B4B"/>
<stop offset="1" stop-color="#FF4B4B"/>
</linearGradient>
</defs>
</svg>
