<svg width="20" height="20" viewBox="0 0 20 20" fill="none" xmlns="http://www.w3.org/2000/svg">
<path d="M7.46928 11.4222C7.39178 11.3449 7.33053 11.2531 7.28845 11.152C7.24657 11.0508 7.22512 10.9424 7.22512 10.8331C7.22512 10.496 7.42824 10.1922 7.73949 10.0631C8.05095 9.93411 8.40928 10.0056 8.64762 10.2439C8.88595 10.4822 8.95741 10.8406 8.82845 11.152C8.69928 11.4633 8.39553 11.6664 8.05845 11.6664C7.949 11.6664 7.84063 11.6449 7.73949 11.6031C7.63845 11.561 7.54657 11.4997 7.46928 11.4222Z" fill="#FF4500"/>
<path d="M12.1293 12.9943C12.1284 13.0539 12.1041 13.1108 12.0614 13.1524L12.0668 13.1247C11.9203 13.2351 11.7647 13.3326 11.6016 13.4164C11.2746 13.584 10.9213 13.6941 10.557 13.742C10.3751 13.7658 10.1916 13.7739 10.0084 13.7664C9.82532 13.7739 9.64178 13.7658 9.45991 13.742C9.27803 13.7181 9.09866 13.6787 8.92366 13.6241C8.74866 13.5695 8.57845 13.5001 8.41532 13.4164C8.2522 13.3326 8.09657 13.2351 7.95012 13.1247C7.9147 13.0816 7.89657 13.0268 7.89928 12.971C7.90199 12.9151 7.92553 12.8624 7.96491 12.8229C8.00449 12.7835 8.0572 12.7599 8.11303 12.7572C8.16887 12.7545 8.22366 12.7726 8.26678 12.8081C8.39095 12.8991 8.52262 12.9795 8.66032 13.0483C8.79803 13.117 8.94116 13.1741 9.08866 13.2187C9.23591 13.2635 9.38675 13.2955 9.53949 13.3145C9.6922 13.3337 9.84637 13.3399 10.0001 13.3331C10.1541 13.3414 10.3084 13.3368 10.4618 13.3191C10.6149 13.3014 10.7664 13.2708 10.9143 13.2276C11.0623 13.1844 11.2064 13.1287 11.3451 13.0612C11.4838 12.9937 11.6165 12.9146 11.7418 12.8247C11.7899 12.7887 11.8474 12.7656 11.9072 12.7664C11.9668 12.7672 12.0237 12.7916 12.0653 12.8343C12.107 12.877 12.1301 12.9345 12.1293 12.9943Z" fill="#FF4500"/>
<path d="M12.2378 11.6691C12.1334 11.7124 12.0214 11.7343 11.9084 11.7331L11.9168 11.6997C11.5797 11.6997 11.2759 11.4966 11.1468 11.1854C11.0178 10.8739 11.0893 10.5156 11.3276 10.2772C11.5659 10.0389 11.9243 9.96744 12.2357 10.0964C12.547 10.2256 12.7501 10.5293 12.7501 10.8664C12.7547 10.9793 12.7362 11.0919 12.6957 11.1974C12.6553 11.3031 12.5941 11.3993 12.5153 11.4804C12.4366 11.5614 12.3422 11.6256 12.2378 11.6691Z" fill="#FF4500"/>
<path fill-rule="evenodd" clip-rule="evenodd" d="M18.3333 9.99999C18.3333 14.6024 14.6024 18.3333 9.99999 18.3333C5.39762 18.3333 1.66666 14.6024 1.66666 9.99999C1.66666 5.39762 5.39762 1.66666 9.99999 1.66666C14.6024 1.66666 18.3333 5.39762 18.3333 9.99999ZM15.5159 10.3381C15.5459 10.2279 15.5601 10.1139 15.5584 9.99973C15.5499 9.76512 15.4736 9.538 15.3389 9.34577C15.2041 9.15356 15.0167 9.00444 14.7991 8.9164C14.5815 8.82831 14.3431 8.80509 14.1126 8.84952C13.8821 8.8938 13.6694 9.00386 13.5001 9.1664C13.2647 9.00635 13.018 8.86348 12.762 8.7389C12.2495 8.48916 11.7035 8.31473 11.1412 8.22098C10.8603 8.17411 10.5764 8.14744 10.2918 8.1414L10.8334 5.5414L12.6168 5.9164C12.6605 6.32348 12.9937 6.63848 13.4026 6.65952C13.8114 6.68057 14.1751 6.4014 14.2603 6.00098C14.3457 5.60057 14.1274 5.19744 13.7455 5.04994C13.3637 4.90244 12.9312 5.05411 12.7251 5.40807L10.6834 4.99973C10.6501 4.99244 10.6155 4.99182 10.582 4.99786C10.5482 5.00411 10.5162 5.01682 10.4874 5.03536C10.4589 5.0539 10.4341 5.07807 10.4149 5.10619C10.3955 5.13452 10.382 5.16619 10.3751 5.19973L9.75845 8.0914C9.47032 8.09577 9.18282 8.12098 8.89845 8.16702C8.61407 8.21307 8.33324 8.27952 8.05845 8.36619C7.78366 8.45286 7.51553 8.55952 7.25616 8.68494C6.99684 8.81054 6.74696 8.95474 6.50845 9.1164C6.37997 8.99554 6.22675 8.90406 6.0594 8.8483C5.89205 8.79254 5.71458 8.77383 5.53928 8.79348C5.36401 8.81304 5.19509 8.87051 5.04425 8.96188C4.8934 9.05326 4.76425 9.17636 4.66574 9.32265C4.56715 9.46896 4.50155 9.63496 4.47349 9.80914C4.44543 9.98333 4.45558 10.1615 4.50324 10.3314C4.55098 10.5012 4.63504 10.6586 4.74961 10.7927C4.86418 10.9268 5.00652 11.0344 5.16678 11.1081C5.16449 11.1385 5.16262 11.1691 5.16157 11.1997C5.15907 11.2608 5.15907 11.322 5.16157 11.3831C5.16262 11.4137 5.16449 11.4443 5.16678 11.4747C5.16678 13.3414 7.34178 14.8581 10.0251 14.8581C12.7084 14.8581 14.8834 13.3414 14.8834 11.4747C14.8857 11.4443 14.8876 11.4137 14.8887 11.3831C14.8912 11.322 14.8912 11.2608 14.8887 11.1997C14.8876 11.1691 14.8857 11.1385 14.8834 11.1081C14.9857 11.0572 15.0803 10.9922 15.1645 10.9149C15.2487 10.8376 15.3216 10.7489 15.3809 10.6514C15.4405 10.5539 15.4859 10.4483 15.5159 10.3381Z" fill="#FF4500"/>
</svg>
