<svg width="20" height="20" viewBox="0 0 20 20" fill="none" xmlns="http://www.w3.org/2000/svg">
<g clip-path="url(#clip0_8098_68108)">
<g filter="url(#filter0_d_8098_68108)">
<path fill-rule="evenodd" clip-rule="evenodd" d="M13.4883 17.9945C13.7506 18.0956 14.0497 18.0891 14.3145 17.963L17.7438 16.3301C18.1042 16.1585 18.3333 15.7976 18.3333 15.4017V4.32956C18.3333 3.93364 18.1042 3.57275 17.7438 3.40116L14.3145 1.7682C13.967 1.60273 13.5603 1.64326 13.2553 1.86268C13.2118 1.89402 13.1703 1.92902 13.1313 1.96759L6.56633 7.89449L3.70676 5.74648C3.44056 5.54652 3.06822 5.56291 2.82099 5.78545L1.90383 6.61104C1.60142 6.88326 1.60107 7.35407 1.90308 7.62673L4.383 9.86561L1.90308 12.1045C1.60107 12.3772 1.60142 12.848 1.90383 13.1202L2.82099 13.9458C3.06822 14.1683 3.44056 14.1847 3.70676 13.9847L6.56633 11.8367L13.1313 17.7636C13.2352 17.8665 13.3571 17.9439 13.4883 17.9945ZM14.1717 6.12382L9.19041 9.86561L14.1717 13.6074V6.12382Z" fill="white"/>
<path d="M17.7439 3.40372L14.3119 1.76852C13.9147 1.57924 13.4399 1.65908 13.1281 1.9676L1.89308 12.1045C1.59088 12.3772 1.59123 12.848 1.89383 13.1202L2.81154 13.9458C3.05893 14.1683 3.43149 14.1847 3.69785 13.9848L17.2275 3.82794C17.6814 3.48719 18.3333 3.80755 18.3333 4.37134V4.33191C18.3333 3.93617 18.1042 3.5754 17.7439 3.40372Z" fill="#0065A9"/>
<path d="M17.7439 16.3275L14.3119 17.9627C13.9147 18.152 13.4399 18.0721 13.1281 17.7636L1.89308 7.62672C1.59088 7.35406 1.59123 6.88326 1.89383 6.61104L2.81154 5.78545C3.05893 5.5629 3.43149 5.54651 3.69785 5.74647L17.2275 15.9033C17.6814 16.244 18.3333 15.9237 18.3333 15.3599V15.3993C18.3333 15.7951 18.1042 16.1558 17.7439 16.3275Z" fill="#007ACC"/>
<path d="M14.3121 17.963C13.9147 18.1521 13.4399 18.0722 13.1281 17.7636C13.5123 18.1438 14.1692 17.8745 14.1692 17.3369V2.3943C14.1692 1.85667 13.5123 1.58744 13.1281 1.9676C13.4399 1.65906 13.9147 1.57909 14.3121 1.7682L17.7435 3.40116C18.104 3.57275 18.3333 3.93364 18.3333 4.32956V15.4017C18.3333 15.7976 18.104 16.1585 17.7435 16.3301L14.3121 17.963Z" fill="#1F9CF0"/>
</g>
</g>
<defs>
<filter id="filter0_d_8098_68108" x="-7.16668" y="-7.16665" width="34.3333" height="34.0645" filterUnits="userSpaceOnUse" color-interpolation-filters="sRGB">
<feFlood flood-opacity="0" result="BackgroundImageFix"/>
<feColorMatrix in="SourceAlpha" type="matrix" values="0 0 0 0 0 0 0 0 0 0 0 0 0 0 0 0 0 0 127 0" result="hardAlpha"/>
<feOffset/>
<feGaussianBlur stdDeviation="4.41667"/>
<feColorMatrix type="matrix" values="0 0 0 0 0 0 0 0 0 0 0 0 0 0 0 0 0 0 0.25 0"/>
<feBlend mode="overlay" in2="BackgroundImageFix" result="effect1_dropShadow_8098_68108"/>
<feBlend mode="normal" in="SourceGraphic" in2="effect1_dropShadow_8098_68108" result="shape"/>
</filter>
<clipPath id="clip0_8098_68108">
<rect width="20" height="20" fill="white"/>
</clipPath>
</defs>
</svg>
