<svg width="20" height="20" viewBox="0 0 20 20" fill="none" xmlns="http://www.w3.org/2000/svg">
<path d="M7.22599 9.99999C7.22599 8.46592 8.47 7.22199 10.005 7.22199C11.54 7.22199 12.7847 8.46592 12.7847 9.99999C12.7847 11.5341 11.54 12.778 10.005 12.778C8.47 12.778 7.22599 11.5341 7.22599 9.99999ZM5.72336 9.99999C5.72336 12.3633 7.64024 14.2791 10.005 14.2791C12.3697 14.2791 14.2866 12.3633 14.2866 9.99999C14.2866 7.63666 12.3697 5.72092 10.005 5.72092C7.64024 5.72092 5.72336 7.63666 5.72336 9.99999ZM13.4555 5.55126C13.4554 5.74904 13.5141 5.9424 13.6239 6.10689C13.7338 6.27139 13.89 6.39962 14.0728 6.47538C14.2556 6.55114 14.4568 6.57103 14.6509 6.53252C14.8451 6.49401 15.0234 6.39884 15.1634 6.25905C15.3034 6.11925 15.3987 5.9411 15.4374 5.74714C15.4761 5.55317 15.4564 5.3521 15.3807 5.16934C15.3051 4.98659 15.1769 4.83036 15.0124 4.72041C14.8479 4.61046 14.6544 4.55174 14.4565 4.55166H14.4561C14.1909 4.55178 13.9365 4.65712 13.7489 4.84454C13.5613 5.03197 13.4558 5.28615 13.4555 5.55126ZM6.6363 16.7831C5.82335 16.7461 5.38148 16.6108 5.08784 16.4965C4.69854 16.345 4.42077 16.1646 4.12873 15.8731C3.83669 15.5817 3.65592 15.3043 3.50503 14.9153C3.39056 14.6219 3.25514 14.1802 3.21819 13.3677C3.17776 12.4893 3.16969 12.2255 3.16969 10.0001C3.16969 7.77466 3.17843 7.51152 3.21819 6.63239C3.25521 5.81992 3.39162 5.37906 3.50503 5.08486C3.65658 4.69579 3.83709 4.41819 4.12873 4.12632C4.42037 3.83446 4.69787 3.65379 5.08784 3.50299C5.38135 3.38859 5.82335 3.25326 6.6363 3.21632C7.51523 3.17592 7.77926 3.16786 10.005 3.16786C12.2307 3.16786 12.495 3.17659 13.3747 3.21632C14.1876 3.25332 14.6288 3.38966 14.9231 3.50299C15.3124 3.65379 15.5902 3.83486 15.8822 4.12632C16.1743 4.41779 16.3544 4.69579 16.506 5.08486C16.6204 5.37819 16.7558 5.81992 16.7928 6.63239C16.8332 7.51152 16.8413 7.77466 16.8413 10.0001C16.8413 12.2255 16.8332 12.4886 16.7928 13.3677C16.7558 14.1802 16.6197 14.6218 16.506 14.9153C16.3544 15.3043 16.1739 15.5819 15.8822 15.8731C15.5906 16.1643 15.3124 16.345 14.9231 16.4965C14.6296 16.6109 14.1876 16.7462 13.3747 16.7831C12.4958 16.8235 12.2317 16.8316 10.005 16.8316C7.77825 16.8316 7.51496 16.8235 6.6363 16.7831ZM6.56726 1.71712C5.6796 1.75752 5.07303 1.89819 4.54331 2.10419C3.99472 2.31692 3.53031 2.60232 3.06623 3.06539C2.60215 3.52846 2.31731 3.99332 2.10445 4.54159C1.89833 5.07132 1.75758 5.67719 1.71715 6.56432C1.67606 7.45286 1.66666 7.73692 1.66666 9.99999C1.66666 12.2631 1.67606 12.5471 1.71715 13.4357C1.75758 14.3229 1.89833 14.9287 2.10445 15.4584C2.31731 16.0063 2.60222 16.4717 3.06623 16.9346C3.53024 17.3975 3.99472 17.6825 4.54331 17.8958C5.07403 18.1018 5.6796 18.2425 6.56726 18.2829C7.4568 18.3233 7.74057 18.3333 10.005 18.3333C12.2694 18.3333 12.5537 18.3239 13.4427 18.2829C14.3305 18.2425 14.9366 18.1018 15.4667 17.8958C16.0149 17.6825 16.4797 17.3977 16.9438 16.9346C17.4078 16.4715 17.6921 16.0063 17.9055 15.4584C18.1117 14.9287 18.2531 14.3228 18.2928 13.4357C18.3333 12.5465 18.3427 12.2631 18.3427 9.99999C18.3427 7.73692 18.3333 7.45286 18.2928 6.56432C18.2524 5.67712 18.1117 5.07099 17.9055 4.54159C17.6921 3.99366 17.4071 3.52919 16.9438 3.06539C16.4804 2.60159 16.0149 2.31692 15.4673 2.10419C14.9366 1.89819 14.3304 1.75686 13.4434 1.71712C12.5543 1.67672 12.2701 1.66666 10.0057 1.66666C7.74123 1.66666 7.4568 1.67606 6.56726 1.71712Z" fill="url(#paint0_linear_8098_68151)"/>
<defs>
<linearGradient id="paint0_linear_8098_68151" x1="18.0221" y1="18.3333" x2="1.35548" y2="1.65732" gradientUnits="userSpaceOnUse">
<stop stop-color="#FBE18A"/>
<stop offset="0.21" stop-color="#FCBB45"/>
<stop offset="0.38" stop-color="#F75274"/>
<stop offset="0.52" stop-color="#D53692"/>
<stop offset="0.74" stop-color="#8F39CE"/>
<stop offset="1" stop-color="#5B4FE9"/>
</linearGradient>
</defs>
</svg>
