<svg width="20" height="20" viewBox="0 0 20 20" fill="none" xmlns="http://www.w3.org/2000/svg">
<path d="M11.071 9.6131C11.071 12.159 8.97072 14.2262 6.36883 14.2262C3.76695 14.2262 1.66664 12.159 1.66664 9.6131C1.66664 7.06724 3.76695 5 6.36883 5C8.97072 5 11.071 7.06724 11.071 9.6131ZM16.2225 9.6131C16.2225 12.0062 15.1672 13.9512 13.8714 13.9512C12.5757 13.9512 11.5203 12.0062 11.5203 9.6131C11.5203 7.21999 12.5757 5.27495 13.8714 5.27495C15.1672 5.27495 16.2225 7.2098 16.2225 9.6131ZM18.3333 9.6131C18.3333 11.7618 17.9676 13.5032 17.5078 13.5032C17.048 13.5032 16.6823 11.7618 16.6823 9.6131C16.6823 7.46439 17.048 5.72302 17.5078 5.72302C17.9676 5.72302 18.3333 7.46439 18.3333 9.6131Z" fill="#0C0C0C"/>
</svg>
