<svg width="24" height="24" viewBox="0 0 24 24" fill="none" xmlns="http://www.w3.org/2000/svg">
<path fill-rule="evenodd" clip-rule="evenodd" d="M16.7246 12.4414C16.9183 12.4415 17.0954 12.49 17.2539 12.5869C17.4124 12.6839 17.5349 12.8217 17.623 12.998L21.8555 20.4092C21.9612 20.5679 22.0097 20.7445 22.001 20.9385C21.9922 21.1326 21.9436 21.3099 21.8555 21.4688C21.7498 21.6272 21.6173 21.7546 21.459 21.8516C21.3003 21.9485 21.1236 21.998 20.9297 21.998H12.4658C12.272 21.998 12.1 21.9485 11.9502 21.8516C11.8007 21.7547 11.673 21.6271 11.5674 21.4688C11.4793 21.31 11.4297 21.1373 11.4209 20.9521C11.4121 20.767 11.4519 20.5856 11.54 20.4092L15.7725 12.998C15.8782 12.8393 16.0152 12.7064 16.1826 12.6006C16.3499 12.495 16.5309 12.4415 16.7246 12.4414ZM16.752 19.2461C16.3379 19.2463 16.002 19.582 16.002 19.9961C16.002 20.4102 16.3379 20.7459 16.752 20.7461C17.1662 20.7461 17.502 20.4103 17.502 19.9961C17.502 19.5819 17.1662 19.2461 16.752 19.2461ZM16.752 14.7461C16.3379 14.7463 16.002 15.082 16.002 15.4961V17.2461C16.002 17.6602 16.3379 17.9959 16.752 17.9961C17.1662 17.9961 17.502 17.6603 17.502 17.2461V15.4961C17.502 15.0819 17.1662 14.7461 16.752 14.7461Z" fill="black"/>
<path d="M6.21094 14.71C6.21108 15.291 6.68164 15.7624 7.2627 15.7627H9.36816C9.94943 15.7627 10.4208 15.2912 10.4209 14.71V12.6045H13.0527C13.3434 12.6045 13.5791 12.8402 13.5791 13.1309V13.8125L10.6631 18.9199H3.5791C3.28843 18.9199 3.05273 18.6842 3.05273 18.3936V13.1309C3.05273 12.8402 3.28843 12.6045 3.5791 12.6045H6.21094V14.71Z" fill="black"/>
<path d="M9.36816 14.71H7.2627V12.6045H9.36816V14.71Z" fill="black"/>
<path d="M20.4209 2.07812C21.2929 2.07812 22 2.7852 22 3.65723V6.81543C21.9998 7.68725 21.2928 8.39355 20.4209 8.39355H18.499C17.3747 8.39367 16.3238 8.95613 15.7002 9.8916C15.0087 10.9285 13.845 11.5516 12.5986 11.5518H10.4209C9.83962 11.5517 9.36816 11.0803 9.36816 10.499C9.36825 9.91779 9.83967 9.44637 10.4209 9.44629H10.9473C12.4005 9.44629 13.5789 8.2686 13.5791 6.81543C13.5791 5.36205 12.4006 4.18359 10.9473 4.18359H10.6406C9.35116 4.18382 8.30586 5.22908 8.30566 6.51855V10.5039C8.30566 11.0823 7.8362 11.5517 7.25781 11.5518C6.67946 11.5516 6.21094 11.0823 6.21094 10.5039V4.9082C6.21104 4.22778 6.45594 3.57004 6.90137 3.05566C7.43879 2.43513 8.21916 2.07839 9.04004 2.07812H20.4209Z" fill="black"/>
<path d="M10.9473 5.23633C11.8193 5.23633 12.5264 5.9434 12.5264 6.81543C12.5261 7.68725 11.8191 8.39355 10.9473 8.39355H10.4209C10.033 8.39358 9.67048 8.50054 9.3584 8.68359V6.51855C9.35859 5.81044 9.93251 5.23655 10.6406 5.23633H10.9473Z" fill="black"/>
<path d="M6.38379 2.07812C6.28676 2.16923 6.19348 2.26556 6.10547 2.36719C5.6548 2.88775 5.35467 3.5156 5.22754 4.18359H3.05273C2.47142 4.18359 2.00006 3.71216 2 3.13086C2 2.54951 2.47138 2.07812 3.05273 2.07812H6.38379Z" fill="black"/>
</svg>
