<svg width="24" height="24" viewBox="0 0 24 24" fill="none" xmlns="http://www.w3.org/2000/svg">
<path fill-rule="evenodd" clip-rule="evenodd" d="M15.75 5H16C16.4142 5 16.75 4.66421 16.75 4.25V2.75C16.75 1.7835 15.9665 1 15 1H7C6.0335 1 5.25 1.7835 5.25 2.75V4.25C5.25 4.66421 5.58579 5 6 5H6.25V5.75L5.20457 7.14391L3.78033 5.71967C3.48744 5.42678 3.01256 5.42678 2.71967 5.71967C2.42678 6.01256 2.42678 6.48744 2.71967 6.78033L4.40864 8.4693C4.14056 9.10845 4 9.79838 4 10.5V16.75C4 17.9926 5.00736 19 6.25 19H10.25C10.6642 19 11 18.6642 11 18.25C11 17.8358 10.6642 17.5 10.25 17.5H6.25C5.83579 17.5 5.5 17.1642 5.5 16.75V11.25H16.5C16.5 11.6642 16.8358 12 17.25 12C17.6642 12 18 11.6642 18 11.25V10.5C18 9.79838 17.8594 9.10845 17.5914 8.4693L19.2803 6.78033C19.5732 6.48744 19.5732 6.01256 19.2803 5.71967C18.9874 5.42678 18.5126 5.42678 18.2197 5.71967L16.7954 7.14391L15.75 5.75V5ZM7.75002 5V6C7.75002 6.16228 7.69739 6.32018 7.60002 6.45L6.25002 8.25C5.91519 8.69644 5.68616 9.20929 5.57578 9.75H16.4243C16.3139 9.20929 16.0849 8.69644 15.75 8.25L14.4 6.45C14.3027 6.32018 14.25 6.16228 14.25 6V5H7.75002ZM6.75 2.75C6.75 2.61193 6.86193 2.5 7 2.5H15C15.1381 2.5 15.25 2.61193 15.25 2.75V3.5H6.75V2.75Z" fill="black"/>
<path fill-rule="evenodd" clip-rule="evenodd" d="M17.5 13C14.4625 13 12 15.4625 12 18.5C12 21.5375 14.4625 24 17.5 24C20.5375 24 23 21.5375 23 18.5C23 15.4625 20.538 13 17.5 13ZM17.5 14.5C17.776 14.5 18 14.724 18 15V18H21C21.276 18 21.5 18.224 21.5 18.5C21.5 18.776 21.276 19 21 19H18V22C18 22.276 17.776 22.5 17.5 22.5C17.224 22.5 17 22.276 17 22V19H14C13.724 19 13.5 18.776 13.5 18.5C13.5 18.224 13.724 18 14 18H17V15C17 14.724 17.224 14.5 17.5 14.5Z" fill="black"/>
</svg>
