<svg width="24" height="24" viewBox="0 0 24 24" fill="none" xmlns="http://www.w3.org/2000/svg">
<path fill-rule="evenodd" clip-rule="evenodd" d="M9.75 13.2502C10.2248 13.2502 10.6715 13.3693 11.0762 13.5646C11.4489 13.7448 11.6056 14.1928 11.4258 14.5656C11.2457 14.9385 10.7968 15.0952 10.4238 14.9152C10.1948 14.8047 9.97011 14.7502 9.75 14.7502C9.13924 14.7502 8.46114 15.1875 7.88965 16.0051C7.32892 16.8074 7.00004 17.8035 7 18.5715C7.0001 20.0362 8.21665 21.2502 9.75 21.2502C10.4662 21.2502 11.1156 20.9847 11.6035 20.551C11.7252 20.4428 11.8366 20.3238 11.9365 20.1965C12.1922 19.8708 12.6635 19.8139 12.9893 20.0695C13.315 20.3252 13.3718 20.7965 13.1162 21.1223C12.9608 21.3203 12.7878 21.5048 12.5996 21.6721C11.845 22.3428 10.8439 22.7502 9.75 22.7502C8.37524 22.7502 7.145 22.1049 6.36621 21.0998C5.88482 21.6497 5.17253 22.0002 4.375 22.0002C3.0159 22.0002 1.89816 20.9882 1.76367 19.6916L1.75 19.4289C1.75 18.0087 2.92525 16.0002 4.375 16.0002C4.92176 16.0002 5.42926 16.2859 5.84961 16.718C6.04939 16.1626 6.32667 15.6229 6.66016 15.1457C7.35538 14.1511 8.42791 13.2502 9.75 13.2502ZM4.375 17.5002C4.3615 17.5002 4.09938 17.5386 3.74805 18.0412C3.41822 18.5132 3.25 19.0763 3.25 19.4289C3.25018 19.9915 3.7245 20.5002 4.375 20.5002C5.0255 20.5002 5.49982 19.9915 5.5 19.4289C5.5 19.0763 5.33178 18.5132 5.00195 18.0412C4.65062 17.5386 4.3885 17.5002 4.375 17.5002Z" fill="black"/>
<path fill-rule="evenodd" clip-rule="evenodd" d="M14.7393 12.718C15.6029 11.0402 18.0829 11.0966 18.8389 12.8859L19.4404 14.3088L20.8643 14.9113C22.7111 15.6917 22.7115 18.3087 20.8643 19.0891L19.4404 19.6906L18.8389 21.1145C18.0585 22.9613 15.4415 22.9616 14.6611 21.1145L14.0586 19.6906L12.6357 19.0891C10.7885 18.3088 10.7888 15.6917 12.6357 14.9113L14.0586 14.3088L14.6611 12.8859L14.7393 12.718ZM17.457 13.4689C17.1927 12.844 16.3073 12.844 16.043 13.4689L15.3252 15.1672C15.2474 15.3512 15.101 15.4976 14.917 15.5754L13.2188 16.2932C12.5939 16.5576 12.5939 17.4429 13.2188 17.7072L14.917 18.425C15.101 18.5028 15.2474 18.6492 15.3252 18.8332L16.043 20.5314C16.2909 21.1172 17.0844 21.1536 17.4004 20.6408L17.457 20.5314L18.1748 18.8332C18.2526 18.6492 18.399 18.5028 18.583 18.425L20.2812 17.7072C20.8672 17.4594 20.9034 16.6658 20.3906 16.3498L20.2812 16.2932L18.583 15.5754C18.4451 15.5171 18.3278 15.4204 18.2451 15.298L18.1748 15.1672L17.457 13.4689Z" fill="black"/>
<path d="M9.98047 7.90156C10.0349 7.90705 10.0894 7.92055 10.1396 7.94258L11.1621 8.38984C11.2907 8.44659 11.3841 8.55112 11.415 8.67402C11.4457 8.79745 11.4114 8.92695 11.3213 9.02559L10.2988 10.1418C10.2083 10.2407 10.0709 10.2989 9.92578 10.299L9.81934 10.2883C9.71521 10.2674 9.6197 10.2161 9.55176 10.1418L8.53125 9.02559C8.44104 8.92691 8.40577 8.79752 8.43652 8.67402C8.46752 8.55083 8.56136 8.44649 8.69043 8.38984L9.71191 7.94258C9.779 7.91321 9.85269 7.89868 9.92578 7.89863L9.98047 7.90156Z" fill="black"/>
<path d="M7.92188 6.10957C8.24884 6.10957 8.51458 6.37442 8.51465 6.70137V7.0168C8.51465 7.3438 8.24891 7.60957 7.92188 7.60957C7.59496 7.60947 7.33008 7.34373 7.33008 7.0168V6.70137C7.33014 6.37448 7.595 6.10967 7.92188 6.10957Z" fill="black"/>
<path d="M11.5791 6.10957C11.9059 6.10973 12.1708 6.37452 12.1709 6.70137V7.0168C12.1709 7.3437 11.906 7.60941 11.5791 7.60957C11.2521 7.60957 10.9863 7.3438 10.9863 7.0168V6.70137C10.9864 6.37442 11.2521 6.10957 11.5791 6.10957Z" fill="black"/>
<path fill-rule="evenodd" clip-rule="evenodd" d="M9.95605 1.61641C10.4411 1.13855 11.2254 1.12732 11.7246 1.59004C12.1069 1.94501 12.2129 2.47688 12.04 2.93086C12.7045 3.23928 13.4122 3.67547 13.917 4.24434C14.8857 5.33722 15.5 6.75378 15.5 8.07246C15.4998 9.35474 14.9285 10.5193 13.9355 11.3752C14.1006 11.5937 14.1424 11.8927 14.0137 12.1555C13.8312 12.5273 13.3816 12.6816 13.0098 12.4992L11.7842 11.8967L10.0586 12.7443C9.8226 12.86 9.54653 12.86 9.31055 12.7443L7.58398 11.8967L5.8584 12.7443C5.6224 12.86 5.34633 12.86 5.11035 12.7443L3.61621 12.0109C3.64431 12.8117 3.76249 13.5819 3.95703 14.3049C4.06464 14.7048 3.8276 15.1171 3.42773 15.2248C3.02793 15.3324 2.61665 15.0952 2.50879 14.6955C2.24983 13.7332 2.10938 12.7037 2.10938 11.6379C2.10954 11.192 2.34499 10.7859 2.71875 10.5588L2.71973 10.5607C3.04842 10.3604 3.44509 10.3215 3.7998 10.4426L3.94922 10.5041L5.37012 11.2004C4.49662 10.3634 4.00005 9.26879 4 8.07246C4.00016 6.7541 4.61322 5.33833 5.58203 4.24531C6.13684 3.61978 6.93909 3.15484 7.65625 2.84395C7.64215 2.50338 7.7686 2.15775 8.03711 1.90059L8.03809 1.89961C8.50648 1.45323 9.23857 1.43256 9.73242 1.83711L9.95508 1.61738L9.95605 1.61641ZM8.90234 3.97578C8.1616 4.20883 7.21186 4.66798 6.7041 5.24043C5.92874 6.1152 5.50017 7.18938 5.5 8.07246C5.50005 8.93079 5.89597 9.73819 6.67188 10.3469C6.7542 10.4114 6.84825 10.4744 6.95215 10.5363L7.01953 10.5041L7.15527 10.4465C7.43254 10.3482 7.7364 10.3482 8.01367 10.4465L8.14941 10.5041L9.68457 11.257L11.2197 10.5041L11.3555 10.4465C11.6327 10.3482 11.9366 10.3482 12.2139 10.4465L12.3496 10.5041L12.4932 10.5744L12.8438 10.3322C13.6089 9.72485 13.9999 8.92395 14 8.07246C13.9999 7.18956 13.5706 6.11456 12.7949 5.23945C12.2829 4.66258 11.3273 4.20183 10.583 3.9709L9.74414 3.71016L8.90234 3.97578Z" fill="black"/>
<path fill-rule="evenodd" clip-rule="evenodd" d="M17.665 6.46016C18.324 5.18025 20.176 5.18044 20.835 6.46016L20.8975 6.59199L20.9746 6.77559L21.1582 6.85273C22.614 7.46799 22.6143 9.53238 21.1582 10.1477L20.9746 10.2248L20.8975 10.4084C20.2822 11.8641 18.2179 11.8643 17.6025 10.4084L17.5254 10.2248L17.3418 10.1477C15.8857 9.53238 15.8859 7.46797 17.3418 6.85273L17.5254 6.77559L17.6025 6.59199L17.665 6.46016ZM19.5156 7.17598C19.4165 6.94145 19.0834 6.94145 18.9844 7.17598L18.7158 7.8127L18.6895 7.86152C18.6584 7.90755 18.6144 7.9441 18.5625 7.96602L18.1982 8.11836L17.9258 8.23457C17.6913 8.33368 17.6913 8.66675 17.9258 8.76582L18.5625 9.03437C18.6315 9.06355 18.6867 9.11867 18.7158 9.1877L18.9844 9.82441C19.0711 10.0293 19.3363 10.055 19.4678 9.90156L19.5156 9.82441L19.7842 9.1877C19.8134 9.11865 19.8685 9.06355 19.9375 9.03437L20.5742 8.76582C20.7792 8.67921 20.8048 8.4139 20.6514 8.28242L20.5742 8.23457L20.3008 8.11836L19.9375 7.96602C19.8685 7.93685 19.8134 7.88169 19.7842 7.8127L19.5156 7.17598Z" fill="black"/>
</svg>
