<svg width="24" height="24" viewBox="0 0 24 24" fill="none" xmlns="http://www.w3.org/2000/svg">
<path d="M10.9998 13.2503C11.4746 13.2503 11.9213 13.3694 12.326 13.5648L12.3358 13.5696L12.3465 13.5745L12.5965 13.7054C12.9635 13.8968 13.1059 14.349 12.9149 14.7161C12.7234 15.0832 12.2704 15.2267 11.9031 15.0355L11.6736 14.9153C11.4447 14.8048 11.2199 14.7503 10.9998 14.7503C10.3891 14.7504 9.71091 15.1877 9.13947 16.0052C8.57878 16.8075 8.24986 17.8036 8.24982 18.5716C8.24996 20.0363 9.46655 21.2502 10.9998 21.2503C11.7159 21.2503 12.3654 20.9848 12.8533 20.5511C12.9749 20.443 13.0864 20.3239 13.1863 20.1966C13.4421 19.8709 13.9133 19.8141 14.2391 20.0696C14.5648 20.3254 14.6216 20.7966 14.366 21.1224C14.2106 21.3204 14.0376 21.5049 13.8494 21.6722C13.0948 22.3429 12.0937 22.7503 10.9998 22.7503C9.27006 22.7502 7.76869 21.729 7.10822 20.2542C6.75679 21.2688 5.77935 22.0003 4.62482 22.0003C3.17526 22.0002 2.00004 20.849 1.99982 19.429C1.99982 18.0089 3.17513 16.0004 4.62482 16.0003C5.54497 16.0003 6.35339 16.8098 6.82208 17.764C6.97596 16.8603 7.36857 15.9205 7.90997 15.1458C8.60518 14.1513 9.67778 13.2504 10.9998 13.2503Z" fill="black"/>
<path d="M16.116 12.5862C16.4464 11.8049 17.5532 11.8049 17.8836 12.5862L18.7801 14.7083C18.8773 14.9383 19.0609 15.1217 19.2908 15.2191L21.4139 16.1155C22.1953 16.4459 22.1952 17.5537 21.4139 17.8841L19.2908 18.7806C19.0608 18.8779 18.8773 19.0613 18.7801 19.2913L17.8836 21.4134C17.5533 22.1951 16.4463 22.1951 16.116 21.4134L15.2195 19.2913C15.1223 19.0612 14.9389 18.8778 14.7088 18.7806L12.5858 17.8841C11.8046 17.5536 11.8045 16.4459 12.5858 16.1155L14.7088 15.2191C14.9388 15.1217 15.1224 14.9383 15.2195 14.7083L16.116 12.5862Z" fill="black"/>
<path fill-rule="evenodd" clip-rule="evenodd" d="M10.2059 1.61651C10.6909 1.13866 11.4752 1.12746 11.9744 1.59015C12.3567 1.94512 12.4627 2.47699 12.2899 2.93097C12.9544 3.23938 13.662 3.67559 14.1668 4.24444C15.1355 5.33733 15.7498 6.75389 15.7498 8.07257C15.7496 9.31706 15.2107 10.45 14.2713 11.2982L14.3221 11.3226C14.6961 11.5004 14.8554 11.9485 14.6776 12.3226C14.4997 12.6965 14.0516 12.8558 13.6776 12.678L12.035 11.8968L10.3084 12.7444C10.0724 12.86 9.7963 12.8601 9.56036 12.7444L7.8338 11.8968L6.10822 12.7444C5.87225 12.86 5.5961 12.8601 5.36017 12.7444L3.86603 12.011C3.89413 12.8118 4.01231 13.582 4.20685 14.305C4.31443 14.7049 4.07741 15.1172 3.67755 15.2249C3.2778 15.3324 2.86647 15.0952 2.75861 14.6956C2.49965 13.7334 2.3592 12.7038 2.35919 11.638C2.35936 11.1922 2.59488 10.786 2.96857 10.5589L2.96954 10.5608C3.29821 10.3605 3.69493 10.3216 4.04962 10.4427L4.19904 10.5042L5.61993 11.2005C4.74648 10.3636 4.24989 9.26886 4.24982 8.07257C4.24998 6.75425 4.86308 5.33842 5.83185 4.24542C6.38663 3.61992 7.18894 3.15495 7.90607 2.84405C7.89197 2.50353 8.01849 2.15785 8.28693 1.90069L8.2879 1.89972C8.75629 1.45335 9.48839 1.4327 9.98224 1.83722L10.2049 1.61749L10.2059 1.61651ZM10.1756 7.89874C10.1025 7.89879 10.0288 7.91335 9.96173 7.94269L8.94025 8.38995C8.81126 8.44659 8.71735 8.55101 8.68634 8.67413C8.65566 8.79758 8.69089 8.92706 8.78107 9.02569L9.80157 10.1419C9.86951 10.2162 9.96506 10.2675 10.0692 10.2884L10.1756 10.2991C10.3206 10.299 10.4581 10.2408 10.5486 10.1419L11.5711 9.02569C11.6611 8.9271 11.6955 8.79748 11.6649 8.67413C11.634 8.55125 11.5405 8.44671 11.4119 8.38995L10.3895 7.94269C10.3392 7.92066 10.2847 7.90716 10.2303 7.90167L10.1756 7.89874ZM8.17169 6.10968C7.84494 6.10984 7.58006 6.37472 7.5799 6.70147V7.01788C7.5802 7.34451 7.84503 7.60951 8.17169 7.60968C8.49854 7.60968 8.76415 7.34462 8.76447 7.01788V6.70147C8.7643 6.37462 8.49859 6.10968 8.17169 6.10968ZM11.8289 6.10968C11.502 6.10968 11.2373 6.37462 11.2371 6.70147V7.01788C11.2374 7.34462 11.5021 7.60968 11.8289 7.60968C12.1557 7.60958 12.4204 7.34456 12.4207 7.01788V6.70147C12.4205 6.37468 12.1557 6.10978 11.8289 6.10968Z" fill="black"/>
<path d="M19.0574 7.29327C19.2226 6.90239 19.7771 6.90239 19.9422 7.29327L20.3904 8.35479C20.4391 8.46961 20.5305 8.56107 20.6453 8.60968L21.7068 9.05792C22.0976 9.22313 22.0977 9.77758 21.7068 9.94269L20.6453 10.3909C20.5305 10.4396 20.439 10.5309 20.3904 10.6458L19.9422 11.7073C19.7769 12.0978 19.2226 12.0979 19.0574 11.7073L18.6092 10.6458C18.5606 10.5309 18.4692 10.4396 18.3543 10.3909L17.2928 9.94269C16.9021 9.77756 16.9022 9.2232 17.2928 9.05792L18.3543 8.60968C18.4692 8.56109 18.5605 8.4696 18.6092 8.35479L19.0574 7.29327Z" fill="black"/>
</svg>
