<svg width="24" height="24" viewBox="0 0 24 24" fill="none" xmlns="http://www.w3.org/2000/svg">
<path d="M10.5905 4.46728L10.5919 4.46687C12.2337 3.98215 14.0315 4.32443 15.3076 5.34753C16.5876 6.3712 17.1395 7.90427 16.8139 9.36793C16.7645 9.59002 16.8186 9.82254 16.9609 10C17.1033 10.1775 17.3185 10.2808 17.546 10.2808H18.536C19.6091 10.2808 20.5409 10.9089 20.9806 11.8268C21.1595 12.2004 21.6074 12.3582 21.981 12.1792C22.3546 12.0003 22.5123 11.5524 22.3334 11.1788C21.6551 9.76268 20.2109 8.7808 18.536 8.7808H18.4002C18.4817 7.02921 17.6901 5.33235 16.2447 4.17631C14.5694 2.83337 12.2586 2.41014 10.1653 3.02879L10.1625 3.02965L10.1166 3.04341L10.1134 3.04435C8.19706 3.62814 6.68602 5.02561 6.08092 6.81431C3.38695 7.09174 1.25 9.29241 1.25 12.0168C1.25 14.9339 3.69792 17.2492 6.65583 17.2538L13 17.2538C13.4142 17.2538 13.75 16.918 13.75 16.5038C13.75 16.0896 13.4142 15.7538 13 15.7538H6.65758C4.47178 15.7501 2.75 14.0516 2.75 12.0168C2.75 9.9828 4.47192 8.2848 6.657 8.2848C7.0083 8.2848 7.31254 8.04095 7.38901 7.69807C7.71693 6.22788 8.89906 4.98287 10.5491 4.47971L10.5506 4.47925L10.5905 4.46728Z" fill="black"/>
<path fill-rule="evenodd" clip-rule="evenodd" d="M19 21.2499C19.7417 21.2499 20.4668 21.03 21.0835 20.6179C21.7002 20.2058 22.1809 19.62 22.4647 18.9347C22.7484 18.2495 22.8226 17.4954 22.6779 16.7679C22.5331 16.0408 22.1761 15.3729 21.652 14.8486C21.2084 14.404 20.4792 13.7597 19.4815 12.9243C19.2017 12.69 18.7938 12.6911 18.5153 12.9269C17.4675 13.8142 16.7361 14.4596 16.3483 14.8483C15.824 15.3726 15.4669 16.0407 15.3221 16.7679C15.1774 17.4954 15.2515 18.2495 15.5353 18.9347C15.8191 19.62 16.2998 20.2058 16.9165 20.6179C17.5332 21.03 18.2583 21.2499 19 21.2499ZM20.2501 19.3707C19.8801 19.618 19.445 19.7499 19 19.7499C18.555 19.7499 18.1199 19.618 17.7499 19.3707C17.3799 19.1234 17.0915 18.772 16.9212 18.3608C16.7509 17.9496 16.7064 17.4972 16.7933 17.0607C16.8802 16.6243 17.0945 16.2233 17.4092 15.9087L17.4101 15.9079C17.692 15.6252 18.2185 15.1532 19.0022 14.4823C19.7388 15.1088 20.2648 15.5819 20.59 15.908L20.5907 15.9087C20.9055 16.2233 21.1198 16.6243 21.2067 17.0607C21.2936 17.4972 21.2491 17.9496 21.0788 18.3608C20.9085 18.772 20.6201 19.1234 20.2501 19.3707Z" fill="black"/>
</svg>
