<svg width="24" height="24" viewBox="0 0 24 24" fill="none" xmlns="http://www.w3.org/2000/svg">
<path fill-rule="evenodd" clip-rule="evenodd" d="M11.0607 3C9.74285 3 8.60368 3.7582 8.05294 4.86059C6.84264 5.21933 5.96002 6.3389 5.96002 7.6656C5.96002 9.28121 7.26973 10.5909 8.88534 10.5909L8.89693 10.5909H14.0946L14.1061 10.5909C15.7217 10.5909 17.0314 9.28121 17.0314 7.6656C17.0314 6.04999 15.7217 4.74028 14.1061 4.74028C14.0727 4.74028 14.0393 4.74084 14.0061 4.74196C13.4347 3.70406 12.3306 3 11.0607 3Z" fill="black"/>
<path d="M3.54596 13.159C3.44835 13.1866 3.35881 13.2334 3.28172 13.2951C3.12006 13.4245 3.01313 13.6194 3.00117 13.8396C3.00022 13.8566 2.99985 13.8737 3.00006 13.8908V19.8809C3.00006 20.2951 3.33584 20.6309 3.75006 20.6309C4.16427 20.6309 4.50006 20.2951 4.50006 19.8809V16.358L7.11894 20.2863C7.13296 20.3081 7.14808 20.3291 7.16422 20.3493C7.36165 20.5968 7.69067 20.6896 7.98288 20.5941C8.06339 20.5678 8.13791 20.5283 8.20387 20.4781C8.29601 20.4082 8.3678 20.3205 8.41763 20.2231C8.46033 20.14 8.48795 20.0478 8.49689 19.9502C8.49945 19.9229 8.50051 19.8953 8.50006 19.8678V13.8809C8.50006 13.4667 8.16427 13.1309 7.75006 13.1309C7.33584 13.1309 7.00006 13.4667 7.00006 13.8809V17.4038L4.37987 13.4735C4.36962 13.4577 4.35879 13.4423 4.34741 13.4273C4.21338 13.2505 4.01377 13.1486 3.80566 13.133C3.7192 13.1265 3.63126 13.1349 3.54596 13.159Z" fill="black"/>
<path d="M11.5001 13.8809C11.5001 13.4667 11.1643 13.1309 10.7501 13.1309C10.3358 13.1309 10.0001 13.4667 10.0001 13.8809V19.8809C10.0001 20.2951 10.3358 20.6309 10.7501 20.6309C11.1643 20.6309 11.5001 20.2951 11.5001 19.8809V17.6309H14.0001V19.8809C14.0001 20.2951 14.3358 20.6309 14.7501 20.6309C15.1643 20.6309 15.5001 20.2951 15.5001 19.8809V13.8809C15.5001 13.4667 15.1643 13.1309 14.7501 13.1309C14.3358 13.1309 14.0001 13.4667 14.0001 13.8809V16.1309H11.5001V13.8809Z" fill="black"/>
<path d="M16.9922 15.8323C16.9922 15.8323 17.7113 15.1146 18.8223 15.1146C19.3199 15.1146 19.7884 15.2612 20.1534 15.555C20.5183 15.8488 20.7705 16.3148 20.7705 16.8167C20.7705 17.1646 20.6697 17.4739 20.5245 17.7454C20.7905 18.0031 21.0205 18.3273 21.0205 18.7776C21.0205 19.3399 20.7427 19.8611 20.3467 20.1712C19.9507 20.4813 19.4663 20.6146 18.9766 20.6146C17.8511 20.6146 17.0567 19.9534 17.0567 19.9534C16.9755 19.8939 16.9071 19.8186 16.8556 19.7321C16.8041 19.6456 16.7705 19.5496 16.7569 19.4498C16.7433 19.35 16.75 19.2486 16.7764 19.1514C16.8029 19.0543 16.8486 18.9634 16.9109 18.8843C16.9732 18.8052 17.0508 18.7395 17.1391 18.691C17.2273 18.6426 17.3244 18.6124 17.4246 18.6022C17.5248 18.5921 17.626 18.6022 17.7222 18.632C17.8183 18.6618 17.9075 18.7107 17.9844 18.7757C17.9844 18.7757 18.4601 19.1146 18.9766 19.1146C19.1824 19.1146 19.3448 19.0509 19.4219 18.9905C19.499 18.9302 19.5205 18.9074 19.5205 18.7776C19.5205 18.7754 19.5229 18.7746 19.5229 18.7746C19.5172 18.7732 19.4944 18.7652 19.4209 18.7269C19.3075 18.6678 19.0934 18.6282 19.0353 18.6175C19.0247 18.6156 19.0205 18.6146 19.0205 18.6146C18.8235 18.6118 18.6354 18.5315 18.497 18.3912C18.3587 18.2508 18.2811 18.0617 18.2811 17.8646C18.2811 17.6675 18.3587 17.4783 18.497 17.3379C18.6354 17.1976 18.8235 17.1174 19.0205 17.1146C19.1102 17.1146 19.1978 17.084 19.2139 17.0716C19.2159 17.0701 19.2183 17.069 19.2209 17.0678C19.2394 17.0596 19.2705 17.0457 19.2705 16.8167L19.2706 16.8131C19.2706 16.7818 19.2707 16.7704 19.2129 16.7239C19.153 16.6757 19.0212 16.6146 18.8223 16.6146C18.3383 16.6146 18.0489 16.8968 18.0489 16.8968C17.9795 16.9685 17.8965 17.0256 17.8048 17.0648C17.713 17.104 17.6144 17.1246 17.5146 17.1252C17.4149 17.1258 17.316 17.1065 17.2238 17.0685C17.1315 17.0304 17.0478 16.9744 16.9776 16.9036C16.9073 16.8328 16.8518 16.7486 16.8145 16.6561C16.7771 16.5636 16.7585 16.4646 16.7599 16.3649C16.7613 16.2651 16.7825 16.1666 16.8224 16.0752C16.8623 15.9838 16.92 15.9012 16.9922 15.8323Z" fill="black"/>
</svg>
