<svg width="24" height="24" viewBox="0 0 24 24" fill="none" xmlns="http://www.w3.org/2000/svg">
<path fill-rule="evenodd" clip-rule="evenodd" d="M13.0841 3.72851C13.7442 2.75716 15.1758 2.75716 15.836 3.72851L17.5615 6.26748C18.5733 7.7563 18.3845 9.75406 17.1116 11.0269C15.6472 12.4914 13.2729 12.4914 11.8084 11.0269C10.5355 9.75406 10.3467 7.7563 11.3585 6.26748L13.0841 3.72851ZM14.5954 4.57165C14.5304 4.47612 14.3896 4.47612 14.3247 4.57165L12.5992 7.11062C11.9921 8.00391 12.1054 9.20256 12.8691 9.96627C13.7477 10.8449 15.1723 10.8449 16.051 9.96627C16.8147 9.20256 16.928 8.00391 16.3209 7.11062L14.5954 4.57165Z" fill="black"/>
<path fill-rule="evenodd" clip-rule="evenodd" d="M8.29046 7.30663C8.01198 6.89779 7.40806 6.89779 7.12957 7.30663L6.0559 8.88288C5.51626 9.67513 5.61696 10.7382 6.29583 11.4155C7.07686 12.1948 8.34317 12.1948 9.12421 11.4155C9.80307 10.7382 9.90378 9.67513 9.36413 8.88288L8.29046 7.30663ZM7.04838 9.55587L7.71002 8.58453L8.37165 9.55587C8.58751 9.87277 8.54722 10.298 8.27568 10.5689C7.96327 10.8806 7.45676 10.8806 7.14435 10.5689C6.87281 10.298 6.83253 9.87277 7.04838 9.55587Z" fill="black"/>
<path d="M3.28172 14.5795C3.35881 14.5178 3.44835 14.471 3.54596 14.4434C3.63126 14.4193 3.7192 14.4109 3.80566 14.4174C4.01377 14.433 4.21338 14.5349 4.34741 14.7118C4.35879 14.7267 4.36962 14.7421 4.37987 14.7579L7.00006 18.6882V15.1653C7.00006 14.7511 7.33584 14.4153 7.75006 14.4153C8.16427 14.4153 8.50006 14.7511 8.50006 15.1653V21.1522C8.50051 21.1798 8.49945 21.2073 8.49689 21.2347C8.48795 21.3322 8.46033 21.4244 8.41763 21.5075C8.3678 21.6049 8.29601 21.6926 8.20387 21.7625C8.13791 21.8127 8.06339 21.8522 7.98288 21.8785C7.69067 21.9741 7.36165 21.8812 7.16422 21.6337C7.14808 21.6135 7.13296 21.5925 7.11894 21.5707L4.50006 17.6424V21.1653C4.50006 21.5796 4.16427 21.9153 3.75006 21.9153C3.33584 21.9153 3.00006 21.5796 3.00006 21.1653V15.1752C2.99985 15.1581 3.00022 15.141 3.00117 15.124C3.01313 14.9038 3.12006 14.7089 3.28172 14.5795Z" fill="black"/>
<path d="M10.7501 14.4153C11.1643 14.4153 11.5001 14.7511 11.5001 15.1653V17.4153H14.0001V15.1653C14.0001 14.7511 14.3358 14.4153 14.7501 14.4153C15.1643 14.4153 15.5001 14.7511 15.5001 15.1653V21.1653C15.5001 21.5796 15.1643 21.9153 14.7501 21.9153C14.3358 21.9153 14.0001 21.5796 14.0001 21.1653V18.9153H11.5001V21.1653C11.5001 21.5796 11.1643 21.9153 10.7501 21.9153C10.3358 21.9153 10.0001 21.5796 10.0001 21.1653V15.1653C10.0001 14.7511 10.3358 14.4153 10.7501 14.4153Z" fill="black"/>
<path d="M18.8223 16.399C17.7113 16.399 16.9922 17.1168 16.9922 17.1168C16.92 17.1856 16.8623 17.2682 16.8224 17.3596C16.7825 17.4511 16.7613 17.5495 16.7599 17.6493C16.7585 17.749 16.7771 17.8481 16.8145 17.9406C16.8518 18.0331 16.9073 18.1172 16.9776 18.188C17.0478 18.2588 17.1315 18.3149 17.2238 18.3529C17.316 18.391 17.4149 18.4102 17.5146 18.4096C17.6144 18.409 17.713 18.3885 17.8048 18.3492C17.8965 18.31 17.9795 18.2529 18.0489 18.1812C18.0489 18.1812 18.3383 17.899 18.8223 17.899C19.0212 17.899 19.153 17.9601 19.2129 18.0084C19.2707 18.0548 19.2706 18.0662 19.2706 18.0975L19.2705 18.1011C19.2705 18.3301 19.2394 18.344 19.2209 18.3523C19.2194 18.3529 19.218 18.3536 19.2167 18.3543C19.2157 18.3548 19.2148 18.3554 19.2139 18.356C19.1978 18.3684 19.1102 18.399 19.0205 18.399C18.8235 18.4018 18.6354 18.482 18.497 18.6224C18.3587 18.7627 18.2811 18.9519 18.2811 19.149C18.2811 19.3461 18.3587 19.5353 18.497 19.6756C18.6354 19.816 18.8235 19.8962 19.0205 19.899C19.0196 19.8988 19.0201 19.899 19.0205 19.899L19.0353 19.9019C19.0934 19.9127 19.3075 19.9522 19.4209 20.0113C19.4944 20.0496 19.5172 20.0576 19.5229 20.059C19.5229 20.059 19.5205 20.0598 19.5205 20.0621C19.5205 20.1919 19.499 20.2146 19.4219 20.275C19.3448 20.3353 19.1824 20.399 18.9766 20.399C18.4601 20.399 17.9844 20.0601 17.9844 20.0601C17.9075 19.9951 17.8183 19.9462 17.7222 19.9164C17.626 19.8866 17.5248 19.8765 17.4246 19.8866C17.3244 19.8968 17.2273 19.927 17.1391 19.9755C17.0508 20.0239 16.9732 20.0897 16.9109 20.1688C16.8486 20.2479 16.8029 20.3387 16.7764 20.4358C16.75 20.533 16.7433 20.6345 16.7569 20.7342C16.7705 20.834 16.8041 20.93 16.8556 21.0165C16.9071 21.1031 16.9755 21.1783 17.0567 21.2379C17.0567 21.2379 17.8511 21.899 18.9766 21.899C19.4663 21.899 19.9507 21.7657 20.3467 21.4556C20.7427 21.1455 21.0205 20.6243 21.0205 20.0621C21.0205 19.6118 20.7905 19.2876 20.5245 19.0298C20.6697 18.7584 20.7705 18.4491 20.7705 18.1011C20.7705 17.5992 20.5183 17.1332 20.1534 16.8394C19.7884 16.5457 19.3199 16.399 18.8223 16.399Z" fill="black"/>
</svg>
