<svg width="24" height="24" viewBox="0 0 24 24" fill="none" xmlns="http://www.w3.org/2000/svg">
<path fill-rule="evenodd" clip-rule="evenodd" d="M13.2256 2.88416C12.8775 2.37195 12.1226 2.37194 11.7744 2.88416L10.4324 4.85892C9.75779 5.85147 9.88368 7.18331 10.7323 8.0319C11.7086 9.0082 13.2915 9.0082 14.2678 8.0319C15.1163 7.18331 15.2422 5.85147 14.5677 4.85892L13.2256 2.88416Z" fill="black"/>
<path fill-rule="evenodd" clip-rule="evenodd" d="M6.00001 9.25C6.00001 8.83579 5.66422 8.5 5.25001 8.5L5.24317 8.50003H3.75C3.33579 8.50003 3 8.83582 3 9.25003C3 9.66424 3.33579 10 3.75 10H4.50001V18.25C4.50001 18.8547 4.64797 19.6556 5.15001 20.325C5.6793 21.0307 6.53585 21.5 7.75001 21.5H16.25C17.4642 21.5 18.3207 21.0307 18.85 20.325C19.352 19.6556 19.5 18.8547 19.5 18.25V10H20.25C20.6642 10 21 9.66424 21 9.25003C21 8.83582 20.6642 8.50003 20.25 8.50003H18.7568L18.75 8.5C18.4393 8.5 18.1728 8.68888 18.0589 8.95807C18.0225 9.04427 18.0017 9.13871 18.0001 9.23782L18 9.25003L18 9.25345V16.5527C17.919 16.6588 17.8254 16.7476 17.7225 16.8153C17.5665 16.9179 17.3939 16.969 17.2195 16.9642C17.2127 16.9641 17.2059 16.9641 17.199 16.9642C17.0247 16.969 16.852 16.9179 16.6961 16.8153C16.5401 16.7126 16.4054 16.5616 16.3037 16.3751C16.1096 16.0192 15.8525 15.7308 15.5547 15.5348C15.2599 15.3409 14.934 15.2433 14.6046 15.2502C14.2752 15.2433 13.9494 15.3409 13.6546 15.5348C13.3568 15.7308 13.0997 16.0192 12.9056 16.3751C12.8039 16.5616 12.6692 16.7126 12.5132 16.8153C12.3572 16.9179 12.1846 16.969 12.0102 16.9642C12.0034 16.9641 11.9966 16.9641 11.9898 16.9642C11.8154 16.969 11.6428 16.9179 11.4868 16.8153C11.3308 16.7126 11.1961 16.5616 11.0944 16.3751C10.9003 16.0192 10.6432 15.7308 10.3454 15.5348C10.0506 15.3409 9.72477 15.2433 9.39536 15.2502C9.06596 15.2433 8.74009 15.3409 8.44533 15.5348C8.14753 15.7308 7.89045 16.0192 7.6963 16.3751C7.5946 16.5616 7.45994 16.7126 7.30395 16.8153C7.14796 16.9179 6.97532 16.969 6.80096 16.9642C6.79414 16.9641 6.78732 16.9641 6.7805 16.9642C6.60613 16.969 6.4335 16.9179 6.27751 16.8153C6.17461 16.7476 6.081 16.6588 6.00001 16.5527V15.25H7.5C7.91421 15.25 8.25 14.9142 8.25 14.5C8.25 14.0858 7.91421 13.75 7.5 13.75H6.00001V12H8.25C8.66421 12 9 11.6642 9 11.25C9 10.8358 8.66421 10.5 8.25 10.5H6.00001V9.25Z" fill="black"/>
</svg>
