<svg width="24" height="24" viewBox="0 0 24 24" fill="none" xmlns="http://www.w3.org/2000/svg">
<path d="M11.5458 10.7012C11.5458 10.4506 11.7481 10.25 11.9946 10.25C12.2412 10.25 12.4435 10.4506 12.4435 10.7012C12.4435 10.9518 12.2412 11.1524 11.9946 11.1524C11.8071 11.1524 11.6452 11.0363 11.5784 10.8705C11.5723 10.8506 11.5659 10.8308 11.5592 10.8112C11.5504 10.776 11.5458 10.7392 11.5458 10.7012Z" fill="black"/>
<path d="M11.3296 12.5359C11.0165 12.999 10.5098 13.3205 9.92506 13.3832C9.82744 13.4719 9.76672 13.5997 9.76672 13.7414C9.76672 14.0096 9.98331 14.2245 10.2474 14.2245H13.7666C14.0307 14.2245 14.2473 14.0096 14.2473 13.7414C14.2473 13.6008 14.1876 13.4739 14.0912 13.3853C13.4972 13.3277 12.9818 13.0033 12.6652 12.5339C12.4562 12.6106 12.2304 12.6524 11.9946 12.6524C11.761 12.6524 11.5371 12.6113 11.3296 12.5359Z" fill="black"/>
<path d="M10.1311 11.2739C10.1372 11.2938 10.1436 11.3136 10.1503 11.3332C10.1591 11.3684 10.1637 11.4052 10.1637 11.4432C10.1637 11.6938 9.96138 11.8944 9.71486 11.8944C9.46834 11.8944 9.26599 11.6938 9.26599 11.4432C9.26599 11.1926 9.46834 10.992 9.71486 10.992C9.90238 10.992 10.0643 11.1081 10.1311 11.2739Z" fill="black"/>
<path d="M14.2814 10.992C14.0349 10.992 13.8325 11.1926 13.8325 11.4432C13.8325 11.6938 14.0349 11.8944 14.2814 11.8944C14.5279 11.8944 14.7303 11.6938 14.7303 11.4432C14.7303 11.1926 14.5279 10.992 14.2814 10.992Z" fill="black"/>
<path fill-rule="evenodd" clip-rule="evenodd" d="M6.46167 1.83594C5.49517 1.83594 4.71167 2.61944 4.71167 3.58594V5.15867C3.60099 9.61975 3.59329 14.2855 4.69015 18.7514L4.71167 18.8394V20.4141C4.71167 21.3806 5.49517 22.1641 6.46167 22.1641H17.5418C18.5083 22.1641 19.2918 21.3806 19.2918 20.4141V18.8248L19.3098 18.7512C20.4054 14.2902 20.3989 9.62968 19.2918 5.17299V3.58594C19.2918 2.61944 18.5083 1.83594 17.5418 1.83594H6.46167ZM6.21167 20.4141V19.4982H17.7918V20.4141C17.7918 20.5521 17.6799 20.6641 17.5418 20.6641H6.46167C6.3236 20.6641 6.21167 20.5521 6.21167 20.4141ZM6.21167 3.58594C6.21167 3.44787 6.3236 3.33594 6.46167 3.33594H17.5418C17.6799 3.33594 17.7918 3.44787 17.7918 3.58594V4.50187H6.21167V3.58594ZM15.7473 13.7414C15.7473 13.4447 15.6822 13.1634 15.5656 12.9109C15.9732 12.5531 16.2303 12.0278 16.2303 11.4432C16.2303 10.367 15.3591 9.492 14.2814 9.492C14.0457 9.492 13.8198 9.53386 13.6108 9.61054C13.2608 9.09163 12.6681 8.75 11.9946 8.75C11.3221 8.75 10.73 9.09074 10.3799 9.6085C10.1724 9.53312 9.94849 9.492 9.71486 9.492C8.63715 9.492 7.76599 10.367 7.76599 11.4432C7.76599 12.0339 8.02839 12.5639 8.44333 12.922C8.32995 13.1716 8.26672 13.4491 8.26672 13.7414C8.26672 14.8353 9.15209 15.7245 10.2474 15.7245H13.7666C14.8619 15.7245 15.7473 14.8353 15.7473 13.7414Z" fill="black"/>
</svg>
