<svg width="24" height="24" viewBox="0 0 24 24" fill="none" xmlns="http://www.w3.org/2000/svg">
<path fill-rule="evenodd" clip-rule="evenodd" d="M4.71167 3.58594C4.71167 2.61944 5.49517 1.83594 6.46167 1.83594H17.5418C18.5083 1.83594 19.2918 2.61944 19.2918 3.58594V5.17299C20.3989 9.62968 20.4054 14.2902 19.3098 18.7512L19.2918 18.8248V20.4141C19.2918 21.3806 18.5083 22.1641 17.5418 22.1641H6.46167C5.49517 22.1641 4.71167 21.3806 4.71167 20.4141V18.8394L4.69015 18.7514C3.59329 14.2855 3.60099 9.61975 4.71167 5.15867V3.58594ZM6.21167 19.4982V20.4141C6.21167 20.5521 6.3236 20.6641 6.46167 20.6641H17.5418C17.6799 20.6641 17.7918 20.5521 17.7918 20.4141V19.4982H6.21167ZM6.46167 3.33594C6.3236 3.33594 6.21167 3.44787 6.21167 3.58594V4.50187H17.7918V3.58594C17.7918 3.44787 17.6799 3.33594 17.5418 3.33594H6.46167Z" fill="black"/>
</svg>
