<svg width="24" height="24" viewBox="0 0 24 24" fill="none" xmlns="http://www.w3.org/2000/svg">
<path fill-rule="evenodd" clip-rule="evenodd" d="M15.5656 12.9109C15.6822 13.1634 15.7473 13.4447 15.7473 13.7414C15.7473 14.8353 14.8619 15.7245 13.7666 15.7245H10.2474C9.15209 15.7245 8.26672 14.8353 8.26672 13.7414C8.26672 13.4491 8.32995 13.1716 8.44333 12.922C8.02839 12.5639 7.76599 12.0339 7.76599 11.4432C7.76599 10.367 8.63715 9.492 9.71486 9.492C9.94849 9.492 10.1724 9.53312 10.3799 9.6085C10.73 9.09074 11.3221 8.75 11.9946 8.75C12.6681 8.75 13.2608 9.09163 13.6108 9.61054C13.8198 9.53386 14.0457 9.492 14.2814 9.492C15.3591 9.492 16.2303 10.367 16.2303 11.4432C16.2303 12.0278 15.9732 12.5531 15.5656 12.9109ZM9.92506 13.3832C10.5098 13.3205 11.0165 12.999 11.3296 12.5359C11.5371 12.6113 11.761 12.6524 11.9946 12.6524C12.2304 12.6524 12.4562 12.6106 12.6652 12.5339C12.9818 13.0033 13.4972 13.3277 14.0912 13.3853C14.1876 13.4739 14.2473 13.6008 14.2473 13.7414C14.2473 14.0096 14.0307 14.2245 13.7666 14.2245H10.2474C9.98331 14.2245 9.76672 14.0096 9.76672 13.7414C9.76672 13.5997 9.82744 13.4719 9.92506 13.3832ZM10.1503 11.3332C10.1436 11.3136 10.1372 11.2938 10.1311 11.2739C10.0643 11.1081 9.90238 10.992 9.71486 10.992C9.46834 10.992 9.26599 11.1926 9.26599 11.4432C9.26599 11.6938 9.46834 11.8944 9.71486 11.8944C9.96138 11.8944 10.1637 11.6938 10.1637 11.4432C10.1637 11.4052 10.1591 11.3684 10.1503 11.3332ZM11.9946 11.1524C11.8071 11.1524 11.6452 11.0363 11.5784 10.8705C11.5723 10.8506 11.5659 10.8308 11.5592 10.8112C11.5504 10.776 11.5458 10.7392 11.5458 10.7012C11.5458 10.4506 11.7481 10.25 11.9946 10.25C12.2412 10.25 12.4435 10.4506 12.4435 10.7012C12.4435 10.9518 12.2412 11.1524 11.9946 11.1524ZM13.8325 11.4432C13.8325 11.1926 14.0349 10.992 14.2814 10.992C14.5279 10.992 14.7303 11.1926 14.7303 11.4432C14.7303 11.6938 14.5279 11.8944 14.2814 11.8944C14.0349 11.8944 13.8325 11.6938 13.8325 11.4432Z" fill="black"/>
<path fill-rule="evenodd" clip-rule="evenodd" d="M4.71167 3.58594C4.71167 2.61944 5.49517 1.83594 6.46167 1.83594H17.5418C18.5083 1.83594 19.2918 2.61944 19.2918 3.58594V5.17299C20.3989 9.62968 20.4054 14.2902 19.3098 18.7512L19.2918 18.8248V20.4141C19.2918 21.3806 18.5083 22.1641 17.5418 22.1641H6.46167C5.49517 22.1641 4.71167 21.3806 4.71167 20.4141V18.8394L4.69015 18.7514C3.59329 14.2855 3.60099 9.61975 4.71167 5.15867V3.58594ZM17.947 17.9981H6.0529C5.14647 14.0501 5.14663 9.94837 6.05219 6.00204H17.9477C18.8533 9.94837 18.8534 14.0501 17.947 17.9981ZM6.21167 19.4982V20.4141C6.21167 20.5521 6.3236 20.6641 6.46167 20.6641H17.5418C17.6799 20.6641 17.7918 20.5521 17.7918 20.4141V19.4982H6.21167ZM6.46167 3.33594C6.3236 3.33594 6.21167 3.44787 6.21167 3.58594V4.50187H17.7918V3.58594C17.7918 3.44787 17.6799 3.33594 17.5418 3.33594H6.46167Z" fill="black"/>
</svg>
