<svg width="24" height="24" viewBox="0 0 24 24" fill="none" xmlns="http://www.w3.org/2000/svg">
<path fill-rule="evenodd" clip-rule="evenodd" d="M6 2.25C6.41421 2.25 6.75 2.58579 6.75 3V4.25H18.25V3C18.25 2.58579 18.5858 2.25 19 2.25C19.4142 2.25 19.75 2.58579 19.75 3V4.35424C20.1975 4.48112 20.6098 4.72067 20.9445 5.05546C21.4603 5.57118 21.75 6.27065 21.75 7V17C21.75 17.7293 21.4603 18.4288 20.9445 18.9445C20.4288 19.4603 19.7293 19.75 19 19.75H5C4.27065 19.75 3.57118 19.4603 3.05546 18.9445C2.53973 18.4288 2.25 17.7293 2.25 17V7C2.25 6.27065 2.53973 5.57118 3.05546 5.05546C3.57118 4.53973 4.27065 4.25 5 4.25H5.25V3C5.25 2.58579 5.58579 2.25 6 2.25ZM14.5 11.25C14.0858 11.25 13.75 11.5858 13.75 12C13.75 12.4142 14.0858 12.75 14.5 12.75H15.25V13.5C15.25 13.9142 15.5858 14.25 16 14.25C16.4142 14.25 16.75 13.9142 16.75 13.5V12.75H17.5C17.9142 12.75 18.25 12.4142 18.25 12C18.25 11.5858 17.9142 11.25 17.5 11.25H16.75V10.5C16.75 10.0858 16.4142 9.75 16 9.75C15.5858 9.75 15.25 10.0858 15.25 10.5V11.25H14.5ZM5.75 12C5.75 11.5858 6.08579 11.25 6.5 11.25H9.5C9.91421 11.25 10.25 11.5858 10.25 12C10.25 12.4142 9.91421 12.75 9.5 12.75H6.5C6.08579 12.75 5.75 12.4142 5.75 12Z" fill="black"/>
</svg>
