<svg width="24" height="24" viewBox="0 0 24 24" fill="none" xmlns="http://www.w3.org/2000/svg">
<path d="M12.6708 8.33545C12.8561 7.96497 12.7059 7.51446 12.3354 7.32922C11.9649 7.14398 11.5144 7.29415 11.3292 7.66463L9.32918 11.6646C9.21293 11.8971 9.22536 12.1732 9.36201 12.3943C9.49867 12.6155 9.74007 12.75 10 12.75H11.7865L10.3292 15.6646C10.1439 16.0351 10.2941 16.4856 10.6646 16.6709C11.0351 16.8561 11.4856 16.7059 11.6708 16.3355L13.6708 12.3355C13.7871 12.103 13.7746 11.8269 13.638 11.6057C13.5013 11.3846 13.2599 11.25 13 11.25H11.2135L12.6708 8.33545Z" fill="black"/>
<path fill-rule="evenodd" clip-rule="evenodd" d="M6.75 3C6.75 2.58579 6.41421 2.25 6 2.25C5.58579 2.25 5.25 2.58579 5.25 3V4.25H5C4.27065 4.25 3.57118 4.53973 3.05546 5.05546C2.53973 5.57118 2.25 6.27065 2.25 7V17C2.25 17.7293 2.53973 18.4288 3.05546 18.9445C3.57118 19.4603 4.27065 19.75 5 19.75H19C19.7293 19.75 20.4288 19.4603 20.9445 18.9445C21.4603 18.4288 21.75 17.7293 21.75 17V7C21.75 6.27065 21.4603 5.57118 20.9445 5.05546C20.6098 4.72067 20.1975 4.48112 19.75 4.35424V3C19.75 2.58579 19.4142 2.25 19 2.25C18.5858 2.25 18.25 2.58579 18.25 3V4.25H6.75V3ZM19 5.75C19.3315 5.75 19.6495 5.8817 19.8839 6.11612C20.1183 6.35054 20.25 6.66848 20.25 7V17C20.25 17.3315 20.1183 17.6495 19.8839 17.8839C19.6495 18.1183 19.3315 18.25 19 18.25H5C4.66848 18.25 4.35054 18.1183 4.11612 17.8839C3.8817 17.6495 3.75 17.3315 3.75 17V7C3.75 6.66848 3.8817 6.35054 4.11612 6.11612C4.35054 5.8817 4.66848 5.75 5 5.75H19Z" fill="black"/>
</svg>
