<svg width="24" height="24" viewBox="0 0 24 24" fill="none" xmlns="http://www.w3.org/2000/svg">
<path d="M12.7858 2.16003C12.3716 2.16004 12.0358 2.49584 12.0359 2.91005C12.0359 3.32427 12.3717 3.66004 12.7859 3.66003C13.738 3.66001 14.6808 3.84752 15.5605 4.21187C16.4401 4.57622 17.2394 5.11026 17.9126 5.78351C18.5859 6.45676 19.12 7.25602 19.4843 8.13566C19.8487 9.01531 20.0362 9.9581 20.0361 10.9102C20.0361 11.3244 20.3719 11.6602 20.7861 11.6602C21.2004 11.6603 21.5362 11.3245 21.5362 10.9103C21.5362 9.76116 21.3099 8.6233 20.8701 7.56166C20.4304 6.50002 19.7859 5.53539 18.9733 4.72285C18.1608 3.91031 17.1961 3.26577 16.1345 2.82604C15.0728 2.38631 13.935 2.16 12.7858 2.16003Z" fill="black"/>
<path d="M12.786 6.16083C12.3718 6.16077 12.0359 6.4965 12.0359 6.91071C12.0358 7.32493 12.3715 7.66077 12.7858 7.66083C13.6475 7.66096 14.474 8.00336 15.0834 8.61273C15.6928 9.2221 16.0352 10.0486 16.0353 10.9103C16.0354 11.3246 16.3712 11.6603 16.7854 11.6602C17.1996 11.6602 17.5354 11.3243 17.5353 10.9101C17.5351 9.65058 17.0347 8.44269 16.1441 7.55207C15.2534 6.66145 14.0455 6.16102 12.786 6.16083Z" fill="black"/>
<path d="M8.20021 16.3318C8.33829 16.3318 8.45022 16.2199 8.45022 16.0818C8.45022 15.9438 8.33829 15.8318 8.20021 15.8318C8.06214 15.8318 7.95021 15.9438 7.95021 16.0818C7.95021 16.2199 8.06214 16.3318 8.20021 16.3318Z" fill="black"/>
<path fill-rule="evenodd" clip-rule="evenodd" d="M5.20022 10.3318C3.68143 10.3318 2.4502 11.5631 2.4502 13.0818V19.0818C2.4502 20.6006 3.68142 21.8318 5.20022 21.8318H11.2003C12.7191 21.8318 13.9503 20.6006 13.9503 19.0818V13.0818C13.9503 11.5631 12.7191 10.3318 11.2003 10.3318H5.20022ZM6.4502 16.0818C6.4502 15.1153 7.23371 14.3318 8.20021 14.3318C9.16672 14.3318 9.95023 15.1153 9.95023 16.0818C9.95023 17.0483 9.16672 17.8318 8.20021 17.8318C7.23371 17.8318 6.4502 17.0483 6.4502 16.0818Z" fill="black"/>
</svg>
