<svg width="24" height="24" viewBox="0 0 24 24" fill="none" xmlns="http://www.w3.org/2000/svg">
<path fill-rule="evenodd" clip-rule="evenodd" d="M13.2319 2.28675C13.5409 2.38721 13.75 2.67514 13.75 2.99999V9.24999H19C19.2821 9.24999 19.5403 9.40828 19.6683 9.65966C19.7963 9.91103 19.7725 10.213 19.6066 10.4411L11.6066 21.4411C11.4155 21.7038 11.077 21.8137 10.7681 21.7132C10.4591 21.6128 10.25 21.3248 10.25 21V14.75H5C4.71791 14.75 4.45967 14.5917 4.33167 14.3403C4.20366 14.0889 4.22753 13.787 4.39345 13.5589L12.3935 2.55886C12.5845 2.29614 12.923 2.18629 13.2319 2.28675ZM6.47283 13.25H11C11.4142 13.25 11.75 13.5858 11.75 14V18.6936L17.5272 10.75H13C12.5858 10.75 12.25 10.4142 12.25 9.99999V5.30638L6.47283 13.25Z" fill="black"/>
</svg>
