<svg width="24" height="24" viewBox="0 0 24 24" fill="none" xmlns="http://www.w3.org/2000/svg">
<path fill-rule="evenodd" clip-rule="evenodd" d="M16.6524 11.2795C15.9171 11.4787 15.158 11.0544 14.9258 10.3145C14.4054 8.65648 12.8832 7.45918 11.0909 7.45918C9.32891 7.45918 7.82779 8.61624 7.28312 10.2314C7.10725 10.7529 6.65849 11.1286 6.12329 11.2023C4.60208 11.4117 3.42857 12.7456 3.42857 14.3571C3.42857 16.1154 4.82405 17.5408 6.54545 17.5408H17.4545C19.176 17.5408 20.5714 16.1154 20.5714 14.3571C20.5714 12.5988 19.176 11.1735 17.4545 11.1735C17.1753 11.1735 16.9068 11.2106 16.6524 11.2795ZM6.54545 19C4.03507 19 2 16.9213 2 14.3571C2 12.0053 3.71196 10.0619 5.93244 9.75615C6.66954 7.57038 8.70068 6 11.0909 6C13.5221 6 15.5818 7.62469 16.2861 9.86911C16.659 9.76811 17.0506 9.71429 17.4545 9.71429C19.9649 9.71429 22 11.793 22 14.3571C22 16.9213 19.9649 19 17.4545 19H6.54545Z" fill="black"/>
<path fill-rule="evenodd" clip-rule="evenodd" d="M7 14C7 12.6187 8.21218 11.5 9.70899 11.5H10.125C10.4713 11.5 10.75 11.759 10.75 12.0768C10.75 12.3946 10.4713 12.6536 10.125 12.6536H9.70899C8.90286 12.6536 8.25 13.2561 8.25 14C8.25 14.7439 8.90286 15.3464 9.70899 15.3464H10.125C10.4713 15.3464 10.75 15.6054 10.75 15.9232C10.75 16.241 10.4713 16.5 10.125 16.5H9.70899C8.21218 16.5 7 15.3813 7 14Z" fill="black"/>
<path fill-rule="evenodd" clip-rule="evenodd" d="M15.9605 15.3712C16.1494 14.9989 16.2439 14.5418 16.2439 14C16.2439 13.4582 16.1494 13.0019 15.9605 12.6312C15.7716 12.2589 15.5167 11.9777 15.1957 11.7875C14.8747 11.5958 14.5168 11.5 14.1219 11.5C13.7243 11.5 13.3649 11.5958 13.0439 11.7875C12.7244 11.9777 12.4701 12.2589 12.2812 12.6312C12.0937 13.0019 12 13.4582 12 14C12 14.5387 12.0937 14.9941 12.2812 15.3664C12.4701 15.7372 12.7244 16.0192 13.0439 16.2125C13.3649 16.4042 13.7243 16.5 14.1219 16.5C14.5168 16.5 14.8747 16.4049 15.1957 16.2148C15.5167 16.0231 15.7716 15.7419 15.9605 15.3712ZM14.9209 13.2633C14.9905 13.4629 15.0253 13.7085 15.0253 14C15.0253 14.2915 14.9905 14.5379 14.9209 14.7391C14.8527 14.9387 14.7511 15.0908 14.6162 15.1953C14.4827 15.2983 14.318 15.3498 14.1219 15.3498C13.9259 15.3498 13.7605 15.2983 13.6255 15.1953C13.492 15.0908 13.3905 14.9387 13.3209 14.7391C13.2527 14.5379 13.2186 14.2915 13.2186 14C13.2186 13.7085 13.2527 13.4629 13.3209 13.2633C13.3905 13.0621 13.492 12.91 13.6255 12.807C13.7605 12.7025 13.9259 12.6502 14.1219 12.6502C14.318 12.6502 14.4827 12.7025 14.6162 12.807C14.7511 12.91 14.8527 13.0621 14.9209 13.2633Z" fill="black"/>
</svg>
