<svg width="24" height="24" viewBox="0 0 24 24" fill="none" xmlns="http://www.w3.org/2000/svg">
<path d="M10 9.25C10.4142 9.25 10.75 9.58579 10.75 10V10.01C10.75 10.4242 10.4142 10.76 10 10.76C9.58579 10.76 9.25 10.4242 9.25 10.01V10C9.25 9.58579 9.58579 9.25 10 9.25Z" fill="black"/>
<path d="M14 9.25C14.4142 9.25 14.75 9.58579 14.75 10V10.01C14.75 10.4242 14.4142 10.76 14 10.76C13.5858 10.76 13.25 10.4242 13.25 10.01V10C13.25 9.58579 13.5858 9.25 14 9.25Z" fill="black"/>
<path fill-rule="evenodd" clip-rule="evenodd" d="M20.2131 4.49141C19.8263 3.15676 18.5046 2.32035 17.1329 2.54212L12.8803 3.22962C12.8495 3.23459 12.8194 3.24142 12.79 3.25H11.21C11.1806 3.24142 11.1504 3.23459 11.1197 3.22962L6.86714 2.54212C5.49538 2.32035 4.17372 3.15676 3.78694 4.49141L2.30465 9.60625C2.30084 9.61939 2.29739 9.63264 2.29431 9.64597C2.22251 9.95634 2.2392 10.2806 2.3425 10.582C2.44566 10.883 2.63108 11.149 2.87772 11.35C3.01487 11.4622 3.16678 11.5522 3.32796 11.6182C3.71111 14.1749 4.53415 16.5703 5.60428 18.3815C6.17564 19.3485 6.83282 20.175 7.55568 20.7676C8.27802 21.3597 9.10739 21.7501 9.99999 21.7501H14C14.8926 21.7501 15.722 21.3597 16.4443 20.7676C17.1672 20.175 17.8243 19.3485 18.3957 18.3815C19.4658 16.5704 20.2888 14.1751 20.672 11.6186C20.8316 11.5534 20.9839 11.4637 21.1233 11.3492C21.3694 11.1483 21.5545 10.8826 21.6575 10.582C21.7608 10.2806 21.7775 9.95634 21.7057 9.64597C21.7026 9.63264 21.6992 9.61939 21.6953 9.60625L20.2131 4.49141ZM11.2981 4.75L5.31566 11.164C5.17691 11.3182 5.0135 11.4454 4.83373 11.5414C5.20125 13.8787 5.95668 16.0292 6.8957 17.6184C7.40759 18.4848 7.95866 19.1583 8.50661 19.6075C9.05508 20.0571 9.55909 20.2501 9.99999 20.2501H11.25V16.6222C11.0584 16.5485 10.8775 16.4384 10.7195 16.2805C10.3625 15.9234 10.25 15.4488 10.25 15C10.25 14.5858 10.5858 14.25 11 14.25H13C13.4142 14.25 13.75 14.5858 13.75 15C13.75 15.4488 13.6375 15.9234 13.2805 16.2805C13.1225 16.4384 12.9416 16.5485 12.75 16.6222V20.2501H14C14.4409 20.2501 14.9449 20.0571 15.4934 19.6075C16.0413 19.1583 16.5924 18.4848 17.1043 17.6184C18.0432 16.0294 18.7985 13.8793 19.1661 11.5425C18.9881 11.4477 18.8239 11.3208 18.6828 11.1624L12.7019 4.75H11.2981ZM17.3722 4.0229C17.9958 3.92209 18.5965 4.30228 18.7723 4.90894L20.2468 9.99677C20.2523 10.0298 20.2494 10.0638 20.2385 10.0956C20.2262 10.1315 20.2041 10.1633 20.1746 10.1873L20.171 10.1903C20.0606 10.2812 19.8907 10.2648 19.8017 10.1633C19.7967 10.1576 19.7916 10.152 19.7864 10.1464L14.507 4.48612L17.3722 4.0229ZM4.02048 10.2495L4.01135 10.2501C4.00358 10.25 3.9958 10.25 3.98799 10.2501C3.92954 10.2477 3.87312 10.2264 3.82743 10.1889L3.82537 10.1873C3.79591 10.1633 3.77377 10.1315 3.76146 10.0956C3.75055 10.0638 3.74774 10.0298 3.75319 9.99677L5.22766 4.90894C5.40347 4.30228 6.00422 3.92209 6.62775 4.0229L9.49303 4.48612L4.21355 10.1464L4.20168 10.1595C4.15517 10.2118 4.09024 10.244 4.02048 10.2495Z" fill="black"/>
</svg>
