<svg width="24" height="24" viewBox="0 0 24 24" fill="none" xmlns="http://www.w3.org/2000/svg">
<path d="M21.75 2.49998C21.73 2.49998 21.7095 2.50248 21.69 2.50748C21.68 2.51098 20.6195 2.76749 19.826 2.51199C19.387 2.37199 19.0465 1.91448 18.843 1.64148C18.7775 1.55348 18.724 1.48298 18.6835 1.43948C18.262 0.991485 17.73 0.690485 17.144 0.567985C16.236 0.378985 15.3135 0.599485 14.609 1.17148C13.9045 1.74348 13.5 2.59298 13.5 3.49998C13.5 3.78348 13.517 4.11348 13.6415 4.40898C14.481 6.39248 14.554 8.18448 13.8525 9.59048C13.153 10.9925 11.7135 12.001 9.68949 12.507C6.29649 13.3555 2.81099 13.0045 2.77599 13.001C2.67099 12.9895 2.56549 13.049 2.52149 13.1485C2.47749 13.2475 2.50249 13.364 2.58349 13.436L4.22649 14.9045L1.69249 15.5065C1.59849 15.5285 1.52599 15.603 1.50549 15.6975C1.48549 15.7915 1.52099 15.8895 1.59799 15.948C1.82149 16.1195 6.54299 19.693 11.7465 19.693C11.981 19.693 12.2165 19.6825 12.453 19.6675L11.0795 22.414C10.9635 22.6465 10.976 22.923 11.112 23.144C11.2485 23.365 11.49 23.5 11.75 23.5H16.25C16.664 23.5 17 23.164 17 22.75C17 22.336 16.664 22 16.25 22H12.9635L14.266 19.3955C17.8025 18.624 19.871 17.4045 20.5755 15.6705C21.5455 13.282 19.7695 10.38 17.701 7.36698C17.567 7.17248 17.516 6.93748 17.5605 6.72098C17.587 6.59049 17.6605 6.40848 17.861 6.28148C19.0755 5.51048 21.2285 5.49998 21.25 5.49998C22.215 5.49998 23 4.71498 23 3.74998C23 3.06048 22.4395 2.49998 21.75 2.49998ZM16.7215 4.02198C16.3075 4.02198 15.9715 3.68599 15.9715 3.27199C15.9715 2.85799 16.3075 2.52199 16.7215 2.52199C17.1355 2.52199 17.4715 2.85799 17.4715 3.27199C17.4715 3.68599 17.136 4.02198 16.7215 4.02198Z" fill="black"/>
</svg>
