<svg width="24" height="24" viewBox="0 0 24 24" fill="none" xmlns="http://www.w3.org/2000/svg">
<path d="M16.4268 0.502956C14.552 0.550744 13 2.10177 13 4.00003C13 4.3135 13.009 4.69556 13.1816 5.10354C14.0598 7.17895 13.995 8.76726 13.3535 9.96585C12.712 11.1644 11.4257 12.0582 9.56836 12.5225C6.25444 13.351 2.82812 13.0039 2.82812 13.0039C2.67027 12.9873 2.51119 13.0211 2.37378 13.1005C2.23637 13.18 2.12771 13.301 2.06345 13.4462C1.99918 13.5913 1.98262 13.7531 2.01614 13.9083C2.04966 14.0634 2.13154 14.2039 2.25 14.3096L3.17871 15.1397L1.57715 15.5205C1.43602 15.5542 1.30769 15.6281 1.20769 15.7332C1.1077 15.8383 1.04034 15.9702 1.01378 16.1128C0.987214 16.2554 1.00259 16.4027 1.05803 16.5368C1.11348 16.6709 1.20662 16.786 1.32617 16.8682C1.32617 16.8682 6.50391 20.4562 12.2129 20.1485L11.0791 22.4151C11.022 22.5294 10.9952 22.6564 11.001 22.7841C11.0068 22.9117 11.0451 23.0358 11.1123 23.1444C11.1795 23.2531 11.2734 23.3428 11.385 23.4051C11.4966 23.4673 11.6222 23.5 11.75 23.5H16.25C16.3494 23.5014 16.4481 23.4831 16.5403 23.446C16.6325 23.409 16.7164 23.3539 16.7872 23.2841C16.858 23.2144 16.9142 23.1312 16.9526 23.0395C16.9909 22.9478 17.0107 22.8494 17.0107 22.75C17.0107 22.6506 16.9909 22.5522 16.9526 22.4605C16.9142 22.3688 16.858 22.2857 16.7872 22.2159C16.7164 22.1461 16.6325 22.0911 16.5403 22.054C16.4481 22.017 16.3494 21.9986 16.25 22H12.9629L13.9209 20.085C13.9406 20.0464 13.9569 20.0062 13.9697 19.9649C16.4847 19.4554 18.2506 18.7923 19.4512 17.9239C20.6651 17.0457 21.2852 15.888 21.3418 14.6924C21.4549 12.3011 19.7419 9.95741 18.1123 7.58401H18.1133C17.9964 7.41369 18.0166 7.27447 18.1289 7.20315C18.6108 6.89784 19.4138 6.68957 20.0791 6.59475C20.7447 6.49989 21.25 6.50003 21.25 6.50003C22.4837 6.50003 23.5 5.48378 23.5 4.25003C23.5 3.29255 22.7075 2.50003 21.75 2.50003C21.6891 2.50015 21.6284 2.50769 21.5693 2.52249C21.5693 2.52249 20.5347 2.71423 19.9785 2.53616C19.8546 2.49651 19.6699 2.35802 19.5059 2.17288C19.3418 1.98774 19.2726 1.83593 19.0478 1.59671C18.5744 1.09277 17.9519 0.725819 17.2471 0.578152H17.2461C16.9687 0.520265 16.6946 0.496129 16.4268 0.502956ZM16.4512 1.99807C16.6092 1.99559 16.7724 2.01106 16.9395 2.04593C17.3276 2.12726 17.6825 2.33399 17.9551 2.62405C17.9013 2.56683 18.1296 2.88114 18.3838 3.168C18.638 3.45485 18.9924 3.79454 19.5215 3.96389C20.5765 4.30167 21.528 4.06991 21.7588 4.00882C21.898 4.0157 22 4.10769 22 4.25003C22 4.67328 21.6732 5.00003 21.25 5.00003C21.25 5.00003 20.64 5.00024 19.8672 5.11038C19.0943 5.22052 18.1364 5.42209 17.3252 5.93655H17.3242C16.4615 6.48424 16.3398 7.65097 16.876 8.43264C18.5019 10.8007 19.9168 13.0784 19.8437 14.6221C19.8072 15.394 19.5066 16.0322 18.5723 16.708C17.638 17.3839 16.0424 18.0251 13.6025 18.5127C9.82151 19.2684 5.93536 17.6312 3.8164 16.5303L4.92285 16.2676C5.05625 16.236 5.17844 16.1685 5.27615 16.0723C5.37386 15.9762 5.44335 15.8551 5.47708 15.7222C5.5108 15.5893 5.50746 15.4498 5.46743 15.3187C5.42739 15.1875 5.35219 15.0699 5.25 14.9785L4.79687 14.5733C6.17908 14.5706 7.99831 14.4609 9.93164 13.9776C12.0743 13.4419 13.7878 12.3349 14.6768 10.6739C15.5658 9.01282 15.5624 6.88265 14.5625 4.51956C14.5261 4.43354 14.5 4.25155 14.5 4.00003C14.5 2.90141 15.3446 2.01548 16.4512 1.99807ZM16.7217 3.02249C16.5228 3.02249 16.332 3.10151 16.1913 3.24216C16.0507 3.38281 15.9717 3.57358 15.9717 3.77249C15.9717 3.9714 16.0507 4.16217 16.1913 4.30282C16.332 4.44347 16.5228 4.52249 16.7217 4.52249C16.9206 4.52249 17.1114 4.44347 17.252 4.30282C17.3927 4.16217 17.4717 3.9714 17.4717 3.77249C17.4717 3.57358 17.3927 3.38281 17.252 3.24216C17.1114 3.10151 16.9206 3.02249 16.7217 3.02249Z" fill="black"/>
</svg>
