<svg width="24" height="24" viewBox="0 0 24 24" fill="none" xmlns="http://www.w3.org/2000/svg">
<path d="M12.75 3.375C12.75 2.96079 12.4142 2.625 12 2.625C11.5858 2.625 11.25 2.96079 11.25 3.375L11.25 13.875C11.25 14.2892 11.5858 14.625 12 14.625C12.4142 14.625 12.75 14.2892 12.75 13.875L12.75 3.375Z" fill="black"/>
<path d="M7.20465 7.18731C7.5152 6.91321 7.54475 6.43926 7.27066 6.12871C6.99656 5.81816 6.5226 5.78861 6.21205 6.0627C4.39675 7.66492 3.25 10.0115 3.25 12.625C3.25 17.4575 7.16751 21.375 12 21.375C16.8325 21.375 20.75 17.4575 20.75 12.625C20.75 10.0115 19.6033 7.66492 17.7879 6.0627C17.4774 5.78861 17.0034 5.81816 16.7293 6.12871C16.4552 6.43926 16.4848 6.91321 16.7953 7.18731C18.3017 8.51687 19.25 10.4597 19.25 12.625C19.25 16.6291 16.0041 19.875 12 19.875C7.99594 19.875 4.75 16.6291 4.75 12.625C4.75 10.4597 5.69827 8.51687 7.20465 7.18731Z" fill="black"/>
</svg>
