<svg width="24" height="24" viewBox="0 0 24 24" fill="none" xmlns="http://www.w3.org/2000/svg">
<path fill-rule="evenodd" clip-rule="evenodd" d="M12.2723 5.30118C12.0415 5.21126 11.7812 5.24107 11.5768 5.38084C11.3723 5.52061 11.25 5.75232 11.25 6V9.81622L9.81758 7.97793C9.61301 7.71543 9.34254 7.51182 9.0337 7.38784C8.72486 7.26385 8.38868 7.22392 8.05939 7.2721C7.7301 7.32029 7.41946 7.45487 7.15909 7.66214C6.89875 7.86939 6.69793 8.14202 6.57714 8.45208L5.30118 11.7266C5.21126 11.9574 5.24107 12.2177 5.38084 12.4222C5.52061 12.6267 5.75232 12.7489 6 12.7489H9.81825L7.97863 14.1824C7.71613 14.387 7.51249 14.6575 7.38851 14.9663C7.26452 15.2751 7.22459 15.6113 7.27277 15.9406C7.32096 16.2699 7.45554 16.5806 7.66281 16.8409C7.87006 17.1013 8.14258 17.302 8.45265 17.4228L11.7273 18.6988C11.9581 18.7888 12.2184 18.7589 12.4229 18.6192C12.6273 18.4794 12.7496 18.2477 12.7496 18V14.1822L14.1824 16.021C14.387 16.2835 14.6575 16.4871 14.9663 16.6111C15.2752 16.7351 15.6113 16.775 15.9406 16.7268C16.2699 16.6787 16.5806 16.5441 16.8409 16.3368C17.1013 16.1296 17.3021 15.8569 17.4229 15.5469L18.6988 12.2723C18.7888 12.0415 18.7589 11.7812 18.6192 11.5768C18.4794 11.3723 18.2477 11.25 18 11.25H14.1827L16.021 9.81758C16.2835 9.61301 16.4871 9.34254 16.6111 9.0337C16.7351 8.72486 16.775 8.38868 16.7268 8.05939C16.6787 7.7301 16.5441 7.41946 16.3368 7.15909C16.1296 6.89875 15.8569 6.69793 15.5469 6.57714L12.2723 5.30118ZM12.75 10.4648V7.09717L15.0025 7.97487C15.0656 7.99945 15.1211 8.04032 15.1633 8.09332C15.2054 8.14631 15.2328 8.20954 15.2426 8.27657C15.2525 8.34359 15.2443 8.41202 15.2191 8.47488C15.1939 8.53772 15.1524 8.59279 15.099 8.63443L12.75 10.4648ZM15.3656 15.099L13.5352 12.75H16.9028L16.0251 15.0025C16.0006 15.0656 15.9597 15.1211 15.9067 15.1633C15.8537 15.2054 15.7905 15.2328 15.7234 15.2426C15.6564 15.2525 15.588 15.2443 15.5251 15.2191C15.4623 15.1939 15.4072 15.1524 15.3656 15.099ZM8.47488 8.77985C8.41201 8.75462 8.34359 8.74649 8.27657 8.7563C8.20954 8.76611 8.14631 8.7935 8.09332 8.83569C8.04032 8.87787 7.99945 8.93335 7.97487 8.99647L7.09717 11.2489H10.4648L8.63443 8.89996C8.59279 8.84655 8.53773 8.80509 8.47488 8.77985ZM8.90063 15.3656L11.2496 13.5352V16.9028L8.99725 16.0252C8.93413 16.0006 8.87855 15.9597 8.83636 15.9067C8.79417 15.8537 8.76678 15.7905 8.75697 15.7234C8.74716 15.6564 8.75529 15.588 8.78053 15.5251C8.80576 15.4623 8.84722 15.4072 8.90063 15.3656Z" fill="black"/>
<path fill-rule="evenodd" clip-rule="evenodd" d="M2.25 5C2.25 3.48122 3.48122 2.25 5 2.25H19C20.5188 2.25 21.75 3.48122 21.75 5V19C21.75 20.5188 20.5188 21.75 19 21.75H5C3.48122 21.75 2.25 20.5188 2.25 19V5ZM3.75 17.1985V19C3.75 19.6904 4.30964 20.25 5 20.25H6.80147C5.57124 19.4732 4.52683 18.4288 3.75 17.1985ZM12 20.25C7.44365 20.25 3.75 16.5563 3.75 12C3.75 7.44365 7.44365 3.75 12 3.75C16.5563 3.75 20.25 7.44365 20.25 12C20.25 16.5563 16.5563 20.25 12 20.25ZM17.1985 20.25H19C19.6904 20.25 20.25 19.6904 20.25 19V17.1985C19.4732 18.4288 18.4288 19.4732 17.1985 20.25ZM20.25 6.80147V5C20.25 4.30964 19.6904 3.75 19 3.75H17.1985C18.4288 4.52683 19.4732 5.57124 20.25 6.80147ZM6.80147 3.75C5.57124 4.52683 4.52683 5.57124 3.75 6.80147V5C3.75 4.30964 4.30964 3.75 5 3.75H6.80147Z" fill="black"/>
</svg>
