<svg width="24" height="24" viewBox="0 0 24 24" fill="none" xmlns="http://www.w3.org/2000/svg">
<path fill-rule="evenodd" clip-rule="evenodd" d="M19.4 5.25H16.675C16.3275 3.53832 14.8142 2.25 13 2.25H11C9.18578 2.25 7.67247 3.53832 7.32501 5.25H4.6C3.85442 5.25 3.25 5.85442 3.25 6.6C3.25 8.3397 4.6603 9.75 6.4 9.75H7.25V10C7.25 11.2724 7.75027 12.4279 8.56484 13.2806C5.02248 13.6119 2.25 16.5933 2.25 20.2222C2.25 21.066 2.93401 21.75 3.77778 21.75H20.2222C21.066 21.75 21.75 21.066 21.75 20.2222C21.75 16.5933 18.9775 13.6119 15.4352 13.2806C16.2497 12.4279 16.75 11.2724 16.75 10V9.75H17.6C19.3397 9.75 20.75 8.3397 20.75 6.6C20.75 5.85441 20.1456 5.25 19.4 5.25ZM4.75673 6.75H19.2433C19.1675 7.59097 18.4607 8.25 17.6 8.25H6.4C5.53929 8.25 4.83251 7.59097 4.75673 6.75ZM17.5856 20.25H20.2222C20.2376 20.25 20.25 20.2376 20.25 20.2222C20.25 17.5318 18.3084 15.2949 15.75 14.8361V16.7752C15.8034 16.8298 15.8536 16.8881 15.9 16.95L16.6154 17.9038C16.9952 18.4103 17.27 18.9876 17.4235 19.6017L17.5856 20.25ZM14.25 16.25V14.75H9.75V16.25H14.25ZM8.25 16.7752V14.8361C5.69157 15.2949 3.75 17.5318 3.75 20.2222C3.75 20.2376 3.76244 20.25 3.77778 20.25H6.41443L6.57649 19.6017C6.73004 18.9876 7.00482 18.4103 7.38467 17.9038L8.10001 16.95C8.14644 16.8881 8.19658 16.8298 8.25 16.7752ZM15.122 5.25H8.87803C9.18691 4.37611 10.0203 3.75 11 3.75H13C13.9797 3.75 14.8131 4.37611 15.122 5.25ZM8.75 10V9.75H15.25V10C15.25 11.7949 13.7949 13.25 12 13.25C10.2051 13.25 8.75 11.7949 8.75 10Z" fill="black"/>
</svg>
