<svg width="24" height="24" viewBox="0 0 24 24" fill="none" xmlns="http://www.w3.org/2000/svg">
<path d="M9.70213 4.70156C10.3116 4.09227 11.1381 3.75 11.9999 3.75C12.8617 3.75 13.6882 4.09227 14.2976 4.70156C14.5906 4.9944 15.0654 4.99433 15.3583 4.7014C15.6511 4.40846 15.6511 3.93358 15.3581 3.64074C14.4674 2.75025 13.2594 2.25 11.9999 2.25C10.7403 2.25 9.53238 2.75025 8.64162 3.64074C8.34869 3.93358 8.34862 4.40846 8.64146 4.7014C8.93431 4.99433 9.40919 4.9944 9.70213 4.70156Z" fill="black"/>
<path d="M12 5.25C11.5858 5.25 11.25 5.58579 11.25 6C11.25 6.41421 11.5858 6.75 12 6.75H12.01C12.4242 6.75 12.76 6.41421 12.76 6C12.76 5.58579 12.4242 5.25 12.01 5.25H12Z" fill="black"/>
<path fill-rule="evenodd" clip-rule="evenodd" d="M12.671 11.6646C12.5439 11.4105 12.2842 11.25 12.0002 11.25C11.7161 11.25 11.4564 11.4105 11.3293 11.6646L8.32934 17.6646C8.1441 18.0351 8.29427 18.4856 8.66475 18.6708C9.03524 18.8561 9.48574 18.7059 9.67098 18.3354L9.96369 17.75H14.0366L14.3293 18.3354C14.5146 18.7059 14.9651 18.8561 15.3356 18.6708C15.7061 18.4856 15.8562 18.0351 15.671 17.6646L12.671 11.6646ZM13.2866 16.25H10.7137L12.0002 13.6771L13.2866 16.25Z" fill="black"/>
<path fill-rule="evenodd" clip-rule="evenodd" d="M4.25 11C4.25 9.48122 5.48122 8.25 7 8.25H17C18.5188 8.25 19.75 9.48122 19.75 11V19C19.75 20.5188 18.5188 21.75 17 21.75H7C5.48122 21.75 4.25 20.5188 4.25 19V11ZM7 9.75C6.30964 9.75 5.75 10.3096 5.75 11V19C5.75 19.6904 6.30964 20.25 7 20.25H17C17.6904 20.25 18.25 19.6904 18.25 19V11C18.25 10.3096 17.6904 9.75 17 9.75H7Z" fill="black"/>
</svg>
