<svg width="24" height="24" viewBox="0 0 24 24" fill="none" xmlns="http://www.w3.org/2000/svg">
<path d="M9.70213 4.70156C10.3116 4.09227 11.1381 3.75 11.9999 3.75C12.8617 3.75 13.6882 4.09227 14.2976 4.70156C14.5906 4.9944 15.0654 4.99433 15.3583 4.7014C15.6511 4.40846 15.6511 3.93358 15.3581 3.64074C14.4674 2.75025 13.2594 2.25 11.9999 2.25C10.7403 2.25 9.53238 2.75025 8.64162 3.64074C8.34869 3.93358 8.34862 4.40846 8.64146 4.7014C8.93431 4.99433 9.40919 4.9944 9.70213 4.70156Z" fill="black"/>
<path d="M12 5.25C11.5858 5.25 11.25 5.58579 11.25 6C11.25 6.41421 11.5858 6.75 12 6.75H12.01C12.4242 6.75 12.76 6.41421 12.76 6C12.76 5.58579 12.4242 5.25 12.01 5.25H12Z" fill="black"/>
<path d="M9.64312 11.6141C9.46968 11.3251 9.12468 11.1872 8.7998 11.2772C8.47492 11.3672 8.25 11.6629 8.25 12V18C8.25 18.4142 8.58579 18.75 9 18.75C9.41421 18.75 9.75 18.4142 9.75 18V14.7077L11.3569 17.3859C11.4924 17.6118 11.7366 17.75 12 17.75C12.2634 17.75 12.5076 17.6118 12.6431 17.3859L14.25 14.7077V18C14.25 18.4142 14.5858 18.75 15 18.75C15.4142 18.75 15.75 18.4142 15.75 18V12C15.75 11.6629 15.5251 11.3672 15.2002 11.2772C14.8753 11.1872 14.5303 11.3251 14.3569 11.6141L12 15.5423L9.64312 11.6141Z" fill="black"/>
<path fill-rule="evenodd" clip-rule="evenodd" d="M4.25 11C4.25 9.48122 5.48122 8.25 7 8.25H17C18.5188 8.25 19.75 9.48122 19.75 11V19C19.75 20.5188 18.5188 21.75 17 21.75H7C5.48122 21.75 4.25 20.5188 4.25 19V11ZM7 9.75C6.30964 9.75 5.75 10.3096 5.75 11V19C5.75 19.6904 6.30964 20.25 7 20.25H17C17.6904 20.25 18.25 19.6904 18.25 19V11C18.25 10.3096 17.6904 9.75 17 9.75H7Z" fill="black"/>
</svg>
