<svg width="24" height="24" viewBox="0 0 24 24" fill="none" xmlns="http://www.w3.org/2000/svg">
<path d="M11.9727 1.00098C11.8657 1.00478 11.7608 1.03142 11.665 1.0791L4.66505 4.5791C4.51962 4.65173 4.40173 4.76962 4.32911 4.91504L1.07911 11.415C1.02206 11.5294 0.995163 11.6564 1.00097 11.784C1.00679 11.9117 1.04511 12.0357 1.11232 12.1444C1.17952 12.2531 1.27337 12.3428 1.38497 12.405C1.49658 12.4673 1.62223 12.5 1.75001 12.5H2.75001V22.25C2.75003 22.4489 2.82905 22.6397 2.9697 22.7803C3.11035 22.921 3.3011 23 3.50001 23H7.00001H17H20.5C20.6989 23 20.8897 22.921 21.0303 22.7803C21.171 22.6397 21.25 22.4489 21.25 22.25V12.5H22.25C22.3778 12.5 22.5034 12.4673 22.615 12.405C22.7266 12.3428 22.8205 12.2531 22.8877 12.1444C22.9549 12.0357 22.9932 11.9117 22.999 11.784C23.0048 11.6564 22.978 11.5294 22.9209 11.415L19.6709 4.91504C19.5983 4.76962 19.4804 4.65173 19.335 4.5791L12.335 1.0791C12.2226 1.02316 12.0981 0.996303 11.9727 1.00098ZM12 2.58887L18.4414 5.8086L21.0371 11H20.5C20.3011 11 20.1103 11.079 19.9697 11.2197C19.8291 11.3603 19.75 11.5511 19.75 11.75V21.5H17.75V13.25C17.75 13.0511 17.671 12.8603 17.5303 12.7197C17.3897 12.579 17.1989 12.5 17 12.5H7.00001C6.8011 12.5 6.61035 12.579 6.4697 12.7197C6.32905 12.8603 6.25003 13.0511 6.25001 13.25V21.5H4.25001V11.75C4.24999 11.5511 4.17096 11.3603 4.03031 11.2197C3.88967 11.079 3.69891 11 3.50001 11H2.9629L5.5586 5.8086L12 2.58887ZM10.25 5.5C10.0511 5.50002 9.86035 5.57905 9.7197 5.71969C9.57905 5.86034 9.50003 6.0511 9.50001 6.25V9.75C9.50003 9.94891 9.57905 10.1397 9.7197 10.2803C9.86035 10.421 10.0511 10.5 10.25 10.5H13.75C13.9489 10.5 14.1397 10.421 14.2803 10.2803C14.421 10.1397 14.5 9.94891 14.5 9.75V6.25C14.5 6.0511 14.421 5.86034 14.2803 5.71969C14.1397 5.57905 13.9489 5.50002 13.75 5.5H10.25ZM11 7H13V9H11V7ZM8.95508 14H15.0449L12 16.7402L8.95508 14ZM7.75001 14.9346L10.8789 17.75L7.75001 20.5654V14.9346ZM16.25 14.9346V20.5654L13.1211 17.75L16.25 14.9346ZM12 18.7598L15.0449 21.5H8.95508L12 18.7598Z" fill="black"/>
</svg>
