<svg width="24" height="24" viewBox="0 0 24 24" fill="none" xmlns="http://www.w3.org/2000/svg">
<path d="M11.9999 3.75C11.1381 3.75 10.3116 4.09227 9.70213 4.70156C9.40919 4.9944 8.93431 4.99433 8.64146 4.7014C8.34862 4.40846 8.34869 3.93358 8.64162 3.64074C9.53238 2.75025 10.7403 2.25 11.9999 2.25C13.2594 2.25 14.4674 2.75025 15.3581 3.64074C15.6511 3.93358 15.6511 4.40846 15.3583 4.7014C15.0654 4.99433 14.5906 4.9944 14.2976 4.70156C13.6882 4.09227 12.8617 3.75 11.9999 3.75Z" fill="black"/>
<path d="M11.25 6C11.25 5.58579 11.5858 5.25 12 5.25H12.01C12.4242 5.25 12.76 5.58579 12.76 6C12.76 6.41421 12.4242 6.75 12.01 6.75H12C11.5858 6.75 11.25 6.41421 11.25 6Z" fill="black"/>
<path fill-rule="evenodd" clip-rule="evenodd" d="M7 8.25C5.48122 8.25 4.25 9.48122 4.25 11V19C4.25 20.5188 5.48122 21.75 7 21.75H17C18.5188 21.75 19.75 20.5188 19.75 19V11C19.75 9.48122 18.5188 8.25 17 8.25H7ZM8.7998 11.2772C9.12468 11.1872 9.46968 11.3251 9.64312 11.6141L12 15.5423L14.3569 11.6141C14.5303 11.3251 14.8753 11.1872 15.2002 11.2772C15.5251 11.3672 15.75 11.6629 15.75 12V18C15.75 18.4142 15.4142 18.75 15 18.75C14.5858 18.75 14.25 18.4142 14.25 18V14.7077L12.6431 17.3859C12.5076 17.6118 12.2634 17.75 12 17.75C11.7366 17.75 11.4924 17.6118 11.3569 17.3859L9.75 14.7077V18C9.75 18.4142 9.41421 18.75 9 18.75C8.58579 18.75 8.25 18.4142 8.25 18V12C8.25 11.6629 8.47492 11.3672 8.7998 11.2772Z" fill="black"/>
</svg>
