<svg width="24" height="24" viewBox="0 0 24 24" fill="none" xmlns="http://www.w3.org/2000/svg">
<path d="M11.3915 9.67816C11.3915 10.4683 11.2817 11.2902 11.0725 11.505C10.8817 11.7009 10.2842 12.0897 9.64995 11.505C9.22377 11.112 9.2454 10.4142 9.65 9.9989C9.85383 9.78967 10.6351 9.67952 11.3915 9.67816Z" fill="black"/>
<path fill-rule="evenodd" clip-rule="evenodd" d="M10.823 17.8203L3.48553 10.2895L11.0526 2.5C11.6073 3.16235 12.29 3.78004 13.1061 4.08865C13.6676 4.34325 14.1005 4.8627 14.343 5.42027C14.5864 5.96378 15.02 6.39344 15.5578 6.62382C16.0748 6.84528 16.4963 7.2512 16.7445 7.76665C17.1157 8.66362 17.6954 9.38642 18.4013 10.0423L10.823 17.8203ZM12.0524 8.43596C12.0285 8.43403 11.459 8.39041 10.8004 8.43267C9.80123 8.49693 9.12854 8.72008 8.74386 9.1149C7.86438 10.0176 7.86438 11.4863 8.74386 12.389C9.62311 13.2913 11.0995 13.2913 11.9787 12.389C12.3596 11.998 12.5749 11.3141 12.6369 10.2982C12.678 9.62551 12.6356 9.04434 12.6338 9.01994C12.6105 8.70847 12.3636 8.46045 12.0524 8.43596Z" fill="black"/>
<path d="M9.92805 18.7158L2.59063 11.185L1.67992 12.1197C1.30159 12.508 1.30159 13.1271 1.67993 13.5154L7.6273 19.6196C8.02175 20.0244 8.6731 20.0221 9.06469 19.6145L9.92805 18.7158Z" fill="black"/>
<path d="M19.768 5.48199C19.768 5.91122 19.4201 6.25918 18.991 6.25918C18.5618 6.25918 18.2139 5.91122 18.2139 5.48199C18.2139 5.05276 18.5618 4.7048 18.991 4.7048C19.4201 4.7048 19.768 5.05276 19.768 5.48199Z" fill="black"/>
<path d="M16.359 21.4915C16.7882 21.4915 17.1361 21.1435 17.1361 20.7143C17.1361 20.285 16.7882 19.9371 16.359 19.9371C15.9299 19.9371 15.582 20.285 15.582 20.7143C15.582 21.1435 15.9299 21.4915 16.359 21.4915Z" fill="black"/>
<path d="M22.1497 8.07977C22.1497 8.50901 21.8018 8.85697 21.3727 8.85697C20.9435 8.85697 20.5956 8.50901 20.5956 8.07977C20.5956 7.65054 20.9435 7.30258 21.3727 7.30258C21.8018 7.30258 22.1497 7.65054 22.1497 8.07977Z" fill="black"/>
<path d="M19.2836 21.4738C19.7127 21.4738 20.0606 21.1258 20.0606 20.6966C20.0606 20.2674 19.7127 19.9194 19.2836 19.9194C18.8544 19.9194 18.5065 20.2674 18.5065 20.6966C18.5065 21.1258 18.8544 21.4738 19.2836 21.4738Z" fill="black"/>
<path d="M23 20.6844C23 21.1136 22.6521 21.4616 22.223 21.4616C21.7938 21.4616 21.4459 21.1136 21.4459 20.6844C21.4459 20.2551 21.7938 19.9072 22.223 19.9072C22.6521 19.9072 23 20.2551 23 20.6844Z" fill="black"/>
<path d="M17.8773 18.5496C18.3064 18.5496 18.6543 18.2016 18.6543 17.7724C18.6543 17.3432 18.3064 16.9952 17.8773 16.9952C17.4481 16.9952 17.1002 17.3432 17.1002 17.7724C17.1002 18.2016 17.4481 18.5496 17.8773 18.5496Z" fill="black"/>
<path d="M21.7095 17.7724C21.7095 18.2016 21.3616 18.5496 20.9324 18.5496C20.5033 18.5496 20.1554 18.2016 20.1554 17.7724C20.1554 17.3432 20.5033 16.9952 20.9324 16.9952C21.3616 16.9952 21.7095 17.3432 21.7095 17.7724Z" fill="black"/>
</svg>
