<svg width="24" height="24" viewBox="0 0 24 24" fill="none" xmlns="http://www.w3.org/2000/svg">
<path fill-rule="evenodd" clip-rule="evenodd" d="M9.13027 12.898C8.26282 12.0944 8.1688 10.5174 9.13027 9.54052C9.91075 8.74751 11.834 8.82015 12.4213 8.84234L12.4377 8.84296C12.8085 8.85692 13.1129 9.166 13.1288 9.5368C13.2222 11.7164 12.8489 12.4954 12.4564 12.898C12.0205 13.3452 10.5992 14.2587 9.13027 12.898ZM11.6442 10.3274C11.5339 10.3294 11.4159 10.3337 11.2951 10.3417C10.5591 10.3901 10.2603 10.538 10.2073 10.5909C9.86952 10.9373 9.86952 11.5012 10.2073 11.8477C10.5279 12.1766 11.0592 12.1768 11.3792 11.8477C11.3812 11.8457 11.5741 11.6324 11.6308 10.6921C11.6385 10.5652 11.6425 10.442 11.6442 10.3274Z" fill="black"/>
<path fill-rule="evenodd" clip-rule="evenodd" d="M19.097 10.009L18.2867 9.17779C18.0511 8.93604 17.9023 8.60184 17.7605 8.28332C17.719 8.19028 17.6782 8.09857 17.636 8.0109C17.3173 7.34949 16.7748 6.82807 16.1083 6.54263C15.6901 6.36358 15.442 6.02498 15.2617 5.62249C14.958 4.94458 14.4228 4.40445 13.7548 4.10167C13.7018 4.07763 13.6481 4.05422 13.5944 4.03076C13.3133 3.90809 13.029 3.78402 12.812 3.56154L11.9996 2.72812C11.7086 2.42957 11.2136 2.42957 10.9226 2.72812L1.21362 12.6882C0.928794 12.9803 0.928794 13.4463 1.21362 13.7385L8.31097 21.0193C8.602 21.3178 9.097 21.3178 9.38803 21.0193L19.097 11.0594C19.3819 10.7672 19.3819 10.3012 19.097 10.009ZM8.8495 19.4165L2.8026 13.2133L3.71518 12.2771L9.76212 18.4804L8.8495 19.4165ZM10.8125 17.4028L4.76558 11.1995L11.4611 4.33093C11.8167 4.69571 12.17 5.0353 12.6422 5.24929C13.2267 5.51423 13.682 5.75472 13.9526 6.37994C14.2658 7.07914 14.8211 7.62811 15.5163 7.92577C16.0633 8.16001 16.3029 8.68039 16.5364 9.18762C16.5727 9.26651 16.6089 9.34511 16.6461 9.42224C16.856 9.85801 17.1754 10.1929 17.508 10.5342L10.8125 17.4028Z" fill="black"/>
<path d="M19.8785 6.13197C19.8785 6.54633 19.5425 6.88223 19.128 6.88223C18.7135 6.88223 18.3775 6.54633 18.3775 6.13197C18.3775 5.71762 18.7135 5.38171 19.128 5.38171C19.5425 5.38171 19.8785 5.71762 19.8785 6.13197Z" fill="black"/>
<path d="M16.5861 21.4957C17.0005 21.4957 17.3366 21.1598 17.3366 20.7455C17.3366 20.3311 17.0005 19.9952 16.5861 19.9952C16.1716 19.9952 15.8356 20.3311 15.8356 20.7455C15.8356 21.1598 16.1716 21.4957 16.5861 21.4957Z" fill="black"/>
<path d="M22.1788 8.63969C22.1788 9.05405 21.8428 9.38995 21.4283 9.38995C21.0139 9.38995 20.6779 9.05405 20.6779 8.63969C20.6779 8.22534 21.0139 7.88943 21.4283 7.88943C21.8428 7.88943 22.1788 8.22534 22.1788 8.63969Z" fill="black"/>
<path d="M19.4106 21.4787C19.8251 21.4787 20.1611 21.1428 20.1611 20.7284C20.1611 20.3141 19.8251 19.9781 19.4106 19.9781C18.9962 19.9781 18.6602 20.3141 18.6602 20.7284C18.6602 21.1428 18.9962 21.4787 19.4106 21.4787Z" fill="black"/>
<path d="M23 20.7166C23 21.131 22.664 21.4669 22.2495 21.4669C21.835 21.4669 21.499 21.131 21.499 20.7166C21.499 20.3023 21.835 19.9664 22.2495 19.9664C22.664 19.9664 23 20.3023 23 20.7166Z" fill="black"/>
<path d="M18.0524 18.6558C18.4669 18.6558 18.8029 18.3199 18.8029 17.9056C18.8029 17.4912 18.4669 17.1553 18.0524 17.1553C17.6379 17.1553 17.3019 17.4912 17.3019 17.9056C17.3019 18.3199 17.6379 18.6558 18.0524 18.6558Z" fill="black"/>
<path d="M21.7536 17.9056C21.7536 18.3199 21.4176 18.6558 21.0031 18.6558C20.5886 18.6558 20.2526 18.3199 20.2526 17.9056C20.2526 17.4912 20.5886 17.1553 21.0031 17.1553C21.4176 17.1553 21.7536 17.4912 21.7536 17.9056Z" fill="black"/>
</svg>
