<svg width="24" height="24" viewBox="0 0 24 24" fill="none" xmlns="http://www.w3.org/2000/svg">
<path d="M5 2.5C3.345 2.5 2 3.845 2 5.5V6H8V5.5C8 3.845 6.655 2.5 5 2.5ZM14.7656 3.99023C14.7182 3.98901 14.6708 3.99228 14.624 4H12.25C11.5682 4 11 4.5682 11 5.25V8.12695C10.9868 8.20747 10.9868 8.2896 11 8.37012V8.55957C10.3833 9.19114 10 10.0516 10 10.998C10 12.9211 11.575 14.4961 13.498 14.4961C15.0731 14.4961 16.4127 13.439 16.8467 12H18.8848C18.6919 12.2157 18.5655 12.4825 18.5208 12.7683C18.4761 13.0542 18.515 13.3469 18.6329 13.6111C18.7508 13.8753 18.9426 14.0998 19.1851 14.2575C19.4277 14.4153 19.7107 14.4995 20 14.5C20.3309 14.4994 20.6524 14.3893 20.9143 14.187C21.1761 13.9847 21.3638 13.7014 21.4479 13.3814C21.532 13.0613 21.508 12.7224 21.3794 12.4175C21.2509 12.1125 21.0251 11.8586 20.7373 11.6953C20.8846 11.5967 21.0227 11.4841 21.1357 11.3428C21.1361 11.3428 21.1364 11.3428 21.1367 11.3428L21.6172 10.7422H21.6162C21.8644 10.4319 22 10.046 22 9.64941V8.75C22 8.0682 21.4318 7.5 20.75 7.5H19V6.5C19 6.21748 19.2175 6 19.5 6C19.5663 6.00094 19.632 5.9887 19.6935 5.96399C19.755 5.93928 19.811 5.9026 19.8582 5.85608C19.9053 5.80956 19.9428 5.75412 19.9684 5.69299C19.994 5.63186 20.0071 5.56626 20.0071 5.5C20.0071 5.43374 19.994 5.36814 19.9684 5.30701C19.9428 5.24588 19.9053 5.19044 19.8582 5.14392C19.811 5.0974 19.755 5.06072 19.6935 5.03601C19.632 5.0113 19.5663 4.99906 19.5 5C18.6775 5 18 5.67752 18 6.5V7.5H16.2598L15.7266 5.5H15.75C15.8494 5.50141 15.9481 5.48304 16.0403 5.44598C16.1325 5.40892 16.2164 5.3539 16.2872 5.28412C16.358 5.21434 16.4142 5.13118 16.4526 5.03949C16.4909 4.9478 16.5107 4.84939 16.5107 4.75C16.5107 4.65061 16.4909 4.5522 16.4526 4.46051C16.4142 4.36882 16.358 4.28566 16.2872 4.21588C16.2164 4.1461 16.1325 4.09108 16.0403 4.05402C15.9481 4.01696 15.8494 3.99859 15.75 4H14.8662C14.8329 3.99449 14.7993 3.99122 14.7656 3.99023ZM20 14.5H19.3389L16.6465 21.5H20.249C21.2155 21.5 21.999 20.7165 21.999 19.75V15.25C21.999 14.836 21.663 14.5 21.249 14.5H20ZM12.5 5.5H14.1738L14.707 7.5H12.5V5.5ZM2 7V13.5H8V7H2ZM13.498 9C14.6104 9 15.4961 9.8857 15.4961 10.998C15.4961 12.1104 14.6104 12.9961 13.498 12.9961C12.3857 12.9961 11.5 12.1104 11.5 10.998C11.5 10.399 11.762 9.87148 12.1729 9.50684C12.2109 9.48118 12.2465 9.45209 12.2793 9.41992C12.6163 9.16025 13.0347 9 13.498 9ZM16.3623 9H20.5V9.64941C20.5 9.70681 20.4811 9.75997 20.4453 9.80469L19.9648 10.4062C19.9165 10.4667 19.8466 10.5 19.7695 10.5H16.9561C16.8763 9.94894 16.6694 9.438 16.3623 9ZM13.5 10C12.9475 10 12.5 10.4475 12.5 11C12.5 11.5525 12.9475 12 13.5 12C14.0525 12 14.5 11.5525 14.5 11C14.5 10.4475 14.0525 10 13.5 10ZM2 14.5V19.8457C2.0025 20.7547 2.74475 21.4965 3.65625 21.499H4.4834L7.17578 14.5H2ZM8.24707 14.5L5.55566 21.499H10.0752L12.7676 14.5H8.24707ZM13.8389 14.5L11.1475 21.499L15.5752 21.5L18.2676 14.5H13.8389Z" fill="black"/>
</svg>
