<svg width="24" height="24" viewBox="0 0 24 24" fill="none" xmlns="http://www.w3.org/2000/svg">
<path d="M6.12481 6.05846C8.18695 4.26961 11.3898 3.25 15.986 3.25H20C20.4142 3.25 20.75 3.58579 20.75 4V6C20.75 6.01433 20.7496 6.02866 20.7488 6.04297C20.5774 9.02999 19.9698 11.4498 18.9614 13.3514C18.7673 13.7173 18.3134 13.8567 17.9474 13.6626C17.5815 13.4685 17.4421 13.0146 17.6362 12.6486C18.5135 10.9942 19.0854 8.8074 19.25 5.97835V4.75H15.986C11.5822 4.75 8.7921 5.73039 7.10773 7.19154C5.44197 8.63655 4.7428 10.6529 4.73602 13.0011V13.0059C4.73602 13.7203 4.73601 14.8922 5.50988 16.1924C5.75973 15.6553 6.04736 15.1393 6.37597 14.6464C7.58726 12.8295 9.32845 11.3666 11.6954 10.3146C12.0739 10.1464 12.5171 10.3168 12.6854 10.6953C12.8536 11.0739 12.6831 11.5171 12.3046 11.6853C10.1716 12.6333 8.66276 13.9204 7.62404 15.4785C7.25614 16.0303 6.94387 16.6212 6.68322 17.25H9.00002C9.66221 17.25 10.2968 17.2111 10.9022 17.1315C11.2241 17.0892 11.5376 17.0354 11.8425 16.9699C12.2474 16.883 12.6463 17.1408 12.7332 17.5458C12.8202 17.9507 12.5624 18.3495 12.1574 18.4365C11.8111 18.5109 11.4576 18.5714 11.0977 18.6187C10.421 18.7076 9.72068 18.75 9.00002 18.75H6.17626C5.97839 19.4856 5.83643 20.2637 5.74542 21.0828C5.69968 21.4944 5.32886 21.7911 4.91718 21.7454C4.5055 21.6996 4.20885 21.3288 4.25459 20.9171C4.37234 19.8574 4.57123 18.8417 4.86609 17.8791C3.23906 15.8839 3.23602 13.9546 3.23602 13L3.23603 12.9979C3.24345 10.3465 4.04431 7.86324 6.12481 6.05846Z" fill="black"/>
<path fill-rule="evenodd" clip-rule="evenodd" d="M17.2487 14.4887C17.1067 14.3364 16.9078 14.2499 16.6995 14.25C16.4912 14.2501 16.2924 14.3368 16.1506 14.4894L14.2131 16.5737C14.2054 16.582 14.1979 16.5904 14.1906 16.599C13.7935 17.0669 13.5424 17.6381 13.4714 18.2452C13.4004 18.8525 13.5132 19.4653 13.7941 20.0095C14.0748 20.5534 14.5102 21.0037 15.0441 21.3102C15.5778 21.6166 16.1894 21.7678 16.8064 21.7483C17.4233 21.7289 18.0239 21.5395 18.5364 21.1995C19.0491 20.8594 19.4536 20.3818 19.6969 19.8205C19.9404 19.2588 20.011 18.6398 19.8987 18.0387C19.7869 17.4404 19.4995 16.8893 19.0752 16.4493L17.2487 14.4887ZM15.3244 17.5814L16.7006 16.1009L17.9824 17.4768L17.9926 17.4874C18.2188 17.7209 18.3671 18.0084 18.4242 18.3142C18.4813 18.6198 18.4458 18.9351 18.3207 19.2239C18.1953 19.513 17.9839 19.766 17.7073 19.9495C17.4303 20.1332 17.1012 20.2383 16.7591 20.2491C16.417 20.2599 16.0808 20.1757 15.7909 20.0093C15.5014 19.8431 15.2723 19.603 15.127 19.3216C14.9819 19.0404 14.9252 18.7276 14.9612 18.4195C14.9967 18.1161 15.1212 17.8253 15.3244 17.5814Z" fill="black"/>
</svg>
