<svg width="24" height="24" viewBox="0 0 24 24" fill="none" xmlns="http://www.w3.org/2000/svg">
<path fill-rule="evenodd" clip-rule="evenodd" d="M18.5561 12.75C18.9906 12.7502 19.4081 12.9233 19.7153 13.2305C19.9053 13.4207 20.0436 13.6531 20.1216 13.9053C20.6012 14.1974 21.0143 14.5897 21.3276 15.0596C21.7162 15.6426 21.9393 16.3207 21.9722 17.0206C21.9727 17.0322 21.9731 17.044 21.9731 17.0557V18.3311C21.9958 18.4789 22.0492 18.6205 22.1323 18.7452C22.2215 18.8789 22.3411 18.9902 22.4809 19.0694C22.777 19.2373 22.923 19.584 22.8364 19.9131C22.7497 20.2423 22.4521 20.4724 22.1118 20.4727H20.6147C20.5494 20.912 20.3465 21.3229 20.0288 21.6407C19.6381 22.0311 19.1075 22.25 18.5552 22.25C18.003 22.2499 17.473 22.031 17.0825 21.6407C16.7648 21.3229 16.5629 20.912 16.4975 20.4727H15.0005C14.6599 20.4727 14.3617 20.2424 14.2749 19.9131C14.1883 19.5838 14.335 19.2372 14.6313 19.0694C14.771 18.9901 14.8909 18.8788 14.98 18.7452C15.063 18.6205 15.1165 18.4789 15.1391 18.3311V17.0557C15.1391 17.044 15.1396 17.0322 15.1401 17.0206C15.173 16.3206 15.396 15.6426 15.7847 15.0596C16.0979 14.5899 16.5103 14.1973 16.9897 13.9053C17.0677 13.6529 17.2068 13.4208 17.397 13.2305C17.7043 12.9233 18.1216 12.75 18.5561 12.75ZM18.5561 14.25C18.5194 14.25 18.4835 14.2652 18.4575 14.2911C18.4317 14.317 18.4175 14.3521 18.4175 14.3887C18.4175 14.6786 18.2497 14.9434 17.9878 15.0674C17.6006 15.2505 17.2703 15.5354 17.0327 15.8916C16.7972 16.2449 16.6611 16.6553 16.6391 17.0791V18.3887C16.6391 18.4188 16.6379 18.4497 16.6343 18.4795C16.6139 18.6479 16.5751 18.8129 16.522 18.9727H20.5903C20.5371 18.8128 20.4984 18.6479 20.478 18.4795C20.4744 18.4496 20.4731 18.4188 20.4731 18.3887V17.0909L20.4604 16.9307C20.4176 16.56 20.2874 16.2035 20.0796 15.8916C19.842 15.5354 19.5115 15.2506 19.1245 15.0674C18.8623 14.9435 18.6948 14.6787 18.6948 14.3887C18.6947 14.3521 18.6796 14.317 18.6538 14.2911C18.6279 14.2652 18.5927 14.2502 18.5561 14.25Z" fill="black"/>
<path d="M9.66258 3.91118C10.4047 1.69647 13.5963 1.6964 14.3384 3.91118L14.4048 4.14067L14.438 4.25005C14.4777 4.35711 14.5362 4.45674 14.6108 4.54399C14.7104 4.66032 14.8365 4.75193 14.978 4.81059C15.1196 4.86917 15.2735 4.89372 15.4263 4.88188C15.579 4.86997 15.7271 4.82199 15.8579 4.74223C18.072 3.39375 20.6071 5.9275 19.2593 8.14263C19.1797 8.27334 19.1315 8.4217 19.1196 8.57427C19.1078 8.72705 19.1323 8.88092 19.1909 9.02251C19.2495 9.16402 19.3412 9.29004 19.4575 9.3897C19.5447 9.46429 19.6444 9.52276 19.7514 9.56255L19.8608 9.59673L20.0093 9.63677C20.7359 9.858 21.2522 10.3523 21.5259 10.9502C21.6977 11.3266 21.5319 11.772 21.1557 11.9444C20.7792 12.1167 20.3341 11.9507 20.1616 11.5743C20.0536 11.3383 19.848 11.1374 19.5054 11.0538C19.1277 10.9617 18.7762 10.7813 18.4809 10.5284C18.1856 10.2753 17.954 9.95602 17.8052 9.59673C17.6563 9.23712 17.5945 8.8471 17.6245 8.45903C17.6545 8.07106 17.7756 7.69569 17.978 7.36333C18.4923 6.5182 17.5714 5.55594 16.7212 5.97856L16.6391 6.02348C16.3068 6.22615 15.9306 6.34778 15.5425 6.37798C15.1543 6.40808 14.7635 6.34531 14.4038 6.19634C14.0442 6.04728 13.7243 5.81531 13.4712 5.51958C13.2181 5.22385 13.0385 4.87242 12.9468 4.49419L12.9204 4.40337C12.6282 3.53238 11.3729 3.53245 11.0806 4.40337L11.0542 4.49419C10.6706 6.07148 8.91222 6.84491 7.4995 6.09966L7.36375 6.02251C6.49125 5.49132 5.49345 6.48988 6.02391 7.36138L6.09617 7.48833C6.25554 7.78822 6.35204 8.11843 6.3784 8.45806C6.4085 8.84634 6.3458 9.23693 6.19676 9.59673C6.04771 9.95634 5.81573 10.2762 5.52 10.5293C5.22435 10.7823 4.87274 10.962 4.49461 11.0538C3.53402 11.2868 3.50356 12.6179 4.40379 12.92L4.49461 12.9463L4.63524 12.9844C4.95976 13.084 5.26144 13.2502 5.52 13.4717C5.81523 13.7248 6.04696 14.0441 6.19578 14.4034C6.34464 14.7629 6.40647 15.1531 6.37645 15.5411C6.34642 15.929 6.22525 16.3044 6.02293 16.6368C5.49174 17.5093 6.49031 18.5071 7.3618 17.9766L7.48875 17.9043C7.78861 17.745 8.1189 17.6485 8.45848 17.6221C8.84669 17.5921 9.23743 17.6547 9.59715 17.8038C9.95671 17.9529 10.2767 18.1848 10.5298 18.4805C10.7827 18.7762 10.9625 19.1277 11.0542 19.5059C11.2031 20.1195 11.8022 20.3772 12.3374 20.1954C12.7295 20.0624 13.1553 20.2721 13.2886 20.6641C13.4215 21.056 13.2116 21.4819 12.8198 21.6153C11.595 22.0314 9.98735 21.4716 9.59618 19.8594C9.5601 19.7107 9.48952 19.5724 9.39012 19.4561C9.29056 19.3398 9.16434 19.2482 9.02293 19.1895C8.8814 19.1309 8.72743 19.1064 8.57469 19.1182C8.42192 19.1301 8.27391 19.1781 8.14305 19.2579C5.92876 20.6068 3.39349 18.0727 4.74168 15.8575C4.8212 15.7268 4.86946 15.5783 4.88133 15.4258C4.89315 15.2731 4.86861 15.1191 4.81004 14.9776C4.75146 14.8361 4.65969 14.7101 4.54344 14.6104C4.42742 14.5111 4.28946 14.4396 4.1411 14.4034C1.62086 13.792 1.62086 10.2072 4.1411 9.59575L4.25047 9.56255C4.35745 9.52278 4.45722 9.46425 4.54442 9.3897C4.66074 9.29008 4.75236 9.16398 4.81102 9.02251C4.86967 8.88089 4.89415 8.72709 4.88231 8.57427C4.87046 8.42146 4.82241 8.2735 4.74266 8.14263C3.39371 5.92834 5.92778 3.39306 8.14305 4.74126L8.25145 4.7979C8.79873 5.04537 9.4495 4.74145 9.59618 4.14067L9.66258 3.91118Z" fill="black"/>
<path fill-rule="evenodd" clip-rule="evenodd" d="M12.0005 8.25005C14.0713 8.25031 15.7505 9.92914 15.7505 12C15.7505 14.0709 14.0713 15.7498 12.0005 15.75C9.92941 15.75 8.25049 14.0711 8.25047 12C8.25047 9.92898 9.9294 8.25005 12.0005 8.25005ZM12.0005 9.75005C10.7578 9.75005 9.75047 10.7574 9.75047 12C9.75049 13.2427 10.7578 14.25 12.0005 14.25C13.2429 14.2498 14.2505 13.2425 14.2505 12C14.2505 10.7576 13.2429 9.75031 12.0005 9.75005Z" fill="black"/>
</svg>
