<svg width="24" height="24" viewBox="0 0 24 24" fill="none" xmlns="http://www.w3.org/2000/svg">
<path fill-rule="evenodd" clip-rule="evenodd" d="M11.75 12.625C13.4069 12.625 14.75 11.2819 14.75 9.625C14.75 7.96815 13.4069 6.625 11.75 6.625C10.0931 6.625 8.75 7.96815 8.75 9.625C8.75 11.2819 10.0931 12.625 11.75 12.625ZM11.75 11.125C12.5784 11.125 13.25 10.4534 13.25 9.625C13.25 8.79657 12.5784 8.125 11.75 8.125C10.9216 8.125 10.25 8.79657 10.25 9.625C10.25 10.4534 10.9216 11.125 11.75 11.125Z" fill="black"/>
<path fill-rule="evenodd" clip-rule="evenodd" d="M11 3C9.79545 3.12498 8.47102 3.55344 7.3676 4.38007C6.00048 5.40426 5 7.02422 5 9.31497C5 11.6139 6.13065 13.5273 7.4489 14.9793C8.76413 16.4279 10.3269 17.4863 11.3591 18.0996C11.4768 18.1725 11.6124 18.2112 11.75 18.2113C11.8876 18.2112 12.0232 18.1725 12.1409 18.0996C13.1731 17.4863 14.7359 16.4279 16.0511 14.9793C17.3693 13.5273 18.5 11.6139 18.5 9.31497C18.5 7.02422 17.4995 5.40426 16.1324 4.38007C15.029 3.55344 13.7045 3.12498 12.5 3H11ZM11.75 4.4856C10.6304 4.4856 9.29398 4.83127 8.2574 5.60783C7.24952 6.36289 6.5 7.53888 6.5 9.31497C6.5 11.0829 7.36934 12.6432 8.5511 13.9449C9.58489 15.0835 10.8111 15.9711 11.75 16.5595C12.6889 15.9711 13.9151 15.0835 14.9489 13.9449C16.1307 12.6432 17 11.0829 17 9.31497C17 7.53888 16.2505 6.36289 15.2426 5.60783C14.206 4.83127 12.8696 4.4856 11.75 4.4856Z" fill="black"/>
<path d="M6.75 16.5C6.49924 16.5 6.26506 16.6253 6.12596 16.834L4.12596 19.834C3.97254 20.0641 3.95823 20.36 4.08875 20.6039C4.21926 20.8478 4.4734 21 4.75 21H18.75C19.0266 21 19.2807 20.8478 19.4113 20.6039C19.5418 20.36 19.5275 20.0641 19.374 19.834L17.374 16.834C17.2349 16.6253 17.0008 16.5 16.75 16.5H15.25C14.8358 16.5 14.5 16.8358 14.5 17.25C14.5 17.6642 14.8358 18 15.25 18H16.3486L17.3486 19.5H6.15139L7.15139 18H8.25C8.66421 18 9 17.6642 9 17.25C9 16.8358 8.66421 16.5 8.25 16.5H6.75Z" fill="black"/>
</svg>
