<svg width="24" height="24" viewBox="0 0 24 24" fill="none" xmlns="http://www.w3.org/2000/svg">
<path fill-rule="evenodd" clip-rule="evenodd" d="M7.3676 4.38007C8.47102 3.55344 9.79545 3.12498 11 3H12.5C13.7045 3.12498 15.029 3.55344 16.1324 4.38007C17.4995 5.40426 18.5 7.02422 18.5 9.31497C18.5 11.6139 17.3693 13.5273 16.0511 14.9793C14.7359 16.4279 13.1731 17.4863 12.1409 18.0996C12.0232 18.1725 11.8876 18.2112 11.75 18.2113C11.6124 18.2112 11.4768 18.1725 11.3591 18.0996C10.3269 17.4863 8.76413 16.4279 7.4489 14.9793C6.13065 13.5273 5 11.6139 5 9.31497C5 7.02422 6.00048 5.40426 7.3676 4.38007ZM13.25 9.625C13.25 10.4534 12.5784 11.125 11.75 11.125C10.9216 11.125 10.25 10.4534 10.25 9.625C10.25 8.79657 10.9216 8.125 11.75 8.125C12.5784 8.125 13.25 8.79657 13.25 9.625Z" fill="black"/>
<path d="M6.12596 16.834C6.26506 16.6253 6.49924 16.5 6.75 16.5H8.25C8.66421 16.5 9 16.8358 9 17.25C9 17.6642 8.66421 18 8.25 18H7.15139L6.15139 19.5H17.3486L16.3486 18H15.25C14.8358 18 14.5 17.6642 14.5 17.25C14.5 16.8358 14.8358 16.5 15.25 16.5H16.75C17.0008 16.5 17.2349 16.6253 17.374 16.834L19.374 19.834C19.5275 20.0641 19.5418 20.36 19.4113 20.6039C19.2807 20.8478 19.0266 21 18.75 21H4.75C4.4734 21 4.21926 20.8478 4.08875 20.6039C3.95823 20.36 3.97254 20.0641 4.12596 19.834L6.12596 16.834Z" fill="black"/>
</svg>
