<svg width="24" height="24" viewBox="0 0 24 24" fill="none" xmlns="http://www.w3.org/2000/svg">
<path fill-rule="evenodd" clip-rule="evenodd" d="M18 6.525C16.7574 6.525 15.75 7.53236 15.75 8.775C15.75 9.18921 15.4142 9.525 15 9.525C14.5858 9.525 14.25 9.18921 14.25 8.775C14.25 6.70393 15.9289 5.025 18 5.025C20.0711 5.025 21.75 6.70393 21.75 8.775C21.75 10.8461 20.0711 12.525 18 12.525H3C2.58579 12.525 2.25 12.1892 2.25 11.775C2.25 11.3608 2.58579 11.025 3 11.025H18C19.2426 11.025 20.25 10.0176 20.25 8.775C20.25 7.53236 19.2426 6.525 18 6.525Z" fill="black"/>
<path fill-rule="evenodd" clip-rule="evenodd" d="M8.6 4.575C7.60589 4.575 6.8 5.38089 6.8 6.375C6.8 6.70637 6.53137 6.975 6.2 6.975C5.86863 6.975 5.6 6.70637 5.6 6.375C5.6 4.71815 6.94315 3.375 8.6 3.375C10.2569 3.375 11.6 4.71815 11.6 6.375C11.6 8.03186 10.2569 9.375 8.6 9.375H3C2.66863 9.375 2.4 9.10637 2.4 8.775C2.4 8.44363 2.66863 8.175 3 8.175H8.6C9.59411 8.175 10.4 7.36911 10.4 6.375C10.4 5.38089 9.59411 4.575 8.6 4.575Z" fill="black"/>
<path fill-rule="evenodd" clip-rule="evenodd" d="M13.4 19.325C12.323 19.325 11.45 18.452 11.45 17.375C11.45 17.016 11.159 16.725 10.8 16.725C10.441 16.725 10.15 17.016 10.15 17.375C10.15 19.1699 11.6051 20.625 13.4 20.625C15.1949 20.625 16.65 19.1699 16.65 17.375C16.65 15.5801 15.1949 14.125 13.4 14.125H3C2.64101 14.125 2.35 14.416 2.35 14.775C2.35 15.134 2.64101 15.425 3 15.425H13.4C14.477 15.425 15.35 16.298 15.35 17.375C15.35 18.452 14.477 19.325 13.4 19.325Z" fill="black"/>
</svg>
