<svg width="24" height="24" viewBox="0 0 24 24" fill="none" xmlns="http://www.w3.org/2000/svg">
<path fill-rule="evenodd" clip-rule="evenodd" d="M11.1006 3C9.78284 3 8.64366 3.7582 8.09292 4.86059C6.88262 5.21933 6 6.3389 6 7.6656C6 9.28121 7.30971 10.5909 8.92532 10.5909L8.93692 10.5909H14.1345L14.1461 10.5909C15.7617 10.5909 17.0714 9.28121 17.0714 7.6656C17.0714 6.04999 15.7617 4.74028 14.1461 4.74028C14.1127 4.74028 14.0793 4.74084 14.0461 4.74196C13.4747 3.70406 12.3706 3 11.1006 3Z" fill="black"/>
<path d="M16.5873 12.625C15.7026 12.625 15.0579 13.1022 14.6881 13.5021C14.2575 13.9677 14.1748 14.5517 14.1748 14.9752C14.1748 15.3986 14.2575 15.9826 14.6881 16.4482C15.0579 16.8481 15.7026 17.3253 16.5873 17.3253C16.8452 17.3253 17.0895 17.4659 17.2916 17.6844C17.3329 17.7291 17.3915 17.8453 17.3915 18.1087C17.3915 18.3721 17.3329 18.4883 17.2916 18.533C17.0895 18.7515 16.8452 18.8921 16.5873 18.8921C16.3931 18.8921 16.21 18.815 16.0382 18.6779C15.8598 18.5354 15.7409 18.3638 15.6982 18.2806C15.4996 17.8936 15.0165 17.7368 14.6193 17.9303C14.2221 18.1238 14.061 18.5943 14.2597 18.9813C14.3956 19.2462 14.652 19.5969 15.0187 19.8896C15.392 20.1877 15.9237 20.4589 16.5873 20.4589C17.472 20.4589 18.1166 19.9816 18.4865 19.5818C18.9171 19.1162 18.9998 18.5322 18.9998 18.1087C18.9998 17.6852 18.9171 17.1012 18.4865 16.6356C18.1166 16.2358 17.472 15.7585 16.5873 15.7585C16.3294 15.7585 16.0851 15.618 15.883 15.3995C15.8416 15.3548 15.7831 15.2386 15.7831 14.9752C15.7831 14.7117 15.8416 14.5956 15.883 14.5508C16.0851 14.3323 16.3294 14.1918 16.5873 14.1918C16.7814 14.1918 16.9646 14.2688 17.1363 14.4059C17.3147 14.5484 17.4336 14.72 17.4764 14.8032C17.675 15.1902 18.158 15.3471 18.5553 15.1536C18.9525 14.9601 19.1135 14.4895 18.9149 14.1026C18.7789 13.8376 18.5226 13.487 18.1559 13.1942C17.7826 12.8961 17.2509 12.625 16.5873 12.625Z" fill="black"/>
<path d="M6.60847 13.7096C6.60847 13.2289 6.2484 12.8392 5.80424 12.8392C5.36007 12.8392 5 13.2289 5 13.7096V19.8026C5 20.2833 5.36007 20.673 5.80424 20.673C6.2484 20.673 6.60847 20.2833 6.60847 19.8026V17.8768H9.82542V19.8026C9.82542 20.2833 10.1855 20.673 10.6297 20.673C11.0738 20.673 11.4339 20.2833 11.4339 19.8026V13.7096C11.4339 13.2289 11.0738 12.8392 10.6297 12.8392C10.1855 12.8392 9.82542 13.2289 9.82542 13.7096V16.31H6.60847V13.7096Z" fill="black"/>
<path d="M12.7036 19.588C12.6518 19.651 12.6312 19.7357 12.6312 19.7877C12.6312 19.9534 12.478 20.0877 12.289 20.0877C12.1 20.0877 11.9468 19.9534 11.9468 19.7877C11.9468 19.6397 11.9946 19.4244 12.1481 19.2374C12.3142 19.0352 12.5881 18.8877 12.9734 18.8877C13.3587 18.8877 13.6325 19.0352 13.7986 19.2374C13.9522 19.4244 14 19.6397 14 19.7877C14 20.0593 13.8769 20.3199 13.6578 20.512L12.7729 21.2877H13.6578C13.8468 21.2877 14 21.422 14 21.5877C14 21.7534 13.8468 21.8877 13.6578 21.8877H12.5309C12.2083 21.8877 11.9468 21.6584 11.9468 21.3756C11.9468 21.2397 12.0083 21.1095 12.1179 21.0134L13.1738 20.0877C13.2646 20.0081 13.3156 19.9002 13.3156 19.7877C13.3156 19.7357 13.295 19.651 13.2432 19.588C13.204 19.5402 13.1356 19.4877 12.9734 19.4877C12.8112 19.4877 12.7428 19.5402 12.7036 19.588Z" fill="black"/>
</svg>
