<svg width="24" height="24" viewBox="0 0 24 24" fill="none" xmlns="http://www.w3.org/2000/svg">
<path d="M4.75 3.5C4.05964 3.5 3.5 4.05964 3.5 4.75V5.75C3.5 6.16421 3.16421 6.5 2.75 6.5C2.33579 6.5 2 6.16421 2 5.75V4.75C2 3.23122 3.23122 2 4.75 2H5.75C6.16421 2 6.5 2.33579 6.5 2.75C6.5 3.16421 6.16421 3.5 5.75 3.5H4.75Z" fill="black"/>
<path d="M18.75 3.5C19.4404 3.5 20 4.05964 20 4.75V5.75C20 6.16421 20.3358 6.5 20.75 6.5C21.1642 6.5 21.5 6.16421 21.5 5.75V4.75C21.5 3.23122 20.2688 2 18.75 2H17.75C17.3358 2 17 2.33579 17 2.75C17 3.16421 17.3358 3.5 17.75 3.5H18.75Z" fill="black"/>
<path d="M3.5 18.75C3.5 19.4404 4.05964 20 4.75 20H5.75C6.16421 20 6.5 20.3358 6.5 20.75C6.5 21.1642 6.16421 21.5 5.75 21.5H4.75C3.23122 21.5 2 20.2688 2 18.75V17.75C2 17.3358 2.33579 17 2.75 17C3.16421 17 3.5 17.3358 3.5 17.75V18.75Z" fill="black"/>
<path d="M18.75 20C19.4404 20 20 19.4404 20 18.75V17.75C20 17.3358 20.3358 17 20.75 17C21.1642 17 21.5 17.3358 21.5 17.75V18.75C21.5 20.2688 20.2688 21.5 18.75 21.5H17.75C17.3358 21.5 17 21.1642 17 20.75C17 20.3358 17.3358 20 17.75 20H18.75Z" fill="black"/>
<path d="M7.45497 7.53627C8.9661 6.22544 11.2876 5.5 14.5601 5.5H17.3934C17.8076 5.5 18.1434 5.83579 18.1434 6.25V7.66167C18.1434 7.67601 18.143 7.69034 18.1422 7.70465C17.9596 10.8864 17.0792 13.2083 15.5552 14.7329C14.0239 16.2647 11.9534 16.8817 9.629 16.8817C9.49755 16.8817 9.40342 16.7547 9.44637 16.6304C9.61709 16.1364 9.83231 15.6989 10.0906 15.3114C10.6259 14.5086 11.4244 13.8018 12.6616 13.252C12.6909 13.239 12.7193 13.225 12.7471 13.2102C13.0554 13.0458 13.3496 12.7712 13.3496 12.4219C13.3496 12.0077 13.0138 11.6719 12.5996 11.6719C12.4755 11.6719 12.3585 11.702 12.2554 11.7554L11.96 11.8809C10.4888 12.5347 9.55025 13.4173 8.84245 14.479C8.75771 14.6061 8.67721 14.7364 8.60087 14.8697L8.5897 14.8899C8.29542 15.4081 8.06352 15.9734 7.88865 16.5847L7.8847 16.5977C7.73013 17.1412 7.62052 17.7211 7.55212 18.3367C7.50638 18.7484 7.13556 19.045 6.72388 18.9993C6.3122 18.9535 6.01555 18.5827 6.06129 18.171C6.14585 17.41 6.2891 16.678 6.50249 15.9824C6.52302 15.9021 6.4956 15.8171 6.43401 15.7607C5.74197 15.1276 5.31765 14.0607 5.34304 12.9243C5.3399 12.8045 5.33984 12.6967 5.33984 12.6025L5.33985 12.6004C5.34521 10.6844 5.92547 8.86304 7.45497 7.53627Z" fill="black"/>
</svg>
