<svg width="24" height="24" viewBox="0 0 24 24" fill="none" xmlns="http://www.w3.org/2000/svg">
<path d="M4.58579 4.58579C4.96086 4.21071 5.46957 4 6 4H16C16.5304 4 17.0391 4.21071 17.4142 4.58579C17.7893 4.96086 18 5.46957 18 6V7C18 7.55228 18.4477 8 19 8C19.5523 8 20 7.55228 20 7V6C20 4.93913 19.5786 3.92172 18.8284 3.17157C18.0783 2.42143 17.0609 2 16 2H6C4.93913 2 3.92172 2.42143 3.17157 3.17157C2.42143 3.92172 2 4.93913 2 6V16C2 17.0609 2.42143 18.0783 3.17157 18.8284C3.92172 19.5786 4.93913 20 6 20H11.5C12.0523 20 12.5 19.5523 12.5 19C12.5 18.4477 12.0523 18 11.5 18H6C5.46957 18 4.96086 17.7893 4.58579 17.4142C4.21071 17.0391 4 16.5304 4 16V14.4121L7.69967 10.7124C8.01097 10.4153 8.28816 10.3281 8.5 10.3281C8.71183 10.3281 8.98903 10.4153 9.30033 10.7124L10.7929 12.205C11.1834 12.5955 11.8166 12.5955 12.2071 12.205C12.5976 11.8145 12.5976 11.1813 12.2071 10.7908L10.7071 9.29077L10.6934 9.27731C10.0792 8.68632 9.32274 8.32812 8.5 8.32812C7.67726 8.32812 6.92076 8.68632 6.30661 9.27731L6.29289 9.29077L4 11.5837V6C4 5.46957 4.21071 4.96086 4.58579 4.58579Z" fill="black"/>
<path d="M14 6C13.4477 6 13 6.44772 13 7C13 7.55228 13.4477 8 14 8H14.01C14.5623 8 15.01 7.55228 15.01 7C15.01 6.44772 14.5623 6 14.01 6H14Z" fill="black"/>
<path fill-rule="evenodd" clip-rule="evenodd" d="M21.7501 15.0001C21.7501 16.9498 20.4507 18.7364 18.2501 20.3808V21.5C18.2501 21.9142 17.9143 22.25 17.5001 22.25C17.0859 22.25 16.7501 21.9142 16.7501 21.5V20.381C14.5492 18.7365 13.2498 16.9499 13.2498 15.0001C13.2498 12.9644 14.6662 11.1065 17.0461 9.40264C17.0987 9.36261 17.1559 9.33022 17.216 9.30574C17.3075 9.26822 17.4039 9.24994 17.4998 9.25C17.5957 9.24992 17.6923 9.26819 17.7839 9.30574C17.8439 9.33022 17.9011 9.36261 17.9538 9.40264C20.3336 11.1065 21.7501 12.9644 21.7501 15.0001ZM17.4999 10.9325C19.4571 12.4308 20.2501 13.7933 20.2501 15.0001C20.2501 16.0389 19.6624 17.1933 18.2501 18.4503V15.5C18.2501 15.0858 17.9143 14.75 17.5001 14.75C17.0859 14.75 16.7501 15.0858 16.7501 15.5V18.4506C15.3375 17.1934 14.7498 16.039 14.7498 15.0001C14.7498 13.7933 15.5427 12.4308 17.4999 10.9325Z" fill="black"/>
</svg>
