<svg width="24" height="24" viewBox="0 0 24 24" fill="none" xmlns="http://www.w3.org/2000/svg">
<path d="M12.75 3C12.75 2.58579 12.4142 2.25 12 2.25C11.5858 2.25 11.25 2.58579 11.25 3V4C11.25 4.41421 11.5858 4.75 12 4.75C12.4142 4.75 12.75 4.41421 12.75 4V3Z" fill="black"/>
<path d="M6.13033 5.06967C5.83744 4.77678 5.36256 4.77678 5.06967 5.06967C4.77678 5.36256 4.77678 5.83744 5.06967 6.13033L5.76967 6.83033C6.06256 7.12322 6.53744 7.12322 6.83033 6.83033C7.12322 6.53744 7.12322 6.06256 6.83033 5.76967L6.13033 5.06967Z" fill="black"/>
<path d="M18.9303 5.06967C19.2232 5.36256 19.2232 5.83744 18.9303 6.13033L18.2303 6.83033C17.9374 7.12322 17.4626 7.12322 17.1697 6.83033C16.8768 6.53744 16.8768 6.06256 17.1697 5.76967L17.8697 5.06967C18.1626 4.77678 18.6374 4.77678 18.9303 5.06967Z" fill="black"/>
<path d="M3 11.25C2.58579 11.25 2.25 11.5858 2.25 12C2.25 12.4142 2.58579 12.75 3 12.75H4C4.41421 12.75 4.75 12.4142 4.75 12C4.75 11.5858 4.41421 11.25 4 11.25H3Z" fill="black"/>
<path d="M19.25 12C19.25 11.5858 19.5858 11.25 20 11.25H21C21.4142 11.25 21.75 11.5858 21.75 12C21.75 12.4142 21.4142 12.75 21 12.75H20C19.5858 12.75 19.25 12.4142 19.25 12Z" fill="black"/>
<path d="M14.7419 18.8902C14.6572 18.3181 14.2405 17.75 13.6622 17.75H10.3378C9.75946 17.75 9.34278 18.3181 9.25809 18.8902C9.2527 18.9265 9.25 18.9632 9.25 19C9.25 19.7293 9.53973 20.4288 10.0555 20.9445C10.5712 21.4603 11.2707 21.75 12 21.75C12.7293 21.75 13.4288 21.4603 13.9445 20.9445C14.4603 20.4288 14.75 19.7293 14.75 19C14.75 18.9632 14.7473 18.9265 14.7419 18.8902Z" fill="black"/>
<path d="M17.4885 13.7145C17.339 14.1929 17.1286 14.6467 16.8645 15.0658C16.3331 15.909 15.3205 16.25 14.3238 16.25H9.67619C8.67947 16.25 7.66691 15.909 7.13548 15.0658C6.87138 14.6467 6.66099 14.1929 6.51155 13.7145C6.15171 12.5625 6.16344 11.3266 6.54507 10.1817C6.9267 9.0368 7.65889 8.041 8.63792 7.33536C9.61694 6.62971 10.7932 6.25 12 6.25C13.2068 6.25 14.3831 6.62971 15.3621 7.33536C16.3411 8.041 17.0733 9.0368 17.4549 10.1817C17.8366 11.3266 17.8483 12.5625 17.4885 13.7145Z" fill="black"/>
</svg>
