<svg width="24" height="24" viewBox="0 0 24 24" fill="none" xmlns="http://www.w3.org/2000/svg">
<path d="M4.45547 16.7876C4.29586 16.4054 4.47633 15.9661 4.85856 15.8065C6.10472 15.2862 9.01464 13.5824 10.5869 11.0465C12.1592 8.51052 12.3912 5.1465 12.3032 3.79894C12.2762 3.38561 12.5893 3.02864 13.0027 3.00162C13.416 2.97461 13.773 3.28779 13.8 3.70112C13.8989 5.21489 13.6619 8.9334 11.8618 11.8369C10.0616 14.7403 6.83641 16.6062 5.43654 17.1907C5.05431 17.3503 4.61507 17.1698 4.45547 16.7876Z" fill="black"/>
<path d="M4.49226 12.6214C4.10642 12.772 3.91579 13.207 4.06646 13.5928C4.21714 13.9786 4.65207 14.1693 5.0379 14.0186C5.94056 13.6661 7.94888 12.4547 9.31204 10.2561C10.6752 8.05737 10.8672 5.71988 10.7815 4.75462C10.7449 4.34203 10.3807 4.03724 9.96814 4.07386C9.55555 4.11047 9.25076 4.47462 9.28737 4.88722C9.34904 5.5821 9.20331 7.58478 8.03719 9.46565C6.87106 11.3465 5.14208 12.3676 4.49226 12.6214Z" fill="black"/>
<path d="M3.38896 10.7376C3.29437 10.3343 3.54459 9.93071 3.94786 9.83611C4.13504 9.7922 4.48149 9.61918 4.88384 9.2937C5.27203 8.97968 5.64747 8.57566 5.91242 8.14831C6.17738 7.72096 6.37231 7.20503 6.48095 6.71769C6.59356 6.21257 6.59448 5.82532 6.55057 5.63814C6.45598 5.23487 6.70621 4.83128 7.10947 4.73668C7.51274 4.64208 7.91634 4.89231 8.01093 5.29558C8.12851 5.79682 8.08014 6.43795 7.94501 7.04408C7.80592 7.66799 7.55465 8.34618 7.18728 8.93871C6.81992 9.53125 6.3242 10.0579 5.82723 10.4599C5.34441 10.8505 4.79166 11.1789 4.29042 11.2965C3.88715 11.3911 3.48356 11.1408 3.38896 10.7376Z" fill="black"/>
<path d="M4.52707 6.1128C4.99646 6.40382 5.14106 7.02025 4.85004 7.48964C4.55902 7.95903 3.94259 8.10363 3.4732 7.81261C3.00381 7.52159 2.85921 6.90516 3.15023 6.43577C3.44125 5.96638 4.05768 5.82178 4.52707 6.1128Z" fill="black"/>
<path d="M18.25 9.5C18.25 10.3284 17.5784 11 16.75 11C15.9216 11 15.25 10.3284 15.25 9.5C15.25 8.67157 15.9216 8 16.75 8C17.5784 8 18.25 8.67157 18.25 9.5Z" fill="black"/>
<path d="M16.8667 11.2591L16.1193 11.2614C16.1086 11.2633 16.0981 11.2654 16.0875 11.2677L14.172 11.6508C13.5562 11.774 13.0536 12.2177 12.855 12.8135L12.5385 13.7629C12.4075 14.1559 12.6199 14.5806 13.0128 14.7116C13.4058 14.8426 13.8305 14.6302 13.9615 14.2373L14.278 13.2878C14.3064 13.2027 14.3782 13.1393 14.4661 13.1217L15.235 12.9679L14.5294 15.7902L14.2664 16.5791C14.2324 16.6812 14.1368 16.7501 14.0292 16.7501H11.75C11.3358 16.7501 11 17.0859 11 17.5001C11 17.9143 11.3358 18.2501 11.75 18.2501H14.0292C14.6247 18.2501 15.1673 17.9489 15.4862 17.4697L17.0943 20.3643C17.2954 20.7264 17.752 20.8569 18.1141 20.6557C18.4762 20.4545 18.6067 19.9979 18.4055 19.6359L16.1356 15.55L16.6525 13.4822L16.8028 13.7827C17.0992 14.3756 17.7052 14.7501 18.368 14.7501H19.75C20.1642 14.7501 20.5 14.4143 20.5 14.0001C20.5 13.5859 20.1642 13.2501 19.75 13.2501H18.368C18.2733 13.2501 18.1868 13.1966 18.1444 13.1119L17.4208 11.6647C17.3082 11.4395 17.0977 11.2957 16.8667 11.2591Z" fill="black"/>
</svg>
