<svg width="24" height="24" viewBox="0 0 24 24" fill="none" xmlns="http://www.w3.org/2000/svg">
<path fill-rule="evenodd" clip-rule="evenodd" d="M11.1006 3C9.78284 3 8.64366 3.7582 8.09292 4.86059C6.88262 5.21933 6 6.3389 6 7.6656C6 9.28121 7.30971 10.5909 8.92532 10.5909L8.93692 10.5909H14.1345L14.1461 10.5909C15.7617 10.5909 17.0714 9.28121 17.0714 7.6656C17.0714 6.04999 15.7617 4.74028 14.1461 4.74028C14.1127 4.74028 14.0793 4.74084 14.0461 4.74196C13.4747 3.70406 12.3706 3 11.1006 3ZM9.34106 5.75414C9.59278 5.02333 10.2866 4.5 11.1006 4.5C11.9287 4.5 12.6323 5.04155 12.8727 5.79174L13.0903 6.47047L13.7792 6.28775C13.8955 6.25692 14.0183 6.24028 14.1461 6.24028C14.9333 6.24028 15.5714 6.87842 15.5714 7.6656C15.5714 8.45279 14.9333 9.09093 14.1461 9.09093L14.1384 9.0909L8.93688 9.09089L8.93298 9.09091L8.92532 9.09093C8.13814 9.09093 7.5 8.45279 7.5 7.6656C7.5 6.94422 8.03661 6.34693 8.73215 6.25317L9.19045 6.19138L9.34106 5.75414Z" fill="black"/>
<path fill-rule="evenodd" clip-rule="evenodd" d="M18.4102 18.3174C18.6977 17.7678 18.8415 17.093 18.8415 16.2931C18.8415 15.4932 18.6977 14.8196 18.4102 14.2723C18.1227 13.7226 17.7347 13.3075 17.2462 13.0268C16.7577 12.7438 16.2129 12.6023 15.612 12.6023C15.0068 12.6023 14.4599 12.7438 13.9714 13.0268C13.485 13.3075 13.0981 13.7226 12.8106 14.2723C12.5252 14.8196 12.3826 15.4932 12.3826 16.2931C12.3826 17.0883 12.5252 17.7607 12.8106 18.3104C13.0981 18.8577 13.485 19.274 13.9714 19.5594C14.4599 19.8424 15.0068 19.9839 15.612 19.9839C16.2129 19.9839 16.7577 19.8435 17.2462 19.5629C17.7347 19.2799 18.1227 18.8647 18.4102 18.3174ZM16.8279 15.2055C16.9338 15.5002 16.9868 15.8627 16.9868 16.2931C16.9868 16.7234 16.9338 17.0871 16.8279 17.3842C16.7242 17.6789 16.5696 17.9034 16.3643 18.0578C16.1611 18.2098 15.9103 18.2858 15.612 18.2858C15.3137 18.2858 15.0619 18.2098 14.8565 18.0578C14.6533 17.9034 14.4988 17.6789 14.3929 17.3842C14.2891 17.0871 14.2372 16.7234 14.2372 16.2931C14.2372 15.8627 14.2891 15.5002 14.3929 15.2055C14.4988 14.9085 14.6533 14.6839 14.8565 14.5319C15.0619 14.3775 15.3137 14.3003 15.612 14.3003C15.9103 14.3003 16.1611 14.3775 16.3643 14.5319C16.5696 14.6839 16.7242 14.9085 16.8279 15.2055Z" fill="black"/>
<path d="M10.75 12.9961C11.1642 12.9961 11.5 13.3319 11.5 13.7461V19.2287C11.5 20.0149 10.5244 20.3797 10.0086 19.7864L6.5 15.7516V19.2461C6.5 19.6603 6.16421 19.9961 5.75 19.9961C5.33579 19.9961 5 19.6603 5 19.2461V14.0135C5 13.2273 5.97556 12.8625 6.49141 13.4557L10 17.4906V13.7461C10 13.3319 10.3358 12.9961 10.75 12.9961Z" fill="black"/>
<path d="M19.6302 18.3919C19.6302 18.3399 19.6508 18.2553 19.7026 18.1922C19.7418 18.1445 19.8102 18.0919 19.9724 18.0919C20.1346 18.0919 20.203 18.1445 20.2422 18.1922C20.294 18.2553 20.3146 18.3399 20.3146 18.3919C20.3146 18.5045 20.2636 18.6124 20.1729 18.6919L19.1169 19.6177C19.0073 19.7137 18.9458 19.844 18.9458 19.9798C18.9458 20.2627 19.2073 20.4919 19.53 20.4919H20.6568C20.8458 20.4919 20.999 20.3576 20.999 20.1919C20.999 20.0263 20.8458 19.8919 20.6568 19.8919H19.772L20.6568 19.1162C20.8759 18.9241 20.999 18.6636 20.999 18.3919C20.999 18.2439 20.9512 18.0286 20.7977 17.8417C20.6316 17.6394 20.3577 17.4919 19.9724 17.4919C19.5871 17.4919 19.3133 17.6394 19.1472 17.8417C18.9936 18.0286 18.9458 18.2439 18.9458 18.3919C18.9458 18.5576 19.099 18.6919 19.288 18.6919C19.477 18.6919 19.6302 18.5576 19.6302 18.3919Z" fill="black"/>
</svg>
