<svg width="24" height="24" viewBox="0 0 24 24" fill="none" xmlns="http://www.w3.org/2000/svg">
<path d="M5.875 2.57031C5.875 2.1561 6.21079 1.82031 6.625 1.82031H8.125C8.45652 1.82031 8.77446 1.95201 9.00888 2.18643C9.2433 2.42085 9.375 2.73879 9.375 3.07031V4.07031C9.375 4.40183 9.2433 4.71978 9.00888 4.9542C8.77446 5.18862 8.45652 5.32031 8.125 5.32031H7.375V5.82031H8.625C9.03921 5.82031 9.375 6.1561 9.375 6.57031C9.375 6.98453 9.03921 7.32031 8.625 7.32031H7.125C6.79348 7.32031 6.47554 7.18862 6.24112 6.9542C6.0067 6.71978 5.875 6.40183 5.875 6.07031V5.07031C5.875 4.73879 6.0067 4.42085 6.24112 4.18643C6.47554 3.95201 6.79348 3.82031 7.125 3.82031H7.875V3.32031H6.625C6.21079 3.32031 5.875 2.98453 5.875 2.57031Z" fill="black"/>
<path d="M4.375 2.57033C4.375 2.26699 4.19227 1.99351 3.91201 1.87742C3.63176 1.76134 3.30917 1.82551 3.09467 2.04L2.09467 3.04C1.80178 3.3329 1.80178 3.80777 2.09467 4.10066C2.30569 4.31168 2.61117 4.37067 2.875 4.27763V6.57033C2.875 6.98455 3.21079 7.32033 3.625 7.32033C4.03921 7.32033 4.375 6.98455 4.375 6.57033V2.57033Z" fill="black"/>
<path d="M10.875 2.57031C10.875 2.1561 11.2108 1.82031 11.625 1.82031H12.875C13.2728 1.82031 13.6544 1.97835 13.9357 2.25965C14.217 2.54096 14.375 2.92249 14.375 3.32031V3.82031C14.375 4.0859 14.3046 4.34422 14.174 4.57031C14.3046 4.7964 14.375 5.05473 14.375 5.32031V5.82031C14.375 6.21814 14.217 6.59967 13.9357 6.88097C13.6544 7.16228 13.2728 7.32031 12.875 7.32031H11.625C11.2108 7.32031 10.875 6.98453 10.875 6.57031C10.875 6.1561 11.2108 5.82031 11.625 5.82031H12.875V5.32031H12.125C11.7108 5.32031 11.375 4.98453 11.375 4.57031C11.375 4.1561 11.7108 3.82031 12.125 3.82031H12.875V3.32031H11.625C11.2108 3.32031 10.875 2.98453 10.875 2.57031Z" fill="black"/>
<path d="M18.25 8C18.6642 8 19 7.66421 19 7.25C19 6.83579 18.6642 6.5 18.25 6.5C17.8358 6.5 17.5 6.83579 17.5 7.25C17.5 7.66421 17.8358 8 18.25 8Z" fill="black"/>
<path fill-rule="evenodd" clip-rule="evenodd" d="M5.89481 8.25C6.82666 8.25 7.63211 8.79119 8.014 9.5764C8.37853 9.36867 8.8004 9.25 9.24998 9.25C10.3407 9.25 11.2683 9.94854 11.6098 10.9227L12.1498 10.6913C13.2704 10.211 14.1425 9.28856 14.5591 8.14276L15.2321 6.29214C15.2906 6.13108 15.3616 5.97709 15.4437 5.8311C15.1761 5.65164 15 5.34639 15 5C15 4.44772 15.4477 4 16 4C16.0864 4 16.1703 4.01096 16.2503 4.03158L16.25 4C16.25 3.0335 17.0335 2.25 18 2.25C18.9665 2.25 19.75 3.0335 19.75 4L19.7497 4.03158C19.8297 4.01096 19.9136 4 20 4C20.5523 4 21 4.44772 21 5C21 5.25389 20.9054 5.48568 20.7495 5.66203C20.9614 5.98758 21.1139 6.35536 21.1915 6.75H21.5763C22.4733 6.75 22.7587 7.95914 21.9564 8.36026L21.3353 8.67082C21.3073 8.68484 21.2788 8.69694 21.25 8.70717V10.9418C21.25 12.4191 20.8735 13.872 20.156 15.1634C19.0998 17.0646 17.3693 18.5008 15.3061 19.1885L14.9389 19.3109C14.0653 19.6021 13.1392 19.75 12.2208 19.75C12.1355 19.75 12.0504 19.7487 11.9654 19.7461L11.3944 20.8881C11.3113 21.0543 11.4321 21.2499 11.618 21.2499H13.9999C14.4142 21.2499 14.7499 21.5857 14.7499 21.9999C14.7499 22.4141 14.4142 22.7499 13.9999 22.7499H11.618C10.3171 22.7499 9.47094 21.3809 10.0527 20.2173L10.3865 19.5498C8.82057 19.2047 7.362 18.4227 6.21444 17.2751L5.98318 17.0439C4.88828 15.949 4.16285 14.5393 3.90829 13.012L3.57169 10.9924C3.33243 9.5568 4.43946 8.25 5.89481 8.25ZM16.6417 6.80476C16.872 6.17153 17.4738 5.75 18.1476 5.75C19.0326 5.75 19.75 6.4674 19.75 7.35235V10.9418C19.75 12.1642 19.4385 13.3664 18.8448 14.4349C18.6677 14.7537 18.4677 15.0567 18.2471 15.342C18.1933 14.5589 17.8625 13.8018 17.2828 13.2221C16.6603 12.5997 15.8161 12.25 14.9359 12.25H14.5C14.0858 12.25 13.75 12.5858 13.75 13C13.75 13.4142 14.0858 13.75 14.5 13.75H14.9359C15.4183 13.75 15.881 13.9416 16.2221 14.2828C16.7543 14.8149 16.9037 15.6199 16.5981 16.3077L16.3146 16.9454C16.2913 16.998 16.2744 17.0519 16.2638 17.106C15.8152 17.3758 15.3355 17.5976 14.8317 17.7655L14.4645 17.8879C13.7462 18.1274 12.9804 18.25 12.2208 18.25C10.3743 18.25 8.57616 17.5155 7.2751 16.2145L7.04384 15.9832C6.17001 15.1094 5.59104 13.9843 5.38788 12.7654L5.05128 10.7458C4.96441 10.2245 5.36637 9.75 5.89481 9.75C6.36711 9.75 6.74998 10.1329 6.74998 10.6052V11.5C6.74998 11.5299 6.75172 11.5593 6.75512 11.5883C6.75171 11.6418 6.74998 11.6957 6.74998 11.75V12C6.74998 12.4142 7.08576 12.75 7.49998 12.75C7.91419 12.75 8.24998 12.4142 8.24998 12V11.75C8.24998 11.1977 8.69769 10.75 9.24998 10.75C9.80226 10.75 10.25 11.1977 10.25 11.75V11.9701C10.25 12.5227 10.815 12.8953 11.3229 12.6776L12.7406 12.07C14.2421 11.4265 15.4105 10.1906 15.9688 8.65537L16.6417 6.80476Z" fill="black"/>
</svg>
