<svg width="24" height="24" viewBox="0 0 24 24" fill="none" xmlns="http://www.w3.org/2000/svg">
<path fill-rule="evenodd" clip-rule="evenodd" d="M11.9004 8.25C12.3695 8.25021 12.7498 8.63048 12.75 9.09961V11.25H13.5C14.1904 11.25 14.75 11.8096 14.75 12.5V15.25H19.9004C20.3695 15.2502 20.7498 15.6305 20.75 16.0996V20.25H22C22.4142 20.25 22.75 20.5858 22.75 21C22.75 21.4142 22.4142 21.75 22 21.75H2C1.58579 21.75 1.25 21.4142 1.25 21C1.25 20.5858 1.58579 20.25 2 20.25H3.25V12.5C3.25 11.8096 3.80964 11.25 4.5 11.25H7.25V9.09961C7.25021 8.63048 7.63048 8.25021 8.09961 8.25H11.9004ZM4.75 20.25H13.25V12.75H11.25V14.9004C11.2498 15.3695 10.8695 15.7498 10.4004 15.75H7.59961C7.13048 15.7498 6.75021 15.3695 6.75 14.9004V12.75H4.75V20.25ZM14.75 20.25H19.25V16.75H18.25V16.9004C18.2498 17.3695 17.8695 17.7498 17.4004 17.75H16.5996C16.1305 17.7498 15.7502 17.3695 15.75 16.9004V16.75H14.75V20.25ZM8.25 14.25H9.75V12.75H8.25V14.25ZM8.75 11.25H11.25V9.75H8.75V11.25Z" fill="black"/>
<path d="M17.75 10.5C18.1642 10.5 18.5 10.8358 18.5 11.25C18.5 11.6642 18.1642 12 17.75 12C17.3359 11.9999 17 11.6641 17 11.25C17 10.8359 17.3359 10.5001 17.75 10.5Z" fill="black"/>
<path d="M17.75 6C18.1642 6 18.5 6.33579 18.5 6.75V8.5C18.5 8.91421 18.1642 9.25 17.75 9.25C17.3359 9.24988 17 8.91414 17 8.5V6.75C17 6.33586 17.3359 6.00012 17.75 6Z" fill="black"/>
<path d="M22 2.25C22.4142 2.25 22.75 2.58579 22.75 3C22.75 3.41421 22.4142 3.75 22 3.75H2C1.58579 3.75 1.25 3.41421 1.25 3C1.25 2.58579 1.58579 2.25 2 2.25H22Z" fill="black"/>
</svg>
