<svg width="24" height="24" viewBox="0 0 24 24" fill="none" xmlns="http://www.w3.org/2000/svg">
<path d="M6 13.8789C6.00025 14.2762 6.32245 14.5984 6.71973 14.5986H10.0801C10.4774 14.5984 10.7996 14.2762 10.7998 13.8789V10.998H12.7998C13.352 10.998 13.7996 11.4459 13.7998 11.998V20.25H15V16.2988C15 16.0227 15.2239 15.7988 15.5 15.7988H16.7998V16.2793C16.8003 16.6764 17.1224 16.9978 17.5195 16.998H18.4805C18.8776 16.9978 19.1997 16.6764 19.2002 16.2793V15.7988H20.5C20.7761 15.7988 21 16.0227 21 16.2988V20.25H22C22.4142 20.25 22.75 20.5858 22.75 21C22.75 21.4142 22.4142 21.75 22 21.75H2C1.58579 21.75 1.25 21.4142 1.25 21C1.25 20.5858 1.58579 20.25 2 20.25H3V11.998C3.00021 11.4459 3.44785 10.998 4 10.998H6V13.8789Z" fill="black"/>
<path d="M9.59961 13.3984H7.2002V10.998H9.59961V13.3984Z" fill="black"/>
<path d="M17.75 10.5C18.1642 10.5 18.5 10.8358 18.5 11.25C18.5 11.6642 18.1642 12 17.75 12C17.3359 11.9999 17 11.6641 17 11.25C17 10.8359 17.3359 10.5001 17.75 10.5Z" fill="black"/>
<path d="M10.9004 7.39844C11.1764 7.39865 11.4004 7.62243 11.4004 7.89844V9.29883C11.4002 9.57466 11.1762 9.79862 10.9004 9.79883H8.2998C8.02388 9.79872 7.80002 9.57473 7.7998 9.29883V7.89844C7.7998 7.62236 8.02375 7.39854 8.2998 7.39844H10.9004Z" fill="black"/>
<path d="M17.75 6C18.1642 6 18.5 6.33579 18.5 6.75V8.5C18.5 8.91421 18.1642 9.25 17.75 9.25C17.3359 9.24988 17 8.91414 17 8.5V6.75C17 6.33586 17.3359 6.00012 17.75 6Z" fill="black"/>
<path d="M22 2.25C22.4142 2.25 22.75 2.58579 22.75 3C22.75 3.41421 22.4142 3.75 22 3.75H2C1.58579 3.75 1.25 3.41421 1.25 3C1.25 2.58579 1.58579 2.25 2 2.25H22Z" fill="black"/>
</svg>
