<svg width="24" height="24" viewBox="0 0 24 24" fill="none" xmlns="http://www.w3.org/2000/svg">
<path d="M18.2501 1.91113C16.2105 1.91113 14.9498 3.20804 14.255 4.07324C13.1622 3.72464 11.9929 3.5 10.7501 3.5C7.76038 3.5 5.23179 4.65652 3.5675 6.44238C3.27204 6.4057 3.02068 6.34951 2.89172 6.23047C2.72789 6.07924 2.61013 5.84825 2.54015 5.56836C2.40021 5.00858 2.49035 4.37305 2.49035 4.37305C2.52298 4.17672 2.47629 3.97548 2.36055 3.81358C2.2448 3.65169 2.06948 3.5424 1.87316 3.50977C1.67684 3.47713 1.47559 3.52382 1.3137 3.63957C1.1518 3.75531 1.04252 3.93063 1.00988 4.12695C1.00988 4.12695 0.850021 4.99142 1.08508 5.93164C1.2026 6.40175 1.42859 6.92076 1.87414 7.33203C2.06701 7.51007 2.31502 7.64313 2.57922 7.75488C1.90944 8.8747 1.50012 10.1353 1.50012 11.5C1.50012 12.3655 1.69283 13.1742 2.00109 13.9209C1.98963 14.0651 1.89996 15.1119 1.97277 16.5508C2.0504 18.0847 2.25205 19.8937 3.14758 21.166C3.52341 21.7 4.13675 22 4.77258 22C5.94159 22 6.86482 20.964 6.75012 19.8066C6.62548 18.5551 6.89955 17.9578 7.12609 17.6514C7.21613 17.5296 7.20945 17.5712 7.26574 17.5244C8.11451 18.1899 9.10695 18.6003 10.0568 18.7686C11.0167 18.9386 11.761 18.8953 12.3712 18.8496L14.2589 21.2119C14.2592 21.2119 14.2596 21.2119 14.2599 21.2119C14.6577 21.7092 15.2611 22 15.8986 22C17.3007 22 18.3254 20.5923 17.8956 19.2578L17.131 16.8818L21.1905 15.0498V15.0508C22.2905 14.5553 23.0001 13.456 23.0001 12.25C23.0001 11.0162 21.9839 10 20.7501 10H20.2589C20.0277 9.01922 19.6118 8.10379 19.0001 7.29688V2.66113C19.0001 2.46223 18.9211 2.27147 18.7804 2.13082C18.6398 1.99018 18.449 1.91115 18.2501 1.91113ZM17.5001 3.56055V7.50098C17.5001 7.67484 17.5605 7.84329 17.671 7.97754C18.3753 8.83298 18.8253 9.80489 18.9581 10.8447C18.9812 11.0258 19.0695 11.1922 19.2065 11.3129C19.3435 11.4335 19.5197 11.5 19.7023 11.5H20.7501C21.1734 11.5 21.5001 11.8268 21.5001 12.25C21.5001 12.87 21.1394 13.4281 20.5743 13.6826L15.9025 15.79C15.7346 15.8659 15.6004 16.0009 15.5257 16.1693C15.451 16.3377 15.4408 16.5277 15.4972 16.7031L16.4679 19.7178C16.5991 20.1253 16.3264 20.5 15.8986 20.5C15.716 20.5 15.5449 20.4181 15.4308 20.2754L13.3361 17.6543C13.2557 17.5539 13.1509 17.4758 13.0317 17.4276C12.9125 17.3794 12.7829 17.3626 12.6554 17.3789C12.2487 17.4308 11.2871 17.4626 10.3185 17.291C9.34989 17.1194 8.38437 16.7427 7.80285 16.1094C7.70626 16.0041 7.5816 15.9286 7.44354 15.8917C7.30548 15.8549 7.15977 15.8582 7.02355 15.9014C7.02355 15.9014 6.386 16.1295 5.92004 16.7598C5.45408 17.39 5.10459 18.4252 5.25695 19.9551C5.28665 20.2602 5.07322 20.5 4.77258 20.5C4.60741 20.5 4.4593 20.4237 4.37414 20.3027C3.84616 19.5526 3.54282 17.8983 3.47082 16.4756C3.39882 15.0529 3.49719 13.8721 3.49719 13.8721C3.50775 13.7453 3.48591 13.6179 3.43371 13.502C3.155 12.882 3.00012 12.2201 3.00012 11.5C3.00012 7.93675 6.10614 5 10.7501 5C11.9922 5 13.1637 5.22373 14.2198 5.6123C14.3737 5.66901 14.5419 5.67373 14.6987 5.62576C14.8555 5.57779 14.9922 5.47976 15.088 5.34668C15.4563 4.83557 16.343 3.8884 17.5001 3.56055ZM17.2501 10C17.0512 10 16.8604 10.079 16.7198 10.2197C16.5791 10.3603 16.5001 10.5511 16.5001 10.75C16.5001 10.9489 16.5791 11.1397 16.7198 11.2803C16.8604 11.421 17.0512 11.5 17.2501 11.5C17.449 11.5 17.6398 11.421 17.7804 11.2803C17.9211 11.1397 18.0001 10.9489 18.0001 10.75C18.0001 10.5511 17.9211 10.3603 17.7804 10.2197C17.6398 10.079 17.449 10 17.2501 10Z" fill="black"/>
</svg>
