<svg width="24" height="24" viewBox="0 0 24 24" fill="none" xmlns="http://www.w3.org/2000/svg">
<g clip-path="url(#clip0_16_18)">
<path d="M4.21484 0.490243C4.05498 0.498409 3.90192 0.557505 3.77804 0.658888C3.65417 0.760272 3.56598 0.898625 3.52637 1.05372C3.52637 1.05372 3.24024 2.0327 3.40234 3.11134C3.43883 3.3541 3.51184 3.61013 3.61133 3.86134C3.01842 3.66365 2.65853 3.34271 2.42871 3.01075C2.00965 2.40544 2 1.75001 2 1.75001C2.0014 1.65062 1.98304 1.55195 1.94598 1.45973C1.90892 1.3675 1.8539 1.28356 1.78412 1.21278C1.71434 1.142 1.63118 1.0858 1.53949 1.04744C1.4478 1.00908 1.34939 0.989326 1.25 0.989326C1.1506 0.989326 1.0522 1.00908 0.960509 1.04744C0.868816 1.0858 0.785662 1.142 0.715879 1.21278C0.646095 1.28356 0.591075 1.3675 0.554014 1.45973C0.516954 1.55195 0.498593 1.65062 0.499999 1.75001C0.499999 1.75001 0.490347 2.84457 1.19629 3.86427C1.7677 4.68965 2.88394 5.39057 4.57129 5.49708C4.35456 6.06259 4.29754 6.69392 4.6084 7.28907C5.48572 8.96804 7.10944 10.003 8.78027 10.6807C8.62359 10.8486 8.49158 11.0278 8.39551 11.2051C7.97982 11.9722 8 12.75 8 12.75C7.99859 12.8494 8.01695 12.9481 8.05401 13.0403C8.09107 13.1325 8.1461 13.2165 8.21588 13.2872C8.28566 13.358 8.36882 13.4142 8.46051 13.4526C8.5522 13.4909 8.65061 13.5107 8.75 13.5107C8.84939 13.5107 8.9478 13.4909 9.03949 13.4526C9.13118 13.4142 9.21434 13.358 9.28412 13.2872C9.3539 13.2165 9.40892 13.1325 9.44598 13.0403C9.48304 12.9481 9.5014 12.8494 9.5 12.75C9.5 12.75 9.51993 12.2778 9.71387 11.9199C9.81084 11.741 9.92686 11.6124 10.1025 11.5283C10.2782 11.4443 10.5489 11.3841 11.0381 11.4844C11.0693 11.491 11.101 11.4955 11.1328 11.4981C11.0103 11.6213 10.837 11.6823 10.7412 11.834C10.4543 12.2882 10.3459 12.9107 10.5381 13.4873C10.5692 13.5808 10.6185 13.6673 10.6831 13.7417C10.7476 13.8162 10.8262 13.8772 10.9144 13.9213C11.0025 13.9654 11.0985 13.9916 11.1968 13.9986C11.2951 14.0056 11.3938 13.9932 11.4873 13.962C11.5808 13.9309 11.6673 13.8816 11.7417 13.817C11.8162 13.7524 11.8772 13.6738 11.9213 13.5857C11.9653 13.4975 11.9916 13.4015 11.9986 13.3032C12.0055 13.2049 11.9931 13.1062 11.9619 13.0127C11.9041 12.8393 11.9207 12.7743 12.0088 12.6348C12.0969 12.4953 12.2994 12.3137 12.585 12.1709C12.9812 11.9728 13.4853 11.9126 13.9414 11.9229C14.1983 11.9474 14.4942 11.98 14.5537 11.9834C14.6069 12.0065 14.6609 12.0291 14.7119 12.0547C16.2416 12.8263 16.5638 14.8982 15.4277 16.2236C15.4274 16.224 15.4271 16.2243 15.4268 16.2246L15.3262 16.3418C14.4281 17.3891 13.12 17.9889 11.7412 17.9951L9.84473 17.7217C9.29167 17.6421 8.76624 17.9654 8.54883 18.3994C8.33141 18.8335 8.38709 19.4486 8.78223 19.8438L9.87012 20.9307L9.39648 22.1152C9.04322 22.999 9.86964 23.9955 10.8047 23.8047C13.5017 23.2538 19.5736 21.7981 22.3115 16.6416C23.5834 14.2468 24.0404 11.5488 22.9404 8.95704C22.548 8.03204 22.0574 7.23227 21.4717 6.5127C21.4343 6.40125 21.3713 6.30014 21.2876 6.21753C21.204 6.13492 21.1021 6.07312 20.9902 6.03712C20.7335 5.7855 20.5402 5.48543 20.2217 5.27833C18.8747 4.40251 17.0256 4.00001 14.25 4.00001H6.60937C6.56238 4.00001 6.52851 4.03228 6.48242 4.03516C6.40728 4.0113 6.32884 3.99944 6.25 4.00001C5.6614 4.00001 5.4028 3.85237 5.22656 3.67481C5.05032 3.49725 4.93619 3.22436 4.88574 2.88868C4.78484 2.21731 4.97363 1.4463 4.97363 1.4463C5.00656 1.33156 5.01164 1.21062 4.98843 1.09352C4.96522 0.976431 4.9144 0.866569 4.84019 0.773068C4.76598 0.679566 4.67053 0.605127 4.56176 0.555936C4.453 0.506745 4.33406 0.484223 4.21484 0.490243ZM6.60937 5.50001H14.25C16.5096 5.50001 17.8594 5.83135 18.8525 6.32227C18.0862 6.54549 17.3996 6.82622 16.9033 7.08497C16.8143 7.12953 16.7351 7.19137 16.6702 7.26686C16.6054 7.34235 16.5562 7.43 16.5255 7.52469C16.4949 7.61938 16.4834 7.71923 16.4917 7.81841C16.5001 7.91759 16.528 8.01412 16.574 8.10238C16.6201 8.19063 16.6832 8.26885 16.7597 8.33247C16.8362 8.39609 16.9247 8.44384 17.0199 8.47295C17.115 8.50205 17.2151 8.51192 17.3141 8.50198C17.4131 8.49203 17.5092 8.46248 17.5967 8.41505C18.3059 8.04525 19.378 7.63711 20.4326 7.55665C20.8473 8.09571 21.212 8.72385 21.5596 9.54298C22.1614 10.9609 22.1675 12.3942 21.793 13.8242C21.2906 13.6858 20.6088 13.5375 19.7832 13.501C19.6831 13.4936 19.5826 13.5064 19.4876 13.5386C19.3926 13.5708 19.305 13.6217 19.23 13.6884C19.155 13.7551 19.0941 13.8361 19.051 13.9267C19.0079 14.0173 18.9834 14.1156 18.9789 14.2158C18.9745 14.3161 18.9902 14.4162 19.0251 14.5102C19.0601 14.6043 19.1135 14.6904 19.1823 14.7634C19.2511 14.8364 19.3339 14.8949 19.4257 14.9354C19.5175 14.9759 19.6165 14.9975 19.7168 14.999C20.3231 15.0258 20.8776 15.1367 21.2881 15.2412C21.1843 15.4735 21.1094 15.7068 20.9863 15.9385C19.9102 17.9652 18.153 19.3065 16.334 20.2793L15.0156 18.5205C15.5477 18.1881 16.0489 17.8038 16.4658 17.3174C16.4661 17.3174 16.4665 17.3174 16.4668 17.3174L16.5664 17.2002L16.5674 17.1992C18.3042 15.1716 17.8006 11.933 15.3877 10.7158C15.3874 10.7155 15.387 10.7152 15.3867 10.7149C15.3 10.6713 15.2062 10.6316 15.1123 10.5918C15.0724 10.5702 15.0305 10.5522 14.9873 10.5381C14.9851 10.5373 14.9827 10.5379 14.9805 10.5371C14.9179 10.5166 14.8529 10.5045 14.7871 10.501C14.7871 10.501 13.0063 10.4099 10.9834 9.84962C8.96083 9.28951 6.79959 8.2437 5.9375 6.59473C5.66451 6.0721 6.01622 5.50001 6.60937 5.50001ZM9.75 6.50001C9.55109 6.50001 9.36032 6.57903 9.21967 6.71968C9.07902 6.86033 9 7.0511 9 7.25001C9 7.44892 9.07902 7.63969 9.21967 7.78034C9.36032 7.92099 9.55109 8.00001 9.75 8.00001C9.94891 8.00001 10.1397 7.92099 10.2803 7.78034C10.421 7.63969 10.5 7.44892 10.5 7.25001C10.5 7.0511 10.421 6.86033 10.2803 6.71968C10.1397 6.57903 9.94891 6.50001 9.75 6.50001ZM13.625 19.165C13.6331 19.177 13.6416 19.1887 13.6504 19.2002L14.957 20.9414C13.4574 21.5717 12.0518 21.9839 10.9707 22.2188L11.4463 21.0283C11.5007 20.8921 11.514 20.7429 11.4845 20.5991C11.455 20.4554 11.384 20.3235 11.2803 20.2197L10.375 19.3145L11.6133 19.4922C11.6489 19.4974 11.6848 19.5 11.7207 19.5C12.3784 19.5 13.0121 19.3626 13.625 19.165Z" fill="black"/>
</g>
<defs>
<clipPath id="clip0_16_18">
<rect width="24" height="24" fill="white"/>
</clipPath>
</defs>
</svg>
