<svg width="24" height="24" viewBox="0 0 24 24" fill="none" xmlns="http://www.w3.org/2000/svg">
<path d="M6.45444 16.7697C6.67234 16.9989 6.66509 17.3642 6.4776 17.6189C6.25868 17.9163 5.81276 18.0463 5.55496 17.7818C3.97399 16.1601 3 13.9438 3 11.5C3 6.52944 7.02944 2.5 12 2.5C16.9706 2.5 21 6.52944 21 11.5C21 13.8449 20.1032 15.9803 18.634 17.5821C18.3528 17.8886 17.8392 17.7111 17.6343 17.3491C17.4983 17.109 17.516 16.8078 17.7001 16.6022C18.7561 15.4233 19.4517 13.9148 19.6137 12.25H18C17.5858 12.25 17.25 11.9142 17.25 11.5C17.25 11.0858 17.5858 10.75 18 10.75H19.6137C19.2609 7.12378 16.3762 4.23915 12.75 3.8863V5.5C12.75 5.91421 12.4142 6.25 12 6.25C11.5858 6.25 11.25 5.91421 11.25 5.5V3.8863C7.62378 4.23915 4.73915 7.12378 4.3863 10.75H6C6.41421 10.75 6.75 11.0858 6.75 11.5C6.75 11.9142 6.41421 12.25 6 12.25H4.3863C4.55606 13.9947 5.3119 15.5677 6.45444 16.7697Z" fill="black"/>
<path fill-rule="evenodd" clip-rule="evenodd" d="M16.0129 8.98177C16.1208 8.83128 15.9587 8.63547 15.7907 8.71337L13.2122 9.90911C12.8759 9.65244 12.4557 9.5 12 9.5C10.8954 9.5 10 10.3954 10 11.5C10 12.6046 10.8954 13.5 12 13.5C13.1046 13.5 14 12.6046 14 11.5C14 11.2521 13.9549 11.0148 13.8725 10.7958L15.9827 9.01447C15.9941 9.00486 16.0042 8.99388 16.0129 8.98177ZM12 12C12.2761 12 12.5 11.7761 12.5 11.5C12.5 11.2239 12.2761 11 12 11C11.7239 11 11.5 11.2239 11.5 11.5C11.5 11.7761 11.7239 12 12 12Z" fill="black"/>
<path fill-rule="evenodd" clip-rule="evenodd" d="M8.34045 16.3911C8.61894 15.9822 9.22286 15.9823 9.50135 16.3911L10.575 17.9673C11.1147 18.7596 11.014 19.8227 10.3351 20.5C9.55405 21.2793 8.28774 21.2793 7.50671 20.5C6.82785 19.8227 6.72714 18.7596 7.26678 17.9673L8.34045 16.3911ZM8.9209 17.669L8.25926 18.6403C8.04341 18.9572 8.08369 19.3824 8.35523 19.6534C8.66764 19.9651 9.17416 19.9651 9.48657 19.6534C9.75811 19.3824 9.79839 18.9572 9.58253 18.6403L8.9209 17.669Z" fill="black"/>
<path fill-rule="evenodd" clip-rule="evenodd" d="M12.8993 15.0588L11.5188 17.0065C10.7094 18.1486 10.8604 19.6811 11.8787 20.6575C13.0503 21.7808 14.9497 21.7808 16.1213 20.6575C17.1396 19.681 17.2906 18.1486 16.4812 17.0065L15.1007 15.0588C14.5726 14.3137 13.4274 14.3137 12.8993 15.0588ZM14.1083 15.7056L15.4887 17.6533C15.9744 18.3385 15.8837 19.258 15.2728 19.8438C14.5698 20.5179 13.4302 20.5179 12.7272 19.8438C12.1163 19.258 12.0256 18.3385 12.5113 17.6533L13.8917 15.7056C13.9437 15.6323 14.0563 15.6323 14.1083 15.7056Z" fill="black"/>
</svg>
