<svg width="24" height="24" viewBox="0 0 24 24" fill="none" xmlns="http://www.w3.org/2000/svg">
<path fill-rule="evenodd" clip-rule="evenodd" d="M14.6943 6.46872C14.0028 4.93858 12.3932 3.94795 10.6314 4.12073C8.84142 4.29626 7.439 5.61922 7.08454 7.29145C6.91505 8.0911 6.27513 8.66755 5.59627 8.90009C4.75737 9.18746 4.15592 9.98307 4.15592 10.9173C4.15592 12.0945 5.11026 13.0489 6.28749 13.0489L17.2039 13.0489L17.2086 13.0489L17.2143 13.0489L17.4596 13.0489C17.4961 13.0377 17.5338 13.0294 17.5726 13.024C18.8534 12.8472 19.8401 11.7469 19.8401 10.4173C19.8401 8.96393 18.662 7.78573 17.2086 7.78573C17.1436 7.78573 17.0792 7.78808 17.0156 7.79267C16.1196 7.85735 15.1003 7.36695 14.6943 6.46872ZM10.4927 2.70646C12.879 2.47244 15.0546 3.81522 15.9893 5.88349C16.1149 6.16151 16.522 6.40355 16.9133 6.3753C17.0109 6.36826 17.1094 6.36468 17.2086 6.36468C19.4468 6.36468 21.2612 8.17911 21.2612 10.4173C21.2612 12.4044 19.8318 14.0564 17.9449 14.4031C17.8522 14.446 17.7489 14.4699 17.6401 14.4699L6.28749 14.4699C4.32543 14.4699 2.73486 12.8794 2.73486 10.9173C2.73486 9.3573 3.73992 8.03388 5.13575 7.55573C5.43991 7.45154 5.64841 7.21366 5.69438 6.99679C6.17359 4.73596 8.06846 2.9442 10.4927 2.70646Z" fill="black"/>
<path fill-rule="evenodd" clip-rule="evenodd" d="M7.47572 16.5449C7.76861 16.8378 7.76861 17.3126 7.47572 17.6055L6.47572 18.6055C6.18283 18.8984 5.70795 18.8984 5.41506 18.6055C5.12217 18.3126 5.12217 17.8378 5.41506 17.5449L6.41506 16.5449C6.70795 16.252 7.18283 16.252 7.47572 16.5449Z" fill="black"/>
<path fill-rule="evenodd" clip-rule="evenodd" d="M12.4757 16.5449C12.7686 16.8378 12.7686 17.3126 12.4757 17.6055L11.4757 18.6055C11.1828 18.8984 10.708 18.8984 10.4151 18.6055C10.1222 18.3126 10.1222 17.8378 10.4151 17.5449L11.4151 16.5449C11.708 16.252 12.1828 16.252 12.4757 16.5449Z" fill="black"/>
<path fill-rule="evenodd" clip-rule="evenodd" d="M17.4757 16.5449C17.7686 16.8378 17.7686 17.3126 17.4757 17.6055L16.4757 18.6055C16.1828 18.8984 15.708 18.8984 15.4151 18.6055C15.1222 18.3126 15.1222 17.8378 15.4151 17.5449L16.4151 16.5449C16.708 16.252 17.1828 16.252 17.4757 16.5449Z" fill="black"/>
<path fill-rule="evenodd" clip-rule="evenodd" d="M8.97572 19.0449C9.26861 19.3378 9.26861 19.8126 8.97572 20.1055L7.97572 21.1055C7.68283 21.3984 7.20795 21.3984 6.91506 21.1055C6.62217 20.8126 6.62217 20.3378 6.91506 20.0449L7.91506 19.0449C8.20795 18.752 8.68283 18.752 8.97572 19.0449Z" fill="black"/>
<path fill-rule="evenodd" clip-rule="evenodd" d="M13.9757 19.0449C14.2686 19.3378 14.2686 19.8126 13.9757 20.1055L12.9757 21.1055C12.6828 21.3984 12.208 21.3984 11.9151 21.1055C11.6222 20.8126 11.6222 20.3378 11.9151 20.0449L12.9151 19.0449C13.208 18.752 13.6828 18.752 13.9757 19.0449Z" fill="black"/>
</svg>
