<svg width="24" height="24" viewBox="0 0 24 24" fill="none" xmlns="http://www.w3.org/2000/svg">
<path d="M8.48843 1C7.57284 1 6.8306 1.72841 6.8306 2.62695V2.79687C6.8306 2.98767 6.63352 3.11759 6.45354 3.04544C5.87891 2.81511 5.21956 2.94548 4.78064 3.37622L4.68408 3.47098C3.90724 4.23335 4.03174 5.50182 4.94257 6.10466L6.01747 6.81609C6.59829 6.12332 7.37673 5.58133 8.29573 5.28071C9.73497 4.8099 11.264 5.01527 12.4903 5.75258C13.0849 5.11795 13.1011 4.09833 12.4386 3.44815L12.3653 3.37621C11.9264 2.94548 11.267 2.81511 10.6924 3.04544C10.5124 3.11759 10.3153 2.98767 10.3153 2.79687V2.62695C10.3153 1.72841 9.57309 1 8.6575 1H8.48843Z" fill="black"/>
<path fill-rule="evenodd" clip-rule="evenodd" d="M12.873 8.20276C12.0404 6.81549 10.3331 6.18794 8.77676 6.69707C7.97678 6.95876 7.32992 7.48335 6.91393 8.14738C5.99661 8.41098 4.51587 8.91764 3.50964 9.58565C3.30099 9.72416 3.1303 9.91921 3.04896 10.1669C2.9671 10.4162 2.99271 10.6688 3.08995 10.884C3.27961 11.3039 3.71256 11.5517 4.16687 11.5932C4.98593 11.668 5.38438 11.8188 5.64153 11.9366C5.67752 11.9531 5.71768 11.9733 5.76188 11.9955C5.84804 12.0389 5.94956 12.0899 6.06543 12.1363L4.59034 13.5839C4.09582 14.0692 3.92314 14.7871 4.14429 15.4382C4.52929 16.5717 5.90715 17.0356 6.92015 16.3729L7.09085 16.2612C7.17965 16.6655 7.29067 17.0638 7.4231 17.4546L9.1309 15.2667C9.54575 14.7352 10.2436 14.4978 10.9047 14.6632L11.6908 14.8598C11.9383 14.9217 12.1868 14.7626 12.2288 14.5153L12.4021 13.4952C12.5533 12.6047 13.3973 11.9927 14.3091 12.1125L17.6874 12.5562L14.2366 9.96651C13.87 9.6914 13.5611 9.34929 13.3269 8.95905L12.873 8.20276ZM4.5984 10.3881C5.14906 10.0839 5.81396 9.81827 6.41402 9.61189C6.38858 9.87554 6.39423 10.1456 6.4338 10.4174L6.51403 10.9685L6.46295 10.9439C6.39742 10.9121 6.30768 10.8686 6.17793 10.8092C5.83044 10.65 5.36686 10.4848 4.5984 10.3881ZM5.48689 14.4637L6.81782 13.1576C6.82643 13.2805 6.83074 13.4037 6.83074 13.527V13.8643C6.83074 14.2131 6.84705 14.5601 6.87921 14.9042L6.21684 15.3375C5.89946 15.5452 5.46776 15.3998 5.34714 15.0447C5.27785 14.8407 5.33195 14.6158 5.48689 14.4637ZM10.5224 10.2333C10.5224 10.6683 10.163 11.021 9.71972 11.021C9.27644 11.021 8.91708 10.6683 8.91708 10.2333C8.91708 9.79829 9.27644 9.44563 9.71972 9.44563C10.163 9.44563 10.5224 9.79829 10.5224 10.2333Z" fill="black"/>
<path d="M19.715 14.0779L14.1409 13.3458C13.9075 13.3151 13.6915 13.4718 13.6527 13.6997L13.4795 14.7199C13.3154 15.6859 12.3445 16.3074 11.3776 16.0655L10.5915 15.8689C10.4223 15.8266 10.2436 15.8873 10.1374 16.0234L7.97528 18.7933C8.68611 20.2445 9.71104 21.5483 11.0019 22.604L11.2365 22.7958C11.6819 23.1602 12.3573 23.02 12.6143 22.5099L13.3841 20.9821C13.4751 20.8016 13.6819 20.7077 13.881 20.7566L14.3005 20.8595C15.112 21.0586 15.9507 20.6503 16.2802 19.8958L17.2485 17.6786C17.3172 17.5212 17.4749 17.4191 17.6494 17.4191H19.3742C20.9259 17.4191 21.5925 15.4868 20.3599 14.5618L19.715 14.0779Z" fill="black"/>
</svg>
