<svg width="24" height="24" viewBox="0 0 24 24" fill="none" xmlns="http://www.w3.org/2000/svg">
<path fill-rule="evenodd" clip-rule="evenodd" d="M16.7227 12.4453C16.9163 12.4454 17.0935 12.4939 17.252 12.5908C17.4104 12.6879 17.533 12.8257 17.6211 13.002L21.8535 20.4131C21.9592 20.5718 22.0077 20.7485 21.999 20.9424C21.9902 21.1364 21.9416 21.3139 21.8535 21.4727C21.7479 21.6311 21.6153 21.7585 21.457 21.8555C21.2984 21.9525 21.1216 22.0019 20.9277 22.002H12.4639C12.2701 22.0019 12.098 21.9524 11.9482 21.8555C11.7987 21.7586 11.6711 21.631 11.5654 21.4727C11.4773 21.3139 11.4278 21.1413 11.4189 20.9561C11.4102 20.7708 11.45 20.5895 11.5381 20.4131L15.7705 13.002C15.8763 12.8432 16.0132 12.7103 16.1807 12.6045C16.348 12.4989 16.529 12.4453 16.7227 12.4453ZM16.75 19.25C16.3359 19.2501 16 19.5859 16 20C16 20.4141 16.3359 20.7499 16.75 20.75C17.1641 20.7499 17.5 20.4141 17.5 20C17.5 19.5859 17.1641 19.2501 16.75 19.25ZM16.75 14.75C16.3359 14.7501 16 15.0859 16 15.5V17.25C16 17.6641 16.3359 17.9999 16.75 18C17.1641 17.9999 17.5 17.6641 17.5 17.25V15.5C17.5 15.0859 17.1641 14.7501 16.75 14.75Z" fill="black"/>
<path fill-rule="evenodd" clip-rule="evenodd" d="M4.29395 15.9414C4.29407 16.8915 5.0645 17.6621 6.01465 17.6621H11.3809L10.2344 19.6689L10.2139 19.7051L10.1953 19.7432C10.1606 19.8126 10.1302 19.8839 10.1016 19.9561H9.75V20.75C9.75 21.4404 9.19036 22 8.5 22H6.5C5.80964 22 5.25 21.4404 5.25 20.75V19.9561H3.7207C2.77047 19.9561 2.00003 19.1856 2 18.2354V15.0811H4.29395V15.9414ZM6.75 20.5H8.25V20H6.75V20.5Z" fill="black"/>
<path d="M10.6025 10.2061C11.236 10.2061 11.7499 10.7191 11.75 11.3525C11.75 11.986 11.236 12.5 10.6025 12.5C9.96923 12.4998 9.45605 11.9859 9.45605 11.3525C9.45615 10.7193 9.96929 10.2063 10.6025 10.2061Z" fill="black"/>
<path fill-rule="evenodd" clip-rule="evenodd" d="M15.1914 6.19141C15.508 6.19153 15.7646 6.448 15.7646 6.76465V11.1377C15.6314 11.1932 15.5019 11.2592 15.3789 11.3369C15.04 11.5512 14.7479 11.8301 14.5215 12.1699L14.4932 12.2129L14.4668 12.2578L12.0361 16.5146H6.01465C5.698 16.5146 5.44153 16.258 5.44141 15.9414V6.76465C5.44144 6.44794 5.69794 6.19144 6.01465 6.19141H15.1914ZM10.6025 9.05859C9.33578 9.05882 8.30869 10.0858 8.30859 11.3525C8.30859 12.6194 9.33572 13.6463 10.6025 13.6465C11.8695 13.6465 12.8975 12.6195 12.8975 11.3525C12.8974 10.0856 11.8695 9.05859 10.6025 9.05859Z" fill="black"/>
<path d="M4.29395 13.9336H2V8.77246H4.29395V13.9336Z" fill="black"/>
<path d="M17.4854 2.75C18.4356 2.75003 19.2061 3.52047 19.2061 4.4707V12.7529L18.9229 12.2578C18.7209 11.8834 18.4273 11.5521 18.0342 11.3115L17.8799 11.2246C17.5735 11.0658 17.2459 10.9774 16.9121 10.9531V6.76465C16.9121 5.8145 16.1415 5.04407 15.1914 5.04395H6.01465C5.06444 5.04398 4.29398 5.81444 4.29395 6.76465V7.625H2V4.4707C2 3.52045 2.77045 2.75 3.7207 2.75H17.4854Z" fill="black"/>
</svg>
