<svg width="24" height="24" viewBox="0 0 24 24" fill="none" xmlns="http://www.w3.org/2000/svg">
<path d="M5.8668 5.8127C6.15968 6.1056 6.15967 6.58048 5.86677 6.87336C5.19351 7.54659 4.65944 8.34584 4.29507 9.22548C3.9307 10.1051 3.74316 11.0479 3.74316 12C3.74316 12.9521 3.9307 13.8949 4.29507 14.7746C4.65944 15.6542 5.19351 16.4534 5.86677 17.1267C6.15967 17.4196 6.15968 17.8944 5.8668 18.1873C5.57391 18.4802 5.09904 18.4802 4.80614 18.1874C3.99358 17.3748 3.34902 16.4102 2.90926 15.3486C2.4695 14.287 2.24316 13.1491 2.24316 12C2.24316 10.8509 2.4695 9.71306 2.90926 8.65143C3.34902 7.58981 3.99358 6.62519 4.80614 5.81267C5.09904 5.51979 5.57391 5.5198 5.8668 5.8127Z" fill="black"/>
<path d="M18.1259 5.8127C18.4188 5.5198 18.8937 5.51979 19.1866 5.81267C19.9991 6.62519 20.6437 7.58981 21.0834 8.65143C21.5232 9.71306 21.7495 10.8509 21.7495 12C21.7495 13.1491 21.5232 14.287 21.0834 15.3486C20.6437 16.4102 19.9991 17.3748 19.1866 18.1874C18.8937 18.4802 18.4188 18.4802 18.1259 18.1873C17.833 17.8944 17.833 17.4196 18.1259 17.1267C18.7992 16.4534 19.3333 15.6542 19.6976 14.7746C20.062 13.8949 20.2495 12.9521 20.2495 12C20.2495 11.0479 20.062 10.1051 19.6976 9.22548C19.3333 8.34584 18.7992 7.54659 18.1259 6.87336C17.833 6.58048 17.833 6.1056 18.1259 5.8127Z" fill="black"/>
<path d="M16.2974 8.64159C16.5903 8.34874 17.0652 8.34881 17.358 8.64175C18.2485 9.5325 18.7488 10.7405 18.7488 12C18.7488 13.2595 18.2485 14.4675 17.358 15.3582C17.0652 15.6512 16.5903 15.6513 16.2974 15.3584C16.0044 15.0656 16.0044 14.5907 16.2972 14.2977C16.9065 13.6883 17.2488 12.8618 17.2488 12C17.2488 11.1382 16.9065 10.3117 16.2972 9.70225C16.0044 9.40931 16.0044 8.93444 16.2974 8.64159Z" fill="black"/>
<path d="M7.69765 9.70225C7.9905 9.40931 7.99043 8.93444 7.69749 8.64159C7.40455 8.34874 6.92968 8.34881 6.63683 8.64175C5.74634 9.5325 5.24609 10.7405 5.24609 12C5.24609 13.2595 5.74634 14.4675 6.63683 15.3582C6.92968 15.6512 7.40455 15.6513 7.69749 15.3584C7.99043 15.0656 7.9905 14.5907 7.69765 14.2977C7.08837 13.6883 6.74609 12.8618 6.74609 12C6.74609 11.1382 7.08837 10.3117 7.69765 9.70225Z" fill="black"/>
<path d="M11.999 8.25C10.7564 8.25 9.74902 9.25736 9.74902 10.5C9.74902 11.7426 10.7564 12.75 11.999 12.75C12.4132 12.75 12.749 13.0858 12.749 13.5C12.749 13.9142 12.4132 14.25 11.999 14.25H10.499C10.0848 14.25 9.74902 14.5858 9.74902 15C9.74902 15.4142 10.0848 15.75 10.499 15.75H11.999C13.2417 15.75 14.249 14.7426 14.249 13.5C14.249 12.2574 13.2417 11.25 11.999 11.25C11.5848 11.25 11.249 10.9142 11.249 10.5C11.249 10.0858 11.5848 9.75 11.999 9.75H13.499C13.9132 9.75 14.249 9.41421 14.249 9C14.249 8.58579 13.9132 8.25 13.499 8.25H11.999Z" fill="black"/>
</svg>
