<svg width="24" height="24" viewBox="0 0 24 24" fill="none" xmlns="http://www.w3.org/2000/svg">
<path d="M5.125 8.875C6.57848 8.875 7.80359 9.87242 8.15137 11.2188H9.46875C9.90022 11.2188 10.25 11.5685 10.25 12C10.25 12.4315 9.90022 12.7812 9.46875 12.7812H8.15137C7.80355 14.1276 6.57848 15.125 5.125 15.125V17.3125C5.125 17.7433 5.47547 18.0938 5.90625 18.0938H8.97363C9.32145 16.7474 10.5465 15.75 12 15.75C13.4535 15.75 14.6786 16.7474 15.0264 18.0938H19.333L19.1035 17.8652C18.7984 17.5602 18.7984 17.0649 19.1035 16.7598C19.4086 16.4547 19.9039 16.4547 20.209 16.7598L21.7715 18.3223C21.8902 18.4393 21.9777 18.6109 21.9961 18.7979C22.0012 18.8492 22.0012 18.9008 21.9961 18.9521C21.9779 19.1367 21.8902 19.3108 21.7715 19.4277L20.209 20.9902C19.9039 21.2953 19.4086 21.2953 19.1035 20.9902C18.7984 20.6852 18.7984 20.1899 19.1035 19.8848L19.333 19.6562H15.0264C14.6786 21.0026 13.4535 22 12 22C10.5465 22 9.32141 21.0026 8.97363 19.6562H5.90625C4.61391 19.6562 3.5625 18.6048 3.5625 17.3125V14.7041C2.62949 14.1629 2 13.1541 2 12C2 10.2769 3.40188 8.875 5.125 8.875Z" fill="black"/>
<path d="M12 2C13.4535 2 14.6785 2.99742 15.0264 4.34375H18.0938C19.3861 4.34375 20.4375 5.39516 20.4375 6.6875V9.2959C21.3705 9.83709 22 10.8459 22 12C22 13.7231 20.5981 15.125 18.875 15.125C17.4215 15.125 16.1964 14.1276 15.8486 12.7812L14.5254 12.7764C14.0966 12.7746 13.75 12.4258 13.75 11.9971C13.7502 11.5673 14.0985 11.2189 14.5283 11.2188H15.8486C16.1964 9.87242 17.4215 8.875 18.875 8.875V6.6875C18.875 6.25672 18.5245 5.90625 18.0938 5.90625H15.0264C14.6786 7.25258 13.4535 8.25 12 8.25C10.2769 8.25 8.875 6.84812 8.875 5.125C8.875 3.40188 10.2769 2 12 2Z" fill="black"/>
<path d="M12 13.5C12.4142 13.5 12.75 13.8358 12.75 14.25C12.75 14.6642 12.4142 15 12 15C11.5859 14.9999 11.25 14.6641 11.25 14.25C11.25 13.8359 11.5859 13.5001 12 13.5Z" fill="black"/>
<path d="M12 9C12.4142 9 12.75 9.33579 12.75 9.75V11.5C12.75 11.9142 12.4142 12.25 12 12.25C11.5859 12.2499 11.25 11.9141 11.25 11.5V9.75C11.25 9.33586 11.5859 9.00012 12 9Z" fill="black"/>
<path d="M5.19727 3.00977C5.50234 2.70465 5.99762 2.70465 6.30273 3.00977L7.86523 4.57227C8.17035 4.87734 8.17035 5.37266 7.86523 5.67773L6.30273 7.24023C5.99766 7.54535 5.50238 7.54535 5.19727 7.24023C4.89215 6.93516 4.89215 6.43988 5.19727 6.13477L5.42676 5.90625H2.78125C2.34977 5.90625 2 5.55648 2 5.125C2.00001 4.69352 2.34977 4.34375 2.78125 4.34375H5.42676L5.19727 4.11523C4.89215 3.81016 4.89219 3.31488 5.19727 3.00977Z" fill="black"/>
</svg>
