<svg width="24" height="24" viewBox="0 0 24 24" fill="none" xmlns="http://www.w3.org/2000/svg">
<path fill-rule="evenodd" clip-rule="evenodd" d="M17.3036 10.4357C17.3036 11.9081 16.9443 13.0774 16.2873 13.9797C15.9169 14.4882 15.4684 14.8893 14.9753 15.2059C14.8863 15.2917 14.7782 15.3563 14.6598 15.394C14.3751 15.5514 14.0787 15.684 13.7765 15.7958C12.164 16.3921 10.2492 16.4362 8.74669 16.4371C8.4054 17.5191 7.39389 18.3036 6.19916 18.3036H5.26555C4.82175 18.3036 4.46198 17.9438 4.46198 17.5C4.46198 16.7733 4.75224 16.1143 5.22316 15.6328C4.75224 15.1512 4.46198 14.4923 4.46198 13.7656C4.46198 13.3218 4.82175 12.962 5.26555 12.962H6.19916C7.22875 12.962 8.12227 13.5446 8.56804 14.3981C8.82392 14.2464 9.06125 14.1063 9.28154 13.9762C10.3346 13.3546 10.9982 12.9628 11.435 12.6337C11.7321 12.41 11.8397 12.2739 11.8879 12.1848C11.9287 12.1095 11.962 12.0046 11.962 11.7572C11.962 11.2133 11.5211 10.7725 10.9773 10.7725H9.03111C7.59127 10.7725 6.26189 10.2143 5.26714 9.29942H2.43358C1.98978 9.29942 1.63 8.93965 1.63 8.49585C1.63 8.05205 1.98978 7.69228 2.43358 7.69228H4.05775C3.81343 7.20027 3.64165 6.66658 3.55712 6.10438H2.9004C1.68316 6.10438 0.696411 5.11763 0.696411 3.9004C0.696411 2.68316 1.68316 1.69641 2.9004 1.69641H9.93359C10.3774 1.69641 10.7372 2.05618 10.7372 2.49998C10.7372 2.94378 10.3774 3.30355 9.93359 3.30355H2.9004C2.57076 3.30355 2.30355 3.57076 2.30355 3.9004C2.30355 4.23003 2.57076 4.49724 2.9004 4.49724H11.3651C14.6448 4.49724 17.3036 7.15597 17.3036 10.4357ZM14.2607 13.7493C14.5422 13.5476 14.7861 13.3109 14.9881 13.0335C15.3519 12.5341 15.6187 11.8494 15.682 10.8868C15.0845 11.3377 14.3585 11.6279 13.5683 11.6924C13.5689 11.7139 13.5691 11.7355 13.5691 11.7572C13.5691 12.1526 13.5159 12.553 13.3016 12.9493C13.2828 12.984 13.2632 13.018 13.2427 13.0514C13.5152 13.3635 13.8647 13.606 14.2607 13.7493ZM12.0713 14.1526C12.1883 14.2828 12.3136 14.4054 12.4465 14.5196C12.0313 14.6184 11.5975 14.6857 11.1557 14.7317C11.5118 14.5161 11.8155 14.3259 12.0713 14.1526ZM5.19117 6.10438H9.19194L9.19548 6.10439H9.49791C10.3431 6.10439 11.0284 6.78961 11.0284 7.63485C11.0284 8.48008 10.3431 9.1653 9.49791 9.1653L9.49376 9.16531H9.03111C7.1617 9.16531 5.57223 7.84463 5.19117 6.10438ZM12.2907 6.20351C13.7051 6.51141 14.8615 7.5103 15.3886 8.82882C14.9676 9.58726 14.159 10.0989 13.2324 10.0989C13.1389 10.0989 13.0469 10.0938 12.9565 10.0837C12.7182 9.80212 12.4209 9.57206 12.0836 9.41263C12.4317 8.90729 12.6355 8.29487 12.6355 7.63485C12.6355 7.11923 12.5111 6.63266 12.2907 6.20351ZM6.84955 16.4745C6.71449 16.5117 6.5902 16.5749 6.48238 16.6583C6.61743 16.6211 6.74172 16.5579 6.84955 16.4745ZM6.84955 14.7911C6.74172 14.7077 6.61743 14.6445 6.48238 14.6073C6.5902 14.6907 6.71449 14.7539 6.84955 14.7911Z" fill="black"/>
<path fill-rule="evenodd" clip-rule="evenodd" d="M19.1286 12.0698C18.2164 12.0698 17.477 12.8093 17.477 13.7215V14.7448C16.9027 14.9158 16.4512 15.3919 16.3288 16.004L16.3023 16.1365C16.077 17.2633 15.9522 18.0259 15.9522 18.8032C15.9522 19.5806 16.077 20.3431 16.3023 21.47L16.3288 21.6025C16.4832 22.3745 17.1611 22.9302 17.9484 22.9302H21.2594C22.0466 22.9302 22.7245 22.3745 22.8789 21.6024L22.9054 21.47C23.1308 20.3431 23.2555 19.5806 23.2555 18.8032C23.2555 18.0259 23.1308 17.2633 22.9054 16.1365L22.8789 16.004C22.7565 15.3919 22.305 14.9158 21.7308 14.7448V13.7215C21.7308 12.8093 20.9913 12.0698 20.0792 12.0698H19.1286ZM17.9469 15.9796H21.2608C21.4263 15.9802 21.5685 16.0973 21.601 16.2596L21.6275 16.392C21.852 17.5148 21.9522 18.1664 21.9522 18.8032C21.9522 19.4401 21.852 20.0917 21.6275 21.2144L21.601 21.3469C21.5684 21.5097 21.4254 21.6269 21.2594 21.6269H17.9484C17.7823 21.6269 17.6393 21.5097 17.6067 21.3469L17.5803 21.2144C17.3557 20.0917 17.2555 19.4401 17.2555 18.8032C17.2555 18.1664 17.3557 17.5148 17.5803 16.392L17.6067 16.2596C17.6392 16.0973 17.7815 15.9802 17.9469 15.9796ZM20.4276 14.6763V13.7215C20.4276 13.5291 20.2716 13.3731 20.0792 13.3731H19.1286C18.9362 13.3731 18.7802 13.5291 18.7802 13.7215V14.6763L20.4276 14.6763Z" fill="black"/>
</svg>
