<svg width="24" height="24" viewBox="0 0 24 24" fill="none" xmlns="http://www.w3.org/2000/svg">
<path d="M10.8281 7.69531C10.4139 7.69531 10.0781 8.03111 10.0781 8.44531C10.0781 8.85951 10.4139 9.19531 10.8281 9.19531C11.2423 9.19531 11.5781 8.85951 11.5781 8.44531C11.5781 8.03111 11.2423 7.69531 10.8281 7.69531Z" fill="black"/>
<path fill-rule="evenodd" clip-rule="evenodd" d="M20.938 16.843C21.7243 15.7634 22.1641 14.352 22.1641 12.5469C22.1641 8.57301 18.9426 5.35156 14.9688 5.35156H6.10366L6.10156 5.35156L6.09947 5.35156H4.34375C3.78714 5.35156 3.33594 4.90036 3.33594 4.34375C3.33594 3.78714 3.78714 3.33594 4.34375 3.33594H13.1719C13.5861 3.33594 13.9219 3.00015 13.9219 2.58594C13.9219 2.17172 13.5861 1.83594 13.1719 1.83594H4.34375C2.95872 1.83594 1.83594 2.95871 1.83594 4.34375C1.83594 5.72878 2.95872 6.85156 4.34375 6.85156H5.39463C5.42784 7.1389 5.47989 7.42055 5.54946 7.69531H3.75781C3.3436 7.69531 3.00781 8.0311 3.00781 8.44531C3.00781 8.85953 3.3436 9.19531 3.75781 9.19531H6.13579C7.27059 11.2902 9.51327 12.7109 12.0391 12.7109H12.622L12.625 12.7109L14.4819 12.7109C15.3073 12.7109 15.9766 13.3801 15.9766 14.2056C15.9766 14.54 15.9315 14.7192 15.8525 14.8654C15.7664 15.0245 15.5978 15.2219 15.2121 15.5124C14.6516 15.9347 13.7998 16.4376 12.4666 17.2246C12.1253 17.4261 11.7521 17.6464 11.3444 17.8886C10.8802 16.7663 9.7745 15.9766 8.48438 15.9766H7.3125C6.89829 15.9766 6.5625 16.3124 6.5625 16.7266C6.5625 17.6634 6.97891 18.503 7.63674 19.0703C6.97891 19.6376 6.5625 20.4772 6.5625 21.4141C6.5625 21.8283 6.89829 22.1641 7.3125 22.1641H8.48438C9.93406 22.1641 11.1509 21.167 11.4864 19.8212C13.4022 19.8227 15.8573 19.7899 17.9058 19.0324C18.2831 18.8928 18.6513 18.7273 19.0033 18.5308C19.1304 18.4948 19.2459 18.4258 19.3376 18.3315C19.9422 17.9469 20.4888 17.4599 20.938 16.843ZM19.7254 15.96C19.4275 16.3691 19.0635 16.7098 18.6438 16.993C17.9874 16.7852 17.4173 16.3801 17.0042 15.8465C17.0658 15.7605 17.1218 15.6716 17.1719 15.5789C17.413 15.1332 17.4766 14.6781 17.4766 14.2056C17.4766 14.0958 17.4707 13.9874 17.4591 13.8807C18.7017 13.8438 19.8262 13.3398 20.6641 12.5389L20.6641 12.5469C20.6641 14.1021 20.2888 15.1865 19.7254 15.96ZM16.8972 17.788C16.523 17.5288 16.1871 17.2185 15.8997 16.8672C15.3596 17.2489 14.6177 17.6957 13.6314 18.2793C14.7519 18.2232 15.8776 18.0923 16.8972 17.788ZM16.8315 12.3487C16.9882 12.3712 17.1488 12.3828 17.3125 12.3828C18.6171 12.3828 19.7491 11.6373 20.3029 10.5467C19.5657 8.58156 17.7737 7.13217 15.6164 6.88798C16.0496 7.49155 16.3047 8.23162 16.3047 9.03125C16.3047 9.92179 15.9883 10.7384 15.4619 11.375C16.0069 11.5636 16.4806 11.9053 16.8315 12.3487ZM12.63 11.2109C13.8315 11.2082 14.8047 10.2334 14.8047 9.03125C14.8047 7.82746 13.8288 6.85156 12.625 6.85156H12.2454L12.2433 6.85156H6.90816C7.28205 9.30869 9.46122 11.2109 12.0391 11.2109H12.63ZM9.65625 19.8203H9.89098C9.6227 20.3224 9.09343 20.6641 8.48438 20.6641H8.24965C8.51793 20.162 9.04719 19.8203 9.65625 19.8203ZM8.48438 17.4766C9.09343 17.4766 9.6227 17.8182 9.89098 18.3203H9.65625C9.04719 18.3203 8.51793 17.9787 8.24965 17.4766H8.48438Z" fill="black"/>
</svg>
