<svg width="24" height="24" viewBox="0 0 24 24" fill="none" xmlns="http://www.w3.org/2000/svg">
<path fill-rule="evenodd" clip-rule="evenodd" d="M17.8128 13.4221C17.8128 14.5287 17.5425 15.4212 17.0367 16.1157C16.5334 16.8069 15.8447 17.2361 15.1213 17.5036C13.8078 17.9894 12.2333 17.9861 11.1023 17.9837L10.8912 17.9834C10.8829 17.9835 10.8745 17.9835 10.8662 17.9833H10.1935C9.02306 17.9833 8.07422 17.0345 8.07422 15.864C8.07422 15.4498 8.41001 15.114 8.82422 15.114H9.50887C10.2653 15.114 10.9292 15.5103 11.3042 16.1066C11.444 16.0239 11.5756 15.9462 11.6995 15.873C12.4645 15.4214 12.939 15.1413 13.2518 14.9057C13.4616 14.7476 13.5198 14.6644 13.5393 14.6284C13.5518 14.6052 13.5742 14.5579 13.5742 14.3912C13.5742 14.0812 13.3229 13.8298 13.0128 13.8298H11.5856C10.511 13.8298 9.51661 13.4219 8.76345 12.7496H6.74747C6.33326 12.7496 5.99747 12.4138 5.99747 11.9996C5.99747 11.5854 6.33326 11.2496 6.74747 11.2496H7.68794C7.57503 10.9817 7.4896 10.6996 7.43534 10.4066H7.08978C6.10838 10.4066 5.31281 9.61101 5.31281 8.62961C5.31281 7.64822 6.10838 6.85264 7.08978 6.85264C7.50399 6.85264 7.83978 7.18843 7.83978 7.60264C7.83978 8.01686 7.50399 8.35264 7.08978 8.35264C6.93681 8.35264 6.81281 8.47664 6.81281 8.62961C6.81281 8.78259 6.93681 8.90658 7.08978 8.90658H8.11275L8.11676 8.90657L8.12077 8.90658H11.702L11.7061 8.90657H11.9279L11.9354 8.90658H13.2972C15.7911 8.90658 17.8128 10.9283 17.8128 13.4221ZM16.267 14.0775C16.1911 14.5825 16.0276 14.9534 15.8242 15.2326C15.5391 15.6242 15.1269 15.9023 14.601 16.0968C14.3714 16.1817 14.1287 16.248 13.8772 16.2998C13.9792 16.2312 14.0715 16.1661 14.1544 16.1037C14.4388 15.8895 14.6912 15.6516 14.8587 15.3419C15.0148 15.0533 15.0641 14.7643 15.0727 14.4885C15.5045 14.4328 15.9086 14.2897 16.267 14.0775ZM16.0687 12.2316C15.7313 11.4472 15.0706 10.8346 14.2544 10.5616C14.342 10.8143 14.3895 11.0857 14.3895 11.3682C14.3895 11.8216 14.267 12.2464 14.0531 12.6112C14.2364 12.7185 14.4015 12.8533 14.543 13.0099C14.5837 13.0129 14.6249 13.0145 14.6666 13.0145C15.2582 13.0145 15.7783 12.7022 16.0687 12.2316ZM11.9326 10.4066H8.97756C9.31144 11.5115 10.3606 12.3298 11.5856 12.3298H11.9279C12.459 12.3298 12.8895 11.8993 12.8895 11.3682C12.8895 10.8387 12.4615 10.4091 11.9326 10.4066Z" fill="black"/>
<path fill-rule="evenodd" clip-rule="evenodd" d="M4.42129 20.7204L5.85148 20.3372C5.97146 20.305 6.09755 20.3032 6.21842 20.3318C7.58885 20.6563 9.72526 20.8279 11.906 20.8279C14.0868 20.8279 16.2232 20.6563 17.5936 20.3318C17.7145 20.3032 17.8406 20.305 17.9606 20.3372L19.3907 20.7204L19.009 19.2958C18.9827 19.1978 18.9766 19.0955 18.9911 18.9951C19.645 14.4412 19.645 9.88846 18.9911 5.33465C18.9766 5.23422 18.9827 5.13192 19.009 5.03392L19.3907 3.60931L17.9606 3.99252C17.8406 4.02466 17.7145 4.02651 17.5936 3.99788C16.2232 3.67335 14.0868 3.50177 11.906 3.50177C9.72526 3.50177 7.58885 3.67335 6.21842 3.99788C6.09755 4.02651 5.97146 4.02466 5.85148 3.99252L4.4213 3.60931L4.803 5.03392C4.82926 5.13192 4.83536 5.23422 4.82094 5.33465C4.16696 9.88846 4.16696 14.4412 4.82094 18.9951C4.83536 19.0955 4.82926 19.1978 4.803 19.2958L4.42129 20.7204ZM2.85555 20.7684C2.60866 21.6898 3.45185 22.5331 4.37331 22.2862L6.06035 21.8341C7.59059 22.1688 9.76875 22.3279 11.906 22.3279C14.0433 22.3279 16.2214 22.1688 17.7517 21.8341L19.4386 22.2862C20.36 22.533 21.2034 21.6899 20.9565 20.7683L20.4975 19.0555C21.1429 14.4621 21.1429 9.86761 20.4975 5.2742L20.9565 3.56139C21.2034 2.63986 20.3601 1.79662 19.4387 2.04355L17.7517 2.49557C16.2214 2.16088 14.0433 2.00177 11.906 2.00177C9.76875 2.00177 7.5906 2.16088 6.06035 2.49557L4.37338 2.04356C3.45186 1.79662 2.60867 2.63991 2.85555 3.56133L3.31447 5.2742C2.66911 9.86761 2.66911 14.4621 3.31447 19.0555L2.85555 20.7684Z" fill="black"/>
</svg>
