<svg width="24" height="24" viewBox="0 0 24 24" fill="none" xmlns="http://www.w3.org/2000/svg">
<path fill-rule="evenodd" clip-rule="evenodd" d="M21 21.5C21.2761 21.5 21.5 21.2761 21.5 21C21.5 20.7239 21.2761 20.5 21 20.5C20.7239 20.5 20.5 20.7239 20.5 21C20.5 21.2761 20.7239 21.5 21 21.5ZM21 23C22.1046 23 23 22.1046 23 21C23 19.8954 22.1046 19 21 19C19.8954 19 19 19.8954 19 21C19 22.1046 19.8954 23 21 23Z" fill="black"/>
<path fill-rule="evenodd" clip-rule="evenodd" d="M18.5 17C18.7761 17 19 16.7761 19 16.5C19 16.2239 18.7761 16 18.5 16C18.2239 16 18 16.2239 18 16.5C18 16.7761 18.2239 17 18.5 17ZM18.5 18.5C19.6046 18.5 20.5 17.6046 20.5 16.5C20.5 15.3954 19.6046 14.5 18.5 14.5C17.3954 14.5 16.5 15.3954 16.5 16.5C16.5 17.6046 17.3954 18.5 18.5 18.5Z" fill="black"/>
<path fill-rule="evenodd" clip-rule="evenodd" d="M16 21.5C16.2761 21.5 16.5 21.2761 16.5 21C16.5 20.7239 16.2761 20.5 16 20.5C15.7239 20.5 15.5 20.7239 15.5 21C15.5 21.2761 15.7239 21.5 16 21.5ZM16 23C17.1046 23 18 22.1046 18 21C18 19.8954 17.1046 19 16 19C14.8954 19 14 19.8954 14 21C14 22.1046 14.8954 23 16 23Z" fill="black"/>
<path fill-rule="evenodd" clip-rule="evenodd" d="M17.3036 10.4357C17.3036 11.9081 16.9443 13.0774 16.2873 13.9797C15.917 14.4882 15.4685 14.8893 14.9754 15.2059C14.8863 15.2917 14.7782 15.3563 14.6598 15.394C14.3751 15.5514 14.0787 15.684 13.7765 15.7958C12.164 16.3921 10.2492 16.4362 8.74671 16.4371C8.40542 17.5191 7.39391 18.3036 6.19917 18.3036H5.26556C4.82176 18.3036 4.46199 17.9438 4.46199 17.5C4.46199 16.7733 4.75225 16.1143 5.22317 15.6328C4.75225 15.1512 4.46199 14.4923 4.46199 13.7656C4.46199 13.3218 4.82176 12.962 5.26556 12.962H6.19917C7.22876 12.962 8.12228 13.5446 8.56805 14.3981C8.82393 14.2464 9.06127 14.1063 9.28155 13.9762C10.3346 13.3546 10.9982 12.9628 11.4351 12.6337C11.7321 12.41 11.8397 12.2739 11.888 12.1848C11.9287 12.1095 11.962 12.0046 11.962 11.7572C11.962 11.2133 11.5211 10.7725 10.9773 10.7725H9.03113C7.59128 10.7725 6.26191 10.2143 5.26715 9.29942H2.43359C1.98979 9.29942 1.63002 8.93965 1.63002 8.49585C1.63002 8.05205 1.98979 7.69228 2.43359 7.69228H4.05776C3.81344 7.20027 3.64167 6.66658 3.55713 6.10438H2.90041C1.68318 6.10438 0.696426 5.11763 0.696426 3.9004C0.696426 2.68316 1.68318 1.69641 2.90041 1.69641H9.93361C10.3774 1.69641 10.7372 2.05618 10.7372 2.49998C10.7372 2.94378 10.3774 3.30355 9.93361 3.30355H2.90041C2.57078 3.30355 2.30357 3.57076 2.30357 3.9004C2.30357 4.23003 2.57078 4.49724 2.90041 4.49724H11.3651C14.6448 4.49724 17.3036 7.15597 17.3036 10.4357ZM14.2607 13.7493C14.5422 13.5476 14.7861 13.3109 14.9881 13.0335C15.3519 12.5341 15.6187 11.8494 15.682 10.8868C15.0845 11.3377 14.3585 11.6279 13.5683 11.6924C13.5689 11.7139 13.5691 11.7355 13.5691 11.7572C13.5691 12.1526 13.5159 12.553 13.3016 12.9493C13.2829 12.984 13.2632 13.018 13.2427 13.0514C13.5152 13.3635 13.8648 13.606 14.2607 13.7493ZM12.0713 14.1526C12.1883 14.2828 12.3137 14.4054 12.4465 14.5196C12.0313 14.6184 11.5975 14.6857 11.1558 14.7317C11.5118 14.5161 11.8155 14.3259 12.0713 14.1526ZM5.19119 6.10438H9.19195L9.19549 6.10439H9.49792C10.3432 6.10439 11.0284 6.78961 11.0284 7.63485C11.0284 8.48008 10.3432 9.1653 9.49792 9.1653L9.49377 9.16531H9.03113C7.16172 9.16531 5.57225 7.84463 5.19119 6.10438ZM12.2907 6.20351C13.7051 6.51141 14.8615 7.5103 15.3886 8.82882C14.9676 9.58726 14.159 10.0989 13.2324 10.0989C13.1389 10.0989 13.0469 10.0938 12.9566 10.0837C12.7182 9.80212 12.4209 9.57206 12.0836 9.41263C12.4317 8.90729 12.6355 8.29487 12.6355 7.63485C12.6355 7.11923 12.5111 6.63266 12.2907 6.20351ZM6.84956 16.4745C6.71451 16.5117 6.59021 16.5749 6.48239 16.6583C6.61745 16.6211 6.74174 16.5579 6.84956 16.4745ZM6.84956 14.7911C6.74174 14.7077 6.61745 14.6445 6.48239 14.6073C6.59021 14.6907 6.71451 14.7539 6.84956 14.7911Z" fill="black"/>
</svg>
