<svg width="24" height="24" viewBox="0 0 24 24" fill="none" xmlns="http://www.w3.org/2000/svg">
<path fill-rule="evenodd" clip-rule="evenodd" d="M17.3036 10.4357C17.3036 11.9082 16.9443 13.0774 16.2873 13.9797C15.9169 14.4882 15.4684 14.8893 14.9753 15.2059C14.8863 15.2918 14.7782 15.3564 14.6598 15.394C14.3751 15.5514 14.0787 15.684 13.7765 15.7958C12.164 16.3921 10.2492 16.4362 8.74669 16.4371C8.4054 17.5191 7.39389 18.3036 6.19916 18.3036H5.26555C4.82175 18.3036 4.46197 17.9438 4.46197 17.5C4.46197 16.7733 4.75224 16.1143 5.22316 15.6328C4.75224 15.1513 4.46197 14.4923 4.46197 13.7656C4.46197 13.3218 4.82175 12.962 5.26555 12.962H6.19916C7.22875 12.962 8.12227 13.5446 8.56804 14.3981C8.82392 14.2464 9.06125 14.1063 9.28154 13.9762C10.3346 13.3546 10.9982 12.9628 11.435 12.6337C11.7321 12.41 11.8397 12.274 11.8879 12.1848C11.9287 12.1095 11.962 12.0046 11.962 11.7572C11.962 11.2134 11.5211 10.7725 10.9773 10.7725H9.03111C7.59127 10.7725 6.26189 10.2143 5.26714 9.29944H2.43358C1.98978 9.29944 1.63 8.93966 1.63 8.49586C1.63 8.05206 1.98978 7.69229 2.43358 7.69229H4.05775C3.81343 7.20029 3.64165 6.66659 3.55712 6.1044H2.9004C1.68316 6.1044 0.696411 5.11765 0.696411 3.90041C0.696411 2.68318 1.68316 1.69643 2.9004 1.69643H9.93359C10.3774 1.69643 10.7372 2.0562 10.7372 2.5C10.7372 2.9438 10.3774 3.30357 9.93359 3.30357H2.9004C2.57076 3.30357 2.30355 3.57078 2.30355 3.90041C2.30355 4.23005 2.57076 4.49726 2.9004 4.49726H11.3651C14.6448 4.49726 17.3036 7.15598 17.3036 10.4357ZM14.2607 13.7493C14.5422 13.5476 14.7861 13.3109 14.9881 13.0335C15.3519 12.5341 15.6187 11.8494 15.682 10.8868C15.0845 11.3377 14.3585 11.6279 13.5683 11.6924C13.5689 11.7139 13.5691 11.7355 13.5691 11.7572C13.5691 12.1526 13.5159 12.553 13.3016 12.9493C13.2828 12.984 13.2632 13.018 13.2427 13.0514C13.5152 13.3635 13.8647 13.606 14.2607 13.7493ZM12.0713 14.1526C12.1883 14.2828 12.3136 14.4054 12.4465 14.5196C12.0313 14.6184 11.5975 14.6857 11.1557 14.7317C11.5118 14.5162 11.8155 14.3259 12.0713 14.1526ZM5.19117 6.1044H9.19194L9.19548 6.10441H9.49791C10.3431 6.10441 11.0284 6.78963 11.0284 7.63486C11.0284 8.4801 10.3431 9.16531 9.49791 9.16531L9.49375 9.16533H9.03111C7.1617 9.16533 5.57223 7.84465 5.19117 6.1044ZM12.2907 6.20352C13.7051 6.51143 14.8615 7.51032 15.3886 8.82883C14.9676 9.58727 14.159 10.0989 13.2324 10.0989C13.1389 10.0989 13.0469 10.0938 12.9565 10.0837C12.7182 9.80214 12.4209 9.57207 12.0836 9.41264C12.4317 8.90731 12.6355 8.29488 12.6355 7.63486C12.6355 7.11925 12.5111 6.63268 12.2907 6.20352ZM6.84955 16.4745C6.71449 16.5117 6.5902 16.5749 6.48238 16.6583C6.61743 16.6211 6.74172 16.5579 6.84955 16.4745ZM6.84955 14.7911C6.74172 14.7077 6.61743 14.6445 6.48238 14.6073C6.5902 14.6907 6.71449 14.7539 6.84955 14.7911Z" fill="black"/>
<path fill-rule="evenodd" clip-rule="evenodd" d="M13.7573 18.25C12.6834 19.324 12.6834 21.0652 13.7573 22.1391C14.8313 23.2131 16.5725 23.2131 17.6464 22.1391L21.8891 17.8965C22.963 16.8225 22.963 15.0813 21.8891 14.0074C20.8151 12.9335 19.0739 12.9335 18 14.0074L13.7573 18.25ZM14.818 21.0785C14.3298 20.5903 14.3298 19.7989 14.818 19.3107L16.409 17.7197L18.1767 19.4875L16.5857 21.0785C16.0976 21.5666 15.3061 21.5666 14.818 21.0785ZM19.2374 18.4268L20.8284 16.8358C21.3165 16.3477 21.3165 15.5562 20.8284 15.0681C20.3402 14.5799 19.5488 14.5799 19.0606 15.0681L17.4696 16.659L19.2374 18.4268Z" fill="black"/>
</svg>
