<svg width="24" height="24" viewBox="0 0 24 24" fill="none" xmlns="http://www.w3.org/2000/svg">
<path d="M2.9004 4.49724H10.5V10.7724H9.03111C7.59127 10.7724 6.26189 10.2143 5.26714 9.29941H2.43364C1.98984 9.29941 1.63007 8.93963 1.63007 8.49583C1.63007 8.05203 1.98984 7.69226 2.43364 7.69226H4.05775C3.81343 7.20026 3.64166 6.66657 3.55712 6.10438H2.9004C1.68316 6.10438 0.696411 5.11763 0.696411 3.9004C0.696411 2.68316 1.68316 1.69641 2.9004 1.69641H9.93359C10.3774 1.69641 10.7372 2.05618 10.7372 2.49998C10.7372 2.94378 10.3774 3.30355 9.93359 3.30355H2.9004C2.57076 3.30355 2.30355 3.57076 2.30355 3.9004C2.30355 4.23003 2.57076 4.49724 2.9004 4.49724Z" fill="black"/>
<path d="M12 4.53078C14.1241 4.75653 15.9138 6.10221 16.7673 7.96606L12 10.6086V4.53078Z" fill="black"/>
<path d="M16.2873 13.9797C16.9443 13.0774 17.3036 11.9081 17.3036 10.4357C17.3036 10.0932 17.2746 9.75741 17.2189 9.43076L11.6391 12.5237L15.5477 14.7803C15.8173 14.5484 16.0662 14.2832 16.2873 13.9797Z" fill="black"/>
<path d="M9.28188 13.976C9.63055 13.7702 9.93649 13.5896 10.2056 13.4281L14.0905 15.671C13.9867 15.7153 13.8819 15.7568 13.7765 15.7958C12.164 16.3921 10.2492 16.4362 8.74669 16.4371C8.40539 17.5191 7.39389 18.3036 6.19916 18.3036H5.26555C4.82175 18.3036 4.46198 17.9438 4.46198 17.5C4.46198 16.7732 4.75224 16.1143 5.22316 15.6328C4.75224 15.1512 4.46198 14.4923 4.46198 13.7655C4.46198 13.3217 4.82175 12.962 5.26555 12.962H6.19916C7.22875 12.962 8.12227 13.5446 8.56804 14.3981C8.82275 14.2471 9.05942 14.1073 9.27885 13.9778L9.28188 13.976Z" fill="black"/>
<path fill-rule="evenodd" clip-rule="evenodd" d="M21 21.5C21.2761 21.5 21.5 21.2761 21.5 21C21.5 20.7238 21.2761 20.5 21 20.5C20.7239 20.5 20.5 20.7238 20.5 21C20.5 21.2761 20.7239 21.5 21 21.5ZM21 23C22.1046 23 23 22.1045 23 21C23 19.8954 22.1046 19 21 19C19.8954 19 19 19.8954 19 21C19 22.1045 19.8954 23 21 23Z" fill="black"/>
<path fill-rule="evenodd" clip-rule="evenodd" d="M18.5 17C18.7761 17 19 16.7761 19 16.5C19 16.2238 18.7761 16 18.5 16C18.2239 16 18 16.2238 18 16.5C18 16.7761 18.2239 17 18.5 17ZM18.5 18.5C19.6046 18.5 20.5 17.6045 20.5 16.5C20.5 15.3954 19.6046 14.5 18.5 14.5C17.3954 14.5 16.5 15.3954 16.5 16.5C16.5 17.6045 17.3954 18.5 18.5 18.5Z" fill="black"/>
<path fill-rule="evenodd" clip-rule="evenodd" d="M16 21.5C16.2761 21.5 16.5 21.2761 16.5 21C16.5 20.7238 16.2761 20.5 16 20.5C15.7239 20.5 15.5 20.7238 15.5 21C15.5 21.2761 15.7239 21.5 16 21.5ZM16 23C17.1046 23 18 22.1045 18 21C18 19.8954 17.1046 19 16 19C14.8954 19 14 19.8954 14 21C14 22.1045 14.8954 23 16 23Z" fill="black"/>
</svg>
