<svg width="24" height="24" viewBox="0 0 24 24" fill="none" xmlns="http://www.w3.org/2000/svg">
<path d="M2.25 3C2.25 2.58579 2.58579 2.25 3 2.25H21C21.4142 2.25 21.75 2.58579 21.75 3C21.75 3.41421 21.4142 3.75 21 3.75H3C2.58579 3.75 2.25 3.41421 2.25 3Z" fill="black"/>
<path d="M2.25 21C2.25 20.5858 2.58579 20.25 3 20.25H21C21.4142 20.25 21.75 20.5858 21.75 21C21.75 21.4142 21.4142 21.75 21 21.75H3C2.58579 21.75 2.25 21.4142 2.25 21Z" fill="black"/>
<path d="M7.58939 8.84929C7.82981 8.78254 8.106 8.74689 8.39125 8.75021H8.4087C8.69395 8.74689 8.97014 8.78254 9.21056 8.84929C9.45387 8.91684 9.6306 9.00776 9.74107 9.09322C10.0395 9.32409 10.4042 9.48946 10.7881 9.59605C11.1722 9.70268 11.587 9.75381 12 9.74978C12.4129 9.75381 12.8277 9.70268 13.2118 9.59605C13.5957 9.48946 13.9604 9.32409 14.2589 9.09322C14.3693 9.00776 14.5461 8.91684 14.7894 8.84929C15.0298 8.78254 15.306 8.74689 15.5913 8.75021H15.6087C15.894 8.74689 16.1701 8.78254 16.4106 8.84929C16.6539 8.91684 16.8306 9.00776 16.9411 9.09322C17.2395 9.32409 17.6042 9.48946 17.9881 9.59605C18.3722 9.70268 18.787 9.75381 19.2 9.74978C19.6129 9.75381 20.0277 9.70268 20.4118 9.59605C20.7957 9.48946 21.1604 9.32409 21.4589 9.09322C21.7865 8.83977 21.8466 8.36872 21.5932 8.04109C21.3397 7.71347 20.8687 7.65334 20.5411 7.90678C20.4306 7.99224 20.2539 8.08316 20.0106 8.15071C19.7701 8.21746 19.494 8.25311 19.2087 8.24979H19.1913C18.906 8.25311 18.6298 8.21746 18.3894 8.15071C18.1461 8.08316 17.9693 7.99224 17.8589 7.90678C17.5604 7.67591 17.1957 7.51054 16.8118 7.40395C16.4277 7.29732 16.0129 7.24619 15.6 7.25022C15.187 7.24619 14.7722 7.29732 14.3881 7.40395C14.0042 7.51054 13.6395 7.67591 13.3411 7.90678C13.2306 7.99224 13.0539 8.08316 12.8106 8.15071C12.5701 8.21746 12.294 8.25311 12.0087 8.24979H11.9913C11.706 8.25311 11.4298 8.21746 11.1894 8.15071C10.9461 8.08316 10.7693 7.99224 10.6589 7.90678C10.3604 7.67591 9.99573 7.51054 9.61183 7.40395C9.22773 7.29732 8.81293 7.24619 8.39997 7.25022C7.98702 7.24619 7.57222 7.29732 7.18812 7.40395C6.80422 7.51054 6.43951 7.67591 6.14107 7.90678C6.0306 7.99224 5.85387 8.08316 5.61056 8.15071C5.37014 8.21746 5.09395 8.25311 4.8087 8.24979H4.79125C4.506 8.25311 4.22981 8.21746 3.98939 8.15071C3.74608 8.08316 3.56935 7.99224 3.45888 7.90678C3.13126 7.65334 2.66021 7.71347 2.40676 8.04109C2.15331 8.36872 2.21344 8.83977 2.54107 9.09322C2.83951 9.32409 3.20422 9.48946 3.58812 9.59605C3.97222 9.70268 4.38702 9.75381 4.79997 9.74978C5.21293 9.75381 5.62773 9.70268 6.01183 9.59605C6.39573 9.48946 6.76044 9.32409 7.05888 9.09322C7.16934 9.00776 7.34608 8.91684 7.58939 8.84929Z" fill="black"/>
<path d="M2.5 13.75C2.5 13.3358 2.83579 13 3.25 13C3.66421 13 4 13.3358 4 13.75C4 14.1642 3.66421 14.5 3.25 14.5C2.83579 14.5 2.5 14.1642 2.5 13.75Z" fill="black"/>
<path d="M8.25 13C7.83579 13 7.5 13.3358 7.5 13.75C7.5 14.1642 7.83579 14.5 8.25 14.5C8.66421 14.5 9 14.1642 9 13.75C9 13.3358 8.66421 13 8.25 13Z" fill="black"/>
<path d="M5 16.25C5 15.8358 5.33579 15.5 5.75 15.5C6.16421 15.5 6.5 15.8358 6.5 16.25C6.5 16.6642 6.16421 17 5.75 17C5.33579 17 5 16.6642 5 16.25Z" fill="black"/>
<path d="M13.25 13C12.8358 13 12.5 13.3358 12.5 13.75C12.5 14.1642 12.8358 14.5 13.25 14.5C13.6642 14.5 14 14.1642 14 13.75C14 13.3358 13.6642 13 13.25 13Z" fill="black"/>
<path d="M17.5 13.75C17.5 13.3358 17.8358 13 18.25 13C18.6642 13 19 13.3358 19 13.75C19 14.1642 18.6642 14.5 18.25 14.5C17.8358 14.5 17.5 14.1642 17.5 13.75Z" fill="black"/>
<path d="M10.75 15.5C10.3358 15.5 10 15.8358 10 16.25C10 16.6642 10.3358 17 10.75 17C11.1642 17 11.5 16.6642 11.5 16.25C11.5 15.8358 11.1642 15.5 10.75 15.5Z" fill="black"/>
<path d="M15 16.25C15 15.8358 15.3358 15.5 15.75 15.5C16.1642 15.5 16.5 15.8358 16.5 16.25C16.5 16.6642 16.1642 17 15.75 17C15.3358 17 15 16.6642 15 16.25Z" fill="black"/>
<path d="M20.75 15.5C20.3358 15.5 20 15.8358 20 16.25C20 16.6642 20.3358 17 20.75 17C21.1642 17 21.5 16.6642 21.5 16.25C21.5 15.8358 21.1642 15.5 20.75 15.5Z" fill="black"/>
</svg>
