<svg width="24" height="24" viewBox="0 0 24 24" fill="none" xmlns="http://www.w3.org/2000/svg">
<path fill-rule="evenodd" clip-rule="evenodd" d="M9.3132 2.11914C9.57355 1.93302 9.94733 1.96744 10.1568 2.20507C10.3654 2.44194 10.3521 2.78677 10.118 2.99998C10.0706 3.04989 9.63735 3.53222 9.63735 4.47066L9.64349 4.62887C9.88292 7.94603 17.5234 11.1947 17.5234 16.3924L17.5152 16.7058C17.3533 19.9069 14.7627 21.7991 14.649 21.8806L14.5467 21.9401C14.3333 22.0387 14.0749 22.0147 13.8902 21.8747L13.8053 21.7946C13.5967 21.5578 13.6101 21.213 13.8442 20.9997C13.8882 20.9534 14.2719 20.5266 14.3197 19.6999L14.3248 19.529C14.3246 16.1564 6.43888 12.8876 6.43876 7.60734C6.43899 4.21712 9.19489 2.20387 9.3132 2.11914ZM8.33562 5.87299C8.13684 6.38854 8.00948 6.96857 8.00942 7.60734C8.00949 9.55028 9.47103 11.2758 11.4974 13.2274C12.4255 14.1212 13.506 15.1 14.3085 16.0369C14.816 16.6295 15.3254 17.3314 15.6255 18.1257C15.8242 17.6103 15.9527 17.0309 15.9527 16.3924C15.9527 14.4494 14.4911 12.7239 12.4648 10.7723C11.5367 9.87855 10.4562 8.89969 9.65371 7.9628C9.14592 7.36989 8.63569 6.66774 8.33562 5.87299Z" fill="black"/>
<path fill-rule="evenodd" clip-rule="evenodd" d="M5.87634 12.1043C6.35939 12.1046 6.75145 12.4789 6.75166 12.9403C6.75166 13.4888 7.02496 14.0026 7.47462 14.5154C7.92555 15.0296 8.5274 15.5148 9.14243 16.0086C9.75401 16.4995 10.3744 16.9955 10.8379 17.533C11.3044 18.0742 11.6332 18.6807 11.6334 19.3952C11.6334 20.1626 11.3251 20.6714 11.1354 20.9118L11.0015 21.0622C10.6596 21.3886 10.105 21.3886 9.76313 21.0622C9.42538 20.7393 9.42224 20.2184 9.7529 19.8913C9.77213 19.8665 9.88277 19.7091 9.88277 19.3952C9.88253 19.132 9.70541 18.82 9.34899 18.4451C8.9994 18.0773 8.52444 17.6956 8.01658 17.2879C7.33586 16.7414 6.58388 16.1389 6.00519 15.4402C5.42283 14.7371 5 13.9196 5 12.9403C5.00021 12.4788 5.39306 12.1043 5.87634 12.1043Z" fill="black"/>
<path fill-rule="evenodd" clip-rule="evenodd" d="M13.1775 3.00584C13.4784 2.71866 13.9666 2.71876 14.2675 3.00584C14.5661 3.29096 14.5675 3.75112 14.2737 4.03903L14.2747 4.04001C14.2668 4.04908 14.1183 4.22557 14.1183 4.6025C14.1183 4.9056 14.3192 5.24188 14.6786 5.62006C15.0339 5.99381 15.5161 6.3797 16.0223 6.78606C16.1929 6.92301 16.3671 7.0632 16.5417 7.20695C17.0655 7.6382 17.5912 8.10302 18.0194 8.62002C18.5922 9.31184 18.9999 10.1082 19 11.0575C19 11.1984 18.9565 11.3293 18.8844 11.4413C18.8527 11.4907 18.8167 11.5371 18.774 11.578C18.7391 11.6113 18.7015 11.6423 18.6605 11.6688C18.5582 11.7349 18.4381 11.7782 18.3087 11.7909C18.2825 11.7934 18.2559 11.7938 18.229 11.7938L18.2259 11.7928C18.1773 11.7926 18.1299 11.7886 18.0838 11.7801C18.0302 11.7703 17.9784 11.756 17.9294 11.7362C17.7806 11.676 17.6572 11.5716 17.5735 11.4413C17.5015 11.3293 17.458 11.1984 17.458 11.0575C17.4579 10.4754 17.1677 9.93917 16.7105 9.41786C16.367 9.02631 15.9381 8.65306 15.4865 8.28311L14.5723 7.54386C14.1201 7.17343 13.6903 6.79805 13.3483 6.4013C12.8903 5.87006 12.5763 5.28551 12.5762 4.6025C12.5763 3.61593 13.1035 3.07655 13.1775 3.00584Z" fill="black"/>
</svg>
