<svg width="24" height="24" viewBox="0 0 24 24" fill="none" xmlns="http://www.w3.org/2000/svg">
<path d="M16.2513 4.42816C17.6756 3.37118 19.7391 3.44563 21.0798 4.78639L21.5303 5.23688C21.8232 5.52977 21.8232 6.00464 21.5303 6.29753C21.2374 6.59043 20.7626 6.59043 20.4697 6.29753L20.0192 5.84705C19.0358 4.86366 17.3992 5.02473 16.6261 6.18007C16.5309 6.32461 16.3855 6.43707 16.206 6.48835C15.8078 6.60214 15.3927 6.37152 15.2789 5.97325C14.3367 2.67558 9.66333 2.67558 8.72114 5.97325C8.60735 6.37152 8.19224 6.60214 7.79396 6.48835C7.61448 6.43707 7.46904 6.32459 7.37383 6.18004C6.60082 5.02473 4.9642 4.86366 3.98082 5.84705L3.53033 6.29753C3.23744 6.59043 2.76256 6.59043 2.46967 6.29753C2.17678 6.00464 2.17678 5.52977 2.46967 5.23688L2.92016 4.78639C4.26091 3.44563 6.32445 3.37118 7.74872 4.42816C9.57465 1.19061 14.4254 1.19061 16.2513 4.42816Z" fill="black"/>
<path fill-rule="evenodd" clip-rule="evenodd" d="M7 12.0172C6.58579 12.0172 6.25 12.353 6.25 12.7672V18.7672C6.25 19.1814 6.58579 19.5172 7 19.5172C7.41421 19.5172 7.75 19.1814 7.75 18.7672V16.5172H9.5C10.7426 16.5172 11.75 15.5098 11.75 14.2672C11.75 13.0246 10.7426 12.0172 9.5 12.0172H7ZM10.25 14.2672C10.25 13.853 9.91421 13.5172 9.5 13.5172H7.75V15.0172H9.5C9.91421 15.0172 10.25 14.6814 10.25 14.2672Z" fill="black"/>
<path d="M14.75 9.76721C14.75 9.35299 14.4142 9.01721 14 9.01721C13.5858 9.01721 13.25 9.35299 13.25 9.76721V15.7672C13.25 16.1814 13.5858 16.5172 14 16.5172C14.4142 16.5172 14.75 16.1814 14.75 15.7672V13.5172H17.25V15.7672C17.25 16.1814 17.5858 16.5172 18 16.5172C18.4142 16.5172 18.75 16.1814 18.75 15.7672V9.76721C18.75 9.35299 18.4142 9.01721 18 9.01721C17.5858 9.01721 17.25 9.35299 17.25 9.76721V12.0172H14.75V9.76721Z" fill="black"/>
</svg>
