<svg width="24" height="24" viewBox="0 0 24 24" fill="none" xmlns="http://www.w3.org/2000/svg">
<path d="M16.2513 4.42816C17.6756 3.37118 19.7391 3.44563 21.0798 4.78639L21.5303 5.23688C21.8232 5.52977 21.8232 6.00464 21.5303 6.29753C21.2374 6.59043 20.7626 6.59043 20.4697 6.29753L20.0192 5.84705C19.0358 4.86366 17.3992 5.02473 16.6261 6.18007C16.5309 6.32461 16.3855 6.43707 16.206 6.48835C15.8078 6.60214 15.3927 6.37152 15.2789 5.97325C14.3367 2.67558 9.66333 2.67558 8.72114 5.97325C8.60735 6.37152 8.19224 6.60214 7.79396 6.48835C7.61448 6.43707 7.46904 6.32459 7.37383 6.18004C6.60082 5.02473 4.9642 4.86366 3.98082 5.84705L3.53033 6.29753C3.23744 6.59043 2.76256 6.59043 2.46967 6.29753C2.17678 6.00464 2.17678 5.52977 2.46967 5.23688L2.92016 4.78639C4.26091 3.44563 6.32445 3.37118 7.74872 4.42816C9.57465 1.19061 14.4254 1.19061 16.2513 4.42816Z" fill="black"/>
<path d="M6.25 10.7672C6.25 10.353 6.58579 10.0172 7 10.0172H11C11.4142 10.0172 11.75 10.353 11.75 10.7672C11.75 11.1814 11.4142 11.5172 11 11.5172H7.75V13.5172H10C10.4142 13.5172 10.75 13.853 10.75 14.2672C10.75 14.6814 10.4142 15.0172 10 15.0172H7.75V17.0172H11C11.4142 17.0172 11.75 17.353 11.75 17.7672C11.75 18.1814 11.4142 18.5172 11 18.5172H7C6.58579 18.5172 6.25 18.1814 6.25 17.7672V10.7672Z" fill="black"/>
<path d="M16.6 10.1C14.7498 10.1 13.25 11.6748 13.25 13.6175V14.9825C13.25 16.9251 14.7498 18.5 16.6 18.5H17.9C18.3142 18.5 18.65 18.1474 18.65 17.7125C18.65 17.2776 18.3142 16.925 17.9 16.925H16.6C15.5783 16.925 14.75 16.0553 14.75 14.9825V13.6175C14.75 12.5447 15.5783 11.675 16.6 11.675H17.9C18.3142 11.675 18.65 11.3224 18.65 10.8875C18.65 10.4526 18.3142 10.1 17.9 10.1H16.6Z" fill="black"/>
</svg>
