<svg width="24" height="24" viewBox="0 0 24 24" fill="none" xmlns="http://www.w3.org/2000/svg">
<path fill-rule="evenodd" clip-rule="evenodd" d="M13.9875 5.25H10.0127C10.0036 5.24984 9.9946 5.24984 9.9856 5.25H5.78114C4.97812 5.25 4.27815 5.79652 4.08339 6.57556L3.27965 9.7905C3.27448 9.80833 3.26994 9.82643 3.26608 9.84478L2.58339 12.5756C2.30726 13.6801 3.14264 14.75 4.28114 14.75H11.25V17.25H7C6.58579 17.25 6.25 17.5858 6.25 18C6.25 18.4142 6.58579 18.75 7 18.75H17C17.4142 18.75 17.75 18.4142 17.75 18C17.75 17.5858 17.4142 17.25 17 17.25H12.75V14.75H19.7196C20.8581 14.75 21.6935 13.6801 21.4173 12.5756L19.9173 6.57556C19.7226 5.79652 19.0226 5.25 18.2196 5.25H14.0146C14.0056 5.24984 13.9965 5.24984 13.9875 5.25ZM14.1505 13.25L13.838 10.75H10.1622L9.84966 13.25H14.1505ZM4.0386 12.9394L4.58594 10.75H8.65049L8.33799 13.25H4.28114C4.11849 13.25 3.99915 13.0972 4.0386 12.9394ZM19.7196 13.25H15.6622L15.3497 10.75H19.4148L19.9621 12.9394C20.0016 13.0972 19.8822 13.25 19.7196 13.25ZM18.4621 6.93937L19.0398 9.25H15.1622L14.8497 6.75H18.2196C18.3343 6.75 18.4343 6.82807 18.4621 6.93937ZM10.6622 6.75H13.338L13.6505 9.25H10.3497L10.6622 6.75ZM8.83799 9.25L9.15049 6.75H5.78114C5.66642 6.75 5.56642 6.82807 5.5386 6.93937L4.96094 9.25H8.83799Z" fill="black"/>
</svg>
