<svg width="24" height="24" viewBox="0 0 24 24" fill="none" xmlns="http://www.w3.org/2000/svg">
<path fill-rule="evenodd" clip-rule="evenodd" d="M11.5 7.75012C11.5 7.47116 11.3452 7.21525 11.0981 7.08578C10.851 6.95632 10.5525 6.97469 10.3231 7.13347L6.32309 9.9027C6.28141 9.93156 6.2432 9.96425 6.20879 10.0001H4.75C4.33579 10.0001 4 10.3359 4 10.7501V13.7501C4 14.1643 4.33579 14.5001 4.75 14.5001H6.20878C6.24319 14.536 6.28141 14.5687 6.32309 14.5975L10.3231 17.3668C10.5525 17.5255 10.851 17.5439 11.0981 17.4145C11.3452 17.285 11.5 17.0291 11.5 16.7501V7.75012ZM6 13.0001V11.5001H5.5V13.0001H6ZM7.5 13.5879L10 15.3187V9.18154L7.5 10.9123V13.5879Z" fill="black"/>
<path fill-rule="evenodd" clip-rule="evenodd" d="M12.5943 8.38625C12.7953 8.02405 13.2518 7.89334 13.614 8.09431L13.2673 8.71926C13.614 8.09431 13.614 8.09431 13.614 8.09431L13.6153 8.09501L13.6167 8.09582L13.6202 8.09776L13.6293 8.10295L13.6559 8.11854C13.6773 8.13126 13.7058 8.14867 13.7405 8.17083C13.8096 8.2151 13.9036 8.27866 14.0142 8.36202C14.2344 8.52809 14.5253 8.77655 14.8166 9.11221C15.4013 9.78607 16.0001 10.8289 16.0001 12.2501C16.0001 13.6713 15.4013 14.7142 14.8166 15.388C14.5253 15.7237 14.2344 15.9722 14.0142 16.1382C13.9036 16.2216 13.8096 16.2851 13.7405 16.3294C13.7058 16.3516 13.6773 16.369 13.6559 16.3817L13.6293 16.3973L13.6202 16.4025L13.6167 16.4044L13.6153 16.4052C13.6153 16.4052 13.614 16.4059 13.2501 15.7501L13.614 16.4059C13.2518 16.6069 12.7953 16.4762 12.5943 16.114C12.394 15.753 12.5232 15.2983 12.8826 15.0963L12.8892 15.0924C12.8972 15.0877 12.9116 15.079 12.9317 15.0661C12.9719 15.0404 13.0341 14.9986 13.1111 14.9405C13.2659 14.8238 13.4749 14.6455 13.6837 14.4049C14.0989 13.9264 14.5001 13.2192 14.5001 12.2501C14.5001 11.281 14.0989 10.5739 13.6837 10.0953C13.4749 9.85475 13.2659 9.67639 13.1111 9.5597C13.0341 9.50167 12.9719 9.45987 12.9317 9.43411C12.9116 9.42127 12.8972 9.4125 12.8892 9.40779L12.8826 9.40391C12.5232 9.20192 12.394 8.74723 12.5943 8.38625Z" fill="black"/>
<path fill-rule="evenodd" clip-rule="evenodd" d="M13.6017 6.37322C13.8099 6.01511 14.2689 5.89355 14.627 6.10171L14.2714 6.71361C14.6271 6.10171 14.627 6.10171 14.627 6.10171L14.6284 6.10248L14.63 6.10342L14.634 6.10579L14.6453 6.11254C14.6543 6.11792 14.666 6.12509 14.6804 6.13405C14.7092 6.15198 14.7485 6.1771 14.7968 6.20951C14.8934 6.27428 15.0265 6.36847 15.1838 6.49276C15.4977 6.74074 15.9128 7.11215 16.3277 7.61313C17.1603 8.6183 18.0001 10.1569 18.0001 12.2501C18.0001 14.3433 17.1603 15.8819 16.3277 16.8871C15.9128 17.3881 15.4977 17.7595 15.1838 18.0075C15.0265 18.1318 14.8934 18.226 14.7968 18.2907C14.7485 18.3231 14.7092 18.3483 14.6804 18.3662C14.666 18.3752 14.6543 18.3823 14.6453 18.3877L14.634 18.3945L14.63 18.3968L14.6284 18.3978C14.6284 18.3978 14.627 18.3985 14.2501 17.7501L14.627 18.3985C14.2689 18.6067 13.8099 18.4851 13.6017 18.127C13.3937 17.7691 13.515 17.3104 13.8726 17.1021M13.8726 17.1021L13.8714 17.1028L13.8726 17.1021L13.8872 17.0931C13.9024 17.0836 13.9276 17.0676 13.9613 17.045C14.0288 16.9997 14.1301 16.9283 14.254 16.8304C14.5026 16.6341 14.8375 16.3348 15.1725 15.9303C15.84 15.1245 16.5001 13.9131 16.5001 12.2501C16.5001 10.5871 15.84 9.37575 15.1725 8.56997C14.8375 8.16547 14.5026 7.86617 14.254 7.66981C14.1301 7.57193 14.0288 7.50053 13.9613 7.45526C13.9276 7.43266 13.9024 7.41665 13.8872 7.40719L13.8722 7.39795L13.8706 7.39701L13.8722 7.39795C13.5145 7.18963 13.3937 6.73114 13.6017 6.37322" fill="black"/>
<path fill-rule="evenodd" clip-rule="evenodd" d="M14.6055 4.36687C14.8171 4.01082 15.2773 3.89377 15.6334 4.10543L15.2749 4.70845C15.6334 4.10544 15.6334 4.10543 15.6334 4.10543L15.6348 4.10625L15.6365 4.1073L15.6411 4.11006L15.6546 4.11828C15.6654 4.12496 15.68 4.13405 15.6981 4.14555C15.7342 4.16856 15.7843 4.20128 15.8463 4.24382C15.9702 4.32883 16.1423 4.45336 16.3465 4.6183C16.7541 4.94761 17.2937 5.44142 17.833 6.10731C18.9144 7.44255 20.0001 9.47904 20.0001 12.2501C20.0001 15.0212 18.9144 17.0577 17.833 18.3929C17.2937 19.0588 16.7541 19.5526 16.3465 19.8819C16.1423 20.0469 15.9702 20.1714 15.8463 20.2564C15.7843 20.299 15.7342 20.3317 15.6981 20.3547C15.68 20.3662 15.6654 20.3753 15.6546 20.382L15.6411 20.3902L15.6365 20.3929L15.6348 20.394C15.6348 20.394 15.6334 20.3948 15.2501 19.7501L15.6334 20.3948C15.2773 20.6065 14.8171 20.4894 14.6055 20.1334C14.3942 19.7779 14.5104 19.3187 14.865 19.1065L14.8661 19.1059L14.8687 19.1043L14.892 19.0896C14.9145 19.0753 14.9504 19.052 14.9978 19.0195C15.0926 18.9544 15.233 18.8532 15.4038 18.7151C15.7462 18.4385 16.2066 18.0177 16.6673 17.4489C17.5859 16.3146 18.5001 14.6011 18.5001 12.2501C18.5001 9.8991 17.5859 8.18559 16.6673 7.05136C16.2066 6.48251 15.7462 6.06171 15.4038 5.78509C15.233 5.64707 15.0926 5.54581 14.9978 5.48078C14.9504 5.44828 14.9145 5.42491 14.892 5.41059L14.8687 5.39591L14.865 5.39366L14.8659 5.3942C14.5103 5.18239 14.3939 4.72273 14.6055 4.36687Z" fill="black"/>
</svg>
