<svg width="24" height="24" viewBox="0 0 24 24" fill="none" xmlns="http://www.w3.org/2000/svg">
<path d="M12.75 2.5C12.75 2.08579 12.4142 1.75 12 1.75C11.5858 1.75 11.25 2.08579 11.25 2.5V3.5C11.25 3.91421 11.5858 4.25 12 4.25C12.4142 4.25 12.75 3.91421 12.75 3.5V2.5Z" fill="black"/>
<path fill-rule="evenodd" clip-rule="evenodd" d="M12 5.75C9.92893 5.75 8.25 7.42893 8.25 9.5C8.25 11.5711 9.92893 13.25 12 13.25C14.0711 13.25 15.75 11.5711 15.75 9.5C15.75 7.42893 14.0711 5.75 12 5.75Z" fill="black"/>
<path d="M17.773 4.72702C18.0659 5.01992 18.0659 5.49479 17.773 5.78768L17.0659 6.49479C16.773 6.78768 16.2981 6.78768 16.0052 6.49479C15.7123 6.2019 15.7123 5.72702 16.0052 5.43413L16.7123 4.72702C17.0052 4.43413 17.4801 4.43413 17.773 4.72702Z" fill="black"/>
<path d="M19 10.25C19.4142 10.25 19.75 9.91421 19.75 9.5C19.75 9.08579 19.4142 8.75 19 8.75H18C17.5858 8.75 17.25 9.08579 17.25 9.5C17.25 9.91421 17.5858 10.25 18 10.25H19Z" fill="black"/>
<path d="M12 14.75C12.4142 14.75 12.75 15.0858 12.75 15.5V19.6893L13.4697 18.9697C13.7626 18.6768 14.2374 18.6768 14.5303 18.9697C14.8232 19.2626 14.8232 19.7374 14.5303 20.0303L12.5303 22.0303C12.4584 22.1022 12.3755 22.1565 12.2871 22.1931C12.2099 22.2251 12.1262 22.2446 12.0386 22.249L12.0229 22.2497C12.0153 22.2499 12.0076 22.25 12 22.25C11.8983 22.25 11.8013 22.2298 11.7129 22.1931C11.6245 22.1565 11.5416 22.1022 11.4697 22.0303L9.46967 20.0303C9.17678 19.7374 9.17678 19.2626 9.46967 18.9697C9.76256 18.6768 10.2374 18.6768 10.5303 18.9697L11.25 19.6893V15.5C11.25 15.0858 11.5858 14.75 12 14.75Z" fill="black"/>
<path d="M8.05429 13.4712C8.34635 13.7649 8.34501 14.2398 8.05129 14.5318L5.31766 17.25H6.32843C6.74264 17.25 7.07843 17.5858 7.07843 18C7.07843 18.4142 6.74264 18.75 6.32843 18.75H3.5C3.30109 18.75 3.11032 18.671 2.96967 18.5303C2.82902 18.3897 2.75 18.1989 2.75 18V15.1716C2.75 14.7574 3.08579 14.4216 3.5 14.4216C3.91421 14.4216 4.25 14.7574 4.25 15.1716V16.1963L6.99364 13.4682C7.28736 13.1761 7.76223 13.1775 8.05429 13.4712Z" fill="black"/>
<path d="M15.9903 13.4715C15.6984 13.7654 15.7001 14.2403 15.994 14.5322L18.7309 17.25H17.6716C17.2574 17.25 16.9216 17.5858 16.9216 18C16.9216 18.4142 17.2574 18.75 17.6716 18.75H20.5C20.6989 18.75 20.8897 18.671 21.0303 18.5303C21.171 18.3897 21.25 18.1989 21.25 18V15.1716C21.25 14.7574 20.9142 14.4216 20.5 14.4216C20.0858 14.4216 19.75 14.7574 19.75 15.1716V16.148L17.0509 13.4678C16.757 13.1759 16.2821 13.1776 15.9903 13.4715Z" fill="black"/>
<path d="M6.75 9.5C6.75 9.91421 6.41421 10.25 6 10.25H5C4.58579 10.25 4.25 9.91421 4.25 9.5C4.25 9.08579 4.58579 8.75 5 8.75H6C6.41421 8.75 6.75 9.08579 6.75 9.5Z" fill="black"/>
<path d="M6.93415 6.49481C7.22704 6.7877 7.70191 6.7877 7.99481 6.49481C8.2877 6.20191 8.2877 5.72704 7.99481 5.43415L7.2877 4.72704C6.99481 4.43415 6.51993 4.43415 6.22704 4.72704C5.93415 5.01993 5.93415 5.49481 6.22704 5.7877L6.93415 6.49481Z" fill="black"/>
</svg>
