<svg width="24" height="24" viewBox="0 0 24 24" fill="none" xmlns="http://www.w3.org/2000/svg">
<path fill-rule="evenodd" clip-rule="evenodd" d="M18 13.8438C19.1023 13.8438 20.159 14.2821 20.9385 15.0615C21.7179 15.841 22.1562 16.8977 22.1562 18C22.1562 19.1023 21.7179 20.159 20.9385 20.9385C20.159 21.7179 19.1023 22.1562 18 22.1562C16.8977 22.1562 15.841 21.7179 15.0615 20.9385C14.2821 20.159 13.8438 19.1023 13.8438 18C13.8438 16.8977 14.2821 15.841 15.0615 15.0615C15.841 14.2821 16.8977 13.8438 18 13.8438ZM18 15.1562C17.2458 15.1562 16.5226 15.456 15.9893 15.9893C15.456 16.5226 15.1562 17.2458 15.1562 18C15.1562 18.7542 15.456 19.4774 15.9893 20.0107C16.5226 20.544 17.2458 20.8438 18 20.8438C18.7542 20.8438 19.4774 20.544 20.0107 20.0107C20.3863 19.6352 20.6429 19.1647 20.7637 18.6562H18C17.6376 18.6562 17.3438 18.3624 17.3438 18V16.5C17.3438 16.1376 17.6376 15.8438 18 15.8438C18.3624 15.8438 18.6562 16.1376 18.6562 16.5V17.3438H20.7637C20.6429 16.8353 20.3863 16.3648 20.0107 15.9893C19.4774 15.456 18.7542 15.1562 18 15.1562Z" fill="black"/>
<path d="M11 17.3613C11.4142 17.3613 11.75 17.6971 11.75 18.1113V19C11.75 19.4142 11.4142 19.75 11 19.75C10.5858 19.75 10.25 19.4142 10.25 19V18.1113C10.25 17.6971 10.5858 17.3613 11 17.3613Z" fill="black"/>
<path d="M5.40332 15.5361C5.69623 15.2435 6.17106 15.2433 6.46387 15.5361C6.75667 15.8289 6.7565 16.3038 6.46387 16.5967L5.8418 17.2188C5.5489 17.5116 5.07414 17.5116 4.78125 17.2188C4.48836 16.9259 4.48836 16.4511 4.78125 16.1582L5.40332 15.5361Z" fill="black"/>
<path fill-rule="evenodd" clip-rule="evenodd" d="M11 6.69434C12.1417 6.69436 13.2366 7.14793 14.0439 7.95508C14.8514 8.7625 15.3056 9.85813 15.3057 11C15.3056 12.1418 14.8513 13.2365 14.0439 14.0439C13.2365 14.8514 12.1419 15.3056 11 15.3057C9.8581 15.3057 8.76253 14.8514 7.95508 14.0439C7.14793 13.2366 6.69436 12.1417 6.69434 11C6.69436 9.85813 7.14766 8.7625 7.95508 7.95508C8.76252 7.14766 9.85812 6.69434 11 6.69434ZM11 8.19434C10.2559 8.19434 9.54176 8.48951 9.01562 9.01562C8.48951 9.54174 8.19436 10.256 8.19434 11C8.19436 11.7438 8.48978 12.4573 9.01562 12.9834C9.54177 13.5095 10.2559 13.8057 11 13.8057C11.744 13.8056 12.4573 13.5095 12.9834 12.9834C13.5095 12.4573 13.8056 11.744 13.8057 11C13.8056 10.256 13.5095 9.54174 12.9834 9.01562C12.4573 8.48978 11.7438 8.19436 11 8.19434Z" fill="black"/>
<path d="M3.88867 10.25C4.30289 10.25 4.63867 10.5858 4.63867 11C4.63867 11.4142 4.30289 11.75 3.88867 11.75H3C2.58579 11.75 2.25 11.4142 2.25 11C2.25 10.5858 2.58579 10.25 3 10.25H3.88867Z" fill="black"/>
<path d="M19 10.25C19.4142 10.25 19.75 10.5858 19.75 11C19.75 11.4142 19.4142 11.75 19 11.75H18.1113C17.6971 11.75 17.3613 11.4142 17.3613 11C17.3613 10.5858 17.6971 10.25 18.1113 10.25H19Z" fill="black"/>
<path d="M4.78125 4.78125C5.07414 4.48836 5.5489 4.48836 5.8418 4.78125L6.46387 5.40332C6.7565 5.69623 6.75667 6.17106 6.46387 6.46387C6.17106 6.75667 5.69623 6.7565 5.40332 6.46387L4.78125 5.8418C4.48836 5.5489 4.48836 5.07414 4.78125 4.78125Z" fill="black"/>
<path d="M16.1582 4.78125C16.4511 4.48836 16.9259 4.48836 17.2188 4.78125C17.5116 5.07414 17.5116 5.5489 17.2188 5.8418L16.5967 6.46387C16.3038 6.7565 15.8289 6.75667 15.5361 6.46387C15.2433 6.17106 15.2435 5.69623 15.5361 5.40332L16.1582 4.78125Z" fill="black"/>
<path d="M11 2.25C11.4142 2.25 11.75 2.58579 11.75 3V3.88867C11.75 4.30289 11.4142 4.63867 11 4.63867C10.5858 4.63867 10.25 4.30289 10.25 3.88867V3C10.25 2.58579 10.5858 2.25 11 2.25Z" fill="black"/>
</svg>
