<svg width="24" height="24" viewBox="0 0 24 24" fill="none" xmlns="http://www.w3.org/2000/svg">
<path d="M9.27734 2.99023C9.22571 2.98816 9.17401 2.99143 9.12305 2.99999H4.0498C3.2023 2.99999 2.5 3.70229 2.5 4.5498V11.6943C1.86982 12.6435 1.5 13.7794 1.5 15C1.5 18.3048 4.19517 21 7.5 21C10.3763 21 12.7894 18.9582 13.3672 16.25H16.1719C15.8868 16.7492 15.75 17.3144 15.75 17.875C15.75 18.6354 15.9999 19.4059 16.5332 20.0058C17.0665 20.6058 17.8958 21 18.875 21C20.592 21 22 19.592 22 17.875C22 17.041 21.6654 16.282 21.127 15.7197L22.2695 13.3926C22.42 13.0861 22.5 12.7434 22.5 12.4014V11.25C22.5 10.0095 21.4905 8.99999 20.25 8.99999H16.5V5.74999C16.5 5.60247 16.6025 5.49999 16.75 5.49999H17.25C17.3494 5.5014 17.4481 5.48304 17.5403 5.44598C17.6325 5.40891 17.7164 5.35389 17.7872 5.28411C17.858 5.21433 17.9142 5.13117 17.9526 5.03948C17.9909 4.94779 18.0107 4.84938 18.0107 4.74999C18.0107 4.6506 17.9909 4.55219 17.9526 4.4605C17.9142 4.36881 17.858 4.28565 17.7872 4.21587C17.7164 4.14609 17.6325 4.09107 17.5403 4.05401C17.4481 4.01695 17.3494 3.99859 17.25 3.99999H16.75C15.7925 3.99999 15 4.79251 15 5.74999V8.99999H11.3359L10.2109 4.49999H10.25C10.3494 4.5014 10.4481 4.48304 10.5403 4.44598C10.6325 4.40891 10.7164 4.35389 10.7872 4.28411C10.858 4.21433 10.9142 4.13117 10.9526 4.03948C10.9909 3.94779 11.0107 3.84938 11.0107 3.74999C11.0107 3.6506 10.9909 3.55219 10.9526 3.4605C10.9142 3.36881 10.858 3.28565 10.7872 3.21587C10.7164 3.14609 10.6325 3.09107 10.5403 3.05401C10.4481 3.01695 10.3494 2.99859 10.25 2.99999H9.36816C9.33812 2.99489 9.30779 2.99163 9.27734 2.99023ZM4.0498 4.49999H8.66406L9.78906 8.99999H7.5H4V4.5498C4 4.5143 4.01431 4.49999 4.0498 4.49999ZM7.5 10.5C9.99417 10.5 12 12.5058 12 15C12 17.4942 9.99417 19.5 7.5 19.5C5.00583 19.5 3 17.4942 3 15C3 12.5058 5.00583 10.5 7.5 10.5ZM7.375 13.5068C6.481 13.5068 5.75684 14.231 5.75684 15.125C5.75684 16.019 6.481 16.7432 7.375 16.7432C8.269 16.7432 8.99316 16.019 8.99316 15.125C8.99316 14.231 8.269 13.5068 7.375 13.5068ZM18.875 16.25C19.7813 16.25 20.5 16.9686 20.5 17.875C20.5 18.7813 19.7813 19.5 18.875 19.5C18.2708 19.5 17.9127 19.3004 17.6543 19.0098C17.3959 18.7191 17.25 18.3021 17.25 17.875C17.25 17.4479 17.3959 17.0309 17.6543 16.7402C17.9127 16.4495 18.2708 16.25 18.875 16.25Z" fill="black"/>
</svg>
