<svg width="24" height="24" viewBox="0 0 24 24" fill="none" xmlns="http://www.w3.org/2000/svg">
<path fill-rule="evenodd" clip-rule="evenodd" d="M4 2.25C3.53587 2.25 3.09075 2.43437 2.76256 2.76256C2.43437 3.09075 2.25 3.53587 2.25 4V8C2.25 8.46413 2.43437 8.90925 2.76256 9.23744C3.09075 9.56563 3.53587 9.75 4 9.75H8C8.46413 9.75 8.90925 9.56563 9.23744 9.23744C9.56563 8.90925 9.75 8.46413 9.75 8V4C9.75 3.53587 9.56563 3.09075 9.23744 2.76256C8.90925 2.43437 8.46413 2.25 8 2.25H4Z" fill="black"/>
<path fill-rule="evenodd" clip-rule="evenodd" d="M16 14.25C15.5359 14.25 15.0908 14.4344 14.7626 14.7626C14.4344 15.0908 14.25 15.5359 14.25 16V20C14.25 20.4641 14.4344 20.9092 14.7626 21.2374C15.0908 21.5656 15.5359 21.75 16 21.75H20C20.4641 21.75 20.9092 21.5656 21.2374 21.2374C21.5656 20.9092 21.75 20.4641 21.75 20V16C21.75 15.5359 21.5656 15.0908 21.2374 14.7626C20.9092 14.4344 20.4641 14.25 20 14.25H16Z" fill="black"/>
<path d="M16.5303 2.46967C16.8232 2.76256 16.8232 3.23744 16.5303 3.53033L14.8107 5.25H19C19.7293 5.25 20.4288 5.53973 20.9445 6.05546C21.4603 6.57118 21.75 7.27065 21.75 8V11C21.75 11.4142 21.4142 11.75 21 11.75C20.5858 11.75 20.25 11.4142 20.25 11V8C20.25 7.66848 20.1183 7.35054 19.8839 7.11612C19.6495 6.8817 19.3315 6.75 19 6.75H14.8107L16.5303 8.46967C16.8232 8.76256 16.8232 9.23744 16.5303 9.53033C16.2374 9.82322 15.7626 9.82322 15.4697 9.53033L12.4697 6.53033C12.1768 6.23744 12.1768 5.76256 12.4697 5.46967L15.4697 2.46967C15.7626 2.17678 16.2374 2.17678 16.5303 2.46967Z" fill="black"/>
<path d="M3.75 13C3.75 12.5858 3.41421 12.25 3 12.25C2.58579 12.25 2.25 12.5858 2.25 13V16C2.25 16.7293 2.53973 17.4288 3.05546 17.9445C3.57118 18.4603 4.27065 18.75 5 18.75H9.18934L7.46967 20.4697C7.17678 20.7626 7.17678 21.2374 7.46967 21.5303C7.76256 21.8232 8.23744 21.8232 8.53033 21.5303L11.5303 18.5303C11.8232 18.2374 11.8232 17.7626 11.5303 17.4697L8.53033 14.4697C8.23744 14.1768 7.76256 14.1768 7.46967 14.4697C7.17678 14.7626 7.17678 15.2374 7.46967 15.5303L9.18934 17.25H5C4.66848 17.25 4.35054 17.1183 4.11612 16.8839C3.8817 16.6495 3.75 16.3315 3.75 16V13Z" fill="black"/>
</svg>
