<svg width="24" height="24" viewBox="0 0 24 24" fill="none" xmlns="http://www.w3.org/2000/svg">
<path d="M4.24994 2.5C4.14428 2.50002 4.03983 2.52236 3.94341 2.56555C3.84699 2.60875 3.76078 2.67183 3.69044 2.75066C3.62009 2.82948 3.56719 2.92228 3.5352 3.02298C3.50322 3.12367 3.49286 3.22999 3.50482 3.33496L5.25091 18.6191C5.43806 20.2542 6.83431 21.5 8.4804 21.5H16.0195C17.6656 21.5 19.0618 20.2542 19.249 18.6191C19.2498 18.61 19.2504 18.6009 19.2509 18.5918L19.9951 12.0801L18.5673 11.3652L17.9238 17H6.57513L5.43353 7H10.6777C10.4592 6.5395 10.4388 5.9925 10.6728 5.5H5.26166L5.09076 4H19.4091L19.2382 5.5H12.3359C12.1587 5.47648 11.9789 5.51701 11.829 5.61427C11.679 5.71153 11.5688 5.85915 11.518 6.03052C11.4672 6.20189 11.4793 6.38575 11.5521 6.54899C11.6249 6.71223 11.7536 6.84412 11.915 6.9209L20.915 11.4209C21.0034 11.4676 21.1002 11.4962 21.1998 11.505C21.2994 11.5138 21.3997 11.5026 21.4949 11.472C21.5901 11.4415 21.6782 11.3922 21.7541 11.3271C21.83 11.262 21.8921 11.1824 21.9367 11.0929C21.9814 11.0035 22.0077 10.906 22.0142 10.8062C22.0206 10.7064 22.0071 10.6064 21.9743 10.5119C21.9415 10.4175 21.8902 10.3305 21.8233 10.2562C21.7564 10.1819 21.6754 10.1217 21.5849 10.0791L20.2978 9.43555L20.9951 3.33496C21.007 3.22999 20.9967 3.12367 20.9647 3.02298C20.9327 2.92228 20.8798 2.82948 20.8094 2.75066C20.7391 2.67183 20.6529 2.60875 20.5565 2.56555C20.46 2.52236 20.3556 2.50002 20.2499 2.5H4.24994ZM15.4267 7H19.0663L18.8701 8.72168L15.4267 7ZM6.76751 18.5H17.7324C17.6041 19.3586 16.8945 20 16.0195 20H8.4804C7.60535 20 6.8958 19.3586 6.76751 18.5Z" fill="black"/>
</svg>
