<svg width="24" height="24" viewBox="0 0 24 24" fill="none" xmlns="http://www.w3.org/2000/svg">
<path fill-rule="evenodd" clip-rule="evenodd" d="M5.10571 5.10571C6.93419 3.27723 9.41414 2.25 12 2.25C14.5859 2.25 17.0658 3.27723 18.8943 5.10571C20.7228 6.93419 21.75 9.41414 21.75 12C21.75 13.9424 21.1704 15.825 20.107 17.4167C19.8769 17.7611 19.4111 17.8537 19.0667 17.6236C18.7223 17.3935 18.6296 16.9278 18.8597 16.5833C19.6279 15.4336 20.0977 14.1044 20.2188 12.7176C20.1495 12.7387 20.0761 12.75 20 12.75H15.6742C15.5783 13.2201 15.3929 13.6675 15.1284 14.0678L17.0303 15.9697C17.3232 16.2626 17.3232 16.7374 17.0303 17.0303C16.7374 17.3232 16.2626 17.3232 15.9697 17.0303L14.0678 15.1284C13.6675 15.3929 13.2201 15.5783 12.75 15.6742V18C12.75 18.4142 12.4142 18.75 12 18.75C11.5858 18.75 11.25 18.4142 11.25 18V15.6742C10.7799 15.5783 10.3325 15.3929 9.93224 15.1284L8.03033 17.0303C7.73744 17.3232 7.26256 17.3232 6.96967 17.0303C6.67678 16.7374 6.67678 16.2626 6.96967 15.9697L8.87158 14.0678C8.60705 13.6675 8.42171 13.2201 8.32575 12.75H4C3.9239 12.75 3.85045 12.7387 3.78125 12.7176C3.90228 14.1044 4.37208 15.4336 5.14026 16.5833C5.37037 16.9278 5.27771 17.3935 4.9333 17.6236C4.58888 17.8537 4.12314 17.7611 3.89302 17.4167C2.82962 15.825 2.25 13.9424 2.25 12C2.25 9.41414 3.27723 6.93419 5.10571 5.10571ZM3.78125 11.2824C3.85045 11.2613 3.9239 11.25 4 11.25H8.32575C8.42171 10.7799 8.60705 10.3325 8.87158 9.93224L5.66018 6.72084C4.58357 8.01366 3.92757 9.60586 3.78125 11.2824ZM6.72084 5.66018L9.93224 8.87158C10.3325 8.60705 10.7799 8.42171 11.25 8.32575V4C11.25 3.9239 11.2613 3.85045 11.2824 3.78125C9.60586 3.92757 8.01366 4.58357 6.72084 5.66018ZM12.7176 3.78125C12.7387 3.85045 12.75 3.9239 12.75 4V8.32575C13.2201 8.42171 13.6675 8.60705 14.0678 8.87158L17.2792 5.66018C15.9863 4.58357 14.3941 3.92757 12.7176 3.78125ZM18.3398 6.72084L15.1284 9.93224C15.3929 10.3325 15.5783 10.7799 15.6742 11.25H20C20.0761 11.25 20.1495 11.2613 20.2188 11.2824C20.0724 9.60586 19.4164 8.01366 18.3398 6.72084ZM12 9.75C11.4033 9.75 10.831 9.98705 10.409 10.409C9.98705 10.831 9.75 11.4033 9.75 12C9.75 12.5967 9.98705 13.169 10.409 13.591C10.831 14.0129 11.4033 14.25 12 14.25C12.5967 14.25 13.169 14.0129 13.591 13.591C14.0129 13.169 14.25 12.5967 14.25 12C14.25 11.4033 14.0129 10.831 13.591 10.409C13.169 9.98705 12.5967 9.75 12 9.75Z" fill="black"/>
<path d="M7.212 19.9242C7.45156 19.8044 7.71668 19.7448 7.98446 19.7504C7.99493 19.7506 8.0054 19.7506 8.01587 19.7504C8.28365 19.7448 8.54877 19.8044 8.78833 19.9242C9.02789 20.044 9.23469 20.2203 9.39087 20.4379C9.68903 20.8533 10.0838 21.1898 10.5412 21.4185C10.9938 21.6448 11.4943 21.7587 12.0002 21.7507C12.506 21.7587 13.0065 21.6448 13.4592 21.4185C13.9165 21.1898 14.3113 20.8533 14.6095 20.4379C14.7656 20.2203 14.9724 20.044 15.212 19.9242C15.4516 19.8044 15.7167 19.7448 15.9845 19.7504C15.9949 19.7506 16.0054 19.7506 16.0159 19.7504C16.2837 19.7448 16.5488 19.8044 16.7883 19.9242C17.0279 20.044 17.2347 20.2203 17.3909 20.4379C17.689 20.8533 18.0838 21.1898 18.5412 21.4185C18.9985 21.6472 19.5047 21.7611 20.0159 21.7504L20.0216 21.7502C20.4777 21.7372 20.9255 21.6252 21.3341 21.4221C21.705 21.2377 21.8561 20.7875 21.6717 20.4166C21.4873 20.0457 21.0372 19.8945 20.6663 20.079C20.4531 20.1849 20.2195 20.2435 19.9816 20.2507C19.7148 20.2559 19.4507 20.1962 19.212 20.0769C18.9724 19.9571 18.7656 19.7808 18.6095 19.5632C18.3113 19.1478 17.9165 18.8112 17.4592 18.5826C17.0065 18.3562 16.506 18.2423 16.0002 18.2504C15.4943 18.2423 14.9938 18.3562 14.5412 18.5826C14.0838 18.8112 13.689 19.1478 13.3909 19.5632C13.2347 19.7808 13.0279 19.9571 12.7883 20.0769C12.5488 20.1966 12.2837 20.2563 12.0159 20.2507C12.0054 20.2505 11.9949 20.2505 11.9845 20.2507C11.7167 20.2563 11.4516 20.1966 11.212 20.0769C10.9724 19.9571 10.7656 19.7808 10.6095 19.5632C10.3113 19.1478 9.9165 18.8112 9.45915 18.5826C9.00649 18.3562 8.50604 18.2423 8.00017 18.2504C7.4943 18.2423 6.99384 18.3562 6.54118 18.5826C6.08384 18.8112 5.68903 19.1478 5.39087 19.5632C5.23469 19.7808 5.02789 19.9571 4.78833 20.0769C4.54962 20.1962 4.28553 20.2559 4.01872 20.2507C3.7808 20.2435 3.54723 20.1849 3.33407 20.079C2.96318 19.8945 2.51301 20.0457 2.3286 20.4166C2.14418 20.7875 2.29536 21.2377 2.66626 21.4221C3.07483 21.6252 3.52266 21.7372 3.97876 21.7502L3.98446 21.7504C4.49567 21.7611 5.00181 21.6472 5.45915 21.4185C5.9165 21.1898 6.3113 20.8533 6.60946 20.4379C6.76564 20.2203 6.97244 20.044 7.212 19.9242Z" fill="black"/>
</svg>
