<svg width="24" height="24" viewBox="0 0 24 24" fill="none" xmlns="http://www.w3.org/2000/svg">
<path fill-rule="evenodd" clip-rule="evenodd" d="M14.9105 6.02561C14.5064 5.01759 13.641 4.26353 12.5757 3.98616V6.05481C12.5756 6.2315 12.5213 6.40391 12.4201 6.54873C12.3189 6.69354 12.1756 6.80378 12.0097 6.86453C9.70718 7.70601 7.41555 9.62398 6.00364 11.0063C5.87038 11.1368 5.69844 11.2205 5.51359 11.245C5.32874 11.2695 5.14093 11.2334 4.9783 11.1422L1.63049 9.26223V14.736L4.9783 12.856C5.14093 12.7648 5.32874 12.7287 5.51359 12.7532C5.69844 12.7777 5.87038 12.8614 6.00364 12.9919C7.41544 14.3747 9.70733 16.2928 12.0097 17.1337C12.1756 17.1944 12.3189 17.3047 12.4201 17.4495C12.5213 17.5943 12.5756 17.7667 12.5757 17.9434V20.0109C13.6443 19.7339 14.5137 18.9814 14.9173 17.9726C14.9702 17.8398 15.0552 17.7223 15.1648 17.6306C15.2744 17.5388 15.4051 17.4757 15.545 17.447C15.6368 17.4282 15.657 17.4256 15.5989 17.4391L15.6135 17.4358C17.4904 17.0328 19.2394 15.7757 20.4909 14.5035C21.1167 13.8674 21.6188 13.2307 21.9498 12.728C22.1153 12.4766 22.2381 12.258 22.3092 12.1058C22.3263 12.069 22.3328 12.045 22.3398 12.0195C22.3415 12.0132 22.3432 12.0069 22.3451 12.0002C22.3432 11.9936 22.3415 11.9872 22.3398 11.981C22.3328 11.9554 22.3263 11.9315 22.3092 11.8947C22.2381 11.7424 22.1153 11.5227 21.9498 11.2714C21.6188 10.7686 21.1167 10.1321 20.4909 9.49583C19.2394 8.2233 17.4906 6.96649 15.6135 6.56243L15.5978 6.55906C15.6578 6.57309 15.6347 6.56973 15.5349 6.54895C15.3958 6.51992 15.266 6.45695 15.157 6.36565C15.0481 6.27435 14.9634 6.15754 14.9105 6.02561ZM18.25 10.5C18.0511 10.5 17.8603 10.579 17.7197 10.7197C17.579 10.8603 17.5 11.0511 17.5 11.25C17.5 11.4489 17.579 11.6397 17.7197 11.7803C17.8603 11.921 18.0511 12 18.25 12C18.4489 12 18.6397 11.921 18.7803 11.7803C18.921 11.6397 19 11.4489 19 11.25C19 11.0511 18.921 10.8603 18.7803 10.7197C18.6397 10.579 18.4489 10.5 18.25 10.5Z" fill="black"/>
</svg>
