<svg width="24" height="24" viewBox="0 0 24 24" fill="none" xmlns="http://www.w3.org/2000/svg">
<path d="M11.749 3.41602C11.5501 3.41604 11.3594 3.49506 11.2187 3.63571C11.0781 3.77636 10.999 3.96711 10.999 4.16602V6.35645C9.04101 7.19129 7.37741 8.55115 6.1709 9.69043L2.59863 7.68359C2.48455 7.61956 2.3557 7.58648 2.22487 7.58764C2.09405 7.5888 1.96581 7.62416 1.85288 7.6902C1.73994 7.75624 1.64625 7.85068 1.58109 7.96412C1.51593 8.07757 1.48158 8.20609 1.48145 8.33691V15.6611C1.48158 15.792 1.51593 15.9205 1.58109 16.0339C1.64625 16.1474 1.73994 16.2418 1.85288 16.3078C1.96581 16.3739 2.09405 16.4092 2.22487 16.4104C2.3557 16.4116 2.48455 16.3785 2.59863 16.3145L6.1709 14.3076C7.37748 15.4473 9.04088 16.8071 10.999 17.6416V19.8311C10.999 20.03 11.0781 20.2207 11.2187 20.3614C11.3594 20.502 11.5501 20.581 11.749 20.5811C13.4902 20.5811 14.9719 19.5637 15.7187 18.1084C17.6539 17.6169 19.2805 16.4195 20.4512 15.2295C21.0638 14.6067 21.5541 13.9884 21.9033 13.458C22.0779 13.1928 22.2175 12.9511 22.3223 12.7266C22.4271 12.5021 22.5195 12.3315 22.5195 12C22.5195 11.6685 22.4271 11.4979 22.3223 11.2734C22.2175 11.0489 22.0779 10.8072 21.9033 10.542C21.5541 10.0116 21.0638 9.39342 20.4512 8.77051C19.279 7.57867 17.6505 6.37784 15.7119 5.88672C14.9655 4.43495 13.4888 3.41602 11.749 3.41602ZM12.499 5.03125C13.4253 5.27244 14.1779 5.92815 14.5293 6.80469C14.5753 6.9194 14.6489 7.02098 14.7437 7.10037C14.8384 7.17976 14.9513 7.23452 15.0723 7.25977C15.159 7.27783 15.1791 7.28075 15.127 7.26855C15.1315 7.26957 15.1361 7.27055 15.1406 7.27148C16.7728 7.62284 18.2935 8.71572 19.3818 9.82227C19.926 10.3755 20.3626 10.929 20.6504 11.3662C20.7943 11.5848 20.9011 11.7758 20.9629 11.9082C20.9815 11.9481 20.9857 11.9706 20.9941 12C20.9857 12.0294 20.9815 12.0519 20.9629 12.0918C20.9011 12.2242 20.7943 12.4142 20.6504 12.6328C20.3626 13.0699 19.926 13.6236 19.3818 14.1768C18.2936 15.283 16.7727 16.3761 15.1406 16.7266C15.1364 16.7275 15.1322 16.7285 15.1279 16.7295C15.1784 16.7178 15.1609 16.72 15.0811 16.7363C14.9593 16.7613 14.8457 16.8162 14.7504 16.8959C14.6551 16.9757 14.5812 17.0779 14.5352 17.1934C14.1843 18.0706 13.4283 18.7249 12.499 18.9658V17.168C12.499 17.0143 12.4517 16.8644 12.3637 16.7385C12.2757 16.6125 12.1511 16.5167 12.0068 16.4639C10.0048 15.7326 8.01184 14.0647 6.78418 12.8623C6.6683 12.7489 6.51879 12.6761 6.35805 12.6548C6.19731 12.6335 6.034 12.6648 5.89258 12.7441L2.98145 14.3789V9.61914L5.89258 11.2539C6.034 11.3332 6.19731 11.3646 6.35805 11.3433C6.51879 11.322 6.6683 11.2492 6.78418 11.1357C8.01193 9.9337 10.0047 8.2659 12.0068 7.53418C12.1511 7.48135 12.2757 7.3855 12.3637 7.25957C12.4517 7.13364 12.499 6.98372 12.499 6.83008V5.03125ZM18.25 10.5C18.0511 10.5 17.8603 10.579 17.7197 10.7197C17.579 10.8603 17.5 11.0511 17.5 11.25C17.5 11.4489 17.579 11.6397 17.7197 11.7803C17.8603 11.921 18.0511 12 18.25 12C18.4489 12 18.6397 11.921 18.7803 11.7803C18.921 11.6397 19 11.4489 19 11.25C19 11.0511 18.921 10.8603 18.7803 10.7197C18.6397 10.579 18.4489 10.5 18.25 10.5Z" fill="black"/>
</svg>
