<svg width="24" height="24" viewBox="0 0 24 24" fill="none" xmlns="http://www.w3.org/2000/svg">
<path d="M11.6894 4.71409C12.7138 4.1883 13.8486 3.91406 15.0001 3.91406C16.1515 3.91406 17.2863 4.1883 18.3107 4.71409C19.3351 5.23987 20.2195 6.00207 20.8907 6.93759C21.1322 7.27414 21.6007 7.35122 21.9373 7.10975C22.2738 6.86828 22.3509 6.3997 22.1094 6.06315C21.2993 4.93407 20.2319 4.01417 18.9957 3.37961C17.7594 2.74504 16.3897 2.41406 15.0001 2.41406C13.6104 2.41406 12.2408 2.74504 11.0045 3.37961C9.76817 4.01417 8.70079 4.93407 7.89068 6.06315C7.64921 6.3997 7.72629 6.86828 8.06284 7.10975C8.39938 7.35122 8.86796 7.27414 9.10943 6.93759C9.78066 6.00207 10.6651 5.23987 11.6894 4.71409Z" fill="black"/>
<path d="M15.0001 7.82812C14.4839 7.82812 13.9752 7.95106 13.516 8.18676C13.0568 8.42245 12.6603 8.76413 12.3594 9.1835C12.118 9.52005 11.6494 9.59713 11.3128 9.35566C10.9763 9.11418 10.8992 8.64561 11.1407 8.30906C11.5805 7.69613 12.1599 7.19676 12.831 6.85228C13.5022 6.5078 14.2457 6.32812 15.0001 6.32812C15.7544 6.32812 16.498 6.5078 17.1691 6.85228C17.8402 7.19676 18.4197 7.69613 18.8594 8.30906C19.1009 8.64561 19.0238 9.11418 18.6873 9.35566C18.3507 9.59713 17.8822 9.52005 17.6407 9.1835C17.3398 8.76413 16.9433 8.42245 16.4841 8.18676C16.0249 7.95106 15.5162 7.82812 15.0001 7.82812Z" fill="black"/>
<path d="M17.75 17C17.75 16.5858 17.4142 16.25 17 16.25C16.5858 16.25 16.25 16.5858 16.25 17V17.01C16.25 17.4242 16.5858 17.76 17 17.76C17.4142 17.76 17.75 17.4242 17.75 17.01V17Z" fill="black"/>
<path d="M13 16.25C13.4142 16.25 13.75 16.5858 13.75 17V17.01C13.75 17.4242 13.4142 17.76 13 17.76H7C6.58579 17.76 6.25 17.4242 6.25 17.01C6.25 16.5958 6.58579 16.26 7 16.26H12.8772C12.9172 16.2534 12.9582 16.25 13 16.25Z" fill="black"/>
<path fill-rule="evenodd" clip-rule="evenodd" d="M15.75 11C15.75 10.5858 15.4142 10.25 15 10.25C14.5858 10.25 14.25 10.5858 14.25 11V12.25H5C4.27065 12.25 3.57118 12.5397 3.05546 13.0555C2.53973 13.5712 2.25 14.2707 2.25 15V19C2.25 19.7293 2.53973 20.4288 3.05546 20.9445C3.57118 21.4603 4.27065 21.75 5 21.75H19C19.7293 21.75 20.4288 21.4603 20.9445 20.9445C21.4603 20.4288 21.75 19.7293 21.75 19V15C21.75 14.2707 21.4603 13.5712 20.9445 13.0555C20.4288 12.5397 19.7293 12.25 19 12.25H15.75V11ZM5 13.75C4.66848 13.75 4.35054 13.8817 4.11612 14.1161C3.8817 14.3505 3.75 14.6685 3.75 15V19C3.75 19.3315 3.8817 19.6495 4.11612 19.8839C4.35054 20.1183 4.66848 20.25 5 20.25H19C19.3315 20.25 19.6495 20.1183 19.8839 19.8839C20.1183 19.6495 20.25 19.3315 20.25 19V15C20.25 14.6685 20.1183 14.3505 19.8839 14.1161C19.6495 13.8817 19.3315 13.75 19 13.75H5Z" fill="black"/>
</svg>
