<svg width="24" height="24" viewBox="0 0 24 24" fill="none" xmlns="http://www.w3.org/2000/svg">
<path fill-rule="evenodd" clip-rule="evenodd" d="M7.25 6.62197C8.1239 6.31309 8.75 5.47966 8.75 4.5C8.75 3.25736 7.74264 2.25 6.5 2.25C5.25736 2.25 4.25 3.25736 4.25 4.5C4.25 5.47966 4.87611 6.31309 5.75 6.62197V7.98488C5.74978 7.99533 5.74978 8.0058 5.75 8.01628V9.98372C5.74995 9.98634 5.74991 9.98896 5.74988 9.99158C5.7498 9.99943 5.74984 10.0073 5.75 10.0151V16.75L2.9 20.55C2.72956 20.7773 2.70214 21.0813 2.82918 21.3354C2.95623 21.5895 3.21593 21.75 3.5 21.75H9.5C9.78408 21.75 10.0438 21.5895 10.1708 21.3354C10.2979 21.0813 10.2705 20.7773 10.1 20.55L7.25 16.75V11.2135L9.92884 12.5529C10.2659 13.2368 11.0343 13.658 11.8432 13.4962L19.8432 11.8962C20.6612 11.7326 21.25 11.0144 21.25 10.1802V7.8198C21.25 6.98561 20.6612 6.26739 19.8432 6.10379L11.8432 4.50379C11.0343 4.34201 10.2659 4.76324 9.92884 5.44706L7.25 6.78647V6.62197ZM5.75 4.5C5.75 4.08579 6.08579 3.75 6.5 3.75C6.91422 3.75 7.25 4.08579 7.25 4.5C7.25 4.91421 6.91422 5.25 6.5 5.25C6.08579 5.25 5.75 4.91421 5.75 4.5ZM9.75 7.21352L7.25 8.46352V9.53647L9.75 10.7865V7.21352ZM6.50001 18.25L5.00001 20.25H8.00001L6.50001 18.25ZM11.549 5.97466C11.3943 5.94372 11.25 6.06204 11.25 6.2198V11.7802C11.25 11.938 11.3943 12.0563 11.549 12.0253L19.549 10.4253C19.6659 10.402 19.75 10.2994 19.75 10.1802V7.8198C19.75 7.70063 19.6659 7.59803 19.549 7.57466L11.549 5.97466Z" fill="black"/>
</svg>
