<svg width="24" height="24" viewBox="0 0 24 24" fill="none" xmlns="http://www.w3.org/2000/svg">
<path fill-rule="evenodd" clip-rule="evenodd" d="M12.0097 2.34375C11.184 2.34375 10.4793 2.94072 10.3436 3.75521L9.69123 7.66933C9.59035 8.27458 9.73004 8.85749 10.0331 9.32768C9.75558 9.6115 9.53903 9.95515 9.40459 10.3375C8.7624 10.209 8.06724 10.3334 7.48504 10.7487L4.42119 12.9344C3.62062 13.5055 3.3849 14.5913 3.8766 15.443C4.33054 16.2292 5.27541 16.587 6.13626 16.2986L9.70488 15.103C9.90157 15.0371 10.0836 14.9495 10.2496 14.844V18.25H9.59957C8.3017 18.25 7.24957 19.3021 7.24957 20.6C7.24957 21.2351 7.76445 21.75 8.39957 21.75H15.5996C16.2347 21.75 16.7496 21.2351 16.7496 20.6C16.7496 19.3021 15.6974 18.25 14.3996 18.25H13.7496V14.8452C13.915 14.9502 14.0964 15.0374 14.2924 15.1031L17.8631 16.3001C18.724 16.5886 19.669 16.2309 20.123 15.4446C20.6147 14.593 20.379 13.5073 19.5786 12.9362L16.5129 10.7488C15.931 10.3337 15.2365 10.2091 14.5945 10.3372C14.462 9.96063 14.2499 9.62156 13.9783 9.34024C14.2869 8.8679 14.43 8.27997 14.3283 7.66932L13.6759 3.75521C13.5402 2.94072 12.8355 2.34375 12.0097 2.34375ZM12.868 8.63992C13.0131 8.42757 13.0798 8.1621 13.0336 7.8851L12.3813 3.97098C12.351 3.78936 12.1939 3.65625 12.0097 3.65625C11.8256 3.65625 11.6685 3.78936 11.6382 3.97098L10.9859 7.8851C10.9401 8.15972 11.0053 8.42302 11.1478 8.63445C11.416 8.54717 11.7023 8.5 11.9996 8.5C12.303 8.5 12.595 8.54915 12.868 8.63992ZM14.6782 11.875C14.5821 12.2888 14.3925 12.6668 14.1329 12.9855C14.208 13.2989 14.4364 13.5694 14.7691 13.6809L18.3399 14.8778C18.5243 14.9397 18.7267 14.863 18.824 14.6946C18.9293 14.5122 18.8788 14.2796 18.7073 14.1572L15.6417 11.9699C15.3493 11.7613 14.9831 11.738 14.6782 11.875ZM12.2496 13.9888C12.1672 13.9962 12.0838 14 11.9996 14C11.9153 14 11.8319 13.9962 11.7496 13.9888V18.25H12.2496V13.9888ZM9.86503 12.984C9.60623 12.6658 9.41716 12.2886 9.32108 11.8758C9.01557 11.7378 8.64902 11.7609 8.35616 11.9698L5.29231 14.1555C5.1208 14.2779 5.07029 14.5105 5.17564 14.693C5.27289 14.8614 5.47533 14.9381 5.65976 14.8763L9.22839 13.6807C9.56166 13.5691 9.79027 13.298 9.86503 12.984ZM9.59957 19.75H14.3996C14.7442 19.75 15.041 19.9551 15.1744 20.25H8.82475C8.95815 19.9551 9.2549 19.75 9.59957 19.75ZM10.7496 11.25C10.7496 10.5596 11.3092 10 11.9996 10C12.6899 10 13.2496 10.5596 13.2496 11.25C13.2496 11.9404 12.6899 12.5 11.9996 12.5C11.3092 12.5 10.7496 11.9404 10.7496 11.25Z" fill="black"/>
</svg>
