<svg width="24" height="24" viewBox="0 0 24 24" fill="none" xmlns="http://www.w3.org/2000/svg">
<path d="M19.3969 17.8984C20.0599 17.8984 20.6956 18.162 21.1644 18.6309C21.6333 19.0997 21.8969 19.7354 21.8969 20.3984V20.8984C21.8969 21.1637 21.7914 21.4179 21.6039 21.6055C21.4163 21.793 21.1621 21.8984 20.8969 21.8984H15.8969C15.6316 21.8984 15.3774 21.793 15.1898 21.6055C15.0023 21.4179 14.8969 21.1637 14.8969 20.8984V20.3984C14.8969 19.7354 15.1604 19.0997 15.6293 18.6309C16.0981 18.162 16.7338 17.8984 17.3969 17.8984H19.3969Z" fill="black"/>
<path d="M2.89685 14.8516C3.33692 14.8516 3.69373 15.2084 3.69373 15.6484C3.69373 17.5555 5.23978 19.1015 7.14685 19.1016C7.58692 19.1016 7.94373 19.4584 7.94373 19.8984C7.94373 20.3385 7.58692 20.6953 7.14685 20.6953C4.35958 20.6953 2.09998 18.4357 2.09998 15.6484C2.09998 15.2084 2.45679 14.8516 2.89685 14.8516Z" fill="black"/>
<path d="M12.8969 19.1016C13.3369 19.1016 13.6937 19.4584 13.6937 19.8984C13.6937 20.3385 13.3369 20.6953 12.8969 20.6953H9.89685C9.45675 20.6953 9.09998 20.3385 9.09998 19.8984C9.09998 19.4583 9.45675 19.1016 9.89685 19.1016H12.8969Z" fill="black"/>
<path d="M18.3969 11.8984C18.8912 11.8984 19.3745 12.0448 19.7855 12.3193C20.1965 12.594 20.5172 12.9847 20.7064 13.4414C20.8956 13.8981 20.9453 14.4009 20.849 14.8857C20.7525 15.3707 20.5141 15.8164 20.1644 16.166C19.8148 16.5156 19.3691 16.7541 18.8842 16.8506C18.3993 16.9469 17.8965 16.8972 17.4398 16.708C16.9831 16.5188 16.5924 16.1981 16.3177 15.7871C16.0432 15.3761 15.8969 14.8927 15.8969 14.3984L15.8998 14.29C15.9277 13.6464 16.203 13.0383 16.6683 12.5928C17.1336 12.1473 17.7527 11.8985 18.3969 11.8984Z" fill="black"/>
<path d="M11.3969 12.8984C11.8111 12.8984 12.1469 13.2342 12.1469 13.6484C12.1469 14.0627 11.8111 14.3984 11.3969 14.3984C10.9827 14.3983 10.6469 14.0626 10.6469 13.6484C10.6469 13.2343 10.9827 12.8986 11.3969 12.8984Z" fill="black"/>
<path d="M2.89685 9.10156C3.33686 9.10159 3.69364 9.45841 3.69373 9.89844V12.8984C3.69373 13.3385 3.33692 13.6953 2.89685 13.6953C2.45679 13.6953 2.09998 13.3385 2.09998 12.8984V9.89844C2.09997 9.4584 2.4568 9.10164 2.89685 9.10156Z" fill="black"/>
<path d="M11.3969 8.39844C11.8111 8.39844 12.1469 8.73422 12.1469 9.14844V10.8984C12.1469 11.3127 11.8111 11.6484 11.3969 11.6484C10.9827 11.6483 10.6469 11.3126 10.6469 10.8984V9.14844C10.6469 8.7343 10.9827 8.39855 11.3969 8.39844Z" fill="black"/>
<path d="M19.8969 9.10156C20.3369 9.1016 20.6937 9.45836 20.6937 9.89844V10.3359C20.6937 10.776 20.3369 11.1328 19.8969 11.1328C19.4568 11.1328 19.1 10.776 19.1 10.3359V9.89844C19.1 9.45836 19.4568 9.10161 19.8969 9.10156Z" fill="black"/>
<path d="M7.14685 2.10156C7.58692 2.1016 7.94373 2.45836 7.94373 2.89844C7.94373 3.33852 7.58692 3.69528 7.14685 3.69531C5.23978 3.69536 3.69373 5.24136 3.69373 7.14844C3.69373 7.58852 3.33692 7.94528 2.89685 7.94531C2.45679 7.94527 2.09998 7.58851 2.09998 7.14844C2.09998 4.36115 4.35958 2.10161 7.14685 2.10156Z" fill="black"/>
<path d="M15.6469 2.10156C18.4341 2.1016 20.6937 4.36115 20.6937 7.14844C20.6937 7.58852 20.3369 7.94528 19.8969 7.94531C19.4568 7.94527 19.1 7.58851 19.1 7.14844C19.1 5.24135 17.5539 3.69535 15.6469 3.69531C15.2068 3.69527 14.85 3.33851 14.85 2.89844C14.85 2.45836 15.2068 2.10161 15.6469 2.10156Z" fill="black"/>
<path d="M12.8969 2.10156C13.3369 2.1016 13.6937 2.45836 13.6937 2.89844C13.6937 3.33852 13.3369 3.69528 12.8969 3.69531H9.89685C9.45675 3.69531 9.09998 3.33854 9.09998 2.89844C9.09998 2.45834 9.45675 2.10156 9.89685 2.10156H12.8969Z" fill="black"/>
</svg>
