<svg width="112" height="200" viewBox="0 0 112 200" fill="none" xmlns="http://www.w3.org/2000/svg">
<rect x="0.5" y="0.5" width="111" height="199" rx="4.5" stroke="#9747FF" stroke-dasharray="10 5"/>
<g filter="url(#filter0_dd_7259_35178)">
<rect x="16" y="16" width="80" height="80" rx="8" fill="white"/>
</g>
<path fill-rule="evenodd" clip-rule="evenodd" d="M75.72 47.5L75.72 41.5L79 41.5L79 47.5C79 50.6149 76.4749 53.14 73.36 53.14L37.36 53.14C34.2451 53.14 31.72 50.6149 31.72 47.5L31.72 43.1154L35 43.1154L35 47.5C35 48.8034 36.0566 49.86 37.36 49.86L73.36 49.86C74.6634 49.86 75.72 48.8034 75.72 47.5Z" fill="#282A52"/>
<path fill-rule="evenodd" clip-rule="evenodd" d="M53.72 68.5L53.72 41.5L57 41.5L57 68.5L53.72 68.5Z" fill="#282A52"/>
<path d="M65.9736 36.392H65.841L64.4115 33.3613H64.5748L63.998 32.1271C63.8809 31.8734 63.627 31.7109 63.3461 31.7109H59.3495L57.7422 36.2294L59.5081 41.9623H65.5641C65.894 41.9623 66.1616 41.695 66.1619 41.3652C66.1619 41.3652 66.1667 38.0169 66.1667 36.8546C66.1667 36.8355 66.1626 36.817 66.1546 36.7996L65.9736 36.392Z" fill="#1D2124"/>
<path d="M64.5749 33.3594H61.9918C61.7827 33.3594 61.6133 33.5288 61.6133 33.7379V35.9276C61.6133 36.1831 61.8204 36.3902 62.0759 36.3902H65.9737L64.5749 33.3594Z" fill="#FDF2F2"/>
<path d="M46.1992 38.1329V41.3671C46.1992 41.6621 46.4934 41.9617 46.8563 41.9617H59.5068V38.1328L46.1992 38.1329Z" fill="#2D3339"/>
<path d="M52.2207 38.1328H59.5078V41.9617H52.2207V38.1328Z" fill="#1D2124"/>
<path d="M60.5081 38.7927H46.4864C46.2178 38.7927 46 38.5749 46 38.3063V30.4864C46 30.2178 46.2178 30 46.4864 30H60.0217C60.2904 30 60.5081 30.2178 60.5081 30.4864V32.4717V38.7927Z" fill="#ED1B27"/>
<path d="M49.7239 43.9983C48.6269 43.9983 47.7344 43.1058 47.7344 42.0089C47.7344 40.912 48.6269 40.0195 49.7239 40.0195C50.821 40.0195 51.7135 40.912 51.7135 42.0089C51.7135 43.1058 50.821 43.9983 49.7239 43.9983Z" fill="#1E203E"/>
<path d="M62.9603 43.9944C61.8632 43.9944 60.9707 43.1019 60.9707 42.005C60.9707 40.9081 61.8632 40.0156 62.9603 40.0156C64.0573 40.0156 64.9498 40.9081 64.9498 42.005C64.9498 43.1019 64.0573 43.9944 62.9603 43.9944Z" fill="#1E203E"/>
<path d="M60.0214 30H52.2207V38.7927H60.5078V30.4864C60.5078 30.2178 60.29 30 60.0214 30Z" fill="#D22423"/>
<path d="M41.401 44H28.8462C28.3789 44 28 43.6212 28 43.1538V42.5554C28 40.3653 29.7755 38.5898 31.9658 38.5898H38.2815C40.4717 38.5898 42.2473 40.3653 42.2473 42.5554V43.1538C42.2473 43.6211 41.8684 44 41.401 44Z" fill="#2D3339"/>
<path d="M38.2809 38.5898H35.123V44H41.4004C41.8678 44 42.2467 43.6212 42.2467 43.1538V42.5554C42.2467 40.3653 40.4711 38.5898 38.2809 38.5898Z" fill="#1D2124"/>
<path d="M30.6797 31.6862V34.4962C30.6797 36.9501 32.669 38.9394 35.123 38.9394C37.577 38.9394 39.5664 36.9501 39.5664 34.4962V33.2645L35.123 30.6309L30.6797 31.6862Z" fill="#FFDECC"/>
<path d="M35.123 38.9394C37.577 38.9394 39.5664 36.9501 39.5664 34.4962V33.2645L35.123 30.6309V38.9394Z" fill="#FFCFB5"/>
<path d="M39.5664 31.3588C39.5664 29.5037 38.0625 28 36.2075 28H34.0386C32.1836 28 30.6797 29.5038 30.6797 31.3588V31.6889L39.5664 33.2671V31.3588Z" fill="#282A52"/>
<path d="M36.2075 28H35.123V32.478L39.5664 33.2672V31.3588C39.5664 29.5037 38.0625 28 36.2075 28Z" fill="#1E203E"/>
<path d="M77.3378 28C73.656 28 70.6712 31.0665 70.6712 34.8493C70.6712 34.8493 70.4222 40.5361 76.8008 43.8761C77.1145 44.0404 77.4855 44.0417 77.7993 43.8777C79.3606 43.0622 84.0043 40.1878 84.0043 34.8493C84.0043 31.0665 81.0196 28 77.3378 28Z" fill="#ED1B27"/>
<path d="M77.3359 28H77.3368C81.0185 28 84.0033 31.0665 84.0033 34.8493C84.0033 40.1878 79.3596 43.0622 77.7983 43.8777C77.6526 43.9538 77.4947 43.9943 77.3359 43.9994V28Z" fill="#D22423"/>
<ellipse cx="77.3367" cy="34.6686" rx="2.66682" ry="2.66667" fill="#FDF2F2"/>
<path d="M77.3367 37.3353V32.002C75.8639 32.002 74.6699 33.1959 74.6699 34.6686C74.6699 36.1414 75.8639 37.3353 77.3367 37.3353Z" fill="white"/>
<path d="M65.8217 82.4559V62.8314C65.8217 61.2703 64.5519 60.0006 62.9908 60.0006H45.748C45.3218 60.0006 45.748 60.3464 45.748 60.7726C45.748 61.1988 46.0939 61.5447 46.5201 61.5447C47.2299 61.5447 47.8068 62.1216 47.8068 62.8314V82.4559C47.8068 83.3072 48.4996 84 49.351 84H64.2775C65.1289 84 65.8217 83.3072 65.8217 82.4559Z" fill="#ED1B27"/>
<path d="M65.8219 82.4559V62.8314C65.8219 61.2703 64.5521 60.0006 62.991 60.0006H56.8145V84H64.2777C65.1291 84 65.8219 83.3072 65.8219 82.4559Z" fill="#D22423"/>
<path d="M60.2904 65.403C60.2904 64.4977 59.556 63.763 58.6511 63.763H54.3386C53.4337 63.763 52.6992 64.4977 52.6992 65.403C52.6992 66.3082 53.4337 67.043 54.3386 67.043H58.6511C59.556 67.043 60.2904 66.3082 60.2904 65.403Z" fill="white"/>
<path d="M62.3268 65.403C62.3268 64.4977 61.5924 63.763 60.6875 63.763C59.7825 63.763 56.9043 63.763 56.9043 63.763V67.043H60.6875C61.5924 67.043 62.3268 66.3082 62.3268 65.403Z" fill="#FBE4E4"/>
<path d="M60.2904 71.9616C60.2904 71.0563 59.556 70.3216 58.6511 70.3216H52.3386C51.4337 70.3216 50.6992 71.0563 50.6992 71.9616C50.6992 72.8668 51.4337 73.6016 52.3386 73.6016H58.6511C59.556 73.6016 60.2904 72.8668 60.2904 71.9616Z" fill="white"/>
<path d="M62.3268 71.9616C62.3268 71.0563 61.5924 70.3216 60.6875 70.3216C59.7825 70.3216 56.9043 70.3216 56.9043 70.3216V73.6016H60.6875C61.5924 73.6016 62.3268 72.8668 62.3268 71.9616Z" fill="#FBE4E4"/>
<path d="M60.2904 78.5202C60.2904 77.6149 59.556 76.8802 58.6511 76.8802H52.3386C51.4337 76.8802 50.6992 77.6149 50.6992 78.5202C50.6992 79.4254 51.4337 80.1602 52.3386 80.1602H58.6511C59.556 80.1602 60.2904 79.4254 60.2904 78.5202Z" fill="white"/>
<path d="M62.3268 78.5202C62.3268 77.6149 61.5924 76.8802 60.6875 76.8802C59.7825 76.8802 56.9043 76.8802 56.9043 76.8802V80.1602H60.6875C61.5924 80.1602 62.3268 79.4254 62.3268 78.5202Z" fill="#FBE4E4"/>
<path d="M47.8071 66.8965V62.0584C47.8071 60.9214 46.8853 59.9996 45.7483 59.9996C44.6144 59.9996 43.6895 60.9182 43.6895 62.0584V65.3524C43.6895 66.2052 44.3808 66.8965 45.2336 66.8965H47.8071Z" fill="#D22423"/>
<path fill-rule="evenodd" clip-rule="evenodd" d="M75.72 143.5L75.72 137.5L79 137.5L79 143.5C79 146.615 76.4749 149.14 73.36 149.14L37.36 149.14C34.2451 149.14 31.72 146.615 31.72 143.5L31.72 139.115L35 139.115L35 143.5C35 144.803 36.0566 145.86 37.36 145.86L73.36 145.86C74.6634 145.86 75.72 144.803 75.72 143.5Z" fill="#282A52"/>
<path fill-rule="evenodd" clip-rule="evenodd" d="M53.72 164.5L53.72 137.5L57 137.5L57 164.5L53.72 164.5Z" fill="#282A52"/>
<path d="M65.9736 132.392H65.841L64.4115 129.361H64.5748L63.998 128.127C63.8809 127.873 63.627 127.711 63.3461 127.711H59.3495L57.7422 132.229L59.5081 137.962H65.5641C65.894 137.962 66.1616 137.695 66.1619 137.365C66.1619 137.365 66.1667 134.017 66.1667 132.855C66.1667 132.835 66.1626 132.817 66.1546 132.8L65.9736 132.392Z" fill="#1D2124"/>
<path d="M64.5749 129.359H61.9918C61.7827 129.359 61.6133 129.529 61.6133 129.738V131.928C61.6133 132.183 61.8204 132.39 62.0759 132.39H65.9737L64.5749 129.359Z" fill="#FDF2F2"/>
<path d="M46.1992 134.133V137.367C46.1992 137.662 46.4934 137.962 46.8563 137.962H59.5068V134.133L46.1992 134.133Z" fill="#2D3339"/>
<path d="M52.2207 134.133H59.5078V137.962H52.2207V134.133Z" fill="#1D2124"/>
<path d="M60.5081 134.793H46.4864C46.2178 134.793 46 134.575 46 134.306V126.486C46 126.218 46.2178 126 46.4864 126H60.0217C60.2904 126 60.5081 126.218 60.5081 126.486V128.472V134.793Z" fill="#ED1B27"/>
<path d="M49.7239 139.998C48.6269 139.998 47.7344 139.106 47.7344 138.009C47.7344 136.912 48.6269 136.02 49.7239 136.02C50.821 136.02 51.7135 136.912 51.7135 138.009C51.7135 139.106 50.821 139.998 49.7239 139.998Z" fill="#1E203E"/>
<path d="M62.9603 139.994C61.8632 139.994 60.9707 139.102 60.9707 138.005C60.9707 136.908 61.8632 136.016 62.9603 136.016C64.0573 136.016 64.9498 136.908 64.9498 138.005C64.9498 139.102 64.0573 139.994 62.9603 139.994Z" fill="#1E203E"/>
<path d="M60.0214 126H52.2207V134.793H60.5078V126.486C60.5078 126.218 60.29 126 60.0214 126Z" fill="#D22423"/>
<path d="M41.401 140H28.8462C28.3789 140 28 139.621 28 139.154V138.555C28 136.365 29.7755 134.59 31.9658 134.59H38.2815C40.4717 134.59 42.2473 136.365 42.2473 138.555V139.154C42.2473 139.621 41.8684 140 41.401 140Z" fill="#2D3339"/>
<path d="M38.2809 134.59H35.123V140H41.4004C41.8678 140 42.2467 139.621 42.2467 139.154V138.555C42.2467 136.365 40.4711 134.59 38.2809 134.59Z" fill="#1D2124"/>
<path d="M30.6797 127.686V130.496C30.6797 132.95 32.669 134.939 35.123 134.939C37.577 134.939 39.5664 132.95 39.5664 130.496V129.264L35.123 126.631L30.6797 127.686Z" fill="#FFDECC"/>
<path d="M35.123 134.939C37.577 134.939 39.5664 132.95 39.5664 130.496V129.264L35.123 126.631V134.939Z" fill="#FFCFB5"/>
<path d="M39.5664 127.359C39.5664 125.504 38.0625 124 36.2075 124H34.0386C32.1836 124 30.6797 125.504 30.6797 127.359V127.689L39.5664 129.267V127.359Z" fill="#282A52"/>
<path d="M36.2075 124H35.123V128.478L39.5664 129.267V127.359C39.5664 125.504 38.0625 124 36.2075 124Z" fill="#1E203E"/>
<path d="M77.3378 124C73.656 124 70.6712 127.067 70.6712 130.849C70.6712 130.849 70.4222 136.536 76.8008 139.876C77.1145 140.04 77.4855 140.042 77.7993 139.878C79.3606 139.062 84.0043 136.188 84.0043 130.849C84.0043 127.067 81.0196 124 77.3378 124Z" fill="#ED1B27"/>
<path d="M77.3359 124H77.3368C81.0185 124 84.0033 127.067 84.0033 130.849C84.0033 136.188 79.3596 139.062 77.7983 139.878C77.6526 139.954 77.4947 139.994 77.3359 139.999V124Z" fill="#D22423"/>
<ellipse cx="77.3367" cy="130.669" rx="2.66682" ry="2.66667" fill="#FDF2F2"/>
<path d="M77.3367 133.335V128.002C75.8639 128.002 74.6699 129.196 74.6699 130.669C74.6699 132.141 75.8639 133.335 77.3367 133.335Z" fill="white"/>
<path d="M65.8217 178.456V158.831C65.8217 157.27 64.5519 156.001 62.9908 156.001H45.748C45.3218 156.001 45.748 156.346 45.748 156.773C45.748 157.199 46.0939 157.545 46.5201 157.545C47.2299 157.545 47.8068 158.122 47.8068 158.831V178.456C47.8068 179.307 48.4996 180 49.351 180H64.2775C65.1289 180 65.8217 179.307 65.8217 178.456Z" fill="#ED1B27"/>
<path d="M65.8219 178.456V158.831C65.8219 157.27 64.5521 156.001 62.991 156.001H56.8145V180H64.2777C65.1291 180 65.8219 179.307 65.8219 178.456Z" fill="#D22423"/>
<path d="M60.2904 161.403C60.2904 160.498 59.556 159.763 58.6511 159.763H54.3386C53.4337 159.763 52.6992 160.498 52.6992 161.403C52.6992 162.308 53.4337 163.043 54.3386 163.043H58.6511C59.556 163.043 60.2904 162.308 60.2904 161.403Z" fill="white"/>
<path d="M62.3268 161.403C62.3268 160.498 61.5924 159.763 60.6875 159.763C59.7825 159.763 56.9043 159.763 56.9043 159.763V163.043H60.6875C61.5924 163.043 62.3268 162.308 62.3268 161.403Z" fill="#FBE4E4"/>
<path d="M60.2904 167.962C60.2904 167.056 59.556 166.322 58.6511 166.322H52.3386C51.4337 166.322 50.6992 167.056 50.6992 167.962C50.6992 168.867 51.4337 169.602 52.3386 169.602H58.6511C59.556 169.602 60.2904 168.867 60.2904 167.962Z" fill="white"/>
<path d="M62.3268 167.962C62.3268 167.056 61.5924 166.322 60.6875 166.322C59.7825 166.322 56.9043 166.322 56.9043 166.322V169.602H60.6875C61.5924 169.602 62.3268 168.867 62.3268 167.962Z" fill="#FBE4E4"/>
<path d="M60.2904 174.52C60.2904 173.615 59.556 172.88 58.6511 172.88H52.3386C51.4337 172.88 50.6992 173.615 50.6992 174.52C50.6992 175.425 51.4337 176.16 52.3386 176.16H58.6511C59.556 176.16 60.2904 175.425 60.2904 174.52Z" fill="white"/>
<path d="M62.3268 174.52C62.3268 173.615 61.5924 172.88 60.6875 172.88C59.7825 172.88 56.9043 172.88 56.9043 172.88V176.16H60.6875C61.5924 176.16 62.3268 175.425 62.3268 174.52Z" fill="#FBE4E4"/>
<path d="M47.8071 162.896V158.058C47.8071 156.921 46.8853 156 45.7483 156C44.6144 156 43.6895 156.918 43.6895 158.058V161.352C43.6895 162.205 44.3808 162.896 45.2336 162.896H47.8071Z" fill="#D22423"/>
<defs>
<filter id="filter0_dd_7259_35178" x="6" y="9" width="100" height="100" filterUnits="userSpaceOnUse" color-interpolation-filters="sRGB">
<feFlood flood-opacity="0" result="BackgroundImageFix"/>
<feColorMatrix in="SourceAlpha" type="matrix" values="0 0 0 0 0 0 0 0 0 0 0 0 0 0 0 0 0 0 127 0" result="hardAlpha"/>
<feOffset dy="3"/>
<feGaussianBlur stdDeviation="5"/>
<feColorMatrix type="matrix" values="0 0 0 0 0.516667 0 0 0 0 0.578358 0 0 0 0 0.775 0 0 0 0.12 0"/>
<feBlend mode="normal" in2="BackgroundImageFix" result="effect1_dropShadow_7259_35178"/>
<feColorMatrix in="SourceAlpha" type="matrix" values="0 0 0 0 0 0 0 0 0 0 0 0 0 0 0 0 0 0 127 0" result="hardAlpha"/>
<feOffset dy="1"/>
<feGaussianBlur stdDeviation="3"/>
<feColorMatrix type="matrix" values="0 0 0 0 0.709809 0 0 0 0 0.788943 0 0 0 0 0.920833 0 0 0 0.15 0"/>
<feBlend mode="normal" in2="effect1_dropShadow_7259_35178" result="effect2_dropShadow_7259_35178"/>
<feBlend mode="normal" in="SourceGraphic" in2="effect2_dropShadow_7259_35178" result="shape"/>
</filter>
</defs>
</svg>
