<svg width="112" height="200" viewBox="0 0 112 200" fill="none" xmlns="http://www.w3.org/2000/svg">
<rect x="0.5" y="0.5" width="111" height="199" rx="4.5" stroke="#9747FF" stroke-dasharray="10 5"/>
<g filter="url(#filter0_dd_7259_34910)">
<rect x="16" y="16" width="80" height="80" rx="8" fill="white"/>
</g>
<path d="M43.2518 83.9952C42.3629 83.9505 41.6716 83.2049 41.6939 82.3146C41.7162 81.4244 42.4439 80.7143 43.334 80.7143H43.6616C44.133 80.6823 44.5737 80.4891 44.9224 80.1573C45.3577 79.743 45.5976 79.175 45.5976 78.5579C45.5976 77.9466 45.3598 77.3781 44.9279 76.957C44.5414 76.5803 44.0411 76.367 43.5075 76.3487H43.334C42.4362 76.3487 41.7051 75.6266 41.6935 74.7283C41.6819 73.8301 42.3943 73.0894 43.2918 73.0663C43.3801 73.064 43.4683 73.0639 43.5558 73.0657H68.4432C68.5307 73.0639 68.6188 73.064 68.7073 73.0663C69.6048 73.0894 70.3172 73.83 70.3056 74.7283C70.2941 75.6266 69.5629 76.3487 68.665 76.3487H68.4916C67.9578 76.3669 67.4576 76.5802 67.0712 76.957C66.6394 77.3781 66.4015 77.9466 66.4015 78.5579C66.4015 79.175 66.6413 79.743 67.0767 80.1573C67.4254 80.4891 67.8662 80.6823 68.3376 80.7143H68.665C69.5551 80.7143 70.2828 81.4244 70.3051 82.3146C70.3274 83.2049 69.6363 83.9505 68.7473 83.9952C68.6554 83.9999 43.4212 84.0038 43.2518 83.9952Z" fill="#ED1B27"/>
<path d="M68.6658 80.7143H68.3384C67.867 80.6823 67.4263 80.4891 67.0775 80.1573C66.6422 79.743 66.4023 79.175 66.4023 78.5579C66.4023 77.9466 66.6401 77.3781 67.072 76.957C67.4585 76.5802 67.9586 76.3669 68.4924 76.3487H68.6658C69.5637 76.3487 70.2948 75.6266 70.3064 74.7283C70.318 73.8301 69.6056 73.0894 68.7081 73.0663C68.6197 73.064 68.5316 73.0639 68.444 73.0657H56V83.9972C56 83.9972 68.6561 83.9998 68.7481 83.9952C69.637 83.9505 70.3282 83.2049 70.3059 82.3146C70.2836 81.4243 69.5559 80.7143 68.6658 80.7143Z" fill="#D22423"/>
<path d="M73.6084 83.9998H38.3906C37.4846 83.9998 36.75 83.2648 36.75 82.3583C36.75 81.4517 37.4846 80.7168 38.3906 80.7168H73.6084C74.5144 80.7168 75.249 81.4517 75.249 82.3583C75.249 83.2648 74.5144 83.9998 73.6084 83.9998Z" fill="#ED1B27"/>
<path d="M73.6092 80.7168H56V83.9998H73.6092C74.5153 83.9998 75.2498 83.2648 75.2498 82.3583C75.2498 81.4517 74.5153 80.7168 73.6092 80.7168Z" fill="#D22423"/>
<path d="M82.3594 76.3892H29.6406C28.7346 76.3892 28 75.6543 28 74.7477V33H84V74.7477C84 75.6543 83.2654 76.3892 82.3594 76.3892Z" fill="#ED1B27"/>
<path d="M56 33V76.3892H82.3597C83.2658 76.3892 84.0003 75.6543 84.0003 74.7477V33H56Z" fill="#D22423"/>
<path d="M31.2812 73.1058V36H56H80.7187V73.1058H31.2812Z" fill="white"/>
<path d="M56.0003 36L56 73.1058H80.7191V36H56.0003Z" fill="#FDF2F2"/>
<path d="M77.0871 40.0852C74.9768 40.0852 73.0842 39.134 71.8153 37.6379C70.5463 39.134 68.6537 40.0852 66.5435 40.0852C64.4333 40.0852 62.5406 39.134 61.2717 37.6379C60.0027 39.134 58.1101 40.0852 55.9999 40.0852C53.8897 40.0852 51.997 39.134 50.7281 37.6379C49.4591 39.134 47.5665 40.0852 45.4562 40.0852C43.3459 40.0852 41.4532 39.134 40.1844 37.6379C38.9154 39.134 37.0227 40.0852 34.9126 40.0852C31.1009 40.0852 28 36.9827 28 33.1692C28 32.9131 28.0599 32.6606 28.1749 32.4318L31.4562 28.9039C31.7347 28.3496 32.3019 28 32.9219 28H79.0781C79.6981 28 80.2651 28.3497 80.5438 28.9039L83.8251 32.4318C83.9483 32.6767 84.006 32.944 83.9996 33.2094C83.9777 37.0043 80.8852 40.0852 77.0871 40.0852Z" fill="#ED1B27"/>
<path d="M83.8254 32.4318L80.5442 28.9039C80.2656 28.3496 79.6985 28 79.0784 28H56V40.0853C58.1102 40.0853 60.003 39.1341 61.2719 37.638C62.5409 39.1341 64.4335 40.0853 66.5437 40.0853C68.6539 40.0853 70.5467 39.1341 71.8155 37.638C73.0845 39.1341 74.977 40.0853 77.0873 40.0853C80.8854 40.0853 83.9779 37.0044 83.9997 33.2095C84.0063 32.9439 83.9485 32.6767 83.8254 32.4318Z" fill="#D22423"/>
<path d="M56 52H41L42.7755 63.4241C42.7755 63.4241 43.1428 66 45.7143 66C48.2857 66 56 66 56 66C56 66 63.7144 66 66.2857 66C68.8572 66 69.2245 63.4241 69.2245 63.4241L71 52H56Z" fill="#ED1B27"/>
<path d="M51.125 48.0781C51.125 47.5342 50.6849 47.0938 50.1406 47.0938H44.2344C43.6901 47.0938 43.25 47.5342 43.25 48.0781V52.0159C43.25 52.5599 43.6901 53.0003 44.2344 53.0003H51.125C51.125 53.0003 51.125 48.6224 51.125 48.0781Z" fill="#08A559"/>
<path d="M56.0003 46.1094V52.0159C56.0003 52.567 55.567 53.0003 55.0159 53.0003H47.1406C46.5895 53.0003 46.1562 52.567 46.1562 52.0159V46.1094C46.1562 45.5582 46.5895 45.125 47.1406 45.125H55.0159C55.567 45.125 56.0003 45.5582 56.0003 46.1094Z" fill="#09C369"/>
<path d="M56.0003 46.1094V52.0159C56.0003 52.567 55.567 53.0003 55.0159 53.0003H49.7656V45.125H55.0159C55.567 45.125 56.0003 45.5582 56.0003 46.1094Z" fill="#08A559"/>
<path fill-rule="evenodd" clip-rule="evenodd" d="M56 66H66.2857C68.8572 66 69.2245 63.4241 69.2245 63.4241L71 52H56V66Z" fill="#D22423"/>
<rect x="40" y="50" width="32" height="3" rx="1.5" fill="#ED1B27"/>
<path d="M56 56C58.2091 56 60 54.2091 60 52C60 49.7909 58.2091 48 56 48C53.7909 48 52 49.7909 52 52C52 54.2091 53.7909 56 56 56Z" fill="#ED1B27"/>
<rect x="62.4844" y="43" width="3" height="12" rx="1.5" transform="rotate(45 62.4844 43)" fill="#282A52"/>
<path d="M48.5 57.5C48.5 56.6716 49.1716 56 50 56C50.8284 56 51.5 56.6716 51.5 57.5V61.5C51.5 62.3284 50.8284 63 50 63C49.1716 63 48.5 62.3284 48.5 61.5V57.5Z" fill="#FBE4E4"/>
<path d="M54.5 57.5C54.5 56.6716 55.1716 56 56 56C56.8284 56 57.5 56.6716 57.5 57.5V61.5C57.5 62.3284 56.8284 63 56 63C55.1716 63 54.5 62.3284 54.5 61.5V57.5Z" fill="#FBE4E4"/>
<path d="M60.5 57.5C60.5 56.6716 61.1716 56 62 56C62.8284 56 63.5 56.6716 63.5 57.5V61.5C63.5 62.3284 62.8284 63 62 63C61.1716 63 60.5 62.3284 60.5 61.5V57.5Z" fill="#F7C7C7"/>
<path fill-rule="evenodd" clip-rule="evenodd" d="M56 63C56.8284 63 57.5 62.3284 57.5 61.5V57.5C57.5 56.6716 56.8284 56 56 56V63Z" fill="#F7C7C7"/>
<path fill-rule="evenodd" clip-rule="evenodd" d="M56 56C58.2091 56 60 54.2091 60 52C60 49.7909 58.2091 48 56 48V56Z" fill="#D22423"/>
<path fill-rule="evenodd" clip-rule="evenodd" d="M56 53H70.5C71.3284 53 72 52.3284 72 51.5C72 50.6716 71.3284 50 70.5 50H56V53Z" fill="#D22423"/>
<path fill-rule="evenodd" clip-rule="evenodd" d="M56 52.9805C56.423 53.0143 56.8575 52.8695 57.1811 52.5459L63.545 46.182C64.1308 45.5962 64.1308 44.6464 63.545 44.0607C62.9592 43.4749 62.0095 43.4749 61.4237 44.0607L56 49.4844V52.9805Z" fill="#1E203E"/>
<path d="M43.2518 179.995C42.3629 179.951 41.6716 179.205 41.6939 178.315C41.7162 177.424 42.4439 176.714 43.334 176.714H43.6616C44.133 176.682 44.5737 176.489 44.9224 176.157C45.3577 175.743 45.5976 175.175 45.5976 174.558C45.5976 173.947 45.3598 173.378 44.9279 172.957C44.5414 172.58 44.0411 172.367 43.5075 172.349H43.334C42.4362 172.349 41.7051 171.627 41.6935 170.728C41.6819 169.83 42.3943 169.089 43.2918 169.066C43.3801 169.064 43.4683 169.064 43.5558 169.066H68.4432C68.5307 169.064 68.6188 169.064 68.7073 169.066C69.6048 169.089 70.3172 169.83 70.3056 170.728C70.2941 171.627 69.5629 172.349 68.665 172.349H68.4916C67.9578 172.367 67.4576 172.58 67.0712 172.957C66.6394 173.378 66.4015 173.947 66.4015 174.558C66.4015 175.175 66.6413 175.743 67.0767 176.157C67.4254 176.489 67.8662 176.682 68.3376 176.714H68.665C69.5551 176.714 70.2828 177.424 70.3051 178.315C70.3274 179.205 69.6363 179.951 68.7473 179.995C68.6554 180 43.4212 180.004 43.2518 179.995Z" fill="#ED1B27"/>
<path d="M68.6658 176.714H68.3384C67.867 176.682 67.4263 176.489 67.0775 176.157C66.6422 175.743 66.4023 175.175 66.4023 174.558C66.4023 173.947 66.6401 173.378 67.072 172.957C67.4585 172.58 67.9586 172.367 68.4924 172.349H68.6658C69.5637 172.349 70.2948 171.627 70.3064 170.728C70.318 169.83 69.6056 169.089 68.7081 169.066C68.6197 169.064 68.5316 169.064 68.444 169.066H56V179.997C56 179.997 68.6561 180 68.7481 179.995C69.637 179.951 70.3282 179.205 70.3059 178.315C70.2836 177.424 69.5559 176.714 68.6658 176.714Z" fill="#D22423"/>
<path d="M73.6084 180H38.3906C37.4846 180 36.75 179.265 36.75 178.358C36.75 177.452 37.4846 176.717 38.3906 176.717H73.6084C74.5144 176.717 75.249 177.452 75.249 178.358C75.249 179.265 74.5144 180 73.6084 180Z" fill="#ED1B27"/>
<path d="M73.6092 176.717H56V180H73.6092C74.5153 180 75.2498 179.265 75.2498 178.358C75.2498 177.452 74.5153 176.717 73.6092 176.717Z" fill="#D22423"/>
<path d="M82.3594 172.389H29.6406C28.7346 172.389 28 171.654 28 170.748V129H84V170.748C84 171.654 83.2654 172.389 82.3594 172.389Z" fill="#ED1B27"/>
<path d="M56 129V172.389H82.3597C83.2658 172.389 84.0003 171.654 84.0003 170.748V129H56Z" fill="#D22423"/>
<path d="M31.2812 169.106V132H56H80.7187V169.106H31.2812Z" fill="white"/>
<path d="M56.0003 132L56 169.106H80.7191V132H56.0003Z" fill="#FDF2F2"/>
<path d="M77.0871 136.085C74.9768 136.085 73.0842 135.134 71.8153 133.638C70.5463 135.134 68.6537 136.085 66.5435 136.085C64.4333 136.085 62.5406 135.134 61.2717 133.638C60.0027 135.134 58.1101 136.085 55.9999 136.085C53.8897 136.085 51.997 135.134 50.7281 133.638C49.4591 135.134 47.5665 136.085 45.4562 136.085C43.3459 136.085 41.4532 135.134 40.1844 133.638C38.9154 135.134 37.0227 136.085 34.9126 136.085C31.1009 136.085 28 132.983 28 129.169C28 128.913 28.0599 128.661 28.1749 128.432L31.4562 124.904C31.7347 124.35 32.3019 124 32.9219 124H79.0781C79.6981 124 80.2651 124.35 80.5438 124.904L83.8251 128.432C83.9483 128.677 84.006 128.944 83.9996 129.209C83.9777 133.004 80.8852 136.085 77.0871 136.085Z" fill="#ED1B27"/>
<path d="M83.8254 128.432L80.5442 124.904C80.2656 124.35 79.6985 124 79.0784 124H56V136.085C58.1102 136.085 60.003 135.134 61.2719 133.638C62.5409 135.134 64.4335 136.085 66.5437 136.085C68.6539 136.085 70.5467 135.134 71.8155 133.638C73.0845 135.134 74.977 136.085 77.0873 136.085C80.8854 136.085 83.9779 133.004 83.9997 129.209C84.0063 128.944 83.9485 128.677 83.8254 128.432Z" fill="#D22423"/>
<path d="M56 148H41L42.7755 159.424C42.7755 159.424 43.1428 162 45.7143 162C48.2857 162 56 162 56 162C56 162 63.7144 162 66.2857 162C68.8572 162 69.2245 159.424 69.2245 159.424L71 148H56Z" fill="#ED1B27"/>
<path d="M51.125 144.078C51.125 143.534 50.6849 143.094 50.1406 143.094H44.2344C43.6901 143.094 43.25 143.534 43.25 144.078V148.016C43.25 148.56 43.6901 149 44.2344 149H51.125C51.125 149 51.125 144.622 51.125 144.078Z" fill="#08A559"/>
<path d="M56.0003 142.109V148.016C56.0003 148.567 55.567 149 55.0159 149H47.1406C46.5895 149 46.1562 148.567 46.1562 148.016V142.109C46.1562 141.558 46.5895 141.125 47.1406 141.125H55.0159C55.567 141.125 56.0003 141.558 56.0003 142.109Z" fill="#09C369"/>
<path d="M56.0003 142.109V148.016C56.0003 148.567 55.567 149 55.0159 149H49.7656V141.125H55.0159C55.567 141.125 56.0003 141.558 56.0003 142.109Z" fill="#08A559"/>
<path fill-rule="evenodd" clip-rule="evenodd" d="M56 162H66.2857C68.8572 162 69.2245 159.424 69.2245 159.424L71 148H56V162Z" fill="#D22423"/>
<rect x="40" y="146" width="32" height="3" rx="1.5" fill="#ED1B27"/>
<path d="M56 152C58.2091 152 60 150.209 60 148C60 145.791 58.2091 144 56 144C53.7909 144 52 145.791 52 148C52 150.209 53.7909 152 56 152Z" fill="#ED1B27"/>
<rect x="62.4844" y="139" width="3" height="12" rx="1.5" transform="rotate(45 62.4844 139)" fill="#282A52"/>
<path d="M48.5 153.5C48.5 152.672 49.1716 152 50 152C50.8284 152 51.5 152.672 51.5 153.5V157.5C51.5 158.328 50.8284 159 50 159C49.1716 159 48.5 158.328 48.5 157.5V153.5Z" fill="#FBE4E4"/>
<path d="M54.5 153.5C54.5 152.672 55.1716 152 56 152C56.8284 152 57.5 152.672 57.5 153.5V157.5C57.5 158.328 56.8284 159 56 159C55.1716 159 54.5 158.328 54.5 157.5V153.5Z" fill="#FBE4E4"/>
<path d="M60.5 153.5C60.5 152.672 61.1716 152 62 152C62.8284 152 63.5 152.672 63.5 153.5V157.5C63.5 158.328 62.8284 159 62 159C61.1716 159 60.5 158.328 60.5 157.5V153.5Z" fill="#F7C7C7"/>
<path fill-rule="evenodd" clip-rule="evenodd" d="M56 159C56.8284 159 57.5 158.328 57.5 157.5V153.5C57.5 152.672 56.8284 152 56 152V159Z" fill="#F7C7C7"/>
<path fill-rule="evenodd" clip-rule="evenodd" d="M56 152C58.2091 152 60 150.209 60 148C60 145.791 58.2091 144 56 144V152Z" fill="#D22423"/>
<path fill-rule="evenodd" clip-rule="evenodd" d="M56 149H70.5C71.3284 149 72 148.328 72 147.5C72 146.672 71.3284 146 70.5 146H56V149Z" fill="#D22423"/>
<path fill-rule="evenodd" clip-rule="evenodd" d="M56 148.98C56.423 149.014 56.8575 148.869 57.1811 148.546L63.545 142.182C64.1308 141.596 64.1308 140.646 63.545 140.061C62.9592 139.475 62.0095 139.475 61.4237 140.061L56 145.484V148.98Z" fill="#1E203E"/>
<defs>
<filter id="filter0_dd_7259_34910" x="6" y="9" width="100" height="100" filterUnits="userSpaceOnUse" color-interpolation-filters="sRGB">
<feFlood flood-opacity="0" result="BackgroundImageFix"/>
<feColorMatrix in="SourceAlpha" type="matrix" values="0 0 0 0 0 0 0 0 0 0 0 0 0 0 0 0 0 0 127 0" result="hardAlpha"/>
<feOffset dy="3"/>
<feGaussianBlur stdDeviation="5"/>
<feColorMatrix type="matrix" values="0 0 0 0 0.516667 0 0 0 0 0.578358 0 0 0 0 0.775 0 0 0 0.12 0"/>
<feBlend mode="normal" in2="BackgroundImageFix" result="effect1_dropShadow_7259_34910"/>
<feColorMatrix in="SourceAlpha" type="matrix" values="0 0 0 0 0 0 0 0 0 0 0 0 0 0 0 0 0 0 127 0" result="hardAlpha"/>
<feOffset dy="1"/>
<feGaussianBlur stdDeviation="3"/>
<feColorMatrix type="matrix" values="0 0 0 0 0.709809 0 0 0 0 0.788943 0 0 0 0 0.920833 0 0 0 0.15 0"/>
<feBlend mode="normal" in2="effect1_dropShadow_7259_34910" result="effect2_dropShadow_7259_34910"/>
<feBlend mode="normal" in="SourceGraphic" in2="effect2_dropShadow_7259_34910" result="shape"/>
</filter>
</defs>
</svg>
