<svg width="112" height="200" viewBox="0 0 112 200" fill="none" xmlns="http://www.w3.org/2000/svg">
<rect x="0.5" y="0.5" width="111" height="199" rx="4.5" stroke="#9747FF" stroke-dasharray="10 5"/>
<g filter="url(#filter0_d_11741_60025)">
<rect x="16" y="16" width="80" height="80" rx="8" fill="white"/>
</g>
<path d="M47.8047 70.957H64.1974V83.0384H47.8047V70.957Z" fill="#FDF2F2"/>
<path d="M55.9961 70.957H64.1956V83.0384H55.9961V70.957Z" fill="#FBE4E4"/>
<path d="M78.6411 71.6435H33.3601C31.3059 71.6435 29.6406 69.9782 29.6406 67.924V33.364C29.6406 31.3098 31.3059 29.6445 33.3601 29.6445H78.6411C80.6954 29.6445 82.3606 31.3098 82.3606 33.364V67.924C82.3606 69.9781 80.6953 71.6435 78.6411 71.6435Z" fill="white"/>
<path d="M78.6398 29.6445H55.9961V71.6435H78.6397C80.694 71.6435 82.3592 69.9782 82.3592 67.924V33.364C82.3593 31.3098 80.694 29.6445 78.6398 29.6445Z" fill="#FDF2F2"/>
<path d="M68.9713 80.7109H43.0267C42.121 80.7109 41.3867 81.4452 41.3867 82.3509C41.3867 83.2566 42.121 83.9909 43.0267 83.9909H68.9712C69.8769 83.9909 70.6112 83.2566 70.6112 82.3509C70.6112 81.4452 69.877 80.7109 68.9713 80.7109Z" fill="#FBE4E4"/>
<path d="M29.6602 69.4103C29.6602 70.3472 30.6484 71.1095 31.8632 71.1095H79.834C81.0488 71.1095 82.0371 70.3472 82.0371 69.4103V63.2852H29.6602V69.4103Z" fill="#ED1B27"/>
<path d="M68.9716 80.7109H55.9961V83.9909H68.9715C69.8772 83.9909 70.6115 83.2566 70.6115 82.3509C70.6115 81.4452 69.8773 80.7109 68.9716 80.7109Z" fill="#F7C7C7"/>
<path d="M55.9434 71.1095H79.8327C81.0475 71.1095 82.0358 70.3472 82.0358 69.4103V63.2852H55.9434V71.1095Z" fill="#D22423"/>
<path d="M78.6405 73.2827H33.3595C30.4042 73.2827 28 70.8785 28 67.9232V33.3634C28 30.4082 30.4042 28.0039 33.3595 28.0039H78.6405C81.5958 28.0039 84 30.4081 84 33.3634V67.9233C84 70.8785 81.5958 73.2827 78.6405 73.2827ZM33.3595 31.2839C32.2128 31.2839 31.28 32.2167 31.28 33.3634V67.9233C31.28 69.0699 32.2128 70.0028 33.3595 70.0028H78.6405C79.7872 70.0028 80.72 69.07 80.72 67.9233V33.3634C80.72 32.2168 79.7872 31.2839 78.6405 31.2839H33.3595Z" fill="#FBE4E4"/>
<path d="M78.6398 28.0039H55.9961V31.2839H78.6397C79.7864 31.2839 80.7192 32.2167 80.7192 33.3634V67.9233C80.7192 69.0699 79.7864 70.0028 78.6397 70.0028H55.9961V73.2828H78.6397C81.595 73.2828 83.9992 70.8786 83.9992 67.9233V33.3634C83.9993 30.4082 81.5951 28.0039 78.6398 28.0039Z" fill="#F7C7C7"/>
<path d="M65.4156 59.2177H46.5856C45.8847 59.2177 45.3164 58.6495 45.3164 57.9486V57.0511C45.3164 53.7664 47.9794 51.1035 51.2644 51.1035H60.7368C64.0218 51.1035 66.6848 53.7664 66.6848 57.0511V57.9486C66.6848 58.6494 66.1165 59.2177 65.4156 59.2177Z" fill="#2D3339"/>
<path d="M60.7362 51.1035H56V59.2178H65.415C66.1159 59.2178 66.6842 58.6495 66.6842 57.9486V57.0511C66.6842 53.7664 64.0212 51.1035 60.7362 51.1035Z" fill="#1D2124"/>
<path d="M49.3359 40.7449V44.9594C49.3359 48.6397 52.3196 51.6233 56.0002 51.6233C59.6807 51.6233 62.6645 48.6397 62.6645 44.9594V43.1121L56.0002 39.1621L49.3359 40.7449Z" fill="#FFDECC"/>
<path d="M56 51.6233C59.6805 51.6233 62.6643 48.6397 62.6643 44.9594V43.1121L56 39.1621V51.6233Z" fill="#FFCFB5"/>
<path d="M62.6645 40.2543C62.6645 37.4721 60.4089 35.2168 57.6266 35.2168H54.3737C51.5915 35.2168 49.3359 37.4722 49.3359 40.2543V40.7494L62.6645 43.1164V40.2543Z" fill="#282A52"/>
<path d="M57.6265 35.2168H56V41.933L62.6643 43.1166V40.2543C62.6643 37.4721 60.4087 35.2168 57.6265 35.2168Z" fill="#1E203E"/>
<path d="M47.8047 166.957H64.1974V179.038H47.8047V166.957Z" fill="#FDF2F2"/>
<path d="M55.9961 166.957H64.1956V179.038H55.9961V166.957Z" fill="#FBE4E4"/>
<path d="M78.6411 167.643H33.3601C31.3059 167.643 29.6406 165.978 29.6406 163.924V129.364C29.6406 127.31 31.3059 125.645 33.3601 125.645H78.6411C80.6954 125.645 82.3606 127.31 82.3606 129.364V163.924C82.3606 165.978 80.6953 167.643 78.6411 167.643Z" fill="white"/>
<path d="M78.6398 125.645H55.9961V167.643H78.6397C80.694 167.643 82.3592 165.978 82.3592 163.924V129.364C82.3593 127.31 80.694 125.645 78.6398 125.645Z" fill="#FDF2F2"/>
<path d="M68.9713 176.711H43.0267C42.121 176.711 41.3867 177.445 41.3867 178.351C41.3867 179.257 42.121 179.991 43.0267 179.991H68.9712C69.8769 179.991 70.6112 179.257 70.6112 178.351C70.6112 177.445 69.877 176.711 68.9713 176.711Z" fill="#FBE4E4"/>
<path d="M29.6602 165.41C29.6602 166.347 30.6484 167.109 31.8632 167.109H79.834C81.0488 167.109 82.0371 166.347 82.0371 165.41V159.285H29.6602V165.41Z" fill="#ED1B27"/>
<path d="M68.9716 176.711H55.9961V179.991H68.9715C69.8772 179.991 70.6115 179.257 70.6115 178.351C70.6115 177.445 69.8773 176.711 68.9716 176.711Z" fill="#F7C7C7"/>
<path d="M55.9434 167.109H79.8327C81.0475 167.109 82.0358 166.347 82.0358 165.41V159.285H55.9434V167.109Z" fill="#D22423"/>
<path d="M78.6405 169.283H33.3595C30.4042 169.283 28 166.878 28 163.923V129.363C28 126.408 30.4042 124.004 33.3595 124.004H78.6405C81.5958 124.004 84 126.408 84 129.363V163.923C84 166.878 81.5958 169.283 78.6405 169.283ZM33.3595 127.284C32.2128 127.284 31.28 128.217 31.28 129.363V163.923C31.28 165.07 32.2128 166.003 33.3595 166.003H78.6405C79.7872 166.003 80.72 165.07 80.72 163.923V129.363C80.72 128.217 79.7872 127.284 78.6405 127.284H33.3595Z" fill="#FBE4E4"/>
<path d="M78.6398 124.004H55.9961V127.284H78.6397C79.7864 127.284 80.7192 128.217 80.7192 129.363V163.923C80.7192 165.07 79.7864 166.003 78.6397 166.003H55.9961V169.283H78.6397C81.595 169.283 83.9992 166.879 83.9992 163.923V129.363C83.9993 126.408 81.5951 124.004 78.6398 124.004Z" fill="#F7C7C7"/>
<path d="M65.4156 155.218H46.5856C45.8847 155.218 45.3164 154.65 45.3164 153.949V153.051C45.3164 149.766 47.9794 147.104 51.2644 147.104H60.7368C64.0218 147.104 66.6848 149.766 66.6848 153.051V153.949C66.6848 154.649 66.1165 155.218 65.4156 155.218Z" fill="#2D3339"/>
<path d="M60.7362 147.104H56V155.218H65.415C66.1159 155.218 66.6842 154.65 66.6842 153.949V153.051C66.6842 149.766 64.0212 147.104 60.7362 147.104Z" fill="#1D2124"/>
<path d="M49.3359 136.745V140.959C49.3359 144.64 52.3196 147.623 56.0002 147.623C59.6807 147.623 62.6645 144.64 62.6645 140.959V139.112L56.0002 135.162L49.3359 136.745Z" fill="#FFDECC"/>
<path d="M56 147.623C59.6805 147.623 62.6643 144.64 62.6643 140.959V139.112L56 135.162V147.623Z" fill="#FFCFB5"/>
<path d="M62.6645 136.254C62.6645 133.472 60.4089 131.217 57.6266 131.217H54.3737C51.5915 131.217 49.3359 133.472 49.3359 136.254V136.749L62.6645 139.116V136.254Z" fill="#282A52"/>
<path d="M57.6265 131.217H56V137.933L62.6643 139.117V136.254C62.6643 133.472 60.4087 131.217 57.6265 131.217Z" fill="#1E203E"/>
<defs>
<filter id="filter0_d_11741_60025" x="10" y="9" width="96" height="96" filterUnits="userSpaceOnUse" color-interpolation-filters="sRGB">
<feFlood flood-opacity="0" result="BackgroundImageFix"/>
<feColorMatrix in="SourceAlpha" type="matrix" values="0 0 0 0 0 0 0 0 0 0 0 0 0 0 0 0 0 0 127 0" result="hardAlpha"/>
<feOffset dx="2" dy="1"/>
<feGaussianBlur stdDeviation="4"/>
<feColorMatrix type="matrix" values="0 0 0 0 0.0392157 0 0 0 0 0.0392157 0 0 0 0 0.0627451 0 0 0 0.08 0"/>
<feBlend mode="normal" in2="BackgroundImageFix" result="effect1_dropShadow_11741_60025"/>
<feBlend mode="normal" in="SourceGraphic" in2="effect1_dropShadow_11741_60025" result="shape"/>
</filter>
</defs>
</svg>
