<svg width="112" height="208" viewBox="0 0 112 208" fill="none" xmlns="http://www.w3.org/2000/svg">
<rect x="0.5" y="0.5" width="111" height="207" rx="4.5" stroke="#9747FF" stroke-dasharray="10 5"/>
<g filter="url(#filter0_d_16076_13484)">
<rect x="16" y="16" width="80" height="80" rx="8" fill="white"/>
</g>
<path d="M78.8395 83.9995H30.0659C28.9249 83.9995 28 83.0444 28 81.8662V30.1333C28 28.9551 28.9249 28 30.0659 28H55.1144C56.9863 28 58.5037 29.5669 58.5037 31.5V33.25C58.5037 34.2164 59.2624 34.9999 60.1983 34.9999H75.4502C77.3221 34.9999 78.8395 36.5669 78.8395 38.4999V83.9995Z" fill="#FBE4E4"/>
<path d="M75.4503 34.9999H60.1984C59.2625 34.9999 58.5038 34.2164 58.5038 33.25V31.5C58.5038 29.5669 56.9864 28 55.1145 28H53.3069V83.9995H76.7737C77.9147 83.9995 78.8396 83.0444 78.8396 81.8662V38.4999C78.8396 36.5669 77.322 34.9999 75.4503 34.9999Z" fill="#F5BCBC"/>
<path d="M78.8395 38.4999H60.1983C57.3949 38.4999 55.1144 36.1449 55.1144 33.25V28H76.7736C77.9146 28 78.8395 28.9551 78.8395 30.1333V38.4999Z" fill="#757575"/>
<path d="M51.7251 60.8656C51.7251 62.0438 50.8001 62.9989 49.6592 62.9989H36.8444C35.7035 62.9989 34.7786 62.0438 34.7786 60.8656V57.749C34.7786 54.854 37.0591 52.499 39.8625 52.499H46.6411C49.4445 52.499 51.7251 54.854 51.7251 57.749V60.8656Z" fill="#ED1B27"/>
<path d="M43.2521 52.4999C40.4487 52.4999 38.1681 50.1449 38.1681 47.25C38.1681 44.355 40.4487 42 43.2521 42C46.0555 42 48.336 44.355 48.336 47.25C48.336 50.1449 46.0555 52.4999 43.2521 52.4999Z" fill="#FFCFB5"/>
<path d="M34.7788 68.25C34.7788 67.2835 35.5375 66.5 36.4735 66.5H46.9641C47.9001 66.5 48.6588 67.2835 48.6588 68.25C48.6588 69.2165 47.9001 70 46.9641 70H36.4735C35.5375 70 34.7788 69.2165 34.7788 68.25Z" fill="#344054"/>
<path d="M34.7787 36.0667C34.7787 35.4776 35.2411 35 35.8116 35H37.1351C37.7055 35 38.168 35.4776 38.168 36.0667V37.4333C38.168 38.0224 37.7055 38.5 37.1351 38.5H35.8116C35.2411 38.5 34.7787 38.0224 34.7787 37.4333V36.0667Z" fill="#757575"/>
<path d="M41.5573 36.0667C41.5573 35.4776 42.0197 35 42.5902 35H43.9136C44.4841 35 44.9466 35.4776 44.9466 36.0667V37.4333C44.9466 38.0224 44.4841 38.5 43.9136 38.5H42.5902C42.0197 38.5 41.5573 38.0224 41.5573 37.4333V36.0667Z" fill="#ED1B27"/>
<path d="M48.3358 36.0667C48.3358 35.4776 48.7983 35 49.3687 35H50.6922C51.2627 35 51.7251 35.4776 51.7251 36.0667V37.4333C51.7251 38.0224 51.2627 38.5 50.6922 38.5H49.3687C48.7983 38.5 48.3358 38.0224 48.3358 37.4333V36.0667Z" fill="#ED1B27"/>
<path d="M36.4735 73.0664C35.5375 73.0664 34.7788 73.8499 34.7788 74.8164C34.7788 75.7829 35.5375 76.5664 36.4735 76.5664H46.9088C47.8753 76.5664 48.6588 75.7829 48.6588 74.8164C48.6588 73.8499 47.8753 73.0664 46.9088 73.0664H36.4735Z" fill="#344054"/>
<path d="M53.9482 65.225C53.8503 65.3261 53.7646 65.4393 53.6934 65.562L48.9002 73.8116C48.5002 74.5002 48.6052 75.3816 49.1551 75.9494C49.7048 76.5171 50.5585 76.6257 51.2251 76.2125L59.2138 71.2628C59.3327 71.1892 59.4423 71.1007 59.5403 70.9996L58.9273 65.8579L53.9482 65.225Z" fill="#344054"/>
<path d="M49.1731 75.9683C49.7234 76.5191 50.5645 76.6211 51.2236 76.2128L59.2122 71.263C59.3311 71.1894 59.4408 71.1011 59.5387 71L58.9299 65.8929L49.1731 75.9683Z" fill="#475467"/>
<path d="M59.5385 71.0371L73.918 56.188C74.5798 55.5045 74.5798 54.3965 73.918 53.7131L70.7226 50.4133C70.0608 49.7299 68.9879 49.7299 68.3259 50.4133L53.9464 65.2624L59.5385 71.0371Z" fill="#ED1B27"/>
<path d="M72.3204 52.0632L56.7426 68.1498L59.5386 71.0371L73.9182 56.1879C74.5799 55.5045 74.5799 54.3965 73.9182 53.7131L72.3204 52.0632Z" fill="#D22423"/>
<path d="M68.3267 50.4129L73.1199 45.4631C73.7817 44.7798 74.8547 44.7798 75.5165 45.4631L78.712 48.7629C79.3737 49.4464 79.3737 50.5544 78.712 51.2378L73.9188 56.1875L68.3267 50.4129Z" fill="#9C9C9C"/>
<path d="M77.1123 47.113L71.1208 53.3001L73.9169 56.1875L78.71 51.2377C79.3718 50.5544 79.3718 49.4463 78.71 48.763L77.1123 47.113Z" fill="#757575"/>
<path d="M73.1182 45.4627L77.9114 40.5129C78.5731 39.8296 79.6462 39.8296 80.308 40.5129L83.5034 43.8127C84.1652 44.4962 84.1652 45.6042 83.5034 46.2876L78.7103 51.2373L73.1182 45.4627Z" fill="#ED1B27"/>
<path d="M81.9058 42.1629L75.9143 48.3501L78.7102 51.2373L83.5035 46.2876C84.1653 45.6042 84.1653 44.4962 83.5035 43.8128L81.9058 42.1629Z" fill="#D22423"/>
<path d="M78.8395 180H30.0659C28.9249 180 28 179.044 28 177.866V126.133C28 124.955 28.9249 124 30.0659 124H55.1144C56.9863 124 58.5037 125.567 58.5037 127.5V129.25C58.5037 130.216 59.2624 131 60.1983 131H75.4502C77.3221 131 78.8395 132.567 78.8395 134.5V180Z" fill="#FBE4E4"/>
<path d="M75.4503 131H60.1984C59.2625 131 58.5038 130.216 58.5038 129.25V127.5C58.5038 125.567 56.9864 124 55.1145 124H53.3069V180H76.7737C77.9147 180 78.8396 179.044 78.8396 177.866V134.5C78.8396 132.567 77.322 131 75.4503 131Z" fill="#F5BCBC"/>
<path d="M78.8395 134.5H60.1983C57.3949 134.5 55.1144 132.145 55.1144 129.25V124H76.7736C77.9146 124 78.8395 124.955 78.8395 126.133V134.5Z" fill="#757575"/>
<path d="M51.7251 156.866C51.7251 158.044 50.8001 158.999 49.6592 158.999H36.8444C35.7035 158.999 34.7786 158.044 34.7786 156.866V153.749C34.7786 150.854 37.0591 148.499 39.8625 148.499H46.6411C49.4445 148.499 51.7251 150.854 51.7251 153.749V156.866Z" fill="#ED1B27"/>
<path d="M43.2521 148.5C40.4487 148.5 38.1681 146.145 38.1681 143.25C38.1681 140.355 40.4487 138 43.2521 138C46.0555 138 48.336 140.355 48.336 143.25C48.336 146.145 46.0555 148.5 43.2521 148.5Z" fill="#FFCFB5"/>
<path d="M34.7788 164.25C34.7788 163.283 35.5375 162.5 36.4735 162.5H46.9641C47.9001 162.5 48.6588 163.283 48.6588 164.25C48.6588 165.216 47.9001 166 46.9641 166H36.4735C35.5375 166 34.7788 165.216 34.7788 164.25Z" fill="#344054"/>
<path d="M34.7787 132.067C34.7787 131.478 35.2411 131 35.8116 131H37.1351C37.7055 131 38.168 131.478 38.168 132.067V133.433C38.168 134.022 37.7055 134.5 37.1351 134.5H35.8116C35.2411 134.5 34.7787 134.022 34.7787 133.433V132.067Z" fill="#757575"/>
<path d="M41.5573 132.067C41.5573 131.478 42.0197 131 42.5902 131H43.9136C44.4841 131 44.9466 131.478 44.9466 132.067V133.433C44.9466 134.022 44.4841 134.5 43.9136 134.5H42.5902C42.0197 134.5 41.5573 134.022 41.5573 133.433V132.067Z" fill="#ED1B27"/>
<path d="M48.3358 132.067C48.3358 131.478 48.7983 131 49.3687 131H50.6922C51.2627 131 51.7251 131.478 51.7251 132.067V133.433C51.7251 134.022 51.2627 134.5 50.6922 134.5H49.3687C48.7983 134.5 48.3358 134.022 48.3358 133.433V132.067Z" fill="#ED1B27"/>
<path d="M36.4735 169.066C35.5375 169.066 34.7788 169.85 34.7788 170.816C34.7788 171.783 35.5375 172.566 36.4735 172.566H46.9088C47.8753 172.566 48.6588 171.783 48.6588 170.816C48.6588 169.85 47.8753 169.066 46.9088 169.066H36.4735Z" fill="#344054"/>
<path d="M53.9482 161.225C53.8503 161.326 53.7646 161.439 53.6934 161.562L48.9002 169.812C48.5002 170.5 48.6052 171.382 49.1551 171.949C49.7048 172.517 50.5585 172.626 51.2251 172.212L59.2138 167.263C59.3327 167.189 59.4423 167.101 59.5403 167L58.9273 161.858L53.9482 161.225Z" fill="#344054"/>
<path d="M49.1731 171.968C49.7234 172.519 50.5645 172.621 51.2236 172.213L59.2122 167.263C59.3311 167.189 59.4408 167.101 59.5387 167L58.9299 161.893L49.1731 171.968Z" fill="#475467"/>
<path d="M59.5385 167.037L73.918 152.188C74.5798 151.504 74.5798 150.396 73.918 149.713L70.7226 146.413C70.0608 145.73 68.9879 145.73 68.3259 146.413L53.9464 161.262L59.5385 167.037Z" fill="#ED1B27"/>
<path d="M72.3204 148.063L56.7426 164.15L59.5386 167.037L73.9182 152.188C74.5799 151.504 74.5799 150.396 73.9182 149.713L72.3204 148.063Z" fill="#D22423"/>
<path d="M68.3267 146.413L73.1199 141.463C73.7817 140.78 74.8547 140.78 75.5165 141.463L78.712 144.763C79.3737 145.446 79.3737 146.554 78.712 147.238L73.9188 152.188L68.3267 146.413Z" fill="#9C9C9C"/>
<path d="M77.1123 143.113L71.1208 149.3L73.9169 152.188L78.71 147.238C79.3718 146.554 79.3718 145.446 78.71 144.763L77.1123 143.113Z" fill="#757575"/>
<path d="M73.1182 141.463L77.9114 136.513C78.5731 135.83 79.6462 135.83 80.308 136.513L83.5034 139.813C84.1652 140.496 84.1652 141.604 83.5034 142.288L78.7103 147.237L73.1182 141.463Z" fill="#ED1B27"/>
<path d="M81.9058 138.163L75.9143 144.35L78.7102 147.237L83.5035 142.288C84.1653 141.604 84.1653 140.496 83.5035 139.813L81.9058 138.163Z" fill="#D22423"/>
<defs>
<filter id="filter0_d_16076_13484" x="10" y="9" width="96" height="96" filterUnits="userSpaceOnUse" color-interpolation-filters="sRGB">
<feFlood flood-opacity="0" result="BackgroundImageFix"/>
<feColorMatrix in="SourceAlpha" type="matrix" values="0 0 0 0 0 0 0 0 0 0 0 0 0 0 0 0 0 0 127 0" result="hardAlpha"/>
<feOffset dx="2" dy="1"/>
<feGaussianBlur stdDeviation="4"/>
<feColorMatrix type="matrix" values="0 0 0 0 0.0392157 0 0 0 0 0.0392157 0 0 0 0 0.0627451 0 0 0 0.08 0"/>
<feBlend mode="normal" in2="BackgroundImageFix" result="effect1_dropShadow_16076_13484"/>
<feBlend mode="normal" in="SourceGraphic" in2="effect1_dropShadow_16076_13484" result="shape"/>
</filter>
</defs>
</svg>
