<svg width="112" height="200" viewBox="0 0 112 200" fill="none" xmlns="http://www.w3.org/2000/svg">
<rect x="0.5" y="0.5" width="111" height="199" rx="4.5" stroke="#9747FF" stroke-dasharray="10 5"/>
<g filter="url(#filter0_d_15787_57496)">
<rect x="16" y="16" width="80" height="80" rx="8" fill="white"/>
</g>
<path d="M76.3496 32.8675L75.8086 31.2949H66.2907C65.1862 31.2949 64.2907 32.1904 64.2907 33.2949V54.3537H43.4594L42.3613 56.1414L43.4594 57.6479H64.2907V78.7067C64.2907 79.8113 65.1862 80.7067 66.2907 80.7067H75.8083L76.0659 79.0596L75.8083 77.4126H67.5849V57.6479H75.8088L76.2032 55.9217L75.8088 54.3537H67.5849V34.589H75.8084L76.3496 32.8675Z" fill="#B0EAE8"/>
<path d="M79.0623 37.8824C81.7912 37.8824 84.0034 35.6701 84.0034 32.9412C84.0034 30.2122 81.7912 28 79.0623 28C76.3333 28 74.1211 30.2122 74.1211 32.9412C74.1211 35.6701 76.3333 37.8824 79.0623 37.8824Z" fill="#00BCB4"/>
<path d="M79.0623 60.9409C81.7912 60.9409 84.0034 58.7287 84.0034 55.9998C84.0034 53.2708 81.7912 51.0586 79.0623 51.0586C76.3333 51.0586 74.1211 53.2708 74.1211 55.9998C74.1211 58.7287 76.3333 60.9409 79.0623 60.9409Z" fill="#F9BE00"/>
<path d="M79.0623 83.9995C81.7912 83.9995 84.0034 81.7873 84.0034 79.0584C84.0034 76.3294 81.7912 74.1172 79.0623 74.1172C76.3333 74.1172 74.1211 76.3294 74.1211 79.0584C74.1211 81.7873 76.3333 83.9995 79.0623 83.9995Z" fill="#00918B"/>
<path d="M41.1983 55.6562L44.6082 66.7867L41.1983 74.2795H29.6406C28.735 74.2795 28 73.5445 28 72.6389V68.8556C28 62.1334 33.0509 56.5684 39.5577 55.758C40.0958 55.6912 40.6427 55.6562 41.1983 55.6562Z" fill="#00BCB4"/>
<path d="M54.3986 68.8556V72.6389C54.3986 73.5445 53.6636 74.2795 52.758 74.2795H41.1992V55.6562C41.7548 55.6562 42.3017 55.6912 42.8398 55.758C49.3466 56.5684 54.3986 62.1334 54.3986 68.8556Z" fill="#00918B"/>
<path d="M41.2003 55.6562L42.1988 59.1554L41.2003 64.7639H41.1992C40.2936 64.7639 39.5586 64.0289 39.5586 63.1233V55.758C40.0967 55.6912 40.6436 55.6562 41.1992 55.6562H41.2003Z" fill="#F9BE00"/>
<path d="M42.8389 55.758V63.1233C42.8389 64.0289 42.1061 64.7628 41.1994 64.7639V55.6562C41.755 55.6562 42.3008 55.6912 42.8389 55.758Z" fill="#F5A400"/>
<path d="M41.2003 44.9316L44.9075 50.4004L41.2003 57.2155H41.1992C36.8352 57.2155 33.2969 53.6773 33.2969 49.311L33.3144 45.1799L41.2003 44.9316Z" fill="#FFD8C2"/>
<path d="M49.1017 44.6836V49.3113C49.1017 51.4944 48.2169 53.4708 46.7884 54.9014C45.3578 56.3309 43.3825 57.2158 41.1994 57.2158V44.9319L49.1017 44.6836Z" fill="#FFCFB5"/>
<path d="M41.1984 36L44.2632 40.3607L41.1984 45.2925C41.193 45.2881 41.1886 45.2837 41.1831 45.2794C40.8539 45.5736 40.4645 45.8459 40.0052 46.0778C39.1794 46.4967 38.2256 46.7188 37.2467 46.7188H33.3672C32.4616 46.7188 31.7266 45.9838 31.7266 45.0781V44.3584C31.7266 39.7494 35.4759 36 40.085 36H41.1984Z" fill="#344054"/>
<path d="M50.6701 44.3584V45.0781C50.6701 45.9838 49.9351 46.7188 49.0295 46.7188H45.1204C44.1415 46.7188 43.1878 46.4967 42.362 46.0778C41.9092 45.8492 41.5253 45.5823 41.1993 45.2925V36H42.3117C46.9207 36 50.6701 39.7494 50.6701 44.3584Z" fill="#475467"/>
<path d="M76.3496 128.868L75.8086 127.295H66.2907C65.1862 127.295 64.2907 128.19 64.2907 129.295V150.354H43.4594L42.3613 152.141L43.4594 153.648H64.2907V174.707C64.2907 175.811 65.1862 176.707 66.2907 176.707H75.8083L76.0659 175.06L75.8083 173.413H67.5849V153.648H75.8088L76.2032 151.922L75.8088 150.354H67.5849V130.589H75.8084L76.3496 128.868Z" fill="#B0EAE8"/>
<path d="M79.0623 133.882C81.7912 133.882 84.0034 131.67 84.0034 128.941C84.0034 126.212 81.7912 124 79.0623 124C76.3333 124 74.1211 126.212 74.1211 128.941C74.1211 131.67 76.3333 133.882 79.0623 133.882Z" fill="#00BCB4"/>
<path d="M79.0623 156.941C81.7912 156.941 84.0034 154.729 84.0034 152C84.0034 149.271 81.7912 147.059 79.0623 147.059C76.3333 147.059 74.1211 149.271 74.1211 152C74.1211 154.729 76.3333 156.941 79.0623 156.941Z" fill="#F9BE00"/>
<path d="M79.0623 180C81.7912 180 84.0034 177.787 84.0034 175.058C84.0034 172.329 81.7912 170.117 79.0623 170.117C76.3333 170.117 74.1211 172.329 74.1211 175.058C74.1211 177.787 76.3333 180 79.0623 180Z" fill="#00918B"/>
<path d="M41.1983 151.656L44.6082 162.787L41.1983 170.28H29.6406C28.735 170.28 28 169.545 28 168.639V164.856C28 158.133 33.0509 152.568 39.5577 151.758C40.0958 151.691 40.6427 151.656 41.1983 151.656Z" fill="#00BCB4"/>
<path d="M54.3986 164.856V168.639C54.3986 169.545 53.6636 170.28 52.758 170.28H41.1992V151.656C41.7548 151.656 42.3017 151.691 42.8398 151.758C49.3466 152.568 54.3986 158.133 54.3986 164.856Z" fill="#00918B"/>
<path d="M41.2003 151.656L42.1988 155.155L41.2003 160.764H41.1992C40.2936 160.764 39.5586 160.029 39.5586 159.123V151.758C40.0967 151.691 40.6436 151.656 41.1992 151.656H41.2003Z" fill="#F9BE00"/>
<path d="M42.8389 151.758V159.123C42.8389 160.029 42.1061 160.763 41.1994 160.764V151.656C41.755 151.656 42.3008 151.691 42.8389 151.758Z" fill="#F5A400"/>
<path d="M41.2003 140.932L44.9075 146.4L41.2003 153.216H41.1992C36.8352 153.216 33.2969 149.677 33.2969 145.311L33.3144 141.18L41.2003 140.932Z" fill="#FFD8C2"/>
<path d="M49.1017 140.684V145.311C49.1017 147.494 48.2169 149.471 46.7884 150.901C45.3578 152.331 43.3825 153.216 41.1994 153.216V140.932L49.1017 140.684Z" fill="#FFCFB5"/>
<path d="M41.1984 132L44.2632 136.361L41.1984 141.293C41.193 141.288 41.1886 141.284 41.1831 141.279C40.8539 141.574 40.4645 141.846 40.0052 142.078C39.1794 142.497 38.2256 142.719 37.2467 142.719H33.3672C32.4616 142.719 31.7266 141.984 31.7266 141.078V140.358C31.7266 135.749 35.4759 132 40.085 132H41.1984Z" fill="#344054"/>
<path d="M50.6701 140.358V141.078C50.6701 141.984 49.9351 142.719 49.0295 142.719H45.1204C44.1415 142.719 43.1878 142.497 42.362 142.078C41.9092 141.849 41.5253 141.582 41.1993 141.293V132H42.3117C46.9207 132 50.6701 135.749 50.6701 140.358Z" fill="#475467"/>
<defs>
<filter id="filter0_d_15787_57496" x="10" y="9" width="96" height="96" filterUnits="userSpaceOnUse" color-interpolation-filters="sRGB">
<feFlood flood-opacity="0" result="BackgroundImageFix"/>
<feColorMatrix in="SourceAlpha" type="matrix" values="0 0 0 0 0 0 0 0 0 0 0 0 0 0 0 0 0 0 127 0" result="hardAlpha"/>
<feOffset dx="2" dy="1"/>
<feGaussianBlur stdDeviation="4"/>
<feColorMatrix type="matrix" values="0 0 0 0 0.0392157 0 0 0 0 0.0392157 0 0 0 0 0.0627451 0 0 0 0.08 0"/>
<feBlend mode="normal" in2="BackgroundImageFix" result="effect1_dropShadow_15787_57496"/>
<feBlend mode="normal" in="SourceGraphic" in2="effect1_dropShadow_15787_57496" result="shape"/>
</filter>
</defs>
</svg>
