<svg width="112" height="200" viewBox="0 0 112 200" fill="none" xmlns="http://www.w3.org/2000/svg">
<rect x="0.5" y="0.5" width="111" height="199" rx="4.5" stroke="#9747FF" stroke-dasharray="10 5"/>
<g filter="url(#filter0_d_15787_57660)">
<rect x="16" y="16" width="80" height="80" rx="8" fill="white"/>
</g>
<path d="M51.7498 60.2482C51.109 59.6074 50.0707 59.6074 49.4299 60.2482L43.465 66.2131C42.8242 66.8539 42.8242 67.8922 43.465 68.533C44.1058 69.1739 45.1441 69.1739 45.7849 68.533L51.7498 62.5682C52.3907 61.9273 52.3907 60.8891 51.7498 60.2482Z" fill="#E6F8F8"/>
<path d="M45.7849 68.5348L51.7498 62.57C52.3906 61.9291 52.3906 60.8908 51.7498 60.25L43.465 68.5348C44.1059 69.1758 45.1441 69.1758 45.7849 68.5348Z" fill="#B0EAE8"/>
<path d="M72.6265 39.3735C69.6558 36.4026 65.5542 34.5625 61.0312 34.5625C51.9854 34.5625 44.625 41.9229 44.625 50.9688C44.625 55.4917 46.4651 59.5933 49.436 62.564C52.4068 65.5348 56.5083 67.375 61.0312 67.375C70.0771 67.375 77.4375 60.0146 77.4375 50.9688C77.4375 46.4458 75.5974 42.3442 72.6265 39.3735Z" fill="#F9BE00"/>
<path d="M77.4371 50.9703C77.4371 46.4473 75.597 42.3457 72.6261 39.375L49.4355 62.5656C52.4063 65.5364 56.5078 67.3765 61.0308 67.3765C70.0767 67.3765 77.4371 60.0161 77.4371 50.9703Z" fill="#F5A400"/>
<path d="M70.3077 41.6923C67.931 39.3157 64.6497 37.8438 61.0312 37.8438C53.7942 37.8438 47.9062 43.7317 47.9062 50.9688C47.9062 54.5872 49.3782 57.8685 51.7548 60.2452C54.1314 62.6219 57.4128 64.0938 61.0312 64.0938C68.2683 64.0938 74.1562 58.2058 74.1562 50.9688C74.1562 47.3503 72.6843 44.069 70.3077 41.6923Z" fill="#EFFBFB"/>
<path d="M74.1563 50.9698C74.1563 47.3513 72.6843 44.0701 70.3077 41.6934L51.7549 60.2462C54.1316 62.6228 57.4129 64.0948 61.0313 64.0948C68.2683 64.0948 74.1563 58.2068 74.1563 50.9698Z" fill="#E6F8F8"/>
<path d="M48.1049 68.5365L45.7849 66.2166L43.465 63.8966C42.8241 63.2558 41.7858 63.2558 41.145 63.8966L29.4435 75.5982C28.5128 76.5291 28 77.7659 28 79.0797C28 80.4368 28.5519 81.6672 29.4432 82.5584C30.3345 83.4496 31.5649 84.0016 32.9219 84.0016C34.2357 84.0016 35.4725 83.4889 36.4034 82.5581L48.1049 70.8566C48.7458 70.2157 48.7458 69.1775 48.1049 68.5365Z" fill="#00BCB4"/>
<path d="M36.4034 82.5562L48.1048 70.8547C48.7457 70.2139 48.7457 69.1756 48.1048 68.5348L45.7849 66.2148L29.4432 82.5566C30.3344 83.4479 31.5648 83.9998 32.9218 83.9998C34.2357 83.9998 35.4725 83.487 36.4034 82.5562Z" fill="#00918B"/>
<path d="M74.9445 67.202C74.3037 66.5611 74.3037 65.5228 74.9445 64.882C78.6679 61.1602 80.7187 56.2191 80.7187 50.9688C80.7187 50.0619 81.4525 49.3281 82.3593 49.3281C83.2662 49.3281 84 50.0619 84 50.9688C84 57.0955 81.6079 62.8601 77.2644 67.202C76.6236 67.8428 75.5854 67.8428 74.9445 67.202Z" fill="#475467"/>
<path d="M44.798 37.0555C44.1572 36.4147 44.1572 35.3764 44.798 34.7355C49.1399 30.392 54.9045 28 61.0312 28C61.9381 28 62.6718 28.7338 62.6718 29.6406C62.6718 30.5475 61.9381 31.2812 61.0312 31.2812C55.7809 31.2812 50.8398 33.332 47.118 37.0555C46.4771 37.6963 45.4389 37.6964 44.798 37.0555Z" fill="#344054"/>
<path fill-rule="evenodd" clip-rule="evenodd" d="M58.9994 42.7012V42.2012C58.9994 41.3732 59.6714 40.7012 60.4994 40.7012C61.3274 40.7012 61.9994 41.3732 61.9994 42.2012V42.7602C64.2644 43.1205 65.9998 45.0864 65.9998 47.4513C65.9998 48.4663 65.6801 49.4078 65.136 50.1804C66.2686 51.0491 66.9999 52.4159 66.9999 53.9509C66.9999 56.5711 64.8696 58.701 62.2498 58.701H61.9994V59.201C61.9994 60.029 61.3274 60.701 60.4994 60.701C59.6714 60.701 58.9994 60.029 58.9994 59.201V58.701H56.4999C55.6719 58.701 54.9999 58.029 54.9999 57.201V44.2012C54.9999 43.3732 55.6719 42.7012 56.4999 42.7012H58.9994ZM57.9999 52.2013H61.2496L61.2919 52.2011H62.2498C63.2136 52.2011 63.9999 52.987 63.9999 53.9509C63.9999 54.9151 63.2136 55.701 62.2498 55.701H57.9999V52.2013ZM61.2752 49.2012C62.2277 49.1874 62.9998 48.4066 62.9998 47.4513C62.9998 46.4874 62.2139 45.7011 61.2496 45.7011H57.9999V49.2012H61.2752Z" fill="#00918B"/>
<path fill-rule="evenodd" clip-rule="evenodd" d="M58.9994 42.2012V42.7012H56.4999C55.6719 42.7012 54.9999 43.3732 54.9999 44.2012V56.9523L57.9999 53.9523V52.2013H59.7508L65.815 46.1371C65.3112 44.3883 63.8279 43.0511 61.9994 42.7602V42.2012C61.9994 41.3732 61.3274 40.7012 60.4994 40.7012C59.6714 40.7012 58.9994 41.3732 58.9994 42.2012ZM62.9998 47.4513C62.9998 48.4066 62.2277 49.1874 61.2752 49.2012H57.9999V45.7011H61.2496C62.2139 45.7011 62.9998 46.4874 62.9998 47.4513Z" fill="#00BCB4"/>
<path d="M51.7498 156.248C51.109 155.607 50.0707 155.607 49.4299 156.248L43.465 162.213C42.8242 162.854 42.8242 163.892 43.465 164.533C44.1058 165.174 45.1441 165.174 45.7849 164.533L51.7498 158.568C52.3907 157.927 52.3907 156.889 51.7498 156.248Z" fill="#E6F8F8"/>
<path d="M45.7849 164.535L51.7498 158.57C52.3906 157.929 52.3906 156.891 51.7498 156.25L43.465 164.535C44.1059 165.176 45.1441 165.176 45.7849 164.535Z" fill="#B0EAE8"/>
<path d="M72.6265 135.373C69.6558 132.403 65.5542 130.562 61.0312 130.562C51.9854 130.562 44.625 137.923 44.625 146.969C44.625 151.492 46.4651 155.593 49.436 158.564C52.4068 161.535 56.5083 163.375 61.0312 163.375C70.0771 163.375 77.4375 156.015 77.4375 146.969C77.4375 142.446 75.5974 138.344 72.6265 135.373Z" fill="#F9BE00"/>
<path d="M77.4371 146.97C77.4371 142.447 75.597 138.346 72.6261 135.375L49.4355 158.566C52.4063 161.536 56.5078 163.377 61.0308 163.377C70.0767 163.377 77.4371 156.016 77.4371 146.97Z" fill="#F5A400"/>
<path d="M70.3077 137.692C67.931 135.316 64.6497 133.844 61.0312 133.844C53.7942 133.844 47.9062 139.732 47.9062 146.969C47.9062 150.587 49.3782 153.868 51.7548 156.245C54.1314 158.622 57.4128 160.094 61.0312 160.094C68.2683 160.094 74.1562 154.206 74.1562 146.969C74.1562 143.35 72.6843 140.069 70.3077 137.692Z" fill="#EFFBFB"/>
<path d="M74.1563 146.97C74.1563 143.351 72.6843 140.07 70.3077 137.693L51.7549 156.246C54.1316 158.623 57.4129 160.095 61.0313 160.095C68.2683 160.095 74.1563 154.207 74.1563 146.97Z" fill="#E6F8F8"/>
<path d="M48.1049 164.537L45.7849 162.217L43.465 159.897C42.8241 159.256 41.7858 159.256 41.145 159.897L29.4435 171.598C28.5128 172.529 28 173.766 28 175.08C28 176.437 28.5519 177.667 29.4432 178.558C30.3345 179.45 31.5649 180.002 32.9219 180.002C34.2357 180.002 35.4725 179.489 36.4034 178.558L48.1049 166.857C48.7458 166.216 48.7458 165.177 48.1049 164.537Z" fill="#00BCB4"/>
<path d="M36.4034 178.556L48.1048 166.855C48.7457 166.214 48.7457 165.176 48.1048 164.535L45.7849 162.215L29.4432 178.557C30.3344 179.448 31.5648 180 32.9218 180C34.2357 180 35.4725 179.487 36.4034 178.556Z" fill="#00918B"/>
<path d="M74.9445 163.202C74.3037 162.561 74.3037 161.523 74.9445 160.882C78.6679 157.16 80.7187 152.219 80.7187 146.969C80.7187 146.062 81.4525 145.328 82.3593 145.328C83.2662 145.328 84 146.062 84 146.969C84 153.095 81.6079 158.86 77.2644 163.202C76.6236 163.843 75.5854 163.843 74.9445 163.202Z" fill="#475467"/>
<path d="M44.798 133.055C44.1572 132.415 44.1572 131.376 44.798 130.736C49.1399 126.392 54.9045 124 61.0312 124C61.9381 124 62.6718 124.734 62.6718 125.641C62.6718 126.547 61.9381 127.281 61.0312 127.281C55.7809 127.281 50.8398 129.332 47.118 133.055C46.4771 133.696 45.4389 133.696 44.798 133.055Z" fill="#344054"/>
<path fill-rule="evenodd" clip-rule="evenodd" d="M58.9994 138.701V138.201C58.9994 137.373 59.6714 136.701 60.4994 136.701C61.3274 136.701 61.9994 137.373 61.9994 138.201V138.76C64.2644 139.121 65.9998 141.086 65.9998 143.451C65.9998 144.466 65.6801 145.408 65.136 146.18C66.2686 147.049 66.9999 148.416 66.9999 149.951C66.9999 152.571 64.8696 154.701 62.2498 154.701H61.9994V155.201C61.9994 156.029 61.3274 156.701 60.4994 156.701C59.6714 156.701 58.9994 156.029 58.9994 155.201V154.701H56.4999C55.6719 154.701 54.9999 154.029 54.9999 153.201V140.201C54.9999 139.373 55.6719 138.701 56.4999 138.701H58.9994ZM57.9999 148.201H61.2496L61.2919 148.201H62.2498C63.2136 148.201 63.9999 148.987 63.9999 149.951C63.9999 150.915 63.2136 151.701 62.2498 151.701H57.9999V148.201ZM61.2752 145.201C62.2277 145.187 62.9998 144.407 62.9998 143.451C62.9998 142.487 62.2139 141.701 61.2496 141.701H57.9999V145.201H61.2752Z" fill="#00918B"/>
<path fill-rule="evenodd" clip-rule="evenodd" d="M58.9994 138.201V138.701H56.4999C55.6719 138.701 54.9999 139.373 54.9999 140.201V152.952L57.9999 149.952V148.201H59.7508L65.815 142.137C65.3112 140.388 63.8279 139.051 61.9994 138.76V138.201C61.9994 137.373 61.3274 136.701 60.4994 136.701C59.6714 136.701 58.9994 137.373 58.9994 138.201ZM62.9998 143.451C62.9998 144.407 62.2277 145.187 61.2752 145.201H57.9999V141.701H61.2496C62.2139 141.701 62.9998 142.487 62.9998 143.451Z" fill="#00BCB4"/>
<defs>
<filter id="filter0_d_15787_57660" x="10" y="9" width="96" height="96" filterUnits="userSpaceOnUse" color-interpolation-filters="sRGB">
<feFlood flood-opacity="0" result="BackgroundImageFix"/>
<feColorMatrix in="SourceAlpha" type="matrix" values="0 0 0 0 0 0 0 0 0 0 0 0 0 0 0 0 0 0 127 0" result="hardAlpha"/>
<feOffset dx="2" dy="1"/>
<feGaussianBlur stdDeviation="4"/>
<feColorMatrix type="matrix" values="0 0 0 0 0.0392157 0 0 0 0 0.0392157 0 0 0 0 0.0627451 0 0 0 0.08 0"/>
<feBlend mode="normal" in2="BackgroundImageFix" result="effect1_dropShadow_15787_57660"/>
<feBlend mode="normal" in="SourceGraphic" in2="effect1_dropShadow_15787_57660" result="shape"/>
</filter>
</defs>
</svg>
