<svg width="112" height="200" viewBox="0 0 112 200" fill="none" xmlns="http://www.w3.org/2000/svg">
<rect x="0.5" y="0.5" width="111" height="199" rx="4.5" stroke="#9747FF" stroke-dasharray="10 5"/>
<g filter="url(#filter0_d_24150_58454)">
<rect x="16" y="16" width="80" height="80" rx="8" fill="white"/>
</g>
<path d="M81.3414 58.7134C81.3414 58.1577 80.8914 57.7078 80.3358 57.7078H76.3122V37.5484H76.2728L68.309 29.5846V29.5396H39.6829C38.7999 29.5396 38.0845 30.2572 38.0845 31.1413V57.7078H34.052C33.4963 57.7078 33.0464 58.1577 33.0464 58.7134V75.8155L38.0857 80.8457V82.398C38.0857 83.2821 38.8011 83.9998 39.6841 83.9998H74.7149C75.5979 83.9998 76.3133 83.2821 76.3133 82.398V80.8457L81.3526 75.8155H81.3436V58.7134H81.3414ZM68.273 35.9894V37.5473H68.264L68.273 35.9894Z" fill="#B6D7FC"/>
<path d="M65.765 28H37.1389C36.2559 28 35.5405 28.7176 35.5405 29.6018V80.8584C35.5405 81.7426 36.2559 82.4602 37.1389 82.4602H72.1698C73.0528 82.4602 73.7682 81.7426 73.7682 80.8584V36.0089H65.72L65.765 28Z" fill="#F0F7FE"/>
<path d="M35.5391 79.3062L30.501 74.2759H35.5391V79.3062Z" fill="#076B9A"/>
<path d="M73.7681 79.3062L78.8062 74.2759H73.7681V79.3062Z" fill="#076B9A"/>
<path d="M73.7682 36.048H65.729V28.0088L73.7682 36.048Z" fill="#B6D7FC"/>
<path d="M31.5067 56.168H77.7916C78.3473 56.168 78.7972 56.619 78.7972 57.1736V74.2756H30.5V57.1736C30.5 56.6179 30.9511 56.168 31.5056 56.168H31.5067Z" fill="#1992D9"/>
<path d="M50.2715 61.8377C50.9576 62.3888 51.4019 63.1335 51.6033 64.0716H49.4976C49.3423 63.6914 49.1039 63.3922 48.7822 63.1751C48.4605 62.958 48.078 62.8489 47.636 62.8489C47.0544 62.8489 46.5854 63.0626 46.2288 63.4889C45.8722 63.9152 45.6934 64.4855 45.6934 65.1987C45.6934 65.9118 45.8722 66.4799 46.2288 66.9028C46.5854 67.3258 47.0544 67.5372 47.636 67.5372C48.078 67.5372 48.4605 67.4281 48.7822 67.211C49.1039 66.9939 49.3423 66.6992 49.4976 66.3269H51.6033C51.4019 67.2571 50.9576 67.9995 50.2715 68.5541C49.5853 69.1086 48.7192 69.3853 47.6719 69.3853C46.8733 69.3853 46.1714 69.2087 45.5663 68.8566C44.9611 68.5034 44.4943 68.0096 44.1647 67.373C43.8351 66.7375 43.6709 66.0119 43.6709 65.1975C43.6709 64.3832 43.8351 63.6577 44.1647 63.0221C44.4943 62.3866 44.9622 61.8916 45.5663 61.5396C46.1714 61.1864 46.8733 61.0098 47.6719 61.0098C48.7192 61.0098 49.5853 61.2854 50.2715 61.8365V61.8377Z" fill="white"/>
<path d="M58.2982 68.1995C58.0767 68.5639 57.7516 68.8553 57.3208 69.0724C56.8899 69.2895 56.3691 69.3986 55.7561 69.3986C54.8326 69.3986 54.0733 69.1736 53.4761 68.7237C52.8788 68.2737 52.5526 67.6461 52.4986 66.8396H54.6155C54.647 67.15 54.7573 67.3941 54.9474 67.573C55.1374 67.7518 55.3793 67.8407 55.674 67.8407C55.9305 67.8407 56.1318 67.7709 56.2792 67.6315C56.4265 67.492 56.5008 67.3052 56.5008 67.0724C56.5008 66.8632 56.4321 66.6888 56.2972 66.5494C56.1611 66.4099 55.9935 66.2951 55.791 66.2063C55.5896 66.1174 55.3095 66.0106 54.953 65.8868C54.4333 65.708 54.0092 65.5359 53.6797 65.3694C53.3501 65.2029 53.0666 64.9544 52.8304 64.6248C52.5942 64.2952 52.4761 63.8666 52.4761 63.3402C52.4761 62.8509 52.5998 62.4291 52.8484 62.0714C53.097 61.7148 53.4389 61.4415 53.8776 61.2514C54.3152 61.0613 54.818 60.9668 55.3838 60.9668C56.2994 60.9668 57.026 61.1839 57.5648 61.6181C58.1036 62.0522 58.4085 62.6496 58.4782 63.4099H56.3264C56.287 63.1389 56.188 62.9229 56.0294 62.7643C55.8708 62.6057 55.6549 62.5258 55.3838 62.5258C55.1509 62.5258 54.9631 62.5877 54.8202 62.7125C54.6763 62.8363 54.6054 63.0185 54.6054 63.2592C54.6054 63.4527 54.6695 63.618 54.7966 63.753C54.9249 63.8891 55.0857 63.9994 55.2792 64.0848C55.4726 64.1703 55.7527 64.2794 56.1172 64.411C56.6447 64.5899 57.0755 64.7665 57.4085 64.9408C57.7426 65.1152 58.0294 65.3694 58.269 65.7024C58.5097 66.0364 58.6301 66.4706 58.6301 67.0049C58.6301 67.4391 58.5198 67.8395 58.2994 68.204L58.2982 68.1995Z" fill="white"/>
<path d="M65.3129 68.1995C65.0913 68.5639 64.7662 68.8553 64.3354 69.0724C63.9046 69.2895 63.3838 69.3986 62.7708 69.3986C61.8473 69.3986 61.088 69.1736 60.4907 68.7237C59.8934 68.2737 59.5672 67.6461 59.5132 66.8396H61.6302C61.6617 67.15 61.7719 67.3941 61.962 67.573C62.1521 67.7518 62.3939 67.8407 62.6886 67.8407C62.9451 67.8407 63.1465 67.7709 63.2938 67.6315C63.4412 67.492 63.5154 67.3052 63.5154 67.0724C63.5154 66.8632 63.4468 66.6888 63.3118 66.5494C63.1757 66.4099 63.0081 66.2951 62.8056 66.2063C62.6043 66.1174 62.3242 66.0106 61.9676 65.8868C61.4479 65.708 61.0239 65.5359 60.6943 65.3694C60.3647 65.2029 60.0813 64.9544 59.845 64.6248C59.6088 64.2952 59.4907 63.8666 59.4907 63.3402C59.4907 62.8509 59.6145 62.4291 59.863 62.0714C60.1116 61.7148 60.4536 61.4415 60.8923 61.2514C61.3298 61.0613 61.8326 60.9668 62.3984 60.9668C63.314 60.9668 64.0407 61.1839 64.5795 61.6181C65.1183 62.0522 65.4231 62.6496 65.4929 63.4099H63.341C63.3017 63.1389 63.2027 62.9229 63.0441 62.7643C62.8855 62.6057 62.6695 62.5258 62.3984 62.5258C62.1656 62.5258 61.9777 62.5877 61.8349 62.7125C61.6909 62.8363 61.62 63.0185 61.62 63.2592C61.62 63.4527 61.6842 63.618 61.8113 63.753C61.9395 63.8891 62.1004 63.9994 62.2938 64.0848C62.4873 64.1703 62.7674 64.2794 63.1318 64.411C63.6594 64.5899 64.0902 64.7665 64.4231 64.9408C64.7572 65.1152 65.0441 65.3694 65.2836 65.7024C65.5244 66.0364 65.6447 66.4706 65.6447 67.0049C65.6447 67.4391 65.5345 67.8395 65.314 68.204L65.3129 68.1995Z" fill="white"/>
<path d="M49.4333 50.9646V51.8532H48.0396C47.0138 51.8532 46.3085 51.1333 46.3085 50.0917V46.3842C46.3085 45.7869 45.9103 45.373 45.3434 45.373H45.1904V44.1784H45.3434C45.9103 44.1784 46.3085 43.7645 46.3085 43.1672V39.6127C46.3085 38.5554 47.0138 37.8354 48.0396 37.8354H49.4333V38.7398H48.5447C47.8855 38.7398 47.4424 39.1999 47.4424 39.8737V43.2752C47.4424 44.1019 46.9058 44.6992 46.1252 44.7611L45.9722 44.7768L46.1252 44.7926C46.9058 44.8387 47.4424 45.436 47.4424 46.2627V49.8319C47.4424 50.5057 47.8867 50.9657 48.5447 50.9657H49.4333V50.9646Z" fill="#1992D9"/>
<path d="M59.8765 51.8534V50.9647H60.7651C61.4242 50.9647 61.8686 50.5047 61.8686 49.8309V46.2618C61.8686 45.435 62.3894 44.8377 63.1857 44.7916L63.3387 44.7759L63.1857 44.7601C62.3894 44.6983 61.8686 44.101 61.8686 43.2742V39.8727C61.8686 39.1989 61.4242 38.7388 60.7651 38.7388H59.8765V37.8345H61.2701C62.296 37.8345 63.0013 38.5544 63.0013 39.6117V43.1662C63.0013 43.7635 63.3848 44.1775 63.9664 44.1775H64.1194V45.372H63.9664C63.3848 45.372 63.0013 45.786 63.0013 46.3833V50.0907C63.0013 51.1323 62.296 51.8522 61.2701 51.8522H59.8765V51.8534Z" fill="#1992D9"/>
<path d="M81.3414 154.713C81.3414 154.158 80.8914 153.708 80.3358 153.708H76.3122V133.548H76.2728L68.309 125.585V125.54H39.6829C38.7999 125.54 38.0845 126.257 38.0845 127.141V153.708H34.052C33.4963 153.708 33.0464 154.158 33.0464 154.713V171.815L38.0857 176.846V178.398C38.0857 179.282 38.8011 180 39.6841 180H74.7149C75.5979 180 76.3133 179.282 76.3133 178.398V176.846L81.3526 171.815H81.3436V154.713H81.3414ZM68.273 131.989V133.547H68.264L68.273 131.989Z" fill="#B6D7FC"/>
<path d="M65.765 124H37.1389C36.2559 124 35.5405 124.718 35.5405 125.602V176.858C35.5405 177.743 36.2559 178.46 37.1389 178.46H72.1698C73.0528 178.46 73.7682 177.743 73.7682 176.858V132.009H65.72L65.765 124Z" fill="#F0F7FE"/>
<path d="M35.5391 175.306L30.501 170.276H35.5391V175.306Z" fill="#076B9A"/>
<path d="M73.7681 175.306L78.8062 170.276H73.7681V175.306Z" fill="#076B9A"/>
<path d="M73.7682 132.048H65.729V124.009L73.7682 132.048Z" fill="#B6D7FC"/>
<path d="M31.5067 152.168H77.7916C78.3473 152.168 78.7972 152.619 78.7972 153.174V170.276H30.5V153.174C30.5 152.618 30.9511 152.168 31.5056 152.168H31.5067Z" fill="#1992D9"/>
<path d="M50.2715 157.838C50.9576 158.389 51.4019 159.133 51.6033 160.072H49.4976C49.3423 159.691 49.1039 159.392 48.7822 159.175C48.4605 158.958 48.078 158.849 47.636 158.849C47.0544 158.849 46.5854 159.063 46.2288 159.489C45.8722 159.915 45.6934 160.486 45.6934 161.199C45.6934 161.912 45.8722 162.48 46.2288 162.903C46.5854 163.326 47.0544 163.537 47.636 163.537C48.078 163.537 48.4605 163.428 48.7822 163.211C49.1039 162.994 49.3423 162.699 49.4976 162.327H51.6033C51.4019 163.257 50.9576 164 50.2715 164.554C49.5853 165.109 48.7192 165.385 47.6719 165.385C46.8733 165.385 46.1714 165.209 45.5663 164.857C44.9611 164.503 44.4943 164.01 44.1647 163.373C43.8351 162.737 43.6709 162.012 43.6709 161.198C43.6709 160.383 43.8351 159.658 44.1647 159.022C44.4943 158.387 44.9622 157.892 45.5663 157.54C46.1714 157.186 46.8733 157.01 47.6719 157.01C48.7192 157.01 49.5853 157.285 50.2715 157.837V157.838Z" fill="white"/>
<path d="M58.2982 164.199C58.0767 164.564 57.7516 164.855 57.3208 165.072C56.8899 165.289 56.3691 165.399 55.7561 165.399C54.8326 165.399 54.0733 165.174 53.4761 164.724C52.8788 164.274 52.5526 163.646 52.4986 162.84H54.6155C54.647 163.15 54.7573 163.394 54.9474 163.573C55.1374 163.752 55.3793 163.841 55.674 163.841C55.9305 163.841 56.1318 163.771 56.2792 163.631C56.4265 163.492 56.5008 163.305 56.5008 163.072C56.5008 162.863 56.4321 162.689 56.2972 162.549C56.1611 162.41 55.9935 162.295 55.791 162.206C55.5896 162.117 55.3095 162.011 54.953 161.887C54.4333 161.708 54.0092 161.536 53.6797 161.369C53.3501 161.203 53.0666 160.954 52.8304 160.625C52.5942 160.295 52.4761 159.867 52.4761 159.34C52.4761 158.851 52.5998 158.429 52.8484 158.071C53.097 157.715 53.4389 157.441 53.8776 157.251C54.3152 157.061 54.818 156.967 55.3838 156.967C56.2994 156.967 57.026 157.184 57.5648 157.618C58.1036 158.052 58.4085 158.65 58.4782 159.41H56.3264C56.287 159.139 56.188 158.923 56.0294 158.764C55.8708 158.606 55.6549 158.526 55.3838 158.526C55.1509 158.526 54.9631 158.588 54.8202 158.713C54.6763 158.836 54.6054 159.018 54.6054 159.259C54.6054 159.453 54.6695 159.618 54.7966 159.753C54.9249 159.889 55.0857 159.999 55.2792 160.085C55.4726 160.17 55.7527 160.279 56.1172 160.411C56.6447 160.59 57.0755 160.766 57.4085 160.941C57.7426 161.115 58.0294 161.369 58.269 161.702C58.5097 162.036 58.6301 162.471 58.6301 163.005C58.6301 163.439 58.5198 163.84 58.2994 164.204L58.2982 164.199Z" fill="white"/>
<path d="M65.3129 164.199C65.0913 164.564 64.7662 164.855 64.3354 165.072C63.9046 165.289 63.3838 165.399 62.7708 165.399C61.8473 165.399 61.088 165.174 60.4907 164.724C59.8934 164.274 59.5672 163.646 59.5132 162.84H61.6302C61.6617 163.15 61.7719 163.394 61.962 163.573C62.1521 163.752 62.3939 163.841 62.6886 163.841C62.9451 163.841 63.1465 163.771 63.2938 163.631C63.4412 163.492 63.5154 163.305 63.5154 163.072C63.5154 162.863 63.4468 162.689 63.3118 162.549C63.1757 162.41 63.0081 162.295 62.8056 162.206C62.6043 162.117 62.3242 162.011 61.9676 161.887C61.4479 161.708 61.0239 161.536 60.6943 161.369C60.3647 161.203 60.0813 160.954 59.845 160.625C59.6088 160.295 59.4907 159.867 59.4907 159.34C59.4907 158.851 59.6145 158.429 59.863 158.071C60.1116 157.715 60.4536 157.441 60.8923 157.251C61.3298 157.061 61.8326 156.967 62.3984 156.967C63.314 156.967 64.0407 157.184 64.5795 157.618C65.1183 158.052 65.4231 158.65 65.4929 159.41H63.341C63.3017 159.139 63.2027 158.923 63.0441 158.764C62.8855 158.606 62.6695 158.526 62.3984 158.526C62.1656 158.526 61.9777 158.588 61.8349 158.713C61.6909 158.836 61.62 159.018 61.62 159.259C61.62 159.453 61.6842 159.618 61.8113 159.753C61.9395 159.889 62.1004 159.999 62.2938 160.085C62.4873 160.17 62.7674 160.279 63.1318 160.411C63.6594 160.59 64.0902 160.766 64.4231 160.941C64.7572 161.115 65.0441 161.369 65.2836 161.702C65.5244 162.036 65.6447 162.471 65.6447 163.005C65.6447 163.439 65.5345 163.84 65.314 164.204L65.3129 164.199Z" fill="white"/>
<path d="M49.4333 146.965V147.853H48.0396C47.0138 147.853 46.3085 147.133 46.3085 146.092V142.384C46.3085 141.787 45.9103 141.373 45.3434 141.373H45.1904V140.178H45.3434C45.9103 140.178 46.3085 139.764 46.3085 139.167V135.613C46.3085 134.555 47.0138 133.835 48.0396 133.835H49.4333V134.74H48.5447C47.8855 134.74 47.4424 135.2 47.4424 135.874V139.275C47.4424 140.102 46.9058 140.699 46.1252 140.761L45.9722 140.777L46.1252 140.793C46.9058 140.839 47.4424 141.436 47.4424 142.263V145.832C47.4424 146.506 47.8867 146.966 48.5447 146.966H49.4333V146.965Z" fill="#1992D9"/>
<path d="M59.8765 147.853V146.965H60.7651C61.4242 146.965 61.8686 146.505 61.8686 145.831V142.262C61.8686 141.435 62.3894 140.838 63.1857 140.792L63.3387 140.776L63.1857 140.76C62.3894 140.698 61.8686 140.101 61.8686 139.274V135.873C61.8686 135.199 61.4242 134.739 60.7651 134.739H59.8765V133.834H61.2701C62.296 133.834 63.0013 134.554 63.0013 135.612V139.166C63.0013 139.764 63.3848 140.177 63.9664 140.177H64.1194V141.372H63.9664C63.3848 141.372 63.0013 141.786 63.0013 142.383V146.091C63.0013 147.132 62.296 147.852 61.2701 147.852H59.8765V147.853Z" fill="#1992D9"/>
<defs>
<filter id="filter0_d_24150_58454" x="10" y="9" width="96" height="96" filterUnits="userSpaceOnUse" color-interpolation-filters="sRGB">
<feFlood flood-opacity="0" result="BackgroundImageFix"/>
<feColorMatrix in="SourceAlpha" type="matrix" values="0 0 0 0 0 0 0 0 0 0 0 0 0 0 0 0 0 0 127 0" result="hardAlpha"/>
<feOffset dx="2" dy="1"/>
<feGaussianBlur stdDeviation="4"/>
<feColorMatrix type="matrix" values="0 0 0 0 0.0392157 0 0 0 0 0.0392157 0 0 0 0 0.0627451 0 0 0 0.08 0"/>
<feBlend mode="normal" in2="BackgroundImageFix" result="effect1_dropShadow_24150_58454"/>
<feBlend mode="normal" in="SourceGraphic" in2="effect1_dropShadow_24150_58454" result="shape"/>
</filter>
</defs>
</svg>
