<svg width="112" height="200" viewBox="0 0 112 200" fill="none" xmlns="http://www.w3.org/2000/svg">
<rect x="0.5" y="0.5" width="111" height="199" rx="4.5" stroke="#9747FF" stroke-dasharray="10 5"/>
<g filter="url(#filter0_d_24150_58896)">
<rect x="16" y="16" width="80" height="80" rx="8" fill="white"/>
</g>
<path d="M38.0839 82.3983C38.0839 83.2824 38.7993 84 39.6823 84H74.713C75.596 84 76.3114 83.2824 76.3114 82.3983V80.846L81.3507 75.8157H81.3417V58.7138C81.3417 58.1581 80.8917 57.7082 80.336 57.7082H76.3125V37.5489H76.2731L68.3093 29.585V29.54H39.6834C38.8004 29.54 38.085 30.2577 38.085 31.1418V57.7082H34.0525C33.4968 57.7082 33.0469 58.1581 33.0469 58.7138V75.8157L38.0861 80.846V82.3983H38.0839ZM68.2733 35.9898V37.5477H68.2643L68.2733 35.9898Z" fill="#B6D7FC"/>
<path d="M35.5396 79.3062L30.5015 74.2771H35.5396V79.3062Z" fill="#127FB3"/>
<path d="M73.7681 79.3062L78.8062 74.2771H73.7681V79.3062Z" fill="#127FB3"/>
<path d="M65.7648 28H37.1389C36.2559 28 35.5405 28.7176 35.5405 29.6018V80.8582C35.5405 81.7424 36.2559 82.46 37.1389 82.46H72.1696C73.0526 82.46 73.768 81.7424 73.768 80.8582V36.0088H65.7198L65.7648 28Z" fill="#F0F7FE"/>
<path d="M31.5067 56.168H77.7914C78.3471 56.168 78.797 56.619 78.797 57.1736V74.2756H30.5V57.1736C30.5 56.6179 30.9511 56.168 31.5056 56.168H31.5067Z" fill="#1896E0"/>
<path d="M48.9651 67.2643C48.6198 67.8885 48.1237 68.3756 47.4758 68.7243C46.8279 69.073 46.0664 69.2485 45.1901 69.2485H42.0845V61.0237H45.1901C46.0743 61.0237 46.838 61.1947 47.4814 61.5355C48.126 61.8774 48.6198 62.3577 48.9651 62.9786C49.3104 63.5996 49.4825 64.3127 49.4825 65.1192C49.4825 65.9257 49.3093 66.6411 48.9651 67.2654V67.2643ZM46.8245 66.8514C47.2553 66.4398 47.4702 65.8627 47.4702 65.1181C47.4702 64.3734 47.2553 63.7953 46.8245 63.3847C46.3937 62.9741 45.7919 62.7683 45.0158 62.7683H44.0732V67.4679H45.0158C45.7919 67.4679 46.3937 67.262 46.8245 66.8514Z" fill="white"/>
<path d="M56.6308 61.4358C57.2629 61.7969 57.7612 62.2963 58.1257 62.9363C58.4901 63.5764 58.6723 64.2996 58.6723 65.105C58.6723 65.9104 58.4879 66.6371 58.12 67.2805C57.7511 67.9239 57.2505 68.4255 56.6195 68.7866C55.9874 69.1477 55.2877 69.3277 54.5194 69.3277C53.7512 69.3277 53.0515 69.1477 52.4205 68.7866C51.7883 68.4255 51.2878 67.9239 50.92 67.2805C50.551 66.6371 50.3677 65.9115 50.3677 65.105C50.3677 64.2985 50.5522 63.5753 50.92 62.9363C51.2878 62.2963 51.7883 61.7958 52.4205 61.4358C53.0527 61.0747 53.7523 60.8948 54.5194 60.8948C55.2866 60.8948 55.9986 61.0747 56.6308 61.4358ZM52.9672 63.3784C52.5836 63.8014 52.3913 64.3773 52.3913 65.105C52.3913 65.8328 52.5825 66.4008 52.9672 66.8272C53.3507 67.2535 53.8682 67.4672 54.5194 67.4672C55.1707 67.4672 55.6791 67.2535 56.0672 66.8272C56.4553 66.4008 56.6488 65.8272 56.6488 65.105C56.6488 64.3829 56.4564 63.8103 56.0728 63.3829C55.6893 62.9566 55.1707 62.7429 54.5194 62.7429C53.8682 62.7429 53.3507 62.9543 52.9672 63.3773V63.3784Z" fill="white"/>
<path d="M66.1469 61.7666C66.8331 62.3178 67.2774 63.0624 67.4787 64.0005H65.373C65.2178 63.6203 64.9793 63.3211 64.6576 63.104C64.3359 62.8869 63.9535 62.7778 63.5114 62.7778C62.9299 62.7778 62.4608 62.9915 62.1043 63.4179C61.7477 63.8442 61.5688 64.4145 61.5688 65.1276C61.5688 65.8407 61.7477 66.4088 62.1043 66.8317C62.4608 67.2547 62.9299 67.4661 63.5114 67.4661C63.9535 67.4661 64.3359 67.357 64.6576 67.1399C64.9793 66.9228 65.2178 66.6281 65.373 66.2558H67.4787C67.2774 67.1861 66.8331 67.9284 66.1469 68.483C65.4608 69.0375 64.5946 69.3142 63.5474 69.3142C62.7488 69.3142 62.0469 69.1376 61.4417 68.7856C60.8366 68.4324 60.3698 67.9386 60.0402 67.3019C59.7106 66.6664 59.5464 65.9409 59.5464 65.1265C59.5464 64.3121 59.7106 63.5866 60.0402 62.951C60.3698 62.3155 60.8377 61.8206 61.4417 61.4685C62.0469 61.1153 62.7488 60.9387 63.5474 60.9387C64.5946 60.9387 65.4608 61.2143 66.1469 61.7655V61.7666Z" fill="white"/>
<path d="M38.0839 178.398C38.0839 179.282 38.7993 180 39.6823 180H74.713C75.596 180 76.3114 179.282 76.3114 178.398V176.846L81.3507 171.816H81.3417V154.714C81.3417 154.158 80.8917 153.708 80.336 153.708H76.3125V133.549H76.2731L68.3093 125.585V125.54H39.6834C38.8004 125.54 38.085 126.258 38.085 127.142V153.708H34.0525C33.4968 153.708 33.0469 154.158 33.0469 154.714V171.816L38.0861 176.846V178.398H38.0839ZM68.2733 131.99V133.548H68.2643L68.2733 131.99Z" fill="#B6D7FC"/>
<path d="M35.5396 175.306L30.5015 170.277H35.5396V175.306Z" fill="#127FB3"/>
<path d="M73.7681 175.306L78.8062 170.277H73.7681V175.306Z" fill="#127FB3"/>
<path d="M65.7648 124H37.1389C36.2559 124 35.5405 124.718 35.5405 125.602V176.858C35.5405 177.742 36.2559 178.46 37.1389 178.46H72.1696C73.0526 178.46 73.768 177.742 73.768 176.858V132.009H65.7198L65.7648 124Z" fill="#F0F7FE"/>
<path d="M31.5067 152.168H77.7914C78.3471 152.168 78.797 152.619 78.797 153.174V170.276H30.5V153.174C30.5 152.618 30.9511 152.168 31.5056 152.168H31.5067Z" fill="#1896E0"/>
<path d="M48.9651 163.264C48.6198 163.889 48.1237 164.376 47.4758 164.724C46.8279 165.073 46.0664 165.248 45.1901 165.248H42.0845V157.024H45.1901C46.0743 157.024 46.838 157.195 47.4814 157.535C48.126 157.877 48.6198 158.358 48.9651 158.979C49.3104 159.6 49.4825 160.313 49.4825 161.119C49.4825 161.926 49.3093 162.641 48.9651 163.265V163.264ZM46.8245 162.851C47.2553 162.44 47.4702 161.863 47.4702 161.118C47.4702 160.373 47.2553 159.795 46.8245 159.385C46.3937 158.974 45.7919 158.768 45.0158 158.768H44.0732V163.468H45.0158C45.7919 163.468 46.3937 163.262 46.8245 162.851Z" fill="white"/>
<path d="M56.6308 157.436C57.2629 157.797 57.7612 158.296 58.1257 158.936C58.4901 159.576 58.6723 160.3 58.6723 161.105C58.6723 161.91 58.4879 162.637 58.12 163.28C57.7511 163.924 57.2505 164.426 56.6195 164.787C55.9874 165.148 55.2877 165.328 54.5194 165.328C53.7512 165.328 53.0515 165.148 52.4205 164.787C51.7883 164.426 51.2878 163.924 50.92 163.28C50.551 162.637 50.3677 161.912 50.3677 161.105C50.3677 160.299 50.5522 159.575 50.92 158.936C51.2878 158.296 51.7883 157.796 52.4205 157.436C53.0527 157.075 53.7523 156.895 54.5194 156.895C55.2866 156.895 55.9986 157.075 56.6308 157.436ZM52.9672 159.378C52.5836 159.801 52.3913 160.377 52.3913 161.105C52.3913 161.833 52.5825 162.401 52.9672 162.827C53.3507 163.253 53.8682 163.467 54.5194 163.467C55.1707 163.467 55.6791 163.253 56.0672 162.827C56.4553 162.401 56.6488 161.827 56.6488 161.105C56.6488 160.383 56.4564 159.81 56.0728 159.383C55.6893 158.957 55.1707 158.743 54.5194 158.743C53.8682 158.743 53.3507 158.954 52.9672 159.377V159.378Z" fill="white"/>
<path d="M66.1469 157.767C66.8331 158.318 67.2774 159.062 67.4787 160.001H65.373C65.2178 159.62 64.9793 159.321 64.6576 159.104C64.3359 158.887 63.9535 158.778 63.5114 158.778C62.9299 158.778 62.4608 158.992 62.1043 159.418C61.7477 159.844 61.5688 160.414 61.5688 161.128C61.5688 161.841 61.7477 162.409 62.1043 162.832C62.4608 163.255 62.9299 163.466 63.5114 163.466C63.9535 163.466 64.3359 163.357 64.6576 163.14C64.9793 162.923 65.2178 162.628 65.373 162.256H67.4787C67.2774 163.186 66.8331 163.928 66.1469 164.483C65.4608 165.038 64.5946 165.314 63.5474 165.314C62.7488 165.314 62.0469 165.138 61.4417 164.786C60.8366 164.432 60.3698 163.939 60.0402 163.302C59.7106 162.666 59.5464 161.941 59.5464 161.126C59.5464 160.312 59.7106 159.587 60.0402 158.951C60.3698 158.316 60.8377 157.821 61.4417 157.469C62.0469 157.115 62.7488 156.939 63.5474 156.939C64.5946 156.939 65.4608 157.214 66.1469 157.765V157.767Z" fill="white"/>
<defs>
<filter id="filter0_d_24150_58896" x="10" y="9" width="96" height="96" filterUnits="userSpaceOnUse" color-interpolation-filters="sRGB">
<feFlood flood-opacity="0" result="BackgroundImageFix"/>
<feColorMatrix in="SourceAlpha" type="matrix" values="0 0 0 0 0 0 0 0 0 0 0 0 0 0 0 0 0 0 127 0" result="hardAlpha"/>
<feOffset dx="2" dy="1"/>
<feGaussianBlur stdDeviation="4"/>
<feColorMatrix type="matrix" values="0 0 0 0 0.0392157 0 0 0 0 0.0392157 0 0 0 0 0.0627451 0 0 0 0.08 0"/>
<feBlend mode="normal" in2="BackgroundImageFix" result="effect1_dropShadow_24150_58896"/>
<feBlend mode="normal" in="SourceGraphic" in2="effect1_dropShadow_24150_58896" result="shape"/>
</filter>
</defs>
</svg>
