<svg width="112" height="200" viewBox="0 0 112 200" fill="none" xmlns="http://www.w3.org/2000/svg">
<rect x="0.5" y="0.5" width="111" height="199" rx="4.5" stroke="#9747FF" stroke-dasharray="10 5"/>
<g filter="url(#filter0_d_24150_58944)">
<rect x="16" y="16" width="80" height="80" rx="8" fill="white"/>
</g>
<path d="M81.3435 58.7144C81.3435 58.1587 80.8936 57.7088 80.3379 57.7088H76.3143V37.548H76.2749L68.3109 29.5841V29.5391H39.6845C38.8015 29.5391 38.0861 30.2567 38.0861 31.1409V57.7077H34.0535C33.4978 57.7077 33.0479 58.1576 33.0479 58.7133V75.8156L38.0872 80.8459V82.3982C38.0872 83.2824 38.8026 84 39.6856 84H74.717C75.6 84 76.3154 83.2824 76.3154 82.3982V80.8459L81.3548 75.8156H81.3458V58.7133L81.3435 58.7144ZM68.2738 35.9901V37.548H68.2648L68.2738 35.9901Z" fill="#B6D7FC"/>
<path d="M35.5403 79.3067L30.501 74.2764H35.5403V79.3067Z" fill="#00735A"/>
<path d="M73.7686 79.3067L78.8079 74.2764H73.7686V79.3067Z" fill="#00735A"/>
<path d="M65.7649 28H37.1385C36.2554 28 35.54 28.7177 35.54 29.6018V80.8592C35.54 81.7433 36.2554 82.461 37.1385 82.461H72.1698C73.0528 82.461 73.7682 81.7433 73.7682 80.8592V36.009H65.7199L65.7649 28Z" fill="#F0F7FE"/>
<path d="M31.5067 56.168H77.7923C78.3479 56.168 78.7979 56.619 78.7979 57.1736V74.2759H30.5V57.1736C30.5 56.6179 30.9511 56.168 31.5056 56.168H31.5067Z" fill="#219F84"/>
<path d="M49.1881 61.0225V66.6411C49.1881 67.5027 48.953 68.1653 48.4851 68.631C48.016 69.0967 47.3659 69.3295 46.5368 69.3295C45.637 69.3295 44.9238 69.0753 44.3962 68.568C43.8687 68.0607 43.6055 67.3295 43.6055 66.3756H45.5706C45.5706 67.1439 45.8619 67.5275 46.4435 67.5275C46.9474 67.5275 47.1994 67.2328 47.1994 66.6434V61.0247H49.1892L49.1881 61.0225Z" fill="white"/>
<path d="M52.4918 66.3621V69.2474H50.502V61.0225H53.7247C54.7022 61.0225 55.4468 61.2654 55.9575 61.7491C56.4704 62.2339 56.7258 62.8875 56.7258 63.7097C56.7258 64.2215 56.6122 64.6771 56.3816 65.0764C56.1532 65.4758 55.8135 65.7907 55.3636 66.0191C54.9136 66.2474 54.3669 66.3621 53.7235 66.3621H52.4907H52.4918ZM54.7021 63.7097C54.7021 62.9876 54.3028 62.6276 53.5031 62.6276H52.4907V64.7682H53.5031C54.3017 64.7682 54.7021 64.415 54.7021 63.7097Z" fill="white"/>
<path d="M64.1016 61.6973C64.7686 62.2012 65.1837 62.884 65.3468 63.7445H63.2411C63.1004 63.4498 62.8878 63.2147 62.601 63.0404C62.3142 62.866 61.9688 62.7783 61.565 62.7783C60.9362 62.7783 60.4323 62.9898 60.0521 63.4127C59.673 63.8357 59.4818 64.4071 59.4818 65.1281C59.4818 65.9121 59.682 66.5128 60.0813 66.9313C60.4806 67.3508 61.0476 67.5601 61.7844 67.5601C62.2579 67.5601 62.673 67.4307 63.0296 67.1709C63.385 66.911 63.6392 66.5409 63.7866 66.0595H61.2737V64.6287H65.4491V66.5949C65.2939 67.0764 65.0464 67.5218 64.7056 67.9324C64.3648 68.3441 63.9283 68.677 63.3963 68.9335C62.8653 69.19 62.259 69.3171 61.5763 69.3171C60.7461 69.3171 60.0206 69.1405 59.4008 68.7884C58.7799 68.4352 58.3007 67.9414 57.9632 67.3047C57.6258 66.6692 57.457 65.9436 57.457 65.1292C57.457 64.3148 57.6258 63.5893 57.9632 62.9538C58.3007 62.3182 58.7776 61.8233 59.3952 61.4712C60.0116 61.118 60.7304 60.9414 61.5526 60.9414C62.5841 60.9414 63.4334 61.1934 64.1004 61.6984L64.1016 61.6973Z" fill="white"/>
<path d="M81.3435 154.714C81.3435 154.159 80.8936 153.709 80.3379 153.709H76.3143V133.548H76.2749L68.3109 125.584V125.539H39.6845C38.8015 125.539 38.0861 126.257 38.0861 127.141V153.708H34.0535C33.4978 153.708 33.0479 154.158 33.0479 154.713V171.816L38.0872 176.846V178.398C38.0872 179.282 38.8026 180 39.6856 180H74.717C75.6 180 76.3154 179.282 76.3154 178.398V176.846L81.3548 171.816H81.3458V154.713L81.3435 154.714ZM68.2738 131.99V133.548H68.2648L68.2738 131.99Z" fill="#B6D7FC"/>
<path d="M35.5403 175.307L30.501 170.276H35.5403V175.307Z" fill="#00735A"/>
<path d="M73.7686 175.307L78.8079 170.276H73.7686V175.307Z" fill="#00735A"/>
<path d="M65.7649 124H37.1385C36.2554 124 35.54 124.718 35.54 125.602V176.859C35.54 177.743 36.2554 178.461 37.1385 178.461H72.1698C73.0528 178.461 73.7682 177.743 73.7682 176.859V132.009H65.7199L65.7649 124Z" fill="#F0F7FE"/>
<path d="M31.5067 152.168H77.7923C78.3479 152.168 78.7979 152.619 78.7979 153.174V170.276H30.5V153.174C30.5 152.618 30.9511 152.168 31.5056 152.168H31.5067Z" fill="#219F84"/>
<path d="M49.1881 157.022V162.641C49.1881 163.503 48.953 164.165 48.4851 164.631C48.016 165.097 47.3659 165.33 46.5368 165.33C45.637 165.33 44.9238 165.075 44.3962 164.568C43.8687 164.061 43.6055 163.33 43.6055 162.376H45.5706C45.5706 163.144 45.8619 163.527 46.4435 163.527C46.9474 163.527 47.1994 163.233 47.1994 162.643V157.025H49.1892L49.1881 157.022Z" fill="white"/>
<path d="M52.4918 162.362V165.247H50.502V157.022H53.7247C54.7022 157.022 55.4468 157.265 55.9575 157.749C56.4704 158.234 56.7258 158.887 56.7258 159.71C56.7258 160.222 56.6122 160.677 56.3816 161.076C56.1532 161.476 55.8135 161.791 55.3636 162.019C54.9136 162.247 54.3669 162.362 53.7235 162.362H52.4907H52.4918ZM54.7021 159.71C54.7021 158.988 54.3028 158.628 53.5031 158.628H52.4907V160.768H53.5031C54.3017 160.768 54.7021 160.415 54.7021 159.71Z" fill="white"/>
<path d="M64.1016 157.697C64.7686 158.201 65.1837 158.884 65.3468 159.745H63.2411C63.1004 159.45 62.8878 159.215 62.601 159.04C62.3142 158.866 61.9688 158.778 61.565 158.778C60.9362 158.778 60.4323 158.99 60.0521 159.413C59.673 159.836 59.4818 160.407 59.4818 161.128C59.4818 161.912 59.682 162.513 60.0813 162.931C60.4806 163.351 61.0476 163.56 61.7844 163.56C62.2579 163.56 62.673 163.431 63.0296 163.171C63.385 162.911 63.6392 162.541 63.7866 162.059H61.2737V160.629H65.4491V162.595C65.2939 163.076 65.0464 163.522 64.7056 163.932C64.3648 164.344 63.9283 164.677 63.3963 164.933C62.8653 165.19 62.259 165.317 61.5763 165.317C60.7461 165.317 60.0206 165.14 59.4008 164.788C58.7799 164.435 58.3007 163.941 57.9632 163.305C57.6258 162.669 57.457 161.944 57.457 161.129C57.457 160.315 57.6258 159.589 57.9632 158.954C58.3007 158.318 58.7776 157.823 59.3952 157.471C60.0116 157.118 60.7304 156.941 61.5526 156.941C62.5841 156.941 63.4334 157.193 64.1004 157.698L64.1016 157.697Z" fill="white"/>
<defs>
<filter id="filter0_d_24150_58944" x="10" y="9" width="96" height="96" filterUnits="userSpaceOnUse" color-interpolation-filters="sRGB">
<feFlood flood-opacity="0" result="BackgroundImageFix"/>
<feColorMatrix in="SourceAlpha" type="matrix" values="0 0 0 0 0 0 0 0 0 0 0 0 0 0 0 0 0 0 127 0" result="hardAlpha"/>
<feOffset dx="2" dy="1"/>
<feGaussianBlur stdDeviation="4"/>
<feColorMatrix type="matrix" values="0 0 0 0 0.0392157 0 0 0 0 0.0392157 0 0 0 0 0.0627451 0 0 0 0.08 0"/>
<feBlend mode="normal" in2="BackgroundImageFix" result="effect1_dropShadow_24150_58944"/>
<feBlend mode="normal" in="SourceGraphic" in2="effect1_dropShadow_24150_58944" result="shape"/>
</filter>
</defs>
</svg>
