<svg width="112" height="200" viewBox="0 0 112 200" fill="none" xmlns="http://www.w3.org/2000/svg">
<rect x="0.5" y="0.5" width="111" height="199" rx="4.5" stroke="#9747FF" stroke-dasharray="10 5"/>
<g filter="url(#filter0_d_24150_58486)">
<rect x="16" y="16" width="80" height="80" rx="8" fill="white"/>
</g>
<path d="M81.3414 58.7134C81.3414 58.1577 80.8914 57.7078 80.3358 57.7078H76.3122V37.5484H76.2728L68.309 29.5846V29.5396H39.6829C38.7999 29.5396 38.0845 30.2572 38.0845 31.1413V57.7078H34.052C33.4963 57.7078 33.0464 58.1577 33.0464 58.7134V75.8155L38.0857 80.8457V82.398C38.0857 83.2821 38.8011 83.9998 39.6841 83.9998H74.7149C75.5979 83.9998 76.3133 83.2821 76.3133 82.398V80.8457L81.3526 75.8155H81.3436V58.7134H81.3414ZM68.2719 35.9894V37.5473H68.2629L68.2719 35.9894Z" fill="#B6D7FC"/>
<path d="M35.5393 79.3062L30.5 74.2759H35.5393V79.3062Z" fill="#A56418"/>
<path d="M73.7671 79.3062L78.8064 74.2759H73.7671V79.3062Z" fill="#A56418"/>
<path d="M73.7668 36.048H65.7275V28.0088L73.7668 36.048Z" fill="#B6D7FC"/>
<path d="M65.765 28H37.1389C36.2559 28 35.5405 28.7176 35.5405 29.6018V80.8584C35.5405 81.7426 36.2559 82.4602 37.1389 82.4602H72.1698C73.0528 82.4602 73.7682 81.7426 73.7682 80.8584V36.0089H65.72L65.765 28Z" fill="#F0F7FE"/>
<path d="M31.5067 56.168H77.7916C78.3473 56.168 78.7972 56.619 78.7972 57.1736V74.2756H30.5V57.1736C30.5 56.6179 30.9511 56.168 31.5056 56.168H31.5067Z" fill="#ECAD54"/>
<path d="M53.7111 61.022V66.6405C53.7111 67.5022 53.4772 68.1647 53.0081 68.6304C52.5391 69.0961 51.8889 69.3289 51.0599 69.3289C50.16 69.3289 49.4469 69.0747 48.9193 68.5674C48.3918 68.0589 48.1274 67.3289 48.1274 66.3751H50.0937C50.0937 67.1433 50.385 67.5269 50.9665 67.5269C51.4705 67.5269 51.7224 67.2322 51.7224 66.6428V61.0242H53.7111V61.022Z" fill="white"/>
<path d="M60.6028 68.1297C60.3823 68.4941 60.0561 68.7855 59.6264 69.0026C59.1956 69.2197 58.6737 69.3288 58.0618 69.3288C57.1394 69.3288 56.379 69.1038 55.7817 68.6539C55.1844 68.2039 54.8593 67.5763 54.8042 66.7698H56.9212C56.9527 67.0802 57.0629 67.3243 57.253 67.5032C57.4431 67.682 57.685 67.7709 57.9797 67.7709C58.235 67.7709 58.4375 67.7011 58.5848 67.5616C58.7322 67.4222 58.8064 67.2354 58.8064 67.0026C58.8064 66.7934 58.7389 66.619 58.6028 66.4796C58.4667 66.3401 58.298 66.2253 58.0955 66.1365C57.8942 66.0476 57.6152 65.9408 57.2586 65.817C56.739 65.6382 56.3149 65.4661 55.9853 65.2996C55.6557 65.1331 55.3723 64.8845 55.1361 64.555C54.8998 64.2254 54.7817 63.7968 54.7817 63.2704C54.7817 62.7811 54.9055 62.3593 55.1541 62.0016C55.4026 61.645 55.7446 61.3717 56.1833 61.1816C56.6208 60.9915 57.1237 60.897 57.6894 60.897C58.6051 60.897 59.3317 61.1141 59.8705 61.5483C60.4104 61.9824 60.7141 62.5797 60.7839 63.3401H58.6321C58.5927 63.069 58.4937 62.8531 58.3351 62.6945C58.1765 62.5359 57.9594 62.456 57.6883 62.456C57.4566 62.456 57.2676 62.5179 57.1248 62.6427C56.9808 62.7665 56.9099 62.9498 56.9099 63.1894C56.9099 63.384 56.974 63.5482 57.1012 63.6832C57.2294 63.8193 57.3902 63.9295 57.5848 64.015C57.7783 64.1005 58.0573 64.2085 58.4217 64.3412C58.9493 64.5201 59.3801 64.6967 59.713 64.871C60.0471 65.0454 60.3339 65.2996 60.5735 65.6326C60.8154 65.9666 60.9346 66.4008 60.9346 66.9351C60.9346 67.3693 60.8244 67.7698 60.6028 68.1342V68.1297Z" fill="white"/>
<path d="M52.1745 50.9646V51.8532H50.7809C49.755 51.8532 49.0497 51.1333 49.0497 50.0917V46.3842C49.0497 45.7869 48.6515 45.373 48.0846 45.373H47.9316V44.1784H48.0846C48.6515 44.1784 49.0497 43.7645 49.0497 43.1672V39.6127C49.0497 38.5554 49.755 37.8354 50.7809 37.8354H52.1745V38.7398H51.2859C50.6268 38.7398 50.1836 39.1999 50.1836 39.8737V43.2752C50.1836 44.1019 49.647 44.6992 48.8664 44.7611L48.7134 44.7768L48.8664 44.7926C49.647 44.8387 50.1836 45.436 50.1836 46.2627V49.8319C50.1836 50.5057 50.6279 50.9657 51.2859 50.9657H52.1745V50.9646Z" fill="#ECAD54"/>
<path d="M53.8574 39.1381C53.8574 38.678 54.1791 38.3574 54.6538 38.3574C55.1285 38.3574 55.4502 38.6791 55.4502 39.1381C55.4502 39.597 55.1127 39.9344 54.6538 39.9344C54.1949 39.9344 53.8574 39.597 53.8574 39.1381ZM55.2365 41.3596V49.0963H54.0723V41.3596H55.2365Z" fill="#ECAD54"/>
<path d="M57.1353 51.8534V50.9647H58.0239C58.683 50.9647 59.1273 50.5047 59.1273 49.8309V46.2618C59.1273 45.435 59.6481 44.8377 60.4445 44.7916L60.5975 44.7759L60.4445 44.7601C59.6481 44.6983 59.1273 44.101 59.1273 43.2742V39.8727C59.1273 39.1989 58.683 38.7388 58.0239 38.7388H57.1353V37.8345H58.5289C59.5548 37.8345 60.26 38.5544 60.26 39.6117V43.1662C60.26 43.7635 60.6436 44.1775 61.2252 44.1775H61.3781V45.372H61.2252C60.6436 45.372 60.26 45.786 60.26 46.3833V50.0907C60.26 51.1323 59.5548 51.8522 58.5289 51.8522H57.1353V51.8534Z" fill="#ECAD54"/>
<path d="M81.3414 154.713C81.3414 154.158 80.8914 153.708 80.3358 153.708H76.3122V133.548H76.2728L68.309 125.585V125.54H39.6829C38.7999 125.54 38.0845 126.257 38.0845 127.141V153.708H34.052C33.4963 153.708 33.0464 154.158 33.0464 154.713V171.815L38.0857 176.846V178.398C38.0857 179.282 38.8011 180 39.6841 180H74.7149C75.5979 180 76.3133 179.282 76.3133 178.398V176.846L81.3526 171.815H81.3436V154.713H81.3414ZM68.2719 131.989V133.547H68.2629L68.2719 131.989Z" fill="#B6D7FC"/>
<path d="M35.5393 175.306L30.5 170.276H35.5393V175.306Z" fill="#A56418"/>
<path d="M73.7671 175.306L78.8064 170.276H73.7671V175.306Z" fill="#A56418"/>
<path d="M73.7668 132.048H65.7275V124.009L73.7668 132.048Z" fill="#B6D7FC"/>
<path d="M65.765 124H37.1389C36.2559 124 35.5405 124.718 35.5405 125.602V176.858C35.5405 177.743 36.2559 178.46 37.1389 178.46H72.1698C73.0528 178.46 73.7682 177.743 73.7682 176.858V132.009H65.72L65.765 124Z" fill="#F0F7FE"/>
<path d="M31.5067 152.168H77.7916C78.3473 152.168 78.7972 152.619 78.7972 153.174V170.276H30.5V153.174C30.5 152.618 30.9511 152.168 31.5056 152.168H31.5067Z" fill="#ECAD54"/>
<path d="M53.7111 157.022V162.641C53.7111 163.502 53.4772 164.165 53.0081 164.63C52.5391 165.096 51.8889 165.329 51.0599 165.329C50.16 165.329 49.4469 165.075 48.9193 164.567C48.3918 164.059 48.1274 163.329 48.1274 162.375H50.0937C50.0937 163.143 50.385 163.527 50.9665 163.527C51.4705 163.527 51.7224 163.232 51.7224 162.643V157.024H53.7111V157.022Z" fill="white"/>
<path d="M60.6028 164.13C60.3823 164.494 60.0561 164.785 59.6264 165.003C59.1956 165.22 58.6737 165.329 58.0618 165.329C57.1394 165.329 56.379 165.104 55.7817 164.654C55.1844 164.204 54.8593 163.576 54.8042 162.77H56.9212C56.9527 163.08 57.0629 163.324 57.253 163.503C57.4431 163.682 57.685 163.771 57.9797 163.771C58.235 163.771 58.4375 163.701 58.5848 163.562C58.7322 163.422 58.8064 163.235 58.8064 163.003C58.8064 162.793 58.7389 162.619 58.6028 162.48C58.4667 162.34 58.298 162.225 58.0955 162.136C57.8942 162.048 57.6152 161.941 57.2586 161.817C56.739 161.638 56.3149 161.466 55.9853 161.3C55.6557 161.133 55.3723 160.885 55.1361 160.555C54.8998 160.225 54.7817 159.797 54.7817 159.27C54.7817 158.781 54.9055 158.359 55.1541 158.002C55.4026 157.645 55.7446 157.372 56.1833 157.182C56.6208 156.991 57.1237 156.897 57.6894 156.897C58.6051 156.897 59.3317 157.114 59.8705 157.548C60.4104 157.982 60.7141 158.58 60.7839 159.34H58.6321C58.5927 159.069 58.4937 158.853 58.3351 158.694C58.1765 158.536 57.9594 158.456 57.6883 158.456C57.4566 158.456 57.2676 158.518 57.1248 158.643C56.9808 158.766 56.9099 158.95 56.9099 159.189C56.9099 159.384 56.974 159.548 57.1012 159.683C57.2294 159.819 57.3902 159.93 57.5848 160.015C57.7783 160.101 58.0573 160.209 58.4217 160.341C58.9493 160.52 59.3801 160.697 59.713 160.871C60.0471 161.045 60.3339 161.3 60.5735 161.633C60.8154 161.967 60.9346 162.401 60.9346 162.935C60.9346 163.369 60.8244 163.77 60.6028 164.134V164.13Z" fill="white"/>
<path d="M52.1745 146.965V147.853H50.7809C49.755 147.853 49.0497 147.133 49.0497 146.092V142.384C49.0497 141.787 48.6515 141.373 48.0846 141.373H47.9316V140.178H48.0846C48.6515 140.178 49.0497 139.764 49.0497 139.167V135.613C49.0497 134.555 49.755 133.835 50.7809 133.835H52.1745V134.74H51.2859C50.6268 134.74 50.1836 135.2 50.1836 135.874V139.275C50.1836 140.102 49.647 140.699 48.8664 140.761L48.7134 140.777L48.8664 140.793C49.647 140.839 50.1836 141.436 50.1836 142.263V145.832C50.1836 146.506 50.6279 146.966 51.2859 146.966H52.1745V146.965Z" fill="#ECAD54"/>
<path d="M53.8574 135.138C53.8574 134.678 54.1791 134.357 54.6538 134.357C55.1285 134.357 55.4502 134.679 55.4502 135.138C55.4502 135.597 55.1127 135.934 54.6538 135.934C54.1949 135.934 53.8574 135.597 53.8574 135.138ZM55.2365 137.36V145.096H54.0723V137.36H55.2365Z" fill="#ECAD54"/>
<path d="M57.1353 147.853V146.965H58.0239C58.683 146.965 59.1273 146.505 59.1273 145.831V142.262C59.1273 141.435 59.6481 140.838 60.4445 140.792L60.5975 140.776L60.4445 140.76C59.6481 140.698 59.1273 140.101 59.1273 139.274V135.873C59.1273 135.199 58.683 134.739 58.0239 134.739H57.1353V133.834H58.5289C59.5548 133.834 60.26 134.554 60.26 135.612V139.166C60.26 139.764 60.6436 140.177 61.2252 140.177H61.3781V141.372H61.2252C60.6436 141.372 60.26 141.786 60.26 142.383V146.091C60.26 147.132 59.5548 147.852 58.5289 147.852H57.1353V147.853Z" fill="#ECAD54"/>
<defs>
<filter id="filter0_d_24150_58486" x="10" y="9" width="96" height="96" filterUnits="userSpaceOnUse" color-interpolation-filters="sRGB">
<feFlood flood-opacity="0" result="BackgroundImageFix"/>
<feColorMatrix in="SourceAlpha" type="matrix" values="0 0 0 0 0 0 0 0 0 0 0 0 0 0 0 0 0 0 127 0" result="hardAlpha"/>
<feOffset dx="2" dy="1"/>
<feGaussianBlur stdDeviation="4"/>
<feColorMatrix type="matrix" values="0 0 0 0 0.0392157 0 0 0 0 0.0392157 0 0 0 0 0.0627451 0 0 0 0.08 0"/>
<feBlend mode="normal" in2="BackgroundImageFix" result="effect1_dropShadow_24150_58486"/>
<feBlend mode="normal" in="SourceGraphic" in2="effect1_dropShadow_24150_58486" result="shape"/>
</filter>
</defs>
</svg>
