<svg width="112" height="200" viewBox="0 0 112 200" fill="none" xmlns="http://www.w3.org/2000/svg">
<rect x="0.5" y="0.5" width="111" height="199" rx="4.5" stroke="#9747FF" stroke-dasharray="10 5"/>
<g filter="url(#filter0_d_24150_58772)">
<rect x="16" y="16" width="80" height="80" rx="8" fill="white"/>
</g>
<path d="M81.3425 58.7133C81.3425 58.1576 80.8926 57.7077 80.3369 57.7077H76.3133V37.548H76.2739L68.31 29.5841V29.5391H39.6835C38.8005 29.5391 38.0851 30.2567 38.0851 31.1409V57.7077H34.0525C33.4968 57.7077 33.0469 58.1576 33.0469 58.7133V75.8156L38.0862 80.846V82.3982C38.0862 83.2824 38.8016 84 39.6846 84H74.716C75.599 84 76.3144 83.2824 76.3144 82.3982V80.846L81.3538 75.8156H81.3448V58.7133H81.3425ZM68.2728 35.9901V37.548H68.2638L68.2728 35.9901Z" fill="#B6D7FC"/>
<path d="M35.5394 79.3067L30.5 74.2764H35.5394V79.3067Z" fill="#6A4D7D"/>
<path d="M73.7676 79.3067L78.8069 74.2764H73.7676V79.3067Z" fill="#6A4D7D"/>
<path d="M73.7679 36.0481H65.7285V28.0088L73.7679 36.0481Z" fill="#B6D7FC"/>
<path d="M65.7649 28H37.1385C36.2555 28 35.54 28.7177 35.54 29.6018V80.8592C35.54 81.7433 36.2555 82.461 37.1385 82.461H72.1698C73.0528 82.461 73.7682 81.7433 73.7682 80.8592V36.009H65.7199L65.7649 28Z" fill="#F0F7FE"/>
<path d="M31.5067 56.1689H77.7923C78.3479 56.1689 78.7979 56.62 78.7979 57.1746V74.2769H30.5V57.1746C30.5 56.6189 30.9511 56.1689 31.5056 56.1689H31.5067Z" fill="#9678A6"/>
<path d="M44.784 61.0234V66.6421C44.784 67.5037 44.55 68.1663 44.0809 68.632C43.6119 69.0976 42.9617 69.3305 42.1327 69.3305C41.2328 69.3305 40.5197 69.0763 39.9921 68.569C39.4645 68.0605 39.2002 67.3305 39.2002 66.3766H41.1664C41.1664 67.1449 41.4578 67.5285 42.0393 67.5285C42.5433 67.5285 42.7952 67.2338 42.7952 66.6443V61.0257H44.784V61.0234Z" fill="white"/>
<path d="M51.6758 68.1313C51.4542 68.4957 51.1291 68.7871 50.6983 69.0041C50.2674 69.2212 49.7466 69.3304 49.1336 69.3304C48.2101 69.3304 47.4508 69.1054 46.8535 68.6554C46.2562 68.2055 45.93 67.5778 45.876 66.7713H47.993C48.0245 67.0818 48.1347 67.3259 48.3248 67.5047C48.5149 67.6836 48.7568 67.7724 49.0515 67.7724C49.308 67.7724 49.5093 67.7027 49.6567 67.5632C49.804 67.4237 49.8783 67.237 49.8783 67.0042C49.8783 66.7949 49.8096 66.6206 49.6746 66.4811C49.5397 66.3416 49.3709 66.2269 49.1685 66.138C48.9671 66.0492 48.687 65.9423 48.3304 65.8186C47.8108 65.6397 47.3867 65.4676 47.0571 65.3011C46.7275 65.1346 46.4441 64.8861 46.2078 64.5565C45.9716 64.2269 45.8535 63.7983 45.8535 63.2719C45.8535 62.7826 45.9773 62.3608 46.2258 62.0031C46.4744 61.6465 46.8164 61.3731 47.2551 61.183C47.6926 60.9929 48.1955 60.8984 48.7613 60.8984C49.6769 60.8984 50.4036 61.1155 50.9424 61.5497C51.4812 61.9839 51.786 62.5812 51.8557 63.3416H49.7039C49.6645 63.0705 49.5655 62.8546 49.4069 62.696C49.2483 62.5373 49.0324 62.4575 48.7613 62.4575C48.5284 62.4575 48.3406 62.5194 48.1977 62.6442C48.0537 62.7679 47.9829 62.9513 47.9829 63.1909C47.9829 63.3844 48.047 63.5497 48.1741 63.6847C48.3023 63.8208 48.4632 63.931 48.6567 64.0165C48.8501 64.102 49.1302 64.21 49.4947 64.3427C50.0222 64.5216 50.453 64.6982 50.786 64.8726C51.1201 65.0469 51.4069 65.3011 51.6465 65.6341C51.8872 65.9682 52.0076 66.4024 52.0076 66.9367C52.0076 67.3709 51.8974 67.7713 51.6769 68.1358L51.6758 68.1313Z" fill="white"/>
<path d="M59.1325 61.4356C59.7647 61.7967 60.263 62.2961 60.6274 62.9361C60.9919 63.5762 61.1741 64.2995 61.1741 65.1049C61.1741 65.9103 60.9896 66.6369 60.6207 67.2803C60.2528 67.9238 59.7523 68.4254 59.1201 68.7865C58.4879 69.1476 57.7883 69.3276 57.0211 69.3276C56.254 69.3276 55.5532 69.1476 54.921 68.7865C54.2889 68.4254 53.7883 67.9238 53.4205 67.2803C53.0515 66.6369 52.8682 65.9114 52.8682 65.1049C52.8682 64.2983 53.0526 63.5751 53.4205 62.9361C53.7883 62.2961 54.2889 61.7955 54.921 61.4356C55.5532 61.0745 56.2529 60.8945 57.0211 60.8945C57.7894 60.8945 58.5003 61.0745 59.1314 61.4356H59.1325ZM55.4688 63.3782C55.0853 63.8012 54.8929 64.3771 54.8929 65.1049C54.8929 65.8327 55.0841 66.4007 55.4688 66.827C55.8524 67.2533 56.3698 67.4671 57.0223 67.4671C57.6747 67.4671 58.182 67.2533 58.5689 66.827C58.957 66.4007 59.1505 65.827 59.1505 65.1049C59.1505 64.3827 58.9593 63.8102 58.5746 63.3827C58.191 62.9564 57.6724 62.7427 57.0223 62.7427C56.3721 62.7427 55.8535 62.9541 55.4688 63.3771V63.3782Z" fill="white"/>
<path d="M69.5969 69.2464H67.6071L64.2798 64.1981V69.2464H62.291V61.0215H64.2798L67.6071 66.1171V61.0215H69.5969V69.2464Z" fill="white"/>
<path d="M49.4187 49.9584V50.847H48.025C46.9992 50.847 46.2939 50.1271 46.2939 49.0855V45.378C46.2939 44.7807 45.8957 44.3668 45.3288 44.3668H45.1758V43.1722H45.3288C45.8957 43.1722 46.2939 42.7582 46.2939 42.1609V38.6064C46.2939 37.549 46.9992 36.8291 48.025 36.8291H49.4187V37.7335H48.5301C47.8709 37.7335 47.4277 38.1936 47.4277 38.8673V42.2689C47.4277 43.0957 46.8912 43.693 46.1105 43.7548L45.9576 43.7706L46.1105 43.7863C46.8912 43.8324 47.4277 44.4297 47.4277 45.2565V48.8257C47.4277 49.4995 47.8721 49.9595 48.5301 49.9595H49.4187V49.9584Z" fill="#9678A6"/>
<path d="M50.7031 47.4772C50.7031 47.0329 51.0248 46.6965 51.4995 46.6965C51.9742 46.6965 52.2959 47.034 52.2959 47.4772C52.2959 47.9519 51.9585 48.2736 51.4995 48.2736C51.0406 48.2736 50.7031 47.9519 50.7031 47.4772Z" fill="#9678A6"/>
<path d="M53.8584 47.4772C53.8584 47.0329 54.1801 46.6965 54.6548 46.6965C55.1295 46.6965 55.4512 47.034 55.4512 47.4772C55.4512 47.9519 55.1137 48.2736 54.6548 48.2736C54.1959 48.2736 53.8584 47.9519 53.8584 47.4772Z" fill="#9678A6"/>
<path d="M57.0137 47.4772C57.0137 47.0329 57.3354 46.6965 57.8101 46.6965C58.2848 46.6965 58.6065 47.034 58.6065 47.4772C58.6065 47.9519 58.269 48.2736 57.8101 48.2736C57.3511 48.2736 57.0137 47.9519 57.0137 47.4772Z" fill="#9678A6"/>
<path d="M59.8936 50.8472V49.9586H60.7822C61.4413 49.9586 61.8857 49.4985 61.8857 48.8247V45.2555C61.8857 44.4288 62.4065 43.8315 63.2029 43.7854L63.3558 43.7696L63.2029 43.7539C62.4065 43.692 61.8857 43.0947 61.8857 42.2679V38.8664C61.8857 38.1926 61.4413 37.7325 60.7822 37.7325H59.8936V36.8281H61.2872C62.3131 36.8281 63.0184 37.548 63.0184 38.6054V42.1599C63.0184 42.7572 63.402 43.1712 63.9835 43.1712H64.1365V44.3658H63.9835C63.402 44.3658 63.0184 44.7797 63.0184 45.377V49.0845C63.0184 50.1262 62.3131 50.8461 61.2872 50.8461H59.8936V50.8472Z" fill="#9678A6"/>
<path d="M81.3425 154.713C81.3425 154.158 80.8926 153.708 80.3369 153.708H76.3133V133.548H76.2739L68.31 125.584V125.539H39.6835C38.8005 125.539 38.0851 126.257 38.0851 127.141V153.708H34.0525C33.4968 153.708 33.0469 154.158 33.0469 154.713V171.816L38.0862 176.846V178.398C38.0862 179.282 38.8016 180 39.6846 180H74.716C75.599 180 76.3144 179.282 76.3144 178.398V176.846L81.3538 171.816H81.3448V154.713H81.3425ZM68.2728 131.99V133.548H68.2638L68.2728 131.99Z" fill="#B6D7FC"/>
<path d="M35.5394 175.307L30.5 170.276H35.5394V175.307Z" fill="#6A4D7D"/>
<path d="M73.7676 175.307L78.8069 170.276H73.7676V175.307Z" fill="#6A4D7D"/>
<path d="M73.7679 132.048H65.7285V124.009L73.7679 132.048Z" fill="#B6D7FC"/>
<path d="M65.7649 124H37.1385C36.2555 124 35.54 124.718 35.54 125.602V176.859C35.54 177.743 36.2555 178.461 37.1385 178.461H72.1698C73.0528 178.461 73.7682 177.743 73.7682 176.859V132.009H65.7199L65.7649 124Z" fill="#F0F7FE"/>
<path d="M31.5067 152.169H77.7923C78.3479 152.169 78.7979 152.62 78.7979 153.175V170.277H30.5V153.175C30.5 152.619 30.9511 152.169 31.5056 152.169H31.5067Z" fill="#9678A6"/>
<path d="M44.784 157.023V162.642C44.784 163.504 44.55 164.166 44.0809 164.632C43.6119 165.098 42.9617 165.331 42.1327 165.331C41.2328 165.331 40.5197 165.076 39.9921 164.569C39.4645 164.061 39.2002 163.331 39.2002 162.377H41.1664C41.1664 163.145 41.4578 163.528 42.0393 163.528C42.5433 163.528 42.7952 163.234 42.7952 162.644V157.026H44.784V157.023Z" fill="white"/>
<path d="M51.6758 164.131C51.4542 164.496 51.1291 164.787 50.6983 165.004C50.2674 165.221 49.7466 165.33 49.1336 165.33C48.2101 165.33 47.4508 165.105 46.8535 164.655C46.2562 164.206 45.93 163.578 45.876 162.771H47.993C48.0245 163.082 48.1347 163.326 48.3248 163.505C48.5149 163.684 48.7568 163.772 49.0515 163.772C49.308 163.772 49.5093 163.703 49.6567 163.563C49.804 163.424 49.8783 163.237 49.8783 163.004C49.8783 162.795 49.8096 162.621 49.6746 162.481C49.5397 162.342 49.3709 162.227 49.1685 162.138C48.9671 162.049 48.687 161.942 48.3304 161.819C47.8108 161.64 47.3867 161.468 47.0571 161.301C46.7275 161.135 46.4441 160.886 46.2078 160.556C45.9716 160.227 45.8535 159.798 45.8535 159.272C45.8535 158.783 45.9773 158.361 46.2258 158.003C46.4744 157.646 46.8164 157.373 47.2551 157.183C47.6926 156.993 48.1955 156.898 48.7613 156.898C49.6769 156.898 50.4036 157.116 50.9424 157.55C51.4812 157.984 51.786 158.581 51.8557 159.342H49.7039C49.6645 159.071 49.5655 158.855 49.4069 158.696C49.2483 158.537 49.0324 158.457 48.7613 158.457C48.5284 158.457 48.3406 158.519 48.1977 158.644C48.0537 158.768 47.9829 158.951 47.9829 159.191C47.9829 159.384 48.047 159.55 48.1741 159.685C48.3023 159.821 48.4632 159.931 48.6567 160.017C48.8501 160.102 49.1302 160.21 49.4947 160.343C50.0222 160.522 50.453 160.698 50.786 160.873C51.1201 161.047 51.4069 161.301 51.6465 161.634C51.8872 161.968 52.0076 162.402 52.0076 162.937C52.0076 163.371 51.8974 163.771 51.6769 164.136L51.6758 164.131Z" fill="white"/>
<path d="M59.1325 157.436C59.7647 157.797 60.263 158.296 60.6274 158.936C60.9919 159.576 61.1741 160.299 61.1741 161.105C61.1741 161.91 60.9896 162.637 60.6207 163.28C60.2528 163.924 59.7523 164.425 59.1201 164.787C58.4879 165.148 57.7883 165.328 57.0211 165.328C56.254 165.328 55.5532 165.148 54.921 164.787C54.2889 164.425 53.7883 163.924 53.4205 163.28C53.0515 162.637 52.8682 161.911 52.8682 161.105C52.8682 160.298 53.0526 159.575 53.4205 158.936C53.7883 158.296 54.2889 157.796 54.921 157.436C55.5532 157.075 56.2529 156.895 57.0211 156.895C57.7894 156.895 58.5003 157.075 59.1314 157.436H59.1325ZM55.4688 159.378C55.0853 159.801 54.8929 160.377 54.8929 161.105C54.8929 161.833 55.0841 162.401 55.4688 162.827C55.8524 163.253 56.3698 163.467 57.0223 163.467C57.6747 163.467 58.182 163.253 58.5689 162.827C58.957 162.401 59.1505 161.827 59.1505 161.105C59.1505 160.383 58.9593 159.81 58.5746 159.383C58.191 158.956 57.6724 158.743 57.0223 158.743C56.3721 158.743 55.8535 158.954 55.4688 159.377V159.378Z" fill="white"/>
<path d="M69.5969 165.246H67.6071L64.2798 160.198V165.246H62.291V157.021H64.2798L67.6071 162.117V157.021H69.5969V165.246Z" fill="white"/>
<path d="M49.4187 145.958V146.847H48.025C46.9992 146.847 46.2939 146.127 46.2939 145.086V141.378C46.2939 140.781 45.8957 140.367 45.3288 140.367H45.1758V139.172H45.3288C45.8957 139.172 46.2939 138.758 46.2939 138.161V134.606C46.2939 133.549 46.9992 132.829 48.025 132.829H49.4187V133.733H48.5301C47.8709 133.733 47.4277 134.194 47.4277 134.867V138.269C47.4277 139.096 46.8912 139.693 46.1105 139.755L45.9576 139.771L46.1105 139.786C46.8912 139.832 47.4277 140.43 47.4277 141.257V144.826C47.4277 145.499 47.8721 145.96 48.5301 145.96H49.4187V145.958Z" fill="#9678A6"/>
<path d="M50.7031 143.477C50.7031 143.033 51.0248 142.697 51.4995 142.697C51.9742 142.697 52.2959 143.034 52.2959 143.477C52.2959 143.952 51.9585 144.274 51.4995 144.274C51.0406 144.274 50.7031 143.952 50.7031 143.477Z" fill="#9678A6"/>
<path d="M53.8584 143.477C53.8584 143.033 54.1801 142.697 54.6548 142.697C55.1295 142.697 55.4512 143.034 55.4512 143.477C55.4512 143.952 55.1137 144.274 54.6548 144.274C54.1959 144.274 53.8584 143.952 53.8584 143.477Z" fill="#9678A6"/>
<path d="M57.0137 143.477C57.0137 143.033 57.3354 142.697 57.8101 142.697C58.2848 142.697 58.6065 143.034 58.6065 143.477C58.6065 143.952 58.269 144.274 57.8101 144.274C57.3511 144.274 57.0137 143.952 57.0137 143.477Z" fill="#9678A6"/>
<path d="M59.8936 146.847V145.959H60.7822C61.4413 145.959 61.8857 145.498 61.8857 144.825V141.256C61.8857 140.429 62.4065 139.831 63.2029 139.785L63.3558 139.77L63.2029 139.754C62.4065 139.692 61.8857 139.095 61.8857 138.268V134.866C61.8857 134.193 61.4413 133.733 60.7822 133.733H59.8936V132.828H61.2872C62.3131 132.828 63.0184 133.548 63.0184 134.605V138.16C63.0184 138.757 63.402 139.171 63.9835 139.171H64.1365V140.366H63.9835C63.402 140.366 63.0184 140.78 63.0184 141.377V145.085C63.0184 146.126 62.3131 146.846 61.2872 146.846H59.8936V146.847Z" fill="#9678A6"/>
<defs>
<filter id="filter0_d_24150_58772" x="10" y="9" width="96" height="96" filterUnits="userSpaceOnUse" color-interpolation-filters="sRGB">
<feFlood flood-opacity="0" result="BackgroundImageFix"/>
<feColorMatrix in="SourceAlpha" type="matrix" values="0 0 0 0 0 0 0 0 0 0 0 0 0 0 0 0 0 0 127 0" result="hardAlpha"/>
<feOffset dx="2" dy="1"/>
<feGaussianBlur stdDeviation="4"/>
<feColorMatrix type="matrix" values="0 0 0 0 0.0392157 0 0 0 0 0.0392157 0 0 0 0 0.0627451 0 0 0 0.08 0"/>
<feBlend mode="normal" in2="BackgroundImageFix" result="effect1_dropShadow_24150_58772"/>
<feBlend mode="normal" in="SourceGraphic" in2="effect1_dropShadow_24150_58772" result="shape"/>
</filter>
</defs>
</svg>
