<svg width="112" height="200" viewBox="0 0 112 200" fill="none" xmlns="http://www.w3.org/2000/svg">
<rect x="0.5" y="0.5" width="111" height="199" rx="4.5" stroke="#9747FF" stroke-dasharray="10 5"/>
<g filter="url(#filter0_d_24150_58812)">
<rect x="16" y="16" width="80" height="80" rx="8" fill="white"/>
</g>
<path d="M81.3435 58.7133C81.3435 58.1576 80.8936 57.7077 80.3379 57.7077H76.3143V37.548H76.2749L68.3109 29.5841V29.5391H39.6845C38.8015 29.5391 38.0861 30.2567 38.0861 31.1409V57.7077H34.0535C33.4978 57.7077 33.0479 58.1576 33.0479 58.7133V75.8156L38.0872 80.846V82.3982C38.0872 83.2824 38.8026 84 39.6856 84H74.717C75.6 84 76.3154 83.2824 76.3154 82.3982V80.846L81.3548 75.8156H81.3458V58.7133H81.3435ZM68.2738 35.9901V37.548H68.2648L68.2738 35.9901Z" fill="#B6D7FC"/>
<path d="M35.5408 79.3067L30.5015 74.2764H35.5408V79.3067Z" fill="#C24C2D"/>
<path d="M73.7686 79.3067L78.8079 74.2764H73.7686V79.3067Z" fill="#C24C2D"/>
<path d="M73.7688 36.0481H65.7295V28.0088L73.7688 36.0481Z" fill="#B6D7FC"/>
<path d="M65.7654 28H37.1389C36.2559 28 35.5405 28.7177 35.5405 29.6018V80.8592C35.5405 81.7433 36.2559 82.461 37.1389 82.461H72.1703C73.0533 82.461 73.7687 81.7433 73.7687 80.8592V36.009H65.7204L65.7654 28Z" fill="#F0F7FE"/>
<path d="M31.5067 56.1689H77.7923C78.3479 56.1689 78.7979 56.62 78.7979 57.1746V74.2769H30.5V57.1746C30.5 56.6189 30.9511 56.1689 31.5056 56.1689H31.5067Z" fill="#EB6F39"/>
<path d="M46.7553 66.3622V69.2474H44.7666V61.0225H47.9893C48.9657 61.0225 49.7103 61.2654 50.2221 61.7491C50.734 62.2339 50.9893 62.8875 50.9893 63.7097C50.9893 64.2216 50.8757 64.6771 50.6462 65.0764C50.4179 65.4758 50.0782 65.7907 49.6282 66.0191C49.1783 66.2474 48.6316 66.3622 47.9882 66.3622H46.7542H46.7553ZM48.9657 63.7097C48.9657 62.9876 48.5664 62.6276 47.7666 62.6276H46.7542V64.7682H47.7666C48.5664 64.7682 48.9657 64.415 48.9657 63.7097Z" fill="white"/>
<path d="M53.9567 66.3622V69.2474H51.9668V61.0225H55.1895C56.167 61.0225 56.9117 61.2654 57.4223 61.7491C57.9353 62.2339 58.1906 62.8875 58.1906 63.7097C58.1906 64.2216 58.077 64.6771 57.8464 65.0764C57.6181 65.4758 57.2784 65.7907 56.8284 66.0191C56.3785 66.2474 55.8318 66.3622 55.1884 66.3622H53.9555H53.9567ZM56.167 63.7097C56.167 62.9876 55.7677 62.6276 54.9679 62.6276H53.9555V64.7682H54.9679C55.7665 64.7682 56.167 64.415 56.167 63.7097Z" fill="white"/>
<path d="M65.0781 61.0225V62.6051H62.8441V69.2474H60.8441V62.6051H58.6338V61.0225H65.0781Z" fill="white"/>
<path d="M64.8025 49.2585H44.5067C44.2289 49.2585 44.0039 49.0335 44.0039 48.7557V39.4227C44.0039 39.1449 44.2289 38.9199 44.5067 38.9199H64.8025C65.0803 38.9199 65.3053 39.1449 65.3053 39.4227V48.7557C65.3053 49.0335 65.0803 49.2585 64.8025 49.2585ZM45.0095 48.2517H64.2985V39.9244H45.0095V48.2517Z" fill="#EB6F39"/>
<path d="M54.6542 39.925C54.3763 39.925 54.1514 39.7 54.1514 39.4222V36.2726C54.1514 35.9947 54.3763 35.7698 54.6542 35.7698C54.932 35.7698 55.157 35.9947 55.157 36.2726V39.4222C55.157 39.7 54.932 39.925 54.6542 39.925Z" fill="#EB6F39"/>
<path d="M47.6314 52.9298C47.5504 52.9298 47.4672 52.9107 47.3907 52.8679C47.1466 52.7352 47.0566 52.4292 47.1905 52.1851L49.1916 48.5136C49.3254 48.2695 49.6303 48.1795 49.8744 48.3123C50.1185 48.445 50.2085 48.751 50.0746 48.995L48.0735 52.6666C47.9824 52.8342 47.8091 52.9287 47.6314 52.9287V52.9298Z" fill="#EB6F39"/>
<path d="M61.6774 52.9299C61.4996 52.9299 61.3264 52.8354 61.2353 52.6678L59.2342 48.9962C59.1003 48.7521 59.1914 48.4473 59.4344 48.3135C59.6785 48.1807 59.9833 48.2696 60.1172 48.5148L62.1183 52.1863C62.2522 52.4304 62.1611 52.7353 61.9181 52.8691C61.8416 52.9107 61.7595 52.931 61.6774 52.931V52.9299Z" fill="#EB6F39"/>
<path d="M81.3435 154.713C81.3435 154.158 80.8936 153.708 80.3379 153.708H76.3143V133.548H76.2749L68.3109 125.584V125.539H39.6845C38.8015 125.539 38.0861 126.257 38.0861 127.141V153.708H34.0535C33.4978 153.708 33.0479 154.158 33.0479 154.713V171.816L38.0872 176.846V178.398C38.0872 179.282 38.8026 180 39.6856 180H74.717C75.6 180 76.3154 179.282 76.3154 178.398V176.846L81.3548 171.816H81.3458V154.713H81.3435ZM68.2738 131.99V133.548H68.2648L68.2738 131.99Z" fill="#B6D7FC"/>
<path d="M35.5408 175.307L30.5015 170.276H35.5408V175.307Z" fill="#C24C2D"/>
<path d="M73.7686 175.307L78.8079 170.276H73.7686V175.307Z" fill="#C24C2D"/>
<path d="M73.7688 132.048H65.7295V124.009L73.7688 132.048Z" fill="#B6D7FC"/>
<path d="M65.7654 124H37.1389C36.2559 124 35.5405 124.718 35.5405 125.602V176.859C35.5405 177.743 36.2559 178.461 37.1389 178.461H72.1703C73.0533 178.461 73.7687 177.743 73.7687 176.859V132.009H65.7204L65.7654 124Z" fill="#F0F7FE"/>
<path d="M31.5067 152.169H77.7923C78.3479 152.169 78.7979 152.62 78.7979 153.175V170.277H30.5V153.175C30.5 152.619 30.9511 152.169 31.5056 152.169H31.5067Z" fill="#EB6F39"/>
<path d="M46.7553 162.362V165.247H44.7666V157.022H47.9893C48.9657 157.022 49.7103 157.265 50.2221 157.749C50.734 158.234 50.9893 158.887 50.9893 159.71C50.9893 160.222 50.8757 160.677 50.6462 161.076C50.4179 161.476 50.0782 161.791 49.6282 162.019C49.1783 162.247 48.6316 162.362 47.9882 162.362H46.7542H46.7553ZM48.9657 159.71C48.9657 158.988 48.5664 158.628 47.7666 158.628H46.7542V160.768H47.7666C48.5664 160.768 48.9657 160.415 48.9657 159.71Z" fill="white"/>
<path d="M53.9567 162.362V165.247H51.9668V157.022H55.1895C56.167 157.022 56.9117 157.265 57.4223 157.749C57.9353 158.234 58.1906 158.887 58.1906 159.71C58.1906 160.222 58.077 160.677 57.8464 161.076C57.6181 161.476 57.2784 161.791 56.8284 162.019C56.3785 162.247 55.8318 162.362 55.1884 162.362H53.9555H53.9567ZM56.167 159.71C56.167 158.988 55.7677 158.628 54.9679 158.628H53.9555V160.768H54.9679C55.7665 160.768 56.167 160.415 56.167 159.71Z" fill="white"/>
<path d="M65.0781 157.022V158.605H62.8441V165.247H60.8441V158.605H58.6338V157.022H65.0781Z" fill="white"/>
<path d="M64.8025 145.258H44.5067C44.2289 145.258 44.0039 145.033 44.0039 144.756V135.423C44.0039 135.145 44.2289 134.92 44.5067 134.92H64.8025C65.0803 134.92 65.3053 135.145 65.3053 135.423V144.756C65.3053 145.033 65.0803 145.258 64.8025 145.258ZM45.0095 144.252H64.2985V135.924H45.0095V144.252Z" fill="#EB6F39"/>
<path d="M54.6542 135.925C54.3763 135.925 54.1514 135.7 54.1514 135.422V132.273C54.1514 131.995 54.3763 131.77 54.6542 131.77C54.932 131.77 55.157 131.995 55.157 132.273V135.422C55.157 135.7 54.932 135.925 54.6542 135.925Z" fill="#EB6F39"/>
<path d="M47.6314 148.93C47.5504 148.93 47.4672 148.911 47.3907 148.868C47.1466 148.735 47.0566 148.429 47.1905 148.185L49.1916 144.514C49.3254 144.27 49.6303 144.18 49.8744 144.312C50.1185 144.445 50.2085 144.751 50.0746 144.995L48.0735 148.667C47.9824 148.834 47.8091 148.929 47.6314 148.929V148.93Z" fill="#EB6F39"/>
<path d="M61.6774 148.93C61.4996 148.93 61.3264 148.835 61.2353 148.668L59.2342 144.996C59.1003 144.752 59.1914 144.447 59.4344 144.313C59.6785 144.181 59.9833 144.27 60.1172 144.515L62.1183 148.186C62.2522 148.43 62.1611 148.735 61.9181 148.869C61.8416 148.911 61.7595 148.931 61.6774 148.931V148.93Z" fill="#EB6F39"/>
<defs>
<filter id="filter0_d_24150_58812" x="10" y="9" width="96" height="96" filterUnits="userSpaceOnUse" color-interpolation-filters="sRGB">
<feFlood flood-opacity="0" result="BackgroundImageFix"/>
<feColorMatrix in="SourceAlpha" type="matrix" values="0 0 0 0 0 0 0 0 0 0 0 0 0 0 0 0 0 0 127 0" result="hardAlpha"/>
<feOffset dx="2" dy="1"/>
<feGaussianBlur stdDeviation="4"/>
<feColorMatrix type="matrix" values="0 0 0 0 0.0392157 0 0 0 0 0.0392157 0 0 0 0 0.0627451 0 0 0 0.08 0"/>
<feBlend mode="normal" in2="BackgroundImageFix" result="effect1_dropShadow_24150_58812"/>
<feBlend mode="normal" in="SourceGraphic" in2="effect1_dropShadow_24150_58812" result="shape"/>
</filter>
</defs>
</svg>
