<svg width="112" height="200" viewBox="0 0 112 200" fill="none" xmlns="http://www.w3.org/2000/svg">
<rect x="0.5" y="0.5" width="111" height="199" rx="4.5" stroke="#9747FF" stroke-dasharray="10 5"/>
<g filter="url(#filter0_d_24150_58356)">
<rect x="16" y="16" width="80" height="80" rx="8" fill="white"/>
</g>
<path d="M81.3423 58.7133C81.3423 58.1576 80.8924 57.7077 80.3367 57.7077H76.3131V37.548H76.2737L68.3098 29.5841V29.5391H39.6833C38.8003 29.5391 38.0849 30.2567 38.0849 31.1409V57.7077H34.0501C33.4944 57.7077 33.0444 58.1576 33.0444 58.7133V75.8156L38.0838 80.846V82.3982C38.0838 83.2824 38.7992 84 39.6822 84H74.7136C75.5966 84 76.312 83.2824 76.312 82.3982V80.846L81.3513 75.8156H81.3423V58.7133ZM68.2726 35.9901V37.548H68.2636L68.2726 35.9901Z" fill="#B6D7FC"/>
<path d="M73.7676 79.3067L78.8069 74.2764H73.7676V79.3067Z" fill="#536363"/>
<path d="M73.7674 36.0481H65.728V28.0088L73.7674 36.0481Z" fill="#B6D7FC"/>
<path d="M65.7639 28H37.1375C36.2545 28 35.5391 28.7177 35.5391 29.6018V80.8592C35.5391 81.7433 36.2545 82.461 37.1375 82.461H72.1688C73.0518 82.461 73.7673 81.7433 73.7673 80.8592V36.009H65.7189L65.7639 28Z" fill="#F0F7FE"/>
<path d="M31.5056 56.1689H77.7912C78.3468 56.1689 78.7968 56.62 78.7968 57.1746V74.2769H30.5V57.1746C30.5 56.6189 30.9511 56.1689 31.5056 56.1689Z" fill="#95A4A4"/>
<path d="M50.4414 61.0225V62.6051H48.2085V69.2474H46.2074V62.6051H43.9971V61.0225H50.4414Z" fill="white"/>
<path d="M56.2705 69.2463L54.5371 66.6872L53.0477 69.2463H50.7677L53.3964 65.0123L50.6855 61.0225H53.0477L54.735 63.5005L56.1895 61.0225H58.4583L55.8644 65.1642L58.6326 69.2474H56.2716L56.2705 69.2463Z" fill="white"/>
<path d="M65.3086 61.0225V62.6051H63.0757V69.2474H61.0746V62.6051H58.8643V61.0225H65.3086Z" fill="white"/>
<path d="M59.7776 36.5515H45.9149C45.6371 36.5515 45.4121 36.3265 45.4121 36.0487C45.4121 35.7709 45.6371 35.5459 45.9149 35.5459H59.7776C60.0555 35.5459 60.2804 35.7709 60.2804 36.0487C60.2804 36.3265 60.0555 36.5515 59.7776 36.5515Z" fill="#95A4A4"/>
<path d="M69.1818 43.1978H57.5463C57.2684 43.1978 57.0435 42.9728 57.0435 42.695C57.0435 42.4171 57.2684 42.1921 57.5463 42.1921H69.1818C69.4596 42.1921 69.6846 42.4171 69.6846 42.695C69.6846 42.9728 69.4596 43.1978 69.1818 43.1978Z" fill="#95A4A4"/>
<path d="M53.8938 43.1978H40.5575C40.2797 43.1978 40.0547 42.9728 40.0547 42.695C40.0547 42.4171 40.2797 42.1921 40.5575 42.1921H53.8938C54.1716 42.1921 54.3966 42.4171 54.3966 42.695C54.3966 42.9728 54.1716 43.1978 53.8938 43.1978Z" fill="#95A4A4"/>
<path d="M69.1814 49.8447H65.4232C65.1454 49.8447 64.9204 49.6198 64.9204 49.3419C64.9204 49.0641 65.1454 48.8391 65.4232 48.8391H69.1814C69.4592 48.8391 69.6842 49.0641 69.6842 49.3419C69.6842 49.6198 69.4592 49.8447 69.1814 49.8447Z" fill="#95A4A4"/>
<path d="M62.1717 49.8447H48.0424C47.7645 49.8447 47.5396 49.6198 47.5396 49.3419C47.5396 49.0641 47.7645 48.8391 48.0424 48.8391H62.1717C62.4495 48.8391 62.6745 49.0641 62.6745 49.3419C62.6745 49.6198 62.4495 49.8447 62.1717 49.8447Z" fill="#95A4A4"/>
<path d="M81.3423 154.713C81.3423 154.158 80.8924 153.708 80.3367 153.708H76.3131V133.548H76.2737L68.3098 125.584V125.539H39.6833C38.8003 125.539 38.0849 126.257 38.0849 127.141V153.708H34.0501C33.4944 153.708 33.0444 154.158 33.0444 154.713V171.816L38.0838 176.846V178.398C38.0838 179.282 38.7992 180 39.6822 180H74.7136C75.5966 180 76.312 179.282 76.312 178.398V176.846L81.3513 171.816H81.3423V154.713ZM68.2726 131.99V133.548H68.2636L68.2726 131.99Z" fill="#B6D7FC"/>
<path d="M73.7676 175.307L78.8069 170.276H73.7676V175.307Z" fill="#536363"/>
<path d="M73.7674 132.048H65.728V124.009L73.7674 132.048Z" fill="#B6D7FC"/>
<path d="M65.7639 124H37.1375C36.2545 124 35.5391 124.718 35.5391 125.602V176.859C35.5391 177.743 36.2545 178.461 37.1375 178.461H72.1688C73.0518 178.461 73.7673 177.743 73.7673 176.859V132.009H65.7189L65.7639 124Z" fill="#F0F7FE"/>
<path d="M31.5056 152.169H77.7912C78.3468 152.169 78.7968 152.62 78.7968 153.175V170.277H30.5V153.175C30.5 152.619 30.9511 152.169 31.5056 152.169Z" fill="#95A4A4"/>
<path d="M50.4414 157.022V158.605H48.2085V165.247H46.2074V158.605H43.9971V157.022H50.4414Z" fill="white"/>
<path d="M56.2705 165.246L54.5371 162.687L53.0477 165.246H50.7677L53.3964 161.012L50.6855 157.022H53.0477L54.735 159.501L56.1895 157.022H58.4583L55.8644 161.164L58.6326 165.247H56.2716L56.2705 165.246Z" fill="white"/>
<path d="M65.3086 157.022V158.605H63.0757V165.247H61.0746V158.605H58.8643V157.022H65.3086Z" fill="white"/>
<path d="M59.7776 132.552H45.9149C45.6371 132.552 45.4121 132.327 45.4121 132.049C45.4121 131.771 45.6371 131.546 45.9149 131.546H59.7776C60.0555 131.546 60.2804 131.771 60.2804 132.049C60.2804 132.327 60.0555 132.552 59.7776 132.552Z" fill="#95A4A4"/>
<path d="M69.1818 139.198H57.5463C57.2684 139.198 57.0435 138.973 57.0435 138.695C57.0435 138.417 57.2684 138.192 57.5463 138.192H69.1818C69.4596 138.192 69.6846 138.417 69.6846 138.695C69.6846 138.973 69.4596 139.198 69.1818 139.198Z" fill="#95A4A4"/>
<path d="M53.8938 139.198H40.5575C40.2797 139.198 40.0547 138.973 40.0547 138.695C40.0547 138.417 40.2797 138.192 40.5575 138.192H53.8938C54.1716 138.192 54.3966 138.417 54.3966 138.695C54.3966 138.973 54.1716 139.198 53.8938 139.198Z" fill="#95A4A4"/>
<path d="M69.1814 145.845H65.4232C65.1454 145.845 64.9204 145.62 64.9204 145.342C64.9204 145.064 65.1454 144.839 65.4232 144.839H69.1814C69.4592 144.839 69.6842 145.064 69.6842 145.342C69.6842 145.62 69.4592 145.845 69.1814 145.845Z" fill="#95A4A4"/>
<path d="M62.1717 145.845H48.0424C47.7645 145.845 47.5396 145.62 47.5396 145.342C47.5396 145.064 47.7645 144.839 48.0424 144.839H62.1717C62.4495 144.839 62.6745 145.064 62.6745 145.342C62.6745 145.62 62.4495 145.845 62.1717 145.845Z" fill="#95A4A4"/>
<defs>
<filter id="filter0_d_24150_58356" x="10" y="9" width="96" height="96" filterUnits="userSpaceOnUse" color-interpolation-filters="sRGB">
<feFlood flood-opacity="0" result="BackgroundImageFix"/>
<feColorMatrix in="SourceAlpha" type="matrix" values="0 0 0 0 0 0 0 0 0 0 0 0 0 0 0 0 0 0 127 0" result="hardAlpha"/>
<feOffset dx="2" dy="1"/>
<feGaussianBlur stdDeviation="4"/>
<feColorMatrix type="matrix" values="0 0 0 0 0.0392157 0 0 0 0 0.0392157 0 0 0 0 0.0627451 0 0 0 0.08 0"/>
<feBlend mode="normal" in2="BackgroundImageFix" result="effect1_dropShadow_24150_58356"/>
<feBlend mode="normal" in="SourceGraphic" in2="effect1_dropShadow_24150_58356" result="shape"/>
</filter>
</defs>
</svg>
