<svg width="112" height="200" viewBox="0 0 112 200" fill="none" xmlns="http://www.w3.org/2000/svg">
<rect x="0.5" y="0.5" width="111" height="199" rx="4.5" stroke="#9747FF" stroke-dasharray="10 5"/>
<g filter="url(#filter0_d_24150_58390)">
<rect x="16" y="16" width="80" height="80" rx="8" fill="white"/>
</g>
<path d="M81.3417 58.7144C81.3417 58.1587 80.8917 57.7088 80.3361 57.7088H76.3125V37.5494H76.2731L68.3093 29.5855V29.5405H39.6832C38.8002 29.5405 38.0848 30.2582 38.0848 31.1423V57.7088H34.05C33.4944 57.7088 33.0444 58.1587 33.0444 58.7144V75.8164L38.0837 80.8467V82.399C38.0837 83.2831 38.7991 84.0008 39.6821 84.0008H74.713C75.596 84.0008 76.3114 83.2831 76.3114 82.399V80.8467L81.3507 75.8164H81.3417V58.7144ZM68.2722 35.9904V37.5483H68.2632L68.2722 35.9904Z" fill="#B6D7FC"/>
<path d="M73.7671 79.3045L78.8064 74.2754H73.7671V79.3045Z" fill="#BB6D0F"/>
<path d="M73.7673 36.0488H65.728V28.0095L73.7673 36.0488Z" fill="#B6D7FC"/>
<path d="M65.7635 28.0007H37.1375C36.2545 28.0007 35.5391 28.7184 35.5391 29.6025V80.8592C35.5391 81.7433 36.2545 82.461 37.1375 82.461H72.1683C73.0513 82.461 73.7667 81.7433 73.7667 80.8592V36.0096H65.7185L65.7635 28.0007Z" fill="#F0F7FE"/>
<path d="M31.5056 56.167H77.7905C78.3462 56.167 78.7961 56.618 78.7961 57.1726V74.2747H30.5V57.1726C30.5 56.6169 30.9511 56.167 31.5056 56.167Z" fill="#EF9B33"/>
<path d="M48.18 69.2454L46.4467 66.6864L44.9574 69.2454H42.6773L45.3061 65.0115L42.5952 61.0217H44.9574L46.6446 63.4998L48.0991 61.0217H50.3679L47.774 65.1634L50.5422 69.2466H48.1812L48.18 69.2454Z" fill="white"/>
<path d="M60.5565 61.0791V69.2454H58.5678V64.1387L56.7996 69.2454H55.0774L53.2979 64.1274V69.2454H51.3081V61.0791H53.74L55.9616 66.7674L58.137 61.0791H60.5565Z" fill="white"/>
<path d="M63.9189 67.7212H66.5713V69.2453H61.9302V61.0205H63.92V67.7212H63.9189Z" fill="white"/>
<path d="M50.3285 47.9755V49.0936L44.6289 45.8001V44.6662L50.3285 41.3569V42.4908L45.5175 45.2331L50.3285 47.9755Z" fill="#EF9B33"/>
<path d="M57.541 38.2939L52.9303 52.6177H51.7661L56.3768 38.2939H57.541Z" fill="#EF9B33"/>
<path d="M64.6781 45.8013L58.9785 49.0948V47.9767L63.7737 45.2343L58.9785 42.492V41.3582L64.6781 44.6674V45.8013Z" fill="#EF9B33"/>
<path d="M81.3417 154.714C81.3417 154.159 80.8917 153.709 80.3361 153.709H76.3125V133.549H76.2731L68.3093 125.586V125.541H39.6832C38.8002 125.541 38.0848 126.258 38.0848 127.142V153.709H34.05C33.4944 153.709 33.0444 154.159 33.0444 154.714V171.816L38.0837 176.847V178.399C38.0837 179.283 38.7991 180.001 39.6821 180.001H74.713C75.596 180.001 76.3114 179.283 76.3114 178.399V176.847L81.3507 171.816H81.3417V154.714ZM68.2722 131.99V133.548H68.2632L68.2722 131.99Z" fill="#B6D7FC"/>
<path d="M73.7671 175.305L78.8064 170.275H73.7671V175.305Z" fill="#BB6D0F"/>
<path d="M73.7673 132.049H65.728V124.01L73.7673 132.049Z" fill="#B6D7FC"/>
<path d="M65.7635 124.001H37.1375C36.2545 124.001 35.5391 124.718 35.5391 125.603V176.859C35.5391 177.743 36.2545 178.461 37.1375 178.461H72.1683C73.0513 178.461 73.7667 177.743 73.7667 176.859V132.01H65.7185L65.7635 124.001Z" fill="#F0F7FE"/>
<path d="M31.5056 152.167H77.7905C78.3462 152.167 78.7961 152.618 78.7961 153.173V170.275H30.5V153.173C30.5 152.617 30.9511 152.167 31.5056 152.167Z" fill="#EF9B33"/>
<path d="M48.18 165.245L46.4467 162.686L44.9574 165.245H42.6773L45.3061 161.012L42.5952 157.022H44.9574L46.6446 159.5L48.0991 157.022H50.3679L47.774 161.163L50.5422 165.247H48.1812L48.18 165.245Z" fill="white"/>
<path d="M60.5565 157.079V165.245H58.5678V160.139L56.7996 165.245H55.0774L53.2979 160.127V165.245H51.3081V157.079H53.74L55.9616 162.767L58.137 157.079H60.5565Z" fill="white"/>
<path d="M63.9189 163.721H66.5713V165.245H61.9302V157.021H63.92V163.721H63.9189Z" fill="white"/>
<path d="M50.3285 143.975V145.094L44.6289 141.8V140.666L50.3285 137.357V138.491L45.5175 141.233L50.3285 143.975Z" fill="#EF9B33"/>
<path d="M57.541 134.294L52.9303 148.618H51.7661L56.3768 134.294H57.541Z" fill="#EF9B33"/>
<path d="M64.6781 141.801L58.9785 145.095V143.977L63.7737 141.234L58.9785 138.492V137.358L64.6781 140.667V141.801Z" fill="#EF9B33"/>
<defs>
<filter id="filter0_d_24150_58390" x="10" y="9" width="96" height="96" filterUnits="userSpaceOnUse" color-interpolation-filters="sRGB">
<feFlood flood-opacity="0" result="BackgroundImageFix"/>
<feColorMatrix in="SourceAlpha" type="matrix" values="0 0 0 0 0 0 0 0 0 0 0 0 0 0 0 0 0 0 127 0" result="hardAlpha"/>
<feOffset dx="2" dy="1"/>
<feGaussianBlur stdDeviation="4"/>
<feColorMatrix type="matrix" values="0 0 0 0 0.0392157 0 0 0 0 0.0392157 0 0 0 0 0.0627451 0 0 0 0.08 0"/>
<feBlend mode="normal" in2="BackgroundImageFix" result="effect1_dropShadow_24150_58390"/>
<feBlend mode="normal" in="SourceGraphic" in2="effect1_dropShadow_24150_58390" result="shape"/>
</filter>
</defs>
</svg>
