<svg width="24" height="24" viewBox="0 0 24 24" fill="none" xmlns="http://www.w3.org/2000/svg">
<path fill-rule="evenodd" clip-rule="evenodd" d="M17.0482 15.4579L17.7206 16.4666C17.8607 16.6759 18.0959 16.802 18.3477 16.802H19.6472C20.0632 16.802 20.4009 16.4651 20.4009 16.0483C20.4009 15.6315 20.0632 15.2946 19.6472 15.2946H18.751L17.6753 13.6807C17.532 13.4655 17.2861 13.363 17.0482 13.363C16.8103 13.363 16.5645 13.4656 16.4211 13.6808L15.3455 15.2946H13.7995C13.3835 15.2946 13.0458 15.6315 13.0458 16.0483C13.0458 16.4651 13.3835 16.802 13.7995 16.802H15.7487C16.0005 16.802 16.2357 16.6759 16.3758 16.4666L17.0482 15.4579Z" fill="black"/>
<path fill-rule="evenodd" clip-rule="evenodd" d="M5.35271 10.3045H10.5507C10.9667 10.3045 11.3044 9.96754 11.3044 9.55074C11.3044 9.13395 10.9667 8.79703 10.5507 8.79703H5.35271C4.9367 8.79703 4.599 9.13395 4.599 9.55074C4.599 9.96754 4.9367 10.3045 5.35271 10.3045Z" fill="black"/>
<path fill-rule="evenodd" clip-rule="evenodd" d="M13.9034 12.1498C13.9034 11.733 13.5657 11.396 13.1497 11.396H5.35271C4.9367 11.396 4.599 11.733 4.599 12.1498C4.599 12.5665 4.9367 12.9035 5.35271 12.9035H13.1497C13.5657 12.9035 13.9034 12.5665 13.9034 12.1498Z" fill="black"/>
<path fill-rule="evenodd" clip-rule="evenodd" d="M22.2462 6.19802H20.4009V3.05322C20.4009 1.92111 19.4798 1 18.3477 1C17.2156 1 16.2945 1.92111 16.2945 3.05322V6.19802H4.05321C2.92111 6.19802 2 7.11913 2 8.25124V19.9468C2 21.0789 2.92111 22 4.05321 22H17.0482C17.4642 22 17.8019 21.6631 17.8019 21.2463V19.401H22.2462C22.6622 19.401 22.9999 19.0641 22.9999 18.6473V6.95173C22.9999 6.53494 22.6622 6.19802 22.2462 6.19802ZM18.8935 5.10644V10.5382L18.3477 11.084L17.8019 10.5382V5.10644H18.8935ZM18.3477 2.50743C18.6484 2.50743 18.8935 2.75204 18.8935 3.05322V3.59901H17.8019V3.05322C17.8019 2.75204 18.0471 2.50743 18.3477 2.50743ZM21.4925 17.8936H4.05321C3.86222 17.8936 3.67994 17.9243 3.50742 17.9742V8.25124C3.50742 7.95006 3.75255 7.70545 4.05321 7.70545H16.2945V10.8502C16.2945 11.0505 16.3736 11.2422 16.5155 11.3833L17.8148 12.6826C17.9618 12.8296 18.1549 12.9035 18.3477 12.9035C18.5406 12.9035 18.7337 12.8296 18.8806 12.6826L20.1801 11.3831C20.3217 11.2415 20.4009 11.0507 20.4009 10.8502V7.70545H21.4925V17.8936ZM3.50742 19.9468C3.50742 19.6456 3.75255 19.401 4.05321 19.401H16.2945V20.4926H4.05321C3.75255 20.4926 3.50742 20.248 3.50742 19.9468Z" fill="black"/>
</svg>
