<svg width="24" height="24" viewBox="0 0 24 24" fill="none" xmlns="http://www.w3.org/2000/svg">
<path d="M16.5 1.25C15.6719 1.25 15 1.92157 15 2.75V3.25H18V2.75C18 1.92157 17.3281 1.25 16.5 1.25Z" fill="black"/>
<path d="M15 4.75V10.2382L15.0029 10.2952C15.0059 10.3196 15.0107 10.3438 15.0176 10.3674L15.0254 10.3919L15.0371 10.4249C15.0479 10.4514 15.0605 10.4769 15.0752 10.5012C15.0869 10.5198 15.0996 10.5377 15.1133 10.5548L16.1133 11.777C16.3135 12.0215 16.6865 12.0215 16.8867 11.777L17.8867 10.5548C17.96 10.4655 18 10.3536 18 10.2382V4.75H15Z" fill="black"/>
<path d="M3.5 21.75C3.5 21.1977 3.94727 20.75 4.5 20.75H15.5V22.75H4.5C3.94727 22.75 3.5 22.3023 3.5 21.75Z" fill="black"/>
<path fill-rule="evenodd" clip-rule="evenodd" d="M13.75 7.25H2.5C2.22363 7.25 2 7.47388 2 7.75V20.75C2 19.9216 2.67188 19.25 3.5 19.25H21.5C21.7764 19.25 22 19.0262 22 18.75V7.75C22 7.47388 21.7764 7.25 21.5 7.25H19.25V11.1902C19.25 11.3329 19.1914 11.4692 19.0869 11.567L16.8545 13.6667C16.7285 13.7848 16.5596 13.8284 16.4004 13.7977C16.3076 13.7796 16.2188 13.736 16.1455 13.6667L13.9131 11.567C13.8086 11.4692 13.75 11.3329 13.75 11.1902V7.25ZM4.75 8.75C4.33594 8.75 4 9.08582 4 9.5C4 9.91418 4.33594 10.25 4.75 10.25H9.25C9.66406 10.25 10 9.91418 10 9.5C10 9.08582 9.66406 8.75 9.25 8.75H4.75ZM16.7998 16.4L16 15.3333C15.5 14.6667 14.5 14.6667 14 15.3333L13.2002 16.4C13.1523 16.463 13.0791 16.5 13 16.5H12C11.5859 16.5 11.25 16.8358 11.25 17.25C11.25 17.6642 11.5859 18 12 18H13C13.5508 18 14.0693 17.7407 14.4004 17.3L15 16.5L15.5996 17.3C15.9307 17.7407 16.4492 18 17 18H18C18.4141 18 18.75 17.6642 18.75 17.25C18.75 16.8358 18.4141 16.5 18 16.5H17C16.9209 16.5 16.8477 16.463 16.7998 16.4ZM4.75 11.75C4.33594 11.75 4 12.0858 4 12.5C4 12.9142 4.33594 13.25 4.75 13.25H11.25C11.6641 13.25 12 12.9142 12 12.5C12 12.0858 11.6641 11.75 11.25 11.75H4.75Z" fill="black"/>
</svg>
