<svg width="24" height="24" viewBox="0 0 24 24" fill="none" xmlns="http://www.w3.org/2000/svg">
<path d="M6 4.75C5.40326 4.75 4.83097 4.98705 4.40901 5.40901C3.98705 5.83097 3.75 6.40326 3.75 7V14C3.75 14.5967 3.98705 15.169 4.40901 15.591C4.83097 16.0129 5.40326 16.25 6 16.25H8C8.41421 16.25 8.75 16.5858 8.75 17V18.5986L12.084 16.376C12.4286 16.1462 12.8943 16.2393 13.124 16.584C13.3538 16.9286 13.2607 17.3943 12.916 17.624L8.41603 20.624C8.18588 20.7775 7.88997 20.7918 7.64611 20.6613C7.40224 20.5307 7.25 20.2766 7.25 20V17.75H6C5.00544 17.75 4.05161 17.3549 3.34835 16.6517C2.64509 15.9484 2.25 14.9946 2.25 14V7C2.25 6.00544 2.64509 5.05161 3.34835 4.34835C4.05161 3.64509 5.00544 3.25 6 3.25H18C18.9946 3.25 19.9484 3.64509 20.6517 4.34835C21.3549 5.05161 21.75 6.00544 21.75 7V7.75C21.75 8.16421 21.4142 8.5 21 8.5C20.5858 8.5 20.25 8.16421 20.25 7.75V7C20.25 6.40326 20.0129 5.83097 19.591 5.40901C19.169 4.98705 18.5967 4.75 18 4.75H6Z" fill="black"/>
<path d="M6.5 7.25C6.08579 7.25 5.75 7.58579 5.75 8C5.75 8.41421 6.08579 8.75 6.5 8.75H14C14.4142 8.75 14.75 8.41421 14.75 8C14.75 7.58579 14.4142 7.25 14 7.25H6.5Z" fill="black"/>
<path d="M6.5 11.25C6.08579 11.25 5.75 11.5858 5.75 12C5.75 12.4142 6.08579 12.75 6.5 12.75H10.5C10.9142 12.75 11.25 12.4142 11.25 12C11.25 11.5858 10.9142 11.25 10.5 11.25H6.5Z" fill="black"/>
<path d="M20.0034 13C19.8349 13 19.6797 12.9024 19.6043 12.7517L19.1564 11.847L18.2518 11.3991C18.101 11.3237 18.0034 11.1685 18.0034 11C18.0034 10.8315 18.101 10.6763 18.2518 10.6009L19.1564 10.153L19.6043 9.24834C19.6797 9.09756 19.8349 9 20.0034 9C20.1719 9 20.3271 9.09756 20.4025 9.24834L20.8504 10.153L21.7551 10.6009C21.9059 10.6763 22.0034 10.8315 22.0034 11C22.0034 11.1685 21.9059 11.3237 21.7551 11.3991L20.8504 11.847L20.4025 12.7517C20.3271 12.9024 20.1719 13 20.0034 13Z" fill="black"/>
<path d="M19.6043 19.7517C19.6797 19.9024 19.8349 20 20.0034 20C20.1719 20 20.3271 19.9024 20.4025 19.7517L20.8504 18.847L21.7551 18.3991C21.9059 18.3237 22.0034 18.1685 22.0034 18C22.0034 17.8315 21.9059 17.6763 21.7551 17.6009L20.8504 17.153L20.4025 16.2483C20.3271 16.0976 20.1719 16 20.0034 16C19.8349 16 19.6797 16.0976 19.6043 16.2483L19.1564 17.153L18.2518 17.6009C18.101 17.6763 18.0034 17.8315 18.0034 18C18.0034 18.1685 18.101 18.3237 18.2518 18.3991L19.1564 18.847L19.6043 19.7517Z" fill="black"/>
<path fill-rule="evenodd" clip-rule="evenodd" d="M15.4 18.1267C15.5133 18.3533 15.7467 18.5 16 18.5C16.2533 18.5 16.4867 18.3533 16.6 18.1267L17.6 16.1L19.6267 15.1C19.8533 14.9867 20 14.7533 20 14.5C20 14.2467 19.8533 14.0133 19.6267 13.9L17.6 12.9L16.6 10.8733C16.4867 10.6467 16.2533 10.5 16 10.5C15.7467 10.5 15.5133 10.6467 15.4 10.8733L14.4 12.9L12.3733 13.9C12.1467 14.0133 12 14.2467 12 14.5C12 14.7533 12.1467 14.9867 12.3733 15.1L14.4 16.1L15.4 18.1267Z" fill="black"/>
</svg>
