<svg width="24" height="24" viewBox="0 0 24 24" fill="none" xmlns="http://www.w3.org/2000/svg">
<path d="M4.75 4.5C2.96403 4.5 1.5 5.96403 1.5 7.75V16.25C1.5 18.036 2.96403 19.5 4.75 19.5H19.25C21.036 19.5 22.5 18.036 22.5 16.25V7.75C22.5 5.96403 21.036 4.5 19.25 4.5H4.75ZM4.75 6H19.25C20.225 6 21 6.77497 21 7.75V16.25C21 17.225 20.225 18 19.25 18H4.75C3.77497 18 3 17.225 3 16.25V7.75C3 6.77497 3.77497 6 4.75 6ZM5.5 8.5C4.9475 8.5 4.5 8.9475 4.5 9.5V10.3574C4.5 10.9099 4.9475 11.3574 5.5 11.3574H7.5C8.0525 11.3574 8.5 10.9099 8.5 10.3574V9.5C8.5 8.9475 8.0525 8.5 7.5 8.5H5.5ZM12.25 8.5C12.1506 8.49859 12.0519 8.51696 11.9597 8.55402C11.8675 8.59108 11.7836 8.6461 11.7128 8.71588C11.642 8.78566 11.5858 8.86882 11.5474 8.96051C11.5091 9.0522 11.4893 9.15061 11.4893 9.25C11.4893 9.34939 11.5091 9.4478 11.5474 9.53949C11.5858 9.63118 11.642 9.71434 11.7128 9.78412C11.7836 9.8539 11.8675 9.90892 11.9597 9.94598C12.0519 9.98304 12.1506 10.0014 12.25 10H18.75C18.8494 10.0014 18.9481 9.98304 19.0403 9.94598C19.1325 9.90892 19.2164 9.8539 19.2872 9.78412C19.358 9.71434 19.4142 9.63118 19.4526 9.53949C19.4909 9.4478 19.5107 9.34939 19.5107 9.25C19.5107 9.15061 19.4909 9.0522 19.4526 8.96051C19.4142 8.86882 19.358 8.78566 19.2872 8.71588C19.2164 8.6461 19.1325 8.59108 19.0403 8.55402C18.9481 8.51696 18.8494 8.49859 18.75 8.5H12.25ZM5.25 14C5.15062 13.9986 5.05194 14.017 4.95972 14.054C4.86749 14.0911 4.78355 14.1461 4.71277 14.2159C4.642 14.2857 4.58579 14.3688 4.54743 14.4605C4.50907 14.5522 4.48932 14.6506 4.48932 14.75C4.48932 14.8494 4.50907 14.9478 4.54743 15.0395C4.58579 15.1312 4.642 15.2143 4.71277 15.2841C4.78355 15.3539 4.86749 15.4089 4.95972 15.446C5.05194 15.483 5.15062 15.5014 5.25 15.5H6.75C6.84938 15.5014 6.94806 15.483 7.04028 15.446C7.13251 15.4089 7.21645 15.3539 7.28723 15.2841C7.358 15.2143 7.41421 15.1312 7.45257 15.0395C7.49093 14.9478 7.51068 14.8494 7.51068 14.75C7.51068 14.6506 7.49093 14.5522 7.45257 14.4605C7.41421 14.3688 7.358 14.2857 7.28723 14.2159C7.21645 14.1461 7.13251 14.0911 7.04028 14.054C6.94806 14.017 6.84938 13.9986 6.75 14H5.25ZM9.25 14C9.15062 13.9986 9.05194 14.017 8.95972 14.054C8.86749 14.0911 8.78355 14.1461 8.71277 14.2159C8.642 14.2857 8.58579 14.3688 8.54743 14.4605C8.50907 14.5522 8.48932 14.6506 8.48932 14.75C8.48932 14.8494 8.50907 14.9478 8.54743 15.0395C8.58579 15.1312 8.642 15.2143 8.71277 15.2841C8.78355 15.3539 8.86749 15.4089 8.95972 15.446C9.05194 15.483 9.15062 15.5014 9.25 15.5H10.75C10.8494 15.5014 10.9481 15.483 11.0403 15.446C11.1325 15.4089 11.2164 15.3539 11.2872 15.2841C11.358 15.2143 11.4142 15.1312 11.4526 15.0395C11.4909 14.9478 11.5107 14.8494 11.5107 14.75C11.5107 14.6506 11.4909 14.5522 11.4526 14.4605C11.4142 14.3688 11.358 14.2857 11.2872 14.2159C11.2164 14.1461 11.1325 14.0911 11.0403 14.054C10.9481 14.017 10.8494 13.9986 10.75 14H9.25ZM13.25 14C13.1506 13.9986 13.0519 14.017 12.9597 14.054C12.8675 14.0911 12.7836 14.1461 12.7128 14.2159C12.642 14.2857 12.5858 14.3688 12.5474 14.4605C12.5091 14.5522 12.4893 14.6506 12.4893 14.75C12.4893 14.8494 12.5091 14.9478 12.5474 15.0395C12.5858 15.1312 12.642 15.2143 12.7128 15.2841C12.7836 15.3539 12.8675 15.4089 12.9597 15.446C13.0519 15.483 13.1506 15.5014 13.25 15.5H14.75C14.8494 15.5014 14.9481 15.483 15.0403 15.446C15.1325 15.4089 15.2164 15.3539 15.2872 15.2841C15.358 15.2143 15.4142 15.1312 15.4526 15.0395C15.4909 14.9478 15.5107 14.8494 15.5107 14.75C15.5107 14.6506 15.4909 14.5522 15.4526 14.4605C15.4142 14.3688 15.358 14.2857 15.2872 14.2159C15.2164 14.1461 15.1325 14.0911 15.0403 14.054C14.9481 14.017 14.8494 13.9986 14.75 14H13.25ZM17.25 14C17.1506 13.9986 17.0519 14.017 16.9597 14.054C16.8675 14.0911 16.7836 14.1461 16.7128 14.2159C16.642 14.2857 16.5858 14.3688 16.5474 14.4605C16.5091 14.5522 16.4893 14.6506 16.4893 14.75C16.4893 14.8494 16.5091 14.9478 16.5474 15.0395C16.5858 15.1312 16.642 15.2143 16.7128 15.2841C16.7836 15.3539 16.8675 15.4089 16.9597 15.446C17.0519 15.483 17.1506 15.5014 17.25 15.5H18.75C18.8494 15.5014 18.9481 15.483 19.0403 15.446C19.1325 15.4089 19.2164 15.3539 19.2872 15.2841C19.358 15.2143 19.4142 15.1312 19.4526 15.0395C19.4909 14.9478 19.5107 14.8494 19.5107 14.75C19.5107 14.6506 19.4909 14.5522 19.4526 14.4605C19.4142 14.3688 19.358 14.2857 19.2872 14.2159C19.2164 14.1461 19.1325 14.0911 19.0403 14.054C18.9481 14.017 18.8494 13.9986 18.75 14H17.25Z" fill="black"/>
</svg>
