<svg width="24" height="24" viewBox="0 0 24 24" fill="none" xmlns="http://www.w3.org/2000/svg">
<path d="M13.6001 8.4C12.7201 8.4 11.9668 8.08667 11.3401 7.46C10.7134 6.83333 10.4001 6.08 10.4001 5.2C10.4001 4.32 10.7134 3.56667 11.3401 2.94C11.9668 2.31333 12.7201 2 13.6001 2C14.4801 2 15.2334 2.31333 15.8601 2.94C16.4868 3.56667 16.8001 4.32 16.8001 5.2C16.8001 6.08 16.4868 6.83333 15.8601 7.46C15.2334 8.08667 14.4801 8.4 13.6001 8.4ZM12.4801 22H6.0801L7.6801 13.84L4.8001 14.96V18.8C4.8001 19.2533 4.64676 19.6333 4.3401 19.94C4.03343 20.2467 3.65343 20.4 3.2001 20.4C2.74676 20.4 2.36676 20.2467 2.0601 19.94C1.75343 19.6333 1.6001 19.2533 1.6001 18.8V13.92C1.6001 13.6 1.68676 13.3133 1.8601 13.06C2.03343 12.8067 2.26676 12.6133 2.5601 12.48L7.9201 10.16C8.85343 9.76 9.5401 9.5 9.9801 9.38C10.4201 9.26 10.8268 9.2 11.2001 9.2C11.7601 9.2 12.2801 9.34667 12.7601 9.64C13.2401 9.93333 13.6268 10.32 13.9201 10.8L15.5201 13.36C16.0801 14.2667 16.8068 15.0533 17.7001 15.72C18.5934 16.3867 19.6268 16.8267 20.8001 17.04C21.2534 17.12 21.6334 17.32 21.9401 17.64C22.2468 17.96 22.4001 18.3467 22.4001 18.8C22.4001 19.2533 22.2468 19.6267 21.9401 19.92C21.6334 20.2133 21.2668 20.3333 20.8401 20.28C19.4001 20.0667 18.0534 19.62 16.8001 18.94C15.5468 18.26 14.4801 17.4133 13.6001 16.4L12.4801 22Z" fill="black"/>
</svg>
