<svg width="24" height="24" viewBox="0 0 24 24" fill="none" xmlns="http://www.w3.org/2000/svg">
<path d="M4 21C3.45 21 2.97917 20.8042 2.5875 20.4125C2.19583 20.0208 2 19.55 2 19V16C2 15.7167 2.09583 15.4792 2.2875 15.2875C2.47917 15.0958 2.71667 15 3 15C3.28333 15 3.52083 15.0958 3.7125 15.2875C3.90417 15.4792 4 15.7167 4 16V19H7C7.28333 19 7.52083 19.0958 7.7125 19.2875C7.90417 19.4792 8 19.7167 8 20C8 20.2833 7.90417 20.5208 7.7125 20.7125C7.52083 20.9042 7.28333 21 7 21H4ZM2 6V3C2 2.45 2.19583 1.97917 2.5875 1.5875C2.97917 1.19583 3.45 1 4 1H7C7.28333 1 7.52083 1.09583 7.7125 1.2875C7.90417 1.47917 8 1.71667 8 2C8 2.28333 7.90417 2.52083 7.7125 2.7125C7.52083 2.90417 7.28333 3 7 3H4V6C4 6.28333 3.90417 6.52083 3.7125 6.7125C3.52083 6.90417 3.28333 7 3 7C2.71667 7 2.47917 6.90417 2.2875 6.7125C2.09583 6.52083 2 6.28333 2 6ZM12 13C11.45 13 10.9792 12.8042 10.5875 12.4125C10.1958 12.0208 10 11.55 10 11C10 10.4333 10.1958 9.95833 10.5875 9.575C10.9792 9.19167 11.45 9 12 9C12.5667 9 13.0417 9.19167 13.425 9.575C13.8083 9.95833 14 10.4333 14 11C14 11.55 13.8083 12.0208 13.425 12.4125C13.0417 12.8042 12.5667 13 12 13ZM20 6V3H17C16.7167 3 16.4792 2.90417 16.2875 2.7125C16.0958 2.52083 16 2.28333 16 2C16 1.71667 16.0958 1.47917 16.2875 1.2875C16.4792 1.09583 16.7167 1 17 1H20C20.55 1 21.0208 1.19583 21.4125 1.5875C21.8042 1.97917 22 2.45 22 3V6C22 6.28333 21.9042 6.52083 21.7125 6.7125C21.5208 6.90417 21.2833 7 21 7C20.7167 7 20.4792 6.90417 20.2875 6.7125C20.0958 6.52083 20 6.28333 20 6ZM6.175 12.15C5.875 12.15 5.64167 12.2792 5.475 12.5375C5.30833 12.7958 5.26667 13.075 5.35 13.375C5.66667 14.425 6.21667 15.3333 7 16.1C7.78333 16.8667 8.7 17.425 9.75 17.775C10.05 17.875 10.3292 17.8292 10.5875 17.6375C10.8458 17.4458 10.975 17.1917 10.975 16.875C10.975 16.6417 10.9 16.4292 10.75 16.2375C10.6 16.0458 10.4083 15.9083 10.175 15.825C9.525 15.575 8.94583 15.2083 8.4375 14.725C7.92917 14.2417 7.55833 13.6667 7.325 13C7.24167 12.75 7.09583 12.5458 6.8875 12.3875C6.67917 12.2292 6.44167 12.15 6.175 12.15ZM6.2 10.15C5.9 10.15 5.66667 10.0208 5.5 9.7625C5.33333 9.50417 5.29167 9.225 5.375 8.925C5.69167 7.875 6.24583 6.96667 7.0375 6.2C7.82917 5.43333 8.75 4.875 9.8 4.525C10.1 4.425 10.375 4.47083 10.625 4.6625C10.875 4.85417 11 5.10833 11 5.425C11 5.65833 10.925 5.87083 10.775 6.0625C10.625 6.25417 10.4333 6.39167 10.2 6.475C9.55 6.725 8.97083 7.09167 8.4625 7.575C7.95417 8.05833 7.58333 8.63333 7.35 9.3C7.26667 9.55 7.12083 9.75417 6.9125 9.9125C6.70417 10.0708 6.46667 10.15 6.2 10.15ZM17.85 10.15C18.15 10.15 18.3833 10.0208 18.55 9.7625C18.7167 9.50417 18.7583 9.225 18.675 8.925C18.3583 7.875 17.8042 6.96667 17.0125 6.2C16.2208 5.43333 15.3 4.875 14.25 4.525C13.95 4.425 13.675 4.47083 13.425 4.6625C13.175 4.85417 13.05 5.10833 13.05 5.425C13.05 5.65833 13.125 5.87083 13.275 6.0625C13.425 6.25417 13.6167 6.39167 13.85 6.475C14.5 6.725 15.0792 7.09167 15.5875 7.575C16.0958 8.05833 16.4667 8.63333 16.7 9.3C16.7833 9.55 16.9292 9.75417 17.1375 9.9125C17.3458 10.0708 17.5833 10.15 17.85 10.15ZM19 23C17.6167 23 16.4375 22.5125 15.4625 21.5375C14.4875 20.5625 14 19.3833 14 18C14 16.6167 14.4875 15.4375 15.4625 14.4625C16.4375 13.4875 17.6167 13 19 13C20.3833 13 21.5625 13.4875 22.5375 14.4625C23.5125 15.4375 24 16.6167 24 18C24 19.3833 23.5125 20.5625 22.5375 21.5375C21.5625 22.5125 20.3833 23 19 23ZM19 21C19.1333 21 19.25 20.95 19.35 20.85C19.45 20.75 19.5 20.6333 19.5 20.5C19.5 20.3667 19.45 20.25 19.35 20.15C19.25 20.05 19.1333 20 19 20C18.8667 20 18.75 20.05 18.65 20.15C18.55 20.25 18.5 20.3667 18.5 20.5C18.5 20.6333 18.55 20.75 18.65 20.85C18.75 20.95 18.8667 21 19 21ZM19 19C19.1333 19 19.25 18.95 19.35 18.85C19.45 18.75 19.5 18.6333 19.5 18.5V15.5C19.5 15.3667 19.45 15.25 19.35 15.15C19.25 15.05 19.1333 15 19 15C18.8667 15 18.75 15.05 18.65 15.15C18.55 15.25 18.5 15.3667 18.5 15.5V18.5C18.5 18.6333 18.55 18.75 18.65 18.85C18.75 18.95 18.8667 19 19 19Z" fill="black"/>
</svg>
