<svg width="24" height="24" viewBox="0 0 24 24" fill="none" xmlns="http://www.w3.org/2000/svg">
<path d="M8.32482 19V15.675H4.99982V19H8.32482ZM13.6748 19V16.5L12.8498 15.675H10.3248V19H13.6748ZM8.32482 13.675V11.15L7.49982 10.325H4.99982V13.675H8.32482ZM18.9998 13.675V10.325H15.6748V12.8L16.5498 13.675H18.9998ZM13.6748 8.32499V4.99999H10.3248V7.44999L11.1998 8.32499H13.6748ZM18.9998 8.32499V4.99999H15.6748V8.32499H18.9998ZM20.9998 18.125L5.87482 2.99999H18.9998C19.5498 2.99999 20.0207 3.19583 20.4123 3.58749C20.804 3.97916 20.9998 4.44999 20.9998 4.99999V18.125ZM4.99982 21C4.44982 21 3.97898 20.8042 3.58732 20.4125C3.19565 20.0208 2.99982 19.55 2.99982 19V2.99999L20.9998 21H4.99982ZM19.7748 22.6L1.39982 4.19999C1.21648 4.01666 1.12065 3.78749 1.11232 3.51249C1.10398 3.23749 1.19982 2.99999 1.39982 2.79999C1.58315 2.61666 1.81648 2.52499 2.09982 2.52499C2.38315 2.52499 2.61648 2.61666 2.79982 2.79999L21.1998 21.2C21.3998 21.4 21.4957 21.6333 21.4873 21.9C21.479 22.1667 21.3748 22.4 21.1748 22.6C20.9748 22.7833 20.7415 22.8792 20.4748 22.8875C20.2082 22.8958 19.9748 22.8 19.7748 22.6Z" fill="black"/>
</svg>
