<svg width="24" height="24" viewBox="0 0 24 24" fill="none" xmlns="http://www.w3.org/2000/svg">
<path d="M8 20H6C5.45 20 4.97891 19.8044 4.58724 19.4128C4.19557 19.0211 4 18.55 4 18V17.2005C4 16.6341 4.14139 16.1129 4.42448 15.638C4.70781 15.163 5.10026 14.7995 5.60026 14.5495C5.98341 14.3496 6.37493 14.1747 6.77474 14.0247C7.17472 13.8747 7.58336 13.7336 8 13.6003V20ZM16 13.6003C16.4166 13.7336 16.8253 13.8747 17.2253 14.0247C17.6251 14.1747 18.0166 14.3496 18.3997 14.5495C18.8997 14.7995 19.2922 15.163 19.5755 15.638C19.8586 16.1129 20 16.6341 20 17.2005V18C20 18.55 19.8044 19.0211 19.4128 19.4128C19.0211 19.8044 18.55 20 18 20H16V13.6003ZM12 13C12.3333 13 12.6667 13.0128 13 13.0378C13.3333 13.0628 13.6667 13.0997 14 13.1497V16.5H10V13.1497C10.3333 13.0997 10.6667 13.0628 11 13.0378C11.3333 13.0128 11.6667 13 12 13ZM12 4C13.1 4 14.0422 4.39115 14.8255 5.17448C15.6089 5.95781 16 6.9 16 8C16 9.1 15.6089 10.0422 14.8255 10.8255C14.0422 11.6089 13.1 12 12 12C10.9 12 9.95781 11.6089 9.17448 10.8255C8.39115 10.0422 8 9.1 8 8C8 6.9 8.39115 5.95781 9.17448 5.17448C9.95781 4.39115 10.9 4 12 4Z" fill="black"/>
</svg>
