<svg width="24" height="24" viewBox="0 0 24 24" fill="none" xmlns="http://www.w3.org/2000/svg">
<path d="M6.25 2C5.01 2 4 3.01 4 4.25V19.75C4 20.99 5.01 22 6.25 22H13.2695C13.0965 21.6995 13 21.366 13 21V20.5H6.25C5.835 20.5 5.5 20.165 5.5 19.75V4.25C5.5 3.835 5.835 3.5 6.25 3.5H12V7.75C12 8.99 13.01 10 14.25 10H18.5V12C19.005 12 19.5105 12.0355 20 12.1055V9.25C20 9.0425 19.9159 8.85535 19.7803 8.71973L13.2803 2.21973C13.1446 2.0841 12.9575 2 12.75 2H6.25ZM13.5 4.56055L17.4395 8.5H14.25C13.835 8.5 13.5 8.165 13.5 7.75V4.56055ZM9.74023 9.51465C9.57464 9.51724 9.41685 9.58543 9.3015 9.70426C9.18615 9.82309 9.12267 9.98284 9.125 10.1484V10.5615C8.08415 10.6619 7.25 11.5206 7.25 12.5859C7.25 13.7176 8.18081 14.6484 9.3125 14.6484H10.4375C10.8938 14.6484 11.25 15.0046 11.25 15.4609C11.25 15.9172 10.8938 16.2734 10.4375 16.2734H8.8877C8.57506 16.2734 8.31164 16.1011 8.17383 15.8486C8.09432 15.7031 7.96024 15.5951 7.80109 15.5484C7.64194 15.5017 7.47075 15.5201 7.3252 15.5996C7.17964 15.6791 7.07163 15.8132 7.02493 15.9724C6.97823 16.1315 6.99666 16.3027 7.07617 16.4482C7.42636 17.0898 8.11133 17.5234 8.8877 17.5234H9.125V17.875C9.12383 17.9578 9.13913 18.04 9.17001 18.1169C9.2009 18.1938 9.24675 18.2637 9.3049 18.3227C9.36305 18.3817 9.43235 18.4285 9.50876 18.4605C9.58517 18.4924 9.66717 18.5089 9.75 18.5089C9.83283 18.5089 9.91483 18.4924 9.99124 18.4605C10.0677 18.4285 10.1369 18.3817 10.1951 18.3227C10.2533 18.2637 10.2991 18.1938 10.33 18.1169C10.3609 18.04 10.3762 17.9578 10.375 17.875V17.5234H10.4375C11.5692 17.5234 12.5 16.5926 12.5 15.4609C12.5 14.3292 11.5692 13.3984 10.4375 13.3984H9.3125C8.85619 13.3984 8.5 13.0422 8.5 12.5859C8.5 12.1296 8.85619 11.7734 9.3125 11.7734H9.64844C9.71505 11.7843 9.78299 11.7843 9.84961 11.7734H10.1123C10.4257 11.7734 10.6889 11.9453 10.8262 12.1973C10.8643 12.2712 10.9169 12.3369 10.9808 12.3902C11.0447 12.4436 11.1186 12.4837 11.1982 12.5082C11.2778 12.5326 11.3614 12.5409 11.4443 12.5325C11.5271 12.5242 11.6074 12.4994 11.6805 12.4596C11.7537 12.4198 11.8181 12.3658 11.87 12.3007C11.922 12.2357 11.9604 12.1609 11.9831 12.0808C12.0058 12.0007 12.0122 11.9168 12.002 11.8342C11.9918 11.7516 11.9653 11.6718 11.9238 11.5996C11.6172 11.0367 11.0329 10.6874 10.375 10.5967V10.1484C10.3762 10.0648 10.3606 9.98177 10.3291 9.90428C10.2976 9.82679 10.2508 9.75641 10.1916 9.69731C10.1325 9.63821 10.062 9.59159 9.98446 9.56021C9.90692 9.52884 9.82387 9.51334 9.74023 9.51465ZM18.5 13C16.0145 13 14 13.8955 14 15C14 16.1045 16.0145 17 18.5 17C20.9855 17 23 16.1045 23 15C23 13.8955 20.9855 13 18.5 13ZM14 16.5V18C14 19.105 16.015 20 18.5 20C20.985 20 23 19.105 23 18V16.5C23 17.605 20.985 18.5 18.5 18.5C16.015 18.5 14 17.605 14 16.5ZM14 19.5V21C14 22.105 16.015 23 18.5 23C20.985 23 23 22.105 23 21V19.5C23 20.605 20.985 21.5 18.5 21.5C16.015 21.5 14 20.605 14 19.5Z" fill="black"/>
<path d="M14 15C14 13.8955 16.0145 13 18.5 13C20.9855 13 23 13.8955 23 15C23 16.1045 20.9855 17 18.5 17C16.0145 17 14 16.1045 14 15Z" fill="black"/>
<path d="M14 18V16.5C14 17.605 16.015 18.5 18.5 18.5C20.985 18.5 23 17.605 23 16.5V18C23 19.105 20.985 20 18.5 20C16.015 20 14 19.105 14 18Z" fill="black"/>
<path d="M14 21V19.5C14 20.605 16.015 21.5 18.5 21.5C20.985 21.5 23 20.605 23 19.5V21C23 22.105 20.985 23 18.5 23C16.015 23 14 22.105 14 21Z" fill="black"/>
</svg>
