<svg width="24" height="24" viewBox="0 0 24 24" fill="none" xmlns="http://www.w3.org/2000/svg">
<path fill-rule="evenodd" clip-rule="evenodd" d="M5.375 1.625H10.625V7.37499C10.625 8.34149 11.4085 9.12499 12.375 9.12499H18.125V10.9426C17.7182 10.8979 17.2994 10.875 16.875 10.875C15.4726 10.875 14.1309 11.1246 13.0837 11.5901C12.562 11.822 12.0469 12.137 11.642 12.5625C11.2297 12.9957 10.875 13.6108 10.875 14.375V20.375C10.875 20.8525 11.0135 21.2719 11.218 21.625H5.375C3.85622 21.625 2.625 20.3938 2.625 18.875V4.375C2.625 2.85622 3.85622 1.625 5.375 1.625ZM6.42688 8.56481C6.54223 8.4459 6.70002 8.37767 6.86561 8.37508C6.94925 8.37377 7.0323 8.38927 7.10984 8.42067C7.18738 8.45206 7.25783 8.49871 7.31702 8.55785C7.37621 8.61699 7.42294 8.68742 7.45444 8.76496C7.48593 8.8425 7.50155 8.92557 7.50038 9.00926V9.45779C8.15831 9.54859 8.74255 9.89806 9.04921 10.4614C9.09063 10.5336 9.11721 10.6134 9.12739 10.6961C9.13757 10.7788 9.13114 10.8627 9.10848 10.9428C9.08581 11.023 9.04737 11.0978 8.99542 11.1629C8.94346 11.228 8.87904 11.282 8.80592 11.3219C8.7328 11.3617 8.65247 11.3865 8.56963 11.3949C8.4868 11.4032 8.40313 11.3949 8.32355 11.3705C8.24396 11.346 8.17006 11.3059 8.10618 11.2525C8.0423 11.1991 7.98973 11.1334 7.95155 11.0594C7.81428 10.8072 7.55103 10.6353 7.23768 10.6353H6.97499C6.90837 10.6462 6.84043 10.6462 6.77381 10.6353H6.43788C5.98157 10.6353 5.62538 10.9917 5.62538 11.4483C5.62538 11.9049 5.98157 12.2613 6.43788 12.2613H7.56288C8.69457 12.2613 9.62538 13.1927 9.62538 14.3251C9.62538 15.4575 8.69457 16.3889 7.56288 16.3889H7.50038V16.7407C7.50155 16.8236 7.48625 16.9058 7.45536 16.9828C7.42448 17.0597 7.37863 17.1297 7.32048 17.1887C7.26232 17.2477 7.19303 17.2946 7.11662 17.3265C7.04021 17.3585 6.95821 17.375 6.87538 17.375C6.79255 17.375 6.71055 17.3585 6.63414 17.3265C6.55772 17.2946 6.48843 17.2477 6.43028 17.1887C6.37212 17.1297 6.32627 17.0597 6.29539 16.9828C6.26451 16.9058 6.24921 16.8236 6.25038 16.7407V16.3889H6.01307C5.23671 16.3889 4.55174 15.955 4.20155 15.313C4.12204 15.1674 4.1036 14.9961 4.1503 14.8369C4.197 14.6776 4.30501 14.5434 4.45057 14.4639C4.59613 14.3843 4.76731 14.3659 4.92646 14.4126C5.08561 14.4593 5.21969 14.5674 5.29921 14.7131C5.43702 14.9657 5.70044 15.1381 6.01307 15.1381H7.56288C8.01919 15.1381 8.37538 14.7817 8.37538 14.3251C8.37538 13.8685 8.01919 13.5121 7.56288 13.5121H6.43788C5.30619 13.5121 4.37538 12.5807 4.37538 11.4483C4.37538 10.3823 5.20953 9.52301 6.25038 9.42261V9.00926C6.24804 8.84357 6.31152 8.68372 6.42688 8.56481Z" fill="black"/>
<path d="M12.125 2.10784V7.37499C12.125 7.51306 12.2369 7.62499 12.375 7.62499H17.6422C17.8203 7.62499 17.9096 7.40956 17.7836 7.28357L12.4664 1.96642C12.3404 1.84043 12.125 1.92966 12.125 2.10784Z" fill="black"/>
<path d="M12.375 14.375C12.375 13.2705 14.3895 12.375 16.875 12.375C19.3605 12.375 21.375 13.2705 21.375 14.375C21.375 15.4795 19.3605 16.375 16.875 16.375C14.3895 16.375 12.375 15.4795 12.375 14.375Z" fill="black"/>
<path d="M12.375 17.375V15.875C12.375 16.98 14.39 17.875 16.875 17.875C19.36 17.875 21.375 16.98 21.375 15.875V17.375C21.375 18.48 19.36 19.375 16.875 19.375C14.39 19.375 12.375 18.48 12.375 17.375Z" fill="black"/>
<path d="M12.375 18.875V20.375C12.375 21.48 14.39 22.375 16.875 22.375C19.36 22.375 21.375 21.48 21.375 20.375V18.875C21.375 19.98 19.36 20.875 16.875 20.875C14.39 20.875 12.375 19.98 12.375 18.875Z" fill="black"/>
</svg>
