<svg width="24" height="24" viewBox="0 0 24 24" fill="none" xmlns="http://www.w3.org/2000/svg">
<path d="M11.9998 1.5C11.1779 1.5 10.5007 1.9259 9.99884 2.5H7.74982C7.6286 2.50001 7.5092 2.5294 7.40183 2.58565C7.29446 2.6419 7.20232 2.72333 7.1333 2.82297C7.06428 2.92261 7.02044 3.0375 7.00552 3.15779C6.99061 3.27808 7.00507 3.40019 7.04767 3.51367L8.35431 6.99902C6.88592 8.18476 2.32576 12.3242 2.53009 17.9365C2.62309 20.4955 4.70814 22.5 7.27814 22.5H13.2957C12.8887 22.0675 12.5617 21.5605 12.3387 21H7.27814C5.51964 21 4.09261 19.6308 4.02911 17.8828C3.8387 12.6413 8.6402 8.6727 9.50665 8H14.4901C14.9463 8.3493 17.1084 10.0807 18.6092 12.7529C19.0487 12.5899 19.5178 12.5 19.9998 12.5C20.0663 12.5 20.1306 12.5068 20.1961 12.5098C18.7464 9.65376 16.5469 7.72139 15.6443 7L16.952 3.51367C16.9946 3.40019 17.009 3.27808 16.9941 3.15779C16.9792 3.0375 16.9354 2.92261 16.8663 2.82297C16.7973 2.72333 16.7052 2.6419 16.5978 2.58565C16.4904 2.5294 16.371 2.50001 16.2498 2.5H14.0008C13.4989 1.9259 12.8218 1.5 11.9998 1.5ZM11.9998 3C12.4644 3 12.8544 3.24948 13.074 3.62695C13.14 3.74044 13.2346 3.83462 13.3484 3.90008C13.4622 3.96555 13.5912 4 13.7225 4H15.1678L14.2303 6.5H9.76935L8.83185 4H10.2772C10.4084 4 10.5374 3.96555 10.6512 3.90008C10.765 3.83462 10.8596 3.74044 10.9256 3.62695C11.1452 3.24948 11.5352 3 11.9998 3ZM19.9998 13.5C19.0698 13.5 18.2344 13.9248 17.6844 14.5898C19.8144 15.0198 21.4299 16.8646 21.4949 19.0996C22.3949 18.5796 22.9998 17.61 22.9998 16.5C22.9998 14.845 21.6548 13.5 19.9998 13.5ZM16.7498 15.5C15.7553 15.5 14.8014 15.8951 14.0982 16.5983C13.3949 17.3016 12.9998 18.2554 12.9998 19.25C12.9998 20.2446 13.3949 21.1984 14.0982 21.9017C14.8014 22.6049 15.7553 23 16.7498 23C17.7444 23 18.6982 22.6049 19.4015 21.9017C20.1047 21.1984 20.4998 20.2446 20.4998 19.25C20.4998 18.2554 20.1047 17.3016 19.4015 16.5983C18.6982 15.8951 17.7444 15.5 16.7498 15.5Z" fill="black"/>
</svg>
