<svg width="24" height="24" viewBox="0 0 24 24" fill="none" xmlns="http://www.w3.org/2000/svg">
<path d="M15.7225 11.4437C15.9163 11.4438 16.093 11.4925 16.2515 11.5895C16.4101 11.6866 16.5333 11.8236 16.6214 12L20.8533 19.4118C20.9591 19.5706 21.0078 19.7471 20.999 19.9412C20.9902 20.1353 20.9415 20.3118 20.8533 20.4706C20.7475 20.6294 20.6152 20.7572 20.4566 20.8542C20.2979 20.9513 20.1215 21 19.9276 21H11.4638C11.2699 21 11.0981 20.9512 10.9482 20.8542C10.7984 20.7572 10.6707 20.6293 10.5649 20.4706C10.4768 20.3118 10.4281 20.1398 10.4192 19.9546C10.4104 19.7693 10.4499 19.5882 10.5381 19.4118L14.77 12C14.8758 11.8412 15.0126 11.7088 15.1801 11.6029C15.3476 11.4971 15.5286 11.4437 15.7225 11.4437ZM15.6957 18.8824C15.5546 18.8824 15.4316 18.9357 15.3258 19.0416C15.22 19.1475 15.1667 19.2706 15.1667 19.4118C15.1667 19.5529 15.22 19.6761 15.3258 19.7819C15.4316 19.8878 15.5546 19.9412 15.6957 19.9412C15.8367 19.9412 15.9598 19.8878 16.0656 19.7819C16.1714 19.6761 16.2247 19.5529 16.2247 19.4118C16.2247 19.2706 16.1714 19.1475 16.0656 19.0416C15.9598 18.9357 15.8367 18.8824 15.6957 18.8824ZM15.6957 13.5882C15.5546 13.5882 15.4316 13.6416 15.3258 13.7475C15.22 13.8534 15.1667 13.9765 15.1667 14.1176V17.2941C15.1667 17.4353 15.22 17.5584 15.3258 17.6643C15.4316 17.7702 15.5546 17.8235 15.6957 17.8235C15.8367 17.8235 15.9598 17.7702 16.0656 17.6643C16.1714 17.5584 16.2247 17.4353 16.2247 17.2941V14.1176C16.2247 13.9765 16.1714 13.8534 16.0656 13.7475C15.9598 13.6416 15.8367 13.5882 15.6957 13.5882ZM6.17392 15.7059H4.58696C4.15055 15.7059 3.77674 15.5506 3.46596 15.2395C3.15518 14.9285 3 14.5544 3 14.1176V13.4828C3 13.033 3.11219 12.619 3.33682 12.242C3.56164 11.8648 3.87304 11.5761 4.26978 11.3775C4.5738 11.2188 4.88446 11.0799 5.2017 10.9608C5.51907 10.8417 5.84333 10.7296 6.17392 10.6237V15.7059ZM12.5218 10.6237C12.8524 10.7296 13.1766 10.8417 13.494 10.9608C13.6829 11.0317 13.8687 11.1116 14.0529 11.1966C13.9951 11.2651 13.9402 11.3369 13.8897 11.4127L13.869 11.4427L13.8515 11.4747L12.5218 13.8033V10.6237ZM9.34784 10.1471C9.61234 10.1471 9.87683 10.1572 10.1413 10.177C10.4058 10.1969 10.6703 10.2263 10.9348 10.266V12.9265H7.76088V10.266C8.02536 10.2263 8.28988 10.1969 8.55436 10.177C8.81886 10.1572 9.08335 10.1471 9.34784 10.1471ZM9.34784 3C10.2207 3 10.9683 3.31062 11.5898 3.93267C12.2114 4.55473 12.5218 5.30294 12.5218 6.17647C12.5218 7.05 12.2114 7.79821 11.5898 8.42027C10.9683 9.04233 10.2207 9.35294 9.34784 9.35294C8.47501 9.35294 7.72741 9.04233 7.10585 8.42027C6.48429 7.79821 6.17392 7.05 6.17392 6.17647C6.17392 5.30294 6.48429 4.55473 7.10585 3.93267C7.72741 3.31062 8.47501 3 9.34784 3Z" fill="black"/>
</svg>
