<svg width="24" height="24" viewBox="0 0 24 24" fill="none" xmlns="http://www.w3.org/2000/svg">
<path d="M5.75 3C5.75 2.58579 5.41421 2.25 5 2.25C4.58579 2.25 4.25 2.58579 4.25 3C4.25 3.33152 4.1183 3.64946 3.88388 3.88388C3.64946 4.1183 3.33152 4.25 3 4.25C2.58579 4.25 2.25 4.58579 2.25 5C2.25 5.41421 2.58579 5.75 3 5.75C3.33152 5.75 3.64946 5.8817 3.88388 6.11612C4.1183 6.35054 4.25 6.66848 4.25 7C4.25 7.41421 4.58579 7.75 5 7.75C5.41421 7.75 5.75 7.41421 5.75 7C5.75 6.66848 5.8817 6.35054 6.11612 6.11612C6.35054 5.8817 6.66848 5.75 7 5.75C7.41421 5.75 7.75 5.41421 7.75 5C7.75 4.58579 7.41421 4.25 7 4.25C6.66848 4.25 6.35054 4.1183 6.11612 3.88388C5.8817 3.64946 5.75 3.33152 5.75 3Z" fill="black"/>
<path d="M13.5006 3.73297L15.3282 8.67194L20.2671 10.4995C21.6601 11.015 21.6601 12.9852 20.2671 13.5006L15.3282 15.3282L13.5006 20.2672C12.9851 21.6602 11.0149 21.6602 10.4995 20.2672L8.67187 15.3282L3.73291 13.5006C2.33992 12.9852 2.33992 11.015 3.73291 10.4995L8.67187 8.67194L10.4995 3.73297C11.0149 2.33998 12.9851 2.33999 13.5006 3.73297Z" fill="black"/>
<path d="M19.75 17C19.75 16.5858 19.4142 16.25 19 16.25C18.5858 16.25 18.25 16.5858 18.25 17C18.25 17.3315 18.1183 17.6495 17.8839 17.8839C17.6495 18.1183 17.3315 18.25 17 18.25C16.5858 18.25 16.25 18.5858 16.25 19C16.25 19.4142 16.5858 19.75 17 19.75C17.3315 19.75 17.6495 19.8817 17.8839 20.1161C18.1183 20.3505 18.25 20.6685 18.25 21C18.25 21.4142 18.5858 21.75 19 21.75C19.4142 21.75 19.75 21.4142 19.75 21C19.75 20.6685 19.8817 20.3505 20.1161 20.1161C20.3505 19.8817 20.6685 19.75 21 19.75C21.4142 19.75 21.75 19.4142 21.75 19C21.75 18.5858 21.4142 18.25 21 18.25C20.6685 18.25 20.3505 18.1183 20.1161 17.8839C19.8817 17.6495 19.75 17.3315 19.75 17Z" fill="black"/>
</svg>
