<svg width="24" height="24" viewBox="0 0 24 24" fill="none" xmlns="http://www.w3.org/2000/svg">
<path d="M12 2C6.486 2 2 6.486 2 12C2 17.514 6.486 22 12 22C17.514 22 22 17.514 22 12C22 6.486 17.514 2 12 2ZM11.75 5.5C12.165 5.5 12.5 5.835 12.5 6.25V7H12.75C14.265 7 15.5 8.235 15.5 9.75C15.5 10.36 15.295 10.9249 14.96 11.3799C15.875 11.8949 16.5 12.875 16.5 14C16.5 15.655 15.155 17 13.5 17H12.5V17.75C12.5 18.165 12.165 18.5 11.75 18.5C11.335 18.5 11 18.165 11 17.75V17H9.25C8.835 17 8.5 16.665 8.5 16.25V7.75C8.5 7.335 8.835 7 9.25 7H11V6.25C11 5.835 11.335 5.5 11.75 5.5ZM10 8.5V11H11V8.5H10ZM12.5 8.5V11H12.75C13.44 11 14 10.44 14 9.75C14 9.06 13.44 8.5 12.75 8.5H12.5ZM10 12.5V15.5H11V12.5H10ZM12.5 12.5V15.5H13.5C14.325 15.5 15 14.825 15 14C15 13.175 14.325 12.5 13.5 12.5H12.5Z" fill="black"/>
</svg>
