<svg width="112" height="400" viewBox="0 0 112 400" fill="none" xmlns="http://www.w3.org/2000/svg">
<rect x="0.5" y="0.5" width="111" height="399" rx="4.5" stroke="#9747FF" stroke-dasharray="10 5"/>
<circle cx="56.0001" cy="55.9993" r="33.3333" fill="white"/>
<path d="M56.0001 22.666C37.6202 22.666 22.6667 37.6195 22.6667 55.9993C22.6667 74.3792 37.6202 89.3327 56.0001 89.3327C74.38 89.3327 89.3334 74.3792 89.3334 55.9993C89.3334 37.6195 74.38 22.666 56.0001 22.666ZM46.0001 43.4993C48.3017 43.4993 50.1667 45.3643 50.1667 47.666C50.1667 49.9677 48.3017 51.8327 46.0001 51.8327C43.6984 51.8327 41.8334 49.9677 41.8334 47.666C41.8334 45.3643 43.6984 43.4993 46.0001 43.4993ZM66.0001 43.4993C68.3017 43.4993 70.1667 45.3643 70.1667 47.666C70.1667 49.9677 68.3017 51.8327 66.0001 51.8327C63.6984 51.8327 61.8334 49.9677 61.8334 47.666C61.8334 45.3643 63.6984 43.4993 66.0001 43.4993ZM42.0841 62.6725C42.8843 62.6147 43.6959 62.9427 44.2292 63.6198C47.0859 67.2515 51.3767 69.3327 56.0001 69.3327C60.6234 69.3327 64.9142 67.2498 67.7709 63.6198C68.6242 62.5365 70.1917 62.3465 71.28 63.2031C72.3634 64.0548 72.555 65.6272 71.7 66.7122C67.8899 71.5539 62.1667 74.3327 56.0001 74.3327C49.8334 74.3327 44.1102 71.5556 40.3002 66.7122C39.4452 65.6272 39.6368 64.0532 40.7201 63.1999C41.1276 62.8786 41.6039 62.7072 42.0841 62.6725Z" fill="#40D98D"/>
<circle cx="56.0001" cy="151.999" r="33.3333" fill="white"/>
<path d="M56.0001 118.666C37.6202 118.666 22.6667 133.619 22.6667 151.999C22.6667 170.379 37.6202 185.333 56.0001 185.333C74.38 185.333 89.3334 170.379 89.3334 151.999C89.3334 133.619 74.38 118.666 56.0001 118.666ZM46.0001 141.166C48.3017 141.166 50.1667 143.031 50.1667 145.333C50.1667 147.634 48.3017 149.499 46.0001 149.499C43.6984 149.499 41.8334 147.634 41.8334 145.333C41.8334 143.031 43.6984 141.166 46.0001 141.166ZM66.0001 141.166C68.3017 141.166 70.1667 143.031 70.1667 145.333C70.1667 147.634 68.3017 149.499 66.0001 149.499C63.6984 149.499 61.8334 147.634 61.8334 145.333C61.8334 143.031 63.6984 141.166 66.0001 141.166ZM45.1667 160.333H66.8334C68.2134 160.333 69.3334 161.453 69.3334 162.833C69.3334 164.213 68.2134 165.333 66.8334 165.333H45.1667C43.7867 165.333 42.6667 164.213 42.6667 162.833C42.6667 161.453 43.7867 160.333 45.1667 160.333Z" fill="#FEE048"/>
<circle cx="56.0001" cy="343.999" r="33.3333" fill="white"/>
<path d="M56.0001 310.666C37.6202 310.666 22.6667 325.619 22.6667 343.999C22.6667 362.379 37.6202 377.333 56.0001 377.333C74.38 377.333 89.3334 362.379 89.3334 343.999C89.3334 325.619 74.38 310.666 56.0001 310.666ZM46.0001 333.166C48.3017 333.166 50.1667 335.031 50.1667 337.333C50.1667 339.634 48.3017 341.499 46.0001 341.499C43.6984 341.499 41.8334 339.634 41.8334 337.333C41.8334 335.031 43.6984 333.166 46.0001 333.166ZM66.0001 333.166C68.3017 333.166 70.1667 335.031 70.1667 337.333C70.1667 339.634 68.3017 341.499 66.0001 341.499C63.6984 341.499 61.8334 339.634 61.8334 337.333C61.8334 335.031 63.6984 333.166 66.0001 333.166Z" fill="#D0D5DD"/>
<circle cx="56.0001" cy="247.999" r="33.3333" fill="white"/>
<path d="M56.0033 214.67C37.6234 214.67 22.6699 229.623 22.6699 248.003C22.6699 266.383 37.6234 281.337 56.0033 281.337C74.3831 281.337 89.3366 266.383 89.3366 248.003C89.3366 229.623 74.3831 214.67 56.0033 214.67ZM46.0033 235.503C48.3049 235.503 50.1699 237.368 50.1699 239.67C50.1699 241.972 48.3049 243.837 46.0033 243.837C43.7016 243.837 41.8366 241.972 41.8366 239.67C41.8366 237.368 43.7016 235.503 46.0033 235.503ZM66.0033 235.503C68.3049 235.503 70.1699 237.368 70.1699 239.67C70.1699 241.972 68.3049 243.837 66.0033 243.837C63.7016 243.837 61.8366 241.972 61.8366 239.67C61.8366 237.368 63.7016 235.503 66.0033 235.503ZM56.0033 251.337C62.1699 251.337 67.8931 254.114 71.7031 258.957C72.5581 260.042 72.3665 261.616 71.2832 262.469C70.8249 262.831 70.277 263.003 69.737 263.003C68.997 263.003 68.2658 262.676 67.7741 262.049C64.9174 258.418 60.6266 256.337 56.0033 256.337C51.3799 256.337 47.0891 258.419 44.2324 262.049C43.3808 263.133 41.81 263.324 40.7233 262.466C39.64 261.614 39.4484 260.042 40.3034 258.957C44.1134 254.115 49.8366 251.337 56.0033 251.337Z" fill="#F54B5E"/>
</svg>
