<svg width="96" height="184" viewBox="0 0 96 184" fill="none" xmlns="http://www.w3.org/2000/svg">
<rect x="0.5" y="0.5" width="95" height="183" rx="4.5" stroke="#9747FF" stroke-dasharray="10 5"/>
<path d="M64.9769 27.0703C60.2826 22.3442 54.1424 20 48.0022 20C41.8621 20 35.7219 22.3442 31.0275 27.0703C21.6575 36.5039 21.6575 51.7975 31.0275 61.2308L44.0778 74.3695C46.2559 76.5435 49.7485 76.5435 51.9269 74.3695L64.9771 61.2308C69.6714 56.5236 72 50.3229 72 44.16C71.9998 37.9593 69.6712 31.7964 64.9769 27.0703Z" fill="#F54B5E"/>
<path d="M48 76C49.4185 76.0006 50.8371 75.4571 51.9269 74.3695L64.9771 61.2308C69.6714 56.5236 72 50.3229 72 44.16C71.9998 37.9593 69.6712 31.7964 64.9769 27.0703C60.2826 22.3442 54.1424 20 48.0022 20L48 20V76Z" fill="#F3263D"/>
<circle cx="48" cy="43" r="10" fill="white"/>
<path d="M48 53C53.5228 53 58 48.5229 58 43C58 37.4771 53.5228 33 48 33V53Z" fill="#F0F7FE"/>
<path d="M64.9769 115.07C60.2826 110.344 54.1424 108 48.0022 108C41.8621 108 35.7219 110.344 31.0275 115.07C21.6575 124.504 21.6575 139.797 31.0275 149.231L44.0778 162.369C46.2559 164.544 49.7485 164.544 51.9269 162.369L64.9771 149.231C69.6714 144.524 72 138.323 72 132.16C71.9998 125.959 69.6712 119.796 64.9769 115.07Z" fill="#F54B5E"/>
<circle cx="48" cy="131" r="10" fill="white"/>
</svg>
