<svg width="24" height="24" viewBox="0 0 24 24" fill="none" xmlns="http://www.w3.org/2000/svg">
<path fill-rule="evenodd" clip-rule="evenodd" d="M6.5 1C3.4625 1 1 3.4625 1 6.5C1 9.5375 3.4625 12 6.5 12C9.5375 12 12 9.5375 12 6.5C12 3.4625 9.538 1 6.5 1ZM6.5 3.5C6.776 3.5 7 3.724 7 4V6H9C9.276 6 9.5 6.224 9.5 6.5C9.5 6.776 9.276 7 9 7H7V9C7 9.276 6.776 9.5 6.5 9.5C6.224 9.5 6 9.276 6 9V7H4C3.724 7 3.5 6.776 3.5 6.5C3.5 6.224 3.724 6 4 6H6V4C6 3.724 6.224 3.5 6.5 3.5Z" fill="black"/>
<path fill-rule="evenodd" clip-rule="evenodd" d="M12.75 6C12.75 5.58579 13.0858 5.25 13.5 5.25H14C14.4142 5.25 14.75 5.58579 14.75 6V6.25H19C19.2634 6.25 19.5076 6.38822 19.6431 6.61413L22.6368 11.6036C22.7085 11.7186 22.75 11.8545 22.75 12V18C22.75 18.4142 22.4142 18.75 22 18.75H20.6458C20.5189 19.1975 20.2793 19.6098 19.9445 19.9445C19.4288 20.4603 18.7293 20.75 18 20.75C17.2707 20.75 16.5712 20.4603 16.0555 19.9445C15.7207 19.6098 15.4811 19.1975 15.3542 18.75H10.6458C10.5189 19.1975 10.2793 19.6098 9.94454 19.9445C9.42882 20.4603 8.72935 20.75 8 20.75C7.27065 20.75 6.57118 20.4603 6.05546 19.9445C5.72067 19.6098 5.48112 19.1975 5.35424 18.75H4C3.58579 18.75 3.25 18.4142 3.25 18V13C3.25 12.5858 3.58579 12.25 4 12.25C4.41421 12.25 4.75 12.5858 4.75 13V17.25H5.35424C5.48112 16.8025 5.72067 16.3902 6.05546 16.0555C6.57118 15.5397 7.27065 15.25 8 15.25C8.72935 15.25 9.42882 15.5397 9.94454 16.0555C10.2793 16.3902 10.5189 16.8025 10.6458 17.25H13.25V6.70732C12.9587 6.60436 12.75 6.32655 12.75 6ZM14.75 11.25V7.75H18.5754L20.6754 11.25H14.75ZM14.75 12.75H21.25V17.25H20.6458C20.5189 16.8025 20.2793 16.3902 19.9445 16.0555C19.4288 15.5397 18.7293 15.25 18 15.25C17.2707 15.25 16.5712 15.5397 16.0555 16.0555C15.7207 16.3902 15.4811 16.8025 15.3542 17.25H14.75V12.75ZM18.8839 17.1161C19.1183 17.3505 19.25 17.6685 19.25 18C19.25 18.3315 19.1183 18.6495 18.8839 18.8839C18.6495 19.1183 18.3315 19.25 18 19.25C17.6685 19.25 17.3505 19.1183 17.1161 18.8839C16.8817 18.6495 16.75 18.3315 16.75 18C16.75 17.6685 16.8817 17.3505 17.1161 17.1161C17.3505 16.8817 17.6685 16.75 18 16.75C18.3315 16.75 18.6495 16.8817 18.8839 17.1161ZM9.25 18C9.25 17.6685 9.1183 17.3505 8.88388 17.1161C8.64946 16.8817 8.33152 16.75 8 16.75C7.66848 16.75 7.35054 16.8817 7.11612 17.1161C6.8817 17.3505 6.75 17.6685 6.75 18C6.75 18.3315 6.8817 18.6495 7.11612 18.8839C7.35054 19.1183 7.66848 19.25 8 19.25C8.33152 19.25 8.64946 19.1183 8.88388 18.8839C9.1183 18.6495 9.25 18.3315 9.25 18Z" fill="black"/>
</svg>
