<svg width="24" height="24" viewBox="0 0 24 24" fill="none" xmlns="http://www.w3.org/2000/svg">
<path d="M6.26367 1C6.16404 0.998196 6.06504 1.01626 5.97247 1.05314C5.8799 1.09002 5.7956 1.14498 5.7245 1.2148C5.65341 1.28463 5.59694 1.36792 5.55839 1.45981C5.51984 1.5517 5.49999 1.65035 5.5 1.75V4.09082C4.06882 4.43066 3 5.71639 3 7.25V15.5H21V7.25C21 5.71639 19.9312 4.43066 18.5 4.09082V1.75C18.5 1.62502 18.4688 1.50202 18.4092 1.39217C18.3496 1.28232 18.2635 1.18911 18.1587 1.121C18.0539 1.05288 17.9338 1.01204 17.8092 1.00216C17.6846 0.992288 17.5595 1.0137 17.4453 1.06446L15.5723 1.89746L14.416 1.12598C14.3061 1.05271 14.1787 1.00979 14.0468 1.00156C13.915 0.993332 13.7833 1.02008 13.665 1.0791L12 1.91113L10.335 1.0791C10.2167 1.02008 10.085 0.993332 9.95317 1.00156C9.8213 1.00979 9.69394 1.05271 9.58398 1.12598L8.42773 1.89746L6.55469 1.06446C6.46297 1.02372 6.36401 1.0018 6.26367 1ZM10.0537 2.61524L11.665 3.4209C11.7691 3.47282 11.8837 3.49985 12 3.49985C12.1163 3.49985 12.2309 3.47282 12.335 3.4209L13.9463 2.61524L15.084 3.37403C15.1892 3.4442 15.3104 3.48664 15.4364 3.4974C15.5624 3.50816 15.6891 3.48688 15.8047 3.43555L17 2.9043V7.5H7V2.9043L8.19531 3.43555C8.31089 3.48688 8.43757 3.50816 8.56357 3.4974C8.68957 3.48664 8.81081 3.4442 8.91602 3.37403L10.0537 2.61524ZM8.5 9.5C9.0525 9.5 9.5 9.9475 9.5 10.5C9.5 11.0525 9.0525 11.5 8.5 11.5C7.9475 11.5 7.5 11.0525 7.5 10.5C7.5 9.9475 7.9475 9.5 8.5 9.5ZM12 9.5C12.5525 9.5 13 9.9475 13 10.5C13 11.0525 12.5525 11.5 12 11.5C11.4475 11.5 11 11.0525 11 10.5C11 9.9475 11.4475 9.5 12 9.5ZM15.5 9.5C16.0525 9.5 16.5 9.9475 16.5 10.5C16.5 11.0525 16.0525 11.5 15.5 11.5C14.9475 11.5 14.5 11.0525 14.5 10.5C14.5 9.9475 14.9475 9.5 15.5 9.5ZM8.5 12.5C9.0525 12.5 9.5 12.9475 9.5 13.5C9.5 14.0525 9.0525 14.5 8.5 14.5C7.9475 14.5 7.5 14.0525 7.5 13.5C7.5 12.9475 7.9475 12.5 8.5 12.5ZM12 12.5C12.5525 12.5 13 12.9475 13 13.5C13 14.0525 12.5525 14.5 12 14.5C11.4475 14.5 11 14.0525 11 13.5C11 12.9475 11.4475 12.5 12 12.5ZM15.5 12.5C16.0525 12.5 16.5 12.9475 16.5 13.5C16.5 14.0525 16.0525 14.5 15.5 14.5C14.9475 14.5 14.5 14.0525 14.5 13.5C14.5 12.9475 14.9475 12.5 15.5 12.5ZM3 17V17.75C3 19.542 4.458 21 6.25 21H17.75C19.542 21 21 19.542 21 17.75V17H3ZM12 18C12.5525 18 13 18.4475 13 19C13 19.5525 12.5525 20 12 20C11.4475 20 11 19.5525 11 19C11 18.4475 11.4475 18 12 18Z" fill="black"/>
</svg>
