<svg width="24" height="24" viewBox="0 0 24 24" fill="none" xmlns="http://www.w3.org/2000/svg">
<path d="M8.90245 1.99511C8.58644 1.98495 8.25866 2.03044 7.92686 2.16796C7.04203 2.53432 6.64251 3.33892 6.33213 4.00976C6.02176 4.6806 5.75336 5.29152 5.52256 5.52245H5.52159C5.26692 5.77742 4.65503 6.05174 3.98936 6.3623C3.32369 6.67286 2.52926 7.05565 2.16807 7.92773C1.80703 8.79986 2.09859 9.63293 2.34971 10.3232C2.60083 11.0135 2.83912 11.6396 2.83897 12C2.83883 12.3266 2.59782 12.9487 2.34288 13.6426C2.08793 14.3365 1.80134 15.1885 2.16807 16.0732C2.53443 16.9581 3.33903 17.3576 4.00987 17.668C4.68071 17.9783 5.29065 18.2467 5.52159 18.4775V18.4785H5.52256C5.77753 18.7332 6.05087 19.3451 6.36143 20.0107C6.67199 20.6764 7.05479 21.4708 7.92686 21.832C8.799 22.1931 9.63206 21.9015 10.3224 21.6504C11.0127 21.3993 11.6397 21.161 12.0001 21.1611C12.3267 21.1613 12.9488 21.4023 13.6427 21.6572C14.3366 21.9122 15.1876 22.1988 16.0724 21.832C16.9572 21.4657 17.3567 20.6611 17.6671 19.9902C17.9775 19.3194 18.2468 18.7094 18.4776 18.4785V18.4775C18.7323 18.2226 19.3442 17.9492 20.0099 17.6387C20.6755 17.3281 21.4709 16.9453 21.8321 16.0732C22.1932 15.2011 21.9016 14.368 21.6505 13.6777C21.3994 12.9874 21.1601 12.3604 21.1603 12C21.1604 11.6733 21.4024 11.0513 21.6573 10.3574C21.9123 9.66352 22.1989 8.81251 21.8321 7.92773C21.4658 7.0429 20.6612 6.64338 19.9903 6.333C19.3195 6.02262 18.7086 5.75325 18.4776 5.52245C18.2227 5.26779 17.9484 4.6559 17.6378 3.99023C17.3272 3.32455 16.9444 2.52915 16.0724 2.16796C15.2002 1.80691 14.3672 2.09848 13.6769 2.3496C12.9866 2.60072 12.3605 2.83998 12.0001 2.83984C11.6735 2.8397 11.0514 2.59771 10.3575 2.34277C10.0106 2.21529 9.62422 2.08012 9.21397 2.02245C9.11141 2.00803 9.00778 1.9985 8.90245 1.99511ZM9.2501 7.49999C10.2166 7.49999 11.0001 8.28349 11.0001 9.24999C11.0001 10.2165 10.2166 11 9.2501 11C8.2836 11 7.5001 10.2165 7.5001 9.24999C7.5001 8.28349 8.2836 7.49999 9.2501 7.49999ZM15.7501 7.49999C15.942 7.49999 16.1339 7.57322 16.2804 7.71972C16.5734 8.01272 16.5734 8.48727 16.2804 8.78027L8.78038 16.2803C8.63388 16.4268 8.4421 16.5 8.2501 16.5C8.0581 16.5 7.86583 16.4268 7.71983 16.2803C7.42683 15.9873 7.42683 15.5127 7.71983 15.2197L15.2198 7.71972C15.3663 7.57322 15.5582 7.49999 15.7501 7.49999ZM14.7501 13C15.7166 13 16.5001 13.7835 16.5001 14.75C16.5001 15.7165 15.7166 16.5 14.7501 16.5C13.7836 16.5 13.0001 15.7165 13.0001 14.75C13.0001 13.7835 13.7836 13 14.7501 13Z" fill="black"/>
</svg>
