<svg width="24" height="24" viewBox="0 0 24 24" fill="none" xmlns="http://www.w3.org/2000/svg">
<path d="M8 3.75C7.66848 3.75 7.35054 3.8817 7.11612 4.11612C6.8817 4.35054 6.75 4.66848 6.75 5V19C6.75 19.3315 6.8817 19.6495 7.11612 19.8839C7.35054 20.1183 7.66848 20.25 8 20.25H10C10.4142 20.25 10.75 20.5858 10.75 21C10.75 21.4142 10.4142 21.75 10 21.75H8C7.27065 21.75 6.57118 21.4603 6.05546 20.9445C5.53973 20.4288 5.25 19.7293 5.25 19V5C5.25 4.27065 5.53973 3.57118 6.05546 3.05546C6.57118 2.53973 7.27065 2.25 8 2.25H16C16.7293 2.25 17.4288 2.53973 17.9445 3.05546C18.4603 3.57118 18.75 4.27065 18.75 5V8.5C18.75 8.91421 18.4142 9.25 18 9.25C17.5858 9.25 17.25 8.91421 17.25 8.5V5C17.25 4.66848 17.1183 4.35054 16.8839 4.11612C16.6495 3.8817 16.3315 3.75 16 3.75H13.7073C13.735 3.82819 13.75 3.91234 13.75 4C13.75 4.41421 13.4142 4.75 13 4.75H11C10.5858 4.75 10.25 4.41421 10.25 4C10.25 3.91234 10.265 3.82819 10.2927 3.75H8Z" fill="black"/>
<path fill-rule="evenodd" clip-rule="evenodd" d="M16.6025 11.364C16.8457 11.212 17.1543 11.212 17.3975 11.364L21.3891 13.8588C21.4583 13.9006 21.5214 13.9542 21.5752 14.0187C21.6155 14.0668 21.6495 14.1197 21.6764 14.1761C21.7278 14.283 21.7516 14.3973 21.75 14.5103V19C21.75 19.2586 21.6168 19.4989 21.3975 19.636L17.4115 22.1272C17.3503 22.1673 17.2839 22.198 17.2146 22.2187C17.1777 22.2297 17.1401 22.2378 17.1022 22.243C16.9395 22.2655 16.7685 22.2349 16.617 22.1448L16.6 22.1344L12.6025 19.636C12.3832 19.4989 12.25 19.2586 12.25 19V14.5C12.25 14.3117 12.3194 14.1396 12.434 14.0079C12.4573 13.981 12.4827 13.9557 12.5099 13.9322C12.5422 13.9044 12.5768 13.8792 12.6135 13.8571L16.6025 11.364ZM17 12.8844L19.585 14.5L17.0001 16.1156L14.4151 14.5L17 12.8844ZM17.75 20.1468V17.4158L20.25 15.8533V18.5843L17.75 20.1468ZM13.75 15.8532V18.5843L16.25 20.1468V17.4157L13.75 15.8532Z" fill="black"/>
</svg>
