<svg width="24" height="24" viewBox="0 0 24 24" fill="none" xmlns="http://www.w3.org/2000/svg">
<path d="M19.75 4H4.25C3.0095 4 2 5.0095 2 6.25V17.75C2 18.9905 3.0095 20 4.25 20H19.75C20.9905 20 22 18.9905 22 17.75V6.25C22 5.0095 20.9905 4 19.75 4ZM3.5 15C3.5 14.4475 3.9475 14 4.5 14C5.0525 14 5.5 14.4475 5.5 15C5.5 15.5525 5.0525 16 4.5 16C3.9475 16 3.5 15.5525 3.5 15ZM7 17.5V8.5H8.25C8.665 8.5 9 8.165 9 7.75C9 7.335 8.665 7 8.25 7H7V6.5C7 5.95 7.45 5.5 8 5.5H9.5C10.05 5.5 10.5 5.95 10.5 6.5V17.5C10.5 18.05 10.05 18.5 9.5 18.5H8C7.45 18.5 7 18.05 7 17.5ZM15.5 6.5V17.5C15.5 18.05 15.05 18.5 14.5 18.5H13C12.45 18.5 12 18.05 12 17.5V8.5H13.25C13.665 8.5 14 8.165 14 7.75C14 7.335 13.665 7 13.25 7H12V6.5C12 5.95 12.45 5.5 13 5.5H14.5C15.05 5.5 15.5 5.95 15.5 6.5ZM17 17.5V8.5H18.25C18.665 8.5 19 8.165 19 7.75C19 7.335 18.665 7 18.25 7H17V6.5C17 5.95 17.45 5.5 18 5.5H19.5C20.05 5.5 20.5 5.95 20.5 6.5V17.5C20.5 18.05 20.05 18.5 19.5 18.5H18C17.45 18.5 17 18.05 17 17.5Z" fill="black"/>
</svg>
