<svg width="24" height="24" viewBox="0 0 24 24" fill="none" xmlns="http://www.w3.org/2000/svg">
<path d="M6 4.75C5.66848 4.75 5.35054 4.8817 5.11612 5.11612C4.8817 5.35054 4.75 5.66848 4.75 6V8C4.75 8.41421 4.41421 8.75 4 8.75C3.58579 8.75 3.25 8.41421 3.25 8V6C3.25 5.27065 3.53973 4.57118 4.05546 4.05546C4.57118 3.53973 5.27065 3.25 6 3.25H8C8.41421 3.25 8.75 3.58579 8.75 4C8.75 4.41421 8.41421 4.75 8 4.75H6Z" fill="black"/>
<path d="M4 15.25C4.41421 15.25 4.75 15.5858 4.75 16V18C4.75 18.3315 4.8817 18.6495 5.11612 18.8839C5.35054 19.1183 5.66848 19.25 6 19.25H8C8.41421 19.25 8.75 19.5858 8.75 20C8.75 20.4142 8.41421 20.75 8 20.75H6C5.27065 20.75 4.57118 20.4603 4.05546 19.9445C3.53973 19.4288 3.25 18.7293 3.25 18V16C3.25 15.5858 3.58579 15.25 4 15.25Z" fill="black"/>
<path d="M16 3.25C15.5858 3.25 15.25 3.58579 15.25 4C15.25 4.41421 15.5858 4.75 16 4.75H18C18.3315 4.75 18.6495 4.8817 18.8839 5.11612C19.1183 5.35054 19.25 5.66848 19.25 6V8C19.25 8.41421 19.5858 8.75 20 8.75C20.4142 8.75 20.75 8.41421 20.75 8V6C20.75 5.27065 20.4603 4.57118 19.9445 4.05546C19.4288 3.53973 18.7293 3.25 18 3.25H16Z" fill="black"/>
<path d="M20 15.25C20.4142 15.25 20.75 15.5858 20.75 16V18C20.75 18.7293 20.4603 19.4288 19.9445 19.9445C19.4288 20.4603 18.7293 20.75 18 20.75H16C15.5858 20.75 15.25 20.4142 15.25 20C15.25 19.5858 15.5858 19.25 16 19.25H18C18.3315 19.25 18.6495 19.1183 18.8839 18.8839C19.1183 18.6495 19.25 18.3315 19.25 18V16C19.25 15.5858 19.5858 15.25 20 15.25Z" fill="black"/>
<path fill-rule="evenodd" clip-rule="evenodd" d="M12.3975 6.864L16.3891 9.35876C16.4583 9.40064 16.5214 9.4542 16.5752 9.51868C16.6155 9.5668 16.6494 9.6197 16.6764 9.67607C16.7278 9.78296 16.7516 9.89733 16.75 10.0103V14.5C16.75 14.7586 16.6168 14.9989 16.3975 15.136L12.4115 17.6273C12.3565 17.6632 12.2974 17.6916 12.2358 17.712C12.2011 17.7235 12.1658 17.7323 12.1302 17.7386C12.1261 17.7393 12.122 17.74 12.118 17.7407C11.9489 17.7677 11.77 17.7372 11.6125 17.6422C11.6084 17.6397 11.6044 17.6372 11.6003 17.6346L7.6025 15.136C7.38321 14.9989 7.25 14.7586 7.25 14.5V10C7.25 9.81172 7.31938 9.63964 7.43397 9.50794C7.45734 9.48105 7.48271 9.45574 7.50994 9.43224C7.54218 9.40438 7.57683 9.37922 7.61352 9.35712L11.6025 6.864C11.8457 6.712 12.1543 6.712 12.3975 6.864ZM12.0001 11.6156L14.585 10L12 8.38444L9.4151 10L12.0001 11.6156ZM8.75 11.3532V14.0843L11.25 15.6468V12.9157L8.75 11.3532ZM12.75 15.6468V12.9158L15.25 11.3533V14.0843L12.75 15.6468Z" fill="black"/>
</svg>
