<svg width="24" height="24" viewBox="0 0 24 24" fill="none" xmlns="http://www.w3.org/2000/svg">
<g clip-path="url(#clip0_4478_2212)">
<path fill-rule="evenodd" clip-rule="evenodd" d="M0.74994 3.00001C0.650556 2.99861 0.551884 3.01697 0.459657 3.05403C0.367431 3.09109 0.28349 3.14611 0.212713 3.21589C0.141936 3.28568 0.0857338 3.36883 0.0473731 3.46052C0.00901227 3.55222 -0.0107422 3.65062 -0.0107422 3.75001C-0.0107422 3.84941 0.00901227 3.94781 0.0473731 4.0395C0.0857338 4.1312 0.141936 4.21435 0.212713 4.28413C0.28349 4.35392 0.367431 4.40894 0.459657 4.446C0.551884 4.48306 0.650556 4.50142 0.74994 4.50001H2.12787C2.49184 4.50001 2.79523 4.75148 2.8642 5.10939L3.01166 5.88283L3.01212 5.88611L3.01263 5.88966L4.62592 14.3584C4.91742 15.8894 6.26078 17 7.81928 17H11.1739C11.0602 16.5185 11 16.0163 11 15.5C11 11.9102 13.9102 9 17.5 9C18.865 9 20.1318 9.42078 21.1776 10.1397L21.9872 5.88966C22.0282 5.67066 21.9701 5.444 21.8281 5.2715C21.6856 5.0995 21.4734 5.00001 21.2499 5.00001H4.37006L4.33783 4.82912C4.13627 3.77278 3.20342 3.00001 2.12787 3.00001H0.74994ZM10.7499 8.00001H14.7499C15.1639 8.00001 15.4999 8.33601 15.4999 8.75001C15.4999 9.16401 15.1639 9.50001 14.7499 9.50001H10.7499C10.3359 9.50001 9.99994 9.16401 9.99994 8.75001C9.99994 8.33601 10.3359 8.00001 10.7499 8.00001ZM8.99994 18C8.60212 18 8.22058 18.1581 7.93928 18.4394C7.65798 18.7207 7.49994 19.1022 7.49994 19.5C7.49994 19.8978 7.65798 20.2794 7.93928 20.5607C8.22058 20.842 8.60212 21 8.99994 21C9.39776 21 9.7793 20.842 10.0606 20.5607C10.3419 20.2794 10.4999 19.8978 10.4999 19.5C10.4999 19.1022 10.3419 18.7207 10.0606 18.4394C9.7793 18.1581 9.39776 18 8.99994 18ZM12 15.5C12 12.4625 14.4625 10 17.5 10C20.5375 10 23 12.4625 23 15.5C23 18.5375 20.5375 21 17.5 21C14.4625 21 12 18.5375 12 15.5ZM20.8534 13.1465C20.7557 13.0487 20.6278 13 20.4999 13C20.372 13 20.2441 13.0487 20.1464 13.1465L16.4999 16.793L14.8534 15.1465C14.6579 14.951 14.3419 14.951 14.1464 15.1465C13.9509 15.342 13.9509 15.658 14.1464 15.8535L16.1464 17.8535C16.2439 17.951 16.3719 18 16.4999 18C16.6279 18 16.7559 17.951 16.8534 17.8535L20.8534 13.8535C21.0489 13.658 21.0489 13.342 20.8534 13.1465Z" fill="black"/>
</g>
<defs>
<clipPath id="clip0_4478_2212">
<rect width="24" height="24" fill="white"/>
</clipPath>
</defs>
</svg>
