<svg width="24" height="24" viewBox="0 0 24 24" fill="none" xmlns="http://www.w3.org/2000/svg">
<g clip-path="url(#clip0_4478_2210)">
<path fill-rule="evenodd" clip-rule="evenodd" d="M0.74994 3.00001C0.650556 2.99861 0.551884 3.01697 0.459657 3.05403C0.367431 3.09109 0.28349 3.14611 0.212713 3.21589C0.141936 3.28568 0.0857338 3.36883 0.0473731 3.46052C0.00901227 3.55222 -0.0107422 3.65062 -0.0107422 3.75001C-0.0107422 3.84941 0.00901227 3.94781 0.0473731 4.0395C0.0857338 4.1312 0.141936 4.21435 0.212713 4.28413C0.28349 4.35392 0.367431 4.40894 0.459657 4.446C0.551884 4.48306 0.650556 4.50142 0.74994 4.50001H2.12787C2.49184 4.50001 2.79523 4.75148 2.8642 5.10939L3.01361 5.89064L4.62592 14.3584C4.91747 15.8862 6.26351 17 7.81928 17H11.1739C11.0602 16.5185 11 16.0163 11 15.5H7.81928C6.97434 15.5 6.25833 14.9079 6.09955 14.0781L4.65619 6.50001H20.3437L19.7886 9.41437C20.283 9.60037 20.7487 9.84489 21.1773 10.1395L21.9863 5.89064C22.0069 5.78222 22.0034 5.67057 21.976 5.56366C21.9486 5.45675 21.8979 5.35722 21.8276 5.27215C21.7572 5.18709 21.669 5.11859 21.5692 5.07155C21.4693 5.02451 21.3603 5.00008 21.2499 5.00001H4.37006L4.33783 4.82912C4.13627 3.77278 3.20342 3.00001 2.12787 3.00001H0.74994ZM10.7499 8.00001C10.6506 7.99861 10.5519 8.01697 10.4597 8.05403C10.3674 8.09109 10.2835 8.14611 10.2127 8.21589C10.1419 8.28568 10.0857 8.36883 10.0474 8.46052C10.009 8.55222 9.98926 8.65062 9.98926 8.75001C9.98926 8.84941 10.009 8.94781 10.0474 9.0395C10.0857 9.1312 10.1419 9.21435 10.2127 9.28413C10.2835 9.35392 10.3674 9.40894 10.4597 9.446C10.5519 9.48306 10.6506 9.50142 10.7499 9.50001H14.7499C14.8493 9.50142 14.948 9.48306 15.0402 9.446C15.1324 9.40894 15.2164 9.35392 15.2872 9.28413C15.3579 9.21435 15.4141 9.1312 15.4525 9.0395C15.4909 8.94781 15.5106 8.84941 15.5106 8.75001C15.5106 8.65062 15.4909 8.55222 15.4525 8.46052C15.4141 8.36883 15.3579 8.28568 15.2872 8.21589C15.2164 8.14611 15.1324 8.09109 15.0402 8.05403C14.948 8.01697 14.8493 7.99861 14.7499 8.00001H10.7499ZM8.99994 18C8.60212 18 8.22058 18.1581 7.93928 18.4394C7.65798 18.7207 7.49994 19.1022 7.49994 19.5C7.49994 19.8978 7.65798 20.2794 7.93928 20.5607C8.22058 20.842 8.60212 21 8.99994 21C9.39776 21 9.7793 20.842 10.0606 20.5607C10.3419 20.2794 10.4999 19.8978 10.4999 19.5C10.4999 19.1022 10.3419 18.7207 10.0606 18.4394C9.7793 18.1581 9.39776 18 8.99994 18ZM12 15.5C12 12.4625 14.4625 10 17.5 10C20.5375 10 23 12.4625 23 15.5C23 18.5375 20.5375 21 17.5 21C14.4625 21 12 18.5375 12 15.5ZM20.8534 13.1465C20.7557 13.0487 20.6278 13 20.4999 13C20.372 13 20.2441 13.0487 20.1464 13.1465L16.4999 16.793L14.8534 15.1465C14.6579 14.951 14.3419 14.951 14.1464 15.1465C13.9509 15.342 13.9509 15.658 14.1464 15.8535L16.1464 17.8535C16.2439 17.951 16.3719 18 16.4999 18C16.6279 18 16.7559 17.951 16.8534 17.8535L20.8534 13.8535C21.0489 13.658 21.0489 13.342 20.8534 13.1465Z" fill="black"/>
</g>
<defs>
<clipPath id="clip0_4478_2210">
<rect width="24" height="24" fill="white"/>
</clipPath>
</defs>
</svg>
