<svg width="24" height="24" viewBox="0 0 24 24" fill="none" xmlns="http://www.w3.org/2000/svg">
<path d="M1.74994 3.00001C1.65056 2.99861 1.55188 3.01697 1.45966 3.05403C1.36743 3.09109 1.28349 3.14611 1.21271 3.21589C1.14194 3.28568 1.08573 3.36883 1.04737 3.46052C1.00901 3.55222 0.989258 3.65062 0.989258 3.75001C0.989258 3.84941 1.00901 3.94781 1.04737 4.0395C1.08573 4.1312 1.14194 4.21435 1.21271 4.28413C1.28349 4.35392 1.36743 4.40894 1.45966 4.446C1.55188 4.48306 1.65056 4.50142 1.74994 4.50001H3.12787C3.49184 4.50001 3.79523 4.75148 3.8642 5.10939L4.01166 5.88283C4.01207 5.88511 4.0122 5.88738 4.01263 5.88966L5.62592 14.3584C5.91742 15.8894 7.26078 17 8.81928 17H18.1816C19.7401 17 21.082 15.8894 21.374 14.3584L22.9872 5.88966C23.0282 5.67066 22.9701 5.444 22.8281 5.2715C22.6856 5.0995 22.4734 5.00001 22.2499 5.00001H5.37006L5.33783 4.82912C5.13627 3.77278 4.20342 3.00001 3.12787 3.00001H1.74994ZM11.7499 8.00001H15.7499C16.1639 8.00001 16.4999 8.33601 16.4999 8.75001C16.4999 9.16401 16.1639 9.50001 15.7499 9.50001H11.7499C11.3359 9.50001 10.9999 9.16401 10.9999 8.75001C10.9999 8.33601 11.3359 8.00001 11.7499 8.00001ZM9.99994 18C9.60212 18 9.22058 18.1581 8.93928 18.4394C8.65798 18.7207 8.49994 19.1022 8.49994 19.5C8.49994 19.8978 8.65798 20.2794 8.93928 20.5607C9.22058 20.842 9.60212 21 9.99994 21C10.3978 21 10.7793 20.842 11.0606 20.5607C11.3419 20.2794 11.4999 19.8978 11.4999 19.5C11.4999 19.1022 11.3419 18.7207 11.0606 18.4394C10.7793 18.1581 10.3978 18 9.99994 18ZM16.9999 18C16.6021 18 16.2206 18.1581 15.9393 18.4394C15.658 18.7207 15.4999 19.1022 15.4999 19.5C15.4999 19.8978 15.658 20.2794 15.9393 20.5607C16.2206 20.842 16.6021 21 16.9999 21C17.3978 21 17.7793 20.842 18.0606 20.5607C18.3419 20.2794 18.4999 19.8978 18.4999 19.5C18.4999 19.1022 18.3419 18.7207 18.0606 18.4394C17.7793 18.1581 17.3978 18 16.9999 18Z" fill="black"/>
</svg>
