<svg width="24" height="24" viewBox="0 0 24 24" fill="none" xmlns="http://www.w3.org/2000/svg">
<path fill-rule="evenodd" clip-rule="evenodd" d="M4.5 1.75C4.21592 1.75 3.95622 1.9105 3.82918 2.16459L1.82918 6.16459C1.77711 6.26873 1.75 6.38357 1.75 6.5V7.5C1.75 8.49456 2.14509 9.44839 2.84835 10.1517C3.11638 10.4197 3.4208 10.6429 3.75 10.8166V19.75H2.5C2.08579 19.75 1.75 20.0858 1.75 20.5C1.75 20.9142 2.08579 21.25 2.5 21.25H4.4878L4.5 21.2501L4.5122 21.25H10.5C10.9142 21.25 11.25 20.9142 11.25 20.5C11.25 20.0858 10.9142 19.75 10.5 19.75H9.25V16.5C9.25 16.1685 9.3817 15.8505 9.61612 15.6161C9.85054 15.3817 10.1685 15.25 10.5 15.25H12.5C12.9142 15.25 13.25 14.9142 13.25 14.5C13.25 14.0858 12.9142 13.75 12.5 13.75H10.5C9.77065 13.75 9.07118 14.0397 8.55546 14.5555C8.03973 15.0712 7.75 15.7707 7.75 16.5V19.75H5.25V11.2417C5.33296 11.2472 5.41634 11.25 5.5 11.25C6.49456 11.25 7.44839 10.8549 8.15165 10.1517C8.27786 10.0254 8.39414 9.89116 8.5 9.75003C8.60586 9.89116 8.72214 10.0254 8.84835 10.1517C9.55161 10.8549 10.5054 11.25 11.5 11.25C12.4946 11.25 13.4484 10.8549 14.1517 10.1517C14.2779 10.0254 14.3941 9.89116 14.5 9.75002C14.6059 9.89116 14.7221 10.0254 14.8483 10.1517C15.5516 10.8549 16.5054 11.25 17.5 11.25C18.4946 11.25 19.4484 10.8549 20.1517 10.1517C20.8549 9.44839 21.25 8.49456 21.25 7.5V6.5C21.25 6.38357 21.2229 6.26873 21.1708 6.16459L19.1708 2.16459C19.0438 1.9105 18.7841 1.75 18.5 1.75H4.5ZM9.90901 9.09099C9.48705 8.66903 9.25 8.09674 9.25 7.5V7.25H13.75V7.5C13.75 8.09674 13.5129 8.66903 13.091 9.09099C12.669 9.51295 12.0967 9.75 11.5 9.75C10.9033 9.75 10.331 9.51295 9.90901 9.09099ZM7.75 7.5V7.25H3.25V7.5C3.25 8.09674 3.48705 8.66903 3.90901 9.09099C4.33097 9.51295 4.90326 9.75 5.5 9.75C6.09674 9.75 6.66903 9.51295 7.09099 9.09099C7.51295 8.66903 7.75 8.09674 7.75 7.5ZM18.0365 3.25L19.2865 5.75H3.71353L4.96353 3.25H18.0365ZM15.25 7.25H19.75V7.5C19.75 8.09674 19.5129 8.66903 19.091 9.09099C18.669 9.51295 18.0967 9.75 17.5 9.75C16.9033 9.75 16.331 9.51295 15.909 9.09099C15.4871 8.66903 15.25 8.09674 15.25 7.5V7.25Z" fill="black"/>
<path fill-rule="evenodd" clip-rule="evenodd" d="M15.5555 13.5555C16.0712 13.0397 16.7707 12.75 17.5 12.75C18.2293 12.75 18.9288 13.0397 19.4445 13.5555C19.9603 14.0712 20.25 14.7707 20.25 15.5C20.25 16.2293 19.9603 16.9288 19.4445 17.4445C18.9288 17.9603 18.2293 18.25 17.5 18.25C16.7707 18.25 16.0712 17.9603 15.5555 17.4445C15.0397 16.9288 14.75 16.2293 14.75 15.5C14.75 14.7707 15.0397 14.0712 15.5555 13.5555ZM17.5 14.25C17.1685 14.25 16.8505 14.3817 16.6161 14.6161C16.3817 14.8505 16.25 15.1685 16.25 15.5C16.25 15.8315 16.3817 16.1495 16.6161 16.3839C16.8505 16.6183 17.1685 16.75 17.5 16.75C17.8315 16.75 18.1495 16.6183 18.3839 16.3839C18.6183 16.1495 18.75 15.8315 18.75 15.5C18.75 15.1685 18.6183 14.8505 18.3839 14.6161C18.1495 14.3817 17.8315 14.25 17.5 14.25Z" fill="black"/>
<path d="M14.6161 20.6161C14.8505 20.3817 15.1685 20.25 15.5 20.25H19.5C19.8315 20.25 20.1495 20.3817 20.3839 20.6161C20.6183 20.8505 20.75 21.1685 20.75 21.5C20.75 21.9142 21.0858 22.25 21.5 22.25C21.9142 22.25 22.25 21.9142 22.25 21.5C22.25 20.7707 21.9603 20.0712 21.4445 19.5555C20.9288 19.0397 20.2293 18.75 19.5 18.75H15.5C14.7707 18.75 14.0712 19.0397 13.5555 19.5555C13.0397 20.0712 12.75 20.7707 12.75 21.5C12.75 21.9142 13.0858 22.25 13.5 22.25C13.9142 22.25 14.25 21.9142 14.25 21.5C14.25 21.1685 14.3817 20.8505 14.6161 20.6161Z" fill="black"/>
</svg>
