<svg width="24" height="24" viewBox="0 0 24 24" fill="none" xmlns="http://www.w3.org/2000/svg">
<path d="M8.25 2C7.01625 2 6 3.01625 6 4.25V19.75C6 20.9838 7.01625 22 8.25 22H15.75C16.9838 22 18 20.9838 18 19.75V16.5H16.5V19.75C16.5 20.1733 16.1732 20.5 15.75 20.5H8.25C7.82675 20.5 7.5 20.1733 7.5 19.75V4.25C7.5 3.82675 7.82675 3.5 8.25 3.5H15.75C16.1732 3.5 16.5 3.82675 16.5 4.25V7H18V4.25C18 3.01625 16.9838 2 15.75 2H8.25ZM12 5C11.8011 5 11.6103 5.07902 11.4697 5.21967C11.329 5.36032 11.25 5.55109 11.25 5.75C11.25 5.94891 11.329 6.13968 11.4697 6.28033C11.6103 6.42098 11.8011 6.5 12 6.5C12.1989 6.5 12.3897 6.42098 12.5303 6.28033C12.671 6.13968 12.75 5.94891 12.75 5.75C12.75 5.55109 12.671 5.36032 12.5303 5.21967C12.3897 5.07902 12.1989 5 12 5ZM11.25 8C10.6448 8 10.1408 8.4299 10.0254 9.00098C10.0085 9.08176 10 9.16478 10 9.25V14.25C10 14.3352 10.0085 14.4182 10.0254 14.499C10.1246 14.9896 10.5104 15.3754 11.001 15.4746C11.0818 15.4915 11.1648 15.5 11.25 15.5H21.75C21.8352 15.5 21.9182 15.4915 21.999 15.4746C22.4896 15.3754 22.8754 14.9896 22.9746 14.499C22.9915 14.4182 23 14.3352 23 14.25V9.25C23 9.16478 22.9915 9.08176 22.9746 9.00098C22.8754 8.51041 22.4896 8.12456 21.999 8.02539C21.9182 8.00852 21.8352 8 21.75 8H11.25ZM12.4746 9.5H20.5254C20.6248 9.98981 21.0102 10.3752 21.5 10.4746V13.0254C21.0102 13.1248 20.6248 13.5102 20.5254 14H12.4746C12.3752 13.5102 11.9898 13.1248 11.5 13.0254V10.4746C11.9898 10.3752 12.3752 9.98981 12.4746 9.5ZM16.5 10C15.6715 10 15 10.7835 15 11.75C15 12.7165 15.6715 13.5 16.5 13.5C17.3285 13.5 18 12.7165 18 11.75C18 10.7835 17.3285 10 16.5 10ZM13.25 11C13.0511 11 12.8603 11.079 12.7197 11.2197C12.579 11.3603 12.5 11.5511 12.5 11.75C12.5 11.9489 12.579 12.1397 12.7197 12.2803C12.8603 12.421 13.0511 12.5 13.25 12.5C13.4489 12.5 13.6397 12.421 13.7803 12.2803C13.921 12.1397 14 11.9489 14 11.75C14 11.5511 13.921 11.3603 13.7803 11.2197C13.6397 11.079 13.4489 11 13.25 11ZM19.75 11C19.5511 11 19.3603 11.079 19.2197 11.2197C19.079 11.3603 19 11.5511 19 11.75C19 11.9489 19.079 12.1397 19.2197 12.2803C19.3603 12.421 19.5511 12.5 19.75 12.5C19.9489 12.5 20.1397 12.421 20.2803 12.2803C20.421 12.1397 20.5 11.9489 20.5 11.75C20.5 11.5511 20.421 11.3603 20.2803 11.2197C20.1397 11.079 19.9489 11 19.75 11ZM10.75 17.5C10.6506 17.4986 10.5519 17.517 10.4597 17.554C10.3675 17.5911 10.2836 17.6461 10.2128 17.7159C10.142 17.7857 10.0858 17.8688 10.0474 17.9605C10.0091 18.0522 9.98932 18.1506 9.98932 18.25C9.98932 18.3494 10.0091 18.4478 10.0474 18.5395C10.0858 18.6312 10.142 18.7143 10.2128 18.7841C10.2836 18.8539 10.3675 18.9089 10.4597 18.946C10.5519 18.983 10.6506 19.0014 10.75 19H13.25C13.3494 19.0014 13.4481 18.983 13.5403 18.946C13.6325 18.9089 13.7164 18.8539 13.7872 18.7841C13.858 18.7143 13.9142 18.6312 13.9526 18.5395C13.9909 18.4478 14.0107 18.3494 14.0107 18.25C14.0107 18.1506 13.9909 18.0522 13.9526 17.9605C13.9142 17.8688 13.858 17.7857 13.7872 17.7159C13.7164 17.6461 13.6325 17.5911 13.5403 17.554C13.4481 17.517 13.3494 17.4986 13.25 17.5H10.75Z" fill="black"/>
</svg>
