<svg width="24" height="24" viewBox="0 0 24 24" fill="none" xmlns="http://www.w3.org/2000/svg">
<path fill-rule="evenodd" clip-rule="evenodd" d="M3.32918 2.66459C3.45622 2.4105 3.71592 2.25 4 2.25H18C18.2841 2.25 18.5438 2.4105 18.6708 2.66459L20.6708 6.66459C20.7229 6.76873 20.75 6.88357 20.75 7V8C20.75 8.99456 20.3549 9.94839 19.6517 10.6517C19.3836 10.9197 19.0792 11.1429 18.75 11.3166V11.8779C17.8473 11.5586 16.8049 11.8434 16.2 12.6499L14.7 14.6499C14.1 15.4499 14.1 16.5499 14.7 17.3499L16.2 19.3499C16.8049 20.1564 17.8473 20.4412 18.75 20.1218V20.25H20C20.4142 20.25 20.75 20.5858 20.75 21C20.75 21.4142 20.4142 21.75 20 21.75H18.0488C18.0327 21.751 18.0164 21.7516 18 21.7516C17.9836 21.7516 17.9673 21.751 17.9512 21.75H4.0488C4.03267 21.751 4.01639 21.7516 4 21.7516C3.98361 21.7516 3.96733 21.751 3.9512 21.75H2C1.58579 21.75 1.25 21.4142 1.25 21C1.25 20.5858 1.58579 20.25 2 20.25H3.25V11.3166C2.9208 11.1429 2.61638 10.9197 2.34835 10.6517C1.64509 9.94839 1.25 8.99456 1.25 8V7C1.25 6.88357 1.27711 6.76873 1.32918 6.66459L3.32918 2.66459ZM13.25 20.25V17C13.25 16.6685 13.1183 16.3505 12.8839 16.1161C12.6495 15.8817 12.3315 15.75 12 15.75H10C9.66848 15.75 9.35054 15.8817 9.11612 16.1161C8.8817 16.3505 8.75 16.6685 8.75 17V20.25H13.25ZM8.75 8C8.75 8.59674 8.98705 9.16903 9.40901 9.59099C9.83097 10.0129 10.4033 10.25 11 10.25C11.5967 10.25 12.169 10.0129 12.591 9.59099C13.0129 9.16903 13.25 8.59674 13.25 8V7.75H8.75V8ZM7.25 7.75V8C7.25 8.59674 7.01295 9.16903 6.59099 9.59099C6.16903 10.0129 5.59674 10.25 5 10.25C4.40326 10.25 3.83097 10.0129 3.40901 9.59099C2.98705 9.16903 2.75 8.59674 2.75 8V7.75H7.25ZM19.25 7.75H14.75V8C14.75 8.59674 14.9871 9.16903 15.409 9.59099C15.831 10.0129 16.4033 10.25 17 10.25C17.5967 10.25 18.169 10.0129 18.591 9.59099C19.0129 9.16903 19.25 8.59674 19.25 8V7.75Z" fill="black"/>
<path d="M22 15.25C22.4142 15.25 22.75 15.5857 22.75 16C22.75 16.4142 22.4142 16.75 22 16.75H18L18.6 17.55C18.8485 17.8813 18.7814 18.3514 18.45 18.6C18.1186 18.8485 17.6485 18.7813 17.4 18.45L15.9 16.45C15.7 16.1833 15.7 15.8166 15.9 15.55L17.4 13.55C17.6485 13.2186 18.1186 13.1514 18.45 13.4C18.7814 13.6485 18.8485 14.1186 18.6 14.45L18 15.25H22Z" fill="black"/>
</svg>
