<svg width="24" height="24" viewBox="0 0 24 24" fill="none" xmlns="http://www.w3.org/2000/svg">
<path d="M3.25 3.5C2.01625 3.5 1 4.51625 1 5.75V16.75C1 17.9838 2.01625 19 3.25 19H3.60742C3.93712 20.1492 5.00013 21 6.25 21C7.49987 21 8.56288 20.1492 8.89258 19H15.1074C15.4371 20.1492 16.5001 21 17.75 21C18.9999 21 20.0629 20.1492 20.3926 19H20.75C21.9838 19 23 17.9838 23 16.75V13.5684C23 13.2527 22.9334 12.9425 22.8066 12.6562L22.8057 12.6553L21.3311 9.33691C20.971 8.52614 20.1624 8 19.2754 8H16V5.75C16 4.51625 14.9838 3.5 13.75 3.5H3.25ZM3.25 5H13.75C14.1732 5 14.5 5.32675 14.5 5.75V8.75V17.5H8.89258C8.56288 16.3508 7.49987 15.5 6.25 15.5C5.00013 15.5 3.93712 16.3508 3.60742 17.5H3.25C2.82675 17.5 2.5 17.1732 2.5 16.75V5.75C2.5 5.32675 2.82675 5 3.25 5ZM16 9.5H19.2754C19.5741 9.5 19.8389 9.67253 19.96 9.94531L20.873 12H16V9.5ZM16 13.5H21.4932C21.4953 13.5228 21.5 13.5456 21.5 13.5684V16.75C21.5 17.1732 21.1733 17.5 20.75 17.5H20.3926C20.0629 16.3508 18.9999 15.5 17.75 15.5C17.087 15.5 16.4768 15.7396 16 16.1357V13.5ZM6.25 17C6.92437 17 7.45724 17.5164 7.49316 18.1807C7.48888 18.2268 7.48888 18.2732 7.49316 18.3193C7.45724 18.9836 6.92437 19.5 6.25 19.5C5.57563 19.5 5.04276 18.9836 5.00684 18.3193C5.01112 18.2732 5.01112 18.2268 5.00684 18.1807C5.04276 17.5164 5.57563 17 6.25 17ZM17.75 17C18.4482 17 19 17.5518 19 18.25C19 18.9482 18.4482 19.5 17.75 19.5C17.0518 19.5 16.5 18.9482 16.5 18.25C16.5 17.5518 17.0518 17 17.75 17Z" fill="black"/>
</svg>
