<svg width="24" height="24" viewBox="0 0 24 24" fill="none" xmlns="http://www.w3.org/2000/svg">
<path fill-rule="evenodd" clip-rule="evenodd" d="M7.2499 3.12924C7.61992 2.88198 8.05496 2.75 8.5 2.75C8.94504 2.75 9.38008 2.88198 9.7501 3.12924C10.1201 3.3765 10.4085 3.72795 10.5788 4.13912C10.7491 4.55029 10.7936 5.00273 10.7067 5.4392C10.6198 5.87568 10.4055 6.27659 10.0908 6.59123L10.0899 6.59204C9.93143 6.75099 9.69563 6.96973 9.3803 7.25C9.13484 7.46817 8.84066 7.72408 8.49781 8.0176C8.15908 7.72952 7.86488 7.47386 7.61425 7.25C7.3199 6.98708 7.08565 6.76805 6.90996 6.59194L6.90925 6.59123C6.59451 6.27659 6.38016 5.87568 6.29328 5.4392C6.20641 5.00273 6.25093 4.55029 6.42121 4.13912C6.59149 3.72795 6.87987 3.3765 7.2499 3.12924ZM9.25 5C9.25 4.58579 8.91421 4.25 8.5 4.25C8.08579 4.25 7.75 4.58579 7.75 5V5.01C7.75 5.42421 8.08579 5.76 8.5 5.76C8.91421 5.76 9.25 5.42421 9.25 5.01V5Z" fill="black"/>
<path fill-rule="evenodd" clip-rule="evenodd" d="M4.35424 20.75C4.35896 20.7666 4.36384 20.7832 4.36887 20.7998C4.49908 21.2281 4.73313 21.6222 5.05546 21.9445C5.57118 22.4603 6.27065 22.75 7 22.75C7.72935 22.75 8.42882 22.4603 8.94454 21.9445C9.27932 21.6098 9.51887 21.1975 9.64576 20.75H14.3542C14.359 20.7666 14.3638 20.7832 14.3689 20.7998C14.4991 21.2281 14.7331 21.6222 15.0555 21.9445C15.5712 22.4603 16.2707 22.75 17 22.75C17.7293 22.75 18.4288 22.4603 18.9445 21.9445C19.2793 21.6098 19.5189 21.1975 19.6458 20.75H21C21.4142 20.75 21.75 20.4142 21.75 20V14C21.75 13.8836 21.7229 13.7687 21.6708 13.6646L19.6708 9.66459C19.5438 9.4105 19.2841 9.25 19 9.25H14.75V8C14.75 7.58579 14.4142 7.25 14 7.25H11.5C11.394 7.3914 11.2776 7.52567 11.1517 7.65165C10.7639 8.04038 10.0325 8.6857 8.98468 9.57299C8.70617 9.80884 8.29832 9.80997 8.0185 9.57567C7.02081 8.74025 6.29155 8.09591 5.84804 7.65134C5.72218 7.52545 5.60596 7.39128 5.5 7.25H4C3.53587 7.25 3.09075 7.43437 2.76256 7.76256C2.43437 8.09075 2.25 8.53587 2.25 9V20C2.25 20.4142 2.58579 20.75 3 20.75H4.35424ZM6.2078 19.0331C6.43023 18.8508 6.70992 18.75 7 18.75C7.33152 18.75 7.64946 18.8817 7.88388 19.1161C8.1183 19.3505 8.25 19.6685 8.25 20C8.25 20.3315 8.1183 20.6495 7.88388 20.8839C7.64946 21.1183 7.33152 21.25 7 21.25C6.66848 21.25 6.35054 21.1183 6.11612 20.8839C5.8817 20.6495 5.75 20.3315 5.75 20C5.75 19.6685 5.8817 19.3505 6.11612 19.1161C6.14542 19.0868 6.17603 19.0591 6.2078 19.0331ZM16.2078 19.0331C16.4302 18.8508 16.7099 18.75 17 18.75C17.3315 18.75 17.6495 18.8817 17.8839 19.1161C18.1183 19.3505 18.25 19.6685 18.25 20C18.25 20.3315 18.1183 20.6495 17.8839 20.8839C17.6495 21.1183 17.3315 21.25 17 21.25C16.6685 21.25 16.3505 21.1183 16.1161 20.8839C15.8817 20.6495 15.75 20.3315 15.75 20C15.75 19.6685 15.8817 19.3505 16.1161 19.1161C16.1454 19.0868 16.176 19.0591 16.2078 19.0331ZM7.25 12C7.25 11.5858 6.91421 11.25 6.5 11.25C6.08579 11.25 5.75 11.5858 5.75 12V15C5.75 15.4142 6.08579 15.75 6.5 15.75C6.91421 15.75 7.25 15.4142 7.25 15V12ZM10.5 11.25C10.9142 11.25 11.25 11.5858 11.25 12V15C11.25 15.4142 10.9142 15.75 10.5 15.75C10.0858 15.75 9.75 15.4142 9.75 15V12C9.75 11.5858 10.0858 11.25 10.5 11.25ZM19.7865 13.25H14.75V10.75H18.5365L19.7865 13.25Z" fill="black"/>
</svg>
