<svg width="24" height="24" viewBox="0 0 24 24" fill="none" xmlns="http://www.w3.org/2000/svg">
<path fill-rule="evenodd" clip-rule="evenodd" d="M3 4.5V3.5H21V4.5C21 4.77614 20.7761 5 20.5 5H15H9H3.5C3.22386 5 3 4.77614 3 4.5ZM9 6.5H3.5C2.39543 6.5 1.5 5.60457 1.5 4.5V3C1.5 2.44772 1.94772 2 2.5 2H21.5C22.0523 2 22.5 2.44772 22.5 3V4.5C22.5 5.60457 21.6046 6.5 20.5 6.5H15V8H16.0747C17.4893 8 18.7117 8.9882 19.0081 10.3714L20.9816 19.5809C21.2484 20.826 20.2992 22 19.026 22H4.97391C3.70062 22 2.75151 20.826 3.0183 19.5809L4.99177 10.3714C5.28818 8.9882 6.51057 8 7.92518 8H9V6.5ZM13.5 6.5V8H10.5V6.5H13.5ZM7.92518 9.5H9H15H16.0747C16.782 9.5 17.3932 9.9941 17.5414 10.6857L19.5149 19.8952C19.5816 20.2065 19.3443 20.5 19.026 20.5H4.97391C4.65559 20.5 4.41831 20.2065 4.48501 19.8952L6.45848 10.6857C6.60668 9.9941 7.21788 9.5 7.92518 9.5ZM15 15C15 16.6569 13.6569 18 12 18C10.3431 18 9 16.6569 9 15C9 13.3431 10.3431 12 12 12C13.6569 12 15 13.3431 15 15ZM16.5 15C16.5 17.4853 14.4853 19.5 12 19.5C9.51472 19.5 7.5 17.4853 7.5 15C7.5 12.5147 9.51472 10.5 12 10.5C14.4853 10.5 16.5 12.5147 16.5 15ZM13.5024 13.4974C13.7465 13.7414 13.7466 14.1371 13.5026 14.3813L12.875 15.009C12.8701 15.4881 12.4803 15.875 12 15.875C11.5168 15.875 11.125 15.4832 11.125 15C11.125 14.5197 11.512 14.1298 11.9911 14.125L12.6185 13.4976C12.8625 13.2535 13.2583 13.2534 13.5024 13.4974Z" fill="black"/>
</svg>
