<svg width="60" height="60" viewBox="0 0 60 60" fill="none" xmlns="http://www.w3.org/2000/svg">
<g clip-path="url(#clip0_21335_12352)">
<path fill-rule="evenodd" clip-rule="evenodd" d="M0 4C0 1.79086 1.79086 0 4 0H56C58.2091 0 60 1.79086 60 4V56C60 58.2091 58.2091 60 56 60H4C1.79086 60 0 58.2091 0 56V4Z" fill="white"/>
<path d="M5 13.9387C5 12.315 6.31779 11 7.94289 11H52.0599C53.685 11 55 12.315 55 13.9387V46.5859C55 48.2097 53.685 49.5288 52.0599 49.5288H7.94289C6.31779 49.5288 5 48.2097 5 46.5859V13.9387Z" fill="#005295"/>
<path d="M44.3898 41.4421H50.5884V41.0739H44.3898V41.4421ZM44.3898 43.2832H50.5884V42.9094H44.3898V43.2832ZM50.5871 39.6052V39.2315H39.7637V45.1173H50.5871V44.7491H44.3884V44.1954H50.5871V43.8258H44.3884V43.7607H41.5646V42.8554H44.3884V42.3613H50.5871V41.9889H44.3884V41.5003H41.5646V40.5881H44.3884V40.5188H50.5871V40.1506H44.3884V39.6039H50.5871V39.6052ZM14.8308 45.1187H19.4556V43.7607H16.6331V42.8554H19.4556V41.5017H16.6331V40.5894H19.4556V39.2315H14.8308V45.1173V45.1187ZM12.1925 41.4684L12.1593 41.4574L11.9475 41.4048C11.3883 41.2663 11.2235 41.1957 11.2346 40.9687C11.2457 40.7043 11.3564 40.5604 12.5482 40.5604C13.2016 40.5604 13.7622 40.6683 13.7691 40.6683L14.0792 40.7237V39.4668C14.0584 39.4585 13.4065 39.1623 12.0181 39.1623C9.86559 39.1623 9.41433 40.1313 9.41433 40.9438C9.41433 42.3419 10.5812 42.6257 11.3564 42.8181L11.3772 42.8264C12.0098 42.9828 12.2839 43.0811 12.2866 43.3482C12.288 43.5849 12.1994 43.7967 11.0104 43.7967C10.2975 43.7967 9.49462 43.6818 9.41295 43.6652V44.9775C9.41295 44.9775 10.3418 45.1893 11.2678 45.1893C13.1006 45.1893 14.1443 44.5041 14.1443 43.261C14.1443 42.018 13.0009 41.6913 12.1911 41.467M34.3417 42.1536C34.3417 44.846 36.3474 45.1893 37.8562 45.1893C38.2411 45.1893 38.7255 45.1339 39.0093 45.0301V43.6223C39.0024 43.6223 38.5663 43.6749 38.3532 43.6749C36.7613 43.6749 36.1426 43.3579 36.1426 42.1522C36.1426 40.9466 36.7627 40.6282 38.3532 40.6282C38.5677 40.6282 39.0024 40.6836 39.0093 40.6836V39.2758C38.7255 39.1664 38.2411 39.1166 37.8562 39.1166C36.3474 39.1166 34.3417 39.4571 34.3417 42.1522M22.3556 41.82H22.0123V40.595H22.177C22.559 40.595 23.0297 40.595 23.2567 40.8165C23.3536 40.9189 23.4034 41.0601 23.4034 41.2553C23.4034 41.6152 23.2941 41.82 22.3556 41.82ZM24.1274 42.5094C24.7794 42.2159 25.2043 41.6373 25.2043 40.9535C25.2043 39.2329 23.7993 39.2329 22.667 39.2329H20.2086V45.1187H22.0123V43.0741H22.3113C22.7542 43.0741 23.0781 43.3718 23.2775 43.9033L23.7287 45.12H25.6888L25.023 43.3787C25.023 43.3787 24.6935 42.609 24.1274 42.5108M28.359 42.6644L27.1575 39.2315H25.3109L27.6143 45.1173H29.1051L31.4071 39.2315H29.5647L28.3604 42.6644H28.359ZM31.9303 45.1187H33.7326V39.237H31.9303V45.1187ZM33.5886 32.9402H35.3951V37.4708H37.1973V32.9402H39.0079V31.5891H33.5886V32.9402ZM29.0193 33.898L30.8645 37.3642L30.9212 37.4708H32.8356V31.5891H31.2354V34.8338L29.5702 31.6943L29.5148 31.5878H27.4191V37.4694H29.0207V33.8967L29.0193 33.898ZM12.9275 37.5898C13.3151 37.5898 13.7954 37.5344 14.0751 37.4334V36.0256C14.0751 36.0256 13.639 36.0782 13.4203 36.0782C11.834 36.0782 11.2138 35.7349 11.2138 34.5279C11.2138 33.3208 11.834 32.9789 13.4203 32.9789C13.6404 32.9789 14.0737 33.0343 14.0751 33.0343V31.6237C13.7954 31.5241 13.3151 31.4659 12.9275 31.4659C11.4229 31.4659 9.41295 31.8355 9.41295 34.5293C9.41295 37.223 11.4229 37.5898 12.9275 37.5898ZM17.6367 36.2886C16.838 36.2886 16.431 35.6588 16.4296 34.5057C16.431 33.3554 16.838 32.7242 17.6367 32.7214C18.4354 32.7256 18.8424 33.3554 18.8465 34.5057C18.8424 35.6588 18.4354 36.2886 17.6367 36.2886ZM20.563 35.3626C20.5699 35.3252 20.581 35.2864 20.5865 35.2463C20.6266 35.0124 20.6446 34.7715 20.6446 34.5113V34.5002C20.6446 34.2441 20.6266 33.9977 20.5865 33.7707C20.581 33.7278 20.5699 33.6863 20.563 33.6447C20.5505 33.5894 20.5394 33.5368 20.5298 33.4842C20.2335 32.2923 19.3878 31.5794 18.063 31.4549C18.0367 31.4507 18.0132 31.4479 17.9855 31.4479C17.9343 31.4396 17.8789 31.4396 17.8263 31.4369C17.7668 31.4369 17.7045 31.4313 17.6436 31.4313H17.6312C17.5689 31.4313 17.5093 31.4369 17.4457 31.4369C17.3958 31.4383 17.3419 31.4383 17.292 31.4479C17.2616 31.4479 17.2367 31.4521 17.209 31.4549C15.8898 31.5794 15.0426 32.2923 14.7506 33.4842C14.734 33.5368 14.7256 33.5907 14.7132 33.6447C14.7049 33.6849 14.6952 33.7278 14.6897 33.7707C14.6495 33.9977 14.626 34.2427 14.626 34.5002V34.5113C14.626 34.7715 14.6495 35.0124 14.6897 35.2463C14.6952 35.2864 14.7035 35.3266 14.7132 35.3626C14.7256 35.4207 14.734 35.4761 14.7506 35.5273C15.0426 36.715 15.8912 37.4306 17.209 37.5566C17.2367 37.5621 17.2616 37.5649 17.292 37.5649C17.3419 37.5718 17.3958 37.5718 17.4457 37.576C17.5093 37.576 17.5703 37.5829 17.6312 37.5829H17.6436C17.7031 37.5829 17.7654 37.576 17.8263 37.576C17.8789 37.5718 17.9343 37.5718 17.9855 37.5649C18.0132 37.5649 18.0367 37.5607 18.063 37.5566C19.3878 37.4306 20.2335 36.7163 20.5298 35.5273C20.5408 35.4761 20.5505 35.4207 20.563 35.3626ZM44.3898 36.1142H41.566V35.202H44.3898V33.8496H41.566V32.9402H44.3898V31.5891H39.7637V37.4708H44.3898V36.1142ZM23.9613 37.587C26.5526 37.587 26.6675 35.5051 26.6675 34.7106V31.5891H24.9205V34.7992C24.9205 35.0608 24.8721 36.1751 23.9613 36.1751C23.0504 36.1751 22.9978 35.0622 22.9978 34.7992V31.5891H21.2523V34.7106C21.2523 35.5051 21.3658 37.587 23.9613 37.587ZM46.9479 32.9512H47.114C47.4947 32.9512 47.9695 32.9498 48.1951 33.1741C48.292 33.2751 48.3391 33.4149 48.3391 33.6046C48.3391 33.9659 48.2311 34.1707 47.2912 34.1707H46.9479V32.9512ZM46.9479 35.4276H47.2455C47.6954 35.4276 48.0179 35.7183 48.2159 36.254L48.627 37.4708H50.5884L49.9614 35.7252C49.9614 35.7252 49.6306 34.957 49.0644 34.8629C49.7191 34.5708 50.1441 33.9866 50.1441 33.307C50.1441 31.5891 48.735 31.5891 47.6054 31.5891H45.1442V37.4708H46.9479V35.4276Z" fill="white"/>
<path d="M22.2171 24.2181C19.702 24.2181 17.6644 22.1749 17.6644 19.6681C17.6644 17.7149 18.888 16.0622 20.61 15.4102H20.5865C17.3391 15.4102 14.7035 18.0458 14.7035 21.2918C14.7035 24.5378 17.3391 27.1734 20.5865 27.1734C23.8339 27.1734 26.4695 24.5434 26.4695 21.2918V21.2738C25.8161 22.9916 24.1606 24.2181 22.2171 24.2181Z" fill="#FFDD00"/>
<path d="M29.9993 22.7646L29.4844 24.4534L27.7956 24.9697L29.4844 25.4833L29.9993 27.172L30.5156 25.4833L32.2058 24.9697L30.5156 24.4534L29.9993 22.7646ZM33.9319 19.4771L33.59 18.3489L33.2426 19.4771L32.1172 19.8245L33.2426 20.1678L33.59 21.2918L33.9319 20.1678L35.0601 19.8245L33.9319 19.4771ZM28.449 17.4713L28.6884 16.6781L29.4761 16.4414L28.6884 16.1992L28.449 15.4116L28.2067 16.1992L27.4177 16.4414L28.2067 16.6781L28.449 17.4713Z" fill="white"/>
</g>
<defs>
<clipPath id="clip0_21335_12352">
<rect width="60" height="60" rx="4" fill="white"/>
</clipPath>
</defs>
</svg>
