<svg width="60" height="60" viewBox="0 0 60 60" fill="none" xmlns="http://www.w3.org/2000/svg">
<g clip-path="url(#clip0_4845_2305)">
<rect width="60" height="60" rx="4" fill="white"/>
<g clip-path="url(#clip1_4845_2305)">
<path d="M54.3513 26.8906L45.3962 16.1558C43.9593 14.61 42.0209 13.6234 39.9253 13.3714L18.2703 12.0063C17.8647 11.9596 17.4539 12.0117 17.0728 12.158C16.6917 12.3044 16.3517 12.5407 16.0817 12.8468C15.8117 13.153 15.6198 13.5198 15.5222 13.9162C15.4247 14.3125 15.4244 14.7266 15.5215 15.123L15.5646 15.3882L13.324 15.5882C12.9158 15.6033 12.5173 15.7166 12.1622 15.9184C11.807 16.1202 11.5057 16.4045 11.2838 16.7474C11.0619 17.0903 10.9259 17.4817 10.8873 17.8883C10.8487 18.2949 10.9086 18.7048 11.062 19.0833L11.1051 19.213L10.15 19.3915C9.74524 19.4459 9.35951 19.5969 9.02532 19.8316C8.69113 20.0664 8.41829 20.378 8.22979 20.7402C8.04128 21.1025 7.94265 21.5048 7.9422 21.9131C7.94176 22.3215 8.03951 22.7239 8.22721 23.0866L8.88418 24.5801L6.77152 25.3806C6.38076 25.5047 6.02565 25.7211 5.73627 26.0115C5.4469 26.3019 5.23178 26.6577 5.10914 27.0489C4.9865 27.4401 4.95994 27.855 5.03173 28.2586C5.10351 28.6622 5.27152 29.0426 5.52152 29.3675L17.1823 46.6116C17.4177 46.9725 17.7266 47.2796 18.0889 47.5129C18.4513 47.7461 18.8588 47.9002 19.2848 47.9651C19.7108 48.03 20.1457 48.0042 20.561 47.8894C20.9764 47.7745 21.3628 47.5733 21.6949 47.2988L37.9829 34.2485L53.2804 30.3009C55.0494 29.8389 55.5367 28.3081 54.3513 26.8906Z" fill="white"/>
<path opacity="0.3" d="M5.52089 29.3687C5.27044 29.0441 5.1022 28.6636 5.0305 28.2599C4.95879 27.8562 4.98575 27.4411 5.10908 27.0501C5.2324 26.659 5.44844 26.3035 5.73878 26.014C6.02912 25.7244 6.38517 25.5093 6.77658 25.387L27.2418 17.6031C29.2643 16.9592 31.4494 17.0511 33.4108 17.8626L46.0405 23.9112C47.707 24.7117 47.8911 26.3077 46.4462 27.4658L21.6899 47.2931C21.3577 47.5676 20.9713 47.7688 20.556 47.8836C20.1406 47.9985 19.7057 48.0243 19.2797 47.9594C18.8537 47.8945 18.4462 47.7404 18.0839 47.5072C17.7216 47.2739 17.4126 46.9668 17.1772 46.6059L5.52089 29.3687Z" fill="#CF3339"/>
<path opacity="0.4" d="M8.22659 23.0872C8.03784 22.7247 7.93925 22.3221 7.93916 21.9134C7.93907 21.5047 8.03749 21.102 8.22608 20.7394C8.41466 20.3768 8.68787 20.065 9.02255 19.8303C9.35723 19.5957 9.74353 19.4452 10.1487 19.3915L31.4779 15.3698C33.5667 15.0962 35.6847 15.5757 37.4519 16.7222L48.7184 24.9256C50.2063 26.0078 50.1038 27.6145 48.4911 28.4967L20.8779 43.6088C20.5051 43.8192 20.0919 43.9481 19.6656 43.9869C19.2393 44.0258 18.8097 43.9736 18.405 43.834C18.0004 43.6944 17.63 43.4704 17.3184 43.177C17.0068 42.8835 16.7611 42.5272 16.5975 42.1317L8.22659 23.0872Z" fill="#CF3339"/>
<path opacity="0.5" d="M11.0627 19.0782C10.9097 18.6997 10.8501 18.2899 10.8889 17.8835C10.9277 17.477 11.0638 17.0859 11.2856 16.7431C11.5075 16.4004 11.8086 16.116 12.1635 15.9141C12.5184 15.7122 12.9167 15.5987 13.3247 15.5831L34.9424 13.6675C37.0493 13.5999 39.1115 14.2846 40.7595 15.5989L51.1924 24.8668C52.5671 26.0894 52.3127 27.6804 50.6297 28.3999L21.7019 40.7401C21.3094 40.9128 20.8848 41.0004 20.4561 40.9969C20.0273 40.9935 19.6041 40.8992 19.2145 40.7203C18.8248 40.5414 18.4775 40.2819 18.1955 39.9589C17.9135 39.636 17.7032 39.2569 17.5785 38.8467L11.0627 19.0782Z" fill="#CF3339"/>
<path d="M15.5215 15.123C15.4244 14.7266 15.4247 14.3125 15.5222 13.9162C15.6198 13.5198 15.8117 13.153 16.0817 12.8468C16.3517 12.5407 16.6917 12.3044 17.0728 12.158C17.4539 12.0117 17.8647 11.9596 18.2703 12.0063L39.926 13.3695C42.0222 13.6193 43.9613 14.6062 45.3968 16.1539L54.3525 26.888C55.5373 28.3056 55.0487 29.8364 53.2766 30.2965L22.8658 38.1436C22.4518 38.2544 22.019 38.2765 21.5958 38.2085C21.1726 38.1404 20.7685 37.9838 20.41 37.7489C20.0516 37.5139 19.7467 37.2059 19.5155 36.845C19.2843 36.4842 19.1319 36.0785 19.0684 35.6547L15.5215 15.123Z" fill="#CF3339"/>
<path d="M22.0145 20.723C22.0066 20.6219 22.0214 20.5203 22.0579 20.4257C22.0943 20.331 22.1515 20.2458 22.2253 20.1762C22.3853 20.0511 22.5851 19.9877 22.788 19.9977C22.9347 19.996 23.0808 20.0173 23.2209 20.061C23.3506 20.1041 23.4373 20.137 23.4804 20.1528V23.8049C23.6861 23.5941 23.9405 23.334 24.2544 23.0259C24.5683 22.7177 24.8823 22.4038 25.2038 22.0899C25.5253 21.776 25.8316 21.4843 26.1184 21.2134C26.4051 20.9426 26.6247 20.7375 26.7842 20.5964C26.9626 20.4428 27.1487 20.2983 27.3418 20.1635C27.5218 20.0471 27.7332 19.9886 27.9475 19.9958C28.1739 19.9857 28.3977 20.0482 28.5861 20.1743C28.7043 20.2528 28.8108 20.3476 28.9025 20.4559C28.8588 20.499 28.7563 20.6021 28.5861 20.7641C28.4158 20.9261 28.2063 21.121 27.969 21.3482C27.7316 21.5754 27.4709 21.8241 27.1842 22.095L26.3348 22.8955C26.0534 23.1554 25.7937 23.4043 25.5557 23.6422C25.312 23.8802 25.1177 24.0694 24.9607 24.2156C25.7778 24.9838 26.5462 25.7686 27.2551 26.5526C27.9553 27.3254 28.6076 28.1403 29.2082 28.9928H27.4006C27.1899 28.722 26.9297 28.4087 26.6266 28.0512C26.3234 27.6936 25.9987 27.3317 25.6468 26.9532C25.2949 26.5748 24.938 26.2065 24.5595 25.8439C24.181 25.4812 23.8183 25.1515 23.4665 24.8535V28.9922H22.0089V20.723H22.0145Z" fill="white"/>
<path d="M32.712 21.4318H30.2551C30.1578 21.447 30.0583 21.4393 29.9645 21.4094C29.8707 21.3794 29.7852 21.3279 29.7147 21.2591C29.6443 21.1903 29.5909 21.106 29.5588 21.0129C29.5267 20.9199 29.5167 20.8206 29.5297 20.723C29.5285 20.5683 29.5542 20.4145 29.6057 20.2686C29.6544 20.1332 29.6924 20.0414 29.7139 19.9984H36.7266C36.8239 19.9831 36.9234 19.9908 37.0172 20.0208C37.111 20.0508 37.1965 20.1022 37.2669 20.171C37.3373 20.2398 37.3907 20.3241 37.4228 20.4172C37.4549 20.5103 37.4649 20.6096 37.4519 20.7072C37.4549 20.8615 37.4311 21.0153 37.3816 21.1615C37.3563 21.2564 37.3179 21.3473 37.2677 21.4318H34.1728V29.0011H32.712V21.4318Z" fill="white"/>
<path d="M44.8658 28.3948C44.7741 28.4651 44.6494 28.5461 44.4924 28.6435C44.3013 28.7542 44.1002 28.8466 43.8918 28.9194C43.6135 29.0171 43.3274 29.0912 43.0367 29.1409C42.6668 29.2049 42.2919 29.2356 41.9164 29.2327C41.3288 29.2361 40.7455 29.1316 40.1956 28.9245C39.648 28.7224 39.1494 28.4067 38.7325 27.9983C38.3156 27.5898 37.9898 27.0978 37.7766 26.5545C37.5236 25.9124 37.4004 25.2265 37.4139 24.5364C37.4011 23.8474 37.5205 23.1623 37.7658 22.5183C37.9781 21.9564 38.3041 21.4443 38.7234 21.0141C39.1271 20.6098 39.6097 20.2929 40.1411 20.0832C40.6927 19.8677 41.2806 19.7603 41.8728 19.7668C42.3609 19.7561 42.8483 19.8089 43.3228 19.9237C43.6397 20.0014 43.9415 20.1312 44.2158 20.3078C44.4019 20.4272 44.5576 20.5885 44.6703 20.7787C44.7441 20.9003 44.7885 21.0374 44.8 21.1792C44.8005 21.2924 44.779 21.4046 44.7367 21.5096C44.6958 21.6104 44.6413 21.7052 44.5747 21.7912C44.5184 21.8692 44.4549 21.9417 44.3848 22.0076C44.3321 22.0573 44.2739 22.1008 44.2114 22.1374C44.1091 22.0202 43.9947 21.9142 43.8703 21.8209C43.7124 21.699 43.5428 21.593 43.3639 21.5045C43.1527 21.4013 42.9315 21.3196 42.7038 21.2609C42.4423 21.1939 42.1731 21.1612 41.9032 21.1634C41.5022 21.1603 41.1047 21.2376 40.7342 21.3906C40.3766 21.54 40.0581 21.7695 39.8032 22.0614C39.5314 22.373 39.3204 22.7328 39.181 23.122C39.0234 23.5758 38.9465 24.0536 38.9538 24.5339C38.9453 25.0152 39.026 25.4938 39.1918 25.9457C39.3358 26.3289 39.559 26.6774 39.8469 26.9684C40.1269 27.2438 40.4627 27.4559 40.8316 27.5905C41.2215 27.7335 41.6341 27.8049 42.0494 27.8012C42.5015 27.8111 42.9516 27.7397 43.3785 27.5905C43.666 27.4928 43.9404 27.3602 44.1956 27.1956L44.8449 28.391L44.8658 28.3948Z" fill="white"/>
</g>
</g>
<defs>
<clipPath id="clip0_4845_2305">
<rect width="60" height="60" rx="4" fill="white"/>
</clipPath>
<clipPath id="clip1_4845_2305">
<rect width="50" height="36" fill="white" transform="translate(5 12)"/>
</clipPath>
</defs>
</svg>
