<svg width="60" height="60" viewBox="0 0 60 60" fill="none" xmlns="http://www.w3.org/2000/svg">
<g clip-path="url(#clip0_4853_2403)">
<path fill-rule="evenodd" clip-rule="evenodd" d="M0 4C0 1.79086 1.79086 0 4 0H56C58.2091 0 60 1.79086 60 4V56C60 58.2091 58.2091 60 56 60H4C1.79086 60 0 58.2091 0 56V4Z" fill="#1A3763"/>
<path d="M21.2717 14.0405C21.7685 14.0151 22.2667 13.9783 22.7634 14.0165C27.1964 14.0207 31.6307 14.0165 36.0637 14.0179C38.0564 14.0278 40.1192 14.4608 41.768 15.6425C43.1573 16.6217 44.1396 18.1133 44.6532 19.7293C44.9703 20.7171 45.1429 21.753 45.171 22.7903C45.1668 27.2168 45.1724 31.6447 45.1682 36.0712C48.3705 39.1859 51.5798 42.2949 54.7834 45.4082C54.8901 45.5144 55.0346 45.6516 54.9925 45.8186C54.9153 45.9686 54.7217 45.9828 54.5743 45.9997C43.9712 45.9969 33.368 45.9997 22.7662 45.9997C20.9041 46.0097 18.9942 45.7309 17.3243 44.8577C16.3533 44.3525 15.486 43.6379 14.8209 42.7634C13.7067 41.3072 13.1482 39.4803 13.0261 37.6618C12.9826 37.2146 13.005 36.7646 13.0121 36.316C13.0121 31.3603 13.0121 26.4045 13.0121 21.4487C13.0485 19.9289 13.4793 18.3836 14.4153 17.1722C15.3499 15.9396 16.7265 15.1203 18.1705 14.642C19.1738 14.308 20.2207 14.124 21.2717 14.0405ZM19.4068 18.1515C18.7038 18.3821 18.0568 18.8293 17.6541 19.4619C17.2415 20.1072 17.0493 20.8883 17.0731 21.6525C17.0731 23.8092 17.0731 25.9658 17.0731 28.1225C18.9395 28.1225 20.8059 28.1239 22.6736 28.1225V25.0332C22.668 24.5238 22.8925 24.003 23.3093 23.7044C23.7289 23.3988 24.2649 23.3181 24.7729 23.3308C25.6233 23.3308 26.4737 23.3308 27.3241 23.3308C27.3283 21.5294 27.3227 19.7279 27.3269 17.9265C25.3946 17.9208 23.4623 17.9265 21.5314 17.9236C20.8185 17.8543 20.0888 17.9279 19.4068 18.1515ZM31.0989 17.9208C31.0905 19.7237 31.0961 21.5266 31.0961 23.3294C31.997 23.3308 32.8993 23.3294 33.8002 23.3294C34.2815 23.3323 34.7881 23.4398 35.1712 23.7497C35.5515 24.0526 35.7522 24.5479 35.7466 25.0304C35.7466 26.0606 35.7367 27.0908 35.7409 28.121C37.6101 28.1239 39.4793 28.121 41.347 28.121V21.5478C41.3597 21.0256 41.2769 20.4992 41.0945 20.0095C40.8419 19.3175 40.3212 18.7359 39.6729 18.3991C38.8225 17.9534 37.8332 17.8387 36.8888 17.9222C34.9593 17.9208 33.0298 17.9265 31.1003 17.9194L31.0989 17.9208ZM17.0745 31.8768C17.0731 34.1537 17.0745 36.4293 17.0745 38.7062C17.09 39.2468 17.1952 39.7944 17.4534 40.2742C17.7607 40.8614 18.2856 41.3143 18.8792 41.5916C19.7338 41.9949 20.6964 42.1181 21.631 42.0756C23.5296 42.077 25.4283 42.0756 27.3255 42.0756C27.3255 40.2741 27.3269 38.4713 27.3255 36.6698C26.4232 36.6698 25.5223 36.6698 24.6214 36.6698C24.14 36.6684 23.6335 36.5594 23.2504 36.2495C22.8701 35.9453 22.6708 35.45 22.6764 34.966V31.8768C20.8101 31.8768 18.9437 31.8768 17.0759 31.8768H17.0745ZM35.7353 32.0975C35.7297 33.0697 35.7339 34.0419 35.7339 35.0127C35.7494 35.4273 35.6441 35.8646 35.3593 36.1759C35.0407 36.5142 34.565 36.6613 34.1117 36.6557C33.0705 36.6514 32.0293 36.6613 30.988 36.65C30.9642 36.8849 30.9824 37.1198 30.9768 37.3562C30.9754 38.9029 30.981 40.4482 30.974 41.9949C31.416 42.0119 31.8595 41.9978 32.3015 42.002C36.7289 41.9992 41.1562 42.0077 45.5835 41.9978C43.6807 40.0704 41.7652 38.1571 39.861 36.2311C38.4801 34.8599 37.1288 33.4561 35.7367 32.0975H35.7353Z" fill="white"/>
<path d="M35.7354 32.099C37.1288 33.4575 38.4788 34.8613 39.8596 36.2326C41.7639 38.1586 43.6793 40.0718 45.5822 41.9992C41.1548 42.0091 36.7275 42.0006 32.3002 42.0035C31.8567 41.9992 31.4147 42.0134 30.9727 41.9964C30.9797 40.4496 30.9727 38.9043 30.9755 37.3576C30.9811 37.1213 30.9628 36.8849 30.9867 36.6514C32.0279 36.6628 33.0692 36.6514 34.1104 36.6571C34.5636 36.6628 35.0408 36.5156 35.3579 36.1774C35.6428 35.8661 35.748 35.4288 35.7326 35.0141C35.7326 34.0419 35.7284 33.0698 35.734 32.099H35.7354Z" fill="#54A69A"/>
</g>
<defs>
<clipPath id="clip0_4853_2403">
<rect width="60" height="60" rx="4" fill="white"/>
</clipPath>
</defs>
</svg>
