<svg width="60" height="60" viewBox="0 0 60 60" fill="none" xmlns="http://www.w3.org/2000/svg">
<g clip-path="url(#clip0_4853_2402)">
<path fill-rule="evenodd" clip-rule="evenodd" d="M0 4C0 1.79086 1.79086 0 4 0H56C58.2091 0 60 1.79086 60 4V56C60 58.2091 58.2091 60 56 60H4C1.79086 60 0 58.2091 0 56V4Z" fill="white"/>
<path d="M54.1392 18.0103H41.03C40.1737 18.0103 39.4116 18.5638 39.1301 19.3899C38.5061 21.2227 37.8011 23.2874 37.0749 25.4173C37.0524 25.4838 37.0298 25.5502 37.0072 25.6154C36.9913 25.6601 36.9767 25.7062 36.9607 25.751C34.6944 32.3983 32.2396 39.5937 31.3063 42.3191C31.1974 42.6582 31.0739 43.0462 30.9239 43.4437C30.8974 43.5143 30.7686 43.8507 30.5309 44.1817C30.4898 44.2387 30.4499 44.2902 30.4101 44.3377C30.3411 44.4218 30.2548 44.5209 30.126 44.6226C30.1194 44.628 30.1114 44.6335 30.1048 44.6389C30.0609 44.6741 30.0105 44.7094 29.9547 44.746C29.8153 44.8329 29.6958 44.8776 29.6507 44.8953C29.6441 44.898 29.6374 44.8993 29.6308 44.9021H29.6281C29.6281 44.9021 29.6202 44.9061 29.6162 44.9075L29.6069 44.9102C29.4383 44.9672 29.2843 44.9916 29.1581 44.9984H44.916C45.0183 44.9984 45.1192 44.9862 45.2187 44.9604C45.6011 44.86 46.4216 44.4964 46.7655 43.2036L54.9518 19.1756C55.1456 18.6058 54.7314 18.0103 54.1406 18.0103H54.1392Z" fill="#FF7B00"/>
<path d="M15.3426 40.4375L15.3532 40.4077C15.3638 40.3792 15.3731 40.3493 15.3837 40.3208C15.3997 40.2734 15.4156 40.2259 15.4329 40.1784C15.4554 40.1133 15.4767 40.0495 15.4992 39.9844C15.5271 39.903 15.555 39.823 15.5829 39.7416C15.6161 39.6453 15.6493 39.5489 15.6825 39.454C15.721 39.3441 15.7581 39.2328 15.7966 39.123C15.8391 38.9995 15.8816 38.8761 15.9241 38.7513C15.9706 38.6156 16.017 38.4786 16.0648 38.3429C16.1153 38.1951 16.1657 38.0472 16.2175 37.9007C16.2719 37.7433 16.3264 37.5846 16.3808 37.4272C16.4379 37.2604 16.4963 37.0921 16.5534 36.9253C16.6145 36.7489 16.6742 36.5739 16.7353 36.3976C16.7977 36.2144 16.8614 36.0299 16.9238 35.8468C16.9889 35.6569 17.0539 35.4669 17.1203 35.2757C17.188 35.0803 17.2544 34.8836 17.3221 34.6883C17.3911 34.4875 17.4602 34.2881 17.5292 34.0873C17.5996 33.8838 17.67 33.6789 17.739 33.4755C17.8094 33.2693 17.881 33.0617 17.9514 32.8555C18.0231 32.6466 18.0948 32.439 18.1665 32.2301C18.2382 32.0212 18.3099 31.8109 18.3816 31.602C18.4533 31.3931 18.525 31.1842 18.5967 30.9753L18.8104 30.3512C18.8808 30.145 18.9525 29.9402 19.0228 29.734C19.0919 29.5318 19.1622 29.3284 19.2313 29.1262C19.299 28.9282 19.368 28.7287 19.4357 28.5307C19.5021 28.3367 19.5685 28.1427 19.6349 27.95C19.6999 27.7628 19.7637 27.5743 19.8287 27.3871C19.8911 27.2066 19.9522 27.0262 20.0146 26.8444C20.0743 26.6721 20.1327 26.4985 20.1925 26.3262C20.2483 26.1621 20.3053 25.9979 20.3611 25.8351C20.4142 25.6805 20.4673 25.5272 20.5204 25.3725C20.5695 25.2287 20.6187 25.0863 20.6678 24.9425C20.7129 24.8109 20.7581 24.6793 20.8032 24.5491C20.8444 24.431 20.8842 24.3117 20.9254 24.1936C20.9612 24.0892 20.997 23.9834 21.0329 23.8789C21.0634 23.7894 21.0953 23.6985 21.1258 23.6089C21.1511 23.5343 21.1776 23.4597 21.2028 23.3851C21.244 23.2644 21.2812 23.1396 21.3369 23.0243L21.3422 23.0188H21.3449V23.0148L21.3489 23.012C21.3595 22.9903 21.3635 22.9713 21.3768 22.9496C21.4856 22.7055 21.7711 22.4423 21.8879 22.4043L20.1128 16.3091C19.8911 15.5331 19.1622 15 18.4041 15H5.88173C5.29226 15 4.86873 15.5793 5.03734 16.1572L12.0872 40.3656C12.3779 41.2243 13.0099 41.6706 13.6565 41.7046C14.3283 41.7344 15.0133 41.3152 15.3452 40.4443L15.3426 40.4375Z" fill="#FF000F"/>
<path d="M21.8842 22.4016H21.8856L21.88 22.4044C21.88 22.4044 21.8828 22.403 21.8842 22.4016Z" fill="#AA0017"/>
<path d="M26.7763 41.596C26.7471 41.4956 26.7179 41.3953 26.6887 41.2949C26.6741 41.2433 26.6581 41.1918 26.6435 41.1402L23.6218 30.7691L21.5095 23.5167C21.4312 23.2467 21.4577 22.9754 21.5693 22.7543C21.5958 22.7014 21.629 22.6512 21.6648 22.6037C21.6688 22.5983 21.6728 22.5915 21.6781 22.5861C21.7299 22.5237 21.7896 22.4667 21.8574 22.4192C21.8653 22.4138 21.8733 22.4097 21.8813 22.4043L21.8866 22.4002C21.7697 22.4382 21.4843 22.7014 21.3754 22.9456C21.3635 22.9673 21.3515 22.989 21.3409 23.0107C21.3396 23.0148 21.3382 23.0175 21.3356 23.0215C21.2798 23.1369 21.2427 23.2617 21.2015 23.3824C21.1763 23.457 21.1497 23.5316 21.1245 23.6062C21.094 23.6958 21.0621 23.7867 21.0316 23.8762C20.9957 23.9807 20.9599 24.0865 20.924 24.1909C20.8829 24.309 20.843 24.4283 20.8019 24.5464C20.7567 24.6779 20.7116 24.8095 20.6665 24.9398C20.6173 25.0836 20.5682 25.226 20.5191 25.3698C20.466 25.5245 20.4129 25.6778 20.3598 25.8324C20.304 25.9966 20.2469 26.1607 20.1912 26.3235C20.1314 26.4958 20.073 26.6694 20.0132 26.8417C19.9508 27.0221 19.8898 27.2026 19.8274 27.3844C19.7623 27.5716 19.6986 27.7601 19.6335 27.9473C19.5672 28.1413 19.5008 28.3353 19.4344 28.528C19.3667 28.726 19.2976 28.9254 19.2299 29.1235C19.1609 29.3256 19.0905 29.5291 19.0215 29.7313C18.9511 29.9375 18.8808 30.1423 18.8091 30.3485L18.5953 30.9725C18.5236 31.1815 18.4519 31.3904 18.3802 31.5993C18.3085 31.8082 18.2368 32.0185 18.1652 32.2274C18.0935 32.4363 18.0218 32.6439 17.9501 32.8528C17.8797 33.059 17.808 33.2665 17.7377 33.4727C17.6673 33.6762 17.5969 33.8811 17.5279 34.0846C17.4588 34.2853 17.3898 34.4848 17.3208 34.6855C17.2531 34.8809 17.1867 35.0776 17.119 35.2729C17.0539 35.4629 16.9889 35.6528 16.9225 35.8441C16.8601 36.0272 16.7963 36.2117 16.7339 36.3948C16.6729 36.5712 16.6131 36.7476 16.5521 36.9226C16.495 37.0894 16.4366 37.2576 16.3795 37.4245C16.325 37.5819 16.2706 37.7406 16.2162 37.898C16.1657 38.0458 16.1153 38.1937 16.0635 38.3402C16.017 38.4759 15.9706 38.6129 15.9228 38.7485C15.8803 38.872 15.8378 38.9954 15.7953 39.1202C15.7568 39.2301 15.7196 39.3414 15.6811 39.4513C15.6479 39.5476 15.6147 39.6439 15.5815 39.7389C15.5537 39.8203 15.5258 39.9003 15.4979 39.9817C15.4753 40.0468 15.4541 40.1106 15.4315 40.1757C15.4156 40.2232 15.3997 40.2706 15.3824 40.3181C15.3718 40.3466 15.3625 40.3765 15.3519 40.4049L15.3412 40.4348C15.0107 41.3071 14.3256 41.7249 13.6525 41.6951C13.6392 41.6951 13.6272 41.6964 13.6153 41.6978H26.8042C26.7936 41.6625 26.7843 41.6286 26.7736 41.5933L26.7763 41.596Z" fill="#AA0017"/>
<path d="M37.0749 25.4173C36.962 25.0008 36.8505 24.5843 36.7416 24.1679C36.6527 23.8247 36.5478 23.4923 36.3672 23.1871C36.1893 22.8872 35.949 22.6295 35.6477 22.4572C35.564 22.4097 35.4764 22.369 35.3861 22.3365C35.2441 22.2849 35.0024 22.2483 34.8511 22.2483H22.4362C22.2198 22.2483 22.0339 22.3066 21.8839 22.4043C21.8826 22.4043 21.8812 22.4057 21.8799 22.407C21.8719 22.4124 21.864 22.4165 21.856 22.4219C21.7883 22.4694 21.7272 22.525 21.6768 22.5888C21.6728 22.5942 21.6688 22.601 21.6635 22.6064C21.6277 22.6539 21.5945 22.7041 21.5679 22.757C21.4564 22.9781 21.4298 23.2495 21.5082 23.5194L23.6205 30.7718L26.6422 41.1429L26.7935 41.6612L27.3671 43.7042C27.4043 43.8127 27.7083 44.6565 28.5461 44.9224C28.9576 45.054 29.3187 44.9889 29.5033 44.94C29.5312 44.9333 29.5657 44.9238 29.6055 44.9116L29.6148 44.9088C29.6148 44.9088 29.6254 44.9048 29.6307 44.9034C29.6374 44.9007 29.644 44.8993 29.6507 44.8966C29.6971 44.8804 29.8153 44.8356 29.9547 44.7474C30.0118 44.7121 30.0609 44.6755 30.1047 44.6402C30.195 44.5683 30.2627 44.5005 30.3118 44.449C30.345 44.415 30.3769 44.3784 30.4101 44.3391C30.4499 44.2916 30.4911 44.24 30.5309 44.1831C30.7685 43.8507 30.8973 43.5156 30.9239 43.4451C31.0739 43.0476 31.1987 42.6596 31.3062 42.3205C31.366 42.1346 31.4204 41.9623 31.4722 41.8104C31.6023 41.4292 31.7324 41.048 31.8625 40.6681C32.0258 40.1892 32.1905 39.7104 32.3538 39.2315C32.5423 38.6794 32.7308 38.1286 32.9193 37.5765C33.1238 36.9768 33.3283 36.3786 33.534 35.779C33.7465 35.1576 33.9589 34.5377 34.17 33.9164C34.3811 33.2991 34.5922 32.6819 34.8033 32.0633C35.0051 31.4745 35.2056 30.8857 35.4074 30.297C35.5906 29.7625 35.7725 29.228 35.9557 28.6935C36.111 28.2377 36.2663 27.7832 36.423 27.3274C36.5425 26.9774 36.662 26.626 36.7828 26.276C36.8425 26.101 36.9023 25.926 36.962 25.751C36.978 25.7062 36.9926 25.6601 37.0085 25.6154C37.0311 25.5489 37.0536 25.4838 37.0762 25.4173H37.0749Z" fill="#FFCD00"/>
</g>
<defs>
<clipPath id="clip0_4853_2402">
<rect width="60" height="60" rx="4" fill="white"/>
</clipPath>
</defs>
</svg>
